<svg enable-background="new 0 0 400 400" viewBox="0 0 400 400" xmlns="http://www.w3.org/2000/svg"><path d="m50.22 71.63c10.46-2.28 19.48-.46 28.35 2.67 2.42.85 4.79 1.87 7.23 2.68 11.54 3.84 22.25 8.72 30.36 18.52 4.61 5.57 10.73 9.82 17.81 12.18.81.27 2.43.09 2.76-.45 9.35-15.1 14.65-30.96 8.05-48.67-1.63-4.39-3.87-8.55-5.82-12.82-.5-1.09-.93-2.21-1.45-3.44 18.43 4.97 32.5 16.72 35.15 31.06 1.98 10.75-.37 20.88-4.31 30.79-.35.88-1.21 1.57-1.9 2.3-7.88 8.26-16.03 16.28-23.57 24.83-8.18 9.27-8.29 11.75-3.49 22.98.34.79 1.25 1.48 2.07 1.88 4.92 2.4 10.14 2.58 15.41 1.66 2.86-.5 5.66-1.3 8.46-2.09 4.9-1.37 9.1-3.64 12.65-7.62 7.6-8.51 15.82-16.47 23.48-24.93 2.34-2.58 3.72-6.04 5.47-9.14 1.09-1.95 1.89-4.07 3.09-5.94 2.65-4.14 5.88-5.26 10.61-3.94 1.61.45 3.2 1.14 4.84 1.33 6.54.77 10.07 5.42 13.26 10.31 3.3 5.06 2.39 10.26-2.02 14.32-19.84 18.28-39.52 36.74-59.6 54.75-8.98 8.05-19.12 14.82-28.08 22.89-5.84 5.25-10.8 11.57-15.63 17.81-4.58 5.91-8.55 12.31-12.66 18.57-3.1 4.72-5.07 9.88-5.51 16.16 4.95-1.83 9.94-2.23 13.89-5.77 8.9-7.97 19.12-13.97 29.72-19.35 4.09-2.07 8.12-4.27 12.31-6.11 12.42-5.46 23.42-12.89 33.11-22.42 3.22-3.17 6.96-6.18 11.01-8.06 7.09-3.3 10.49-9.17 12.77-15.93 1.38-4.09 2-8.46 2.78-12.74.79-4.34 1.55-8.65 5.24-11.63 2-1.62 3.62-2.06 5.95.26 3.86 3.84 8.41 6.99 12.6 10.51 1.45 1.21 2.9 2.5 4.02 4 2.83 3.76 4.07 7.61 1.71 12.4-3.44 6.99-6.28 14.29-9.48 21.7 2.64 1.34 5.16 2.5 7.55 3.87 16.89 9.64 33.76 19.3 50.6 29.03 1.2.69 2.15 1.93 3.02 3.07 4.27 5.6 8.46 11.25 12.93 17.21 8.5-8.22 14.26-17.58 16.04-29.18 1.63-10.57-.58-20.53-5.37-29.87-1.47-2.86-4.31-5.05-6.62-7.45-2.64-2.73-3.51-5.85-2.43-9.96 3.62 1.35 7.07 2.94 10.69 3.93 10.56 2.89 18.55 9.23 26.43 16.72 8.72 8.29 11.09 17.82 9.16 28.58-2.09 11.62-5.48 23-8.47 34.44-.42 1.61-1.59 3.21-2.81 4.4-10.62 10.43-21.31 20.8-32.04 31.11-1.17 1.12-2.65 2.05-4.15 2.67-7.42 3.11-14.85 6.21-22.35 9.1-14.42 5.55-26.99 14.45-40.02 22.42-16.43 10.04-33.71 17.43-52.76 20.53-17.41 2.83-34.85 2.34-52.12-.68-11.63-2.03-23.05-5.31-34.53-8.19-1.62-.41-3.25-1.49-4.47-2.68-6.5-6.33-12.94-12.71-19.22-19.25-1.38-1.43-2.44-3.44-2.97-5.37-4.76-17.34-6.32-34.93-3.91-52.84 2.19-16.32 7.47-31.65 16.22-45.46 9.21-14.53 19.5-28.38 29.33-42.52.69-1 1.39-1.99 2.22-3.17-7.67-2.31-15.11-1.83-22.53-.51-6.16 1.1-12.25 2.79-18.45 3.46-4.59.5-9.32-.07-13.97-.43-10.59-.83-21.16-1.89-31.75-2.72-9.81-.77-16.52-6.17-20.69-14.52-4.12-8.25-7.42-16.91-11.08-25.39.22-.34.44-.69.66-1.03 1.88.53 4.23.52 5.56 1.68 10.87 9.45 23.56 14.29 37.74 15.85 9.89 1.08 19.75 2.46 29.63 3.67 1.09.13 2.22.02 3.33.01 5.78-.08 11.56-.35 17.34-.2 3.94.1 6.09-1.92 4.77-5.75-1.23-3.55-2.71-7.22-4.96-10.18-10.61-14.01-21.32-27.94-32.44-41.54-2.87-3.52-7.31-5.77-11.11-8.51-4.98-3.59-10.26-6.81-14.97-10.71-2.85-2.38-4.86-5.73-7.67-9.15zm79.55 199.87c-2.89 0-4.82.22-6.68-.04-7.15-.99-11.65 4.3-17.15 7.16-.5.26-.7 1.31-.84 2.04-2.14 11.66-1.36 22.94 4.61 33.47 3.87 6.83 8.71 12.36 16.55 15.24 15.44 5.68 31.28 9.14 47.64 10.28 11.63.81 22.98-.58 33.81-5.14 5.52-2.33 6.22-4.71 2.8-9.74-.86-1.27-2.01-2.41-3.19-3.4-4.27-3.6-8.71-7-12.91-10.68-8.5-7.44-16.64-15.31-25.36-22.46-11.68-9.57-23.77-18.6-39.28-16.73zm111.32 49.31c7.98-5.5 15.73-10.77 23.37-16.21.65-.46.95-2.11.71-3.03-1.58-6.13-5.3-11.05-9.59-15.51-11.91-12.38-26.08-21.74-41.11-29.76-5.66-3.02-11.91-4.98-17.96-7.26-2.79-1.05-5.5-.87-8.29.73-4.16 2.38-8.59 4.3-12.89 6.42-4.38 2.17-8.75 4.35-13.96 6.95 2.92 2.48 5.08 5.01 7.81 6.47 4.8 2.56 9.87 4.71 14.99 6.58 15.51 5.64 30.1 13.07 43.75 22.3 5.09 3.44 9.14 7.76 10.42 14.17.54 2.69 1.75 5.24 2.75 8.15zm-34.47-81.42c1.79.58 2.82.96 3.88 1.26 12.3 3.43 24.21 7.82 35.39 14.08 4.48 2.51 9.1 4.79 13.67 7.14 10.36 5.33 19.55 12.11 26.85 21.32.8 1.01 2.53 1.67 3.89 1.79 6.12.53 9.97-3.79 14.34-7.02 1.57-1.17 1.9-2.4.93-3.98-1.87-3.03-3.46-6.31-5.76-8.97-11.67-13.53-26.17-23.69-41.07-33.23-5.71-3.65-11.99-6.42-18.03-9.55-2.81-1.46-5.28-1.16-8.07.69-7.44 4.95-15.13 9.53-22.72 14.27-.92.57-1.8 1.2-3.3 2.2z" fill="#010104"/><g fill="#fcfbfa"><path d="m385.2 377.6.6-.7c.6.4 1.3.9 1.9 1.5l-.6.7c-.8-.5-1.4-1-1.9-1.5zm.3 7.1c.6-1.4 1.1-2.9 1.5-4.5.3.1.6.3.9.4-.5 1.4-1 2.9-1.5 4.4zm.2-10.1.6-.6c.7.5 1.3 1.1 1.9 1.6l-.7.7c-.6-.6-1.2-1.2-1.8-1.7zm8.4-.8h.8v.9h1.8v.7h-1.8v1.8h-.8v-.3h-1.2v.9h3.3v2.6h-.8v-.4h-2.5c0 .3 0 .6-.1.8h3.4v.7h-3.5c0 .3-.1.6-.1.8h4v.7h-3.5c.7.9 1.9 1.3 3.6 1.5-.2.2-.4.5-.6.9-1.9-.3-3.2-1.1-3.8-2.3-.5 1.1-1.8 2-3.9 2.4-.2-.3-.4-.5-.6-.8 1.9-.4 3.1-.9 3.6-1.7h-3.2v-.7h3.5c.1-.2.1-.5.2-.8h-3.3v-.7h3.4c0-.2 0-.5 0-.8h-2.4v.3h-.8v-2.6h3.3v-.9h-1.2v.3h-.8v-1.8h-1.8v-.7h1.8v-.9h.8v.9h3.2zm-4.4 5.5h2.4c0-.3 0-.6 0-.9h-2.4zm1.2-3.1h3.2v-.8h-3.2zm4.4 2.2h-2.4v.9h2.5v-.9z"/><path d="m389.2 385.8h.9v1.5h1.9v-1.5h.9v1.5h2.7v6h1.1v.9h-11.3v-.9h1.1v-6h2.7zm.2 8.7.5.8c-1.2.6-2.5 1.3-4 1.9-.2-.3-.3-.6-.6-.8 1.6-.6 3-1.3 4.1-1.9zm-2-4.3h1.9v-2.1h-1.9zm0 3.1h1.9v-2.2h-1.9zm2.7-3.1h1.9v-2.1h-1.9zm0 3.1h1.9v-2.2h-1.9zm2.4 1.3c1.4.6 2.7 1.2 4.1 1.8l-.5.9c-1.5-.7-2.8-1.4-4.1-1.9zm2.2-6.5h-1.9v2.1h1.9zm-1.9 5.2h1.9v-2.2h-1.9z"/></g></svg>