<svg enable-background="new 0 0 400 400" viewBox="0 0 400 400" xmlns="http://www.w3.org/2000/svg"><path d="m91.87 99.02c-.47 1.35-.92 2.68-1.46 4.24 1.89.58 3.67 1.13 5.7 1.76.74-1.61 1.66-3.05 2.06-4.63 1.13-4.46 4.42-5.8 8.44-6.28 9.06-1.08 12.58-6.76 9.56-15.56-1.21-3.51.94-5.7 2.93-8.17-2.69-3.63-2.32-7.51-.79-11.41 1.22-3.12 2.54-6.2 3.88-9.27.93-2.14 1.98-4.23 3.12-6.65 2.09.65 4.05 1.52 6.09 1.82 2.21.32 4.5.11 6.76.15.79.01 1.86-.26 2.32.15 4.19 3.67 7.47 7.95 8.43 13.25-1.85.42-3.9.37-5.12 1.36-.84.68-.51 2.79-.84 5.3 2.96-.77 5.08-1.32 7.44-1.93 1.35 5.63 2.92 12.14 4.46 18.65 2.05 8.67 10.93 12.45 18.78 7.88.78-.45 1.3-1.48 1.75-2.33 6.32-11.95 12.57-23.95 18.96-35.87.8-1.48 2.12-2.86 3.53-3.8 4.36-2.92 8.8-5.76 13.39-8.32 1.73-.96 3.97-1.61 5.91-1.48 7.44.51 14.12 3.32 19.95 7.94 5.74 4.55 7.67 11.53 5.21 18.4-.39 1.09-1.21 2.11-2.06 2.94-2.79 2.75-5.74 5.34-8.51 8.11-1.57 1.57-3.16 3.22-4.32 5.09-3.75 6.07-2.84 9.04 4.07 10.33 8.97 1.67 18.1 2.97 27.21 3.36 16.21.7 32.42-.01 48.56-2.18 6.35-.85 12.96-1.97 18.9 2.05.4.27 1.14.38 1.57.21 5.87-2.37 11.71-.89 17.51.16 4.17.76 8.25 2.01 12.41 2.87 5 1.03 9.29 3.26 12.35 7.36 1.02 1.36 1.56 3.22 1.88 4.93.82 4.39-1.72 6.5-5.41 8.3-9.72 4.72-19.92 6.83-30.6 5.7-10.66-1.13-21.25-2.87-31.88-4.34-.99-.14-2.04-.43-2.99-.25-8.41 1.61-16.71-.46-25.06-.55-20.02-.22-40.04-.11-60.06-.13-7.93-.01-15.86 0-24.03 0 0 3.24-.08 5.66.02 8.08.09 2.23.77 4.51.49 6.68-.77 6 1.86 9.53 6.94 12.51 12.62 7.42 24.69 15.78 37.5 22.82 5.82 3.2 12.85 4.26 19.4 6.02.96.26 2.68-.66 3.42-1.55 5-6 7.09-12.98 6.77-20.8-.18-4.42 1.44-6.34 5.72-7.37 3.9-.94 7.85-1.75 11.81-2.38.81-.13 2.08.55 2.65 1.26 4.11 5.14 6.3 11.24 6.57 17.64.4 9.57.03 19.18-.11 28.77-.28 19.47-.55 38.94-.99 58.41-.06 2.84-1.01 5.65-1.79 9.8 3.26 5.07 1.7 11.73-.22 18.33-4.42 15.2-11.67 28.75-21.71 41.2-6.15 7.63-12.56 13.1-22.34 14.55-2.53.38-5.02 1.82-7.27 3.21-7.8 4.82-15.47 9.86-23.22 14.76-1.01.64-2.24 1.47-3.29 1.38-11.11-.92-21.56 2.47-31.87 5.53-9.02 2.68-17.65 1.71-26.43.14-3.18-.57-5.74-.34-7.67 2.39-3.14 4.43-7.6 4.94-12.26 3.71-10.68-2.83-21.3-5.91-31.9-9.05-1.39-.41-2.71-1.55-3.72-2.65-12.35-13.51-19.05-29.55-21.34-47.57-1.82-14.32-1.66-28.58 1.31-42.74.41-1.97 1.67-3.77 2.68-5.95-6.11-6.66-3.71-15.31-3.06-23.05 1.33-15.8 3.84-31.52 6.53-47.16 1.1-6.41 3.89-12.53 6.01-18.75.39-1.13 1.02-2.62 1.95-3.04 3.8-1.71 6.4-4.02 6.75-8.51.05-.63 2.48-1.69 3.65-1.52 5.45.81 10.85 1.99 16.19 3.03-.25 2.95-.59 4.94-.54 6.92.07 3.2 1.7 4.81 4.74 3.93 4.23-1.22 8.66-2.55 12.28-4.93 8.49-5.59 16.45-11.98 24.82-17.77 8.8-6.08 12.97-14.53 13.61-24.93.06-.9-.77-2.26-1.58-2.73-4.54-2.63-9.68-3.43-14.62-2.27-14.45 3.37-29.09 3.71-43.67 2.33-17.63-1.67-33.92 3.24-50.1 8.74-14.14 4.81-27.84 4.32-41.63-.85 8.69-12.97 52.23-29.16 69.52-25.73zm59.59 238.07c.09-5.87.09-5.88 5.48-5.68 2.79.1 5.58.27 8.37.41 7.95.41 15.69 0 23.39-2.77 9.44-3.4 19.2-5.9 28.83-8.75 2.7-.8 5.3-.91 7.04 2.38 6.8-8.44 14.21-15.81 18.73-25.34 2.18-4.61.14-9.43-4.91-10.35-3.56-.65-7.32-.48-10.97-.26-8.23.51-16.52 1.85-23.14-2.63-2.21 1.15-3.84 2.71-5.5 2.75-15.2.37-30.41.39-45.62.71-6.12.13-12.23.78-18.35 1.15-4.39.27-8.82.57-11.11-2.96-1.97 1.42-3.65 3.07-5.67 4-3.2 1.48-5.39 3.11-4.8 7.19.42 2.96.52 6.11 0 9.04-1.37 7.73 2.57 13 8.02 17.2 3.64 2.81 8.02 4.72 12.19 6.77 4.49 2.21 9.1 4.19 13.71 6.14 1.29.55 2.78.66 4.31 1zm75.94-74.43c7.73.64 15.17-.57 22.14-3.99.96-.47 1.95-1.78 2.12-2.82 1.01-6.29 1.83-12.62 2.61-18.94.6-4.83-1.6-6.79-6.46-5.91-3.07.55-6.15 1.56-9.22 1.54-7.26-.05-14.52-.62-21.78-.94-10.19-.45-20.14-1.34-30.31 2.37-10.66 3.88-22.09 2.13-33.2.24-11.14-1.9-22.19-2.33-33.02 2-4.23 1.69-6.99 4.08-7.08 8.91-.03 1.43-.52 2.85-.83 4.27-2.04 9.54 4.28 18.5 13.99 18.66 5.81.1 11.73-1.1 17.47-2.3 11.8-2.46 23.44-4.62 35.33-.15 2.31.87 5.42-.06 8.09-.55 3.15-.58 6.21-2.18 9.34-2.27 10.25-.31 20.53-.12 30.81-.12zm28.27-53.09c0-1.23.24-2.53-.07-3.67-.3-1.1-.92-2.57-1.81-2.99-8.18-3.84-16.33-7.81-24.74-11.1-13.41-5.25-26.13-11.59-37.31-20.79-1.98-1.63-3.99-3.32-6.25-4.49-3.03-1.57-6.26-3.3-9.83-1.58-17.33 8.38-34.28 17.46-49.69 29.08-2.54 1.91-4.69 4.8-6.05 7.69-2.14 4.52-3.77 9.38-1.97 14.58.65 1.88 1.36 2.84 3.81 2.44 13.56-2.24 27.11-4.78 40.77-6.15 17.23-1.73 34.59-2.19 51.85-3.67 7.44-.64 14.14 1.16 20.82 3.8 1.77.7 3.45 1.62 5.26 2.17 2.44.75 4.94 1.53 7.46 1.77 6.5.61 7.75-.65 7.75-7.09zm-122.09 151.15c3.62.58 3.87-1.82 3.72-4.05-.22-3.2-2.63-3.21-5.37-3.07.59 2.56 1.13 4.87 1.65 7.12zm59.01-12.62c-2.88-3.61-4.95-1.14-7.5-.21 2.76 4.63 4.85.32 7.5.21zm78.52-157.01c-.33 2.57-.56 4.36-.85 6.58 1.78-.7 3.05-1.19 4.6-1.8-1.22-1.56-2.17-2.77-3.75-4.78z" fill="#010000"/><g fill="#fbfcfa"><path d="m361.2 9.6.8-1c.9.7 1.9 1.4 2.9 2.3l-.9 1.1c-1-1-2-1.8-2.8-2.4zm.5 10.6c.9-2.1 1.6-4.3 2.3-6.7.4.2.8.4 1.3.6-.7 2.1-1.5 4.3-2.2 6.6zm.4-15.2.9-.9c1 .8 2 1.6 2.8 2.4l-1 1c-.9-.9-1.8-1.7-2.7-2.5zm12.5-1.2h1.2v1.4h2.7v1.1h-2.7v2.7h-1.2v-.6h-1.8v1.3h4.9v3.8h-1.2v-.5h-3.7c0 .4-.1.9-.1 1.2h5.1v1h-5.2c0 .5-.1.9-.2 1.2h6v1h-5.2c1.1 1.3 2.9 2 5.5 2.2-.4.4-.7.8-.9 1.3-2.9-.5-4.8-1.6-5.7-3.5h-.1c-.8 1.7-2.7 2.9-5.9 3.6-.2-.4-.6-.8-.9-1.1 2.8-.6 4.6-1.4 5.4-2.5h-4.8v-1h5.3c.1-.3.2-.7.2-1.2h-4.9v-1h5c0-.4 0-.8.1-1.2h-3.5v.5h-1.2v-3.8h4.9v-1.3h-1.8v.5h-1.2v-2.7h-2.7v-1h2.6v-1.4h1.2v1.4h4.7v-1.4zm-6.6 8.3h3.6c0-.4 0-.9 0-1.4h-3.6zm1.9-4.6h4.7v-1.3h-4.7zm6.6 3.2h-3.7v1.4h3.7z"/><path d="m385.3 3.8h1.3v2.2h2.8v-2.2h1.3v2.2h4.1v9.1h1.7v1.3h-16.9v-1.3h1.7v-9.1h4.1v-2.2zm.4 13.1.7 1.2c-1.8.9-3.8 1.9-6 2.9-.2-.4-.5-.8-.8-1.3 2.3-1 4.3-1.9 6.1-2.8zm-3.1-6.4h2.8v-3.2h-2.8zm0 4.6h2.8v-3.3h-2.8zm4-4.6h2.8v-3.2h-2.8zm0 4.6h2.8v-3.3h-2.8zm3.7 1.9c2.1.9 4.1 1.8 6.1 2.7l-.7 1.3c-2.2-1.1-4.2-2-6.1-2.9zm3.2-9.7h-2.8v3.2h2.8zm-2.8 7.8h2.8v-3.3h-2.8z"/></g></svg>