<svg enable-background="new 0 0 400 400" viewBox="0 0 400 400" xmlns="http://www.w3.org/2000/svg"><path d="m140.34 356.46c1.48-5.12-.64-8.32-3.51-10.93-5.86-5.35-6.75-12.55-7.96-19.71-1.14-6.72-2.23-13.46-3.66-20.13-.54-2.52-1.58-5.14-3.08-7.22-3.32-4.57-6.51-9.1-6.7-15.23-2.13.22-3.85.41-5.5.58-.23-.28-.51-.46-.49-.62.59-5.79-2.07-10.12-6.33-13.61-1.5-1.23-3.2-2.31-4.98-3.06-2.04-.87-4.23-1.58-6.43-1.86-5.75-.73-9.07-3.86-10.69-9.35-.59-1.99-.77-3.47-.14-5.6 1.08-3.68 1.48-7.65 1.55-11.51.14-7.37-.07-14.75-.29-22.12-.11-3.79 2.37-6.18 4.38-8.76 2.28-2.93 3.94-5.88 3.33-9.76-.17-1.08.09-2.23.22-3.34.8-7.24 5.38-9.32 11.37-5.16.54.37 1.08.73 2.42 1.62.76-1.09 1.35-2.41 2.34-3.25 2.02-1.71 2.63-3.43 1.77-6.11-3.49-10.91.9-19.65 8.2-27.34 1.4-1.47 3.48-2.38 5.38-3.26.78-.36 2.28-.37 2.81.13 2.27 2.15 4.32 1.76 6.45-.03 4.13-3.47 8-4 11.05 1.22 2.03-1.04 2.39-1.9.9-3.4-2.32-2.34-4.44-4.89-7.26-8.03 1.6.1 2.15.28 2.6.14 1.25-.38 3.25-.63 3.5-1.41.43-1.32.25-3.39-.57-4.44-2.28-2.89-4.9-5.54-7.61-8.04-7-6.45-12.88-13.61-15.17-23.28-2.07.54-3.65.96-6.38 1.67 1.39-2.79 2.39-4.81 3.51-7.06-2.91-2.93-7.04-4.39-11.39-5.55-4.77-1.27-5.2-2.14-5.1-7.26.01-.67-.69-1.58-1.32-2-1-.67-2.22-1.02-3.41-1.54 2.32-3.43 4.47-6.91 6.92-10.17 2.93-3.9 8.11-3.79 11.45-.3 4.17 4.36 8.85 8.26 12.88 12.74 3.03 3.37 5.59 7.23 8 11.1 1.83 2.95 3.6 6.3-1.27 8.9 4.06 4.25 7.82 8.19 11.58 12.13 2.47 2.59 4.87 5.26 7.42 7.77 2.19 2.16 3.76 4.34 4.17 7.67.2 1.64 2.54 3.51 4.34 4.34 3.04 1.41 3.75 2.69 1.82 5.57-.6.9-1.29 1.74-1.97 2.65 2.44 2.06 4.77 2.84 7.1.34 2.78-2.98 5.01-.22 7.48.72 2.21-2.94 2.21-6.16 1.31-9.33-2.36-8.28-4.74-16.53-11.8-22.45-1.35-1.13-1.76-3.46-2.4-5.31-.5-1.45-.69-3.01-1.03-4.61-1.8-.09-3.45-.17-5.19-.25 0-1.02-.17-1.92.03-2.74.51-2.07-.17-3.43-2.06-4.32-2.42-1.14-3.62-2.92-3.74-5.75-.06-1.35-1.1-2.89-2.11-3.94-7.41-7.77-14.93-15.44-22.52-23.26.58-1.25 1.4-2.4 1.63-3.66.27-1.49.1-3.08-.05-4.6-.06-.62-.64-1.17-.86-1.79-1.39-3.83-.98-4.91 2.57-6.96 1.05-.61 2.12-1.19 3.35-1.88 2.52 2.3 5.24 4.35 7.36 6.9 1.08 1.3.95 3.54 1.6 5.26.83 2.21 1.47 4.71 2.95 6.43 5.56 6.44 11.56 12.49 17.1 18.94 2.11 2.46 3.76 5.47 5.04 8.47 1.56 3.67 1.95 8.14 8.09 7.27-1.63 5.27 1.73 8.09 4.31 11.26 3.61 4.43 6.98 9.06 10.84 13.25 3.52 3.83 5.38 8.1 5.02 13.22 7.72.07 10.62-2.32 11.73-9.72.3-1.99.41-4 .6-6.01.26-2.79 1.31-5.05 3.58-6.89 1.09-.89 2.35-2.58 2.23-3.79-.78-8.21 3.52-14.54 7.28-21.12 2.8-4.89 2.76-4.91 1.22-10.55 1.66-.7 3.36-1.43 5.07-2.15-.23-.15-.47-.3-.7-.45.7-1.65 1.24-3.39 2.15-4.92.91-1.52 2.07-2.95 3.33-4.2 3.21-3.19 4.68-6.86 4.14-11.45-.15-1.28.42-2.93 1.22-3.99 2.82-3.74 5.66-7.51 8.91-10.88 4.73-4.91 9.82-9.47 15.1-14.5 2.81 2.85 5.66 5.63 8.32 8.57.43.48.34 1.87-.03 2.57-2.43 4.53-4.93 9.03-7.57 13.45-.57.95-1.71 1.96-2.73 2.15-3 .55-4.53 2.35-5.7 4.96-1.37 3.05-3.14 5.93-4.58 8.96-2.46 5.17-5.08 10.05-10.12 13.39-3.5 2.32-5.62 5.69-4.28 10.36.71 2.48-.1 4.72-1.68 6.86-2.65 3.6-5.21 7.3-7.4 11.19-.93 1.66-1.4 3.99-1.09 5.85.81 4.78 2.37 9.5-2.77 13.26 1.67.95 2.8 1.61 3.95 2.24 6.55 3.6 6.55 3.6 11.45-1.84 1.8-2 3.61-3.98 5.43-5.96 4.36-4.74 9.49-9.04 8.92-16.5 2.06-.13 3.68-.23 5.98-.37-4.56-4.7-1.23-7.56 1.73-10.52.71-.71 1.24-1.63 2.02-2.24 4.22-3.34 5.5-7.18 2.54-12.07-.4-.65-.17-2.29.39-2.83 4.81-4.67 9.76-9.2 14.83-13.92 2.09 2.78 3.84 3.6 6.59.48 2.22-2.51 7.27.98 7.41 5.24.08 2.53-.34 5.17-1.04 7.61-.52 1.79-1.76 3.3-4.28 2.41-2.58-.91-4.32-.16-5.32 2.76-3.31 9.74-8.39 18.48-15.41 26.05-2.7 2.92-4.98 6.06-4.45 10.97-1.63-.59-2.78-.99-4.3-1.54-.53 5.29-1.05 10.59-1.65 16.58 4.81 2.77 4.98 8.42 5.91 14.02 1.84 11.13 7.41 19.77 18.29 24.23 2.34.96 4.71 1.63 6.95-.16 3.44-2.74 6.36-1.32 8.28.56 2.89-1.03 5.05-2.15 7.32-2.52 2.32-.37 4.2.71 5.42 3.03 1.45 2.76 3.12 5.46 5 7.95 2.55 3.38 2.48 6.93.91 10.45-2.02 4.52-3.21 9.02-2.07 13.98.2.88-.24 1.97-.55 2.9-.97 2.86-1.95 5.72-3.06 8.52-2 5.03-4.22 10.02.48 15.21-4.71 1.31-5.78 4.82-6.66 8.42-.97 3.99-1.87 7.99-2.87 12.25-.84-.68-1.42-1.14-2.33-1.89-1.22 4.46-2.64 8.65-3.47 12.96-.7 3.6-2.87 5.52-6 6.47-3.41 1.03-6.94 1.72-10.44 2.41-2.33.46-3.28 1.49-3.21 4.06.2 7.5.12 15 .02 22.5-.02 1.21-.41 2.67-1.16 3.57-2.45 2.89-2.94 9.61-.69 12.84 2.79 3.99 2.27 12.08-.06 16.23-2.32 4.14-4.15 8.72-5.2 13.34-.44 1.91 1.72 4.42 2.69 6.65.17.4.32.81.57 1.44-6.52 5.63-12.98 11.31-19.61 16.8-.77.64-2.55.59-3.65.22-3.55-1.19-6.61-.65-10.22.6-13.48 4.68-27.34 6.68-41.46 2.79-2.39-.66-4.33-.93-5.53 1.8-1.55-.49-3-.77-4.29-1.38-2.65-1.24-5.01-1.08-7.61.36-1.1.61-3.02.53-4.24.01-6.78-2.91-13.49-5.98-20.14-9.18-1.27-.61-2.56-1.88-3.09-3.15-1.45-3.48-3.02-6.49-8.42-4.79zm33.68-64.15c6.91-5.47 8.06-5.47 13.88.31 7.85-8.68 17.85-8.58 28.45-6.4-.9 1.56-4.3 2.09-1.56 4.84 1.71-1.31 3.45-2.63 4.99-3.81 3.76.88 5.08 6.92 10.21 4.08-.93-1.69-1.82-3.31-2.87-5.21.96-.19 1.58-.4 2.2-.43 7.04-.28 14.08-.75 21.12-.71 3.48.02 5.34-1.52 6.02-4.5.53-2.35.62-4.86.47-7.27-.21-3.34-.55-6.72-1.33-9.96-1.62-6.71 2.83-10.37 6.14-14.15 1.87.74 3.4 1.96 4.77 1.8 7.87-.94 15.77-10.79 15.43-18.59-.07-1.53.52-3.24 1.26-4.62 1.15-2.16 2.61-4.16 4.06-6.14 2.83-3.89 4.13-7.75-.01-11.55 2.87-4.46 5.57-8.67 8.38-13.04-2.54-2.28-4.9-4.39-7.44-6.67-1.94 3.17-4.54 3.2-7.32 2.64-2.74-.54-5.55-.83-8.21-1.61-6.12-1.77-12.32-3.57-17-8.24-1.04-1.04-1.94-2.85-1.88-4.25.13-2.77-.85-4.46-3.27-5.5-1.94-.83-2.4-2.13-2.05-4.27.28-1.73-.04-3.7-.62-5.39-.83-2.42-2.13-4.67-3.23-6.99-2.89-6.12-8.12-9.13-14.93-9.02-5.01.08-10.08.08-15.03-.55-4.78-.61-8.89.33-12.42 3.42-1.99 1.75-3.83 1.74-6.15.85-.99-.38-2.51-.22-3.46.29-9.33 5.02-19.08 6.47-29.41 3.97-.86-.21-2.03-.16-2.76.26-3.6 2.09-7.41 3.06-11.56 2.72-.3-.02-.62.16-.96.26.37.57.7 1.06 1 1.53-3.48 1.24-7 2.09-10.12 3.72-3.23 1.69-6.2 3.98-9.06 6.28-4.53 3.64-4.79 7.66-1.72 11.1-.51 3.88-1.81 7.3-1.17 10.3 1.42 6.68-.75 10.99-6.18 14.81-3.29 2.31-5.69 3.45-9.31.91-2.84-1.99-6.11-.75-7.9 2.27-.79 1.34-1.49 2.81-2.55 3.9-1.38 1.42-1.13 2.52-.36 4.14.63 1.34 1.2 3.34.66 4.51-3.4 7.27-1.67 14.48.12 21.6.39 1.55 2.41 3.08 4.05 3.84 3.01 1.4 6.25 2.32 9.45 3.27 4.58 1.35 6.95 4 5.88 9-.13.62.09 1.31.17 2.15 1.84-.22 3.58-.43 5.4-.64 1.9 4.1 1.18 10.43 9.35 9.01-4.16 5.04-1.09 7.94 1.62 10.96 1.42 1.58 2.59 3.42 4.15 4.84 2.66 2.42 3.22 5.11 1.5 8.68 5.03-.8 9.72-1.44 12.58-6.15 1.38 1.28 2.52 2.34 3.77 3.5 2.5-1.63 4.92-3.19 7.3-4.74 2.59 1.63 5.05 3.15 7.46 4.64zm70.31 52.39c5.16-9.52 9.81-18.94 7.97-30.26-.55-3.38-.57-6.13-4.89-6.04-.51.01-1.22-.21-1.51-.58-3.49-4.4-7.9-4.03-12.62-2.64-1.02.3-2.22.11-3.32.02-8.8-.74-17.6-1.56-26.41-2.21-1.48-.11-3.05.32-4.52.7-5.06 1.32-10.11 2.68-15.14 4.12-4.46 1.28-8.95 2.53-13.3 4.13-1.45.53-2.33 2.58-3.77 3.12-6.1 2.28-12.39 5.08-17.67-2.11-1.19 1.13-2.06 1.96-2.9 2.76 6.07 7.29 6.07 7.29 1.89 12.71 5.55 7.29 10.94 14.86 16.9 21.95 2.11 2.52 5.54 3.98 8.5 5.69.64.37 1.86-.26 2.81-.43 1.61-.3 3.23-.87 4.84-.86 3.66.02 7.32 2.67 10.98-.01 1.96-1.44 3.64-1.1 5.19.64 1.8 2.01 3.77 2.63 6.53 1.72 1.69-.56 3.8-.34 5.61.05 2.8.6 5.16.28 7.65-1.27 2.5-1.56 5.29-2.43 7.98.14.56.53 1.84.62 2.71.46 5.19-.94 9.01-3.71 10.81-8.84 3.34.93 6.41 1.78 9.48 2.64.16-.35.32-.7.47-1.05-1.42-1.51-2.83-3.01-4.27-4.55z" fill="#010100"/><path d="m154.1 198.76c-.78 1.15-1.29 1.9-1.94 2.85 1.66.66 3.12 1.18 4.53 1.81 2.27 1.02 3.68 2.84 3.15 5.29-.73 3.38.14 5.92 3.17 7.88-5.67 5.15-7.75 13.53-16.03 15.74-3.43-3.03-7.3-5.81-10.29-9.33-2.04-2.4-2.92-5.81-4.16-8.83-.23-.56 0-1.8.44-2.09 3.47-2.3 2.02-4.76.45-7.31-.39-.64-.6-1.4-.87-2.04 2.75-3.48 5.97-5.22 10.49-4.57 3.49.53 7.08.42 11.06.6z" fill="#010100"/><path d="m209.55 172.66c7.84.14 14.48 2.48 20.61 6.81 5.57 3.93 7.21 17.65.43 22.28-3.75 2.56-9.49 2.46-12.31-1.22-3.6-4.7-7.04-9.53-10.42-14.39-.55-.79-.76-2.08-.59-3.05.61-3.4 1.45-6.75 2.28-10.43z" fill="#010100"/><g fill="#fcfafa"><path d="m342.2 3.2-6.3 9.2h6.1v1.2h-8.2v-.5l6.2-9.1h-5.7v-1.2h7.8v.4z"/><path d="m344 13.7v-10.9h3.1c1.6 0 3 .5 4.1 1.4 1.1 1 1.6 2.2 1.6 3.9s-.5 3-1.6 4-2.5 1.5-4.2 1.5h-3zm1.4-9.6v8.4h1.6c1.4 0 2.5-.4 3.2-1.1.8-.8 1.2-1.8 1.2-3.2s-.4-2.4-1.2-3.1-1.8-1-3.1-1z"/><path d="m356.3 2.8v10.9h-1.4v-10.9z"/><path d="m366.6 13.2c-.8.4-1.8.6-3 .6-1.6 0-2.8-.5-3.7-1.5s-1.4-2.3-1.4-3.9c0-1.7.5-3.2 1.6-4.2s2.4-1.6 4-1.6c1 0 1.9.1 2.6.4v1.5c-.8-.4-1.6-.6-2.6-.6-1.2 0-2.2.4-3 1.2s-1.1 1.9-1.1 3.3c0 1.3.4 2.3 1.1 3.1s1.6 1.1 2.8 1.1c1.1 0 2-.2 2.8-.7v1.3z"/><path d="m368.2 13c0-.3.1-.5.3-.6.2-.2.4-.3.6-.3.3 0 .5.1.7.3s.3.4.3.6-.1.5-.3.6c-.2.2-.4.3-.7.3s-.5-.1-.6-.3c-.2-.2-.3-.4-.3-.6z"/><path d="m381.1 13.7h-1.7l-5.5-8.4c-.2-.2-.3-.5-.4-.7 0 .2.1.8.1 1.5v7.6h-1.4v-10.9h1.8l5.3 8.3c.3.4.4.6.4.8 0-.3-.1-.8-.1-1.6v-7.5h1.4v10.9z"/><path d="m389.7 13.7h-5.8v-10.9h5.6v1.2h-4.2v3.5h3.9v1.2h-3.9v3.7h4.4z"/><path d="m398.4 4.1h-3.1v9.6h-1.4v-9.6h-3.1v-1.3h7.7v1.3z"/></g></svg>