<svg enable-background="new 0 0 400 400" viewBox="0 0 400 400" xmlns="http://www.w3.org/2000/svg"><path d="m374.8 390.4.4-.4c.7.5 1.3 1 1.8 1.4l-.5.5c-.5-.6-1.1-1.1-1.7-1.5zm1 7.3-.6-.3c.5-1.4 1.1-2.8 1.5-4.3.2.1.4.2.6.3-.5 1.3-1 2.8-1.5 4.3zm-.4-10.3.4-.4c.4.3 1 .8 1.7 1.4l-.5.5c-.4-.5-1-1-1.6-1.5zm2.5.3h1.7v-1h.6v1h3.5v-1h.6v1h1.8v.5h-1.8v1.4h-2v1h3.2v2h-3.2v.9h3.3v.5h-3.4c0 .3-.1.6-.1.9h4v.5h-3.7c.7.9 1.9 1.5 3.8 1.7-.1.2-.2.4-.3.6-2.1-.4-3.5-1.1-4-2.1-.4 1-1.8 1.7-4 2.2-.1-.2-.2-.4-.3-.6 2.1-.4 3.4-1 3.8-1.8h-3.4v-.5h3.6c.1-.3.1-.6.2-.9h-3.3v-.5h3.4c0-.3 0-.6 0-.9h-3.2v-2h3.3v-1h-2.1v-1.4h-1.7v-.5zm1.1 3.5v1h2.7c0-.3 0-.4 0-.4 0-.1 0-.2 0-.2 0-.1 0-.2 0-.3h-2.7zm1.2-3v.9h3.5v-.9zm4.7 3h-2.6v.6.4h2.6z" fill="#fbfcfa"/><path d="m393.6 386.7h.6v1.5h2.7v6.1h1.1v.6h-11v-.6h1.1v-6.1h2.7v-1.5h.6v1.5h2.1v-1.5zm-2.7 8.8.4.6c-1.2.6-2.5 1.3-3.8 1.9-.1-.2-.2-.4-.3-.6 1.2-.6 2.5-1.2 3.7-1.9zm-2.2-6.7v2.4h2.1v-2.4zm0 3v2.5h2.1v-2.5zm2.8-3v2.4h2.1v-2.4zm0 3v2.5h2.1v-2.5zm6 6.1c-1.4-.7-2.7-1.3-3.9-1.8l.3-.6c1.5.6 2.7 1.2 3.9 1.7zm-1.2-9.1h-2.1v2.4h2.1zm-2.1 3v2.5h2.1v-2.5z" fill="#fbfcfa"/><g fill="#010101"><path d="m165.78 288.23c-1.73 6.65-3.32 12.78-4.95 18.91-.14.51-.46 1.08-.87 1.4-4.06 3.23-4.7 7.23-3.96 12.28.49 3.33-.58 7.06-1.66 10.39-1.25 3.87-3.27 7.49-5.06 11.44 4.27.51 7.87.59 10.96-2.52 1.95-1.96 4.29-3.61 6.65-5.09 10.25-6.42 17.24-16.13 25.42-24.67 7.8-8.16 16.03-15.92 24.25-23.67 2.29-2.15 4.17-4.2 4.43-7.48.28-3.47 1.95-6.18 4.53-8.62 3.59-3.4 7.07-7.22 5.92-12.78-.5-2.4-1.33-5.09-2.91-6.85-6.31-7.05-7.95-15.4-7.28-24.35.14-1.89 2.21-3.63 3.55-5.68-6.08-5.82-5.4-12.77-2.26-19.88 2.94-6.64 6.06-13.21 9.24-19.73.63-1.29 1.91-2.27 3-3.51-1.14 11.41-3.59 22.46-2.95 33.34.65 11.01 4.36 21.83 6.82 33.17 6.54-1.07 12.7-1.97 18.79-3.21.61-.13 1.39-2.44 1.1-3.46-.84-2.99-2.17-5.83-3.41-8.99 3.07-.75 5.98-1.46 9.14-2.24-2.7-6.01-.98-11.61 1.25-17.14 1.88-4.66 3.87-9.28 5.78-13.93 2.31-5.63 3.3-11.34.95-17.25-1.6-4.02-1.21-8.06-.29-12.18 2.85-12.68 3.4-25.41 1.34-38.32-1.22-7.61-1.42-15.37-2.18-23.05-.53-5.42-1.96-10.39-7.53-12.92-2.05-.93-3.36-.68-5.13 1.18-4.14 4.34-8.45 8.7-13.36 12.08-7.8 5.38-14.61 11.32-18.44 20.25-1.93 4.5-5.54 7.1-10.76 7.62-1.96-7.55-1.8-14.89-.22-22.33 1.57-7.43 3.09-14.89 4.04-22.41.37-2.94-.1-6.53-1.55-9.03-2.13-3.67-.95-6.07 1.25-8.7.5-.59 1.06-1.14 1.55-1.66 9.07 3.22 12.62 9.96 9.78 19.04-2.03 6.48-2.96 12.85-.07 19.3.27.61.55 1.22.87 1.81.26.48.6.91.84 1.27 4.86-6.03 9.43-12.25 14.62-17.9 3.43-3.73 7.54-6.97 11.77-9.78 2.28-1.51 5.45-1.84 8.27-2.35 2.92-.53 5.47.1 7 3.16.63 1.26 1.47 2.49 3.59 2.04.75-.16 2.48 1.54 2.85 2.69 6.17 19.02 7.84 38.38 5.24 58.29-1.73 13.28-2.47 26.72-3.15 40.11-.7 13.78-2.28 27.25-10.13 39.09-4.2 6.32-8.76 12.39-12.96 18.71-1.85 2.78-3.29 5.85-4.76 8.86-3.92 8.06-8.9 15.13-16.8 19.92-2.05 1.24-3.99 3.46-4.89 5.67-5.58 13.86-16.69 23.39-26.5 33.85-2.4 2.55-6.82 3.12-10.12 4.95-1.6.88-3.4 2.32-3.99 3.92-1.84 5.02-5 8.65-9.2 11.93-17.46 13.63-34.71 27.54-52.4 41.64-3.71-3.94-7.13-8.07-11.07-11.63-3.71-3.36-5.53-7.1-4.69-12.05 1.1-6.55-2.73-11.59-5.37-16.91-1.69-3.42-2.21-6.81-2.5-10.56-.77-10.09 1.79-19.43 4.95-28.82 4.39-13.02 8.43-26.16 12.54-39.28.36-1.16.63-2.92.04-3.73-7.85-10.7-8.45-23.53-10.92-35.85-2.16-10.79-2.44-21.53-.09-32.3.3-1.39.81-2.79 1.53-4.01 4.73-8.12 9.49-16.22 14.35-24.25.97-1.6 2.28-3.03 3.63-4.34 4.89-4.77 9.99-9.32 14.75-14.21 3.67-3.77 6.96-7.93 9.95-11.37.33 3.64-.26 4.94-3.36 8.15-9.38 9.75-16.86 20.85-23.16 32.78-2.98 5.63-6.03 11.22-8.98 16.87-.42.8-.91 2.13-.56 2.68 3.57 5.47 3.24 11.78 3.92 17.82 1.72 15.23 3.65 30.46 4.64 45.74.45 6.94-.59 14.12-2 20.97-.66 3.22-3.53 6.18-5.88 8.83-3.64 4.1-4.35 8.4-3.57 13.81 2.06 14.39 3.03 28.95 5.3 43.3.84 5.32 3.91 10.35 6.43 15.27.58 1.13 3.12 1.25 5.2 1.99 1.02-2.68 2.21-5.08 2.86-7.61 2.79-10.93 5.4-21.91 8.11-32.86 1.65-6.66 3.81-13.12 8.32-18.49 2.69-3.18 5.87-5.53 10.58-6.57z"/><path d="m162.43 229.07c-5.15-9.05-6.47-18.91-5.04-29.27.09-.63.4-1.32.82-1.78 4.19-4.53 5.79-10.25 7.42-15.96 1.4-4.88 3.51-9.32 7.05-13.13 4.93-5.31 9.56-10.91 14.99-17.16 1.65 2.58 3.51 4.57 4.31 6.93 1.21 3.57 2.36 7.39 2.34 11.09-.07 12.17-.61 24.35-1.14 36.51-.16 3.72-1.78 6.82-5.16 8.9-1.89 1.17-3.68 2.59-5.27 4.15-3.93 3.84-8.47 5.74-14.04 6.05-2.08.1-4.05 2.29-6.28 3.67zm11.82-17.7c4.32-3.59 8.33-7.14 12.58-10.37 2.21-1.69 2.94-3.63 2.11-6.06-2.71-7.9-5.54-15.76-8.38-23.61-.35-.97-1.11-1.8-1.7-2.73-.42.36-.68.46-.74.64-3.59 10.45-7.19 20.9-10.69 31.38-.23.7-.06 1.81.37 2.4 2 2.77 4.17 5.44 6.45 8.35z"/><path d="m161.62 111.45c-9.93 1.94-8.17 3.35-11.36-5.65-2.92-8.23-3.01-16.88-2.76-25.51.52-17.69 2.05-35.23 7.99-52.1.22-.63.39-1.27.63-1.89.07-.19.28-.32.5-.56 3.88 7.02 3.14 14.26 1.44 21.56-.81 3.48-1.48 7.01-2.63 10.38-3.83 11.19-2.59 22.23.54 33.28 1.92 6.75 3.73 13.52 5.65 20.49z"/><path d="m181.9 100.14c-6.24-21.97-1.07-42.47 6.19-63.62 3.13 7.47 3.01 14.43 2.12 21.4-.48 3.75-1.48 7.45-2.39 11.14-2.41 9.78-3.01 19.26 4.46 27.92-3.63 1.11-6.86 2.09-10.38 3.16z"/><path d="m207.08 32.46c4.16 1.4 5.34 3.49 3.97 7.6-1.37 4.12-3.34 8.03-4.78 12.13-.6 1.7-.96 3.7-.69 5.45 1.27 8.05 2.92 16.03 4.15 24.09.23 1.51-.5 3.38-1.3 4.79-.98 1.72-2.45 3.17-3.8 4.67-2.56 2.85-4.29 3.36-9 2.52 3.82-20.41 7.63-40.8 11.45-61.25z"/><path d="m130.89 108.79c-6.9-5-10.83-11.85-10.73-20.28.09-7.66 1.32-15.31 2.07-22.96.31-3.22.44-6.48 1.08-9.64.51-2.57 1.66-5.01 2.52-7.51.57-.01 1.15-.01 1.72-.02.65 1.72 1.82 3.43 1.85 5.16.08 4.11-.03 8.28-.69 12.33-1.78 10.99-.26 21.81 1 32.68.4 3.44.74 6.88 1.1 10.32.01 0 .08-.08.08-.08z"/><path d="m130.82 108.87c1.7 1.75 3.42 3.47 5.09 5.24 2.5 2.65 1.61 7.19-2.04 8.22-1-4.52-1.99-9.03-2.98-13.54 0 0-.07.08-.07.08z"/><path d="m268.72 68.34c1.9 2.66 3.27 4.6 5.16 7.24-2.5-.81-4.14-1.35-6.12-1.99.28-1.53.55-2.98.96-5.25z"/></g></svg>