<svg enable-background="new 0 0 400 400" viewBox="0 0 400 400" xmlns="http://www.w3.org/2000/svg"><path d="m96.33 79.8c4.93-1.73 8.71-1.2 12.64 2.52 7.72 7.3 17.17 12.04 27.16 15.59 10.42 3.7 20.9 7.23 31.35 10.84 1.52.53 2.78.87 4.15-.67 8.52-9.62 17.42-18.93 25.66-28.79 6.48-7.74 10.23-17.07 12.23-26.92.67-3.28-.16-6.87-.32-10.32-.05-1.1-.12-2.19-.2-3.61 1.2.3 2.16.45 3.05.79 6.97 2.72 13.99 5.35 20.87 8.29 2.64 1.12 5.16 2.73 7.41 4.52 6.92 5.48 7.83 13.66 3.26 21.28-5.06 8.44-11.76 14.93-19.95 20.32-7.26 4.78-14.26 10.08-20.81 15.79-4.14 3.61-7.26 8.4-11.11 12.99 5.29 3.86 10.63 6.39 16.34 4.95 20.69-5.2 41.57-3.26 62.44-2.45 15.36.59 30.57 2.11 45.29 6.85 15.73 5.06 30.5 12.19 44.41 21.08 5.01 3.2 8.73 7.53 10.66 13.37 1.02 3.09-.17 4.36-2.86 5-4.66 1.11-9.05.14-13.42-1.57-11.95-4.68-23.74-9.95-35.99-13.65-9.87-2.98-20.29-4.32-30.55-5.81-9.84-1.43-19.76-2.45-29.69-3.07-12.18-.75-24.08 1.24-35.59 5.3-3.83 1.35-4.54 5.03-4.5 8.23.05 3.46 1.17 6.97 2.26 10.32 2.14 6.55 4.51 13.04 7 19.47.41 1.06 1.8 2.1 2.95 2.45 18.09 5.43 36.21 10.75 54.33 16.08 5.78 1.7 11.57 3.38 17.76 5.19 4.47-16.34 2.5-31.52-6.52-45.94 7.2 1.93 14.35 2.44 19.41 9.49 8.88 12.38 11.24 25.81 10.6 40.6-.75 17.31-6.16 33.21-12.01 49.24-5.46 14.95-13.75 28.33-21.57 41.97-2.44 4.25-6.59 7.58-10.21 11.06-7.17 6.91-14.4 13.76-21.82 20.41-15.36 13.77-33.79 20.11-54.06 21.86-10.17.88-20.29 1.03-30.41-.91-19.41-3.72-31.54-15.61-38.64-33.51-2.87-7.24-5.02-14.5-4.74-22.43.28-8.14.06-16.3.06-25.03-5.19 1.62-9.25 3.21-13.45 4.14-11.34 2.52-22.26.78-32.61-4.24-5.9-2.86-9.56-7.68-11.43-14.14-5.31-18.32-3.8-36.26 2.27-54.06 2.89-8.45 5.75-16.91 8.86-26.05-8.18 1.24-15.96 2.8-23.7.09-7.38-2.58-14.93-4.69-22.22-7.5-7.49-2.89-14.24-7.03-18.5-14.7.92-.2 1.61-.48 2.3-.48 29.37.11 57.78-5.71 85.7-14.23 11.77-3.59 23.45-7.18 35.77-8.56 6.43-.72 8.87-3.19 12.25-10.02-4.4-1.43-8.61-3.67-12.97-4.06-13.68-1.19-24.38-7.22-32.94-17.77-6.38-7.86-12.54-15.77-15.08-25.83-.29-1.22-.38-2.54-.57-3.76zm42.22 148.09c1.07.1 1.62.12 2.16.21 8.96 1.56 15.33 7.1 20.59 13.97 2.26 2.96 4.78 3.19 7.59 1.97 1.98-.85 4.09-2.19 5.29-3.9 4.82-6.86 10.54-13.44 13.65-21.05 5.9-14.43 10.43-29.44 15.11-44.35 1.53-4.87 1.79-10.2-.25-15.18-.48-1.17-1.78-2.91-2.65-2.88-7.99.31-16.07-1.45-23.95 1.32-9.69 3.41-19.4 6.79-29.2 9.84-8.72 2.71-17.56 5.06-26.4 7.34-2.94.76-6.05.82-9.58 1.26 1.93 2.62 3.51 4.76 5.08 6.92 4.66 6.43 3.81 13.65-2.27 18.73-1.45 1.21-3.17 2.12-4.6 3.36-.84.73-1.72 1.76-1.95 2.79-2.04 9.17-5.9 17.54-10.64 25.58-1.81 3.07-3.56 6.22-4.92 9.51-2.71 6.57-2.55 13.12 1.3 19.27.64 1.01 1.87 2.15 2.96 2.31 8.16 1.2 16.33 2.57 24.55 3.08 5.11.32 10.25-1.69 13.45-5.75 1.76-2.23 1.85-5.95 2.21-9.05.94-8.32 1.64-16.67 2.47-25.3zm48.91 116.97c.06-.32.11-.65.17-.97 1.79 0 3.58.11 5.36-.03 2.11-.17 4.23-.45 6.3-.88 17.73-3.68 33.89-11.06 48.99-20.91 3.16-2.06 3.62-4.01 1.29-7.02-.99-1.28-2.37-2.42-3.82-3.17-3.76-1.95-7.56-3.9-11.52-5.39-22.05-8.27-44.16-16.38-66.23-24.6-1.77-.66-2.93-.57-4.39.85-5 4.87-6.67 11.29-8.32 17.63-3.66 14-1.37 26.83 8.48 37.85.92 1.03 2.18 2.1 3.46 2.4 6.72 1.54 13.49 2.85 20.23 4.24zm32.37-137.24c-5 9.6-12.72 17.69-15.42 28.77 1.13.27 1.98.54 2.85.68 12.03 1.88 24.11 3.46 36.08 5.68 13.75 2.55 28.64 1.61 40 12.16.6.55 1.8 1.04 2.47.82 2.3-.77 5.94-1.38 6.47-2.94 2.09-6.18 3.2-12.69 4.73-19.36-7.95-2.21-15.59-4.22-23.17-6.46-18.22-5.39-37.22-8.63-54.01-19.35zm43.7 88.58c.13-.26.26-.51.38-.77 1.22-.16 2.46-.21 3.65-.5 3.79-.93 8.14-5.05 7.98-7.58-.22-3.57-.37-7.16-.9-10.69-.17-1.1-1.29-2.62-2.29-2.93-26.34-8.16-52.72-16.22-79.14-24.16-1.16-.35-3.05.23-4.04 1.06-3.68 3.09-7.02 6.58-10.68 9.69-2.77 2.36-2.79 5.27-1.99 8.23.74 2.72 3.15 3.42 5.76 3.78 12.04 1.69 24.11 3.29 36.1 5.28 12.67 2.1 24.74 5.74 35.09 13.99 2.8 2.24 6.69 3.11 10.08 4.6z" fill="#010104"/><g fill="#fcfbfa"><path d="m385.2 377.6.6-.7c.6.4 1.3.9 1.9 1.5l-.6.7c-.8-.5-1.4-1-1.9-1.5zm.3 7.1c.6-1.4 1.1-2.9 1.5-4.5.3.1.6.3.9.4-.5 1.4-1 2.9-1.5 4.4zm.2-10.1.6-.6c.7.5 1.3 1.1 1.9 1.6l-.7.7c-.6-.6-1.2-1.2-1.8-1.7zm8.4-.8h.8v.9h1.8v.7h-1.8v1.8h-.8v-.3h-1.2v.9h3.3v2.6h-.8v-.4h-2.5c0 .3 0 .6-.1.8h3.4v.7h-3.5c0 .3-.1.6-.1.8h4v.7h-3.5c.7.9 1.9 1.3 3.6 1.5-.2.2-.4.5-.6.9-1.9-.3-3.2-1.1-3.8-2.3-.5 1.1-1.8 2-3.9 2.4-.2-.3-.4-.5-.6-.8 1.9-.4 3.1-.9 3.6-1.7h-3.2v-.7h3.5c.1-.2.1-.5.2-.8h-3.3v-.7h3.4c0-.2 0-.5 0-.8h-2.4v.3h-.8v-2.6h3.3v-.9h-1.2v.3h-.8v-1.8h-1.8v-.7h1.8v-.9h.8v.9h3.2zm-4.4 5.5h2.4c0-.3 0-.6 0-.9h-2.4zm1.2-3.1h3.2v-.8h-3.2zm4.4 2.2h-2.4v.9h2.5v-.9z"/><path d="m389.2 385.8h.9v1.5h1.9v-1.5h.9v1.5h2.7v6h1.1v.9h-11.3v-.9h1.1v-6h2.7zm.2 8.7.5.8c-1.2.6-2.5 1.3-4 1.9-.2-.3-.3-.6-.6-.8 1.6-.6 3-1.3 4.1-1.9zm-2-4.3h1.9v-2.1h-1.9zm0 3.1h1.9v-2.2h-1.9zm2.7-3.1h1.9v-2.1h-1.9zm0 3.1h1.9v-2.2h-1.9zm2.4 1.3c1.4.6 2.7 1.2 4.1 1.8l-.5.9c-1.5-.7-2.8-1.4-4.1-1.9zm2.2-6.5h-1.9v2.1h1.9zm-1.9 5.2h1.9v-2.2h-1.9z"/></g></svg>