<svg enable-background="new 0 0 400 400" viewBox="0 0 400 400" xmlns="http://www.w3.org/2000/svg"><path d="m253.54 230.31c1.1 1.39 1.92 2.31 2.61 3.32 2.06 2.99 1.62 6.92-1.11 9.35-12.58 11.17-27.43 18.46-42.95 24.36-7.59 2.88-15.57 4.79-23.44 6.84-9.36 2.44-18.44.87-27.19-2.84-7.65-3.24-15.41-6.15-23.76-6.71-3.14-.21-6.46.27-9.51 1.12-3.4.95-5.61 3.64-5.26 7.3.39 4.06 1.35 8.09 2.3 12.07.22.9 1.34 1.72 2.23 2.29 9.13 5.94 19.43 7.93 30.04 8.14 23.76.47 47.07-2.55 69.69-10.13 6.02-2.02 11.98-4.2 18.03-6.13 1.55-.5 3.32-.39 4.99-.43 6.71-.18 9.97 3.58 8.72 10.2-.18.94-1 1.97-1.82 2.56-8.79 6.36-17.63 12.67-26.5 18.92-1.16.82-2.56 1.36-3.9 1.88-11.03 4.29-22.07 8.57-33.12 12.81-8.39 3.22-17 4.6-26.08 2.72-.88 2.51-.4 4.08 1.89 5.62 7.42 4.99 14.77 10.11 21.94 15.46 7.02 5.23 12.02 11.92 13.67 20.81.4 2.17-.16 3.27-2.05 4.21-3.98 1.97-7.94 1.81-12.03.46-8.01-2.63-15.23-6.21-21.69-12.06-9.94-8.99-20.91-16.84-31.29-25.35-23.94-19.62-39.99-44.39-47.64-74.41-4.52-17.74-4.75-35.74-.86-53.56 2.33-10.66 5.97-21.03 9.15-31.49.43-1.42 1.46-2.76 2.49-3.89 22.51-24.77 44.97-49.57 67.62-74.22 12.59-13.7 19.63-29.67 21.09-48.2.2-2.55-.35-4.4-2.59-5.57-4.93-2.59-9.75-5.44-14.87-7.58-6.11-2.55-11.98-5.33-17.1-10.13 4.01-1.81 7.43-3.33 11.96-2.55 13.66 2.38 27.45 3.97 41.13 6.21 13.13 2.15 20.55 11.57 19.95 24.79-.06 1.3-.49 2.63-.99 3.84-1.53 3.72-3.53 7.28-4.73 11.1-4.86 15.43-15.49 27.01-25.72 38.81-27.13 31.29-54.33 62.51-81.69 93.6-3.64 4.14-6.01 8.31-6.37 13.85-.62 9.68.03 19.21 2.46 28.84 4.49-.32 8.63-.37 12.3-3.92 12.15-11.76 24.49-23.34 34.04-37.43 4.93-7.28 7.42-15.45 6.97-24.4-.19-3.69-.95-6.96-3.68-9.73-2.4-2.44-4.43-5.25-7.14-8.53 3.41 0 6.07-.29 8.65.05 13.54 1.77 24.29 8.56 31.37 19.98 4.85 7.82 11.6 12.32 19.51 15.99 15.85 7.35 32.28 12.54 49.79 13.86 2.32.18 4.67.02 7.65.02-1.53-5.58-.12-11.55-4.54-16.56-5.06-5.72-8.96-12.28-10.8-19.86-.16-.65-.3-1.31-.36-1.97-.06-.65-.01-1.32-.01-2.44 5.14 1.19 10.19 1.2 14.5 5.09 7.9 7.11 16.32 13.62 24.45 20.47 1.33 1.12 2.49 2.57 3.34 4.08 6.92 12.33 10.17 25.74 11.08 39.72 1.47 22.53.18 44.87-8.4 66.01-3.63 8.94-8.97 17.25-14.17 25.45-3.99 6.28-8.42 12.48-13.63 17.73-10.25 10.33-21.97 18.82-36.43 22.39-4.68 1.16-9.64 1.16-15.21 1.78 2.84-7.27 5.19-13.51 7.76-19.67.53-1.26 1.82-2.24 2.84-3.26 13.92-13.92 26.21-29.09 35.13-46.75 6.15-12.18 9.95-25.15 11.96-38.59.6-4.01-.22-8.25-.46-12.38-.38-6.37-.7-12.75-1.38-19.08-.14-1.33-1.47-2.93-2.7-3.68-4.7-2.87-9.95-1.89-15.06-1.56-1.51.11-3.01.57-5.07.96zm-.21-.03c-1.19-1.13-1.33-1.37-1.51-1.42-19.77-5.58-39.54-11.16-59.34-16.65-.72-.2-1.99.21-2.5.78-10.11 11.51-20.16 23.08-30.16 34.69-.54.63-.95 2.02-.62 2.56.37.62 1.67.97 2.54.93 2.9-.13 5.84-.24 8.67-.79 17.42-3.42 34.9-6.6 52.18-10.61 10.16-2.36 19.99-6.12 30.74-9.49z" fill="#010104"/><g fill="#fcfbfa"><path d="m385.2 377.6.6-.7c.6.4 1.3.9 1.9 1.5l-.6.7c-.8-.5-1.4-1-1.9-1.5zm.3 7.1c.6-1.4 1.1-2.9 1.5-4.5.3.1.6.3.9.4-.5 1.4-1 2.9-1.5 4.4zm.2-10.1.6-.6c.7.5 1.3 1.1 1.9 1.6l-.7.7c-.6-.6-1.2-1.2-1.8-1.7zm8.4-.8h.8v.9h1.8v.7h-1.8v1.8h-.8v-.3h-1.2v.9h3.3v2.6h-.8v-.4h-2.5c0 .3 0 .6-.1.8h3.4v.7h-3.5c0 .3-.1.6-.1.8h4v.7h-3.5c.7.9 1.9 1.3 3.6 1.5-.2.2-.4.5-.6.9-1.9-.3-3.2-1.1-3.8-2.3-.5 1.1-1.8 2-3.9 2.4-.2-.3-.4-.5-.6-.8 1.9-.4 3.1-.9 3.6-1.7h-3.2v-.7h3.5c.1-.2.1-.5.2-.8h-3.3v-.7h3.4c0-.2 0-.5 0-.8h-2.4v.3h-.8v-2.6h3.3v-.9h-1.2v.3h-.8v-1.8h-1.8v-.7h1.8v-.9h.8v.9h3.2zm-4.4 5.5h2.4c0-.3 0-.6 0-.9h-2.4zm1.2-3.1h3.2v-.8h-3.2zm4.4 2.2h-2.4v.9h2.5v-.9z"/><path d="m389.2 385.8h.9v1.5h1.9v-1.5h.9v1.5h2.7v6h1.1v.9h-11.3v-.9h1.1v-6h2.7zm.2 8.7.5.8c-1.2.6-2.5 1.3-4 1.9-.2-.3-.3-.6-.6-.8 1.6-.6 3-1.3 4.1-1.9zm-2-4.3h1.9v-2.1h-1.9zm0 3.1h1.9v-2.2h-1.9zm2.7-3.1h1.9v-2.1h-1.9zm0 3.1h1.9v-2.2h-1.9zm2.4 1.3c1.4.6 2.7 1.2 4.1 1.8l-.5.9c-1.5-.7-2.8-1.4-4.1-1.9zm2.2-6.5h-1.9v2.1h1.9zm-1.9 5.2h1.9v-2.2h-1.9z"/></g></svg>