<svg enable-background="new 0 0 400 400" viewBox="0 0 400 400" xmlns="http://www.w3.org/2000/svg"><path d="m374.8 390.4.4-.4c.7.5 1.3 1 1.8 1.4l-.5.5c-.5-.6-1.1-1.1-1.7-1.5zm1 7.3-.6-.3c.5-1.4 1.1-2.8 1.5-4.3.2.1.4.2.6.3-.5 1.3-1 2.8-1.5 4.3zm-.4-10.3.4-.4c.4.3 1 .8 1.7 1.4l-.5.5c-.4-.5-1-1-1.6-1.5zm2.5.3h1.7v-1h.6v1h3.5v-1h.6v1h1.8v.5h-1.8v1.4h-2v1h3.2v2h-3.2v.9h3.3v.5h-3.4c0 .3-.1.6-.1.9h4v.5h-3.7c.7.9 1.9 1.5 3.8 1.7-.1.2-.2.4-.3.6-2.1-.4-3.5-1.1-4-2.1-.4 1-1.8 1.7-4 2.2-.1-.2-.2-.4-.3-.6 2.1-.4 3.4-1 3.8-1.8h-3.4v-.5h3.6c.1-.3.1-.6.2-.9h-3.3v-.5h3.4c0-.3 0-.6 0-.9h-3.2v-2h3.3v-1h-2.1v-1.4h-1.7v-.5zm1.1 3.5v1h2.7c0-.3 0-.4 0-.4 0-.1 0-.2 0-.2 0-.1 0-.2 0-.3h-2.7zm1.2-3v.9h3.5v-.9zm4.7 3h-2.6v.6.4h2.6z" fill="#fbfcfa"/><path d="m393.6 386.7h.6v1.5h2.7v6.1h1.1v.6h-11v-.6h1.1v-6.1h2.7v-1.5h.6v1.5h2.1v-1.5zm-2.7 8.8.4.6c-1.2.6-2.5 1.3-3.8 1.9-.1-.2-.2-.4-.3-.6 1.2-.6 2.5-1.2 3.7-1.9zm-2.2-6.7v2.4h2.1v-2.4zm0 3v2.5h2.1v-2.5zm2.8-3v2.4h2.1v-2.4zm0 3v2.5h2.1v-2.5zm6 6.1c-1.4-.7-2.7-1.3-3.9-1.8l.3-.6c1.5.6 2.7 1.2 3.9 1.7zm-1.2-9.1h-2.1v2.4h2.1zm-2.1 3v2.5h2.1v-2.5z" fill="#fbfcfa"/><path d="m167 379.62c-5.16-.61-10.43-.76-15.46-1.95-8.66-2.05-17.18-4.74-25.74-7.21-.83-.24-1.7-.7-2.31-1.29-11-10.73-20.34-22.59-25.54-37.3-4.73-13.39-3.97-26.81-.28-40.25.5-1.83 1.08-3.64 1.61-5.47 1.4-4.8 3.82-8.77 7.65-12.24 13.28-12.01 26.25-24.35 39.36-36.56.87-.81 1.84-1.52 3.1-2.56-7.35-2.28-14-4.14-20.51-6.4-10.6-3.69-20.51-8.74-29.77-15.17-9.43-6.55-12.93-15.64-12.43-26.63.51-11.45 4.15-22.14 8.63-32.55.51-1.18 1.87-2.16 3.06-2.85 38-22.06 76.01-44.09 114.08-66.03 2.34-1.35 2.96-2.48 2.34-5.19-3.86-16.65-7.49-33.36-11.18-50.05-.19-.84-.27-1.71-.42-2.66 16.75 5.08 29.7 17.17 28.15 36.18-1.09 13.35-3.6 26.31-8.34 38.87-.87 2.32-2.17 3.71-4.35 4.64-24.16 10.26-48.37 20.41-72.42 30.92-7.64 3.34-15.37 6.91-22.15 11.67-15.21 10.68-18.83 25.39-11.55 42.5 4.44 10.43 17.28 16.85 28.39 14.57 6.78-1.39 13.67-2.27 20.54-3.16 2.58-.33 4.47-1.25 6.28-3.19 14.95-16.05 30.02-31.99 45.04-47.96.76-.81 1.46-1.67 2.54-2.9.87 1.36 1.44 2.38 2.13 3.32 7.89 10.83 15.66 21.76 23.8 32.4 2.11 2.76 5.24 4.89 8.22 6.83 12.04 7.85 23.63 4.53 34.52-2.39 9.54-6.06 16.18-6.23 25.56.97-2.57 2.15-5.15 4.21-7.61 6.39-11.56 10.26-21.13 21.84-25.03 37.28-2.22 8.8-1.38 17.52.29 26.26 4.28 22.31 1.27 44.01-5.07 65.55-4.94 16.76-16.47 27.89-30.62 36.68-15.82 9.82-33.64 13.6-51.9 15.6-4.63.51-9.26.9-13.9 1.35-2.89-.02-5.8-.02-8.71-.02zm64.22-41.26c-22.12-26.33-44.01-52.39-66.37-79.01-3.7 3.89-7.25 7.43-10.54 11.19-.89 1.01-1.52 2.72-1.43 4.05.71 11 3.56 21.6 9.83 30.59 10.53 15.12 21.89 29.65 32.98 44.38.43.57 1.77 1.02 2.42.79 10.91-3.88 21.79-7.87 33.11-11.99zm15.68-97.65c-3.01-12.85-7.01-24.86-12.53-36.35-4.79-9.97-12.48-16.98-22.17-22.05-2.34-1.23-3.63-.8-5.31 1.14-6.87 7.96-14.09 15.61-20.82 23.67-3.04 3.64-5.27 7.98-7.74 12.07-.47.77-.86 2.34-.46 2.78 3.54 3.89 6.4 8.84 12.18 9.8 12.34 2.06 24.71 3.94 37.07 5.88 6.47 1.02 12.95 2.01 19.78 3.06zm-.48 77.83c3.27-12.33 4.98-24.41 2.8-36.76-1.22-6.9-3.39-13.27-9.44-17.47-8.99-6.24-19.3-7.33-30.51-7.7 12.62 21.05 24.89 41.49 37.15 61.93zm-84.49 32.38c-11.6-20.04-22.87-39.5-34.67-59.88-1.16 5.02-2.22 9.09-3.02 13.2-2.77 14.23-1.26 27.52 8.45 39.14 2.49 2.98 5.02 4.91 9.12 5.18 6.52.42 12.99 1.48 20.12 2.36z" fill="#010106"/></svg>