<svg enable-background="new 0 0 400 400" viewBox="0 0 400 400" xmlns="http://www.w3.org/2000/svg"><path d="m122.64 352c-2.42 3-5.54 3.92-6.54 1.83-.6-1.25.9-3.5 1.56-5.63-1.81-.19-4.33-.23-6.73-.81-1.27-.31-2.87-1.29-3.37-2.4-3.42-7.53-6.79-15.09-9.71-22.82-.92-2.43-.4-5.41-.53-8.13-.29.33-.78.87-1.57 1.76-1.18-9.1-2.31-17.81-3.5-27-5.35 2.53-9.58.24-13.88-2.05-5.32-2.84-11.67-4.53-15.84-8.53s-6.21-10.23-9.18-15.49c-.94-1.66-2.22-3.22-2.7-5-.64-2.36-1.46-5.14-.77-7.28 1.19-3.73.87-6.97-.58-10.39-.38-.9-.68-2.34-.24-3.03 5.08-7.95 5.86-17.03 7.05-26 .5-3.77.86-7.56 1.13-11.36.35-4.97.69-9.74-1.7-14.66-1.84-3.77-1.88-8.44-2.57-12.74-.12-.73.49-1.59.83-2.36.13-.28.46-.48.7-.71 6.41-6.36 6.38-6.29 14.72-2.94 1.15.46 2.8-.07 4.14-.43.9-.24 1.65-.99 2.77-1.69-.19 1.53-.18 2.67-.49 3.73-1.28 4.45-.33 8.24 2.75 11.72.67.76.75 2.8.21 3.75-5.32 9.48-3.89 18.3 2.41 26.61 3.34 4.4 7.02 8.55 10.55 12.82.29-.15.58-.3.86-.45.71-4.27 1.6-8.52 2.08-12.82.56-4.97 1.9-9.38 7.23-11.94-7.01-4.81-8.04-10.99-7.18-18.4.44-3.75-1.21-7.83-2.32-11.64-.5-1.72-.72-2.88.73-4.11 1.02-.86 2.04-1.81 2.76-2.92 3.31-5.1 7.97-5.22 13.21-3.95 6.29 1.52 8.02.31 8.63-6.2.13-1.34-.73-3.19-1.75-4.14-9.35-8.76-17.92-18.19-24.9-28.95-2.16-3.33-3.57-7.17-5.07-10.89-.93-2.31-.27-4.4 1.41-6.47 4.45-5.46 8.64-11.13 12.9-16.68-3-3.53-6.24-6.7-8.67-10.4-2.09-3.19-3.86-6.85-4.71-10.55-1.71-7.44.39-11.46 6.88-15.42 1.71-1.04 3.43-2.07 5.39-3.25 1.53 2.84 2.84 5.65 4.48 8.25 6.51 10.31 13.07 20.59 19.77 30.78 1.25 1.9 1.24 3.16.05 5.03-4.56 7.16-8.95 14.44-13.55 21.91 6.66 6.84 13.28 13.64 19.9 20.44 5.23 5.37 10.46 10.75 15.69 16.13 2.61 2.69 2.92 6.3.77 9.52-.73 1.1-1.56 2.14-2.63 3.59 4.97.76 9.56 1.5 14.15 2.16 3.42.49 2.78-2.78 4.34-4.55-7.5-4.6-8.78-11.62-8.73-19.57.02-2.71-2.41-5.39-3.45-8.18-.84-2.24-1.76-4.63-1.75-6.96 0-2.71-.85-4.53-3.1-5.74-2.49-1.33-2.86-3.36-3.09-6.05-.87-10.04 1.02-19.23 6.76-27.64 1.87-2.73 3.15-5.86 4.8-8.98 1.18.63 2.11 1.13 3.36 1.79-.95-5.33-1.4-10.15-5.81-14.01-4.07-3.57-7.15-8.28-7.84-14.08-.33-2.75.29-4.55 3.35-4.95 1.32-.17 2.7-.44 3.88-1.03 5.29-2.65 9.98-.05 14.75 1.62.58.2 1.3 1.38 1.19 1.96-.99 5.14 2.32 8.3 5.08 11.81 2.41 3.06 4.67 6.25 6.72 9.55 1.17 1.89 1.1 3.89-.64 5.82-1.93 2.14-3.48 4.63-5.32 7.14 1.05 1.49 2.06 2.94 3.27 4.66-1.25 1.47-2.52 2.98-3.81 4.49-4.14 4.8-7.47 10.07-8.98 16.29-.25 1.04.3 2.4.8 3.47 1.06 2.29 2.87 4.37 3.38 6.74 1.26 5.9 2.8 11.49 7.7 15.57.74.62 1.11 1.9 1.31 2.93 1.3 6.81 2.98 13.59 3.61 20.47.48 5.28 3.57 7.43 8.04 9.48.65-5.87 1.3-11.48 1.88-17.11.05-.49-.12-1.22-.47-1.5-3.86-3.13-4.09-7.77-5.11-12.08-.08-.33-.04-.69-.16-.99-2.6-6.2-1.37-12.1.95-18.13 1.12-2.9 2.22-4.96 5.65-4.9.84.01 1.69-.44 3.13-.86-5.48-4.97-2.71-9.09 1.06-12.88 6.84-6.88 9.67-15.03 8.06-24.6-.41-2.43-.94-5.02-2.17-7.08-3.31-5.55-7.04-10.85-10.77-16.5 4.09-1.53 3.13-3.97 1.7-6.67-1.03-1.95-1.76-4.06-2.67-6.22 4.21-3.05 8.27-5.99 12.4-8.99 4.12 2.86 6.9 6.19 7.01 11.56.05 2.54 1.51 5.07 2.39 7.58.18.51.55.98.9 1.41 9.62 11.79 12.69 25.38 11.08 40.26-.02.22-.07.45-.05.67.51 4.41-.9 7.67-4.61 10.54-4.99 3.86-7.32 9.46-7.69 15.82-.11 1.88-.53 3.73-.83 5.77-3.16-.5-4.09 1.19-4.26 3.81-.09 1.33-.44 2.65-.82 3.94-.56 1.91-.09 3.27 1.38 4.74 4.7 4.68 6.13 11.06 8.3 17.02.26.71-.22 1.7-.38 2.56-.94 5.04-2.32 10.04-2.69 15.12-.36 4.86 1.79 7.07 6.43 8.39 3.65 1.04 7.29 2.17 10.98 3.06.88.21 2.4-.04 2.85-.65 2.22-3.03 4.19-6.25 6.23-9.39-4.58-3.12-5.01-7.34-4.12-11.57.99-4.68 2.37-9.34 4.17-13.77 3.44-8.47 7.31-16.77 10.66-24.38-4.35-5.6-8.81-10.74-12.54-16.37-3.1-4.68-4.05-9.95-.24-15.03.26-.35.4-.8.57-1.21.08-.19.08-.41.19-1.01-3.8-1.12-3.24-4.26-3.09-7.3.28-5.7.4-11.41.8-17.11.08-1.16.85-2.47 1.68-3.35 2.29-2.44 4.89-4.61 7.17-7.05 3.52-3.77 7.83-5.37 13.25-5.35 1.54 6.95 2.93 13.94 4.7 20.83.78 3.04.35 4.96-2.11 7.21-5.36 4.89-6.25 12.65-2.91 19.11 3.82 7.38 8.72 13.8 15.9 18.22 2.43 1.49 3.07 3.88 2.88 6.39-.4 5.38-1.45 10.45-5.13 14.91-6.58 7.98-10.24 17.15-10.17 27.76.06 8.41-2.39 16.31-6.44 23.72.17.27.34.55.51.82 1.49-.57 3.21-.83 4.42-1.76 4.09-3.12 8-6.47 12.37-10.05 3.17 2.91 6.74 5.52 9.36 8.87 1.48 1.89 2.57 5.42 1.83 7.47-2 5.52-1.44 10.83-.35 16.19 1.45 7.15.76 13.73-3.87 19.63-.53.67-.77 1.56-1.23 2.52 3.45 2.66 6.79 5.23 10.34 7.97 6.41-6.67 12.52-13.36 18.99-19.67 6.79-6.63 13.66-13.23 21.04-19.16 3.44-2.77 8.12-4.05 12.35-5.72.8-.32 2.61.38 3.15 1.17 6.33 9.19 6.95 19.35 4.73 29.92-.17.82-.79 1.58-1.31 2.3-1.08 1.51-1.8 2.61-.3 4.67.85 1.17.34 3.94-.43 5.57-2.73 5.75-5.67 11.42-8.87 16.93-1.56 2.67-1.72 4.6.87 6.49.62.45 1.05 1.15 1.8 2-.8.93-1.56 1.84-2.34 2.72-6.99 7.87-13.93 15.78-21.03 23.54-1.36 1.48-3.24 2.75-5.13 3.43-11.57 4.15-23.19 8.16-34.85 12.05-2.3.77-3.83 2.01-4.08 4.28-.67 5.97-1.45 11.96-1.58 17.95-.18 8.59.21 17.19.27 25.79.01 1.2-.44 2.41-.68 3.61-.67 3.39-2.39 5.57-6.12 6-7.02.79-12.89 3.9-17.86 8.95-.81.82-2.89 1.09-4.06.69-2.93-1-5.57-1.14-8.25.59-1.12.72-2.5 1.01-3.63 1.71-8.43 5.21-17.65 6.54-27.33 5.66-.78-.07-1.76.15-2.3-.24-6.87-4.96-14.73-3.43-22.07-2.65-11.24 1.19-21.74-1.69-32.41-3.98-1.23-.26-2.34-1.26-3.4-2.06-6.11-4.63-12.22-9.33-18.32-14zm111.9-104.2c-4.47.35-5.3.89-10.22 6.44-3.72 4.2-4.95 4.72-9.88 1.98-3.77-2.09-7.08-5.03-10.52-7.69-6.38-4.95-6.29-4.96-3.6-12.75.61-1.78 1.39-2.46 3.3-2.43 6.49.11 12.98.12 19.47 0 1.87-.03 2.86.57 3.52 2.28 1.06 2.74 2.31 5.41 3.14 7.33 4.53-1.77 8.46-3.53 12.53-4.82 3.6-1.14 7.41-1.61 11.05-2.65 1.28-.37 3.33-1.61 3.29-2.36-.11-1.93-.95-3.94-1.96-5.65-.59-.99-2.06-1.46-3.3-2.26 1.44-1.81 2.72-3.35 3.91-4.96.51-.69 1.33-1.7 1.13-2.28-.82-2.45-1.32-5.69-3.13-6.97-3.52-2.5-7.84-5.38-12.32-2.32-3 2.04-5.21 1.25-7.51-.44-1.97-1.45-3.77-3.16-5.44-4.96-4.58-4.93-9.88-8.54-16.38-10.63-6.48-2.08-12.9-4.45-19.13-7.19-5.53-2.44-10.84-2.56-16.81-1.74-13.19 1.81-26.52 2.92-39.24-2.92-.58-.26-1.32-.46-1.91-.34-5.12 1.05-10.22 2.19-14.42 3.1-1.18 4.51-2.45 8.3-3.08 12.18-.35 2.16.37 4.5.58 6.76.12 1.31.76 3.01.18 3.86-2.8 4.11-2.3 8.4-1.55 12.88.72 4.29 1.42 8.62 1.58 12.95.14 3.87-1.44 7.02-5.28 8.94-5.09 2.55-10.05 5.4-14.94 8.32-2.01 1.2-3.39 1.28-5.25-.35-3.78-3.32-8.02-6.12-11.69-9.55-2.95-2.76-5.78-2.74-9.03-1.26-.51 7.58-.27 8.14 3.98 9.4-3.2 4.07-3.45 5.09-.06 9.45 2.86 3.69 6.23 7 9.58 10.27 4.09 3.99 9.14 4.82 14.64 3.91 1.16-.19 2.62-.32 3.56.21 3.4 1.92 6.67.91 10.03.08 4.66-1.15 4.65-1.1 6.05 3.55 1.36 4.49 2.69 8.98 4.2 13.42.8 2.34 2.33 3.29 4.94 2.15 2.4-1.05 4.98-1.68 6.87-2.3 1.17 1.77 1.75 3.47 2.93 4.3 5.77 4.04 11.64 7.95 17.6 11.71 3.42 2.16 7.09 2.49 10.78.31 3.05-1.81 4.41-1.41 6.19 1.7.6 1.05 1.1 2.17 1.7 3.38.53-.46.96-.8 1.36-1.18 5.66-5.45 5.55-5.2 12.77-2.19 2.16.9 5.16.34 7.63-.21 1.7-.38 3.16-1.88 4.86-2.97 1.01 1.18 2.12 2.18 2.87 3.39 2.12 3.45 5.1 4.34 8.9 3.5 3.16-.7 6.37-1.18 9.54-1.86 4.95-1.07 9.86-2.02 14.84.01.69.28 1.76-.03 2.54-.34 5.05-2.01 6.72-5.12 5.75-10.54-1.64-9.16 1.87-14.29 11.05-16.07 1.53-.3 3.13-.26 4.66-.56 2.33-.45 5.02-.29 5.78-3.55.12-.52 1.63-.95 2.52-1.01 5.46-.35 10.48-1.92 15.14-4.83 2.65-1.65 5.46-3.06 8.28-4.41 1.05-.5 2.49-1.03 3.46-.69 4.26 1.49 6.95-.33 9.32-3.62 1.3-1.8 3.13-3.23 4.43-5.03 1.31-1.8 2.26-3.86 3.54-6.12-6.51 0-12.24-.48-17.82.22-2.51.32-4.81 2.89-7.02 4.66-.96.78-1.45 2.14-2.56 3.85-2.25-2.57-4.29-4.9-6.83-7.81-5.16 8.35-12.32 9.09-20.64 7.77-8.24-1.31-16.64-1.58-25.21-2.32.27-3.53.51-6.81.76-10.13zm-22.99 83.7c-.36-.15-.86-.21-1.14-.49-3.99-4.01-8.11-3.58-12.33-.42-.09.07-.22.07-.31.14-1.46 1.07-2.97 1.12-4.19-.24-4.22-4.71-8.49-4.05-12.85-.26-.08.07-.2.11-.28.18-1.55 1.3-3.07 1.27-4.9.35-4.08-2.07-8.38-3.73-12.38-5.93-3.24-1.78-6.16-2.21-9.2.13-1.79 1.38-3.37.9-5.19-.16-5.32-3.07-10.73-5.99-16.15-8.88-.88-.47-2.25-.94-2.97-.58-2.13 1.08-4.05 2.58-6.48 4.21 2.81 3.59 4.86 7.45 7.99 9.93 6.36 5.04 13.04 9.79 20.1 13.76 4.14 2.32 9.18 3.51 13.95 4.09 5.12.63 9.74.94 10.36 7.75 1.95-1.79 3.49-3.2 5-4.59.88.48 1.66.74 2.24 1.24 5.14 4.51 10.56 4.91 16.35 1.32 2.29-1.42 4.29-.83 6.43.7 1.49 1.07 3.9 2.48 5.18 1.96 10.77-4.32 21.4-8.98 31.99-13.73 2.68-1.2 2.91-7.62.55-9.36-2.41-1.78-4.9-3.46-7.38-5.2-2.28 1.46-4.53 2.89-6.68 4.27-9.94-6.43-11.9-6.45-17.71-.19z" fill="#010100"/><path d="m151.07 257.58c-2.32-2.68-4.21-4.99-6.24-7.16-3-3.21-3.23-6.96-.5-10.38.56-.7 1.26-1.33 1.65-2.11 2.8-5.64 7.52-5.96 12.98-5.16 12.01 1.77 17.68 6.4 19.89 16.91-3.99 2.47-8.01 5.09-12.19 7.43-.77.43-2.35.05-3.23-.48-3.53-2.12-6.93-4.45-11.09-7.16 0 2.13-.44 3.78.1 5 .96 2.21.09 2.84-1.37 3.11z" fill="#010100"/><g fill="#fcfafa"><path d="m342.2 3.2-6.3 9.2h6.1v1.2h-8.2v-.5l6.2-9.1h-5.7v-1.2h7.8v.4z"/><path d="m344 13.7v-10.9h3.1c1.6 0 3 .5 4.1 1.4 1.1 1 1.6 2.2 1.6 3.9s-.5 3-1.6 4-2.5 1.5-4.2 1.5h-3zm1.4-9.6v8.4h1.6c1.4 0 2.5-.4 3.2-1.1.8-.8 1.2-1.8 1.2-3.2s-.4-2.4-1.2-3.1-1.8-1-3.1-1z"/><path d="m356.3 2.8v10.9h-1.4v-10.9z"/><path d="m366.6 13.2c-.8.4-1.8.6-3 .6-1.6 0-2.8-.5-3.7-1.5s-1.4-2.3-1.4-3.9c0-1.7.5-3.2 1.6-4.2s2.4-1.6 4-1.6c1 0 1.9.1 2.6.4v1.5c-.8-.4-1.6-.6-2.6-.6-1.2 0-2.2.4-3 1.2s-1.1 1.9-1.1 3.3c0 1.3.4 2.3 1.1 3.1s1.6 1.1 2.8 1.1c1.1 0 2-.2 2.8-.7v1.3z"/><path d="m368.2 13c0-.3.1-.5.3-.6.2-.2.4-.3.6-.3.3 0 .5.1.7.3s.3.4.3.6-.1.5-.3.6c-.2.2-.4.3-.7.3s-.5-.1-.6-.3c-.2-.2-.3-.4-.3-.6z"/><path d="m381.1 13.7h-1.7l-5.5-8.4c-.2-.2-.3-.5-.4-.7 0 .2.1.8.1 1.5v7.6h-1.4v-10.9h1.8l5.3 8.3c.3.4.4.6.4.8 0-.3-.1-.8-.1-1.6v-7.5h1.4v10.9z"/><path d="m389.7 13.7h-5.8v-10.9h5.6v1.2h-4.2v3.5h3.9v1.2h-3.9v3.7h4.4z"/><path d="m398.4 4.1h-3.1v9.6h-1.4v-9.6h-3.1v-1.3h7.7v1.3z"/></g></svg>