<svg enable-background="new 0 0 400 400" viewBox="0 0 400 400" xmlns="http://www.w3.org/2000/svg"><path d="m374.8 390.4.4-.4c.7.5 1.3 1 1.8 1.4l-.5.5c-.5-.6-1.1-1.1-1.7-1.5zm1 7.3-.6-.3c.5-1.4 1.1-2.8 1.5-4.3.2.1.4.2.6.3-.5 1.3-1 2.8-1.5 4.3zm-.4-10.3.4-.4c.4.3 1 .8 1.7 1.4l-.5.5c-.4-.5-1-1-1.6-1.5zm2.5.3h1.7v-1h.6v1h3.5v-1h.6v1h1.8v.5h-1.8v1.4h-2v1h3.2v2h-3.2v.9h3.3v.5h-3.4c0 .3-.1.6-.1.9h4v.5h-3.7c.7.9 1.9 1.5 3.8 1.7-.1.2-.2.4-.3.6-2.1-.4-3.5-1.1-4-2.1-.4 1-1.8 1.7-4 2.2-.1-.2-.2-.4-.3-.6 2.1-.4 3.4-1 3.8-1.8h-3.4v-.5h3.6c.1-.3.1-.6.2-.9h-3.3v-.5h3.4c0-.3 0-.6 0-.9h-3.2v-2h3.3v-1h-2.1v-1.4h-1.7v-.5zm1.1 3.5v1h2.7c0-.3 0-.4 0-.4 0-.1 0-.2 0-.2 0-.1 0-.2 0-.3h-2.7zm1.2-3v.9h3.5v-.9zm4.7 3h-2.6v.6.4h2.6z" fill="#fbfcfa"/><path d="m393.6 386.7h.6v1.5h2.7v6.1h1.1v.6h-11v-.6h1.1v-6.1h2.7v-1.5h.6v1.5h2.1v-1.5zm-2.7 8.8.4.6c-1.2.6-2.5 1.3-3.8 1.9-.1-.2-.2-.4-.3-.6 1.2-.6 2.5-1.2 3.7-1.9zm-2.2-6.7v2.4h2.1v-2.4zm0 3v2.5h2.1v-2.5zm2.8-3v2.4h2.1v-2.4zm0 3v2.5h2.1v-2.5zm6 6.1c-1.4-.7-2.7-1.3-3.9-1.8l.3-.6c1.5.6 2.7 1.2 3.9 1.7zm-1.2-9.1h-2.1v2.4h2.1zm-2.1 3v2.5h2.1v-2.5z" fill="#fbfcfa"/><g fill="#010106"><path d="m144.43 130.88c2.64 10.78 5.69 21.32 7.72 32.04 2.66 14.04 10.36 24.23 22.03 31.84.55.36 1.14.63 1.84 1.02 14.2-17.66 18.45-37.02 10.78-58.52-3-8.41-6.96-16.52-9.33-25.08-5.28-19.11-2.45-37.61 5.74-55.41.31-.02.63-.05.94-.07.99 8.46 2.13 16.91 2.92 25.39.69 7.45.48 15.02 1.56 22.4 1.48 10.04 6.86 18 15.36 24.23 4.92-5.34 9.32-11.09 14.7-15.69 6.73-5.75 7.6-12.85 6.39-20.59-1.03-6.6-2.4-13.2-4.37-19.57-2.67-8.65-2.36-16.91 1.08-25.21 3.16-7.63 7.74-14.29 13.82-20.36-.36 2.75-.64 5.51-1.09 8.25-1.5 9.15-3.39 18.26-4.52 27.46-1.45 11.73 3.88 20.57 14.69 25.13 1.43.6 3.49.58 4.97.04 15.95-5.83 31.85-11.82 47.76-17.76 1.12-.42 2.24-.8 3.8-1.36 0 3.57.2 6.69-.13 9.75-.1.89-1.58 1.96-2.65 2.37-13.15 5.02-26.54 9.47-39.47 15.01-12.5 5.36-22.99 13.26-29.85 25.77-8.22 14.98-17.46 29.4-26.26 44.05-.68 1.13-1.39 2.24-2.26 3.63 6.77 2.03 13.39 2.03 19.76.6 13.17-2.97 26.13-6.88 39.31-9.82 7.48-1.67 15.19-2.41 22.84-3.14 3.89-.37 7.71.7 11.61 3.83-3.09 2.84-5.85 5.6-8.85 8.06-2.23 1.83-3.05 3.98-2.77 6.73 1.03 10.11 2.21 20.21 3 30.34.45 5.75.74 11.59.23 17.32-.46 5.1-3.53 9.06-8.65 11.83-4.32-18.7-8.58-37.15-12.95-56.08-2.85.27-5.7.5-8.54.81-19.23 2.14-38.46 4.34-57.7 6.38-2.45.26-3.32 1.18-3.77 3.53-2.63 13.49-5.4 26.96-8.21 40.42-.45 2.17-.04 3.5 2.01 4.6 6.79 3.65 13.29 7.89 20.27 11.12 9.68 4.49 17.71 10.79 24.25 19.12.41.52.88 1 1.65 1.86 4.24-7.97 8.35-15.71 12.8-24.06 2.26 4.26 2.84 8.32 2.64 12.5-.39 8.01-3.25 15.28-7.09 22.17-5.98 10.74-12.12 21.4-18.26 32.05-.82 1.42-1.9 2.78-3.12 3.88-22.05 19.83-44.18 39.59-66.19 59.47-2.25 2.03-4.23 2.53-7.16 1.8-9-2.25-18.1-4.09-27.1-6.32-1.54-.38-3.27-1.54-4.13-2.85-3.06-4.67-5.97-9.46-8.58-14.39-4.87-9.21-5.03-19-2.06-28.69 4.04-13.13 8.65-26.08 13-39.12.34-1.03.65-2.07 1.03-3.29-8.32-1.25-16.43-2.47-24.54-3.68-.03-.19-.06-.38-.09-.57 2.36-.85 4.73-1.68 7.09-2.55 17.87-6.58 34.5-15.43 49.22-27.56 11.18-9.21 19.24-20.79 24.3-34.85-1.29-.88-2.69-1.73-3.98-2.72-7.1-5.43-14.36-10.66-21.19-16.4-6.18-5.19-9.5-12.22-9.74-20.29-.36-12.18-.25-24.37-.43-36.56-.05-2.38.85-3.78 3.92-4.24zm-12.62 160.5c-.15 9.16 1.05 16.39 6.17 22.32 5.25 6.08 10.74 11.96 16.16 17.9.51.56 1.19 1.12 1.89 1.32 12.45 3.46 24.73 3.84 34.51-5.98 9.69-9.73 18.46-20.38 27.61-30.64.44-.49.83-1.1 1-1.72 2.23-7.8 2.91-15.62-.18-23.35-5.29-13.27-19.58-23.74-38.23-24.44-.74-.03-1.57.2-2.25.54-5.28 2.66-11.05 4.69-15.68 8.22-8.06 6.14-15.23 13.43-23.1 19.83-5.72 4.67-8.96 10.07-7.9 16zm-13.14 32.31c-.48.11-.96.22-1.44.33 0 5.09-.3 10.21.07 15.28.53 7.23 4.28 12.94 10.04 17.06 9.62 6.88 22 5.44 31.77-3.52-10.55-13.86-27.35-18.92-40.44-29.15z"/><path d="m162.97 298.81c0-3.98-.02-7.85.03-11.72.01-.48.25-1.08.59-1.42 4.14-4.17 15.02-3.05 17.97 2 .69 1.18.7 3.04.39 4.45-1.77 8.04-3.21 8.98-11.08 7.78-2.51-.39-5.03-.7-7.9-1.09z"/></g></svg>