<svg enable-background="new 0 0 400 400" viewBox="0 0 400 400" xmlns="http://www.w3.org/2000/svg"><path d="m374.8 390.4.4-.4c.7.5 1.3 1 1.8 1.4l-.5.5c-.5-.6-1.1-1.1-1.7-1.5zm1 7.3-.6-.3c.5-1.4 1.1-2.8 1.5-4.3.2.1.4.2.6.3-.5 1.3-1 2.8-1.5 4.3zm-.4-10.3.4-.4c.4.3 1 .8 1.7 1.4l-.5.5c-.4-.5-1-1-1.6-1.5zm2.5.3h1.7v-1h.6v1h3.5v-1h.6v1h1.8v.5h-1.8v1.4h-2v1h3.2v2h-3.2v.9h3.3v.5h-3.4c0 .3-.1.6-.1.9h4v.5h-3.7c.7.9 1.9 1.5 3.8 1.7-.1.2-.2.4-.3.6-2.1-.4-3.5-1.1-4-2.1-.4 1-1.8 1.7-4 2.2-.1-.2-.2-.4-.3-.6 2.1-.4 3.4-1 3.8-1.8h-3.4v-.5h3.6c.1-.3.1-.6.2-.9h-3.3v-.5h3.4c0-.3 0-.6 0-.9h-3.2v-2h3.3v-1h-2.1v-1.4h-1.7v-.5zm1.1 3.5v1h2.7c0-.3 0-.4 0-.4 0-.1 0-.2 0-.2 0-.1 0-.2 0-.3h-2.7zm1.2-3v.9h3.5v-.9zm4.7 3h-2.6v.6.4h2.6z" fill="#fbfcfa"/><path d="m393.6 386.7h.6v1.5h2.7v6.1h1.1v.6h-11v-.6h1.1v-6.1h2.7v-1.5h.6v1.5h2.1v-1.5zm-2.7 8.8.4.6c-1.2.6-2.5 1.3-3.8 1.9-.1-.2-.2-.4-.3-.6 1.2-.6 2.5-1.2 3.7-1.9zm-2.2-6.7v2.4h2.1v-2.4zm0 3v2.5h2.1v-2.5zm2.8-3v2.4h2.1v-2.4zm0 3v2.5h2.1v-2.5zm6 6.1c-1.4-.7-2.7-1.3-3.9-1.8l.3-.6c1.5.6 2.7 1.2 3.9 1.7zm-1.2-9.1h-2.1v2.4h2.1zm-2.1 3v2.5h2.1v-2.5z" fill="#fbfcfa"/><path d="m257.53 214.7c2.38-18.1 4.65-35.39 6.93-52.68.34-.11.69-.22 1.03-.33 2.85 6.83 6.13 13.51 8.47 20.51 7.32 21.91 7.66 44.42 4.46 67.03-4.16 29.39-11.12 58.09-20.57 86.3-4.46 13.32-13.72 21.51-24.19 29.32-17.12 12.77-35.73 13.03-55.25 6.99-4.01-1.24-7.07-3.17-9.68-6.53-7.76-9.99-15.87-19.7-23.72-29.61-1.1-1.39-1.93-3.29-2.16-5.04-3.87-30.06-7.61-60.14-11.47-90.21-.17-1.32-1.01-2.7-1.89-3.75-7.15-8.47-14.39-16.86-21.59-25.29-11.69-13.68-15.39-29.28-10.62-46.63 3.47-12.6 7.34-25.09 11.16-37.6.5-1.63 1.56-3.17 2.64-4.51 6.46-7.99 13.2-15.76 19.47-23.9 4.83-6.27 5.43-13.92 6.3-21.57 1.5-13.09 3.72-26.1 5.64-39.15.3-.04.61-.08.91-.11 1.11 2.25 2.43 4.43 3.3 6.78 3.54 9.51 7.25 18.97 10.23 28.65 1.14 3.7.74 7.96.56 11.95-.18 4.13.35 6.23 4.22 7.74 3.91 1.53 8.08 2.9 12.23 3.25 9.46.78 18.98.97 28.48 1.18.92.02 2.11-1.28 2.78-2.25 8.23-11.81 8.06-24.58 4.44-37.87-2.39-8.76-.65-17.79 4.26-24.88 7.65 15.85 15.05 31.64 16.84 49.33.6 5.9 3.54 10.08 8.58 12.78 9.08 4.88 19.06 5.31 29.05 5.38.8 0 1.78-.82 2.39-1.51 8.46-9.58 12.92-20.61 13.18-33.56.24-11.94 1.31-23.87 2.05-35.8.07-1.2.4-2.39.69-4.04 7.37 5.95 11.65 13.32 14.05 21.91 2.72 9.76 2.49 19.77 1.86 29.69-.54 8.57-2.12 17.07-3.16 25.6-.25 2.07-1.29 2.97-3.25 3.63-21.51 7.21-43.72 10.55-66.27 11.29-16.99.56-34.01-.03-51.02-.09-11.49-.04-22.84.92-33.46 5.77-15.18 6.93-22.9 19.43-24.51 35.48-.89 8.82-.04 17.83.29 26.74.05 1.38 1.2 3.1 2.36 3.98 6.52 4.92 13.34 9.45 19.77 14.48 3.63 2.84 7.51 3.56 11.65 2.53 6.93-1.71 13.77-3.83 20.63-5.83.7-.21 1.48-.67 1.9-1.24 6.48-8.78 11.73-18.07 10.96-29.52-.2-2.99-1.07-5.94-1.4-8.93-.67-6.18 1.96-8.73 8.18-8.16 6.06.56 5.8.65 7.75 6.19 3.81 10.84 7.79 21.63 11.96 32.34 5.15 13.21 15.76 19.53 29.06 22.04 4.39.84 8.84 1.15 13.5 1.73zm2.28 38.65c-6.71-10.66-23.32-28.53-32.98-35.55-6.69-4.86-14.03-8.27-22.17-9.92-3.36-.68-6.41-.48-9.67 1.11-14.36 7.01-28.85 13.75-43.29 20.6-1.18.56-2.35 1.16-3.64 1.8 2.08 6.88 4.32 13.44 5.97 20.14.86 3.52 2.63 4.79 6.02 5.29 27.26 4.06 54.59 4.38 81.97 1.71 6.08-.59 12.13-1.87 17.79-5.18zm-99.55 60.47c27.98.85 55.46 1.7 82.95 2.48.8.02 2.17-.57 2.35-1.16 2.63-8.78 5.4-17.6 3.47-26.95-1.16-5.6-5-8.88-10.74-9.4-1.78-.16-3.57-.16-5.36-.26-11.05-.59-22.21-.41-33.11-2.02-9.42-1.39-18.05-.55-26.8 2.79-5.69 2.17-11.62 3.69-17.63 5.55 1.65 9.86 3.25 19.31 4.87 28.97zm72.78 24.53c-21.97-.82-43.34-1.61-65.4-2.43 4.34 5.84 8.19 11.03 12.08 16.2.87 1.15 1.65 2.6 2.83 3.24 6.24 3.37 12.72 6.2 20 6.1 9.8-.14 17.65-5.08 25.2-10.63.42-.31.7-.88.9-1.38 1.41-3.52 2.79-7.05 4.39-11.1z" fill="#010106"/></svg>