<svg enable-background="new 0 0 400 400" viewBox="0 0 400 400" xmlns="http://www.w3.org/2000/svg"><path d="m179.84 374.63c-2.91-4.96-3-9.94-.98-14.98 10.15-25.36 13.38-52.25 18-79.78-3.32 0-6.41-.64-9.09.14-5.11 1.48-9.98 3.78-14.96 5.73-4.66 1.82-9.19 4.17-14.01 5.28-5.84 1.35-10.97-.87-15.45-6.05 4.78-1.66 9.15-3.49 13.68-4.68 9.18-2.42 18.46-4.45 27.66-6.77 2.15-.54 4.19-1.54 6.22-2.45 5.82-2.62 8.59-6.51 9.3-13.52 2.79-27.82 2.66-55.67 2.14-83.52-.18-9.73-2.58-19.43-4.12-29.12-.86-5.41-2.21-10.74-2.99-16.16-.42-2.96-1.83-4.68-4.53-5.49-2.56-.77-5.13-1.78-7.76-2.03-14.89-1.43-23.51-10.59-29.5-23.27-3.46-7.31-4.3-15.2-5.8-22.99-1.76-9.2-4.11-18.3-6.11-27.46-.25-1.14-.31-3.21.19-3.43 1.26-.57 2.92-.58 4.35-.36 1.51.23 3.03.82 4.36 1.57.99.56 2.19 1.52 2.42 2.5 1.7 7.29 3.18 14.64 4.72 21.96.78 3.67 3.61 5.66 7.14 4.43 19.39-6.77 39.74-9.51 59.6-14.3 2.22-.53 3.07-1.63 3.6-3.67 1.88-7.25.71-14.46-.04-21.68-.32-3.09-.52-6.18-.77-9.32 6.84.51 10.1 3.17 11.08 9.32.97 6.05 1.68 11.98-1.2 18-2.61 5.46-1.3 11.51-.01 17.17 4.51 19.81-9.99 40.54-25.54 46.13-3.09 1.11-5.75 3.62-8.36 5.79-1.54 1.28-1.64 2.85.24 4.47 3.08 2.63 4.35 6.17 3.9 10.23-.54 4.84.62 9.23 2.8 13.57 4.73 9.43 5.84 19.76 5.86 30.05.03 11.5 1.92 22.7 3.66 33.96.13.85.48 1.67.73 2.5 9.69-2.23 19.02-4.97 26.99-10.85 2.19-1.62 4.09-3.81 5.64-6.07 5.07-7.36 6.33-15.79 6.64-24.69-3.23-.16-5.74.44-8.17 2.49-6.53 5.5-14.06 8.65-22.77 8.23-1.23-.06-2.43-.7-3.64-1.07.75-.99 1.29-2.33 2.28-2.92 6.31-3.79 12.47-7.99 19.16-10.97 9.04-4.02 12.33-11.14 12.99-20.17.06-.83-.76-2.09-1.53-2.52-1.11-.61-2.73-1.2-3.8-.83-5.6 1.92-11.78 2.62-16.31 6.99-5.45 5.26-9.43 4.54-15.53-3.27 3.82-1.88 7.53-3.76 11.29-5.54 4.43-2.11 9.13-3.74 13.29-6.28 7.92-4.84 10.99-12.01 8.64-21.22-.72-2.81-1.38-5.65-2.03-8.48-.23-.98-.44-1.97-.52-2.96-.35-4.04.71-5.93 3.46-6.68 3.84-1.05 4.73 1.9 5.47 4.33 1.16 3.81 2.26 7.75 2.53 11.69.57 8.24.22 16.58 4.5 24.13.56.99.54 2.39.58 3.6.57 15.55 1.13 31.09 1.58 46.64.04 1.32-.47 2.87-1.22 3.97-4.6 6.75-9.23 13.48-14.06 20.06-3.95 5.38-10.01 7.7-15.93 10.06-5.87 2.34-11.84 3.4-17.77.19-2.75-1.49-4.84-.32-5.71 2.04-1 2.73-1.81 5.89-1.44 8.69.97 7.37.8 14.48-2.07 21.42-.16.39-.12.87-.19 1.51 5.12 1.67 10.22 1.24 15.21-.09 4.09-1.09 7.98-2.99 12.09-3.96 3.96-.94 8.1-1.54 12.16-1.51 2.09.02 4.16 1.73 6.25 2.68 0 .37 0 .74-.01 1.11-4.12 1.79-8.18 3.77-12.39 5.33-8.69 3.22-17.48 6.19-26.19 9.35-1.77.64-3.44 1.62-5.07 2.58-4.79 2.81-7.44 6.6-8.16 12.53-2.99 24.52-5.97 49.09-13.99 72.65-1.19 3.48-2.47 6.95-4.01 10.29-1.61 3.44-4.41 5.5-8.67 5.75zm13.74-263.76c3.35-.78 6.01-.83 8.05-1.96 12.84-7.13 22.94-16.64 26.05-31.8 1-4.88-1.68-7.45-6.51-6.66-10.7 1.75-21.41 3.39-32.14 4.93-8.79 1.26-17.42 2.94-25.19 7.54-1.49.89-2.76 1.75-2.3 3.91 1.74 8.13 6.44 14.71 13.28 18.51 5.76 3.21 12.9 3.91 18.76 5.53z" fill="#010100"/><path d="m123.07 106.81c7.72 5.6 11.33 13.49 13.63 22.15 5.45 20.48 7.37 21.07 27.27 26.45 4.85 1.31 9.75 2.46 14.53 4.01 2.47.8 4.7 2.31 7.33 3.64-5.93 6.54-12.75 7.08-20.07 5.22-6.28-1.6-12.49-3.46-18.73-5.19-.74-.2-1.5-.29-2.58-.5-1.89 9.43-3.79 18.7-5.58 28-.35 1.81 2.43 3.62 4.51 2.83 11.7-4.47 24.11-4.47 36.29-5.92 1.11-.13 2.27-.05 3.33-.34 3.41-.93 5 .6 5.55 4.1-9.17 5.91-19.2 9.02-30.27 8.65-1.9-.06-3.8-.26-5.7-.26-6.51 0-10.45 3.56-10.28 10.1.12 4.53.89 9.12 1.99 13.53 1.15 4.58 10.55 9.21 15.21 8.95 8.46-.48 15.17-3.4 20.3-10.45 2.63-3.61 6.76-5.77 11.51-6.02 1.97 4.36 1.54 7.94-2.45 10.92-5.63 4.2-10.91 8.9-16.73 12.81-5.85 3.94-12.43 3.46-19.1 1.87-8.62-2.05-14.43-6.56-17.91-15.14-4.52-11.15-6.27-22.54-6.3-34.38-.02-9.29-.07-18.58-.11-27.87 0-.45-.1-.93.03-1.34 4-12.65-.65-24.75-2.41-37.01-.91-6.31-2.17-12.55-3.26-18.81z" fill="#010100"/><g fill="#fcfbfa"><path d="m377.9 391.2c-.2.3-.4.5-.6.8-.7-.6-1.4-1-2.2-1.5.2-.3.4-.5.5-.8.6.4 1.4.8 2.3 1.5zm-1.8 6.1c-.2-.2-.5-.4-.9-.6.4-.6.8-1.2 1.2-1.9s.7-1.3.9-1.9c.3.3.5.5.8.7-.7 1.3-1.4 2.6-2 3.7zm2.2-9c-.3.3-.5.5-.6.8-.6-.6-1.3-1.1-2-1.5.3-.3.5-.5.6-.7.6.5 1.3.9 2 1.4zm.3.2v-.9h2 4.5c-.3 1.3-.6 2.5-1 3.6s-.9 2.1-1.4 3c.4.5 1 1 1.6 1.4s1.2.8 1.9 1.1c-.3.2-.5.4-.8.8-.4-.3-1-.7-1.6-1.2s-1.2-1.1-1.6-1.6c-.5.6-1.1 1.1-1.7 1.6s-1.4.9-2.1 1.4c-.1-.3-.3-.5-.7-.8.6-.2 1.2-.5 1.9-1s1.4-1.1 2-1.8c-.5-.8-.9-1.6-1.2-2.5s-.6-2-.8-3.2c-.4.1-.7.1-1 .1zm2.5 2.7c.3 1 .7 1.7 1 2.2.3-.5.6-1.1 1-2s.6-1.9.9-3h-3.2-.4c.1.9.3 1.8.7 2.8z"/><path d="m396.5 388.5v1.5 3.6h1.5v.9c-.4 0-1 0-1.7 0h-7.9c-.5 0-.9 0-1.2 0v-.9h1.3v-3.5c0-.7 0-1.2 0-1.6h2.4c0-.8 0-1.4 0-1.7h1c0 .3-.1.8-.1 1.7h1.5c0-.8 0-1.4 0-1.7h1c0 .3-.1.9-.1 1.7zm-8.2 9.2c-.2-.3-.5-.5-.8-.8.8-.3 1.4-.6 1.9-.9s1-.7 1.4-1.1c.3.3.6.5.9.8-1.6 1-2.8 1.6-3.4 2zm2.6-6.8v-1.6h-1.5v1.6zm0 2.7v-1.9h-1.5v1.9zm2.4-2.7v-1.6h-1.5v1.6zm0 2.7v-1.9h-1.5v1.9zm.2 2 .7-.8c.4.2.9.5 1.6.8s1.3.7 1.8 1c-.3.3-.5.5-.8.8-.4-.3-1.5-1-3.3-1.8zm2-4.7v-1.6h-1.4v1.6zm0 2.7v-1.9h-1.4v1.9z"/></g></svg>