<svg enable-background="new 0 0 400 400" viewBox="0 0 400 400" xmlns="http://www.w3.org/2000/svg"><path d="m202.27 274.68c-5.35 5.54-10.09 11.44-15.8 16.15-10.9 8.99-23.98 10.15-37.5 8.63-1.44-.16-2.86-.58-4.31-.66-14.5-.77-21.81-10.99-28.95-21.67-7.64-11.44-10.57-24.21-11.9-37.63-1.2-12.13-2.73-24.23-4.22-36.33-1.02-8.26-4.41-15.36-10.5-21.2-2.61-2.5-4.7-5.55-7.35-8.75 6.86-1.93 12.72-.92 18.42 1.13 4.94 1.77 9.93 3.55 14.56 5.97 2.42 1.27 4.5 3.68 6.02 6.04 3.16 4.9 7.6 7.29 13.13 8.28 15.18 2.72 30.42 3.6 45.75 1.62 5.22-.67 7.43-3.92 5.7-8.9-.97-2.79-2.66-5.87-4.96-7.55-7.45-5.43-13-12.21-18.02-19.94-6.71-10.36-11.36-21.48-15.42-32.97-.52-1.46-1.1-2.9-1.91-5.03-4.25 1.91-8.54 3.44-12.41 5.69-4.83 2.8-9.81 3.17-14.88 1.75-12.27-3.44-23.31-9.59-34.13-16.14-.57-.34-.84-1.16-1.25-1.76.6-.38 1.15-1 1.8-1.11 15.97-2.74 31.96-5.41 47.93-8.15 2.3-.39 4.69-.73 6.78-1.66 3-1.34 4.72-3.58 4.69-7.33-.05-9.29.27-18.6-2.81-27.54-.73-2.12-1.8-4.31-3.28-5.94-3.15-3.46-6.67-6.57-10.18-9.96 4.3-2.78 8.43-2.79 12.65-1.66 3.99 1.07 7.97 2.2 11.91 3.44 1.12.36 2.1 1.18 3.12 1.84 2.43 1.57 4.74 3.38 7.29 4.73 7.46 3.96 10.25 9.23 9.23 17.59-.34 2.76-.61 5.59-.38 8.34.4 4.65 2.61 6.1 7.12 5.23 9.44-1.82 18.89-3.59 28.32-5.44 7.44-1.46 10.83-5.09 11.45-12.75.25-3.08.23-6.36-.56-9.3-1.82-6.78-4.25-13.4-6.32-20.12-1.08-3.5-3.51-5.56-6.66-7.03-1.72-.8-3.77-1.32-5.01-2.6-1.01-1.04-1.47-3.07-1.37-4.6.13-1.85 1.59-2.85 3.65-2.33 8.75 2.21 17.64 3.98 26.21 6.77 6.48 2.11 10.73 6.61 11.38 14.22.67 7.78 2.52 15.44 3.53 23.2.38 2.95 1.62 4.71 4.43 4.79 4.32.13 8.66-.01 12.96-.34 2.31-.18 4.55-1.16 6.86-1.51 6.02-.91 11.66 4.91 10.52 10.86-.14.74-.9 1.58-1.6 1.96-4.48 2.43-8.96 4.9-13.57 7.07-5.04 2.36-10.28 4.29-15.33 6.63-3.5 1.62-5.87 4.9-5.96 8.43-.34 14.07-7.3 26.13-11.08 39.14-2.66 9.17-7.11 17.07-14.4 23.22-3.89 3.28-4.64 6.51-2.68 11.54 1.78 4.56 5.11 6.79 8.77 9.6 1.55-1.39 3.21-2.68 4.62-4.19 5.33-5.74 10.77-11.39 15.76-17.4 2.24-2.69 3.96-6.02 5.17-9.33 2.03-5.57 3.31-11.34-1.95-16.05 5.32-5.14 12.63-6.03 18.49-2.51 7.77 4.66 15.57 9.26 23.25 14.07 1.07.67 1.94 2.27 2.17 3.58.45 2.52.71 5.15.48 7.69-.94 10.29 2.48 19.16 7.84 27.74 8.69 13.91 13.27 29.18 14.05 45.64.63 13.46-1.76 26.38-9.31 37.4-3.45 5.03-9.72 8.41-15.22 11.67-7.73 4.58-16.49 5.81-25.42 6.51-7.74.6-15.4 2.3-23.51 3.57 4.77 10.48 7.05 21.6 15.64 29.47 1.47 1.35 2.74 2.96 3.94 4.57 7.25 9.75 16.31 17.43 26.67 23.67 4.87 2.93 8.36 6.94 9.97 12.56.85 2.96.05 4.58-2.85 5.6-3.85 1.35-7.08.24-10.54-1.51-15.81-8.03-27.16-21.33-39.64-33.28-9.74-9.32-16.63-20.69-22.54-32.71-5.03-10.23-10.22-20.38-15.35-30.56-.46-.87-.96-1.71-1.2-2.16zm84.95-52.71c-.93 1.23-1.61 2.42-2.56 3.33-5.86 5.65-11.26 11.94-17.79 16.68-11.18 8.11-24.06 13.19-36.89 18.19-1.23.48-2.79 1.82-2.97 2.95-1.14 7.18-.11 14.1 4.04 20.21.75 1.11 2.67 2.14 3.98 2.05 11.86-.81 23.04-4.03 33.54-9.7 7.4-4 11.67-10.96 16.68-17.2 7.28-9.06 8.34-25.78 1.97-36.51zm-68.23 2.63c-.19.04-.38.09-.57.13.96 4.79 1.86 9.58 2.91 14.35.55 2.52 2.09 3.66 4.66 2.42 4.2-2.04 8.83-3.53 12.45-6.33 7.76-6.02 14.9-12.81 22.45-19.11 7.44-6.22 11.73-14.21 13.91-23.48.43-1.84.91-3.73.9-5.59-.02-3.19-1.78-5.35-4.66-6.77-2.89-1.42-4.91-.5-7.1 1.58-6.33 6-12.93 11.72-19.27 17.71-5.24 4.95-10.53 9.45-18 10.91-4.71.92-7.91 3.98-7.45 9.51.13 1.53-.14 3.11-.23 4.67zm-46.86-91.74c1.3 5.39 3.24 13.52 5.25 21.63.13.54.72 1.25 1.23 1.38 4.6 1.18 9.66 2.59 13.6-.57 7.02-5.63 15.03-10.55 17.45-20.39 1.6-6.48 4.36-12.68 5.9-19.17 1.35-5.7-2.59-10.35-7.69-9.36-7.88 1.53-15.94 2.87-23.37 5.73-11.43 4.4-11.31 4.42-12.37 20.75zm-44.62 110.78c-1.4 13.34 1.75 24.3 10.45 33.49.5.53 1.24 1.04 1.93 1.15 10.33 1.6 20.81 2.18 30.02-3.5 9.69-5.98 18.74-13 28.02-19.63.59-.42 1.22-1.53 1.06-2.11-.65-2.43-1.6-4.78-2.46-7.22-1.13.23-1.89.36-2.63.55-12.26 3.04-24.58 5.87-36.75 9.22-7.55 2.08-13.74.57-19.48-4.61-2.93-2.65-6.42-4.67-10.16-7.34zm34.12-31.92c-8.39 0-16.78-.01-25.17.01-2.67.01-8.15 3.12-8.41 5.05-.43 3.2-.82 6.47-.63 9.67.17 3 1.72 4.96 5.31 5.22 10.14.75 20.25 1.88 30.38 2.78 9.2.82 18.08-.37 26.39-4.6 1.03-.52 2.45-1.39 2.61-2.29.82-4.53 1.15-9.11-1.31-13.37-1.05-1.82-2.5-2.54-4.68-2.5-8.16.1-16.33.03-24.49.03z" fill="#010105"/><g fill="#fcfbfa"><path d="m377.9 391.2c-.2.3-.4.5-.6.8-.7-.6-1.4-1-2.2-1.5.2-.3.4-.5.5-.8.6.4 1.4.8 2.3 1.5zm-1.8 6.1c-.2-.2-.5-.4-.9-.6.4-.6.8-1.2 1.2-1.9s.7-1.3.9-1.9c.3.3.5.5.8.7-.7 1.3-1.4 2.6-2 3.7zm2.2-9c-.3.3-.5.5-.6.8-.6-.6-1.3-1.1-2-1.5.3-.3.5-.5.6-.7.6.5 1.3.9 2 1.4zm.3.2v-.9h2 4.5c-.3 1.3-.6 2.5-1 3.6s-.9 2.1-1.4 3c.4.5 1 1 1.6 1.4s1.2.8 1.9 1.1c-.3.2-.5.4-.8.8-.4-.3-1-.7-1.6-1.2s-1.2-1.1-1.6-1.6c-.5.6-1.1 1.1-1.7 1.6s-1.4.9-2.1 1.4c-.1-.3-.3-.5-.7-.8.6-.2 1.2-.5 1.9-1s1.4-1.1 2-1.8c-.5-.8-.9-1.6-1.2-2.5s-.6-2-.8-3.2c-.4.1-.7.1-1 .1zm2.5 2.7c.3 1 .7 1.7 1 2.2.3-.5.6-1.1 1-2s.6-1.9.9-3h-3.2-.4c.1.9.3 1.8.7 2.8z"/><path d="m396.5 388.5v1.5 3.6h1.5v.9c-.4 0-1 0-1.7 0h-7.9c-.5 0-.9 0-1.2 0v-.9h1.3v-3.5c0-.7 0-1.2 0-1.6h2.4c0-.8 0-1.4 0-1.7h1c0 .3-.1.8-.1 1.7h1.5c0-.8 0-1.4 0-1.7h1c0 .3-.1.9-.1 1.7zm-8.2 9.2c-.2-.3-.5-.5-.8-.8.8-.3 1.4-.6 1.9-.9s1-.7 1.4-1.1c.3.3.6.5.9.8-1.6 1-2.8 1.6-3.4 2zm2.6-6.8v-1.6h-1.5v1.6zm0 2.7v-1.9h-1.5v1.9zm2.4-2.7v-1.6h-1.5v1.6zm0 2.7v-1.9h-1.5v1.9zm.2 2 .7-.8c.4.2.9.5 1.6.8s1.3.7 1.8 1c-.3.3-.5.5-.8.8-.4-.3-1.5-1-3.3-1.8zm2-4.7v-1.6h-1.4v1.6zm0 2.7v-1.9h-1.4v1.9z"/></g></svg>