<svg enable-background="new 0 0 400 400" viewBox="0 0 400 400" xmlns="http://www.w3.org/2000/svg"><path d="m362.1 8.8c1.1.8 2.1 1.6 3.1 2.4l-1 1.1c-1.3-1.1-2.3-2-3-2.5zm1.9 4.8c.5.2.9.4 1.4.5-.6 2.3-1.3 4.5-1.9 6.8l-1.5-.5c.8-2.1 1.4-4.3 2-6.8zm-1-9.4c1.3.9 2.4 1.8 3.4 2.5l-1 1.1c-1.4-1.2-2.4-2.1-3.2-2.6zm3.7 2.2v-1.4h10.3v1.2c-.5 3.6-1.8 6.8-4 9.4 1.5 1.6 3.4 2.8 5.7 3.8-.3.4-.7.8-1.1 1.4-2.3-1.1-4.1-2.5-5.6-4.1-1.6 1.6-3.6 3.1-5.9 4.3-.3-.5-.7-.9-1-1.3 2.4-1.1 4.4-2.5 6-4.1-1.9-2.5-3-5.6-3.3-9.3h-1.1zm8.8 0h-6.4c.3 3.3 1.3 6 3 8.2 2-2.3 3.1-5.1 3.4-8.2z" fill="#fbfcfa"/><path d="m385.3 3.8h1.3v2.2h2.8v-2.2h1.3v2.2h4.1v9.1h1.7v1.3h-16.9v-1.3h1.7v-9.1h4.1v-2.2zm.4 13.1.7 1.2c-1.8.9-3.8 1.9-6 2.9-.2-.4-.5-.8-.8-1.3 2.3-1 4.3-1.9 6.1-2.8zm-3.1-6.4h2.8v-3.2h-2.8zm0 4.6h2.8v-3.3h-2.8zm4-4.6h2.8v-3.2h-2.8zm0 4.6h2.8v-3.3h-2.8zm3.7 1.9c2.1.9 4.1 1.8 6.1 2.7l-.7 1.3c-2.2-1.1-4.2-2-6.1-2.9zm3.2-9.7h-2.8v3.2h2.8zm-2.8 7.8h2.8v-3.3h-2.8z" fill="#fbfcfa"/><g fill="#010106"><path d="m99.4 272.9c30.29-5.1 60.58-10.19 90.94-15.3.58-24.07 1.16-47.77 1.74-71.69-10.16-2.76-20.05-5.46-29.94-8.14-6.26-1.69-12.52-3.36-18.78-5.04-3.04-.81-6.98 1.36-7.05 4.42-.07 3.12.05 6.28 2.73 8.93 9.5 9.37 20.69 16.34 31.91 23.32 2.98 1.85 5.94 3.73 8.74 5.9-19.49-.42-36.23-7.85-51.39-19.93-2.86 4.09-4.09 8.17-2.19 12.75 2.04 4.92 4.84 9 9.78 11.84 13.66 7.84 27.05 16.15 40.55 24.27-.06.37-.12.74-.17 1.1-5.3-.58-10.77-.53-15.86-1.88-9.48-2.52-18.75-5.86-28.1-8.89-.62-.2-1.23-.57-1.71-1.01-8.24-7.59-15.2-16.13-19.1-26.8-3.8-10.39-1.42-20.24 2.82-29.92 1.44-3.27 3.44-5.79 6.55-7.72 3.59-2.23 6.82-5.05 10.19-7.64 8.74-6.7 11.03-15.63 8.84-26.02-.97-4.59-1.97-9.18-3.28-13.68-.57-1.96-1.69-3.89-3.01-5.47-5.71-6.83-11.59-13.52-17.19-20.52 12.93 5.08 26 9.87 34.31 22.06 2.44 3.58 3.86 7.38 3.49 11.92-.62 7.58-.49 15.23-1.29 22.79-.58 5.51 1.47 9.7 5.61 12.44 6.2 4.11 12.79 7.72 19.46 11.05 3.64 1.82 7.78 2.62 12.12 4.02 2.12-6.72 4.09-12.94 6.4-20.24.63 1.99.99 3.03 1.29 4.09 1.53 5.37 3.09 10.74 4.53 16.13.7 2.62 2.43 3.59 4.77 2.84 8.13-2.6 15.57-6.26 21.68-12.63 6.13-6.39 7.7-13.16 5.02-21.53-2.96-9.24 1.51-16.89 6.71-23.88 7.92-10.63 18.46-17.42 31.7-19.65 1.42-.24 2.87-.27 5.34-.5-1.43 1.43-2.21 2.23-3.02 3.02-6.01 5.86-12.09 11.65-18.01 17.6-6.4 6.43-9.18 14.12-7.64 23.24.46 2.73 1.45 4.84 3.56 6.85 8.91 8.48 17.52 17.28 26.35 25.85 10.47 10.16 10.93 22.13 7.41 35.35-2.51 9.44-7.59 15.68-16.7 19.61-13.19 5.7-26.45 10.41-41.03 9.64-4.55-.24-9.07-1.1-13.66-2.38 1.09-.42 2.17-.89 3.28-1.25 10.53-3.4 21.09-6.71 31.58-10.23 2.16-.72 4.3-1.88 6.05-3.32 4.58-3.76 9.12-7.6 13.32-11.76 4.19-4.15 5.36-9.62 5.47-15.57-6.57-1.02-12.68.01-18.39 2.83-4.2 2.06-8.15 4.64-12.15 7.09-8.21 5.04-16.81 6.02-26.25 2.86 5.7-2.26 11.21-4.06 16.36-6.59 5.19-2.55 10.25-5.52 14.97-8.86 5.31-3.77 8.85-9.05 10.94-15.32.64-1.93.16-2.85-1.45-3.76-5.6-3.17-11.49-3.35-17.56-1.9-1.3.31-2.61.69-3.83 1.24-10.72 4.78-21.69 8.34-34.19 7.01 1.05 24.59 2.07 48.8 3.12 73.42 29.57 3.49 59.07 6.96 88.56 10.44.03.13.05.26.08.39-.77.19-1.53.48-2.32.55-26.86 2.31-53.72 4.65-80.59 6.81-2.97.24-3.7 2.11-4.53 4.12-2.92 7.15-4.03 14.72-3.89 22.34.21 12.08 1.03 24.14 1.4 36.22.27 8.75-.01 17.5-3.08 25.84-1.04 2.84-2.73 5.45-4.13 8.16-.33-.1-.66-.2-.99-.3-.67-8.41-1.35-16.82-2.01-25.23-1.82-23.32-3.65-46.64-5.38-69.97-.17-2.27-1.3-2.35-3.05-2.4-28.4-.9-56.79-1.84-85.18-2.78-.56-.02-1.11-.09-1.67-.14.02-.16.06-.33.09-.51z"/><path d="m240.03 29.68c-2.42 11.81-4.85 23.62-7.35 35.8 15.11 4.52 30.02 8.99 44.94 13.45-.01.23-.02.45-.03.68-5.74.58-11.48 1.18-17.22 1.72-10.13.96-20.27 1.96-30.41 2.77-2.23.18-2.67 1.54-3.3 3.13-5.9 14.97-11.38 30.14-17.96 44.81-3.09 6.9-8.31 12.86-13.09 20.03-.88-1.88-1.35-2.79-1.75-3.73-8.54-19.81-17.11-39.61-25.56-59.46-1.01-2.37-2.26-3.28-4.89-3.52-18.27-1.68-36.52-3.57-54.77-5.42-.39-.04-.76-.26-1.12-.93 17.54-2.97 35.08-5.94 53.05-8.98-2.95-14.68-5.84-29.09-8.73-43.5.14-.06.28-.12.42-.19.62.88 1.28 1.75 1.86 2.66 7.96 12.44 15.94 24.86 23.83 37.35 1.08 1.7 2.22 2.39 4.28 2.36 9.07-.12 18.14-.12 27.2 0 2.15.03 3.42-.61 4.63-2.4 7.79-11.48 15.7-22.88 23.58-34.3.62-.9 1.3-1.77 1.95-2.65.15.1.3.21.44.32zm-43.21 83.2c1.96-1.23 4.26-1.85 4.9-3.23 2.42-5.24 4.44-10.68 6.31-16.16.92-2.69.36-5.47-2.24-7.15-2.73-1.75-5.61-2.62-8.7-.43-2 1.41-4.3 2.39-6.31 3.79-.68.48-1.42 1.84-1.21 2.49 2.21 6.67 4.61 13.26 7.25 20.69z"/></g></svg>