<svg enable-background="new 0 0 400 400" viewBox="0 0 400 400" xmlns="http://www.w3.org/2000/svg"><path d="m180.97 251.47c-5.12 1.55-10.39 2.74-15.34 4.71-10.57 4.22-21.27 3.5-32.04 1.53-3.83-.7-7.58-1.87-11.38-2.79-7.27-1.77-10.91-6.96-13.71-13.49-3.66-8.54-3.08-17.06-1.91-25.94.93-7.04 3.14-13.33 6.69-19.39 4.46-7.62 8.38-15.55 12.81-23.19 2.15-3.72 3.51-7.45 2.93-11.74-.28-2.11.62-3.46 2.2-4.85 9.56-8.38 11.69-19.32 10.21-31.29-.28-2.23-1.61-4.33-2.91-7.65 4.13 1.83 7.91 2.79 10.79 4.95 3.53 2.65 6.39 6.23 9.37 9.56 2.06 2.3 2.82 5.16 1.81 8.15-2.34 6.97-4.56 14.01-7.38 20.79-1.3 3.12-.49 4.43 2.11 5.68 7.15 3.45 14.8 3.09 22.38 2.72 1.06-.05 2.67-1.95 2.91-3.21 1.07-5.67 1.72-11.42 2.57-17.13.47-3.18-.66-5.29-3.75-6.47-4.05-1.55-6.48-4.66-8.58-8.43-9.3-16.71-18.72-33.35-28.4-49.84-2.34-3.98-5.82-7.29-8.82-10.88-2.75-3.3-5.54-6.56-8.58-10.15 4.84-2.07 8.79-1.68 12.62-.19 5.72 2.23 11.37 4.65 17.01 7.09.98.42 1.82 1.26 2.58 2.04 9.27 9.57 14.31 21.47 18.6 33.8 1.17 3.37 2.27 6.8 3.82 10.01.95 1.98 2.68 3.59 4.45 5.88 2.01-4.64 3.6-8.45 5.29-12.21 4.53-10.09 9.81-19.9 13.45-30.3 4.16-11.87 6.18-24.28 2.63-36.9-1.15-4.08-2.83-7.7-6.76-9.92-2.69-1.53-3.75-3.99-3.3-7.39 9.69 3.11 19.48 5.56 27.62 11.77 7.12 5.44 8.56 13.31 8.2 21.6-.21 4.9-1.05 9.78-1.75 14.65-.29 1.98.29 3 2.16 3.82 14.48 6.36 27.95 14.52 40.99 23.42 5.77 3.94 11.35 8.09 14.6 14.49.7 1.38 1.3 3.7.62 4.7-1.42 2.11-3.97 2.89-6.57 1.87-1.22-.48-2.41-1.23-3.38-2.12-6.05-5.48-12.96-9.47-20.49-12.55-8.48-3.47-16.8-7.34-25.37-10.56-3.66-1.37-7.75-1.73-11.69-2.11-1.03-.1-2.65 1.21-3.26 2.29-5.11 9.17-10.05 18.44-15.19 27.95 7.27 3.44 14.36 6.97 21.6 10.18 13.06 5.8 25.15 13.16 36.21 22.21 8.35 6.83 15.77 14.06 19.68 24.77 4.13 11.31 8.25 22.47 8.47 34.62.14 7.75-1.67 15.24-5.86 21.73-2.18 3.37-5.56 6.06-8.7 8.7-13.56 11.38-30.04 15.78-46.8 19.7-5.8 1.36-10.68-.02-15.75-2.18-4.33-1.85-5.76-.86-6.15 3.93-.36 4.45.69 6.35 4.7 6.93 7.2 1.04 12.95 4.9 18.35 9.24 6.01 4.83 11.61 10.18 17.37 15.32.66.59 1.28 1.27 1.79 2 2.16 3.09 2.13 7.64-.02 9.56-2.6 2.33-7.52 2.07-10.5-.32-5.22-4.2-10.44-8.43-15.87-12.35-4.18-3.02-9.03-4.3-14.26-4.06-1.9.09-3.18.55-3.51 2.69-1.51 9.93-3.68 19.8-4.5 29.78-.91 11.02-.51 22.14-.89 33.22-.11 3.09-.71 6.22-1.58 9.19-.47 1.59-1.73 3.2-3.07 4.23-2.9 2.23-5.11 1.76-6.01-1.77-1.89-7.44-3.88-14.96-4.58-22.56-1.57-17.15-2.34-34.38-3.59-51.56-.08-1.12-1.2-2.83-2.16-3.1-5.46-1.54-11.03-2.69-16.54-4.05-3.35-.82-6.83-1.4-9.93-2.8-2.13-.96-3.71-3.15-5.53-4.78.16-.34.32-.68.48-1.02 6.23-1.58 12.47-3.17 18.7-4.74 5.09-1.28 10.21-2.47 15.27-3.89.9-.25 2.16-1.43 2.18-2.22.22-6.38.14-12.74.14-19.38zm-50.05-41.05c-4.85 6.16-9.27 12.26-11.21 19.85-1.41 5.49.41 10.18 5.64 12.3 18.16 7.37 34.96 3.74 50.93-6.51 3.49-2.24 5.45-4.94 4.69-9.34-.37-2.17-.3-4.5-.01-6.7.46-3.5-1.45-4.75-4.36-4.82-4.46-.11-8.94.01-13.4.2-4.91.2-9.81.65-14.72.88-6.48.31-11.68-3.35-17.56-5.86zm131.43-24.7c-1.87 7.33-3.5 14.04-5.34 20.69-.42 1.52-1.3 3.1-2.41 4.21-6.23 6.26-12.79 12.2-18.84 18.63-5.1 5.42-10.83 9.47-17.96 11.68-3.61 1.12-7 2.96-10.6 4.15-2.34.77-2.26 2.28-1.65 3.91.67 1.78-.58 4.95 3.21 4.72 4.01-.24 8.05-.19 12.06-.48 11.58-.82 22.09-4.48 30.87-12.29 4.92-4.38 9.81-8.83 14.33-13.62 1.78-1.89 3.2-4.67 3.56-7.22.72-5.17.97-10.47.73-15.69-.31-6.83-2.75-13.01-7.96-18.69zm-58.19 5.68c.35.3.7.61 1.04.91 2.85-2.34 6.5-4.17 8.4-7.12 5.76-8.96 12.45-17.46 15.5-27.97.52-1.81.21-2.56-1.33-3.41-6.14-3.43-12.22-6.97-18.32-10.47-4.82-2.76-9.65-5.51-14.94-8.54 3.28 19.24 6.46 37.92 9.65 56.6zm.98 34.9c9.41-1 16.32-5.84 21.81-12.83 6.42-8.18 12.81-16.4 18.79-24.9 3.9-5.55 5.26-11.89 2.74-19.83-3.1 3.67-5.64 6.68-8.2 9.69-3.96 4.65-7.39 9.92-12 13.8-6.9 5.81-14.64 10.61-21.97 15.91-.93.67-1.96 1.71-2.19 2.74-1.11 5.09-1 10.18 1.02 15.42zm-26.14-40.81c-9.43-1.96-18.68-4.02-27.99-5.77-7.11-1.34-4.94-2.53-8.78 4.1-1.34 2.32-2.75 4.62-3.77 7.08-.88 2.13-1.36 4.44-1.8 6.72-.39 2.04.3 3.44 2.71 3.58 4.56.27 9.14 1.13 13.66.89 7.66-.4 15.29-1.43 22.93-2.26 2.88-.31 4.26-1.75 3.75-4.92-.47-2.95-.47-5.99-.71-9.42z" fill="#010105"/><g fill="#fcfbfa"><path d="m377.9 391.2c-.2.3-.4.5-.6.8-.7-.6-1.4-1-2.2-1.5.2-.3.4-.5.5-.8.6.4 1.4.8 2.3 1.5zm-1.8 6.1c-.2-.2-.5-.4-.9-.6.4-.6.8-1.2 1.2-1.9s.7-1.3.9-1.9c.3.3.5.5.8.7-.7 1.3-1.4 2.6-2 3.7zm2.2-9c-.3.3-.5.5-.6.8-.6-.6-1.3-1.1-2-1.5.3-.3.5-.5.6-.7.6.5 1.3.9 2 1.4zm.3.2v-.9h2 4.5c-.3 1.3-.6 2.5-1 3.6s-.9 2.1-1.4 3c.4.5 1 1 1.6 1.4s1.2.8 1.9 1.1c-.3.2-.5.4-.8.8-.4-.3-1-.7-1.6-1.2s-1.2-1.1-1.6-1.6c-.5.6-1.1 1.1-1.7 1.6s-1.4.9-2.1 1.4c-.1-.3-.3-.5-.7-.8.6-.2 1.2-.5 1.9-1s1.4-1.1 2-1.8c-.5-.8-.9-1.6-1.2-2.5s-.6-2-.8-3.2c-.4.1-.7.1-1 .1zm2.5 2.7c.3 1 .7 1.7 1 2.2.3-.5.6-1.1 1-2s.6-1.9.9-3h-3.2-.4c.1.9.3 1.8.7 2.8z"/><path d="m396.5 388.5v1.5 3.6h1.5v.9c-.4 0-1 0-1.7 0h-7.9c-.5 0-.9 0-1.2 0v-.9h1.3v-3.5c0-.7 0-1.2 0-1.6h2.4c0-.8 0-1.4 0-1.7h1c0 .3-.1.8-.1 1.7h1.5c0-.8 0-1.4 0-1.7h1c0 .3-.1.9-.1 1.7zm-8.2 9.2c-.2-.3-.5-.5-.8-.8.8-.3 1.4-.6 1.9-.9s1-.7 1.4-1.1c.3.3.6.5.9.8-1.6 1-2.8 1.6-3.4 2zm2.6-6.8v-1.6h-1.5v1.6zm0 2.7v-1.9h-1.5v1.9zm2.4-2.7v-1.6h-1.5v1.6zm0 2.7v-1.9h-1.5v1.9zm.2 2 .7-.8c.4.2.9.5 1.6.8s1.3.7 1.8 1c-.3.3-.5.5-.8.8-.4-.3-1.5-1-3.3-1.8zm2-4.7v-1.6h-1.4v1.6zm0 2.7v-1.9h-1.4v1.9z"/></g></svg>