<svg enable-background="new 0 0 400 400" viewBox="0 0 400 400" xmlns="http://www.w3.org/2000/svg"><path d="m214.8 323.92c-.54 4.46-.95 8.2-1.48 11.92-.17 1.17-.34 2.67-1.1 3.37-3.13 2.9-5.03 5.96-2.09 10.61-4.99.29-9.38.54-14.53.84 2.67-3.56 1.34-6.65.24-9.95-.59-1.76-.29-4.01.19-5.89 1.42-5.52 3.04-10.99 4.82-16.4.43-1.31 1.61-2.54 2.75-3.4 2.29-1.73 3.98-3.75 3.7-6.71-.38-3.99-.6-8.1-1.77-11.88-.68-2.19-3.1-3.84-4.64-5.63.9-.37 2.83-1.05 2.8-1.17-.72-2.57-1.66-5.08-2.8-8.26-1.38 1.96-2.14 3.04-3.27 4.64-1.4-3.56-2.63-6.69-3.85-9.82-1.75-4.47-3.39-9-5.3-13.4-1.04-2.4-1.42-4.41 1.41-6.06-2.86-4.05-.86-10.75-7.79-12.54-1.43 2.03-2.96 4.18-4.74 6.7-1.44-4.18-4.03-5.42-7.98-4.45-1.41.35-3.17-.03-4.6-.55-6.4-2.33-12.77-4.78-19.08-7.34-1.03-.42-1.71-1.68-2.62-2.47-1.4-1.23-2.86-2.39-4.95-4.12 1.04-5.7 1.55-12.63 3.79-18.94 1.12-3.14 2.77-6.01 3.08-9.51.08-.96 1.95-1.75 3.41-2.15.1-.19.31-.4.3-.58-.39-5.61 2.03-10.05 5.43-14.29 3.43-4.26 6.46-8.84 9.91-13.62-3.53-2.7-5.41-7.54-11.13-6.88-.71.08-2.03-1.51-2.35-2.54-.71-2.28-1.66-3.81-4.35-3.55-2.12.21-2.99-1.17-3.36-2.96-.51-2.52-1.7-3.82-4.41-2.69-1.82.76-2.82-.12-3.8-1.63-2.59-4.01-3.7-8.37-3.44-13.07.39-7.11.02-14.07-3.76-20.28 5.17-5.74 5.37-9.89.11-12.96 7.44-1.69 8.73-7.61 10.41-13.34.48-1.62 1.59-3.06 2.65-5.03 8.25 7.37 16.05 14.34 24.18 21.6 1.57-1.37 3.31-2.58 4.65-4.13 1.82-2.12 1.38-4.24-.95-5.71-3.7-2.35-4.79-5.84-4.08-9.88.98-5.57 1.46-11.08-.06-16.62-.17-.61-.17-1.41.09-1.97 3.29-6.99 2.68-14.4 2.47-21.78-.03-1.01-.05-2.01-.03-3.02.14-7.13 3.61-10.26 10.73-10.23 3.67.02 4.58 2.74 5.84 5.11 1.13 2.14.19 3.87-1.34 5.72-1.54 1.87-2.36 4.32-3.5 6.52 2.36.73 4.7 1.94 7.1 2.08 3.43.2 6.91-.6 10.37-.56 3.05.03 6.09.67 9.15.92 1.24.1 2.57.06 3.74-.3 1.35-.42 2.56-1.27 4.28-2.16.55 2.45 1.02 4.55 1.6 7.13 1.59-.64 2.94-1.18 4.76-1.92-1.19-1.09-2.03-1.85-3.2-2.91 4.25-.55 5.06-2.79 3.78-6.22-.3-.81-.31-1.77-.28-2.66.1-3.07.68-5.82-2.07-8.66-2.68-2.76-1.15-7.78 2.1-9.99 1.79-1.22 3.76-2.99 5.67-3.02 3.15-.05 5.27 2.23 5.73 5.53.21 1.54.36 3.16.13 4.68-.42 2.83.33 5.03 2.68 6.66 1.71 1.18 1.95 2.67 1.4 4.64-.95 3.4-1.1 7.16-5.43 8.75 1.74 2.41 3.23 4.48 4.73 6.56-.3.32-.49.61-.75.78-4.51 3.05-3.97 2.96-3.1 8.29.57 3.53-.21 7.5-1.3 11-.97 3.12-3.18 5.85-4.55 8.25.94 1.35 2.35 2.49 2.2 3.37-.2 1.23-1.36 2.56-2.46 3.32-1.82 1.26-4 1.99-5.91 3.15-1.99 1.21-3.71 1.76-5.7-.11-.46-.44-2.06-.21-2.79.26-2.62 1.7-5.42 3.32-7.54 5.55-2.29 2.41-3.88 5.48-5.9 8.45 2.87 1.93 4.75 3.68 7.32.93.54-.57 2.41-.57 3.22-.08 2.85 1.7 5.26 1.47 7.56-.84.24-.24.56-.39.78-.64 4.53-5.1 10.02-7.45 16.94-6.4 1.2.18 3.03-.5 3.81-1.42 3.84-4.56 8.67-5.74 14.33-5.14 2.76.29 5.58.05 7.64.05 1.74 3.58 3.27 6.74 4.87 10.02-3.98 2.98-6.12 10.37-3.83 15.54.88 2 .8 3.52-.11 5.58-.75 1.69-.58 4.12-.02 5.98 1.03 3.42 1.5 6.4-.24 9.93-1.02 2.06-.19 5.03-.19 7.47-6.31 2.83-12.7 6.44-19.55 8.52-5.12 1.55-10.85 1.01-16.29 1.59-4.09.44-8.17 1.04-12.2 1.85-1.46.29-2.86 1.25-4.11 2.15-2.24 1.62-2.73 3.29-1.29 6.21 3.86 7.78 10.65 12.88 16.35 18.96 2.23 2.38 3.79 4.83 4.56 7.95.82 3.36 2.01 6.64 2.76 10.01.48 2.12 1.54 3.1 3.64 3.09 2.36-.01 3.55 1.17 4.15 3.47.89 3.44 3.65 7.31 2.75 10.05-.9 2.75-5.54 4.09-8.15 6.48-5.88 5.39-13.7 4.99-20.61 7.27-.7.23-1.71-.36-2.55-.64-2.09-.7-4.17-1.45-6.28-2.19-3.17 5.11-2.78 10.47-2.29 15.83.37 4.01.82 8.01 1.26 12.01.08.76.13 1.6.49 2.25 3.29 6 6.65 11.96 9.98 17.93-.27.23-.55.45-.82.68h5.5c.13.91.43 1.68.32 2.38-.75 4.74 1.76 7.86 4.39 11.57 6.19 8.74 15.44 9.31 24.5 11.05 4.36.84 8.92 1.58 12.85 3.49 2.99 1.45 5.24 4.57 7.54 7.2.43.49-.08 2.68-.79 3.17-3.67 2.52-7.54 4.74-11.71 7.29-.68-4.38-3.38-4.22-6.48-3.33-.95.28-1.99.26-2.99.41-2.64.4-4.26 3.93-2.59 5.98 5.63 6.9 11.35 13.72 17.19 20.75.77-.48 1.88-1.17 3.34-2.07 1.6 3.37 3.15 6.63 4.89 10.31-3.77 2.52-7.43 4.97-11.44 7.65-.77-1.58-1.22-3.08-2.11-4.25-3.25-4.23-6.03-9.13-10.11-12.34-10.46-8.23-19.02-17.85-25.36-29.52-.74-1.43-1.76-2.73-3.07-4.68zm-38.41-138.74c-3.4 5.32-9.33 8.35-7.85 15.37-.8.14-1.22.27-1.65.29-4.96.26-4.96.31-4.1 5.3.16.92.2 2.37-.34 2.83-3.75 3.21-1.74 6.78-.66 10.12 1.33 4.09 3.71 5.29 7.99 4.87 2.99-.3 5.99-.52 9-.64 2.7-.11 5.41-.02 8.73-.02-3.85-12.96-2.97-26.47-11.12-38.12zm7.96-97.73c2.82-.35 5.11-1.36 6.62-.66 2.69 1.24 4.22.88 5.27-1.69 1.17-2.87 3.38-4.16 6.24-4.93 3.88-1.04 7.7-2.29 11.48-3.64.82-.29 1.84-1.38 1.91-2.18.28-3.26-3.69-6.83-8.08-7.75-3.97-.83-2.91 2.68-3.94 4.38-.11.19-.13.43-.24.62-1.09 1.9-2.23 3.14-4.29.9-.56-.62-1.74-1.19-2.48-1.04-5.21 1.06-10.38 2.31-15.64 3.52.06 4.89-.25 9.53 3.15 12.47zm52.43 58.28c.52-.19.74-.23.92-.33 2.29-1.39 4.58-2.78 6.87-4.18 3.53-2.16 4.27-6.18 1.71-9.5-.54-.7-1.26-1.26-1.93-1.84-2.02-1.75-1.97-3.91.2-5.46 1.14-.82 2.34-1.55 3.54-2.34-3.78-4.38-3.78-4.38-8.23-1.68-2 1.22-4.12 2.29-5.96 3.72-.78.6-1.67 2.29-1.36 2.86 1.58 2.9.12 4.49-2.23 5.87 2.2 4.4 4.34 8.66 6.47 12.88zm-22.83 72.4c-2.8-.61-3.33-1.07-3.97-3.98-.91-4.13-1.61-8.31-2.63-12.41-1.23-4.98-4.53-8.18-9.67-10.42.77 7.84 2.05 15.14 2.01 22.44-.04 5.78 2.97 8.04 7.47 9.72 4.29 1.59 7.22-.72 6.79-5.35zm-63.54-101.91c-1.95 1.42-3.69 2.82-5.55 4.01-1.61 1.03-2.18 2.09-1.61 4.12 1.05 3.75 1.76 7.61 2.5 11.44.43 2.21.99 3.74 3.78 4.17 2.73.42 3.85-.61 4.85-2.73.71-1.5 1.65-2.89 2.88-5.01-.89-.45-1.88-.94-3.02-1.51 1.93-1.64 3.33-2.82 4.82-4.09-2.97-3.58-5.74-6.91-8.65-10.4zm54.95 35.53c4.42-1.62 8.15-2.98 11.65-4.25.39-3.11.97-6.4 1.14-9.71.08-1.48-.66-3-1.02-4.51-1.25.45-2.75.6-3.71 1.39-4.56 3.79-8.93 7.88-15.63 6.53-.1-.02-.26.28-.55.62 2.85 3.49 5.73 7 8.12 9.93zm-34.65 4.03c.47.1.94.2 1.42.29 2.13-1.95 4.28-3.88 6.38-5.86 2.42-2.28 2.47-3.94-.12-6.01-1.77-1.41-2.05-2.83-1.35-4.9.87-2.56 1.43-5.24 2.33-8.65-3.98 2.8-7.23 5.1-10.62 7.48.52.94.81 1.83 1.39 2.43 2.41 2.47 1.75 4.89.71 7.84-.78 2.2-.14 4.91-.14 7.38zm10.4-47.15c-.78-.68-1.51-1.35-2.28-1.96-.75-.59-1.55-1.11-2.34-1.67-2.99 5.34-2.92 5.61 2.19 8.51.79-1.59 1.57-3.16 2.43-4.88zm36.53 39.42c3.27-.21 3.39-2.75 4.37-4.35.24-.39-.58-1.42-1.2-2.81-1.25 2.83-2.12 4.79-3.17 7.16z" fill="#010100"/><g fill="#fcfafa"><path d="m342.2 3.2-6.3 9.2h6.1v1.2h-8.2v-.5l6.2-9.1h-5.7v-1.2h7.8v.4z"/><path d="m344 13.7v-10.9h3.1c1.6 0 3 .5 4.1 1.4 1.1 1 1.6 2.2 1.6 3.9s-.5 3-1.6 4-2.5 1.5-4.2 1.5h-3zm1.4-9.6v8.4h1.6c1.4 0 2.5-.4 3.2-1.1.8-.8 1.2-1.8 1.2-3.2s-.4-2.4-1.2-3.1-1.8-1-3.1-1z"/><path d="m356.3 2.8v10.9h-1.4v-10.9z"/><path d="m366.6 13.2c-.8.4-1.8.6-3 .6-1.6 0-2.8-.5-3.7-1.5s-1.4-2.3-1.4-3.9c0-1.7.5-3.2 1.6-4.2s2.4-1.6 4-1.6c1 0 1.9.1 2.6.4v1.5c-.8-.4-1.6-.6-2.6-.6-1.2 0-2.2.4-3 1.2s-1.1 1.9-1.1 3.3c0 1.3.4 2.3 1.1 3.1s1.6 1.1 2.8 1.1c1.1 0 2-.2 2.8-.7v1.3z"/><path d="m368.2 13c0-.3.1-.5.3-.6.2-.2.4-.3.6-.3.3 0 .5.1.7.3s.3.4.3.6-.1.5-.3.6c-.2.2-.4.3-.7.3s-.5-.1-.6-.3c-.2-.2-.3-.4-.3-.6z"/><path d="m381.1 13.7h-1.7l-5.5-8.4c-.2-.2-.3-.5-.4-.7 0 .2.1.8.1 1.5v7.6h-1.4v-10.9h1.8l5.3 8.3c.3.4.4.6.4.8 0-.3-.1-.8-.1-1.6v-7.5h1.4v10.9z"/><path d="m389.7 13.7h-5.8v-10.9h5.6v1.2h-4.2v3.5h3.9v1.2h-3.9v3.7h4.4z"/><path d="m398.4 4.1h-3.1v9.6h-1.4v-9.6h-3.1v-1.3h7.7v1.3z"/></g></svg>