<svg enable-background="new 0 0 400 400" viewBox="0 0 400 400" xmlns="http://www.w3.org/2000/svg"><path d="m146.81 165.48c-10.22-.04-16.99-5.94-23.77-11.88-3.57-3.12-3.63-7.54-4.4-11.64-1.4-7.35-2.63-14.73-3.75-22.12-.36-2.41-.22-4.9-.2-7.35.04-3.7-1.17-5.27-4.78-6.11-8.93-2.09-17.76-1.24-26.56.85-8.27 1.96-16.65 3.51-24.79 5.9-4.99 1.46-9.62 4.13-14.4 6.29-1.53.69-2.77 1.56-4.33-.33-.76-.92-2.63-.99-4.03-1.3-5.48-1.2-8.18-4.08-8.41-9.67-.11-2.65.18-5.37.75-7.97.23-1.06 1.52-2.09 2.57-2.74 11.68-7.31 24.81-10.36 38.05-13.37 13.4-3.05 26.85-2.97 40.36-2.09 3.56.23 5.46-.43 6.33-4.26 1.92-8.49 4.31-16.87 6.49-25.3 1.52-5.87 5.12-10.09 10.29-13.05 5.18-2.95 11.35-.78 12.52 5.13.83 4.22.31 8.86-.34 13.2-1.04 7.01-2.13 13.93-.27 20.95 1.45 5.49 4.01 7.52 9.47 6.36 7.65-1.62 15.1-1.08 22.57.76 1.3.32 2.64.51 3.98.63 8.37.7 12.59-1.62 15.21-9.55 1.99-6.01 3.08-12.32 4.48-18.52 1.15-5.1 3.08-9.76 6.06-12.77 4.77 1.26 8.92 2.2 12.96 3.48 1.8.57 4.17 1.43 4.9 2.87 2.36 4.64 4.23 9.36 1.15 14.79-3.32 5.84-1.06 12.02.49 17.94.24.93 2.02 1.61 3.22 2.13 9.72 4.18 20.09 5.12 30.46 6.03 8.04.71 16.08 1.55 23.49 5 3.35 1.56 6.35 3.85 9.51 5.81-.14.36-.28.72-.42 1.07-5.84.5-11.68.96-17.52 1.5-14.82 1.36-29.63 2.65-44.51.78-1.5-.19-3.13-.49-3.63 1.8-1.9 8.66-7.57 15.32-11.95 22.69-3.41 5.74-6.29 11.82-9.1 17.89-1.17 2.52-2.47 4.37-5.34 4.83-10.49 1.71-16.37 10.34-23.91 16.36-3.69 2.95-2.16 7.6 2.34 9.11 4.14 1.38 8.32 2.64 12.39 4.2 2.42.92 4.65 2.32 7.59 3.83 5.33-3.7 11.92-.42 18.34-.69 1-.04 2.27.45 2.96 0 3.92-2.56 8-1.37 12.03-.75 2.15.33 3.2-.45 4.14-2.31 2.94-5.78 5.92-11.55 9.23-17.12.79-1.33 3.13-2.88 4.35-2.6 5.17 1.21 10.2 3.03 15.23 4.77.55.19.96 1.2 1.18 1.91 2.52 7.98 5.33 15.89 7.4 23.99 2.71 10.55-.66 20.45-6.09 29.11-2.57 4.11-7.78 7.17-13.37 8.07-.98.16-2.32.98-2.64 1.82-.85 2.24-2.33 3.1-4.54 3.04-2.59-.07-4.43 1.03-5.71 3.29-.36.63-1.05 1.32-1.72 1.5-9.25 2.53-18.4 5.72-27.81 7.22-9.34 1.49-18.95 1.29-28.45 1.75-5.29.26-7.92 2.54-8.17 7.97-.22 4.69-.07 9.4.17 14.09.05.98 1 2.19 1.87 2.8 4.52 3.17 9.68 2.78 14.87 2.6 13.85-.48 27.7-.88 41.56-1.07 8.05-.11 16.12-.03 24.15.48 13.38.86 26.74 2.1 40.11 3.24 20.84 1.77 41.68 3.49 62.5 5.47 3.25.31 6.49 1.63 9.53 2.95 3.1 1.34 3.15 3.64.56 5.91-6.79 5.97-15.14 7.91-23.72 9.25-19.04 2.96-38.15 5.5-57.45 3.35-16-1.78-31.95-3.99-47.88-6.33-13.39-1.97-26.71-4.38-40.35-3.72-6.12.3-12.27.15-18.4.15-4.14 0-7.09 2.28-7.64 6.41-1.3 9.87-2.43 19.75-3.68 29.63-.88 7-3.24 13.43-7.35 19.22-1.35 1.91-2.42 4.02-3.58 6.06-2.28 3.99-6.89 4.29-9.79.72-6.18-7.62-7.47-16.81-8.38-26.1-.84-8.57-1.53-17.15-2.36-25.71-.46-4.77-1.22-7.81-8.04-6.72-18.87 3.01-37.91 5.12-56.62 8.87-9.61 1.93-18.63 6.72-28 9.97-4.84 1.68-9.82 3.05-14.84 4.11-6.59 1.39-9.63-1.93-9.44-8.71.23-8.12 5.11-13.6 9.89-19.21.64-.76 1.93-1.03 2.97-1.37 10.07-3.33 20.05-7.07 30.28-9.79 6.52-1.74 13.43-2.39 20.2-2.79 15.62-.92 31.27-1.42 46.91-2.01 4.02-.15 6.19-1.49 7.3-5.43 1.68-5.92.87-11.78-1.21-17.43-.35-.96-1.93-1.96-3.04-2.08-6.99-.78-13.99-1.57-21.01-1.88-7.37-.33-14.78-.3-22.16-.12-4.13.1-7.16-1.52-9.47-4.69-9.39-12.9-15.89-26.92-16.61-43.16-.15-3.47-.04-6.98-.61-10.38-1.27-7.67 1.68-14.2 5.15-20.58 2.83-5.2 9.04-4.96 12.2.83 5.59 10.26 14.4 12.67 25.02 11.21 10.41-1.44 20.81-3 31.18-4.7 1.45-.24 3.15-1.29 3.98-2.48 2.85-4.07 3.74-8.74 3.65-13.99zm85.03 63.46c-.38-1.27-1.29-2.7-.91-3.24 3.34-4.73 2.91-10.2 3.33-15.5.51-6.41-.41-7.41-6.88-7.89-.89-.07-1.79-.06-2.68-.12-5.87-.43-11.74-.86-17.99-1.32-.76 3.45-4.17 4.32-7.68 4.82-2.54.36-5.13.31-7.68.54-5 .45-10 .88-14.98 1.55-.94.13-2.44 1.28-2.47 2.01-.24 5.68-.52 11.4-.11 17.06.32 4.5 1.58 5.14 6.06 5.01 1.23-.03 2.47.07 3.69-.02 11.78-.89 23.42-.55 34.72 3.46.83.3 2.06.26 2.81-.15 3.71-2 7.32-4.19 10.77-6.21zm-63.27-123.06c-.02-.21-.04-.42-.06-.63-4.67.4-9.37.54-13.99 1.26-5.39.84-5.35 1.05-5.76 6.51-.07.89-.23 1.78-.29 2.67-.32 4.9-.92 9.81-.85 14.7.07 4.97 1.85 9.01 7.38 10.58 3.52 1 6.82 2.77 10.21 4.2 6.69 2.8 12.75 2.07 18.04-3.17.55-.55 1.16-1.3 1.84-1.41 4.7-.8 4.74-4.52 5.23-8.01.18-1.33.47-2.64.61-3.97.57-5.65 1.57-11.31 1.53-16.96-.05-5.65-3.71-7.92-9.23-7.13-4.85.68-9.77.92-14.66 1.36zm-68.96 111.18c-.3.08-.6.16-.9.24 1.48 5.54 2.85 11.12 4.55 16.59.34 1.09 2.01 2.62 2.96 2.54 9.2-.77 18.41-1.66 27.55-2.95 2.11-.3 5.05-1.77 5.79-3.48 2.64-6.14 4.61-12.67 3.12-19.46-.35-1.59-2.22-3.75-3.7-4.05-10.77-2.13-21.57-1.15-32.22 1-7.44 1.51-7.65 2.2-7.15 9.57z" fill="#010000"/><g fill="#fbfcfa"><path d="m361.2 9.6.8-1c.9.7 1.9 1.4 2.9 2.3l-.9 1.1c-1-1-2-1.8-2.8-2.4zm.5 10.6c.9-2.1 1.6-4.3 2.3-6.7.4.2.8.4 1.3.6-.7 2.1-1.5 4.3-2.2 6.6zm.4-15.2.9-.9c1 .8 2 1.6 2.8 2.4l-1 1c-.9-.9-1.8-1.7-2.7-2.5zm12.5-1.2h1.2v1.4h2.7v1.1h-2.7v2.7h-1.2v-.6h-1.8v1.3h4.9v3.8h-1.2v-.5h-3.7c0 .4-.1.9-.1 1.2h5.1v1h-5.2c0 .5-.1.9-.2 1.2h6v1h-5.2c1.1 1.3 2.9 2 5.5 2.2-.4.4-.7.8-.9 1.3-2.9-.5-4.8-1.6-5.7-3.5h-.1c-.8 1.7-2.7 2.9-5.9 3.6-.2-.4-.6-.8-.9-1.1 2.8-.6 4.6-1.4 5.4-2.5h-4.8v-1h5.3c.1-.3.2-.7.2-1.2h-4.9v-1h5c0-.4 0-.8.1-1.2h-3.5v.5h-1.2v-3.8h4.9v-1.3h-1.8v.5h-1.2v-2.7h-2.7v-1h2.6v-1.4h1.2v1.4h4.7v-1.4zm-6.6 8.3h3.6c0-.4 0-.9 0-1.4h-3.6zm1.9-4.6h4.7v-1.3h-4.7zm6.6 3.2h-3.7v1.4h3.7z"/><path d="m385.3 3.8h1.3v2.2h2.8v-2.2h1.3v2.2h4.1v9.1h1.7v1.3h-16.9v-1.3h1.7v-9.1h4.1v-2.2zm.4 13.1.7 1.2c-1.8.9-3.8 1.9-6 2.9-.2-.4-.5-.8-.8-1.3 2.3-1 4.3-1.9 6.1-2.8zm-3.1-6.4h2.8v-3.2h-2.8zm0 4.6h2.8v-3.3h-2.8zm4-4.6h2.8v-3.2h-2.8zm0 4.6h2.8v-3.3h-2.8zm3.7 1.9c2.1.9 4.1 1.8 6.1 2.7l-.7 1.3c-2.2-1.1-4.2-2-6.1-2.9zm3.2-9.7h-2.8v3.2h2.8zm-2.8 7.8h2.8v-3.3h-2.8z"/></g></svg>