<svg enable-background="new 0 0 400 400" viewBox="0 0 400 400" xmlns="http://www.w3.org/2000/svg"><path d="m156.36 276.47c5.64-.54 11.28-1.21 16.93-1.58 6.42-.42 12.78-.97 18.09-5.08 1.09-.84 2.22-2.45 2.24-3.72.3-18.67.45-37.35.47-56.02 0-.83-1.53-2.39-2.33-2.38-4.55.03-9.12.2-13.63.76-6.95.86-8.65 2.48-9.67 9.54-.72 4.96-.87 10.01-1.16 15.03-.49 8.18-4.61 14.16-11.34 18.35-12.77 7.95-26.45 12.43-41.74 10.17-4.43-.66-7.76-2.73-10.27-6.62-4.03-6.27-7.5-12.7-8.8-20.13-1.71-9.74.64-18.67 5.67-26.96 5.96-9.83 10.93-20.09 12.72-31.51 1.1-7.02 1.32-14.17 1.97-21.7 2.46.45 5.36.96 8.26 1.51 1.87.35 3.71.99 5.59 1.1 4.72.28 8.21 2.19 10.48 6.49.55 1.04 2.18 2.11 3.33 2.12 11.85.15 23.69.09 35.07.09 2.16-3.73 1.87-6.06-.57-8.59-4.27-4.43-8.25-9.14-12.16-13.89-2.61-3.17-5.87-4.76-9.83-5.03-5.5-.38-9.07-2.91-10.85-8.33-2.37-7.22-5.29-14.25-7.66-21.46-.98-3-1.5-6.26-1.6-9.43-.15-4.8.07-9.63.46-14.42.5-6.2-1.25-11.7-4.49-16.85-2.18-3.48-3.74-7.09-3.2-11.37.24-1.93 1.18-3 3.02-2.63 2.68.55 5.44 1.13 7.9 2.26 6.88 3.17 12.01 8.6 16.63 14.34 3.34 4.15 6.37 4.85 11.59 3.22 8.17-2.55 16.76-3.85 25.25-5.26 6.76-1.12 12.46 1.74 17.81 6.35 4.74-7.44 8.93-14.91 7.79-23.98-1.05-8.42-.73-16.72.68-25.03 10.95 1.51 20.5 12.06 21.12 23.71.21 3.98-.24 8.04-.8 12.01-1.05 7.39-2.35 14.75-3.68 22.09-.35 1.92-.95 3.88-1.89 5.58-2.65 4.8-5.76 9.34-8.26 14.21-4.63 9.01-11.77 15.65-19.58 21.76-6.95 5.44-13.84 10.96-21.2 16.8 4.25 3.28 7.73 6.71 11.84 8.98 6.79 3.75 10.28 9.66 12.86 16.52 3.25 8.65 4.38 8.98 11.57 3.41 4.07-3.15 8.18-6.26 12.07-9.63 3.5-3.03 5.32-7.06 5.76-11.68-6.78-4.64-16.16-5.98-19.01-16.52 4.75.62 9.21.54 13.21 1.86 7.29 2.41 14.3 5.69 21.45 8.53 7.26 2.88 14.56 5.66 21.84 8.5.92.36 2.02.61 2.68 1.26 8.59 8.5 16.21 17.69 19.55 29.62 2.72 9.69.91 19.09-2.53 28.25-5.69 15.1-15.98 26.45-30.97 31.88-8.83 3.2-18.9 2.95-28.41 4.32-2.86.41-5.81.71-8.51 1.67-5.97 2.11-9.16 6.71-10.02 14.46 6.59 1.07 13.24 2.16 19.9 3.24.44.07.89.07 1.34.1 10.02.67 13.13 5.46 9.39 14.75-.48 1.18-1.68 2.48-2.85 2.9-7.03 2.52-14.15 4.79-21.24 7.14-.74.25-1.5.46-2.26.63-7.7 1.72-12.55 5.81-15.53 13.71-6.62 17.55-14.27 34.72-21.83 51.9-1.91 4.34-4.69 8.46-7.81 12.04-1.99 2.28-5.27 3.53-8.12 4.92-1.69.82-2.97-.22-2.71-2.09.37-2.62.85-5.28 1.75-7.75 5.26-14.6 10.86-29.09 15.9-43.77 1.8-5.23 2.38-10.89 3.48-16.36.72-3.59-.55-6.59-3.59-8.37-4.22-2.47-8.7-4.48-13.06-6.73-3.07-1.58-6.38-2.86-9.08-4.94-2.37-1.82-4.04-4.54-6.02-6.87.18-.46.39-.93.6-1.4zm101.59-111.33c4.6 3.46 8.48 6.38 12.36 9.31 1.83 1.38 2.13 2.92 1.28 5.18-2.82 7.53-5.3 15.18-8.06 22.74-.55 1.5-1.55 2.96-2.68 4.11-5.95 6.08-13.29 10.06-20.71 14.05-6.17 3.32-11.91 7.45-17.75 11.35-.64.43-1.15 1.93-.88 2.6.3.75 1.55 1.57 2.39 1.58 2.67.01 5.36-.23 8.02-.57 12.51-1.6 24.02-6.28 34.84-12.39 3.87-2.19 7.48-5.98 9.56-9.92 2.45-4.62 3.72-10.12 4.37-15.37.78-6.37 1.38-13.07.26-19.3-1.86-10.33-10.32-15.1-19.2-18.9-.43-.19-1.16-.14-1.56.11-4.71 2.95-10.21 5.18-13.88 9.12-6.19 6.62-12.67 12.54-20.74 16.67-1.39.71-2.81 1.46-3.99 2.45-.94.78-2.05 1.9-2.2 2.99-.64 4.74-1.41 9.53-1.27 14.28.18 6.49 2.32 7.58 8.14 4.78 11.04-5.3 19.53-13.66 27.24-22.94 1.91-2.3 2.96-4.79 3.06-7.9.12-4.24.81-8.46 1.4-14.03zm-138.32 40.69c-3.52 6.71-7.3 12.95-10.09 19.61-1.61 3.86-1.91 8.37-2.17 12.63-.09 1.41 1.56 3.95 2.82 4.26 11.34 2.73 21.98 1.61 30.88-6.9 3.23-3.09 6.59-6.05 9.69-9.27 4.07-4.23 7.95-8.67 12.44-13.59-2.15-.89-3.58-1.89-5.09-2.02-4.09-.36-8.24-.7-12.33-.41-5.4.38-10.65.47-15.84-1.4-3.23-1.18-6.63-1.9-10.31-2.91zm86.42-124.31c-.86-.13-1.1-.24-1.29-.18-15.71 5.14-31.41 10.29-47.1 15.5-.69.23-1.61 1.11-1.65 1.73-.24 4.23-.86 8.58-.14 12.68.43 2.44 2.91 6.24 4.75 6.41 7.09.65 14.38.36 20.61-4.04 4.11-2.9 8.27-5.76 12.17-8.94 5.77-4.7 9.12-11.18 12.05-17.83.67-1.52.41-3.45.6-5.33zm-77.94 113.22c1.03.07 1.89.16 2.75.18 7.48.19 14.96.36 22.44.54 11.78.29 23.45-.34 34.77-4 1.04-.34 2.69-1.28 2.68-1.93-.03-2.45-.16-5.11-1.14-7.29-1.1-2.46-3.65-2.3-6.16-1.81-5.91 1.15-11.85 2.22-17.82 3.02-10.02 1.35-18.76-3.07-27.69-6.52-3.42-1.32-6.17-.06-6.99 3.52-1.08 4.68-1.89 9.4-2.84 14.29z" fill="#010105"/><g fill="#fcfbfa"><path d="m377.9 391.2c-.2.3-.4.5-.6.8-.7-.6-1.4-1-2.2-1.5.2-.3.4-.5.5-.8.6.4 1.4.8 2.3 1.5zm-1.8 6.1c-.2-.2-.5-.4-.9-.6.4-.6.8-1.2 1.2-1.9s.7-1.3.9-1.9c.3.3.5.5.8.7-.7 1.3-1.4 2.6-2 3.7zm2.2-9c-.3.3-.5.5-.6.8-.6-.6-1.3-1.1-2-1.5.3-.3.5-.5.6-.7.6.5 1.3.9 2 1.4zm.3.2v-.9h2 4.5c-.3 1.3-.6 2.5-1 3.6s-.9 2.1-1.4 3c.4.5 1 1 1.6 1.4s1.2.8 1.9 1.1c-.3.2-.5.4-.8.8-.4-.3-1-.7-1.6-1.2s-1.2-1.1-1.6-1.6c-.5.6-1.1 1.1-1.7 1.6s-1.4.9-2.1 1.4c-.1-.3-.3-.5-.7-.8.6-.2 1.2-.5 1.9-1s1.4-1.1 2-1.8c-.5-.8-.9-1.6-1.2-2.5s-.6-2-.8-3.2c-.4.1-.7.1-1 .1zm2.5 2.7c.3 1 .7 1.7 1 2.2.3-.5.6-1.1 1-2s.6-1.9.9-3h-3.2-.4c.1.9.3 1.8.7 2.8z"/><path d="m396.5 388.5v1.5 3.6h1.5v.9c-.4 0-1 0-1.7 0h-7.9c-.5 0-.9 0-1.2 0v-.9h1.3v-3.5c0-.7 0-1.2 0-1.6h2.4c0-.8 0-1.4 0-1.7h1c0 .3-.1.8-.1 1.7h1.5c0-.8 0-1.4 0-1.7h1c0 .3-.1.9-.1 1.7zm-8.2 9.2c-.2-.3-.5-.5-.8-.8.8-.3 1.4-.6 1.9-.9s1-.7 1.4-1.1c.3.3.6.5.9.8-1.6 1-2.8 1.6-3.4 2zm2.6-6.8v-1.6h-1.5v1.6zm0 2.7v-1.9h-1.5v1.9zm2.4-2.7v-1.6h-1.5v1.6zm0 2.7v-1.9h-1.5v1.9zm.2 2 .7-.8c.4.2.9.5 1.6.8s1.3.7 1.8 1c-.3.3-.5.5-.8.8-.4-.3-1.5-1-3.3-1.8zm2-4.7v-1.6h-1.4v1.6zm0 2.7v-1.9h-1.4v1.9z"/></g></svg>