<svg enable-background="new 0 0 400 400" viewBox="0 0 400 400" xmlns="http://www.w3.org/2000/svg"><path d="m361.2 9.6.8-1c.9.7 1.9 1.4 2.9 2.3l-.9 1.1c-1-1-2-1.8-2.8-2.4zm.5 10.6c.9-2.1 1.6-4.3 2.3-6.7.4.2.8.4 1.3.6-.7 2.1-1.5 4.3-2.2 6.6zm.4-15.2.9-.9c1 .8 2 1.6 2.8 2.4l-1 1c-.9-.9-1.8-1.7-2.7-2.5zm12.5-1.2h1.2v1.4h2.7v1.1h-2.7v2.7h-1.2v-.6h-1.8v1.3h4.9v3.8h-1.2v-.5h-3.7c0 .4-.1.9-.1 1.2h5.1v1h-5.2c0 .5-.1.9-.2 1.2h6v1h-5.2c1.1 1.3 2.9 2 5.5 2.2-.4.4-.7.8-.9 1.3-2.9-.5-4.8-1.6-5.7-3.5h-.1c-.8 1.7-2.7 2.9-5.9 3.6-.2-.4-.6-.8-.9-1.1 2.8-.6 4.6-1.4 5.4-2.5h-4.8v-1h5.3c.1-.3.2-.7.2-1.2h-4.9v-1h5c0-.4 0-.8.1-1.2h-3.5v.5h-1.2v-3.8h4.9v-1.3h-1.8v.5h-1.2v-2.7h-2.7v-1h2.6v-1.4h1.2v1.4h4.7v-1.4zm-6.6 8.3h3.6c0-.4 0-.9 0-1.4h-3.6zm1.9-4.6h4.7v-1.3h-4.7zm6.6 3.2h-3.7v1.4h3.7z" fill="#fbfcfa"/><path d="m385.3 3.8h1.3v2.2h2.8v-2.2h1.3v2.2h4.1v9.1h1.7v1.3h-16.9v-1.3h1.7v-9.1h4.1v-2.2zm.4 13.1.7 1.2c-1.8.9-3.8 1.9-6 2.9-.2-.4-.5-.8-.8-1.3 2.3-1 4.3-1.9 6.1-2.8zm-3.1-6.4h2.8v-3.2h-2.8zm0 4.6h2.8v-3.3h-2.8zm4-4.6h2.8v-3.2h-2.8zm0 4.6h2.8v-3.3h-2.8zm3.7 1.9c2.1.9 4.1 1.8 6.1 2.7l-.7 1.3c-2.2-1.1-4.2-2-6.1-2.9zm3.2-9.7h-2.8v3.2h2.8zm-2.8 7.8h2.8v-3.3h-2.8z" fill="#fbfcfa"/><g fill="#010105"><path d="m62.91 296.08c9.81-3.07 19.39-6.08 28.97-9.06 4.69-1.46 9.36-3.04 14.11-4.3 5.92-1.56 11.11-4.37 16.21-7.73 5.94-3.92 12.15-7.55 18.6-10.55 17.84-8.28 35.79-16.33 53.84-24.12 6.44-2.78 13.39-4.36 19.98-6.83 13.48-5.06 15.78-8.83 16.74-23.46.61-9.31-2.48-18.06-4.96-26.9-4.08-14.56-11.29-27.37-20.59-39.19-3.53-4.48-6.48-9.43-11.68-12.26-3.81-2.07-5.96-5.17-6.47-9.49-.15-1.31-.69-2.57-1.16-4.24 6.89-1.47 13.59-3.03 20.34-4.28 3.11-.57 5.51-1.89 7.76-4.1 10.56-10.33 21.26-20.52 31.89-30.78.87-.84 1.94-1.75 2.27-2.83 3.86-12.26 10.47-23.14 16.74-34.22 2.9-5.12 5.01-10.68 7.74-16.63 1.2 1.23 2.75 2.1 3.18 3.36 2.48 7.27 5 14.55 6.89 21.98 1.36 5.35-.05 10.65-2.45 15.61-3.85 7.94-7.6 15.94-11.58 23.82-1.13 2.24-2.67 4.39-4.44 6.15-5.15 5.13-10.22 10.43-15.89 14.94-5.22 4.15-11.16 7.39-16.83 10.97-4.32 2.72-4.8 3.41-3.74 8.38.7 3.27 1.71 6.48 2.79 9.65 1.29 3.81 2.72 7.57 4.23 11.3 2.13 5.25 2.96 10.62 2.98 16.33.01 4.62 1.8 9.23 1.9 13.87.11 5.18-.67 10.4-1.29 15.57-.8 6.74-2.12 13.42-2.64 20.17-.37 4.72 2.56 7.16 7.32 6.29 3.57-.66 6.95-2.31 10.45-3.41 3.56-1.12 7.12-2.72 10.77-3.02 7.59-.63 10.26-1.51 14.1-6.46-4.7-3.74-9.98-6.3-15.81-7.65-6.62-1.52-10.26-6.01-12.23-12.1-.28-.87.41-2.85 1.09-3.1 3.84-1.39 7.75-2.99 11.75-3.4 5.47-.56 10.48-1.64 14.89-5.12 1.44-1.14 3.36-1.74 5.14-2.36 9.18-3.2 18.41-6.26 27.57-9.51 2.5-.89 5.01-2.01 7.19-3.49 3.64-2.48 4.37-2.58 8.05 1-1.51 2.28-2.83 4.87-4.69 7-9.13 10.44-18.45 20.73-27.6 31.16-1.88 2.15-3.31 4.7-5.54 7.92 6.22 1.47 11.67 2.87 17.16 4.03 4.92 1.04 9.9 1.76 14.83 2.73 1.29.25 2.58.79 3.74 1.42 1.93 1.06 2.84 2.73 1.47 4.72-1.11 1.62-2.05 3.7-4.97 2.4-4.64-2.06-6.08-1.16-9.77 2.15-3.26 2.92-7 5.69-11.03 7.29-22.41 8.91-44.63 18.34-67.96 24.85-7.25 2.02-13.84 6.29-20.98 8.84-6.06 2.16-12.56 3.04-18.7 5.01-7.64 2.44-15.18 5.25-22.64 8.2-12.57 4.97-25.05 10.2-37.58 15.28-1.12.46-2.37 1.05-3.51.96-11.74-.9-22.56 3.03-33.28 6.73-10.38 3.58-19.99 2.05-29.65-2.06-3.52-1.5-1.85-4.81-3.02-7.43z"/><path d="m64.87 363.78c6.25-2.6 12.59-4.61 18.32-7.74 12.84-7 25.23-14.85 38.1-21.79 7.92-4.27 16.29-7.79 24.65-11.15 26.33-10.59 52.8-20.82 79.11-31.47 12-4.86 23.63-10.65 35.62-15.54 14.52-5.92 29.77-8.98 45.44-9.07 5.62-.03 11.27 1.35 16.85 2.38 4.35.81 7.1 3.9 7.24 8.14.19 5.52-.76 11.06-.86 16.6-.12 7.31-4.09 10.19-10.69 12.77-16.77 6.55-34.12 9.45-51.81 11.73-13.38 1.73-26.75 4.23-39.8 7.63-9.12 2.38-17.69 6.84-26.5 10.39-15.75 6.35-31.56 12.55-47.23 19.11-11.64 4.87-22.98 10.44-34.64 15.26-11.34 4.68-23.1 5.88-35.16 2.66-2.12-.57-4.45-.75-6.65-.58-11.57.88-10.14-1.53-11.99-9.33z"/><path d="m98.66 74.6c15.88.71 30.07 4.83 39.85 18.79 6.67 9.52 11.74 19.77 15.33 30.79 4.74 14.55 9.8 29.01 14.22 43.66 3.06 10.14 4.4 20.65 1.62 31.13-1.17 4.39-3.25 8.54-4.89 12.82-2.68 6.99-5.52 13.92-7.92 21-1.24 3.66-3 6.6-6.28 8.7-1.87 1.2-3.52 2.73-5.44 4.24-2.38-3.47-1.81-6.91-.4-10.24 1.49-3.49 3.25-6.86 4.95-10.26 4.43-8.85 3.75-18.3 2.95-27.65-.89-10.43-3.67-20.4-8.35-29.86-1.51-3.05-2.01-6.6-2.89-9.95-.71-2.72-1.82-4.98-4.71-6.05-2.65-.98-4.54-.68-6.83 1.41-5.44 4.95-10.99 9.93-17.13 13.92-8.91 5.8-18.56 5.69-28.15 1.16-1.11-.53-2.19-1.11-3.3-1.65-4.32-2.1-8.48-4.11-10.8-8.93-2.92-6.05-5.19-12.12-4.7-18.94.08-1.12.09-2.28.43-3.32.44-1.36 1.01-3.62 1.81-3.74 1.87-.29 4.45-.23 5.8.86 14.12 11.48 29.96 14.17 47.35 9.99 2.25-.54 3.41-1.69 4.05-3.82 1.67-5.58.92-10.96-1.71-15.95-5.52-10.48-10.91-21.1-19.8-29.31-5.57-5.13-8.25-11.01-5.06-18.8z"/><path d="m328.13 92.34c.38 2.83 1.45 5.3.81 7.19-1.29 3.82-2.98 7.76-5.47 10.87-4.33 5.39-9.61 10-14.08 15.28-3.68 4.34-8.02 7.18-13.43 8.79-1.89.56-3.61 2.04-5.15 3.39-6.03 5.29-11.84 10.84-17.96 16.02-4.23 3.58-9.39 3.97-14.19 1.54-4.43-2.24-8.59-5.16-12.51-8.23-2.94-2.3-1.46-9.2 1.97-10.72 8.38-3.7 16.73-7.44 25.15-11.04 2.65-1.13 5.52-1.71 8.21-2.75 2.86-1.11 5.9-2.07 8.4-3.77 12.54-8.54 24.94-17.29 38.25-26.57z"/><path d="m76.1 184.77c18.34 8.91 36.8 13.66 56.77 5.92 0 3.43.1 6.43-.06 9.42-.05.83-.67 2.02-1.37 2.37-8.86 4.43-17.7 8.93-26.76 12.92-2.02.89-4.95.09-7.37-.37-9.74-1.83-14.86-9.82-20.84-16.38-3.39-3.73-1.99-8.63-.37-13.88z"/></g></svg>