<svg viewBox="0 0 400 400" xmlns="http://www.w3.org/2000/svg"><rect width="400" height="400" fill="white" /><path d="m31 277.4c3.7-11.8 6.9-22.9 10.6-33.9 6.6-19.9 9.9-40.2 9.7-61.1 0-.8-.2-1.8.2-2.5 3.7-8.2 1.9-16.4 0-24.6-1.7-7.1-3.6-14.1-2.8-21.6 1.2-11.8 8.3-17 19.6-19.7 1.7-.4 3.9 0 5.6.6 6.9 2.8 13.9 2.3 20.9.8 2.9-.6 5.9-1.6 8.7-1.4 11.5.7 22.6-1.6 33.2-5.5 8.4-3.1 16.9-3.2 25.6-2.7 23.6 1.2 47.1 2.2 70.7 3.3 1.3.1 2.7-.4 4-.8 1.8-.6 3.6-1.3 5.2-2.4 5.7-3.9 11.8-3.2 18-2.1 6.6 1.2 13 12.5 11 19.2-2.4 8.2-4.8 16.4-7.2 24.6-.3.9-.7 1.8-1.3 2.5-3.2 4.1-4.6 8.7-4 13.9 1.3 11.3-1.1 22.4-2.3 33.5-2.1 18.6-4.4 37.2-6.5 55.8-.1 1 .5 2.6 1.2 3.3 6.4 5.7 12.7 11.5 19.5 16.6 7.4 5.6 16.3 6.8 25.4 5.7 1.7-.2 3.5-1 4.8-2.1 3.3-2.7 6.9-4 11.1-3.4.7.1 1.5-.1 2.2 0 5.9 1.1 10.1-1.3 13.5-5.9 2.9-3.8 6.1-7.3 8.8-11.2 5-7.5 8.5-15.5 7.5-25-.4-4.2 3.9-9.7 7.9-10.8 3.7-1.1 5.4-.1 5.7 3.6 1.6 18.2 3.1 36.5 4.8 54.7.2 1.9-.4 3.1-1.9 4.2-11.4 8.8-24.4 13.5-38.5 15.1-21.6 2.5-43.3 1.3-65 .9-3.7-.1-7.4 0-11.1-.4-1.5-.2-3.2-1-4.3-2-2.3-2.1-4-4.8-6.3-6.7-4.5-3.7-6-8.3-5.3-14 .8-6.5-.8-12.4-4.3-18.1-3.1-5-3.7-10.5-.3-15.9 1.6-2.5 2-5.1 1.3-8.1-1.1-5.2-2.3-10.4-2.6-15.6-.3-5.8 0-11.6.5-17.4.8-8.7 1.7-17.5 3.2-26.1.8-4.5 3-8.8 4.7-13.1 2.1-5.5 2.8-11.1 2-16.8-.5-3.7-.3-7.2 1.3-10.5 1.2-2.4.3-4.2-1.8-4.8-3.9-1-8-2-12-1.8-5.2.2-10.6 1-15.7 2.3-7.8 1.9-15.7 1.9-23.6 2.1-18.2.4-36.4.3-54.6 1.1-7.9.4-15.6 2.5-23.4 3.8-5.7 1-11.4 2.1-17.2 3.1-2.2.4-3.8 1.3-5.1 3.2-3.5 5.3-5.5 11-4.7 17.4 1.7 15-.7 29.8-2.7 44.6-1.6 12-3.2 23.9-4.9 35.9-.1 1-.2 2.3-.9 3-4.1 4.8-5.6 10.8-7.6 16.6-1 3.1-2.7 6-4.2 8.9-3.6 7-9.7 9.4-17.2 9-2.9-.4-5.6-.9-9.1-1.3z"/></svg>