<svg viewBox="0 0 400 400" xmlns="http://www.w3.org/2000/svg"><rect width="400" height="400" fill="white" /><path d="m362.1 8.8c1.1.8 2.1 1.6 3.1 2.4l-1 1.1c-1.3-1.1-2.3-2-3-2.5zm1.9 4.8c.5.2.9.4 1.4.5-.6 2.3-1.3 4.5-1.9 6.8l-1.5-.5c.8-2.1 1.4-4.3 2-6.8zm-1-9.4c1.3.9 2.4 1.8 3.4 2.5l-1 1.1c-1.4-1.2-2.4-2.1-3.2-2.6zm3.7 2.2v-1.4h10.3v1.2c-.5 3.6-1.8 6.8-4 9.4 1.5 1.6 3.4 2.8 5.7 3.8-.3.4-.7.8-1.1 1.4-2.3-1.1-4.1-2.5-5.6-4.1-1.6 1.6-3.6 3.1-5.9 4.3-.3-.5-.7-.9-1-1.3 2.4-1.1 4.4-2.5 6-4.1-1.9-2.5-3-5.6-3.3-9.3h-1.1zm8.8 0h-6.4c.3 3.3 1.3 6 3 8.2 2-2.3 3.1-5.1 3.4-8.2z" fill="#fbfafc"/><path d="m385.3 3.8h1.3v2.2h2.8v-2.2h1.3v2.2h4.1v9.1h1.7v1.3h-16.9v-1.3h1.7v-9.1h4.1v-2.2zm.4 13.1.7 1.2c-1.8.9-3.8 1.9-6 2.9-.2-.4-.5-.8-.8-1.3 2.3-1 4.3-1.9 6.1-2.8zm-3.1-6.4h2.8v-3.2h-2.8zm0 4.6h2.8v-3.3h-2.8zm4-4.6h2.8v-3.2h-2.8zm0 4.6h2.8v-3.3h-2.8zm3.7 1.9c2.1.9 4.1 1.8 6.1 2.7l-.7 1.3c-2.2-1.1-4.2-2-6.1-2.9zm3.2-9.7h-2.8v3.2h2.8zm-2.8 7.8h2.8v-3.3h-2.8z" fill="#fbfafc"/><g fill="#000001"><path d="m21.17 332.37c14.33-5.72 27.7-11.08 41.09-16.39 19.74-7.82 39.45-15.7 59.28-23.28 3.68-1.41 5.91-3.61 7.63-6.89 4.35-8.3 6.18-17.28 6.68-26.48.97-17.85-.12-35.56-5.02-52.89-.06-.22-.1-.44-.16-.65-1.84-6.94-4.9-12.93-12-15.91-1.02-.43-2-1.06-2.81-1.81-6.07-5.6-13.35-6.44-21.18-5.88-5.57.4-11.18.39-16.77.32-8.54-.11-14.23-5.09-15.58-13.31-.25-1.54-.3-2.62 1.7-3.27 53.97-17.58 107.9-35.27 161.87-52.83 7.11-2.31 14.41-4.09 21.66-5.93 1.64-.42 3.56-.43 5.2-.01 10.19 2.56 20.26 5.59 30.51 7.88 8.93 2 15.46 7.26 21.18 13.87 7.2 8.3 9.85 18.32 10.92 29.01 1.22 12.21 1.81 24.55-1.04 36.43-2.32 9.67-6.8 18.84-10.4 28.19-2.65 6.87-5.51 13.66-8.08 20.55-.64 1.71-.52 3.7-.8 5.99 4.2.31 8.06.48 11.9.89 8.66.93 17.3 2.01 25.96 2.93 2.54.27 5.11.12 7.66.29 7.56.5 15.18.65 22.67 1.73 6.3.91 8.99 4.43 8.57 10.8-.35 5.3-1.58 10.57-2.76 15.78-.25 1.09-1.86 2.12-3.07 2.69-8.76 4.14-18.14 5.47-27.7 5.84-13.19.51-26.45.23-39.54 1.59-13.53 1.4-26.94 4.13-40.34 6.64-37.5 7.04-74.58 15.87-110.8 27.87-13 4.31-25.41 10.43-38.06 15.79-6.17 2.61-12.45 5.06-18.4 8.12-13.13 6.74-26.58 6.83-39.96 1.7-8.62-3.3-16.87-7.66-24.97-12.11-2.19-1.21-3.21-4.52-5.04-7.26zm141.48-55.18c2.26-.27 3.59-.34 4.89-.6 18.75-3.7 37.55-7.17 56.22-11.21 13.02-2.82 25.7-6.84 37.19-13.94 3.12-1.93 5.44-4.29 6.95-7.79 8.26-19.13 15.2-38.72 19.78-59.05 3.98-17.69 1.83-34.5-9.44-49.38-.91-1.2-2.48-2.28-3.93-2.64-6.4-1.57-12.86-2.91-19.33-4.2-1.47-.29-3.1-.33-4.56-.02-9.39 2.03-18.72 4.41-28.15 6.25-7.68 1.5-14.66 4.39-21.38 8.33-15.14 8.89-30.63 17.11-47.27 22.96-5.48 1.93-10.78 4.34-16.23 6.36-2.21.82-2.65 2.22-1.32 3.74 2.01 2.3 4.16 4.69 6.73 6.26 5.16 3.15 9.16 6.87 10.84 12.97 1.24 4.51 2.91 8.97 4.98 13.16 3.98 8.06 4.22 16.59 3.94 25.22-.32 9.62-1 19.23-1.13 28.85-.08 4.74.75 9.5 1.22 14.73z"/><path d="m279.06 65.15c-5.18.42-10.39 1.16-15.61 1.21-12.34.12-24.08 3.24-35.84 6.46-12.5 3.43-25.18 6.28-37.52 10.21-8.15 2.6-15.86 6.6-23.73 10.06-6.95 3.06-13.88 6.2-20.76 9.41-1.59.74-3.09 1.79-4.41 2.95-3.78 3.32-7.44 6.77-11.43 10.42-1.9-1.08-4.12-1.83-5.66-3.3-6.64-6.34-14.61-10.15-23.12-13.19-7.65-2.74-12.41-8.14-13.77-16.88 1.01-.29 2.07-.67 3.17-.9 8.75-1.83 17.52-3.59 26.26-5.47 1.84-.39 3.69-.96 5.38-1.77 25.41-12.32 52.38-19.26 80.2-23.13 9.96-1.39 19.99-2.31 30.01-3.19 3.3-.29 6.67.18 10 .39 7.47.47 14.93 1.17 22.41 1.48 9.49.38 15.11 6.08 14.42 15.24z"/></g></svg>