<svg enable-background="new 0 0 400 400" viewBox="0 0 400 400" xmlns="http://www.w3.org/2000/svg"><g fill="#fbfafa"><path d="m37.59 393.81c-.92.31-1.52.05-2-.78-.7-1.2-1.52-2.34-2.47-3.78v4.59c-.55.03-.95.05-1.41.07-.03-.37-.06-.64-.06-.91 0-1.91 0-3.81 0-5.7 1.13-.41 1.77-.03 2.29.91.62 1.11 1.38 2.14 2.31 3.19v-4.2h1.35v6.61z"/><path d="m12.94 393.88v-6.75c1.9.19 3.93-.54 5.37 1.29.8 1.01.78 2.88.03 3.97-1.37 1.97-3.4 1.51-5.4 1.49m1.45-1.22c2.04.12 2.92-.58 2.89-2.21-.03-1.51-.98-2.19-2.89-2z"/><path d="m11.81 393.87h-5.49c.68-2.18 2.47-3.48 3.51-5.45h-3.08v-1.21h5.29c-.71 2.13-2.44 3.48-3.47 5.51.86 0 1.63.04 2.39-.01.79-.05 1.14.21.85 1.16"/><path d="m39.33 393.86v-6.61h3.7v1.07h-2.22v1.52c.68.04 1.34.09 2.07.13v1.07c-.72.05-1.38.09-2.1.14v1.48h2.4v1.19h-3.85z"/><path d="m27.71 388.56c-1.15-.3-2.46-.61-3.1.64-.37.73-.41 1.93-.06 2.67.63 1.35 1.99.93 3.17.68.35.94-.01 1.32-.93 1.46-1.62.25-3.05-.27-3.76-1.48-.73-1.24-.6-3.03.31-4.17.88-1.11 2.71-1.7 4-1.16.32.13.44.74.65 1.12-.1.08-.19.16-.28.24"/><path d="m49.15 387.24v1.07c-.59.02-1.17.05-1.87.08v5.44h-1.48v-5.44h-1.85c-.05-.4-.08-.73-.13-1.15z"/><path d="m20.06 387.21h1.33v6.62h-1.33z"/><path d="m30.68 393.25c-.49.38-.8.79-1.05.76-.32-.05-.6-.45-.9-.7.26-.24.51-.64.8-.67.29-.04.62.3 1.15.61"/></g><path d="m76.65 75.76c4.23 18.82 8.38 37.12 12.43 55.45 2.68 12.11 5.38 24.22 7.75 36.4 1.34 6.91 1.77 13.99 3.1 20.9.62 3.21 2.24 6.28 3.74 9.25 1.86 3.7 4.96 6.21 9.15 6.55 9.12.74 18.27 1.82 27.38 1.59 11.83-.3 23.62-1.77 35.43-2.63 2.42-.18 3.45-1.5 4.32-3.49 3.85-8.84 3.32-17.93 1.61-27.05-1.72-9.12-3.84-18.16-5.42-27.3-.46-2.65-.02-5.59.58-8.27 1.61-7.1 1.97-14.14-.06-21.19-1.81-6.28-.12-12.45.58-18.63 2.34-20.69 5.93-41.16 10.43-61.5.97-4.4 4.71-3.4 7.26-4.57.87-.4 3.01.81 3.92 1.86 4.83 5.57 7.07 11.96 6.19 19.51-1.06 9.1-1.25 18.09.75 27.29 1.26 5.78-.34 12.2-.74 18.32-.28 4.35-.76 8.7-1.05 13.05-.32 4.87 2.18 7.89 7.09 8.57 1.19.17 2.57.27 3.64-.17 8.03-3.26 16.11-1.48 24.18-.41 13.42 1.78 26.84 3.55 40.23 5.47 1.9.27 2.54-.44 3.24-1.92 6.36-13.37 8.14-27.5 5.81-41.92-3.39-21.04 1.8-39.41 15.49-55.79 3.42 2.87 5.56 6.59 6.35 10.7 1.33 6.88 2.78 13.9 2.74 20.85-.11 16.78-1.35 33.56-1.55 50.34-.13 11.4.68 22.82 1.15 34.23 1.23 29.64 2.82 59.27 3.58 88.93.26 10.19 3.08 19.48 5.78 29.05 5.97 21.18 11.68 42.45 16.82 63.85 2.93 12.21 3.35 24.81 2.49 37.4-.24 3.44-1.46 4.6-4.99 5.36-5.69 1.22-8.67-1-11.78-5.35-7.35-10.26-10.25-21.86-12.21-34.05-1.7-10.58-4.44-20.98-6.82-31.45-.31-1.39-1.1-2.69-1.81-3.95-4.85-8.64-8.56-17.7-10.12-27.53-.46-2.9-1.96-3.78-4.62-3.06-16.93 4.56-33.86 9.1-50.75 13.79-1.03.29-2.07 1.62-2.54 2.71-3.73 8.64-3.3 17.7-2.32 26.76 1.28 11.89 4.1 23.26 10.39 33.69 3.95 6.55 4.09 11.31-2.31 16.98-.66.58-1.18 1.31-1.99 2.21 4 1.17 4.8 4.1 4.6 7.58-.07 1.23-.15 2.46-.3 3.68-.93 7.67-5.85 9.85-12.43 5.52-2.62-1.72-5.16-3.56-7.84-5.18-5.32-3.23-8-7.96-8.31-14.1-.1-2.01-.23-4.04-.08-6.04.52-6.95-.62-13.08-4.85-19.17-3.19-4.59-4.06-10.79-5.92-16.29-1.22-3.6-2.5-7.19-3.48-10.86-.65-2.46-2.08-3.69-4.4-4.43-7.28-2.32-14.65-1.79-21.92-.42-8 1.51-15.87 3.74-23.86 5.33-2.78.55-5.89.66-8.63.03-7.82-1.79-13.91-.48-17.15 7.7-.35.89-1.23 1.58-1.92 2.31-.37.39-.86.66-1.28.98-4.35-4.91-9.52-6.87-15.89-5.41-4.79 1.1-9.67 1.87-14.4 3.2-1.85.52-3.86 1.8-5 3.34-5.93 8-8.59 17.34-10.42 26.98-1.28 6.73-3.4 13.14-9.32 17.24-2.59 1.79-5.76 2.75-9.38 4.42-.6-2.9-1.56-5.14-1.44-7.32.63-11.93 1.1-23.9 2.42-35.77 2.73-24.46 5.98-48.87 8.98-73.3 1.68-13.66 3.66-27.3 4.76-41.01.46-5.77-.73-11.74-1.64-17.55-2.87-18.46-6.35-36.82-8.86-55.33-2.38-17.57-.98-35.07 3.73-52.23.23-.85.93-1.69 1.63-2.25.56-.44 1.47-.46 2.23-.64 2.51-.63 4.99-1.19 7.85-1.84zm214.4 137.29c.23-.04.46-.08.69-.12-1.7-16.22-3.2-32.47-5.2-48.65-.85-6.87-2.87-13.61-7.04-19.36-.94-1.29-2.68-2.73-4.12-2.81-12.13-.61-24.27-2.27-36.39.42-8.28 1.84-16.74 2.87-24.93 5-6.52 1.7-7.12 2.9-6.72 9.56.19 3.14 1.08 6.4 2.4 9.27 2.39 5.19 3.64 10.47 3.69 16.19.1 12.2.3 24.4.72 36.58.36 10.38 2.45 20.46 7.04 29.83 4.14 8.46 2.25 8.59 12.79 7.73 20.54-1.67 38.41-10.4 54.39-23.14.83-.67 1.48-2.01 1.57-3.1.48-5.79.76-11.6 1.11-17.4zm-181.07 72.95c26.12-.63 51.51-5.42 76.45-13.02 2.25-.69 3.58-1.61 4.23-4 2.68-9.76 3.35-19.64 1.68-29.57-1.02-6.06-3.66-12.06-9.88-13.74-7.16-1.93-14.85-3.21-22.2-2.79-19.08 1.11-38.09 3.33-57.13 5.04-1.79.16-2.41.82-2.63 2.64-1.17 9.76-2.49 19.51-3.8 29.26-1.04 7.78-1.94 15.54.19 23.31.55 1.99 1.43 3.03 3.69 2.9 3.13-.17 6.27-.03 9.4-.03z" fill="#010000"/></svg>