<svg enable-background="new 0 0 400 400" viewBox="0 0 400 400" xmlns="http://www.w3.org/2000/svg"><g fill="#fbfafa"><path d="m37.59 393.81c-.92.31-1.52.05-2-.78-.7-1.2-1.52-2.34-2.47-3.78v4.59c-.55.03-.95.05-1.41.07-.03-.37-.06-.64-.06-.91 0-1.91 0-3.81 0-5.7 1.13-.41 1.77-.03 2.29.91.62 1.11 1.38 2.14 2.31 3.19v-4.2h1.35v6.61z"/><path d="m12.94 393.88v-6.75c1.9.19 3.93-.54 5.37 1.29.8 1.01.78 2.88.03 3.97-1.37 1.97-3.4 1.51-5.4 1.49m1.45-1.22c2.04.12 2.92-.58 2.89-2.21-.03-1.51-.98-2.19-2.89-2z"/><path d="m11.81 393.87h-5.49c.68-2.18 2.47-3.48 3.51-5.45h-3.08v-1.21h5.29c-.71 2.13-2.44 3.48-3.47 5.51.86 0 1.63.04 2.39-.01.79-.05 1.14.21.85 1.16"/><path d="m39.33 393.86v-6.61h3.7v1.07h-2.22v1.52c.68.04 1.34.09 2.07.13v1.07c-.72.05-1.38.09-2.1.14v1.48h2.4v1.19h-3.85z"/><path d="m27.71 388.56c-1.15-.3-2.46-.61-3.1.64-.37.73-.41 1.93-.06 2.67.63 1.35 1.99.93 3.17.68.35.94-.01 1.32-.93 1.46-1.62.25-3.05-.27-3.76-1.48-.73-1.24-.6-3.03.31-4.17.88-1.11 2.71-1.7 4-1.16.32.13.44.74.65 1.12-.1.08-.19.16-.28.24"/><path d="m49.15 387.24v1.07c-.59.02-1.17.05-1.87.08v5.44h-1.48v-5.44h-1.85c-.05-.4-.08-.73-.13-1.15z"/><path d="m20.06 387.21h1.33v6.62h-1.33z"/><path d="m30.68 393.25c-.49.38-.8.79-1.05.76-.32-.05-.6-.45-.9-.7.26-.24.51-.64.8-.67.29-.04.62.3 1.15.61"/></g><path d="m296.76 43.84c-2.22 8.65-4.17 17.37-6.72 25.92-4.43 14.88-6.08 30.22-8 45.52-2.13 16.98-4.41 33.95-6.28 50.96-.62 5.63-.26 11.39-.15 17.09.69 36.53 4.18 72.81 9.83 108.89.44 2.81 1.81 5.5 2.88 8.19 8.61 21.59 17.25 43.16 25.88 64.74.37.93.69 1.88 1.03 2.82-.2.29-.4.59-.6.88-2-1.29-4.39-2.21-5.95-3.91-18.01-19.7-29.68-42.92-37.43-68.25-8.85-28.92-14.4-58.44-14.21-88.77.07-10.94 1.53-21.87 2.42-32.8 1.31-16.16 2.67-32.31 4.03-48.78-16.7 0-33.1 0-49.97 0-.45 5.93-.98 12.01-1.36 18.1-.44 6.91-.4 6.99 6.45 8.44 2.72.58 5.53.94 8.3.99 7.88.14 15.04 2.98 23.16 5.64-8.56 2.55-16.2 5.22-24.04 7.07-11.93 2.82-14.64 10.02-12.56 23.63.12.8 1.56 1.67 2.56 2.03 11.69 4.13 23.42 8.16 35.71 12.42-13.15 7.55-27.15 8.78-41.71 9.04 0 6.33-.07 12.45.09 18.57.02.78 1.16 1.75 2.01 2.26 7.1 4.33 14.94 6.29 23.12 7.47 5.71.82 11.3 2.47 16.94 3.74.01.38.02.76.03 1.14-1.28.33-2.56.7-3.85.97-10.72 2.25-21.44 4.55-32.19 6.67-1.98.39-2.74 1.03-3.01 3.1-2 15.54-3.31 31.06-2.75 46.81.62 17.41 1.07 34.97-3.09 52.11-1.48 6.09-3.94 11.93-5.96 17.89-.41-.1-.82-.2-1.23-.3-.43-6.85-.9-13.69-1.29-20.54-1.22-21.12-2.08-42.26-3.74-63.34-.89-11.23-3.08-22.36-4.91-33.5-.17-1.01-1.82-2.37-2.94-2.54-7.27-1.12-14.61-1.81-21.89-2.92-6.02-.92-11.98-2.22-17.97-3.36.03-.46.05-.93.08-1.39 5.19-.86 10.37-1.75 15.56-2.58 5.74-.91 11.51-1.72 17.25-2.67 8.31-1.37 12.05-5.63 12.47-14.03.01-.11.02-.22.02-.33.37-9.53 0-10.05-9.12-12.11-12.32-2.78-24.65-5.52-37.2-8.33-3.28 6.2-4.96 12.79-4.88 19.65.37 29.53-5.8 57.7-16.87 84.95-9.14 22.49-22.87 41.43-42.65 55.75-.62.45-1.27.86-2.61.92.98-2.37 1.46-5.14 3.01-7.05 14.4-17.64 23.59-37.88 30.18-59.44 7.16-23.43 10.63-47.52 12.84-71.85 2.31-25.43 3.66-50.89 3.17-76.44-.5-26.4-4.62-52.31-10.25-78.05-3.08-14.07-5.67-28.24-8.49-42.36.26-.13.53-.27.79-.4 3.52 5.97 7.17 11.87 10.53 17.93 9.66 17.44 14.05 36.61 18.32 55.85 3.87 17.44 4.8 35.22 6.58 52.9.08.76.22 1.52.36 2.41 14.99-2.69 29.85-5.31 44.68-8.11.83-.16 1.96-1.67 1.98-2.59.18-6.04.32-12.1.05-18.13-.69-15.18 1.31-30.13 3.43-45.09 2.84-20.02 5.5-40.07 9.05-60.27 1.25 5.36 2.73 10.68 3.7 16.1 2.68 15.05 3.07 30.26 2.76 45.5-.04 2.01-.13 4.03-.13 6.04-.03 8.27 3.87 13.54 12.17 13.96 12.03.61 24.12.11 36.18-.09 1.05-.02 2.57-1.12 3.02-2.11 2.65-5.75 6.17-11.4 7.31-17.48 2.57-13.67 9.05-25.13 17.45-35.79 2.62-3.32 5.37-6.54 8.06-9.8.17.16.36.3.56.44zm-150.34 118.65v37.29c15.69-2.81 31.15-5.58 46.76-8.38-.49-6.77-.95-13.21-1.44-19.95-15.03-2.97-29.98-5.93-45.32-8.96z" fill="#010105"/></svg>