<svg enable-background="new 0 0 400 400" viewBox="0 0 400 400" xmlns="http://www.w3.org/2000/svg"><path d="m173.79 305.85c-7.06-11.17-16.33-20.95-18.4-34.45-1.01-6.61-1.14-13.35-1.6-20.04-.18-2.57-.51-5.19-.17-7.71.81-5.98-1.56-9.83-7.17-11.67-1.58-.52-3.38-.87-5-.66-2.64.34-5.26 1.07-7.82 1.86-12.96 4.02-26.35 3.04-39.6 3.4-3.92.1-6.46.93-7.84 4.91-1.48 4.28-3.86 8.08-8.79 9.65 5.9 7.85 2.22 14.58-1.98 20.88-3.65 5.48-7.99 10.5-12.12 15.66-3.15 3.93-6.95 7.1-12.13 7.76-1.33.17-3.18-.64-4.18-1.62-4.48-4.36-5.85-9.4-5.01-15.94 1.45-11.25.25-22.84 4.58-33.74 3.39-8.51 6.69-17.06 9.88-25.65.72-1.94 1.03-4.09 1.16-6.17.71-10.81 1.4-21.63 1.88-32.45.13-2.86-.11-5.86-.85-8.62-2.3-8.55-1.51-17.03-.16-25.59 1.2-7.62 2.68-15.27 2.92-22.95.31-10.04-.45-20.11-.79-30.16-.15-4.36-.46-8.72-.57-13.08-.02-.87.28-2.24.89-2.57 6.44-3.59 12.81-7.62 20.7-6.23 1.53.27 3.2 1.06 4.32 2.12 8.84 8.42 13.81 18.74 15.2 30.93.77 6.77 2.34 13.44 3.3 20.19.33 2.36 1.36 2.77 3.49 2.88 16.33.87 32.34-1.92 48.4-4.08 3.88-.52 7.8-.86 11.61-1.69 1.63-.36 3.55-1.4 4.47-2.72 4.27-6.13 5.7-13.3 6.66-20.53 1.08-8.09 1.63-16.26 3.01-24.3.69-3.99 3.2-7.65 4.02-11.63.95-4.63.99-9.45 1.28-14.19.03-.52-.83-1.17-1.38-1.64-2.92-2.5-3.1-7.71-.08-10.01 8.82-6.73 18.72-10.86 29.91-11.06 11.75-.21 23.52.29 35.26-.13 13.88-.5 27.36 2.53 41.04 3.69 7.88.67 13.39 3.53 17 10.54.77 1.5 2.62 2.72 4.25 3.47 4.66 2.16 9.55 3.82 14.17 6.05 3.29 1.59 6.49 3.53 9.37 5.78 4.41 3.43 6.23 8.06 4.96 13.68-1.26 5.61-.88 11.1 1.17 16.48.52 1.36.83 2.79 1.39 4.13 4.44 10.48 5.95 21.35 5.47 32.72-.23 5.51 1.25 11.08 1.77 16.64 1.55 16.63-.41 33-3.07 49.42-1.65 10.24-2.03 20.69-2.88 31.05-.61 7.47-.89 14.97-1.68 22.42-.32 3.05-1.27 6.13-2.45 8.99-9.94 24.17-15.47 49.68-22.93 74.6-2.9 9.68-7.13 19.07-14.27 26.64-5.07 5.37-10.22 10.68-15.53 15.8-3.89 3.75-8.3 6.8-13.83 7.8-2.27.41-3.39-.17-3.93-2.64-2.52-11.46-1.94-22.66 2.38-33.6 4.3-10.92 8.62-21.82 12.95-32.73.33-.83.59-1.75 1.15-2.41 9.09-10.71 12.81-23.66 15.34-37.06 2.42-12.78 3.82-25.64 2.57-38.71-.39-4.13-1.89-6.83-5.92-7.67-4.25-.88-8.57-1.5-12.87-2.1-7.51-1.05-15.03-2.03-22.55-2.99-1.41-.18-2.99-.5-4.25-.07-9.69 3.37-19.71 3.68-29.81 3.78-3.15.03-6.41.69-9.42 1.66-5.84 1.89-11.53 4.24-17.32 6.31-1.72.62-2.66 1.37-2.88 3.45-1.64 15.91-3.4 31.81-5.26 47.69-.41 3.53-1.05 7.11-2.16 10.48-1.88 5.71-4.57 10.88-10.79 13.27-2.82 1.07-5.36 2.8-8.48 4.48zm134.06-194.88c.34-12.13.66-23.28.9-34.44.01-.62-.53-1.55-1.07-1.82-7.64-3.9-14.99-8.75-23.06-11.36-22.47-7.28-45.97-5.79-69.17-6.61-2.95-.1-5.51 2.89-5.56 5.85-.14 7.94-.36 15.88-.34 23.82.03 7.87 1.06 15.57 4.18 22.93.99 2.34 2.21 3.09 4.71 3.02 20.68-.54 41.36-1.01 62.04-1.37 9.02-.16 18.05-.02 27.37-.02zm2.94 65.99c0-6.81.36-13.39-.13-19.91-.32-4.38-2.35-5.65-6.74-5.66-22.69-.03-45.37-.12-68.06.04-8.04.06-16.12.6-23.61 4.05-.99.46-2.37 1.46-2.45 2.3-.53 5.96-1.36 12-.93 17.92.4 5.47 2.57 6.66 7.96 6.38 25.78-1.35 51.56-2.71 77.35-4.09 5.21-.27 10.42-.64 16.61-1.03zm-197.35-9.47c-1.68-.08-3.35-.13-5.03-.23-4.09-.24-5.73.78-7.31 4.73-1.5 3.73-3.16 7.42-4.32 11.26-.9 2.95-1.53 6.09-1.59 9.16-.14 6.62 3.15 9.86 9.77 9.2 4.51-.45 8.93-1.85 13.35-3.02 8.89-2.35 17.8-4.89 27.05-2.86 3.24.71 5.52.26 7.78-2 2.1-2.1 5.41-3.61 6.4-6.09 1.91-4.82 3-10.08 3.63-15.26.71-5.77-4.15-9.93-9.84-9.14-2.77.39-5.52.89-8.3 1.17-10.53 1.1-20.86 4.21-31.59 3.08zm59.34 66.16c1.41-.68 2.56-1.23 4.16-2-2.23-1.69-4.08-3.1-5.94-4.5-.16.15-.33.29-.49.44.71 1.91 1.43 3.83 2.27 6.06z" fill="#010000"/><g fill="#fbfcfa"><path d="m361.2 9.6.8-1c.9.7 1.9 1.4 2.9 2.3l-.9 1.1c-1-1-2-1.8-2.8-2.4zm.5 10.6c.9-2.1 1.6-4.3 2.3-6.7.4.2.8.4 1.3.6-.7 2.1-1.5 4.3-2.2 6.6zm.4-15.2.9-.9c1 .8 2 1.6 2.8 2.4l-1 1c-.9-.9-1.8-1.7-2.7-2.5zm12.5-1.2h1.2v1.4h2.7v1.1h-2.7v2.7h-1.2v-.6h-1.8v1.3h4.9v3.8h-1.2v-.5h-3.7c0 .4-.1.9-.1 1.2h5.1v1h-5.2c0 .5-.1.9-.2 1.2h6v1h-5.2c1.1 1.3 2.9 2 5.5 2.2-.4.4-.7.8-.9 1.3-2.9-.5-4.8-1.6-5.7-3.5h-.1c-.8 1.7-2.7 2.9-5.9 3.6-.2-.4-.6-.8-.9-1.1 2.8-.6 4.6-1.4 5.4-2.5h-4.8v-1h5.3c.1-.3.2-.7.2-1.2h-4.9v-1h5c0-.4 0-.8.1-1.2h-3.5v.5h-1.2v-3.8h4.9v-1.3h-1.8v.5h-1.2v-2.7h-2.7v-1h2.6v-1.4h1.2v1.4h4.7v-1.4zm-6.6 8.3h3.6c0-.4 0-.9 0-1.4h-3.6zm1.9-4.6h4.7v-1.3h-4.7zm6.6 3.2h-3.7v1.4h3.7z"/><path d="m385.3 3.8h1.3v2.2h2.8v-2.2h1.3v2.2h4.1v9.1h1.7v1.3h-16.9v-1.3h1.7v-9.1h4.1v-2.2zm.4 13.1.7 1.2c-1.8.9-3.8 1.9-6 2.9-.2-.4-.5-.8-.8-1.3 2.3-1 4.3-1.9 6.1-2.8zm-3.1-6.4h2.8v-3.2h-2.8zm0 4.6h2.8v-3.3h-2.8zm4-4.6h2.8v-3.2h-2.8zm0 4.6h2.8v-3.3h-2.8zm3.7 1.9c2.1.9 4.1 1.8 6.1 2.7l-.7 1.3c-2.2-1.1-4.2-2-6.1-2.9zm3.2-9.7h-2.8v3.2h2.8zm-2.8 7.8h2.8v-3.3h-2.8z"/></g></svg>