<svg enable-background="new 0 0 400 400" viewBox="0 0 400 400" xmlns="http://www.w3.org/2000/svg"><path d="m165.04 273.67c-4.88.62-9.51 1.53-14.16 1.72-7.57.3-15.16.27-22.74.11-21.47-.45-42.27 3.5-62.79 9.32-1.2.34-2.36 1.56-3.11 2.66-5.27 7.64-10.23 15.5-15.69 22.99-4.5 6.16-10.87 10.15-17.83 13.43-4.46-4.39-6.95-9.28-5.6-15.68 1.07-5.06 2.59-9.75 5.89-14.01 8.76-11.31 14.1-24.57 20.48-37.24 8.43-16.78 13.58-34.68 19.27-52.45 2.73-8.52 7.41-16.45 11.56-24.47 2.11-4.08 3.87-7.95 2.49-12.65-.25-.85-.05-2.11.44-2.86 8.21-12.53 8.39-27.11 10.5-41.18 2.18-14.48 4.16-28.99 6.28-43.86 8.54-.8 17.07-1.61 26.02-2.45.06 1.36.16 2.54.16 3.72.01 10.19.12 20.38-.06 30.56-.05 2.96 1.04 5.11 3.64 5.58 4.44.8 9.08 1.61 13.49 1.14 6.87-.74 13.65-2.41 20.39-4.01 1.59-.38 3.31-1.76 4.23-3.17 6.46-9.77 9.34-20.94 10.17-32.31 1.1-14.99 8.16-27.71 13.81-42.35 2.58 3.42 4.99 6.11 6.83 9.14 4.95 8.19 6.38 16.82 3.89 26.35-5.07 19.39-5.53 39.36-6.69 59.23-.64 10.94-1.64 21.87-2.33 32.81-.2 3.22-.15 6.5.25 9.7 1.05 8.43 7.12 12.85 15.46 10.91 5.64-1.31 10.99-3.89 16.64-5.1 19.77-4.24 39.42-9.25 59.7-10.6 3.3-.22 6.26-2.63 7.03-5.92.13-.54-.08-1.34-.43-1.79-8.58-11.06-11.47-24.14-12.82-37.59-1.26-12.57-1.87-25.21-2.68-37.83-.1-1.5-.81-3.57 1.75-4.01 2.27-.39 4.27-1.59 6.28 1.45 11.82 17.8 21.95 36.46 27.49 57.17 2.44 9.11 3.09 18.69 4.56 28.06.22 1.42.14 3 .74 4.24 13.81 28.5 19.97 59.44 28.73 89.55.55 1.89 1.48 3.7 2.45 5.44.97 1.76 2.09 3.46 3.34 5.03 5.44 6.8 9.08 14.18 8.76 23.22-.08 2.2.99 4.56 1.94 6.66 2.07 4.58 4.11 9.22 6.71 13.5 2.53 4.17 2.85 8.35 1.6 12.81-.27.96-.99 1.99-1.81 2.58-4.97 3.59-12.4 1.86-15.63-2.29-8.87-11.41-14.06-24.26-16.73-38.34-1.78-9.42-5.48-18.06-10.56-26.27-4.25-6.87-10.24-8.85-17.48-7.39-29.25 5.9-59.06 6.98-88.57 10.58-8.21 1-16.46 1.77-25.66 2.75.7 5.58.81 11.2 2.19 16.49 4.1 15.78 8.44 31.51 13.25 47.08 1.79 5.8 5.17 11.11 7.78 16.67.71 1.51 1.44 3.05 1.85 4.66 1.26 4.95-1.98 9.06-7 9.06-1.46 0-2.97-.26-4.36.05-5.81 1.29-8.9-2.01-11.92-6.25-8.03-11.32-12.32-24.29-16.65-37.2-4.79-14.3-9.02-28.79-13.49-43.19-.38-1.29-.79-2.54-1.25-3.96zm24.45-43.62c.17 2.74.15 5.11.5 7.42.66 4.29 2.9 7 7.23 8.7 5.5 2.16 10.65 2.85 16.07.32.6-.28 1.28-.38 1.93-.56 16.58-4.54 33.67-5.88 50.63-7.99 5.08-.63 10.49-2.15 15.25-1.06 7.16 1.64 13.56 1.15 20.13-1.61 2.87-1.21 5.9-2.09 8.91-2.9 2.23-.6 3.21-1.65 2.6-4.03-1.91-7.33-3.32-14.83-5.74-21.99-2.91-8.6-13.96-14.41-22.9-12.52-30.07 6.34-60.12 12.76-90.16 19.27-1.05.23-2.43 1.65-2.61 2.69-.83 4.85-1.29 9.75-1.84 14.26zm-28.05-66.03h.02c.34-7.71.71-15.41 1-23.12.03-.91-.27-2.59-.63-2.66-4.09-.71-8.53-2.38-12.29-1.46-7.65 1.88-14.91 5.3-22.4 7.89-2.46.85-3.64 2.25-4.52 4.7-4.95 13.79-7.49 28.54-16.53 40.74-1.34 1.81-.97 5.08-.93 7.67.05 2.81 1.77 3.48 4.55 3.11 7.86-1.06 15.75-1.84 23.65-2.64 8.76-.89 17.21-2.77 24.77-7.51 1.01-.63 1.99-2.12 2.07-3.28.55-7.81.85-15.63 1.24-23.44zm-2.65 52.29c-1.51 0-2.63.07-3.73-.01-14.16-.98-28.05 1.62-42.02 3.19-6.8.77-13.61 1.52-19.58 5.12-2.48 1.5-5.18 3.36-6.58 5.76-2.39 4.11-4.12 8.68-5.57 13.24-.84 2.65-1.19 5.77-.67 8.46.94 4.9 2.54 5.55 7.52 4.97 16.64-1.94 33.29-3.8 49.94-5.7 7.29-.83 14.59-1.68 22.1-2.55-.48-10.9-.93-21.47-1.41-32.48z" fill="#010100"/><g fill="#fcfbfa"><path d="m377.9 391.2c-.2.3-.4.5-.6.8-.7-.6-1.4-1-2.2-1.5.2-.3.4-.5.5-.8.6.4 1.4.8 2.3 1.5zm-1.8 6.1c-.2-.2-.5-.4-.9-.6.4-.6.8-1.2 1.2-1.9s.7-1.3.9-1.9c.3.3.5.5.8.7-.7 1.3-1.4 2.6-2 3.7zm2.2-9c-.3.3-.5.5-.6.8-.6-.6-1.3-1.1-2-1.5.3-.3.5-.5.6-.7.6.5 1.3.9 2 1.4zm.3.2v-.9h2 4.5c-.3 1.3-.6 2.5-1 3.6s-.9 2.1-1.4 3c.4.5 1 1 1.6 1.4s1.2.8 1.9 1.1c-.3.2-.5.4-.8.8-.4-.3-1-.7-1.6-1.2s-1.2-1.1-1.6-1.6c-.5.6-1.1 1.1-1.7 1.6s-1.4.9-2.1 1.4c-.1-.3-.3-.5-.7-.8.6-.2 1.2-.5 1.9-1s1.4-1.1 2-1.8c-.5-.8-.9-1.6-1.2-2.5s-.6-2-.8-3.2c-.4.1-.7.1-1 .1zm2.5 2.7c.3 1 .7 1.7 1 2.2.3-.5.6-1.1 1-2s.6-1.9.9-3h-3.2-.4c.1.9.3 1.8.7 2.8z"/><path d="m396.5 388.5v1.5 3.6h1.5v.9c-.4 0-1 0-1.7 0h-7.9c-.5 0-.9 0-1.2 0v-.9h1.3v-3.5c0-.7 0-1.2 0-1.6h2.4c0-.8 0-1.4 0-1.7h1c0 .3-.1.8-.1 1.7h1.5c0-.8 0-1.4 0-1.7h1c0 .3-.1.9-.1 1.7zm-8.2 9.2c-.2-.3-.5-.5-.8-.8.8-.3 1.4-.6 1.9-.9s1-.7 1.4-1.1c.3.3.6.5.9.8-1.6 1-2.8 1.6-3.4 2zm2.6-6.8v-1.6h-1.5v1.6zm0 2.7v-1.9h-1.5v1.9zm2.4-2.7v-1.6h-1.5v1.6zm0 2.7v-1.9h-1.5v1.9zm.2 2 .7-.8c.4.2.9.5 1.6.8s1.3.7 1.8 1c-.3.3-.5.5-.8.8-.4-.3-1.5-1-3.3-1.8zm2-4.7v-1.6h-1.4v1.6zm0 2.7v-1.9h-1.4v1.9z"/></g></svg>