<svg enable-background="new 0 0 400 400" viewBox="0 0 400 400" xmlns="http://www.w3.org/2000/svg"><path d="m83.44 349.41c-1.32-6.79-.46-12.49 1.36-18.08 6.84-21.03 13.76-42.04 20.58-63.09.71-2.2 1.4-4.57 1.33-6.84-.26-8.79 2.65-16.91 4.72-25.24 6.03-24.34 6.26-48.91 2.94-73.66-1.13-8.42-1.67-16.92-2.46-25.38-.79-8.53-3.06-16.42-9.2-22.84-2.23-2.33-4.23-4.95-5.96-7.67-1.33-2.09-2.07-4.54-3.3-7.38 4.17-.66 7.54-1.28 10.93-1.67.73-.08 1.66.5 2.32 1.01 1.78 1.36 3.37 2.96 5.19 4.25 5.61 3.97 10.1 8.63 11.44 15.77.37 1.99 1.68 3.91 2.88 5.64 2.56 3.69 3.17 7.79 3.14 12.11-.05 6.04-.07 12.07-.08 18.11 0 .67.08 1.34.19 2 .87 5.21 1.12 5.85 6.39 6.3 15.24 1.31 30.51 2.3 45.78 3.41 1.12.08 2.23.12 3.35.2 5.94.39 6.28.23 7.31-5.72 1.08-6.2-.18-12.18-1.86-18.18-2.12-7.62-4.21-15.29-5.5-23.07-.7-4.23-.65-8.25-3.68-11.9-1.71-2.07-1.89-5.4-2.79-8.16-4.57-14.01-8.82-28.13-13.84-41.98-2.96-8.16-8.38-14.99-14.74-20.97-1.05-.99-2.09-2-4.04-3.86 5.47-1.29 10.09-2.91 14.82-3.39 14.24-1.42 28.52-2.47 42.8-3.52 17.38-1.28 34.61 1.15 51.88 2.36 7.93.55 8.29 4.54 4.12 10.84-4.66 7.03-10.9 13.03-16.5 19.43-.56.64-1.4 1.18-2.21 1.45-2.4.79-3.69 2.29-3.78 4.86-.02.62-.29 1.37-.71 1.8-4.43 4.58-8.59 9.48-13.45 13.56-6.68 5.6-13.84 10.63-20.91 15.76-1.72 1.25-2.17 2.5-1.76 4.5.71 3.5 1.01 7.1 1.84 10.57.3 1.28 1.37 2.74 2.51 3.39 4.43 2.53 9.41 3.08 14.33 2.43 15.71-2.06 31.49-1.65 47.27-1.67 6.94-.01 13.88-.05 20.82.03 1.89.02 3.01-.38 3.73-2.37 4.5-12.51 9.09-24.98 13.78-37.42.73-1.94 2.08-3.65 3.63-5.28 3.28 10.25 5.31 19.96-.05 30.24-2.79 5.35-3.28 11.94-4.5 18.03-1.16 5.79-1.56 11.77-5.33 16.73-.42.55-.75 1.59-.52 2.15 2.85 6.9-.22 13.43-1.19 20.06-.63 4.31-1.64 8.56-2.48 12.84-.11.55-.04 1.28-.37 1.61-3.12 3.19-1.7 7.04-1.74 10.72-.04 3.91.01 7.9-.74 11.7-.63 3.15-2.38 6.08-3.87 9.69 3 3.73 2.76 8.91 1.57 13.95-3.09 13.03-2.22 26.25-2.23 39.43-.01 6.95.05 13.87-1.98 20.61-.57 1.91-.06 3.27 1.36 4.74 1.14 1.18 2.02 2.94 2.28 4.57.97 5.96 1.73 11.96 2.35 17.96.17 1.7-.4 3.47-.61 5.08 1.14 3.91 2.28 7.93 3.48 11.93 2.54 8.45 5.2 16.85 7.65 25.33 2.27 7.88 3.89 15.88 2.9 24.16-.12 1.03-.7 2-1.07 3-.92-.5-1.89-.92-2.75-1.5-3.72-2.48-5.55-5.97-6.56-10.38-2.34-10.24-5.17-20.36-7.87-30.51-.66-2.48-1.32-5.02-2.47-7.28-4.2-8.3-5-17.3-5.77-26.33-1.44-16.94-2.9-33.88-4.41-50.81-.25-2.78.26-5.13 1.83-7.55 2.64-4.05 1.53-5.9-3.19-6.27-12.48-.98-24.94-2.39-37.43-2.81-5.47-.19-10.98 1.92-16.52 2.41-4.5.4-6.55 2.42-6.73 6.79-.28 6.57-1.35 13.2-.83 19.7.96 11.93-.15 23.71-1.39 35.49-.4 3.81-2.01 7.48-2.74 11.27-1.26 6.56-2.66 13.13-3.27 19.76-1.08 11.63-2.12 23.17-7.81 33.72-.46.86.42 2.45.82 4.39-1.9 2.22-4.35 5.09-7.14 8.36-2.08-3.71-2.3-7.38-1.85-11.1.38-3.1.84-6.23 1.66-9.23 3.76-13.79 2.93-27.98 3.78-42.01 1.14-18.87 2.06-37.76 2.84-56.64.21-5.23-.32-10.5-.74-15.73-.21-2.55-1.16-4.29-4.51-4.55-19.3-1.5-38.57-2.99-57.96-2.32-2.65.09-4.26.92-5.21 3.16-.99 2.35-2.39 4.74-2.58 7.2-.95 12.63-5.1 24.47-8.45 36.52-4.36 15.73-8.67 31.47-16.24 46.08-.6 1.15-.76 2.57-.91 3.9-.8 7.29-4.7 12.94-9.63 17.96-1.35 1.31-3.31 2.03-5.49 3.34zm198.13-220.64c-6.99-.46-13.75-1.1-20.52-1.3-12.28-.37-24.58-.48-36.86-.71-6.53-.12-12.95.27-18.81 3.63-2.49 1.42-3.26 3.03-2.1 5.98 3.45 8.71 6.96 17.46 7.27 27 .08 2.65 1.08 3.25 3.62 3.31 13.62.3 27.24.89 40.86 1.23 7.61.19 15.25.01 22.3-3.43 1.22-.6 2.82-2.03 2.88-3.15.61-10.71.93-21.41 1.36-32.56zm-73.46 53.2c4.22 6.75 3.46 13.12 1.55 19.65-.78 2.64-1.08 5.49-1.15 8.25-.09 3.83 4.09 8.21 7.84 8.37 12.05.53 24.1 1.13 36.16 1.35 6.75.12 13.39-1.11 19.31-4.63 1.31-.78 2.94-2.29 3.05-3.59.79-8.88 1.24-17.8 1.74-26.71.12-2.13-.73-3.09-3.15-3.13-19.55-.34-39.09-.88-58.64-1.2-2.05-.03-4.13.98-6.71 1.64zm-44.31-2.76c-6.77.5-14.47.92-22.12 1.73-2.48.26-5.05 1.21-7.21 2.48-1.37.81-2.68 2.68-2.94 4.26-1.43 8.48-2.51 17.02-3.75 25.53-.58 3.98 4.91 8.47 8.79 7.18 2.63-.88 5.28-2.33 7.95-2.39 13.73-.3 27.46-.21 41.2-.29 1.78-.01 3.59 0 5.32-.31 2.62-.47 3.92-1.81 3.58-4.89-1.08-9.77-1.9-19.57-2.71-29.37-.14-1.69-.7-2.26-2.41-2.35-8.27-.44-16.52-1.01-25.7-1.58zm15.25-132.15c.45 1.31.54 2.59 1.22 3.35 4.19 4.64 4.46 10.39 4.4 16.07-.05 5.47 1.77 9.76 6.34 12.69 1.24.8 3 1.36 4.43 1.18 5-.61 9.47-2.8 13.08-6.25 5.57-5.32 11.26-10.61 16.15-16.53 2.8-3.39 4.46-7.88 5.97-12.11 1.1-3.09-.22-4.9-3.5-5-6.31-.2-12.65-.03-18.97.31-4.22.23-8.4 1.38-12.61 1.46-5.89.12-11.15 1.82-16.51 4.83z" fill="#010100"/><g fill="#fcfbfa"><path d="m377.9 391.2c-.2.3-.4.5-.6.8-.7-.6-1.4-1-2.2-1.5.2-.3.4-.5.5-.8.6.4 1.4.8 2.3 1.5zm-1.8 6.1c-.2-.2-.5-.4-.9-.6.4-.6.8-1.2 1.2-1.9s.7-1.3.9-1.9c.3.3.5.5.8.7-.7 1.3-1.4 2.6-2 3.7zm2.2-9c-.3.3-.5.5-.6.8-.6-.6-1.3-1.1-2-1.5.3-.3.5-.5.6-.7.6.5 1.3.9 2 1.4zm.3.2v-.9h2 4.5c-.3 1.3-.6 2.5-1 3.6s-.9 2.1-1.4 3c.4.5 1 1 1.6 1.4s1.2.8 1.9 1.1c-.3.2-.5.4-.8.8-.4-.3-1-.7-1.6-1.2s-1.2-1.1-1.6-1.6c-.5.6-1.1 1.1-1.7 1.6s-1.4.9-2.1 1.4c-.1-.3-.3-.5-.7-.8.6-.2 1.2-.5 1.9-1s1.4-1.1 2-1.8c-.5-.8-.9-1.6-1.2-2.5s-.6-2-.8-3.2c-.4.1-.7.1-1 .1zm2.5 2.7c.3 1 .7 1.7 1 2.2.3-.5.6-1.1 1-2s.6-1.9.9-3h-3.2-.4c.1.9.3 1.8.7 2.8z"/><path d="m396.5 388.5v1.5 3.6h1.5v.9c-.4 0-1 0-1.7 0h-7.9c-.5 0-.9 0-1.2 0v-.9h1.3v-3.5c0-.7 0-1.2 0-1.6h2.4c0-.8 0-1.4 0-1.7h1c0 .3-.1.8-.1 1.7h1.5c0-.8 0-1.4 0-1.7h1c0 .3-.1.9-.1 1.7zm-8.2 9.2c-.2-.3-.5-.5-.8-.8.8-.3 1.4-.6 1.9-.9s1-.7 1.4-1.1c.3.3.6.5.9.8-1.6 1-2.8 1.6-3.4 2zm2.6-6.8v-1.6h-1.5v1.6zm0 2.7v-1.9h-1.5v1.9zm2.4-2.7v-1.6h-1.5v1.6zm0 2.7v-1.9h-1.5v1.9zm.2 2 .7-.8c.4.2.9.5 1.6.8s1.3.7 1.8 1c-.3.3-.5.5-.8.8-.4-.3-1.5-1-3.3-1.8zm2-4.7v-1.6h-1.4v1.6zm0 2.7v-1.9h-1.4v1.9z"/></g></svg>