<svg enable-background="new 0 0 400 400" viewBox="0 0 400 400" xmlns="http://www.w3.org/2000/svg"><path d="m338.15 374.83c-5.42 0-10.45.14-15.47-.1-1.12-.05-2.56-1.19-3.21-2.23-12.2-19.37-21.1-40.09-25.53-62.67-2.15-10.96-4.78-21.84-7.37-32.71-.34-1.42-1.48-3.02-2.71-3.79-7.11-4.44-15.18-6.22-23.35-6.42-16.66-.41-33.33-.23-49.99-.13-1.01.01-2.52 1.29-2.93 2.32-3.4 8.57-4.04 17.65-4.03 26.71.02 10.29 1.03 20.58.91 30.86-.06 5.27-1.21 10.65-2.66 15.75-1.38 4.88-4.98 8.03-10.16 9.25-2.2.52-3.52-.01-4.89-1.71-6.16-7.65-9.29-16.39-10.39-26.09-1.81-16-1.02-31.96.03-47.94.08-1.21.01-2.44.01-4.31-8-.82-15.95-2.28-23.92-2.33-15.21-.1-30.42.82-45.63.85-4.99.01-7.81 1.67-10.2 6.03-7.64 13.88-11.82 28.9-15.67 44.1-2.46 9.72-5.92 19.08-13.43 26.21-2.3 2.18-5.15 3.77-8.13 5.91-2.34-5.78-2.6-11.17-1.52-16.34 2.34-11.25 5.28-22.38 7.95-33.56 2.75-11.51 6.8-22.89 7.93-34.55 2.34-24.04 3.11-48.24 4.54-72.37 1.03-17.43 2.39-34.85 2.99-52.29.31-9.01-.73-18.07-1.15-27.11-1.04-22.14.31-44.04 6.12-65.55.6-2.22 1.56-3.45 3.75-4.07 2.89-.82 5.71-1.93 8.79-2.99 3.13 4.75 4.19 10.14 4.94 15.49 3.33 23.9 3.39 47.98 3.17 72.04-.05 5.13-2.17 10.23-3.21 15.36-.39 1.95-.75 4-.55 5.94.52 5.09 3.07 7.22 8.07 7.04 18.78-.7 37.56-1.39 56.33-2.22 1.33-.06 2.93-.95 3.85-1.96 3.08-3.41 3.79-7.72 2.84-11.98-2.82-12.6-.97-25.18-.25-37.77.7-12.29 1.38-24.59 2.5-36.84.61-6.65 2.02-13.24 3.24-19.82.27-1.48 1.07-2.96 1.93-4.23 2.68-3.94 5.28-4 8.25-.41 4.96 5.99 7.52 12.5 7.05 20.64-.35 5.9.8 12.09 2.42 17.83 1.52 5.38 6.81 7.55 11.84 8 7.07.64 14.34.89 21.34-.04 9.37-1.23 18.61-3.6 27.81-5.85 1.71-.42 3.56-2.34 4.35-4.03 3.57-7.58 4.35-15.66 3.33-23.93-1.34-10.9-.08-21.41 4.81-31.72 7.88 5.69 14.37 12.43 19.04 20.89 4.49 8.11 5.33 16.88 5.34 25.96.03 15.22-.04 30.47.92 45.64.81 12.81 2.48 25.64 4.78 38.27 2.06 11.31.91 22.23-1.28 33.22-.73 3.64-.78 7.01 1.21 10.28.8 1.33 1.17 2.92 1.94 4.26 5.78 10.07 7.33 21.07 7.95 32.48 1.03 19.1 2.24 38.22 4.26 57.24.88 8.24 3.9 16.26 6.04 24.36 4.76 17.93 9.58 35.85 14.36 53.78.26.96.41 1.94.7 3.35zm-102.93-130.59c.02-.14.03-.27.05-.41 1.45-.07 2.9-.17 4.35-.21 13.13-.33 25.75-2.64 37.39-9.12 1.83-1.02 2.47-2.09 2.28-4.19-1.21-13.82-2.32-27.64-3.39-41.47-.57-7.34-.48-7.5-7.8-8.36-6.31-.74-12.68-1.65-19-1.48-8.35.21-16.66 1.58-25.01 2.11-6.76.42-13.04 2.07-18.47 6.14-1.2.9-2.25 2.8-2.3 4.28-.28 7.49-.26 14.99-.24 22.49.02 8.44 1.01 16.72 4.3 24.61.71 1.7 1.52 2.71 3.55 2.91 8.11.79 16.2 1.78 24.29 2.7zm-130.63-1.74c1.5.32 2.69.6 3.9.84 12.18 2.38 24.52 2.47 36.79 1.74 8.42-.51 16.75-2.33 25.12-3.63 2.6-.4 3.52-1.86 3.42-4.66-.46-13.31-.7-26.62-.97-39.94-.09-4.33-.01-8.66-.01-13.54-7.53-.59-14.29-1.61-21.04-1.54-8.03.09-16.06 1.07-24.08 1.77-7.71.67-15.4 1.54-22.28 5.5-1.02.59-2.15 2.14-2.13 3.23.32 16.65.82 33.31 1.28 50.23zm168.16-111.01c-.35 0-.7 0-1.06 0 0-4.24.07-8.49-.02-12.73-.1-4.98-.69-6.17-5.7-7.04-5.57-.97-11.29-1.2-16.96-1.46-10.91-.51-21.83-.82-32.75-1.18-.87-.03-1.78.06-2.61.31-3.21.95-6.38 2.06-9.61 2.94-1.7.46-2.21 1.34-2.29 3.06-.26 5.81-1.09 11.61-1.01 17.4.09 6.31.65 12.65 1.57 18.9.57 3.83 2.85 6.13 7.43 6.56 13.6 1.27 27.08.52 40.36-2.18 6.91-1.41 13.52-4.32 20.23-6.66 2-.7 2.62-2.23 2.49-4.49-.26-4.48-.07-8.96-.07-13.43z" fill="#010100"/><g fill="#fcfbfa"><path d="m377.9 391.2c-.2.3-.4.5-.6.8-.7-.6-1.4-1-2.2-1.5.2-.3.4-.5.5-.8.6.4 1.4.8 2.3 1.5zm-1.8 6.1c-.2-.2-.5-.4-.9-.6.4-.6.8-1.2 1.2-1.9s.7-1.3.9-1.9c.3.3.5.5.8.7-.7 1.3-1.4 2.6-2 3.7zm2.2-9c-.3.3-.5.5-.6.8-.6-.6-1.3-1.1-2-1.5.3-.3.5-.5.6-.7.6.5 1.3.9 2 1.4zm.3.2v-.9h2 4.5c-.3 1.3-.6 2.5-1 3.6s-.9 2.1-1.4 3c.4.5 1 1 1.6 1.4s1.2.8 1.9 1.1c-.3.2-.5.4-.8.8-.4-.3-1-.7-1.6-1.2s-1.2-1.1-1.6-1.6c-.5.6-1.1 1.1-1.7 1.6s-1.4.9-2.1 1.4c-.1-.3-.3-.5-.7-.8.6-.2 1.2-.5 1.9-1s1.4-1.1 2-1.8c-.5-.8-.9-1.6-1.2-2.5s-.6-2-.8-3.2c-.4.1-.7.1-1 .1zm2.5 2.7c.3 1 .7 1.7 1 2.2.3-.5.6-1.1 1-2s.6-1.9.9-3h-3.2-.4c.1.9.3 1.8.7 2.8z"/><path d="m396.5 388.5v1.5 3.6h1.5v.9c-.4 0-1 0-1.7 0h-7.9c-.5 0-.9 0-1.2 0v-.9h1.3v-3.5c0-.7 0-1.2 0-1.6h2.4c0-.8 0-1.4 0-1.7h1c0 .3-.1.8-.1 1.7h1.5c0-.8 0-1.4 0-1.7h1c0 .3-.1.9-.1 1.7zm-8.2 9.2c-.2-.3-.5-.5-.8-.8.8-.3 1.4-.6 1.9-.9s1-.7 1.4-1.1c.3.3.6.5.9.8-1.6 1-2.8 1.6-3.4 2zm2.6-6.8v-1.6h-1.5v1.6zm0 2.7v-1.9h-1.5v1.9zm2.4-2.7v-1.6h-1.5v1.6zm0 2.7v-1.9h-1.5v1.9zm.2 2 .7-.8c.4.2.9.5 1.6.8s1.3.7 1.8 1c-.3.3-.5.5-.8.8-.4-.3-1.5-1-3.3-1.8zm2-4.7v-1.6h-1.4v1.6zm0 2.7v-1.9h-1.4v1.9z"/></g></svg>