<svg enable-background="new 0 0 400 400" viewBox="0 0 400 400" xmlns="http://www.w3.org/2000/svg"><path d="m378.6 9.2.8-1c.9.7 1.9 1.4 2.9 2.3l-.9 1.1c-1.1-.9-2-1.7-2.8-2.4zm.5 10.7c.9-2.1 1.6-4.3 2.3-6.7.4.2.8.4 1.3.6-.7 2.1-1.5 4.3-2.2 6.6zm.4-15.2.9-.9c1 .8 2 1.6 2.8 2.4l-1 1c-1-.9-1.9-1.8-2.7-2.5zm12.5-1.3h1.2v1.4h2.7v1.1h-2.7v2.7h-1.2v-.5h-1.8v1.3h4.9v3.8h-1.2v-.5h-3.7c0 .4-.1.9-.1 1.2h5.1v1h-5.2c0 .5-.1.9-.2 1.2h6v1h-5.2c1.1 1.3 2.9 2 5.5 2.2-.4.4-.7.8-.9 1.3-2.9-.5-4.8-1.6-5.7-3.5h-.1c-.8 1.7-2.7 2.9-5.9 3.6-.2-.4-.6-.8-.9-1.1 2.8-.6 4.6-1.4 5.4-2.5h-4.8v-1h5.3c.1-.3.2-.7.2-1.2h-4.9v-1h5c0-.4 0-.8.1-1.2h-3.6v.5h-1.2v-3.8h4.9v-1.3h-1.8v.5h-1.2v-2.7h-2.6v-1.1h2.6v-1.4h1.2v1.4h4.7v-1.4zm-6.7 8.4h3.6c0-.4 0-.9 0-1.4h-3.6zm1.9-4.7h4.7v-1.2h-4.7zm6.7 3.3h-3.7v1.4h3.7z" fill="#fcfafa"/><path d="m384.7 21.4h1.3v2.2h2.8v-2.2h1.3v2.2h4.1v9.1h1.7v1.3h-16.9v-1.3h1.7v-9.1h4.1v-2.2zm.3 13.2.7 1.2c-1.8.9-3.8 1.9-6 2.9-.2-.4-.5-.8-.8-1.3 2.4-1 4.4-2 6.1-2.8zm-3.1-6.5h2.8v-3.2h-2.8zm0 4.6h2.8v-3.3h-2.8zm4.1-4.6h2.8v-3.2h-2.8zm0 4.6h2.8v-3.3h-2.8zm3.6 1.9c2.1.9 4.1 1.8 6.1 2.7l-.7 1.3c-2.2-1.1-4.2-2-6.1-2.9zm3.3-9.7h-2.8v3.2h2.8zm-2.8 7.8h2.8v-3.3h-2.8z" fill="#fcfafa"/><path d="m197.85 287.5c.97-.89 1.46-1.33 2.12-1.94-.7-.43-1.29-.97-1.97-1.18-4.12-1.27-6.46-4.05-7.32-8.22-.16-.76-.38-1.56-.79-2.2-5.11-7.93-2.9-16.66-2.65-25.14.04-1.32.99-2.71 1.79-3.88 5.67-8.28 5.11-17.84 5.68-27.16.35-5.7-.71-11.13-4.1-15.93-2.22-3.13-4.42-4.06-8.04-2.88-2.11.69-4.12 1.72-6.14 2.67-3.2 1.51-6.31 2.11-9.97 1.14-2.41-.64-5.24.32-7.88.54-4.08.34-8.17.55-12.24 1.01-5.91.67-11.42-.9-17.02-2.45-4.14-1.15-5.61-.36-6.42 3.85-1.15 6.01-1.82 12.13-2.35 18.23-1.5 17.16-2.89 34.33-4.19 51.51-.71 9.36-1.06 18.75-1.75 28.11-.38 5.12-.94 10.24-1.77 15.3-.56 3.41-3.46 5.97-5.52 4.73-1.97-1.18-4.17-4.07-4.13-6.17.18-10.96.16-22.05 1.97-32.8 1.27-7.54-.3-14.81.48-22.24 1.18-11.22.35-22.68 1.88-33.82 1.33-9.63 1.24-19.13 1-28.71-.02-.77.04-1.59.26-2.32 1.41-4.67 1.45-9.24.74-14.15-.59-4.06.78-8.39 1.19-12.61 1.32-13.57 2.51-27.15 3.98-40.71.37-3.38 1.3-6.78 2.53-9.96.59-1.52 2.49-2.54 4.58-4.53 1.53 7.88 2.84 14.6 4.19 21.56 4.27 0 8.4.12 12.52-.02 9.94-.35 19.91-.49 29.81-1.36 7.57-.66 7.56-1.1 7.53-8.7-.03-7.11.88-14.36-2.74-21.01-.48-.88-.75-1.91-1.35-2.67-3.02-3.8-4.82-8.13-5-12.93-.47-12.79-5.45-24.33-9.5-36.16-2.31-6.72-5.26-13.2-5.29-20.65-.02-3.96.73-6.66 4.57-8.52 3.87 1.76 6.62 5.1 8.91 8.8 4.02 6.5 7.18 13.38 8.5 21 .36 2.09.98 4.13 1.54 6.18 2.18 8.01 3.24 8.53 11.35 7.61 4.04-.46 8.21.29 12.24-.16 6.63-.74 13.18-2.16 19.81-3.02 4.81-.62 8.94-2.51 12.07-4.86-1-5.85-2.21-11.17-2.72-16.55-.44-4.6 1.07-6.55 4.27-7.2 2.91-.59 6.45 1.51 7.73 4.99 4.65 12.67 10.07 25.16 13.47 38.16 2.53 9.68 5.61 19 9.66 28.08.23.51.6 1.07.55 1.57-.93 8.6 3.92 15.68 6.27 23.39 3.57 11.75 7.73 23.33 11.47 35.03.57 1.78.1 3.87.29 5.8.48 4.88 1.13 9.75 1.58 14.64.44 4.78 1.25 9.61.93 14.34-.61 8.9.84 17.6 1.39 26.4.89 14.28.98 28.62 1.44 42.93.11 3.23.42 6.46.58 9.69.27 5.46 1.08 10.96.63 16.36-1.1 13.16.95 26.12 1.63 39.17.59 11.27.35 22.6.12 33.9-.03 1.26-2.38 2.47-3.81 3.86-3.06-3.99-3.78-7.8-3.94-11.72-.13-3.13.11-6.27 0-9.4-.63-17.57-1.39-35.14-1.98-52.71-.69-20.68-1.51-41.37-1.79-62.06-.17-12.59-2.96-24.56-6.29-36.54-2.84-10.21-5.32-20.52-7.92-30.8-1.02-4.04-3.59-6.77-6.89-6.65-.98.04-2.53 1.02-2.79 1.88-2.27 7.57-7.81 11.65-14.76 14.25-10.15 3.8-20.34 7.49-30.52 11.22-5.25 1.93-7.29 5.43-6.8 11.02.35 4.06.33 8.15.55 12.22.03.58.47 1.17.81 1.7 2.36 3.62 5.13 7.04 7.04 10.88 4.47 9 8.6 18.17 12.73 27.34 2.85 6.34 3.5 12.96 1.37 19.63-.62 1.94-1.79 3.83-3.12 5.4-4.08 4.83-5.37 10.8-6.67 16.63-3.03 13.63-1.85 27.38-.42 41.09.82 7.89 2.02 15.74 2.59 23.65.34 4.65-1.95 6.66-5.9 5.86-.92-.19-2.22-1.54-2.29-2.44-1.7-21.74-3.3-43.49-4.79-65.25-.37-5.24-1.15-10.06-6.81-12.94zm40.56-179.03c-.44 2.73-.15 5.15-1.2 6.58-2.2 2.97-4.75 5.95-7.8 7.96-5.21 3.42-11.63 5.27-16.19 9.3-4.39 3.89-8.91 7.31-13.82 10.4-1.12.71-2.13 2.27-2.38 3.59-1.81 9.74 2.44 18.35 5.14 27.67 15.33-5.93 30.33-11.67 45.26-17.57 2.03-.8 3.73-2.43 5.62-3.62 1.88-1.18 2.1-2.58 1.64-4.8-1.31-6.31-2.07-12.73-3.27-19.07-.5-2.67-1.57-5.23-2.35-7.85-.31-1.04-.67-2.08-.82-3.15-.74-5.17-1.06-10.43-2.21-15.5-1.72-7.61-3.87-15.13-6.14-22.6-.9-2.97-2.63-5.69-3.98-8.53-.46-.05-.92-.09-1.38-.14-1.61 1.72-3.25 3.42-4.83 5.17-1.04 1.15-1.81 3.12-3.03 3.42-3.92.96-5.84 3.87-8.32 6.58-3.22 3.52-7.14 6.4-10.9 9.39-.76.6-2.32.93-3.16.57-3.85-1.67-7.47-3.9-11.39-5.36-1.93-.72-4.34-.31-6.5-.13-.63.05-1.65 1.07-1.69 1.69-.17 2.66-.62 5.51.1 7.98 2.73 9.35 5.88 18.58 8.95 28.09 12.15-10.58 27.62-15.51 44.65-20.07zm-114.03 80.89c3.24-1.21 5.72-2.21 8.25-3.07 3.47-1.17 6.91-2.83 10.48-3.22 6.31-.69 12.74-.28 19.07-.88 6.96-.67 13.87-1.86 20.77-3.04 2.43-.42 3.76-2.16 3.64-4.85-.28-6.23-.33-12.48-.75-18.71-.28-4.02-3.77-5.81-7.68-4.48-5.28 1.8-10.59 3.51-15.94 5.11-7.56 2.27-15.1 2.67-22.71-.1-3.23-1.18-6.68-1.76-10.04-2.58-2.52-.61-3.97.46-4.02 3-.07 3.45-.18 6.94.22 10.36.74 6.21 2.2 12.36-1.21 18.32-.52.9-.08 2.33-.08 4.14z" fill="#010000"/></svg>