<svg enable-background="new 0 0 400 400" viewBox="0 0 400 400" xmlns="http://www.w3.org/2000/svg"><g fill="#010100"><path d="m217.63 223.83c8.3 3.7 15.79 6.92 23.14 10.42 1.89.9 3.77 2.44 4.91 4.18 5.88 8.94 12.43 17.41 16.61 27.48 7.74 18.66 8.21 37.13.27 55.72-2.9 6.78-6.07 13.43-9.19 20.11-.51 1.09-1.17 2.26-2.08 2.99-10.65 8.52-21.16 17.24-32.14 25.32-5.82 4.29-12.73 6.57-20.23 5.64-1.51-.19-3.03-.74-4.4-1.4-2.72-1.3-5.25-3.04-8.03-4.19-14.64-6.03-24.94-17.21-34.14-29.4-4.95-6.56-9.17-13.76-12.93-21.08-6.54-12.72-6.09-26.07-2.2-39.52 3.25-11.25 8.33-21.68 14.26-31.72.72-1.22 1.76-2.3 2.8-3.29 6.89-6.53 13.83-13.02 20.75-19.52-5.96-4.49-11.92-8.66-17.53-13.25-13.88-11.35-25.95-24.35-35.02-39.91-9.5-16.32-12.3-34.06-11.01-52.7.37-5.29 2.37-9.83 4.44-14.57 6.86-15.73 16.19-29.73 27.73-42.41 5.03-5.53 8.97-12.07 14.11-17.48 4.81-5.07 10.44-9.39 15.92-13.78 7.35-5.9 16.43-4.96 25.02-5.73.79-.07 1.77.81 2.49 1.44 13.73 12.04 28.05 23.29 43.53 33.05 14.71 9.27 23.99 23.37 33.38 37.54 6.94 10.47 5.65 21.09 2.88 31.9-3.83 14.93-8.3 29.7-12.63 44.5-.4 1.38-1.61 2.65-2.69 3.71-14.94 14.49-29.93 28.95-44.92 43.39-.78.76-1.69 1.41-3.1 2.56zm-20.82-12.1c9.43-.4 17.38-4.04 23.83-10.5 11.61-11.62 20.29-25.22 25.71-40.77.83-2.37 1.19-5.05 1.06-7.55-.14-2.85.55-5.2 2.73-6.81 1.93-1.43 2.07-3.05 1.93-5.21-1.1-17.35-7.15-32.88-17.34-46.81-13.06-17.86-29.56-30.69-51.96-34.47-3.32-.56-7.36-1.48-10.08-.17-9.01 4.34-16.4 10.85-20.98 20.01-4.22 8.44-9.22 16.34-15.46 23.45-.7.8-1.27 1.86-1.49 2.89-2.12 9.8-2.77 19.71-1.7 29.68 2.5 23.18 12.62 42.83 27.93 60.09 2.67 3.01 5.7 5.13 9.49 6.53 6.91 2.56 13.68 5.5 20.55 8.17 1.85.7 3.85.98 5.78 1.47zm57.36 84.26c.15-11.96-1.14-23.7-7.34-34.28-2.65-4.53-5.61-9.12-10.83-11-9.98-3.59-20.07-6.87-30.15-10.17-1.43-.47-3.11-.72-4.57-.48-5.73.94-11.55 1.67-17.09 3.31-9.78 2.9-17.96 8.26-21.71 18.3-2.76 7.39-5.7 14.88-7.12 22.59-3.88 21.08.61 40.21 15.37 56.34 1.1 1.2 2.48 2.34 3.95 2.95 5.25 2.17 10.5 4.45 15.93 6.06 10.97 3.26 21.61 2.39 30.9-4.81 7.58-5.88 14.63-12.43 22.06-18.5 6.98-5.71 10.02-13.2 10.56-21.92.18-2.79.04-5.59.04-8.39z"/><path d="m183.73 80c6.96 6.17 11.29 13.44 13.7 21.72 7.39 25.41 7.93 51.1 2.65 76.98-.41 1.99-1.22 2.7-3.26 2.94-9.04 1.09-9.03 1.17-13.14-7.07-6.46-12.95-9.26-26.78-9.6-41.15-.41-17.4 2.09-34.34 8.45-50.62.3-.8.67-1.59 1.2-2.8z"/><path d="m192.19 271.31c6.8.74 11.18 3.87 13.81 9.25 3.12 6.39 5.58 13.28 4.62 20.32-.71 5.23-2.8 10.18-2.63 15.75.06 2.01-3.19 4.13-5.43 6.78-11.19-16.42-11.83-33.8-10.37-52.1z"/></g><path d="m377.9 391.2c-.2.3-.4.5-.6.8-.7-.6-1.4-1-2.2-1.5.2-.3.4-.5.5-.8.6.4 1.4.8 2.3 1.5zm-1.8 6.1c-.2-.2-.5-.4-.9-.6.4-.6.8-1.2 1.2-1.9s.7-1.3.9-1.9c.3.3.5.5.8.7-.7 1.3-1.4 2.6-2 3.7zm2.2-9c-.3.3-.5.5-.6.8-.6-.6-1.3-1.1-2-1.5.3-.3.5-.5.6-.7.6.5 1.3.9 2 1.4zm.3.2v-.9h2 4.5c-.3 1.3-.6 2.5-1 3.6s-.9 2.1-1.4 3c.4.5 1 1 1.6 1.4s1.2.8 1.9 1.1c-.3.2-.5.4-.8.8-.4-.3-1-.7-1.6-1.2s-1.2-1.1-1.6-1.6c-.5.6-1.1 1.1-1.7 1.6s-1.4.9-2.1 1.4c-.1-.3-.3-.5-.7-.8.6-.2 1.2-.5 1.9-1s1.4-1.1 2-1.8c-.5-.8-.9-1.6-1.2-2.5s-.6-2-.8-3.2c-.4.1-.7.1-1 .1zm2.5 2.7c.3 1 .7 1.7 1 2.2.3-.5.6-1.1 1-2s.6-1.9.9-3h-3.2-.4c.1.9.3 1.8.7 2.8z" fill="#fcfbfa"/><path d="m396.5 388.5v1.5 3.6h1.5v.9c-.4 0-1 0-1.7 0h-7.9c-.5 0-.9 0-1.2 0v-.9h1.3v-3.5c0-.7 0-1.2 0-1.6h2.4c0-.8 0-1.4 0-1.7h1c0 .3-.1.8-.1 1.7h1.5c0-.8 0-1.4 0-1.7h1c0 .3-.1.9-.1 1.7zm-8.2 9.2c-.2-.3-.5-.5-.8-.8.8-.3 1.4-.6 1.9-.9s1-.7 1.4-1.1c.3.3.6.5.9.8-1.6 1-2.8 1.6-3.4 2zm2.6-6.8v-1.6h-1.5v1.6zm0 2.7v-1.9h-1.5v1.9zm2.4-2.7v-1.6h-1.5v1.6zm0 2.7v-1.9h-1.5v1.9zm.2 2 .7-.8c.4.2.9.5 1.6.8s1.3.7 1.8 1c-.3.3-.5.5-.8.8-.4-.3-1.5-1-3.3-1.8zm2-4.7v-1.6h-1.4v1.6zm0 2.7v-1.9h-1.4v1.9z" fill="#fcfbfa"/></svg>