<svg enable-background="new 0 0 400 400" viewBox="0 0 400 400" xmlns="http://www.w3.org/2000/svg"><g fill="#fbfafa"><path d="m37.59 393.81c-.92.31-1.52.05-2-.78-.7-1.2-1.52-2.34-2.47-3.78v4.59c-.55.03-.95.05-1.41.07-.03-.37-.06-.64-.06-.91 0-1.91 0-3.81 0-5.7 1.13-.41 1.77-.03 2.29.91.62 1.11 1.38 2.14 2.31 3.19v-4.2h1.35v6.61z"/><path d="m12.94 393.88v-6.75c1.9.19 3.93-.54 5.37 1.29.8 1.01.78 2.88.03 3.97-1.37 1.97-3.4 1.51-5.4 1.49m1.45-1.22c2.04.12 2.92-.58 2.89-2.21-.03-1.51-.98-2.19-2.89-2z"/><path d="m11.81 393.87h-5.49c.68-2.18 2.47-3.48 3.51-5.45h-3.08v-1.21h5.29c-.71 2.13-2.44 3.48-3.47 5.51.86 0 1.63.04 2.39-.01.79-.05 1.14.21.85 1.16"/><path d="m39.33 393.86v-6.61h3.7v1.07h-2.22v1.52c.68.04 1.34.09 2.07.13v1.07c-.72.05-1.38.09-2.1.14v1.48h2.4v1.19h-3.85z"/><path d="m27.71 388.56c-1.15-.3-2.46-.61-3.1.64-.37.73-.41 1.93-.06 2.67.63 1.35 1.99.93 3.17.68.35.94-.01 1.32-.93 1.46-1.62.25-3.05-.27-3.76-1.48-.73-1.24-.6-3.03.31-4.17.88-1.11 2.71-1.7 4-1.16.32.13.44.74.65 1.12-.1.08-.19.16-.28.24"/><path d="m49.15 387.24v1.07c-.59.02-1.17.05-1.87.08v5.44h-1.48v-5.44h-1.85c-.05-.4-.08-.73-.13-1.15z"/><path d="m20.06 387.21h1.33v6.62h-1.33z"/><path d="m30.68 393.25c-.49.38-.8.79-1.05.76-.32-.05-.6-.45-.9-.7.26-.24.51-.64.8-.67.29-.04.62.3 1.15.61"/></g><path d="m272.13 374.63c-5.11-12.78-9.93-25.4-15.22-37.82-3.39-7.98-8.11-15.21-15.19-20.56-1.41-1.07-2.98-1.94-5.36-3.48-1.49 5.21-3.15 9.9-4.14 14.73-1.15 5.58-3.02 10.45-9.16 13.64-.54-6.57-1.17-12.65-1.51-18.74-.37-6.58.1-13.25-.81-19.73-1.15-8.2-7.74-12.44-15.86-11.07-.9.15-1.86 1.04-2.45 1.83-5.38 7.23-9.2 14.94-8.78 24.38.2 4.41-1.63 8.28-7.32 10.45-.03-3.47-.67-6.63.04-9.44 1.3-5.06 3.47-9.89 5.15-14.86.49-1.44.81-3.03.74-4.53-.45-9.72-1.08-19.44-1.51-29.17-.08-1.73.32-3.55.86-5.22 4.17-12.82 6.92-25.91 7.56-39.4.1-2.08-.18-4.26-.76-6.26-.27-.92-1.61-1.93-2.61-2.12-.74-.14-1.95.8-2.54 1.58-1.49 1.95-2.84 4.03-4.07 6.16-2.75 4.74-6.99 7.03-12.35 7.88-2.12-3.3-2.31-6.92-.62-10.2 2.69-5.21 5.47-10.5 9.03-15.11 9.04-11.7 16.91-23.83 19.67-38.73 1.89-10.2-1.83-18.86-10.12-23.26-9.53-5.07-12.9-13.76-17.51-21.9-4.62-8.15-6.87-18.7-6.73-26.48.23-.12.49-.33.78-.4 7.1-1.68 5.28-2.95 10.02 3.46 3.98 5.38 7.42 11.17 11.12 16.76 2.55 3.85 5.5 7.29 10 9.65 2.86-8.89 4-17.69 3.14-26.68-1.48-15.5-5.56-30.39-12.19-44.4-2.62-5.54-7.06-10.3-11.08-15.06-1.39-1.64-3.93-2.67-6.13-3.13-1.56-.33-3.8.27-5.07 1.29-6.97 5.61-14.01 11.2-20.47 17.37-3.82 3.64-6.72 8.28-9.85 12.59-2.03 2.8-3.6 5.93-5.64 8.73-3.05 4.2-7.37 6.48-12.48 7.05-.94.1-2.87-1.02-2.89-1.63-.08-2.44-.3-5.28.79-7.3 9.57-17.67 22.54-32.45 39.17-43.8 3.81-2.6 8.31-4.46 12.74-5.8 4.42-1.34 8.9-.11 12.7 2.64 6.61 4.77 13.39 9.37 19.59 14.65 2.85 2.43 4.39 6.36 6.73 9.45 1.64 2.17 3.46 4.29 5.53 6.04 1.57 1.33 3.5.97 4.43-1.1 1.62-3.64 3.36-7.27 4.52-11.06 1.44-4.73 2.81-6.95 7.17-9.4 3.18 5.34 3.63 11.09 2.71 17.03-.41 2.65-.94 5.3-1.71 7.86-2.81 9.3-3.43 18.91-3.83 28.51-.19 4.66-1.28 8.79-3.82 12.58-2.88 4.31-4.01 8.95-4.05 14.18-.13 15.88-.76 31.76-.84 47.64-.02 3.17 1.08 6.6 2.5 9.49 5.11 10.44 10.41 20.79 15.99 30.98 3.21 5.86 7.23 11.28 10.67 17.03 2.6 4.37 4.67 8.98 2.27 15.08-3.11-2.15-6.55-3.72-8.89-6.29-6.4-7.03-12.34-14.48-18.46-21.76-.56-.66-1.15-1.3-2-2.26-1.62 5.66-1.66 11.03.24 16.06 7.09 18.79 9 38.7 12.98 58.16.46 2.26 1.55 4.73 3.11 6.36 9.7 10.12 15.61 22.56 21.81 34.83 2.17 4.29 4.09 8.73 6.59 12.81 3.09 5.04 2.96 10.69 3.78 16.16.94 6.3 1.43 12.67 2.42 18.97.39 2.64-.53 3.74-2.53 4.09zm-61.07-114.6c-.66 3.34-1.51 6.3-1.77 9.31-.19 2.13 1.37 2.87 3.54 2.88 2.23.02 2.56-1.2 2.67-2.9.25-3.63-.67-6.74-4.44-9.29z" fill="#010000"/></svg>