<svg enable-background="new 0 0 400 400" viewBox="0 0 400 400" xmlns="http://www.w3.org/2000/svg"><path d="m5.17 384 .55-.58c.85.61 1.65 1.24 2.4 1.87l-.59.64c-.83-.73-1.62-1.38-2.36-1.93m1.22 9.53-.82-.34c.71-1.76 1.37-3.64 1.98-5.63.24.13.5.25.76.36-.6 1.67-1.24 3.54-1.92 5.61m-.5-13.5.57-.54c.56.44 1.31 1.06 2.26 1.87l-.64.64c-.68-.66-1.41-1.32-2.19-1.97m3.25.46h2.24v-1.36h.77v1.36h4.57v-1.36h.76v1.36h2.28v.69h-2.28v1.84h-2.64v1.26h4.18v2.64h-4.21c0 .45-.02.86-.05 1.21h4.32v.69h-4.38c-.04.34-.1.75-.19 1.22h5.15v.69h-4.82c.87 1.19 2.51 1.92 4.93 2.19-.17.31-.3.57-.37.76-2.77-.49-4.52-1.41-5.26-2.76-.56 1.26-2.3 2.23-5.24 2.9-.12-.24-.26-.48-.43-.72 2.73-.55 4.38-1.34 4.96-2.38h-4.38v-.69h4.65c.1-.38.17-.79.21-1.22h-4.32v-.69h4.4c.03-.34.05-.75.05-1.21h-4.2v-2.64h4.23v-1.26h-2.69v-1.84h-2.24zm1.46 4.46v1.29h3.45c.01-.4.02-.57.01-.53v-.32-.45h-3.46zm1.55-2.59h4.57v-1.19h-4.57zm6.11 2.59h-3.42v.77c-.01.19-.01.37-.02.53h3.44z" fill="#fafafc"/><path d="m32.63 379.16h.82v1.98h3.54v7.89h1.46v.78h-14.37v-.78h1.46v-7.89h3.54v-1.98h.82v1.98h2.73zm-3.49 11.48.5.73c-1.61.82-3.28 1.63-5 2.41-.13-.27-.28-.55-.44-.82 1.75-.72 3.4-1.49 4.94-2.32m-2.78-5.55h2.73v-3.18h-2.73zm0 3.95h2.73v-3.2h-2.73zm3.54-3.95h2.73v-3.18h-2.73zm0 3.95h2.73v-3.2h-2.73zm7.89 4.68c-1.84-.92-3.51-1.7-5.02-2.32l.45-.73c1.89.8 3.57 1.55 5.04 2.23zm-1.62-11.81h-2.73v3.18h2.73zm-2.73 7.13h2.73v-3.2h-2.73z" fill="#fafafc"/><path d="m246.99 372.94c-4.84 2.46-8.12 1.17-11.71-2.1-21.02-19.13-42.29-37.99-63.43-56.99-3.75-3.37-7.84-5.54-13.03-4.83-.85.12-1.79.31-2.48.78-8.99 6.21-19.28 8.97-29.81 10.45-13.16 1.85-26.45 2.79-39.67 4.23-2.91.32-4.29-.8-4.82-3.56-.31-1.61-.99-3.15-1.54-4.86 6.55-4.23 13.76-6.2 21.12-7.58 7.14-1.34 14.41-1.98 21.49-3.54 9.27-2.05 17.04-6.56 21.6-15.56-9.53-6.94-20.21-9.55-31.64-9.84-4.58-.12-9.2-.11-13.71-.76-7.17-1.03-11.96-4.68-14.47-10.42 7.15-4.71 15.18-7.22 23.58-7.44 10.81-.29 21.64.45 32.47.74 13.54.37 26.66-1.05 37.83-9.7 1.41-1.09 2.44-3.08 2.95-4.85.98-3.4 1.46-6.94 2.33-11.34-6.7.38-12.95.29-19.06 1.19-11.27 1.66-22.45 3.98-33.69 5.87-6.44 1.08-12.92 1.47-19.16-1.12-4.21-1.75-6.75-4.94-7.71-9.69 9.44-2.28 18.8-4.41 28.09-6.8 19.95-5.13 40.08-9.23 60.64-10.9 4.98-.4 7.49-3.7 8.68-7.66 2.81-9.41 1.76-18.64-4.82-26.18-14.73-16.86-29.87-33.35-44.77-50.06-1.31-1.47-2.36-1.87-4.24-1.14-9.69 3.75-19.43 7.37-29.15 11.04-.83.31-1.8.55-2.41 1.13-6.28 5.93-14.05 7.97-22.32 8.9-4.43.5-8.84 1.19-13.63 1.85-.94-3.69-1.84-7.21-2.81-10.97 1.06-.67 2.04-1.35 3.08-1.93 20.47-11.51 40.92-23.04 61.44-34.47 1.55-.86 3.55-1.33 5.33-1.3 5.48.1 10.94.6 16.42.82 2.28.09 3.97.79 5.29 2.8 6.17 9.32 12.34 18.65 18.74 27.81 4.02 5.75 8.42 11.24 12.74 16.77.81 1.04 1.98 1.81 3.05 2.61 8.7 6.53 11.04 5.83 15.81-3.8 7.14-14.43 9.77-30.12 13.24-45.59.88-3.93 1.58-7.89 2.51-11.81.43-1.82-.09-2.74-1.68-3.76-8.93-5.74-17.84-11.53-26.6-17.53-5.1-3.5-9.61-7.72-12.31-13.48-1.85-3.95-2.38-8.05-1.67-12.42.41-2.5 1.69-3.32 3.94-3.63 7.58-1.04 14.36 1.25 20.87 4.78 3.93 2.13 7.83 4.31 11.84 6.29 1.89.93 3.95 1.58 5.99 2.11 6.51 1.68 7.93 1.05 11.32-4.67 4.61-7.79 9.32-15.54 13.78-23.42 1.24-2.19 2.58-2.82 4.83-2.06.52.18 1.11.17 1.65.3 8.22 1.93 10.55 6.89 6.73 14.44-1.01 1.99-2.29 3.85-3.33 5.82-1.67 3.16-3.68 6.23-4.79 9.58-4.96 14.9-3.43 15.69 6.74 23.56 4.05 3.13 8.69 5.49 12.98 8.32 5.4 3.57 8.82 8.29 7.76 15.14-.17 1.09-1.08 2.47-2.03 2.99-9.02 4.82-18.05 6.11-27.35.35-2.97-1.84-6.56-2.74-9.94-3.85-1.57-.51-2.94-.14-3.57 1.9-7.63 24.88-15.32 49.73-23.06 74.79 5.28 2.91 10.93 4.47 16.69 4.71 10.49.44 21 .14 31.5.32 6.03.1 12.05.53 18.07.83 3.74.19 6.38 2.22 8.68 5.02 5.52 6.72 9.06 14.4 10.79 22.82 2.6 12.63 4.05 25.4 3.77 38.33-.1 4.51-3.32 7.57-7.92 7.13-3.09-.3-6.17-1.07-9.17-1.93-.83-.24-1.57-1.43-2-2.35-4.13-8.82-5.42-18.38-7.31-27.8-.91-4.57-2.57-8.99-4.04-13.44-.65-1.96-1.99-2.83-4.35-2.67-19.97 1.42-39.95 2.69-59.92 4.09-.86.06-2.03.83-2.43 1.6-4.08 7.76-3.87 7.61 2.21 13.77 12.43 12.57 24.99 25.04 36.81 38.18 4.91 5.46 8.66 12.22 11.81 18.92 3.48 7.39 2.4 8.37-5.37 10.59-3.25.93-5.18.21-7.49-2.19-16.05-16.71-32.29-33.24-48.45-49.84-.85-.87-1.56-1.89-2.6-3.17-3.24 5.7-4.18 11.22-4.42 16.89-.17 4.25-.25 8.51-.16 12.75.17 8.09-3.78 13.88-10.21 18.12-3.91 2.58-5.84 6.1-6.11 10.56-.06 1.05.63 2.61 1.48 3.19 14.85 10.11 28.54 21.64 41.36 34.17 8.67 8.47 15.85 17.97 17.91 30.4.29 1.77.29 3.56.42 5.25zm-93.36-96.27c6.1 9.22 17.54 7.41 26.21-4.82-1.9-1.02-4.1-3.2-5.5-2.77-6.99 2.15-13.78 4.98-20.71 7.59z" fill="#010101"/></svg>