<svg enable-background="new 0 0 400 400" viewBox="0 0 400 400" xmlns="http://www.w3.org/2000/svg"><g fill="#fbfafa"><path d="m37.59 393.81c-.92.31-1.52.05-2-.78-.7-1.2-1.52-2.34-2.47-3.78v4.59c-.55.03-.95.05-1.41.07-.03-.37-.06-.64-.06-.91 0-1.91 0-3.81 0-5.7 1.13-.41 1.77-.03 2.29.91.62 1.11 1.38 2.14 2.31 3.19v-4.2h1.35v6.61z"/><path d="m12.94 393.88v-6.75c1.9.19 3.93-.54 5.37 1.29.8 1.01.78 2.88.03 3.97-1.37 1.97-3.4 1.51-5.4 1.49m1.45-1.22c2.04.12 2.92-.58 2.89-2.21-.03-1.51-.98-2.19-2.89-2z"/><path d="m11.81 393.87h-5.49c.68-2.18 2.47-3.48 3.51-5.45h-3.08v-1.21h5.29c-.71 2.13-2.44 3.48-3.47 5.51.86 0 1.63.04 2.39-.01.79-.05 1.14.21.85 1.16"/><path d="m39.33 393.86v-6.61h3.7v1.07h-2.22v1.52c.68.04 1.34.09 2.07.13v1.07c-.72.05-1.38.09-2.1.14v1.48h2.4v1.19h-3.85z"/><path d="m27.71 388.56c-1.15-.3-2.46-.61-3.1.64-.37.73-.41 1.93-.06 2.67.63 1.35 1.99.93 3.17.68.35.94-.01 1.32-.93 1.46-1.62.25-3.05-.27-3.76-1.48-.73-1.24-.6-3.03.31-4.17.88-1.11 2.71-1.7 4-1.16.32.13.44.74.65 1.12-.1.08-.19.16-.28.24"/><path d="m49.15 387.24v1.07c-.59.02-1.17.05-1.87.08v5.44h-1.48v-5.44h-1.85c-.05-.4-.08-.73-.13-1.15z"/><path d="m20.06 387.21h1.33v6.62h-1.33z"/><path d="m30.68 393.25c-.49.38-.8.79-1.05.76-.32-.05-.6-.45-.9-.7.26-.24.51-.64.8-.67.29-.04.62.3 1.15.61"/></g><path d="m219.92 303.2c-2.4-5.82-4.6-10.91-6.6-16.08-1.62-4.19-3.62-7.92-8.09-9.72-2.11-.85-3.71-.77-5.26 1.18-2.3 2.88-4.74 5.68-7.38 8.26-2.14 2.08-2.62 4.38-1.7 6.98 1.71 4.83 3.63 9.59 5.41 14.4.92 2.5 2 5 2.5 7.6.55 2.81-.24 5.36-3.45 6.78-3.77-3.33-7.67-6.59-8.85-12.03-.31-1.44-1.13-2.99-2.18-4.01-1.8-1.74-3.58-2.06-5.52.45-7.14 9.25-10.99 19.97-13.68 31.08-2.24 9.21-3.74 18.6-5.49 27.93-.89 4.72-3.15 8.05-8.82 9.08-.2-2.13-.73-4.18-.52-6.15 1-9.56 2-19.12 3.37-28.63 1.88-13.01 6.08-25.41 10.8-37.63.27-.7.75-1.4 1.3-1.91 8.84-8.18 12.52-18.27 13.6-30.31.98-10.8 4.25-21.44 7.1-31.99.99-3.65 3.89-6.74 5.64-10.23.68-1.35.98-3.17.74-4.66-.64-3.97-1.53-7.91-2.63-11.78-.45-1.58-1.69-2.94-2.84-4.85-5.57 7.3-7.18 16.99-18.28 19.39 1.84-6.23 3.02-11.79 5.13-16.97 2.43-5.98 5.42-11.78 8.63-17.39 6.42-11.23 8.19-23.03 5.37-35.59-.54-2.4-.97-4.82-1.41-7.24-1.58-8.55-3.26-10.45-12.21-13.24-2.31 4.26-4.83 8.57-7.03 13.04-2.37 4.81-4.25 9.86-6.69 14.63-2.56 5-5.64 9.66-12.78 11.65 1.47-4.3 2.68-7.78 3.86-11.27.6-1.77 1.19-3.55 1.71-5.34 1.06-3.61 1.63-7.44 3.19-10.8 3.06-6.58 6.83-12.83 9.98-19.37 1.74-3.6 2.78-7.53 4.22-11.28.55-1.44 1.07-3.01 2.04-4.15 3.05-3.58 6.1-3.16 8.13 1.02 1.47 3.02 2.8 6.11 4.19 9.17.6-.07 1.2-.15 1.81-.22 1.07-6.67 2.49-13.31 3.09-20.03.43-4.86.03-9.83-.46-14.71-.45-4.49-1.19-4.9-5.81-4.9-1.78 0-3.6.54-5.34.32-1.51-.19-3.37-.72-4.32-1.78-2.22-2.47-1.71-4.07 1.25-5.63 4.15-2.2 8.21-4.6 12.49-6.5 3.04-1.35 4.57-3.6 4.98-6.57.55-3.97.78-7.99.98-11.99.27-5.45-.15-11 .7-16.35 1.03-6.51 3.28-7.18 8.59-3.56 5.08 3.46 6.27 7.26 3.94 12.97-1.95 4.78-3.87 9.48-2.9 14.89.44 2.48 1.75 3.42 3.85 3.06 2.82-.48 5.56-1.45 8.35-2.13.92-.22 2.46-.61 2.72-.23.53.76.69 2.08.45 3.02-1.29 5.06-3.43 9.42-9.31 10.51-4.48.83-6.28 3.73-6.56 8.18-.75 11.83-1.76 23.63-2.61 35.45-.33 4.65-.51 9.32-.75 13.88 3.09.94 4.89.18 6.41-2.4 2.15-3.65 4.53-7.26 7.35-10.39 2-2.22 4.69-4.13 7.45-5.25 2.69-1.09 5.33-.16 6.99 2.86 4.48 8.13 7.31 16.84 8.76 25.92 1.14 7.12 3.02 13.94 5.78 20.57.64 1.54 1.16 3.13 1.74 4.74-2.75 1.54-4.58 1.13-6.41-1.58-3.81-5.65-7.93-11.12-12.1-16.52-1.73-2.24-2.69-4.52-2.56-7.35.06-1.44-.2-2.9-.32-4.35-.18-2.33-1.19-3.93-3.54-4.75-2.49-.87-3.15 1.19-4.13 2.46-3.12 4.05-6.59 7.4-11.72 8.95-4 1.21-5.12 3.39-4.52 7.69.58 4.08 1.89 8.09 2.19 12.18.5 6.9.41 13.85.65 20.77.18 5.3 1.67 9.83 6.13 13.45 3.88 3.15 7.18 7.06 10.47 10.87 3.51 4.06 5.96 8.64 4.99 14.59-3.56-.56-6.46-1.49-8.86-4.55-2.9-3.7-6.61-6.77-9.97-10.11-.44.16-.89.33-1.33.49-.68 2.48-1.81 4.94-1.96 7.45-.61 10.68.48 20.84 5.4 30.9 4.46 9.11 6.56 19.38 9.69 29.15 1.57 4.89 3.05 9.81 4.64 14.7 1.24 3.76 1.49 7.4-1.86 11.81zm-27.66-32.95c2.78-3.26 8.37-3.63 7.85-9.57-.28-3.19-.83-5.91-4.01-7.34-4.73 4.39-6.56 11.81-3.84 16.91z" fill="#010000"/><path d="m186.71 30.76c1.17-1.7-.27-4.89 2.99-5.24.9-.1 1.95 1.25 2.93 1.93-1.63 1.43-3.26 2.86-4.89 4.29-.34-.33-.68-.66-1.03-.98z" fill="#010000"/></svg>