<svg enable-background="new 0 0 400 400" viewBox="0 0 400 400" xmlns="http://www.w3.org/2000/svg"><path d="m141.66 374.42c-.36-4.89.98-8.06 5.48-10.74 27.77-16.55 52.42-37.11 74.47-60.64 12.9-13.77 20.96-30.18 20.75-49.54-.08-7.07-1.73-14.14-2.8-21.19-.15-.99-.95-2.01-1.71-2.76-4.76-4.73-9.52-9.48-14.44-14.05-3.84-3.56-8.26-6.25-13.67-6.42-1.29-.04-3.14.68-3.84 1.68-11.18 15.93-24.63 29.79-38.33 43.53-7.24 7.26-12.95 16.02-19.87 23.62-5.25 5.76-11.1 11.06-17.16 15.98-2.71 2.2-6.57 2.99-10.53 4.69-.42-6.44 1.56-11.18 4.23-15.7 10.72-18.21 21.5-36.39 32.22-54.6 7.43-12.62 15.05-25.14 22.02-38.01 2.08-3.84 2.47-8.68 3.2-13.13.18-1.11-1.03-2.85-2.09-3.67-2.56-1.97-5.33-3.72-8.17-5.27-1.83-1-3.88-1.8-5.92-2.14-4.13-.69-7.29.4-9.88 4.35-12.18 18.6-28.83 32.9-45.78 46.9-13.11 10.83-26.1 21.79-39.09 32.77-4.53 3.83-9.52 6.13-16.55 5.91.56-2.63.69-5.16 1.62-7.33 5.56-12.92 15.82-22.65 23.5-34.15 6.32-9.46 14.43-17.27 22.43-25.28 12.64-12.65 25-25.63 36.85-39.02 6.75-7.63 11.35-16.83 14.23-27.59-4.96 1.26-9.66 1.92-13.92 3.65-9.61 3.91-19.15 8.05-28.44 12.65-9.26 4.58-18.46 9.06-28.82 10.51-12.11 1.7-23.3-1.42-34-6.71-5.64-2.79-8.01-7.82-8.69-14.23 6.57-1.13 13.15-2.28 19.73-3.39 13.67-2.3 27.42-4.22 40.99-7.02 6.5-1.34 12.68-4.29 18.97-6.61 20.54-7.59 40.94-15.6 61.65-22.7 9.99-3.43 20.56-5.19 30.87-7.69 10.64-2.58 21.22-5.55 31.97-7.54 6.74-1.25 13.76-1.46 20.64-1.32 12.07.24 24.15.8 36.18 1.81 13.25 1.11 25.93 4.84 37.93 10.58 16.87 8.06 23.11 27.64 14.25 44.08-.47.87-.93 1.93-1.7 2.44-8.37 5.54-16.24 12.05-26.03 15.03-3.99 1.21-8.24 1.53-12.09 2.21-2.17-3.54-1.02-5.54 1.12-7.84 7.41-7.97 13.46-16.87 14.98-27.93.6-4.35.07-8.9-.33-13.33-.09-1.06-1.51-2.39-2.63-2.92-14.24-6.72-29.36-8.31-44.85-7.29-21.9 1.46-42.87 7.67-64.04 12.82-11.72 2.85-23.27 6.4-34.96 9.41-3.13.81-4.81 2.42-5.35 5.7 9.52 6.11 19.91 10.17 30.98 12.86 11.81 2.87 24.1 4.35 35.04 10.02 26.22 13.58 51.07 29.23 72.4 49.91 6.41 6.22 12.61 12.68 18.55 19.34 2.31 2.59 3.69 6.03 5.42 9.13 1.11 1.98-.11 2.89-1.83 3.35-3.38.9-6.37-.1-9.21-1.95-7.4-4.83-14.81-9.62-22.25-14.39-27.42-17.59-55.83-33.41-84.89-48.09-6.77-3.42-13.17-7.59-19.7-11.5-5.37-3.22-11.1-4.83-17.31-3.67-1.5.28-3.25 1.47-4.06 2.76-2.44 3.86-4.48 7.98-6.81 12.23.93.56 1.72 1.11 2.58 1.55 8.47 4.3 16.86 8.77 25.46 12.8 4.69 2.2 8.38 5.3 11.79 9.11 2.41 2.7 5.32 5.09 8.38 7.04 7.27 4.61 15.2 8.29 22.07 13.4 17.92 13.33 30.06 30.39 29.97 53.72-.06 14.09-5.18 27.03-12.42 38.87-5.64 9.23-12.12 18.02-18.92 26.45-10.66 13.22-23.96 23.36-38.96 31.34-12.98 6.84-47.12 20.05-60.88 23.15z" fill="#010104"/><path d="m106.11 63.45c9.52-4.1 19.04-8.2 28.56-12.29 11.6-4.98 23.49-9.39 34.7-15.12 7.73-3.95 15.14-8.04 23.95-8.78 4.57-.39 9.15-.75 13.68-1.41 13.02-1.88 25.89-.74 38.67 1.84 6.61 1.34 10.31 5.01 10.8 9.9.23 2.3-.29 3.51-2.79 4.33-15.78 5.21-32.08 7.96-48.42 10.52-15.03 2.36-29.97 4.96-44.13 10.88-6.94 2.9-14.21 3.48-21.71 2.9-11.01-.86-22.05-1.37-33.08-2.02-.07-.24-.15-.49-.23-.75z" fill="#010104"/><g fill="#fcfbfa"><path d="m385.2 377.6.6-.7c.6.4 1.3.9 1.9 1.5l-.6.7c-.8-.5-1.4-1-1.9-1.5zm.3 7.1c.6-1.4 1.1-2.9 1.5-4.5.3.1.6.3.9.4-.5 1.4-1 2.9-1.5 4.4zm.2-10.1.6-.6c.7.5 1.3 1.1 1.9 1.6l-.7.7c-.6-.6-1.2-1.2-1.8-1.7zm8.4-.8h.8v.9h1.8v.7h-1.8v1.8h-.8v-.3h-1.2v.9h3.3v2.6h-.8v-.4h-2.5c0 .3 0 .6-.1.8h3.4v.7h-3.5c0 .3-.1.6-.1.8h4v.7h-3.5c.7.9 1.9 1.3 3.6 1.5-.2.2-.4.5-.6.9-1.9-.3-3.2-1.1-3.8-2.3-.5 1.1-1.8 2-3.9 2.4-.2-.3-.4-.5-.6-.8 1.9-.4 3.1-.9 3.6-1.7h-3.2v-.7h3.5c.1-.2.1-.5.2-.8h-3.3v-.7h3.4c0-.2 0-.5 0-.8h-2.4v.3h-.8v-2.6h3.3v-.9h-1.2v.3h-.8v-1.8h-1.8v-.7h1.8v-.9h.8v.9h3.2zm-4.4 5.5h2.4c0-.3 0-.6 0-.9h-2.4zm1.2-3.1h3.2v-.8h-3.2zm4.4 2.2h-2.4v.9h2.5v-.9z"/><path d="m389.2 385.8h.9v1.5h1.9v-1.5h.9v1.5h2.7v6h1.1v.9h-11.3v-.9h1.1v-6h2.7zm.2 8.7.5.8c-1.2.6-2.5 1.3-4 1.9-.2-.3-.3-.6-.6-.8 1.6-.6 3-1.3 4.1-1.9zm-2-4.3h1.9v-2.1h-1.9zm0 3.1h1.9v-2.2h-1.9zm2.7-3.1h1.9v-2.1h-1.9zm0 3.1h1.9v-2.2h-1.9zm2.4 1.3c1.4.6 2.7 1.2 4.1 1.8l-.5.9c-1.5-.7-2.8-1.4-4.1-1.9zm2.2-6.5h-1.9v2.1h1.9zm-1.9 5.2h1.9v-2.2h-1.9z"/></g></svg>