<svg enable-background="new 0 0 400 400" viewBox="0 0 400 400" xmlns="http://www.w3.org/2000/svg"><path d="m67.71 265.06c0-2.76-.69-5.53.14-7.71 1.82-4.77 3.97-9.54 6.79-13.78 9.54-14.35 19.41-28.47 29.2-42.65.94-1.36 2.07-2.64 3.3-3.76 17.95-16.36 35.93-32.69 53.92-49.01 5.46-4.95 9.5-10.67 10.42-18.2.07-.54.01-1.09.01-1.89-4.83-1.27-9.66-2.62-14.54-3.76-.97-.23-2.19.14-3.19.52-15.16 5.71-30.3 11.47-45.45 17.23-.83.32-1.73.59-2.42 1.13-8.97 6.97-19.16 7.45-29.71 5.37-10-1.97-19.81-4.69-28.74-9.82-1.4-.8-2.43-2.24-4.29-4.01 5.9-1.68 10.75-3.3 15.72-4.44 18.3-4.2 35.26-12 52.56-18.96 29.78-11.98 60.77-19.7 92.34-25.21 21.07-3.68 42.3-6.34 63.69-6.55 18.28-.18 36.37 2.37 53.89 7.87 6.08 1.91 11.37 5.27 14.45 11.24.15.3.35.58.49.88 3.29 7.03 1.96 10.55-5.61 11.74-5.4.85-11.2.86-16.58-.12-15.06-2.76-29.94-6.86-45.41-6.12-13.73.66-27.46 1.54-41.12 3-9.87 1.05-19.64 3.08-29.4 4.98-2.54.49-5.07 1.82-7.19 3.34-1.1.79-1.66 2.83-1.7 4.33-.02.63 1.82 1.6 2.96 1.96 21.08 6.67 42.34 12.82 63.24 20.02 22.81 7.86 43.88 19.12 61.53 35.96 6.69 6.38 14.1 12.33 17.56 21.32 1.51 3.92 2.45 8.12 3.09 12.28.61 4-3.25 6.64-7.01 4.98-1.7-.75-3.38-1.84-4.68-3.15-16.02-16.19-34.59-29.03-53.77-41.06-1.49-.93-3.2-1.6-4.88-2.12-21.25-6.55-42.54-12.97-63.75-19.67-3.24-1.02-4.69-.23-5.76 2.65-.54 1.44-1.39 2.75-2.33 4.58 4.57 2.37 8.79 4.9 13.28 6.8 7.36 3.11 13.44 7.66 17.47 14.56 7.68 13.13 18.48 22.46 32.31 28.89 18.5 8.6 25.74 24.76 26.46 44.06.29 7.93-1.03 16.05-2.59 23.89-2.02 10.11-7.09 18.64-15.39 25.22-8.33 6.6-16.21 13.83-27 16.3-6.09 1.4-12.17 1.26-18.59-.14 0-2.96-.16-5.85.08-8.71.09-1.04.96-2.18 1.78-2.96 6.06-5.81 12.19-11.54 18.3-17.3 7.45-7.02 12.07-15.47 12.8-25.8.09-1.22-.26-2.67-.9-3.71-5.25-8.57-10.75-17-15.91-25.63-4.2-7.03-8.87-13.46-16.62-16.94-.51-.23-1.01-.47-1.53-.67-6.48-2.5-6.63-2.61-10.68 2.97-13.79 19-30.52 35.41-46.11 52.84-1.55 1.73-2.92 3.67-4.14 5.65-5.55 9.05-11.1 18.09-16.46 27.26-1.5 2.57-3.02 5.45-3.31 8.31-.35 3.39.27 7.01 1.09 10.37 2.97 12.07 12.66 16.58 23.15 20.27 17.51 6.16 35.58 7.73 53.92 6.64 21.26-1.27 42.41-3.84 62.65-10.7 13.83-4.69 27.21-10.71 40.75-16.25 8.38-3.43 16.66-7.08 24.99-10.63 3.48-1.48 6.8.84 5.68 4.49-1.46 4.8-3.02 9.85-7.67 12.9-27.22 17.85-56.44 31.37-87.87 39.88-18.86 5.1-38.04 6.43-57.53 4.31-9.65-1.05-19.43-.97-29.15-1.31-8.25-.29-16.09-2.47-22.82-6.98-4.35-2.91-7.8-7.33-11.22-11.43-5.98-7.15-11.99-14.66-12.84-24.23-.56-6.32.56-12.91 1.76-19.22 1.98-10.42 4.59-20.73 7.05-31.05.4-1.68 1.25-3.33 2.2-4.8 10.98-17.08 24.54-32.19 36.92-48.2 8.23-10.63 16.22-21.49 19.59-34.83 1.36-5.39 2.11-10.96 2.89-16.48.44-3.1-4.45-7.57-8.54-7.2-3.06.27-6.64 1.19-8.88 3.11-24.51 21.11-48.99 42.26-73.04 63.89-6.6 5.93-11.69 13.52-17.6 20.23-4.29 4.81-9.77 7.64-16.5 8.94z" fill="#010104"/><path d="m100.54 46.58c7.31-.88 13.52-1.54 19.69-2.4 13.37-1.87 25.93-6.69 38.68-10.81 12.6-4.07 25.51-6.8 38.7-7.78 4.48-.33 9.07 1.13 13.63 1.33 8.7.38 17.42.35 26.13.65 8.54.29 14.29 4.22 16.52 10.81.85 2.51.5 3.94-2.08 5.3-7.93 4.17-16.44 6.07-25.21 5.92-18.16-.32-35.36 3.83-52.59 9.02-9.17 2.76-17.17 6.64-23.62 13.62-4.32 4.67-9.38 4.57-14.75 2.53-10.47-3.98-19.82-9.77-27.53-17.92-2.71-2.88-4.74-6.39-7.57-10.27z" fill="#010104"/><g fill="#fcfbfa"><path d="m385.2 377.6.6-.7c.6.4 1.3.9 1.9 1.5l-.6.7c-.8-.5-1.4-1-1.9-1.5zm.3 7.1c.6-1.4 1.1-2.9 1.5-4.5.3.1.6.3.9.4-.5 1.4-1 2.9-1.5 4.4zm.2-10.1.6-.6c.7.5 1.3 1.1 1.9 1.6l-.7.7c-.6-.6-1.2-1.2-1.8-1.7zm8.4-.8h.8v.9h1.8v.7h-1.8v1.8h-.8v-.3h-1.2v.9h3.3v2.6h-.8v-.4h-2.5c0 .3 0 .6-.1.8h3.4v.7h-3.5c0 .3-.1.6-.1.8h4v.7h-3.5c.7.9 1.9 1.3 3.6 1.5-.2.2-.4.5-.6.9-1.9-.3-3.2-1.1-3.8-2.3-.5 1.1-1.8 2-3.9 2.4-.2-.3-.4-.5-.6-.8 1.9-.4 3.1-.9 3.6-1.7h-3.2v-.7h3.5c.1-.2.1-.5.2-.8h-3.3v-.7h3.4c0-.2 0-.5 0-.8h-2.4v.3h-.8v-2.6h3.3v-.9h-1.2v.3h-.8v-1.8h-1.8v-.7h1.8v-.9h.8v.9h3.2zm-4.4 5.5h2.4c0-.3 0-.6 0-.9h-2.4zm1.2-3.1h3.2v-.8h-3.2zm4.4 2.2h-2.4v.9h2.5v-.9z"/><path d="m389.2 385.8h.9v1.5h1.9v-1.5h.9v1.5h2.7v6h1.1v.9h-11.3v-.9h1.1v-6h2.7zm.2 8.7.5.8c-1.2.6-2.5 1.3-4 1.9-.2-.3-.3-.6-.6-.8 1.6-.6 3-1.3 4.1-1.9zm-2-4.3h1.9v-2.1h-1.9zm0 3.1h1.9v-2.2h-1.9zm2.7-3.1h1.9v-2.1h-1.9zm0 3.1h1.9v-2.2h-1.9zm2.4 1.3c1.4.6 2.7 1.2 4.1 1.8l-.5.9c-1.5-.7-2.8-1.4-4.1-1.9zm2.2-6.5h-1.9v2.1h1.9zm-1.9 5.2h1.9v-2.2h-1.9z"/></g></svg>