<svg enable-background="new 0 0 400 400" viewBox="0 0 400 400" xmlns="http://www.w3.org/2000/svg"><path d="m361.2 9.6.8-1c.9.7 1.9 1.4 2.9 2.3l-.9 1.1c-1-1-2-1.8-2.8-2.4zm.5 10.6c.9-2.1 1.6-4.3 2.3-6.7.4.2.8.4 1.3.6-.7 2.1-1.5 4.3-2.2 6.6zm.4-15.2.9-.9c1 .8 2 1.6 2.8 2.4l-1 1c-.9-.9-1.8-1.7-2.7-2.5zm12.5-1.2h1.2v1.4h2.7v1.1h-2.7v2.7h-1.2v-.6h-1.8v1.3h4.9v3.8h-1.2v-.5h-3.7c0 .4-.1.9-.1 1.2h5.1v1h-5.2c0 .5-.1.9-.2 1.2h6v1h-5.2c1.1 1.3 2.9 2 5.5 2.2-.4.4-.7.8-.9 1.3-2.9-.5-4.8-1.6-5.7-3.5h-.1c-.8 1.7-2.7 2.9-5.9 3.6-.2-.4-.6-.8-.9-1.1 2.8-.6 4.6-1.4 5.4-2.5h-4.8v-1h5.3c.1-.3.2-.7.2-1.2h-4.9v-1h5c0-.4 0-.8.1-1.2h-3.5v.5h-1.2v-3.8h4.9v-1.3h-1.8v.5h-1.2v-2.7h-2.7v-1h2.6v-1.4h1.2v1.4h4.7v-1.4zm-6.6 8.3h3.6c0-.4 0-.9 0-1.4h-3.6zm1.9-4.6h4.7v-1.3h-4.7zm6.6 3.2h-3.7v1.4h3.7z" fill="#fbfcfa"/><path d="m385.3 3.8h1.3v2.2h2.8v-2.2h1.3v2.2h4.1v9.1h1.7v1.3h-16.9v-1.3h1.7v-9.1h4.1v-2.2zm.4 13.1.7 1.2c-1.8.9-3.8 1.9-6 2.9-.2-.4-.5-.8-.8-1.3 2.3-1 4.3-1.9 6.1-2.8zm-3.1-6.4h2.8v-3.2h-2.8zm0 4.6h2.8v-3.3h-2.8zm4-4.6h2.8v-3.2h-2.8zm0 4.6h2.8v-3.3h-2.8zm3.7 1.9c2.1.9 4.1 1.8 6.1 2.7l-.7 1.3c-2.2-1.1-4.2-2-6.1-2.9zm3.2-9.7h-2.8v3.2h2.8zm-2.8 7.8h2.8v-3.3h-2.8z" fill="#fbfcfa"/><g fill="#010105"><path d="m125.99 191.76c-7.95 1.18-15.88 2.49-23.86 3.48-4.64.58-9.16-.18-13.03-3.15-3.64-2.8-3.79-8.72.22-10.96 7.48-4.18 14.96-8.72 23-11.47 20.42-6.98 39.51-16.51 58.28-27.02 8.1-4.53 17.16-7.43 25.94-10.65 12.8-4.69 25.85-8.69 38.57-13.57 7.72-2.97 15.68-3.2 23.65-4.05 3.16-.33 6.48-.85 9.34-2.14 8.32-3.76 17.35-4.11 26.06-5.94 1.86-.39 3.75-.62 5.63-.91 4.36-.68 7.92 1.67 7.89 5.95-.04 6.69-.7 12.81-7.03 17.73-8.61 6.69-18.25 11.21-27.83 15.95-2.62 1.29-2.98 2.78-2.99 5.39-.01 4.4 1.78 7.22 5.52 9.38 5.9 3.42 11.65 7.09 17.39 10.77 4.34 2.78 7.1 6.51 6.13 12.02-.92 5.24-5.05 9.04-10.35 9.26-4.86.21-9.17-1.11-12.72-4.81-9.23-9.6-18.56-19.1-27.99-28.51-.99-.99-2.95-1.65-4.34-1.47-2.72.35-5.76.8-7.95 2.27-9.21 6.2-19.73 8.02-30.26 10.19-14.65 3.02-29.23 6.43-43.77 9.97-5.59 1.36-5.18 2.12-4.58 7.85.98 9.41 1.73 18.92 1.47 28.35-.24 8.65-5.3 15.24-12.23 20.26-2.99 2.16-5.99 4.34-9.16 6.21-10.5 6.19-18.16 15.41-26.3 24.16-3.61 3.88-8.05 6.32-13.47 6.77-4.86.4-6.77-1.21-6.81-6.1-.04-4.66 1.75-8.7 4.52-12.36 11.21-14.8 22.61-29.47 33.48-44.52 2.62-3.63 4.12-8.41 5.01-12.88.86-4.31-.17-4.85-4.68-5.01-.89-.03-1.79 0-2.68 0-.03-.15-.05-.29-.07-.44z"/><path d="m99.23 156.12c-3.76-.51-7.42.7-9.33-3.38-1.51-3.22-1.38-5.98 1.55-7.87 5.13-3.32 10.17-7.43 15.87-9.12 15.7-4.68 29.3-13.06 42.75-21.9 7.76-5.1 15.35-10.5 23.46-14.97 9.95-5.49 20.34-10.19 30.59-15.14 19.61-9.48 39.29-18.82 58.87-28.35 8.96-4.36 18.38-6.89 28.24-7.94 5-.53 10.67 2.54 12.58 6.68 1.95 4.22.79 10-2.7 13.62-9.07 9.39-19.35 16.88-32.05 20.64-15.22 4.5-29.14 11.85-42.79 19.76-1.16.67-2.28 1.54-3.54 1.9-8.54 2.44-15.13 8.46-22.83 12.31-10.34 5.18-21.32 9.08-32.04 13.51-1.44.6-3 .95-4.4 1.63-17.84 8.69-37.45 11.71-56.19 17.51-2.73.83-5.73.8-8.04 1.11z"/><path d="m248.87 25.78c7.16 0 14.32.15 21.47-.05 5.6-.16 10 2.84 14.69 5.06 1.83.86 1.02 5.91-1.11 7.59-6.95 5.46-15.02 7.54-23.7 8.14-7.68.54-15.6.5-22.94 2.48-10.06 2.72-19.88 6.63-29.42 10.87-17.64 7.85-34.98 16.37-52.51 24.46-4.04 1.86-8.3 3.37-12.59 4.52-2.36.64-5.04 0-7.53.3-9.76 1.17-19.5 2.54-29.27 3.7-1.56.18-3.86.22-4.68-.7-1.92-2.15-2.48-5.12-.97-7.81 1.91-3.4 4.29-6.21 8-8.19 22.87-12.18 45.62-24.59 68.37-36.99 13.46-7.34 27.94-11.32 43.08-12.74 9.66-.91 19.39-.94 29.09-1.37.01.26.01.5.02.73z"/><path d="m238.38 279.1c-2.2.27-4.76.55-7.3.91-8.96 1.26-15.26-2.49-18.36-10.95-.27-.73-.38-1.55-.77-2.21-3.6-6.03-.28-11.39 1.66-16.85.3-.85 1.32-1.48 2.09-2.12 6.37-5.29 12.76-10.55 19.14-15.82 6.35-5.25 11.32-11.39 13.1-19.71.45-2.12.19-3.54-1.8-4.75-5.81-3.55-11.53-7.27-17.28-10.92-4.66-2.96-7.86-6.85-8.48-12.58-.25-2.34.21-3.57 2.74-4.37 3.22-1.02 5.93-.9 8.9.77 6.46 3.64 13.2 6.44 20.89 6.19 11.71-.39 20.31 5.83 28.03 13.67 3.39 3.44 5.42 7.55 5.82 12.49.45 5.65-1.38 10.09-6.84 12.02-6.16 2.19-12.46 4.15-18.85 5.51-11.55 2.46-21.02 7.95-28.06 17.46-.97 1.31-1.77 2.88-2.2 4.45-1.02 3.82-.16 6.03 3.45 7.48 7.35 2.94 14.82 5.57 22.26 8.26 3.15 1.14 6.4 1.98 9.54 3.16 11.55 4.31 17.87 13.65 16.51 25.93-.69 6.22-2.67 12.41-4.86 18.32-3.09 8.37-6.69 16.57-10.53 24.63-1.64 3.45-4.41 6.36-6.68 9.5-.26.36-.62.84-.98.88-2.33.29-4.67.48-7 .7-.03-2.03-.8-4.46.04-6.03 6.1-11.5 6.86-24.17 8.34-36.65.85-7.14-1-14.08-4.15-20.46-2.56-5.19-7.55-7.4-13.01-8.45-1.62-.31-3.32-.29-5.36-.46z"/><path d="m157.36 375.02c-2.27 0-4.15.13-6-.07-.68-.07-1.59-.81-1.85-1.47-2.24-5.48-4.51-10.82-8.72-15.29-1.71-1.81-1.97-5.14-2.54-7.85-3.36-15.95-3.75-32.09-.66-48 1.18-6.06 5.3-11.62 8.42-17.22 1.28-2.29 3.5-4.04 5.18-6.13 4.86-6.04 7.42-12.75 5.32-20.55-2.32-8.62.34-16 5.15-23.01 2.72-3.96 5.25-8.04 7.74-12.15 3.63-5.99 3.93-12.53 2.53-19.15-1.1-5.2-1.13-10.07 2.78-14.11.95-.99 2.63-1.85 3.96-1.82 12.86.21 24.96 3.71 36.29 9.58 8.67 4.49 12.95 13.24 11.59 22.66-.19 1.28-1.26 2.88-2.38 3.5-4.98 2.74-10.29 3.25-15.91 2.1-4.13-.84-8.38-1.37-12.6-1.5-6.1-.18-10.07 2.4-11.88 8.33-1.58 5.18-2.27 10.65-3.1 16.02-.51 3.31-.88 6.7-.75 10.03.16 4.1-1.37 7.43-3.8 10.44-3.58 4.44-7.01 9.04-11.03 13.06-9.36 9.36-15.65 19.98-15.98 33.61-.14 5.81-.79 11.6-1.25 17.4-.87 10.9 2.43 20.97 6.03 31.01 1.19 3.35 2.21 6.76 3.46 10.58z"/></g></svg>