<svg enable-background="new 0 0 400 400" viewBox="0 0 400 400" xmlns="http://www.w3.org/2000/svg"><path d="m374.8 390.4.4-.4c.7.5 1.3 1 1.8 1.4l-.5.5c-.5-.6-1.1-1.1-1.7-1.5zm1 7.3-.6-.3c.5-1.4 1.1-2.8 1.5-4.3.2.1.4.2.6.3-.5 1.3-1 2.8-1.5 4.3zm-.4-10.3.4-.4c.4.3 1 .8 1.7 1.4l-.5.5c-.4-.5-1-1-1.6-1.5zm2.5.3h1.7v-1h.6v1h3.5v-1h.6v1h1.8v.5h-1.8v1.4h-2v1h3.2v2h-3.2v.9h3.3v.5h-3.4c0 .3-.1.6-.1.9h4v.5h-3.7c.7.9 1.9 1.5 3.8 1.7-.1.2-.2.4-.3.6-2.1-.4-3.5-1.1-4-2.1-.4 1-1.8 1.7-4 2.2-.1-.2-.2-.4-.3-.6 2.1-.4 3.4-1 3.8-1.8h-3.4v-.5h3.6c.1-.3.1-.6.2-.9h-3.3v-.5h3.4c0-.3 0-.6 0-.9h-3.2v-2h3.3v-1h-2.1v-1.4h-1.7v-.5zm1.1 3.5v1h2.7c0-.3 0-.4 0-.4 0-.1 0-.2 0-.2 0-.1 0-.2 0-.3h-2.7zm1.2-3v.9h3.5v-.9zm4.7 3h-2.6v.6.4h2.6z" fill="#fbfcfa"/><path d="m393.6 386.7h.6v1.5h2.7v6.1h1.1v.6h-11v-.6h1.1v-6.1h2.7v-1.5h.6v1.5h2.1v-1.5zm-2.7 8.8.4.6c-1.2.6-2.5 1.3-3.8 1.9-.1-.2-.2-.4-.3-.6 1.2-.6 2.5-1.2 3.7-1.9zm-2.2-6.7v2.4h2.1v-2.4zm0 3v2.5h2.1v-2.5zm2.8-3v2.4h2.1v-2.4zm0 3v2.5h2.1v-2.5zm6 6.1c-1.4-.7-2.7-1.3-3.9-1.8l.3-.6c1.5.6 2.7 1.2 3.9 1.7zm-1.2-9.1h-2.1v2.4h2.1zm-2.1 3v2.5h2.1v-2.5z" fill="#fbfcfa"/><g fill="#010106"><path d="m278.8 305.19c-19.63-70.59-32.58-141.92-23-215.99-9.32-3.06-18.64-6.12-27.96-9.18-.96-.31-1.9-.72-2.87-.92-13.53-2.76-23.8-11.49-34.69-19.04-2.43-1.68-4.43-2.1-7.29-1.03-7.54 2.81-15.24 5.16-22.83 7.84-2.07.73-4.09 1.8-5.91 3.05-9.32 6.38-18.53 12.94-27.89 19.27-1.96 1.32-2.52 2.72-2.34 4.95 1.67 21.76 2.92 43.56 4.99 65.28 1.92 20.14.99 40.24.58 60.37-.61 30.44-1.23 60.88-2.26 91.31 0-38.6-.27-77.2.12-115.79.18-17.99-1.82-35.73-3.76-53.52-1.95-17.79-3.93-35.58-5.75-53.39-.11-1.08.73-2.82 1.66-3.36 20.54-12.06 41.15-24.01 61.8-35.87.87-.5 2.7-.48 3.44.11 12.15 9.52 26.07 15.45 40.38 20.79 9.93 3.7 19.58 8.15 29.35 12.27 2.42 1.02 3.31 2.64 3.21 5.44-.55 14.2-.57 28.43-1.32 42.62-.71 13.4.74 26.53 2.85 39.71 5.02 31.36 9.69 62.78 14.51 94.17 1.9 12.38 3.82 24.76 5.72 37.14.18 1.2.3 2.41.44 3.62-.39.06-.79.11-1.18.15z"/><path d="m184.7 352.31c-1.2-34.67-2.39-69.35-3.59-104.02-.89-25.84-1.34-51.71-2.89-77.51-.71-11.88-3.59-23.64-5.49-35.45-.43-2.65-.6-5.37-1.33-7.93-1.61-5.62-3.51-11.17-5.48-17.33 3.6-2.67 7.88-5.86 12.17-9.04 3.87-2.86 7.79-5.65 11.6-8.59 1.36-1.05 2.31-1.23 3.73-.05 7.59 6.28 15.3 12.41 22.83 18.76.78.65 1.15 2.55.83 3.62-1.82 6.22-4.04 12.32-5.83 18.54-.75 2.62-1.24 5.47-1.08 8.18 2.95 48.6 6.02 97.18 9.05 145.77 1.6 25.58 3.17 51.16 4.75 76.74.07 1.22.01 2.45-.36 3.72-1.14-7.59-2.32-15.16-3.41-22.76-2.59-17.93-5.46-35.83-7.6-53.82-1.92-16.1-3.56-32.28-4.34-48.47-1.37-28.61-2.57-57.25-2.69-85.89-.06-14.01 2.38-28.04 3.87-42.04.19-1.79.1-2.89-1.47-3.9-3.58-2.28-6.97-4.87-10.62-7.03-6.49-3.84-12.57-1.23-18.4 1.82-1.01.53-1.74 2.45-1.8 3.76-.34 7.79-1.59 15.77-.43 23.37 5.92 38.53 6.43 77.35 7.11 116.16.6 34.02.74 68.05 1.08 102.07 0 .45-.04.89-.06 1.34-.04.01-.1-.01-.15-.02z"/><path d="m255.64 29.73c-10.7 3.65-21.6 5.75-32.69 5.31-14.52-.57-29-1.97-43.49-3.03-15.38-1.12-30.73-2.96-46.2-1.25-6.69.74-12.7-1.18-17.92-5.83 46.77 1.6 93.54 3.2 140.3 4.8z"/></g></svg>