<svg enable-background="new 0 0 400 400" viewBox="0 0 400 400" xmlns="http://www.w3.org/2000/svg"><path d="m374.8 390.4.4-.4c.7.5 1.3 1 1.8 1.4l-.5.5c-.5-.6-1.1-1.1-1.7-1.5zm1 7.3-.6-.3c.5-1.4 1.1-2.8 1.5-4.3.2.1.4.2.6.3-.5 1.3-1 2.8-1.5 4.3zm-.4-10.3.4-.4c.4.3 1 .8 1.7 1.4l-.5.5c-.4-.5-1-1-1.6-1.5zm2.5.3h1.7v-1h.6v1h3.5v-1h.6v1h1.8v.5h-1.8v1.4h-2v1h3.2v2h-3.2v.9h3.3v.5h-3.4c0 .3-.1.6-.1.9h4v.5h-3.7c.7.9 1.9 1.5 3.8 1.7-.1.2-.2.4-.3.6-2.1-.4-3.5-1.1-4-2.1-.4 1-1.8 1.7-4 2.2-.1-.2-.2-.4-.3-.6 2.1-.4 3.4-1 3.8-1.8h-3.4v-.5h3.6c.1-.3.1-.6.2-.9h-3.3v-.5h3.4c0-.3 0-.6 0-.9h-3.2v-2h3.3v-1h-2.1v-1.4h-1.7v-.5zm1.1 3.5v1h2.7c0-.3 0-.4 0-.4 0-.1 0-.2 0-.2 0-.1 0-.2 0-.3h-2.7zm1.2-3v.9h3.5v-.9zm4.7 3h-2.6v.6.4h2.6z" fill="#fbfcfa"/><path d="m393.6 386.7h.6v1.5h2.7v6.1h1.1v.6h-11v-.6h1.1v-6.1h2.7v-1.5h.6v1.5h2.1v-1.5zm-2.7 8.8.4.6c-1.2.6-2.5 1.3-3.8 1.9-.1-.2-.2-.4-.3-.6 1.2-.6 2.5-1.2 3.7-1.9zm-2.2-6.7v2.4h2.1v-2.4zm0 3v2.5h2.1v-2.5zm2.8-3v2.4h2.1v-2.4zm0 3v2.5h2.1v-2.5zm6 6.1c-1.4-.7-2.7-1.3-3.9-1.8l.3-.6c1.5.6 2.7 1.2 3.9 1.7zm-1.2-9.1h-2.1v2.4h2.1zm-2.1 3v2.5h2.1v-2.5z" fill="#fbfcfa"/><g fill="#010106"><path d="m130.84 365.29c4.93-10.12 9.66-20.35 14.85-30.33 8.18-15.74 12.2-32.56 13.96-50.07.88-8.79 2.55-17.53 2.91-26.34.24-5.71-.95-11.54-1.99-17.22-3.66-19.87-5.92-39.82-5.05-60.06.58-13.38 2.68-26.46 6.98-39.15.44-1.3 1.48-2.44 2.41-3.51 2.06-2.35 4.34-4.52 6.33-6.93 6.65-8.07 5-17.11 2.93-26.6-8.01 1.41-15.84 3.33-23.78 4.03-6.59.58-10.24 4.22-13.87 9.02-11.46 15.16-14.45 32.11-11.54 50.5 2.22 14.02 4.44 28.05 6.44 42.1 3.1 21.79 2.07 43.54-1.45 65.19-4.02 24.71-10.38 48.77-21.44 71.35-4.16 8.5-9.1 16.62-13.68 24.91-.37-.17-.73-.34-1.1-.51.35-.93.67-1.87 1.05-2.8 5.46-13.34 11.45-26.5 16.2-40.09 3.22-9.21 4.54-19.08 6.98-28.58 5.76-22.4 6.54-45.15 4.5-68-1.26-14.13-3.58-28.17-5.51-42.24-2.94-21.43-3.45-42.81 1.16-64.09.27-1.23.86-2.66 1.78-3.43 4.72-3.94 9.32-8.12 14.49-11.38 3.98-2.51 8.71-3.83 13.15-5.58 7.67-3.03 15.4-5.91 23.02-9.05.92-.38 1.81-1.93 1.9-3.02.66-7.24 1.2-14.5 1.51-21.76.04-.96-1.23-2.48-2.24-2.9-9.57-3.95-19.61-4.37-29.7-3.06-11.24 1.46-22.09.95-32.31-4.52-.89-.47-1.74-1-2.59-1.55-.25-.16-.42-.44-1.29-1.41 4.21 0 7.72-.01 11.22 0 29.87.14 59.76-.04 89.62.58 15.09.32 30.11 2.41 44.42 7.79 1.77.67 3.49 1.48 5.22 2.27.26.12.42.45.86.93-12.04 1.84-23.79 1.49-35.54-.15-6.51-.91-13.03-2.25-19.57-2.4-7.15-.16-12.3 3.93-14.98 10.49-1.5 3.68-2.19 7.7-3.22 11.57-.48 1.8.29 2.77 1.96 3.64 9.26 4.77 19.07 6.77 29.45 6.69 19.24-.14 34.14 11.65 38.37 32.17.96 4.67 1.43 9.56 1.3 14.32-.64 23.17 2.74 45.98 5.7 68.83 2.6 20.08 5.11 40.17 7.83 60.23.39 2.91 1.28 5.92 2.66 8.49 9.66 17.91 19.51 35.71 29.29 53.55.62 1.13 1.18 2.31 1.85 3.62-4.36 1.04-7.3.25-10.19-3.19-14.54-17.32-24.67-36.78-28.58-59.09-2.27-12.98-3.45-26.16-5.04-39.26-1.91-15.66-4.1-31.29-5.52-46.99-1.31-14.59-1.55-29.27-2.65-43.88-1.4-18.69-11.42-35.5-30.71-40.35-6.89-1.73-14.14-2.05-21.21-3.07-4.19-.6-8.37-1.3-12.97-2.03-.55 6.59-1.17 13-1.51 19.43-.04.74 1.36 1.84 2.32 2.3 11.07 5.36 22.15 10.69 33.29 15.87 2.32 1.08 3.14 2.43 3.36 5.02 1.56 18.62 3.47 37.21 5 55.83.81 9.81.92 19.67 1.61 29.49 1.59 22.64 5.91 44.75 13.31 66.23.79 2.29 2.19 4.38 3.45 6.48 13.18 21.96 26.38 43.9 39.58 65.85.57.94 1.08 1.91 1.75 3.1-3.21.71-5.4.44-7.47-2.52-11.93-17.05-24.32-33.77-36.14-50.9-10.67-15.47-17.47-32.75-20.98-51.15-1.43-7.52-1.23-15.38-1.48-23.09-.58-17.78-.77-35.58-1.52-53.36-.53-12.55-2.36-24.96-7.49-36.6-3.34-7.58-8.45-13.34-17.31-13.95-7.18-.5-14.34.92-20.19 4.93-3.35 2.29-5.54 6.66-7.52 10.47-5.33 10.22-6.74 21.24-5.46 32.61 2.09 18.67 5.31 37.28 6.22 56 1.47 30.12-2.64 59.64-14.74 87.59-5.36 12.33-12.99 23.22-22.66 32.69z"/><path d="m203.23 34.24c-17.85-2.38-35.69-4.76-53.54-7.14.01-.25.03-.49.04-.74 13.29 0 26.59-.23 39.87.16 3.38.1 6.81 1.92 10.02 3.38 1.58.72 2.7 2.42 4.03 3.68-.14.22-.28.44-.42.66z"/></g></svg>