<svg viewBox="0 0 400 400" xmlns="http://www.w3.org/2000/svg"><rect width="400" height="400" fill="white" /><path d="m362.1 8.8c1.1.8 2.1 1.6 3.1 2.4l-1 1.1c-1.3-1.1-2.3-2-3-2.5zm1.9 4.8c.5.2.9.4 1.4.5-.6 2.3-1.3 4.5-1.9 6.8l-1.5-.5c.8-2.1 1.4-4.3 2-6.8zm-1-9.4c1.3.9 2.4 1.8 3.4 2.5l-1 1.1c-1.4-1.2-2.4-2.1-3.2-2.6zm3.7 2.2v-1.4h10.3v1.2c-.5 3.6-1.8 6.8-4 9.4 1.5 1.6 3.4 2.8 5.7 3.8-.3.4-.7.8-1.1 1.4-2.3-1.1-4.1-2.5-5.6-4.1-1.6 1.6-3.6 3.1-5.9 4.3-.3-.5-.7-.9-1-1.3 2.4-1.1 4.4-2.5 6-4.1-1.9-2.5-3-5.6-3.3-9.3h-1.1zm8.8 0h-6.4c.3 3.3 1.3 6 3 8.2 2-2.3 3.1-5.1 3.4-8.2z" fill="#fbfcfa"/><path d="m385.3 3.8h1.3v2.2h2.8v-2.2h1.3v2.2h4.1v9.1h1.7v1.3h-16.9v-1.3h1.7v-9.1h4.1v-2.2zm.4 13.1.7 1.2c-1.8.9-3.8 1.9-6 2.9-.2-.4-.5-.8-.8-1.3 2.3-1 4.3-1.9 6.1-2.8zm-3.1-6.4h2.8v-3.2h-2.8zm0 4.6h2.8v-3.3h-2.8zm4-4.6h2.8v-3.2h-2.8zm0 4.6h2.8v-3.3h-2.8zm3.7 1.9c2.1.9 4.1 1.8 6.1 2.7l-.7 1.3c-2.2-1.1-4.2-2-6.1-2.9zm3.2-9.7h-2.8v3.2h2.8zm-2.8 7.8h2.8v-3.3h-2.8z" fill="#fbfcfa"/><g fill="#010106"><path d="m245.45 252.34c9.05 0 17.88-.04 26.71.01 9.4.06 18.8.05 28.19.41 3.75.15 7.53.97 11.16 1.98 1.67.46 3.37 1.86 4.4 3.31 2.14 3 1.58 5.12-1.4 7.28-4.43 3.21-9.53 4.35-14.86 4.45-28.84.56-57.69 1.26-86.53 1.5-11.86.1-23.67-1.26-35.14-4.61-4.04-1.18-5.46-3.5-4.36-7.55.3-1.09 1.28-2.33 2.29-2.85 7.6-3.91 15.81-4.28 24.18-4.1 10.49.23 21 .06 32.02.06 0-9.65 0-19.52 0-29.82-8.51 0-17.08.06-25.66-.03-3.45-.04-6.95-.13-10.33-.75-1.97-.37-4.05-1.5-5.55-2.87-4.23-3.87-3.49-8.3 1.98-9.41 6.15-1.25 12.57-1.42 18.88-1.65 6.89-.26 13.8-.06 20.95-.06 0-9.87 0-18.77 0-28.41-8.43 0-16.87-.02-25.3.01-2.68.01-5.37.33-8.04.19-8.93-.44-12.35-4.71-11.02-13.81 14.36-4.79 29.49-1.52 44.59-3.86 0-5.58.07-11.25-.1-16.91-.02-.61-1.4-1.52-2.27-1.7-6.34-1.34-12.74-2.44-19.06-3.85-1.49-.33-3.1-1.28-4.09-2.42-4.47-5.16-6.86-11.31-7.09-18.08-.27-7.71.04-15.44-.05-23.16-.12-11.08-.39-22.15-.56-33.22-.05-3.16 1.8-5.01 5.28-5.59 3.04-.5 4.7.71 5.67 3.68 3.5 10.72 3.54 21.74 3.55 32.86.01 9.24.87 18.49 1.46 27.72.22 3.51 2.17 5.16 5.81 5.44 3.53.27 7.01 1.23 11.02 1.98 0-6.55-.02-12.78 0-19.02.1-21.49.25-42.97.31-64.46.02-5.43.83-10.48 5.43-14.29 4.01 1.94 6.73 4.95 6.99 9.46.32 5.46.22 10.94.23 16.41.02 19.81 0 39.62.02 59.44 0 .76.17 1.51.28 2.45h13.72c.15-2.93.33-5.7.42-8.46.5-15.77.87-31.55 1.53-47.31.14-3.4.86-6.93 2.13-10.07.71-1.75 2.87-3.43 4.74-4.1 3.46-1.23 4.78-.28 5.87 3.25 3.08 9.97 3.46 20.26 3.1 30.57-.46 12.96-1.01 25.95-4.33 38.6-2.4 9.15-4.6 10.86-14.2 11.16-3.24.1-6.5.05-9.71.41-1 .11-2.68 1.31-2.69 2.04-.19 9.03-.12 18.07-.12 27.95 7.59.07 15.48.1 23.37.23 4.35.07 8.71.12 13.03.57 1.79.19 3.66 1.13 5.18 2.18 2.8 1.94 4.22 5.15 3.34 8.19-.46 1.58-3.39 3.17-5.38 3.44-6.05.81-12.19 1.18-18.3 1.34-5.58.15-11.17-.26-16.76-.3-1.41-.01-2.82.42-4.63.72v28.54c6.32 0 12.76-.03 19.19.01 5.24.03 10.52-.27 15.69.31 5.18.58 8.27 4.02 9.3 9.47-5.17 3.77-11.08 4.9-17.31 4.92-8.93.02-17.87.01-27.13.01-.04 10.15-.04 19.79-.04 30.17z"/><path d="m134 162.81c-1.8 6.34-3.51 12.33-5.18 18.32-2.52 9.04-4.73 18.18-7.65 27.09-1.62 4.94-4.37 9.51-6.67 14.22-4.46 9.14-8.9 18.28-13.45 27.36-1.65 3.29-3.37 6.59-5.47 9.6-1.29 1.85-3.11 3.91-5.13 4.58-6.13 2.05-9.89 1.44-8.64-5.6.71-3.96 2.16-8 4.19-11.48 10.74-18.41 19.85-37.53 26.15-57.92 5.34-17.28 8.22-35.01 9.17-53.06.25-4.77.67-9.54 1.05-14.79-1.32.14-2.43-.05-3.15.39-4.27 2.58-8.65 5.04-12.61 8.05-4.97 3.78-9.39 8.28-14.38 12.03-4.64 3.49-9.95 4.95-16.08 2.68.56-4.57.77-8.76 5.28-11.86 7.73-5.32 14.9-11.45 22.5-16.98 5.04-3.67 10.33-7.04 15.69-10.23 2.08-1.23 3.03-2.45 3.05-4.9.15-17.23.41-34.46.7-51.68.11-6.99 2.78-17.77 5.52-22.95 5.6.17 8.31 2.41 9.05 7.77.38 2.76.62 5.56.63 8.35.05 18.8.1 37.61-.05 56.41-.02 2.9.92 4.33 3.46 5.59 11.67 5.79 22.43 13.03 32.42 21.38 5.17 4.32 8.91 9.65 10.37 16.43.49 2.27-.38 3.32-2.21 4.15-3.11 1.42-6.55.61-9.55-1.97-7.79-6.7-15.54-13.47-23.57-19.88-3-2.4-6.74-3.87-10.84-6.16-.48 4.08-.88 7.54-1.29 11.01-.66 5.55-1.25 11.12-2.02 16.65-.25 1.81.34 2.61 1.98 3.2 4.41 1.59 8.78 3.32 13.15 5.01 8.78 3.4 12.76 9.31 13.21 18.82.44 9.45-2.11 18.39-4.23 27.41-3.86 16.42-8.12 32.76-11.63 49.26-2.6 12.2-1.34 24.48 1.29 36.62 1.63 7.54 3 15.13 4.58 22.67.43 2.06 1.03 4.13 1.89 6.04 7.59 16.8 15.25 33.56 22.89 50.34.42.91.88 1.84 1.09 2.8.58 2.71.75 5.62-1.88 7.25-2.52 1.57-7.83-.16-9.34-2.51-13.7-21.26-24.69-43.81-31.5-68.22-6.16-22.09-6.37-44.3-.53-66.62 3.87-14.8 7.36-29.74 10.25-44.76 1.4-7.29 1.05-14.91 1.4-22.39.03-.58-.61-1.48-1.16-1.74-4.1-1.94-8.26-3.76-12.75-5.78z"/></g></svg>