<svg enable-background="new 0 0 400 400" viewBox="0 0 400 400" xmlns="http://www.w3.org/2000/svg"><path d="m221.33 25.24c6.53-.13 10.22 3.95 8.48 9.76-1.32 4.41-.59 8 1.4 12.06 17.37 35.42 34.52 70.94 51.71 106.45.57 1.18 1.15 2.53 1.13 3.79-.17 12.1 3.82 23.29 7.28 34.61.43 1.39.76 2.81 1.3 4.16 3.16 7.96 3.61 16.09 3 24.64-.45 6.34 1.28 12.84 1.96 19.27.92 8.65-.22 16.91-4.42 24.68-5.84 10.82-11.68 21.65-17.24 32.61-3.37 6.64-7.39 12.73-12.43 18.2-15.99 17.32-33.62 32.53-55.36 42.25-5.59 2.5-11.5 4.31-17.35 6.16-10.97 3.46-21.98 6.76-33.02 10.01-1.51.44-3.31.58-4.83.22-6.63-1.56-13.23-3.3-19.8-5.13-1.42-.4-2.87-1.22-3.92-2.25-3.12-3.05-6.2-6.17-8.97-9.53-1.17-1.41-1.7-3.43-2.25-5.26-.76-2.49-.44-5.86-2.01-7.45-10.39-10.53-13.97-23.92-16.74-37.72-.75-3.73-1.3-7.49-2.08-11.21-1.72-8.18-.89-15.95 1.88-23.96 3.11-8.98 6.43-17.5 13.43-24.27 7.66-7.41 12.58-16.75 17.62-25.99 9.96-18.26 20.08-36.45 32.35-53.29 3.38-4.64 3.99-9.81 5.11-15.01.37-1.72.89-3.47 1.7-5.01 10.76-20.63 21.72-41.14 35.34-60.1.73-1.01 1.03-2.43 1.21-3.7.23-1.65.19-3.35.19-5.03.01-9.02 1.5-17.66 5.05-26.08 3.86-9.15 6.91-18.63 10.28-27.88zm5.81 48.73c-3.86 6.94-7.94 12.91-10.63 19.46-3.56 8.65-6.07 17.74-8.93 26.67-.54 1.67-.83 3.48-.88 5.23-.41 14.31-1.14 28.63-.97 42.93.2 17.17-1.61 33.82-8.39 49.79-2.06 4.87-2.26 10.21-.95 15.5.55 2.23 1.63 3.61 3.88 4.52 7.66 3.1 15.19 6.51 22.82 9.68 2.25.93 4.63 1.8 7.02 2.06 7.8.84 14.96 3.38 21.87 7.02 3.33 1.76 7 2.93 10.59 4.15 4.35 1.48 8.74 1.49 13.15 0 2.21-.74 3.02-1.88 3.07-4.33.12-6.22-.3-12.7 1.26-18.6 2.59-9.84 1.97-19.28-.82-28.71-4.44-14.97-9.91-29.63-12.53-45.13-1.93-11.41-3.69-22.98-10.9-32.71-.66-.89-.72-2.34-.8-3.54-.5-8.07-2.83-15.35-7.64-22.06-5.13-7.16-9.47-14.9-14.17-22.37-1.82-2.93-3.68-5.83-6.05-9.56zm-35.37 183.66c-5.87 18.07-11.85 35.71-17.31 53.52-3.65 11.91-7.2 23.76-15.24 33.64-2.19 2.69-5.87 4-8.48 2.87-3.13-1.35-4.03-3.48-3.59-7.76.82-7.94 5.08-14.45 8.66-21.26.9-1.72 1.51-3.68 1.86-5.6 1.24-6.8 1.74-13.78 3.58-20.4 2.84-10.21 6.29-20.28 10.04-30.2 1.61-4.26.65-7.39-1.49-10.9-4.57-7.5-12.25-10.16-19.79-12.92-9.1-3.33-10.86-2.98-17 4.68-5.51 6.87-10.7 14.05-15.38 21.51-5.73 9.15-7.75 18.93-4.22 29.79 2.6 8.02 4.67 16.34 4.18 25.02-.07 1.28.78 2.76 1.53 3.92 4.79 7.42 10 14.6 14.42 22.23 2.91 5.03 6.7 7.37 12.36 8.11 18.27 2.36 35.5.9 50.21-11.79 1.19-1.03 2.93-1.69 4.51-1.94 4.21-.66 7.73-2.47 11.11-5.04 9.53-7.25 19.23-14.26 28.85-21.38 1.07-.79 2.17-1.62 3.04-2.62 6.1-7.01 12.26-13.97 18.13-21.16 1.85-2.27 3.33-5.08 4.19-7.88 1.28-4.17-.68-6.87-4.88-7.62-6.93-1.24-13.87-2.47-20.82-3.62-10.03-1.66-19.91-3.53-29.36-7.77-6.01-2.7-12.79-3.7-19.11-5.43zm-3.7-113.05c-.55.96-1.12 1.92-1.65 2.89-8.95 16.1-17.89 32.21-26.85 48.31-2.38 4.29-4.95 8.48-7.15 12.86-1.91 3.8-1.06 7.41.97 11.14 3.22 5.93 8.86 7.39 14.6 8.9 4.43 1.17 7.33-.39 8.79-4.76 3.33-9.95 6.71-19.88 9.87-29.89.86-2.71 1.44-5.66 1.41-8.49-.12-10.42-.18-20.71 4.32-30.53 1.94-4.21.08-7.7-4.31-10.43z" fill="#010100"/><path d="m153.42 115.3c0-2.39 0-3.87 0-5.84 1.2.42 2.24.78 3.73 1.29-1.23 1.51-2.17 2.66-3.73 4.55z" fill="#010100"/><path d="m251.78 209.65c-7.03-17.92-8.34-36.04-3.02-54.57 4.27.24 5.5 1.26 5.4 4.98-.24 8.88 2.2 17.22 4.98 25.47 2.09 6.2.23 12.1-.56 18.16-.5 3.84-2.26 5.77-6.8 5.96z" fill="#010100"/><path d="m223.06 206.84c-3.74-6.34-6.1-12.95-3.62-20.32.63-1.88 2.12-3.51 3.33-5.16 1.94-2.66 4.11-1.95 5.63.23 1.35 1.94 2.49 4.24 2.92 6.53.44 2.34.12 4.9-.25 7.3-1.02 6.64-1.89 7.76-8.01 11.42z" fill="#010100"/><path d="m147.16 257.97c5.43 3.32 8.32 9.33 6.64 15.55-1.58 5.88-3.71 11.67-6.19 17.24-2.26 5.07-5.35 9.77-7.99 14.68-1.45 2.68-3.61 4.12-6.6 4.53-4.11.57-5.79-.27-6.23-4.38-.56-5.17.48-9.94 4.07-14.27 2.78-3.35 5-7.41 6.51-11.5 2.79-7.53 4.97-15.26 9.79-21.85z" fill="#010100"/><path d="m202.82 315.5c0-3.51-.07-7.07.06-10.63.03-.76.63-1.68 1.25-2.2 4.37-3.73 7.16-8.49 9.34-13.72 2.67-6.4 6.37-11.99 12.68-15.71 7.68 10.1 2.75 19.45-1.6 28.55-3.92 8.19-14.57 14.63-21.73 13.71z" fill="#010100"/><g fill="#fcfafa"><path d="m342.2 3.2-6.3 9.2h6.1v1.2h-8.2v-.5l6.2-9.1h-5.7v-1.2h7.8v.4z"/><path d="m344 13.7v-10.9h3.1c1.6 0 3 .5 4.1 1.4 1.1 1 1.6 2.2 1.6 3.9s-.5 3-1.6 4-2.5 1.5-4.2 1.5h-3zm1.4-9.6v8.4h1.6c1.4 0 2.5-.4 3.2-1.1.8-.8 1.2-1.8 1.2-3.2s-.4-2.4-1.2-3.1-1.8-1-3.1-1z"/><path d="m356.3 2.8v10.9h-1.4v-10.9z"/><path d="m366.6 13.2c-.8.4-1.8.6-3 .6-1.6 0-2.8-.5-3.7-1.5s-1.4-2.3-1.4-3.9c0-1.7.5-3.2 1.6-4.2s2.4-1.6 4-1.6c1 0 1.9.1 2.6.4v1.5c-.8-.4-1.6-.6-2.6-.6-1.2 0-2.2.4-3 1.2s-1.1 1.9-1.1 3.3c0 1.3.4 2.3 1.1 3.1s1.6 1.1 2.8 1.1c1.1 0 2-.2 2.8-.7v1.3z"/><path d="m368.2 13c0-.3.1-.5.3-.6.2-.2.4-.3.6-.3.3 0 .5.1.7.3s.3.4.3.6-.1.5-.3.6c-.2.2-.4.3-.7.3s-.5-.1-.6-.3c-.2-.2-.3-.4-.3-.6z"/><path d="m381.1 13.7h-1.7l-5.5-8.4c-.2-.2-.3-.5-.4-.7 0 .2.1.8.1 1.5v7.6h-1.4v-10.9h1.8l5.3 8.3c.3.4.4.6.4.8 0-.3-.1-.8-.1-1.6v-7.5h1.4v10.9z"/><path d="m389.7 13.7h-5.8v-10.9h5.6v1.2h-4.2v3.5h3.9v1.2h-3.9v3.7h4.4z"/><path d="m398.4 4.1h-3.1v9.6h-1.4v-9.6h-3.1v-1.3h7.7v1.3z"/></g></svg>