<svg enable-background="new 0 0 400 400" viewBox="0 0 400 400" xmlns="http://www.w3.org/2000/svg"><path d="m167.01 375.29c-3.6-6.18-3.34-11.74-1.66-17.37.99-3.32 2.2-6.57 3.21-9.88 1.93-6.32 3.68-12.66 3.2-19.39-.18-2.56.05-5.15-.04-7.72-.57-16.03.54-31.71 4.95-47.38 2.9-10.31 3.56-21.41 4.11-32.21 1.17-23.02 1.87-46.07 2.18-69.11.07-4.9-2.21-9.89-3.73-14.74-.67-2.14-2.51-2.91-5.02-2.99-15.32-.48-30.63-1.18-45.94-1.87-1.71-.08-2.58.5-3.83 1.74-1.5 1.49-4.01 2.71-6.09 2.74-15.67.2-31.35.14-47.02-.1-1.26-.02-3.35-1.87-3.56-3.12-.68-4.04-.71-8.19-.83-12.3-.02-.57.79-1.28 1.37-1.74 4.91-3.9 9.81-7.8 14.82-11.57.98-.73 2.41-1.2 3.64-1.21 19.04-.07 38.07-.2 57.11.06 4.51.06 9.02 1.42 13.5 2.35 7.95 1.64 15.01-2.1 16.6-9.14.4-1.78.38-3.84-.08-5.6-1.26-4.86-2.28-9.93-4.54-14.33-1.28-2.49-4.59-4.84-7.38-5.45-6.18-1.34-12.63-1.37-18.93-2.25-14.81-2.08-28.65-6.81-41.05-15.41-7.2-4.99-10.31-11.34-9.11-20.37.78-5.86-.13-11.99-.63-17.97-.18-2.1.45-2.9 2.17-3.8 2.56-1.32 5.05-2.89 7.33-4.66 5.69-4.39 11.2-4.39 16.52.24 11.17 9.73 24.38 16.11 37.27 23.08 6.14 3.32 11.97 7.42 17.31 11.93 5.24 4.42 10.64 8.06 17.32 9.78 4.54 1.17 9 2.66 13.53 3.9 5.01 1.37 9.43.14 13.5-3.03 13.62-10.63 26.17-22.4 37.76-35.21 6.8-7.52 14.61-13.64 24.81-15.72 12.75-2.59 22.35 5.63 24.85 16.88 1.03 4.65-3.6 15.62-12.31 18.1-5.24 1.49-10.71 2.15-16.03 3.41-3.12.74-6.31 1.55-9.15 2.97-12.81 6.38-25.47 13.06-38.27 19.45-2.37 1.19-3.6 2.72-4.07 5.22-2.01 10.54-1.93 21.15-1 31.76.34 3.81 4.56 6.91 9.3 7.05 2.33.07 4.67-.51 7.01-.56 12.96-.28 25.92-.53 38.88-.68 5.14-.06 10.31.52 15.43.2 8.83-.56 17.37 1.29 25.98 2.55 1.99.29 4.18 1.18 5.67 2.49 2.76 2.43 2.25 4.82-.86 6.74-11.56 7.11-24.42 10.05-37.7 10.69-12.83.62-25.7.14-38.56.19-6.6.03-13.21-.05-19.8.33-6.57.38-9.08 2.84-10.06 9.31-2.15 14.15-4.59 28.28-6.08 42.51-.67 6.36.33 12.97 1.18 19.39 1.81 13.59-.31 27.02-1.02 40.51-.45 8.54-2.37 17.01-.08 25.69.67 2.54-1.08 5.81-1.98 8.66-1.24 3.93-2.94 7.73-4.04 11.69-.51 1.84-.61 4.14.03 5.89 1.11 3.06.82 5.89.01 8.84-3.43 12.64-10.32 23.2-19.46 32.42-.31.32-.63.71-1.03.85-6.15 2.07-9.53 6.69-12.48 12.2-1.21 2.26-4.59 3.35-7.13 5.07zm-70.9-307.96c3.93-2.68 3.93-2.68 1.39-5.76-1.03 1.03-2.03 2.04-3.04 3.06.62 1.01 1.08 1.76 1.65 2.7z" fill="#010000"/><g fill="#fbfcfa"><path d="m361.2 9.6.8-1c.9.7 1.9 1.4 2.9 2.3l-.9 1.1c-1-1-2-1.8-2.8-2.4zm.5 10.6c.9-2.1 1.6-4.3 2.3-6.7.4.2.8.4 1.3.6-.7 2.1-1.5 4.3-2.2 6.6zm.4-15.2.9-.9c1 .8 2 1.6 2.8 2.4l-1 1c-.9-.9-1.8-1.7-2.7-2.5zm12.5-1.2h1.2v1.4h2.7v1.1h-2.7v2.7h-1.2v-.6h-1.8v1.3h4.9v3.8h-1.2v-.5h-3.7c0 .4-.1.9-.1 1.2h5.1v1h-5.2c0 .5-.1.9-.2 1.2h6v1h-5.2c1.1 1.3 2.9 2 5.5 2.2-.4.4-.7.8-.9 1.3-2.9-.5-4.8-1.6-5.7-3.5h-.1c-.8 1.7-2.7 2.9-5.9 3.6-.2-.4-.6-.8-.9-1.1 2.8-.6 4.6-1.4 5.4-2.5h-4.8v-1h5.3c.1-.3.2-.7.2-1.2h-4.9v-1h5c0-.4 0-.8.1-1.2h-3.5v.5h-1.2v-3.8h4.9v-1.3h-1.8v.5h-1.2v-2.7h-2.7v-1h2.6v-1.4h1.2v1.4h4.7v-1.4zm-6.6 8.3h3.6c0-.4 0-.9 0-1.4h-3.6zm1.9-4.6h4.7v-1.3h-4.7zm6.6 3.2h-3.7v1.4h3.7z"/><path d="m385.3 3.8h1.3v2.2h2.8v-2.2h1.3v2.2h4.1v9.1h1.7v1.3h-16.9v-1.3h1.7v-9.1h4.1v-2.2zm.4 13.1.7 1.2c-1.8.9-3.8 1.9-6 2.9-.2-.4-.5-.8-.8-1.3 2.3-1 4.3-1.9 6.1-2.8zm-3.1-6.4h2.8v-3.2h-2.8zm0 4.6h2.8v-3.3h-2.8zm4-4.6h2.8v-3.2h-2.8zm0 4.6h2.8v-3.3h-2.8zm3.7 1.9c2.1.9 4.1 1.8 6.1 2.7l-.7 1.3c-2.2-1.1-4.2-2-6.1-2.9zm3.2-9.7h-2.8v3.2h2.8zm-2.8 7.8h2.8v-3.3h-2.8z"/></g></svg>