<svg enable-background="new 0 0 400 400" viewBox="0 0 400 400" xmlns="http://www.w3.org/2000/svg"><path d="m172.63 374.03c1.39-5.72 2.53-11.51 4.21-17.14 6.54-22.02 10.68-44.4 9.51-67.45-.61-11.94-2.18-23.83-3.21-35.75-.95-10.92-1.57-21.87-2.71-32.77-.46-4.39-1.82-8.7-2.99-12.98-.55-2.02-1.8-2.63-4.09-1.65-12.53 5.37-25.16 10.54-37.72 15.84-1.19.5-2.38 1.3-3.21 2.27-9.29 10.78-20.77 13.77-34.21 9.7-11.87-3.6-23.67-7.44-35.56-10.97-3.1-.92-4.74-2.63-5.26-6.23 2.78-.46 5.58-1.08 8.41-1.35 10.61-1.01 20.34-4.77 30.03-8.97 16.61-7.2 33.37-14.08 50.11-20.98 2.07-.85 3.11-2.07 3.87-4.12 3.84-10.25 7.75-20.47 11.86-30.61 1.16-2.87 3.36-5.33 4.52-8.21 1.69-4.17 2.89-8.54 4.33-12.92-5.45-2.33-10.12-4.14-14.61-6.3-9.65-4.63-18.25-10.81-26.27-17.89-5.78-5.1-11.78-9.95-17.74-14.83-3.74-3.06-5.24-5.31-5.92-9.98 2.07-.1 4.28-.75 6.09-.17 3.91 1.25 8.1 2.49 11.33 4.88 11.64 8.61 25.06 12.67 38.77 16.07 7.3 1.81 14.73 3.05 22.23 1.34 1.47-.33 3.24-1.33 3.97-2.56 9.03-15.02 16.35-30.78 19.99-48.05 1.83-8.68.94-17.13-2.28-25.36-.2-.51-.27-1.08-.55-2.28 4.64 1.02 9.1 1.57 13.26 2.99 10.24 3.48 20.55 6.89 30.45 11.21 7.88 3.44 7.51 4 6.65 12.51-.35 3.45-1.49 5.92-4.43 8.04-6.26 4.51-12.36 9.28-18.22 14.3-3 2.56-6.15 5.49-7.83 8.94-4.48 9.21-8.23 18.77-12.2 28.22-1.12 2.68-.08 4.34 2.48 5.91 15.53 9.56 30.91 19.36 46.41 28.96 1.5.93 3.58 1.63 5.26 1.42 9.53-1.19 19.03-2.63 28.52-4.11 12.39-1.93 24.52-.74 36.49 2.75 3.39.99 5.42 3.16 5.65 6.67.24 3.52.02 6.72-3.94 8.7-7.99 3.99-16.51 5.49-25.24 6.19-11.82.95-23.71 1.26-35.45 2.8-7.47.98-14.67 3.85-22.06 5.56-16.35 3.79-31.37 11.07-46.69 17.55-2.56 1.08-2.71 3.56-.49 6.51 2.42 3.21 5.05 6.29 7.26 9.64 5.56 8.44 8.1 17.8 8.21 27.91.13 11.57-1.27 22.93-3.21 34.34-1.45 8.55-1.35 17.39-1.58 26.11-.49 18.11-4.97 35.43-13.28 51.18-4.54 8.61-12.78 15.36-19.78 22.54-1.91 1.96-5.36 2.41-8.11 3.55-.34-.33-.68-.65-1.03-.97zm54.54-220.1c-1.31-1.13-2.04-2.06-3-2.53-6.22-2.99-12.68-5.55-18.7-8.89-7.91-4.39-13.71-1.35-19.12 4.31-.15.16-.33.3-.47.48-7.13 8.74-14.28 17.46-21.33 26.26-.75.94-.87 2.4-1.59 4.53 5.5-1.13 10.42-1.65 14.98-3.2 6.11-2.09 11.94-4.98 17.88-7.53 10.23-4.39 20.47-8.77 31.35-13.43z" fill="#010105"/><g fill="#fcfbfa"><path d="m377.9 391.2c-.2.3-.4.5-.6.8-.7-.6-1.4-1-2.2-1.5.2-.3.4-.5.5-.8.6.4 1.4.8 2.3 1.5zm-1.8 6.1c-.2-.2-.5-.4-.9-.6.4-.6.8-1.2 1.2-1.9s.7-1.3.9-1.9c.3.3.5.5.8.7-.7 1.3-1.4 2.6-2 3.7zm2.2-9c-.3.3-.5.5-.6.8-.6-.6-1.3-1.1-2-1.5.3-.3.5-.5.6-.7.6.5 1.3.9 2 1.4zm.3.2v-.9h2 4.5c-.3 1.3-.6 2.5-1 3.6s-.9 2.1-1.4 3c.4.5 1 1 1.6 1.4s1.2.8 1.9 1.1c-.3.2-.5.4-.8.8-.4-.3-1-.7-1.6-1.2s-1.2-1.1-1.6-1.6c-.5.6-1.1 1.1-1.7 1.6s-1.4.9-2.1 1.4c-.1-.3-.3-.5-.7-.8.6-.2 1.2-.5 1.9-1s1.4-1.1 2-1.8c-.5-.8-.9-1.6-1.2-2.5s-.6-2-.8-3.2c-.4.1-.7.1-1 .1zm2.5 2.7c.3 1 .7 1.7 1 2.2.3-.5.6-1.1 1-2s.6-1.9.9-3h-3.2-.4c.1.9.3 1.8.7 2.8z"/><path d="m396.5 388.5v1.5 3.6h1.5v.9c-.4 0-1 0-1.7 0h-7.9c-.5 0-.9 0-1.2 0v-.9h1.3v-3.5c0-.7 0-1.2 0-1.6h2.4c0-.8 0-1.4 0-1.7h1c0 .3-.1.8-.1 1.7h1.5c0-.8 0-1.4 0-1.7h1c0 .3-.1.9-.1 1.7zm-8.2 9.2c-.2-.3-.5-.5-.8-.8.8-.3 1.4-.6 1.9-.9s1-.7 1.4-1.1c.3.3.6.5.9.8-1.6 1-2.8 1.6-3.4 2zm2.6-6.8v-1.6h-1.5v1.6zm0 2.7v-1.9h-1.5v1.9zm2.4-2.7v-1.6h-1.5v1.6zm0 2.7v-1.9h-1.5v1.9zm.2 2 .7-.8c.4.2.9.5 1.6.8s1.3.7 1.8 1c-.3.3-.5.5-.8.8-.4-.3-1.5-1-3.3-1.8zm2-4.7v-1.6h-1.4v1.6zm0 2.7v-1.9h-1.4v1.9z"/></g></svg>