<svg enable-background="new 0 0 400 400" viewBox="0 0 400 400" xmlns="http://www.w3.org/2000/svg"><path d="m183.91 374.98c-1.88-4.09-1.47-6.91.99-10.66 3.66-5.6 6.34-12.1 8.16-18.58 8.65-30.78 12.73-62.21 11.38-94.2-.97-23.12-6.4-45.38-15.21-66.7-2.5-6.04-7.25-11.14-14.78-11.67-1.5-.11-3.13.09-4.55.59-9.92 3.45-19.89 6.78-29.67 10.6-7.3 2.86-14.34 2.01-21.23-.66-8.12-3.14-16.02-6.85-24-10.34-.65-.28-1.17-.85-2.31-1.72 3.06-.35 5.43-.71 7.82-.87 6.5-.42 12.77-1.63 18.99-3.74 15.55-5.26 31.24-10.08 46.86-15.13 1.89-.61 3.82-1.37 5.46-2.46 3.18-2.11 3.83-4.98 2.17-8.44-9.82-20.45-19.57-40.93-29.56-61.29-1.44-2.93-3.87-5.46-6.15-7.88-3.97-4.22-7.05-8.86-8.91-14.39-.56-1.67-1.85-3.31-3.22-4.46-5.05-4.25-10.28-8.29-15.43-12.42-.73-.59-1.42-1.24-2.13-1.86.1-.36.2-.71.3-1.07 5.35.75 10.82 1.03 16.04 2.34 10.18 2.55 20.24 5.59 30.3 8.61 1.58.48 3.17 1.68 4.25 2.96 7.4 8.81 11.85 19.02 14.86 30.09 3.13 11.51 7.13 22.78 10.61 34.2 1.72 5.65 3.26 11.36 4.66 17.1 1.17 4.8 3.15 7.08 7.97 7.69 1.25.16 3.06-.48 3.91-1.4 6.89-7.39 10.16-16.61 11.72-26.27 2.62-16.29 7.29-32 12.18-47.67.39-1.25.59-2.63.54-3.94-.24-7.16-.41-14.32-.99-21.46-.17-2.14-1.23-4.4-2.46-6.22-1.86-2.75-4.21-5.16-6.36-7.71.1-.36.2-.72.29-1.08 5.62.93 11.33 1.53 16.85 2.87 10.62 2.57 19.85 7.57 25.83 17.18.76 1.22 1.01 3.12.72 4.55-.87 4.15-2.23 8.19-3.22 12.32-1.55 6.43-3.86 12.27-8 17.75-9.17 12.12-14.73 26.26-20.43 40.24-1.64 4.03-3.06 8.15-4.81 12.84 1.65.42 3.16 1.3 4.44 1.05 6.44-1.25 12.8-2.89 19.23-4.21 10.29-2.12 20.59-4.2 30.92-6.1 11.99-2.21 20.08 3.51 21.77 15.37.15 1.07-.64 2.79-1.54 3.41-3.52 2.43-7.41 3.03-11.78 2.47-4.13-.53-8.5-.62-12.57.15-10.64 2.01-21.14 4.73-31.75 6.92-7.95 1.64-15.52 4.2-22.6 8.17-3.16 1.77-6.3 2.52-9.94 1.47-4.36-1.25-6.74 1.79-9.24 4.81 2.89 2.5 5.74 4.8 8.39 7.32 10.15 9.63 14.83 21.97 16.6 35.44 1.18 8.96 1.4 18.04 2.13 27.06.33 4.01.62 8.05 1.33 12 1.47 8.15-.63 16.03-1.5 23.99-1.82 16.68-3.28 33.43-6.06 49.96-2.31 13.73-6.27 27.19-9.61 40.74-.27 1.08-1.26 2.07-2.11 2.89-7.1 6.85-16.13 8.56-25.55 9.45z" fill="#010105"/><g fill="#fcfbfa"><path d="m377.9 391.2c-.2.3-.4.5-.6.8-.7-.6-1.4-1-2.2-1.5.2-.3.4-.5.5-.8.6.4 1.4.8 2.3 1.5zm-1.8 6.1c-.2-.2-.5-.4-.9-.6.4-.6.8-1.2 1.2-1.9s.7-1.3.9-1.9c.3.3.5.5.8.7-.7 1.3-1.4 2.6-2 3.7zm2.2-9c-.3.3-.5.5-.6.8-.6-.6-1.3-1.1-2-1.5.3-.3.5-.5.6-.7.6.5 1.3.9 2 1.4zm.3.2v-.9h2 4.5c-.3 1.3-.6 2.5-1 3.6s-.9 2.1-1.4 3c.4.5 1 1 1.6 1.4s1.2.8 1.9 1.1c-.3.2-.5.4-.8.8-.4-.3-1-.7-1.6-1.2s-1.2-1.1-1.6-1.6c-.5.6-1.1 1.1-1.7 1.6s-1.4.9-2.1 1.4c-.1-.3-.3-.5-.7-.8.6-.2 1.2-.5 1.9-1s1.4-1.1 2-1.8c-.5-.8-.9-1.6-1.2-2.5s-.6-2-.8-3.2c-.4.1-.7.1-1 .1zm2.5 2.7c.3 1 .7 1.7 1 2.2.3-.5.6-1.1 1-2s.6-1.9.9-3h-3.2-.4c.1.9.3 1.8.7 2.8z"/><path d="m396.5 388.5v1.5 3.6h1.5v.9c-.4 0-1 0-1.7 0h-7.9c-.5 0-.9 0-1.2 0v-.9h1.3v-3.5c0-.7 0-1.2 0-1.6h2.4c0-.8 0-1.4 0-1.7h1c0 .3-.1.8-.1 1.7h1.5c0-.8 0-1.4 0-1.7h1c0 .3-.1.9-.1 1.7zm-8.2 9.2c-.2-.3-.5-.5-.8-.8.8-.3 1.4-.6 1.9-.9s1-.7 1.4-1.1c.3.3.6.5.9.8-1.6 1-2.8 1.6-3.4 2zm2.6-6.8v-1.6h-1.5v1.6zm0 2.7v-1.9h-1.5v1.9zm2.4-2.7v-1.6h-1.5v1.6zm0 2.7v-1.9h-1.5v1.9zm.2 2 .7-.8c.4.2.9.5 1.6.8s1.3.7 1.8 1c-.3.3-.5.5-.8.8-.4-.3-1.5-1-3.3-1.8zm2-4.7v-1.6h-1.4v1.6zm0 2.7v-1.9h-1.4v1.9z"/></g></svg>