<svg enable-background="new 0 0 400 400" viewBox="0 0 400 400" xmlns="http://www.w3.org/2000/svg"><path d="m6.8 9.5c.6.3 1.3.7 2.1 1.1-.4.4-.7.8-.9 1.2-.7-.4-1.3-.8-1.8-1.1s-1.1-.6-1.6-.8c.2-.4.5-.8.7-1.2.4.2.8.5 1.5.8zm.9 6.9c-.3.6-.5 1.1-.7 1.7s-.4 1.1-.6 1.7c-.6-.4-1.1-.7-1.6-1 .7-1 1.2-1.8 1.5-2.4.3-.5.6-1.1.8-1.7.3-.6.5-1.2.8-1.8.3.3.8.6 1.3.8-.7 1.3-1.2 2.2-1.5 2.7zm.1-11c.4.3 1 .7 1.7 1.1-.5.2-.8.6-1.1 1.1-.5-.6-1-1-1.4-1.2s-.9-.6-1.5-.8c.2-.4.5-.7.9-1.1.5.3.9.6 1.4.9zm10.5 13.1c1 .4 2 .6 3.1.7-.4.4-.7.8-.8 1.3-.9-.2-1.9-.6-3-.9-1-.4-2-.9-2.8-1.6-.5.4-1.1.9-1.9 1.3s-1.9.9-3.3 1.2c-.1-.3-.5-.8-1.1-1.3 1 0 2.1-.3 3.2-.8 1.2-.5 1.9-1 2.3-1.7h-3.2c-.4 0-1 0-2 .1v-1.2c1 0 1.7.1 2 .1h3.3v-1h-2.3c-.2 0-.9 0-2 .1v-1.2c1.2 0 1.9.1 2 .1h2.3v-.8h-4.1c0-.7.1-1.2.1-1.6 0-.5 0-1.1-.1-1.8h4.1v-.7h-2.5c0-.6.1-1.1.1-1.6v-.6h-.5c-.4 0-1 0-1.8.1v-1.3c1.2 0 1.9.1 2.1.1h.2c0-.3 0-.8-.1-1.4h1.4c0 .6-.1 1-.1 1.4h3.4c0-.4 0-.8-.1-1.3h1.5c0 .4-.1.9-.1 1.3.7 0 1.5 0 2.5-.1v1.2c-1 0-1.8-.1-2.5-.1v.6c0 .3 0 .8.1 1.5h-2.5v.8h4.1c0 .7-.1 1.3-.1 1.8s0 1 .1 1.5h-4.1v.8h1.4c.8 0 1.8 0 2.9-.1v1.2c-1 0-1.9-.1-2.8-.1h-1.5v1h3.2c.3 0 1 0 2.1-.1v1.2c-1.1 0-1.8-.1-2.1-.1h-3.4l-.1.1c1.4 1 2.4 1.5 3.4 1.9zm-4.1-6.7v-1.3h-2.7v1.3zm2.2-4.1v-1.1h-3.4v1.1zm1.9 4.1v-1.3h-2.8v1.3z" fill="#fafbfa"/><path d="m37 6.7v2.3 5.4c1 0 1.8 0 2.2-.1v1.3c-.6 0-1.5-.1-2.5-.1h-11.9c-.7 0-1.3 0-1.8.1v-1.3c.5 0 1.1.1 2 .1v-5.2c0-1 0-1.8-.1-2.5h3.7c0-1.3 0-2.1-.1-2.5h1.5c0 .4-.1 1.3-.1 2.5h2.2c0-1.2 0-2.1-.1-2.6h1.5c0 .4-.1 1.3-.1 2.6zm-12.3 13.7c-.3-.4-.7-.8-1.1-1.1 1.1-.4 2.1-.9 2.9-1.3.8-.5 1.5-1 2.1-1.6.4.4.9.8 1.3 1.1-2.5 1.4-4.2 2.4-5.2 2.9zm3.9-10.1v-2.4h-2.2v2.4zm0 4.1v-2.9h-2.2v2.9zm3.5-4.1v-2.4h-2.2v2.4zm0 4.1v-2.9h-2.2v2.9zm.4 2.9 1-1.1c.6.3 1.4.7 2.5 1.3s2 1.1 2.7 1.5c-.4.4-.8.8-1.1 1.3-.8-.8-2.5-1.7-5.1-3zm3.1-7v-2.4h-2.1v2.4zm0 4.1v-2.9h-2.1v2.9z" fill="#fafbfa"/><path d="m172.81 281.96c-9.45 0-18.51-.3-27.55.07-13.99.57-27.02-2.2-38.16-10.88-8.6-6.7-8.27-17.12-5.71-25.48.31-1.01 1.9-1.8 3.05-2.35 8.4-4.02 17.4-4.65 26.52-4.48 9.18.17 18.29.13 27.2-2.84 10.67-3.56 13-12.43 11.21-20.68-.83-3.82-1.87-7.6-3.07-11.32-3.47-10.76-2.36-21.95-3.39-32.94-.36-3.84-.92-7.78-2.18-11.4-6.02-17.19-12.3-34.29-18.55-51.39-.6-1.64-1.48-3.26-2.56-4.64-8.33-10.68-16.31-21.67-25.31-31.75-4.08-4.57-9.84-8.29-15.56-10.62-11.45-4.67-23.4-8.11-35.14-12.06-.85-.28-1.72-.49-2.56-.81-4.09-1.59-8.46-2.9-8.58-8.51-.12-5.87 3.74-12.29 8.59-14.02.89-.32 1.99-.15 2.98-.08 17.67 1.22 33.88 6.77 48.74 16.38 14.15 9.14 27.32 19.5 39.1 31.56 6.5 6.66 10.78 14.76 14.31 23.29.68 1.65 1.2 3.37 1.84 5.04 3.59 9.49 10.57 14.55 20.64 14.7 1.05.02 2.41-.96 3.12-1.88 8.02-10.35 16.06-20.69 23.83-31.22 4.03-5.46 8.57-10.24 14.07-14.22 17.15-12.43 34.6-24.32 54.52-31.99 10.62-4.09 21.69-6.15 33.02-6.86.76-.05 1.55.11 2.3.3 6.81 1.78 13.6 3.66 20.44 5.34 1.78.44 2.26 1.23 2.31 2.98.19 7.61.24 7.61-7.01 10.02-20.68 6.88-41.38 13.74-62.04 20.68-1.87.63-3.7 1.58-5.31 2.72-14.11 10.08-28.16 20.24-42.19 30.35.07.32.05.57.16.69 4.36 4.45 4.41 4.49.12 9.13-9.95 10.75-18.54 22.36-23.7 36.27-3.32 8.94-4.56 18.26-4.95 27.63-.62 14.86-.5 29.75-.86 44.62-.05 2.3 1.14 3.16 2.77 4.01 7.75 4.05 16.15 5.11 24.7 5.2 12.53.13 25.06-.16 37.58.11 8.26.17 16.54.78 24.17 4.65 4.96 2.51 8.02 6.29 8.6 11.92.06.55.35 1.23.13 1.64-2.74 5.19-3.84 11.15-10.09 14.34-10.38 5.3-21.28 7.9-32.74 9.05-13.79 1.39-27.57 3-41.32 4.72-2.23.28-4.55 1.29-6.43 2.56-4.28 2.88-5.15 5.33-3.68 10.2 4.28 14.28 4.4 29.15 6.4 43.75.99 7.2 1.56 14.46 2.49 21.67.89 6.86-.29 12.93-5.85 17.58-3.35 2.8-7.19 3.89-11.56 3.35-2.08-.26-2.9-1.13-3.27-3.33-5.03-29.88-10.2-59.73-15.33-89.6-.08-.44-.19-.86-.26-1.17z" fill="#010103"/></svg>