<svg viewBox="0 0 400 400" xmlns="http://www.w3.org/2000/svg"><rect width="400" height="400" fill="white" /><path d="m6.8 9.5c.6.3 1.3.7 2.1 1.1-.4.4-.7.8-.9 1.2-.7-.4-1.3-.8-1.8-1.1s-1.1-.6-1.6-.8c.2-.4.5-.8.7-1.2.4.2.8.5 1.5.8zm.9 6.9c-.3.6-.5 1.1-.7 1.7s-.4 1.1-.6 1.7c-.6-.4-1.1-.7-1.6-1 .7-1 1.2-1.8 1.5-2.4.3-.5.6-1.1.8-1.7.3-.6.5-1.2.8-1.8.3.3.8.6 1.3.8-.7 1.3-1.2 2.2-1.5 2.7zm.1-11c.4.3 1 .7 1.7 1.1-.5.2-.8.6-1.1 1.1-.5-.6-1-1-1.4-1.2s-.9-.6-1.5-.8c.2-.4.5-.7.9-1.1.5.3.9.6 1.4.9zm10.5 13.1c1 .4 2 .6 3.1.7-.4.4-.7.8-.8 1.3-.9-.2-1.9-.6-3-.9-1-.4-2-.9-2.8-1.6-.5.4-1.1.9-1.9 1.3s-1.9.9-3.3 1.2c-.1-.3-.5-.8-1.1-1.3 1 0 2.1-.3 3.2-.8 1.2-.5 1.9-1 2.3-1.7h-3.2c-.4 0-1 0-2 .1v-1.2c1 0 1.7.1 2 .1h3.3v-1h-2.3c-.2 0-.9 0-2 .1v-1.2c1.2 0 1.9.1 2 .1h2.3v-.8h-4.1c0-.7.1-1.2.1-1.6 0-.5 0-1.1-.1-1.8h4.1v-.7h-2.5c0-.6.1-1.1.1-1.6v-.6h-.5c-.4 0-1 0-1.8.1v-1.3c1.2 0 1.9.1 2.1.1h.2c0-.3 0-.8-.1-1.4h1.4c0 .6-.1 1-.1 1.4h3.4c0-.4 0-.8-.1-1.3h1.5c0 .4-.1.9-.1 1.3.7 0 1.5 0 2.5-.1v1.2c-1 0-1.8-.1-2.5-.1v.6c0 .3 0 .8.1 1.5h-2.5v.8h4.1c0 .7-.1 1.3-.1 1.8s0 1 .1 1.5h-4.1v.8h1.4c.8 0 1.8 0 2.9-.1v1.2c-1 0-1.9-.1-2.8-.1h-1.5v1h3.2c.3 0 1 0 2.1-.1v1.2c-1.1 0-1.8-.1-2.1-.1h-3.4l-.1.1c1.4 1 2.4 1.5 3.4 1.9zm-4.1-6.7v-1.3h-2.7v1.3zm2.2-4.1v-1.1h-3.4v1.1zm1.9 4.1v-1.3h-2.8v1.3z" fill="#fafbfa"/><path d="m37 6.7v2.3 5.4c1 0 1.8 0 2.2-.1v1.3c-.6 0-1.5-.1-2.5-.1h-11.9c-.7 0-1.3 0-1.8.1v-1.3c.5 0 1.1.1 2 .1v-5.2c0-1 0-1.8-.1-2.5h3.7c0-1.3 0-2.1-.1-2.5h1.5c0 .4-.1 1.3-.1 2.5h2.2c0-1.2 0-2.1-.1-2.6h1.5c0 .4-.1 1.3-.1 2.6zm-12.3 13.7c-.3-.4-.7-.8-1.1-1.1 1.1-.4 2.1-.9 2.9-1.3.8-.5 1.5-1 2.1-1.6.4.4.9.8 1.3 1.1-2.5 1.4-4.2 2.4-5.2 2.9zm3.9-10.1v-2.4h-2.2v2.4zm0 4.1v-2.9h-2.2v2.9zm3.5-4.1v-2.4h-2.2v2.4zm0 4.1v-2.9h-2.2v2.9zm.4 2.9 1-1.1c.6.3 1.4.7 2.5 1.3s2 1.1 2.7 1.5c-.4.4-.8.8-1.1 1.3-.8-.8-2.5-1.7-5.1-3zm3.1-7v-2.4h-2.1v2.4zm0 4.1v-2.9h-2.1v2.9z" fill="#fafbfa"/><g fill="#010103"><path d="m208.77 27.04c5.13 9.85 5.54 20.22 4.91 30.82-.7 11.83-1.32 23.67-1.56 35.51-.1 5.23 1.09 10.47 1.23 15.71.12 4.75.18 9.63-.78 14.24-1.61 7.75.43 15.14 1.2 22.64.86 8.44 2.03 16.7-.08 25.27-.95 3.84.52 8.37 1.26 12.52 1.65 9.24 3.28 18.37 2.65 27.92-.31 4.71 1.67 9.61 2.81 14.38 3.66 15.33 6.8 30.82 11.38 45.86 2.32 7.64 6.61 14.94 11.21 21.57 12.68 18.28 25.94 36.17 39.11 54.11 2.44 3.32 5.65 6.05 8.34 9.19 2.57 3 4.24 6.44 4.25 10.77-5.83-.99-10.89-2.05-14.93-6.88-5.79-6.92-12.12-13.26-16.87-21.15-3.57-5.93-9.57-10.34-13.76-15.97-7.87-10.57-15.75-21.2-22.64-32.41-9.3-15.12-13.83-32.16-17.14-49.46-2.1-10.98-3.9-22.01-5.76-33.03-.31-1.86-.33-3.78-.36-5.68-.82-56.95-1.62-113.9-2.47-170.86-.03-2.31.22-3.89 3.02-4.03 1.64-.08 3.25-.66 4.98-1.04z"/><path d="m99.04 374.93c1.4-5.51 2.53-10.17 3.8-14.79.25-.9.86-1.85 1.58-2.44 7.05-5.85 11.64-13.44 14.07-22.04 6.96-24.63 17.37-47.86 28.22-70.92 3.5-7.44 4.16-15.49 6.17-23.24 1.54-5.95 2.68-12.02 4.58-17.85 3.06-9.4 3.75-19.17 4.01-28.81.64-24.48.62-48.98.53-73.47-.07-17.79-.34-35.59-1.16-53.36-.46-10.02-2.41-19.97-3.29-29.99-.36-4.04.33-8.17.54-12.23 4.79.02 8.36 2.75 9.51 7.84 1 4.44 1.22 9.06 1.73 13.61 1.54 13.66 3.79 27.29 4.43 41 1.07 23.23 1.13 46.52 1.59 69.78.06 3.13-.14 6.27-.03 9.4.11 3.23.19 6.35-3.3 7.87.16.49.16.77.29.86 3.14 2.25 2.94 4.85 2.27 8.55-1.55 8.56-1.8 17.34-2.9 25.99-.91 7.18-1.36 14.59-3.57 21.39-9.05 27.83-18.7 55.46-28.16 83.16-.43 1.25-.91 2.6-1.74 3.58-8.78 10.34-14.59 22.44-20.74 34.37-4.33 8.38-10.53 15.26-18.43 21.74z"/></g></svg>