<svg viewBox="0 0 400 400" xmlns="http://www.w3.org/2000/svg"><rect width="400" height="400" fill="white" /><path d="m203.25 97.71c4.04-3.39 7.92-6.76 11.96-9.93.62-.49 2.18-.45 2.92-.01 3.27 1.92 6.63 3.79 9.54 6.19 7.89 6.53 15.06 13.81 19.43 23.24 1.47 3.16 2.16 6.79 2.62 10.28.47 3.6-1.13 6.59-3.11 9.83-6.33 10.37-12.25 21.04-17.63 31.93-3.09 6.25-4.85 13.17-7.14 19.8-.32.91-.27 1.95-.38 2.87 8.91 3.59 17.69 6.9 26.28 10.64 35.41 15.43 67.69 35.94 97.4 60.55 7.6 6.29 15.16 12.63 20.58 21.02 4.2 6.5 5.57 13.82 5.57 21.43 0 .69-.98 1.93-1.56 1.97-2 .12-4.07 2.24-6.08-.4-3.92-5.16-7.88-10.33-12.18-15.17-12.8-14.39-28.36-24.58-46.43-31.49-18.67-7.14-36.94-15.34-55.35-23.16-10.35-4.4-21.09-6.82-32.33-6.1-7.91.5-14.05-2.48-19.35-8.09-13.81-14.6-18.69-42.01-6.16-60.67 8.63-12.86 15.85-26.39 21.13-41.03 1.88-5.22 1.76-9.15-2.05-13.29-2.86-3.09-5.05-6.79-7.68-10.41z" fill="#010105"/><path d="m21.73 306.21c12.42-10.53 25.22-20.06 39.09-28.1 10.26-5.94 20.64-11.62 29.11-20.18 10.93-11.04 18.9-24.07 25.7-37.85 2.04-4.14 1.13-8.81-.6-13.08-2.02-4.96-4.16-9.87-6.25-14.8-1.59-3.75-8.06-7.42-12.2-6.6-6.04 1.19-11.24-.3-15.93-4.14-7.57-6.21-14.35-13.15-19.84-21.27-3.26-4.82-4.59-9.1-4.32-13.76 4.63.71 9.28 1.1 13.77 2.17 20.94 5.03 40.68 12.91 58.06 25.86 3.81 2.84 7.26 6.35 10.27 10.05 7.93 9.74 8.33 20.96 4.89 32.39-2.73 9.08-6.2 17.94-9.41 26.87-.32.89-.99 1.7-1.63 2.43-5.16 5.84-10.39 11.62-15.52 17.49-1.69 1.93-3.18 4.05-4.64 6.16-2.22 3.2-4.76 5.8-8.87 6.52-1.23.21-2.36 1.22-3.43 2.01-7.74 5.71-15.7 11.16-23.13 17.25-10.68 8.75-22.84 13.33-36.41 14.78-3.77.4-7.57.91-11.25 1.8-3.3.8-5.35.11-6.25-3.3-.21-.82-.7-1.6-1.21-2.7z" fill="#010105"/><g fill="#fcfbfa"><path d="m377.9 391.2c-.2.3-.4.5-.6.8-.7-.6-1.4-1-2.2-1.5.2-.3.4-.5.5-.8.6.4 1.4.8 2.3 1.5zm-1.8 6.1c-.2-.2-.5-.4-.9-.6.4-.6.8-1.2 1.2-1.9s.7-1.3.9-1.9c.3.3.5.5.8.7-.7 1.3-1.4 2.6-2 3.7zm2.2-9c-.3.3-.5.5-.6.8-.6-.6-1.3-1.1-2-1.5.3-.3.5-.5.6-.7.6.5 1.3.9 2 1.4zm.3.2v-.9h2 4.5c-.3 1.3-.6 2.5-1 3.6s-.9 2.1-1.4 3c.4.5 1 1 1.6 1.4s1.2.8 1.9 1.1c-.3.2-.5.4-.8.8-.4-.3-1-.7-1.6-1.2s-1.2-1.1-1.6-1.6c-.5.6-1.1 1.1-1.7 1.6s-1.4.9-2.1 1.4c-.1-.3-.3-.5-.7-.8.6-.2 1.2-.5 1.9-1s1.4-1.1 2-1.8c-.5-.8-.9-1.6-1.2-2.5s-.6-2-.8-3.2c-.4.1-.7.1-1 .1zm2.5 2.7c.3 1 .7 1.7 1 2.2.3-.5.6-1.1 1-2s.6-1.9.9-3h-3.2-.4c.1.9.3 1.8.7 2.8z"/><path d="m396.5 388.5v1.5 3.6h1.5v.9c-.4 0-1 0-1.7 0h-7.9c-.5 0-.9 0-1.2 0v-.9h1.3v-3.5c0-.7 0-1.2 0-1.6h2.4c0-.8 0-1.4 0-1.7h1c0 .3-.1.8-.1 1.7h1.5c0-.8 0-1.4 0-1.7h1c0 .3-.1.9-.1 1.7zm-8.2 9.2c-.2-.3-.5-.5-.8-.8.8-.3 1.4-.6 1.9-.9s1-.7 1.4-1.1c.3.3.6.5.9.8-1.6 1-2.8 1.6-3.4 2zm2.6-6.8v-1.6h-1.5v1.6zm0 2.7v-1.9h-1.5v1.9zm2.4-2.7v-1.6h-1.5v1.6zm0 2.7v-1.9h-1.5v1.9zm.2 2 .7-.8c.4.2.9.5 1.6.8s1.3.7 1.8 1c-.3.3-.5.5-.8.8-.4-.3-1.5-1-3.3-1.8zm2-4.7v-1.6h-1.4v1.6zm0 2.7v-1.9h-1.4v1.9z"/></g></svg>