<svg viewBox="0 0 400 400" xmlns="http://www.w3.org/2000/svg"><rect width="400" height="400" fill="white" /><path d="m91.32 375.25c-2.28-3.81-1.81-10.01 1.03-12.38 5.11-4.25 8.66-9.61 11.63-15.42 2.49-4.87 4.68-9.91 7.27-14.73 1.82-3.39 4.1-6.54 6.16-9.81.41-.64 1.2-1.36 1.11-1.94-.58-3.71 1.75-6.17 3.71-8.65 6.48-8.16 10.92-17.37 14.41-27.09.44-1.23.53-2.59.84-3.88.54-2.22 1.24-4.4 1.65-6.64.6-3.26.98-6.56 1.48-9.84.52-3.41 1.23-6.8 1.56-10.23.49-5.1 1.31-10.26.94-15.32-.7-9.58-2.47-19.09-3.19-28.67-.77-10.33-4.44-19.8-7.88-29.33-1.72-4.77-1.24-9.25.23-13.75.66-2.04 2.11-3.82 3.82-6.8 1.71 2.95 3.33 4.84 3.97 7.03 3.11 10.49 5.65 21.15 8.97 31.57 5.21 16.37 5.33 33.18 5.07 50.05-.02 1.49-.27 3.34-1.17 4.37-1.97 2.26-1.81 4.34-1.17 7.05s.93 5.85.19 8.47c-2.68 9.55-5.31 19.19-9.01 28.36-2.94 7.28-8.03 13.69-11.11 20.93-5.93 13.92-14.16 26.46-22.94 38.52-3.82 5.24-9 9.72-12.95 15.12-1.02 1.38-3.05 2.03-4.62 3.01z" fill="#010100"/><path d="m253.3 157.87c.41-8.97.37-16.27 1.19-23.47.6-5.26 2.26-10.4 3.55-15.57 4.75-19.06 8.94-38.29 14.58-57.09 2.85-9.51 8.4-18.21 12.62-27.33.77-1.67 1.2-3.56 1.44-5.39.35-2.7 1.93-4.37 4.41-3.37 2.71 1.09 5.21 2.9 7.49 4.77 1.4 1.15.11 4.94-2.16 6.09-3.81 1.93-5.17 5.4-7 8.94-6.84 13.18-9.93 27.71-15.43 41.37-2.02 5.01-3.34 10.37-4.45 15.67-2 9.5-4.17 19.02-5.22 28.65-1.22 11.1-1.96 22.34-1.62 33.48.2 6.42 2.38 12.97 4.66 19.1 3.13 8.38 7.72 16.06 13.36 23.12 7.05 8.82 13.89 17.81 20.67 26.85 1.36 1.82 2.43 4.07 2.92 6.27.73 3.29-.95 4.42-4.23 3.79-5.81-1.11-9.78-4.73-12.85-9.37-2.99-4.51-5.52-9.33-8.26-14.01-.22-.38-.49-.77-.84-1.03-8-6.01-13-14.67-17.41-23.06-3.81-7.26-4.56-16.21-6.14-24.51-.98-5.1-.98-10.4-1.28-13.9z" fill="#010100"/><g fill="#fafbfa"><path d="m6.4 11.7c-1-.8-1.9-1.6-2.9-2.3l.6-.7c.9.7 1.9 1.4 2.9 2.2zm-2.1 8.3c.7-2.1 1.4-4.2 2-6.4.2.1.6.3 1 .4-.7 2.3-1.3 4.4-1.9 6.4zm3-12.8c-1.1-.9-2.1-1.7-2.9-2.4l.6-.7c1 .8 2 1.5 3 2.4zm1.4-1.3v-.9h10.2v.9c-.9 4.2-2.3 7.3-4.1 9.4 1.3 1.4 3.2 2.7 5.7 4-.2.2-.4.5-.7.9-2.5-1.4-4.4-2.7-5.7-4.2-1.4 1.5-3.5 3-6.1 4.4 0 0 0 0-.1-.1-.3-.4-.5-.7-.7-.8 2.7-1.3 4.7-2.8 6.2-4.2-1.8-2.2-3-5.3-3.7-9.4zm9.2 0h-7.1c.6 3.8 1.7 6.7 3.4 8.7 1.7-2 2.9-4.8 3.7-8.7z"/><path d="m31.6 3.6h.9v2.3h4.1v9.1h1.7v.9h-16.6v-.9h1.7v-9.1h4.1v-2.3h.9v2.3h3.1v-2.3zm-4 13.3.6.8c-1.9.9-3.8 1.9-5.8 2.8-.2-.3-.3-.6-.5-.9 2-.9 3.9-1.8 5.7-2.7zm-3.2-10.1v3.7h3.1v-3.7zm0 4.5v3.7h3.1v-3.7zm4.1-4.5v3.7h3.1v-3.7zm0 4.5v3.7h3.1v-3.7zm9.1 9.1c-2.1-1.1-4.1-2-5.8-2.7l.5-.8c2.2.9 4.1 1.8 5.8 2.6zm-1.9-13.6h-3.1v3.7h3.1zm-3.2 4.5v3.7h3.1v-3.7z"/></g></svg>