<svg enable-background="new 0 0 400 400" viewBox="0 0 400 400" xmlns="http://www.w3.org/2000/svg"><path d="m374.8 390.4.4-.4c.7.5 1.3 1 1.8 1.4l-.5.5c-.5-.6-1.1-1.1-1.7-1.5zm1 7.3-.6-.3c.5-1.4 1.1-2.8 1.5-4.3.2.1.4.2.6.3-.5 1.3-1 2.8-1.5 4.3zm-.4-10.3.4-.4c.4.3 1 .8 1.7 1.4l-.5.5c-.4-.5-1-1-1.6-1.5zm2.5.3h1.7v-1h.6v1h3.5v-1h.6v1h1.8v.5h-1.8v1.4h-2v1h3.2v2h-3.2v.9h3.3v.5h-3.4c0 .3-.1.6-.1.9h4v.5h-3.7c.7.9 1.9 1.5 3.8 1.7-.1.2-.2.4-.3.6-2.1-.4-3.5-1.1-4-2.1-.4 1-1.8 1.7-4 2.2-.1-.2-.2-.4-.3-.6 2.1-.4 3.4-1 3.8-1.8h-3.4v-.5h3.6c.1-.3.1-.6.2-.9h-3.3v-.5h3.4c0-.3 0-.6 0-.9h-3.2v-2h3.3v-1h-2.1v-1.4h-1.7v-.5zm1.1 3.5v1h2.7c0-.3 0-.4 0-.4 0-.1 0-.2 0-.2 0-.1 0-.2 0-.3h-2.7zm1.2-3v.9h3.5v-.9zm4.7 3h-2.6v.6.4h2.6z" fill="#fbfcfa"/><path d="m393.6 386.7h.6v1.5h2.7v6.1h1.1v.6h-11v-.6h1.1v-6.1h2.7v-1.5h.6v1.5h2.1v-1.5zm-2.7 8.8.4.6c-1.2.6-2.5 1.3-3.8 1.9-.1-.2-.2-.4-.3-.6 1.2-.6 2.5-1.2 3.7-1.9zm-2.2-6.7v2.4h2.1v-2.4zm0 3v2.5h2.1v-2.5zm2.8-3v2.4h2.1v-2.4zm0 3v2.5h2.1v-2.5zm6 6.1c-1.4-.7-2.7-1.3-3.9-1.8l.3-.6c1.5.6 2.7 1.2 3.9 1.7zm-1.2-9.1h-2.1v2.4h2.1zm-2.1 3v2.5h2.1v-2.5z" fill="#fbfcfa"/><path d="m176.95 78.39c2.28 10.18 2.19 19.43.65 28.64-1.74 10.38 2.37 18.26 9.92 25.21 3.44-2.93 6.81-5.8 10.51-8.95 5.73 7.68 13.19 12.56 22.79 14.67 0-1.38 0-2.48 0-3.58 0-25.19-.03-50.38.05-75.57.01-2.31-.68-3.96-2.25-5.62-4.71-5.01-8.91-10.44-10.13-17.43-.45-2.56-.07-5.26-.07-8.88 7.99 6.87 15.31 13.16 22.89 19.67 5.15-6.55 10.22-12.99 15.3-19.44.21.11.42.22.63.33-1.68 6.34-3.38 12.68-5.05 19.02-1.11 4.2-2.48 8.11-5.16 11.79-5.44 7.48-6.9 16.47-7.3 25.45-.84 18.48.1 36.92 2.66 55.25.19 1.34 1.54 2.9 2.77 3.64 7.31 4.34 14.62 8.7 22.16 12.6 7.6 3.93 10.05 10.22 9.05 18.1-.62 4.85-1.93 9.63-3.2 14.37-.28 1.03-1.57 2.08-2.64 2.57-8.03 3.66-16.12 7.19-24.45 10.87.2 1.02.32 1.98.58 2.91 4.99 17.87 9.98 35.74 15.05 53.58.44 1.56 1.25 3.12 2.22 4.42 5.65 7.51 11.4 14.94 16.82 22.89-5.53-2.73-11.06-5.46-17.01-8.39-1.11 5.87-2.18 11.42-3.21 16.99-1.8 9.79-3.49 19.59-5.42 29.36-.51 2.6.3 3.75 2.6 4.83 8.5 3.98 16.9 8.18 25.26 12.91-9.85-.84-19.71-1.69-29.77-2.55-2.4 11.69-4.75 23.16-7.11 34.63-.26.03-.52.07-.77.1-1.02-6.01-2.28-11.99-3.03-18.04-2.1-17.04-.59-33.92 2.24-50.78 3.28-19.53 3.64-39.18 1.53-58.88-.07-.67-.13-1.36-.37-1.98-4.45-11.92-8.93-23.84-13.47-35.93-10.65 1.18-21.08 2.34-31.52 3.5-.67.07-1.33.18-2 .26-8.94 1.1-6.93-.78-8.59 7.84-2.51 13.03-2.16 26.05 2.15 38.77.56 1.66 1.4 3.29 2.4 4.73 4.29 6.14 8.69 12.19 13.11 18.36-2.5 1.83-4.56 1.84-7-.11-4.28-3.41-8.83-6.48-13.74-10.04-9.18 22.95-3.55 44.95 3.16 66.92-.32.21-.65.42-.97.63-4.14-2.28-8.27-4.56-12.74-7.03-1.42 13.99-2.86 28.15-4.34 42.65-.39-.48-.73-.71-.83-1.02-4.48-13.44-5.53-27.06-2.57-41 2.14-10.06 3.98-20.18 5.94-30.28.21-1.09.38-2.22.36-3.33-.47-26.55.5-53.04 2.59-79.5.4-5.07.25-5.12-4.64-6.21-5.14-1.15-10.12-2.39-14.34-6-6.26-5.35-7.72-10.24-5.45-18.11 1.98-6.86 3.33-13.89 5.16-20.8.35-1.32 1.49-2.57 2.56-3.52 4.73-4.21 10.05-7.87 14.27-12.53 5.85-6.47 6.07-17.86 1.64-25.5-10.01-17.26-21.06-33.8-33.98-49.04-7.99-9.43-11.71-20.45-12.72-32.57-.05-.65-.01-1.31-.01-1.96.43-.2.71-.4 1.01-.46 6.51-1.24 6.51-1.24 9.88 4.64 4.23 7.37 8.46 14.73 13.09 22.79 3.1-8.13 5.98-15.67 9.08-23.77 2.65 4.95 4.12 9.77 4.3 14.81.16 4.21-.06 8.53-.8 12.67-1.99 11.1 3.18 18.88 11.24 26.03 3.02-6.83 5.85-13.31 9.03-20.6zm41.85 97.07c-.06 0-.12 0-.18 0 0-4.7.24-9.42-.05-14.1-.45-7.32-2.82-10.45-9.91-11.95-5.76-1.22-11.72-1.47-17.6-2.04-.79-.08-1.83.23-2.45.73-4.72 3.89-9.05 8.04-9.19 14.83-.05 2.34-.56 4.67-.65 7.02-.33 9.31-.16 18.57 3.19 27.47.64 1.71 1.42 2.42 3.47 1.96 9.82-2.22 19.65-4.35 29.53-6.28 2.29-.45 2.92-1.5 3.01-3.55.22-4.71.55-9.4.83-14.09zm15.45 12.38c3.3-2 6.18-4.23 9.42-5.59 5.02-2.1 6.65-5.8 6.43-10.8-.06-1.34-.14-2.67-.22-4.01-.19-3.14-1.66-5.71-4.32-7.17-3.95-2.16-8.13-3.9-12.93-6.15-.95 11.83-5.87 22.76 1.62 33.72zm-67.63-25.21c-7.41 5.58-10.72 13.52-12.97 22.05-.33 1.25-.46 2.87.06 3.96 1.5 3.17 2.97 6.57 5.34 9.02.85.88 4.24-.69 6.47-1.17.76-.17 1.65-.25 2.22-.7.83-.65 1.96-1.55 2.03-2.42.57-7.01 1.12-14.03 1.25-21.06.05-3.68-.86-7.32-4.4-9.68z" fill="#010106"/></svg>