<svg enable-background="new 0 0 400 400" viewBox="0 0 400 400" xmlns="http://www.w3.org/2000/svg"><path d="m12.4 4.8-6.1 9h6v1.2h-8v-.5l6.1-8.9h-5.7v-1.2h7.6v.4z" fill="#fafafb"/><path d="m14 15v-10.6h3c1.6 0 2.9.5 4 1.4s1.6 2.2 1.6 3.8-.5 3-1.6 3.9-2.4 1.5-4 1.5zm1.4-9.4v8.2h1.6c1.3 0 2.4-.4 3.1-1.1s1.1-1.8 1.1-3.1-.4-2.3-1.2-3-1.8-1-3.1-1z" fill="#fafafb"/><path d="m26.1 4.4v10.6h-1.4v-10.6z" fill="#fafafb"/><path d="m36.1 14.6c-.8.4-1.8.6-2.9.6-1.5 0-2.7-.5-3.6-1.4s-1.4-2.2-1.4-3.8c0-1.7.5-3.1 1.5-4.1s2.3-1.6 3.9-1.6c1 0 1.8.1 2.5.4v1.4c-.8-.4-1.6-.6-2.5-.6-1.2 0-2.1.4-2.9 1.2s-1.1 1.8-1.1 3.2c0 1.3.3 2.3 1 3s1.6 1.1 2.7 1.1c1 0 2-.2 2.7-.7v1.3z" fill="#fafafb"/><path d="m37.6 14.3c0-.2.1-.5.3-.6s.4-.3.6-.3c.3 0 .5.1.6.3s.3.4.3.6-.1.4-.3.6-.4.3-.6.3c-.3 0-.5-.1-.6-.3s-.3-.4-.3-.6z" fill="#fafafb"/><path d="m50.2 15h-1.6l-5.3-8.2c-.2-.2-.3-.5-.4-.7 0 .2.1.7.1 1.5v7.4h-1.4v-10.6h1.7l5.2 8.1c.2.4.4.6.4.7 0-.3-.1-.8-.1-1.5v-7.3h1.4z" fill="#fafafb"/><path d="m58.6 15h-5.7v-10.6h5.5v1.2h-4.1v3.4h3.8v1.2h-3.8v3.6h4.3z" fill="#fafafb"/><path d="m67.1 5.6h-3.1v9.4h-1.4v-9.4h-3v-1.2h7.5z" fill="#fafafb"/><g fill="#010105"><path d="m99.88 227.2c.55-.93 1.07-1.87 1.65-2.78 1.49-2.32 1.82-4.64-.4-6.65-1.88-1.71-2.51-3.53-1.63-5.99.21-.57-.29-1.73-.83-2.15s-1.69-.57-2.31-.28c-2.01.93-3.89 2.12-6.2 3.41-2.1-4.6-5.81-5.01-10.17-4.57-2.19.22-4.49-.72-7.42-1.27 1.63-1.95 2.73-3.27 3.84-4.61-5.25-2.95-5.83-2.89-12.08 1.29-.47-.91-.93-1.8-1.51-2.94-.64.95-1.12 1.66-1.6 2.38-.18-.09-.44-.14-.52-.29-1.95-3.42-3.2-3.85-6.74-2.14-1.71.82-3.28 2.02-5.06 2.59-.99.32-2.27-.31-3.42-.51.79-.8 1.45-2.02 2.4-2.31 3.25-1 6.61-1.67 10.6-2.63-2.42-1.56-4.22-2.71-6.47-4.16 5.2-1.46 11.69 4.5 14.73-3.67-.77-.54-1.64-1.16-2.62-1.85-.92.78-1.75 1.47-3.06 2.57.26-3.26.47-6.03.72-9.2-4.3 0-8.4 0-12.39 0-.5-2.2-.91-4.04-1.35-5.98 3.32.46 5.69-.71 5.94-4.77-1.97-.81-3.96-1.63-6.08-2.5 1.65-3.69 5.06-3 7.45-3.22s4.94 1.38 7.47 2.2c-.26-2.08-.57-4.57-.85-6.82-2.39-1.69-6.32 2.52-7.34-2.45-3.32.79-4.33.19-5.04-3.25 1.48.2 2.86.39 4.69.63.29-1.93.57-3.76.87-5.73 1.38-.67 3.3-1.6 5.4-2.61-.53-.85-.9-1.45-1.28-2.05.19-.18.38-.36.57-.54 1.17 1.22 2.33 2.44 3.71 3.87.49-2.37 1-4.83 1.56-7.49 3.22 3.03 4.03 6.59 3.73 10.52-.11 1.45-.36 2.89-.43 4.34-.07 1.51-.51 3.72 1.83 3.41 1.69-.23 4.99.12 3.88-3.99 1.38 4.99 5.83 4.8 9.27 6.59 1.08-1.5 2.08-2.89 3.31-4.61.41 1.93.72 3.41 1.15 5.43 1.11-1.48 2-2.66 3.07-4.08 1.05 1.3 1.64 2.03 2.26 2.79 6.17-8.03 6.49-18.37.6-19.61-1.09 4.15.67 9.18-4.07 13.2.31-3.35.71-5.81.73-8.28.02-3.2-1.76-4.81-4.88-4.44-.85.1-2.17 1.01-2.28 1.71-.69 4.19-3.92 3.74-7.66 4.54 1.91-8.1-2.28-14.63-3.74-21.72.3-.28.61-.56.91-.85.97.78 2.01 1.5 2.91 2.36 1.2 1.15 2.73 3.65 3.37 3.42 2.64-.93 6.29-.6 7.32-4.34.35-1.28.8-2.54 1.2-3.78-4.18-2.31-4.18-2.31-8.27 2.35-.46-.49-.94-.95-1.36-1.47-.98-1.21-1.94-2.43-3-3.78.87-1.25 1.69-2.42 3.15-4.51-3.76 1.15-6.61 2.03-8.68 2.66 1.12-5.42 2.34-11.29 3.54-17.04 3.42 3.12 3.82 5.61 1.21 10.16-.92 1.61-1.79 2.96.96 4.25 4.53-4.1 9.25-8.34 13.9-12.66.61-.57 1.17-1.54 1.2-2.35.2-5.69 3.69-9.68 7.34-14.07-3.14-2.08-6.13-4.07-9.12-6.06.16-.38.32-.75.48-1.13 2.22.73 4.45 1.46 6.79 2.23.2-1.44.5-3.57.72-5.12-3.26-1.89-6.13-3.55-8.99-5.21.11-.28.22-.56.34-.83-.63.32-1.26.65-2 1.03-.62-1.24-1.19-2.33-1.72-3.43-.38-.8-.71-1.62-1.21-2.77 1.99-.23 4.02-.56 2.53-3.31-1.23 0-2.55-.12-3.84.03-2.28.27-4.62.26-5.05-2.45-.23-1.43.87-3.07 1.37-4.61.35.04.69.08 1.04.12-.81-.67-1.62-1.35-2.75-2.28 3.48-2.48 6.8-4.86 10.28-7.34-.88-.92-1.69-1.63-2.33-2.47-1.92-2.5-1.67-5.28.98-6.96 3.27-2.08 6.77-3.79 10.35-5.76 1.09 1.8 1.99 3.29 3.09 5.1-1.78-.23-3.19-.41-4.6-.59-.09.17-.18.34-.28.51 1.77 1.22 3.54 2.44 5.31 3.64.27.18.62.47.88.42 3.47-.64 7.39-.55 10.27-2.23 2.79-1.63 4.52-5.09 6.73-7.76-.51-.43-.31-.34-.26-.2 3.27 8.3 3.27 8.3-4.17 13.41-1.2.82-2.38 1.66-3.75 2.63 2.37 1.65 5.02 3.06 3.32 6.61-.19.39.77 1.33 1.61 2.66 1.13-2.98 1.56-5.54 2.95-7.38 1.34-1.78 3.67-2.81 5.81-4.35 4.03 9.27 4.05 18.15 3.58 27.42-1.47-5.24-3.91-6.23-8.24-4.16-1.34-1.52-2.52-2.91-3.76-4.25-.93-1.01-1.94-1.95-2.92-2.92 1.07-.7 2.14-1.4 3.2-2.11.26-.18.49-.4 1.38-1.12-3.05-.25-5.47-.45-7.98-.66-.47 1.72-.85 3.1-1.35 4.94-.31-1.47-.54-2.53-1-4.67-.77 1.9-.98 3.12-1.67 3.89-.56.62-1.71.7-2.98 1.16 1.56 1.04 3.11 2.08 4.76 3.18-.88 3.17-2.36 3.55-5.66 1.11-2.58 4.33-2.51 4.89.43 7.57-1.04 2.83-2.01 5.45-2.98 8.07.45.34.89.68 1.34 1.02 2.15-1.28 4.31-2.55 6.48-3.84.43 6.64 6.06 10.53 10.54 15.61-2.75 0-5.22 0-8.07 0 .74-4.76-1.03-7.8-6.14-8.23-2.8 3.4 1.32 4.06 2.56 6.04-2.52 1.86-5.9 2.63-6.58 6.5-.18 1.01-2.71 1.6-4.44 2.53 1.12.94 2.28 1.91 3.61 3.03 1.12-1.27 2.13-2.4 3.34-3.76 1.36 3 2.22 6.33 5.95 6.94.95-1.06 1.83-2.04 2.7-3.01.27.18.54.36.8.54-1.69 4.81-4.89 9.43-1.94 15.24 1.08-1.34 1.98-2.46 3.24-4.01.04 3.65.9 6.36 4.5 7.33.35-1.72.68-3.35 1.01-4.98 3.94 2.82 7.55 1.67 9.61-3.03 2.39-5.49 2.39-5.49 1.12-7.43 2.1-.25 4.98.21 6.56-1.02 1.68-1.3 2.26-4.14 3.09-6.39 1.04-2.83 1.85-5.74 2.75-8.62.3.08.6.16.89.24v4.56c.22-.15.44-.3.66-.45.87.9 1.74 1.79 2.54 2.62-1.51 1.31-3.68 2.39-3.62 3.34.1 1.79 1.14 3.83 2.41 5.2 2.54 2.75 5.5 5.11 8.54 7.86-.78 1.93-1.77 4.38-2.83 7.02 1.2.5 2.27.94 3.81 1.58-2.22.72-3.96 1.27-6.58 2.12 3.67 1.15 6.48 2.03 8.62 2.7-.71 1.53-1.73 2.94-1.99 4.48-.32 1.92-.37 3.7-2.49 4.65-.56.25-.78 1.24-1.31 2.15 3.29.69 6.31 1.31 9.49 1.98.31-1.77.57-3.27.74-4.25 2.29-.25 4.93.25 6.09-.84 2.39-2.24-1.01-3.7-1.79-5.49 4.77-5.17 10.36-8.04 17.02-7.16 1.67 2.86 3.2 5.48 5.22 8.94.51-3.11.85-5.25 1.31-8.06 9.91 12.38 19.44 24.29 28.99 36.22-8.54 5.87-46.76 8.62-58.33 3.89h12.6c-1.02-2.05-1.8-3.61-3.11-6.23 2.02.87 3.18 1.37 4.63 1.99.28-1.16.65-2.72 1.08-4.52-4.03-.35-7.79-.69-11.83-1.04-.35 3.98-2.25 4.32-5.54 2.93-2.09-.88-4.61-.74-7.04-.38.65.19 1.31.37 2.12.61-.89 2.04-3.55 4.31 1.63 6.1-2.82.66-4.55 1.06-6.77 1.58.13-4.23.14-8.17-4.77-9.27 1.43-2.39 6.49-.88 5.15-5.36-1.06-3.53-2.45-4.26-6.82-3.8-.34 3.13-1.08 6.36-.84 9.51.11 1.47 2.11 2.79 3.5 4.48-1.23.53-2.66 1.16-4.47 1.94 1.47 1.29 2.74 2.41 4.08 3.57-1.07 1.68-2.09 3.27-3.24 5.08 1.59 1.58 1.72 4.94 5.34 3.97 2.43 4.41 7.4 3.51 11.12 5.18 3.95 1.77 8.25 2.76 12.56 4.14 1.14-1.53 3.2-2.82.1-5.27 3.23.58 5.85.94 8.42 1.57.87.21 1.89.9 2.3 1.66 2.61 4.8 6.88 7.46 11.68 9.54-.59 1.62-1.18 3.24-1.9 5.2-6.21-3.95-11.66-9.9-20.36-9.11-.63 3.47-1.25 6.92-1.95 10.79 3.67.29 7.06.57 10.28.82 1.5 3.22-1.06 7.16 1.66 9.8.33-3.45.37-6.57 1.08-9.55.21-.9 2.34-2 3.49-1.89 3.54.34 7.12.92 10.51 1.98 2.53.8 4.78 2.49 7.15 3.78-.08.33-.16.66-.24.99 1.57-1.3 3.14-2.6 4.9-4.06-5.17-3.09-9.93-5.95-14.7-8.8 4.17 1.23 8.37 2.38 12.51 3.71 9.71 3.11 13.62 10.97 15.05 20.02 1.17 7.46 1.18 15.12 1.4 22.7.12 4.12-.4 8.26-.63 12.31-2.13-4.56-4.27-9.16-6.68-14.32-2.59 2.15-4.61 3.82-6.87 5.7 5.64 6.07 1.35 12.48 1.42 19.71-4.05-3.66-7.4-6.68-11.05-9.97 6.94-3.57 3.32-9.51 3.57-14.64-.68 1.45-1.36 2.89-2.35 5-.12-3.71-.8-6.43-3.35-6.56-1.25-1.64-1.97-2.58-2.52-3.31-4 .99-5.82 8.24-11.36 2.98 1.21-.65 2.36-1.27 3.94-2.12-3.62-2.38-6.95-4.57-10.29-6.77-3.97-2.6-4.06-6.42-.06-9.35-7.39-5.67-14.5-11.78-25.55-7.47 5.02 1 9.45 1.89 14.75 2.95-3.05.88-5.35 1.54-7.87 2.27 1.02 2.77 1.64 5.53 5.56 5.79.16-1.78.32-3.51.48-5.24 5.44 1.08 7.32 2.93 7.28 6.91-.03 2.65-1.29 3.63-3.83 3.27-1.76-.25-3.54-.62-5.31-.61-3.22.02-4.12 1.43-3.31 4.51.18.67-.09 1.46-.16 2.2-.33.02-.66.04-.99.07-1.11-3.55-2.22-7.09-3.53-11.27-2.02 3.14-4.18 5.68-5.29 8.61-.46 1.22.88 3.68 2.09 4.88 4.54 4.53 9.07 9.16 14.17 13.02 4.56 3.44 9.78 6.05 14.89 8.67.98.5 2.81-.67 4.17-1.04-.61-3.77-1.18-7.09-1.67-10.42-.64-4.38-2.56-5.85-7.06-5.75-3.44.08-6.94.18-10.31-.38-2-.33-3.79-1.92-5.73-3.48 5.05-.07.46-7.04 5.71-6.73-.69.99-1.31 1.88-2.03 2.92 7.54 4.76 17.61 4.08 23.87 11.41.1-.65.24-1.55.42-2.73 1.08.89 1.91 1.58 3 2.48.25-.87.42-1.44.49-1.68 1.57 1.41 3.29 2.95 5.44 4.88-4.25.81-8.02 1.52-12.72 2.42 5.46 2.86 10.27 5.38 15.08 7.89-.04.18-.09.36-.13.54-2.5 0-5.01 0-8.54 0 1.83 2.46 2.92 4.55 4.57 6 3.18 2.79 6.57 5.4 10.09 7.76 3.2 2.15 10.65.03 12.84-3.23 1.11-1.65 2.47-3.12 4.12-5.17-.32 4.58-.6 8.69-.93 13.44-3.92-.58-7.61-1.15-11.3-1.65-1.54-.21-3.26-.78-4.62-.33-3.38 1.11-5.64-.66-8.19-2.26-14.18-8.93-28.3-17.96-42.67-26.57-13.45-8.06-27.19-15.66-40.84-23.48-2.64 2.24-5.17 4.39-7.71 6.55-.04-.08.03-.01.03-.01zm30.2-83.37c-1.32-2.58-2.68-.28-3.75.19-.82.36-1.2 1.71-1.78 2.62.25.18.49.35.74.53 1.38-.88 2.76-1.76 4.15-2.64-1.73 3.47-3.46 6.93-5.49 11-1.22-2.87-2.05-4.81-3.2-7.52-.71 2.9-1.52 5.02-1.69 7.18-.29 3.72-2.66 4.05-5.76 4.12.35-2.42.05-4.99 1.11-6.75 2.24-3.77 2.08-4.69-2.08-6.37-1.42-.58-3.51-1.99-3.54-3.08-.1-3.37.63-6.76 1.08-10.44 3.74 2.26 5.38 5.22 5.39 9.41 1.49-.4 2.68-.72 4.27-1.15-4.41-4.88-8.49-9.39-12.9-14.26-.45 1.07-.99 2.21-.94 2.24 2.43 1.31.9 3 .56 4.62-.45 2.07-.9 4.16-1.08 6.26-.49 5.51-.74 5.84-6.23 6.38.61 1.9 1.2 3.74 1.59 4.95 2.26-.88 4.33-1.69 6.83-2.66.28 2.4.47 4.02.67 5.76-1.14.22-2.04.4-3.24.63 2.1 2.42 4.89 4.28 5.47 6.68.61 2.54-.88 5.59-1.46 8.41-.02.11-.1.23-.08.32.2.7.21 1.73.68 2.04 2.09 1.35 4.32 2.5 6.5 3.72l-.12-.11c2.26.85 5.1 1.13 6.66 2.68 3.42 3.39 6.09 1.47 9.03-.27.67-.4 1.35-.79 2.08-1.08 1.81-.71 2.1-1.75 1.47-3.65-1.03-3.1-1.63-6.35-2.49-9.88-4.49-1.27-6.88-4.07-6.09-7.93 2.03.88 4.03 1.75 6.28 2.72.81-1.45 1.54-2.75 2.43-4.34-2.15-.89-3.95-1.63-5.76-2.37.94-2.74 5.15-5.01.69-7.96zm-64.69 55.71c2.62-2.07 4.64-4.44 7.2-5.47 2.63-1.05 5.78-.77 9.44-1.14-1.71-.91-2.73-1.46-3.94-2.11.82-2 1.56-3.8 2.24-5.45 1.74.15 2.73 3.91 4.79.5-3.88-2.67-7.53-5.19-11.08-7.64.89-4.08 4.24-3.06 6.93-3.56-2.67-4.07-3.23-9.22-8.21-11.32-1.09 2.37-1.54 5.06-5.13 4.84-4.05-.25-5.32 1.02-5.95 4.54-1.78 1.06-3.32 1.97-4.98 2.96 2.29 1.63 4.27 3.03 6.3 4.47 1.27-1.5 2.5-2.68 3.42-4.07 1.75-2.67 3.67-2.59 5.17-1.45-.85 4.74-1.8 8.83-2.26 12.96-.38 3.4-.73 6.62-3.23 9.28-.58.6-.51 1.82-.71 2.66zm81.4-83.28c-.34-.44-1.19-1.54-2.3-2.98-1.15 3.34-2.13 6.2-3.12 9.06-.4.06-.8.11-1.2.17-1.48-4.25-2.96-8.5-4.64-13.33-1.49 2.51-2.63 4.43-3.92 6.62-.76-1.58-1.35-2.78-1.93-3.98-.49 3.06-1.04 5.72-4.75 5.67v3.27c.56-.94.99-1.67 1.37-2.32 4.78 1.08 4.99 1.46 3.69 6.59-4.45.66-8.96 1.32-13.64 2.01-.21-1.09-.37-1.96-.59-3.12-2.1 4.39-.1 7.73 6.1 10.51-.29-2.4-2.31-5.09 1.18-6.78 1.02 1.57 2.04 3.13 3.53 5.43 2.84-3.19 5.34-5.99 8.34-9.36v7.85c1.81-.77 3.39-2.03 4.73-1.82 1.18.19 2.1 2.03 3.25 3.27 1.09-1.44 2.21-2.91 3.43-4.5-1.41-1.02-2.54-1.84-3.99-2.89 1.42-3.02 2.81-5.92 4.46-9.37zm-53.36 4.91c.23-1.66-.02-3.92.69-4.27 1.61-.81 3.69-.68 5.64-.93 0-2.25-.12-4.41.04-6.55.14-1.88.61-3.73.98-5.86-11.05.57-16.09 8.28-22.6 14.69 1.59.27 2.66.46 3.72.64 1.09-4.09 1.75-4.3 7.34-2.65.41 2.93.8 5.73 1.29 9.26 3.03-1.97 5.06-3.29 7.1-4.61-.09-.16-.17-.32-.26-.47-1.17.21-2.33.44-3.94.75zm95.67 25.69c-1.72 2.65-2.72 5.78-4.83 7.02-2.03 1.19-5.39 1.41-7.52-1.62-.8 3.51.39 4.95 3.58 5.24 3.55.32 7.19.61 10.56 1.65 3.21.99 4.93-.08 6.5-2.93-2.69-3.04-5.45-6.16-8.29-9.36zm8.35 71.38c-1.18-1.63-1.83-3.32-3.05-4.04-2.21-1.31-4.72-2.28-7.23-2.81-.45-.1-1.48 2.59-2.28 3.97-.09.15-.35.19-.66.35-1.11-1.02-2.25-2.06-4.26-3.89 0 2.29-.62 4.34.11 5.11 2.64 2.77 5.73 5.1 9 7.89.65-5.2 4.33-5.81 8.37-6.58zm-55.69 8.39c-1.27-1.36-2.47-2.65-3.76-4.03 1.7-2.5 4.77-4.65 1.84-8.31-1.3.93-2.62 1.87-4.74 3.39-.37-2.07-.64-3.63-.9-5.09-1.35 1.33-2.89 2.84-4.2 4.13 2.55 5.06 2.09 13.42 11.76 9.91zm-9.91-38.84c-.86-.96-1.14-1.29-1.44-1.6-3.54-3.77-8.45-4.35-13.07-5.39-5.23-1.18-8.82-4.02-10.89-8.91-.22-.52-.6-.98-1.19-1.9-.34 3-2.86 5.88 1.64 7.15-2.23 2.37-1.65 4.08 2.98 9.12.34-.76.8-1.42.94-2.14.52-2.68 2.14-2.96 4.44-2.35 4.58 1.21 9.56 1.31 13.18 5.09.51.53 1.65.47 3.41.93zm-7.49 7.48c-3.17-2.13-6.19-4.16-9.44-6.35-3.81 5.06-9.62 8.04-11.68 14.17 2.57-2.02 4.82-4.32 6.82-6.81 1.36-1.7 2.55-1.99 4.49-.88 3 1.73 6.19 3.31 9.81-.13zm39.71-43.46c1.45-.56 2.7-1.03 3.93-1.53 1.19-.49 2.37-1.04 3.66-1.61-.98-1.92-1.78-3.5-2.59-5.08-2.04-3.98-4.59-4.36-7.8-1.47 1.23 1.04 2.49 2.11 3.82 3.24-1.13 1.32-2.05 2.4-3 3.5.67.99 1.22 1.82 1.98 2.95zm-63.75-100.45c2.37-2.77 4.13-4.82 5.92-6.9-2.12-.21-4.4-.17-6.52-.73-2.05-.55-3.94-1.73-5.6-2.5.28 1.19.72 3.1 1.19 5.14-1.1.46-2.04.85-3.68 1.55 3.61 1.42 6.55 2.59 8.69 3.44zm-7.72 137.76c4.26 8.3 3.75 10.32-3.14 12.31.26.69.51 1.36.91 2.41 2.6-2.98 5.29-4.48 9.01-1.45.11-1.61.7-3.73.21-4.02-2.52-1.47-1.55-3.37-1.27-5.36.42-3.08-2.53-5.16-5.72-3.89zm41.86 8.42c-2.05-1.63-3.64-2.9-5.39-4.29-1.88 2.92-3.59 5.39-5.08 7.99-.55.96-1.18 2.62-.75 3.24.65.93 2.21 1.22 4.21 2.17-2.77-7.59 3.17-7.12 7.01-9.11zm-18.72 3.16c-5.81 3.4-7.57 5.65-6.71 8.57 6.73-1.62 6.75-1.64 6.71-8.57zm-30.03-61.02c5.61-6.63 5.71-6.99 3.28-10.15-1.68 2.33-3.44 4.78-5.28 7.34.6.83 1.21 1.7 2 2.81zm53.2 51.49c.6 7.96 1.25 8.88 5.16 8.34-.38-1.45-.98-2.92-1.1-4.43-.2-2.63-1.18-4.15-4.06-3.91zm36.17-57.21c2.18-.97 4.05-1.8 6.36-2.82-2.2-2-4.07-3.7-6.36-5.78zm-.53.51c-2.23.97-4.08 1.77-6.2 2.69.85 1.02 1.45 1.73 2.03 2.42.92-.81 1.61-1.42 2.43-2.14.44 1.9.81 3.48 1.17 5.06.19-.01.37-.03.56-.04.01-2.59.01-5.17.01-7.99zm-46 80.79c-.3-.97-.77-2.51-1.48-4.82-.89 6.09-1.66 11.33-2.43 16.57-.37 0-.74 0-1.11.01.71.56 1.42 1.11 2.07 1.63 1.67-4.3-.23-9.11 2.95-13.39zm43.16-52.43c-.04.28-.08.56-.11.84 5.39 2.15 11.04.72 16.61.25-5.5-.37-11-.73-16.5-1.09zm8.05 56.29c-1.24 1.22-2.29 2.26-3.34 3.3 2.09.56 4.17 1.12 6.26 1.68.14-.37.29-.75.43-1.12-.99-1.13-1.97-2.26-3.35-3.86zm-27.84-76.44c-.05-.16-.1-.33-.15-.49-2.59 0-5.18 0-8.26 0 .84 1.34 1.44 2.3 2.1 3.35 2.32-1.05 4.31-1.96 6.31-2.86zm47.21 15.67c-.1.46-.2.93-.29 1.39 1.29.47 2.75 1.59 3.83 1.3 2.87-.78 1.31-3.1 1.35-5.43-1.89 1.06-3.39 1.9-4.89 2.74zm-101.66-27.21c-.25.12-.49.23-.74.35.7 1.67 1.39 3.35 2.4 5.77 1.4-2.01 2.21-3.19 3.4-4.9-1.98.5-3.22.82-4.63 1.18-.17-.94-.3-1.67-.43-2.4zm-15.97 31.7c.45 1.77.76 2.97 1.13 4.43 1.71-.73 3.07-1.31 5-2.12-2.31-.87-3.92-1.48-6.13-2.31zm126.06 45.85c.44 2.17.72 3.58 1.03 5.1 1.49-.37 2.61-.65 4.33-1.08-1.85-1.39-3.28-2.46-5.36-4.02zm-148.53-52.51c.01.37.01.74.02 1.1 1.8-.33 3.63-.57 5.36-1.11.17-.05-.23-1.93-.36-2.96-.61 2.32-.61 2.32-5.02 2.97zm27.28 39.37c.38.2.76.39 1.13.59 1.12-2.21 2.24-4.41 3.36-6.62-.39-.2-.78-.39-1.17-.59-1.11 2.21-2.22 4.41-3.32 6.62z"/><path d="m196.51 289.63c-.09 7.58-.23 15.16-.24 22.74-.01 6.35.01 12.71.3 19.06.07 1.54.9 3.54 2.06 4.39 1.43 1.04 3.56 1.38 5.42 1.47 2 .11 2.64-1.55 3.01-3.34.61-2.92 1.41-5.8 2.71-8.67.57 2.75 1.15 5.5 1.72 8.26 3.76-2.23 4.93-6.28 1.66-11.21-4.63-6.98-3.38-14.12-2.13-21.34 1.13-6.56 1.37-6.55 7.97-7.05 3.34-.26 6.7-.5 10.05-.54 1.06-.01 2.13.67 3.19 1.03-.02.37-.04.75-.06 1.12-2.88 1.36-5.76 3.78-8.65 3.79-2.93.01-5.88-2.35-9.17-3.82v25.8c6.13 2.79 13.87.19 19.27 6.48 1.02-4.03 1.89-7.45 2.75-10.86.15-.01.31-.02.46-.03.3 2.43.6 4.86.96 7.81.52-1.29.89-2.21 1.01-2.51 1.64 1.11 3.22 3.03 4.9 3.13 2.96.16 5.6-1.31 6.74-4.69-2.27-1.49-3.95-3.3-2.3-6.1.82.36 1.77 1.15 2.29.93 1.05-.44 2.16-1.27 2.72-2.24 1.06-1.82 1.74-3.85 2.83-6.38 2.33 3.02 4.45 4.89 7.3 2.97 3.07-2.07 6.67-3.89 7.11-8.25.16-1.64.03-3.31.03-6.13-2.65 1.27-4.59 2.21-6.7 3.22-.08-.15-.51-.89-1.03-1.8-.68.85-1.28 1.6-2.15 2.68-.65-1.44-1.21-2.65-1.74-3.81 3.7-2.57 10.97 1.72 11.2-6.53.67-.28 1.56-.64 3.09-1.28-1.8-2.44-3.39-4.61-5.19-7.05 2.4-1.84 5.11-3.9 7.97-6.09.83 1.16 1.52 2.14 2.26 3.18.86-.61 1.66-1.18 2.85-2.02 1.45 1.78 2.85 3.5 4.57 5.62 1.91-3.18 3.5-5.82 5.08-8.46-1.12 3.3-.95 6.27 1.66 9.02 3.09-3.76 6.13-7.46 9.4-11.45.95 1.39 1.77 2.59 3 4.39-.08-3.6-.36-6.11-2.6-8.49-4.06-4.32-7.09-9.42-9.01-15.17 6.82-3.52 2.89-10.79 6.09-15.85h6.16c-.47-4.35-.9-8.4-1.34-12.53-4.28-.32-4.23 3.81-6.53 5.89-1.8-2.66-3.58-5.28-5.61-8.27 6.37-.77 12.3-1.49 18.94-2.3-1.2 4.53-2.1 7.92-3.13 11.8 2.18-.13 4.11-.72 5.62-.18 1.32.47 2.17 2.24 3.25 3.47.91-5.05 1.85-10.24 2.86-15.84 1.24 1.08 2.06 1.8 3.05 2.66.71-1.22 1.37-2.33 2.1-3.58.73.66 1.38 1.23 1.82 1.63 2.56-1.61 5.03-3.16 7.8-4.9.16 3.18 1.19 6.13-2.62 7.84-.81.36-1.59 2.42-1.29 3.35 1.4 4.38-.7 7.01-4.32 9.52-.73-1.83-1.4-3.52-2.08-5.21 4.73-2.48 4.85-3.53.87-8.77-.46 1.48-.86 2.77-1.3 4.2-.73-.21-1.35-.4-1.97-.57-2.23-.6-2.98.26-2.35 2.42.44 1.5.97 2.98 1.38 4.48.4 1.49.7 3.01 1.09 4.73-3.5 1.38-6.79 2.68-10.8 4.26 1.67.26 2.63.41 3.6.57-2.01 4.24-2.16 4.29-6.32 2.31-1.6-.76-3.21-1.49-5.15-2.38-1.74 5.77-3.4 11.26-5.05 16.73.44.2.66.39.81.35 3.77-1.25 7.41-1.99 11.51-.74 2.4.73 5.32-.01 7.96-.4.88-.13 1.71-1.18 2.36-1.97.74-.91 1.26-2 2.48-2.77-.52 2.36-1.03 4.72-1.57 7.2-5.53.08-11.34-1.49-15.55 4.05 1.02.43 1.97.83 3.26 1.38-3.4 2.75-3.79 6.23-3.2 10.24 1.05 7.21.29 8.34-7.44 13.63 4.11.7 8 1.45 8.5 6.76-1.02-.69-1.84-1.25-2.85-1.94-.28 1.34-.53 2.51-.77 3.65 1.88 1.07 4.84 1.08 3.88 4.45-11-1.11-13.09 7.59-16.87 14.86 8.1 1.95 8.85-6.4 13.82-9.01 1.3 1.49 2.73 3.14 4.37 5.02 2.19-3.88 4.27-7.55 6.36-11.26 1.99 1.34 4.02 2.37 5.63 3.84 4.4 4.03 3.51 9.17-1.85 11.6-4.1 1.86-4.1 1.86-3.82 5.73 2.23-.78 4.62-1.45 6.87-2.44 3.03-1.34 4.76.6 7.21 2.53-5.11 1.16-9.03 3.21-9.89 8.83-.87-1.69-1.75-3.37-2.92-5.65-2.82 5.35-7.72 4.61-12.2 4.49 2.52 2.76 4.97 5.44 7.55 8.26 1.27-.99 2.39-1.86 3.73-2.9 1.23 1.64 2.46 3.28 3.69 4.91-.18.28-.36.56-.54.84-1.84-.73-3.68-1.45-5.8-2.29-.54 1.14-1.14 2.42-1.72 3.67 6.71 5.3 6.22 14.48-1.02 17.39.19-3.72.83-7.4.39-10.95-.25-1.98-2.29-3.73-3.97-6.26-2.08 4.1-8.49 4.09-7.55 10.54.86-.58 1.54-1.03 2.1-1.41.15 1.14-.09 2.64.56 3.46.73.94 2.24 1.26 3.62 1.96-2.73 2.39-5.4 4.72-8.24 7.21-1.22-1.72-2.28-3.21-3.6-5.08-1.03 2.45-1.91 4.52-2.77 6.57-1.4-1.59-2.74-3.09-4.21-4.75-1.83 2-3.25 3.54-4.78 5.21-.71-.76-1.3-1.39-1.89-2.02-.3.14-.61.28-.91.41.4.92.65 1.95 1.24 2.72.42.55 1.28.77 2.36 1.36-1.73 1.86-3.29 3.53-5.05 5.43-1.52-1.74-2.87-3.3-4.52-5.2-.67 1.73-1.24 3.21-2.05 5.29-.53-1.55-.89-2.61-1.56-4.61-1.53 2.24-2.82 4.12-4.42 6.47-2.02-3.77-3.37-6.3-4.98-9.32-1.14 2.57-2.06 4.63-3.17 7.14-1.26-1.76-2.3-3.23-3.52-4.94-1.31 1.85-2.43 3.44-3.58 5.08-1.25-5.63 3.24-7.07 6.88-9.5-1.03-.51-1.73-.86-2.62-1.31 1.01-1.96 2.02-3.92 3.16-6.12.74 1.05 1.36 1.93 1.67 2.37 4.05-1.94 7.65-4.04 11.52-5.29 1.28-.41 3.27 1.36 5.04 2.18 2.31-2.84-1.84-3.05-2.13-5.14 1.18-1.54 2.52-3.28 4.04-5.27-1.18-.73-2.18-1.35-3.11-1.93-2.73 1.88-1.94 7.2-7.42 6.25.94-3.46 1.87-6.92 2.86-10.55-.98-.47-1.85-.88-2.71-1.29-3.43 4-2.63 10.02-7.04 13.36.77-2.81 3.66-5.48.7-7.99-4.2 3.47-8.31 6.87-12.17 10.06.55 1.38 1.31 3.27 2.15 5.38-2.71-1.68-4.91-3.05-7.32-4.55.81-.6 1.64-1.21 2.9-2.14-2.38-.36-4.33-.66-6.48-.99-.46.87-.91 1.73-1.39 2.63-.01-.01-.13-.07-.21-.16-1.29-1.5-2.46-3.13-3.9-4.47-1.99-1.84-5.69.45-6.4 4.03.86.54 1.78 1.11 2.8 1.74-5.47 1.92-6.85 1.76-8.78-1.13-.55.76-1.06 1.41-1.51 2.11-.42.65-.76 1.34-1.37 2.42 3.08.52 5.87 1 9.42 1.6-3.56 2.78-6.67 5.21-10.06 7.85-1.5-3.05-2.93-5.96-4.38-8.89 3.72-1.22 3.84-1.65 2.71-7.45-3.76-2.19-7-4.09-10.4-6.07-7.53 7.15-8.65 8.59-9.82 12.99 1.45.41 2.91.82 5.05 1.42-1.91 1.23-3.33 2.16-4.78 3.07-1.5.94-3.01 1.85-4.89 3 0-3.95 0-7.54 0-11.54 1.24 0 2.59.23 3.81-.08.89-.23 2.03-1.04 2.27-1.84.25-.84-.09-2.42-.74-2.89-6.35-4.58-12.73-9.12-19.31-13.35-1.23-.79-3.99-.91-4.99-.07-3.52 2.94-5.46 1.44-7.21-2.22-1.15 1.84-2.08 3.32-3.26 5.22-2.07-2.88-4.15-5.46-5.85-8.26-1.7-2.79-3.67-4.58-7.19-4.33-1.64.12-3.32-.38-5.79-.7.42-2.55.84-5.04 1.38-8.3-1.7-.44-3.93-1.02-6.49-1.68-.78 2.85-1.45 5.28-2.16 7.84 1.35.74 2.5 1.38 4.02 2.22-1.57.73-2.92 1.36-4.75 2.2 3.23 2.72 8.31 3.71 7.58 9.48-1.29-.21-2.78-.44-4.55-.73.28-5-3.49-5.08-7.27-5.51.9-1.12 1.58-1.97 2.38-2.96-2.39-1.89-6.83-.85-6.93-5.86-.09-4.49 3.54-5.22 6.04-7.44-3.21-2.79-2.88-5.91-1.24-9.17.05-.1.13-.2.14-.3.52-7.72 5.66-13.42 8.74-20.02.42-.9.75-1.83 1.18-2.88-1.23-.69-2.36-1.32-4.02-2.24 3.65-1.22 6.8-2.26 10.33-3.44.41 2.99.8 5.79 1.24 8.98 1-.73 1.74-1.27 2.56-1.87.88 2.01 1.73 3.94 2.9 6.61.45-2.32.76-3.9 1.07-5.48.23-.01.47-.02.7-.03 0 1.76.19 3.54-.04 5.27-.66 5.06-.59 5.24 4.88 6.38-1.31.97-2.2 2.02-3.32 2.38-3.18 1.02-6.43 1.91-9.71 2.54-1.46.28-3.06-.18-4.59-.38-2.01-.27-4.02-.61-6.23-.96.62 6.9 2.87 10.27 7.28 11.33.11-1.64.22-3.24.33-4.85 5.61 1 5.75 2.08 1.32 10.21 2.52.85 4.97 1.85 7.52 2.43.71.16 2.07-.72 2.49-1.48 1.05-1.95 1.74-4.09 2.77-6.65 1.17 2.66 2.48 4.93 3.16 7.36 1.19 4.25 3.77 6.32 8.5 5.92-.32 1.63-.57 2.88-.99 4.95-3.63-2.05-6.93-3.92-10.25-5.75-.5-.28-1.13-.33-1.7-.48-.14.58-.55 1.24-.39 1.71.97 2.86 2.51 5.03 5.83 5.78 3.18.72 6.18 2.16 9.31 3.1 1.04.31 2.25.05 4.44.05-7.09-8.16.69-13.4 2.23-19.87-.68-.35-1.47-.76-2.64-1.36 1.27-1.73 2.48-3.38 3.83-5.22 2.55 3.11 4.21 6.1 4.42 10.06.08 1.54 2.19 2.97 3.78 4.96-.07.11-.63.98-1.26 1.96.87 1.48 1.82 3.1 2.78 4.72 4.04-1.69 6.34-5.64 5.21-9.89-.73-2.77-2.08-5.4-3.36-7.99-1.48-2.99-1.91-5.8-.29-8.95.53-1.02-.16-2.67-.29-4.02-.36 0-.72-.01-1.08-.01-.69 1.1-1.37 2.19-2.21 3.52-2.89-2.59-5.6-5.02-8.45-7.58-.09 1.05-.17 2.01-.31 3.71-2.62-2.28-4.83-4.21-7.33-6.39-2.51 4.78-6.77 5.68-12.2 2.5 1.51-.65 2.82-1.21 4.53-1.94-2.04-2.56-4.2-4.8-5.78-7.39-1.74-2.86-5.64-1.24-7.16-4.01 6.89-1.73 9.77-.84 13.69 4.46-.85.49-1.7.99-3.09 1.79 1.59 1.19 2.84 2.13 4.34 3.24.81-1.83 1.44-3.24 1.86-4.18 1.68 1.14 3.34 2.41 5.13 3.44 2.68 1.54 5.45 2.89 8.18 4.34.79.42 1.52.98 2.34 1.3 9 3.42 10.49 2.29 13.15-5.53zm66.93 41.52c3.97-1.05 8.74-1.23 9.98-7.38 1.46 2.47 2.55 4.3 3.75 6.33 1.87-2.3 3.41-4.21 4.85-5.98 1.33.87 2.52 1.64 3.7 2.41.19-.32.38-.63.58-.95-.87-.64-1.74-1.28-3.3-2.41 2.45-1.97 4.7-3.78 7.36-5.91-3.09-1.69-5.37-2.94-7.91-4.33-.78 2.46-1.45 4.57-2.25 7.1-.79-1.37-1.33-2.31-2.06-3.59-.72 2.3-1.32 4.22-1.92 6.13-1.54-4.75-5.94-5.64-9.02-7.26-.14-1.49-.25-2.62-.36-3.75-.29.03-.58.06-.87.09-.58 1.52-1.15 3.05-1.82 4.81-.58-1-1.01-1.72-1.44-2.45.41.48.82.97 1.22 1.45-1.06 1.2-2.12 2.4-3.18 3.6-.5-.45-1.01-.91-1.51-1.36.94.54 1.89 1.08 3.2 1.84-4.69 1.84-9.03 3.5-13.32 5.27-.85.35-2.26 1.29-2.17 1.62.83 3.02 1.56 6.18 3.09 8.86 1.14 2.01 3.41 3.37 5.27 5.11 3.95-2.78 3.18-8.92-1.83-11.54.88-3.03 3.49-4.4 5.91-3.44 1.71.68 2.57 3.5 4.05 5.73zm-45.11 20.63c2.86-.15 5.13-.33 5.26-4.03.08-2.27 1.4-3.79 4.29-3.21 2.48.5 5.07.41 6.67.52 2.09-4.62 7.07-5.43 9.75-8.71-2.44-2.29-4.77-4.47-7.37-6.91-.87 2.21-1.59 4.03-2.49 6.34-2.04-1.37-4.66-2.18-5.51-3.88-2.65-5.34-7.55-4.81-12.66-6.02 6.2 8.43 1.15 11.47-5.92 13.63 1.05.4 1.69.64 2.74 1.03-1.24 1.08-2.11 1.84-2.99 2.6.13.26.25.52.38.78 2.08-.99 4.16-1.99 6.17-2.94.48 3.07 1.07 6.86 1.68 10.8zm66.75-6.83c6.51-.62 6.57-6.06 9.37-10.07-1.43-.35-2.78-1.08-3.87-.8-.68.18-.96 1.89-1.55 3.2-5.53-1.84-11.43-3.81-17.77-5.91-.1 7.75 8.49 10.31 7.8 17.2 3.68-.24 3.68-.24 4.85-6.41.68 1.6 1.07 2.53 1.17 2.79zm16.68-23.12c1.04.32 2.96 1.61 4.37 1.19 2.61-.77 6.94-2.44 7.01-3.9.21-4.8 2.88-7.54 6.14-10.52-.7-.75-1.33-1.43-2.07-2.22-2.57 4.4-4.98 8.51-7.54 12.9-1.48-2.15-2.78-4.02-4.18-6.06-1.22 2.81-2.29 5.27-3.73 8.61zm-154.44-29.55c-3.81-3.63-6.32-.58-9.02 1.1-.51.32-.7 1.14-1.04 1.73.68.36 1.41 1.11 2.04 1.03 4.16-.52 8.29-1.21 12.86-1.91-1.2-2.06-2.19-3.79-3.41-5.89-.55 1.52-.88 2.43-1.43 3.94zm45.76 49.92c3.5.22 6.68.43 9.87.63.09-.38.19-.76.28-1.15-3.88-2.1-7.76-4.2-11.65-6.3-.21.25-.43.5-.64.74 1.27.8 2.54 1.6 3.57 2.25-.61 1.64-.91 2.44-1.43 3.83zm86.02-29.53c-.71-2.14-1.34-4.05-2.07-6.24-1.36 1.6-2.42 2.85-3.5 4.13-1.09-.58-2.02-1.07-3.01-1.59-.96 4 1.72 5.16 8.58 3.7zm14.02 31.66c-.78 1.75-1.27 2.84-1.82 4.06h5.18c-1.22-1.49-2.11-2.56-3.36-4.06z"/><path d="m122.59 276.55c-1.02.72-1.72 1.21-2.6 1.82 1.21.97 2.23 1.78 2.81 2.25-1.22 2.07-2.74 3.82-3.26 5.84-.33 1.29.82 2.96 1.45 4.89 1.52-1.14 2.45-1.83 3.37-2.52.23.1.47.21.7.31-.44 1.33-.47 3.15-1.38 3.91-2.76 2.29-2.54 5.46-3.44 8.4-1.17 3.83 1.24 5.53 3.19 7.72.28.32.5.69.76 1.06-3.21 1.36-3.93 3.01-2.89 4.76-1.95 1.08-3.92 2.18-5.9 3.28 2.73 1.82 6.54.58 6.47 4.98-.08 5.1-5.27 3.48-7.44 6.14-.82-1.29-1.44-2.28-2.36-3.74 0 3.02.16 5.55-.07 8.03-.12 1.29-.65 3.3-1.49 3.6-1.17.42-3-.12-4.22-.82-2.94-1.69-3.63-4.56-2.89-8.39-3.72 5.86-3.67 6.8.37 10.92-1.2.39-2.26.73-3.46 1.12-1.11-2.18-2.16-4.22-3.18-6.2-6.92 2.39-4.9-3.26-6.02-6.28 4.47-1.2 3.5-4.66 3.26-7.84-2.81-1.84-4.53-1.15-6.07 1.73-2.32 4.31-5.06 8.41-7.75 12.82 1.11.33 1.91.7 2.75.8 4.45.51 8.41 1.96 11.63 5.27 3.12 3.21 6.93 3.82 11.41 2.69-1.24 1.33-2.48 2.65-4.12 4.39 1.78.82 3.32 1.52 5.01 2.3.88-1.38 1.63-2.57 2.7-4.24 2.11 3.29 4.06 6.32 6 9.35-2.72 1.66-4.75 1.01-6.88-.73-3.19-2.6-6.6-4.92-9.25-6.87-2.22 2.19-4.12 4.07-5.95 5.88 3.11 1.91 2.83 4.52-1.65 7.77-.82-2.12-1.59-4.11-2.67-6.89-1.14.25-3.12.19-4.45 1.09-1.48 1-2.38 2.87-3.78 4.66-2-3.62-5.08-3.9-8.47-3.72-3.23.17-6.47.04-9.81.04-.34-1.21-.64-2.27-.89-3.13 1.42-.61 2.66-1.14 3.9-1.68-.86-1.75-1.34-3.9-2.66-5.17-2.32-2.22-5.15-3.9-7.98-5.95 1.02-.9 1.91-1.68 2.98-2.63-1.26-1.08-2.5-2.13-4.16-3.54 5.21 1.18 8.56-.54 10.71-5.47 2.69 6.84 8.6 6.9 13.76 7.98 1.33-3.55 2.55-6.83 3.85-10.29-.22-.03-1.38-.37-2.52-.33-5.3.2-10.44-.07-15.38-2.46-1.09-.53-3.01.66-4.5 1.48-1.27-.22-2.11-3.68-4.42.9-.62-6.71 4.75-4.11 6.21-6.91-1.42-1.04-3.25-2.38-5.37-3.94 1.61-1.02 2.97-1.88 4.54-2.87-1.66-1.8-5.21-.62-5.7-4.16-.44-3.18.66-4.84 4.47-5.82-2.61-.88-4.37-1.48-6.09-2.06-2.03 3.99-3.73 4.17-6.23 1.05-.38-.47-1.29-.55-1.97-.76-1.35-.42-2.71-.81-4.22-1.26.38-.75.54-1.16.78-1.51.57-.82 1.17-1.62 1.99-2.73.57 1.1 1.03 1.99 1.5 2.88 4.44-2.51 4.66-5.29.82-8.44 4.83-1.36 5.02-1.97 2.45-6.93-.35-.67-.24-1.55-.5-2.29-.62-1.76-1.32-3.48-2.03-5.31 3.62-.14 3.88 4.49 5.76 5.45 3.07-.97 5.5-1.74 8.57-2.72-.48 2.04-.74 3.17-1 4.28 4.55 2.09 5.18 1.97 6.16-1.3-4.81-.34-2.45-3.85-2.91-6.43 1.07-.17 2.01-.32 4-.64-1.16-1.65-2.05-2.91-3.41-4.82.04-.31.22-1.59.46-3.34 1.29 1.14 2.18 1.92 3.21 2.83.72-.88 1.39-1.72 2.38-2.93 1.44 2.08 2.78 4.01 4.28 6.17 1.02-1.24 1.91-2.32 2.99-3.65 1.65 2.92-1.43 3.91-2.01 5.74-.26.82-1.33 1.66-2.21 1.95-5.15 1.71-4.58 5.66-3.92 10.06 1.53.32 3.19.67 4.92 1.04.49-1.32.86-2.32 1.35-3.62 1.09 1.25 1.94 2.22 3.18 3.64 1.95-7.86 6.83-12.68 14.61-15.89 0 2.38.66 4.81-.19 6.47-.84 1.64-3.2 2.5-5.52 4.15h7.31c.62-2.88 1.27-5.89 2.03-9.43.59.89.93 1.41 1.07 1.62 1.77-.9 3.4-2.01 5.2-2.6 3.33-1.08 5.62.19 7.22 3.39 1.34 2.67 3.21 5.07 5.14 8.05 1.15-3.38 2.13-6.29 3.25-9.57 1.47 1.33 2.78 2.5 4.31 3.87zm-65.06 5.18c-2.19 1.18-2.47 4-4.82 4.12-.67 1.38-1.42 2.91-2.03 4.16.78.8 2.09 1.66 2.68 2.87.64 1.3.61 2.94.9 4.58 4.7-3.73 7.39-.85 9.36 5.21 1.34.22 2.71.03 3.29.62 1.94 1.95 3.78 4.06 5.3 6.35 1.22 1.84 1.81 4.08 2.87 6.04 1.3 2.39 5.94 4.02 7.53 2.67 2.71-2.29 5.32-4.71 8-7.1-1.87-2.58-3.08-4.47-4.51-6.17-1.24-1.47-1.23-2.6.03-4.07 1.69-1.97 3.16-4.14 5-6.6-1.92.27-3.26.7-4.55.59-2.69-.23-5.73-.08-7.96-1.29-3.73-2.03-7.75-1.39-9.42 2.53-4.48-1.53-8.98-3.06-13.68-4.66-.54-2.99-.12-5.69 4.19-6.2-.85-1.39-1.51-2.52-2.18-3.65zm42.39 18.11c.11-.22.22-.44.33-.66-.67-.73-1.42-1.41-2.01-2.2-2.5-3.33-1.11-6.56 2.83-7.37 2.1-.43 4.04-1.64 6.45-2.67-2.47-1.71-4.17-3.03-6.01-4.11-1.38-.82-2.94-1.34-4.65-2.09-1.13 3.43-4.15 4.86-8.23 4.03.03.59.01.71.05.8 1.17 3.02 5.99 4.8 3.11 9.25-.2.31.52 1.64 1.09 1.93 2.28 1.16 4.68 2.08 7.04 3.09zm2.7 5.55c.01-.42.02-.85.03-1.27-1.14-.07-2.45-.55-3.4-.16-7.13 2.95-7.09 3.17-6.9 8.23.14 3.8 2.41 4.89 5.7 5.06-2.57 3.76-2.57 3.76-.94 6.01 2.7-2.06 5.39-4.12 8.15-6.23-2.69-2.96-5.06-5.58-7.56-8.34 1.8-1.2 3.36-2.25 4.92-3.3zm9.39-.49h3.74c1.13-5.18.34-6.83-3.74-7.89zm-4.84-26c-.93 3.32 2.18 3.53 2.68 5.78.95-.9 1.48-1.4 2.24-2.12-1.68-1.25-2.98-2.21-4.92-3.66z"/><path d="m274.53 128.28c-.35-.79-.7-1.59-1.19-2.68-4.86 3.12-9.68 2.65-14.53.51-1.77-.78-3.03-.67-4.96.61-2.34 1.56-5.7 2.02-8.62 2.05-1.02.01-2.07-2.69-3.36-4.51 4.92-.24 9.4.25 13.41-.87 4.05-1.13 7.66-3.88 11.09-5.71 1.35 1.65 2.72 3.87 4.61 5.47 1.82 1.55 3.91 4.21 6.1 1.62 1.71 1.85 3.26 3.87 5.2 5.4.53.42 2.52-.38 3.3-1.16.52-.52.45-2.22-.02-2.99-.72-1.19-2.01-2.03-3.23-3.18 1.56-1.57 2.96-2.97 4.46-4.48 1.44 1.85 2.73 3.51 4.21 5.42.71-1.84 1.31-3.38 1.99-5.1-10.14-4.92-22.99-4.33-30.36-15.24 2.39-2.13 4.61-4.1 6.96-6.18.36.42.98 1.15 1.47 1.74 3.22-5.01 6.43-10.01 9.36-14.56-1.06-2.83-2.04-5.46-3.14-8.42 3.19.35 6.04.66 9.53 1.04-.71 5.77-1.07 11.43-2.29 16.91-.39 1.75-3.06 2.99-5.11 4.84-.88-2.62-1.58-4.73-2.44-7.31-.91 2.04-1.81 3.51-2.23 5.1-.62 2.36-.13 4.64 2.46 5.46 6.02 1.91 12.11 3.59 18.36 5.42 1.13-1.86 1.13-1.86-2.13-4.3 1.29-1.07 2.55-2.13 4.03-3.36-1.32-1.03-2.52-1.96-3.11-2.41 2.13-4.91 4.25-9.53 6.05-14.27.3-.8-.74-2.18-1.3-3.22-.67-1.26-1.49-2.45-2.32-3.78.84-.73 1.57-1.37 2.68-2.33-3.15-1.5-6.08-2.9-9.26-4.42.92-1.11 1.61-1.94 2.56-3.09-3.58-1.29-3.8-4.18-3.62-7.58 2.6.37 5.35-.34 5.85 3.61.2 1.61 4.81 1.52 6.44-.13 1.23-1.24 2.29-2.65 3.72-4.34.69 4.79 1.05 9.14 6.74 10.19 4.67.86 8.49-.49 11.71-3.23.8 5.92 1.8 11.61 2.27 17.35.33 4.03 2.44 5.09 6.01 5.3 2.77.17 5.05.31 4.63-3.8-.7-.49-1.68-1.17-3.21-2.24 2.46.44 4.26.76 6.4 1.14-1 5.97 4.37 6.98 7.7 9.87-1.17.94-2.27 1.82-3.86 3.09 3.03.74 5.63 1.38 8.68 2.13-6.8 2.36-6.97 2.45-9.86-3.1-1.65-3.17-4.3-4.38-7.4-5.11-.62-.15-1.85.1-1.94.41-.2.7-.11 1.72.3 2.31 1.13 1.66 2.49 3.16 3.74 4.74 1.26 1.57 2.5 3.15 3.94 4.95-1.03.78-1.95 1.48-2.91 2.21-2.68-4.6-7.81-8.15-14.4-10.08-.55 4.51-.07 5.15 5.04 5.97-2.12 1.63-3.93 3.03-5.78 4.45 3.02.66 3.38 1.52 1.57 3.75-1.12 1.38-2.31 2.69-4.03 4.69-.13-2.35-.22-4.01-.32-5.89-3.75.95-3.7 3.9-3.19 6.34.47 2.24 2.06 4.25 2.79 6.54-3.9-.72-6.06-2.98-7.82-6-2.1-3.62-2.41-3.54-6.39-1.96-1.14 8.64.65 16.23 7.66 22.03 1.2.99 2.42 2.07 3.28 3.35.76 1.14 1.83 3.29 1.39 3.81-1.85 2.15-.12 3.1.46 3.92 1.42-2.88 2.96-5.87 4.38-8.92 1.83-3.92 1.11-6.44-2.44-8.93-1.08-.76-2.17-1.48-3.12-2.78 2.44.32 4.87.65 7.4.98.23-.54.34-1.49.71-1.6 4.09-1.21 5.25-4.24 5.55-8.08.09-1.07 1.16-2.06 1.91-3.32-1.68-.87-3.51-1.81-5.59-2.89.62-1.96 1.21-3.84 1.83-5.79 3.83.86 5.92 5.46 10.51 4.51-.13-.75-.24-1.36-.38-2.12 2.14 1.9 4.11 5.04 6.2 5.13 2.17.09 4.47-2.76 7.05-4.57 1.68 1.39 3.69 3.05 6.1 5.05-1.64.86-2.86 1.51-4.32 2.28-.75-1.93-1.4-3.62-2.3-5.94-1.09 5.35-2.13 10.12-8.77 9.96-1.19-2.06-2.5-4.36-3.85-6.71-3.37 4.22-3.26 4.83-.76 9.11.87 1.5 1.18 3.59 1.06 5.36-.24 3.49-.95 6.95-1.51 10.74-.49-.77-1.3-1.59-1.57-2.57-1.87-6.64-2.99-7-8.24-2.52-.26.22-.53.41-1.28.98 1.56 1.28 2.92 2.39 4.46 3.65-1.79-.17-3.54-.85-4.69-.3-1.28.61-2.02 2.35-3.37 4.08 2.03.09 3.23.15 5.19.24-1.31.83-2.08 1.33-2.86 1.79-.86.51-1.74.98-2.84 1.59 1.07.83 1.99 1.55 3.07 2.39-.43.95-.82 1.83-1.29 2.88-4.15-1.07-8.17-1.96-12.11-3.16-2.66-.81-4.99-1.17-6.85 2.17-1.37-2.28-2.53-4.19-3.88-6.43-1.71 3.19-3.22 6-5.05 9.42 1.69 0 2.86-.07 4.01.02 1.87.15 3.18 2.47 1.85 3.48-4.49 3.39-2.41 7.61-1.93 11.67.06.54.27 1.06.04 1.82-1-1.5-1.99-2.99-3.15-4.73-1.79 2.12-3.48 4.13-5.34 6.34 1.43 1.09 2.64 2.02 4.65 3.56-1.24.88-2.19 2.02-3.32 2.26-2.71.58-3.58 2.15-3.79 4.72-.22 2.73.83 3.89 3.44 4.62 5.25 1.46 5.2 1.62 9.07-3.31.49 2.21 1.37 3.91.98 5.25-.26.88-2.34 1.69-3.62 1.72-2.86.07-5.8-.09-8.59-.68-3.5-.75-5.02-3.78-3.8-7.15 2.61-7.2 5.38-14.36.15-22.13 2.55.13 4.21.36 5.85.25.96-.07 1.89-.68 2.83-1.04-.35-.83-.5-1.84-1.08-2.46-1.49-1.62-3.16-3.07-4.82-4.64 6.82-4.71 8.47-7.79 7.02-13.66-2.44 1.13-4.75 2.21-7.22 3.36-.36-4.07 4.55-4.42 5.84-7.57-2.78-1.08-5.18-1.55-6.95 1.77-1.04 1.95-2.58 3.64-4.1 5.75-1.56-1.36-3.04-2.64-4.6-3.98-1.56 1.46-3.08 2.87-4.92 4.6-.28-3.41-.52-6.36-.76-9.31 1.38-.34 2.75-.69 4.41-1.1-.66-1.07-1.22-1.99-1.84-3-.89.46-1.69.82-2.48 1.18zm29.41-48.16c5.98 1.7 11.03 3.13 16.22 4.61-4.12 6.02-4.12 6.02-1.46 9.35 1.58-1.92 3.18-3.78 4.69-5.72 2.23-2.86 1.5-5.96-1.72-7.81-1.5-.86-2.95-1.81-5.26-3.23 2.82-.22 4.61-.36 6.93-.54-1.03-1.68-1.59-3.06-2.56-4.05-.88-.89-2.47-2.11-3.25-1.83-1.14.41-2.02 1.95-2.68 3.18-.98 1.84-1.66 3.83-2.49 5.81-2.23-4.46-4.18-8.34-6.12-12.23-.35.09-.71.18-1.06.27-.59 1.5-1.18 3.01-1.86 4.75 1.26.18 2.21.31 2.97.42 1.61 2.84 1.47 5.11-2.35 7.02zm9.99 16.03c-6.75 6.63-6.8 6.71-4.97 9.97 2.67-2.04 5.32-4.06 7.6-5.8-1.03-1.62-1.8-2.84-2.63-4.17zm-14.87 33.28c2.97 2.61 5.53 4.85 8.29 7.27 1.53-5.38-.9-7.49-8.29-7.27zm-29.53-23.37h5.23c-1.22-1.84-2.17-3.27-3.35-5.05-.73 1.94-1.26 3.37-1.88 5.05z"/><path d="m241.6 294.65c-2.5 1.96-4.96 3.89-7.41 5.82-.21-.25-.42-.5-.63-.75.47-.44.89-.96 1.42-1.31 2.88-1.88 2.67-5.89-.04-8.05-1.17-.94-2.31-3.05-2.1-4.42 3.94-26.05.92-52.26 1.95-78.36.06-1.53 1.05-3.03 1.61-4.54.35.08.7.16 1.04.24 0 1.7-.07 3.41.01 5.11.15 3.14 1.7 5.49 4.3 7.18 1.94 1.27 3.61 1.54 6.12.51 3.3-1.35 7.13-1.73 10.76-1.92 4.22-.23 8.48.19 12.73.31 6.81.2 13.18 1.66 18.52 6.79-.71 1.12-1.7 2.68-3.05 4.79-1.14-4.52-3.31-7.37-7.82-7.32-2.72.03-5.76-1.56-8.38 1.71 2.68 1.39 5.17 2.67 7.75 4.01-3.55 2.82-3.94 4.3-2.33 8.45.44 1.14 1.04 2.23 1.48 3.37 1.78 4.66.51 6.83-4.69 7.78-.52-.84-1.07-1.74-1.8-2.94-2.3 1.17-4.51 2.29-7.52 3.82 5.2 2.54 9.53 4.66 14.29 6.98-1.4.78-2.34 1.31-3.59 2.01.82.67 1.95 1.13 2.12 1.83.2.83-.55 2.68-.69 2.66-5.73-.79-6.11 3.54-7.22 7.47 2.04 1.01 4.09 2.02 6.13 3.03-5.59-1.2-8.16 3.67-12.33 5.57 1.11-1.73 2.21-3.47 3.32-5.2-.13-.28-.26-.57-.39-.85-4.28 1.72-9.42 2.48-12.63 5.38-4.8 4.32-3.84 8.48 1.53 12.89-2.23 1.34-4.36 2.62-5.92 3.56-3.06-4.73-6.01-9.28-8.95-13.83-.42.14-.85.28-1.27.42 0 4.82-.2 9.65.15 14.45.09 1.07 2.06 2.01 3.53 3.35zm9.17-21.68c-3.25-8.17-2.34-15.89-1.98-23.57.11-2.37-.51-3.79-2.97-4.29-2.45-.5-3.92-2.23-3.23-4.6 1.01-3.42-.06-5.56-3.19-6.99.89-.93 1.61-1.69 2.41-2.52-1.55-1.95-2.97-3.73-4.39-5.5-.36.12-.72.24-1.08.36.73 5.13 1.3 10.28 2.22 15.37.82 4.48 1.34 8.75-1.25 12.95-.81 1.32-1.2 3.41-.77 4.85.68 2.28 2.21 4.3 3.47 6.59-.74.67-1.96 1.77-3.18 2.88 1.46 3.37 2.83 6.52 4.08 9.41 5.35.44 5.54-3.83 6.87-6.97.91.61 1.58 1.07 2.99 2.03zm1.2-33.84c1.97 1.57 3.61 2.87 5.32 4.22 2.36-3.05 4.59-5.92 6.55-8.45 3.93.47 6.04 5.53 10.45 3.07-.91-1.71-2.19-3.11-2.37-4.65-.44-3.83-1.46-6.95-6.16-7.65-.29.48-.79 1.33-1.71 2.9-1.06-4.44-1.84-7.73-2.71-11.37-1.05 1.86-1.94 3.43-2.92 5.15-1.57-1.44-2.87-2.63-4.22-3.87-3.48 2.23-6.82 4.37-10.23 6.55 1.93 5.63 3.79 11.08 5.78 16.87.87-1.08 1.48-1.84 2.22-2.77zm7.61 5.97c0 6.4.1 11.87-.05 17.33-.07 2.49 1.02 3.42 3.39 3.5 0-1.47-.23-2.95.05-4.31.47-2.32.57-5.66 2.06-6.59 2.41-1.51 2.8-3.05 2.73-4.33-1.72-.79-2.89-1.14-3.83-1.81-1.31-.95-2.46-2.13-4.35-3.79zm-6.95 18.98c4.47-2.41 5.25-4.51 3.52-8.87-4.03 5.67-4.9 9.89-2.94 14.73.54-1.06 1.03-2.01 1.5-2.93-.7-.99-1.38-1.94-2.08-2.93z"/><path d="m99.81 227.13c-1.87 5.46-.97 7.3 4.19 8.12.48-.85 1-1.77 1.98-3.52 1.02 2.36 1.8 4.15 2.67 6.14 1.62-.72 3.26-1.46 5.82-2.6-2.98 8.47 2.47 10.83 7.88 13.25 1.32.59 2.72 1.15 3.84 2.03 1.19.94 2.09 2.25 3.01 3.52 1.97 1.74 3.93 3.48 5.9 5.22-.17.18-.35.35-.52.53-6.35-1.58-12.7-3.17-19.06-4.74-.54-.13-1.1-.22-1.65-.3-6.8-.96-6.8-.95-12.52 3.44-.61-.67-1.24-1.35-2.32-2.53.32 2.89.57 5.24.88 8.09-4.55 0-8.87.09-13.18-.04-2.41-.07-3.88.4-3.74 3.27.04.75-1.08 1.55-2.25 3.09-.36-6.22-3.18-9.57-7.57-12.44-1.56 4.52-5.18 3.8-8.43 3.82.49-3.01.97-5.88 1.49-9.06 1.2.86 2.09 1.49 3.26 2.33 4.34-10.87 1.03-23.53 8.61-33.58 4.09 4.49 10.12 5.1 15.59 7.04 2.41.86 4.35.79 6.17-1.01.02 0-.05-.07-.05-.07zm5.88 10.04c-2.33 2.85-4.71 5.78-6.98 8.56.97.76 2.19 1.7 2.62 2.03 5.99-2.27 11.36-.75 16.46.5-3.82-3.5-7.73-7.09-12.1-11.09zm-6.92 1.58c-2.44-2.16-4.73-4.18-7.03-6.21.52 2.91 1.08 6.04 1.71 9.54 2.23-1.39 4.01-2.51 5.32-3.33zm-18.66-12.28c2.87 2.34 3.48 5.01 2.43 8.43-.49 1.59-.08 3.46-.08 5.2.32-.02.64-.03.96-.05 0-4.24 0-8.49 0-12.84-1.2-.27-2.26-.5-3.31-.74z"/><path d="m243.03 140.35c-5.46-1.88-3.87-7.01-5.39-10.7 3.57 3.26 4.33 9.45 11.05 9.78-2.24 1.45-4.07 2.63-5.85 3.78.15.32.18.46.24.48 6.56 2.3 6.56 2.3 8.83-4.31.72-2.11 1.44-4.22 2.24-6.59-1.26-.42-4.27.44-2.43-2.24 1.87.43 3.7 1.09 5.58 1.22 1.5.1 3.04-.45 5.14-.8.82 1.84 5.04 3.17 3.36 7.55-3.14-.84-6.19-3.76-9.64-.67 2.02 1.72 4.13 3.3 5.96 5.16 1.77 1.8 3.25 3.89 4.67 5.62-1.82.93-3.31 1.7-5.39 2.76 6.06 2.11 6.43 3.11 3.47 7.17-3.31-3.46-8.73-5.27-8.95-11.31-.68 1.87-1.39 3.74-2.05 5.63-2 5.67-1.99 5.67-8.27 6.85 0 1.08.17 2.29-.05 3.43-.24 1.27-.52 3.02-1.38 3.54-.8.47-2.41-.43-3.66-.72-.14-.36-.28-.71-.41-1.07-.85 1.16-1.69 2.31-2.96 4.05 0-3.1 0-5.52 0-8.83 2.47 1.08 4.66 2.04 6.85 2.99.25-.09.51-.18.76-.27-1.02-1.85-1.71-4.02-3.12-5.49-3.41-3.54-3.72-11.61-.25-15.19.52-.57 1.02-1.14 1.65-1.82z"/><path d="m253.58 190.69c-.17 2.69-.63 4.68-.31 6.54.34 1.99 1.4 3.86 2.33 6.26-7.28-2.69-8.09-5.4-5.95-11.88.87-2.62-.55-6-.9-8.79.43-.44 1.5-1.07 1.87-1.99 1.29-3.19 2.35-6.48 3.64-10.16 1.11 1.03 1.93 1.79 2.92 2.71-.89.67-1.55 1.15-2.09 1.56 1.53 3.41 6.03-1.52 7.07 2.92-.46.22-.93.44-1.42.67 2.96 2.73 7.42 3.65 9.09 2.1 2.27.98 4.44 1.92 6.83 2.95-.38.88-.84 1.97-1.35 3.16.87.41 1.75.82 3.23 1.52-1.35 1.28-2.38 2.37-3.52 3.3-1.64 1.34-3.47 2.46-5.03 3.89-3.97 3.62-4.1 4.49-1.98 9.1-4.25.76-8.45-1.14-10.15-4.68 2.43-.66 4.84-1.31 8.12-2.19-4.28-2.43-7.81-4.41-12.4-6.99zm1.49-9.3c-.25.27-.5.55-.74.82 1.04 1.15 2.42 3.45 3.05 3.26 3.23-.98 4.22 1.33 5.48 3.39 1.41-.98 2.56-1.78 4.2-2.91-1.09-1.24-1.81-2.84-2.87-3.12-2.96-.77-6.07-1-9.12-1.44z"/><path d="m164.92 44.58c2.34 2.97 2.06 5.24-.93 7.53-1.24.95-1.13 7.31.42 9.04 1.46 1.63 3.28 2.93 5.14 4.55-.55.62-1.24 1.4-2.02 2.28-.51-.61-.9-1.09-1.62-1.95-.7 2.34-1.32 4.4-1.94 6.45l.03-.07c-.89-1.5-1.79-3.01-3.04-5.12-1.24 1.94-2.22 3.47-3.33 5.21 1.05.5 2 .94 3.41 1.61-1.46 2.41-2.86 4.72-4.39 7.24 4.45 2.48 8.88 4.95 13.66 7.61-2.91 1.94-5.4 3.6-8.14 5.43-1.62-2.66-3.8-3.75-6.96-3.41-1.21.13-2.96-1.06-3.76-2.16-.44-.62.2-2.72 1-3.4 3.2-2.71 2.56-5.58.96-8.75-3.3 1.98-2.09 8.18-7.74 8.09 0-1.14 0-2.11 0-3.17 1.16-.24 2.3-.48 3.5-.73-2.85-5.32-2.12-7.12 3.02-7.05 4.24-9.69 8.54-19.51 12.84-29.33z"/><path d="m142.71 359.94c.11-2.21.23-4.41.34-6.69-2-.69-3.88-1.33-6.07-2.09-.65 1.23-1.3 2.45-2.1 3.98-1.36-3.03-1.47-5.81-.16-8.53 1.24-2.59.47-4.05-2.07-5.17-2.22-.98-4.26-2.35-6.33-3.51-1.52.86-1.28 4.45-4.29 2.17-.48 1.77-.9 3.37-1.39 5.18 1.3.68 2.46 1.29 3.84 2.01.18-1.13.33-2.07.6-3.69 1.94 2.65 3.59 4.91 5.38 7.35-1.67 1.26-3.08 2.32-4.04 3.05-1.64-1.46-2.91-2.95-4.5-3.93-2.86-1.77-5.38-3.54-5.42-7.41-.01-.97-1.01-1.93-1.84-3.39.65-1.66 1.59-4.03 2.67-6.75 7.17 3.24 14.24 6.43 21.46 9.69-.95 2.09-1.81 3.98-2.89 6.34 7.39.78 14.43 1.69 21.51 2.09 1.07.06 2.84-2.08 3.29-3.52.89-2.83 2.7-3.54 5.46-3.62.93 3.7 1.88 7.36 2.77 11.03.13.52.2 1.49-.01 1.59-3.49 1.66-1.82 4.73-2.16 7.38-1.39-3.85-.69-8.55-5.02-11.26-3.72 2.41-7.63 3.67-11.81.24-.54-.44-3 .5-3.7 1.45-1.34 1.82-2.07 4.09-3.05 6.18-.16-.07-.32-.12-.47-.17z"/><path d="m303.51 171.75c1.42-.88 2.44-1.29 3.16-2 3.25-3.25 7.2-4.72 11.71-5.07 2.8-.22 4.7.68 5.76 3.41.63 1.61 1.64 3.07 2.85 5.28.73-2.51 1.24-4.25 1.75-5.99.18 0 .37.01.55.01.31 4.19.61 8.38.93 12.75-3.47.58-6.26 1.79-6.13 6.12-2.93-5.62-7.53-8.41-13.02-10.3-2.66-.93-5.02-2.76-7.56-4.21z"/><path d="m319.18 283.4c-2.92-1.08-3.17-2.76-2.52-5.23.54-2.06.36-4.37.2-6.54-.07-.88-.82-2.3-1.48-2.45-5.09-1.11-3.12-4.3-2.48-7.16 5.3-.62 5.29-.61 6.73 4.3.56 1.91 1.18 3.8 1.91 6.15 2.95-2.27 5.62-4.32 8.3-6.38.29.22.58.45.87.67-1.89 2.9-3.73 5.84-5.68 8.7-1 1.47-2.37 2.73-3.22 4.27-.49.88-.27 2.15-.36 3.06 4.1-1.4 7.45-2.54 10.81-3.69.28.41.56.81.83 1.22-3.82 3.92-7.75 7.75-11.41 11.82-1.37 1.53-2.09 3.64-3.14 5.55-.17-.49-1.08-1.95-.73-2.37 2.43-2.94.47-5.15-.89-7.51-.22-.37-.32-.81-.5-1.28.82-.92 1.62-1.83 2.76-3.13z"/><path d="m265.4 81.81c-.64 1.93-1.17 3.91-1.94 5.79-1.8 4.44-3.89 8.78-5.47 13.3-.41 1.18.64 2.86 1.14 4.78-2.02 1.37-4.35 2.95-7.52 5.09 1.14-5.35-2.47-10.83 4.45-13.72-.24-.31-.48-.63-.72-.94-2.1.14-4.2.28-6.61.45.51-6.66.08-14.04-3.75-21.02 4.86 3.76 7.1 11.12 14.18 9.89 1.95-1.72 3.5-3.09 5.05-4.46.4.28.8.56 1.19.84z"/><path d="m205.34 59.56c1.93 3.02 3.78 5.8 5.48 8.66.4.68.57 1.76.34 2.5-2.3 7.11-4.71 14.18-7.17 21.5-2.04-.68-3.9-1.3-6.17-2.06.2 2.33.37 4.39.62 7.44-2.48-3.77-4.46-6.78-6.91-10.51 4.02 1.06 7.22 1.9 10.66 2.8 1.75-5 3.43-9.81 5.24-14.96-5.39-.3-3.09 4.69-5.48 6.53-1.34-5.74-2.72-11.49-3.94-17.28-.11-.51.76-1.48 1.4-1.83 1.75-.98 3.62-1.73 5.93-2.79z"/><path d="m66.9 215.87c-.47 1.29-.94 2.59-1.22 3.37.92 2.72 1.85 5.44 2.94 8.66-1.65.19-2.91.38-4.18.48-5.16.43-5.53.89-4.37 6.04-2.71-2.54-5.19-4.86-7.85-7.36 1.6-2.43 3.17-4.81 4.65-7.05-2.32-1.45-4.65-2.6-6.54-4.27-.63-.56-.56-2.7-.01-3.65 1.33-2.29 3.14-4.31 4.9-6.64 1.14.67 2.15 1.27 3.48 2.04-2.2 2.96-4.23 5.69-6.21 8.36 3.71 2.55 6.44.53 9.29-1.88.45 1.78.79 3.14 1.24 4.96 1.07-1.31 1.93-2.35 2.78-3.39.37.13.74.23 1.1.33z"/><path d="m125.78 89.79c-.1-1.95-.21-3.89-.32-6.07-2.91-.54-6.28-2.57-8.2 3.11-.84-2.9-1.41-4.87-1.89-6.54 1.66-.6 3.78-.72 4.56-1.81.93-1.28.7-3.39 1.03-5.49 4.82.62 8.23 3.41 10.7 7.37 1.51 2.43.96 4.91-1.11 7.24-.82-.49-1.62-.97-2.72-1.63-.74 1.36-1.39 2.59-2.05 3.82z"/><path d="m47.51 238.34c6.67-1.88 6.82-1.84 12 2.78-.81.76-1.63 1.49-2.39 2.27-1.84 1.87-2.94 3.94-1.81 6.64.21.5.19 1.1.29 1.65.95 5.27.95 5.27 5.42 7.33-2.07 1.17-3.99 2.26-6.14 3.48.64.57 1.16 1.04 2.08 1.87-1.33.19-2.32.33-3.7.52-.62-9.2 2.02-18.82-5.75-26.54z"/><path d="m321.55 204.02c-1.45-4.32-2.75-8.21-4.27-12.74-1.1 2-1.91 3.48-2.72 4.95-.18-.07-.36-.14-.55-.21.72-2.22 1.43-4.44 2.25-6.97 4.33 1.29 8.44 2.51 13.34 3.96-2.73.95-3.51 2.11-2.03 4.19 2.12 2.97 1.79 4-1.54 5.39-1.31.56-2.72.88-4.48 1.43z"/><path d="m83.35 90.04c1.66-1.55 2.92-2.74 4.44-4.17 1.06 1.25 2.01 2.38 3.34 3.95-7.7 0-14.76 0-21.82 0-.27-5.53 3.42-9.73 9.08-10.26.44-.04 1.17.22 1.32.55.23.49.31 1.43.01 1.71-1.04.99-2.26 1.78-3.34 3.34 4.04-.53 6.13 1.14 6.97 4.88z"/><path d="m154.5 109.07c-3.63 2.1-4.96.88-6.7-1.99-3-4.95-1.74-9.84-1.26-16.07 2.72 3.1 5.64 5.26 6.84 8.13 1.25 2.99.83 6.67 1.12 9.93z"/><path d="m169.57 276.96c-.76.94-1.53 1.89-2.49 3.08-1.95-4.28-5.58-5.73-9.78-6.82-2.82-.73-5.42-2.52-7.94-4.12-3.83-2.44-7.5-5.13-11.54-7.92 4.54.84 8.93 1.56 13.27 2.54.61.14 1.11 1.45 1.38 2.31.38 1.24.51 2.56.82 4.29 2.54-2.5 4.49-1.13 6.6.3 3.2 2.17 6.55 4.14 9.83 6.2.02-.01-.15.14-.15.14z"/><path d="m163.98 72.48c6-2.54 15.34-1.89 18.03 1.06-1.77 1.23-3.76 2.28-5.3 3.79-1.47 1.43-2.47 3.35-3.77 5.17-3.17-3.59-6.04-6.86-8.93-10.11 0 .01-.03.09-.03.09z"/><path d="m222.92 181.38c5.09 2.24 9.74 4.29 14.41 6.35-2.92 4.06-9.59 4.98-14.41 3 0-2.93 0-5.91 0-9.35z"/><path d="m125.06 267.92c-.12.52-.18.64-.17.74.17 1.45 3.19 2.74.33 4.35-2.91 1.64-3.31-1.11-4.24-2.66-1.59-2.66-3.03-5.41-4.61-8.25 2.51-1.5 4.56-1.51 6.85.17 3.21 2.36 6.65 4.42 9.82 7.09-2.66-.47-5.34-.96-7.98-1.44z"/><path d="m266.22 63.14c-4.55.17-6.45 2-7.58 5.92-.83 2.89-3.76 5.17-6.22 7.37-.84-6.63 5.8-8.63 7.81-13.57-.97-.9-2.02-1.87-3.36-3.1 4.06-1.2 2.56-4.42 3.04-7.93 2.27 4.06 4.15 7.42 6.31 11.31z"/><path d="m174.88 120.6c-1.2-1.02-3.32-1.93-3.45-3.07-.67-5.68-6.46-11.77 1.23-17.04 4.15 5.9-.74 13.34 2.98 19.31-.26.27-.51.54-.76.8z"/><path d="m317.24 151.9c1.67 3.42 3.23 6.61 4.81 9.86-2.8-.46-5.46-1.3-8.09-1.22-2.6.08-5.17 1.08-7.75 1.68-.22-.24-.44-.49-.66-.73 3.83-3.14 7.65-6.28 11.69-9.59z"/><path d="m187.58 319.55c-.32-.86-.86-1.7-.92-2.57-.34-4.81-1.32-8.94-7-10.27-3.34-.78-2.77-3.75-2.43-6.88 1.91 1.46 3.6 2.74 5.34 4.08 1.03-.89 1.92-1.67 3.22-2.8 1.05 6.33 2.03 12.23 3.02 18.12-.41.1-.82.21-1.23.32z"/><path d="m193.39 69.35c-4.25-1.51-7.88-2.81-11.4-4.06-.06-.47-.19-.76-.09-.87 1.24-1.5.02-4.86 3.58-4.6 3.97.28 6.63 2.09 7.47 5.43.29 1.13.27 2.35.44 4.1z"/><path d="m204.61 49.57c-.84-2.05-.17-3.21 1.94-3.61.55-.1 1.1-.22 1.63-.37 6.62-1.95 6.9-2.4 5.68-9.04 2.13 1.31 4.21 2.59 6.45 3.97-5.24 2.47-6.76 11.89-15.7 9.05z"/><path d="m354.07 175.11c1.84 3.6 3.49 6.83 5.2 10.19-3.64 1.29-8.73-3.31-10.37 3.73-1.66-1.96-3-3.55-4.91-5.79 2.23.83 3.63 1.35 5.68 2.11-.16-1.91-.27-3.27-.34-4.14 1.03-.87 2.01-1.46 2.66-2.31.78-1.03 1.28-2.28 2.08-3.79z"/><path d="m126.7 300.33c.19-4.24-1.13-9.09 4.37-10.83-1.97-1.38-4-2.36-5.3-3.94-.51-.62.63-2.6 1.11-4.24 2.69 1.11 5.04 2.07 7.73 3.18-1.38 2.83-2.67 5.5-3.99 8.15-1.29 2.57-2.62 5.12-3.92 7.68z"/><path d="m135.75 56.41c3.8 2.83 7.31 5.44 11.61 8.64-3.08-.21-5.14-.24-7.17-.51-2.74-.37-5.09-.35-5.24 3.58-2.15-4.09-.95-7.65.8-11.71z"/><path d="m196.58 289.57c-4.75-1.74-9.5-3.48-14.25-5.23-.83-.31-1.68-.58-2.48-.96-2.99-1.44-6-3.15-7.99 2.86-.98-3.98-1.64-6.63-2.29-9.28 0 0 .16-.14.16-.14 4.91 2.33 9.74 4.83 14.74 6.93 3.69 1.55 7.59 2.59 12.03 4.07 0-.05 0 .88 0 1.82.01-.01.08-.07.08-.07z"/><path d="m230.19 147.68c-1.2.77-2.12 1.36-3.1 1.98-.58-.49-1.11-.89-1.59-1.34-1.53-1.44-3.05-2.91-3.93-3.74 1.44-3.34 2.71-6.25 3.97-9.16 1.43 3.77 2.98 7.87 4.65 12.26z"/><path d="m167.28 303.37c2.65 3.01 4.96 5.63 7.2 8.17-3.46.13-4.3 2.39-3.06 5.9-4.2-1.93-4.73-3.74-4.14-14.07z"/><path d="m207.46 187.95c-4.16-2.15-7.61-3.93-11.05-5.72-.36-.19-.66-.49-1.41-1.05 3.57-1.05 6.7-1.98 10.25-3.03.69 3.07 1.36 6.04 2.21 9.8z"/><path d="m247.61 305.76c-.96-.87-1.93-1.75-2.89-2.64-1.63-1.51-1.48-1.31.33-2.7.89-.68 1.24-2.22 1.57-3.45.34-1.25.36-2.59.53-3.94 6.39 6.1 6.3 6.82.46 12.73z"/><path d="m74.66 35.95c3.57 2.52 3.57 2.52.48 9.58-1.23-.45-2.46-.93-3.72-1.35-2.73-.91-3.18-2.71-1.05-4.76 1.27-1.23 2.75-2.25 4.29-3.47z"/><path d="m305.74 48.92c7.34-3.63 11.14-1.11 10.61 7.17-.09-.84-.19-1.69-.29-2.66-3.69-.89-8.71 1.08-10.32-4.51z"/><path d="m41.15 290.83c-1.93-3.77-3.88-7.55-5.82-11.33.14-.1.28-.21.42-.31 1.41.98 2.81 1.96 4.42 3.07 1.11-.72 2.28-1.48 3.48-2.26 1.06 4.65-.04 9.73-2.5 10.83z"/><path d="m232.71 117.68c-6.51-4.69-10.04-10.73-8.36-19.83 2.96 7.05 5.64 13.39 8.36 19.83z"/><path d="m165.02 44.48c-5.29-.3-10.57-.6-16.04-.9 5.97-5.56 12.15-5.1 15.94 1.01 0-.01.1-.11.1-.11z"/><path d="m234.25 96.67c-1.06-4.28-2.13-8.57-3.2-12.85-.89-3.57-.9-3.57-4.19-4.9-.4-3.14-.8-6.33-1.2-9.53 5.27 8.32 8.59 17.27 8.59 27.28z"/><path d="m281.69 269c-.09-2-.16-3.59-.23-5.29 2.91 2.06 6.86-2.19 10.45.77-6.69 6.32-7.35 6.85-10.22 4.52z"/><path d="m179.72 351.63c.57.45 1.61 1.26 2.94 2.31.98-1.48 1.86-2.84 2.76-4.19.85-1.28 1.71-2.56 3.09-3.66-.47 2.54-.84 5.11-1.47 7.6-.16.64-1.1 1.48-1.76 1.54-3.41.35-6.84.48-10.88.73 1.95-1.58 3.46-2.81 5.32-4.33z"/><path d="m156.02 336.42c-.97.54-1.63.91-2.45 1.37.76 1.32 1.5 2.63 2.28 3.99-5.63.67-8.88-3.96-6.83-10.05 1.16.73 2.25 1.4 3.31 2.11 1.11.74 2.19 1.53 3.69 2.58z"/><path d="m283.05 201.94c8.78-.91 12.93 1.84 12.02 7.59-4.19-2.64-8.11-5.11-12.02-7.59z"/><path d="m74.35 24.83c2.87.37 5.59.6 8.25 1.15.71.15 1.82 1.42 1.69 1.88-.26.93-1.1 2.09-1.96 2.38-2.99 1.02-6.99-1.64-7.98-5.41z"/><path d="m332.71 162.06c5.64-.65 6.42-.17 7.85 4.84-7.21 1.25-7.58 1.02-7.85-4.84z"/><path d="m218.39 319.4c0-2.91 0-5.23 0-8.54.89 2.07 1.45 3.36 2.08 4.83 1.18-.9 2.22-1.69 3.46-2.63.67 1.83 1.28 3.47 1.96 5.34-2.55.33-4.83.64-7.5 1z"/><path d="m347.53 120.93c4.27 3.02 2.98 6.3 1.22 9.82-.68-.74-1.31-1.42-2.09-2.26-.69.61-1.38 1.22-2.08 1.84-.15-.09-.31-.17-.46-.26 1.1-2.95 2.2-5.91 3.41-9.14z"/><path d="m205.37 131.53c-.96-.49-2.31-.73-2.81-1.51-3.05-4.77-5.9-9.67-8.17-14.98 3.82 5.17 7.63 10.34 11.45 15.5-.15.33-.31.66-.47.99z"/><path d="m48.09 259.76c.49.89.92 1.65 1.33 2.38-.17.25-.37.57-.39.56-.79-.42-2.22-.84-2.25-1.32-.19-3.84-.1-7.7.52-11.73 1.2 2.53 2.4 5.05 3.65 7.7-1.02.86-1.93 1.63-2.86 2.41z"/><path d="m274 158.41c.61-.87 1.21-1.75 2.01-2.9-1.86-.45-3.42-.82-5.04-1.22 1.94-2.04 3.79-3.98 6.03-6.34-.29 3.6-.46 6.58-.83 9.53-.07.6-.92 1.1-1.4 1.64-.25-.23-.51-.47-.77-.71z"/><path d="m177.2 90.29c3.19 4.66 5.9 8.63 8.61 12.59-5.19-2.27-8.45-5.85-8.61-12.59z"/><path d="m224.66 128.88c-4.35-1.38-4.76-2.26-2.87-5.96.73-1.44 1.58-2.81 2.87-5.1z"/><path d="m237.83 310.73c-1.83 1.03-3.4 1.91-5.51 3.11.48-3.7.86-6.68 1.38-10.71 1.67 3.07 2.85 5.24 4.13 7.6z"/><path d="m280.15 248.14c5.26-.27 6.63.96 6.93 6.25-3.54-.45-3.54-.45-6.93-6.25z"/><path d="m232.58 166.65c-2.59-1.74-5.28-3.55-7.89-5.3 8.99-.27 9.52.11 7.89 5.3z"/><path d="m126.15 34.29c1.23-2.19.48-6.15 5.08-4.86.16 5.22-.39 5.76-5.08 4.86z"/><path d="m152.33 309.82c.27-2.37.54-4.73.94-8.13 1.4 1.29 3.24 2.47 3.07 2.91-.74 2-2.05 3.79-3.15 5.66-.3-.15-.58-.29-.86-.44z"/><path d="m304.23 254.24c1.2-3.43 2.11-6.01 3.01-8.59 2.19 4.55 1.85 5.41-3.01 8.59z"/><path d="m203.32 358.08c.23-.61.33-1.03.52-1.39.73-1.35 1.48-2.69 2.49-4.51 1.09 2.11 2 3.87 3.05 5.9-2.22 0-4.03 0-6.06 0z"/><path d="m184.34 52.12c-2.93 1.01-5.7 1.96-8.35 2.87-.25-3.81 1.61-4.58 8.35-2.87z"/><path d="m225.84 302.08c3.7 7.45 3.76 7.74 1.68 9.75.09-1.21.16-2.12.23-3.04-3.35-1.68-3.35-1.68-1.91-6.71z"/><path d="m104.53 29.9c-.38-.32-1.19-1-2.27-1.91 2.54-.93 4.01-4.04 7.02-2.22-1.49 1.29-2.94 2.55-4.75 4.13z"/><path d="m317.59 136.33c-2.31-3.25-.72-5 1.61-6.81.62.37 1.41.84 1.91 1.14-1.22 1.96-2.31 3.73-3.52 5.67z"/><path d="m46.66 167.16c-1.07-2.31-2.15-4.63-3.29-7.08 3.55-.39 3.9.28 3.29 7.08z"/><path d="m287.99 238.95c.33-1.81.54-2.97.83-4.54 2.03.75 3.92 1.45 6.69 2.47-2.88.8-4.9 1.35-7.52 2.07z"/><path d="m125.78 89.79c-1.54 1.92-3.08 3.84-5.02 6.25.28-2.71.5-4.77.72-6.9 1.53.23 2.92.44 4.3.65z"/><path d="m131.8 52.92c.72-3.64 1.26-6.33 1.82-9.16 2.74 2.04 2.48 3.56-1.82 9.16z"/><path d="m151.24 113.55c1.92.64 3.25 1.08 4.62 1.53-1.23 1.37-2.32 2.59-3.53 3.94-.3-1.49-.64-3.24-1.09-5.47z"/><path d="m63.01 132.4c-1.16-1.98-1.98-3.36-2.99-5.08 2.12.23 3.75.4 5.96.64-.98 1.46-1.8 2.68-2.97 4.44z"/><path d="m104.96 263.44c5.91.73 5.96.79 4.74 5.36-1.54-1.74-2.94-3.33-4.74-5.36z"/><path d="m347.64 199.82c-2.84-.41-4.78-.69-7.35-1.07 1.52-1.19 2.6-2.05 3.9-3.07 1.04 1.26 1.98 2.38 3.45 4.14z"/><path d="m255.52 281.2c0-1.86 0-3.01 0-4.24h4.98c-1.84 1.56-3.14 2.67-4.98 4.24z"/><path d="m301.67 210.94c-.65-2.43-1.18-4.4-1.78-6.65 3.63 1.72 3.9 2.73 1.78 6.65z"/><path d="m287.63 255.26c.45 1.64.75 2.77 1.11 4.1-1.96 0-3.56 0-5.99 0 1.84-1.54 3.12-2.62 4.88-4.1z"/><path d="m142.44 73.73c0-2.27 0-3.61 0-5.36 1.25.1 2.37.19 3.93.31-1.33 1.72-2.37 3.06-3.93 5.05z"/><path d="m219.27 172.69c1.3-1.95 2.14-3.2 3.47-5.19.43 2 .7 3.27 1.06 4.97-1.45.07-2.6.13-4.53.22z"/><path d="m310.39 185.2c.35 2.9.35 2.9-3.27 4.26-.82-2.77-.82-2.77 3.27-4.26z"/><path d="m195.23 74.7c.66 2.5 1.33 5 1.99 7.51-.4.12-.79.23-1.19.35-.74-2.47-1.48-4.95-2.22-7.42.48-.15.95-.29 1.42-.44z"/><path d="m50.66 137.81c-.77-2.13-1.54-4.26-2.31-6.38.36-.15.73-.3 1.09-.45.9 2.13 1.8 4.26 2.7 6.4-.49.13-.98.28-1.48.43z"/><path d="m47.79 71.62c-4.73.91-2.92-2.22-2.76-4.25.81 1.26 1.64 2.52 2.76 4.25z"/><path d="m211.65 108.64c1.18 1.43 1.85 2.24 2.74 3.31-1.19 1.01-2.23 1.88-3.77 3.18.38-2.37.64-4.05 1.03-6.49z"/><path d="m347.94 178.58c-1.88.35-3.3.62-5.2.98.49-1.58.86-2.76 1.41-4.53 1.4 1.32 2.44 2.29 3.79 3.55z"/><path d="m115.89 176.01c-1.21-2.1-2.42-4.19-3.71-6.44 5.91-1.74 6.91-7.08 8.86-12.35 1.15.78 2.91 1.84 2.85 1.95-1.37 2.6-2.93 5.1-4.66 7.97 1.32 1.27 3.31 3.2 5.44 5.26-.93.46-1.68.84-2.62 1.31.71.93 1.33 1.76 2.49 3.28-3.43-.42-6.1-.75-8.77-1.08 0-.01.12.1.12.1z"/><path d="m227.18 338.31c-1.81-.45-3.64-.9-5.39-1.33.44-1.98.87-3.97 1.26-5.7 1.17 1.99 2.5 4.26 4.13 7.03z"/><path d="m280.21 336.66c1.36 1.96 2.15 3.11 3.1 4.47-1.29.66-2.43 1.24-4.04 2.05.31-2.17.56-3.84.94-6.52z"/><path d="m78.9 305.02c-1.16-.17-3.36-2.04-3.98.76-.8-1.23-1.67-2.57-2.55-3.92-.3.08-.61.17-.91.25.49-1.65.99-3.3 1.6-5.37 1.45 4.98 2.55 5.43 10.38 4.47-1.53 1.3-2.84 2.39-4.54 3.81z"/><path d="m243.56 262.87c.87-.58 1.64-1.1 2.8-1.87v6.83c-1.22-2.16-1.96-3.46-2.8-4.96z"/><path d="m259.56 231.07c1.27 1.02 2.02 1.63 2.9 2.34-2.32 3.25-4.26 6.8-9.35 5.12.24-1.52.48-3.03.76-4.84.85.47 1.56.86 2.6 1.43 1.33-3.61 2.65-7.18 4.27-11.57.45 3.15 3.97 5.59-1.18 7.52z"/></g></svg>