<svg enable-background="new 0 0 400 400" viewBox="0 0 400 400" xmlns="http://www.w3.org/2000/svg"><path d="m374.8 390.4.4-.4c.7.5 1.3 1 1.8 1.4l-.5.5c-.5-.6-1.1-1.1-1.7-1.5zm1 7.3-.6-.3c.5-1.4 1.1-2.8 1.5-4.3.2.1.4.2.6.3-.5 1.3-1 2.8-1.5 4.3zm-.4-10.3.4-.4c.4.3 1 .8 1.7 1.4l-.5.5c-.4-.5-1-1-1.6-1.5zm2.5.3h1.7v-1h.6v1h3.5v-1h.6v1h1.8v.5h-1.8v1.4h-2v1h3.2v2h-3.2v.9h3.3v.5h-3.4c0 .3-.1.6-.1.9h4v.5h-3.7c.7.9 1.9 1.5 3.8 1.7-.1.2-.2.4-.3.6-2.1-.4-3.5-1.1-4-2.1-.4 1-1.8 1.7-4 2.2-.1-.2-.2-.4-.3-.6 2.1-.4 3.4-1 3.8-1.8h-3.4v-.5h3.6c.1-.3.1-.6.2-.9h-3.3v-.5h3.4c0-.3 0-.6 0-.9h-3.2v-2h3.3v-1h-2.1v-1.4h-1.7v-.5zm1.1 3.5v1h2.7c0-.3 0-.4 0-.4 0-.1 0-.2 0-.2 0-.1 0-.2 0-.3h-2.7zm1.2-3v.9h3.5v-.9zm4.7 3h-2.6v.6.4h2.6z" fill="#fbfcfa"/><path d="m393.6 386.7h.6v1.5h2.7v6.1h1.1v.6h-11v-.6h1.1v-6.1h2.7v-1.5h.6v1.5h2.1v-1.5zm-2.7 8.8.4.6c-1.2.6-2.5 1.3-3.8 1.9-.1-.2-.2-.4-.3-.6 1.2-.6 2.5-1.2 3.7-1.9zm-2.2-6.7v2.4h2.1v-2.4zm0 3v2.5h2.1v-2.5zm2.8-3v2.4h2.1v-2.4zm0 3v2.5h2.1v-2.5zm6 6.1c-1.4-.7-2.7-1.3-3.9-1.8l.3-.6c1.5.6 2.7 1.2 3.9 1.7zm-1.2-9.1h-2.1v2.4h2.1zm-2.1 3v2.5h2.1v-2.5z" fill="#fbfcfa"/><g fill="#010101"><path d="m279.66 174.34c-6.9.37-13.81.66-20.7 1.15-2.41.17-4.94.46-7.15 1.35-3.77 1.52-7.38 2.25-11.23.47-.64-.3-1.58-.4-2.22-.15-5.78 2.23-11.51 4.56-18.03 7.16 1.65 4.33 3.87 9.04 5.17 14 .95 3.64.73 7.59.86 11.41.01.39-1.07 1-1.74 1.2-3.04.88-6.11 1.64-9.51 2.53-.47-3.99-1.02-8.5-1.54-13.01-.3-2.56-.87-5.13-.76-7.67.17-3.62-1.9-5.25-4.74-6.44-1.34-.56-2.75-.94-4.11-1.46-2.66-1.03-4.48-2.79-5.15-5.69-.73-3.16-1.53-6.3-2.49-9.4-1.33-4.29-3.55-7.85-8.13-9.45-.9-.32-1.79-1.34-2.2-2.25-5.79-12.94-11.52-25.91-17.2-38.91-.42-.97-.45-2.17-.46-3.26-.07-9.6.67-19.25-2.65-28.57-.52-1.47-.37-3.39.06-4.94.49-1.76 1.79-4.8 2.46-4.73 2.22.25 5.07 1.06 6.32 2.69 4.75 6.21 9 12.8 13.38 19.29 2.07 3.06 3.56 6.66 6.13 9.18 3.55 3.47 5.88 8.06 10.72 10.5 2.63 1.32 4.76 4.45 6.12 7.25 1.85 3.81 5.63 3.8 9.63 2.71 2.03-.55 3.12-4.31 2.79-7.27-.36-3.27-.31-6.58-.43-9.88-.03-.88.25-1.87-.07-2.62-2.12-4.98-1.41-9.87-.34-14.98 1.04-4.97-.03-9.69-2.35-14.54-2.43-5.06-5.39-9.07-10.1-11.97-.86-.53-1.48-1.65-1.93-2.62-2.13-4.68-4.03-9.47-6.3-14.07-1.05-2.12-.5-3.72.77-5.18.41-.47 2.06-.56 2.5-.14.84.8 1.26 2.07 1.79 3.17 3.06 6.41 6.01 12.87 9.25 19.19.57 1.1 2.46 2.34 3.56 2.18 1.92-.27 3.92-.98 4.21-3.85 1.08-10.79 2.3-21.57 3.78-32.31.45-3.22.43-7.02 4.79-8.42 2.57-.83 3.95-.13 4.57 2.21.39 1.48.4 3.08.43 4.63.08 4.2-.4 8.49.25 12.59.71 4.47.2 8.62-.81 12.9-.38 1.6-.19 3.54.36 5.11 1.24 3.54 2.63 3.6 5.29.88 5.1-5.21 10.81-9.64 17.76-13.17-.02 3.44-.16 6.1-2.89 8.31-5.48 4.43-10.77 9.1-16 13.83-1.25 1.13-2.33 2.73-2.88 4.32-1.59 4.65-2.9 9.39-4.25 14.12-.23.81-.4 1.81-.14 2.57 3.5 10.34 2.33 20.72.52 31.14-.49 2.84-.86 5.78-.72 8.64.29 5.85 2.49 10.49 7.95 13.77 4.12 2.47 7.34 6.39 11.15 9.44 1.77 1.42 3.93 2.4 6 3.4 6.19 3.02 12.49 5.84 18.6 9.02 1.25.65 1.88 2.48 2.8 3.77-.28.28-.52.57-.75.87zm-76.79-10.42c.44 1.08.8 2.61 1.63 3.82 1.89 2.74 3.72 5.63 6.13 7.85 1.53 1.4 4.05 2.18 6.17 2.29 1.09.05 2.85-1.78 3.32-3.11.99-2.8 1.34-5.83 1.95-8.77.74-3.58 1.05-7.33 2.33-10.71 2.09-5.53 1.99-8.63-2.26-12.76-2.13-2.06-4.69-3.86-7.36-5.14-5.8-2.77-8.06-1.77-9.81 4.35-.7 2.45-.45 5.19-.56 7.8-.1 2.54.04 5.1-.2 7.62-.21 2.11-.81 4.17-1.34 6.76zm-24.56-58.41c-2.02 4.94-.24 9.23.39 13.81 1.58 11.53 6.84 21.38 12.14 31.32.3.56 1.06 1.08 1.69 1.21.41.08 1.29-.48 1.41-.91.79-2.78 2.55-5.93 1.86-8.34-1.18-4.07.22-7.23 1.53-10.59 2.1-5.36.97-9.96-3.27-13.63-5.06-4.38-10.35-8.48-15.75-12.87zm59.69 66.4c3.54-.89 7.1-1.69 10.61-2.69 2.38-.68 2.56-2.42 1.14-4.07-1.65-1.92-3.37-3.99-5.51-5.22-8.14-4.73-9.43-4.38-11.24 5.79-.08.43-.03.89.01 1.34.34 4.08.78 4.46 4.99 4.85z"/><path d="m171.5 375.28c-1.38-1.71-2.94-3.31-4.1-5.15-1.73-2.74-3.01-5.76-4.77-8.47-6.01-9.23-11.05-18.86-13.91-29.59-.65-2.43-2.37-4.55-3.36-6.91-1.45-3.47-2.64-7.04-4.01-10.54-.52-1.34-1.14-2.64-1.84-3.9-1.78-3.22-3.81-6.31-5.41-9.62-2.93-6.06-8.62-8.72-15.12-6.99-1.39.37-2.97.05-4.46.05.14-1.44.02-2.97.49-4.29.99-2.78 1.74-5.84 5.11-6.94.46-.15.88-.72 1.12-1.2 5.83-11.58 16.85-17.88 26.39-25.62 2.38-1.93 5.79-2.71 8.82-3.71 4.55-1.51 9.17-2.84 13.81-4.08 3.5-.94 7.05-1.33 9.57.28 3.02-.76 5.36-1.54 7.78-1.93 7.85-1.29 15.2-3.44 20.08-10.43 1.22-1.74 2.85-3.26 3.73-5.15.89-1.91 1.08-4.14 1.59-6.22.42-1.74.51-3.71 1.45-5.11.35-.52 2.68.22 4.09.47 1.3.23 2.6.91 3.86.82 2.96-.2 3.94 1.53 3.73 3.88-.21 2.39-.68 4.92-1.72 7.05-2.33 4.77-2.42 8.88 1.77 12.72 1.97 1.8 3.68 3.93 5.22 6.13 1.24 1.77 2.01 3.87 3.02 5.8 1.27 2.41 2.29 5.02 3.94 7.14 2.47 3.17 5.41 5.96 8.12 8.95.66.73 1.22 1.57 1.77 2.4 2.71 4.04 5.06 8.38 8.17 12.08 3.6 4.27 5.57 8.8 5.07 14.37-5.61-1.89-9.09-6.03-12.27-10.78-1.82-2.72-4.66-4.75-6.99-7.13-1.16-1.18-2.58-2.3-3.24-3.74-2.03-4.44-4.49-8.43-8.66-11.23-.93-.63-1.5-1.91-2.05-2.99-1.75-3.5-3.39-7.05-5.12-10.56-2.83-5.72-7.13-7.55-12.84-4.4-7.18 3.96-15 6.35-22.74 5.9-6.29-.36-11.2 2.51-16.81 3.4-.71.11-1.34.7-2 1.09-3.13 1.85-6.1 4.12-9.43 5.49-7.26 2.98-12.7 8.34-18.26 13.46-2.87 2.64-2.83 6.58-1.28 10.05 3.1 6.93 5.33 14.69 10 20.4 8.77 10.72 10.86 24.39 17.83 35.77.4.65.57 1.45.77 2.19 1.57 5.92 3.29 11.81 4.6 17.78.59 2.67.33 5.53.46 8.3-.66.22-1.32.47-1.97.71z"/></g></svg>