<svg enable-background="new 0 0 400 400" viewBox="0 0 400 400" xmlns="http://www.w3.org/2000/svg"><g fill="#010102"><path d="m237.42 256.63c-2.73-4.84-.53-7.22 2.58-10.62 3.36-3.67 6.81-7.25 10.21-10.89 1.3-1.39 1.85-4.17 1.62-6.19-.84-7.43-1.05-15.22-3.68-22.04-1.61-4.18-3.22-8.72-5.56-12.74-2.74-4.7-5.64-9.32-8.54-13.92-.57-.91-1.54-1.57-2.22-2.43-1.14-1.44-2.19-2.95-3.28-4.42-.91-1.22-1.63-2.66-2.77-3.6-2.92-2.4-6.03-4.58-8.55-6.46-3.55 1.94-6.58 3.76-9.76 5.28-3.6 1.73-4.43 3.96-3.36 7.86 1.41 5.15 2.48 10.4 3.52 15.64.22 1.11-.14 2.44-.54 3.56-1.05 2.95-2.05 5.94-3.5 8.7-.79 1.51-2.24 2.88-3.72 3.76-1.61.96-3.23 1.39-3.87 3.63-.82 2.83-3.34 4.19-6.19 4.4-2.72.2-3.96 1.57-4.43 4.08-.25 1.31-.84 2.55-1.11 3.86-.44 2.15-1.55 3.49-3.67 4.33-1 .39-1.9 1.63-2.37 2.69-2.05 4.55-3.79 9.25-5.92 13.75-1.99 4.19-4.34 8.21-6.51 12.32-.52.99-.75 2.2-1.46 3-2.51 2.81-2.71 5.78-1.46 9.22.4 1.11.02 2.64-.34 3.88-3.66 12.49-6.03 25.03-2.31 37.97.33 1.13.26 2.49.01 3.65-.82 3.72-.49 7.27.84 10.84.37.99-.06 2.32-.25 3.48-.37 2.17-1.08 4.31-1.19 6.49-.14 2.9.04 5.62-2.41 7.98-1.1 1.06-1.21 3.29-1.48 5.04-.48 3.1-2.38 3.97-5.45 3.9.58-11.39-1.99-22.16-4.52-32.95-.08-.33-.22-.67-.18-.98 1.69-11.41-.82-22.96 1.25-34.42.79-4.39-.35-9.11-.38-13.69-.01-1.94.24-4.01.95-5.79 2.37-5.91 4.9-11.76 7.59-17.54.9-1.93 2.46-3.55 3.73-5.3.19-.26.59-.44.67-.72 2.38-7.77 9.85-12.93 10.97-21.37.09-.65 1.08-1.52 1.8-1.7 2.99-.73 4.07-3.07 5.46-5.42 1.49-2.53 3.34-4.93 5.41-7.01 4.77-4.8 9.48-9.58 11.04-16.46 1.51-6.64-.42-10.99-6.33-14.08-3.95-2.07-7.94-4.16-12.1-5.74-6.92-2.63-14.75.63-17.86 7.18-.77 1.62-1.66 2.34-3.51 2.37-3.35.06-6.69.51-10.04.61-.9.03-1.82-.6-2.74-.93.57-.77 1.06-1.62 1.74-2.29.7-.69 1.88-1.01 2.35-1.8 2.22-3.77 5.6-6.55 8.25-9.78 2.95-3.6 6.65-5.68 9.83-8.62 1.08-1 1.66-3.05 1.62-4.6-.05-1.96-.83-3.89-3.38-4.36-10.97-2-21.94-2.88-32.99-.63-3.26.66-5.71 1.99-6.54 5.66-.41 1.82-1.75 3.43-2.48 4.77-2.59-1.01-4.57-1.97-6.64-2.55-2.4-.68-4.65-.15-6.45 1.73-5.73 5.98-12.92 8.55-21.02 9.09-1.08.07-2.4.25-3.14.91-4 3.57-8.75 4.11-13.78 3.9-2.1-.09-4.21-.01-6.87-.01.32-1.46.63-2.87.99-4.48-.67-.18-1.59-.41-2.46-.64-3.11 4.78-4.02 5.08-8.96 3.08-3-1.22-4.15-4.05-3.32-9.07 6.23 0 12.57-.08 18.91.02 5.64.1 10.78-1.4 15.74-3.98 3.24-1.69 6.61-3.28 10.1-4.3 5.05-1.48 7.1-5.88 4.03-10.37-2.96-4.33-6.37-8.35-9.53-12.54-2.79-3.68-4.71-7.74-5.49-12.58 4.2-.19 7.39.45 9.71 4.23 1.19 1.94 3.5 3.45 5.63 4.52 3.98 2 7.32 4.47 10.02 8.11 4.49 6.07 10.85 6.31 17.91 3.36 7-2.93 14.71-4.22 22.17-5.96 2.1-.49 4.41-.08 7.07-.08 0-2.79.24-5.25-.11-7.62-.15-1.07-1.33-2.14-2.29-2.91-4.46-3.6-9.08-7.05-10.24-13.18-.22-1.19-.27-2.41-.41-3.73 3.12-1.45 5.91-1.35 8.6.62.81.59 1.69 1.48 2.56 1.5 4.16.11 5.12 3.04 5.46 6.2.47 4.34 3.5 6.76 6.19 9.59 1.09 1.15 1.51 2.98 2.08 4.56.33.91.08 2.12.57 2.88 3.64 5.62 8.26 10.27 14.14 13.56 1.67.93 3.12 1.06 3.92-1.23 1.51-4.29 3.94-7.68 8.82-8.57.49-.09 1-.54 1.34-.95 4.56-5.49 10.82-8.55 16.89-11.89.98-.54 1.92-1.14 2.85-1.76 5.17-3.41 5.63-8.09 1.17-12.49-2.07-2.04-4.38-3.86-6.35-5.99-1.22-1.32-1.95-3.08-2.99-4.58-.54-.77-1.14-1.61-1.92-2.09-6.11-3.73-12.1-7.71-18.49-10.89-2.57-1.28-6.04-.77-9.11-.99-.29-.02-.77.46-.9.8-1.32 3.39-4.48 3.96-7.37 5.18-12.19 5.13-24.52 5.46-37 1.37-1.09-.36-1.75-1.84-2.78-2.57-.96-.68-2.1-1.38-3.23-1.51-6.33-.7-8.76-3.06-9.48-9.9 6.14.36 12.22.7 18.29 1.09.5.03 1.24.29 1.42.67 1.65 3.36 4.42 2.54 7.21 2.18 7.43-.97 14.87-1.9 22.33-2.63 2.79-.27 3.41-1.77 2.42-3.79-1.21-2.47-2.53-5.41-4.67-6.79-4.22-2.71-6.14-6.68-7.85-10.91-2.55-6.31-5.19-12.62-7.19-19.11-.7-2.26.37-5.07.64-7.63 2.02.35 4.17.38 6.03 1.13 2.83 1.14 4.96 3.15 4.48 6.65-.52 3.79.9 6.38 4.35 8.05 1.03.5 2.26 1.45 2.57 2.46 2.17 7.15 7.79 11.4 13.31 15.51 5.8 4.32 12.16 7.88 18.15 11.96 3.03 2.06 5.84 4.47 8.65 6.85 3.99 3.37 7.94 2.44 8.86-2.56.96-5.25 1.36-10.62 1.72-15.95.3-4.46.25-8.95.21-13.43-.02-2.09.73-3.14 3.08-3.13 2.44 6.76 5.81 13.41 7.09 20.45 1.19 6.53 1.81 13.61-1.19 20.12-1.79 3.88-2.02 7.36.95 10.87 1.86 2.2 3.07 4.95 4.87 7.22.62.78 2.27 1.41 3.19 1.16 2.67-.71 5.18-1.99 7.81-2.88 1.68-.56 3.49-1.26 5.18-1.14 8.91.63 16.82-2.91 25.03-5.4 2.52-.76 5.42-.64 8.09-.36 1.14.12 2.9 1.61 2.99 2.59.12 1.38-.7 3.76-1.74 4.18-5.23 2.14-10.58 4.08-16.05 5.48-2.43.62-4.72.85-6.37 2.98-1.86 2.4-4.25 2.71-7.2 2.19-1.74-.31-4.15.09-5.48 1.15-8.67 6.91-12.02 16.06-10.74 27.03.28 2.4 1.65 3.51 3.72 3.26 4.39-.53 8.8-1.18 13.09-2.22 11.17-2.7 22.44-3.35 33.81-2.75.14.42.29.84.43 1.27-4.18 2.14-8.16 4.88-12.57 6.31-10.08 3.26-20.3 6.11-30.59 8.6-3.21.78-6.82-.29-10.25-.2-1.47.04-2.92.86-4.38 1.33.71 1.42 1.19 3.01 2.16 4.21 2.03 2.5 4.37 4.74 6.48 7.18 2.91 3.35 5.5 7.01 8.64 10.12 4.56 4.52 7.87 9.69 9.78 15.8.27.85.3 1.99.88 2.5 5.97 5.31 4.39 12.76 5.43 19.39.43 2.72 1.17 4.51 3.64 5.76 2.77 1.4 5.39 2.96 6.65 6.22 1.03 2.65 3.33 1.27 5.19.89 1.45-.3 3.09-1.23 4.32-.85 7.71 2.44 15.55 1.02 23.33 1.09 3.91.03 7.82-.41 11.73-.46 2.39-.03 4.57-.05 6.42-2.02.67-.71 2.25-.73 3.42-.78 3.62-.15 5.1-1.3 5.3-4.98.17-3.11-.15-6.25-.19-9.38-.13-9.6.61-19.24-1.74-28.73-.73-2.94 2.03-6.87 4.95-7.91 1.56-.55 2.64-.36 3.49 1.34 5.92 11.8 7.82 24.09 5.28 37.12-.63 3.22-.22 6.62-.58 9.91-.37 3.38-.91 6.77-1.79 10.05-.24.89-1.89 1.72-3.03 1.99-4.24.99-8.59 1.55-12.8 2.65-2.61.68-5.02 2.1-7.55 3.11-.99.4-2.05.76-3.1.89-4.23.51-8.49-.73-12.76 1.55-2.08 1.11-5.49-.6-8.1-.06-8.87 1.84-16.36-2.32-24.19-5.01-6.02-2.07-6.12-2.25-9.75 3.07-5.08 7.46-11.21 13.81-18.18 19.57-3.63 3-6.36 7.13-9.29 10.92-3.36 4.33-6.55 8.79-9.66 13.31-.96 1.4-1.29 3.21-2.11 4.73-.54 1.01-1.46 1.81-2.16 2.74-1.3 1.71-2.7 3.36-3.82 5.18-3.98 6.42-7.66 13.04-11.89 19.29-1.72 2.54-2.63 4.77-1.7 7.67 1.24 3.86.23 6.95-1.96 10.51-3.64 5.92-6.13 12.54-9.33 19.36 4.06.29 7.54 1.43 10.38.53 4.32-1.37 8.18-1.56 12.31.11.49.2 1.4-.51 2.06-.89 4.13-2.34 7.62-5.25 13.1-5.46 6.46-.26 12.77-3.59 19.27-4.09 6.83-.53 12.41-4.57 19.24-5.07 6.17-.45 9.08-5.71 9.07-13.25-.01-4.02-.12-8.05.16-12.05.1-1.4 1.26-2.72 1.93-4.07 1.53.78 3.51 1.19 4.5 2.41 3.61 4.45 5.61 9.1 4.09 15.43-1.03 4.28.75 9.2 1.04 13.84.21 3.32.1 6.67.04 10.01-.07 4.11-.64 8.26-.26 12.32.42 4.5-3.1 7.52-3.6 11.61-.05.42-2.18.95-3.23.76-.78-.14-1.88-1.28-1.97-2.08-.54-4.55-.66-9.15-1.24-13.69-.29-2.26-.83-4.69-2-6.59-2.67-4.32-5.28-4.94-9.67-2.54-3.71 2.02-7.44 3.5-11.77 2.98-.75-.09-1.9.25-2.31.8-2.37 3.21-5.5 3.46-9.01 2.7-1.42-.31-2.87-.76-4.29-.71-1.03.04-2.51.52-2.95 1.28-1.2 2.07-2.95 2.81-5.1 3.3-5.02 1.13-9.96 2.57-15.01 3.55-5.22 1.02-10.51 1.62-15.77 2.45-.87.14-1.95.27-2.51.83-3.72 3.72-8.52 3.56-13.18 3.75-4.36.17-8.72.07-13.09.08-.56 0-1.33-.31-1.64-.05-3.97 3.29-8.94 1.74-13.36 2.52-5.4.95-11.1.12-16.67.29-2.6.08-5.18.77-7.77 1.11-.87.11-1.78.15-2.64 0-4.73-.84-9.46-1.74-14.17-2.65-2.17-.42-5.03-4.72-4.16-6.65.4-.89 1.82-1.78 2.85-1.86 7.23-.57 14.51-1.54 21.7-1.15 5.45.29 10.38-.23 15.18-2.64 2.27-1.14 4.55-1.69 7.01-.37.67.36 1.9.45 2.48.07 3.86-2.56 8.13-1.98 12.37-1.98 2.1 0 4.28.05 6.3-.43 4.34-1.03 6.76-3.36 7.66-8.35 1.65-9.16 3.41-18.44 8.27-26.71.84-1.43.96-3.43.97-5.18.02-2.98 1.27-5.22 3.09-7.48 1.25-1.55 1.78-3.69 2.6-5.58.43-1 .74-2.05 1.2-3.04 1.49-3.2 2.98-6.4 4.53-9.57 1.26-2.57 2.46-5.18 3.94-7.61 3.59-5.89 7.31-11.71 11.02-17.53.89-1.39 1.89-2.72 2.95-3.99 2.98-3.49 6.68-5.52 11.92-5.43zm-55.52-97.74c11.93 1.96 16.73.94 27.67-2.92 13.1-4.62 16.05-15.6 18.38-27.15.56-2.79-1.29-3.81-3.97-2.45-3.78 1.92-7.6 3.8-11.19 6.04-2.5 1.56-4.84 3.5-6.91 5.6-2.03 2.06-3.59 4.51-7.1 4.05-.76-.1-1.8.76-2.48 1.41-4.2 4.01-8.37 8.06-12.47 12.18-.76.77-1.15 1.9-1.93 3.24z"/><path d="m205.48 229.95c5.35 2.14 9.59 3.67 13.66 5.55 1.41.65 3.46 2.28 3.38 3.33-.18 2.65-1.39 5.24-2.24 7.84-.05.14-.62.2-.93.15-4.52-.69-9.09-1.17-13.54-2.21-3-.7-5.28-6.55-3.83-9.3 1.16-2.17 2.7-4.14 3.5-5.36z"/><path d="m180.15 263.79c3.3.94 6.43 1.73 9.48 2.75 1.01.34 2.25 1.04 2.66 1.92 1 2.16 2.28 4.59 2.04 6.75-.12 1.07-3.28 2.33-5.19 2.58-5.57.74-10.63-1.2-15.1-4.35-2.69-1.9-2.04-6.04.9-7.46 1.67-.81 3.42-1.45 5.21-2.19z"/><path d="m178.69 319.53c-1.99.31-4.18.08-5.71-2.57-.66-1.14-2.38-1.61-3.44-2.57-1.13-1.02-2.44-2.11-2.99-3.44-1.38-3.39-.21-4.82 3.44-4.52 4.56.38 9.11.86 13.67 1.28 2.86.27 3.83 1.92 3.45 4.6-.71 5.26-2.85 7.23-8.42 7.22z"/></g><path d="m385.2 377.6.6-.7c.6.4 1.3.9 1.9 1.5l-.6.7c-.8-.5-1.4-1-1.9-1.5zm.3 7.1c.6-1.4 1.1-2.9 1.5-4.5.3.1.6.3.9.4-.5 1.4-1 2.9-1.5 4.4zm.2-10.1.6-.6c.7.5 1.3 1.1 1.9 1.6l-.7.7c-.6-.6-1.2-1.2-1.8-1.7zm8.4-.8h.8v.9h1.8v.7h-1.8v1.8h-.8v-.3h-1.2v.9h3.3v2.6h-.8v-.4h-2.5c0 .3 0 .6-.1.8h3.4v.7h-3.5c0 .3-.1.6-.1.8h4v.7h-3.5c.7.9 1.9 1.3 3.6 1.5-.2.2-.4.5-.6.9-1.9-.3-3.2-1.1-3.8-2.3-.5 1.1-1.8 2-3.9 2.4-.2-.3-.4-.5-.6-.8 1.9-.4 3.1-.9 3.6-1.7h-3.2v-.7h3.5c.1-.2.1-.5.2-.8h-3.3v-.7h3.4c0-.2 0-.5 0-.8h-2.4v.3h-.8v-2.6h3.3v-.9h-1.2v.3h-.8v-1.8h-1.8v-.7h1.8v-.9h.8v.9h3.2zm-4.4 5.5h2.4c0-.3 0-.6 0-.9h-2.4zm1.2-3.1h3.2v-.8h-3.2zm4.4 2.2h-2.4v.9h2.5v-.9z" fill="#fcfbfa"/><path d="m389.2 385.8h.9v1.5h1.9v-1.5h.9v1.5h2.7v6h1.1v.9h-11.3v-.9h1.1v-6h2.7zm.2 8.7.5.8c-1.2.6-2.5 1.3-4 1.9-.2-.3-.3-.6-.6-.8 1.6-.6 3-1.3 4.1-1.9zm-2-4.3h1.9v-2.1h-1.9zm0 3.1h1.9v-2.2h-1.9zm2.7-3.1h1.9v-2.1h-1.9zm0 3.1h1.9v-2.2h-1.9zm2.4 1.3c1.4.6 2.7 1.2 4.1 1.8l-.5.9c-1.5-.7-2.8-1.4-4.1-1.9zm2.2-6.5h-1.9v2.1h1.9zm-1.9 5.2h1.9v-2.2h-1.9z" fill="#fcfbfa"/></svg>