<svg enable-background="new 0 0 400 400" viewBox="0 0 400 400" xmlns="http://www.w3.org/2000/svg"><path d="m58.55 296.53c1.05-5.43 1.12-10.75 5.75-15.15 5-4.75 9.92-9.2 16.39-11.84 2.2-.9 4.27-2.46 5.96-4.16 9.94-9.99 19.96-19.92 29.52-30.26 4.18-4.52 7.36-9.97 11.33-15.47-5.81-1.19-10.52-.47-15.24 1.12-7.28 2.44-14.65 4.63-21.95 7.03-.98.32-1.87 1.09-2.65 1.82-4.17 3.88-8.2 7.94-12.48 11.7-3.44 3.02-7.51 4.78-12.25 4.66-2.71-.06-4.23-1.16-4.08-4 .51-9.58.79-19.19 1.65-28.74.51-5.65 1.72-11.28 3.06-16.81.56-2.34 1.84-4.79 3.48-6.53 7.9-8.39 15.99-16.61 24.12-24.78 2.11-2.12 4.48-4.05 7-5.66 10.09-6.44 20.28-12.71 30.43-19.05.92-.57 1.79-1.21 2.69-1.82-.03-.32-.07-.65-.1-.97-4.73 0-9.58.67-14.16-.15-8.54-1.52-17.1-3.38-25.32-6.11-6.88-2.29-13.77-3.73-20.92-4.22-2.32-.16-3.56-.79-4.09-3.32-1-4.81-2.27-9.58-3.76-14.25-1.07-3.37-2.47-6.67-4.12-9.8-1.54-2.92-2.13-5.77-1.13-10.04 2.76 1.5 5.45 2.34 7.33 4.08 17.58 16.29 38.14 25.39 62.18 26.57 2.9.14 4.01-.96 4.82-3.26 2.97-8.4 2.63-16.99 1.07-25.53-3.92-21.44-10.66-41.99-20.13-61.63-.53-1.1-1-2.24-1.46-3.38-.06-.16.07-.4.17-.82 11.68 6.21 23.3 12.35 33.43 20.93 3.52 2.99 4.96 6.85 5.08 11.25.15 5.48-.09 10.97.13 16.44.28 7.03.77 14.05 1.38 21.06.15 1.71.86 3.51 1.77 5 2.07 3.38 5.4 3.42 7.76.27 8.27-11 16.43-22.09 24.84-32.98 3.75-4.85 5.35-9.94 3.92-15.96-.4-1.71-.46-3.5-.75-5.89 6.17 2.48 12.75 2.34 17.26 7.88 2.41 2.97 5.86 5.14 9.01 7.45 6.1 4.47 6.71 12.18 1.18 17.18-13.52 12.25-27.01 24.53-40.62 36.69-3.24 2.9-6.96 5.26-10.32 8.04-1.57 1.3-2.8 3.02-4.59 5.01 6.87 1.94 12.97 1.47 18.9.02 15.84-3.88 30.39-11.12 45.04-18.02 1.06-.5 1.89-1.56 2.75-2.43 4.57-4.61 9.03-9.34 13.7-13.84 4.25-4.1 8.68-7.99 6.97-15.11.93.35 1.31.38 1.48.58 4.71 5.68 9.45 11.35 14.09 17.09 3.17 3.92 4.99 8.48 5.35 13.5.07.98-.76 2.51-1.61 2.97-3.73 2.02-7.63 3.73-11.45 5.57-3.96 1.91-7.16 4.5-8.41 9-.56 2.03-.35 3.48 1.41 4.98 4.94 4.21 9.74 8.58 14.48 13.01 3.69 3.45 5.54 7.73 5.37 12.89-.08 2.3-.76 3.64-3.1 4.43-17.29 5.81-32.35 15.54-46.53 26.8-.52.42-1.01.88-1.5 1.34-.06.06-.04.21-.13.83 8.22 1.29 16.48 2.41 24.67 3.91 6.01 1.11 12.09 2.25 17.84 4.23 5.09 1.75 8.22 5.99 9.75 11.25.6 2.06.18 3.42-1.7 4.8-6.86 5.02-13.64 10.17-20.27 15.48-3.95 3.16-7.31 6.88-8.85 11.95-.63 2.07-.23 3.14 1.68 4.31 11.43 7.01 23.79 11.85 36.54 15.77 11.96 3.67 23.94 7.25 35.95 10.76 4.64 1.36 7.39 4.35 8.82 9.19-5.01 2.85-10.37 3.93-16.04 3.23-5.32-.65-10.65-1.39-15.92-2.39-9.2-1.75-17.96.98-26.9 2.18-6.83.92-13.1-.17-18.33-5.68-6.31-6.65-13.23-12.71-20.11-19.23-3.84 3.91-6.82 9.08-6.45 15.62.28 5.02.97 10.01 1.55 15.01.08.73.41 1.59.91 2.08 8.73 8.43 16.05 18.46 27.4 23.91 17.3 8.31 35.04 15.09 54.34 17.23 11.31 1.25 22.56 3.15 33.7 4.73.22.41.37.59.41.8 1.45 6.72 1.43 6.67-5.23 8.5-21.29 5.83-42.31 4-63.18-2.19-15.1-4.48-29.48-10.44-42.02-20.24-3.08-2.41-6.23-4.82-9.63-6.72-10.87-6.07-14.17-16.2-14.93-27.56-.95-14.26 2.56-27.98 5.64-41.73.66-2.94 1.49-5.85 2.36-8.74 1.43-4.77 2.93-9.21 6.83-13.03 5.01-4.91 7.45-11.57 7.81-19.4-6.67-1.31-13.27-2.95-19.97-3.86-11.19-1.51-22.44-2.56-33.66-3.78-.87-.09-2.04-.27-2.6.18-4.64 3.77-10.07 7.02-13.54 11.7-6.3 8.51-11.42 17.9-17.03 26.92-.64 1.03-1.25 2.08-2 3.32 6.49 3.36 12.69 6.66 18.99 9.78 1.97.97 2.98 2.3 3.67 4.36 2.42 7.2 5.1 14.3 7.62 21.47 3.43 9.76 1.63 19.36-.66 29.05-1.83 7.77-5.49 14.06-11.36 19.56-8.64 8.11-16.67 16.88-25.06 25.27-1.29 1.29-3.05 2.24-4.75 2.96-8.11 3.42-16.74 5.76-23.67 11.6-.85.72-1.95 1.25-2.58 2.13-4.73 6.51-11.68 4.3-17.91 4.34-.87.01-1.99-3.26-2.52-5.15-.21-.75.6-2.15 1.35-2.75 11.79-9.41 23.91-18.45 35.43-28.18 11.15-9.42 21.18-20 28.2-33 2.38-4.4 4.18-9.13 6.08-13.77 1.33-3.27 1.48-6.57.31-10.08-1.55-4.66-2.58-9.48-3.84-14.24-1.24-4.67-4.07-7.14-8.97-7.35-2.89-.13-5.82.09-8.69.49-1.05.14-2.11 1.1-2.94 1.92-11.33 11.26-23.69 21.2-37.64 29-8.26 4.62-17.13 7.11-26.75 5.35-.43-.07-.83-.25-1.55-.48zm89.59-145.69c.28 6.12 3.37 9.54 7.31 12.37 4.28 3.06 7.14 6.85 7.57 12.34.23 2.92 1.17 5.78 1.84 8.94 5.51-2.04 10.57-3.8 15.54-5.77 20.11-7.99 38.84-18.24 54.35-33.67.77-.76 1.88-1.67 1.93-2.57.22-3.83.09-7.68.09-12.07-29.41 8.9-58.42 17.04-88.63 20.43zm-6.38 23.9c-.36-4.87-1.9-9.1-4.58-12.97-3.05-4.41-3.06-4.44-8.09-2.61-2.2.8-4.38 1.67-6.52 2.64-17.1 7.72-30.22 20.62-43.11 33.69-3.06 3.1-4.24 7.58-1.84 12.14.95 1.8 1.83 2.28 3.92 1.61 17.98-5.77 36.02-11.35 54-17.14 1.22-.39 2.62-1.81 2.96-3.02 1.3-4.73 2.21-9.55 3.26-14.34z" fill="#010104"/><g fill="#fcfbfa"><path d="m385.2 377.6.6-.7c.6.4 1.3.9 1.9 1.5l-.6.7c-.8-.5-1.4-1-1.9-1.5zm.3 7.1c.6-1.4 1.1-2.9 1.5-4.5.3.1.6.3.9.4-.5 1.4-1 2.9-1.5 4.4zm.2-10.1.6-.6c.7.5 1.3 1.1 1.9 1.6l-.7.7c-.6-.6-1.2-1.2-1.8-1.7zm8.4-.8h.8v.9h1.8v.7h-1.8v1.8h-.8v-.3h-1.2v.9h3.3v2.6h-.8v-.4h-2.5c0 .3 0 .6-.1.8h3.4v.7h-3.5c0 .3-.1.6-.1.8h4v.7h-3.5c.7.9 1.9 1.3 3.6 1.5-.2.2-.4.5-.6.9-1.9-.3-3.2-1.1-3.8-2.3-.5 1.1-1.8 2-3.9 2.4-.2-.3-.4-.5-.6-.8 1.9-.4 3.1-.9 3.6-1.7h-3.2v-.7h3.5c.1-.2.1-.5.2-.8h-3.3v-.7h3.4c0-.2 0-.5 0-.8h-2.4v.3h-.8v-2.6h3.3v-.9h-1.2v.3h-.8v-1.8h-1.8v-.7h1.8v-.9h.8v.9h3.2zm-4.4 5.5h2.4c0-.3 0-.6 0-.9h-2.4zm1.2-3.1h3.2v-.8h-3.2zm4.4 2.2h-2.4v.9h2.5v-.9z"/><path d="m389.2 385.8h.9v1.5h1.9v-1.5h.9v1.5h2.7v6h1.1v.9h-11.3v-.9h1.1v-6h2.7zm.2 8.7.5.8c-1.2.6-2.5 1.3-4 1.9-.2-.3-.3-.6-.6-.8 1.6-.6 3-1.3 4.1-1.9zm-2-4.3h1.9v-2.1h-1.9zm0 3.1h1.9v-2.2h-1.9zm2.7-3.1h1.9v-2.1h-1.9zm0 3.1h1.9v-2.2h-1.9zm2.4 1.3c1.4.6 2.7 1.2 4.1 1.8l-.5.9c-1.5-.7-2.8-1.4-4.1-1.9zm2.2-6.5h-1.9v2.1h1.9zm-1.9 5.2h1.9v-2.2h-1.9z"/></g></svg>