<svg enable-background="new 0 0 400 400" viewBox="0 0 400 400" xmlns="http://www.w3.org/2000/svg"><path d="m378.6 9.2.8-1c.9.7 1.9 1.4 2.9 2.3l-.9 1.1c-1.1-.9-2-1.7-2.8-2.4zm.5 10.7c.9-2.1 1.6-4.3 2.3-6.7.4.2.8.4 1.3.6-.7 2.1-1.5 4.3-2.2 6.6zm.4-15.2.9-.9c1 .8 2 1.6 2.8 2.4l-1 1c-1-.9-1.9-1.8-2.7-2.5zm12.5-1.3h1.2v1.4h2.7v1.1h-2.7v2.7h-1.2v-.5h-1.8v1.3h4.9v3.8h-1.2v-.5h-3.7c0 .4-.1.9-.1 1.2h5.1v1h-5.2c0 .5-.1.9-.2 1.2h6v1h-5.2c1.1 1.3 2.9 2 5.5 2.2-.4.4-.7.8-.9 1.3-2.9-.5-4.8-1.6-5.7-3.5h-.1c-.8 1.7-2.7 2.9-5.9 3.6-.2-.4-.6-.8-.9-1.1 2.8-.6 4.6-1.4 5.4-2.5h-4.8v-1h5.3c.1-.3.2-.7.2-1.2h-4.9v-1h5c0-.4 0-.8.1-1.2h-3.6v.5h-1.2v-3.8h4.9v-1.3h-1.8v.5h-1.2v-2.7h-2.6v-1.1h2.6v-1.4h1.2v1.4h4.7v-1.4zm-6.7 8.4h3.6c0-.4 0-.9 0-1.4h-3.6zm1.9-4.7h4.7v-1.2h-4.7zm6.7 3.3h-3.7v1.4h3.7z" fill="#fcfafa"/><path d="m384.7 21.4h1.3v2.2h2.8v-2.2h1.3v2.2h4.1v9.1h1.7v1.3h-16.9v-1.3h1.7v-9.1h4.1v-2.2zm.3 13.2.7 1.2c-1.8.9-3.8 1.9-6 2.9-.2-.4-.5-.8-.8-1.3 2.4-1 4.4-2 6.1-2.8zm-3.1-6.5h2.8v-3.2h-2.8zm0 4.6h2.8v-3.3h-2.8zm4.1-4.6h2.8v-3.2h-2.8zm0 4.6h2.8v-3.3h-2.8zm3.6 1.9c2.1.9 4.1 1.8 6.1 2.7l-.7 1.3c-2.2-1.1-4.2-2-6.1-2.9zm3.3-9.7h-2.8v3.2h2.8zm-2.8 7.8h2.8v-3.3h-2.8z" fill="#fcfafa"/><g fill="#010000"><path d="m117.83 300.51c-.49 3.67-.4 6.58-1.33 9.11-1.29 3.5-3.15 6.86-5.16 10.01-1.37 2.14-3.66 2.3-6.24.75 1.28-3.61 2.64-7.23 3.83-10.9 3.63-11.15 7.55-22.23 10.63-33.53 1.63-5.97 1.87-12.35 2.46-18.56.32-3.44-.13-6.95.09-10.4 1.2-19.16-1.49-37.92-5.73-56.52-.02-.11-.09-.22-.08-.32.36-9.04-.77-17.95-2.14-26.86-.43-2.77.92-4.69 3.49-6.18 6.92-4.01 14.53-5.74 22.24-7.03 12.01-2.02 24.09-3.67 35.48-8.35 1.52-.63 3.25-.78 4.9-1.06 5.98-1.03 5.98-1.01 7.3-6-1.8-3.46-3.22-6.06-4.5-8.73-1.15-2.39-2.36-4.6-5.38-4.95-4.57-.53-6.54-3.79-7.16-7.72-.87-5.46-2.53-10.52-4.83-15.57-1.62-3.57-1.78-7.79-2.59-11.73-.13-.66-.04-1.47-.4-1.95-5.04-6.73-4.26-15.09-6.43-22.62-.43-1.49-.61-3.24-1.52-4.37-4.54-5.57-4.14-12.34-4.74-18.82-.08-.9 1.43-2.46 2.52-2.84 1.5-.53 3.58-1.27 4.54 1.18 1.71 4.35 3.99 8.57 5.02 13.07 2.23 9.72 4.68 19.28 8.78 28.44 1.65 3.7 1.91 8.01 2.82 12.04.27 1.2.53 2.41.9 3.57 2.72 8.43 7.17 10.63 15.19 7.09 1.3-.57 2.46-2.73 2.65-4.29.52-4.08.45-8.23.66-12.35.15-2.99.26-6 .61-8.97.32-2.74 1.35-5.46-.47-8.07-.22-.32-.34-.94-.18-1.26 2.05-4.14-.06-8.1-.4-12.14-.38-4.42-.46-8.87-.83-13.29-.19-2.24-1.25-4.52-.97-6.66.33-2.5 1.4-5.04 2.75-7.18.49-.77 2.81-.86 4.14-.55 5.13 1.21 7.69 4.66 7.54 10-.13 4.81-.52 9.61-.69 14.42-.12 3.31-.47 6.54 1.35 9.77.83 1.46-.01 3.89-.17 5.87-.09 1.22-.5 2.43-.46 3.64.11 3.13 1.7 4.37 4.74 3.64 12.51-3.02 25.02-5.89 38-6.08 12.07-.18 24.15-1.04 36.06 1.98 1.86.47 2.66 1.06 2.82 2.92.23 2.56.76 5.09 1.03 7.65.65 6.15-2.7 9.54-8.86 9.66-6.45.13-12.89 1.03-19.34 1.01-6.13-.02-12.25-.85-18.37-1.24-11.19-.71-22.25-2.13-32.95-5.66-.5-.17-1.07-.15-1.96-.26-.53 2.74-1.27 5.31-1.5 7.92-.94 10.85-1.16 21.68 2.82 32.1 1.88 4.93 5.75 6.73 10.74 5.59 7.76-1.78 14.9-4.36 21.43-9.44 4.77-3.71 10.93-6.08 16.83-7.79 5.76-1.67 11.2.09 15.01 5.47 1.73 2.44 4.01 4.5 6.15 6.63 4.16 4.14 5.2 11.97 2.18 16.97-2.14 3.54-4.49 6.98-6.38 10.65-3.45 6.71-7.92 12.67-14.51 16.28-11.17 6.11-17.37 17.17-26.43 25.34-7.71 6.96-14.99 14.7-24.96 18.39-7.62 2.82-15.56 4.79-23.44 6.83-7.67 1.99-15.47 3.47-23.15 5.4-6.09 1.53-12.15 2.06-18.2.2-2.49-.77-4.81-2.1-7.62-3.36-2.23 2.27-4.25 4.83-4.37 9.18-.19 6.76-1.57 13.48-2.42 20.22-.22 1.76-.65 3.59-.39 5.3.92 6.03-.07 11.71-1.97 17.44-.89 2.68-.94 5.71-.96 8.58-.11 7.85-2.93 14.51-7.52 19.29zm16.53-84.06c3.69-2.79 6.3-4.91 9.08-6.77 1.12-.75 2.64-1.39 3.94-1.32 10.06.57 19.76-1.56 29.54-3.38 18.03-3.36 34.13-10.37 47.22-23.55 9.67-9.74 18.08-20.7 29.16-29.09 4.67-3.53 2.57-11.8-3.08-12.95-3.98-.81-8.43-1.61-12.23-.67-14.94 3.71-29.75 7.97-44.52 12.33-5.2 1.53-10.12 3.99-15.21 5.92-2.01.76-4.17 1.87-6.19 1.73-14.16-.95-27.04 3.95-40.07 8.27-2.42.8-2.85 2.22-2.54 4.54.65 4.87.92 9.79 1.57 14.66.95 7.18 2.14 14.34 3.12 21.52.19 1.38-.14 2.83-.12 4.24 0 1.25.17 2.51.33 4.52z"/><path d="m260.3 190.89c4.47 1.58 4.81 2.18 4.07 6.13-1.81 9.67-3.58 19.35-5.38 29.02-1.33 7.14-5.63 12.85-9.5 18.66-3.34 5.01-7.26 9.69-11.38 14.09-2.86 3.05-6.49 5.39-10.15 8.35 5.22 9.17 3.96 19.34 4.04 29.36.01.78-.19 1.86.23 2.28 3.32 3.38 2.21 7.55 2.15 11.48-.13 9.18.13 18.4-.8 27.51-.79 7.69.06 15.61-3.11 23.12-1.18 2.8-.67 6.4-.55 9.62.1 2.73-.69 4.27-4.54 4.36-.48-3.98-1.44-8.09-1.36-12.18.16-7.6 1.37-15.19 1.3-22.78-.06-6.43-1.33-12.85-2.05-19.28-.09-.77-.5-1.81-.15-2.26 2.87-3.82 1.28-7.98 1.02-12.01-.21-3.24-.41-6.5-.99-9.68-.32-1.74-1.46-3.32-2.17-4.99-.41-.97-.92-1.97-1.01-2.99-.12-1.44.11-2.9.19-4.35.26-5.06-1.8-7.45-6.94-7.48-6.03-.04-11.72.78-17.37 3.77-9.78 5.16-20.51 7.67-31.65 7.51-2.28-.03-4.71-1.05-6.8-2.15-10.91-5.74-14.42-15.79-15.35-27.2-.32-3.9-.49-7.82-.53-11.73-.01-1.01.72-2.02 1.11-3.04.92.59 2.05 1.01 2.71 1.81 2.7 3.28 5.29 6.64 7.85 10.03 3.47 4.59 8.37 5.95 13.76 6.56 11.94 1.36 23.85 2.04 35.68-.87.43-.11.87-.2 1.3-.34 6.74-2.06 9.19-7.26 6.6-14-.16-.41-.48-.87-.41-1.25 1.14-6.24-3.04-10.46-5.67-15.3-1.09-2.02-2.1-4.31-2.26-6.54-.13-1.86.55-5 1.71-5.47 2.56-1.03 5.31-1.43 8.11 1.42 4.78 4.87 7.28 10.53 8.83 16.93.51 2.12 1.32 4.36 2.62 6.06 2.35 3.06 6.25 2.54 7.53-.96 3.62-9.91 10.72-17.48 17-25.58 3.81-4.92 7.04-10 8.83-16 .93-3.2 2.25-6.28 3.48-9.64z"/></g></svg>