<svg enable-background="new 0 0 400 400" viewBox="0 0 400 400" xmlns="http://www.w3.org/2000/svg"><path d="m361.2 9.6.8-1c.9.7 1.9 1.4 2.9 2.3l-.9 1.1c-1-1-2-1.8-2.8-2.4zm.5 10.6c.9-2.1 1.6-4.3 2.3-6.7.4.2.8.4 1.3.6-.7 2.1-1.5 4.3-2.2 6.6zm.4-15.2.9-.9c1 .8 2 1.6 2.8 2.4l-1 1c-.9-.9-1.8-1.7-2.7-2.5zm12.5-1.2h1.2v1.4h2.7v1.1h-2.7v2.7h-1.2v-.6h-1.8v1.3h4.9v3.8h-1.2v-.5h-3.7c0 .4-.1.9-.1 1.2h5.1v1h-5.2c0 .5-.1.9-.2 1.2h6v1h-5.2c1.1 1.3 2.9 2 5.5 2.2-.4.4-.7.8-.9 1.3-2.9-.5-4.8-1.6-5.7-3.5h-.1c-.8 1.7-2.7 2.9-5.9 3.6-.2-.4-.6-.8-.9-1.1 2.8-.6 4.6-1.4 5.4-2.5h-4.8v-1h5.3c.1-.3.2-.7.2-1.2h-4.9v-1h5c0-.4 0-.8.1-1.2h-3.5v.5h-1.2v-3.8h4.9v-1.3h-1.8v.5h-1.2v-2.7h-2.7v-1h2.6v-1.4h1.2v1.4h4.7v-1.4zm-6.6 8.3h3.6c0-.4 0-.9 0-1.4h-3.6zm1.9-4.6h4.7v-1.3h-4.7zm6.6 3.2h-3.7v1.4h3.7z" fill="#fbfcfa"/><path d="m385.3 3.8h1.3v2.2h2.8v-2.2h1.3v2.2h4.1v9.1h1.7v1.3h-16.9v-1.3h1.7v-9.1h4.1v-2.2zm.4 13.1.7 1.2c-1.8.9-3.8 1.9-6 2.9-.2-.4-.5-.8-.8-1.3 2.3-1 4.3-1.9 6.1-2.8zm-3.1-6.4h2.8v-3.2h-2.8zm0 4.6h2.8v-3.3h-2.8zm4-4.6h2.8v-3.2h-2.8zm0 4.6h2.8v-3.3h-2.8zm3.7 1.9c2.1.9 4.1 1.8 6.1 2.7l-.7 1.3c-2.2-1.1-4.2-2-6.1-2.9zm3.2-9.7h-2.8v3.2h2.8zm-2.8 7.8h2.8v-3.3h-2.8z" fill="#fbfcfa"/><g fill="#010102"><path d="m307.67 371.84c-7.07 1.65-7.08 1.66-10.74-3.45-7.56-10.56-12.07-22.6-17.04-34.46-8.72-20.81-17.88-41.43-26.87-62.13-.22-.5-.55-.94-.92-1.58-2.83.86-5.62 1.61-8.34 2.54-18.41 6.31-37.74 8.27-56.67 12.08-14.68 2.95-29.41 5.68-44.13 8.41-2.84.53-5.82 1.12-8.63.79-2.11-.24-4.55-1.46-5.98-3.03-2.99-3.3-2.5-6.24 1.63-7.76 5.81-2.14 11.88-3.76 17.97-4.95 23.48-4.59 47.05-8.69 70.48-13.47 8.71-1.78 17.15-4.93 26.01-7.54-1.11-3.78-2.07-7.1-4.57-10.28-7.49-9.52-18.06-10.97-28.81-11.74-20.08-1.44-39.95.7-59.73 4.2-4.46.79-9.16.58-13.71.29-2.08-.13-4.38-1.19-6.05-2.51-4.67-3.69-4.18-8.01 1.23-10.21 3.15-1.28 6.62-2.04 10.02-2.39 12.11-1.24 24.24-2.35 36.39-3.24 15.51-1.13 31.05-2.43 46.44 1.07 3.9.89 7.79 2.13 11.43 3.76 2.34 1.05 4.55 2.82 6.25 4.77 5.44 6.24 10.67 12.66 15.84 19.14 1.4 1.75 2.46 1.73 4.45.96 7.88-3.05 13.38-9.22 19.55-14.49 1.21-1.04 2.02-2.7 2.66-4.22 3.29-7.75 3.97-15.76 2.08-23.97-.7-3.02-2.17-5.43-4.86-7.3-10.08-6.97-21.37-10.56-33.35-12.26-17.51-2.49-35.08-1.6-52.59-.3-13.36.99-26.64 3.18-39.98 4.55-5.21.53-10.51.58-15.74.3-5.5-.29-7.61-3.71-5.52-8.37.48-1.07 1.65-2.08 2.75-2.59 9.29-4.33 19.27-5.65 29.34-6.33 14.61-.99 29.25-2.56 43.86-2.37 15.61.2 31.21 2.01 46.79 3.4 5.32.48 10.66 1.46 15.82 2.83 17.07 4.53 26.53 16.44 27.65 34.07.43 6.8-.56 13.12-3.2 19.56-3.01 7.34-7.06 13.36-13.07 18.58-5.69 4.94-11.14 9.93-19.41 11.87 3.65 9.16 6.91 17.81 10.53 26.3 9.36 22 19.07 43.86 28.15 65.97 1.91 4.68 1.76 10.2 2.59 15.5z"/><path d="m91.13 353.1c1.44-44.38 2.92-88.76 4.31-133.14.31-9.84.22-19.69.39-29.54.18-10.09 2.59-19.69 6.83-28.82.41-.88 1.05-1.74 1.77-2.38 9.49-8.47 19.56-15.93 31.95-19.8 6.61-2.06 12.98-4.85 19.54-7.07 12.27-4.14 15.91-10.75 12.99-24.86-.65-3.12-2.11-5.33-4.94-7.05-10.57-6.41-21.95-9.9-34.3-10.21-4.47-.11-9.02.29-13.4-.4-9.58-1.51-16.06-7.74-19.53-16.24-3.87-9.47-6.54-19.46-9.38-29.32-1.14-3.96.41-7.8 3.01-10.92.59-.71 2.41-1.03 3.39-.7 5.09 1.69 8.06 5.61 9.42 10.57 1.2 4.4 1.4 9.11 2.83 13.42 1.7 5.13 4.07 10.08 6.56 14.9.65 1.27 2.72 2.27 4.28 2.54 12.1 2.12 24.34 3.58 36.33 6.19 6.01 1.3 11.87 4.05 17.3 7.05 10.8 5.96 14.08 16.16 14.16 27.79.05 7.17-2.7 13.01-7.41 18.46-8.77 10.15-20.47 14.87-32.62 18.96-7.81 2.63-15.88 4.38-23.06 8.85-7.4 4.6-10.62 11.06-10.85 19.49-.68 25.16-1.31 50.32-2.18 75.47-1.03 29.86-2.28 59.71-3.42 89.56-.23 6.03-.26 12.07-.61 18.09-.33 5.66-3.23 9.08-7.98 10.34-2.14.57-3.62.12-4.01-2.07-1.15-6.33-2.14-12.69-3.19-19.04.61-.05 1.21-.08 1.82-.12z"/><path d="m203.76 24.95c5.75 1.17 9.22 4.79 11 9.92 1.83 5.26 3.17 10.7 4.77 16.04.32 1.06.82 2.08 1.25 3.11 2.72 6.52 7.3 10.81 14.06 13.38 11.51 4.39 23.41 6.6 35.56 7.95 8.28.92 15.8 3.66 20.72 10.81 2.05 2.98 3.87 6.44 4.6 9.94 1.86 8.89 1.74 17.55-1.14 26.64-3.62 11.45-11.55 16.73-21.98 19.05-11.65 2.59-23.54 4.12-35.34 6.05-6.5 1.07-12.99 2.3-19.54 2.94-4.28.42-8.68.11-12.98-.3-1.01-.1-2.45-1.84-2.66-3.01-.61-3.41 1.99-6.75 5.39-7.5 22.49-4.97 44.95-10.04 67.48-14.79 4.4-.93 6.63-3.34 7.77-7.21 2.15-7.24.85-14.18-2.28-20.84-.47-1.01-1.6-1.82-2.6-2.45-12.08-7.76-25.46-11.71-39.69-11.72-15.43-.01-24.73-7.94-30.79-21.15-3.78-8.24-5.27-17.05-6.72-25.87-.64-3.95.64-7.48 3.12-10.99z"/></g></svg>