<svg enable-background="new 0 0 400 400" viewBox="0 0 400 400" xmlns="http://www.w3.org/2000/svg"><path d="m153.48 267.09c1.81.95 3.35 1.75 4.88 2.58 11.55 6.27 23.45 6.53 35.65 2.14 7.57-2.72 15.21-5.22 22.75-8 6.43-2.37 8.11-5.24 6.16-11.88-2.04-6.95-5.11-13.6-7.17-20.54-3.14-10.59-11.82-16.86-18.48-24.71-.44-.52-1.6-.72-2.38-.63-10.67 1.19-21.33 2.52-32 3.65-2.14.23-2.15 1.57-2.33 2.97-.98 7.54-1.77 15.11-2.95 22.62-.6 3.82-1.54 7.67-2.92 11.27-4.71 12.31-9.65 24.54-14.59 36.76-.91 2.26-2.14 4.41-3.4 6.5-4.89 8.13-9.74 16.28-14.83 24.28-2.87 4.51-5.93 8.96-9.38 13.04-3.5 4.14-8.08 6.05-13.78 5.03-2.78-.5-3.41-1.95-2.77-4.14 1.06-3.63 1.87-7.51 3.8-10.68 12.08-19.9 20.15-41.62 28.7-63.08 2.66-6.66 2.68-14.36 5.23-21.08 4.16-10.95 3.16-22.13 3.22-33.32.04-7.09-3.15-12.88-7.91-17.96-3.14-3.34-6.16-6.8-6.78-12.67 3.58.42 7.01.39 10.19 1.29 4.06 1.14 7.95 2.94 11.83 4.64 1.03.45 1.83 1.54 2.61 2.45 3.84 4.51 7.57 9.12 11.46 13.58 2.28 2.61 4.91 3.25 8.64 2.55 16.38-3.11 30.7-11.5 46.01-17.32 10.17-3.86 19.03-9.67 27.67-16.13 6.02-4.5 6.34-12.1 5.08-17.56-.16-.7-1.31-1.67-1.99-1.66-3.64.08-7.51-.28-10.87.82-8.37 2.74-16.62 5.92-24.69 9.45-4.77 2.09-8.91 5.58-13.66 7.72-8.76 3.94-17.67 7.67-27.42 8.45-1.7.14-3.66-.07-5.17-.8-6.91-3.34-13.77-6.8-20.51-10.48-1.96-1.07-3.45-3-5.16-4.53.12-.27.23-.54.35-.81.92-.07 1.83-.21 2.75-.21 10.3-.02 20.6.06 30.89-.07 2.05-.03 4.19-.53 6.11-1.29 15.48-6.1 30.87-12.42 46.38-18.43 8.37-3.25 17.13-3.98 26.06-2.89 2.44.3 4.92.51 7.37.37 10.23-.59 17.28 8.47 14.91 18.57-.97 4.12-2.2 8.2-3.6 12.19-3.78 10.82-12.75 16.82-21.91 22.19-8.55 5.02-17.73 8.97-26.56 13.54-3.19 1.65-6.16 3.71-9.06 5.48 6.69 5.86 12.96 10.93 18.74 16.5 7.11 6.87 11.26 15.78 15.68 24.45 1.81 3.55 4.77 4.47 8.06 2.69.88-.48 1.62-1.19 2.47-1.73 9.85-6.4 17.85-14.85 25.88-23.27 3.37-3.54 7.24-6.26 12.28-7.05 2.7-.42 4.16.46 5.07 3.03 1.58 4.46.24 8.49-1.86 12.2-3.54 6.23-7.66 12-13.51 16.46-8.63 6.58-17.07 13.41-25.46 20.3-1.21.99-2.42 2.9-2.37 4.34.41 10.16.67 20.36 1.92 30.43 1.44 11.63 3.86 23.15 5.82 34.72.24 1.42.49 2.9.33 4.32-.75 6.96-.06 13.74 1.14 20.64.92 5.26-1.27 10.36-4.3 14.78-.72 1.05-2.34 1.71-3.67 2.05-3.67.95-4.64.08-5.12-3.84-1.08-8.88-1.59-17.89-3.45-26.61-4.12-19.33-8.91-38.52-13.45-57.76-.23-.97-.63-1.91-1-2.84-2.49-6.14-3.98-6.79-9.98-4.4-4.36 1.74-8.8 3.3-13.07 5.23-3.53 1.59-7 3.4-10.26 5.47-3.94 2.51-8.01 3.29-12.48 2.11-4.43-1.17-8.85-2.36-13.26-3.61-1.06-.3-2.2-.65-3.04-1.31-4.63-3.71-9.24-7.43-13.71-11.33-2.58-2.23-4.3-5.06-3.83-9.23z" fill="#010105"/><path d="m223.86 25.24c10.52 4.96 16.14 12.41 17.79 22.92 1.39 8.89-.18 17.63-1.5 26.34-1.82 11.98-4.57 23.71-11.52 33.98-.56.83-.96 1.87-1.72 2.45-5.92 4.56-11.4 10.07-17.98 13.32-15.21 7.51-30.99 7.62-46.52.28-1.1-.52-2.06-1.69-2.69-2.78-5.14-8.9-10.34-17.78-15.22-26.83-3.05-5.64-2.42-11.9-2.09-18.06.29-5.35.37-10.71.49-16.07.09-4.09-1.85-7.18-4.76-9.94-1.82-1.73-3.19-3.93-5.06-6.29 7.22-2.44 13.1-.86 19.05.81 5.68 1.59 9.39 5.89 13.74 9.32 3.76 2.97 7.57 5.85 9.03 10.87.32 1.1 2.22 2.12 3.58 2.47 6.47 1.69 12.87.31 19.24-.91 7.13-1.37 14.27-2.67 21.37-4.21 1.47-.32 3.09-1.29 4.02-2.46 3.88-4.85 4.62-10.41 3.48-16.47-1.13-5.9-1.77-11.9-2.73-18.74zm-7.22 57.12c-1.37.07-2.46.09-3.55.18-13.14 1.04-26.14 1.02-38.59-4.33-3.42-1.47-6.12-.14-7.51 3.55-1.65 4.39-3.25 8.83-4.41 13.36-1.68 6.6 1.35 11.63 7.8 13.68 1.17.37 2.37.64 3.56.98 9.82 2.8 18.83 1.64 26.57-5.52 3.94-3.64 7.7-7.48 11.73-11.01 3.23-2.84 4.15-6.44 4.4-10.89z" fill="#010105"/><g fill="#fcfbfa"><path d="m377.9 391.2c-.2.3-.4.5-.6.8-.7-.6-1.4-1-2.2-1.5.2-.3.4-.5.5-.8.6.4 1.4.8 2.3 1.5zm-1.8 6.1c-.2-.2-.5-.4-.9-.6.4-.6.8-1.2 1.2-1.9s.7-1.3.9-1.9c.3.3.5.5.8.7-.7 1.3-1.4 2.6-2 3.7zm2.2-9c-.3.3-.5.5-.6.8-.6-.6-1.3-1.1-2-1.5.3-.3.5-.5.6-.7.6.5 1.3.9 2 1.4zm.3.2v-.9h2 4.5c-.3 1.3-.6 2.5-1 3.6s-.9 2.1-1.4 3c.4.5 1 1 1.6 1.4s1.2.8 1.9 1.1c-.3.2-.5.4-.8.8-.4-.3-1-.7-1.6-1.2s-1.2-1.1-1.6-1.6c-.5.6-1.1 1.1-1.7 1.6s-1.4.9-2.1 1.4c-.1-.3-.3-.5-.7-.8.6-.2 1.2-.5 1.9-1s1.4-1.1 2-1.8c-.5-.8-.9-1.6-1.2-2.5s-.6-2-.8-3.2c-.4.1-.7.1-1 .1zm2.5 2.7c.3 1 .7 1.7 1 2.2.3-.5.6-1.1 1-2s.6-1.9.9-3h-3.2-.4c.1.9.3 1.8.7 2.8z"/><path d="m396.5 388.5v1.5 3.6h1.5v.9c-.4 0-1 0-1.7 0h-7.9c-.5 0-.9 0-1.2 0v-.9h1.3v-3.5c0-.7 0-1.2 0-1.6h2.4c0-.8 0-1.4 0-1.7h1c0 .3-.1.8-.1 1.7h1.5c0-.8 0-1.4 0-1.7h1c0 .3-.1.9-.1 1.7zm-8.2 9.2c-.2-.3-.5-.5-.8-.8.8-.3 1.4-.6 1.9-.9s1-.7 1.4-1.1c.3.3.6.5.9.8-1.6 1-2.8 1.6-3.4 2zm2.6-6.8v-1.6h-1.5v1.6zm0 2.7v-1.9h-1.5v1.9zm2.4-2.7v-1.6h-1.5v1.6zm0 2.7v-1.9h-1.5v1.9zm.2 2 .7-.8c.4.2.9.5 1.6.8s1.3.7 1.8 1c-.3.3-.5.5-.8.8-.4-.3-1.5-1-3.3-1.8zm2-4.7v-1.6h-1.4v1.6zm0 2.7v-1.9h-1.4v1.9z"/></g></svg>