<svg enable-background="new 0 0 400 400" viewBox="0 0 400 400" xmlns="http://www.w3.org/2000/svg"><g fill="#fbfafa"><path d="m37.59 393.81c-.92.31-1.52.05-2-.78-.7-1.2-1.52-2.34-2.47-3.78v4.59c-.55.03-.95.05-1.41.07-.03-.37-.06-.64-.06-.91 0-1.91 0-3.81 0-5.7 1.13-.41 1.77-.03 2.29.91.62 1.11 1.38 2.14 2.31 3.19v-4.2h1.35v6.61z"/><path d="m12.94 393.88v-6.75c1.9.19 3.93-.54 5.37 1.29.8 1.01.78 2.88.03 3.97-1.37 1.97-3.4 1.51-5.4 1.49m1.45-1.22c2.04.12 2.92-.58 2.89-2.21-.03-1.51-.98-2.19-2.89-2z"/><path d="m11.81 393.87h-5.49c.68-2.18 2.47-3.48 3.51-5.45h-3.08v-1.21h5.29c-.71 2.13-2.44 3.48-3.47 5.51.86 0 1.63.04 2.39-.01.79-.05 1.14.21.85 1.16"/><path d="m39.33 393.86v-6.61h3.7v1.07h-2.22v1.52c.68.04 1.34.09 2.07.13v1.07c-.72.05-1.38.09-2.1.14v1.48h2.4v1.19h-3.85z"/><path d="m27.71 388.56c-1.15-.3-2.46-.61-3.1.64-.37.73-.41 1.93-.06 2.67.63 1.35 1.99.93 3.17.68.35.94-.01 1.32-.93 1.46-1.62.25-3.05-.27-3.76-1.48-.73-1.24-.6-3.03.31-4.17.88-1.11 2.71-1.7 4-1.16.32.13.44.74.65 1.12-.1.08-.19.16-.28.24"/><path d="m49.15 387.24v1.07c-.59.02-1.17.05-1.87.08v5.44h-1.48v-5.44h-1.85c-.05-.4-.08-.73-.13-1.15z"/><path d="m20.06 387.21h1.33v6.62h-1.33z"/><path d="m30.68 393.25c-.49.38-.8.79-1.05.76-.32-.05-.6-.45-.9-.7.26-.24.51-.64.8-.67.29-.04.62.3 1.15.61"/></g><path d="m68.59 365.09c6.63-8.37 13.79-16.96 20.46-25.92 9.34-12.55 14.51-27.15 19.38-41.81 4.22-12.72 8.35-25.48 12.13-38.35 4.1-13.96 4.01-28.27 2.49-42.61-1.37-12.97 1.18-25.29 9.06-35.56 4.28-5.59 10.58-9.92 16.64-13.79 11.63-7.43 24.92-10.18 38.47-11.76 13.69-1.6 27.39-2.27 41.18-1.5 9.43.53 18.76-.66 27.75-3.83 7.75-2.73 12.91-11.14 10.58-18.93-.88-2.95-4.04-5.53-6.7-7.58-7.37-5.72-15.84-5.92-24.62-4.17-8.88 1.76-17.77 3.61-26.73 4.77-4.81.62-9.81-.07-14.71-.25-12.29-.46-24.6-.64-36.86-1.55-10.99-.82-21.74-3.31-31.33-9.02-11.34-6.76-17.31-17.71-22.07-29.54-3.59-8.93-3.13-18.45-4.47-27.7-.69-4.75-1.01-9.55-.87-14.8 1.34 1.46 3.07 2.72 3.95 4.42 3.59 6.93 7.39 13.8 10.23 21.04 4.35 11.06 9.61 21.37 18.27 29.74 5.9 5.7 12.53 9.08 20.94 9.85 20.24 1.83 40.44 1.81 60.67.32 13.7-1.01 27.39-3.58 41.15-1.56 5.34.79 10.72 2.31 15.68 4.45 6.08 2.62 9.95 7.71 10.81 14.4 1.35 10.57.75 21.03-3.66 30.93-3.47 7.76-10 11.79-17.92 13.86-12.02 3.15-24.3 3.58-36.63 3.48-15.43-.12-30.89-.79-46.2 1.96-11.01 1.98-20.9 5.86-27.31 15.78-3.46 5.35-4.57 11.36-4.81 17.58-1.26 32.71-7.04 64.66-16.73 95.88-4.84 15.6-14.6 28.21-25.39 40.24-9.28 10.34-20.9 16.56-32.83 21.53z" fill="#010105"/><path d="m158.35 263.97c12.13 1.35 23.23 2.75 34.36 3.78 7.43.69 14.97 1.58 22.37 1.06 10.3-.72 15.44-7.74 14.84-18.14-.2-3.4-.94-6.19-4.08-8.16-2.25-1.42-4.34-3.23-6.15-5.18-7.63-8.23-17.71-10.42-28.18-11.43-5.89-.57-11.83-.53-17.75-.74s-11.61-1.28-16.38-5.05c-1.77-1.4-3.14-3.29-5.24-5.54 14.18-1.23 27.4-2.33 40.62-3.55 7.51-.69 14.71.61 21.74 3.09 15.53 5.47 26.35 16.46 34.98 29.99.78 1.22 1.52 2.47 2.63 4.28 5.23-5.04 10.45-9.73 15.25-14.8 3.37-3.56 2.31-8.17 1.72-12.5-.42-3.09-1.67-5.49-4.29-7.55-6.58-5.17-13.58-9.44-21.61-11.88-8.9-2.71-16.89-7.05-24.05-12.97-.48-.4-.93-.84-1.39-1.26.06-.31.12-.62.19-.93 7.51.49 15.16.28 22.51 1.65 8.72 1.63 17.57 3.74 25.69 7.21 13.82 5.91 19.7 15.57 18.87 33.33-.72 15.42-8.05 26.89-21.6 34.44-1.1.61-2.11 2.29-2.25 3.58-1.27 11.54 2.75 21.87 8.15 31.64 7.07 12.82 14.62 25.39 22.01 38.04.67 1.14 1.63 2.12 2.55 3.09 11.11 11.67 22.23 23.32 34.09 35.74-1.67-.54-2.42-.71-3.11-1.02-7.88-3.47-15.77-6.91-23.6-10.47-1.37-.62-2.69-1.61-3.69-2.74-12.94-14.56-25.82-29.17-38.68-43.8-1.17-1.33-2.2-2.83-3.08-4.37-5.15-9.03-10.35-18.04-15.28-27.19-1.36-2.52-2.71-3.14-5.45-2.47-10.71 2.63-21.58 3.71-32.62 3.04-17.54-1.05-31.29-9.52-44.09-22.22z" fill="#010105"/><path d="m198.7 98.61c-15.34 0-30.11-2.71-43.61-10.18-13.81-7.64-20.97-22.8-15.53-38.75 3.04-8.91 10.17-13.15 17.78-16.51 10.27-4.52 21.36-5.66 32.51-4.8 16.93 1.3 33.88 2.52 50.73 4.59 12.17 1.49 18.38 9.15 19.04 21.36.46 8.49-1.21 16.69-3.58 24.76-.33 1.14-1.47 2.19-2.48 2.96-13.53 10.29-29.14 14.77-45.82 16.11-3 .26-6.02.32-9.04.46zm-5.66-18.11c15.2-.52 29.94-2.72 43.98-8.54 1.44-.6 2.94-2.02 3.56-3.43 1.24-2.84 2.19-5.89 2.71-8.94 1.31-7.62-2.31-12.75-10-13.79-11.63-1.57-23.38-2.34-34.94-4.24-12.1-1.99-22.93.55-33.53 6.3-5.06 2.74-6.81 6.14-6.52 11.7.53 10.36 4.41 15.77 14.59 17.91 6.62 1.4 13.42 2.05 20.15 3.03z" fill="#010105"/></svg>