<svg enable-background="new 0 0 400 400" viewBox="0 0 400 400" xmlns="http://www.w3.org/2000/svg"><path d="m374.8 390.4.4-.4c.7.5 1.3 1 1.8 1.4l-.5.5c-.5-.6-1.1-1.1-1.7-1.5zm1 7.3-.6-.3c.5-1.4 1.1-2.8 1.5-4.3.2.1.4.2.6.3-.5 1.3-1 2.8-1.5 4.3zm-.4-10.3.4-.4c.4.3 1 .8 1.7 1.4l-.5.5c-.4-.5-1-1-1.6-1.5zm2.5.3h1.7v-1h.6v1h3.5v-1h.6v1h1.8v.5h-1.8v1.4h-2v1h3.2v2h-3.2v.9h3.3v.5h-3.4c0 .3-.1.6-.1.9h4v.5h-3.7c.7.9 1.9 1.5 3.8 1.7-.1.2-.2.4-.3.6-2.1-.4-3.5-1.1-4-2.1-.4 1-1.8 1.7-4 2.2-.1-.2-.2-.4-.3-.6 2.1-.4 3.4-1 3.8-1.8h-3.4v-.5h3.6c.1-.3.1-.6.2-.9h-3.3v-.5h3.4c0-.3 0-.6 0-.9h-3.2v-2h3.3v-1h-2.1v-1.4h-1.7v-.5zm1.1 3.5v1h2.7c0-.3 0-.4 0-.4 0-.1 0-.2 0-.2 0-.1 0-.2 0-.3h-2.7zm1.2-3v.9h3.5v-.9zm4.7 3h-2.6v.6.4h2.6z" fill="#fbfcfa"/><path d="m393.6 386.7h.6v1.5h2.7v6.1h1.1v.6h-11v-.6h1.1v-6.1h2.7v-1.5h.6v1.5h2.1v-1.5zm-2.7 8.8.4.6c-1.2.6-2.5 1.3-3.8 1.9-.1-.2-.2-.4-.3-.6 1.2-.6 2.5-1.2 3.7-1.9zm-2.2-6.7v2.4h2.1v-2.4zm0 3v2.5h2.1v-2.5zm2.8-3v2.4h2.1v-2.4zm0 3v2.5h2.1v-2.5zm6 6.1c-1.4-.7-2.7-1.3-3.9-1.8l.3-.6c1.5.6 2.7 1.2 3.9 1.7zm-1.2-9.1h-2.1v2.4h2.1zm-2.1 3v2.5h2.1v-2.5z" fill="#fbfcfa"/><g fill="#010101"><path d="m203 329.6c.13.29.02.09-.05-.12-1.66-4.7-4.43-8.49-8.52-11.47-1.26-.92-1.69-3.03-2.42-4.64-1.43-3.13-2.57-6.44-4.29-9.4-1.59-2.74-3.98-3.39-7.44-2.64-7.15 1.57-12.84 5.61-18.64 9.57-3 2.05-5.94 3.95-9.84 3.55-.89-.09-1.84.48-3 .81.89 1.51 1.62 2.73 2.45 4.14-.82.64-1.51 1.39-2.36 1.8-4.62 2.24-4.25 6.41-3.96 10.43.06.89 1.15 1.81 1.94 2.51 4.02 3.53 8.11 6.99 12.18 10.49-2.01 3.22-3.41-.02-5.31-.24-.52 1.61-1.04 3.25-1.83 5.69-1.71-1.2-3.36-2.01-4.55-3.26-1.93-2.03-3.66-3.84-6.69-4.58-5.1-1.25-7.52-5.47-6.84-10.66.38-2.87-.3-5.02-3.13-6.27-3.54-1.55-5.4-4.04-5.55-8.19-.08-2.13-2.04-4.14-2.82-6.32-1.07-2.99-1.8-6.09-2.72-9.13-.33-1.1-.49-2.71-1.26-3.14-2.31-1.28-2.34-2.82-2.11-5.23.2-2.1-.67-4.54-1.73-6.46-1.2-2.19-1.57-4.08-.34-6.25 1.49-2.62 1.57-5.11-.05-7.86-.63-1.07-.18-2.84-.03-4.27.1-.99.53-1.94.86-3.08-6.22.4-6.99-.18-7.42-6.21-.22-3.15-.23-6.23-2.61-8.72-.39-.41-.42-1.23-.51-1.88-.5-3.82-1.1-7.63-1.43-11.47-.49-5.67-.66-11.37-1.21-17.03-.3-3.06-.67-6.23-1.77-9.05-1.54-3.94-2.42-7.82-2.2-12.04.19-3.8.3-7.63 0-11.41-1.49-18.71 1.8-36.6 8.33-54.11 2.44-6.54 3.71-13.53 5.56-20.29.25-.9.62-1.98 1.31-2.5 2.3-1.75 4.77-3.28 7.65-5.21-1.31 6.98-2.47 13.42-3.76 19.84-.21 1.05-1.15 1.93-1.46 2.98-.27.94-.46 2.12-.12 2.97 2.13 5.4.65 10.61-.87 15.74-.31 1.05-1.88 1.74-2.38 2.17.64 3.2 1.3 6.08 1.76 8.99.13.82-.02 2.12-.56 2.53-2.95 2.26-1.93 5.37-2 8.22-.1 4.03-.01 8.06-.03 12.09-.01 4.32-.35 8.56 2.66 12.4 1.84 2.35 1.78 5.4.29 8.29-.59 1.14-.97 2.57-.89 3.84.17 2.75 2.47 3.66 4.6 1.95 4.97-4 9.92-8.03 14.85-12.08 2.42-1.99 4.65-4.64 8.53-1.08-2.3-7.81 5.36-7.58 7.72-11.68 1.13.95 1.96 1.65 3.25 2.74.07-1.62.31-2.8.14-3.92-.54-3.6 1.5-4.78 4.54-5.18 8.45-1.12 14.5 4.75 12.82 12.42-.37 1.7-5.85 3.66-6.8 2.29-.5-.73.03-2.17.11-3.47-4.39.8-8.57 1.19-12.58 5.01-5.83 5.55-13.09 9.64-19.82 14.22-4.14 2.81-8.21 5.8-13.77 5.25-2.55-.25-3.27 1.26-2.7 3.92 1.15 5.35 2.13 10.76 2.72 16.19.77 7.13.99 14.3-2.42 21.2 2.06 1.35 3.99 2.61 5.89 3.85-2.08 6.96-1.93 7.67 2.17 9.76.39-1.12.77-2.21 1.17-3.35.48-.04.93-.17 1.35-.1 4.18.72 7.13-.81 9.62-4.3.9-1.26 3.35-1.71 5.17-1.95 1.48-.2 3.07.71 4.6.67.92-.03 2.04-.76 2.62-1.52.27-.35-.3-1.77-.87-2.28-2.91-2.6-2.73-3.9.71-5.98 5.07-3.06 10.12-6.15 15.01-9.48 3.11-2.11 4.94-5.08 4.39-9.16-.22-1.65-.06-3.36.05-5.03.2-3.17.11-6.04-2.48-8.59-1.23-1.21-1.3-3.58-1.99-5.73 2.93-.39 5.23-.87 7.54-.92.82-.02 2.05.82 2.41 1.59 1.19 2.52 2.01 5.2 3.09 7.77.36.84.92 1.89 1.66 2.22 2.3 1.04 9.23-1.93 10.67-4.06.69-1.02 2.02-2.21 3.1-2.25 4.07-.12 7.2-1.65 9.89-4.69 2.06-2.33 4.53-4.3 7.04-6.64 1.13 1.41 2.13 2.67 3.4 4.26 2.53-2.11 5.03-4.11 7.43-6.23.53-.47 1.01-1.34.99-2.02-.14-6.4 5.19-9.59 8.26-14.07.41-.6 1.81-.83 2.7-.74 3.48.35 6.28-.88 8.95-3 1.41-1.11 3.22-1.72 5.02-2.65 1.28 3.63 1.01 6.06-2.05 8.24-4.92 3.52-9.02 7.8-12.32 13.07-2.06 3.3-5.79 5.4-10.53 4.57-.16.79-.47 1.61-.45 2.42.06 2.31-1.05 3.23-3.25 3.83-1.5.41-2.74 1.84-4.05 2.88-1.1.87-2 2.13-3.23 2.68-3.55 1.58-6.22 4.02-8.89 6.85-2.91 3.09-6.52 5.71-10.23 7.81-4.86 2.75-7.25 6.16-6.51 11.94.3 2.33-.92 4.84-1.41 7.09 2.27 4.56 5.02 9.16 6.9 14.1 2.1 5.5-.84 10.4-3.46 15.06 3.79 1.16 5.86.01 6.35-3.7.35-2.69 1.84-4.41 4.49-5.18 1.06-.31 2-1.05 3.06-1.34 3.89-1.08 6.3-3.5 7.25-7.44.41-1.72 1.14-2.99 3.42-2.84.84.05 1.89-1.16 2.64-1.98 1.18-1.29 1.89-3.41 3.3-4.02 5.46-2.36 8.43-6.73 10.68-11.84 1.03-2.35 2.3-4.33 4.54-4.02 4.52-8.84 10.5-15.65 18.67-20.82-.27-.61-.61-1.36-1.03-2.31 3.39-1.53 6.63-2.99 10.59-4.77-.42 2.64-.17 5.08-1.18 6.78-3.41 5.72-6.12 11.98-11.69 16.2-1.36 1.03-2.78 2.53-3.24 4.09-1.57 5.31-5.21 9.07-8.95 12.73-1.05 1.02-3.07 1.06-5.52 1.81-1.06 7.35-7.11 12.24-13.16 17.02-5.76 4.55-9.79 11.74-18.19 11.56 1.1 10.22 6.89 17.98 9.75 26.8 1.36 4.17 2.28 8.1 5.48 11.37 2.41 2.45 4.81 4.47 8.16 5.52 4.27 1.34 5 3.77 2.69 7.42-.47.75-.85 1.57-1.19 2.39-.98 2.41-.47 3.57 2.15 5.05 3.77 2.13 6.83 5.54 10.16 8.44 3.15 2.75 6.26 5.55 9.62 8.53 2.35-3.69 4.3-6.55 6.05-9.53 2.97-5.04 6.3-9.74 10.78-13.59 1.2-1.03 1.94-2.68 2.7-4.14 3.17-6.11 4.76-13.05 9.7-18.25.59-.62.35-2.05.47-3.11.3-2.58.2-5.28.97-7.71 1.52-4.78 3.79-9.33 5.24-14.14.94-3.11.96-6.49 1.4-9.75.16-1.21.44-2.41.48-3.62.03-.85-.25-1.71-.51-3.27-1.35 1.62-1.89 2.9-2.8 3.27-9.04 3.66-12.04 12.93-18.08 19.36-6.21 6.6-11.91 13.67-17.9 20.48-2.73 3.11-5.38 6.36-8.51 9.03-1.69 1.45-4.24 2.11-6.52 2.58-.85.18-2.75-1.05-2.89-1.85-.27-1.56-.21-3.79.72-4.85 5.76-6.52 11.9-12.7 17.68-19.21 1.78-2 3.63-2.97 6.19-3.35 1.09-.16 2.29-1.3 2.94-2.31.83-1.28 1.31-2.86 1.65-4.37 1.07-4.8 3.57-8.2 8.43-9.8 1.03-.34 1.91-1.74 2.43-2.85.8-1.71 1.32-3.56 1.78-5.4.71-2.83 2.05-5.18 4.69-6.57 2.23-1.17 2.77-3.14 3.27-5.44.57-2.65 1.76-5.18 2.7-7.75.9-2.46 1.74-4.96 2.79-7.36.49-1.12 1.34-2.12 2.17-3.04.99-1.11 2.14-2.08 4-3.85-12.79-2.69-7.17-11.84-8.75-18.23-.89-1.29-2.13-2.46-2.6-3.88-1.79-5.3-6.35-9.46-11.7-9.49-1.66-.01-3.33 1.79-5 2.77-1.35-5.23-1.35-5.23 3.21-7.83 4.1-2.34 4.51-4.17 2.1-10.16-1.28-3.2-2.67-6.36-4.04-9.53-1.18-2.73-6.03-3.25-9.08-.95-.77.58-1.44 1.31-2.55 2.34-.27-3.01-.58-5.52-.68-8.03-.03-.8.27-1.79.76-2.41 5.05-6.38 5.49-13.75 4.39-21.33-.2-1.41-1.59-2.81-2.74-3.87-1.37-1.26-2.72-2.07-1.63-4.39.59-1.25.1-3 .1-4.72 2.24.36 4.65 1.99 6.19-1-.28-.21-.45-.45-.58-.42-5.44 1.11-8.61-1.63-10.47-6.33-1.42-3.57-3.62-3.99-7-2.62-5.4 2.19-10.87 4.27-14.51 9.05-3.17 4.17-7.16 6.56-12.27 7.21-1.79.23-2.75.88-2.84 2.93-.05 1.02-.97 2.2-1.81 2.94-3.78 3.32-7.68 6.52-11.54 9.76-.51.43-1.08.82-1.54 1.3-3.61 3.73-6.94 7.77-10.86 11.13-3.84 3.3-8.25 5.92-13.02 9.26-2.06-2.21-4.75-4.92-7.18-7.83-.59-.71-.68-2.17-.45-3.16.34-1.5 1.15-2.89 1.77-4.33 1.42-3.29 3.12-6.22 1.4-10.33-1.16-2.76-.65-6.47-.07-9.61.31-1.69 2.35-3.07 3.65-4.64-1.22-4.26-2.11-8.53 1.71-12.33.56-.56-.08-2.23.01-3.37.16-1.98.12-4.08.8-5.9.69-1.84 1.96-3.55 3.31-5.01 1.21-1.3 2.87-2.2 4.35-3.24 1.31-.92 2.64-1.81 4.17-2.85-5.41-4.42-5.47-4.63-2.19-10.11 1.82-3.03 3.09-6.48 6.64-8.17.56-.27.79-1.46.95-2.27 1.67-8.51 5.8-15.89 10.77-22.79 1.93-2.68 4.58-5.18 8.35-2.28.09.07.2.09.31.12 5.15 1.49 5.64 2.88 1.27 6.49-4.71 3.89-6.15 9.1-7.51 14.52-.56 2.25-1.03 4.64-5.01 2.84 2.7 7.62-1.8 12.8-4.8 17.93-1.89 3.23-3.69 6.62-5.7 9.66-6.89 10.44-9.05 21.77-9.11 33.85-.02 3.24 0 6.48 0 10.64 1.61-.43 3.23-.48 4.37-1.25 4.09-2.73 8.17-5.53 11.97-8.64 3.34-2.73 5.83-6 10.65-7.29 3.32-.89 5.83-5.31 8.38-8.41 1.99-2.43 3.96-3.14 6.84-1.77 1.49.71 3.2.93 4.91 1.4.11-.34.36-.69.27-.89-1.65-3.62-.55-6.05 3.06-7.56 8.86-3.71 11.96-12.2 16.15-19.73.48-.86.27-2.46-.21-3.43-2.36-4.81-2.07-9.32.64-13.93 1.34-2.28 2.12-4.89 3.25-7.57-1.13-.36-2.02-.64-3.27-1.04.46-1.46.84-2.82 1.33-4.15.76-2.06 1.12-3.98-.32-6.02-.54-.77-.53-2.13-.38-3.17.62-4.27 1.4-8.52 2.15-12.97 2.19 2.03 4.07 3.72 5.88 5.49.33.33.6 1.09.46 1.49-3.11 8.71-.36 17.79-1.69 26.65-.79 5.27-.5 10.69-.66 16.05-.02.78-.14 1.74.24 2.31 4.94 7.45 4.07 16.34 6.24 24.46 1.46 5.48 3.56 10.79 5.19 16.23 1.05 3.51 1.74 7.13 2.66 10.68.33 1.26.54 2.79 1.37 3.65 4.45 4.59 6.31 10.03 6.4 16.35.02 1.53 1.41 3.05 2.18 4.57.68 1.34 1.67 2.6 2 4.01.68 2.93.74 6.03 1.58 8.9.51 1.77 1.98 3.27 3.04 4.88.66.99 2.06 2.11 1.89 2.9-.32 1.51-1.49 2.87-2.39 4.22-.91 1.37-2.25 2.55-2.78 4.04-.24.67 1.05 1.88 1.91 3.26 1.14-1.79 1.67-2.93 2.48-3.81.52-.56 1.52-1.12 2.17-.99.63.12 1.57 1.13 1.56 1.74-.07 4.63 1.42 8.75 3.68 12.7.4.7.51 1.81.26 2.58-1.17 3.58-.14 6.82 1.34 10 1.7 3.66 2.7 7.33.14 11.6 5.03.78 3.7 4.43 4.07 7.5.4 3.3 1.38 6.53 1.94 9.82 1.24 7.25.38 14.21-2.95 20.86-.6 1.2-.45 2.79-.55 4.21-.19 2.88-.23 5.78-.52 8.65-.1.94-.57 2.36-1.23 2.62-3.72 1.45-3.26 4.7-3.34 7.54-.08 2.83-.87 5.18-2.7 7.32-1.38 1.61-2.35 3.58-3.78 5.13-2.92 3.14-3.33 6.71-3.13 10.84.12 2.41-.83 5.39-2.35 7.27-8.1 9.99-16.52 19.73-24.88 29.52-.6.7-1.58 1.65-2.3 1.59-6.55-.54-11.75 3.24-17.44 5.33-2.33.85-4.18 1.51-5.63-1.26-1.06 1.01-1.96 1.84-2.83 2.7-1.48 1.46-2.89 2.04-5.05.92-1.29-.67-3.18-.47-4.75-.26-2.34.32-4.62 1.27-6.96 1.45-2.54.19-5.17.04-7.69-.4-1.71-.3-3.26-1.44-4.93-2.07-1.48-.56-3.01-1.11-4.57-1.33-1.73-.25-3.69.33-5.26-.24-8.91-3.23-17.19-7.52-23.05-15.25.29-3.27 6.51-4.23 2.86-8.88 4.26 4.01 8.44 3.32 13.07 1.13 7.03-3.33 13.56-7.92 21.56-8.93.54-.07 1.17-.61 1.46-1.11 1.52-2.54 2.88-5.11 4.58-8.22zm-81.24-60.21c4 3.08 5.6 6.47 5.47 10.61-.27 8.91 3.03 16.81 7.05 24.46 2.13 4.06 4.66 7.9 7.16 12.09 2.7-2.47 4.55-4.68 6.88-6.13 2.4-1.49 5.29-2.19 7.93-3.33.68-.29 1.41-.82 1.76-1.44 2.17-3.87 5.5-5.12 9.76-4.77 3.6.3 5.02-1.84 5.78-5.11.48-2.06 1.51-4.18 2.86-5.8 2.52-3.03 3.24-5.93 1.68-9.48-3.67-8.35-7.74-16.54-7.99-26-.09-3.47-2.67-4.02-5.65-2.46-2.28 1.19-5.62 2.28-7.66 1.42-1.86-.78-3.49-1.83-4.86-.51-.83.79-.65 2.95-.46 4.43.5 3.92-1.61 6.92-5.48 6.61-3.97-.32-7.64-.82-8.28 4.65-5.64-3.49-10.16.27-15.95.76zm74.33 72.84c.76 5.43-.29 7.49-5.12 10.1-1.47.8-3.37 1.17-4.41 2.32-1.27 1.42-2.18 3.4-2.54 5.28-.11.56 2.05 1.74 3.31 2.35 1.8.87 3.69 1.6 5.6 2.17 1.28.38 2.89.91 3.98.47 6.04-2.43 12.25-2.09 18.51-1.64 2.23.16 4.81.9 6.62.06 2.32-1.08 5.88-3.85 5.61-5.25-.56-2.87-1.98-6.05-5.73-7.58-3.23-1.32-5.84-4.18-8.66-6.43-2.07-1.65-4.03-3.42-5.86-4.98-.8 2.07-1.33 3.45-2.01 5.22-3.13-2.2-5.76-4.12-9.3-2.09zm-86.08-90.97c4.1-2.8 4.21-5.39.57-7.74-3.14 2.27-2.11 4.86-.57 7.74zm73.23-23.82c-.04-.36-.08-.72-.11-1.08-1.94-.23-3.91-.7-5.82-.55-.68.05-1.24 1.62-1.86 2.5.82.51 1.8 1.59 2.44 1.42 1.85-.5 3.57-1.5 5.35-2.29zm101.56 47.57c1.14-1.84 2-2.95 2.51-4.2.14-.35-.87-1.65-1.09-1.59-1.22.35-2.36.98-3.67 1.58.73 1.37 1.19 2.22 2.25 4.21zm-176.07-41.79c.39.18.78.36 1.18.54.45-.92 1.41-1.96 1.23-2.74-.23-1-1.38-1.79-2.13-2.67-.26.22-.51.44-.77.65.16 1.41.32 2.82.49 4.22z"/><path d="m200.97 54.67c.26-1.43.11-2.63.62-3.06 3.53-2.96 4.27-7.22 5.54-11.25.88-2.79 1.69-5.22 5.45-5.81 1.6-.25 2.91-3.06 4.12-4.86.79-1.18 1.15-2.63 1.97-4.59.81 1.3 1.88 2.23 1.9 3.19.11 4.3.56 8.68-3.65 11.87-1.27.96-2.05 3.21-2.18 4.93-.47 6.23-1.03 7.06-7.25 8.32-1.95.38-3.91.75-6.52 1.26z"/><path d="m159.05 194.99c6.91-.19 11.03 2.82 11.27 7.86.03.74-.05 2.09-.33 2.16-1.73.43-3.69 1.13-5.28.69-2.1-.58-5.29-.23-5.62-3.58-.22-2.29-.04-4.63-.04-7.13z"/></g></svg>