<svg enable-background="new 0 0 400 400" viewBox="0 0 400 400" xmlns="http://www.w3.org/2000/svg"><path d="m192.2 121.43c9.56.9 18.21 1.09 26.61 2.66 12.73 2.37 25.23 5.94 37.92 8.54 7.84 1.6 14.74 4.72 21.2 9.38 8.24 5.95 17.18 10.96 25.14 17.23 14.61 11.51 21.55 27.2 23.19 45.57 1.55 17.43.5 34.64-3.35 51.69-.31 1.39-1 2.69-1.53 4.02-.08.2-.26.37-.36.57-10.07 20.76-26.7 36.24-42.38 52.47-.82.84-1.99 1.42-3.1 1.89-5.34 2.29-10.82 4.29-16.06 6.79-11.48 5.47-22.8 11.3-34.28 16.76-18.39 8.75-37.96 13.11-58.13 15.05-19.56 1.88-39.15 1.93-58.54-1.43-8.2-1.42-16.13-4.46-24.18-6.77-.32-.09-.62-.25-.95-.34-7.78-2.08-15.29-4.54-21.76-9.79-3.68-2.98-8.42-4.62-12.46-7.21-8.84-5.67-16.8-12.32-21.67-21.92-6.84-13.47-6.03-27.19-1.12-41.02 5.51-15.51 11.87-30.66 19.91-45.02 3.1-5.54 7.03-10.63 10.62-15.9 14.08-20.6 27.73-41.51 42.41-61.67 11.19-15.36 23.54-29.88 35.67-44.53 4.33-5.23 4.57-10.68 2.9-16.63-.53-1.91-1.98-3.55-2.52-5.46-.87-3.07-1.88-6.25-1.86-9.38.03-5.52 2.34-7.4 7.84-6.82 3.88.4 7.81.96 11.52 2.09 7.59 2.3 15.09 4.92 22.53 7.66 1.75.64 3.26 2.16 4.63 3.52 2.06 2.04 3.75 4.46 5.87 6.42 4.42 4.08 9.48 5.31 15.5 3.76 33.99-8.74 67.94-17.61 102.06-25.79 13.67-3.28 27.72-4.93 41.61-7.3 5.84-1 11.69-1.96 17.55-2.86 3.96-.6 6.98 1.36 9.26 4.23 2.16 2.72.98 5.83-.19 8.61-.41.97-1.72 1.66-2.75 2.26-15.94 9.33-33.2 15.47-50.84 20.57-23.52 6.8-47.25 12.84-71.42 16.94-1.39.24-2.77.9-4 1.63-9.75 5.84-20.41 8.71-31.54 10.6-5.05.86-9.86 3.33-14.68 5.3-1.33.58-2.34 1.97-4.27 3.63zm-80.96 72.26c15.41 2.66 30.27 5.26 45.14 7.8 10.38 1.77 20.81 3.44 31.32 1.43 2.59-.49 5.52-1.6 7.32-3.4 8.96-8.94 15.84-19.29 19.59-31.53.36-1.17.79-2.36 1.41-3.4 2.37-3.96 1.13-7.52-1.14-10.94-3.71-5.6-9.37-8.58-15.6-9.57-11.78-1.88-23.69-2.97-35.55-4.31-1.05-.12-2.28.09-3.23.55-8.57 4.07-16.4 9.21-22.4 16.68-7.72 9.61-15.4 19.21-25.55 26.47-.68.48-1.19 1.61-1.24 2.47-.17 2.66-.07 5.34-.07 7.75zm-49.04 56.74c-4.86 9.2-9.62 18.18-12.12 28.07-1.93 7.65 4.32 19.9 11.59 23.09 8.79 3.86 17.6 7.69 26.58 11.09 4.65 1.76 9.65 2.67 14.54 3.74 2.7.59 4.52-.52 5.69-3.3 2.51-5.96 5.42-11.76 8.11-17.65 1.94-4.24 3.79-8.51 5.76-12.96-1.38-.65-2.46-1.2-3.57-1.69-11.73-5.23-23.37-10.65-35.22-15.59-7.54-3.14-14.5-6.85-19.68-13.34-.39-.48-.95-.83-1.68-1.46zm60.13 65.51c9.78 2.88 18.95 3.88 28.25 3.96 21.08.19 42-1.19 62.46-6.69 7.52-2.03 14.79-4.75 21.75-10.28-5.13-2.14-9.52-4.35-14.15-5.83-15.27-4.88-31.06-7.29-46.87-9.67-8.04-1.21-15.56-.55-22.62 3.59-10.94 6.43-19.28 15.82-28.82 24.92zm125.89-161.53c.07.2.09.45.23.58 5.4 5.03 10.84 10.02 16.2 15.1.93.88 1.95 2.02 2.23 3.2 2.56 10.79.43 17.92-8.72 23.27-6.75 3.94-13.22 8.37-19.74 12.69-.97.64-2.34 2.18-2.12 2.8.53 1.48 1.64 3.34 2.97 3.84 16.29 6.17 32.65 12.16 49.04 18.06.91.33 2.52-.15 3.31-.83 4.49-3.87 6.68-8.66 5.71-14.76-.49-3.08-.47-6.24-.75-9.36-2.53-28.02-21.26-49.14-48.36-54.59zm-155.2 53.84c-4.82 6.02-9.26 12.07-14.25 17.62-3.2 3.56-2.99 7.78-3.67 11.88-.09.56.95 1.7 1.67 1.92 3.63 1.11 7.28 2.19 11 2.94 16.6 3.34 33.43 4.85 50.32 5.13 6.31.1 12.65-1.16 18.94-2.03 1.2-.17 2.92-1.24 3.25-2.26 1.16-3.67 1.82-7.49 2.71-11.41-8.36-2.15-16.38-4.15-24.36-6.26-15.69-4.16-32.1-6.41-45.61-17.53zm96.74 47.4c.59.39.85.62 1.15.76 20.35 9.75 40.72 19.46 61.03 29.28 1.81.88 2.82.32 4.1-.82 5.76-5.14 11.43-10.4 17.45-15.21 3.71-2.96 4.15-7.02 5.53-11.02-5.42-1.86-10.53-3.46-15.53-5.36-8.45-3.2-17.19-4.94-26.18-5.19-10.77-.31-21.39-1.43-31.81-4.3-.9-.25-2.3-.07-2.97.5-4.25 3.61-8.36 7.4-12.77 11.36z" fill="#010104"/><g fill="#fcfbfa"><path d="m385.2 377.6.6-.7c.6.4 1.3.9 1.9 1.5l-.6.7c-.8-.5-1.4-1-1.9-1.5zm.3 7.1c.6-1.4 1.1-2.9 1.5-4.5.3.1.6.3.9.4-.5 1.4-1 2.9-1.5 4.4zm.2-10.1.6-.6c.7.5 1.3 1.1 1.9 1.6l-.7.7c-.6-.6-1.2-1.2-1.8-1.7zm8.4-.8h.8v.9h1.8v.7h-1.8v1.8h-.8v-.3h-1.2v.9h3.3v2.6h-.8v-.4h-2.5c0 .3 0 .6-.1.8h3.4v.7h-3.5c0 .3-.1.6-.1.8h4v.7h-3.5c.7.9 1.9 1.3 3.6 1.5-.2.2-.4.5-.6.9-1.9-.3-3.2-1.1-3.8-2.3-.5 1.1-1.8 2-3.9 2.4-.2-.3-.4-.5-.6-.8 1.9-.4 3.1-.9 3.6-1.7h-3.2v-.7h3.5c.1-.2.1-.5.2-.8h-3.3v-.7h3.4c0-.2 0-.5 0-.8h-2.4v.3h-.8v-2.6h3.3v-.9h-1.2v.3h-.8v-1.8h-1.8v-.7h1.8v-.9h.8v.9h3.2zm-4.4 5.5h2.4c0-.3 0-.6 0-.9h-2.4zm1.2-3.1h3.2v-.8h-3.2zm4.4 2.2h-2.4v.9h2.5v-.9z"/><path d="m389.2 385.8h.9v1.5h1.9v-1.5h.9v1.5h2.7v6h1.1v.9h-11.3v-.9h1.1v-6h2.7zm.2 8.7.5.8c-1.2.6-2.5 1.3-4 1.9-.2-.3-.3-.6-.6-.8 1.6-.6 3-1.3 4.1-1.9zm-2-4.3h1.9v-2.1h-1.9zm0 3.1h1.9v-2.2h-1.9zm2.7-3.1h1.9v-2.1h-1.9zm0 3.1h1.9v-2.2h-1.9zm2.4 1.3c1.4.6 2.7 1.2 4.1 1.8l-.5.9c-1.5-.7-2.8-1.4-4.1-1.9zm2.2-6.5h-1.9v2.1h1.9zm-1.9 5.2h1.9v-2.2h-1.9z"/></g></svg>