<svg enable-background="new 0 0 400 400" viewBox="0 0 400 400" xmlns="http://www.w3.org/2000/svg"><path d="m36.83 156.95c7.21-1.29 13.31 1.06 19.17 4.28 2.94 1.61 5.7 3.56 8.68 5.08 9.78 4.98 13.37 13.56 12.27 23.67-1.04 9.6-3.07 19.21-5.75 28.5-3.13 10.81-7.29 21.33-11.3 31.86-2.56 6.72.84 12.2 8.05 11.76 18.31-1.11 36.6-2.45 54.9-3.69 5.78-.39 11.57-.75 17.12-1.12 0-5.55.07-10.87-.02-16.18-.07-4.14-.54-8.28-.48-12.41.04-2.57-1.15-3.57-3.33-4.18-6-1.68-12.14-1.61-17.91.19-14.09 4.39-22.31-2.36-28.16-15.65 1-.41 1.98-.86 2.99-1.23 13.36-4.78 26.69-9.66 40.11-14.25 3.27-1.12 4.8-3.12 5.77-6.2 2.52-8 .47-15.74-1.1-23.51-.97-4.78-2.87-8.9-6.51-12.51-2.28-2.26-3.28-5.88-4.67-8.97-.93-2.06.47-3.51 2.21-3.63 2.9-.19 6.2-.53 8.67.62 4.83 2.24 9.28 5.34 13.73 8.33 5.94 3.99 11.67 8.31 17.63 12.27 2.22 1.48 3.52 3.29 4.06 5.81.91 4.26 1.75 8.54 2.83 12.76.52 2.03 1.36 4.01 2.34 5.86 1.03 1.94 2.78 2.6 5.08 2.36 10.34-1.07 20.69-2.6 31.06-2.85 17.46-.41 34.64 2.01 50.67 9.37 5.05 2.32 9.37 6.25 14.41 9.72 2.87-1.21 4.75-3.88 5.64-7.85 2.16-9.69 5.18-19.2 7.08-28.94 2.29-11.72-.96-22.63-7.99-31.96-4.46-5.92-11.59-8.56-18.68-10.55-10.51-2.95-21.15-1.95-31.64-.28-15.33 2.45-30.51 5.81-45.84 8.25-4.5.72-9.3-.29-13.95-.66-4.01-.32-8.02-.79-12.01-1.34-7.78-1.07-12.19-5.32-13.48-13.32 7.33-2.01 14.68-4.22 22.12-6.03 21.97-5.34 44.11-9.96 66.66-11.74 14.73-1.16 29.1 1.79 43.09 6.77 22.2 7.9 35.16 23.61 40.49 46.21 1.56 6.63 3.59 13.15 5.19 19.78.39 1.62.34 3.56-.17 5.15-3.63 11.28-7.4 22.51-11.19 33.73-.57 1.67-1.36 3.31-2.3 4.81-8.61 13.74-16.58 27.97-26.17 41-6.89 9.37-15.54 17.59-24.16 25.5-7.98 7.31-16.97 13.52-25.52 20.21-17.44 13.65-34.74 27.49-52.38 40.89-12.85 9.76-26.37 18.47-42.05 23.26-11.31 3.46-22.87 5.23-34.64 5.71-1.42.06-2.9-.27-4.3-.6-7.78-1.86-15.68-2.1-23.64-2.09-8.68.01-17.04-1.71-25.19-4.87-6.21-2.41-10.76-6.42-14.7-11.63-12.77-16.91-17.87-35.9-15.37-56.83 2.44-20.54 5.71-40.98 7.8-61.55 1.32-12.99 1.47-26.12 1.57-39.2.15-12.65.71-25.23 3.21-37.89zm76.09 186.05c12.09.3 23.04-2.89 32.5-10.53.92-.74 1.66-2.39 1.59-3.56-.65-11.74-1.57-23.46-2.22-35.19-.18-3.3-1.83-5.15-4.79-5.43-2.72-.26-5.52.18-8.27.49-4.29.49-8.69 2.09-12.83 1.57-19.3-2.42-38.54-5.38-57.79-8.25-1.8-.27-2.67.08-3.22 1.8-2.27 7.01-4.97 13.9-6.81 21.02-1.04 4.01-1.19 8.42-.89 12.58.41 5.76 3.22 10.86 7.37 14.68 2.17 1.99 5.66 2.83 8.71 3.54 15.37 3.54 30.86 6.42 46.65 7.28zm127.8-84.83c.9-1.04 1.64-1.85 2.34-2.71 9.09-11.2 18.17-22.41 27.25-33.62 2.41-2.97 2.25-5.37-.86-7.58-1.6-1.14-3.52-2.18-5.42-2.47-6.16-.96-12.37-1.9-18.58-2.21-9.89-.49-19.83-1.73-29.68.9-4.41 1.18-8.96 1.9-13.46 2.69-8.61 1.51-17.24 3-24.28 8.75-1.01.83-1.91 2.5-1.89 3.77.13 7.83.67 15.64.77 23.47.03 2.67 1.1 4.17 3.46 4.38 5.52.48 11.11 1.24 16.59.8 7.21-.58 14.31-2.45 21.52-3.29 8.22-.96 16.15-.21 22.24 7.12zm-72.05 46.95c.9 3.15 1.84 6.66 2.91 10.15.76 2.46 2.5 3.44 4.89 2.36 4.34-1.95 9.47-3.19 12.74-6.32 9.49-9.09 18.3-18.92 27.14-28.66.84-.93.34-3.36-.07-4.95-.13-.5-2.05-.85-3.09-.75-6.67.65-13.33 1.39-19.97 2.22-7.03.88-13.88 2.41-19.73 6.72-.9.66-1.82 1.78-2.02 2.82-1.02 5.26-1.82 10.55-2.8 16.41z" fill="#010104"/><path d="m47.07 119.74c6.78-.87 13-1.46 19.14-2.5 16.18-2.72 30.91-9.54 45.56-16.54 20.67-9.87 40.98-20.6 62.04-29.54 35.73-15.16 72.23-28.4 110.37-36.24 15.19-3.12 30.66-5.08 46.1-6.64 10.52-1.07 20.98 1.01 30.91 4.88 8.97 3.49 13.67 13.18 11.22 22.58-.91 3.49-7.94 7.8-12.13 6.57-3.94-1.17-8.14-2.91-11.1-5.62-5.51-5.04-11.45-7.39-18.68-5.83-25.45 5.5-50.89 11.08-76.31 16.72-14.19 3.15-28.34 6.46-42.49 9.76-1.16.27-2.43.69-3.29 1.45-7.55 6.63-16.26 11.08-25.91 13.59-19.93 5.19-37.68 15.12-55.44 25.07-2.44 1.37-4.84 2.83-7.38 3.98-5.42 2.45-9.89 5.96-13.4 10.79-5.61 7.72-13.63 11.04-22.78 10.52-8.43-.49-16.78-2.25-25.15-3.56-.88-.14-2.05-.75-2.43-1.48-3-5.85-5.84-11.78-8.85-17.96z" fill="#010104"/><g fill="#fcfbfa"><path d="m385.2 377.6.6-.7c.6.4 1.3.9 1.9 1.5l-.6.7c-.8-.5-1.4-1-1.9-1.5zm.3 7.1c.6-1.4 1.1-2.9 1.5-4.5.3.1.6.3.9.4-.5 1.4-1 2.9-1.5 4.4zm.2-10.1.6-.6c.7.5 1.3 1.1 1.9 1.6l-.7.7c-.6-.6-1.2-1.2-1.8-1.7zm8.4-.8h.8v.9h1.8v.7h-1.8v1.8h-.8v-.3h-1.2v.9h3.3v2.6h-.8v-.4h-2.5c0 .3 0 .6-.1.8h3.4v.7h-3.5c0 .3-.1.6-.1.8h4v.7h-3.5c.7.9 1.9 1.3 3.6 1.5-.2.2-.4.5-.6.9-1.9-.3-3.2-1.1-3.8-2.3-.5 1.1-1.8 2-3.9 2.4-.2-.3-.4-.5-.6-.8 1.9-.4 3.1-.9 3.6-1.7h-3.2v-.7h3.5c.1-.2.1-.5.2-.8h-3.3v-.7h3.4c0-.2 0-.5 0-.8h-2.4v.3h-.8v-2.6h3.3v-.9h-1.2v.3h-.8v-1.8h-1.8v-.7h1.8v-.9h.8v.9h3.2zm-4.4 5.5h2.4c0-.3 0-.6 0-.9h-2.4zm1.2-3.1h3.2v-.8h-3.2zm4.4 2.2h-2.4v.9h2.5v-.9z"/><path d="m389.2 385.8h.9v1.5h1.9v-1.5h.9v1.5h2.7v6h1.1v.9h-11.3v-.9h1.1v-6h2.7zm.2 8.7.5.8c-1.2.6-2.5 1.3-4 1.9-.2-.3-.3-.6-.6-.8 1.6-.6 3-1.3 4.1-1.9zm-2-4.3h1.9v-2.1h-1.9zm0 3.1h1.9v-2.2h-1.9zm2.7-3.1h1.9v-2.1h-1.9zm0 3.1h1.9v-2.2h-1.9zm2.4 1.3c1.4.6 2.7 1.2 4.1 1.8l-.5.9c-1.5-.7-2.8-1.4-4.1-1.9zm2.2-6.5h-1.9v2.1h1.9zm-1.9 5.2h1.9v-2.2h-1.9z"/></g></svg>