<svg enable-background="new 0 0 400 400" viewBox="0 0 400 400" xmlns="http://www.w3.org/2000/svg"><path d="m374.8 390.4.4-.4c.7.5 1.3 1 1.8 1.4l-.5.5c-.5-.6-1.1-1.1-1.7-1.5zm1 7.3-.6-.3c.5-1.4 1.1-2.8 1.5-4.3.2.1.4.2.6.3-.5 1.3-1 2.8-1.5 4.3zm-.4-10.3.4-.4c.4.3 1 .8 1.7 1.4l-.5.5c-.4-.5-1-1-1.6-1.5zm2.5.3h1.7v-1h.6v1h3.5v-1h.6v1h1.8v.5h-1.8v1.4h-2v1h3.2v2h-3.2v.9h3.3v.5h-3.4c0 .3-.1.6-.1.9h4v.5h-3.7c.7.9 1.9 1.5 3.8 1.7-.1.2-.2.4-.3.6-2.1-.4-3.5-1.1-4-2.1-.4 1-1.8 1.7-4 2.2-.1-.2-.2-.4-.3-.6 2.1-.4 3.4-1 3.8-1.8h-3.4v-.5h3.6c.1-.3.1-.6.2-.9h-3.3v-.5h3.4c0-.3 0-.6 0-.9h-3.2v-2h3.3v-1h-2.1v-1.4h-1.7v-.5zm1.1 3.5v1h2.7c0-.3 0-.4 0-.4 0-.1 0-.2 0-.2 0-.1 0-.2 0-.3h-2.7zm1.2-3v.9h3.5v-.9zm4.7 3h-2.6v.6.4h2.6z" fill="#fbfcfa"/><path d="m393.6 386.7h.6v1.5h2.7v6.1h1.1v.6h-11v-.6h1.1v-6.1h2.7v-1.5h.6v1.5h2.1v-1.5zm-2.7 8.8.4.6c-1.2.6-2.5 1.3-3.8 1.9-.1-.2-.2-.4-.3-.6 1.2-.6 2.5-1.2 3.7-1.9zm-2.2-6.7v2.4h2.1v-2.4zm0 3v2.5h2.1v-2.5zm2.8-3v2.4h2.1v-2.4zm0 3v2.5h2.1v-2.5zm6 6.1c-1.4-.7-2.7-1.3-3.9-1.8l.3-.6c1.5.6 2.7 1.2 3.9 1.7zm-1.2-9.1h-2.1v2.4h2.1zm-2.1 3v2.5h2.1v-2.5z" fill="#fbfcfa"/><path d="m136.14 42.53c3.36-1.2 5.06-.1 6.27 3.02 2.36 6.08 2.41 12.17-.08 18-3.76 8.8-7.83 17.49-12.21 26.01-3.92 7.62-6.53 15.41-6.13 24.06.28 6.11 3.94 8.38 9.34 5.75 3.15-1.54 6.18-2.05 9.56-.24 1.62.86 3.83.96 5.74.86 3.57-.19 7.12-.73 10.66-1.23 5.38-.76 9.01-5.86 7.52-11.13-1.45-5.11-.83-9.79.81-14.74 1.89-5.7 2.34-11.94 4.62-17.44 3.11-7.48 6.82-14.86 11.33-21.57 2.93-4.35 4.78-8.68 5.59-13.68.19-1.17.44-2.62 1.21-3.37 3.27-3.18 5.16-6.87 4.76-11.91 2.74 1.35 5.23 2.21 7.25 3.7 1.16.85 2.22 2.72 2.19 4.1-.06 2.96-.6 5.98-1.41 8.85-2.56 9.03-5.32 18-8.05 26.98-1.74 5.74-3.41 11.43-6.41 16.81-4.48 8.04-4.1 17.28-4.62 26.2-.1 1.69 5.28 4.99 7.44 4.4 8.83-2.41 17.81-.76 26.65-1.44 4.21-.32 8.42-1.35 12.78-1.01.7.05 1.6-1.01 2.23-1.71 1.62-1.81 3.14-3.72 5.05-6.02-.29-.45-.71-1.52-1.48-2.18-2.53-2.16-2.47-4.63-.98-7.21 1.23-2.14 1.75-3.97.41-6.46-.87-1.61-.83-3.95-.56-5.88.68-4.86 1.72-9.68 2.64-14.51.08-.42.29-.85.55-1.19 3.93-5.12 5.32-11.23 7.05-17.26 1.01-3.53 2.73-6.85 4.61-10.14 2.85 3.69 2.92 7.69 3.16 11.63.78 12.97-2.11 25.34-6.33 37.46-.82 2.35-.65 4.36.28 6.69 4.06 10.16 8 20.37 11.7 30.66.97 2.68.84 5.73 1.43 8.57.22 1.07.81 2.49 1.66 2.94 4.78 2.5 7.15 7 8.3 11.63 2.85 11.51 5.79 22.88 10.47 33.87 2.35 5.5 2.4 12 3.38 18.06 1.08 6.69 2.22 13.25.98 20.24-.84 4.78.77 9.96 1.12 14.98 1.31 18.89-1.74 37.23-7.04 55.29-.81 2.76-1.59 5.66-1.6 8.5-.02 5.51-.96 10.7-3.9 15.37-1.27 2.02-3.02 3.73-4.43 5.67-1.36 1.86-2.48 3.9-3.85 5.75-1.76 2.36-3.25 5.22-5.58 6.8-6.12 4.14-10.13 9.68-13.75 16.02-6.71 11.75-16.9 19.47-30.11 22.9-1.93.5-3.96.58-6.02.87-2.22-2.74-2.08-5.04 1.34-6.88-2.97-2.81-5.77-5.22-8.25-7.92-1.68-1.83-2.85-4.11-4.36-6.12-.71-.95-1.57-1.87-2.55-2.53-6.22-4.19-12.26-8.71-18.78-12.35-13.26-7.4-22.12-19.36-32.24-30.03-.3-.32-.57-.7-.76-1.1-4.23-8.98-8.47-17.94-12.66-26.94-4.5-9.67-5.43-20.02-5.4-30.48.03-9.18-.2-18.42.86-27.5.59-5.06.62-9.88.03-14.83-.33-2.78.59-4.72 3.72-5.23 1.52-.25 2.95-.98 4.62-2.22-1.7-.54-3.37-1.29-5.11-1.56-3.56-.56-4.28-1.81-2.96-4.99.44-1.07.4-2.61-.01-3.72-3.79-10.27-7.72-20.49-11.59-30.73-.43-1.13-1.23-2.49-.94-3.47 1.09-3.7-.59-6.68-2.4-9.41-4.21-6.33-3.97-13.6-4.96-20.62-.25-1.77-.44-3.55-.6-5.34-.33-3.5-.99-6.89 1.17-10.3 1.07-1.7.92-4.29.99-6.49.08-2.79-.28-5.59-.26-8.38.02-2.75 1.21-4.93 2.91-7.22 1.76-2.38 2.24-5.67 3.5-8.47.78-1.76 2-3.31 2.93-5.01.73-1.32 1.83-2.68 1.9-4.07.34-7.07 4.43-12.26 8.42-17.5.75-.98 2.11-1.71 3.33-2.07 5.55-1.67 6.3-3.17 3.91-8.84zm8.84 170.6c-.47 3.57-1.16 6.07-1.06 8.53.23 6.18.4 12.12-.69 18.45-1.59 9.24-.37 18.96-.31 28.47.01.76.32 1.53.53 2.28.78 2.8 2.37 4.59 5.54 4.14 2.64-.38 5.31-.7 7.86-1.42 2.78-.78 5.23-.58 7.7.93.81.49 2.22.91 2.92.54 8.54-4.52 17.74-4.97 27.1-4.77 5.38.11 10.31-1.54 14.86-4.46 1.67-1.07 2.19-2.16 1.86-4.1-2.52-14.65-4.94-29.31-7.42-43.97-.5-2.95-1.91-5.87-5.06-5.86-11.09.02-22.29-2.48-33.27 1.35-6.44 2.25-12.99 4.44-20.56-.11zm42.53-78.18c1.74 4.8 2.84 9.39 4.98 13.44 6.31 11.94 13.18 23.59 19.53 35.52 2.98 5.61 6.61 9.73 13.46 9.58 2.47-.06 5.22.38 7.35-.54 3.54-1.53 6.96-2.23 10.73-1.69 2.77.39 5.55.81 8.34.95 3.44.16 6.92.13 9.73-2.36-1.8-8.19-2.41-16.54-7.01-23.76-.82-1.28-1.01-2.95-1.54-4.42-3.51-9.76-7.09-19.49-10.51-29.28-1-2.87-2.95-3.77-5.65-3.55-1.54.13-3.08.49-4.59.89-3.09.82-6.09 1.33-9.04-.57-.66-.43-1.73-.54-2.53-.39-10.65 1.93-21.29 3.94-33.25 6.18zm7.52 58.17c-1.98-3.92-3.34-8.2-5.95-11.49-6.32-7.98-11.16-16.67-14.81-26.12-.76-1.97-2.1-3.72-2.79-5.71-1.19-3.43-2.46-6.9-2.99-10.46-.7-4.75-3.62-7.58-8.2-6.4-4.72 1.22-9.27.83-13.93 0-5.39-.97-10.83-1.66-16.19-2.72-2.98-.59-4.2 1.19-4.86 3.34-.51 1.65-.67 3.66-.22 5.29 1.6 5.77 2.94 11.72 5.46 17.1 5.43 11.6 12.39 22.54 14.14 35.61.43 3.21 1.16 6.38 1.84 9.54.18.82.61 2.18 1.07 2.24 2.81.4 6.04 1.46 8.43.52 5.61-2.21 11.22-3.25 17.2-3.64 7.5-.48 14.73-2.36 21.8-7.1zm27.12 16.13c.23 1.1.33 1.52.4 1.94 1.45 8.56 3.13 17.09 4.25 25.7.54 4.17.03 8.48.03 12.73-.01 5.35 1.87 10.05 5.1 14.23.64.83 1.59 1.6 2.55 1.99 2.88 1.16 5.8 2.3 8.8 3.06 1.57.4 3.41.28 5-.12 2.73-.67 5.33-1.84 8.03-2.62 2.02-.58 4.14-.83 6.2-1.3 2.07-.47 2.84-1.73 2.59-3.91-.31-2.76-.44-5.57-.4-8.35.13-8.58.61-17.15.5-25.72-.09-6.9-1.01-13.79-1.27-20.7-.23-6.15-1.25-7.9-7.34-10.42-5.27 6.2-12.76 7.8-20.4 9.34-4.75.97-9.33 2.73-14.04 4.15zm-34.62 131.64c3.71-4.99 7.83-5.02 12.52-1.61 1.23.89 3.18 1.01 4.81 1.06 2.32.07 3.8-.83 4.24-3.6.62-3.95 1.94-7.79 2.88-11.69.65-2.71 1.69-5.47 1.6-8.17-.26-8.04-.97-16.07-1.57-24.09-.08-1.1-.35-2.23-.77-3.24-1.39-3.33-4.63-4.87-8.11-3.9-8.71 2.42-17.52 3.31-26.54 2.21-5.43-.66-10.89-1.29-16.34-1.4-2.97-.06-5.96 1.01-8.88 1.56.91 6.16 2.98 10.83 6.89 14.69 4.3 4.24 8.36 8.72 12.67 12.95 5.78 5.69 11.69 11.25 17.65 16.97-1.48 1.17-2.85 2.25-4.43 3.5 1.13 1.59 2.15 3.02 3.38 4.76zm39.56 6.95c4.24-3.08 8.13-5.66 11.71-8.63 1.49-1.23 2.89-3.16 3.28-4.99.83-3.87 2.39-7.05 5.33-9.75 2.71-2.49 5.18-5.25 7.61-8.03 1.16-1.32 2.35-2.82 2.88-4.45 1.77-5.44.97-11.58 4.48-16.57.1-.15.02-.44.01-.66-.21-4.8-.35-9.61-.69-14.4-.05-.69-.96-1.76-1.62-1.89-1.73-.34-3.66-.71-5.3-.27-8.3 2.22-16.53 4.65-24.77 7.09-2.08.62-3.36 1.95-3.37 4.38-.01 2.9-.46 5.8-.45 8.69.01 4.73-.08 9.39-2.83 13.55-.38.57-.38 1.5-.3 2.24 1.28 11 2.62 21.98 4.03 33.69zm34.63-173.35c.29 2.15.53 3.97.8 5.98.75-.08 1.28-.13 1.8-.2.64-.09 1.28-.2 1.86-.29.58-4.05.13-4.65-4.46-5.49z" fill="#010101"/></svg>