<svg enable-background="new 0 0 400 400" viewBox="0 0 400 400" xmlns="http://www.w3.org/2000/svg"><path d="m374.8 390.4.4-.4c.7.5 1.3 1 1.8 1.4l-.5.5c-.5-.6-1.1-1.1-1.7-1.5zm1 7.3-.6-.3c.5-1.4 1.1-2.8 1.5-4.3.2.1.4.2.6.3-.5 1.3-1 2.8-1.5 4.3zm-.4-10.3.4-.4c.4.3 1 .8 1.7 1.4l-.5.5c-.4-.5-1-1-1.6-1.5zm2.5.3h1.7v-1h.6v1h3.5v-1h.6v1h1.8v.5h-1.8v1.4h-2v1h3.2v2h-3.2v.9h3.3v.5h-3.4c0 .3-.1.6-.1.9h4v.5h-3.7c.7.9 1.9 1.5 3.8 1.7-.1.2-.2.4-.3.6-2.1-.4-3.5-1.1-4-2.1-.4 1-1.8 1.7-4 2.2-.1-.2-.2-.4-.3-.6 2.1-.4 3.4-1 3.8-1.8h-3.4v-.5h3.6c.1-.3.1-.6.2-.9h-3.3v-.5h3.4c0-.3 0-.6 0-.9h-3.2v-2h3.3v-1h-2.1v-1.4h-1.7v-.5zm1.1 3.5v1h2.7c0-.3 0-.4 0-.4 0-.1 0-.2 0-.2 0-.1 0-.2 0-.3h-2.7zm1.2-3v.9h3.5v-.9zm4.7 3h-2.6v.6.4h2.6z" fill="#fbfcfa"/><path d="m393.6 386.7h.6v1.5h2.7v6.1h1.1v.6h-11v-.6h1.1v-6.1h2.7v-1.5h.6v1.5h2.1v-1.5zm-2.7 8.8.4.6c-1.2.6-2.5 1.3-3.8 1.9-.1-.2-.2-.4-.3-.6 1.2-.6 2.5-1.2 3.7-1.9zm-2.2-6.7v2.4h2.1v-2.4zm0 3v2.5h2.1v-2.5zm2.8-3v2.4h2.1v-2.4zm0 3v2.5h2.1v-2.5zm6 6.1c-1.4-.7-2.7-1.3-3.9-1.8l.3-.6c1.5.6 2.7 1.2 3.9 1.7zm-1.2-9.1h-2.1v2.4h2.1zm-2.1 3v2.5h2.1v-2.5z" fill="#fbfcfa"/><path d="m340.57 250.28c-.46 8.38-.88 16.76-1.42 25.13-.11 1.64-.63 3.27-1.09 4.87-.41 1.39-1.1 2.7-1.5 4.09-4.2 14.71-10.86 27.88-21.91 38.88-6.71 6.68-11.94 14.82-18.46 21.72-11.71 12.4-26.75 19.34-42.86 23.89-35.46 10.02-71.39 11.63-107.59 4.72-13.02-2.49-25.37-7.14-36.85-13.89-1.04-.61-1.97-1.46-2.84-2.32-13.55-13.52-27.12-27.03-40.56-40.66-1.29-1.3-2.25-3.34-2.52-5.16-1.77-11.83-3.48-23.68-4.9-35.56-3.07-25.68 1.4-50.14 12.61-73.37 3.2-6.64 6.99-12.99 10.37-19.55 4.42-8.58 11.95-14.42 18.43-21.16 8.3-8.63 16.98-16.9 25.23-25.59 6.91-7.28 14.66-13.29 23.15-18.64 46.39-29.17 92.74-58.42 138.82-88.08 6.53-4.2 11.82-3.27 17.69-.3 8.28 4.19 12.58 11.47 13.7 20.29 1.68 13.2 2.46 26.51 3.98 39.73 1.47 12.76 3.33 25.48 5.16 38.2 5.68 39.42 11.82 78.79 12.97 118.71.04 1.34 0 2.69 0 4.03.15.01.27.01.39.02zm-108.55-26c5.33-1 10.01-1.58 14.53-2.77 20.22-5.35 38.16-15.65 55.88-26.35.75-.45 1.22-2.21 1.04-3.22-1.94-10.78-4.09-21.52-6.09-32.28-4.75-25.59-9.44-51.2-14.19-76.79-1.04-5.59-3.31-10.5-8.59-13.3-1.08-.57-2.91-.79-3.93-.27-13.39 6.91-27.13 13.29-39.93 21.18-17.97 11.08-35.18 23.4-52.86 34.97-2.92 1.91-3.76 3.91-2.53 6.81 3.01 7.08 5.45 14.54 9.46 21.02 14.35 23.19 29.24 46.05 44.02 68.97.66 1.05 2.3 1.49 3.19 2.03zm-134.21 55.95c4.16-.37 7.63-.52 11.06-1.01 15.51-2.2 30.09-7.48 44.4-13.61 16.67-7.13 32.93-15.01 48.11-25.02 2.18-1.44 2.75-2.92 1.87-5.18-1.41-3.64-2.59-7.4-4.32-10.88-8.28-16.73-19.23-31.72-30.7-46.34-6.08-7.75-12.5-15.22-20.58-21.05-1.97-1.42-3.26-1.37-5.09.4-12.25 11.8-24.63 23.46-36.93 35.2-.86.82-1.72 1.83-2.12 2.93-5.65 15.53-11.46 31.01-16.74 46.67-3.95 11.7-4.04 23.48 1.32 34.98.83 1.77 1.8 2.54 3.75 2.52 2.22-.04 4.44.27 5.97.39zm107.47 64.18c20.36.15 36.18-4.69 51.08-13.11 2.62-1.48 3.28-2.84 2.41-5.74-4.78-15.91-12.22-30.48-21.84-43.93-4.91-6.87-10.95-12.66-18.3-17.03-2.47-1.46-4.16-1.38-6.5.38-6.16 4.63-12.16 9.74-18.99 13.14-10.87 5.42-22.26 9.84-33.6 14.26-12.51 4.88-24.12 11.13-34.31 19.94-5.84 5.05-5.75 11.2.42 15.99 3.98 3.09 7.95 6.18 12.02 9.13 1.01.73 2.36 1.28 3.59 1.39 9.46.86 18.94 1.55 28.41 2.37 12.92 1.13 25.83 2.33 35.61 3.21zm43.2-92.78c.99 11.93 5.87 21.87 13.11 30.86 6.25 7.75 12.44 15.55 18.53 23.43 3.89 5.04 3.81 5.17 9.28 2.13.96-.54 1.87-1.57 2.31-2.59 1.23-2.87 2.15-5.87 3.29-8.78 3.99-10.2 8.27-20.29 11.96-30.59 3.73-10.43 3.35-20.43-4.9-29.01-1.34-1.39-2.49-1.73-4.36-1.1-7.41 2.49-14.88 4.82-22.34 7.18-8.91 2.81-17.84 5.62-26.88 8.47z" fill="#010106"/></svg>