<svg enable-background="new 0 0 400 400" viewBox="0 0 400 400" xmlns="http://www.w3.org/2000/svg"><path d="m299.28 121.68c-12.75 1.58-25.5 3.16-38.26 4.73-18.31 2.26-36.63 4.49-54.94 6.81-1.02.13-2.1.75-2.9 1.43-5.32 4.47-7.44 10.23-6.36 17.07.89 5.63 2.18 11.2 2.93 16.85.35 2.66 1.68 3.76 3.93 4.7 18.36 7.64 36.59 15.6 55.06 22.96 6.43 2.56 11.17 6.55 15.33 11.83 17.59 22.37 24.25 47.61 20.78 75.8-2.09 16.95-7.21 32.82-14.59 48.19-5.04 10.49-12.55 18.32-21.96 24.69-19.46 13.17-41.06 19.36-64.43 19.92-19.76.48-38.34-3.97-55.86-13.04-.69-.36-1.44-.69-1.98-1.22-15.99-15.63-29.42-33.03-37.66-54.1-7.04-18.01-7.63-36.43-3.6-55.06 1.72-7.95 4.4-15.69 6.75-23.49.37-1.24 1.13-2.44 1.96-3.44 9.14-11.03 18.31-22.04 27.56-32.97.94-1.12 2.42-1.94 3.82-2.49 10.4-4.08 20.86-8.01 31.23-12.16 1.19-.48 2.6-1.88 2.84-3.07 2.61-12.82 5.48-25.61 7.31-38.55 1.59-11.28 1.98-22.73 2.82-34.11 1.86-25.22 3.66-50.43 6.06-75.76 1.11 5.36 2.25 10.71 3.32 16.07 3.85 19.18 7.71 38.35 11.47 57.55.4 2.04 1.37 2.62 3.28 2.96 30.7 5.48 61.39 11.05 92.08 16.6 1.31.24 2.61.51 3.92.77.02.17.05.35.09.53zm-164.61 213.26c.73-1.12 1.06-1.87 1.6-2.43 8.93-9.42 18.02-18.69 26.76-28.28 3.57-3.92 6.2-8.67 9.58-12.79 5.18-6.31 4.06-12.75.99-19.38-.52-1.11-.99-2.25-1.56-3.34-8.86-16.6-20.28-31.31-33.36-44.77-.68-.7-1.49-1.26-2.32-1.96-3.85 3.16-7.6 6.17-11.23 9.31-.77.67-1.26 1.82-1.59 2.84-5.88 18.55-8.58 37.47-6.23 56.91 1.88 15.73 7.95 29.89 17.36 43.89zm118.3-110.8c-.84 1-1.57 1.81-2.25 2.67-5.4 6.84-10.72 13.76-16.22 20.53-5.65 6.95-9.51 14.84-12.49 23.18-3.33 9.34-2.83 17.94 3.99 26.01 7.06 8.36 13.38 17.34 20.08 26.02 4.84 6.26 4.89 6.31 12.49 4.38 1.29-.33 2.82-1.42 3.42-2.58 10.51-20.31 15.66-41.85 13.06-64.71-1.71-14.99-9.93-26.45-22.08-35.5zm-108.53-12.44c16.06 14.09 31.61 27.75 47.22 41.34.6.52 1.9.78 2.65.51 5.05-1.75 10.3-3.18 15-5.65 12.65-6.65 22.61-16.7 32.3-26.98.59-.63 1-1.76.95-2.63-.51-9.2-5.83-16.19-14.78-18.61-13.74-3.71-27.68-5.01-41.84-2.49-5.72 1.02-11.83.86-17.16 2.85-8.22 3.09-15.91 7.54-24.34 11.66zm102.45 128.77c-.92-4.98-3.4-8.93-6.74-12.29-10.72-10.81-23.38-18.6-37.61-23.95-4.91-1.85-9.44-2.26-13.62 1.62-1.05.98-2.38 1.67-3.59 2.46-14.87 9.76-25.88 23.67-38.48 35.87-.13.12-.11.4-.38 1.58 2.87 1.72 5.79 4.56 9.18 5.32 12.8 2.87 25.85 3.79 38.99 3.89 18.72.12 36.07-4.39 52.25-14.5z" fill="#010101"/><g fill="#fbfafa"><path d="m6.4 11.7c-1-.8-1.9-1.6-2.9-2.3l.6-.7c.9.7 1.9 1.4 2.9 2.2zm-2.1 8.3c.7-2.1 1.4-4.2 2-6.4.2.1.6.3 1 .4-.7 2.3-1.3 4.4-1.9 6.4zm3-12.8c-1.1-.9-2.1-1.7-2.9-2.4l.6-.7c1 .8 2 1.5 3 2.4zm1.4-1.3v-.9h10.2v.9c-.9 4.2-2.3 7.3-4.1 9.4 1.3 1.4 3.2 2.7 5.7 4-.2.2-.4.5-.7.9-2.5-1.4-4.4-2.7-5.7-4.2-1.4 1.5-3.5 3-6.1 4.4 0 0 0 0-.1-.1-.3-.4-.5-.7-.7-.8 2.7-1.3 4.7-2.8 6.2-4.2-1.8-2.2-3-5.3-3.7-9.4zm9.2 0h-7.1c.6 3.8 1.7 6.7 3.4 8.7 1.7-2 2.9-4.8 3.7-8.7z"/><path d="m31.6 3.6h.9v2.3h4.1v9.1h1.7v.9h-16.6v-.9h1.7v-9.1h4.1v-2.3h.9v2.3h3.1v-2.3zm-4 13.3.6.8c-1.9.9-3.8 1.9-5.8 2.8-.2-.3-.3-.6-.5-.9 2-.9 3.9-1.8 5.7-2.7zm-3.2-10.1v3.7h3.1v-3.7zm0 4.5v3.7h3.1v-3.7zm4.1-4.5v3.7h3.1v-3.7zm0 4.5v3.7h3.1v-3.7zm9.1 9.1c-2.1-1.1-4.1-2-5.8-2.7l.5-.8c2.2.9 4.1 1.8 5.8 2.6zm-1.9-13.6h-3.1v3.7h3.1zm-3.2 4.5v3.7h3.1v-3.7z"/></g></svg>