<svg enable-background="new 0 0 400 400" viewBox="0 0 400 400" xmlns="http://www.w3.org/2000/svg"><path d="m374.8 390.4.4-.4c.7.5 1.3 1 1.8 1.4l-.5.5c-.5-.6-1.1-1.1-1.7-1.5zm1 7.3-.6-.3c.5-1.4 1.1-2.8 1.5-4.3.2.1.4.2.6.3-.5 1.3-1 2.8-1.5 4.3zm-.4-10.3.4-.4c.4.3 1 .8 1.7 1.4l-.5.5c-.4-.5-1-1-1.6-1.5zm2.5.3h1.7v-1h.6v1h3.5v-1h.6v1h1.8v.5h-1.8v1.4h-2v1h3.2v2h-3.2v.9h3.3v.5h-3.4c0 .3-.1.6-.1.9h4v.5h-3.7c.7.9 1.9 1.5 3.8 1.7-.1.2-.2.4-.3.6-2.1-.4-3.5-1.1-4-2.1-.4 1-1.8 1.7-4 2.2-.1-.2-.2-.4-.3-.6 2.1-.4 3.4-1 3.8-1.8h-3.4v-.5h3.6c.1-.3.1-.6.2-.9h-3.3v-.5h3.4c0-.3 0-.6 0-.9h-3.2v-2h3.3v-1h-2.1v-1.4h-1.7v-.5zm1.1 3.5v1h2.7c0-.3 0-.4 0-.4 0-.1 0-.2 0-.2 0-.1 0-.2 0-.3h-2.7zm1.2-3v.9h3.5v-.9zm4.7 3h-2.6v.6.4h2.6z" fill="#fbfcfa"/><path d="m393.6 386.7h.6v1.5h2.7v6.1h1.1v.6h-11v-.6h1.1v-6.1h2.7v-1.5h.6v1.5h2.1v-1.5zm-2.7 8.8.4.6c-1.2.6-2.5 1.3-3.8 1.9-.1-.2-.2-.4-.3-.6 1.2-.6 2.5-1.2 3.7-1.9zm-2.2-6.7v2.4h2.1v-2.4zm0 3v2.5h2.1v-2.5zm2.8-3v2.4h2.1v-2.4zm0 3v2.5h2.1v-2.5zm6 6.1c-1.4-.7-2.7-1.3-3.9-1.8l.3-.6c1.5.6 2.7 1.2 3.9 1.7zm-1.2-9.1h-2.1v2.4h2.1zm-2.1 3v2.5h2.1v-2.5z" fill="#fbfcfa"/><path d="m184.81 375.95c-15.04-.02-26.67-1.31-37.97-4.9-1.13-.36-2.27-.92-3.22-1.64-8-6.09-15.66-12.71-24-18.29-22.58-15.11-34.39-37.01-40.53-62.61-4.49-18.73-3.57-37.48.19-56.25 5.5-27.46 14.45-53.69 27.24-78.61.81-1.57 1.82-3.09 2.97-4.42 18.48-21.3 36.91-42.66 55.6-63.77 3.05-3.45 7.12-6.12 11.04-8.66 25.02-16.22 51.54-29.56 79.11-40.89 7.96-3.27 15.87-6.65 23.75-10.1 3.42-1.5 6.66-.78 9.66.74 1.07.54 2.06 2.49 2.01 3.75-.18 4.74-1.23 9.28-4.63 12.94-1.75 1.88-3.56 3.75-5.03 5.86-4.21 6.05-10.42 8.25-17.26 8.89-5.57.52-10.46 1.85-12.77 7.5-.55 1.34-.65 3.34-.05 4.61 6.89 14.67 13.94 29.25 20.97 43.85.58 1.2 1.33 2.33 2.08 3.44 3.9 5.87 7.73 11.79 11.76 17.57 5.82 8.36 10.46 16.95 13.01 27.17 3.08 12.39 8.58 24.18 13.22 36.16 5.47 14.11 7.23 28.62 4.61 43.49-2.85 16.12-8.02 31.56-14.3 46.7-4.87 11.75-8.69 23.92-13.11 35.86-.7 1.9-1.81 3.84-3.24 5.26-7 6.92-14.43 13.43-21.21 20.56-5.71 6.01-12.46 10.07-20.03 13-20.3 7.91-41.31 12.31-59.87 12.79zm33.84-298.26c-1.61 1.13-2.43 1.69-3.23 2.28-17.86 13.29-35.55 26.83-53.68 39.74-5.02 3.57-6.43 7.42-5.41 12.91.02.11.01.22.03.33 3.35 18.56 10.09 35.85 19.34 52.23 1.48 2.62 3.05 3.28 5.86 1.93 15.9-7.64 32.12-14.66 47.7-22.9 9.82-5.19 18.71-12.16 28.02-18.31 1.86-1.23 2.25-2.62 1.33-4.79-7.68-18.18-16.61-35.69-28.52-51.49-3.28-4.38-7.61-7.99-11.44-11.93zm69.68 141.52c.08-.01.16-.01.24-.02-.68-7.57-1.19-15.16-2.07-22.71-1.28-10.97-4.94-21.04-11.84-29.83-1.48-1.89-2.61-2.32-4.9-.96-24.97 14.86-50.04 29.55-75 44.43-1.35.8-2.55 2.81-2.76 4.4-.74 5.42.27 10.7 2.5 15.69 6.07 13.55 15.29 24.89 25.17 35.76 1.38 1.52 2.47.83 3.79.15 20.85-10.76 41.72-21.48 62.52-32.33 1.1-.57 2.15-2.26 2.25-3.51.29-3.68.1-7.38.1-11.07zm-88.61 58.76c-6.73-14-12.74-27.08-19.31-39.89-2.41-4.7-6.01-8.81-9.29-13.03-1.51-1.94-3.37-2.16-5.82-.7-12.28 7.33-24.71 14.41-37.07 21.6-1.05.61-2.11 1.3-2.96 2.15-8.26 8.2-16.5 16.4-24.64 24.72-.7.72-1.12 2.44-.77 3.34 4.61 11.74 9.34 23.44 14.2 35.08.37.88 1.97 1.85 2.91 1.77 3.77-.32 7.58-.72 11.23-1.67 16.63-4.33 32.16-11.49 47.36-19.32 8.2-4.21 15.98-9.25 24.16-14.05zm-.69 77.81c1.34 0 2.69.03 4.03-.01 10.14-.28 19.35-3.25 27.29-9.66.75-.6 1.56-2.17 1.28-2.83-4.48-10.46-8.84-20.99-13.92-31.15-1.59-3.18-5.12-5.44-7.95-7.91-1.53-1.33-3.33-1.13-5.26-.1-15.16 8.15-30.38 16.16-45.55 24.29-2.74 1.47-6.59 2.71-7.58 5.05-.99 2.35.79 5.99 1.7 8.96.36 1.18 1.44 2.51 2.54 3.05 13.7 6.66 28.38 9.28 43.42 10.31zm-61.21-210.5c-7.41 7.89-14.52 15.46-21.62 23.04-.22.24-.37.56-.5.87-5.04 12.04-10.6 23.89-14.94 36.18-3.37 9.55-2.61 19.37 2.85 28.71 18.59-12.39 37.04-24.7 55.55-37.04-7.17-17.38-14.17-34.37-21.34-51.76zm144.77 117.56c-16.37 9.19-32.4 18.19-48.54 27.25 6.23 14 12.3 27.66 18.5 41.6 4.27-2.3 8.3-4.44 12.29-6.65.54-.3 1.02-.91 1.29-1.49 5.81-12.31 11.98-24.48 17.22-37.03 3.14-7.48 2.87-15.51-.76-23.68z" fill="#010106"/></svg>