<svg enable-background="new 0 0 400 400" viewBox="0 0 400 400" xmlns="http://www.w3.org/2000/svg"><path d="m28.21 152c9.45 1.75 15.87-3.71 23.15-6.55 2.05-.8 4.26-1.19 6.46-1.78-.15-.7-.14-1.32-.41-1.76-3.26-5.38-1.03-9.61 2.51-13.84 9.02-10.79 18.89-20.61 30.69-28.38 2.14-1.41 3.91-1.75 5.83.32.97 1.05 2.37 1.7 3.42 2.69 6.37 6.01 13.83 9.3 22.59 10.54 3.88.55 7.36 3.61 11.17 5.15 2.71 1.09 5.67 2.14 8.53 2.18 15.56.21 31.12 0 46.68.12 38.83.31 77.67.45 116.49 1.25 14.06.29 28.1 2.12 42.12 3.54 6.19.62 12.32 1.87 18.45 3.03 1.35.25 2.71 1.12 3.8 2.02 2.98 2.49 2.49 4.41-.68 6.54-12.61 8.49-26.87 11.18-41.63 12.01-15.52.88-31.06 2.11-46.58 1.96-14.96-.14-29.9-1.83-44.85-2.85-5.44-.37-10.85-1.44-16.27.41-4.66 1.59-5.51 3.19-3.27 7.71 2.39 4.84 5.34 9.2 9.78 12.57 1.9 1.44 3.53 3.74 4.36 5.99 5.76 15.48 12.63 17.42 28.98 17.56.96.01 2.27-.99 2.83-1.89 2.13-3.4 3.84-7.08 6.08-10.41 1.32-1.95 3.09-3.91 5.12-4.98 2.36-1.23 4.98-1.01 6.41 2.11.98 2.13 2.3 4.09 3.44 6.14 3.85 6.91 5.74 14.08 4.69 22.18-2.08 16.03-1.16 32.17-.98 48.28.07 6.1-.98 12.24-1.87 18.31-.24 1.65-1.45 3.47-2.74 4.62-9.77 8.65-21.85 11.73-34.26 14.13-15.9 3.08-31.75 6.42-47.62 9.62-1.3.26-2.66.34-3.99.34-14.67.02-29.35-.43-43.99.18-8.84.37-17.25-1.16-25.86-2.33-6.05-.83-12.45.55-18.64 1.31-5.07.62-9.95 1.06-14.42-2.13-.77-.55-1.89-.92-2.82-.88-14.56.6-28.25-3.92-42.17-7.09-3.16-.72-6.27-1.71-9.46-2.22-2.55-.41-4.02-1.6-4.65-4.03-.17-.64-.45-1.27-.77-1.85-6.88-12.71-9.45-26.65-11.53-40.71-.35-2.36.29-4.87.48-7.31.41-5.46 1.1-10.91 1.18-16.37.18-11.53-.11-23.06.15-34.59.09-3.81.9-7.72 2.07-11.36 1.96-6.16 5.95-11.92 2-19.5zm78.4 89.44c-.62-5.55-1.5-13.87-2.52-22.17-.45-3.62-2.62-5.52-6.28-6.36-12.67-2.91-25.57-2.49-38.41-2.83-2.74-.07-5.27 2.93-5.06 5.47.83 9.81 1.64 19.62 2.57 29.43.11 1.11.77 2.31 1.51 3.19 4.4 5.28 10.34 7.84 16.74 9.95 5.24 1.73 10.16 4.45 15.24 6.69.97.43 2.03.98 3.04.96 2.9-.07 5.8-.5 8.7-.61 2.12-.08 3.2-.77 3.28-3.11.22-5.93.66-11.85 1.19-20.61zm56.06 26.12h8.05c11.29 0 11.29.01 17.59-9.51.4-.6.89-1.5.71-2.08-2.21-7.4-1.06-14.85-.68-22.32.41-8.28-3.09-13.03-10.89-15.64-1.91-.64-3.8-1.34-5.74-1.84-.9-.23-2.08-.39-2.85-.01-4.91 2.38-10.07 2.44-15.38 2.39-3.62-.03-7.28.8-10.84 1.62-.95.22-2.19 1.72-2.3 2.74-1.51 14.25-.09 28.32 2.93 42.27.41 1.89 1.4 2.47 3.29 2.43 5.37-.12 10.74-.05 16.11-.05zm33.91-115.28c-6.62-.51-12.95-1.09-19.29-1.45-9.76-.55-19.43-2.13-29.24.86-9.52 2.9-9.84 2.37-10.57 12.42-.31 4.29-.02 8.65.39 12.94.23 2.36 1.78 3.7 4.52 4.03 6.4.77 12.75 1.99 19.15 3.03.09 1.55.17 2.81.25 4.06 1.41-4.67 4.93-4.15 8.47-3.93 5.58.35 11.17.49 16.76.7.77.03 1.96.2 2.24-.19 2.53-3.64 6.33-7.15 7-11.17 1.15-6.84.32-14 .32-21.3zm-135.18-9.13c1.1 3.96 2.36 7.55 3.03 11.24.69 3.83.94 7.75 1.11 11.64.21 4.8.21 9.61.18 14.41-.01 2.2.86 3.28 3.09 3.34 7.35.2 14.73.98 22.03.48 4.76-.33 9.42-2.38 14.05-3.9.95-.31 2.08-1.59 2.23-2.57 1.06-6.7 2.41-13.42 2.64-20.17.26-7.47-5.12-12.04-12.68-11.87-11.86.27-23.84 2.14-35.68-2.6zm171.77 99.67c.94 4.34 1.61 10.41 3.61 15.99 2.23 6.19 2.67 6.36 9.25 4.4 4.7-1.4 9.42-3.96 10.6-9.26 1.81-8.17 3.06-16.47 4.16-24.77.26-1.97-.36-4.81-1.69-6.12-4.73-4.65-11.03-4.78-17.23-4.8-.29 0-.61.26-.87.46-2.93 2.28-5.68 4.65-6.06 8.76-.43 4.55-1.04 9.08-1.77 15.34z" fill="#010000"/><g fill="#fbfcfa"><path d="m361.2 9.6.8-1c.9.7 1.9 1.4 2.9 2.3l-.9 1.1c-1-1-2-1.8-2.8-2.4zm.5 10.6c.9-2.1 1.6-4.3 2.3-6.7.4.2.8.4 1.3.6-.7 2.1-1.5 4.3-2.2 6.6zm.4-15.2.9-.9c1 .8 2 1.6 2.8 2.4l-1 1c-.9-.9-1.8-1.7-2.7-2.5zm12.5-1.2h1.2v1.4h2.7v1.1h-2.7v2.7h-1.2v-.6h-1.8v1.3h4.9v3.8h-1.2v-.5h-3.7c0 .4-.1.9-.1 1.2h5.1v1h-5.2c0 .5-.1.9-.2 1.2h6v1h-5.2c1.1 1.3 2.9 2 5.5 2.2-.4.4-.7.8-.9 1.3-2.9-.5-4.8-1.6-5.7-3.5h-.1c-.8 1.7-2.7 2.9-5.9 3.6-.2-.4-.6-.8-.9-1.1 2.8-.6 4.6-1.4 5.4-2.5h-4.8v-1h5.3c.1-.3.2-.7.2-1.2h-4.9v-1h5c0-.4 0-.8.1-1.2h-3.5v.5h-1.2v-3.8h4.9v-1.3h-1.8v.5h-1.2v-2.7h-2.7v-1h2.6v-1.4h1.2v1.4h4.7v-1.4zm-6.6 8.3h3.6c0-.4 0-.9 0-1.4h-3.6zm1.9-4.6h4.7v-1.3h-4.7zm6.6 3.2h-3.7v1.4h3.7z"/><path d="m385.3 3.8h1.3v2.2h2.8v-2.2h1.3v2.2h4.1v9.1h1.7v1.3h-16.9v-1.3h1.7v-9.1h4.1v-2.2zm.4 13.1.7 1.2c-1.8.9-3.8 1.9-6 2.9-.2-.4-.5-.8-.8-1.3 2.3-1 4.3-1.9 6.1-2.8zm-3.1-6.4h2.8v-3.2h-2.8zm0 4.6h2.8v-3.3h-2.8zm4-4.6h2.8v-3.2h-2.8zm0 4.6h2.8v-3.3h-2.8zm3.7 1.9c2.1.9 4.1 1.8 6.1 2.7l-.7 1.3c-2.2-1.1-4.2-2-6.1-2.9zm3.2-9.7h-2.8v3.2h2.8zm-2.8 7.8h2.8v-3.3h-2.8z"/></g></svg>