<svg enable-background="new 0 0 400 400" viewBox="0 0 400 400" xmlns="http://www.w3.org/2000/svg"><path d="m6.8 9.5c.6.3 1.3.7 2.1 1.1-.4.4-.7.8-.9 1.2-.7-.4-1.3-.8-1.8-1.1s-1.1-.6-1.6-.8c.2-.4.5-.8.7-1.2.4.2.8.5 1.5.8zm.9 6.9c-.3.6-.5 1.1-.7 1.7s-.4 1.1-.6 1.7c-.6-.4-1.1-.7-1.6-1 .7-1 1.2-1.8 1.5-2.4.3-.5.6-1.1.8-1.7.3-.6.5-1.2.8-1.8.3.3.8.6 1.3.8-.7 1.3-1.2 2.2-1.5 2.7zm.1-11c.4.3 1 .7 1.7 1.1-.5.2-.8.6-1.1 1.1-.5-.6-1-1-1.4-1.2s-.9-.6-1.5-.8c.2-.4.5-.7.9-1.1.5.3.9.6 1.4.9zm10.5 13.1c1 .4 2 .6 3.1.7-.4.4-.7.8-.8 1.3-.9-.2-1.9-.6-3-.9-1-.4-2-.9-2.8-1.6-.5.4-1.1.9-1.9 1.3s-1.9.9-3.3 1.2c-.1-.3-.5-.8-1.1-1.3 1 0 2.1-.3 3.2-.8 1.2-.5 1.9-1 2.3-1.7h-3.2c-.4 0-1 0-2 .1v-1.2c1 0 1.7.1 2 .1h3.3v-1h-2.3c-.2 0-.9 0-2 .1v-1.2c1.2 0 1.9.1 2 .1h2.3v-.8h-4.1c0-.7.1-1.2.1-1.6 0-.5 0-1.1-.1-1.8h4.1v-.7h-2.5c0-.6.1-1.1.1-1.6v-.6h-.5c-.4 0-1 0-1.8.1v-1.3c1.2 0 1.9.1 2.1.1h.2c0-.3 0-.8-.1-1.4h1.4c0 .6-.1 1-.1 1.4h3.4c0-.4 0-.8-.1-1.3h1.5c0 .4-.1.9-.1 1.3.7 0 1.5 0 2.5-.1v1.2c-1 0-1.8-.1-2.5-.1v.6c0 .3 0 .8.1 1.5h-2.5v.8h4.1c0 .7-.1 1.3-.1 1.8s0 1 .1 1.5h-4.1v.8h1.4c.8 0 1.8 0 2.9-.1v1.2c-1 0-1.9-.1-2.8-.1h-1.5v1h3.2c.3 0 1 0 2.1-.1v1.2c-1.1 0-1.8-.1-2.1-.1h-3.4l-.1.1c1.4 1 2.4 1.5 3.4 1.9zm-4.1-6.7v-1.3h-2.7v1.3zm2.2-4.1v-1.1h-3.4v1.1zm1.9 4.1v-1.3h-2.8v1.3z" fill="#fafbfa"/><path d="m37 6.7v2.3 5.4c1 0 1.8 0 2.2-.1v1.3c-.6 0-1.5-.1-2.5-.1h-11.9c-.7 0-1.3 0-1.8.1v-1.3c.5 0 1.1.1 2 .1v-5.2c0-1 0-1.8-.1-2.5h3.7c0-1.3 0-2.1-.1-2.5h1.5c0 .4-.1 1.3-.1 2.5h2.2c0-1.2 0-2.1-.1-2.6h1.5c0 .4-.1 1.3-.1 2.6zm-12.3 13.7c-.3-.4-.7-.8-1.1-1.1 1.1-.4 2.1-.9 2.9-1.3.8-.5 1.5-1 2.1-1.6.4.4.9.8 1.3 1.1-2.5 1.4-4.2 2.4-5.2 2.9zm3.9-10.1v-2.4h-2.2v2.4zm0 4.1v-2.9h-2.2v2.9zm3.5-4.1v-2.4h-2.2v2.4zm0 4.1v-2.9h-2.2v2.9zm.4 2.9 1-1.1c.6.3 1.4.7 2.5 1.3s2 1.1 2.7 1.5c-.4.4-.8.8-1.1 1.3-.8-.8-2.5-1.7-5.1-3zm3.1-7v-2.4h-2.1v2.4zm0 4.1v-2.9h-2.1v2.9z" fill="#fafbfa"/><path d="m37.05 154.78c4.77-1.53 9.27-1.41 13.95.79 5.16 2.43 8.15 5.93 9.96 11.52 9.67 29.97 19.87 59.77 29.58 89.72 1.48 4.57 1.51 9.66 1.84 14.54.63 9.15.9 18.33 1.48 27.49 1.1 17.19 9.73 27.15 27.14 31.66 16.98 4.4 34.29 4.47 52.09 4.18.2-2.69.44-5.31.58-7.94 1.61-30.62 2.98-61.26 4.88-91.86.94-15.06 3.12-30.04 4.24-45.1 1.64-21.99 2.99-44 .36-66.03-2.44-20.43-5.01-40.85-6.97-61.33-1.1-11.57-1.33-23.25 1.51-34.72.21-.85.53-1.67.85-2.67 6.53 1.1 11.86 4.14 16.34 8.7 6.18 6.29 10.07 13.96 12.52 22.31 6.44 21.98 10.66 44.35 10.79 67.33.01 1.75-.97 3.82-2.13 5.19-3.42 4.02-7.07 7.73-7.63 13.44-.22 2.26.33 3.49 2.17 4.62 6.66 4.11 10.02 10.04 9.46 17.97-.07.94-.25 2.11-.85 2.72-4.57 4.74-5.67 10.64-5.3 16.78.62 10.27 1.63 20.52 2.61 30.76.1 1.04.9 2.26 1.75 2.93 3.2 2.53 6.88 3.61 10.98 2.96 5.19-.82 10.4-1.55 15.57-2.47 1.25-.22 2.54-.89 3.55-1.69 7.2-5.69 14.59-11.18 21.37-17.34 3.3-2.99 5.92-7.03 7.97-11.04 9.38-18.37 14.6-37.98 15.29-58.57.24-7.06-1.51-14.2-2.42-21.29-1.15-8.99-2.44-17.95-3.52-26.95-.71-5.89-4-10.29-7.76-14.51-3.79-4.25-4.44-7.74-2.05-11.86.5-.85 1.77-1.72 2.73-1.77 10.38-.61 20.78-1.11 31.17-1.47.95-.03 2.44.96 2.83 1.84 4.58 10.32 9.02 20.69 13.39 31.09.48 1.13.5 2.6.3 3.84-.58 3.75-1.1 7.55-2.14 11.19-3.53 12.38-1.29 24.91-1.29 37.39 0 9.17.62 18.39-.14 27.49-1.17 13.99-5.77 26.81-15.98 37.08-12.38 12.46-24.53 25.16-37.13 37.38-5.03 4.88-10.99 8.81-16.6 13.07-1.12.85-2.55 1.37-3.89 1.87-14.56 5.41-29.13 10.79-43.69 16.18-1.14.42-2.26.91-3.52 1.41.52 9.82 1.01 19.53 1.55 29.24.58 10.39 1.29 20.78 1.72 31.17.1 2.28.96 3.3 2.88 4.23 13.61 6.61 28.15 9.81 43.08 10.39 23.46.92 46.96.86 70.43 1.48 6.79.18 13.62.94 20.32 2.05 7.53 1.26 11.84 6.02 12.84 13.52.18 1.31-.6 3.29-1.62 4.15-8.77 7.32-19.12 9.64-30.18 8.15-24.84-3.34-49.76-2.93-74.7-2.39-14.99.33-29.98.49-44.97.75-6.37.11-12.79.79-19.11.29-6.07-.47-12.18-1.67-18.04-3.35-16.18-4.64-32.59-6.3-49.39-6.04-11.32.17-21.41-3.91-29.72-11.94-3.38-3.26-6.82-6.5-10.56-9.34-11.96-9.08-19.27-21.13-23.88-35.22-5.72-17.48-8.2-35.47-9.17-53.73-1.21-22.79-2.03-45.6-3.56-68.37-.7-10.51-2.7-20.99-4.16-31.87z" fill="#010103"/></svg>