<svg enable-background="new 0 0 400 400" viewBox="0 0 400 400" xmlns="http://www.w3.org/2000/svg"><path d="m76.14 289.52c14.88 0 29.19-.06 43.49.05 2.79.02 2.66-1.97 2.94-3.56 1.53-8.83.67-17.69-3.05-25.63-3.31-7.06-3.78-13.81-2.09-21.03 2.26-9.67 1.92-19.12-.62-28.78-1.12-4.25-.36-9.06-.08-13.6.36-5.8 1.13-11.58 1.63-17.37.15-1.77.05-3.57-.09-5.34-1.76-22.22-1.6-44.29 5.27-65.79 3.4-10.64 7.07-21.2 10.85-31.71.69-1.91 2.25-3.82 3.93-4.99 2.83-1.96 4.85-4.11 5.29-7.67.31-2.46 3.44-4.21 6.81-4.14 9.57.2 16.43 4.6 18.68 13.8 3.05 12.45 5.31 25.12 7.28 37.79.61 3.9-.33 8.28-1.5 12.15-1.22 4.04-2.36 7.83-1.22 12.06 1.66 6.12.24 12-.96 18.1-1.5 7.61-1.62 15.5-2.26 23.27-.18 2.23-.23 4.48-.16 6.71.08 2.6-.3 4.87-2.44 5.74 1.35 3.06 2.64 5.95 3.9 8.85 1.36 3.13 4.93 3.8 7.5 1.4 16.67-15.61 33.31-31.24 50.03-46.79 2.6-2.42 5.39-4.76 8.44-6.54 11.2-6.54 20.87-15.02 30.42-23.63 2.89-2.61 6.14-3.81 9.81-4.66 2.66-.61 5.13-2.03 7.75-2.86 1.05-.33 2.51-.42 3.41.07 4.22 2.29 8.26 4.9 12.45 7.25 2.82 1.58 4.23 3.97 3.37 6.94-.95 3.26-2.13 6.69-4.13 9.35-3.62 4.81-7.74 9.31-12.07 13.5-1.47 1.42-4.24 1.48-6.19 2.1-.8 1.22-1.5 2.84-2.67 3.96-17.82 17.11-39.51 28.83-59.64 42.74-10.3 7.11-20.38 14.54-30.61 21.75-2.28 1.61-4.68 3.1-7.2 4.29-7.96 3.76-12.07 10.29-13.94 18.59-3.18 14.08-3.97 28.45-5.21 42.76-.07.84 1.18 2.26 2.13 2.65 7.86 3.26 16.13 3.43 24.42 2.54 8.55-.92 17.04-2.53 25.61-3.19 9.13-.71 18.32-.62 27.49-.96 17.31-.63 34.64-.42 51.9-2.51 11.05-1.34 22.02.2 32.9 2.92 8.87 2.22 17.99 3.55 27.05 4.89 11.55 1.72 16.83 7.4 17.01 19.18-6.95 4.17-14.55 6.11-22.76 6.43-7.24.28-14.45 1.35-21.68 1.77-1.52.09-3.12-1.09-5.25-1.91-2.46 3.13-6.75 3.75-11.37 3.42-5.9-.42-11.81-.79-18.06-1.21.24-.89.44-1.7.68-2.49 1.13-3.69.44-5.29-3.15-6.3-.9-.25-2.44.09-3.06.76-5.5 5.95-12.41 7.65-20.15 6.99-11.24-.95-22.48-2.06-33.73-2.86-6.35-.45-12.74-.42-19.11-.59-.67-.02-1.4-.1-2 .13-11.96 4.65-24.37 1.57-36.56 2.16-13.81.67-27.65.94-41.47 1.38-.06.32-.13.65-.19.97-.43-.98-.86-1.96-1.33-3.03-5.76 5.87-13.43 5.96-20.59 6.01-20.93.13-40.34 7.19-60.21 12.18-1.93.48-3.68 1.62-5.59 2.24-1.57.51-3.24 1.02-4.87 1-4.11-.05-5.15-1.15-5.5-5.19-.22-2.56-.55-5.14-.51-7.7.06-3.7-1.75-6.05-5.03-7.07-5.42-1.69-7.08-5.53-7.15-10.75-.32-26.52-.94-53.04-.96-79.56 0-8 1.98-15.97 2.39-23.99.97-18.99 1.51-38 2.32-56.99.07-1.66.99-3.28 1.33-4.95.29-1.43.86-3.12.37-4.33-1.19-2.99-.42-5.2 1.73-7.24.81-.77 1.61-1.56 2.43-2.32 9.73-9.09 10.81-9.39 23.83-6.14.81.2 1.67 1.02 2.09 1.78 9.38 16.71 13.8 34.63 12.42 53.78-1.6 22.23-3.16 44.46-.77 66.7 1.32 12.33 3.34 24.59 5.05 36.88.25 2.01.57 3.99.78 5.39zm-38.41 40.7c3.97-3.01 7.66-6.01 8.88-11.03.69-2.86.29-4.81-3.07-5.76-1.86 5.62-6.01 10.4-5.81 16.79zm21.79 3.01c1.39-1.06 2.75-1.64 2.73-2.16-.22-4.53-.17-9.17-3.48-13.08.24 4.78.47 9.57.75 15.24zm-11.67-80.14c-2 1.3-3.82 2.47-6.01 3.89 3.33 3.15 5.74.2 8.89-.05-1.21-1.61-1.98-2.65-2.88-3.84zm89.44-72.21c-3.32-.92-6.12-1.7-9.23-2.57 2.23 4.76 4.85 5.52 9.23 2.57zm82.69 112.45c-.16.1-.33.21-.49.31.31 2.02.62 4.05.99 6.5 1.39-.65 2.41-1.13 3.67-1.72-1.58-1.93-2.87-3.51-4.17-5.09zm-170.47-118.93c-.35-.25-.7-.49-1.05-.74-3.65 3.06-3.65 3.06-2.12 5.38 1.13-1.66 2.15-3.15 3.17-4.64zm93.31 21.84c-.85-1.03-1.62-1.96-2.65-3.2-.55 2.01-.96 3.51-1.56 5.69 1.96-1.16 3.2-1.89 4.21-2.49z" fill="#010000"/><g fill="#fbfcfa"><path d="m361.2 9.6.8-1c.9.7 1.9 1.4 2.9 2.3l-.9 1.1c-1-1-2-1.8-2.8-2.4zm.5 10.6c.9-2.1 1.6-4.3 2.3-6.7.4.2.8.4 1.3.6-.7 2.1-1.5 4.3-2.2 6.6zm.4-15.2.9-.9c1 .8 2 1.6 2.8 2.4l-1 1c-.9-.9-1.8-1.7-2.7-2.5zm12.5-1.2h1.2v1.4h2.7v1.1h-2.7v2.7h-1.2v-.6h-1.8v1.3h4.9v3.8h-1.2v-.5h-3.7c0 .4-.1.9-.1 1.2h5.1v1h-5.2c0 .5-.1.9-.2 1.2h6v1h-5.2c1.1 1.3 2.9 2 5.5 2.2-.4.4-.7.8-.9 1.3-2.9-.5-4.8-1.6-5.7-3.5h-.1c-.8 1.7-2.7 2.9-5.9 3.6-.2-.4-.6-.8-.9-1.1 2.8-.6 4.6-1.4 5.4-2.5h-4.8v-1h5.3c.1-.3.2-.7.2-1.2h-4.9v-1h5c0-.4 0-.8.1-1.2h-3.5v.5h-1.2v-3.8h4.9v-1.3h-1.8v.5h-1.2v-2.7h-2.7v-1h2.6v-1.4h1.2v1.4h4.7v-1.4zm-6.6 8.3h3.6c0-.4 0-.9 0-1.4h-3.6zm1.9-4.6h4.7v-1.3h-4.7zm6.6 3.2h-3.7v1.4h3.7z"/><path d="m385.3 3.8h1.3v2.2h2.8v-2.2h1.3v2.2h4.1v9.1h1.7v1.3h-16.9v-1.3h1.7v-9.1h4.1v-2.2zm.4 13.1.7 1.2c-1.8.9-3.8 1.9-6 2.9-.2-.4-.5-.8-.8-1.3 2.3-1 4.3-1.9 6.1-2.8zm-3.1-6.4h2.8v-3.2h-2.8zm0 4.6h2.8v-3.3h-2.8zm4-4.6h2.8v-3.2h-2.8zm0 4.6h2.8v-3.3h-2.8zm3.7 1.9c2.1.9 4.1 1.8 6.1 2.7l-.7 1.3c-2.2-1.1-4.2-2-6.1-2.9zm3.2-9.7h-2.8v3.2h2.8zm-2.8 7.8h2.8v-3.3h-2.8z"/></g></svg>