<svg enable-background="new 0 0 400 400" viewBox="0 0 400 400" xmlns="http://www.w3.org/2000/svg"><path d="m22.73 203.43c7.16 1.16 13.72 1.12 19.45 6.87 22.29 22.36 49.65 35.18 80.4 41.76 24.04 5.14 48.25 8.06 72.76 9.5 14.38.85 28.3-1.78 42.4-3.19 14.25-1.43 28.45-3.26 42.65-5.1 2.06-.27 3.98-1.6 6.56-2.7-8.04-5.08-29.54-5.8-48.69-2.1 1.27-1.48 2.26-2.64 3.64-4.25-6.2-1.12-11.93-2.52-17.74-3.13-16.05-1.7-30.58-8.09-45.3-14-14.73-5.91-29.51-11.7-44.24-17.61-1.41-.57-2.82-1.41-3.9-2.47-11.26-11.06-22.46-22.19-33.67-33.3-4.08-4.05-7.34-8.58-8.91-14.56 4.14.16 7.4.73 10.47 3.78 7.45 7.42 16.78 12.21 26.18 16.73 13.61 6.55 27.39 12.83 42.19 16.16 12.54 2.83 9.64 3.89 17.76-6.62 5.64-7.31 7.46-15.9 7.59-24.92.09-6.38.11-12.76-.2-19.13-.09-1.78-1.07-3.86-2.31-5.17-6.53-6.91-13.35-13.55-19.89-20.46-1.84-1.95-3.09-4.46-5.06-7.39 8.55.22 15.6 2.23 22.26 5.48 12.18 5.95 22.97 13.61 29.19 26.16 3.89 7.84 5.08 16.08 2.56 24.73-3.19 10.94-6.07 21.98-9.22 32.93-.63 2.2-.43 3.63 1.8 4.52 2.97 1.18 5.83 2.88 8.91 3.54 24.81 5.33 49.69 10.37 74.5 15.72 6.65 1.43 13.32 3.15 19.66 5.58 4.2 1.61 7.74 4.85 11.74 7.06 1.62.89 3.83 1.68 5.52 1.32 8.62-1.82 17.23-3.77 25.71-6.17 10.73-3.04 14.7-.17 14.45 10.96-.11 4.88-1.92 8.35-5.55 12.07-15.89 16.3-36.25 21.66-57.55 25.46-39.57 7.05-79.38 8.73-119.37 5.2-18.59-1.64-37.31-3.24-55.12-9.34-12.46-4.27-24.57-9.55-36.88-14.29-4.59-1.77-9.18-3.65-13.93-4.82-6.46-1.6-11.73-5.02-17.13-8.72-10.03-6.88-18.3-15.19-25.02-25.32-2.22-3.34-5.83-5.79-8.94-8.48-3.93-3.37-7.58-6.9-9.73-12.29z" fill="#010105"/><g fill="#fcfbfa"><path d="m377.9 391.2c-.2.3-.4.5-.6.8-.7-.6-1.4-1-2.2-1.5.2-.3.4-.5.5-.8.6.4 1.4.8 2.3 1.5zm-1.8 6.1c-.2-.2-.5-.4-.9-.6.4-.6.8-1.2 1.2-1.9s.7-1.3.9-1.9c.3.3.5.5.8.7-.7 1.3-1.4 2.6-2 3.7zm2.2-9c-.3.3-.5.5-.6.8-.6-.6-1.3-1.1-2-1.5.3-.3.5-.5.6-.7.6.5 1.3.9 2 1.4zm.3.2v-.9h2 4.5c-.3 1.3-.6 2.5-1 3.6s-.9 2.1-1.4 3c.4.5 1 1 1.6 1.4s1.2.8 1.9 1.1c-.3.2-.5.4-.8.8-.4-.3-1-.7-1.6-1.2s-1.2-1.1-1.6-1.6c-.5.6-1.1 1.1-1.7 1.6s-1.4.9-2.1 1.4c-.1-.3-.3-.5-.7-.8.6-.2 1.2-.5 1.9-1s1.4-1.1 2-1.8c-.5-.8-.9-1.6-1.2-2.5s-.6-2-.8-3.2c-.4.1-.7.1-1 .1zm2.5 2.7c.3 1 .7 1.7 1 2.2.3-.5.6-1.1 1-2s.6-1.9.9-3h-3.2-.4c.1.9.3 1.8.7 2.8z"/><path d="m396.5 388.5v1.5 3.6h1.5v.9c-.4 0-1 0-1.7 0h-7.9c-.5 0-.9 0-1.2 0v-.9h1.3v-3.5c0-.7 0-1.2 0-1.6h2.4c0-.8 0-1.4 0-1.7h1c0 .3-.1.8-.1 1.7h1.5c0-.8 0-1.4 0-1.7h1c0 .3-.1.9-.1 1.7zm-8.2 9.2c-.2-.3-.5-.5-.8-.8.8-.3 1.4-.6 1.9-.9s1-.7 1.4-1.1c.3.3.6.5.9.8-1.6 1-2.8 1.6-3.4 2zm2.6-6.8v-1.6h-1.5v1.6zm0 2.7v-1.9h-1.5v1.9zm2.4-2.7v-1.6h-1.5v1.6zm0 2.7v-1.9h-1.5v1.9zm.2 2 .7-.8c.4.2.9.5 1.6.8s1.3.7 1.8 1c-.3.3-.5.5-.8.8-.4-.3-1.5-1-3.3-1.8zm2-4.7v-1.6h-1.4v1.6zm0 2.7v-1.9h-1.4v1.9z"/></g></svg>