<svg viewBox="0 0 400 400" xmlns="http://www.w3.org/2000/svg"><rect width="400" height="400" fill="white" /><path d="m203.2 109.17c2.01-4.41 3.63-9.04 6.09-13.18 6.75-11.38 14.62-21.96 24.3-31.09.95-.89 1.7-2.1 2.25-3.29 1.35-2.91 3.78-4.68 6.01-6.84 4.21-4.08 8.02-8.48 13.43-11.06 5.15-8.62 14.38-12.18 22.17-17.43 1.77-1.19 5.58-.17 8.08.79 2.78 1.07 1.39 3.78.93 5.91-1.12 5.19-3.66 9.25-7.88 12.74-8.8 7.26-17.27 14.93-25.68 22.66-3.34 3.07-6.49 6.48-9.11 10.18-8.19 11.57-17.82 22.2-23.49 35.43-.81 1.89-1.33 3.96-1.62 6-1.61 11.35 2.04 21.25 6.47 31.72 4.5 10.64 10.02 21.55 9.72 33.81-.02.73.26 1.6.7 2.18 2.64 3.5 2.56 7.31 1.93 11.43-1.74 11.27-2.96 22.63-4.91 33.87-.79 4.55-3.01 8.85-4.43 13.31-4.96 15.61-14.26 28.95-23.69 41.85-8.33 11.4-18.54 21.54-28.7 31.45-16.83 16.4-34.23 32.21-51.51 48.14-2.59 2.39-5.64 4.44-8.79 6.04-2.26 1.16-5.03 1.31-7.51 1.9-1.6-4.79 1.32-11.69 5.08-14.11 2.29-1.47 4.52-3.26 6.25-5.34 6.02-7.22 11.56-14.85 17.77-21.89 4.04-4.58 8.98-8.36 13.41-12.61 2.49-2.39 5.08-4.77 7.1-7.53 3.94-5.36 8.32-10.21 13.58-14.29 1.31-1.01 2.45-2.3 3.45-3.63 8.4-11.18 16.76-22.4 25.11-33.61.6-.8 1.22-1.62 1.63-2.52 4.04-8.95 8.02-17.94 12.05-26.9 3.15-6.99 4.32-14.28 3.81-21.91-.24-3.57-.5-7.17-.31-10.73.46-8.76-1.16-16.99-4.66-25.08-1.54-3.56-1.13-7.91-2.05-11.81-.7-2.99-2.21-5.77-3.13-8.72-1.71-5.52-4.05-11-4.67-16.65-.76-6.92-.07-14 .16-21 .03-.87.99-1.77 1.62-2.56.78-.97 2.16-1.76 2.36-2.8.16-.88-1-2-1.57-3.02-.57.06-1.16.13-1.75.19z" fill="#010100"/><g fill="#fcfafa"><path d="m342.2 3.2-6.3 9.2h6.1v1.2h-8.2v-.5l6.2-9.1h-5.7v-1.2h7.8v.4z"/><path d="m344 13.7v-10.9h3.1c1.6 0 3 .5 4.1 1.4 1.1 1 1.6 2.2 1.6 3.9s-.5 3-1.6 4-2.5 1.5-4.2 1.5h-3zm1.4-9.6v8.4h1.6c1.4 0 2.5-.4 3.2-1.1.8-.8 1.2-1.8 1.2-3.2s-.4-2.4-1.2-3.1-1.8-1-3.1-1z"/><path d="m356.3 2.8v10.9h-1.4v-10.9z"/><path d="m366.6 13.2c-.8.4-1.8.6-3 .6-1.6 0-2.8-.5-3.7-1.5s-1.4-2.3-1.4-3.9c0-1.7.5-3.2 1.6-4.2s2.4-1.6 4-1.6c1 0 1.9.1 2.6.4v1.5c-.8-.4-1.6-.6-2.6-.6-1.2 0-2.2.4-3 1.2s-1.1 1.9-1.1 3.3c0 1.3.4 2.3 1.1 3.1s1.6 1.1 2.8 1.1c1.1 0 2-.2 2.8-.7v1.3z"/><path d="m368.2 13c0-.3.1-.5.3-.6.2-.2.4-.3.6-.3.3 0 .5.1.7.3s.3.4.3.6-.1.5-.3.6c-.2.2-.4.3-.7.3s-.5-.1-.6-.3c-.2-.2-.3-.4-.3-.6z"/><path d="m381.1 13.7h-1.7l-5.5-8.4c-.2-.2-.3-.5-.4-.7 0 .2.1.8.1 1.5v7.6h-1.4v-10.9h1.8l5.3 8.3c.3.4.4.6.4.8 0-.3-.1-.8-.1-1.6v-7.5h1.4v10.9z"/><path d="m389.7 13.7h-5.8v-10.9h5.6v1.2h-4.2v3.5h3.9v1.2h-3.9v3.7h4.4z"/><path d="m398.4 4.1h-3.1v9.6h-1.4v-9.6h-3.1v-1.3h7.7v1.3z"/></g></svg>