<svg viewBox="0 0 400 400" xmlns="http://www.w3.org/2000/svg"><rect width="400" height="400" fill="white" /><path d="m362.1 8.8c1.1.8 2.1 1.6 3.1 2.4l-1 1.1c-1.3-1.1-2.3-2-3-2.5zm1.9 4.8c.5.2.9.4 1.4.5-.6 2.3-1.3 4.5-1.9 6.8l-1.5-.5c.8-2.1 1.4-4.3 2-6.8zm-1-9.4c1.3.9 2.4 1.8 3.4 2.5l-1 1.1c-1.4-1.2-2.4-2.1-3.2-2.6zm3.7 2.2v-1.4h10.3v1.2c-.5 3.6-1.8 6.8-4 9.4 1.5 1.6 3.4 2.8 5.7 3.8-.3.4-.7.8-1.1 1.4-2.3-1.1-4.1-2.5-5.6-4.1-1.6 1.6-3.6 3.1-5.9 4.3-.3-.5-.7-.9-1-1.3 2.4-1.1 4.4-2.5 6-4.1-1.9-2.5-3-5.6-3.3-9.3h-1.1zm8.8 0h-6.4c.3 3.3 1.3 6 3 8.2 2-2.3 3.1-5.1 3.4-8.2z" fill="#fbfafc"/><path d="m385.3 3.8h1.3v2.2h2.8v-2.2h1.3v2.2h4.1v9.1h1.7v1.3h-16.9v-1.3h1.7v-9.1h4.1v-2.2zm.4 13.1.7 1.2c-1.8.9-3.8 1.9-6 2.9-.2-.4-.5-.8-.8-1.3 2.3-1 4.3-1.9 6.1-2.8zm-3.1-6.4h2.8v-3.2h-2.8zm0 4.6h2.8v-3.3h-2.8zm4-4.6h2.8v-3.2h-2.8zm0 4.6h2.8v-3.3h-2.8zm3.7 1.9c2.1.9 4.1 1.8 6.1 2.7l-.7 1.3c-2.2-1.1-4.2-2-6.1-2.9zm3.2-9.7h-2.8v3.2h2.8zm-2.8 7.8h2.8v-3.3h-2.8z" fill="#fbfafc"/><path d="m73.54 25.64c9.62 1.48 18.87 2.89 28.11 4.33 15.14 2.35 30.28 4.68 45.41 7.12 1.94.31 3.91.97 5.64 1.89 9.67 5.15 19.38 10.25 28.85 15.75 3.38 1.96 6.54 2.45 10.16 1.55.96-.24 1.97-.31 3.47-.53-.43 4.32-1.21 8.38-1.17 12.43.1 10.28.17 20.58 1 30.82 1.2 14.69.67 29.06-4.93 42.9-.62 1.54-1.39 3.06-2.36 4.4-26.75 37.41-53.48 74.83-80.37 112.14-5.29 7.34-11.34 14.13-16.83 21.34-5.04 6.61-7.17 14.14-5.57 22.41.31 1.59 1.3 3.31 2.49 4.44 17.16 16.24 37.59 25.87 60.76 29.98 20.25 3.59 40.58 4.05 60.73 0 10.14-2.04 19.92-5.83 29.87-8.85 3.64-1.1 7.2-2.51 10.9-3.33 15.03-3.34 27.61-11.59 40.66-19.19 12.13-7.07 21.93-16.49 31.44-26.42 1.84-1.92 3.45-2.36 5.85-1.39 2.16.88 4.44 1.71 6.73 2.01 4.14.54 5.72 2.91 6.25 6.79.7 5.2.54 10.16-1.37 15.16-3.03 7.88-7.36 14.36-14.46 19.46-10.34 7.44-19.88 15.98-29.87 23.92-9.27 7.37-19.64 12.84-30.8 16.72-1.81.63-4.1-.15-6.17-.18-2.75-.04-5.6-.48-8.22.09-20.21 4.35-40.36 9.04-60.58 13.36-13.71 2.93-27.41 1.72-40.92-1.45-18.61-4.36-35.89-12.35-53.21-20.16-1.94-.87-3.79-1.94-5.77-2.7-9.98-3.84-16.93-11.6-24.9-18.26-9.42-7.88-11.33-17.48-11.11-28.6.26-13.21 4.31-25.5 8.64-37.75 3.33-9.43 7.76-18.24 13.91-26.24 12.41-16.14 24.94-32.2 36.66-48.84 8.8-12.5 16.71-25.66 24.46-38.85 6.79-11.56 12.85-23.55 19.1-35.41.77-1.45 1.11-3.37.97-5.02-.55-6.35-1.31-12.69-2.18-19-.18-1.31-.9-2.77-1.82-3.72-5.85-6.02-11.79-11.96-17.81-17.81-1.15-1.12-2.69-1.97-4.2-2.58-12.75-5.13-25.64-9.93-38.27-15.34-9.88-4.24-16.66-11.53-18.69-22.51-.27-1.47-.3-3.02-.48-4.88z" fill="#000001"/></svg>