<svg viewBox="0 0 400 400" xmlns="http://www.w3.org/2000/svg"><rect width="400" height="400" fill="white" /><g fill="#fafafb"><path d="m12.4 4.8-6.1 9h6v1.2h-8v-.5l6.1-8.9h-5.7v-1.2h7.6v.4z"/><path d="m14 15v-10.6h3c1.6 0 2.9.5 4 1.4s1.6 2.2 1.6 3.8-.5 3-1.6 3.9-2.4 1.5-4 1.5zm1.4-9.4v8.2h1.6c1.3 0 2.4-.4 3.1-1.1s1.1-1.8 1.1-3.1-.4-2.3-1.2-3-1.8-1-3.1-1z"/><path d="m26.1 4.4v10.6h-1.4v-10.6z"/><path d="m36.1 14.6c-.8.4-1.8.6-2.9.6-1.5 0-2.7-.5-3.6-1.4s-1.4-2.2-1.4-3.8c0-1.7.5-3.1 1.5-4.1s2.3-1.6 3.9-1.6c1 0 1.8.1 2.5.4v1.4c-.8-.4-1.6-.6-2.5-.6-1.2 0-2.1.4-2.9 1.2s-1.1 1.8-1.1 3.2c0 1.3.3 2.3 1 3s1.6 1.1 2.7 1.1c1 0 2-.2 2.7-.7v1.3z"/><path d="m37.6 14.3c0-.2.1-.5.3-.6s.4-.3.6-.3c.3 0 .5.1.6.3s.3.4.3.6-.1.4-.3.6-.4.3-.6.3c-.3 0-.5-.1-.6-.3s-.3-.4-.3-.6z"/><path d="m50.2 15h-1.6l-5.3-8.2c-.2-.2-.3-.5-.4-.7 0 .2.1.7.1 1.5v7.4h-1.4v-10.6h1.7l5.2 8.1c.2.4.4.6.4.7 0-.3-.1-.8-.1-1.5v-7.3h1.4z"/><path d="m58.6 15h-5.7v-10.6h5.5v1.2h-4.1v3.4h3.8v1.2h-3.8v3.6h4.3z"/><path d="m67.1 5.6h-3.1v9.4h-1.4v-9.4h-3v-1.2h7.5z"/></g><path d="m294.17 287.09c5.83 9.5 7.41 18.56 2.76 28.78-2.87 6.31-3.86 13.46-5.74 20.22-.38 1.36-.62 3.01-1.52 3.94-13.43 13.87-28.37 25.66-46.64 32.57-14.79 5.59-29.97 5.32-45.32 2.78-4.48-.74-7.82-2.98-11.42-5.6-19.94-14.51-25.8-35.86-29.4-58.5-2.13-13.36.37-26.27 3.01-39.22 11.29-55.4 22.56-110.81 33.8-166.23 2.11-10.4 2.3-20.85.59-31.36-2-12.27-12.27-22.41-29.4-18.96-11.66 2.35-22.91 5.86-33.44 11.57-11.19 6.07-22.54 11.86-34.04 17.89-2.64-4.28-2.72-8.53-.5-12.77 2.79-5.34 5.73-10.6 8.67-15.86.41-.74 1.08-1.43 1.8-1.9 10.38-6.79 20.39-14.27 31.28-20.14 24.14-13.01 48.25-11.08 71.32 3.02 9.9 6.05 15.41 15.94 17.97 26.99 1.93 8.32 2.36 16.99 3.56 25.49.8 5.63 1.85 11.22 2.63 16.85.24 1.71.28 3.58-.17 5.22-5.11 18.99-10.73 37.85-15.4 56.94-3.43 13.98-5.75 28.24-8.41 42.41-4.72 25.15-9.53 50.29-13.84 75.52-1.54 8.99-2.66 18.24-2.34 27.32.69 19.72 9.42 27.6 30.53 26.18 13.88-.93 27.17-5.24 39.89-10.97 1.31-.59 2.5-1.83 3.33-3.05 7.99-11.74 15.88-23.55 23.81-35.33.8-1.19 1.63-2.36 2.63-3.8z" fill="#010105"/></svg>