<svg viewBox="0 0 400 400" xmlns="http://www.w3.org/2000/svg"><rect width="400" height="400" fill="white" /><g fill="#fafafb"><path d="m12.4 4.8-6.1 9h6v1.2h-8v-.5l6.1-8.9h-5.7v-1.2h7.6v.4z"/><path d="m14 15v-10.6h3c1.6 0 2.9.5 4 1.4s1.6 2.2 1.6 3.8-.5 3-1.6 3.9-2.4 1.5-4 1.5zm1.4-9.4v8.2h1.6c1.3 0 2.4-.4 3.1-1.1s1.1-1.8 1.1-3.1-.4-2.3-1.2-3-1.8-1-3.1-1z"/><path d="m26.1 4.4v10.6h-1.4v-10.6z"/><path d="m36.1 14.6c-.8.4-1.8.6-2.9.6-1.5 0-2.7-.5-3.6-1.4s-1.4-2.2-1.4-3.8c0-1.7.5-3.1 1.5-4.1s2.3-1.6 3.9-1.6c1 0 1.8.1 2.5.4v1.4c-.8-.4-1.6-.6-2.5-.6-1.2 0-2.1.4-2.9 1.2s-1.1 1.8-1.1 3.2c0 1.3.3 2.3 1 3s1.6 1.1 2.7 1.1c1 0 2-.2 2.7-.7v1.3z"/><path d="m37.6 14.3c0-.2.1-.5.3-.6s.4-.3.6-.3c.3 0 .5.1.6.3s.3.4.3.6-.1.4-.3.6-.4.3-.6.3c-.3 0-.5-.1-.6-.3s-.3-.4-.3-.6z"/><path d="m50.2 15h-1.6l-5.3-8.2c-.2-.2-.3-.5-.4-.7 0 .2.1.7.1 1.5v7.4h-1.4v-10.6h1.7l5.2 8.1c.2.4.4.6.4.7 0-.3-.1-.8-.1-1.5v-7.3h1.4z"/><path d="m58.6 15h-5.7v-10.6h5.5v1.2h-4.1v3.4h3.8v1.2h-3.8v3.6h4.3z"/><path d="m67.1 5.6h-3.1v9.4h-1.4v-9.4h-3v-1.2h7.5z"/></g><path d="m65.3 26.43c4.21-.3 8.27-1.43 11.98-.72 30.86 5.89 61.67 12.09 92.47 18.29 1.66.33 3.43 1.16 4.7 2.27 16.82 14.75 33.54 29.63 50.37 44.38 1.81 1.58 2.13 2.98 1.32 5.19-1.69 4.61-3.23 9.29-4.51 14.03-.41 1.53-.37 3.66.4 4.97 4.19 7.09 5.05 14.63 5.12 22.77.24 29.06-2.39 57.89-5.5 86.71-2.36 21.85.25 42.9 10.86 62.43 1.79 3.28 4.94 6 7.9 8.44 13.7 11.29 29.06 20.03 44.44 28.76 10.19 5.79 20.35 11.71 30 18.32 6.47 4.43 11.83 10.33 13.62 18.51.19.87.36 1.76.4 2.64.27 5.73-.36 6.66-5.89 8.21-6.23 1.74-12.54 2.09-18.91.8-6.69-1.35-13.37-2.71-20.08-3.93-1.25-.23-2.68-.09-3.9.28-5.02 1.55-9.95 3.41-15 4.83-2.04.57-4.41.8-6.46.37-18.38-3.86-36.72-7.87-55.05-11.98-1.71-.38-3.52-1.45-4.75-2.72-11.86-12.35-23.65-24.77-35.34-37.28-.99-1.06-1.73-2.91-1.63-4.33 1.31-18.41 3.05-36.8 4.08-55.23.31-5.6-1.18-11.3-1.92-16.95-.7-5.32-1.86-10.61-2.12-15.95-.18-3.73.79-7.52 1.28-11.28 3.12-24.01 4.95-48.09 3.73-72.31-1.38-27.31-11.66-50.99-29.83-71.26-6.54-7.3-14.53-12.16-24.24-14.76-9.78-2.62-19.39-6.16-28.73-10.1-9.85-4.15-15.75-12.14-18.81-23.4z" fill="#010105"/></svg>