<svg enable-background="new 0 0 400 400" viewBox="0 0 400 400" xmlns="http://www.w3.org/2000/svg"><path d="m184.08 25.5c7.92.67 13.77 4.19 18.14 10.35 3.43 4.83 6.73 9.77 10.36 14.45 1.37 1.76 3.33 3.3 5.34 4.29 9.72 4.79 19.99 8.63 29.24 14.17 20.71 12.4 34.9 30.15 40.28 54.09 1.72 7.63.99 15.37-1.37 22.87-.31 1-1.01 1.98-1.77 2.73-6.08 5.94-12.2 11.85-18.37 17.71-.86.82-1.98 1.45-3.08 1.94-3.57 1.59-7.28 2.9-10.75 4.67-2.19 1.12-4.05 2.88-5.56 3.99 3.67 5.72 7.05 10.69 10.1 15.87 1.04 1.76 1.41 3.98 1.77 6.04.49 2.84-.51 5.05-2.83 7.03-13 11.14-25.58 22.8-38.9 33.54-9.9 7.98-20.72 14.84-31.14 22.19-3.82 2.69-7.65 5.35-11.99 8.38 5.5 1.81 10.47 3.3 15.33 5.1 3.11 1.16 6.24 2.48 9.03 4.24 11.09 7.01 22.28 13.58 30.83 24.25 7.93 9.9 17.92 18.12 26.77 27.32 2.73 2.83 5.12 6.19 6.87 9.71 3.7 7.42 7.42 14.74 12.77 21.18 3.19 3.84 3.98 7.09 3.78 11.54-.24.13-.49.35-.79.44-5.91 1.67-5.91 1.67-9.6-3.4-.66-.9-1.38-1.77-1.96-2.73-9.61-15.87-23.54-27.67-37.22-39.73-10.16-8.96-20.1-18.16-30.29-27.07-2.82-2.46-6.07-4.5-9.36-6.33-4.39-2.44-9.26-4.08-13.46-6.77-5.57-3.56-11.31-3.55-17.36-2.4-2.63.5-5.28.95-7.89 1.55-3.01.69-5.11-.46-5.37-3.39-.34-3.75-.15-7.58.16-11.34.08-.93 1.4-1.89 2.32-2.61 13.27-10.37 25.49-21.85 36.2-34.85 5.27-6.4 5.11-6.49-.83-12.01-12.71-11.8-25.38-23.65-38.13-35.41-1.1-1.01-2.55-1.76-3.96-2.31-6.13-2.42-12.48-4.34-18.42-7.15-13.95-6.59-18.05-14.1-16.21-29.56.96-8.05 3.38-15.94 5.26-23.87.27-1.15 1.13-2.16 1.75-3.21 7.19-12.11 16.62-22.43 26.09-32.74 10.83-11.79 21.6-23.62 32.29-35.52 2.68-2.99 5.12-6.22 7.44-9.5 3.69-5.19 5.2-11.04 4.49-17.74zm8.75 49.72c2.73 5.24 6.22 9.5 10.9 12.41 12.16 7.56 22.49 17.3 32.73 27.11 4.15 3.97 7.64 8.65 11.3 13.12 3.08 3.77 5.97 7.69 8.91 11.5.78-.52.99-.62 1.14-.76.41-.38.76-.84 1.21-1.16 6.39-4.52 8.15-10.7 8.43-18.41.25-6.56-1.38-11.74-5.12-16.71-8.49-11.26-19.4-19.71-31.31-26.98-6.62-4.04-13.64-7.17-21.38-8.38-1.06-.17-2.39-.36-3.22.11-4.53 2.56-8.95 5.33-13.59 8.15zm-15.45 14.42c-4.48 3.69-8.7 7.54-13.31 10.84-3.06 2.19-3.73 4.88-2.31 7.77 1.21 2.47 3.22 4.71 5.33 6.52 1.44 1.24 3.62 1.68 5.53 2.28 9.4 2.93 16.92 8.36 22.53 16.48 4.96 7.17 10.16 14.17 15.01 21.41 1.63 2.43 3.72 3.79 6.33 3.59 3.48-.27 7.08-.78 10.29-2.05 3.38-1.34 6.27-3.86 9.53-5.55 2.66-1.37 3.28-3.49 2.22-5.79-1.9-4.12-3.62-8.59-6.57-11.87-4.07-4.52-9.1-8.2-13.92-11.99-13.44-10.58-26.99-21.02-40.66-31.64zm-29.08 28.34c-3.62 3.31-7.2 6.33-10.47 9.66-2.58 2.62-4.41 6.07-7.22 8.35-4.07 3.29-4.37 7.04-3.28 11.6.96 4.04 2.6 7.09 6.88 8.68 3.19 1.19 5.96 3.47 8.98 5.14 1.92 1.06 3.89 2.37 5.98 2.72 7.48 1.24 14.99 2.5 22.53 3.04 7.27.52 14.39-.74 21-4.93-12.16-17.29-27.11-31.41-44.4-44.26zm13.36 68.52c.78.88 1.11 1.48 1.62 1.8 5.25 3.35 10.42 6.86 15.83 9.93 7.27 4.12 14.91 7.61 22.07 11.91 4.9 2.94 6.22 3.77 10.94.27 3.81-2.82 6.81-6.71 10.26-10.03 4.15-4 5.18-9.31 5.98-14.6.57-3.8-2.89-7.19-6.45-6.75-19.87 2.43-39.73 4.91-60.25 7.47z" fill="#010104"/><g fill="#fcfbfa"><path d="m385.2 377.6.6-.7c.6.4 1.3.9 1.9 1.5l-.6.7c-.8-.5-1.4-1-1.9-1.5zm.3 7.1c.6-1.4 1.1-2.9 1.5-4.5.3.1.6.3.9.4-.5 1.4-1 2.9-1.5 4.4zm.2-10.1.6-.6c.7.5 1.3 1.1 1.9 1.6l-.7.7c-.6-.6-1.2-1.2-1.8-1.7zm8.4-.8h.8v.9h1.8v.7h-1.8v1.8h-.8v-.3h-1.2v.9h3.3v2.6h-.8v-.4h-2.5c0 .3 0 .6-.1.8h3.4v.7h-3.5c0 .3-.1.6-.1.8h4v.7h-3.5c.7.9 1.9 1.3 3.6 1.5-.2.2-.4.5-.6.9-1.9-.3-3.2-1.1-3.8-2.3-.5 1.1-1.8 2-3.9 2.4-.2-.3-.4-.5-.6-.8 1.9-.4 3.1-.9 3.6-1.7h-3.2v-.7h3.5c.1-.2.1-.5.2-.8h-3.3v-.7h3.4c0-.2 0-.5 0-.8h-2.4v.3h-.8v-2.6h3.3v-.9h-1.2v.3h-.8v-1.8h-1.8v-.7h1.8v-.9h.8v.9h3.2zm-4.4 5.5h2.4c0-.3 0-.6 0-.9h-2.4zm1.2-3.1h3.2v-.8h-3.2zm4.4 2.2h-2.4v.9h2.5v-.9z"/><path d="m389.2 385.8h.9v1.5h1.9v-1.5h.9v1.5h2.7v6h1.1v.9h-11.3v-.9h1.1v-6h2.7zm.2 8.7.5.8c-1.2.6-2.5 1.3-4 1.9-.2-.3-.3-.6-.6-.8 1.6-.6 3-1.3 4.1-1.9zm-2-4.3h1.9v-2.1h-1.9zm0 3.1h1.9v-2.2h-1.9zm2.7-3.1h1.9v-2.1h-1.9zm0 3.1h1.9v-2.2h-1.9zm2.4 1.3c1.4.6 2.7 1.2 4.1 1.8l-.5.9c-1.5-.7-2.8-1.4-4.1-1.9zm2.2-6.5h-1.9v2.1h1.9zm-1.9 5.2h1.9v-2.2h-1.9z"/></g></svg>