<svg enable-background="new 0 0 400 400" viewBox="0 0 400 400" xmlns="http://www.w3.org/2000/svg"><path d="m374.8 390.4.4-.4c.7.5 1.3 1 1.8 1.4l-.5.5c-.5-.6-1.1-1.1-1.7-1.5zm1 7.3-.6-.3c.5-1.4 1.1-2.8 1.5-4.3.2.1.4.2.6.3-.5 1.3-1 2.8-1.5 4.3zm-.4-10.3.4-.4c.4.3 1 .8 1.7 1.4l-.5.5c-.4-.5-1-1-1.6-1.5zm2.5.3h1.7v-1h.6v1h3.5v-1h.6v1h1.8v.5h-1.8v1.4h-2v1h3.2v2h-3.2v.9h3.3v.5h-3.4c0 .3-.1.6-.1.9h4v.5h-3.7c.7.9 1.9 1.5 3.8 1.7-.1.2-.2.4-.3.6-2.1-.4-3.5-1.1-4-2.1-.4 1-1.8 1.7-4 2.2-.1-.2-.2-.4-.3-.6 2.1-.4 3.4-1 3.8-1.8h-3.4v-.5h3.6c.1-.3.1-.6.2-.9h-3.3v-.5h3.4c0-.3 0-.6 0-.9h-3.2v-2h3.3v-1h-2.1v-1.4h-1.7v-.5zm1.1 3.5v1h2.7c0-.3 0-.4 0-.4 0-.1 0-.2 0-.2 0-.1 0-.2 0-.3h-2.7zm1.2-3v.9h3.5v-.9zm4.7 3h-2.6v.6.4h2.6z" fill="#fbfcfa"/><path d="m393.6 386.7h.6v1.5h2.7v6.1h1.1v.6h-11v-.6h1.1v-6.1h2.7v-1.5h.6v1.5h2.1v-1.5zm-2.7 8.8.4.6c-1.2.6-2.5 1.3-3.8 1.9-.1-.2-.2-.4-.3-.6 1.2-.6 2.5-1.2 3.7-1.9zm-2.2-6.7v2.4h2.1v-2.4zm0 3v2.5h2.1v-2.5zm2.8-3v2.4h2.1v-2.4zm0 3v2.5h2.1v-2.5zm6 6.1c-1.4-.7-2.7-1.3-3.9-1.8l.3-.6c1.5.6 2.7 1.2 3.9 1.7zm-1.2-9.1h-2.1v2.4h2.1zm-2.1 3v2.5h2.1v-2.5z" fill="#fbfcfa"/><path d="m230.87 148.51c5.37 4.81 10.71 9.24 15.65 14.08 14.9 14.57 24.02 32.4 28.78 52.53 4.5 19.02 8.8 38.08 13.17 57.13.19.85.14 1.75.22 2.89-9.37 3.14-18.68 6.26-27.98 9.38-11.12 3.73-22.19 7.59-33.38 11.1-3.5 1.1-5.67 3.14-7.37 6.2-5.19 9.32-5.28 19.16-3.53 29.33 1.23 7.13 2.78 14.33 2.79 21.5.02 9.26-4.9 16.4-13.39 22.35-1.84-9.17-3.99-17.58-5.13-26.14-2.32-17.38.21-34.58 2.79-51.75.41-2.74.43-5.57.31-8.35-1.66-40.59-2.81-81.19-2.34-121.83.01-1.09-.09-2.18-.16-3.6-1.39 0-2.59 0-3.79 0-15 0-30.03.61-44.99-.18-13.1-.7-25.12-5.46-34.75-14.79-6.28-6.09-8.69-13.9-8.45-22.57.43-15.75 4.59-30.61 10.2-45.23 3.91-10.18 9.84-18.56 18.21-25.56 9.97-8.33 19.54-17.19 31.68-22.32 11.18-4.73 22.78-8.35 35.09-7.53 20.53 1.37 38.96 7.99 53.14 23.67 8.33 9.21 11.86 20.54 13.55 32.62.81 5.78.38 11.25-1.61 16.78-2.38 6.62-4.41 13.37-6.33 20.14-.78 2.73-2.19 4.71-4.33 6.49-8.45 6.99-16.79 14.11-25.17 21.18-1.02.85-2.01 1.72-2.88 2.48zm-7.4 17.07c-14.09 29.58-13.4 99.14-2.37 116.72 16.83-5.66 33.72-11.34 51.42-17.28-5.27-38.62-17.81-73.23-49.05-99.44zm-72.82-104.01c1.17 11.84 4.22 22.7 10.87 31.86 10.88 15.01 22.55 29.44 34.01 44.03.5.64 2.4.77 3.32.38 6.89-2.91 13.62-6.21 20.57-8.96 3.31-1.31 3.69-2.84 2.49-5.95-8.46-21.75-19.39-42.21-32.76-61.3-3.93-5.6-9.19-10.28-13.92-15.31-1.54-1.64-3.14-1.77-5.23-.3-5.49 3.85-11.14 7.46-16.83 11-2.04 1.26-3.38 2.53-2.52 4.55zm45.95-17.09c11.12 20.66 22.06 41.02 33.07 61.35.4.74 1.47 1.56 2.24 1.57 6.02.13 12.04.07 18.14.07 2.97-13.17 3.34-25.98-.24-38.77-2.01-7.19-4.88-13.92-10.28-19.3-7.52-7.48-17.01-10.41-27.19-11.65-2.16-.26-4.77-.83-6.49.05-3.31 1.71-6.14 4.36-9.25 6.68zm-58.43 36.44c-6.71 12.96-11.83 25.75-13.64 39.66-.95 7.35.53 14.21 4.56 20.52 1.24 1.94 2.67 2.86 5.11 2.95 10.84.37 21.67 1.05 32.51 1.48 4.74.19 9.49.03 14.67.03-14.31-21.42-28.58-42.76-43.21-64.64z" fill="#010106"/></svg>