<svg enable-background="new 0 0 400 400" viewBox="0 0 400 400" xmlns="http://www.w3.org/2000/svg"><path d="m374.8 390.4.4-.4c.7.5 1.3 1 1.8 1.4l-.5.5c-.5-.6-1.1-1.1-1.7-1.5zm1 7.3-.6-.3c.5-1.4 1.1-2.8 1.5-4.3.2.1.4.2.6.3-.5 1.3-1 2.8-1.5 4.3zm-.4-10.3.4-.4c.4.3 1 .8 1.7 1.4l-.5.5c-.4-.5-1-1-1.6-1.5zm2.5.3h1.7v-1h.6v1h3.5v-1h.6v1h1.8v.5h-1.8v1.4h-2v1h3.2v2h-3.2v.9h3.3v.5h-3.4c0 .3-.1.6-.1.9h4v.5h-3.7c.7.9 1.9 1.5 3.8 1.7-.1.2-.2.4-.3.6-2.1-.4-3.5-1.1-4-2.1-.4 1-1.8 1.7-4 2.2-.1-.2-.2-.4-.3-.6 2.1-.4 3.4-1 3.8-1.8h-3.4v-.5h3.6c.1-.3.1-.6.2-.9h-3.3v-.5h3.4c0-.3 0-.6 0-.9h-3.2v-2h3.3v-1h-2.1v-1.4h-1.7v-.5zm1.1 3.5v1h2.7c0-.3 0-.4 0-.4 0-.1 0-.2 0-.2 0-.1 0-.2 0-.3h-2.7zm1.2-3v.9h3.5v-.9zm4.7 3h-2.6v.6.4h2.6z" fill="#fbfcfa"/><path d="m393.6 386.7h.6v1.5h2.7v6.1h1.1v.6h-11v-.6h1.1v-6.1h2.7v-1.5h.6v1.5h2.1v-1.5zm-2.7 8.8.4.6c-1.2.6-2.5 1.3-3.8 1.9-.1-.2-.2-.4-.3-.6 1.2-.6 2.5-1.2 3.7-1.9zm-2.2-6.7v2.4h2.1v-2.4zm0 3v2.5h2.1v-2.5zm2.8-3v2.4h2.1v-2.4zm0 3v2.5h2.1v-2.5zm6 6.1c-1.4-.7-2.7-1.3-3.9-1.8l.3-.6c1.5.6 2.7 1.2 3.9 1.7zm-1.2-9.1h-2.1v2.4h2.1zm-2.1 3v2.5h2.1v-2.5z" fill="#fbfcfa"/><g fill="#010106"><path d="m201.24 95.79c-10.98-.88-20.8-1.59-30.59-2.52-1.35-.13-2.92-1.05-3.85-2.09-5.49-6.19-10.76-12.58-16.23-18.78-2.99-3.39-3.8-7.42-3.29-11.58.68-5.52 1.93-10.98 3.03-16.44.16-.8.7-1.74 1.35-2.19 10.24-7.03 20.5-14.06 33.02-16.55 8.17-1.62 16.36-.71 24.29 1.07 7.57 1.7 15.21 3.89 22.21 7.17 12.34 5.79 16.2 17.12 17.05 29.82.05.68-.33 1.55-.8 2.07-5.55 6.14-10.85 12.55-16.83 18.24-8.45 8.03-18.89 11.63-29.36 11.78zm-.42-7.91c.33.15.66.29.99.44 8.6-3.12 17.21-6.19 25.75-9.46.67-.26 1.21-1.92 1.15-2.88-.6-10.03-1.18-20.07-2.13-30.07-.24-2.52-1.22-5.37-2.81-7.29-5.12-6.17-18.81-7.65-25.87-2.86 7.16 16.82 9.65 34.19 2.92 52.12zm-8.88-.92c-3.13-6.36-6.07-12.23-8.89-18.16-.55-1.15-1.02-2.55-.88-3.76.56-5.22 1.38-10.41 2.07-15.62.6-4.58 1.15-9.17 1.73-13.74-7.75-.81-16.63 2.71-23.52 9.38 8.48 10.64 8.06 23.42 7.59 36.22-.01.22 0 .45 0 .67v5.01zm-35.24-36.39c-5.13 7.2-5.9 13.84-1.9 21.23 1.27 2.35 3.64 5.84 5.45 5.81 3.76-.06 3.29-4.38 3.8-7.16 1.65-9.04-1.08-16.13-7.35-19.88zm33.88-5.87c-1.24 11.88-4.19 23.8 4.39 34.41 5.2-15.34 5.4-28.92-4.39-34.41zm43.22-1.64c-5.89 9.8-5.83 21.43-.04 28.95 4.17-2.74 6.91-6.17 5.93-11.59-.25-1.41-.08-2.9-.08-4.35-.03-5.1-2.15-9.26-5.81-13.01z"/><path d="m239.13 369.53c-1.42-14.46-2.84-28.92-4.26-43.38-2.16-22.04-4.33-44.08-6.49-66.13-2.1-21.49-4.24-42.97-6.27-64.47-1.43-15.14-2.06-30.4-4.29-45.42-1.27-8.59-4.53-17.03-7.88-25.12-1.52-3.68-5.45-6.37-9.01-10.31-2.34 4.97-4.89 9.16-6.33 13.7-2.21 7.01-3.55 14.3-5.48 21.41-1.08 3.97-2.53 7.85-4.01 11.7-.53 1.36-1.64 2.5-3.25 3.52 0-6.98-.01-13.95.02-20.93 0-.4.26-.86.52-1.19 6.14-7.71 7.28-16.87 7.58-26.25.13-4.21.02-8.43.02-12.94 3.68.38 7.76.77 11.82 1.27.57.07 1.19.61 1.6 1.09 4.89 5.68 9.94 11.23 14.56 17.13 6.82 8.71 7.51 19.3 8.83 29.79 4.09 32.61 3.41 65.45 5.46 98.16.53 8.46 2.18 16.84 3.32 25.26 3.28 24.23 3.59 48.63 3.99 73.02.11 6.7.02 13.39.02 20.09-.16 0-.32 0-.47 0z"/></g></svg>