<svg enable-background="new 0 0 400 400" viewBox="0 0 400 400" xmlns="http://www.w3.org/2000/svg"><g fill="#010102"><path d="m216.79 157.8c-.71 1.86-1.74 3.67-2.06 5.59-.73 4.43-2.12 8.22-5.84 11.23-1.26 1.02-1.4 3.87-1.43 5.89-.04 2.96-.74 5.48-2.86 7.57-2.64 2.6-3.61 5.75-3.26 9.44.74 7.99-1.03 15.46-4.42 22.71-1.04 2.22-.99 4.95-1.52 7.88-1.75.13-3.82.28-6.21.45 0-.75-.15-1.31.02-1.75 1.72-4.43 2.22-9.01 2.07-13.74-.03-.84 1.2-1.96 2.12-2.52 1.09-.66 2.47-.85 3.88-1.3-.61-3.31-1.01-6.41-1.77-9.43-.68-2.72-.37-4.99 1.53-7.12 3.58-4.01 5.53-8.7 4.79-14.1-.8-5.9 2-10.27 5.37-14.57 1.54-1.97 3.41-3.86 2.22-6.9-.33-.83.35-2.15.75-3.17 3.05-7.8 5.88-15.71 9.34-23.33 2.08-4.6.63-8.01-2.19-11.24-7.45-8.51-9.23-18.33-4.98-29.29 2.8 1.65 4.47 4.14 3.65 7.11-2.15 7.79 1.34 13.57 5.31 19.79 3.1 4.85 6.56 6.68 12.04 6.08 6.05-.66 12.22-.76 15.67-7.01 3.44 2.95 3.61 4.04 1.45 8.7-2.08 4.5-6.03 6.93-10.46 8.21-4.56 1.32-6.12-.1-7.03-5.66-2.04.45-5.01.23-5.91 1.49-2.27 3.17-4.63 6.69-3.68 11.08.07.32.36.61.37.93.21 3.63-.36 7.52.78 10.82 1.17 3.38 3.17 6.59 2.19 10.15-1.45 5.26-.14 10.62-1.34 15.97-.77 3.41 1.37 7.37 1.63 11.13.25 3.72-.23 7.49-.36 11.25-.03.82-.26 1.84.11 2.44 3.16 5.14 4.42 10.87 4.23 16.7-.28 8.45-1.26 16.88-2.05 25.31-.1 1.02-.66 2.27-1.42 2.91-4.82 4.04-10.54 6.23-16.66 7.37-.64.12-1.75-.72-2.17-1.4-.68-1.11-.98-2.46-1.53-3.95 3.21-1.11 6.25-2.16 9.3-3.21 4.76-1.63 6.45-3.41 6.21-8.48-.25-5.21-1.04-10.45-2.16-15.56-1.03-4.67-1.25-8.98 1.53-13.13.44-.65.54-1.67.48-2.5-.58-7.43-1.27-14.86-1.87-22.29-.61-7.56-1.12-15.13-1.79-22.68-.11-1.28-.77-2.5-1.17-3.75-.32-.03-.61-.08-.9-.12z"/><path d="m194.95 373.02c.24-2.33.58-4.66.69-7 .12-2.55.38-5.17-.03-7.67-1.1-6.76-.86-13.24 1.6-19.77 1.26-3.34 1.42-7.15 1.8-10.77.77-7.42 1.36-14.86 2.02-22.3.08-.87.14-1.74.22-2.74-11.38-2.56-19.84 5.42-29.97 7.54-.26-.74-.57-1.63-.88-2.52-.47 3.39-3 4.33-5.6 5.36-2.69 1.07-5.38 2.23-7.89 3.65-2.85 1.62-5.59 3.16-9.08 2.79-.97-.1-2.01.79-3.06 1.07-2.72.74-5.49 1.28-8.17 2.12-1.44.46-2.75 1.35-4.09 2.11-1.09.62-2.12 1.32-3.5 2.19-.18-2.47-.31-4.1-.48-6.36-1.44.95-2.23 1.46-3.09 2.03-.21-.19-.55-.35-.66-.6-1.16-2.78-2.29-5.58-3.41-8.38-.24-.62-.74-1.43-.53-1.88 1.8-3.99.32-7.5-1.15-11.17-.93-2.33-.33-4.47 2.21-5.94 2.99-1.73 5.73-3.9 8.66-5.74.79-.49 1.9-.47 2.86-.69.21 1.08.75 2.2.58 3.22-.88 5.4-2.03 10.75-2.88 16.16-.27 1.72-.14 3.6.24 5.31.73 3.3 3.85 5.04 6.96 3.74 3.07-1.29 6.13-2.79 8.83-4.71 2.03-1.44 3.82-1.93 6.2-1.39 4.04.91 5 .07 5.92-3.85.27-1.13 1.36-2.57 2.39-2.93 8.44-2.92 16.95-5.62 25.44-8.38.21-.07.41-.24.62-.24 5.2-.03 10.4-.09 15.3-2.91-.94 3.06-1.42 5.1 1.87 6.52 1.08.46 2.06 3.15 1.74 4.51-1.83 7.77-1.27 15.58-.8 23.37.37 6.08.33 11.93-3.48 17.17-.62.86-.53 2.73-.05 3.81 2.12 4.81-.07 9.23-1 13.73-.55 2.69-1.51 5.32-2.47 7.9-.55 1.49-1.48 2.84-2.24 4.26-.54-.18-1.09-.4-1.64-.62z"/><path d="m239.34 69.2c3.31-7.01 6.93-13.11 14.59-15.57.8-.26 1.34-1.52 1.88-2.39 1.39-2.2 2.5-4.61 4.11-6.63 1.73-2.17 4.08-3.85 5.82-6.02 1.5-1.88 3.03-4 3.64-6.26.94-3.51 3.08-5.56 6.06-7.1 2.33 3.59-1.75 5.03-2.53 7.76 4.88.11 6.22 3.75 6.03 7.35-.45 8.67-1.18 17.38-2.66 25.92-.65 3.78-3.12 7.37-5.24 10.74-1.86 2.95-5.19 3.03-8.92 3.03.49-1.41.72-2.57 1.27-3.54 1.88-3.3 3.49-6.87 5.92-9.73 6.16-7.23 3.52-15.43 3.1-23.38-.1-1.94-1.67-2.28-3.09-.81-2.17 2.25-4.12 4.74-6.4 6.87-2.75 2.56-5.84 4.74-8.62 7.28-1.35 1.24-2.42 2.84-3.43 4.4-2.64 4.08-5.17 8.22-11.53 8.08z"/><path d="m163.12 268.8c-1.82-4.03.22-5 3.19-5.4 1.65-.22 3.72-.13 4.84-1.07 3.66-3.09 7.69-3.93 12.38-4.56 3.7-.5 4.41-5.33 4.99-9.03.77-4.91 1.59-9.81 2.42-14.92 3.66.75 3.97 2.76 3.33 4.93-1.38 4.68-3 9.3-4.81 14.84 4.42-.38 8.82-.75 13.26-1.13 1.04 3.27.17 4.88-3.28 5.65-3.05.68-6.08 1.48-9.16 2.01-4.61.79-8.76 2.29-11.96 5.97-.77.89-2.27 1.62-3.44 1.62-3.14 0-5.53 1.31-7.76 3.29-4.66 4.15-9.93 7.01-16.15 8.26-2.28.46-4.32 2.1-6.79 3.36-.56-.46-1.45-1.19-2.31-1.9-.69 2.44-1.33 4.67-2.15 7.56-2.05-1.66-3.23-2.62-4.68-3.8 6.67-5.16 13.04-10.23 19.6-15.04 1.07-.79 2.97-.51 4.49-.63 1.19-.08 2.37-.01 3.99-.01z"/><path d="m249.47 113.41c.58-4.7.76-9.18 1.76-13.47 1.32-5.64-.61-10.02-4.09-14.11-2.61-3.08-4.88-6.33-5.16-10.88 3.37.47 5.49 2.48 7.43 4.74 1.02 1.18 1.88 2.51 2.94 3.64 2.69 2.86 4.92 3.14 9.26 1.29 0 .34.12.72-.02.96-3.42 5.87-3.39 12.32-3.32 18.81.06 5.04-3.13 8.41-8.8 9.02z"/><path d="m155 124.6c7.29-3.57 13.74-3.14 20.17-2.06 9.25 1.56 18.41 1.45 27.6-.45 3.73-.77 7.24.32 10.6 3.02-3.47.76-6.9 1.75-10.4 2.24-13.07 1.83-26.2.94-39.3.37-2.67-.13-5.27-1.85-8.67-3.12z"/><path d="m235.5 68.32c.22 1.74.43 3.48.71 5.74-5.69-.38-9.97 2.11-13.93 5.57-.96.84-2.72 1-4.13 1.02-2.87.04-4.68.92-4.54 4.15.02.53-.24 1.07-.44 1.87-2.82-1.32-5.51-2.59-8.33-3.91-1.55 2.02-2.45 5.13-6.17 3.8.05-3.35 1-5.7 4.73-6.84 4.89-1.49 9.49-3.91 14.37-5.45 3.55-1.12 7.32-1.77 11.04-2.07 3.01-.22 5.63-.36 6.69-3.88z"/><path d="m151.14 98.49c3.38-1.66 6.64-3.64 10.16-4.92 6.59-2.4 13.4-4.23 19.99-6.64 4.19-1.53 7.3-.56 10.31 3.25-13.96 1.32-25.99 9.63-40.06 9.43-.14-.38-.27-.75-.4-1.12z"/><path d="m133.83 122.36c6.26-3.71 12.67-1.27 19.38-.99-2.94 3.16-16.83 3.66-19.38.99z"/><path d="m148.55 103.41c-5.29 4.53-10.35 8.86-15.42 13.19-.26-.08-.52-.16-.77-.25.61-1.36.92-3.01 1.89-4.03 2.75-2.92 5.89-5.47 8.65-8.38 1.78-1.86 3.41-2.23 5.65-.53z"/><path d="m127.88 122.65c-1.86 4.04-.85 9.8-7.95 11.51 2.65-4.39 4.94-8.2 7.22-12 .25.17.49.33.73.49z"/></g><path d="m385.2 377.6.6-.7c.6.4 1.3.9 1.9 1.5l-.6.7c-.8-.5-1.4-1-1.9-1.5zm.3 7.1c.6-1.4 1.1-2.9 1.5-4.5.3.1.6.3.9.4-.5 1.4-1 2.9-1.5 4.4zm.2-10.1.6-.6c.7.5 1.3 1.1 1.9 1.6l-.7.7c-.6-.6-1.2-1.2-1.8-1.7zm8.4-.8h.8v.9h1.8v.7h-1.8v1.8h-.8v-.3h-1.2v.9h3.3v2.6h-.8v-.4h-2.5c0 .3 0 .6-.1.8h3.4v.7h-3.5c0 .3-.1.6-.1.8h4v.7h-3.5c.7.9 1.9 1.3 3.6 1.5-.2.2-.4.5-.6.9-1.9-.3-3.2-1.1-3.8-2.3-.5 1.1-1.8 2-3.9 2.4-.2-.3-.4-.5-.6-.8 1.9-.4 3.1-.9 3.6-1.7h-3.2v-.7h3.5c.1-.2.1-.5.2-.8h-3.3v-.7h3.4c0-.2 0-.5 0-.8h-2.4v.3h-.8v-2.6h3.3v-.9h-1.2v.3h-.8v-1.8h-1.8v-.7h1.8v-.9h.8v.9h3.2zm-4.4 5.5h2.4c0-.3 0-.6 0-.9h-2.4zm1.2-3.1h3.2v-.8h-3.2zm4.4 2.2h-2.4v.9h2.5v-.9z" fill="#fcfbfa"/><path d="m389.2 385.8h.9v1.5h1.9v-1.5h.9v1.5h2.7v6h1.1v.9h-11.3v-.9h1.1v-6h2.7zm.2 8.7.5.8c-1.2.6-2.5 1.3-4 1.9-.2-.3-.3-.6-.6-.8 1.6-.6 3-1.3 4.1-1.9zm-2-4.3h1.9v-2.1h-1.9zm0 3.1h1.9v-2.2h-1.9zm2.7-3.1h1.9v-2.1h-1.9zm0 3.1h1.9v-2.2h-1.9zm2.4 1.3c1.4.6 2.7 1.2 4.1 1.8l-.5.9c-1.5-.7-2.8-1.4-4.1-1.9zm2.2-6.5h-1.9v2.1h1.9zm-1.9 5.2h1.9v-2.2h-1.9z" fill="#fcfbfa"/></svg>