<svg enable-background="new 0 0 400 400" viewBox="0 0 400 400" xmlns="http://www.w3.org/2000/svg"><path d="m197.57 129.28c10.1 7.76 15.67 18.3 21.16 29.02 2.47 4.82 5.99 9.12 9.13 13.58 1.31 1.86 3.16 2.47 5.55 2.28 8.47-.7 16.95-1.39 25.44-1.7 18.62-.67 36.02 3.27 51.2 14.62 13.01 9.73 16.54 21.29 11.83 36.96-2.58 8.57-6.74 15.94-13.96 21.51-3.08 2.37-7.22 4.99-8.02 8.21-.79 3.18 1.99 7.27 3.26 10.94 1.24 3.59 2.87 7.08 3.77 10.75 1.87 7.66 6.92 13.68 10.18 20.62.76 1.62 2.48 2.79 3.8 4.21 12-10.56 21.23-23.88 35.99-30.61 3.13 3.76 3.44 7.09.8 11.47-6.99 11.58-13.38 23.52-20.01 35.31-.55.97-1.02 2.04-1.76 2.84-5.69 6.16-11.36 12.35-17.18 18.37-6.13 6.34-14.19 9.66-21.99 13.28-31.18 14.47-63.93 22.87-98.27 24.66-29.65 1.54-58.05-3.93-85.28-15.87-10.22-4.48-20.76-8.27-31.22-12.18-3.23-1.21-5.97-2.8-8.23-5.44-8.7-10.13-17.19-20.45-21.31-33.42-1.42-4.48-1.61-9.35-2.39-14.22 5.33-.85 9.39-1.18 12.62 3.35 3.11 4.35 6.89 8.24 10.55 12.16 1.58 1.69 3.49 3.17 5.47 4.38 6.23 3.82 9.12 3.37 13.49-2.33 9.69-12.63 18.63-25.76 24.44-40.69 1.51-3.88 1.97-8.21 2.58-12.38.14-.92-.88-2.45-1.79-3.01-4.89-3.04-10.12-3.91-15.7-1.88-4.93 1.8-9.68 3.64-13.85 7.19-8.09 6.88-17.38 9.44-27.81 5.7-7.67-2.75-15.38-5.38-23-8.26-1.33-.5-2.3-1.99-4.12-3.64 3.92-1.3 6.81-2.38 9.77-3.23 23.05-6.59 43.77-18.54 65.45-28.28 10.29-4.62 20.62-9.16 30.91-13.78 2.34-1.05 4.65-2.18 6.89-3.43 5.6-3.14 9.26-7.57 9.6-14.31.1-1.99.52-4.02 1.13-5.92 1-3.11.08-5.23-2.51-7.12-7.95-5.82-16.7-9.67-26.58-10.01-3.43-.12-7 1.11-10.35 2.2-5.84 1.91-9.16.86-12.67-4.05-3.56-4.99-7.61-9.64-11.05-14.71-2.12-3.12-3.51-6.74-5.23-10.13.29-.35.59-.7.88-1.05 1.88 0 4.2-.72 5.58.12 9.42 5.68 20.16 7.07 30.45 9.95 9.67 2.71 19.28 5.64 28.89 8.54 1.04.31 2.15.82 2.91 1.56 5.28 5.17 10.78 10.16 15.56 15.76 2.04 2.39 2.57 6.08 3.75 9.2.47 1.23.86 2.49 1.39 4.01 11.33-3.45 22.46-6.69 33.48-10.28 2.85-.93 3.44-4.08 2.45-6.5-1.61-3.96-3.41-8.08-6.11-11.31-5.09-6.08-11.24-11.27-16.29-17.38-6.12-7.41-14.29-10.51-23.12-12.36-4.11-.86-8.48-1.28-12.65-.89-7.69.71-13.19-2.35-17.47-8.35-5.91-8.28-8.29-17.92-10.84-27.8 3.25-.6 5.8-.32 8.63 1.48 13.21 8.42 27.62 14.11 42.81 17.85 2.7.66 4.85.16 6.77-2.2 15.36-18.86 25.44-39.66 24.63-64.64-.13-3.99-.89-7.55-4.25-10.41-1.64-1.39-2.65-3.83-3.3-6-1.17-3.88.83-6.22 4.94-5.82 2.75.27 5.53.92 8.15 1.83 8.5 2.96 15.9 7.72 21.71 14.65 4.31 5.14 5.28 10.99 2.42 17.22-.5 1.08-1.19 2.18-2.06 2.97-4.13 3.73-6.69 8.27-7.81 13.74-1.31 6.43-4 12.24-7.81 17.64-8.18 11.61-16.12 23.38-24.42 35.46zm90.1 113.83c3.59-2.19 7.8-3.33 9.14-7.95 1.99-6.84 4.61-13.55 6.02-20.5 1.9-9.31-4.7-18.59-13.93-20.68-5.99-1.36-12-2.67-18.02-3.91-3.15-.65-6.4-1.75-9.52-1.51-17.93 1.41-34.7 7.03-51.11 14.21-11.29 4.94-21.21 12.35-33.48 15.76-11.5 3.2-22.18 9.4-33.12 14.49-7.19 3.35-13.67 7.85-19.73 13.38 7.08 4.83 13.96 9.42 20.68 14.23 1.17.84 2.24 2.5 2.44 3.91 1.07 7.8-.64 15.1-4.62 21.88-4.63 7.9-11.84 13.36-18.48 19.32-6.65 5.96-13.48 11.72-21.03 18.26 2.67 1.95 4.79 4.07 7.34 5.24 6.39 2.93 13.02 5.36 19.47 8.16 1.92.83 2.91.52 4.13-1.16 5.58-7.7 11.24-15.35 16.99-22.92 7.06-9.29 13.56-18.84 17.54-29.97 4.82-13.46 5.48-26.21-4.58-37.83-.61-.71-.69-2.35-.31-3.26.25-.59 1.78-.69 2.75-.91.41-.09.89.06 1.33.14 9.76 1.67 16.4 8.24 23.04 14.77.47.46.59 1.41.64 2.15 1.18 17.42-2.82 33.75-10.68 49.18-6.79 13.32-16.58 24.36-27.1 34.82-.8.79-1.99 2.47-1.74 2.8.91 1.21 2.21 2.42 3.61 2.92 2.4.85 4.98 1.23 7.51 1.68 8.35 1.47 16.69 3.93 25.07 4.07 12.93.21 25.92-.86 38.83-2 12.55-1.1 24.85-3.77 35.66-10.66 8.38-5.34 7.42-3.31 6.22-13.67-1.58-13.52-7.55-25.42-14.94-36.62-8.5-12.88-18.79-23.53-34.28-28.07-3.51-1.03-6.6-3.68-9.65-5.9-.81-.59-1.13-2.47-.92-3.62.15-.83 1.58-2.05 2.41-2.02 3.08.11 6.48-.06 9.15 1.18 10.11 4.73 20.08 9.78 29.91 15.07 10.41 5.6 17.09 14.57 21.28 25.44 3.14 8.13 6 16.37 9.01 24.55 1.22 3.31 2.49 6.6 3.88 10.26 7.92-5.16 15.45-10.07 22.9-14.92-7.83-25.27-23.3-49.84-42.94-66.57-11.91-10.15-24.56-19.44-36.97-29-2-1.54-2.51-2.85-.81-4.89 24.73 1.29 43.48 14.37 61.01 30.67z" fill="#010105"/><path d="m204.44 265.27c2.17-2.08 4.41-1.98 7.17-.65 6.52 3.13 12.72 6.56 16.77 12.85 2.52 3.91 3.55 8.19 2.8 12.79-2.26 13.79-6.52 27.09-13.58 39-4.36 7.36-11.11 13.47-19.07 17.45-2.2 1.1-5.13.76-7.73 1.08-.15-2.48-.93-5.13-.32-7.4 1.53-5.67 3.91-10.89 7.47-15.86 10.26-14.3 15.39-30.21 11.29-47.97-.89-3.91-3.16-7.52-4.8-11.29z" fill="#010105"/><g fill="#fcfbfa"><path d="m377.9 391.2c-.2.3-.4.5-.6.8-.7-.6-1.4-1-2.2-1.5.2-.3.4-.5.5-.8.6.4 1.4.8 2.3 1.5zm-1.8 6.1c-.2-.2-.5-.4-.9-.6.4-.6.8-1.2 1.2-1.9s.7-1.3.9-1.9c.3.3.5.5.8.7-.7 1.3-1.4 2.6-2 3.7zm2.2-9c-.3.3-.5.5-.6.8-.6-.6-1.3-1.1-2-1.5.3-.3.5-.5.6-.7.6.5 1.3.9 2 1.4zm.3.2v-.9h2 4.5c-.3 1.3-.6 2.5-1 3.6s-.9 2.1-1.4 3c.4.5 1 1 1.6 1.4s1.2.8 1.9 1.1c-.3.2-.5.4-.8.8-.4-.3-1-.7-1.6-1.2s-1.2-1.1-1.6-1.6c-.5.6-1.1 1.1-1.7 1.6s-1.4.9-2.1 1.4c-.1-.3-.3-.5-.7-.8.6-.2 1.2-.5 1.9-1s1.4-1.1 2-1.8c-.5-.8-.9-1.6-1.2-2.5s-.6-2-.8-3.2c-.4.1-.7.1-1 .1zm2.5 2.7c.3 1 .7 1.7 1 2.2.3-.5.6-1.1 1-2s.6-1.9.9-3h-3.2-.4c.1.9.3 1.8.7 2.8z"/><path d="m396.5 388.5v1.5 3.6h1.5v.9c-.4 0-1 0-1.7 0h-7.9c-.5 0-.9 0-1.2 0v-.9h1.3v-3.5c0-.7 0-1.2 0-1.6h2.4c0-.8 0-1.4 0-1.7h1c0 .3-.1.8-.1 1.7h1.5c0-.8 0-1.4 0-1.7h1c0 .3-.1.9-.1 1.7zm-8.2 9.2c-.2-.3-.5-.5-.8-.8.8-.3 1.4-.6 1.9-.9s1-.7 1.4-1.1c.3.3.6.5.9.8-1.6 1-2.8 1.6-3.4 2zm2.6-6.8v-1.6h-1.5v1.6zm0 2.7v-1.9h-1.5v1.9zm2.4-2.7v-1.6h-1.5v1.6zm0 2.7v-1.9h-1.5v1.9zm.2 2 .7-.8c.4.2.9.5 1.6.8s1.3.7 1.8 1c-.3.3-.5.5-.8.8-.4-.3-1.5-1-3.3-1.8zm2-4.7v-1.6h-1.4v1.6zm0 2.7v-1.9h-1.4v1.9z"/></g></svg>