<svg enable-background="new 0 0 400 400" viewBox="0 0 400 400" xmlns="http://www.w3.org/2000/svg"><path d="m203.66 282.07c4.82-.7 8.02-.42 11.17 2.1 8.2 6.56 16.97 12.43 24.94 19.26 4.61 3.96 7.82 9.51 12.19 13.8 3.03 2.97 6.96 5.05 10.54 7.43.58.39 1.89.68 2.15.39 2.31-2.62 5-5.12 6.5-8.18 1.35-2.76-.24-5.41-2.67-7.61-21.1-19.22-42.18-38.47-63.1-57.89-6.1-5.66-11.1-12.28-13.8-20.35-.14-.4-.21-.83-.33-1.32 4.06-2.19 7.54-.73 11.19.98 22.36 10.49 39.26 27.39 54.64 46.12 2.34 2.85 4.6 5.78 6.99 8.59 4.29 5.03 9.62 8 16.38 7.62 1.14-.06 2.6-.82 3.25-1.73 1.34-1.89 2.47-4.01 3.25-6.2 1.62-4.56.31-8.13-3.66-10.97-4.28-3.06-8.43-6.31-12.85-9.14-9.25-5.92-17.07-13.17-23.42-22.21-2.16-3.08-5.82-5.14-8.89-7.54-2.84-2.22-3.97-4.95-3.17-8.74 7.05 1.67 13.91 2.86 20.41 6.31 9.34 4.96 17.48 11 24.31 19.11 2.56 3.04 6.38 5.1 9.85 7.26 2.06 1.29 3.78.53 4.97-1.91 3.96-8.09 4.04-16.61 3.22-25.28-.38-3.99-.73-7.99-1.12-12.23 4.55.43 7.64 2.86 9.89 6.04 2.7 3.8 5.04 7.91 7.11 12.09 1.67 3.36 1.59 6.91.57 10.72-3.82 14.23-7.21 28.58-10.84 42.86-3.02 11.85-6.53 23.8-13.32 33.87-7.13 10.59-15.44 20.57-26.26 28.03-22.26 15.34-46.74 23.19-73.84 21.86-13.91-.68-26.65-5.4-38.29-13.04-.92-.61-1.78-1.35-2.56-2.14-3.99-4.08-7.66-8.53-11.97-12.24-8.06-6.94-11.73-16.14-14.44-25.94-1.79-6.46-3.34-12.99-4.99-19.49-2.63-10.33-6.16-20.29-11.41-29.63-1.45-2.57-2.34-5.45-3.49-8.19.24-.31.48-.63.71-.94 2.59.74 5.31 1.2 7.76 2.27 7.35 3.22 12.5 9.29 18.21 14.62.96.9 1.91 1.81 3.1 2.93 4.11-6.88 7.82-13.64 12.06-20.06 5.32-8.07 9.67-16.32 7.82-26.61 4.19-.06 7.31.24 9.2 4.03 1.84 3.69 4.32 7.05 6.23 10.71 3.65 6.99 2.55 13.34-3.05 18.9-8.5 8.44-16.75 17.16-25.66 25.14-4.99 4.47-6.01 9.52-4.88 15.34 1.06 5.47 2.74 10.82 4.28 16.19.23.82 1.1 1.87 1.82 2.01.66.12 1.76-.69 2.27-1.38 7.92-10.84 15.87-21.66 23.59-32.64 3-4.27 4.74-9.1 2.96-14.41 3.68-1.03 6.17-.29 8.37 2.41 3.79 4.66 8.48 8.63 9.84 14.93.54 2.53.44 4.37-1.91 6.08-2.42 1.77-4.52 4.01-6.56 6.23-9.82 10.71-19.58 21.49-29.51 32.42 5.25 4.95 11.52 8.69 18.55 10.61 27.57 7.56 53.8 5.1 77.87-11.45 1.07-.74 2.04-1.78 2.74-2.88 1.38-2.2 1.43-4.08-.95-6.07-8.76-7.31-17.34-14.85-25.98-22.32-5.62-4.86-10.86-10.12-14.1-16.89-1.67-3.51-2.51-7.45-3.88-11.64z" fill="#010105"/><path d="m117.48 118.55c3.31.57 6.99.41 9.84 1.87 6.64 3.39 12.95 7.45 19.26 11.45 13.47 8.53 22.95 20.74 30.63 34.4 5.36 9.53 11.04 18.93 14.29 29.51 1.05 3.41 4.58 4.03 7.2 3.57 5.99-1.05 11.88-2.78 17.69-4.64 2.25-.72 2.29-5.14.36-7.61-8.41-10.76-16.56-21.73-25.38-32.14-4.14-4.87-5.77-10.09-6.14-16.12-.08-1.31-.36-2.7-.94-3.86-9.19-18.51-14.16-38.3-17.91-58.47-1.21-6.48-2.84-12.91-3.58-19.45-.59-5.14-.12-10.4-.12-15.37 3.45-1.3 5.41-.69 7.41 1.89 5.55 7.15 7.56 15.44 8.22 24.09 1.33 17.24 7.21 33.1 14.31 48.59 1.3 2.83 3.66 5.24 5.82 7.59.87.95 2.39 1.62 3.67-.16 10.91-15.18 21.6-30.49 28.58-48.01 4.28-10.74 3.06-21.77 1.79-32.79-.86-7.47-.21-12.84 2.5-17.92 9.16 3.75 17.75 8.27 23.69 16.63.83 1.17 1.53 2.52 1.9 3.9 1.49 5.47 2.93 10.96 4.17 16.49.62 2.76-.09 5.33-2.47 7.2-5.63 4.41-9.35 10.35-13.53 16.05-11.62 15.86-23.71 31.39-36 46.74-4.71 5.89-5.43 10.02-.91 16.06 9.86 13.16 19.73 26.32 29.43 39.59 1.44 1.96 2.87 2.03 4.84 1.65 22.77-4.34 45.2-2.18 67.43 3.62 1.3.34 2.56.79 3.83 1.24 9.99 3.58 11.54 6.01 10.67 17.19-9.56-.45-19.15-.62-28.69-1.4-20.26-1.66-40.42-.97-60.58 1.4-7.89.93-15.83 1.33-23.71 2.28-2.53.31-4.95 1.61-7.4 2.52-.62.23-1.21.62-1.7 1.06-5.43 4.85-11.28 6.06-17.9 2.39-1.06-.59-2.67-.72-3.87-.42-20.28 4.99-40.61 9.83-60.77 15.28-7.51 2.03-14.63 5.48-21.89 8.38-9.43 3.77-19.1 4.41-28.98 2.33-5.95-1.25-5.94-1.28-6.94-7.72 36.58-11.44 73.2-22.89 110.56-34.58-1.48-3.59-2.32-6.45-3.76-8.97-11.48-20.05-27.16-36.89-41.94-54.4-3.02-3.58-6.59-6.72-9.42-10.43-2-2.62-3.19-5.86-4.73-8.83.38-.56.77-1.11 1.17-1.67z" fill="#010105"/><g fill="#fcfbfa"><path d="m377.9 391.2c-.2.3-.4.5-.6.8-.7-.6-1.4-1-2.2-1.5.2-.3.4-.5.5-.8.6.4 1.4.8 2.3 1.5zm-1.8 6.1c-.2-.2-.5-.4-.9-.6.4-.6.8-1.2 1.2-1.9s.7-1.3.9-1.9c.3.3.5.5.8.7-.7 1.3-1.4 2.6-2 3.7zm2.2-9c-.3.3-.5.5-.6.8-.6-.6-1.3-1.1-2-1.5.3-.3.5-.5.6-.7.6.5 1.3.9 2 1.4zm.3.2v-.9h2 4.5c-.3 1.3-.6 2.5-1 3.6s-.9 2.1-1.4 3c.4.5 1 1 1.6 1.4s1.2.8 1.9 1.1c-.3.2-.5.4-.8.8-.4-.3-1-.7-1.6-1.2s-1.2-1.1-1.6-1.6c-.5.6-1.1 1.1-1.7 1.6s-1.4.9-2.1 1.4c-.1-.3-.3-.5-.7-.8.6-.2 1.2-.5 1.9-1s1.4-1.1 2-1.8c-.5-.8-.9-1.6-1.2-2.5s-.6-2-.8-3.2c-.4.1-.7.1-1 .1zm2.5 2.7c.3 1 .7 1.7 1 2.2.3-.5.6-1.1 1-2s.6-1.9.9-3h-3.2-.4c.1.9.3 1.8.7 2.8z"/><path d="m396.5 388.5v1.5 3.6h1.5v.9c-.4 0-1 0-1.7 0h-7.9c-.5 0-.9 0-1.2 0v-.9h1.3v-3.5c0-.7 0-1.2 0-1.6h2.4c0-.8 0-1.4 0-1.7h1c0 .3-.1.8-.1 1.7h1.5c0-.8 0-1.4 0-1.7h1c0 .3-.1.9-.1 1.7zm-8.2 9.2c-.2-.3-.5-.5-.8-.8.8-.3 1.4-.6 1.9-.9s1-.7 1.4-1.1c.3.3.6.5.9.8-1.6 1-2.8 1.6-3.4 2zm2.6-6.8v-1.6h-1.5v1.6zm0 2.7v-1.9h-1.5v1.9zm2.4-2.7v-1.6h-1.5v1.6zm0 2.7v-1.9h-1.5v1.9zm.2 2 .7-.8c.4.2.9.5 1.6.8s1.3.7 1.8 1c-.3.3-.5.5-.8.8-.4-.3-1.5-1-3.3-1.8zm2-4.7v-1.6h-1.4v1.6zm0 2.7v-1.9h-1.4v1.9z"/></g></svg>