<svg enable-background="new 0 0 400 400" viewBox="0 0 400 400" xmlns="http://www.w3.org/2000/svg"><path d="m6.8 9.5c.6.3 1.3.7 2.1 1.1-.4.4-.7.8-.9 1.2-.7-.4-1.3-.8-1.8-1.1s-1.1-.6-1.6-.8c.2-.4.5-.8.7-1.2.4.2.8.5 1.5.8zm.9 6.9c-.3.6-.5 1.1-.7 1.7s-.4 1.1-.6 1.7c-.6-.4-1.1-.7-1.6-1 .7-1 1.2-1.8 1.5-2.4.3-.5.6-1.1.8-1.7.3-.6.5-1.2.8-1.8.3.3.8.6 1.3.8-.7 1.3-1.2 2.2-1.5 2.7zm.1-11c.4.3 1 .7 1.7 1.1-.5.2-.8.6-1.1 1.1-.5-.6-1-1-1.4-1.2s-.9-.6-1.5-.8c.2-.4.5-.7.9-1.1.5.3.9.6 1.4.9zm10.5 13.1c1 .4 2 .6 3.1.7-.4.4-.7.8-.8 1.3-.9-.2-1.9-.6-3-.9-1-.4-2-.9-2.8-1.6-.5.4-1.1.9-1.9 1.3s-1.9.9-3.3 1.2c-.1-.3-.5-.8-1.1-1.3 1 0 2.1-.3 3.2-.8 1.2-.5 1.9-1 2.3-1.7h-3.2c-.4 0-1 0-2 .1v-1.2c1 0 1.7.1 2 .1h3.3v-1h-2.3c-.2 0-.9 0-2 .1v-1.2c1.2 0 1.9.1 2 .1h2.3v-.8h-4.1c0-.7.1-1.2.1-1.6 0-.5 0-1.1-.1-1.8h4.1v-.7h-2.5c0-.6.1-1.1.1-1.6v-.6h-.5c-.4 0-1 0-1.8.1v-1.3c1.2 0 1.9.1 2.1.1h.2c0-.3 0-.8-.1-1.4h1.4c0 .6-.1 1-.1 1.4h3.4c0-.4 0-.8-.1-1.3h1.5c0 .4-.1.9-.1 1.3.7 0 1.5 0 2.5-.1v1.2c-1 0-1.8-.1-2.5-.1v.6c0 .3 0 .8.1 1.5h-2.5v.8h4.1c0 .7-.1 1.3-.1 1.8s0 1 .1 1.5h-4.1v.8h1.4c.8 0 1.8 0 2.9-.1v1.2c-1 0-1.9-.1-2.8-.1h-1.5v1h3.2c.3 0 1 0 2.1-.1v1.2c-1.1 0-1.8-.1-2.1-.1h-3.4l-.1.1c1.4 1 2.4 1.5 3.4 1.9zm-4.1-6.7v-1.3h-2.7v1.3zm2.2-4.1v-1.1h-3.4v1.1zm1.9 4.1v-1.3h-2.8v1.3z" fill="#fafbfa"/><path d="m37 6.7v2.3 5.4c1 0 1.8 0 2.2-.1v1.3c-.6 0-1.5-.1-2.5-.1h-11.9c-.7 0-1.3 0-1.8.1v-1.3c.5 0 1.1.1 2 .1v-5.2c0-1 0-1.8-.1-2.5h3.7c0-1.3 0-2.1-.1-2.5h1.5c0 .4-.1 1.3-.1 2.5h2.2c0-1.2 0-2.1-.1-2.6h1.5c0 .4-.1 1.3-.1 2.6zm-12.3 13.7c-.3-.4-.7-.8-1.1-1.1 1.1-.4 2.1-.9 2.9-1.3.8-.5 1.5-1 2.1-1.6.4.4.9.8 1.3 1.1-2.5 1.4-4.2 2.4-5.2 2.9zm3.9-10.1v-2.4h-2.2v2.4zm0 4.1v-2.9h-2.2v2.9zm3.5-4.1v-2.4h-2.2v2.4zm0 4.1v-2.9h-2.2v2.9zm.4 2.9 1-1.1c.6.3 1.4.7 2.5 1.3s2 1.1 2.7 1.5c-.4.4-.8.8-1.1 1.3-.8-.8-2.5-1.7-5.1-3zm3.1-7v-2.4h-2.1v2.4zm0 4.1v-2.9h-2.1v2.9z" fill="#fafbfa"/><g fill="#010103"><path d="m143.5 265.06c3.87 10.45 4.63 21.24 4.79 32.1.04 2.46-.06 4.93.03 7.39.09 2.56 1.55 3.54 4 2.7 11.43-3.94 19.51-11.75 24.46-22.52 1.61-3.49 1.36-7.85 1.83-11.83.64-5.49 1.16-11 1.73-16.49.54-.01 1.07-.01 1.61-.02.61 3.15 1.48 6.27 1.77 9.44.83 9.26-.77 18.28-3.3 27.15-.28.99-1.04 1.98-1.83 2.65-8.76 7.45-16.93 15.66-27.43 20.86-1.11.55-2.16 2.4-2.19 3.67-.05 2.75.25 5.6 1 8.25 1.45 5.16 3.03 10.31 5.1 15.24.87 2.06 3.11 3.55 4.93 5.5 11.66-11.01 18.61-23.78 19.64-39.6 3.13 4.98 3.03 10.08 1.96 15.17-1.83 8.64-4.61 16.89-11.93 22.61-1.48 1.16-3.45 1.69-5.23 2.44-1.39.58-2.83 1.05-4.24 1.58-.11.51-.22 1.01-.33 1.52 5.05 3.95 9.91 8.17 15.23 11.72 2.04 1.37 5.18 1.91 7.68 1.63 7.09-.8 14.17-1.92 21.13-3.5 5.26-1.19 8.27-6.7 6.72-11.3-.43-1.27-1.35-2.77-2.47-3.34-5.55-2.81-7.82-7.54-7.88-13.36-.09-8.03.18-16.06.36-24.08.02-.84.49-1.66 1.55-2.5.61 4.95 1.41 9.88 1.78 14.84.43 5.85 1.06 11.58 3.99 16.81.27.49.43 1.13.83 1.44 2.24 1.72 4.37 3.92 6.91 4.68.83.25 3.18-3.16 4.2-5.21 3.11-6.24 5.36-12.77 5.52-19.86.06-2.62-.65-4.7-3.06-6.22-2.64-1.67-4.9-3.94-7.54-5.59-7.08-4.41-10.89-11.02-13.1-18.77-3.31-11.58-3.67-23.29-1.62-35.43 3.08 2.27 2.72 5.41 3.11 8.32 1.1 8.17 1.84 16.41 3.5 24.47 1.87 9.12 8.54 14.99 15.79 20.08 2.96 2.08 4.6 1.18 5.09-2.38 2.12-15.27 4.19-30.55 6.28-45.82.09-.65.18-1.3.27-1.95.32-.09.65-.18.97-.27 1.03 3.14 2.6 6.23 2.95 9.45.45 4.07-.05 8.25-.23 12.37-.11 2.45-.72 4.92-.54 7.35 1.12 15.65-2.62 30.4-7.94 44.9-2.58 7.03-5.1 14.08-7.64 21.12-5.48 15.18-23.32 24.99-39.01 21.46-.76-.17-1.56-.25-2.29-.51-5.52-2-11.04-4.04-16.55-6.06-8.16-10.43-17.3-20.14-19-34.36-1.78-14.91-3.4-29.79-2.7-44.82.31-7.75.87-15.43 1.34-23.12z"/><path d="m150.62 26.59c.64 5.76 1.94 11.54 1.8 17.29-.3 12.4-1.43 24.77-2.03 37.17-.23 4.91.1 9.84.1 14.76-.01 8.38.14 16.77-.16 25.14-1.15 31.18 5.24 60.58 21.89 87.12 5.29 8.44 13.24 15.17 19.22 23.24 4.54 6.13 9.69 8.31 17.26 7.78 14.72-1.04 29.49-1.25 44.25-1.62 3.54-.09 7.15.31 10.63 1 1.29.26 2.29 2 3.42 3.06-.97.93-1.79 2.29-2.94 2.7-2.39.85-4.94 1.52-7.46 1.69-4.91.33-9.84.28-14.76.36-.55.01-1.27.11-1.64-.18-3.13-2.52-6-1.28-9.45-.34-3.72 1.01-7.94.04-11.94.15-9.16.24-18.32.48-27.47.95-18.65.96-37.3 2.09-55.95 3.1-6.05.33-6.05.27-8.88-6.46 2.61-.42 5.07-1.05 7.55-1.16 17.2-.75 34.4-1.33 51.59-2.15 2.17-.1 4.3-1.27 6.44-1.95.16-.48.33-.96.49-1.45-.86-.5-1.76-.94-2.56-1.52-6.1-4.48-10.64-10.44-15.72-15.95-15.3-16.6-20.45-37.58-25.93-58.38-5.54-21.01-6.45-42.39-3.65-63.93.27-2.09.08-4.24.18-6.35.47-9.47.86-18.95 1.48-28.42.75-11.37 1.7-22.73 2.59-34.09.04-.5.27-.99.41-1.49.42-.03.83-.05 1.24-.07z"/><path d="m181.8 29.27c2.96 2.04 3.75 4.69 3.73 7.56-.03 3.46.07 7.01-.62 10.36-3.13 15.25-1.88 30.76-2.96 46.12-.47 6.65-.86 13.35-.61 20 .29 7.68 1.22 15.35 2.1 22.99.86 7.44 2 14.84 3.06 22.26.17 1.2.41 2.44.86 3.56 4.11 10.26 8.21 20.52 12.47 30.72 1.28 3.06 2.81 6.08 4.62 8.86 6.11 9.36 12.41 18.6 18.63 27.89.53.79.97 1.64.93 3-.72-.53-1.52-.98-2.14-1.61-13.66-13.79-24.73-29.43-33.01-46.97-4.47-9.47-6.95-19.54-7.83-30-.13-1.53-.49-3.13-1.15-4.5-3.28-6.79-4.35-14.1-4.74-21.45-.7-13.39-1.65-26.82-1.28-40.19.41-14.62 1.93-29.23 3.54-43.77.54-4.99 2.84-9.77 4.4-14.83z"/><path d="m228.59 47.27c.29 1.83.94 3.67.83 5.47-1.35 21.17-1.23 42.5-7.65 63.08-4.44 14.22-11.54 26.86-21.37 37.96-1.93 2.18-4.63 3.68-6.97 5.49-.42-.28-.84-.56-1.26-.84.96-2.27 1.37-5.06 2.96-6.74 13.38-14.15 20.43-31.26 24.26-50.01.57-2.79 1.96-5.41 2.77-8.17.6-2.05 1.55-4.35 1.15-6.28-1.56-7.49.75-14.69 1.13-22.01.23-4.45 1.05-8.88 1.74-13.29.26-1.62.93-3.18 1.41-4.76.32.04.66.07 1 .1z"/></g></svg>