<svg enable-background="new 0 0 400 400" viewBox="0 0 400 400" xmlns="http://www.w3.org/2000/svg"><path d="m28.34 243.18c12.43-2.64 24.42-4.42 35.94-7.79 23.37-6.84 46.49-14.53 69.69-21.91 7.23-2.3 14.46-4.66 21.62-7.18 2.29-.81 4.53-1.99 6.49-3.41 3.75-2.72 4.72-6.88 2.71-11.03-.46-.95-1.59-1.91-2.59-2.19-4.29-1.23-8.64-2.34-13.02-3.21-1.39-.27-3.08.06-4.42.63-2.54 1.07-4.92 2.51-7.56 3.9-.36-1.39-.85-2.44-.87-3.5-.07-5.09-2.8-7.32-7.62-8.24-17.71-3.38-24.76-17.45-32.26-32.4 1.82.38 2.74.5 3.63.76 15.33 4.52 30.67 9.01 45.95 13.65 2.29.7 3.54.23 5.08-1.53 7.93-9.11 16.15-18 21.44-29.06.33-.69.74-1.34 1.09-1.96-4.49-4.31-7.64-4.67-12.63-1.56-6.02 3.75-11.93 3.24-16.58-1.98-11.09-12.46-19.75-26.51-26.46-41.77-.62-1.4-.97-2.93-1.63-4.99 3.94 0 7.46-.13 10.96.1.78.05 1.86 1.26 2.16 2.15 2.09 6.14 6.58 8.63 12.68 10.18 15.48 3.95 30.8 8.51 46.14 12.99 2.38.7 3.58.22 4.87-1.82 6.94-10.95 14.21-21.7 21-32.75 5.89-9.58 8.61-20.34 9.97-31.4.2-1.59-1.1-3.83-2.4-5.01-1.65-1.51-1.49-2.8-.78-4.42.73-1.67 1.49-3.05 3.88-2.78 15.88 1.81 30.84 6.47 44.55 14.69 5.96 3.57 10.34 8.69 10.41 16.18.01 1.43-.87 3.14-1.87 4.25-7.82 8.68-18.34 13.34-28.29 18.87-2.75 1.53-5.32 3.67-7.4 6.03-6.71 7.64-12.75 15.84-20.86 22.23-5.01 3.95-4.7 9.29.1 13.59 4 3.59 7.79 7.47 12.1 10.64 12.49 9.2 20.26 22.23 28.66 34.73 1.8 2.68 3.57 3.69 6.78 3.26 23.42-3.15 46.93-1.01 70.38-.51 5.49.12 10.94 2.81 16.39 4.37.73.21 1.61.61 1.98 1.2 1.6 2.59 3.91 5.21 4.14 7.98.11 1.33-3.64 3.8-5.96 4.33-3.58.82-7.48.84-11.17.43-5.43-.6-10.75-2.36-16.18-2.72-4.62-.31-9.34.54-13.99 1.08-13 1.5-26.08 2.61-38.95 4.86-8.53 1.49-16.75 4.76-25.14 7.08-17.12 4.73-34.3 9.24-51.38 14.11-5.67 1.62-11.08 4.15-16.65 6.14-16.93 6.06-33.93 11.91-50.79 18.13-9.53 3.52-18.92 7.46-28.22 11.55-2.22.98-4.39 2.99-5.66 5.08-6.55 10.84-16.62 10.97-27.17 9.03-14.47-2.66-27.5-9.17-40.28-16.13-1.01-.55-1.48-2.14-2.01-2.95zm213.77-68.95c-5.16-9.76-11.77-17.24-19.53-23.77-6.41-5.38-13.84-8.46-22.06-9.79-2.62-.42-4.54.1-6.45 2.21-5.69 6.3-11.67 12.34-17.52 18.5-4.15 4.38-3.5 9.71 1.56 13.03 3.45 2.27 6.81 4.69 10.37 6.77 2.86 1.67 5.82 3.51 8.98 4.29 16.76 4.17 30.55-3.49 44.65-11.24z" fill="#010105"/><path d="m332.97 264.78c0-3.33 0-6.45 0-9.57.01-4.79 2.58-7.15 7.22-5.84 3.6 1.02 6.89 3.06 10.37 4.54 6.06 2.58 9.89 6.87 11.21 13.46.56 2.82 1.76 5.5 2.77 8.55-16.33 11.28-24.28 29.26-35.76 44.44-1.45 1.92-3.27 3.65-5.2 5.08-9.63 7.11-19.22 14.27-29.07 21.06-14.93 10.29-31.35 16.83-49.32 19.97-10.31 1.8-20.37 5.09-30.49 7.89-7.5 2.08-15.01.96-22.22-.62-16.69-3.65-33.2-8.08-49.78-12.26-.92-.23-1.87-.81-2.55-1.48-14.74-14.53-29.6-28.95-44.1-43.72-5.87-5.98-10.58-12.98-14.11-21.09 5.04-1.48 9.84-1.06 14.62.08 2.28.54 4.49 1.38 6.76 1.95 4.37 1.11 7.88 3.33 10.66 6.98 2.3 3.02 4.96 5.78 7.61 8.5 1.63 1.67 3.4 3.27 5.35 4.55 4.88 3.22 6.32 2.71 8.51-2.57 4.83-11.67 9.73-23.3 14.4-35.03.72-1.82.78-4.12.45-6.09-.87-5.27-2.11-10.47-3.34-16.33 7.76 1.94 15.29 3.17 22.31 5.77 7 2.59 9.38 10.98 5.89 18.31-6.77 14.23-13.74 28.36-20.63 42.53-1.66 3.42-3.42 6.79-4.93 10.27-.54 1.25-1.1 3.59-.56 4.01 1.9 1.46 4.46 3.44 6.45 3.14 3.67-.55 6.78-2.72 8.78-6.46 10.74-19.98 21.81-39.78 32.55-59.76 8.84-16.44 13.73-33.73 9.86-52.6-.09-.42-.01-.87-.01-1.79 2.25.63 4.36 1.1 6.39 1.82 6.11 2.15 12.28 4.17 18.24 6.68 2.92 1.23 5.73 3.12 8.06 5.28 4.59 4.27 5.66 9.7 3.88 15.69-.86 2.89-1.81 5.76-2.52 8.69-1.2 4.97 0 7.51 4.44 9.89 10.15 5.45 20.37 10.76 30.42 16.37 6.24 3.48 12.18 7.48 18.34 11.1 2.5 1.47 4.06 3.25 4.29 6.26.14 1.86.82 3.68 1.24 5.49 10.81-.55 19.34-13.84 15.26-23.68-.46-1.1-1.69-1.98-2.73-2.71-14.97-10.46-29.55-21.43-42.26-34.62-3.77-3.91-6.88-8.45-10.37-12.8 9.21-4.81 15.82-5.29 23.13 1.99 9.44 9.4 21.14 15.73 32.83 21.88 4.81 2.53 10.04 4.29 15.1 6.36.7.27 1.5.26 2.56.44zm-37.79 51.71c-.17-.36-.33-.72-.5-1.08-23.65-8.87-47.31-17.75-71.11-26.68-.93 1.46-1.74 2.65-2.46 3.89-9.13 15.71-19.28 30.63-32.69 43.09-.77.72-1.55 1.78-1.68 2.76-.46 3.52-.64 7.08-.91 10.53 5.89 2.43 11.57 3.1 17.28 2.04 9.99-1.86 20-3.6 29.94-5.7 15.09-3.19 30.25-6.47 43.45-15 6.49-4.2 12.47-9.21 18.68-13.85z" fill="#010105"/><g fill="#fcfbfa"><path d="m377.9 391.2c-.2.3-.4.5-.6.8-.7-.6-1.4-1-2.2-1.5.2-.3.4-.5.5-.8.6.4 1.4.8 2.3 1.5zm-1.8 6.1c-.2-.2-.5-.4-.9-.6.4-.6.8-1.2 1.2-1.9s.7-1.3.9-1.9c.3.3.5.5.8.7-.7 1.3-1.4 2.6-2 3.7zm2.2-9c-.3.3-.5.5-.6.8-.6-.6-1.3-1.1-2-1.5.3-.3.5-.5.6-.7.6.5 1.3.9 2 1.4zm.3.2v-.9h2 4.5c-.3 1.3-.6 2.5-1 3.6s-.9 2.1-1.4 3c.4.5 1 1 1.6 1.4s1.2.8 1.9 1.1c-.3.2-.5.4-.8.8-.4-.3-1-.7-1.6-1.2s-1.2-1.1-1.6-1.6c-.5.6-1.1 1.1-1.7 1.6s-1.4.9-2.1 1.4c-.1-.3-.3-.5-.7-.8.6-.2 1.2-.5 1.9-1s1.4-1.1 2-1.8c-.5-.8-.9-1.6-1.2-2.5s-.6-2-.8-3.2c-.4.1-.7.1-1 .1zm2.5 2.7c.3 1 .7 1.7 1 2.2.3-.5.6-1.1 1-2s.6-1.9.9-3h-3.2-.4c.1.9.3 1.8.7 2.8z"/><path d="m396.5 388.5v1.5 3.6h1.5v.9c-.4 0-1 0-1.7 0h-7.9c-.5 0-.9 0-1.2 0v-.9h1.3v-3.5c0-.7 0-1.2 0-1.6h2.4c0-.8 0-1.4 0-1.7h1c0 .3-.1.8-.1 1.7h1.5c0-.8 0-1.4 0-1.7h1c0 .3-.1.9-.1 1.7zm-8.2 9.2c-.2-.3-.5-.5-.8-.8.8-.3 1.4-.6 1.9-.9s1-.7 1.4-1.1c.3.3.6.5.9.8-1.6 1-2.8 1.6-3.4 2zm2.6-6.8v-1.6h-1.5v1.6zm0 2.7v-1.9h-1.5v1.9zm2.4-2.7v-1.6h-1.5v1.6zm0 2.7v-1.9h-1.5v1.9zm.2 2 .7-.8c.4.2.9.5 1.6.8s1.3.7 1.8 1c-.3.3-.5.5-.8.8-.4-.3-1.5-1-3.3-1.8zm2-4.7v-1.6h-1.4v1.6zm0 2.7v-1.9h-1.4v1.9z"/></g></svg>