<svg enable-background="new 0 0 400 400" viewBox="0 0 400 400" xmlns="http://www.w3.org/2000/svg"><path d="m55.69 304.14c5.23-.33 10.21-.68 15.19-.95 6.14-.34 12.29-.75 18.43-.86 3.16-.05 4.18-1.05 4.56-4.39 2.52-22.12.96-44.27.77-66.41-.12-14.55-.14-29.1-.19-43.65-.01-3.95 3.63-6.79 6.85-4.57 6.36 4.39 13.03 3.13 19.95 3.16 10.82.04 21.62 1.29 32.44 1.96 5.47.34 10.94.7 16.42.74 3.24.02 5.27 1.45 5.63 4.42.47 3.81 1.24 7.96.25 11.5-3.15 11.24-3.84 22.59-3.65 34.17.27 16.67-.04 33.36.15 50.04.05 4.01-.6 7.46-3.33 10.45-.8.88-1.36 2-2.5 3.73 4.95 1.14 9.43 2.5 14 3.18 15.07 2.25 30.23 3.37 45.48 2.48 2.07-.12 3.84-.29 4.76-2.75.83-2.23 1.18-3.77-.54-5.97-6.13-7.84-8.65-17.08-7.5-26.81 2.75-23.24.86-46.51 1.16-69.77.05-3.62 1.42-4.8 4.5-5.52 9.4-2.2 18.95-2.16 28.37-1.11 15.88 1.76 31.68 4.27 47.53 6.42 2.39.32 4.31 1.11 4.95 3.66 1 3.98 3.02 8.04 2.75 11.93-1.49 21.1.85 42.02 2 63.01.51 9.35-.73 18.58-3.56 27.48-.95 2.99-3.17 5.58-4.85 8.43 5.27 4.43 11.62 6.03 18.21 6.91 5.43.72 10.88 1.41 16.34 1.81 1.03.08 2.85-1.06 3.14-2 1.23-3.91 2.89-7.98 2.8-11.95-.24-10.94-.76-21.92-2.11-32.77-2.24-17.98-1.79-35.96-1.39-53.97.64-28.75 1.21-57.48-1.34-86.21-.64-7.26.78-14.71 1.31-22.07.52-7.25 1.01-14.51 1.73-21.75.26-2.59-.6-3.97-2.98-4.73-11.7-3.73-23.23-8.13-35.11-11.12-22.32-5.63-44.77-10.79-67.31-15.43-8.48-1.74-17.35-1.83-26.06-2.09-21.66-.65-42.88-4.59-64.23-7.66-5.84-.84-12.01.17-17.97.81-19.69 2.09-39.36 4.32-59.02 6.67-5.99.71-11.89 2.12-17.87 2.92-4.69.63-7.02-1.63-6.41-6.08.15-1.12 1.33-2.45 2.39-3.03 11.65-6.4 24.6-8.47 37.37-11.34 22.41-5.05 45.03-4.99 67.76-3.92 4.8.23 9.67-.04 14.39.67 2.68.4 5.33 2.05 7.64 3.64 2.98 2.06 5.86 3.15 9.6 2.53 4.62-.77 9.36-1.37 14.02-1.21 6.66.23 13.35.89 19.94 1.95 30.68 4.95 61.33 10.13 92.01 15.12 2.42.39 4.25 1.19 5.44 3.3 1.4 2.48 3.55 3.73 6.25 4.6 10.33 3.3 20.59 6.81 30.88 10.25 4.74 1.58 8.21 6.08 6.88 10.74-4.43 15.53-.89 30.98.34 46.32 1.97 24.63 5.4 49.14 7.97 73.72.46 4.39.15 8.96-.49 13.35-1.82 12.55-.15 25.02.42 37.51.52 11.51 1.25 23.02 1.84 34.53.05.98.01 2.08-.36 2.96-4.67 10.91-5.1 22.61-6.44 34.13-.8 6.89-1.46 13.79-2.23 20.69-.38 3.41-2.97 5.6-6.38 5.49-3.95-.13-7.22-1-9.25-5.13-2.01-4.09-5.11-7.63-7.26-11.67-1.73-3.26-4.09-4-7.53-4.01-13.54-.05-27.09 0-40.6-.73-13.16-.71-26.29-2.16-39.4-3.59-22.57-2.45-45.16-4.78-67.66-7.82-16.16-2.18-32.18-.28-48.22.5-8.79.43-17.1-1.35-25.56-2.7-4.08-.65-8.12-1.61-12.21-2.19-1.47-.21-3.19-.07-4.54.52-3.25 1.41-6.47 1.61-9.8.61-5.77-1.73-11.62-3.25-17.27-5.33-6.9-2.52-10.82-7.66-11.69-15.75zm246.3 13.91c0-1.52.07-2.51-.01-3.49-1.21-13.81-2.52-27.62-3.63-41.44-1.1-13.7-3.21-27.35-1.86-41.17.19-1.96-.09-4.04-.52-5.97-1.53-6.86-5.1-9.99-11.99-10.78-1.44-.17-2.89-.31-4.33-.48-8.77-1.02-17.54-2.1-26.32-3.06-2.93-.32-7.46 2.45-7.53 4.75-.27 8.7-.64 17.42-.35 26.12.21 6.34 2.11 12.67 1.98 18.98-.23 11.48-1.6 22.93-2.1 34.41-.2 4.71.35 9.5 1.08 14.18.37 2.39 2.27 3.67 5.12 3.8 6.92.33 13.82 1.09 20.73 1.67 9.78.82 19.57 1.64 29.73 2.48zm-191.58-110.1c0 3.65.04 7.11-.01 10.56-.41 27.38-1.75 54.77.82 82.13.26 2.72 1.08 4.04 3.73 4.45 6.62 1.02 13.18 2.45 19.83 3.15 6.37.68 12.7 0 18.7-2.68 2.08-.93 2.93-2.11 2.88-4.51-.35-15.54-.64-31.08-.73-46.63-.04-7.92-.08-15.88.71-23.74.77-7.65 2.61-15.19 3.93-22.78.69-3.96.02-5.54-3.94-6-5.74-.67-11.71-1.42-17.33-.54-9.46 1.49-18.72 4.24-28.59 6.59z" fill="#010100"/><path d="m28.79 62.31c6.19 4.02 8.88 9.78 9.67 16.03 1.25 9.85 2 19.81 2.21 29.73.48 22.71.02 45.45.87 68.14.62 16.4 2.78 32.75 4.11 49.13.22 2.72-.34 5.5-.52 8.26-.23 3.54-.85 7.11-.57 10.61 1.1 14.05 2.6 28.07 3.7 42.12.78 9.91-.6 19.64-3.42 29.17-.46 1.56-.9 2.67-2.85 2.49-1.82-.17-3.55.35-4.6-2.13-3.62-8.54-4.09-17.55-4.64-26.61-.9-14.84-2.04-29.66-3-44.5-.31-4.8-.65-9.62-.53-14.42.3-11.82-1.24-23.43-3.39-34.99-2.79-15.04-3.1-30.23-2.97-45.47.17-21.15-.18-42.3.18-63.45.1-6.16 1.73-12.32 2.95-18.42.38-1.88 1.72-3.57 2.8-5.69z" fill="#010100"/><g fill="#fafbfa"><path d="m6.4 11.7c-1-.8-1.9-1.6-2.9-2.3l.6-.7c.9.7 1.9 1.4 2.9 2.2zm-2.1 8.3c.7-2.1 1.4-4.2 2-6.4.2.1.6.3 1 .4-.7 2.3-1.3 4.4-1.9 6.4zm3-12.8c-1.1-.9-2.1-1.7-2.9-2.4l.6-.7c1 .8 2 1.5 3 2.4zm1.4-1.3v-.9h10.2v.9c-.9 4.2-2.3 7.3-4.1 9.4 1.3 1.4 3.2 2.7 5.7 4-.2.2-.4.5-.7.9-2.5-1.4-4.4-2.7-5.7-4.2-1.4 1.5-3.5 3-6.1 4.4 0 0 0 0-.1-.1-.3-.4-.5-.7-.7-.8 2.7-1.3 4.7-2.8 6.2-4.2-1.8-2.2-3-5.3-3.7-9.4zm9.2 0h-7.1c.6 3.8 1.7 6.7 3.4 8.7 1.7-2 2.9-4.8 3.7-8.7z"/><path d="m31.6 3.6h.9v2.3h4.1v9.1h1.7v.9h-16.6v-.9h1.7v-9.1h4.1v-2.3h.9v2.3h3.1v-2.3zm-4 13.3.6.8c-1.9.9-3.8 1.9-5.8 2.8-.2-.3-.3-.6-.5-.9 2-.9 3.9-1.8 5.7-2.7zm-3.2-10.1v3.7h3.1v-3.7zm0 4.5v3.7h3.1v-3.7zm4.1-4.5v3.7h3.1v-3.7zm0 4.5v3.7h3.1v-3.7zm9.1 9.1c-2.1-1.1-4.1-2-5.8-2.7l.5-.8c2.2.9 4.1 1.8 5.8 2.6zm-1.9-13.6h-3.1v3.7h3.1zm-3.2 4.5v3.7h3.1v-3.7z"/></g></svg>