<svg enable-background="new 0 0 400 400" viewBox="0 0 400 400" xmlns="http://www.w3.org/2000/svg"><path d="m109.22 236.68c5.53-.89 11.95-2.12 18.43-2.91 12.22-1.47 24.46-2.71 36.7-4 4.92-.52 5.55-.91 5.2-5.87-.22-3.06-1.06-6.15-2.12-9.05-1.76-4.82-3.71-9.6-6.02-14.17-1.1-2.17-3.23-3.82-5.17-6.02-5.66 7.18-11.22 13.72-16.19 20.7-2.91 4.09-7.06 3.69-10.98 4.43-.57.11-1.54-.78-2.02-1.43-3.33-4.49-5.19-9.5-3.91-15.1 1.39-6.09 3.15-12.1 4.87-18.11.32-1.12 1.23-2.07 1.9-3.08 5.58-8.48 11.27-16.89 16.68-25.48 1.33-2.11 1.9-4.77 2.5-7.25 1.08-4.47.44-5.83-4.14-6.38-3.68-.44-7.51.17-11.25.56-2.09.22-4.11 1.07-6.2 1.42-5.25.88-10.11.74-15.15-2.12-5.36-3.04-11.43-4.96-17.36-6.79-3.23-1-5.47-2.64-7.36-5.28-6.13-8.57-9.45-18.2-10.98-28.52-1.96-13.18-2.03-26.31 1.63-39.27 1.67-5.9 9.34-10.2 15.16-8.39.84.26 1.64 1.09 2.16 1.85 3.62 5.25 7.19 10.54 10.69 15.86.59.89.91 2.02 1.12 3.08.26 1.31.4 2.67.39 4-.11 15.62 6.72 22.4 26.26 23.87 2.09.16 3.42-.79 3.61-2.61.46-4.5 1.26-9.12.74-13.55-1.91-16.49-.47-32.61 4.36-48.42 1.39-4.53 3.62-8.81 5.57-13.43 11.18 4.73 18.09 12.54 20.58 23.72 3.24 14.5 5.9 29.12 8.85 43.68.82 4.04 1.8 8.05 2.56 11.46 8.56 0 16.82.25 25.05-.24 1.45-.09 4.07-3.47 3.84-5-1.92-13.35 5.69-24.35 8.47-36.49.96-4.2 1.96-8.46 2.23-12.74.58-9.19 13.95-16.43 21.73-11.47 1.08.69 1.89 1.89 2.64 2.99 3.96 5.8 5.91 12.26 5.98 19.26.13 12.75-2.92 24.81-8.05 36.41-.63 1.42-1.12 2.89-1.86 4.82 6.78.55 13.21 1.44 19.65 1.52 15.77.22 31.57-.29 47.2 2.48 2.71.48 5.46 1.33 7.91 2.56 4.27 2.14 4.64 6.62 1.18 9.84-8.87 8.24-19.85 11.99-31.36 14.21-5.76 1.11-11.75.99-17.64 1.44-8.35.63-16.69 1.37-25.04 1.87-10.49.63-21.02 1.81-31.48 1.4-13.37-.52-26.14 3.02-39.24 4.15-3.01.26-2.89 2.81-3.61 4.57-.29.71.76 2.18 1.5 3.06 4.71 5.64 9.87 10.95 14.19 16.87 5.2 7.13 9.7 14.76 14.55 22.15.67 1.02 1.51 1.97 2.44 2.75 2.66 2.25 4.79 2.03 6.56-.99 7.05-12.06 13.93-24.21 20.98-36.26 1.1-1.88 2.45-3.81 4.15-5.11 2.25-1.72 4.94-1.35 6.35 1.21 4.42 8.01 8.91 16 12.63 24.34 1.19 2.67.29 6.4-.07 9.59-.5 4.38-.53 8.18 4.43 10.31.92.4 1.82 3.24 1.31 4.19-2.38 4.44-.58 7.93 2.21 10.97 2.87 3.14 4.31 6.41 3.3 10.64-.28 1.18-.34 2.45-.29 3.66.19 4.9 1.39 6.16 6.25 6.81 1.99.27 4.07.33 5.95.95 2.82.94 4.18-.23 5.04-2.68 2.62-7.48 5.01-15.05 7.96-22.39 2.35-5.85 4.94-11.72 8.29-17.04 2.85-4.54 11.84-3.57 14.8.91 2.96 4.46 3.24 9.29 2.94 14.47-.39 6.68-.56 13.41-.17 20.08.6 10.36.45 20.56-3.07 30.48-5.8 16.35-8.17 33.37-10.19 50.5-.88 7.51-2.87 14.91-4.59 22.3-.24 1.04-1.66 2.23-2.77 2.55-1.92.55-3.13 1.32-3.52 3.38-.59 3.13-2.62 5.13-5.12 7.07-6.59 5.11-13.3 9.79-21.69 11.46-.99.2-2.15.91-2.71 1.74-7.61 11.29-19.4 13.34-31.54 13.7-25.26.75-50.53.87-75.79 1.56-3.79.1-7.52 1.95-11.31 2.83-1.81.42-3.77.84-5.57.6-7.78-1.07-15.02 1.81-22.53 2.69-5.06.59-10.23.5-15.34.35-1.26-.04-2.88-1.23-3.65-2.35-4.79-7.06-6.3-15.27-7.32-23.47-2.23-17.86-4.4-35.75-5.86-53.69-.51-6.24 1.33-12.65 1.68-19.01.21-3.74-.04-7.58-.69-11.27-2.56-14.71-1.03-29.21 1.64-43.7 1.13-6.12 1.55-12.35 4.28-18.17 1.07-2.27.7-5.25.85-7.91.18-3.08 1.29-4.23 4.19-3.54 3.49.83 6.65 2.05 8.6 5.67 3.13 5.82 5.05 11.87 5.74 18.43.54 5.11 1.56 10.17 2.22 15.27.24 1.82.05 3.69.05 5.06zm150.28 13.44c0-.22 0-.44 0-.66-4.92 0-9.84.12-14.75-.03-6.18-.18-9.45 3.13-8.76 9.14.11 1 .13 2.01.24 3.01.99 8.85.84 17.9 5.29 26.08 1.59 2.92 2.93 6.04 1.52 9.6-.25.64.18 1.82.68 2.45 3.1 3.97 3.49 8.48 3.28 13.3-.23 5.36.12 10.75-.13 16.12-.12 2.61.94 3.74 3.2 4.11 2.19.35 4.44.89 6.61.7 3.26-.28 5.9-1.77 7.07-5.23 6.23-18.32 11.96-36.77 15.26-55.89.87-5.06 2.24-10.06 2.79-15.14.51-4.68-2.55-7.54-7.19-7.55-5.04-.02-10.08-.01-15.11-.01zm-78.53 83.78c.23-.54.46-1.08.69-1.62-2.78-3.7-5.16-7.81-8.43-11.03-6.74-6.63-12.1-13.99-15.08-23.02-.52-1.56-1.36-3.09-2.36-4.4-2-2.62-3.79-2.84-6.04-.49-4.93 5.16-9.55 10.62-14.51 15.76-4.31 4.47-8.81 8.79-13.42 12.95-2.04 1.84-5.78 2.69-6.55 4.79-.85 2.33.93 5.56 1.34 8.43.29 1.99 1.36 2.62 3.17 2.59 14.97-.22 29.96-.15 44.91-.77 5.47-.2 10.86-2.07 16.28-3.19zm8.74-84.58c-.01-.3-.02-.59-.02-.89-4.65.63-9.3 1.2-13.94 1.9-4.63.69-4.68.75-4.73 5.59-.14 13.89 6.13 25.4 13.84 36.28.68.96 3.59 1.46 4.65.82 2.89-1.75 5.98-3.77 7.84-6.48 6.08-8.82 11.81-17.91 17.37-27.07 3.05-5.03.26-9.93-5.59-10.11-6.47-.2-12.95-.04-19.42-.04zm-84.79 24.32c4.53 4.54 5.57 9.87 5.76 15.63.14 4.33.87 8.64 1.33 12.96 4.92-4.86 9.11-9.65 12.96-14.7 6.76-8.87 13.4-17.84 19.9-26.89 3.22-4.49 1.85-7.32-3.67-7.79-2.3-.2-4.71.09-6.97.58-6.73 1.48-13.51 2.86-20.06 4.92-3.84 1.21-5.66 4.58-4.86 8.17.83 3.75-.55 5.75-4.39 7.12zm91.18 62.42c.65 0 1.2.04 1.74-.01 9.78-.91 19.55-1.88 29.33-2.7 2.19-.18 2.36-1.58 2.14-2.98-.97-6.14-1.77-12.34-3.28-18.36-1.52-6.07-4.15-11.74-9.25-16.33-3.6 3.98-7.71 7.47-10.45 11.83-3.66 5.81-6.39 12.24-9.28 18.51-1.42 3.09-2.63 6.41-.95 10.04zm32.16-146.23c-6.74 8.84-13.14 17-19.24 25.38-1.59 2.19-2.45 5.01-3.26 7.65-.97 3.18 1.12 6.42 3.87 6.23 9.46-.66 18.91-1.42 28.36-2.17.5-.04.99-.31 1.89-.6-2-12.67-3.43-25.27-11.62-36.49z" fill="#010000"/><g fill="#fbfcfa"><path d="m361.2 9.6.8-1c.9.7 1.9 1.4 2.9 2.3l-.9 1.1c-1-1-2-1.8-2.8-2.4zm.5 10.6c.9-2.1 1.6-4.3 2.3-6.7.4.2.8.4 1.3.6-.7 2.1-1.5 4.3-2.2 6.6zm.4-15.2.9-.9c1 .8 2 1.6 2.8 2.4l-1 1c-.9-.9-1.8-1.7-2.7-2.5zm12.5-1.2h1.2v1.4h2.7v1.1h-2.7v2.7h-1.2v-.6h-1.8v1.3h4.9v3.8h-1.2v-.5h-3.7c0 .4-.1.9-.1 1.2h5.1v1h-5.2c0 .5-.1.9-.2 1.2h6v1h-5.2c1.1 1.3 2.9 2 5.5 2.2-.4.4-.7.8-.9 1.3-2.9-.5-4.8-1.6-5.7-3.5h-.1c-.8 1.7-2.7 2.9-5.9 3.6-.2-.4-.6-.8-.9-1.1 2.8-.6 4.6-1.4 5.4-2.5h-4.8v-1h5.3c.1-.3.2-.7.2-1.2h-4.9v-1h5c0-.4 0-.8.1-1.2h-3.5v.5h-1.2v-3.8h4.9v-1.3h-1.8v.5h-1.2v-2.7h-2.7v-1h2.6v-1.4h1.2v1.4h4.7v-1.4zm-6.6 8.3h3.6c0-.4 0-.9 0-1.4h-3.6zm1.9-4.6h4.7v-1.3h-4.7zm6.6 3.2h-3.7v1.4h3.7z"/><path d="m385.3 3.8h1.3v2.2h2.8v-2.2h1.3v2.2h4.1v9.1h1.7v1.3h-16.9v-1.3h1.7v-9.1h4.1v-2.2zm.4 13.1.7 1.2c-1.8.9-3.8 1.9-6 2.9-.2-.4-.5-.8-.8-1.3 2.3-1 4.3-1.9 6.1-2.8zm-3.1-6.4h2.8v-3.2h-2.8zm0 4.6h2.8v-3.3h-2.8zm4-4.6h2.8v-3.2h-2.8zm0 4.6h2.8v-3.3h-2.8zm3.7 1.9c2.1.9 4.1 1.8 6.1 2.7l-.7 1.3c-2.2-1.1-4.2-2-6.1-2.9zm3.2-9.7h-2.8v3.2h2.8zm-2.8 7.8h2.8v-3.3h-2.8z"/></g></svg>