<svg enable-background="new 0 0 400 400" viewBox="0 0 400 400" xmlns="http://www.w3.org/2000/svg"><path d="m361.2 9.6.8-1c.9.7 1.9 1.4 2.9 2.3l-.9 1.1c-1-1-2-1.8-2.8-2.4zm.5 10.6c.9-2.1 1.6-4.3 2.3-6.7.4.2.8.4 1.3.6-.7 2.1-1.5 4.3-2.2 6.6zm.4-15.2.9-.9c1 .8 2 1.6 2.8 2.4l-1 1c-.9-.9-1.8-1.7-2.7-2.5zm12.5-1.2h1.2v1.4h2.7v1.1h-2.7v2.7h-1.2v-.6h-1.8v1.3h4.9v3.8h-1.2v-.5h-3.7c0 .4-.1.9-.1 1.2h5.1v1h-5.2c0 .5-.1.9-.2 1.2h6v1h-5.2c1.1 1.3 2.9 2 5.5 2.2-.4.4-.7.8-.9 1.3-2.9-.5-4.8-1.6-5.7-3.5h-.1c-.8 1.7-2.7 2.9-5.9 3.6-.2-.4-.6-.8-.9-1.1 2.8-.6 4.6-1.4 5.4-2.5h-4.8v-1h5.3c.1-.3.2-.7.2-1.2h-4.9v-1h5c0-.4 0-.8.1-1.2h-3.5v.5h-1.2v-3.8h4.9v-1.3h-1.8v.5h-1.2v-2.7h-2.7v-1h2.6v-1.4h1.2v1.4h4.7v-1.4zm-6.6 8.3h3.6c0-.4 0-.9 0-1.4h-3.6zm1.9-4.6h4.7v-1.3h-4.7zm6.6 3.2h-3.7v1.4h3.7z" fill="#fbfcfa"/><path d="m385.3 3.8h1.3v2.2h2.8v-2.2h1.3v2.2h4.1v9.1h1.7v1.3h-16.9v-1.3h1.7v-9.1h4.1v-2.2zm.4 13.1.7 1.2c-1.8.9-3.8 1.9-6 2.9-.2-.4-.5-.8-.8-1.3 2.3-1 4.3-1.9 6.1-2.8zm-3.1-6.4h2.8v-3.2h-2.8zm0 4.6h2.8v-3.3h-2.8zm4-4.6h2.8v-3.2h-2.8zm0 4.6h2.8v-3.3h-2.8zm3.7 1.9c2.1.9 4.1 1.8 6.1 2.7l-.7 1.3c-2.2-1.1-4.2-2-6.1-2.9zm3.2-9.7h-2.8v3.2h2.8zm-2.8 7.8h2.8v-3.3h-2.8z" fill="#fbfcfa"/><g fill="#010102"><path d="m118.02 302.16c0-11.68-.03-22.52.01-33.37.18-48.12.36-96.24.63-144.36.01-2.41-.61-3.86-2.76-5.07-4.09-2.3-7.93-5.04-11.98-7.4-10.45-6.08-15.11-15.47-15.59-27.19-.36-8.97.78-17.89 5.66-25.48 2.92-4.54 7.44-8.19 11.69-11.69 3.15-2.6 6.9-4.58 10.61-6.34 1.77-.84 4.11-.79 6.17-.66 9.57.6 18.94 2.28 27.19 7.49 11.29 7.11 16 17.99 15.5 30.82-.28 7.27-2.18 14.53-3.85 21.68-.44 1.89-2.48 3.69-4.21 4.95-6.95 5.07-14.02 10-21.17 14.79-1.82 1.22-2.43 2.46-2.42 4.59.06 41.3.08 82.6-.02 123.89-.01 2.84.76 4.13 3.59 4.25 12.16.5 18.16-3.29 20.4-16.14 1.41-8.1 1.51-16.49 1.53-24.75.05-25.51-.24-51.03-.36-76.54-.01-2.9.04-5.83.35-8.71.47-4.37 2.81-7.45 7-9.01 1.64-.61 2.84-.43 3.97 1.22 3.36 4.88 4.86 10.37 5.01 16.12.7 26.61 1.46 53.23 1.69 79.84.13 14.98-3.81 29.2-10.71 42.52-.69 1.34-2.09 2.55-3.45 3.25-2.97 1.54-6.21 2.55-9.19 4.06-5.28 2.68-10.77 4.32-16.74 3.95-2.28-.14-3.07.69-3.09 3.07-.06 9.17-.28 18.35-.59 27.52-.07 2.04.57 2.91 2.54 2.96 7.91.19 15.81.53 23.72.55 5.79.01 10.47 1.72 13.62 6.88 1.47 2.4 1.3 3.87-1.44 5.16-7.07 3.31-14.55 4.32-22.21 4.26-17.28-.13-34.32-2.26-51.14-6.33-6.8-1.65-10.05-6.94-12-12.46-2.31-6.54-3.78-13.63-4.11-20.56-1.31-27.03-2.21-54.08-2.89-81.13-.5-19.9-.58-39.82-.51-59.73.02-4.63 1.24-9.29 2.22-13.87.22-1.03 1.66-2.06 2.78-2.55 1.17-.51 2.67-.63 3.95-.44 1.08.16 2.52.75 2.99 1.6 3.38 6.05 3.85 12.73 3.86 19.5.05 35.46-.06 70.93.36 106.39.16 13.18 1.48 26.36 2.6 39.51.39 4.56 3.65 7.8 7.67 9.45 3.96 1.63 8.33 2.28 13.12 3.51zm9.41-197.74c8.06.01 14.97-2.44 19.13-9.29 5.16-8.51 6.33-17.58.94-26.65-3.82-6.42-9.78-9.73-16.73-11.95-6.22-1.99-11.29-.24-16.11 3.48-.26.2-.55.4-.86.52-4.91 1.81-7.08 5.79-8.32 10.51-.2.75-.45 1.49-.67 2.24-2.64 9.04 1.31 16.46 5.47 24.03 2.9 5.27 7.88 5.62 12.69 6.71 1.51.33 3.11.28 4.46.4z"/><path d="m252.72 106.04c10.46 1.23 20.17 3.08 29.92 3.35 12.99.36 20.54 7.7 25.19 18.36 7.64 17.53 9.99 36.08 8.22 55.13-.2 2.15-1.13 3.28-3.3 3.9-7.05 2.03-7.12 2.09-9.95-4.74-2.92-7.05-3.57-14.47-3.72-22.02-.11-5.24.02-10.62-1.1-15.68-3.66-16.46-10.74-21.09-24.87-21.78-7.24-.35-14.5-.06-22.16-.06-.29 4.8-.54 8.97-.85 14.03 6.03-.37 11.66-.67 17.28-1.08 3.78-.27 7.56-1 11.34-.98 5.87.03 8.72 4.63 6.25 9.91-.44.94-2 1.61-3.17 1.91-9.09 2.34-18.16 4.78-27.34 6.72-3.52.74-5.15 2.7-5.41 5.73-.43 4.87-.4 9.78-.45 14.68-.03 2.23.42 4.48.26 6.69-.23 3.16-1.82 5.43-5.06 6.34-4.6 1.29-6.68.46-7.54-4.25-1.05-5.8-1.36-11.74-2-17.61-.2-1.87-.42-3.74-.72-6.37-4.93 1.97-9.6 3.4-13.86 5.62-8.81 4.6-17.37 9.69-26.13 14.39-2.12 1.13-4.6 1.73-6.98 2.18-2.73.52-4.81-.68-5.79-3.39-1.14-3.13-.38-6.17 1.91-7.63 11.03-7.04 21.92-14.31 33.16-20.99 4.75-2.82 10.17-4.56 15.4-6.5 2.29-.85 3-2.06 3.03-4.39.07-4.44.48-8.88.77-13.56-9.67-1.63-18.96-3.57-28.36-4.66-7.98-.93-12.68-5.67-16.15-12.06-5.27-9.72-5.27-20.43-5.02-31.08.08-3.45.76-6.88 1.12-10.33.59-5.75 6.29-6.66 10.16-5.61.74.2 1.36 1.37 1.75 2.22 2.88 6.26 2.4 12.84 1.79 19.45-.21 2.33-.36 4.7-.13 7.02 1.07 11.01 6.68 16.8 17.69 17.86 5.44.52 10.95.34 16.42.48 1.75.04 2.79-.62 3.46-2.42 1.35-3.66 2.93-7.25 4.59-10.78 3.3-6.99 8.46-11.99 15.91-14.44 6.89-2.28 13.81-4.49 20.66-6.87 4.14-1.44 7.63-3.77 9.13-8.21 1.19-3.53.84-4.52-2.74-5.05-4.95-.73-10.04-1.74-14.96-1.31-11.42 1-22.52-.73-33.67-2.56-9.16-1.5-18.31-3.04-27.49-4.38-7.32-1.07-12.9-4.79-17.15-10.66-2.78-3.84-3.02-8.03-1.43-12.44.78-2.16 1.89-3.18 4.24-2.1 3.04 1.39 6.17 2.6 9.17 4.07 3.01 1.48 5.96 3.08 8.83 4.81 9 5.4 19.09 4.76 28.97 5.45 14.38 1.01 28.86 1.46 43.1 3.52 18.37 2.66 20.95 16.57 17.78 29.84-.23.95-1.13 1.85-1.94 2.52-8.53 7.03-18.66 10.87-28.96 14.37-5.79 1.97-11.11 4.78-15.13 9.54-1.38 1.68-2.44 3.63-3.97 5.9z"/><path d="m250.89 237.12c-.61 7.13-1.23 13.7-1.64 20.28-.05.79.87 1.99 1.65 2.41 3.63 1.98 7.25 4.06 11.09 5.53 11.72 4.5 19.1 13.44 24.52 24.11 8.13 16.02 10.76 32.99 7.6 50.81-.57 3.19-1.84 4.41-5 4.87-6.02.88-6.46 1.19-7.77-4.74-1.27-5.73-1.6-11.69-2.07-17.57-.65-8.06-1.62-16.02-5.22-23.4-5.13-10.53-13.78-17.67-24.07-24.86 0 4.15.04 7.51-.01 10.87-.29 22.37-.56 44.75-.92 67.12-.08 5.24-.42 10.48-.79 15.7-.09 1.29-.64 2.61-1.25 3.78-1.42 2.71-3.97 3.38-6.8 3.41-2.91.03-3.28-2.33-3.88-4.28-3.47-11.17-3.67-22.69-3.31-34.23.56-17.55 1.22-35.1 1.82-52.64.09-2.61.19-5.32-2.77-6.6-2.53-1.09-6.76.15-8.87 2.43-9.84 10.62-15.03 23.36-17.22 37.5-1.09 7.07-2.32 14.11-3.51 21.17-.2 1.21-.45 2.43-.84 3.59-1 2.99-3.46 3.92-6.29 4.17-2.67.24-3.9-1.4-4.86-3.66-3.99-9.34-4.53-18.99-1.55-28.54 3.31-10.64 7.36-21.06 11.24-31.51.55-1.48 1.8-2.8 2.99-3.91 2.62-2.44 5.49-4.6 8.11-7.04 6.01-5.6 12.46-10.53 20.25-13.42 1.94-.72 2.67-1.87 2.6-4.01-.17-5.25-.05-10.5-.05-16.12-6.69-.84-13.19-1.76-19.72-2.45-15.67-1.66-27.28-12.71-28.75-27.98-.36-3.7.46-7.54.97-11.29.28-2.11 4.93-6.69 6.43-6.73 2.07-.06 6.47 3.78 7 6.61.47 2.49.55 5.11.44 7.66-.46 10.9 4.97 14.94 13.93 16.85 3.92.84 7.97 1.07 11.98 1.41 2.2.19 4.43.03 7.38.03.27-5.55.52-10.74.76-15.93.11-2.33-.33-4.84.41-6.94.71-2.04 2.27-4.17 4.06-5.36 4.35-2.87 5.98-2.2 7.33 2.74.79 2.87 1.12 5.9 1.34 8.89.26 3.45-.1 6.95.31 10.37.56 4.61 2.62 6.63 7.14 5.9 7.23-1.16 14.35-3.13 21.46-4.95.95-.24 2.03-1.52 2.31-2.52 1.38-4.93 2.74-9.89 3.66-14.92 1.07-5.85 3.6-9.04 8.38-9.3.86-.05 2.35.59 2.58 1.25 3.19 9.02 5.05 18.16 1.05 27.44-2.74 6.36-8.63 9.43-14.07 12.9-7.54 4.82-16.12 4.77-24.61 5.08-1.53.07-3.09.02-4.95.02z"/></g></svg>