<svg enable-background="new 0 0 400 400" viewBox="0 0 400 400" xmlns="http://www.w3.org/2000/svg"><path d="m109.39 336.55c8.85.66 16.42 1.15 23.97 1.87 1.19.11 2.38 1.13 3.4 1.94 4.83 3.81 10.24 5.55 16.44 5.79 11.05.43 22.08 1.43 33.13 2.03 8.65.47 17.31-.04 25.53-2.84 9.01-3.07 18.39-3.59 27.65-5.03 7.61-1.19 8.67-1.95 12.61-9.35-9.8-2.77-19.54-5.55-29.28-8.28-19.58-5.49-39.25-10.73-58.72-16.59-5.13-1.54-9.63-5.09-14.52-7.53-5.21-2.59-9.49-6.19-13.14-10.7-1.29-1.6-3.04-3.05-4.88-3.95-4.65-2.27-6.1-1.64-9.41 2.3-7.53 8.95-15.8 17.1-26.26 22.67-3.43 1.83-6.96 2.88-10.82.79-.9-.48-2.38-.27-3.46.05-3.53 1.05-7.13 2.05-10.47 3.56-3.04 1.38-5.25.93-7.28-1.57-.7-.85-1.59-1.54-2.67-2.57 1.08-.53 1.94-.91 2.77-1.36 11.05-6.08 22.21-11.97 33.07-18.38 2.95-1.74 5.3-4.8 7.35-7.68 5.64-7.93 10.79-16.21 16.49-24.09 5.88-8.14 12.16-16.01 18.3-23.96 10.48-13.59 17.32-29.13 24.44-44.59 6.56-14.23 8.01-29.44 10.06-44.59.52-3.88.79-7.81 1.6-11.63.61-2.91-.82-4.18-3.1-4.43-4.83-.53-9.69-1.84-13.72 3.05-1.88 2.28-5.32 3.83-8.33 4.54-7.26 1.71-13.66 4.69-19.2 9.71-10.62 9.61-21.65 18.84-30.03 30.6-5.3 7.43-6.99 15.67-3.59 24.46.57 1.48 1.69 2.87 2.87 3.95 4.41 4.04 7.6 8.76 8.96 14.64.55 2.4.26 4.17-2.7 4.47-2.19.22-4.37.88-6.55.85-2.88-.04-5.03-1.17-5.58-4.58-.2-1.24-1.62-2.61-2.84-3.29-9.68-5.45-14.77-15.02-13.49-26.16 1.27-11.08 5.21-21.05 11.6-30.33 8.66-12.56 18.65-23.38 31.36-32.11 8.82-6.05 18.21-9.7 28.22-12.65 6.28-1.85 12.39-4.36 18.39-7.02 5.69-2.52 7.39-7.58 6.59-13.39-.65-4.74-1.61-9.48-2.87-14.1-1.56-5.71-3.76-11.24-5.34-16.94-3.63-13.12-11.66-21.99-24.5-26.67-5.93-2.16-7.37-5.19-6.31-11.71.48 0 1.01-.08 1.51.01 5.46 1 10.94 1.94 16.37 3.09 2.78.59 5.78 1.06 8.15 2.47 7.86 4.66 15.78 9.32 23.12 14.73 8.01 5.91 11.15 14.48 10.89 24.41-.1 3.88-.09 7.89.77 11.64.62 2.71 2.71 5.09 4.45 8.17 9.93-8.9 20.87-15.37 26.48-27 1.31-2.71 1.34-6.04 1.89-9.1.33-1.86.53-3.74.81-5.8 7.84 2.37 15.46 4.54 22.98 7.04 1.81.6 3.34 2.17 4.89 3.43 2.6 2.12 4.99 4.53 7.69 6.5 7.81 5.67 6.83 12.91 2.01 18.36-11.22 12.68-24.1 23.41-41.34 27.16-5.68 1.23-11.43 2.14-17.09 3.46-2.35.55-4.7 1.52-6.79 2.74-5.48 3.19-6.38 5.53-5.39 11.77.55 3.46 1.48 6.58 3.83 9.43 3.02 3.67 4.22 8.03 3 12.91-.7 2.81-.78 5.78-1.51 8.58-1.08 4.15-.4 8.03 1.47 11.69 4.11 8.05 8.21 16.12 12.68 23.96 1.1 1.94 3.44 3.45 5.55 4.47 4.31 2.08 8.95 3.46 12.09 7.49.68.87 2.06 1.28 3.19 1.68 11.26 4.03 22.39 8.5 33.86 11.82 6.11 1.77 12.79 1.89 19.24 2.13 6.73.25 13.07 1.78 19.11 4.52 1.78.81 3.58 2.42 4.46 4.14 1.59 3.09-.02 5.92-3.36 6.72-14.68 3.53-29.4 2.94-43.87-.76-12.64-3.24-25.04-7.42-37.54-11.21-1.06-.32-2.2-.7-3.03-1.38-10.47-8.54-22.25-15.49-31.31-25.74-2.44-2.76-5.02-5.39-7.91-8.48-1.2 3.64-2.29 6.88-3.33 10.13-1.67 5.21-3.22 10.47-5.03 15.63-.64 1.83-.33 2.84 1.26 3.88 5.24 3.43 10.3 7.15 15.66 10.38 1.85 1.12 4.38 1.12 6.83 1.69.04.17.27.6.21 1-1.15 7.65 2.15 14.14 5.15 20.78.7 1.56.81 3.66.48 5.37-.8 4.16-2.03 8.24-3.07 12.36-.9 3.55-1.54 7.15-4.27 9.99-.94.97-1.35 2.56-1.72 3.94-.63 2.37.07 3.87 2.41 5.41 9.29 6.11 19.49 9.1 30.4 10.47 3.33.42 6.59 1.89 9.72 3.26 10.21 4.47 20.04 10.07 30.6 13.42 9.3 2.96 18.71.81 26.94-5.34 8.66-6.47 18.1-11.53 28.82-13.79 1.72-.36 3.51-.38 5.82-.61-.36 4.09-.59 7.83-1.08 11.54-.11.84-1.01 1.68-1.72 2.33-8.29 7.52-16.58 15.04-24.95 22.48-1.22 1.08-2.75 1.92-4.27 2.54-21.34 8.62-42.59 17.53-64.15 25.57-7 2.61-14.9 2.76-22.31 4.37-8.27 1.8-16.41 4.27-24.71 5.91-7.25 1.43-14.59 2.6-22.03.17-2.54-.83-5.53-.73-8.25-.44-11.05 1.16-20.12-2.36-27.68-10.5-6.07-6.54-12.6-12.65-18.72-19.14-1.63-1.7-2.46-4.15-4.1-7.05zm23.92-69.21c12.48 3.74 24.76 7.44 37.07 11.06.73.22 1.76.07 2.45-.28 9.25-4.76 10.47-7.3 8.65-17.66-.02-.11-.05-.22-.08-.33-1.55-6.41-1.44-12.44 3.62-16.62-2.71-3.62-5.37-6.87-7.69-10.35-3.43-5.14-7.57-5.89-12.03-1.88-.42.37-.9.71-1.21 1.16-2.85 4.22-6.13 8.24-8.41 12.76-4.98 9.85-11.36 18.02-22.37 22.14zm52.14-97.49c3.05.35 5.86.67 9.29 1.06.12-.16.77-.99 1.58-2.04-3.89-.89-7.42-2.06-10.87.98z" fill="#010105"/><g fill="#fcfbfa"><path d="m377.9 391.2c-.2.3-.4.5-.6.8-.7-.6-1.4-1-2.2-1.5.2-.3.4-.5.5-.8.6.4 1.4.8 2.3 1.5zm-1.8 6.1c-.2-.2-.5-.4-.9-.6.4-.6.8-1.2 1.2-1.9s.7-1.3.9-1.9c.3.3.5.5.8.7-.7 1.3-1.4 2.6-2 3.7zm2.2-9c-.3.3-.5.5-.6.8-.6-.6-1.3-1.1-2-1.5.3-.3.5-.5.6-.7.6.5 1.3.9 2 1.4zm.3.2v-.9h2 4.5c-.3 1.3-.6 2.5-1 3.6s-.9 2.1-1.4 3c.4.5 1 1 1.6 1.4s1.2.8 1.9 1.1c-.3.2-.5.4-.8.8-.4-.3-1-.7-1.6-1.2s-1.2-1.1-1.6-1.6c-.5.6-1.1 1.1-1.7 1.6s-1.4.9-2.1 1.4c-.1-.3-.3-.5-.7-.8.6-.2 1.2-.5 1.9-1s1.4-1.1 2-1.8c-.5-.8-.9-1.6-1.2-2.5s-.6-2-.8-3.2c-.4.1-.7.1-1 .1zm2.5 2.7c.3 1 .7 1.7 1 2.2.3-.5.6-1.1 1-2s.6-1.9.9-3h-3.2-.4c.1.9.3 1.8.7 2.8z"/><path d="m396.5 388.5v1.5 3.6h1.5v.9c-.4 0-1 0-1.7 0h-7.9c-.5 0-.9 0-1.2 0v-.9h1.3v-3.5c0-.7 0-1.2 0-1.6h2.4c0-.8 0-1.4 0-1.7h1c0 .3-.1.8-.1 1.7h1.5c0-.8 0-1.4 0-1.7h1c0 .3-.1.9-.1 1.7zm-8.2 9.2c-.2-.3-.5-.5-.8-.8.8-.3 1.4-.6 1.9-.9s1-.7 1.4-1.1c.3.3.6.5.9.8-1.6 1-2.8 1.6-3.4 2zm2.6-6.8v-1.6h-1.5v1.6zm0 2.7v-1.9h-1.5v1.9zm2.4-2.7v-1.6h-1.5v1.6zm0 2.7v-1.9h-1.5v1.9zm.2 2 .7-.8c.4.2.9.5 1.6.8s1.3.7 1.8 1c-.3.3-.5.5-.8.8-.4-.3-1.5-1-3.3-1.8zm2-4.7v-1.6h-1.4v1.6zm0 2.7v-1.9h-1.4v1.9z"/></g></svg>