<svg enable-background="new 0 0 400 400" viewBox="0 0 400 400" xmlns="http://www.w3.org/2000/svg"><path d="m6.8 9.5c.6.3 1.3.7 2.1 1.1-.4.4-.7.8-.9 1.2-.7-.4-1.3-.8-1.8-1.1s-1.1-.6-1.6-.8c.2-.4.5-.8.7-1.2.4.2.8.5 1.5.8zm.9 6.9c-.3.6-.5 1.1-.7 1.7s-.4 1.1-.6 1.7c-.6-.4-1.1-.7-1.6-1 .7-1 1.2-1.8 1.5-2.4.3-.5.6-1.1.8-1.7.3-.6.5-1.2.8-1.8.3.3.8.6 1.3.8-.7 1.3-1.2 2.2-1.5 2.7zm.1-11c.4.3 1 .7 1.7 1.1-.5.2-.8.6-1.1 1.1-.5-.6-1-1-1.4-1.2s-.9-.6-1.5-.8c.2-.4.5-.7.9-1.1.5.3.9.6 1.4.9zm10.5 13.1c1 .4 2 .6 3.1.7-.4.4-.7.8-.8 1.3-.9-.2-1.9-.6-3-.9-1-.4-2-.9-2.8-1.6-.5.4-1.1.9-1.9 1.3s-1.9.9-3.3 1.2c-.1-.3-.5-.8-1.1-1.3 1 0 2.1-.3 3.2-.8 1.2-.5 1.9-1 2.3-1.7h-3.2c-.4 0-1 0-2 .1v-1.2c1 0 1.7.1 2 .1h3.3v-1h-2.3c-.2 0-.9 0-2 .1v-1.2c1.2 0 1.9.1 2 .1h2.3v-.8h-4.1c0-.7.1-1.2.1-1.6 0-.5 0-1.1-.1-1.8h4.1v-.7h-2.5c0-.6.1-1.1.1-1.6v-.6h-.5c-.4 0-1 0-1.8.1v-1.3c1.2 0 1.9.1 2.1.1h.2c0-.3 0-.8-.1-1.4h1.4c0 .6-.1 1-.1 1.4h3.4c0-.4 0-.8-.1-1.3h1.5c0 .4-.1.9-.1 1.3.7 0 1.5 0 2.5-.1v1.2c-1 0-1.8-.1-2.5-.1v.6c0 .3 0 .8.1 1.5h-2.5v.8h4.1c0 .7-.1 1.3-.1 1.8s0 1 .1 1.5h-4.1v.8h1.4c.8 0 1.8 0 2.9-.1v1.2c-1 0-1.9-.1-2.8-.1h-1.5v1h3.2c.3 0 1 0 2.1-.1v1.2c-1.1 0-1.8-.1-2.1-.1h-3.4l-.1.1c1.4 1 2.4 1.5 3.4 1.9zm-4.1-6.7v-1.3h-2.7v1.3zm2.2-4.1v-1.1h-3.4v1.1zm1.9 4.1v-1.3h-2.8v1.3z" fill="#fafbfa"/><path d="m37 6.7v2.3 5.4c1 0 1.8 0 2.2-.1v1.3c-.6 0-1.5-.1-2.5-.1h-11.9c-.7 0-1.3 0-1.8.1v-1.3c.5 0 1.1.1 2 .1v-5.2c0-1 0-1.8-.1-2.5h3.7c0-1.3 0-2.1-.1-2.5h1.5c0 .4-.1 1.3-.1 2.5h2.2c0-1.2 0-2.1-.1-2.6h1.5c0 .4-.1 1.3-.1 2.6zm-12.3 13.7c-.3-.4-.7-.8-1.1-1.1 1.1-.4 2.1-.9 2.9-1.3.8-.5 1.5-1 2.1-1.6.4.4.9.8 1.3 1.1-2.5 1.4-4.2 2.4-5.2 2.9zm3.9-10.1v-2.4h-2.2v2.4zm0 4.1v-2.9h-2.2v2.9zm3.5-4.1v-2.4h-2.2v2.4zm0 4.1v-2.9h-2.2v2.9zm.4 2.9 1-1.1c.6.3 1.4.7 2.5 1.3s2 1.1 2.7 1.5c-.4.4-.8.8-1.1 1.3-.8-.8-2.5-1.7-5.1-3zm3.1-7v-2.4h-2.1v2.4zm0 4.1v-2.9h-2.1v2.9z" fill="#fafbfa"/><g fill="#010103"><path d="m217.94 148.71c-8.82 0-17.19-.06-25.56.09-.85.01-1.61 1.33-2.52 1.85-2.43 1.4-5.19 4.18-7.34 3.78-15.11-2.77-27.73 4.04-40.7 9.67-.2.09-.39.22-.6.3-12 4.75-20.94 12.45-27.83 23.8-14.21 23.41-29.66 46.07-44.65 69.01-1.83 2.8-3.87 5.49-6.03 8.05-4.39 5.21-10.11 5.53-16.38 4.15-1.12-5.74-.18-11.21 2.19-16.35 1.82-3.94 4.09-7.68 6.31-11.43 8.7-14.72 17.1-29.63 26.3-44.03 9.76-15.28 20.24-30.1 35.15-41.08 4.73-3.48 9.69-6.05 15.51-7.46 28.56-6.93 57.03-14.21 85.57-21.26 2.31-.57 3.56-1.73 3.92-3.89.73-4.29 1.77-8.59 1.92-12.92.55-16.45.77-32.92-1.85-49.23-.79-4.92-2.57-9.72-4.29-14.42-1-2.71-.45-4.87 1.7-6.11 2.72-1.56 5.77-3.1 8.81-3.47 10.8-1.3 16.8 2.9 18.5 13.72.94 5.95.04 12.2-.05 18.31-.01.55-.4 1.13-.31 1.64 1.26 6.63-.59 12.8-1.95 19.23-1.84 8.75.87 17.54 2.79 26.14.23 1.02 2.77 2.07 4.3 2.16 5.85.35 11.03-2.04 15.51-5.43 7.35-5.56 15.52-9.03 24.22-11.86 11.71-3.81 20.79-11.28 26.48-22.35 6.93-13.48 11.82-27.72 15.26-42.47.91-3.9 2.23-7.71 3.64-12.53 3.73 2.55 7.32 4.54 10.33 7.19 4.05 3.56 3.43 8.46 2.53 13.16-.42 2.19-.94 4.4-1.75 6.46-2.2 5.54-4.08 11.08-3.38 17.19.12 1.03-.4 2.18-.79 3.21-3.44 9.21-6.88 18.42-10.42 27.6-.45 1.18-1.19 2.52-2.2 3.18-14.42 9.49-29.41 17.91-45.96 23.16-1.26.4-2.65.69-3.94.57-5.19-.47-9.87.92-14.51 3.13-6.35 3.02-12.87 5.7-19.32 8.52-4.5 1.96-6.06 4.87-5.16 9.75.16.87.35 1.8.79 2.54 3.62 6.15 3.87 12.75 2.52 19.49-1.05 5.22-.2 9.99 1.62 15 3.43 9.42 7.49 18.4 13.94 26.15 1.35 1.62 2.81 3.16 4.35 4.59 4.26 3.95 8.75 7.67 12.86 11.77 5.55 5.56 7.97 12.44 7.78 20.72-5.24-1.26-10.12-2.36-14.95-3.68-.95-.26-1.67-1.34-2.5-2.04-8.46-7.11-16.9-14.25-25.42-21.29-1.25-1.03-2.94-1.51-4.52-2.29-4.6 6.83-7.16 14.01-7.84 22.18-.65 7.75-2.25 15.49-4.12 23.06-1.54 6.23-5.04 11.38-12.27 13.91-1.84-4.14-3.93-8.09-5.3-12.27-.68-2.08-.69-4.83.08-6.88 4.48-11.99 6.34-24.38 6.8-37.09.82-22.8 1.82-45.6 2.74-68.4.03-1.21-.01-2.43-.01-4.2zm16.23-21.97c-.2.12-.41.24-.61.36v5.06c1.42-.74 2.5-1.3 3.39-1.76-1.05-1.38-1.92-2.52-2.78-3.66z"/><path d="m167.58 291.59c2.58.12 4.23.2 6.38.3-.36 1.32-.48 2.53-1.01 3.52-2.37 4.43-1.37 8.76-.11 13.25 3.05 10.95 9.41 19.71 17.68 27.17 12.38 11.16 25.89 20.52 41.82 26.09 2.14.75 3.88 2.82 5.62 4.47 2.13 2.03 4.07 4.26 6.05 6.35-3.1 2.3-14.44 2.5-19.42.46-9.2-3.77-18.41-7.53-27.43-11.69-2.75-1.27-4.91-3.82-7.28-5.86-7.46-6.42-14.76-13.05-22.42-19.23-3.17-2.55-7.05-4.24-10.72-6.13-.58-.3-1.92.19-2.52.74-8.75 8.01-17.54 15.97-26.04 24.24-1.7 1.66-2.37 4.45-3.32 6.79-.84 2.06-1.33 4.27-2.12 6.35-1.64 4.37-4 5.92-9.06 6-1.84-4.13-2.01-8.57-.55-12.69 2.22-6.29 5-12.41 7.82-18.47 3.28-7.06 6.87-13.94 10.79-20.72 4.64-8.03 7.62-17.08 10.88-25.85 5.55-14.97 10.76-30.06 16.12-45.1 1.65-4.63 4.78-7.99 8.89-10.48 7.47 5.18 10.24 12.08 8.49 20.72-.49 2.41-.76 4.86-1.12 7.29-.55 3.65-.88 7.05-3.45 10.4-2.34 3.04-2.62 7.65-3.97 12.08z"/><path d="m95.44 253.47c-.11 0-.22 0-.34 0-6.99-.01-8.52-1.93-6.8-8.77.21-.83 1.09-1.62 1.85-2.17 15.08-10.82 30.13-21.69 45.32-32.35 3.95-2.77 7.74-.29 11.17 1.67 2.9 1.65 3.88 4.93 2.88 8.21-.24.79-.81 1.6-1.45 2.12-9.5 7.81-18.95 15.71-28.61 23.31-6.98 5.49-15.08 8.13-24.02 7.98z"/></g></svg>