<svg enable-background="new 0 0 400 400" viewBox="0 0 400 400" xmlns="http://www.w3.org/2000/svg"><path d="m6.8 9.5c.6.3 1.3.7 2.1 1.1-.4.4-.7.8-.9 1.2-.7-.4-1.3-.8-1.8-1.1s-1.1-.6-1.6-.8c.2-.4.5-.8.7-1.2.4.2.8.5 1.5.8zm.9 6.9c-.3.6-.5 1.1-.7 1.7s-.4 1.1-.6 1.7c-.6-.4-1.1-.7-1.6-1 .7-1 1.2-1.8 1.5-2.4.3-.5.6-1.1.8-1.7.3-.6.5-1.2.8-1.8.3.3.8.6 1.3.8-.7 1.3-1.2 2.2-1.5 2.7zm.1-11c.4.3 1 .7 1.7 1.1-.5.2-.8.6-1.1 1.1-.5-.6-1-1-1.4-1.2s-.9-.6-1.5-.8c.2-.4.5-.7.9-1.1.5.3.9.6 1.4.9zm10.5 13.1c1 .4 2 .6 3.1.7-.4.4-.7.8-.8 1.3-.9-.2-1.9-.6-3-.9-1-.4-2-.9-2.8-1.6-.5.4-1.1.9-1.9 1.3s-1.9.9-3.3 1.2c-.1-.3-.5-.8-1.1-1.3 1 0 2.1-.3 3.2-.8 1.2-.5 1.9-1 2.3-1.7h-3.2c-.4 0-1 0-2 .1v-1.2c1 0 1.7.1 2 .1h3.3v-1h-2.3c-.2 0-.9 0-2 .1v-1.2c1.2 0 1.9.1 2 .1h2.3v-.8h-4.1c0-.7.1-1.2.1-1.6 0-.5 0-1.1-.1-1.8h4.1v-.7h-2.5c0-.6.1-1.1.1-1.6v-.6h-.5c-.4 0-1 0-1.8.1v-1.3c1.2 0 1.9.1 2.1.1h.2c0-.3 0-.8-.1-1.4h1.4c0 .6-.1 1-.1 1.4h3.4c0-.4 0-.8-.1-1.3h1.5c0 .4-.1.9-.1 1.3.7 0 1.5 0 2.5-.1v1.2c-1 0-1.8-.1-2.5-.1v.6c0 .3 0 .8.1 1.5h-2.5v.8h4.1c0 .7-.1 1.3-.1 1.8s0 1 .1 1.5h-4.1v.8h1.4c.8 0 1.8 0 2.9-.1v1.2c-1 0-1.9-.1-2.8-.1h-1.5v1h3.2c.3 0 1 0 2.1-.1v1.2c-1.1 0-1.8-.1-2.1-.1h-3.4l-.1.1c1.4 1 2.4 1.5 3.4 1.9zm-4.1-6.7v-1.3h-2.7v1.3zm2.2-4.1v-1.1h-3.4v1.1zm1.9 4.1v-1.3h-2.8v1.3z" fill="#fafbfa"/><path d="m37 6.7v2.3 5.4c1 0 1.8 0 2.2-.1v1.3c-.6 0-1.5-.1-2.5-.1h-11.9c-.7 0-1.3 0-1.8.1v-1.3c.5 0 1.1.1 2 .1v-5.2c0-1 0-1.8-.1-2.5h3.7c0-1.3 0-2.1-.1-2.5h1.5c0 .4-.1 1.3-.1 2.5h2.2c0-1.2 0-2.1-.1-2.6h1.5c0 .4-.1 1.3-.1 2.6zm-12.3 13.7c-.3-.4-.7-.8-1.1-1.1 1.1-.4 2.1-.9 2.9-1.3.8-.5 1.5-1 2.1-1.6.4.4.9.8 1.3 1.1-2.5 1.4-4.2 2.4-5.2 2.9zm3.9-10.1v-2.4h-2.2v2.4zm0 4.1v-2.9h-2.2v2.9zm3.5-4.1v-2.4h-2.2v2.4zm0 4.1v-2.9h-2.2v2.9zm.4 2.9 1-1.1c.6.3 1.4.7 2.5 1.3s2 1.1 2.7 1.5c-.4.4-.8.8-1.1 1.3-.8-.8-2.5-1.7-5.1-3zm3.1-7v-2.4h-2.1v2.4zm0 4.1v-2.9h-2.1v2.9z" fill="#fafbfa"/><g fill="#010103"><path d="m204.81 112.58c-4.06-28.89-.82-57.79-.14-87.18 1.12 1.09 2.64 1.98 3.29 3.3 3.55 7.2 7.41 14.31 10.18 21.82 5.45 14.75 9.16 29.92 8.08 45.9-.17 2.47.47 5.08 1.15 7.51.54 1.94 1.95 2.66 4.2 1.85 4.94-1.78 10.39-2.53 14.9-5.02 8.11-4.48 15.35-10.2 16.71-20.42.68-5.1 1.13-10.24 1.97-15.31.78-4.76 3.02-8.78 7.29-11.81 2.34 6.88 1.88 13.66 1.12 20.43-.27 2.44-.86 4.84-1.32 7.26-1.52 7.97-4.88 14.81-11.95 19.35-.09.06-.18.14-.25.22-6.11 6.61-13.51 10.81-22.43 12.37-1.82.32-3.61 1.19-5.25 2.1-3.55 1.97-5.83 4.55-4.92 9.17 2.38 12.1.81 24.33.65 36.5-.01 1.12-.58 2.34-1.2 3.32-1.12 1.78-2.48 3.41-3.73 5.09.31.42.45.83.71.92 4.07 1.47 5.24 4.01 4.55 8.45-.42 2.72 1.29 5.77 2.01 8.68.4 1.61 1.14 3.27 1.02 4.86-.8 11.47 2.1 22.2 6.34 32.65 2.22 5.49 4.75 10.85 7.08 16.29.87 2.04 2.01 4.1 2.28 6.25.78 6.23 4.56 11.1 7.06 16.54 2.05 4.45 2.49 8.96.82 14.52-1.42-1.15-2.71-1.85-3.54-2.91-8.58-10.92-14.55-23.32-19.95-35.98-2.57-6.03-4.2-12.46-6.27-18.7-.42-1.27-.69-2.63-1.33-3.78-2.26-4.05-6.99-4.45-8.56-.38-2.63 6.8-6.12 12.82-10.43 18.76-3.88 5.35-4.89 12.68-8.21 18.55-3.36 5.95-6.92 11.68-8.85 18.31-.9 3.1-3.44 4.5-7.45 5.27 1.36-4.71 1.94-9.27 3.91-13.12 11.37-22.21 16.31-46.54 23.62-70.08.42-1.36.55-2.85.55-4.29.05-9.07-.08-18.14.05-27.2.14-9.28.58-18.55.76-27.83.04-2.1-.3-4.25-.72-6.32-1.14-5.62-2.66-6.72-8.28-5.88-2.76.41-5.55.9-8.18 1.79-10.77 3.64-22.11 5.82-31.84 12.12-1.6 1.04-3.24 2.52-4.04 4.19-2.27 4.72-4.08 9.66-6.12 14.49-1.65 3.88-3.2 7.87-8.67 9.94.36-3.82.27-7.05 1.02-10.08 1.42-5.74 2.69-11.66 5.19-16.96 2.47-5.22 5.8-10.25 12.12-12.09 13.94-4.06 27.84-8.28 41.75-12.43.92-.27 1.86-.57 3.25-1z"/><path d="m247.7 303.67c1.18 5.34.27 9.3-4.4 12.4-5.1 3.39-9.75 7.47-14.58 11.27-2.58 2.03-3.49 4.48-1.77 7.57 2.5 4.5 1.77 9.34 1.23 14.1-.24 2.16.55 3.3 2.25 4.66 6.58 5.23 14.39 7.45 22.2 9.84 3.51 1.08 7.03 2.32 10.24 4.05 2.33 1.26 4.16 3.45 6.84 5.77-7.28 2.15-13.57 2.16-19.9 1.3-10.34-1.42-19.57-6.14-29.06-10.03-5.48-2.25-10.85-4.75-16.25-7.17-.91-.41-1.84-.86-2.62-1.47-6.53-5.08-13.21-10.01-19.47-15.41-2.98-2.57-5.35-5.95-7.58-9.25-1.02-1.52-1.03-3.72-1.58-5.98 5.34-.05 9.17 2.24 12.85 4.66 4.67 3.06 8.96 6.75 13.78 9.55 3.77 2.19 8.08 3.43 12.15 5.1.32-.31.63-.63.95-.94-2.39-17.43-4.77-34.86-7.21-52.65 4.24.87 6.98 3.21 8.82 6.45 1.42 2.5 2.2 5.36 3.44 7.97 1.13 2.4 2.15 4.98 3.82 6.98 2.88 3.46 6.09 3.47 9.53.66 4.86-3.95 9.92-7.58 16.32-9.43z"/><path d="m131.98 301.4c.32-3.31-.07-6.18.92-8.44 6.68-15.26 7.92-31.83 11.85-47.74 1.47-5.96 3.1-11.88 4.47-17.86.79-3.47 1.46-7 1.72-10.54.27-3.62-1.36-4.86-4.75-3.6-5.12 1.9-10.08 4.27-15.16 6.29-2.27.9-4.64 1.74-7.04 2.07-3.35.46-4.86-1.78-3.23-4.66.9-1.59 2.16-3.12 3.61-4.21 3.49-2.6 7.12-5.05 10.83-7.33 9.98-6.13 18.86-13.58 26.99-21.97 2.43-2.51 4.66-2.17 5.47 1.25 1.05 4.47 1.72 9-.89 13.56-1.57 2.75-2.55 6.31-2.44 9.45.2 5.86-1.28 10.98-3.32 16.43-3.39 9.06-5.51 18.59-8.08 27.95-3.4 12.39-6.63 24.82-10.12 37.19-1.48 5.2-4.41 9.47-10.83 12.16z"/><path d="m131.77 49.63c1.17 3.42 2.92 6.77 3.4 10.29.89 6.63 1.46 13.35 1.4 20.03-.06 6.5-4.56 11.18-8.44 15.89-.87 1.06-2.68 1.34-4.37 2.12-.7-3.63-.62-6.44.32-9.74 1.94-6.82 2.77-13.97 3.91-21 .94-5.79 1.66-11.61 2.49-17.42.43-.05.86-.11 1.29-.17z"/></g></svg>