<svg enable-background="new 0 0 400 400" viewBox="0 0 400 400" xmlns="http://www.w3.org/2000/svg"><path d="m6.8 9.5c.6.3 1.3.7 2.1 1.1-.4.4-.7.8-.9 1.2-.7-.4-1.3-.8-1.8-1.1s-1.1-.6-1.6-.8c.2-.4.5-.8.7-1.2.4.2.8.5 1.5.8zm.9 6.9c-.3.6-.5 1.1-.7 1.7s-.4 1.1-.6 1.7c-.6-.4-1.1-.7-1.6-1 .7-1 1.2-1.8 1.5-2.4.3-.5.6-1.1.8-1.7.3-.6.5-1.2.8-1.8.3.3.8.6 1.3.8-.7 1.3-1.2 2.2-1.5 2.7zm.1-11c.4.3 1 .7 1.7 1.1-.5.2-.8.6-1.1 1.1-.5-.6-1-1-1.4-1.2s-.9-.6-1.5-.8c.2-.4.5-.7.9-1.1.5.3.9.6 1.4.9zm10.5 13.1c1 .4 2 .6 3.1.7-.4.4-.7.8-.8 1.3-.9-.2-1.9-.6-3-.9-1-.4-2-.9-2.8-1.6-.5.4-1.1.9-1.9 1.3s-1.9.9-3.3 1.2c-.1-.3-.5-.8-1.1-1.3 1 0 2.1-.3 3.2-.8 1.2-.5 1.9-1 2.3-1.7h-3.2c-.4 0-1 0-2 .1v-1.2c1 0 1.7.1 2 .1h3.3v-1h-2.3c-.2 0-.9 0-2 .1v-1.2c1.2 0 1.9.1 2 .1h2.3v-.8h-4.1c0-.7.1-1.2.1-1.6 0-.5 0-1.1-.1-1.8h4.1v-.7h-2.5c0-.6.1-1.1.1-1.6v-.6h-.5c-.4 0-1 0-1.8.1v-1.3c1.2 0 1.9.1 2.1.1h.2c0-.3 0-.8-.1-1.4h1.4c0 .6-.1 1-.1 1.4h3.4c0-.4 0-.8-.1-1.3h1.5c0 .4-.1.9-.1 1.3.7 0 1.5 0 2.5-.1v1.2c-1 0-1.8-.1-2.5-.1v.6c0 .3 0 .8.1 1.5h-2.5v.8h4.1c0 .7-.1 1.3-.1 1.8s0 1 .1 1.5h-4.1v.8h1.4c.8 0 1.8 0 2.9-.1v1.2c-1 0-1.9-.1-2.8-.1h-1.5v1h3.2c.3 0 1 0 2.1-.1v1.2c-1.1 0-1.8-.1-2.1-.1h-3.4l-.1.1c1.4 1 2.4 1.5 3.4 1.9zm-4.1-6.7v-1.3h-2.7v1.3zm2.2-4.1v-1.1h-3.4v1.1zm1.9 4.1v-1.3h-2.8v1.3z" fill="#fafbfa"/><path d="m37 6.7v2.3 5.4c1 0 1.8 0 2.2-.1v1.3c-.6 0-1.5-.1-2.5-.1h-11.9c-.7 0-1.3 0-1.8.1v-1.3c.5 0 1.1.1 2 .1v-5.2c0-1 0-1.8-.1-2.5h3.7c0-1.3 0-2.1-.1-2.5h1.5c0 .4-.1 1.3-.1 2.5h2.2c0-1.2 0-2.1-.1-2.6h1.5c0 .4-.1 1.3-.1 2.6zm-12.3 13.7c-.3-.4-.7-.8-1.1-1.1 1.1-.4 2.1-.9 2.9-1.3.8-.5 1.5-1 2.1-1.6.4.4.9.8 1.3 1.1-2.5 1.4-4.2 2.4-5.2 2.9zm3.9-10.1v-2.4h-2.2v2.4zm0 4.1v-2.9h-2.2v2.9zm3.5-4.1v-2.4h-2.2v2.4zm0 4.1v-2.9h-2.2v2.9zm.4 2.9 1-1.1c.6.3 1.4.7 2.5 1.3s2 1.1 2.7 1.5c-.4.4-.8.8-1.1 1.3-.8-.8-2.5-1.7-5.1-3zm3.1-7v-2.4h-2.1v2.4zm0 4.1v-2.9h-2.1v2.9z" fill="#fafbfa"/><g fill="#010103"><path d="m114.34 280.59c1.12-3.47 1.97-6.23 2.92-8.95.2-.58.63-1.26 1.14-1.53 10.48-5.47 17.17-14.83 24.37-23.66 9.12-11.18 18.5-22.16 27.33-33.57 7.65-9.89 15.2-19.93 19.4-31.99 3.92-11.25 4.66-22.72 2.83-34.4-.16-.99-1.55-2.5-2.41-2.53-5.76-.19-11.57-.45-17.28.11-7.44.73-14.82 2.13-22.2 3.41-1.29.22-2.68 1.08-3.58 2.05-3.02 3.3-5.92 6.72-8.7 10.23-.94 1.18-1.6 2.68-2.03 4.14-2.04 6.97-4.14 13.93-5.81 21-.64 2.7-.77 5.81-.09 8.47 2.24 8.79-2.42 12.78-9.48 14.81-2.11.61-3.84.02-4.48-2.26-.5-1.8-.84-3.67-1.07-5.53-.6-4.85-1.17-9.71-1.59-14.58-.15-1.72-.23-3.61.31-5.2 3.88-11.31 7.91-22.56 11.95-33.81.36-1.01.85-2.26 1.67-2.77 8-4.9 15.98-9.85 24.17-14.42 6.8-3.8 14.35-2.67 21.7-2.31 5.68.27 11.26.15 15.99-3.54.98-.76 1.86-2.26 1.93-3.46 1.18-20.99 2.26-41.99 3.28-63 .51-10.51 4.72-23.68 10.61-32.36 6.72 2.96 11.78 7.64 14.14 14.68.72 2.14-.02 4.78-.13 7.19-.1 2.25-.79 4.64-.27 6.73 2.01 8.12 2.96 16.26 2.12 24.61-.25 2.44-.11 4.92-.08 7.38.09 8.61.27 17.21.29 25.82.01 4.16 2.03 6.43 6.33 5.86 5.19-.68 9.78-3.02 13.63-6.62 4.08-3.81 7.9-7.93 12.24-11.41 6.55-5.27 11.39-11.48 13.87-19.64 2.91-9.59 6.31-19.03 9.69-29.1 3.37 5.16 4.36 10.51 4.69 15.89.77 12.88-.75 25.53-6.01 37.41-1.47 3.33-4.21 6.18-6.67 8.97-1.68 1.91-4.11 3.16-5.83 5.04-10.12 11.05-23.8 15.43-37.36 19.95-3.23 1.08-4.31 2.92-5.19 5.97-4.47 15.52-2.53 30.86 1.09 46.1 2.8 11.8 7.01 22.98 15.32 32.32 5.94 6.68 11.14 14.02 17.01 20.78 2.44 2.81 2.99 5.93 3.27 9.24.2 2.38 1.21 3.6 3.52 4.01 6.49 1.14 10.77 5.19 13.54 10.89.98 2.02 1.27 4.37 2.01 7.03-6.66.56-12.19-.57-16.48-4.74-11.31-11.01-22.49-22.16-33.48-33.49-4.12-4.24-7.61-9.08-11.36-13.67-4.56-5.58-10.62-6.61-17.28-5.66-.9.13-1.77.84-2.52 1.45-7.67 6.15-15.16 12.54-23.03 18.42-4.27 3.19-8.06 6.6-11 11.08-1.3 1.98-3.11 4-5.18 5.05-9.32 4.71-14.08 13.87-20.99 20.91-3.46 3.53-7.19 6.49-12.18 7.15-2.7.34-5.46.05-8.6.05z"/><path d="m269.77 369.53c-5.2 5.3-10.8 6.2-16.78 5.16-30.1-5.23-59.81-12-88.76-21.94-3.54-1.21-3.87-3.77-4.84-6.98 4.52-.34 8.82-.59 13.09-.99 9.17-.85 18.3-.8 27.43.54 3.66.54 5.26-1.3 4.89-5.03-.08-.77-.2-1.59-.53-2.27-3.75-7.64-3.83-16.01-4.94-24.18-.24-1.75-.61-3.52-1.23-5.17-3.76-10.04-7.62-20.04-11.45-30.08 7.35-.92 15.97 3.58 19.4 10.07 1.57 2.96 2.96 6.02 4.63 8.93.99 1.72 2.21 3.37 3.61 4.77 1.84 1.84 3.65 2.05 5.56-.39 3.03-3.87 6.46-7.43 9.59-11.24 1.33-1.63 2.56-1.86 4.6-1.3 3.65 1 6.91 2.21 9.13 5.59 2.29 3.5 2.44 6.48-.15 9.81-4.12 5.3-8.08 10.75-12.5 15.79-7.25 8.26-6.62 17.33-3.36 26.77.36 1.03 1.48 1.91 2.43 2.6 6.91 4.97 14.84 7.66 22.86 10.2 3.61 1.14 7.22 2.44 10.57 4.17 2.4 1.23 4.36 3.3 6.75 5.17z"/></g></svg>