<svg enable-background="new 0 0 400 400" viewBox="0 0 400 400" xmlns="http://www.w3.org/2000/svg"><path d="m62.18 353.74c8.79-1.48 17.22-3.1 25.71-4.28 14.02-1.96 28.11-1.4 42.21-.74 18.1.84 35.96-1.03 53.56-5.43 7.06-1.76 10.46-6.53 9.01-13.64-2.06-10.12-6.29-19.28-13.13-27.16-5.09-5.86-9.19-12.49-9.47-20.31-.22-6.15.97-12.42 2.08-18.54 3.01-16.68 10.89-31.34 19.51-45.66.63-1.05 1.18-2.16 1.74-3.25.09-.18.08-.42.23-1.44-3.26-1.57-6.58-3.72-10.23-4.81-10.59-3.16-21.32-5.89-31.99-8.81-1.72-.47-3.4-1.11-5.14-1.52-14.63-3.42-23.7-13.6-31.3-25.6-8.24-13.01-12.31-27.39-14.5-42.5-2.74-18.87-4.01-37.79-4.09-56.86-.02-5.72-1.23-11.55-2.68-17.13-1.58-6.05-1.05-11.74 1.04-17.4.3-.8 1.74-1.53 2.75-1.67 13.3-1.81 26.61-3.53 39.92-5.24 14.75-1.9 29.47-4.18 44.27-5.51 9.66-.87 19.45-.54 29.17-.39 11.51.18 23.05.41 34.53 1.26 12.59.94 25.27 1.89 37.64 4.26 8.11 1.55 15.74 5.62 23.57 8.6 7.23 2.75 7.67 2.9 5.58 10.39-5.21 18.64-4.29 37.67-4.37 56.66-.01 2.75-.39 5.58-1.12 8.23-5 18.21-10.09 36.39-15.31 54.54-.47 1.62-1.78 3.36-3.2 4.28-14.14 9.24-28.17 18.67-42.68 27.28-6.55 3.89-14.11 6.1-21.27 8.93-3.63 1.44-7.33 2.35-8.27 7.15-1 5.05-1.13 9.81 2.06 14.1 3.66 4.94 7.49 9.76 11.21 14.66.66.87 1.5 1.85 1.63 2.86 1.53 11.95 4.28 23.82 2.09 36.01-1.29 7.16-3.84 13.76-7.97 19.74-6.89 10-9.27 21.14-8.71 33.1.12 2.52 1 3.62 3.57 4.15 11.17 2.31 22.21 1.63 33.29-.67 15.95-3.31 31.7-2.84 47.33 2.32 6.76 2.23 13.92 3.22 20.81 5.1 6.4 1.75 9.29 5.78 9.37 12.13-3.6 1.52-3.6 1.52-9.79-3.56-.45 3.62-.71 7-1.36 10.3-.18.93-1.44 2.24-2.32 2.34-17.91 1.91-35.8 4.33-53.76 5.24-14.94.76-29.97-.26-44.96-.51-11.41-.19-22.81-.43-34.22-.62-28.64-.46-57.29-.55-85.9-1.56-9.06-.32-18-3.29-27.06-4.61-3.58-.52-5.23-2.09-6.05-5.39-.71-2.75-1.85-5.41-3.03-8.82zm71.42-249.52c.8 0 1.25.03 1.69 0 15.81-1.38 31.62-2.8 47.43-4.11 2.11-.18 2.93-1.25 3.21-3.09 1.46-9.48 3.35-18.92 4.18-28.45.37-4.26-1.25-8.74-2.27-13.05-.24-1.03-1.7-2.52-2.61-2.53-10.08-.06-20.17-2.92-30.27.19-3.39 1.04-7.1 1.08-10.49 2.12-4 1.22-7.94 2.77-11.67 4.65-2.59 1.3-7.99 17.07-7.11 19.86 2.57 8.09 5.23 16.14 7.91 24.41zm80.2-6.16c.85.23 1.36.45 1.89.51 11.99 1.41 23.96 3 35.97 4.15 8.36.8 16.53-.44 24.03-4.51 1.06-.58 2.39-2.06 2.34-3.07-.36-7.58-.6-15.2-1.72-22.69-1.36-9.13-6.91-15.19-16.23-16.26-10.17-1.16-20.46-1.36-30.7-1.94-.61-.03-1.4.19-1.85.58-5.8 4.94-13.41 8.77-11.72 18.48.07.42-.12.88-.15 1.33-.62 7.79-1.24 15.56-1.86 23.42zm5.56 77.6c3.37-.19 6.27-.26 9.15-.52 14.24-1.3 25.29-8.71 35.36-18.21 4.04-3.81 7.07-8 8.1-13.49.88-4.7 2.12-9.39 2.4-14.14.3-5.04-2.59-7.05-7.56-6.11-.77.15-1.52.37-2.28.56-9.2 2.35-18.36 2.26-27.51-.3-.84-.24-1.83-.52-2.6-.3-5.89 1.69-11.75 3.5-17.87 5.34.93 15.67 1.85 31.16 2.81 47.17zm-30.05-3.19c.04-.64.11-1.07.08-1.51-.72-11.6-1.48-23.2-2.15-34.81-.18-3.14-1.74-5.59-4.44-6.59-10.16-3.77-20.43-6.65-30.86-.65-2.61 1.5-5.21 3.16-8.02 4.16-4.49 1.59-5.55 4.97-5.77 9.11-.58 10.98 9.6 25.04 20.13 27.79 3.89 1.01 7.78 2.04 11.66 3.1 6.42 1.77 12.78 1.71 19.37-.6z" fill="#010102"/><g fill="#fafbfa"><path d="m6.4 11.7c-1-.8-1.9-1.6-2.9-2.3l.6-.7c.9.7 1.9 1.4 2.9 2.2zm-2.1 8.3c.7-2.1 1.4-4.2 2-6.4.2.1.6.3 1 .4-.7 2.3-1.3 4.4-1.9 6.4zm3-12.8c-1.1-.9-2.1-1.7-2.9-2.4l.6-.7c1 .8 2 1.5 3 2.4zm1.4-1.3v-.9h10.2v.9c-.9 4.2-2.3 7.3-4.1 9.4 1.3 1.4 3.2 2.7 5.7 4-.2.2-.4.5-.7.9-2.5-1.4-4.4-2.7-5.7-4.2-1.4 1.5-3.5 3-6.1 4.4 0 0 0 0-.1-.1-.3-.4-.5-.7-.7-.8 2.7-1.3 4.7-2.8 6.2-4.2-1.8-2.2-3-5.3-3.7-9.4zm9.2 0h-7.1c.6 3.8 1.7 6.7 3.4 8.7 1.7-2 2.9-4.8 3.7-8.7z"/><path d="m31.6 3.6h.9v2.3h4.1v9.1h1.7v.9h-16.6v-.9h1.7v-9.1h4.1v-2.3h.9v2.3h3.1v-2.3zm-4 13.3.6.8c-1.9.9-3.8 1.9-5.8 2.8-.2-.3-.3-.6-.5-.9 2-.9 3.9-1.8 5.7-2.7zm-3.2-10.1v3.7h3.1v-3.7zm0 4.5v3.7h3.1v-3.7zm4.1-4.5v3.7h3.1v-3.7zm0 4.5v3.7h3.1v-3.7zm9.1 9.1c-2.1-1.1-4.1-2-5.8-2.7l.5-.8c2.2.9 4.1 1.8 5.8 2.6zm-1.9-13.6h-3.1v3.7h3.1zm-3.2 4.5v3.7h3.1v-3.7z"/></g></svg>