<svg enable-background="new 0 0 400 400" viewBox="0 0 400 400" xmlns="http://www.w3.org/2000/svg"><path d="m21.89 343.55c13.4-4.89 26.64-10.31 40.25-14.53 13.43-4.16 27.16-7.43 40.91-10.41 4.14-.9 8.86.13 13.18.95 4.45.85 8.49.83 12.58-1.33 8.23-4.34 17.44-4.57 26.39-5.68 2.16-.27 4.48 1.18 6.78 1.43 1.85.21 3.91.19 5.64-.4 2.83-.98 5.4-2.71 8.22-3.77 2.72-1.02 4.13-2.93 3.84-5.56-.95-8.52-1.61-17.15-3.58-25.45-1.01-4.25-6.02-5.95-10.23-6.5-6.52-.86-13.13-1.3-19.71-1.37-19.82-.18-39.6-.96-59.19-4.14-4.9-.8-9.67-2.41-15.32-3.86 8.37-5.4 16.21-9.58 24.97-11.15 15.28-2.74 30.63-5.26 46.04-7.04 5.73-.66 11.74.88 17.6 1.63 4.51.57 9.02 1 13.01-1.56 1.26-.81 2.52-2.65 2.61-4.09.55-9.16.85-18.34 1.03-27.51.02-1.16-.89-2.73-1.86-3.45-3.77-2.81-8.18-3.15-12.78-2.96-12.52.51-25.1 1.25-37.48-1.2-5.44-1.08-10.64-3.31-16.01-4.8-2.85-.8-5.82-1.49-8.76-1.61-4.52-.19-6.8-1.13-8.18-5.4-1.26-3.9-2.3-8-2.53-12.07-.41-7.37-.4-14.78-.05-22.15.14-3.01 2.07-5.91 2.43-8.95 1.21-10.32 2.11-20.69 3.05-31.04.1-1.07-.19-2.24-.54-3.29-4.15-12.29-8.27-24.57-12.57-36.79-.78-2.23-1.16-4.2-.06-6.36.45-.89.76-1.88.96-2.86 1.15-5.65 3.65-9.64 10.33-8.98.9.09 1.91-.54 2.8-.98 3.02-1.46 6.21-2.68 8.97-4.55 7.36-4.98 14.9-6.35 23.23-2.6 1.02.46 3.13-.1 3.97-.95 2.1-2.11 4.47-2.9 7.32-3.48 17.83-3.58 35.82-3.19 53.82-2.53 1.44.05 2.97.11 4.29.61 13.4 5.04 27.62 6.3 41.5 9.12 9.95 2.02 19.87 4.43 29.55 7.49 14.57 4.6 23.67 15.07 27.65 29.56 2.66 9.67 4.48 19.63 5.88 29.57.54 3.78-.95 7.92-1.83 11.82-2.3 10.21-3.29 20.83-8.82 30.08-.89 1.49-1.93 3.02-3.25 4.11-6.04 4.99-12.17 9.87-18.35 14.68-1.28 1-2.84 1.81-4.39 2.28-8.34 2.53-16.83 4.61-25.05 7.47-7.26 2.52-14.25 5.79-21.32 8.84-3.07 1.33-6 2.95-9.01 4.41-3.63 1.75-6.12 3.98-6.05 8.63.12 8.05-.21 16.12-.58 24.16-.11 2.42.93 3.67 2.76 4.83 3.81 2.41 8.09 2.13 12.3 2.57 15.68 1.64 31.34 3.49 47.01 5.24 2.55.29 5.15.81 7.67.62 3.59-.27 6.05 1.56 6.5 4.49.57 3.72-.07 7.64-.45 11.45-.05.55-1.49 1.13-2.38 1.41-9.22 2.84-18.62 3.3-28.2 2.5-6.89-.57-13.83-.6-20.75-.71-6.25-.1-12.51.11-18.77.05-5.71-.05-10.32 4.1-10.5 9.78-.25 7.72-.48 15.44-.51 23.16 0 1.19.8 2.79 1.75 3.51 5.84 4.43 12.61 6.06 19.85 6.02 9.39-.06 18.77-.28 28.16-.13 3.2.05 6.47.67 9.55 1.56 8.26 2.39 16.72 2.84 25.22 3.16 6.31.23 8.5 2.57 8.21 8.89-.18 3.96.91 5.26 4.67 5.86 1.71.27 2.68-.15 3.19-1.92.92-3.22 1.83-6.48 3.16-9.54.47-1.09 2.08-2.27 3.27-2.4 20.64-2.17 40.53 1.63 60.07 7.94.94.3 2.07 1.05 2.44 1.88 1.36 3.06 2.55 6.21 3.53 9.41.24.77-.29 2.18-.94 2.76-4.27 3.78-8.66 7.44-13.06 11.07-.64.52-1.57.91-2.39.95-9.37.51-18.75 1.05-28.13 1.36-15.32.51-30.28-2.47-45.29-4.94-.44-.07-.89-.29-1.31-.25-15.01 1.41-28.84-4.09-43.06-7.33-.76-.17-1.55-.33-2.32-.31-14.79.38-29.51-.31-44.18-2.38-3.37-.48-7.01-.29-10.33.46-8.14 1.84-16.27.83-24.36.37-5.21-.29-9.97.21-14.58 2.51-4.6 2.3-9.42 3.29-14.59 2.87-2.78-.23-5.6.09-8.39-.06-14.41-.8-28.56 1.03-42.65 3.86-2.58.52-5.39.67-7.97.25-9.57-1.57-18.92-1.25-27.96 2.5-2.6 1.08-4.87.86-7.25-.57-1.91-1.15-4.1-1.83-5.99-3-1.69-1.04-3.13-2.47-4.68-3.73.13-.49.26-1 .38-1.51zm210.66-266.65c-3.46-.16-6.93-.48-10.38-.39-1.26.03-2.79.74-3.69 1.64-3.48 3.48-6.75 7.16-10.1 10.77-4.83 5.2-6.76 17.93-3.7 24.37 1 2.11 2.29 3.55 4.88 3.99 10.46 1.78 20.85 3.93 31.32 5.69 9.93 1.66 19.93 2.83 30.03 1.43 7.25-1 7.61-1.28 8.6-8.2.08-.55.23-1.1.25-1.66.21-5.49 2.2-10.93-.75-16.42-4.52-8.39-11.89-13.05-20.19-16.82-8.41-3.81-17.35-3.99-26.27-4.4zm-78.69 39.94c5.74-.95 13.1-2.05 20.39-3.49 1.11-.22 2.65-1.95 2.73-3.06.44-6.91.86-13.87.59-20.78-.16-3.92-1.52-7.83-2.59-11.67-.64-2.31-2.26-3.61-4.94-3.56-9.36.18-18.73.21-28.09.34-6.97.09-13.98 1.6-20.78-1.62-2.35-1.11-5.93 2.92-5.57 5.56.69 5.08 1.01 10.21 1.76 15.28.73 4.93 1.54 9.87 2.83 14.67.81 3.03 3.12 4.88 6.6 5.23 8.44.84 16.85 1.91 27.07 3.1zm23.19 44.57c0-2.01 0-4.02 0-6.04 0-7.1-.33-7.53-7.33-9.6-.75-.22-1.5-.51-2.26-.57-13.11-1.12-26.22-2.23-39.33-3.27-.75-.06-1.97.28-2.28.83-4.01 7.14-7.58 14.44-7.34 22.95.1 3.56 1.57 5.97 5.36 6.48 10.6 1.43 21.16 3.3 31.81 4.12 6.01.46 12.16-.73 18.24-1.35 2.3-.23 3.39-1.61 3.19-4.17-.24-3.1-.06-6.25-.06-9.38zm83.87-6.21c-3.37-7.08-1.57-5.51-8.21-5.05-3.33.23-6.7 1.18-9.97.9-9.68-.84-19.36-1.9-28.96-3.36-3.8-.58-5.6 1.51-6.9 3.92-3.01 5.58-1.03 17.52 3.39 22.2.74.79 2.08 1.55 3.08 1.48 5.33-.37 10.74-.53 15.94-1.65 12.45-2.69 21.55-11.32 31.63-18.44zm25.94 175.89c-1.43 1.4-4.28 2.06-2.07 4.93 2.95-.73 4.3-2.02 2.07-4.93z" fill="#010000"/><g fill="#fbfcfa"><path d="m361.2 9.6.8-1c.9.7 1.9 1.4 2.9 2.3l-.9 1.1c-1-1-2-1.8-2.8-2.4zm.5 10.6c.9-2.1 1.6-4.3 2.3-6.7.4.2.8.4 1.3.6-.7 2.1-1.5 4.3-2.2 6.6zm.4-15.2.9-.9c1 .8 2 1.6 2.8 2.4l-1 1c-.9-.9-1.8-1.7-2.7-2.5zm12.5-1.2h1.2v1.4h2.7v1.1h-2.7v2.7h-1.2v-.6h-1.8v1.3h4.9v3.8h-1.2v-.5h-3.7c0 .4-.1.9-.1 1.2h5.1v1h-5.2c0 .5-.1.9-.2 1.2h6v1h-5.2c1.1 1.3 2.9 2 5.5 2.2-.4.4-.7.8-.9 1.3-2.9-.5-4.8-1.6-5.7-3.5h-.1c-.8 1.7-2.7 2.9-5.9 3.6-.2-.4-.6-.8-.9-1.1 2.8-.6 4.6-1.4 5.4-2.5h-4.8v-1h5.3c.1-.3.2-.7.2-1.2h-4.9v-1h5c0-.4 0-.8.1-1.2h-3.5v.5h-1.2v-3.8h4.9v-1.3h-1.8v.5h-1.2v-2.7h-2.7v-1h2.6v-1.4h1.2v1.4h4.7v-1.4zm-6.6 8.3h3.6c0-.4 0-.9 0-1.4h-3.6zm1.9-4.6h4.7v-1.3h-4.7zm6.6 3.2h-3.7v1.4h3.7z"/><path d="m385.3 3.8h1.3v2.2h2.8v-2.2h1.3v2.2h4.1v9.1h1.7v1.3h-16.9v-1.3h1.7v-9.1h4.1v-2.2zm.4 13.1.7 1.2c-1.8.9-3.8 1.9-6 2.9-.2-.4-.5-.8-.8-1.3 2.3-1 4.3-1.9 6.1-2.8zm-3.1-6.4h2.8v-3.2h-2.8zm0 4.6h2.8v-3.3h-2.8zm4-4.6h2.8v-3.2h-2.8zm0 4.6h2.8v-3.3h-2.8zm3.7 1.9c2.1.9 4.1 1.8 6.1 2.7l-.7 1.3c-2.2-1.1-4.2-2-6.1-2.9zm3.2-9.7h-2.8v3.2h2.8zm-2.8 7.8h2.8v-3.3h-2.8z"/></g></svg>