<svg enable-background="new 0 0 400 400" viewBox="0 0 400 400" xmlns="http://www.w3.org/2000/svg"><path d="m362.1 8.8c1.1.8 2.1 1.6 3.1 2.4l-1 1.1c-1.3-1.1-2.3-2-3-2.5zm1.9 4.8c.5.2.9.4 1.4.5-.6 2.3-1.3 4.5-1.9 6.8l-1.5-.5c.8-2.1 1.4-4.3 2-6.8zm-1-9.4c1.3.9 2.4 1.8 3.4 2.5l-1 1.1c-1.4-1.2-2.4-2.1-3.2-2.6zm3.7 2.2v-1.4h10.3v1.2c-.5 3.6-1.8 6.8-4 9.4 1.5 1.6 3.4 2.8 5.7 3.8-.3.4-.7.8-1.1 1.4-2.3-1.1-4.1-2.5-5.6-4.1-1.6 1.6-3.6 3.1-5.9 4.3-.3-.5-.7-.9-1-1.3 2.4-1.1 4.4-2.5 6-4.1-1.9-2.5-3-5.6-3.3-9.3h-1.1zm8.8 0h-6.4c.3 3.3 1.3 6 3 8.2 2-2.3 3.1-5.1 3.4-8.2z" fill="#fbfafc"/><path d="m385.3 3.8h1.3v2.2h2.8v-2.2h1.3v2.2h4.1v9.1h1.7v1.3h-16.9v-1.3h1.7v-9.1h4.1v-2.2zm.4 13.1.7 1.2c-1.8.9-3.8 1.9-6 2.9-.2-.4-.5-.8-.8-1.3 2.3-1 4.3-1.9 6.1-2.8zm-3.1-6.4h2.8v-3.2h-2.8zm0 4.6h2.8v-3.3h-2.8zm4-4.6h2.8v-3.2h-2.8zm0 4.6h2.8v-3.3h-2.8zm3.7 1.9c2.1.9 4.1 1.8 6.1 2.7l-.7 1.3c-2.2-1.1-4.2-2-6.1-2.9zm3.2-9.7h-2.8v3.2h2.8zm-2.8 7.8h2.8v-3.3h-2.8z" fill="#fbfafc"/><path d="m87.29 248.15c15.29-2.98 30.32-5.91 45.35-8.83 10.86-2.11 21.69-4.45 32.62-6.18 6.04-.95 12.24-.92 18.38-1.21 4.82-.23 9.41-1.05 12.77-4.86.86-.97 1.45-2.5 1.51-3.8.19-4.13.24-8.29-.02-12.42-.09-1.42-.94-3.15-2.01-4.08-3.15-2.74-7.04-4.22-11.18-3.56-11.37 1.82-22.56.43-33.69-1.61-16.05-2.93-32.16-5.67-48.04-9.38-18.31-4.28-34.13-13.02-45.72-28.51-3.05-4.08-7.14-7.39-10.72-11.08-3.11-3.21-5.04-7-5.91-11.44-.41-2.12.27-3.06 2.05-3.81 1.83-.78 3.57-1.75 6.06-2.99-4.32-2.91-8.14-5.5-11.98-8.06-2.7-1.8-5.66-3.28-8.06-5.41-2.03-1.8-3.88-4.1-4.98-6.56-2.13-4.74-1.11-6.65 3.63-8.69 27.62-11.87 55.24-23.74 82.84-35.64 1.42-.61 2.94-1.28 4.02-2.33 4.64-4.54 10.32-6.69 16.48-8.31 19.03-4.98 37.87-10.72 57-15.24 10.83-2.56 22.05-3.93 33.18-4.65 6.45-.42 13.06 1.52 19.6 2.41 8.09 1.1 16.15 2.43 24.27 3.29 11.19 1.19 20.41 6.56 28.58 13.66 16.17 14.05 20.7 32.53 19.01 53.09-.95 11.59-4.64 22.42-10.89 32.09-4.1 6.34-9.74 11.65-14.31 17.72-7.87 10.47-17.55 18.65-29.12 24.73-4.25 2.23-8.35 4.79-12.34 7.47-7.14 4.78-10.44 11.69-10.68 20.21-.06 2.11.66 3.13 2.8 3.74 12.06 3.43 24.43 4.09 36.84 4.68 6.56.31 13.23.67 19.58 2.15 8.77 2.03 13.06 8.66 12.21 16.74-.18 1.75-.71 2.74-2.56 3.31-7.15 2.21-14.23 4.67-21.37 6.93-1.34.42-2.83.43-4.26.51-8.59.45-17.23.47-25.78 1.38-9.55 1.01-16.4 8.81-17.51 18.89-.3 2.67-.23 5.42-.9 7.99-.81 3.1.61 4.95 3.03 5.79 3.72 1.3 7.76 3.18 11.47 2.8 17.73-1.81 35.3.34 52.93 1.15 13.52.62 27.05 1.2 40.53 2.28 6.06.49 12.15 1.75 18.01 3.41 7.31 2.06 10.56 7.7 11.36 15.03.23 2.12-.47 2.92-2.44 3.48-17.08 4.78-34.47 6.64-52.14 5.29-19.59-1.5-39.18-1.68-58.6 1.19-11.47 1.69-22.68 5.05-34.05 7.49-6.26 1.34-12.37 2.81-17.58 6.89-.96.75-2.73.78-4.08.65-2.89-.29-5.77-.76-8.6-1.42-3.67-.86-7.2-.69-10.9.07-14.67 3.04-29.38 5.84-44.07 8.8-1.5.3-3 .88-4.34 1.62-6.75 3.73-13.78 7.09-20.09 11.47-6.92 4.81-14.21 5.24-21.74 3.33-6.56-1.66-12.95-4.11-19.28-6.57-7.18-2.79-14.14-6.16-21.34-8.91-3.52-1.34-6.2-3.22-8.15-6.43-1.44-2.37-3.24-4.51-5.12-7.08 9.32-2.08 18.24-4.1 27.17-6.07 32.85-7.26 65.76-14.28 98.53-21.89 9.3-2.16 18.34-5.68 27.26-9.18 9.33-3.66 12.05-9.47 10.04-19.19-1.72-8.31-4.52-10.78-13.09-10.19-4.27.3-8.54 1.6-12.67 2.89-5.54 1.72-10.99 3.76-16.42 5.85-9.47 3.64-18.8 3.15-28.16-.4-11.17-4.23-22.37-8.4-33.6-12.49-5.59-2.06-9.01-5.93-10.62-12zm-2.8-109.48c1.19-.55 2.19-1.01 3.19-1.47 12.26-5.6 25.36-7.72 38.58-9.45 11.95-1.57 23.03-5.44 32.57-13.05.79-.63 1.79-2.1 1.55-2.78-4.38-12.49-11.52-22.45-24.98-26.34-3.47-1-6.48-.48-9.68 1.68-13.34 9.01-26.76 17.93-40.45 26.38-6.75 4.16-12.42 9.01-15.93 16.14-1.35 2.74-3.49 3.68-6.35 4.02-4.02.48-8.01 1.27-12.97 2.09 14.31 9.21 26.42 20.11 42.58 24.04 4 .97 7.83 2.62 11.79 3.81 15.71 4.73 31.13 10.58 47.52 12.74 11.58 1.53 22.99 1.01 33.85-3.88 1.02-.46 2.28-1.29 2.6-2.23 2.35-6.85-.56-17.15-6.18-21.79-3.94-3.25-8.08-5.12-13.48-2.7-5.28 2.36-11.02 3.67-16.41 5.8-7.43 2.95-15.1 4.01-22.99 3.63-16.45-.8-31.89-4.43-44.81-16.64zm77.88-61.26c15.42 10.6 30.04 20.68 44.74 30.67.87.59 2.38.68 3.46.44 10.22-2.32 20.44-4.64 30.61-7.2 7.63-1.92 15.03-1.77 22.32 1.3 4.48 1.88 5.7 4.29 3.95 8.87-.77 2.02-2.03 4.16-3.68 5.45-2.77 2.17-5.85 4.29-9.14 5.42-9.92 3.41-19.98 6.45-30.05 9.38-5.63 1.64-6.86 2.55-7.69 8.36-.28 1.95-.47 4.21.23 5.96 2.11 5.25 4.59 10.37 7.15 15.42.41.82 2.13 1.64 3.01 1.44 4.29-.98 8.85-1.64 12.67-3.65 8.5-4.47 15.82-10.86 21.4-18.56 5.68-7.82 9.87-16.7 15.02-24.92 2.67-4.26 3.26-8.67 2.68-13.43-.39-3.22-.64-6.47-1.27-9.64-1.86-9.28-5.33-17.69-14.32-22.31-13.18-6.77-27.35-8.4-41.75-6.16-11.02 1.71-21.83 4.72-32.73 7.17-8.6 1.92-17.19 3.86-26.61 5.99z" fill="#000001"/></svg>