<svg enable-background="new 0 0 400 400" viewBox="0 0 400 400" xmlns="http://www.w3.org/2000/svg"><g fill="#fafafb"><path d="m12.4 4.8-6.1 9h6v1.2h-8v-.5l6.1-8.9h-5.7v-1.2h7.6v.4z"/><path d="m14 15v-10.6h3c1.6 0 2.9.5 4 1.4s1.6 2.2 1.6 3.8-.5 3-1.6 3.9-2.4 1.5-4 1.5zm1.4-9.4v8.2h1.6c1.3 0 2.4-.4 3.1-1.1s1.1-1.8 1.1-3.1-.4-2.3-1.2-3-1.8-1-3.1-1z"/><path d="m26.1 4.4v10.6h-1.4v-10.6z"/><path d="m36.1 14.6c-.8.4-1.8.6-2.9.6-1.5 0-2.7-.5-3.6-1.4s-1.4-2.2-1.4-3.8c0-1.7.5-3.1 1.5-4.1s2.3-1.6 3.9-1.6c1 0 1.8.1 2.5.4v1.4c-.8-.4-1.6-.6-2.5-.6-1.2 0-2.1.4-2.9 1.2s-1.1 1.8-1.1 3.2c0 1.3.3 2.3 1 3s1.6 1.1 2.7 1.1c1 0 2-.2 2.7-.7v1.3z"/><path d="m37.6 14.3c0-.2.1-.5.3-.6s.4-.3.6-.3c.3 0 .5.1.6.3s.3.4.3.6-.1.4-.3.6-.4.3-.6.3c-.3 0-.5-.1-.6-.3s-.3-.4-.3-.6z"/><path d="m50.2 15h-1.6l-5.3-8.2c-.2-.2-.3-.5-.4-.7 0 .2.1.7.1 1.5v7.4h-1.4v-10.6h1.7l5.2 8.1c.2.4.4.6.4.7 0-.3-.1-.8-.1-1.5v-7.3h1.4z"/><path d="m58.6 15h-5.7v-10.6h5.5v1.2h-4.1v3.4h3.8v1.2h-3.8v3.6h4.3z"/><path d="m67.1 5.6h-3.1v9.4h-1.4v-9.4h-3v-1.2h7.5z"/></g><path d="m58.07 369.81c0-2.32-.27-4.47.13-6.49.17-.87 1.65-1.96 2.66-2.12 11.47-1.78 22.93-4.31 34.47-4.85 23.8-1.13 47.64-1.16 71.47-1.67 5.48-.12 10.96-.22 16.42-.64 1.41-.11 3.18-1.06 4.03-2.19 3.58-4.76 4.61-10.52 4.51-16.21-.29-17.11-.96-34.22-1.6-51.33-.24-6.36-.81-12.71-1.25-19.39-3.41 0-6.71-.12-10.01.02-14.97.62-29.94 1.57-44.92 1.82-5.14.08-10.45-1.04-15.41-2.53-5.45-1.64-6.32-4.38-4.35-9.63 3.06-8.13 3.07-7.98 11.81-8.63 19.74-1.48 39.48-3.09 59.21-4.78.89-.08 2.32-1.4 2.4-2.25.5-5.55 1.08-11.14.93-16.7-.53-18.79-1.38-37.58-2-56.37-.07-2.07-.58-3.48-2.65-3.95-4.11-.94-8.19-2.16-12.35-2.61-5.88-.64-11.9-.16-17.71-1.09-9.82-1.56-18.32-6.62-26.1-12.45-18.38-13.77-30.1-31.97-34.05-54.74-2.38-13.69-.11-26.96 5.24-39.7.44-1.05 1.4-1.99 2.32-2.73 12.37-9.97 26.98-15.07 41.94-19.57 14.88-4.48 29.9-3.65 44.91-1.65 21.61 2.88 43.16 6.24 64.74 9.38 3.54.52 7.09 1.01 10.64 1.41 12.5 1.41 21.89 8.32 29.36 17.7 11.12 13.95 13.27 30.45 11.58 47.64-.97 9.82-3.86 19.28-9.63 27.24-7.55 10.41-15.63 20.86-28.72 24.69-7.13 2.09-14.71 2.65-22.11 3.8-7.84 1.22-15.7 2.4-23.57 3.43-2.05.27-2.52 1.19-2.63 3.03-.5 9.16-1.13 18.32-1.68 27.48-.86 14.08-1.6 28.16-2.61 42.22-.21 2.89.5 4.37 3.37 4.84 10.13 1.66 20.23 3.45 30.37 5.05 6.72 1.06 13.57 1.46 20.19 2.93 5.81 1.29 10.7 4.47 13.28 10.32.87 1.98.69 3.14-1.51 4.17-7.63 3.59-15.66 4.22-23.91 3.91-11.51-.43-23.03-.71-34.55-1.05-.77-.02-1.54 0-2.59 0-.19 2.43-.44 4.62-.53 6.82-1.01 24.04-1.95 48.09-3.04 72.13-.11 2.36.5 4.03 2.61 4.76 3.34 1.14 6.75 2.6 10.2 2.85 20.19 1.41 40.41 2.47 60.61 3.73 12.5.78 24.99 1.79 37.5 2.55 2.27.14 3.66.95 4.76 2.91 1.75 3.11 3.75 6.09 6.07 9.81-3.6 1.11-6.87 2.37-10.25 3.12-12.25 2.7-24.71 2.42-37.12 2.05-9.49-.28-18.94-1.59-28.43-1.92-7.14-.24-14.3.56-21.45.53-7.69-.03-15.41-.13-23.06-.82-19.13-1.73-38.22-1.29-57.3.46-21.59 1.98-43.12 1.52-64.64-1.14-10.65-1.32-21.37-2.12-32.06-3.16-1.22-.13-2.42-.27-3.94-.44zm128.34-247.19c-.31 0-.63 0-.94 0 0-4.58-.06-9.17.03-13.75.04-2.07-.72-2.95-2.83-3.17-14.89-1.57-29.79-3.15-44.66-4.93-4.76-.57-8.25 2.31-12.26 3.77-.47.17-.99 1.1-.96 1.65.16 3.16-.7 7.35.98 9.28 4.99 5.74 10.31 11.83 16.79 15.47 7.45 4.19 16.22 6.14 24.56 8.61 5.63 1.67 11.52 1.83 17.11-.48.98-.4 2.02-1.97 2.08-3.06.24-4.45.1-8.92.1-13.39zm91.61-35.84c-.88-12.96-6.53-22.34-18.09-27.32-12.52-5.39-25.74-8.03-39.41-8.35-2.25-.05-3.24.85-3.8 2.79-2.55 8.81-3.42 17.74-2.02 26.84.3 1.96 1.03 3 3.4 3.1 14.39.6 28.78 1.42 43.17 2.15 5.44.28 10.89.52 16.75.79zm-92.12-6.83c-.44-6.01-.69-11.68-1.3-17.31-.76-7-4.83-11.33-11.78-12.16-6.51-.78-13.13-1.33-19.67-1.1-9.83.35-18.55 3.68-24.98 11.7-1.6 2-3.57 3.7-5.35 5.56-4.75 4.97-4.68 4.94-2.04 11.33.72 1.75 1.68 2.25 3.5 2.24 19.58-.06 39.16-.04 58.73-.05.64 0 1.3-.09 2.89-.21zm84.65 31.34c-2.57-.86-4.71-2-6.95-2.25-13.54-1.52-27.09-2.89-40.66-4.13-.9-.08-2.4 1.06-2.81 2-3.39 7.55-4.06 15.54-2.95 23.63.43 3.14 1.6 6.24 2.84 9.19.43 1.03 2.02 2 3.21 2.21 12.47 2.17 23.35-1.99 33.39-8.89 2.8-1.93 5.75-4.22 7.45-7.05 2.6-4.37 4.18-9.34 6.48-14.71z" fill="#010105"/></svg>