<svg enable-background="new 0 0 400 400" viewBox="0 0 400 400" xmlns="http://www.w3.org/2000/svg"><path d="m12.4 4.8-6.1 9h6v1.2h-8v-.5l6.1-8.9h-5.7v-1.2h7.6v.4z" fill="#fafafb"/><path d="m14 15v-10.6h3c1.6 0 2.9.5 4 1.4s1.6 2.2 1.6 3.8-.5 3-1.6 3.9-2.4 1.5-4 1.5zm1.4-9.4v8.2h1.6c1.3 0 2.4-.4 3.1-1.1s1.1-1.8 1.1-3.1-.4-2.3-1.2-3-1.8-1-3.1-1z" fill="#fafafb"/><path d="m26.1 4.4v10.6h-1.4v-10.6z" fill="#fafafb"/><path d="m36.1 14.6c-.8.4-1.8.6-2.9.6-1.5 0-2.7-.5-3.6-1.4s-1.4-2.2-1.4-3.8c0-1.7.5-3.1 1.5-4.1s2.3-1.6 3.9-1.6c1 0 1.8.1 2.5.4v1.4c-.8-.4-1.6-.6-2.5-.6-1.2 0-2.1.4-2.9 1.2s-1.1 1.8-1.1 3.2c0 1.3.3 2.3 1 3s1.6 1.1 2.7 1.1c1 0 2-.2 2.7-.7v1.3z" fill="#fafafb"/><path d="m37.6 14.3c0-.2.1-.5.3-.6s.4-.3.6-.3c.3 0 .5.1.6.3s.3.4.3.6-.1.4-.3.6-.4.3-.6.3c-.3 0-.5-.1-.6-.3s-.3-.4-.3-.6z" fill="#fafafb"/><path d="m50.2 15h-1.6l-5.3-8.2c-.2-.2-.3-.5-.4-.7 0 .2.1.7.1 1.5v7.4h-1.4v-10.6h1.7l5.2 8.1c.2.4.4.6.4.7 0-.3-.1-.8-.1-1.5v-7.3h1.4z" fill="#fafafb"/><path d="m58.6 15h-5.7v-10.6h5.5v1.2h-4.1v3.4h3.8v1.2h-3.8v3.6h4.3z" fill="#fafafb"/><path d="m67.1 5.6h-3.1v9.4h-1.4v-9.4h-3v-1.2h7.5z" fill="#fafafb"/><g fill="#010105"><path d="m116.31 289.1c.61 4.07 1.25 7.21 1.46 10.37.06.94-.93 2.13-1.71 2.93-2.99 3.04-4.42 10.73-2.93 14.78.49 1.33.08 2.99.08 4.97 7.06-1.55 9.52-8.01 14.03-11.55-.92-2.36-1.66-4.4-2.5-6.41-1.23-2.96 1.27-3.52 3.17-4.78-.49-.66-.96-1.3-1-1.36.44-1.88.63-3.33 1.13-4.68.6-1.63 1.27-3.28 2.22-4.72 3.03-4.6 6.22-9.16 5.85-15.01-.12-1.92-1-3.79-1.73-6.41.06-.98-.01-2.86.34-4.66.32-1.65.68-3.64 1.78-4.71 2.71-2.68 6.09-4.01 10.1-3.32 5.11.87 9.58.08 13.26-4.29 3.07-3.64 6.86-6.68 10.29-9.94 9.79 7.35 20.37 6.58 30.9 3.47 3.54-1.05 6.54-2.78 10.45-1.43 1.75.61 3.97-.27 5.98-.3 5.01-.07 8.88 1.86 12.12 5.9 4.66 5.81 8.01 11.99 8.73 19.52.1 1.02 1.47 2.37 2.54 2.74 2.84.99 5.88 1.38 8.74 2.3 2 .64 2.64-.41 3.23-1.85 1.55-3.73-.55-11.14-3.78-13.6-3.92-2.99-7.9-5.97-9.72-10.82-2.44-6.52-1.32-9.89 4.47-13.62 1.12-.72 2.31-1.39 3.54-1.89 2.45-1 4.95-1.87 7.77-2.92.97 4.72 4.39 8.68 1.85 13.67-.3.59.29 1.87.81 2.58 1.37 1.9 2.93 3.67 4.58 5.71-1.02 1.53-2.05 3.07-2.58 3.87.65 2.1 1.42 3.52 1.46 4.95.15 5.15-.2 10.32.14 15.44.28 4.27-.69 7.68-5.56 10.38 2.66.74 4.17 1.48 5.7 1.52 3.19.09 5.42 1.64 7.54 3.8 5.4 5.53 11.01 10.85 16.32 16.45 2.56 2.7 4.98 4.88 9.25 3.34-1.8 2.13-3.6 4.25-5.06 5.98 1.97 1.64 3.74 3.11 5.81 4.82 1.7-1.41 3.55-2.95 5.57-4.64 2.36 2.91 4.59 5.67 6.83 8.43-4.01 3.13-5.6 7.16-3.4 9.63 2.39-7.5 9.65-4.9 14.57-7.31 3.41 3.76 9.64 4.85 10.4 11.39-4.41 2.21-5.17 6.54-4.9 11.01.3 4.97-1.4 8.67-5.04 12.03-4.32 3.99-8.16 8.51-12.62 13.25-2.06-7.47-7.93-5.12-12.81-5.92v4.78c-14.12.59-28.27 1.17-42.88 1.78.09-1.74.01-3.38.29-4.94.54-2.93-1.02-3.57-3.41-3.43-.55.03-1.08.27-1.63.41-4.91 1.3-5.05 1.25-7.87-3.17-1.78 2.1-3.64 3.88-1.5 7 1.36 1.99-.43 2.37-2.08 2.39-4.92.07-9.85.17-14.77.22-15.34.16-30.67.29-46.01.45-27.2.29-54.39.6-81.59.9-2.88.03-5.76 0-8.8 0 .19-3.03.97-5.22 4.55-5.34 1.99-.07 3.97-.63 5.94-1.03 3.95-.79 5.88-6.52 3.14-9.53-.62-.68-1.97-1.5-2.57-1.25-2.86 1.17-6.36.17-8.84 3.01-1.04 1.19-3.71 2.21-4.99 1.69-4.7-1.89-7.73.25-10.65 3.33-.38.4-.8.77-.98.94-1.54-1.81-2.76-3.96-4.6-5.19-1.84-1.24-4.3-1.56-6.71-2.36-1.21 4.36-.97 7.97 1.73 11.12 1.94 2.26.99 3.49-1.43 3.88-2.97.48-6 .89-8.99.79-1.05-.03-2.19-1.53-3.05-2.55-.91-1.09-1.54-2.43-2.4-3.83.94-.73 1.78-1.39 2.64-2.06-3.63-1.14-5.93-.68-9.36 1.22-.96.53-2.46.08-3.96.08 0-8.9 0-17.51 0-26.12 0-5.15-.03-10.3.03-15.45.01-1.08.05-2.41.64-3.18 1.62-2.07 1.81-3.93-.78-6.41 2.44 0 4.06-.12 5.66.04 1 .1 2.45.36 2.79 1.01.36.71-.34 1.96-.61 3.14 2.02 1.58 3.46-.13 4.43-1.62.7-1.08.78-2.75.66-4.12-.08-.88-.82-1.99-1.6-2.46-3.35-2.06-2.78-4.93-2.02-8.04.61-.1 1.15-.23 1.7-.26 1.98-.12 4.32-.41 4.33-2.73.01-2.36-.52-5.13-1.84-6.99-1.33-1.86-3.92-2.82-5.93-4.16-1.41 1.01-2.64 1.88-3.86 2.75-.25-.25-.5-.49-.75-.74 1.06-1.18 2.13-2.35 3.3-3.66-.98-.52-1.93-1.02-2.92-1.54-.92.81-1.75 1.54-3.24 2.85 0-1.72 0-2.86 0-3.99 0-32.91.06-65.83-.1-98.74-.02-3.16 1.04-4.99 3.74-5.69 1.48-.38 3.23.28 5.51.55 2.91-2.48 3.87-2.33 7.49 1.37 1.08 1.1 2.54 1.82 3.83 2.71.44-.19.88-.37 1.32-.56-.26-3.85-.5-7.7-.78-11.55-.05-.64-.19-1.29-.34-1.92-.35-1.44-.73-2.86-1.1-4.29-.51-.1-1.01-.2-1.52-.3-.62 1.05-1.23 2.11-1.94 3.33-2.37-2.58-.59-3.81 1.06-5.04-6.58-1.9-11.69.22-15.97 5.17-.38-.18-.75-.37-1.13-.55 0-4.99-.08-9.98.07-14.96.03-.91.81-2.03 1.57-2.66 2.06-1.72 4.44-3.06 6.42-4.86 2.74-2.5 5.59-3.26 9.17-2.04.9.31 2.95-.37 3.2-1.06.58-1.57.8-3.55.35-5.14-.34-1.22-1.83-2.21-2.97-3.1-2.04-1.59-2.56-3.25-1.47-5.76.42-.97-.21-2.77-.93-3.77-1.53-2.13-2.78-4.11-2.64-6.97.15-3-2.73-3-4.71-3.8-2.69-1.09-5.37-2.22-8.05-3.33.09-.36.17-.72.26-1.08 2.02-1.06 4.04-2.11 6.15-3.21.92 1.08 1.71 2 2.65 3.1 1.06-.84 2.08-1.64 2.61-2.07 1.59.81 2.99 2.15 4.21 2.01 1.57-.19 3-1.57 4.64-2.53.73.9 1.49 2.1 2.5 3.04 2.8 2.59 5.02 2.69 8.05.57 3.75-2.63 7.48-5.28 11.28-7.96-3.42-3.76-6.6-7.48-10.05-10.93-1.29-1.29-3.11-2.28-4.86-2.79-1.29-.37-2.87.29-4.92.57-3.45-3.76-7.38-3.98-14.19-.45-1.36-1.08-2.42-2.33-3.78-2.92-3.77-1.63-4.72-4.37-4.64-8.3.38-17.12.49-34.25.7-51.37.01-1.1.11-2.19.16-3.23h23.9c.22 0 .45.11.67.07 7.29-1.15 13.25 1.57 18.67 6.17.91.77 2.5.73 3.79 1.07.67.76 1.37 1.87 2.36 2.6 3.33 2.46 6.62 5.02 10.21 7.06 3.08 1.76 3.56 4.08 2.64 7.02-1.05 3.38-1.83 6.69-.13 10.11.23.47.07 1.37-.25 1.84-1.79 2.6-1.86 4.88-.02 6.02-.2 3.37-1.18 6.26-.33 8.46 1.91 4.94.01 7.83-4.02 10.36-.84-.59-1.73-1.23-3.35-2.39-3.26 5.23-6.44 10.35-9.73 15.65 7.14 4.56 9.79 11.01 11.54 17.97.22.89.34 2.13-.11 2.8-1.85 2.81-1.65 5.67-.84 8.7.83 3.13 1.44 6.32 2.31 9.44.28 1 1.03 1.9 1.68 2.75.61.79 1.7 1.34 2.02 2.2 2.54 6.9 8.73 9.5 14.55 12.54.89.47 1.74 1.04 2.67 1.41 4.06 1.64 6.95 4.03 7.36 8.88.24 2.89 2.19 4.33 5.41 4 2.88-.29 5.81-.06 7.49-.06 2.63 3.17 4.47 5.85 6.78 8.04 2.45 2.31 3.28 7.34 1.05 9.88-2.21 2.51-4.53 4.94-6.73 7.33.07.38.04.66.16.79 4.76 5.14 5.36 11.15 4.46 17.84-.9 6.72-.94 13.55-1.5 20.32-.11 1.27-1.06 2.45-1.42 3.72-.55 1.92-1.58 4.02-1.23 5.81.75 3.77.66 6.81-3.03 8.97-.79.46-1.59 1.43-1.77 2.3-1.43 6.86-2.65 13.77-4.08 20.63-.36 1.75-.9 3.63-1.93 5.03-2.32 3.2-4.98 6.09-6.98 8.46zm143.31 63.72c1.46-.85 2.42-1.38 3.35-1.96 2.72-1.7 5.28-3.84 8.88-2.12.51.24 2.01-.35 2.18-.85.76-2.2 1.79-4.57 1.58-6.77-.23-2.37.35-3.9 2.05-5.2 1.13-.86 2.39-1.55 3.64-2.34-.47-2.66-.79-5.21-1.41-7.69-.3-1.19-.9-2.7-1.84-3.27-2.33-1.39-2.87-3.12-2.2-5.58.31-1.15.3-2.39.47-3.89-4.96-1.18-9.88-2.17-14.67-3.57-2.2-.64-3.73-.24-4.97 1.42-2.96 3.96-5.82 8-8.85 12.19 5.25 5.51 7.6 11.98 8.21 19.41.29 3.4 2.28 6.66 3.58 10.22zm-86.79-51.69c-1.8 3.01-2.37 5.84-1 9.27.85 2.13.95 4.84.55 7.14-.88 5.04-1.93 10.12-3.61 14.94-1.43 4.11.71 6.73 3.2 8.63 1.38 1.05 4.5.58 6.51-.14 2.62-.94 4.92-2.79 7.44-4.31-1.26-1.86-2.17-3.22-3.1-4.6.76-.92 1.39-1.68 1.93-2.35-1.08-3.13-5.19-4.5-4.7-9.53 2.58 4.08 5.63 3.64 8.01 1.99 1.65-1.14 2.43-3.62 3.44-5.58 1.28-2.49.12-4.66-2.67-5.02-.98-.13-2 .05-2.99.13-4.83.39-7.18-1.11-8.23-5.77-.58-2.59-1.8-4.21-4.78-4.8zm-16.61 18.03c-8.84 6.42-8.84 6.42-14.54 1.16-5.55 2.07-10.98 4.09-16.46 6.13 2.69 5.95 7.29 7.08 11.88 3.78.71-.51 2.23-.84 2.82-.44 4.19 2.88 7.6 1.56 10.93-1.52 1.3-1.21 2.8-2.26 4.35-3.13 2.69-1.54 3.37-3.33 1.02-5.98zm-108.29-166.9c1.77 3.93 3.41 7.57 5.05 11.2 1.38 3.04 6.12 4.45 9.01 2.64.4-.25.76-.83.84-1.31.49-3.07 1.21-6.15 1.26-9.23.08-5.01-4.87-8.17-9.36-6.26-2.14.91-4.27 1.86-6.8 2.96zm72.74 62.54c-7.99.82-7.85.84-9.12 7.95-.63 3.51-1.84 6.92-3.01 11.17 2.34.33 5.36 1.34 8.22.98 2.15-.27 4.08-2.28 6.15-3.53-.95-2.05-1.65-3.55-2.34-5.02 4.37-3.95-.39-7.54.1-11.55zm119.35 85.38c-4 3.66-7.59 6.94-11.31 10.33 1.95 2.6 3.95 4.74 5.32 7.23 1.73 3.16 4.14 3.05 6.23 1.28 2.14-1.82 5.34-4.76 5-6.66-.77-4.3-3.43-8.26-5.24-12.18zm-151.86-135.13c1.39-.77 2.46-1.33 3.51-1.93 3.72-2.16 4.72-4.24 4.1-8.46-.57-3.85-2.77-5.96-6.65-6.94-2.19-.55-3.3.1-3.98 2.15-1.86 5.52.22 10.21 3.02 15.18zm13.71 93.12c-4.27-2.8-8.67-5.15-14.31-4.56.12 2.67.46 5.13.28 7.55-.29 3.8 2.31 4.31 4.98 4.89 2.71.59 5.03.65 6.05-2.81.53-1.77 1.89-3.27 3-5.07zm-14.51 44.98c4.81-.63 9.33-4.45 9.81-7.81.77-5.38-.36-7.45-4.76-9.37-1.91 3.03-3.78 6-6 9.53.76 1.68 3.92 3.95.95 7.65zm3.45 30.87c-.41.18-.65.22-.81.36-2.56 2.17-5.2 4.25-7.62 6.56-1.4 1.34-2.44 3.06-3.65 4.6 2.19.7 4.37 1.47 6.59 2.06.55.15 1.25-.28 1.84-.44.43-5.15.47-5.2 5.51-5.63 1.81-.15 3.62-.26 6.22-.45-3.15-2.75-5.65-4.94-8.08-7.06zm-23.58-15.32c-7.11-9.44-4.93-8.66-10.64-5.8-.48 2.51-.58 4.46-1.25 6.18-1.1 2.81-.56 3.74 2.47 4.11 4.06.49 7.26-.61 9.42-4.49zm4.16-264.44c3.35-1.37 6.95-2.64 6.96-7.62-1.45-.4-2.81-.77-4.33-1.19.43-.76.83-1.47 1.4-2.47-2.99-.28-5.64-.53-8.07-.76 1.44 4.29 2.73 8.12 4.04 12.04zm131.88 299.85c-.8-1.42-1.26-3.16-2.38-3.94-1.08-.75-3.4-1.22-4.21-.58-2.05 1.59-3.55 3.88-5.61 6.28 3.13.11 5.23.73 4.42 4.35 2.7-2.13 4.98-3.92 7.78-6.11zm-161.96-291.29c2.35-2.26 6.44-1.55 5.95-5.88-.38-3.38-1.76-4.47-6.66-4.96.22 3.42.44 6.78.71 10.84zm59.12 122.2c2.2-.69 3.89-.97 5.31-1.75 1.11-.61 2.38-1.7 2.7-2.82.79-2.76-1.38-4.31-5.64-4.13-.72 2.65-1.46 5.37-2.37 8.7zm47.62 175.56c-.52-3.67-3.1-4.12-6.11-4.38.17 3.3-1.63 4.19-4.62 3.27 1.07 3.48 1.29 3.5 10.73 1.11zm-87.61-326.37v8.88c1.64-1.52 3.07-2.83 4.6-4.25-1.53-1.54-2.85-2.88-4.6-4.63zm6.06 233.66c2.17-5.84 1.58-7.27-2.66-6.69.87 2.17 1.71 4.3 2.66 6.69zm109.61 89.61c2.26-.91 3.72-1.26 4.86-2.06.64-.45.86-1.62 1.04-2.51.06-.28-.72-1.06-.98-1.01-.79.17-1.74.46-2.21 1.04-.89 1.11-1.5 2.45-2.71 4.54zm-113.89-136.9c.09.38.18.77.27 1.15 1.84-.4 3.67-.8 5.81-1.27-2.82-3.82-4.31-.94-6.08.12zm218.38 146.49c-1.79-.91-3.12-1.58-5.39-2.73.96 2.06 1.57 3.38 2.29 4.93 1.32-.93 2.11-1.49 3.1-2.2z"/><path d="m320.99 295.7c-.64 1.79-1.68 3.44-1.3 3.89.91 1.08 2.49 1.59 4.06 2.47 1.98-5.5 1.13-13.12 10.41-10.59.04.56.18 1.31.12 2.04-.29 3.28.87 5.77 3.5 7.86 3.9 3.09 3.67 5.56.16 9.01-1.32 1.29-1.75 3.49-2.58 5.27.25.18.5.37.75.55-1.42.1-2.85.2-4.51.32-.15 1.22-.29 2.39-.43 3.48-1.75.3-3.5.6-5.56.95-2.4-2.79.9-3.78 2.43-5.52-1.86-2.09-3.68-4.14-5.66-6.37-1.72 1.94-3.25 3.66-5.41 6.1-1.05-3.66-1.9-6.63-2.83-9.86-2.07.5-4.33-.25-4.67-4.13-1.01.73-1.74 1.27-2.38 1.74-2.63-3.11-5.19-6.12-7.95-9.37.21-.31.75-1.13 1.3-1.95-2.85-2.61-2.7-5.12.54-6.59-1.71-1.58-3.39-3.14-5.37-4.96-1.44 1.21-3.2 2.69-4.96 4.16-2.5-1.79-3.07-4.23-2.64-6.85 1.03-6.24-1.07-11.01-6.18-14.68-1.8-1.29-3.23-3.09-4.86-4.62-2.47-2.31-4.24-4.73-3.32-8.52.3-1.24-.88-2.85-1.55-4.75.2-.23.73-.86 1.19-1.41-.11-.27-.12-.43-.19-.45-5.23-1.86-3.64-7.53-6.13-10.84-1.05-1.4-3.28-1.93-4.78-2.75.11-1.38.54-2.89.29-4.28-.51-2.8-2.55-5.4.33-8.3.74-.74.1-3.23-.41-4.75-1.27-3.8-3.24-7.46-1.34-11.61-3.17-6.17.39-13.9-4.72-19.74-1.48-1.69-2.16-4.27-2.65-6.57-.61-2.85.96-4.69 3.54-6.08 3.62-1.96 7.03-4.32 10.73-6.63 2.03 3.84 5.5 2.05 8.4 2.55 1.6.27 3.13.94 4.64 1.9 4.4-1.6 8.53-3.86 8.7-9.87.18-6.46 4.13-10.35 9.7-12.92 2.01-.93 3.97-1.97 5.37-2.67-.97-4.02-2.08-7.71-2.73-11.48-.91-5.33-4.76-9.2-11.74-10.95-.33 2.43-.68 4.81-.96 7.21-.24 2.11-.19 4.26-.61 6.33-.77 3.75-2.65 6.29-6.89 7.07-6.81 1.26-6.77 1.49-7.12 8.47-.25 4.84-.8 5.35-5.43 6.51-2.96.74-4.99.7-5.21-3.12-.04-.76-1.19-1.79-2.05-2.13-4.05-1.6-6.91-8.9-5.14-12.95.62-1.42 1.25-3.38.76-4.67-2.64-6.91-1.4-13.66.35-20.4 1.31-5.05 1.42-9.85-1.04-14.66-.83-1.61-.85-3.67-1.09-5.54-.71-5.68-2.12-7.17-7.89-8.09-.87-.14-1.75-.24-2.99-.41-1.78 5.19-3.57 10.33-5.26 15.5-.17.51.2 1.26.46 1.83 1.84 3.91 2.87 7.82.81 12.04-.42.85-.06 2.09-.06 3.23-4.38.64-3.71-2.96-4.19-5.99-1.33-.16-2.7-.33-4.69-.58 1.02 5.04 1.96 9.68 2.77 13.66-3.01 1.69-5.77 3.22-8.12 4.54 1.83 4.26 3.3 7.7 4.86 11.32.84-.52 1.76-1.09 2.87-1.79.95 1.03 1.9 2.06 3.23 3.51.7-1.91 1.28-3.5 1.98-5.39 1.07.1 2.46.22 4.79.43-1.29 2.34-2.28 4.15-3.27 5.96.65.07 1.61.17 2.82.3v14.15c-6.63.83-7.19 1.25-9.42-6.09-1.48-4.88-2.06-5.47-7.58-4.54-2.77-6.55-2.88-14.76-10.83-18.5 3.18-4.33 6.07-8.27 9.13-12.43-4.93-4.85-9.78-9.6-14.73-14.47 1.19-1.04 2-1.75 3.06-2.69-3.76-3.28-7.51-6.07-12.83-6.42-1.05 4.44-2.09 8.77-3.06 13.12-.13.59-.17 1.48.17 1.85 3.16 3.46 1.84 7.3 1.23 11.16-.25 1.56-.25 3.36.3 4.8 2.81 7.42 5.77 14.79 8.82 22.11.85 2.04 1.92 4.13 3.42 5.7 1.07 1.13 3.08 2.14 4.54 1.99 2.91-.29 4.27.81 5.14 3.34.54 1.58 1.47 3.02 2.04 4.6 1.02 2.81 2.13 4.98 5.91 3.78.98-.31 2.56.98 3.76 1.71 3.24 2 5.91 5.17 10.53 3.99.77-.2 2.33 1.89 3.18 3.15.39.58.2 1.84-.16 2.59-2.32 4.76-.84 8.83 2.27 12.51 2.67 3.15 2.67 6.6 1.88 10.35-1.36 6.45-2.83 12.92-.63 19.7-5.69 2.53-11.18 4.99-16.69 7.4-.45.2-1.35.27-1.54.02-2.78-3.67-4.79-.19-6.69.94-2.27 1.35-4.09 3.44-6.06 5.18-2.16-.73-4.23-1.43-6.41-2.17 0-1.8 0-3.61 0-5.9 2.79-1.12 6.3-2.52 9.81-3.92-.04.35-.08.7-.12 1.06 1.91.5 4.19 1.84 5.64 1.24 1.34-.56 1.79-3.22 2.73-5.16-5.66-2.1-10.64-4.01-15.68-5.76-.67-.24-1.78.01-2.38.45-2.71 1.97-5.33 4.05-7.94 6.16-3.77 3.06-4.24 5.45-1.87 8.98-3.03 2.44-5.93 5.09-9.15 7.23-1.68 1.11-3.93 1.4-5.96 1.92-.55.14-1.7-.1-1.78-.38-1.18-4.13-4.85-3.08-7.68-4-7.5-2.41-11.4 2.64-15.32 7.28-.87 1.03-.13 3.44-.13 5.85-2.64.74-6 1.76-9.41 2.55-.64.15-1.88-.39-2.15-.94-.91-1.87-1.87-3.85-2.13-5.88-.45-3.51-.57-7.09-.44-10.63.05-1.2 1.11-2.51 2.01-3.49 3.75-4.07 3.79-4.03.83-9.08 2.55-1.79 5.14-3.61 7.7-5.4 6.12 5.52 8.91 5.68 14.96 1.23 1.76.96 3.28 2.3 4.98 2.61 4.69.85 6.51-.54 7.83-5.2.45-1.61.91-3.22 1.13-3.98 3.07-.4 5.97-.08 8.12-1.2 4.81-2.51 9.29-2.44 14.16-.42 5.04 2.09 5.11 1.91 8.77-2.32.51-.59 1.1-1.14 1.53-1.78 1.29-1.93 2.8-2.58 5.01-1.38 5.28 2.86 11.85-3.98 11.12-9.59-.62-4.79-3.68-6.09-7.53-3.21-2.21 1.66-4.09 3.76-6.33 5.86-.85-3.91-3.15-3.86-6.13-2.86-9.45 3.16-8.59 1.96-13.43-6.08 6.31-3.16 7.11-9.4 8.84-15.56-3.7-.84-7.04-1.6-10.97-2.49.11 1.29-.17 2.54.33 3.17 2.47 3.12 1.22 6.46.67 9.68-.12.73-1.77 1.47-2.83 1.72-3.92.9-7.94 1.42-11.81 2.48-1.34.36-2.74 1.64-3.48 2.88-1.13 1.89-1.88 4.06-2.52 6.2-1.37 4.6-4.77 6.84-9.05 8.09-1.93.56-3.94.83-5.88 1.36-2.84.79-5.25 1-7.18-2.08-.67-1.07-2.87-1.18-4.94-1.94 2.22-7.76.92-16.65 6.03-24.61-.38-.57-1.1-1.64-1.84-2.75 6.82-1.45 9.71-.33 12.07 4.82-3.71 2.79-.95 6.37-1.11 9.92 2.83.55 5.55 1.09 8.48 1.66 0-5.51 0-10.82 0-16.41-4.15.48-5.65-1.58-5.79-5.38-.1-2.67-1.52-4.69-3.98-6.19-1.36-.83-2.48-2.48-3.09-4.01-1.28-3.2-2.14-6.57-3.27-10.16 3.16-1.05 3.47-3.65 1.97-5.74-1.26-1.75-3.74-2.61-5.77-3.92 1.19-1.37 2.28-2.63 3.54-4.08-1.22-1.63-2.4-3.21-3.66-4.89.93-1.22 1.8-2.36 3.1-4.07-1.02-.55-2.09-1.12-3.72-2 4.62-2.26 4.67-5.22 3.05-8.33-2.32-4.43-1.3-8.87-.67-13.42.27-1.99-.16-4.07-.33-7.05 2.36-2.42 2.9-8.77.22-12.6 4.22-1.21 7.76.25 11.15 3.4 1.18-3.79 2.33-7.04 3.13-10.37.18-.75-.64-2.01-1.35-2.65-2.9-2.61-5.93-5.06-8.96-7.61.3-.71.5-1.21.74-1.7 2.14-4.45 2.1-4.38-2.14-6.91-1.36-.81-2.43-2.1-3.9-3.41 4.04-2.96 7.62-5.59 11.57-8.49-4.69-3-11.16-3.54-12.54-10.44 4.2 0 8.28-.15 12.36.03 14.63.64 29.26 1.34 43.89 2.16 2.32.13 4.39.54 6.7-.69 3.08-1.63 8.05-.24 10.46 2.32 1.9 2.02 3.77 4.07 5.9 6.37 1.94-2.61 3.65-5.08 5.55-7.38.61-.73 1.77-1.46 2.66-1.43 12.86.4 25.72.89 38.56 1.51.87.04 2.05 1.15 2.44 2.05 1.06 2.44 1.77 5.04 2.72 7.87 1.05-.35 1.94-.76 2.86-.92.83-.15 1.71-.03 2.72-.03.56-2.9 1.13-5.83 1.73-8.9 3.43-.51 6.73-1.16 10.05-1.39.97-.07 2.33.84 2.98 1.7.92 1.22 1.23 2.87 2 4.22 1.65 2.91 2.61 5.73.44 7.7.45 3.69.8 6.59 1.25 10.29-1.93-.72-3.4-1.27-5.52-2.07-.16.1-1.09.68-2.21 1.38-.93-.55-1.95-1.16-3.41-2.03-.46 3.18-.98 6.08-1.24 9-.06.71.56 1.66 1.13 2.24 4.32 4.31 6.12 9.72 7.24 15.54 1.1 5.69 2.75 11.27 3.7 16.98.33 1.98-.73 4.19-1.26 6.86 3.07 2.23 4.35 5.96 4.86 10.24.42 3.48 4.05 6.22 7.6 6.39.78.04 1.57.01 2.35.01 4.96 0 4.87-.02 6-4.97.3-1.32 1.32-2.48 2.25-4.12 2.57 3.89 4.71 1.71 6.78.08 3.68-2.9 6.92-3.57 11.98-1.86-3.12 3.86-6.04 7.49-9.16 11.35.26.34 1.07 1.39 2.01 2.62-.9 1.14-1.79 2.25-2.77 3.48.63.83 1.29 1.69 1.98 2.59-1.21 1.15-2.34 2.22-3.47 3.31-3.95 3.79-4.82 3.73-8.52-.2-1.06-1.12-2.28-2.28-3.66-2.85-1.53-.63-4.14-1.4-4.86-.68-1.54 1.53-3.64 3.38-2.31 6.37.66 1.48.58 3.27.86 5.05h2.12c.09.28.27.53.21.67-1.69 4 1.21 6.34 3.02 9.25.87 1.4.71 3.74.3 5.48-.2.85-2.06 1.3-3.17 1.93.02-.39.05-.78.07-1.17-1.42-1.09-3.01-3.23-4.22-3.03-1.78.29-3.3 2.24-4.56 3.21 2.34 3.26 4.7 5.67 6.01 8.56 2.07 4.59-4.28 4.18-4.92 7.91 4.87 2.1 10.01 4.31 15.36 6.62.17-.44.61-1.55 1.13-2.9 1.72-.1 3.54-.2 5.79-.32-2.09 2.87-.77 4.94.7 7.2 3.9 5.99 7.62 12.1 11.13 17.7-2.15 2.33-4.12 4.47-6.16 6.69.94 1.01 1.53 1.64 1.63 1.75-1.61 3.16-3.08 6.07-4.78 9.41 3.27.8 5.51 1.35 7.69 1.89 2.72-2.72 2.18-4.99-.49-6.85 3.1-3.32 6.12-6.55 9.15-9.79.22 4.77 2.44 9.43-1.61 13.8-1.86 2-2.47 5.36-3.12 8.22-.56 2.47-.53 5.12-.48 7.69.2 10.07-6.43 14.82-14.49 18.92-.92-2.3-4.78-3.06-2.39-6.72-2.65-.21-5.17-.42-8.16-.66.21 2.54.42 4.73.56 6.92.06.88.33 2.2-.12 2.58-2.25 1.9-4.71 3.56-7.32 5.47.58 1.07 1.11 2.07 1.65 3.07-.27.29-.55.58-.82.87-1.81-1.54-3.62-3.09-5.96-5.08 2.77-2.42 5.2-4.55 7.67-6.71-1.19-1.42-2.04-2.56-3.01-3.59-1.82-1.94-4.39-1.82-6.47-.23-4 3.06-5.77 6.64-4.56 11.82.8 3.45.75 7.11.94 10.69.12 2.16.26 4.04 2.26 5.59.88.68 1.39 2.72 1.09 3.9-1.15 4.56.34 8.32 2.74 12.01 1.24 1.94 2.37 4.13 3.34 5.81zm2.09-96.77c-2.89-3.24-6.52-5.24-8.8-4.41-7.26 2.63-14.51 5.37-20.34 10.69-2.65 2.42-5.26 5.07-5.24 9 .02 3.4-.85 6.15-4.16 7.72 1.13 2.69 2.2 5.13 3.2 7.61 1.31 3.26 3.44 6.34 1.9 10.2-.2.5.5 1.75 1.11 2.11 3.37 2.03 4.15 5.29 4.58 8.81.16 1.28.51 2.54.78 3.85 7.77-2.81 7.93-3.49 2.33-10.05 1.75-2.92 3.52-6 5.41-9.01 1.6-2.55 3.89-3.56 7.02-3.72 4.14-.21 8.23-1.19 13.34-2-2.69-1.92-4.85-2.9-6.2-4.54-2.05-2.49-3.82-5.32-5.18-8.25-.89-1.91-.06-3.66 2.46-4.14 1.96-.37 3.83-1.13 5.78-1.56.65-.14 1.53.01 2.09.38 5.56 3.63 16.18-.22 17.41-6.73.33-1.72-1.42-5.37-2.66-5.59-4.8-.85-9.76-3.03-14.83-.37zm-134.39-80.58c4.45-3.56 5.54-7.85 2.97-13.06-2.74-5.57-3.93-5.82-9.18-2.74-3.22 1.89-4.05 4.08-3.96 7.76.26 10.36-.26 20.73-.09 31.1.06 3.93.98 7.88 1.9 11.73.34 1.44.78 3.67 3.5 3.06 2.37-.53 4.19-1.2 4.28-4.16.09-3.13 1.7-5.15 4.98-5.78 1.4-.27 2.71-1.01 3.95-1.5-1.61-3.69-4.14-6.93-4.18-10.2-.05-3.85-.73-6.6-4.34-8.61 4.05-2.61.75-4.84.17-7.6zm115.91 67.57c-3.83-3.99-3.52-10.5-.15-14.23 1.54.26 2.91.48 5 .83-4.41-7.13-4.41-6.13-9.11-2.21-.86.71-1.76 1.38-2.56 2.16-2 1.94-4.04 3.36-7.1 2.23-.75-.27-2.03.46-2.89 1-1.99 1.25-3.29 4.18-6.44 2.41-.22-.12-.8.29-1.15.54-3.22 2.35-6.42 4.72-9.59 7.05 4.24 7.91 9.88 10.14 18.24 7.36.76 1.52 1.52 3.05 2.49 4.98 4.65-4.24 8.95-8.17 13.26-12.12zm-118.83-130.28c9.08-3.88 8.2-10.48 6.63-15.93-.76-2.66-2.89-4.16-5.92-3.74-2.92.4-5.04 1.16-5.11 4.98-.09 5.5 1.53 10.22 4.4 14.69zm30.7 9.1c-3.75-6.83-7.21-13.13-10.7-19.48-2.69 3.45-8.32 6.17-5.32 12 1.54 2.98 4.56 5.71 7.57 7.26 2.25 1.15 5.57.22 8.45.22zm50.3 65.53c1.83-2.56 5.72-1.88 5.55-5.71-.16-3.64.26-7.55-3.63-9.7-.83-.46-2.5-.52-3.09 0-.97.86-2.08 2.48-1.89 3.56.65 3.7 1.84 7.3 3.06 11.85zm14.69-26.66c2.03 4.28 3.93 8.31 6.13 12.96 1.6-3.6 3.11-7.03 4.64-10.47-7.28-3.87-9.19-4.2-10.77-2.49zm53 118.8c-.52.28-.85.37-1.07.58-2.68 2.54-5.25 5.2-8.04 7.61-1.56 1.35-1.12 2.73-.17 3.75.7.75 2.23 1.29 3.21 1.09 3.93-.83 7.39-8.21 6.07-13.03zm-57.1-182.08c.48-3.11-2.01-3.82-4.15-3.64-1.36.12-3.82 2.35-3.63 2.95.64 2.02 1.87 4.56 3.58 5.35 2.3 1.05 4.07-1.19 4.2-4.66zm37.5 102.41c-1.3 1.11-2.12 1.82-3.08 2.64-1.14-.92-2.24-1.81-3.12-2.51-1.8 1.52-3.53 2.99-5.26 4.46.16.45.32.9.48 1.36 3.86-.44 7.72-.89 11.79-1.35-.29-1.7-.5-2.87-.81-4.6zm-82.38-98.23c-3.09-.52-8.63 4.51-8.97 7.3 2.87-.5 5.62-.98 8.78-1.54-.74-1.64-1.3-2.9-2.07-4.61.69-.35 1.47-.75 2.26-1.15zm-35.01 107.32c1.29 3.14 2.32 5.66 3.35 8.18l1.02.12c.44-1.05 1.31-2.13 1.25-3.15-.19-2.95-2.15-4.41-5.62-5.15zm109.38-109.8c-.58-1-1.12-1.92-1.68-2.88-4.68 4.41-4.74 4.63-2.07 7.21 1.16-1.33 2.31-2.67 3.75-4.33zm-135.12 50.33c1.65.91 2.66 1.81 3.76 1.94.57.07 1.86-1.22 1.84-1.86-.03-.96-.93-1.9-1.59-3.08-1.39 1.04-2.34 1.75-4.01 3zm81.57-32.9c-.94-1.28-1.63-2.21-2.49-3.37-1.45 1.79-2.65 3.26-3.84 4.73.17.2.33.4.5.61 1.76-.6 3.53-1.19 5.83-1.97zm87.97 172.45c.4.28.8.56 1.2.84.79-1.44 1.58-2.89 2.56-4.69-4.73-.71-2.79 2.56-3.76 3.85z"/><path d="m112.92 115.27c1.65-4.58 1.01-8.83-1.38-13.08-.74-1.31-.25-3.29-.44-4.94-.25-2.2-.32-4.49-.99-6.57-1.07-3.33 1.89-8.66 5.51-8.53 4.49.17 7.02-2.04 9.07-5.52 1.59-2.7 3.25-5.36 4.96-7.98 1.71-2.61 3.52-5.14 5.49-8-4.2-.03-6.17-2.68-7.69-5.92-.71-1.52-1.46-3.02-2.33-4.46-1.26-2.08-2.45-3.7-.43-6.43 1.21-1.64.49-4.69.63-7.03-8.55-2.25-8.55-2.25-7.74-6.84-1.5 0-2.92 0-4.65 0 .79-1.64 1.58-3.28 2.62-5.43 3.39 1.44 6.57 2.79 10.36 4.4 0 0 .78-.54 1.47-1.02 3.04 3.99 1.92 10.09 7.43 12.95.75-2.5.59-6.09 5.04-4.55.21-1.41.38-2.56.52-3.5 1.07 0 2.4.41 3.08-.07 2.76-1.97-.67-3.61-.47-5.62 3.47-1.62 1.28 1.6 1.92 2.36 4.56.56 4.85 1 3.93 5.79-5.38.22-6.94 2.05-5.28 6.5.34.9 1.56 1.99 2.46 2.08 2.57.24 3.81 1.72 5.05 3.73 2.3 3.76 4.02 7.95 8.37 10.19 2.15 1.11 1.47 3.88-.87 4.73-3.15 1.14-6.38 2.11-9.41 3.5-4.17 1.91-4.71 3.47-3.82 7.98.17.89-.03 2.2-.6 2.83-3.54 3.96-3.78 7.72.54 11.15-1.43 2.18-2.29 4.49-3.95 5.73-1.77 1.33-4.3 1.66-6.84 2.55 3.66 4.23 7.18 8.12 10.46 12.2.88 1.1 1.51 2.76 1.5 4.16-.09 7.38-.29 14.77-.73 22.14-.29 4.87.18 9.53 1.8 14.15.91 2.6 1.52 5.31-.74 7.87-.62.7-.09 2.42-.09 4.5-2.34 0-5.11.09-7.85-.06-.7-.04-1.84-.78-1.95-1.35-.43-2.3-1.19-4.84-.61-6.95 1.06-3.86 1.76-7.25-1.29-10.58-2.41-2.63-3.64-5.6-1.08-9.07.47-.64-.08-2.09-.27-3.15-.14-.74-.9-1.83-.66-2.1 3.95-4.33.23-8.9.46-13.33.13-2.54-.9-4.15-4.16-3.34-4.77 1.18-9.66 1.86-14.48 2.82-.67.13-1.27.66-1.9 1zm3.12-24.23c-.2-.11-.4-.21-.6-.32-.89 1.21-1.94 2.34-2.61 3.67-.31.62.11 1.6.19 2.42.8-.41 2.07-.64 2.3-1.26.51-1.4.51-2.99.72-4.51z"/><path d="m353.06 82.4c-2.15-1.95-4.23-3.84-6.54-5.93-.86.6-2.01 1.4-2.4 1.67-2.81-.94-5.02-1.67-7.39-2.46.35-1.69 3.43-4.05-.37-6.22.74-.98 1.33-1.76 1.94-2.56-3.73-1.59-5.61-7.16-3.52-10.92-3.89.84-4.75-1.51-5.35-4.48-.6-2.94-1.67-5.79-2.38-8.72-.53-2.18-2.13-4.5 1.18-6.27.86-.46.7-2.82 1.05-4.47.99-.24 2.28-.56 3.84-.94.39 3.9.76 7.78 1.18 11.65.2 1.88.51 3.76.77 5.63.53 3.84 2.16 6.17 6.59 6.39 3.75.18 6.88 1.83 6.99 6.55.02.81 1.71 1.58 2.69 2.43-.21.16-.7.6-1.24.94-1.86 1.16-3.42 2.34-3.13 5 .29 2.62 2.03 3.64 4.08 4.26.95.29 2.33.11 3.18-.41 1.59-.97 2.95-2.34 4.45-3.58 2.09 6.62 1.15 8.59-5.62 12.44z"/><path d="m359.65 141.18c1.12 8.71.6 12.91-1.8 13.85-.13-1.2-.26-2.34-.44-3.91-3.55 3.15-3.43 7.04-3.69 10.73-.03.41 1.78 1.53 2.26 1.31 2.35-1.11 3.55.34 3.61 2.01.25 6.21.15 12.44.05 18.66-.01.43-1.05.84-1.62 1.27-.38-.58-1.02-1.13-1.11-1.76-.45-2.99-.63-6.01-1.13-8.99-.36-2.15-1.06-4.25-1.68-6.64-1.39.6-2.27.98-3.33 1.43-3.4-3.6-7.14-7.04-10.14-11.03-.93-1.24-.55-4.49.48-5.9 1.31-1.78 4.07-2.42 5.88-3.93.96-.8 1.59-2.38 1.74-3.69.36-3.05.23-6.16.57-9.21.07-.64 1.56-1.78 1.95-1.61.97.41 2.42 1.48 2.38 2.2-.26 4.37 2.31 5.37 6.02 5.21z"/><path d="m112.85 115.19c-1.4 1.99-1.92 3.94.86 5.91-2.74.69-4.26 4-7.31 1.63-2.36 3.15-2.64 3.19-5.88.55 1.51-3.61 3.05-7.28 4.06-9.68-2.28-4.87-4.13-8.83-6.21-13.28 4.09-.22 6.13.8 6.51 4.13.13 1.1.41 2.19.57 3.29.99 6.53 1.09 6.64 7.46 7.53.01 0-.06-.08-.06-.08z"/><path d="m116.28 138.58c6.45 1.42 13.33 8.7 14.35 14.96-9.53 2.68-15.35-3.29-14.35-14.96z"/><path d="m344.78 38.11c-1.2-5.02-.15-8.54 4.28-9.29 3.8-.64 8.22.73 11.99 2.18 1.6.61-.28 9.32-2.03 10.91-2.77-6.86-3.72-7.66-9.88-7.68-1 0-1.99.72-3.76 1.4 1.82 1.16 2.63 1.68 3.88 2.48-1.8 0-3.06 0-4.48 0z"/><path d="m327.04 65.01c-1.72.84-3.01 1.48-3.51 1.72-.49 2.27-1.11 3.92-1.13 5.58-.01 1.38.69 2.76 1.07 4.14-.31.18-.62.36-.94.54-2.5-2.48-5.01-4.96-7.62-7.54 1.75-2.65 2.85-5.05 1.16-7.93-.31-.52.91-1.94 1.63-3.36 3.23 2.38 6.08 4.47 9.34 6.85z"/><path d="m111.42 73.75c1.33-2.55 3.17-4.98 3.84-7.7.66-2.68.14-5.65.14-8.33-.35-.14.01-.09.23.1 2.31 2.09 4.6 4.19 7.28 6.65-3.75 3.36-7.37 6.6-10.99 9.84-.17-.18-.34-.37-.5-.56z"/><path d="m360.15 256.94c-5.44-1.48-6.81-7.59-2.98-11.7 4.93 2.82 2.77 7.33 2.98 11.7z"/><path d="m337.57 253.7c-3.06 2.32-3.06 2.32.67 6.59-1.53 0-2.79.39-3.27-.06-2.86-2.68-3.03-4.95-.52-7.18.68-.6 2.05-.44 3.1-.63 0 .43.01.85.02 1.28z"/><path d="m357.38 281.13c3.01.68 3.53 2.45 1.98 9.25-1.12-.89-2.11-1.69-2.4-1.92.17-2.91.3-5.17.42-7.33z"/><path d="m39.86 307.56c-2.2 1.26-4.13 2.36-6.1 3.49-.47-2.58-.19-2.94 5-6.58.35.96.66 1.86 1.1 3.09z"/><path d="m345.64 42.97c-3.58.25-3.65-3.16-5.54-4.88 3.47-.26 5.22 1.31 5.54 4.88z"/><path d="m329.04 100.41c0-1.27 0-2.26 0-4.01 1.72 1.48 3.06 2.63 4.4 3.78-.05.21-.1.43-.14.64-1.39-.13-2.78-.26-4.26-.41z"/></g></svg>