<svg enable-background="new 0 0 400 400" viewBox="0 0 400 400" xmlns="http://www.w3.org/2000/svg"><path d="m362.1 8.8c1.1.8 2.1 1.6 3.1 2.4l-1 1.1c-1.3-1.1-2.3-2-3-2.5zm1.9 4.8c.5.2.9.4 1.4.5-.6 2.3-1.3 4.5-1.9 6.8l-1.5-.5c.8-2.1 1.4-4.3 2-6.8zm-1-9.4c1.3.9 2.4 1.8 3.4 2.5l-1 1.1c-1.4-1.2-2.4-2.1-3.2-2.6zm3.7 2.2v-1.4h10.3v1.2c-.5 3.6-1.8 6.8-4 9.4 1.5 1.6 3.4 2.8 5.7 3.8-.3.4-.7.8-1.1 1.4-2.3-1.1-4.1-2.5-5.6-4.1-1.6 1.6-3.6 3.1-5.9 4.3-.3-.5-.7-.9-1-1.3 2.4-1.1 4.4-2.5 6-4.1-1.9-2.5-3-5.6-3.3-9.3h-1.1zm8.8 0h-6.4c.3 3.3 1.3 6 3 8.2 2-2.3 3.1-5.1 3.4-8.2z" fill="#fbfcfa"/><path d="m385.3 3.8h1.3v2.2h2.8v-2.2h1.3v2.2h4.1v9.1h1.7v1.3h-16.9v-1.3h1.7v-9.1h4.1v-2.2zm.4 13.1.7 1.2c-1.8.9-3.8 1.9-6 2.9-.2-.4-.5-.8-.8-1.3 2.3-1 4.3-1.9 6.1-2.8zm-3.1-6.4h2.8v-3.2h-2.8zm0 4.6h2.8v-3.3h-2.8zm4-4.6h2.8v-3.2h-2.8zm0 4.6h2.8v-3.3h-2.8zm3.7 1.9c2.1.9 4.1 1.8 6.1 2.7l-.7 1.3c-2.2-1.1-4.2-2-6.1-2.9zm3.2-9.7h-2.8v3.2h2.8zm-2.8 7.8h2.8v-3.3h-2.8z" fill="#fbfcfa"/><g fill="#010106"><path d="m125.94 245.39c0-17.32-.04-34.21.01-51.1.03-10.97.13-21.94.33-32.91.04-2.19-.63-3.13-2.77-3.69-3.67-.96-7.24-2.3-10.84-3.5-8.55-2.85-14.5-8.5-18.21-16.7-4.47-9.88-6.88-20.3-8.33-30.97-1.95-14.36-2.87-28.78-.26-43.14 1.74-9.58 0-7.48 9.62-8.56 3.34 7.83 5.28 16.1 5.59 24.6.38 10.27.1 20.57-.06 30.85-.26 16.18 8.88 28.82 24.18 32.82.25-5.7.54-11.33.74-16.96.72-20.25 1.33-40.49 2.19-60.73.23-5.46 1-10.92 1.84-16.32.93-5.98 4.29-10.12 10.16-12.16 10.56-3.66 21.03-7.58 31.65-11.04 2.49-.81 5.52-.68 8.15-.18 3.88.74 5.44 3.28 4.76 7.17-.23 1.29-1.26 3.07-2.36 3.49-7.08 2.66-14.36 4.79-21.41 7.51-4.74 1.83-9.38 4.07-13.78 6.61-4.04 2.34-5.17 6.54-5.25 10.99-.49 24.61-.96 49.22-1.43 73.84-.04 1.99-.01 3.98-.01 5.97 7.97-.09 14.15-2.42 18.37-9.84 5.55-9.77 7.78-20.2 8.22-31.13.49-12.07.45-24.16.8-36.24.19-6.61 2.69-9.08 9.59-9.9 4.51 7.98 6.21 16.83 5.46 25.77-1.22 14.69-2.85 29.41-5.49 43.9-1.19 6.52-4.89 12.7-8.15 18.65-1.34 2.44-4.64 3.76-6.87 5.78-5.42 4.92-11.53 8.36-18.85 9.46-1.08.16-2.12.6-3.2.92v85.57c7.88-.26 14.26-2.37 18.45-9.96 5.13-9.27 7.72-19.03 8.16-29.44.41-9.5.4-19.02.79-28.52.19-4.79.56-9.61 1.45-14.3.33-1.76 2.06-3.76 3.69-4.66 3.04-1.67 4.53-.85 5.93 2.34 3.83 8.72 4.94 17.94 3.97 27.27-1.34 12.9-2.45 25.91-5.19 38.54-2.52 11.64-7.75 22.6-18.53 29.16-4.38 2.67-9.72 3.91-14.76 5.3-3.31.91-4.23 2.44-4.16 5.82.25 10.97-.02 21.94.12 32.91.2 15.33.88 30.66.8 45.98-.04 8.34-.84 16.73-2.05 24.99-.75 5.16-1.69 5.43-6.78 5.06-1.22-.09-3.12-1.21-3.39-2.21-1.13-4.16-2.43-8.45-2.46-12.7-.2-31.68-.15-63.36-.03-95.05.01-2.98-1.02-4.6-3.65-5.5-3.06-1.06-6.08-2.24-9.18-3.17-9.85-2.94-16.88-8.87-20.37-18.72-8.66-24.44-11.03-49.42-6.55-74.99.27-1.54.89-3.42 2.01-4.34 3.7-3.04 6.62-1.93 8.06 2.38 4.69 13.98 5.31 28.28 4.16 42.78-.69 8.77-.88 17.43 3.37 25.56 3.88 7.4 12.28 14.16 21.75 16.64z"/><path d="m218.72 157.15c3.44 7.79 5.61 16.03 5.99 24.53.46 10.37.04 20.78.15 31.17.09 8.26 2.06 15.95 7.66 22.34 4.46 5.09 10.09 8.27 17.15 10.33 0-7.75-.05-15.08.01-22.42.16-20.26.32-40.51.6-60.77.04-2.73-.52-4.2-3.47-4.91-4.11-.99-8.14-2.44-12.09-3.99-7.54-2.94-12.91-8.14-16.1-15.69-6.01-14.22-8.04-29.24-9.27-44.44-.85-10.52-.81-21.02 1.01-31.45 1.15-6.62 1.23-6.61 8.28-7.66 3.1 7.33 4.75 15.09 5.41 22.98.8 9.58 1.1 19.2 1.38 28.81.25 8.78.74 17.47 5.38 25.28 4.3 7.23 10.8 10.97 19.32 11.98.28-10.65.53-21.04.83-31.43.45-15.32.8-30.64 1.47-45.95.25-5.78.96-11.59 2.01-17.28.88-4.79 3.46-8.37 8.54-10.2 11.02-3.97 21.79-8.63 32.84-12.49 2.8-.98 6.34-.32 9.43.2 2.44.41 3.89 2.37 4.22 5.03.31 2.54-.65 4.07-2.8 5.47-5.57 3.64-11.84 5.04-18.17 6.55-4.42 1.06-8.72 2.71-12.96 4.35-6.12 2.38-8.93 7.29-9.15 13.59-.36 10.29-.46 20.58-.61 30.87-.23 15.55-.42 31.11-.62 46.66-.01.88 0 1.77 0 3.1 4.48-1.17 8.68-2.15 12.79-3.44 1.03-.32 1.84-1.57 2.59-2.51 7.24-9.01 10.18-19.57 10.61-30.87.36-9.49.09-19.01.33-28.51.13-4.91.64-9.82 1.27-14.69.2-1.57 1.03-3.23 2.02-4.51 3.18-4.1 6.69-3.75 9.26.65 3.57 6.09 3.14 12.78 2.52 19.31-1.24 12.91-2.97 25.77-4.48 38.66-1.01 8.64-2.51 17.66-7.62 24.39-4.82 6.34-12.18 10.9-18.92 15.54-2.4 1.65-6.23 1.24-9.87 1.85v86.87c3.86-1.02 7.97-2 12-3.25 1.05-.33 1.94-1.44 2.69-2.36 7.48-9.15 10.4-19.94 10.83-31.46.35-9.38.07-18.78.31-28.17.13-4.91.62-9.82 1.27-14.69.22-1.67 1.15-3.44 2.24-4.76 3.21-3.88 6.67-3.4 9 .99 2.74 5.16 3.06 10.73 2.59 16.34-1.17 14.04-2.35 28.09-3.84 42.1-1.11 10.45-5.66 19.73-11.26 28.42-1.35 2.1-4.02 3.56-6.38 4.74-5.48 2.77-11.07 5.36-16.75 7.67-2.44.99-3.31 2.12-3.3 4.83.11 32.46.14 64.92-.03 97.38-.02 3.44-1.2 6.97-2.39 10.26-.85 2.37-3.09 3.53-5.77 2.92-2.42-.55-3.99-1.71-4.65-4.51-3.83-16.19-4.51-32.53-2.83-49.02 1.91-18.85 2.88-37.71.83-56.61-.14-1.32-1.42-2.98-2.64-3.65-4.98-2.76-10.1-5.3-15.25-7.72-7.55-3.55-12.28-9.37-14.85-17.22-7.62-23.3-10.49-47.08-7.34-71.46.94-7.05 1.52-7.4 8.58-8.07z"/></g></svg>