<svg enable-background="new 0 0 400 400" viewBox="0 0 400 400" xmlns="http://www.w3.org/2000/svg"><path d="m191.84 374.55c-.85-4.08-2.26-8.13-2.44-12.23-.82-18.2-1.28-36.43-1.9-54.64-.16-4.7-.62-9.39-.64-14.08-.03-7.71-1.79-15.07-4.03-22.35-2.75-8.91-2.97-17.67.04-26.67 3.43-10.27 6.51-20.68 9.1-31.18 1.07-4.34.47-9.08.69-13.64.17-3.67-1.86-5.68-5.13-6.39-5.45-1.18-10.92-2.45-16.45-3.05-13.73-1.49-24.77-7.93-33.91-17.89-8.83-9.63-9.78-21.17-7.4-33.35 1.76-8.99 5.36-17.27 10.03-25.09.66-1.1 1.68-2.1 2.76-2.79 4.04-2.61 8.29-4.9 12.21-7.66 1.94-1.36 3.62-3.3 4.94-5.3 1.89-2.87 1.51-5.44-.85-8.43-3.63-4.59-7.12-9.56-9.32-14.92-1.45-3.54-1.26-8.17-.55-12.09 1.37-7.56 3.62-14.96 5.68-23.1-3.21-.45-6.18-1.46-9.02-1.16-8.87.92-17.68 2.47-26.54 3.51-4.06.47-8.24.7-12.28.23-1.87-.22-4.09-1.99-5.17-3.68-2.42-3.79-1.45-6.82 2.78-7.97 6.22-1.7 12.59-2.97 18.98-3.85 21.78-3 43.51-2.28 65.14 1.65 15.73 2.85 28.4 10.44 38.54 23.01 4.47 5.53 6.23 10.14 3.15 16.88-2.71 5.93-3.8 12.53-8.61 17.54-1.55 1.61-1.93 4.33-2.88 6.62 6.29 3.39 12.55 4.46 18.95 4.33 9.39-.18 18.77-.9 28.15-1.14 7.48-.2 14.98-.08 22.47.02 1.28.02 2.7.37 3.81 1.01 2.43 1.4 2.35 3.23-.04 4.74-10.14 6.39-21.52 8.82-33.21 9.41-7.65.39-15.38-.38-23.05-1.01-2.56-.21-4.27.38-5.1 2.59-.85 2.26-1.63 4.68-1.72 7.06-.12 3.22.26 6.49.75 9.68.95 6.15 3.79 8.96 10.09 9.22 3.37.14 6.79-.89 10.18-1.41 2.37-.36 4.85-1.4 7.09-1.02 7.41 1.26 14.44-.78 21.6-1.79.76-.11 1.53-.2 2.26-.29 1.53 2.31 1.01 3.83-.77 5.91-5.33 6.22-12.76 7.96-20.02 10.04-6.23 1.79-12.59 3.11-18.83 4.82-5.54 1.52-10.9 3.59-14.62 8.29-1.34 1.69-2.2 3.76-3.43 5.91 6.25 3.18 12.47 4.41 18.76 5.24 9.2 1.22 18.47 1.93 27.6 3.48 5.54.94 10.87 3.07 16.22 5.16-7.33 3.06-14.89 4.19-22.47 3.06-8.37-1.25-16.69-3.05-24.86-5.26-16.5-4.47-25.86.91-28.54 17.84-1.11 6.98-.53 14.24-.51 21.37 0 .92 1.11 2.07 2 2.72 7.18 5.23 15.53 7.67 23.91 10.2 4.88 1.47 9.62 3.54 14.17 5.84 2.38 1.2 4.22 3.48 6.3 5.28-.11.42-.23.84-.34 1.26-3.19 0-6.49.52-9.55-.1-7.22-1.47-14.29-3.63-21.48-5.23-3.25-.72-6.64-1-9.97-1.04-4.31-.05-6.97 3.16-6.55 7.49.13 1.33.48 2.64.81 3.94 1.05 4.21 1.04 8.22-2.11 11.66-1.37 1.49-1.65 2.82-.18 4.63 2.31 2.85 2.6 6.34 2.12 9.88-1.31 9.85-2.52 19.72-4 29.54-.68 4.52-1.63 9.04-2.94 13.42-3.59 12.01-4.77 24.31-5.16 36.76-.16 5.14-.43 10.29-.88 15.42-.11 1.21-1.17 2.33-1.79 3.49-.69-.14-1.37-.24-2.04-.35zm26.88-237.72c-.06-11.98-4.71-21.43-13.92-28.71-1.08-.85-2.51-1.48-3.87-1.73-5.82-1.09-11.66-2.08-17.52-2.9-1.54-.22-3.29 0-4.76.55-10.32 3.83-17.43 11.89-24.9 19.4-1.2 1.2-2.11 2.85-2.7 4.46-2.64 7.11-5.15 14.27-7.62 21.45-.5 1.45-1.11 3.13-.82 4.53 1.76 8.51 6.37 15.83 13.88 19.56 19.36 9.61 41.32 5.22 56.35-10.19.95-.98 1.8-2.36 2.04-3.67 1.39-7.58 2.58-15.17 3.84-22.75zm-1.98-70.61c.07-9.49-3.68-15.93-10.95-20.36-6.97-4.25-14.51-6.83-22.67-7.64-3.25-.32-6.36-1.01-8.87 2.09-2.01 2.49-5.52 4.32-6.4 7.07-2.18 6.75-3.79 13.81-4.58 20.86-.9 7.97 2.84 12.73 10.37 15.22 1.48.49 3.03.86 4.45 1.5 4.7 2.11 9.46 1.99 14-.08 6.58-3.01 13.02-6.34 19.44-9.69 3.88-2.04 6.1-5.18 5.21-8.97z" fill="#010100"/><g fill="#fcfbfa"><path d="m377.9 391.2c-.2.3-.4.5-.6.8-.7-.6-1.4-1-2.2-1.5.2-.3.4-.5.5-.8.6.4 1.4.8 2.3 1.5zm-1.8 6.1c-.2-.2-.5-.4-.9-.6.4-.6.8-1.2 1.2-1.9s.7-1.3.9-1.9c.3.3.5.5.8.7-.7 1.3-1.4 2.6-2 3.7zm2.2-9c-.3.3-.5.5-.6.8-.6-.6-1.3-1.1-2-1.5.3-.3.5-.5.6-.7.6.5 1.3.9 2 1.4zm.3.2v-.9h2 4.5c-.3 1.3-.6 2.5-1 3.6s-.9 2.1-1.4 3c.4.5 1 1 1.6 1.4s1.2.8 1.9 1.1c-.3.2-.5.4-.8.8-.4-.3-1-.7-1.6-1.2s-1.2-1.1-1.6-1.6c-.5.6-1.1 1.1-1.7 1.6s-1.4.9-2.1 1.4c-.1-.3-.3-.5-.7-.8.6-.2 1.2-.5 1.9-1s1.4-1.1 2-1.8c-.5-.8-.9-1.6-1.2-2.5s-.6-2-.8-3.2c-.4.1-.7.1-1 .1zm2.5 2.7c.3 1 .7 1.7 1 2.2.3-.5.6-1.1 1-2s.6-1.9.9-3h-3.2-.4c.1.9.3 1.8.7 2.8z"/><path d="m396.5 388.5v1.5 3.6h1.5v.9c-.4 0-1 0-1.7 0h-7.9c-.5 0-.9 0-1.2 0v-.9h1.3v-3.5c0-.7 0-1.2 0-1.6h2.4c0-.8 0-1.4 0-1.7h1c0 .3-.1.8-.1 1.7h1.5c0-.8 0-1.4 0-1.7h1c0 .3-.1.9-.1 1.7zm-8.2 9.2c-.2-.3-.5-.5-.8-.8.8-.3 1.4-.6 1.9-.9s1-.7 1.4-1.1c.3.3.6.5.9.8-1.6 1-2.8 1.6-3.4 2zm2.6-6.8v-1.6h-1.5v1.6zm0 2.7v-1.9h-1.5v1.9zm2.4-2.7v-1.6h-1.5v1.6zm0 2.7v-1.9h-1.5v1.9zm.2 2 .7-.8c.4.2.9.5 1.6.8s1.3.7 1.8 1c-.3.3-.5.5-.8.8-.4-.3-1.5-1-3.3-1.8zm2-4.7v-1.6h-1.4v1.6zm0 2.7v-1.9h-1.4v1.9z"/></g></svg>