<svg enable-background="new 0 0 400 400" viewBox="0 0 400 400" xmlns="http://www.w3.org/2000/svg"><g fill="#fbfafa"><path d="m37.59 393.81c-.92.31-1.52.05-2-.78-.7-1.2-1.52-2.34-2.47-3.78v4.59c-.55.03-.95.05-1.41.07-.03-.37-.06-.64-.06-.91 0-1.91 0-3.81 0-5.7 1.13-.41 1.77-.03 2.29.91.62 1.11 1.38 2.14 2.31 3.19v-4.2h1.35v6.61z"/><path d="m12.94 393.88v-6.75c1.9.19 3.93-.54 5.37 1.29.8 1.01.78 2.88.03 3.97-1.37 1.97-3.4 1.51-5.4 1.49m1.45-1.22c2.04.12 2.92-.58 2.89-2.21-.03-1.51-.98-2.19-2.89-2z"/><path d="m11.81 393.87h-5.49c.68-2.18 2.47-3.48 3.51-5.45h-3.08v-1.21h5.29c-.71 2.13-2.44 3.48-3.47 5.51.86 0 1.63.04 2.39-.01.79-.05 1.14.21.85 1.16"/><path d="m39.33 393.86v-6.61h3.7v1.07h-2.22v1.52c.68.04 1.34.09 2.07.13v1.07c-.72.05-1.38.09-2.1.14v1.48h2.4v1.19h-3.85z"/><path d="m27.71 388.56c-1.15-.3-2.46-.61-3.1.64-.37.73-.41 1.93-.06 2.67.63 1.35 1.99.93 3.17.68.35.94-.01 1.32-.93 1.46-1.62.25-3.05-.27-3.76-1.48-.73-1.24-.6-3.03.31-4.17.88-1.11 2.71-1.7 4-1.16.32.13.44.74.65 1.12-.1.08-.19.16-.28.24"/><path d="m49.15 387.24v1.07c-.59.02-1.17.05-1.87.08v5.44h-1.48v-5.44h-1.85c-.05-.4-.08-.73-.13-1.15z"/><path d="m20.06 387.21h1.33v6.62h-1.33z"/><path d="m30.68 393.25c-.49.38-.8.79-1.05.76-.32-.05-.6-.45-.9-.7.26-.24.51-.64.8-.67.29-.04.62.3 1.15.61"/></g><path d="m149.51 351.41c-4.63 7.41-3.95 17.29-12.06 22.87-3.95-6.26-6.58-13.19-6.67-20.58-.27-21.64-3.44-43.03-5.11-64.54-.92-11.81-.92-23.71-.96-35.56-.03-7.1 2.81-13.56 6.26-19.62 5.21-9.14 8.78-18.78 10.21-29.21.48-3.47.3-6.8-1.98-9.55-11.39-13.75-11.82-29.22-6.68-45.24 1.89-5.88 5.29-11.29 8.16-16.83.63-1.22 1.89-2.18 3.01-3.08 7.77-6.23 15.49-12.54 23.44-18.53 3.08-2.32 6.71-3.92 10.12-5.79 1.56-.86 3.3-1.43 4.78-2.41 3.59-2.35 4.12-6.01 1.95-9.71-1.74-2.97-3.28-6.1-4.56-9.3-2.73-6.82-8.22-8.49-13.96-4.07-.27.2-.52.42-.8.62-9.62 6.69-18.16 14.42-24.51 24.43-3.05 4.81-7.8 6.19-13.37 5.95-3.06-.13-4.23-1.76-4.61-4.2-.45-2.86-.62-5.79-.65-8.69-.01-.71.89-1.91 1.57-2.07 7.68-1.87 11.97-7.06 14.54-14.18.42-1.17 1.57-2.15 2.54-3.06 8.3-7.85 16.43-15.88 25.05-23.36 3.28-2.85 7.7-4.38 11.57-6.57 3.01-1.7 6.11-3.29 8.91-5.3 3.94-2.83 5.91-6.82 6.11-11.76.21-5.29 4.24-7.13 9.11-5.54 9.92 3.24 14.39 11.04 18.15 19.72 5.05 11.66 9.31 23.52 9.05 36.47-.04 1.73-.46 3.54-1.12 5.14-2.66 6.4-5.38 12.77-8.29 19.06-.98 2.13-.71 3.74.5 5.57 4.03 6.05 10.3 9.47 15.77 13.86 5.64 4.53 10.95 9.56 15.79 14.93 2.01 2.24 2.38 5.94 3.55 8.95.4 1.02.72 2.3 1.51 2.9 9.7 7.42 12.68 18.39 15.37 29.39 1.13 4.62 1.52 9.47 1.78 14.23.2 3.77-.92 7.18-5.99 7.96-4.22-8.78-10.78-16.49-14.32-26.28-2.79-7.71-8.01-14.59-12.49-21.63-1.16-1.83-3.56-2.88-5.64-4.48-6.89 11.41-12.07 22.76-9.78 36.13.18 1.05.53 2.24 1.22 3 14.29 15.94 22.55 35.05 28.86 55.14 4.1 13.06 6.88 26.39 7.18 40.16.04 1.94.67 3.98 1.46 5.79 2.03 4.63 2.57 9.37 2.25 14.39-.55 8.6-.89 17.21-1.11 25.83-.06 2.38-1.05 3.44-3.39 3.92-5.56-7.03-8.31-15.26-9.5-23.96-1.75-12.74-2.65-25.62-4.77-38.29-1.73-10.31-3.89-20.61-8.44-30.25-3.51-7.45-6.12-15.32-9.55-22.81-1.61-3.51-4.06-6.67-6.41-9.78-1.15-1.52-2.95-2.55-4.67-3.98-2.39 4.39-4.48 8.33-6.66 12.21-1.69 3.01-3.82 5.47-7.49 6.18-2.75.53-4.11-.27-4.48-3.19-.91-7.11 1.03-13.69 2.97-20.4 2.29-7.91 4.02-15.98 6-23.97.03-.11.06-.22.04-.33-.57-4.6.53-8.58 3.41-12.38 2.27-2.99 2.01-6.56.63-10.23-1.15-3.05-1.75-6.43-1.91-9.69-.17-3.34 1.96-5.06 5.4-4.75 2.56.23 5.1.67 7.66.76 1.11.04 2.24-.56 3.36-.86-.47-1.14-.63-2.64-1.46-3.38-7.66-6.83-15.44-13.53-23.18-20.28-3.96-3.46-8.09-2.56-11.86.01-1.45.99-2.39 3.15-2.9 4.97-.56 2-.74 4.27-.42 6.32 1.62 10.57-.53 20.94-1.35 31.38-.74 9.37-1.67 18.72-2.47 28.08-.2 2.28-.37 4.53-2.84 5.61-4.56 1.99-7.22.26-7.73-5.67-.34-3.96.33-8.03.7-12.03 1.04-11.14 2.07-22.28 3.3-33.4.34-3.07 1.35-6.07 2.17-9.06.58-2.15 1.59-4.21 1.99-6.38.66-3.61-.48-4.45-4.01-4.41-3.7.04-6.61 1.44-9.4 3.69-3.13 2.52-6.25 5.2-9.76 7.1-7.05 3.81-9.54 10.55-12.24 17.3-2.74 6.86-3.42 13.82-1.63 21.04 1.25 5.05 3.22 9.62 6.38 13.86 5.08 6.81 9.53 14.1 17.8 17.68.75.33 1.34 1.15 1.89 1.82 6.12 7.41 12.27 14.79 18.3 22.27 1.81 2.24 3.86 4.55 4.81 7.19 3.56 9.86 6.81 19.83 9.97 29.83.89 2.82-2.17 10.84-4.95 13.48-3.68-5.95-7.7-11.6-10.82-17.7-4.53-8.84-8.18-18.13-12.64-27.01-3.79-7.54-10.1-12.68-18.05-16.52-1.65 3.73-3.05 7.48-4.93 10.97-2.21 4.09-4.61 8.13-7.36 11.87-6.54 8.88-7.14 18.76-5.37 29.08.18 1.06 1.21 2.07 2.04 2.92 9 9.34 18.22 18.48 27 28.02 4.53 4.92 8.48 10.41 12.32 15.91 1.83 2.62 2.78 5.86 4.13 8.82-.35.37-.7.73-1.05 1.1-1.67-.54-3.54-.76-4.98-1.67-2.93-1.84-5.52-4.22-8.44-6.07-3.19-2.02-5.48-4.39-5.67-8.41-.04-.85-.76-1.91-1.48-2.43-5.91-4.22-11.89-8.33-18.56-12.97-.37 3.23-1.14 5.94-.89 8.56.66 7 1.66 13.97 2.76 20.91.2 1.25 1.36 2.51 2.37 3.46 7.16 6.77 14.49 13.35 21.57 20.2 5.13 4.96 9.14 10.72 10.82 17.83.23.96.35 1.95.56 3.2-2.99.29-5.75.79-8.5.78-3.07-.02-5.49-.93-7.28-4.15-3.59-6.3-9.1-10.62-15.97-13.27zm50.46-258.59c2.37-1.65 4.27-3.27 6.43-4.4 2.98-1.57 3.99-4.1 4.02-7.13.08-8.17-1.46-16.02-5.58-23.14-1.13-1.95-3.02-3.53-4.75-5.05-1.49-1.31-3.04-1.28-4.65.31-2.62 2.59-5.37 5.06-8.27 7.33-1.89 1.48-2.21 3.06-1.7 5.24 2.39 10.16 8.01 18.52 14.5 26.84z" fill="#010000"/></svg>