<svg enable-background="new 0 0 400 400" viewBox="0 0 400 400" xmlns="http://www.w3.org/2000/svg"><path d="m117.24 101.16c-2.58 1.89-4.82 3.77-7.27 5.29-4.02 2.49-8.43 3.58-13.17 2.58-6.23-1.31-12.59-2.24-18.63-4.17-4.26-1.37-8.73-3.39-10.37-8.88 5.23-1.77 10.2-3.37 15.1-5.15 1.75-.64 3.49-1.51 4.97-2.63 6.6-5 13.31-9.88 19.6-15.25 8.02-6.85 17.26-11.04 27.24-13.92 14.25-4.11 28.67-7.09 43.6-6.6 3.46.11 6.97.26 10.33.99 2.39.52 4.83 1.72 6.79 3.21 4.27 3.25 8.04 7.17 12.38 10.3 7.67 5.53 9.34 13.08 7.78 21.67-1.15 6.34-2.9 12.57-4.57 19.66 4.65-.65 9.26-1.12 13.79-1.99 2.61-.5 5.1-1.63 7.65-2.48 6.81-2.28 7.56-2.8 7.57-10.11.01-7.7-.48-15.43-1.26-23.09-.85-8.34-2.08-16.65-3.57-24.9-.46-2.56-2.01-5.1-3.6-7.24-2.81-3.78-6.09-7.22-5.22-12.44.31-.17.52-.39.68-.35 9.87 2.39 19.82 4.48 29.56 7.32 6.99 2.03 10.53 6.86 10.71 14.71.26 11.27 1.68 22.5 2.37 33.76.23 3.77-.08 7.6-.49 11.36-.26 2.43.45 3.98 2.41 5.34 4.92 3.43 10.33 5.19 16.3 5.44 2.9.12 5.84.16 8.67.72 5.46 1.09 8.7 5.37 8.78 11.61-6.16 1.02-12.43 1.98-18.66 3.11-4.61.84-9.2 1.82-13.76 2.89-1.85.44-2.99 1.57-3.04 3.81-.14 6.71-.41 13.43-.81 20.13-.13 2.11.62 3.1 2.57 3.46 8.44 1.54 16.89 3.06 25.33 4.63 3.29.61 6.62 1.1 9.81 2.06 1.87.56 3.94 1.55 5.12 3.01 1.48 1.82 2.98 4.33 2.91 6.5-.06 2.04-5.16 3.66-7.85 2.98-10.52-2.7-20.19.02-29.37 4.87-6.97 3.68-11.73 13.72-10.42 21.38.15.86 1.71 1.92 2.76 2.11 9.57 1.7 19.17 3.18 28.75 4.83 5.82 1 11.7 1.87 17.39 3.39 4.3 1.15 7.93 3.65 9.12 8.49.51 2.08.17 3.46-2.24 3.86-7.15 1.16-14.29 2.45-21.44 3.59-5.62.9-11.25 1.84-16.91 2.42-2.94.3-6.04.27-8.9-.36-5.27-1.16-9.5.92-11.35 6.08-2.02 5.62-.79 11.27-.4 16.95 1.58 22.71 2.03 45.32-4.51 67.56-1.74 5.92-1.71 12.38-2.41 18.6-.6 5.36-2.68 7.7-6.94 7.8-2.52.06-4.14-.86-5.23-3.25-3.95-8.64-5.97-17.77-7.29-27.1-2.78-19.78-3.44-39.64-2.85-59.6.13-4.41-1.3-8.98-2.64-13.29-1.21-3.88-4.34-6.11-8.56-5.42-6.71 1.09-14.15 1.14-19.79 4.3-5.45 3.06-10.95 3.06-16.38 4.59-4.15 1.17-8.28 2.9-11.96 5.14-7.41 4.51-15.16 5.13-23.48 3.78-3.98-.65-7.46-1.65-11.09-3.75-5.22-3.02-11.28-4.63-17.04-6.68-2.21-.79-3.94-.12-5.22 2.19-1.9 3.41-4.29 6.55-6.27 9.92-.44.75-.06 1.98-.06 2.99.35.03.71.05 1.06.08.4-.73.79-1.46 1.22-2.25 9.13 4.53 19.11 4.88 28.67 7.04 3.59.81 7.13 1.88 10.73 2.67 10.44 2.27 14.96 9.8 17.08 19.32 2.01 9.01.62 17.85-2.27 26.42-4.88 14.5-9.51 29.13-15.35 43.26-3 7.27-8.07 13.77-12.78 20.2-2.73 3.72-7.46 4.2-11.91 4.38-.41.02-1.16-.14-1.19-.32-.56-3.08-2.53-7.12-1.28-9.13 6.44-10.33 9.43-21.68 11.44-33.4 2.47-14.47 4.02-29.04 3.71-43.75-.06-3.02-.53-6.03-.58-9.04-.05-2.95-1.69-4.55-4.3-4.44-4.06.17-8.18.61-12.12 1.56-3.11.75-5.99 2.43-8.97 3.7-3.42 1.45-6.36 3.35-8.77 6.41-2.89 3.68-6.97 5.88-11.81 6.32-2.07.19-3.31-.43-4.59-2.34-5.84-8.72-5.27-18.49-4.05-27.92 2.42-18.77 7.89-36.61 18.81-52.49 8.24-11.98 15.87-24.38 24.16-36.32 3.53-5.09 8.15-9.42 12.08-14.25 2.49-3.06 4.58-6.45 6.93-9.64 1.83-2.5 3.61-5.07 5.71-7.33 3.1-3.32 3.29-7.29-.12-10.26-11.83-10.28-23.73-20.47-35.61-30.69-.31-.24-.64-.36-.92-.52zm15.42 123.44c2.34.11 4.79.25 7.23.34 12.75.45 25.48.94 37.56-4.52 4.57-2.06 9.28-3.93 14.09-5.29 12.57-3.55 25.23-6.77 37.85-10.12 5.42-1.44 5.43-1.42 6.04-7.02.07-.67.1-1.34.14-2.01.44-8.67-2.96-12.16-11.65-11.78-1.42.06-2.84.52-4.22.94-15.28 4.62-30.59 9.15-45.8 13.97-4.07 1.29-7.89 1.74-12.07.67-4.1-1.05-8.37-1.43-12.5-2.35-1.85-.41-2.83.06-3.88 1.55-3.66 5.22-7.28 10.47-11.25 15.45-2.45 3.08-3.7 6.03-1.54 10.17zm27.3-55.56c1.27 1.33 2.22 2.12 2.92 3.09 1.87 2.63 3.96 2.64 6.88 1.52 8.24-3.16 16.56-6.13 24.98-8.78 5.82-1.83 11.83-3.14 17.8-4.45 5.55-1.22 11.29-1.73 16.71-3.36 2.93-.88 6.82-2.91 7.7-5.35 2.15-5.97 2.35-12.55.23-18.76-.91-2.67-3.01-3.91-6.18-2.65-4.77 1.89-9.64 3.58-14.56 5.07-1.93.58-4.11.68-6.13.48-2.05-.2-3.62-.04-5.03 1.66-3.97 4.8-9.12 8.03-15.05 9.59-8.4 2.21-14.56 7.04-19.03 14.35-2.46 3.99-5.92 6.68-11.24 7.59zm7.27-53.18c3-2.01 7.06-3.26 8.36-5.87 4.06-8.14 7.11-16.78 10.44-25.27.47-1.19.43-2.65.36-3.98-.34-6.24-5.65-9.77-11.49-7.56-6.26 2.37-12.62 4.57-18.64 7.45-7.36 3.52-14.43 7.66-22.29 11.89 3.83 2.26 6.82 3.77 9.54 5.68 7.91 5.55 18.2 7.81 23.72 17.66z" fill="#010105"/><g fill="#fcfbfa"><path d="m377.9 391.2c-.2.3-.4.5-.6.8-.7-.6-1.4-1-2.2-1.5.2-.3.4-.5.5-.8.6.4 1.4.8 2.3 1.5zm-1.8 6.1c-.2-.2-.5-.4-.9-.6.4-.6.8-1.2 1.2-1.9s.7-1.3.9-1.9c.3.3.5.5.8.7-.7 1.3-1.4 2.6-2 3.7zm2.2-9c-.3.3-.5.5-.6.8-.6-.6-1.3-1.1-2-1.5.3-.3.5-.5.6-.7.6.5 1.3.9 2 1.4zm.3.2v-.9h2 4.5c-.3 1.3-.6 2.5-1 3.6s-.9 2.1-1.4 3c.4.5 1 1 1.6 1.4s1.2.8 1.9 1.1c-.3.2-.5.4-.8.8-.4-.3-1-.7-1.6-1.2s-1.2-1.1-1.6-1.6c-.5.6-1.1 1.1-1.7 1.6s-1.4.9-2.1 1.4c-.1-.3-.3-.5-.7-.8.6-.2 1.2-.5 1.9-1s1.4-1.1 2-1.8c-.5-.8-.9-1.6-1.2-2.5s-.6-2-.8-3.2c-.4.1-.7.1-1 .1zm2.5 2.7c.3 1 .7 1.7 1 2.2.3-.5.6-1.1 1-2s.6-1.9.9-3h-3.2-.4c.1.9.3 1.8.7 2.8z"/><path d="m396.5 388.5v1.5 3.6h1.5v.9c-.4 0-1 0-1.7 0h-7.9c-.5 0-.9 0-1.2 0v-.9h1.3v-3.5c0-.7 0-1.2 0-1.6h2.4c0-.8 0-1.4 0-1.7h1c0 .3-.1.8-.1 1.7h1.5c0-.8 0-1.4 0-1.7h1c0 .3-.1.9-.1 1.7zm-8.2 9.2c-.2-.3-.5-.5-.8-.8.8-.3 1.4-.6 1.9-.9s1-.7 1.4-1.1c.3.3.6.5.9.8-1.6 1-2.8 1.6-3.4 2zm2.6-6.8v-1.6h-1.5v1.6zm0 2.7v-1.9h-1.5v1.9zm2.4-2.7v-1.6h-1.5v1.6zm0 2.7v-1.9h-1.5v1.9zm.2 2 .7-.8c.4.2.9.5 1.6.8s1.3.7 1.8 1c-.3.3-.5.5-.8.8-.4-.3-1.5-1-3.3-1.8zm2-4.7v-1.6h-1.4v1.6zm0 2.7v-1.9h-1.4v1.9z"/></g></svg>