<svg enable-background="new 0 0 400 400" viewBox="0 0 400 400" xmlns="http://www.w3.org/2000/svg"><path d="m290.98 205c-3.46-2.6-6.38-4.26-8.65-6.58-13.26-13.54-23.83-29.02-32.44-45.86-.41-.8-.77-1.63-1.29-2.35-8.94-12.57-17.59-25.32-25-38.89-2.09-3.83-5.38-6.16-10.14-5.9-4.79.26-7.05 3.82-8.98 7.21-1.72 3.02-1.75 6.39.55 9.74 20.91 30.43 41.7 60.95 62.52 91.44.55.81 1.08 1.64 1.6 2.42-2.04 2.16-3.2.65-4.46-.65-13.24-13.72-25.54-28.26-36.19-44.07-9.18-13.62-17.7-27.68-26.61-41.48-1.8-2.79-3.73-5.65-6.14-7.88-3.59-3.32-6.61-3.15-10.43-.27-5.49 4.13-6.03 4.37-3.27 10.55 6.27 14.06 13.23 27.82 19.72 41.78 7.22 15.54 17.19 29.25 27.75 42.62 5.86 7.42 10.57 15.52 13.06 24.75.14.52.24 1.05.61 2.66-2.1-.91-3.89-1.14-4.79-2.16-6.04-6.89-11.92-13.94-17.77-20.99-.68-.82-1.02-1.99-1.29-3.06-.98-3.92-2.6-7.26-6.51-9.18-1.06-.52-1.79-1.93-2.41-3.08-12.36-22.8-24.68-45.62-37.01-68.44-2.04-3.78-7.01-4.74-10.39-1.92-1.97 1.65-3.88 3.39-5.73 5.18-3.52 3.39-3.95 6.67-1.41 10.82 8.73 14.33 17.58 28.59 26.19 42.99 2.46 4.12 2.22 10.06 8.28 11.62.31.08.49.72.71 1.1 9.26 15.83 18.52 31.67 27.76 47.51.32.55.54 1.17.83 1.81-2.78.86-4.77.2-6.72-1.81-10.19-10.56-20.56-20.99-27.51-34.11-1.97-3.71-3.07-7.87-4.66-11.78-1.12-2.74-1.94-5.78-3.7-8.05-11.74-15.16-22.1-31.22-31.48-47.91-1.64-2.92-3.13-3.01-6.06-2.2-5.66 1.56-8.63 5.79-11.21 10.34-1.63 2.87-1.29 5.77 1.33 8.52 12.14 12.77 20.31 28.02 26.5 44.35 1.77 4.67 3.67 9.12 7.04 12.79 7.28 7.95 11.52 17.34 14.11 27.71 1.81 7.25 4.71 14.24 6.42 21.51 2.53 10.72.1 21.09-3.42 31.25-3.36 9.71-6.66 19.45-10.02 29.17-.36 1.05-.8 2.1-1.41 3.02-7.44 11.31-14.91 22.6-22.39 33.88-.23.35-.53.67-1.11 1.39-1.19-5.06-.33-9.48 1.71-13.56 3.3-6.6 6.99-13 10.43-19.52 6.07-11.51 11.31-23.41 13.83-36.21 1.31-6.63 1.44-13.52 1.8-20.31.26-4.89.27-9.83-.13-14.7-.23-2.81-1.18-5.69-2.37-8.27-2.52-5.48-5.28-10.85-8.17-16.15-9.08-16.69-18.2-33.36-27.45-49.95-2.6-4.67-5.67-9.08-8.62-13.54-5.43-8.21-11.18-16.22-16.32-24.6-4.45-7.24-6.58-15.41-7.3-23.86-.17-2.01.65-4.12 1.02-6.18 2.01-11.16 8.56-19.01 16.66-26.82 11.37-10.96 25.07-17.36 38.66-24.32 9.05-4.63 18.12-9.21 27.39-13.91-.87-3.81-1.62-7.51-2.61-11.15-.26-.97-1.11-1.92-1.92-2.59-4.46-3.65-10.91-3.7-15.53-.23-6.9 5.17-15.19 6.23-23.29 7.82-.97.19-1.98.24-3.22.39.18-4.45.16-8.29 4.61-11.34 11.27-7.74 23.77-12.35 36.8-15.75 6.05-1.58 12.25-2.58 18.38-3.86 3.6-.75 7.08-.56 10.48.97 4.17 1.88 8.49 3.48 12.56 5.57 6.84 3.51 8.66 13.2 4.16 19.39-3.77 5.18-8.39 9.18-13.94 12.34-5.48 3.12-6.59 8.25-3.27 13.64 13.83 22.49 27.66 44.97 41.52 67.44.69 1.11 1.47 2.46 2.55 2.98 3.85 1.87 6.05 5.12 8.19 8.58 6.85 11.04 14.34 21.6 22.87 31.46 2.81 3.25 4.26 7.7 6.1 11.72.46 1.09.04 2.57.04 5.01zm-141.77-111.58c-3.78 2.13-7.21 4.22-10.78 6.03-1.94.98-2.47 2.12-1.98 4.23 1.93 8.33 4.99 16.19 9.41 23.5 3.03 5 6.16 5.81 11.33 2.94 1.64-.91 3.02-2.27 4.56-3.38 2.24-1.62 2.69-3.73 1.6-6.15-3.3-7.3-6.56-14.62-10.05-21.82-.95-1.95-2.66-3.51-4.09-5.35zm11.06-4.5c3.85 8.3 7.6 16.38 11.34 24.46.28.61.39 1.44.86 1.78.95.69 2.39 1.81 3.12 1.52 3.55-1.47 7-3.21 10.34-5.11 2.85-1.62 3.84-3.91 2.1-7.18-1.46-2.74-2.17-5.89-3.7-8.58-1.96-3.45-3.98-7.05-6.74-9.82-4.4-4.42-8.32-4.25-13.1-.43-1.31 1.04-2.62 2.08-4.22 3.36zm-33.51 22.29c-3.67 4.23-7.07 8.06-10.33 12.01-.54.66-.75 1.84-.65 2.73.67 5.88 1.39 11.75 2.3 17.59.14.91 1.33 2.36 2.02 2.35 3.02-.03 6.19-.03 9.01-.95 2.46-.8 4.71-2.59 6.69-4.35 1.16-1.03 2.28-2.86 2.28-4.33-.01-9.79-4.28-17.77-11.32-25.05zm69.8-40.46c-10.14 1.99-13.61 4.24-10.74 13.28.37 1.16.86 2.32 1.49 3.35 2.16 3.52 4.37 7.02 6.65 10.46 2.98 4.49 5.49 4.97 10.04 1.85 1.46-1 2.97-2.13 3.98-3.54.66-.92 1-2.69.57-3.66-2.86-6.42-5.87-12.78-9.06-19.05-.66-1.28-2.26-2.09-2.93-2.69zm6.82-15.01c4.51.03 8.74-2.41 12.71-7.64.53-.7.57-2.31.13-3.12-3.9-7.3-16.79-7.71-23.5-3.72-.36.21-.5.94-.56 1.45-.72 5.95 5.36 12.98 11.22 13.03z" fill="#010100"/><g fill="#fcfbfa"><path d="m377.9 391.2c-.2.3-.4.5-.6.8-.7-.6-1.4-1-2.2-1.5.2-.3.4-.5.5-.8.6.4 1.4.8 2.3 1.5zm-1.8 6.1c-.2-.2-.5-.4-.9-.6.4-.6.8-1.2 1.2-1.9s.7-1.3.9-1.9c.3.3.5.5.8.7-.7 1.3-1.4 2.6-2 3.7zm2.2-9c-.3.3-.5.5-.6.8-.6-.6-1.3-1.1-2-1.5.3-.3.5-.5.6-.7.6.5 1.3.9 2 1.4zm.3.2v-.9h2 4.5c-.3 1.3-.6 2.5-1 3.6s-.9 2.1-1.4 3c.4.5 1 1 1.6 1.4s1.2.8 1.9 1.1c-.3.2-.5.4-.8.8-.4-.3-1-.7-1.6-1.2s-1.2-1.1-1.6-1.6c-.5.6-1.1 1.1-1.7 1.6s-1.4.9-2.1 1.4c-.1-.3-.3-.5-.7-.8.6-.2 1.2-.5 1.9-1s1.4-1.1 2-1.8c-.5-.8-.9-1.6-1.2-2.5s-.6-2-.8-3.2c-.4.1-.7.1-1 .1zm2.5 2.7c.3 1 .7 1.7 1 2.2.3-.5.6-1.1 1-2s.6-1.9.9-3h-3.2-.4c.1.9.3 1.8.7 2.8z"/><path d="m396.5 388.5v1.5 3.6h1.5v.9c-.4 0-1 0-1.7 0h-7.9c-.5 0-.9 0-1.2 0v-.9h1.3v-3.5c0-.7 0-1.2 0-1.6h2.4c0-.8 0-1.4 0-1.7h1c0 .3-.1.8-.1 1.7h1.5c0-.8 0-1.4 0-1.7h1c0 .3-.1.9-.1 1.7zm-8.2 9.2c-.2-.3-.5-.5-.8-.8.8-.3 1.4-.6 1.9-.9s1-.7 1.4-1.1c.3.3.6.5.9.8-1.6 1-2.8 1.6-3.4 2zm2.6-6.8v-1.6h-1.5v1.6zm0 2.7v-1.9h-1.5v1.9zm2.4-2.7v-1.6h-1.5v1.6zm0 2.7v-1.9h-1.5v1.9zm.2 2 .7-.8c.4.2.9.5 1.6.8s1.3.7 1.8 1c-.3.3-.5.5-.8.8-.4-.3-1.5-1-3.3-1.8zm2-4.7v-1.6h-1.4v1.6zm0 2.7v-1.9h-1.4v1.9z"/></g></svg>