<svg enable-background="new 0 0 400 400" viewBox="0 0 400 400" xmlns="http://www.w3.org/2000/svg"><path d="m378.6 9.2.8-1c.9.7 1.9 1.4 2.9 2.3l-.9 1.1c-1.1-.9-2-1.7-2.8-2.4zm.5 10.7c.9-2.1 1.6-4.3 2.3-6.7.4.2.8.4 1.3.6-.7 2.1-1.5 4.3-2.2 6.6zm.4-15.2.9-.9c1 .8 2 1.6 2.8 2.4l-1 1c-1-.9-1.9-1.8-2.7-2.5zm12.5-1.3h1.2v1.4h2.7v1.1h-2.7v2.7h-1.2v-.5h-1.8v1.3h4.9v3.8h-1.2v-.5h-3.7c0 .4-.1.9-.1 1.2h5.1v1h-5.2c0 .5-.1.9-.2 1.2h6v1h-5.2c1.1 1.3 2.9 2 5.5 2.2-.4.4-.7.8-.9 1.3-2.9-.5-4.8-1.6-5.7-3.5h-.1c-.8 1.7-2.7 2.9-5.9 3.6-.2-.4-.6-.8-.9-1.1 2.8-.6 4.6-1.4 5.4-2.5h-4.8v-1h5.3c.1-.3.2-.7.2-1.2h-4.9v-1h5c0-.4 0-.8.1-1.2h-3.6v.5h-1.2v-3.8h4.9v-1.3h-1.8v.5h-1.2v-2.7h-2.6v-1.1h2.6v-1.4h1.2v1.4h4.7v-1.4zm-6.7 8.4h3.6c0-.4 0-.9 0-1.4h-3.6zm1.9-4.7h4.7v-1.2h-4.7zm6.7 3.3h-3.7v1.4h3.7z" fill="#fcfafa"/><path d="m384.7 21.4h1.3v2.2h2.8v-2.2h1.3v2.2h4.1v9.1h1.7v1.3h-16.9v-1.3h1.7v-9.1h4.1v-2.2zm.3 13.2.7 1.2c-1.8.9-3.8 1.9-6 2.9-.2-.4-.5-.8-.8-1.3 2.4-1 4.4-2 6.1-2.8zm-3.1-6.5h2.8v-3.2h-2.8zm0 4.6h2.8v-3.3h-2.8zm4.1-4.6h2.8v-3.2h-2.8zm0 4.6h2.8v-3.3h-2.8zm3.6 1.9c2.1.9 4.1 1.8 6.1 2.7l-.7 1.3c-2.2-1.1-4.2-2-6.1-2.9zm3.3-9.7h-2.8v3.2h2.8zm-2.8 7.8h2.8v-3.3h-2.8z" fill="#fcfafa"/><path d="m128.61 106.44c2.75-.42 5.27-.96 7.81-1.1.86-.05 2 .69 2.63 1.41 5.16 5.87 8.16 6.66 14.82 2.69 3.4-2.02 6.45-4.75 9.29-7.54 3.98-3.92 7.44-8.37 11.42-12.28 5.69-5.6 7.29-12.35 6.48-19.97-.06-.54-.13-1.13-.38-1.6-3.63-7.03-14.39-10.48-21.64-7.57-10.4 4.18-20.37 8.62-27.49 17.97-2.34 3.07-6.25 5.01-9.6 7.23-4.95 3.27-7.3 7.92-8.1 13.64-.98 7.01.67 13.53 3.67 20.02-.91.35-1.58.81-2.28.85-6.31.36-11.45 3.21-16.22 7.15-3.88 3.2-8.11 5.98-12.06 9.09-7.34 5.77-15.49 6.41-24.13 3.99-.93-.26-1.97-1.13-2.42-1.99-2.59-4.94-5.03-9.97-7.54-15.02 7.69-7.92 15.57-15.55 22.9-23.69 11.45-12.72 22.52-25.78 33.78-38.67 1.39-1.59 2.85-3.16 4.48-4.5 8.11-6.7 16.66-12.92 24.35-20.07 8.8-8.19 18.57-9.48 29.83-7.38 8.1 1.51 14.75 4.71 19.82 11.21 4.26 5.47 9.06 10.57 12.8 16.36 7.5 11.62 6.97 23.9 1.31 36.12-6.18 13.36-14.99 24.86-25.71 34.85-3.07 2.86-3.71 5.92-3.25 9.83.95 8.02.74 8.44 8.57 10.05 4.94 1.01 10.17.74 15.28.8 6.36.07 12.72-.07 19.07-.21 1.25-.03 2.72-.16 3.69-.82 7.73-5.31 16.16-6.24 25.31-5.24 6.59.72 13.39.69 19.97-.09 8.84-1.04 12.63-4.53 13.92-15.25.84-6.99-.12-14.25-.75-21.35-.79-8.8-1.96-17.57-3.24-26.31-.38-2.56-1.82-4.95-2.55-7.48-2.26-7.82-4.58-15.63-6.56-23.52-1-4-1.47-8.15-1.82-12.27-.11-1.29.69-2.87 1.52-3.98.99-1.31 2.68-2.1 3.68-3.4 2.66-3.47 5.76-3.69 9.29-1.65 1 .58 2.25 1.21 2.72 2.15 5.71 11.38 11.73 22.64 16.82 34.3 6.3 14.42 8.41 29.82 8.76 45.5.09 4.33.34 8.77 1.37 12.95 1.98 7.99 8.78 11.38 16.64 8.85.61-.2 1.37-.43 1.72-.91 4.07-5.44 9.87-6.05 15.97-5.82 1.88.07 3.76.34 6.21.57-1.16 5.24-2.2 10.21-3.43 15.13-.17.66-1.26 1.22-2.04 1.56-9.1 4-18.12 8.18-27.35 11.85-8.4 3.34-11.75 7.79-10.96 16.83.39 4.43 1.61 8.78 2.22 13.2.31 2.26 1.61 3.21 3.54 3.17 4.45-.11 8.9-.37 13.34-.77 1.87-.17 3.69-.88 5.55-1.26 6.96-1.43 13.26 4.99 11.66 11.89-.12.5-.5 1-.89 1.36-4.32 3.93-8.72 7.73-14.6 9.18-1.52.38-3.03.79-4.52 1.27-10.49 3.4-11.05 4.19-11.05 15.09 0 7.61.13 15.23-.07 22.84-.07 2.69.97 3.75 3.38 4.36 4.74 1.2 9.24 1.06 13.67-1.26 3.98-2.08 5.98-1.2 7.14 3.19.65 2.46.78 5.07 1.13 7.61.05.33.14.8-.03.99-3.46 3.83-6.14 8.69-11.45 10.25-4.38 1.28-8.95 1.98-13.48 2.66-2.41.36-3.81 1.54-3.88 3.8-.1 3.08-.33 6.33.46 9.24 1.67 6.13 1.99 12.21 1.7 18.53-.67 14.64-.75 29.3-1.34 43.95-.19 4.64-.81 9.37-2.04 13.84-1.86 6.73-6.68 10.62-13.89 11.82-3.96-6.34-6.52-13.29-6.83-20.7-.3-7.22.6-14.49.73-21.74.16-9.49.04-18.98.11-28.47.04-5.02.05-10.06.45-15.05.33-4.13-1.24-6.98-4.79-8.74-1.22-.6-2.8-.96-4.12-.79-29.2 3.89-58.62 4.78-87.99 6.49-5.68.33-11.32 1.11-16.81-1.39-1.22-.55-3.02.29-4.56.28-6.9-.05-13.85.33-20.67-.42-5.68-.63-9.98-4.36-12.9-9.3-.52-.89-.44-2.47-.04-3.51 2.31-5.99 7.41-7.56 13.14-7.84 15.64-.76 31.29-1.25 46.91-2.2 15.51-.94 30.98-2.44 46.48-3.43 7.58-.49 15.2-.45 22.81-.53 7.5-.08 15-.14 22.5.05 2.49.06 3.61-.87 4.36-3.05 1.87-5.41 1.38-10.87.08-16.22-1.69-6.94-3.76-13.79-5.79-20.65-.28-.96-1.04-2-1.88-2.55-4.78-3.12-10.03-4.47-15.65-2.98-22.12 5.85-44.89 7.98-67.36 11.8-14.11 2.39-28.28 4.42-42.46 6.37-5.19.72-10.48 1.03-15.72 1.06-8.17.04-12.7-6.67-9.83-14.28.29-.76 1.28-1.54 2.11-1.78 18.16-5.34 36.62-7.88 55.63-7.28 6.54.21 13.2-1.71 19.74-3.02 10.85-2.18 21.57-5.08 32.47-6.86 8.8-1.43 17.8-1.7 26.72-2.37 4.83-.36 9.55-.7 13.23-4.55 2.98-3.11 4.73-6.54 3.86-10.88-.97-4.81-2-9.61-3.27-14.34-.29-1.08-1.44-2.23-2.5-2.77-6.91-3.5-14.27-3.33-21.65-2.11-6.51 1.08-12.92 2.82-19.46 3.53-5.5.6-11.14.44-16.67.06-7.06-.49-14.09-.94-21 .91-5.68 1.53-11.09-.29-16.6-.92-.11-.01-.22-.07-.33-.07-7.97-.17-14.35-3.51-19.52-9.5-1.04-1.21-2.67-2.06-4.18-2.69-5.06-2.1-6.54-1.67-9.82 2.67-6.91 9.13-15.88 15.99-24.87 22.87-6.75 5.16-13.28 10.62-19.88 15.98-.69.55-1.4 1.18-1.83 1.93-8.62 15.01-18.77 29.17-25.21 45.4-5.27 13.29-9.62 26.9-8.77 41.34.52 8.74 2.68 17.38 4.23 26.05.2 1.12.99 2.26 1.8 3.11 3.76 3.99 7.66 7.85 11.45 11.8 6.56 6.84 14.36 6.9 22.62 4.1 9-3.04 15.2-9.2 19.04-17.76 3.27-7.28 9.41-9.7 17.14-10.39.45 4.9.92 9.76 1.31 14.63.05.61-.2 1.34-.55 1.86-6.59 9.73-13.91 18.58-25.34 23.12-18.17 7.21-36.3 6.45-54.4.09-2.05-.72-3.59-2.92-5.36-4.43-.34-.29-.61-.67-.98-.92-8.18-5.65-10.62-14.12-11.77-23.37-2.24-18.04-3.89-36.14-.85-54.17 1.21-7.18 4.25-14.07 6.59-21.05 1.7-5.08 3.87-10.02 5.39-15.16 3.19-10.78 10.15-19.26 16.31-28.31 10.48-15.4 24.69-26.64 39.6-37.27 5.72-4.08 11.13-8.62 16.43-13.25 2.14-1.87 3.85-4.38 5.3-6.87 2.7-4.64 2.25-7.54-1.5-11.27-4.58-4.57-6.83-10.08-7.76-16.52z" fill="#010000"/></svg>