<svg enable-background="new 0 0 400 400" viewBox="0 0 400 400" xmlns="http://www.w3.org/2000/svg"><path d="m6.8 9.5c.6.3 1.3.7 2.1 1.1-.4.4-.7.8-.9 1.2-.7-.4-1.3-.8-1.8-1.1s-1.1-.6-1.6-.8c.2-.4.5-.8.7-1.2.4.2.8.5 1.5.8zm.9 6.9c-.3.6-.5 1.1-.7 1.7s-.4 1.1-.6 1.7c-.6-.4-1.1-.7-1.6-1 .7-1 1.2-1.8 1.5-2.4.3-.5.6-1.1.8-1.7.3-.6.5-1.2.8-1.8.3.3.8.6 1.3.8-.7 1.3-1.2 2.2-1.5 2.7zm.1-11c.4.3 1 .7 1.7 1.1-.5.2-.8.6-1.1 1.1-.5-.6-1-1-1.4-1.2s-.9-.6-1.5-.8c.2-.4.5-.7.9-1.1.5.3.9.6 1.4.9zm10.5 13.1c1 .4 2 .6 3.1.7-.4.4-.7.8-.8 1.3-.9-.2-1.9-.6-3-.9-1-.4-2-.9-2.8-1.6-.5.4-1.1.9-1.9 1.3s-1.9.9-3.3 1.2c-.1-.3-.5-.8-1.1-1.3 1 0 2.1-.3 3.2-.8 1.2-.5 1.9-1 2.3-1.7h-3.2c-.4 0-1 0-2 .1v-1.2c1 0 1.7.1 2 .1h3.3v-1h-2.3c-.2 0-.9 0-2 .1v-1.2c1.2 0 1.9.1 2 .1h2.3v-.8h-4.1c0-.7.1-1.2.1-1.6 0-.5 0-1.1-.1-1.8h4.1v-.7h-2.5c0-.6.1-1.1.1-1.6v-.6h-.5c-.4 0-1 0-1.8.1v-1.3c1.2 0 1.9.1 2.1.1h.2c0-.3 0-.8-.1-1.4h1.4c0 .6-.1 1-.1 1.4h3.4c0-.4 0-.8-.1-1.3h1.5c0 .4-.1.9-.1 1.3.7 0 1.5 0 2.5-.1v1.2c-1 0-1.8-.1-2.5-.1v.6c0 .3 0 .8.1 1.5h-2.5v.8h4.1c0 .7-.1 1.3-.1 1.8s0 1 .1 1.5h-4.1v.8h1.4c.8 0 1.8 0 2.9-.1v1.2c-1 0-1.9-.1-2.8-.1h-1.5v1h3.2c.3 0 1 0 2.1-.1v1.2c-1.1 0-1.8-.1-2.1-.1h-3.4l-.1.1c1.4 1 2.4 1.5 3.4 1.9zm-4.1-6.7v-1.3h-2.7v1.3zm2.2-4.1v-1.1h-3.4v1.1zm1.9 4.1v-1.3h-2.8v1.3z" fill="#fafbfa"/><path d="m37 6.7v2.3 5.4c1 0 1.8 0 2.2-.1v1.3c-.6 0-1.5-.1-2.5-.1h-11.9c-.7 0-1.3 0-1.8.1v-1.3c.5 0 1.1.1 2 .1v-5.2c0-1 0-1.8-.1-2.5h3.7c0-1.3 0-2.1-.1-2.5h1.5c0 .4-.1 1.3-.1 2.5h2.2c0-1.2 0-2.1-.1-2.6h1.5c0 .4-.1 1.3-.1 2.6zm-12.3 13.7c-.3-.4-.7-.8-1.1-1.1 1.1-.4 2.1-.9 2.9-1.3.8-.5 1.5-1 2.1-1.6.4.4.9.8 1.3 1.1-2.5 1.4-4.2 2.4-5.2 2.9zm3.9-10.1v-2.4h-2.2v2.4zm0 4.1v-2.9h-2.2v2.9zm3.5-4.1v-2.4h-2.2v2.4zm0 4.1v-2.9h-2.2v2.9zm.4 2.9 1-1.1c.6.3 1.4.7 2.5 1.3s2 1.1 2.7 1.5c-.4.4-.8.8-1.1 1.3-.8-.8-2.5-1.7-5.1-3zm3.1-7v-2.4h-2.1v2.4zm0 4.1v-2.9h-2.1v2.9z" fill="#fafbfa"/><g fill="#010103"><path d="m257.71 154.01c7.74 6.3 12.23 14.38 14.18 24 2.3 11.34.75 22.6-1.6 33.63-2.16 10.12-5.46 20-8.44 29.93-.44 1.48-1.67 2.91-2.88 3.95-8.11 6.9-17.57 10.46-28.17 11.21-7.76.55-15.19 2.35-22.21 5.88-2.43 1.22-4.09 2.86-4.51 5.39-1.05 6.38-2.4 12.78-2.66 19.22-.59 14.87-.64 29.76-.74 44.64-.01 1.22.97 2.92 2.01 3.6 11.13 7.25 23.67 10.29 36.64 11.94 10.96 1.39 22.04 2.14 32.86 4.27 9.57 1.89 17.58 7.08 22.74 15.83.17.29.35.57.48.88.08.2.07.43.13.82-7.97 4.02-16.6 5.6-25.41 6.38-21.18 1.88-41.95-1.42-62.62-5.41-22.08-4.27-43.78-9.82-64.85-17.96-10.67-4.13-16.81-12.09-22.49-20.99-11.27-17.66-16.69-37.23-18.26-57.93-1.2-15.83-2.1-31.69-2.91-47.55-.31-6.02-.07-12.08.15-18.12.03-.89 1.21-2.3 2.1-2.52 7.01-1.74 6.93-1.61 10.49 4.56 7.96 13.8 10.21 28.97 10.87 44.52.25 5.81-.15 11.66.28 17.45.32 4.18 1.37 8.33 2.39 12.42 1.84 7.37 3.91 14.68 5.85 22.02 4.11 15.52 21.02 27.29 36.32 25.26 1.7-.22 3.44-.32 3.25-2.8-1.26-16.92 4.38-32.92 6.44-49.4.85-6.78.09-13.81-.35-20.7-1.26-19.65-3.04-39.28-3.97-58.94-.34-7.19.7-14.53 1.88-21.67 1.29-7.85 7.35-10.75 14.87-7.7.87.35 1.76 1.36 2.07 2.26 3.38 9.83 6.69 19.67 9.87 29.56.45 1.39.35 3.09.07 4.57-1.42 7.47-3.05 14.89-4.43 22.37-.23 1.26.06 2.88.7 3.99 3.68 6.29 9.88 9.29 16.92 6.53 9.3-3.65 18.11-8.57 27.08-13.07.88-.44 1.46-1.64 1.99-2.6 5.84-10.56 8.31-21.84 7.49-33.9-.8-11.71 2.06-27.53 6.38-35.82z"/><path d="m186.74 24.34c15.2 1.5 30.13 3.12 44.28 9.17 16.18 6.91 24.37 19.17 25.3 36.59.65 12.19-1.2 24.09-4.07 35.86-.26 1.06-1.07 2.24-1.97 2.86-16.55 11.22-34.01 20.53-53.48 25.81-17.82 4.83-35.46 4.15-52.86-1.47-8.26-2.67-16.2-6.35-24.26-9.63-.9-.36-1.96-.89-2.43-1.66-6.9-11.28-12.32-23.25-9.69-36.74 2.02-10.36 5.88-20.35 8.65-30.58 1.54-5.66 4.87-8.69 10.46-10.72 14.79-5.4 29.21-11.82 44.02-17.17 4.98-1.82 10.68-1.61 16.05-2.32zm-14.38 94.25c17.61-.04 34-4.47 48.95-13.91.8-.51 1.59-1.32 1.97-2.17 2.62-5.9 5.65-11.69 7.58-17.82 4.17-13.25.76-25.08-10.3-32.73-13.81-9.56-29.17-13.14-45.77-8.07-3.84 1.17-7.62 2.58-11.33 4.11-11.48 4.73-22.81 9.79-32.73 17.44-1.28.99-2.39 2.68-2.79 4.24-3.53 14-.35 27 6.47 39.31.77 1.39 2.38 2.66 3.89 3.25 10.93 4.31 22.3 6.41 34.06 6.35z"/></g></svg>