<svg enable-background="new 0 0 400 400" viewBox="0 0 400 400" xmlns="http://www.w3.org/2000/svg"><path d="m236.86 129.66c0-8.72-.34-16.66.1-24.55.39-7.01 1.28-14.04 2.62-20.93 1.17-5.99 4.6-10.81 10.08-13.99 3.18 2.51 4.08 5.89 4.69 9.47.33 1.96.65 4.04 1.53 5.78 3.98 7.82 3.29 15.72 2.08 24.13-1.08 7.48-1.05 15.5.44 22.89 2.4 11.9 6.27 23.52 9.79 35.18 1.54 5.11 2.58 10.13 1.55 15.44-1.23 6.3-.21 12.44 1.11 18.61.93 4.33 1.62 8.67-1.34 12.86-.92 1.31-.21 3.85-.07 5.82.77 11.03 1.59 22.05 2.37 33.08.05.66.1 1.43-.18 1.99-3 6.01-1.48 11.7-.21 17.98 1.6 7.97.98 16.42 1.02 24.67.01 1.9-1.17 3.8-2.04 6.42 2.33 4.46 1.59 10.04.47 15.54-1.07 5.25-2.62 10.4-3.85 15.62-1.81 7.72-6.3 14.06-10.78 20.3-1.66 2.32-4.56 3.95-7.19 5.36-5.41 2.9-11.01 5.45-16.54 8.13-5.96 2.88-12.25 3.19-18.68 2.34-2.74-.36-5.24-.37-7.21 2.2-.57.75-2.17 1-3.3 1-14.09-.01-28.17-.2-42.26-.14-7.85.04-15.28-1.84-22.62-4.28-.99-.33-1.91-1.13-2.67-1.89-1.49-1.51-2.68-3.35-4.3-4.7-6.52-5.45-8.58-12.9-9.31-20.83-1.73-18.56-.4-36.86 5.19-54.75.92-2.93 2.51-4.93 5.27-6.47 7.42-4.14 14.65-8.61 21.96-12.94.48-.28 1-.86 1.44-.8 6.34.74 10.32-5.19 16.34-5.74 2.04-.19 4.09-2.48 5.76-4.17 2.19-2.21 4.38-3.66 7.64-2.79.77.2 1.84.01 2.54-.4 7.09-4.15 14.13-8.38 21.63-12.85-3.71-11.22-1.53-23.59-2.12-35.81-.04-.85-.2-1.89-.72-2.47-2.65-3.02-2.22-6.36-2.04-10.07.31-6.42-.11-12.92-.71-19.34-1.08-11.47-2.67-22.89-3.78-34.36-.55-5.69-2.82-10.02-7.91-12.76-6.53-3.52-10.94-8.77-14.27-15.46-2.28-4.59-6.17-8.37-9.25-12.58-1.22-1.68-2.54-3.43-3.2-5.36-2.98-8.66-5.82-17.38-8.52-26.13-.81-2.62-1.1-5.43-1.37-8.18-.61-6.11-.96-12.24-1.61-18.34-.52-4.93.16-9.54 2.38-13.99.89-1.78 2.04-2.13 3.77-1.66 4.1 1.12 6.54 3.92 8.39 7.6 3.85 7.66 4.68 16 6.11 24.26 2.31 13.33 7.96 25.3 16.19 36.03 1.06 1.38 2.53 2.46 4.57 4.41 0-2.08 0-3.23 0-4.37 0-14.55-.08-29.11.04-43.66.04-5.09 1.58-9.76 6.12-12.75 3.32-2.18 9.5.59 9.61 4.59.17 6.05 2.26 11.49 3.77 17.19 1.4 5.25.89 11.1.66 16.67-.37 8.97-.44 17.73 2.2 26.56 1.5 4.99.83 10.66.95 16.02.04 2.03.64 3.23 2.56 4.1 4.8 2.14 9.45 4.52 15.11 7.27zm-16.11 15.55c.26 5.84.41 10.73.71 15.61.65 10.6 1.27 21.2 2.11 31.79.97 12.14 2.69 24.24 3.04 36.39.17 6.09-1.4 12.43-3.23 18.34-1.94 6.29-4.96 12.29-12.24 14.42-.98.29-1.84 1.25-2.58 2.06-6.17 6.71-14.6 8.65-22.87 10.98-1.79.5-3.65.98-5.23 1.91-5.97 3.51-11.58 7.77-17.82 10.67-7.19 3.34-13.82 7.3-19.67 12.59-1 .9-1.83 2.27-2.17 3.57-2.85 10.95-3.38 22.15-2.37 33.31.46 5.11 2.52 10.1 4.1 15.07.35 1.1 1.59 2.45 2.66 2.72 10.52 2.69 21.1 4.97 32.07 4.77 4.53-.08 9.09.21 13.59.74 2.47.29 4.46.39 6.39-1.55.77-.77 2.39-.99 3.6-.95 1.77.06 3.54.49 5.27.93 3.11.8 5.83.82 7.96-2.21.6-.85 2.04-1.2 3.17-1.57 7.1-2.32 14.32-4.32 21.29-6.98 2.79-1.07 5.22-3.34 7.52-5.39 6.76-6.04 9.21-14.32 10.1-22.78 1.01-9.64.68-19.41 1.09-29.11.26-6.26-1.95-12.71 1.36-18.77.31-.56-.06-1.51-.15-2.28-.77-6.76-1.58-13.52-2.32-20.28-.64-5.87-1.22-11.74-1.76-17.62-.11-1.2-.24-2.53.13-3.63 2.36-7.09 2.2-14.27 1.06-21.52-.31-1.98-.47-4-.61-6-.99-13.71-1.64-27.45-5.39-40.83-1.22-4.34-3.51-7.26-7.63-8.51-6.8-2.07-13.7-3.83-21.18-5.89z" fill="#010100"/><g fill="#fcfafa"><path d="m342.2 3.2-6.3 9.2h6.1v1.2h-8.2v-.5l6.2-9.1h-5.7v-1.2h7.8v.4z"/><path d="m344 13.7v-10.9h3.1c1.6 0 3 .5 4.1 1.4 1.1 1 1.6 2.2 1.6 3.9s-.5 3-1.6 4-2.5 1.5-4.2 1.5h-3zm1.4-9.6v8.4h1.6c1.4 0 2.5-.4 3.2-1.1.8-.8 1.2-1.8 1.2-3.2s-.4-2.4-1.2-3.1-1.8-1-3.1-1z"/><path d="m356.3 2.8v10.9h-1.4v-10.9z"/><path d="m366.6 13.2c-.8.4-1.8.6-3 .6-1.6 0-2.8-.5-3.7-1.5s-1.4-2.3-1.4-3.9c0-1.7.5-3.2 1.6-4.2s2.4-1.6 4-1.6c1 0 1.9.1 2.6.4v1.5c-.8-.4-1.6-.6-2.6-.6-1.2 0-2.2.4-3 1.2s-1.1 1.9-1.1 3.3c0 1.3.4 2.3 1.1 3.1s1.6 1.1 2.8 1.1c1.1 0 2-.2 2.8-.7v1.3z"/><path d="m368.2 13c0-.3.1-.5.3-.6.2-.2.4-.3.6-.3.3 0 .5.1.7.3s.3.4.3.6-.1.5-.3.6c-.2.2-.4.3-.7.3s-.5-.1-.6-.3c-.2-.2-.3-.4-.3-.6z"/><path d="m381.1 13.7h-1.7l-5.5-8.4c-.2-.2-.3-.5-.4-.7 0 .2.1.8.1 1.5v7.6h-1.4v-10.9h1.8l5.3 8.3c.3.4.4.6.4.8 0-.3-.1-.8-.1-1.6v-7.5h1.4v10.9z"/><path d="m389.7 13.7h-5.8v-10.9h5.6v1.2h-4.2v3.5h3.9v1.2h-3.9v3.7h4.4z"/><path d="m398.4 4.1h-3.1v9.6h-1.4v-9.6h-3.1v-1.3h7.7v1.3z"/></g></svg>