<svg enable-background="new 0 0 400 400" viewBox="0 0 400 400" xmlns="http://www.w3.org/2000/svg"><path d="m6.8 9.5c.6.3 1.3.7 2.1 1.1-.4.4-.7.8-.9 1.2-.7-.4-1.3-.8-1.8-1.1s-1.1-.6-1.6-.8c.2-.4.5-.8.7-1.2.4.2.8.5 1.5.8zm.9 6.9c-.3.6-.5 1.1-.7 1.7s-.4 1.1-.6 1.7c-.6-.4-1.1-.7-1.6-1 .7-1 1.2-1.8 1.5-2.4.3-.5.6-1.1.8-1.7.3-.6.5-1.2.8-1.8.3.3.8.6 1.3.8-.7 1.3-1.2 2.2-1.5 2.7zm.1-11c.4.3 1 .7 1.7 1.1-.5.2-.8.6-1.1 1.1-.5-.6-1-1-1.4-1.2s-.9-.6-1.5-.8c.2-.4.5-.7.9-1.1.5.3.9.6 1.4.9zm10.5 13.1c1 .4 2 .6 3.1.7-.4.4-.7.8-.8 1.3-.9-.2-1.9-.6-3-.9-1-.4-2-.9-2.8-1.6-.5.4-1.1.9-1.9 1.3s-1.9.9-3.3 1.2c-.1-.3-.5-.8-1.1-1.3 1 0 2.1-.3 3.2-.8 1.2-.5 1.9-1 2.3-1.7h-3.2c-.4 0-1 0-2 .1v-1.2c1 0 1.7.1 2 .1h3.3v-1h-2.3c-.2 0-.9 0-2 .1v-1.2c1.2 0 1.9.1 2 .1h2.3v-.8h-4.1c0-.7.1-1.2.1-1.6 0-.5 0-1.1-.1-1.8h4.1v-.7h-2.5c0-.6.1-1.1.1-1.6v-.6h-.5c-.4 0-1 0-1.8.1v-1.3c1.2 0 1.9.1 2.1.1h.2c0-.3 0-.8-.1-1.4h1.4c0 .6-.1 1-.1 1.4h3.4c0-.4 0-.8-.1-1.3h1.5c0 .4-.1.9-.1 1.3.7 0 1.5 0 2.5-.1v1.2c-1 0-1.8-.1-2.5-.1v.6c0 .3 0 .8.1 1.5h-2.5v.8h4.1c0 .7-.1 1.3-.1 1.8s0 1 .1 1.5h-4.1v.8h1.4c.8 0 1.8 0 2.9-.1v1.2c-1 0-1.9-.1-2.8-.1h-1.5v1h3.2c.3 0 1 0 2.1-.1v1.2c-1.1 0-1.8-.1-2.1-.1h-3.4l-.1.1c1.4 1 2.4 1.5 3.4 1.9zm-4.1-6.7v-1.3h-2.7v1.3zm2.2-4.1v-1.1h-3.4v1.1zm1.9 4.1v-1.3h-2.8v1.3z" fill="#fafbfa"/><path d="m37 6.7v2.3 5.4c1 0 1.8 0 2.2-.1v1.3c-.6 0-1.5-.1-2.5-.1h-11.9c-.7 0-1.3 0-1.8.1v-1.3c.5 0 1.1.1 2 .1v-5.2c0-1 0-1.8-.1-2.5h3.7c0-1.3 0-2.1-.1-2.5h1.5c0 .4-.1 1.3-.1 2.5h2.2c0-1.2 0-2.1-.1-2.6h1.5c0 .4-.1 1.3-.1 2.6zm-12.3 13.7c-.3-.4-.7-.8-1.1-1.1 1.1-.4 2.1-.9 2.9-1.3.8-.5 1.5-1 2.1-1.6.4.4.9.8 1.3 1.1-2.5 1.4-4.2 2.4-5.2 2.9zm3.9-10.1v-2.4h-2.2v2.4zm0 4.1v-2.9h-2.2v2.9zm3.5-4.1v-2.4h-2.2v2.4zm0 4.1v-2.9h-2.2v2.9zm.4 2.9 1-1.1c.6.3 1.4.7 2.5 1.3s2 1.1 2.7 1.5c-.4.4-.8.8-1.1 1.3-.8-.8-2.5-1.7-5.1-3zm3.1-7v-2.4h-2.1v2.4zm0 4.1v-2.9h-2.1v2.9z" fill="#fafbfa"/><g fill="#010103"><path d="m180.28 192.56c16.99 16.11 21.63 34.9 17.18 56.81 3.43.71 7.35 1.61 11.31 2.26.92.15 2.21-.24 2.94-.84 5.94-4.89 12.6-8.46 19.8-11.08 13.17-4.8 23.22-13.15 29.53-25.84 1.04-2.09 2.18-4.25 3.74-5.94 1.93-2.1 4.11-4.22 6.61-5.5 5.45-2.78 7.25-1.85 9.15 3.81 1.92 5.72 3.79 11.46 5.83 17.14.67 1.86.59 3.21-.72 4.84-7.36 9.16-14.55 18.46-21.9 27.62-.99 1.24-2.47 2.25-3.93 2.94-18.71 8.79-37.45 17.53-56.23 26.17-2.15.99-2.87 2.12-2.91 4.49-.28 16.11-.77 32.22-1.09 48.33-.02 1.01.83 2.06 1.34 3.06.14.26.56.37.8.6 6.38 6.28 14.25 7.18 22.77 7.16 18.9-.04 37.81.57 56.71.76 6.7.07 13.41-.44 20.12-.48 5.31-.03 8.32 3.08 7.99 8.15-.06.92-1 2.3-1.83 2.58-11.31 3.88-22.67 7.61-34.03 11.34-.72.24-1.56.33-2.3.22-13.62-2.02-27.24-.27-40.86-.22-7.8.03-15.31 1.15-22.8 3.26-14.24 4.01-28.25 2.06-41.79-2.96-10.87-4.04-21.43-8.94-32.06-13.6-1.89-.83-3.64-2.18-5.18-3.59-5.94-5.44-11.49-11.36-17.72-16.43-7.17-5.84-11.19-13.44-14.42-21.76-5.98-15.38-8.73-31.43-9.78-47.79-1.31-20.37-1.07-40.72 1.89-60.97.19-1.33.58-2.64.62-3.97.05-2.17.8-3.41 3.1-3.97 2.27-.55 3.68-.12 5.08 1.79 3.95 5.39 6.37 11.25 6.35 18.02-.08 28.86 7.36 56.17 17.09 83.01 4.66 12.87 11.83 23.81 24.11 30.7 7.44 4.17 15.49 6.35 23.96 6.8.96.05 2.45-1.29 2.94-2.33 3.77-7.96 5.22-16.41 4.35-25.15-1.16-11.58-2.77-23.11-3.8-34.69-.52-5.88-.37-11.85-.24-17.77.43-19.36.77-38.73 5.81-57.63.72-2.82 1.47-5.61 2.47-9.35zm20.55 78.69c-1.35-2.22-2.49-4.1-3.92-6.46v9.09c1.47-.99 2.55-1.71 3.92-2.63z"/><path d="m175.66 25.77c16.28 1.1 32.74 1.74 48.21 7.49 7.98 2.97 15.36 7.58 22.91 11.66 1.19.64 1.96 2.28 2.62 3.61.59 1.18.8 2.55 1.09 3.86 2.82 12.55 7.67 24.23 14.61 35.08.89 1.39.94 3.53.86 5.29-.1 2.1-1.01 4.16-1.13 6.26-.48 8.64-4.73 14.83-11.45 20.07-6.24 4.88-11.76 10.68-17.73 15.93-1.16 1.02-2.89 1.93-4.38 1.95-23.24.41-46.08 4.51-68.95 7.97-10.54 1.6-20.7-.28-31.05-.52-8.47-.19-14.05-5.71-20.72-9.32-8.92-4.83-14.77-12.38-18.18-21.61-2.38-6.45-3.92-13.29-5.08-20.08-1.12-6.59-1.4-13.35-1.78-20.04-.08-1.47.6-3.32 1.56-4.45 5.29-6.23 10.3-12.82 16.34-18.24 4.82-4.32 10.62-8.05 16.62-10.42 11.41-4.5 23.37-7.56 34.9-11.78 6.83-2.46 13.61-3.38 20.73-2.71zm-.78 99.14c9.22-.84 18.49-1.4 27.66-2.59 10.84-1.41 20.7-4.85 26.06-15.62.34-.69.86-1.32 1.39-1.88 3.33-3.47 4.63-7.75 5.33-12.38 1.99-13.04.91-25.28-8.88-35.29-6.89-7.06-15.6-11.56-25.09-12.42-12.49-1.14-25.17-.75-37.73-.21-9.53.41-17.92 4.36-24.66 11.43-2.93 3.07-5.92 6.15-9.22 8.79-4.14 3.31-5.76 7.79-7 12.58-.39 1.51-.72 3.05-1.08 4.57-3 12.35-1.66 23.72 7.2 33.57 2.26 2.51 4.71 4.18 8.03 4.98 12.48 3 25.18 3.64 37.99 4.47z"/></g></svg>