<svg enable-background="new 0 0 400 400" viewBox="0 0 400 400" xmlns="http://www.w3.org/2000/svg"><path d="m374.8 390.4.4-.4c.7.5 1.3 1 1.8 1.4l-.5.5c-.5-.6-1.1-1.1-1.7-1.5zm1 7.3-.6-.3c.5-1.4 1.1-2.8 1.5-4.3.2.1.4.2.6.3-.5 1.3-1 2.8-1.5 4.3zm-.4-10.3.4-.4c.4.3 1 .8 1.7 1.4l-.5.5c-.4-.5-1-1-1.6-1.5zm2.5.3h1.7v-1h.6v1h3.5v-1h.6v1h1.8v.5h-1.8v1.4h-2v1h3.2v2h-3.2v.9h3.3v.5h-3.4c0 .3-.1.6-.1.9h4v.5h-3.7c.7.9 1.9 1.5 3.8 1.7-.1.2-.2.4-.3.6-2.1-.4-3.5-1.1-4-2.1-.4 1-1.8 1.7-4 2.2-.1-.2-.2-.4-.3-.6 2.1-.4 3.4-1 3.8-1.8h-3.4v-.5h3.6c.1-.3.1-.6.2-.9h-3.3v-.5h3.4c0-.3 0-.6 0-.9h-3.2v-2h3.3v-1h-2.1v-1.4h-1.7v-.5zm1.1 3.5v1h2.7c0-.3 0-.4 0-.4 0-.1 0-.2 0-.2 0-.1 0-.2 0-.3h-2.7zm1.2-3v.9h3.5v-.9zm4.7 3h-2.6v.6.4h2.6z" fill="#fbfcfa"/><path d="m393.6 386.7h.6v1.5h2.7v6.1h1.1v.6h-11v-.6h1.1v-6.1h2.7v-1.5h.6v1.5h2.1v-1.5zm-2.7 8.8.4.6c-1.2.6-2.5 1.3-3.8 1.9-.1-.2-.2-.4-.3-.6 1.2-.6 2.5-1.2 3.7-1.9zm-2.2-6.7v2.4h2.1v-2.4zm0 3v2.5h2.1v-2.5zm2.8-3v2.4h2.1v-2.4zm0 3v2.5h2.1v-2.5zm6 6.1c-1.4-.7-2.7-1.3-3.9-1.8l.3-.6c1.5.6 2.7 1.2 3.9 1.7zm-1.2-9.1h-2.1v2.4h2.1zm-2.1 3v2.5h2.1v-2.5z" fill="#fbfcfa"/><path d="m198.49 374.79c-5.5-15.51-11.53-30.53-16.1-45.98-3.92-13.25-6.76-26.9-8.94-40.56-.99-6.21.61-12.88 1.37-19.31.67-5.65.21-10.99-3.17-15.69-.68-.94-2.35-1.8-3.47-1.7-7.35.64-14.69 1.47-22 2.44-1.22.16-2.79 1.08-3.38 2.11-2.54 4.44-4.66 9.13-7.19 13.58-1.23 2.17-2.83 4.22-4.63 5.95-1.42 1.36-3.23 1.47-4.28-.85-3-6.62-8.6-9.13-15.41-10.14-5.55-.83-7.63-3.24-8.13-8.54 7.19-2.42 14.42-5.02 21.76-7.23 2.6-.78 3.71-2.12 3.8-4.63.24-6.37.5-12.74.71-19.1.21-6.3 2.87-10.15 7.68-11.13 2.04-.41 3.49-.23 3.83 2.28.21 1.54.73 3.05 1.22 4.53.67 2 .86 3.58-1.06 5.32-2.17 1.96-.91 6.94 1.87 8.75 4.51 2.94 9.54 3.58 14.49 1.97 8.39-2.72 16.94-5.3 24.78-9.21 5.62-2.8 11.45-6.4 14.22-12.73 3.14-7.16 8.26-11.98 15.76-14.24 3.01-.9 4.91-2.87 5.88-5.86.37-1.16 1.13-2.2 1.52-3.35 1.64-4.79 4.57-8.24 9.42-10.13 1.3-.51 2.5-1.86 3.25-3.12 3.08-5.19 6.06-10.44 8.86-15.79.72-1.37 1.07-3.19.89-4.73-.73-6.22-1.8-12.39-2.61-18.6-.28-2.19-1.06-3.49-3.47-3.55-1.21-.03-2.44-.37-3.61-.72-2.51-.75-4.57-.44-6.83 1.24-4.61 3.44-10.18 4.33-15.75 5.15-3.86.56-7.65 1.55-11.47 2.34-5.11 1.05-8.1 4.37-9.76 9.11-1.8 5.17-3.57 10.35-5.43 15.49-.82 2.26-1.83 4.45-3.11 7.52-2.49-5.74-4.61-10.62-6.72-15.5-2.13-4.93-4.66-6.47-10.02-5.98-1.45.13-2.89.34-4.31.63-5.3 1.08-8.29-.06-12.1-5.23 5.39-1.25 10.38-2.66 15.47-3.53 7.89-1.35 13.8-7.49 13.97-15.57.11-5.02-.49-10.04-.64-15.07-.08-2.82.27-5.58 2.99-7.26 5.81 4.74 9.06 10.51 8.43 18.11-.11 1.32-.01 2.71.29 4 .99 4.33 3.19 5.41 6.73 2.91 5.57-3.95 11.7-5.93 18.44-6.16 6.96-.24 12.64-3.62 18.66-6.65 5.57-2.8 7.42-6.66 7.84-12.48.6-8.24 1.92-16.44 3.09-24.63.34-2.42.05-4.01-2.6-4.8-6.2-1.85-12.39-3.74-18.49-5.9-4.49-1.59-8.89-3.5-13.2-5.54-1.41-.67-2.42-2.2-4.1-3.81 11.29-4.44 21.67-9.62 34.14-9.31-.89-5.9.31-11.46-2.86-16.61-2.26-3.67-1.94-7.7.19-11.8 6.54 4.36 11.99 9.76 16.66 15.91 3.25 4.27 6.45 8.61 9.22 13.2 3.53 5.84 8.26 10.21 14.17 13.45 6.35 3.47 11.92 7.81 15.84 14.44-1.85.29-3.46.53-5.06.78-2.5.39-4.53-.04-6.75-1.75-5.27-4.07-11.45-5.9-18.18-5.78-1.98.04-3.35.8-3.4 2.77-.11 4.2-.78 8.6.23 12.56 2.18 8.54 2.43 16.79-.96 24.96-3.1 7.46-2.28 15.21-1.59 22.83.6 6.7-.42 12.63-3.63 18.62-1.93 3.6-2.73 8.06-3.05 12.21-.74 9.32-5.88 15.98-12.25 21.97-3.82 3.59-7.8 7.13-12.13 10.06-7.02 4.75-12.16 11.22-17.19 17.76-1.62 2.11-1.98 5.38-2.37 8.2-.4 2.9-1.47 5.08-4.07 6.43-6.49 3.36-9.7 8.75-10.22 15.97-.13 1.87-.61 3.78-1.25 5.55-4.08 11.23-1.7 22.52-.44 33.81 2.13 19.23 4.07 38.49 6.61 57.68.69 5.2 3.2 10.16 4.93 15.22.72 2.11 1.8 4.11 2.34 6.26.99 3.94-.33 5.61-4.17 6.18zm49.83-304.1c-4.17 2.49-4.25 3.07-.86 6.63.31-2.4.54-4.19.86-6.63zm-4.95 55.99c-1.65-1.02-2.86-1.76-4.36-2.69-.66 1.71-1.23 3.2-2.1 5.48 2.48-1.07 4.23-1.82 6.46-2.79z" fill="#010101"/></svg>