<svg enable-background="new 0 0 400 400" viewBox="0 0 400 400" xmlns="http://www.w3.org/2000/svg"><path d="m179.33 245.8c-11.27 8.98-22.55 17.8-33.64 26.85-6.78 5.54-13.85 10.5-21.78 14.32-3.78 1.82-7.38 4.3-10.54 7.08-2.96 2.61-6.15 4.23-9.84 5.37-7.9 2.43-15.69 5.22-23.62 7.56-3.52 1.04-6.4 2.47-7.86 5.98-.96 2.32-2.69 2.77-5.08 2.58-6-.47-12.02-.68-18.03-.99.54-5.24 2.56-8.41 7.69-10.58 14.63-6.17 27.79-14.99 39.6-25.54 23.2-20.73 46.27-41.62 69-62.87 8.41-7.86 15.41-17.14 20.32-27.75.47-1.01.89-2.05 1.29-3.09 4.17-10.92 2.97-14.87-6.6-21.68-4.75-3.38-10.92-3.18-15.4.53-11.12 9.21-22.15 18.53-33.38 27.61-3.17 2.57-6.65 5-10.38 6.58-8.64 3.67-16.39 8.66-23.58 14.59-4.72 3.89-9.95 6.56-15.72 8.65-7.22 2.61-14.16 6.01-21.15 9.22-4.76 2.18-9.6 3.05-14.66 1.56-1.11-.33-2.79-1.26-2.85-2.02-.09-1.16.69-2.79 1.64-3.57 8.39-6.89 16.89-13.64 25.38-20.41 24.41-19.47 48.89-38.86 73.22-58.43 4.78-3.85 9.16-8.22 13.51-12.56 3.37-3.36 5.9-7.32 6.61-12.18.29-1.95-.03-3.28-2.37-3.97-14.78-4.38-29.46-9.13-44.31-13.27-3.26-.91-7.18-.39-10.59.37-12.52 2.8-20.55-3.56-27.23-12.82-6.03-8.36-8.25-18.21-10.78-28.35 2.33-.66 4.52-1.43 6.77-1.82.74-.13 1.91.52 2.44 1.17 3.78 4.64 8.44 6.77 14.57 6.93 3.76.1 7.69 1.54 11.16 3.18 24.56 11.58 50.07 20.35 76.48 26.57 2.84.67 4.86.31 6.81-2.42 7.14-10.02 14.84-19.65 21.9-29.72 6.03-8.6 9.05-18.19 7.02-28.87-.17-.87-.22-2.21-.76-2.5-5.78-3.02-2.09-6.96-1.15-10.62.05-.2.25-.35.61-.85 1.12.26 2.44.43 3.65.87 11.51 4.25 21.54 10.81 30.16 19.53 2.99 3.02 3.68 6.09 2.2 10.51-2.65 7.85-6.39 14.84-11.47 21.37-9.07 11.64-17.76 23.59-26.76 35.62.8.46 1.41.88 2.08 1.17 29.88 13.25 56.94 30.96 81.68 52.22 9.53 8.2 16.72 18.32 22.27 29.58 2.97 6.03 4.57 12.32 2.55 19.16-4.05.02-7.09-.74-9.73-4.45-12.14-17.06-27.94-30.45-44.54-42.94-14.16-10.65-28.86-20.5-45.64-26.56-6.89-2.49-14.18-3.9-21.3-5.76-2.44-.64-4.39-.01-6.29 1.91-4.16 4.21-8.6 8.15-13.3 12.55 1.96.83 3.64 1.52 5.3 2.26 10.56 4.66 20.51 10.18 26.74 20.42 1.78 2.93 3.1 6.2 4.2 9.46 1.75 5.18 2.99 10.53 4.74 15.71.95 2.81.8 5.28-.1 8.09-5.38 16.64-6.07 33.63-2.4 50.65 2.48 11.49 9.16 20.79 17.45 28.9 17.87 17.5 38.14 31.8 59.89 43.99 13.26 7.43 26.85 14.26 40.25 21.42 3.55 1.89 7.05 3.89 10.44 6.06 6.46 4.14 5.87 10.44 3.37 15.65-.47.99-2.37 1.81-3.61 1.82-5.99.04-12.28.88-17.91-.62-12.07-3.21-24.16-6.87-35.58-11.86-12.76-5.57-24.93-12.46-35.72-21.66-10.89-9.29-22.41-17.84-33.61-26.78-1.46-1.17-2.83-2.55-3.92-4.06-8.28-11.41-16.42-22.92-24.74-34.3-3.52-4.82-5.68-10.11-6.58-15.94-.89-5.67-2.87-10.6-8.49-13.81z" fill="#010104"/><g fill="#fcfbfa"><path d="m385.2 377.6.6-.7c.6.4 1.3.9 1.9 1.5l-.6.7c-.8-.5-1.4-1-1.9-1.5zm.3 7.1c.6-1.4 1.1-2.9 1.5-4.5.3.1.6.3.9.4-.5 1.4-1 2.9-1.5 4.4zm.2-10.1.6-.6c.7.5 1.3 1.1 1.9 1.6l-.7.7c-.6-.6-1.2-1.2-1.8-1.7zm8.4-.8h.8v.9h1.8v.7h-1.8v1.8h-.8v-.3h-1.2v.9h3.3v2.6h-.8v-.4h-2.5c0 .3 0 .6-.1.8h3.4v.7h-3.5c0 .3-.1.6-.1.8h4v.7h-3.5c.7.9 1.9 1.3 3.6 1.5-.2.2-.4.5-.6.9-1.9-.3-3.2-1.1-3.8-2.3-.5 1.1-1.8 2-3.9 2.4-.2-.3-.4-.5-.6-.8 1.9-.4 3.1-.9 3.6-1.7h-3.2v-.7h3.5c.1-.2.1-.5.2-.8h-3.3v-.7h3.4c0-.2 0-.5 0-.8h-2.4v.3h-.8v-2.6h3.3v-.9h-1.2v.3h-.8v-1.8h-1.8v-.7h1.8v-.9h.8v.9h3.2zm-4.4 5.5h2.4c0-.3 0-.6 0-.9h-2.4zm1.2-3.1h3.2v-.8h-3.2zm4.4 2.2h-2.4v.9h2.5v-.9z"/><path d="m389.2 385.8h.9v1.5h1.9v-1.5h.9v1.5h2.7v6h1.1v.9h-11.3v-.9h1.1v-6h2.7zm.2 8.7.5.8c-1.2.6-2.5 1.3-4 1.9-.2-.3-.3-.6-.6-.8 1.6-.6 3-1.3 4.1-1.9zm-2-4.3h1.9v-2.1h-1.9zm0 3.1h1.9v-2.2h-1.9zm2.7-3.1h1.9v-2.1h-1.9zm0 3.1h1.9v-2.2h-1.9zm2.4 1.3c1.4.6 2.7 1.2 4.1 1.8l-.5.9c-1.5-.7-2.8-1.4-4.1-1.9zm2.2-6.5h-1.9v2.1h1.9zm-1.9 5.2h1.9v-2.2h-1.9z"/></g></svg>