<svg enable-background="new 0 0 400 400" viewBox="0 0 400 400" xmlns="http://www.w3.org/2000/svg"><path d="m374.8 390.4.4-.4c.7.5 1.3 1 1.8 1.4l-.5.5c-.5-.6-1.1-1.1-1.7-1.5zm1 7.3-.6-.3c.5-1.4 1.1-2.8 1.5-4.3.2.1.4.2.6.3-.5 1.3-1 2.8-1.5 4.3zm-.4-10.3.4-.4c.4.3 1 .8 1.7 1.4l-.5.5c-.4-.5-1-1-1.6-1.5zm2.5.3h1.7v-1h.6v1h3.5v-1h.6v1h1.8v.5h-1.8v1.4h-2v1h3.2v2h-3.2v.9h3.3v.5h-3.4c0 .3-.1.6-.1.9h4v.5h-3.7c.7.9 1.9 1.5 3.8 1.7-.1.2-.2.4-.3.6-2.1-.4-3.5-1.1-4-2.1-.4 1-1.8 1.7-4 2.2-.1-.2-.2-.4-.3-.6 2.1-.4 3.4-1 3.8-1.8h-3.4v-.5h3.6c.1-.3.1-.6.2-.9h-3.3v-.5h3.4c0-.3 0-.6 0-.9h-3.2v-2h3.3v-1h-2.1v-1.4h-1.7v-.5zm1.1 3.5v1h2.7c0-.3 0-.4 0-.4 0-.1 0-.2 0-.2 0-.1 0-.2 0-.3h-2.7zm1.2-3v.9h3.5v-.9zm4.7 3h-2.6v.6.4h2.6z" fill="#fbfcfa"/><path d="m393.6 386.7h.6v1.5h2.7v6.1h1.1v.6h-11v-.6h1.1v-6.1h2.7v-1.5h.6v1.5h2.1v-1.5zm-2.7 8.8.4.6c-1.2.6-2.5 1.3-3.8 1.9-.1-.2-.2-.4-.3-.6 1.2-.6 2.5-1.2 3.7-1.9zm-2.2-6.7v2.4h2.1v-2.4zm0 3v2.5h2.1v-2.5zm2.8-3v2.4h2.1v-2.4zm0 3v2.5h2.1v-2.5zm6 6.1c-1.4-.7-2.7-1.3-3.9-1.8l.3-.6c1.5.6 2.7 1.2 3.9 1.7zm-1.2-9.1h-2.1v2.4h2.1zm-2.1 3v2.5h2.1v-2.5z" fill="#fbfcfa"/><path d="m101.74 140.96c1.13-1.7 2.19-3.45 3.39-5.1 4.64-6.39 11.36-9.85 18.3-13.03.96-.44 1.71-1.42 2.45-2.24 2.99-3.33 6.09-6.59 8.86-10.09 6.18-7.8 13.33-14.41 22.05-19.3.94-.53 1.92-1.99 1.92-3.01.01-10.28.03-20.57-.41-30.83-.28-6.68-1.6-13.32-1.9-20.01-.17-3.68.79-7.42 1.24-11.13.35-.05.7-.1 1.05-.15.76 1.88 1.8 3.7 2.23 5.66 2.81 12.63 7.24 24.89 8.32 37.91.41 4.9 2.31 6.26 6.51 3.94 6.83-3.77 13.4-8.05 19.84-12.46 11.06-7.57 21.84-15.53 32.95-23.01 2.75-1.85 6.33-2.48 9.6-3.7 1.04 3.4.28 5.67-2.15 7.78-4.14 3.59-8.22 7.29-11.94 11.31-3.6 3.9-7.74 6.22-12.42 6.19-.64 1.81-.85 3.28-1.61 4.37-2.44 3.48-5.2 6.74-7.56 10.27-.71 1.07-1.09 2.94-.67 4.09 2.16 5.87 4.62 11.63 6.99 17.42.25.61.52 1.57.97 1.69 4.38 1.19 8.27 4.51 13.37 2.63 10.69-3.95 21.42-7.81 32.23-11.42 2.9-.97 6.15-1.34 9.21-1.24 1.96.07 3.87 1.51 6.3 2.55-5.43 5.11-10.92 8.4-17.1 10.06-12.68 3.42-23.55 10.13-33.97 17.76-.9.66-1.58 2.4-1.44 3.53.78 6.32 2.1 12.59 2.72 18.92.32 3.27-.47 6.64-.66 9.97-.08 1.53-.09 3.11.18 4.62 2.84 15.91 3.07 31.76-.73 47.56-.1.42-.2.85-.41 1.79 1.36-.06 2.72.29 3.55-.22 13-7.94 27.53-12.25 41.58-17.7 5.31-2.06 10.6-4.17 15.91-6.22 1.35-.52 2.72-1.05 4.13-1.36 6.04-1.33 6.97-.61 6.37 5.47-.11 1.15-1.47 2.62-2.62 3.17-17.27 8.2-34.6 16.25-51.91 24.37-3.14 1.47-6.13 3.32-9.36 4.5-4.19 1.52-6.76 4.5-8.03 8.43-2.33 7.22-4.27 14.55-6.3 21.86-.67 2.43.02 4.42 1.87 6.33 4.2 4.34 8.17 8.91 12.15 13.46.68.77 1.54 2.05 1.32 2.81-.84 2.99.84 4.74 2.76 6.28 3.63 2.92 4.91 6.61 4.69 11.18-.14 2.77.1 5.62.61 8.35.95 5.08.34 9.42-2.27 14.25-3.56 6.57-5.89 13.74-6.55 21.59-.44 5.18-3.26 10.47-6.06 15.07-3.47 5.69-7.75 10.95-12.21 15.93-2.68 3-4.17 6.17-4.93 9.99-.26 1.29-1.38 3.1-2.44 3.37-1.35.35-3.56-.13-4.5-1.11-9.33-9.65-16.53-20.58-19.03-34.04-.84-4.5-1.34-9.08-1.69-13.65-.24-3.23-1.54-5.73-3.77-7.95-2.77-2.76-5.68-5.45-8.05-8.53-3.53-4.57-5.02-9.94-2.84-15.48 3.89-9.88 4.28-20.28 5.22-30.62.16-1.78.36-3.55.56-5.45 3.31-.79 5.84-.45 8.29 2.4 7.84 9.11 14.72 18.83 16.76 30.84 1.03 6.03.11 12.4.05 18.61-.01.55-.07 1.2-.37 1.62-6.33 8.88-5.03 18.47-2.39 28.04 1.21 4.38 3.19 8.55 4.98 12.75.39.92 1.33 1.81 2.24 2.27 4.01 2.06 4.67 1.89 7.37-1.87 8.87-12.36 13.18-26.54 16.2-41.19 1.78-8.62 2.81-17.53-.15-25.89-2.12-5.97-5.96-11.41-9.59-16.7-1.13-1.65-4.19-1.88-6.22-3.02-1.48-.84-3.18-1.85-3.97-3.25-4.08-7.21-9.65-13.01-15.73-18.55-8.94-8.15-17.13-17.01-23.76-27.25-4.07-6.27-6.18-13.07-6.99-20.38-.04-.33.01-.71-.12-1-4.86-10.12-1.2-20.15.39-30.17 1.77-11.15 4.02-22.23 5.62-33.41.76-5.28.58-10.71.66-16.07.04-2.53-1.11-4.47-3.64-5.48-2.5-1-3.67.8-5.07 2.2-8.79 8.84-19.45 14.98-30.21 20.99-3.7 2.07-7.15 4.6-10.94 6.47-2.46 1.21-5.33 1.59-8.02 2.35-.44-.59-.85-1.14-1.26-1.69zm104.59 1.8c-.32-8.94-1.33-17.65-4.93-25.92-.39-.9-.66-1.94-.63-2.91.3-7.97-3.13-15.01-5.66-22.21-1.69-4.8-7.42-6.02-11.59-3.04-1.55 1.1-2.97 2.47-4.66 3.27-5.43 2.58-6.72 7.4-7.04 12.69-.15 2.55-.07 5.17.35 7.68 1.24 7.55 1.85 15.07.69 22.69-2.86 18.9-5.66 37.8-8.37 56.72-.22 1.56.04 3.37.63 4.85 5.78 14.46 15.91 25.8 26.86 36.43 1.61 1.56 5.03 2.16 7.39 1.79 2.77-.43 2.36-3.62 2.56-5.93 1.07-12.14 2.21-24.28 3.16-36.43.48-6.11.91-12.25.86-18.37-.05-5.67-1.1-11.33-1.08-16.99.02-4.78.94-9.55 1.46-14.32zm-31.69 144.33c-2.04 5.71-2.74 11.44-.23 17.16.41.94 2.1 2.24 2.68 2.02 1.75-.66 4.62-.22 4.65-3.3.02-2.89.15-5.81-.17-8.68-.44-3.92-2.58-6.54-6.93-7.2z" fill="#010101"/></svg>