<svg enable-background="new 0 0 400 400" viewBox="0 0 400 400" xmlns="http://www.w3.org/2000/svg"><path d="m374.8 390.4.4-.4c.7.5 1.3 1 1.8 1.4l-.5.5c-.5-.6-1.1-1.1-1.7-1.5zm1 7.3-.6-.3c.5-1.4 1.1-2.8 1.5-4.3.2.1.4.2.6.3-.5 1.3-1 2.8-1.5 4.3zm-.4-10.3.4-.4c.4.3 1 .8 1.7 1.4l-.5.5c-.4-.5-1-1-1.6-1.5zm2.5.3h1.7v-1h.6v1h3.5v-1h.6v1h1.8v.5h-1.8v1.4h-2v1h3.2v2h-3.2v.9h3.3v.5h-3.4c0 .3-.1.6-.1.9h4v.5h-3.7c.7.9 1.9 1.5 3.8 1.7-.1.2-.2.4-.3.6-2.1-.4-3.5-1.1-4-2.1-.4 1-1.8 1.7-4 2.2-.1-.2-.2-.4-.3-.6 2.1-.4 3.4-1 3.8-1.8h-3.4v-.5h3.6c.1-.3.1-.6.2-.9h-3.3v-.5h3.4c0-.3 0-.6 0-.9h-3.2v-2h3.3v-1h-2.1v-1.4h-1.7v-.5zm1.1 3.5v1h2.7c0-.3 0-.4 0-.4 0-.1 0-.2 0-.2 0-.1 0-.2 0-.3h-2.7zm1.2-3v.9h3.5v-.9zm4.7 3h-2.6v.6.4h2.6z" fill="#fbfcfa"/><path d="m393.6 386.7h.6v1.5h2.7v6.1h1.1v.6h-11v-.6h1.1v-6.1h2.7v-1.5h.6v1.5h2.1v-1.5zm-2.7 8.8.4.6c-1.2.6-2.5 1.3-3.8 1.9-.1-.2-.2-.4-.3-.6 1.2-.6 2.5-1.2 3.7-1.9zm-2.2-6.7v2.4h2.1v-2.4zm0 3v2.5h2.1v-2.5zm2.8-3v2.4h2.1v-2.4zm0 3v2.5h2.1v-2.5zm6 6.1c-1.4-.7-2.7-1.3-3.9-1.8l.3-.6c1.5.6 2.7 1.2 3.9 1.7zm-1.2-9.1h-2.1v2.4h2.1zm-2.1 3v2.5h2.1v-2.5z" fill="#fbfcfa"/><path d="m101.84 301.68c7.03-2.69 13.91-5.94 21.12-7.97 14.08-3.96 28.32-7.34 42.55-10.77 20.1-4.85 32.66-17.4 37.51-37.3.94-3.85-.59-8.37-1.26-12.53-1.43-8.94-2.92-17.88-4.66-26.77-.34-1.74-1.56-3.74-2.99-4.77-16.58-11.96-33.01-10.63-47.43 3.81-5.81 5.82-11.85 11.26-19.4 14.74-10.85 5-21.76 4.92-33.44.28 4.85-3.86 9.1-7.61 13.72-10.84 15.49-10.84 31.15-21.42 46.67-32.23 16.93-11.79 25.85-28.31 28.24-48.59.08-.67.11-1.34.18-2.01.07-.66.14-1.31.3-2.73-5.81 0-11.47-.36-17.07.08-11.5.9-22.2 4.85-32.79 9.22-3.99 1.65-8.24 3.06-12.49 3.61-11.03 1.42-19.28-4.41-23.2-16.04 8.96-4.63 17.8-9.68 27.04-13.85 12.41-5.59 25.09-10.59 37.73-15.64 5.59-2.23 9.13-6.46 10.67-11.78 2.37-8.23 4.37-16.66 5.44-25.14 1.08-8.63.84-17.42 1.19-26.14.04-.98.11-1.96.18-3.35 8.38 3.39 16.47 6.72 22.16 13.66 1.86 2.27 2.9 5.51 3.46 8.47 1.64 8.66 2.7 17.42 4.34 26.08.34 1.81 1.87 3.8 3.41 4.93 26.69 19.43 53.48 38.73 80.24 58.06.72.52 1.41 1.07 2.51 1.92-6.43 2.79-12.88 3.27-19.11 1.77-7.12-1.72-14.17-4.09-20.9-6.99-8.61-3.71-16.78-8.66-26.21-10-4.23-.6-8.65-.06-12.96.25-1.93.14-2.93 1.4-2.91 3.69.11 15.67-.39 31.37.26 47.01.28 6.69 2.72 13.31 4.36 19.92 5.01 20.18 10 40.36 15.24 60.48 1.36 5.21-.12 10-1 14.88-2.03 11.22-4.7 22.32-6.53 33.56-1.58 9.68-.57 19.43 1.13 29.06.17.94.57 2.04 1.25 2.65 4.5 4.01 8.91 8.15 13.73 11.75 5.36 4 11.55 4.4 17.94 2.68 6.7-1.8 12.83-4.43 17.21-10.23 2.01-2.67 4.69-4.83 6.75-7.47 4.73-6.09 11.17-7.71 18.69-7.67.09 1.03.24 1.99.25 2.95.02 9.52.1 19.03-.08 28.55-.03 1.55-.89 3.47-2.01 4.55-8.03 7.73-17.04 13.91-28.41 15.37-10.32 1.32-20.14-1.37-30.02-4.07-11.42-3.13-19.76-9.69-25.99-19.63-4.31-6.87-7.67-14.05-10.54-21.63-3.07-8.1-7.13-15.83-10.73-23.74-1.11-2.44-2.87-3.16-5.57-3.15-28 .1-55.99.06-83.99.06-1.19 0-2.37 0-3.56 0-.08-.32-.15-.66-.22-1.01z" fill="#010106"/></svg>