<svg enable-background="new 0 0 400 400" viewBox="0 0 400 400" xmlns="http://www.w3.org/2000/svg"><g fill="#fbfafa"><path d="m37.59 393.81c-.92.31-1.52.05-2-.78-.7-1.2-1.52-2.34-2.47-3.78v4.59c-.55.03-.95.05-1.41.07-.03-.37-.06-.64-.06-.91 0-1.91 0-3.81 0-5.7 1.13-.41 1.77-.03 2.29.91.62 1.11 1.38 2.14 2.31 3.19v-4.2h1.35v6.61z"/><path d="m12.94 393.88v-6.75c1.9.19 3.93-.54 5.37 1.29.8 1.01.78 2.88.03 3.97-1.37 1.97-3.4 1.51-5.4 1.49m1.45-1.22c2.04.12 2.92-.58 2.89-2.21-.03-1.51-.98-2.19-2.89-2z"/><path d="m11.81 393.87h-5.49c.68-2.18 2.47-3.48 3.51-5.45h-3.08v-1.21h5.29c-.71 2.13-2.44 3.48-3.47 5.51.86 0 1.63.04 2.39-.01.79-.05 1.14.21.85 1.16"/><path d="m39.33 393.86v-6.61h3.7v1.07h-2.22v1.52c.68.04 1.34.09 2.07.13v1.07c-.72.05-1.38.09-2.1.14v1.48h2.4v1.19h-3.85z"/><path d="m27.71 388.56c-1.15-.3-2.46-.61-3.1.64-.37.73-.41 1.93-.06 2.67.63 1.35 1.99.93 3.17.68.35.94-.01 1.32-.93 1.46-1.62.25-3.05-.27-3.76-1.48-.73-1.24-.6-3.03.31-4.17.88-1.11 2.71-1.7 4-1.16.32.13.44.74.65 1.12-.1.08-.19.16-.28.24"/><path d="m49.15 387.24v1.07c-.59.02-1.17.05-1.87.08v5.44h-1.48v-5.44h-1.85c-.05-.4-.08-.73-.13-1.15z"/><path d="m20.06 387.21h1.33v6.62h-1.33z"/><path d="m30.68 393.25c-.49.38-.8.79-1.05.76-.32-.05-.6-.45-.9-.7.26-.24.51-.64.8-.67.29-.04.62.3 1.15.61"/></g><path d="m150.94 251.79c1.2-.14 2.4-.28 4.12-.49.41 8.77 3.68 17.03 2.08 26.12-3.08 17.45-3.93 35.09-2.38 53.06-.77.16-1.9.06-2.37.57-.72.79-1.68 2.41-1.35 2.95 2.99 4.86 3.19 10.16 1.76 15.27-2.22 7.92-5.16 15.63-7.85 23.42-.23.68-.86 1.22-2.39 1.95-1.02-4.23-2.25-8.43-2.99-12.71-.67-3.89-1.32-7.8 1.12-11.64 1.02-1.6.65-4.12.8-6.23.33-4.79.59-9.58.86-14.37.03-.61.15-1.52-.19-1.81-3.53-2.98-3.47-7.1-3.53-11.11-.05-3.01-.82-6.87.69-8.86 4.16-5.5.78-10.73.81-16.07.06-11.06.29-22.12.72-33.18.07-1.85 1.49-3.66 2.46-5.87-5.01-.98-4.55-4.48-4.04-8.21.34-2.53.47-5.18.15-7.7-1.42-11.13 3.25-21.3 4.89-31.95.1-.64 1.32-1.45 2.11-1.59 11.99-2.03 23.95-4.33 36.01-5.79 9.54-1.16 14.11-5.19 11.98-14-2.96-12.23-1.92-24.46-1.93-36.73-.01-6.27.21-12.54.15-18.8-.03-3.53-.3-7 4.09-8.87-4-3.26-3.82-7.08-2.67-11.01.99-3.39 2.38-6.67 3.16-10.1.43-1.88-.14-3.97-.08-5.96.1-3.29-.07-6.67.61-9.85 1.74-8.08 2.74-16.08.49-24.22-.47-1.7-.66-3.54-.62-5.31.02-1.06.55-2.25 1.21-3.12.79-1.04 1.95-1.79 2.98-2.68-.87-1.27-1.62-2.38-2.71-3.99 1.36-.95 2.79-1.94 4.22-2.94-3.86-.96-4.73-3.05-4.61-6.17.2-5.09 1.08-7.24 4.37-7.99.93-.21 2.69.69 3.2 1.58 1.47 2.6 2.63 5.4 3.67 8.21 1.05 2.82 1.7 5.79 2.72 8.62 1.51 4.19 3.92 7.73 7.67 10.33 2.29 1.59 4.28 3.64 6.61 5.16 7.24 4.7 12.16 11.38 16.63 18.56.68 1.09 2.37 2.21 3.58 2.19 4.65-.08 8.02 2.04 10.46 5.61 2.04 2.98 3.56 6.3 5.31 9.48-.26.28-.52.56-.78.84-1.48-.56-3.04-.98-4.43-1.72-4.42-2.33-8.78-4.78-13.18-7.18-2.35-1.28-4.87-2.32-7.05-3.84-4-2.78-7.75-5.88-7.2-11.6-5.59 1.24-8.43-3.76-13.03-4.84-3.57 3.85-4.53 8.79-4.96 13.78-.62 7.19-2.61 14.37-.36 21.63.21.67.01 1.58-.26 2.28-3.83 10.03-3.87 20.57-4.2 31.07-.1 3.02-.3 6.05-.21 9.06.18 6.08-.94 11.69-4.72 16.69-.67.88-.42 2.56-.36 3.87.09 1.99.91 4.1.49 5.95-1.5 6.53-3.4 12.97-5.3 19.99 2.07.45 4.06 1.23 6.07 1.26 4.91.07 9.83-.22 14.74-.32.95-.02 2.02-.05 2.84.33 2.08.98 4.06 2.19 6.3 3.44-1.45 1.93-.34 3.77 1.08 6.11 1.63 2.67 2.54 5.96 3.03 9.1.67 4.29.41 8.73.99 13.04.45 3.36 1.6 6.63 2.41 9.95.31 1.27.98 2.69.69 3.83-1.93 7.45.19 14.64 1.09 21.92 1.26 10.19 2.45 20.38 3.53 30.59.21 1.97-.4 4.02-.31 6.02.06 1.36.64 2.7 1.05 4.04.92 3.03 2.39 6 2.71 9.08.55 5.32.41 10.72.5 16.08.01.61-.1 1.45-.49 1.79-2.85 2.46-2.97 5.85-3.36 9.18-.4 3.44-.63 6.92-1.39 10.28-.52 2.3-1.84 4.42-3 7.09-2.84-6.06-2.76-7.87.3-9.64-3.05-2.88-6.04-5.7-9.2-8.68 4.56-7.06 2.98-14.62 1.28-21.99-1.1-4.77-1.47-9.41-.99-14.25.18-1.78-.54-3.65-.91-5.47-.68-3.33-1.96-6.64-2.01-9.98-.23-14.1-.09-28.21-.1-42.31 0-1.11.29-2.46-.21-3.31-4.57-7.65-2.78-15.79-2.27-23.91.21-3.26-.6-6.63-1.26-9.88-.38-1.87-1.69-2.79-3.95-2.61-7.36.58-14.74.89-22.1 1.34-.75.05-1.68.12-2.18.58-3.27 2.96-7.21 2.95-11.3 3.24-3.72.26-7.48 1.25-11 2.55-4.44 1.64-8.76 3.13-13.63 2.76-3.37-.26-6.57 5.6-4.76 8.46 4.57 7.23 4.14 15.12 3.06 23.07-.12.92-1.22 1.69-1.81 2.57-.93 1.37-1.81 2.77-2.72 4.16.26.24.56.5.85.75zm-.39 92.91c-4.85 2.92-4.99 3.2-2.67 6.52.79-2.37 5.96-2.04 2.67-6.52zm51.67-148.04c-.17-.35-.34-.71-.52-1.06-1.35-.08-2.7-.16-4.38-.26.31 1.7.54 2.93.91 4.99 1.68-1.54 2.83-2.6 3.99-3.67z" fill="#010000"/><path d="m279.56 207.06c4.71 1.42 6.76 4.77 7.75 9.01 1.55 6.63 2.81 13.33 4.68 19.87 1.58 5.55 2.44 11.06 2.29 16.83-.21 7.83-.05 15.67-.05 23.5 0 5.75 0 5.75-6.7 8.16-.95-4.04-2.05-7.96-2.74-11.95-.38-2.17-.31-4.5-.01-6.69 1.02-7.64-1.27-14.54-3.38-21.8-3.46-11.9-4.6-24.3-1.84-36.93z" fill="#010000"/><path d="m93.34 230.83c2.11 1.76 3.3 3.5 2.62 6.24-.26 1.03-.02 2.72.68 3.39 4.61 4.4 5.19 10.28 4.94 15.84-.37 8.2-1.8 16.37-3.15 24.49-.29 1.73-2.16 3.2-3.69 5.32-4.04-6.11-6.75-12.39-5.97-18.83.38-3.14.55-5.55-.82-8.21-.05-.1-.08-.22-.08-.32.24-9.57.11-19.21 5.47-27.92z" fill="#010000"/><path d="m189.2 292.85c1.15 1.85 2.58 3.6 3.35 5.6.57 1.49.6 3.37.29 4.97-.84 4.46-.31 8.57 2.02 12.5.41.7.37 1.72.37 2.6.03 7.27.08 14.53-.05 21.8-.02 1.13-.88 2.25-1.35 3.37-1.1-.49-2.3-.84-3.29-1.5-3.93-2.62-5.59-6.49-5.83-11.09-.64-12.23.22-24.33 2.99-36.28.12-.51.32-.99.48-1.49.35-.16.68-.32 1.02-.48z" fill="#010000"/><path d="m296.78 346.02c.81-1.98 1.1-4.53 2.21-4.95 1.4-.54 3.69.28 5.21 1.18 3.21 1.9 4.47 8.13 1.8 10.34-1.1.91-4.49.21-6.02-.9-1.58-1.15-2.15-3.67-3.2-5.67z" fill="#010000"/></svg>