<svg enable-background="new 0 0 400 400" viewBox="0 0 400 400" xmlns="http://www.w3.org/2000/svg"><g fill="#fbfafa"><path d="m37.59 393.81c-.92.31-1.52.05-2-.78-.7-1.2-1.52-2.34-2.47-3.78v4.59c-.55.03-.95.05-1.41.07-.03-.37-.06-.64-.06-.91 0-1.91 0-3.81 0-5.7 1.13-.41 1.77-.03 2.29.91.62 1.11 1.38 2.14 2.31 3.19v-4.2h1.35v6.61z"/><path d="m12.94 393.88v-6.75c1.9.19 3.93-.54 5.37 1.29.8 1.01.78 2.88.03 3.97-1.37 1.97-3.4 1.51-5.4 1.49m1.45-1.22c2.04.12 2.92-.58 2.89-2.21-.03-1.51-.98-2.19-2.89-2z"/><path d="m11.81 393.87h-5.49c.68-2.18 2.47-3.48 3.51-5.45h-3.08v-1.21h5.29c-.71 2.13-2.44 3.48-3.47 5.51.86 0 1.63.04 2.39-.01.79-.05 1.14.21.85 1.16"/><path d="m39.33 393.86v-6.61h3.7v1.07h-2.22v1.52c.68.04 1.34.09 2.07.13v1.07c-.72.05-1.38.09-2.1.14v1.48h2.4v1.19h-3.85z"/><path d="m27.71 388.56c-1.15-.3-2.46-.61-3.1.64-.37.73-.41 1.93-.06 2.67.63 1.35 1.99.93 3.17.68.35.94-.01 1.32-.93 1.46-1.62.25-3.05-.27-3.76-1.48-.73-1.24-.6-3.03.31-4.17.88-1.11 2.71-1.7 4-1.16.32.13.44.74.65 1.12-.1.08-.19.16-.28.24"/><path d="m49.15 387.24v1.07c-.59.02-1.17.05-1.87.08v5.44h-1.48v-5.44h-1.85c-.05-.4-.08-.73-.13-1.15z"/><path d="m20.06 387.21h1.33v6.62h-1.33z"/><path d="m30.68 393.25c-.49.38-.8.79-1.05.76-.32-.05-.6-.45-.9-.7.26-.24.51-.64.8-.67.29-.04.62.3 1.15.61"/></g><path d="m182.35 374.52c-4.18-5.64-5.24-11.54-5.79-17.53-.71-7.88-2.64-15.38-5.93-22.58-.77-1.68-1.44-3.65-1.32-5.43.41-6.18-.82-11.98-3.19-17.62-7.07-16.81-10.84-34.48-13.49-52.43-.16-1.05.49-2.46 1.21-3.35.96-1.18 2.36-2.01 3.76-3.15-1.25-.74-2.29-1.3-3.29-1.94-3.88-2.51-4.97-5.58-3.83-10.09.79-3.13 1.89-6.32 1.89-9.48 0-2.84-1.29-5.69-2.07-8.52-.46-1.67-1.16-3.29-1.51-4.98-.36-1.74-.3-3.57-.62-5.32-1.16-6.36-7.08-9.27-12.91-6.43-.7.34-1.41.65-2.98 1.38 1.69-4.88 3.12-9.1 4.65-13.29.15-.42.84-.69 1.34-.91 6.69-3.01 11.76-8 16.69-13.26 3.5-3.75 7.22-7.36 11.25-10.52 2.45-1.92 5.7-2.81 8.51-4.29 1.08-.57 2.35-1.3 2.87-2.3 2.86-5.56 5.6-11.19 8.15-16.9.46-1.03-.06-2.57-.32-3.84-.26-1.29-1.31-2.66-1.06-3.77.97-4.24-.37-7.88-2.03-11.63-.75-1.68-.99-3.66-1.12-5.53-1.27-18.29-2.68-36.57-3.61-54.88-.51-10.18-4.18-19.35-7.52-28.71-1.36-3.8-2.05-7.85-3.04-11.78.39-.35.77-.69 1.16-1.04 5.72 2.04 11.66 3.63 17.12 6.21 18.48 8.74 35.16 20.42 51.67 32.35 1.17.84 2.36 1.92 3.69 2.23 9.09 2.12 14.16 9.74 21.1 14.71-2.6 4.38-6.01 6.07-10.53 4.15-9.62-4.1-19.23-8.25-28.75-12.58-9.54-4.34-18.97-8.94-28.46-13.39-.48-.22-1.07-.21-1.8-.34-1.62 7.34-1.09 14.53-.02 21.7 1.08 7.29 2.93 14.57.98 21.93-.84 3.18-3.39 6.18-3.35 9.24.04 3.09 2.7 6.04 3.53 9.23.95 3.65 1.08 7.51 1.74 11.25.28 1.62.78 3.29 1.56 4.73 1.71 3.19 3.82 3.56 6.75 1.46 5.69-4.08 11.78-7.24 19.72-8.15 0 3.53.73 7.09-.15 10.2-1.9 6.71-2.35 13.15.44 19.64 5.42 12.6 3.61 25.92 3.94 39.04.36 14.42.99 28.83 1.5 43.24.05 1.45.18 2.91.05 4.35-.63 7.08-.37 13.99 2.46 20.72.96 2.29 1.27 5.06 1.13 7.57-.65 12.15-1.54 24.29-2.41 36.42-.09 1.31-.65 2.59-1.02 3.88-.11.38-.36.71-.86 1.69-2.2-7.45-7.19-13.89-2.86-20.66-1.38-2.98-2.72-5.37-3.62-7.9-1.82-5.15-4.07-10.27-4.93-15.6-1.42-8.81-1.62-17.81-2.86-26.66-.56-4-2.54-7.79-3.58-11.75-.64-2.42-1.16-5.03-.94-7.49.44-4.79.32-5.37-4.73-7.58-.47.8-1.01 1.6-1.44 2.46-2.96 5.89-6.01 11.74-8.81 17.71-2.17 4.62-4.92 8.6-8.88 11.97-1.77 1.5-2.26 4.44-3.52 6.61-.79 1.37-1.66 3.17-2.95 3.7-6.81 2.8-9.92 9.04-14.41 14.43 6.17 4 6.79 10.16 7.79 16.49 1.41 8.91 3.86 17.65 5.56 26.53 3.13 16.37 6.11 32.79 5.13 49.59-.09 2.05-.48 4.08-.83 6.79zm23.97-217.95c-.96.68-1.75 1.3-2.59 1.84-8.08 5.27-14.79 12.8-24.73 15.03-.31.07-.63.27-.85.5-6.69 6.72-13.37 13.46-19.4 19.53 1.83 4.46 3.99 8.29 4.92 12.4.92 4.07.91 8.44.77 12.65-.32 9.39-1.35 18.77 1.14 28.04 1.19 4.43 2.56 5.05 6.51 2.62 1.21-.75 2.25-1.82 3.24-2.87 1.6-1.7 3.09-3.51 4.75-5.41.97.55 1.83 1.45 2.67 1.43 1.47-.03 2.92-.63 4.38-.99-.83-.99-1.52-2.2-2.54-2.91-.8-.56-2.01-.51-3.25-.78 2.88-6.83 5.6-13.44 8.48-19.98.44-1 1.69-1.64 2.52-2.48 1.65-1.68 3.6-3.2 4.83-5.15 1.48-2.33 2.44-5.01 3.44-7.62 1.94-5.07 4.42-9.75 8.5-13.49.8-.74 1.26-2.08 1.45-3.22.76-4.41 1.32-8.85 2-13.27.98-6.38-.58-11.75-6.24-15.87zm-52.66 36.08c-3.01-.9-4.84-1.45-7.11-2.13.84 1.32 1.71 2.22 2.03 3.28.35 1.17.18 2.49.24 3.74.42.16.84.33 1.26.49 1.11-1.67 2.23-3.35 3.58-5.38z" fill="#010000"/></svg>