<svg enable-background="new 0 0 400 400" viewBox="0 0 400 400" xmlns="http://www.w3.org/2000/svg"><path d="m166.27 197.64c-2.66 3.31-5.2 6.69-7.98 9.86-2.64 3-5.23 6.16-8.35 8.6-16.05 12.54-32.2 24.95-48.46 37.22-5.79 4.37-11.87 8.41-18.09 12.15-2.79 1.68-6.21 2.37-9.41 3.29-1.94.56-3.26-.09-3.85-2.41-1.66-6.52-1.22-12.04 3.58-17.67 8.38-9.85 19.15-16.38 29.49-23.58 11.11-7.73 22.33-15.31 33.44-23.04 1.51-1.05 2.94-2.47 3.9-4.03 6-9.82 12.98-18.72 22.66-25.24 1.19-.8 2.22-1.89 3.18-2.98 1.18-1.34 2.15-2.85 3.3-4.22 4.45-5.27 2.47-11.24 1.73-17.01-.11-.85-1.67-2.06-2.64-2.14-3.05-.26-6.4-.83-9.18.09-13.56 4.47-27.63 3.63-41.52 4.61-1.03.07-2.2-.31-3.14-.8-4.55-2.39-9.08-4.83-13.54-7.39-.85-.49-1.45-1.53-1.98-2.42-.88-1.47-1.69-3-2.37-4.57-.48-1.12-.7-2.35-1.02-3.54-.02-.09.07-.21.11-.31 1.05-2.86 1.26-6.82 3.31-8.37 4.67-3.57 10.58-4.73 16.55-4.27 4.12.32 8.2 1.31 12.32 1.43 5.31.16 10.64-.14 15.96-.45 10.26-.6 20.52-1.29 30.77-2.08 3.44-.27 7.06-.38 10.22-1.58 7.16-2.73 14.63-2.98 22.07-3.74 1.33-.14 2.77-.16 3.92-.73 1.71-.84 4.5-2.1 4.52-3.22.04-2.18-.91-5.21-2.53-6.43-5.7-4.29-11.88-7.95-17.85-11.89-6.34-4.18-12.77-8.23-18.92-12.68-3.56-2.58-3.47-7.72-.15-10.65 1.58-1.4 3.38-2.58 5.19-3.67 2.3-1.39 4.5-1.18 6.92.23 2.37 1.38 5.12 2.1 7.69 3.13 2.85 1.13 5.94 1.88 8.5 3.47 12.64 7.85 25.1 15.97 37.71 23.87 1.5.94 3.5 1.6 5.25 1.57 12.74-.24 25.49-.43 38.19-1.23 4.6-.29 9.53-1.38 13.53-3.55 6.01-3.27 10.07-8.95 9.96-16.03-.08-5.61-1.69-11.21-2.79-16.77-.19-.95-1.12-1.95-1.97-2.55-5.49-3.88-11.23-6.43-18.1-3.4-4.33 1.91-8.92 2.07-13.48.81-7.62-2.09-15.41-2.26-23.24-2.53-4.42-.15-8.87-1.11-13.19-2.18-8.44-2.09-13.29-10.51-11.1-18.97.2-.77 1.16-1.46 1.92-1.96 5.65-3.69 11.82-2.75 17.86-1.6 7.46 1.43 14.86 3.21 22.24 4.99 10.36 2.49 20.88 1.93 31.39 2.14 4.04.08 8.13 1.21 12.06 2.35 4.07 1.17 7.06 3.99 8.24 8.14 1.86 6.54 4.17 13.08 4.88 19.78.53 5.03-.72 10.4-1.91 15.45-3.66 15.54-3.68 15.64-15.5 26.4-3.23 2.94-7.21 5.27-11.18 7.15-5.74 2.72-11.8 4.77-17.72 7.12-3.22 1.28-4.62 3.74-3.99 7.1.2 1.09.42 2.27 1 3.18 5.38 8.49 10.38 17.28 16.4 25.3 6.66 8.88 10.39 18.72 12.22 29.41 2.55 14.87 5.01 29.77 7.19 44.7 2.48 17 3.44 34.04.51 51.14-.47 2.75-1.26 4.57-3.95 5.46-1.15.38-2.21 1.06-4.14 2.01-.48-2.15-1.07-4.04-1.3-5.98-.27-2.31-.11-4.67-.36-6.98-.72-6.54-2.11-13.05-2.26-19.59-.48-21.16-5.62-41.34-11.91-61.35-2.07-6.58-4.97-12.62-9.05-18.17-7.74-10.54-15.35-21.17-23.07-31.73-.92-1.25-2.21-2.22-3.24-3.4-5.79-6.59-12.91-7.83-21.01-5.35-6.51 2-13.1 3.77-19.55 5.94-3.28 1.1-4.59 4.19-5.07 7.32-.5 3.27.53 6.13 3.62 8.01 10.98 6.69 22.02 13.3 32.86 20.22 9.15 5.84 15.6 14.52 19.59 24.16 2.98 7.2 3.08 15.67 4.04 23.63 1.45 11.97 1.31 23.9-2.27 35.57-1.73 5.63-2.82 6.3-8.72 5.48-1.09-.15-2.17-.28-3.57-.46 1.05-6.48 1.81-12.8 3.16-18.99 1.04-4.78.63-9.26-.79-13.82-6.65-21.27-19.95-37.79-36.99-51.55-2.02-1.63-5.04-2.26-7.71-2.78-6.36-1.26-7.72 3.1-7.71 7.25.03 7.83.44 15.65.39 23.48-.02 3.52-.45 7.13-1.27 10.55-2.01 8.38-1.35 16.7.71 24.84.77 3.05 2.88 6.05 5.11 8.38 6.03 6.3 12.5 12.18 18.68 18.35 1.38 1.37 2.56 3.11 3.33 4.9 7.1 16.45 13.39 33.19 16.57 50.89 1.26 7.02 1.56 14.21 2.14 21.34.07.81-.88 2.39-1.38 2.41-1.2.03-3.06-.31-3.53-1.14-2.65-4.65-5.15-9.41-7.34-14.29-3.43-7.64-6.76-15.34-9.77-23.15-1.63-4.24-2.67-8.74-3.67-13.19-1.8-7.98-9.75-14.79-17.81-14.92-.59-.01-1.3.32-1.76.72-2.43 2.15-4.89 4.28-7.13 6.62-.76.79-1.14 2.15-1.29 3.3-1.38 11.19-3.44 22.37-1.25 33.7.12.64.18 1.38-.02 1.99-4.1 12.63-8.14 25.29-12.48 37.84-.75 2.18-2.55 4.25-4.36 5.76-2.67 2.23-4.16 1.67-5.03-1.62-.53-2.01-.84-4.21-.66-6.26.93-10.35 2.25-20.67 3.06-31.02.96-12.25 1.9-24.53 2.17-36.81.19-8.59-.71-17.2-1.21-25.8-.25-4.31-3.83-8.69-8.04-9.77-.73-.19-2.07.26-2.49.86-1.8 2.62-3.94 5.23-4.88 8.18-1.42 4.46-3.72 7.74-7.51 10.58-12.25 9.21-24.22 18.8-36.34 28.18-3.02 2.34-6.39 3.69-10.33 2.5-3.73-1.12-4.92-5.4-2.34-8.38 4.49-5.18 9.4-9.82 15.36-13.37 5.18-3.09 10.15-6.55 15.15-9.94 1.17-.79 2.2-1.87 3.11-2.97 6.19-7.49 12.18-15.16 18.56-22.48 2.16-2.47 5.21-4.21 7.95-6.12 3.74-2.61 6.09-6.18 7.6-10.38 4.13-11.5 4.47-23.44 4-35.45-.03-.82-.69-1.87-1.38-2.37-1.77-1.32-3.67-2.29-5.95-3.64z" fill="#010102"/><g fill="#fcfbfa"><path d="m377.9 391.2c-.2.3-.4.5-.6.8-.7-.6-1.4-1-2.2-1.5.2-.3.4-.5.5-.8.6.4 1.4.8 2.3 1.5zm-1.8 6.1c-.2-.2-.5-.4-.9-.6.4-.6.8-1.2 1.2-1.9s.7-1.3.9-1.9c.3.3.5.5.8.7-.7 1.3-1.4 2.6-2 3.7zm2.2-9c-.3.3-.5.5-.6.8-.6-.6-1.3-1.1-2-1.5.3-.3.5-.5.6-.7.6.5 1.3.9 2 1.4zm.3.2v-.9h2 4.5c-.3 1.3-.6 2.5-1 3.6s-.9 2.1-1.4 3c.4.5 1 1 1.6 1.4s1.2.8 1.9 1.1c-.3.2-.5.4-.8.8-.4-.3-1-.7-1.6-1.2s-1.2-1.1-1.6-1.6c-.5.6-1.1 1.1-1.7 1.6s-1.4.9-2.1 1.4c-.1-.3-.3-.5-.7-.8.6-.2 1.2-.5 1.9-1s1.4-1.1 2-1.8c-.5-.8-.9-1.6-1.2-2.5s-.6-2-.8-3.2c-.4.1-.7.1-1 .1zm2.5 2.7c.3 1 .7 1.7 1 2.2.3-.5.6-1.1 1-2s.6-1.9.9-3h-3.2-.4c.1.9.3 1.8.7 2.8z"/><path d="m396.5 388.5v1.5 3.6h1.5v.9c-.4 0-1 0-1.7 0h-7.9c-.5 0-.9 0-1.2 0v-.9h1.3v-3.5c0-.7 0-1.2 0-1.6h2.4c0-.8 0-1.4 0-1.7h1c0 .3-.1.8-.1 1.7h1.5c0-.8 0-1.4 0-1.7h1c0 .3-.1.9-.1 1.7zm-8.2 9.2c-.2-.3-.5-.5-.8-.8.8-.3 1.4-.6 1.9-.9s1-.7 1.4-1.1c.3.3.6.5.9.8-1.6 1-2.8 1.6-3.4 2zm2.6-6.8v-1.6h-1.5v1.6zm0 2.7v-1.9h-1.5v1.9zm2.4-2.7v-1.6h-1.5v1.6zm0 2.7v-1.9h-1.5v1.9zm.2 2 .7-.8c.4.2.9.5 1.6.8s1.3.7 1.8 1c-.3.3-.5.5-.8.8-.4-.3-1.5-1-3.3-1.8zm2-4.7v-1.6h-1.4v1.6zm0 2.7v-1.9h-1.4v1.9z"/></g></svg>