<svg enable-background="new 0 0 400 400" viewBox="0 0 400 400" xmlns="http://www.w3.org/2000/svg"><path d="m203.35 199.25c-4.87 8.11-9.5 15.86-14.15 23.59-1.56 2.59-3.3 5.07-4.76 7.7-10.57 19.04-28.55 27.18-48.21 32.86-.17.05-.4-.09-.85-.2.52-3.38 1.01-6.53 3.84-9.17 12.82-11.94 24.16-25.22 33.94-39.74 8.17-12.14 10.74-25.38 6.03-39.6-1.46-4.42-2.65-5.13-7.1-4.14-14.3 3.17-28.6 6.31-42.88 9.55-1.46.33-2.95 1.01-4.15 1.91-4.63 3.47-9.66 4.52-15.2 2.86-4.6-1.38-9.21-2.74-13.74-4.31-1.35-.47-2.47-1.6-4.01-2.64 4.71-4.43 9.89-6.66 15.53-7.75 8.5-1.64 16.43-4.38 24.09-8.69 5.21-2.94 11.63-3.77 17.52-5.48 4.93-1.43 9.89-2.78 15.17-4.26-.65-.49-1.02-.9-1.47-1.09-6.02-2.47-10.93-6.44-15.43-11.06-4.06-4.17-8.29-8.17-12.41-12.28-2.52-2.52-5.38-3.21-8.9-2.47-1.34.28-3.46-.16-4.28-1.1-1.26-1.44-1.79-3.43-.12-5.45 4.11-4.99 3.56-10.22.55-15.61-1.02-1.83-1.37-4.02-2.02-6.05 2.25-.01 4.52-.24 6.73.01 3.76.42 6.22 2.63 8.48 5.75 10.95 15.15 25.08 26.26 42.67 32.91 4.69 1.77 9.15 4.16 13.81 6.05 1.32.53 3.04.72 4.4.38 5.41-1.37 10.78-2.94 16.1-4.64 1.04-.33 2.36-1.49 2.57-2.48 1.98-9.28 3.74-18.6 5.58-27.99-4.97-2.96-10.29-3.22-15.3-1.46-10.21 3.59-19.85 2.59-29.43-1.94-1.88-.89-4.2-.85-6.07-1.75-1.36-.65-2.32-2.14-4.14-3.93 17.56-4.44 33.97-8.58 50.75-12.82-.76-3.64-1.37-7.12-2.26-10.53-.25-.96-1.18-1.85-2-2.54-4.09-3.48-8.37-6.75-12.32-10.38-1.94-1.79-3.6-1.79-5.99-1.15-24.14 6.52-46.85 16.92-70.22 25.54-1.26.46-2.57.85-3.73 1.49-9.27 5.15-18.21 2.35-27.08-1.13-2.56-1.01-4.73-2.67-5.11-5.71-.22-1.73.13-2.7 2.37-3.07 3.2-.52 6.26-1.88 9.38-2.91 2.19-.72 4.32-1.97 6.55-2.14 4.32-.34 8.21-1.57 12.13-3.4 34.95-16.31 71.28-28.63 108.91-37.09 5.45-1.23 10.94-2.34 16.31-3.86 12.23-3.47 24.61-2.52 36.97-1.5 4.69.39 8.52 2.52 10.36 7.32.74 1.92.44 2.96-1.51 3.97-7.47 3.87-15.53 5.47-23.73 6.8-16.21 2.64-32.4 5.44-48.57 8.31-3.53.63-6.76 2.14-9.27 5.48 2.31.89 4.31 1.8 6.4 2.44 8.41 2.59 15.16 7.26 18.84 15.46 2.15 4.79 5.36 5.76 10.34 4.93 16.81-2.8 33.48-.92 49.95 2.72 3.72.82 7.4 2.64 10.56 4.79 1.57 1.07 2.48 3.9 2.55 5.98.03.91-2.71 2.58-4.31 2.75-3.5.36-7.09.17-10.61-.14-5.56-.49-11.08-1.67-16.39 1.33-1.06.6-2.6.4-3.92.43-8.7.23-17.4.31-26.09.73-1.9.09-4.04.98-5.53 2.17-1.5 1.19-2.95 3.09-3.34 4.92-1.71 8.06-3.02 16.2-4.58 24.85 7.12-1.23 13.87-2.09 20.47-3.6 14.82-3.37 29.52-2.32 44.31.19 5.47.93 9.46 3.07 10.78 9.11-2.1 2.43-5.31 4.02-8.59 3.77-16.62-1.25-31.97 4.52-47.68 8.21-15.88 3.73-31.68 7.81-47.52 11.74-.43.11-.87.21-1.3.33-6.47 1.71-6.51 1.79-4.28 7.91.57 1.57 1.35 3.12 1.66 4.74 1.67 8.8 8.41 12.85 15.33 16.96 5.25 3.12 10.8 6.16 15.09 10.38 3.68 3.61 6.7 8.53 8.37 13.42 4.09 12.04 7.45 24.34 10.69 36.64 2.04 7.75.08 15.53-.8 23.32-1.84 16.29-7.37 31.59-13.03 46.7-2.91 7.76-8.26 14.9-13.67 21.35-8.25 9.83-17.37 18.94-26.43 28.06-2.13 2.14-5.48 3.06-8.67 4.15.6-5.21-.01-10.23 3.03-14.68 7.01-10.25 13.89-20.58 20.67-30.98 14.03-21.54 19.25-45.47 18.94-70.85-.16-13.58-2.82-26.65-8.36-39.07-1.06-2.39-2.65-4.64-4.4-6.6-4.05-4.55-8.37-8.89-12.81-13.53z" fill="#010104"/><g fill="#fcfbfa"><path d="m385.2 377.6.6-.7c.6.4 1.3.9 1.9 1.5l-.6.7c-.8-.5-1.4-1-1.9-1.5zm.3 7.1c.6-1.4 1.1-2.9 1.5-4.5.3.1.6.3.9.4-.5 1.4-1 2.9-1.5 4.4zm.2-10.1.6-.6c.7.5 1.3 1.1 1.9 1.6l-.7.7c-.6-.6-1.2-1.2-1.8-1.7zm8.4-.8h.8v.9h1.8v.7h-1.8v1.8h-.8v-.3h-1.2v.9h3.3v2.6h-.8v-.4h-2.5c0 .3 0 .6-.1.8h3.4v.7h-3.5c0 .3-.1.6-.1.8h4v.7h-3.5c.7.9 1.9 1.3 3.6 1.5-.2.2-.4.5-.6.9-1.9-.3-3.2-1.1-3.8-2.3-.5 1.1-1.8 2-3.9 2.4-.2-.3-.4-.5-.6-.8 1.9-.4 3.1-.9 3.6-1.7h-3.2v-.7h3.5c.1-.2.1-.5.2-.8h-3.3v-.7h3.4c0-.2 0-.5 0-.8h-2.4v.3h-.8v-2.6h3.3v-.9h-1.2v.3h-.8v-1.8h-1.8v-.7h1.8v-.9h.8v.9h3.2zm-4.4 5.5h2.4c0-.3 0-.6 0-.9h-2.4zm1.2-3.1h3.2v-.8h-3.2zm4.4 2.2h-2.4v.9h2.5v-.9z"/><path d="m389.2 385.8h.9v1.5h1.9v-1.5h.9v1.5h2.7v6h1.1v.9h-11.3v-.9h1.1v-6h2.7zm.2 8.7.5.8c-1.2.6-2.5 1.3-4 1.9-.2-.3-.3-.6-.6-.8 1.6-.6 3-1.3 4.1-1.9zm-2-4.3h1.9v-2.1h-1.9zm0 3.1h1.9v-2.2h-1.9zm2.7-3.1h1.9v-2.1h-1.9zm0 3.1h1.9v-2.2h-1.9zm2.4 1.3c1.4.6 2.7 1.2 4.1 1.8l-.5.9c-1.5-.7-2.8-1.4-4.1-1.9zm2.2-6.5h-1.9v2.1h1.9zm-1.9 5.2h1.9v-2.2h-1.9z"/></g></svg>