<svg enable-background="new 0 0 400 400" viewBox="0 0 400 400" xmlns="http://www.w3.org/2000/svg"><path d="m362.1 8.8c1.1.8 2.1 1.6 3.1 2.4l-1 1.1c-1.3-1.1-2.3-2-3-2.5zm1.9 4.8c.5.2.9.4 1.4.5-.6 2.3-1.3 4.5-1.9 6.8l-1.5-.5c.8-2.1 1.4-4.3 2-6.8zm-1-9.4c1.3.9 2.4 1.8 3.4 2.5l-1 1.1c-1.4-1.2-2.4-2.1-3.2-2.6zm3.7 2.2v-1.4h10.3v1.2c-.5 3.6-1.8 6.8-4 9.4 1.5 1.6 3.4 2.8 5.7 3.8-.3.4-.7.8-1.1 1.4-2.3-1.1-4.1-2.5-5.6-4.1-1.6 1.6-3.6 3.1-5.9 4.3-.3-.5-.7-.9-1-1.3 2.4-1.1 4.4-2.5 6-4.1-1.9-2.5-3-5.6-3.3-9.3h-1.1zm8.8 0h-6.4c.3 3.3 1.3 6 3 8.2 2-2.3 3.1-5.1 3.4-8.2z" fill="#fbfcfa"/><path d="m385.3 3.8h1.3v2.2h2.8v-2.2h1.3v2.2h4.1v9.1h1.7v1.3h-16.9v-1.3h1.7v-9.1h4.1v-2.2zm.4 13.1.7 1.2c-1.8.9-3.8 1.9-6 2.9-.2-.4-.5-.8-.8-1.3 2.3-1 4.3-1.9 6.1-2.8zm-3.1-6.4h2.8v-3.2h-2.8zm0 4.6h2.8v-3.3h-2.8zm4-4.6h2.8v-3.2h-2.8zm0 4.6h2.8v-3.3h-2.8zm3.7 1.9c2.1.9 4.1 1.8 6.1 2.7l-.7 1.3c-2.2-1.1-4.2-2-6.1-2.9zm3.2-9.7h-2.8v3.2h2.8zm-2.8 7.8h2.8v-3.3h-2.8z" fill="#fbfcfa"/><path d="m78.65 142.68c15.7-.9 31.41-1.67 47.1-2.74 10.15-.69 20.28-1.67 30.39-2.82 5.15-.59 6.07-1.84 4.63-6.74-2.46-8.33-5.63-16.45-8.14-24.76-1.29-4.25-2.01-8.7-2.63-13.11-1.38-9.84-3.15-19.68-3.52-29.57-.2-5.14 2.09-10.43 3.55-15.56.43-1.5 1.67-2.9 2.83-4.04 3.51-3.45 7.41-6.54 10.71-10.18 4.79-5.3 11.21-5.85 17.48-6.31 8.78-.64 17.62-.42 26.42-.8 7.59-.33 15.17-1.31 22.67.78.42.12.89.13 1.33.13 7.28-.02 14.57.02 21.85-.09 6.07-.09 11.11 2.83 16.56 5.1-3.9 3.17-8.11 3.86-12.7 3.69-9.09-.34-18.23-1.92-27.22.87-7.26-3.25-15.24 1.62-22.49-1.95-.47-.23-1.25.01-1.84.19-3.06.91-6.05 2.13-9.16 2.77-6.55 1.36-13.17 2.34-19.73 3.65-3.03.61-4.94 2.44-5.99 5.6-.59 1.79-2.38 3.4-3.99 4.6-4.01 2.99-4.28 7.67-5.55 11.82-.5 1.62 1.07 2.67 3.21 2.83 8.68.67 17.46.98 25.96 2.65 7.32 1.44 14.3 4.54 21.44 6.91.1.03.21.09.29.17 1.01.97 2 1.95 3.01 2.91.53.5 1.01 1.15 1.65 1.42 2.37.98 4.79 1.85 7.2 2.73 3.35 1.22 6.35.64 9.02-1.75 2.09-1.86 4.07-3.93 6.41-5.4 2.59-1.62 5.53-2.69 8.33-3.96.7-.32 1.65-.31 2.18-.79 4.52-4.09 10.02-3.71 15.51-3.64 7.05.09 14.13-.29 21.15.14 4.34.26 8.61 1.65 12.91 2.53.03.39.06.77.09 1.16-2.03.52-4.04 1.17-6.1 1.54-6.7 1.21-13.42 2.31-20.13 3.45-.33.06-.82-.02-.97.18-4.19 5.27-11.81 5.32-16.09 10.68-1.45 1.82-4.31 2.75-6.71 3.51-6.74 2.14-10.38 6.35-10.75 13.59-.2 4-1.21 7.95-1.85 11.93-.09.55 0 1.26-.31 1.63-3.72 4.37-1.41 9.43-1.58 14.17-.03.84 1.06 2.19 1.94 2.52 4.91 1.87 9.9 3.51 14.87 5.21.52.18 1.2.51 1.6.32 7.81-3.58 14.95 1.39 22.44 1.74 5.72.27 11.42.92 17.13 1.4.11.01.23-.04.33-.02 7.22 1.59 14.43 3.19 22.74 5.03-4.81.49-8.72.91-12.63 1.27-1.22.11-2.79-.46-3.64.11-5.78 3.92-12.18 1.63-18.28 1.97-11.05.63-22.34-.33-33.13 1.62-10.19 1.84-20.3 1.9-30.44 2.21-5.61.17-11.24-1.62-16.9-1.89-4.62-.22-9.28.61-13.94.78-2.21.08-4.43-.3-6.65-.45-1.45-.1-2.9-.25-4.35-.22-1.62.03-2.55.63-2.71 2.59-.67 8.22-.73 16.29 3.21 23.92 1.74 3.38 2.04 7.11 2.49 10.93.45 3.86 3.1 7.48 4.88 11.16.16.32 1.02.53 1.48.44 4.54-.96 9.06-1.98 13.59-3.01 5.1-1.16 10.25-2.17 15.29-3.56 11.1-3.05 21.7.66 32.43 2.32 1.85.29 3.91 1.54 5.17 2.96 6.66 7.53 13.72 14.99 14.06 25.9.09 2.97-.86 5.98-1.74 8.82.26 3.83.51 7.66.76 11.49.01.22.01.52-.12.65-4.94 4.74-1.64 11.63-4.45 16.92 2.32 3.66.41 6.78-1.26 9.94-.09.18-.14.54-.05.63 3.15 2.88.5 5.51.01 8.42-.51 3.04.29 6.39.96 9.51 1.26 5.86 2.65 11.7 4.37 17.44 1.01 3.36 2.79 6.48 4.19 9.72.82 1.9 1.56 3.83 2.38 5.73.34.77.84 1.46 1.21 2.22.55 1.11 1.13 2.21 1.55 3.38.71 1.98.69 4.85 2.06 5.86 3.72 2.71 3.08 8.52 7.84 10.28.74.28 1.3 1.18 1.84 1.87 2.49 3.17 4.74 6.55 7.45 9.51 3.63 3.97 7.59 7.64 11.43 11.42 1.32 1.29 2.71 2.5 4.67 4.3-4.42.79-7.02-1.04-9.37-3.2-2.31-2.11-4.44-4.43-6.58-6.72-2.76-2.95-5.48-5.88-9.54-7.13-.89-.27-1.63-1.14-2.33-1.85-2.13-2.15-3.97-4.66-6.35-6.46-4.62-3.49-7.83-7.58-9.08-13.43-.5-2.31-2.52-4.51-4.31-6.29-3.94-3.93-4.37-9.35-6.47-14.06-1.03-2.32-1.54-4.88-2.57-7.2-2.89-6.51-5.26-12.99-6.48-20.2-1.68-9.99-.23-19.75-.07-29.58.06-3.35 1.94-6.67 2.89-10.03.33-1.16.45-2.39.54-3.59.37-4.89.71-9.79 1.02-14.69.05-.73.11-1.68-.29-2.17-3.87-4.89-6.4-10.95-11.93-14.41-3.23-2.02-5.59-5.57-9.94-5.68-.6-.02-1.37-.4-1.75-.87-2.89-3.54-6.51-3.01-10.34-2.16-3.16.7-6.4 1.05-9.59 1.6-.74.13-1.73.22-2.13.72-1.87 2.34-4.2 1.63-6.49 1.16-5.02-1.03-10.63 2.51-11.57 7.57-.61 3.29.19 7.4-1.53 9.81-2.88 4.04-.57 7.8-1.16 11.58-.85 5.38-1.9 10.79-3.48 15.99-1.51 4.95-2.91 9.82-2.78 15.06.03 1.2-.39 2.98-1.23 3.52-2.66 1.72-3.08 4.16-3.2 6.93-.05 1.08-.19 2.36-.8 3.18-3.48 4.67-5.98 9.81-8.46 15.09-6.34 13.52-15.82 24.76-26.47 35.2-2.94 2.89-5.73 6.07-8.54 9.12-3.49 3.79-6.79 7.21-11.75 8.84-.9.3-1.61 1.16-2.44 1.7-4.02 2.59-7.89 5.45-12.12 7.65-5.09 2.64-10.47 4.71-16.44 6.57 1.08-1.28 1.96-2.84 3.28-3.81 10.98-8.11 22.1-16.04 33.01-24.24 2.01-1.51 3.64-3.83 4.77-6.11 1.68-3.38 2.62-7.1 6.31-9.14.85-.47 1.26-1.78 1.85-2.72 2.65-4.23 5.44-8.39 7.88-12.74 1.12-2 1.78-4.33 2.26-6.59 1.28-5.97 3.11-11.62 7.47-16.18.77-.81 1.01-2.18 1.34-3.33.66-2.35 1.19-4.74 1.83-7.1.2-.75.82-1.47.8-2.19-.18-5.06 3.68-8.42 5.14-12.7 1.27-3.72 1.1-7.94 1.62-11.93.16-1.21.4-2.42.75-3.58.84-2.75 2.27-5.04.96-8.48-1.07-2.8.63-6.52.3-9.76-.5-5 .45-9.69 1.26-14.55.76-4.52.31-9.3-.01-13.94-.41-5.91-1.22-11.8-1.86-17.69-.06-.55 0-1.21-.27-1.64-2.43-3.76-2.06-7.86-1.69-12.03.63-7.12-1.5-9.81-8.61-9.99-7.75-.19-15.04-1.8-21.99-5.19-.77-.37-1.73-.58-2.58-.51-8.62.71-16.82-1.59-25.16-3.16-5.86-1.11-11.97-.84-17.94-1.41-2.73-.26-5.4-1.05-8.1-1.61 0-.61 0-1.17 0-1.73zm84.45-70.27c-.32 2.49-1.05 4.98-.86 7.4.5 6.65 1.29 13.29 2.17 19.91.43 3.25 1.48 6.41 2 9.66.79 4.9-1.69 10.32 2.36 14.71-1.71 4.07 1.83 6.29 3.36 9.17.49.92 1.98 1.8 3.05 1.85 8.15.37 16.31.71 24.46.7 7.9-.02 15.81-.46 23.71-.77.53-.02 1.41-.43 1.52-.83.63-2.35 1.7-4.8 1.48-7.1-.51-5.3-1.72-10.53-2.58-15.8-1.22-7.47-5.22-13.72-8.84-20.13-.55-.98-1.64-1.77-2.64-2.38-4.5-2.74-10.15-3.78-13.05-8.9-.22-.39-.94-.57-1.46-.69-9.29-2.23-18.16-6.39-28.05-5.8-1.85.08-3.73-.55-6.63-1z" fill="#010106"/></svg>