<svg enable-background="new 0 0 400 400" viewBox="0 0 400 400" xmlns="http://www.w3.org/2000/svg"><path d="m374.8 390.4.4-.4c.7.5 1.3 1 1.8 1.4l-.5.5c-.5-.6-1.1-1.1-1.7-1.5zm1 7.3-.6-.3c.5-1.4 1.1-2.8 1.5-4.3.2.1.4.2.6.3-.5 1.3-1 2.8-1.5 4.3zm-.4-10.3.4-.4c.4.3 1 .8 1.7 1.4l-.5.5c-.4-.5-1-1-1.6-1.5zm2.5.3h1.7v-1h.6v1h3.5v-1h.6v1h1.8v.5h-1.8v1.4h-2v1h3.2v2h-3.2v.9h3.3v.5h-3.4c0 .3-.1.6-.1.9h4v.5h-3.7c.7.9 1.9 1.5 3.8 1.7-.1.2-.2.4-.3.6-2.1-.4-3.5-1.1-4-2.1-.4 1-1.8 1.7-4 2.2-.1-.2-.2-.4-.3-.6 2.1-.4 3.4-1 3.8-1.8h-3.4v-.5h3.6c.1-.3.1-.6.2-.9h-3.3v-.5h3.4c0-.3 0-.6 0-.9h-3.2v-2h3.3v-1h-2.1v-1.4h-1.7v-.5zm1.1 3.5v1h2.7c0-.3 0-.4 0-.4 0-.1 0-.2 0-.2 0-.1 0-.2 0-.3h-2.7zm1.2-3v.9h3.5v-.9zm4.7 3h-2.6v.6.4h2.6z" fill="#fbfcfa"/><path d="m393.6 386.7h.6v1.5h2.7v6.1h1.1v.6h-11v-.6h1.1v-6.1h2.7v-1.5h.6v1.5h2.1v-1.5zm-2.7 8.8.4.6c-1.2.6-2.5 1.3-3.8 1.9-.1-.2-.2-.4-.3-.6 1.2-.6 2.5-1.2 3.7-1.9zm-2.2-6.7v2.4h2.1v-2.4zm0 3v2.5h2.1v-2.5zm2.8-3v2.4h2.1v-2.4zm0 3v2.5h2.1v-2.5zm6 6.1c-1.4-.7-2.7-1.3-3.9-1.8l.3-.6c1.5.6 2.7 1.2 3.9 1.7zm-1.2-9.1h-2.1v2.4h2.1zm-2.1 3v2.5h2.1v-2.5z" fill="#fbfcfa"/><path d="m196.44 273.59c-7.13 1.04-13.93 1.55-20.41-2.08-3.64-2.04-5.99-1.4-7.96 2.35-1.49 2.84-2.55 5.95-3.47 9.04-.22.73.68 2.16 1.46 2.75 3.65 2.77 7.56 5.2 11.14 8.04 4.59 3.65 6.38 8.67 6.33 14.65-5.7 0-11.25-.01-16.81.01-1 .01-2.19-.12-2.95.37-.81.52-1.76 1.71-1.71 2.55.47 7.59.96 15.19 1.84 22.74.31 2.69 1.61 5.29 2.65 7.85s2.33 5.03 3.77 8.09c-4.24 0-7.98.1-11.71-.08-.77-.04-1.74-.93-2.21-1.68-13.32-21.23-19.35-44.21-17.24-69.35 1.44-17.17 7.25-33.12 12.63-49.22 3.61-10.81 7.28-21.6 10.91-32.4.38-1.14.69-2.3 1.19-3.98-5.65 0-10.88.12-16.11-.06-2.06-.07-4.24-.46-6.13-1.26-10.29-4.35-20.5-8.87-31.56-13.68 1.78-.6 2.83-1.01 3.9-1.31 10.01-2.79 19.98-5.77 30.07-8.24 4.4-1.08 6.88-3.69 8.79-7.4 5.29-10.31 5.68-21.39 4.24-32.45-1.76-13.51-4.65-26.88-6.55-40.38-1.67-11.9-1.98-23.85 1.55-35.6.69-2.28 1.86-3.48 4.09-4.27 18.56-6.51 37.05-13.21 55.63-19.67 5.91-2.06 11.97-1.02 17.82.52 3.17.83 6.59 7.56 5.78 10.92-.2.82-1.63 1.59-2.65 1.93-13.15 4.37-26.33 8.65-39.49 12.97-8.53 2.8-12.5 9.54-10.9 18.43.22 1.21.4 2.43.66 3.63 1.58 7.15.8 13.69-4.54 19.24-3.13 3.25-3.71 7.25-3.65 11.71.21 16.12.08 32.24.08 48.36v3.99c7.87.72 15.51 1.41 23.67 2.16 0-1.39 0-2.57 0-3.74 0-19.37.04-38.73-.05-58.1-.01-2.32.57-3.53 2.87-4.39 14.53-5.43 28.53-12.34 43.87-15.48 1.07-.22 2.14-.46 3.44-.74 1.39 4.36 2.73 8.58 4.16 13.07-13.31 5.63-25.07 12.87-29.79 27.54-3.78 11.76-3.03 23.56-.06 36.14 11.19.09 22.36.05 33.52.31 6.56.16 13.21.23 19.63 1.4 6.26 1.14 9.51 6.09 9.68 12.05.05 1.99-.47 2.87-2.58 3.4-16.81 4.25-33.83 4.45-51.01 3.49-15.51-.87-29.58 3.42-42.26 13.39 4.44 3.78 8.66 7.37 12.89 10.95 13.85 11.71 27.72 23.38 41.51 35.16 1.37 1.17 2.52 2.84 3.22 4.51 8.76 20.82 10.61 42.53 8.49 64.83-1.95 20.49-3.55 41.02-5.03 61.55-.24 3.36-1.72 5.27-4.62 7.39-1.46-8.92-3.38-17.4-4.15-25.99-2.12-23.5-3.99-47.03-5.52-70.58-1.89-29.02-19.26-51.83-46.96-60.8-.83-.27-2.26-.37-2.71.11-5.57 5.86-11.3 11.85-12.42 20.23-.9 6.74.19 13.23 6.95 17.17 2.12 1.24 4.02 2.92 6.25 3.9 6.03 2.64 8.45 7.32 8.53 14.04z" fill="#010106"/></svg>