<svg enable-background="new 0 0 400 400" viewBox="0 0 400 400" xmlns="http://www.w3.org/2000/svg"><g fill="#fcfafa"><path d="m342.2 3.2-6.3 9.2h6.1v1.2h-8.2v-.5l6.2-9.1h-5.7v-1.2h7.8v.4z"/><path d="m344 13.7v-10.9h3.1c1.6 0 3 .5 4.1 1.4 1.1 1 1.6 2.2 1.6 3.9s-.5 3-1.6 4-2.5 1.5-4.2 1.5h-3zm1.4-9.6v8.4h1.6c1.4 0 2.5-.4 3.2-1.1.8-.8 1.2-1.8 1.2-3.2s-.4-2.4-1.2-3.1-1.8-1-3.1-1z"/><path d="m356.3 2.8v10.9h-1.4v-10.9z"/><path d="m366.6 13.2c-.8.4-1.8.6-3 .6-1.6 0-2.8-.5-3.7-1.5s-1.4-2.3-1.4-3.9c0-1.7.5-3.2 1.6-4.2s2.4-1.6 4-1.6c1 0 1.9.1 2.6.4v1.5c-.8-.4-1.6-.6-2.6-.6-1.2 0-2.2.4-3 1.2s-1.1 1.9-1.1 3.3c0 1.3.4 2.3 1.1 3.1s1.6 1.1 2.8 1.1c1.1 0 2-.2 2.8-.7v1.3z"/><path d="m368.2 13c0-.3.1-.5.3-.6.2-.2.4-.3.6-.3.3 0 .5.1.7.3s.3.4.3.6-.1.5-.3.6c-.2.2-.4.3-.7.3s-.5-.1-.6-.3c-.2-.2-.3-.4-.3-.6z"/><path d="m381.1 13.7h-1.7l-5.5-8.4c-.2-.2-.3-.5-.4-.7 0 .2.1.8.1 1.5v7.6h-1.4v-10.9h1.8l5.3 8.3c.3.4.4.6.4.8 0-.3-.1-.8-.1-1.6v-7.5h1.4v10.9z"/><path d="m389.7 13.7h-5.8v-10.9h5.6v1.2h-4.2v3.5h3.9v1.2h-3.9v3.7h4.4z"/><path d="m398.4 4.1h-3.1v9.6h-1.4v-9.6h-3.1v-1.3h7.7v1.3z"/></g><path d="m88.21 196.67c20.63-1.01 40.23-6.32 59.3-14.4-2.13-.14-4.27-.4-6.4-.38-3.13.04-4.47-1.76-4.73-4.51-.07-.73.7-1.56 1.18-2.29.15-.23.59-.29.91-.4 21.91-7.74 38.61-23.54 56.8-36.97 3.77-2.79 6.52-7.02 9.52-10.77 1.07-1.34 2-3.19 2.06-4.83.06-1.9-.39-4.94-1.57-5.5-1.88-.9-5.31-1.12-6.76.03-12.36 9.78-27.16 13.83-41.77 18.3-2.34.72-3.37 1.78-4.19 4.01-1.42 3.83-3.45 7.43-5.15 11.15-1.34 2.93-2.68 5.86-3.85 8.86-.64 1.65-.84 3.48-1.41 5.17-.98 2.91-4.66 5.28-7.72 4.67-3.28-.65-2.45-3.69-2.43-5.76.08-10.85 2.97-21.2 5.94-31.53 5.34-18.57 10.74-37.12 15.9-55.74 2.41-8.71 4.46-17.53 6.37-26.37.75-3.44.86-7.06.93-10.6.06-3.15-1.85-5-4.74-6.2-1.54-.64-2.78-2.02-4.54-3.37 9.96-4.49 13.83-5.73 21.5 1.47 2.29 2.15 5.43 3.39 8.15 5.09 2.14 1.34 4.49 2.49 6.27 4.22 1.67 1.62 3.21 1.98 5.38 1.56 8.12-1.56 16.24-3.17 24.42-4.44 15.37-2.38 30.3.11 45.03 4.46 12.48 3.68 24.27 8.65 33.49 18.21 2.84 2.95 5.14 6.42 7.68 9.64-1.56 2.58-3.29 3.22-5.58 2.05-1.28-.66-2.68-1.22-3.76-2.13-9.34-7.87-20.32-11.71-32.29-12.61-14.32-1.07-28.62-.65-42.73 2.46-.88.19-2.14.71-2.34 1.35-.2.62.62 1.7 1.2 2.41.84 1.04 1.79 2.02 2.84 2.86 4.13 3.29 6.58 7.4 7.05 12.76.27 3.15 2.02 4.8 5.51 5.03 16.94 1.1 32.97 5.51 47.81 13.88 7.45 4.2 12.81 10.13 14.37 18.79.27 1.5-.09 3.63-1.03 4.71-1.54 1.77-3.81 1.48-5.8.16-.84-.55-1.78-.98-2.54-1.62-12.69-10.76-27.74-16.94-43.2-22.33-4.53-1.58-9.02-3.3-13.62-4.64-4.04-1.17-7.43-.65-9.9 3.68-2.7 4.74-6.21 9.01-9.4 13.54 7.2 3.44 12.82 8.81 18.77 13.74 1.15.95 2.61 1.8 4.04 2.07 14.26 2.69 27.74 7.72 40.99 13.47 5.91 2.57 10.77 6.38 13.51 12.4.55 1.2 1.03 2.59.96 3.86-.08 1.51-.49 4.01-1.3 4.26-1.56.47-3.86.17-5.24-.74-3.06-2.03-5.69-4.7-8.61-6.96-1.29-1-2.78-1.91-4.32-2.39-10.46-3.25-20.95-6.4-31.46-9.48-1.31-.38-2.86-.36-4.2-.08-6.98 1.46-12.96 4.4-18.42 9.41-10.89 10.01-24 16.71-37.69 22.16-8.79 3.5-17.72 6.68-26.58 10.83 3.2-.15 6.43-.04 9.57-.53 2.85-.44 5.73-1.22 8.35-2.4 6.38-2.85 13.23-2.94 19.93-4.08 7.8-1.32 15.4-3.9 23.22-5.11 8.58-1.32 17.3-1.86 25.99-2.45 15.1-1.02 29.9 1.43 44.53 4.79 8.18 1.88 15.27 6.23 21.62 11.7 1.78 1.53 2.75 3.41.71 5.36-.77.74-2.2 1.41-3.16 1.23-4.83-.93-9.63-2.04-14.38-3.3-12.85-3.41-25.98-3.46-39.02-2.41-14.58 1.17-29.08 3.42-43.62 5.22-.63.08-1.24.36-2.21.65 1.72 6.17 3.38 12.17 5.07 18.16.09.3.3.64.55.81 4.9 3.44 5.33 8.84 6.68 14.08 5.02 19.57 4.63 39.08-.67 58.38-2.5 9.11-6.79 17.72-9.75 26.73-4.01 12.23-10.31 23.1-17.23 33.89-7.44 11.6-17.8 20.3-26.91 30.23-1.14 1.25-4.99 1.8-6.11.88-1.83-1.51-.86-4.1.77-6.2 3.42-4.4 7.07-8.74 9.75-13.58 7.25-13.09 15.26-25.95 20.76-39.78 10.83-27.24 14.64-55.71 10.06-84.97-.63-4.01-2.22-4.88-5.64-2.75-1.66 1.03-3.19 2.49-4.36 4.07-8.83 11.91-20.21 20.4-33.86 26.1-3.45 1.44-6.43 3.97-9.72 5.85-1.62.92-3.47 1.43-5.16 2.24-2.71 1.29-5.28 3.01-8.11 3.91-1.93.61-4.38.65-6.25-.01-1.35-.48-.11-6.1 1.5-7.45 8.58-7.18 17.4-14.1 25.7-21.59 12.61-11.38 20.37-25.91 25.72-41.84.14-.4.13-.86.21-1.41-3.54-2.01-7.26-1.67-10.77-.68-7.64 2.15-15.18 4.63-22.73 7.05-.91.29-1.72 1.02-2.49 1.65-6.32 5.14-13.61 6.9-21.43 5.2-7.96-1.73-15.73-4.27-23.65-6.22-3.73-.9-5.4-3.17-6.07-7.1zm69.45-77.44c.24.18.48.35.73.53 8.41-4.61 16.82-9.21 25.21-13.85.66-.36 1.17-1.03 1.68-1.62 4.96-5.77 10.09-11.42 14.81-17.38 4.11-5.18 6.41-11.25 6.57-17.94.07-2.73-1.31-5.11-4.02-5.44-8.08-.98-15.79.7-22.92 4.59-1.34.73-2.41 2.33-3.12 3.77-2.07 4.21-4.01 8.49-5.81 12.82-4.01 9.66-7.93 19.36-11.79 29.08-.69 1.72-.91 3.63-1.34 5.44z" fill="#010103"/></svg>