<svg enable-background="new 0 0 400 400" viewBox="0 0 400 400" xmlns="http://www.w3.org/2000/svg"><path d="m153.64 139.5c6.76 2.39 13.4 1.64 20.1.9 5.88-.66 11.8-1.22 17.72-1.28 16.23-.17 32.48.3 48.7-.17 13.78-.4 27.21 1.13 40.49 4.55 1.62.42 3.26.91 4.92 1.02 3.75.24 5.87 1.87 5.17 5.82-.23 1.3-.93 2.94-1.94 3.6-5.29 3.43-11.49 3.37-17.47 3.93-29.72 2.79-59.48 5.28-89.17 8.39-8.61.9-17.11 3.24-25.53 5.43-6.64 1.73-9.42 5.77-9.9 12.72-.11 1.56-.12 3.13-.02 4.69.51 7.85 1.94 9.55 9.89 10.42 4.08.44 8.26-.11 12.38.16 8.92.57 17.81 1.52 26.72 2.05 12.92.78 25.64-1.1 38.4-2.89 5.6-.79 11.37-.53 17.06-.4 12.08.27 24.17.44 36.21 1.28 6.75.47 13.54 1.74 20.09 3.49 5.63 1.5 7.69 5.04 7.46 10.3-9.04 1.63-18.15 3.27-27.26 4.9-1.43.26-2.91.34-4.29.76-2.39.74-4.39.57-5.2-1.03-3.9 1.05-7.5 2.96-11 2.79-16.22-.76-32.07 2.67-48.11 3.57-19.42 1.09-38.91 1.03-58.37 1.4-5.69.11-11.4-.24-17.08.05-1.59.08-3.62 1.38-4.52 2.74-1.7 2.58-2.67 5.63-4.06 8.42-3.13 6.28-6.28 12.56-9.58 18.75-.56 1.05-1.83 1.86-2.94 2.46-1.65.89-3.45 1.51-4.29 1.86-.74 2.74-.94 4.9-1.87 6.67-4.34 8.31-8.87 16.51-13.42 24.89 5.22 4.14 11.12 5.82 17.33 5.87 17.95.13 35.02-3.82 51.16-11.73 5.82-2.85 11.63-5.72 17.58-8.27 3.56-1.53 7.33-1.55 11.12-.19 1.06.38 2.48-.21 4-.38-.48 4.68-.95 9.67-1.53 14.63-.08.69-.58 1.46-1.12 1.95-12.21 11.24-25.64 20.57-41.48 25.96-2.7.92-5.74 1.35-8.58 1.21-15.1-.73-29.86 1.92-44.7 3.99-2.33.32-4.82-.09-7.18-.52-4.91-.9-9.75-2.2-14.68-3.02-2-.33-2.83-.99-3.24-2.99-1.98-9.79-.8-19.26 1.67-28.85 2.42-9.39 3.9-19.01 5.79-28.54.13-.65.02-1.44.35-1.96 4.18-6.55 3.05-13.73 2.56-20.84-.16-2.34-.23-4.68-.35-7.37-2.79-.28-5.54-.47-8.26-.87-3.52-.51-7.01-1.24-10.53-1.74-1.28-.18-2.69-.26-3.89.1-3.97 1.17-7.83 2.67-11.8 3.84-11.18 3.29-21.7.96-31.63-4.37-4.66-2.5-3.97-8.37.78-10.95 11.3-6.14 23.71-7.58 36.18-9.06 14.54-1.72 29.04-3.85 43.81-5.83 1.01-8.13 1.98-15.97 2.94-23.82.56-4.51.4-9.27 5.17-12.05.59-.34.99-2.26.6-2.81-2.43-3.36-2.49-7.15-2.21-10.93.83-11.27 1.84-22.53 2.79-33.79.33-3.9.68-7.8 1.01-11.71.03-.33.08-.68.04-1.01-.5-3.71 5.16-6.27 1.43-10.93-2.83-3.53 1.08-7.6 1.09-11.49 0-4.24-.43-8.49-.69-12.73-.18-2.9-.18-5.84-.66-8.7-.5-2.95.45-4.44 3.27-5.45 14.18-5.05 27.81-11.86 42.85-14.22 12.37-1.94 24.79-3.57 37.23-5.03 14.54-1.7 29.1-3.29 43.69-4.5 13.14-1.09 25.38 3.05 37.38 7.78 1.13.45 2.2 2.16 2.5 3.46 1.98 8.8 1.94 9.54-6.91 11.91-8.92 2.39-18.11 4.1-27.28 5.14-8.74 1-17.63.93-26.45.99-6.04.04-6.05-.21-6.85-6.57-.66.59-1.34.94-1.65 1.5-2.39 4.4-6.1 6.23-11.04 6.78-16.57 1.86-32.21 7.25-47.58 13.44-10.39 4.18-13.43 11.46-9.43 22.08.32.84 1.12 1.64 1.9 2.15 5.51 3.66 11.45 4.4 17.59 1.98 6.77-2.67 13.53-3.71 20.6-1.3.74.25 1.79-.4 2.69-.63 2.64-.68 5.24-1.74 7.91-1.96 4.55-.38 9.17-.52 13.73-.27 8.35.46 16.67 1.45 25.02 1.91 6.13.33 12.3.53 18.41.12 6.44-.43 12.71-.12 18.96 1.44 2.49.62 4.94 1.1 4.96 4.34.02 3.09-1.6 5.26-4.27 6.64-6.96 3.6-14.32 5.1-22.19 5.4-23.58.9-47.16 2.01-70.71 3.56-7.53.49-15.03 2.26-22.4 4.07-6.65 1.64-7.05 2.78-6.36 9.64.08 1.03.16 2.03.27 3.26zm-29.51-39.84c-1.38 2.18-2.46 3.87-3.54 5.57 1.89-.48 3.79-.94 5.67-1.45.13-.03.18-.36.33-.66-.6-.85-1.23-1.73-2.46-3.46z" fill="#010000"/><path d="m372.06 352.93c-.19 7.34-5.23 11.7-12.06 10.65-5.21-.8-10.11-.1-14.43 2.86-4.27 2.92-8.42 2.31-12.21-.29-7.16-4.92-14.18-10.09-21.04-15.42-19.76-15.35-34.06-35.68-49.79-54.73-9.97-12.08-20.39-23.78-30.46-35.77-2.5-2.98-4.66-6.3-6.58-9.69-3.98-7.04-3.06-13.94 2.43-19.83.65-.69 1.86-1.33 2.75-1.26 7.18.61 13.56 3.22 18.15 8.92 8.36 10.38 18.16 19.09 29.3 26.35 1.29.84 2.44 1.96 3.52 3.08 10.99 11.47 21.83 23.1 33.01 34.39 3.41 3.45 7.66 6.08 11.63 8.95 2.9 2.09 5.87 4.12 8.98 5.88 7.91 4.48 14.18 10.63 19.93 17.63 3.26 3.96 7.68 7.14 12.03 9.97 3.43 2.27 5.13 4.82 4.84 8.31z" fill="#010000"/><g fill="#fbfcfa"><path d="m361.2 9.6.8-1c.9.7 1.9 1.4 2.9 2.3l-.9 1.1c-1-1-2-1.8-2.8-2.4zm.5 10.6c.9-2.1 1.6-4.3 2.3-6.7.4.2.8.4 1.3.6-.7 2.1-1.5 4.3-2.2 6.6zm.4-15.2.9-.9c1 .8 2 1.6 2.8 2.4l-1 1c-.9-.9-1.8-1.7-2.7-2.5zm12.5-1.2h1.2v1.4h2.7v1.1h-2.7v2.7h-1.2v-.6h-1.8v1.3h4.9v3.8h-1.2v-.5h-3.7c0 .4-.1.9-.1 1.2h5.1v1h-5.2c0 .5-.1.9-.2 1.2h6v1h-5.2c1.1 1.3 2.9 2 5.5 2.2-.4.4-.7.8-.9 1.3-2.9-.5-4.8-1.6-5.7-3.5h-.1c-.8 1.7-2.7 2.9-5.9 3.6-.2-.4-.6-.8-.9-1.1 2.8-.6 4.6-1.4 5.4-2.5h-4.8v-1h5.3c.1-.3.2-.7.2-1.2h-4.9v-1h5c0-.4 0-.8.1-1.2h-3.5v.5h-1.2v-3.8h4.9v-1.3h-1.8v.5h-1.2v-2.7h-2.7v-1h2.6v-1.4h1.2v1.4h4.7v-1.4zm-6.6 8.3h3.6c0-.4 0-.9 0-1.4h-3.6zm1.9-4.6h4.7v-1.3h-4.7zm6.6 3.2h-3.7v1.4h3.7z"/><path d="m385.3 3.8h1.3v2.2h2.8v-2.2h1.3v2.2h4.1v9.1h1.7v1.3h-16.9v-1.3h1.7v-9.1h4.1v-2.2zm.4 13.1.7 1.2c-1.8.9-3.8 1.9-6 2.9-.2-.4-.5-.8-.8-1.3 2.3-1 4.3-1.9 6.1-2.8zm-3.1-6.4h2.8v-3.2h-2.8zm0 4.6h2.8v-3.3h-2.8zm4-4.6h2.8v-3.2h-2.8zm0 4.6h2.8v-3.3h-2.8zm3.7 1.9c2.1.9 4.1 1.8 6.1 2.7l-.7 1.3c-2.2-1.1-4.2-2-6.1-2.9zm3.2-9.7h-2.8v3.2h2.8zm-2.8 7.8h2.8v-3.3h-2.8z"/></g></svg>