<svg enable-background="new 0 0 400 400" viewBox="0 0 400 400" xmlns="http://www.w3.org/2000/svg"><path d="m129.78 274.06c-2.12-3.11-2.37-6.33-1.2-9.88 1.99-6.03 5.22-11.01 9.72-15.68 12.39-12.83 23.82-26.56 30.39-43.43 2.32-5.96 3.06-12.53 4.59-18.81.46-1.88-.45-3.02-2.04-3.11-3.28-.18-6.74-.58-9.85.19-22.56 5.57-44.94 11.88-67.62 16.88-6.93 1.53-14.61-.13-21.93-.68-2.5-.19-4.12-2.13-4.21-4.89-.06-1.98.53-3.24 2.77-3.86 24.1-6.76 48.13-13.79 72.28-20.41 7.96-2.18 16.22-3.23 24.28-5.06 2.79-.63 5.53-1.81 8.08-3.15 7.07-3.73 9.53-9.86 6.91-17.47-1.67-4.85-3.83-9.53-5.68-14.33-.47-1.21-1.03-2.66-.78-3.83 1.43-6.51-1.38-12.1-3.84-17.67-.7-1.59-2.84-2.54-4.61-4.03-2.63 4.42-5.22 8.2-7.24 12.27-7.28 14.67-17.24 26.98-30.47 36.77-5.46 4.04-10.2 9.03-15.44 13.38-.55.46-3.12-.24-3.31-.85-.62-2.01-1.21-4.42-.64-6.32.92-3.05 2.53-5.98 4.28-8.67 7.73-11.91 16.26-23.36 23.24-35.69 6.13-10.83 10.8-22.53 15.64-34.04 1.28-3.04.67-6.84 1.23-10.24.54-3.25 1.5-6.42 2.25-9.63.35-1.5.87-3 .92-4.52.37-10.62.63-21.24.94-32.11.74 0 1.37-.11 1.96.02 9.46 1.95 17 10.78 16.62 20.35-.37 9.64 1.59 9.69 9.76 8 11.82-2.45 23.72-4.52 35.54-7 2.88-.6 5.46-2.78 8.33-3.2 24.39-3.54 48.79-6.66 73.3-.53 3.86.97 3.12 3.89 3.77 6.15.19.66-1.66 2.61-2.8 2.84-4.34.87-8.77 1.67-13.17 1.75-5.13.1-10.26-.65-15.4-.91-5.62-.29-11.13.1-16.44 2.36-10.51 4.48-21.95 5.04-32.93 7.55-14.82 3.39-29.85 6.14-43.59 12.98-6.35 3.16-12.27 7.2-18.67 11.02 2.35 3.77 4.12 6.87 6.18 9.76.62.87 1.98 1.52 3.08 1.68 8.37 1.19 14.79 5.5 20.45 11.61 4.8 5.18 9.91 5.76 16.25 2.27 4.63-2.55 9.14-4.16 14.32-1.81.49.22 1.66-.09 1.96-.54 3.07-4.46 7.78-5.64 12.64-6.83 9-2.22 18.03-4.37 26.87-7.15 7.06-2.22 14.09-2.42 21.21-1.28 6.28 1 12.46 2.68 18.74 3.66 5.68.88 8.06 4.3 8.73 9.9-5.4.7-10.86 1.08-16.19 2.15-15.88 3.19-31.71 6.63-47.54 10.02-9.59 2.05-18.95 5.34-29.02 4.65-1.52-.1-3.46 1.41-4.71 2.66-2.67 2.67-5.68 4.03-9.45 4.33-3.9.3-6.34 2.45-6.11 6.4.27 4.59 1.13 9.39 2.98 13.54.84 1.89 4.57 2.84 7.16 3.48 1.94.47 4.29.11 6.27-.5 12.74-3.94 25.88-5.06 39.08-5.6 18.85-.76 37.55.85 56.06 4.4 3.16.61 6.32 1.57 9.26 2.87 4.27 1.89 5.38 5.23 3.58 9.96-6.57-.37-13.26-.57-19.93-1.14-25.65-2.2-50.9.62-76.02 5.64-5.44 1.09-10.96 1.88-16.48 2.38-4.98.44-8.85 2.8-12.72 6.01.69.62 1.27 1.22 1.93 1.71 6.25 4.73 12.24 9.86 18.82 14.06 10.79 6.88 16.61 17.25 21.38 28.47 5.43 12.75 6.59 26.1 5.32 39.81-1.48 16.08-4 31.95-8.6 47.45-.81 2.74-2.15 5.35-3.43 7.93-7.13 14.39-16.72 26.85-28.84 37.45-6.45 5.64-12.35 11.9-19.11 18.48.54-3.12.58-5.82 1.51-8.18 2.17-5.49 4.33-11.07 7.28-16.16 8.77-15.19 14.75-31.56 21.07-47.79.81-2.08 1.46-4.25 2.46-6.23 8.29-16.45 7.7-33.72 4.64-51.17-2.15-12.31-5.42-24.31-13.12-34.46-3.4-4.48-7.57-8.37-11.78-12.96-2.64 4.21-4.76 7.59-6.89 10.95-6.16 9.73-11.89 19.77-18.59 29.12-11.52 16.06-26.89 27.66-44.61 36.23-.3.12-.64.16-1.03.26z" fill="#010104"/><g fill="#fcfbfa"><path d="m385.2 377.6.6-.7c.6.4 1.3.9 1.9 1.5l-.6.7c-.8-.5-1.4-1-1.9-1.5zm.3 7.1c.6-1.4 1.1-2.9 1.5-4.5.3.1.6.3.9.4-.5 1.4-1 2.9-1.5 4.4zm.2-10.1.6-.6c.7.5 1.3 1.1 1.9 1.6l-.7.7c-.6-.6-1.2-1.2-1.8-1.7zm8.4-.8h.8v.9h1.8v.7h-1.8v1.8h-.8v-.3h-1.2v.9h3.3v2.6h-.8v-.4h-2.5c0 .3 0 .6-.1.8h3.4v.7h-3.5c0 .3-.1.6-.1.8h4v.7h-3.5c.7.9 1.9 1.3 3.6 1.5-.2.2-.4.5-.6.9-1.9-.3-3.2-1.1-3.8-2.3-.5 1.1-1.8 2-3.9 2.4-.2-.3-.4-.5-.6-.8 1.9-.4 3.1-.9 3.6-1.7h-3.2v-.7h3.5c.1-.2.1-.5.2-.8h-3.3v-.7h3.4c0-.2 0-.5 0-.8h-2.4v.3h-.8v-2.6h3.3v-.9h-1.2v.3h-.8v-1.8h-1.8v-.7h1.8v-.9h.8v.9h3.2zm-4.4 5.5h2.4c0-.3 0-.6 0-.9h-2.4zm1.2-3.1h3.2v-.8h-3.2zm4.4 2.2h-2.4v.9h2.5v-.9z"/><path d="m389.2 385.8h.9v1.5h1.9v-1.5h.9v1.5h2.7v6h1.1v.9h-11.3v-.9h1.1v-6h2.7zm.2 8.7.5.8c-1.2.6-2.5 1.3-4 1.9-.2-.3-.3-.6-.6-.8 1.6-.6 3-1.3 4.1-1.9zm-2-4.3h1.9v-2.1h-1.9zm0 3.1h1.9v-2.2h-1.9zm2.7-3.1h1.9v-2.1h-1.9zm0 3.1h1.9v-2.2h-1.9zm2.4 1.3c1.4.6 2.7 1.2 4.1 1.8l-.5.9c-1.5-.7-2.8-1.4-4.1-1.9zm2.2-6.5h-1.9v2.1h1.9zm-1.9 5.2h1.9v-2.2h-1.9z"/></g></svg>