<svg enable-background="new 0 0 400 400" viewBox="0 0 400 400" xmlns="http://www.w3.org/2000/svg"><path d="m374.8 390.4.4-.4c.7.5 1.3 1 1.8 1.4l-.5.5c-.5-.6-1.1-1.1-1.7-1.5zm1 7.3-.6-.3c.5-1.4 1.1-2.8 1.5-4.3.2.1.4.2.6.3-.5 1.3-1 2.8-1.5 4.3zm-.4-10.3.4-.4c.4.3 1 .8 1.7 1.4l-.5.5c-.4-.5-1-1-1.6-1.5zm2.5.3h1.7v-1h.6v1h3.5v-1h.6v1h1.8v.5h-1.8v1.4h-2v1h3.2v2h-3.2v.9h3.3v.5h-3.4c0 .3-.1.6-.1.9h4v.5h-3.7c.7.9 1.9 1.5 3.8 1.7-.1.2-.2.4-.3.6-2.1-.4-3.5-1.1-4-2.1-.4 1-1.8 1.7-4 2.2-.1-.2-.2-.4-.3-.6 2.1-.4 3.4-1 3.8-1.8h-3.4v-.5h3.6c.1-.3.1-.6.2-.9h-3.3v-.5h3.4c0-.3 0-.6 0-.9h-3.2v-2h3.3v-1h-2.1v-1.4h-1.7v-.5zm1.1 3.5v1h2.7c0-.3 0-.4 0-.4 0-.1 0-.2 0-.2 0-.1 0-.2 0-.3h-2.7zm1.2-3v.9h3.5v-.9zm4.7 3h-2.6v.6.4h2.6z" fill="#fbfcfa"/><path d="m393.6 386.7h.6v1.5h2.7v6.1h1.1v.6h-11v-.6h1.1v-6.1h2.7v-1.5h.6v1.5h2.1v-1.5zm-2.7 8.8.4.6c-1.2.6-2.5 1.3-3.8 1.9-.1-.2-.2-.4-.3-.6 1.2-.6 2.5-1.2 3.7-1.9zm-2.2-6.7v2.4h2.1v-2.4zm0 3v2.5h2.1v-2.5zm2.8-3v2.4h2.1v-2.4zm0 3v2.5h2.1v-2.5zm6 6.1c-1.4-.7-2.7-1.3-3.9-1.8l.3-.6c1.5.6 2.7 1.2 3.9 1.7zm-1.2-9.1h-2.1v2.4h2.1zm-2.1 3v2.5h2.1v-2.5z" fill="#fbfcfa"/><path d="m231.22 245.23c-11.89-1.16-23.31-3.13-34.75-3.22-21.24-.16-42.48 1.02-63.72 1.18-11.87.09-23.67-1.31-35-5.27-.61-.21-1.18-.52-1.77-.78 0-.33-.01-.65-.01-.98 9.7-.99 19.38-2.28 29.1-2.89 14.73-.93 29.5-1.23 44.22-2.16 4.52-.29 8.96-1.77 13.44-2.74 1.77-.38 2.41-1.43 2.46-3.33.67-26.74 1.4-53.48 2.22-80.21.07-2.34-.55-3.25-2.92-3.78-27.37-6.15-54.72-12.43-82.07-18.67-1.16-.27-2.32-.56-3.43-1.31 9.67-.27 19.35-.55 29.02-.82 16.21-.45 32.43-.94 48.64-1.32 2.76-.06 4.33-.88 5.4-3.71 2.89-7.61 6.21-15.05 10.05-22.57.32 2.41.69 4.82.94 7.24 3.23 31.38 6.44 62.77 9.66 94.15.9 8.79 1.83 17.58 2.7 26.38.16 1.63.54 2.66 2.57 2.64 9.28-.09 18.57-.04 28.51-.04 1.23-6.49 2.91-12.88 3.59-19.38 3.76-35.81 2.85-71.51-3.25-107.02-.7-4.06-.88-9.11-3.38-11.69-2.46-2.53-7.53-2.64-11.51-3.56-44.13-10.16-88.25-20.28-132.37-30.41-.82-.19-1.62-.47-2.31-1.35 49.46 2.14 98.93 4.27 148.71 6.42 0-9.93 0-19.62 0-29.31.31-.23.62-.47.93-.7 2.12 2.09 4.56 3.96 6.31 6.33 4.59 6.22 5.76 13.67 7.1 21.07 2.54 13.98 1.93 28.11 2.19 42.19.74 38.83 1.4 77.66 1.99 116.49.05 3.16 1.12 5.54 3.34 7.67 6.43 6.16 14.54 7.24 22.88 8.13 9.87 1.05 19.69 2.59 29.52 3.94.4.05.78.25 1.17.37.1.35.2.7.3 1.05-5.35 1.98-10.55 4.68-16.08 5.79-8.3 1.67-16.79 2.61-25.25 3.17-16.44 1.1-21.47 11.64-24.7 24.4-2.27 8.98-.98 18.06 1.21 26.9 2.78 11.27 5.87 22.47 9.03 33.64.38 1.34 1.85 2.75 3.17 3.38 6.55 3.16 10.68 8.28 11.84 15.3 1.16 7.04 1.43 14.22 2.29 21.31.4 3.29-.85 4.96-3.99 5.54-.97.18-1.9.57-3.08.94-13.08-21.53-26.12-43.01-39.35-64.8-.99.92-1.78 1.62-2.54 2.36-14.59 14.2-28.88 28.73-43.87 42.49-10.01 9.19-22.05 15.61-34.55 20.98-.26.11-.62.01-1.3.01 37.58-37.06 70.25-77.11 86.7-129.44z" fill="#010106"/></svg>