<svg viewBox="0 0 400 400" xmlns="http://www.w3.org/2000/svg"><rect width="400" height="400" fill="white" /><path d="m236.49 279.5c-3.61 1.07-7.27 2-10.82 3.24-13.63 4.76-28.01 5.6-42.03 8.35-8.55 1.68-15.17-1.25-21.09-6.7-7.09-6.53-13.42-13.93-14.98-23.67-.89-5.55.71-11.47.8-17.23.1-6.31 3.32-10.13 8.26-13.75 6.74-4.94 12.53-11.16 19.15-16.29 4-3.1 8.77-5.24 13.25-7.7 9.69-5.32 19.72-10.07 29.04-15.95 12.89-8.13 14.17-20.36 10.3-33.33-.26-.87-1.63-1.76-2.63-1.99-6.32-1.44-12.54-.06-18.52 1.68-10.51 3.05-20.87 6.62-31.22 10.17-1.52.52-2.98 1.94-3.94 3.31-6.58 9.41-11.04 19.91-15.19 30.55-2.35 6.01-5.28 11.75-10.58 15.62-3.06 2.24-6.74 3.65-10.14 5.43-.32-.3-.65-.6-.97-.9.43-1.88.58-3.88 1.33-5.62 3.08-7.17 6.37-14.26 9.54-21.4 1.04-2.34 2.18-4.67 2.85-7.12.69-2.51-.7-4.19-3.24-3.59-6.11 1.45-12.48 2.51-16.34 8.47-2.17 3.35-9.88 5.64-13.04 3.46-1.04-.72-1.36-4.68-.42-5.7 5.51-5.95 10.11-12.84 17.43-17 7-3.97 13.84-8.24 20.67-12.49 1.14-.71 2.29-1.88 2.79-3.1 9.51-22.91 18.93-45.85 28.36-68.8.29-.7.45-1.45.71-2.28-4.9-1.82-9.75-1.08-14.34.01-11.19 2.64-22.27 5.75-33.4 8.66-5.72 1.5-11.44 2.98-17.69 4.6-.4-4.24-.78-8.16-1.17-12.27 20.9-7.71 41.63-15.36 62.66-23.12-2.05-7.12-4.03-14.07-6.08-21-.2-.69-.78-1.32-1.32-1.84-4.67-4.46-5.69-8.19-3.83-14.68 7.93 2 15.23 4.8 19.99 12.15 3.71 5.72 7.86 11.16 11.67 16.82 1.18 1.75 2.32 2.18 4.42 1.74 14.34-2.99 28.68-5.95 43.08-8.62 4.59-.85 9.34-1.01 14.02-1.01 1.32 0 3.3 1.45 3.81 2.71.75 1.85.7 4-1.84 5.35-8.49 4.52-16.86 9.25-25.28 13.91-.96.53-1.91 1.1-3.37 1.93 7.98 3.52 15.53 6.86 23.08 10.19 2.56 1.13 5.16 2.15 7.66 3.4 8.21 4.11 11.61 10.64 10.53 19.78-.5 4.21-.38 8.57-1.42 12.63-.85 3.3-2.71 6.46-4.69 9.3-1.36 1.95-3.81 3.1-5.52 4.85-4.8 4.9-10.53 7.61-17.33 8.65-5.73.87-7.7 4.29-5.59 9.44 2.37 5.77 2.81 11.6 2.28 17.71-.62 7.13-.8 14.3-1.43 21.44-.19 2.12-.86 4.42-1.98 6.21-6.54 10.45-15.88 17.64-26.9 23.01-12.95 6.3-25.75 12.92-38.5 19.61-2.41 1.26-4.58 3.23-6.45 5.25-8.31 8.99-9 15.56-.02 25.88 4.12 4.73 10.51 6.47 16.71 6.88 13.42.89 25.39-3.97 36.05-11.46 4.18-2.93 6.75-8.25 9.81-12.64 3.04-4.35 6.22-8.44 10.94-11.14 1.59-.91 2.56-.69 4.12.34 5.88 3.89 8.02 9.25 8.16 16.16.2 9.99-1.51 19.59-4.4 29.05-1.6 5.23-3.46 10.39-5.17 15.59-4.82 14.64-13.98 26.21-26.08 35.32-18.61 14.01-38.02 26.81-59.64 35.88-2.97 1.24-6.06 2.18-9.09 3.26-2.07-3.28-1.33-5.13 1.79-7.11 15.58-9.86 31.55-19.19 45.1-31.96 11.66-10.99 23.7-21.67 30.63-36.54 2.91-6.24 5.12-12.8 7.65-19.21-.31-.27-.64-.53-.96-.78zm-61.93-129.18c10.27.93 40.56-9.81 47.06-16.56-6.5-11.62-13.04-23.31-19.8-35.38-6.31 9.16-12.11 17.79-18.13 26.25-5.5 7.74-5.68 17.17-9.13 25.69zm46.25-62.91c-1.78 7.62-.03 14.23 3.6 20.58 3.38 5.91 6.48 11.99 9.91 17.87.54.92 2.21 1.75 3.3 1.67 5.38-.38 9.4-3.68 13.69-6.57 7.5-5.07 7.35-22.49-2.42-27.45-8.81-4.46-17.98-6.52-28.08-6.1z" fill="#010102"/><g fill="#fafbfa"><path d="m6.4 11.7c-1-.8-1.9-1.6-2.9-2.3l.6-.7c.9.7 1.9 1.4 2.9 2.2zm-2.1 8.3c.7-2.1 1.4-4.2 2-6.4.2.1.6.3 1 .4-.7 2.3-1.3 4.4-1.9 6.4zm3-12.8c-1.1-.9-2.1-1.7-2.9-2.4l.6-.7c1 .8 2 1.5 3 2.4zm1.4-1.3v-.9h10.2v.9c-.9 4.2-2.3 7.3-4.1 9.4 1.3 1.4 3.2 2.7 5.7 4-.2.2-.4.5-.7.9-2.5-1.4-4.4-2.7-5.7-4.2-1.4 1.5-3.5 3-6.1 4.4 0 0 0 0-.1-.1-.3-.4-.5-.7-.7-.8 2.7-1.3 4.7-2.8 6.2-4.2-1.8-2.2-3-5.3-3.7-9.4zm9.2 0h-7.1c.6 3.8 1.7 6.7 3.4 8.7 1.7-2 2.9-4.8 3.7-8.7z"/><path d="m31.6 3.6h.9v2.3h4.1v9.1h1.7v.9h-16.6v-.9h1.7v-9.1h4.1v-2.3h.9v2.3h3.1v-2.3zm-4 13.3.6.8c-1.9.9-3.8 1.9-5.8 2.8-.2-.3-.3-.6-.5-.9 2-.9 3.9-1.8 5.7-2.7zm-3.2-10.1v3.7h3.1v-3.7zm0 4.5v3.7h3.1v-3.7zm4.1-4.5v3.7h3.1v-3.7zm0 4.5v3.7h3.1v-3.7zm9.1 9.1c-2.1-1.1-4.1-2-5.8-2.7l.5-.8c2.2.9 4.1 1.8 5.8 2.6zm-1.9-13.6h-3.1v3.7h3.1zm-3.2 4.5v3.7h3.1v-3.7z"/></g></svg>