<svg viewBox="0 0 400 400" xmlns="http://www.w3.org/2000/svg"><rect width="400" height="400" fill="white" /><path d="m57.82 353.98c-1.64-10.6 6.9-13.76 13.1-18.64-.93-1.06-1.66-1.88-1.82-2.06 6.12-6.52 11.98-13.09 18.19-19.31 10.12-10.13 20.48-20.03 30.71-30.06.95-.93 1.75-2.05 2.43-3.19 2.39-4.01 1.81-8.02-1.57-11.21-11.75-11.08-22.92-22.69-32.01-36.1-5.12-7.55-7.94-16.03-8.1-25.21-.05-2.74.28-5.61 1.08-8.23 4.44-14.42 8.98-28.81 13.73-43.12.93-2.81.36-4.48-1.92-5.84-3.93-2.34-7.76-4.93-11.91-6.81-7.94-3.58-16.07-6.74-24.14-10.04-1.02-.42-2.16-.95-3.2-.87-5.2.44-8.76-2.26-12.3-5.6-5.68-5.35-11.66-10.39-17.87-15.88 8.73-2.66 17.12-3.11 25.62-2.6 18.4 1.11 34.75 8.77 51.17 16.16.4.18.78.44 1.14.71 5.74 4.25 6.72 4.09 11.58-1.27 8.72-9.61 14.78-21.01 21.71-31.83 4.99-7.8 10.5-15.28 16.09-22.68 5.54-7.33 10.05-15.04 11.4-24.61 1.24.92 2.25 1.47 2.98 2.27 1.53 1.67 3.19 1.82 5.09.83 1.74-.9 2.99-.39 4.4.96 5.51 5.25 11.46 10.06 16.66 15.59 3.53 3.76 6.8 8.12 8.92 12.79 4.06 8.92 8.46 17.52 15.12 24.76 3.32 3.6 4.71 8.02 6.18 12.48.43 1.29 1.19 2.9 2.27 3.47 3.26 1.72 4.28 4.75 5.87 7.73 5.36 10 3.78 20.72 3.61 31.23-.05 3.42-1.97 6.81-3.11 10.48 1.49.74 2.94 1.5 4.43 2.18 8.93 4.12 17.91 8.14 26.78 12.39 2.1 1.01 3.84 2.78 5.88 4.3.12-.87.3-2.07.52-3.63 3.27 1.09 6.36 2.32 9.55 3.14 11.89 3.06 23.83 5.91 35.72 8.98 13.24 3.42 26.18 7.72 37.96 14.84 4.3 2.6 8.29 5.69 12.4 8.6.62.44 1.28 1.04 1.54 1.71 1.14 3.03 3.11 4.84 6.3 5.81 2.74.83 2.68 5.64.1 8.14-3.75 3.64-8.15 4.69-13.28 3.74-28.62-5.33-56.38-13.9-84.09-22.61-2.92-.92-5.62-2.74-8.21-4.47-5.29-3.54-10.97-5.87-17.3-6.79-9.51-1.38-19.01-2.87-28.49-4.5-2.38-.41-3.33.48-4.36 2.4-9.85 18.57-19.78 37.09-29.73 55.6-1.16 2.16-2.59 4.18-3.85 6.29-.81 1.34-1.66 2.67-2.3 4.08-2.73 6.04-2.42 6.98 3.23 10.14 10.52 5.88 22.01 8.6 33.8 10.32 7.52 1.1 15.03 2.55 22.6 3.05 7.11.47 14.3-.24 21.45-.19 10.85.08 21.69.32 32.53.62 1.74.05 3.72.39 5.1 1.31 1.29.86 2.74 2.72 2.66 4.06-.1 1.68-1.27 4.04-2.68 4.78-8.52 4.44-17.09 8.85-25.96 12.51-3.42 1.41-7.66 1.09-11.52 1.08-19.01-.08-38.1.61-56.81-3.6-7.61-1.71-15.02-4.3-22.48-6.63-1.19-.37-2.21-1.43-3.2-2.29-6.66-5.85-14.54-8.9-25.09-2.83-8.25 4.75-14.03 11.61-20.16 18.37-.95 1.05-2.03 2.27-3.29 2.72-11.71 4.17-21.26 11.72-30.86 19.25-1.45 1.14-3.23 2.01-5 2.54-11.64 3.52-23.34 6.89-34.99 10.29zm70.98-97.62c3 0 5.25-.52 7.11.1 4.71 1.58 6.44 1.41 9.74-2.28 5.75-6.42 11.5-12.84 17.21-19.3.96-1.08 1.89-2.25 2.54-3.52 6.05-11.83 12.08-23.68 18.03-35.57 1.63-3.26.1-6.84-3.23-8.21-9.28-3.82-18.53-7.73-27.84-11.48-8.15-3.28-16.36-6.39-24.61-9.6-4.39 7.15-8.48 13.95-12.74 20.64-.84 1.33-2.16 2.71-3.58 3.25-6.1 2.35-10.49 6.45-13.97 11.89-1.49 2.32-2.11 4.48-1.9 7.18.7 9.23 4.96 16.64 11.57 22.76 8.21 7.63 16.69 14.97 21.67 24.14zm68.8-111.88c.01-5.84-1.21-11.33-3.64-16.61-5.78-12.56-11.35-25.23-17.36-37.68-1.33-2.77-4.06-4.88-6.26-7.19-.43-.45-1.8-.8-2.01-.56-1.71 1.98-4.59 4.11-4.57 6.18.04 6.39-2.21 12.07-4.14 17.85-2.83 8.48-5.58 17.1-11.75 23.89-6.88 7.58-3.64 12.59 3.43 16.05 8.11 3.96 16.56 7.28 24.98 10.57 5.23 2.04 10.72 3.1 16.43 2.03 2.27-.42 3.57-1.45 3.77-3.87.29-3.56.74-7.11 1.12-10.66zm22.6 14.36c-5.72-4.97-7.01-5.03-9.63-.9 2.99.28 5.95.56 9.63.9z" fill="#010000"/><g fill="#fbfcfa"><path d="m361.2 9.6.8-1c.9.7 1.9 1.4 2.9 2.3l-.9 1.1c-1-1-2-1.8-2.8-2.4zm.5 10.6c.9-2.1 1.6-4.3 2.3-6.7.4.2.8.4 1.3.6-.7 2.1-1.5 4.3-2.2 6.6zm.4-15.2.9-.9c1 .8 2 1.6 2.8 2.4l-1 1c-.9-.9-1.8-1.7-2.7-2.5zm12.5-1.2h1.2v1.4h2.7v1.1h-2.7v2.7h-1.2v-.6h-1.8v1.3h4.9v3.8h-1.2v-.5h-3.7c0 .4-.1.9-.1 1.2h5.1v1h-5.2c0 .5-.1.9-.2 1.2h6v1h-5.2c1.1 1.3 2.9 2 5.5 2.2-.4.4-.7.8-.9 1.3-2.9-.5-4.8-1.6-5.7-3.5h-.1c-.8 1.7-2.7 2.9-5.9 3.6-.2-.4-.6-.8-.9-1.1 2.8-.6 4.6-1.4 5.4-2.5h-4.8v-1h5.3c.1-.3.2-.7.2-1.2h-4.9v-1h5c0-.4 0-.8.1-1.2h-3.5v.5h-1.2v-3.8h4.9v-1.3h-1.8v.5h-1.2v-2.7h-2.7v-1h2.6v-1.4h1.2v1.4h4.7v-1.4zm-6.6 8.3h3.6c0-.4 0-.9 0-1.4h-3.6zm1.9-4.6h4.7v-1.3h-4.7zm6.6 3.2h-3.7v1.4h3.7z"/><path d="m385.3 3.8h1.3v2.2h2.8v-2.2h1.3v2.2h4.1v9.1h1.7v1.3h-16.9v-1.3h1.7v-9.1h4.1v-2.2zm.4 13.1.7 1.2c-1.8.9-3.8 1.9-6 2.9-.2-.4-.5-.8-.8-1.3 2.3-1 4.3-1.9 6.1-2.8zm-3.1-6.4h2.8v-3.2h-2.8zm0 4.6h2.8v-3.3h-2.8zm4-4.6h2.8v-3.2h-2.8zm0 4.6h2.8v-3.3h-2.8zm3.7 1.9c2.1.9 4.1 1.8 6.1 2.7l-.7 1.3c-2.2-1.1-4.2-2-6.1-2.9zm3.2-9.7h-2.8v3.2h2.8zm-2.8 7.8h2.8v-3.3h-2.8z"/></g></svg>