<svg viewBox="0 0 400 400" xmlns="http://www.w3.org/2000/svg"><rect width="400" height="400" fill="white" /><path d="m92.1 236.8c3.5-3.7 3-6.6-1.1-9-10.8-6.4-20.7-5.5-30.5 2.2-8.4 6.6-18.3 7.6-28.7 7.7.3-3.2.5-6.1.9-8.8.2-.9.9-1.9 1.6-2.5 3-2.8 6.2-5.4 9.2-8.3 2.2-2.1 4.4-3.4 7.6-3.1.9.1 2.3-.6 3-1.3 4.8-5.2 10.8-8.2 17.5-10.3 5.4-1.7 10.7-4.1 16.1-5.8 2.7-.9 3.6-2.3 3.6-5 .1-4.1.8-8.2.9-12.3.1-10.2 4.6-19.3 7.6-28.7 6.5-20 13.7-39.8 19.7-59.9 3.3-11 4.7-22.6 2.7-34.2-.6-3.2-.8-6.5-1.2-9.8-.1-.5-.2-1.1-.1-1.6.5-1.5 9.6-5.2 10.9-4.2 3.2 2.5 6.4 5.2 9.4 7.9 1.8 1.6 3.1 3.8 5 5.3 3.9 3.1 8.2 4.9 13.4 2.8 11-4.4 22.2-4.9 33.3-.2 2.2.9 4.4 2.1 6.6 3.2 7 3.6 11.3 8.9 12.1 17 .2 2.1 1.5 4.3 2.9 6.1 3.1 4 6.4 7.9 9.9 11.5 3.1 3.2 4.9 6.8 5.4 11.1.7 5.6 1.5 11.3 2 16.9.2 2.2 1 3.8 3 4.3 3.5 1 7.1 2.1 10.8 2.4 11.6 1.1 23-.8 34.3-3.4 13.3-3 26.6-4.9 40.2-4.2 3.3.2 6.7-.6 10-1.5 4.8-1.3 9.5-1 14 .9 4.7 2 9.6 4 13.9 6.8 7.1 4.8 7.2 12.9 1.1 19-5 4.9-10.5 8.8-17.4 10.3-.9.2-1.9.5-2.7.9-10 5.2-20.3 5.1-31 2.3-4.2-1.1-8.5-1.5-12.8-2.4-5.7-1.1-10.9.4-16.1 2.2-5.2 1.9-10.3 2.8-16 2.4-5.8-.3-11.7 1-17.6 1.8-4.5.6-9 1.2-13.4 2.3-11.5 2.8-19.4 9.5-23.1 21.1-1.4 4.4-3.2 8.8-5.5 12.7-2 3.5-3.6 6.9-3.9 10.9-.3 3-1.7 5.2-3.8 7.3-8.3 8.5-15.1 18-18.1 29.7-1.8 7.2-1.5 8 4.5 12.4 5 3.6 10.3 5.3 16.7 4.3 4.3-.6 9-.6 13.2.5 16.5 4.5 33.4 5 50.3 6.2 16.4 1.2 32.8 3.2 49.2 5.2 8.7 1.1 12 5.8 10.6 14-.2 1.1-1 2.4-2 2.9-8.1 4.4-16.2 8.8-24.5 12.7-2.7 1.3-6.1 1.7-9.3 1.7-15.6.2-31.1-.9-46.4-3.7-3.5-.6-6.8-2.7-10.2-4-.9-.4-2.3-1-2.9-.6-5.7 3.8-11.4 1.8-17.2.5-3.5-.8-6.6-2.1-9.2-5-3.4-3.8-8.4-5-13.2-6.4-9-2.6-18-5.5-26.9-8.4-2-.6-3.5-.6-5.4.3-5.1 2.4-9.3 5.7-12.3 10.5-1.3 2.1-3.1 3.8-4.4 5.8-5 8-11.7 14-20.2 18.1-2.4 1.2-4.3 3.7-6.1 5.8-12.9 14.9-28.9 25.2-46 34-6.4 3.3-13.2 3.4-20.1 1.4-4-1.2-2.9-4.8-3.8-7.3-.3-.8 1-2.4 2-3.3 9.7-8.3 21.1-14.1 32.1-20.2 3.4-1.9 6.8-4 9.5-6.7 13.7-13 28.3-24.7 43.3-35.9 2.4-1.8 3.3-3.9 4.3-6.6 2.2-6.2.4-10.3-4.2-14.9-4.3-4.2-8.7-6.8-14.5-7-5.4-.2-9.2-2.5-12.4-6.9-3-4.1-6.7-7.9-10.1-11.9zm123.8-109.6c-.5-4.3-.7-8.6-1.4-12.9-.8-4.7-2.3-9.3-6.7-11.7-9.4-5-18.4-10.7-26.6-17.6-4.5-3.8-10.1-4.7-15.6-1.5-2.1 1.2-4.5 2.2-6.1 3.9-6.6 6.8-13 13.9-19.4 20.9-.4.4-.6 1.1-.8 1.7-3.7 11-7.5 22-11.1 33-1.8 5.6-2.7 11.3-1.8 17.2 1.1 7.3 2.8 8.6 10.1 7.9 11.4-1.1 21.4-6.3 31.5-11.2 3.3-1.6 6.8-3 10.3-3.6 10.7-1.9 20.8-4.6 30-11.2 5.2-4 8.4-8.1 7.6-14.9zm-59.6 119.3c2.4-.3 5.1-.2 7.3-1.1 5.4-2.1 9.3-6 11.1-11.5 3.5-10.8 9.6-19.7 18.8-26.4.9-.6 1.6-1.7 2-2.7 1.6-4.6 3.1-9.2 4.5-13.9.6-2.2 1.2-4.5 1.1-6.8-.1-4-1.7-5.6-5.6-6.3-3.1-.6-6.2-1.3-9.4-1.5-2.2-.2-4.6 0-6.7.7-9.4 3.1-18.6 7-28.2 9.7-14.1 4.1-27.6 9.4-40.3 16.7-2.1 1.2-2.7 2.4-2.4 4.7 1.4 10.4 5.9 18.5 15.9 23.2 5.9 2.8 11.7 6 17 9.8 4.5 3.5 9.2 5.4 14.9 5.4z"/></svg>