<svg viewBox="0 0 400 400" xmlns="http://www.w3.org/2000/svg"><rect width="400" height="400" fill="white" /><path d="m217.82 360.35c-3.97-1.02-7.77-1.87-11.46-3.04-1.02-.33-1.83-1.56-2.58-2.5-23.14-29.21-46.24-58.45-69.43-87.62-1.84-2.31-4.16-4.36-6.58-6.07-5.47-3.88-11.11-7.53-16.77-11.14-1.72-1.1-2.43-2.23-1.33-4.04 2.84-4.7 1.32-8.49-1.72-12.65-8.77-12-16.78-24.57-25.85-36.33-4.73-6.14-11.03-11.08-16.7-16.47-5.74-5.45-10.66-11.41-13.38-19.01-1.1-3.07-.46-4.53 2.67-5.7 5.78-2.17 11.25-2.5 16.77.66 6.94 3.98 13.93 3.8 21.17.43 19.46-9.05 37.34-20.74 54.85-32.96 9.24-6.45 17.82-13.86 26.63-20.91 1.55-1.24 2.78-2.89 4.8-5.04-8.67-6.71-16.64-14.07-25.71-19.63-14.65-8.98-29.92-16.98-45.16-24.97-6.3-3.3-13.25-5.34-19.78-8.23-5.58-2.47-9.64-6.54-10.83-12.77-.18-.96.52-2.45 1.29-3.16 4.51-4.15 9.92-3.58 15.46-2.9 20.7 2.55 40.95 6.89 60.71 13.69 11.24 3.87 19.12 11.67 26.47 20.37 2.53 2.99 4.78 6.24 7.53 9 2.5 2.52 5.36 4.74 8.3 6.74 5.26 3.57 10.4 4.4 16.82 1.48 14.62-6.67 29.56-12.71 44.62-18.35 13.78-5.16 28.3-6.58 42.94-5.94 20.6.89 32.33 12.04 36.98 30.9 1.28 5.2.17 11.17-.65 16.67-1.85 12.37-4.15 24.66-6.42 36.96-.24 1.28-1.34 2.52-2.3 3.52-9.73 10.2-19.77 20.13-29.18 30.62-4.35 4.85-7.74 10.64-11.01 16.32-1.03 1.79-.8 4.77-.2 6.94 1.21 4.4 3.11 8.61 4.65 12.92 1.73 4.85 3.74 9.42 7.08 13.54 4.51 5.55 6.59 12.37 8.09 19.31.78 3.61 1.66 7.2 2.24 10.83 1.08 6.72 3.24 13 7.33 18.48 5.1 6.82 6.92 14.81 8.93 22.87 5.25 21.02 10.9 41.94 16.38 62.91 1.68 6.43 1.92 12.77-1.31 19.1-3.75-1.03-6.46-2.48-8.26-6.39-18-38.95-36.3-77.76-54.38-116.67-3.33-7.18-6.01-14.65-9.14-21.93-.92-2.14-2.29-4.09-3.55-6.07-5.33-8.38-12.24-10.77-21.61-7.33-2.93 1.08-5.73 2.5-8.53 3.9-15.01 7.48-29.95 15.09-45.02 22.42-3.03 1.47-6.54 1.99-9.85 2.83-1.51.38-3.12.35-4.63.72-4.68 1.15-7.05 5.47-5.19 9.88 5.94 14.09 11.83 28.21 18.16 42.13 1.91 4.21 5.25 7.76 7.89 11.65 4.78 7.03 9.76 13.94 14.21 21.17 5.38 8.72 7.72 18.22 5.54 28.86zm-95.04-174.76c-.33.09-.65.19-.98.28 1.63 4.8 2.59 9.99 5.05 14.32 4.01 7.07 8.92 13.64 13.66 20.27.83 1.16 2.74 2.35 4.03 2.24 6.96-.63 14.19-.71 20.78-2.73 24.14-7.42 46.06-19.45 66.13-34.67 7.52-5.71 7.62-3.56 3.61-13.32-6.54-15.87-16.49-29.64-28.64-41.76-1.95-1.95-4.35-3.51-6.72-4.95-.83-.51-2.41-.53-3.3-.09-11.24 5.57-21.94 12.01-31.75 19.88-11.85 9.52-23.52 19.29-35.79 28.24-4.65 3.38-6.41 7.01-6.08 12.29zm185.27-92.48c.03-9.19-4.61-15.83-11.92-18.28-.86-.29-2.02-.25-2.86.09-19.91 7.98-39.79 16.05-59.7 24.03-1.68.67-2.27 1.59-1.81 3.28 1.47 5.48 2.26 11.28 4.54 16.4 5.96 13.36 15.58 24.19 25.7 34.54.69.7 2.5.82 3.61.53 7.25-1.96 13.21-5.95 17.73-11.97 4.64-6.17 8.94-12.62 13.88-18.53 7.69-9.19 9.64-20.15 10.83-30.09z" fill="#010104"/><g fill="#fcfbfa"><path d="m385.2 377.6.6-.7c.6.4 1.3.9 1.9 1.5l-.6.7c-.8-.5-1.4-1-1.9-1.5zm.3 7.1c.6-1.4 1.1-2.9 1.5-4.5.3.1.6.3.9.4-.5 1.4-1 2.9-1.5 4.4zm.2-10.1.6-.6c.7.5 1.3 1.1 1.9 1.6l-.7.7c-.6-.6-1.2-1.2-1.8-1.7zm8.4-.8h.8v.9h1.8v.7h-1.8v1.8h-.8v-.3h-1.2v.9h3.3v2.6h-.8v-.4h-2.5c0 .3 0 .6-.1.8h3.4v.7h-3.5c0 .3-.1.6-.1.8h4v.7h-3.5c.7.9 1.9 1.3 3.6 1.5-.2.2-.4.5-.6.9-1.9-.3-3.2-1.1-3.8-2.3-.5 1.1-1.8 2-3.9 2.4-.2-.3-.4-.5-.6-.8 1.9-.4 3.1-.9 3.6-1.7h-3.2v-.7h3.5c.1-.2.1-.5.2-.8h-3.3v-.7h3.4c0-.2 0-.5 0-.8h-2.4v.3h-.8v-2.6h3.3v-.9h-1.2v.3h-.8v-1.8h-1.8v-.7h1.8v-.9h.8v.9h3.2zm-4.4 5.5h2.4c0-.3 0-.6 0-.9h-2.4zm1.2-3.1h3.2v-.8h-3.2zm4.4 2.2h-2.4v.9h2.5v-.9z"/><path d="m389.2 385.8h.9v1.5h1.9v-1.5h.9v1.5h2.7v6h1.1v.9h-11.3v-.9h1.1v-6h2.7zm.2 8.7.5.8c-1.2.6-2.5 1.3-4 1.9-.2-.3-.3-.6-.6-.8 1.6-.6 3-1.3 4.1-1.9zm-2-4.3h1.9v-2.1h-1.9zm0 3.1h1.9v-2.2h-1.9zm2.7-3.1h1.9v-2.1h-1.9zm0 3.1h1.9v-2.2h-1.9zm2.4 1.3c1.4.6 2.7 1.2 4.1 1.8l-.5.9c-1.5-.7-2.8-1.4-4.1-1.9zm2.2-6.5h-1.9v2.1h1.9zm-1.9 5.2h1.9v-2.2h-1.9z"/></g></svg>