<svg viewBox="0 0 400 400" xmlns="http://www.w3.org/2000/svg"><rect width="400" height="400" fill="white" /><path d="m374.8 390.4.4-.4c.7.5 1.3 1 1.8 1.4l-.5.5c-.5-.6-1.1-1.1-1.7-1.5zm1 7.3-.6-.3c.5-1.4 1.1-2.8 1.5-4.3.2.1.4.2.6.3-.5 1.3-1 2.8-1.5 4.3zm-.4-10.3.4-.4c.4.3 1 .8 1.7 1.4l-.5.5c-.4-.5-1-1-1.6-1.5zm2.5.3h1.7v-1h.6v1h3.5v-1h.6v1h1.8v.5h-1.8v1.4h-2v1h3.2v2h-3.2v.9h3.3v.5h-3.4c0 .3-.1.6-.1.9h4v.5h-3.7c.7.9 1.9 1.5 3.8 1.7-.1.2-.2.4-.3.6-2.1-.4-3.5-1.1-4-2.1-.4 1-1.8 1.7-4 2.2-.1-.2-.2-.4-.3-.6 2.1-.4 3.4-1 3.8-1.8h-3.4v-.5h3.6c.1-.3.1-.6.2-.9h-3.3v-.5h3.4c0-.3 0-.6 0-.9h-3.2v-2h3.3v-1h-2.1v-1.4h-1.7v-.5zm1.1 3.5v1h2.7c0-.3 0-.4 0-.4 0-.1 0-.2 0-.2 0-.1 0-.2 0-.3h-2.7zm1.2-3v.9h3.5v-.9zm4.7 3h-2.6v.6.4h2.6z" fill="#fbfcfa"/><path d="m393.6 386.7h.6v1.5h2.7v6.1h1.1v.6h-11v-.6h1.1v-6.1h2.7v-1.5h.6v1.5h2.1v-1.5zm-2.7 8.8.4.6c-1.2.6-2.5 1.3-3.8 1.9-.1-.2-.2-.4-.3-.6 1.2-.6 2.5-1.2 3.7-1.9zm-2.2-6.7v2.4h2.1v-2.4zm0 3v2.5h2.1v-2.5zm2.8-3v2.4h2.1v-2.4zm0 3v2.5h2.1v-2.5zm6 6.1c-1.4-.7-2.7-1.3-3.9-1.8l.3-.6c1.5.6 2.7 1.2 3.9 1.7zm-1.2-9.1h-2.1v2.4h2.1zm-2.1 3v2.5h2.1v-2.5z" fill="#fbfcfa"/><path d="m173.84 301.48c-2.67 3.44-2.75 6.37-1.69 9.14 4.3 11.33 3.89 23.31 5.02 35.07.09.98.09 2.11-.32 2.96-2.54 5.32-2.16 10.8-1.34 16.39.57 3.88-.46 7.26-4.19 9.77-2.72-8.39-7.04-16.42-7.59-24.71-.79-11.75-4.52-22.95-4.82-34.69-.29-11.63-.86-23.25-1.3-34.87 0-.1.07-.2.2-.52 4.53-2.06 9.04-.33 11.83 2.68 9.06 9.78 20.57 15.4 32.49 20.23 12.37 5.01 23.43 11.99 34.03 19.91 8.43 6.29 16.96 12.45 25.45 18.66.8.58 1.64 1.11 3.33 2.26 0-4.85.45-9.06-.08-13.14-1.98-15.22-7.26-29.28-16.38-41.67-2.41-3.27-6.04-5.61-8.97-8.53-5.78-5.76-12.43-10.05-19.95-13.26-6.67-2.85-13.03-6.41-19.56-9.58-13.81-6.71-20.94-18.13-22.8-32.97-1.39-11.07-2.28-22.21-3.24-33.33-.42-4.88-2.65-8.07-7.43-8.96-6.15-1.14-12.38-1.87-18.56-2.87-7.83-1.28-14.34-4.5-19.88-10.66-6.42-7.15-10.36-15.38-14.4-23.88-8.78-18.46-18.3-36.57-27.44-54.86-.77-1.54-1.16-3.37-1.29-5.1-.89-11.6-1.67-23.22-2.47-34.83-.08-1.21-.01-2.42-.01-3.1 4.42 0 8.74.37 12.98-.1 4.68-.52 8.95.17 13.47 1.42 4.86 1.35 10.1 1.35 15.15 2.06 2.29.32 4.64.68 6.8 1.46 6.52 2.35 12.95 4.92 19.43 7.36 1.03.39 2.14.79 3.21.76 10.65-.26 10.65-.28 19.67 4.41 2.71-4.69 3.38-9.76 3.37-15.09-.02-6.68.27-13.36.52-20.03.05-1.19.6-2.35.91-3.5 5.11.39 8.87 4.23 9.07 10.29.19 5.67-.84 11.37-.76 17.05.07 5.09.47 10.26 1.53 15.21.92 4.25 2.57 4.58 6.34 2.64 1.63-.84 3.16-1.01 4.32.9.69 1.14 1.74 2.07 2.4 3.22 1.9 3.28 4.48 4.32 8.41 4.53 3.7.19 7.37 2.28 10.93 3.84 3.37 1.48 6.51 3.47 9.85 5.03 11.63 5.41 18.06 15.53 24.22 26.04 4.94 8.43 7.88 17.43 9.55 27.01 1.3 7.46 2.78 14.95 4.97 22.19 2.77 9.17 4.42 18.44 5.03 27.97.09 1.41 1.07 3.15 2.19 4.06 4.98 4.06 11.05 5.65 17.15 7.22 3.44.88 6.94 1.86 10.09 3.45 4.55 2.29 6.96 6.33 7.59 11.9-5.83-1.15-11.89-1.1-16.52-3.64-3.68-2.01-6.63-2.48-10.42-2.15-1.74.15-3.59-1.01-6.25-1.85-.44 4.41-.89 8.53-1.26 12.67-.26 2.89.04 5.92-.73 8.65-.7 2.48-2.52 4.65-3.85 6.95-.47-.13-.93-.26-1.4-.39-.87-4.74-1.76-9.48-2.61-14.22-.75-4.18-1.51-8.37-2.13-12.57-.28-1.88-1.24-2.75-2.98-3.5-17.66-7.64-36.59-10.89-54.98-16.01-5.9-1.64-11.85-3.06-17.99-4.63-2.28 7.42-2.71 14.77-1.55 22.09 1.35 8.49 3.21 16.91 5.07 25.31.31 1.4 1.51 3 2.76 3.72 13.45 7.78 26.97 15.46 40.55 23.02 2.1 1.17 4.55 1.9 6.93 2.35 4.19.8 7.2 3.06 9.92 6.24 8.43 9.86 13.46 21.35 16.28 33.82 2.91 12.86 5.82 25.76 7.72 38.79.86 5.92-.7 12.19-1.19 18.3-.1 1.22-.35 2.44-.45 3.66-.18 2.2-.55 4.17-3.95 3.48-.59-2.12-1.48-4.53-1.9-7.02-.79-4.74-3.93-7.46-8.12-8.39-6.54-1.46-11.98-4.77-17.35-8.47-4.6-3.17-9.36-6.13-13.91-9.38-4.14-2.96-8.41-5.41-13.57-6.14-1.35-.19-2.69-1.06-3.85-1.88-7.59-5.36-14.99-10.99-22.72-16.12-5.25-3.5-10.94-6.32-16.58-9.53zm82.18-108.17c.03-.12.06-.25.09-.37.56 0 1.12.04 1.68-.01 4.34-.39 5.32-1.52 4.64-5.8-1.6-10.05-3.29-20.08-4.97-30.11-2.2-13.1-5.44-25.86-13.18-36.96-5.49-7.87-10.41-16.6-19.82-20.4-11.37-4.6-23.04-8.46-34.64-12.5-2.26-.79-5.67 1.44-6.01 3.9-.8 5.63-2.17 11.37-1.76 16.96 1.56 21.19 3.71 42.33 5.76 63.47.09.88 1.19 2.1 2.08 2.41 8.23 2.87 16.43 5.84 24.79 8.26 11.26 3.25 22.65 6.04 33.98 9.04 2.46.67 4.9 1.41 7.36 2.11zm-82.93-67.85c0-12.3-.27-24.61.13-36.9.16-4.97-2.02-7.74-6.07-9.12-9.28-3.15-18.67-5.98-28.06-8.8-5-1.5-10.66-1.73-14.99-4.29-7.11-4.19-14.55-4.57-22.25-4.57-4.01 0-7.31 3.87-6.21 7.67 1.32 4.57 3.02 9.08 5.05 13.39 2.51 5.34 5.75 10.37 6.42 16.41.47 4.25 2.44 7.69 4.9 11.15 2.61 3.67 4.58 7.82 6.57 11.89 3.98 8.11 7.5 16.46 11.74 24.43 5.86 11 13.79 19.8 26.91 22.14 1.43.25 2.83.93 4.24.91 2.65-.04 5.34-.2 7.91-.76 2.62-.57 3.84-2.21 3.79-5.3-.2-12.75-.08-25.5-.08-38.25z" fill="#010101"/></svg>