<svg viewBox="0 0 400 400" xmlns="http://www.w3.org/2000/svg"><rect width="400" height="400" fill="white" /><path d="m56 334.6c-2.7-9.9-1.3-19.5.6-29.1.8-3.9 1.7-7.9 2.2-11.8.3-2.3-.3-4.7-.5-7s-.8-4.6-.5-6.8c2.2-12.2 4.6-24.3 6.9-36.4.2-1 .5-2.1.4-3.1-1.1-14.3 1.6-28.2 4.9-42 1.8-7.3 3.2-14.7 4.7-22 .9-4.3-1.2-8.8-5-11-.8-.5-1.7-.9-2.5-1.3-2.9-1.4-4.8-3.4-5.1-7-.2-1.8-1.2-4-2.6-5.1-7.8-6.2-11.8-14.3-13.9-23.8-2.1-9.7-5.2-19.2-4.6-29.3.8-12.9 6.6-23.2 16.6-31.2.7-.6 1.9-.7 3-.8 5.5-.6 11-.6 16.4-1.6 7.4-1.4 14.9-3.1 22-5.6 7.6-2.7 14.9-2.9 22.7-1.6 3.4.6 7.1.1 10.6-.5 5.7-1 11.3-3.3 17-3.7 5.8-.4 11.7.7 17.5 1.5 4.7.6 9.3 2.3 14 2.5 5.6.3 10.5-1.7 14.1-6.5 3.8-5 7.8-9.7 12-14.4.9-1 2.6-1.7 3.9-1.6 9.4.8 17.5 4.2 23.2 12.4 3.9 5.5 9.9 8.5 16.3 9.7 3.3.6 7-.8 10.6-1.4 11.9-1.8 23.8-1.3 35.8-.4 9.9.8 19.8 2.1 29.7 2.7 4.4.2 9-.8 13.4-1.4 1.8-.2 3.4-1 5.2-1.4 3.6-.7 8.3 2.4 7.3 7.4-2 9.5-3.5 19.1-5 28.7-.3 1.9-.2 4 .4 5.8 3.5 11.8 2.2 23-3.4 33.8-.5 1-1.8 1.8-3 2.3-10.3 3.9-20.7 7.4-30.9 11.5-3.7 1.5-7 3.9-10.8 6.1-1.9-4.9-6.3-4.1-10.7-4-6.8 0-13.5-.8-20.3-.9-15.4-.3-30.7.1-45.9 2.4-3.7.6-5.6 2.3-6.8 5.5-2.3 5.8-2.3 11.8-1.2 17.8 1.3 6.8 2.7 13.5 4.2 20.2 1.2 5.1 7.9 9.9 13.1 9.4 3.8-.3 7.6-.7 11.3-1.7 1.7-.5 3.2-2.2 4.6-3.6 1.5-1.5 2.8-3.1 4.8-4.5-.2 1-.3 2.1-.5 3.1-.7 3.6.5 5.7 4.1 6.7 1.4.4 2.9.5 4.4.6 17.5 1.2 35 2.3 52.5 3.5 7.4.5 14.8 1.2 22.1 2 1.2.1 2.8 1.1 3.3 2.1 10.3 18.7 14.9 39 16.7 60 .4 4.8-.2 9-4.1 12.3-1.6 1.4-2.8 3.2-4.1 4.8-6 7.5-13 11.7-23.1 9.2-5.6-1.4-11.5-2-17.3-2.1s-11.6.8-17.3 1.6c-3.3.5-5.9-.2-8.7-1.8-1.3-.7-3.4-1.1-4.6-.6-7.7 3.5-15.6 4-23.8 2.2-13-2.9-26.1-1.2-39.2-1-12.3.2-24.5.8-36.8 1.8-6.9.6-13.8 2-20.5 3.7-9.6 2.5-14.7 9.6-16.7 18.9-.9 4.2-1.3 8.6-1.6 12.9-.1 1 .6 2.5 1.4 3.2 5.2 4.4 11.2 7.2 18.2 7 4.7-.1 9.3-.3 13.9-.7 7.7-.7 15.4-.1 23.1 1 4.5.6 9.3.2 13.9 0 21.1-1.2 42.3-1.7 63.5-.3.6 0 1.3.1 1.9.3 2.9.6 5.5.5 8.3-1.2 5.8-3.5 12.5-3.7 19.1-4 11.5-.7 23-1.3 34.5-1.9.7 0 1.6.1 2 .5 4.9 4.9 8.8 10.2 9.6 17.4.2 2-.2 3.3-2.3 3.7-5.3.8-10.6 2.2-15.9 2.3-11.1.1-22.2-.6-33.3-.8-2.9 0-6 .3-8.7 1.2-8 2.7-16.1 3-24.3 1.4-14.6-2.7-29.3-1.7-44-1.5-14.8.2-29.6.4-44.5.4-6.9 0-13.4 1.4-19.7 4.1-4.6 2-9.3 3.6-14.4 2.3-1.3-.3-2.8-1.1-3.6-2.1-6.9-8.3-10.7-18.1-11.9-28.6-1.3-10.8-1.8-21.7-2.5-32.6-.1-1.3.8-3 1.8-4 2.3-2.3 3.7-4.7 4.1-8 .6-5 2.2-6.3 7.2-7 11.8-1.7 23.6-3.8 35.5-5.1 7.3-.8 14.8-.9 22.1-.2 12.8 1.2 25.6 1.9 38.3.1 21.1-3 42.2-1.5 63.3-.1 10.5.7 20.9.7 31.2-2.3 10.9-3.2 14.3-7.9 13.5-19.2-.1-2.3-.7-4.6-1-6.9-1.5-14.3-12.1-19.8-23.5-24.7-11.7-5-24.2-5.7-36.7-6.3-19.8-.9-38.9 3.1-57.8 8.5-2.5.7-3.7.1-5.1-2-5.6-8.9-11.5-17.5-13.5-28.1-2.1-11-2.3-22-.2-33.1.7-3.8.9-7.8.4-11.6-.7-4.8-3.3-7-8.1-6.7-8.7.4-17.5 1.1-26.2 2.2-9.8 1.3-19.5 2.7-29.4 1.2-.7-.1-1.5.1-2.1.3-8.1 3.1-16.1 6.4-24.1 9.4-4.8 1.8-8.1 4.9-8.9 10.2-.6 4.4-.2 8.4 4 11.5 4.3 3.2 8.4 6.8 12.2 10.6 7.5 7.5 16.2 13.2 26.1 16.9 2.4.9 3.2 2.3 3.2 4.7.1 3.6.3 7.2.8 10.8.3 1.9-.6 3-2.2 3.2-2.2.3-4.6.7-6.8.2-3.1-.7-6-2-9-3.1-.5-.2-1.2-.4-1.3-.7-1.7-4-5.3-4.1-8.8-5.1-2.6-.8-5.3-2.3-7.4-4.1-4.7-4-9.1-8.3-13.6-12.4-2.9-2.7-9.4-1.6-11.4 1.9-5.8 10.6-9.5 21.9-11.6 33.7-4.3 23.9-5.7 48.1-6 72.4-.1 5.8-1.1 11.8-2.5 17.5-1.6 6.3-5.8 8.4-12.3 7.2zm108.2-258.4v.5c-15.8 1-31.7 1.6-47.5 3.1-11.6 1.1-23.2 3.5-34.7 5.4-4.1.7-7.4 2.7-10 6.1-2.5 3.2-5.7 6-8.2 9.2-1.2 1.5-2.4 3.6-2.2 5.3.7 9 1.8 18 2.9 27 .4 3 2.1 5.4 4.6 7.3 4.4 3.4 8.5 7 12.8 10.4 1.1.8 2.6 1.4 4 1.5 6.3.5 11-2.6 14.9-7.1 8.3-9.4 18-15.9 30.4-18.8 10.7-2.5 21.3-5.5 32.5-4 7.1 1 14.2 2 21.4 2.8 1.3.1 3.1-.4 4.1-1.3 3.8-3.7 7.4-7.6 10.8-11.6.8-.9 1.1-2.6 1.1-3.9-.3-5.9-1.1-11.8-1.1-17.7 0-7.1-7.3-14.5-14.5-14.3-7.1.2-14.2.1-21.3.1zm106-.4c-13.1-.7-22.4-.8-31.7-1.8-6.1-.7-10.9.4-14.7 5.4-.7.9-1.6 1.7-2.6 2.4-4.2 2.7-5.1 6.5-5 11.3.1 9.7 1.2 18.9 6.2 27.5 2.1 3.6 4.6 5.4 8.7 6.2 17.9 3.2 35.9 3.7 54.1 3.1 11.2-.4 22.3-2 33.1-5.1 8-2.3 13.8-6 14-15.3 0-1.4.6-2.7.8-4 .5-6.3 1.2-12.6 1.5-18.9.1-2.5-.9-4.4-4.1-4.9-21.2-3.9-42.6-5.5-60.3-5.9z"/></svg>