<svg viewBox="0 0 400 400" xmlns="http://www.w3.org/2000/svg"><rect width="400" height="400" fill="white" /><path d="m136.39 196.66c-.36-6.96-.68-13.65-1.06-20.33-1.07-18.55-2.14-37.09-3.36-55.63-.08-1.18-1.27-2.74-2.37-3.32-2.86-1.49-5.93-2.61-8.98-3.71-5.14-1.87-8.31-5.77-11.31-10.45 28.81-9.61 57.3-19.11 85.94-28.66-1.51-16.51-3.01-32.85-4.51-49.21 13.87.33 22.64 8.09 22.95 18.73.14 4.78 1.02 9.54 1.7 14.29.2 1.41.74 2.81 1.3 4.14 2.45 5.89 3.23 6.28 9.43 4.79 10.11-2.42 20.21-4.86 30.31-7.35 1.17-.29 2.42-.67 3.36-1.37 6.45-4.86 13.9-5.88 21.62-5.71 3.57.08 7.13.53 10.68.96 6.18.75 9.41 5.17 8.23 11.4-.32 1.7-1.03 3.5-2.07 4.87-5.48 7.17-6.25 14.27-3.39 23.26 5.1 16.01 4.61 32.44-1.98 48.27-.66 1.57-1.81 3.1-3.1 4.22-9.65 8.35-19.36 16.63-29.12 24.85-1.53 1.29-1.96 2.56-1.88 4.57.27 7.38.38 14.77.25 22.15-.21 12.52-6.48 22.27-14.57 31.18-7.32 8.06-16.18 14.03-25.41 19.62-11.16 6.76-20.33 15.67-27.82 26.37-1.82 2.6-2.27 5.11-1.82 8.15 1.71 11.72 4.09 23.42 4.68 35.21 1.01 20.08-4.51 38.06-20.55 51.57-1.53 1.29-3.3 2.3-5.02 3.34-1.03.63-2.18 1.06-3.59 1.74-2.33-4.41-2.47-8.96-1.55-13.42 1.01-4.9 2.72-9.66 4.02-14.51 2.24-8.39 5.26-16.69 6.37-25.23 1.28-9.77-.79-19.34-6.42-27.88-4.31-6.54-3.59-13.88-2.74-21.15.22-1.88.73-3.73 1.09-5.6 1.47-7.71 4.66-14.09 10.54-19.88 9.24-9.09 20.39-15.23 30.73-22.63 5.45-3.9 11.25-7.43 16.17-11.92 7.85-7.16 10.62-16.77 11.2-27.56-8.93 2.98-17.49 5.84-26.06 8.68-14.41 4.79-28.86 9.5-43.21 14.47-1.87.65-3.82 2.33-4.81 4.07-3.87 6.75-4.4 14.16-3.65 21.79.77 7.83-2.66 13.7-9.33 16.54-.5.21-1.05.3-2 .57-.81-5.63-1.41-11.13-2.46-16.55-.76-3.92-1.91-7.79-3.27-11.55-.9-2.49-2.86-3.88-5.85-3.25-6.53 1.38-13.22 2.19-19.6 4.06-10.96 3.22-15.21 1.01-17.66-10.31-.4-1.83-.54-3.72-.84-5.85 13.6-3.61 26.97-7.16 40.79-10.83zm21.08-7.36c23.91-10.13 47.31-20.05 70.23-29.77-5.52-15.3-10.81-30.34-16.4-45.26-1.87-5-4.23-9.86-6.87-14.51-3.42-6.02-3.82-5.96-10.16-3.5-13.74 5.34-27.48 10.69-41.39 16.11 1.52 25.54 3.04 50.97 4.59 76.93zm67.96-99.72c.52 9.3 2.57 17.84 6.34 25.92 5.1 10.93 10.31 21.81 15.61 32.64.42.86 1.97 1.71 2.95 1.66 5.03-.24 9.26-2.32 12.51-6.24 3.14-3.79 6.35-7.53 9.37-11.42.83-1.07 1.49-2.57 1.54-3.89.3-8.39.59-16.78.52-25.17-.06-6.41-.78-12.82-4.94-18.12-1.33-1.69-3.19-3.9-5-4.1-4.74-.53-9.84-1.02-14.34.17-8.29 2.18-16.25 5.58-24.56 8.55z" fill="#010102"/><g fill="#fafbfa"><path d="m6.4 11.7c-1-.8-1.9-1.6-2.9-2.3l.6-.7c.9.7 1.9 1.4 2.9 2.2zm-2.1 8.3c.7-2.1 1.4-4.2 2-6.4.2.1.6.3 1 .4-.7 2.3-1.3 4.4-1.9 6.4zm3-12.8c-1.1-.9-2.1-1.7-2.9-2.4l.6-.7c1 .8 2 1.5 3 2.4zm1.4-1.3v-.9h10.2v.9c-.9 4.2-2.3 7.3-4.1 9.4 1.3 1.4 3.2 2.7 5.7 4-.2.2-.4.5-.7.9-2.5-1.4-4.4-2.7-5.7-4.2-1.4 1.5-3.5 3-6.1 4.4 0 0 0 0-.1-.1-.3-.4-.5-.7-.7-.8 2.7-1.3 4.7-2.8 6.2-4.2-1.8-2.2-3-5.3-3.7-9.4zm9.2 0h-7.1c.6 3.8 1.7 6.7 3.4 8.7 1.7-2 2.9-4.8 3.7-8.7z"/><path d="m31.6 3.6h.9v2.3h4.1v9.1h1.7v.9h-16.6v-.9h1.7v-9.1h4.1v-2.3h.9v2.3h3.1v-2.3zm-4 13.3.6.8c-1.9.9-3.8 1.9-5.8 2.8-.2-.3-.3-.6-.5-.9 2-.9 3.9-1.8 5.7-2.7zm-3.2-10.1v3.7h3.1v-3.7zm0 4.5v3.7h3.1v-3.7zm4.1-4.5v3.7h3.1v-3.7zm0 4.5v3.7h3.1v-3.7zm9.1 9.1c-2.1-1.1-4.1-2-5.8-2.7l.5-.8c2.2.9 4.1 1.8 5.8 2.6zm-1.9-13.6h-3.1v3.7h3.1zm-3.2 4.5v3.7h3.1v-3.7z"/></g></svg>