<svg enable-background="new 0 0 400 400" viewBox="0 0 400 400" xmlns="http://www.w3.org/2000/svg"><path d="m57.48 274.47c7.48-1.19 13.61.54 19.81 2.74 5.86 2.08 12.02 3.31 17.99 5.08 1.14.34 2.32 1.23 3.03 2.2 6.44 8.87 12.78 17.81 19.38 27.04.67-.83 1.25-1.42 1.7-2.11 8.93-13.81 17.82-27.64 26.8-41.42 2.14-3.29 2.44-6.83 2.37-10.59-.05-2.67.36-5.35.62-8.6 6.18 2.38 11.44 4.24 16.54 6.45 2.74 1.19 5.83 9.03 4.89 12.55-1.73 6.45-3.55 12.86-8.06 18.2-9.24 10.95-18.24 22.09-27.35 33.15-2.64 3.21-1.89 9.59 1.56 11.99 2.2 1.53 4.48 2.96 6.84 4.23 6.42 3.46 12.17 2.6 16.82-3.07 4.46-5.43 8.84-11.02 12.48-17.01 4.07-6.72 5.68-13.91-.43-20.7-.79-.88-1.26-2.05-2.28-3.75 1.9-.17 3.42-.76 4.56-.33 4.9 1.85 10.16 3.31 14.39 6.23 4.74 3.27 6.6 8.97 5.73 14.64-.73 4.75-2.37 9.51-4.44 13.87-2.38 5.03-5.57 9.69-8.63 14.37-1.53 2.34-.82 4.06 1.29 4.8 2.56.89 5.41 1.48 8.11 1.39 10.05-.31 20.08-.99 30.12-1.43 5.25-.23 10.58.21 15.74-.56 2.33-.35 4.97-2.51 6.29-4.59 1.43-2.26-.16-4.58-2.48-6.17-6.27-4.3-12.44-8.75-18.69-13.08-6.36-4.41-10.45-10.19-11.47-18.16 5.7-.92 10.89.29 15.84 2.39 8.13 3.44 16.16 7.12 24.19 10.78 1.07.49 1.96 1.42 2.85 2.22 1.49 1.34 2.79 2.96 4.42 4.09 3.55 2.47 7.74 1.4 9.84-2.32 1.98-3.51 3.95-7.02 5.91-10.53.1-.18.09-.43.22-1.08-2-1.42-4.03-3.18-6.34-4.43-10.02-5.42-20.1-10.74-30.21-15.99-7.18-3.73-14.15-7.73-19.84-13.59-1.61-1.66-3.01-3.52-5.07-5.95 6.51-.43 12.23-.81 18.4-1.22-.7-13.77-1.4-27.36-2.13-41.71-7-.91-13.92-2.28-20.9-2.64-26.48-1.38-52.44 1.82-77.85 9.51-9.62 2.91-19.39 5.36-29.09 8.01-3.86 1.05-5.91-.14-6.3-4.03-.29-2.85-.06-5.76-.06-8.79 1.06 0 1.89-.22 2.53.04 4.79 1.92 9.34 1.11 13.95-.8 8.97-3.7 18.37-6.55 26.95-11 14.15-7.33 29.4-11.12 44.41-15.87 10.78-3.41 21.96-3.96 32.91-6.06 8.66-1.67 13.31-6.57 13.2-14.46-6.01-1.95-12.1-1.19-18.12.02-11.39 2.28-22.74 4.75-34.1 7.15-.54.11-1.41.18-1.53.5-1.3 3.47-3.91 2.05-6.17 1.69-8.95-1.41-17.87-2.93-26.83-4.28-3.06-.46-5.68-1.45-8.1-3.5-6.06-5.13-12.13-10.31-18.57-14.93-4.42-3.18-4.43-7.07-3.56-11.54.09-.43.23-.89.46-1.26 6.63-10.55 6.37-22.29 5.9-34.06-.13-3.21.44-5.9 2.51-8.66 3.51-4.67 4.35-10.44 4.9-16.17.15-1.56.2-3.13.36-4.69.76-7.45 1.78-14.97-6.37-19.18.26-.69.28-.98.41-1.06 7.08-3.95 7.22-5.2 4.72-12.81-2.49-7.55-7.03-13.3-13.06-18.18-2.15-1.74-4.06-3.77-6.23-5.8 5.71-3.85 10.96-7.26 18.28-6.21 7.95 1.14 16.09.99 23.68 4.1 5.47 2.24 10.3 5.33 13.62 10.43 1.4 2.15 2.9 4.27 4.53 6.25 2.56 3.12 4.59 6.22 1.14 10.28.17.27.34.54.51.8 1.51 0 3.06.25 4.51-.04 24.57-4.83 49.16-9.57 73.69-14.64 19.13-3.96 37.95-3.2 56.77 1.9 7.86 2.13 16 3.19 23.9 5.22 7.2 1.84 10.39 7.07 9.59 14.03-.28 2.41-1.19 3.82-3.71 3.5-5.73-.73-11.58-1.06-17.14-2.49-9.54-2.44-18.95-5.65-28.96-4.49-15.76 1.83-31.55 3.58-47.22 6.04-18.11 2.84-36.05 6.58-54.49 7.18-5.79.19-11.58 2.3-17.24 3.96-1.74.51-3.33 2.24-4.53 3.77-5.23 6.69-7.92 14.45-8.98 22.8-.15 1.18-.02 2.4-.02 4.08h3.96c12.98.04 25.97-.36 38.92.26 9.57.46 19.25 1.47 28.57 3.59 16.55 3.76 25.66 15.04 29.2 31.43 3.98 18.4 3.05 36.68-.27 55-.36 1.96-.6 4.01-.47 5.99.9 14.22-1.08 28.05-5.02 41.71-2.07 7.19-3.4 14.59-5.33 21.82-.62 2.33.1 3.46 2.08 4.01 5.05 1.39 10.08 3.03 15.23 3.88 7.72 1.28 15.53 1.96 23.3 2.93 3.27.41 5.6-.64 7.74-3.38 6.33-8.13 8.61-17.58 9.63-27.47.57-5.56.57-11.17.99-16.74.17-2.3-.64-3.8-2.55-4.97-1.62-.99-3.14-2.15-4.67-3.27-.9-.66-1.87-1.29-2.59-2.12-3.04-3.53-2.03-7.85 2.43-8.59 5.82-.97 11.75-.64 17.09 2.43 5.51 3.18 10.86 6.64 16.42 9.75 9.05 5.06 11.39 16.3 5.02 24.59-7.36 9.59-12.12 20.53-16.71 31.62-5.33 12.89-10.71 25.8-16.98 38.24-7.56 14.99-20.78 24.98-33.72 35.01-7.64 5.92-15.81 10.96-25.07 14-1.48.49-3.05 1.16-4.54 1.07-13.41-.82-26.07 3.58-39.08 5.45-2.78.4-5.77.13-8.55-.41-11.63-2.26-23.29-4.44-34.79-7.27-4.8-1.18-9.18-3.99-13.82-5.91-5.06-2.09-9.35-5.07-12.79-9.4-2.01-2.53-4.36-4.81-6.65-7.11-12.41-12.5-23.86-25.82-33.3-40.7-5.88-9.26-13.85-16.3-22.18-23.1-2.25-1.78-4.41-3.67-7.11-5.98zm130.43-149.05v.66c-4.02 0-8.04-.07-12.06.02-8.44.19-16.7 1.37-24.33 5.26-1.11.56-2.37 1.5-2.82 2.58-2.06 4.93-4.2 9.87-5.64 14.99-1.61 5.73.94 12.89 5.12 14.88 9.08 4.34 18.61 7.09 28.8 6.25 3.86-.32 8.08-.88 10.18-4.78 3.12-5.8 8.15-7.04 14.04-6.74 2.45.13 4.91.25 7.34.56 4.69.58 9.06-.05 13.26-2.38 2.74-1.52 3.64-3.72 3.42-6.61-.52-6.74-2.78-12.88-6.88-18.23-3.48-4.55-8.19-6.67-14.01-6.5-5.48.16-10.95.04-16.42.04z" fill="#010105"/><g fill="#fcfbfa"><path d="m377.9 391.2c-.2.3-.4.5-.6.8-.7-.6-1.4-1-2.2-1.5.2-.3.4-.5.5-.8.6.4 1.4.8 2.3 1.5zm-1.8 6.1c-.2-.2-.5-.4-.9-.6.4-.6.8-1.2 1.2-1.9s.7-1.3.9-1.9c.3.3.5.5.8.7-.7 1.3-1.4 2.6-2 3.7zm2.2-9c-.3.3-.5.5-.6.8-.6-.6-1.3-1.1-2-1.5.3-.3.5-.5.6-.7.6.5 1.3.9 2 1.4zm.3.2v-.9h2 4.5c-.3 1.3-.6 2.5-1 3.6s-.9 2.1-1.4 3c.4.5 1 1 1.6 1.4s1.2.8 1.9 1.1c-.3.2-.5.4-.8.8-.4-.3-1-.7-1.6-1.2s-1.2-1.1-1.6-1.6c-.5.6-1.1 1.1-1.7 1.6s-1.4.9-2.1 1.4c-.1-.3-.3-.5-.7-.8.6-.2 1.2-.5 1.9-1s1.4-1.1 2-1.8c-.5-.8-.9-1.6-1.2-2.5s-.6-2-.8-3.2c-.4.1-.7.1-1 .1zm2.5 2.7c.3 1 .7 1.7 1 2.2.3-.5.6-1.1 1-2s.6-1.9.9-3h-3.2-.4c.1.9.3 1.8.7 2.8z"/><path d="m396.5 388.5v1.5 3.6h1.5v.9c-.4 0-1 0-1.7 0h-7.9c-.5 0-.9 0-1.2 0v-.9h1.3v-3.5c0-.7 0-1.2 0-1.6h2.4c0-.8 0-1.4 0-1.7h1c0 .3-.1.8-.1 1.7h1.5c0-.8 0-1.4 0-1.7h1c0 .3-.1.9-.1 1.7zm-8.2 9.2c-.2-.3-.5-.5-.8-.8.8-.3 1.4-.6 1.9-.9s1-.7 1.4-1.1c.3.3.6.5.9.8-1.6 1-2.8 1.6-3.4 2zm2.6-6.8v-1.6h-1.5v1.6zm0 2.7v-1.9h-1.5v1.9zm2.4-2.7v-1.6h-1.5v1.6zm0 2.7v-1.9h-1.5v1.9zm.2 2 .7-.8c.4.2.9.5 1.6.8s1.3.7 1.8 1c-.3.3-.5.5-.8.8-.4-.3-1.5-1-3.3-1.8zm2-4.7v-1.6h-1.4v1.6zm0 2.7v-1.9h-1.4v1.9z"/></g></svg>