<svg enable-background="new 0 0 400 400" viewBox="0 0 400 400" xmlns="http://www.w3.org/2000/svg"><path d="m154.49 371.25c-3.94 5.53-10.48 5.18-17.01 4.08-4.72-.8-9.35-2.18-14.01-3.38-5.84-1.5-11.03-4.03-15.06-8.79-4.25-5.02-9.1-9.56-13.1-14.76-2.01-2.62-2.71-6.24-4.05-9.53 1.38-.7 2.22-1.13 3.07-1.56-5.55-6.01.75-11.12.46-16.85 4.85.38 8.74 1.16 11.34 5.33 1.76 2.81 3.89 5.53 6.35 7.73 3.21 2.88 4.98 2.49 7.05-1.14 7.69-13.51 9.98-27.85 6.02-42.99-.3-1.14-1.28-2.41-2.3-3-6.68-3.83-13.22-8.03-20.26-11.07-11.24-4.86-13.01-12.94-11.53-23.55.12-.85 1.38-1.98 2.3-2.19 5.88-1.33 11.94-1.48 17.56.57 12.35 4.5 25 4.35 37.78 3.49 1.67-.11 3.37-.38 5.02-.22 6.79.68 12.6-1.51 18.27-5.12 2.39-1.52 5.68-1.89 8.63-2.23 10.17-1.16 20.07-3.17 29.24-7.97 6.12-3.21 12.71-4.77 19.55-5.48 1.21-.13 2.33-1.06 3.4-1.99 10.08.61 18.87-3.85 27.57-8.01 5.48-2.62 10.45-6.37 15.46-9.88 1.03-.72 1.65-2.61 1.72-4 .21-4.47.09-8.95.08-13.43-.01-3.52-1.57-5.13-4.88-4.18-4.35 1.25-8.94 2.28-12.07 6.07-.28.34-.66.61-.94.96-6.33 7.74-14.27 12.86-23.9 15.75-3.88 1.16-7.31 3.8-10.98 5.7-12.93 6.71-27.11 9.66-40.99 13.51-2.8.78-5.74 1.23-8.38 2.38-11.21 4.9-22.7 1.94-34.09 1.41-1.17-.05-2.41-1.08-3.43-1.9-7.07-5.68-13.97-11.56-21.15-17.09-4.58-3.53-7.33-8.03-8.75-13.5-2.81-10.85-3.58-21.84-1.92-32.93.41-2.72 1.38-5.41 2.47-7.96 5.15-12.02 10.64-23.89 15.59-35.99 4.45-10.87 5.75-22.47 6.77-34.09 1.45-16.58.79-33.07-1.65-49.54-.87-5.87-.27-11.62 3.97-16.41 1.81-2.05 3.72-2.41 6.27-1.47 4.76 1.75 7.57 5.26 8.66 9.93 1.14 4.87 1.64 9.89 2.44 14.84.41 2.53.6 5.13 1.31 7.58 1.83 6.33 2.12 12.63 1.41 19.21-.8 7.44-1.04 14.98-.88 22.46.31 14.81-4.74 27.8-12.65 40.22 2.53 1.81 1.4 3.6-.21 5.66-11.45 14.61-14.86 31.45-13.38 49.56.32 3.91 2.08 7.12 5.04 9.89 7.82 7.34 16.31 13.1 27.64 12.18 5.11-.41 10.16-1.53 15.25-2.18 3.95-.5 7.93-.72 11.89-1.14.83-.09 1.64-.42 2.42-.73 3.67-1.47 7.21-3.67 11.01-4.34 8.76-1.54 16.88-4.53 24.15-9.52 12.07-8.3 23.94-16.9 35.86-25.41 2.76-1.97 3.12-6.42.33-8.34-6.92-4.77-14-9.56-23.11-8.03-2.59.43-5.11 1.32-7.62 2.14-3.07 1.01-6.03 2.43-9.15 3.23-8.26 2.1-14.93 6.8-21.46 12.01-12.81 10.24-26.63 18.85-42.02 24.79-2.68 1.04-5.26 1.72-8.09.87-.85-.26-1.75-.45-2.63-.49-5.31-.22-9.54-1.94-12.36-6.94-2.54-4.5-2.6-9.13-2.21-13.95.07-.89.33-1.76.47-2.64 1.39-8.43 1.53-8.75 9.72-10.53 2.57-.56 3.81-1.65 4.36-4.18.23-1.07 1.35-2.33 2.38-2.8 11.88-5.4 24.06-9.65 37.36-9.66 1.36 0 2.9-.47 4.07-1.19 13.81-8.58 28.64-14.44 44.5-18.13 6.21-1.45 12-4.68 18.35-7.25.42.47 1.21 1.35 1.99 2.23 4.22-3.84 10.81-3.63 15.71.28 8.25 6.59 14.72 14.69 19.47 24.01 1.67 3.27 1.76 7.34 2.6 11.04.9 3.91 1.21 8.12 2.9 11.67 3.57 7.5 5.22 15.21 4.27 23.38-1.17 10.02 2.45 19.42 3.24 29.17.25 3.08 1.52 6.45-1.36 9.16-.32.3-.47 1.18-.27 1.58 2.5 5.07.29 10.12-.04 15.16-.58 8.71-1.28 17.41-1.97 26.11-.11 1.33-.32 2.67-.65 3.97-.99 3.85-2.73 7.48.23 11.52 1.04 1.43.48 4.41-.03 6.52-1.12 4.6-.59 9.68-3.86 13.7-.24.3.2 1.18.35 1.78 2.22 8.74 4.74 17.42 6.49 26.26.59 2.98-.7 6.35-1.29 9.52-.11.6-.92 1.07-1.82 2.04-5.17-10.11-13.14-18.33-13.56-30.19-.13-3.8-2.01-7.03-5.85-9.76-5.37 4.89-11.2 9.45-16.12 14.85-6.71 7.36-14.43 12.73-23.63 16.59-8.31 3.48-16.32 7.84-24.04 12.51-6.9 4.18-14.06 7.04-21.96 8.55-11.2 2.14-22.29 4.83-33.45 7.12-1.5.34-3.19-.33-5.69-.67zm97.28-68.77c-3.38-3.88-6.02-7.45-9.21-10.44-3.9-3.66-8.27-6.83-12.42-10.22-2.58-2.11-3.89-4.89-4.03-8.16-.19-4.35.07-8.74-.44-13.04-.33-2.76-1.36-5.59-2.73-8.03-1.31-2.33-3.36-2.84-6.16-1.22-16.85 9.74-34.05 18.75-52.95 24.05-6.57 1.84-12.14 5.67-16.85 10.59-.94.98-1.59 2.68-1.59 4.04 0 5.25.58 10.51.48 15.76-.24 13.19.12 26.56-9.27 37.54-1.4 1.63.87 6.12 2.98 6.08 7.66-.14 14.82-2.1 19.79-8.24 7.65-9.44 10.03-20.25 6.51-32.07-1.28-4.3-1.37-8.51.1-12.85 6.03.67 10.37 3.79 13.64 8.45 6.26 8.93 9.76 18.15 2.93 28.54-.87 1.32-.97 3.45-.68 5.08.16.9 2.03 2.31 2.86 2.14 11.11-2.29 21.09-7.03 30.22-14.32-3.03-6.69-6.09-13.14-8.85-19.7-.89-2.12-1.03-4.56-1.66-7.58-3.51-1.85-3.47-1.85-3.92-7.18-.15-1.78-.17-3.7-.88-5.27-1.17-2.6-.52-4.81.68-7.01 1.23-2.25 2.56-4.46 3.97-6.6 1.32-2 6.99-2.65 8.31-.71 5.3 7.77 13.14 13.91 15.44 23.64.15.63.44 1.31.88 1.76 3.75 3.83 7.55 7.6 11.42 11.48 3.56-2.03 6.93-3.95 11.43-6.51zm18.6-31.62c2.96-3.36 5.57-6.28 8.12-9.26.91-1.06 2.39-2.27 2.37-3.39-.11-5.77-.12-11.63-1.13-17.28-.97-5.38-6.26-7.59-11.43-5.6-9.16 3.52-18.31 7.06-27.46 10.6-.87.34-1.71.76-2.83 1.27 7.81 8.76 15.36 17.22 22.95 25.73 2.71-1.44 5.16-2.74 8.11-4.31.54.95 1.11 1.92 1.3 2.24z" fill="#010102"/><g fill="#fcfbfa"><path d="m377.9 391.2c-.2.3-.4.5-.6.8-.7-.6-1.4-1-2.2-1.5.2-.3.4-.5.5-.8.6.4 1.4.8 2.3 1.5zm-1.8 6.1c-.2-.2-.5-.4-.9-.6.4-.6.8-1.2 1.2-1.9s.7-1.3.9-1.9c.3.3.5.5.8.7-.7 1.3-1.4 2.6-2 3.7zm2.2-9c-.3.3-.5.5-.6.8-.6-.6-1.3-1.1-2-1.5.3-.3.5-.5.6-.7.6.5 1.3.9 2 1.4zm.3.2v-.9h2 4.5c-.3 1.3-.6 2.5-1 3.6s-.9 2.1-1.4 3c.4.5 1 1 1.6 1.4s1.2.8 1.9 1.1c-.3.2-.5.4-.8.8-.4-.3-1-.7-1.6-1.2s-1.2-1.1-1.6-1.6c-.5.6-1.1 1.1-1.7 1.6s-1.4.9-2.1 1.4c-.1-.3-.3-.5-.7-.8.6-.2 1.2-.5 1.9-1s1.4-1.1 2-1.8c-.5-.8-.9-1.6-1.2-2.5s-.6-2-.8-3.2c-.4.1-.7.1-1 .1zm2.5 2.7c.3 1 .7 1.7 1 2.2.3-.5.6-1.1 1-2s.6-1.9.9-3h-3.2-.4c.1.9.3 1.8.7 2.8z"/><path d="m396.5 388.5v1.5 3.6h1.5v.9c-.4 0-1 0-1.7 0h-7.9c-.5 0-.9 0-1.2 0v-.9h1.3v-3.5c0-.7 0-1.2 0-1.6h2.4c0-.8 0-1.4 0-1.7h1c0 .3-.1.8-.1 1.7h1.5c0-.8 0-1.4 0-1.7h1c0 .3-.1.9-.1 1.7zm-8.2 9.2c-.2-.3-.5-.5-.8-.8.8-.3 1.4-.6 1.9-.9s1-.7 1.4-1.1c.3.3.6.5.9.8-1.6 1-2.8 1.6-3.4 2zm2.6-6.8v-1.6h-1.5v1.6zm0 2.7v-1.9h-1.5v1.9zm2.4-2.7v-1.6h-1.5v1.6zm0 2.7v-1.9h-1.5v1.9zm.2 2 .7-.8c.4.2.9.5 1.6.8s1.3.7 1.8 1c-.3.3-.5.5-.8.8-.4-.3-1.5-1-3.3-1.8zm2-4.7v-1.6h-1.4v1.6zm0 2.7v-1.9h-1.4v1.9z"/></g></svg>