<svg enable-background="new 0 0 400 400" viewBox="0 0 400 400" xmlns="http://www.w3.org/2000/svg"><path d="m6.8 9.5c.6.3 1.3.7 2.1 1.1-.4.4-.7.8-.9 1.2-.7-.4-1.3-.8-1.8-1.1s-1.1-.6-1.6-.8c.2-.4.5-.8.7-1.2.4.2.8.5 1.5.8zm.9 6.9c-.3.6-.5 1.1-.7 1.7s-.4 1.1-.6 1.7c-.6-.4-1.1-.7-1.6-1 .7-1 1.2-1.8 1.5-2.4.3-.5.6-1.1.8-1.7.3-.6.5-1.2.8-1.8.3.3.8.6 1.3.8-.7 1.3-1.2 2.2-1.5 2.7zm.1-11c.4.3 1 .7 1.7 1.1-.5.2-.8.6-1.1 1.1-.5-.6-1-1-1.4-1.2s-.9-.6-1.5-.8c.2-.4.5-.7.9-1.1.5.3.9.6 1.4.9zm10.5 13.1c1 .4 2 .6 3.1.7-.4.4-.7.8-.8 1.3-.9-.2-1.9-.6-3-.9-1-.4-2-.9-2.8-1.6-.5.4-1.1.9-1.9 1.3s-1.9.9-3.3 1.2c-.1-.3-.5-.8-1.1-1.3 1 0 2.1-.3 3.2-.8 1.2-.5 1.9-1 2.3-1.7h-3.2c-.4 0-1 0-2 .1v-1.2c1 0 1.7.1 2 .1h3.3v-1h-2.3c-.2 0-.9 0-2 .1v-1.2c1.2 0 1.9.1 2 .1h2.3v-.8h-4.1c0-.7.1-1.2.1-1.6 0-.5 0-1.1-.1-1.8h4.1v-.7h-2.5c0-.6.1-1.1.1-1.6v-.6h-.5c-.4 0-1 0-1.8.1v-1.3c1.2 0 1.9.1 2.1.1h.2c0-.3 0-.8-.1-1.4h1.4c0 .6-.1 1-.1 1.4h3.4c0-.4 0-.8-.1-1.3h1.5c0 .4-.1.9-.1 1.3.7 0 1.5 0 2.5-.1v1.2c-1 0-1.8-.1-2.5-.1v.6c0 .3 0 .8.1 1.5h-2.5v.8h4.1c0 .7-.1 1.3-.1 1.8s0 1 .1 1.5h-4.1v.8h1.4c.8 0 1.8 0 2.9-.1v1.2c-1 0-1.9-.1-2.8-.1h-1.5v1h3.2c.3 0 1 0 2.1-.1v1.2c-1.1 0-1.8-.1-2.1-.1h-3.4l-.1.1c1.4 1 2.4 1.5 3.4 1.9zm-4.1-6.7v-1.3h-2.7v1.3zm2.2-4.1v-1.1h-3.4v1.1zm1.9 4.1v-1.3h-2.8v1.3z" fill="#fafbfa"/><path d="m37 6.7v2.3 5.4c1 0 1.8 0 2.2-.1v1.3c-.6 0-1.5-.1-2.5-.1h-11.9c-.7 0-1.3 0-1.8.1v-1.3c.5 0 1.1.1 2 .1v-5.2c0-1 0-1.8-.1-2.5h3.7c0-1.3 0-2.1-.1-2.5h1.5c0 .4-.1 1.3-.1 2.5h2.2c0-1.2 0-2.1-.1-2.6h1.5c0 .4-.1 1.3-.1 2.6zm-12.3 13.7c-.3-.4-.7-.8-1.1-1.1 1.1-.4 2.1-.9 2.9-1.3.8-.5 1.5-1 2.1-1.6.4.4.9.8 1.3 1.1-2.5 1.4-4.2 2.4-5.2 2.9zm3.9-10.1v-2.4h-2.2v2.4zm0 4.1v-2.9h-2.2v2.9zm3.5-4.1v-2.4h-2.2v2.4zm0 4.1v-2.9h-2.2v2.9zm.4 2.9 1-1.1c.6.3 1.4.7 2.5 1.3s2 1.1 2.7 1.5c-.4.4-.8.8-1.1 1.3-.8-.8-2.5-1.7-5.1-3zm3.1-7v-2.4h-2.1v2.4zm0 4.1v-2.9h-2.1v2.9z" fill="#fafbfa"/><g fill="#010103"><path d="m241.52 283.42c-4.94.46-9.71.95-14.49 1.28-.67.05-1.91-.6-2-1.09-.21-1.17-.34-2.81.3-3.58 1.62-1.95 3.68-3.52 5.86-5.51-5.94-1.05-8.5-.47-10.91 3.93-2.99 5.47-6.7 6.78-12.71 5.33-18.1-4.37-36.52-2.42-54.78-1.44-9.34.5-17.17-3.22-25.44-6.06-.96-.33-1.73-1.36-2.44-2.2-5.22-6.14-10.56-12.18-15.56-18.5-5.05-6.38-7.45-14.05-8.64-21.92-5.04-33.41-10.31-66.85-9.04-100.8.59-15.63 2.57-31.2 3.52-46.82.52-8.58.53-17.22.16-25.8-.42-9.55-.79-19 2.19-28.25 1.57-4.87 1.54-4.88 6.79-6.94 5.66 4.98 8.13 11.17 7.19 18.78-.39 3.2-1.13 6.57-.51 9.62 1.72 8.52 8.19 13.14 15.98 14.29 12.01 1.78 24.24 2.17 36.38 3.01 13.37.93 26.86.58 39.99 3.95 3.71.95 6.5 2.84 7.72 6.67.72 2.27.46 4.03-2.17 4.57-7.96 1.65-15.87 3.94-23.91 4.66-9.78.88-19.68.35-29.52.57-11.52.26-23.03.75-34.55.95-3.35.06-5.01 1.7-5.57 4.62-.52 2.73-.88 5.53-.89 8.31-.03 5.26-.09 10.55.46 15.77.8 7.7.27 15.18-2.33 22.46-1.81 5.09-1.66 10.08-.78 15.42 2.08 12.67 2.81 25.59 5.38 38.14 3.29 16.07 7.99 31.85 11.77 47.82.98 4.13 3.06 6.46 6.77 8.26 14.78 7.17 30.59 10.57 46.61 13.18 11.29 1.84 22.61 2.68 34.08 1.39 7.08-.8 13.82.85 19.67 5.19 3.49 2.59 5.39 6.08 5.42 10.74z"/><path d="m106.72 317.47c4.32 1.93 7.98 3.27 11.35 5.13 13.24 7.29 27.72 10.08 42.38 12.87 17.98 3.42 36.04 5.07 54.27 5.81 7.03.29 14.03 1.06 21.05 1.52 9.11.6 15.56-3.38 20.07-11.26 5.93-10.36 8.77-21.66 11.27-33.17 2.47-11.37-.14-22.17-2.69-33.09-1.13-4.85-1.64-9.91-1.9-14.9-.47-9.16-.13-18.38-.97-27.5-.42-4.53-2.72-8.89-4.14-13.34-1.58-4.97-4.22-9.92-4.38-14.94-.16-5.07-2.07-8.46-4.96-12.09-3.26-4.1-6.13-8.54-8.95-12.97-6.16-9.65-15.2-14.01-26.3-14.95-11.91-1.01-23.84-1.94-35.7-3.44-3.93-.5-7.64-2.69-11.46-4.11-.01-.57-.02-1.14-.02-1.72 5.83-2.02 11.58-4.28 17.49-6.03 22.34-6.6 43.32-.35 64.01 7.36 3.44 1.28 6.61 3.83 9.29 6.42 2.25 2.18 3.69 5.23 5.34 7.98 2.02 3.37-.53 5.83-2.28 8.63 7.54 1.72 11.07 7.09 13.48 13.5 1.22 3.24 2.26 6.55 3.57 9.76 2.14 5.27 3.13 10.69 2.65 16.37-.91 10.79 1.77 21.17 4.25 31.45 2.68 11.11 3.34 22.02.39 33.04-2.48 9.27-1.97 18.31 1.38 27.24 1.31 3.47 1.31 6.92.26 10.48-.66 2.24-.86 4.62-1.45 6.89-2.1 8.12-1.36 15.54 2.99 23.12 5.82 10.15 10.54 20.94 15.72 31.43-6.07 3.89-12.38 3.86-17.83-.26-1.26-.95-2.05-2.59-2.91-4-1.69-2.77-3.46-5.51-4.85-8.43-1.32-2.8-3.5-3.71-6.31-4.16-8.96-1.42-17.59.18-26.15 2.6-7.64 2.16-15.24 4.58-23.34 3.98-6.82-.51-13.11-2.57-18.83-6.41-.83-.56-2.48-.98-3.14-.55-6.11 4.03-12.93 4.46-19.73 3.43-22.29-3.37-43.18-11.21-63.47-20.77-1.23-.58-2.36-2.03-2.88-3.34-2.24-5.54-4.21-11.19-6.57-17.58z"/></g></svg>