<svg enable-background="new 0 0 400 400" viewBox="0 0 400 400" xmlns="http://www.w3.org/2000/svg"><g fill="#fbfafc"><path d="m12.4 4.8-6.1 9h6v1.2h-8v-.5l6.1-8.9h-5.7v-1.2h7.6v.4z"/><path d="m14 15v-10.6h3c1.6 0 2.9.5 4 1.4s1.6 2.2 1.6 3.8-.5 3-1.6 3.9-2.4 1.5-4 1.5zm1.4-9.4v8.2h1.6c1.3 0 2.4-.4 3.1-1.1s1.1-1.8 1.1-3.1-.4-2.3-1.2-3-1.8-1-3.1-1z"/><path d="m26.1 4.4v10.6h-1.4v-10.6z"/><path d="m36.1 14.6c-.8.4-1.8.6-2.9.6-1.5 0-2.7-.5-3.6-1.4s-1.4-2.2-1.4-3.8c0-1.7.5-3.1 1.5-4.1s2.3-1.6 3.9-1.6c1 0 1.8.1 2.5.4v1.4c-.8-.4-1.6-.6-2.5-.6-1.2 0-2.1.4-2.9 1.2s-1.1 1.8-1.1 3.2c0 1.3.3 2.3 1 3s1.6 1.1 2.7 1.1c1 0 2-.2 2.7-.7v1.3z"/><path d="m37.6 14.3c0-.2.1-.5.3-.6s.4-.3.6-.3c.3 0 .5.1.6.3s.3.4.3.6-.1.4-.3.6-.4.3-.6.3c-.3 0-.5-.1-.6-.3s-.3-.4-.3-.6z"/><path d="m50.2 15h-1.6l-5.3-8.2c-.2-.2-.3-.5-.4-.7 0 .2.1.7.1 1.5v7.4h-1.4v-10.6h1.7l5.2 8.1c.2.4.4.6.4.7 0-.3-.1-.8-.1-1.5v-7.3h1.4z"/><path d="m58.6 15h-5.7v-10.6h5.5v1.2h-4.1v3.4h3.8v1.2h-3.8v3.6h4.3z"/><path d="m67.1 5.6h-3.1v9.4h-1.4v-9.4h-3v-1.2h7.5z"/></g><path d="m133.16 141.71c4.51.65 8.21-.06 12.06-2.77 9.67-6.8 21-9.73 32.36-12.41 9.87-2.33 20-2.95 29.88-5.75 7.56-2.14 15.33.39 22.37 5.34 13.14 9.24 17.88 23.3 23.13 37.19 1.42 3.75 2.28 7.7 3.44 11.55 2.35 7.83.28 15.51-.7 23.25-.67 5.32-.96 10.69-1.54 16.02-.16 1.48-.76 2.91-.91 3.49 0 3.25.33 5.74-.05 8.11-2.18 13.46-4.54 26.89-6.84 40.33-.17.99-.25 2.03-.63 2.94-4.59 10.98-6.07 22.64-7.24 34.31-1.03 10.28-3.6 20.06-8.59 29.06-5.4 9.76-7.63 20.4-9.88 31.13-.66 3.18-2.08 6.45-4.03 9.01-1.15 1.51-4.05 2.27-6.14 2.22-.92-.02-2.46-2.88-2.51-4.48-.09-3.39-.08-7.06 1.1-10.16 10.04-26.41 14.57-54.12 19.24-81.75 1.97-11.63 1.81-23.63 2.45-35.47.24-4.38-6.59-10.3-10.97-9.07-12.59 3.54-25.54 2.34-38.3 3.5-4.68.43-9.35.88-14.01 1.43-3.26.39-6.27.13-8.6-2.62-3.77 3.58-8.38 3.03-12.78 3.07-4.81.05-9.49-.02-14.17 1.83-2.29.9-5.29.03-7.96-.03-1.21-.02-2.63-.42-3.61.06-5.77 2.82-11.4-.03-17.07-.25-1.83-.07-4.12-5.51-3.2-8.01.77-2.09 2.04-4.28 3.71-5.69 3.54-2.99 8.02-3.53 12.57-3.93 6.42-.56 12.77-1.88 19.19-2.37 5.67-.43 11.4-.03 17.09-.27 5.66-.23 11.29-.96 16.95-1.17 4.79-.18 9.61-.1 14.4.16 4.72.25 9.21-.01 13.85-1.39 3.24-.96 7.06-.33 10.57.06 5.07.57 10.04 2.18 15.18.14 4.12-1.63 6.65-4.31 7.25-8.77 1.71-12.63-.23-24.98-3.03-37.23-.66-2.89-5.47-4.64-8.8-3.12-2.28 1.04-4.32 2.72-6.23 4.39-4.63 4.02-8.76 8.72-13.77 12.17-6.83 4.71-14.95 5.64-23.14 5.45-11.24-.27-22.31-1.61-32.89-5.65-1.5-.57-2.98-1.52-4.13-2.64-3.2-3.12-6.01-6.68-9.37-9.62-8.86-7.74-10.61-18.09-10.6-28.89.01-11.03 3.13-21.55 8.21-31.19 3.09-5.86 8.09-10.69 11.82-16.25 7.58-11.29 17.71-20.11 27.55-29.24.9-.83 2.06-1.6 2.53-2.65 3.8-8.62 11.44-14.5 15.97-22.59 1.03-1.84 2.51-3.44 3.62-5.25 4.86-7.86 12.31-10.99 21.1-11.8 2.89-.27 4.89 1.09 5.8 3.56 1.41 3.85 1.57 7.27-1.38 11.15-9.18 12.1-17.85 24.6-26.48 37.1-1.5 2.17-2.66 5.15-2.58 7.71.21 6.79 4.97 11.25 12.27 11.17 8.71-.1 17.4-1.46 26.1-1.51 11.13-.06 20.61-5.56 30.9-8.33 9.27-2.49 18.46-5.3 27.71-7.87 1.81-.5 3.75-.62 5.64-.74 4.35-.27 6.35 1.41 6.8 5.74.07.64-.32 1.52-.8 1.99-3.59 3.56-7.47 6.54-12.39 8.33-9.23 3.37-18.05 7.97-27.43 10.75-10.79 3.2-21.93 5.39-33.05 7.2-5.43.88-11.17-.39-16.74-.14-5.21.23-10.37 1.33-15.58 1.77-6.11.51-12.25.74-18.37 1.05-11.29.57-21.34 4.73-30.46 11.04-5.12 3.58-6.94 9.62-5.86 16.3zm44.64 31.57c.08-.3.16-.61.24-.91 10.88-.1 20.67-3.11 28.82-10.61 2.73-2.51 4.8-8.33 3.58-10.95-1.69-3.62-5.24-3.27-8.42-3.54-5-.43-10.01-.98-15.02-1.13-2.2-.06-4.48.53-6.61 1.2-2.96.93-5.87 2.1-8.71 3.36-4.25 1.89-8.65 3.58-12.57 6.03-4.12 2.57-3.17 10.28 1.43 11.84 5.64 1.91 11.5 3.17 17.26 4.71z" fill="#000001"/></svg>