<svg enable-background="new 0 0 400 400" viewBox="0 0 400 400" xmlns="http://www.w3.org/2000/svg"><path d="m6.8 9.5c.6.3 1.3.7 2.1 1.1-.4.4-.7.8-.9 1.2-.7-.4-1.3-.8-1.8-1.1s-1.1-.6-1.6-.8c.2-.4.5-.8.7-1.2.4.2.8.5 1.5.8zm.9 6.9c-.3.6-.5 1.1-.7 1.7s-.4 1.1-.6 1.7c-.6-.4-1.1-.7-1.6-1 .7-1 1.2-1.8 1.5-2.4.3-.5.6-1.1.8-1.7.3-.6.5-1.2.8-1.8.3.3.8.6 1.3.8-.7 1.3-1.2 2.2-1.5 2.7zm.1-11c.4.3 1 .7 1.7 1.1-.5.2-.8.6-1.1 1.1-.5-.6-1-1-1.4-1.2s-.9-.6-1.5-.8c.2-.4.5-.7.9-1.1.5.3.9.6 1.4.9zm10.5 13.1c1 .4 2 .6 3.1.7-.4.4-.7.8-.8 1.3-.9-.2-1.9-.6-3-.9-1-.4-2-.9-2.8-1.6-.5.4-1.1.9-1.9 1.3s-1.9.9-3.3 1.2c-.1-.3-.5-.8-1.1-1.3 1 0 2.1-.3 3.2-.8 1.2-.5 1.9-1 2.3-1.7h-3.2c-.4 0-1 0-2 .1v-1.2c1 0 1.7.1 2 .1h3.3v-1h-2.3c-.2 0-.9 0-2 .1v-1.2c1.2 0 1.9.1 2 .1h2.3v-.8h-4.1c0-.7.1-1.2.1-1.6 0-.5 0-1.1-.1-1.8h4.1v-.7h-2.5c0-.6.1-1.1.1-1.6v-.6h-.5c-.4 0-1 0-1.8.1v-1.3c1.2 0 1.9.1 2.1.1h.2c0-.3 0-.8-.1-1.4h1.4c0 .6-.1 1-.1 1.4h3.4c0-.4 0-.8-.1-1.3h1.5c0 .4-.1.9-.1 1.3.7 0 1.5 0 2.5-.1v1.2c-1 0-1.8-.1-2.5-.1v.6c0 .3 0 .8.1 1.5h-2.5v.8h4.1c0 .7-.1 1.3-.1 1.8s0 1 .1 1.5h-4.1v.8h1.4c.8 0 1.8 0 2.9-.1v1.2c-1 0-1.9-.1-2.8-.1h-1.5v1h3.2c.3 0 1 0 2.1-.1v1.2c-1.1 0-1.8-.1-2.1-.1h-3.4l-.1.1c1.4 1 2.4 1.5 3.4 1.9zm-4.1-6.7v-1.3h-2.7v1.3zm2.2-4.1v-1.1h-3.4v1.1zm1.9 4.1v-1.3h-2.8v1.3z" fill="#fafbfa"/><path d="m37 6.7v2.3 5.4c1 0 1.8 0 2.2-.1v1.3c-.6 0-1.5-.1-2.5-.1h-11.9c-.7 0-1.3 0-1.8.1v-1.3c.5 0 1.1.1 2 .1v-5.2c0-1 0-1.8-.1-2.5h3.7c0-1.3 0-2.1-.1-2.5h1.5c0 .4-.1 1.3-.1 2.5h2.2c0-1.2 0-2.1-.1-2.6h1.5c0 .4-.1 1.3-.1 2.6zm-12.3 13.7c-.3-.4-.7-.8-1.1-1.1 1.1-.4 2.1-.9 2.9-1.3.8-.5 1.5-1 2.1-1.6.4.4.9.8 1.3 1.1-2.5 1.4-4.2 2.4-5.2 2.9zm3.9-10.1v-2.4h-2.2v2.4zm0 4.1v-2.9h-2.2v2.9zm3.5-4.1v-2.4h-2.2v2.4zm0 4.1v-2.9h-2.2v2.9zm.4 2.9 1-1.1c.6.3 1.4.7 2.5 1.3s2 1.1 2.7 1.5c-.4.4-.8.8-1.1 1.3-.8-.8-2.5-1.7-5.1-3zm3.1-7v-2.4h-2.1v2.4zm0 4.1v-2.9h-2.1v2.9z" fill="#fafbfa"/><g fill="#010103"><path d="m326.42 163.47c5.08 5.51 9.97 10.73 14.71 16.08.59.67.84 2.4.4 3.09-5.97 9.19-7.15 19.59-8.83 30.13-3.8 23.9-10.4 47.13-20.15 69.35-1.49 3.4-3.76 6.6-6.22 9.41-7.45 8.5-15.14 16.79-22.82 25.09-.92.99-2.34 2.25-3.47 2.2-13.17-.56-24.47 5.51-36.22 9.97-5.64 2.14-11.25 4.36-16.8 6.71-1.36.58-2.68 1.63-3.6 2.79-4.82 6.09-6.99 13.14-7.28 20.85-.09 2.33-.13 4.73-.7 6.97-1.39 5.47-7 9.46-12.59 9.15-.67-.04-1.48-.49-1.92-1.01-4.95-5.89-8.12-12.09-7.12-20.43 2.24-18.66-5.75-27.59-22.48-29.88-4.65-.64-9.27-1.48-13.91-2.21-4.27-.68-7.99-2.23-11.28-5.3-4.98-4.65-10.17-9.16-15.69-13.14-5.05-3.63-7.64-8.6-9.66-14.08-5.36-14.55-6.43-29.61-5.24-44.95 1.34-17.3 6.8-33.71 10.7-50.45 4.74-20.39 8.71-40.9 10.5-61.78.23-2.66 1.87-3.27 3.65-4.12 5.25-2.53 5.26-2.53 8.92 2.04 4.76 5.95 6.05 12.53 3.72 19.84-2.06 6.49-4.37 12.93-5.81 19.56-.75 3.45-.52 7.44.4 10.89 4.63 17.38 4.94 34.99 2.77 52.63-1.61 13.08-4.26 26.03-6.28 39.06-1.41 9.12 2.27 15.99 9.69 21.29 9.91 7.07 21.19 10.11 32.99 11.07 18.27 1.48 36.58 2.46 54.89 3.43 7.62.4 14.06-2.54 19.65-7.83 20.7-19.56 35.32-43.21 46.5-69.1 1.76-4.08 1.64-8.96 2.54-13.43 1.96-9.73 4.08-19.42 6.01-29.16.94-4.71 1.42-9.51 2.46-14.2.97-4.36 3.16-8.07 7.57-10.53z"/><path d="m347.65 51.06c-9.44 4.11-19.2 4.85-29.07 4.31-8.26-.45-16.48-1.9-24.73-1.96-6.16-.05-12.37 1.21-18.49 2.27-3.32.57-5.46 2.99-6.11 6.38-2.09 10.96-4.65 21.86-6.04 32.92-2.22 17.64-3.69 35.37-5.37 53.08-.63 6.68-.94 13.39-1.47 20.08-.57 7.21-6.96 10.41-12.96 6.4-.69-.46-1.01-1.88-1.02-2.87-.38-25.96-.69-51.92-1.03-77.88-.08-6.38.05-12.78-.5-19.12-.21-2.47-1.73-4.99-3.17-7.15-3.75-5.63-9.26-9.25-15.04-12.58-13.67-7.87-13.62-7.89-29.14-5.61-10.4 1.53-20.81 2.95-31.24 4.3-1.23.16-2.66-.16-3.82-.65-2.05-.86-3.97-2.03-6.25-3.23-4.38 4.7-9.86 4.83-15.96 4.19-3.26-.34-7.36.71-10.01 2.63-5.37 3.89-10.7 8.24-14.82 13.39-9.22 11.52-17.73 23.61-26.43 35.54-1.15 1.58-2.03 3.48-2.56 5.36-3.71 13.34-7.12 26.78-10.98 40.08-3.72 12.82-12.01 22.24-23.66 29.98-.38-2.93-.82-5.38-1-7.84-.83-11.76 1.07-23.21 4.41-34.42 4.01-13.49 8.21-26.92 12.39-40.36.39-1.24 1.04-2.46 1.8-3.52 5.03-7.11 11.05-13.69 14.99-21.35 9-17.48 24.03-26.45 41.72-32.36 18.65-6.24 38.03-9.03 57.35-12.02 7.29-1.13 14.67-1.63 21.97-2.69 10.92-1.58 21.64.45 32.4 1.61 23.24 2.5 46.44 5.31 69.7 7.68 8.99.92 18.08.86 27.1 1.46 9.39.61 14.19 4.59 17.04 13.95z"/></g></svg>