<svg enable-background="new 0 0 400 400" viewBox="0 0 400 400" xmlns="http://www.w3.org/2000/svg"><g fill="#fbfafa"><path d="m37.59 393.81c-.92.31-1.52.05-2-.78-.7-1.2-1.52-2.34-2.47-3.78v4.59c-.55.03-.95.05-1.41.07-.03-.37-.06-.64-.06-.91 0-1.91 0-3.81 0-5.7 1.13-.41 1.77-.03 2.29.91.62 1.11 1.38 2.14 2.31 3.19v-4.2h1.35v6.61z"/><path d="m12.94 393.88v-6.75c1.9.19 3.93-.54 5.37 1.29.8 1.01.78 2.88.03 3.97-1.37 1.97-3.4 1.51-5.4 1.49m1.45-1.22c2.04.12 2.92-.58 2.89-2.21-.03-1.51-.98-2.19-2.89-2z"/><path d="m11.81 393.87h-5.49c.68-2.18 2.47-3.48 3.51-5.45h-3.08v-1.21h5.29c-.71 2.13-2.44 3.48-3.47 5.51.86 0 1.63.04 2.39-.01.79-.05 1.14.21.85 1.16"/><path d="m39.33 393.86v-6.61h3.7v1.07h-2.22v1.52c.68.04 1.34.09 2.07.13v1.07c-.72.05-1.38.09-2.1.14v1.48h2.4v1.19h-3.85z"/><path d="m27.71 388.56c-1.15-.3-2.46-.61-3.1.64-.37.73-.41 1.93-.06 2.67.63 1.35 1.99.93 3.17.68.35.94-.01 1.32-.93 1.46-1.62.25-3.05-.27-3.76-1.48-.73-1.24-.6-3.03.31-4.17.88-1.11 2.71-1.7 4-1.16.32.13.44.74.65 1.12-.1.08-.19.16-.28.24"/><path d="m49.15 387.24v1.07c-.59.02-1.17.05-1.87.08v5.44h-1.48v-5.44h-1.85c-.05-.4-.08-.73-.13-1.15z"/><path d="m20.06 387.21h1.33v6.62h-1.33z"/><path d="m30.68 393.25c-.49.38-.8.79-1.05.76-.32-.05-.6-.45-.9-.7.26-.24.51-.64.8-.67.29-.04.62.3 1.15.61"/></g><path d="m133.25 176c-2.02 18.32-3.92 35.62-5.88 53.38 4.83-1.05 9.22-1.15 12.97-4.93 13.87-13.98 28.09-27.62 42.17-41.39.46-.45.85-.97 1.61-1.83-16.07-4.91-31.78-9.72-47.49-14.52.03-.27.07-.53.1-.8 7.32-.37 14.64-1.11 21.95-1.03 16.1.17 32.2.97 48.3 1.03 5.4.02 11-.79 16.17-2.33 13.95-4.17 20.61-15.02 22.36-28.89.13-1.03-.89-2.71-1.85-3.3-9.69-5.97-20.41-7.52-31.58-7.07-7.81.32-15.63.81-23.44.71-3.2-.04-6.39-1.42-9.56-2.67 6.75-5.24 14.14-8.57 22.04-10.63 6.92-1.8 13.9-4.03 20.95-4.47 26.85-1.67 45.59 15.31 42.57 41.12-.12 1-.23 2-.36 3-.8 6.44-3.67 11.08-9.65 14.5-8.9 5.09-17.22 11.19-26.22 17.15 18.4 13.11 36.45 25.98 54.85 39.1 3.23-9.18 3.42-17.91 1-26.95-2.4-8.93-4.16-18.03-6.17-27.06-.16-.73-.12-1.5-.24-3.33 1.72 2.5 2.96 4.15 4.06 5.9 17.21 27.4 26.31 57.14 25.33 89.64-.32 10.76-2.03 21.46-5.93 31.52-2.2 5.67-5.99 10.71-8.69 16.22-4.21 8.58-10.55 15.14-17.45 21.69-16.75 15.92-37.08 22.2-59.24 24.38-20.23 1.99-39.88-.68-59.08-7.42-10.99-3.86-20-9.89-26.76-19.6-8.1-11.63-16.37-23.2-18.29-37.6-1.19-8.93-1.42-18.08-1.15-27.11.55-18.7 2.6-37.26 7.42-55.41 2.77-10.44 6.71-20.38 13.41-29.02.34-.41.72-.79 1.77-1.98zm89.37 50.39c1.02.84 1.64 1.3 2.21 1.82 13.54 12.22 27.21 24.32 40.54 36.76 4.45 4.15 9.74 6.28 15.15 8.25 4.63 1.69 9.19-1.88 9.19-6.71 0-8.62-.12-17.24.07-25.85.06-2.56-.78-3.75-3.09-4.65-11.96-4.7-23.89-9.48-35.76-14.39-1.75-.72-3.48-2.03-4.64-3.53-9.36-12.13-18.58-24.37-27.99-36.77-1.39 1-2.55 2.09-3.92 2.77-3.25 1.63-3.89 4.19-3.92 7.65-.14 19.65 1.65 39.08 5.56 58.35 5 24.64 17.29 45.09 35.22 62.37 4.14 3.99 10 4.72 13.33 1.78 7.71-6.81 12.55-15.56 16.81-24.88-1.06-.64-2-1.23-2.95-1.79-13.36-7.72-26.74-15.4-40.04-23.22-1.3-.76-2.52-2.21-3.07-3.62-4.06-10.41-7.94-20.89-11.85-31.35-.3-.81-.47-1.66-.85-2.99zm-89.33 51.26c1.32-1.11 2.17-1.8 2.99-2.53 14.64-13.16 29.33-26.27 43.86-39.56 2.52-2.31 4.28-1.97 6.52.03-3.86 12.61-10.08 23.34-20.94 31.23-8.95 6.5-17.41 13.66-26.16 20.44-1.88 1.46-2.36 2.67-1.21 4.98 3.32 6.7 6.44 13.51 9.38 20.39 1.04 2.42 2.38 2.67 4.66 2.24 7.94-1.52 14.27-5.58 19.38-11.73 4.36-5.25 8.83-10.4 13.11-15.72 1.23-1.52 2.38-3.33 2.86-5.19 3.47-13.51 7.04-27.01 10.03-40.63 3.15-14.35 5.06-28.87 2.8-43.6-.96-6.29-2.69-12.34-6.1-18.17-.76 1.09-1.3 1.79-1.75 2.53-6.98 11.32-13.81 22.74-21.02 33.91-2.32 3.59-5.09 7.44-8.62 9.57-7.21 4.36-15.02 7.76-22.71 11.28-3.49 1.6-7.29 2.53-10.94 3.76 1.3 12.34 2.55 24.29 3.86 36.77zm29.41 42.86c1.24 2.3 2.19 4.33 3.41 6.18.55.82 1.58 1.63 2.53 1.83 17.39 3.84 34.94 5.21 52.63 2.62 8.53-1.25 16.63-4.02 24.57-8.58-13.35-12.04-26.41-23.82-39.48-35.61-14.67 11.28-29.04 22.32-43.66 33.56z" fill="#010105"/><path d="m233.17 141.53c-7.15 2.95-14.15 6.36-21.48 8.77-17.76 5.84-35.57 5.61-53.35-.46-8.32-2.84-12.97-9.19-16.9-16.29-4.19-7.59-3.32-15.56-.7-23.42.35-1.05 1.69-1.97 2.78-2.54 16.74-8.74 33.52-17.42 50.29-26.11 1.07-.55 2.11-1.15 3.07-2.43-35.85-2.5-71.71-4.99-107.56-7.49-.08-.24-.16-.49-.23-.73 3-1.43 5.97-2.95 9.02-4.28 11.29-4.96 23.33-6.74 35.4-8.57 11.15-1.69 22.17-4.22 33.33-5.9 6.49-.98 13.12-1.37 19.68-1.38 20.25-.04 40.52-.23 60.74.54 17.55.67 34.12 5.64 49.23 14.89.64.39 1.25.84 2.66 1.79-8.2.74-15.57 1.42-22.93 2.07-18.94 1.68-37.88 3.37-56.82 4.97-2.28.19-3.88.99-5.34 2.8-5.25 6.55-10.49 13.11-16.07 19.37-2.46 2.76-5.44 5.32-8.66 7.08-5.47 2.99-11.22 5.56-17.04 7.81-8.37 3.24-10.69 10.58-11.2 17.52-.06.84.78 2.03 1.55 2.61 9.32 7.09 19.83 10.08 31.49 8.76 11.69-1.33 23.38-2.33 35.14-1.04 1.19.13 2.37.3 3.56.44.11.42.23.82.34 1.22z" fill="#010105"/></svg>