<svg enable-background="new 0 0 400 400" viewBox="0 0 400 400" xmlns="http://www.w3.org/2000/svg"><g fill="#fcfafa"><path d="m342.2 3.2-6.3 9.2h6.1v1.2h-8.2v-.5l6.2-9.1h-5.7v-1.2h7.8v.4z"/><path d="m344 13.7v-10.9h3.1c1.6 0 3 .5 4.1 1.4 1.1 1 1.6 2.2 1.6 3.9s-.5 3-1.6 4-2.5 1.5-4.2 1.5h-3zm1.4-9.6v8.4h1.6c1.4 0 2.5-.4 3.2-1.1.8-.8 1.2-1.8 1.2-3.2s-.4-2.4-1.2-3.1-1.8-1-3.1-1z"/><path d="m356.3 2.8v10.9h-1.4v-10.9z"/><path d="m366.6 13.2c-.8.4-1.8.6-3 .6-1.6 0-2.8-.5-3.7-1.5s-1.4-2.3-1.4-3.9c0-1.7.5-3.2 1.6-4.2s2.4-1.6 4-1.6c1 0 1.9.1 2.6.4v1.5c-.8-.4-1.6-.6-2.6-.6-1.2 0-2.2.4-3 1.2s-1.1 1.9-1.1 3.3c0 1.3.4 2.3 1.1 3.1s1.6 1.1 2.8 1.1c1.1 0 2-.2 2.8-.7v1.3z"/><path d="m368.2 13c0-.3.1-.5.3-.6.2-.2.4-.3.6-.3.3 0 .5.1.7.3s.3.4.3.6-.1.5-.3.6c-.2.2-.4.3-.7.3s-.5-.1-.6-.3c-.2-.2-.3-.4-.3-.6z"/><path d="m381.1 13.7h-1.7l-5.5-8.4c-.2-.2-.3-.5-.4-.7 0 .2.1.8.1 1.5v7.6h-1.4v-10.9h1.8l5.3 8.3c.3.4.4.6.4.8 0-.3-.1-.8-.1-1.6v-7.5h1.4v10.9z"/><path d="m389.7 13.7h-5.8v-10.9h5.6v1.2h-4.2v3.5h3.9v1.2h-3.9v3.7h4.4z"/><path d="m398.4 4.1h-3.1v9.6h-1.4v-9.6h-3.1v-1.3h7.7v1.3z"/></g><path d="m28.72 231.07c7.65 2.57 14.54 4.54 21.15 7.24 3.21 1.31 5.97 3.86 8.76 6.07 1.56 1.24 2.86 1.57 4.82.94 16.16-5.23 32.37-10.29 48.51-15.58 1.56-.51 3.18-2 3.98-3.46 3.65-6.66 2.95-13.82 1.92-20.98-.67-4.65-1.1-9.34-1.91-13.96-.23-1.34-1.13-2.92-2.22-3.69-5.05-3.57-10.51-4.17-16.16-1.41-5.18 2.53-10.51 4.71-16.36 4.08-3.12-.34-6.4-1.23-9.14-2.72-4.69-2.56-9.05-5.74-13.49-8.76-4.1-2.78-8.47-4.68-13.5-4.05-1.21.15-2.56 1.08-3.39 2.05-1.45 1.68-2.52 3.68-3.79 5.53-.44.64-.97 1.23-1.5 1.8-2.89 3.12-8.98 4.47-11.66 2.61-1.97-1.36-2.61-7.31-1.08-10.78.63-1.43 1.62-2.7 2.18-4.15 1.28-3.31 2.33-6.71 3.58-10.03.62-1.65 1.3-3.32 2.26-4.79 17.58-27.13 35.12-54.29 52.89-81.3 5.11-7.76 7.94-16.04 7.7-25.23-.16-6.12 3.45-7.71 8.31-5.65 8.48 3.58 16.88 7.25 23.17 14.34 3.77 4.24 4.18 8.22 1.36 12.44-3.32 4.98-1.62 9.06 4.39 10.4 5.24 1.17 10.49 2.28 15.73 3.42.65.14 1.34.24 1.93.53 16.45 8.04 33.93 14.09 49.21 24.41 13.8 9.32 26.28 20.27 32.02 36.46 3.18 8.97 4.42 18.64 6.45 28.01.68 3.15 1.09 6.36 1.69 9.95 3.17-.84 6.15-1.63 9.13-2.41 4.86-1.28 9.66-2.97 14.61-3.73 5.33-.82 7.43-4.15 8.84-8.69 2.37-7.63 2.54-15.48 1.95-23.29-1.23-16.19-3.43-32.26-8.02-47.89-1.02-3.49-2.51-6.84-4-10.83 5.91 2.14 11.37 4 16.72 6.13 1.25.5 2.2 1.84 3.18 2.9 3.14 3.35 5.92 7.11 9.41 10.03 4.83 4.04 4.78 9.54 5.51 14.86 1.92 14.08 3.8 28.16 5.52 42.26.32 2.66 1.96 3.52 3.95 3.71 8.1.79 16.22 1.33 24.33 2.04 4.87.42 9.78.69 14.57 1.58 3.31.62 5.69 3.02 6.86 6.32 1.78 5.03.86 6.89-4.14 8.56-12.41 4.15-24.81 8.3-37.21 12.45-4.42 1.48-6.61 4.77-6.96 9.45-.94 12.46-1.98 24.92-3.18 37.36-.8 8.32-1.95 16.6-2.99 25.27 6.65-.77 12.94-1.48 19.23-2.24 13.66-1.65 27.29-3.56 40.98-4.84 3.96-.37 8.25.57 12.1 1.81 4.25 1.37 5.96 4.97 5.14 9.39-.92 4.95-2.98 9.12-7.57 12.03-14.97 9.49-31.05 14.57-48.88 15.67-18.05 1.11-36.01 3.93-53.99 6.13-8.77 1.07-17.49 2.52-26.25 3.61-2.04.26-4.25.06-6.26-.41-7.84-1.81-15.66-3.73-23.43-5.82-2.05-.55-3.27-.16-4.64 1.36-10.08 11.11-19.88 22.5-30.48 33.1-12.35 12.35-27.48 18.35-45.24 17.16-12.84-.86-25.18-3.7-37.13-8.37-1.31-.51-2.7-1.2-3.65-2.19-13.5-14.1-25.07-29.62-31.89-48.03-3.08-8.31-4.8-17.24-6.2-26.04-1.64-10.3-6.22-19.27-10.85-28.31-2.24-4.34-4.36-8.75-6.88-13.83zm178.62 57.95c1.54 0 2.63-.01 3.73 0 20.28.3 39.28-5.5 58.04-12.3 1.04-.38 2.24-1.71 2.45-2.77 1.18-5.89 2.66-11.81 2.95-17.78.7-14.35-.33-28.63-4.01-42.6-.27-1.04-1.45-2.63-2.2-2.62-5.87.04-11.47 1.08-16.59 4.39-2.82 1.82-6.18 2.79-9.29 4.16-2.07.91-3.18.05-4.25-1.8-4.75-8.23-9.48-16.49-14.56-24.51-3.19-5.04-5-10.32-5.65-16.23-.55-5.08-.61-10.76-2.99-15-16.14-28.86-39.62-48.65-72.41-56.15-4.67-1.07-9.54-1.29-14.73-1.95.36 1.51.48 2.16.66 2.79 3.64 12.67 7.5 25.29 10.79 38.05.99 3.86 3.08 6.29 6.28 7.6 4.51 1.84 9.2 3.53 13.98 4.35 8.03 1.38 16.32 1.71 23.49 6.11 2.22 1.36 5.98 1.78 5.6 5.69-.46 4.72-2.31 8.65-7.16 10.39-1.04.37-2.17.65-3.26.64-2.34-.02-4.7-.1-7.01-.41-8.39-1.15-16.49-.57-24.15 3.45-1.55.81-2.25 1.74-2.27 3.6-.06 5.93-.41 11.85-.55 17.78-.09 3.88-.02 7.75-.02 11.87 15.35.66 31.25-1.82 44.74 8.56 1.02-4.36.24-7.97-1.7-11.43-1.92-3.43-2.13-6.95-.23-10.79 5.41 1.84 10 4.77 13.24 9.34 9 12.67 12.09 27.03 10.88 42.29-.95 11.6-2.48 23.13-3.8 35.28zm-133.52-.04c.83-.14 1.27-.19 1.7-.29 34.09-7.75 68.18-15.46 102.25-23.28 5.26-1.21 9.88-3.53 11.98-9.12 3.64-9.69 2.1-19.16-.7-29.05-1.34 1.84-2.31 3.33-3.44 4.68-4.2 5-10.26 6-16.13 7.37-13.67 3.18-27.75 5.38-38.17 16.27-.71.74-2.56 1.12-3.53.75-7.66-2.93-15-2.17-22.3 1.2-1.91.88-4.01 1.37-6.02 2.04-9.19 3.08-18.38 6.16-27.72 9.29.69 6.75 1.37 13.29 2.08 20.14zm2.1 16.61c1.8 11.36 6.36 20.49 14.71 27.6.41.35.98.54 1.49.74 9.81 3.74 19.72 5.83 30.42 4.28 13.3-1.93 25.85-5.68 35-15.78 6.83-7.54 12.41-16.28 17.96-24.86 2.09-3.24 2.71-7.5 3.6-11.39.25-1.09-.63-2.9-1.58-3.63-.58-.45-2.48.21-3.41.89-8.06 5.94-16.61 11.08-26.16 14.04-13.85 4.3-27.88 8.02-41.86 11.92-1.02.28-2.2.17-3.28.02-8.71-1.21-17.43-2.48-26.89-3.83zm-19.91-139.07c17.87-4.45 35.75-8.87 53.59-13.43 1.02-.26 2.17-1.51 2.53-2.56 2.65-7.68 2.43-15.64 1.66-23.55-.67-6.94-2.88-13.3-8.72-17.85-2.07-1.61-3.46-1.89-5.51.38-13.99 15.54-28 31.07-42.37 46.26-3.41 3.6-3.87 6.55-1.18 10.75z" fill="#010103"/></svg>