<svg enable-background="new 0 0 400 400" viewBox="0 0 400 400" xmlns="http://www.w3.org/2000/svg"><path d="m5.17 384 .55-.58c.85.61 1.65 1.24 2.4 1.87l-.59.64c-.83-.73-1.62-1.38-2.36-1.93m1.22 9.53-.82-.34c.71-1.76 1.37-3.64 1.98-5.63.24.13.5.25.76.36-.6 1.67-1.24 3.54-1.92 5.61m-.5-13.5.57-.54c.56.44 1.31 1.06 2.26 1.87l-.64.64c-.68-.66-1.41-1.32-2.19-1.97m3.25.46h2.24v-1.36h.77v1.36h4.57v-1.36h.76v1.36h2.28v.69h-2.28v1.84h-2.64v1.26h4.18v2.64h-4.21c0 .45-.02.86-.05 1.21h4.32v.69h-4.38c-.04.34-.1.75-.19 1.22h5.15v.69h-4.82c.87 1.19 2.51 1.92 4.93 2.19-.17.31-.3.57-.37.76-2.77-.49-4.52-1.41-5.26-2.76-.56 1.26-2.3 2.23-5.24 2.9-.12-.24-.26-.48-.43-.72 2.73-.55 4.38-1.34 4.96-2.38h-4.38v-.69h4.65c.1-.38.17-.79.21-1.22h-4.32v-.69h4.4c.03-.34.05-.75.05-1.21h-4.2v-2.64h4.23v-1.26h-2.69v-1.84h-2.24zm1.46 4.46v1.29h3.45c.01-.4.02-.57.01-.53v-.32-.45h-3.46zm1.55-2.59h4.57v-1.19h-4.57zm6.11 2.59h-3.42v.77c-.01.19-.01.37-.02.53h3.44z" fill="#fafafc"/><path d="m32.63 379.16h.82v1.98h3.54v7.89h1.46v.78h-14.37v-.78h1.46v-7.89h3.54v-1.98h.82v1.98h2.73zm-3.49 11.48.5.73c-1.61.82-3.28 1.63-5 2.41-.13-.27-.28-.55-.44-.82 1.75-.72 3.4-1.49 4.94-2.32m-2.78-5.55h2.73v-3.18h-2.73zm0 3.95h2.73v-3.2h-2.73zm3.54-3.95h2.73v-3.18h-2.73zm0 3.95h2.73v-3.2h-2.73zm7.89 4.68c-1.84-.92-3.51-1.7-5.02-2.32l.45-.73c1.89.8 3.57 1.55 5.04 2.23zm-1.62-11.81h-2.73v3.18h2.73zm-2.73 7.13h2.73v-3.2h-2.73z" fill="#fafafc"/><g fill="#010101"><path d="m178.41 204.95c6.19.46 7.14.97 8.1 6.45.65 3.68.98 7.64.37 11.29-1.48 8.78-1.86 17.46-1.18 26.37.83 10.8.55 21.69.82 32.54.14 5.48.41 10.95.67 16.43.32 6.64-1.05 13.08-1.81 19.62-.88 7.46-.33 15.15.12 22.7.34 5.66 1.1 11.37 2.41 16.89 1.59 6.72 4.15 8.73 11.02 8.18 8.89-.72 17.73-2.22 26.55-3.59.99-.15 2.24-1.46 2.57-2.5 4.08-12.65 5.05-25.5.83-38.24-2.4-7.26-3.39-14.45-2.63-22.03 1.64-16.2 1.33-32.35-.72-48.55-1.06-8.39-.61-16.98-.82-25.48-.11-4.25-.33-8.51-.16-12.75.09-2.29.72-4.61 1.44-6.8.23-.7 1.81-1.64 2.33-1.42 1.02.43 2.41 1.55 2.47 2.46 2.1 36.12 3.98 72.25 6.15 108.36.41 6.78 1.79 13.53 3.04 20.23.9 4.81.84 9.47.04 14.29-.61 3.69-.24 7.54-.59 11.29-.12 1.31-.79 2.94-1.77 3.73-2.33 1.9-5.02 3.34-7.52 5.05-5.97 4.07-12.79 4.26-19.65 4.5-3.67.12-7.35.49-10.97 1.05-9.18 1.42-14.59-1.66-17.56-11.44-1.83-6.04-2.66-12.44-3.42-18.74-2.22-18.32.17-36.65.34-54.98.16-17.12.86-34.23.79-51.35-.04-9.26-1.24-18.52-1.79-27.78-.12-1.85.32-3.73.53-5.78z"/><path d="m145.88 120.87c.67-1.12 1.06-2.73 2.05-3.28 7.39-4.13 14.98-7.91 22.34-12.1 4.54-2.58 8.89-5.53 13.11-8.61 3.41-2.48 4.92-5.83 4.7-10.38-.8-16.53-1.16-33.08-1.81-49.62-.17-4.23.28-8.19 2.72-11.86 3.84 1.44 5.74 3.95 5.63 7.94-.18 6.15-.12 12.31-.49 18.44-.72 12.08.81 23.98 3.77 35.57 1.76 6.9 8.14 10.17 14.45 12.41 10.11 3.57 20.37 6.7 30.55 10.06 1.05.35 2.27.71 2.97 1.47.98 1.07 1.54 2.52 2.28 3.8-.31.4-.62.79-.92 1.19-5.52-1.57-11.06-3.11-16.57-4.73-6.41-1.88-12.71-4.36-19.24-5.62-7.47-1.44-12.55 4.44-11.23 12.04 1.27 7.27 2.81 14.51 3.64 21.83.79 6.98.98 14.04 1.1 21.06.04 2.68 1.01 4.03 3.46 4.34 2.43.31 4.89.37 7.33.57 2.45.2 3.51.93 2.59 3.86-1.07 3.42-2.82 5.32-6.29 6.45-6.57 2.13-6.85 2.92-6.26 9.93.68 8.14 1.49 16.27 2.01 24.42.21 3.31.27 6.78-.46 9.98-1.54 6.7.44 13.12.76 19.67.29 5.89.39 11.8.63 17.7.31 7.35.78 14.7 1 22.05.16 5.43.03 10.86.03 16.3-.52.09-1.04.18-1.56.26-.74-3.12-1.92-6.21-2.14-9.37-.8-11.5-.99-23.04-1.95-34.52-1.48-17.72-3.4-35.4-5.12-53.1-.24-2.45-.43-4.9-.53-7.36-.09-2.12-.01-4.25-.02-6.38-.03-8.94-1.04-9.91-9.99-9.76-2 .03-4.18.45-5.96-.2-1.64-.6-3.27-2.15-4.13-3.71-1.24-2.24-.1-3.88 2.5-4.15 2.89-.29 5.79-.52 8.69-.65 4.91-.22 6.38-2.18 6.16-6.94-.53-11.62-.58-23.26-1.17-34.88-.28-5.56-1.24-11.09-2.21-16.58-.16-.89-2.16-2.27-3.03-2.09-4.76.98-9.59 1.99-14.11 3.72-8.65 3.31-17.1 7.13-25.64 10.71-.81.34-1.67.55-2.51.82-.38-.24-.76-.47-1.13-.7z"/></g></svg>