<svg enable-background="new 0 0 400 400" viewBox="0 0 400 400" xmlns="http://www.w3.org/2000/svg"><g fill="#fcfafa"><path d="m342.2 3.2-6.3 9.2h6.1v1.2h-8.2v-.5l6.2-9.1h-5.7v-1.2h7.8v.4z"/><path d="m344 13.7v-10.9h3.1c1.6 0 3 .5 4.1 1.4 1.1 1 1.6 2.2 1.6 3.9s-.5 3-1.6 4-2.5 1.5-4.2 1.5h-3zm1.4-9.6v8.4h1.6c1.4 0 2.5-.4 3.2-1.1.8-.8 1.2-1.8 1.2-3.2s-.4-2.4-1.2-3.1-1.8-1-3.1-1z"/><path d="m356.3 2.8v10.9h-1.4v-10.9z"/><path d="m366.6 13.2c-.8.4-1.8.6-3 .6-1.6 0-2.8-.5-3.7-1.5s-1.4-2.3-1.4-3.9c0-1.7.5-3.2 1.6-4.2s2.4-1.6 4-1.6c1 0 1.9.1 2.6.4v1.5c-.8-.4-1.6-.6-2.6-.6-1.2 0-2.2.4-3 1.2s-1.1 1.9-1.1 3.3c0 1.3.4 2.3 1.1 3.1s1.6 1.1 2.8 1.1c1.1 0 2-.2 2.8-.7v1.3z"/><path d="m368.2 13c0-.3.1-.5.3-.6.2-.2.4-.3.6-.3.3 0 .5.1.7.3s.3.4.3.6-.1.5-.3.6c-.2.2-.4.3-.7.3s-.5-.1-.6-.3c-.2-.2-.3-.4-.3-.6z"/><path d="m381.1 13.7h-1.7l-5.5-8.4c-.2-.2-.3-.5-.4-.7 0 .2.1.8.1 1.5v7.6h-1.4v-10.9h1.8l5.3 8.3c.3.4.4.6.4.8 0-.3-.1-.8-.1-1.6v-7.5h1.4v10.9z"/><path d="m389.7 13.7h-5.8v-10.9h5.6v1.2h-4.2v3.5h3.9v1.2h-3.9v3.7h4.4z"/><path d="m398.4 4.1h-3.1v9.6h-1.4v-9.6h-3.1v-1.3h7.7v1.3z"/></g><path d="m123.55 237.94c1.02.76 2.01 1.58 3.07 2.28 4.12 2.68 8.15 5.52 12.43 7.9 5.38 2.99 9.91 6.74 13.44 11.85 2.71 3.93 3.21 8.24 3.29 12.76.19 11.53 3.32 14.18 14.47 11.01 7.71-2.19 15.25-5.12 22.59-8.36 1.98-.87 3.95-3.96 4.19-6.22 1.62-14.88 3.26-29.79 3.89-44.73.35-8.19-1.13-16.47-2.03-24.68-.38-3.46-2.88-5.13-6.1-3.77-4.07 1.71-8.16 3.75-11.6 6.47-4.86 3.84-9.53 7.83-15.72 9.28-8.38 1.96-16.08-.64-23.81-3.52-7.67-2.86-11.2-9.94-17.15-15.53 1.5-.16 2.31-.32 3.13-.32 4.59-.02 9.19-.2 13.77.03 8.46.43 16.05-2.09 23.41-5.98 6.7-3.54 13.41-7.14 20.38-10.06 11.16-4.67 11.74-9.68 10.25-19.89-.53-3.61-2.01-7.07-3.09-10.6-.72-2.35-2.06-4.65-2.17-7.02-.35-7.91-4.62-13.73-9.36-19.46-3.62-4.38-7.52-8.68-7.4-16.19-2.24 1.37-3.9 1.91-4.84 3.04-5.18 6.32-10.3 12.69-15.22 19.21-10.32 13.71-21.8 26.39-33.65 38.77-10.5 10.96-18.27 23.73-23.65 37.89-4.28 11.26-4.42 22.8-.92 34.25 1.59 5.2 5.93 7.57 11.19 8.21 1.89.23 3.79.3 5.68.52 3.41.4 4.17 1.59 3.35 4.99-.94 3.88-3.27 6.52-6.93 8.04-5.46 2.28-12.77.59-17.03-3.51-14.48-13.94-17.87-31.13-14.04-49.98 2.08-10.25 5.34-20.3 8.68-30.24 1.36-4.03 4.37-7.51 6.62-11.25 5.94-9.87 12.09-19.48 20.28-27.82 6.31-6.43 11.77-13.8 17-21.18 13.35-18.82 27.64-36.87 42.75-54.29 5.35-6.17 8.14-13.36 6.46-21.72-.3-1.5-.91-2.98-1.64-4.33-1.43-2.63-3.04-5.16-4.99-8.42 1.87.36 3.05.45 4.14.81 10.09 3.36 19.2 8.48 27.18 15.53 3.77 3.32 5.23 6.88 3.79 12.38-1.9 7.28-4.85 13.28-10.43 18.47-4.61 4.29-8.23 9.66-12.11 14.69-1.05 1.36-1.45 3.21-2.22 4.98 7.24 5.04 15.04 8.35 23.26 10.49 11.23 2.92 22.57 5.42 33.86 8.12 1.08.26 2.15.6 3.16 1.05 15.73 6.99 31.52 13.84 47.14 21.07 7.39 3.42 14.51 7.46 21.65 11.42 4.13 2.28 6.79 5.69 6.94 10.73.07 2.2-.79 3.66-2.81 3.73-3.03.11-6.37.44-9.06-.62-16.83-6.66-33.5-13.7-50.25-20.56-2.16-.88-4.4-1.64-6.66-2.16-4.45-1.02-8.77-2.03-12.83-4.5-5.61-3.41-16.83-5.53-22.72-5.06 1.7 6.14 3.48 12.19 5.04 18.29 1.7 6.65 7.38 10.19 11.53 14.88.88.99 3.4.7 5.16.71 8.81.08 17.37 1.07 25.31 5.36 10.08 5.45 13.53 12.98 10.7 23.99-1.74 6.79-12.7 13.63-19.18 11.76-1.05-.3-2.42-1.74-2.5-2.74-.32-3.89-.44-7.83-.12-11.71.23-2.88-.71-4.68-3.35-5.29-3.25-.75-6.58-1.3-9.9-1.54-1.03-.07-2.47.89-3.19 1.8-3.32 4.16-4.6 9.16-5.15 14.32-.69 6.38-2.43 12.39-4.81 18.38-1.57 3.95-1.36 8.56-2.36 12.78-2.73 11.62-5.61 23.2-8.56 34.77-1.35 5.29.01 7.13 5.66 6.44 10.88-1.34 21.72-2.92 32.58-4.37 4.88-.65 9.75-1.47 14.65-1.76 3.89-.23 5.71-2.36 6.97-5.6 2.35-6.03 1.87-12.2.37-18.18-2.26-8.98-5.12-17.8-7.73-26.69-.28-.96-.59-1.91-1.22-3.97 3.43 1.2 6.43 1.72 8.83 3.2 4.75 2.93 9.63 5.92 13.59 9.78 2.7 2.63 4.84 6.59 5.58 10.29 1.2 6.07 1.52 12.43 1.35 18.64-.16 6.09-.23 12.1 1.49 17.94 1.81 6.17.86 12.2-.26 18.23-2.32 12.56-5.51 24.89-11.1 36.46-.67 1.39-1.49 2.76-2.5 3.91-7.24 8.25-14.54 16.43-21.82 24.63-.52.58-.98 1.28-1.62 1.69-15.32 9.63-30.19 20.12-48.78 22.9-14.51 2.17-27.98-.89-40.93-7.18-.77-.38-1.43-1.07-2.03-1.72-9.08-9.8-16.23-20.85-20.6-33.49-4.31-12.46-8.23-25.05-12.21-37.62-.53-1.66-.52-3.51-.61-5.28-.44-9.13 1.31-18.44-1.53-27.36-2.27-7.12-5.19-14.03-7.78-21.05-.37-1.01-.56-2.09-.83-3.14.3-.12.57-.29.85-.46zm35.87 74.97c1.68 8.48 2.76 16.95 5.12 25.04 2.46 8.4 7.81 14.42 16.98 16.81 11.33 2.96 22.51 3.33 33.77.22s20.93-8.65 28.46-17.9c6.7-8.25 13.89-16.1 20.91-24.09 3.95-4.49 6.18-9.82 7.51-15.52 1.06-4.53-.54-7.4-4.94-8.91-7.1-2.44-14.61-3.32-21.86-1.94-19.1 3.62-38.16 7.56-56.53 14.17-4.28 1.54-8.92 2.17-12.12 5.96-.58.68-1.77.89-2.71 1.22-4.73 1.63-9.48 3.22-14.59 4.94z" fill="#010103"/></svg>