<svg enable-background="new 0 0 400 400" viewBox="0 0 400 400" xmlns="http://www.w3.org/2000/svg"><path d="m5.17 384 .55-.58c.85.61 1.65 1.24 2.4 1.87l-.59.64c-.83-.73-1.62-1.38-2.36-1.93m1.22 9.53-.82-.34c.71-1.76 1.37-3.64 1.98-5.63.24.13.5.25.76.36-.6 1.67-1.24 3.54-1.92 5.61m-.5-13.5.57-.54c.56.44 1.31 1.06 2.26 1.87l-.64.64c-.68-.66-1.41-1.32-2.19-1.97m3.25.46h2.24v-1.36h.77v1.36h4.57v-1.36h.76v1.36h2.28v.69h-2.28v1.84h-2.64v1.26h4.18v2.64h-4.21c0 .45-.02.86-.05 1.21h4.32v.69h-4.38c-.04.34-.1.75-.19 1.22h5.15v.69h-4.82c.87 1.19 2.51 1.92 4.93 2.19-.17.31-.3.57-.37.76-2.77-.49-4.52-1.41-5.26-2.76-.56 1.26-2.3 2.23-5.24 2.9-.12-.24-.26-.48-.43-.72 2.73-.55 4.38-1.34 4.96-2.38h-4.38v-.69h4.65c.1-.38.17-.79.21-1.22h-4.32v-.69h4.4c.03-.34.05-.75.05-1.21h-4.2v-2.64h4.23v-1.26h-2.69v-1.84h-2.24zm1.46 4.46v1.29h3.45c.01-.4.02-.57.01-.53v-.32-.45h-3.46zm1.55-2.59h4.57v-1.19h-4.57zm6.11 2.59h-3.42v.77c-.01.19-.01.37-.02.53h3.44z" fill="#fafafc"/><path d="m32.63 379.16h.82v1.98h3.54v7.89h1.46v.78h-14.37v-.78h1.46v-7.89h3.54v-1.98h.82v1.98h2.73zm-3.49 11.48.5.73c-1.61.82-3.28 1.63-5 2.41-.13-.27-.28-.55-.44-.82 1.75-.72 3.4-1.49 4.94-2.32m-2.78-5.55h2.73v-3.18h-2.73zm0 3.95h2.73v-3.2h-2.73zm3.54-3.95h2.73v-3.18h-2.73zm0 3.95h2.73v-3.2h-2.73zm7.89 4.68c-1.84-.92-3.51-1.7-5.02-2.32l.45-.73c1.89.8 3.57 1.55 5.04 2.23zm-1.62-11.81h-2.73v3.18h2.73zm-2.73 7.13h2.73v-3.2h-2.73z" fill="#fafafc"/><g fill="#010101"><path d="m267.71 241.07c3.25 3.24 3.51 7.14 3.93 10.82 1.22 10.66 2.18 21.35 3.22 32.03.07.76-.01 1.57-.22 2.3-2.45 8.37-2.33 17-2.76 25.59-.68 13.71-2.32 27.33-9.46 39.37-2.41 4.07-6.61 7.11-10.12 10.48-4.29 4.12-9.4 6.75-15.32 7.73-1.65.28-3.45.37-4.89 1.11-11.43 5.92-23.92 4.58-36.01 4.84-15.06.33-29.7-3.41-44.28-6.9-.93-.22-1.99-.64-2.62-1.31-5.28-5.62-10.56-11.26-15.68-17.02-6.29-7.08-7.7-16.08-8.71-24.93-1.93-16.99-3.36-34.03-4.81-51.07-.52-6.12-.42-12.28-.75-18.42-.17-3.13 1.92-4.32 4.15-5.38 2.21-1.04 3.79.02 5.64 1.48 4.9 3.85 6.98 8.57 6.52 14.79-.27 3.65.8 7.41.45 11.04-.71 7.36 3.59 11.23 9.46 13.13 5.76 1.87 11.93 2.79 18 3.38 10.56 1.03 21.23 1.08 31.76 2.31 7.78.91 15.1-.56 22.53-2.1 11.8-2.44 23.84-3.95 35.04-8.73 1.46-.62 3.28-1.96 3.65-3.31 1.16-4.24 2.7-8.75 2.28-12.97-.87-8.7.54-16.41 5.93-23.35 1.08-1.39 1.89-3 3.07-4.91zm-64.66 112.05c10.82.08 21.36-1.18 31.43-5.56 8.24-3.59 13.93-9.04 15.34-18.32.79-5.24 2.3-10.25 6-14.32.38-.42.6-1.22.53-1.79-.58-4.87-5.51-8.57-10.43-7.81-17.89 2.76-35.76 5.57-53.65 8.28-4.18.63-8.42 1.44-12.6 1.29-4.42-.17-8.79-1.5-13.21-2.12-7.21-1-14.42-1.84-21.48 1.02-4.83 1.96-5.36 2.95-4.43 7.99 1.61 8.66 7.09 14.95 12.44 21.46 3.98 4.84 9.03 7.33 14.99 7.79 11.66.9 23.37 1.41 35.07 2.09z"/><path d="m187.09 118.23c-5.44-8.39-3.34-16.72-.84-25.08.34-1.15 1.01-2.46.74-3.5-1.7-6.68.18-13.14 1.11-19.62 1.76-12.28 3.6-24.56 5.8-36.77.45-2.48 2.23-5.07 4.11-6.86 2.76-2.63 5.44-1.27 6.77 2.28 3.59 9.57 4.1 19.41 3.12 29.41-1.09 11.17.53 22.08 2.71 32.97 2.8 13.98 7.52 27.74 4.51 42.41 7.16 1.9 8.52 7.09 7.62 12.89-1.09 7.06.77 13.74 1.44 20.6.35 3.6.09 7.41-.73 10.93-1.96 8.39-4.88 16.5-9.36 23.94-5.63 9.33-4.52 18 2.17 26.34 4.78 5.96 4.84 12.75 2.89 19.76-.51 1.83-1.27 3.6-1.67 5.45-1.52 7.09-6.43 11.31-12.34 14.59-4.55 2.53-9.01 1.1-13-1.39-3.69-2.3-7.52-4.73-10.35-7.93-2.12-2.4-3.66-6.05-3.91-9.26-.95-12.28 1.73-23.85 7.69-34.76 1.67-3.06 2.6-6.99 2.47-10.47-.17-4.74-1.67-9.43-2.65-14.13-.15-.74-.39-1.6-.89-2.11-5.8-5.92-6.65-13.7-8.07-21.26-.31-1.65-.48-3.32-.66-4.99-.28-2.59.46-4.74 1.68-7.18 1.89-3.78 3.03-8.15 3.52-12.38.99-8.37.93-16.86 6.12-23.88z"/></g></svg>