<svg enable-background="new 0 0 400 400" viewBox="0 0 400 400" xmlns="http://www.w3.org/2000/svg"><g fill="#fcfafa"><path d="m342.2 3.2-6.3 9.2h6.1v1.2h-8.2v-.5l6.2-9.1h-5.7v-1.2h7.8v.4z"/><path d="m344 13.7v-10.9h3.1c1.6 0 3 .5 4.1 1.4 1.1 1 1.6 2.2 1.6 3.9s-.5 3-1.6 4-2.5 1.5-4.2 1.5h-3zm1.4-9.6v8.4h1.6c1.4 0 2.5-.4 3.2-1.1.8-.8 1.2-1.8 1.2-3.2s-.4-2.4-1.2-3.1-1.8-1-3.1-1z"/><path d="m356.3 2.8v10.9h-1.4v-10.9z"/><path d="m366.6 13.2c-.8.4-1.8.6-3 .6-1.6 0-2.8-.5-3.7-1.5s-1.4-2.3-1.4-3.9c0-1.7.5-3.2 1.6-4.2s2.4-1.6 4-1.6c1 0 1.9.1 2.6.4v1.5c-.8-.4-1.6-.6-2.6-.6-1.2 0-2.2.4-3 1.2s-1.1 1.9-1.1 3.3c0 1.3.4 2.3 1.1 3.1s1.6 1.1 2.8 1.1c1.1 0 2-.2 2.8-.7v1.3z"/><path d="m368.2 13c0-.3.1-.5.3-.6.2-.2.4-.3.6-.3.3 0 .5.1.7.3s.3.4.3.6-.1.5-.3.6c-.2.2-.4.3-.7.3s-.5-.1-.6-.3c-.2-.2-.3-.4-.3-.6z"/><path d="m381.1 13.7h-1.7l-5.5-8.4c-.2-.2-.3-.5-.4-.7 0 .2.1.8.1 1.5v7.6h-1.4v-10.9h1.8l5.3 8.3c.3.4.4.6.4.8 0-.3-.1-.8-.1-1.6v-7.5h1.4v10.9z"/><path d="m389.7 13.7h-5.8v-10.9h5.6v1.2h-4.2v3.5h3.9v1.2h-3.9v3.7h4.4z"/><path d="m398.4 4.1h-3.1v9.6h-1.4v-9.6h-3.1v-1.3h7.7v1.3z"/></g><path d="m106.04 176.93c19.02-6.99 38-13.96 56.99-20.93 5.14-1.89 10.25-3.86 15.44-5.59 2.12-.71 2.95-2 3.4-4.04 1.36-6.15.12-12.11-1.68-17.85-3.1-9.91-6.62-19.69-10.2-29.44-1.8-4.89-8.28-7.58-13.07-5.62-2.35.96-4.68 2.19-6.68 3.74-11.33 8.77-22.89 17.28-33.68 26.68-6.43 5.61-11.69 12.61-17.29 19.14-12.46 14.53-25.08 28.93-37.08 43.84-4.64 5.76-8.04 12.6-11.46 19.23-3.36 6.49-7.74 11.48-15.03 13.25-.95.23-2.61-.3-3.19-1.05-5.33-6.93-6.22-14.02-1.72-22.06 8.63-15.41 16.32-31.35 25.2-46.6 4.17-7.16 10.05-13.36 15.39-19.8 9.21-11.12 18.19-22.47 28.03-33.01 6.83-7.31 14.81-13.56 22.49-20.04 8.63-7.28 15.48-15.89 19.83-26.26 1.83-4.37 2.51-9.22 3.69-13.86.98-3.86 1.93-7.74 2.92-11.72 10.7 1.39 19.16 5.98 26.2 13.32 4.72 4.93 9.39 9.91 14.11 14.83 2.82 2.94 6.29 4.34 10.36 4.84 8.21 1.02 16.53 1.78 24.53 3.76 9.51 2.36 18.84 5.57 28.05 8.96 21.81 8.04 43.51 16.35 64.05 27.42 13.64 7.35 25.23 17.31 36.87 27.3 4.88 4.18 9.64 8.34 12.04 14.56 2.83 7.32 3.1 14.83 1.86 22.45-.68 4.19-1.69 8.34-2.24 12.54-.46 3.56-2.13 6.22-4.76 8.5-7.28 6.32-14.47 12.89-24.24 15.03-3.95.86-8.13.68-12.49.99-.14-6.11-.97-11.07 3.5-15.9 9.13-9.88 8.99-21.8 5.5-34.07-2.55-8.94-7.57-16.36-13.61-23.22-.58-.66-1.33-1.21-2.1-1.63-26.46-14.67-53.76-27.42-83.06-35.4-9.05-2.46-18.23-4.61-27.47-6.18-7.39-1.25-14.64-2.44-21.68-5.29-5.24-2.12-9.54-.03-11.98 4.49 3.34 1.72 6.95 3.08 9.97 5.25 8.43 6.05 16.8 12.21 24.84 18.77 8.18 6.67 12.04 15.7 12.01 26.21-.02 4.54 2.31 6.46 6.23 7.68 7.93 2.46 15.88 1.98 23.91.77 3.64-.55 7.33-1.17 10.99-1.08 7.63.18 12.49 7.57 9.96 14.8-.25.7-1.12 1.33-1.85 1.7-8.48 4.29-16.91 8.67-25.52 12.67-2.45 1.14-5.41 1.53-8.15 1.58-3.69.06-6.12 1.8-7.2 4.94-1.96 5.67-4.18 11.39-5 17.28-1.51 10.81-2.09 21.76-3.09 33.09 6.54 0 12.31.01 18.09-.02.41 0 .88-.22 1.23-.46 5.45-3.75 11.68-4.55 17.98-4.09 9.62.7 19.01-.78 28.3-2.67 12.91-2.63 25.84-1.85 38.73-.75 4.76.4 9.36 2.87 13.97 4.56.79.29 1.44 1.35 1.85 2.2 2.17 4.49 2.47 9.27.2 13.63-9.33 17.91-15.15 37.23-22.97 55.73-4.81 11.38-11.46 21.99-17.36 32.9-.5.93-1.47 1.67-2.35 2.31-14.9 10.91-29.56 22.17-44.83 32.53-9.59 6.51-20.88 9.49-32.22 11.85-14.19 2.95-28.31 1.37-42.35-.94-11.24-1.85-22.4-4.22-33.55-6.59-2.05-.44-4.16-1.62-5.75-3.02-7.8-6.89-15.47-13.93-23.09-21.03-1.34-1.25-2.51-2.87-3.22-4.55-8.87-21-17.38-42.16-26.56-63.02-3.35-7.62-8.38-14.49-12.34-21.86-2.79-5.18-5.56-10.46-7.43-16.01-1.7-5.03-.78-5.02 4.09-6.85 6.98-2.62 12.61-1.17 18.63 2.9 9.07 6.13 18.65 11.52 28.13 17.01 1.53.89 3.83 1.26 5.55.88 22.58-5.04 45.13-10.23 67.65-15.53 1.49-.35 3.18-1.7 3.92-3.06 3.49-6.41 2.54-13.28 1.18-19.99-1.53-7.56-3.6-15-5.28-22.53-.53-2.37-1.74-3.61-4.08-3.4-4.07.36-8.44.11-12.11 1.56-6.37 2.52-12.45 5.9-18.37 9.39-5 2.96-9.98 4.38-15.63 2.55-.64-.21-1.27-.48-1.93-.56-14.07-1.81-22.89-11.06-30.92-22.04zm15.29 105.86c-.2.08-.4.16-.6.23 1.57 4.97 3.08 9.97 4.8 14.89.18.52 1.63.99 2.39.86 3.41-.57 6.78-1.4 10.18-2.08 11.83-2.38 23.57-5.46 35.51-6.95 18.31-2.28 36.62-4.12 54.26-10.02 4.63-1.55 9.49-3.05 14.3-3.26 14.86-.65 29.74-.71 44.62-.88 2.39-.03 3.88-.85 5.18-2.84 2.63-4.02 5.51-7.88 8.29-11.81 2.2-3.11 4.62-6.08 6.49-9.37.96-1.68 1.45-4.03 1.09-5.87-.16-.8-2.97-1.48-4.59-1.52-2.77-.08-5.59.21-8.34.65-48.46 7.75-96.93 15.45-145.35 23.41-8.23 1.35-16.27 3.84-24.4 5.84-2.07.51-3.2 1.81-3.25 4.07-.04 1.55-.38 3.09-.58 4.65zm3.59 32.18c4.05 6.57 7.67 12.54 11.45 18.41.51.79 1.83 1.17 2.86 1.48 9.52 2.86 19.19 5.26 28.54 8.59 12.4 4.42 24.85 4.25 37.31 1.33 20.8-4.87 38.24-15.83 53.23-30.83 1.52-1.52 2.41-3.72 3.4-5.71 1.06-2.15.1-3.68-2.14-3.72-2.62-.04-5.3.23-7.85.82-9.88 2.29-19.61 5.44-29.6 7.03-20.4 3.24-40.98 5.34-61.15 10.07-2.56.6-5.54.35-8.14-.27-9.11-2.16-18.13-4.65-27.91-7.2z" fill="#010103"/></svg>