<svg enable-background="new 0 0 400 400" viewBox="0 0 400 400" xmlns="http://www.w3.org/2000/svg"><g fill="#010104"><path d="m120.7 111.87c-.38-3.15.03-5.46 3.55-7.17 3.11-1.5 5.77-4.19 8.19-6.76 2.52-2.67 4.32-6 6.78-8.74 3.79-4.21 7.76-8.27 11.84-12.2 10.79-10.39 19.56-22.07 23.49-36.77.75-2.8 2.49-6.13-1.16-8.82-.59-.44.29-3.28.95-4.81.27-.62 1.87-1.15 2.69-.96 12.23 2.93 22.37 9.11 28.84 20.13 3.51 5.98 2.72 8.12-2.41 12.62-2.18 1.91-4.31 3.91-6.19 6.11-1.56 1.83-1.45 3.26.89 5.11 7.01 5.52 13.92 11.25 20.32 17.46 4.93 4.78 7.36 11 5.62 18.06-.51 2.07-1.75 4.01-2.91 5.85-.82 1.31-2.13 2.29-3.09 3.52-2.97 3.8-2.69 5.32 1.34 7.78 11.45 7 22.81 14.16 34.39 20.93 4.33 2.53 7.39 5.93 10 10.05 10.93 17.25 17.32 36.2 21.37 56.08 3.18 15.6 5.41 31.3 5.38 47.26-.01 3.12-.45 6.24-.63 9.36-.66 11.6-1.2 23.21-2.01 34.79-.26 3.77-1.31 7.47-1.79 11.24-.38 2.91-1.9 4.27-4.75 4.49-1.32.1-2.61.47-4.29.8 0-1.32-.03-2.41.01-3.51.71-19.41-.93-38.72-3.27-57.93-1.13-9.27-4.12-18.3-5.96-27.5-1.41-7-1.9-14.21-3.58-21.14-3.24-13.29-6.47-13.94-19.09-12.54-5.55.61-11.05 1.6-16.56 2.53-1.13.19-2.53.6-3.21 1.4-7.67 9.03-15.22 18.16-23.45 28.04 3.12.34 5.59.99 8 .8 9.36-.73 18.69-1.84 28.05-2.59 5.55-.44 11.14-.56 16.71-.63 2.35-.03 3.59 1.46 3.85 3.83.24 2.18-.21 3.39-2.76 3.93-15.09 3.19-30.15 6.53-45.19 9.95-9.36 2.13-9.53 3.22-4.83 11.24 2.54 4.34 5.42 5.76 10.38 5.59 12.63-.45 25.29-.27 37.94-.25 1.52 0 3.35.18 4.49 1.01 1.3.95 2.33 2.63 2.78 4.19.18.62-1.33 2.03-2.33 2.65-6.16 3.8-13.07 5.03-20.14 5.72-8.68.84-17.35 1.77-26.02 2.73-5.08.56-6.94 2.17-7.49 7.19-.69 6.22-.98 12.49-1.4 18.75-.04.63.05 1.4.37 1.92 3.57 5.79 6.88 11.77 10.9 17.23 3.64 4.94 8.31 9.1 12.11 13.93 5.56 7.07 12.33 12.45 20.17 16.8 8.11 4.51 15.93 9.53 23.82 14.41 4.54 2.8 5.51 4.92 4.75 9.96-5.5 0-11.07.06-16.63-.06-.9-.02-1.82-.78-2.67-1.3-8.13-4.93-16.39-9.66-24.3-14.93-4.06-2.7-7.43-6.42-11.19-9.57-9.92-8.32-18.53-17.81-25.52-28.73-.42-.65-.95-1.23-1.73-2.21-3.79 4.27-7.42 8.45-11.15 12.54-5.42 5.95-10.8 11.95-16.39 17.74-9.18 9.5-21.18 12.91-33.69 14.98-6.4 1.06-12.86 1.68-19.28 2.61-2.29.33-4.03.15-4.45-2.99 1.03-.66 2.23-1.41 3.4-2.2 13.63-9.17 27.52-17.99 40.81-27.63 13.78-10 22.22-24.32 29.23-39.49 2.02-4.37 2.37-9.05.94-13.95-7.56-1.51-14.96-.21-22.34 1.78-5.05 1.37-10.1 3.2-15.24 3.64-7.8.67-14.42-2.87-20.91-8.08 11.44-2.65 22.27-5.15 33.11-7.66 5.88-1.36 11.78-2.66 17.64-4.1.96-.24 2.25-.88 2.58-1.67 1.61-3.91 2.95-7.93 4.43-12.06-4.37 0-8.43-.05-12.5.01-7.81.11-15.63.66-23.41.27-5.24-.26-9.7-2.95-12.8-8.04 19.2-5.01 38.1-9.94 57.58-15.02-6.42-8.43-12.63-16.56-19.09-25.04-1.02.95-1.83 1.81-2.75 2.54-5.79 4.56-11.47 9.27-17.45 13.56-4.08 2.92-8.91 4.22-13.98 3.84-1.48-.11-4.09-.87-4.15-1.52-.23-2.34-1.07-4.81 1.42-7.05 6.14-5.52 12.03-11.34 17.77-17.28 1.98-2.05 3.65-4.64 4.68-7.29 3.65-9.41 2.42-10.96-5.66-15.72-3.87 6.48-8.11 12.79-11.55 19.5-7.43 14.55-14.35 29.45-17.33 45.61-3.06 16.6-5.06 33.39-7.64 50.08-.39 2.51-1.1 5.03-2.13 7.35-1.23 2.76-3.43 4.64-6.96 5.07-1.55-4.51-1.82-9.1-1.34-13.76 2.07-20.25 4.49-40.47 6.13-60.76 1.1-13.58 5.48-25.95 11.52-37.89 4.14-8.18 8.03-16.53 12.86-24.29 3.92-6.31 9.12-11.82 13.67-17.74 10.58-13.75 23.77-24.91 36.2-36.83 4.27-4.1 8.11-8.65 12.28-12.86 4.59-4.64 4.76-13.26-1.98-17.38-2.62-1.6-5.47-3.15-8.42-3.83-3.83-.88-7.24.04-9.91 3.71-4.42 6.07-10.67 10.14-17.24 13.62-4.54 2.4-9.21 4.57-13.79 6.91-5.85 3-11.69 6-17.46 9.14-3.49 1.91-4.82 2.26-8.68 1.31zm134.6 68.53c-2.65-9.77-5.72-19.19-13.28-26.32-9.49-8.96-20.26-16.22-31.67-22.42-3.59-1.95-8.06-2.34-12.17-3.28-.88-.2-2.03.09-2.87.52-5.92 3.05-11.23 6.9-15.46 12.12-5.35 6.6-10.7 13.2-16.07 19.78-2.21 2.7-2.22 6.71.44 9.45 1.51 1.56 3.49 2.77 5.44 3.79 2.86 1.5 5.86 2.75 8.85 3.99 5.9 2.45 10.21 6.18 11.33 12.89.4 2.4 1.37 4.71 2.06 7.07 1.78 6.08 3.56 12.17 5.52 18.88 1.07-1.46 1.98-2.33 2.43-3.39 2.28-5.34 4.65-10.65 6.59-16.11 3.48-9.78 4.47-19.4-2.83-28.21-1.16-1.39.52-4.09 2.2-3.64 8.09 2.16 16.73 3.65 22.45 10.36 3.48 4.08 7.61 5 12.27 5.52 4.89.56 9.77 1.11 14.77-1z"/><path d="m273.46 342.65c-1.83-.78-4.54-1.6-6.9-3-7.88-4.66-15.69-9.46-23.44-14.33-6.03-3.79-9.81-9.68-13.87-15.3-3.79-5.25-7.84-10.34-11.32-15.79-1.59-2.49-2.49-5.61-2.94-8.55-.35-2.26 1.38-3.5 3.72-2.4 2.31 1.08 4.77 2.08 6.69 3.69 13.93 11.72 27.93 23.37 41.49 35.51 4.41 3.95 7.83 9.1 11.22 14.04 2.09 3.04-.08 6.11-4.65 6.13z"/><path d="m129.91 290.81c9.01 1.01 16.66 4.13 22.61 10.76.93 1.04 1.57 2.46 2.01 3.81 1.57 4.74.67 7.19-3.94 8.78-9.55 3.29-17.04 9.6-24.48 16.02-6.17 5.32-12.93 9.14-21.31 9.38-.42.01-.85-.04-1.29-.06-1.06-3.52 0-5.67 3.02-7.85 13.22-9.5 21.72-21.99 22.93-38.7.06-.53.23-1.06.45-2.14z"/></g><path d="m385.2 377.6.6-.7c.6.4 1.3.9 1.9 1.5l-.6.7c-.8-.5-1.4-1-1.9-1.5zm.3 7.1c.6-1.4 1.1-2.9 1.5-4.5.3.1.6.3.9.4-.5 1.4-1 2.9-1.5 4.4zm.2-10.1.6-.6c.7.5 1.3 1.1 1.9 1.6l-.7.7c-.6-.6-1.2-1.2-1.8-1.7zm8.4-.8h.8v.9h1.8v.7h-1.8v1.8h-.8v-.3h-1.2v.9h3.3v2.6h-.8v-.4h-2.5c0 .3 0 .6-.1.8h3.4v.7h-3.5c0 .3-.1.6-.1.8h4v.7h-3.5c.7.9 1.9 1.3 3.6 1.5-.2.2-.4.5-.6.9-1.9-.3-3.2-1.1-3.8-2.3-.5 1.1-1.8 2-3.9 2.4-.2-.3-.4-.5-.6-.8 1.9-.4 3.1-.9 3.6-1.7h-3.2v-.7h3.5c.1-.2.1-.5.2-.8h-3.3v-.7h3.4c0-.2 0-.5 0-.8h-2.4v.3h-.8v-2.6h3.3v-.9h-1.2v.3h-.8v-1.8h-1.8v-.7h1.8v-.9h.8v.9h3.2zm-4.4 5.5h2.4c0-.3 0-.6 0-.9h-2.4zm1.2-3.1h3.2v-.8h-3.2zm4.4 2.2h-2.4v.9h2.5v-.9z" fill="#fcfbfa"/><path d="m389.2 385.8h.9v1.5h1.9v-1.5h.9v1.5h2.7v6h1.1v.9h-11.3v-.9h1.1v-6h2.7zm.2 8.7.5.8c-1.2.6-2.5 1.3-4 1.9-.2-.3-.3-.6-.6-.8 1.6-.6 3-1.3 4.1-1.9zm-2-4.3h1.9v-2.1h-1.9zm0 3.1h1.9v-2.2h-1.9zm2.7-3.1h1.9v-2.1h-1.9zm0 3.1h1.9v-2.2h-1.9zm2.4 1.3c1.4.6 2.7 1.2 4.1 1.8l-.5.9c-1.5-.7-2.8-1.4-4.1-1.9zm2.2-6.5h-1.9v2.1h1.9zm-1.9 5.2h1.9v-2.2h-1.9z" fill="#fcfbfa"/></svg>