<svg enable-background="new 0 0 400 400" viewBox="0 0 400 400" xmlns="http://www.w3.org/2000/svg"><path d="m374.8 390.4.4-.4c.7.5 1.3 1 1.8 1.4l-.5.5c-.5-.6-1.1-1.1-1.7-1.5zm1 7.3-.6-.3c.5-1.4 1.1-2.8 1.5-4.3.2.1.4.2.6.3-.5 1.3-1 2.8-1.5 4.3zm-.4-10.3.4-.4c.4.3 1 .8 1.7 1.4l-.5.5c-.4-.5-1-1-1.6-1.5zm2.5.3h1.7v-1h.6v1h3.5v-1h.6v1h1.8v.5h-1.8v1.4h-2v1h3.2v2h-3.2v.9h3.3v.5h-3.4c0 .3-.1.6-.1.9h4v.5h-3.7c.7.9 1.9 1.5 3.8 1.7-.1.2-.2.4-.3.6-2.1-.4-3.5-1.1-4-2.1-.4 1-1.8 1.7-4 2.2-.1-.2-.2-.4-.3-.6 2.1-.4 3.4-1 3.8-1.8h-3.4v-.5h3.6c.1-.3.1-.6.2-.9h-3.3v-.5h3.4c0-.3 0-.6 0-.9h-3.2v-2h3.3v-1h-2.1v-1.4h-1.7v-.5zm1.1 3.5v1h2.7c0-.3 0-.4 0-.4 0-.1 0-.2 0-.2 0-.1 0-.2 0-.3h-2.7zm1.2-3v.9h3.5v-.9zm4.7 3h-2.6v.6.4h2.6z" fill="#fbfcfa"/><path d="m393.6 386.7h.6v1.5h2.7v6.1h1.1v.6h-11v-.6h1.1v-6.1h2.7v-1.5h.6v1.5h2.1v-1.5zm-2.7 8.8.4.6c-1.2.6-2.5 1.3-3.8 1.9-.1-.2-.2-.4-.3-.6 1.2-.6 2.5-1.2 3.7-1.9zm-2.2-6.7v2.4h2.1v-2.4zm0 3v2.5h2.1v-2.5zm2.8-3v2.4h2.1v-2.4zm0 3v2.5h2.1v-2.5zm6 6.1c-1.4-.7-2.7-1.3-3.9-1.8l.3-.6c1.5.6 2.7 1.2 3.9 1.7zm-1.2-9.1h-2.1v2.4h2.1zm-2.1 3v2.5h2.1v-2.5z" fill="#fbfcfa"/><g fill="#010101"><path d="m297.64 259.99c1.26-1.61 1.98-2.54 3.27-4.2 2.26 8.04 4.5 15.48 6.42 22.99 2.41 9.39 2.37 18.89-.13 28.23-.7 2.62-2.77 4.88-4.21 7.31-.28-.1-.56-.19-.85-.29-.48-2.14-.95-4.28-1.44-6.42-.91-3.95-2.53-6.75-7.26-7.48-7.48-1.15-14.85-3.1-23.02-4.87 0 2.83-.38 5.25.07 7.5 1.77 8.87 3.56 17.75 5.81 26.51 1.89 7.34 4.34 14.54 6.7 21.75 1.68 5.16 1.89 10.09-1.36 14.74-.37.52-.87.95-1.44 1.56-4.3-5.92-10.6-8.5-16.76-11.51-5.68-2.77-11.03-6.29-16.33-9.77-1-.66-1.11-2.67-1.8-4.53-7.4.88-12.56-4.89-18.77-8.06-3.15-1.6-5.73-4.57-8.14-7.3-2.93-3.31-5.92-6.32-10.64-7.88-2.71 7.06-7.1 12.74-12.7 17.51-1.87 1.6-3.83 3.1-5.66 4.73-.89.79-1.98 1.69-2.29 2.74-1.11 3.78-3.71 6.19-6.7 8.47-7.38 5.63-14.66 11.4-21.99 17.1-.79.61-1.68 1.5-2.56 1.53-3.38.12-5.89 1.07-7.42 4.5-.74 1.67-4.3.85-4.83-1.14-.47-1.78-.76-3.8-.42-5.58 3.13-16.36 6.4-32.69 9.67-49.03.19-.94.44-2.11 1.1-2.66 2.82-2.4 2.04-5.09 1.02-7.92-.78-2.19-1.27-4.51-2.27-6.58-.5-1.04-1.88-2.32-2.86-2.32-2.75 0-5.44.37-7.29 3.15-.9 1.35-2.9 1.95-4.32 2.99-3.65 2.68-7.74 4.97-10.74 8.24-3.73 4.07-8.17 5.94-13.47 7.2 0-5.09.12-9.9-.06-14.7-.06-1.69-.4-3.75-1.42-4.95-4.76-5.62-4.88-12.07-3.71-18.72.97-5.48 2.51-10.86 3.53-16.33.59-3.17.67-6.44.95-9.67.38-4.31 1.35-8.29 4.64-11.49 4.98-4.83 9.71-9.91 14.68-14.76 2.68-2.62 3.89-5.54 3.49-9.31-.3-2.77-.13-5.59-.2-8.39-.07-2.88-.25-5.5-2.3-8.07-2.9-3.62-1.96-6.43 2.18-8.91-.62-.8-1.14-1.67-1.86-2.34-3.5-3.29-5.25-7.27-5.77-12.08-.47-4.37-4.49-6-8.12-3.63-2.91 1.89-5.78 3.84-8.68 5.74-4.6 3.02-6.9 7.07-6 12.72.37 2.31.54 4.67.6 7.02.06 2.69-1.5 4.1-4.09 4.4-2.38.27-3.93-.07-4.93-2.97-4.35-12.5-6.9-25.35-9.53-38.29-1.9-9.32-1.25-18.13.04-27.05 1.26-8.69 3.59-17.23 5.77-25.76.39-1.53 2.09-3.12 3.58-3.92 6.71-3.57 13.48-7.05 20.4-10.18 2.62-1.19 5.68-1.5 8.58-1.94 1.75-.26 3.58.12 5.36 0 4.08-.26 5.69-1.59 5.89-5.62.32-6.35 3.88-11.36 6.53-16.7 7.06-14.2 13.43-28.81 22.91-41.69 1.33-1.8 2.98-3.39 4.12-5.29 1.96-3.27 4.37-3.01 7.35-1.64 6.26 2.89 11.16 7.41 15.41 12.69 5.34 6.62 10.73 13.22 15.76 20.07 5.02 6.82 9.62 13.95 14.28 20.75 5.59-.92 11.39-1.9 17.2-2.8.96-.15 2.26-.34 2.93.15 3.59 2.64 7.55 2.23 11.57 1.82.76-.08 1.63-.04 2.3.26 6.52 2.94 13.03 5.91 19.48 9 .77.37 1.31 1.44 1.73 2.29 4.28 8.59 8.52 17.2 12.73 25.82.38.77.83 1.73.7 2.5-.63 3.65 1 6.16 3.66 8.37 3.42 2.85 4.33 6.82 3.92 10.93-.61 6.12-1.87 12.21 2.29 17.82-3.34.4-3.32.4-4.02-3.26-.4-2.07-.85-4.13-1.27-6.19-.25.31-.49.62-.74.94-1.99-1.01-3.97-2.06-5.99-3.01-1.75-.82-3.5-1.95-5.35-2.22-6.42-.92-12.9-1.4-19.32-2.31-2.17-.31-3.39.35-3.61 2.27-.27 2.39-.31 4.86-.02 7.24.86 7.07 1.93 14.12 2.9 21.17.66 4.75 1.62 9.48 1.85 14.24.28 5.65-.09 11.33-.17 16.99-.11 7.83-.16 15.67-.32 23.5-.08 4.01 1.53 6.78 5.3 8.34 2.99 1.24 5.95 2.57 8.84 4.02 4.67 2.35 9.4 4.62 13.87 7.32 3.36 2.03 4.47 5.37 3.82 9.32-.25 1.45-.05 2.98-.05 5.28zm-141.72-101.8c-5.3 3.86-10.38 7.64-15.56 11.29-1.61 1.14-2.33 2.37-2.26 4.41.48 15.64 5.42 30.04 12.14 43.93 1.63 3.37 4.21 3.47 6.08.18 1.13-1.99 1.47-4.43 2.34-6.59 1.89-4.74 3.34-9.77 5.97-14.07 4.25-6.95 9.41-13.34 13.98-20.1 1.66-2.46 3.57-3.06 6.69-2.08 0 2.19-.11 4.53.05 6.84.07 1.02.4 2.34 1.11 2.96 5.98 5.17 11.4 10.92 18.69 14.58 8.27 4.15 16.12 9.16 24.07 13.92 1.58.95 2.78 2.52 4.23 3.72 5.97 4.95 11.97 9.86 18.76 15.44 1.21-4.02 2.5-6.81 2.81-9.71.43-4.04 1.32-7.61 4.3-10.61.64-.64.35-2.51.06-3.71-.41-1.7-1.81-3.33-1.75-4.95.44-11.96 1.19-23.9 1.66-35.86.06-1.55-.6-3.41-1.56-4.64-1.38-1.77-3.27-3.02-1.69-5.7.32-.54-.28-1.92-.82-2.62-5.17-6.69-8.93-14.05-11.93-21.98-3.75-9.91-9.12-11.7-18.11-6.01-3.82 2.42-7.45 2.32-11.52 2.16.35-4.34 2.52-7.21 6.48-8.59 3.05-1.06 6.16-2.06 9.33-2.68 2.59-.5 3.58-1.89 2.85-4.15-1.12-3.47-2.17-7.1-4.07-10.16-6.31-10.17-12.88-20.17-19.55-30.11-2.54-3.78-5.43-7.38-8.48-10.77-7.62-8.47-16.02-16.29-21.76-26.32-.2-.35-.62-.56-1.02-.92-5.98 5.98-9.77 13.17-13.12 20.65-4.93 11.01-9.81 22.05-14.81 33.03-4.92 10.81-9.36 21.75-10.45 33.76-.29 3.23-.9 6.42-1.35 9.63-1.01 7.29-2.65 14.57-2.85 21.89-.23 7.99 3.76 10.07 11.07 6.39 1.78-.9 3.36-2.2 5.04-3.32 2.41-1.62 4.78-3.32 7.25-4.84 11.43-7.03 22.86-14.07 34.36-20.98 2.27-1.36 4.85-2.23 7.35-3.18.78-.3 1.76-.32 2.6-.18 3.08.53 4.14 3 4.47 5.59.33 2.63-1.83 3.69-3.95 4.24-13.17 3.41-24.71 10.22-36.17 17.21-1.72 1.05-3.48 2.02-5.23 3.02-2.18 1.23-4.32 2.07-5.73-.01zm25.56 34.67c-5.09 9.53-9.76 17.79-13.96 26.28-2.81 5.69-6.17 11.52-7.15 17.62-1.9 11.85.34 23.59 4.48 34.88.69 1.87 1.72 2.44 3.81 2.04 8.45-1.62 16.93-3.16 25.44-4.46 8.92-1.37 17.93-3.59 26.83-3.3 9.09.29 18.09-.46 27.13-.35 3.52.04 4.95-1.66 4.9-5.18-.07-4.25-.54-8.53-.2-12.75.48-5.95-2.47-9.13-7.24-11.99-6.87-4.13-13.75-8.46-19.81-13.66-4.49-3.85-9.15-6.92-14.41-9.48-4.07-1.99-7.76-4.78-11.56-7.3-5.8-3.88-11.57-7.83-18.26-12.35zm37.93 79.79c-2.89 1.37-5.14 3.14-7.59 3.47-9.18 1.24-18.43 1.93-27.63 2.98-6.34.72-12.65 1.81-18.13 5.4-.87.57-1.78 1.82-1.82 2.79-.21 5.25-.53 10.53-.1 15.75.82 9.83 1.28 11.44 12.71 9.02 5.8-1.23 11.19-4.36 16.78-6.59 4.6-1.83 9.19-4.71 13.89-.14 1.19-1.56 2.16-2.78 3.07-4.04 2.7-3.7 6-5.59 10.88-4.89 3.69.52 7.52.07 11.29 0 4.55-.09 9.1-.28 13.65-.34 1.56-.02 3.25.68 4.65.26 2.2-.67 6.02-2.1 5.98-3.05-.27-5.49.37-11.33-2.99-16.23-.75-1.1-2.11-2.51-3.21-2.54-7.36-.14-14.77-.38-22.08.31-3.83.35-7.06.63-9.35-2.16zm51.85 78.7c-5.92-13.84-5.06-29.29-11.4-42.97-2.34-5.05-3.16-6.16-8.86-5.43-1.77.23-3.48.84-5.25 1.09-1.64.23-3.54.74-4.94.18-3.67-1.45-6.95-.36-10.38.65-4.61 1.36-9.27 2.53-13.9 3.82-1.12.31-2.21.74-3.31 1.12-.16.38-.33.75-.49 1.13 4.35 3.41 8.42 7.26 13.1 10.12 7.6 4.64 14.82 9.57 20.53 16.52.97 1.17 2.67 2.15 4.17 2.4 3.73.61 6.68 2.2 9.04 5.16 1.39 1.74 3.26 3.1 4.62 4.86 1.81 2.33 3.86 2.8 7.07 1.35zm-69.45-36.61c-2.83-3.18-6.12-2.92-9.4-1.89-5.22 1.65-10.33 3.65-15.55 5.25-1.82.56-3.92.78-5.79.51-8.24-1.23-8.78-.9-10.04 7.57-.07.44-.05.9-.13 1.34-1.03 5.13-1.75 10.35-3.19 15.36-1.56 5.44-3.8 10.68-5.7 16.02-.27.76-.27 1.61-.43 2.63 5.5-1.69 10.6-3.26 16.04-4.93-1.09-4.01 1.91-6.23 5.11-8.53 4.45-3.2 8.74-6.62 13.01-10.05.99-.79 1.74-1.96 2.41-3.06 1.54-2.56 2.78-5.33 4.47-7.78 2.85-4.16 5.97-8.11 9.19-12.44zm-102.09-167.36c7.81-2.26 18.82-7.97 23.97-12.36.96-.82 2.18-1.99 2.26-3.07.45-6.05 1.9-11.78 3.86-17.53 2.15-6.31-1.62-9.51-8.3-8.31-7.29 1.31-13.13 4.55-18.49 9.75-3.97 3.85-6.83 7.28-5.29 13.07.45 1.69.09 3.57.3 5.34.49 4.27 1.09 8.53 1.69 13.11zm144.75-35.53c-.16.36-.31.72-.47 1.07 2.49 5.22 4.85 10.51 7.56 15.61.72 1.36 2.39 2.83 3.83 3.08 5.82 1.02 11.71 1.78 17.6 2.24 4.27.34 8.59.07 12.86.07.42-9.93-4.72-17.18-13.6-19.73-1.5-.43-3.1-.67-4.49-1.34-2.17-1.05-4.21-2.39-6.3-3.61-1.67.29-3.74 1.61-5.56 3.21-2.31 2.03-4.35 2.08-6.9.31-1.15-.79-2.99-.63-4.53-.91zm-123.76 195.68c2.79-1.2 5.14-1.79 7.01-3.08 6.06-4.19 11.82-8.82 17.95-12.92 4.8-3.21 6.21-8.01 7.02-13.11.25-1.58-.56-3.46-1.29-5.02-.81-1.71-2.09-2.28-4.05-1-5.98 3.91-12.14 7.55-18.14 11.45-4.95 3.22-9.34 6.86-8.77 13.73.14 1.75-.47 3.54-.48 5.32-.02 1.29.39 2.57.75 4.63zm1.52-32.21c.42.08.85.17 1.27.25 8.17-5.43 16.35-10.84 24.45-16.38.56-.38.82-1.99.51-2.72-2.24-5.31-5.31-10.34-4.43-16.55.1-.69-1.33-1.89-2.28-2.31-.58-.25-1.85.33-2.42.92-2.73 2.8-5.11 5.97-8 8.57-5.75 5.16-8.17 11.89-9.4 19.12-.51 2.94.16 6.07.3 9.1zm-20.48-109.88c1.02 2.39 1.91 4.84 3.1 7.13 1.07 2.06 2.71 2.52 5.04 1.54 3.49-1.48 7.08-2.86 10.75-3.75 3.5-.85 5.32-2.51 5.66-6.21.28-2.98 1.23-5.9 1.88-8.85 1.19-5.43-.04-7.92-5.07-10.46-1.53-.77-2.73-.86-4.2.4-3.39 2.91-6.8 5.89-10.55 8.3-4.39 2.82-5.92 6.71-6.61 11.9zm195.76 122.82c-.1-5.18-2.23-9-7.26-10.92-1.35-.51-2.7-1.09-3.94-1.82-4.52-2.66-10.13-3.9-12.37-9.57-.23-.57-1.21-.95-1.91-1.2-4.4-1.6-8.91 1.88-8.1 6.37.41 2.28.96 4.69 2.12 6.63.95 1.57 2.75 3.24 4.46 3.63 5.7 1.29 10.55 4.04 15.33 7.21 2.17 1.44 4.78 2.43 7.33 3.05 2.76.68 4.41-.87 4.34-3.38zm-32.73-50.46c-.37 2.98-.82 5.37-.93 7.78-.21 4.76 1.49 8.33 6.13 10.48 3.11 1.44 6.18 3.27 8.74 5.52 4.09 3.59 9.11 3.67 14.41 5.08-1.02-4.74-1.89-8.96-2.88-13.15-.19-.81-.73-1.68-1.38-2.21-7.04-5.73-14.76-10.3-24.09-13.5zm5.73-136.33c-4.25-7.7-9.53-12.06-16.95-12.61-7.22-.53-14.5-.12-21.81-.12-.26 6.12 8.8 15.09 15.48 14.76 5.09-.25 10.19-.19 15.27-.52 2.48-.16 4.92-.91 8.01-1.51z"/><path d="m175.92 77.16c7.98 3.98 9.32 10.85 9.55 18.23.06 1.89-.13 3.8-.37 5.68-.67 5.22-1.11 5.65-6.79 6.86-4.57-9.82-5.67-19.9-2.39-30.77z"/></g></svg>