<svg enable-background="new 0 0 400 400" viewBox="0 0 400 400" xmlns="http://www.w3.org/2000/svg"><path d="m196.82 328.77c-17.87 23.45-36.85 44.59-69.11 46.35-.14-2.95.91-4.63 3.09-6.3 21.86-16.64 39.02-37.03 49.38-62.73.78-1.93 1.25-3.98 2.04-6.55-13.2 2.14-25.83 4.18-38.57 6.25-.36 2.94-.49 5.42 1.68 7.88 2.29 2.59 1.24 7.31-1.51 9.41-10.5 8-20.94 16.08-31.51 23.99-9.66 7.22-20.63 11.02-32.66 11.69-.99.05-2.02-.72-3.03-1.11.43-1.04.6-2.34 1.34-3.07 10.42-10.32 20.97-20.49 31.35-30.85 3.23-3.23 6.14-6.8 8.97-10.4 1.05-1.34 1.72-3.16 2.05-4.86.5-2.61-.11-4.54-3.27-5.5-6.3-1.9-12.63-3.96-17.04-9.44-.34-.42-1.59-.36-2.32-.17-1.14.3-2.21.89-4.17 1.73.42-3.31.1-6.21 1.18-8.42 6.53-13.33 9.05-27.87 12.04-42.1 4.59-21.81 4.59-43.72-3.51-65.04-2.77-7.28-6.95-13.16-14.23-16.58-3.31-1.56-4.99-4.6-6.13-8.1 3.97-.77 7.51-.1 10.75 1.94 4.27 2.69 8.56 2.68 13.09.65 11.77-5.28 21.93-12.93 31.59-21.31 11.86-10.28 23.14-21.12 31.95-34.27 3.9-5.82 6.51-11.84 5.67-19.1-.41-3.53-.26-7.17-.01-10.73.19-2.82-.72-4.71-4.1-6.15-15.84 30.58-41.33 47.7-75.81 51.46-2.38-3.58-2.37-3.61 1.34-6.08.65-.43 1.27-.93 1.96-1.29 11.23-5.96 19.63-15.03 27.14-25 5.9-7.84 11.86-15.68 17.14-23.94 3.95-6.19 5.26-13.53 5.79-20.81.18-2.52-.66-5.21-1.45-7.68-.74-2.29-2.04-4.39-3.3-6.99 6.81.42 12.55 2.65 17.54 6.26 15.77 11.41 26.37 26.58 31.2 45.47 1 3.9.41 8.22.45 12.35.06 5.15.13 10.3-.04 15.44-.08 2.33.64 3.52 2.8 4.56 14.7 7.06 29.65 13.71 43.91 21.6 23.69 13.11 42.75 31.31 55.32 55.55 8.33 16.08 10.04 33.46 5.87 50.89-1.21 5.04-2.54 10.27-4.19 15.29-.68 2.07-2.2 4.11-3.87 5.55-4.21 3.65-8.72 6.95-13.2 10.47 4.12 3.37 10.29 4.21 11.11 10.9-6.52 4.02-13.81 5.8-21.43 6.37-10.03.75-20.08 1.36-30.12 2.04-.85.06-1.69.23-3.6.5 3.15 1.89 5.4 3.42 7.8 4.65 18.42 9.41 37.67 16.35 58.09 20.03 3.99.72 7.84 2.49 11.59 4.15 2.59 1.15 3.49 3.53 3.15 6.44-.35 2.97-2.62 3.37-4.77 3.86-8.58 1.96-17.15.8-25.69-.29-4.09-.53-8.15-1.4-12.2-2.2-5.55-1.09-10.3-3.28-14.72-7.24-4.49-4.02-10.18-6.77-15.56-9.7-4.77-2.6-8.88-5.7-10.85-10.91-1.13-2.98-3.44-6.32 1.75-8.45-8.23-2.6-17.01.06-20.64 6.75-2.57 4.73-3.93 10.11-5.8 15.22-.71 1.93.11 3.26 1.54 4.66 13.94 13.64 30.7 22.12 49.26 27.51 13.59 3.95 27.47 6.11 41.51 7.48 1.88.18 3.79.49 5.59 1.04 3.72 1.13 5.76 4.06 5.37 7.86-.1.94-1.02 2.27-1.87 2.58-5.35 1.96-10.76 3.75-16.2 5.43-1.08.33-2.42.13-3.59-.11-14.67-2.94-29.46-5.4-43.95-9.08-11.72-2.99-22.6-8.25-31.94-16.38-5.48-4.74-11.53-8.84-17.43-13.32zm60.33-64.55c-3.66-.8-6.13-2.86-6.97-6.92-.52-2.49-1.53-4.9-2.57-7.23-.28-.63-1.51-1.3-2.22-1.22-9.66 1-19.31 2.03-28.94 3.25-6.19.79-12.23 2.21-18.08 5.72 2.42 1.8 4.59 3.36 6.69 4.99 1.85 1.43 3.55 3.07 5.47 4.39 1.16.8 2.62 1.69 3.93 1.65 13.41-.36 26.82-.85 40.22-1.45 1.31-.06 2.79-.76 3.84-1.61 6.87-5.56 13.38-11.6 20.53-16.76 5.17-3.74 6.26-8.67 6.29-14.22.11-19.32-4.09-37.76-12.57-55.08-4.4-8.99-8.88-18.14-17.89-23.8-15.21-9.54-31.33-17.17-48.22-23.22-1.45-.52-3.13-1.17-4.54-.9-6.46 1.23-12.51-.41-18.31-2.69-5.59-2.2-9.56-1.4-13.51 3.35-4.73 5.71-10.25 10.77-15.56 16.25 4.74 3.43 9.37 7.16 14.37 10.28 5.43 3.39 7.12 7.82 5.9 13.95-.38 1.91-.27 4.61.82 6.01 5.47 7.03 11.33 13.75 17.08 20.6 9.25-9.32 12.9-21.01 15.56-33.06.86-3.9-.74-7.64-3.56-10.42-2.12-2.09-1.95-3.96-.65-6.5 5.94 2.05 11.78 4.22 17.73 6.03 2.55.77 4.02 2.11 4.64 4.59 2.29 9.16 7.47 16.19 15.25 21.56 3.28 2.27 6.59 4.88 8.94 8.04 6.45 8.64 11.22 18.26 14.68 28.49 2.12 6.28 3.03 12.91 1.24 19.17-2.57 8.99-6.26 17.63-9.59 26.76zm-87.41-63.84c-9.25 9.71-20.29 15.46-31.11 21.54-2.24 1.26-4.5 2.5-6.67 3.87-.79.5-1.68 1.23-1.96 2.05-1.45 4.22-2.9 8.46-3.95 12.8-.49 2.03-.08 4.29-.08 6.4 15.06 1.31 54.58-3.32 63.14-11.53-3.35-4.3-6.21-8.85-5.23-14.8.76-4.58-1.35-8.39-4.33-11.53-2.89-3.06-6.26-5.66-9.81-8.8zm-50.23 87.56c23.64.51 45.47-7.15 67.3-14.85.68-.24 1.6-1.03 1.65-1.64.67-7.24-3.69-12.91-11.76-10.78-5.93 1.56-11.88 3.15-17.65 5.22-9.44 3.38-18.52 2.75-27.74-.87-2.63-1.04-5.99-1.21-8.79-.66-7.35 1.43-15.8 13.46-15.36 21 .11 1.8.75 2.64 2.63 2.6 3.23-.08 6.48-.02 9.72-.02zm12.38-79.03c5.62-6.51 10.76-12.24 15.62-18.2 1.63-2.01 3.11-4.48 3.66-6.97.93-4.22 1.4-8.61 1.44-12.93.05-5.09-.97-10-5.32-13.52-1.37-1.11-2.4-1.44-4.06-.29-5.5 3.82-11.12 7.47-16.77 11.08-1.6 1.02-1.92 2.12-1.5 3.9.74 3.15 1.2 6.36 1.8 9.54 1.64 8.85 3.31 17.69 5.13 27.39zm113.41 18.87c-1.08-10.47-4.05-19.67-12.14-26.52-1.4-1.18-3.34-1.72-5.04-2.54-1.89-.91-3.3-.32-4.7 1.19-3.94 4.27-7.64 8.87-12.13 12.48-5.03 4.04-5.45 9.39-5.89 14.88-.29 3.66 1.5 5.05 5.25 4.66 2.33-.24 4.66-.49 6.99-.77 9.06-1.1 18.12-2.21 27.66-3.38z" fill="#010104"/><g fill="#fcfbfa"><path d="m385.2 377.6.6-.7c.6.4 1.3.9 1.9 1.5l-.6.7c-.8-.5-1.4-1-1.9-1.5zm.3 7.1c.6-1.4 1.1-2.9 1.5-4.5.3.1.6.3.9.4-.5 1.4-1 2.9-1.5 4.4zm.2-10.1.6-.6c.7.5 1.3 1.1 1.9 1.6l-.7.7c-.6-.6-1.2-1.2-1.8-1.7zm8.4-.8h.8v.9h1.8v.7h-1.8v1.8h-.8v-.3h-1.2v.9h3.3v2.6h-.8v-.4h-2.5c0 .3 0 .6-.1.8h3.4v.7h-3.5c0 .3-.1.6-.1.8h4v.7h-3.5c.7.9 1.9 1.3 3.6 1.5-.2.2-.4.5-.6.9-1.9-.3-3.2-1.1-3.8-2.3-.5 1.1-1.8 2-3.9 2.4-.2-.3-.4-.5-.6-.8 1.9-.4 3.1-.9 3.6-1.7h-3.2v-.7h3.5c.1-.2.1-.5.2-.8h-3.3v-.7h3.4c0-.2 0-.5 0-.8h-2.4v.3h-.8v-2.6h3.3v-.9h-1.2v.3h-.8v-1.8h-1.8v-.7h1.8v-.9h.8v.9h3.2zm-4.4 5.5h2.4c0-.3 0-.6 0-.9h-2.4zm1.2-3.1h3.2v-.8h-3.2zm4.4 2.2h-2.4v.9h2.5v-.9z"/><path d="m389.2 385.8h.9v1.5h1.9v-1.5h.9v1.5h2.7v6h1.1v.9h-11.3v-.9h1.1v-6h2.7zm.2 8.7.5.8c-1.2.6-2.5 1.3-4 1.9-.2-.3-.3-.6-.6-.8 1.6-.6 3-1.3 4.1-1.9zm-2-4.3h1.9v-2.1h-1.9zm0 3.1h1.9v-2.2h-1.9zm2.7-3.1h1.9v-2.1h-1.9zm0 3.1h1.9v-2.2h-1.9zm2.4 1.3c1.4.6 2.7 1.2 4.1 1.8l-.5.9c-1.5-.7-2.8-1.4-4.1-1.9zm2.2-6.5h-1.9v2.1h1.9zm-1.9 5.2h1.9v-2.2h-1.9z"/></g></svg>