<svg enable-background="new 0 0 400 400" viewBox="0 0 400 400" xmlns="http://www.w3.org/2000/svg"><path d="m374.8 390.4.4-.4c.7.5 1.3 1 1.8 1.4l-.5.5c-.5-.6-1.1-1.1-1.7-1.5zm1 7.3-.6-.3c.5-1.4 1.1-2.8 1.5-4.3.2.1.4.2.6.3-.5 1.3-1 2.8-1.5 4.3zm-.4-10.3.4-.4c.4.3 1 .8 1.7 1.4l-.5.5c-.4-.5-1-1-1.6-1.5zm2.5.3h1.7v-1h.6v1h3.5v-1h.6v1h1.8v.5h-1.8v1.4h-2v1h3.2v2h-3.2v.9h3.3v.5h-3.4c0 .3-.1.6-.1.9h4v.5h-3.7c.7.9 1.9 1.5 3.8 1.7-.1.2-.2.4-.3.6-2.1-.4-3.5-1.1-4-2.1-.4 1-1.8 1.7-4 2.2-.1-.2-.2-.4-.3-.6 2.1-.4 3.4-1 3.8-1.8h-3.4v-.5h3.6c.1-.3.1-.6.2-.9h-3.3v-.5h3.4c0-.3 0-.6 0-.9h-3.2v-2h3.3v-1h-2.1v-1.4h-1.7v-.5zm1.1 3.5v1h2.7c0-.3 0-.4 0-.4 0-.1 0-.2 0-.2 0-.1 0-.2 0-.3h-2.7zm1.2-3v.9h3.5v-.9zm4.7 3h-2.6v.6.4h2.6z" fill="#fbfcfa"/><path d="m393.6 386.7h.6v1.5h2.7v6.1h1.1v.6h-11v-.6h1.1v-6.1h2.7v-1.5h.6v1.5h2.1v-1.5zm-2.7 8.8.4.6c-1.2.6-2.5 1.3-3.8 1.9-.1-.2-.2-.4-.3-.6 1.2-.6 2.5-1.2 3.7-1.9zm-2.2-6.7v2.4h2.1v-2.4zm0 3v2.5h2.1v-2.5zm2.8-3v2.4h2.1v-2.4zm0 3v2.5h2.1v-2.5zm6 6.1c-1.4-.7-2.7-1.3-3.9-1.8l.3-.6c1.5.6 2.7 1.2 3.9 1.7zm-1.2-9.1h-2.1v2.4h2.1zm-2.1 3v2.5h2.1v-2.5z" fill="#fbfcfa"/><g fill="#010106"><path d="m134.01 233.08c3.46-2.69 5.91-4.71 8.47-6.57 4.33-3.15 8.71-6.25 13.12-9.28 1.58-1.08 1.74-2.32 1.23-4.02-1.53-5.09-3.1-10.18-4.37-15.35-1.76-7.19-3.35-14.43-4.81-21.69-.54-2.7-1.73-2.74-3.98-2.03-5.18 1.62-8.7 5.4-12.15 9.17-.76.84-.38 2.89-.24 4.35.73 7.69.46 15.24-2.23 23.72-1.68-1.53-3.16-2.24-3.5-3.31-.97-3.04-1.88-6.21-2.08-9.37-.69-11.16-1.06-22.35-1.56-33.52-.02-.45.06-.98-.16-1.32-3.23-5.14-1.9-11.09-2.91-16.62-1.1-5.96 1.15-9.27 6.82-11.53 5.5-2.19 10.2-5.38 12.64-11.08.43-1.01 1.02-2.13.94-3.16-.4-5.26 2.14-9.46 4.52-13.78 2.85-5.16 5.52-10.42 8.43-15.54.42-.74 1.75-1.3 2.67-1.32.74-.02 1.94.76 2.17 1.45.55 1.66.96 3.48.88 5.21-.42 9.35 8.45 16.51 17.52 14.02 3.12-.86 6.33-1.49 9.32-2.68 1.23-.49 2.81-2.2 2.79-3.33-.06-4.67 2.39-8.23 4.37-12.07.66-1.29 1.14-3.25.64-4.47-4.94-12.11-12.69-22.01-23.7-29.23-3.11-2.04-4.39-1.91-6.03 1.48-2.82 5.81-5.29 11.79-7.96 17.68-.45 1-.98 2.1-1.79 2.78-1.8 1.51-3.22.49-3.85-1.46 1.53-4.06 2.68-6.94 3.7-9.86 1.05-3.04 1.9-6.15 2.95-9.19 3.02-8.75 6.04-17.49 9.19-26.19 1.05-2.9 2.34-5.76 3.94-8.39.48-.79 2.55-1.23 3.6-.9 1.73.55 3.37 1.69 4.79 2.88 3.94 3.3 7.78 6.72 11.6 10.16 2.15 1.94 4.27 3.92 6.23 6.05 8.32 9.02 16.62 18.05 24.82 27.17 3.13 3.48 5.71 7.5 9.06 10.74 3.66 3.54 8.43 6.02 11.77 9.8 3.08 3.48 7.85 6.3 7.46 12.06-.01.11-.02.25.04.33 4.31 6.72 1.6 14.5 3.22 21.66.78 3.46 1.67 5.41 5.39 6.89 6.07 2.41 11.71 6.03 17.26 9.57 1.11.71 1.74 3.62 1.27 5.09-2.99 9.34-2.63 18.99-3.25 28.56-.15 2.32-.87 4.6-1.36 6.89-1.52 7.21-3.07 14.42-4.57 21.64-.64 3.09-1.76 5.82-4.77 7.7-.35-.77-.7-1.17-.68-1.55.36-5.28.61-10.57 1.24-15.82.38-3.2 1.46-6.31 2.04-9.49.46-2.49-.17-4.12-3.21-4.69-6.03-1.13-12.01-2.62-17.94-4.22-2.49-.67-3.93-.06-4.49 2.31-1.72 7.27-3.21 14.6-5.02 21.84-2.24 8.96-4.48 17.93-7.16 26.77-1.68 5.54-.93 8.34 4.24 10.92.3.15.61.28.92.41 13.02 5.61 14.42 7.98 13.49 22-.93 14.11-2.65 28.19-1.8 42.39.12 2.05-.51 4.21-1.18 6.2-.32.96-1.54 1.62-2.35 2.41-.5-1.02-1.42-2.02-1.44-3.05-.12-5.37-.18-10.75.06-16.11.17-3.86-1.54-5.9-4.97-7.36-4.81-2.04-9.45-4.51-14.43-6.93-.26 1.01-.7 1.93-.69 2.85.1 10.37.54 20.75.33 31.11-.17 8.73 2.31 16.99 3.59 25.46.53 3.5 1.77 6.89 2.71 10.32.23.86.84 1.72.76 2.54-.62 6.45 2.01 11.96 4.91 17.39.45.85 1.23 1.51 1.81 2.3.8 1.09 1.54 2.22 2.31 3.33-.26.41-.52.83-.78 1.24-2.3-.75-5.22-.86-6.78-2.37-5.91-5.72-12.01-11.44-16.88-18.01-9.16-12.34-15.48-26.08-17.02-41.67-.21-2.1-.89-4.14-1.31-6.22-.9-4.47-1.75-8.96-2.65-13.43-.15-.75-.44-1.47-.49-1.61-5.63 9.01-11.87 18.02-17.03 27.61-3.63 6.76-7.64 13.2-12.88 18.62-4.98 5.15-10.97 9.33-16.52 13.94-1.2.99-2.3 2.12-3.58 3-4.37 3-8.81 5.91-13.31 8.91-2.47-5.09-2.46-5.62 1.08-8.24 4.49-3.32 9.3-6.25 12.39-11.11.24-.37.64-.65.87-1.02 2.68-4.36 6.11-8.45 7.83-13.16 2.37-6.5 6.46-12.43 6.88-19.68.13-2.22 1.54-4.37 2.36-6.55.23-.62.53-1.23.67-1.87 1.34-6.31 3.17-12.56 3.86-18.94 1.14-10.49 3.4-20.97 1.67-31.62-.17-1.05-.57-2.07-.94-3.38-5.17 3.42-10.1 6.68-15.03 9.95-.84.56-1.59 1.42-2.5 1.66-5.06 1.3-5.51 4.95-5.06 9.26.16 1.53.31 3.32-.32 4.6-.58 1.2-2.21 1.89-3.37 2.81-.63-.9-1.65-1.72-1.83-2.7-.74-4.02-.77-8.22-1.89-12.12-2.98-10.37 3.19-19.87 1.96-29.02zm15.37-86.28c.69 5.08 1.2 9.14 1.82 13.17.39 2.52.67 5.11 1.48 7.51 2.6 7.69 6.62 15.1 7.88 22.98 2.32 14.47 6.6 28.72 6.79 43.41.13 10.15 4.53 15.71 13.23 20.24 9.47 4.93 18.22 4.67 27.03-.21 2.83-1.57 5.98-4.46 6.83-7.38 2.89-9.91 4.92-20.09 7.07-30.2 2.09-9.79 4.04-19.62 5.83-29.47 1.96-10.82 5.21-21.24 9.08-31.49.44-1.17.39-2.53.62-4.2-7.33 2.09-13.79 4.28-20.41 5.69-4.76 1.01-9.77.81-14.63 1.45-10.66 1.41-21.19.52-31.7-1.31-7.59-1.34-14.55-4.11-20.92-10.19zm39.6-28.42c-3.87 1.01-7.47 2.35-11.19 2.86-8.24 1.13-16.15.91-21.45-7.2-1.16-1.78-3.14-3.02-4.97-4.71-4.91 10.83-6.19 20.85 1.93 30.17 5.87 6.74 13.42 10.39 22.24 10.9 7.36.43 14.85-.53 22.13.34 13.52 1.61 25.44-3.69 37.69-7.56 6.21-1.97 9.18-10.64 6.67-16.41-7.86 8.17-17.84 11.58-28.84 10.31-11.44-1.32-18.99-8.91-24.21-18.7zm26.07-28.62c-.14-.29-.28-.58-.42-.87-2.59 1.31-5.59 2.16-7.69 4.03-5.49 4.87-9.52 10.43-9.78 18.5-.29 9.02 6.39 17.51 21.9 18.24 9.51.45 19.83-9.73 20.53-20.74.68-10.81-8.59-18.06-24.54-19.16zm2.25-7.79c-6.88-10.68-38.51-43.34-43.81-45.37-.51 1.31-.64 3.1-1.59 3.86-3.4 2.71-2.23 5.8-.47 8.27 3.15 4.42 6.84 8.46 10.41 12.58 2.83 3.27 5.98 6.27 8.64 9.66 2.82 3.6 5.12 7.61 7.9 11.24.76.99 2.5 1.89 3.7 1.78 4.99-.45 9.94-1.29 15.22-2.02zm-5.9 180.41c-4.78 1.16-9.01 2.1-13.17 3.29-.63.18-1.32 1.51-1.32 2.3.02 7.35-.61 14.82.47 22.02 2.21 14.72 3.75 29.75 11.81 42.9.56.92 1.47 1.63 2.21 2.44.41-1.03 1.2-2.07 1.17-3.08-.1-3.17-.49-6.33-.8-9.5-.29-2.97-.24-6.03-.99-8.88-3.37-12.84-2.11-25.64-.22-38.5.61-4.1.56-8.31.84-12.99zm-39.5-1.81c-.93 6.43-1.88 13.69-3.05 20.91-1.38 8.49-2.92 16.95-4.46 25.41-.17.96-.84 1.82-1.13 2.76-.75 2.45-2.08 4.89-.06 8.41 2.46-3.63 4.68-6.65 6.62-9.84 1.68-2.76 2.71-5.97 4.62-8.54 6.88-9.27 8.77-20.39 11.96-31.04.53-1.76.04-3.17-2.12-3.83-4.29-1.32-8.49-2.9-12.38-4.24zm69.77-91.25c6.32 1.76 12.21 3.31 18.04 5.08 3.93 1.19 5.15.53 5.36-3.44.07-1.23-.01-2.49.27-3.67.56-2.35-.52-3.79-2.53-4.39-3.63-1.08-7.29-2.2-11.02-2.73-6.44-.93-10.27 2.95-10.12 9.15zm-101.84 81.94c7.33-3.41 13.68-6.34 19.98-9.35.54-.26 1.21-1.21 1.1-1.67-.73-3.01-1.51-6.03-2.64-8.9-.28-.72-2.25-1.56-2.89-1.24-5.86 2.89-12.71 4.8-13.82 12.87-.37 2.65-1.08 5.25-1.73 8.29zm110.29-109.67c-.81 4.76-1.42 8.31-2.07 12.15 4.93.92 9.27 2.01 13.68 2.47 3.67.38 4.79-1.28 3.34-4.71-.8-1.88-2.05-4-3.71-4.97-3.26-1.92-6.96-3.12-11.24-4.94zm-13.34 138.26c0-3.19.3-5.35-.1-7.38-.32-1.63-1.12-3.91-2.36-4.48-4.18-1.93-8.66-3.23-13.01-4.77-2.07 5.72-1.55 8.77 3.93 10.86 1.43.55 2.61 1.73 4 2.41 2.25 1.11 4.57 2.04 7.54 3.36zm-11.88-35.15c-.52.24-1.03.48-1.55.73 0 3.15-.31 6.34.1 9.43.31 2.32 10.62 6.68 12.81 5.72.45-.2 1.15-.82 1.08-1.08-.87-3.25-1.02-7.2-3.03-9.5-2.23-2.55-6.2-3.59-9.41-5.3zm-94.33-71.51c3.94-2.23 7.51-4.24 11.07-6.27 3.07-1.75 3.41-7.77.49-9.86-.65-.46-1.95-.91-2.4-.59-3.37 2.38-7.06 4.58-9.68 7.66-1.15 1.36-.05 4.65.06 7.06.02.44.19.86.46 2zm-1.98-20.74c.33.25.67.5 1 .75 3.06-1.63 6.19-3.14 9.15-4.92 2.3-1.38 1.84-7.41-.59-8.68-.61-.32-1.82-.52-2.15-.19-2.55 2.57-5.21 5.12-7.28 8.06-.79 1.13-.13 3.29-.13 4.98z"/><path d="m166.44 168.18c2.69-1.03 4.29.49 5.33 2.59 1.22 2.48 3.22 3.01 5.7 3.33 4.63.6 9.2 1.87 13.85 2.21 3.69.27 7.47-.24 11.16-.78 2.27-.33 4.49-1.23 6.62-2.14 1.87-.8 3.53-2.08 5.38-2.94 1.31-.61 2.79-1.26 4.15-1.16.61.04 1.63 1.92 1.54 2.86-.26 2.61-.84 5.22-1.62 7.72-.66 2.11-2.01 4-2.66 6.11-1.61 5.19-4.14 9.58-8.99 12.44-1.98 1.17-2.72 3.06-2.32 5.47 1.55 9.37-.04 18.34-3.98 26.88-1.73 3.76-3.79 7.37-5.81 10.99-.89 1.6-5.6 1.14-7.08-.44-3.82-4.09-4.86-9.13-5.23-14.45-.5-7.23-.94-14.48-1.66-21.69-.15-1.46-1.17-3.13-2.29-4.13-10.28-9.1-12.17-21.03-12.09-32.87zm11.79 15.25c-.34.39-.68.78-1.02 1.17 2.07 3.07 3.61 6.77 6.33 9.09 6.99 5.97 21.37 1.85 24.9-6.81.49-1.21.31-2.7.45-4.06-1.34.06-2.77-.16-4.01.23-5.15 1.63-10.28 2.96-15.77 1.94-3.6-.67-7.25-1.05-10.88-1.56zm13.01 47.69c1.58-1.84 3.88-3.39 4.44-5.41 1.22-4.37 1.38-9.03 2.31-13.5.57-2.73-.39-4.32-2.68-5.38-1.47-.68-3.01-1.18-4.42-1.73-3.62 5.45-3.54 21.29.35 26.02z"/><path d="m219.49 117.13c-4.98-.1-8.86-3.06-9.11-6.34-.36-4.76 3.23-10.98 6.94-10.43 3.67.55 7.35 2.82 10.34 5.19 1.14.91 1.14 4.53.35 6.34-1.66 3.8-5.39 4.99-8.52 5.24z"/></g></svg>