<svg enable-background="new 0 0 400 400" viewBox="0 0 400 400" xmlns="http://www.w3.org/2000/svg"><path d="m298.51 374.64c-4.2 1.05-8.09.31-11.41-1.85-13.12-8.51-26.57-16.64-38.97-26.12-7.18-5.49-12.62-13.26-18.81-20.03-7.71-8.42-15.39-16.87-23.08-25.31-.65-.72-1.31-1.43-2.28-2.48-3.04 6.97-5.54 13.68-8.8 19.99-10.08 19.49-23.47 36.21-42.4 47.84-5.82 3.58-12.33 5.61-19.48 5.77-.02-3.41.63-6.16 2.88-8.75 12.46-14.36 25.1-28.59 35.22-44.81 6.19-9.92 9.47-20.66 10.34-32.22.11-1.42.01-2.86.01-4.59-9.92 2-19.54 3.94-29.16 5.87-3.07.62-6.19 1.03-9.19 1.89-1.38.4-2.83 1.44-3.62 2.61-.28.41 1.12 2.35 2.11 3.14 4.65 3.68 9.51 7.09 14.12 10.81 4.41 3.56 5.24 8.08 2.69 12.86-.41.77-.96 1.55-1.64 2.06-12.11 9.21-24.1 18.59-36.45 27.47-6.94 4.99-14.8 8.31-23.68 9.1-1.63-3.34-1.37-6.82.08-9.97 2.93-6.35 5.97-12.56 11.16-17.69 7.71-7.63 13.34-16.78 16.67-27.2 1.61-5.04 1.6-6.02-3.3-7.96-5.96-2.35-12.25-4.05-18.54-5.35-7.72-1.6-12.77-3.74-17.49-9.02 7.44-1.77 14.5-3.69 21.66-5.1 13.26-2.61 26.69-4.46 39.84-7.51 9.64-2.24 19.05-5.64 28.38-9 5.25-1.89 6.68-5.53 5.46-11.05-1.09-4.9-2.99-9.17-7.36-12.3-4.52-3.24-8.58-7.12-13.08-10.92 5.15-2.57 10.26-2.5 15.25-1.29 4.86 1.19 9.58 2.99 14.33 4.6 5.06 1.71 8.95 4.69 11.21 9.78 1.4 3.15 3.66 5.9 5.14 9.03 1.37 2.9 3.6 3.86 6.42 3.69 2.76-.17 5.75-.16 8.21-1.21 12.07-5.14 24.93-5.95 37.68-7.47 11.99-1.43 23.99-2.84 35.98-4.27.87-.1 1.73-.34 2.84-.56.33-6.38-.69-12.5-2.51-18.49-3.04-10-7.09-19.44-13.87-27.65-5.26-6.37-10.04-13.17-14.72-19.99-4.28-6.25-9.71-11.09-16.27-14.71-13.65-7.55-27.72-14.04-43.24-16.74-4.7-.82-9.32-.79-13.64 1.78-5.84 3.47-11.95 6.52-17.58 10.3-10.12 6.79-19.97 13.99-29.93 21.03-.98.69-1.92 1.44-3.44 2.58 14.65 6.34 29.02 9.86 43.15 1.47 6.5-3.86 11.91-9.79 17.11-15.44 1.93-2.09 2.13-6.01 2.58-9.17.84-5.83 3.04-6.84 7.96-3.45 4.6 3.17 9.31 6.18 13.97 9.27 5.85 3.87 7.43 9.4 4.34 15.71-.44.89-1.43 1.65-2.34 2.15-2.44 1.35-5.19 2.25-7.42 3.86-2.71 1.96-5.01 4.46-7.49 6.73.1.52.2 1.04.3 1.56 8.82 3.69 17.66 7.35 26.47 11.09 6.98 2.96 14.05 5.75 20.82 9.13 4.52 2.26 8.07 5.94 10.65 10.47-2.5 2.99-5.36 4.03-8.95 2.34-7.42-3.49-15.56-2.65-23.35-3.89-2.96-.47-5.91-1.08-8.78-1.92-11.14-3.22-22.16-6.94-33.42-9.68-4.76-1.16-10-.45-15.01-.4-1.13.01-2.3.76-3.36 1.34-23.51 12.7-47 25.43-70.5 38.14-1.15.62-2.33 1.18-3.58 1.81-1.08-5-.39-8.56 4.09-11.7 10.34-7.26 20.12-15.31 30.31-22.8 3.66-2.69 7.71-4.9 11.77-6.95 3.08-1.56 5.41-3.49 6.53-7.9-6.57-3.63-13.1-8.02-20.22-10.96-6.27-2.59-12.2-1.01-17.14 4.58-20.53 23.25-31.75 50.73-37.73 80.74-1.28 6.45-2.75 12.88-4.56 19.19-1.21 4.22-3.92 7.43-8.46 8.79-1.97.59-2.88 0-3.59-1.73-1.68-4.09-1.85-8.31-.79-12.51 4.96-19.7 7.24-40.15 15.23-58.98 6.18-14.58 13.49-28.68 20.38-42.95.6-1.25 1.77-2.31 2.87-3.22 15.84-12.97 31.99-25.57 47.48-38.94 12.01-10.36 23.29-21.57 34.72-32.58 5.95-5.73 5.94-12.72 2.82-19.83-1.19-2.7-2.74-5.39-4.69-7.56-2.19-2.44-5.04-2.58-7.79-.34-8.05 6.57-15.84 13.5-24.27 19.54-13.18 9.44-26.65 18.49-40.32 27.19-3.73 2.37-8.6 2.98-12.98 4.3-7.16 2.15-14.35 4.23-22 6.47-.33-2.41-.86-4.57-.81-6.72.02-.9 1.08-2.05 1.97-2.61 16.76-10.66 32.28-22.96 47.02-36.21 9.55-8.58 17.87-18.21 21.87-30.83 2.08-6.57 2.22-7.38-3.97-10.51-7.95-4.02-16.28-7.29-24.5-10.75-7.2-3.03-13.48-7.24-19.11-14.02 3.53-.55 6.43-1.35 9.34-1.4 10.9-.17 21.24 2.45 31.25 6.64 17.61 7.38 34.2 16.46 49.44 28.07 13.94 10.62 21.8 24.67 24.41 41.73 1.21 7.94 1.73 15.99 2.39 24 .16 1.96.89 2.9 2.7 3.58 8.57 3.23 17.17 6.42 25.61 9.97 3.96 1.67 7.79 3.83 11.3 6.3 5.85 4.12 11.22 8.93 17.13 12.96 7.86 5.37 13.72 12.43 18.64 20.4 6.94 11.24 13.4 22.71 17.3 35.45 1.81 5.91-.76 11.46-1.2 17.18-.05.6-1.2 1.21-1.94 1.63-1.84 1.04-3.75 1.97-5.79 3.03 1.52 1.38 3.06 2.49 4.22 3.91 2.81 3.44 1.84 6.61-2.27 7.99-16.83 5.67-33.66 11.34-51.01 17.19.9 1.08 1.6 1.99 2.38 2.82 5.89 6.29 11.78 12.58 17.71 18.83 1.07 1.13 2.29 2.14 3.54 3.06 14.34 10.52 28.73 20.98 43.05 31.54 2.69 1.98 5.19 4.26 7.6 6.57 3.79 3.64 5.05 8.03 3.4 13.16-4.84.85-8.76-.08-12.99-3.18-7.52-5.52-15.55-10.56-23.93-14.63-11.99-5.82-23.47-12.21-32.33-22.32-5.08-5.79-9.48-12.17-14.15-18.32-3.66-4.81-7.18-9.73-10.95-14.44-.7-.88-2.42-1.6-3.5-1.41-5.71 1.01-11.36 2.33-17.48 3.64 1.24 4.82 1.55 9.48 4.29 13.91 11.53 18.61 25.69 34.8 42.26 49.1 10.83 9.34 20.68 19.8 32.6 27.9 5.12 3.47 6.43 7.1 5.96 13.23z" fill="#010104"/><g fill="#fcfbfa"><path d="m385.2 377.6.6-.7c.6.4 1.3.9 1.9 1.5l-.6.7c-.8-.5-1.4-1-1.9-1.5zm.3 7.1c.6-1.4 1.1-2.9 1.5-4.5.3.1.6.3.9.4-.5 1.4-1 2.9-1.5 4.4zm.2-10.1.6-.6c.7.5 1.3 1.1 1.9 1.6l-.7.7c-.6-.6-1.2-1.2-1.8-1.7zm8.4-.8h.8v.9h1.8v.7h-1.8v1.8h-.8v-.3h-1.2v.9h3.3v2.6h-.8v-.4h-2.5c0 .3 0 .6-.1.8h3.4v.7h-3.5c0 .3-.1.6-.1.8h4v.7h-3.5c.7.9 1.9 1.3 3.6 1.5-.2.2-.4.5-.6.9-1.9-.3-3.2-1.1-3.8-2.3-.5 1.1-1.8 2-3.9 2.4-.2-.3-.4-.5-.6-.8 1.9-.4 3.1-.9 3.6-1.7h-3.2v-.7h3.5c.1-.2.1-.5.2-.8h-3.3v-.7h3.4c0-.2 0-.5 0-.8h-2.4v.3h-.8v-2.6h3.3v-.9h-1.2v.3h-.8v-1.8h-1.8v-.7h1.8v-.9h.8v.9h3.2zm-4.4 5.5h2.4c0-.3 0-.6 0-.9h-2.4zm1.2-3.1h3.2v-.8h-3.2zm4.4 2.2h-2.4v.9h2.5v-.9z"/><path d="m389.2 385.8h.9v1.5h1.9v-1.5h.9v1.5h2.7v6h1.1v.9h-11.3v-.9h1.1v-6h2.7zm.2 8.7.5.8c-1.2.6-2.5 1.3-4 1.9-.2-.3-.3-.6-.6-.8 1.6-.6 3-1.3 4.1-1.9zm-2-4.3h1.9v-2.1h-1.9zm0 3.1h1.9v-2.2h-1.9zm2.7-3.1h1.9v-2.1h-1.9zm0 3.1h1.9v-2.2h-1.9zm2.4 1.3c1.4.6 2.7 1.2 4.1 1.8l-.5.9c-1.5-.7-2.8-1.4-4.1-1.9zm2.2-6.5h-1.9v2.1h1.9zm-1.9 5.2h1.9v-2.2h-1.9z"/></g></svg>