<svg enable-background="new 0 0 400 400" viewBox="0 0 400 400" xmlns="http://www.w3.org/2000/svg"><path d="m374.8 390.4.4-.4c.7.5 1.3 1 1.8 1.4l-.5.5c-.5-.6-1.1-1.1-1.7-1.5zm1 7.3-.6-.3c.5-1.4 1.1-2.8 1.5-4.3.2.1.4.2.6.3-.5 1.3-1 2.8-1.5 4.3zm-.4-10.3.4-.4c.4.3 1 .8 1.7 1.4l-.5.5c-.4-.5-1-1-1.6-1.5zm2.5.3h1.7v-1h.6v1h3.5v-1h.6v1h1.8v.5h-1.8v1.4h-2v1h3.2v2h-3.2v.9h3.3v.5h-3.4c0 .3-.1.6-.1.9h4v.5h-3.7c.7.9 1.9 1.5 3.8 1.7-.1.2-.2.4-.3.6-2.1-.4-3.5-1.1-4-2.1-.4 1-1.8 1.7-4 2.2-.1-.2-.2-.4-.3-.6 2.1-.4 3.4-1 3.8-1.8h-3.4v-.5h3.6c.1-.3.1-.6.2-.9h-3.3v-.5h3.4c0-.3 0-.6 0-.9h-3.2v-2h3.3v-1h-2.1v-1.4h-1.7v-.5zm1.1 3.5v1h2.7c0-.3 0-.4 0-.4 0-.1 0-.2 0-.2 0-.1 0-.2 0-.3h-2.7zm1.2-3v.9h3.5v-.9zm4.7 3h-2.6v.6.4h2.6z" fill="#fbfcfa"/><path d="m393.6 386.7h.6v1.5h2.7v6.1h1.1v.6h-11v-.6h1.1v-6.1h2.7v-1.5h.6v1.5h2.1v-1.5zm-2.7 8.8.4.6c-1.2.6-2.5 1.3-3.8 1.9-.1-.2-.2-.4-.3-.6 1.2-.6 2.5-1.2 3.7-1.9zm-2.2-6.7v2.4h2.1v-2.4zm0 3v2.5h2.1v-2.5zm2.8-3v2.4h2.1v-2.4zm0 3v2.5h2.1v-2.5zm6 6.1c-1.4-.7-2.7-1.3-3.9-1.8l.3-.6c1.5.6 2.7 1.2 3.9 1.7zm-1.2-9.1h-2.1v2.4h2.1zm-2.1 3v2.5h2.1v-2.5z" fill="#fbfcfa"/><g fill="#010106"><path d="m91.2 177.55c-.53-9.68-.82-18.98 3.67-27.78 1.97-3.86 3.49-8.03 4.61-12.22 2.05-7.68 7.71-13.24 11.15-20.08.37-.74 1.26-1.24 1.95-1.79 8.58-6.87 17.6-13.08 27.48-17.94 2.72-1.34 4.28-3.1 5.01-6.12 1.13-4.66 2.49-9.31 4.23-13.77 2.32-5.95 2.6-11.91 1.43-18.08-.37-1.97-.71-4-.67-5.99.02-1.29.74-2.57 1.15-3.85 1.45.6 3.46.79 4.27 1.87 3.83 5.08 4.83 10.95 3.84 17.19-.96 6.07-1.96 12.14-2.89 18.22-.53 3.46.1 6.49 2.67 9.22 9.79 10.41 21.44 16.74 35.99 15.17 11.2-1.21 18.71-8.49 24.09-17.92 1.88-3.29 1.41-7.02-.62-10.26-9.91-15.82-19.95-31.57-29.79-47.43-1.24-2-1.95-4.5-2.27-6.85-.39-2.8 1.36-4.2 4.12-3.45 1.67.45 3.52 1.23 4.65 2.45 5.93 6.39 12.62 12.36 17.24 19.62 7.1 11.18 13.32 23.03 18.76 35.11 3.73 8.28 9.45 13.3 17.56 16.25 10.71 3.89 21.44 7.73 32.19 11.48 2.07.72 3.04 1.71 3.07 4.02.05 4.08 1.67 7.66 3.47 11.35 2.83 5.8 4.82 12.01 7.02 18.1.4 1.1.28 2.45.15 3.66-.83 7.98-.04 15.86 1.63 23.65 1.19 5.56 1.32 11.01-.07 16.59-.47 1.9-.3 4.4.58 6.11 3.59 6.98 4.28 14.1 2.8 21.75-.5 2.6-.04 5.61.75 8.19 4.85 15.89 3.32 31.61-.67 47.36-.58 2.3-2.12 2.51-3.71 2.33-1-.11-1.92-1.17-2.81-1.9-.31-.26-.45-.77-.57-1.2-2.29-8.32-8.02-13.63-15.25-17.73-6.19-3.51-12.29-7.17-18.66-10.89-4.05 6.58-6.16 12.99-7.78 19.6-2.82 11.49-5.85 22.94-8.42 34.49-1.97 8.88-.98 17.85.71 26.68 2.46 12.86 7.12 24.83 14.11 36 3.09 4.94 4.92 10.67 7.33 16.05-.2.3-.4.61-.6.91-1.33-.42-2.88-.54-3.96-1.32-2.88-2.09-5.73-4.28-8.28-6.75-3.69-3.58-6.92-7.66-10.71-11.12-3.34-3.05-6.84-6.28-10.86-8.14-9.93-4.59-18.61-10.62-25.85-18.8-2.46-2.78-5.48-4.39-9.25-2.83-1.29.53-2.53 1.46-3.47 2.49-6.83 7.56-13.85 14.98-20.24 22.89-3.18 3.94-5.25 8.8-7.69 13.31-2.72 5.02-7.12 6.7-12.7 6.83-.82-3.48-1.74-6.81-2.3-10.2-.15-.89.56-2.41 1.33-2.87 4.03-2.37 5.39-6.01 6.29-10.4 1.73-8.41 4.35-16.64 6.02-25.06.77-3.87.22-8.01.16-12.03-.02-1.44-.57-2.89-.51-4.33.57-14-6.42-26.09-9.93-39.06-.24-.9-1.94-2.04-2.91-1.99-2.63.14-5.45.39-7.81 1.45-5.5 2.47-10.8 5.39-16.1 8.27-.97.53-1.75 1.67-2.25 2.71-1.1 2.32-1.9 4.78-2.95 7.12-1.32 2.95-5.99 5.31-8.68 4.08-1.04-.48-1.98-2.21-2.13-3.46-1.11-9.64-2.5-19.29-2.84-28.97-.31-8.91 3.91-16.31 10.44-22.29 3.47-3.17 7.21-6.06 10.53-9.37 1.26-1.25 2.34-3.35 2.36-5.07.17-21.6.09-43.2.21-64.8.02-3.25-1.13-4.58-4.3-4.01-1.64.29-3.4.44-4.83 1.2-5.03 2.65-9.92 5.57-14.89 8.32-4.3 2.39-6.53 6.11-7.77 10.78-1.07 4.29-2.57 5.19-7.03 5.25zm160.42-3.2c.08 0 .16-.01.24-.01-.18-3.01-.1-6.06-.61-9.01-.88-5.11-3.09-6.41-7.6-4.05-8.4 4.41-16.81 5.53-26.11 2.97-3.72-1.03-8.09.03-12.11.54-1.97.25-3.07 1.78-3.03 4.12.05 2.78-.3 5.58-.56 8.36-.29 3.1.08 6.58-1.23 9.19-1.66 3.31-1.45 5.98-.19 9.12 1.2 3 2.45 6.07 2.98 9.23 1.09 6.49 5.23 10.01 10.89 12.25 2.38.94 4.85 1.71 7.34 2.32 7.87 1.91 15.82 3.22 23.84 1.06 1.47-.4 3.35-1.78 3.76-3.11 1.54-4.96 3.43-10.06 3.56-15.15.22-9.28-.72-18.56-1.17-27.83zm-110.52-14.21c-.42 1.76-.81 2.92-.97 4.11-2.03 15.08 1.22 29.52 5.11 43.94 1.72 6.41 5.74 9.77 11.91 11.12.76.17 1.51.41 2.28.54 10.8 1.85 20.5-1.44 29.87-6.38 2.01-1.06 2.82-2.35 2.77-4.71-.32-13.52-.44-27.05-.68-40.57-.08-4.49-1.65-5.52-6.15-4.82-3.49.54-7.08 1.06-10.59.84-11.12-.66-22.4.2-33.55-4.07zm10.72 69.9c.61 2.09.9 3.27 1.29 4.41 4.37 12.89 8.85 25.75 13.05 38.7.84 2.58 2.16 3.57 4.62 3.85 8.04.92 15.51-.79 22.65-4.46 2.03-1.04 3-2.54 3.07-4.74.14-4.24.64-8.51.35-12.73-.54-8-1.45-15.98-2.36-23.95-.24-2.12-1.32-3.6-4.01-3.42-12.75.85-25.51 1.56-38.66 2.34zm54.36-1.28c-.36 4.2-1.22 8.41-.93 12.54.38 5.42.35 10.47-3.26 14.94-.48.59-.66 1.7-.5 2.47.77 3.6 1.38 7.3 2.7 10.71.77 1.99 2.44 4.33 4.29 5.09 6.4 2.63 13.04 4.66 19.62 6.83.83.27 2.34.34 2.69-.14 1.92-2.56 4.34-5.09 5.19-8.04 3.53-12.24 6.56-24.62 9.77-36.94 1.14-4.38.11-5.41-4.53-5.26-11.47.37-22.95.8-35.04-2.2zm-57.88-122.7c-3.97 11.8-6.98 23.32-6.72 35.46.09 4.42 6.08 11.96 10.56 12.38 7.97.74 16 1 24.01.94 2.89-.02 5.83-1.38 8.62-2.47 2.64-1.03 4.32-2.83 3.94-6.14-.36-3.21.13-6.52-.31-9.71-.49-3.61-1.39-7.2-2.48-10.68-.83-2.66-2.91-3.9-5.87-4.13-2.13-.17-4.36-.9-6.27-1.9-8.4-4.4-16.71-8.99-25.48-13.75zm51.09 31.88c0 3.69.09 7.39-.04 11.07-.06 1.93.52 2.78 2.55 3.02 6.21.73 12.38 1.85 18.6 2.45 8.3.81 16.51.2 24.57-2.19 1.8-.53 2.77-1.38 2.55-3.25-.55-4.73-.28-9.78-1.91-14.11-3.38-8.95-7.71-17.54-11.8-26.22-1.33-2.82-3.82-3.07-6.25-.97-8 6.91-15.39 14.78-26.52 16.82-.72.13-1.61 1.7-1.67 2.65-.19 3.56-.08 7.15-.08 10.73zm29.97 194.54c.24-.33.47-.65.71-.98-.11-.65-.19-1.3-.34-1.94-1.54-6.65-2.58-13.27-1.63-20.2.79-5.8.69-11.72.99-17.77-7.7-1.2-14.83-2.32-22.27-3.48-.55 6.02-.64 11.75-1.68 17.31-1.32 7.11 2.02 11.83 6.95 15.9 3.79 3.12 7.78 6.01 11.83 8.79 1.6 1.09 3.61 1.59 5.44 2.37zm32.99-118.21c.32 4.31.43 8.12.96 11.87.19 1.34 1.1 2.93 2.18 3.72 5.22 3.82 10.55 7.5 15.98 11.02 1.29.83 3.08 1.21 4.64 1.21 1.94.01 2.72-1.13 2.55-3.35-.62-8.09-1.16-16.19-1.36-24.3-.11-4.44-1.82-7.82-5.82-9.24-4.25-1.5-8.81-2.12-13.25-3.03-.51-.1-1.46.28-1.67.7-1.89 3.8-5.53 7-4.21 11.4zm4.12-59.04c-.48.07-2.04-.02-3.27.58-.93.45-2.08 1.83-2.01 2.72.58 7.8 1.43 15.57 2.17 23.36.32 3.42 2.1 5.35 5.45 6.22 3.01.78 5.87 2.17 8.89 2.96 1.79.47 3.75.5 5.62.4 1.89-.11 2.92-1.07 2.69-3.32-.64-6.57-.93-13.17-1.66-19.72-.32-2.85-1.26-5.65-2.09-8.43-.74-2.47-2.34-3.84-5.13-3.9-3.24-.07-6.46-.51-10.66-.87zm-97.87 134.97c4.22 13.3 9.77 25.91 6.82 40.06 3.88-3.54 6.91-7.3 10.41-10.55 6.53-6.07 9.28-13.79 10.57-22.26.56-3.64.19-7.19-2.13-10.22-.52-.67-1.64-1.45-2.34-1.33-7.59 1.3-15.15 2.77-23.33 4.3zm-50.26-21.42c7.22-3.38 14.09-6.6 20.96-9.82 6.81-3.19 7.69-4.94 5.93-12.37-.54-2.27-1.17-4.6-2.26-6.64-1.02-1.91-2.54-3.65-4.15-5.12-1.51-1.38-3.23-1.46-5.05.14-3.35 2.96-6.87 5.74-10.45 8.43-2.19 1.65-3.39 3.64-3.77 6.37-.84 6.17-3.12 12.21-1.21 19.01zm160.75-123.79c-.44-5.11-.7-9.54-1.22-13.94-.72-6.07-3.93-10.38-9.73-12.51-4.92-1.81-9.9-3.46-14.87-5.14-.64-.22-1.38-.16-2.27-.25 2.3 8.89 4.47 17.43 6.78 25.94.23.86 1.19 1.97 1.99 2.15 6.1 1.31 12.25 2.41 19.32 3.75zm-143.48-30.96c-.31-.28-.62-.56-.93-.84-4.27 3.12-8.89 5.86-12.72 9.45-4.62 4.34-8.63 9.35-12.74 14.2-.67.79-.81 2.33-.63 3.43.24 1.49 1.01 2.9 1.67 4.65 6.76-2.6 13.29-5.1 19.81-7.66.53-.21 1.18-.81 1.28-1.33 1.47-7.29 2.85-14.59 4.26-21.9z"/><path d="m197.26 75.18c-.18 6.83-2.27 9.13-8.21 9.02-3.33-.06-6.72-3.78-6.69-7.34.03-4.01 5.4-9.06 9.31-8.76 3.21.25 5.69 3.38 5.59 7.08z"/></g></svg>