<svg enable-background="new 0 0 400 400" viewBox="0 0 400 400" xmlns="http://www.w3.org/2000/svg"><path d="m6.8 9.5c.6.3 1.3.7 2.1 1.1-.4.4-.7.8-.9 1.2-.7-.4-1.3-.8-1.8-1.1s-1.1-.6-1.6-.8c.2-.4.5-.8.7-1.2.4.2.8.5 1.5.8zm.9 6.9c-.3.6-.5 1.1-.7 1.7s-.4 1.1-.6 1.7c-.6-.4-1.1-.7-1.6-1 .7-1 1.2-1.8 1.5-2.4.3-.5.6-1.1.8-1.7.3-.6.5-1.2.8-1.8.3.3.8.6 1.3.8-.7 1.3-1.2 2.2-1.5 2.7zm.1-11c.4.3 1 .7 1.7 1.1-.5.2-.8.6-1.1 1.1-.5-.6-1-1-1.4-1.2s-.9-.6-1.5-.8c.2-.4.5-.7.9-1.1.5.3.9.6 1.4.9zm10.5 13.1c1 .4 2 .6 3.1.7-.4.4-.7.8-.8 1.3-.9-.2-1.9-.6-3-.9-1-.4-2-.9-2.8-1.6-.5.4-1.1.9-1.9 1.3s-1.9.9-3.3 1.2c-.1-.3-.5-.8-1.1-1.3 1 0 2.1-.3 3.2-.8 1.2-.5 1.9-1 2.3-1.7h-3.2c-.4 0-1 0-2 .1v-1.2c1 0 1.7.1 2 .1h3.3v-1h-2.3c-.2 0-.9 0-2 .1v-1.2c1.2 0 1.9.1 2 .1h2.3v-.8h-4.1c0-.7.1-1.2.1-1.6 0-.5 0-1.1-.1-1.8h4.1v-.7h-2.5c0-.6.1-1.1.1-1.6v-.6h-.5c-.4 0-1 0-1.8.1v-1.3c1.2 0 1.9.1 2.1.1h.2c0-.3 0-.8-.1-1.4h1.4c0 .6-.1 1-.1 1.4h3.4c0-.4 0-.8-.1-1.3h1.5c0 .4-.1.9-.1 1.3.7 0 1.5 0 2.5-.1v1.2c-1 0-1.8-.1-2.5-.1v.6c0 .3 0 .8.1 1.5h-2.5v.8h4.1c0 .7-.1 1.3-.1 1.8s0 1 .1 1.5h-4.1v.8h1.4c.8 0 1.8 0 2.9-.1v1.2c-1 0-1.9-.1-2.8-.1h-1.5v1h3.2c.3 0 1 0 2.1-.1v1.2c-1.1 0-1.8-.1-2.1-.1h-3.4l-.1.1c1.4 1 2.4 1.5 3.4 1.9zm-4.1-6.7v-1.3h-2.7v1.3zm2.2-4.1v-1.1h-3.4v1.1zm1.9 4.1v-1.3h-2.8v1.3z" fill="#fafbfa"/><path d="m37 6.7v2.3 5.4c1 0 1.8 0 2.2-.1v1.3c-.6 0-1.5-.1-2.5-.1h-11.9c-.7 0-1.3 0-1.8.1v-1.3c.5 0 1.1.1 2 .1v-5.2c0-1 0-1.8-.1-2.5h3.7c0-1.3 0-2.1-.1-2.5h1.5c0 .4-.1 1.3-.1 2.5h2.2c0-1.2 0-2.1-.1-2.6h1.5c0 .4-.1 1.3-.1 2.6zm-12.3 13.7c-.3-.4-.7-.8-1.1-1.1 1.1-.4 2.1-.9 2.9-1.3.8-.5 1.5-1 2.1-1.6.4.4.9.8 1.3 1.1-2.5 1.4-4.2 2.4-5.2 2.9zm3.9-10.1v-2.4h-2.2v2.4zm0 4.1v-2.9h-2.2v2.9zm3.5-4.1v-2.4h-2.2v2.4zm0 4.1v-2.9h-2.2v2.9zm.4 2.9 1-1.1c.6.3 1.4.7 2.5 1.3s2 1.1 2.7 1.5c-.4.4-.8.8-1.1 1.3-.8-.8-2.5-1.7-5.1-3zm3.1-7v-2.4h-2.1v2.4zm0 4.1v-2.9h-2.1v2.9z" fill="#fafbfa"/><g fill="#010103"><path d="m208.07 161c1.2 0 2.4-.01 3.6 0 4.33.04 6.41 2.32 5.38 6.68-1.02 4.33-2.6 8.54-4.12 12.74-1.13 3.13-2.24 6.03.94 8.74.67.57.78 2.06.78 3.12.06 10.06.14 20.12.01 30.18-.12 9.49-.48 18.98-.71 28.47-.02.88-.15 1.91.23 2.63 4.49 8.42 4.1 17.81 5.1 26.83 1.84 16.56 4.76 32.77 12.19 47.84 4.64 9.41 10.77 17.35 20.83 21.8 8.45 3.74 16.19 9.15 25.63 10.46 2.21.31 4.42.7 6.65.88 6.51.54 11.64 3.58 16.07 8.75-6.33 3.94-13.16 5.7-20.37 5.4-12.58-.52-24.31-4.71-35.86-9.28-3.55-1.4-6.92-3.59-9.9-6.01-7.39-5.98-14.53-12.27-21.72-18.5-4.54-3.93-5.68-9.78-7.98-14.93-.35-.79.82-2.27 1.53-4.02-2.92-3.29-1.32-7.83-1.61-12.19-.51-7.8-1.54-15.57-2.47-23.34-2.07-17.21-4.72-34.38-6.17-51.64-1.24-14.7-1.25-29.52-1.57-44.29-.12-5.33.44-10.68.68-16.03.05-1.11.16-2.24.04-3.34-.32-2.95-1.52-4.68-4.97-5.06-19.49-2.13-39.01-3.3-58.62-2.91-8.26.17-16.55-.35-24.79.12-10.56.6-17.07-4.96-22.43-13.36 10.85-2.08 21.74-3.52 32.25-6.36 10.09-2.73 19.43-.5 28.99 1.76 2.17.51 4.41 1.08 6.61 1.03 9.42-.24 18.67.7 28.01 2.12 8.09 1.24 12.32-2.43 13.41-10.47 1.15-8.49.72-16.96-1.07-25.35-.25-1.16-.23-2.41-.12-3.6.39-4.3 1.14-8.58 1.23-12.88.1-4.69-.21-9.4-.63-14.08-.52-5.76-.23-11.32 2.04-16.76.42-1.01-.05-2.95-.83-3.8-4.63-5.02-4.19-10.49-1.93-16.26 1.38-3.54 2.69-7.1 4.03-10.65-3.08-1.41-4.33-4.46-3.1-7.36.7-1.65 5.36-3.33 7.31-2.5 2.06.86 4.13 1.76 6.03 2.9 6.19 3.71 7.24 6.53 6.08 13.62-.77 4.73-1.26 9.54-1.38 14.33-.06 2.44 1 4.91 1.5 7.37.31 1.51.75 3.03.76 4.55.13 12.98.04 25.97.29 38.94.24 12.63.81 25.26 1.21 37.89.11 3.44 2.79 4.39 5.23 4.58 4.09.33 8.24-.21 12.36-.19 14.88.08 29.76.05 44.63.44 8.81.23 17.6 1.15 26.39 1.83 1.09.08 2.45.25 3.17.92 1.43 1.36 3.08 2.93 3.57 4.71.62 2.24-1.41 3.53-3.36 4.35-5.53 2.32-11.39 2.86-17.15 1.81-8.37-1.51-16.7-.95-25.06-.61-13.97.56-27.94 1.04-41.91 1.74-2.42.12-3-1.3-3.92-2.82-2.87-4.76-4.58-5.51-9.26-3.87-.88.31-1.53 1.26-2.28 1.91.2.36.37.69.53 1.02zm-.78 26.04c-4.29-1.38-6.6 2.1-9.96 3.27.63 1.41 1.14 2.56 1.97 4.42 2.38-3.29 8.48-1.51 7.99-7.69zm-6.68-120.76c1.15 1.83 1.81 4.61 4.67 3.53 1.2-.45 2.07-2.36 2.59-3.78.2-.55-.82-1.98-1.6-2.38-2.82-1.43-4.17.76-5.66 2.63zm5.96 18.32c-.87-6-1.39-6.65-4.53-6-.26 1.93-.53 3.87-.82 6zm-6.12 66.95c-2.87-1.27-4.77-2.1-6.86-3.02v4.72c2.14-.54 4.04-1.01 6.86-1.7zm6.3 96.97c-2.06 1.27-4.66 2.06-2.84 5.7 1.57-1.74 5.51-1.79 2.84-5.7z"/><path d="m290.14 211.53c1.17 11.97 2.44 23.94 3.47 35.92 1.07 12.56 3.12 25.14.36 37.74-.48 2.17-1.02 4.37-1.89 6.4-.42.98-1.7 2.29-2.52 2.24-1.27-.07-3.25-.9-3.59-1.88-1.56-4.38-3.11-8.86-3.81-13.43-2.19-14.36-4.05-28.77-5.89-43.18-.59-4.65-.9-9.36-1.03-14.05-.16-5.64-.65-11.16-3.26-16.28-.1-.2-.17-.42-.21-.64-.46-3.04-2.54-6.51.66-8.93 4.51-3.4 9.25-2.9 12.9.84 4.09 4.25 4.71 9.72 4.81 15.25z"/><path d="m113.98 274.25c4.62-4.11 2.92-9.1 2.52-13.97-.25-2.97.01-5.98-.02-8.97-.03-3.88.29-7.82-.27-11.62-.9-6.06-1.24-11.98.77-17.86 1.21-3.54 1.37-6.99-.89-10.21-1.26-1.79-.46-2.92.94-4.22 5.14-4.79 9.71-3.93 12.26 2.76 2.45 6.43 4.18 13 .59 19.72-1.5 2.81-1.56 5.63-.82 8.95 3.1 13.77 5.38 27.68 3.71 41.89-.54 4.6-5.42 8.8-10.02 8.48-.94-.06-1.84-1.17-2.69-1.89-.31-.26-.38-.79-.57-1.2-1.78-3.83-3.57-7.68-5.51-11.86z"/><path d="m112.58 80.19c0-7.71-.06-15.43.03-23.14.04-3.2-.81-5.91-3.13-8.17-.7-.68-1.31-1.54-1.73-2.43-1.9-4.03-.96-6.09 3.25-7.34 9.33-2.76 12.75-1.04 16.48 8.14 1.83 4.5 2.8 8.8.05 13.42-.68 1.14.13 3.28.49 4.9.61 2.76 3.47 5.05.44 8.47-1.12 1.26.1 4.7.46 7.12.54 3.66.84 7.04-.99 10.7-.96 1.92.37 4.93.48 7.46.14 3.29.29 6.59.05 9.86-.15 2.09-1.73 2.73-3.9 3.23-5.37 1.25-8.34-1.84-11.21-5.31-.61-.74-.72-2.05-.73-3.1-.06-7.94-.04-15.88-.04-23.81zm7.4-2.77c1.5-1.47 2.91-2.57 3.85-3.98.24-.36-1.11-2.52-1.49-2.46-1.77.31-3.45 1.1-5.42 1.82 1.22 1.84 1.94 2.93 3.06 4.62z"/><path d="m266.88 28c4.36 2.47 8.12 4.05 11.15 6.52 1.85 1.51 3.87 4.57 3.59 6.64-1.94 14.54-.27 29.06-.46 43.58-.02 1.87-.53 3.73-.93 6.36 2.61 2.31 4.89 5.87 4.43 10.63-.01.11 0 .22-.01.34-.35 7.09-2.89 8.8-11.12 7.22-.67-6.34-1.05-12.82-2.09-19.2-2.04-12.57-4.51-25.07-6.63-37.63-.38-2.23.17-4.6.17-6.9 0-2.15-.44-4.33-.19-6.43.43-3.42 1.26-6.79 2.09-11.13z"/></g></svg>