<svg enable-background="new 0 0 400 400" viewBox="0 0 400 400" xmlns="http://www.w3.org/2000/svg"><g fill="#fbfafc"><path d="m12.4 4.8-6.1 9h6v1.2h-8v-.5l6.1-8.9h-5.7v-1.2h7.6v.4z"/><path d="m14 15v-10.6h3c1.6 0 2.9.5 4 1.4s1.6 2.2 1.6 3.8-.5 3-1.6 3.9-2.4 1.5-4 1.5zm1.4-9.4v8.2h1.6c1.3 0 2.4-.4 3.1-1.1s1.1-1.8 1.1-3.1-.4-2.3-1.2-3-1.8-1-3.1-1z"/><path d="m26.1 4.4v10.6h-1.4v-10.6z"/><path d="m36.1 14.6c-.8.4-1.8.6-2.9.6-1.5 0-2.7-.5-3.6-1.4s-1.4-2.2-1.4-3.8c0-1.7.5-3.1 1.5-4.1s2.3-1.6 3.9-1.6c1 0 1.8.1 2.5.4v1.4c-.8-.4-1.6-.6-2.5-.6-1.2 0-2.1.4-2.9 1.2s-1.1 1.8-1.1 3.2c0 1.3.3 2.3 1 3s1.6 1.1 2.7 1.1c1 0 2-.2 2.7-.7v1.3z"/><path d="m37.6 14.3c0-.2.1-.5.3-.6s.4-.3.6-.3c.3 0 .5.1.6.3s.3.4.3.6-.1.4-.3.6-.4.3-.6.3c-.3 0-.5-.1-.6-.3s-.3-.4-.3-.6z"/><path d="m50.2 15h-1.6l-5.3-8.2c-.2-.2-.3-.5-.4-.7 0 .2.1.7.1 1.5v7.4h-1.4v-10.6h1.7l5.2 8.1c.2.4.4.6.4.7 0-.3-.1-.8-.1-1.5v-7.3h1.4z"/><path d="m58.6 15h-5.7v-10.6h5.5v1.2h-4.1v3.4h3.8v1.2h-3.8v3.6h4.3z"/><path d="m67.1 5.6h-3.1v9.4h-1.4v-9.4h-3v-1.2h7.5z"/></g><path d="m160.25 141.74c6.16-8.84 5.33-17.99 1.8-26.7-4.65-11.47-10.27-22.56-15.61-33.75-.57-1.2-1.83-2.26-3.02-2.94-10-5.71-19.93-11.59-30.18-16.81-3.31-1.69-7.52-1.92-11.35-2.18-2.96-.2-4.7-1.23-5.95-3.86-1.43-3-3.23-5.82-4.91-8.8 3.41-3.47 7.39-5.52 11.83-6.96 8.37-2.71 16.75-1.87 25.21-.64 9.19 1.33 18.45 2.16 27.61 3.64 3.07.5 6.2 1.9 8.82 3.62 15.43 10.11 27.36 23.26 34.24 40.63 1.8 4.55 2.89 9.06 1.25 13.97-2.82 8.43-1.69 16.9-.45 25.5.79 5.46.94 11.29-.07 16.68-1.45 7.7-1.05 14.65 3.72 21.1-.88 1.16-1.67 2.21-2.8 3.72 9.7 1.04 18.83 3.03 28.43 1.45 15.79-2.6 31.65-2.05 47.38.94 9.77 1.86 19.56 3.65 29.25 5.88 10.37 2.39 19.31 7.59 26.71 15.28 6.47 6.73 7.95 14.79 5.79 23.63-.24.99-1.32 2.38-2.17 2.51-3.91.59-7.9 1.26-11.81 1.02-3.39-.21-6.79-1.38-10.06-2.49-4.77-1.62-9.35-1.7-13.9.61-4.47 2.27-8.67 1.94-13.33-.15-18.45-8.27-37.07-5.93-55.59-.01-2.29.73-4.39 2.08-7.22 3.45 9.32 3.17 17.94 6.11 26.56 9.05.63.22 1.29.38 1.9.65 12.82 5.58 26.28 7.64 40.19 7.51 1.62-.02 3.48.72 4.83 1.68 4.84 3.42 9.62 6.95 14.23 10.67 4.84 3.9 9.96 7.11 16.05 8.72 1.35.36 2.78 1.56 3.55 2.77 3.81 6.03 9.09 9.76 15.89 11.95 6.54 2.11 12.39 5.66 16.79 11.2 6.59 8.31 9.33 17.71 7.87 28.22-.14 1.01-1.59 2.32-2.67 2.63-6.88 1.93-13.86 3.54-20.75 5.45-2.16.6-3.69.24-5.48-1.1-23.09-17.33-46.33-34.45-69.29-51.96-4.6-3.51-9.76-3.36-14.75-4.65-1.99-.51-4.09-1.2-5.72-2.38-5.71-4.13-11.18-8.59-18.63-9.26-.91-.08-1.88-1.09-2.56-1.9-1.3-1.53-2.63-3.11-3.57-4.86-4.5-8.4-11.49-13.19-20.69-15.37-2.5-.59-3.63-.26-4.71 1.88-3.97 7.83-4.98 16.28-4.57 24.81 1.01 20.88-.15 41.59-3.54 62.21-.23 1.39-.05 2.89.17 4.3 1.11 7.18 2.46 14.32 3.43 21.52 1.24 9.18-3.04 15.14-13.01 18.2-1.61-4.69-3.24-9.38-4.83-14.09-4.93-14.61-10.1-29.15-14.61-43.89-1.44-4.69-.83-9.97-1.66-14.89-.67-3.98-2.1-7.83-3.32-12.16-1.74.91-2.62 1.32-3.44 1.82-12.66 7.6-25.33 15.16-37.92 22.87-1.51.92-2.58 2.61-3.74 4.04-2.01 2.47-3.61 5.38-5.96 7.47-8.44 7.52-17.4 14.47-25.6 22.23-4.82 4.57-8.71 10.16-12.77 15.48-3.87 5.07-8.58 8.82-14.74 10.49-1.29.35-2.91-.08-4.26-.5-1.14-.36-2.04-1.41-3.17-1.85-4.76-1.87-6.09-5.85-4.98-10.08 3.06-11.76 6.51-23.43 10.19-35.01.76-2.39 3.18-4.27 4.89-6.34 7.34-8.89 14.58-17.87 22.12-26.58 2.37-2.74 5.4-5.04 8.44-7.07 17.52-11.66 36.83-19.68 56.36-27.17 7.34-2.81 10.88-7.88 9.79-14.72-.57-3.57-2.19-5.65-6.07-6.33-8-1.4-15.87-.77-23.61 1.14-19.71 4.86-38.57 12.11-56.7 21.22-1.55.78-2.83 2.13-4.16 3.31-9.25 8.22-19.47 12.66-31.94 8.13-.89-.32-1.66-.99-2.44-1.55-2.11-1.51-4.34-2.9-6.25-4.63-1.26-1.14-2.68-2.7-2.92-4.25-.34-2.17-.2-4.58 2.65-5.79 9.98-4.23 19.89-8.63 29.8-13.02 1.3-.58 2.75-1.23 3.66-2.26 9.27-10.47 20.72-17.65 33.87-21.98 8.94-2.94 15.45-8.63 20.57-16.19 1.97-2.91 4.17-3.81 7.82-3.3 3.5.48 7.34-.03 10.8-.94 8.75-2.29 17.36-5.12 26.07-7.59 2.08-.59 3.11-1.59 3.56-3.74 1.73-8.2 3.49-16.4 5.56-24.52.67-2.65.33-4.19-2.16-5.35-1.36-.68-2.57-1.71-4.04-2.69z" fill="#000001"/><path d="m28.4 188.34c1.46-6.63 2.82-13.03 4.34-19.4.15-.64 1.21-1.4 1.93-1.5 2.96-.42 5.98-1.04 8.91-.78 6.1.55 10.89-1.46 14.92-5.94 4.32-4.8 7.91-10.06 9.76-16.26 3.24-10.82 8.71-20.01 18.39-26.21 6.42-4.11 9.14-10.73 12.34-17.11.65-1.29 2.11-2.53 3.48-3.03 4.29-1.58 8.77-2.65 13.07-4.22 2.19-.8 3.16-.08 4.27 1.68 7.69 12.17 8.86 25.17 5.86 39.02-1.81 8.36-5.62 14.88-11.87 20.97-8.72 8.49-18.45 14.56-29.76 18.66-17.35 6.29-34.64 12.68-53.26 14.11-.63.05-1.28.01-2.38.01z" fill="#000001"/><path d="m206.8 80.65c10.11.36 19.46 1.89 28.57 4.56 12.1 3.54 24.06 7.59 36.16 11.14 6.95 2.04 14.02 3.69 21.09 5.25 9.36 2.07 17.38 12.09 16.77 21.17-.15 2.18-.89 3.61-3 4.69-12.42 6.38-25.7 7.36-39.2 5.91-10.4-1.12-19.28-6.5-28.22-11.55-2.17-1.23-4.66-1.97-7.08-2.66-1.25-.36-2.67-.1-4.01-.16-6.62-.31-9.28-2.32-11.31-8.53-3.19-9.74-6.38-19.48-9.77-29.82z" fill="#000001"/></svg>