<svg enable-background="new 0 0 400 400" viewBox="0 0 400 400" xmlns="http://www.w3.org/2000/svg"><g fill="#010103"><path d="m200.12 166.8c0 9.85-.04 18.55.01 27.25.14 27.2.33 54.39.45 81.59.08 16.79.02 33.58.14 50.37.09 11.85.46 23.69.51 35.54.01 2.41-.64 4.88-1.29 7.23-1.41 5.12-3.04 6.27-8.15 5.8-.72-.07-1.6-.99-1.99-1.73-3.63-6.95-4.19-14.48-4.2-22.16-.04-44.31-.17-88.62-.25-132.93-.03-15.33-.07-30.67.04-46 .02-2.64-.62-3.5-3.44-3.83-21.88-2.54-43.84-.77-65.75-1.41-3.41-.1-6.83-.9-10.17-1.68-2.79-.65-3.67-2.9-3.87-5.61-.21-2.81 1.68-3.89 3.72-4.32 4.79-1.01 9.62-1.92 14.49-2.36 5.44-.49 10.96-.23 16.41-.66 4.09-.32 4.6-1.31 4.38-5.41-1.38-26.4-10.53-50.56-21.13-74.36-2.33-5.23-3.71-10.96-4.83-16.6-.72-3.62 1.17-5.28 4.69-6.09 2.1-.49 3.31.39 4.56 1.89 7.93 9.52 12.91 20.57 17.11 32.08 6.79 18.61 10.46 37.88 12.67 57.49.39 3.43.94 6.84 1.49 10.78h28.8c.12-1.33.34-2.96.39-4.59.74-22.14 1.22-44.3 2.3-66.43.44-9.02 2.14-17.97 3.37-26.94.12-.89.81-1.9 1.54-2.47 4.74-3.69 9.12-8.22 14.44-10.68 12.14-5.63 24.71-10.34 37.19-15.19 4.26-1.66 8.55 1.97 7.95 6.53-.13.99-1.4 2.12-2.42 2.66-13.35 7.03-26.72 14.04-40.17 20.86-4.45 2.26-6.96 5.76-7.2 10.5-.81 16.08-1.43 32.18-1.97 48.27-.38 11.18-.52 22.37-.76 33.56-.02 1.1 0 2.21 0 3.89h27.05c0-.68 0-1.75 0-2.82 0-6.6-.05-13.21.01-19.81.19-23.62 6.88-45.35 19.28-65.37 2.5-4.05 5.95-6.75 10.96-6.45 1 .06 2.41 1.07 2.82 2 1.43 3.24 1.1 6.61-.55 9.69-2.79 5.22-6.02 10.22-8.62 15.52-6.58 13.42-8.73 27.87-9.24 42.63-.25 7.16-.01 14.33-.26 21.48-.09 2.7.95 4.23 3.41 4.23 6.89.01 13.77-.23 20.66-.43 2.56-.07 5.13-.53 7.68-.42 5.48.25 8.51 3.4 9.16 8.84.24 2-.3 3.39-2.27 3.77-6.55 1.24-13.11 3.21-19.7 3.35-11.61.25-23.24-.75-34.87-1.03-8.03-.17-16.07-.02-24.58-.02z"/><path d="m292.35 359.23c-9.89 2.24-7.43 3.49-13.43-4.65-2.89-3.92-5.28-8.33-7.2-12.81-7.6-17.75-15.73-35.33-22.16-53.51-8.14-23-13.77-46.79-15.04-71.27-.55-10.55.46-21.2 1.2-31.78.12-1.69 2.25-3.97 3.97-4.66 2.34-.94 6.33 1.93 7.09 4.49.5 1.7.83 3.52.8 5.28-.35 20.72 3.82 40.9 7.05 61.21 5.18 32.54 16.8 62.67 33.28 91.06 2.95 5.06 5.74 10.19 4.44 16.64z"/><path d="m152.25 216.35c1.33 36.65-6.56 71.51-21.74 104.72-4.59 10.04-10.02 19.71-15.51 29.31-1.88 3.28-4.78 6.3-9.38 5.88-2.34-.21-3.51-1.5-3.75-3.86-.43-4.34 1.23-8.01 3.16-11.75 7.01-13.59 14.31-27.06 20.6-40.97 6.65-14.72 8.55-30.77 10.22-46.66 1.52-14.44 2.16-28.98 2.86-43.5.25-5.11-.44-10.27-.76-15.4-.28-4.55.34-8.84 2.6-12.95 1.51-2.73 3.04-2.74 5.29-1.12 4.73 3.43 6.08 8.54 6.33 13.83.34 7.48.08 14.98.08 22.47z"/></g><path d="m385.2 377.6.6-.7c.6.4 1.3.9 1.9 1.5l-.6.7c-.8-.5-1.4-1-1.9-1.5zm.3 7.1c.6-1.4 1.1-2.9 1.5-4.5.3.1.6.3.9.4-.5 1.4-1 2.9-1.5 4.4zm.2-10.1.6-.6c.7.5 1.3 1.1 1.9 1.6l-.7.7c-.6-.6-1.2-1.2-1.8-1.7zm8.4-.8h.8v.9h1.8v.7h-1.8v1.8h-.8v-.3h-1.2v.9h3.3v2.6h-.8v-.4h-2.5c0 .3 0 .6-.1.8h3.4v.7h-3.5c0 .3-.1.6-.1.8h4v.7h-3.5c.7.9 1.9 1.3 3.6 1.5-.2.2-.4.5-.6.9-1.9-.3-3.2-1.1-3.8-2.3-.5 1.1-1.8 2-3.9 2.4-.2-.3-.4-.5-.6-.8 1.9-.4 3.1-.9 3.6-1.7h-3.2v-.7h3.5c.1-.2.1-.5.2-.8h-3.3v-.7h3.4c0-.2 0-.5 0-.8h-2.4v.3h-.8v-2.6h3.3v-.9h-1.2v.3h-.8v-1.8h-1.8v-.7h1.8v-.9h.8v.9h3.2zm-4.4 5.5h2.4c0-.3 0-.6 0-.9h-2.4zm1.2-3.1h3.2v-.8h-3.2zm4.4 2.2h-2.4v.9h2.5v-.9z" fill="#fcfbfa"/><path d="m389.2 385.8h.9v1.5h1.9v-1.5h.9v1.5h2.7v6h1.1v.9h-11.3v-.9h1.1v-6h2.7zm.2 8.7.5.8c-1.2.6-2.5 1.3-4 1.9-.2-.3-.3-.6-.6-.8 1.6-.6 3-1.3 4.1-1.9zm-2-4.3h1.9v-2.1h-1.9zm0 3.1h1.9v-2.2h-1.9zm2.7-3.1h1.9v-2.1h-1.9zm0 3.1h1.9v-2.2h-1.9zm2.4 1.3c1.4.6 2.7 1.2 4.1 1.8l-.5.9c-1.5-.7-2.8-1.4-4.1-1.9zm2.2-6.5h-1.9v2.1h1.9zm-1.9 5.2h1.9v-2.2h-1.9z" fill="#fcfbfa"/></svg>