<svg enable-background="new 0 0 400 400" viewBox="0 0 400 400" xmlns="http://www.w3.org/2000/svg"><path d="m249.13 374.45c-4.47-12.92-8.98-25.5-13.14-38.2-2.19-6.7-3.27-13.61-3.12-20.78.26-13.09.39-26.2-.02-39.29-.34-10.75 1.13-21.09 4.18-31.37 3.18-10.71 5.89-21.56 8.58-32.4.54-2.15.12-4.55.09-6.84-.04-2.73-.02-5.46-.29-8.17-.13-1.27-.55-2.85-1.43-3.62-1.77-1.54-2.7-2.79-1.74-5.34 1.17-3.13-3.22-12.32-6.19-13.66-.77-.35-1.88-.7-2.56-.41-4.36 1.85-9.15 3.21-12.85 5.99-5.88 4.42-10.95 9.89-16.52 14.75-1.14.99-2.98 1.83-4.41 1.71-4.76-.42-9.55-1.02-14.2-2.1-5.21-1.21-9.33-.66-12.47 4.23-3.08 4.78-6.87 9.12-9.83 13.97-2.79 4.56-6.59 6.9-11.74 7.14-6.91.32-13.34-.38-19.06-5.35-4.9-4.26-10.11-7.88-13.19-13.96-2.25-4.46-5.52-4.44-8.18-.26-8.15 12.83-10.46 26.36-4.69 40.9 1.2 3.02 1.97 6.43 1.96 9.65-.02 5.78 1.1 11.19 2.59 16.75 1.68 6.31 2.2 12.96 2.97 19.49.31 2.65.75 4.99 2.94 6.82.73.61 1.22 1.87 1.29 2.87.56 8.03 1.11 16.05 1.44 24.09.35 8.65-.14 17.23-3.49 25.39-.21.52-.27 1.23-.65 1.51-1.24.93-2.73 2.51-3.86 2.31-1.11-.19-2.51-2.13-2.75-3.49-1.79-10.02-3.67-20.04-4.83-30.14-.99-8.63-.91-17.38-1.57-26.06-.32-4.17-.77-8.46-2.04-12.41-2.07-6.42-3.85-12.81-4.12-19.59-.07-1.84-.42-3.86-1.26-5.46-5.69-10.82-8.31-22.05-5.76-34.28 1-4.81 1.55-9.73-.92-14.45-.37-.71.18-2.11.66-3.01 7.74-14.36 15.43-28.75 23.37-43.01 4.6-8.27 7.39-16.96 7.71-26.44.11-3.35-3.07-8.74-6.32-9.13-9.78-1.19-14.89-8.08-19.21-15.56-5.9-10.24-9.75-21.37-10.41-33.29-.44-7.9-.09-15.85-.09-23.72 6.63-.36 11.48 5.68 9.76 11.23-.87 2.83-1.81 5.25 1.39 7.55 1.26.9 1.49 3.37 2 5.17 2.06 7.34 3.96 14.75 10.96 20.33.87-2.1 1.95-3.97 2.38-5.99.33-1.57.26-3.49-.36-4.94-4.02-9.46-2.65-19.34-2.22-29.08.15-3.45 1.74-6.88 2.92-10.23 1.15-3.26 2.39-6.53 4.03-9.56.8-1.46 2.45-2.77 4.02-3.43 2.16-.91 3.4.86 4.47 2.54 2.34 3.66 3.35 7.5 2.07 11.81-.57 1.92-.87 3.93-1.37 5.88-1.55 6.16.18 11.82 2.04 17.66 1.99 6.23 3.1 12.75 4.61 19.14.28 1.19.44 2.46.98 3.53 1.46 2.83 5 2.93 6.73.33 3.14-4.74 4.64-9.63 4.62-15.61-.02-11.48 1.16-22.99 5.58-33.83 1.17-2.88 3.13-6.01 6.47-5.29 3.25.71 4.09 4.29 4.68 7.48.55 2.94-.82 4.99-2.75 6.78-1.79 1.66-1.92 3.39-1.36 5.67.71 2.89 1.15 5.91 1.24 8.88.19 5.93-.28 11.89.14 17.79.57 8.07-2.97 14.23-8.06 19.86-1.2 1.33-2.57 2.5-3.73 3.86-1.44 1.7-2.97 3.39-4.07 5.31-4.46 7.75-.63 16.09 8.22 17.79.98.19 2.77-.74 3.26-1.65 1.25-2.34 2.06-4.93 2.9-7.47 1.1-3.3 3.21-5.52 6.63-6.75 2.61 3.18 4.54 6.39 4.16 10.85-.49 5.68-.5 11.4-.55 17.1-.03 3.3.5 6.57 3.29 8.79 1.14.91 2.68 1.32 4.31 2.08 1.79-4.72 3.58-8.94 5-13.27 3.63-11.01 8.39-21.44 15.64-30.55 2.74-3.44 3.62-7.25 3.82-11.47.1-2.19.68-4.38 1.21-6.53 1.14-4.66 2.26-9.32 3.61-13.91 1.03-3.52 2.11-7.08 3.69-10.37 1.41-2.94 4.34-3.37 7.48-3.32 2.96.04 3.31 2.31 4.14 4.11 1.8 3.92 2.1 7.83.08 11.93-1.92 3.9-2.66 7.89 1.77 10.99.65.46 1.07 1.71 1.05 2.59-.12 6.25.1 12.58-3.04 18.32-.95 1.73-.72 3.01.75 4.4 2.09 1.97 3.95 4.19 6.32 6.74 2.07-6.41 3.98-12.31 5.87-18.21 2.08-6.49 3.74-13.15 6.31-19.45 2.98-7.3-.12-13.41-2.63-19.77-.28-.72-.97-1.4-.96-2.1.08-7.78-4.28-14.27-6.16-21.47-1.48-5.69-1.63-11.21.51-17.02 4.86.63 8.3 3.15 10.48 7.36 1.23 2.37 2.11 4.93 3.25 7.35 1.54 3.27 3.95 5.77 7.45 6.8.93.27 2.61-.31 3.23-1.07 1.75-2.16 3.12-4.63 4.67-6.95.93-1.39 1.68-3.06 2.94-4.05 1.86-1.45 4.1-2.41 6.18-3.57.9 1.85 2.08 3.63 2.65 5.58 1.75 6.07.28 11.98-1.44 17.8-1.68 5.67-3.53 11.28-5.16 16.96-.32 1.12-.25 2.47.02 3.63.55 2.29 1.8 3.42 4.42 2.42 5.33-2.02 10.74-3.8 16.08-5.79 1.11-.41 2.06-1.28 3.08-1.95 5.3-3.5 10.46-7.24 15.96-10.39 2.15-1.23 5.05-1.15 8.03-1.75-.76 4.74-1.47 8.43-4.88 11.37-7.95 6.84-14.78 14.85-23.65 20.78-6.02 4.01-12.18 6.54-19.22 6.7-5.13.12-7.94 2.15-8.88 7.23-.42 2.27-1.16 4.71-2.5 6.53-4.35 5.89-4.87 12.62-4.83 19.47.07 12.2 2.07 24.04 7.17 35.23.28.61.36 1.44.82 1.81 5.83 4.74 4.66 12.4 7.6 18.35.57 1.15-.23 3.03-.51 4.55-1 5.48-2.09 10.94-3.05 16.42-1.68 9.62-3.36 19.23-4.88 28.87-.48 3.05-.49 6.18-.62 9.28-.55 13.52-1 27.05-1.62 40.57-.77 16.88-2.02 33.75-2.35 50.64-.14 7.08 1.62 14.19 2.31 21.31.2 2.02-.42 4.11-.48 6.18-.05 1.93-.33 4.07.37 5.77 1.04 2.47.43 4-1.36 5.56zm-23.5-245.18c-2.53 2.12-4.66 3.9-6.79 5.69-3.7 3.11-6.9 3.09-10.71-.05-3.01-2.48-5.17-2.65-7.41.63-1.95 2.84-2.85 6.4-4.11 9.69-1.47 3.83-2.13 8.19-4.41 11.42-2.62 3.71-3.68 7.58-4.07 11.79-.47 5.1 2.32 9.06 6.16 11.6 2.96 1.96 6.1-.69 8.88-2.25 1.16-.65 2.26-1.46 3.26-2.35 4.34-3.86 8.29-8.29 13.04-11.55 6.13-4.19 7.75-9.97 7.89-16.67.1-5.85 1.02-11.8-1.73-17.95zm-61.55 54.09c-.51-5.05-2.16-8.56-5.25-11.45-2.84-2.66-5.78-1.42-8.76-.5-.21.07-.44.08-.66.12-4.33.67-7.05-2.55-5.3-6.54.83-1.9 2.46-3.43 3.52-5.25.55-.94 1.23-2.52.82-3.17-1.97-3.19-4.15-6.28-6.53-9.18-1.31-1.59-3.16-1.72-4.39.34-1.64 2.75-3.23 5.55-4.69 8.4-1.86 3.64-3.38 7.48-5.39 11.03-1.99 3.5-1.73 8.65 1.07 11.58 5.71 5.98 11.42 11.96 17.13 17.94 2.69 2.81 4.71 3.28 7.75.72 2.94-2.48 5.47-5.53 7.85-8.58 1.38-1.77 2.12-4.05 2.83-5.46z" fill="#010100"/><g fill="#fafbfa"><path d="m6.4 11.7c-1-.8-1.9-1.6-2.9-2.3l.6-.7c.9.7 1.9 1.4 2.9 2.2zm-2.1 8.3c.7-2.1 1.4-4.2 2-6.4.2.1.6.3 1 .4-.7 2.3-1.3 4.4-1.9 6.4zm3-12.8c-1.1-.9-2.1-1.7-2.9-2.4l.6-.7c1 .8 2 1.5 3 2.4zm1.4-1.3v-.9h10.2v.9c-.9 4.2-2.3 7.3-4.1 9.4 1.3 1.4 3.2 2.7 5.7 4-.2.2-.4.5-.7.9-2.5-1.4-4.4-2.7-5.7-4.2-1.4 1.5-3.5 3-6.1 4.4 0 0 0 0-.1-.1-.3-.4-.5-.7-.7-.8 2.7-1.3 4.7-2.8 6.2-4.2-1.8-2.2-3-5.3-3.7-9.4zm9.2 0h-7.1c.6 3.8 1.7 6.7 3.4 8.7 1.7-2 2.9-4.8 3.7-8.7z"/><path d="m31.6 3.6h.9v2.3h4.1v9.1h1.7v.9h-16.6v-.9h1.7v-9.1h4.1v-2.3h.9v2.3h3.1v-2.3zm-4 13.3.6.8c-1.9.9-3.8 1.9-5.8 2.8-.2-.3-.3-.6-.5-.9 2-.9 3.9-1.8 5.7-2.7zm-3.2-10.1v3.7h3.1v-3.7zm0 4.5v3.7h3.1v-3.7zm4.1-4.5v3.7h3.1v-3.7zm0 4.5v3.7h3.1v-3.7zm9.1 9.1c-2.1-1.1-4.1-2-5.8-2.7l.5-.8c2.2.9 4.1 1.8 5.8 2.6zm-1.9-13.6h-3.1v3.7h3.1zm-3.2 4.5v3.7h3.1v-3.7z"/></g></svg>