<svg enable-background="new 0 0 400 400" viewBox="0 0 400 400" xmlns="http://www.w3.org/2000/svg"><path d="m5.17 384 .55-.58c.85.61 1.65 1.24 2.4 1.87l-.59.64c-.83-.73-1.62-1.38-2.36-1.93m1.22 9.53-.82-.34c.71-1.76 1.37-3.64 1.98-5.63.24.13.5.25.76.36-.6 1.67-1.24 3.54-1.92 5.61m-.5-13.5.57-.54c.56.44 1.31 1.06 2.26 1.87l-.64.64c-.68-.66-1.41-1.32-2.19-1.97m3.25.46h2.24v-1.36h.77v1.36h4.57v-1.36h.76v1.36h2.28v.69h-2.28v1.84h-2.64v1.26h4.18v2.64h-4.21c0 .45-.02.86-.05 1.21h4.32v.69h-4.38c-.04.34-.1.75-.19 1.22h5.15v.69h-4.82c.87 1.19 2.51 1.92 4.93 2.19-.17.31-.3.57-.37.76-2.77-.49-4.52-1.41-5.26-2.76-.56 1.26-2.3 2.23-5.24 2.9-.12-.24-.26-.48-.43-.72 2.73-.55 4.38-1.34 4.96-2.38h-4.38v-.69h4.65c.1-.38.17-.79.21-1.22h-4.32v-.69h4.4c.03-.34.05-.75.05-1.21h-4.2v-2.64h4.23v-1.26h-2.69v-1.84h-2.24zm1.46 4.46v1.29h3.45c.01-.4.02-.57.01-.53v-.32-.45h-3.46zm1.55-2.59h4.57v-1.19h-4.57zm6.11 2.59h-3.42v.77c-.01.19-.01.37-.02.53h3.44z" fill="#fafafc"/><path d="m32.63 379.16h.82v1.98h3.54v7.89h1.46v.78h-14.37v-.78h1.46v-7.89h3.54v-1.98h.82v1.98h2.73zm-3.49 11.48.5.73c-1.61.82-3.28 1.63-5 2.41-.13-.27-.28-.55-.44-.82 1.75-.72 3.4-1.49 4.94-2.32m-2.78-5.55h2.73v-3.18h-2.73zm0 3.95h2.73v-3.2h-2.73zm3.54-3.95h2.73v-3.18h-2.73zm0 3.95h2.73v-3.2h-2.73zm7.89 4.68c-1.84-.92-3.51-1.7-5.02-2.32l.45-.73c1.89.8 3.57 1.55 5.04 2.23zm-1.62-11.81h-2.73v3.18h2.73zm-2.73 7.13h2.73v-3.2h-2.73z" fill="#fafafc"/><path d="m123.9 252.35c0-12.42.05-24.85-.05-37.27-.02-1.83-.46-3.78-1.2-5.45-3.41-7.65-6.79-15.33-10.58-22.8-3.9-7.68-6.05-15.63-6.82-24.25-2.17-24.17-5.14-48.28-7.14-72.46-.46-5.59 1.42-11.44 2.63-17.09 2.69-12.56 5.64-25.07 8.47-37.6.9-3.96 4.49-5.91 8.35-4.5 4.67 1.71 8.69 4.15 11.93 8.2 12.8 15.98 25.79 31.81 38.85 47.58 7.59 9.17 15.86 17.65 26.32 23.66.1.06.19.12.29.17 9.31 5.41 10.16 5.31 17.08-2.54 11.83-13.44 23.52-27 35.48-40.33 5.22-5.82 7.43-12.9 9.51-20.08 2.13-7.31 3.91-14.76 9.26-20.56.98-1.06 2.82-2.05 4.16-1.92 6.42.64 12.95 1.11 19.17 2.71 6.88 1.77 7.82 5.11 5.95 11.88-2.79 10.11-5.11 20.35-7.38 30.6-.41 1.84.26 3.97.67 5.92 2.17 10.27 3.79 20.42 2.68 31.15-1.24 12.09-.53 24.37-1.04 36.55-.43 10.27-1.29 20.53-2.18 30.78-.21 2.38-1.05 4.79-2.02 7.01-5.16 11.89-10.49 23.7-15.67 35.58-.74 1.7-1.3 3.6-1.4 5.44-1.02 18.99-1.9 38-2.93 56.99-.06 1.16-.69 2.66-1.57 3.33-5.1 3.94-8.27 9.08-9.75 15.24-2.75 11.45-6.72 22.25-15.18 30.87-4.94 5.03-9.72 10.22-14.89 15-10.53 9.73-21.47 19.01-34.37 25.54-3.85 1.95-8.07 3.2-12.2 4.52-.87.28-2.51-.22-3.09-.93-11.99-14.76-24.2-29.36-35.66-44.52-8.11-10.74-12.49-23.4-15.46-36.48-.27-1.18-.22-2.45-.22-3.67 0-12.1 0-24.18 0-36.27zm38.69-22.9c-4.85 12.68-9.32 25.32-14.55 37.64-3.53 8.32-3.47 16.54-1.36 24.91 4.56 18.06 14.64 33.46 24.34 49 .45.73 1.58 1.36 2.45 1.44 2.88.29 5.81.59 8.68.39 10.41-.74 18.73-5.85 25.42-13.46 10.04-11.42 19.78-23.11 29.47-34.83 1.77-2.15 3.19-4.87 3.91-7.55 2.2-8.19 4.06-16.48 5.89-24.76 2.38-10.78 1.1-21.09-4.21-30.86-.85-1.57-1.68-2.23-3.64-1.94-6.08.92-12.18 2.01-18.3 2.2-7.34.23-10.77 4.54-12.96 10.6-2.87 7.92-2.17 16.1-1.4 24.23.93 9.72 1.42 19.41-.48 29.07-1.98 10.06-3.95 11.49-14.15 10.39-8.44-.91-13.16-5.47-13.27-13.93-.07-5.41.97-10.85 1.65-16.26.94-7.51 2.8-15 2.85-22.5.09-12.54-7.88-21.37-20.34-23.78zm-24.66-147c-.46 1.09-.74 1.67-.95 2.26-7.21 19.61-9.7 39.93-8.73 60.67.52 11.12 3.05 21.88 8.32 31.87 1.06 2.01 2.17 2.33 4.2 1.96 7.98-1.48 14.3-5.67 19.35-11.8 5.54-6.74 10.84-13.67 16.27-20.51 1.57-1.98 3.2-3.92 4.79-5.87-14.49-19.61-28.75-38.93-43.25-58.58zm117.32 15.35c-10.98 9.53-21.89 18.94-32.7 28.46-.61.54-.87 2.05-.61 2.9 1.12 3.61 1.94 7.48 3.88 10.63 8.24 13.41 16.83 26.59 25.32 39.84.33.52.89 1.1 1.44 1.22 2.12.46 7.63-3.09 7.97-5.31 1.03-6.72 2.29-13.45 2.71-20.22.92-14.85 1.19-29.73-1.63-44.44-.9-4.76-2.08-9.59-6.38-13.08zm-19.8 105.01c-.8-2.31-1.4-4.56-2.35-6.67-5.24-11.67-12.44-21.98-21.94-30.56-2.63-2.37-5.82-4.12-8.76-6.15-1.77-1.22-3.07-.88-4.54.8-6.62 7.59-13.24 15.19-20.15 22.51-3.48 3.69-5.73 7.91-7.53 12.51-1.48 3.79.06 7.25 3.9 8.46 14.47 4.58 29.29 6.1 44.37 4.54 5.9-.61 11.62-2.09 17-5.44z" fill="#010101"/></svg>