<svg enable-background="new 0 0 400 400" viewBox="0 0 400 400" xmlns="http://www.w3.org/2000/svg"><path d="m5.17 384 .55-.58c.85.61 1.65 1.24 2.4 1.87l-.59.64c-.83-.73-1.62-1.38-2.36-1.93m1.22 9.53-.82-.34c.71-1.76 1.37-3.64 1.98-5.63.24.13.5.25.76.36-.6 1.67-1.24 3.54-1.92 5.61m-.5-13.5.57-.54c.56.44 1.31 1.06 2.26 1.87l-.64.64c-.68-.66-1.41-1.32-2.19-1.97m3.25.46h2.24v-1.36h.77v1.36h4.57v-1.36h.76v1.36h2.28v.69h-2.28v1.84h-2.64v1.26h4.18v2.64h-4.21c0 .45-.02.86-.05 1.21h4.32v.69h-4.38c-.04.34-.1.75-.19 1.22h5.15v.69h-4.82c.87 1.19 2.51 1.92 4.93 2.19-.17.31-.3.57-.37.76-2.77-.49-4.52-1.41-5.26-2.76-.56 1.26-2.3 2.23-5.24 2.9-.12-.24-.26-.48-.43-.72 2.73-.55 4.38-1.34 4.96-2.38h-4.38v-.69h4.65c.1-.38.17-.79.21-1.22h-4.32v-.69h4.4c.03-.34.05-.75.05-1.21h-4.2v-2.64h4.23v-1.26h-2.69v-1.84h-2.24zm1.46 4.46v1.29h3.45c.01-.4.02-.57.01-.53v-.32-.45h-3.46zm1.55-2.59h4.57v-1.19h-4.57zm6.11 2.59h-3.42v.77c-.01.19-.01.37-.02.53h3.44z" fill="#fafafc"/><path d="m32.63 379.16h.82v1.98h3.54v7.89h1.46v.78h-14.37v-.78h1.46v-7.89h3.54v-1.98h.82v1.98h2.73zm-3.49 11.48.5.73c-1.61.82-3.28 1.63-5 2.41-.13-.27-.28-.55-.44-.82 1.75-.72 3.4-1.49 4.94-2.32m-2.78-5.55h2.73v-3.18h-2.73zm0 3.95h2.73v-3.2h-2.73zm3.54-3.95h2.73v-3.18h-2.73zm0 3.95h2.73v-3.2h-2.73zm7.89 4.68c-1.84-.92-3.51-1.7-5.02-2.32l.45-.73c1.89.8 3.57 1.55 5.04 2.23zm-1.62-11.81h-2.73v3.18h2.73zm-2.73 7.13h2.73v-3.2h-2.73z" fill="#fafafc"/><g fill="#010101"><path d="m115.48 24.91c7.29 7.98 14.39 15.75 21.48 23.52.37.41.88.85.98 1.34 1.61 7.71 8.15 10.9 13.77 14.73 15.33 10.46 32.62 13.56 50.82 12.65 11.47-.57 22.61-2.85 33.28-7.15 1.84-.74 3.65-1.7 5.25-2.86 7.17-5.17 14.33-10.36 21.32-15.76 1.75-1.35 3.17-3.36 4.22-5.35 1.82-3.45 3.22-7.12 4.8-10.7 1.93-4.37 4.2-5.55 8.96-4.64 10.75 2.06 17.24 10.83 14.74 21.8-2.55 11.18-2.49 22.41-2.9 33.68-.59 16.44-.3 32.96-1.87 49.31-1.17 12.15-3.89 24.31-7.37 36.04-4.09 13.78-9.6 27.16-14.84 40.58-1.34 3.43-3.69 6.6-6.05 9.49-6.26 7.66-12.7 15.29-14.72 25.23-1.17 5.75-1.22 11.78-1.32 17.7-.34 18.35-5.12 35.76-10.72 53.03-1.03 3.19-2.13 6.37-2.9 9.63-2.37 10.12-6.29 19.48-12.5 27.91-2.09 2.84-3.24 6.36-5.08 9.42-7.16 11.89-16.87 13.77-28.18 5.58-1.63-1.18-3.18-2.48-4.87-3.58-3.07-2.01-4.86-4.62-6.39-8.12-1.92-4.4-5.48-8.1-8.44-12.02-3.97-5.27-8.28-10.3-12-15.74-6.12-8.96-7.75-19.3-8.77-29.88-1.81-18.71-3.96-37.38-6.13-56.05-.15-1.28-1.39-2.75-2.53-3.55-12.09-8.55-20.8-19.84-27.38-32.97-2.54-5.07-3.87-10.39-4.51-16.01-1.05-9.22-2.21-18.45-3.78-27.59-1.85-10.76.13-21.43.12-32.13-.01-13.08.02-26.16-.43-39.23-.53-15.21-2.17-30.4-2.13-45.6.02-8.01 2.28-16.17 11.08-20.01 1.64-.74 3.16-1.7 4.99-2.7zm147.46 51.88c-9.28 4.32-18.52 8.33-27.47 12.89-5.84 2.98-11.85 4.15-18.28 4.64-4.6.35-9.13 1.81-13.65 2.97-2.34.6-3.11 2.28-2.98 4.82.63 11.74 1.6 23.5 1.38 35.23-.18 9.45 3.65 16.53 9.89 22.88 1.88 1.91 3.7 3.92 5.76 5.64 8.41 7.04 16.91 13.97 25.37 20.95 3.15 2.6 9.74 1.41 11.19-2.4 3.4-8.96 7-17.91 9.51-27.14 3.43-12.59 5.95-25.43 8.75-38.18.29-1.33.08-2.88-.27-4.24-1.78-6.93-3.84-13.8-5.45-20.76-.69-2.99-.96-6.22-.67-9.27.32-3.26-.62-5.65-3.08-8.03zm-129.96-4.96c-5.42 10.83-8.03 21.86-7.08 33.47 1.64 20.07 3.55 40.11 3.34 60.3-.05 5.23 1.74 10.48 2.77 15.71.34 1.7 1.4 2.12 3.22 1.83 8.79-1.39 15.72-5.98 21.99-12.01 6.69-6.44 13.61-12.63 20.33-19.04 1.04-1 2.12-2.54 2.19-3.88.58-10.59 1.34-21.2 1.19-31.8-.09-6.42-1.62-12.82-2.63-19.21-.34-2.17-1.73-3.35-4.04-3.82-3.61-.74-7.18-1.71-10.67-2.88-3.45-1.16-7.09-2.19-10.09-4.14-6.93-4.49-13.52-9.52-20.52-14.53zm88.97 182.85c-9.83.36-19.29.52-28.74 1.1-6.33.39-12.65 1.24-18.94 2.11-4.32.6-6.49 3.14-7.45 7.65-3.7 17.31-1.3 34.07 4.08 50.54 3.88 11.88 8.82 23.22 19.62 30.8 3.42 2.4 8.42 2.78 10.83-.53 3.59-4.91 7.6-10.07 9.22-15.75 3.83-13.4 6.36-27.17 9.4-40.8 2.5-11.23 2.41-22.6 1.98-35.12zm-25.87-16.83c4.49-.77 9.1-1.11 13.44-2.39 10.92-3.24 19.37-10.41 27.38-18.15 3.02-2.92 2.84-6.9-.44-9.54-1.65-1.33-3.48-2.45-5.11-3.8-9.45-7.86-18.7-15.95-28.35-23.54-4.08-3.21-8.88-5.54-13.52-7.96-1.05-.55-3.19-.31-4.14.43-14.03 11.09-27.96 22.32-41.85 33.59-.7.56-1.36 2.04-1.1 2.75 1.16 3.2 1.89 7.13 4.2 9.22 5.01 4.54 10.43 9.16 16.52 11.85 10.32 4.56 21.44 6.92 32.97 7.54z"/><path d="m232.84 117.06c5.03 1.5 9.63 3.39 13.04 7.36 4.76 5.56 2.91 16.64-3.39 20.35-2.14 1.26-6.71.83-8.02-1.14-5.47-8.25-8.43-16.83-1.63-26.57z"/><path d="m147.33 112.63c3.13 1.5 6.11 2.76 8.93 4.3 4.61 2.51 6.1 6.57 5.26 11.61-.15.88-.32 1.76-.51 2.63-1.1 5-1.11 5-6.28 5-7.32 0-7.17-.05-9.5-7.23-1.83-5.65-1.8-10.9 2.1-16.31z"/><path d="m187.96 272.99c6.74 3.76 13.3 7.06 18.35 12.58 1.85 2.02 2.67 4.31 1.23 7.01-.52.97-.88 2.07-1.07 3.15-.8 4.67-3.41 6.76-8.24 7.23-3.01.29-4.7-.33-6.38-2.69-4.52-6.33-4.83-13.48-4.48-20.81.11-1.97.37-3.95.59-6.47z"/><path d="m185.67 196.63c3.71.71 7.43 1.34 11.12 2.16 3.34.74 4.96 3.01 5.46 6.36 1.15 7.63-2.99 12.38-10.67 11.52-3.82-.43-7.62-1.59-11.28-2.86-3.32-1.15-7.03-11.18-4.78-13.45 1.79-1.8 4.86-2.38 7.42-3.34.78-.29 1.77-.05 2.66-.05.03-.1.05-.22.07-.34z"/></g></svg>