<svg enable-background="new 0 0 400 400" viewBox="0 0 400 400" xmlns="http://www.w3.org/2000/svg"><g fill="#fbfafa"><path d="m37.59 393.81c-.92.31-1.52.05-2-.78-.7-1.2-1.52-2.34-2.47-3.78v4.59c-.55.03-.95.05-1.41.07-.03-.37-.06-.64-.06-.91 0-1.91 0-3.81 0-5.7 1.13-.41 1.77-.03 2.29.91.62 1.11 1.38 2.14 2.31 3.19v-4.2h1.35v6.61z"/><path d="m12.94 393.88v-6.75c1.9.19 3.93-.54 5.37 1.29.8 1.01.78 2.88.03 3.97-1.37 1.97-3.4 1.51-5.4 1.49m1.45-1.22c2.04.12 2.92-.58 2.89-2.21-.03-1.51-.98-2.19-2.89-2z"/><path d="m11.81 393.87h-5.49c.68-2.18 2.47-3.48 3.51-5.45h-3.08v-1.21h5.29c-.71 2.13-2.44 3.48-3.47 5.51.86 0 1.63.04 2.39-.01.79-.05 1.14.21.85 1.16"/><path d="m39.33 393.86v-6.61h3.7v1.07h-2.22v1.52c.68.04 1.34.09 2.07.13v1.07c-.72.05-1.38.09-2.1.14v1.48h2.4v1.19h-3.85z"/><path d="m27.71 388.56c-1.15-.3-2.46-.61-3.1.64-.37.73-.41 1.93-.06 2.67.63 1.35 1.99.93 3.17.68.35.94-.01 1.32-.93 1.46-1.62.25-3.05-.27-3.76-1.48-.73-1.24-.6-3.03.31-4.17.88-1.11 2.71-1.7 4-1.16.32.13.44.74.65 1.12-.1.08-.19.16-.28.24"/><path d="m49.15 387.24v1.07c-.59.02-1.17.05-1.87.08v5.44h-1.48v-5.44h-1.85c-.05-.4-.08-.73-.13-1.15z"/><path d="m20.06 387.21h1.33v6.62h-1.33z"/><path d="m30.68 393.25c-.49.38-.8.79-1.05.76-.32-.05-.6-.45-.9-.7.26-.24.51-.64.8-.67.29-.04.62.3 1.15.61"/></g><path d="m251.44 25.04c.75 3.19 1.92 6.34 2.17 9.56.68 8.81.75 17.66 1.49 26.46.5 6 1.55 11.98 2.63 17.92 1.93 10.59.98 21.16.48 31.79-.53 10.99-2.74 21.89-.97 33.08.77 4.89-.97 10.18-1.63 15.29-1.06 8.21-2.18 16.42-3.25 24.63-.96 7.36-3.65 14.02-7.97 20.04-1.89 2.64-3.74 5.31-5.69 7.9-2.07 2.76-4.67 5.36-1.68 9.06.24.29.2.87.17 1.31-1.69 20.27 1.32 40.46 1.06 60.7-.21 16.39-1.6 32.75-7.48 48.18-4.32 11.36-9.59 22.38-14.95 33.31-1.71 3.49-4.88 6.33-7.7 9.15-.85.85-2.92 1.12-4.21.78-8-2.1-15.94-4.4-23.88-6.74-1.23-.36-2.6-.98-3.41-1.91-4.2-4.79-8.31-9.67-12.31-14.63-4.43-5.51-4.96-12.2-5.79-18.91-1.99-16.1-5.31-32.1-4.14-48.42 1.32-18.29 3.2-36.54 4.69-54.82.14-1.7-.37-3.74-1.28-5.19-4.94-7.85-10.12-15.55-15.18-23.33-.54-.83-1.21-1.87-1.12-2.75.7-7.23-2.8-13.81-3.17-20.79-.51-9.58-.28-19.2-.33-28.8-.03-6.14.21-12.29-.01-18.43-.62-17.12-1.56-34.22-2.07-51.34-.17-5.8.81-11.62.82-17.43 0-5.57-.7-11.13-.85-16.7-.08-2.97.27-5.97.65-8.93.1-.77 1.07-1.43 1.63-2.14.7.62 1.62 1.11 2.06 1.87 4.32 7.49 7 15.54 7.15 24.2.18 10.21.77 20.35 3.35 30.28.06.22.12.45.09.66-1.15 7.86 3.2 12.66 8.76 17.39 9.81 8.32 19.13 17.23 28.66 25.89.58.53 1.17 1.05 1.79 1.52 5.66 4.27 7.45 4.14 12.32-.93 7.83-8.15 13.45-17.82 19.19-27.44 5.9-9.88 11.65-19.89 18.25-29.29 3.95-5.63 5.25-11.45 5-17.93-.19-4.92-.92-9.84-.82-14.74.09-4.3.58-8.69 1.68-12.84.66-2.47 2.83-4.54 4.32-6.8.51.09.99.18 1.48.26zm-50.79 135.45c-9.57 13.42-20.23 24.51-27.04 38.47-2.37 4.85-2.74 9.46-2.38 14.62 9.71 2.6 19.28 5.17 29.23-1.93-8.53-1.85-9.09-8.17-9.51-14.58-.06-.89-.4-1.79-.32-2.66.38-4.18.73-8.38 1.35-12.53.27-1.81 1.54-2.31 3.5-1.83 5.44 1.35 8.52 4.79 8.63 10.4.05 2.33-.44 4.67-.51 7.01-.14 4.9-.2 9.81-.22 14.72-.01 2.79 1.73 4.04 4.13 3.12 2.95-1.13 6.3-2.33 8.31-4.56 5.44-6.06 10.38-12.58 15.27-19.1 2.13-2.84 2.15-7.46.27-8.85-10.05-7.38-20.19-14.67-30.71-22.3zm20.83 78.96c-.57-3.05-1.03-6.12-1.73-9.14-.47-2.04-1.78-3.42-4.09-3.07-3.36.51-6.8.85-10.04 1.82-6.09 1.82-12.01 4.3-18.61 2.9-2.51-.54-5.05-1.08-7.6-1.22-7.5-.42-12.24 6.14-9.72 12.76 4.86 12.78 11.29 24.45 22.04 33.29.09.07.17.15.23.24 1.83 2.62 4.31 2.6 6.34.77 2.87-2.59 5.6-5.44 7.82-8.59 3.74-5.28 6.77-11.07 10.58-16.3 3.01-4.1 4.6-8.37 4.78-13.46zm-43.69 100.16c.48 7.48 6.06 12.67 11.78 17.76.3.26.85.24 1.28.35 4.92 1.27 8.86-.54 11.95-4.2 3.68-4.36 7.38-8.75 10.48-13.52 1.28-1.97 2.21-5.53 1.29-7.35-4.07-8.05-10.16-14.66-17-20.54-1.48-1.27-2.55-1.15-3.82.52-3.86 5.08-7.74 10.16-11.93 14.96-2.86 3.27-3.78 6.98-4.03 12.02zm-21.05-145.96c4.26-.09 6.31-2.73 8.12-5.58 2.93-4.61 5.6-9.4 8.69-13.9 3.6-5.26 7.43-10.37 11.35-15.4 1.79-2.3 1.96-4.62 1.26-7.22-1.16-4.31-4.29-6.92-7.8-9.26-6.69-4.45-13.62-8.56-18.82-14.97-1.35-1.66-3.97-2.28-6.83-3.82v27.3c2.59-4.79.69-10.85 4.89-14.73 5.46.82 6.79 3.1 8.54 12.19 1.25 6.45.01 12.59-5.32 17.49-2.63-2.96-5.06-5.7-8.01-9.02-.5 1.57-1.17 2.56-1.05 3.43 1.57 11.05 3.26 22.1 4.98 33.49zm83.31-26.72c.35-4.78.25-9.76 1.2-14.54 1.13-5.68-.21-10.01-4.77-13.46-4.23-3.2-5.53-7.34-4.65-12.6.53-3.14.1-6.44.1-10.27-5.36 6.75-10.3 12.96-15.24 19.18-.49.61-1.01 1.2-1.45 1.85-5.29 7.87-4.66 12.46 2.61 18.6 1.62 1.37 3.4 2.54 5.12 3.79 2.71 1.97 5.67 3.68 8.09 5.97 2.73 2.57 5.49 2.95 8.99 1.48zm-68.79 148.87c2.14-1.56 4.18-2.41 5.24-3.94 3.98-5.71 8.68-11.02 10.05-18.25.46-2.41.03-3.85-1.77-5.44-4.18-3.7-8.15-7.62-12.21-11.45-1.24-1.17-2.5-2.33-4.18-3.9-.85 14.71-1.25 28.6 2.87 42.98zm45.11-7.3c4.79-3.39 6.45-24.74 2.61-31.71-12.91 9.72-14.01 22.19-2.61 31.71zm24.11-209.87c-5.35 4.86-3.76 11.73 3.27 15.1 2.73-5.04 1.22-12.25-3.27-15.1z" fill="#010000"/></svg>