<svg enable-background="new 0 0 400 400" viewBox="0 0 400 400" xmlns="http://www.w3.org/2000/svg"><g fill="#fbfafa"><path d="m37.59 393.81c-.92.31-1.52.05-2-.78-.7-1.2-1.52-2.34-2.47-3.78v4.59c-.55.03-.95.05-1.41.07-.03-.37-.06-.64-.06-.91 0-1.91 0-3.81 0-5.7 1.13-.41 1.77-.03 2.29.91.62 1.11 1.38 2.14 2.31 3.19v-4.2h1.35v6.61z"/><path d="m12.94 393.88v-6.75c1.9.19 3.93-.54 5.37 1.29.8 1.01.78 2.88.03 3.97-1.37 1.97-3.4 1.51-5.4 1.49m1.45-1.22c2.04.12 2.92-.58 2.89-2.21-.03-1.51-.98-2.19-2.89-2z"/><path d="m11.81 393.87h-5.49c.68-2.18 2.47-3.48 3.51-5.45h-3.08v-1.21h5.29c-.71 2.13-2.44 3.48-3.47 5.51.86 0 1.63.04 2.39-.01.79-.05 1.14.21.85 1.16"/><path d="m39.33 393.86v-6.61h3.7v1.07h-2.22v1.52c.68.04 1.34.09 2.07.13v1.07c-.72.05-1.38.09-2.1.14v1.48h2.4v1.19h-3.85z"/><path d="m27.71 388.56c-1.15-.3-2.46-.61-3.1.64-.37.73-.41 1.93-.06 2.67.63 1.35 1.99.93 3.17.68.35.94-.01 1.32-.93 1.46-1.62.25-3.05-.27-3.76-1.48-.73-1.24-.6-3.03.31-4.17.88-1.11 2.71-1.7 4-1.16.32.13.44.74.65 1.12-.1.08-.19.16-.28.24"/><path d="m49.15 387.24v1.07c-.59.02-1.17.05-1.87.08v5.44h-1.48v-5.44h-1.85c-.05-.4-.08-.73-.13-1.15z"/><path d="m20.06 387.21h1.33v6.62h-1.33z"/><path d="m30.68 393.25c-.49.38-.8.79-1.05.76-.32-.05-.6-.45-.9-.7.26-.24.51-.64.8-.67.29-.04.62.3 1.15.61"/></g><path d="m227.37 58.16c2.65-1.49 4.56-.95 6.52 1.27 2.26 2.56 4.38 4.96 4.54 8.63.08 1.75.72 3.51 1.31 5.19 1.46 4.14 5.74 5.05 8.66 1.83 6.7-7.37 13.51-14.65 19.89-22.29 1.6-1.91 2.41-5.05 2.4-7.62-.02-3.99.95-7.23 3.83-9.93 3.1-2.91 6.17-5.85 9.3-8.73 2.48-2.29 4.82-1.57 5.57 1.64 2.88 12.28 4.99 24.59 4.88 37.35-.06 7.85 1.92 15.72 3.06 23.57 1.23 8.44 1.51 16.69-.41 25.25-1.64 7.31-1.17 15.08-1.69 22.65-.38 5.55-.13 11.27-1.43 16.6-2.83 11.62-2.34 23.29-2.05 35.02.19 7.72.91 15.52.09 23.14-1.03 9.6-2.36 19.14-6.44 28.34-3.2 7.21-7.52 12.15-14.48 15.2-3.17 1.39-6.38 2.7-9.5 4.19-3.02 1.44-6.09 2.85-8.91 4.62-5.93 3.73-6.82 5.36-4.95 12 2.4 8.57.58 16.9-.66 25.24-1.77 11.93-3.58 23.89-6.17 35.67-3.47 15.77-13.29 27.03-27.07 35.03-.82.48-1.88.71-2.84.78-8.81.64-17.63 1.23-26.44 1.82-.66.04-1.38.17-1.97-.02-13.02-4.29-23.23-11.12-27.15-25.57-2.83-10.44-1.38-20.34.56-30.46 1.79-9.33 3.41-18.69 5.21-28.02.53-2.73 1.35-5.42 2.16-8.08 1.63-5.31.6-8.39-4.49-10.66-4.88-2.18-9.99-3.85-15.05-5.6-16.17-5.61-24.91-17.73-29.47-33.52-.28-.95-.39-2-.33-2.99.6-9.75-2.48-18.62-7.65-26.5-6.38-9.72-7.53-20.9-10.29-31.65-.85-3.31-1.38-6.83-1.27-10.23.84-26.06 1.63-52.12 3.01-78.15.43-8.09 2.42-16.12 4.02-24.11.88-4.4 5.99-7.21 10.26-6.2 8.15 1.93 16.33 3.79 24.46 5.83 1.54.39 3.07 1.27 4.33 2.27 11.35 9.02 19.77 20.72 28.27 32.19 3.45 4.66 4.66 11.02 6.7 16.68 1.93 5.35 3.51 10.82 5.45 16.17 1.36 3.77 4.12 5.72 8.29 5.24 8.99-1.02 17.99-1.98 26.95-3.16 1.02-.13 2.2-1.38 2.72-2.41 1.22-2.38 2.17-4.91 3.06-7.43 2.41-6.8 5.74-13.09 10.38-18.63 2.4-2.86 2.63-5.76 1.54-9.34-1.05-3.47-1.09-7.25-1.63-10.88-.16-1.08-.17-2.48-.83-3.13-3.09-3.06-3.39-6.88-3.52-10.86-.07-2.37-.46-4.69-.73-7.24zm-110.58 96.06c9.09 7.71 17.88 15.33 26.85 22.74 11.19 9.24 21.47 19.67 34.58 26.42 2.07 1.06 4.08 2.41 5.76 4 2.53 2.4 5.27 2.49 8.01 1.05 3.15-1.65 6.27-3.49 9.03-5.71 6.34-5.1 12.18-10.87 20.24-13.38.98-.31 1.79-1.3 2.59-2.06 8.13-7.67 16.07-15.57 24.43-22.98 5.68-5.03 12.05-9.29 17.89-14.16 1.23-1.03 1.95-3.22 1.97-4.89.01-.63-2.61-1.79-4.06-1.85-5.36-.22-10.74-.22-16.11-.07-26.85.73-53.51 5.73-80.51 3.31-4.18-.37-8.49.33-12.71.73-5.51.52-11 1.23-17.38 1.96 1.03 2.32 1.73 3.84 2.37 5.39.36.87 1.04 1.95.78 2.64-.25.66-1.48 1.19-2.36 1.32-3.89.58-6.83-1.41-9.68-3.73-4.61-3.74-7.01-3.9-11.69-.73zm59.59 122.2c-.23 4.86-.37 9.43-.66 13.98-.95 14.57-.1 29.24-4.49 43.56-2.3 7.51.22 14.56 6.45 19.91 3.14 2.7 6.07 5.63 9.17 8.38 6 5.33 11.2 5.02 16.71-.69 4.41-4.57 9.3-8.71 13.44-13.49 3.82-4.42 7.79-9.07 8.29-15.32 1.41-17.72 2.72-35.46 4-53.19.49-6.83-.47-7.76-7.39-7.72-.45 0-.9-.03-1.34.01-14.57 1.5-29.13 3.01-44.18 4.57zm90.74-106.88c-7.24 6.92-14.45 13.93-21.83 20.76-1.73 1.61-2.19 3.12-1.52 5.25 1.42 4.53 2.28 9-.2 13.57-.67 1.23-.15 3.06-.34 4.59-.59 4.95-.83 10-2 14.82-.97 4-3.57 4.36-6.42 1.23-1.07-1.17-1.86-2.84-2.17-4.4-.44-2.28-.17-4.68-.49-7-.57-4.12-1.36-8.22-2.13-12.75-8.99 4.24-16.61 8.78-23.6 14.42-1.7 1.37-1.99 2.69-1.49 4.62 1.26 4.85 4.55 8.13 8.39 10.94 4.6 3.37 9.58 6.27 13.86 9.99 4.41 3.83 9.14 4.88 14.59 3.76 6.74-1.38 13.59-2.94 17.51-9.3 9.02-14.65 13.04-30.68 12.48-47.88-.16-5.1-.17-10.21.02-15.31.16-3.57-1-6.03-4.66-7.31zm-101.01-41.11c-1.51-2.63-2.55-4.71-3.83-6.64-3.09-4.63-5.37-9.61-5.87-15.15-.77-8.55-5.04-15.09-11.11-20.73-2.62-2.44-5.01-5.19-7.87-7.29-4.12-3.02-8.4-5.93-12.94-8.22-4.1-2.07-7.29-.31-8.19 4.15-1.13 5.58-2.14 11.21-2.68 16.87-.99 10.47-1.73 20.98.35 31.42.32 1.59.7 3.65 1.81 4.51 3.31 2.56 7 4.63 10.69 6.99 4.62-12.79.2-26.3 4.89-38.99 4.64 3.59 6.79 8.26 8.13 13.58 1.49 5.93 3.33 11.77 5.22 17.58.27.83 1.68 1.8 2.59 1.82 6.03.18 12.06.1 18.81.1zm-41.91 50.72c-.5.08-1.01.15-1.51.23-.38 3.33-1.2 6.69-1.02 10 .21 3.91 2.83 7.51 1.7 11.74-.21.77.6 1.86 1.06 2.74 1.88 3.59 3.51 7.25 3.22 11.43-.29 4.3 1.65 7.67 4.09 10.97 3.12 4.23 6.18 8.52 8.91 13 1.63 2.68 3.39 3.1 6.03 1.87 10.63-4.95 18.94-12.83 27.21-20.92-1.96-2.91-3.86-5.41-5.41-8.11-2.02-3.51-4.91-5.84-8.34-7.93-7.44-4.52-14.73-9.29-21.89-14.24-4.86-3.36-9.38-7.17-14.05-10.78zm150.32-78.66c0-4.59-.05-9.17.02-13.76.04-2.34.46-4.69.41-7.03-.1-4.27-2.77-5.93-6.33-3.68-2.59 1.64-4.93 3.82-7 6.11-3.13 3.48-5.65 7.54-8.97 10.81-2.16 2.12-3.37 4.23-3.53 7.14-.23 4.35-.83 8.71-.7 13.05.09 3.18.96 6.36 1.74 9.47.57 2.26 2.06 3.37 4.66 3.24 2.88-.14 5.82.58 8.69.33 2.94-.25 5.94-.93 8.66-2.03 1.12-.45 2.19-2.5 2.23-3.87.24-6.57.12-13.18.12-19.78zm-111.21 148.82c-.09 4.25 2.09 5.69 5.43 6.41 10.35 2.23 20.8 3.25 31.31 2.15 4.06-.42 7.97-2.21 12.76-3.61-7.19-8.98-14.75-15.65-23.57-20.88-.64-.38-2.02-.17-2.71.29-7.82 5.19-15.58 10.47-23.22 15.64zm73.83-127.83c-.43-.01-.86-.01-1.3-.02-.34 1.75-.68 3.49-1.02 5.24 2.15-.14 4.31-.27 6.46-.41 0-.35.01-.7.01-1.05-1.38-1.25-2.77-2.5-4.15-3.76z" fill="#010000"/><path d="m172.75 168.78c6.79.89 13.42 1.48 19.93 2.72 4.16.79 6.02 3.52 6.2 7.25.14 2.9-1.35 4.73-4.11 4.24-3.01-.53-5.91-1.69-8.82-2.69-2.09-.72-4.07-1.77-6.18-2.42-4.58-1.41-6.28-3.34-7.02-9.1z" fill="#010000"/><path d="m196.75 338.29c-6.74-7.34-7.17-15.63-6.05-24.3.9-6.99 3.33-13.38 7.31-19.2 1.72-2.52 4.03-2.48 5.49.26.21.39.35.82.44 1.25 1.17 5.43 2.4 10.84 3.42 16.29.32 1.72.46 3.64.03 5.3-1.89 7.53-4.99 14.46-10.64 20.4z" fill="#010000"/><path d="m136.42 199.26c1.49 2.39 3.44 4.61 4.36 7.2 1.6 4.5 2.65 9.2 3.74 13.87.4 1.72 1.2 4.44-1.5 4.61-2.04.13-5.64-.97-6.03-2.28-2.23-7.41-4.45-15.01-1.77-22.82.39-.2.8-.39 1.2-.58z" fill="#010000"/></svg>