<svg enable-background="new 0 0 400 400" viewBox="0 0 400 400" xmlns="http://www.w3.org/2000/svg"><g fill="#fbfafa"><path d="m37.59 393.81c-.92.31-1.52.05-2-.78-.7-1.2-1.52-2.34-2.47-3.78v4.59c-.55.03-.95.05-1.41.07-.03-.37-.06-.64-.06-.91 0-1.91 0-3.81 0-5.7 1.13-.41 1.77-.03 2.29.91.62 1.11 1.38 2.14 2.31 3.19v-4.2h1.35v6.61z"/><path d="m12.94 393.88v-6.75c1.9.19 3.93-.54 5.37 1.29.8 1.01.78 2.88.03 3.97-1.37 1.97-3.4 1.51-5.4 1.49m1.45-1.22c2.04.12 2.92-.58 2.89-2.21-.03-1.51-.98-2.19-2.89-2z"/><path d="m11.81 393.87h-5.49c.68-2.18 2.47-3.48 3.51-5.45h-3.08v-1.21h5.29c-.71 2.13-2.44 3.48-3.47 5.51.86 0 1.63.04 2.39-.01.79-.05 1.14.21.85 1.16"/><path d="m39.33 393.86v-6.61h3.7v1.07h-2.22v1.52c.68.04 1.34.09 2.07.13v1.07c-.72.05-1.38.09-2.1.14v1.48h2.4v1.19h-3.85z"/><path d="m27.71 388.56c-1.15-.3-2.46-.61-3.1.64-.37.73-.41 1.93-.06 2.67.63 1.35 1.99.93 3.17.68.35.94-.01 1.32-.93 1.46-1.62.25-3.05-.27-3.76-1.48-.73-1.24-.6-3.03.31-4.17.88-1.11 2.71-1.7 4-1.16.32.13.44.74.65 1.12-.1.08-.19.16-.28.24"/><path d="m49.15 387.24v1.07c-.59.02-1.17.05-1.87.08v5.44h-1.48v-5.44h-1.85c-.05-.4-.08-.73-.13-1.15z"/><path d="m20.06 387.21h1.33v6.62h-1.33z"/><path d="m30.68 393.25c-.49.38-.8.79-1.05.76-.32-.05-.6-.45-.9-.7.26-.24.51-.64.8-.67.29-.04.62.3 1.15.61"/></g><path d="m233.91 200.1c-1.23 2.3-1.82 4.7 1.85 6.31.73.32 1.39 1.77 1.38 2.69-.22 19.13-.23 38.26-.97 57.37-.43 11.12-3.04 22.09-8.4 31.88-7.82 14.28-10.7 29.16-9.75 45.36.52 8.82-1.23 17.8-2.33 26.66-.2 1.6-2.22 2.98-3.41 4.46-.33-.18-.66-.35-.99-.53-.18-.69-.47-1.38-.52-2.08-.73-11.95-1.45-23.9-2.14-35.85-.39-6.77-2.77-12.91-6.34-18.52-4.54-7.13-8.27-14.53-9.84-22.91-.14-.75-.47-1.51-.86-2.17-7.71-12.89-9.54-27.18-9.99-41.8-.15-4.73.01-9.16-2.71-13.76-2.03-3.43-1.55-8.46-1.79-12.8-.26-4.56-.06-9.15-.06-14.03-5.19-.92-10.27-1.6-15.24-2.75-4.42-1.03-8.77-2.42-13.05-3.96-3.14-1.13-6.02-2.99-9.17-4.11-12.33-4.35-19.21-14.09-24.89-24.97-5.25-10.07-5.61-21.07-5.53-32.07.17-21.71.18-43.42.95-65.11.22-6.3 2.82-12.53 4.32-18.79.9-3.74 1.92-7.46 2.63-11.24.36-1.93.29-3.82 2.77-4.33 2.59-.54 3.24 1.24 3.97 3.06 2.71 6.75 2.73 13.51.08 20.27-3.07 7.82-4.97 15.8-3.28 24.23.24 1.18.96 2.48 1.85 3.28 4.4 3.98 8.86 7.9 13.46 11.63 1.31 1.07 3.21 1.38 4.76 2.19.86.45 1.69 1.08 2.31 1.82 4.84 5.81 11 9.56 17.92 12.48 8.95 3.78 17.81 7.84 26.42 12.33 4.09 2.13 7.44 5.64 11.27 8.32 3.16 2.21 6.43 4.29 9.83 6.09 2.28 1.2 4.38.57 6.14-1.63 5.47-6.79 11.3-13.29 16.63-20.19 11.56-14.94 22.84-30.1 34.35-45.08 2.92-3.8 5.4-7.74 5.91-12.55.23-2.16 0-4.43-.42-6.58-2.11-10.74-4.39-21.44-6.51-32.17-.34-1.71-.2-3.51-.28-5.28 4.91.03 7.42 1.43 7.99 5.66.87 6.51 4.08 11.96 6.69 17.73.57 1.25.97 2.85.73 4.15-.81 4.35.53 8.26 1.45 12.42 1.94 8.7 3.82 17.55 4.28 26.41.65 12.69.63 25.5-.34 38.17-.5 6.51-3.98 12.74-5.58 19.23-2.53 10.2-7.08 19.2-14.28 26.87-1.07 1.14-2.04 2.39-2.87 3.71-5.44 8.66-13.07 14.91-21.95 19.65-1.64.88-3.91.55-6.45.83zm-112.28-97.29c-.3.18-.6.36-.91.54-.25 1.5-.71 3-.72 4.5-.05 11.28-.06 22.56.02 33.83.11 15.37 4.16 29.12 16.42 39.46 1.28 1.07 2.31 2.43 3.5 3.61.95.94 1.82 2.25 2.98 2.62 8.69 2.81 17.37 5.72 26.21 7.97 4.13 1.05 7.94-.42 10.89-4.17 6.57-8.34 13.33-16.54 20.33-24.53 2.36-2.69 2.19-4.93.5-7.4-.98-1.42-2.28-2.95-3.79-3.63-10.6-4.8-19.41-12.31-28.9-18.78-1.61-1.1-3.54-1.79-5.41-2.44-3.14-1.09-6.65-1.48-9.46-3.1-5.22-3-9.97-6.79-15.06-10.03-4.94-3.15-8.65-7.16-11.23-12.5-1.11-2.3-3.54-3.98-5.37-5.95zm87.35 214.24c.3.09.61.17.91.26 1.34-2.47 3.04-4.82 3.93-7.44 1.43-4.22 1.9-8.78 3.56-12.89 1.51-3.73 3.68-7.36 6.29-10.41 1.58-1.84 2.19-3.19 1.76-5.47-.7-3.7-2.14-7.68-1.41-11.15 2.2-10.47 2.99-20.97 3.1-31.61.08-7.71.7-15.42.73-23.13.02-5.72-2.16-7.32-7.77-6.64-3.66.44-7.35.65-11 1.15-6.2.84-12.39 1.71-18.54 2.85-1.17.22-3.01 1.78-3 2.71.12 9.83-2.48 19.86 2.06 29.42.74 1.55.67 3.49.93 5.26 1.66 11.35 2.05 22.93 6.73 33.71 1.73 3.98 2.93 8.2 4.37 12.31 2.44 7.02 4.9 14.05 7.35 21.07zm61.74-224.42c-1.67 2.22-3.32 4.31-4.86 6.49-6.25 8.83-12.5 17.67-18.68 26.56-2.22 3.19-4.04 6.67-6.42 9.73-4.04 5.21-8.14 10.41-12.63 15.22-4.97 5.31-2.68 11.04 3.56 13.29 4.31 1.55 8.61 3.1 12.92 4.64 4.74 1.69 9.58 2.27 14.47.9 1.21-.34 2.55-1.32 3.19-2.39 11.08-18.49 14.64-38.83 14.53-60.03-.03-5.51-1.11-10.67-6.08-14.41zm-25.72 90.73c-4.09-4.03-23.06-13.26-28.61-13.9-.85-.1-2.08.21-2.63.8-6.61 7.12-13.21 14.25-19.55 21.6-.83.96-.61 3.42-.03 4.82.64 1.54 2.02 2.53 4.35 1.92 8.08-2.12 16.25-3.9 24.4-5.78 7.84-1.79 15.64-3.67 22.07-9.46z" fill="#010000"/><path d="m135.29 138.27c2.95 2.48 5.6 4.15 7.52 6.44 3.49 4.15 7 8.03 12.26 10.06 2.77 1.07 4.28 3.87 3.7 6.52-.46 2.08-2.44 4.06-4.22 5.49-.82.66-3.27.47-4.15-.3-3.94-3.46-7.79-7.07-11.28-10.98-4.04-4.53-5-9.25-3.83-17.23z" fill="#010000"/><path d="m212.86 250.43c-7.67.83-6.85.97-9.24-5.29-2.62-6.84-1.66-13.58 1.92-19.96 5.96 2.65 9.87 16.29 7.32 25.25z" fill="#010000"/><path d="m249.64 139.39c1.25-3.92 2.45-8.05 3.97-12.06.27-.73 1.9-1.47 2.79-1.35 4.75.59 7.32 3.52 6.6 8.25-.73 4.81-2 9.58-3.58 14.17-.47 1.37-2.67 2.46-4.29 2.95-.63.19-2.32-1.46-2.75-2.57-1.1-2.86-1.76-5.89-2.74-9.39z" fill="#010000"/></svg>