<svg enable-background="new 0 0 400 400" viewBox="0 0 400 400" xmlns="http://www.w3.org/2000/svg"><path d="m5.17 384 .55-.58c.85.61 1.65 1.24 2.4 1.87l-.59.64c-.83-.73-1.62-1.38-2.36-1.93m1.22 9.53-.82-.34c.71-1.76 1.37-3.64 1.98-5.63.24.13.5.25.76.36-.6 1.67-1.24 3.54-1.92 5.61m-.5-13.5.57-.54c.56.44 1.31 1.06 2.26 1.87l-.64.64c-.68-.66-1.41-1.32-2.19-1.97m3.25.46h2.24v-1.36h.77v1.36h4.57v-1.36h.76v1.36h2.28v.69h-2.28v1.84h-2.64v1.26h4.18v2.64h-4.21c0 .45-.02.86-.05 1.21h4.32v.69h-4.38c-.04.34-.1.75-.19 1.22h5.15v.69h-4.82c.87 1.19 2.51 1.92 4.93 2.19-.17.31-.3.57-.37.76-2.77-.49-4.52-1.41-5.26-2.76-.56 1.26-2.3 2.23-5.24 2.9-.12-.24-.26-.48-.43-.72 2.73-.55 4.38-1.34 4.96-2.38h-4.38v-.69h4.65c.1-.38.17-.79.21-1.22h-4.32v-.69h4.4c.03-.34.05-.75.05-1.21h-4.2v-2.64h4.23v-1.26h-2.69v-1.84h-2.24zm1.46 4.46v1.29h3.45c.01-.4.02-.57.01-.53v-.32-.45h-3.46zm1.55-2.59h4.57v-1.19h-4.57zm6.11 2.59h-3.42v.77c-.01.19-.01.37-.02.53h3.44z" fill="#fafafc"/><path d="m32.63 379.16h.82v1.98h3.54v7.89h1.46v.78h-14.37v-.78h1.46v-7.89h3.54v-1.98h.82v1.98h2.73zm-3.49 11.48.5.73c-1.61.82-3.28 1.63-5 2.41-.13-.27-.28-.55-.44-.82 1.75-.72 3.4-1.49 4.94-2.32m-2.78-5.55h2.73v-3.18h-2.73zm0 3.95h2.73v-3.2h-2.73zm3.54-3.95h2.73v-3.18h-2.73zm0 3.95h2.73v-3.2h-2.73zm7.89 4.68c-1.84-.92-3.51-1.7-5.02-2.32l.45-.73c1.89.8 3.57 1.55 5.04 2.23zm-1.62-11.81h-2.73v3.18h2.73zm-2.73 7.13h2.73v-3.2h-2.73z" fill="#fafafc"/><g fill="#010101"><path d="m286.52 124.87c-1.08 15.73-1.56 31.54-3.48 47.16-.92 7.48-4.41 14.68-7.05 21.89-1.45 3.97-3.78 7.61-5.32 11.56-4.21 10.78-11.07 19.86-17.89 29.01-1.06 1.42-1.77 3.36-1.93 5.13-.56 6.35-1.08 12.73-1.14 19.1-.18 18.46-4.08 36.15-10.53 53.36-1.06 2.82-2.11 5.65-3.15 8.48-3.66 9.95-8.64 19.09-15.76 27.05-3.57 4-6.58 8.49-10.08 12.56-2.58 3-4.17 6.05-3.82 10.22.31 3.67-2.98 6.26-6.6 5.6-4.22-.77-7.96-2.28-11.14-5.55-10.63-10.93-20.79-22.21-29.55-34.73-10.63-15.19-15.63-32.55-19.45-50.31-2.58-12.01-4.9-24.12-6.51-36.3-.68-5.18.54-10.67 1.33-15.95.5-3.38.14-6.26-1.49-9.29-3.55-6.59-6.49-13.52-10.18-20.02-4.88-8.61-7.46-17.78-8.77-27.54-3.7-27.54-6.19-55.16-5.35-82.97.63-20.92 4.3-41.34 11-61.18.41-1.22 1.8-2.55 3.03-2.99 8.38-3.04 8.4-2.96 15.18 2.61 4.06 3.34 8.22 6.57 12.17 10.04 1.24 1.09 2.18 2.73 2.8 4.29.82 2.06 1.42 4.27 1.72 6.47 1.01 7.44 4.86 13.26 9.88 18.56 6.16 6.5 12.09 13.21 18.26 19.69 2.46 2.58 5.2 4.94 8.01 7.14 7.68 6.02 8.71 5.88 15.07-1.35 6.73-7.64 13.93-14.93 20.08-23.01 6.83-8.96 12.75-18.61 19-28.02 4.02-6.06 7.99-12.15 11.79-18.35 1.23-2.01 2.49-2.33 4.64-1.8 7.12 1.77 11.61 6.18 13.22 13.23 6.48 28.36 13.24 56.7 11 86.22.33 0 .67-.01 1.01-.01zm-55.76 144.08c-1.09-4.22-1.92-8.02-3.06-11.71-1.09-3.51-3.59-5.51-7.35-5.85-4.56-.41-9.11-1.17-13.67-1.28-13.08-.32-26.17-.21-39.07-2.91-.72-.15-2.05.09-2.28.55-1.46 2.96-3.76 6.02-3.8 9.06-.13 11.61.28 23.25.9 34.86 1.18 22.21 11.61 38.9 30.6 50.4 4.23 2.56 5.89 2.57 10.29-1.47 1.62-1.48 2.93-3.4 4.02-5.33 6.52-11.57 13.06-23.13 15.85-36.35.67-3.16 1.96-6.18 2.73-9.32 1.7-6.91 3.26-13.86 4.84-20.65zm17.59-66.71c-4.75-8.37-9.24-16.48-13.97-24.46-1.45-2.45-3.3-4.78-5.4-6.69-5.63-5.1-11.43-9.94-14.9-16.98-1.06-2.16-2.84-4.01-4.48-5.83-3.21-3.57-6.84-6-12.08-4.46-2.55.75-5.33.72-7.9 1.45-1.56.44-3.33 1.34-4.26 2.59-4.79 6.46-9.17 13.23-14.01 19.66-6.77 8.99-10.9 19.18-14.14 29.8-1.7 5.56-2.16 11.26.05 16.77.61 1.53 2.2 3.28 3.71 3.74 5.31 1.62 10.72 3.27 16.2 3.9 14.05 1.63 27.53-1.68 40.85-5.73 10.61-3.22 20.79-7.39 30.33-13.76zm-112.2-135.24c-.27 4.25-.44 7.49-.69 10.72-1.18 15.25-1.32 30.52-4.15 45.71-2.32 12.42-.55 25.21 1.92 37.68.57 2.89 1.59 5.7 2.38 8.49.76-.14 1.03-.11 1.16-.23 14.78-14.17 29.58-28.31 44.29-42.55 2.36-2.29 2.08-7.07-.36-9.15-9.33-7.95-17.3-17.14-24.9-26.71-6.24-7.84-12.71-15.51-19.65-23.96zm125.89 91.98c.44-4.97.8-10.08 1.38-15.18 1.59-14.02 2.76-27.96-.79-41.95-1.63-6.43-2.98-13.13-.89-19.86.65-2.1 1.07-4.24-1.48-5.51-2.47-1.23-4.5-1.4-6.89.85-12.38 11.66-24.85 23.23-37.57 34.52-3.28 2.91-3.6 5.75-2.52 9.45 1.97 6.74 6.42 11.74 11.61 16.08 7.46 6.24 15.36 11.99 22.62 18.45 4.18 3.72 8.35 5.16 13.62 3.51.21-.07.41-.16.91-.36z"/><path d="m207.03 287.39c-1.51 5.08-2.92 10.19-4.61 15.21-.3.89-1.65 1.93-2.61 2.02-11.54 1.1-8.59 4.01-13.43-7.22-2.98-6.91-5.04-14.1-3.95-21.8.61-4.36 4.41-7.14 8.77-6.37 10.64 1.88 14.93 7.01 14.97 17.91.29.08.58.16.86.25z"/><path d="m214.94 192.62c-5.22 2.24-10.21 4.46-15.28 6.45-.86.34-2.35-.03-3.14-.62-1.78-1.33-3.21-3.12-4.95-4.51-5.58-4.45-5.89-10.43-4.91-16.74.13-.81 1.17-1.85 2.01-2.12 3.48-1.15 6.85-.92 10.38.5 7.91 3.16 14.01 7.77 15.89 17.04z"/><path d="m162.86 120.45c-.92 2.46-1.35 5.28-2.85 7.3-2.56 3.44-7.1 3.47-11.18.72-6.28-4.22-7.92-11.74-3.74-17.89.56-.82 2.25-1.63 3.1-1.38 3.41 1.01 6.75 2.32 10.01 3.76 3.08 1.37 4.59 3.84 4.66 7.49z"/><path d="m234.54 107.59c6.56.28 11.94 1.72 16.53 5.55 4.3 3.59 6.82 11.03 3.32 14.98-2.62 2.95-7.99 3.59-12.26 4.81-.89.25-2.76-1.26-3.46-2.4-1.61-2.63-3.54-5.43-3.95-8.35-.66-4.68-.18-9.51-.18-14.59z"/></g></svg>