<svg enable-background="new 0 0 400 400" viewBox="0 0 400 400" xmlns="http://www.w3.org/2000/svg"><g fill="#010000"><path d="m219.08 211.52c-12.24.62-24.57.5-36.69 2.02-24.94 3.13-49.82 5.23-74.9 1.86-7.87-1.06-15.8-1.6-23.71-2.33-10.57-.97-16.12-6.82-16.31-17.51-.02-.98.73-2.27 1.53-2.94 7.21-6.05 15.87-8.73 24.99-9.5 7.43-.63 14.95-.16 22.43-.3 3.39-.06 5.65 1.32 7.26 4.29 1.05 1.94 2.52 3.65 4.42 5.23-.46-1.59-.92-3.18-1.38-4.77-1.09-3.72.16-5.28 3.98-5.1 12.4.59 24.81 1.75 37.2 1.57 10.91-.16 21.82-1.63 32.69-2.89 18.44-2.13 36.83-4.75 55.29-6.74 6.53-.7 13.2-.16 19.8-.13.75 0 1.63.15 2.22.56 8.21 5.7 18.11 6.81 27.2 10.11 2.72.99 5.49 1.98 7.99 3.4 3.3 1.87 5.11 4.85 5.28 8.79.1 2.42-.66 4.15-2.5 5.82-11.09 10.13-23.45 18.22-37.3 24.07-17.28 7.31-34.02 15.91-52.03 21.45-.94.29-1.84.81-2.67 1.36-13.7 9.1-27.38 18.22-41.06 27.35-.36.24-.68.55-1.25 1.02 4.19 4 9.17 5.99 14.62 6.81 5.64.85 11.31 1.44 16.98 2.1 6.24.72 11.77 3.34 17.26 6.16 2.18 1.12 4.4 2.16 6.88 3.37.76-3.55 3.22-2.85 5.66-2.57 6.56.76 13.2.98 19.67 2.19 7.09 1.33 13.98 3.75 21.04 5.29 11.34 2.48 22.67 5.16 34.14 6.82 15.6 2.25 30.58 6.4 45.13 12.3 1.08.44 2.28 1.54 2.64 2.6 1.34 3.95 3.71 7.93 1.63 12.25-.94 1.95-2.31 3.9-3.95 5.29-10.25 8.67-20.61 17.23-31.03 25.7-1.19.97-2.94 1.61-4.49 1.72-5.69.44-11.44.23-17.08.96-5.17.67-10.17 2.68-15.34 3.3-6.09.73-12.27.61-18.42.82-.64.02-1.36-.11-1.91-.41-4.49-2.37-8.91-4.86-13.42-7.2-5.34-2.77-11-5.02-16.08-8.2-16.04-10.05-33.58-16.34-51.8-20.64-23.6-5.58-47.41-10.23-71.06-15.57-13.07-2.96-26.01-6.52-39.01-9.82-.41-.1-.78-.36-1.28-.6.54-2.26.94-4.46 1.62-6.56.27-.83 1.03-1.79 1.81-2.13 4.37-1.9 7.32-5.18 9.1-9.42 2.31-5.53 6.24-8.94 11.52-11.86 25.04-13.87 49.79-28.24 74.7-42.35 8.46-4.79 17.13-9.2 25.55-14.04 5.05-2.9 9.35-6.81 12.71-11.62-.09-.47-.18-.93-.27-1.38z"/><path d="m140.71 54.96c1.42.07 2.06.14 2.7.14 28.2-.28 56.39-.09 84.51 2.65 3.28.32 6.87-.57 10.06-1.65 4.51-1.52 8.97-2.3 13.75-2.3 16.78-.01 33.57-.76 50.33-.3 8.85.24 17.72 2.04 26.43 3.85 5.88 1.22 9.63 4.21 12.41 7.64-9.87 11.68-21.74 19-37.7 19.11-33.68.23-67.23 3.22-100.84 5.21-13.81.82-27.74.03-41.59-.65-5.64-.28-10.27 1.4-14.81 4.1-2.71 1.61-5.4 2.49-8.55 1.43-7.41-2.5-14.57-.06-21.77 1.28-7.47 1.39-14.93 2.83-22.53 4.27.09 1.07.17 2 .19 2.29-2.51 1.35-4.98 2.21-6.85 3.78-5.42 4.53-10.74 3.98-16.28.43-3.1-1.99-6.3-3.82-9.44-5.75-4.17-2.58-5.05-6.82-2.23-10.86 6.09-8.71 12.16-17.44 18.35-26.08 1-1.39 2.4-2.67 3.89-3.51 9.74-5.49 19.54-10.88 29.36-16.22 1.44-.79 3.08-1.49 4.69-1.66 4.78-.49 8.29-2.9 11.25-6.49 1.27-1.54 2.71-3.03 4.33-4.19 4.89-3.52 9.92-6.49 16.31-3.42 1.77.85 3.88 1.02 5.84 1.48 2.62.61 3.58 2.47 2.86 4.79-.68 2.19-1.74 4.37-3.11 6.2-3.55 4.71-7.37 9.23-11.56 14.43zm100.31 12.66c2.17 6.01 4.02 6.92 9.23 4.9-2.98-1.58-5.82-3.09-9.23-4.9z"/><path d="m100.59 154.17c-.49-1.8-1.13-4.13-1.99-7.29-2.46 4.25-4.55 7.85-6.26 10.81-3.46-.15-6.48-.28-9.38-.41-.81 1.96 1.9 4.74-1.18 4.63-.96-1.81-1.73-3.26-2.6-4.91-11.29 9.75-24.41 11.59-37.81 11.58-5.35 0-10.71-1.96-16.04-3.14-.56-.12-1.19-.91-1.41-1.52-2.78-7.92-2.53-8.51 4.93-12.32.99-.51 1.98-1.04 2.97-1.55 8.19-4.14 8.2-4.14 15.86-3.62 2.36-1.62 3.78-2.94 5.45-3.69 10.48-4.7 21.87-5.15 32.99-6.9 6.15-.96 12.2-2.56 18.64-3.95.13 1.53.25 3.02.45 5.33 1.74-2 3.06-3.55 4.41-5.06 3.62-4.06 6.85-4.76 11.51-2.07 2.19 1.27 4.07 1.55 6.15.13 3.91-2.65 8.01-3.03 12.35-1.14 6.16 2.68 12.08.11 18.03-.95 7.26-1.29 14.41-3.27 21.7-4.23 5.95-.79 12.03-.52 18.06-.72 1.23-.04 2.71.34 3.64-.21 6.96-4.11 14.78-3.08 22.24-3.67 23.3-1.84 46.6-3.81 69.95-4.72 14.94-.58 29.94.6 44.92 1.03 5.36.15 10.81-.09 16.06.77 4.63.76 9.17 2.51 13.51 4.4 3.01 1.31 4.57 4.22 4.68 7.63.08 2.42-.53 4.4-2.73 6.03-9.11 6.74-19.45 10.52-30.57 10.63-16.08.16-32.21-.27-48.24-1.47-13.72-1.02-27.24.39-40.84 1.23-7.48.46-14.95 1.64-22.41 1.51-5.73-.1-11.47-1.58-17.13-2.8-2.72-.59-4.79-.4-6.41 1.96-2 2.89-5.18 2.98-8.12 3.05-10.27.24-20.56.21-30.83.37-1.73.03-3.66.06-5.16.79-6.32 3.1-12.79 4.75-19.96 4.55-12.93-.34-25.89-.09-39.43-.09zm19.02-18.28c1.32 4.2 2.51 4.78 8.38 4.16-2.95-1.47-5.55-2.76-8.38-4.16z"/></g><path d="m361.2 9.6.8-1c.9.7 1.9 1.4 2.9 2.3l-.9 1.1c-1-1-2-1.8-2.8-2.4zm.5 10.6c.9-2.1 1.6-4.3 2.3-6.7.4.2.8.4 1.3.6-.7 2.1-1.5 4.3-2.2 6.6zm.4-15.2.9-.9c1 .8 2 1.6 2.8 2.4l-1 1c-.9-.9-1.8-1.7-2.7-2.5zm12.5-1.2h1.2v1.4h2.7v1.1h-2.7v2.7h-1.2v-.6h-1.8v1.3h4.9v3.8h-1.2v-.5h-3.7c0 .4-.1.9-.1 1.2h5.1v1h-5.2c0 .5-.1.9-.2 1.2h6v1h-5.2c1.1 1.3 2.9 2 5.5 2.2-.4.4-.7.8-.9 1.3-2.9-.5-4.8-1.6-5.7-3.5h-.1c-.8 1.7-2.7 2.9-5.9 3.6-.2-.4-.6-.8-.9-1.1 2.8-.6 4.6-1.4 5.4-2.5h-4.8v-1h5.3c.1-.3.2-.7.2-1.2h-4.9v-1h5c0-.4 0-.8.1-1.2h-3.5v.5h-1.2v-3.8h4.9v-1.3h-1.8v.5h-1.2v-2.7h-2.7v-1h2.6v-1.4h1.2v1.4h4.7v-1.4zm-6.6 8.3h3.6c0-.4 0-.9 0-1.4h-3.6zm1.9-4.6h4.7v-1.3h-4.7zm6.6 3.2h-3.7v1.4h3.7z" fill="#fbfcfa"/><path d="m385.3 3.8h1.3v2.2h2.8v-2.2h1.3v2.2h4.1v9.1h1.7v1.3h-16.9v-1.3h1.7v-9.1h4.1v-2.2zm.4 13.1.7 1.2c-1.8.9-3.8 1.9-6 2.9-.2-.4-.5-.8-.8-1.3 2.3-1 4.3-1.9 6.1-2.8zm-3.1-6.4h2.8v-3.2h-2.8zm0 4.6h2.8v-3.3h-2.8zm4-4.6h2.8v-3.2h-2.8zm0 4.6h2.8v-3.3h-2.8zm3.7 1.9c2.1.9 4.1 1.8 6.1 2.7l-.7 1.3c-2.2-1.1-4.2-2-6.1-2.9zm3.2-9.7h-2.8v3.2h2.8zm-2.8 7.8h2.8v-3.3h-2.8z" fill="#fbfcfa"/></svg>