<svg enable-background="new 0 0 400 400" viewBox="0 0 400 400" xmlns="http://www.w3.org/2000/svg"><path d="m6.8 9.5c.6.3 1.3.7 2.1 1.1-.4.4-.7.8-.9 1.2-.7-.4-1.3-.8-1.8-1.1s-1.1-.6-1.6-.8c.2-.4.5-.8.7-1.2.4.2.8.5 1.5.8zm.9 6.9c-.3.6-.5 1.1-.7 1.7s-.4 1.1-.6 1.7c-.6-.4-1.1-.7-1.6-1 .7-1 1.2-1.8 1.5-2.4.3-.5.6-1.1.8-1.7.3-.6.5-1.2.8-1.8.3.3.8.6 1.3.8-.7 1.3-1.2 2.2-1.5 2.7zm.1-11c.4.3 1 .7 1.7 1.1-.5.2-.8.6-1.1 1.1-.5-.6-1-1-1.4-1.2s-.9-.6-1.5-.8c.2-.4.5-.7.9-1.1.5.3.9.6 1.4.9zm10.5 13.1c1 .4 2 .6 3.1.7-.4.4-.7.8-.8 1.3-.9-.2-1.9-.6-3-.9-1-.4-2-.9-2.8-1.6-.5.4-1.1.9-1.9 1.3s-1.9.9-3.3 1.2c-.1-.3-.5-.8-1.1-1.3 1 0 2.1-.3 3.2-.8 1.2-.5 1.9-1 2.3-1.7h-3.2c-.4 0-1 0-2 .1v-1.2c1 0 1.7.1 2 .1h3.3v-1h-2.3c-.2 0-.9 0-2 .1v-1.2c1.2 0 1.9.1 2 .1h2.3v-.8h-4.1c0-.7.1-1.2.1-1.6 0-.5 0-1.1-.1-1.8h4.1v-.7h-2.5c0-.6.1-1.1.1-1.6v-.6h-.5c-.4 0-1 0-1.8.1v-1.3c1.2 0 1.9.1 2.1.1h.2c0-.3 0-.8-.1-1.4h1.4c0 .6-.1 1-.1 1.4h3.4c0-.4 0-.8-.1-1.3h1.5c0 .4-.1.9-.1 1.3.7 0 1.5 0 2.5-.1v1.2c-1 0-1.8-.1-2.5-.1v.6c0 .3 0 .8.1 1.5h-2.5v.8h4.1c0 .7-.1 1.3-.1 1.8s0 1 .1 1.5h-4.1v.8h1.4c.8 0 1.8 0 2.9-.1v1.2c-1 0-1.9-.1-2.8-.1h-1.5v1h3.2c.3 0 1 0 2.1-.1v1.2c-1.1 0-1.8-.1-2.1-.1h-3.4l-.1.1c1.4 1 2.4 1.5 3.4 1.9zm-4.1-6.7v-1.3h-2.7v1.3zm2.2-4.1v-1.1h-3.4v1.1zm1.9 4.1v-1.3h-2.8v1.3z" fill="#fafbfa"/><path d="m37 6.7v2.3 5.4c1 0 1.8 0 2.2-.1v1.3c-.6 0-1.5-.1-2.5-.1h-11.9c-.7 0-1.3 0-1.8.1v-1.3c.5 0 1.1.1 2 .1v-5.2c0-1 0-1.8-.1-2.5h3.7c0-1.3 0-2.1-.1-2.5h1.5c0 .4-.1 1.3-.1 2.5h2.2c0-1.2 0-2.1-.1-2.6h1.5c0 .4-.1 1.3-.1 2.6zm-12.3 13.7c-.3-.4-.7-.8-1.1-1.1 1.1-.4 2.1-.9 2.9-1.3.8-.5 1.5-1 2.1-1.6.4.4.9.8 1.3 1.1-2.5 1.4-4.2 2.4-5.2 2.9zm3.9-10.1v-2.4h-2.2v2.4zm0 4.1v-2.9h-2.2v2.9zm3.5-4.1v-2.4h-2.2v2.4zm0 4.1v-2.9h-2.2v2.9zm.4 2.9 1-1.1c.6.3 1.4.7 2.5 1.3s2 1.1 2.7 1.5c-.4.4-.8.8-1.1 1.3-.8-.8-2.5-1.7-5.1-3zm3.1-7v-2.4h-2.1v2.4zm0 4.1v-2.9h-2.1v2.9z" fill="#fafbfa"/><g fill="#010103"><path d="m360.33 148.63c-13.73 8.64-28.38 15.76-43.96 20.83-24.62 8.01-49.93 13.26-75.47 17.17-5.72.87-11.89-1.36-17.87-1.97-1.92-.2-4.04-.17-5.85.42-17.01 5.56-34.05 11.03-50.9 17.03-8.35 2.98-16.94 2.68-25.47 3.46-8.58.78-17.18 1.22-25.78 1.72-1.26.07-2.85.06-3.79-.6-7.92-5.65-17.1-7.33-26.38-9.14-5.08-.99-10.08-2.9-14.81-5.06-6.12-2.79-9.73-7.37-11.44-14.47-4.06-16.82-9.32-33.35-13.94-50.04-.57-2.04-.55-4.41-.19-6.52 3.04-17.39 6.25-34.75 9.37-52.12 2.11-11.75 4.06-23.53 6.35-35.25.32-1.65 2.14-3.07 3.41-4.46.58-.63 1.49-.99 2.29-1.37 2.74-1.27 4.89-3.96 8.53-3.08 5.52 1.34 10.82 3.07 14.6 7.6 2.31 2.77 3.44 5.85 2.05 9.62-7.7 20.8-7.33 42.38-5.53 63.97 1.12 13.46 3.23 26.84 4.87 40.25.8 6.58 3.67 10.92 10.85 12.2 5.01.89 9.85 2.91 14.63 4.79 4.08 1.61 8.18 1.89 12.47 1.62 24.9-1.53 49.83-2.66 74.69-4.7 6.24-.51 12.5-3.3 18.27-6.06 4.52-2.16 8.9-3.71 13.79-3.08 13.05 1.69 25.59-1.29 38.21-3.73 17.68-3.42 35.33-6.96 53.07-10.04 3.47-.6 7.27.56 10.9 1.1 4.76.7 9.46 1.91 14.23 2.3 4.82.38 8.15 2 8.8 7.61z"/><path d="m340.43 304.43c-8.67 3.11-17.27 6.21-25.88 9.27-12.32 4.39-24.63 8.8-36.99 13.07-1.94.67-4.13.96-6.18.89-5.36-.18-10.71-.83-16.08-.92-2.84-.05-5.8.33-8.54 1.1-30.56 8.59-61.06 17.41-91.66 25.85-4.99 1.38-10.42 1.1-15.62 1.79-3.18.42-6.43.88-9.45 1.92-16.26 5.63-32.31 11.99-49.32 15.07-6.58 1.19-13.31 1.63-20 2.13-1.12.08-2.45-1.12-3.51-1.95-5.42-4.26-10.39-9.27-16.28-12.71-6.01-3.52-8.42-7.94-7.62-14.55.09-.78.24-1.55.29-2.33.4-6.23 3.7-9.7 9.89-10.53 11.07-1.47 22.1-3.6 33.21-4.35 19.37-1.31 38.39-4.8 57.47-7.98 12.25-2.04 24.45-4.43 36.75-6.04 4.78-.62 9.81.3 14.69.87 3.27.38 6.02-.03 7.87-2.93 3.8-5.95 10.2-5.35 15.88-6.22 33.72-5.16 67.45-10.31 101.22-15.12 7.94-1.13 15.86.51 23.26 3.68 4.1 1.75 6.3 5.18 6.6 9.99z"/><path d="m65.48 283.12c0-7.5-.08-14.42.1-21.34.02-.91 1.24-2.01 2.16-2.63 8.09-5.41 17.23-8.02 26.74-9.09 15.89-1.79 31.87-2.92 47.74-4.86 8.3-1.02 16.51-2.94 24.65-4.92 4.33-1.05 8.23-.91 12.39.62 2.02.74 4.63.78 6.74.23 11.03-2.88 22.06-5.79 32.94-9.2 11.41-3.58 23.11-4.96 34.94-5.92 21.63-1.76 43.24-3.78 64.88-5.53 1.63-.13 3.7.62 4.99 1.67 3.98 3.23 7.68 6.8 11.75 10.47-6.19 5.74-13.07 10-20.88 11.93-11.04 2.73-22.24 5.13-33.51 6.53-24.03 2.96-47.5 8.71-71.22 13.2-5.16.98-10.72.81-15.96.12-7.54-.99-14.03-.08-19.47 5.74-5.93 6.35-14.29 7.1-22.11 8.52-23.04 4.19-46.25 7.02-69.74 6.2-5.65-.2-11.27-1.13-17.13-1.74z"/></g></svg>