<svg enable-background="new 0 0 400 400" viewBox="0 0 400 400" xmlns="http://www.w3.org/2000/svg"><g fill="#010102"><path d="m118.36 254.58c9.86.36 11.84 8.42 15.28 14.8.69 1.27-.15 3.5-.57 5.21-2.44 9.87-5.18 19.67-7.36 29.59-.92 4.18-1.07 8.62-.9 12.92.09 2.16 1.36 4.51 2.69 6.35 3.66 5.08 6.07 5.12 10.45.91 3.06-2.94 6.3-5.71 9.48-8.52 3.34-2.95 5.3-6.67 5.71-11.04.12-1.28-.52-3.04-1.44-3.92-3.43-3.28-6.23-6.82-6.23-11.79 0-1.13.57-2.6 1.4-3.33 6.09-5.35 6.53-7.43 3.4-14.78-2.54-5.96-3.44-12.03.04-18.04.39-.67.95-1.46.88-2.15-.22-2.26.02-5.14-1.27-6.56-1.13-1.25-4.32-1.62-6.17-1.02-4.48 1.45-8.17.74-11.41-2.45-4.33-4.27-10.08-3.77-15.37-4.71-2.74-.49-5.57-.66-8.35-.66-8.73 0-14.15-5.28-18.87-11.67-.38-.51-.11-1.54-.04-2.32.03-.29.4-.53.55-.83 2.02-4.14 4.86-5.74 9.81-5.03 7.62 1.09 15.41.91 23.07 1.77 3.48.39 6.88 1.82 10.21 3.05 2.57.95 4.81.94 7.35-.3 5.43-2.64 10.96-5.27 17.29-4.39 3.2.45 6.42.92 9.54 1.74 5.46 1.44 10.85 2.29 16.53 1.1 10.68-2.23 21.4-.07 32.1.17 3.91.09 7.82.49 11.73.58 1.29.03 2.65-.29 3.87-.75 9.1-3.42 18.23-6.78 27.22-10.48 3.07-1.26 4.63.55 6.46 2.03 1.86 1.5 3.63 3.36 2.6 6.02-.79 2.03-1.81 4.12-3.25 5.72-3.29 3.65-7.01 6.92-10.35 10.54-1.82 1.97-3.83 2.79-6.44 2.88-6.06.21-11.99.96-17.52 3.82-10.54 5.44-14.35 17.24-8.7 27.71.5.92 1.46 1.63 2.29 2.33 3.26 2.72 6.95 5.05 9.76 8.17 8.99 10 19.88 16.45 33.07 19.08 2.5.5 4.92 1.39 7.34 2.1.67 5.84-1.2 9.97-6.72 12.43-11.42 5.09-22.35 3.83-33.18-1.78-10-5.18-18.46-12.11-24.94-21.35-.93-1.32-1.68-2.88-2.06-4.45-1.07-4.34-1.5-8.87-2.95-13.07-1.01-2.93-2.72-6.16-5.1-7.96-5.92-4.48-12.41-8.23-18.66-12.27-.46.14-.91.27-1.37.41-.71 3.04-1.92 6.08-1.99 9.13-.07 3.41.78 6.87 1.51 10.24.22 1.01 1.22 2.1 2.15 2.65 2.49 1.48 5.09 2.83 7.75 3.97 2.15.92 2.91 2.39 3.07 4.61.38 5.24.85 10.49 1.53 15.69.18 1.38.96 3.02 2.01 3.88 10.9 8.94 21.9 17.76 32.91 26.57 1.11.89 2.46 1.54 3.78 2.09 5.88 2.44 11.85 4.69 17.69 7.22 4.57 1.99 9.08 3.61 14.19 2.25 2.99-.79 5.2.79 6.87 3.11 2.33 3.24 1.4 6.91-2.18 8.67-3.61 1.78-7.33 3.33-10.88 5.22-5.63 2.99-11.23 2.82-17.18.91-16.64-5.35-31.42-13.82-44.49-25.42-5.73-5.08-12.2-9.05-19.79-10.92-1.68-.41-2.79-.29-3.52 1.38-2.72 6.14-7.68 9.9-13.45 12.91-13.38 6.98-23.39 18.26-34.88 27.66-4.33 3.54-8.39 7.42-12.74 10.93-1.26 1.02-3.08 1.53-4.72 1.87-8.77 1.85-14.93-1.45-18.77-9.54-1.08-2.26-2.89-4.18-4.38-6.28 4.24-3.01 8.93-3.47 13.64-3.35 5.09.13 9.1-1.13 11.52-6.1 1.74-3.58 4.61-6.02 8.41-7.69 4.23-1.86 4.39-3.1 2.88-7.41-1.68-4.78-3.44-9.38-8.72-11.54-1.46-.6-2.58-2.11-3.79-3.27-4.68-4.49-10.67-4.75-15.61-.67-6.29 5.21-12.57 10.44-18.95 15.53-.82.65-2.55 1.05-3.4.63-5-2.46-10.24-2.97-15.68-2.7-2.22.11-4.5.25-6.68-.09-4.08-.64-7.72-5.23-7.58-9.47.03-.8 1.03-1.9 1.85-2.3 8.02-3.92 15.91-8.22 24.21-11.44 11.48-4.47 21.2-11.01 29.98-19.69 7.54-7.46 13.64-15.53 17.71-25.26 1.41-3.37 3.23-6.59 4.82-9.79z"/><path d="m357 251.14c-1.36 0-1.69-.03-2.02 0-6.84.67-9.53-2.77-11.37-9.2-6.54-22.99-13.83-45.78-20.74-68.67-.6-1.98-.89-4.16-.81-6.23.69-18.45-.88-36.59-5.94-54.46-4.68-16.52-15.85-25.6-31.84-29.78-11.92-3.11-24.21-2.43-36.3-3.68-12.47-1.29-23.44 3.78-34.94 6.61-9.54 2.34-18.98 5.13-28.4 7.96-3.03.91-6 2.31-8.72 3.96-7.72 4.68-16.16 6.3-25 6.6-10.59.35-20.93-.81-31.05-4.26-6.26-2.13-8.62-6.74-9.29-12.58-.4-3.42-.76-7.12.16-10.33.73-2.55 3.42-4.54 4.8-6.24 6.28 3.8 11.7 7.54 17.53 10.49 6.94 3.51 14.47 3.79 21.93 1.73 13.03-3.59 26.01-7.4 39-11.13.74-.21 1.52-.49 2.13-.95 10.29-7.71 22.39-9.74 34.71-11.01 7.9-.82 15.8-1.74 23.72-2.18 4.16-.23 8.44.07 12.55.82 8.35 1.52 16.62 3.51 24.92 5.28 7.07 1.51 13.1 4.92 18.49 9.69 3.41 3.02 6.86 6.14 10.75 8.43 4.71 2.77 7.42 6.79 9.83 11.43 5.27 10.13 7.09 21.13 8.52 32.24.88 6.86 1.18 13.8 4.81 20.02.6 1.04.58 2.57.48 3.85-.14 1.89-.51 3.77-.96 5.62-1.62 6.64-.79 12.86.84 19.61 4.71 19.42 8.46 39.09 12.04 58.76 1.03 5.59.17 11.53.17 17.6z"/><path d="m315.52 328.79c-1.96.17-3.28-.62-3.57-3.67-.85-8.9-1.68-17.85-3.38-26.61-1.2-6.2-3.98-12.08-5.76-18.18-5.01-17.15-9.88-34.34-14.79-51.51-5.15-18.01-16.48-29.6-33.93-37.05-10.85-4.64-20.67-4.57-31.34-2.01-5.49 1.32-11.36 1.39-16.06 5.22-.46.37-1.56.43-2.12.15-12.9-6.44-26.69-5.54-40.4-4.8-5.43.29-10.7.16-15.89-1.4-11.67-3.5-23.55-3.84-35.5-2.14-10.66 1.52-20.86-.2-30.99-3.38-5.54-1.74-11.25-2.92-16.8-4.63-1.5-.46-2.89-1.79-3.97-3.03-1.23-1.41-2.07-3.17-3.08-4.78-1.69-2.69-1.6-5.65.26-7.86 1.69-2.02 4.31-2.11 7.08-1.09 7.12 2.62 14.33 5.04 21.58 7.29 9.43 2.93 19.08 1.29 28.66 1.03 10.94-.3 21.92-1.23 32.82-.68 10.8.55 21.51 2.76 32.29 3.92 3.36.36 6.92.16 10.22-.58 7.76-1.73 15.4-3.16 23.5-2.42 6.27.57 12.69-.25 19.04-.64 31.5-1.92 54.95 11.86 72.38 37.19 1.48 2.15 1.65 5.27 2.22 7.98 3.45 16.52 6.75 33.07 10.34 49.56.78 3.55 2.78 6.82 3.86 10.33.76 2.47 1.59 5.24 1.2 7.69-1.11 7.14 1.77 13.66 2.44 20.49.58 5.84.8 11.77.45 17.62-.27 4.32-5.72 8.15-10.76 7.99z"/><path d="m280.32 96.45c-.68 6.1-2.82 11.97-6.43 17.18-5.36 7.72-10.95 15.28-16.55 22.82-.88 1.19-2.23 2.16-3.56 2.86-13.2 6.85-27.67 9.26-42.06 12.01-5.25 1.01-10.34 1.23-15.56 0-7.71-1.82-15.05 1.18-22.48 2.33-4.57.71-8.74.8-13.03-1.03-13.58-5.79-28.28-6.34-42.58-8.68-5.87-.96-11.59-2-16.99-4.73-6.58-3.32-13.31-6.34-20.02-9.38-6.93-3.14-11.48-8.72-15.53-14.84-6.36-9.62-11.14-20.04-12.87-31.41-1.02-6.66-.22-13.6-.18-20.41.02-3.13-.1-6.3.31-9.39.9-6.87-2.1-11.8-7.08-16.07-2.26-1.94-4.33-4.21-6.02-6.66-.81-1.18-1.13-3.41-.54-4.6.39-.8 2.84-.99 4.27-.79 7.08 1.03 14.16 2.12 21.15 3.58 1.34.28 2.81 2.08 3.4 3.52 3.29 8.01 3.49 16.54 4.03 25.03.54 8.57 1 17.19 2.31 25.67 1.77 11.48 7.67 20.47 17.79 26.71 12.16 7.5 24.52 14.47 38.91 16.42 4.58.62 9.36-.47 14.02-.25s9.28 1.08 13.92 1.69c.31.04.71.21.88.45 2.99 4.23 7.38 3.34 11.55 3.17 11.06-.47 22.18-.42 33.16-1.63 12.91-1.42 25.33-5.18 37.17-10.64.3-.14.61-.31.93-.38 9.94-2.03 14.91-9.3 19.06-17.66 1.82-3.66 3.98-7.35 6.81-10.23 2.01-2.05 5.38-2.75 8.14-4.06 1.19 2.82 2.38 5.64 3.56 8.46.08.21.06.46.11.94z"/></g><path d="m377.9 391.2c-.2.3-.4.5-.6.8-.7-.6-1.4-1-2.2-1.5.2-.3.4-.5.5-.8.6.4 1.4.8 2.3 1.5zm-1.8 6.1c-.2-.2-.5-.4-.9-.6.4-.6.8-1.2 1.2-1.9s.7-1.3.9-1.9c.3.3.5.5.8.7-.7 1.3-1.4 2.6-2 3.7zm2.2-9c-.3.3-.5.5-.6.8-.6-.6-1.3-1.1-2-1.5.3-.3.5-.5.6-.7.6.5 1.3.9 2 1.4zm.3.2v-.9h2 4.5c-.3 1.3-.6 2.5-1 3.6s-.9 2.1-1.4 3c.4.5 1 1 1.6 1.4s1.2.8 1.9 1.1c-.3.2-.5.4-.8.8-.4-.3-1-.7-1.6-1.2s-1.2-1.1-1.6-1.6c-.5.6-1.1 1.1-1.7 1.6s-1.4.9-2.1 1.4c-.1-.3-.3-.5-.7-.8.6-.2 1.2-.5 1.9-1s1.4-1.1 2-1.8c-.5-.8-.9-1.6-1.2-2.5s-.6-2-.8-3.2c-.4.1-.7.1-1 .1zm2.5 2.7c.3 1 .7 1.7 1 2.2.3-.5.6-1.1 1-2s.6-1.9.9-3h-3.2-.4c.1.9.3 1.8.7 2.8z" fill="#fcfbfa"/><path d="m396.5 388.5v1.5 3.6h1.5v.9c-.4 0-1 0-1.7 0h-7.9c-.5 0-.9 0-1.2 0v-.9h1.3v-3.5c0-.7 0-1.2 0-1.6h2.4c0-.8 0-1.4 0-1.7h1c0 .3-.1.8-.1 1.7h1.5c0-.8 0-1.4 0-1.7h1c0 .3-.1.9-.1 1.7zm-8.2 9.2c-.2-.3-.5-.5-.8-.8.8-.3 1.4-.6 1.9-.9s1-.7 1.4-1.1c.3.3.6.5.9.8-1.6 1-2.8 1.6-3.4 2zm2.6-6.8v-1.6h-1.5v1.6zm0 2.7v-1.9h-1.5v1.9zm2.4-2.7v-1.6h-1.5v1.6zm0 2.7v-1.9h-1.5v1.9zm.2 2 .7-.8c.4.2.9.5 1.6.8s1.3.7 1.8 1c-.3.3-.5.5-.8.8-.4-.3-1.5-1-3.3-1.8zm2-4.7v-1.6h-1.4v1.6zm0 2.7v-1.9h-1.4v1.9z" fill="#fcfbfa"/></svg>