<svg enable-background="new 0 0 400 400" viewBox="0 0 400 400" xmlns="http://www.w3.org/2000/svg"><path d="m6.8 9.5c.6.3 1.3.7 2.1 1.1-.4.4-.7.8-.9 1.2-.7-.4-1.3-.8-1.8-1.1s-1.1-.6-1.6-.8c.2-.4.5-.8.7-1.2.4.2.8.5 1.5.8zm.9 6.9c-.3.6-.5 1.1-.7 1.7s-.4 1.1-.6 1.7c-.6-.4-1.1-.7-1.6-1 .7-1 1.2-1.8 1.5-2.4.3-.5.6-1.1.8-1.7.3-.6.5-1.2.8-1.8.3.3.8.6 1.3.8-.7 1.3-1.2 2.2-1.5 2.7zm.1-11c.4.3 1 .7 1.7 1.1-.5.2-.8.6-1.1 1.1-.5-.6-1-1-1.4-1.2s-.9-.6-1.5-.8c.2-.4.5-.7.9-1.1.5.3.9.6 1.4.9zm10.5 13.1c1 .4 2 .6 3.1.7-.4.4-.7.8-.8 1.3-.9-.2-1.9-.6-3-.9-1-.4-2-.9-2.8-1.6-.5.4-1.1.9-1.9 1.3s-1.9.9-3.3 1.2c-.1-.3-.5-.8-1.1-1.3 1 0 2.1-.3 3.2-.8 1.2-.5 1.9-1 2.3-1.7h-3.2c-.4 0-1 0-2 .1v-1.2c1 0 1.7.1 2 .1h3.3v-1h-2.3c-.2 0-.9 0-2 .1v-1.2c1.2 0 1.9.1 2 .1h2.3v-.8h-4.1c0-.7.1-1.2.1-1.6 0-.5 0-1.1-.1-1.8h4.1v-.7h-2.5c0-.6.1-1.1.1-1.6v-.6h-.5c-.4 0-1 0-1.8.1v-1.3c1.2 0 1.9.1 2.1.1h.2c0-.3 0-.8-.1-1.4h1.4c0 .6-.1 1-.1 1.4h3.4c0-.4 0-.8-.1-1.3h1.5c0 .4-.1.9-.1 1.3.7 0 1.5 0 2.5-.1v1.2c-1 0-1.8-.1-2.5-.1v.6c0 .3 0 .8.1 1.5h-2.5v.8h4.1c0 .7-.1 1.3-.1 1.8s0 1 .1 1.5h-4.1v.8h1.4c.8 0 1.8 0 2.9-.1v1.2c-1 0-1.9-.1-2.8-.1h-1.5v1h3.2c.3 0 1 0 2.1-.1v1.2c-1.1 0-1.8-.1-2.1-.1h-3.4l-.1.1c1.4 1 2.4 1.5 3.4 1.9zm-4.1-6.7v-1.3h-2.7v1.3zm2.2-4.1v-1.1h-3.4v1.1zm1.9 4.1v-1.3h-2.8v1.3z" fill="#fafbfa"/><path d="m37 6.7v2.3 5.4c1 0 1.8 0 2.2-.1v1.3c-.6 0-1.5-.1-2.5-.1h-11.9c-.7 0-1.3 0-1.8.1v-1.3c.5 0 1.1.1 2 .1v-5.2c0-1 0-1.8-.1-2.5h3.7c0-1.3 0-2.1-.1-2.5h1.5c0 .4-.1 1.3-.1 2.5h2.2c0-1.2 0-2.1-.1-2.6h1.5c0 .4-.1 1.3-.1 2.6zm-12.3 13.7c-.3-.4-.7-.8-1.1-1.1 1.1-.4 2.1-.9 2.9-1.3.8-.5 1.5-1 2.1-1.6.4.4.9.8 1.3 1.1-2.5 1.4-4.2 2.4-5.2 2.9zm3.9-10.1v-2.4h-2.2v2.4zm0 4.1v-2.9h-2.2v2.9zm3.5-4.1v-2.4h-2.2v2.4zm0 4.1v-2.9h-2.2v2.9zm.4 2.9 1-1.1c.6.3 1.4.7 2.5 1.3s2 1.1 2.7 1.5c-.4.4-.8.8-1.1 1.3-.8-.8-2.5-1.7-5.1-3zm3.1-7v-2.4h-2.1v2.4zm0 4.1v-2.9h-2.1v2.9z" fill="#fafbfa"/><g fill="#010103"><path d="m282.73 368.19c-3.03 2.13-5.81 4.4-8.88 6.15-4.31 2.46-7.11 1.67-9.89-2.45-7.11-10.56-14.66-20.89-18.64-33.21-3.04-9.4-4.74-18.82-4.19-28.94.49-9.03-.95-18.28-2.4-27.29-1.75-10.9-3.84-21.81-6.9-32.39-1.73-5.97-5.44-11.45-8.73-16.87-4.76-7.83-12.51-10.49-21.18-10.68-8.6-.19-17.22.14-25.83 0-2.76-.04-5.55-.68-8.25-1.35-11.16-2.74-22.27-2.78-33.57-.61-5.08.98-10.45.62-15.69.57-1.7-.02-3.47-.8-5.07-1.52-2.05-.92-3.29-2.39-3.05-4.98.26-2.77.38-5.64-.02-8.38-.53-3.64 1.08-5.48 4.28-6.21 4.22-.96 8.47-2.27 12.74-2.41 7.73-.26 15.43-.17 22.87-2.68.72-.24 1.55-.31 2.31-.27 11.05.59 22.11 1.17 33.15 1.88 1.85.12 3.82.52 5.45 1.35 6.08 3.11 12.47 4.74 19.28 4.96 3.13.1 6.24.6 9.36.72 12.34.48 20.32 7.83 26.79 17.25 1.35 1.97 1.63 4.82 1.98 7.32 2.8 19.93 5.56 39.87 8.09 59.83.23 1.79-1 4.02-2.13 5.64-1.37 1.96-1.52 3.66-.86 5.87 4.53 15.08 8.89 30.22 13.45 45.29.73 2.4 1.95 4.75 3.38 6.81 3.86 5.52 7.93 10.85 12.15 16.6z"/><path d="m175.69 86.09c26.34-.01 48.94-3.73 71.54-7.6 5.93-1.02 11.95-1.71 17.95-2.04 5.09-.27 6.79 1.22 7.66 5.18 1.07 4.94-.21 7.54-4.55 9.74-6.5 3.29-13.64 3.13-20.6 4-18.74 2.34-37.46 4.86-56.21 7.1-2.99.36-6.1-.4-9.16-.56-1.62-.09-3.31-.28-4.87.06-6.52 1.41-12.76 3.95-19.66 3.75-9.92-.28-18.64-4.25-27.48-8.01-.72-.31-1.39-.77-2.13-.97-6.88-1.84-9.82-6.94-11.48-13.35-4.39-16.98-5.38-34.18-3.58-51.58.28-2.68 4.87-6.38 7.56-6.29 6.79.24 11.48 5.37 10.95 12.19-.45 5.68-1.3 11.33-1.67 17.02-.9 14.03 8.51 26.27 22.37 28.58 8.8 1.48 17.74 2.14 23.36 2.78z"/><path d="m249.66 135.13c-10.66 9.83-22.93 16.05-37.33 17.42-16.47 1.57-32.99 2.63-49.46 4.18-5.09.48-10.07 2.23-15.16 2.7-4.84.45-9.8.34-14.64-.18-4.79-.52-8.19-7.26-6.26-11.71.35-.8 1.31-1.44 2.12-1.93 6.01-3.66 12.7-4.44 19.57-5.06 16.35-1.47 32.68-3.22 48.99-5.1 12.66-1.46 25.25-3.59 37.92-4.82 4.55-.44 9.7-.81 13.44 3.26.28.31.47.71.81 1.24z"/></g></svg>