<svg enable-background="new 0 0 400 400" viewBox="0 0 400 400" xmlns="http://www.w3.org/2000/svg"><path d="m140.53 304.67c-4.79-1.5-9.37-1.02-13.72.5-7.68 2.68-15.3 2.74-23.08.61-2.47-.68-5.03-1.03-7.57-1.44-2.76-.45-4.77-1.7-5.57-4.78 7.91-2.84 15.79-5.57 23.61-8.5 14.13-5.29 28.14-10.92 42.35-15.96 6.81-2.42 13.94-3.97 21-5.62 5.03-1.17 6.49-2.99 5.36-7.97-1.96-8.63-5.2-11.09-14.45-8.8-2.35.58-4.63 1.6-6.79 2.72-4.25 2.2-8.64 2.11-13.05.96-3.34-.87-6.61-2.04-9.88-3.19-6.45-2.27-10.46-7.14-13.26-13.05-7.45-15.71-13.97-31.73-14.83-49.42-.11-2.34-.93-3.74-3.19-4.41-1.38-.41-2.65-1.26-4.04-1.63-13.38-3.56-18.62-14.47-22.04-26-4.55-15.32-2.33-30.33 5.51-44.38 5.99-10.74 12.26-21.34 17.92-32.25 3.38-6.5 5.96-13.43 8.62-20.27.92-2.36 2.14-3.62 4.61-3.34 2.31.26 4.69.46 6.87 1.17 2.85.93 5.55 2.35 8.32 3.56 6.68 2.91 8.67 6.74 7.39 14.11-.42 2.41-.88 4.84-1.02 7.28-.12 2.16.91 3.36 3.37 3.63 12.01 1.32 23.96 3.07 35.16 7.97 2.83 1.24 5.68 2.59 8.23 4.32 4.53 3.07 8.78 6.58 13.31 9.66 1.05.72 3.01 1.04 4.11.55 2.66-1.17 6.39-.84 7.28-4.92.99-4.53-2.13-12.34-6.29-14.38-2.28-1.12-4.78-2.42-7.21-2.51-8.65-.3-13.36-5.82-17.86-12.43 4.47-1.53 8.78-2.89 13-4.49 5.79-2.19 6.01-2.73 4.75-8.65-.26-1.2-.61-2.39-.79-3.6-1.15-7.9-4.29-14.49-10.89-19.54-2.99-2.29-5.04-5.89-7.18-9.13-.53-.81-.13-2.89.6-3.68.86-.93 2.81-1.83 3.84-1.47 11.84 4.12 22.57 10.26 31.93 18.64 1.01.9 1.38 2.74 1.62 4.22.5 3.09.83 6.21 1.03 9.34.15 2.37 1.46 3.7 3.56 3.54 2.96-.22 6.05-.56 8.77-1.65 9.87-3.97 19.71-8.01 30.38-9.15 4.75-.51 9.65-1 14.34-.39 9.74 1.28 17.45 11.93 16.56 21.69-.39 4.28-1.67 7.8-4.38 11.43-3.6 4.82-5.88 10.66-8.39 16.21-.48 1.07.14 3.17.98 4.21 4.16 5.11 6.01 10.88 5.81 17.41-.39 12.63-.39 25.29-1.22 37.9-.61 9.24 1.94 17.96 2.95 26.93 1.41 12.55 3.88 25.04 2.3 37.75-.45 3.64-1.37 7.24-2.35 10.78-.24.87-1.54 1.93-2.43 2.01-.93.08-2.38-.67-2.88-1.49-4.31-7.12-8.07-14.43-7.13-23.22.25-2.31-.36-4.7-.24-7.03.18-3.63-1.06-6.02-5.17-6.57 0 0-.41.07-.56.31-3.76 5.75-9.42 7.89-15.89 9.3-9.93 2.16-19.69 5.11-29.57 7.52-1.55.38-3.55.1-5.02-.57-5.76-2.66-11.39-5.59-17.78-8.78-4.25 9.49-8.38 18.71-12.65 28.25 4.47 2.32 8.74 4.74 13.18 6.78 6.38 2.92 12.14 6.7 17.07 11.66 1.77 1.78 3.66 2.49 6.02 1.88 4.53-1.18 9.33-1.81 13.49-3.79 12.95-6.15 26.7-7.91 40.75-8.48 3.02-.12 6.05-.12 9.04-.49 8.16-1.01 15.66 2.02 23.36 3.7 3.83.84 5.79 5.02 4.9 9.1-.61 2.8-4.5 4.9-8.11 4.1-6.23-1.38-12.23.24-18.27 1.2-5.41.87-10.79 1.92-16.14 3.07-2.49.54-4.89 1.49-7.33 2.26-.09.34-.18.68-.26 1.03 5.95 2.35 11.82 4.98 17.89 6.97 5.83 1.92 11.92 3.02 17.8 4.79 6.02 1.81 11.59 4.37 13.44 11.27 1.59 5.93.17 8.74-5.51 10.76-6.01 2.14-11.75 1.62-17.55-1.12-8.07-3.81-16.52-6.84-24.41-10.98-5.99-3.15-12.01-6.82-16.81-11.5-6.55-6.38-13.22-7.04-21.08-3.77-2.99 1.24-6.1 2.18-9.1 3.42-3.04 1.26-3.39 3.69-.88 5.86 11.08 9.61 22.18 19.19 33.29 28.76.67.58 1.43 1.09 2.21 1.51 12.9 6.94 25.77 13.92 38.73 20.74 4.45 2.34 7.94 5.24 9.23 10.38.62 2.46-.19 3.87-2.47 3.95-2.71.09-5.86.38-8.07-.81-8.36-4.5-17.26-6.56-26.57-7.43-.65-.06-1.32-.28-1.91-.57-12.61-6.11-24.94-12.54-34.83-22.92-7.45-7.82-14.64-11.77-22.37-13.5-2.33 5.44-4.78 10.91-7.04 16.47-9.12 22.41-25.21 38.52-45.83 50.41-4 2.31-8.56 3.65-12.81 5.43-2.59-7.4 1.35-11.79 5.76-15.97 2.11-2 4.25-3.99 6.52-5.81 14.39-11.5 23.32-26.62 29.01-43.84 2.34-7.07 4.32-14.26 6.65-22.05-6.46.88-12.44.68-17.56 2.68-4.82 1.89-8.76 6.06-12.96 9.38-.43.34-.27 1.84.05 2.62 1.52 3.6 3.31 7.1 4.73 10.73.39 1.01.28 2.66-.32 3.54-6.08 8.99-12.29 17.89-18.54 26.76-.67.95-1.75 1.7-2.78 2.3-2.51 1.46-5.05 2.9-7.68 4.12-6.66 3.11-12.45 7.28-17.64 12.53-2.25 2.28-5.63 3.43-8.47 5.14-2.64 1.58-5.29 3.14-7.85 4.85-1.1.73-1.85 2.01-2.98 2.67-2.18 1.28-4.66 2.12-6.85.26-1.32-1.12-.64-6.29.72-7.79 14.18-15.55 28.38-31.08 42.57-46.62 3.95-4.39 7.68-8.86 7.5-15.46zm74.34-108.24c18.78-.66 35.59-3.41 52.15-8.02 2.85-.79 3.99-2.38 3.96-4.91-.03-1.96-.37-4.04-1.1-5.85-1.4-3.42-4.08-4.3-7.57-3.1-7.28 2.5-14.45 5.45-21.9 7.28-16.73 4.09-32.18 2.18-44.84-11.05-2.29-2.39-1.98-4.23.09-5.79 1.33-1.01 3.42-1.38 5.18-1.38 4.99 0 10 .71 14.96.43 7.14-.4 14.24-1.37 21.35-2.18 9.23-1.05 18.43-2.25 26.88-6.54 3.97-2.02 5.42-9.98 2.26-13.13-.85-.85-2.32-1.46-3.53-1.5-3.34-.11-6.69.21-10.04.23-4.11.03-8.32.48-12.3-.24-6.93-1.27-10.55-6.95-14.48-12.15-1.31-1.73-3.31-3.13-5.28-4.09-1.64-.79-3.69-.77-5.57-1-3.91-.47-5.74.64-6.99 4.41-.48 1.46-.34 3.11-.77 4.6-.85 2.94-1.43 6.1-2.95 8.68-3.29 5.58-7.26 10.75-10.61 16.29-1.19 1.96-2.26 4.68-1.87 6.78 1.77 9.52 4 18.96 6.32 28.37.27 1.08 2.03 2.35 3.25 2.53 4.94.7 9.97 1.01 13.4 1.33zm-118.71-63.39c-.84 5.15-2.74 9.28-1.82 12.63 2.48 9.04 6.47 17.17 17.02 20 11.34 3.04 22.38 2.14 33.43-.83 10.9-2.93 21.02-6.89 28.49-16.34 3.51-4.45 5.41-8.57 4.8-15.07-27.06 12.01-54 13.38-81.92-.39zm82.1-18.37c.01-.39.01-.78.02-1.17-4.09-2.64-7.85-6.45-12.33-7.69-13.97-3.87-28.22-6.74-42.34-10.1-1.91-.45-3.11-.04-4.35 1.41-3.2 3.73-6.78 7.16-9.75 11.07-2.41 3.17-4.44 6.71-6.11 10.33-1.68 3.64-.94 4.7 2.85 5.65 1.51.38 3.05.71 4.59.94 18.25 2.67 36.1.41 53.62-4.8 4.75-1.4 9.21-3.73 13.8-5.64zm52.15-15.82c18.13-5.93 33.74-14.68 42.82-32.21.97-1.88-.21-3.97-2.71-4.03-3.31-.07-6.72 0-9.93.74-12.01 2.76-22.68 8.63-33.08 14.98-1.15.7-2.13 2.53-2.24 3.91-.5 5.93 1.99 11.07 5.14 16.61zm-99.54 118.12c1.43 2.46 2.51 4.4 3.67 6.3 1.34 2.18 2.25 5.2 4.22 6.28 5.28 2.9 11.47 4.87 16.87 1.13 6.85-4.75 13.1-10.42 19.24-16.09 1.22-1.13 1.47-4.27.92-6.11-.77-2.59-3.34-1.8-5.44-1.27-4.33 1.1-8.67 2.13-13 3.2-8.65 2.13-17.28 4.28-26.48 6.56zm.65-29.48c2.24 8.78 2.65 9.25 10.55 9.05 11.95-.3 23.04-3.78 33.41-9.65 1.16-.66 2.26-1.46 3.28-2.32 1.76-1.49 1.94-5.25.26-7.67-1.52-2.19-3.14-3.82-6.34-2.25-5.91 2.89-12.08 5.24-18.01 8.08-4.24 2.04-8.6 2.73-13.26 2.87-3.22.1-6.41 1.19-9.89 1.89zm128.32-81.36c-6.48 3.83-12.77 7.56-19.59 11.59 5.96 5.09 12.15 8.26 19.38 9.3.74.11 1.55-.13 2.32-.27 2.06-.37 3.05-1.29 2.59-3.67-.47-2.39-.52-4.89-.57-7.34-.07-3.65-1.33-6.73-4.13-9.61z" fill="#010104"/><g fill="#fcfbfa"><path d="m385.2 377.6.6-.7c.6.4 1.3.9 1.9 1.5l-.6.7c-.8-.5-1.4-1-1.9-1.5zm.3 7.1c.6-1.4 1.1-2.9 1.5-4.5.3.1.6.3.9.4-.5 1.4-1 2.9-1.5 4.4zm.2-10.1.6-.6c.7.5 1.3 1.1 1.9 1.6l-.7.7c-.6-.6-1.2-1.2-1.8-1.7zm8.4-.8h.8v.9h1.8v.7h-1.8v1.8h-.8v-.3h-1.2v.9h3.3v2.6h-.8v-.4h-2.5c0 .3 0 .6-.1.8h3.4v.7h-3.5c0 .3-.1.6-.1.8h4v.7h-3.5c.7.9 1.9 1.3 3.6 1.5-.2.2-.4.5-.6.9-1.9-.3-3.2-1.1-3.8-2.3-.5 1.1-1.8 2-3.9 2.4-.2-.3-.4-.5-.6-.8 1.9-.4 3.1-.9 3.6-1.7h-3.2v-.7h3.5c.1-.2.1-.5.2-.8h-3.3v-.7h3.4c0-.2 0-.5 0-.8h-2.4v.3h-.8v-2.6h3.3v-.9h-1.2v.3h-.8v-1.8h-1.8v-.7h1.8v-.9h.8v.9h3.2zm-4.4 5.5h2.4c0-.3 0-.6 0-.9h-2.4zm1.2-3.1h3.2v-.8h-3.2zm4.4 2.2h-2.4v.9h2.5v-.9z"/><path d="m389.2 385.8h.9v1.5h1.9v-1.5h.9v1.5h2.7v6h1.1v.9h-11.3v-.9h1.1v-6h2.7zm.2 8.7.5.8c-1.2.6-2.5 1.3-4 1.9-.2-.3-.3-.6-.6-.8 1.6-.6 3-1.3 4.1-1.9zm-2-4.3h1.9v-2.1h-1.9zm0 3.1h1.9v-2.2h-1.9zm2.7-3.1h1.9v-2.1h-1.9zm0 3.1h1.9v-2.2h-1.9zm2.4 1.3c1.4.6 2.7 1.2 4.1 1.8l-.5.9c-1.5-.7-2.8-1.4-4.1-1.9zm2.2-6.5h-1.9v2.1h1.9zm-1.9 5.2h1.9v-2.2h-1.9z"/></g></svg>