<svg viewBox="0 0 400 400" xmlns="http://www.w3.org/2000/svg"><rect width="400" height="400" fill="white" /><path d="m247.43 316.01c-14.67 5.07-28.95 10.28-43.41 14.9-11.37 3.63-22.98 6.53-34.48 9.76-.86.24-1.85.29-2.56.76-10.84 7.15-23.28 9.06-35.72 10.39-10.43 1.11-20.97 1.22-31.47 1.61-6.02.22-10.81-3.39-15.77-6.02-1.72-.91-2.39-3.82-3.66-6.02 7.11-3.73 14.39-5.18 21.9-5.47 8.83-.34 17.67-.54 26.5-.46 12.72.12 24.68-3.8 36.88-6.48 4.47-.99 8.98-1.92 13.36-3.21 5.22-1.54 10.35-3.4 15.49-5.22 6.19-2.18 12.41-4.29 18.49-6.75 7.02-2.85 13.98-5.88 20.81-9.18 2.45-1.19 4.56-3.23 6.58-5.14 3.74-3.52 5.44-7.39 4.58-13.06-5.37-35.37-9.97-70.86-17.46-105.88-1.08-5.07-5.87-7.26-9.82-3.82-9.57 8.37-21.29 11.39-33.11 14.52-7.64 2.02-15.14 4.63-22.64 7.14-5.51 1.84-11.01 3.75-16.37 5.99-5.59 2.33-11.16 3.74-17.22 2.28-.9-.22-1.98.08-2.92.35-2.26.64-4.62 1.11-6.69 2.15-9.53 4.81-19.4 2.89-29.24 1.68-.79-.1-1.86-.9-2.14-1.64-1-2.58-1.71-5.26-2.66-8.3 6.34-1.81 12.41-3.61 18.52-5.27 12.51-3.4 25.03-6.74 37.56-10.07 16.11-4.28 31.14-11.03 45.37-19.67 8.3-5.04 16.71-9.91 25.31-15-7.5-6.61-15.79-11.65-24.31-16.33-6.76-3.71-13.68-7.15-20.27-11.13-6.16-3.72-11.4-8.59-15.72-14.91 7.01-4.04 13.89-7.14 22.03-4.61 3.09.96 6.2 1.89 9.31 2.8 4.73 1.39 8.89 3.63 13.01 6.5 10.89 7.58 23.06 12.7 35.8 16.42 3.22.94 5.4.06 7.42-2.66 5.33-7.17 8.16-15.14 8.07-24.03-.11-10.01-1.58-19.83-5.18-29.24-.42-1.11-1.03-2.27-1.87-3.07-8.72-8.39-18.24-15.37-30.29-18.46-5.71-1.47-11.15-3.96-16.75-5.89-7.69-2.65-15.4-5.28-23.14-7.78-4.08-1.32-7.79-2.84-8.43-7.42 11.95-7.44 24.61-6.69 37.45-4 18.45 3.86 35.96 10.11 51.41 21.13 12.88 9.19 21.75 21.58 24.52 37.14 1.2 6.74-.28 14.3-1.94 21.15-2.89 11.93-6.84 23.6-10.44 35.35-.33 1.07-1.2 2.12-2.09 2.86-3.79 3.14-7.65 6.21-11.55 9.2-1.35 1.03-1.93 1.98-1.02 3.63 5.88 10.66 6.24 22.43 6.78 34.16.24 5.25.26 10.55.96 15.74.57 4.27 1.23 8.83 3.23 12.52 2.8 5.16 2.24 9.55-.39 14.23-.49.87-.97 1.74-1.73 3.08 1.18.99 2.49 1.9 3.55 3.03 3.6 3.83 5.39 8.32 5.28 13.69-.16 8.34 1.01 13.12 4.28 19.4 6.15-6.24 10.9-13.28 14.45-21.13 5.4-11.94 7.32-24.82 10.07-37.48 2.37-10.88 3.14-21.89 3.29-32.99.06-4.3 1.67-6.56 4.79-7.02 2.58-.39 4.48.09 6.01 2.82 6.97 12.39 7.65 25.52 5.16 39.07-1.29 7.02-2.84 13.99-4.27 20.99-1.37.18-2.33.31-3.33.44-.11.39-.27.7-.28 1.01-.19 9.81-3.17 18.63-9.18 26.42-.87 1.13-1.51 2.5-2.03 3.84-2.95 7.6-8.12 13.17-14.93 17.58-2.81 1.82-5.37 4.47-7.16 7.3-1.24 1.96-1.62 4.98-1.24 7.34 2.09 12.68 4.68 25.28 6.76 37.97.49 2.99.13 6.29-.57 9.27-1.14 4.86-.49 9.53.31 14.27.24 1.43.35 2.89.45 4.34.43 6.71-3.11 9.48-9.57 7.43-.74-.24-1.44-.99-1.91-1.67-5.39-7.72-9.1-16.14-10.54-25.49-.14-.88-.15-1.86-.58-2.59-4.81-8.26-5.66-17.55-7.04-26.71-.07-.64-.32-1.26-.65-2.38z" fill="#010100"/><g fill="#fcfbfa"><path d="m377.9 391.2c-.2.3-.4.5-.6.8-.7-.6-1.4-1-2.2-1.5.2-.3.4-.5.5-.8.6.4 1.4.8 2.3 1.5zm-1.8 6.1c-.2-.2-.5-.4-.9-.6.4-.6.8-1.2 1.2-1.9s.7-1.3.9-1.9c.3.3.5.5.8.7-.7 1.3-1.4 2.6-2 3.7zm2.2-9c-.3.3-.5.5-.6.8-.6-.6-1.3-1.1-2-1.5.3-.3.5-.5.6-.7.6.5 1.3.9 2 1.4zm.3.2v-.9h2 4.5c-.3 1.3-.6 2.5-1 3.6s-.9 2.1-1.4 3c.4.5 1 1 1.6 1.4s1.2.8 1.9 1.1c-.3.2-.5.4-.8.8-.4-.3-1-.7-1.6-1.2s-1.2-1.1-1.6-1.6c-.5.6-1.1 1.1-1.7 1.6s-1.4.9-2.1 1.4c-.1-.3-.3-.5-.7-.8.6-.2 1.2-.5 1.9-1s1.4-1.1 2-1.8c-.5-.8-.9-1.6-1.2-2.5s-.6-2-.8-3.2c-.4.1-.7.1-1 .1zm2.5 2.7c.3 1 .7 1.7 1 2.2.3-.5.6-1.1 1-2s.6-1.9.9-3h-3.2-.4c.1.9.3 1.8.7 2.8z"/><path d="m396.5 388.5v1.5 3.6h1.5v.9c-.4 0-1 0-1.7 0h-7.9c-.5 0-.9 0-1.2 0v-.9h1.3v-3.5c0-.7 0-1.2 0-1.6h2.4c0-.8 0-1.4 0-1.7h1c0 .3-.1.8-.1 1.7h1.5c0-.8 0-1.4 0-1.7h1c0 .3-.1.9-.1 1.7zm-8.2 9.2c-.2-.3-.5-.5-.8-.8.8-.3 1.4-.6 1.9-.9s1-.7 1.4-1.1c.3.3.6.5.9.8-1.6 1-2.8 1.6-3.4 2zm2.6-6.8v-1.6h-1.5v1.6zm0 2.7v-1.9h-1.5v1.9zm2.4-2.7v-1.6h-1.5v1.6zm0 2.7v-1.9h-1.5v1.9zm.2 2 .7-.8c.4.2.9.5 1.6.8s1.3.7 1.8 1c-.3.3-.5.5-.8.8-.4-.3-1.5-1-3.3-1.8zm2-4.7v-1.6h-1.4v1.6zm0 2.7v-1.9h-1.4v1.9z"/></g></svg>