<svg viewBox="0 0 400 400" xmlns="http://www.w3.org/2000/svg"><rect width="400" height="400" fill="white" /><path d="m223.41 186.92c-4.24.82-8.35 1.26-12.23 2.44-10.15 3.09-20.2 6.5-30.29 9.77-.85.27-1.73.48-2.61.61-3.8.57-7 1.77-9.83 4.87-2.2 2.42-5.64 4.06-8.84 5.15-12.57 4.3-25.08 8.92-37.94 12.15-16.92 4.24-34.2 7.02-51.73 7.16-4.25.03-8.57-1.08-12.76-2.09-3.46-.83-6.7-2.61-10.17-3.38-6.2-1.38-10.34-5.38-14.5-10.44 6.1-.72 11.88-1.52 17.69-2.07 35.09-3.32 69.09-11.22 101.38-25.39 12.13-5.32 23.48-12.45 35.06-18.97 10.43-5.86 20.67-12.05 31.06-18 1.7-.97 2.31-1.85 1.83-3.93-1.69-7.29-3.23-14.63-4.55-22-.39-2.19-1.53-2.99-3.35-3.56-5.03-1.58-10.01-1.18-14.81.66-7.72 2.96-15.45 5.94-22.95 9.42-4.52 2.1-8.4 5.58-12.9 7.71-11.79 5.58-24.63 7.17-37.39 8.75-6.21.77-12.49.86-18.72 1.48-3.83.38-7.23-.52-10.66-2.09-8.14-3.71-16.36-7.21-24.55-10.8-4.33-1.9-4.33-1.9-4.7-7.68 5.13 0 10.25.23 15.34-.04 24.47-1.31 47.72-7.97 70.74-15.93 12.12-4.19 24.51-7.7 36.94-10.93 14.97-3.89 29.48-.67 43.82 3.94 4.43 1.42 7.77 4.04 11 7.23 5.76 5.68 9.62 5.28 14.06-1.41 7.1-10.71 14.4-21.32 20.76-32.47 2.73-4.79 3.35-10.8 4.85-16.27.69-2.52-.51-3.92-2.89-4.76-4.24-1.5-8.21-.71-11.95 1.33-5.79 3.16-11.31 6.85-17.24 9.71-18.71 9-37.35 9-55.41-1.76-5.99-3.57-9.87-9.28-12.83-16.16 2.01-.36 3.79-.86 5.6-.96 18.01-1.04 34.01-8.94 50.6-14.82 2.42-.86 4.94-1.56 7.2-2.74 12.18-6.37 25.03-5.88 37.95-3.59 7.02 1.24 14.09 2.73 20.81 5.06 12.55 4.35 18.42 14.6 16.99 27.86-.32 2.96-1.13 5.49-2.99 7.93-1.8 2.36-2.93 5.24-4.33 7.9-1.82 3.45-3.42 7.03-5.47 10.33-4.37 7.02-9.48 13.62-13.33 20.89-4.62 8.72-10.8 16.13-17.12 23.52-4.22 4.93-8.43 9.88-12.6 14.85-.7.84-1.51 1.78-1.72 2.79-1.91 9.19-4.2 18.34-5.41 27.62-1.58 12.13.63 24.1 3.45 35.88 4.57 19.13 8.91 38.37 17.56 56.19 2.65 5.47 6.1 10.63 9.7 15.55 11.95 16.35 23.75 32.84 36.43 48.62 5.02 6.24 12.3 10.63 18.4 16.04 4.41 3.9 9.04 7.71 12.67 12.28 2.3 2.9 3.04 7.08 4.23 10.77.23.72-.42 2.17-1.11 2.68-3.15 2.32-6.65 3.2-10.41 1.53-2.14-.96-4.34-1.87-6.28-3.17-27.01-18.04-52.15-38.26-72.75-63.62-7.38-9.08-12.7-19.41-17.22-30.2-6.74-16.08-14.15-31.89-20.47-48.12-2.72-6.98-3.47-14.74-4.99-22.18-1.44-6.74-2.67-13.55-4.12-21.14z" fill="#010105"/><g fill="#fcfbfa"><path d="m377.9 391.2c-.2.3-.4.5-.6.8-.7-.6-1.4-1-2.2-1.5.2-.3.4-.5.5-.8.6.4 1.4.8 2.3 1.5zm-1.8 6.1c-.2-.2-.5-.4-.9-.6.4-.6.8-1.2 1.2-1.9s.7-1.3.9-1.9c.3.3.5.5.8.7-.7 1.3-1.4 2.6-2 3.7zm2.2-9c-.3.3-.5.5-.6.8-.6-.6-1.3-1.1-2-1.5.3-.3.5-.5.6-.7.6.5 1.3.9 2 1.4zm.3.2v-.9h2 4.5c-.3 1.3-.6 2.5-1 3.6s-.9 2.1-1.4 3c.4.5 1 1 1.6 1.4s1.2.8 1.9 1.1c-.3.2-.5.4-.8.8-.4-.3-1-.7-1.6-1.2s-1.2-1.1-1.6-1.6c-.5.6-1.1 1.1-1.7 1.6s-1.4.9-2.1 1.4c-.1-.3-.3-.5-.7-.8.6-.2 1.2-.5 1.9-1s1.4-1.1 2-1.8c-.5-.8-.9-1.6-1.2-2.5s-.6-2-.8-3.2c-.4.1-.7.1-1 .1zm2.5 2.7c.3 1 .7 1.7 1 2.2.3-.5.6-1.1 1-2s.6-1.9.9-3h-3.2-.4c.1.9.3 1.8.7 2.8z"/><path d="m396.5 388.5v1.5 3.6h1.5v.9c-.4 0-1 0-1.7 0h-7.9c-.5 0-.9 0-1.2 0v-.9h1.3v-3.5c0-.7 0-1.2 0-1.6h2.4c0-.8 0-1.4 0-1.7h1c0 .3-.1.8-.1 1.7h1.5c0-.8 0-1.4 0-1.7h1c0 .3-.1.9-.1 1.7zm-8.2 9.2c-.2-.3-.5-.5-.8-.8.8-.3 1.4-.6 1.9-.9s1-.7 1.4-1.1c.3.3.6.5.9.8-1.6 1-2.8 1.6-3.4 2zm2.6-6.8v-1.6h-1.5v1.6zm0 2.7v-1.9h-1.5v1.9zm2.4-2.7v-1.6h-1.5v1.6zm0 2.7v-1.9h-1.5v1.9zm.2 2 .7-.8c.4.2.9.5 1.6.8s1.3.7 1.8 1c-.3.3-.5.5-.8.8-.4-.3-1.5-1-3.3-1.8zm2-4.7v-1.6h-1.4v1.6zm0 2.7v-1.9h-1.4v1.9z"/></g></svg>