<svg viewBox="0 0 400 400" xmlns="http://www.w3.org/2000/svg"><rect width="400" height="400" fill="white" /><path d="m285.51 273.44c-5.94-12.04-10.19-24.23-12.44-37.17-.95-5.46-3.07-10.76-3.68-16.23-1.92-17.17-7.77-32.98-15.45-48.27-1.06-2.11-2.14-2.54-4.38-2.22-12.95 1.84-25.92 3.53-38.89 5.16-1.49.19-3.13-.07-4.6-.48-16.35-4.6-32.69-9.25-49.01-13.95-1.59-.46-3.17-1.13-4.56-2.01-21.65-13.69-43.78-26.54-66.88-37.66-7.3-3.52-9.95-9.22-8.32-16.9 6.84 1.66 13.68 3.27 20.49 5.02 1.25.32 2.44 1.11 3.52 1.87 8.86 6.16 18.89 10.67 26.13 19.16 1.66 1.95 4.75 2.96 7.38 3.75 11.66 3.51 22.14 9.45 32.61 15.45 2.1 1.2 4.44 2.13 6.78 2.72 10.18 2.59 20.29 5.79 30.64 7.23 7.6 1.06 15.54-.14 23.32-.53 6-.3 11.98-.9 18.25-1.38 1.63-3.99-.76-11.66-4.75-14.64-23.19-17.34-48.54-31.09-73.81-45.03-11.73-6.47-23.09-13.63-34.4-20.81-2.93-1.86-5.22-4.85-7.48-7.58-1.22-1.48-1.77-3.51-2.71-5.48 4.95-2.69 9.75-2.63 14.58-1.29 4.2 1.16 8.33 2.57 12.48 3.9.63.2 1.4.4 1.79.87 3.81 4.57 9.41 6.28 14.24 9.23 4.06 2.48 7.53 5.91 11.38 8.77 1.65 1.23 3.48 2.55 5.42 2.98 5 1.13 9.55 2.96 13.51 6.28 9.47 7.93 20.63 12.94 31.84 17.69 8.75 3.71 16.06 9.07 22.6 15.81 4.04 4.17 8.51 7.93 12.76 11.9 1.86 1.73 3.4 1.79 5.41-.07 4.16-3.84 9.25-6.8 11.23-12.55.29-.85.55-1.91.3-2.7-1.07-3.36-2.67-6.58-3.46-9.99-.89-3.89-2.4-7.21-4.76-10.5-6.68-9.32-14.94-16.71-24.41-23.13-13.51-9.17-26.53-19.06-39.93-28.4-5.49-3.82-11.46-6.95-17.16-10.48-4.43-2.74-8.39-5.99-10.56-10.93-1.26-2.87.32-5.51 3.43-5.36 6.45.3 12.9 1.32 17.83 5.83 8.78 8.04 19.1 13.58 29.39 19.24 7.43 4.08 14.79 8.07 20.82 14.42 3.33 3.51 8.52 5.2 12.74 7.91 15.43 9.91 25.26 24.08 31.03 41.26.27.82.39 1.78.26 2.62-.95 6.08-1.9 12.15-3.05 18.19-.21 1.08-1.18 2.12-2.02 2.96-4.18 4.2-8.51 8.27-12.64 12.52-1.94 1.99-3.67 4.21-5.31 6.46-2.35 3.21-2.51 5.93-.07 9.84 2.8 4.48 4.78 10.03 5.25 15.29 1.39 15.49 5.46 30.34 9.26 45.28 3.91 15.38 8 30.71 11.76 46.12.78 3.19.69 6.67.54 10-.23 5.02.45 9.79 2.6 14.34 3.46 7.33 5.01 15.01 4.16 23.1-.27 2.55.44 4.57 2.52 6.13 1.47 1.1 1.95 2.31 1.23 4.32-.59 1.63-.58 3.72-.15 5.44 2.14 8.56 4.43 17.09 6.82 25.59 1.36 4.83-1.93 8.25-3.48 12.16-.56 1.4-7.63.7-8.58-.72-5.23-7.78-8.97-15.98-7.07-25.76.19-.99-.29-2.15-.6-3.19-.93-3.09-2.14-6.12-2.86-9.26-.78-3.41-.89-6.79 1.4-9.94.64-.87.71-2.96.1-3.81-6.21-8.63-8.71-18.44-9.78-28.8-.47-4.55-1.39-9.06-2.08-13.59-.36-2.43-1.22-5.01 1.53-6z" fill="#010100"/><g fill="#fcfbfa"><path d="m377.9 391.2c-.2.3-.4.5-.6.8-.7-.6-1.4-1-2.2-1.5.2-.3.4-.5.5-.8.6.4 1.4.8 2.3 1.5zm-1.8 6.1c-.2-.2-.5-.4-.9-.6.4-.6.8-1.2 1.2-1.9s.7-1.3.9-1.9c.3.3.5.5.8.7-.7 1.3-1.4 2.6-2 3.7zm2.2-9c-.3.3-.5.5-.6.8-.6-.6-1.3-1.1-2-1.5.3-.3.5-.5.6-.7.6.5 1.3.9 2 1.4zm.3.2v-.9h2 4.5c-.3 1.3-.6 2.5-1 3.6s-.9 2.1-1.4 3c.4.5 1 1 1.6 1.4s1.2.8 1.9 1.1c-.3.2-.5.4-.8.8-.4-.3-1-.7-1.6-1.2s-1.2-1.1-1.6-1.6c-.5.6-1.1 1.1-1.7 1.6s-1.4.9-2.1 1.4c-.1-.3-.3-.5-.7-.8.6-.2 1.2-.5 1.9-1s1.4-1.1 2-1.8c-.5-.8-.9-1.6-1.2-2.5s-.6-2-.8-3.2c-.4.1-.7.1-1 .1zm2.5 2.7c.3 1 .7 1.7 1 2.2.3-.5.6-1.1 1-2s.6-1.9.9-3h-3.2-.4c.1.9.3 1.8.7 2.8z"/><path d="m396.5 388.5v1.5 3.6h1.5v.9c-.4 0-1 0-1.7 0h-7.9c-.5 0-.9 0-1.2 0v-.9h1.3v-3.5c0-.7 0-1.2 0-1.6h2.4c0-.8 0-1.4 0-1.7h1c0 .3-.1.8-.1 1.7h1.5c0-.8 0-1.4 0-1.7h1c0 .3-.1.9-.1 1.7zm-8.2 9.2c-.2-.3-.5-.5-.8-.8.8-.3 1.4-.6 1.9-.9s1-.7 1.4-1.1c.3.3.6.5.9.8-1.6 1-2.8 1.6-3.4 2zm2.6-6.8v-1.6h-1.5v1.6zm0 2.7v-1.9h-1.5v1.9zm2.4-2.7v-1.6h-1.5v1.6zm0 2.7v-1.9h-1.5v1.9zm.2 2 .7-.8c.4.2.9.5 1.6.8s1.3.7 1.8 1c-.3.3-.5.5-.8.8-.4-.3-1.5-1-3.3-1.8zm2-4.7v-1.6h-1.4v1.6zm0 2.7v-1.9h-1.4v1.9z"/></g></svg>