<svg viewBox="0 0 400 400" xmlns="http://www.w3.org/2000/svg"><rect width="400" height="400" fill="white" /><path d="m208.11 174.68c-6.96 6.78-14.07 13.13-20.5 20.11-11.04 11.99-24.69 17.62-40.72 18.42-15.39.77-30.62-.15-44.37-7.65-7.53-4.11-13.79-10.25-16.81-19.39 6.79-.54 13.31-1.46 19.84-1.5 13.83-.09 26.49-4.92 39.37-8.93 6.19-1.93 12.28-4.23 18.57-5.73 14.73-3.5 26.52-12.67 39.35-19.82.6-.34 1.04-1.93.8-2.69-6.08-18.7-11.79-37.54-18.62-55.97-3.43-9.26-8.02-18.4-13.79-26.36-4.16-5.74-10.99-9.63-16.9-13.99-3.94-2.9-8.52-4.92-12.5-7.78-4.1-2.94-6.63-7.16-7.99-12.09-.49-1.77-.22-2.68 1.42-3.8 3.35-2.28 6.35-2.38 10.22-.94 15.6 5.82 31.35 11.22 47.05 16.78 4.75 1.68 8.48 6.21 7.86 11.19-1.17 9.41 1.84 17.78 4.85 26.37 7.17 20.48 15.31 40.54 24.03 60.4 2.41 5.49 2.72 11.88 4.27 17.79 1.19 4.52 2.44 9.08 4.34 13.33 2.35 5.26 7.31 5.56 10.6.98 7.71-10.72 15.54-21.35 23.01-32.23 6.61-9.64 10.04-20.63 10.16-32.19.06-6.32-2.12-12.67-3.34-19-.25-1.31-.83-2.57-1.01-3.89-1.16-8.6-5.19-15.81-10.8-22.23-.79-.91-1.73-1.74-2.73-2.42-3.61-2.45-7.12-5.1-10.95-7.16-3.93-2.12-6-5.1-6.2-9.83 5.47-.34 11-.72 16.53-.97.68-.03 1.39.61 2.08.94 4.91 2.34 9.78 4.76 14.73 6.99 2.43 1.1 5.1 1.68 7.53 2.79 5.04 2.31 8.61 5.59 10.1 11.51 2.55 10.17 5.96 20.13 9.16 30.14 3.57 11.16 2.66 22.12-1.58 32.81-2.8 7.05-6.17 13.88-9.31 20.8-.37.8-.82 1.61-1.41 2.26-13.06 14.42-25.4 29.58-42.76 39.39-5.66 3.2-6.89 7.22-5.63 13.68 3.04 15.58 5.98 31.18 9.08 46.75.37 1.88 1.3 3.73 2.34 5.37 3.4 5.35 3.88 11.43 4.18 17.42 1.23 24.94-1.92 49.32-10.06 72.99-.18.53-.35 1.1-.67 1.53-5.03 6.57-9.84 13.34-15.24 19.59-3.82 4.42-9.36 5.83-16.02 6.14.26-2.69.1-5.37.86-7.76 1.31-4.13 3.01-8.17 4.9-12.08 3.89-8.05 8.53-15.87 9.62-24.89.67-5.5.27-11.15.19-16.73-.21-15.11-.12-30.23-.95-45.31-.39-7.05-2.49-14.02-4.05-20.97-4.17-18.53-8.48-37.03-12.72-55.54-1.49-6.33-3.91-12.12-9.41-16.63z" fill="#010105"/><g fill="#fcfbfa"><path d="m377.9 391.2c-.2.3-.4.5-.6.8-.7-.6-1.4-1-2.2-1.5.2-.3.4-.5.5-.8.6.4 1.4.8 2.3 1.5zm-1.8 6.1c-.2-.2-.5-.4-.9-.6.4-.6.8-1.2 1.2-1.9s.7-1.3.9-1.9c.3.3.5.5.8.7-.7 1.3-1.4 2.6-2 3.7zm2.2-9c-.3.3-.5.5-.6.8-.6-.6-1.3-1.1-2-1.5.3-.3.5-.5.6-.7.6.5 1.3.9 2 1.4zm.3.2v-.9h2 4.5c-.3 1.3-.6 2.5-1 3.6s-.9 2.1-1.4 3c.4.5 1 1 1.6 1.4s1.2.8 1.9 1.1c-.3.2-.5.4-.8.8-.4-.3-1-.7-1.6-1.2s-1.2-1.1-1.6-1.6c-.5.6-1.1 1.1-1.7 1.6s-1.4.9-2.1 1.4c-.1-.3-.3-.5-.7-.8.6-.2 1.2-.5 1.9-1s1.4-1.1 2-1.8c-.5-.8-.9-1.6-1.2-2.5s-.6-2-.8-3.2c-.4.1-.7.1-1 .1zm2.5 2.7c.3 1 .7 1.7 1 2.2.3-.5.6-1.1 1-2s.6-1.9.9-3h-3.2-.4c.1.9.3 1.8.7 2.8z"/><path d="m396.5 388.5v1.5 3.6h1.5v.9c-.4 0-1 0-1.7 0h-7.9c-.5 0-.9 0-1.2 0v-.9h1.3v-3.5c0-.7 0-1.2 0-1.6h2.4c0-.8 0-1.4 0-1.7h1c0 .3-.1.8-.1 1.7h1.5c0-.8 0-1.4 0-1.7h1c0 .3-.1.9-.1 1.7zm-8.2 9.2c-.2-.3-.5-.5-.8-.8.8-.3 1.4-.6 1.9-.9s1-.7 1.4-1.1c.3.3.6.5.9.8-1.6 1-2.8 1.6-3.4 2zm2.6-6.8v-1.6h-1.5v1.6zm0 2.7v-1.9h-1.5v1.9zm2.4-2.7v-1.6h-1.5v1.6zm0 2.7v-1.9h-1.5v1.9zm.2 2 .7-.8c.4.2.9.5 1.6.8s1.3.7 1.8 1c-.3.3-.5.5-.8.8-.4-.3-1.5-1-3.3-1.8zm2-4.7v-1.6h-1.4v1.6zm0 2.7v-1.9h-1.4v1.9z"/></g></svg>