<svg enable-background="new 0 0 400 400" viewBox="0 0 400 400" xmlns="http://www.w3.org/2000/svg"><path d="m5.17 384 .55-.58c.85.61 1.65 1.24 2.4 1.87l-.59.64c-.83-.73-1.62-1.38-2.36-1.93m1.22 9.53-.82-.34c.71-1.76 1.37-3.64 1.98-5.63.24.13.5.25.76.36-.6 1.67-1.24 3.54-1.92 5.61m-.5-13.5.57-.54c.56.44 1.31 1.06 2.26 1.87l-.64.64c-.68-.66-1.41-1.32-2.19-1.97m3.25.46h2.24v-1.36h.77v1.36h4.57v-1.36h.76v1.36h2.28v.69h-2.28v1.84h-2.64v1.26h4.18v2.64h-4.21c0 .45-.02.86-.05 1.21h4.32v.69h-4.38c-.04.34-.1.75-.19 1.22h5.15v.69h-4.82c.87 1.19 2.51 1.92 4.93 2.19-.17.31-.3.57-.37.76-2.77-.49-4.52-1.41-5.26-2.76-.56 1.26-2.3 2.23-5.24 2.9-.12-.24-.26-.48-.43-.72 2.73-.55 4.38-1.34 4.96-2.38h-4.38v-.69h4.65c.1-.38.17-.79.21-1.22h-4.32v-.69h4.4c.03-.34.05-.75.05-1.21h-4.2v-2.64h4.23v-1.26h-2.69v-1.84h-2.24zm1.46 4.46v1.29h3.45c.01-.4.02-.57.01-.53v-.32-.45h-3.46zm1.55-2.59h4.57v-1.19h-4.57zm6.11 2.59h-3.42v.77c-.01.19-.01.37-.02.53h3.44z" fill="#fafafc"/><path d="m32.63 379.16h.82v1.98h3.54v7.89h1.46v.78h-14.37v-.78h1.46v-7.89h3.54v-1.98h.82v1.98h2.73zm-3.49 11.48.5.73c-1.61.82-3.28 1.63-5 2.41-.13-.27-.28-.55-.44-.82 1.75-.72 3.4-1.49 4.94-2.32m-2.78-5.55h2.73v-3.18h-2.73zm0 3.95h2.73v-3.2h-2.73zm3.54-3.95h2.73v-3.18h-2.73zm0 3.95h2.73v-3.2h-2.73zm7.89 4.68c-1.84-.92-3.51-1.7-5.02-2.32l.45-.73c1.89.8 3.57 1.55 5.04 2.23zm-1.62-11.81h-2.73v3.18h2.73zm-2.73 7.13h2.73v-3.2h-2.73z" fill="#fafafc"/><path d="m107.3 373.96c-3.49-4.12-3.92-9.03-.57-12.46 16.19-16.6 28.51-36.18 42.62-54.38 7.94-10.24 17.16-19.48 25.29-29.58 4.08-5.07 7.03-11.04 10.42-16.65.44-.73.55-1.7.68-2.57 1.17-7.96.94-8.52-6.63-11.11-5.6-1.91-11.32-3.46-16.99-5.17-7.06-2.13-11.11-5.87-13.31-12.5.98-.52 2.02-1.09 3.07-1.63 8.68-4.38 17.3-8.91 26.09-13.05 2.98-1.4 4.3-3.43 4.43-6.4.3-7.03 1.08-14.12.53-21.1-1.08-13.69-2.92-27.32-4.49-40.97-.14-1.2-.64-2.35-1.09-3.93-4.91 1.99-9.77 2.93-14.01 6.66-13.66 12-28.56 22.27-45.52 29.24-.52.21-1.05.38-1.58.55-9.65 3.12-10.11 2.93-15.13-6.64 6.58-5.3 13.13-10.84 19.94-16.02 12.2-9.28 24.66-18.2 36.79-27.57 4.13-3.19 7.56-7.29 11.35-10.93 8.75-8.41 11.82-19.12 11.8-30.75-.01-7.91-.75-15.85-1.69-23.72-1.44-11.96-.73-23.46 5.52-34.1 1.08-1.84 1.91-4.16 4.98-3.41 3.51.86 7.4 1.28 8.47 5.49 2.49 9.84 5.03 19.69 6.95 29.65.99 5.1 1.28 10.49.89 15.67-1.11 14.64.56 28.72 8.2 41.43 2.56 4.26 6.57 7.86 10.49 11.06 11.79 9.6 25.49 16.07 38.9 23.01 9.31 4.82 17.99 10.59 23.88 19.56 1.99 3.02 3.25 6.53 4.93 9.99-5.47 3.35-10.74 3.39-15.94 1.53-6.94-2.48-13.74-5.35-20.55-8.18-1.19-.49-2.09-1.62-3.18-2.4-7.09-5.05-13.94-10.48-21.35-15-6.4-3.9-13.69-5.34-21.46-4.16-2 6.4-1.8 12.79-.37 19.21 1.06 4.8 2.15 9.6 3.24 14.4.9 3.96.61 7.76-1.31 11.4-.47.89-.9 1.81-1.19 2.77-1.44 4.68-.07 8.18 4.43 9.87 6.05 2.28 12.24 4.2 18.41 6.13 6.9 2.15 10.72 6.73 11 13.78-.95.33-1.97.7-3 1.05-4.26 1.46-8.6 2.43-10.75 7.41-1.93 4.48-6.96 5.3-10.97 7.11-1.96.88-2.36 1.8-2.34 3.96.04 5.09-.69 10.18-.84 15.27-.06 2.01.12 4.27.99 6.02 3.82 7.71 7.91 15.29 11.95 22.89.62 1.18 1.38 2.31 2.24 3.33 14.57 17.29 29.15 34.57 43.75 51.83 5.5 6.51 7.86 16.8 5.6 25.49-5.14-1.86-10.29-3.64-15.36-5.63-1.04-.41-1.86-1.55-2.64-2.47-19.45-23.13-38.9-46.26-58.27-69.46-1.5-1.8-2.81-2.06-5.11-1.75-8.17 1.09-14.21 5.24-19.91 11.06-15.11 15.43-30.51 30.61-46.25 45.4-8.16 7.66-17.32 14.34-26.03 21.47z" fill="#010101"/></svg>