<svg enable-background="new 0 0 400 400" viewBox="0 0 400 400" xmlns="http://www.w3.org/2000/svg"><path d="m5.17 384 .55-.58c.85.61 1.65 1.24 2.4 1.87l-.59.64c-.83-.73-1.62-1.38-2.36-1.93m1.22 9.53-.82-.34c.71-1.76 1.37-3.64 1.98-5.63.24.13.5.25.76.36-.6 1.67-1.24 3.54-1.92 5.61m-.5-13.5.57-.54c.56.44 1.31 1.06 2.26 1.87l-.64.64c-.68-.66-1.41-1.32-2.19-1.97m3.25.46h2.24v-1.36h.77v1.36h4.57v-1.36h.76v1.36h2.28v.69h-2.28v1.84h-2.64v1.26h4.18v2.64h-4.21c0 .45-.02.86-.05 1.21h4.32v.69h-4.38c-.04.34-.1.75-.19 1.22h5.15v.69h-4.82c.87 1.19 2.51 1.92 4.93 2.19-.17.31-.3.57-.37.76-2.77-.49-4.52-1.41-5.26-2.76-.56 1.26-2.3 2.23-5.24 2.9-.12-.24-.26-.48-.43-.72 2.73-.55 4.38-1.34 4.96-2.38h-4.38v-.69h4.65c.1-.38.17-.79.21-1.22h-4.32v-.69h4.4c.03-.34.05-.75.05-1.21h-4.2v-2.64h4.23v-1.26h-2.69v-1.84h-2.24zm1.46 4.46v1.29h3.45c.01-.4.02-.57.01-.53v-.32-.45h-3.46zm1.55-2.59h4.57v-1.19h-4.57zm6.11 2.59h-3.42v.77c-.01.19-.01.37-.02.53h3.44z" fill="#fafafc"/><path d="m32.63 379.16h.82v1.98h3.54v7.89h1.46v.78h-14.37v-.78h1.46v-7.89h3.54v-1.98h.82v1.98h2.73zm-3.49 11.48.5.73c-1.61.82-3.28 1.63-5 2.41-.13-.27-.28-.55-.44-.82 1.75-.72 3.4-1.49 4.94-2.32m-2.78-5.55h2.73v-3.18h-2.73zm0 3.95h2.73v-3.2h-2.73zm3.54-3.95h2.73v-3.18h-2.73zm0 3.95h2.73v-3.2h-2.73zm7.89 4.68c-1.84-.92-3.51-1.7-5.02-2.32l.45-.73c1.89.8 3.57 1.55 5.04 2.23zm-1.62-11.81h-2.73v3.18h2.73zm-2.73 7.13h2.73v-3.2h-2.73z" fill="#fafafc"/><path d="m235.84 374.43c-5.1.32-8.34-1.31-10.12-6.06-4.65-12.44-9.71-24.73-14.37-37.17-4.6-12.28-11.92-22.18-23.75-28.66-5.79 7.14-12 13.91-13.79 23.35-1.13 5.92-4.14 10.68-8.87 14.48-7.36 5.92-12.91 13.19-16.11 22.19-.59 1.66-1.59 3.22-2.66 4.64-2.42 3.19-5.44 3.99-9.69 2.72 0-4.86-.07-9.78.06-14.7.03-.99.65-2.15 1.35-2.91 7.3-8 11.53-17.4 13.61-27.98 2.56-13.02 6.82-25.41 13.86-36.82 5.16-8.37 9.78-17.08 14.41-25.76.97-1.81 1.54-4.22 1.3-6.24-1.53-13-3.41-25.96-4.99-38.95-.29-2.38-1.47-3.63-3.18-5.05-3.68-3.07-7.27-6.28-10.5-9.81-3.2-3.48-4.12-7.95-3.28-12.57 1.12-6.19 2.72-12.22 7.24-17.02 1.69-1.79 2.95-4.01 4.77-5.63 6.19-5.55 7.92-12.45 8.08-20.59.34-17.45 1.49-34.89 2.31-52.34.03-.55 0-1.1 0-2.13-6.31 0-12.54-.09-18.76.09-1.02.03-2.07 1.16-2.99 1.93-6.1 5.11-12.84 6.32-20.38 3.68-2.16-.76-3.37-1.78-3.52-4.17-.12-1.88-.69-3.73-1.15-6.04 4.47-1.58 9.02-2.98 13.4-4.81 3.04-1.27 6.08-2.79 8.7-4.76 8.03-6.07 15.92-12.35 23.72-18.73 1.3-1.07 2.43-2.92 2.71-4.57 1.47-8.83 2.65-17.7 3.93-26.56.11-.76.29-1.5.43-2.21 7.79-.58 12.62 2.83 14.49 9.97.56 2.16 1.3 4.28 2.14 6.35 2.01 4.91 5.18 8.59 10.14 11.03 8.63 4.26 17.79 5.7 27.19 6.61 10.17.98 17.62 10.68 16.5 21.28-14.5-.38-29.02-.74-43.53-1.16-7.05-.2-8.2.08-9.64 7.15-1.69 8.29-3.02 16.78-3.29 25.22-.42 13.29.22 26.62.34 39.94.03 3.09 1.24 5.08 3.96 6.73 3.23 1.96 6.27 4.35 9.05 6.92 13.38 12.39 16.19 25.15 9.73 42.57-1.37 3.7-3.26 6.61-7.01 8.41-3.92 1.88-7.64 4.22-11.27 6.63-1.09.73-2.12 2.34-2.24 3.63-1.46 15.94-2.84 31.88-4 47.85-.18 2.42.68 4.96 1.3 7.39.35 1.38 1.23 2.62 1.8 3.96 4.41 10.29 9.56 19.92 17.5 28.23 8.58 8.97 14.52 19.84 16.5 32.43 1.46 9.39.62 18.68-1.43 28.02z" fill="#010101"/></svg>