<svg enable-background="new 0 0 400 400" viewBox="0 0 400 400" xmlns="http://www.w3.org/2000/svg"><g fill="#fcfafa"><path d="m342.2 3.2-6.3 9.2h6.1v1.2h-8.2v-.5l6.2-9.1h-5.7v-1.2h7.8v.4z"/><path d="m344 13.7v-10.9h3.1c1.6 0 3 .5 4.1 1.4 1.1 1 1.6 2.2 1.6 3.9s-.5 3-1.6 4-2.5 1.5-4.2 1.5h-3zm1.4-9.6v8.4h1.6c1.4 0 2.5-.4 3.2-1.1.8-.8 1.2-1.8 1.2-3.2s-.4-2.4-1.2-3.1-1.8-1-3.1-1z"/><path d="m356.3 2.8v10.9h-1.4v-10.9z"/><path d="m366.6 13.2c-.8.4-1.8.6-3 .6-1.6 0-2.8-.5-3.7-1.5s-1.4-2.3-1.4-3.9c0-1.7.5-3.2 1.6-4.2s2.4-1.6 4-1.6c1 0 1.9.1 2.6.4v1.5c-.8-.4-1.6-.6-2.6-.6-1.2 0-2.2.4-3 1.2s-1.1 1.9-1.1 3.3c0 1.3.4 2.3 1.1 3.1s1.6 1.1 2.8 1.1c1.1 0 2-.2 2.8-.7v1.3z"/><path d="m368.2 13c0-.3.1-.5.3-.6.2-.2.4-.3.6-.3.3 0 .5.1.7.3s.3.4.3.6-.1.5-.3.6c-.2.2-.4.3-.7.3s-.5-.1-.6-.3c-.2-.2-.3-.4-.3-.6z"/><path d="m381.1 13.7h-1.7l-5.5-8.4c-.2-.2-.3-.5-.4-.7 0 .2.1.8.1 1.5v7.6h-1.4v-10.9h1.8l5.3 8.3c.3.4.4.6.4.8 0-.3-.1-.8-.1-1.6v-7.5h1.4v10.9z"/><path d="m389.7 13.7h-5.8v-10.9h5.6v1.2h-4.2v3.5h3.9v1.2h-3.9v3.7h4.4z"/><path d="m398.4 4.1h-3.1v9.6h-1.4v-9.6h-3.1v-1.3h7.7v1.3z"/></g><path d="m202.93 219.78c-6.67-.7-12.96-.98-19.1-2.08-16.59-2.95-29.63-10.98-36.57-27.05-.79-1.83-1.23-3.83-1.65-5.79-.39-1.84-.54-3.74-.79-5.62 2.67-1.48 4.25-.91 6.31 1.31 9.86 10.6 22.1 17.35 36.49 18.75 10.71 1.04 10.48.01 10.86-9.61.19-4.86-.12-9.7-2.41-14.35-1.55-3.14-1.84-6.88-2.91-10.28-.59-1.89-1.38-3.81-2.51-5.42-2.76-3.94-4.38-4.37-9.03-3.08-2.8.78-5.59 1.6-8.4 2.32-4.13 1.05-7.85 2.75-11.53 5.03-10.34 6.39-21.67 10.58-33.6 12.97-1.82.37-3.93-.08-5.77-.61-2.35-.67-4.56-1.81-6.84-2.75-7.5-3.09-13.31-13.34-12.1-21.89 4.37.21 8.79.63 13.2.56 3.16-.05 6.51-.2 9.44-1.24 20.23-7.15 40.37-14.55 60.54-21.87 4.27-1.55 5.87-4.27 4.24-8.58-1.49-3.94-3.44-7.75-5.62-11.37-8.71-14.45-20.41-26.29-33.32-36.94-2.67-2.2-6.3-3.27-9.52-4.77-3.41-1.59-6.04-3.81-6.83-7.99 4.14-2.01 8.53-1.49 12.66-.58 8.07 1.79 16.02 4.09 23.99 6.31 1.09.3 2.16 1.14 2.96 1.99 6.56 6.89 13.11 13.8 19.53 20.82 1.24 1.36 2.06 3.17 2.83 4.88 1.65 3.67 2.99 7.48 4.77 11.08 1.15 2.34 2.86 4.41 4.31 6.6.42 0 .85.01 1.27.01 2.48-5.16 5.43-10.15 7.35-15.51 6.09-16.93 8.86-34.39 6.93-52.42-.41-3.82-.88-7.55-4.52-9.91-.61-.4-1.22-1.18-1.33-1.87-.24-1.49-.75-3.5-.03-4.43.67-.87 2.95-1.17 4.24-.78 9.2 2.76 17.9 6.8 24.71 13.64 5.59 5.61 6.45 12.34 4.1 20.39-3.8 13.03-10.66 24.28-17.63 35.6-.78 1.27-1.32 2.9-1.38 4.39-.19 4.63-2.27 8.24-5.24 11.61-2.85 3.23-5.43 6.7-8.13 10.06.18.4.35.81.53 1.21 3 0 6 .01 9-.01.44 0 .92-.07 1.31-.25 12.76-6.16 26.05-3.19 39.23-2.32 6.51.43 12.97 1.05 18.94 3.83 1.83.85 3.8 2.14 4.86 3.77 1.98 3.05.88 5.72-2.62 6.29-6.81 1.11-13.68 2.27-20.55 2.49-10.36.33-20.42 1.61-30.35 4.73-6.58 2.07-13.44 3.3-20.2 4.79-4.22.93-8.17 2.29-11.43 5.59 2.46 2.86 5 5.62 7.31 8.54 5.33 6.75 7.58 14.56 7.87 23.08.25 7.51 1.36 10.26 5.29 13.85 12.53-11.62 20.62-24.58 13.07-42.48 4.6-1.18 8.05-1.71 11.38 2.08 2.26 2.57 5.72 4.21 8.86 5.85 3.8 1.99 5.28 3.72 4.66 7.89-.44 2.93-1.4 5.84-2.48 8.62-5.11 13.16-13.72 23.4-26.25 30.01-5.84 3.08-7.86 7.39-7.52 13.95.44 8.47-.52 17.01-.3 25.5.37 14.22-2.5 28.06-4.43 41.99-2.94 21.15-6.5 42.21-9.68 63.33-.58 3.86-.52 7.81-.83 11.71-.14 1.78-.21 3.63-.79 5.29-.99 2.87-3.56 4.36-6.29 4.04-1.45-.17-3.54-2.23-3.81-3.71-.76-4.2-1.22-8.58-.92-12.82.76-10.8 2.33-21.54 2.97-32.34.81-13.62 1.27-27.28 1.37-40.93.06-7.12-1.05-14.25-1.44-21.38-.1-1.78.51-3.61.87-5.41.17-.86.78-1.7.73-2.52-.71-11.83-1.52-23.66-2.33-35.79z" fill="#010103"/></svg>