<svg enable-background="new 0 0 400 400" viewBox="0 0 400 400" xmlns="http://www.w3.org/2000/svg"><path d="m205.48 206.23c-5.33 9.17-10.22 17.83-15.38 26.33-1.52 2.51-3.56 4.87-5.82 6.74-7.48 6.19-15.16 12.12-23.13 18.43 7.51 2.38 14.52 1.6 21.51.04 3.93-.88 7.88-1.74 11.69-2.99 8.11-2.65 16.5-2.57 24.85-3.21 12.81-.99 25.6-2.26 38.37-3.71 17.23-1.95 34.36-1.56 51.51 1.01 9.17 1.37 18.47 1.92 27.65 3.23 8.31 1.18 13.97 6.65 15.62 15.04-5.58 0-11-.11-16.41.02-20.46.48-40.94.77-61.39 1.7-9.47.43-18.86 2.36-28.32 3.27-12.47 1.19-24.96 2.41-37.46 2.95-19.75.86-38.58 5.85-57.37 11.42-24.31 7.21-48.95 13.33-72.63 22.61-10.8 4.23-21.37 2.25-31.46-2.76-4.76-2.37-8.04-12.27-5.83-17.23.3-.67 1.52-1.26 2.34-1.3 8.29-.39 16.08-2.73 23.61-5.97 7.19-3.1 14.86-2.77 22.38-3.65 18.02-2.11 35.37-6.56 51.35-15.47.59-.33 1.17-.66 1.73-1.03.17-.11.27-.34.62-.8-7.99-2.7-15.84-5.43-23.74-8.02-19.64-6.43-28.58-21.43-31.96-40.52-2.11-11.93 1.63-23.32 4.93-34.58 5.18-17.69 10.2-35.45 16.22-52.86 3.3-9.55 8.46-18.46 12.89-27.61 5.99-12.37 11.9-24.79 18.22-37 3.39-6.55 1.37-11.79-2.61-16.94-.75-.97-1.65-1.82-2.5-2.72-4.61-4.88-5.19-9.15-1.9-15.61 5.14 3.54 10.2 7.11 15.35 10.55 7.53 5.03 15.09 10.01 22.7 14.94 6.82 4.42 9.12 8.92 7.31 15.26-.38 1.34-1.44 2.78-2.59 3.56-7.77 5.27-10.29 13.19-11.28 21.88-.09.78.81 2.03 1.59 2.49 11.27 6.65 22.58 13.23 33.93 19.73 1.09.63 2.55.75 3.86.85 10.61.83 21.04-.36 31.1-3.74 20.57-6.91 41.87-8.88 63.33-10.46 13.49-.99 26.83-.44 40.14 1.51 2.92.43 5.83 1.55 8.49 2.88 1.58.79 2.98 2.41 3.87 3.99 1.97 3.51 1.23 5.89-2.55 7.28-3.51 1.29-7.39 2.86-10.95 2.54-16-1.43-31.04 2.39-46.09 6.96-13.79 4.18-27.64 8.29-41.64 11.68-10.3 2.5-20.87 3.92-31.37 5.53-2.89.44-3.9 1.38-3.94 4.34-.17 12.98-.52 25.96-.95 38.93-.07 2.24.64 3.44 2.62 4.37 4.31 2.03 8.77 2.56 13.42 1.86 15.03-2.25 30.07-4.43 45.09-6.8 16.46-2.59 32.87-5.46 49.34-7.95 4.28-.65 8.71-.58 13.06-.43 5.91.2 10.78 6.19 10.03 12.05-.1.75-.74 1.68-1.4 2.07-4.96 2.95-9.68 6.72-15.05 8.49-18.77 6.2-37.71 11.9-56.71 17.37-12.29 3.54-24.88 5.56-37.76 4.42-1.71-.15-3.51-.64-5.03-1.42-8.45-4.38-16.79-8.89-25.5-13.54zm-13.31-51.63c-1.51-8.72-2.8-16.43-4.24-24.1-.18-.98-.99-2.02-1.79-2.69-6.64-5.63-13.17-11.42-20.11-16.66-3.14-2.37-7.09-3.7-10.74-5.35-2.03-.92-3.6-.4-5.1 1.55-4.17 5.4-8.32 10.86-13.03 15.77-3.69 3.84-4.8 7.79-3.05 12.62.36.99 1.19 2.24 2.09 2.54 14.9 5.06 29.8 10.1 44.8 14.85 3.3 1.02 6.96.94 11.17 1.47zm-26.86 65.25c-3.6-3.38-7.41-4.76-11.73-5.61-4.52-.89-9.13-2.27-13.19-4.42-10.07-5.32-19.84-11.2-29.74-16.84-1.01-.57-2.07-1.04-3.23-1.62-2.83 7.78-3.42 15.41-1.42 23.05 1.67 6.39 4.65 11.85 12.09 13.2 6.46 1.18 12.84 2.92 19.34 3.81 11.32 1.54 19.94-3.9 27.88-11.57zm18.01-29.93c-.95-2.74-1.8-4.81-2.37-6.95-.61-2.27-1.89-3.49-4.18-4.17-5.13-1.54-10.12-3.59-15.27-5.03-8.2-2.28-15.49-6.09-22.18-11.34-5.16-4.06-10.69-7.66-16.07-11.47-6.18 5-8.42 11.97-11.02 18.71-.33.86-.1 1.99.02 2.98.38 3.22 1.81 5.09 5.44 5.46 4.54.46 9.05 1.44 13.49 2.51 12.48 3.01 24.85 6.48 37.4 9.15 4.54.95 9.45.15 14.74.15z" fill="#010104"/><path d="m50.75 351.54c5.48-.61 10.68-1.14 15.87-1.79 13.19-1.65 25.54-6.41 38.03-10.58 18.84-6.29 38.41-9.33 57.79-13.22 17.09-3.43 34.07-7.48 51.26-10.32 15.09-2.5 30.35-4.42 45.6-5.25 11.1-.6 22.32.94 33.48 1.62 9.04.55 18.08 1.08 27.1 1.91 3.75.35 7.51 1.21 11.14 2.26 4.42 1.27 6.01 7.64 2.9 11.07-.49.54-1.58.68-2.41.74-19.3 1.33-38.6 2.62-57.9 3.91-12.49.83-25.08.99-37.46 2.64-11.25 1.5-22.31 4.53-33.41 7.06-20.91 4.77-41.8 9.65-62.69 14.56-2.36.56-4.71 1.4-6.9 2.44-10.19 4.85-20.35 9.76-30.44 14.81-2.2 1.1-4.05 1.09-6.32.33-13.23-4.44-26.49-8.83-39.81-13.01-3.44-1.08-5.85-2.41-5.5-6.46.06-.76-.18-1.55-.33-2.72z" fill="#010104"/><g fill="#fcfbfa"><path d="m385.2 377.6.6-.7c.6.4 1.3.9 1.9 1.5l-.6.7c-.8-.5-1.4-1-1.9-1.5zm.3 7.1c.6-1.4 1.1-2.9 1.5-4.5.3.1.6.3.9.4-.5 1.4-1 2.9-1.5 4.4zm.2-10.1.6-.6c.7.5 1.3 1.1 1.9 1.6l-.7.7c-.6-.6-1.2-1.2-1.8-1.7zm8.4-.8h.8v.9h1.8v.7h-1.8v1.8h-.8v-.3h-1.2v.9h3.3v2.6h-.8v-.4h-2.5c0 .3 0 .6-.1.8h3.4v.7h-3.5c0 .3-.1.6-.1.8h4v.7h-3.5c.7.9 1.9 1.3 3.6 1.5-.2.2-.4.5-.6.9-1.9-.3-3.2-1.1-3.8-2.3-.5 1.1-1.8 2-3.9 2.4-.2-.3-.4-.5-.6-.8 1.9-.4 3.1-.9 3.6-1.7h-3.2v-.7h3.5c.1-.2.1-.5.2-.8h-3.3v-.7h3.4c0-.2 0-.5 0-.8h-2.4v.3h-.8v-2.6h3.3v-.9h-1.2v.3h-.8v-1.8h-1.8v-.7h1.8v-.9h.8v.9h3.2zm-4.4 5.5h2.4c0-.3 0-.6 0-.9h-2.4zm1.2-3.1h3.2v-.8h-3.2zm4.4 2.2h-2.4v.9h2.5v-.9z"/><path d="m389.2 385.8h.9v1.5h1.9v-1.5h.9v1.5h2.7v6h1.1v.9h-11.3v-.9h1.1v-6h2.7zm.2 8.7.5.8c-1.2.6-2.5 1.3-4 1.9-.2-.3-.3-.6-.6-.8 1.6-.6 3-1.3 4.1-1.9zm-2-4.3h1.9v-2.1h-1.9zm0 3.1h1.9v-2.2h-1.9zm2.7-3.1h1.9v-2.1h-1.9zm0 3.1h1.9v-2.2h-1.9zm2.4 1.3c1.4.6 2.7 1.2 4.1 1.8l-.5.9c-1.5-.7-2.8-1.4-4.1-1.9zm2.2-6.5h-1.9v2.1h1.9zm-1.9 5.2h1.9v-2.2h-1.9z"/></g></svg>