<svg enable-background="new 0 0 400 400" viewBox="0 0 400 400" xmlns="http://www.w3.org/2000/svg"><g fill="#010104"><path d="m304.16 85.55c-3.85.86-7.74 2.65-11.49 2.39-12-.84-23.6.97-35.23 3.49-10.16 2.2-20.41 3.96-30.62 5.97-1.85.37-3.68.92-5.48 1.52-5.47 1.8-9.14 4.74-8.22 11.39.42 3.05-.24 6.25-.35 9.38-.15 4.27 2.65 6.66 6.95 5.94.77-.13 1.52-.39 2.25-.66 16.37-6.06 33.55-7.46 50.73-8.14 8.44-.33 16.95.98 25.41 1.75 4.66.42 6.1 2.13 7.21 7.64-5.7 3.93-12.01 6.39-19.06 5.42-14.96-2.06-29.5.32-43.78 4.18-9.89 2.68-19.47 6.49-29.15 9.92-.85.3-1.78 1.35-2.03 2.24-1.24 4.28-2.27 8.62-3.56 13.66 2.2.33 4.2.87 6.2.87 1.75 0 3.6-.35 5.25-.96 15.77-5.82 32.48-7.12 48.81-10.25 6.26-1.2 12.57-2.11 18.83-3.28 4.49-.84 8.68-.43 12.51 2.22 2.99 2.07 4.64 4.78 4.06 9-6.55 1.13-13.23 2.25-19.9 3.45-16.06 2.89-32.13 5.73-48.15 8.83-3.18.62-6.14 2.32-9.21 3.52.02.36.04.71.06 1.07 5.08 2.7 10.25 5.24 15.2 8.16 2.32 1.37 4.52 3.22 6.26 5.28 6.76 8.05 13.45 16.18 19.89 24.49 2.56 3.3 5.06 6.9 6.5 10.77 4.55 12.24 10.9 23.49 17.7 34.55 3.72 6.05 5.93 12.55 4.93 19.76-.15 1.06-1.16 2.85-1.77 2.85-2.04-.01-5.57-.18-5.89-1.16-3.29-9.95-10.68-17.12-16.32-25.49-15.15-22.53-31.33-44.17-50.61-63.37-2.06-2.05-4.1-4.14-6.24-6.11-6.95-6.4-17.07-6.6-24.37-.53-1.96 1.63-3.91 3.28-6.1 5.12 6.67 6.91 8.64 15.7 11.43 24.19 1.7 5.18 4.04 10.18 6.52 15.05 2.66 5.23 4.03 10.76 3.88 16.48-.31 11.27-1.1 22.53-1.69 33.79-.31 5.91-1.03 11.84-.8 17.73.48 12.29-1.07 24.28-3.74 36.24-2.39 10.69-4.33 21.48-6.42 32.23-1.18 6.1-1.76 6.72-8.68 8.19-.26-3.34-.93-6.66-.71-9.92.75-11.15 1.49-22.32 2.83-33.41 1.95-16.09 1.89-32.19.7-48.26-.85-11.46-2.73-22.85-4.17-34.27-.05-.43-.22-.84-1-1.36-.14.85-.4 1.69-.39 2.54.13 11.34-4.15 21.02-10.77 29.99-8.99 12.18-18.08 24.25-30.4 33.36-6.93 5.12-14.57 8.7-23.27 9.65-.53.06-1.07.01-1.66.01-.8-3.72-.19-6.52 2.66-9.38 19.23-19.24 34.36-41.47 46.6-65.68 1.89-3.75 2.96-7.95 4.12-12.02.79-2.77 2.2-4.54 4.8-5.92 7.77-4.12 7.73-4.25 5.21-12.56-2.42-8-4.11-16.33-9.93-22.83-2.06-2.3-4.13-4.65-6.47-6.64-2.8-2.39-5.73-4.73-8.91-6.56-7.5-4.31-10.46-11.42-12.17-19.2-2.64-11.95-2.97-23.88.74-35.81 2.36-7.57 3.94-15.37 5.99-23.03.45-1.68 1.58-3.16 2.16-4.82 1.35-3.87 2.81-7.72 3.79-11.69 2.47-9.96 4.43-20.06 7.1-29.96 2.17-8.05 2-15.76-1.83-23.14-1.45-2.78-3.85-5.07-6.18-8.04 1.7.52 2.96.87 4.2 1.28 6.37 2.1 12.65 4.55 19.13 6.2 4.08 1.04 5.5 3.48 5.63 7.05.17 4.83.99 9.67-1.7 14.36-1.25 2.17-1.14 5.2-1.29 7.86-.05.81.92 1.93 1.71 2.49 4.23 2.93 8.43 5.93 12.87 8.51 4.87 2.83 8.84 6.41 11.41 11.43 1.11 2.18 2.52 2.57 4.87 1.88 15.48-4.53 31.23-7.67 47.31-9.36 11.83-1.25 23.43.6 35.13 1.43 4.35.31 7.43 2.02 9.76 5.49.12.15.12.39.41 1.55zm-145.51 59.08c7.96-2.65 15.13-4.8 22.12-7.45 4.78-1.82 9.32-4.28 13.89-6.59.87-.44 2.01-1.52 2.02-2.32.07-4.76.48-9.66-.45-14.26-1-4.93-5.19-6.87-9.66-4.86-6.01 2.7-12.01 2.99-18.26 1.44-.63-.16-1.31-.12-2.29-.19-3.91 10.96-8.79 21.64-7.37 34.23zm-.76 2.45c-1.03 1.65-2.45 3.1-2.92 4.82-1.85 6.74 3.67 18.14 10.4 19.93 15.74 4.17 24.38-2.61 25.57-18.05-11.28-.31-22.51-1.04-33.05-6.7zm19.44-75.96c-1.95 4.84-3.96 9.21-5.45 13.75-.84 2.59-.94 5.45-1.1 8.2-.04.65 1.04 1.97 1.59 1.96 6.29-.13 12.52-.75 17.86-4.56.69-.49 1.31-1.92 1.12-2.7-1.89-7.75-7.1-12.73-14.02-16.65z"/><path d="m103.5 291.01c-2.86-4.15-1.81-7.66.49-10.26 12.63-14.28 17.74-32.07 23.72-49.49 1.63-4.74 3.82-9.28 5.62-13.97 1.08-2.8 2-5.67 2.81-8.56.73-2.62.63-4.96-1.05-7.56-2.41-3.72-.63-7.7.65-11.58 6.83 2.46 13.54 4.57 19.99 7.28 7.81 3.27 10.76 9.56 7.81 17.45-1.59 4.26-4.11 8.49-7.2 11.8-8.94 9.57-16.22 20.21-22.2 31.79-5.33 10.3-11.21 20.18-20.83 27.14-3.05 2.18-6.42 3.91-9.81 5.96z"/><path d="m112.07 141.03c1.41.92 2.41 1.56 3.39 2.22 5.92 4 11.78 8.1 17.78 11.99 6.32 4.1 7.41 8.32 3.78 14.88-1.23 2.23-2.36 4.58-3.07 7.02-1.48 5.1-4.14 9.36-7.18 13.74-5.12 7.39-9.28 15.48-13.5 23.46-3.46 6.55-6.54 13.28-13.12 17.43-3.28 2.07-6.8 3.3-11.82 2.63 1.09-2.11 1.93-3.84 2.88-5.52.7-1.25 1.75-2.35 2.28-3.66 2.96-7.32 5.87-14.66 8.7-22.03 3.56-9.27 6.99-18.59 10.52-27.88 3.73-9.82 3.19-19.66.3-29.55-.41-1.36-.57-2.81-.94-4.73z"/></g><path d="m385.2 377.6.6-.7c.6.4 1.3.9 1.9 1.5l-.6.7c-.8-.5-1.4-1-1.9-1.5zm.3 7.1c.6-1.4 1.1-2.9 1.5-4.5.3.1.6.3.9.4-.5 1.4-1 2.9-1.5 4.4zm.2-10.1.6-.6c.7.5 1.3 1.1 1.9 1.6l-.7.7c-.6-.6-1.2-1.2-1.8-1.7zm8.4-.8h.8v.9h1.8v.7h-1.8v1.8h-.8v-.3h-1.2v.9h3.3v2.6h-.8v-.4h-2.5c0 .3 0 .6-.1.8h3.4v.7h-3.5c0 .3-.1.6-.1.8h4v.7h-3.5c.7.9 1.9 1.3 3.6 1.5-.2.2-.4.5-.6.9-1.9-.3-3.2-1.1-3.8-2.3-.5 1.1-1.8 2-3.9 2.4-.2-.3-.4-.5-.6-.8 1.9-.4 3.1-.9 3.6-1.7h-3.2v-.7h3.5c.1-.2.1-.5.2-.8h-3.3v-.7h3.4c0-.2 0-.5 0-.8h-2.4v.3h-.8v-2.6h3.3v-.9h-1.2v.3h-.8v-1.8h-1.8v-.7h1.8v-.9h.8v.9h3.2zm-4.4 5.5h2.4c0-.3 0-.6 0-.9h-2.4zm1.2-3.1h3.2v-.8h-3.2zm4.4 2.2h-2.4v.9h2.5v-.9z" fill="#fcfbfa"/><path d="m389.2 385.8h.9v1.5h1.9v-1.5h.9v1.5h2.7v6h1.1v.9h-11.3v-.9h1.1v-6h2.7zm.2 8.7.5.8c-1.2.6-2.5 1.3-4 1.9-.2-.3-.3-.6-.6-.8 1.6-.6 3-1.3 4.1-1.9zm-2-4.3h1.9v-2.1h-1.9zm0 3.1h1.9v-2.2h-1.9zm2.7-3.1h1.9v-2.1h-1.9zm0 3.1h1.9v-2.2h-1.9zm2.4 1.3c1.4.6 2.7 1.2 4.1 1.8l-.5.9c-1.5-.7-2.8-1.4-4.1-1.9zm2.2-6.5h-1.9v2.1h1.9zm-1.9 5.2h1.9v-2.2h-1.9z" fill="#fcfbfa"/></svg>