<svg enable-background="new 0 0 400 400" viewBox="0 0 400 400" xmlns="http://www.w3.org/2000/svg"><path d="m374.8 390.4.4-.4c.7.5 1.3 1 1.8 1.4l-.5.5c-.5-.6-1.1-1.1-1.7-1.5zm1 7.3-.6-.3c.5-1.4 1.1-2.8 1.5-4.3.2.1.4.2.6.3-.5 1.3-1 2.8-1.5 4.3zm-.4-10.3.4-.4c.4.3 1 .8 1.7 1.4l-.5.5c-.4-.5-1-1-1.6-1.5zm2.5.3h1.7v-1h.6v1h3.5v-1h.6v1h1.8v.5h-1.8v1.4h-2v1h3.2v2h-3.2v.9h3.3v.5h-3.4c0 .3-.1.6-.1.9h4v.5h-3.7c.7.9 1.9 1.5 3.8 1.7-.1.2-.2.4-.3.6-2.1-.4-3.5-1.1-4-2.1-.4 1-1.8 1.7-4 2.2-.1-.2-.2-.4-.3-.6 2.1-.4 3.4-1 3.8-1.8h-3.4v-.5h3.6c.1-.3.1-.6.2-.9h-3.3v-.5h3.4c0-.3 0-.6 0-.9h-3.2v-2h3.3v-1h-2.1v-1.4h-1.7v-.5zm1.1 3.5v1h2.7c0-.3 0-.4 0-.4 0-.1 0-.2 0-.2 0-.1 0-.2 0-.3h-2.7zm1.2-3v.9h3.5v-.9zm4.7 3h-2.6v.6.4h2.6z" fill="#fbfcfa"/><path d="m393.6 386.7h.6v1.5h2.7v6.1h1.1v.6h-11v-.6h1.1v-6.1h2.7v-1.5h.6v1.5h2.1v-1.5zm-2.7 8.8.4.6c-1.2.6-2.5 1.3-3.8 1.9-.1-.2-.2-.4-.3-.6 1.2-.6 2.5-1.2 3.7-1.9zm-2.2-6.7v2.4h2.1v-2.4zm0 3v2.5h2.1v-2.5zm2.8-3v2.4h2.1v-2.4zm0 3v2.5h2.1v-2.5zm6 6.1c-1.4-.7-2.7-1.3-3.9-1.8l.3-.6c1.5.6 2.7 1.2 3.9 1.7zm-1.2-9.1h-2.1v2.4h2.1zm-2.1 3v2.5h2.1v-2.5z" fill="#fbfcfa"/><path d="m170.12 375.07c-.56-4.4-.64-7.33 1.08-10.68 1.87-3.63 2.49-8.06 2.97-12.22 1.89-16.32 3.32-32.69 5.29-49 2.09-17.42 4.59-34.79 6.92-52.24-2.48-1.52-4.41-1.44-6.54.7-10.05 10.08-22.69 16.17-35.16 22.49-6.25 3.17-12.45 6.46-18.67 9.7-.29-.3-.58-.59-.86-.89.93-1.06 1.68-2.37 2.81-3.13 18.53-12.54 37.08-25.05 55.72-37.43 2.17-1.44 2.89-2.89 2.76-5.42-.44-8.49-.63-17-.93-25.5-.04-1.1-.18-2.19-.35-4.2-3.51 1.02-6.88 1.46-9.7 2.94-5.63 2.96-10.9 6.58-16.42 9.75-2.99 1.72-6.22 3.03-9.29 4.61-1.27.65-2.51 1.42-3.6 2.33-10.77 9.07-22.4 16.72-35.85 21.25-1.97.66-4.07.92-6.11 1.36-.18-.29-.35-.58-.53-.88.87-.76 1.65-1.67 2.62-2.24 14.13-8.4 28.32-16.71 42.43-25.15 11.14-6.67 20.89-14.99 28.98-25.19.76-.95 1.45-1.96 2.55-3.47-1.74-1.59-3.54-3.07-5.15-4.74-12.64-13.14-25.63-25.97-37.7-39.62-7.41-8.39-13.24-18.31-14.83-29.65-1.06-7.55-.43-15.35-.33-23.03.05-3.79.93-7.59.87-11.37-.08-4.66 1.51-8.59 3.58-12.65 9.04-17.75 21.33-32.75 37.18-44.79 1.37-1.04 3.42-1.68 5.15-1.67 8.39.08 16.77.42 25.16.74.95.04 2.44.25 2.73.85 1.5 3.08 3.95 1.85 6.33 1.97 5.99.32 11.99.86 17.93 1.7 8.83 1.24 17.62 2.82 26.41 4.79-25.33.68-50.65 1.37-76.32 2.06-.07.94-.19 1.9-.19 2.85-.01 8.96.1 17.91-.08 26.87-.05 2.35.79 3.73 2.82 4.16 3.35.71 6.87 1.84 10.16 1.46 10.8-1.27 21.46.14 32.14 1.02 23.08 1.89 46.14 3.95 69.21 5.95.39.03.78.07 1.18.91-8.56.53-17.11 1.41-25.67 1.49-12.08.12-24.17-.18-36.24-.62-17.25-.64-34.43.11-51.61 1.52-1.39.11-2.98-.21-3.1 2.04-.47 9.04-1.02 18.07-1.56 27.51 4.38.34 8.56.71 12.76.98 23.55 1.51 47.1 3.02 70.66 4.48 5.01.31 10.06.13 15.03.71 2.23.26 4.31 1.86 6.46 2.85-.1.35-.2.69-.29 1.04-4.5 0-9.01.05-13.51-.01-20.81-.24-41.63-.47-62.44-.81-4.8-.08-9.6-.88-14.39-.88-4.08 0-8.19.47-12.22 1.14-2.23.37-3.27 2.02-3.47 4.6-.65 8.59-1.6 17.16-2.58 25.71-.26 2.25.51 3.35 2.43 4.44 10.95 6.22 22.88 9.08 35.24 9.85 22.27 1.39 43.61 7.25 65.06 12.68 5.85 1.48 11.71 2.92 17.56 4.41.72.18 1.41.49 2.12.74-.02.32-.05.64-.07.96-6.73 0-13.57.78-20.17-.14-21.25-2.99-42.46-6.3-63.58-10.1-10.97-1.97-21.72-5.21-32.57-7.88-.64-.16-1.28-.28-2.63-.58.91 1.32 1.45 2.18 2.07 2.98 9.57 12.26 19.14 24.53 28.76 36.76.95 1.21 2.12 2.32 3.38 3.21 14.8 10.46 29.68 20.8 44.43 31.33 10.17 7.26 19.49 15.43 25.84 26.45.94 1.63 1.7 3.36 2.54 5.05-.18.3-.37.61-.55.91-1.31-.58-2.92-.86-3.9-1.79-21.11-20.06-44.64-36.91-69.25-52.33-.92-.58-1.88-1.11-3.26-1.92-.13 2-.34 3.53-.32 5.07.34 20.38-3.68 40.28-6.48 60.31-3.36 24.03-6.59 48.08-9.85 72.12-.77 5.7-1.8 11.32-5.74 15.83-1.38 1.54-3.11 2.73-5.26 4.59zm-11.43-294.14c-7.93-.35-15.84-.69-24-1.05-.36 11.44-.7 22.34-1.05 33.54 8.57-.36 16.75-.71 25.05-1.07 0-10.6 0-20.74 0-31.42zm-23.17 39.75c2.67 9.28 4.6 17.74 9.67 25.04 3.32 4.78 4.6 5.29 10.86 3.72 0-7.71-.16-15.51.07-23.29.1-3.48-.44-5.48-4.52-5.34-2.41.08-4.84-.91-7.27-.94-2.76-.03-5.52.49-8.81.81zm23.27-78.69c-7.7 9.25-17.65 15.86-18.59 28.73 6.86-.36 13.7-.71 20.71-1.08-.71-9.21-1.37-17.89-2.12-27.65z" fill="#010106"/></svg>