<svg enable-background="new 0 0 400 400" viewBox="0 0 400 400" xmlns="http://www.w3.org/2000/svg"><path d="m362.1 8.8c1.1.8 2.1 1.6 3.1 2.4l-1 1.1c-1.3-1.1-2.3-2-3-2.5zm1.9 4.8c.5.2.9.4 1.4.5-.6 2.3-1.3 4.5-1.9 6.8l-1.5-.5c.8-2.1 1.4-4.3 2-6.8zm-1-9.4c1.3.9 2.4 1.8 3.4 2.5l-1 1.1c-1.4-1.2-2.4-2.1-3.2-2.6zm3.7 2.2v-1.4h10.3v1.2c-.5 3.6-1.8 6.8-4 9.4 1.5 1.6 3.4 2.8 5.7 3.8-.3.4-.7.8-1.1 1.4-2.3-1.1-4.1-2.5-5.6-4.1-1.6 1.6-3.6 3.1-5.9 4.3-.3-.5-.7-.9-1-1.3 2.4-1.1 4.4-2.5 6-4.1-1.9-2.5-3-5.6-3.3-9.3h-1.1zm8.8 0h-6.4c.3 3.3 1.3 6 3 8.2 2-2.3 3.1-5.1 3.4-8.2z" fill="#fbfcfa"/><path d="m385.3 3.8h1.3v2.2h2.8v-2.2h1.3v2.2h4.1v9.1h1.7v1.3h-16.9v-1.3h1.7v-9.1h4.1v-2.2zm.4 13.1.7 1.2c-1.8.9-3.8 1.9-6 2.9-.2-.4-.5-.8-.8-1.3 2.3-1 4.3-1.9 6.1-2.8zm-3.1-6.4h2.8v-3.2h-2.8zm0 4.6h2.8v-3.3h-2.8zm4-4.6h2.8v-3.2h-2.8zm0 4.6h2.8v-3.3h-2.8zm3.7 1.9c2.1.9 4.1 1.8 6.1 2.7l-.7 1.3c-2.2-1.1-4.2-2-6.1-2.9zm3.2-9.7h-2.8v3.2h2.8zm-2.8 7.8h2.8v-3.3h-2.8z" fill="#fbfcfa"/><g fill="#010106"><path d="m197.52 341.99c1.79-5.2 3.31-9.48 4.75-13.79 6.01-18.04 11.82-36.14 14.77-54.99 1.41-8.99 2.29-17.98-.85-26.87-3.99-11.28-13.56-11.73-22.23-8.85-.76.25-1.3 2.11-1.42 3.27-2.17 21.96-5.43 43.73-11.37 65.03-5.62 20.17-13.45 39.34-25.79 56.44-1.24 1.71-2.58 3.35-4.18 4.92 12.78-39.04 21.57-78.77 22.26-120.85-2.31.56-4.7.55-6.35 1.65-5.08 3.39-10.34 6.74-14.71 10.95-13.94 13.44-24.82 29.38-35.65 45.3-5.15 7.57-10.07 15.3-15.44 23.49 0-.95-.1-1.33.01-1.63 9.38-23.88 19.71-47.3 34.33-68.53 7.34-10.65 15.64-20.5 27.07-27.1 2.78-1.61 5.95-2.53 8.82-4 .94-.48 2.13-1.74 2.1-2.62-.26-9.39-.74-18.77-1.18-28.63-23.95 11.31-48.59 17.34-75.07 14.05 2.87-1.18 5.73-2.39 8.62-3.54 22.17-8.9 43.4-19.66 63.31-32.83 5.31-3.51 10.2-8.13 14.14-13.15 6.45-8.23 5.05-18.62-2.68-26.31-8.61 19.3-24.79 29.32-43.85 35.57-12.23 4.01-24.79 4.91-37.62 2.97 28.17-13.71 52.92-31.67 72.8-56.12-4.84-2.31-9.57-4.28-14.01-6.76-15.15-8.45-22.94-21.6-22.41-38.81.55-17.65 8.72-31.11 24.77-39.38 19.7-10.15 37.97-6.22 54.96 6.07 8.26 5.97 11.74 15.41 13.68 25.1 2.86 14.29.62 27.66-9 39.12-5.55 6.61-13.1 9.9-21.36 11.76-1.17.26-2.34.54-3.88.89 2.06 1.75 3.87 3.2 5.58 4.77 10.33 9.5 12.95 21.05 8.8 34.23-3.07 9.76-8.62 18.15-15.05 25.97-1.83 2.23-2.54 4.43-2.48 7.3.22 9.74.19 19.48.26 29.22.01 1.21 0 2.42 0 3.88 4.6-.85 8.84-1.82 13.12-2.35 3.2-.39 6.51-.56 9.69-.19 11.12 1.3 16.92 6.85 19.41 18.17 2.42 11.01 1.72 22.05 0 33.05-2.75 17.56-7.27 34.58-16.11 50.18-5.08 9.04-11.51 16.97-20.56 23.95zm-17.36-243.68c17.84.04 29.25-9.22 31.79-22.02 2.79-14.05-2.85-24.28-16.51-29.9-1.45-.59-2.9-1.18-4.4-1.63-15.67-4.74-30.6 3.31-34.96 18.98-1.98 7.1-2.53 14.35 2.13 20.62 6.55 8.8 15.36 13.83 21.95 13.95z"/><path d="m234.06 321.83c20.68-45.46 48.45-86.6 78.1-126.72-2.47 8.76-4.69 17.61-7.47 26.27-3.58 11.16-7.41 22.25-11.51 33.23-4.87 13.05-12.24 24.64-22.25 34.36-11.78 11.43-23.81 22.61-35.73 33.91-.38-.36-.76-.7-1.14-1.05z"/><path d="m235.2 219.99c17.69-38.54 42.62-72.25 69.51-104.82-.89 3.58-1.61 7.22-2.71 10.74-4.39 14.07-8.71 28.17-13.43 42.13-3.81 11.26-10.59 20.56-19.76 28.23-10.54 8.83-21.78 16.62-33.61 23.72z"/><path d="m286.83 59.02c-1.85 6.04-3.62 12.11-5.55 18.13-5.12 15.98-11.19 31.56-19.61 46.14-10.17 17.6-28.59 32.34-46.24 40.38 22.58-36.37 41.38-74.19 71.4-104.65z"/><path d="m183.26 82.43c-7.25-.02-11.22-4.28-11.19-12.01.03-5.8 5.22-11.36 10.64-11.38 6.48-.03 13.39 6.03 13.36 11.71-.02 7.49-4.63 11.7-12.81 11.68z"/></g></svg>