<svg enable-background="new 0 0 400 400" viewBox="0 0 400 400" xmlns="http://www.w3.org/2000/svg"><path d="m120.95 225.61c-5.43.07-10.27.85-14.94 3.61-16.65 9.84-33.53 19.3-50.25 29.02-8.61 5-17.71 6.33-27.47 4.91-3.63-.53-4.98-2.75-5.55-5.7-.35-1.8-.46-4 .26-5.6 3.14-7.02 6.36-13.96 12.94-18.76 13.29-9.69 26.24-19.84 39.6-29.43 7.42-5.32 15.14-10.35 23.19-14.66 7.71-4.14 10.99-10.53 11.78-18.59.42-4.32.1-8.72-.06-13.07-.25-6.58-.9-13.16-.95-19.74-.14-17.8-.01-35.6-.11-53.39-.01-1.54-.49-3.34-1.38-4.57-4.06-5.66-5.73-12.06-6.32-18.83-.07-.86.41-1.95.98-2.64 3.4-4.16 6.83-8.3 10.42-12.29.74-.82 2.35-1.54 3.37-1.34 14.77 2.85 29.14-1.18 43.67-2.38 4.56-.38 9.14-1.04 13.7-.98 27.97.34 55.96.26 83.89 1.49 18.06.8 36.05 3.45 54.04 5.52 12.77 1.47 25.51 3.25 38.22 5.16 2.62.39 5.2 1.73 7.57 3.04 4.27 2.36 8.44 4.92 12.48 7.65 1.13.77 1.65 2.43 2.45 3.68-.18.43-.37.86-.55 1.28-6.02.74-12.03 2-18.05 2.09-6 .08-12.02-1.12-18.04-1.52-1.82-.12-3.75.36-5.54.86-9.57 2.67-18.94 6.26-29.11 5.93-9.17-.3-18.33-.64-27.49-.96-5.42-.19-7.42.72-8.06 6.09-.81 6.83-.46 13.8-.42 20.71 0 .71 1.15 1.54 1.92 2.1 4.71 3.47 10.15 5.07 15.83 6.01 6.67 1.11 12.6 3.63 17.24 9.03-5.32 3.37-11.03 4.47-17 5.02-5.31.49-10.58 1.48-15.86 2.3-1.66.26-2.29 1.26-2.32 3.04-.19 9.17-.47 18.35-.84 27.52-.08 1.88.56 2.78 2.29 3.46 9.55 3.77 19.51 5.65 29.66 6.73 7.45.79 14.95 1.34 21.86 4.66 4.52 2.17 8.35 5.08 10.65 10.25-6.46 1.31-12.67 2.52-18.85 3.85-5.03 1.08-9.92 1.05-15.13.54-6.91-.67-14.01.6-21.02 1.11-3.79.28-7.57.94-11.36.97-2.41.02-3.55.99-4.62 2.95-4.16 7.66-8.39 15.29-12.79 22.82-1.56 2.67-3.53 5.14-5.59 7.46-2.96 3.34-2.52 6.05 1.66 7.04 10.87 2.58 21.8 4.92 32.68 7.47 3.58.84 7.06 2.12 10.64 3.01 8.31 2.08 13.11 8.55 18.34 14.49.39.45.66 1.24.59 1.81-1.31 10.06.87 19.84 2.44 29.64 1.88 11.76-.05 22.72-4.87 33.61-4.62 10.44-13.37 17.19-20.54 25.37-.85.97-2.59 1.17-3.94 1.66-1.68.61-3.35 1.29-5.08 1.7-7.53 1.75-14.19 5.01-19.77 10.52-3.15 3.12-7.2 3.55-11.23 2.04-1.12-.42-2.05-1.96-2.55-3.2-.38-.93-.26-2.34.19-3.28 3.29-6.89 5.57-14.4 10.98-20.06 9.11-9.53 16.71-19.95 19.19-33.2 2.26-12.06-.96-23.28-6.28-34.02-.29-.59-1.12-1.18-1.77-1.28-11.56-1.75-23.13-3.42-34.92-5.14-1.96 13.21-3.84 25.57-5.63 37.95-1.63 11.29-3.1 22.6-4.75 33.88-.38 2.58-.49 5.54-4.05 6.16-3.49.61-8.77-1.54-10.14-4.32-3.65-7.37-5.2-15.21-4.8-23.4.72-14.42 1.7-28.82 2.16-43.25.11-3.64-1.16-7.39-2.18-10.98-.59-2.08-2.33-2.64-4.59-1.97-3.21.96-6.51 1.61-9.77 2.36-5.07 1.17-8.14 3.9-8.07 9.02.11 7.42-2.96 12.97-7.88 18.04-1.39 1.43-2.24 3.56-2.91 5.51-3.39 9.92-5.87 20.24-10.19 29.73-2.93 6.44-7.97 12.1-12.8 17.45-5.16 5.71-12.07 8.43-19.95 7.68-1.24-.12-2.77-.92-3.5-1.9-5.89-7.88-7.06-16.62-3.48-25.69 4.09-10.39 8.85-20.52 12.94-30.92 2.07-5.27 3.53-10.81 4.77-16.34.39-1.72-.24-4.62-1.47-5.54-2.14-1.61-4.92-.95-6.94 1.17-8.49 8.91-16.87 17.92-25.48 26.72-5.39 5.52-10.87 10.99-16.73 16-8.06 6.89-17.71 9.23-28.2 8.23-2.63-.25-4.61-3.29-3.68-6.34 1.48-4.88 2.93-9.7 7.92-12.67 5.08-3.02 9.74-6.75 14.51-10.27 1.01-.75 2.14-1.85 2.42-2.99.84-3.4 3.06-5.51 5.67-7.56 9.23-7.27 18.56-14.43 27.45-22.11 4.87-4.2 9.15-9.15 13.27-14.11 3.29-4.03 4.04-8.84 1.98-14.13zm82.52-60.73c4.03-.48 8.57-1.04 13.11-1.55 8.09-.92 13.04-5.17 14.07-13.41.66-5.27 1.78-10.63 1.38-15.84-.44-5.79-5.08-8.86-10.76-8.36-18.25 1.61-36.47 3.54-54.75 4.84-8.01.57-14.16 4.23-19.93 9.17-1.09.93-2.49 1.86-2.95 3.09-2.26 6.1-2.52 12.26.88 18.08.48.82 2.21 1.62 3.07 1.38 7.18-2.01 14.36-1.26 21.59-.54 11.25 1.1 22.49 2.06 34.29 3.14zm28.22-72.04c.3-.05.59-.1.89-.15-.83-4.78-1.5-9.6-2.57-14.32-.5-2.19-2.14-3.28-4.77-3.2-4.34.13-8.7-.33-13.06-.43-5.9-.14-11.83-.48-17.71-.18-7.9.4-15.78 1.26-23.65 2.07-4.53.47-9.04 1.13-13.52 1.91-6.7 1.16-9.97 5.13-10.3 12.07-.32 6.79-1.8 13.53 1.12 20.15 1.01 2.29 2.16 3.12 4.8 2.72 5.85-.88 11.75-1.44 17.64-1.92 8.91-.72 17.82-1.36 26.74-1.86 7.56-.43 15.13-.75 22.71-.86 6.63-.09 11.12-4.08 11.45-10.64.07-1.78.15-3.57.23-5.36zm-85.11 100.04c-.16 2.04-.19 3.82-.46 5.57-.69 4.39-1.12 8.88-2.35 13.12-1.13 3.88-.02 7.97 3.78 9.12 8.63 2.61 17.35 3.3 25.94-.23 8.14-3.35 14.57-9.08 20.35-15.53 3.54-3.96 6.65-8.31 9.91-12.43 6.34 2.46 5.85 8.84 7.61 13.83 4.74-2.21 6.59-5.69 6.73-10.49.07-2.53-.29-4.12-3.06-4.42-.88-.1-1.74-.45-2.62-.54-15.57-1.55-31.15-2.88-46.77-.52-6.29.96-12.61 1.67-19.06 2.52z" fill="#010000"/><g fill="#fbfcfa"><path d="m361.2 9.6.8-1c.9.7 1.9 1.4 2.9 2.3l-.9 1.1c-1-1-2-1.8-2.8-2.4zm.5 10.6c.9-2.1 1.6-4.3 2.3-6.7.4.2.8.4 1.3.6-.7 2.1-1.5 4.3-2.2 6.6zm.4-15.2.9-.9c1 .8 2 1.6 2.8 2.4l-1 1c-.9-.9-1.8-1.7-2.7-2.5zm12.5-1.2h1.2v1.4h2.7v1.1h-2.7v2.7h-1.2v-.6h-1.8v1.3h4.9v3.8h-1.2v-.5h-3.7c0 .4-.1.9-.1 1.2h5.1v1h-5.2c0 .5-.1.9-.2 1.2h6v1h-5.2c1.1 1.3 2.9 2 5.5 2.2-.4.4-.7.8-.9 1.3-2.9-.5-4.8-1.6-5.7-3.5h-.1c-.8 1.7-2.7 2.9-5.9 3.6-.2-.4-.6-.8-.9-1.1 2.8-.6 4.6-1.4 5.4-2.5h-4.8v-1h5.3c.1-.3.2-.7.2-1.2h-4.9v-1h5c0-.4 0-.8.1-1.2h-3.5v.5h-1.2v-3.8h4.9v-1.3h-1.8v.5h-1.2v-2.7h-2.7v-1h2.6v-1.4h1.2v1.4h4.7v-1.4zm-6.6 8.3h3.6c0-.4 0-.9 0-1.4h-3.6zm1.9-4.6h4.7v-1.3h-4.7zm6.6 3.2h-3.7v1.4h3.7z"/><path d="m385.3 3.8h1.3v2.2h2.8v-2.2h1.3v2.2h4.1v9.1h1.7v1.3h-16.9v-1.3h1.7v-9.1h4.1v-2.2zm.4 13.1.7 1.2c-1.8.9-3.8 1.9-6 2.9-.2-.4-.5-.8-.8-1.3 2.3-1 4.3-1.9 6.1-2.8zm-3.1-6.4h2.8v-3.2h-2.8zm0 4.6h2.8v-3.3h-2.8zm4-4.6h2.8v-3.2h-2.8zm0 4.6h2.8v-3.3h-2.8zm3.7 1.9c2.1.9 4.1 1.8 6.1 2.7l-.7 1.3c-2.2-1.1-4.2-2-6.1-2.9zm3.2-9.7h-2.8v3.2h2.8zm-2.8 7.8h2.8v-3.3h-2.8z"/></g></svg>