<svg enable-background="new 0 0 400 400" viewBox="0 0 400 400" xmlns="http://www.w3.org/2000/svg"><path d="m374.8 390.4.4-.4c.7.5 1.3 1 1.8 1.4l-.5.5c-.5-.6-1.1-1.1-1.7-1.5zm1 7.3-.6-.3c.5-1.4 1.1-2.8 1.5-4.3.2.1.4.2.6.3-.5 1.3-1 2.8-1.5 4.3zm-.4-10.3.4-.4c.4.3 1 .8 1.7 1.4l-.5.5c-.4-.5-1-1-1.6-1.5zm2.5.3h1.7v-1h.6v1h3.5v-1h.6v1h1.8v.5h-1.8v1.4h-2v1h3.2v2h-3.2v.9h3.3v.5h-3.4c0 .3-.1.6-.1.9h4v.5h-3.7c.7.9 1.9 1.5 3.8 1.7-.1.2-.2.4-.3.6-2.1-.4-3.5-1.1-4-2.1-.4 1-1.8 1.7-4 2.2-.1-.2-.2-.4-.3-.6 2.1-.4 3.4-1 3.8-1.8h-3.4v-.5h3.6c.1-.3.1-.6.2-.9h-3.3v-.5h3.4c0-.3 0-.6 0-.9h-3.2v-2h3.3v-1h-2.1v-1.4h-1.7v-.5zm1.1 3.5v1h2.7c0-.3 0-.4 0-.4 0-.1 0-.2 0-.2 0-.1 0-.2 0-.3h-2.7zm1.2-3v.9h3.5v-.9zm4.7 3h-2.6v.6.4h2.6z" fill="#fbfcfa"/><path d="m393.6 386.7h.6v1.5h2.7v6.1h1.1v.6h-11v-.6h1.1v-6.1h2.7v-1.5h.6v1.5h2.1v-1.5zm-2.7 8.8.4.6c-1.2.6-2.5 1.3-3.8 1.9-.1-.2-.2-.4-.3-.6 1.2-.6 2.5-1.2 3.7-1.9zm-2.2-6.7v2.4h2.1v-2.4zm0 3v2.5h2.1v-2.5zm2.8-3v2.4h2.1v-2.4zm0 3v2.5h2.1v-2.5zm6 6.1c-1.4-.7-2.7-1.3-3.9-1.8l.3-.6c1.5.6 2.7 1.2 3.9 1.7zm-1.2-9.1h-2.1v2.4h2.1zm-2.1 3v2.5h2.1v-2.5z" fill="#fbfcfa"/><g fill="#010106"><path d="m107.39 278.94c9.23.76 18.01 1.48 26.78 2.21 3.79.32 7.57.84 11.37.95 2.29.06 4.73-.11 6.87-.84 8.34-2.86 16.76-5.61 24.82-9.15 4.73-2.08 9.13-5.22 13.16-8.52 7.42-6.07 8.95-14.26 7.4-23.39-2.42-14.2-8.15-27.12-14.86-39.7-.21-.39-.46-.78-.77-1.1-9.18-9.64-18.36-19.27-27.77-29.15-14.81 21.56-29.68 42.76-55.64 52.14-1.19-2.44.08-3.78 1.54-5.35 11.38-12.17 23.02-24.12 33.88-36.75 8.08-9.4 12.65-20.75 14.35-33.13.12-.89.22-1.78.28-2.67.05-.77.01-1.54.01-2.69-6.43-.84-12.82-1.71-19.21-2.51-6.1-.77-12.27-1.17-18.3-2.32-4.18-.8-7.67.74-11.36 1.86-2.03.62-4.14 1.1-6.04 2.01-2.92 1.39-4.07 0-4.8-2.52-2.06-7.12-.95-14.23.15-21.3 1.65-10.6 3.51-21.18 5.35-31.75.16-.92.62-1.97 1.28-2.61 11.42-11.09 23.16-21.74 37.49-29.12 8.39-4.33 17.51-5.24 26.58-6.37 15.43-1.91 30.91-3.45 46.31-5.52 4.37-.59 8.57-2.47 12.83-3.81 9.17-2.89 18.25-6.07 27.51-8.6 4.78-1.31 9.86-1.77 14.84-2.06 5-.29 6.96 3.65 8.91 7.6-7.34 6.11-9.76 14.12-9.59 23.35.15 8.59-1.64 16.89-5.08 24.79-.61 1.4-1.12 2.47.71 3.6 8.8 5.43 15.63 13.01 22.11 20.89 9.03 10.99 17.57 22.33 24.12 35.04 3.72 7.22 5.26 13.23 4.35 19.25-1.87-1.1-3.75-1.7-4.88-2.96-16.91-18.82-33.72-37.72-50.54-56.62-.66-.74-1.16-1.63-1.65-2.32-4.96 4.98-9.45 9.49-13.96 14.02 14.01 16.99 28.05 34.21 31.14 57.5-4.48.99-7.67.62-10.21-3.35-5.55-8.66-11.68-16.94-17.26-25.58-6.07-9.41-14.33-14.03-25.63-13.33-2.97.18-4.15 1.5-4.58 4.13-.55 3.43.73 6.24 2.42 9.15 9.52 16.45 18.89 32.99 28.3 49.5.1.18.09.43.12.65-5.56 2.76-6.11 2.63-9.95-2.03-14.66-17.79-29.36-35.56-43.96-53.41-1.39-1.7-2.7-2.33-4.83-1.98-3.53.59-7.09.94-11.05 1.45.26 4.8.52 9.55.79 14.31.04.67.24 1.35.18 2-.87 8.7 3.03 15.55 7.83 22.41 10.71 15.31 20.99 30.92 31.31 46.49 1.01 1.53 1.57 3.7 1.51 5.54-.31 9.51-.88 19.01-1.38 28.51-.05.87-.06 1.88-.5 2.58-6.77 10.85-13.75 21.5-25 28.46-1.07.66-2.1 2.58-1.96 3.78.65 5.76 1.61 11.49 2.71 17.18.18.91 1.53 1.79 2.53 2.32 7.58 4.04 15.74 6.25 24.16 7.73 8.23 1.44 14.96 5.55 20.94 12.11-14.3 3.18-27.93.19-41.55-1.34.72 7.81 2.48 15.59 1.85 23.17-.64 7.66-3.64 15.11-6.36 22.79-4.47-13.45-8.95-26.91-13.61-40.92-1.11 1.07-1.93 1.87-2.76 2.66-4.77 4.56-9.43 9.24-14.33 13.65-5.2 4.68-11.39 7.01-18.45 6.69-1.91-.09-4.14-.29-4.31-2.69-.09-1.2.85-2.76 1.79-3.69 10.76-10.77 21.58-21.48 32.48-32.11 1.57-1.53 2.05-2.83 1.33-4.93-1.37-4.02-2.61-8.09-3.61-12.21-.55-2.27-1.84-3.21-3.87-4.04-9.67-3.92-19.84-4.08-30.03-4.33-9.64-.24-17.47-4.21-23.48-11.75-.41-.48-.7-1.05-1.27-1.95zm103.55-193.41c-.16-.02-.33-.05-.49-.07 0-1.01.05-2.01-.01-3.02-.4-7.2-1.9-13.98-7.52-19.1-3.05-2.78-6.22-4.78-10.82-3.65-3.99.98-8.17 1.16-12.28 1.62-9.64 1.09-18.91 3.26-27.1 8.83-1.36.93-1.84 1.69-1.52 3.49 1.26 7.02 2.56 14.06 3.19 21.16.76 8.65 3.12 16.65 7.84 23.91.76 1.16 2.15 2.26 3.47 2.65 11.2 3.25 21.56.77 31.52-4.73 6.52-3.6 10.4-8.9 11.52-16.24.75-4.94 1.47-9.9 2.2-14.85zm-73.73-17.97c-5.93 4.95-10.71 9.35-15.91 13.18-8.03 5.9-11.4 14.31-13.58 23.47-1.21 5.11-.3 10.01 2.03 14.61.53 1.04 1.65 2.12 2.74 2.48 5.82 1.95 11.68 3.78 17.58 5.44 6.24 1.76 12.45 1.6 19.08-.95-8.33-11.53-9.7-24.35-9.28-37.84.19-6.46-1.62-12.98-2.66-20.39zm82.14-11.83c2.93 14.74 5.81 29.26 8.81 44.36 1.78-1.22 3.63-1.8 4.17-2.99 4.94-10.73 10.14-21.39 14.24-32.44 2.49-6.73-.42-12.98-5.8-16.45-.82-.53-2.2-1.01-2.97-.68-6.15 2.6-12.22 5.4-18.45 8.2z"/><path d="m172.21 78.64c4.95.07 8.91 1.24 12.14 4.34 3.72 3.57 4.64 8.94 2.23 13.5-.33.63-1.48 1.25-2.18 1.19-3.43-.33-6.84-.89-10.54-1.4-.56-5.92-1.1-11.7-1.65-17.63z"/></g></svg>