<svg enable-background="new 0 0 400 400" viewBox="0 0 400 400" xmlns="http://www.w3.org/2000/svg"><g fill="#010104"><path d="m355.4 250.34c-7.45 4.7-15.38 6.68-23.47 7.72-15.75 2.03-31.59 3.38-47.32 5.51-11.62 1.58-23.15 3.88-34.69 6-28.37 5.22-56.9 9.71-85.03 16-34.02 7.61-67.75 16.53-101.47 25.39-13.67 3.6-26.32 2.47-38.45-4.57-1.43-.83-2.37-2.5-4.11-4.41 25.27-7.88 49.52-15.44 73.77-23-.01-.21-.02-.42-.03-.63-5.07-1.02-10.16-1.99-15.22-3.07-15.14-3.22-21.22-8.85-23.45-24.03-2.42-16.47-5.13-32.95-4.68-49.73.53-19.72 4.12-38.88 10.02-57.65.2-.63.46-1.26.79-1.84 7.68-13.51 15.34-27.03 23.09-40.51.7-1.22 1.87-2.2 2.92-3.2 7.37-7.01 9.7-15.31 6.52-25.05-3.05-9.34-6.12-18.68-9.16-28.02-.23-.72-.28-1.51-.54-3 12.01 7.3 24.96 12.48 30.33 26.51 2.23 5.83 2.42 11.84 1.26 17.84-2.55 13.23-6.46 26.04-13.01 37.9-1.15 2.08-2.8 4.03-4.62 5.58-5.1 4.35-9.31 9.28-12.17 16.45 5.85 1.87 11.42 4.22 17.22 5.37 9.74 1.92 19.64 3.01 29.46 4.57 2.18.35 3.27-.58 4.3-2.26 4.83-7.9 5.08-16.47 2.91-25-2.99-11.69-6.53-23.24-10.18-34.74-1.12-3.51-3.35-6.67-5.55-10.9 3.74 1.81 6.68 3.06 9.45 4.59 7.6 4.2 16.22 6.61 22.64 12.85.81.79 1.78 1.89 1.85 2.91.79 11.37 1.85 22.75 2 34.14.23 17.96-2.29 35.69-6.12 53.23-.62 2.84-1.26 5.69-1.59 8.57-.7 6.03 2.3 9.61 8.33 10.23 8.52.88 16.64-.82 24.69-3.51 28.19-9.4 56.34-18.94 84.67-27.91 18.3-5.8 37.13-7.82 56.35-5.5 8.65 1.04 17.42 1.18 26.02 2.47 6.66 1 11.4 4.96 12.79 12.59-4.82.84-9.57 1.88-14.38 2.49-33.94 4.26-66.81 13.37-99.77 22.06-3.35.88-6.68 1.89-10.08 2.55-13.43 2.61-25.88 7.53-37.21 15.28-1.24.85-3.39 1.03-4.92.69-9.48-2.14-19.01-4.2-28.33-6.94-6.07-1.79-11.81-4.68-18.04-7.22-11.24 18.68-22.5 37.42-34.19 56.86 7.28-1.67 13.8-3.14 20.3-4.66 34.71-8.15 69.42-16.32 104.13-24.46 1.41-.33 2.86-.69 4.3-.72 9.2-.19 18.14-1.45 26.96-4.4 9.6-3.21 19.55-4.3 29.78-3.22 10.23 1.07 20.54 1.26 30.79 2.15 8.27.72 15.19 4.17 20.14 11.65zm-288.36-42.55c0 7.03-.55 13.52.11 19.89 1.69 16.51 10.03 22.48 25.35 26.55 1.24.33 2.77.34 3.97-.07 7.21-2.47 13.89-6.15 18.23-12.45 3.45-5 5.86-10.78 8.26-16.41 1-2.35 1.02-5.22 1-7.86-.01-2.11-1.31-3.08-3.66-2.31-3.93 1.28-8.05 2.03-11.87 3.55-4.57 1.82-8.65 1.37-13.14-.45-8.99-3.64-18.19-6.76-28.25-10.44zm10.1-43.5c-2.72 8.11-5.22 15.82-7.91 23.46-1.08 3.07.35 4.68 2.95 5.09 3.94.62 8.04 1.34 11.93.87 11.19-1.35 22.3-3.34 33.47-4.9 1.24-.17 3.02.48 3.92 1.38 2.96 2.96 5.64 6.2 8.85 9.81 1.31-3.14 2.61-5.62 3.37-8.25 1.72-5.9-.3-9.84-6.24-11.69-4.46-1.4-9.05-2.51-13.67-3.21-9.49-1.43-19.01-2.47-27.34-7.94-2.58-1.69-5.57-2.79-9.33-4.62z"/><path d="m69.28 329.69c2.29 0 4.93-.75 6.82.12 10.63 4.89 21.69 3.28 32.7 2.72 10.39-.53 20.81-.79 31.14-1.86 13.89-1.44 27.74-3.35 41.55-5.41 21.91-3.27 43.65-7.43 64.74-14.38 18.47-6.08 36.85-12.43 55.27-18.65 15.11-5.1 30.63-8.28 46.49-9.79 1.93-.18 4.1.01 5.87.73 4.23 1.73 8.45 3.6 12.34 5.97 2.06 1.25 3.9 3.42 4.98 5.6 2 4.02.92 5.8-3.36 6.93-1.4.37-2.8.83-4.23 1.05-6.41.99-11.74 3.85-16.22 8.58-1.21 1.28-3.12 2.15-4.87 2.65-21.17 6.04-42.25 12.43-63.59 17.79-14.72 3.7-29.8 5.97-44.73 8.82-17.35 3.31-34.71 6.54-52.07 9.8-.87.16-1.78.39-2.65.33-19.08-1.29-37.6 3.04-56.28 5.71-3.54.51-7.08 1.04-10.59 1.75-2.86.58-5.3-.19-8.02-1.13-14.64-5.08-24.27-16.7-35.51-26.22.08-.37.15-.74.22-1.11z"/><path d="m181.95 155.45c9.29-2.65 18.18-5.26 27.1-7.72 25.1-6.92 49.97-14.51 74.4-23.6 18.46-6.87 37.48-8.15 56.78-4.07 6.87 1.45 13.77 2.91 20.44 5.06 4.95 1.59 9.11 4.73 10.81 10.68-6.57.91-12.94 1.82-19.31 2.68-18.39 2.48-36.88 4.46-55.15 7.62-9.39 1.63-18.43 5.31-27.61 8.14-18.79 5.79-37.55 11.67-56.36 17.39-1.79.54-3.93.44-5.81.11-3.07-.53-6.03-1.8-9.11-2.2-5.15-.68-8.83-3.13-11.42-7.6-1.28-2.2-3-4.13-4.76-6.49z"/><path d="m328.21 79.45c-4.17 1.12-8.28 3.37-12.23 3.1-18.75-1.28-36.29 4.31-54.07 8.57-27.17 6.51-54.32 13.08-81.42 19.86-3.99 1-6.86-.94-10.17-1.99-3.23-1.02-5.91-2.56-6.59-6.52 3.52-1.28 7.09-2.53 10.62-3.87 20.68-7.84 41.27-15.91 62.04-23.48 15.28-5.57 31.17-8.85 47.39-10.16 3.27-.27 6.63.74 9.97.97 7.36.52 14.75.63 22.07 1.44 7.06.8 10.71 4.46 12.39 12.08z"/></g><path d="m385.2 377.6.6-.7c.6.4 1.3.9 1.9 1.5l-.6.7c-.8-.5-1.4-1-1.9-1.5zm.3 7.1c.6-1.4 1.1-2.9 1.5-4.5.3.1.6.3.9.4-.5 1.4-1 2.9-1.5 4.4zm.2-10.1.6-.6c.7.5 1.3 1.1 1.9 1.6l-.7.7c-.6-.6-1.2-1.2-1.8-1.7zm8.4-.8h.8v.9h1.8v.7h-1.8v1.8h-.8v-.3h-1.2v.9h3.3v2.6h-.8v-.4h-2.5c0 .3 0 .6-.1.8h3.4v.7h-3.5c0 .3-.1.6-.1.8h4v.7h-3.5c.7.9 1.9 1.3 3.6 1.5-.2.2-.4.5-.6.9-1.9-.3-3.2-1.1-3.8-2.3-.5 1.1-1.8 2-3.9 2.4-.2-.3-.4-.5-.6-.8 1.9-.4 3.1-.9 3.6-1.7h-3.2v-.7h3.5c.1-.2.1-.5.2-.8h-3.3v-.7h3.4c0-.2 0-.5 0-.8h-2.4v.3h-.8v-2.6h3.3v-.9h-1.2v.3h-.8v-1.8h-1.8v-.7h1.8v-.9h.8v.9h3.2zm-4.4 5.5h2.4c0-.3 0-.6 0-.9h-2.4zm1.2-3.1h3.2v-.8h-3.2zm4.4 2.2h-2.4v.9h2.5v-.9z" fill="#fcfbfa"/><path d="m389.2 385.8h.9v1.5h1.9v-1.5h.9v1.5h2.7v6h1.1v.9h-11.3v-.9h1.1v-6h2.7zm.2 8.7.5.8c-1.2.6-2.5 1.3-4 1.9-.2-.3-.3-.6-.6-.8 1.6-.6 3-1.3 4.1-1.9zm-2-4.3h1.9v-2.1h-1.9zm0 3.1h1.9v-2.2h-1.9zm2.7-3.1h1.9v-2.1h-1.9zm0 3.1h1.9v-2.2h-1.9zm2.4 1.3c1.4.6 2.7 1.2 4.1 1.8l-.5.9c-1.5-.7-2.8-1.4-4.1-1.9zm2.2-6.5h-1.9v2.1h1.9zm-1.9 5.2h1.9v-2.2h-1.9z" fill="#fcfbfa"/></svg>