<svg enable-background="new 0 0 400 400" viewBox="0 0 400 400" xmlns="http://www.w3.org/2000/svg"><path d="m374.8 390.4.4-.4c.7.5 1.3 1 1.8 1.4l-.5.5c-.5-.6-1.1-1.1-1.7-1.5zm1 7.3-.6-.3c.5-1.4 1.1-2.8 1.5-4.3.2.1.4.2.6.3-.5 1.3-1 2.8-1.5 4.3zm-.4-10.3.4-.4c.4.3 1 .8 1.7 1.4l-.5.5c-.4-.5-1-1-1.6-1.5zm2.5.3h1.7v-1h.6v1h3.5v-1h.6v1h1.8v.5h-1.8v1.4h-2v1h3.2v2h-3.2v.9h3.3v.5h-3.4c0 .3-.1.6-.1.9h4v.5h-3.7c.7.9 1.9 1.5 3.8 1.7-.1.2-.2.4-.3.6-2.1-.4-3.5-1.1-4-2.1-.4 1-1.8 1.7-4 2.2-.1-.2-.2-.4-.3-.6 2.1-.4 3.4-1 3.8-1.8h-3.4v-.5h3.6c.1-.3.1-.6.2-.9h-3.3v-.5h3.4c0-.3 0-.6 0-.9h-3.2v-2h3.3v-1h-2.1v-1.4h-1.7v-.5zm1.1 3.5v1h2.7c0-.3 0-.4 0-.4 0-.1 0-.2 0-.2 0-.1 0-.2 0-.3h-2.7zm1.2-3v.9h3.5v-.9zm4.7 3h-2.6v.6.4h2.6z" fill="#fbfcfa"/><path d="m393.6 386.7h.6v1.5h2.7v6.1h1.1v.6h-11v-.6h1.1v-6.1h2.7v-1.5h.6v1.5h2.1v-1.5zm-2.7 8.8.4.6c-1.2.6-2.5 1.3-3.8 1.9-.1-.2-.2-.4-.3-.6 1.2-.6 2.5-1.2 3.7-1.9zm-2.2-6.7v2.4h2.1v-2.4zm0 3v2.5h2.1v-2.5zm2.8-3v2.4h2.1v-2.4zm0 3v2.5h2.1v-2.5zm6 6.1c-1.4-.7-2.7-1.3-3.9-1.8l.3-.6c1.5.6 2.7 1.2 3.9 1.7zm-1.2-9.1h-2.1v2.4h2.1zm-2.1 3v2.5h2.1v-2.5z" fill="#fbfcfa"/><g fill="#010101"><path d="m157.36 41.54c7.01-2.65 13.41-3.82 20.11-3.11 2.88.3 5.83.24 8.65.81 2.98.61 5.83 1.82 8.76 2.68 2.22.65 4.47 1.16 6.71 1.7 2.25.54 4.51 1.04 6.76 1.58 2.04.49 4.06 1.05 6.1 1.53 2.16.51 4.35.89 6.49 1.44 5.58 1.43 11.12 3.03 16.73 4.33 2.37.55 4.92.74 6.5-1.98.25-.42 1.25-.78 1.73-.63 5.86 1.79 9.18-2.58 12.15-5.87 5.29-5.86 9.68-12.55 14.87-19.46.9 1.49 2.04 2.57 2.2 3.79.65 4.94 1.39 9.92 1.36 14.88-.05 7.02-.62 14.05-1.3 21.05-.19 1.98-1.16 4.13-2.41 5.7-4.8 6.03-9.75 11.96-14.86 17.72-4.29 4.84-3.76 8.98 1.78 11.99 1.56.85 3.01 1.96 4.33 3.15 5.11 4.63 10.2 9.29 15.18 14.06 1.65 1.59 2.93 3.56 4.39 5.36-.16.38-.33.76-.49 1.15-1.58-.24-3.4-.06-4.68-.81-5.01-2.91-9.88-6.08-14.75-9.22-2.15-1.39-4.18-2.94-6.93-4.89-.37 8.03-.38 15.42 3.99 21.75 3.09 4.47 7.19 8.25 10.7 12.44 1.47 1.75 2.46 3.9 3.92 5.66.84 1.01 2.08 1.86 3.32 2.33 4.52 1.71 9.19 9.6 8.35 15.62-2.19-1.24-4.35-2.01-5.91-3.44-5.76-5.26-11.31-10.75-16.96-16.13-.31-.29-.74-.45-1.63-.96-.48 5.01-.82 9.72-1.44 14.39-.3 2.27-.9 4.57-1.8 6.68-1.13 2.66-.51 6.62 1.75 8.46.61.49 1.21 1.01 1.89 1.4 4.64 2.66 7.59 6.6 9.8 11.45 1.4 3.08 3.95 5.63 5.86 8.49 1.23 1.85 2.25 3.84 3.36 5.77-.32.25-.63.49-.95.74-.73-.54-1.54-1.01-2.18-1.64-6.18-6-12.35-12-18.48-18.06-2.86-2.83-5.61-2.38-6.1 1.62-.92 7.48-2.54 14.84-1.37 22.61 3.79 25.19 9.58 49.99 14.1 75.04.76 4.24 1.83 8.42 2.41 12.68.17 1.28-.72 2.76-1.32 4.06-.33.73-1.05 1.29-1.08 1.34.98 1.53 2.09 2.48 2.17 3.5.5 6.37-.57 12.5-3.63 18.16-1.47 2.72-1.93 5.29-.58 8.28 1.33 2.94 2.36 6.05 3.1 9.19.44 1.88.08 3.95.08 5.93-.37.08-.74.15-1.11.23-2.67-3.4-5.33-6.8-8.33-10.63-2.83 4.44-5.63 7.89-7.32 11.81-1.21 2.81-1.25 6.26-1.22 9.42.05 4.46.77 8.9.98 13.36.07 1.43-.57 2.89-.89 4.33-.42.02-.83.04-1.25.07-1.32-5.92-2.64-11.85-4.19-18.77-7.02 6.89-13.27 13.02-19.53 19.16-.43-.31-.86-.63-1.28-.94.46-1.17.68-2.52 1.41-3.49 5.37-7.09 10.91-14.05 16.23-21.18 1.79-2.4 3.08-5.16 4.59-7.76-.25-.15-.5-.31-.75-.46-5.63 3.61-11.17 7.37-16.93 10.76-2.66 1.56-5.74 2.42-8.92 1.13.03-.38-.03-.7.08-.77 9.17-6.16 18.35-12.31 27.53-18.45 1.76-1.18 3.64-2.21 5.3-3.53 2.22-1.76 4.11-3.76 3.78-7.03-.09-.88.61-1.84.93-2.77.77-2.26 1.53-4.53 2.59-7.68-7.51 5.65-14.14 10.64-20.77 15.63-.32-.29-.64-.58-.96-.87.51-.95.86-2.06 1.57-2.83 5.55-5.98 11.04-12.03 16.84-17.77 2.23-2.21 3.65-4.27 3.23-7.51-.28-2.21.67-5-.39-6.54-.93-1.36-3.84-1.48-5.93-1.92-18.02-3.81-36.11-7.31-54.05-11.46-8.43-1.95-16.6-5.07-24.85-7.77-1.54-.5-9.86.62-11.25 1.85-3.97 3.53-12.63 5.1-15.68 2.25-1.88-1.76-2.85-4.6-3.97-7.07-1.04-2.31-1.83-4.75-2.55-7.18-.25-.83-.28-2 .13-2.71 5.06-8.73 17.96-13.22 27.43-9.63 2.55.97 4.95 6.45 4.26 9.72-1.54 7.24-1.49 7.03 5.76 8.8 8.01 1.96 15.86 4.53 23.88 6.48 4.39 1.07 9 1.18 13.42 2.12 2.67.57 5.11 2.29 7.79 2.79 7.49 1.4 14.34 5.68 23.34 5.2-1.67-2.92-2.72-5.35-4.28-7.4-11.19-14.77-19.53-30.83-23.46-49.12-1.26-5.86-3.51-11.54-5.73-17.14-4.3-10.84-7.15-21.85-5.41-33.64.3-2.06.33-4.1-2.58-4.55-3.21 4.89-3.13 11.47-8.73 15.47 0-2.03-.14-4.08.04-6.09.19-2.11.77-4.18 1.02-6.29.79-6.54.25-7.54-5.45-10.62-8.45-4.58-16.58-9.96-25.44-13.5-7.81-3.12-13.44-9.31-20.98-12.54-2.97-1.27-5.91-2.63-8.88-3.92-4.08-1.78-8.04-1.05-11.48 1.35-2.95 2.06-5.75 1.95-8.89.98-6.99-2.18-11.5-9.29-9.96-16.43.94-4.35 1.02-8.95 4.99-12.4 6.9-5.98 14.51-6.21 22.3-3.16 4.78 1.87 4.53 7.05 4.85 11.31.18 2.41-.35 4.91-.82 7.32-.74 3.83.93 6.49 4.19 7.86 11.94 5.04 21.95 13.58 34.32 18.02 7.88 2.83 14.94 7.91 22.06 11.81 3.21-1.41 1.99-6.35 5.86-6.32 2.71 4.09-.25 9.75 5.02 13.55.7-2.35 1.5-4.15 1.76-6.03 1.4-10.16 2.66-20.33 4.01-30.5.26-1.99.94-3.94 1.07-5.93.15-2.37-.24-4.77-.13-7.15.11-2.42.4-4.86.88-7.24.65-3.22.44-5.25-3.26-6.98-8.15-3.81-15.9-8.47-23.82-12.77-.78-.42-1.61-.8-2.46-1.05-9.94-2.91-18.24-8.9-26.83-14.31-1.55-.98-2.89-2.5-3.91-4.05-1.36-2.07-.96-4.07 1.4-5.32 1.18-.63 2.42-1.16 3.65-1.7 4.63-2.03 4.96-3.56 1.83-7.46-1.18-1.46-2.24-3.08-3.02-4.78-.57-1.23-.6-2.72-.9-4.24 3.51.64 14.4 12.46 15.55 16.59-.51.32-1.03.89-1.62.96-3.43.45-6.95.49-10.28 1.3-1.62.39-2.9 2.16-4.84 3.71 5.2 2.85 9.35 5.5 13.8 7.48 9.5 4.22 19.18 8.03 28.72 12.16 2.62 1.14 5.12 2.66 7.47 4.3 4.71 3.31 17.09 3.85 22.13 1.02 3.79-2.12 7.88-3.7 11.63-5.88 1.24-.72 2.55-2.56 2.59-3.92.21-7.59-.03-15.19.06-22.78.03-2.61-1.37-3.93-3.54-3.95-17.64-.15-32.9-9.68-49.86-12.47-10.14-1.67-20.24-3.56-30.36-5.37-1.09-.19-2.15-.47-3.98-.89zm64.59 171.4c2.5 8.6 5.26 16.55 7.07 24.71 2.23 10.01 6.06 19.06 12.57 27.01 1.54 1.88 2.46 4.27 3.89 6.26 3.76 5.23 7.65 10.36 11.49 15.54.39-.2.78-.4 1.17-.61-3.95-27.91-7.05-55.94-12.6-84.81-7.2 6.71-14.88 10.09-23.59 11.9zm-3.4-58.96c-.42 5.19 3.35 8.59 5.25 12.64.49 1.04 2.36 2.1 3.53 2.02 6.59-.44 12.58-2.77 17.99-6.56 1.27-.89 2.51-1.91 3.92-2.51 4.53-1.92 5.65-3.54 4.95-8.51-1.02-7.28-2.16-14.55-3.35-21.81-.57-3.47-1.71-4.08-5.08-3.22-5.51 1.4-10.98 3-16.55 4.06-5.98 1.14-6.15.88-7.45 6.83-1.22 5.65-2.15 11.37-3.21 17.06zm33.19 9.74c-2.98 1.89-5.24 3.64-7.76 4.83-2.38 1.13-5.02 1.73-7.58 2.47-4.23 1.23-8.35 3.51-12.95 1.67-1.89-.76-3.7-1.74-5.54-2.62-.49 2.02-.91 4.05-1.48 6.05-2.13 7.44-2.7 14.69.05 22.29 2.84 7.85 11.34 11.27 17.66 5.83 4.53-3.9 8.22-8.78 12.25-13.25.28-.31.45-.79.5-1.21 1.05-7.86 2.53-15.61 5.55-23.01.37-.87-.49-2.24-.7-3.05zm-3.04-48.89c-.69-4.18-1.3-8.38-2.09-12.55-.72-3.82-1.96-4.42-5.48-2.71-4.72 2.3-9.36 4.78-14.12 6.99-1.83.85-2.19 1.97-2.28 3.86-.19 3.85-.87 7.68-1.22 11.53-.11 1.26-.27 3.31.35 3.66 1.05.59 3.15.68 4.03 0 4.79-3.73 10.6-4.1 16.13-5 3.83-.63 5.03-2.2 4.68-5.78zm3.15-35.56c4.59-.42 10.02-5.36 12.15-10.18 3.44-7.8 5.69-15.79 4.8-24.04-5.53 3.92-10.69 7.52-15.78 11.23-.73.53-1.6 1.53-1.59 2.31.03 6.88.26 13.76.42 20.68zm-120.42 40.82c-.22-1.5-.33-3.29-.78-5-1.04-3.96-6.21-6.93-9.72-5.25-3.07 1.47-6.02 3.39-8.62 5.59-2.81 2.38-2.53 10.94.32 12.97 4.59 3.28 9.6 2.87 14.65.99 4.42-1.66 3.64-5.59 4.15-9.3zm27.3 131.82c-.83.45-2.5 1.06-3.78 2.12-1.61 1.34-2.96 3.03-4.34 4.63-2.25 2.63-2.16 7.23.12 9.5 2.34 2.32 6.59 2.11 9.32-.43 1.14-1.06 2.3-2.11 3.52-3.08 2.49-1.97 4.05-5.93 3.15-8.56-1.14-3.35-4.1-3.71-7.99-4.18z"/><path d="m214.98 91.71c-7.88-.16-11.9-5.45-10.04-13.15.55-2.27.6-4.65 1.12-6.93.24-1.06.83-2.62 1.62-2.89 3.64-1.25 7.41-2.94 11.14-2.94 6.75-.01 10.19 3.98 9.93 10.81-.32 8.48-3.1 13.28-8.79 14.52-1.62.35-3.31.39-4.98.58zm1.59-5.75c5.32-.02 7.44-2.26 7.49-7.91.04-4.21-2.95-7.29-7.06-7.28-2.65.01-7.85 5.11-7.87 7.71-.03 3.61 3.84 7.5 7.44 7.48z"/></g></svg>