<svg enable-background="new 0 0 400 400" viewBox="0 0 400 400" xmlns="http://www.w3.org/2000/svg"><path d="m374.8 390.4.4-.4c.7.5 1.3 1 1.8 1.4l-.5.5c-.5-.6-1.1-1.1-1.7-1.5zm1 7.3-.6-.3c.5-1.4 1.1-2.8 1.5-4.3.2.1.4.2.6.3-.5 1.3-1 2.8-1.5 4.3zm-.4-10.3.4-.4c.4.3 1 .8 1.7 1.4l-.5.5c-.4-.5-1-1-1.6-1.5zm2.5.3h1.7v-1h.6v1h3.5v-1h.6v1h1.8v.5h-1.8v1.4h-2v1h3.2v2h-3.2v.9h3.3v.5h-3.4c0 .3-.1.6-.1.9h4v.5h-3.7c.7.9 1.9 1.5 3.8 1.7-.1.2-.2.4-.3.6-2.1-.4-3.5-1.1-4-2.1-.4 1-1.8 1.7-4 2.2-.1-.2-.2-.4-.3-.6 2.1-.4 3.4-1 3.8-1.8h-3.4v-.5h3.6c.1-.3.1-.6.2-.9h-3.3v-.5h3.4c0-.3 0-.6 0-.9h-3.2v-2h3.3v-1h-2.1v-1.4h-1.7v-.5zm1.1 3.5v1h2.7c0-.3 0-.4 0-.4 0-.1 0-.2 0-.2 0-.1 0-.2 0-.3h-2.7zm1.2-3v.9h3.5v-.9zm4.7 3h-2.6v.6.4h2.6z" fill="#fbfcfa"/><path d="m393.6 386.7h.6v1.5h2.7v6.1h1.1v.6h-11v-.6h1.1v-6.1h2.7v-1.5h.6v1.5h2.1v-1.5zm-2.7 8.8.4.6c-1.2.6-2.5 1.3-3.8 1.9-.1-.2-.2-.4-.3-.6 1.2-.6 2.5-1.2 3.7-1.9zm-2.2-6.7v2.4h2.1v-2.4zm0 3v2.5h2.1v-2.5zm2.8-3v2.4h2.1v-2.4zm0 3v2.5h2.1v-2.5zm6 6.1c-1.4-.7-2.7-1.3-3.9-1.8l.3-.6c1.5.6 2.7 1.2 3.9 1.7zm-1.2-9.1h-2.1v2.4h2.1zm-2.1 3v2.5h2.1v-2.5z" fill="#fbfcfa"/><g fill="#010101"><path d="m193.61 331.56c-7.06 6.28-11.84 15.43-23.21 17.42 1.14-2.71 1.7-4.87 2.86-6.65 6.07-9.26 11.96-18.67 18.6-27.51 3.08-4.1 7.61-7.17 11.7-10.44 2.29-1.83 3.13-3.78 3.22-6.75.24-8.04 1.13-16.06 1.47-24.1.2-4.78-.01-9.6-.31-14.38-.07-1.14-1.2-2.21-2.01-3.6-9.24 11.41-14.53 25.16-26.88 32.97-.28-.18-.56-.35-.84-.53.73-1.82 1.45-3.64 2.2-5.45 2.6-6.3 5.16-12.62 7.86-18.87.78-1.81 2.06-3.39 3.02-5.13.85-1.55 2.17-3.14 2.25-4.77.37-6.79 3.56-12.42 7.04-17.87 2.89-4.53 3.3-9.18 1.75-14.11-.35-1.1-1.39-2.84-2.07-2.82-1.69.05-3.9.44-4.95 1.58-4.55 4.92-8.65 10.27-13.14 15.25-2.56 2.84-5.4 5.56-9.66 6.35 4.05-15.58 9.59-30.09 21.81-40.93 3.57-3.17 3.73-6.12 2.06-10.44-4.98-12.92-9.42-26.05-14.09-39.1-.45-1.25-.97-2.46-1.56-3.94-5.02 1.58-9.92 3.04-14.75 4.71-.92.32-1.67 1.4-2.28 2.29-4.35 6.38-8.69 12.76-12.89 19.23-.79 1.22-1.31 2.86-1.33 4.31-.07 4.02.06 8.06.36 12.07.37 4.9-1.33 8.72-5.46 11.75-1.55-2.08-2.92-4.27-4.65-6.12-1.63-1.75-3.45-3.44-5.5-4.63-3.98-2.32-5.13-6.7-1.95-10.16 4.82-5.25 6.7-11.19 4.42-17.93-4.53-13.42-3.07-26.89-1.05-40.45.35-2.36.15-4.94-.45-7.25-.75-2.88-.53-5.39.65-8.1 3.2-7.39 8.32-13.3 14.4-18.3 8.44-6.96 13.83-15.69 16.65-26.13.24-.9.48-2.15.06-2.83-5.21-8.43-3.74-17.97-4.58-27.11-.23-2.51-.04-5.05-.04-7.8 3.2 1.15 5.13 3.24 5.32 6.39.37 6.03 3.46 10.77 6.12 15.97 3.9 7.64 6.77 16.39 4.33 24.87-2.75 9.57-1.59 18.55.54 27.73 1.03 4.45 2.38 8.84 3.71 13.22.44 1.45 1.31 2.77 2.15 4.49 4.4-4.81 6.55-10.19 6.56-16.09.03-9.94-.43-19.89-.85-29.83-.13-3.18.47-5.72 3.98-7.37 1.82 10.79 9.38 19.55 9.08 30.93-.27 10.08-1.65 19.81-5.84 29.03-.58 1.28-1.46 2.5-2.47 3.48-4.34 4.24-5.76 9.28-4 15.02 1.41 4.58 3.06 9.1 4.93 13.51 1.65 3.92 7.56 4.43 10.35 1.08 5.22-6.28 10.21-12.78 15.71-18.81 5.32-5.83 11.15-11.18 17.34-17.32-.98 2.03-1.72 3.45-2.35 4.91-4.92 11.34-11.05 21.98-18.77 31.62-2.18 2.73-5.03 5.05-7.94 7.03-4.66 3.16-7.64 5.73-5.51 13.04 1.84 6.32 3.21 12.79 4.54 19.25.46 2.24 1.79 2.82 3.61 3.28 1.83.46 3.4 1.09 5.08-.8 4.83-5.44 9.74-10.83 14.92-15.93 3.35-3.3 7.23-6.05 10.92-9.1 2.08 3.03 1.51 4.68-.3 6.59-8.25 8.67-16.31 17.53-24.52 26.25-3.78 4.01-5.36 8.17-3.76 13.88 2.43 8.68 4.44 17.53 5.88 26.43.94 5.78.64 11.77.76 17.68.07 3.35-.59 7.07 2.75 9.15 3.44 2.14 6.58.23 9.63-1.63 6.29-3.84 12.65-7.56 19.18-11.45 1.05 2.53.62 4.23-1.41 5.94-9.57 8.09-19.08 16.26-28.48 24.56-1.37 1.21-2.45 3.14-2.88 4.92-1.51 6.3-2.75 12.66-3.94 19.03-.27 1.47-.17 3.11.19 4.56 1.93 7.81 3.82 15.64 6.09 23.35 1 3.39 2.87 6.52 4.33 9.77 2.38 5.3 4.83 10.57 7.08 15.92.68 1.63 1.53 3.67-1.23 4.8-7.37-10.01-10.17-23.19-21.43-30.4-7.63 8.93-7.86 22.04-16.48 30.35-.35-.11-.69-.22-1.04-.33 0-3.16-.31-6.36.06-9.48.88-7.32 2.27-14.58 3.1-21.9.48-4.17-.02-8.3-3.77-11.32zm-44.64-176.03c.29.1.58.19.87.29 2.73-3.36 5.59-6.63 8.11-10.14.84-1.17 1.42-3.17 1.03-4.45-2.62-8.61-5.48-17.15-8.4-25.67-.53-1.56-1.69-2.91-3.03-5.16-2.64 15.87-.69 30.5 1.42 45.13zm14.34-65.5c-.94 2.38-1.9 4.03-2.25 5.8-1.17 5.93.05 11.56 2.87 16.8.56 1.05 1.92 2.25 2.98 2.32 1.97.13 3.12-1.3 3.27-3.39.42-6.02-.4-11.82-3.37-17.15-.79-1.39-2.02-2.55-3.5-4.38zm6.43 33.61c-.66 2.62-2.28 5 1.15 6.78 1.39-.96 2.73-1.9 4.3-3-1.88-1.31-3.51-2.44-5.45-3.78z"/><path d="m224.9 246.21c.62-1.3.91-2.96 1.9-3.85 10.89-9.78 21.88-19.47 32.91-29.1.72-.63 2.03-.59 3.07-.86.18 1.09.67 2.25.45 3.26-.24 1.13-.99 2.24-1.76 3.16-4.93 5.93-9.88 11.84-14.92 17.68-5.41 6.27-12.09 10.1-21.65 9.71z"/></g></svg>