<svg viewBox="0 0 400 400" xmlns="http://www.w3.org/2000/svg"><rect width="400" height="400" fill="white" /><path d="m148.32 81.65c7.02.55 13.18 2.8 18.68 6.59 13.45 9.29 23.88 20.97 27.72 37.34.9 3.84.52 7.99.63 12 .21 7.82.31 15.65.55 23.47.04 1.32.44 2.65.85 3.92 1.32 4.07 2.65 5.03 6.92 4.27 20.81-3.69 41.84-4.01 62.87-4.16 4.16-.03 8.53.38 12.47 1.63 11.73 3.74 23.83 4.27 35.85 3.8 9.84-.38 17.24 3.72 24.18 9.61 4.33 3.68 6.96 8.41 7.3 14.62-7.95 2.56-16.08 4.25-24.51 2.54-6.35-1.29-12.65-2.87-18.89-4.6-6.85-1.9-13.69-2.92-20.84-2.44-8.03.54-16.1.79-24.15.75-10.91-.06-21.11 3.5-31.61 5.54-37.49 7.28-73.85 18.82-110.36 29.68-14.31 4.26-28.02 10.53-42.05 15.75-1.76.66-3.92.91-5.77.59-11.01-1.93-21.97-4.14-32.97-6.14-3.88-.71-6.06-3.26-7.41-6.55-1.64-4.02-.52-6.04 3.73-6.74 19.64-3.24 37.32-12.17 55.67-19.13 15.04-5.71 29.96-11.75 45.04-17.36 4.15-1.54 8.7-1.98 13.01-3.11 6.26-1.63 9.01-6.39 8.59-12.71-.4-6-.15-12.07.23-18.08.29-4.56.17-8.9-2.19-12.95-1.89-3.24-1.92-6.54-1.24-10.27s.51-7.74.03-11.54c-.96-7.56-2.74-14.92-7.19-21.38-.56-.82-.66-2.41-.27-3.36 1.52-3.84 3.32-7.57 5.13-11.58z" fill="#010105"/><path d="m21.7 298.8c10.95-3.16 21.31-6.36 31.78-9.11 6.99-1.84 13.6-4.33 19.49-8.56 5.54-3.97 11.58-6.53 18.45-7.25 12.5-1.31 24.09-5.77 35.33-11.07 6.84-3.22 13.93-4.54 21.36-4.8 1.39-.05 3.07-.28 4.09-1.09 9.33-7.48 20.44-9.56 31.84-10.93 2.55-.3 5.06-1.03 7.61-1.2 6.87-.45 12.81-3.23 18.87-6.26 3.5-1.76 7.95-1.81 12.01-2.24 16.46-1.75 32.91-3.86 49.42-4.87 19.52-1.2 38.88 1.54 58.05 4.94 8.08 1.43 16.24 3.46 23.77 6.62 11.3 4.75 17.69 13.65 17.89 26.39.04 2.24-.66 3.14-2.9 3.46-4.64.67-9.23 1.69-13.87 2.43-1.12.18-2.68.23-3.44-.4-9.09-7.5-19.92-9.51-31.22-10.69-20.25-2.12-40.52-3.63-60.88-4.11-3.16-.08-5.97.23-8.38 2.4-2.3 2.07-5 2.68-8.05 2.43-14.47-1.18-28.41 1.41-42.29 5.33-16.88 4.77-33.96 8.83-50.91 13.34-3.21.85-6.29 2.28-9.35 3.62-8.51 3.7-17.07 7.28-25.42 11.3-5.41 2.6-10.49 5.89-15.72 8.87-2.82 1.6-5.67 3.15-8.45 4.81-12.78 7.62-26.3 6.71-39.99 3.41-6.63-1.59-13.2-3.41-19.84-4.94-2.37-.55-3.97-1.59-5-3.85-1.19-2.62-2.69-5.09-4.25-7.98z" fill="#010105"/><g fill="#fcfbfa"><path d="m377.9 391.2c-.2.3-.4.5-.6.8-.7-.6-1.4-1-2.2-1.5.2-.3.4-.5.5-.8.6.4 1.4.8 2.3 1.5zm-1.8 6.1c-.2-.2-.5-.4-.9-.6.4-.6.8-1.2 1.2-1.9s.7-1.3.9-1.9c.3.3.5.5.8.7-.7 1.3-1.4 2.6-2 3.7zm2.2-9c-.3.3-.5.5-.6.8-.6-.6-1.3-1.1-2-1.5.3-.3.5-.5.6-.7.6.5 1.3.9 2 1.4zm.3.2v-.9h2 4.5c-.3 1.3-.6 2.5-1 3.6s-.9 2.1-1.4 3c.4.5 1 1 1.6 1.4s1.2.8 1.9 1.1c-.3.2-.5.4-.8.8-.4-.3-1-.7-1.6-1.2s-1.2-1.1-1.6-1.6c-.5.6-1.1 1.1-1.7 1.6s-1.4.9-2.1 1.4c-.1-.3-.3-.5-.7-.8.6-.2 1.2-.5 1.9-1s1.4-1.1 2-1.8c-.5-.8-.9-1.6-1.2-2.5s-.6-2-.8-3.2c-.4.1-.7.1-1 .1zm2.5 2.7c.3 1 .7 1.7 1 2.2.3-.5.6-1.1 1-2s.6-1.9.9-3h-3.2-.4c.1.9.3 1.8.7 2.8z"/><path d="m396.5 388.5v1.5 3.6h1.5v.9c-.4 0-1 0-1.7 0h-7.9c-.5 0-.9 0-1.2 0v-.9h1.3v-3.5c0-.7 0-1.2 0-1.6h2.4c0-.8 0-1.4 0-1.7h1c0 .3-.1.8-.1 1.7h1.5c0-.8 0-1.4 0-1.7h1c0 .3-.1.9-.1 1.7zm-8.2 9.2c-.2-.3-.5-.5-.8-.8.8-.3 1.4-.6 1.9-.9s1-.7 1.4-1.1c.3.3.6.5.9.8-1.6 1-2.8 1.6-3.4 2zm2.6-6.8v-1.6h-1.5v1.6zm0 2.7v-1.9h-1.5v1.9zm2.4-2.7v-1.6h-1.5v1.6zm0 2.7v-1.9h-1.5v1.9zm.2 2 .7-.8c.4.2.9.5 1.6.8s1.3.7 1.8 1c-.3.3-.5.5-.8.8-.4-.3-1.5-1-3.3-1.8zm2-4.7v-1.6h-1.4v1.6zm0 2.7v-1.9h-1.4v1.9z"/></g></svg>