<svg viewBox="0 0 400 400" xmlns="http://www.w3.org/2000/svg"><rect width="400" height="400" fill="white" /><path d="m6.8 9.5c.6.3 1.3.7 2.1 1.1-.4.4-.7.8-.9 1.2-.7-.4-1.3-.8-1.8-1.1s-1.1-.6-1.6-.8c.2-.4.5-.8.7-1.2.4.2.8.5 1.5.8zm.9 6.9c-.3.6-.5 1.1-.7 1.7s-.4 1.1-.6 1.7c-.6-.4-1.1-.7-1.6-1 .7-1 1.2-1.8 1.5-2.4.3-.5.6-1.1.8-1.7.3-.6.5-1.2.8-1.8.3.3.8.6 1.3.8-.7 1.3-1.2 2.2-1.5 2.7zm.1-11c.4.3 1 .7 1.7 1.1-.5.2-.8.6-1.1 1.1-.5-.6-1-1-1.4-1.2s-.9-.6-1.5-.8c.2-.4.5-.7.9-1.1.5.3.9.6 1.4.9zm10.5 13.1c1 .4 2 .6 3.1.7-.4.4-.7.8-.8 1.3-.9-.2-1.9-.6-3-.9-1-.4-2-.9-2.8-1.6-.5.4-1.1.9-1.9 1.3s-1.9.9-3.3 1.2c-.1-.3-.5-.8-1.1-1.3 1 0 2.1-.3 3.2-.8 1.2-.5 1.9-1 2.3-1.7h-3.2c-.4 0-1 0-2 .1v-1.2c1 0 1.7.1 2 .1h3.3v-1h-2.3c-.2 0-.9 0-2 .1v-1.2c1.2 0 1.9.1 2 .1h2.3v-.8h-4.1c0-.7.1-1.2.1-1.6 0-.5 0-1.1-.1-1.8h4.1v-.7h-2.5c0-.6.1-1.1.1-1.6v-.6h-.5c-.4 0-1 0-1.8.1v-1.3c1.2 0 1.9.1 2.1.1h.2c0-.3 0-.8-.1-1.4h1.4c0 .6-.1 1-.1 1.4h3.4c0-.4 0-.8-.1-1.3h1.5c0 .4-.1.9-.1 1.3.7 0 1.5 0 2.5-.1v1.2c-1 0-1.8-.1-2.5-.1v.6c0 .3 0 .8.1 1.5h-2.5v.8h4.1c0 .7-.1 1.3-.1 1.8s0 1 .1 1.5h-4.1v.8h1.4c.8 0 1.8 0 2.9-.1v1.2c-1 0-1.9-.1-2.8-.1h-1.5v1h3.2c.3 0 1 0 2.1-.1v1.2c-1.1 0-1.8-.1-2.1-.1h-3.4l-.1.1c1.4 1 2.4 1.5 3.4 1.9zm-4.1-6.7v-1.3h-2.7v1.3zm2.2-4.1v-1.1h-3.4v1.1zm1.9 4.1v-1.3h-2.8v1.3z" fill="#fafbfa"/><path d="m37 6.7v2.3 5.4c1 0 1.8 0 2.2-.1v1.3c-.6 0-1.5-.1-2.5-.1h-11.9c-.7 0-1.3 0-1.8.1v-1.3c.5 0 1.1.1 2 .1v-5.2c0-1 0-1.8-.1-2.5h3.7c0-1.3 0-2.1-.1-2.5h1.5c0 .4-.1 1.3-.1 2.5h2.2c0-1.2 0-2.1-.1-2.6h1.5c0 .4-.1 1.3-.1 2.6zm-12.3 13.7c-.3-.4-.7-.8-1.1-1.1 1.1-.4 2.1-.9 2.9-1.3.8-.5 1.5-1 2.1-1.6.4.4.9.8 1.3 1.1-2.5 1.4-4.2 2.4-5.2 2.9zm3.9-10.1v-2.4h-2.2v2.4zm0 4.1v-2.9h-2.2v2.9zm3.5-4.1v-2.4h-2.2v2.4zm0 4.1v-2.9h-2.2v2.9zm.4 2.9 1-1.1c.6.3 1.4.7 2.5 1.3s2 1.1 2.7 1.5c-.4.4-.8.8-1.1 1.3-.8-.8-2.5-1.7-5.1-3zm3.1-7v-2.4h-2.1v2.4zm0 4.1v-2.9h-2.1v2.9z" fill="#fafbfa"/><path d="m106.08 350.66c6.86-1.11 12.87-2.35 18.95-2.98 7.34-.77 14.73-1.47 22.09-1.37 6.1.09 12.16 1.85 18.27 2.03 7.23.22 14.52-.09 21.71-.86 6.82-.74 11.54-5.13 13.61-11.48 1.57-4.81 2.13-9.99 2.71-15.06.35-3.08-.12-6.26-.22-9.39-.21-6.61-.1-7.01-6.55-8.9-5.52-1.61-11.32-2.38-17.05-3.13-14.74-1.93-29.5-3.78-44.28-5.4-15.52-1.71-31.05-1.5-46.53.64-6.16.85-12.21 1.05-16.89-3.89-1.52-1.61-2.85-3.88-3.2-6.03-.82-5 .07-5.62 3.92-6.9 10.39-3.45 20.63-7.36 30.95-11.02 1.22-.43 2.71-.92 3.85-.6 8.29 2.37 16.7.86 25.04.88 6.15.01 12.3-.31 18.45-.43.72-.01 1.79.1 2.12.56 1.86 2.62 4.42 1.99 6.97 1.83 13.17-.81 26.35-1.7 39.53-2.24 2.97-.12 4.18-1.28 4.92-3.81 2.16-7.42 2.37-14.99 1.81-22.62-.77-10.6-2.08-21.2-2.2-31.81-.18-16.21.33-32.44.77-48.66.73-27.19 1.65-54.37 2.46-81.55.26-8.83.55-17.67.65-26.51.1-8.83 2.66-16.92 6.7-24.67.94-1.81 2.23-2.35 3.72-1.31 1.48 1.03 3.24 2.38 3.74 3.95 1 3.15 1.94 6.61 1.64 9.82-1.33 13.88.47 27.44 3.24 40.97.33 1.63.41 3.33.41 4.99.02 43.55-.05 87.1.09 130.64.02 6.03-.55 11.8-2.9 17.34-2.1 4.94-2.83 10.04-2.54 15.38.2 3.68.08 7.39.03 11.08-.07 5.84 2.56 9.95 7.63 12.77 5.06 2.81 10.52 3.57 16.15 3.84 6.03.29 12.13.22 18.08 1.1 11.7 1.73 23.35 3.88 34.97 6.11 7.34 1.41 14.65 3.07 21.88 4.99 5.73 1.53 7.51 5.3 5.36 10.76-.49 1.24-1.82 2.55-3.07 3.04-10.96 4.25-22.33 4.39-33.73 2.59-7.83-1.23-15.54-3.2-23.33-4.71-13.84-2.67-27.28-2.39-40.09 4.65-6.7 3.69-9.93 8.71-8.63 16.37.24 1.43.65 2.9.54 4.32-.52 6.56 3.26 10.49 7.69 14.63 9.65 9.05 21.25 13.15 33.91 15.56 11.19 2.13 22.22 5.11 33.37 7.52 2.66.58 4.38 1.76 5.56 4.17 1.03 2.09 2.38 4.03 3.76 6.32-6.54 2-13.13 2.7-19.37 1.2-15.31-3.67-30.59-2.22-46.03-1.7-14.59.49-29.34-.2-43.84-1.88-20.04-2.32-40.09-3.41-60.22-3.94-3.8-.1-7.61-.11-11.4-.41-1.33-.1-2.85-.65-3.85-1.51-2.88-2.46-5.82-4.96-8.19-7.89-1.47-1.75-1.92-4.37-3.14-7.39z" fill="#010103"/></svg>