<svg viewBox="0 0 400 400" xmlns="http://www.w3.org/2000/svg"><rect width="400" height="400" fill="white" /><path d="m6.8 9.5c.6.3 1.3.7 2.1 1.1-.4.4-.7.8-.9 1.2-.7-.4-1.3-.8-1.8-1.1s-1.1-.6-1.6-.8c.2-.4.5-.8.7-1.2.4.2.8.5 1.5.8zm.9 6.9c-.3.6-.5 1.1-.7 1.7s-.4 1.1-.6 1.7c-.6-.4-1.1-.7-1.6-1 .7-1 1.2-1.8 1.5-2.4.3-.5.6-1.1.8-1.7.3-.6.5-1.2.8-1.8.3.3.8.6 1.3.8-.7 1.3-1.2 2.2-1.5 2.7zm.1-11c.4.3 1 .7 1.7 1.1-.5.2-.8.6-1.1 1.1-.5-.6-1-1-1.4-1.2s-.9-.6-1.5-.8c.2-.4.5-.7.9-1.1.5.3.9.6 1.4.9zm10.5 13.1c1 .4 2 .6 3.1.7-.4.4-.7.8-.8 1.3-.9-.2-1.9-.6-3-.9-1-.4-2-.9-2.8-1.6-.5.4-1.1.9-1.9 1.3s-1.9.9-3.3 1.2c-.1-.3-.5-.8-1.1-1.3 1 0 2.1-.3 3.2-.8 1.2-.5 1.9-1 2.3-1.7h-3.2c-.4 0-1 0-2 .1v-1.2c1 0 1.7.1 2 .1h3.3v-1h-2.3c-.2 0-.9 0-2 .1v-1.2c1.2 0 1.9.1 2 .1h2.3v-.8h-4.1c0-.7.1-1.2.1-1.6 0-.5 0-1.1-.1-1.8h4.1v-.7h-2.5c0-.6.1-1.1.1-1.6v-.6h-.5c-.4 0-1 0-1.8.1v-1.3c1.2 0 1.9.1 2.1.1h.2c0-.3 0-.8-.1-1.4h1.4c0 .6-.1 1-.1 1.4h3.4c0-.4 0-.8-.1-1.3h1.5c0 .4-.1.9-.1 1.3.7 0 1.5 0 2.5-.1v1.2c-1 0-1.8-.1-2.5-.1v.6c0 .3 0 .8.1 1.5h-2.5v.8h4.1c0 .7-.1 1.3-.1 1.8s0 1 .1 1.5h-4.1v.8h1.4c.8 0 1.8 0 2.9-.1v1.2c-1 0-1.9-.1-2.8-.1h-1.5v1h3.2c.3 0 1 0 2.1-.1v1.2c-1.1 0-1.8-.1-2.1-.1h-3.4l-.1.1c1.4 1 2.4 1.5 3.4 1.9zm-4.1-6.7v-1.3h-2.7v1.3zm2.2-4.1v-1.1h-3.4v1.1zm1.9 4.1v-1.3h-2.8v1.3z" fill="#fafbfa"/><path d="m37 6.7v2.3 5.4c1 0 1.8 0 2.2-.1v1.3c-.6 0-1.5-.1-2.5-.1h-11.9c-.7 0-1.3 0-1.8.1v-1.3c.5 0 1.1.1 2 .1v-5.2c0-1 0-1.8-.1-2.5h3.7c0-1.3 0-2.1-.1-2.5h1.5c0 .4-.1 1.3-.1 2.5h2.2c0-1.2 0-2.1-.1-2.6h1.5c0 .4-.1 1.3-.1 2.6zm-12.3 13.7c-.3-.4-.7-.8-1.1-1.1 1.1-.4 2.1-.9 2.9-1.3.8-.5 1.5-1 2.1-1.6.4.4.9.8 1.3 1.1-2.5 1.4-4.2 2.4-5.2 2.9zm3.9-10.1v-2.4h-2.2v2.4zm0 4.1v-2.9h-2.2v2.9zm3.5-4.1v-2.4h-2.2v2.4zm0 4.1v-2.9h-2.2v2.9zm.4 2.9 1-1.1c.6.3 1.4.7 2.5 1.3s2 1.1 2.7 1.5c-.4.4-.8.8-1.1 1.3-.8-.8-2.5-1.7-5.1-3zm3.1-7v-2.4h-2.1v2.4zm0 4.1v-2.9h-2.1v2.9z" fill="#fafbfa"/><path d="m21.6 331.49c9.83-1.67 19.34-3.93 28.97-4.78 13.91-1.23 27.93-1.2 41.87-2.17 12.38-.86 24.71-2.38 37.08-3.5 3.56-.32 7.15-.45 10.72-.39 6.61.12 12-2.49 16.34-7.23 1.17-1.28 2.01-3.27 2.18-5.01 2.8-29.07 5.41-58.15 8.26-87.21.34-3.43-1.03-5.06-3.67-6.54-9.28-5.19-19.39-7.75-29.83-8.27-20.55-1.03-41.13-1.33-61.7-2.17-5.22-.21-10.49-.96-15.59-2.1-4.99-1.11-7.26-4.06-7.47-8.33 39.31-4.39 78.64-8.78 118.38-13.22.16-2.62.3-5.15.46-7.68 1.63-26.75.46-53.47-.46-80.21-.51-14.63 2.98-33.95 7.6-44.11 4.76 1.92 7.04 5.69 7.68 10.51 2.76 20.73 5.42 41.48 8.12 62.22.66 5.1 1.14 10.24 2.03 15.3 1.39 7.9 1.08 15.81.57 23.74-.28 4.36-.48 8.72-.74 13.07-.42 6.88 4.07 10.98 11.02 9.92 3.31-.51 6.57-1.55 9.9-1.78 6.57-.46 13.19-1.05 19.74-.64 10.92.68 21.87 1.6 32.66 3.38 8.92 1.47 16.43 6.16 22.51 14.56-6.3 2.36-12.09 4.84-18.07 6.71-11.86 3.71-24.2 4.14-36.5 4.69-11.22.5-22.21 2.14-32.85 6.05-5.09 1.87-8.18 5.13-8.85 10.28-.84 6.41-1.49 12.88-1.56 19.33-.12 10.06.74 20.15.34 30.2-.22 5.46-1.85 10.94-3.45 16.23-1.56 5.17 1.02 14.24 5.58 17.28 4.75 3.16 9.58 6.21 14.21 9.54 2.75 1.98 5.58 2.86 8.97 2.88 21.38.12 42.75.33 64.13.64 22.82.33 45.65.71 68.47 1.29 4.88.12 9.79.96 14.59 1.96 2.17.45 4.4 1.78 6.07 3.29 3.57 3.24 3.22 6.98-.68 9.69-10.31 7.17-21.93 9.13-34.19 8.25-13.17-.95-26.31-2.4-39.5-2.85-6.51-.22-13.11 1.16-19.63 2.06-14.51 2-28.97 4.57-43.53 6.03-5.75.57-11.74-1.14-17.6-1.92-10.75-1.44-21.56-2.64-32.22-4.59-4.95-.9-9.59-3.45-14.44-5.01-2.16-.7-4.54-1.29-6.75-1.1-7.12.62-14.2 1.72-21.32 2.43-3.66.36-7.52 1.01-11.02.26-12.65-2.72-24.91-.05-37.21 1.99-21.38 3.55-42.28 2.23-62.86-4.9-3.99-1.4-5.23-4.03-6.76-8.07z" fill="#010103"/></svg>