<svg enable-background="new 0 0 400 400" viewBox="0 0 400 400" xmlns="http://www.w3.org/2000/svg"><path d="m187.45 373.4c-.31-8.35-.62-16.69-.92-25.04-.24-6.82-.42-13.65-.76-20.47-.05-.93-.66-2.4-1.34-2.63-3.84-1.28-5.6-4.22-6.64-7.76-.69-2.34-2.19-3.28-4.49-3-7.31.89-12.42-2.44-16.39-8.24-1.71-2.49-3.51-4.98-5.64-7.08-8.3-8.18-12.28-18.52-15.43-29.4s-4.46-21.87-3.29-33.17c2.1-20.39.82-40.66-2.09-60.9-1.94-13.51-3.49-27.07-5.19-40.61-.11-.85-.32-2.1.13-2.54 3.42-3.35 1.64-6.83.42-10.28-.74-2.1-1.85-4.09-2.46-6.22-.52-1.8-.86-3.75-.74-5.6.22-3.24 1.47-6.17-.91-9.57-1.22-1.75.19-5.33.43-8.31.54.28.97.36 1.03.56 4.4 13.01 8.98 25.96 13.04 39.07 1.87 6.03 1.73 12.36.04 18.58-.26.95-.13 2.33.4 3.13 3.46 5.21 4.18 11.02 3.94 17.03-.2 5.14-.89 10.28-.82 15.41.05 3.41.73 6.9 1.68 10.19 3.78 13.06 2.46 26.42 2.66 39.69.16 10.8 1.54 21.36 4.59 31.76 3.48 11.82 10.22 21.2 19.87 28.74 3.23 2.53 5.9 5.76 8.99 8.49 2.27 2.01 4.79 3.72 7.98 6.16 1.1-7.23 1.87-13.27 2.99-19.24.63-3.37.24-6.01-1.95-8.92-4.1-5.43-4.6-12.2-5.76-18.71-3.21-18.05-6.65-36.05-9.89-54.09-.32-1.78-.21-3.78.27-5.53 3.62-13.26 6.81-26.68 11.27-39.66 3.87-11.29 4.47-22.98 6.39-34.51 2.82-16.99 5.81-33.95 8.43-50.97.71-4.6.12-9.39.54-14.06.7-7.77 1.65-15.52 2.66-23.26.25-1.96.42-3.37-1.41-4.91-3.24-2.72-3.2-6.95-.39-12.42 4.49 1.69 6.09 5.53 6.48 9.68.56 5.88.52 11.83.64 17.75.07 3.69-.05 7.39-.05 11.08 0 .89-.2 2.06.27 2.62 3.4 4.03 1.58 8.45 1.3 12.83-.27 4.2-.42 8.47.04 12.63 2.25 20.35-.39 40.23-5.77 59.77-2.99 10.85-6.91 21.44-10.32 32.18-5.79 18.2-9.16 36.65-5.59 55.8.1.55.08 1.21.38 1.61 6.9 9.13 8.06 20.23 10.37 30.86 1.47 6.75 1.88 13.72 2.84 20.58.3 2.09.59 4.26 1.38 6.19 1.63 4.03 5.44 4.72 9.27 2.77 14.69-7.48 23.56-19.71 29.54-34.64 2.03-5.07 3.39-9.86 2.89-15.47-.71-7.98-.3-16.05-.63-24.07-.29-6.92-.16-14-1.66-20.68-1.83-8.13-1.01-15.88.19-23.86.96-6.39 1.52-12.86 1.85-19.32.27-5.26 1.5-10.1 3.87-14.78.59-1.16.27-2.82.24-4.25-.05-2.72-1.01-5.73-.15-8.09 2.28-6.23 4.68-12.37 8.63-18 3.09-4.41 4.22-10.19 6.25-15.35.93-2.37 1.7-4.86 2.99-7.03 1.67-2.8 4.38-4.29 7.78-4.74 2.24 4.34 2.17 8.72.48 12.81-3.19 7.72-6.61 15.37-10.38 22.83-5.17 10.24-6.98 21.17-7.42 32.43-.52 13.08-.9 26.17-1.4 39.25-.08 2.12-.38 4.23-.65 6.34-.3 2.34-.49 4.55 1.19 6.64.67.84.8 2.33.74 3.5-.67 12.17-1.67 24.33-2.02 36.51-.14 4.71 1.27 9.46 1.73 14.21.19 1.92.05 3.99-.48 5.83-.8 2.78-2.19 5.38-3.12 8.13-1.62 4.8-3.97 8.74-8.88 11.07-1.57.74-2.76 3.21-3.27 5.11-1.48 5.54-5 9-9.93 11.53-8.06 4.13-16.03 8.44-23.96 12.8-.97.53-2.17 1.93-2.12 2.86.83 14.95-5.45 28.15-10.1 41.73-1.04 3.03-2.53 5.9-3.81 8.84-.29-.07-.58-.13-.87-.2z" fill="#010100"/><g fill="#fcfafa"><path d="m342.2 3.2-6.3 9.2h6.1v1.2h-8.2v-.5l6.2-9.1h-5.7v-1.2h7.8v.4z"/><path d="m344 13.7v-10.9h3.1c1.6 0 3 .5 4.1 1.4 1.1 1 1.6 2.2 1.6 3.9s-.5 3-1.6 4-2.5 1.5-4.2 1.5h-3zm1.4-9.6v8.4h1.6c1.4 0 2.5-.4 3.2-1.1.8-.8 1.2-1.8 1.2-3.2s-.4-2.4-1.2-3.1-1.8-1-3.1-1z"/><path d="m356.3 2.8v10.9h-1.4v-10.9z"/><path d="m366.6 13.2c-.8.4-1.8.6-3 .6-1.6 0-2.8-.5-3.7-1.5s-1.4-2.3-1.4-3.9c0-1.7.5-3.2 1.6-4.2s2.4-1.6 4-1.6c1 0 1.9.1 2.6.4v1.5c-.8-.4-1.6-.6-2.6-.6-1.2 0-2.2.4-3 1.2s-1.1 1.9-1.1 3.3c0 1.3.4 2.3 1.1 3.1s1.6 1.1 2.8 1.1c1.1 0 2-.2 2.8-.7v1.3z"/><path d="m368.2 13c0-.3.1-.5.3-.6.2-.2.4-.3.6-.3.3 0 .5.1.7.3s.3.4.3.6-.1.5-.3.6c-.2.2-.4.3-.7.3s-.5-.1-.6-.3c-.2-.2-.3-.4-.3-.6z"/><path d="m381.1 13.7h-1.7l-5.5-8.4c-.2-.2-.3-.5-.4-.7 0 .2.1.8.1 1.5v7.6h-1.4v-10.9h1.8l5.3 8.3c.3.4.4.6.4.8 0-.3-.1-.8-.1-1.6v-7.5h1.4v10.9z"/><path d="m389.7 13.7h-5.8v-10.9h5.6v1.2h-4.2v3.5h3.9v1.2h-3.9v3.7h4.4z"/><path d="m398.4 4.1h-3.1v9.6h-1.4v-9.6h-3.1v-1.3h7.7v1.3z"/></g></svg>