<svg enable-background="new 0 0 400 400" viewBox="0 0 400 400" xmlns="http://www.w3.org/2000/svg"><g fill="#fcfafa"><path d="m342.2 3.2-6.3 9.2h6.1v1.2h-8.2v-.5l6.2-9.1h-5.7v-1.2h7.8v.4z"/><path d="m344 13.7v-10.9h3.1c1.6 0 3 .5 4.1 1.4 1.1 1 1.6 2.2 1.6 3.9s-.5 3-1.6 4-2.5 1.5-4.2 1.5h-3zm1.4-9.6v8.4h1.6c1.4 0 2.5-.4 3.2-1.1.8-.8 1.2-1.8 1.2-3.2s-.4-2.4-1.2-3.1-1.8-1-3.1-1z"/><path d="m356.3 2.8v10.9h-1.4v-10.9z"/><path d="m366.6 13.2c-.8.4-1.8.6-3 .6-1.6 0-2.8-.5-3.7-1.5s-1.4-2.3-1.4-3.9c0-1.7.5-3.2 1.6-4.2s2.4-1.6 4-1.6c1 0 1.9.1 2.6.4v1.5c-.8-.4-1.6-.6-2.6-.6-1.2 0-2.2.4-3 1.2s-1.1 1.9-1.1 3.3c0 1.3.4 2.3 1.1 3.1s1.6 1.1 2.8 1.1c1.1 0 2-.2 2.8-.7v1.3z"/><path d="m368.2 13c0-.3.1-.5.3-.6.2-.2.4-.3.6-.3.3 0 .5.1.7.3s.3.4.3.6-.1.5-.3.6c-.2.2-.4.3-.7.3s-.5-.1-.6-.3c-.2-.2-.3-.4-.3-.6z"/><path d="m381.1 13.7h-1.7l-5.5-8.4c-.2-.2-.3-.5-.4-.7 0 .2.1.8.1 1.5v7.6h-1.4v-10.9h1.8l5.3 8.3c.3.4.4.6.4.8 0-.3-.1-.8-.1-1.6v-7.5h1.4v10.9z"/><path d="m389.7 13.7h-5.8v-10.9h5.6v1.2h-4.2v3.5h3.9v1.2h-3.9v3.7h4.4z"/><path d="m398.4 4.1h-3.1v9.6h-1.4v-9.6h-3.1v-1.3h7.7v1.3z"/></g><path d="m115.05 172.99c-4.48 7.29-8.8 14.32-13.13 21.34-2.81 4.56-5.4 9.29-8.53 13.62-3.11 4.3-7.28 7.51-12.75 9.24-1.48-6.27-.06-11.94 2.07-17.65 10.39-27.86 26.47-52.61 42.33-77.46 13.84-21.68 27.94-43.19 41.93-64.79 4.22-6.51 7.03-13.49 6.7-21.4-.05-1.13-.41-2.46-1.1-3.3-2.62-3.19-2.71-3.25-.61-7.62 4.11.51 8.33.89 12.48 1.64 1.16.21 2.43 1.27 3.15 2.29 5.4 7.67 10.91 15.28 15.84 23.25 1.26 2.04 1.28 5.45.68 7.95-2.94 12.35-1.39 10.98 6.37 15.9 21.93 13.92 43.29 28.61 63.38 45.12 6.98 5.74 12.29 12.63 16.5 20.48 5.43 10.14 10.92 20.25 16 30.56 1.32 2.67 1.33 6.04 1.7 9.12 1.09 9.09 1.52 18.3 5.3 26.86.96 2.17 1.41 4.17-1.09 5.83-2.47 1.65-5.15 1.81-7.17.04-3.24-2.85-6.75-5.85-8.77-9.54-7.15-13.02-13.16-26.68-20.69-39.46-5.64-9.57-12.93-18.17-19.5-27.19-.31-.42-.79-.71-1.44-1.28-1.87 6.07-3.04 11.9-1.98 17.97 2.32 13.28 0 25.55-7.72 36.74-2.46 3.57-4.61 7.36-7.11 11.38 5.4 2.28 10.52 4.44 15.62 6.6 4.63 1.96 9.13 4.36 13.91 5.79 9.16 2.75 15.07 9.22 20.42 16.52 9.53 12.99 15.62 27.56 19.72 43.03 5.15 19.46 8.46 39.13 6.67 59.37-.78 8.89-3.49 16.99-9.37 23.89-3.26 3.83-6.18 7.97-9.62 11.62-4.04 4.27-9.64 5.13-15.14 5.16-4.04.03-10.79-8.41-10.51-12.54.07-.97.79-2.02 1.47-2.82 4.13-4.86 8.05-9.95 12.59-14.4 4.34-4.26 5.61-9.41 6.31-15.04 1.61-12.98-.36-25.66-2.93-38.3-1.05-5.15-2.29-10.25-3.39-15.39-2.59-12.09-7.24-23.12-15.61-32.51-3.78-4.24-7.11-8.95-10.19-13.74-4.44-6.89-11.02-9.71-18.6-9.16-12.46.91-24.87 2.67-37.28 4.22-10.86 1.35-21.19 4.49-30.81 9.78-1.07.59-2.21 1.15-3.12 1.94-3.19 2.76-6.6 3.29-10.6 1.86-4.58-1.64-4.64-1.48-6.59 3.07-9.25 21.67-17.2 43.9-28.53 64.66-3.09 5.67-4.85 12.07-8.02 17.67-1.88 3.33-5.14 6-8.15 8.53-2.01 1.69-3.76.89-4.63-1.89-1.69-5.4-1.13-10.63.81-15.77 2.95-7.84 6.27-15.55 8.98-23.48 7.68-22.46 13.58-45.41 17.17-68.88 1.76-11.54 1.77-23.17-.94-34.69-.96-4.06-2.33-7.57-6.14-9.85-2.08-1.22-3.87-2.94-6.34-4.89zm109.85-60.31c.1-.33.21-.66.31-.98-6.48-5.81-13.12-11.46-19.39-17.49-4.02-3.86-8.13-6.35-14.02-6.47-6.38-.14-11.67 1.48-15.99 6.04-4.99 5.28-9.98 10.57-14.67 16.1-12.99 15.32-27.54 29.4-37.29 47.31-1.68 3.09-1.62 5.41.9 7.19 3.69 2.61 7.55 5.2 11.71 6.85 10.74 4.24 16.33 11.88 17.23 23.27.46 5.79 1.33 11.55 1.84 17.33.19 2.2 1.1 2.84 3.2 2.67 4.56-.39 9.16-.41 13.7-.94 6.71-.79 13.16-2.44 18.59-7.66-4.9-5.93-9.62-11.87-14.58-17.59-5.75-6.64-10.15-14.03-11.7-22.67-1.14-6.35-1.28-12.89-1.8-19.35-.58-7.24-2.02-14.25-6.69-20.03-2.01-2.49-2.04-4.63-.32-7.95 6.38 2.75 12.81 5.23 18.96 8.28 4.55 2.25 7.86 5.8 8.38 11.35.2 2.19.92 4.39 1.73 6.45.35.9 1.48 2.04 2.33 2.1 4.78.35 9.6.76 14.37.47 7.08-.43 14.04-1.81 19.62-6.68 1.05-.92 1.87-2.82 1.78-4.19-.48-6.73-3.19-12.43-8.4-16.94-1.36-1.18-2.45-2.89-3.12-4.58-1.3-3.27-.28-4.32 3.25-3.71 3.35.58 6.71 1.22 10.07 1.82zm-38.45 56.73c1.41 3.96 2.57 7.46 3.92 10.88.37.94 1.13 2.13 1.97 2.4 3.39 1.07 6.84 2.24 10.36 2.62 6.88.75 18.9-6.25 21.54-12.63.9-2.17 1.16-5.24.33-7.35-1.09-2.74-4.33-2.16-6.89-1.99-1.22.08-2.42.42-3.62.66-9.1 1.78-18.19 3.57-27.61 5.41z" fill="#010103"/><path d="m218.13 234.01c2-2.95 4.23-2.94 6.98-2 5.07 1.73 10.22 3.27 15.4 4.63 2.47.65 3.69 2.04 4.47 4.35 2.22 6.62 2.42 13.45 1.89 20.26-1.07 13.75-3.65 27.22-8.12 40.33-2.13 6.25-6.68 10.42-10.94 14.98-3.58 3.83-7.35 7.51-12.69 8.19-4.59.58-9.32.54-13.95.17-5.78-.47-11.52-1.51-17.26-2.42-.97-.15-2.22-.68-2.71-1.44-7.67-11.86-15.06-23.91-17.96-37.96-1.42-6.88-2.15-13.92-2.87-20.93-.41-3.97-1.97-7.01-5.1-9.39-.95-.72-1.94-1.6-2.5-2.63-1.84-3.42-.36-5.97 3.39-5.41 3.84.56 7.61 1.71 11.33 2.84 3.09.94 6.06 2.29 9.11 3.37 3.59 1.27 6.85 2.85 9.64 5.69 3.51 3.57 8.26 5.07 13.24 4.58 5.32-.52 10.66-1.31 15.87-2.52 8.56-2 11.99-11.06 7.21-18.44-1.38-2.14-2.95-4.17-4.43-6.25zm-23.83 68.95c9.1-.14 17.68-3.73 23.19-10.86 2.19-2.83 3.36-6.81 3.95-10.44.7-4.29-2.77-6.25-6.87-4.86s-8.41 2.16-12.55 3.45c-3.69 1.16-7.33 2.54-10.9 4.05-3.34 1.41-4.54 4.44-4.98 7.79-.6 4.59 4.19 10.93 8.16 10.87z" fill="#010103"/></svg>