<svg enable-background="new 0 0 400 400" viewBox="0 0 400 400" xmlns="http://www.w3.org/2000/svg"><path d="m5.17 384 .55-.58c.85.61 1.65 1.24 2.4 1.87l-.59.64c-.83-.73-1.62-1.38-2.36-1.93m1.22 9.53-.82-.34c.71-1.76 1.37-3.64 1.98-5.63.24.13.5.25.76.36-.6 1.67-1.24 3.54-1.92 5.61m-.5-13.5.57-.54c.56.44 1.31 1.06 2.26 1.87l-.64.64c-.68-.66-1.41-1.32-2.19-1.97m3.25.46h2.24v-1.36h.77v1.36h4.57v-1.36h.76v1.36h2.28v.69h-2.28v1.84h-2.64v1.26h4.18v2.64h-4.21c0 .45-.02.86-.05 1.21h4.32v.69h-4.38c-.04.34-.1.75-.19 1.22h5.15v.69h-4.82c.87 1.19 2.51 1.92 4.93 2.19-.17.31-.3.57-.37.76-2.77-.49-4.52-1.41-5.26-2.76-.56 1.26-2.3 2.23-5.24 2.9-.12-.24-.26-.48-.43-.72 2.73-.55 4.38-1.34 4.96-2.38h-4.38v-.69h4.65c.1-.38.17-.79.21-1.22h-4.32v-.69h4.4c.03-.34.05-.75.05-1.21h-4.2v-2.64h4.23v-1.26h-2.69v-1.84h-2.24zm1.46 4.46v1.29h3.45c.01-.4.02-.57.01-.53v-.32-.45h-3.46zm1.55-2.59h4.57v-1.19h-4.57zm6.11 2.59h-3.42v.77c-.01.19-.01.37-.02.53h3.44z" fill="#fafafc"/><path d="m32.63 379.16h.82v1.98h3.54v7.89h1.46v.78h-14.37v-.78h1.46v-7.89h3.54v-1.98h.82v1.98h2.73zm-3.49 11.48.5.73c-1.61.82-3.28 1.63-5 2.41-.13-.27-.28-.55-.44-.82 1.75-.72 3.4-1.49 4.94-2.32m-2.78-5.55h2.73v-3.18h-2.73zm0 3.95h2.73v-3.2h-2.73zm3.54-3.95h2.73v-3.18h-2.73zm0 3.95h2.73v-3.2h-2.73zm7.89 4.68c-1.84-.92-3.51-1.7-5.02-2.32l.45-.73c1.89.8 3.57 1.55 5.04 2.23zm-1.62-11.81h-2.73v3.18h2.73zm-2.73 7.13h2.73v-3.2h-2.73z" fill="#fafafc"/><g fill="#010101"><path d="m298.57 114.08c-4.73.67-9.35 1.41-14 1.88-.76.08-1.8-.97-2.46-1.72-4.53-5.1-9.52-9.44-16.46-10.92-2.59-.55-4.08-.11-4.72 2.91-1.47 6.95-2.53 13.87-1.29 20.95 1.67 9.53.32 18.96-.85 28.4-.75 6.11-1.96 12.2-2.12 18.32-.11 4.27 1.19 8.59 1.87 12.88.21 1.32.77 2.67.63 3.96-.47 4.5 2.17 6.57 5.89 7.48 6.17 1.5 12.37 2.99 18.64 3.92 15.81 2.34 28.67 16.04 28.96 32.16.14 7.88-1.19 15.78-1.64 23.68-.44 7.82-.68 15.65-.87 23.47-.53 21.93-.98 43.86-1.47 65.8-.02.77-.13 1.54-.23 2.61-3.13.36-6.19.72-9.91 1.15-.82-4.97-1.87-9.73-2.35-14.56-1.83-18.41-2.49-36.86-.77-55.31.46-4.99 1.86-9.89 2.58-14.86.32-2.26.22-4.62-.02-6.91-1.01-9.78-2.05-19.56-3.32-29.31-.27-2.07-1.19-4.29-2.46-5.94-3.69-4.78-8.89-7.04-14.82-7.51-24.29-1.94-48.49-5.33-72.98-4.17-21.95 1.05-43.77 2.76-64.73 10.04-3.06 1.06-6.01 2.47-9.1 3.43-7.69 2.39-11.29 8.81-14.89 15.09-5.96 10.4-9.37 21.68-8.57 33.68 1.69 25.45-2.35 50.18-8.31 74.73-.42 1.74-.7 3.52-1.24 5.22-1.79 5.65-8.29 7.7-12.97 4.02-.59-.46-.82-1.74-.75-2.6.23-3.01.46-6.04 1.05-9 1.17-5.89.31-11.54-1.57-17.12-.65-1.91-.36-3.36.93-5.16 1.27-1.78 2.06-4.33 2.04-6.53-.06-6.37 1.72-12.26 3.25-18.35 1.77-7.07 2.39-14.5 2.81-21.82.48-8.37-.15-16.79.3-25.16 1.04-19.16 11.42-32.11 28.41-39.77 7.68-3.46 15.94-5.75 24.08-8.05 3.6-1.02 5.43-2.9 5.81-6.31.51-4.55.3-9.23 1.27-13.66 1.12-5.07 1.25-9.44-1.34-14.35-2.74-5.18-1.34-11.13-.34-16.8 1-5.71 2.05-11.45 2.31-17.22.14-3.12-1.35-6.31-2.11-9.47-.41-.01-.82-.03-1.23-.04-3.82 4.64-7.7 9.24-11.45 13.94-3.97 4.98-9 8.23-15.09 10.07-2.02.61-3.11.05-4.18-1.52-2.66-3.91-2.16-11.41 1.15-14.82 9.66-9.92 17.43-21.28 24.98-32.8 9.54-14.55 19.92-28.41 33-40.03 5.28-4.69 7.97-10.7 9.29-17.41 1.32-6.67 3.04-13.13 8.02-18.09.78-.78 2.77-1.37 3.56-.92 2.96 1.69 5.96 3.55 8.37 5.92 2.69 2.64 4.93 5.8 7.07 8.94 9.18 13.47 21.29 23.75 34.87 32.5 13.72 8.84 27.45 17.67 41.04 26.71 4.89 3.3 8.29 7.81 8.43 14.35zm-56.61 19.64c.27-.81.58-1.42.68-2.06 2-13.36 2.14-26.73-.38-40.02-.36-1.9-1.99-4.07-3.66-5.11-9.64-6.04-19.75-11.36-27.04-20.57-1.39-1.75-4.08-2.6-6.32-3.48-.91-.36-2.56-.04-3.31.61-4.85 4.28-9.83 8.47-14.22 13.2-5.62 6.05-10.75 12.56-16.02 18.94-.81.99-1.53 2.24-1.78 3.48-2.71 13.27-.81 25.99 5.06 38.12.46.94 2.15 1.93 3.19 1.85 21.17-1.56 42.33-3.26 63.8-4.96zm-46.64 68.05v.53c4.91-.25 9.86-.22 14.73-.82 10.52-1.29 21.06-2.57 31.48-4.5 5.91-1.1 6.9-4.7 3.64-9.85-2.35-3.71-3.67-7.57-2.45-12.08.87-3.23 1.6-6.55 1.88-9.87.28-3.18.01-6.43-.23-9.63-.14-1.85-1.27-2.81-3.28-3.15-4.29-.72-8.5-1.97-12.81-2.6-2.78-.41-5.71-.42-8.49-.04-7.53 1.01-15.07 2.09-22.51 3.59-7.52 1.52-14.94 3.5-22.37 5.44-2.65.69-3.53 2.55-2.99 5.38 1.52 7.93.51 15.55-3.35 22.72-.26.49-.41 1.04-.58 1.57-1.26 4.06-.35 8.04 2 11.14 1.14 1.51 4.27 1.97 6.54 2.07 6.27.27 12.53.1 18.79.1z"/><path d="m171.8 305.08c11.15.82 21.92 2.37 32.95.29 7.16-1.35 14.63-1.01 21.95-1.62 1.45-.12 3.25-.78 4.17-1.83 3.9-4.47 5.84-9.64 5.09-15.75-.71-5.72 1.01-11.07 3.44-16.17.31-.65 1.48-1.29 2.22-1.25 3.4.16 5.95 1.75 7.19 5.06 1.64 4.39 3.3 8.78 4.87 13.2 2.51 7.07 2.44 14.16.55 21.43-3.54 13.61-6.73 27.31-10.19 40.94-.41 1.64-1.33 3.3-2.45 4.57-3.4 3.86-7.33 7.29-10.48 11.33-5.68 7.29-13.54 9.64-22.07 10.25-10.53.76-21-.11-31.31-2.52-.65-.15-1.39-.18-1.91-.54-5.73-3.89-11.56-7.65-17.08-11.81-6.99-5.26-8.22-13.29-9.16-21.23-1.54-12.93-.12-25.67 3.18-38.21.37-1.42 1.54-3 2.79-3.76 4.85-2.97 9.97-5.12 15.87-3.13 1.72.58 2.65 1.26 1.97 3.35-.73 2.23-1.01 4.59-1.59 7.4zm23.99 54.66c7.8-.54 15.43-1.39 22.25-5.03 4.45-2.38 9.45-5.1 12.16-9.06 4.37-6.39 5.63-14.28 5.33-22.15-.14-3.72-2.25-6.47-5.75-7.47-2.49-.71-5.29-.85-7.89-.59-11.57 1.14-23.1 2.85-34.69 3.7-7.56.55-14.27 2.22-19.06 8.47-.92 1.19-1.77 2.84-1.76 4.27.07 9.36 4.02 17.04 10.77 23.36.7.66 1.65 1.24 2.58 1.43 5.33 1.09 10.7 2.06 16.06 3.07z"/></g></svg>