<svg enable-background="new 0 0 400 400" viewBox="0 0 400 400" xmlns="http://www.w3.org/2000/svg"><g fill="#fcfafa"><path d="m342.2 3.2-6.3 9.2h6.1v1.2h-8.2v-.5l6.2-9.1h-5.7v-1.2h7.8v.4z"/><path d="m344 13.7v-10.9h3.1c1.6 0 3 .5 4.1 1.4 1.1 1 1.6 2.2 1.6 3.9s-.5 3-1.6 4-2.5 1.5-4.2 1.5h-3zm1.4-9.6v8.4h1.6c1.4 0 2.5-.4 3.2-1.1.8-.8 1.2-1.8 1.2-3.2s-.4-2.4-1.2-3.1-1.8-1-3.1-1z"/><path d="m356.3 2.8v10.9h-1.4v-10.9z"/><path d="m366.6 13.2c-.8.4-1.8.6-3 .6-1.6 0-2.8-.5-3.7-1.5s-1.4-2.3-1.4-3.9c0-1.7.5-3.2 1.6-4.2s2.4-1.6 4-1.6c1 0 1.9.1 2.6.4v1.5c-.8-.4-1.6-.6-2.6-.6-1.2 0-2.2.4-3 1.2s-1.1 1.9-1.1 3.3c0 1.3.4 2.3 1.1 3.1s1.6 1.1 2.8 1.1c1.1 0 2-.2 2.8-.7v1.3z"/><path d="m368.2 13c0-.3.1-.5.3-.6.2-.2.4-.3.6-.3.3 0 .5.1.7.3s.3.4.3.6-.1.5-.3.6c-.2.2-.4.3-.7.3s-.5-.1-.6-.3c-.2-.2-.3-.4-.3-.6z"/><path d="m381.1 13.7h-1.7l-5.5-8.4c-.2-.2-.3-.5-.4-.7 0 .2.1.8.1 1.5v7.6h-1.4v-10.9h1.8l5.3 8.3c.3.4.4.6.4.8 0-.3-.1-.8-.1-1.6v-7.5h1.4v10.9z"/><path d="m389.7 13.7h-5.8v-10.9h5.6v1.2h-4.2v3.5h3.9v1.2h-3.9v3.7h4.4z"/><path d="m398.4 4.1h-3.1v9.6h-1.4v-9.6h-3.1v-1.3h7.7v1.3z"/></g><path d="m176.13 78.35c10.33 3.2 19.95 5.99 29.43 9.2 5.92 2 11.9 2.41 18.06 2.89 8.99.69 17.84 2.99 26.82 3.97 21.22 2.31 39.73 12.47 59.21 19.84 12.43 4.7 24.81 9.54 37.29 14.14 10.71 3.95 17.9 11.83 24.2 20.51-12.12 10.41-25.77 11.31-40.02 6.59-8.89-2.95-17.32-7.29-26.23-10.16-19.03-6.13-38.23-11.71-57.36-17.5-2.89-.87-5.87-1.46-8.69-2.52-2.62-.98-3.93.07-4.34 2.4-.6 3.4-.99 6.84-1.28 10.29-.26 3.01-.15 6.04-.39 9.05-.52 6.39-2.52 11.95-7.31 16.74-8.39 8.38-16.23 17.31-24.29 26.02-.66.71-1.24 1.49-2.2 2.66 6.42.36 12.32.69 18.22 1.01 12.51.67 25.01 1.52 37.53 1.91 8.18.25 15.4 3.6 22.83 6.22 12.55 4.42 25.07 9.04 35.96 16.97 8.54 6.22 16.32 13.12 21.2 22.89 6.88 13.8 14.36 27.3 21.15 41.14 1.7 3.46 2.52 7.75 2.39 11.62-.31 9.47-1.4 18.91-2.18 28.36-.07.89-.4 1.81-.27 2.66.78 5.12-2.47 8.11-5.84 10.93-3.13 2.62-8.89 1.01-9.6-2.94-1.41-7.79-2.69-15.64-3.22-23.52-.74-10.88-1.55-21.72-5.71-31.88-1.96-4.8-4.36-9.74-7.73-13.59-11.81-13.53-24.95-25.66-40.4-35.09-18.62-11.36-38.48-14.6-59.94-10.56-22.01 4.15-43.06 11-63.46 20.05-1.36.6-2.58 1.73-3.59 2.86-4.25 4.73-9.22 6.94-15.8 6.24-3.9-.42-7.98.51-11.94 1.08-.87.13-1.93 1.15-2.33 2.02-4.21 9.14-8.24 18.35-12.46 27.48-.82 1.77-.22 2.55 1.07 3.57 8.49 6.74 17.95 9.47 28.58 6.68 6.48-1.7 13.07-3.29 19.21-5.88 11.86-5.01 24.29-7.48 36.81-9.84 26.26-4.94 52.5-9.98 78.75-15 6.65-1.27 11.19 1.6 13.06 8.31 1.57 5.66-.02 11.1-1.06 16.58-2.59 13.59-9.68 25.42-15.03 37.92-.13.3-.32.59-.53.85-19.3 23.96-43.91 38.58-74.61 42.72-17.78 2.4-35.25 1.44-52.42-3.9-1.53-.47-3.08-1.35-4.23-2.45-4.37-4.17-8.62-8.48-12.84-12.81-1-1.02-1.85-2.24-2.55-3.49-2.56-4.59-4.85-9.33-7.56-13.83-3.84-6.39-6.35-13.19-8.11-20.44-1.17-4.83-4.14-8.93-9.21-10.73-1.43-.51-2.92-.75-3.84 1.32-6.58 14.76-16.94 26.83-28 38.27-5.57 5.76-12.06 10.62-18.13 15.9-2.53 2.2-5.01 4.47-7.6 6.6-1.36 1.13-2.78 2.35-4.38 2.98-4.01 1.58-5.36.44-5.59-3.76-.17-3.12.71-5.46 2.93-7.74 13.41-13.82 22.83-30.3 31.11-47.5 4.51-9.36 10.26-18.36 13.23-28.19 4.12-13.64 10.56-26.6 12.45-40.92 1.17-8.9-.02-17.54-3.86-25.51-1.84-3.81-5.39-6.78-8.37-10.37 2.02-1.48 3.99-3.12 6.16-4.4.76-.44 2.16-.25 3.07.12 11.59 4.71 23.18 9.47 34.69 14.36 1.28.54 2.45 1.86 3.16 3.11 1.87 3.28 3.46 6.71 5.25 10.25 7.8-2.76 15.93-4.45 22.73-8.43 4.99-2.91 8.3-8.76 12.19-13.45.47-.56.09-2.15-.32-3.07-1.78-3.97-4.05-7.74-5.5-11.82-1.47-4.11-3.41-7.69-6.7-10.58-7.98-7.01-15.68-14.37-23.93-21.04-6.91-5.59-15.12-7.81-23.96-5.57-2.67.68-5.44 2.12-7.47 3.98-17.67 16.25-37.95 27.53-61.48 32.6-5.85 1.26-11.91 1.62-17.72 2.37-2.06-5.25-1.97-5.11 2.02-7.94 18.99-13.43 38.21-26.57 56.79-40.55 14.48-10.9 26.2-24.68 36.72-39.43 6.17-8.65 12.33-17.31 18.41-26.02 4.1-5.87 6.1-12.37 5.68-19.59-.2-3.4-.5-6.54-3.62-8.87-1.08-.81-1.66-2.85-1.72-4.35-.1-2.59 1.1-4.21 4.17-3.49 1.4.33 2.91.48 4.34.36 6.95-.6 12.68 2.07 17.7 6.52 4.02 3.55 7.91 7.25 11.79 10.96.96.92 1.94 1.99 2.44 3.18 1.57 3.77 3.31 7.53 4.25 11.48 1.03 4.52-1.87 7.5-6.13 9.99zm-48.98 58.15c1.48.52 2.61.97 3.78 1.31 13.04 3.77 25.52 8.92 37.12 15.97 3.77 2.29 6.95 5.55 10.41 8.35 2.24 1.82 4.35 3.84 6.77 5.37 3.8 2.39 7.45 1.48 9.06-2.69 4.26-11.01 9.35-21.91 11.87-33.34 3.71-16.84 1.71-19.17-11.41-27.06-8.38-5.04-17.61-8.65-26.42-12.99-2.2-1.08-3.53-.49-5.16 1.21-9.49 9.95-18.92 19.98-28.81 29.53-4.16 4.02-5.71 8.82-7.21 14.34zm125.16 149.21c-6.56 3.22-12.72 7.01-20.15 8.05-7.51 1.05-14.91 2.86-22.37 4.32-22.23 4.37-44.3 10.06-67.29 8.04-.72-.06-1.46.16-2.86.33 8.16 11.66 15.63 23.21 29.76 27.7 1.76.56 3.73 1.18 5.49.94 32.02-4.36 59.9-16.02 78.11-44.61 1.21-1.88 1.87-3.27-.69-4.77z" fill="#010103"/></svg>