<svg enable-background="new 0 0 400 400" viewBox="0 0 400 400" xmlns="http://www.w3.org/2000/svg"><path d="m5.17 384 .55-.58c.85.61 1.65 1.24 2.4 1.87l-.59.64c-.83-.73-1.62-1.38-2.36-1.93m1.22 9.53-.82-.34c.71-1.76 1.37-3.64 1.98-5.63.24.13.5.25.76.36-.6 1.67-1.24 3.54-1.92 5.61m-.5-13.5.57-.54c.56.44 1.31 1.06 2.26 1.87l-.64.64c-.68-.66-1.41-1.32-2.19-1.97m3.25.46h2.24v-1.36h.77v1.36h4.57v-1.36h.76v1.36h2.28v.69h-2.28v1.84h-2.64v1.26h4.18v2.64h-4.21c0 .45-.02.86-.05 1.21h4.32v.69h-4.38c-.04.34-.1.75-.19 1.22h5.15v.69h-4.82c.87 1.19 2.51 1.92 4.93 2.19-.17.31-.3.57-.37.76-2.77-.49-4.52-1.41-5.26-2.76-.56 1.26-2.3 2.23-5.24 2.9-.12-.24-.26-.48-.43-.72 2.73-.55 4.38-1.34 4.96-2.38h-4.38v-.69h4.65c.1-.38.17-.79.21-1.22h-4.32v-.69h4.4c.03-.34.05-.75.05-1.21h-4.2v-2.64h4.23v-1.26h-2.69v-1.84h-2.24zm1.46 4.46v1.29h3.45c.01-.4.02-.57.01-.53v-.32-.45h-3.46zm1.55-2.59h4.57v-1.19h-4.57zm6.11 2.59h-3.42v.77c-.01.19-.01.37-.02.53h3.44z" fill="#fafafc"/><path d="m32.63 379.16h.82v1.98h3.54v7.89h1.46v.78h-14.37v-.78h1.46v-7.89h3.54v-1.98h.82v1.98h2.73zm-3.49 11.48.5.73c-1.61.82-3.28 1.63-5 2.41-.13-.27-.28-.55-.44-.82 1.75-.72 3.4-1.49 4.94-2.32m-2.78-5.55h2.73v-3.18h-2.73zm0 3.95h2.73v-3.2h-2.73zm3.54-3.95h2.73v-3.18h-2.73zm0 3.95h2.73v-3.2h-2.73zm7.89 4.68c-1.84-.92-3.51-1.7-5.02-2.32l.45-.73c1.89.8 3.57 1.55 5.04 2.23zm-1.62-11.81h-2.73v3.18h2.73zm-2.73 7.13h2.73v-3.2h-2.73z" fill="#fafafc"/><g fill="#010101"><path d="m254.67 154.87c5.96 3.28 12.06 6.53 18.03 9.99 1.68.97 3.25 2.38 4.44 3.92 9.91 12.9 14.8 27.46 15.65 43.78.99 18.96 2.34 37.96 8.31 56.26.82 2.5.61 5.56.12 8.23-.97 5.35.05 10.4 1.1 15.57 3.33 16.44 6.72 32.91 6.93 49.77.13 10.25-1.73 20.23-4.86 30.01-.79 2.48-1.9 3.31-4.46 3.16-6.01-.34-4.6.97-6.34-4.93-2.5-8.49-3.19-17.21-2.21-25.94 1.62-14.44-.53-28.52-2.96-42.66-4.04-23.47-8.03-46.96-11.57-70.51-1.41-9.38-1.56-18.95-2.35-28.43-.16-1.89-.45-3.79-.97-5.61-4.19-14.77-8.41-17.24-25.69-17.55-5.84-.1-11.91 1.85-17.55 3.81-10.3 3.57-20.68 5.02-31.6 4.71-17.24-.49-34.4.93-51.39 4.32-6.25 1.25-10.21 4.43-13.08 10.09-6.45 12.7-9.48 26.27-10.78 40.25-2.37 25.49-1.56 50.98.64 76.45.12 1.34.26 2.68.56 3.99 1.93 8.24.93 16.35-.45 24.58-.72 4.31-.02 8.87.09 13.32.03 1.11.29 2.22.38 3.33.62 7.68-1.45 10-9.63 10.45-1.48-4.43-2.99-8.96-4.51-13.48-1.24-3.71-2.26-7.51-3.79-11.1-2.46-5.77-2.36-11.35-1.2-17.53 1.01-5.41.05-11.28-.59-16.88-2.72-23.76-3.16-47.57-1.99-71.41.99-20.17 4.01-40.03 9.58-59.49.79-2.77 2.18-4.25 4.77-5.35 8.09-3.46 16.07-7.19 23.48-10.53-4.08-8.43-8.03-16.66-12.03-24.86-1.67-3.43-4.1-6.17-7.85-7.37-3.94-1.26-7.23-1.13-10.46 2.47-3.69 4.12-8.16 7.63-12.67 10.89-4.33 3.13-9.43 3.77-14.58 2.58-2.04-4.33-1.42-7.38 2.36-10.8 19.17-17.35 38.12-34.95 56.92-52.7 18.2-17.19 32.02-37.56 42.57-60.2.56-1.21 1.16-2.39 1.79-3.68 10.52 4.11 19.11 10.75 27.13 18.36 8.27 7.85 16.36 16.01 25.4 22.9 6.94 5.3 15.25 8.8 22.9 13.18 4.94 2.83 10.12 5.4 14.61 8.84 7.1 5.46 14.93 9.37 23.11 12.77 1.65.69 3.38 1.27 4.89 2.2 2.08 1.27 4.59 2.45 5.81 4.37 1.44 2.27 2.5 5.42 2.12 7.93-.19 1.23-4.01 2.61-6.22 2.66-3.13.07-6.32-.87-9.41-1.67-5.17-1.33-10.25-3-15.43-4.25-.91-.22-2.64.62-3.17 1.48-7.98 13.08-15.82 26.24-23.69 39.39-.13.15-.11.4-.21.92zm2.47-57.56c-22.64-11.83-45.02-23.53-67.89-35.48-.62.83-1.15 1.71-1.83 2.44-13.58 14.43-26.9 29.11-40.87 43.15-8.21 8.25-10.49 23.42-1.15 33.37 8.26 8.8 17.12 17.04 25.83 25.4.88.85 2.63 1.25 3.92 1.15 14.83-1.17 29.65-2.44 44.47-3.82 1.26-.12 2.78-.93 3.58-1.91 6.74-8.22 13.36-16.54 19.98-24.86.68-.86 1.37-1.81 1.72-2.83 4.07-12.06 8.08-24.14 12.24-36.61z"/><path d="m237.2 219.53c7.86 3.23 13.12 8.34 13.17 17.04.04 6.22-.82 12.44-1.13 18.67-.17 3.33-.23 6.7.04 10.02.64 7.82.43 15.5-.67 23.34-1.25 8.91-1.08 18.04-1.29 27.08-.21 9.01-1.34 17.84-4.62 26.28-.67 1.72-1.61 3.54-2.94 4.75-7.84 7.15-15.6 14.42-23.84 21.09-9.14 7.41-19.87 9.44-31.31 6.98-1.97-.42-4.11-1.76-5.42-3.31-13.78-16.31-20.96-35.39-21.55-56.56-.64-23.36-.19-46.74-.31-70.11-.01-2.37.81-3.22 3.1-3.76 8.19-1.95 8.16-2.06 11.25 5.81 1.3 3.33 2.9 6.57 3.85 10 .96 3.42 3.05 4.78 6.31 4.7 6.8-.17 13.63-.06 20.37-.77 7.87-.83 15.66-2.44 23.5-3.64 2.33-.36 3.59-1.53 3.73-3.9.29-4.89.99-9.8.81-14.67-.27-7.4 2.2-13.5 6.95-19.04zm-21 56.14c-.02.2-.03.39-.05.59-5.58.25-11.17.44-16.74.75-7.19.4-14.31 1.27-20.28 5.8-1.05.79-2.07 2.44-2.06 3.68.12 12.4.12 24.83.85 37.2.59 9.96 3.82 19.28 10.08 27.26.93 1.18 2.55 2.19 4.02 2.5 7.7 1.65 15.12.34 22.17-2.96 4.09-1.91 7.18-4.75 8.11-9.54 2.28-11.83 5.17-23.57 6.91-35.47 1.14-7.78.8-15.79.88-23.7.03-2.83-.98-5.17-4.65-5.21-3.09-.04-6.16-.58-9.24-.9z"/><path d="m160.26 116.94c7.31-1.78 14.52-3.2 21.54-5.31 10.75-3.23 21.71-3.75 32.8-3.49 6.03.14 10.15 4.29 9.81 10.27-.05.88-1.22 1.97-2.14 2.49-9.3 5.25-19.53 6.8-29.98 7.14-8.7.28-17.42.15-26.13.3-2.23.04-3.5-.59-3.89-3-.45-2.72-1.27-5.38-2.01-8.4z"/></g></svg>