<svg enable-background="new 0 0 400 400" viewBox="0 0 400 400" xmlns="http://www.w3.org/2000/svg"><path d="m374.8 390.4.4-.4c.7.5 1.3 1 1.8 1.4l-.5.5c-.5-.6-1.1-1.1-1.7-1.5zm1 7.3-.6-.3c.5-1.4 1.1-2.8 1.5-4.3.2.1.4.2.6.3-.5 1.3-1 2.8-1.5 4.3zm-.4-10.3.4-.4c.4.3 1 .8 1.7 1.4l-.5.5c-.4-.5-1-1-1.6-1.5zm2.5.3h1.7v-1h.6v1h3.5v-1h.6v1h1.8v.5h-1.8v1.4h-2v1h3.2v2h-3.2v.9h3.3v.5h-3.4c0 .3-.1.6-.1.9h4v.5h-3.7c.7.9 1.9 1.5 3.8 1.7-.1.2-.2.4-.3.6-2.1-.4-3.5-1.1-4-2.1-.4 1-1.8 1.7-4 2.2-.1-.2-.2-.4-.3-.6 2.1-.4 3.4-1 3.8-1.8h-3.4v-.5h3.6c.1-.3.1-.6.2-.9h-3.3v-.5h3.4c0-.3 0-.6 0-.9h-3.2v-2h3.3v-1h-2.1v-1.4h-1.7v-.5zm1.1 3.5v1h2.7c0-.3 0-.4 0-.4 0-.1 0-.2 0-.2 0-.1 0-.2 0-.3h-2.7zm1.2-3v.9h3.5v-.9zm4.7 3h-2.6v.6.4h2.6z" fill="#fbfcfa"/><path d="m393.6 386.7h.6v1.5h2.7v6.1h1.1v.6h-11v-.6h1.1v-6.1h2.7v-1.5h.6v1.5h2.1v-1.5zm-2.7 8.8.4.6c-1.2.6-2.5 1.3-3.8 1.9-.1-.2-.2-.4-.3-.6 1.2-.6 2.5-1.2 3.7-1.9zm-2.2-6.7v2.4h2.1v-2.4zm0 3v2.5h2.1v-2.5zm2.8-3v2.4h2.1v-2.4zm0 3v2.5h2.1v-2.5zm6 6.1c-1.4-.7-2.7-1.3-3.9-1.8l.3-.6c1.5.6 2.7 1.2 3.9 1.7zm-1.2-9.1h-2.1v2.4h2.1zm-2.1 3v2.5h2.1v-2.5z" fill="#fbfcfa"/><path d="m206.04 245.69c-10.93-3.08-21.67-6.1-32.4-9.13-24.28-6.86-41.71-21.96-52.25-44.67-5.65-12.18-4.61-25.09-1.3-37.81.24-.93 1.23-1.84 2.11-2.41 15.29-9.92 30.26-20.41 46.1-29.37 6.53-3.7 14.88-4.42 22.52-5.86 7.41-1.4 14.35-3.4 19.73-9.02.59-.61 1.36-1.4 1.4-2.14.43-7.57.73-15.15 1.07-22.91-7.7-1.76-14.97-.6-22.21.69-4.51.8-8.97 1.91-13.5 2.55-4.63.65-7.96-.9-9.28-3.77-1.47-3.18-.43-9.35 2.03-11.93 4-4.21 8.01-8.41 12.49-13.11-5.81-1.02-11.1-1.97-16.4-2.87-17.09-2.9-34.15-5.93-51.28-8.55-4.12-.63-8.45.05-12.68.26-2.83.14-6.28.78-7.26-2.47-.91-3.01-.46-6.48-.32-9.74.03-.57 1.46-1.21 2.34-1.6 8.52-3.86 17.71-4.42 26.82-5.44 26.13-2.95 52.04-.45 77.87 3.34 5.03.74 9.92 2.59 14.81 4.15 6.66 2.13 10.42 7.42 13.7 13.14 5.33 9.31 7.9 19.44 8.69 30.04 1.06 14.22.49 28.33-1.66 42.49-1.08 7.09-.61 14.54.03 21.75 1.07 11.99-1.42 23.61-2.57 35.39-1.07 10.89-2.46 21.81-2.49 32.72-.06 19.27-.7 38.49-2.52 57.66-.47 4.93 2.03 8.28 5.9 9.92 4.53 1.92 9.58 3.5 14.44 3.6 11.16.24 22.35-.43 33.52-.89 6.04-.25 11.31 1.34 15.42 5.85 1.24 1.36 2.21 3.14 2.77 4.9 1.3 4.12-.18 6.99-4.1 8.78-9.53 4.36-19.48 5.62-29.82 4.07-11.19-1.68-20.65 2.56-30.12 7.96-8.8 5.02-12.36 12.43-12.74 21.93-.25 6.25 0 12.53-.36 18.78-.29 5.07-.44 10.35-1.96 15.11-1.99 6.25-12.78 9.72-18.35 6.51-.81-.47-1.3-1.72-1.65-2.72-3.16-9.04-3.55-18.34-2.99-27.82.39-6.56.16-13.15.07-19.73-.02-1.3-.59-2.61-.99-3.89-1.89-6.04-4.9-10.32-12.21-10.75-12.02-.71-23.91-.13-35.81 1.38-7.35.94-14.71 1.46-21.87-1.25-6.02-2.28-9.56-6.69-11.31-12.77-.52-1.81-.16-2.77 1.59-3.7 10.51-5.54 21.86-8.34 33.37-10.79 10.63-2.26 21.35-1.6 32.07-1.68 5.89-.04 11.33-1.38 15.43-6.03.57-.64 1.2-1.41 1.35-2.21 1.6-8.54 3.14-17.11 4.76-25.94zm2.17-33.99c-3.08-4.41-6.94-6.64-12.88-7.37-7.59-.94-14.91-2.49-21.52-6.77-2.86-1.85-3.43-3.95-3.01-6.98 1.26-9.05 12.87-22.38 21.79-24.46 3.56-.83 7.3-.87 10.95-1.37 3.63-.49 6.96-2.84 7.07-5.11.12-2.34.16-4.72-.14-7.03-.73-5.54-4.48-8.65-9.99-7.94-10.4 1.32-19.6 5.1-26.39 13.63-4.32 5.42-8.61 10.93-13.48 15.83-4.95 4.98-5.72 10.9-4.6 17 1.87 10.21 7.73 17.78 17.73 21.24 5.34 1.85 11.01 2.97 16.62 3.78 6.31.9 12.46.06 17.85-4.45z" fill="#010106"/></svg>