<svg enable-background="new 0 0 400 400" viewBox="0 0 400 400" xmlns="http://www.w3.org/2000/svg"><path d="m122.54 269.61c4.13-5.59 8.6-7.17 14.8-3.91 6.89 3.62 14.25 1.54 21.39.42 10.61-1.68 21.07-3.9 31.09-8.01 5.64-2.31 9.18-5.38 7.97-12.16-.54-3.01-.09-6.2-.09-9.5-2.62 0-4.83-.03-7.03 0-10.4.14-20.83.77-31.2.28-6.51-.31-12.96-2.19-19.4-3.54-9.52-2-19-4.14-28.49-6.24-8.33-1.84-13.58-7.22-16.08-15.04-2.85-8.93-6.05-17.92-7.3-27.12-1-7.36.11-15.18 1.3-22.63 2.18-13.67 7.44-26.46 13.38-38.87 8.54-17.83 17.62-35.4 26.39-53.13 2.63-5.3 5.21-10.65 7.43-16.13 3.2-7.93 2.93-12.7-.58-25.49 2.75-2.83 5.73-4.34 9.66-2.07 5.88 3.4 12.15 6.23 17.65 10.15 9.02 6.41 10.77 15.73 3.96 24.49-7.05 9.07-12 19.1-16.38 29.5-3.61 8.58-9.76 15.48-14.47 23.3-9.85 16.35-19.85 32.66-26.07 50.9-.9 2.64-.25 3.69 2.09 4.84 11.98 5.88 24.22 6.11 36.42 1.26 12.35-4.91 24.49-10.33 36.66-15.69 4.4-1.94 5.76-6.27 6.15-10.48.38-4.17.17-8.53-.65-12.63-1.48-7.33-3.54-14.54-5.5-21.76-1.11-4.08-5.12-4.97-8.05-1.91-11.61 12.12-23.26 24.21-34.78 36.42-1.98 2.09-3.95 3.12-6.95 2.14-1.35-6.67.1-12.87 3.1-18.97 8.36-16.99 18.07-33.17 29.31-48.38 4.25-5.76 6.44-12.16 8.09-18.91.61-2.49 1.32-4.95 2.01-7.5 4.86-.14 9.36-.03 11.78 5.03.09.2.25.38.4.54 7.06 7.24 10.92 15.87 11.43 26 .06 1.19.5 2.41.99 3.52 5.86 13.22 10.18 26.83 12.6 41.18 1.69 10.06 2.68 11.38 14.27 10.82 5.57-.26 11.11-1.22 16.64-2.09 6.36-1 12.67-1.24 18.98.24 8.48 1.99 17.12 3.48 25.39 6.14 13.51 4.35 19.64 18.44 14.55 31.74-1.27 3.32-2.1 6.82-3.35 10.15-.37.98-1.38 1.81-2.27 2.47-3.23 2.38-7.05 4.18-9.71 7.06-8.04 8.72-18.13 13.63-29.16 17.02-5.34 1.64-10.71 3.18-16.11 4.61-13.69 3.63-18.68 10.84-17.15 25.93 4.45-.39 9.01-.36 13.4-1.24 11.17-2.24 22.22-5.05 33.4-7.28 3.74-.75 7.72-.73 11.56-.51 2.61.15 4.01 2.25 4.22 4.9.15 1.91-.33 3.23-2.4 4.15-13.57 6.06-27.02 12.39-40.62 18.38-3.65 1.61-7.71 2.26-11.54 3.49-2.54.81-5.15 1.6-7.47 2.86-3.24 1.76-5.38 4.32-5.81 8.38-3 28.62-12.42 55.77-19.32 83.5-.46 1.84-1.07 3.64-1.56 5.48-1.79 6.76-3.6 8.28-11.08 8.87-.18-1.47-.6-2.99-.49-4.46.83-11.25 1.7-22.5 2.69-33.74 1.03-11.7 2.2-23.38 3.31-35.07.39-4.12.87-8.23 1.2-12.36.19-2.41.03-4.95-2.58-6.02-2.73-1.12-5.65-1.58-8.23.54-7.47 6.12-16.13 8.53-25.63 8.04-9-.46-17.76-2.17-25.89-6.27-1.51-.76-2.96-1.98-3.95-3.35-2.93-3.98-5.55-8.13-8.32-12.28zm-13.42-92.38c-.86 3.78-1.93 7.21-2.36 10.73-.62 4.99.98 9.16 5.35 12.19 4.59 3.18 8.93 6.72 13.49 9.96 1.41 1 3.1 1.96 4.77 2.2 11.7 1.66 23.4 3.53 35.16 4.52 7.92.67 15.77-.84 23.25-3.98 5.57-2.34 9.07-5.53 8.16-12.23-.8-5.94-.64-12.03-1.68-17.91-.69-3.94-1.7-4.03-5.38-2.61-10.11 3.88-20.22 7.76-30.33 11.65-10.9 4.19-21.48 3.53-31.53-2.43-6.23-3.7-12.22-7.79-18.9-12.09zm118.34 19.65c4.06-1.32 7.92-1.83 10.93-3.7 9.17-5.69 18.02-11.9 26.97-17.93 3.93-2.65 5.85-6.51 6.83-11.06 1.35-6.26.64-7.45-5.59-8.3-.55-.07-1.09-.23-1.64-.31-3.86-.59-7.96-2.29-11.53-1.51-8 1.74-15.81 4.52-23.56 7.27-4.73 1.68-7.17 5.09-5.24 10.42.18.51.09 1.11.15 1.66.85 7.52 1.72 15.04 2.68 23.46z" fill="#010104"/><g fill="#fcfbfa"><path d="m385.2 377.6.6-.7c.6.4 1.3.9 1.9 1.5l-.6.7c-.8-.5-1.4-1-1.9-1.5zm.3 7.1c.6-1.4 1.1-2.9 1.5-4.5.3.1.6.3.9.4-.5 1.4-1 2.9-1.5 4.4zm.2-10.1.6-.6c.7.5 1.3 1.1 1.9 1.6l-.7.7c-.6-.6-1.2-1.2-1.8-1.7zm8.4-.8h.8v.9h1.8v.7h-1.8v1.8h-.8v-.3h-1.2v.9h3.3v2.6h-.8v-.4h-2.5c0 .3 0 .6-.1.8h3.4v.7h-3.5c0 .3-.1.6-.1.8h4v.7h-3.5c.7.9 1.9 1.3 3.6 1.5-.2.2-.4.5-.6.9-1.9-.3-3.2-1.1-3.8-2.3-.5 1.1-1.8 2-3.9 2.4-.2-.3-.4-.5-.6-.8 1.9-.4 3.1-.9 3.6-1.7h-3.2v-.7h3.5c.1-.2.1-.5.2-.8h-3.3v-.7h3.4c0-.2 0-.5 0-.8h-2.4v.3h-.8v-2.6h3.3v-.9h-1.2v.3h-.8v-1.8h-1.8v-.7h1.8v-.9h.8v.9h3.2zm-4.4 5.5h2.4c0-.3 0-.6 0-.9h-2.4zm1.2-3.1h3.2v-.8h-3.2zm4.4 2.2h-2.4v.9h2.5v-.9z"/><path d="m389.2 385.8h.9v1.5h1.9v-1.5h.9v1.5h2.7v6h1.1v.9h-11.3v-.9h1.1v-6h2.7zm.2 8.7.5.8c-1.2.6-2.5 1.3-4 1.9-.2-.3-.3-.6-.6-.8 1.6-.6 3-1.3 4.1-1.9zm-2-4.3h1.9v-2.1h-1.9zm0 3.1h1.9v-2.2h-1.9zm2.7-3.1h1.9v-2.1h-1.9zm0 3.1h1.9v-2.2h-1.9zm2.4 1.3c1.4.6 2.7 1.2 4.1 1.8l-.5.9c-1.5-.7-2.8-1.4-4.1-1.9zm2.2-6.5h-1.9v2.1h1.9zm-1.9 5.2h1.9v-2.2h-1.9z"/></g></svg>