<svg enable-background="new 0 0 400 400" viewBox="0 0 400 400" xmlns="http://www.w3.org/2000/svg"><path d="m46.88 344c-.5-5.05-.62-8.95 2.17-12.83 3.48-4.84 7.26-9.21 11.65-13.28 18.73-17.38 40.52-30.57 61.11-45.4 24.06-17.33 48.13-34.65 72.09-52.11 1.36-.99 2.5-3.3 2.49-4.98-.04-5.24-.49-10.49-1.14-15.69-.66-5.27-3.65-6.8-8.71-5.24-8.31 2.57-16.64 5.09-25.03 7.36-4.09 1.11-8.31 1.99-12.52 2.26-3.14.2-6.68-.04-9.47-1.33-8.05-3.72-14.69-8.78-17.44-18.16-1.84-6.31-2.4-12.03-.83-18.51 1.67-6.9 4.36-12.47 10.01-17.03 6.87-5.54 13.24-11.72 19.57-17.9 5.36-5.23 11.96-7.55 19.03-8.04 7.42-.51 13.28-3.38 18.25-8.69 1.26-1.35 2.84-2.64 4.54-3.32 4.6-1.84 6.5-5.46 6.61-9.96.16-6.69-.06-13.4-.29-20.1-.13-3.67-.62-7.32-1.02-11.82-3.66.66-7.19.73-10.28 1.95-9.87 3.9-19.54 8.27-29.34 12.35-2.25.94-4.64 1.81-7.03 2.06-8.24.84-15.25 4.92-22.61 8.08-1.42.61-2.81 1.27-4.19 1.9-1.64-2.86.04-8.13 3.25-11.08 8.07-7.39 17.14-13.31 27.05-17.9 17.05-7.9 32.67-18.06 47.43-29.6 1.65-1.29 2.84-3.43 3.67-5.42 2.38-5.67 5.65-7.29 11.37-5.19 4.05 1.48 6.84 4.23 8.09 8.36 2.29 7.59 5.19 15.11 6.45 22.88.88 5.43-.62 11.24-.93 16.88-.4 7.47-.92 14.94-.97 22.42-.23 31.44-.3 62.89-.43 94.33 0 .99.12 1.98.23 3.6 2.12-.45 4.28-.37 5.83-1.31 10.89-6.62 21.65-13.46 31.87-20.8.37-.69.56-1.64 1.13-2.04 4.32-3 8.68-5.94 13.08-8.81 15.28-9.97 30.38-20.16 43.72-32.75 3.19-3.01 7.19-.7 10.68.32 1.38.4 2.23 1.09 3.87.23 2.98-1.57 7.07 1.85 7.42 5.15.79 7.25-1.93 12.5-8.03 16.18-2.55 1.53-5.1 3.06-7.74 4.43-1.48.76-3.1 1.3-4.71 1.73-12.65 3.36-23.31 9.92-33.35 18.38-8.66 7.3-18.78 12.88-28.3 19.13-8.13 5.34-16.39 10.5-24.5 15.87-6.19 4.09-11.21 9.25-13.64 16.49-.35 1.04-.7 2.19-.61 3.26 1.87 24.25 1.08 48.53 1.29 72.81.1 12.22.45 24.38-2.16 36.41-.1.44-.18.88-.25 1.32-1.53 9.76-4.58 18.66-14.23 23.89 2.13 2.71 2.15 5.45-.02 6.92-2.44 1.65-5.54 2.45-8.46 3.21-.62.16-2.17-1.31-2.49-2.29-2.18-6.65-5.01-13.24-6.01-20.09-3.4-23.38-1.42-46.92-1.1-70.4.08-5.82.31-11.64.41-17.45.02-1.45.08-3-.38-4.33-.81-2.35-1.73-6.29-3.1-6.51-3.25-.52-7.06-.83-10.02 2.07-11.03 10.8-23.85 19.14-36.98 27.14-10.21 6.22-19.94 13.21-29.91 19.83-4.19 2.78-8.35 5.63-12.66 8.22-6.62 3.98-12.63 8.7-18.66 13.53-7.62 6.11-16.11 11.19-24.51 16.25-2.89 1.75-6.64 2.08-10.31 3.16zm122.05-167.62c8.47-.27 15.9-1.66 22.42-6 1.96-1.3 4.51-3.07 4.97-5.05 1.28-5.47 2.24-11.17 2.12-16.75-.12-5.98-4.39-8.86-10.2-9.65-7.44-1.02-14.09 1.67-20.86 3.62-2.8.81-6.74 2.92-7.31 5.16-1.76 6.94-2.69 14.21-2.89 21.39-.13 4.91 2.44 6.57 7.51 6.99 1.67.15 3.34.23 4.24.29z" fill="#010000"/><g fill="#fbfcfa"><path d="m361.2 9.6.8-1c.9.7 1.9 1.4 2.9 2.3l-.9 1.1c-1-1-2-1.8-2.8-2.4zm.5 10.6c.9-2.1 1.6-4.3 2.3-6.7.4.2.8.4 1.3.6-.7 2.1-1.5 4.3-2.2 6.6zm.4-15.2.9-.9c1 .8 2 1.6 2.8 2.4l-1 1c-.9-.9-1.8-1.7-2.7-2.5zm12.5-1.2h1.2v1.4h2.7v1.1h-2.7v2.7h-1.2v-.6h-1.8v1.3h4.9v3.8h-1.2v-.5h-3.7c0 .4-.1.9-.1 1.2h5.1v1h-5.2c0 .5-.1.9-.2 1.2h6v1h-5.2c1.1 1.3 2.9 2 5.5 2.2-.4.4-.7.8-.9 1.3-2.9-.5-4.8-1.6-5.7-3.5h-.1c-.8 1.7-2.7 2.9-5.9 3.6-.2-.4-.6-.8-.9-1.1 2.8-.6 4.6-1.4 5.4-2.5h-4.8v-1h5.3c.1-.3.2-.7.2-1.2h-4.9v-1h5c0-.4 0-.8.1-1.2h-3.5v.5h-1.2v-3.8h4.9v-1.3h-1.8v.5h-1.2v-2.7h-2.7v-1h2.6v-1.4h1.2v1.4h4.7v-1.4zm-6.6 8.3h3.6c0-.4 0-.9 0-1.4h-3.6zm1.9-4.6h4.7v-1.3h-4.7zm6.6 3.2h-3.7v1.4h3.7z"/><path d="m385.3 3.8h1.3v2.2h2.8v-2.2h1.3v2.2h4.1v9.1h1.7v1.3h-16.9v-1.3h1.7v-9.1h4.1v-2.2zm.4 13.1.7 1.2c-1.8.9-3.8 1.9-6 2.9-.2-.4-.5-.8-.8-1.3 2.3-1 4.3-1.9 6.1-2.8zm-3.1-6.4h2.8v-3.2h-2.8zm0 4.6h2.8v-3.3h-2.8zm4-4.6h2.8v-3.2h-2.8zm0 4.6h2.8v-3.3h-2.8zm3.7 1.9c2.1.9 4.1 1.8 6.1 2.7l-.7 1.3c-2.2-1.1-4.2-2-6.1-2.9zm3.2-9.7h-2.8v3.2h2.8zm-2.8 7.8h2.8v-3.3h-2.8z"/></g></svg>