<svg enable-background="new 0 0 400 400" viewBox="0 0 400 400" xmlns="http://www.w3.org/2000/svg"><path d="m78.92 119.56c-1.72-4.13-.85-6.42 1.93-9.1 13.76-13.28 27.5-26.61 40.6-40.53 7.63-8.11 13.25-17.84 14.78-29.19.39-2.88-1.13-5.99-1.58-9.02-.19-1.27-.4-3.04.28-3.83 1.35-1.57 2.91-3.88 5.58-2.42 2.39 1.3 4.64 2.89 6.89 4.44 2.9 2 5.63 4.28 8.64 6.09 4 2.4 8.48 4.09 12.26 6.78 4.81 3.42 5.38 8.48 2.53 13.53-2.11 3.75-4.38 7.07-8.62 8.89-3.2 1.37-3.38 4.1-.93 6.78 5.97 6.52 12.13 12.88 17.92 19.55 4.52 5.21 8.74 10.71 12.84 16.26 3.31 4.49 6.21 5.16 10.12 1.34 6.96-6.8 13.89-13.64 20.51-20.76 4.59-4.94 7.3-10.93 7.52-17.86.13-3.91-.56-7.54-2.93-10.77-.84-1.15-1.48-2.46-2.45-4.09 5.04.43 9.34.64 12.94 4.62 3.02 3.33 7.01 5.91 10.87 8.33 3.93 2.46 5.78 5.71 5.77 10.23-.02 6.21-1.58 11.55-5.94 16.49-12 13.59-23.63 27.5-37.11 39.7-1.52 1.37-1.68 2.58-.8 4.37 3.44 7 6.9 14 10.06 21.13 1.52 3.43 2.6 7.09 3.44 10.75.74 3.19 1.59 4.15 4.82 3 2.81-1.01 5.69-2.21 8.08-3.95 10.69-7.78 22.95-10.87 35.75-12.18 6.87-.7 13.91-1.46 20.72-.72 17.81 1.94 25.02 11.57 23.07 29.55-.77 7.1-3.88 13.32-8.01 19.26-8.8 12.68-20.67 21.91-33.17 30.38-10.36 7.02-21.16 13.39-31.86 19.9-2.07 1.26-2.97 2.67-3.03 5.04-.13 4.8-.47 9.59-.75 14.86 5.28.36 10.46.83 15.65 1.04 7.62.31 15 1.16 22.21 4.15 3.88 1.6 8.51 1.6 12.83 1.84 5.59.31 8.24 2.49 9 8.47-7.81 3.11-15.95 3.54-24.26 2.81-8.34-.74-16.69-2.14-24.98.32-.86.25-1.72.49-2.56.8-5.12 1.86-8.57 4.78-9.35 10.82-2.68 20.7-10.59 39.62-20.57 57.76-2.68 4.86-5.62 9.43-11.96 10.2-2.34.28-3.49-.46-4.39-2.44-2.29-5.01-1.41-9.87.77-14.57 1.84-3.95 3.71-7.94 6.09-11.56 4.44-6.74 6.36-14.16 7.12-22.04.45-4.67 1.1-9.33 1.64-14 .34-2.87-.53-3.85-3.34-2.92-2.72.9-5.31 2.31-7.8 3.78-13.38 7.9-27.89 10.98-43.15 8.92-5.43-.74-10.69-3.68-15.68-6.28-3.72-1.94-7.08-4.74-10.2-7.6-1.88-1.73-3.34-4.15-4.36-6.53-1.1-2.58-.03-3.72 2.81-3.6.97.04 2.09.24 2.87.76 3.59 2.4 7.38 2.6 11.56 1.91 9.6-1.57 19.28-2.65 28.86-4.31 4.04-.7 7.9-2.4 11.86-3.57 6.43-1.89 12.93-3.53 19.3-5.59 8.71-2.82 11.63-7.77 10.47-16.5-.29-2.19-1.34-3.08-3.25-2.83-4.97.65-10.02 1.05-14.84 2.32-14.5 3.8-29.05 6.26-44.1 4.3-10.37-1.35-20.61-3.06-29.32-9.49-1.53-1.13-2.96-2.39-4.39-3.64-4.64-4.04-6.66-9.11-6.92-15.31-.24-5.78-1.61-11.51-2.18-17.29-.22-2.21.02-4.63.68-6.75 5.22-16.84 14.69-31.06 26.32-44.22 11.62-13.16 22.34-27.12 33.52-40.66 1.31-1.58 1.36-2.86.83-4.81-4.15-15.09-15.16-25.58-24.81-36.91-1.99-2.33-5.19-3.87-8.11-5.12-4.02-1.72-7.67-1.36-11.27 2.1-3.58 3.43-7.94 6.18-12.29 8.64-11.27 6.37-22.69 12.49-34.13 18.55-2.13 1.08-4.65 1.48-6.92 2.2zm108.53 36.55c-1.1 1.43-1.54 2.08-2.05 2.65-16.77 18.76-34.12 37.03-48.88 57.49-2.09 2.89-3.71 6.37-4.61 9.81-2.22 8.51 1.4 15.62 9.25 19.4 3.62 1.74 7.13 3.81 10.89 5.16 3.5 1.26 7.35 2.76 10.89 2.44 10.98-1 22-2.3 32.78-4.53 6.1-1.26 11.83-4.47 17.62-7.03 1.12-.5 2.6-2.13 2.51-3.12-.61-6.86-1.4-13.72-2.53-20.52-.48-2.92-2.59-4.19-5.78-3.18-5.86 1.84-11.77 3.49-17.65 5.26-11.26 3.38-21.38 2-29.96-6.75-2.33-2.38-5.03-4.47-7.82-6.32-2.55-1.69-3.29-3.4-1.27-6.18 4.48.98 9.04 2.05 13.62 2.96 13.29 2.63 24.87-1.45 35.53-9.15 2.55-1.84 3.29-4.07 2.19-6.93-2.91-7.6-5.66-15.27-8.87-22.74-1.22-2.88-3.51-5.31-5.86-8.72zm44.49 48.98c.48 8.63 2.02 15.33 4.93 21.73.87 1.92 2.08 2.56 4.19 2.3 7.27-.89 14.02-3.1 19.61-7.93 4.4-3.8 8.42-8.03 12.74-11.92 7.91-7.12 12.77-15.97 15.37-26.2.83-3.26 1.57-6.63-1.45-8.98-3.17-2.47-6.81-3.68-10.93-1.83-9.28 4.16-17.39 9.99-25.13 16.53-4.32 3.65-9.07 7.02-14.13 9.48-4.02 1.95-5.8 4.17-5.2 6.82z" fill="#010104"/><g fill="#fcfbfa"><path d="m385.2 377.6.6-.7c.6.4 1.3.9 1.9 1.5l-.6.7c-.8-.5-1.4-1-1.9-1.5zm.3 7.1c.6-1.4 1.1-2.9 1.5-4.5.3.1.6.3.9.4-.5 1.4-1 2.9-1.5 4.4zm.2-10.1.6-.6c.7.5 1.3 1.1 1.9 1.6l-.7.7c-.6-.6-1.2-1.2-1.8-1.7zm8.4-.8h.8v.9h1.8v.7h-1.8v1.8h-.8v-.3h-1.2v.9h3.3v2.6h-.8v-.4h-2.5c0 .3 0 .6-.1.8h3.4v.7h-3.5c0 .3-.1.6-.1.8h4v.7h-3.5c.7.9 1.9 1.3 3.6 1.5-.2.2-.4.5-.6.9-1.9-.3-3.2-1.1-3.8-2.3-.5 1.1-1.8 2-3.9 2.4-.2-.3-.4-.5-.6-.8 1.9-.4 3.1-.9 3.6-1.7h-3.2v-.7h3.5c.1-.2.1-.5.2-.8h-3.3v-.7h3.4c0-.2 0-.5 0-.8h-2.4v.3h-.8v-2.6h3.3v-.9h-1.2v.3h-.8v-1.8h-1.8v-.7h1.8v-.9h.8v.9h3.2zm-4.4 5.5h2.4c0-.3 0-.6 0-.9h-2.4zm1.2-3.1h3.2v-.8h-3.2zm4.4 2.2h-2.4v.9h2.5v-.9z"/><path d="m389.2 385.8h.9v1.5h1.9v-1.5h.9v1.5h2.7v6h1.1v.9h-11.3v-.9h1.1v-6h2.7zm.2 8.7.5.8c-1.2.6-2.5 1.3-4 1.9-.2-.3-.3-.6-.6-.8 1.6-.6 3-1.3 4.1-1.9zm-2-4.3h1.9v-2.1h-1.9zm0 3.1h1.9v-2.2h-1.9zm2.7-3.1h1.9v-2.1h-1.9zm0 3.1h1.9v-2.2h-1.9zm2.4 1.3c1.4.6 2.7 1.2 4.1 1.8l-.5.9c-1.5-.7-2.8-1.4-4.1-1.9zm2.2-6.5h-1.9v2.1h1.9zm-1.9 5.2h1.9v-2.2h-1.9z"/></g></svg>