<svg enable-background="new 0 0 400 400" viewBox="0 0 400 400" xmlns="http://www.w3.org/2000/svg"><path d="m374.8 390.4.4-.4c.7.5 1.3 1 1.8 1.4l-.5.5c-.5-.6-1.1-1.1-1.7-1.5zm1 7.3-.6-.3c.5-1.4 1.1-2.8 1.5-4.3.2.1.4.2.6.3-.5 1.3-1 2.8-1.5 4.3zm-.4-10.3.4-.4c.4.3 1 .8 1.7 1.4l-.5.5c-.4-.5-1-1-1.6-1.5zm2.5.3h1.7v-1h.6v1h3.5v-1h.6v1h1.8v.5h-1.8v1.4h-2v1h3.2v2h-3.2v.9h3.3v.5h-3.4c0 .3-.1.6-.1.9h4v.5h-3.7c.7.9 1.9 1.5 3.8 1.7-.1.2-.2.4-.3.6-2.1-.4-3.5-1.1-4-2.1-.4 1-1.8 1.7-4 2.2-.1-.2-.2-.4-.3-.6 2.1-.4 3.4-1 3.8-1.8h-3.4v-.5h3.6c.1-.3.1-.6.2-.9h-3.3v-.5h3.4c0-.3 0-.6 0-.9h-3.2v-2h3.3v-1h-2.1v-1.4h-1.7v-.5zm1.1 3.5v1h2.7c0-.3 0-.4 0-.4 0-.1 0-.2 0-.2 0-.1 0-.2 0-.3h-2.7zm1.2-3v.9h3.5v-.9zm4.7 3h-2.6v.6.4h2.6z" fill="#fbfcfa"/><path d="m393.6 386.7h.6v1.5h2.7v6.1h1.1v.6h-11v-.6h1.1v-6.1h2.7v-1.5h.6v1.5h2.1v-1.5zm-2.7 8.8.4.6c-1.2.6-2.5 1.3-3.8 1.9-.1-.2-.2-.4-.3-.6 1.2-.6 2.5-1.2 3.7-1.9zm-2.2-6.7v2.4h2.1v-2.4zm0 3v2.5h2.1v-2.5zm2.8-3v2.4h2.1v-2.4zm0 3v2.5h2.1v-2.5zm6 6.1c-1.4-.7-2.7-1.3-3.9-1.8l.3-.6c1.5.6 2.7 1.2 3.9 1.7zm-1.2-9.1h-2.1v2.4h2.1zm-2.1 3v2.5h2.1v-2.5z" fill="#fbfcfa"/><g fill="#010106"><path d="m138.06 331.05c6.59-.81 12.99-1.61 19.39-2.37 9.66-1.15 19.35-2.13 28.97-3.56 1.7-.25 3.75-2.07 4.52-3.7 1-2.11 1.15-4.75 1.2-7.18.24-13.08.18-26.17.54-39.25.31-11.18-2.59-21.69-6-32.13-.39-1.2-1.42-2.24-2.3-3.22-8.61-9.62-16.04-20.08-22.56-31.22-4.73-8.1-5.45-16.83-5.09-25.9.66-16.48 4.61-32.27 9.76-47.81 5.7-17.18 11.48-34.33 17.34-51.45.58-1.71 1.73-3.38 3.02-4.66 5.16-5.13 10.48-10.09 15.74-15.12 6.81-6.51 15.28-10.43 23.24-15.18 1.41-.84 2.71-2.6 3.15-4.19 1.74-6.23 3.11-12.56 4.67-19.03 5.77.95 9.51 4.18 11.16 9.45.95 3.05 1.4 6.35 1.47 9.55.2 9.32-.67 18.53-3.85 27.41-.79 2.21-2.03 3.4-4.34 4.07-8.9 2.58-17.8 5.22-26.59 8.16-6.07 2.03-11.12 5.78-14.75 11.13-1.28 1.88-2.16 4.11-2.83 6.31-2.5 8.1-4.8 16.26-7.24 24.37-1.45 4.81-1.36 8.87 2.93 12.66 13.42 11.85 26.63 23.94 39.68 36.18 2 1.88 4.42 5.67 3.75 7.5-1.1 2.96-5.28 2.85-8.35 2.2-4.79-1.02-9.39-2.45-13.49-5.55-9.98-7.56-20.21-14.8-31.23-22.81-2.17 6.76-4.25 13.06-6.18 19.4-.58 1.91-.82 3.94-1.09 5.93-.88 6.47-.39 12.5 3.65 18.18 9.19 12.94 18.03 26.13 26.95 39.26 2.74 4.03 6.02 5.56 11.06 4.44 9.88-2.19 19.73-2.32 29.07 2.62 7.09 3.75 13.37 8.2 13.25 17.29-.09 7.06-3.17 13.2-7.07 18.9-2.27 3.32-4.74 6.52-7.28 9.64-.95 1.17-2.18 2.3-3.53 2.91-7.23 3.26-14.52 6.37-21.81 9.49-7.52 3.22-10.79 8.48-10.41 16.58.08 1.75.57 2.79 2.38 2.92 6.67.47 13.34.95 20.02 1.38 3.67.23 7.36.26 11.02.6 1.28.12 2.92.57 3.64 1.47 1.38 1.72 2.55 3.79 3.04 5.9.13.54-2.54 2.31-4.07 2.53-4.5.66-9.07.94-13.63 1.14-5.78.25-11.58.05-17.34.48-3.49.26-5.96 2.38-6.53 6.12-.85 5.63-1.68 11.25-2.52 16.88-.46 3.09-.72 6.22-1.47 9.24-.38 1.54-1.4 3.1-2.54 4.23-2.79 2.75-6.03 2.09-6.58-1.64-.87-5.93-.96-11.97-1.3-17.97-.11-1.89.2-3.8.08-5.69-.58-8.86-1.71-10.3-10.69-10.39-6.67-.07-13.35 1.11-20.04 1.38-4.98.2-10.04.27-14.95-.4-3.65-.5-6.2-3.18-7.04-7.48zm68.51-49.96c.41 2.93.6 5.63 1.19 8.22.91 3.96 1.64 4.36 5.6 3.37 9.09-2.26 16.6-7.29 22.83-14.05 5.6-6.08 4.48-17.47-1.86-22.65-.94-.77-2.67-1.22-3.84-.95-6.09 1.41-12.1 3.18-18.18 4.64-1.97.47-2.76 1.48-3.03 3.37-.86 6.11-1.82 12.18-2.71 18.05z"/><path d="m216.96 279.52c-3.3-6.28-.52-12.08.52-17.93 6.4-.19 11.8 6.11 10.52 12.18-.17.82-.95 1.82-1.7 2.15-3.02 1.31-6.15 2.39-9.34 3.6z"/></g></svg>