<svg enable-background="new 0 0 400 400" viewBox="0 0 400 400" xmlns="http://www.w3.org/2000/svg"><path d="m100.25 158.76c5.33-1.4 10.11-1.03 14.61.91 6.56 2.83 13.08 5.81 19.4 9.14 10.02 5.28 12.28 16.54 5.39 25.53-6.25 8.15-12.49 16.3-18.87 24.62 6.1 4.53 12.94 5.87 20.04 6.17 10.16.44 20.12-1.23 29.8-4.06 12.53-3.66 24.86-7.97 37.34-11.8 6.93-2.13 10-7.38 12.02-13.66 3.03-9.41 3.23-19.15 1.08-28.55-3.98-17.41-8.98-34.58-13.38-51.89-1.46-5.74-5.79-9.09-9.62-12.95-7.63-7.7-14.45-8.86-25.99-1.92-14.95 8.98-29.61 18.45-44.29 27.87-23.29 14.95-48.44 25.91-74.41 35.14-8.1 2.88-16.33 5.42-24.36 8.49-3.03 1.16-4.89.59-6.45-1.92-1.06-1.71.03-5.66 1.99-7.18 4.43-3.42 8.89-6.8 13.34-10.19 20.83-15.87 41.7-31.68 62.45-47.66 4.51-3.47 8.62-7.47 12.8-11.35 9.59-8.91 19.16-17.86 28.61-26.93 1.02-.98 1.79-2.87 1.7-4.28-.54-8.93-1.35-17.84-2.14-27.5 5.9.56 11.54.89 17.12 1.67 9.33 1.3 18.56 3.05 26.51 8.67 3.61 2.55 6.86 5.42 8.33 9.77 3.64 10.81 10.28 18.95 20.42 24.44 14.93 8.09 21.27 22.6 27.27 37.36 4.11 10.11 4.79 20.87 6.6 31.41 1.96 11.46 3.53 22.99 5.57 34.44.25 1.4 2.34 3.53 3.54 3.51 3.24-.06 6.72-.53 9.64-1.87 9.89-4.54 19.92-8.56 30.69-10.42 13.79-2.38 27.6-4.88 41.61-1.71 10.82 2.45 20.04 8.15 28.62 14.89 4.55 3.58 5.95 10.13 3.78 15.59-3.38 8.52-6.86 16.99-10.42 25.44-.54 1.27-1.59 2.39-2.61 3.38-16.16 15.63-35.36 26.51-55.79 35.39-22.95 9.97-46.02 19.67-68.99 29.58-1.85.8-3.85 2.04-4.96 3.65-8.4 12.26-16.74 24.57-24.8 37.05-4.86 7.53-9.29 15.33-16.15 21.31-4.91 4.28-10.33 7.46-17.33 7.2-.7-4.78-.39-8.69 3.38-12.74 9.85-10.57 17.48-22.63 20.82-36.98.13-.54.29-1.08.37-1.63 1.04-6.58-.51-8.43-7.38-8.23-2.41.07-4.89.65-7.19 1.44-25.25 8.66-51.12 9.69-77.18 5.56-16.27-2.58-28.76-11.78-36.57-26.26-2.72-5.05-2.79-11.46-4.69-17.03-2.54-7.43-1.8-14.23 1.48-21.27 2.97-6.36 5-13.16 7.68-19.66.71-1.73 2.02-3.46 3.51-4.61 13.42-10.42 23.91-23.17 30.77-38.73 1.46-3.32 2.11-7.05 2.77-10.66.75-4.08.31-7.95-3.18-10.97-1.54-1.31-2.65-3.04-4.3-5.01zm115.6 82.05c-2.66 0-4.65-.04-6.64.01-18.64.42-37.26 2.32-55.93-.16-12.16-1.62-24.52-1.91-36.05-6.85-2.15-.92-4.5-1.37-6.66-2.28-2-.84-3.42-.6-5.02 1-4.52 4.5-9.24 8.79-13.86 13.19-.8.76-1.74 1.56-2.13 2.53-2.59 6.41-5.43 12.75-7.43 19.35-1.91 6.29 2.85 15.95 8.17 17.91 8.77 3.25 17.87 4.89 27.17 5.47 16.94 1.05 33.76-.11 50.39-3.42 14.25-2.84 27.86-7.4 39.52-16.51.93-.73 2.08-1.67 2.32-2.7 2.11-8.9 4.02-17.84 6.15-27.54zm33.68 19.19c.49.19.99.38 1.48.56 18.73-10.8 39.38-16.79 59.4-24.35 8.09-3.05 15.51-7.41 22.1-13.1 5.35-4.61 6.15-10.68 5.09-17.05-.32-1.94-1.96-4.12-3.62-5.3-6.67-4.69-14.36-5.53-22.13-4.19-19.39 3.34-36.13 12.49-51.72 24.15-4.97 3.72-8.43 8.14-9.53 14.29-.72 4.07-1.89 8.12-2.06 12.2-.16 4.25.63 8.53.99 12.79z" fill="#010104"/><g fill="#fcfbfa"><path d="m385.2 377.6.6-.7c.6.4 1.3.9 1.9 1.5l-.6.7c-.8-.5-1.4-1-1.9-1.5zm.3 7.1c.6-1.4 1.1-2.9 1.5-4.5.3.1.6.3.9.4-.5 1.4-1 2.9-1.5 4.4zm.2-10.1.6-.6c.7.5 1.3 1.1 1.9 1.6l-.7.7c-.6-.6-1.2-1.2-1.8-1.7zm8.4-.8h.8v.9h1.8v.7h-1.8v1.8h-.8v-.3h-1.2v.9h3.3v2.6h-.8v-.4h-2.5c0 .3 0 .6-.1.8h3.4v.7h-3.5c0 .3-.1.6-.1.8h4v.7h-3.5c.7.9 1.9 1.3 3.6 1.5-.2.2-.4.5-.6.9-1.9-.3-3.2-1.1-3.8-2.3-.5 1.1-1.8 2-3.9 2.4-.2-.3-.4-.5-.6-.8 1.9-.4 3.1-.9 3.6-1.7h-3.2v-.7h3.5c.1-.2.1-.5.2-.8h-3.3v-.7h3.4c0-.2 0-.5 0-.8h-2.4v.3h-.8v-2.6h3.3v-.9h-1.2v.3h-.8v-1.8h-1.8v-.7h1.8v-.9h.8v.9h3.2zm-4.4 5.5h2.4c0-.3 0-.6 0-.9h-2.4zm1.2-3.1h3.2v-.8h-3.2zm4.4 2.2h-2.4v.9h2.5v-.9z"/><path d="m389.2 385.8h.9v1.5h1.9v-1.5h.9v1.5h2.7v6h1.1v.9h-11.3v-.9h1.1v-6h2.7zm.2 8.7.5.8c-1.2.6-2.5 1.3-4 1.9-.2-.3-.3-.6-.6-.8 1.6-.6 3-1.3 4.1-1.9zm-2-4.3h1.9v-2.1h-1.9zm0 3.1h1.9v-2.2h-1.9zm2.7-3.1h1.9v-2.1h-1.9zm0 3.1h1.9v-2.2h-1.9zm2.4 1.3c1.4.6 2.7 1.2 4.1 1.8l-.5.9c-1.5-.7-2.8-1.4-4.1-1.9zm2.2-6.5h-1.9v2.1h1.9zm-1.9 5.2h1.9v-2.2h-1.9z"/></g></svg>