<svg enable-background="new 0 0 400 400" viewBox="0 0 400 400" xmlns="http://www.w3.org/2000/svg"><path d="m204.19 374.65c-9.66-17.59-14.37-35.57-10.31-55.66 2.67-13.23 3.37-26.85 2.2-40.45-.22-2.51.03-5.17.65-7.61.94-3.66 1.37-7.18.25-10.86-.26-.87.01-1.94.19-2.89.23-1.2.7-2.36.92-3.56.59-3.25.93-6.58-1.94-8.98-2.05-1.72-7.52-.95-10.38 1.34-12.93 10.33-25.95 20.56-38.69 31.12-13.92 11.54-28.79 21.55-44.66 30.22-6.04 3.3-11.54 7.63-17.06 11.79-4.92 3.71-9.73 7.43-16.63 7.85 1.1-5.56.96-10.83 6.26-14.88 9.14-6.99 17.42-15.1 26.34-22.39 6.72-5.48 13.89-10.41 21.08-15.75-.03-.01-.84-.26-2.1-.65 8.61-6.55 16.38-12.37 24.05-18.33 16.88-13.11 33.69-26.31 50.56-39.43 3.29-2.55 4.88-5.65 4.35-9.87-.34-2.72-1.73-4.03-4.39-3.98-1.22.02-2.44.22-3.65.38-13.95 1.88-27.88 3.84-41.84 5.61-4.33.55-6.65-2.61-8.71-5.74-6.17-9.35-9.52-19.77-10.45-30.81-1.08-12.8-1.58-25.66-2.14-38.5-.13-2.99.37-6.03.82-9.01.85-5.59 4.14-8.38 9.85-8.78 1.07-.08 2.11-.63 3.14-1.03.52-.2 1.02-.48 1.45-.83 14.58-11.81 32.5-14.01 49.99-17.42 2.73-.53 5.49-.92 8.37-1.4 0-10.32 0-20.48 0-30.75-3.26-1.43-5.94-1.59-8.91 1.38-2.95 2.95-6.68 5.21-10.33 7.35-8.47 4.97-16.94 9.98-25.7 14.4-5.72 2.89-11.85 5.11-17.99 7.02-6.27 1.95-12.76 3.17-19.59 4.81.91-6.31.52-12.9 7.71-16.4 6.77-3.29 11.78-8.7 16.52-14.45 2.01-2.44 4.61-4.53 7.27-6.29 17.6-11.69 35.28-23.27 53-34.78 1.22-.79 3.02-.8 4.57-.96.86-.09 1.75.31 2.64.41 7.4.79 8.29 3.16 9.74 10.9 1.21 6.46 2.29 12.95 3.2 19.46.47 3.39.76 6.87.59 10.28-.35 7.04-1.71 14.08-1.44 21.08.23 6.02 2.23 11.97 3.21 17.98.23 1.43-.05 3.27-.8 4.47-3.48 5.54-4.43 11.7-4.5 18-.14 12.97-.04 25.94-.03 38.91 0 .11.05.25.01.33-2.3 4.51-.01 8.99 0 13.49.01 2.66-.6 5.31-.88 7.98-.43 3.99 1.15 5.47 5.07 4.45 1.66-.43 3.34-1.31 4.67-2.41 12.24-10.13 24.23-20.59 36.67-30.47 7.07-5.61 15.08-10.04 22.26-15.53 5.47-4.18 10.22-9.3 15.47-13.8 3.09-2.65 6.24-5.55 9.87-7.2 5.26-2.38 9.9.55 10.8 6.22.14.89-.93 2.1-1.65 2.99-15.44 19.3-34.36 34.85-53.94 49.64-12.04 9.09-24.34 17.85-36.52 26.76-1.53 1.12-3.04 2.28-4.54 3.45-4.93 3.87-7.79 8.45-7.24 15.23.44 5.39-.74 10.89-.8 16.35-.1 8.82.21 17.65.2 26.47-.01 23.95.39 47.92-.44 71.85-.27 7.8-3.51 15.6-6.07 23.17-1.43 4.22-4.5 7.71-9.62 8.71zm-38.97-188.77c.01-.08.02-.17.02-.25 1.01 0 2.01.04 3.02-.01 10.92-.53 21.56-2.01 30.78-8.69 1.7-1.23 2.16-2.46 1.93-4.46-.49-4.21-.91-8.46-.95-12.69-.02-2.44-.95-3.49-3.18-3.67-1.22-.1-2.49-.27-3.66-.03-13.21 2.77-26.45 5.4-39.58 8.52-7.73 1.83-8.88 4.25-7.34 12.14.95 4.88 3.43 7.42 8.3 8.11 3.54.49 7.11.7 10.66 1.03zm37.48-58.3c-.03 0-.07-.01-.1-.01 0-1.34.07-2.69-.01-4.03-.35-5.88-4.29-9-9.98-7.92-2.3.44-4.62.83-6.9 1.39-9.21 2.27-18.58 4.07-27.55 7.04-9.28 3.07-12.35 9.9-9.55 17.94 1 2.88 2.36 3.49 5.45 2.92 13.65-2.56 26.96-7.73 41.24-5.65.54.08 1.13-.02 1.67-.13 3-.64 5.52-1.63 5.26-5.53-.13-1.99.3-4.01.47-6.02z" fill="#010000"/><g fill="#fbfcfa"><path d="m361.2 9.6.8-1c.9.7 1.9 1.4 2.9 2.3l-.9 1.1c-1-1-2-1.8-2.8-2.4zm.5 10.6c.9-2.1 1.6-4.3 2.3-6.7.4.2.8.4 1.3.6-.7 2.1-1.5 4.3-2.2 6.6zm.4-15.2.9-.9c1 .8 2 1.6 2.8 2.4l-1 1c-.9-.9-1.8-1.7-2.7-2.5zm12.5-1.2h1.2v1.4h2.7v1.1h-2.7v2.7h-1.2v-.6h-1.8v1.3h4.9v3.8h-1.2v-.5h-3.7c0 .4-.1.9-.1 1.2h5.1v1h-5.2c0 .5-.1.9-.2 1.2h6v1h-5.2c1.1 1.3 2.9 2 5.5 2.2-.4.4-.7.8-.9 1.3-2.9-.5-4.8-1.6-5.7-3.5h-.1c-.8 1.7-2.7 2.9-5.9 3.6-.2-.4-.6-.8-.9-1.1 2.8-.6 4.6-1.4 5.4-2.5h-4.8v-1h5.3c.1-.3.2-.7.2-1.2h-4.9v-1h5c0-.4 0-.8.1-1.2h-3.5v.5h-1.2v-3.8h4.9v-1.3h-1.8v.5h-1.2v-2.7h-2.7v-1h2.6v-1.4h1.2v1.4h4.7v-1.4zm-6.6 8.3h3.6c0-.4 0-.9 0-1.4h-3.6zm1.9-4.6h4.7v-1.3h-4.7zm6.6 3.2h-3.7v1.4h3.7z"/><path d="m385.3 3.8h1.3v2.2h2.8v-2.2h1.3v2.2h4.1v9.1h1.7v1.3h-16.9v-1.3h1.7v-9.1h4.1v-2.2zm.4 13.1.7 1.2c-1.8.9-3.8 1.9-6 2.9-.2-.4-.5-.8-.8-1.3 2.3-1 4.3-1.9 6.1-2.8zm-3.1-6.4h2.8v-3.2h-2.8zm0 4.6h2.8v-3.3h-2.8zm4-4.6h2.8v-3.2h-2.8zm0 4.6h2.8v-3.3h-2.8zm3.7 1.9c2.1.9 4.1 1.8 6.1 2.7l-.7 1.3c-2.2-1.1-4.2-2-6.1-2.9zm3.2-9.7h-2.8v3.2h2.8zm-2.8 7.8h2.8v-3.3h-2.8z"/></g></svg>