<svg enable-background="new 0 0 400 400" viewBox="0 0 400 400" xmlns="http://www.w3.org/2000/svg"><path d="m131.31 369.77c3.04-10.05 6.15-20.08 9.08-30.16.83-2.87 1.23-5.89 1.65-8.86.86-5.95 1.59-11.93 2.39-17.89.15-1.11.42-2.2.51-3.31.54-6.51-.55-7.47-6.82-6.22-13.93 2.76-27.86 5.52-41.8 8.2-6 1.16-7.64.36-9.16-4.28 3.08-1.6 6.32-3.06 9.34-4.89 5.72-3.46 11.31-7.12 16.95-10.71.85-.54 1.55-1.5 2.46-1.72 7.94-1.91 13.73-7.77 20.81-11.23 2.94-1.44 4.97-3.69 5.79-6.99-.43-.25-.79-.59-1.2-.68-8.91-2.08-16.27-7.15-23.76-12.07-5.98-3.93-12.15-7.58-18.25-11.31-2.89-1.77-4.97-4.07-5.65-7.84 6.31-2.2 12.88-3.15 19.09-1.44 9 2.47 17.67 6.14 26.46 9.34 2.49.91 4.91 1.98 7.73 3.13.9-6.64 1.84-12.93 2.52-19.24.1-.9-.89-2.49-1.73-2.81-4.24-1.59-8.51-3.36-12.93-4.13-5.82-1.02-11.38-2.27-16.06-6.1-.26-.21-.56-.37-.84-.56-5.82-3.94-13.26-6.71-17.11-12.07-7.32-10.18-12.78-21.72-16.43-33.96-5.58-18.73-5.69-37.63-3.06-56.83 2.71-19.84 8.29-38.91 14.05-57.96 2.39-7.91 4.57-15.88 7.13-23.73.96-2.92 2.75-5.57 4.42-8.85 7.42 6.58 15.96 10.63 20.88 19.81 5.24 9.76 12.79 18.29 19.34 27.35 1.31 1.81 2.64 3.62 4.03 5.37 7.18 9.03 11.82 19.48 16.73 29.78 1.5 3.14 2.22 7.05 6.77 7.46 5.62.51 8.58-1.63 9.79-7.2.38-1.74.36-3.57.77-5.31.91-3.89 1.54-7.93 3.05-11.59 3.15-7.64 6.75-15.1 10.26-22.59 1.09-2.31 2.47-4.49 3.75-6.71 3.34-5.8 6.77-11.55 10.05-17.39 3.48-6.2 7.07-6.91 12.73-2.75 2.99 2.2 5 4.87 6.58 8.21 5.62 11.93 11.72 23.64 17.15 35.66 3.02 6.69 5.08 13.82 7.58 20.74.38 1.04.52 2.41 1.26 3.05 3.64 3.12 3.46 7.33 3.43 11.43-.04 4.33 1.54 8.23 2.5 12.33 2.37 10.19 4.02 20.57 5.38 30.95.41 3.11-1.87 6.55-1.58 9.71.9 9.69-4 17.97-5.83 26.96-.13.63-.97 1.18-1.58 1.64-1.07.81-2.13 1.69-3.34 2.25-6.9 3.21-9.85 8.59-9.21 16.1.8 9.35 1.52 18.7 2.31 28.05.17 2.06 1.24 3.34 3.26 4.18 8.67 3.58 17.45 5.54 26.75 2.74.64-.19 1.33-.4 1.98-.35 8.59.59 17.18 1.16 25.76 1.9 2.58.22 4.82 1.21 4.83 4.48 0 1.87-.5 3.22-2.52 3.76-6.69 1.78-13.36 3.61-20.03 5.46-2.99.83-6.11 1.42-8.89 2.74-4.02 1.91-8 3.28-12.53 2.86-1.26-.12-2.7.25-3.87.8-2.84 1.33-5.59 1.84-8.69.85-2.43-.78-3.89.67-3.81 3.34.24 7.54 2.73 9.91 10.35 9.6 3.19-.13 5.88.5 8.09 3.09.79.93 2.51 1.65 3.73 1.54 7.96-.73 14.96 1.85 21.67 5.75 4.64 2.7 9.28 5.34 14.99 5.22 1.39-.03 2.81 1.35 4.21 2.08-.02.39-.03.78-.05 1.16-2.92.84-5.79 2.16-8.76 2.42-7.69.67-15.43 1.39-23.12 1.08-5.96-.24-11.88-1.94-17.79-3.11-8.75-1.73-9.72-.89-8.72 7.75 1.69 14.56 3.48 29.11 4.95 43.69.34 3.39-.13 6.95-.84 10.3-.28 1.34-2.22 2.32-3.41 3.47-.97-1.04-2.52-1.94-2.82-3.14-3.43-13.69-10.51-25.8-16.19-38.53-2.22-4.97-2.8-10.69-4.03-16.09-1.25-5.53-1.88-11.25-3.68-16.59-2.45-7.28-3.85-14.62-4.25-22.27-.71-13.63-1.87-27.25-2.48-40.89-.17-3.72.92-7.51 1.5-11.26.48-3.11-.15-3.9-3.3-3.51-1.31.16-2.64.56-3.83 1.14-4.54 2.22-9.37 2.72-14.34 2.82-9.51.2-19.01.65-28.52.82-2.5.04-3.63 1.19-3.55 3.36.19 5.56.06 11.22 1.05 16.66 6.12 33.59.4 64.93-17.26 94.12-3.7 6.12-7.26 12.34-11.17 18.34-1.87 2.87-4.2 5.52-6.69 7.89-1.5 1.43-3.7 2.12-5.58 3.15-.27-.34-.52-.65-.78-.96zm-30.65-227.6c.6 6.57.76 12.82 1.86 18.9.92 5.07 1.86 5.26 6.91 4.46 1.33-.21 2.66-.36 3.99-.54 9.19-1.23 18.36-3.27 27.58-3.48 11.32-.26 22.49-1.42 33.73-2.47 11.77-1.1 23.64-1.31 35.47-1.41 8.15-.07 16.3.89 24.45 1 3.05.04 6.15-.92 9.18-1.6 1.81-.41 2.69-1.59 2.61-3.66-.18-4.47.17-8.97-.24-13.41-.24-2.58-1.33-5.14-2.38-7.56-1-2.3-2.68-2.96-5.43-2.15-8.1 2.39-16.13 5.15-24.92 3.75-3.07-.49-6.38.51-9.58.85-4.53.48-9.04 1.29-13.57 1.42-7.14.2-14.33-.56-21.42 0-14.14 1.12-28.23 2.97-42.36 4.28-8.22.76-16.48 1.05-25.88 1.62zm137.3 39.73c-4.58-3.51-9.52-2.34-14.52-1.52-8.26 1.34-16.53 2.84-24.86 3.52-5.87.48-11.85-.6-17.76-.37-4.97.19-10.13.59-14.76 2.19-2.68.93-5.03 1.7-7.87 1.58-6.9-.29-13.82-.59-20.72-.37-5.06.16-10.06 2.18-15.14-.28-.63-.31-2.3.92-3.08 1.79-.43.48-.35 1.92.07 2.56 3.41 5.34 8.4 9.01 14.02 11.54 11.47 5.16 23.52 7.5 36.19 6.42 4.78-.41 9.63-.21 14.44-.03 6.1.23 11.97-.5 17.8-2.46 3.32-1.12 6.99-1.18 10.47-1.88 1.25-.25 2.52-.79 3.58-1.5 5.84-3.89 11.64-7.86 17.41-11.86.69-.47 1.34-1.19 1.68-1.94 1.1-2.43 2.05-4.94 3.05-7.39zm-123.07-122.58c-.34 1.1-.67 2.02-.9 2.96-2.7 11.07-5.42 22.14-8.05 33.23-1.62 6.84-3.13 13.7-4.65 20.56-1.17 5.28 1.39 7.96 6.67 7.19 8.52-1.25 17.05-2.4 25.57-3.62 5.49-.78 10.98-1.6 16.81-2.44-3.55-6.59-7.07-12.67-10.15-18.96-4.08-8.32-7.63-16.91-11.76-25.2-2.94-5.92-7.29-10.69-13.54-13.72zm104.52 10.18c-6.13 10.52-11.05 20.86-14.01 32.05-.56 2.13-.62 4.41-.82 6.62-.21 2.36.43 3.84 3.32 3.6 1.98-.16 4.02.43 6.01.32 5.65-.32 11.32-.64 16.93-1.36 2.74-.35 4.05-2.31 3.51-5.37-2.04-11.66-5.75-22.68-12.15-32.71-.63-1.01-1.58-1.81-2.79-3.15z" fill="#010102"/><g fill="#fcfbfa"><path d="m385.2 377.6.6-.7c.6.4 1.3.9 1.9 1.5l-.6.7c-.8-.5-1.4-1-1.9-1.5zm.3 7.1c.6-1.4 1.1-2.9 1.5-4.5.3.1.6.3.9.4-.5 1.4-1 2.9-1.5 4.4zm.2-10.1.6-.6c.7.5 1.3 1.1 1.9 1.6l-.7.7c-.6-.6-1.2-1.2-1.8-1.7zm8.4-.8h.8v.9h1.8v.7h-1.8v1.8h-.8v-.3h-1.2v.9h3.3v2.6h-.8v-.4h-2.5c0 .3 0 .6-.1.8h3.4v.7h-3.5c0 .3-.1.6-.1.8h4v.7h-3.5c.7.9 1.9 1.3 3.6 1.5-.2.2-.4.5-.6.9-1.9-.3-3.2-1.1-3.8-2.3-.5 1.1-1.8 2-3.9 2.4-.2-.3-.4-.5-.6-.8 1.9-.4 3.1-.9 3.6-1.7h-3.2v-.7h3.5c.1-.2.1-.5.2-.8h-3.3v-.7h3.4c0-.2 0-.5 0-.8h-2.4v.3h-.8v-2.6h3.3v-.9h-1.2v.3h-.8v-1.8h-1.8v-.7h1.8v-.9h.8v.9h3.2zm-4.4 5.5h2.4c0-.3 0-.6 0-.9h-2.4zm1.2-3.1h3.2v-.8h-3.2zm4.4 2.2h-2.4v.9h2.5v-.9z"/><path d="m389.2 385.8h.9v1.5h1.9v-1.5h.9v1.5h2.7v6h1.1v.9h-11.3v-.9h1.1v-6h2.7zm.2 8.7.5.8c-1.2.6-2.5 1.3-4 1.9-.2-.3-.3-.6-.6-.8 1.6-.6 3-1.3 4.1-1.9zm-2-4.3h1.9v-2.1h-1.9zm0 3.1h1.9v-2.2h-1.9zm2.7-3.1h1.9v-2.1h-1.9zm0 3.1h1.9v-2.2h-1.9zm2.4 1.3c1.4.6 2.7 1.2 4.1 1.8l-.5.9c-1.5-.7-2.8-1.4-4.1-1.9zm2.2-6.5h-1.9v2.1h1.9zm-1.9 5.2h1.9v-2.2h-1.9z"/></g></svg>