<svg enable-background="new 0 0 400 400" viewBox="0 0 400 400" xmlns="http://www.w3.org/2000/svg"><path d="m296.16 357.87c-2.52 1.06-3.48.13-4.26-1.93-3.16-8.38-8.47-15.35-13.98-22.34-4.09-5.19-7.13-11.28-10.2-17.19-1.87-3.6-2.84-7.66-4.36-11.46-2.27-5.68-5.28-11.14-6.84-17-2.16-8.05-3.03-16.44-4.89-24.59-1.53-6.73-2.88-13.68-5.74-19.88-7.35-15.94-7.57-32.18-3.98-48.87.3-1.39.63-2.9.38-4.26-.49-2.67-3.05-3.65-4.99-1.83-7.9 7.41-17.66 11.18-27.65 14.61-8.35 2.86-16.59 5.96-23.89 11.16-3.64 2.59-7.78 3.82-13.27 2.38.84-1.42 1.31-2.77 2.23-3.64 1.36-1.3 3.2-2.1 4.56-3.39 2.8-2.67 2.17-5.57-1.35-7.03-.31-.13-.63-.26-.96-.3-5.66-.72-10.94-2.3-15.51-7.64-.73 4.31-1.48 7.55-1.78 10.84-.43 4.68-.7 9.38-.74 14.08-.09 12.27-1.64 24.33-5.4 36.02-.86 2.67-2.57 5.23-4.41 7.4-5.46 6.45-8.1 13.48-8.19 22.2-.14 13.18-5.09 25.3-11.15 36.91-.41.79-.95 1.56-1.17 2.4-2.9 11.4-9.07 21.37-14.26 31.72-3.08 6.14-7.58 11.57-11.59 17.21-1.06 1.49-2.59 2.87-5.09 1.52 3.09-9.26 4.84-19.24 9.66-27.4 3.93-6.65 5.38-13.44 7.47-20.42 1.71-5.72 4.8-11.04 7.43-16.46 3.09-6.38 5.54-12.93 6.3-20.04.21-2 .14-3.57-1.92-4.78-2.51-1.47-2.95-3.79-1.5-6.36.49-.88.88-1.89 1.58-2.56 3.64-3.47 3.63-7.27 2.04-11.82-2.61-7.48-4.72-15.15-6.89-22.78-.93-3.27-1.36-6.62 2.13-9.36.53.8 1.07 1.44 1.43 2.18 3.65 7.42 7.27 14.85 10.88 22.28 1.23 2.53 3.02 2.77 4.74.43 4.16-5.65 6.05-12.22 7.05-19 1.77-11.99 2.29-24.03.9-36.14-.53-4.65-.32-9.39-.27-14.09.05-4.53-2.11-8.04-5.3-10.71-3.85-3.21-8.38-5.68-8.91-11.43-.04-.4-.37-.84-.69-1.13-7.35-6.59-8.05-15.72-9.02-24.57-1.38-12.67-2.23-25.4-3.3-38.1-.05-.55-.17-1.17.01-1.66 2.55-6.99-.19-13.71-1.15-20.48-.27-1.89-1.97-3.65-3.2-5.33-1.4-1.9-1.86-3.26-.09-5.52 1.41-1.8 2.18-4.69 2.02-7.01-.32-4.56-1.49-9.04.69-13.48.36-.72.12-1.76.08-2.65-.16-3.64 1.05-4.75 4.29-3.13 4.35 2.18 8.16 1.31 12.1-.83 2.05-1.11 4.2-2.17 6.43-2.79 8.31-2.3 14.63 3.56 13.35 12.17-.46 3.09-1.03 6.19-1.13 9.3-.12 3.85 1.11 5.41 4.92 5.86 3.29.39 6.68.14 10.01.02s6.65-.43 9.97-.65c5.71-.38 11.49-1.48 17.12-.96 9.05.84 17.51-1.58 26.14-3.23.98-.19 2.42-1.63 2.45-2.54.13-3.75-.07-7.52-.39-11.27-.4-4.77-1.19-9.51-1.5-14.28-.18-2.76 1.27-3.78 4.34-4.09 7.09-.73 14.11-2.25 21.15-3.45.99-.17 2.02-.24 2.96-.55 5.24-1.75 7.66-.75 10.53 5.35 1.94 4.11 2.91 9.02 3.01 13.59.35 15.99.2 32 .11 47.99-.06 9.85.06 19.73-.67 29.53-.51 6.86-2.34 13.63-3.58 20.44-.14.77-.42 1.54-.4 2.31.14 6.6-.75 12.88-2.66 19.36-2.38 8.07-2.67 16.75-4.11 25.12-1.82 10.51-.99 20.98.21 31.44.2 1.76 1.43 3.41 2.19 5.11.47.03.93.06 1.4.1 2.12-3.33 4.26-6.65 6.35-10 1.83-2.93 3.33-6.11 5.5-8.76 1.46-1.78 3.83-2.83 6.19-3.87-1.39 5.72-1.43 11.51-4.84 16.56-4.71 6.98-8.61 14.48-8.88 23.17-.06 1.93.75 4.14 1.8 5.81 4.56 7.23 10.39 13.36 16.64 19.2 3.54 3.31 6.36 7.42 9.3 11.33.88 1.17 1.06 2.86 1.55 4.32-.2.27-.4.55-.6.82-1.12-.52-2.36-.88-3.33-1.6-8.2-6.14-16.35-12.34-24.52-18.52-.39.2-.78.4-1.16.6 0 3.12-.82 6.53.16 9.31 2.65 7.55 5.79 14.96 9.26 22.18 3.04 6.33 6.79 12.33 10.22 18.48.43.78 1.01 1.57 1.14 2.41 1.09 7.36 4.84 13.73 7.4 20.54 2.35 6.26 3.92 12.8 5.89 19.39zm-42.21-249.82c0-10.33.02-17.49-.01-24.64-.01-2.68 0-5.37-.24-8.04-.4-4.57-.84-4.73-5.29-4.86-3.29-.09-6.57-.76-9.87-1-1.01-.07-2.25.15-3.05.72-4.27 3.04-9.04 4.24-14.19 4.4-2.9.09-5.8.37-8.71.5-11.72.54-23.44 1.6-35.15 1.45-15-.19-29.66 1.21-44.08 5.39-2.01.58-2.91 1.34-2.57 3.38 1.08 6.5 2.24 12.98 3.19 19.49.36 2.48.45 5.05.29 7.55-.32 5.07-2.09 9.94-.92 15.26 1.14 5.16 1.2 10.57 1.75 15.87.08.76.08 1.63.46 2.24 3.05 4.95 5.93 10.02 9.32 14.72 8.36 11.61 18.35 21.62 30.17 29.76 2.67 1.84 5.12 3.98 7.67 5.99 6.32 4.98 13.43 5.02 20.05.6 5.75-3.84 11.79-7.23 17.67-10.88 5.98-3.71 12.05-7.29 17.8-11.33 2.97-2.09 6.5-4.6 7.7-7.72 2.81-7.35 5.37-15.07 6.21-22.84 1.39-12.97 1.37-26.1 1.8-36.01zm-18.17-53.56c.6 1.35 1.11 4.72 2.46 5.1 3.71 1.03 7.78 1.05 11.69.94 1.22-.03 3.11-1.52 3.46-2.71 1.75-5.89 2.92-11.93 1.51-18.09-.53-2.29-1.9-3.86-4.54-3.3-3.68.78-7.34 1.64-10.97 2.61-.54.14-1.15 1.01-1.26 1.62-.79 4.26-1.47 8.55-2.35 13.83zm-89.69 7.95c.01-8.05-2.58-10.71-10.53-10.83-5-.07-7.37 2.07-7.43 6.72-.08 7.2 1.98 11.94 5.22 11.98 7.97.1 12.73-2.84 12.74-7.87z" fill="#010102"/><g fill="#fcfbfa"><path d="m385.2 377.6.6-.7c.6.4 1.3.9 1.9 1.5l-.6.7c-.8-.5-1.4-1-1.9-1.5zm.3 7.1c.6-1.4 1.1-2.9 1.5-4.5.3.1.6.3.9.4-.5 1.4-1 2.9-1.5 4.4zm.2-10.1.6-.6c.7.5 1.3 1.1 1.9 1.6l-.7.7c-.6-.6-1.2-1.2-1.8-1.7zm8.4-.8h.8v.9h1.8v.7h-1.8v1.8h-.8v-.3h-1.2v.9h3.3v2.6h-.8v-.4h-2.5c0 .3 0 .6-.1.8h3.4v.7h-3.5c0 .3-.1.6-.1.8h4v.7h-3.5c.7.9 1.9 1.3 3.6 1.5-.2.2-.4.5-.6.9-1.9-.3-3.2-1.1-3.8-2.3-.5 1.1-1.8 2-3.9 2.4-.2-.3-.4-.5-.6-.8 1.9-.4 3.1-.9 3.6-1.7h-3.2v-.7h3.5c.1-.2.1-.5.2-.8h-3.3v-.7h3.4c0-.2 0-.5 0-.8h-2.4v.3h-.8v-2.6h3.3v-.9h-1.2v.3h-.8v-1.8h-1.8v-.7h1.8v-.9h.8v.9h3.2zm-4.4 5.5h2.4c0-.3 0-.6 0-.9h-2.4zm1.2-3.1h3.2v-.8h-3.2zm4.4 2.2h-2.4v.9h2.5v-.9z"/><path d="m389.2 385.8h.9v1.5h1.9v-1.5h.9v1.5h2.7v6h1.1v.9h-11.3v-.9h1.1v-6h2.7zm.2 8.7.5.8c-1.2.6-2.5 1.3-4 1.9-.2-.3-.3-.6-.6-.8 1.6-.6 3-1.3 4.1-1.9zm-2-4.3h1.9v-2.1h-1.9zm0 3.1h1.9v-2.2h-1.9zm2.7-3.1h1.9v-2.1h-1.9zm0 3.1h1.9v-2.2h-1.9zm2.4 1.3c1.4.6 2.7 1.2 4.1 1.8l-.5.9c-1.5-.7-2.8-1.4-4.1-1.9zm2.2-6.5h-1.9v2.1h1.9zm-1.9 5.2h1.9v-2.2h-1.9z"/></g></svg>