<svg enable-background="new 0 0 400 400" viewBox="0 0 400 400" xmlns="http://www.w3.org/2000/svg"><g fill="#fcfafa"><path d="m342.2 3.2-6.3 9.2h6.1v1.2h-8.2v-.5l6.2-9.1h-5.7v-1.2h7.8v.4z"/><path d="m344 13.7v-10.9h3.1c1.6 0 3 .5 4.1 1.4 1.1 1 1.6 2.2 1.6 3.9s-.5 3-1.6 4-2.5 1.5-4.2 1.5h-3zm1.4-9.6v8.4h1.6c1.4 0 2.5-.4 3.2-1.1.8-.8 1.2-1.8 1.2-3.2s-.4-2.4-1.2-3.1-1.8-1-3.1-1z"/><path d="m356.3 2.8v10.9h-1.4v-10.9z"/><path d="m366.6 13.2c-.8.4-1.8.6-3 .6-1.6 0-2.8-.5-3.7-1.5s-1.4-2.3-1.4-3.9c0-1.7.5-3.2 1.6-4.2s2.4-1.6 4-1.6c1 0 1.9.1 2.6.4v1.5c-.8-.4-1.6-.6-2.6-.6-1.2 0-2.2.4-3 1.2s-1.1 1.9-1.1 3.3c0 1.3.4 2.3 1.1 3.1s1.6 1.1 2.8 1.1c1.1 0 2-.2 2.8-.7v1.3z"/><path d="m368.2 13c0-.3.1-.5.3-.6.2-.2.4-.3.6-.3.3 0 .5.1.7.3s.3.4.3.6-.1.5-.3.6c-.2.2-.4.3-.7.3s-.5-.1-.6-.3c-.2-.2-.3-.4-.3-.6z"/><path d="m381.1 13.7h-1.7l-5.5-8.4c-.2-.2-.3-.5-.4-.7 0 .2.1.8.1 1.5v7.6h-1.4v-10.9h1.8l5.3 8.3c.3.4.4.6.4.8 0-.3-.1-.8-.1-1.6v-7.5h1.4v10.9z"/><path d="m389.7 13.7h-5.8v-10.9h5.6v1.2h-4.2v3.5h3.9v1.2h-3.9v3.7h4.4z"/><path d="m398.4 4.1h-3.1v9.6h-1.4v-9.6h-3.1v-1.3h7.7v1.3z"/></g><path d="m137.44 273.24c3.93 2.67 6.97 4.55 9.81 6.7 6.16 4.66 6.83 10.14 1.2 15.56-9.02 8.68-18.32 17.1-27.83 25.25-9.02 7.72-18.59 14.76-29.88 18.96-3 1.12-6.15 1.8-9.44 2.74-.82-2.45-1.76-4.4-2.05-6.44-.15-1.04.57-2.53 1.38-3.34 11.92-11.82 23.95-23.53 35.89-35.34 3.82-3.77 7.48-7.71 11.17-11.61 2.39-2.53 3.69-5.54 3.72-9.28-4.39-.94-8.47-.01-12.4 1.57-4.87 1.96-9.73 3.98-14.45 6.26-4.99 2.41-9.96 2.31-14.98.52-7.88-2.82-14.98-6.87-20.71-13.94 7.5-1.64 14.59-3.1 21.63-4.75 13.91-3.27 27.87-6.39 41.67-10.11 5.07-1.37 9.72-4.27 14.56-6.48-.05-.4-.11-.8-.16-1.2-3.38-1.16-6.69-2.69-10.17-3.4-9.12-1.86-15.77-7.12-20.93-14.5-4.6-6.59-9.17-13.21-13.36-20.06-1.61-2.63-2.11-5.94-3.12-8.94.31-.24.62-.47.93-.71 4.87 2.62 10.35 4.51 14.5 7.99 15.04 12.62 32.46 17.36 51.64 17.22 13.31-.1 25.96-2.86 37.73-9.2 1.06-.57 1.97-1.43 2.67-2.9-8.87-.7-17.74-1.41-26.61-2.08-10.04-.76-20.08-1.41-30.12-2.26-1.71-.14-3.49-.78-5.03-1.59-10.69-5.61-21.48-11.06-31.93-17.09-7.68-4.43-15.8-6.49-24.48-7.37-2.87-.29-6.01-1.27-8.32-2.92-3.6-2.57-2.76-5.38 1.06-7.25 9.81-4.82 19.72-9.52 29.17-14.99 17.62-10.18 34.91-20.91 52.41-31.29 2.1-1.25 2.88-2.57 2.85-5.01-.15-15.99 1.01-32.15-2.69-47.82-2.86-12.13-7.27-23.9-11.11-35.78-.38-1.18-1.8-1.99-2.38-3.15-.76-1.53-1.75-3.29-1.62-4.86.38-4.61 2.13-5.74 6.43-4.04 10.82 4.27 19.87 11.01 27.01 20.25 2.1 2.71 3.76 6.79 6.47 7.7 2.55.86 6.18-1.87 9.42-2.62 14.45-3.37 28.95-6.56 43.41-9.88 5.42-1.24 10.8-1.81 16.2.06 3.59 1.24 6.22 3.36 7.38 7.15.54 1.79.18 2.8-1.49 3.8-6.29 3.76-13.27 5.47-20.36 6.34-17.03 2.1-32.13 9.96-48.01 15.5-4.75 1.66-7.37 4.87-7.35 10.61.02 10.26-.87 20.52-1.41 31.31 5.15-.85 9.95-1.62 14.74-2.44 9.7-1.67 19.37-3.45 29.09-4.97 2-.31 4.23-.06 6.2.49 6.24 1.75 12.34 4 18.61 5.62 7.09 1.83 10.55 7.3 13.52 13.06 5.31 10.32 8.06 21.18 6.63 33.03-.51 4.22.74 8.64 1.11 12.98.09 1.07.15 2.28-.25 3.23-5.96 14.4-15.31 26.69-24.72 38.9-1.62 2.1-3.86 3.71-6.19 5.92 1.26.11 2.18.32 3.08.24 10.58-.96 21.13-2.14 31.72-2.88 3.84-.27 7.82.12 11.59.91 1.83.38 3.75 2.07 4.86 3.7 2.19 3.21 1.29 5.73-2.03 7.61-7.8 4.44-16.42 6.2-25.07 8.12-7.56 1.67-14.93 4.19-22.39 6.34.03.44.06.88.1 1.32 2.6 1.08 5.2 2.17 7.8 3.24 18.69 7.72 37.37 15.5 56.11 23.1 2.34.95 3.71 2.13 4.09 4.62.25 1.65.58 3.35 1.26 4.86 1.6 3.57-.01 5.07-3.18 6.38-5.23 2.16-10.42 3.04-16.02 1.63-4.54-1.14-9.23-1.7-13.8-2.72-1.91-.43-3.9-1.07-5.53-2.13-9.96-6.43-20.21-12.51-29.58-19.72-5.17-3.98-8.97-9.83-13.07-15.08-1.52-1.95-2.61-2.61-5.15-2.03-11.44 2.64-22.92 5.06-34.43 7.36-2.5.5-4.14 1.4-4.64 4.23 2.48 1.86 5.07 3.76 7.62 5.71 5.59 4.29 9.57 9.59 10.84 16.75.23 1.31 1.26 2.98 2.4 3.57 17.48 9.02 35.02 17.94 52.6 26.78 11.96 6.01 24.71 9.6 37.77 12.45 5.47 1.19 10.63 3.91 15.82 6.17 1.46.64 2.69 2 3.8 3.23 5.37 5.98 4.62 9.84-2.94 12.1-4.31 1.29-9 1.49-13.54 1.73-5.35.28-10.73.11-16.09.01-1.29-.02-2.66-.36-3.84-.9-18.81-8.58-37.68-17.05-56.32-25.98-3.68-1.76-6.45-5.39-9.69-8.1-2.97-2.48-5.9-5.05-9.07-7.26-2.05-1.42-4.12-.84-6.47.44-6.99 3.81-11.66 10-16.98 15.54-14.43 15.01-31.59 26.26-49.71 36.22-6.27 3.44-12.45 7.04-18.57 10.74-4.21 2.55-8.63 4.06-13.56 4.37-2.41.15-4.43-.31-5.14-2.65-.72-2.36-.05-4.55 2.2-6.12 7.16-4.99 14.32-9.97 21.36-15.12 15.49-11.33 30.19-23.58 42.17-38.7 4.56-5.76 8.63-11.95 12.53-18.19 3.18-5.09 3.92-10.77 2.91-16.79-.52-3.09-1.95-5.06-4.51-6.56-4.81-2.83-9.94-4.18-15.44-2.98-7.26 1.56-14.49 3.41-22.53 5.33zm83.49-78.2c.02-.19.05-.38.07-.57.56.03 1.12.05 1.67.11 6.76.69 13.19.08 18.66-4.52 4.01-3.36 3.35-8.56-1.65-10.29-2.52-.87-5.47-.63-8.23-.7-3.56-.1-7.26.61-10.67-.12-8.6-1.85-17.13-4.12-25.58-6.58-13.85-4.03-28.15-7.02-40.01-16.1-.61-.47-2.35-.08-3.19.48-9.96 6.62-19.89 13.29-29.7 20.14-1.08.75-1.71 2.69-1.77 4.1-.02.56 2.06 1.58 3.27 1.74 9.85 1.36 19.73 2.59 29.6 3.83 22.51 2.84 45.02 5.66 67.53 8.48zm-46.07-50.53c-.07.62-.13 1.24-.2 1.86 1.61 1.12 3.07 2.72 4.86 3.29 6.06 1.92 12.15 3.9 18.38 5.08 15.14 2.86 30.36 5.36 45.58 7.79 2.44.39 5.09-.16 7.6-.58 2-.34 3.35-1.51 3.39-3.88.06-3.79.75-7.61.44-11.35-1.22-14.92-16.6-25.63-31.03-21.52-8.47 2.41-16.92 5.06-25.11 8.29-8.15 3.21-15.95 7.3-23.91 11.02z" fill="#010103"/></svg>