<svg enable-background="new 0 0 400 400" viewBox="0 0 400 400" xmlns="http://www.w3.org/2000/svg"><g fill="#fcfafa"><path d="m342.2 3.2-6.3 9.2h6.1v1.2h-8.2v-.5l6.2-9.1h-5.7v-1.2h7.8v.4z"/><path d="m344 13.7v-10.9h3.1c1.6 0 3 .5 4.1 1.4 1.1 1 1.6 2.2 1.6 3.9s-.5 3-1.6 4-2.5 1.5-4.2 1.5h-3zm1.4-9.6v8.4h1.6c1.4 0 2.5-.4 3.2-1.1.8-.8 1.2-1.8 1.2-3.2s-.4-2.4-1.2-3.1-1.8-1-3.1-1z"/><path d="m356.3 2.8v10.9h-1.4v-10.9z"/><path d="m366.6 13.2c-.8.4-1.8.6-3 .6-1.6 0-2.8-.5-3.7-1.5s-1.4-2.3-1.4-3.9c0-1.7.5-3.2 1.6-4.2s2.4-1.6 4-1.6c1 0 1.9.1 2.6.4v1.5c-.8-.4-1.6-.6-2.6-.6-1.2 0-2.2.4-3 1.2s-1.1 1.9-1.1 3.3c0 1.3.4 2.3 1.1 3.1s1.6 1.1 2.8 1.1c1.1 0 2-.2 2.8-.7v1.3z"/><path d="m368.2 13c0-.3.1-.5.3-.6.2-.2.4-.3.6-.3.3 0 .5.1.7.3s.3.4.3.6-.1.5-.3.6c-.2.2-.4.3-.7.3s-.5-.1-.6-.3c-.2-.2-.3-.4-.3-.6z"/><path d="m381.1 13.7h-1.7l-5.5-8.4c-.2-.2-.3-.5-.4-.7 0 .2.1.8.1 1.5v7.6h-1.4v-10.9h1.8l5.3 8.3c.3.4.4.6.4.8 0-.3-.1-.8-.1-1.6v-7.5h1.4v10.9z"/><path d="m389.7 13.7h-5.8v-10.9h5.6v1.2h-4.2v3.5h3.9v1.2h-3.9v3.7h4.4z"/><path d="m398.4 4.1h-3.1v9.6h-1.4v-9.6h-3.1v-1.3h7.7v1.3z"/></g><path d="m76.73 207.55c4.16 2.04 8.08 3.37 11.34 5.66 10.2 7.17 21.65 11.06 33.64 13.63 15.72 3.37 31.56 5.56 47.57 2.34 4.94-.99 9.68-2.95 14.52-4.46-.05-.5-.09-1-.14-1.5-7.04-1.37-14.04-2.96-21.12-4.06-11.96-1.85-24-3.51-34.64-9.72-4.88-2.85-9.22-6.66-13.6-10.29-1.94-1.61-3.61-2.02-6.03-1.27-4.04 1.25-8.16 2.47-12.33 3.02-8.28 1.09-15.92-1.3-23.16-5.25-4.99-2.73-10.02-5.39-15.06-8.03-2.27-1.19-3.61-2.87-3.59-5.88 4.72-.41 9.36-.71 13.97-1.23 10.58-1.2 19.42-6.46 27.91-12.38 4.23-2.94 8.39-5.87 13.49-7.23 1-.27 2.22-1.9 2.29-2.97.16-2.52 1.38-3.58 3.62-4.01 4.38-.86 8.76-1.74 13.14-2.64 1.64-.34 3.29-.65 4.88-1.18 6.35-2.11 8.85-5.32 8.45-11.9-.97-15.72-3.99-31.02-10.43-45.51-5.8-13.07-11.89-26.02-17.42-39.21-2.87-6.85-6.99-12.36-13.01-16.61-3.95-2.79-6.74-6.43-7.75-11.81 5 1.64 9.72 3.19 14.44 4.75 2.33.77 4.61 1.81 6.99 2.32 6.09 1.29 10.62 4.43 14.21 9.63 1.49 2.17 4.62 3.37 7.2 4.59 3.14 1.48 5.59 3.47 7.44 6.44 1.95 3.13 4.42 5.93 6.32 9.08 1.64 2.71 3.94 3.63 6.74 3.11 4.81-.89 9.69-1.72 14.31-3.26 10.58-3.51 20.65-8.61 31.91-9.94.33-.04.69-.12.95-.3 8.64-6.24 18.82-6.73 28.83-7.38 8.02-.52 16.09-.18 24.14-.28 2.21-.03 3.1.69 3.11 3.11.07 9.15.15 9.14-8.39 12.22-30.06 10.83-60.11 21.7-90.21 32.43-2.88 1.03-4.47 2.66-4.33 5.5.39 8.01.94 16.01 1.62 24 .25 2.88 1.02 5.72 1.62 8.56.8 3.84 2.31 5.07 6.28 4.53 2.4-.33 4.74-1.21 7.06-2 12.04-4.13 23.9-8.86 36.61-10.72 16.89-2.47 32.62 1.02 46.7 10.34 3.55 2.35 5.43 7.49 7.6 11.6 5.51 10.38 5 21.09.97 31.82-.46 1.23-1.28 2.35-2.04 3.44-11.15 16.09-22.32 32.17-33.47 48.26-.62.89-1.17 1.82-1.99 3.09 7.78 2.32 15.25 4.54 22.71 6.77 4.39 1.31 8.85 2.42 13.15 3.98 7.24 2.62 14.68 3.77 22.33 3.83.88.01 1.93-.06 2.62.37 7.35 4.58 15.79 4.43 23.91 5.69 6.26.97 9.31 3.2 10.97 8.1-7.7 5.79-16.63 7.74-26.05 8.07-10.83.38-21.4-1.54-31.89-3.88-12.76-2.85-25.48-5.86-38.17-8.99-1.93-.48-3.9-1.7-5.34-3.1-11.3-11.05-14.73-11.69-28.98-4.99-1.72.81-3.45 1.61-5.1 2.53-2.64 1.47-2.8 3.09-.52 5.14 11.04 9.92 23.83 17.02 37.51 22.46 20.09 7.99 40.69 14.44 62.19 17.28 15.85 2.1 31.79 3.54 47.71 5.1 2.72.27 4.55 1.02 4.75 3.88.07 1.01-.17 2.42-.83 3.03-3.29 3.02-7.21 4.98-11.72 5.19-7.47.34-15.07-.26-22.41.86-8.24 1.26-15.91.36-23.67-2.17-2.5-.82-5.25-1.25-7.88-1.24-21.62.14-41.98-5.53-61.97-13.07-3.55-1.34-7.18-2.52-10.66-4.02-2.16-.93-3.31-.6-4.54 1.5-4.02 6.84-8.51 13.42-12.39 20.34-8.38 14.96-19.93 26.93-33.92 36.6-10.85 7.5-21.79 14.9-32.99 21.88-3.35 2.09-7.65 2.76-11.6 3.75-3.2.8-5.01-1.69-4.79-4.1.27-3 1.11-6.97 3.2-8.61 7.22-5.67 13.41-12.17 18.9-19.42 8.35-11.05 18.75-20.11 28.64-29.68 1.53-1.48 2.59-3.54 3.56-5.48 2.08-4.18 4.1-8.41 5.91-12.71 3.41-8.1 6.59-16.36 3.73-25.29-.91-2.83-2.64-5.72-4.77-7.79-5.95-5.81-12.74-9.72-21.59-10.12-9.33-.42-18.25-3.03-25.96-8.84-2.4-1.81-5.07-3.3-7.76-4.66-5.11-2.58-9.25-6.14-12.47-10.88-.84-1.24-2.22-2.14-3.4-3.14-2.9-2.45-5.95-4.73-8.7-7.34-2.26-2.18-3.26-4.99-2.88-9.28zm125.01-3.9c2.9-.19 5.82-.73 8.69-.49 5.86.49 10.47-1.32 13.71-6.28.77-1.18 2.14-3.23 1.78-3.66-1.11-1.32-2.83-2.62-4.49-2.89-4.61-.77-9.32-.97-13.97-1.5-7.42-.84-15.04-.98-22.2-2.85-11.21-2.92-22.07-7.13-33.16-10.54-2.06-.63-4.87-.88-6.66.03-6.04 3.05-11.86 6.57-17.55 10.25-1.12.72-1.66 2.92-1.72 4.46-.03.73 1.56 1.87 2.63 2.26 23.54 8.61 48.01 11.41 72.94 11.21zm-35-38.65c.26.3.53.61.79.91.99 0 1.98.03 2.97-.01 9.37-.36 18.74-.87 28.12-1.05 11.14-.22 22.3-1.36 33.44.43 2.91.47 5.97.02 7.8-2.75 2.62-3.95 3.71-8.35 2.84-13.09-1.21-6.51-8.19-12.5-13.64-11.47-21.69 4.07-41.36 13.22-60.27 24.21-.93.53-1.38 1.86-2.05 2.82z" fill="#010103"/><path d="m90.52 248.66c3.28-2.79 6.42-3.08 10.11-1.55 7 2.92 14.26 5.23 21.17 8.31 7.08 3.16 12.05 8.67 12.15 16.66.06 4.64-1.35 9.55-3.14 13.92-3.72 9.08-8.1 17.89-12.3 26.77-.65 1.38-1.65 2.68-2.75 3.74-10.08 9.73-21.58 17.35-34.66 22.41-3.24 1.25-6.85 1.55-10.78 2.39 0-2.05-.36-3.47.06-4.61 2.21-5.98 4.83-11.74 9.75-16.11 11.37-10.1 18.72-22.95 22.63-37.3 1.87-6.88.44-14.67.32-22.05-.01-.89-1.03-1.88-1.79-2.61-3.54-3.35-7.16-6.64-10.77-9.97z" fill="#010103"/></svg>