<svg enable-background="new 0 0 400 400" viewBox="0 0 400 400" xmlns="http://www.w3.org/2000/svg"><path d="m116.35 212.55c1.27-29.29 2.52-58.59 3.85-87.88.17-3.74-2.01-5.78-4.91-6.75-2.78-.93-5.9-1.01-8.88-1.16-1.99-.1-4.01.29-6.01.5-6.94.7-13.79.8-20.55-1.51-3.9-1.33-7.99-2.11-11.99-3.14-5.83-1.5-9.1-5.7-9-11.64.28-16.56.63-33.12.81-49.68.02-2.29.88-3.28 2.8-4.27 14.86-7.69 30.85-9.61 47.22-9.18 7.02.19 14.01 1.35 21.03 1.86 2.68.2 3.86 1.54 4.74 3.86 2.97 7.81 3.16 15.68 1.02 23.71-1.75 6.59-1.88 13.19-.46 19.92 1.03 4.87 3.87 7.54 8.31 9.12 7.38 2.62 15.03 1.98 22.61 1.95 5.25-.02 10.53-.13 15.75-.7 4.39-.48 8.07.62 11.68 2.94.96.62 2.9.8 3.81.24 7.85-4.83 16.06-5.07 24.53-2.25 6.32 2.1 12.64 3.85 19.38 2.45 4.71-.97 8.94-2.8 12.15-6.57 3.03-3.56 4.26-7.51 3.1-12.15-.57-2.28-.93-4.6-1.41-6.9-1.1-5.33-1.22-10.5.74-15.8 2.12-5.75 3.61-11.75 5.24-17.67.53-1.93 1.53-2.9 3.47-3.52 12.01-3.9 23.91-8.13 35.98-11.84 3.19-.98 6.87-.95 10.26-.64 5.88.53 11.81 1.2 17.51 2.62 5.53 1.37 6.31 3.53 5.35 9.18-1.46 8.6-3.09 17.19-4.02 25.85-.47 4.37.34 8.89.73 13.33.49 5.55-.59 10.43-5.34 13.94-.27.2-.54.4-.77.64-10.53 10.73-23.2 17.58-37.87 20.75-2.12.46-3.14 1.65-3.76 3.66-2.14 6.9-1.97 13.95-1.28 20.96.74 7.45 2.02 14.84 2.97 22.27.2 1.53.28 3.18-.06 4.66-1.71 7.3-1.28 14.56-.47 21.96 1.78 16.23 3.09 32.52 4.64 48.78.6 6.35 1.49 12.67 1.98 19.02.75 9.7 1.78 19.41 1.75 29.12-.05 13.21 2.45 26.01 4.68 38.89 2.01 11.57 4.04 23.13 6 34.7.71 4.2-.34 6.82-3.03 8.12-2.92 1.41-7.13.64-9.56-1.89-1.55-1.61-2.97-3.34-4.36-5.09-1.92-2.41-2.3-4.81-1.43-8.06.85-3.18.69-6.98-.17-10.21-4.59-17.38-6.46-35.18-8.55-52.94-1.68-14.32-3.02-28.69-4.66-43.02-.15-1.31-1.09-2.92-2.17-3.68-4.88-3.46-10.24-4.68-16.21-3.11-9.98 2.63-20.14 4.16-30.47 4.25-1.99.02-2.93.81-3.69 2.6-5.89 13.91-6.86 28.45-5.07 43.17 2.33 19.14 4.12 38.25 3.06 57.56-.34 6.25.02 12.54-.09 18.8-.08 4.62-1.07 8.89-5.42 11.6-1.78 1.11-2.87.95-4.05-.95-5.35-8.58-7.86-18.11-8.43-27.99-.85-14.74-.88-29.52-1.41-44.28-.68-18.9-1.45-37.79-2.36-56.68-.06-1.29-1.45-3.27-2.61-3.62-4.14-1.23-8.46-2.66-12.69-2.61-13.3.15-26.6.9-39.88 1.56-1.1.06-2.68 1.01-3.1 1.96-1.29 2.93-2.6 5.99-3.07 9.12-2.57 17.14-4.82 34.32-7.3 51.47-1.71 11.84-3.98 23.61-5.28 35.5-.66 6.05.32 12.27.5 18.42.06 2.01.08 4.04-.14 6.03-.61 5.43-5.01 9.42-10.47 9.38-.82-.01-2.2-1.1-2.36-1.9-.82-3.92-2.03-7.95-1.81-11.87.83-14.5 2.23-28.97 3.29-43.47 1.17-15.94 2.37-31.89 3.25-47.85.99-17.99 1.63-36 2.43-54-.03.05-.02.05 0 .05zm152.86-.16c0-1.41.02-2.52 0-3.62-.44-28.18-.89-56.35-1.34-84.53-.01-.89-.02-1.8-.16-2.68-1.07-6.35-6.74-10.62-12.32-8.51-5.97 2.26-11.87 2.2-18.07 2.18-14.19-.02-28.38.75-42.58 1.12-10.86.28-21.71.39-32.1-3.7-.79-.31-2 .3-2.96.63-2.99 1.03-5.9 2.34-8.95 3.16-2.78.75-5.71.91-8.55 1.48-1.99.4-2.67 1.62-2.75 3.81-1.06 28.23 1.25 56.6-3.23 84.71-.77 4.83.79 9.26 3.52 13.31 1.35 2.01 2.89 2.91 5.49 2.89 22.16-.13 44.32-.22 66.48 0 8.8.09 17.33-.64 25.75-3.4 5.07-1.66 10.41-2.55 15.65-3.66 5.32-1.12 10.67-2.11 16.12-3.19zm-198.99-148.11c-.29.06-.59.11-.88.17 1.67 8.4 2.85 16.94 5.24 25.13 1.1 3.78 3.83 8.33 7.11 10.01 9.45 4.85 19.77 5.26 29.97 1.87 7.8-2.59 9.07-4.77 8.34-12.89-.01-.11-.01-.23-.03-.33-1.79-8.97-3.44-17.97-5.44-26.89-.77-3.44-6.7-8.51-9.27-8.22-9.76 1.09-19.54 2.12-29.24 3.68-6.05.98-5.99 1.39-5.8 7.47zm205.14 28.5c9.34.15 18.5.08 27.36-2.74 5.58-1.78 10-4.99 11.39-11.1 1.39-6.08 3.07-12.13 3.85-18.3.97-7.66-3.28-14.3-10.41-17.44-1.01-.45-2.37-.51-3.48-.28-11.28 2.33-21.24 7.44-30.03 14.81-1.33 1.12-2.43 2.93-2.86 4.62-2.75 10.65.97 20.44 4.18 30.43z" fill="#010106"/><g fill="#fcfbfa"><path d="m385.2 377.6.6-.7c.6.4 1.3.9 1.9 1.5l-.6.7c-.8-.5-1.4-1-1.9-1.5zm.3 7.1c.6-1.4 1.1-2.9 1.5-4.5.3.1.6.3.9.4-.5 1.4-1 2.9-1.5 4.4zm.2-10.1.6-.6c.7.5 1.3 1.1 1.9 1.6l-.7.7c-.6-.6-1.2-1.2-1.8-1.7zm8.4-.8h.8v.9h1.8v.7h-1.8v1.8h-.8v-.3h-1.2v.9h3.3v2.6h-.8v-.4h-2.5c0 .3 0 .6-.1.8h3.4v.7h-3.5c0 .3-.1.6-.1.8h4v.7h-3.5c.7.9 1.9 1.3 3.6 1.5-.2.2-.4.5-.6.9-1.9-.3-3.2-1.1-3.8-2.3-.5 1.1-1.8 2-3.9 2.4-.2-.3-.4-.5-.6-.8 1.9-.4 3.1-.9 3.6-1.7h-3.2v-.7h3.5c.1-.2.1-.5.2-.8h-3.3v-.7h3.4c0-.2 0-.5 0-.8h-2.4v.3h-.8v-2.6h3.3v-.9h-1.2v.3h-.8v-1.8h-1.8v-.7h1.8v-.9h.8v.9h3.2zm-4.4 5.5h2.4c0-.3 0-.6 0-.9h-2.4zm1.2-3.1h3.2v-.8h-3.2zm4.4 2.2h-2.4v.9h2.5v-.9z"/><path d="m389.2 385.8h.9v1.5h1.9v-1.5h.9v1.5h2.7v6h1.1v.9h-11.3v-.9h1.1v-6h2.7zm.2 8.7.5.8c-1.2.6-2.5 1.3-4 1.9-.2-.3-.3-.6-.6-.8 1.6-.6 3-1.3 4.1-1.9zm-2-4.3h1.9v-2.1h-1.9zm0 3.1h1.9v-2.2h-1.9zm2.7-3.1h1.9v-2.1h-1.9zm0 3.1h1.9v-2.2h-1.9zm2.4 1.3c1.4.6 2.7 1.2 4.1 1.8l-.5.9c-1.5-.7-2.8-1.4-4.1-1.9zm2.2-6.5h-1.9v2.1h1.9zm-1.9 5.2h1.9v-2.2h-1.9z"/></g></svg>