<svg enable-background="new 0 0 400 400" viewBox="0 0 400 400" xmlns="http://www.w3.org/2000/svg"><g fill="#fcfafa"><path d="m342.2 3.2-6.3 9.2h6.1v1.2h-8.2v-.5l6.2-9.1h-5.7v-1.2h7.8v.4z"/><path d="m344 13.7v-10.9h3.1c1.6 0 3 .5 4.1 1.4 1.1 1 1.6 2.2 1.6 3.9s-.5 3-1.6 4-2.5 1.5-4.2 1.5h-3zm1.4-9.6v8.4h1.6c1.4 0 2.5-.4 3.2-1.1.8-.8 1.2-1.8 1.2-3.2s-.4-2.4-1.2-3.1-1.8-1-3.1-1z"/><path d="m356.3 2.8v10.9h-1.4v-10.9z"/><path d="m366.6 13.2c-.8.4-1.8.6-3 .6-1.6 0-2.8-.5-3.7-1.5s-1.4-2.3-1.4-3.9c0-1.7.5-3.2 1.6-4.2s2.4-1.6 4-1.6c1 0 1.9.1 2.6.4v1.5c-.8-.4-1.6-.6-2.6-.6-1.2 0-2.2.4-3 1.2s-1.1 1.9-1.1 3.3c0 1.3.4 2.3 1.1 3.1s1.6 1.1 2.8 1.1c1.1 0 2-.2 2.8-.7v1.3z"/><path d="m368.2 13c0-.3.1-.5.3-.6.2-.2.4-.3.6-.3.3 0 .5.1.7.3s.3.4.3.6-.1.5-.3.6c-.2.2-.4.3-.7.3s-.5-.1-.6-.3c-.2-.2-.3-.4-.3-.6z"/><path d="m381.1 13.7h-1.7l-5.5-8.4c-.2-.2-.3-.5-.4-.7 0 .2.1.8.1 1.5v7.6h-1.4v-10.9h1.8l5.3 8.3c.3.4.4.6.4.8 0-.3-.1-.8-.1-1.6v-7.5h1.4v10.9z"/><path d="m389.7 13.7h-5.8v-10.9h5.6v1.2h-4.2v3.5h3.9v1.2h-3.9v3.7h4.4z"/><path d="m398.4 4.1h-3.1v9.6h-1.4v-9.6h-3.1v-1.3h7.7v1.3z"/></g><path d="m246.7 375.63c-11.06-24.49-21.68-48.12-32.42-71.7-1.66-3.64-3.53-7.29-5.95-10.44-1.77-2.31-4.59-3.8-7.66-6.22-2.51 8.91-5.06 16.54-6.79 24.34-3.94 17.79-11.06 34.41-17.9 51.15-1.56 3.82-4.08 6.35-8.59 6.63-1.91-3.01-2.46-6.32-1.98-9.86 3.02-22.16 6-44.33 9.15-66.47.34-2.39-.34-3.85-2.05-5.16-5.31-4.11-10.68-8.13-15.89-12.36-2.77-2.24-5.26-4.82-8.06-7.42-4.55 1.74-9.48 3.24-14.01 5.52-2.31 1.16-4.44 3.42-5.74 5.71-5.77 10.09-10.97 20.5-16.84 30.54-4.65 7.95-5.58 16.91-7.84 25.5-2.86 10.91-5.15 21.97-7.89 32.91-.46 1.82-1.63 3.79-3.07 4.95-3.18 2.56-5.9 1.61-7.48-2.13-2.64-6.24-2.46-12.7-1.19-19.13 3.06-15.46 6.15-30.92 9.51-46.31 3.5-15.99 10.44-30.59 18.61-44.68 4.25-7.33 7.06-15.19 7.51-23.76.02-.41.23-.8.33-1.17 20.09 5.54 35.72 18.79 52.8 29.43 2.41-4.7 2.07-5.95-2.09-8.16-7.3-3.88-14.65-7.69-21.88-11.7-1.68-.93-3.26-2.33-4.44-3.86-17.4-22.66-27.73-48.86-37.49-75.34-1.74-4.72-3.25-9.52-5.11-14.19-.93-2.34-.16-3.41 1.96-3.88 1.73-.38 3.52-.81 5.27-.76 5.24.15 10.12-.96 14.94-3.07 8.6-3.76 17.25-7.44 26.06-10.64 4.66-1.7 9.7-2.36 14.58-3.42 1.41-.31 2.91-.24 4.31-.57 4.4-1.01 5.58-2.57 5.04-6.97-2.9-23.87-5.83-47.73-8.84-71.59-.14-1.1-.95-2.19-1.68-3.11-2.08-2.63-4.38-5.09-6.39-7.77-1.26-1.68-2.34-3.56-3.15-5.5-2.53-6.06-1.65-7.29 4.56-8.54 5.69-1.15 10.94-.69 16.26 1.73 7.01 3.19 14.2 5.96 21.34 8.86 4.32 1.76 5.74 4.96 4.9 9.38-.1.55-.12 1.11-.19 1.67-.86 6.93.73 8.4 7.42 6.79 13.58-3.28 27.09-6.93 41.33-5.6 18.04 1.69 36.08 3.25 53.7 7.81 3.55.92 6.11 2.79 6.62 6.64.97 7.32-2.46 10.54-9.96 9.89-3.07-.26-6.07-1.46-9.09-2.26-11.71-3.13-23.69-3.97-35.61-2.45-14.95 1.9-29.8 4.64-44.66 7.25-3.13.55-6.19 1.91-9.09 3.3-2.89 1.38-4.38 3.65-4.2 7.26.45 9.16.47 18.34.67 27.52.02.76.14 1.52.26 2.68h4.36c12.08.01 24.1.16 36.14 1.92 25.55 3.74 34.12 22.33 32.28 43.68-1.16 13.49-4.08 26.79-9.06 39.42-2.77 7.03-6.71 13.61-10.11 20.39-.29.59-.55 1.19-.94 2.05 5.44 4.35 10.92 8.57 16.18 13.04 1.52 1.29 2.88 3.14 3.51 5.01 1.2 3.56 2.81 6.7 5.42 9.46 3.54 3.73 6.57 7.96 10.24 11.56 6.06 5.95 10.01 13.02 12.55 21.03 3.23 10.2 8.02 20.02 8.37 30.95.16 4.99-.45 10.02-1.04 15-.12 1-1.61 2.38-2.68 2.62-5.21 1.15-5.62 1.19-7.71-3.8-4.56-10.91-8.86-21.95-12.95-33.05-3.5-9.5-7.5-18.67-14.13-26.47-.65-.77-1.34-1.5-2.04-2.22-.38-.39-.83-.72-1.48-1.28-.56.94-1.07 1.73-1.51 2.56-8.16 15.15-16.37 30.29-24.41 45.5-.72 1.36-.92 3.45-.46 4.92 3.5 11.19 7.17 22.34 10.93 33.45.7 2.06 2 3.92 3.04 5.86.26.49.67.9.96 1.38 2.33 3.88 3.35 8.41 1.04 12.1-1.28 2.05-5.27 2.39-8.41 3.65zm-104.94-197.9c19.55-5.63 38.71-11.31 57.96-16.62 11.04-3.05 22.24-3.62 33.45-.37 3.96 1.15 6.64 2.94 7.17 7.51.47 4.09-.32 5.79-4.51 6.52-19.05 3.34-37.97 7.26-56.07 14.3-8.89 3.46-17.93 5.23-27.51 4.74-3.32-.17-6.7.95-10.44 1.54 2.11 5.67 3.92 10.56 5.8 15.62 1.18-.33 2.12-.58 3.05-.87 15.65-4.98 31.29-9.98 46.95-14.92 1.57-.5 3.26-.84 4.9-.87 5.7-.11 11.44.3 17.11-.13 7.1-.54 14.17-1.58 21.21-2.7 3.32-.53 5.59-2.42 5.58-6.33 0-2.32.74-4.63.91-6.97.63-8.84.69-17.67-1.97-26.26-2.38-7.66-5.82-14.29-14.98-15.41-2.39-.29-4.94-1.7-7.09-1.2-16.41 3.88-32.82 7.81-49.06 12.36-8.78 2.46-17.1 6.57-25.86 9.14-5.78 1.69-11.98 1.96-18.27 2.9 3.93 6.07 7.8 12.05 11.67 18.02zm92.72 35.18c-3.07-4.56-6.13-4.47-10.12-3.12-14.06 4.77-28.15 9.49-42.44 13.51-6.76 1.9-13.99 2.18-21.39 3.24 3.4 2.7 6.79 5.19 9.93 7.96 1.9 1.68 3.68 2.23 5.99 1.09 4.12-2.04 8.07-1.73 11.98.79 1.25.81 2.92 1.26 4.42 1.35 7.25.44 14.25-.96 19.91-5.56 7.54-6.1 14.55-12.84 21.72-19.26zm5.25 21.57c-4.91 8.29-12.73 11.92-19.8 16.52-.75.49-1.58.97-2.07 1.67-.52.72-1.15 1.86-.92 2.54 4.58 13.23 9.27 26.43 13.94 39.63.58-.03 1.16-.06 1.74-.1 3.56-10.69 6.19-21.68 8.75-32.64 2.07-8.92 1.45-17.87-1.64-27.62z" fill="#010103"/></svg>