<svg enable-background="new 0 0 400 400" viewBox="0 0 400 400" xmlns="http://www.w3.org/2000/svg"><path d="m193.95 374c-.63-1.02-.9-1.27-.94-1.56-2.38-15.1-10.34-28.49-13.37-43.39-.22-1.09-.71-2.18-.67-3.25.44-9.81-2.49-18.58-7.75-26.75-1.5-2.33-2.34-5.08-3.74-7.48-2.46-4.21-6.49-4.22-9.8-.63-10.38 11.22-15.64 25.44-22.94 38.46-1.14 2.03-2.08 4.43-3.8 5.82-3.82 3.1-5.65 7.02-6.54 11.66-.65 3.37-2.03 6.35-5.7 7.95-1.86-6.29-1.33-12.44-.85-18.72 1.19-15.6 2.02-31.23 2.79-46.87.45-9.16.6-18.35.61-27.52 0-1.94-.78-4.11-1.83-5.79-4.3-6.92-9.43-13.38-13.08-20.61-2.72-5.38-3.67-11.66-5.35-17.56-.56-1.98-.58-3.69 2.04-4.45.49-.14 1.04-2.64.58-3.12-4.86-5.15-4.59-11.57-5.09-17.94-.29-3.75-1.26-7.51-2.42-11.11-2.32-7.21-2.28-14.46-1.43-21.86.31-2.72.07-5.55-.27-8.29-.79-6.54-1.86-13.05-2.68-19.59-.51-4.11-.87-4.53-4.95-4.5-1 .01-2.03.01-3-.2-.96-.21-1.86-.71-3.03-1.17-4.13 4.86-8.99 4.35-14.14 1.61-2.27-1.2-4.68-2.13-6.98-3.28-2.84-1.42-5.69-1.83-8.96-1.82-3.12.02-6.45-1.46-9.35-2.95-8.13-4.16-13.68-9.97-13.84-20.08-.07-4.1-2.81-8.12-4.1-12.24-.57-1.82-.76-3.82-.72-5.74.03-1.76.56-3.52.93-5.28 1.23-5.9 3.11-11.81-.94-17.26 2.12-2.5 4.14-2.73 7.08-2.17 3.61.69 7.65.76 11.2-.12 13.34-3.28 25.99.86 38.68 3.42 4.37.88 8.31 3.98 11.24 8.35 7.36 10.97 11.64 23.09 14.97 35.65.87 3.28 2.55 5.12 5.81 5.42 4.88.45 9.79 1.22 14.67 1.05 34.54-1.2 69.08-2.69 103.62-3.86 6.12-.21 12.28.67 18.42.97 1.31.07 2.78.18 3.92-.32 10.05-4.37 20.84-4.85 31.48-6.02 2.31-.25 3.66-.94 4.24-3.32.6-2.49 1.64-4.87 2.43-7.31 1.05-3.23 2.43-6.23 1.1-9.99-.72-2.03.23-4.88.98-7.17 2-6.16 4.26-12.23 6.48-18.31 1.5-4.1 4.01-7.51 7.66-9.93 8.17-5.43 16.27-10.96 24.65-16.05 3.45-2.1 7.54-2.58 11.68-1.33 2.45.74 5.04 1 7.57 1.45 11.47 2.01 18.46 9.04 20.02 20.63.51 3.83.08 7.78.25 11.67.14 3.12.66 6.22.75 9.33.04 1.57-.13 3.37-.87 4.69-3.82 6.83-7.81 13.56-11.82 20.27-2.64 4.43-6.37 7.25-11.6 8.29-13.27 2.65-26.47 5.62-39.73 8.27-2.27.45-2.86 1.38-2.97 3.47-.72 13.63-1.16 27.29-2.45 40.87-1.1 11.66-3.04 23.24-4.9 34.82-1.97 12.25-4.27 24.45-6.48 36.66-.25 1.41-.72 2.82-1.31 4.12-3.73 8.13-7.39 16.29-11.36 24.3-1.53 3.09-1.77 6.03-1.34 9.35 1.19 9.17 2.76 18.22 2.5 27.64-.23 8.39 1.83 16.86 3.07 25.27 1.71 11.6 3.65 23.18 5.34 34.78.3 2.05.12 4.25-.31 6.28-.21.96-1.44 2.17-2.39 2.35-.86.17-2.32-.64-2.91-1.45-5.21-7.14-11.37-13.86-15.1-21.73-3.76-7.92-9.74-13.48-15.3-19.62-4.32-4.76-6.05-10.67-7.72-16.56-1.81-6.42-6.88-10.62-10.21-15.99-1.26-2.02-6.13-1.22-7.57 1.42-1.9 3.46-3.19 7.28-4.54 11.02-.48 1.33-.57 2.89-.49 4.32.53 9.04-3.41 16.44-7.63 24.1-2.53 4.58-2.71 10.45-4.05 15.71-.52 2.03-1.15 4.07-2.03 5.96-2.79 5.97-5.62 11.92-8.64 17.77-1.25 2.41-3.02 4.52-4.78 7.09zm-56.66-117.57c1.86.47 3.93.61 5.62 1.47 6.95 3.55 13.93 7.09 20.63 11.09 5.45 3.25 10.67 5.94 17.44 5.42 8.01-.61 16.12-.4 24.17-.08 10.14.4 19.67-1.87 29.24-4.92 19.5-6.22 31.78-19.56 39.01-38.13 6-15.39 9.68-31.44 11.8-47.74 2-15.4 2.96-30.93 4.15-46.42.34-4.42.62-9.08-.38-13.32-1.76-7.48-3.98-9.14-10.15-8.69-5.74.41-11.42 1.78-17.1 2.83-5.04.94-10.03 2.71-15.09 2.91-12.63.52-25.29.11-37.92.55-11.38.39-22.75 1.3-34.1 2.18-6.9.53-13.89 2.58-20.63 1.89-8.54-.88-16.95-.61-25.4-.25-5.45.23-10.91 1.03-16.26 2.08-4.58.9-5.34 1.85-4.98 6.41.34 4.28 1.54 8.5 2.38 12.74.8 4.03 2.28 8.05 2.32 12.08.11 12.06-.87 24.15-.45 36.19.48 13.88 4.04 27.27 10.76 39.44 4.24 7.78 9.86 14.82 14.94 22.27zm222.88-192.03c-.69-9.87-7.87-18.77-17.95-22.79-6.54-2.61-11.75-1.74-17.17 2.82-8.28 6.95-14.06 15.5-18.3 25.24-3.1 7.12-5.25 14.48-4.78 22.38.31 5.23.8 5.68 6.12 5.16 11.65-1.16 22.76-4.43 33.63-8.62 3.51-1.35 6.35-3.48 8.38-6.84 2.13-3.53 4.87-6.7 7.01-10.22 1.33-2.18 2.06-4.73 3.06-7.13zm-273.05 43.56c-.33-2.88-.49-4.99-.82-7.07-1.04-6.6-1.95-13.23-3.3-19.77-1.05-5.12-4.83-8.08-9.71-9.12-4.67-1-9.48-1.68-14.25-1.85-6.11-.22-12.45-1.78-18.16 2.32-1.66 1.19-2.66 2.14-2.4 4.18.86 6.53 1.46 13.11 2.65 19.57.38 2.05 2.01 4.1 3.58 5.63 2.63 2.57 5.63 4.76 8.55 7.02.72.56 1.89 1.26 2.58 1.04 6.81-2.14 13.73-1.13 20.64-1.08 3.5.04 6.99-.55 10.64-.87z" fill="#010106"/><g fill="#fcfbfa"><path d="m385.2 377.6.6-.7c.6.4 1.3.9 1.9 1.5l-.6.7c-.8-.5-1.4-1-1.9-1.5zm.3 7.1c.6-1.4 1.1-2.9 1.5-4.5.3.1.6.3.9.4-.5 1.4-1 2.9-1.5 4.4zm.2-10.1.6-.6c.7.5 1.3 1.1 1.9 1.6l-.7.7c-.6-.6-1.2-1.2-1.8-1.7zm8.4-.8h.8v.9h1.8v.7h-1.8v1.8h-.8v-.3h-1.2v.9h3.3v2.6h-.8v-.4h-2.5c0 .3 0 .6-.1.8h3.4v.7h-3.5c0 .3-.1.6-.1.8h4v.7h-3.5c.7.9 1.9 1.3 3.6 1.5-.2.2-.4.5-.6.9-1.9-.3-3.2-1.1-3.8-2.3-.5 1.1-1.8 2-3.9 2.4-.2-.3-.4-.5-.6-.8 1.9-.4 3.1-.9 3.6-1.7h-3.2v-.7h3.5c.1-.2.1-.5.2-.8h-3.3v-.7h3.4c0-.2 0-.5 0-.8h-2.4v.3h-.8v-2.6h3.3v-.9h-1.2v.3h-.8v-1.8h-1.8v-.7h1.8v-.9h.8v.9h3.2zm-4.4 5.5h2.4c0-.3 0-.6 0-.9h-2.4zm1.2-3.1h3.2v-.8h-3.2zm4.4 2.2h-2.4v.9h2.5v-.9z"/><path d="m389.2 385.8h.9v1.5h1.9v-1.5h.9v1.5h2.7v6h1.1v.9h-11.3v-.9h1.1v-6h2.7zm.2 8.7.5.8c-1.2.6-2.5 1.3-4 1.9-.2-.3-.3-.6-.6-.8 1.6-.6 3-1.3 4.1-1.9zm-2-4.3h1.9v-2.1h-1.9zm0 3.1h1.9v-2.2h-1.9zm2.7-3.1h1.9v-2.1h-1.9zm0 3.1h1.9v-2.2h-1.9zm2.4 1.3c1.4.6 2.7 1.2 4.1 1.8l-.5.9c-1.5-.7-2.8-1.4-4.1-1.9zm2.2-6.5h-1.9v2.1h1.9zm-1.9 5.2h1.9v-2.2h-1.9z"/></g></svg>