<svg enable-background="new 0 0 400 400" viewBox="0 0 400 400" xmlns="http://www.w3.org/2000/svg"><path d="m205.64 25.52c3.01.68 4.19 2.76 4.41 5.12.4 4.1.56 8.25.48 12.37-.34 17.37-5.44 33.64-11.58 49.69-2.13 5.59-4.03 11.37-5.06 17.23-.69 3.96.4 8.21.56 12.33.41 10.16.67 20.32 1.12 30.47.35 7.93 1.12 15.84 1.27 23.76.1 5.1-.2 10.29-1.04 15.31-.5 3.04-2.37 5.86-3.7 8.94 2.54.64 2.65 2.81 2.67 5.3.3 28.53.86 57.07.95 85.6.02 7.11-1.39 14.22-2.14 21.33-.12 1.09-.26 2.19-.43 3.62 5.11.85 10.01 2 14.96 2.44 12.7 1.1 25.43 1.79 38.13 2.86 3.34.28 5.16-.86 5.53-4.04.66-5.63 1.55-11.29 1.57-16.93.03-8.16-.88-16.32-.92-24.48-.03-5.69.54-11.4 1.22-17.05.26-2.14 1.59-4.16 2.73-6.99 2.89 4.09 5.09 7.06 4.53 11.43-.24 1.89.64 4.09 1.52 5.9 1.94 3.96 1.87 5.31-1.29 8.16.16.36.25.82.51 1.15 3.4 4.37 3.69 8.96 2.54 14.4-.89 4.22.39 8.86.46 13.32.04 2.49-.43 4.99-.66 7.48-.05.55-.2 1.12-.1 1.64 2.11 11.13.87 22.28-.47 33.29-1.2 9.8-13.12 18.76-23.1 19.01-3.35.08-6.67 1.29-10.02 1.84-7.36 1.2-14.73 2.36-22.11 3.43-3.94.57-7.91.93-11.87 1.34-.65.07-1.45.18-1.95-.12-4.98-2.93-9.96-1.13-14.99-.22-1.69.31-3.5.12-5.24-.03-4.33-.37-8.64-.96-12.97-1.24-7.93-.52-14.79-3.52-21.43-7.83-4.77-3.1-7.64-6.63-8.19-12.34-1.06-11.12-3.47-22.23-3.3-33.31.12-7.54-.81-15.29.68-22.65.96-4.75.36-8.81-.61-13.23-.35-1.61.87-3.56 1.33-5.37.22-.88.8-2.15.43-2.62-1.88-2.34-1.2-4.85-.95-7.4.54-5.57.92-11.15 1.53-16.71.25-2.26.93-4.47 1.85-6.71 3.43 5.62 5.2 11.43 3.46 18-.26 1 .05 2.69.75 3.29 1.75 1.48 2.13 3.14 2.11 5.28-.08 10.96-.04 21.92-.04 32.88 0 5.64 2.94 8.55 8.12 6.96 6.58-2.02 11.97.92 17.76 2.73 1.62.51 3.49.15 5.23.3.61.05 1.32.28 1.76.67 3.04 2.73 6.42 2.6 10.07 1.53 2.15-.63 2.97-1.6 2.95-3.97-.12-15.22-.71-30.48.13-45.66.73-13.14.04-26.14-.82-39.19-.03-.44-.09-.92.04-1.33 2.58-8.46.81-16.83-.43-25.22-.11-.77-.45-1.64-.21-2.3 3.28-9.19-.04-18.37.02-27.55.03-4.91-.91-9.82-.89-14.73.01-3.38.91-6.76 1.43-10.13.19-1.2.63-2.4.63-3.6.05-9.29.06-18.58-.01-27.87-.01-1.05-.19-2.36-.83-3.1-6.61-7.67-8.7-17.2-11.43-26.55-2.47-8.45-5.56-16.71-8.34-25.07-.94-2.82-1.77-5.67-2.6-8.34 3.17-2.15 5.16-1.47 6.62 1.35 3.69 7.14 8.71 13.92 10.7 21.5 1.6 6.11 5.22 11.29 6.27 17.48.32 1.91 1.57 3.67 2.49 5.7 4.25-16.62 8.38-32.58 12.35-48.57.56-2.27.35-4.74.49-7.12.03-.54-.06-1.12.1-1.62 1.76-5.03 3.49-10.07 5.26-15.24zm-67.19 313.49c-.18 0-.36 0-.54 0 0 4.14-.01 8.27 0 12.41.01 2.76 3.94 8.4 6.55 8.89 11.18 2.09 22.35 4.33 33.62 5.89 6.36.88 12.89.61 19.34.7 3.4.05 6.89.2 10.19-.47 11.14-2.26 22.07-5.65 33.67-5.16 2.92.12 5.91-1 8.84-1.66 2.66-.6 3.65-1.88 3.14-5-.69-4.15-.31-8.47-.5-12.72-.13-3.01-.38-6.02-.7-9.01-.26-2.52-1.41-3.61-4.31-3.82-14.14-1.04-28.27-2.34-42.38-3.76-9.43-.95-18.72-2.76-28.34-1.43-4.98.69-10.2.05-15.28-.41-5.56-.5-11.06-1.55-16.61-2.22-4.13-.5-6.6 1.67-6.68 5.72-.06 4-.01 8.03-.01 12.05z" fill="#010100"/><path d="m134.31 113.4c5.18 1.83 7.29 5.58 7.78 10.23.81 7.78 1.45 15.58 1.89 23.39.7 12.62 1.22 25.25 1.66 37.88.04 1.27-1.07 2.59-1.64 3.88-1.34-.61-3.2-.86-3.93-1.9-3.73-5.33-4.97-11.48-4.28-17.83 1.24-11.5 1.84-22.87-2.69-33.91-.56-1.36-.64-3.04-.51-4.53.45-5.63 1.1-11.26 1.72-17.21z" fill="#010100"/><path d="m242.96 33.54c1.22 2.12 2.91 3.97 3.42 6.11 2.65 11.16 6.09 22.22 5.82 33.86-.11 4.55-.7 9.11-1.45 13.6-.19 1.12-1.73 2.4-2.92 2.8-.66.22-2.11-1.05-2.8-1.95-2.16-2.79-2.8-5.82-1.68-9.38.41-1.31-.3-3.31-1.11-4.61-1.74-2.79-1.98-5.67-2.08-8.88-.2-6.88-.93-13.75-1.64-20.6-.45-4.15 1.12-9.13 4.44-10.95z" fill="#010100"/><path d="m247.5 173.46c0-5.37.12-10.74-.06-16.1-.07-2.17.33-4.17 2.45-4.47 2.39-.33 4.42 1.21 4.83 3.71.38 2.29.11 4.68.22 7.02.05 1.08.11 2.26.56 3.2 5.39 11.31 4.68 23.21 3.33 35.12-.13 1.13-2.13 2.72-3.41 2.88-1.79.22-3.46-.63-3.81-3.21-.63-4.73-2.03-9.35-2.62-14.08-.58-4.65-.56-9.38-.81-14.07-.23 0-.46 0-.68 0z" fill="#010100"/><g fill="#fcfafa"><path d="m342.2 3.2-6.3 9.2h6.1v1.2h-8.2v-.5l6.2-9.1h-5.7v-1.2h7.8v.4z"/><path d="m344 13.7v-10.9h3.1c1.6 0 3 .5 4.1 1.4 1.1 1 1.6 2.2 1.6 3.9s-.5 3-1.6 4-2.5 1.5-4.2 1.5h-3zm1.4-9.6v8.4h1.6c1.4 0 2.5-.4 3.2-1.1.8-.8 1.2-1.8 1.2-3.2s-.4-2.4-1.2-3.1-1.8-1-3.1-1z"/><path d="m356.3 2.8v10.9h-1.4v-10.9z"/><path d="m366.6 13.2c-.8.4-1.8.6-3 .6-1.6 0-2.8-.5-3.7-1.5s-1.4-2.3-1.4-3.9c0-1.7.5-3.2 1.6-4.2s2.4-1.6 4-1.6c1 0 1.9.1 2.6.4v1.5c-.8-.4-1.6-.6-2.6-.6-1.2 0-2.2.4-3 1.2s-1.1 1.9-1.1 3.3c0 1.3.4 2.3 1.1 3.1s1.6 1.1 2.8 1.1c1.1 0 2-.2 2.8-.7v1.3z"/><path d="m368.2 13c0-.3.1-.5.3-.6.2-.2.4-.3.6-.3.3 0 .5.1.7.3s.3.4.3.6-.1.5-.3.6c-.2.2-.4.3-.7.3s-.5-.1-.6-.3c-.2-.2-.3-.4-.3-.6z"/><path d="m381.1 13.7h-1.7l-5.5-8.4c-.2-.2-.3-.5-.4-.7 0 .2.1.8.1 1.5v7.6h-1.4v-10.9h1.8l5.3 8.3c.3.4.4.6.4.8 0-.3-.1-.8-.1-1.6v-7.5h1.4v10.9z"/><path d="m389.7 13.7h-5.8v-10.9h5.6v1.2h-4.2v3.5h3.9v1.2h-3.9v3.7h4.4z"/><path d="m398.4 4.1h-3.1v9.6h-1.4v-9.6h-3.1v-1.3h7.7v1.3z"/></g></svg>