<svg enable-background="new 0 0 400 400" viewBox="0 0 400 400" xmlns="http://www.w3.org/2000/svg"><path d="m180.5 25.05c1.5 2.08 3.32 4.21 4.72 6.59 7.85 13.34 14.11 27.44 18.94 42.12 1.91 5.8 2.57 12.01 3.97 17.99 1 4.29 2.38 8.46 6.59 10.83 2.58 1.45 4.76 1.85 6.83-1.2 7.16-10.55 14.69-20.84 21.78-31.43 5.38-8.03 10.7-16.11 18.87-21.56 3.92-2.62 8.42-4.38 12.87-6.64 2.35 4.96 2.54 9.37 1.81 13.8-.63 3.86-1.52 7.68-2.5 11.46-.35 1.35-1.21 2.6-1.99 3.79-1.95 2.99-4.31 5.76-5.94 8.91-4.13 7.95-9.45 14.84-16.27 20.69-2 1.72-3.43 4.3-4.61 6.73-3.51 7.21-6.38 14.75-10.21 21.79-6.33 11.66-10.2 24.08-12.38 37.02-.94 5.56-2.75 10.46-6.1 14.98-1.01 1.36-1.43 3.47-1.41 5.23.04 3.34.79 6.68.88 10.02.15 5.56.04 11.12-.02 16.69-.07 7.6-.62 15.23-.19 22.81.66 11.68.38 23.25-2.1 35.18 1.68.62 3.26 1.45 4.94 1.78 19.1 3.66 38.4 4.43 57.79 3.87 2.27-.07 3.88-.83 4.43-3.14.95-3.98 1.92-7.96 2.74-11.98.24-1.18.12-2.47-.04-3.68-1.29-10.04.63-19.3 6.59-27.59 1.71-2.37 2.03-4.81.69-7.47-.5-.99-.69-2.14-1.17-3.14-1.51-3.13-1.86-5.9 1.07-8.65 1.17-1.1 1.67-3.16 1.98-4.87.65-3.58 2.59-5.81 6.95-7.15.75 5.9 1.83 11.58 2.09 17.3.28 6.13-.1 12.31-.45 18.45-.13 2.26-1.12 4.46-1.45 6.73-.24 1.61-.1 3.28-.01 4.92.22 3.86.91 7.74.69 11.57-.52 8.93-1.54 17.83-2.17 26.76-.11 1.51.71 3.1 1.13 4.64.6 2.23 1.88 4.51 1.71 6.67-1.32 16.5-2.75 33-6.75 49.13-.43 1.74-1.07 3.44-1.3 5.2-1.5 11.36-9.27 16.78-19.27 19.17-7.22 1.72-14.76 2.49-22.2 2.76-9.38.35-18.8-.64-28.18-.3-7.56.27-15.08 1.72-22.64 2.5-1.29.13-2.66-.5-4-.74-1.4-.24-2.81-.6-4.21-.59-1.09 0-2.2.4-3.25.77-4.88 1.71-9.4 1.55-13.37-2.24-.8-.76-1.92-1.18-2.73-1.94-2.99-2.77-5.94-3.59-9.15-.3-.52.53-1.89 1.02-2.31.73-2.48-1.74-4.8-.67-7.01.27-4.74 2.01-9.21.99-13.6-.92-3.85-1.67-7.58-1.89-11.67-.72-1.91.55-4.23-.23-6.35-.49-.53-.06-1.01-.48-1.54-.64-10.23-2.95-18.01-9.06-23.35-18.22-.84-1.44-1.52-3.21-1.56-4.84-.3-13.09-.22-26.18-.73-39.26-.14-3.52-1.89-6.98-3-10.83 1.79-.81 4-1.8 6.54-2.94-2.32-1.76-4.51-3.13-6.31-4.89-.94-.92-1.8-2.6-1.67-3.83 1.84-18.14 3.84-36.27 5.82-54.4.38-3.45 4.9-7.35 9.24-7.78 1.36 5.89 2.75 11.84 4.09 17.79.11.5.04 1.18-.23 1.61-2.33 3.85-.92 7.71-.35 11.68.59 4.06.53 8.22.71 12.34.07 1.77.01 3.55.01 5.82 25.66.36 51.09.71 76.91 1.07-.48-6.97-1.01-13.52-1.35-20.07-.12-2.42-.2-4.97.41-7.27 4.77-17.83 6.82-36.01 7.39-54.41.1-3.17.64-6.44 1.58-9.47 2.4-7.68 5.22-15.22 7.68-22.88.62-1.95.87-4.17.67-6.2-.55-5.68-1.21-11.36-2.25-16.96-.44-2.38-1.57-4.85-3.04-6.77-6.39-8.33-9.68-17.65-10.84-28.07-1.09-9.75-2.66-19.52-4.94-29.05-1.19-4.99-4.1-9.66-6.73-14.18-4.23-7.25-7.12-14.26-3.29-22.88 1.56-3.48 2.89-6.28 7.07-7.58zm105.57 314.86c-.4-.76-.56-1.31-.91-1.71-4.99-5.73-5.65-12.3-4.97-19.68.68-7.4.03-14.93-.19-22.39-.08-2.82-1.64-3.79-4.64-3.77-20.02.12-40.07.68-60.01-1.99-3.76-.5-7.79-1.39-11.32-.55-6.26 1.48-12.32 1.21-18.57.53-10.54-1.14-21.23-1.09-31.44-4.63-1.22-.42-2.83.06-4.2.39-5 1.19-9.94 2.62-14.95 3.71-5 1.09-9.75.31-14.12-2.57-2.3-1.52-3.98-.85-4.75 1.85-1.37 4.84-2.82 9.67-3.88 14.58-1.58 7.3-3.43 14.61-4.08 22.02-.71 8.11 1.92 11.57 9.6 14.54 5.99 2.31 12.14 4 18.09 6.67 6.33 2.84 13.85 3.38 20.94 4.07 7.33.72 14.76.27 22.13.63 7.51.37 15.25-.61 22.18 3.63 4.54 2.78 9.61 2.72 14.65 1.84 3.07-.53 6.07-1.51 9.13-2.09 1.81-.34 3.72-.52 5.56-.38 5.01.39 10.03 1.64 14.99 1.39 15.29-.78 28.03-8.3 40.76-16.09z" fill="#010100"/><g fill="#fcfafa"><path d="m342.2 3.2-6.3 9.2h6.1v1.2h-8.2v-.5l6.2-9.1h-5.7v-1.2h7.8v.4z"/><path d="m344 13.7v-10.9h3.1c1.6 0 3 .5 4.1 1.4 1.1 1 1.6 2.2 1.6 3.9s-.5 3-1.6 4-2.5 1.5-4.2 1.5h-3zm1.4-9.6v8.4h1.6c1.4 0 2.5-.4 3.2-1.1.8-.8 1.2-1.8 1.2-3.2s-.4-2.4-1.2-3.1-1.8-1-3.1-1z"/><path d="m356.3 2.8v10.9h-1.4v-10.9z"/><path d="m366.6 13.2c-.8.4-1.8.6-3 .6-1.6 0-2.8-.5-3.7-1.5s-1.4-2.3-1.4-3.9c0-1.7.5-3.2 1.6-4.2s2.4-1.6 4-1.6c1 0 1.9.1 2.6.4v1.5c-.8-.4-1.6-.6-2.6-.6-1.2 0-2.2.4-3 1.2s-1.1 1.9-1.1 3.3c0 1.3.4 2.3 1.1 3.1s1.6 1.1 2.8 1.1c1.1 0 2-.2 2.8-.7v1.3z"/><path d="m368.2 13c0-.3.1-.5.3-.6.2-.2.4-.3.6-.3.3 0 .5.1.7.3s.3.4.3.6-.1.5-.3.6c-.2.2-.4.3-.7.3s-.5-.1-.6-.3c-.2-.2-.3-.4-.3-.6z"/><path d="m381.1 13.7h-1.7l-5.5-8.4c-.2-.2-.3-.5-.4-.7 0 .2.1.8.1 1.5v7.6h-1.4v-10.9h1.8l5.3 8.3c.3.4.4.6.4.8 0-.3-.1-.8-.1-1.6v-7.5h1.4v10.9z"/><path d="m389.7 13.7h-5.8v-10.9h5.6v1.2h-4.2v3.5h3.9v1.2h-3.9v3.7h4.4z"/><path d="m398.4 4.1h-3.1v9.6h-1.4v-9.6h-3.1v-1.3h7.7v1.3z"/></g></svg>