<svg enable-background="new 0 0 400 400" viewBox="0 0 400 400" xmlns="http://www.w3.org/2000/svg"><path d="m111 309.29c.86-3.12 1.16-5.79 2.29-8.03 2.47-4.88 4.98-9.83 8.22-14.19 2.2-2.96 5.5-5.21 8.62-7.33 4.62-3.14 7.74-7.1 9.38-12.5 2.36-7.77 5.77-15.27 7.51-23.15 1.17-5.33.25-11.12.23-16.71-.03-5.73 1.23-11.03 5.32-16.18 2.23 2.96 4.31 5.64 6.3 8.38 2.75 3.8 5.22 7.83 8.22 11.42 3.9 4.67 7.57 5.64 11.51 1.19 7.44-8.41 17.27-8.76 26.95-10.42 2.6-.45 5.06-1.74 7.66-2.16 3.57-.57 7.22-.73 10.84-.96 1.54-.1 3.3.57 4.61.03 5.23-2.15 10.57-1.68 15.83-.8 7.26 1.21 14.26.27 21.17-1.74 2.09-.61 3.24-.02 4.59 1.48 6.73 7.49 10.89 16.11 11.48 26.22.45 7.7.56 15.42.71 23.13.02.99-.4 2.25-1.07 2.95-10.07 10.44-17.1 22.91-23.63 35.66-2.04 3.98-4.29 7.52-8.03 9.99-4.08 2.69-6.87 6.32-7.97 11.12-1.38 6.03-4.89 10.16-10.34 13.12-3.92 2.13-8.23 4.2-9.26 9.43-.19.94-1.37 1.72-2.16 2.49-5.62 5.45-11.28 10.87-16.89 16.34-2.86 2.8-6.24 4.26-10.23 4.29-.22 0-.45.02-.67 0-10.01-.9-19.79.28-29.51 2.74-6.74 1.7-12.5-1.59-17.2-5.61-2.38-2.04-2.8-6.37-4.25-10.03 2.39-1.2 4.52-2.33 6.72-3.33.51-.23 1.45-.29 1.79.02 4.61 4.13 10.24 3.96 15.85 3.9.67-.01 1.34-.06 2.01-.11 17.75-1.48 17.75-1.48 31.17-13.72.33-.3.82-.56.95-.93 2.08-6.01 7.66-8.11 12.41-11.09 5.07-3.17 6.44-7.34 3.84-12.78-.87-1.81-1.99-2.84-4.11-1.1-2.16 1.77-5.73 1.11-7.85-.8-1.46-1.32-3.1-2.71-4.91-3.33-6.26-2.12-11.67-5.52-16.66-9.77-3.58-3.04-7.6-5.59-10.98-8.82-3.5-3.34-7.47-4.68-12.1-4.48-2.2.1-3.64-.61-4.26-2.77-.61-2.12-1.86-2.09-3.84-1.67-6.89 1.44-13.2 4.27-19.11 7.89-2.59 1.59-4.96 3.95-6.69 6.47-3.28 4.74-8.04 5.49-14.46 6.25zm145.51-39.88c-4.56 2.05-9.28 3.27-12.87 5.98-5.23 3.94-11.07 5.23-17.14 5.88-3.21.34-7.03.39-9.73-1.03-9.72-5.12-18.72-11.34-25.95-19.86-2.11-2.49-4.82-4.7-7.68-6.29-4.25-2.37-6.68-1.21-8.51 3.36-1.74 4.36-3.11 8.89-5.14 13.1-2.27 4.7-1.12 6.5 3.12 9.86 1.53 1.21 3.52 1.93 5.4 2.6 4.62 1.66 9.41 2.89 13.93 4.77 12.2 5.06 24.74 8.24 38.03 8.25 8.04.01 15.28-1.37 19.9-8.92.74-1.22 1.81-2.34 2.96-3.18 4.88-3.58 4.37-8.53 3.68-14.52zm-65.88-26.72c8.32 1.12 14.58 5.92 20.38 11.13 4.84 4.34 9.94 5.33 16.22 4.63 7.82-.88 15.78-1.92 23.55 1.02 2.38.9 8.14-3.84 8.45-6.35.75-6-.53-11.16-5.21-15.36-1.89-1.7-3.28-3.95-4.97-5.89-.56-.64-1.34-1.55-2.02-1.55-5.13 0-10.33-.28-15.37.45-7.38 1.08-14.61 3.08-21.96 4.42-6.74 1.23-13.34 2.69-19.07 7.5z" fill="#010102"/><path d="m190.19 35.52c-2.68-3.06-1.64-6.64 2.48-9.92 3.09.89 5.19 3.14 6.5 6.28 7.49 17.94 12.89 36.45 14.53 55.89.62 7.35.85 14.75.95 22.13.04 3.06 1.38 4.41 4.01 3.67 5.28-1.49 10.92-2.55 13.12-8.91 1.74-5.04 4.65-9.32 9.27-12.36 1.15-.76 2.04-2.38 2.41-3.78 3.23-12.07 7.3-23.95 7.13-36.73-.06-4.23 1.25-8.37 4.61-12.37.74 8.24 5.79 13.6 10.19 19.33.68.88 1.22 1.88 1.78 2.84 2.2 3.73 2.67 7.32 1.08 11.7-4.46 12.29-8.35 24.78-12.45 37.19-1.57 4.75-.72 6.45 3.88 8 2.98 1.01 5.26 4.36 5.14 7.88-.36 10.4-.74 20.8-1.25 31.2-.07 1.48-.67 3.05-1.4 4.37-5.11 9.4-10.32 18.75-15.5 28.12-.27.48-.48 1.11-.9 1.38-6.42 4.23-12.63 8.87-19.39 12.47-6.56 3.49-13.73 5.8-20.55 8.81-6.9 3.04-13.82 5.89-21.59 5.09-5.63-.58-10.55-2.64-14.38-7.04-7.39-8.48-14.59-17.15-16.92-28.48-.8-3.9-.07-8.18.32-12.25.57-6.02 5.7-7.73 10.6-10.35 1.26 2.42 2.6 4.8 3.77 7.27 1.58 3.33 3.02 6.73 4.56 10.07 6.57 14.23 16.65 19.41 32.04 16.36 2.95-.58 5.83-1.53 8.72-2.39 8.54-2.56 15.56-6.93 19.66-15.36 1.93-3.97 4.72-7.51 6.89-11.62-6.09 1.6-12.54 1.06-17.91 5.33-6.91 5.5-15.31 6.53-23.83 6.29-3.54-.1-7.09-.88-10.57-1.63-.93-.2-2.14-1.33-2.36-2.23-.87-3.67-1.4-7.43-2.11-11.5 6.68-.79 13.06-1.76 19.48-2.24 3.93-.29 7.92.19 11.89.24.85.01 1.74-.22 2.56-.52 1.68-.61 3.27-1.54 4.99-1.97 9.47-2.35 16.18-9.02 23.41-14.85 2.49-2.01 3.9-4.87 3.01-8.03-.88-3.11-5.54-5.37-8.99-4.87-14.61 2.08-28.38 7.09-42.07 12.28-6.54 2.48-12.67 6.05-19.27 8.3-2.89.98-6.6.35-9.76-.35-10.66-2.35-19.72-7.57-26.59-16.21-4.37-5.49-8.59-11.09-12.9-16.63-.81-1.04-1.53-2.38-2.62-2.91-4.54-2.19-5.99-6.23-6.48-10.67-.62-5.55-.79-11.15-1.18-16.73-.26-3.64 3.11-2.77 4.85-3.93 1.81-1.2 2.53.21 3.37 1.44 5.6 8.1 11.28 16.14 16.81 24.28 1.2 1.77 2.38 2.45 4.41 1.6 2.99-1.25 5.62-.6 8.49.99 2.75 1.52 5.97 2.42 9.09 2.99 9.37 1.72 18.81 2.95 28.32 1.14 1.42-.27 3.08-1.34 3.87-2.55 4.13-6.27 4.56-13.16 2.75-20.3-2.53-9.96-4.97-19.94-7.62-29.87-.53-2-2.05-3.73-2.65-5.72-1.05-3.52-2.3-7.13-2.39-10.73-.07-2.62 1.54-5.34 2.69-8.93z" fill="#010102"/><g fill="#fcfbfa"><path d="m377.9 391.2c-.2.3-.4.5-.6.8-.7-.6-1.4-1-2.2-1.5.2-.3.4-.5.5-.8.6.4 1.4.8 2.3 1.5zm-1.8 6.1c-.2-.2-.5-.4-.9-.6.4-.6.8-1.2 1.2-1.9s.7-1.3.9-1.9c.3.3.5.5.8.7-.7 1.3-1.4 2.6-2 3.7zm2.2-9c-.3.3-.5.5-.6.8-.6-.6-1.3-1.1-2-1.5.3-.3.5-.5.6-.7.6.5 1.3.9 2 1.4zm.3.2v-.9h2 4.5c-.3 1.3-.6 2.5-1 3.6s-.9 2.1-1.4 3c.4.5 1 1 1.6 1.4s1.2.8 1.9 1.1c-.3.2-.5.4-.8.8-.4-.3-1-.7-1.6-1.2s-1.2-1.1-1.6-1.6c-.5.6-1.1 1.1-1.7 1.6s-1.4.9-2.1 1.4c-.1-.3-.3-.5-.7-.8.6-.2 1.2-.5 1.9-1s1.4-1.1 2-1.8c-.5-.8-.9-1.6-1.2-2.5s-.6-2-.8-3.2c-.4.1-.7.1-1 .1zm2.5 2.7c.3 1 .7 1.7 1 2.2.3-.5.6-1.1 1-2s.6-1.9.9-3h-3.2-.4c.1.9.3 1.8.7 2.8z"/><path d="m396.5 388.5v1.5 3.6h1.5v.9c-.4 0-1 0-1.7 0h-7.9c-.5 0-.9 0-1.2 0v-.9h1.3v-3.5c0-.7 0-1.2 0-1.6h2.4c0-.8 0-1.4 0-1.7h1c0 .3-.1.8-.1 1.7h1.5c0-.8 0-1.4 0-1.7h1c0 .3-.1.9-.1 1.7zm-8.2 9.2c-.2-.3-.5-.5-.8-.8.8-.3 1.4-.6 1.9-.9s1-.7 1.4-1.1c.3.3.6.5.9.8-1.6 1-2.8 1.6-3.4 2zm2.6-6.8v-1.6h-1.5v1.6zm0 2.7v-1.9h-1.5v1.9zm2.4-2.7v-1.6h-1.5v1.6zm0 2.7v-1.9h-1.5v1.9zm.2 2 .7-.8c.4.2.9.5 1.6.8s1.3.7 1.8 1c-.3.3-.5.5-.8.8-.4-.3-1.5-1-3.3-1.8zm2-4.7v-1.6h-1.4v1.6zm0 2.7v-1.9h-1.4v1.9z"/></g></svg>