<svg enable-background="new 0 0 400 400" viewBox="0 0 400 400" xmlns="http://www.w3.org/2000/svg"><path d="m128.24 334.99c.32-1.26.29-1.81.55-2.06 4.75-4.49 6.95-10.4 8.73-16.39 7.4-24.95 18.75-48.3 28.88-72.15 1.64-3.86 2.32-7.59 1.83-11.68-1.82-15.16-1.82-30.36-.73-45.56.44-6.22 1.28-12.42 1.46-18.64.11-3.86-.58-7.75-1.12-11.6-.14-.98-.9-2.07-1.69-2.72-8.13-6.58-13.46-15.14-17.72-24.51-3.98-8.74-9.41-16.45-16.84-23.45-1.18 5.34-2.44 10.24-3.34 15.21-2.33 12.93-8.25 24.51-13.49 36.33-1.9 4.28-4.54 8.22-6.59 12.44-1.02 2.12-2.12 2.84-4.36 1.91-1.51-.63-3.17-.92-5.09-1.45 2.9-7.92 6.21-15.41 8.33-23.22 2.04-7.5 3.01-15.31 4.14-23.02 1.35-9.18 2.37-18.41 3.56-27.62.42-3.21 3.95-5.62 7.39-5.12 4.58.66 7.25-.8 9.34-5.08 1.47-3.02 5.82-3.25 7.75-.41.12.18.2.4.26.61 3.64 12.14 12.94 20.45 20.4 29.99 4.04 5.17 8.32 10.17 12.94 15.79 1.33-7.22 2.68-13.73 3.7-20.29 1.57-10.1 4.64-19.76 7.85-29.42 1.27-3.83 1.92-8.03 1.97-12.07.06-5.02.84-9.75 2.69-14.38 4.14-10.33 9.44-19.99 16-28.99 1.39-1.91 2.73-2.17 4.81-1.44 6.28 2.2 10.67 6.58 13.66 12.26 3.28 6.22 6.33 12.59 9.01 19.09 4.85 11.75 12.94 19.29 25.53 22.36 8.77 2.14 17.39 5.05 25.85 8.22 6.07 2.27 10.76 6.37 11.79 13.42.74 5.08-2.37 7.76-7.14 5.69-4.56-1.98-9.34-3.59-12.86-7.57-2.91-3.28-6.78-4.95-11.75-4.68 2.32 6.47 3.05 12.94 7.67 18.46 8.74 10.45 14.37 22.59 15.74 36.39.06.55.03 1.12.01 1.67 0 .09-.11.19-.33.52-2.68.15-4.74-.64-6.4-3.28-6.06-9.66-12.16-19.31-18.64-28.7-2.83-4.09-6.37-7.78-10.04-11.17-2.84-2.63-7.34-.6-8 3.26-.44 2.53-.8 5.09-.99 7.65-.86 11.42-5.53 21.33-12.05 30.48-2.18 3.06-4.71 5.9-9.36 6.33 1.86-7.9 3.64-15.47 5.43-23.05 1.08-4.57 2.03-9.18 3.32-13.68.91-3.18 2.29-6.23 3.51-9.32 2.78-7.03 2.03-14.31 1.46-21.55-.5-6.46-2.44-12.37-6.42-17.69-2.59-3.46-4.37-7.53-6.59-11.28-2.11-3.56-4.8-6.44-9.06-7.45-2.12-.5-3.42-.02-4.61 2.04-5.81 10.04-8.6 20.96-10.55 32.3-3.42 19.82-7.56 39.51-10.91 59.34-1.15 6.78-1.16 13.81-1.1 20.73.13 15.83-1.25 31.48-4.23 47.03-.54 2.82.01 5.99.63 8.88 1.95 9.06 2.09 18.17 1.53 27.36-.18 3.01-.04 6.04.05 9.06.24 7.94 3.31 14.25 9.13 20.01 12.81 12.69 24.55 26.36 33.19 42.41 2.22 4.12 3.95 8.28 3.75 12.98-.16 3.99 1.24 7.1 4.14 9.77 1.61 1.49 2.93 3.29 4.58 5.18-1.36.63-2.43.95-3.3 1.57-3 2.1-4.85.98-6.73-1.77-5.41-7.95-11.06-15.74-16.56-23.63-5.3-7.61-10.27-15.48-15.89-22.85-3.13-4.11-7.3-7.43-11.14-11.25-2.17 2.26-3.29 3.7-1.65 6.28 1.01 1.58 1.63 3.94 1.32 5.76-2.65 15.26-.4 30.62-1.13 45.89-.34 7-1.78 13.94-2.54 20.93-.36 3.36-2.11 4.59-5.26 4.41-.87-.05-1.74-.01-3.04-.01 0-1.32 0-2.51 0-3.71 0-12.31.17-24.63-.08-36.94-.11-5.43-.47-11-1.77-16.24-1.58-6.39-.62-12.67-.81-19-.07-2.41-.46-4.93-1.33-7.16-.47-1.2-2.16-2.13-3.5-2.67-.37-.15-1.66 1.48-2.22 2.46-5.04 8.71-9.92 17.52-15.03 26.18-3.81 6.46-8.82 11.83-15.6 15.32-1.17.65-2.4 1.11-4.3 1.95z" fill="#010102"/><g fill="#fcfbfa"><path d="m385.2 377.6.6-.7c.6.4 1.3.9 1.9 1.5l-.6.7c-.8-.5-1.4-1-1.9-1.5zm.3 7.1c.6-1.4 1.1-2.9 1.5-4.5.3.1.6.3.9.4-.5 1.4-1 2.9-1.5 4.4zm.2-10.1.6-.6c.7.5 1.3 1.1 1.9 1.6l-.7.7c-.6-.6-1.2-1.2-1.8-1.7zm8.4-.8h.8v.9h1.8v.7h-1.8v1.8h-.8v-.3h-1.2v.9h3.3v2.6h-.8v-.4h-2.5c0 .3 0 .6-.1.8h3.4v.7h-3.5c0 .3-.1.6-.1.8h4v.7h-3.5c.7.9 1.9 1.3 3.6 1.5-.2.2-.4.5-.6.9-1.9-.3-3.2-1.1-3.8-2.3-.5 1.1-1.8 2-3.9 2.4-.2-.3-.4-.5-.6-.8 1.9-.4 3.1-.9 3.6-1.7h-3.2v-.7h3.5c.1-.2.1-.5.2-.8h-3.3v-.7h3.4c0-.2 0-.5 0-.8h-2.4v.3h-.8v-2.6h3.3v-.9h-1.2v.3h-.8v-1.8h-1.8v-.7h1.8v-.9h.8v.9h3.2zm-4.4 5.5h2.4c0-.3 0-.6 0-.9h-2.4zm1.2-3.1h3.2v-.8h-3.2zm4.4 2.2h-2.4v.9h2.5v-.9z"/><path d="m389.2 385.8h.9v1.5h1.9v-1.5h.9v1.5h2.7v6h1.1v.9h-11.3v-.9h1.1v-6h2.7zm.2 8.7.5.8c-1.2.6-2.5 1.3-4 1.9-.2-.3-.3-.6-.6-.8 1.6-.6 3-1.3 4.1-1.9zm-2-4.3h1.9v-2.1h-1.9zm0 3.1h1.9v-2.2h-1.9zm2.7-3.1h1.9v-2.1h-1.9zm0 3.1h1.9v-2.2h-1.9zm2.4 1.3c1.4.6 2.7 1.2 4.1 1.8l-.5.9c-1.5-.7-2.8-1.4-4.1-1.9zm2.2-6.5h-1.9v2.1h1.9zm-1.9 5.2h1.9v-2.2h-1.9z"/></g></svg>