<svg enable-background="new 0 0 400 400" viewBox="0 0 400 400" xmlns="http://www.w3.org/2000/svg"><path d="m188.29 236.6c-1.34-1.06-2.22-2.21-3.35-2.54-1.71-.5-3.59-.54-5.39-.46-.18.01-.73 2.42-.3 3.33 1.33 2.81.98 5.01-1.28 7.12-1.13 1.06-2.09 2.35-2.92 3.67-1.54 2.43-3.58 3.95-6.51 4.03-2.2.06-3.2 1.28-3.32 3.31-.17 2.91-1.72 4.86-3.9 6.67-4.3 3.58-8.34 7.47-12.62 11.06-2.13 1.79-3.5 3.5-1.32 6.17-.92.62-1.64 1.11-2.33 1.58.36 1.14.69 2.18 1.01 3.17-5.55 4.2-14.8 7.99-19.36 7.82.22-9.73.54-19.44 5-28.39.65-1.3 2.38-2.31 3.83-2.91 3.65-1.49 6.76-3.45 8.14-7.35.86-2.43 3.09-2.65 4.94-2.66 6.15-.05 9.06-3.13 9.51-9.06.08-1.09.52-2.18.92-3.21 1.78-4.61 4.99-6.24 9.75-4.95.46-5.38 4.21-8.19 8.46-10.43 6.39-3.36 10.29-8.49 11.54-15.55.26-1.45.13-3.14-.36-4.52-1.6-4.53-3.54-8.93-5.14-13.46-.57-1.63-.55-3.47-.92-6.06-1.93 1.04-4.19 2.42-6.6 3.5-2.61 1.17-5.38 1.97-8.02 3.1-2.29.98-4.83 1.79-6.64 3.37-6.66 5.81-12.93 12.07-19.66 17.8-2.07 1.76-5.02 2.69-7.72 3.46-3.76 1.07-7.65 1.64-12.14 2.55-.06-1-.41-2.89-.24-4.72.26-2.77.74-5.53 1.42-8.23.22-.89 1.21-1.77 2.07-2.28 5.58-3.31 11.22-6.51 16.83-9.76.77-.45 1.85-.76 2.21-1.44 1.37-2.6 2.51-4.94 6.35-4.29.86.15 2.05-2.7 3.38-3.81 1.03-.86 2.65-1.83 3.8-1.61 4.07.77 7.21-.67 10.05-3.29.99-.91 2.09-1.74 2.9-2.79 2.81-3.64 6.4-5.89 11-6.2 2.86-.2 4.35-1.97 4.78-4.35.57-3.14.74-6.39.71-9.59-.02-2.21-.98-4.42-.94-6.62.09-5.47-2.53-8.96-7.65-11.19-.69 1.52-1.36 3.14-2.14 4.71-1.45 2.93-3.7 4.98-7.1 4.53-4.88-.64-8.65.97-11.85 4.54-4.42 4.93-10.16 6.88-16.52 8.57-4.49 1.2-8.37 5.23-12.14 8.45-2.86 2.45-5.11 5.62-7.64 8.45-3.17 3.56-6.98 4.96-11.89 3.52 1.09-6.04 1.73-11.84 5.93-16.83 5.54-6.58 10.49-13.66 15.52-20.66 1.66-2.32 3.49-3.99 6.36-4.33 4.23-.5 7.09-2.97 9.31-6.4.91-1.41 1.73-2.93 2.89-4.11 5.05-5.16 2.9-10.49.48-15.8-.24-.54-1.46-1.03-2.11-.91-2.04.4-3.24-.51-4.65-1.83-.98-.91-2.77-1.47-4.13-1.35-4.68.41-6-2.19-6.34-5.64-.36-3.73-.03-7.61.64-11.31.25-1.37 2.17-2.6 3.56-3.57 1.88-1.32 3.32-2.58 3.82-5.12.27-1.37 2.14-2.62 3.54-3.53 2.77-1.79 5.71-3.31 5.07-7.25 5.99-.94 5.99-.94 7.81 4.45-1.99.84-5.15-.41-6.03 3.26 1.78.79 3.55 1.57 5.49 2.42.82-1.2 1.56-2.27 2.71-3.95 2.01 1.86 4.15 3.42 5.77 5.41 5.27 6.51 12.49 6.13 19.69 5.82.61-.03 1.37-1.05 1.74-1.77 3.52-6.7 2.56-13.94 2.36-21.06-.02-.7-1.04-1.36-1.55-2.07-1.41-2-3.04-3.89-4.14-6.05-2.21-4.37-9.74-6.16-13.89-3.55-4.5 2.83-9.2 5.45-14.06 7.6-6.73 2.97-13.7 5.42-20.86 8.2.88.98 1.52 1.68 2.93 3.24-2.04.6-3.6 1.59-4.97 1.37-4.76-.73-7.52 1.31-10 5.22-2.85 4.49-6.33 8.63-9.83 12.65-3.22 3.7-7.26 6.27-12.5 6.28-.18 1.62-.33 2.92-.49 4.37-1.99.49-3.9 1.2-5.86 1.4-4.65.47-7.82 2.87-10.13 6.8-1.68 2.86-4.25 3.59-7.85 2.74 3.56-7.39 4.86-15.44 10.54-21.42.69-.73 1.25-1.65 2.08-2.17 12.96-8.19 23.04-19.52 33-30.85 6.85-7.79 14.86-13.41 24.52-16.97 3.34-1.23 6.45-3.08 9.74-4.47 1.7-.72 3.59-.97 5.35-1.57 1.08-.37 2.41-.73 3.07-1.54 9.73-12.16 21.15-10.08 30.79-4.05 2.74 1.71 5.26 3.78 7.83 5.74.48.36 1.11 1.09 1.03 1.53-.8 4.21 2.75 6 4.63 8.75 1 1.46 1.45 3.28 2.18 4.92.93 2.1 1.61 4.38 2.9 6.25 2.61 3.77 3.78 6.97 1.7 11.94-1.82 4.36-1.04 9.83-1.21 14.82-.02.57 1.13 1.51 1.9 1.73 3.22.92 6.48 1.74 9.77 2.34.87.16 2.15-.31 2.83-.94 1.88-1.75 3.49-3.79 5.29-5.62 2.91-2.95 6.4-4.27 10.62-3.94 1.36.11 3.3-.29 4.12-1.21 7.72-8.7 17.64-9.18 28.09-7.85 1.65.21 3.28.53 4.97.81.74 2.56-.86 6.58 4.19 6.15-.4 3.87-1.69 6.79-5.21 8.82-4.74 2.73-9.2 5.94-13.94 9.05-1.64-2.15-3.25-1.46-5.14-.26-5.84 3.73-11.8 7.28-17.68 10.95-.92.57-1.84 1.29-2.46 2.15-2.49 3.52-4.78 7.18-7.31 10.67-2.4 3.32-1.65 9.88 1.58 11.67 1.04.57 2.25.83 3.96 1.43-2.28 2.04-3.83 3.41-5.59 4.98 4.54 1.47 5.1 1.11 7.19-2.19.74-1.17 2.39-2.44 3.64-2.46 2.71-.04 5.46.59 8.15 1.13 3.77.76 7.48 2.25 11.25 2.39 3.96.15 6.64 1.62 9.31 4.33 2.77 2.82.15 4.81 0 8.05 2.08-.89 4.35-1.51 6.21-2.74 2.56-1.7 4.89-2.33 7.8-.87 1.74.88 3.89 1.82 5.68 1.56 4.68-.67 7.78 1.92 11.28 4.28-.86 2.28-1.69 4.47-2.52 6.66.3.2.6.4.9.6 1.07-.98 2.15-1.95 3.2-2.96 3.1-2.99 6.19-2.5 7.89 1.47 1.52 3.55 2.83 7.19 4.08 10.85.71 2.09-2.41 7.46-5.3 8.37-6 1.88-11.68 2.54-17.85-1.08-5.74-3.37-12.41-5.82-18.96-6.91-4.45-.74-7.94-1.92-11.24-4.76-1.36-1.18-3.4-2.5-4.96-2.32-3.53.4-5.23-1.02-5.97-4.1-1.3.95-2.45 2.47-3.61 2.48-1.47.01-2.96-1.2-4.43-1.91-3.27-1.59-6.41-3.6-9.84-4.7-3.58-1.15-7.58-1.05-11.15-2.23-3.56-1.18-6.82-3.28-9.71-4.73-2.05.85-3.82 1.48-5.49 2.31-1.04.52-2.73 1.32-2.75 2.04-.11 3.78-2.67 4.44-5.5 5.01-.53.11-1.03.39-2.4.94 7.33.68 11 5.8 15.51 9.62.9.77 1.46 2.43 1.46 3.68-.01 2.56-.44 5.12-.87 7.66-.15.89-.61 1.87-1.24 2.51-1.63 1.66-1.59 3.74.55 4.71 5.3 2.38 10.62 6.04 16.09 6.33 5.39.28 8.46 3.08 12.22 5.53 3.15 2.06 6.26 3.3 10.05 1.45.8-.39 2.59.27 3.36 1.02 1.71 1.7 3.38 2.31 5.67 1.4 2.31-.93 3.93-.16 5.81 1.65 1.61 1.54 4.33 1.93 7 3.01 0 4.84.07 10.08-.04 15.31-.04 1.91-4.39 5.02-7.45 5.38-2.7.32-5.43.9-7.03-2.63-.63-1.39-2.6-2.69-4.18-3.02-6-1.28-10.61-4.52-14.39-9.14-1.6-1.95-3.5-2.87-6.09-2.75-4.99.23-9.21-1.04-12.65-5.24-2.98-3.64-7.34-2.96-10.25.86-2.64 3.47-4.68 6.79-2.42 11.62.88 1.87-.35 4.95-1.12 7.32-1.22 3.76-1.4 3.7.41 7.34-2.58 1.22-2.62 3.36-2.64 6.02-.02 3.13-1.44 6.23-1.86 9.39-.29 2.18-.17 4.51.23 6.68.48 2.58 1.84 5.03 2.12 7.61.43 3.96 1.98 6.8 5.8 8.18.21-.13.51-.21.56-.36 1.03-3.48 3.12-4.22 6.55-3.11 5.66 1.83 11.43 1.75 17.07-.33 3.81-1.41 7.37-.66 11.05.71 3.66 1.36 7.32 3.69 11.5 1.47.18-.09.48-.13.65-.05 6 2.92 12.45 5.23 17.78 9.08 2.4 1.74 2.61 6.54 3.75 9.98.34 1.03.12 2.37.71 3.17 3.96 5.5 2.56 10.76-.25 16.15-.86 1.65-1.14 3.6-1.7 5.41-.81 2.64-2.24 4.12-5.37 3.75-5.88-.7-11.81-1.08-17.71-1.61-.67-.06-1.73 0-1.92-.36-1.84-3.54-5.86-2.69-8.53-4.39-2.4-1.53-4.45-3.61-6.61-5.49-2.48-2.17-4.63-4.88-7.42-6.49-7.4-4.27-14.47-8.84-20.15-15.37-2.42-2.78-6.94-1.98-8.92 1.2-1.31 2.11-1.56 3.86-.89 6.63 1.97 8.21 2.94 16.67 4.24 25.04.09.61-.29 1.28-.39 1.93-.55 3.48-2.14 7.19-1.42 10.39 2.62 11.64-.08 22.55-2.78 33.69-2.08 8.59-7.38 14-14.97 18.67-.15-5.79-2.64-10.75-.89-16.61 1.44-4.8.88-10.19 1.31-15.31.74-8.9 1.83-17.78 2.24-26.7.19-4.06-.9-8.17-1.39-12.26-.11-.87-.47-1.84-.21-2.59 1.41-4 .76-7.9-.15-11.87-.47-2.05-.96-4.24-.73-6.29 1.17-10.46-.17-20.74-1.77-31.02-.29-1.87-.33-3.79-.39-5.69-.17-3.85-.35-7.72 3.14-10.12zm-1.23-132.05c-1.74 2.35-3.11 4.19-4.53 6.11 3.39-.31 3.63 2.42 4.02 4.84 3.23.29 8.3-3.97 7.53-6.44-1.09-3.5-1.46-7.6-5.78-9.16 3.88-3.43 4.41-4.05 3.57-6.14-.53-1.31-1.83-2.32-2.48-3.09-2.88 2.44-5.16 4.37-7.51 6.37.23.46.67 1.3 1.09 2.11-5.91 3.58-11.52 7.3-15.65 6.77 3.08-1.15 9.4 4.1 15.49-.13-.64-.8-1.1-1.39-1.91-2.4 2.13.41 3.65.69 6.16 1.16zm59.3 175.05c2.05-.35 3.65-.63 5.95-1.03-4.41-2.07-6.62-4.7-4.24-8.87-3.39-1-6.52-1.92-10.03-2.95-2.27 1.79-1.08 7.27-6.48 7.61 3.21.85 6.13 1.18 9.05 1.46 2.51.25 5.45-.3 5.75 3.78zm-101.65-187.8c.98 2.28-.76 5.25 2.48 6.04.35.08 1.3-2.3 2.24-4.03 1.04.31 3.25.28 4 1.32 2.99 4.14 6.93 1.97 10.56 2.54-.49-1.29-1.01-2.18-1.15-3.13-.62-4-2.3-5.37-6.47-4.77-3.73.53-7.43 1.28-11.66 2.03zm34.76 27.53c-2.52-1.49-5.07-1.9-6.44.69-1.41 2.65-3.02 3.52-5.8 2.43-.63-.25-1.44-.04-2.45-.04 1.3 2.54 2.48 4.79 3.62 7.06 2.11 4.19 4.82 4.96 9.71 2.18-2.54-.57-4.55-1.02-6.79-1.51 1.39-1.04 2.5-1.87 3.58-2.69-.67-.81-1.2-1.43-1.81-2.16 1.59-.46 2.91-.85 4.71-1.37-1.36-.83-2.28-1.4-3.51-2.16 1.28-.59 2.08-.95 2.88-1.33.76-.35 1.53-.73 2.3-1.1zm59.09 158.93c-.46 1.29-.74 2.14-1.06 2.96-.33.83-.79 1.61-1.04 2.45-.79 2.73.52 5.36 2.68 5.2 3.95-.28 7.89-.77 11.84-1.17-3.66-1.6-6.4-3.76-6.84-7.99-1.48.73-2.55 1.26-3.71 1.83-.61-1.08-1.15-2.02-1.87-3.28zm-13.54-142.2c3.56-3.35 4.06-8.56 1.21-11.77-.79-.89-2.02-1.4-3.63-2.46.59 1.71.89 2.59 1.21 3.53-2.4.69-4.59 1.31-7 2 3.02 2.93 8.27 3.22 8.21 8.7zm-57.99-92.19c-.58 3.8-2.92 4.49-5.98 4.29-1.89-.12-3.79-.26-5.68-.19-3.54.14-5.72 2.6-8.27 4.42.15.4.31.79.46 1.19 7.24-1.6 14.48-3.2 22.04-4.87-1.03-1.94-1.8-3.39-2.57-4.84zm-17.82 100.12c-1.26 1.67-2.03 3.75-3.22 4.04-2.77.67-5.86.74-6.59-3.65-1.87 2.26-3.3 3.98-5.18 6.26 6.03-1.18 11.49 2.74 17.56-1.64-1.34-.51-2.38-.91-3.39-1.3 1.24-1.33 1.9-2.04 2.66-2.86-.9-.41-1.58-.73-1.84-.85zm18.13-33.61c-4.74-.1-9.32-4.41-14.4-.56 2.28 4.62 2.4 6.39 6.16 5.66-.03-6.3 5.22-3.61 8.24-5.1zm-10.81 27.14c5.65 1.82 10.86 1.16 15.93-1.38-5.28-.13-10.91-4.53-15.93 1.38zm11.8-97.23c3.71 2.19 7.88 1.34 12.46-.61-2.22-1.75-4.11-3.24-5.44-4.28-2.72 1.89-5.05 3.51-7.02 4.89zm89.74 238.8c2.69.52 4.61.77 6.47 1.28 1.55.42 3.23.85 4.46 1.79 2.27 1.74 3.18 1.98 6.09.28-5.22-2.35-9.61-7.22-17.02-3.35zm-50.63-161.96c2.42 4.64 6.54 4.83 15.18 1.06-4.92-.34-9.83-.68-15.18-1.06zm-80.38 34.7c-1.25 3.31-3.83 6.46-.38 9.78 1.39-.92 2.66-1.76 4.11-2.72-1.29-2.44-2.51-4.75-3.73-7.06zm62.89-24.65c-1.08-2.71-1.96-4.93-2.94-7.38-2.5 1.64-4.8 1.95-3.66 5.14 1.18 3.32 3.34 2.42 6.6 2.24zm19.67 1.13c-1.72-2.85-3.44-2.82-5.92-1.34-3.06 1.83-1.22 3.83-.96 6.25 2.45-1.74 4.58-3.26 6.88-4.91zm24.5-29.94c4.04.2 8.02.41 12.65.64-5.4-4.21-11.88-4.52-12.65-.64zm-35.86 3.14c.22.31.43.62.65.93 2.46-.33 4.92-.65 7.29-.97-1.1-1.62-2.12-3.12-3.41-5-1.56 1.74-3.05 3.39-4.53 5.04zm10.42-30.94c-3.56-2.53-9.36-2.45-12.34.75 3.98-.24 7.97-.49 12.34-.75zm-17.34 121.98c.05.42.1.84.15 1.25 4.9-.35 9.79-.71 14.69-1.06-4.96-.88-9.92-2.69-14.84-.19zm.49-33.29c.06.31.12.63.17.94 3.31-.4 6.62-.81 10.65-1.3-3.92-2.74-6.98-2.46-10.82.36zm21.89-61.52c-.03-.24-.06-.48-.09-.72-2.47-1.68-4.94-3.37-7.66-5.22.78 2.31.88 4.83 2.14 5.74 1.27.91 3.7.2 5.61.2zm38.56 204.07c.92-1.6 1.77-3.08 2.72-4.72-.97-.79-1.78-1.45-2.85-2.32-.87 2.49-3.32 4.54.13 7.04zm-26.19-199.8c-2.87-2.22-5.18-2.14-7.34.16-.29.31-.5 1.06-.33 1.33.21.32.94.58 1.34.47 2.08-.57 4.13-1.27 6.33-1.96zm57.5 55.73v5.71c1.8-.25 3.3-.46 5.49-.77-2.02-1.82-3.55-3.19-5.49-4.94zm-87.89 189.22c-.41.08-.82.16-1.23.24-.4 1.99-.81 3.99-1.32 6.53 1.71-.59 2.88-.99 4.45-1.54-.72-1.98-1.31-3.6-1.9-5.23zm-41.96-89.49c2.03 1.92 3.85 2.76 5.51.8.49-.57-.15-2.1-.33-3.7-2.12 1.19-3.52 1.97-5.18 2.9zm39.97-169.18c.05.26.09.52.14.78 2.42.15 4.84.3 7.95.5-1.12-1.66-1.77-2.62-2.52-3.73-2 .88-3.78 1.66-5.57 2.45zm-1.6-31.82c-.04.54-.09 1.08-.13 1.61l7.83.45c.03-.45.06-.9.09-1.36-2.6-.23-5.19-.47-7.79-.7zm93.9 93.11c-2.46-3.16-4.38-1.5-6.35-.09 2.09 3.27 4.1 1.19 6.35.09zm-1.48 5.09c-1.66-2.92-3.4-3.62-5.76-1.49 1.15 3.52 3.47 1.7 5.76 1.49zm-56.24 116.52c1.83-.55 3.11-.93 4.66-1.4-.99-1.48-1.7-2.54-2.77-4.13-.68 1.99-1.16 3.4-1.89 5.53zm-19.52-164.52c-4.61-2.72-4.66-2.71-5.61.36 1.92-.13 3.76-.25 5.61-.36z" fill="#010102"/><g fill="#fcfbfa"><path d="m385.2 377.6.6-.7c.6.4 1.3.9 1.9 1.5l-.6.7c-.8-.5-1.4-1-1.9-1.5zm.3 7.1c.6-1.4 1.1-2.9 1.5-4.5.3.1.6.3.9.4-.5 1.4-1 2.9-1.5 4.4zm.2-10.1.6-.6c.7.5 1.3 1.1 1.9 1.6l-.7.7c-.6-.6-1.2-1.2-1.8-1.7zm8.4-.8h.8v.9h1.8v.7h-1.8v1.8h-.8v-.3h-1.2v.9h3.3v2.6h-.8v-.4h-2.5c0 .3 0 .6-.1.8h3.4v.7h-3.5c0 .3-.1.6-.1.8h4v.7h-3.5c.7.9 1.9 1.3 3.6 1.5-.2.2-.4.5-.6.9-1.9-.3-3.2-1.1-3.8-2.3-.5 1.1-1.8 2-3.9 2.4-.2-.3-.4-.5-.6-.8 1.9-.4 3.1-.9 3.6-1.7h-3.2v-.7h3.5c.1-.2.1-.5.2-.8h-3.3v-.7h3.4c0-.2 0-.5 0-.8h-2.4v.3h-.8v-2.6h3.3v-.9h-1.2v.3h-.8v-1.8h-1.8v-.7h1.8v-.9h.8v.9h3.2zm-4.4 5.5h2.4c0-.3 0-.6 0-.9h-2.4zm1.2-3.1h3.2v-.8h-3.2zm4.4 2.2h-2.4v.9h2.5v-.9z"/><path d="m389.2 385.8h.9v1.5h1.9v-1.5h.9v1.5h2.7v6h1.1v.9h-11.3v-.9h1.1v-6h2.7zm.2 8.7.5.8c-1.2.6-2.5 1.3-4 1.9-.2-.3-.3-.6-.6-.8 1.6-.6 3-1.3 4.1-1.9zm-2-4.3h1.9v-2.1h-1.9zm0 3.1h1.9v-2.2h-1.9zm2.7-3.1h1.9v-2.1h-1.9zm0 3.1h1.9v-2.2h-1.9zm2.4 1.3c1.4.6 2.7 1.2 4.1 1.8l-.5.9c-1.5-.7-2.8-1.4-4.1-1.9zm2.2-6.5h-1.9v2.1h1.9zm-1.9 5.2h1.9v-2.2h-1.9z"/></g></svg>