<svg enable-background="new 0 0 400 400" viewBox="0 0 400 400" xmlns="http://www.w3.org/2000/svg"><g fill="#010102"><path d="m110.34 111.63c-3.4 5.67-4.06 12.1-5.18 18.46-.59 3.36-2.01 6.57-3.12 9.83-.96 2.8-1.94 5.61-3.08 8.34-.38.9-1.28 1.57-1.95 2.35-.48-.76-1.34-1.51-1.38-2.29-.59-10.79-1.78-21.55 1.87-32.21 1.39-4.06 1.17-8.74 1.26-13.15.02-1.26-1.29-2.76-2.37-3.69-.3-.26-2.15.95-3.04 1.76-6.21 5.61-12.35 11.3-18.61 17.06-.28-1.42-1.61-3.99-1.01-5.97 1.46-4.83 3.61-9.49 5.89-14.01 1.13-2.24 3.39-3.89 4.73-6.06 5.16-8.37 11.88-15.36 18.85-22.19 1.24-1.22 1.97-3.13 2.51-4.86 1.3-4.12 1.96-8.48 3.6-12.44 2.01-4.84 3.19-9.72 3.34-14.93.14-4.71 1.5-9 4.83-12.47 4.97 1.52 8.39 4.23 10.73 9.15 4.37 9.15 9.62 17.88 14.45 26.81.63 1.17 1 2.48 1.44 3.74 6.3 18.26 12.67 36.5 18.8 54.82.77 2.3.26 5.03.37 7.56.07 1.53-.37 3.47.39 4.51 3.5 4.76 2.85 10.09 2.96 15.44.07 3.38.71 6.82 1.67 10.07.44 1.51 2.23 2.63 2.96 3.43 6.11-10.45 12.93-20.34 17.96-31.08 9.75-20.8 23.83-38.81 35.77-58.2 4.51-7.32 9.43-14.42 14.61-21.28 1.85-2.45 4.97-4.01 7.67-5.72 2-1.26 3.43-.71 4.77 1.6 6.82 11.72 9.92 24.6 12.34 37.73.91 4.95 1.72 9.92 2.68 14.86.94 4.85 3.13 8.54 8.19 10.48 13.95 5.35 25.24 14.66 35.83 24.93 1.75 1.7 3.96 2.9 5.76 4.56 1.42 1.31 2.53 2.96 3.78 4.46-.35.49-.69.98-1.04 1.46-2.26-.85-4.72-1.38-6.73-2.63-3.98-2.49-7.95-5.09-11.48-8.16-6.97-6.07-15.66-7.67-24.49-10.47-1.78 7.93-3.74 15.49-1.42 23.32 1.17 3.96 2.62 7.84 4.05 11.72.87 2.35 1.77 4.58-.05 6.94-.37.48-.41 1.69-.06 2.18 3.81 5.4.95 11.01.97 16.44-2.34.98-3.82.4-4.49-1.7-2.44-7.64-4.85-15.28-7.21-22.94-3.14-10.23-6.23-20.48-9.34-30.73-5.05 4.14-9.88 7.98-14.52 12.02-.88.77-1.24 2.34-1.47 3.61-.71 3.82-2.95 5.57-7.34 5.43 1.66-3.5 1.36-7.53 5.6-9.68 1.45-.74 2.74-3.41 2.71-5.17-.09-5.21.96-9.91 3.61-14.4 3.95-6.71 5.71-14.02 5.44-21.83-.09-2.56.1-5.14.27-7.71.18-2.68-.03-5.02-1.5-7.6-1.06-1.87-.3-4.91 0-7.39.54-4.47-2.84-11.51-7.02-13.87-.33.36-.74.72-1.04 1.16-8.5 12.32-17.12 24.57-25.39 37.04-2.7 4.06-4.69 8.64-6.66 13.13-3.3 7.54-7.76 14.28-12.69 20.84-2.63 3.5-4.88 7.53-6.26 11.67-3.11 9.3-7.72 17.82-12.35 26.36-1.54 2.85-2.79 5.86-4.4 8.67-6.45 11.28-4.42 23.41-3.67 35.41.26 4.13.54 8.26.79 12.4.03.55.1 1.18-.12 1.65-2.81 6-1.5 12.31-1.41 18.52.08 5.37.26 10.75.69 16.1.2 2.47 1.14 4.89 1.7 7.34.22.96.67 2.05.41 2.9-.99 3.18.38 5.17 2.93 6.7 5.95 3.58 9.64 8.81 12.58 15.11 2.52 5.41 6.48 10.14 9.79 15.19 2.94 4.49 4.62 9.42 4.77 14.8.02.77-.32 2.12-.73 2.22-.81.2-2.06.01-2.66-.54-6.95-6.24-14.62-11.72-19.13-20.39-3.29-6.32-7.48-12.18-12.26-18.47-.98 3.05-2.4 6.02-2.88 9.15-2.73 17.67-5.27 35.38-7.78 53.08-.72 5.09-1.05 10.23-1.78 15.32-.55 3.84-1.8 5.41-5.82 7.54 0-3.46-.13-6.45.03-9.43.25-4.46.88-8.89 1.05-13.35.49-13.07.83-26.14 1.22-39.21.03-.89-.03-1.79-.11-2.68-.66-7.3-.48-14.45 2.55-21.35 1.58-3.61 1.46-7.41-.62-11.42-3.42 3.18-8.1 4.95-8.85 10.35-.11.81-.58 1.88-1.22 2.27-5.45 3.3-7.46 9.01-10.2 14.21-3.91 7.43-13.02 14.63-22.11 17.04 2.76-6.97 2.37-14.39 6.71-20.38 8.48-11.69 16.94-23.4 28.06-32.84.92-.79 1.55-2.19 1.83-3.42.82-3.59 1.63-7.22 1.99-10.88.3-3.1 1.54-5.27 4.32-6.55 3.35-1.55 4.97-4.18 5.35-7.81.18-1.76.64-3.53 1.24-5.21.86-2.43.45-4.5-.94-6.61-.63-.96-1.41-2.51-1.05-3.33 2.52-5.72.38-11.29.06-16.98-1.01-17.98-1.45-35.99-2.2-53.99-.07-1.71-.54-3.5-1.24-5.07-3.37-7.56-7.2-14.97-5.52-23.7.12-.62-.02-1.35-.22-1.97-4.09-12.64-7.68-25.49-12.48-37.85-3.64-9.35-7.81-18.47-10.66-28.15-.98-3.32-3.63-6.16-5.51-9.21-.56.08-1.13.16-1.69.24-.96 3.32-2.67 6.63-2.73 9.97-.13 7-1.84 13.43-4.52 19.79-.74 1.76-.38 4.02-.32 6.05.03.97.5 1.94.79 2.9 1.91 6.27 3.83 12.32 8.29 17.64 6.87 8.19 8.7 18.39 9.07 28.91.07 2.08 1.16 4.18 1.98 6.18 1.52 3.69 3.31 7.27 4.72 11 .33.86-.42 3.05-.64 3.04-1.61-.03-4.03.09-4.68-.87-5.96-8.76-12.32-17.28-15.71-27.58-1.51-4.58-4.07-8.82-6.16-13.22-.42.1-.84.21-1.27.33z"/><path d="m231.34 206.17c-1.3 3.1-.1 5.5 1.93 7.87 4.67 5.44 5.87 12.44 6.78 19.03 2.31 16.79 7.62 32.83 11.17 49.29 3.27 15.16 4.9 30.47 2.37 45.95-.18 1.08-1.18 2.03-1.8 3.05-.91-.76-2.18-1.34-2.68-2.32-3.94-7.74-6.73-16-7.27-24.59-.54-8.55-3.32-16.33-5.82-24.3-.84-2.68-.71-5.64-1.25-8.43-1.1-5.77-1.46-11.89-3.73-17.17-3.4-7.92-4.22-16.02-4.94-24.37-.53-6.08-2.18-12.06-3.19-18.11-.24-1.46-.56-3.81.19-4.36 2.26-1.67 4.8-3.99 8.24-1.54z"/><path d="m108.83 294.14c-.52-6.17-1.24-11.92-1.43-17.68-.27-8.37-.27-16.76-.1-25.14.05-2.34 1.16-4.64 1.68-6.98.31-1.39.62-2.84.56-4.25-.65-14.35 2.29-28.18 6.06-41.89.11-.41.38-.78.55-1.12 7.93.07 14.38 6.4 15.24 15.02.34 3.43.63 6.92-1.66 9.98-.44.59-.82 1.54-.67 2.2 1.19 5.29-2.13 9.12-4.07 13.43-.93 2.06-1.31 4.38-1.86 6.6-.56 2.27-1.07 4.55-1.51 6.84-1.01 5.22-1.98 10.46-2.96 15.69-.37 1.97-.4 4.09-1.2 5.86-2.1 4.67-3.18 9.45-3.09 14.58.05 3.2-1.62 5.5-5.54 6.86z"/><path d="m285.19 240.53c5.73 9.97 8.45 19.38 3.69 29.8.1.18.15.46.31.55 4.91 2.72 5.18 7.49 5.73 12.32 1.47 12.85 4.82 25.49 3.96 38.59-.34 5.23-.53 10.46-.78 15.56-5.16 1.42-5.44 1.18-6.27-3.3-1.44-7.75-2.59-15.42-5.88-22.87-2.77-6.28-3.28-13.62-4.38-20.56-1.64-10.33-3.48-20.69-4.08-31.1-.24-4.24 2.41-8.7 4.01-12.96.68-1.84 2.05-3.42 3.69-6.03z"/><path d="m95.09 160.95c4.14 3.13 3.46 6.91 2.52 10.6-.68 2.64-.54 6.14-5.16 6.14.86-5.45 1.73-10.92 2.64-16.74z"/></g><path d="m385.2 377.6.6-.7c.6.4 1.3.9 1.9 1.5l-.6.7c-.8-.5-1.4-1-1.9-1.5zm.3 7.1c.6-1.4 1.1-2.9 1.5-4.5.3.1.6.3.9.4-.5 1.4-1 2.9-1.5 4.4zm.2-10.1.6-.6c.7.5 1.3 1.1 1.9 1.6l-.7.7c-.6-.6-1.2-1.2-1.8-1.7zm8.4-.8h.8v.9h1.8v.7h-1.8v1.8h-.8v-.3h-1.2v.9h3.3v2.6h-.8v-.4h-2.5c0 .3 0 .6-.1.8h3.4v.7h-3.5c0 .3-.1.6-.1.8h4v.7h-3.5c.7.9 1.9 1.3 3.6 1.5-.2.2-.4.5-.6.9-1.9-.3-3.2-1.1-3.8-2.3-.5 1.1-1.8 2-3.9 2.4-.2-.3-.4-.5-.6-.8 1.9-.4 3.1-.9 3.6-1.7h-3.2v-.7h3.5c.1-.2.1-.5.2-.8h-3.3v-.7h3.4c0-.2 0-.5 0-.8h-2.4v.3h-.8v-2.6h3.3v-.9h-1.2v.3h-.8v-1.8h-1.8v-.7h1.8v-.9h.8v.9h3.2zm-4.4 5.5h2.4c0-.3 0-.6 0-.9h-2.4zm1.2-3.1h3.2v-.8h-3.2zm4.4 2.2h-2.4v.9h2.5v-.9z" fill="#fcfbfa"/><path d="m389.2 385.8h.9v1.5h1.9v-1.5h.9v1.5h2.7v6h1.1v.9h-11.3v-.9h1.1v-6h2.7zm.2 8.7.5.8c-1.2.6-2.5 1.3-4 1.9-.2-.3-.3-.6-.6-.8 1.6-.6 3-1.3 4.1-1.9zm-2-4.3h1.9v-2.1h-1.9zm0 3.1h1.9v-2.2h-1.9zm2.7-3.1h1.9v-2.1h-1.9zm0 3.1h1.9v-2.2h-1.9zm2.4 1.3c1.4.6 2.7 1.2 4.1 1.8l-.5.9c-1.5-.7-2.8-1.4-4.1-1.9zm2.2-6.5h-1.9v2.1h1.9zm-1.9 5.2h1.9v-2.2h-1.9z" fill="#fcfbfa"/></svg>