<svg enable-background="new 0 0 400 400" viewBox="0 0 400 400" xmlns="http://www.w3.org/2000/svg"><g fill="#010102"><path d="m129.47 374.81c-.74-3.8-2.59-6.58.47-9.89 2.04-2.2.6-5.58-1.5-7.55-2.73-2.56-3.31-5.42-3.24-8.97.2-9.85.07-19.7.07-29.55 0-.9-.34-2.07.1-2.64 2.77-3.6.63-7.34.69-11.04.11-6.58.99-13.14 1.38-19.72.08-1.33-.23-3.02-1.03-4-1.94-2.37-2.19-4.85-2.05-7.78.35-7.47.55-14.97.42-22.44-.41-23.27 1.25-46.36 7.55-68.8 2.42-8.62 5.72-17.6 10.93-24.72 9.66-13.19 16-28.12 24.56-41.82 1.27-2.04 1.19-3.73.33-5.91-4.11-10.46-10.75-18.95-19.27-26.16-1.62-1.37-2.95-3.36-3.79-5.33-3.11-7.3-5.96-14.71-8.9-22.08-.44-1.1-.8-2.24-1.41-3.99 12.31 11.83 22.05 25.23 34.92 35.49.42-.1.84-.21 1.26-.31 0-5.54-.15-11.09.03-16.62.41-12.96 1-25.92 1.48-38.88.13-3.5 2.09-5.44 5.39-6.69 2.95 3.55 4 7.8 4.58 12.06 1.92 14.19 3.6 28.4 5.38 42.61.14 1.11.09 2.35.59 3.28.67 1.26 1.67 3.07 2.74 3.22 1.49.21 3.8-.39 4.66-1.5 11.03-14.29 25.37-25.25 37.84-38.08.14-.14.39-.19.59-.27.82 2.94-.94 9.35-3.44 11.38-4.08 3.3-7.44 6.99-8.89 12.23-.33 1.2-1.44 2.23-2.32 3.22-10.35 11.62-20.77 23.17-31.02 34.89-1.16 1.33-1.63 3.47-1.91 5.31-.28 1.85.38 3.84.1 5.68-1.23 8.08 3.05 13.06 9.09 17.37 12.65 9.02 24.76 18.9 39.3 24.86 5.37 2.2 8.53 6.32 11.27 10.98 1.3 2.2 2.42 4.56 3.25 6.97 1.88 5.49 4.41 10.58 7.12 15.72 2.99 5.67 3.88 12.46 5.63 18.78.5 1.82.31 4.06 1.34 5.45 3.75 5.1 4.11 10.97 4.59 16.87.18 2.23.51 4.45.56 6.69.02 1.08-.45 2.17-.69 3.26-.41.08-.81.16-1.22.24-2.86-5.59-6.19-11-8.49-16.81-7.11-17.96-13.89-36.06-20.65-54.16-1.29-3.45-3.07-5.85-6.91-6.38-1.96-.27-3.09.09-3.53 2.32-.63 3.17-1.64 6.27-2.52 9.39-1.21 4.29-3.15 8.08-7.05 10.66-.84.55-1.37 1.71-1.82 2.69-1.57 3.46-3.06 6.95-4.56 10.45-2.57 6-2.76 6.19-9.65 9.02 1.29-4.71.21-9.39 4.29-13.34 2.63-2.55 4.07-6.68 5.18-10.36 2.09-6.94 3.59-14.06 5.26-21.12.72-3.03.39-5.66-2.82-7.36-3.84-2.03-7.57-4.28-11.31-6.48-4.77-2.81-10.18-4.98-11.45-11.36-.11-.57-.69-1.18-1.21-1.52-5.3-3.51-10.63-6.97-16.17-10.59-1.29 2.22-2.48 4.22-3.62 6.23-7.96 14-15.89 28.01-23.87 42-.99 1.74-2.06 3.5-3.38 4.98-4.58 5.1-5.98 10.89-5.14 17.68 1.16 9.32 1.98 18.71 2.41 28.09.28 6.23-.01 12.55-.7 18.76-1.55 13.98-.95 27.9.42 41.83.74 7.47 0 14.68-3.5 21.55-.78 1.52-.4 3.96.13 5.77 1.64 5.6 1.22 10.95-.71 16.39-2.39 6.76-.51 13.76-.59 20.64-.09 6.73-1.22 13.03-5.57 19.21z"/><path d="m221.33 226.81c4.85 5.93 4.88 12.33 5.25 18.79.69 12.08-4.35 23.2-5.32 34.96-.44 5.42-.06 10.91-.07 16.37 0 1.09.28 2.44-.24 3.21-3.87 5.76-4.25 12.39-4.86 18.94-1.21 12.93-4.13 25.36-10.79 36.64-1.88 3.18-4.43 5.96-7.13 8.74 2.32-4.39 1.02-8.65.63-13.07-.42-4.69.72-9.53 1.27-14.3.63-5.44 1.18-10.9 2.13-16.28.39-2.21 1.74-4.25 2.55-6.11-.31-2.73-1.27-5.69-.85-8.44 2.99-19.76 6.16-39.5 9.52-59.2.86-5.03 2.48-9.97 4.12-14.82.63-1.87 2.31-3.37 3.79-5.43z"/><path d="m200.74 217.32c0 1.31.17 2.66-.07 3.93-.13.72-.94 1.31-1.44 1.96-.47-.89-1.47-1.92-1.29-2.65.32-1.27 1.38-2.36 2.13-3.52.22.1.44.19.67.28z"/></g><path d="m385.2 377.6.6-.7c.6.4 1.3.9 1.9 1.5l-.6.7c-.8-.5-1.4-1-1.9-1.5zm.3 7.1c.6-1.4 1.1-2.9 1.5-4.5.3.1.6.3.9.4-.5 1.4-1 2.9-1.5 4.4zm.2-10.1.6-.6c.7.5 1.3 1.1 1.9 1.6l-.7.7c-.6-.6-1.2-1.2-1.8-1.7zm8.4-.8h.8v.9h1.8v.7h-1.8v1.8h-.8v-.3h-1.2v.9h3.3v2.6h-.8v-.4h-2.5c0 .3 0 .6-.1.8h3.4v.7h-3.5c0 .3-.1.6-.1.8h4v.7h-3.5c.7.9 1.9 1.3 3.6 1.5-.2.2-.4.5-.6.9-1.9-.3-3.2-1.1-3.8-2.3-.5 1.1-1.8 2-3.9 2.4-.2-.3-.4-.5-.6-.8 1.9-.4 3.1-.9 3.6-1.7h-3.2v-.7h3.5c.1-.2.1-.5.2-.8h-3.3v-.7h3.4c0-.2 0-.5 0-.8h-2.4v.3h-.8v-2.6h3.3v-.9h-1.2v.3h-.8v-1.8h-1.8v-.7h1.8v-.9h.8v.9h3.2zm-4.4 5.5h2.4c0-.3 0-.6 0-.9h-2.4zm1.2-3.1h3.2v-.8h-3.2zm4.4 2.2h-2.4v.9h2.5v-.9z" fill="#fcfbfa"/><path d="m389.2 385.8h.9v1.5h1.9v-1.5h.9v1.5h2.7v6h1.1v.9h-11.3v-.9h1.1v-6h2.7zm.2 8.7.5.8c-1.2.6-2.5 1.3-4 1.9-.2-.3-.3-.6-.6-.8 1.6-.6 3-1.3 4.1-1.9zm-2-4.3h1.9v-2.1h-1.9zm0 3.1h1.9v-2.2h-1.9zm2.7-3.1h1.9v-2.1h-1.9zm0 3.1h1.9v-2.2h-1.9zm2.4 1.3c1.4.6 2.7 1.2 4.1 1.8l-.5.9c-1.5-.7-2.8-1.4-4.1-1.9zm2.2-6.5h-1.9v2.1h1.9zm-1.9 5.2h1.9v-2.2h-1.9z" fill="#fcfbfa"/></svg>