<svg enable-background="new 0 0 400 400" viewBox="0 0 400 400" xmlns="http://www.w3.org/2000/svg"><path d="m50.31 323.61c10.64-2.32 19.95-1.2 29.18.62 18.05 3.56 36.19 6.67 54.63 4.81 18.01-1.82 35.96-4.4 53.91-6.8 11.63-1.55 23.28-3.1 34.81-5.22 5.02-.92 9.77-3.29 14.65-5-.04-.42-.09-.83-.13-1.25-2.76-1.59-5.43-3.38-8.3-4.74-10.08-4.8-20.18-9.55-30.36-14.11-5.58-2.49-11.18-2.5-16.61.88-2.17 1.35-4.59 2.33-6.98 3.25-2.36.9-4.46.4-5.67-2.05-1.08-2.19-1.71-4.04 1.06-5.95 3.88-2.68 3.57-6.26-.3-8.9-8.87-6.05-17.7-12.17-26.7-18.03-3-1.95-4.88-4.44-6.15-7.64-.86-2.18-1.68-4.41-2.83-6.44-2.43-4.28-5.83-4.97-10.33-3.23-10.67 4.12-18.91 11.77-27.88 18.39-11.68 8.62-22.32 18.22-31.04 29.93-4.58 6.14-11.54 8.91-19.31 8.54-1.4-4.7.09-8.96 2.26-13.06 3.82-7.23 8.15-14.08 13.64-20.24 6.85-7.68 13.16-15.84 20-23.54 3.08-3.46 6.78-6.39 10.35-9.38 5.87-4.94 11.63-10.05 17.85-14.52 11.53-8.3 23.43-16.08 35.02-24.29 8.62-6.1 16.12-13.45 23-21.95-4.17-2.4-8.61-3.54-13.11-3.53-8.82.01-17.64.43-26.45.87-6.48.32-12.94 1.3-19.41 1.27-2.93-.01-6.27-1.14-8.69-2.82-12.26-8.46-21.73-19.57-26.76-33.56-1.87-5.19-.3-11.62-.3-18.3 2.54 1.06 5.07 1.66 7.07 3.03 5.62 3.87 11.09 7.97 16.46 12.18 2.91 2.27 5.86 3.78 9.67 3.98 2.47.13 5 1.05 7.3 2.08 18.53 8.31 37.81 13.74 58.13 14.98 8.67.53 17.21-.7 25.34-3.91 1.43-.57 2.88-1.71 3.73-2.99 3.58-5.39 6.94-10.94 10.57-16.71-4.88-4.56-9.78-8.87-16.14-11.14-3.11-1.11-6.13-.91-9.11.56-8.81 4.35-18.05 3.88-26.75.58-8.4-3.19-16.69-7.2-24.18-12.14-11.52-7.6-23.53-12.54-37.51-12.04-4.36.16-8.44-1.13-11.93-3.78-6.67-5.06-13.49-9.96-19.77-15.48-4.68-4.12-5.95-7.83-5.88-11.91.19-.11.4-.33.58-.31 14.69 1.37 28.04-4.65 41.98-7.48 15.3-3.11 28.65-10.49 42.16-17.65 11.31-5.99 23.11-10.85 35.55-13.76 4.41-1.03 9.32-.44 13.94.03 14.97 1.5 28.2 6.91 39.66 17.05 7.41 6.56 10.4 14.49 10.73 23.94.11 3.12.13 6.29.71 9.35.98 5.16 5.93 6.8 9.9 3.33 7.76-6.77 15.43-13.64 23.09-20.53.89-.8 1.55-1.9 2.17-2.94 3.58-6.07 7.08-12.19 10.67-18.25 2.43-4.1 3.18-4.3 7.42-1.95 1.36.75 2.57 1.77 3.78 2.75 4.26 3.45 8.52 6.9 12.73 10.43 4.24 3.56 5.18 6.98 3.4 12.25-1.16 3.44-3.06 6.18-6.02 8.58-9.13 7.37-17.94 15.15-26.91 22.73-1.52 1.28-3.13 2.53-4.88 3.46-9.48 5.03-19.03 9.92-28.53 14.93-1.25.66-2.65 1.46-3.41 2.58-10.69 15.76-19.5 32.58-28.3 49.63 3.43 1.31 6.17 1.64 9.29-.58 22.27-15.79 44.7-31.35 66.97-47.13 3.13-2.22 5.69-5.25 8.45-7.97.95-.94 1.71-2.07 2.51-3.15 4.57-6.23 10.98-11.43 10.67-20.84 10.23 4.96 21.7 5.98 27.84 16.23 1.39 2.32 2.5 4.95 3.07 7.58.59 2.71-.51 5.08-2.77 7.09-20.22 18.01-42.72 32.38-67.61 43.08-9.62 4.14-19.02 8.79-28.52 13.22.02.37.04.74.06 1.1 1.1.58 2.2 1.18 3.32 1.73 8.12 4.01 16.34 7.81 24.34 12.05 14.12 7.48 24.18 19.34 33.52 31.9 6.07 8.17 12.09 16.38 18.13 24.57 3.04 4.13 5.29 8.56 5.17 13.87-.08 3.68-2.71 6.36-6.34 6.13-3.05-.19-5.73-1.06-7.83-3.77-8.15-10.53-16.36-21.03-24.86-31.27-3.31-3.99-6.98-8.09-11.33-10.75-16.31-9.94-32.97-19.32-49.53-28.85-.8-.46-1.92-.6-2.87-.55-9.49.53-18.98 1.09-28.47 1.75-1.26.09-2.66.51-3.68 1.23-10.18 7.1-20.37 14.18-30.39 21.5-6.4 4.68-12.65 9.58-18.67 14.73-2.47 2.11-4.15 5.13-6.51 8.14 15.68 9.32 29.61 20.45 47.14 24.92 3.12.8 5.48.46 7.63-2.26 4.3-5.43 9.16-10.43 13.26-16 6.43-8.72 9.21-18.5 7.09-29.4-.49-2.5-.52-5.09-.84-8.47 7.8 3.6 16.58 3.38 22.42 10.23 2.68 3.14 5.99 5.84 8.23 9.26 3.65 5.56 4.57 11.14.93 17.78-7.14 13.01-15.47 24.79-27.58 33.6-.72.52-1.35 1.15-2.4 2.05 3.63 2.93 6.85 5.81 10.34 8.32 11.87 8.53 24.4 15.83 38.79 19.26 1.76.42 3.8.4 5.56-.03 17.38-4.22 34.73-8.52 52.06-12.93 3.45-.87 6.82-.93 9.69 1 2.28 1.53 5.62 3.96 5.55 5.89-.09 2.74-2.27 6.23-4.62 7.91-8.71 6.26-17.67 12.23-26.91 17.69-8.54 5.05-17.55 9.31-26.35 13.91-.39.2-.81.45-1.24.49-13.8 1.18-26.14 7.43-39.17 11.25-22.2 6.5-44.11 14.12-67.15 17.33-7.3 1.02-14.66 2.18-22.01 2.25-11.89.12-23.26 2.74-34.6 5.75-2.47.66-4.63.52-7.1-.27-9.97-3.18-18.53-8.31-26.08-15.69-9.28-9.06-19.25-17.42-28.96-26.04-1.24-1.11-2.87-1.8-4.03-2.98-1.39-1.46-2.46-3.19-4.08-5.33zm68.49-238.93c1.58 5.91 1.57 5.94 4.61 6.58 12.43 2.62 24.99 3.13 37.67 2.73 13.27-.42 26.55-.43 39.83-.45 2.76 0 5.52.8 8.28 1.16 7.04.92 12.77-3.19 13.44-10.05.86-8.89-.1-17.67-3.08-26.1-.98-2.77-2.68-5.43-4.6-7.69-4.19-4.93-9.93-6.24-15.87-3.97-9.38 3.59-18.76 7.17-28.08 10.92-18.16 7.32-35.65 15.96-52.2 26.87z" fill="#010104"/><g fill="#fcfbfa"><path d="m385.2 377.6.6-.7c.6.4 1.3.9 1.9 1.5l-.6.7c-.8-.5-1.4-1-1.9-1.5zm.3 7.1c.6-1.4 1.1-2.9 1.5-4.5.3.1.6.3.9.4-.5 1.4-1 2.9-1.5 4.4zm.2-10.1.6-.6c.7.5 1.3 1.1 1.9 1.6l-.7.7c-.6-.6-1.2-1.2-1.8-1.7zm8.4-.8h.8v.9h1.8v.7h-1.8v1.8h-.8v-.3h-1.2v.9h3.3v2.6h-.8v-.4h-2.5c0 .3 0 .6-.1.8h3.4v.7h-3.5c0 .3-.1.6-.1.8h4v.7h-3.5c.7.9 1.9 1.3 3.6 1.5-.2.2-.4.5-.6.9-1.9-.3-3.2-1.1-3.8-2.3-.5 1.1-1.8 2-3.9 2.4-.2-.3-.4-.5-.6-.8 1.9-.4 3.1-.9 3.6-1.7h-3.2v-.7h3.5c.1-.2.1-.5.2-.8h-3.3v-.7h3.4c0-.2 0-.5 0-.8h-2.4v.3h-.8v-2.6h3.3v-.9h-1.2v.3h-.8v-1.8h-1.8v-.7h1.8v-.9h.8v.9h3.2zm-4.4 5.5h2.4c0-.3 0-.6 0-.9h-2.4zm1.2-3.1h3.2v-.8h-3.2zm4.4 2.2h-2.4v.9h2.5v-.9z"/><path d="m389.2 385.8h.9v1.5h1.9v-1.5h.9v1.5h2.7v6h1.1v.9h-11.3v-.9h1.1v-6h2.7zm.2 8.7.5.8c-1.2.6-2.5 1.3-4 1.9-.2-.3-.3-.6-.6-.8 1.6-.6 3-1.3 4.1-1.9zm-2-4.3h1.9v-2.1h-1.9zm0 3.1h1.9v-2.2h-1.9zm2.7-3.1h1.9v-2.1h-1.9zm0 3.1h1.9v-2.2h-1.9zm2.4 1.3c1.4.6 2.7 1.2 4.1 1.8l-.5.9c-1.5-.7-2.8-1.4-4.1-1.9zm2.2-6.5h-1.9v2.1h1.9zm-1.9 5.2h1.9v-2.2h-1.9z"/></g></svg>