<svg enable-background="new 0 0 400 400" viewBox="0 0 400 400" xmlns="http://www.w3.org/2000/svg"><path d="m374.8 390.4.4-.4c.7.5 1.3 1 1.8 1.4l-.5.5c-.5-.6-1.1-1.1-1.7-1.5zm1 7.3-.6-.3c.5-1.4 1.1-2.8 1.5-4.3.2.1.4.2.6.3-.5 1.3-1 2.8-1.5 4.3zm-.4-10.3.4-.4c.4.3 1 .8 1.7 1.4l-.5.5c-.4-.5-1-1-1.6-1.5zm2.5.3h1.7v-1h.6v1h3.5v-1h.6v1h1.8v.5h-1.8v1.4h-2v1h3.2v2h-3.2v.9h3.3v.5h-3.4c0 .3-.1.6-.1.9h4v.5h-3.7c.7.9 1.9 1.5 3.8 1.7-.1.2-.2.4-.3.6-2.1-.4-3.5-1.1-4-2.1-.4 1-1.8 1.7-4 2.2-.1-.2-.2-.4-.3-.6 2.1-.4 3.4-1 3.8-1.8h-3.4v-.5h3.6c.1-.3.1-.6.2-.9h-3.3v-.5h3.4c0-.3 0-.6 0-.9h-3.2v-2h3.3v-1h-2.1v-1.4h-1.7v-.5zm1.1 3.5v1h2.7c0-.3 0-.4 0-.4 0-.1 0-.2 0-.2 0-.1 0-.2 0-.3h-2.7zm1.2-3v.9h3.5v-.9zm4.7 3h-2.6v.6.4h2.6z" fill="#fbfcfa"/><path d="m393.6 386.7h.6v1.5h2.7v6.1h1.1v.6h-11v-.6h1.1v-6.1h2.7v-1.5h.6v1.5h2.1v-1.5zm-2.7 8.8.4.6c-1.2.6-2.5 1.3-3.8 1.9-.1-.2-.2-.4-.3-.6 1.2-.6 2.5-1.2 3.7-1.9zm-2.2-6.7v2.4h2.1v-2.4zm0 3v2.5h2.1v-2.5zm2.8-3v2.4h2.1v-2.4zm0 3v2.5h2.1v-2.5zm6 6.1c-1.4-.7-2.7-1.3-3.9-1.8l.3-.6c1.5.6 2.7 1.2 3.9 1.7zm-1.2-9.1h-2.1v2.4h2.1zm-2.1 3v2.5h2.1v-2.5z" fill="#fbfcfa"/><g fill="#010106"><path d="m64.15 77.05c7.36-3.5 14.96-4.52 22.69-3.31 7.27 1.13 14.41 3.08 21.64 4.48 3.71.72 7.96 1.74 10.55-1.96 2.61-3.72.69-7.78-.83-11.51-.38-.92-1.43-1.65-2.31-2.27-7.59-5.36-16.27-7.79-25.31-9.1-10.44-1.51-14.47-9.83-15.14-18.18-.06-.76.38-1.72.9-2.33 6.53-7.8 6.6-7.75 16.79-6.03 11.44 1.93 21.47 6.64 30.09 14.47 6.04 5.48 12.96 9.47 20.95 11.53 3.02.78 5.33.59 7.18-2.29 1.81-2.82 4-5.38 5.91-8.14 3.02-4.37 9.44-6.52 14.25-4.6.47.19 1 .61 1.2 1.06 1.93 4.38 4.09 8.68 5.56 13.22.91 2.82.26 5.9-2.46 7.84-5.8 4.14-8.07 10.2-9.5 16.79-.25 1.16-.52 2.59-1.31 3.3-3.32 2.99-3.48 6.64-2.49 10.5 1.39 5.41 2.87 10.8 4.61 16.1.46 1.4 2.03 2.43 3.16 3.71 10.72-10.87 20.29-21.97 24.39-36.42 9.56.51 13.44 2.83 14.14 9.34.31 2.94-.75 6.42-2.21 9.09-6.29 11.52-14.26 21.87-23.17 31.51-3.89 4.21-6.27 9.22-6.72 15.04-.21 2.71.45 4.76 2.73 6.71 3.2 2.74 6.16 5.9 8.66 9.29 5.02 6.78 11.29 11.03 19.68 12.83 26.89 5.74 53.7 11.81 80.51 17.93 1.81.41 3.83 1.92 4.84 3.5 6.55 10.29 10.03 21.87 13.64 33.4 3.82 12.2 4.36 24.36.36 36.59-2.32 7.1-2.38 14.17-.57 21.4 3.18 12.75 3.65 25.73 1.36 38.6-2.02 11.34 2.64 20.27 8.64 28.96 2.79 4.05 6.1 7.77 8.64 11.96 1.75 2.9 2.65 6.33 3.83 9.55.98 2.66-.34 4.43-2.72 5.21-2.28.75-4.86 1.74-7.08 1.35-6.37-1.11-12.65-2.71-17.68-7.31-3.88-3.55-7.67-7.28-11.97-10.27-6.44-4.49-8.76-10.99-10.36-18.09-2.54-11.3-.97-22.49.92-33.65 1.4-8.27 3.02-16.49 4.44-24.76.27-1.6.3-3.33 0-4.92-3.09-16.7-6.09-33.42-9.54-50.05-1.12-5.41-3.03-10.77-5.37-15.78-4.26-9.15-12.47-13.77-21.83-15.6-8.84-1.73-17.92-2.56-26.93-2.94-15.85-.68-31.26-3.82-46.74-6.86-1.98-.39-4.52-.06-6.26.91-5.32 2.97-10.77 5.44-16.77 6.53-3.85.7-6.94 2.55-10.1 4.82-15.38 11.07-31.67 20.62-49.15 28-3.26 1.38-6.78 2.16-10.56 3.33-.82-3.51-1.68-6.6-2.19-9.75-.13-.83.56-2.13 1.28-2.72 14.23-11.52 27.52-24.26 44.08-32.75 4.07-2.08 7.5-5.98 10.31-9.73 1.85-2.47 2.34-6.11 2.93-9.31.95-5.14 1.47-10.36 2.28-16.33-7.2-1.86-14.59-3.9-22.04-5.67-9.89-2.35-19.95-4.07-29.67-6.94-4.42-1.3-8.57-4.29-12.2-7.29-4.46-3.68-5.92-9.03-5.69-15.06 5.17-2.01 10.58-1.85 15.72-.57 9.19 2.3 18.23 5.24 27.33 7.92 6.14 1.81 12.32 3.36 18.8 2.41 4.24-.62 4.31-.83 3.51-4.91-.8-4.06-1.68-8.11-2.27-12.2-.3-2.05-1.25-3.09-3.08-3.89-10.58-4.65-21.81-5.37-33.13-5.97-6.32-.33-12.8-.68-18.85-2.34-8.41-2.3-12.97-8.62-14.3-17.38z"/><path d="m130.5 235.56c3.02 0 5.59-.13 8.14.07.97.07 2.16.66 2.78 1.41 4.16 4.98 8.27 10 12.2 15.16.74.97.97 2.63.86 3.92-.68 7.55-2.29 15.1-2.17 22.62.24 15.44 10.89 26.73 26.07 28.93 3.07.44 5.02-.08 6.44-3.35 4.26-9.78 5.65-19.96 5.11-30.47-.5-9.73-1.14-19.48 1.3-29.03 1.34-5.25 3.24-10.36 4.84-15.41 13.24 1.82 19.8 10.44 19.11 24.78-.48 9.94-1.43 19.86-2.01 29.8-.32 5.47-.14 10.97-.55 16.43-.34 4.56 1.77 7.79 5.41 9.56s7.71 3.04 11.72 3.57c9.43 1.24 10.34 8.3 8.57 15.46-.22.91-1.28 1.77-2.16 2.35-6.16 4.05-13.11 5.53-20.34 5.98-11.48.7-22.78-.99-34-3.03-8.12-1.48-16.18-3.4-24.15-5.54-2.53-.68-5.19-2.26-6.96-4.18-4.98-5.42-9.87-10.99-14.18-16.94-7.51-10.37-9.27-22.22-8.14-34.79.88-9.79 1.16-19.64 1.7-29.47.14-2.46.26-4.9.41-7.83z"/></g></svg>