<svg enable-background="new 0 0 400 400" viewBox="0 0 400 400" xmlns="http://www.w3.org/2000/svg"><path d="m361.2 9.6.8-1c.9.7 1.9 1.4 2.9 2.3l-.9 1.1c-1-1-2-1.8-2.8-2.4zm.5 10.6c.9-2.1 1.6-4.3 2.3-6.7.4.2.8.4 1.3.6-.7 2.1-1.5 4.3-2.2 6.6zm.4-15.2.9-.9c1 .8 2 1.6 2.8 2.4l-1 1c-.9-.9-1.8-1.7-2.7-2.5zm12.5-1.2h1.2v1.4h2.7v1.1h-2.7v2.7h-1.2v-.6h-1.8v1.3h4.9v3.8h-1.2v-.5h-3.7c0 .4-.1.9-.1 1.2h5.1v1h-5.2c0 .5-.1.9-.2 1.2h6v1h-5.2c1.1 1.3 2.9 2 5.5 2.2-.4.4-.7.8-.9 1.3-2.9-.5-4.8-1.6-5.7-3.5h-.1c-.8 1.7-2.7 2.9-5.9 3.6-.2-.4-.6-.8-.9-1.1 2.8-.6 4.6-1.4 5.4-2.5h-4.8v-1h5.3c.1-.3.2-.7.2-1.2h-4.9v-1h5c0-.4 0-.8.1-1.2h-3.5v.5h-1.2v-3.8h4.9v-1.3h-1.8v.5h-1.2v-2.7h-2.7v-1h2.6v-1.4h1.2v1.4h4.7v-1.4zm-6.6 8.3h3.6c0-.4 0-.9 0-1.4h-3.6zm1.9-4.6h4.7v-1.3h-4.7zm6.6 3.2h-3.7v1.4h3.7z" fill="#fbfcfa"/><path d="m385.3 3.8h1.3v2.2h2.8v-2.2h1.3v2.2h4.1v9.1h1.7v1.3h-16.9v-1.3h1.7v-9.1h4.1v-2.2zm.4 13.1.7 1.2c-1.8.9-3.8 1.9-6 2.9-.2-.4-.5-.8-.8-1.3 2.3-1 4.3-1.9 6.1-2.8zm-3.1-6.4h2.8v-3.2h-2.8zm0 4.6h2.8v-3.3h-2.8zm4-4.6h2.8v-3.2h-2.8zm0 4.6h2.8v-3.3h-2.8zm3.7 1.9c2.1.9 4.1 1.8 6.1 2.7l-.7 1.3c-2.2-1.1-4.2-2-6.1-2.9zm3.2-9.7h-2.8v3.2h2.8zm-2.8 7.8h2.8v-3.3h-2.8z" fill="#fbfcfa"/><g fill="#010105"><path d="m241.03 225.84c-1.62 5.66-6.28 5.95-10.76 5.95-17.02-.01-32.22 6.71-47.67 12.56-.9.34-1.78 1-2.42 1.73-3.8 4.31-8.58 6.92-13.91 8.95-8.56 3.26-17.02 6.82-25.38 10.56-3 1.34-6.01 3.16-8.3 5.48-4.2 4.25-3.28 9.86 2.03 12.03 12.44 5.08 21.8 14.24 31.59 22.88 6.39 5.64 13.41 9.65 22.32 9.32 2.04-.07 3.22-.76 4.29-2.48 8.78-14.04 17.64-28.03 26.5-42.02.65-1.03 1.26-2.24 2.21-2.91 6.37-4.52 10.42-10.97 14.79-17.2 2.59-3.68 5.82-6.47 11.05-5.87 1.78 8.98 3.61 17.84 5.2 26.73.16.92-.84 2.39-1.72 3.09-10.14 8.11-20.36 16.11-30.52 24.2-.99.78-2.33 1.96-2.35 2.98-.09 5.02-3.53 8.03-6.35 11.42-2.15 2.59-4.41 5.06-4.42 8.77 0 1.87.5 3.07 2.4 3.85 4.13 1.7 8.18 3.62 12.22 5.52 3.42 1.6 4.75 4.21 3.87 7.83-.61 2.52.24 4.17 2.73 4.29 6.45.31 12.93.74 19.36.37 8.25-.47 16.48-1.57 24.69-2.62 2.13-.27 4.37-1.03 6.17-2.18 9.16-5.82 23.82-3.51 30.42 1.12 2.15 1.5 3.47 6.3 2.9 9.13-1.18 5.85-3.16 11.82-6.22 16.9-1.88 3.12-6.17 6.19-9.7 6.63-10.74 1.35-21.63 1.51-32.47 1.84-1.48.04-3.02-1.6-4.83-2.64-4.08 3.85-9.46 4.2-15.21 3.04-7.81-1.58-15.61-2.18-23.65-1.57-6.27.47-12.83-.09-18.98-1.48-8.88-2.01-17.53-1.09-26.3-.06-4.89.58-9.78 1.18-14.68 1.55-1.13.09-2.31-.75-3.48-1.09-.75-.21-1.81-.67-2.29-.35-5.3 3.5-11.12 2.62-16.88 2.18-7.12-.55-14.3-.81-21.33-1.97-6.52-1.07-11.81-4.87-15.48-10.39-4.32-6.49-8.27-13.23-12.92-20.74 1.99.35 2.92.43 3.8.69 14.93 4.48 30.12 7.74 45.7 8.57 4.25.22 8.56-1.35 12.88-1.72 5.41-.47 10.86-.64 16.29-.78 2.19-.06 4.56.81 5.72-2.05 1.21-2.99.32-8.11-1.82-9.55-4.64-3.13-9.48-5.98-13.94-9.33-3.8-2.86-7.35-6.1-10.71-9.48-3.07-3.09-5.89-6.46-8.52-9.94-2.77-3.67-6.28-5.89-10.66-7.07-1.3-.35-2.62-1.26-3.53-2.27-5.54-6.16-11.08-12.33-16.39-18.68-3.25-3.88-7.27-5.73-12.2-6.08-3.56-.25-7.11-.7-10.66-1.07-2.22-.23-3.53-1.27-3.2-3.71.01-.11-.01-.22-.02-.33-.5-7.99-.55-8.13 7.24-10.79 4.53-1.55 9.23-2.64 13.89-3.81 9.57-2.41 17.88-7.53 26.41-12.19 15.9-8.69 31.75-17.46 47.71-26.02 2.5-1.34 5.44-1.97 8.24-2.63 18.71-4.43 37.37-9.13 56.19-13.03 11.2-2.32 22.44-.75 33.46 2.37 4.24 1.2 8.66 2.55 12.99 2.51 6.7-.06 11.82 2.83 15.88 7.36 4.22 4.71 7.61 10.17 11.18 15.43.45.66.17 2.37-.41 3.05-1.29 1.51-2.95 2.73-4.54 3.96-1.63 1.25-2.97 1.35-5.04.04-1.84-1.17-4.63-.87-7.01-1.13-1.08-.12-2.37.35-3.23-.09-9.26-4.76-19.19-4.54-29.19-4.29-7.57.13-15.21.22-23.03-3.27zm-47.67 120.97c3.48-2.38 6.04-6.66 6.6-10.71.42-3.05-.73-5.04-3.74-5.69-2.27-.49-4.6-.8-6.92-1.03-1.96-.19-7.97 4.31-8.42 6.19-.09.38 0 .92.23 1.23 1.29 1.76 2.38 3.83 4.05 5.12 2.43 1.89 5.29 3.2 8.2 4.89zm66 13.7c.58 1.55 1.06 2.86 1.58 4.24 2.71-1.4 4.59-2.78 2.19-5.81-1.1.46-2.21.93-3.77 1.57z"/><path d="m90.41 124.97c1.91 0 3.56-.09 5.2.01 20.39 1.3 40.35-1.91 60.3-5.53 8.24-1.5 16.58-2.51 24.86-3.77 6.57-1 11.07-4.2 12.58-11.12 1.12-5.12 2.7-10.15 4.26-15.17.64-2.05.39-3.5-1.08-5.13-2.99-3.32-5.84-6.79-8.55-10.35-4.17-5.5-9.46-9.44-16.21-12.17-1.53 3.34-4.38 3.25-7.58 2.86-1.8-.22-3.81.23-5.57.82-18.73 6.29-37.95 8.16-57.56 6.61-4.13-.33-6.83-3.82-5.87-7.92 1.4-6.03 3.9-10.97 10.56-13.48 10.96-4.12 21.71-8.88 32.3-13.89 10.47-4.96 21.68-6.89 32.86-9 5.82-1.1 11.71-1.89 17.61-2.39 11.99-1.02 21.88 3.25 29.53 12.56 1.97 2.4 3.21 5.15 2.71 8.35-.76 4.85 2.16 8.51 3.88 12.57.52 1.22 1.19 2.46 1.34 3.74 1 8.65 1.82 17.33 2.81 25.98.86 7.5 8.16 10.71 14.32 6.25 6.07-4.4 12.19-8.75 17.96-13.52 7.49-6.2 11.67-14.04 10.26-24.15-.75-5.35-.99-10.63.65-15.95.36-1.17-1.22-2.93-2.06-4.76 3.04 0 6.22-.11 9.38.08.77.04 1.74.87 2.2 1.61 3.32 5.31 5.4 11.03 5.16 17.41-.23 6.04.04 12.16-.9 18.09-.67 4.19-3.08 8.08-4.57 12.15-1.26 3.47-3.01 6.35-6.54 8.03-1.2.57-2.12 1.94-2.93 3.11-4.63 6.73-9.13 13.55-13.8 20.25-.99 1.41-2.37 2.65-3.8 3.63-8.37 5.78-16.79 11.47-25.23 17.15-1.18.8-2.48 1.55-3.84 1.93-14.64 4.09-29.21 8.47-44 11.93-4.54 1.06-9.7-.19-14.53-.75-9.33-1.09-18.61-2.66-27.95-3.58-4.52-.44-9.15.13-13.73.26-2.46.07-5.18.94-7.33.17-8.2-2.92-16.3-6.17-24.21-9.78-1.49-.68-2.38-3.49-2.79-5.47-.46-2.36-.1-4.87-.1-7.67z"/><path d="m82.75 170.52c2.45 1.54 4.55 2.87 6.66 4.2 4.16-3.79 6.75-2.93 10.11 3.48 5.43-3 11.05-1.67 16.53-.23 12.38 3.27 24.85 6.21 37.72 4.65 13.75-1.67 27.42-4.05 41.12-6.14 1.99-.3 3.94-.83 5.94-1.08 8.67-1.08 16.51-4.22 24.09-8.56 11.54-6.61 23.4-12.65 35.07-19.04 1.82-1 3.53-2.36 4.97-3.87 7.34-7.69 14.59-15.47 21.82-23.27.88-.95 1.9-2.11 2.09-3.29.72-4.51 2.56-8.46 4.92-12.32 3.91-6.4 4.36-13.66 3.74-20.8-.39-4.51.85-7.46 4.47-9.76.84-.53 1.56-1.26 2.64-2.14 3.27 3.82 5.38 8.16 5.38 13 0 4.62-.45 9.44-1.8 13.83-3 9.73-6.61 19.27-6.21 29.69.02.44.09 1.01-.14 1.32-3.77 5.24-6.71 11.57-11.6 15.41-8.1 6.36-15.39 13.16-21.43 21.47-1.64 2.26-4.05 4.13-6.46 5.61-6.38 3.93-13.11 7.29-19.39 11.36-6.17 3.99-12.76 6.32-20.01 6.94-3.34.29-6.21 1.37-8.61 3.89-.89.94-2.48 1.61-3.79 1.7-16.02 1.05-31.62 4.36-47.19 8.1-3.46.83-7.49-.49-11.23-1.06-5.95-.9-11.85-1.48-17.93-1.53-10.79-.1-21.14-2.82-30.55-8.62-4.45-2.74-9.29-4.86-14.01-7.15-6.26-3.09-8.8-8.23-6.92-15.79z"/></g></svg>