<svg enable-background="new 0 0 400 400" viewBox="0 0 400 400" xmlns="http://www.w3.org/2000/svg"><path d="m173.05 63.79c1.83 3.75 3.79 6.59 4.63 9.72 3.86 14.26 10.56 26.96 19.89 38.35 1.35 1.64 2.5 3.44 3.75 5.15.11.15.36.19 1.34.69.91-5.25 1.88-10.23 2.61-15.25 1.06-7.27.52-14.47-1.01-21.67-.57-2.69-.31-5.54-.52-8.32-.07-.93-.26-1.92-.65-2.76-4.12-8.88-8.7-17.58-12.32-26.66-2.39-6-1.87-12.32 2.36-18 3.18.81 3.94 3.13 4.29 5.98.75 6.19 1.65 12.37 2.61 18.53.18 1.17.64 2.47 1.39 3.34 7.27 8.46 9.48 18.91 11.18 29.38.99 6.12.72 12.44.96 18.68.03.75-.13 1.6-.48 2.26-2.1 3.99-2.13 3.98 1.93 6.39 7.76-11.26 15.53-22.54 23.39-33.94 2 3.62.56 10.66-2.04 13.17-2.11 2.04-3.76 4.57-5.62 6.88-2 2.48-3.99 4.97-6.02 7.44-.91 1.11-2.07 2.05-2.82 3.25-3.23 5.24-6.46 10.48-9.41 15.87-.76 1.38-.99 3.41-.66 4.96 1 4.7 2.29 9.34 3.68 13.94.57 1.88 1.42 3.77 2.58 5.34 6.3 8.56 13.03 16.83 19.04 25.59 4.99 7.28 9.69 14.72 15.86 21.11.97 1 1.29 2.59 2.07 3.81 1.91 2.98 4.05 5.82 5.83 8.88.81 1.39 1.61 3.24 1.38 4.72-1.28 8.28-2.32 16.67-4.5 24.73-2.71 10.03-3.41 20.42-7.09 30.34-2.53 6.82-2.34 14.73-2.89 22.19-.59 8.01-.44 16.08-.97 24.1-.22 3.33-1.34 6.6-2.05 9.89-.46-.01-.93-.03-1.39-.04-.36-1.41-1.03-2.82-1.03-4.23 0-7.82.14-15.63.3-23.44.04-2.23.56-4.48.41-6.69-1.04-15.6 2.54-30.7 4.96-45.91 1.35-8.5 2.56-17.08 4.82-25.36 2.25-8.27-.74-14.37-5.96-20.06-2.12-2.31-4.41-4.45-6.63-6.66-5.35-5.3-10.25-10.93-13.5-17.83-.62-1.31-1.11-2.95-2.18-3.73-5.54-4.03-7.32-10.4-10.44-15.95-1.91-3.39-3.9-3.57-7.18-1.39-4.8 3.19-8.97 6.89-12.08 11.87-1.15 1.84-3.49 3-5.43 4.26-1.49.96-3.26 1.48-4.8 2.39-4.47 2.65-6.07 5.09-5.33 10.68 1.72 12.85 3.21 25.74 4.13 38.66.4 5.66-.81 11.44-1.29 17.16-.51.05-1.02.1-1.53.14-.48-1.68-1.09-3.34-1.42-5.05-.6-3.06-1.01-6.16-1.55-9.24-1.25-7.14-2.58-14.27-3.76-21.43-.25-1.51-.36-3.24.13-4.64 1.59-4.55.33-8.87-.84-13.14-1.23-4.48-4.31-5.08-8.11-2.42-6.17 4.3-9.54 9.88-10.61 17.42-.61 4.26-2.96 8.27-4.66 12.77 2.33 1.51 1.66 4.15 1.28 7.01-.72 5.41-1.07 10.88-1.37 16.33-1.21 22.34-2 44.72-3.67 67.03-.68 9.08-3.77 17.97-4.75 27.05-1.14 10.51-2.87 20.85-5.55 31.05-.36 1.37-.28 2.89-.18 4.33.18 2.41.15 4.62-1.81 6.49-.61.58-.52 1.85-.88 2.75-.33.83-.84 1.6-1.77 2.22.34-7.03-1.54-14.09 1.42-20.8.22-.49.23-1.08.26-1.63.51-9.47.99-18.94 1.51-28.4.22-4.02.42-8.05.82-12.05 2.71-27.35 5.61-54.68 8.16-82.04.92-9.91 1.01-19.89 1.59-29.83.09-1.6.68-3.22 1.28-4.73.57-1.45 1.5-2.74 2.19-4.15 5.62-11.49 14.3-19.38 26.46-23.78 4.85-1.76 9.34-4.71 13.66-7.62 1.88-1.26 2.74-3.93 4.37-5.68 1.31-1.4 2.96-2.58 4.65-3.51 5.54-3.02 8.3-9.06 7.76-15.31-.55-6.44-2.68-10.48-8.87-14.13-8.85-5.21-15.32-13.6-18.61-23.81-2.36-7.31-4.85-14.6-6.86-22.01-.64-2.35-.05-5.08.23-7.61.1-.92.96-1.75 1.93-3.39z" fill="#010102"/><g fill="#fcfbfa"><path d="m385.2 377.6.6-.7c.6.4 1.3.9 1.9 1.5l-.6.7c-.8-.5-1.4-1-1.9-1.5zm.3 7.1c.6-1.4 1.1-2.9 1.5-4.5.3.1.6.3.9.4-.5 1.4-1 2.9-1.5 4.4zm.2-10.1.6-.6c.7.5 1.3 1.1 1.9 1.6l-.7.7c-.6-.6-1.2-1.2-1.8-1.7zm8.4-.8h.8v.9h1.8v.7h-1.8v1.8h-.8v-.3h-1.2v.9h3.3v2.6h-.8v-.4h-2.5c0 .3 0 .6-.1.8h3.4v.7h-3.5c0 .3-.1.6-.1.8h4v.7h-3.5c.7.9 1.9 1.3 3.6 1.5-.2.2-.4.5-.6.9-1.9-.3-3.2-1.1-3.8-2.3-.5 1.1-1.8 2-3.9 2.4-.2-.3-.4-.5-.6-.8 1.9-.4 3.1-.9 3.6-1.7h-3.2v-.7h3.5c.1-.2.1-.5.2-.8h-3.3v-.7h3.4c0-.2 0-.5 0-.8h-2.4v.3h-.8v-2.6h3.3v-.9h-1.2v.3h-.8v-1.8h-1.8v-.7h1.8v-.9h.8v.9h3.2zm-4.4 5.5h2.4c0-.3 0-.6 0-.9h-2.4zm1.2-3.1h3.2v-.8h-3.2zm4.4 2.2h-2.4v.9h2.5v-.9z"/><path d="m389.2 385.8h.9v1.5h1.9v-1.5h.9v1.5h2.7v6h1.1v.9h-11.3v-.9h1.1v-6h2.7zm.2 8.7.5.8c-1.2.6-2.5 1.3-4 1.9-.2-.3-.3-.6-.6-.8 1.6-.6 3-1.3 4.1-1.9zm-2-4.3h1.9v-2.1h-1.9zm0 3.1h1.9v-2.2h-1.9zm2.7-3.1h1.9v-2.1h-1.9zm0 3.1h1.9v-2.2h-1.9zm2.4 1.3c1.4.6 2.7 1.2 4.1 1.8l-.5.9c-1.5-.7-2.8-1.4-4.1-1.9zm2.2-6.5h-1.9v2.1h1.9zm-1.9 5.2h1.9v-2.2h-1.9z"/></g></svg>