<svg enable-background="new 0 0 400 400" viewBox="0 0 400 400" xmlns="http://www.w3.org/2000/svg"><path d="m86.46 64.55c4.77-.63 7.54 1.61 9.99 4.86 2.35 3.12 5.27 5.81 7.65 8.91 9.31 12.11 22.04 17.47 36.8 17.57 10.11.07 20.23-1.54 30.36-2.27 2.64-.19 3.89-1.76 4.27-3.94.41-2.39.68-4.92.35-7.29-1.59-11.43-6.26-21.8-10.97-32.23-2.9-6.42-6.73-11.29-13.14-14.41-4.8-2.33-5.75-5.54-4.08-10.9 2.53.69 5.15 1.21 7.63 2.11 9.61 3.47 18.78 7.81 26.87 14.17 3.15 2.48 5.31 5.51 6.54 9.47 3.31 10.67 7.04 21.21 10.4 31.86.75 2.38 2.12 3.55 4.28 3.22 4.61-.71 9.45-1.1 13.67-2.87 16.47-6.92 32.77-14.25 49.07-21.58 8.77-3.94 17.47-8.03 26.04-12.38 2.83-1.43 5.39-.93 7.01.82 1.35 1.47 2.18 4.44 1.7 6.37-1.05 4.27-3.19 7.9-6.89 11.05-12.82 10.91-28.2 17.11-43.02 24.4-15.04 7.4-30.08 14.82-45.17 22.12-2.19 1.06-3.2 2.22-3.07 4.78.66 13.13-.39 26.14-3.48 39.25 6.04 1.73 11.82 1.3 17.47.1 14.2-3.01 27.81-7.89 40.12-15.59 5.21-3.26 9.33-8.29 13.93-12.52 3.35-3.08 7.06-5.43 11.65-6.24 4.64-.81 5.61-.33 7.14 4.12 2.22 6.49.7 12.83-1 19.12-.24.87-1.21 1.56-1.88 2.3-15.71 17.22-35.36 26.58-58.37 29.21-14.11 1.61-28.23 3.04-42.33 4.75-3.77.46-7.76 1-10.57 4.97 5.82 1.93 11.31 3.65 16.72 5.61 1.59.58 3.34 1.54 4.31 2.85 2.92 3.95 6.7 6.12 11.33 7.71 38.57 13.26 77.06 26.75 115.58 40.14 3.38 1.17 6.96 1.86 10.17 3.37 2.87 1.34 5.68 3.16 7.91 5.39 2.31 2.32 2.85 5.64 1.51 8.77-1.12 2.61-5.65 4.44-8.99 3.98-9.23-1.27-18-4.13-26.77-7.22-18.54-6.54-37.17-12.83-55.9-18.82-9.45-3.02-19.37-4.61-28.74-7.83-12.47-4.28-24.74-9.33-35.67-16.86-3.75-2.58-6.97-6.22-9.69-9.92-3.63-4.94-6.54-10.41-9.77-15.64-.57-.92-1.22-1.79-2.33-3.4-3.3 12.25-12.96 18.57-20.68 26.56-4.23 4.38-7.8 9.4-11.49 14.27-1.51 1.99-.78 3.38 1.6 4.6 12.03 6.19 23.97 12.54 35.86 18.99 1.43.78 2.78 2.24 3.49 3.71 2.42 5.03 4.52 10.21 6.77 15.32 1.8 4.07 4.48 7.31 9.04 8.24 1.11.22 2.9-.27 3.6-1.1 5.92-7.01 11.72-14.13 17.39-21.34 1.03-1.31 1.56-3.17 1.9-4.86.86-4.26 1.48-8.56 2.21-12.94 5.09-.44 9.66-.56 13.92 3.14 3.49 3.04 7.86 5.1 11.92 7.45 6.42 3.71 9.13 9.97 7.15 17.1-.19.7-.58 1.48-1.12 1.93-6.75 5.7-13.5 11.41-20.34 17.01-5.7 4.66-12.14 7.91-19.36 9.58-1.93.45-3.82 1.25-5.61 2.14-2.37 1.17-3.87 3.16-3.73 5.89.24 4.56.37 9.17 1.11 13.67.87 5.35 1.04 10.45-1.98 15.45 2.27 1.37 5.02 2.28 3.81 5.92-.97 2.91-3.42 3.44-5.7 3.89-.93.18-2.43-1.11-3.26-2.09-7.67-9.01-12.98-19.54-16.05-30.71-4.99-18.16-16.7-31.32-29.48-44.01-5.16-5.12-10.17-10.39-15.33-15.51-1.49-1.49-3.1-2.95-4.9-4.02-5.38-3.17-6.93-2.75-11.52 1.46-12.96 11.89-26.28 23.36-41.91 31.71-6.57 3.51-13.57 5.77-21.9 4.16.74-4.59 1.71-9.04 2.13-13.53.73-7.83 4.58-12.88 11.39-17.03 12.4-7.56 24.1-16.26 36.24-24.28 4.27-2.82 7.97-6.06 10.9-10.24 3.3-4.69 7.27-8.68 11.91-12.13 6.32-4.69 11.21-10.55 13.14-19.44-4.86 0-9.48.11-14.1-.02-7.78-.22-15.36-1.39-22.29-5.28-.49-.27-1.08-.44-1.46-.82-3.38-3.47-7.75-5.08-12.15-6.73-2.92-1.09-5.32-2.84-6.07-7.11 2.82.29 5.53.07 7.86.9 6.99 2.49 14.13 3 21.46 2.87 17.34-.32 34.69-.39 52.03-.68 1.96-.03 4.01-.55 5.86-1.26 3.3-1.27 5.32-3.46 5.92-7.34 1.28-8.27 3.09-16.45 4.69-24.67.04-.22.14-.43.17-.65 2.34-13.29-2.31-17.3-16.4-15.81-5.66.6-11.14 3.17-16.64 5.03-13.76 4.67-25.94 1.05-37.35-6.89-1.19-.83-2.36-1.71-3.47-2.65-5.11-4.32-9.14-9.06-10.41-16.17-1.21-6.75-3.7-13.3-5.96-19.82-1.54-4.41-2.24-8.78-1.45-13.3z" fill="#010104"/><path d="m103.19 302.33c6.6 3.81 13.26 7.22 19.46 11.32 13.89 9.18 27.3 19.09 42.88 25.45 18.13 7.4 36.97 11.58 56.52 10.94 12.15-.39 24.25-2.39 36.37-3.64 14.9-1.54 29.8-3.14 44.72-4.54 7.75-.72 12.7 4.08 12.25 11.82-.09 1.55-1.03 3.44-2.19 4.47-7.4 6.53-16.3 9.3-26.01 10.37-18.44 2.03-36.8 5-55.27 6.48-32.2 2.59-63.81-.51-93.24-14.9-10.11-4.94-19.97-11.18-26.34-21.18-4.85-7.63-9.52-15.38-14.23-23.1-1.53-2.51-1.63-4.87.59-7.24 1.57-1.68 2.73-3.76 4.49-6.25z" fill="#010104"/><g fill="#fcfbfa"><path d="m385.2 377.6.6-.7c.6.4 1.3.9 1.9 1.5l-.6.7c-.8-.5-1.4-1-1.9-1.5zm.3 7.1c.6-1.4 1.1-2.9 1.5-4.5.3.1.6.3.9.4-.5 1.4-1 2.9-1.5 4.4zm.2-10.1.6-.6c.7.5 1.3 1.1 1.9 1.6l-.7.7c-.6-.6-1.2-1.2-1.8-1.7zm8.4-.8h.8v.9h1.8v.7h-1.8v1.8h-.8v-.3h-1.2v.9h3.3v2.6h-.8v-.4h-2.5c0 .3 0 .6-.1.8h3.4v.7h-3.5c0 .3-.1.6-.1.8h4v.7h-3.5c.7.9 1.9 1.3 3.6 1.5-.2.2-.4.5-.6.9-1.9-.3-3.2-1.1-3.8-2.3-.5 1.1-1.8 2-3.9 2.4-.2-.3-.4-.5-.6-.8 1.9-.4 3.1-.9 3.6-1.7h-3.2v-.7h3.5c.1-.2.1-.5.2-.8h-3.3v-.7h3.4c0-.2 0-.5 0-.8h-2.4v.3h-.8v-2.6h3.3v-.9h-1.2v.3h-.8v-1.8h-1.8v-.7h1.8v-.9h.8v.9h3.2zm-4.4 5.5h2.4c0-.3 0-.6 0-.9h-2.4zm1.2-3.1h3.2v-.8h-3.2zm4.4 2.2h-2.4v.9h2.5v-.9z"/><path d="m389.2 385.8h.9v1.5h1.9v-1.5h.9v1.5h2.7v6h1.1v.9h-11.3v-.9h1.1v-6h2.7zm.2 8.7.5.8c-1.2.6-2.5 1.3-4 1.9-.2-.3-.3-.6-.6-.8 1.6-.6 3-1.3 4.1-1.9zm-2-4.3h1.9v-2.1h-1.9zm0 3.1h1.9v-2.2h-1.9zm2.7-3.1h1.9v-2.1h-1.9zm0 3.1h1.9v-2.2h-1.9zm2.4 1.3c1.4.6 2.7 1.2 4.1 1.8l-.5.9c-1.5-.7-2.8-1.4-4.1-1.9zm2.2-6.5h-1.9v2.1h1.9zm-1.9 5.2h1.9v-2.2h-1.9z"/></g></svg>