<svg enable-background="new 0 0 400 400" viewBox="0 0 400 400" xmlns="http://www.w3.org/2000/svg"><path d="m374.8 390.4.4-.4c.7.5 1.3 1 1.8 1.4l-.5.5c-.5-.6-1.1-1.1-1.7-1.5zm1 7.3-.6-.3c.5-1.4 1.1-2.8 1.5-4.3.2.1.4.2.6.3-.5 1.3-1 2.8-1.5 4.3zm-.4-10.3.4-.4c.4.3 1 .8 1.7 1.4l-.5.5c-.4-.5-1-1-1.6-1.5zm2.5.3h1.7v-1h.6v1h3.5v-1h.6v1h1.8v.5h-1.8v1.4h-2v1h3.2v2h-3.2v.9h3.3v.5h-3.4c0 .3-.1.6-.1.9h4v.5h-3.7c.7.9 1.9 1.5 3.8 1.7-.1.2-.2.4-.3.6-2.1-.4-3.5-1.1-4-2.1-.4 1-1.8 1.7-4 2.2-.1-.2-.2-.4-.3-.6 2.1-.4 3.4-1 3.8-1.8h-3.4v-.5h3.6c.1-.3.1-.6.2-.9h-3.3v-.5h3.4c0-.3 0-.6 0-.9h-3.2v-2h3.3v-1h-2.1v-1.4h-1.7v-.5zm1.1 3.5v1h2.7c0-.3 0-.4 0-.4 0-.1 0-.2 0-.2 0-.1 0-.2 0-.3h-2.7zm1.2-3v.9h3.5v-.9zm4.7 3h-2.6v.6.4h2.6z" fill="#fbfcfa"/><path d="m393.6 386.7h.6v1.5h2.7v6.1h1.1v.6h-11v-.6h1.1v-6.1h2.7v-1.5h.6v1.5h2.1v-1.5zm-2.7 8.8.4.6c-1.2.6-2.5 1.3-3.8 1.9-.1-.2-.2-.4-.3-.6 1.2-.6 2.5-1.2 3.7-1.9zm-2.2-6.7v2.4h2.1v-2.4zm0 3v2.5h2.1v-2.5zm2.8-3v2.4h2.1v-2.4zm0 3v2.5h2.1v-2.5zm6 6.1c-1.4-.7-2.7-1.3-3.9-1.8l.3-.6c1.5.6 2.7 1.2 3.9 1.7zm-1.2-9.1h-2.1v2.4h2.1zm-2.1 3v2.5h2.1v-2.5z" fill="#fbfcfa"/><g fill="#010106"><path d="m166.43 25.59c4.39.43 6.24 1.93 7.07 5.72.4 1.85.58 3.76.89 5.63.56 3.37 1.47 6.43 4.83 8.31 1.22.69 2.12 2.22 2.8 3.55 4.71 9.26 6.04 18.86 2.59 28.87-1.32 3.84-.55 8.14-3.24 11.77-1.56 2.11 1.17 6.48 3.9 7.38 11.97 3.97 22.66 1.48 32.01-6.24 0-3.04-.03-5.99.01-8.93.03-2.66-.07-5.35.27-7.97.25-1.93 1.11-3.79 1.7-5.68 2.45.77 5.75.81 7.2 2.46 3.69 4.22 6.15 9.36 6.28 15.2.09 3.92 1.06 7.52 3.36 10.68 3.67 5.05 3.58 10.51 1.44 15.96-5.59 14.19-8.31 29.5-16.94 42.62 4.11 2.93 7.88 5.71 11.75 8.36 13.03 8.91 18.75 21.74 19.94 36.99 1.43 18.39 2.25 36.86 4.33 55.17 1.19 10.49 4.42 20.75 6.61 31.14.45 2.15.63 4.42.51 6.62-.17 3.17-.16 6.19 1.54 9.06.56.95.84 2.46.52 3.48-2.12 6.68.91 12.31 3.67 17.85 6.84 13.69 16.93 24.91 27.67 35.63 1.7 1.69 3.16 3.79 4.17 5.97 1.39 2.98.91 6.5-1.54 8.33-1.82 1.35-5.34 1.83-7.46 1.02-3.74-1.44-7.56-3.6-10.34-6.44-19.3-19.63-29.75-43.78-34.97-70.46-2.49-12.72-4.92-25.46-7.37-38.19-.15-.77-.08-1.68-.48-2.27-4.43-6.55-3.54-14.17-4.24-21.42-1.38-14.25-2.28-28.55-3.75-42.8-.31-3.04-1.59-6.38-3.45-8.79-9.21-11.97-21.78-17.72-36.69-18.68-5.46-.35-10.93-.88-16.39-.83-2.89.02-6.08.5-8.58 1.83-6.4 3.4-12.67 7.05-17.81 12.39-4.84 5.02-11.29 6.4-17.97 7.25-8.41 1.08-16.77 2.6-25.17 3.79-2.3.33-4.7.37-7.02.15-5.21-.5-5.2-.61-6.32-6.85 20.28-3.47 38.3-12.1 54.15-25.7-3.02-1.79-6.12-3.93-9.47-5.55-7.44-3.6-12.4-9.55-15.79-16.76-3.61-7.67-7.47-15.39-9.67-23.51-1.46-5.36-.22-11.47-.14-17.24.02-1.45.09-2.95.48-4.32.37-1.33.87-3.04 1.88-3.68 1.67-1.06 3.52-1.17 5.3.78 3.17 3.46 6.65 6.65 10.19 9.73 1.35 1.17 3.18 2.17 4.92 2.46 8.39 1.37 16.72.57 24.97-1.28 1.84-.41 3.02-1.24 2.89-3.35-.06-1-.05-2.04.16-3.01.78-3.63-.29-6.27-3.83-7.75-1.76-.74-2.29-2.07-2.24-4 .13-5.59.03-11.19.05-16.79.01-3.53-.17-6.95 1.7-10.36 1.13-2.06.73-5 .86-7.55.15-3 .73-5.66 3.34-7.65.97-.74 1.63-2.09 2.08-3.29 1.05-2.84 1.87-5.74 2.84-8.81zm45.58 88.4c-4.92-.56-9.43-1.33-13.96-1.51-6.8-.27-13.8.84-20.39-.39-8.71-1.62-16.99-1.3-25.41.93-2.91.77-5.88 1.31-8.84 1.9-6.62 1.33-6.64 1.32-5.95 8.02.77 7.5 4.6 13.63 11.26 16.3 16.88 6.78 33.98 5.9 50.34-2.01 3.53-1.71 6.76-5.3 8.65-8.82 2.22-4.13 2.82-9.13 4.3-14.42z"/><path d="m142.42 199.42c5.26 1.98 9.11 5.49 12 9.97 5.22 8.12 8.63 16.84 8.6 26.73-.03 7.22 7.6 11.89 13.98 8.64 6.85-3.49 13.49-7.41 20.41-10.78 2.01-.98 4.67-1 6.99-.81.94.08 2.04 1.77 2.48 2.95.23.62-.58 1.98-1.29 2.55-9.73 7.9-19.5 15.75-29.34 23.52-1.76 1.39-2.83 2.72-2.08 5.04.23.73.25 1.56.2 2.33-.45 8.39 4.12 14.31 9.72 19.67 5.49 5.27 11.33 10.2 16.56 15.7 2.54 2.67 4.27 6.22 5.88 9.61.59 1.25.34 4.01-.54 4.62-1.73 1.2-4.44 2.3-6.24 1.76-3.11-.93-6.17-2.76-8.67-4.9-8.95-7.61-17.76-15.4-26.41-23.36-3.6-3.32-6.9-7.04-9.9-10.91-5.04-6.51-8.14-13.78-7.77-22.31.23-5.25-.33-10.52-.14-15.77.3-8.62-1.33-16.88-3.78-25.07-1.89-6.25-3.23-12.57-.66-19.18z"/></g></svg>