<svg enable-background="new 0 0 400 400" viewBox="0 0 400 400" xmlns="http://www.w3.org/2000/svg"><path d="m6.8 9.5c.6.3 1.3.7 2.1 1.1-.4.4-.7.8-.9 1.2-.7-.4-1.3-.8-1.8-1.1s-1.1-.6-1.6-.8c.2-.4.5-.8.7-1.2.4.2.8.5 1.5.8zm.9 6.9c-.3.6-.5 1.1-.7 1.7s-.4 1.1-.6 1.7c-.6-.4-1.1-.7-1.6-1 .7-1 1.2-1.8 1.5-2.4.3-.5.6-1.1.8-1.7.3-.6.5-1.2.8-1.8.3.3.8.6 1.3.8-.7 1.3-1.2 2.2-1.5 2.7zm.1-11c.4.3 1 .7 1.7 1.1-.5.2-.8.6-1.1 1.1-.5-.6-1-1-1.4-1.2s-.9-.6-1.5-.8c.2-.4.5-.7.9-1.1.5.3.9.6 1.4.9zm10.5 13.1c1 .4 2 .6 3.1.7-.4.4-.7.8-.8 1.3-.9-.2-1.9-.6-3-.9-1-.4-2-.9-2.8-1.6-.5.4-1.1.9-1.9 1.3s-1.9.9-3.3 1.2c-.1-.3-.5-.8-1.1-1.3 1 0 2.1-.3 3.2-.8 1.2-.5 1.9-1 2.3-1.7h-3.2c-.4 0-1 0-2 .1v-1.2c1 0 1.7.1 2 .1h3.3v-1h-2.3c-.2 0-.9 0-2 .1v-1.2c1.2 0 1.9.1 2 .1h2.3v-.8h-4.1c0-.7.1-1.2.1-1.6 0-.5 0-1.1-.1-1.8h4.1v-.7h-2.5c0-.6.1-1.1.1-1.6v-.6h-.5c-.4 0-1 0-1.8.1v-1.3c1.2 0 1.9.1 2.1.1h.2c0-.3 0-.8-.1-1.4h1.4c0 .6-.1 1-.1 1.4h3.4c0-.4 0-.8-.1-1.3h1.5c0 .4-.1.9-.1 1.3.7 0 1.5 0 2.5-.1v1.2c-1 0-1.8-.1-2.5-.1v.6c0 .3 0 .8.1 1.5h-2.5v.8h4.1c0 .7-.1 1.3-.1 1.8s0 1 .1 1.5h-4.1v.8h1.4c.8 0 1.8 0 2.9-.1v1.2c-1 0-1.9-.1-2.8-.1h-1.5v1h3.2c.3 0 1 0 2.1-.1v1.2c-1.1 0-1.8-.1-2.1-.1h-3.4l-.1.1c1.4 1 2.4 1.5 3.4 1.9zm-4.1-6.7v-1.3h-2.7v1.3zm2.2-4.1v-1.1h-3.4v1.1zm1.9 4.1v-1.3h-2.8v1.3z" fill="#fafbfa"/><path d="m37 6.7v2.3 5.4c1 0 1.8 0 2.2-.1v1.3c-.6 0-1.5-.1-2.5-.1h-11.9c-.7 0-1.3 0-1.8.1v-1.3c.5 0 1.1.1 2 .1v-5.2c0-1 0-1.8-.1-2.5h3.7c0-1.3 0-2.1-.1-2.5h1.5c0 .4-.1 1.3-.1 2.5h2.2c0-1.2 0-2.1-.1-2.6h1.5c0 .4-.1 1.3-.1 2.6zm-12.3 13.7c-.3-.4-.7-.8-1.1-1.1 1.1-.4 2.1-.9 2.9-1.3.8-.5 1.5-1 2.1-1.6.4.4.9.8 1.3 1.1-2.5 1.4-4.2 2.4-5.2 2.9zm3.9-10.1v-2.4h-2.2v2.4zm0 4.1v-2.9h-2.2v2.9zm3.5-4.1v-2.4h-2.2v2.4zm0 4.1v-2.9h-2.2v2.9zm.4 2.9 1-1.1c.6.3 1.4.7 2.5 1.3s2 1.1 2.7 1.5c-.4.4-.8.8-1.1 1.3-.8-.8-2.5-1.7-5.1-3zm3.1-7v-2.4h-2.1v2.4zm0 4.1v-2.9h-2.1v2.9z" fill="#fafbfa"/><path d="m202.56 374.54c-3.34-6.47-4.65-13.36-5.26-20.35-.87-10.03-.86-20.15-2.19-30.11-1.59-11.91-1.12-11.16-11.61-10.71-13.36.57-26.64 2.85-39.99 4.07-6.08.55-12.23.48-18.34.35-1.78-.04-3.69-.99-5.26-1.97-5.57-3.47-5.7-10.85-.32-14.4 11.69-7.71 24.76-10.5 38.54-10.79 9.67-.2 19.23-1.02 28-5.69.39-.21.79-.42 1.19-.62 4.59-2.39 7.19-5.5 6.66-11.34-.66-7.33-.31-14.77-.08-22.15.09-2.75-.96-4.26-3.1-5.68-7.9-5.21-16.73-6.95-25.98-8.03-8.83-1.03-17.85-2.19-26.23-4.96-14.83-4.91-26.75-14.75-37.53-25.78-16.84-17.22-24.49-38.27-25.45-62.12-1.13-27.97 5.29-54.22 18.13-78.84 3.49-6.7 9.3-12.2 14.16-18.39 2.22 4.53 2.73 12.8.92 19.93-1.32 5.18-3.27 10.2-4.82 15.33-2.87 9.47-4.52 19.08-4.33 29.06.34 17.83 1.6 35.56 5.58 52.97 3.64 15.96 12.36 28.84 25.29 38.85.68.53 1.52.96 2.35 1.16 12.61 2.99 25.23 5.94 37.86 8.87 5.06 1.17 10.05.6 14.85-1.14 1.2-.43 2.53-1.86 2.86-3.09 3.25-12 3.41-24.31 3.35-36.64-.04-8.27-.24-16.54.15-24.79.15-3.12 1.35-6.37 2.74-9.23 2.53-5.21 7.45-7.53 13.11-6.45 1.06.2 2.41 1.63 2.71 2.74 2.64 9.81 5.2 19.64 7.52 29.52 2.66 11.29 4.71 22.74 7.76 33.92.99 3.64 4.08 6.8 6.55 9.91 1.46 1.83 3.57 2.12 6.04 1.05 12.31-5.32 24.71-10.43 37.05-15.67 1.31-.56 2.49-1.46 3.64-2.32.99-.73 1.76-1.77 2.79-2.41 12.84-8.01 16.44-20.98 18.77-34.69 4-23.51 2.75-47.03.47-70.6-1.85-19.06-7.13-37.27-12.65-55.46-.22-.72-.34-1.47-.63-2.74 7.97 3.13 13.64 8.02 16.14 15.79 1.74 5.4 3.29 11 3.85 16.62.9 8.91 3.25 17.36 6.52 25.56 4.26 10.67 5.93 21.83 6.31 33.11.52 15.31.21 30.65.17 45.97 0 1.01-.47 2.21-1.12 2.99-4.12 5.03-6.9 10.7-8.2 17.06-1.52 7.41-5.04 13.41-10.23 19.09-7.95 8.7-16.43 16.28-27.26 21.16-4.78 2.15-9.44 4.68-13.83 7.54-5.58 3.63-11.55 4.14-17.95 4.03-3.77-.06-7.59 1.15-11.34 2-1.98.45-2.6 1.91-2.58 4.03.11 11.53.15 23.06-.02 34.59-.04 2.71 1.02 3.7 3.4 4.31 9.54 2.44 19.19 2.91 28.96 2.17 8.57-.64 17.16-1.58 25.74-1.53 10.97.06 18.78 6.96 20.98 17.26.44 2.06-.08 3.23-1.81 4.4-9.75 6.61-20.57 7.69-31.83 6.17-12.9-1.74-25.64-2.06-37.98 3.02-4.14 1.7-7.66 6.8-6.72 10.92 2.47 10.89-.9 20.58-5.63 30-4.57 9.09-10.13 17.43-19.38 22.54-.39.21-.8.34-1.46.63z" fill="#010103"/></svg>