<svg enable-background="new 0 0 400 400" viewBox="0 0 400 400" xmlns="http://www.w3.org/2000/svg"><path d="m148.05 374.65c.19-3.68.02-7.19.64-10.54.63-3.38 2.15-6.58 3.09-9.91 1.3-4.59 3.09-8.44 7.67-11.1 2.77-1.61 4.58-5.12 6.43-8.02 8.82-13.81 16.32-28.28 20.99-44.05 2.11-7.13 3.22-14.45 1.55-21.86-.36-1.62-1.3-3.34-2.48-4.51-3.74-3.7-7.59-7.3-11.65-10.64-2.48-2.03-3.54-4.55-3.88-7.49-1.45-12.67 1.06-25.01 6.03-36.34 2.5-5.69 8.01-10.74 14.57-13.17 2.15-.8 2.93-1.73 2.85-4.04-.18-5.59.05-11.2-.15-16.79-.04-1.19-.94-3.03-1.89-3.38-3.06-1.13-6.44-2.66-9.5-2.32-8.26.92-16.43 2.79-21.66-6.57-6.25 6.3-13.11 5.77-20.15 3.7-3.86-1.13-7.72-2.29-11.47-3.73-15-5.73-25.54-21.07-25.42-37.89.05-6.65 1.45-13.29 2.41-19.92.16-1.11 1.09-2.15 1.81-3.12 9.24-12.4 15.23-26.21 18.28-41.35 1.16-5.76.97-10.93-4.86-14.27-.37-.21-.62-.63-.9-.97-.06-.07-.04-.22-.09-.53 5.5-1.67 11.02-.91 16.48.06 4.18.74 8.26 2.03 12.44 2.75 5.45.93 9.07 8.3 6.51 12.81-1.75 3.09-3.47 6.19-5.29 9.24-3.08 5.16-6.79 10.04-9.21 15.48-4.89 10.98-10.1 21.66-18.02 30.86-3.33 3.87-5.51 8.44-5.95 13.61-.1 1.19.33 2.58.94 3.63 4.38 7.51 11.57 11.4 19.38 14.07 12.38 4.25 25.12 6.02 38.29 5.09 10.96-.77 12.6-5.78 11.08-14.93-1.94-11.73-8.29-21.66-14.52-31.45-2.02-3.17-5.71-5.29-8.66-7.86-5.17-4.52-5.19-4.59-2.34-12.08 3.87 1.39 8.02 2.34 11.62 4.29 8.35 4.53 16.49 9.46 24.58 14.46 1.77 1.09 3.39 2.89 4.35 4.75 5.3 10.33 10.37 20.77 15.66 31.48 8.37-2.57 16.91-4.33 24.62-7.89 4.49-2.07 7.96-6.77 11.34-10.75 4.41-5.19 8.63-10.6 12.28-16.34 5.89-9.24 5.1-18.91.41-28.45-.46-.94-1.47-1.63-2.28-2.37-9.05-8.31-20.15-12.29-31.89-14.56-6.17-1.19-11.1-4.07-15.11-8.63-5.53-6.3-11.08-12.61-16.1-19.31-1.59-2.13-1.52-5.5-2.22-8.3.35-.24.7-.48 1.06-.72 2.67.61 5.45.93 7.99 1.89 3.54 1.33 7.11 2.81 10.3 4.81 8.4 5.27 17.63 8.59 26.7 12.39 16.69 7 30.97 17.51 42.12 31.79 2.49 3.19 3.71 7.95 4.07 12.11.68 7.99.42 16.07.35 24.12-.06 6.48-2.42 11.81-7.86 15.84-11.24 8.33-22.37 16.81-33.36 25.45-5.42 4.27-11.48 6.62-18.08 8.35-4.09 1.07-7.99 3.18-11.7 5.31-2.24 1.29-2.74 3.61-1.82 6.44 2.08 6.37 3.65 12.9 5.62 19.31.41 1.34 1.48 2.72 2.63 3.55 2.63 1.89 5.38 3.69 8.29 5.07 5.12 2.43 7.32 6.76 7.23 11.9-.15 8.58-1.1 17.14-1.53 25.71-.55 11.06-5.31 19.03-15.6 23.92-4.99 2.37-10.54 5.26-13.61 9.51-2.99 4.14-3.13 10.32-4.52 15.61-.42 1.62-.98 3.23-1.21 4.88-2.04 14.94-10.08 27.32-17.02 40.17-2.02 3.74-4.18 7.4-6.06 11.21-1.87 3.77-4.07 7.13-7.78 9.39-1.07.65-1.75 1.97-2.55 3.02-2.71 3.55-5.19 7.3-8.13 10.65-3.89 4.4-8.79 7.2-16.14 7.47z" fill="#010105"/><g fill="#fcfbfa"><path d="m377.9 391.2c-.2.3-.4.5-.6.8-.7-.6-1.4-1-2.2-1.5.2-.3.4-.5.5-.8.6.4 1.4.8 2.3 1.5zm-1.8 6.1c-.2-.2-.5-.4-.9-.6.4-.6.8-1.2 1.2-1.9s.7-1.3.9-1.9c.3.3.5.5.8.7-.7 1.3-1.4 2.6-2 3.7zm2.2-9c-.3.3-.5.5-.6.8-.6-.6-1.3-1.1-2-1.5.3-.3.5-.5.6-.7.6.5 1.3.9 2 1.4zm.3.2v-.9h2 4.5c-.3 1.3-.6 2.5-1 3.6s-.9 2.1-1.4 3c.4.5 1 1 1.6 1.4s1.2.8 1.9 1.1c-.3.2-.5.4-.8.8-.4-.3-1-.7-1.6-1.2s-1.2-1.1-1.6-1.6c-.5.6-1.1 1.1-1.7 1.6s-1.4.9-2.1 1.4c-.1-.3-.3-.5-.7-.8.6-.2 1.2-.5 1.9-1s1.4-1.1 2-1.8c-.5-.8-.9-1.6-1.2-2.5s-.6-2-.8-3.2c-.4.1-.7.1-1 .1zm2.5 2.7c.3 1 .7 1.7 1 2.2.3-.5.6-1.1 1-2s.6-1.9.9-3h-3.2-.4c.1.9.3 1.8.7 2.8z"/><path d="m396.5 388.5v1.5 3.6h1.5v.9c-.4 0-1 0-1.7 0h-7.9c-.5 0-.9 0-1.2 0v-.9h1.3v-3.5c0-.7 0-1.2 0-1.6h2.4c0-.8 0-1.4 0-1.7h1c0 .3-.1.8-.1 1.7h1.5c0-.8 0-1.4 0-1.7h1c0 .3-.1.9-.1 1.7zm-8.2 9.2c-.2-.3-.5-.5-.8-.8.8-.3 1.4-.6 1.9-.9s1-.7 1.4-1.1c.3.3.6.5.9.8-1.6 1-2.8 1.6-3.4 2zm2.6-6.8v-1.6h-1.5v1.6zm0 2.7v-1.9h-1.5v1.9zm2.4-2.7v-1.6h-1.5v1.6zm0 2.7v-1.9h-1.5v1.9zm.2 2 .7-.8c.4.2.9.5 1.6.8s1.3.7 1.8 1c-.3.3-.5.5-.8.8-.4-.3-1.5-1-3.3-1.8zm2-4.7v-1.6h-1.4v1.6zm0 2.7v-1.9h-1.4v1.9z"/></g></svg>