<svg enable-background="new 0 0 400 400" viewBox="0 0 400 400" xmlns="http://www.w3.org/2000/svg"><path d="m108.55 232.81c4.57 0 9.15-.11 13.71.02 8.62.25 16.85-1.86 25.05-4.07 11.68-3.15 23.53-5.16 35.57-6.36 4.25-.43 8.42-2.03 12.53-3.37 2.28-.74 3.35-2.45 3.27-5.15-.21-6.93-.18-13.88 0-20.82.06-2.29-.73-3.78-2.74-4.33-2.65-.72-5.58-1.93-8.08-1.41-14.03 2.92-28.07 1.4-42.12.7-9.61-.48-19.21-1.07-28.8-1.75-2.18-.15-4.42-.61-6.47-1.37-13.19-4.91-26.3-10.07-39.53-14.86-3.78-1.37-6.27-3.66-7.99-7.07-5.34-10.62-6.39-21.93-4.14-33.33 1.92-9.74 4.38-19.47 7.78-28.78 2.65-7.27 6.78-14.08 10.87-20.72 3.63-5.89 8.12-11.24 12.19-16.85 8.59-11.84 17.86-23.31 20.96-38.32 9.2.24 17.72 2.28 25.53 6.69 4.99 2.82 6.56 8.95 4.14 14.07-.23.48-.53.97-.92 1.31-6.32 5.46-13.04 10.51-18.89 16.43-9.28 9.38-17.99 19.34-26.93 29.06-.6.65-1.32 1.3-1.66 2.08-4.29 10.17-8.62 20.33-12.71 30.58-2.44 6.11-3.13 12.38.29 18.45.96 1.71 1.96 3.52 3.37 4.83 8.93 8.26 19.76 12.39 31.62 14.23 6.52 1.01 12.98 2.65 19.53 3.07 5.28.33 10.65-.78 15.99-1.19 1.65-.12 3.33-.16 4.96.02 10.77 1.17 21.42 1.03 31.85-2.43 8.2-2.72 10.96-6.75 10.17-16.1-.72-8.55-2.32-17.05-3.81-25.52-2.55-14.52-4.39-29.24-10.16-42.96-3.72-8.83-8.43-16.91-18.1-20.85-6.28-2.56-7.48-5.81-5.76-12.92 3.71 0 7.5-.04 11.29.03.73.01 1.47.41 2.17.73 7.61 3.45 15.12 7.13 22.84 10.31 6.08 2.51 12.04 5.14 15.82 10.75 1.25 1.85 2.07 4.58 1.79 6.75-.77 6.04.31 11.55 2.09 17.35 3.31 10.75 5.48 21.85 8.37 32.75 1.91 7.2 4.25 14.29 6.56 21.98 10.13-5.04 20.95-6.88 29.8-13.69 6.08-4.68 12.77-8.67 19.53-12.35 10.74-5.85 17.03-14.9 21.55-25.97 3.11-7.61 2.61-14.18-.48-21.68-2.49-6.04-5.73-10.05-11.7-12.55-7.42-3.1-14.74-6.53-21.76-10.43-4.63-2.57-8.77-6.09-12.87-9.49-1.63-1.35-2.57-3.52-3.83-5.32.15-.28.3-.56.45-.83 6.78.97 13.79 1.16 20.31 3.05 14.69 4.26 29.14 9.36 43.69 14.13.64.21 1.41.29 1.87.71 9.84 8.91 20.13 17.02 20.65 32.48.37 10.92-4.11 19.37-9.77 27.37-7.74 10.95-16.53 21.16-24.95 31.62-1.01 1.25-2.47 2.27-3.9 3.03-21.89 11.7-43.79 23.37-65.75 34.95-2.06 1.08-2.76 2.32-2.87 4.6-.52 10.72-1.25 21.43-1.95 32.78 5.13.51 10.07 1.21 15.04 1.42 5.02.21 10.07-.24 15.1-.13 9.86.23 17.85 7.65 18.26 17.46.12 3.01-1.02 6.45-2.64 9.02-.96 1.52-3.99 1.74-5.7 3.02-1.1.94-2.08 2.49-3.31 2.72-5.15.99-10.36 1.66-15.57 2.3-7.55.92-15.11 1.79-22.68 2.52-1.94.19-2.84.76-3.4 2.77-5.17 18.63-10.7 37.16-15.63 55.85-1.82 6.88-2.09 14.16-3.52 21.17-1.13 5.55-2.62 11.07-4.55 16.39-1.93 5.34-4.57 10.43-6.95 15.61-1.92 4.18-4.61 7.52-9.68 7.6-.95.01-2.33-.69-2.79-1.48-1.95-3.32-2.78-7.14-1.29-10.66 7.35-17.42 7.8-36.19 10.95-54.42 2.43-14.1 4.23-28.31 6.3-42.48.7-4.75-1.03-7.34-5.91-8.03-2.95-.42-6.02-.31-9.02-.09-14.47 1.05-28.5-1.8-42.57-4.44-7.94-1.49-15.38-4.12-21.54-9.46-3.24-2.81-6.05-6.12-9.05-9.21.2-.54.41-1.03.63-1.52z" fill="#010105"/><g fill="#fcfbfa"><path d="m377.9 391.2c-.2.3-.4.5-.6.8-.7-.6-1.4-1-2.2-1.5.2-.3.4-.5.5-.8.6.4 1.4.8 2.3 1.5zm-1.8 6.1c-.2-.2-.5-.4-.9-.6.4-.6.8-1.2 1.2-1.9s.7-1.3.9-1.9c.3.3.5.5.8.7-.7 1.3-1.4 2.6-2 3.7zm2.2-9c-.3.3-.5.5-.6.8-.6-.6-1.3-1.1-2-1.5.3-.3.5-.5.6-.7.6.5 1.3.9 2 1.4zm.3.2v-.9h2 4.5c-.3 1.3-.6 2.5-1 3.6s-.9 2.1-1.4 3c.4.5 1 1 1.6 1.4s1.2.8 1.9 1.1c-.3.2-.5.4-.8.8-.4-.3-1-.7-1.6-1.2s-1.2-1.1-1.6-1.6c-.5.6-1.1 1.1-1.7 1.6s-1.4.9-2.1 1.4c-.1-.3-.3-.5-.7-.8.6-.2 1.2-.5 1.9-1s1.4-1.1 2-1.8c-.5-.8-.9-1.6-1.2-2.5s-.6-2-.8-3.2c-.4.1-.7.1-1 .1zm2.5 2.7c.3 1 .7 1.7 1 2.2.3-.5.6-1.1 1-2s.6-1.9.9-3h-3.2-.4c.1.9.3 1.8.7 2.8z"/><path d="m396.5 388.5v1.5 3.6h1.5v.9c-.4 0-1 0-1.7 0h-7.9c-.5 0-.9 0-1.2 0v-.9h1.3v-3.5c0-.7 0-1.2 0-1.6h2.4c0-.8 0-1.4 0-1.7h1c0 .3-.1.8-.1 1.7h1.5c0-.8 0-1.4 0-1.7h1c0 .3-.1.9-.1 1.7zm-8.2 9.2c-.2-.3-.5-.5-.8-.8.8-.3 1.4-.6 1.9-.9s1-.7 1.4-1.1c.3.3.6.5.9.8-1.6 1-2.8 1.6-3.4 2zm2.6-6.8v-1.6h-1.5v1.6zm0 2.7v-1.9h-1.5v1.9zm2.4-2.7v-1.6h-1.5v1.6zm0 2.7v-1.9h-1.5v1.9zm.2 2 .7-.8c.4.2.9.5 1.6.8s1.3.7 1.8 1c-.3.3-.5.5-.8.8-.4-.3-1.5-1-3.3-1.8zm2-4.7v-1.6h-1.4v1.6zm0 2.7v-1.9h-1.4v1.9z"/></g></svg>