<svg enable-background="new 0 0 400 400" viewBox="0 0 400 400" xmlns="http://www.w3.org/2000/svg"><path d="m133.04 333.55c1.33-1.23 2.37-2.2 3.54-3.29-8.6-5.98-13.19-13.48-9.56-24.52 3.21.26 6.34.13 9.09 2.78 6.95 6.7 15.63 10.65 24.37 14.77 3.19-5.76 4.9-11.87 5.04-18.07.38-17.11.21-34.22.24-51.34 0-.55.04-1.22-.23-1.64-4.4-6.58-3.23-13.91-3.12-21.16.05-3.08-.46-6.23-1.18-9.24-1.33-5.59-5.37-8.04-10.85-8.92-19.68-3.18-38.81-8.53-57.67-14.9-14.1-4.76-20.96-16.36-27.1-28.64-3.56-7.13-4.93-14.81-5.69-22.64-1.34-13.79-2.71-27.58-3.88-41.38-.14-1.61.88-3.32 1.32-4.87-.57-1.64-1.75-3.54-1.83-5.5-.48-11.38-1.02-22.78-.87-34.16.08-6.29.8-12.75 2.51-18.77.8-2.82 4.5-4.94 7.14-7.05 1.41-1.13 2.94-.55 4.45.79 1.71 1.52 3.81 2.77 5.94 3.6 6.37 2.47 7.47 4.3 6.79 11.14-1.64 16.36-3.79 32.71-4.52 49.12-.7 15.73.12 31.52.32 47.29.05 4.14.48 8.28.43 12.41-.04 2.96 1.1 5.07 3.24 6.98 6.28 5.63 13.65 9.51 21.47 12.17 13.41 4.56 26.96 8.85 40.68 12.35 4.6 1.18 9.92-.25 14.88-.82.93-.11 1.91-1.74 2.46-2.86 3.65-7.43 3.37-15.35 2.89-23.34-.71-11.72-1.5-23.44-1.59-35.17-.04-4.94 1.46-9.92 2.56-14.81.37-1.65 1.41-3.34 2.6-4.57 2.68-2.77 4.55-2.21 6.61 1.02 4.89 7.63 6.99 15.8 7.23 24.95.4 15.2 1.87 30.37 2.75 45.57.07 1.22-.75 2.67-1.54 3.72-2.75 3.66-1.9 7.25 2.52 8.9.12-1.56.23-3.05.36-4.69 13.55 8.21 28.02 5.37 42.22 3.77 5.28-.6 10.2.25 15.26.85 2.24.26 4.12.12 6.3-1.08 2.4-1.32 5.51-1.36 8.32-1.95 4-.84 8.11-1.35 11.98-2.6 4.66-1.51 9.03-3.93 13.69-5.46 13.97-4.6 22.11-14.35 26.21-28.19 3.64-12.31 5.33-24.91 6.63-37.6.56-5.45.9-10.93 1.37-16.39 1.48-17.41-1.59-34.61-2.3-51.92-.09-2.18.44-4.64 1.45-6.57 2.85-5.43 6.1-10.66 9.34-16.22 6.05 2.61 10.53 6.9 11.47 13.11 1.2 7.89 1.04 15.99 1.39 24.01.21 4.87.29 9.75.35 14.63.03 1.97.07 3.98-.24 5.92-1.41 8.71-3.49 17.35-4.25 26.12-.61 6.96.05 14.09.65 21.1.69 8.15.35 16.03-3.2 23.58-1.18 2.52-2.19 5.18-2.79 7.89-3.3 14.85-12.56 26.08-21.85 37.49-5.82 7.14-11.5 13.67-21.1 15.72-3.61.77-6.89 3.13-10.29 4.82-3.47 1.72-6.87 1.46-9.72-1-3.77-3.25-7.92-4.03-12.75-3.61-15.04 1.31-30.1 2.5-45.17 3.43-3.73.23-7.52-.84-11.3-1.08-2.07-.14-4.23-.09-6.23.38-2.48.58-3.67 2.25-3.86 5.08-.62 9.26-2.11 18.49-2.25 27.75-.14 8.46 1.22 16.93 1.58 25.42.58 13.4.97 26.8 1.26 40.21.11 4.99 2.57 7.3 7.22 5.4 3.54-1.45 7.13-3.48 9.82-6.14 4.68-4.63 8.65-9.96 12.96-14.95 2.76-3.2 5.79-6.08 10.14-7.87-1.25 13.84-4.17 26.63-12.06 37.88-6.42 9.16-12.68 18.44-19.14 27.57-.88 1.24-2.41 2.47-3.84 2.77-3.48.73-5.11 2.91-5.91 6.03-.47 1.84-.43 3.98-1.4 5.47-.88 1.35-2.7 2.42-4.32 2.87-1.73.48-3.23-.47-3.55-2.59-1.17-7.59-6.33-11.3-12.68-14.93-7.3-4.17-13.66-10-20.34-15.22-3.63-2.83-7.05-5.89-10.87-9.11zm156.62-149.09c-1.94 3.83-3.73 6.97-1.29 10.59.94 1.39 4.13 1.91 4.44.62.58-2.44.93-5.12.51-7.55-.22-1.3-2.22-2.3-3.66-3.66zm-219.28-23.78c-.05.39-.1.79-.14 1.18 1.2.18 3.09.9 3.47.43.73-.93.61-2.52 1.01-4.78-2.07 1.51-3.21 2.34-4.34 3.17z" fill="#010100"/><g fill="#fafbfa"><path d="m6.4 11.7c-1-.8-1.9-1.6-2.9-2.3l.6-.7c.9.7 1.9 1.4 2.9 2.2zm-2.1 8.3c.7-2.1 1.4-4.2 2-6.4.2.1.6.3 1 .4-.7 2.3-1.3 4.4-1.9 6.4zm3-12.8c-1.1-.9-2.1-1.7-2.9-2.4l.6-.7c1 .8 2 1.5 3 2.4zm1.4-1.3v-.9h10.2v.9c-.9 4.2-2.3 7.3-4.1 9.4 1.3 1.4 3.2 2.7 5.7 4-.2.2-.4.5-.7.9-2.5-1.4-4.4-2.7-5.7-4.2-1.4 1.5-3.5 3-6.1 4.4 0 0 0 0-.1-.1-.3-.4-.5-.7-.7-.8 2.7-1.3 4.7-2.8 6.2-4.2-1.8-2.2-3-5.3-3.7-9.4zm9.2 0h-7.1c.6 3.8 1.7 6.7 3.4 8.7 1.7-2 2.9-4.8 3.7-8.7z"/><path d="m31.6 3.6h.9v2.3h4.1v9.1h1.7v.9h-16.6v-.9h1.7v-9.1h4.1v-2.3h.9v2.3h3.1v-2.3zm-4 13.3.6.8c-1.9.9-3.8 1.9-5.8 2.8-.2-.3-.3-.6-.5-.9 2-.9 3.9-1.8 5.7-2.7zm-3.2-10.1v3.7h3.1v-3.7zm0 4.5v3.7h3.1v-3.7zm4.1-4.5v3.7h3.1v-3.7zm0 4.5v3.7h3.1v-3.7zm9.1 9.1c-2.1-1.1-4.1-2-5.8-2.7l.5-.8c2.2.9 4.1 1.8 5.8 2.6zm-1.9-13.6h-3.1v3.7h3.1zm-3.2 4.5v3.7h3.1v-3.7z"/></g></svg>