<svg viewBox="0 0 400 400" xmlns="http://www.w3.org/2000/svg"><rect width="400" height="400" fill="white" /><path d="m5.17 384 .55-.58c.85.61 1.65 1.24 2.4 1.87l-.59.64c-.83-.73-1.62-1.38-2.36-1.93m1.22 9.53-.82-.34c.71-1.76 1.37-3.64 1.98-5.63.24.13.5.25.76.36-.6 1.67-1.24 3.54-1.92 5.61m-.5-13.5.57-.54c.56.44 1.31 1.06 2.26 1.87l-.64.64c-.68-.66-1.41-1.32-2.19-1.97m3.25.46h2.24v-1.36h.77v1.36h4.57v-1.36h.76v1.36h2.28v.69h-2.28v1.84h-2.64v1.26h4.18v2.64h-4.21c0 .45-.02.86-.05 1.21h4.32v.69h-4.38c-.04.34-.1.75-.19 1.22h5.15v.69h-4.82c.87 1.19 2.51 1.92 4.93 2.19-.17.31-.3.57-.37.76-2.77-.49-4.52-1.41-5.26-2.76-.56 1.26-2.3 2.23-5.24 2.9-.12-.24-.26-.48-.43-.72 2.73-.55 4.38-1.34 4.96-2.38h-4.38v-.69h4.65c.1-.38.17-.79.21-1.22h-4.32v-.69h4.4c.03-.34.05-.75.05-1.21h-4.2v-2.64h4.23v-1.26h-2.69v-1.84h-2.24zm1.46 4.46v1.29h3.45c.01-.4.02-.57.01-.53v-.32-.45h-3.46zm1.55-2.59h4.57v-1.19h-4.57zm6.11 2.59h-3.42v.77c-.01.19-.01.37-.02.53h3.44z" fill="#fafafc"/><path d="m32.63 379.16h.82v1.98h3.54v7.89h1.46v.78h-14.37v-.78h1.46v-7.89h3.54v-1.98h.82v1.98h2.73zm-3.49 11.48.5.73c-1.61.82-3.28 1.63-5 2.41-.13-.27-.28-.55-.44-.82 1.75-.72 3.4-1.49 4.94-2.32m-2.78-5.55h2.73v-3.18h-2.73zm0 3.95h2.73v-3.2h-2.73zm3.54-3.95h2.73v-3.18h-2.73zm0 3.95h2.73v-3.2h-2.73zm7.89 4.68c-1.84-.92-3.51-1.7-5.02-2.32l.45-.73c1.89.8 3.57 1.55 5.04 2.23zm-1.62-11.81h-2.73v3.18h2.73zm-2.73 7.13h2.73v-3.2h-2.73z" fill="#fafafc"/><path d="m208.49 25.67c5.55 2.7 7.57 7.35 8.18 12.84.19 1.66.21 3.36.13 5.03-.82 16.64 1.74 33.03 3.64 49.47 2.56 22.23 5.13 44.45 7.7 66.67.8 6.89 1.51 13.79 2.5 20.65.29 2 .95 4.26 2.2 5.76 10.81 13 15.17 28.99 20.69 44.4 2.3 6.43 5.11 12.33 10.19 17 .82.75 1.5 1.66 2.27 2.48 6.77 7.16 12.63 14.68 16.2 24.24 2.43 6.51 7.11 12.39 11.63 17.85 5.19 6.26 9.59 12.86 13.03 20.19.79 1.69 1.98 3.23 3.16 4.69 10.5 12.93 21.26 25.67 31.48 38.82 4.23 5.45 7 11.92 7.86 19.57-5.15 0-10.09.09-15.02-.09-.77-.03-1.53-1.21-2.23-1.91-21.54-21.73-41.22-45.1-60.37-68.93-13.88-17.27-27.75-34.56-41.78-51.71-3.6-4.4-7.5-8.69-11.85-12.32-2.98-2.48-6.81-4.34-10.56-5.39-4.61-1.29-9.04-.45-13.02 3.11-15.52 13.88-31.18 27.6-46.97 41.17-4.43 3.8-8.33 7.77-9.76 13.56-1.26 5.11-4.41 8.16-9.3 9.91-9.62 3.44-15.69 11.64-23.39 17.67-8.76 6.9-14.49 16.4-21.72 24.6-3.11 3.53-6.12 7.14-9.39 10.52-6.03 6.23-13.43 9.86-21.99 11.28-2.91.48-4.6-.25-5.43-3.24-1.01-3.65-.76-6.93 1.15-10.3 5.08-8.94 11.74-16.47 19.1-23.61 24.36-23.64 47.38-48.55 68.45-75.18 19.59-24.78 34.26-52.37 44.38-82.25 2.26-6.67 2.39-14.07 3.38-21.15 3.73-26.47 7.48-52.93 11.08-79.42 1.05-7.76 1.77-15.57 2.37-23.37.71-9.26 4.69-16.65 12.01-22.61z" fill="#010101"/></svg>