<svg viewBox="0 0 400 400" xmlns="http://www.w3.org/2000/svg"><rect width="400" height="400" fill="white" /><g fill="#fbfafa"><path d="m37.59 393.81c-.92.31-1.52.05-2-.78-.7-1.2-1.52-2.34-2.47-3.78v4.59c-.55.03-.95.05-1.41.07-.03-.37-.06-.64-.06-.91 0-1.91 0-3.81 0-5.7 1.13-.41 1.77-.03 2.29.91.62 1.11 1.38 2.14 2.31 3.19v-4.2h1.35v6.61z"/><path d="m12.94 393.88v-6.75c1.9.19 3.93-.54 5.37 1.29.8 1.01.78 2.88.03 3.97-1.37 1.97-3.4 1.51-5.4 1.49m1.45-1.22c2.04.12 2.92-.58 2.89-2.21-.03-1.51-.98-2.19-2.89-2z"/><path d="m11.81 393.87h-5.49c.68-2.18 2.47-3.48 3.51-5.45h-3.08v-1.21h5.29c-.71 2.13-2.44 3.48-3.47 5.51.86 0 1.63.04 2.39-.01.79-.05 1.14.21.85 1.16"/><path d="m39.33 393.86v-6.61h3.7v1.07h-2.22v1.52c.68.04 1.34.09 2.07.13v1.07c-.72.05-1.38.09-2.1.14v1.48h2.4v1.19h-3.85z"/><path d="m27.71 388.56c-1.15-.3-2.46-.61-3.1.64-.37.73-.41 1.93-.06 2.67.63 1.35 1.99.93 3.17.68.35.94-.01 1.32-.93 1.46-1.62.25-3.05-.27-3.76-1.48-.73-1.24-.6-3.03.31-4.17.88-1.11 2.71-1.7 4-1.16.32.13.44.74.65 1.12-.1.08-.19.16-.28.24"/><path d="m49.15 387.24v1.07c-.59.02-1.17.05-1.87.08v5.44h-1.48v-5.44h-1.85c-.05-.4-.08-.73-.13-1.15z"/><path d="m20.06 387.21h1.33v6.62h-1.33z"/><path d="m30.68 393.25c-.49.38-.8.79-1.05.76-.32-.05-.6-.45-.9-.7.26-.24.51-.64.8-.67.29-.04.62.3 1.15.61"/></g><path d="m196.55 262.63c-7.86 8.32-16.02 16.19-23.2 24.87-3.69 4.46-5.57 10.4-8.4 15.6-.83 1.53-1.89 3.11-3.25 4.15-10.89 8.38-20.46 18.01-28.55 29.14-3.67 5.05-8.69 7.46-15.08 7.13-2.64-.14-3.61-1.2-4.18-3.67-1.48-6.39-.2-12.34 2.95-17.79 15.21-26.31 28.51-53.76 47.95-77.51 7.09-8.67 10.75-19.07 11.18-30.63 1.17-31.54 3.06-63.07 4-94.61.47-15.76-.57-31.55-.81-47.33-.17-11.65-.07-23.3 3.32-34.61 1.3-4.33 3.09-8.39 6.61-11.43 9.95 2.9 17.09 12.01 17.44 22.58.36 10.96-.01 21.97.81 32.89 1.49 19.86 4.17 39.64 5.3 59.51.8 14.04-.12 28.19-.33 42.29-.16 11.3-.43 22.61-.56 33.91-.02 1.52.37 3.11.88 4.56 6.27 17.82 12.59 35.62 18.95 53.4.52 1.44 1.33 2.84 2.26 4.06 4.42 5.78 8.73 11.66 13.46 17.18 4.38 5.13 7.33 10.8 9.14 17.27.68 2.43 2.29 4.79 4.02 6.69 4.29 4.71 10.08 8.48 13.04 13.86 2.96 5.37 3.24 12.22 4.66 18.43 1.61 7.07 3.18 14.14 4.84 21.55-3.33.45-6.28.97-9.26 1.18-.76.05-1.86-.66-2.35-1.34-15.73-21.88-33.42-42.41-46.6-66.05-5.32-9.53-9.57-19.66-14.19-29.58-3.69-7.96-7.06-11.92-14.05-15.7z" fill="#010000"/></svg>