<svg viewBox="0 0 400 400" xmlns="http://www.w3.org/2000/svg"><rect width="400" height="400" fill="white" /><path d="m5.17 384 .55-.58c.85.61 1.65 1.24 2.4 1.87l-.59.64c-.83-.73-1.62-1.38-2.36-1.93m1.22 9.53-.82-.34c.71-1.76 1.37-3.64 1.98-5.63.24.13.5.25.76.36-.6 1.67-1.24 3.54-1.92 5.61m-.5-13.5.57-.54c.56.44 1.31 1.06 2.26 1.87l-.64.64c-.68-.66-1.41-1.32-2.19-1.97m3.25.46h2.24v-1.36h.77v1.36h4.57v-1.36h.76v1.36h2.28v.69h-2.28v1.84h-2.64v1.26h4.18v2.64h-4.21c0 .45-.02.86-.05 1.21h4.32v.69h-4.38c-.04.34-.1.75-.19 1.22h5.15v.69h-4.82c.87 1.19 2.51 1.92 4.93 2.19-.17.31-.3.57-.37.76-2.77-.49-4.52-1.41-5.26-2.76-.56 1.26-2.3 2.23-5.24 2.9-.12-.24-.26-.48-.43-.72 2.73-.55 4.38-1.34 4.96-2.38h-4.38v-.69h4.65c.1-.38.17-.79.21-1.22h-4.32v-.69h4.4c.03-.34.05-.75.05-1.21h-4.2v-2.64h4.23v-1.26h-2.69v-1.84h-2.24zm1.46 4.46v1.29h3.45c.01-.4.02-.57.01-.53v-.32-.45h-3.46zm1.55-2.59h4.57v-1.19h-4.57zm6.11 2.59h-3.42v.77c-.01.19-.01.37-.02.53h3.44z" fill="#fafafc"/><path d="m32.63 379.16h.82v1.98h3.54v7.89h1.46v.78h-14.37v-.78h1.46v-7.89h3.54v-1.98h.82v1.98h2.73zm-3.49 11.48.5.73c-1.61.82-3.28 1.63-5 2.41-.13-.27-.28-.55-.44-.82 1.75-.72 3.4-1.49 4.94-2.32m-2.78-5.55h2.73v-3.18h-2.73zm0 3.95h2.73v-3.2h-2.73zm3.54-3.95h2.73v-3.18h-2.73zm0 3.95h2.73v-3.2h-2.73zm7.89 4.68c-1.84-.92-3.51-1.7-5.02-2.32l.45-.73c1.89.8 3.57 1.55 5.04 2.23zm-1.62-11.81h-2.73v3.18h2.73zm-2.73 7.13h2.73v-3.2h-2.73z" fill="#fafafc"/><path d="m360.92 309.88c1.56.73 2.68 1.21 3.75 1.77 2.74 1.46 4.25 3.68 2.53 6.59-3.68 6.21-2.12 11.53 2.17 16.61 2.36 2.79 2.96 5.97 2.66 9.65-.57 7.02-.66 14.08-.98 21.13-.18 4-1.93 6.3-5.95 5.82-4.55-.54-9.2-1.91-13.3-3.94-1.98-.98-3.05-4.21-4.06-6.62-3.98-9.47-5.74-19.51-6.65-29.66-.78-8.69-1.02-17.42-1.71-26.11-.2-2.52-1.01-5.02-1.72-7.48-9.71-33.95-19.6-67.85-29.06-101.86-1.95-6.99-6.4-11.31-11.91-15.06-6.84-4.67-14.62-6.66-22.75-7.23-11.15-.78-22.36-.88-33.47-2.06-15.12-1.61-30.16-3.89-45.22-6.01-19.57-2.75-38.82-.49-57.94 3.63-10.6 2.28-21.18 4.63-31.72 7.15-1.68.4-3.41 1.59-4.59 2.9-13.35 14.71-21.55 32.51-30.06 50.14-3.4 7.04-7.3 13.84-10.87 20.8-.56 1.09-1.18 2.75-.74 3.65 3.83 7.89 1.9 16.05 1.3 24.1-1.16 15.51-2.65 30.99-3.8 46.5-.92 12.44-9.34 24.53-19.85 27.42-6.76 1.86-5.81 1.93-9.81-3.56-5.31-7.29-4.23-15.34-3.06-23.55 5.42-37.85 10.65-75.73 16.08-113.58.24-1.65 1.33-3.55 2.62-4.61 4.34-3.57 7.62-7.25 6.78-13.6-.49-3.75 1.45-6.97 4.81-9.36 15.23-10.82 30.44-21.68 45.46-32.79 4.59-3.39 9.54-5.6 15.03-6.01 10.24-.77 20.54-.86 30.79-1.49 4.89-.3 9.85-.74 14.59-1.88 9.68-2.32 14.39-11.23 11.44-20.86-1.34-4.37-3.12-8.64-4.07-13.09-.5-2.31-.33-5.28.75-7.32 4.15-7.84 5.91-15.95 5.22-24.81-.45-5.79.01-11.64-.16-17.45-.04-1.26-.66-2.89-1.59-3.67-5.12-4.27-6.49-9.41-4.21-15.61.19-.52.36-1.06.56-1.58 3.35-8.5 5-9.08 12.89-4.2 8.62 5.33 13.35 13.59 16.84 22.76 4.29 11.3 5.31 23.28 7.36 35.04 2.41 13.78 5.1 27.48 10.82 40.37.32.71.73 1.39 1 2.12 1.26 3.43 3.37 4.99 7.32 4.58 18.2-1.89 35.43 3.61 52.89 7.26 4.38.92 8.69 2.3 13.1 2.84 14.56 1.77 26.11 9.42 36.92 18.49 5.48 4.6 10.38 9.89 15.88 14.46 8.06 6.71 10.63 15.44 10.31 25.41-.18 5.59-.94 11.2-.64 16.76.3 5.54 1.51 11.04 2.5 16.53 3.83 21.12 7.75 42.22 11.53 63.35.18 1.03-.48 2.52-1.23 3.35-1.26 1.37-2.91 2.39-4.78 3.87z" fill="#010101"/></svg>