<svg enable-background="new 0 0 400 400" viewBox="0 0 400 400" xmlns="http://www.w3.org/2000/svg"><path d="m155.85 245.98c13.89-1.61 27.33-3.18 40.76-4.74 8.56-.99 17.11-2.06 25.68-2.89 2.99-.29 4.61-1.71 4.63-4.54.03-3.99.28-8.11-.59-11.94-2.46-10.89-5.53-21.64-8.21-32.48-5.24-21.24-8.42-42.79-8.97-64.67-.09-3.57-1.64-5.15-4.52-6.44-8.97-4.02-18.37-4.26-27.65-2.27-15.73 3.36-31.31 7.43-46.94 11.26-1.02.25-2.13.89-2.8 1.68-5.98 7.08-12.31 13.91-17.66 21.44-6.6 9.28-6.19 20.02-4.32 30.71.15.88.9 1.8 1.62 2.43 4.97 4.32 9.82 8.82 15.08 12.78 6.39 4.81 13.42 4.16 20.37 1.09.92-.41 1.79-1.42 2.21-2.36 2.23-4.98 4.49-9.97 6.41-15.08 2.11-5.64 4.5-10.95 10.32-13.85 3.84 5.52 5.98 11.36 4.81 18.08-.17.99-.4 2.04-.23 3 1 5.77-2 9.62-6.24 12.67-4.88 3.52-9.8 7.05-15.02 10.02-9.65 5.48-19.79 4.92-29.78 1-2.35-.92-4.36-3.1-6.13-5.06-4.28-4.72-8.57-9.46-12.42-14.53-6.58-8.67-8.5-18.58-6.48-29.21 1.25-6.59 2.71-13.14 4.18-19.68.28-1.24.84-2.63 1.71-3.5 10.3-10.33 21.14-20.03 33.95-27.2 14.32-8.02 29.71-11.93 46.17-12.14 18.9-.24 37.82-.52 56.69-1.51 18-.94 33.79-7.37 45.54-21.73 5-6.12 7.08-13.4 7.2-21.18.14-9.17-.03-18.34-.06-27.51 0-.55.11-1.09.16-1.63 9.62.44 16.62 7.12 16.71 16.63.13 14.93-3.17 29.34-8.65 43.13-1.48 3.73-5.47 6.4-8 9.79-3.51 4.72-8 7.19-13.8 8.43-12.01 2.59-23.88 5.86-35.81 8.84-6.65 1.66-9.96 5.4-10.2 12.43-.14 4.11.16 8.29.82 12.35 3.18 19.41 6.59 38.78 9.83 58.17 1.7 10.15 3.15 20.33 4.92 30.46.22 1.27 1.47 2.77 2.64 3.39 6.28 3.28 13.13 4.55 20.13 4.27 7.48-.3 14.92-1.41 22.4-1.65 4.74-.15 9.56.37 14.26 1.11 2.95.47 5.16 2.52 6.35 6.56-6.17 1.36-12.15 3.02-18.25 3.94-9.17 1.39-18.41 2.25-27.62 3.37-1.1.13-2.18.46-3.25.79-8.56 2.62-9.68 4.3-8.19 13.08 5.82 34.28 11.68 68.55 17.56 102.81 1.35 7.84-1.88 11.38-10.71 11.2-1.36-9.68-2.73-19.4-4.09-29.12-2.12-15.17-4.19-30.35-6.37-45.52-.27-1.85-.73-3.78-1.59-5.42-5.52-10.46-5.8-22.18-8.15-33.39-.14-.66-.2-1.33-.33-1.98-1.48-7.63-2.82-8.82-10.79-9.68-9.25-1-18.3.39-27.29 2.37-8.96 1.97-17.89 4.26-27.2 3-6.11-.84-11.35-3.15-14.8-9.38z" fill="#010102"/><g fill="#fafbfa"><path d="m6.4 11.7c-1-.8-1.9-1.6-2.9-2.3l.6-.7c.9.7 1.9 1.4 2.9 2.2zm-2.1 8.3c.7-2.1 1.4-4.2 2-6.4.2.1.6.3 1 .4-.7 2.3-1.3 4.4-1.9 6.4zm3-12.8c-1.1-.9-2.1-1.7-2.9-2.4l.6-.7c1 .8 2 1.5 3 2.4zm1.4-1.3v-.9h10.2v.9c-.9 4.2-2.3 7.3-4.1 9.4 1.3 1.4 3.2 2.7 5.7 4-.2.2-.4.5-.7.9-2.5-1.4-4.4-2.7-5.7-4.2-1.4 1.5-3.5 3-6.1 4.4 0 0 0 0-.1-.1-.3-.4-.5-.7-.7-.8 2.7-1.3 4.7-2.8 6.2-4.2-1.8-2.2-3-5.3-3.7-9.4zm9.2 0h-7.1c.6 3.8 1.7 6.7 3.4 8.7 1.7-2 2.9-4.8 3.7-8.7z"/><path d="m31.6 3.6h.9v2.3h4.1v9.1h1.7v.9h-16.6v-.9h1.7v-9.1h4.1v-2.3h.9v2.3h3.1v-2.3zm-4 13.3.6.8c-1.9.9-3.8 1.9-5.8 2.8-.2-.3-.3-.6-.5-.9 2-.9 3.9-1.8 5.7-2.7zm-3.2-10.1v3.7h3.1v-3.7zm0 4.5v3.7h3.1v-3.7zm4.1-4.5v3.7h3.1v-3.7zm0 4.5v3.7h3.1v-3.7zm9.1 9.1c-2.1-1.1-4.1-2-5.8-2.7l.5-.8c2.2.9 4.1 1.8 5.8 2.6zm-1.9-13.6h-3.1v3.7h3.1zm-3.2 4.5v3.7h3.1v-3.7z"/></g></svg>