<svg enable-background="new 0 0 400 400" viewBox="0 0 400 400" xmlns="http://www.w3.org/2000/svg"><path d="m85.05 205.23c9.89-6.03 20.62-9.36 31.53-12.35 6.66-1.83 13.32-3.98 19.57-6.87 5.02-2.32 10.06-3.46 15.44-3.81 4.12-.27 7.09-3.14 7.38-7.21.31-4.3-.65-8.27-3.75-11.43-4.93-5.03-9.92-10.01-14.93-14.97-1.86-1.84-3.83-2.23-6.32-.8-2.5 1.43-5.26 2.49-7.99 3.45-14.65 5.18-27.75 13.13-39.09 23.55-15.89 14.61-27.53 32.39-34.66 52.76-2.51 7.18-2.55 15.19-4.2 22.71-1.74 7.93-3.51 15.92-6.28 23.52-2.01 5.54-6.97 8.5-13.05 9.17-1.98.22-3.09-.5-4-2.17-2.67-4.95-2.21-10.16-1.4-15.4 2.92-18.9 5.83-37.79 8.81-56.68.26-1.62.8-3.27 1.54-4.74 8.25-16.62 16.55-33.21 24.89-49.79.8-1.58 1.89-3.02 2.9-4.49 13.92-20.18 32.2-36.3 49.89-52.88 11.99-11.23 24.91-21.46 37.42-32.14 1.19-1.01 2.39-2.01 3.95-3.32-10.03-6.66-21.45-11.84-23.65-25.49 12.86-.67 25.7-.01 38.37 2.22 9.67 1.7 19.3 3.84 28.77 6.41 21.92 5.94 30.99 20.39 28.46 42.98-1.03 9.2-4.85 16.56-10.8 23.16-.93 1.03-2.32 1.77-3.63 2.29-8.73 3.44-17.54 6.66-26.21 10.23-3.58 1.47-7.05 3.38-10.25 5.55-3.19 2.15-3.95 6.17-.86 9.51 4.09 4.42 7.58 9.4 11.36 14.11 1.54 1.92 3.09 3.84 4.76 5.65 4.99 5.42 10.88 8.56 18.5 6.89 8.72-1.91 17.47-3.71 26.12-5.9 8.64-2.19 16.97-1.85 25.34 1.28 6.78 2.53 11.49 7.17 13.81 13.72 2.06 5.83 3.82 12.02 4.21 18.14.74 11.48.48 23.03.39 34.55-.01 1.48-1.11 3.61-2.34 4.29-2.86 1.58-6.02 3.01-9.21 3.47-4.47.65-7.93-.95-10.11-5.68-3.5-7.6-8.11-14.69-11.6-22.3-3.84-8.35-10.53-10.84-18.83-10.41-4.89.25-9.74 1.25-14.61 1.84-2.08.25-3.2 1.33-3.52 3.34-.84 5.4-2.16 10.77-2.42 16.2-.88 18.61.95 37.12 2.87 55.6.54 5.22 1.29 10.44 2.34 15.58.44 2.15 1.6 4.36 3.01 6.08 3.27 3.97 7.06 7.51 10.33 11.47 9.78 11.86 22.11 18.37 37.59 19.34 13.87.87 27.7 1.85 41.45-.91 3.14-.63 6.21-1.83 9.17-3.09 18.1-7.7 36.17-15.46 54.2-23.33 2.25-.98 3.36-.55 4.59 1.4 2.45 3.88 3.1 7.9 1.27 12.13-2.92 6.74-6.7 12.75-12.83 17.26-9.37 6.9-18.38 14.28-27.67 21.29-1.46 1.1-3.62 1.97-5.39 1.87-5.86-.35-11.29.83-16.58 3.2-2.75 1.23-5.71 1.98-8.45 3.24-15.46 7.12-31.21 6.16-47.24 2.24-14.16-3.47-26.79-10.19-38.48-18.44-8.92-6.3-15.48-15.17-21.06-24.57-8.75-14.75-14.96-30.52-17.62-47.5-1.64-10.49-2.36-21.12-3.99-31.61-1.06-6.81-2.96-13.5-4.6-20.21-.66-2.7-2.27-3.32-5.02-2.22-7.56 3.02-15.21 5.81-22.85 8.63-10.59 3.91-21.42 6.42-32.81 5.02-10.05-1.24-18.01-8.36-20.42-18.13-.49-2.04-.95-4.11-1.51-6.5z" fill="#010104"/><g fill="#fcfbfa"><path d="m385.2 377.6.6-.7c.6.4 1.3.9 1.9 1.5l-.6.7c-.8-.5-1.4-1-1.9-1.5zm.3 7.1c.6-1.4 1.1-2.9 1.5-4.5.3.1.6.3.9.4-.5 1.4-1 2.9-1.5 4.4zm.2-10.1.6-.6c.7.5 1.3 1.1 1.9 1.6l-.7.7c-.6-.6-1.2-1.2-1.8-1.7zm8.4-.8h.8v.9h1.8v.7h-1.8v1.8h-.8v-.3h-1.2v.9h3.3v2.6h-.8v-.4h-2.5c0 .3 0 .6-.1.8h3.4v.7h-3.5c0 .3-.1.6-.1.8h4v.7h-3.5c.7.9 1.9 1.3 3.6 1.5-.2.2-.4.5-.6.9-1.9-.3-3.2-1.1-3.8-2.3-.5 1.1-1.8 2-3.9 2.4-.2-.3-.4-.5-.6-.8 1.9-.4 3.1-.9 3.6-1.7h-3.2v-.7h3.5c.1-.2.1-.5.2-.8h-3.3v-.7h3.4c0-.2 0-.5 0-.8h-2.4v.3h-.8v-2.6h3.3v-.9h-1.2v.3h-.8v-1.8h-1.8v-.7h1.8v-.9h.8v.9h3.2zm-4.4 5.5h2.4c0-.3 0-.6 0-.9h-2.4zm1.2-3.1h3.2v-.8h-3.2zm4.4 2.2h-2.4v.9h2.5v-.9z"/><path d="m389.2 385.8h.9v1.5h1.9v-1.5h.9v1.5h2.7v6h1.1v.9h-11.3v-.9h1.1v-6h2.7zm.2 8.7.5.8c-1.2.6-2.5 1.3-4 1.9-.2-.3-.3-.6-.6-.8 1.6-.6 3-1.3 4.1-1.9zm-2-4.3h1.9v-2.1h-1.9zm0 3.1h1.9v-2.2h-1.9zm2.7-3.1h1.9v-2.1h-1.9zm0 3.1h1.9v-2.2h-1.9zm2.4 1.3c1.4.6 2.7 1.2 4.1 1.8l-.5.9c-1.5-.7-2.8-1.4-4.1-1.9zm2.2-6.5h-1.9v2.1h1.9zm-1.9 5.2h1.9v-2.2h-1.9z"/></g></svg>