<svg enable-background="new 0 0 400 400" viewBox="0 0 400 400" xmlns="http://www.w3.org/2000/svg"><path d="m80.35 182.43c0-8.16-1.02-16.49.26-24.45 1.53-9.5 4.18-19.03 7.85-27.92 7.43-18 22.5-27.17 40.7-31.46 9.98-2.35 20.17-4 30.36-5.15 5.7-.65 11.64-.02 17.38.7 15.21 1.9 30.08-.2 44.96-2.9 10.78-1.95 21.52-4.28 32.39-5.52 9.48-1.08 15.6-6.64 21.23-13.29 5.26-6.21 7.46-13.56 7.85-21.66.45-9.55 3.62-17.98 11.65-23.85 1.17-.86 3.11-1.29 4.54-1.04 4.62.81 9.14 2.14 13.75 3.03 1.9.37 2.32 1.17 2.16 2.94-1.65 18.39-3.21 36.79-4.93 55.17-.13 1.37-1.07 2.93-2.1 3.91-10.7 10.14-24.13 14.61-38.03 18.01-10.64 2.6-21.3 5.11-32 7.43-2.94.64-4.57 2.2-5.2 4.88-.5 2.15-1.19 4.51-.8 6.58 2.76 14.47 1.22 29.02 1.18 43.54-.02 9.18-.1 18.36-.55 27.52-.44 9.07 2.96 17.05 6.17 25.15 3.36 8.5 7.01 16.91 9.87 25.59 2.46 7.49 1.51 15.04-2.13 22.14-.97 1.89-2.06 3.72-2.98 5.63-3.91 8.04-6.27 16.3-5.58 25.5.8 10.7.78 21.47.92 32.21.03 2.29-.51 4.7-1.29 6.87-1.77 4.95-1.83 9.77.05 14.67 1.95 5.07 1.04 9.89-1.69 14.42-2.68 4.45-8.04 6-12.54 3.58-.77-.41-1.33-1.43-1.71-2.29-3.26-7.3-3.65-15.05-2.48-22.72 2.31-15.17.83-30.09-1.69-45.06-2.17-12.89-5.99-25.26-12-36.79-4.4-8.43-5.41-16.79-3.1-25.87 1.13-4.43 1.71-9 2.54-13.51.93-5.03 1.96-9.88 4.55-14.55 4.53-8.19 4.74-17.41 3.91-26.51-1.23-13.37-3.32-26.67-4.09-40.06-.47-8.2.65-16.51 1.43-24.74.26-2.78-.51-4.49-2.95-5.08-3.43-.83-7.08-2.04-10.45-1.62-19.18 2.39-38.34 4.98-57.43 8.02-5.54.88-10.85 3.38-16.18 5.38-1.19.45-2.27 1.74-2.97 2.91-10.72 17.84-13.88 37.36-12.28 57.78.79 10.13 2.5 20.19 3.38 30.32.33 3.8.01 7.86-1.01 11.52-1.48 5.31-6.56 7.84-11.93 6.66-.87-.19-1.73-.95-2.35-1.66-3.63-4.11-7.31-8.19-10.74-12.47-3.89-4.86-4.44-10.94-5.09-16.78-.94-8.33-1.27-16.73-1.86-25.09.35 0 .7-.01 1.05-.02z" fill="#010102"/><g fill="#fafbfa"><path d="m6.4 11.7c-1-.8-1.9-1.6-2.9-2.3l.6-.7c.9.7 1.9 1.4 2.9 2.2zm-2.1 8.3c.7-2.1 1.4-4.2 2-6.4.2.1.6.3 1 .4-.7 2.3-1.3 4.4-1.9 6.4zm3-12.8c-1.1-.9-2.1-1.7-2.9-2.4l.6-.7c1 .8 2 1.5 3 2.4zm1.4-1.3v-.9h10.2v.9c-.9 4.2-2.3 7.3-4.1 9.4 1.3 1.4 3.2 2.7 5.7 4-.2.2-.4.5-.7.9-2.5-1.4-4.4-2.7-5.7-4.2-1.4 1.5-3.5 3-6.1 4.4 0 0 0 0-.1-.1-.3-.4-.5-.7-.7-.8 2.7-1.3 4.7-2.8 6.2-4.2-1.8-2.2-3-5.3-3.7-9.4zm9.2 0h-7.1c.6 3.8 1.7 6.7 3.4 8.7 1.7-2 2.9-4.8 3.7-8.7z"/><path d="m31.6 3.6h.9v2.3h4.1v9.1h1.7v.9h-16.6v-.9h1.7v-9.1h4.1v-2.3h.9v2.3h3.1v-2.3zm-4 13.3.6.8c-1.9.9-3.8 1.9-5.8 2.8-.2-.3-.3-.6-.5-.9 2-.9 3.9-1.8 5.7-2.7zm-3.2-10.1v3.7h3.1v-3.7zm0 4.5v3.7h3.1v-3.7zm4.1-4.5v3.7h3.1v-3.7zm0 4.5v3.7h3.1v-3.7zm9.1 9.1c-2.1-1.1-4.1-2-5.8-2.7l.5-.8c2.2.9 4.1 1.8 5.8 2.6zm-1.9-13.6h-3.1v3.7h3.1zm-3.2 4.5v3.7h3.1v-3.7z"/></g></svg>