<svg viewBox="0 0 400 400" xmlns="http://www.w3.org/2000/svg"><rect width="400" height="400" fill="white" /><path d="m63.02 356.95c8.25-4.35 16.96-6.44 25.85-7.43 27.67-3.08 55.38-5.92 83.08-8.74 2.1-.21 3.53-.9 4.02-2.79 1.37-5.27 3.59-10.58 3.58-15.87-.03-13.41-1.46-26.8-1.67-40.21-.32-20.47-.18-40.95-.05-61.43.17-28.42.26-56.85.92-85.27.25-10.88-2.48-21.28-3.38-31.95-1.19-14.08-2.27-28.13.95-42.09.65-2.8 1.48-5.56 2.46-9.18-9.22.54-17.92.81-26.58 1.61-10.45.97-20.83 2.72-31.29 3.44-3.56.24-7.7-.91-10.78-2.75-2.46-1.47-4.09-4.77-5.41-7.58-1.13-2.41-.08-4.33 2.65-5.79 14.18-7.54 29.3-11.74 45.24-12.38 27.49-1.11 54.99-2.11 82.5-2.39 13.48-.14 27.09.66 40.45 2.42 16.17 2.14 30.19 9.88 41.83 21.18 7.42 7.2 10.54 16.84 10.85 27.11.28 9.28.47 18.61-.26 27.85-.89 11.28 1.06 22.31 1.49 33.46.28 7.21-.18 14.49-.87 21.69-2.97 30.95-6.13 61.88-9.27 92.81-.22 2.2-.65 4.43-1.36 6.53-2.19 6.45-4.74 12.79-6.81 19.28-3.79 11.92-11.64 21.58-17.66 32.26-.51.9-1.6 1.53-2.52 2.13-18.23 11.97-36.44 23.97-54.73 35.85-9.7 6.3-20.58 9.93-31.8 11.97-13.07 2.38-26.31 3.91-39.51 5.48-23.21 2.76-46.45 5.22-69.67 7.92-4.74.55-9.18.56-13.61-1.75-4.24-2.21-8.75-4.01-13.29-5.55-3.21-1.08-4.72-2.93-4.82-6.2-.03-1.13-.32-2.22-.53-3.64zm136.33-24.97c2.15.4 3.9.75 5.65 1.04.88.15 1.77.21 2.66.28 15.48 1.14 28.87-4.16 39.6-14.84 14.9-14.82 29.02-30.43 43.45-45.74.66-.7 1.17-1.64 1.5-2.56 5.91-16.48 10.5-33.38 11.68-50.83 1.36-20.07 1.55-40.23 1.95-60.36.27-13.53.07-27.07-.02-40.6-.07-10.96.05-21.94-.53-32.87-.66-12.49-5.22-23.19-16.95-29.33-4.11-2.15-8.57-3.95-13.09-4.94-8.95-1.96-18.03-3.3-27.07-4.78-4.48-.73-9.09-2.07-13.49-1.63-9.44.95-18.77 2.93-28.16 4.38-2.09.32-3.26 1.13-4.04 3.24-4.48 12.12-5.39 24.61-4.27 37.35 1.86 20.97 2.96 41.9 1.32 62.99-1.92 24.76-2.91 49.59-4.27 74.4-.08 1.55.13 3.12.26 4.68 1.26 15.14 2.91 30.27 3.69 45.43.6 11.72.12 23.5.12 35.25.01 6.37.01 12.74.01 19.44z" fill="#010106"/><path d="m242.27 276.81c-6.4-7.54-7.16-16.2-7.29-24.98-.36-24.38-.96-48.77-.8-73.16.11-16.62-3.44-32.62-6.39-48.76-1.6-8.75-.91-17.38 2.26-25.74 1.64-4.33 7.31-6.6 11.34-4.52 8.85 4.57 14.51 11.38 15.18 21.69.48 7.37.86 14.74 1.48 22.1 1.01 11.91 2.63 23.79 3.21 35.73 1.47 30.09-.23 59.89-9.51 88.9-1.6 5.01-6.06 5.75-9.48 8.74z" fill="#010106"/><g fill="#fcfbfa"><path d="m385.2 377.6.6-.7c.6.4 1.3.9 1.9 1.5l-.6.7c-.8-.5-1.4-1-1.9-1.5zm.3 7.1c.6-1.4 1.1-2.9 1.5-4.5.3.1.6.3.9.4-.5 1.4-1 2.9-1.5 4.4zm.2-10.1.6-.6c.7.5 1.3 1.1 1.9 1.6l-.7.7c-.6-.6-1.2-1.2-1.8-1.7zm8.4-.8h.8v.9h1.8v.7h-1.8v1.8h-.8v-.3h-1.2v.9h3.3v2.6h-.8v-.4h-2.5c0 .3 0 .6-.1.8h3.4v.7h-3.5c0 .3-.1.6-.1.8h4v.7h-3.5c.7.9 1.9 1.3 3.6 1.5-.2.2-.4.5-.6.9-1.9-.3-3.2-1.1-3.8-2.3-.5 1.1-1.8 2-3.9 2.4-.2-.3-.4-.5-.6-.8 1.9-.4 3.1-.9 3.6-1.7h-3.2v-.7h3.5c.1-.2.1-.5.2-.8h-3.3v-.7h3.4c0-.2 0-.5 0-.8h-2.4v.3h-.8v-2.6h3.3v-.9h-1.2v.3h-.8v-1.8h-1.8v-.7h1.8v-.9h.8v.9h3.2zm-4.4 5.5h2.4c0-.3 0-.6 0-.9h-2.4zm1.2-3.1h3.2v-.8h-3.2zm4.4 2.2h-2.4v.9h2.5v-.9z"/><path d="m389.2 385.8h.9v1.5h1.9v-1.5h.9v1.5h2.7v6h1.1v.9h-11.3v-.9h1.1v-6h2.7zm.2 8.7.5.8c-1.2.6-2.5 1.3-4 1.9-.2-.3-.3-.6-.6-.8 1.6-.6 3-1.3 4.1-1.9zm-2-4.3h1.9v-2.1h-1.9zm0 3.1h1.9v-2.2h-1.9zm2.7-3.1h1.9v-2.1h-1.9zm0 3.1h1.9v-2.2h-1.9zm2.4 1.3c1.4.6 2.7 1.2 4.1 1.8l-.5.9c-1.5-.7-2.8-1.4-4.1-1.9zm2.2-6.5h-1.9v2.1h1.9zm-1.9 5.2h1.9v-2.2h-1.9z"/></g></svg>