<svg viewBox="0 0 400 400" xmlns="http://www.w3.org/2000/svg"><rect width="400" height="400" fill="white" /><path d="m156.47 321.5c4.77 4.37 9.17 4.07 12.8-.66.95-1.24 1.85-2.54 2.55-3.93 2.2-4.38 3.5-9.47.64-13.43-3.15-4.36-8.59-6.52-14.07-5.44-6.21 1.23-12.49 2.91-18.17 5.62-2.96 1.41-5.03 5.23-6.89 8.33-6.83 11.39-5.16 28.56 3.05 38.71 9.83 12.14 22.55 15.68 37.07 15.82 3.91.04 7.88.11 11.72-.49 3.91-.6 7.8-1.75 11.52-3.14 3.54-1.32 6.73-3.64 10.29-4.87 10.9-3.76 17.84-11.87 22.94-21.46 6.81-12.82 13.2-25.89 18.92-39.22 2.13-4.96 2.04-10.93 2.63-16.48 2.56-23.93 1.93-47.78-1.28-71.65-1.37-10.17-1.17-20.54-1.94-30.8-1.4-18.56-4.39-36.86-10.03-54.64-.89-2.82-2.55-5.46-4.22-7.95-4.34-6.48-8.49-13.16-13.43-19.17-9.12-11.08-21.62-16.13-35.45-18.64-6.53-1.18-12.63.95-18.9 1.64-7.11.78-14.23 1.75-21.21 3.25-4.75 1.03-9.29 3.08-13.89 4.75-6.79 2.47-13.07-1.28-13.79-8.21-.27-2.59.43-3.94 3.21-4.74 23.09-6.63 46.19-13.25 69.17-20.25 24.26-7.39 48.5-14.88 72.04-24.44 1.6-.65 3.48-.56 5.21-.92 3.9-.81 7.88-1.39 11.64-2.62 3.44-1.12 5.81-.17 5.83 3.53.01 2.37-.61 4.9-1.55 7.1-2.62 6.16-5.76 12.11-8.3 18.3-5.67 13.8-7.22 28.56-9.45 43.13-.66 4.29-1.03 8.68-.98 13.02.05 4.99-.41 9.79-2.36 14.43-.42 1-.91 2.3-.62 3.21 2.35 7.28-.18 14.43-.42 21.62-.21 6.15-1.12 12.3-.95 18.43.23 8.14.61 16.36 2.01 24.35 2.14 12.24.51 24.29-.1 36.45-.46 9.04-.37 18.11-.36 27.16.02 19.83-.11 39.64-6.44 58.77-.63 1.89-1.35 3.8-2.34 5.52-4 6.99-8.29 13.81-12.17 20.86-8.56 15.56-22.19 24.76-38.59 29.72-21.56 6.52-42.85 4.88-62.68-6.17-5.13-2.86-9.17-8.1-13-12.82-6.83-8.42-11.98-17.71-10.11-29.19.72-4.39 1.98-8.69 3.16-12.99.27-.98 1.06-1.99 1.89-2.6 6.41-4.7 12.97-9.18 19.31-13.96 5.83-4.4 12.29-5.02 19.12-3.77 3.51.64 7.01 1.47 10.43 2.47 8.88 2.59 15.65 13.89 13.53 22.94-.58 2.48-1.85 5.21-3.67 6.92-3.71 3.5-7.77 6.75-12.11 9.42-4.53 2.79-12.01 1.82-15.41-1.7-4.13-4.28-5.89-9.39-4.13-15.4.58-1.97 1.67-3 3.7-3.24 1.89-.22 3.75-.59 5.63-.89 2.57-.41 3 .98 2.24 2.95-.94 2.52-2.12 4.93-3.24 7.46zm105.06-273.74c-2.33.98-4.53 2.03-6.82 2.85-3.35 1.19-6.7 2.42-10.15 3.25-12.59 3.03-25.27 5.7-37.81 8.93-4.64 1.19-8.97 3.55-14.23 5.7 5.17 2.79 9.24 5.38 13.61 7.26 11.39 4.9 20.19 12.56 27.53 22.57 6.02 8.2 12.97 15.66 15.41 25.92.03.13.3.19 1.1.68.75-2.83 1.87-5.42 2.08-8.08 1.57-20.55 5.29-40.71 10.95-60.51.91-3.23.39-5.87-1.67-8.57z" fill="#010106"/><path d="m188.79 153.24c-1.57 7.76-6.99 11.63-13.51 14.38-5.97 2.52-11.67 1.29-16.28-2.78-4.84-4.27-8.9-9.35-6.85-16.68.18-.64.35-1.29.47-1.95 1.47-8.57 5.51-13.43 15.05-15.06 9.05-1.54 17.07-2.25 24.87 3.27 10.06 7.11 17.09 25.61 10.48 38.14-.05.1-.11.2-.15.3-4.05 13.08-12.01 23.53-22.02 32.59-.5.45-.89 1.11-1.47 1.36-9.82 4.24-15.87 12.89-23.23 19.97-6.33 6.1-13.18 11.35-20.87 15.63-3.88 2.16-7.47 4.93-10.9 7.78-3.55 2.95-7.54 4.3-12.01 4.41-1.03.03-2.09-.7-3.13-1.07.6-.82 1.05-1.85 1.83-2.42 10.68-7.74 21.73-15.03 32.06-23.22 13.5-10.71 26.76-21.89 36.7-36.15 4.09-5.87 6.84-12.74 9.8-19.33 2.85-6.37-.22-12.75-.84-19.17zm-1.61-3.43c2.39-3.72 2.62-5.9.24-7.16-5.68-3.02-11.69-5.63-18.09-2.35-8.64 4.43-11.04 9.69-5.16 16.74.7.84 2.63 1.34 3.68 1.02 1.1-.34 2.19-1.73 2.63-2.91.53-1.41.29-3.09.51-4.63.82-5.55 5.98-7.96 10.81-4.95 1.86 1.15 3.48 2.72 5.38 4.24z" fill="#010106"/><g fill="#fcfbfa"><path d="m385.2 377.6.6-.7c.6.4 1.3.9 1.9 1.5l-.6.7c-.8-.5-1.4-1-1.9-1.5zm.3 7.1c.6-1.4 1.1-2.9 1.5-4.5.3.1.6.3.9.4-.5 1.4-1 2.9-1.5 4.4zm.2-10.1.6-.6c.7.5 1.3 1.1 1.9 1.6l-.7.7c-.6-.6-1.2-1.2-1.8-1.7zm8.4-.8h.8v.9h1.8v.7h-1.8v1.8h-.8v-.3h-1.2v.9h3.3v2.6h-.8v-.4h-2.5c0 .3 0 .6-.1.8h3.4v.7h-3.5c0 .3-.1.6-.1.8h4v.7h-3.5c.7.9 1.9 1.3 3.6 1.5-.2.2-.4.5-.6.9-1.9-.3-3.2-1.1-3.8-2.3-.5 1.1-1.8 2-3.9 2.4-.2-.3-.4-.5-.6-.8 1.9-.4 3.1-.9 3.6-1.7h-3.2v-.7h3.5c.1-.2.1-.5.2-.8h-3.3v-.7h3.4c0-.2 0-.5 0-.8h-2.4v.3h-.8v-2.6h3.3v-.9h-1.2v.3h-.8v-1.8h-1.8v-.7h1.8v-.9h.8v.9h3.2zm-4.4 5.5h2.4c0-.3 0-.6 0-.9h-2.4zm1.2-3.1h3.2v-.8h-3.2zm4.4 2.2h-2.4v.9h2.5v-.9z"/><path d="m389.2 385.8h.9v1.5h1.9v-1.5h.9v1.5h2.7v6h1.1v.9h-11.3v-.9h1.1v-6h2.7zm.2 8.7.5.8c-1.2.6-2.5 1.3-4 1.9-.2-.3-.3-.6-.6-.8 1.6-.6 3-1.3 4.1-1.9zm-2-4.3h1.9v-2.1h-1.9zm0 3.1h1.9v-2.2h-1.9zm2.7-3.1h1.9v-2.1h-1.9zm0 3.1h1.9v-2.2h-1.9zm2.4 1.3c1.4.6 2.7 1.2 4.1 1.8l-.5.9c-1.5-.7-2.8-1.4-4.1-1.9zm2.2-6.5h-1.9v2.1h1.9zm-1.9 5.2h1.9v-2.2h-1.9z"/></g></svg>