<svg viewBox="0 0 400 400" xmlns="http://www.w3.org/2000/svg"><rect width="400" height="400" fill="white" /><path d="m217.99 159.89c6.22 2.48 12.4 5.09 18.69 7.38 2.21.8 2.75 1.98 2.9 4.15.96 14.18 1.75 28.38 3.25 42.5.74 6.95 2.7 13.8 4.42 20.62 1.06 4.2 1.7 8.29.34 12.5-3.54 10.93-1.44 21.93-.42 32.92.92 9.91 2.52 19.8 2.74 29.73.19 8.23-1.18 16.49-1.89 24.74-.51 5.91-1.17 11.8-1.57 17.72-.09 1.34.38 2.86 1.01 4.08 2.7 5.26 5.56 10.44 8.52 15.94-3.32 2.4-6.77 4.02-10.85 3.75-3.12-.21-6.24-.55-9.33-1.03-1.02-.16-2.09-.75-2.88-1.44-9.7-8.46-19.36-16.97-28.99-25.5-.81-.72-1.65-1.62-2.02-2.61-4.21-11.33-11.85-20.41-19.24-29.67-4.75-5.94-9.11-12.22-14.15-17.9-7.54-8.5-11.94-18.52-15.51-29.06-.9-2.64-1.95-5.26-2.54-7.98-1.69-7.86-5.38-14.57-10.88-20.4-.87-.93-1.38-2.55-1.41-3.87-.4-16-.69-31.99-.99-47.99-.01-.77-.09-1.69.28-2.28 5.75-9.32 6.61-20.04 8.91-30.37 1.43-6.42 3.29-12.75 5.23-19.04 1.52-4.95 4.02-9.34 7.82-13.07 5.27-5.17 9.95-10.94 15.31-16.01 14.51-13.76 25.21-30.44 36.63-46.6 3.33-4.71 7.22-9.1 11.26-13.22 7.05-7.19 14.51-13.97 21.62-21.1 2.93-2.94 5.74-1.45 8.63-.47 2.75.93 3.65 3.16 3.34 5.88-.56 5.02-1.54 9.79-4.93 13.97-2.26 2.8-3.69 6.32-5.24 9.64-2.77 5.96-5.4 11.98-7.95 18.04-.61 1.46-1.11 3.19-.94 4.72.86 8.12 2.18 16.19 2.85 24.32.28 3.37-.87 6.84-1.03 10.28-.46 10.49-.84 20.98-1.08 31.48-.16 7.01-2.19 9.41-9.14 10.91-3.74.81-7.36 2.17-11.04 3.29.09.31.18.68.27 1.05zm-16.53-44.98c-.29.41-.48.69-.67.97-11.2 16.19-22.41 32.37-33.59 48.58-.55.8-1.05 1.79-1.13 2.73-.68 8.28-3.84 15.79-6.86 23.38-2.06 5.16-2.87 10.57-1.79 16.12 1.16 5.92 2.6 11.78 3.56 17.73 1.58 9.72 3.09 19.42 6.95 28.59 9.47 22.52 23.39 42.12 39.2 60.57 4.37 5.1 9.93 5.05 14.68 6.21-.03-8.78-.06-17.32-.09-25.86 0-.67-.03-1.35-.14-2.01-1.5-9.38-2.78-18.8-4.58-28.12-2.18-11.35-3.89-22.66-2.23-34.27 1.56-10.91 1.43-21.8-.62-32.71-2.48-13.23-3.05-26.6-2.6-40.07.25-7.57-.2-15.22-.99-22.76-.75-7.2-3.19-13.89-9.1-19.08z" fill="#010102"/><g fill="#fcfbfa"><path d="m385.2 377.6.6-.7c.6.4 1.3.9 1.9 1.5l-.6.7c-.8-.5-1.4-1-1.9-1.5zm.3 7.1c.6-1.4 1.1-2.9 1.5-4.5.3.1.6.3.9.4-.5 1.4-1 2.9-1.5 4.4zm.2-10.1.6-.6c.7.5 1.3 1.1 1.9 1.6l-.7.7c-.6-.6-1.2-1.2-1.8-1.7zm8.4-.8h.8v.9h1.8v.7h-1.8v1.8h-.8v-.3h-1.2v.9h3.3v2.6h-.8v-.4h-2.5c0 .3 0 .6-.1.8h3.4v.7h-3.5c0 .3-.1.6-.1.8h4v.7h-3.5c.7.9 1.9 1.3 3.6 1.5-.2.2-.4.5-.6.9-1.9-.3-3.2-1.1-3.8-2.3-.5 1.1-1.8 2-3.9 2.4-.2-.3-.4-.5-.6-.8 1.9-.4 3.1-.9 3.6-1.7h-3.2v-.7h3.5c.1-.2.1-.5.2-.8h-3.3v-.7h3.4c0-.2 0-.5 0-.8h-2.4v.3h-.8v-2.6h3.3v-.9h-1.2v.3h-.8v-1.8h-1.8v-.7h1.8v-.9h.8v.9h3.2zm-4.4 5.5h2.4c0-.3 0-.6 0-.9h-2.4zm1.2-3.1h3.2v-.8h-3.2zm4.4 2.2h-2.4v.9h2.5v-.9z"/><path d="m389.2 385.8h.9v1.5h1.9v-1.5h.9v1.5h2.7v6h1.1v.9h-11.3v-.9h1.1v-6h2.7zm.2 8.7.5.8c-1.2.6-2.5 1.3-4 1.9-.2-.3-.3-.6-.6-.8 1.6-.6 3-1.3 4.1-1.9zm-2-4.3h1.9v-2.1h-1.9zm0 3.1h1.9v-2.2h-1.9zm2.7-3.1h1.9v-2.1h-1.9zm0 3.1h1.9v-2.2h-1.9zm2.4 1.3c1.4.6 2.7 1.2 4.1 1.8l-.5.9c-1.5-.7-2.8-1.4-4.1-1.9zm2.2-6.5h-1.9v2.1h1.9zm-1.9 5.2h1.9v-2.2h-1.9z"/></g></svg>