<svg viewBox="0 0 400 400" xmlns="http://www.w3.org/2000/svg"><rect width="400" height="400" fill="white" /><g fill="#fcfafa"><path d="m342.2 3.2-6.3 9.2h6.1v1.2h-8.2v-.5l6.2-9.1h-5.7v-1.2h7.8v.4z"/><path d="m344 13.7v-10.9h3.1c1.6 0 3 .5 4.1 1.4 1.1 1 1.6 2.2 1.6 3.9s-.5 3-1.6 4-2.5 1.5-4.2 1.5h-3zm1.4-9.6v8.4h1.6c1.4 0 2.5-.4 3.2-1.1.8-.8 1.2-1.8 1.2-3.2s-.4-2.4-1.2-3.1-1.8-1-3.1-1z"/><path d="m356.3 2.8v10.9h-1.4v-10.9z"/><path d="m366.6 13.2c-.8.4-1.8.6-3 .6-1.6 0-2.8-.5-3.7-1.5s-1.4-2.3-1.4-3.9c0-1.7.5-3.2 1.6-4.2s2.4-1.6 4-1.6c1 0 1.9.1 2.6.4v1.5c-.8-.4-1.6-.6-2.6-.6-1.2 0-2.2.4-3 1.2s-1.1 1.9-1.1 3.3c0 1.3.4 2.3 1.1 3.1s1.6 1.1 2.8 1.1c1.1 0 2-.2 2.8-.7v1.3z"/><path d="m368.2 13c0-.3.1-.5.3-.6.2-.2.4-.3.6-.3.3 0 .5.1.7.3s.3.4.3.6-.1.5-.3.6c-.2.2-.4.3-.7.3s-.5-.1-.6-.3c-.2-.2-.3-.4-.3-.6z"/><path d="m381.1 13.7h-1.7l-5.5-8.4c-.2-.2-.3-.5-.4-.7 0 .2.1.8.1 1.5v7.6h-1.4v-10.9h1.8l5.3 8.3c.3.4.4.6.4.8 0-.3-.1-.8-.1-1.6v-7.5h1.4v10.9z"/><path d="m389.7 13.7h-5.8v-10.9h5.6v1.2h-4.2v3.5h3.9v1.2h-3.9v3.7h4.4z"/><path d="m398.4 4.1h-3.1v9.6h-1.4v-9.6h-3.1v-1.3h7.7v1.3z"/></g><path d="m22.41 334.55c6.63-1.12 12.99-2.21 19.35-3.27 17.65-2.93 35.31-5.78 52.93-8.86 2.81-.49 5.46-1.91 8.15-3 26.9-10.98 53.69-22.25 80.74-32.85 13.29-5.21 27.14-8.98 40.62-13.75 20.8-7.35 40.42-16.93 57.16-31.66 1.85-1.63 3.64-3.32 5.44-5 .23-.21.35-.53.94-1.46-7.38-3.22-14.46-6.74-21.84-9.41-7.02-2.53-14.43-3.97-21.55-6.25-19.22-6.16-35.32-16.79-46.11-34.22-4.71-7.61-6.05-16.5-7.77-25.18-1.27-6.45-2.96-12.82-4.55-19.65-7.24 2.36-14.27 4.16-20.89 6.94-6.99 2.95-13.73 2.77-20.53.22-12.76-4.78-25.42-9.81-38.16-14.62-4.49-1.69-7.25-4.52-8.68-9.25-1.71-5.67-2.21-6.12 3.43-7.89 6.44-2.03 13.18-3.41 19.89-4.24 9.2-1.13 18.57-.98 27.73-2.33 7.24-1.06 14.33-3.36 21.39-5.44 31.1-9.14 62.17-18.33 93.21-27.69 3.79-1.14 7.39-3.12 10.86-5.1 10.47-6 20.79-12.28 31.28-18.23 2.79-1.58 5.95-2.57 9.04-3.53 3.05-.94 6.04-1.37 9.45-.78 22.07 3.81 33.88 18.79 41.19 38.09 6.83 18.04 8.73 36.79 6.32 56.11-1.18 9.49-.47 19.21-.72 28.83-.05 1.98-.49 3.96-.84 5.93-1.48 8.23-2.97 16.46-4.54 24.67-.31 1.6-.75 3.28-1.58 4.64-4.95 8.12-9.84 16.28-15.14 24.17-2.71 4.03-6.01 7.72-9.4 11.22-17.56 18.06-38.52 31.14-61.22 41.72-26.13 12.18-52.02 24.89-78.31 36.71-20.94 9.42-42.67 16.76-65.53 20.11-7.84 1.15-15.79 1.62-23.68 2.47-2.2.24-4.43.54-6.54 1.17-5.24 1.56-10.52 3.1-15.61 5.08-6.6 2.57-13.15 3.5-20.29 2.64-12.32-1.48-24.73-2.23-37.11-3.15-2.35-.17-3.54-1.1-4.29-3.29-1.2-3.46-2.7-6.81-4.24-10.62zm189.23-209.42c.89 1.7 1.5 3.02 2.25 4.25 1.27 2.1 2.51 4.23 3.95 6.22 10.51 14.49 23.45 26.69 36.42 38.89 8.13 7.65 17.38 12.78 28.52 14.49 6.92 1.06 13.01 3.93 17.62 9.46.59.71 1.56 1.3 2.47 1.53 4 1.01 8.03 1.89 12.05 2.79 3.99.9 10.55-1.54 11.75-4.53 5.38-13.44 9.33-27.26 11-41.68 2.24-19.31.48-38.42-2.85-57.43-1.26-7.21-3.4-14.18-9.65-18.98-2.74-2.11-5.08-2.78-8.65-.87-26.33 14.06-53.13 27.16-81.17 37.52-7.72 2.85-15.53 5.47-23.71 8.34z" fill="#010103"/></svg>