<svg enable-background="new 0 0 400 400" viewBox="0 0 400 400" xmlns="http://www.w3.org/2000/svg"><g fill="#fbfafa"><path d="m37.59 393.81c-.92.31-1.52.05-2-.78-.7-1.2-1.52-2.34-2.47-3.78v4.59c-.55.03-.95.05-1.41.07-.03-.37-.06-.64-.06-.91 0-1.91 0-3.81 0-5.7 1.13-.41 1.77-.03 2.29.91.62 1.11 1.38 2.14 2.31 3.19v-4.2h1.35v6.61z"/><path d="m12.94 393.88v-6.75c1.9.19 3.93-.54 5.37 1.29.8 1.01.78 2.88.03 3.97-1.37 1.97-3.4 1.51-5.4 1.49m1.45-1.22c2.04.12 2.92-.58 2.89-2.21-.03-1.51-.98-2.19-2.89-2z"/><path d="m11.81 393.87h-5.49c.68-2.18 2.47-3.48 3.51-5.45h-3.08v-1.21h5.29c-.71 2.13-2.44 3.48-3.47 5.51.86 0 1.63.04 2.39-.01.79-.05 1.14.21.85 1.16"/><path d="m39.33 393.86v-6.61h3.7v1.07h-2.22v1.52c.68.04 1.34.09 2.07.13v1.07c-.72.05-1.38.09-2.1.14v1.48h2.4v1.19h-3.85z"/><path d="m27.71 388.56c-1.15-.3-2.46-.61-3.1.64-.37.73-.41 1.93-.06 2.67.63 1.35 1.99.93 3.17.68.35.94-.01 1.32-.93 1.46-1.62.25-3.05-.27-3.76-1.48-.73-1.24-.6-3.03.31-4.17.88-1.11 2.71-1.7 4-1.16.32.13.44.74.65 1.12-.1.08-.19.16-.28.24"/><path d="m49.15 387.24v1.07c-.59.02-1.17.05-1.87.08v5.44h-1.48v-5.44h-1.85c-.05-.4-.08-.73-.13-1.15z"/><path d="m20.06 387.21h1.33v6.62h-1.33z"/><path d="m30.68 393.25c-.49.38-.8.79-1.05.76-.32-.05-.6-.45-.9-.7.26-.24.51-.64.8-.67.29-.04.62.3 1.15.61"/></g><path d="m90.49 352.54c5.76-2.6 11.36-5.66 17.31-7.7 22.16-7.59 44.74-13.45 68.26-14.86 2.34-.14 3.53-1.04 3.83-3.26 1.31-9.63 3.32-19.22 3.77-28.89 1.57-33.87 2.61-67.76 3.82-101.64.6-16.89 1.13-33.78 1.68-50.67.03-1 0-2 0-3.56-3.52 0-6.95-.17-10.36.03-8.04.49-15.71-.81-23.37-3.34-11.24-3.72-22.7-6.77-33.98-10.37-2.03-.65-4.15-2.21-5.4-3.94-6.5-9.05-6.93-19.23-5.33-29.87 1.35-8.95 2.14-17.99 3.12-26.99.14-1.32.25-2.75-.1-4.01-2.15-7.77-.97-15.03 3.27-21.77 1.2-1.9 2.77-3.72 4.57-5.05 2.54-1.88 5.5-2.08 8.63-1.06 4.75 1.55 9.57 1.71 13.79-1.41 6.44-4.78 13.32-6.09 21.09-4.02 7.89 2.11 15.73.86 23.44-1.27 10.46-2.9 21.03-4 31.84-2.61 14.63 1.87 29.27 3.57 43.9 5.43 12.46 1.58 19.4 9.07 23.02 20.78 4.21 13.62 4.73 27.55 4.19 41.52-.42 10.93-1.85 21.81-2.89 32.71-.09.95-.42 2.06-1.04 2.74-5.06 5.52-10.86 10.05-18.26 11.94-1.12.29-2.93-.59-3.88-1.5-1.69-1.62-3.22-2.02-5.34-1.02-12.54 5.93-26.06 5.51-39.43 5.99-2.01.07-4.06.46-6.02.2-3.25-.42-4.36 1.51-5.09 4-1.6 5.43-1.05 10.84.23 16.24 1.45 6.08 2.88 12.17 4.28 18.26 1.72 7.46-.68 14.66-1.51 21.95-2.12 18.62-2.37 37.32-1.47 55.99.67 13.94 1.72 27.93 3.79 41.73 1.18 7.89-1.16 15.03-1.74 22.52-.05.65-.17 1.29-.36 2.71 4.3 0 8.44-.39 12.49.07 16.87 1.9 33.77 3.67 50.55 6.26 8.97 1.39 17.36 5.07 24.47 11.1 1.36 1.16 2.86 2.16 4.29 3.23-.22.39-.44.78-.65 1.17-5.28 1.21-10.54 2.51-15.83 3.62-5.47 1.15-10.7 2.71-15.84 5.12-10.83 5.08-22.67 6.68-34.38 8.49-4.31.67-8.68.91-12.99 1.56-5.31.79-10.41.44-15.47-1.51-1.18-.46-3.05-.12-4.22.54-3.3 1.87-6.34 4.2-9.63 6.1-.96.56-2.72.83-3.56.32-8.06-4.89-16.74-5.54-25.82-4.38-3.98.51-8.03.43-12.05.64-2.68.14-5.21.23-7.5-1.82-2-1.79-4.19-1.43-6.76-.11-2.54 1.3-5.87 2.33-8.56 1.85-12.48-2.2-24.7-5.38-35.33-12.78-1.82-1.27-3.5-2.74-5.25-4.11-.09-.44-.16-.87-.22-1.29zm168-294.2c-.71-.18-1.13-.34-1.56-.39-11.77-1.34-23.55-2.72-35.33-3.97-5.88-.63-11.94-2.13-17.65-1.32-19.47 2.75-38.81 6.38-58.21 9.6-1.84.31-2.59 1.12-2.98 2.89-1.28 5.89-2.12 11.99-4.27 17.56-3.04 7.87-1.62 13.67 5.25 18.57 2.68 1.91 4.69 4.37 8.31 5.11 22.75 4.7 45.73 7.21 68.93 7.15 13.27-.03 26.26-2.18 38.33-8.29 1.94-.98 2.45-2.06 2.25-4.14-.56-6.01-.86-12.05-1.29-18.07-.57-8.23-1.18-16.47-1.78-24.7zm-88.55 295.98c1.66-1.6 2.93-2.81 4.38-4.21-1.57-1.48-3.22-3.03-5.6-5.26.47 3.67.81 6.35 1.22 9.47z" fill="#010000"/></svg>