<svg enable-background="new 0 0 400 400" viewBox="0 0 400 400" xmlns="http://www.w3.org/2000/svg"><path d="m5.17 384 .55-.58c.85.61 1.65 1.24 2.4 1.87l-.59.64c-.83-.73-1.62-1.38-2.36-1.93m1.22 9.53-.82-.34c.71-1.76 1.37-3.64 1.98-5.63.24.13.5.25.76.36-.6 1.67-1.24 3.54-1.92 5.61m-.5-13.5.57-.54c.56.44 1.31 1.06 2.26 1.87l-.64.64c-.68-.66-1.41-1.32-2.19-1.97m3.25.46h2.24v-1.36h.77v1.36h4.57v-1.36h.76v1.36h2.28v.69h-2.28v1.84h-2.64v1.26h4.18v2.64h-4.21c0 .45-.02.86-.05 1.21h4.32v.69h-4.38c-.04.34-.1.75-.19 1.22h5.15v.69h-4.82c.87 1.19 2.51 1.92 4.93 2.19-.17.31-.3.57-.37.76-2.77-.49-4.52-1.41-5.26-2.76-.56 1.26-2.3 2.23-5.24 2.9-.12-.24-.26-.48-.43-.72 2.73-.55 4.38-1.34 4.96-2.38h-4.38v-.69h4.65c.1-.38.17-.79.21-1.22h-4.32v-.69h4.4c.03-.34.05-.75.05-1.21h-4.2v-2.64h4.23v-1.26h-2.69v-1.84h-2.24zm1.46 4.46v1.29h3.45c.01-.4.02-.57.01-.53v-.32-.45h-3.46zm1.55-2.59h4.57v-1.19h-4.57zm6.11 2.59h-3.42v.77c-.01.19-.01.37-.02.53h3.44z" fill="#fafafc"/><path d="m32.63 379.16h.82v1.98h3.54v7.89h1.46v.78h-14.37v-.78h1.46v-7.89h3.54v-1.98h.82v1.98h2.73zm-3.49 11.48.5.73c-1.61.82-3.28 1.63-5 2.41-.13-.27-.28-.55-.44-.82 1.75-.72 3.4-1.49 4.94-2.32m-2.78-5.55h2.73v-3.18h-2.73zm0 3.95h2.73v-3.2h-2.73zm3.54-3.95h2.73v-3.18h-2.73zm0 3.95h2.73v-3.2h-2.73zm7.89 4.68c-1.84-.92-3.51-1.7-5.02-2.32l.45-.73c1.89.8 3.57 1.55 5.04 2.23zm-1.62-11.81h-2.73v3.18h2.73zm-2.73 7.13h2.73v-3.2h-2.73z" fill="#fafafc"/><path d="m92.43 101.81c-2.7-8.55-2.97-16.7.53-24.37 4.07-8.93 8.93-17.5 13.6-26.14.53-.98 1.98-1.78 3.14-2.07 31.04-7.62 62.07-15.31 93.2-22.57 4.88-1.14 10.24-.58 15.35-.28 18.93 1.11 37.12 5.44 54.38 13.39 18.12 8.35 30.83 22.24 40.02 39.63 1.24 2.34 2.3 4.78 3.52 7.34-11.08 5.58-22.35 6.17-33.63 2.03-8.69-3.19-16.88-7.74-25.62-10.74-6.47-2.22-13.45-3.07-20.24-4.25-5.48-.95-9.64 2.09-13.55 5.37-7.79 6.53-11.77 15.24-12.93 25.04-1.35 11.42-2.65 22.92-2.71 34.39-.29 50.37-.14 100.75-.06 151.13 0 2.11.62 4.42 1.6 6.3 4.01 7.74 8.17 15.41 12.5 22.98.92 1.6 2.54 3.15 4.21 3.91 10.57 4.82 21.86 7.33 33.25 8.91 15.16 2.1 30.39 4.03 45.65 4.91 7.8.45 15.75-1.4 23.6-2.47 8.07-1.1 16.11-2.53 24.67-3.89-.47 5.29-1.24 10.24-1.25 15.18-.01 5.27-2.35 8.63-6.57 11.46-11.59 7.79-23.7 14.28-37.37 17.68-6.79 1.69-13.32.46-19.94-.58-4.53-.71-9.05-1.5-13.58-2.18-.95-.14-2.02-.15-2.93.13-18.49 5.66-37.21 5.28-56.16 2.74-20.76-2.77-41.63-3.64-62.6-2.76-16.43.69-32.89.62-49.33.88-15.1.24-30.21.51-45.31.62-1.27.01-3.03-.77-3.73-1.77-7.56-10.64-12.19-22.27-11.9-35.62.06-2.89.72-4.02 3.63-4.63 14.99-3.11 30-3.15 45.03-.56 13.66 2.35 27.11 1.84 40.51-1.97 16.11-4.57 25.86-15.22 29.59-31.14 3.77-16.1 7-32.33 9.95-48.6 4.61-25.41 9.09-50.85 13.05-76.37 3.85-24.81 3.44-49.74.02-74.61-.58-4.21-1.44-8.38-1.87-12.6-.26-2.52-1.55-3.98-3.49-5.3-8.74-5.92-18.42-7.51-28.55-5.49-9.85 1.96-19.57 4.54-29.31 6.99-1.67.42-3.31 1.36-4.72 2.39-7.78 5.69-15.47 11.47-23.65 17.56z" fill="#010101"/></svg>