<svg enable-background="new 0 0 400 400" viewBox="0 0 400 400" xmlns="http://www.w3.org/2000/svg"><g fill="#fbfafa"><path d="m37.59 393.81c-.92.31-1.52.05-2-.78-.7-1.2-1.52-2.34-2.47-3.78v4.59c-.55.03-.95.05-1.41.07-.03-.37-.06-.64-.06-.91 0-1.91 0-3.81 0-5.7 1.13-.41 1.77-.03 2.29.91.62 1.11 1.38 2.14 2.31 3.19v-4.2h1.35v6.61z"/><path d="m12.94 393.88v-6.75c1.9.19 3.93-.54 5.37 1.29.8 1.01.78 2.88.03 3.97-1.37 1.97-3.4 1.51-5.4 1.49m1.45-1.22c2.04.12 2.92-.58 2.89-2.21-.03-1.51-.98-2.19-2.89-2z"/><path d="m11.81 393.87h-5.49c.68-2.18 2.47-3.48 3.51-5.45h-3.08v-1.21h5.29c-.71 2.13-2.44 3.48-3.47 5.51.86 0 1.63.04 2.39-.01.79-.05 1.14.21.85 1.16"/><path d="m39.33 393.86v-6.61h3.7v1.07h-2.22v1.52c.68.04 1.34.09 2.07.13v1.07c-.72.05-1.38.09-2.1.14v1.48h2.4v1.19h-3.85z"/><path d="m27.71 388.56c-1.15-.3-2.46-.61-3.1.64-.37.73-.41 1.93-.06 2.67.63 1.35 1.99.93 3.17.68.35.94-.01 1.32-.93 1.46-1.62.25-3.05-.27-3.76-1.48-.73-1.24-.6-3.03.31-4.17.88-1.11 2.71-1.7 4-1.16.32.13.44.74.65 1.12-.1.08-.19.16-.28.24"/><path d="m49.15 387.24v1.07c-.59.02-1.17.05-1.87.08v5.44h-1.48v-5.44h-1.85c-.05-.4-.08-.73-.13-1.15z"/><path d="m20.06 387.21h1.33v6.62h-1.33z"/><path d="m30.68 393.25c-.49.38-.8.79-1.05.76-.32-.05-.6-.45-.9-.7.26-.24.51-.64.8-.67.29-.04.62.3 1.15.61"/></g><path d="m153.65 229.12c.07-.29.06-.43.12-.48 12.26-10.21 13.22-23.39 10.44-37.88-2-10.42-3.02-21.02-4.78-31.49-.38-2.25-1.89-4.41-3.24-6.38-2.14-3.12-6.05-5.86-6.47-9.11-.42-3.24 2.32-7.02 4.08-10.36 2.79-5.28 3.75-10.64 3.37-16.7-.93-14.74-1.24-29.51-1.62-44.28-.07-2.59-1.06-4.12-3.16-5.36-7.28-4.32-15.4-5.92-23.58-7.18-12.05-1.85-24.13-3.51-35.34-8.74-.91-.43-1.8-.89-2.69-1.37-.28-.15-.49-.43-.99-.89 2.58-.42 4.94-.66 7.24-1.2 2.96-.71 4.88-2.2 4.85-5.78-.04-3.98 4.74-8.99 9.17-10.06 7.82-1.89 15.62-3.92 23.53-5.38 3.55-.65 7.33-.06 11.01-.03 19.91.16 39.83.4 59.74.45 10.42.03 20.83-.11 30.83 3.44 11.51 4.09 15.99 12.52 12.76 24.28-.34 1.25-1.57 2.74-2.75 3.19-9.58 3.72-19.23 7.27-28.92 10.7-1.14.4-2.82.18-3.93-.39-2.77-1.42-5.35-3.2-8.23-4.97-3.93 7.34-6.05 15-7.18 22.98-2.24 15.87.42 31.41 2.89 47.01 2.94 18.59 3.28 37.19-1.48 55.61-.4 1.54-.64 2.8.97 4.1 9.38 7.58 14 17.84 15.7 29.47 1.94 13.28 3.16 26.67 5.46 39.88 1.24 7.09 4.07 13.9 6.24 20.82 1.47 4.69 2.87 9.41 4.62 14 2.5 6.56 3.96 13.21 3.51 20.29-.09 1.34.93 3.21 2.03 4.11 7.56 6.19 16.56 8.46 26.04 7.78 10.69-.76 21.31-2.45 31.98-3.59 6.22-.67 12.47-1.13 18.72-1.55 1.02-.07 2.27.27 3.09.87 5.07 3.67 10.04 7.46 15.43 11.5-1.1.46-1.83.83-2.6 1.09-5.51 1.83-10.95 3.98-16.57 5.37-16.68 4.13-31.27 12.74-45.35 21.93-12.14 7.93-25.17 10.52-39.19 11.58-26.29 1.99-52.55.7-78.8-.13-19.38-.61-38.66.42-57.97 1.53-9.44.54-18.43-1.7-26.99-5.58-.95-.43-1.71-1.92-1.97-3.06-.62-2.72-.72-5.55-1.33-8.27-.6-2.71.13-3.88 2.97-4.58 30.82-7.59 61.59-15.36 92.41-22.93 2.93-.72 4.67-2.2 6.04-4.67 3.84-6.92 3.72-14.02 1.57-21.43-2.2-7.59-4.42-15.23-5.84-22.99-.67-3.65.12-7.74.97-11.47 1.51-6.63 3.76-13.08 5.34-19.7 1.37-5.74.02-11.34-2.12-16.71-.37-.93-1.31-1.76-2.18-2.35-2.58-1.72-5.26-3.32-7.85-4.94zm45.03 86.5c-2.23-2.84-4.21-5.35-6.17-7.84-9.66 6.5-9.41 4.58-5.99 11.88 3.87-1.28 7.76-2.57 12.16-4.04z" fill="#010000"/></svg>