<svg enable-background="new 0 0 400 400" viewBox="0 0 400 400" xmlns="http://www.w3.org/2000/svg"><path d="m172.42 247.75c-.28-6.3-.66-12.43-.81-18.57-.57-23.15-1.16-46.3-1.49-69.46-.05-3.28-1.04-5.02-4.06-5.74-3.57-.85-7.13-1.89-10.75-2.42-4.22-.61-7.53-2.53-10.41-5.56-.61-.65-2.06-1.36-2.62-1.07-8.25 4.18-17.15 4.1-25.96 3.68-19.25-.93-38.24-3.81-56.98-8.39-2.71-.66-3.78-2.06-3.71-4.59.21-7.41 1.66-13.93 9.13-17.97 12.52-6.77 26-10.01 39.89-12.02 7.19-1.04 14.41-2.36 21.64-2.56 9.36-.27 18.76.26 28.13.76 20.77 1.11 41.53 2.49 62.3 3.56 3.19.17 6.48-.43 9.64-1.08 8.06-1.66 15.96-.63 23.92.73 13.77 2.36 27.6 4.39 41.38 6.71 3.73.63 7.45 1.59 11.04 2.81 8.66 2.93 17.54 4.3 26.64 4.45.45.01.89.04 1.34.07 9.29.66 12.03 4.12 10.28 13.29-.19 1-1.34 2.34-2.3 2.61-10.23 2.84-20.43 5.86-30.8 8.06-5.29 1.12-10.9.71-16.37.93-16.98.66-33.97 1.24-50.95 2.03-1.39.06-3.14 1.15-4.01 2.3-3.31 4.39-3.45 9.54-2.8 14.76.28 2.22.72 4.42.91 6.65.62 7.2.63 14.29-3.23 20.84-6.7 11.35-8.76 23.98-10 36.84-.43 4.45-1.03 8.89-1.79 13.3-.34 1.97.06 3.42 1.82 4.13 3.06 1.22 6.14 2.67 9.35 3.14 3.15.46 6.46-.38 9.69-.3 3.29.09 6.56.67 9.84.94 2.97.25 5.98.72 8.93.49 17.73-1.35 35.45-2.87 53.17-4.31.98-.08 2.02.05 2.98.27 12.73 2.9 25.31 6.52 38.51 6.92 2.94.09 5.92 1.15 8.74 2.16 7.6 2.7 10.81 7.27 10.22 15.3-.59 7.96.85 6.52-6.92 7.46-14.88 1.8-29.72 4.11-44.65 5.19-18.17 1.31-36.41 1.59-54.63 2.27-26.37.99-52.76 1.58-79.1 3.13-9.28.54-18.43 3.37-27.64 5.18-5.81 1.14-11.56 2.79-17.43 3.36-4.14.41-8.49-.26-12.63-1.04-10.51-1.99-21.02-1.16-31.4.24-14.01 1.89-27.62 0-41.28-2.44-7.48-1.33-15.01-2.41-22.49-3.77-1.26-.23-2.65-1.12-3.46-2.12-2.45-3.04-4.58-6.35-6.98-9.44-1.4-1.81-1.51-3.51-1.33-5.82.49-6.44 4.05-9.84 9.39-12.9 14.73-8.43 30.48-11.01 46.94-8.51 10.89 1.65 21.51.84 32.34 0 6.2-.48 12.57 1.26 18.85 2.06 1.66.21 3.32.54 4.93.98 4.67 1.26 9.15.88 13.77-.65 7.63-2.5 15.39-4.56 23.27-6.87z" fill="#010000"/><g fill="#fbfcfa"><path d="m361.2 9.6.8-1c.9.7 1.9 1.4 2.9 2.3l-.9 1.1c-1-1-2-1.8-2.8-2.4zm.5 10.6c.9-2.1 1.6-4.3 2.3-6.7.4.2.8.4 1.3.6-.7 2.1-1.5 4.3-2.2 6.6zm.4-15.2.9-.9c1 .8 2 1.6 2.8 2.4l-1 1c-.9-.9-1.8-1.7-2.7-2.5zm12.5-1.2h1.2v1.4h2.7v1.1h-2.7v2.7h-1.2v-.6h-1.8v1.3h4.9v3.8h-1.2v-.5h-3.7c0 .4-.1.9-.1 1.2h5.1v1h-5.2c0 .5-.1.9-.2 1.2h6v1h-5.2c1.1 1.3 2.9 2 5.5 2.2-.4.4-.7.8-.9 1.3-2.9-.5-4.8-1.6-5.7-3.5h-.1c-.8 1.7-2.7 2.9-5.9 3.6-.2-.4-.6-.8-.9-1.1 2.8-.6 4.6-1.4 5.4-2.5h-4.8v-1h5.3c.1-.3.2-.7.2-1.2h-4.9v-1h5c0-.4 0-.8.1-1.2h-3.5v.5h-1.2v-3.8h4.9v-1.3h-1.8v.5h-1.2v-2.7h-2.7v-1h2.6v-1.4h1.2v1.4h4.7v-1.4zm-6.6 8.3h3.6c0-.4 0-.9 0-1.4h-3.6zm1.9-4.6h4.7v-1.3h-4.7zm6.6 3.2h-3.7v1.4h3.7z"/><path d="m385.3 3.8h1.3v2.2h2.8v-2.2h1.3v2.2h4.1v9.1h1.7v1.3h-16.9v-1.3h1.7v-9.1h4.1v-2.2zm.4 13.1.7 1.2c-1.8.9-3.8 1.9-6 2.9-.2-.4-.5-.8-.8-1.3 2.3-1 4.3-1.9 6.1-2.8zm-3.1-6.4h2.8v-3.2h-2.8zm0 4.6h2.8v-3.3h-2.8zm4-4.6h2.8v-3.2h-2.8zm0 4.6h2.8v-3.3h-2.8zm3.7 1.9c2.1.9 4.1 1.8 6.1 2.7l-.7 1.3c-2.2-1.1-4.2-2-6.1-2.9zm3.2-9.7h-2.8v3.2h2.8zm-2.8 7.8h2.8v-3.3h-2.8z"/></g></svg>