<svg enable-background="new 0 0 400 400" viewBox="0 0 400 400" xmlns="http://www.w3.org/2000/svg"><path d="m362.1 8.8c1.1.8 2.1 1.6 3.1 2.4l-1 1.1c-1.3-1.1-2.3-2-3-2.5zm1.9 4.8c.5.2.9.4 1.4.5-.6 2.3-1.3 4.5-1.9 6.8l-1.5-.5c.8-2.1 1.4-4.3 2-6.8zm-1-9.4c1.3.9 2.4 1.8 3.4 2.5l-1 1.1c-1.4-1.2-2.4-2.1-3.2-2.6zm3.7 2.2v-1.4h10.3v1.2c-.5 3.6-1.8 6.8-4 9.4 1.5 1.6 3.4 2.8 5.7 3.8-.3.4-.7.8-1.1 1.4-2.3-1.1-4.1-2.5-5.6-4.1-1.6 1.6-3.6 3.1-5.9 4.3-.3-.5-.7-.9-1-1.3 2.4-1.1 4.4-2.5 6-4.1-1.9-2.5-3-5.6-3.3-9.3h-1.1zm8.8 0h-6.4c.3 3.3 1.3 6 3 8.2 2-2.3 3.1-5.1 3.4-8.2z" fill="#fbfcfa"/><path d="m385.3 3.8h1.3v2.2h2.8v-2.2h1.3v2.2h4.1v9.1h1.7v1.3h-16.9v-1.3h1.7v-9.1h4.1v-2.2zm.4 13.1.7 1.2c-1.8.9-3.8 1.9-6 2.9-.2-.4-.5-.8-.8-1.3 2.3-1 4.3-1.9 6.1-2.8zm-3.1-6.4h2.8v-3.2h-2.8zm0 4.6h2.8v-3.3h-2.8zm4-4.6h2.8v-3.2h-2.8zm0 4.6h2.8v-3.3h-2.8zm3.7 1.9c2.1.9 4.1 1.8 6.1 2.7l-.7 1.3c-2.2-1.1-4.2-2-6.1-2.9zm3.2-9.7h-2.8v3.2h2.8zm-2.8 7.8h2.8v-3.3h-2.8z" fill="#fbfcfa"/><g fill="#010106"><path d="m78.84 349.64c14.08-1.64 28.16-3.29 42.25-4.91 20.23-2.33 40.45-4.66 60.68-6.9 2.62-.29 3.96-1.23 4.84-3.92 5.99-18.31 6.31-37.13 5.76-56.12-1.06-36.8-1.97-73.61-2.69-110.43-.64-32.68-.94-65.36-1.39-98.04-.01-.55-.08-1.1-.16-2.08-39.27-4.09-78.5-8.18-117.73-12.27-.02-.16-.04-.32-.06-.49 3.42-.38 6.84-.82 10.28-1.13 27.74-2.55 55.44-5.67 83.23-7.45 26.91-1.73 53.88-1.53 80.81 1 23.16 2.17 46.37 3.83 69.63 6.21-4.94.66-9.87 1.36-14.82 1.97-27.53 3.4-55.07 6.73-82.58 10.27-1.55.2-3.34 1.71-4.25 3.11-4.59 7.07-5.65 15.23-4.99 23.25 4.97 61.03 1.54 122.16 2.56 183.23.06 3.43 2.97 7.24 6.24 7.74.72.11 1.66-.46 2.34-.93 7.93-5.44 15.87-10.88 23.72-16.44 1.43-1.01 2.64-2.41 3.72-3.8 13.59-17.5 27.15-35.03 40.71-52.55.74-.96 1.53-1.89 2.69-3.32 1.84 7.08 1.36 13.63-.03 20.15-5.52 26-20.62 44.68-43.88 57.01-4.83 2.56-9.77 4.95-14.79 7.14-1.46.64-3.45.69-5.03.33-3.67-.84-7.24-2.1-11.04-3.25v48.53c37.15 3.33 74.3 6.65 111.44 9.98.02.17.04.34.05.52-8.27 1.12-16.51 2.54-24.81 3.32-24.27 2.26-48.53 4.9-72.86 6.16-17.17.89-34.46.05-51.68-.52-21.13-.7-42.24-1.86-63.35-2.92-11.61-.58-23.2-1.34-34.81-2.02 0-.15 0-.29 0-.43z"/><path d="m223.95 209.44c26.42-22.51 53.16-44.28 67.72-77.65 5.28 8.63 6.07 16.8 2.99 24.76-3.53 9.12-8.21 17.8-12.44 26.65-.87 1.81-2.13 3.44-2.93 5.27-3.85 8.89-10.89 14.14-19.57 17.69-10.54 4.3-21.33 6.45-32.7 4.16-.85-.19-1.68-.49-3.07-.88z"/><path d="m228.5 146.85c29.49-18.46 44.32-47.34 59.14-76.89 6.32 20.62 3.27 39.77-9.5 55.69-10.1 12.59-30.83 25.07-49.64 21.2z"/></g></svg>