<svg enable-background="new 0 0 400 400" viewBox="0 0 400 400" xmlns="http://www.w3.org/2000/svg"><path d="m5.17 384 .55-.58c.85.61 1.65 1.24 2.4 1.87l-.59.64c-.83-.73-1.62-1.38-2.36-1.93m1.22 9.53-.82-.34c.71-1.76 1.37-3.64 1.98-5.63.24.13.5.25.76.36-.6 1.67-1.24 3.54-1.92 5.61m-.5-13.5.57-.54c.56.44 1.31 1.06 2.26 1.87l-.64.64c-.68-.66-1.41-1.32-2.19-1.97m3.25.46h2.24v-1.36h.77v1.36h4.57v-1.36h.76v1.36h2.28v.69h-2.28v1.84h-2.64v1.26h4.18v2.64h-4.21c0 .45-.02.86-.05 1.21h4.32v.69h-4.38c-.04.34-.1.75-.19 1.22h5.15v.69h-4.82c.87 1.19 2.51 1.92 4.93 2.19-.17.31-.3.57-.37.76-2.77-.49-4.52-1.41-5.26-2.76-.56 1.26-2.3 2.23-5.24 2.9-.12-.24-.26-.48-.43-.72 2.73-.55 4.38-1.34 4.96-2.38h-4.38v-.69h4.65c.1-.38.17-.79.21-1.22h-4.32v-.69h4.4c.03-.34.05-.75.05-1.21h-4.2v-2.64h4.23v-1.26h-2.69v-1.84h-2.24zm1.46 4.46v1.29h3.45c.01-.4.02-.57.01-.53v-.32-.45h-3.46zm1.55-2.59h4.57v-1.19h-4.57zm6.11 2.59h-3.42v.77c-.01.19-.01.37-.02.53h3.44z" fill="#fafafc"/><path d="m32.63 379.16h.82v1.98h3.54v7.89h1.46v.78h-14.37v-.78h1.46v-7.89h3.54v-1.98h.82v1.98h2.73zm-3.49 11.48.5.73c-1.61.82-3.28 1.63-5 2.41-.13-.27-.28-.55-.44-.82 1.75-.72 3.4-1.49 4.94-2.32m-2.78-5.55h2.73v-3.18h-2.73zm0 3.95h2.73v-3.2h-2.73zm3.54-3.95h2.73v-3.18h-2.73zm0 3.95h2.73v-3.2h-2.73zm7.89 4.68c-1.84-.92-3.51-1.7-5.02-2.32l.45-.73c1.89.8 3.57 1.55 5.04 2.23zm-1.62-11.81h-2.73v3.18h2.73zm-2.73 7.13h2.73v-3.2h-2.73z" fill="#fafafc"/><path d="m194.21 45.14c32.99-.93 65.97-1.9 98.96-2.8 10.05-.28 20.11-.44 30.17-.53 2.45-.02 4.91.34 7.34.72 3.82.59 7.07 2.63 8.03 6.29 1.46 5.55 2.15 11.32 2.87 17.04.1.77-1.38 2.1-2.4 2.6-11.24 5.4-23.25 8.15-35.58 8.82-14.74.8-29.52.72-44.28 1.14-11.3.33-22.49 1.41-33.57 4.03-9.09 2.15-13.72 8.14-16.5 16.31-2.54 7.49-1.59 15.15-.39 22.61 3.34 20.65.87 41.04-1.87 61.47-2.17 16.17-4.74 32.32-5.96 48.57-1.01 13.39 1.78 26.5 7.59 38.79.38.79.83 1.63 1.46 2.21 13.66 12.67 28.15 24.25 44.74 32.92 9.05 4.73 18.51 6.8 28.85 4.8 3.79-.73 8.04-.28 11.86.6 19.27 4.45 38.52 9.05 57.68 13.95 9.41 2.4 16.6 7.74 19.03 17.81 1.33 5.48.87 6.22-4.2 8.18-8.45 3.26-16.86 6.59-25.36 9.7-1.64.6-3.65.56-5.42.31-2.19-.31-4.36-1.02-6.46-1.76-11.88-4.18-24.1-4.95-36.63-4.89-57.66.26-115.31.26-172.97 0-12.11-.06-24.15-.46-36.04 2.18-8.07 1.79-16.02 4.19-24.15 5.57-10.37 1.76-20.76.95-30.9-1.91-1.35-.38-2.73-1.81-3.42-3.12-4.07-7.72-3.64-7.5 1.44-14.4 4.41-6 9.76-9.01 17.13-10.01 23.97-3.23 44.92-14.65 65.84-25.74 10.83-5.74 21.2-12.45 31.35-19.35 11.38-7.74 18.15-18.73 19.63-32.57 2.57-23.95 8.47-47.31 12.28-71.03 1.1-6.84.09-14.04-.15-21.07-.81-23.27-1.83-46.52-2.47-69.79-.1-3.57-1.46-5.21-4.43-6.44-9.15-3.79-18.8-4.95-28.55-5.19-11.29-.28-22.61.3-33.9-.15-17.21-.71-34.39-1.9-51.56-3.01-2.88-.19-5.75-.89-8.57-1.59-7.99-1.97-13.03-8.49-13.02-16.96 0-.95.96-2.14 1.81-2.8 12.08-9.39 26.01-12.37 40.99-11.8 20.34.77 40.68 1.96 61.02 2.02 19.55.06 39.12-1.11 58.68-1.73z" fill="#010101"/></svg>