<svg enable-background="new 0 0 400 400" viewBox="0 0 400 400" xmlns="http://www.w3.org/2000/svg"><path d="m361.2 9.6.8-1c.9.7 1.9 1.4 2.9 2.3l-.9 1.1c-1-1-2-1.8-2.8-2.4zm.5 10.6c.9-2.1 1.6-4.3 2.3-6.7.4.2.8.4 1.3.6-.7 2.1-1.5 4.3-2.2 6.6zm.4-15.2.9-.9c1 .8 2 1.6 2.8 2.4l-1 1c-.9-.9-1.8-1.7-2.7-2.5zm12.5-1.2h1.2v1.4h2.7v1.1h-2.7v2.7h-1.2v-.6h-1.8v1.3h4.9v3.8h-1.2v-.5h-3.7c0 .4-.1.9-.1 1.2h5.1v1h-5.2c0 .5-.1.9-.2 1.2h6v1h-5.2c1.1 1.3 2.9 2 5.5 2.2-.4.4-.7.8-.9 1.3-2.9-.5-4.8-1.6-5.7-3.5h-.1c-.8 1.7-2.7 2.9-5.9 3.6-.2-.4-.6-.8-.9-1.1 2.8-.6 4.6-1.4 5.4-2.5h-4.8v-1h5.3c.1-.3.2-.7.2-1.2h-4.9v-1h5c0-.4 0-.8.1-1.2h-3.5v.5h-1.2v-3.8h4.9v-1.3h-1.8v.5h-1.2v-2.7h-2.7v-1h2.6v-1.4h1.2v1.4h4.7v-1.4zm-6.6 8.3h3.6c0-.4 0-.9 0-1.4h-3.6zm1.9-4.6h4.7v-1.3h-4.7zm6.6 3.2h-3.7v1.4h3.7z" fill="#fbfcfa"/><path d="m385.3 3.8h1.3v2.2h2.8v-2.2h1.3v2.2h4.1v9.1h1.7v1.3h-16.9v-1.3h1.7v-9.1h4.1v-2.2zm.4 13.1.7 1.2c-1.8.9-3.8 1.9-6 2.9-.2-.4-.5-.8-.8-1.3 2.3-1 4.3-1.9 6.1-2.8zm-3.1-6.4h2.8v-3.2h-2.8zm0 4.6h2.8v-3.3h-2.8zm4-4.6h2.8v-3.2h-2.8zm0 4.6h2.8v-3.3h-2.8zm3.7 1.9c2.1.9 4.1 1.8 6.1 2.7l-.7 1.3c-2.2-1.1-4.2-2-6.1-2.9zm3.2-9.7h-2.8v3.2h2.8zm-2.8 7.8h2.8v-3.3h-2.8z" fill="#fbfcfa"/><g fill="#010105"><path d="m94.4 238.51c9.03-7.78 17.92-15.09 26.38-22.86 5.67-5.21 9.29-11.87 11.84-19.23 2.25-6.49-.52-12.35-5.08-14.53-9.99-4.79-10.57-13.19-11.57-22.01-1.64-14.45 3.32-26.58 13.38-36.63 9.18-9.18 18.83-17.89 28.12-26.96 2.78-2.71 5.24-5.8 7.51-8.95 6.07-8.45 11.97-17.03 17.92-25.56.64-.91 1.7-1.89 1.69-2.83-.06-4.69 2.95-8 4.77-11.87 1.35-2.87 1.71-6.21 2.54-9.32 1.08-4.05 2.2-8.09 3.46-12.72 3.32 2.5 4.75 4.84 4.12 8.2-.2 1.1-.35 2.22-.39 3.33-.16 4.56 1.2 6.78 5.66 7.77 3.45.77 7.07.97 10.63 1.02 4.82.07 9.35.73 13.21 3.93.4.34.95.68 1.45.7 4.94.19 9.88.27 14.82.47.74.03 1.5.4 2.19.72 11.5 5.33 21.78 12.3 29.88 22.21.64.78 1.28 1.56 2.01 2.26 17.11 16.31 12.62 38.09 5.09 53.28-.15.3-.29.64-.52.85-8.43 7.6-10.52 18.37-14.44 28.29-1.83 4.62-1.28 7.68 2 11.5 9.22 10.74 15.67 23.01 18.71 37.02 1.18 5.42 3.38 10.61 4.89 15.97 1.17 4.15 2.35 8.35 2.91 12.61.9 6.85 1.31 13.77 1.94 20.88-1.81.28-3.33.51-5.13.78-1.5-4.17-2.92-8.25-4.44-12.29-6.09-16.2-13.47-31.75-24.37-45.3-6.32-7.87-14.08-14.09-24.2-16.56-4.48-1.09-8.9-.43-13.11 1.41-5.22 2.28-10.37 4.76-15.66 6.87-2.96 1.18-6.15 1.81-9.24 2.67-.53.15-1.19.09-1.61.38-5.34 3.67-11.62 3.58-17.65 4.6-3.73.63-7.6 1.18-11.05 2.63-6.37 2.68-12.29 1.84-18.03-1.28-2.7-1.47-4.17-.88-6.17 1.28-9.21 9.92-18.4 19.88-28.07 29.34-5.77 5.64-13.21 8.62-21.23 10.08-2.76.51-4.53-.11-5.16-2.15zm53.11-72.1c1.2-6.09 5.25-8.83 9.36-11.25 5.67-3.35 11.89-5.86 17.31-9.54 6.02-4.1 9.26-9.59 6.24-16.52-1.01-2.32-2.49-4.52-4.13-6.45-3.91-4.6-8.11-8.97-12.06-13.53-1.24-1.43-2.49-1.96-4.03-.94-3.7 2.44-7.6 4.67-10.89 7.59-5.25 4.65-11.08 9.14-14.77 14.92-3.74 5.86-5.18 13.19-7.62 19.88-2.93 8.03 3.21 21.1 11.33 24.15 18.69 7.03 37.68 7.93 57.03 3.02 15.95-4.05 30.2-12.24 45.3-18.38.8-.33 1.54-.94 2.15-1.57 9.37-9.6 19.06-18.93 27.87-29.02 3.05-3.49 5.84-9.14 5.32-13.38-.95-7.7-2.2-15.4-2.75-23.18-.03-.43-.29-.84-.42-1.27-3.43-10.69-10.24-18.97-18.55-26.22-3.38-2.95-7.52-2.26-11.41-2.82-1.05 2.96-2.11 5.91-3.12 8.89-.14.4.05.9-.03 1.33-.86 4.69-.89 9.77-2.8 14-5.02 11.07-10.83 21.79-16.39 32.61-.81 1.58-2.13 2.91-2.9 4.5-2.09 4.3-.71 7.44 4.03 8.05 4.85.62 9.81.46 14.73.6 1.92.06 3.85.01 6.02.01-3.8 8.29-11.54 12.2-19.58 10.41-1.29-.29-3.25-1.03-3.83-.46-2.81 2.74-6.01 1.42-8.84.92-7.97-1.41-15.1.29-21.65 4.77-6.18 4.23-12.1 8.88-18.49 12.75-4.61 2.79-9.7 4.93-14.8 6.68-2.18.72-4.92-.3-7.63-.55zm90.1-101.94c-1.47-3.75-3.66-5.83-7.66-6.33-5.08-.64-10.07-1.99-15.11-3-7.19-1.44-14.12 3.55-15.04 10.86-.84 6.71-3.7 12.3-8.9 16.71-6.06 5.13-11.98 10.42-18.09 15.49-1.89 1.56-2.27 3.19-1.4 5.24.6 1.43 1.2 2.94 2.17 4.12 4.8 5.87 10.8 10.01 18.24 11.8 3.37.82 6.69.57 9.59-1.59 15.01-11.15 27.13-24.22 29.58-43.89.51-4.13 1.04-8.69 6.62-9.41z"/><path d="m274.84 241.06c-4.21.95-8.05 1.63-11.78 2.7-3.16.91-6.18 2.33-9.3 3.42-1.13.39-2.36.7-3.54.68-15.41-.23-30.07 4.18-44.86 7.53-4.03.91-7.82 3.21-11.49 5.29-2.87 1.63-3.84 4.58-3.31 7.85.13.79.7 1.52 1.14 2.23 1.65 2.68 3.99 5.15 4.89 8.06 3.01 9.71 5.34 19.62 8.28 29.36 1 3.33.81 6.21-.4 9.35-.59 1.52-.91 3.59-.36 5.02 1.1 2.81.9 5.25-.04 8.04-3.81 11.21-7.4 22.5-11.1 33.76-1.8 5.48-2.8 6.63-8.94 10.17.68-1.42.93-2.36 1.49-3.06 4.86-6.2 6.69-13.43 7.9-21.07 1.15-7.27 3.15-14.4 4.7-21.61.3-1.39.51-2.9.31-4.29-1.47-10.3-2.25-20.78-4.82-30.8-2.56-10-5.8-20.22-15.59-26.22-4.49-2.75-9.04-4.12-14.24-1.76-5.68 2.58-11.49 4.88-17.24 7.3-6.29 2.64-12.52 5.89-19.55 5.18-3.77-.38-7.52-1.78-11.09-3.2-2.51-1.01-2.53-4.66-.05-5.69 4.12-1.7 8.45-2.89 12.7-4.29.1-.03.25-.05.33 0 4.38 2.5 7.58-.76 11.13-2.29.72-.31 1.41-.67 2.09-1.06 7.63-4.39 15.66-7.43 24.56-8.15 2.81-.23 5.64-1.33 8.25-2.5 10.45-4.66 20.92-9.14 32.67-9.18 1.08 0 2.17-.47 3.23-.83 2.75-.94 5.65-3.05 8.18-2.66 4.58.7 8.61-1.68 12.99-1.15.31.04.67-.04.95-.18 7.42-3.93 15.27-4.13 23.35-2.89 2.98.46 6.02.51 9.01.88 3.88.45 6.86 2.46 9.55 6.06z"/><path d="m143.6 219.79c9.77-.46 19.36-.87 28.94-1.38 1.87-.1 3.78-.4 5.56-.97 13.3-4.27 26.49-8.92 39.9-12.79 3.58-1.03 7.91-.19 11.73.59 2.92.59 3.32 3.22.83 4.77-3.24 2.03-6.78 3.7-10.38 5-4.71 1.7-9.83 2.36-14.36 4.38-16.16 7.22-32.93 10.55-50.6 9.07-1.89-.16-3.79-.42-5.64-.82-5.78-1.24-5.78-1.27-5.98-7.85z"/><path d="m222.73 262.98c4.38.77 7.43 2.68 9.43 5.68 4.31 6.5 8.66 13.02 12.28 19.91 5.23 9.97 10.26 20.14 12.22 31.39 1.69 9.72 1.47 19.71-1.74 28.85-2.24 6.4-6.09 12.91-13.77 15.97 1.4-4.58 2.84-9.14 4.19-13.73.59-1.99 1.5-4.05 1.45-6.05-.31-11.17-.8-22.34-1.39-33.5-.12-2.29-.72-4.61-1.43-6.81-4.32-13.37-10.74-25.71-18.59-37.34-.81-1.19-1.5-2.46-2.65-4.37z"/><path d="m148.8 295.62c3.69 2.05 5.59 5.13 6.02 8.69 1.34 11.24 2.07 22.51-3.34 33.09-2.35 4.61-3.54 9.98-8.38 13-.35.22-.64.68-.75 1.09-1.89 6.8-7.45 10.3-12.64 14.14-3.58 2.65-7.09 5.39-10.63 8.08-.25-.21-.5-.41-.75-.62.67-.97 1.16-2.14 2.02-2.88 15.77-13.53 23.56-31.46 27.55-51.2 1.24-6.15.48-12.7.65-19.07.04-1.33.16-2.65.25-4.32z"/></g></svg>