<svg enable-background="new 0 0 400 400" viewBox="0 0 400 400" xmlns="http://www.w3.org/2000/svg"><g fill="#010102"><path d="m300.74 268.22c-4.77 6.61-9.36 13.35-14.37 19.77-3.8 4.86-6.51 10.04-7.75 16.1-.27 1.34-1.66 2.83-2.93 3.51-1.93 1.03-4.17 1.62-6.35 2.04-3.89.76-7.01-.14-9.55-3.71-4.11-5.78-5.84-12.23-6.72-19.07-.94-7.32-1.99-14.63-2.9-21.95-.19-1.52-.24-3.14.11-4.61 1.91-8.23.66-16.95 3.83-24.99.25-.63.03-1.57-.24-2.27-1.96-5.06-1.82-10.18-1.02-15.47 1.23-8.07 1.53-16.3 3.13-24.28 1.62-8.07 4.31-15.93 6.6-23.86.93-3.22 2.38-6.33 2.97-9.6.82-4.55.72-9.26 1.63-13.78.68-3.37.25-5.93-1.93-8.62-1.14-1.4-1.78-3.62-1.77-5.46.02-3.79-.7-7.19-2.36-10.63-1.21-2.5-1.46-5.48-2-8.28-.4-2.07-.24-4.29-.89-6.26-1.78-5.32-5.1-6.57-10.18-4.16-7.98 3.79-22.07 1-27.67-5.97-1.48-1.84-2.29-5.03-1.91-7.36.88-5.39 1.41-10.6-.42-15.87-.3-.88-.33-2.06.01-2.92 3.38-8.66 3.86-17.85 5.29-26.89.88-5.56 3.09-10.91 4.73-16.34.44-1.45 1.17-3.02 2.99-2.05 1.39.74 2.46 2.1 3.62 3.24.17.17.01.65.02.98.15 5.88 2.07 7.53 8 6.88 3.44-.37 4.08.3 3.93 4.3-.92.22-1.89.45-2.86.68-5.25 1.24-8.3 4.31-8.8 9.59-.39 4.11-.31 8.27-.2 12.41.02.79.95 2.02 1.71 2.27 5.06 1.64 10.26 2.48 15.47.86 1.03-.32 2.28-1.74 2.43-2.8.79-5.65 1.4-11.33 1.76-17.02.08-1.31-.75-2.91-1.62-4.01-1.44-1.81-2.82-3.46-1.7-6.15 6.9 0 13.75-.26 20.19 3.22 2.28 1.23 5.08 1.59 7.7 2.08 5.08.95 7.72 3.27 8.68 8.22-6.09-.39-12.11-.67-18.1-1.2-2.16-.19-3.36.44-3.99 2.47-1.35 4.37-3.21 8.65-3.99 13.12-.46 2.66.6 5.64 1.27 8.4.13.53 1.6 1.06 2.44 1.04 6.04-.12 12.08-.29 18.1-.7.94-.06 2.33-1.22 2.61-2.15 2.01-6.63 3.91-13.3 5.57-20.02.42-1.69-.18-3.63-.32-5.65h8.14c.24 3.82 1.23 7.87.6 11.67-2.11 12.77-4.64 25.47-7.35 38.13-.98 4.57-4.15 6.37-9.16 5.64.24-3.74.12-7.64.83-11.38 1.21-6.35-3.02-11.6-9.38-11.09-1.89.15-3.82.49-5.69.31-3.65-.34-4.75 1.89-5.08 4.76-.67 5.78 3.74 11.06 9.51 11.6 4.47.42 5.81 1.35 5.91 4.75.03.94-.93 2.29-1.82 2.78-1.32.74-2.99.83-4.48 1.31-3.73 1.18-4.76 3.13-3.49 6.91 4.71 13.97 9.53 27.91 14.2 41.9 3.31 9.91 5.35 20.07 5.93 30.53.1 1.75.93 3.6 1.87 5.14 1.64 2.69 2.18 5.33 1.92 8.56-.72 8.74-5.72 15.59-9.25 23.13-2.32 4.95-5.39 8.82-10.41 11.2-1.05.5-2.15 2.38-2.07 3.55.3 4.28-.76 7.9-3.74 11-.77.8-1.25 1.86-1.98 2.7-3.63 4.19-5.44 8.14-3.52 14.37 1.85 6.01 1.15 12.86 1.15 19.35 0 3.3.97 5.3 4.6 5.97 5.6-6.54 11.33-13.24 17.06-19.94 1.6-1.87 3.13-3.81 4.79-5.62 2.46-2.68 4.61-5.2 3.73-9.46-.29-1.42 1.62-4.43 3.07-4.86 4.2-1.25 8.67-1.74 13.06-2.15 2.48-.23 2.59 1.59 2.37 3.68-.33 3.15-.5 6.36-.3 9.51.23 3.57.96 7.04-.83 10.51-.48.92-.18 2.69.43 3.66 1.77 2.8 2.02 5.53.67 8.52-1.29 2.86-.91 5.52.73 8.25.79 1.32.99 3.16.99 4.76.01 2.45-.22 4.93-.63 7.35-1.02 5.98-.56 11.52 2.34 17.15 3.1 6.03-.26 11.2-4.05 15.89-.69.86-1.47 1.64-2.37 2.63 5.27 3.56 6.04 8.64 4.94 14.25-1.33 6.8-2.78 13.58-4.23 20.35-.14.65-.67 1.21-1.4 1.72-.45-6.15-5.07-12.36 1.01-18.07-7.41-9.29-5.92-20.17-6.17-30.68-.02-.82.94-1.64 1.37-2.49 1.06-2.06 2.36-4.05 3.03-6.23.77-2.5.02-4.69-2.23-6.5-1.25-1-2.29-2.75-2.62-4.32-1.38-6.68-2.31-13.45-3.69-20.12-.74-3.59.59-6.55 1.91-9.63 1.76-4.01 1.42-5.18-2.47-8.03zm-34.75-47.39c11.28-7.99 11.58-19.38 11.08-31.04-.33-7.86-2.52-12.85-5.9-14.23-1.96 9.3-4.09 18.62-5.85 28.01-1.04 5.55-1.99 11.24.67 17.26zm-21.7-127.59c2.65-.68 5.14-1.22 7.55-2.01.69-.23 1.48-1.09 1.65-1.8.71-2.91-1.25-8.28-3.9-9.42-5.56-2.38-11.16-4.13-17.22-.69-2.92 1.66-3.05 3.84-2.88 6.42.17 2.57 1.45 4.45 4.07 5.08 3.57.86 7.15 1.62 10.73 2.42z"/><path d="m148.09 315.56c-.79-3.46-1.54-6.43-2.13-9.42-.47-2.4-1.06-4.83-1.07-7.25-.1-15.56-.81-31.17.17-46.66.96-15.25.6-30.39-.09-45.59-.13-2.83.61-5.8 1.48-8.54 1.22-3.85.96-7.42-.65-11.03-1.45-3.26-1.73-6.49-.39-9.99 4.14-10.81 2.78-21.76.43-32.71-.79-3.67-3.16-6-6.48-6.42-6.39-.8-12.87-1.16-19.31-1.16-3.86 0-7.71 1.29-11.59 1.52-1.92.11-4.22-.42-5.73-1.51-.79-.57-.5-3.05-.17-4.55.16-.75 1.44-1.66 2.32-1.79 17.4-2.61 34.86-4.22 52.46-2.65 1.1.1 2.59.96 3.06 1.89 2.1 4.1 3.9 8.02.18 12.65-3.23 4.03-2.72 9.33-2.1 14.26 2.19 17.59 2.51 35.18.85 52.85-1.13 12-2.08 24.01 0 36.11.86 4.97-.08 10.25-.2 15.39 0 .11.01.24-.04.33-5.47 9.41-2.01 20.09-4.23 29.96-1 4.46-2.06 8.9-3.1 13.35-.7 2.99-1.36 6-2.18 8.96-.22.77-1.02 1.38-1.49 2z"/><path d="m127.63 92.9c7.49 1.93 13.64-1.5 19.87-4.69 4.88-2.5 9.34-.39 13.73 1.54 2.94 1.29 5.54 2.13 8.6-.12 1.44-1.06 3.87-1.22 5.79-1.05 4.1.38 8.18 1.16 12.23 1.96 1.1.22 2.07 1.09 3.8 2.06-5.59 3.17-10.8 3.99-15.96 4.16-10.6.35-21.21.15-31.82.28-1.99.02-3.98.47-5.95.83-1.2.22-2.35.76-3.55.97-5.06.88-6.2-.03-6.74-5.94z"/><path d="m197.88 137c-4.07 1.91-8.4 1.88-12.7 1.28-3.19-.45-6.28-1.53-9.46-2.06-2.93-.48-3.95-1.94-3.32-4.78.22-.97.23-1.98.33-2.93 6.75-2.11 24.07 3.65 25.15 8.49z"/><path d="m98.35 136.2c-6.35 3.14-19.81 1.77-22.54-2.62 5.67-1.42 10.5-5.62 16.88-3.78 3.78 1.08 5 2.36 5.66 6.4z"/></g><path d="m385.2 377.6.6-.7c.6.4 1.3.9 1.9 1.5l-.6.7c-.8-.5-1.4-1-1.9-1.5zm.3 7.1c.6-1.4 1.1-2.9 1.5-4.5.3.1.6.3.9.4-.5 1.4-1 2.9-1.5 4.4zm.2-10.1.6-.6c.7.5 1.3 1.1 1.9 1.6l-.7.7c-.6-.6-1.2-1.2-1.8-1.7zm8.4-.8h.8v.9h1.8v.7h-1.8v1.8h-.8v-.3h-1.2v.9h3.3v2.6h-.8v-.4h-2.5c0 .3 0 .6-.1.8h3.4v.7h-3.5c0 .3-.1.6-.1.8h4v.7h-3.5c.7.9 1.9 1.3 3.6 1.5-.2.2-.4.5-.6.9-1.9-.3-3.2-1.1-3.8-2.3-.5 1.1-1.8 2-3.9 2.4-.2-.3-.4-.5-.6-.8 1.9-.4 3.1-.9 3.6-1.7h-3.2v-.7h3.5c.1-.2.1-.5.2-.8h-3.3v-.7h3.4c0-.2 0-.5 0-.8h-2.4v.3h-.8v-2.6h3.3v-.9h-1.2v.3h-.8v-1.8h-1.8v-.7h1.8v-.9h.8v.9h3.2zm-4.4 5.5h2.4c0-.3 0-.6 0-.9h-2.4zm1.2-3.1h3.2v-.8h-3.2zm4.4 2.2h-2.4v.9h2.5v-.9z" fill="#fcfbfa"/><path d="m389.2 385.8h.9v1.5h1.9v-1.5h.9v1.5h2.7v6h1.1v.9h-11.3v-.9h1.1v-6h2.7zm.2 8.7.5.8c-1.2.6-2.5 1.3-4 1.9-.2-.3-.3-.6-.6-.8 1.6-.6 3-1.3 4.1-1.9zm-2-4.3h1.9v-2.1h-1.9zm0 3.1h1.9v-2.2h-1.9zm2.7-3.1h1.9v-2.1h-1.9zm0 3.1h1.9v-2.2h-1.9zm2.4 1.3c1.4.6 2.7 1.2 4.1 1.8l-.5.9c-1.5-.7-2.8-1.4-4.1-1.9zm2.2-6.5h-1.9v2.1h1.9zm-1.9 5.2h1.9v-2.2h-1.9z" fill="#fcfbfa"/></svg>