<svg enable-background="new 0 0 400 400" viewBox="0 0 400 400" xmlns="http://www.w3.org/2000/svg"><path d="m374.8 390.4.4-.4c.7.5 1.3 1 1.8 1.4l-.5.5c-.5-.6-1.1-1.1-1.7-1.5zm1 7.3-.6-.3c.5-1.4 1.1-2.8 1.5-4.3.2.1.4.2.6.3-.5 1.3-1 2.8-1.5 4.3zm-.4-10.3.4-.4c.4.3 1 .8 1.7 1.4l-.5.5c-.4-.5-1-1-1.6-1.5zm2.5.3h1.7v-1h.6v1h3.5v-1h.6v1h1.8v.5h-1.8v1.4h-2v1h3.2v2h-3.2v.9h3.3v.5h-3.4c0 .3-.1.6-.1.9h4v.5h-3.7c.7.9 1.9 1.5 3.8 1.7-.1.2-.2.4-.3.6-2.1-.4-3.5-1.1-4-2.1-.4 1-1.8 1.7-4 2.2-.1-.2-.2-.4-.3-.6 2.1-.4 3.4-1 3.8-1.8h-3.4v-.5h3.6c.1-.3.1-.6.2-.9h-3.3v-.5h3.4c0-.3 0-.6 0-.9h-3.2v-2h3.3v-1h-2.1v-1.4h-1.7v-.5zm1.1 3.5v1h2.7c0-.3 0-.4 0-.4 0-.1 0-.2 0-.2 0-.1 0-.2 0-.3h-2.7zm1.2-3v.9h3.5v-.9zm4.7 3h-2.6v.6.4h2.6z" fill="#fbfcfa"/><path d="m393.6 386.7h.6v1.5h2.7v6.1h1.1v.6h-11v-.6h1.1v-6.1h2.7v-1.5h.6v1.5h2.1v-1.5zm-2.7 8.8.4.6c-1.2.6-2.5 1.3-3.8 1.9-.1-.2-.2-.4-.3-.6 1.2-.6 2.5-1.2 3.7-1.9zm-2.2-6.7v2.4h2.1v-2.4zm0 3v2.5h2.1v-2.5zm2.8-3v2.4h2.1v-2.4zm0 3v2.5h2.1v-2.5zm6 6.1c-1.4-.7-2.7-1.3-3.9-1.8l.3-.6c1.5.6 2.7 1.2 3.9 1.7zm-1.2-9.1h-2.1v2.4h2.1zm-2.1 3v2.5h2.1v-2.5z" fill="#fbfcfa"/><g fill="#010106"><path d="m210.08 334.1c1.92-1.82 3.83-3.66 5.77-5.47 8.85-8.23 17.67-16.5 26.61-24.64 1.63-1.49 1.99-2.9 1.58-4.98-2.64-13.27-5.2-26.55-7.7-39.85-.41-2.18-.59-4.44-.59-6.66-.03-47.8-.02-95.6-.02-143.41 0-1.45 0-2.89 0-4.71-6.4-1.37-12.69-2.74-19-4.05-27.47-5.71-54.9-11.63-82.46-16.87-4.98-.95-10.53.89-15.78 1.62-2.98.42-5.88 1.37-8.86 1.78-6.11.85-11.15-3.79-10.68-9.87.06-.83 1.12-1.77 1.94-2.31 9.33-6.13 19.85-8.45 30.78-9.39 16.21-1.38 32.15 1.15 48.06 3.64 18.22 2.85 36.41 5.93 54.61 8.94 3.18.53 5.62-.94 6.37-3.66 1.26-4.57 2.13-9.33 2.45-14.06.47-6.92.2-13.88 3.08-20.43 2.44-5.56 6.06-10.1 11.29-13.66 8.15 8.43 13.59 17.61 10.39 29.85-.2.76-.28 1.54-.42 2.31-1.17 6.34 1.57 9.93 8.05 9.5 4.16-.28 8.28-1.59 12.33-2.75 4.19-1.2 8.26-2.77 12.39-4.18.09-.03.22.02.76.1 2.03 4.03 4.17 8.29 6.48 12.87-1.08.62-2.11 1.19-3.13 1.78-5.23 3.02-10.49 5.98-15.67 9.09-5.88 3.53-9.09 8.66-8.08 15.65.31 2.13 1.4 4.54 2.91 6.03 11.36 11.16 22.28 22.71 30.9 36.16 5.01 7.81 7.37 16.47 6.46 25.89-.21 2.21-.76 3.61-3.19 3.79-.99.07-2.02.3-2.93.7-2.21.98-3.63.2-5.18-1.51-14.13-15.6-28.35-31.11-42.54-46.65-.83-.9-1.68-1.78-3.13-3.31-1.05 4.08-2.19 7.6-2.83 11.2-3.59 20.16-3.95 40.56-3.21 60.91.81 22.24 2.34 44.46 3.98 66.66.53 7.21 2.45 14.31 3.58 21.48.36 2.29 1.52 2.56 3.59 2.82 8.53 1.05 15.82-.93 21.61-7.57.93-1.07 2.22-1.82 3.85-3.12.74 4.32 1.52 8.18 1.95 12.08.09.79-1.05 1.81-1.76 2.59-4.36 4.79-8.85 9.48-13.13 14.34-3.48 3.95-3.95 8.65-2.62 13.57 1.56 5.73 3.67 10.92 8.49 15.14 11.73 10.29 13.86 24.31 13.13 38.9-.09 1.9-3.41 3.64-5.59 5.81-1.13-1.5-1.94-2.5-2.68-3.55-11.03-15.5-22.1-30.96-33.02-46.54-1.68-2.4-3.59-3.39-6.21-2.55-5.09 1.63-10.24 3.18-15.12 5.34-6.8 3.01-13.6 5.73-21.13 6.01-2.17.08-4.35.01-6.52.01-.08-.26-.14-.53-.21-.81z"/><path d="m151.13 115.22c3.49 8.03 6.73 15.87 10.27 23.56 12.86 27.9 22.62 56.85 30 86.65 5.65 22.82 1.67 44.11-9.23 64.47-.44.83-1.25 1.59-2.06 2.08-18.46 10.98-38.42 16.95-59.93 16.94-12.41-.01-24.06-3.54-34.68-10.08-1.24-.76-2.36-2.05-3.05-3.35-6.75-12.82-8.45-26.77-8.67-40.96-.28-18.09 3.83-34.87 12.42-51.16 11.39-21.58 26.99-39.99 41-59.62.78-1.09 1.49-2.26 2.41-3.22 5.06-5.22 7.35-11.52 7.92-18.67.09-1.14 1.45-2.69 2.58-3.14 3.51-1.38 7.19-2.32 11.02-3.5zm-52.15 125.48c-3.22 16.6-.18 30.99 9.49 43.87.61.82 1.59 1.88 2.44 1.92 4.54.19 9.09.09 14.08.09.56-10.49.99-20.62 1.71-30.73.25-3.52-1.19-5.59-4.21-6.71-7.71-2.84-15.47-5.56-23.51-8.44zm6.31-17.07c7.38-.65 14.03-1.4 20.71-1.75 2.62-.14 3.1-1.14 3.08-3.46-.1-10.83-.04-21.66-.05-32.49 0-.81-.18-1.63-.36-3.11-6.42 7.24-12.4 13.98-18.36 20.73-.28.32-.49.76-.59 1.17-1.46 6.14-2.89 12.29-4.43 18.91zm41.24 65.55c4.96-2.68 9.95-4.08 12.98-7.31 5.17-5.51 9.21-12.19 10.7-19.83.43-2.24-.16-5.35-1.52-7.12-3.22-4.22-8.26-5.62-13.4-7.02-2.9 13.71-5.73 27.01-8.76 41.28zm21.73-63.11c-5.61-17.16-11.03-33.72-16.45-50.28-.16.07-.32.14-.47.22v52.11c5.67-.7 11.05-1.35 16.92-2.05z"/></g></svg>