<svg enable-background="new 0 0 400 400" viewBox="0 0 400 400" xmlns="http://www.w3.org/2000/svg"><path d="m374.8 390.4.4-.4c.7.5 1.3 1 1.8 1.4l-.5.5c-.5-.6-1.1-1.1-1.7-1.5zm1 7.3-.6-.3c.5-1.4 1.1-2.8 1.5-4.3.2.1.4.2.6.3-.5 1.3-1 2.8-1.5 4.3zm-.4-10.3.4-.4c.4.3 1 .8 1.7 1.4l-.5.5c-.4-.5-1-1-1.6-1.5zm2.5.3h1.7v-1h.6v1h3.5v-1h.6v1h1.8v.5h-1.8v1.4h-2v1h3.2v2h-3.2v.9h3.3v.5h-3.4c0 .3-.1.6-.1.9h4v.5h-3.7c.7.9 1.9 1.5 3.8 1.7-.1.2-.2.4-.3.6-2.1-.4-3.5-1.1-4-2.1-.4 1-1.8 1.7-4 2.2-.1-.2-.2-.4-.3-.6 2.1-.4 3.4-1 3.8-1.8h-3.4v-.5h3.6c.1-.3.1-.6.2-.9h-3.3v-.5h3.4c0-.3 0-.6 0-.9h-3.2v-2h3.3v-1h-2.1v-1.4h-1.7v-.5zm1.1 3.5v1h2.7c0-.3 0-.4 0-.4 0-.1 0-.2 0-.2 0-.1 0-.2 0-.3h-2.7zm1.2-3v.9h3.5v-.9zm4.7 3h-2.6v.6.4h2.6z" fill="#fbfcfa"/><path d="m393.6 386.7h.6v1.5h2.7v6.1h1.1v.6h-11v-.6h1.1v-6.1h2.7v-1.5h.6v1.5h2.1v-1.5zm-2.7 8.8.4.6c-1.2.6-2.5 1.3-3.8 1.9-.1-.2-.2-.4-.3-.6 1.2-.6 2.5-1.2 3.7-1.9zm-2.2-6.7v2.4h2.1v-2.4zm0 3v2.5h2.1v-2.5zm2.8-3v2.4h2.1v-2.4zm0 3v2.5h2.1v-2.5zm6 6.1c-1.4-.7-2.7-1.3-3.9-1.8l.3-.6c1.5.6 2.7 1.2 3.9 1.7zm-1.2-9.1h-2.1v2.4h2.1zm-2.1 3v2.5h2.1v-2.5z" fill="#fbfcfa"/><path d="m188.23 152.9c9.79 0 18.97.08 28.13-.11 1.05-.02 2.41-1.38 3.06-2.46 10.77-17.97 14.51-37.61 13.14-58.29-.64-9.59-2.08-19.12-2.84-28.71-.25-3.18.18-6.51.89-9.63 1.65-7.19 6.33-10.15 13.48-8.34 3.75.95 7.31 2.71 10.84 4.37.89.42 1.78 1.8 1.87 2.81 1.1 12.35 2.19 24.71 2.95 37.08.22 3.52-.37 7.22-4.88 9.78 24.58 6.78 48.9 10.25 72.95 14.96.09.31.19.61.28.92-6.34 2.15-12.6 4.54-19.03 6.4-11.19 3.22-22.69 3.77-34.27 3.36-2.45-.09-4.95-.15-7.37.18-10.18 1.38-15.58 7.49-16.14 18.58-.19 3.77.22 7.61.8 11.35.23 1.44 1.47 2.96 2.65 3.97 6.96 5.98 14.02 11.86 21.12 17.68 1.45 1.19 1.93 2.24 1.58 4.23-2.73 15.3-5.3 30.63-7.84 45.96-.27 1.61-.27 3.35.05 4.95 8.21 41.46 16.49 82.9 24.74 124.35.06.31.04.65.08 1.31-3.96 1.34-7.95 2.69-12.36 4.18-1.63-5.71-3.23-11.25-4.79-16.8-5.61-20.01-10.71-40.18-16.96-59.98-4.99-15.83-13.87-29.73-25.39-42.64-10.89 14.05-24.65 19.1-42.01 12.69 12.57-11.21 25.06-22.35 37.99-33.88-11.12-6.93-22.03-13.73-32.94-20.52.06-.19.12-.39.17-.58 7.53.62 15.05 1.26 22.58 1.86 3.35.27 6.69.55 10.05.69 8.28.33 13.5-3.59 15.67-11.68 2.11-7.88 2.11-7.87-5.24-10.89-20.89-8.59-41.79-17.13-62.63-25.84-2.54-1.06-3.84-.75-5.47 1.49-7 9.58-14.15 19.05-21.39 28.44-1.51 1.96-1.91 3.75-1.53 6.13 4.43 27.49 8.77 55 13.13 82.5 5.24 33.02 10.49 66.05 15.72 99.07.05.32-.02.66-.07 1.88-1.99-3.52-3.66-6.32-5.19-9.2-13.49-25.41-21.4-52.46-24.31-81.07-3.15-30.96-13.17-59.68-29.03-86.41-.22-.37-.52-.7-.95-1.27-16.8 14.02-33.54 27.99-51.03 42.6.51-6.02-1.3-11.18 2.1-16.34 11.58-17.56 22.84-35.32 34.22-53.01.66-1.03 1.29-2.08 1.94-3.12-4.86-2.7-9.79-5.06-14.32-8.02-15.24-9.98-22.82-24.74-25.52-42.31-1.48-9.61-.98-19.2 1.27-28.66.32-1.33.99-2.75 1.92-3.74 17.41-18.82 34.9-37.57 52.31-56.39 1.37-1.48 2.41-1.7 4.25-.89 11.9 5.21 21.86 13.08 30.82 22.29 11.4 11.73 21.11 24.63 26.96 40.1 2.47 6.52 4 13.17 3.86 20.28-.26 13.32-.07 26.64-.07 39.97zm-68.56-51.05c-2.81-12.84-5.54-25.36-8.47-38.74-4.65 4.77-8.27 9.29-12.69 12.81-6.98 5.56-10.24 12.14-8.76 21.1.48 2.86.07 5.87.07 9.05 10.2-1.45 19.8-2.8 29.85-4.22zm30.78-32.36c-.15.04-.31.08-.46.12v36.33c4.27-1.41 8.15-2.7 12.35-4.09-4.02-10.92-7.95-21.64-11.89-32.36zm-43.38 74.65c2.53-1.25 4.69-2.16 6.66-3.38.74-.46 1.54-1.73 1.43-2.49-.63-4.18-1.46-8.34-2.42-12.47-.22-.96-1.13-2.41-1.85-2.49-3.86-.43-7.77-.49-12.31-.71 3.06 7.74 5.7 14.45 8.49 21.54zm47.1 4.41c4.54-3.06 8.49-5.71 12.74-8.57-4.18-5.51-8.17-10.77-12.74-16.8z" fill="#010106"/></svg>