<svg enable-background="new 0 0 400 400" viewBox="0 0 400 400" xmlns="http://www.w3.org/2000/svg"><path d="m181.9 309.12c4.05.53 6.47 1.97 8.62 4.85 1.79 2.4 4.63.32 6.82-1.01 2.67-1.62 5.35-3.2 9.02-5.39.3-2.94 3.11-4.98 7.14-6.39 2.53-.89 4.51-3.24 6.86-4.76 3.37-2.18 6.96-4.01 10.21-6.34 1.74-1.25 2.72-3.53 4.45-4.81 2.1-1.55 4.66-2.45 6.93-3.78.91-.53 1.48-1.62 2.38-2.18 1.09-.68 2.51-1.65 3.52-1.41.84.2 2.04 2.22 1.79 3.04-2.11 7.01 1.54 13.42 1.77 20.14.15 4.44.75 9.34-.85 13.21-1.48 3.56-1.39 6.33-.39 9.57.1.31.09.67.06 1-.58 5.7-1.16 11.41-1.75 17.11-.02.22-.16.44-.16.65.35 9.96-5.06 18.65-6.21 28.27-.32 2.63-1.52 4.06-4.3 3.88-.09-.16-.33-.39-.29-.54 2.53-9.1-1.63-18.11-.34-27.19 1.08-7.56 2.15-15.12 3.2-22.68.09-.61.32-1.58.04-1.8-2.53-1.98-1.43-4.41-1.02-6.77.49-2.8.93-5.6 1.43-8.4.07-.41.21-.92.5-1.17 2.61-2.24 2.55-4.33.47-7.13-2.13-2.86-.53-5.47 2.02-7.49-2.69-3.7-4.53-.76-6.53.66-.73-.67-1.4-1.29-2.07-1.92 1.62 3.22-.44 4.24-2.55 6.06-5.41 4.7-11.51 7.99-17.94 10.94-4.31 1.98-5.37 2.73-7.46 2.57 1.06 3.68-1.35 5.17-3.92 6.98-2.13 1.5-3.48 4.09-5.45 5.88-1.51 1.37-3.35 2.54-5.25 3.27-2.26.86-4.34.25-5.72-2.08-2.13-3.6-4.4-7.12-7.01-11.32-.07 0-1.12 0-2.31 0 .29-8.21-2.27-16.17.13-24.11 1.26-4.17 2.14-8.42 6.55-10.94 1.96-1.12 2.99-3.78 4.72-5.45 1.54-1.49 3.45-2.59 4.66-3.47.49-4.64.96-9.08 1.47-13.94-.71-.23-2.04-.67-3.57-1.17 0-1.35.04-2.77-.01-4.18-.04-1.09.2-2.44-.34-3.23-3.22-4.73-1.96-9.9-1.78-14.99.08-2.21-.06-4.44.02-6.65.07-1.95.36-3.89.45-5.84.07-1.42.05-2.86-.06-4.28-.36-4.66-.84-9.3-1.16-13.96-.34-4.88-.57-9.77-.85-14.66-.04-.78-.35-1.67-.08-2.32 2.93-7.18 1.24-14.73 1.88-22.09.08-.89-.15-2 .29-2.63 2.86-3.99 1.65-8.33 1.46-12.65-.09-2.03.63-4.1.98-6.15.29.01.57.02.86.02-.06-.21-.07-.56-.19-.6-3.77-1.25-4.32-4.1-4.81-7.71-.69-5.14-2.33-10.19-3.92-15.16-.73-2.28-2.6-2.4-5.23-2.48-4.92-.16-10.48.64-14.71-3.67-2.25 3.77-5.39 3.68-8.94 2.03-.85-.4-1.96-.46-2.92-.38-4.77.4-6.72-.65-8.53-5.14-2.7-6.67-2.16-13.64-1.41-20.53.41-3.78 1.64-7.46 2.48-11.09-.32-2.59-1.13-5.39-.9-8.09.44-5.08 1.4-10.12 2.37-15.13.16-.81 1.38-1.66 2.29-1.98.52-.19 1.64.47 2.08 1.06 2.23 2.98 3.83 6.19 3.99 10.08.15 3.53 6.47 8.05 9.75 6.82 5.85-2.19 11.79-2.92 18.01-3.03 5.57-.11 6.08-1.01 6.53-6.63.3-3.67.25-7.39.71-11.03.39-3.03 1.3-6 2.06-9.37-3.9-2.54-8.65-2.91-13.61-1.99-3.41.64-6.86 1.12-10.19 2.04-4.94 1.36-8.93-.53-12.87-2.9 1.11-5.88 1.7-5.96 9.65-1.45.35-3.03 1.84-4.91 5.04-5.12 2.45-.16 4.89-.5 7.34-.76.6-.06 1.21-.06 1.8-.15 3.62-.53 7.23-1.21 10.87-1.53.96-.08 2.01.94 3.17 1.54 4.56-2.42 5.34-2.39 10.88.71 2.67-3.93 6.63-2.28 10.45-2.39 7.53-.22 14.73 1.23 21.94 3 5.28 1.29 6.47 2.91 5.52 8.3-.4 2.28-1.23 4.49-1.56 5.68 0 3.06-.06 5.17.01 7.27.14 4.47.44 8.94.49 13.42.02 1.83-.52 3.66-.65 5.51-.05.68.17 1.52.57 2.06 2.37 3.23 2.52 6.81 1.91 10.58-.79 4.9-1.38 9.84-2.3 14.72-.21 1.14-1.24 2.31-2.21 3.07-1.55 1.22-3.37 2.12-5.06 3.14 2.05 3.9.17 7.12-4.19 7.63-.64.08-1.48.16-1.86.58-3.69 4.09-3.87 4.14-8.84 1.48-2.26 3.74-3.69 3.67-6.43-.03-.55-.75-1.84-.94-2.79-1.39-.15.86-.31 1.73-.46 2.56-5.31.37-11.14.68-16.94 1.27-.93.09-2.55 1.51-2.48 2.17.51 4.87 1.85 9.47 5.19 13.33 1.03 1.19 1.56 2.83 2.21 4.31 1.77 4.05 3.51 8.11 5.2 12.19 1.08 2.6 2.06 5.24 2.76 7.05 1.72 2.18 3.03 3.78 4.28 5.44.94 1.25 1.78 2.56 2.68 3.84.39.55.95 1 1.23 1.59 2.07 4.3 4.01 8.67 6.14 12.94 1.83 3.67 3.78 7.29 5.8 10.85 1.75 3.1 3.28 6.06 1.23 9.71-1.12 1.99.49 2.29 2.09 2.66 1.22.29 2.99.94 3.31 1.86 2.41 6.93 4.65 13.92 6.64 20.98.51 1.8-.07 3.91-.17 5.87-.02.44-.29.9-.2 1.3.71 3.04 2.06 6.06 2.06 9.09 0 2.45-1.37 5.03-2.6 7.3-1.03 1.9-2.74 3.43-4.12 5.14-.28.34-.36.9-.69 1.14-3.44 2.51-6.9 4.98-10.37 7.45-.71.51-1.73.84-2.08 1.52-1.59 3.12-4.47 4.51-7.34 6.05-1.45.77-2.65 2.01-3.95 3.05-.69.56-1.42 1.68-2.04 1.62-4.42-.42-5.8 2.49-7.61 5.73-1.13 2.03-3.68 3.58-5.94 4.6-5.58 2.54-7.19 4.93-6.5 11.04.23 2 .54 4 .66 6 .15 2.57 1.62 5.86-3.14 6.02-.52.04-1.03 1.29-1.97 2.51zm26.9-49.29c1.03-1.76 1.7-3.1 2.55-4.31.95-1.36 1.8-3.16 3.15-3.78 3.12-1.41 5.41-3.24 6.59-6.57.39-1.11 1.84-1.81 2.68-2.8 2.2-2.62 5.91-5.17 6.15-7.98.4-4.82-.3-10.42-2.57-14.58-2.25-4.13-4.54-8.21-6.58-12.5-5.23-10.97-11.82-21.27-15.51-32.99-.79-2.53-2.97-4.61-4.52-6.91-.41.17-.81.34-1.22.51 0 10.15.05 20.3-.04 30.46-.02 2.32-.5 4.64-.86 7.69 2.24 3.28 1.27 8.03 1.55 12.51.24 3.77-.05 7.58-.16 11.38-.05 1.65-.24 3.29-.44 5.88 1.33 7.79 1.59 16.6-.71 25.87 3.21-1.04 5.62-1.83 7.95-2.59 2.26 3.67 2.26 3.67 3.85 2.93-.7-.85-1.39-1.67-1.86-2.22zm-59.57-158.7c4.07 2.78 6.86 7.81 12.64 3.95.49-.33 1.82.09 2.44.57 1.71 1.32 3.24 1.94 4.99.11.33-.34 1.01-.48 1.53-.47 4.71.08 9.43.26 14.14.31 3.69.03 5.57-2.4 3.89-5.7-1.71-3.36-1.87-5.83.91-7.13-.56-4.46-1.6-8.39-1.39-12.25.25-4.61.26-5.21-4.46-5.68-1.55-.15-3.13-.17-4.69-.13-5.68.15-11.37.23-17.04.6-2.75.18-5.49.84-8.18 1.5-2.28.56-2.94 1.94-1.92 4.3.57 1.32 1 3.33.39 4.4-1.82 3.18-1.3 6.14-.14 9.22 1.1 2.94.74 5.28-3.11 6.4zm82.07 1.81c-.52-4.02-1.3-8.19-1.51-12.39-.11-2.13.37-4.53 1.36-6.39.91-1.71.66-2.77-.19-4.2-1.43-2.41-2.67-4.87-1.52-7.88.27-.71-.25-1.73-.47-2.94-1.06.6-1.59 1.07-2.2 1.21-3.86.91-8.11 3.17-11.51 2.27-4.58-1.21-8.8-.75-13.15-.39-5.14.42-5.32.86-4.71 6.03.57 4.75 1.74 9.53-1.11 14.03-.23.37-.06 1.05.04 1.56.5 2.84.9 5.71 1.63 8.5.24.94 1.22 2.27 2.03 2.4 10.54 1.74 21.04 1.83 31.31-1.81zm-24.2-68.06c-.03.17-.07.34-.1.51-1.23 0-2.46-.01-3.68 0-4.04.03-4.61.46-4.73 4.63-.13 4.68-.22 9.38.09 14.05.56 8.33 2.51 9.6 10.74 8.5 2.38-.32 4.99.18 7.36.82 4.21 1.15 8.07.34 11.47-1.95 3.01-2.03 2.43-5.38 2.1-8.56-.22-2.17-.26-4.52.36-6.57 1.21-4.06-.47-8.22-4.57-8.91-2.71-.45-5.44-3.05-8.39-.5-.21.18-.83-.11-1.26-.19-3.13-.6-6.26-1.22-9.39-1.83zm-14.28 173.77c1.28-.88 2.47-1.51 3.38-2.42.36-.36.2-1.4 0-2.04-.07-.24-1.14-.53-1.35-.34-1.3 1.12-3.54 1.86-2.03 4.8z" fill="#010102"/><path d="m149.72 35.3c3.68 1.04 3.6 4.32 4.24 7.16.54 2.36-1 3.54-2.72 4.4-.99.49-2.84 1.05-3.22.63-.94-1.07-1.99-2.87-1.69-4.05.71-2.78 2.18-5.36 3.39-8.14z" fill="#010102"/><g fill="#fcfbfa"><path d="m385.2 377.6.6-.7c.6.4 1.3.9 1.9 1.5l-.6.7c-.8-.5-1.4-1-1.9-1.5zm.3 7.1c.6-1.4 1.1-2.9 1.5-4.5.3.1.6.3.9.4-.5 1.4-1 2.9-1.5 4.4zm.2-10.1.6-.6c.7.5 1.3 1.1 1.9 1.6l-.7.7c-.6-.6-1.2-1.2-1.8-1.7zm8.4-.8h.8v.9h1.8v.7h-1.8v1.8h-.8v-.3h-1.2v.9h3.3v2.6h-.8v-.4h-2.5c0 .3 0 .6-.1.8h3.4v.7h-3.5c0 .3-.1.6-.1.8h4v.7h-3.5c.7.9 1.9 1.3 3.6 1.5-.2.2-.4.5-.6.9-1.9-.3-3.2-1.1-3.8-2.3-.5 1.1-1.8 2-3.9 2.4-.2-.3-.4-.5-.6-.8 1.9-.4 3.1-.9 3.6-1.7h-3.2v-.7h3.5c.1-.2.1-.5.2-.8h-3.3v-.7h3.4c0-.2 0-.5 0-.8h-2.4v.3h-.8v-2.6h3.3v-.9h-1.2v.3h-.8v-1.8h-1.8v-.7h1.8v-.9h.8v.9h3.2zm-4.4 5.5h2.4c0-.3 0-.6 0-.9h-2.4zm1.2-3.1h3.2v-.8h-3.2zm4.4 2.2h-2.4v.9h2.5v-.9z"/><path d="m389.2 385.8h.9v1.5h1.9v-1.5h.9v1.5h2.7v6h1.1v.9h-11.3v-.9h1.1v-6h2.7zm.2 8.7.5.8c-1.2.6-2.5 1.3-4 1.9-.2-.3-.3-.6-.6-.8 1.6-.6 3-1.3 4.1-1.9zm-2-4.3h1.9v-2.1h-1.9zm0 3.1h1.9v-2.2h-1.9zm2.7-3.1h1.9v-2.1h-1.9zm0 3.1h1.9v-2.2h-1.9zm2.4 1.3c1.4.6 2.7 1.2 4.1 1.8l-.5.9c-1.5-.7-2.8-1.4-4.1-1.9zm2.2-6.5h-1.9v2.1h1.9zm-1.9 5.2h1.9v-2.2h-1.9z"/></g></svg>