<svg enable-background="new 0 0 400 400" viewBox="0 0 400 400" xmlns="http://www.w3.org/2000/svg"><path d="m362.1 8.8c1.1.8 2.1 1.6 3.1 2.4l-1 1.1c-1.3-1.1-2.3-2-3-2.5zm1.9 4.8c.5.2.9.4 1.4.5-.6 2.3-1.3 4.5-1.9 6.8l-1.5-.5c.8-2.1 1.4-4.3 2-6.8zm-1-9.4c1.3.9 2.4 1.8 3.4 2.5l-1 1.1c-1.4-1.2-2.4-2.1-3.2-2.6zm3.7 2.2v-1.4h10.3v1.2c-.5 3.6-1.8 6.8-4 9.4 1.5 1.6 3.4 2.8 5.7 3.8-.3.4-.7.8-1.1 1.4-2.3-1.1-4.1-2.5-5.6-4.1-1.6 1.6-3.6 3.1-5.9 4.3-.3-.5-.7-.9-1-1.3 2.4-1.1 4.4-2.5 6-4.1-1.9-2.5-3-5.6-3.3-9.3h-1.1zm8.8 0h-6.4c.3 3.3 1.3 6 3 8.2 2-2.3 3.1-5.1 3.4-8.2z" fill="#fbfcfa"/><path d="m385.3 3.8h1.3v2.2h2.8v-2.2h1.3v2.2h4.1v9.1h1.7v1.3h-16.9v-1.3h1.7v-9.1h4.1v-2.2zm.4 13.1.7 1.2c-1.8.9-3.8 1.9-6 2.9-.2-.4-.5-.8-.8-1.3 2.3-1 4.3-1.9 6.1-2.8zm-3.1-6.4h2.8v-3.2h-2.8zm0 4.6h2.8v-3.3h-2.8zm4-4.6h2.8v-3.2h-2.8zm0 4.6h2.8v-3.3h-2.8zm3.7 1.9c2.1.9 4.1 1.8 6.1 2.7l-.7 1.3c-2.2-1.1-4.2-2-6.1-2.9zm3.2-9.7h-2.8v3.2h2.8zm-2.8 7.8h2.8v-3.3h-2.8z" fill="#fbfcfa"/><g fill="#010106"><path d="m235.85 25.11c5.76 2.66 9.31 6.34 11.27 11.48 2.39 6.26 4.72 12.54 6.99 18.84.99 2.76 2.83 4.21 5.64 5.08 8.32 2.58 16.51 5.56 24.84 8.1 3.31 1.01 5.65 2.91 7.7 5.52 5.88 7.5 8.84 16.08 8.92 25.51.09 10.91-1.75 21.59-4.96 32.04-1.48 4.81-4.26 8.58-7.58 12.37-5.11 5.84-10.98 9.02-18.71 9.38-3.76.17-7.52 1.09-11.22 1.96-5.9 1.38-9 6.36-7.69 12.19.19.86.96 1.69 1.66 2.32 1.65 1.51 3.47 2.83 5.11 4.34 9.36 8.57 11.13 19.26 8.34 31.06-1.82 7.69-4.99 14.55-10.59 20.57-9.92 10.67-17.53 22.91-20.95 37.35-2.51 10.58-2.42 21.35-1.76 32.08.88 14.3 2.24 28.59 7.41 42.13 2.11 5.52 4.92 10.78 7.2 16.24 2.25 5.41 3.36 11.03 1.41 17.22-3.94-6.85-8.18-13.54-11.77-20.57-9.65-18.85-16.7-38.58-18.64-59.84-1.63-17.93 1.4-35.23 7.55-52.04.43-1.18 1.49-2.18 2.4-3.12 8.44-8.69 16.69-17.51 22.02-28.59.53-1.11 1-2.25 1.42-3.4 4.09-11.23 3.84-12-5.96-18.55-1.77-1.18-3.53-2.37-5.68-3.81-14.08 15.77-31.97 26.19-50.81 35.72-1.07-2.78-.4-4.45 1.95-5.98 19.79-12.92 33.3-30.88 41.89-52.73.2-.52.35-1.05.63-1.9-4.06-2.07-8.02-4.38-12.21-6.15-8.99-3.8-14.33-10.97-17.86-19.52-6.53-15.85-4.43-31.75.29-47.66 1.65-5.56 4.75-9.06 10.15-11.32 7.1-2.97 13.82-6.84 20.79-10.13 3.89-1.84 5.67-4.8 5.92-8.96.47-7.75-1.62-15.07-3.65-22.41-.35-1.37-.81-2.72-1.46-4.82zm-18.7 80.93c9.23-2.08 18.34-4.13 27.76-6.25-.66-5.07-1.36-9.91-1.91-14.76-.32-2.78-1.89-4.55-4.31-5.48-3.82-1.46-7.65-2.37-11.34.65-1.63 1.33-3.59 2.25-5.4 3.35-7.39 4.5-9.69 14.71-4.8 22.49zm43.47 36.05c3.94-1.1 7.3-2.42 10.79-2.92 6.03-.86 9.01-4.77 10.96-9.9.87-2.28 1.61-4.66 2.05-7.05 1.2-6.59-4.79-11.54-11.15-9.22-4.08 1.49-8.11 3.17-12.08 4.95-.81.36-1.83 1.52-1.8 2.28.29 7.13.77 14.26 1.23 21.86zm.05-65.35c.44 8.37.87 16.49 1.32 24.79 7.82 1.04 15.41 2.04 23 3.04 1.94-16.41-8.39-28.25-24.32-27.83zm-45.03 42.21c2.67 5.05 5.29 10.07 7.97 15.06 2.72 5.04 10.68 8 15.93 5.84.99-.41 2.27-1.41 2.44-2.32.71-3.82 1.33-7.69 1.46-11.57.12-3.68-1.43-6.87-5.14-8.25-7.58-2.82-15.12-3.45-22.66 1.24z"/><path d="m199.72 360.83c-1.68.54-2.93.94-4.5 1.45-2.58-5.53-5.14-10.97-7.67-16.41-6.18-13.27-12.27-26.59-18.56-39.81-4.22-8.87-5.46-18.42-6.55-27.95-2.18-19.17-2.57-38.38-.92-57.65 1.22-14.19 5.63-27.56 9.62-41.06 2.12-7.18 4.13-14.4 6.53-21.49 3.51-10.36 2.46-20.77.73-31.19-2.05-12.39-4.72-24.61-11.03-35.7-.5-.87-1.11-1.68-1.6-2.56-3.18-5.67-7.61-7.78-14.37-6.87-17.34 2.35-34.29-.87-51.01-5.14-4.32-1.1-8.26-3.68-12.37-5.58.08-.32.16-.64.24-.96 7.3-1.53 14.61-3.06 21.91-4.59 5.14-1.08 10.33-1.97 15.42-3.26 7.36-1.86 14.72-.98 22-.05 13.51 1.74 27 3.77 40.42 6.09 3.92.68 7.59 2.75 11.38 4.19-.09.35-.18.71-.26 1.06-10.48 3.03-20.96 6.06-31.87 9.21.86.94 1.36 1.61 1.98 2.15 24.33 21.35 31.28 47.86 22.91 78.64-4.99 18.35-10.35 36.64-12.54 55.56-1.71 14.76-2.94 29.65-3 44.49-.04 10.55 1.46 21.28 3.68 31.62 2.73 12.73 6.82 25.18 10.53 37.7 2.75 9.29 5.84 18.5 8.9 28.11z"/><path d="m91.07 82.74c17.34 13.57 31.01 29.71 35.25 52.09 2.23 11.76 1.38 23.43-2.09 34.83-5.53 18.19-10.87 36.4-13.95 55.21-2.9 17.71-4.85 35.53-4.09 53.44.33 7.81 2.99 15.54 4.7 23.28 4.96 22.35 9.99 44.69 14.45 67.31-2.38-4.18-4.97-8.27-7.12-12.57-13.4-26.74-23.36-54.64-27.54-84.38-2.35-16.71-.8-33.09 3.23-49.53 5.08-20.72 9.18-41.69 13.36-62.62 3.23-16.23.59-32.13-4.46-47.59-2.97-9.11-7.01-17.86-10.58-26.77-.36-.91-.77-1.8-1.16-2.7z"/><path d="m132.77 85.97c13.11 5.81 19.78 15.9 23.5 28.49 5.2 17.62 4.32 34.93-.83 52.53-5.49 18.77-10.06 37.82-14.45 56.88-3.59 15.6-3.63 31.55-2.53 47.45 1.81 26.26 9.85 51.07 18.08 75.81 2.68 8.05 5.88 15.94 8.84 23.9.42 1.13.81 2.28 1.22 3.44-2.49 1.31-3.35-.32-4.33-1.87-12.14-19.09-21.37-39.49-27.63-61.24-9.5-32.98-12.18-66.49-6.45-100.33 2.89-17.06 6.69-34.06 11.54-50.67 7.15-24.5 4.21-47.75-5.57-70.68-.44-1-.77-2.04-1.39-3.71z"/><path d="m280.71 159.45c4.88 2.23 7.85 5.26 10.01 8.92 7.88 13.37 11.41 27.98 10.33 43.36-.4 5.62-3.24 11.1-5.23 16.55-.77 2.1-.56 3.56 1.02 5.06 12.88 12.34 13.51 27.43 9.67 43.5-1.27 5.31-5.79 7.79-9.78 10.48-9.45 6.37-19.21 5.34-28.93.43-.48-.24-.98-.6-1.26-1.04-5.08-8.11-8.47-16.55-5.09-26.31 1.72-4.96 3.37-9.94 5.05-14.92 1.86-5.5 4.23-10.38 8.96-14.44 10.29-8.83 12.4-20.51 10.24-33.58-2.05-12.34-3.29-24.8-4.99-38.01zm11.34 81.94c-4.9 4.63-9.86 9.3-14.78 14.01-.44.42-.83 1.14-.84 1.73-.06 5.33-.04 10.66-.04 16.26 5.43-.58 10.42-1.07 15.39-1.68.75-.09 1.81-.61 2.08-1.21 3.47-7.82 4.97-20.62-1.81-29.11z"/></g></svg>