<svg enable-background="new 0 0 400 400" viewBox="0 0 400 400" xmlns="http://www.w3.org/2000/svg"><g fill="#fcfafa"><path d="m342.2 3.2-6.3 9.2h6.1v1.2h-8.2v-.5l6.2-9.1h-5.7v-1.2h7.8v.4z"/><path d="m344 13.7v-10.9h3.1c1.6 0 3 .5 4.1 1.4 1.1 1 1.6 2.2 1.6 3.9s-.5 3-1.6 4-2.5 1.5-4.2 1.5h-3zm1.4-9.6v8.4h1.6c1.4 0 2.5-.4 3.2-1.1.8-.8 1.2-1.8 1.2-3.2s-.4-2.4-1.2-3.1-1.8-1-3.1-1z"/><path d="m356.3 2.8v10.9h-1.4v-10.9z"/><path d="m366.6 13.2c-.8.4-1.8.6-3 .6-1.6 0-2.8-.5-3.7-1.5s-1.4-2.3-1.4-3.9c0-1.7.5-3.2 1.6-4.2s2.4-1.6 4-1.6c1 0 1.9.1 2.6.4v1.5c-.8-.4-1.6-.6-2.6-.6-1.2 0-2.2.4-3 1.2s-1.1 1.9-1.1 3.3c0 1.3.4 2.3 1.1 3.1s1.6 1.1 2.8 1.1c1.1 0 2-.2 2.8-.7v1.3z"/><path d="m368.2 13c0-.3.1-.5.3-.6.2-.2.4-.3.6-.3.3 0 .5.1.7.3s.3.4.3.6-.1.5-.3.6c-.2.2-.4.3-.7.3s-.5-.1-.6-.3c-.2-.2-.3-.4-.3-.6z"/><path d="m381.1 13.7h-1.7l-5.5-8.4c-.2-.2-.3-.5-.4-.7 0 .2.1.8.1 1.5v7.6h-1.4v-10.9h1.8l5.3 8.3c.3.4.4.6.4.8 0-.3-.1-.8-.1-1.6v-7.5h1.4v10.9z"/><path d="m389.7 13.7h-5.8v-10.9h5.6v1.2h-4.2v3.5h3.9v1.2h-3.9v3.7h4.4z"/><path d="m398.4 4.1h-3.1v9.6h-1.4v-9.6h-3.1v-1.3h7.7v1.3z"/></g><path d="m99.53 213.44c11.69 0 22.87.09 34.05-.07 2.37-.03 4.88-.59 7.07-1.51 8.64-3.65 17.04-7.89 26.39-9.59 1.39-.25 2.71-1.02 4.02-1.64 23.3-11.12 46.5-22.45 70.96-30.93 4.52-1.57 8.87-2.74 13.7-1.77 6.78 1.37 13.74 2 20.38 3.8 10.56 2.87 17.86 10.08 21.11 20.34 4.9 15.43 9.58 30.99 13.09 46.77 3.88 17.45 3.83 35.06-2.15 52.33-4.23 12.23-11.11 22.5-20.54 31.33-13.24 12.41-26.67 24.6-41.63 34.92-15.66 10.8-33.15 16.36-52.09 17.64-2.85.19-5.06-.33-6.76-3.56 2.05-1.81 4.04-4.11 6.5-5.64 16.15-10.03 32.42-19.89 48.61-29.85 1.4-.86 2.76-1.93 3.84-3.16 9.35-10.57 18.37-21.42 28-31.72 8.2-8.77 12.21-19.32 13.71-30.72 3.49-26.41-1.27-51.69-12.22-75.82-4.2-9.26-10.75-11.35-20.32-7.97-11.68 4.13-22.37 10.1-33.04 16.22-16.68 9.58-33.45 19-50.17 28.5-1.16.66-2.28 1.38-3.61 2.18 6.92 6.06 14.36 10.28 23.36 12.09 5.63 1.13 11.1 3.47 16.38 5.84 5.12 2.3 10.16 2.59 15.62 1.89 13.42-1.73 26.88-3.14 40.34-4.62 1.76-.19 3.57-.19 5.34-.01 3.04.3 5.88 1.36 6.75 4.6.85 3.18.82 6.3-1.92 8.98-7.46 7.29-15.04 14.39-24.37 19.31-6.18 3.26-12.71 4.73-19.42 2.53-13.58-4.44-27.09-9.12-40.49-14.06-3.04-1.12-5.55-3.72-8.25-5.7-8.22-6.01-16.37-12.12-24.67-18.01-1.25-.89-3.38-1.45-4.8-1.06-6.78 1.84-12.6.75-18.46-3.42-8.37-5.95-17.36-11.02-25.97-16.65-4.08-2.68-7.37-6.12-8.34-11.79z" fill="#010103"/><path d="m232.18 113.69c-.55.05-.99.01-1.38.14-12.04 4.15-24.09 8.28-36.09 12.54-1.64.58-3.05 1.81-4.56 2.75-6.43 3.99-13.58 5.77-20.99 6.35-12.65.98-25.33 1.32-37.34-3.76-2.39-1.01-4.69-3.01-6.22-5.13-4.64-6.44-9.04-13.07-13.23-19.81-2.22-3.57-3.68-7.6-5.75-11.26-1.09-1.93-2.44-4.14-4.26-5.15-4.57-2.53-9.49-4.44-14.26-6.63-3.77-1.73-6.31-4.48-7.21-9.08 5.81-1.76 11.54-3.53 17.27-5.24 12.2-3.64 24.42-7.23 36.62-10.91 1.91-.58 3.77-1.39 5.55-2.3 23.95-12.23 48.82-22.15 74.52-30 1.24-.38 2.65-.72 3.89-.52 9.14 1.48 18.23 3.25 27.37 4.64 12.07 1.83 22.16 6.75 28.86 17.4 4.33 6.88 5.76 14.48 5.44 22.47-.59 14.65-4.93 28.07-11.35 41.33-8.16 16.84-21.56 28.26-35.67 39.33-11.55 9.07-23.38 17.79-37.59 22.31-5.69 1.81-11.65 2.78-18.07 4.26 0-3.61-.19-6.39.1-9.13.11-1 1.21-2.04 2.1-2.78 11.11-9.22 22.33-18.3 33.38-27.59 7.7-6.47 13.73-14.38 18.65-23.13.16-.26.14-.6.22-1.1zm-107.75-17.53c2.86 1.41 4.75 2.38 6.67 3.27.91.42 1.88.71 2.82 1.05 15.74 5.62 32.1 6.06 48.41 4.64 14.57-1.27 29.04-3.76 43.51-6.03 3.95-.62 6.84-.28 8.96 3.39.86 1.5 2.22 2.72 3.42 4.15 3.7-2.71 7.05-5.14 8.22-9.67.95-3.66 2.81-7.11 3.59-10.8 1.89-8.94 4.25-17.91 4.79-26.97.61-10.13-11.02-18.24-20.9-15.42-12.46 3.55-24.96 7.05-37.22 11.21-17.03 5.78-33.07 13.65-47.12 25.11-7.52 6.14-14.4 13.18-25.15 16.07z" fill="#010103"/></svg>