<svg enable-background="new 0 0 400 400" viewBox="0 0 400 400" xmlns="http://www.w3.org/2000/svg"><path d="m252.78 367.12v5.86c-5.91.6-11.67 1.24-17.46 1.74-.95.08-1.96-.37-2.91-.67-14.05-4.47-28.12-8.88-42.13-13.49-3.25-1.07-6.41-2.59-9.38-4.32-8.01-4.68-15.94-9.52-23.81-14.44-1.85-1.16-3.86-2.56-4.95-4.36-5.33-8.77-10.4-17.69-15.52-26.59-1.61-2.79-1.31-5.55-.35-8.65 1.85-5.94 5.23-10.2 9.94-14.41 6.93-6.19 12.75-13.71 18.56-21.05 4.99-6.3 9.2-13.21 13.92-19.74 3.38-4.68 6.45-9.64 11.77-12.64 1.75-.99 3.05-2.95 4.3-4.65 11.75-15.98 21.92-32.93 30.88-50.63 1.33-2.63.87-4.12-1.34-5.82-13.99-10.71-29.6-16.13-47.36-15.55-4.68.15-9.75-.45-14.04-2.18-14.39-5.8-27.89-13.22-38.39-25.09-3.62-4.1-6.82-8.34-6.06-14.31.35-2.79 1.34-4.42 4.53-3.33 4.83 1.64 10.16 2.4 14.45 4.94 10.7 6.34 22.13 9.14 34.38 10.04 14.5 1.06 28.96 2.68 43.41 4.26 1.8.2 3.75 1.28 5.16 2.5 3.37 2.93 6.43 6.23 9.67 9.31 6.06 5.77 9.73 12.64 10.49 21.12 2.35 26.39 10.46 51.66 15.16 77.58 1.3 7.16.59 14.7.68 22.07.03 2.66-.25 5.33-.47 7.99-.95 11.37-10.03 17.12-16.96 24.33-.47.49-1.61.5-2.43.47-2.55-.07-5.18-.75-7.64-.34-9.35 1.55-18.29-.41-27.05-3.11-13.79-4.25-27.11-3.02-40.33 2.18-5.43 2.13-7.78 6.15-6.64 11.83.42 2.08 1.26 4.16 1.25 6.23-.05 10.46 7.08 16.1 14.43 21.4 2.66 1.92 5.99 3.01 9.13 4.13 4.45 1.58 7.96 4.16 10.98 7.83 1.58 1.92 4.07 3.59 6.47 4.27 17.4 4.94 34.88 9.6 52.33 14.34 1.06.34 2.13.62 3.33.95zm-45.86-83.68c15.23-.62 26.36-7.19 36.05-16.71.64-.63.99-1.98.86-2.91-2.31-17.27-4.69-34.52-7.09-51.77-.53-3.83-1.43-7.63-4.88-9.89-1.12-.73-3.22-.93-4.42-.39-4.36 1.99-6.84 5.69-8.8 10.06-3 6.69-6.17 13.36-9.95 19.62-6.36 10.51-13.31 20.67-19.89 31.04-1.6 2.53-2.9 5.29-4.05 8.06-1.36 3.27-.1 7.26 2.59 8.44 6.63 2.9 13.59 4.34 19.58 4.45z" fill="#010106"/><path d="m151.82 30.43c3.68 5.85 9.63 7.19 16.26 7.85 6.3.62 12.45 2.87 18.75 3.44 9.56.86 19.21.65 28.78 1.36 8.12.6 16.17 2.41 24.28 2.62 6.62.17 13.29-1.22 19.93-1.92 1.91-.2 3-1.2 3.26-3.15.34-2.54.73-5.08 1.19-7.6.26-1.42.43-2.98 1.17-4.14.89-1.42 2.34-3.52 3.54-3.51 2.73.02 5.4 1.51 5.6 4.73.64 10.24 1.77 20.53 1.32 30.74-.29 6.65-2.91 13.21-4.67 19.76-1.63 6.06-5.65 10.47-10.99 13.37-10.81 5.86-21.87 11.21-34.22 13.15-7.4 1.16-14.76.78-21.91-1.37-12.4-3.73-24.82-7.43-37.02-11.77-7.26-2.58-12.36-8.19-16.28-14.84-6.84-11.59-10.15-23.9-8.77-37.48.62-6.06 3.5-9.57 9.78-11.24zm64.33 58.48c11.31.01 23.18-3.18 35.19-5.81 5.61-1.23 8.57-3.73 9.61-9.15.74-3.83 2.11-7.56 2.55-11.4.52-4.54-.61-5.42-5.13-5.45-8.05-.05-16.13.32-24.14-.28-22.28-1.67-44.53-3.78-66.8-5.64-5.58-.47-8.33 2.12-7.26 7.69 1.79 9.35 7.25 16.93 15.77 20.62 12.36 5.36 25.23 9.82 40.21 9.42z" fill="#010106"/><g fill="#fcfbfa"><path d="m385.2 377.6.6-.7c.6.4 1.3.9 1.9 1.5l-.6.7c-.8-.5-1.4-1-1.9-1.5zm.3 7.1c.6-1.4 1.1-2.9 1.5-4.5.3.1.6.3.9.4-.5 1.4-1 2.9-1.5 4.4zm.2-10.1.6-.6c.7.5 1.3 1.1 1.9 1.6l-.7.7c-.6-.6-1.2-1.2-1.8-1.7zm8.4-.8h.8v.9h1.8v.7h-1.8v1.8h-.8v-.3h-1.2v.9h3.3v2.6h-.8v-.4h-2.5c0 .3 0 .6-.1.8h3.4v.7h-3.5c0 .3-.1.6-.1.8h4v.7h-3.5c.7.9 1.9 1.3 3.6 1.5-.2.2-.4.5-.6.9-1.9-.3-3.2-1.1-3.8-2.3-.5 1.1-1.8 2-3.9 2.4-.2-.3-.4-.5-.6-.8 1.9-.4 3.1-.9 3.6-1.7h-3.2v-.7h3.5c.1-.2.1-.5.2-.8h-3.3v-.7h3.4c0-.2 0-.5 0-.8h-2.4v.3h-.8v-2.6h3.3v-.9h-1.2v.3h-.8v-1.8h-1.8v-.7h1.8v-.9h.8v.9h3.2zm-4.4 5.5h2.4c0-.3 0-.6 0-.9h-2.4zm1.2-3.1h3.2v-.8h-3.2zm4.4 2.2h-2.4v.9h2.5v-.9z"/><path d="m389.2 385.8h.9v1.5h1.9v-1.5h.9v1.5h2.7v6h1.1v.9h-11.3v-.9h1.1v-6h2.7zm.2 8.7.5.8c-1.2.6-2.5 1.3-4 1.9-.2-.3-.3-.6-.6-.8 1.6-.6 3-1.3 4.1-1.9zm-2-4.3h1.9v-2.1h-1.9zm0 3.1h1.9v-2.2h-1.9zm2.7-3.1h1.9v-2.1h-1.9zm0 3.1h1.9v-2.2h-1.9zm2.4 1.3c1.4.6 2.7 1.2 4.1 1.8l-.5.9c-1.5-.7-2.8-1.4-4.1-1.9zm2.2-6.5h-1.9v2.1h1.9zm-1.9 5.2h1.9v-2.2h-1.9z"/></g></svg>