<svg enable-background="new 0 0 400 400" viewBox="0 0 400 400" xmlns="http://www.w3.org/2000/svg"><g fill="#fcfafa"><path d="m342.2 3.2-6.3 9.2h6.1v1.2h-8.2v-.5l6.2-9.1h-5.7v-1.2h7.8v.4z"/><path d="m344 13.7v-10.9h3.1c1.6 0 3 .5 4.1 1.4 1.1 1 1.6 2.2 1.6 3.9s-.5 3-1.6 4-2.5 1.5-4.2 1.5h-3zm1.4-9.6v8.4h1.6c1.4 0 2.5-.4 3.2-1.1.8-.8 1.2-1.8 1.2-3.2s-.4-2.4-1.2-3.1-1.8-1-3.1-1z"/><path d="m356.3 2.8v10.9h-1.4v-10.9z"/><path d="m366.6 13.2c-.8.4-1.8.6-3 .6-1.6 0-2.8-.5-3.7-1.5s-1.4-2.3-1.4-3.9c0-1.7.5-3.2 1.6-4.2s2.4-1.6 4-1.6c1 0 1.9.1 2.6.4v1.5c-.8-.4-1.6-.6-2.6-.6-1.2 0-2.2.4-3 1.2s-1.1 1.9-1.1 3.3c0 1.3.4 2.3 1.1 3.1s1.6 1.1 2.8 1.1c1.1 0 2-.2 2.8-.7v1.3z"/><path d="m368.2 13c0-.3.1-.5.3-.6.2-.2.4-.3.6-.3.3 0 .5.1.7.3s.3.4.3.6-.1.5-.3.6c-.2.2-.4.3-.7.3s-.5-.1-.6-.3c-.2-.2-.3-.4-.3-.6z"/><path d="m381.1 13.7h-1.7l-5.5-8.4c-.2-.2-.3-.5-.4-.7 0 .2.1.8.1 1.5v7.6h-1.4v-10.9h1.8l5.3 8.3c.3.4.4.6.4.8 0-.3-.1-.8-.1-1.6v-7.5h1.4v10.9z"/><path d="m389.7 13.7h-5.8v-10.9h5.6v1.2h-4.2v3.5h3.9v1.2h-3.9v3.7h4.4z"/><path d="m398.4 4.1h-3.1v9.6h-1.4v-9.6h-3.1v-1.3h7.7v1.3z"/></g><path d="m242.18 181.05c-12.41-3.01-21.31-11.41-31.4-18.52-1.64 2.6-3.86 1.57-5.84.15-3.72-2.67-7.37-5.45-10.89-8.38-.76-.63-.88-2.05-1.13-2.69-4.47-1.46-8.82-3.04-13.27-4.25-1.76-.48-3.89-.62-5.61-.12-10.14 2.98-18.97 7.75-23.48 18.12-3.63 8.35-8.43 10.18-16.77 6.59-10.47-4.5-19.89-10.6-28.53-18.71 4.03-1.37 7.9-2.67 11.76-3.98 22.57-7.69 43.41-18.7 63-32.26 3.82-2.64 8.78-3.63 13.22-5.36 2.9-1.13 5.98-1.94 8.68-3.44 2.15-1.2 3.83-3.22 6.23-5.32-1.77-.65-2.76-1.01-3.75-1.38-18.12-6.69-36.44-12.91-54.3-20.25-10.8-4.44-20.92-10.58-31.27-16.08-2.73-1.45-4.64-3.75-4.85-7.04 15.17-.09 27.08-8.73 39.95-14.54 9.14-4.13 17.64-9.7 26.81-13.73 14.9-6.55 30.1-5.21 45.16.01 7.23 2.51 14.59 5.1 19.49 11.25 3.2 4.02 5.21 8.97 7.72 13.53.26.47.53 1.15.37 1.59-2.07 5.86-3.69 11.95-6.46 17.47-3.98 7.94-8.81 15.45-13.51 23.55 7.75 1.28 14.78 2.44 21.82 3.6.66.11 1.39.08 1.97.37 10.36 5.21 20.3 11.05 27.2 20.74 4.53 6.36 5.46 13.81 4.45 21.21-1.17 8.6-3.3 17.08-5.14 25.59-.24 1.11-1.08 2.21-1.91 3.04-9.03 9.01-18.04 18.06-27.26 26.88-2.13 2.03-5.02 3.28-7.61 4.81-4.52 2.68-5.17 4.73-3.42 9.67 2.29 6.46 5.1 12.25 10.75 16.83 5.74 4.66 9.65 11.13 12.5 18.05 2.08 5.06 3.26 10.27 1.36 15.67-.65 1.85-.13 3 1.08 4.46 1.09 1.32 1.92 3.2 2.06 4.9.75 9.12 1.35 18.25 1.78 27.39.27 5.69.07 11.4.23 17.1.18 6.7.35 13.42.86 20.1.29 3.77.3 7.34-1.77 10.65-3.76 6-4.23 12.75-4.76 19.57-.41 5.38-.98 5.51-5.96 6.72-2.36.58-3.78.07-4.25-2.21-1.1-5.32-3.16-10.73-2.88-16 1.7-31.86-2.1-63.23-7.7-94.46-.8-4.44-2.38-8.89-4.4-12.94-4.9-9.85-10.73-19.18-18.98-26.63-3.13-2.83-4.63-5.91-4.66-10.11-.02-3.47-.45-6.47 3.05-9.07 2.09-1.55 3.11-4.81 4.11-7.49 1.02-2.71 2.74-4.13 5.41-4.91 6.43-1.86 7.86-3.23 10.74-9.74zm-36.87-37.94c6.27 2.12 11.94 3.96 17.54 5.97 3.42 1.23 6.93 2.39 10.07 4.16 6.22 3.5 12.2 7.45 18.32 11.12 3.62 2.17 8.29 1.56 10.13-1.75 3.44-6.2 7.23-12.29 7.66-19.75.49-8.49-.5-16.46-7.53-22.21-7.77-6.36-17.29-8.99-26.72-6.99-9.92 2.1-19.53 6.15-28.08 12.19-2.74 1.93-6.26 2.72-9.32 4.25-1.6.8-4.35 2.37-4.19 3.04.48 2.07 1.78 4.22 3.36 5.7 2.24 2.09 5.02 3.62 7.71 5.48.26-.3.91-1.05 1.05-1.21zm23.33-73.26c-.29-.1-.58-.19-.87-.29 0-.34.04-.68-.01-1.01-.96-6.17-1.88-12.35-2.99-18.49-.12-.68-1.27-1.41-2.09-1.69-4.75-1.65-9.6-3.03-14.31-4.78-7.32-2.72-13.87.12-19.5 3.79-5.35 3.49-10.48 7.1-16.5 9.33-1.38.51-2.78 1.47-3.72 2.61-1.99 2.41-3.83 4.97-5.42 7.66-.48.82-.39 2.79.22 3.29 2.56 2.11 5.18 4.52 8.21 5.64 8.89 3.27 17.97 6.06 27.03 8.84 1.6.49 3.5-.09 5.21.14 1.28.17 2.66.62 3.69 1.37 1.15.83 1.94 2.14 2.9 3.24 3.94 4.52 8.85 3.75 11.25-1.73.53-1.22 1.42-2.31 1.87-3.55 1.74-4.76 3.36-9.57 5.03-14.37z" fill="#010103"/></svg>