<svg enable-background="new 0 0 400 400" viewBox="0 0 400 400" xmlns="http://www.w3.org/2000/svg"><path d="m168.96 189.16c-7.81-3.54-15.72-3.47-23.79-2.1-7.89 1.34-14.68-2.6-17.64-10.09-.08-.21-.24-.42-.22-.63.57-8.05-1.14-16.36 2.88-24.01.85-1.62 1.88-2.4 3.71-1.87 4.92 1.43 9.93 2.61 14.74 4.32 5.65 2 11.3 3.44 17.36 3.08 3.01-.18 6.04 0 9.07-.04 8.93-.12 17.71-.12 26.4 3.17 5.41 2.05 11.88 1.24 17.39 3.12 8.82 3.02 17.52 6.71 25.73 11.11 4.95 2.65 7.43 7.73 6.7 13.95-.78 6.66-.99 13.39-1.68 20.07-.17 1.64-.91 3.4-1.87 4.76-10.55 15.03-25.64 25.18-39.82 36.19-4.59 3.57-10.93 4.94-16.56 7.1-4.38 1.68-8.87 3.05-13.33 4.5-9.11 2.96-15.94 8.78-21.27 16.61-2.28 3.36-3.42 7.25-2.22 10.85 3.77 11.39 4.36 23.18 5.86 34.92.85 6.66.49 12.51-2.12 18.47-1.53 3.48-2.64 7.17-4.49 10.46-1.72 3.05-3.86 6.03-6.39 8.42-2.6 2.46-4.54 5.11-5.79 8.42-2.25 5.95-3.3 6.42-10.16 4.58.79-1.7 1.19-3.63 2.34-4.87 10.82-11.74 15.08-26.02 15.61-41.47.27-8-.69-16.06-1.37-24.06-.13-1.57-1.25-3.3-2.38-4.51-2.67-2.85-5.79-5.3-8.39-8.21-1.05-1.17-1.81-3.18-1.67-4.71.35-3.88 1.21-7.72 2.04-11.54.19-.9.94-1.75 1.62-2.45 2.02-2.09 3.96-4.32 6.25-6.08 7.36-5.67 10.68-13.64 12.74-22.23 1.66-6.95 2.65-14.05 4.16-21.04 1.27-5.88 3.09-11.64 4.24-17.54 1.07-5.48 1.57-11.05 2.32-16.65zm69.53 4.54c-.26-3.43-4.33-13.31-6.75-15.52-.46-.42-1.15-.64-1.78-.79-11.82-2.91-23.64-5.84-35.49-8.64-3.54-.84-8.39 2.83-8.99 6.37-.97 5.7-1.66 11.48-3.17 17.04-1.96 7.21-4.62 14.23-6.93 21.34-.37 1.15-.89 2.46-.67 3.56 1.34 6.54-.65 12.57-2.31 18.74-.78 2.91-1.02 6.18-.6 9.16.61 4.32 4.29 5.85 8.22 3.95 12.17-5.88 24.34-11.77 36.5-17.67.89-.43 1.87-.85 2.57-1.52 8.2-7.95 15-16.83 17.85-28.17.65-2.58 1.04-5.23 1.55-7.85z" fill="#010106"/><path d="m266.43 59.96c0 .35-.09 1.7.02 3.04.22 2.65-.41 4.46-3.45 4.99-1.02.18-2.01 1.31-2.75 2.22-4.93 6.08-9.78 12.24-14.7 18.33-.83 1.02-1.77 2.12-2.9 2.69-13.61 6.76-27.24 13.46-40.9 20.1-11.86 5.76-23.39 4.6-34.57-1.97-2.99-1.76-5.94-3.58-8.83-5.48-.9-.59-1.79-1.4-2.31-2.32-6.37-11.39-11.65-23.21-12.86-36.39-.8-8.7 1.35-16.69 6.3-24.03 1.7-2.52 2.33-5.73 3.69-8.51.47-.96 1.72-2.3 2.5-2.23 12.68 1.13 24.92-2.08 37.23-3.94 19.14-2.89 37.77-1.26 55.79 5.3 10.98 3.97 19.05 12.63 17.74 28.2zm-111.03 6.94c.65 13.8 7.86 23.82 16.9 32.92.51.51 1.34.79 2.07.99 8.22 2.25 16.5 2.8 24.9.99 11.85-2.55 21.96-8.62 31.64-15.58 8.22-5.92 14.93-13.09 18.88-22.59.64-1.54 1.6-2.94 2.39-4.42 2.21-4.13 1.63-7.08-2.07-9.97-1.58-1.24-3.3-2.31-4.98-3.41-10.06-6.56-20.85-9.91-33.06-8.35-4.84.62-10 .93-14.71-.08-6.62-1.41-12.59.18-18.73 1.76-3.25.83-6.49 1.69-9.74 2.52-4.58 1.17-7.78 4.4-9.28 8.42-2 5.38-2.86 11.18-4.21 16.8z" fill="#010106"/><g fill="#fcfbfa"><path d="m385.2 377.6.6-.7c.6.4 1.3.9 1.9 1.5l-.6.7c-.8-.5-1.4-1-1.9-1.5zm.3 7.1c.6-1.4 1.1-2.9 1.5-4.5.3.1.6.3.9.4-.5 1.4-1 2.9-1.5 4.4zm.2-10.1.6-.6c.7.5 1.3 1.1 1.9 1.6l-.7.7c-.6-.6-1.2-1.2-1.8-1.7zm8.4-.8h.8v.9h1.8v.7h-1.8v1.8h-.8v-.3h-1.2v.9h3.3v2.6h-.8v-.4h-2.5c0 .3 0 .6-.1.8h3.4v.7h-3.5c0 .3-.1.6-.1.8h4v.7h-3.5c.7.9 1.9 1.3 3.6 1.5-.2.2-.4.5-.6.9-1.9-.3-3.2-1.1-3.8-2.3-.5 1.1-1.8 2-3.9 2.4-.2-.3-.4-.5-.6-.8 1.9-.4 3.1-.9 3.6-1.7h-3.2v-.7h3.5c.1-.2.1-.5.2-.8h-3.3v-.7h3.4c0-.2 0-.5 0-.8h-2.4v.3h-.8v-2.6h3.3v-.9h-1.2v.3h-.8v-1.8h-1.8v-.7h1.8v-.9h.8v.9h3.2zm-4.4 5.5h2.4c0-.3 0-.6 0-.9h-2.4zm1.2-3.1h3.2v-.8h-3.2zm4.4 2.2h-2.4v.9h2.5v-.9z"/><path d="m389.2 385.8h.9v1.5h1.9v-1.5h.9v1.5h2.7v6h1.1v.9h-11.3v-.9h1.1v-6h2.7zm.2 8.7.5.8c-1.2.6-2.5 1.3-4 1.9-.2-.3-.3-.6-.6-.8 1.6-.6 3-1.3 4.1-1.9zm-2-4.3h1.9v-2.1h-1.9zm0 3.1h1.9v-2.2h-1.9zm2.7-3.1h1.9v-2.1h-1.9zm0 3.1h1.9v-2.2h-1.9zm2.4 1.3c1.4.6 2.7 1.2 4.1 1.8l-.5.9c-1.5-.7-2.8-1.4-4.1-1.9zm2.2-6.5h-1.9v2.1h1.9zm-1.9 5.2h1.9v-2.2h-1.9z"/></g></svg>