<svg enable-background="new 0 0 400 400" viewBox="0 0 400 400" xmlns="http://www.w3.org/2000/svg"><g fill="#fbfafa"><path d="m37.59 393.81c-.92.31-1.52.05-2-.78-.7-1.2-1.52-2.34-2.47-3.78v4.59c-.55.03-.95.05-1.41.07-.03-.37-.06-.64-.06-.91 0-1.91 0-3.81 0-5.7 1.13-.41 1.77-.03 2.29.91.62 1.11 1.38 2.14 2.31 3.19v-4.2h1.35v6.61z"/><path d="m12.94 393.88v-6.75c1.9.19 3.93-.54 5.37 1.29.8 1.01.78 2.88.03 3.97-1.37 1.97-3.4 1.51-5.4 1.49m1.45-1.22c2.04.12 2.92-.58 2.89-2.21-.03-1.51-.98-2.19-2.89-2z"/><path d="m11.81 393.87h-5.49c.68-2.18 2.47-3.48 3.51-5.45h-3.08v-1.21h5.29c-.71 2.13-2.44 3.48-3.47 5.51.86 0 1.63.04 2.39-.01.79-.05 1.14.21.85 1.16"/><path d="m39.33 393.86v-6.61h3.7v1.07h-2.22v1.52c.68.04 1.34.09 2.07.13v1.07c-.72.05-1.38.09-2.1.14v1.48h2.4v1.19h-3.85z"/><path d="m27.71 388.56c-1.15-.3-2.46-.61-3.1.64-.37.73-.41 1.93-.06 2.67.63 1.35 1.99.93 3.17.68.35.94-.01 1.32-.93 1.46-1.62.25-3.05-.27-3.76-1.48-.73-1.24-.6-3.03.31-4.17.88-1.11 2.71-1.7 4-1.16.32.13.44.74.65 1.12-.1.08-.19.16-.28.24"/><path d="m49.15 387.24v1.07c-.59.02-1.17.05-1.87.08v5.44h-1.48v-5.44h-1.85c-.05-.4-.08-.73-.13-1.15z"/><path d="m20.06 387.21h1.33v6.62h-1.33z"/><path d="m30.68 393.25c-.49.38-.8.79-1.05.76-.32-.05-.6-.45-.9-.7.26-.24.51-.64.8-.67.29-.04.62.3 1.15.61"/></g><path d="m272.77 95.15c-4.67 3.52-9.82 3.86-14.94 3.22-8.2-1.03-16.41-2.21-24.49-3.89-7.18-1.49-14.21-3.68-21.28-5.68-3.5-.99-5.16-.47-6.52 3-.8 2.05-1.31 4.29-1.53 6.49-.62 6.07-2.6 11.25-8.06 14.67-2.31 1.45-4.2 3.22-3.63 6.52.17.99-.72 2.25-1.31 3.29-3.83 6.71-9.32 11.99-15.06 16.99-2.06 1.79-2.85 3.81-2.8 6.44.18 9.12 1.18 17.94 5.65 26.24 4.5 8.35 8.36 17.06 12.38 25.66.86 1.84 1.83 2.44 3.86 2.03 8.76-1.78 17.57-3.33 26.32-5.19 1.35-.29 3.11-1.53 3.56-2.75 2.12-5.78 5.97-9.55 11.44-12.34 7.66-3.91 14.97-8.51 22.51-12.65 1.36-.75 3.13-.88 4.73-1.07 4.28-.49 8.57-.88 12.87-1.25 3.49-.3 6.99-.52 10.71-.79.21 3.68-.61 5.24-3.7 6.35-9.32 3.35-18.61 6.91-27.57 11.12-3.53 1.66-6.14 5.25-9.17 7.96.16.3.32.61.48.91 4.25.81 8.5 1.61 12.75 2.44.87.17 1.91.19 2.55.69 5.53 4.35 12.04 4.03 18.52 4.22 6.92.2 13.84.76 20.75 1.27 1.3.09 2.82.34 3.78 1.1.91.71 1.66 2.18 1.66 3.32 0 .76-1.32 1.94-2.26 2.22-11.4 3.39-22.91 5.39-34.55 1.25-3.09-1.1-5.5-.71-7.91 1.43-1.65 1.46-3.59 2.6-5.48 3.94 12.35 16.76 24.54 33.35 33.28 52.53-4.54.3-7.37-.87-9.92-4.04-8.7-10.8-17.81-21.28-26.62-32-2.18-2.65-4.05-5.62-5.68-8.65-7.16-13.32-9.53-14-25.15-12.03-7.28.92-14.4 3.08-21.6 4.64-.98.21-1.99.27-3 .35-6.55.47-6.86.39-8.53 6.9-1.47 5.71-1.97 11.67-3.28 17.44-.88 3.87-1.77 7.97-3.76 11.31-11.11 18.64-16.77 39.4-23.73 59.66-.73 2.11-1.15 4.38-2.17 6.33-2.55 4.89-1.34 9.79-.33 14.68.2.96 1.08 1.93 1.89 2.59 10.31 8.25 20.64 16.47 31.03 24.63 1.29 1.02 2.85 1.79 4.39 2.39 3.01 1.17 5.43 2.86 7.07 5.78.57 1.02 1.92 1.82 3.09 2.25 4.51 1.65 9.11 3.04 13.63 4.66 1.63.59 3.12 1.56 5.24 2.64-4.75 1.88-9.13 1.6-12.93.26-13.68-4.82-27.43-9.59-40.62-15.57-8.35-3.79-16.37-8.94-23.43-14.81-12.36-10.29-22.44-22.73-30.15-36.99-1.46-2.71-3.62-5.14-5.82-7.33-4.58-4.54-6.96-9.96-7.76-16.28-1.73-13.72-2.41-27.43.38-41.08.51-2.52 2.1-4.81 3.11-7.24.45-1.1 1.26-2.45.96-3.39-1.94-5.99-.21-11.78.74-17.58 2.9-17.69 1.54-34.9-4.42-51.89-4.62-13.17-8.46-26.62-12.55-39.97-.47-1.55-.82-3.39-.44-4.9.93-3.67.03-6.65-1.9-9.79-1.13-1.84-1.71-4.36-1.65-6.54.25-8.5.51-17.03 1.5-25.46.39-3.34 2.01-7.07 4.25-9.56 5.4-6 8.8-12.88 10.99-20.47 2.49-8.63 8.34-13.34 16.38-17.22 10.1-4.88 19.6-3 29.29-.42 5.78 1.54 11.24 4.26 16.92 6.21 2.82.97 5.87 1.26 8.74 2.1 1.52.45 3.17 1.14 4.29 2.21 5.8 5.6 11.46 11.33 17.13 17.06.93.94 1.96 1.97 2.43 3.16 1.87 4.75 5.4 6.9 10.31 7.7 2.18.36 4.27 1.72 6.23 2.91 1.9 1.16 3.75 2.51 5.31 4.09 7.52 7.59 17.19 9.39 27.2 10.58 5.2.62 10.42 1.41 15.49 2.67 4.3 1.07 7.76 3.75 9.91 8.32zm-99.68 112.28h.42c0-6.26-.11-12.53.05-18.78.07-2.82-.49-5.17-2.38-7.36-5.6-6.47-10.05-13.47-11.78-22.16-.56-2.82-3.08-5.69-5.46-7.56-1.81-1.43-4.8-1.49-7.31-1.88-8.5-1.33-17.01-2.64-25.54-3.76-4.72-.62-6.11.96-5.23 5.43.3 1.53.57 3.09 1.1 4.55 2.87 7.86 5.86 15.68 8.73 23.54 2.14 5.85 3.04 11.83 2.14 18.11-1.02 7.17-1.65 14.39-2.48 21.59-.47 4.1-.61 8.28-1.56 12.27-2.21 9.23-4.62 18.42-7.33 27.51-3.15 10.59-1.73 20.66 3.21 30.19 5.6 10.81 13.54 19.94 22.21 28.42.49.48 1.35.92 1.99.85 3.51-.34 6.14-3.77 6.36-7.37.27-4.44.81-8.87 1.48-13.27.92-6.07 2.4-12.07 3.04-18.16.96-9.18 3.11-17.81 8.9-25.23.6-.77.98-1.75 1.34-2.68 8-20.92 8-20.92 8.1-43.57 0-.23 0-.45 0-.68zm-70.82-118.89c.16 1.5.14 4.12.75 6.58 1.76 7.04 3.74 14.02 5.73 20.99.25.89.93 1.81 1.67 2.38 6.2 4.76 12.37 9.59 20.42 10.96 4.18.71 8.29 1.91 12.49 2.45 9.67 1.26 18.18-.83 24.41-9.09 1.88-2.49 4.28-4.59 6.15-7.1 1.36-1.82 2.62-3.89 3.24-6.05 2.68-9.34 5.17-18.73 7.59-28.13 2.21-8.59.99-16.99-5.3-23.15-12.98-12.7-28.16-19.67-47.2-16.99-9.58 1.35-15.14 7.03-20.24 13.82-7.12 9.5-9.14 20.69-9.71 33.33z" fill="#010000"/></svg>