<svg enable-background="new 0 0 400 400" viewBox="0 0 400 400" xmlns="http://www.w3.org/2000/svg"><g fill="#fbfafa"><path d="m37.59 393.81c-.92.31-1.52.05-2-.78-.7-1.2-1.52-2.34-2.47-3.78v4.59c-.55.03-.95.05-1.41.07-.03-.37-.06-.64-.06-.91 0-1.91 0-3.81 0-5.7 1.13-.41 1.77-.03 2.29.91.62 1.11 1.38 2.14 2.31 3.19v-4.2h1.35v6.61z"/><path d="m12.94 393.88v-6.75c1.9.19 3.93-.54 5.37 1.29.8 1.01.78 2.88.03 3.97-1.37 1.97-3.4 1.51-5.4 1.49m1.45-1.22c2.04.12 2.92-.58 2.89-2.21-.03-1.51-.98-2.19-2.89-2z"/><path d="m11.81 393.87h-5.49c.68-2.18 2.47-3.48 3.51-5.45h-3.08v-1.21h5.29c-.71 2.13-2.44 3.48-3.47 5.51.86 0 1.63.04 2.39-.01.79-.05 1.14.21.85 1.16"/><path d="m39.33 393.86v-6.61h3.7v1.07h-2.22v1.52c.68.04 1.34.09 2.07.13v1.07c-.72.05-1.38.09-2.1.14v1.48h2.4v1.19h-3.85z"/><path d="m27.71 388.56c-1.15-.3-2.46-.61-3.1.64-.37.73-.41 1.93-.06 2.67.63 1.35 1.99.93 3.17.68.35.94-.01 1.32-.93 1.46-1.62.25-3.05-.27-3.76-1.48-.73-1.24-.6-3.03.31-4.17.88-1.11 2.71-1.7 4-1.16.32.13.44.74.65 1.12-.1.08-.19.16-.28.24"/><path d="m49.15 387.24v1.07c-.59.02-1.17.05-1.87.08v5.44h-1.48v-5.44h-1.85c-.05-.4-.08-.73-.13-1.15z"/><path d="m20.06 387.21h1.33v6.62h-1.33z"/><path d="m30.68 393.25c-.49.38-.8.79-1.05.76-.32-.05-.6-.45-.9-.7.26-.24.51-.64.8-.67.29-.04.62.3 1.15.61"/></g><path d="m195.73 150.92c-.43 1.37-.59 2.91-1.33 4.07-5.1 8.03-10.02 16.19-15.66 23.83-2.12 2.87-5.88 4.62-9.08 6.56-2.37 1.44-5.11 2.26-7.56 3.58-1.52.82-2.8 2.06-4.91 3.66 5.09 3.3 9.26 6.86 14.08 8.95 8.05 3.5 9.78 10.29 11.29 17.57-5.32 2.3-5.31 2.3-8.39-1.69-3.2-4.15-6.42-8.3-10.6-12.5-.36 2.49-1.09 5-.98 7.47.1 2.41.92 4.81 1.65 7.15 5.6 18.02 1.77 34.92-6.23 51.24-2.11 4.3-5.02 8.2-7.34 12.41-.68 1.23-.92 2.94-.76 4.36.34 2.99.93 5.97 1.7 8.89.53 2 1.61 3.84 2.32 5.8 1.51 4.14 3.51 8.2 4.27 12.48 1.09 6.11 1.26 12.39 1.85 18.87-1.51.45-3.16.95-4.9 1.47-3.61-9.46-5.64-19.43-12.61-27.01-1.62-1.76-3.83-2.97-5.77-4.43-5.22 5.9-5.89 12.52-5.26 19.53.56 6.29 2.26 12.59-.38 18.87-.43 1.03.23 2.6.56 3.88 2.35 9.18 4.73 18.34 6.4 27.84-1.78-3.16-3.97-6.17-5.25-9.52-4.14-10.85-8.02-21.81-11.83-32.79-.74-2.14-1.06-4.57-.97-6.84.2-4.91.72-9.82 1.29-14.71.14-1.24.77-2.55 1.51-3.57 7.48-10.2 15.09-20.29 22.49-30.55 1.14-1.58 2.03-3.88 1.88-5.75-.48-5.95 2.33-10.87 4.44-15.98 1.63-3.96 2.45-7.75 1.31-11.99-2.19-8.11-1.81-16.42-1.2-24.67.72-9.75-2.59-18.24-7.63-26.23-.72-1.15-2.05-2.12-3.31-2.7-8.04-3.66-11.88-10.47-14.01-18.53-4.12-15.56-4.11-30.97 2.19-46.02.56-1.33 1.7-2.63 2.91-3.43 7.63-5.09 15.18-10.34 23.15-14.86 2.88-1.63 6.82-1.44 10.29-1.95 4.73-.69 9.62-.74 14.18-2 4.96-1.37 4.97-2.35 5.23-7.5.23-4.62-.5-8.87-3.04-12.77-2.08-3.18-2.89-6.67-2.85-10.48.04-3.46-.74-6.98-.36-10.38.63-5.65-2.31-8.19-6.93-10.26-8.83-3.95-18.22-5.13-27.63-6.55-8.72-1.32-17.36-3.19-26.08-4.55-5.5-.86-11.06-1.61-16.61-1.7-6.83-.11-10.31-2.95-11.02-10.86 2.27-.32 4.71-1.28 6.89-.89 16.42 2.98 33.05 4.05 49.57 6.08 18.88 2.32 37.54 6.11 55 14.15 9.06 4.17 17.09 9.83 23.13 17.88 1.6 2.14 2.58 4.87 3.34 7.47 1.03 3.53 1.18 7.34 2.41 10.79 3.59 10.07-4.39 20.63-14.24 21.55-2.05.19-4.94.49-4.55 3.29.31 2.26 1.56 5.5 3.3 6.28 22.71 10.22 38.47 27.5 50.55 48.67 9.2 16.13 14.79 33.74 20.77 51.17 3.38 9.83 6.37 19.78 9.53 29.69.27.85.76 1.77.64 2.58-1.4 9.52 2.93 17.94 5.25 26.69 2.2 8.29 3.94 16.53 2.9 25.15-.06.51-.15 1.01-.89 1.68-.79-1.65-1.82-3.24-2.32-4.98-3.4-11.67-7.44-23.23-9.69-35.13-1.11-5.9-1.79-11.2-6.22-15.65-1.89-1.9-2.96-4.73-4.07-7.28-5.3-12.08-10.66-24.13-11.99-37.51-.18-1.83-1.52-3.58-2.44-5.3-.74-1.37-1.96-2.54-2.48-3.97-3.32-9.21-9.52-16.65-15-24.52-6.58-9.46-13.24-18.87-19.96-28.23-1-1.39-2.4-2.66-3.88-3.52-5.6-3.27-11.22-6.53-17.01-9.43-4.26-2.13-5.93-5.47-6.15-9.94-.07-1.33-.07-2.81-.66-3.91-.55-1.03-1.76-2.01-2.87-2.3-.5-.13-1.62 1.34-2.17 2.25-.56.94-.77 2.08-1.13 3.15-.25-.06-.54-.04-.61-.16-4.01-6.77-10.25-9.06-17.51-7.56-7.5 1.56-14.95 3.69-22.14 6.33-7.57 2.78-10.82 9.88-13.55 16.7-6.31 15.79-5.35 31.73.38 47.5.37 1.01 1.5 2.18 2.5 2.45 2.44.65 5.12 1.46 7.5 1.05 8.48-1.48 16.7-3.44 23.09-10.22 6.05-6.42 12.84-12.14 19.3-18.17.3.17.64.29.97.41zm-9.32-92.93c-.18 14.43 2.92 27.63 11.13 39.47 2 2.88 4.81 3.89 7.84 3.24 3.2-.69 5.52-3.01 5.86-6.53.38-3.99.94-8.04.64-12.01-1.07-14.65-10.82-23.94-25.47-24.17z" fill="#010000"/><path d="m266.14 336.26c-.8-1.11-1.93-2.11-2.34-3.35-8.69-26.46-15.87-53.3-20.29-80.83-.19-1.19-.5-2.52-1.2-3.43-6.82-8.92-9.4-19.31-10.96-30.14-.38-2.61-1.19-5.27-2.36-7.63-2.47-5-7.98-5.75-11.89-1.81-3.22 3.25-6.36 6.59-10.19 10.56-.34-3.51-.67-6.08-.77-8.66-.03-.62.55-1.44 1.09-1.87 12.88-10.19 20.2-23.9 24.95-39.26.1-.31.27-.6.41-.89 3.59 1.15 4.8 3.83 3.16 7.9-1.58 3.93-3.78 7.62-5.26 11.58-.68 1.81-.92 4.24-.28 5.99 1.86 5.1 3.95 10.16 6.51 14.94 4.69 8.76 9.89 17.26 14.69 25.96 6.87 12.44 7.75 26.46 10.28 40.04.49 2.64.69 5.34 1.4 7.92 1.63 5.97.46 11.97.67 17.95.29 7.92 1.49 15.8 2.31 23.69.37 3.55.74 7.1 1.11 10.64-.35.23-.7.47-1.04.7z" fill="#010000"/><path d="m232.04 350.97c-3.29-11.35-6.59-22.7-9.87-34.05-4.33-15.01-8.5-30.08-13.02-45.03-2.12-7.03-5.05-13.82-7.31-20.82-1.34-4.15-.86-8.36 1.76-13.47.65 1.2.96 2.02 1.47 2.69 2.71 3.56 5.34 7.18 8.23 10.59 3.67 4.34 5.72 8.91 6.6 14.82 1.17 7.84 4.73 15.31 7.05 23 .65 2.16.58 4.55.79 6.84.24 2.64.35 5.28.66 7.91.15 1.2.53 2.42 1.02 3.53 6.18 14.3 3.46 29.22 2.62 43.99z" fill="#010000"/><path d="m193.84 240.9c-2.48-7.91-4.8-15.29-7.19-22.9 7.3 2.47 12.12 17.18 7.19 22.9z" fill="#010000"/></svg>