<svg enable-background="new 0 0 400 400" viewBox="0 0 400 400" xmlns="http://www.w3.org/2000/svg"><path d="m378.6 9.2.8-1c.9.7 1.9 1.4 2.9 2.3l-.9 1.1c-1.1-.9-2-1.7-2.8-2.4zm.5 10.7c.9-2.1 1.6-4.3 2.3-6.7.4.2.8.4 1.3.6-.7 2.1-1.5 4.3-2.2 6.6zm.4-15.2.9-.9c1 .8 2 1.6 2.8 2.4l-1 1c-1-.9-1.9-1.8-2.7-2.5zm12.5-1.3h1.2v1.4h2.7v1.1h-2.7v2.7h-1.2v-.5h-1.8v1.3h4.9v3.8h-1.2v-.5h-3.7c0 .4-.1.9-.1 1.2h5.1v1h-5.2c0 .5-.1.9-.2 1.2h6v1h-5.2c1.1 1.3 2.9 2 5.5 2.2-.4.4-.7.8-.9 1.3-2.9-.5-4.8-1.6-5.7-3.5h-.1c-.8 1.7-2.7 2.9-5.9 3.6-.2-.4-.6-.8-.9-1.1 2.8-.6 4.6-1.4 5.4-2.5h-4.8v-1h5.3c.1-.3.2-.7.2-1.2h-4.9v-1h5c0-.4 0-.8.1-1.2h-3.6v.5h-1.2v-3.8h4.9v-1.3h-1.8v.5h-1.2v-2.7h-2.6v-1.1h2.6v-1.4h1.2v1.4h4.7v-1.4zm-6.7 8.4h3.6c0-.4 0-.9 0-1.4h-3.6zm1.9-4.7h4.7v-1.2h-4.7zm6.7 3.3h-3.7v1.4h3.7z" fill="#fcfafa"/><path d="m384.7 21.4h1.3v2.2h2.8v-2.2h1.3v2.2h4.1v9.1h1.7v1.3h-16.9v-1.3h1.7v-9.1h4.1v-2.2zm.3 13.2.7 1.2c-1.8.9-3.8 1.9-6 2.9-.2-.4-.5-.8-.8-1.3 2.4-1 4.4-2 6.1-2.8zm-3.1-6.5h2.8v-3.2h-2.8zm0 4.6h2.8v-3.3h-2.8zm4.1-4.6h2.8v-3.2h-2.8zm0 4.6h2.8v-3.3h-2.8zm3.6 1.9c2.1.9 4.1 1.8 6.1 2.7l-.7 1.3c-2.2-1.1-4.2-2-6.1-2.9zm3.3-9.7h-2.8v3.2h2.8zm-2.8 7.8h2.8v-3.3h-2.8z" fill="#fcfafa"/><g fill="#010000"><path d="m180.14 350.06c-.78-4.21-.41-7.19 2.09-10.05 3.83-4.37 7.29-9.07 10.74-13.75.63-.85.49-2.29.66-3.46.17-1.27.04-2.64.46-3.8 6.73-18.52 11.57-37.58 16.07-56.73 1.84-7.84 1.67-15.76.04-23.65-.64-3.1-2.54-4.64-5.74-4.12-3.62.59-7.35 1.14-10.74 2.48-13.19 5.2-26.18 10.88-39.38 16.04-10.96 4.28-22.16 7.84-34.16 7.6-2.12-.04-4.23-.3-6.34-.55-4.62-.56-7.51-3.69-7.87-8.4-.26-3.44-.57-6.88-.89-10.77 4.82.69 9.73 1.56 14.68 2.02 2.48.23 5.21.22 7.51-.59 14.88-5.21 29.97-10.24 42.99-19.31 10.07-7.01 21.47-10.88 32.35-16.02 1.61-.76 3.24-1.46 5.04-2.26-.76-4.83.43-10.57-6.78-11.53-10.11 7.81-22.03 12.03-34.43 14.55-4.75.97-10 .19-14.21-3.94-7.24-7.11-8.85-13.21-5.07-22.75 1.65-4.15 3.15-8.37 4.82-12.51.61-1.51 1.5-2.9 2.46-4.73-1.55-2.05-.09-3.93 1.58-5.68.92-.96 2.36-1.58 2.94-2.68.72-1.35 1.08-3.07.98-4.59-.04-.53-1.98-1.41-2.97-1.3-4.75.51-9.64.72-14.16 2.09-11.63 3.55-23.1 7.66-34.62 11.55-3.84 1.3-8.54-1.32-8.9-5.67-.36-4.38.12-8.87.61-13.27.24-2.21 4.31-3.78 8.11-3.84 4.45-.08 8.92-.21 13.35-.61 3.61-.33 5.15-2.86 5.3-6.25.18-3.93.13-7.7-3.58-10.52-1.33-1.02-2.15-3.15-2.51-4.92-.75-3.71-1.05-7.51-1.53-11.32 2.52-1.91 4.25-1.79 6.39.84 7.27 8.93 17 13.82 28.29 15.11 13.99 1.6 27.61-.2 40.78-5.55 4.54-1.84 6.43-5.55 9.13-9.57-6.36-2.18-12-4.92-19.02-2.14-3.41 1.35-7.82.35-11.76.08-1.47-.1-2.84-1.29-4.33-1.74-5.84-1.75-10.45-4.62-11.86-11.18-.32-1.49-1.94-2.68-2.89-4.05-2.06-2.95-.88-6 2.66-5.79 5.42.32 10.85 1.19 16.18 2.31 8.64 1.81 17.19 4.02 25.79 6.02 1.19.28 2.43.39 3.66.44 4.19.16 6.12-1.37 7.01-5.5.28-1.29.46-2.61.74-4.19-13.72-4.94-24.91-13.12-32.61-24.8-3.01 1.26-5.78 2.33-8.47 3.57-2.32 1.07-4.66 2.18-6.8 3.56-6.67 4.3-13.18 8.85-19.89 13.09-9.07 5.74-19.37 6.65-29.71 6.59-2.81-.01-5.63-1.74-8.41-2.79-.37-.14-.61-.88-.72-1.38-.86-3.99 2.13-10.47 5.94-11.75 11.47-3.87 21.15-11.1 31.8-16.49 17.84-9.02 35.86-17.73 54.9-24.05 9.79-3.25 19.95-2.02 29.99-2.07 1.37-.01 2.75.84 4.11 1.34 6.71 2.48 13.44 4.9 20.1 7.49 5.78 2.25 10.63 5.79 13.71 11.29.81 1.45.9 3.33 1.15 5.05.34 2.38-.06 5.03.87 7.12 2.33 5.2.05 10.09-.19 15.13-.38 7.69-4.6 13.88-7.37 20.64-1.52 3.72-2.96 7.48-4.13 11.32-1.35 4.4-.98 5.56 3.63 6.21 5.11.72 10.39.39 15.58.24 3.77-.11 7.55-1.1 11.29-.92 5.76.27 8.95 4.31 8.69 10.09-.3 6.78-5.29 11.81-12.14 11.43-15.43-.86-30.54 1.77-45.73 3.68-4.32.54-8.71.5-13.05.93-4.2.42-7.73 2.25-9.99 5.96-.43.7-.66 1.98-.3 2.62 4.67 8.34 5.77 17.54 6.7 26.8.77 7.58 1.7 15.15 5.36 22.01.94 1.76 1.91 4 3.48 4.79 2.19 1.1 5.73 2.27 7.35 1.26 6.4-4.01 13.53-4.48 20.56-5.47 11.07-1.55 22.21-2.65 33.29-4.13 2.64-.35 4.12.72 4.22 2.96.23 5.11.39 10.29-.25 15.34-.19 1.47-3.23 3.77-4.86 3.69-15.16-.8-28.39 6.49-42.55 9.75-4.57 1.05-8.99 2.71-13.52 3.91-2.1.55-2.97 1.56-2.73 3.74.17 1.55.03 3.13.03 4.7 0 5.63 0 5.65 5.39 7.52 8.24 2.86 16.55 1.83 24.85.36 11.11-1.97 22.22-4.02 33.33-6.02.63-.11 1.29-.12 2.78-.24 0 6.81.07 13.39-.08 19.96-.02.83-1.03 2.03-1.87 2.37-2.87 1.19-5.81 2.34-8.83 3.01-5.62 1.24-11.36 1.31-16.99 3.27-6.16 2.14-12.88.84-19.19-.92-5.16-1.44-10.25-3.15-15.32-4.87-1.31-.45-2.56-1.27-3.65-2.15-2.23-1.81-4.2-1.8-5.54.69-1.41 2.62-2.92 5.45-3.3 8.33-2.28 17.18-9.35 32.81-15.42 48.76-3.21 8.43-5.55 17.31-11.19 24.63-2.24 2.91-4.56 5.84-7.31 8.22-1.7 1.43-4.28 1.83-6.66 2.78zm57.64-278.94c.04-.13.08-.25.12-.38 1.33-.12 2.68-.15 3.99-.39s2.63-.6 3.86-1.09c4.35-1.74 5.54-4.27 3.96-8.72-.51-1.43-1.3-2.91-2.35-3.98-6.43-6.57-14.16-10.06-23.5-9.13-7.96.79-15.84.68-23.68-1.02-1.12-.24-2.47-.26-3.52.13-2.82 1.04-5.53 2.4-8.31 3.56-2.29.96-2.81 3.05-1.76 4.65 2.05 3.1 4.45 6.15 8.65 6.61 3.87.43 7.85.4 11.6 1.32 6.39 1.57 12.61 3.82 18.94 5.6 3.95 1.12 7.99 1.91 12 2.84zm-65.1 116.07c4.48.09 8.83-.54 12.14-3.82 4.21-4.16 8.36-8.42 12.19-12.93 3.86-4.55 2.11-10.14-3.43-12.02-.74-.25-1.53-.38-2.23-.72-2.19-1.06-3.9-.45-5.75 1.03-6.12 4.88-12.39 9.57-18.57 14.38-2.85 2.22-4.49 7.29-3.63 10.14 1.28 4.24 4.81 3.62 7.94 3.94.44.04.89 0 1.34 0zm66.26-98.25c3.45-1.75 6.51-3.31 10.59-5.39-2.03-1.88-3.37-3.96-5.23-4.67-4.32-1.65-6.05 2.45-8.81 4.54 1.19 1.9 2.24 3.58 3.45 5.52z"/><path d="m105.25 283.01c8.9.3 16.63-.82 23.71-4.34 5.79-2.88 11.34-6.21 17.87-7.2.49-.08 1.2-.42 1.36-.81 1.38-3.5 4.67-3.76 7.61-4.64 8.76-2.65 17.54-5.26 26.26-8.02 1.93-.61 3.38-.59 4.77 1 1.44 1.64 2.01 3.22 1.27 5.48-1.78 5.44-5.92 9-10.12 12.21-6.27 4.8-13.04 8.97-19.61 13.37-4.45 2.98-9.1 5.69-13.37 8.9-4.22 3.17-8.52 3.39-13.26 1.73-4.41-1.55-8.88-2.94-13.31-4.44-.61-.21-1.25-.56-1.69-1.02-3.61-3.81-7.19-7.64-11.49-12.22z"/><path d="m147 375.9c-2.67-3.92-2.64-7.04-.91-9.57 4.16-6.09 5.09-12.41 3.04-19.43-1.96-6.7-.61-12.97 3.11-18.92.71.22 1.21.46 1.74.52 3.77.43 4.64 2.53 4.43 6.17-.47 8.14-.36 16.31-.7 24.46-.06 1.47-1.06 2.96-1.82 4.33-1.08 1.93-2.25 3.82-3.54 5.61-1.56 2.17-3.29 4.22-5.35 6.83z"/></g></svg>