<svg enable-background="new 0 0 400 400" viewBox="0 0 400 400" xmlns="http://www.w3.org/2000/svg"><g fill="#fafafb"><path d="m12.4 4.8-6.1 9h6v1.2h-8v-.5l6.1-8.9h-5.7v-1.2h7.6v.4z"/><path d="m14 15v-10.6h3c1.6 0 2.9.5 4 1.4s1.6 2.2 1.6 3.8-.5 3-1.6 3.9-2.4 1.5-4 1.5zm1.4-9.4v8.2h1.6c1.3 0 2.4-.4 3.1-1.1s1.1-1.8 1.1-3.1-.4-2.3-1.2-3-1.8-1-3.1-1z"/><path d="m26.1 4.4v10.6h-1.4v-10.6z"/><path d="m36.1 14.6c-.8.4-1.8.6-2.9.6-1.5 0-2.7-.5-3.6-1.4s-1.4-2.2-1.4-3.8c0-1.7.5-3.1 1.5-4.1s2.3-1.6 3.9-1.6c1 0 1.8.1 2.5.4v1.4c-.8-.4-1.6-.6-2.5-.6-1.2 0-2.1.4-2.9 1.2s-1.1 1.8-1.1 3.2c0 1.3.3 2.3 1 3s1.6 1.1 2.7 1.1c1 0 2-.2 2.7-.7v1.3z"/><path d="m37.6 14.3c0-.2.1-.5.3-.6s.4-.3.6-.3c.3 0 .5.1.6.3s.3.4.3.6-.1.4-.3.6-.4.3-.6.3c-.3 0-.5-.1-.6-.3s-.3-.4-.3-.6z"/><path d="m50.2 15h-1.6l-5.3-8.2c-.2-.2-.3-.5-.4-.7 0 .2.1.7.1 1.5v7.4h-1.4v-10.6h1.7l5.2 8.1c.2.4.4.6.4.7 0-.3-.1-.8-.1-1.5v-7.3h1.4z"/><path d="m58.6 15h-5.7v-10.6h5.5v1.2h-4.1v3.4h3.8v1.2h-3.8v3.6h4.3z"/><path d="m67.1 5.6h-3.1v9.4h-1.4v-9.4h-3v-1.2h7.5z"/></g><path d="m146.69 309.42c0-2.92.08-5.92-.02-8.91-.11-3.3-1.94-5.64-5.07-5.44-5.55.36-11.39.48-16.48 2.37-3.39 1.26-6.03 5.19-8.39 8.38-1.68 2.28.16 6.13 2.93 7.58 1.28.67 2.59 1.3 3.86 2 .23.13.33.52.69 1.14-2.94-.4-5.59-.62-8.17-1.19-.93-.21-1.92-1.11-2.47-1.96-2.62-4.07-3.98-8.48-2.83-14.33-2.58.69-4.68 1.52-6.85 1.8-6.3.81-7.56 5.31-8.02 10.48-.21 2.34-.01 4.79-.66 6.99-.41 1.4-1.85 3.06-3.18 3.49-2.26.73-3.45-1.11-3.79-3.17-.25-1.51-.35-3.11-.18-4.62.2-1.76.62-3.54 1.23-5.21.92-2.54 1.48-5.62 3.27-7.37 4.22-4.1 9.56-6.9 15.49-7.22 3.26-.17 3.37-1.49 3.39-3.85.03-3.32.05-6.66.43-9.94.45-3.83 2.99-6.09 6.52-7.36 3.15-1.13 6.14-3.34 9.71-1.36.71.39 1.33.93 2 1.4-.62.66-1.15 1.45-1.88 1.94-1.94 1.3-4.13 2.28-5.93 3.74-3.46 2.8-4.22 6.73-3.65 10.92.1.74 1.04 1.79 1.75 1.94 1.6.34 3.37.54 4.94.2 9.22-2 18.38-4.29 27.61-6.27 12.82-2.76 21.42-15.49 19.34-27.96-.68-4.07-1.55-8.12-2.21-12.19-.54-3.32-2.53-4.13-5.54-3.69-9.08 1.32-18.19 2.43-27.24 3.92-8.11 1.33-16.18 1.87-24.37.9-2.71-.32-5.52.15-8.28.16-1.2 0-2.44-.12-3.6-.44-8.51-2.35-17.04-4.66-25.48-7.24-2.14-.66-4.05-2.18-5.96-3.45-12.72-8.47-15.28-21.78-16.68-35.53-.5-4.88-.34-9.84-.41-14.76-.01-.97.04-2.12.53-2.89 5.68-8.89 12.91-15.6 23.95-17.05 7.74-1.02 7.75-1.13 4.22-7.97-3.01-5.82-3.08-11.89-1.22-17.94 4.93-16.09-7.76-24.66-19.51-23.25-12.17 1.46-23.31 6.08-32.09 15.16-1.76 1.82-3.63 2.99-7.02 1.43 1.25-2.19 2.3-4.42 3.71-6.4 1.86-2.62 4.62-4.75 5.91-7.58 6.19-13.6 17.67-21.33 30.18-27.94 12.98-6.85 26.73-11.98 41.45-12.32 7.59-.17 15.62 1.65 22.79 4.34 9.29 3.49 17.82 8.88 23.91 17.22 3.01 4.12 4.54 8.68 4.28 13.81-.04.78-.02 1.57 0 2.35.11 4.63.73 5.38 5.34 5.55 3.26.12 6.73 1.37 9.65-1.16 1.15-1 3.02-2.31 2.93-3.35-.19-2.42-.49-5.24-3.4-6.42-.83-.34-1.75-.56-2.44-1.09-1.03-.8-1.88-1.82-3.1-3.04 4.83-1.62 8.44-.2 11.84 1.85.69.42 1.17 1.53 1.34 2.4.39 1.97.52 3.99.79 5.99.26 1.98.23 4.2 3.2 4.12 1.98-.05 3.96-.01 5.97-.01.5 2.25.19 3.57-2.33 3.27-3.38-.4-4.87 1.55-5.57 4.51-.38 1.63-.78 3.26-1.27 4.86-1.37 4.43-4.23 6.98-9.24 7-.23-1.01-.47-2.07-.73-3.21 4.25-1.39 4.46-5.02 4.54-8.48.02-.71-1.78-2.16-2.59-2.06-3.86.47-7.8.97-11.4 2.3-1.21.45-2.14 3.41-2.07 5.19.2 5.78.96 11.55 1.43 17.32.66 8.07 5.01 12.8 12.66 15.27 6.18 1.99 12.21 3.51 18.85 3.8 9.88.43 19.03-1.98 28.07-5 5.83-1.95 11.29-5.05 16.84-7.79 3.97-1.96 8.02-3.89 11.63-6.41 2.18-1.52 3.53-4.19 5.34-6.27 1.01-1.16 2.07-2.38 3.35-3.19 7.14-4.51 12.64-10.52 17.03-17.69 4.9-8 10.04-15.84 15.05-23.77 1.3-2.06 2.77-3.78 6.39-3.76-.43 4.17-.21 8.36-1.39 12.12-3 9.59-6.68 18.96-9.94 28.46-.63 1.84-.61 3.89-1.03 6.79 6.72-.92 12.82-1.87 18.95-2.56 3.87-.44 7.79-.65 11.69-.69 8.73-.1 17.47-.1 26.2.04 1.55.02 3.1.88 4.6 1.46.61.23 1.06.88 1.67 1.1 9.13 3.4 12.12 11.06 14.12 19.67 2.33 10.05 4.22 20.1 4.26 30.49.02 4.2 1.34 8.37 1.83 12.59.71 6.09 1.26 12.2 1.76 18.31.36 4.34.28 8.74.89 13.04.31 2.16 1.55 4.25 2.68 6.2.8 1.38 2.1 2.48 3.41 3.95-4.66 1.63-8.72 1.18-12.74-.62-6.04-2.7-11.59-6.08-16.81-10.24-7.89-6.29-8.11-6.09-16.21-.16-6.47 4.73-13.46 8.83-18.06 15.83-1.03 1.57-3.6 2.14-5.47 3.17-.44-.29-.89-.59-1.33-.88.37-1.5.28-3.4 1.18-4.43 3.82-4.38 4.47-9.46 5.35-15.03 1.12-7.11.4-14.08.71-21.1.13-3.05-.7-6.19-1.41-9.22-1.37-5.89-5.95-8.11-11.28-8.88-13.04-1.88-25.9-.55-38.56 2.8-1.32.35-2.42 1.82-3.46 2.93-1.66 1.77-2.99 3.88-4.79 5.47-3.67 3.25-7.53 6.28-11.36 9.34-.76.61-1.7 1.06-2.62 1.39-2.74.97-5.56 1.72-8.25 2.79-4.74 1.89-9.35 4.13-14.14 5.89-6.8 2.51-13.75 4.63-20.57 7.08-4.9 1.77-9.7 3.81-13.85 5.46 0 6.77.4 13.02-.11 19.2-.53 6.55-1.91 13.02-2.96 19.53-.08.52-.33 1.15-.71 1.46-4.27 3.49-7.55 8.4-13.53 9.46-.65.12-1.28.4-1.91.62-6.76 2.36-7.53 3.72-6.07 10.63.21.98.44 1.96.63 2.95.99 5.09-.55 6.72-6.38 6zm-53.09-115.21c.23.43.47.87.7 1.3-1.98 1.41-3.92 2.87-5.94 4.21-1.32.88-3.67 1.15-2.75 3.41.77 1.89 1.88 4.35 3.49 5.05 3.96 1.72 8.25 2.81 12.5 3.67 2.32.47 4.85.11 7.25-.18.67-.08 1.65-1.13 1.77-1.85 1.08-6.62 2.31-13.24 2.87-19.92.54-6.35-2.3-12.14-7.23-15.48-4.05-2.74-9.59-4.2-14.57-4.48-11.54-.65-21.81 3.13-29.98 11.66-.72.75-1.35 1.83-1.52 2.84-2.37 14.57.39 28.22 7.62 41.01.74 1.32 1.79 2.88 3.08 3.41 8.76 3.61 17.67 6.87 26.44 10.46 5.85 2.39 11.89.51 17.82 1.2 3.04.36 6.19-.07 9.27-.39 7.54-.79 15.05-2.08 22.61-2.51 13.96-.78 27.46-3.22 40.49-8.5 8.67-3.52 17.45-7.08 26.52-9.21 17.62-4.14 29.97-14.34 37.17-30.51 5.81-13.04 10.67-26.51 15.79-39.85 1-2.61 1.24-5.5 2.02-9.16-1.36.88-1.85 1.12-2.24 1.47-10.24 9.21-22.11 15.99-34.14 22.41-7.47 3.99-15.13 7.95-23.15 10.52-13.29 4.27-27 3.4-40.45.16-6.08-1.47-12.03-3.6-15.87-9.23-5.35-7.85-7.77-16.5-5.93-25.8 1.94-9.86.15-19.07-3.01-28.29-4.1-11.99-13.1-19.68-24.35-23.22-8.14-2.56-17.46-1.96-26.23-1.74-4.51.12-8.89 2.97-13.46 3.74-6.57 1.11-12.46 3.7-17.92 7.2-6.43 4.13-12.51 8.79-18.75 13.22.17.58.34 1.17.52 1.75 1.69.01 3.53.46 5.05-.04 8.14-2.66 16.33-3.45 24.77-1.74 2.4.49 4.89.71 7.34.76 4.49.1 6.82 3.15 8.58 6.48 2.83 5.36 3.27 10.96.67 16.71-1.14 2.52-1.99 5.28-2.37 8.01-.33 2.36-.37 5.05.45 7.22 4.87 12.93 4.97 12.89 17.94 17.68.1.04.21.08.31.13 6.09 2.77 10.61 6.73 11.1 13.99.26 3.79 1.17 7.57 1.13 11.34-.06 4.63-.36 9.36-1.4 13.85-.8 3.46-.81 4.59 2.9 4.46 7.25-.26 14.5-.88 21.73-1.58 2.46-.24 4.86-1.14 7.28-1.73-1.41-4.15-2.94-7.66-3.76-11.32-1.05-4.71 1.12-7.47 5.62-8.09 1.44-.2 2.95-.33 4.26-.88 4.26-1.79 7.82-.39 12.15 2.6-2.95.68-5.14 1.19-7.34 1.68-1.84.41-3.72.68-5.53 1.18s-2.51 1.48-1.55 3.48c1.29 2.72 2.42 5.54 3.3 8.42.66 2.14 1.79 2.65 3.91 2.5 10.81-.79 21.2-3.41 31.29-7.18 10.36-3.87 20.55-8.19 30.84-12.23.8-.31 1.83-.03 2.75-.02-.06.95.25 2.27-.25 2.8-1.96 2.06-3.9 4.43-6.36 5.68-13.23 6.7-27.91 9.27-41.77 14.2-2.59.92-5.46 1.18-8.22 1.51-12.88 1.54-25.77 2.96-38.65 4.51-14.21 1.7-28.31 2.07-42.18-2.44-4.8-1.56-8.05-5.12-9.29-9.33-.69-2.33 1.39-6.68 3.57-8.36 3.01-2.27 6.9-4.88 11.29-2.62zm223.21-47.58c-12.88-.39-25.32 2.35-37.7 5.43-1.81.45-3.88 1.58-4.9 3.05-1.89 2.72-3.19 5.88-4.56 8.93-1.21 2.69.12 4.67 3.05 4.73 1 .02 2.01-.12 3-.29 8.03-1.38 16.03-2.96 24.09-4.12 8.19-1.18 16.45-2.13 24.53.87 3.31 1.23 6 2.87 7.6 6.43 1.87 4.18 3.28 8.16 3.67 12.9 1.07 13.01 3 25.94 4.6 38.9.05.44.02.97.25 1.3 4.02 5.77 9.37 10.05 15.6 13.16 1.35.67 2.5 0 2.32-2.04-.49-5.55-1.23-11.13-1.07-16.67.6-20.41-3.68-39.99-9.68-59.27-3.03-9.74-9.69-13.75-20.76-13.77-3.34 0-6.69.3-10.04.46zm-2.87 91.53c.39.12.79.24 1.18.36 5.66-4.33 11.35-8.61 16.91-13.06.66-.53.72-1.98.81-3.03 1.39-15.03-3.11-29.21-6.64-43.48-1.08-4.36-3.92-7.47-8.86-8.58-4.6-1.03-9.01-1.24-13.55-.11-1.29.32-2.65.36-3.98.46-6.89.51-13.81.75-20.67 1.55-8.97 1.06-15.38 5.5-17.64 14.79-.78 3.2-.39 3.83 2.75 3.83 11.5-.02 23-.06 34.5 0 7.43.04 13.26 4.38 15.17 11.47 1.95 7.26 3.23 14.56 1.62 22.17-.94 4.45-1.09 9.08-1.6 13.63z" fill="#010105"/><path d="m128.62 129.36c-.36 6.95-5.41 14.14-14.06 11.8-2.14-.58-4.31-1.15-6.35-2.02-1.04-.44-2.09-1.36-2.66-2.34-2.82-4.83-.3-13.78 4.76-16.03 2.84-1.26 6.17-2.51 9.12-2.22 7.38.71 9.21 3.31 9.19 10.81zm-18.9-.97c-.3 4.46.92 6.27 3.98 7.01 2.19.53 4.43.61 5.25-1.46 1.12-2.86 1.4-6.05 2.02-9.1.01-.06-.14-.2-.23-.22-2.02-.42-4.5-1.75-5.95-1.03-2.34 1.19-4 3.72-5.07 4.8z" fill="#010105"/></svg>