<svg enable-background="new 0 0 400 400" viewBox="0 0 400 400" xmlns="http://www.w3.org/2000/svg"><g fill="#fafafb"><path d="m12.4 4.8-6.1 9h6v1.2h-8v-.5l6.1-8.9h-5.7v-1.2h7.6v.4z"/><path d="m14 15v-10.6h3c1.6 0 2.9.5 4 1.4s1.6 2.2 1.6 3.8-.5 3-1.6 3.9-2.4 1.5-4 1.5zm1.4-9.4v8.2h1.6c1.3 0 2.4-.4 3.1-1.1s1.1-1.8 1.1-3.1-.4-2.3-1.2-3-1.8-1-3.1-1z"/><path d="m26.1 4.4v10.6h-1.4v-10.6z"/><path d="m36.1 14.6c-.8.4-1.8.6-2.9.6-1.5 0-2.7-.5-3.6-1.4s-1.4-2.2-1.4-3.8c0-1.7.5-3.1 1.5-4.1s2.3-1.6 3.9-1.6c1 0 1.8.1 2.5.4v1.4c-.8-.4-1.6-.6-2.5-.6-1.2 0-2.1.4-2.9 1.2s-1.1 1.8-1.1 3.2c0 1.3.3 2.3 1 3s1.6 1.1 2.7 1.1c1 0 2-.2 2.7-.7v1.3z"/><path d="m37.6 14.3c0-.2.1-.5.3-.6s.4-.3.6-.3c.3 0 .5.1.6.3s.3.4.3.6-.1.4-.3.6-.4.3-.6.3c-.3 0-.5-.1-.6-.3s-.3-.4-.3-.6z"/><path d="m50.2 15h-1.6l-5.3-8.2c-.2-.2-.3-.5-.4-.7 0 .2.1.7.1 1.5v7.4h-1.4v-10.6h1.7l5.2 8.1c.2.4.4.6.4.7 0-.3-.1-.8-.1-1.5v-7.3h1.4z"/><path d="m58.6 15h-5.7v-10.6h5.5v1.2h-4.1v3.4h3.8v1.2h-3.8v3.6h4.3z"/><path d="m67.1 5.6h-3.1v9.4h-1.4v-9.4h-3v-1.2h7.5z"/></g><path d="m164.38 300.98c-6.99 8.97-7.41 29.34 4.69 37.88 2.46 1.73 4.88 3.69 4.41 7.31-17.83-4.78-37.35-22.66-30.38-48.89-3.94-1.76-7.87-.76-11.75.15-.58.14-1.04 1.1-1.43 1.76-3.42 5.88-4.86 11.98-1.98 18.54 2.82 6.42 5.7 12.82 8.43 19.27 1.55 3.66 2.85 7.42 4.43 11.56-4.4.02-7.49-.5-10.23-3.53-6.63-7.35-12.62-15.05-17.04-23.98-2.58-5.21-3.48-10.42-2.88-16.16.38-3.61-.14-7.31-.29-10.97-.04-.89-.29-1.77-.37-2.66-.99-10.49 3.69-15.3 14.38-15.06 9.89.22 19.78.24 29.67.34 12.09.12 16.21-9.14 18.49-19.01.65-2.83-.46-6.3-3.55-7.71-3.48-1.59-7.27-3.57-10.91-3.56-21.16.09-37.7-9.28-51.18-24.6-3.66-4.16-5.72-9.74-8.35-14.77-.87-1.66-.91-3.75-1.8-5.39-3.82-7.03-1.48-13.62 1.22-20.18.39-.95 1.29-1.87 2.18-2.41 4.69-2.81 9.45-5.51 14.22-8.19.64-.36 1.55-.63 2.21-.47 6.35 1.61 10.68-3.12 15.84-5.1 2.2-.84 1.72-8.71-.37-10.1-5.88-3.91-12.36-4.46-19.02-2.94-6.53 1.49-12.98 3.35-19.46 5.06-.75.2-1.72.32-2.15.84-4.62 5.58-10.07 10.72-13.49 16.97-5.41 9.88-9.36 20.52-11.22 31.8-.34 2.05-1.16 4.18-2.32 5.89-3.91 5.75-3.8 12.23-3.87 18.72-.04 3.68.2 7.41-.39 11.01-.3 1.85-1.8 3.85-3.33 5.07-1.63 1.3-3.61 1.75-5.11-1.12-1.02-1.95-3.29-3.23-4.93-4.87-2.66-2.67-5.46-5.23-7.83-8.13-4.03-4.92-7.78-10.06-11.63-15.13-.66-.87-1.68-1.76-1.79-2.73-.65-5.67-1.93-11.44-1.36-17.01.57-5.53-.13-10.71-1.26-15.9-.88-4.08-.7-7.75 1.71-11.16 2.13-3.02 1.85-6.18 1.11-9.58-1.38-6.31-3.22-12.62-1.82-19.21 1.83-8.61 4.73-16.4 11.21-23.05 9.05-9.29 18.93-17.05 30.95-21.92 4.75-1.92 8.25-5.22 11.37-9.1 1.75-2.18 3.45-4.42 5.38-6.43 2.69-2.79 5.74-5.04 10-4.45.54.07 1.15.03 1.65-.17 9.5-3.71 19.48-1.83 29.23-2.33 3.17-.16 6.49 1.38 9.66 2.42 6.54 2.15 12.31-.29 17.91-3.05 1.1-.54 1.7-2.77 1.91-4.31.32-2.31.24-4.7.05-7.04-.2-2.53.96-3.46 3.28-3.46 6.45-.01 12.25 2.15 17.72 5.33 2.89 1.68 5.69 3.49 8.5 5.3 1.77 1.15 3.65 2.22 5.18 3.65 2.69 2.5 3.93 5.25 2.23 9.22-1.02 2.38-.74 5.44-.58 8.17.14 2.57.78 5.02-1.36 7.18-.62.63-.54 1.9-.9 2.82-.56 1.45-1.22 2.86-2.1 4.9-5.21-5.83-11.02-7.02-17.66-5.5-2.05.47-3.02 1.28-3.28 3.45-.67 5.54-1.59 11.05-2.39 16.58-.08.53-.11 1.17.12 1.63 2.63 5.32 3.75 11.36 9.06 15.34 3.13 2.35 5.21 6.08 7.79 9.17 2.88 3.45 6.83 4.46 10.91 6.09 6.29 2.51 11.86 1.36 17.89.93 3.86-.28 7.63-.05 11.51-1.21 4.89-1.47 10.09-1.9 15.14-2.86 3.91-.75 7.54-2.08 10.21-5.28.48-.58 1.19-1.23 1.87-1.34 7.19-1.09 11.12-7.24 16.67-10.83 5.57-3.6 11.4-7.6 15.33-12.78 7.57-10 17.45-18.3 22.42-30.31 3.26-7.87 4.5-15.86 3.72-24.26-.45-4.87-.03-9.57 2.75-13.84 3.15.3 5.6 1.72 6.57 4.59 4.62 13.64 9.72 27.17 8.33 42.06-.85 9.13-2.81 17.85-7.28 25.92-6.94 12.52-13.8 25.08-20.78 37.57-1.69 3.02-3.71 5.85-5.58 8.76-.79 1.22-1.91 2.33-2.32 3.67-.54 1.78-.52 3.72-.75 5.59 2.13.21 4.64 1.24 6.3.46 4.1-1.95 7.73-4.86 11.7-7.15 5.66-3.26 10.07-7.66 13.42-13.24 1.78-2.97 3.72-5.88 5.95-8.52 2.39-2.84 5.41-5.15 7.77-8 3.28-3.96 5.87-8.52 9.34-12.28 5.72-6.17 8.76-13.92 11.26-21.4 2.56-7.64 2.17-16.26 3.2-24.44.51-4.07.97-8.2 2.16-12.09.42-1.36 2.83-2.51 4.55-2.99 2.2-.61 2.88 1.3 3.44 3.13 3.84 12.54 7.3 25.19 7.56 38.38.11 5.51-.31 11.33-2 16.51-4.22 12.94-9.3 25.61-14.05 38.38-.31.83-.6 1.75-1.16 2.41-5.18 6.1-9.15 12.93-12.63 20.1-.48.99-1.69 1.75-2.71 2.35-11.57 6.78-23.17 13.51-34.76 20.26-.66.39-1.29.82-2.53 1.61 3.23 4.93 6.44 9.7 9.51 14.56 1.12 1.78 1.94 3.74 2.84 5.65 1.04 2.22 1.64 4.74 3.07 6.66 6.51 8.72 9.33 18.68 10.56 29.27.14 1.22.36 2.44.61 3.64 1.49 7.06 1.35 13.97-1.71 20.67-.51 1.11-.86 2.32-1.08 3.52-1.89 10.46-8.51 18.27-14.68 26.33-2.41 3.15-5.83 4.43-9.68 4.6-3.96.17-5.83-2.26-5.11-6.13 1.45-7.89 2.88-15.79 4.06-23.73.3-2.03-.1-4.28-.64-6.3-2.85-10.57-5.84-21.11-8.84-31.64-.26-.93-.81-1.89-1.48-2.57-7.38-7.48-14.46-15.3-22.3-22.25-12.79-11.35-33.89-12.79-48.66-4.17-1.88 1.1-4.18 1.48-6.3 2.17-2.9.95-3.98 3.1-2.39 5.64 1.45 2.31 3.38 4.31 5.11 6.45.07.08.19.12.28.19 4.03 3.44 6.18 20.41 3.08 24.66-.44.6-1.23.95-1.84 1.43-7.32 5.67-15.96 7.87-24.85 9.3-2.66.43-3.99 1.61-4.73 4.24-.7 2.52-2.18 4.81-3.22 7.24-.27.63-.53 1.56-.26 2.08 1.45 2.87 2.83 5.82 4.68 8.43 3.87 5.46 7.34 10.95 7.06 18.04-.09 2.27-1.14 2.95-3.12 3.49-2.19.6-2.57-.71-3.42-2.1-4.94-8.2-11.44-14.86-19.85-19.54-1.46-.85-3.1-1.24-4.55-1.78zm-78.51-157.77c-3.08-5.14-6.26-10.38-9.34-15.68-.71-1.22-1.29-2.61-1.5-3.99-.55-3.64-.86-7.33-1.28-10.99-.39-3.44-3.64-5.26-6.5-3.25-11.9 8.36-23.77 16.74-31.81 29.36-2.53 3.97-4.04 8-3.39 12.6.8 5.62 1.96 11.2 2.92 16.8.75 4.39.54 8.66-3.35 11.56-1.74 1.3-1.7 2.48-1.36 4.26 1.07 5.7 3.06 11.49 2.7 17.12-.67 10.66 2.87 18.74 11.29 24.98 1.07.79 2.12 1.69 2.94 2.74 3.01 3.82 6.86 1.44 7.49-2.3.5-2.96.45-6.01.8-9 1-8.53 1.01-17.36 3.36-25.51 5.21-18.07 13.64-34.67 27.03-48.7zm46.09-39.5c.27-7.85-5.76-12.75-12.25-11.38-2.82.59-5.7.98-8.57 1.26-5.07.48-9.07 2.22-10.41 7.72-.56 2.27-1.47 4.46-1.99 6.74-1.24 5.38.51 9.12 5.45 11.54 2.09 1.02 4.32 1.84 6.56 2.5 8.04 2.35 18.28.1 20.19-12.01.39-2.54.81-5.07 1.02-6.37z" fill="#010105"/><path d="m71.47 151.92c-6.17.51-12.16 1.08-18.17 1.41-.84.05-2.39-.98-2.5-1.69-.46-2.93-1-6.01-.59-8.9.8-5.62 2.21-11.14 3.37-16.69 5.65.19 7.38 2.66 5.78 7.89-.65 2.11-1.23 4.32-1.34 6.51-.24 5.04 2.13 7.44 7.24 7.41 2.95-.01 5.27.56 6.21 4.06z" fill="#010105"/><path d="m44.91 184.82c-2.13-6.11-3.06-11.99.03-17.91 5.21 2.05 6.89 5.25 5.93 11.16-.84 5.25-1.9 6.52-5.96 6.75z" fill="#010105"/><path d="m43.39 196.2c5.55 2.33 6.89 4.65 4.39 7.87-.69.88-2.39 1.29-3.62 1.28-.47-.01-1.28-1.8-1.3-2.8-.05-2.09.32-4.19.53-6.35z" fill="#010105"/><path d="m115.9 95.51c1.95 1.08 4.21 2.5 6.61 3.62 3.65 1.69 4.99 4.53 4.8 8.36-.49 9.77-3.98 12.14-13.31 8.96-.67-.23-1.5-.66-1.8-1.24-1.76-3.36-3.59-6.7-4.91-10.24-.38-1.03.47-3.06 1.41-3.94 2.15-2.03 4.69-3.64 7.2-5.52z" fill="#010105"/></svg>