<svg enable-background="new 0 0 400 400" viewBox="0 0 400 400" xmlns="http://www.w3.org/2000/svg"><path d="m97.57 329.64c1.16-.66 2.53-1.11 3.45-2.02 13.69-13.36 27.35-26.77 40.96-40.21 3.44-3.39 3.08-8.78-.57-11.81-5.08-4.22-10-8.64-15.27-12.61-3.08-2.33-4.27-5.34-4.77-8.81-.54-3.76-.85-7.56-1.26-11.34-.05-.44.07-.97-.12-1.33-3.38-6.11-1.26-12.44-.65-18.65 1.39-14.25 2.76-28.51 4.6-42.7.9-6.96 2.84-13.78 4.3-20.67.16-.76.61-1.76.3-2.26-2.12-3.46.37-6.02 1.31-9.02 1.69-5.38 2.88-10.93 4.06-16.45.79-3.71 1.32-7.49 1.68-11.27.1-1.01-.61-2.84-1.34-3.07-4.32-1.37-8.74-2.48-13.18-3.44-.77-.17-1.8.75-2.69 1.19-5.5 2.72-10.94 5.57-16.55 8.04-.98.43-3.51-.41-3.81-1.22-.46-1.26.27-3.03.72-4.52.16-.53.99-.85 1.51-1.28 10.36-8.37 20.75-16.7 31.02-25.17 1.65-1.36 2.84-3.33 4.11-5.11 2.58-3.6 4.93-7.38 7.63-10.88 1.98-2.56 4.26-4.91 6.6-7.15 4.25-4.08 7.33-8.89 10.02-14.12 3.21-6.25 6.6-12.49 10.64-18.22 2.43-3.46 5.94-6.41 9.53-8.71 2.06-1.32 5.37-1.6 7.9-1.13 6.31 1.16 7.99 4.6 6.27 10.78-1.08 3.86-1.94 7.79-2.76 11.71-.51 2.47.47 4.01 2.93 5.19 7.65 3.68 15.57 7.06 22.61 11.72 8.15 5.39 15.64 11.82 23.07 18.2 3.12 2.68 4.86 6.57 5.36 10.92.2 1.77 1.1 3.66 2.19 5.1 10.51 13.82 9.46 28.73 3.21 43.5-1.71 4.04-2.14 8.4-4.07 12.07-3.66 6.95-7.22 14.2-14.34 18.6-1.9 1.17-3.9 2.33-5.45 3.88-1.89 1.9-3.37 4.21-5.21 6.58 6.58 4.43 13.3 5.3 20.04 6.33 6.61 1.01 13.22 2.11 19.71 3.7 7.91 1.93 12.42 7.55 14.52 15.19 1.57 5.71 2.97 11.46 4.44 17.2.03.11.1.23.08.32-1.96 6.99 3.46 12.35 4.13 18.77.67 6.44 2.06 12.83 2.3 19.28.43 11.64 4.08 22.61 6.12 33.91 2.06 11.42 4.31 22.85 2.57 34.62-.45 3.05-1.36 4.1-4.29 3.75-1.54-.19-3.18-.28-4.69.02-4.14.82-6.41-1.38-7.68-4.78-1.44-3.86-2.6-7.83-3.59-11.83-.22-.87.78-2.05 1.31-3.31-5.85-5.78-8.8-17.67-4.93-21.82-4.4-3.78-4.68-9.1-5.1-14.32-.74-9.25-1.15-18.53-2.1-27.76-.57-5.54-2.07-10.99-2.85-16.52-.6-4.27-.51-8.63-1.11-12.9-.76-5.41-1.79-10.78-2.9-16.13-1.93-9.39-2.87-9.55-12.43-8.71-6.84.6-14.24 1.16-20.56-.85-4.74-1.51-8.05-.08-12.01.58-1.74.29-3.77.71-5.29.12-3.21-1.25-5.31.18-7.85 1.73-7.35 4.47-15.69 4.94-24 4.99-7.04.04-14 .54-19.87 4.78-3.26 2.35-5.9 5.54-8.92 8.46 3.35 3.12 6.39 3.38 9.74 2.59 14.74-3.5 29.7-5.43 44.85-5.45 7.02-.01 13.84 1.28 19.82 5.23 1.36.9 2.94 2.53 3.12 3.98 1.56 12.88 6.71 24.78 9.82 37.22 2.32 9.28 3.38 18.88 4.79 28.37 1.13 7.63 1.64 15.36 2.96 22.96 1.59 9.09-1.34 17.49-3.14 26.08-.62 2.95-1.68 5.8-2.41 8.72-2.1 8.36-6.97 14.88-13.45 20.29-1.58 1.32-3.6 2.09-5.63 3.23-3.23-6.32-4.84-12.77-4.94-19.34-.23-14.87-.14-29.75.25-44.61.33-12.44.68-24.85-2.29-37.05-1.59-6.54-3.27-7.21-9.79-5.39-2.83.79-5.9.73-8.86 1.05-.64.07-1.5-.18-1.89.15-3.18 2.66-6.93 2.05-10.6 2.02-1.67-.01-3.4-.1-4.99.28-4.12 1-4.68 2.98-3.65 6.95 2.29 8.84 4.05 17.82 6.17 26.71.42 1.75 1.53 3.33 2.24 5.02.66 1.6 1.95 3.39 1.67 4.85-.86 4.42 1.18 8.31 1.54 12.45.58 6.72.17 13.59-4.67 18.79-8.53 9.16-17.45 17.97-26.37 26.76-1.29 1.27-3.41 1.94-5.27 2.33-3.27.7-6.68.76-9.94 1.49-2.39.54-3.51-.59-3.97-2.43-.39-1.56-.67-3.53-.05-4.88 1.92-4.21 3.83-8.31 7.36-11.77 9.36-9.16 15.38-20.37 16.59-33.54.36-3.88-1.25-8.06-2.55-11.9-.4-1.17-2.75-2.29-4.25-2.36-3.21-.13-5.93.84-8.55 3.45-3.66 3.65-8.03 6.91-12.67 9.17-8.22 3.99-16.86 7.11-25.34 10.54-1.05.43-2.25.48-3.39.71-.42-.59-.83-1.2-1.25-1.8zm79.68-73.6c0-.04 0-.08 0-.11 9.39 0 18.77.05 28.16-.07 1.07-.01 2.87-.78 3.07-1.54 1.62-6.02 1.92-12.17-.16-18.13-.78-2.22-2.3-4.66-5.42-3.93-3.67.86-6.84-.12-9.8-2.12-1.75-1.19-3.07-.74-4.83.23-2.36 1.3-5.03 2.14-7.66 2.81-2.36.6-4.85.79-7.29 1-9.37.8-18.33 4.82-27.99 3.49-.74-.1-2.21.87-2.4 1.59-1.38 5.05-2.59 10.14-3.65 15.27-.22 1.05.2 3.11.74 3.27 1.37.39 3 .13 4.48-.16 2.02-.39 3.97-1.48 5.97-1.52 8.93-.17 17.86-.08 26.78-.08zm11.4-126.46c1.24-1.62 2.69-3.2 3.77-4.99 1.28-2.12 2.89-3.17 5.43-3.08 2.78.1 5.57.02 8.35-.19 2.98-.23 6.01-.43 8.9-1.12 3.87-.92 3.84-4.43 4.3-7.51.44-2.95-.75-5.11-3.39-6.25-3.27-1.41-6.6-2.82-10.03-3.7-2.1-.54-4.61-.64-6.67-.02-7.81 2.34-15.5 5.04-23.24 7.62-7.92 2.64-15.84 5.3-23.92 8.01.51 4.84.99 9.42 1.48 14.09 18.95-6.09 24.97-6.58 35.02-2.86zm-39.87 24.61c1.28 3.01 2.32 5.48 3.38 7.95.79 1.85.95 4.48 4.05 3.77 10.9-2.5 21.97-3.59 33.08-4.74 7.84-.81 15.58-2.8 22.46-7.19 3.87-2.47 5.6-6.09 6.07-10.26.18-1.57-1.05-3.57-2.21-4.86-.46-.51-2.55.16-3.76.65-2.27.91-4.44 2.09-6.66 3.13-3.5 1.65-6.86 2.25-9.39-1.65-14.9 8.26-32.39 6.81-47.02 13.2zm57.15-65.92c-.36-.79-.47-1.26-.74-1.59-7.6-9.34-17.25-15.75-28.58-19.61-.84-.29-2.49.56-3.2 1.37-4.75 5.5-9.33 11.14-14 16.71-.78.93-1.55 2.21-2.58 2.56-4.19 1.43-6.49 4.95-9.42 7.82-1.89 1.85-2.29 3.65-.76 5.9 19.73-4.38 39.43-8.75 59.28-13.16zm-63.65 100.27c1.69 4.01 9.1 7.63 13.84 6.76 11.96-2.19 23.92-4.38 35.88-6.59 6.57-1.21 7.01-1.76 7.25-8.59.14-4.02-.56-4.74-4.62-5.4-3.95-.65-7.58-.26-11.31 1.52-6.11 2.93-12.33 5.82-18.79 7.78-4.94 1.5-10.48 1.18-13.9 6.64-2.27-4.53-5.23-3.73-8.35-2.12z" fill="#010000"/><g fill="#fbfcfa"><path d="m361.2 9.6.8-1c.9.7 1.9 1.4 2.9 2.3l-.9 1.1c-1-1-2-1.8-2.8-2.4zm.5 10.6c.9-2.1 1.6-4.3 2.3-6.7.4.2.8.4 1.3.6-.7 2.1-1.5 4.3-2.2 6.6zm.4-15.2.9-.9c1 .8 2 1.6 2.8 2.4l-1 1c-.9-.9-1.8-1.7-2.7-2.5zm12.5-1.2h1.2v1.4h2.7v1.1h-2.7v2.7h-1.2v-.6h-1.8v1.3h4.9v3.8h-1.2v-.5h-3.7c0 .4-.1.9-.1 1.2h5.1v1h-5.2c0 .5-.1.9-.2 1.2h6v1h-5.2c1.1 1.3 2.9 2 5.5 2.2-.4.4-.7.8-.9 1.3-2.9-.5-4.8-1.6-5.7-3.5h-.1c-.8 1.7-2.7 2.9-5.9 3.6-.2-.4-.6-.8-.9-1.1 2.8-.6 4.6-1.4 5.4-2.5h-4.8v-1h5.3c.1-.3.2-.7.2-1.2h-4.9v-1h5c0-.4 0-.8.1-1.2h-3.5v.5h-1.2v-3.8h4.9v-1.3h-1.8v.5h-1.2v-2.7h-2.7v-1h2.6v-1.4h1.2v1.4h4.7v-1.4zm-6.6 8.3h3.6c0-.4 0-.9 0-1.4h-3.6zm1.9-4.6h4.7v-1.3h-4.7zm6.6 3.2h-3.7v1.4h3.7z"/><path d="m385.3 3.8h1.3v2.2h2.8v-2.2h1.3v2.2h4.1v9.1h1.7v1.3h-16.9v-1.3h1.7v-9.1h4.1v-2.2zm.4 13.1.7 1.2c-1.8.9-3.8 1.9-6 2.9-.2-.4-.5-.8-.8-1.3 2.3-1 4.3-1.9 6.1-2.8zm-3.1-6.4h2.8v-3.2h-2.8zm0 4.6h2.8v-3.3h-2.8zm4-4.6h2.8v-3.2h-2.8zm0 4.6h2.8v-3.3h-2.8zm3.7 1.9c2.1.9 4.1 1.8 6.1 2.7l-.7 1.3c-2.2-1.1-4.2-2-6.1-2.9zm3.2-9.7h-2.8v3.2h2.8zm-2.8 7.8h2.8v-3.3h-2.8z"/></g></svg>