<svg enable-background="new 0 0 400 400" viewBox="0 0 400 400" xmlns="http://www.w3.org/2000/svg"><path d="m378.6 9.2.8-1c.9.7 1.9 1.4 2.9 2.3l-.9 1.1c-1.1-.9-2-1.7-2.8-2.4zm.5 10.7c.9-2.1 1.6-4.3 2.3-6.7.4.2.8.4 1.3.6-.7 2.1-1.5 4.3-2.2 6.6zm.4-15.2.9-.9c1 .8 2 1.6 2.8 2.4l-1 1c-1-.9-1.9-1.8-2.7-2.5zm12.5-1.3h1.2v1.4h2.7v1.1h-2.7v2.7h-1.2v-.5h-1.8v1.3h4.9v3.8h-1.2v-.5h-3.7c0 .4-.1.9-.1 1.2h5.1v1h-5.2c0 .5-.1.9-.2 1.2h6v1h-5.2c1.1 1.3 2.9 2 5.5 2.2-.4.4-.7.8-.9 1.3-2.9-.5-4.8-1.6-5.7-3.5h-.1c-.8 1.7-2.7 2.9-5.9 3.6-.2-.4-.6-.8-.9-1.1 2.8-.6 4.6-1.4 5.4-2.5h-4.8v-1h5.3c.1-.3.2-.7.2-1.2h-4.9v-1h5c0-.4 0-.8.1-1.2h-3.6v.5h-1.2v-3.8h4.9v-1.3h-1.8v.5h-1.2v-2.7h-2.6v-1.1h2.6v-1.4h1.2v1.4h4.7v-1.4zm-6.7 8.4h3.6c0-.4 0-.9 0-1.4h-3.6zm1.9-4.7h4.7v-1.2h-4.7zm6.7 3.3h-3.7v1.4h3.7z" fill="#fcfafa"/><path d="m384.7 21.4h1.3v2.2h2.8v-2.2h1.3v2.2h4.1v9.1h1.7v1.3h-16.9v-1.3h1.7v-9.1h4.1v-2.2zm.3 13.2.7 1.2c-1.8.9-3.8 1.9-6 2.9-.2-.4-.5-.8-.8-1.3 2.4-1 4.4-2 6.1-2.8zm-3.1-6.5h2.8v-3.2h-2.8zm0 4.6h2.8v-3.3h-2.8zm4.1-4.6h2.8v-3.2h-2.8zm0 4.6h2.8v-3.3h-2.8zm3.6 1.9c2.1.9 4.1 1.8 6.1 2.7l-.7 1.3c-2.2-1.1-4.2-2-6.1-2.9zm3.3-9.7h-2.8v3.2h2.8zm-2.8 7.8h2.8v-3.3h-2.8z" fill="#fcfafa"/><path d="m97.29 374.94c-.36-.35-.57-.47-.66-.65-3.62-7.62-3.61-7.62 2.72-13.06 1.95-1.68 3.76-3.58 5.9-4.97 2.26-1.48 4.83-2.48 7.26-3.68 1.57-.78 3.32-1.32 4.69-2.36 3.65-2.77 7-5.97 10.75-8.6 4.17-2.92 8.66-5.39 13-8.06 1.23-.76 2.54-1.41 3.66-2.31 6.83-5.44 13.4-11.24 20.47-16.33 6.86-4.94 11.61-11.27 15.3-18.7 7.58-15.28 12.68-31.23 14.02-48.33.28-3.55-.26-6.29-3.4-8.29-1.29-.83-2.34-2.03-3.69-3.24-3.5 4.28-4.78 9.17-5.5 14.29-.84 5.97-1.48 11.98-2.59 17.9-1.4 7.45-5.47 13.55-11.35 18.12-7.22 5.62-14.9 10.66-22.33 16.01-9.75 7.02-19.45 14.12-29.21 21.13-.81.59-1.96 1.12-2.9 1.06-8.7-.63-17.45-1.06-26.06-2.32-2.72-.4-5.51-2.74-7.52-4.88-2.07-2.21-.76-5.06 2.21-6.13 1.05-.38 2.11-.84 3.2-.96 14.96-1.6 27.63-8.64 39.73-16.86 12.01-8.17 23.83-16.63 35.66-25.07 4.19-2.99 6.7-6.56 5.9-12.43-.71-5.25-1.91-9.62-6.29-12.93-3.64-2.75-6.74-6.29-10.55-8.75-5.39-3.48-8.16-2.86-11.89 2.26-6.77 9.29-13.46 18.66-17.84 29.41-.27.67-.89 1.22-1.44 1.74-2.22 2.11-4.61 4.07-6.7 6.31-11.66 12.46-25.63 19.22-43.02 17.52-3.98-.39-6.99-5.85-5.25-9.38.3-.62 1.31-1.14 2.05-1.23 2.11-.26 4.24-.3 6.36-.36 4.4-.13 7.85-1.73 10.53-5.48 6.51-9.1 13.11-18.15 20.03-26.94 5.32-6.75 11.22-13.05 16.79-19.61 1.73-2.04 3.24-4.28 4.83-6.45 5.53-7.54 8.63-15.39 6.82-25.28-1.82-9.96-1.91-20.23-2.78-30.37-.45-5.28-2.66-9.03-7.52-12.04-13.51-8.38-26.76-17.33-37.74-28.93-10.71-11.32-16.85-24.79-16.82-40.82.01-7.21-1.6-14.44-1.52-21.65.07-5.87 1.52-11.73 2.52-17.56.09-.54 1.3-1.09 2.08-1.28 21.47-5.39 42.87-11.12 64.48-15.85 6.83-1.49 14.25-.47 21.39-.26 6.89.2 13.62-.22 20.2-2.45 1.22-.41 2.64-.39 3.96-.33 11.5.47 23.03 1.75 34.5 1.32 19.15-.72 37.87 1.42 56.5 5.52 5.42 1.19 11.07 2.07 16.59 1.92 16.4-.44 24.24 7.66 27.67 22.69 1.94 8.5 1.63 17.53 2.23 26.33.08 1.17-.3 2.45-.77 3.55-4.31 10.06-8.65 20.12-13.1 30.12-.6 1.36-1.68 2.65-2.84 3.6-14.62 11.83-29.27 23.62-43.98 35.34-1.26 1.01-2.89 1.59-4.4 2.25-2.44 1.07-4.98 1.95-7.39 3.08-6.68 3.14-13.33 6.33-19.96 9.57-5.04 2.47-9.82 5.31-13.17 10.19.36.25.61.57.86.57 12.64.26 25.31 1.04 37.92.55 10.77-.42 19.86 3.5 28.66 8.58 7.51 4.33 11.08 11.74 13.53 19.72.24.77.13 1.77-.13 2.56-2.82 8.37-5.37 16.85-8.72 25-1.65 4.03-4.23 7.68-3.57 12.24.22 1.55.97 3.62 2.16 4.36 13.03 8.13 23.28 19.03 32.48 31.17 2.12 2.8 5.63 4.65 8.72 6.58 3.78 2.35 6.14 5.15 6.19 9.93.06 5.58.86 11.15 1.14 16.74.05.92-.67 2.33-1.44 2.72-1.23.63-2.7 1.45-4.05-.51-2.27-3.32-5-6.32-7.38-9.56-2.55-3.47-5.38-6.48-9.33-8.44-1.36-.68-2.59-2.2-3.24-3.63-4.38-9.62-12.34-15.34-21.34-19.95-14.11-7.22-26.05-17.33-37.27-28.32-1.9-1.86-2.89-4.65-4.3-7.01-1.02-1.7-1.79-3.63-3.1-5.05-7.36-8-12.87-16.87-14.05-27.95-.05-.44-.11-.89-.23-1.32-.84-3-6.13-7.48-7.33-6.15-1.85 2.06-3.03 5.03-3.63 7.8-.6 2.76-.17 5.75-.09 8.64.02.85.27 1.74.62 2.52.46 1.01 1.1 1.94 1.7 2.88 3.75 5.84 6.94 11.57 6.49 19.15-.4 6.7 1.96 13.56 1.57 20.26-.81 13.9-5.47 26.89-11.93 39.15-1.37 2.59-4.01 4.49-5.93 6.82-9.1 11.03-19.45 20.66-31.46 28.5-2.81 1.83-5.66 3.73-8.03 6.06-8.72 8.6-19.05 14.08-30.76 17.54-6.14 1.81-11.72 5.45-17.81 7.47-5.37 1.78-11.11 2.48-16.69 3.64-1.39.25-2.81.47-4.05.69zm117.48-292.12c.02-.35.04-.69.06-1.04 10.54 1.14 21.08 2.33 31.64 3.4 5.66.57 11.34 1.01 17.02 1.33 2.26.13 3.21-1.03 3.09-3.55-.43-8.76-3.39-12.99-12.45-14.9-20.95-4.41-42.15-6.46-63.6-5.68-4.99.18-10.05.16-14.98-.51-5.44-.74-10.52-.36-15.84 1.05-6.32 1.67-12.88 2.83-19.4 3.29-11.23.81-22.48 2.22-33.77-.12-3.03-.63-6.41.22-9.59.64-.81.1-2.05 1.04-2.15 1.74-.75 5.1-1.31 10.22 1.38 15.05 1.15 2.07 2.59 3.04 5.08 2.92 5.92-.28 11.85-.39 17.78-.41 17.44-.04 34.88-.12 52.31.07 5.21.06 10.35 1.44 15.61-.2 9.02-2.79 18.28-4.2 27.81-3.08zm-108.31 18.06c3.09 3.86 5.71 7.31 8.55 10.55.94 1.08 2.45 2.27 3.75 2.33 6.21.27 12.47.57 18.65.11 7.32-.54 14.56-2.42 21.88-2.67 8.36-.28 16.76.61 25.14.95 17.24.7 34.64-.3 50.8 8.05 6.11 3.15 12.18 2.46 17.2-3.93 2.97-3.78 1.6-6.95.86-10.28-.64-2.89-3.65-3.31-6.26-3.56-1.1-.11-2.24-.05-3.33.12-6.67 1-13.28 1.45-19.98-.25-3.08-.78-6.49-.91-9.66-.56-9.79 1.09-19.43-.24-29.11-1.22-9.01-.91-18.03-2.1-27.06-2.2-10.16-.11-20.34.84-30.5 1.37-6.77.33-13.53.76-20.93 1.19zm157.81 143.48c1.79-1.07 3.74-1.62 4.71-2.92 6.34-8.47 5.89-27.55-.81-35.75-1.02-1.25-2.81-2.32-4.38-2.57-4.84-.76-9.79-.9-14.63-1.63-2.82-.43-5.53.32-6.27 2.55-1.02 3.07-2.1 7.53-.65 9.76 6.75 10.35 14.38 20.13 22.03 30.56zm-116.9-110.99c-.04.54-.08 1.08-.12 1.62 2.56 1.28 5 2.98 7.71 3.77 11.13 3.24 22.37 6.06 33.5 9.3 8.84 2.57 16.98 1.59 24.55-3.7 1.7-1.19 3.65-2.6 2.56-4.81-.7-1.41-2.53-2.81-4.08-3.16-8.94-2.02-17.73-5.18-27.19-3.71-2.02.31-4.2-.44-6.3-.66-1.1-.12-2.22-.23-3.32-.21-5.55.06-11.1.01-16.64.29-3.58.16-7.12.82-10.67 1.27zm8.4 47.14c-1.45 2.02-3.33 3.46-3.41 4.99-.33 6.02-.65 12.15.14 18.09.43 3.24 2.39 7.9 4.88 8.91 5.86 2.38 12.4 1.6 19.11-.21-6.95-10.66-13.59-20.84-20.72-31.78zm-29.63-55.49c-.97 2.64-2.38 5.57 1.01 6.43 4.65 1.18 9.57 1.29 14.37 1.86.07-.26.13-.51.2-.77-5.07-2.45-10.15-4.9-15.58-7.52z" fill="#010000"/></svg>