<svg enable-background="new 0 0 400 400" viewBox="0 0 400 400" xmlns="http://www.w3.org/2000/svg"><g fill="#fbfafa"><path d="m37.59 393.81c-.92.31-1.52.05-2-.78-.7-1.2-1.52-2.34-2.47-3.78v4.59c-.55.03-.95.05-1.41.07-.03-.37-.06-.64-.06-.91 0-1.91 0-3.81 0-5.7 1.13-.41 1.77-.03 2.29.91.62 1.11 1.38 2.14 2.31 3.19v-4.2h1.35v6.61z"/><path d="m12.94 393.88v-6.75c1.9.19 3.93-.54 5.37 1.29.8 1.01.78 2.88.03 3.97-1.37 1.97-3.4 1.51-5.4 1.49m1.45-1.22c2.04.12 2.92-.58 2.89-2.21-.03-1.51-.98-2.19-2.89-2z"/><path d="m11.81 393.87h-5.49c.68-2.18 2.47-3.48 3.51-5.45h-3.08v-1.21h5.29c-.71 2.13-2.44 3.48-3.47 5.51.86 0 1.63.04 2.39-.01.79-.05 1.14.21.85 1.16"/><path d="m39.33 393.86v-6.61h3.7v1.07h-2.22v1.52c.68.04 1.34.09 2.07.13v1.07c-.72.05-1.38.09-2.1.14v1.48h2.4v1.19h-3.85z"/><path d="m27.71 388.56c-1.15-.3-2.46-.61-3.1.64-.37.73-.41 1.93-.06 2.67.63 1.35 1.99.93 3.17.68.35.94-.01 1.32-.93 1.46-1.62.25-3.05-.27-3.76-1.48-.73-1.24-.6-3.03.31-4.17.88-1.11 2.71-1.7 4-1.16.32.13.44.74.65 1.12-.1.08-.19.16-.28.24"/><path d="m49.15 387.24v1.07c-.59.02-1.17.05-1.87.08v5.44h-1.48v-5.44h-1.85c-.05-.4-.08-.73-.13-1.15z"/><path d="m20.06 387.21h1.33v6.62h-1.33z"/><path d="m30.68 393.25c-.49.38-.8.79-1.05.76-.32-.05-.6-.45-.9-.7.26-.24.51-.64.8-.67.29-.04.62.3 1.15.61"/></g><path d="m124.24 362.5c.45-3.6.85-6.79 1.31-10.42 5.36-.25 10.67-.54 15.99-.74 6.98-.26 7.26-.19 8.19-6.96.83-6.06 3.65-10.81 6.84-15.93 3.36-5.39 5.01-12.16 6.17-18.55 3.34-18.41 4.87-37.02 5-55.76.08-11.28-3.5-21.8-5.97-32.55-.26-1.13-1.47-2.17-2.46-3-7.48-6.23-14.82-12.66-22.58-18.52-8.1-6.11-11.76-14.54-13.28-23.99-1.61-10.04-2.01-20.28-3.79-30.29-1.94-10.87-4.85-21.57-7.35-32.34-.13-.54-.2-1.11-.41-1.62-3.69-8.92-2.25-17.41 1.19-26.17 3.92-9.96 6.86-20.32 10.25-30.49.35-1.05.59-2.35 1.34-3.01 6.78-6.04 10.21-14.33 14.93-21.76 1.09-1.72 1.09-5.09 4.44-4.51 4.17.72 8.61 1.89 9.44 6.69.56 3.22.16 6.97-.97 10.07-3.51 9.65-7.73 19.05-11.37 28.66-2.91 7.7-3.13 15.74-1.65 23.8.75 4.1 3.09 5.96 7.3 5.86 4.49-.11 8.53-1.18 11.45-5.1 2.11-2.84 4.64-5.37 6.99-8.04 6.86 6.44 4.96 14.06-1.23 18.76-.27.2-.55.39-.79.62-5.9 5.63-12.83 9.23-20.92 10.43-2.9.43-4.37 2.01-5.46 4.62-2.41 5.77-5.19 11.39-7.61 17.16-.58 1.38-.79 3.29-.31 4.66 4.14 11.93 8.45 23.79 12.76 35.66.45 1.24 1.09 2.45 1.82 3.56 5.37 8.12 10.43 16.47 16.26 24.24 7.31 9.75 16.67 17.18 29.2 18.52 6.23.66 12.81.08 18.97-1.2 9.49-1.97 18.75-5.02 28.11-7.61.43-.12.96-.15 1.26-.43 8.58-7.71 19.08-14.01 21.78-26.33.87-3.94-.38-8.35-.65-12.55-.72-11.38-1.51-22.75-2.09-34.13-.12-2.34-.82-3.78-2.76-5.21-11.52-8.48-20.9-18.87-27.09-31.89-2.31-4.86-3.07-10.08-2.27-15.38.23-1.49 1.22-3.32 2.43-4.11 1.93-1.25 3.89-.95 5.87 1.02 8.39 8.38 17.01 16.52 26.35 25.51 1.99-5.59 4.3-10.52 5.44-15.72 1.43-6.52 1.63-13.3 2.83-19.88 1.23-6.79 5.34-11.63 11.94-15 .67 5.8 2.9 11.27-1.08 16.5-1.27 1.67-1.12 3.4-.26 5.32 1.54 3.47 2.61 7.15 4.26 10.57 2.02 4.21 2.58 8.33 1.37 12.91-3.12 11.87-2.82 23.89-.98 35.92 1.63 10.63.06 20.95-2.89 31.14-1.43 4.94-2.95 9.85-4.42 14.77-1.8 6.08-4.72 11.44-9.01 16.23-5.67 6.33-11.01 12.97-16.22 19.69-2.02 2.61-4.37 3.78-7.48 4.33-1.87.33-3.84 1.22-5.34 2.39-5.97 4.64-11.77 9.5-18.27 14.79 6.02 0 11.21.02 16.39-.01 1.67-.01 3.35-.26 5.02-.26 7.52 0 12.45 4.09 14.17 11.95-6.4 2.16-12.78 4.51-19.29 6.41-3.05.89-4.63 2.68-5.74 5.42-3.3 8.18-3.05 16.58-.58 24.7 4 13.14 8.71 26.05 13.09 39.07 1.71 5.08 2.33 10.9 5.28 15.09 2.86 4.06 8.11 6.43 12.25 9.6 4.35 3.34 7.6 7.5 9.45 12.98-10.28 3.13-20.61 3.83-30.94 1.89-11.31-2.12-22.52-4.77-33.71-7.46-5.47-1.32-10.8-2.62-16.43-.92-12.51 3.77-25.01 1.58-37.51-.19-8.49-1.2-17.01-2.28-25.97-3.48zm83.74-68.06c-.02-.25.01-.59-.08-.91-.12-.43-.29-.86-.53-1.23-4.52-7.13-5.05-15.07-4.93-23.21.08-5.25-.01-10.55-.65-15.75-.34-2.71-1.35-6.08-3.28-7.7-4.2-3.54-9.16-6.19-13.86-9.11-.68-.42-2.16-.69-2.49-.33-3.15 3.41-7.24 6.52-8.92 10.6-3.37 8.22-4.23 17.19-3.02 26.07 2.14 15.69 3.32 31.36 1.48 47.16-.77 6.62-.5 13.31-3.95 19.5-3 5.39-1.69 7.39 4.61 8.46 2.31.39 4.71.28 7 .76 3.36.7 7.32.83 9.84 2.76 6 4.6 11.5 3.79 17.39.42.67-.39 1.44-.62 2.16-.91 3.2-1.31 7.69-1.78 9.27-4.16 1.67-2.53.29-6.92.73-10.44 1.3-10.42-1.15-19.58-8.28-27.45-3.62-3.99-5.82-8.42-2.65-13.8.08-.17.08-.42.16-.73z" fill="#010000"/><path d="m170.88 141.92c4.35 1 6.91 4.05 8.11 8.04 3.1 10.3 3.28 20.87 2.31 31.49-.07.78-.56 1.76-1.18 2.2-3.34 2.37-6.78 4.59-10.15 6.84-10.49-12.32-9.99-34.86.91-48.57z" fill="#010000"/><path d="m205.71 141.86c8.15 3.98 11.66 10.63 12.28 18.92.51 6.78.39 13.61.84 20.4.22 3.29-.84 5.26-3.97 6.24-1.24.39-2.4 1.05-2.97 1.31-3.14-8.51-6.25-16.8-9.26-25.13-2.75-7.64-.95-14.69 3.08-21.74z" fill="#010000"/><path d="m273.91 28.24c3 1.31 3.84 3.15 2.66 5.98-.81 1.94-1.17 4.08-2.12 5.93-.71 1.38-2.05 2.44-3.1 3.65-.35-.25-.71-.49-1.06-.74 1.18-4.89 2.38-9.78 3.62-14.82z" fill="#010000"/></svg>