<svg enable-background="new 0 0 400 400" viewBox="0 0 400 400" xmlns="http://www.w3.org/2000/svg"><g fill="#fbfafa"><path d="m37.59 393.81c-.92.31-1.52.05-2-.78-.7-1.2-1.52-2.34-2.47-3.78v4.59c-.55.03-.95.05-1.41.07-.03-.37-.06-.64-.06-.91 0-1.91 0-3.81 0-5.7 1.13-.41 1.77-.03 2.29.91.62 1.11 1.38 2.14 2.31 3.19v-4.2h1.35v6.61z"/><path d="m12.94 393.88v-6.75c1.9.19 3.93-.54 5.37 1.29.8 1.01.78 2.88.03 3.97-1.37 1.97-3.4 1.51-5.4 1.49m1.45-1.22c2.04.12 2.92-.58 2.89-2.21-.03-1.51-.98-2.19-2.89-2z"/><path d="m11.81 393.87h-5.49c.68-2.18 2.47-3.48 3.51-5.45h-3.08v-1.21h5.29c-.71 2.13-2.44 3.48-3.47 5.51.86 0 1.63.04 2.39-.01.79-.05 1.14.21.85 1.16"/><path d="m39.33 393.86v-6.61h3.7v1.07h-2.22v1.52c.68.04 1.34.09 2.07.13v1.07c-.72.05-1.38.09-2.1.14v1.48h2.4v1.19h-3.85z"/><path d="m27.71 388.56c-1.15-.3-2.46-.61-3.1.64-.37.73-.41 1.93-.06 2.67.63 1.35 1.99.93 3.17.68.35.94-.01 1.32-.93 1.46-1.62.25-3.05-.27-3.76-1.48-.73-1.24-.6-3.03.31-4.17.88-1.11 2.71-1.7 4-1.16.32.13.44.74.65 1.12-.1.08-.19.16-.28.24"/><path d="m49.15 387.24v1.07c-.59.02-1.17.05-1.87.08v5.44h-1.48v-5.44h-1.85c-.05-.4-.08-.73-.13-1.15z"/><path d="m20.06 387.21h1.33v6.62h-1.33z"/><path d="m30.68 393.25c-.49.38-.8.79-1.05.76-.32-.05-.6-.45-.9-.7.26-.24.51-.64.8-.67.29-.04.62.3 1.15.61"/></g><path d="m163.77 233.53c-10.7-1.86-21.31-2.64-29.4-10.76-3.67 4-5.58 8.3-5.45 13.09.51 18.51-4.33 36.11-8.73 53.79-3.22 12.94-5.78 25.97-6.36 39.34-.09 2.12.52 3.17 2.42 4.07 8.9 4.18 17.72 8.55 26.61 12.75 1.25.59 2.81.92 4.16.79 14.7-1.44 29.28-.17 43.85 1.64 14.55 1.81 29.02 1.06 43.46-1.14 6.63-1.01 13.3-1.81 19.91-2.97 1.22-.21 2.72-1.46 3.24-2.62 1.8-4.03 1.78-8.27.33-12.44-.95-2.74-1.97-5.47-3.02-8.18-2.96-7.65-4.23-15.45-2.75-23.65 1.41-7.85-1.49-15.27-2.67-22.85-.97-6.18-2.35-12.3-3.47-18.46-.19-1.06-.14-2.23.06-3.29 2.34-12.19 4.52-24.41 7.25-36.51.63-2.81 3.23-5.15 4.81-7.78 1.3-2.16 2.78-4.29 3.6-6.64 5.42-15.5 10.7-31.05 15.98-46.61 4.16-12.26 7.18-24.73 5.6-37.83-.36-2.96-1-5.98-2.12-8.72-4.14-10.14-8.49-20.2-12.86-30.24-.6-1.38-1.53-2.78-2.68-3.72-6.63-5.42-11.14-12.23-13.29-20.47-2.42-9.27-4.53-18.63-6.91-28.47 5.91.75 10.5 3.11 13.8 7.08 6.36 7.66 12.92 15.27 18.16 23.67 15.68 25.12 23.54 52.71 24.08 82.34.03 1.86-.22 3.8-.73 5.6-3.13 10.96-5.71 22.15-9.84 32.72-2.18 5.56-4.88 10.68-4.93 16.83-.01 1.4-1.23 2.82-1.97 4.2-6.69 12.52-13.27 25.09-20.16 37.5-2.53 4.56-1.82 9.11-1.06 13.7 1.41 8.6 3.7 17.1 4.5 25.75.63 6.8-.48 13.76-.68 20.65-.04 1.28.22 2.87.97 3.8 3.06 3.76 4.47 7.64 2.31 12.37-.58 1.27-.86 2.85-.73 4.24.11 1.2.7 2.81 1.61 3.38 1.75 1.09 2.37 2.33 2.43 4.33.27 8.28.77 16.55.98 24.83.03 1.2-.7 2.82-1.63 3.56-3.77 2.99-7.71 5.76-11.68 8.48-1.05.72-2.41 1.2-3.69 1.36-3.22.41-6.46.78-9.7.79-3.24 0-5.91.95-8.08 3.31-2.84 3.07-6.25 4.02-10.48 3.92-11.64-.28-23.29.18-34.93-.19-8.44-.27-16.48.68-24.08 4.42-2.29 1.13-3.84.85-5.73-1.2-8.19-8.88-18.99-12.59-30.49-14.9-11.23-2.26-20.23-8.16-26.87-17.51-.84-1.18-1.44-2.81-1.48-4.25-.52-18.57-1.01-37.14-1.25-55.72-.03-2.51 1.42-5.02 2.08-7.57.68-2.64 1.78-5.32 1.74-7.97-.17-11.19-.75-22.37-1.05-33.56-.05-1.84.28-3.79.9-5.52 2.33-6.41 5-12.69 7.22-19.13.63-1.82.71-4.2.12-6.02-6.28-19.35-12.63-38.67-19.22-57.91-1.93-5.64-1.92-11.32-1.04-16.9 3.07-19.43 6.53-38.8 9.89-58.18.41-2.37 5.15-4.93 7.26-3.87.74.37 1.18 1.53 1.54 2.42 3.95 9.84 3.35 19.91 1.57 30.07-2.22 12.66-4.5 25.31-6.52 38-1.08 6.78 1.33 13.11 4.01 19.1 3.23 7.22 6.95 14.26 10.86 21.15 5.84 10.31 12.1 20.39 18.04 30.65 3.3 5.7 7.27 10.68 12.8 14.41 4.77 3.19 7.77 7.77 9.58 13.65z" fill="#010000"/><path d="m207.62 86.98c9.76 1.39 17.38 5.92 23.6 12.53 12.81 13.63 21.8 29.41 24.55 48.16.67 4.56-.09 9.33-.17 14-.04 2.3-1.4 3.11-3.46 3.71-2.05.6-3.18-.1-4.13-1.67-6.86-11.23-14.28-22.16-20.43-33.77-6.94-13.09-12.74-26.79-19.02-40.22-.33-.69-.51-1.45-.94-2.74z" fill="#010000"/><path d="m211.53 191.71c-3.92 3.07-7.64 3.21-11.75 1.7-7.85-2.89-13.87-8.49-20.36-13.4-.74-.56-1.18-1.6-1.59-2.5-5.68-12.27-11.35-24.53-16.95-36.83-.53-1.17-.91-2.57-.83-3.83.73-12.95 1.57-25.9 2.4-38.85.05-.85.29-1.69.44-2.53.33-.16.66-.31.99-.47 1.57 2.3 3.75 4.4 4.59 6.95 2.29 6.86 4.71 13.81 5.81 20.92 2.64 17.01 9.04 32.64 16.14 48.09.58 1.27 1.58 2.42 2.6 3.4 6.06 5.76 12.2 11.45 18.51 17.35z" fill="#010000"/><path d="m294.61 239.43c-.46-1.87-.81-3.33-1.36-5.57 2.03 1.53 3.46 2.61 5.27 3.97-1.48.61-2.47 1.01-3.91 1.6z" fill="#010000"/></svg>