<svg enable-background="new 0 0 400 400" viewBox="0 0 400 400" xmlns="http://www.w3.org/2000/svg"><g fill="#fcfafa"><path d="m342.2 3.2-6.3 9.2h6.1v1.2h-8.2v-.5l6.2-9.1h-5.7v-1.2h7.8v.4z"/><path d="m344 13.7v-10.9h3.1c1.6 0 3 .5 4.1 1.4 1.1 1 1.6 2.2 1.6 3.9s-.5 3-1.6 4-2.5 1.5-4.2 1.5h-3zm1.4-9.6v8.4h1.6c1.4 0 2.5-.4 3.2-1.1.8-.8 1.2-1.8 1.2-3.2s-.4-2.4-1.2-3.1-1.8-1-3.1-1z"/><path d="m356.3 2.8v10.9h-1.4v-10.9z"/><path d="m366.6 13.2c-.8.4-1.8.6-3 .6-1.6 0-2.8-.5-3.7-1.5s-1.4-2.3-1.4-3.9c0-1.7.5-3.2 1.6-4.2s2.4-1.6 4-1.6c1 0 1.9.1 2.6.4v1.5c-.8-.4-1.6-.6-2.6-.6-1.2 0-2.2.4-3 1.2s-1.1 1.9-1.1 3.3c0 1.3.4 2.3 1.1 3.1s1.6 1.1 2.8 1.1c1.1 0 2-.2 2.8-.7v1.3z"/><path d="m368.2 13c0-.3.1-.5.3-.6.2-.2.4-.3.6-.3.3 0 .5.1.7.3s.3.4.3.6-.1.5-.3.6c-.2.2-.4.3-.7.3s-.5-.1-.6-.3c-.2-.2-.3-.4-.3-.6z"/><path d="m381.1 13.7h-1.7l-5.5-8.4c-.2-.2-.3-.5-.4-.7 0 .2.1.8.1 1.5v7.6h-1.4v-10.9h1.8l5.3 8.3c.3.4.4.6.4.8 0-.3-.1-.8-.1-1.6v-7.5h1.4v10.9z"/><path d="m389.7 13.7h-5.8v-10.9h5.6v1.2h-4.2v3.5h3.9v1.2h-3.9v3.7h4.4z"/><path d="m398.4 4.1h-3.1v9.6h-1.4v-9.6h-3.1v-1.3h7.7v1.3z"/></g><path d="m33.58 335.22c7.25-1.58 14.57-2.74 21.61-4.82 11.02-3.26 21.91-6.97 32.75-10.8 13.49-4.76 26.77-10.1 40.34-14.62 6.53-2.18 13.52-2.95 20.25-4.57 3.23-.78 6.56-1.66 9.45-3.21 2.52-1.35 4.51-3.72 7.38-6.19-18.04-15.33-27.04-35.99-38.61-55.2-4.97 4.66-9.6 9.31-14.54 13.59-11.43 9.9-23.21 19.37-36.94 26-8.33 4.03-17.17 6.28-26.34 7.5-3.39.45-5.55-.36-6.42-3.83-.21-.84-.72-1.6-.94-2.07 8.77-8.96 17.73-17.44 25.89-26.63 9.87-11.11 19.7-22.35 28.38-34.38 9.27-12.84 13.32-27.72 11.99-43.74-.11-1.27-1.1-2.92-2.18-3.58-6.64-4.02-13.55-5.66-21.43-3.35-10.11 2.97-19.78 1.8-28.75-4.47-10.86-7.58-21.42-15.45-30.28-25.38-.87-.97-1.61-2.06-2.6-3.32 5.8-1.45 11.34-1.56 16.46.37 12.52 4.71 25.47 5.34 38.62 5.37 21.93.05 43.87.88 65.79.52 8.85-.15 17.7-2.35 26.48-4.03 32.65-6.24 64.84-14.32 95.93-26.23 13.03-4.99 25.66-11.02 38.44-16.64 1.09-.48 2.06-1.33 2.97-2.14 13.02-11.63 26.03-23.29 39.03-34.95 3.04-2.72 9.64-2.47 11.93.83.86 1.24 1.05 3.47.64 5-1.92 7.14-4.23 14.16-9.73 19.56-.71.7-1.33 1.52-1.87 2.37-8.86 13.87-22.6 22.42-35.16 32.24-8.73 6.82-17.55 13.53-26.32 20.3-.69.53-1.33 1.13-2.2 1.87 1.01 1.23 1.91 2.33 2.81 3.43 3.08 3.75 4.76 7.67 4.19 12.9-1.01 9.19 4.25 15.97 10.41 21.93 10.69 10.36 23.57 17.26 37.26 22.78 9.12 3.68 18.25 7.34 27.34 11.08 6.05 2.49 6.23 2.85 6.24 9.93-5.56 1.61-11.22 1.17-16.78.07-18.96-3.75-36.28-11.75-53.08-21.01-3.01-1.66-6.21-2.98-9.56-4.56-.62 1.43-1.15 2.5-1.56 3.62-4.59 12.72-9.08 25.48-13.79 38.15-1.15 3.1-2.74 6.12-4.61 8.85-6.96 10.15-14.11 20.17-21.19 30.24-.69.99-1.33 2.01-2.29 3.49 8.37-.72 16.24-1.17 24.05-2.13 18.59-2.29 37.1-1.43 55.52 1.36 9.82 1.48 19.58 3.43 29.26 5.66 5.25 1.21 8.27 4.47 10.69 9.53-2.09 2.39-5.01 3.14-7.85 2.7-18.24-2.78-36.25.4-54.08 2.96-38.83 5.57-77.5 12.31-116.23 18.6-8.5 1.38-16.98 2.86-25.45 4.38-1.96.35-3.92.92-5.77 1.65-22.33 8.86-44.68 17.69-66.93 26.73-3.81 1.55-7.35 1.92-11.34 1.16-13.06-2.51-26.13-5.08-39.28-7.02-4.89-.69-7.52-2.54-8-7.85zm232.4-150.42c-1.69 3.78-2.89 7.65-4.98 10.95-4.84 7.64-12.19 12.41-20.35 15.84-15.42 6.49-31.66 10.18-47.96 13.66-9.51 2.03-18.99 2.6-28.62.78-4.46-.84-9.04-1.06-13.84-1.59 2.26 8.29 5.56 15.6 11.56 21.3 6.81 6.47 13.9 12.66 20.88 18.96.33.3.7.57 1.09.76 11.53 5.53 23.26 6.55 34.85.57 13.31-6.87 23.97-17.1 32.11-29.43 6.11-9.24 11.42-19.28 15.34-29.63 3.73-9.85 5.27-20.54 7.55-30.91.36-1.64-.05-3.77-.86-5.28-3-5.62-6.42-11.02-9.48-16.61-4.38-8.01-8.65-11.52-20.67-9.26-27.81 5.24-55.52 10.98-83.27 16.53-6.62 1.32-13.24 2.69-20.36 4.15 3 3.77 5.72 7.01 8.2 10.43.75 1.04 1.25 2.63 1.12 3.88-.63 6.01-1.27 12.03-2.4 17.96-.56 2.94.65 4.14 2.9 5.08 4.12 1.71 8.33 1.2 12.54.41 18.78-3.52 37.55-7.1 56.35-10.56 11.86-2.18 23.85-3.69 35.05-8.68 3.94-1.76 8.29-1.01 13.25.69z" fill="#010103"/><path d="m86.89 68.86c5-1.64 9.84-1.36 14.03.76 9.88 5 20.21 4.19 30.75 4.06 16.58-.2 32.13-5.4 48.06-8.68 20.25-4.17 40.28-9.49 60.61-13.18 7.57-1.37 15.75.31 23.61.98 2.6.22 4.33 2.29 4.37 5.19.05 3.38-2.25 7.31-4.77 8.09-14.1 4.34-28.2 8.66-42.31 12.98-25.43 7.78-50.86 15.58-76.33 23.26-1.66.5-3.75.41-5.43-.1-15.19-4.58-28.49-13.3-42.78-19.87-5.43-2.5-8.89-6.99-9.81-13.49z" fill="#010103"/></svg>