<svg enable-background="new 0 0 400 400" viewBox="0 0 400 400" xmlns="http://www.w3.org/2000/svg"><path d="m378.6 9.2.8-1c.9.7 1.9 1.4 2.9 2.3l-.9 1.1c-1.1-.9-2-1.7-2.8-2.4zm.5 10.7c.9-2.1 1.6-4.3 2.3-6.7.4.2.8.4 1.3.6-.7 2.1-1.5 4.3-2.2 6.6zm.4-15.2.9-.9c1 .8 2 1.6 2.8 2.4l-1 1c-1-.9-1.9-1.8-2.7-2.5zm12.5-1.3h1.2v1.4h2.7v1.1h-2.7v2.7h-1.2v-.5h-1.8v1.3h4.9v3.8h-1.2v-.5h-3.7c0 .4-.1.9-.1 1.2h5.1v1h-5.2c0 .5-.1.9-.2 1.2h6v1h-5.2c1.1 1.3 2.9 2 5.5 2.2-.4.4-.7.8-.9 1.3-2.9-.5-4.8-1.6-5.7-3.5h-.1c-.8 1.7-2.7 2.9-5.9 3.6-.2-.4-.6-.8-.9-1.1 2.8-.6 4.6-1.4 5.4-2.5h-4.8v-1h5.3c.1-.3.2-.7.2-1.2h-4.9v-1h5c0-.4 0-.8.1-1.2h-3.6v.5h-1.2v-3.8h4.9v-1.3h-1.8v.5h-1.2v-2.7h-2.6v-1.1h2.6v-1.4h1.2v1.4h4.7v-1.4zm-6.7 8.4h3.6c0-.4 0-.9 0-1.4h-3.6zm1.9-4.7h4.7v-1.2h-4.7zm6.7 3.3h-3.7v1.4h3.7z" fill="#fcfafa"/><path d="m384.7 21.4h1.3v2.2h2.8v-2.2h1.3v2.2h4.1v9.1h1.7v1.3h-16.9v-1.3h1.7v-9.1h4.1v-2.2zm.3 13.2.7 1.2c-1.8.9-3.8 1.9-6 2.9-.2-.4-.5-.8-.8-1.3 2.4-1 4.4-2 6.1-2.8zm-3.1-6.5h2.8v-3.2h-2.8zm0 4.6h2.8v-3.3h-2.8zm4.1-4.6h2.8v-3.2h-2.8zm0 4.6h2.8v-3.3h-2.8zm3.6 1.9c2.1.9 4.1 1.8 6.1 2.7l-.7 1.3c-2.2-1.1-4.2-2-6.1-2.9zm3.3-9.7h-2.8v3.2h2.8zm-2.8 7.8h2.8v-3.3h-2.8z" fill="#fcfafa"/><g fill="#010000"><path d="m74.53 256.46c.37-4.33.57-8.21 1.12-12.05.15-1.03 1.28-1.99 2.09-2.86 9.62-10.29 19.67-20.22 28.8-30.93 10.38-12.19 15.45-26.54 14.17-42.81-.32-4.01-.69-8.06-.52-12.07.13-3.16-1.13-5.1-3.72-6.41-4.98-2.51-9.99-4.97-14.99-7.44-3.6-1.78-7.33-3.34-10.78-5.38-4.86-2.87-7.86-6.79-7.77-13.01.09-7.1-.2-7.56 6.92-7.05 4.83.35 9.68 1.59 14.32 3.05 6.39 2.01 12.6 4.58 18.86 6.97 1.34.51 2.53 1.42 3.88 1.91 2.58.95 5.25 2.54 7.84 2.46 11.71-.38 23.56.13 34.99-3.16 11.78-3.39 24.04-5.54 34.65-12.17 4.05-2.53 7.72-5.67 11.54-8.57 10.75-8.18 20.14-17.59 27.75-28.89 3.2-4.75 7.71-8.66 11.86-12.71 2.74-2.68 6.24-1.87 7.65 1.75 1.52 3.9 2.14 7.91-.05 11.96-3.14 5.8-5.6 12.01-9.19 17.5-3.89 5.95-8.62 11.38-13.23 16.82-2.4 2.84-3.55 5.79-3.31 9.48 1.02 15.74 1.58 31.53 5.37 46.94 1.48 6.02 3.91 11.49 8.09 16.32 10.64 12.32 17.57 26.9 24.38 41.52 2.83 6.08 5.57 12.21 8.62 18.17 6.04 11.77 8.29 24.75 12.12 37.22 1.31 4.27 2.82 5.09 7.04 3.2 2.03-.91 3.86-2.26 5.86-3.24 5.18-2.55 9.67-.44 9.8 5.27.19 7.79-.89 15.19-5.88 22.08-7.73 10.68-18.98 14.94-30.52 18.82-16.01 5.38-32.4 9.25-49.02 12.46-14.12 2.73-27.91 7.2-41.87 10.8-27.92 7.2-55.8 14.58-83.83 21.3-6.35 1.52-13.37 1.46-19.92.69-8.05-.95-11.84-7.91-9.78-15.84 2.14-8.24 6.25-14.6 14.44-18.52 14.09-6.74 28.91-11.34 43.68-16.11 10.41-3.36 20.99-6.22 31.42-9.56 3.35-1.07 6.55-2.78 9.57-4.62 1.02-.62 1.96-2.7 1.71-3.85-5.07-23.87-5.77-48.17-7.54-72.37-.14-1.87-.51-3.76-1.07-5.56-1.94-6.3-3.63-12.72-6.14-18.79-2.09-5.05-4.97-9.84-7.97-14.43-2.24-3.42-3.97-3.26-6.85-.38-12.82 12.82-25.64 25.66-38.49 38.46-1.01 1-2.15 2.11-3.44 2.56-5.54 1.95-9.82 5.39-13.66 9.81-3.87 4.45-7.99 8.87-14.1 10.39-1.46.38-2.98.54-4.9.87zm159.63-51.61c-.52.49-.87.77-1.16 1.1-13.78 15.75-27.57 31.48-41.27 47.3-.83.96-1.29 2.59-1.26 3.9.26 13.09.59 26.17 1.03 39.26.27 8.02 1.2 8.69 9.29 7.39.88-.14 1.76-.33 2.6-.62 2.64-.89 5.21-2.19 7.91-2.66 3.75-.66 7.38-.33 11.37-1.61 7.41-2.38 15.62-2.15 23.46-3.3 6.51-.95 13.17-1.66 19.38-3.67 9.09-2.94 11.41-4.85 7.45-16.36-1.42-4.11-3.27-8.08-4.72-12.18-5.39-15.31-11.38-30.35-19.89-44.23-3.53-5.76-7.87-10.85-14.19-14.32zm-24.05-70.39c-16.83 5.84-33.39 11.57-49.94 17.31-3.81 1.32-4.58 2.36-2.83 6.05s4.04 7.22 6.56 10.45c10.9 13.96 19.22 28.99 21.41 46.95.39 3.23 2.26 6.27 3.53 9.62 6.52-4.36 10.36-9.65 13.13-15.97 3.12-7.13 6.72-14.06 10-21.12.95-2.05 2.04-4.24 2.18-6.41.46-7.59.64-15.19.72-22.8.08-8.21-.72-16.29-4.76-24.08z"/><path d="m223.61 32.23c-.78 17.04-6.47 29.3-17.38 39.47-8.73 8.13-18.26 14.41-29.58 18.32-9.07 3.13-17.79 7.23-26.74 10.72-1.67.65-3.72.86-5.49.61-5.75-.83-11.49-1.78-17.15-3.06-2.62-.59-5.24-1.74-7.54-3.15-6.46-3.99-12.8-8.2-19.11-12.43-5.73-3.83-9.06-9.11-9.49-16.13-.15-2.39.56-4.04 3.05-4.16 4.43-.21 9.05-1.01 13.27-.09 9.04 1.98 17.85 1.78 26.82-.08 9.39-1.95 19.19-2.52 28.24-5.45 14.49-4.69 26.67-13.64 36.62-25.14 4.23-4.9 8.44-7.55 14.86-5.49.72.23 1.55.13 2.34.19 6.65.53 7.41 1.39 7.28 5.87z"/></g></svg>