<svg enable-background="new 0 0 400 400" viewBox="0 0 400 400" xmlns="http://www.w3.org/2000/svg"><path d="m378.6 9.2.8-1c.9.7 1.9 1.4 2.9 2.3l-.9 1.1c-1.1-.9-2-1.7-2.8-2.4zm.5 10.7c.9-2.1 1.6-4.3 2.3-6.7.4.2.8.4 1.3.6-.7 2.1-1.5 4.3-2.2 6.6zm.4-15.2.9-.9c1 .8 2 1.6 2.8 2.4l-1 1c-1-.9-1.9-1.8-2.7-2.5zm12.5-1.3h1.2v1.4h2.7v1.1h-2.7v2.7h-1.2v-.5h-1.8v1.3h4.9v3.8h-1.2v-.5h-3.7c0 .4-.1.9-.1 1.2h5.1v1h-5.2c0 .5-.1.9-.2 1.2h6v1h-5.2c1.1 1.3 2.9 2 5.5 2.2-.4.4-.7.8-.9 1.3-2.9-.5-4.8-1.6-5.7-3.5h-.1c-.8 1.7-2.7 2.9-5.9 3.6-.2-.4-.6-.8-.9-1.1 2.8-.6 4.6-1.4 5.4-2.5h-4.8v-1h5.3c.1-.3.2-.7.2-1.2h-4.9v-1h5c0-.4 0-.8.1-1.2h-3.6v.5h-1.2v-3.8h4.9v-1.3h-1.8v.5h-1.2v-2.7h-2.6v-1.1h2.6v-1.4h1.2v1.4h4.7v-1.4zm-6.7 8.4h3.6c0-.4 0-.9 0-1.4h-3.6zm1.9-4.7h4.7v-1.2h-4.7zm6.7 3.3h-3.7v1.4h3.7z" fill="#fcfafa"/><path d="m384.7 21.4h1.3v2.2h2.8v-2.2h1.3v2.2h4.1v9.1h1.7v1.3h-16.9v-1.3h1.7v-9.1h4.1v-2.2zm.3 13.2.7 1.2c-1.8.9-3.8 1.9-6 2.9-.2-.4-.5-.8-.8-1.3 2.4-1 4.4-2 6.1-2.8zm-3.1-6.5h2.8v-3.2h-2.8zm0 4.6h2.8v-3.3h-2.8zm4.1-4.6h2.8v-3.2h-2.8zm0 4.6h2.8v-3.3h-2.8zm3.6 1.9c2.1.9 4.1 1.8 6.1 2.7l-.7 1.3c-2.2-1.1-4.2-2-6.1-2.9zm3.3-9.7h-2.8v3.2h2.8zm-2.8 7.8h2.8v-3.3h-2.8z" fill="#fcfafa"/><g fill="#010000"><path d="m23.26 113.87c5.55-1.6 10.87-1.23 16.07 1.15 5.18 2.37 10.4 4.66 15.55 7.07 1.08.51 2.07 1.32 2.96 2.14 12.57 11.6 26.98 20.09 42.84 26.46 18.25 7.33 36.34 15.07 54.36 22.96 15.37 6.73 31.39 8.84 47.88 7.22 22.46-2.22 43.7-9.07 64.29-18.08 1.09-.48 2.07-1.3 2.98-2.11 13.35-11.94 26.7-23.87 39.99-35.88 1.72-1.55 3.3-3.35 4.59-5.28 14.98-22.41 29.95-44.84 44.75-67.37 1.76-2.68 3.35-2.71 5.74-1.48 5.08 2.61 7.99 8.77 7.04 16.2-2.01 15.83-7.02 30.91-11.93 46-.4 1.22-1.41 2.26-2.25 3.31-6.35 7.96-12.34 16.26-19.22 23.74-6.17 6.72-13.24 12.64-20.07 18.75-8.75 7.83-17.99 15.15-26.39 23.33-7.62 7.43-11.87 16.91-13.56 27.53-.41 2.58.28 3.81 2.42 5.02 16.16 9.12 32.28 18.34 48.4 27.53 11.29 6.44 22.33 13.22 31.94 22.11 2.16 2 2.69 3.86 2.4 6.94-.84 8.95-5.17 15.33-11.87 21.08-13.61 11.69-27.55 22.66-45.45 26.84-12.84 3-25.75 5.74-38.72 8.07-7.08 1.27-14.11 2.36-20.34 6.19-9.21 5.67-19.6 7.12-30 8.72-16.14 2.48-32.19 5.53-48.37 7.64-7.26.95-14.74.35-22.11.22-14.43-.25-28.85-.69-43.28-.99-1.31-.03-2.79.11-3.91.7-4.62 2.43-8.89 1.58-13.36-.55-4.43-2.11-9.08-3.75-13.67-5.53-5.82-2.26-11.77-4.18-16.19-9.04-1.23-1.35-3.16-2.07-4.78-3.06-.76-.46-1.58-.83-2.35-1.29-3.76-2.27-7.26-8.43-6.33-11.1.73-2.1 7.17-4.19 11.2-4.11 3.96.08 7.98-.13 11.88-.76 1.18-.19 2.55-2.04 2.98-3.4 1.1-3.51 1.89-7.14 2.51-10.77 2.75-16.1 10.87-30.2 16.75-45.13 3.11-7.9 6.53-15.68 9.96-23.45 1.25-2.84 1.97-5.56 1.45-8.72-.56-3.41-.5-6.92-.91-10.36-.16-1.37-.61-2.85-1.37-3.98-10.02-14.87-21.08-28.81-34.11-41.3-12.34-11.83-23.84-24.56-35.48-37.1-4.07-4.41-6.22-9.79-4.91-16.08zm107.92 206.04c8.85-1.18 17.76-1.99 26.53-3.63 11.27-2.11 22.07-5.78 31.2-13.1 1.19-.96 2.15-2.82 2.31-4.36.86-8.4-2.84-15.06-8.95-20.32-9.89-8.51-21.27-14.29-33.94-17.54-4.79-1.23-9.17-1.1-13.22 2.21-2.68 2.18-5.97 3.68-8.41 6.07-7.97 7.83-15.71 15.89-23.42 23.97-.7.74-.91 2.22-.86 3.35.2 5.03.71 10.04.81 15.07.05 2.34 1.07 3.34 3.11 4.03 8.04 2.72 16.31 3.72 24.84 4.25zm-4.67-122.79c.6 1.09.9 1.67 1.24 2.23 6.75 11.07 15.64 19.97 26.43 27.19 10.95 7.33 21.95 14.66 32.25 22.85 5.03 4 9.82 4.76 15.11 2.72 3.62-1.4 7.1-3.78 9.91-6.48 4.26-4.09 7.89-8.84 11.79-13.3 2.54-2.9 3.51-10.45 1.18-13.45-1.2-1.54-3.44-2.43-5.38-3.19-1.17-.45-2.65-.08-4-.08-9.51-.03-19.3 1.35-28.45-.49-9.7-1.95-18.8-6.91-28.12-10.67-10.11-4.1-20.49-6.91-31.96-7.33zm110.66 104.51c.93-.06 1.5-.05 2.05-.15 20.48-3.62 39.34-11.51 57.34-21.69 1.8-1.02 1.71-2.27 1.24-3.92-3.73-13.2-13.29-20.13-25.74-23.93-.81-.25-1.81-.2-2.63.03-3.96 1.13-8.06 1.98-11.78 3.67-9.34 4.24-16.34 11.65-23.52 18.64-2.6 2.53-4.61 6-5.98 9.41-2.36 5.87 1.5 14.75 7.12 17.55.66.33 1.5.32 1.9.39z"/><path d="m193.54 156.22c-10.51-.43-20.77-2.06-30.67-5.44-16.59-5.67-33.09-11.57-49.58-17.52-1.66-.6-3.28-1.89-4.4-3.28-2.65-3.31-5.15-6.77-7.43-10.35-6.62-10.41-3.58-21.6 6.48-27.51 9.64-5.67 20.25-9.98 30.87-13.63 17.83-6.13 36.01-11.27 54.05-16.8 7.89-2.42 15.81-.75 23.6.37 17.17 2.45 34.11 6.25 50.42 12.15 6.19 2.24 12.18 5.7 17.41 9.72 7.51 5.76 9.57 14.03 7.38 23.2-.35 1.48-1.42 3.04-2.61 4.01-14.25 11.74-28.55 23.4-42.93 34.98-1.48 1.19-3.47 2.01-5.35 2.38-11.18 2.22-22.37 4.36-33.6 6.3-4.49.78-9.09.97-13.64 1.42z"/></g></svg>