<svg enable-background="new 0 0 400 400" viewBox="0 0 400 400" xmlns="http://www.w3.org/2000/svg"><path d="m255 96.53c-1.86-3.67-3.91-7.73-6.04-11.93-3.84 5.4-2.3 19.21 2.47 22.38.37-2.56.72-5.01 1.18-8.2.74 1.6 1.24 2.55 1.62 3.54 5.67 14.58 11.07 29.27 17.11 43.7 2 4.78 1.03 8.5-1.24 13.05-1.3-.92-2.56-1.57-3.51-2.53-1.49-1.5-2.69-3.3-4.17-4.82-5.57-5.74-10.43-11.76-8.29-20.89-6.21 3.89-6.27-2.52-9.59-4.75-3.48 7.97-6.85 15.85-10.35 23.67-1.87 4.17-3.66 8.42-6.02 12.31-2.52 4.16-6.21 7.03-11.7 6.88-1.59-4.14-1.22-8.21-.04-12.38 1.54-5.46 2.86-10.98 4.29-16.46.14-.53.3-1.08.58-1.54 6.8-11.42 10.06-24.06 12.52-36.94.41-2.16.3-4.42.45-6.95-2.37-.29-4.45-.56-6.53-.78-5.78-.62-11.58-1.11-17.35-1.89-2.24-.3-3.52.44-4.01 2.44-.92 3.78-2.36 7.6-2.34 11.4.04 10.06 1.28 20.13 1.06 30.17-.47 20.89.06 41.87-4.29 62.51-.2.97-.46 2.11-.16 2.98 2.29 6.67.76 13.29-.14 19.91-3.11 22.9-3.31 45.96-3.84 69-.11 4.59.22 9.2-.17 13.76-.29 3.39 1.3 5.14 3.86 6.67 6.6 3.92 13.78 3.85 21.14 3.55 7.15-.29 10.55-4.81 12.69-10.56 1.94-5.21 3.26-10.67 4.61-16.09 2.18-8.78 5.3-16.83 13.58-21.85 2.07-1.25 3.67-3.26 5.49-4.92 1.24-1.13 2.4-2.37 3.73-3.38 5.23-3.97 8.1-3.33 11.25 2.32 4.11 7.38 5.37 15.59 6.83 23.72 1.8 9.99 3.5 20.01 5.05 30.04.34 2.17 1.26 2.96 3.26 3.37 6.46 1.32 12.88 2.84 19.34 4.17 2.06.42 3.36 1.14 3.7 3.49.39 2.72 1.27 5.37 2.05 8.48-7.63 0-14.78.13-21.91-.07-2.59-.07-3.71.84-4.57 3.18-3.08 8.39-6.34 16.72-9.57 25.05-3.95 10.19-10.71 13.96-21.37 11.89-2.74-.53-5.4-1.52-8.15-1.91-6.9-.98-10.36-5.65-12.59-11.54-1.38-3.64-2.31-7.46-3.41-11.2-.31-1.07-.43-2.21-.78-3.26-3.59-10.54-3.57-10.15-13.92-11.34-5.87-.68-11.82-.53-17.73-.88-2.16-.13-2.97.86-3.32 2.8-1.48 8.25-2.97 16.49-4.59 24.71-.47 2.39-1.13 4.8-2.11 7.03-.64 1.46-1.81 2.89-3.11 3.82-3.09 2.22-5.18 1.15-5.49-2.58-.67-8.25-1.2-16.52-2.06-24.75-.47-4.58-2.02-8.77-6.69-10.87-2.35-1.05-4.51-1.24-6.02 1.46-3.14 5.64-6.36 11.25-9.51 16.88-4.4 7.87-8.77 15.75-13.19 23.69-6.19-1.97-11.63-3.63-17-5.49-.92-.32-1.73-1.34-2.29-2.23-4.31-6.8-8.95-13.44-12.65-20.56-1.76-3.39-2.13-7.7-2.37-11.64-.21-3.51-1.8-5.57-4.79-6.41-4.49-1.26-9.08-2.65-13.68-2.9-8.43-.46-10.22-6.53-9.45-12.75.1-.83 1.15-1.82 2-2.22 3.61-1.71 7.27-1.47 11.09-.32 3.7 1.12 7.55 1.77 11.36 2.44 2.33.4 3.84-.7 5.06-2.86 5.34-9.44 11-18.7 16.3-28.16 2.08-3.71 5.2-6.31 8.96-7.01 4.56-.85 6.66-3.63 8.55-7.15.31-.57.66-1.11 1.15-1.95 6.71 9.79 13.41 19.29 19.72 29.04.9 1.4.2 4.08-.26 6.05-.66 2.78-.77 5.18 2.21 6.54 3.13 1.42 6.75.31 8.36-2.62.84-1.54 1.81-3.35 1.72-4.98-.61-11.63 2.83-22.59 5.46-33.65 1.51-6.32 1.91-12.51.84-18.88-.73-4.32-.84-8.68.99-12.83 2.67-6.05 1.95-12.28.64-18.4-1.3-6.1-1.06-11.88 1.31-17.69.66-1.62.77-3.8.31-5.5-2.77-10.33-.74-20.57-.22-30.92.94-18.86.84-37.78 1.12-56.68.05-3.69-.14-7.38-.27-11.07-.1-2.85-1.99-4.61-4.57-3.59-4.37 1.74-7.97.21-11.86-1.43-1.98-.83-4.52-1.09-6.63-.69-7.24 1.4-14.36 3.43-21.6 4.76-3.9.71-5.7 3.03-6.29 6.37-1.3 7.3.03 14.26 4.08 20.51 8.34 12.88 13.18 27.05 15.87 42.04.1.54.01 1.1.01 1.64-5.24 1.19-5.6.98-8.41-3.37-5.34-8.27-10.68-16.53-16.18-24.69-1.73-2.56-3.96-4.77-6.15-7.38-7.4 8.93-12.46 19.94-25.51 21.86-.26-5.83-.57-10.84 3.22-16.02 7.07-9.68 12.43-20.56 14.86-32.4 2.46-11.99 1.41-12.15-9.71-15.22-2.13-.59-4.42-.63-6.64-.79-7.01-.49-9.49-3.73-8.1-10.7.15-.76.37-1.5.65-2.62 7.03 0 14.07-.26 21.08.1 4.08.21 6.62-1.4 8.42-4.7 5.15-9.46 7.49-19.81 9.41-30.27.38-2.06-.62-2.68-3.09-2.1.75-3.46 1.48-6.81 2.2-10.16 2.81-.27 4.35.95 5.37 3.28 1.17 2.65 2.53 5.22 3.86 7.8 2.31 4.49 2.92 9.02 1.04 13.9-1.03 2.68-1.65 5.57-2.1 8.43-1.65 10.37 5.88 15.68 12.43 16.98 8 1.59 15.79-.38 23.62-1.55.44-.07.86-.24 1.3-.34 8.53-1.8 9.18-2.29 10.29-10.89.44-3.39.16-6.91-.07-10.35-.5-7.57 2.64-12.06 10.44-14.08 1.41 6.61 2.82 13.22 4.21 19.82 1 4.7 1.84 9.44 3.06 14.09.33 1.26 1.67 3.07 2.71 3.19 8.97 1.07 17.97 1.9 26.98 2.52.9.06 2.33-1.59 2.83-2.74 2.83-6.55 2.72-13.46 2.47-20.45-.23-6.34-.09-12.71.31-19.03.13-2.01 1.66-3.93 2.77-6.4 5.94 6.76 8.61 13.91 8.38 22.04-.21 7.52-.13 14.98 2.15 22.25 1.79 5.73 5.43 8.62 11.44 8.97.89.05 1.79.06 2.68.13 5.95.5 9.68 4.8 9.23 10.82-.05.69-.79 1.76-1.39 1.89-3.08.69-6.21 1.51-9.34 1.58-3.76.06-7.52-.58-11.89-.97zm5.94 183.04c-6.35 7.5-9.43 15.75-10.82 24.56-.47 2.97.06 6.42 4.04 7.91 4.42 1.65 8.66 3.41 12.68-.62.68-.68 1.45-1.54 1.61-2.43 2-10.63-.02-20.27-7.51-29.42zm-10.05 58.47c1.33 2.68 2.46 5.09 3.72 7.42.33.61.97 1.3 1.6 1.46 6.41 1.58 10.64-.66 12.41-6.9.43-1.52.1-3.96-.9-5-1.58-1.63-3.79-3.21-6.54-1.87-3.29 1.61-6.61 3.15-10.29 4.89zm-101.56-29.11c-.49-3.7-.67-7.15-1.47-10.45-.74-3.04-4.38-5.28-5.93-3.91-3.87 3.41-7.51 7.14-8.02 12.67-.2 2.15.58 3.69 3.31 3.26 3.74-.59 7.51-.99 12.11-1.57zm-15.92 34.92c2.43-1.15 5.12-1.6 6.44-3.19 4.04-4.86 1.61-11.41-4.69-12.41-1.68-.26-3.91 1.89-5.58 3.3-.56.47-.49 2.2-.14 3.14 1.08 2.9 2.44 5.71 3.97 9.16zm61.44-106.06c.57-4.43 5.34-8.9-.04-13.4-3.53 4.55-2.03 8.98.04 13.4zm2.87-83.22c1.86-1.97 2.25-6.9 1.03-10.92-2.39 3.39-3.01 6.87-1.03 10.92zm82.9 167.31c-1.26-1.4-2.1-2.33-3.12-3.47-1.18 2.32-4.4 2.86-3.67 6.36 2.31-.99 4.29-1.83 6.79-2.89zm-128.16-237.33c-.86-2.99-1.48-5.17-2.11-7.36-.98 2.68-1.83 5.31 2.11 7.36z" fill="#010100"/><g fill="#fcfafa"><path d="m342.2 3.2-6.3 9.2h6.1v1.2h-8.2v-.5l6.2-9.1h-5.7v-1.2h7.8v.4z"/><path d="m344 13.7v-10.9h3.1c1.6 0 3 .5 4.1 1.4 1.1 1 1.6 2.2 1.6 3.9s-.5 3-1.6 4-2.5 1.5-4.2 1.5h-3zm1.4-9.6v8.4h1.6c1.4 0 2.5-.4 3.2-1.1.8-.8 1.2-1.8 1.2-3.2s-.4-2.4-1.2-3.1-1.8-1-3.1-1z"/><path d="m356.3 2.8v10.9h-1.4v-10.9z"/><path d="m366.6 13.2c-.8.4-1.8.6-3 .6-1.6 0-2.8-.5-3.7-1.5s-1.4-2.3-1.4-3.9c0-1.7.5-3.2 1.6-4.2s2.4-1.6 4-1.6c1 0 1.9.1 2.6.4v1.5c-.8-.4-1.6-.6-2.6-.6-1.2 0-2.2.4-3 1.2s-1.1 1.9-1.1 3.3c0 1.3.4 2.3 1.1 3.1s1.6 1.1 2.8 1.1c1.1 0 2-.2 2.8-.7v1.3z"/><path d="m368.2 13c0-.3.1-.5.3-.6.2-.2.4-.3.6-.3.3 0 .5.1.7.3s.3.4.3.6-.1.5-.3.6c-.2.2-.4.3-.7.3s-.5-.1-.6-.3c-.2-.2-.3-.4-.3-.6z"/><path d="m381.1 13.7h-1.7l-5.5-8.4c-.2-.2-.3-.5-.4-.7 0 .2.1.8.1 1.5v7.6h-1.4v-10.9h1.8l5.3 8.3c.3.4.4.6.4.8 0-.3-.1-.8-.1-1.6v-7.5h1.4v10.9z"/><path d="m389.7 13.7h-5.8v-10.9h5.6v1.2h-4.2v3.5h3.9v1.2h-3.9v3.7h4.4z"/><path d="m398.4 4.1h-3.1v9.6h-1.4v-9.6h-3.1v-1.3h7.7v1.3z"/></g></svg>