<svg enable-background="new 0 0 400 400" viewBox="0 0 400 400" xmlns="http://www.w3.org/2000/svg"><path d="m362.1 8.8c1.1.8 2.1 1.6 3.1 2.4l-1 1.1c-1.3-1.1-2.3-2-3-2.5zm1.9 4.8c.5.2.9.4 1.4.5-.6 2.3-1.3 4.5-1.9 6.8l-1.5-.5c.8-2.1 1.4-4.3 2-6.8zm-1-9.4c1.3.9 2.4 1.8 3.4 2.5l-1 1.1c-1.4-1.2-2.4-2.1-3.2-2.6zm3.7 2.2v-1.4h10.3v1.2c-.5 3.6-1.8 6.8-4 9.4 1.5 1.6 3.4 2.8 5.7 3.8-.3.4-.7.8-1.1 1.4-2.3-1.1-4.1-2.5-5.6-4.1-1.6 1.6-3.6 3.1-5.9 4.3-.3-.5-.7-.9-1-1.3 2.4-1.1 4.4-2.5 6-4.1-1.9-2.5-3-5.6-3.3-9.3h-1.1zm8.8 0h-6.4c.3 3.3 1.3 6 3 8.2 2-2.3 3.1-5.1 3.4-8.2z" fill="#fbfafc"/><path d="m385.3 3.8h1.3v2.2h2.8v-2.2h1.3v2.2h4.1v9.1h1.7v1.3h-16.9v-1.3h1.7v-9.1h4.1v-2.2zm.4 13.1.7 1.2c-1.8.9-3.8 1.9-6 2.9-.2-.4-.5-.8-.8-1.3 2.3-1 4.3-1.9 6.1-2.8zm-3.1-6.4h2.8v-3.2h-2.8zm0 4.6h2.8v-3.3h-2.8zm4-4.6h2.8v-3.2h-2.8zm0 4.6h2.8v-3.3h-2.8zm3.7 1.9c2.1.9 4.1 1.8 6.1 2.7l-.7 1.3c-2.2-1.1-4.2-2-6.1-2.9zm3.2-9.7h-2.8v3.2h2.8zm-2.8 7.8h2.8v-3.3h-2.8z" fill="#fbfafc"/><path d="m208.92 263.77c-10.55 2.57-20.32 4.92-30.07 7.33-20.64 5.1-41.52 6.26-62.61 3.75-13.83-1.65-28.93-8.92-38.94-18.65 5.14-2.94 10.71-3.6 16.37-4.1 19.37-1.73 38.79-3.15 58.08-5.58 7.77-.98 15.17-4.59 22.88-6.41 6.06-1.43 12.35-1.86 18.51-2.92 5.98-1.03 11.91-2.32 16.1-7.73-3.26-2.63-7.19-3.65-10.93-3.09-22.54 3.35-43.98-2.84-65.64-7.17-11.71-2.34-22.49-6.79-31.22-15.22-2.56-2.47-4.81-5.3-6.92-8.17-2.85-3.86-5.63-7.81-8.06-11.94-1.48-2.51-2.23-5.45-3.31-8.2.28-.34.57-.68.85-1.02 1.93.47 4.04.58 5.76 1.46 9.87 5 19.42 10.72 29.52 15.17 18.31 8.06 37.37 14.09 57.6 13.86 9.86-.11 19.71-2.36 29.53-3.83 1.19-.18 2.59-1.33 3.23-2.42 2.36-4.04 2.98-8.33 1.19-12.87-.79-2-1.78-2.87-4-2.24-9.87 2.8-19.89 5.12-29.61 8.37-9.15 3.07-18.37 6.18-27.83 3.29-7.6-2.32-14.83-6.08-21.91-9.8-3.77-1.98-5.03-6.02-4.74-9.96 27.69-4.12 55-8.32 81.49-18.22-1.14-5.69-1.98-11.32-3.56-16.74-.39-1.34-3.12-2.58-4.9-2.78-2.46-.27-5.12.2-7.56.85-9.7 2.59-19.41 5.15-28.99 8.13-10.02 3.12-19.93 6.59-29.8 10.15-16.02 5.78-32.01 5.34-48.03.23-3.42-1.09-6.59-2.7-8.41-6.47 7.86-1.64 15.53-3.02 23.09-4.88 8.12-2 16.25-4.06 24.15-6.76 19.23-6.56 38.16-14.05 58.16-18.19 11.66-2.41 11.86-11.08 9.65-19.03-.26-.94-1.24-1.85-2.11-2.41-4.03-2.62-8.44-3.33-13.17-2.41-5.92 1.16-11.87 2.14-17.77 3.38-1.79.37-3.47 1.3-5.16 2.05-8.57 3.78-16.94 8.09-25.73 11.27-13.04 4.72-26.4 8.46-40.37 9.45-5.34.38-10.2-.56-15.18-2.91-7.83-3.69-14.09-8.88-19.51-16.41 3.29-1.05 6.4-2.92 9.5-2.9 17.42.11 33.18-6.73 49.48-11.25 13.99-3.89 27.9-8.07 41.87-12.05 1.82-.52 3.74-.67 5.62-.98 6.58-1.07 10.26-4.18 12.65-11.07-13.36-11.41-26.87-22.94-40.76-34.79.81-1.57 1.9-3.71 3.16-6.16 12.85 4.54 26.57 5.7 38.53 12.58 6.34 3.65 10.35 8.97 12.98 15.65.97 2.45 2.17 5 3.91 6.92 2.8 3.09 6.38 4.36 10.86 3.78 22.4-2.92 44.79-5.94 67.27-8.1 6.15-.59 12.56 1.76 18.87 2.59 4.53.6 9.12 1.43 13.65 1.27 8.45-.31 16.34 2.31 24.43 3.88 4.54.88 5.87 4.29 4.72 10.46-3.92-.58-7.89-.97-11.78-1.8-10.12-2.14-20.27-1.42-30.41-.55-23.86 2.04-47.06 7.13-69.57 15.32-6.31 2.3-8.12 5.71-6.44 12.23 2.05 7.97 5.26 10.58 13.38 9.48 5.72-.77 11.38-2.35 16.89-4.13 15.34-4.94 30.51-3.56 45.51 1.09 5.62 1.74 11.05 4.28 16.31 6.96 17.42 8.87 22.42 22.48 14.68 40.49-1.85 4.31-4.6 8.46-7.76 11.94-10.02 11.01-20.56 21.54-30.63 32.5-4.07 4.43-8.85 7.47-14.29 9.66-4.25 1.71-8.68 2.99-12.83 4.9-2.99 1.38-5.99 3.13-8.32 5.4-1.62 1.58-2.11 4.32-3.11 6.55.29.24.57.49.86.73 5.15-.8 10.3-1.57 15.45-2.39 21.53-3.44 43.02-7.22 64.62-10.12 6.25-.84 12.88.56 19.26 1.42 3.47.47 6.04 2.85 7.22 6.34.57 1.68.45 2.82-1.76 3.42-22.88 6.16-45.7 12.54-68.6 18.61-7.43 1.97-15.06 3.2-22.59 4.79-.87.18-1.68.6-2.53.88-7.75 2.55-12.28 7.14-14.06 15.81-4.13 20.13-9.46 40.02-14.36 59.99-.39 1.58-1.08 3.18-1.99 4.53-9.81 14.57-19.7 29.09-29.56 43.62-1.32 1.94-8.43 4.51-9.78 2.98-1.38-1.57-2.25-4.55-1.8-6.57.79-3.52 2.12-7.29 4.35-10.05 8.26-10.2 12.69-22.04 15.67-34.52 2.69-11.3 4.89-22.72 7.45-34.05 1.03-4.57 2.8-9.01 3.52-13.62.61-3.73.14-7.64.14-11.88zm10.46-132.42c2.06 5.23 4.03 10.21 5.98 15.2 2.1 5.35 6.85 8.17 12.53 7.33 4.87-.72 9.69-1.73 14.58-2.29 10.94-1.24 21.63-5.08 32.89-3.09.8.14 1.92-.42 2.61-1 3.58-2.97 3.48-7.36 3.85-11.39.55-6-1.17-11.31-7.14-13.88-4.07-1.74-8.41-3-12.74-3.94-12.39-2.69-24.19.61-35.91 4.07-6.06 1.8-11.58 4.68-16.65 8.99zm56.08 31.77c-7.19 1.73-14.46 3.27-21.6 5.24-5.76 1.59-11.4 3.63-17.04 5.6-.93.33-2.08 1.24-2.34 2.11-1.49 5.05-1.69 10.08.93 14.94 1.31 2.43 2.9 3.85 5.84 2.84 2.83-.97 6.15-1.2 8.45-2.87 6.38-4.62 12.32-9.84 18.47-14.76 4.44-3.56 5.93-8.65 7.29-13.1z" fill="#000001"/></svg>