<svg enable-background="new 0 0 400 400" viewBox="0 0 400 400" xmlns="http://www.w3.org/2000/svg"><g fill="#010101"><path d="m292.55 258.89c-7.73 3.91-15.78 7.75-23.61 12.02-5.36 2.92-10.07 6.84-12.57 12.63-.7 1.61-.71 3.89-.2 5.6 3.64 12.06 10.49 22.31 18.02 32.28 10.85 14.38 21.27 29.08 31.87 43.65.65.89 1.26 1.81 1.91 2.75-3.67 1.08-3.99 1.03-6.35-1.52-19.27-20.76-38.53-41.53-57.8-62.29-.97-1.05-1.96-2.08-3.01-3.2-17.77 18.54-25.74 41.92-34.68 65.69-2.07-7.09-2.27-13.56-1.05-19.92.96-5.01 2.67-9.92 4.47-14.71 3.5-9.31 7.23-18.54 11.03-27.73.91-2.21 2.47-4.16 3.79-6.19 3.08-4.75 6.61-9.28 9.13-14.31 1.22-2.45 1.24-5.95.68-8.76-2.01-10.17-4.48-20.26-6.93-31.03-13.42-2.36-27.65-4.85-41.89-7.35-.01-.17-.03-.34-.04-.51 7.99-2.01 15.98-4.03 23.98-6.04 3.47-.87 6.98-1.61 10.38-2.71.96-.31 2.18-1.62 2.26-2.55 1.66-20.87 3.17-41.74 4.7-62.62.03-.41-.11-.84-.14-1.1-12.07 1.22-20.4 9.06-29.47 16.65.29-5.49 1.29-9.56 5.43-13.06 11.63-9.81 22.82-20.16 34.26-30.2 1.85-1.62 2.67-3.15 2.38-5.71-.7-6.11-1.02-12.26-1.52-18.7-13.77-2.5-27.45-4.98-41.13-7.46-.02-.22-.03-.45-.05-.67 2.14-.74 4.27-1.51 6.42-2.22 9.13-3.01 18.24-6.07 27.41-8.94 2.23-.7 2.98-1.8 2.79-4.07-1.46-17.33 1.27-34.07 7.15-50.36.77-2.14 1.27-4.39 2.59-6.5 2.01 11.94 4.01 23.87 6.06 36.05 4.35-.41 8.47-.65 12.52-1.3.96-.15 2.01-1.56 2.48-2.63 3.9-8.79 7.67-17.63 11.49-26.45.48-1.12 1.02-2.22 1.82-3.94 3.55 9.59 4.97 18.81 3.24 28.4-.18.99-.47 1.96-.69 2.94-1.68 7.48-6.2 11.83-13.91 12.78-2.44.3-4.85.83-7.29 1.14-6.17.8-9.41 4.54-9.37 11.23 16 4.57 32.09 9.17 48.17 13.77.01.23.03.45.04.68-13.52 1.46-27.04 2.92-40.8 4.41-.48 5.24-.95 10.31-1.44 15.7 14.82 2.65 29.41 5.25 43.99 7.85.01.26.02.52.02.78-7.06 1.35-14.13 2.66-21.18 4.06-2.62.52-5.3.99-7.79 1.91-4.2 1.55-5.75 4.56-4.41 8.76.8 2.51 2.04 4.98 3.56 7.14 8.56 12.16 17.27 24.21 25.72 36.63-5.34-2.54-11.34-3.5-15.8-7.91-6.99-6.91-14.17-13.63-21.35-20.51-1.35 1.09-1 2.35 0 4.4 1.98 4.05 4.25 8.36 4.6 12.71.56 7.05-.25 14.22-.7 21.32-.07 1.12-1.05 2.54-2.03 3.17-4.29 2.8-8.63 5.57-13.16 7.98-5.22 2.78-7.42 6.56-6.09 12.31.22.95 1.81 2.08 2.91 2.25 16.25 2.5 32.52 4.84 48.78 7.23.73.11 1.45.29 2.18.44.07.38.13.75.2 1.13-5.82 1.5-11.57 3.55-17.48 4.36-7.28 1-14.7.92-22.06 1.39-2.11.13-4.28.24-6.28.84-3.38 1.01-5.42 3.4-5.88 7.01-.82 6.53 1.76 12.24 4.16 18.27 15.42-2.43 30.64-4.81 45.56-7.14zm-53.17-59.06c4.17-2.67 7.95-5 11.6-7.5.71-.49 1.26-1.61 1.37-2.5 1.07-8.73 2.39-17.46 2.88-26.23.32-5.81-1.63-11.22-6.41-15.21-1.91-1.6-3.6-2.22-5.96-.72-2.44 1.54-5.12 2.73-7.77 3.91-1.59.71-2 1.58-1.75 3.36 1.37 9.62 2.56 19.27 3.84 28.9.69 5.16 1.42 10.32 2.2 15.99z"/><path d="m147.7 154.09c13.23 9.7 29.23 8.61 43.95 12.9-2.13.36-4.26.82-6.41 1.07-7.88.93-15.79 1.65-23.64 2.76-2.72.38-5.41 1.42-7.93 2.56-4.56 2.08-7.85 5.17-8.67 10.61-.74 4.93-2.23 9.74-4 14.59-1.66-6.31-3.42-12.6-4.93-18.94-.62-2.6-1.7-3.8-4.52-4.31-13.97-2.5-27.89-5.31-41.82-8.02-.76-.15-1.49-.42-2.66-.76 6.14-3.22 12.35-4.62 18.78-5.27 4.11-.41 8.27-.54 12.33-1.28 6.01-1.09 10.99-4.19 15.32-9.1-1.46-.63-2.72-1.18-3.99-1.71-9.8-4.08-19.6-8.15-29.4-12.23-10.3-4.3-14.22-11.04-12.01-22.1 1.18-5.87 3.43-11.53 5.3-17.26.29-.9.97-1.81 1.71-2.4 7.81-6.15 16.05-11.31 26.26-12.59 8.1-1.01 12.37-6.05 11.86-13.69-13.32-2.41-26.7-4.83-40.09-7.25-.06-.22-.11-.44-.17-.66 1.04-.3 2.07-.65 3.12-.89 11.46-2.54 22.9-5.12 34.38-7.54 2.24-.47 3.39-1.22 3.9-3.67 1.6-7.74 3.56-15.41 5.52-23.72 3.15 3.15 5.2 6.27 5.65 10.29.11 1 .04 2.01.04 3.02.01 8.15 1.26 9.95 8.79 12.52 10.87 3.72 21.75 7.42 32.63 11.12.01.3.02.59.04.89-3.54.53-7.07 1.24-10.63 1.53-5.01.41-10.05.47-15.08.73-7.72.4-12.34 4.35-13.5 11.79 6.9 2.31 13.86 4.66 20.83 6.98 11.01 3.66 17.96 12.57 17.73 24.21-.14 6.97-1.64 13.91-2.6 20.85-.53 3.88-2.94 6.48-6.3 8.1-5.42 2.6-10.91 5.06-16.45 7.41-5.01 2.15-10.08 4.16-13.34 9.46zm-42.23-32.72c1.16 2.49 2.2 4.84 3.36 7.13.44.87.99 1.99 1.78 2.31 4.73 1.95 9.43 4.24 14.37 5.4 6.91 1.62 9.39-1 8.37-8-.54-3.7-1.38-7.4-5.71-8.62-7.49-2.1-14.9-2.8-22.17 1.78zm-1.44-9.75c8.02-1.32 15.83-2.63 23.64-3.89 6.51-1.05 6.51-1.03 6.23-7.63-.27-6.31-6.07-9.4-11.57-6.12-4.98 2.97-9.92 6.02-14.88 9.03-4.47 2.7-4.54 2.86-3.42 8.61zm46.91-3.23c6.95 0 13.52 0 20.1-.01.41 0 .82-.15 1.23-.23-1.96-10.18-9.7-16.3-21.33-14.82zm-.01 26.63c6.66-3.04 13.03-5.92 19.36-8.88.43-.2.95-1.28.78-1.55-1.29-2.09-2.45-5.48-4.19-5.83-5.13-1.04-10.51-.86-15.95-1.16z"/><path d="m138.29 203.17c3.78 5.25 7.32 9.86 10.49 14.72 1.49 2.27 3.41 2.91 5.81 3.24 8.52 1.16 17.04 2.41 25.72 4.42-3.57.77-7.13 1.63-10.72 2.27-3.41.61-6.87.94-10.29 1.49-6.81 1.1-10.52 4.78-11.39 11.35 5.62 2 11.32 3.88 16.91 6.07 3.53 1.38 6.91 3.14 10.3 4.85 6.45 3.26 8.76 8.76 7.68 15.63-1.06 6.72-2.96 13.33-3.77 20.08-1.21 10.02-7.71 15-16.09 18.63-3.27 1.42-6.54 2.91-9.6 4.74-2.68 1.6-4.84 3.87-5.52 7.54 13.15 2.48 26.07 4.92 38.99 7.35.02.18.05.36.07.54-5.02.86-10.04 1.73-15.07 2.57-5.95 1-11.9 2.03-17.88 2.91-2.23.33-3.35 1.13-3.86 3.58-2.47 11.93-5.21 23.8-7.87 35.69-.16.72-.43 1.41-1.18 2.11-1.63-9.72-3.3-19.44-4.87-29.17-1.07-6.68-1-6.69-7.46-8.33-10.83-2.74-21.67-5.48-32.5-8.23-.93-.24-1.84-.55-2.44-.73 8.53-1.27 17.31-2.25 25.93-3.99 3.82-.77 7.42-2.9 10.92-4.79 1.31-.71 2.04-2.49 3.44-4.3-6.18-1.22-11.67-2.8-17.25-3.3-10.16-.91-15.76-7.3-17.19-16.1-1.86-11.4-1.72-23.13-2.29-34.73-.04-.87.96-1.93 1.7-2.68 3.99-4.08 7.97-8.18 12.13-12.08 1.21-1.14 2.95-2 4.58-2.35 4.37-.93 8.81-1.52 13.22-2.22 1.58-.25 3.05-.35 3.01-2.67-.04-1.96-.49-2.94-2.58-3.52-10.45-2.87-20.84-5.94-31.25-8.94-.5-.14-.99-.35-1.28-.45 6.89-.75 13.84-1.43 20.77-2.29 9.95-1.22 16.02-7.22 19.55-16.23.28-.71.59-1.4 1.13-2.68zm-21.29 75.45c-.27 0-.96.1-1.61-.02-3.1-.53-4.12.98-4.83 3.85-1.54 6.2 1.87 10.32 5.93 13.55 2.74 2.18 6.64 3.17 10.18 4 4.18.98 6.93-1.74 6.88-6.07-.13-11.16-3.07-14.31-14.15-15.11-.67-.03-1.33-.1-2.4-.2zm32.46 22c3.7-2.03 6.52-3.92 9.59-5.18 3.81-1.55 5.58-4.43 6.84-8.06 2.52-7.27.96-10.21-6.64-9.86-3.75.17-7.63 2.27-10.92 4.32-.96.6-.24 4.09-.07 6.24.3 4.06.76 8.1 1.2 12.54zm-36.48-28.32c6.23-2.08 11.88-3.78 17.38-5.86 3.14-1.19 2.78-4.47 3.11-7.12.29-2.31-.99-4-3.18-4.46-3.25-.68-6.83-1.93-9.81-1.15-2.81.73-6.33 3.32-7.18 5.87-1.23 3.7-.32 8.11-.32 12.72zm55.07-3.28c.37-10.05-6.13-15.78-17.26-15.29-.44 4.99-.88 10.03-1.34 15.29z"/></g><path d="m6.4 11.7c-1-.8-1.9-1.6-2.9-2.3l.6-.7c.9.7 1.9 1.4 2.9 2.2zm-2.1 8.3c.7-2.1 1.4-4.2 2-6.4.2.1.6.3 1 .4-.7 2.3-1.3 4.4-1.9 6.4zm3-12.8c-1.1-.9-2.1-1.7-2.9-2.4l.6-.7c1 .8 2 1.5 3 2.4zm1.4-1.3v-.9h10.2v.9c-.9 4.2-2.3 7.3-4.1 9.4 1.3 1.4 3.2 2.7 5.7 4-.2.2-.4.5-.7.9-2.5-1.4-4.4-2.7-5.7-4.2-1.4 1.5-3.5 3-6.1 4.4 0 0 0 0-.1-.1-.3-.4-.5-.7-.7-.8 2.7-1.3 4.7-2.8 6.2-4.2-1.8-2.2-3-5.3-3.7-9.4zm9.2 0h-7.1c.6 3.8 1.7 6.7 3.4 8.7 1.7-2 2.9-4.8 3.7-8.7z" fill="#fbfafa"/><path d="m31.6 3.6h.9v2.3h4.1v9.1h1.7v.9h-16.6v-.9h1.7v-9.1h4.1v-2.3h.9v2.3h3.1v-2.3zm-4 13.3.6.8c-1.9.9-3.8 1.9-5.8 2.8-.2-.3-.3-.6-.5-.9 2-.9 3.9-1.8 5.7-2.7zm-3.2-10.1v3.7h3.1v-3.7zm0 4.5v3.7h3.1v-3.7zm4.1-4.5v3.7h3.1v-3.7zm0 4.5v3.7h3.1v-3.7zm9.1 9.1c-2.1-1.1-4.1-2-5.8-2.7l.5-.8c2.2.9 4.1 1.8 5.8 2.6zm-1.9-13.6h-3.1v3.7h3.1zm-3.2 4.5v3.7h3.1v-3.7z" fill="#fbfafa"/></svg>