<svg enable-background="new 0 0 400 400" viewBox="0 0 400 400" xmlns="http://www.w3.org/2000/svg"><g fill="#fafafb"><path d="m12.4 4.8-6.1 9h6v1.2h-8v-.5l6.1-8.9h-5.7v-1.2h7.6v.4z"/><path d="m14 15v-10.6h3c1.6 0 2.9.5 4 1.4s1.6 2.2 1.6 3.8-.5 3-1.6 3.9-2.4 1.5-4 1.5zm1.4-9.4v8.2h1.6c1.3 0 2.4-.4 3.1-1.1s1.1-1.8 1.1-3.1-.4-2.3-1.2-3-1.8-1-3.1-1z"/><path d="m26.1 4.4v10.6h-1.4v-10.6z"/><path d="m36.1 14.6c-.8.4-1.8.6-2.9.6-1.5 0-2.7-.5-3.6-1.4s-1.4-2.2-1.4-3.8c0-1.7.5-3.1 1.5-4.1s2.3-1.6 3.9-1.6c1 0 1.8.1 2.5.4v1.4c-.8-.4-1.6-.6-2.5-.6-1.2 0-2.1.4-2.9 1.2s-1.1 1.8-1.1 3.2c0 1.3.3 2.3 1 3s1.6 1.1 2.7 1.1c1 0 2-.2 2.7-.7v1.3z"/><path d="m37.6 14.3c0-.2.1-.5.3-.6s.4-.3.6-.3c.3 0 .5.1.6.3s.3.4.3.6-.1.4-.3.6-.4.3-.6.3c-.3 0-.5-.1-.6-.3s-.3-.4-.3-.6z"/><path d="m50.2 15h-1.6l-5.3-8.2c-.2-.2-.3-.5-.4-.7 0 .2.1.7.1 1.5v7.4h-1.4v-10.6h1.7l5.2 8.1c.2.4.4.6.4.7 0-.3-.1-.8-.1-1.5v-7.3h1.4z"/><path d="m58.6 15h-5.7v-10.6h5.5v1.2h-4.1v3.4h3.8v1.2h-3.8v3.6h4.3z"/><path d="m67.1 5.6h-3.1v9.4h-1.4v-9.4h-3v-1.2h7.5z"/></g><path d="m283.22 192.52c2.04.31 4.32.66 7.07 1.08-1.32 3.13-2.54 6.04-3.75 8.93 5.04 2.38 5.42 2.73 2.26 7.4-3.47 5.13-2.26 10.43-1.12 15.51 1.41 6.29-1.5 11.34-3.38 16.74-.28.8-1.39 1.38-2.22 1.9-4.38 2.71-8.74 5.43-13.21 7.99-1.93 1.1-3.1 2.42-3.08 4.71.03 2.29-1.05 3.47-3.38 4.19-7.91 2.43-15.61 5.63-23.61 7.62-8.75 2.17-17.79 3.17-26.65 4.97-4.35.88-8.62 2.28-12.83 3.7-2.68.9-3.87 2.79-3.59 5.95.54 6.12.67 12.29.8 18.44.04 1.81.67 2.71 2.23 3.61 6.46 3.74 13.32 4.06 20.46 2.93 4.31-.68 8.63-1.28 12.97-1.73 6.66-.68 11.7 3.61 12.44 10.29.31 2.79-.42 5.03-3.34 5.66-6.97 1.5-13.95 3-20.99 4.08-6.47 1-12.85 2.09-18.29 5.95-1.43 1.02-2.94 2.7-3.29 4.32-1.4 6.53-2.39 13.15-3.48 19.74-.69 4.17-.98 8.44-2.03 12.51-.86 3.37-3.54 5.33-7.09 5.85-2.06.3-3.23-.22-3.7-2.61-2.31-11.85-4.91-23.64-7.18-35.49-.47-2.44-1.47-3.63-3.79-3.76-7.24-.4-14.47-.76-21.71-1.1-5.01-.24-10.09.04-15-.74-5.48-.87-9.86-3.98-12.82-9.28 9.9-2.71 19.59-5.37 29.28-8.03 7.33-2.01 14.65-4.07 22.02-5.96 1.81-.47 2.53-1.18 2.65-3.11.46-7.14 1.05-14.28 1.79-21.4.2-1.97-.5-2.79-2.18-3.47-5.63-2.29-11.29-2.53-17.03-.52-2.53.89-5 1.97-7.57 2.73-7.26 2.13-14.11 1.74-21.04-2.02-18.45-10.03-27.85-24.84-26.17-46.2 1.54-19.63 2.79-39.28 4.33-58.92.09-1.17 1.33-2.79 2.43-3.25 5.98-2.5 12.01-4.9 18.16-6.91 2.46-.8 5.31-.35 7.93-.76 1.9-.3 4.1-.61 5.51-1.73 5.92-4.73 12.03-7.7 20.09-6.74 3.94.47 8.27-1.27 12.26-2.54 2.42-.78 3.47-2.93 3.49-5.83.11-12.2.35-24.39.89-36.58.15-3.38-1.18-4.41-4.06-4.48-6.25-.15-12.54-.68-18.76-.27-12.34.81-24.64 2.15-36.96 3.27.02.29.04.57.06.86-.13-.17-.34-.33-.38-.52-1.68-7.52-1.36-8.02 5.93-10.75 10.73-4.02 22.03-4.73 33.25-5.99 4.65-.52 9.23-1.64 13.85-2.43 2.25-.38 3.06-1.66 3.22-3.89.89-12.16 1.9-24.32 2.89-36.47.67-8.24 1.36-16.47 2.04-24.67 6.87-.45 10.54 2.55 9.86 8.95-1.46 13.65 3.71 26.19 5.92 39.22.26 1.54.67 3.06 1 4.59 1.2 5.66 1.2 6 7.19 5.96 11.85-.09 23.69-.47 35.53-.98 6.92-.3 13.81-1.19 20.73-1.58 1.67-.09 3.63.41 5.06 1.29 2.78 1.73 2.54 4.18-.25 5.84-9.52 5.66-20.08 8.12-30.87 9.52-9.29 1.21-18.64 1.95-27.98 2.73-5.36.44-8.42 3.51-8.04 8.84.83 11.72 1.73 23.43 2.76 35.13.08.96 1.28 2.47 2.14 2.6 4.5.7 9.06 1.08 13.6 1.48 1.1.1 2.23-.14 3.34-.25 8.77-.89 16.87.32 24.74 5.04 11.4 6.83 23.37 12.72 35.12 18.97 5.11 2.71 7.73 6.9 6.88 12.6-.35 2.42-2.09 4.64-3.35 7.27zm-70.71 12.57c.06.29.11.57.17.86 10.32-1.77 20.69-3.23 30.93-5.39 8.23-1.74 11.94-8.04 13.51-15.78 1.59-7.83-1.33-12.73-8.96-15.16-1.38-.44-2.81-.76-4.24-.97-13.15-2.01-26.31-3.93-39.44-6.01-3.59-.57-6.57 1.3-7.13 4.93-1.5 9.61-3.01 19.22-4.52 28.82-.54 3.45 3.79 8.67 7.28 8.7 4.11.02 8.26 0 12.4 0zm-16.88 52.22c8-.7 15.48-1.04 22.86-2.06 11.57-1.6 22.44-5.12 31.4-13.14 6.22-5.56 6.47-14.77.21-20.3-2.31-2.04-5-3.93-7.84-5.03-4.97-1.92-9.9-3.13-15.41-.26-3.45 1.8-7.95 1.99-12.01 2.13-5.93.2-11.91-.38-17.18 3.09-.89.58-1.92 1.79-1.94 2.72-.14 10.62-.09 21.24-.09 32.85zm-18.78-52.3c.31-8.68.79-16.93.81-25.18.01-2.82-1.12-5.66-1.74-8.48-.54-2.45-1.95-3.03-4.4-2.47-6.42 1.46-12.91 2.61-19.35 4.03-3.36.74-6.95 1.23-9.9 2.82-6.38 3.44-12.47 7.44-18.54 11.42-1.11.73-2.05 2.34-2.27 3.67-1.06 6.33 1.96 11.27 6.11 15.59.91.95 2.64 1.6 3.97 1.56 5.92-.19 11.82-.67 17.73-1.06 9.01-.62 18.03-1.24 27.58-1.9zm.73 36.96c-.11 0-.23-.01-.34-.01 0-3.69.13-7.39-.04-11.07-.16-3.52-1.98-6.35-5.2-7.62-2.95-1.17-6.22-2.24-9.33-2.2-7.26.09-14.53.7-21.76 1.43-5.99.6-10.91 2.9-12.99 9.36-.76 2.36-2.67 4.33-3.86 6.58-.51.96-.89 2.26-.71 3.29 1.12 6.28 5.84 10.27 12.65 11.72 5.97 1.27 12.28 2.23 17.57 4.99 3.83 2 6.66 2.1 10.16.61.41-.17.86-.26 1.28-.41 3.85-1.43 9.09-1.83 11.16-4.6 2.1-2.81 1.07-7.96 1.41-12.07z" fill="#010105"/></svg>