<svg enable-background="new 0 0 400 400" viewBox="0 0 400 400" xmlns="http://www.w3.org/2000/svg"><g fill="#fafafb"><path d="m12.4 4.8-6.1 9h6v1.2h-8v-.5l6.1-8.9h-5.7v-1.2h7.6v.4z"/><path d="m14 15v-10.6h3c1.6 0 2.9.5 4 1.4s1.6 2.2 1.6 3.8-.5 3-1.6 3.9-2.4 1.5-4 1.5zm1.4-9.4v8.2h1.6c1.3 0 2.4-.4 3.1-1.1s1.1-1.8 1.1-3.1-.4-2.3-1.2-3-1.8-1-3.1-1z"/><path d="m26.1 4.4v10.6h-1.4v-10.6z"/><path d="m36.1 14.6c-.8.4-1.8.6-2.9.6-1.5 0-2.7-.5-3.6-1.4s-1.4-2.2-1.4-3.8c0-1.7.5-3.1 1.5-4.1s2.3-1.6 3.9-1.6c1 0 1.8.1 2.5.4v1.4c-.8-.4-1.6-.6-2.5-.6-1.2 0-2.1.4-2.9 1.2s-1.1 1.8-1.1 3.2c0 1.3.3 2.3 1 3s1.6 1.1 2.7 1.1c1 0 2-.2 2.7-.7v1.3z"/><path d="m37.6 14.3c0-.2.1-.5.3-.6s.4-.3.6-.3c.3 0 .5.1.6.3s.3.4.3.6-.1.4-.3.6-.4.3-.6.3c-.3 0-.5-.1-.6-.3s-.3-.4-.3-.6z"/><path d="m50.2 15h-1.6l-5.3-8.2c-.2-.2-.3-.5-.4-.7 0 .2.1.7.1 1.5v7.4h-1.4v-10.6h1.7l5.2 8.1c.2.4.4.6.4.7 0-.3-.1-.8-.1-1.5v-7.3h1.4z"/><path d="m58.6 15h-5.7v-10.6h5.5v1.2h-4.1v3.4h3.8v1.2h-3.8v3.6h4.3z"/><path d="m67.1 5.6h-3.1v9.4h-1.4v-9.4h-3v-1.2h7.5z"/></g><path d="m111.33 364.58c8.54-.71 16.86-1.4 25.65-2.12 0-8.5 0-16.74 0-25.25-3.39-.83-7.12-1.58-10.75-2.66-15.77-4.71-29.08-13.09-38.57-26.77-2-2.88-3.42-6.32-4.42-9.71-1.67-5.67-3.22-11.45-3.96-17.3-.52-4.11-.04-8.47.74-12.58.81-4.25 2.78-8.26 3.81-12.49 1.34-5.52 4.51-9.65 8.79-13.1 8.86-7.15 18.48-12.97 29.47-16.28 5.76-1.73 11.5-3.07 15.26 4.63 5.4-10.18 3.93-20.23 4.06-30.67-5.36 0-10.36.05-15.36-.01-15.11-.2-30.21-.41-45.31-.68-5.35-.1-7.11-1.23-8.48-5.22 7.1-2.53 14.45-3.61 21.91-4.15 15.16-1.1 30.33-2.14 45.48-3.39.98-.08 2.45-1.56 2.66-2.6 1.34-6.58.76-13.14-1.08-19.55-.25-.86-1.66-1.73-2.68-1.96-5.34-1.21-10.72-2.27-16.1-3.28-7.18-1.34-13.6-4.27-19.38-8.73-4.34-3.35-8.55-6.92-13.16-9.86-7.83-5-11.43-12.46-12.74-21.12-1.61-10.65-.82-21.2 2.88-31.42.23-.63.33-1.39.75-1.85 5.9-6.58 11.83-13.13 17.79-19.66.35-.38.98-.55 1.51-.7 11.81-3.37 23.41-7.59 35.85-8.25 4.74-.25 6.2-1.97 6.33-6.79.07-2.34.01-4.68.01-7.03-6.52-2.57-13-2.25-19.48-2.1-2.9.07-5.84.16-8.69-.28-3.83-.58-5.29-2.42-5.73-5.85 7.96-1.8 15.95-3.37 23.79-5.47 3.72-1 7.17-3.02 10.76-4.53.76-.32 1.75-.76 2.43-.53 11.79 3.87 23.92 2.53 35.97 2.51 2.75 0 5.62.41 8.2 1.3 1.58.55 2.71 2.38 4.42 3.98-7.4 3.69-14.32 5.24-21.49 5.88-1.33.12-2.68.09-4.03.13-9.01.26-14.42 8.82-10.62 17 .41.88 1.87 1.52 2.96 1.8 8.12 2.08 16.31 3.88 24.38 6.12 4.32 1.2 9.45 2.06 12.46 4.92 7.85 7.45 15.14 15.58 15.83 27.49.24 4.16 1.84 8.24 2.72 12.38.24 1.13.41 2.45.06 3.49-2.64 7.72-5.4 15.39-8.16 23.07-.29.82-.65 1.8-1.3 2.27-9.64 7.04-18.46 15.45-30.04 19.37-6.55 2.21-13.37 3.63-20.02 5.58-.98.29-2.32 1.47-2.42 2.35-.72 6.67-1.17 13.36-1.74 20.44 3.75.19 7.29.23 10.8.59 7.99.82 15.95 2.26 23.96 2.6 15.17.65 30.38 2.02 45.53-.85 4.24-.8 7.27-2.51 9.62-6.23 5.56-8.77 12.18-16.5 21.47-21.74 4.34-2.45 5.3-7.29 5.87-11.92.9-7.37-1.11-14.2-4.23-20.75-1.92-4.03-4.23-7.89-6.01-11.98-1.18-2.72-1.97-5.68-2.43-8.62-.22-1.37.77-2.93 1.42-5.12 5.9 6.33 9.92 12.71 13.31 19.5 3.41 6.83 6.9 13.6 13.01 18.51 1.88 1.51 3.89 2.85 6.22 4.55 1.23-9.16 2.43-17.66 3.47-26.18.2-1.62-.22-3.34-.45-4.99-.48-3.5 1.08-6.28 4.83-5.87 1.52.17 3.1-.24 4.89-.41 3.5 5.89 3.47 12.23 2.68 18.76-.73 5.99-1.48 11.99-1.77 18-.27 5.59 1.04 6.77 6.57 7.46 1.33.17 2.68.3 3.97.64 3.1.81 5.35 2.58 6.33 6.2-5.63.94-11.08 1.86-16.81 2.82-.68 8.77-1.37 17.45-2.02 26.13-.79 10.49-1.44 20.99-2.38 31.47-.2 2.25.33 3.61 2.18 4.67 1.16.67 2.26 1.44 3.37 2.2 3.93 2.71 4.03 7.32-.15 9.5s-5.95 4.97-6.18 9.85c-.57 11.72-1.89 23.41-2.95 35.11-.12 1.32-.46 2.62-.75 4.17-3.25-.22-6.34-.43-9.85-.66-.06-1.2-.16-2.37-.16-3.55-.01-12.43 0-24.85-.01-37.28 0-3.92-1.29-4.76-4.65-2.84-1.81 1.04-3.58 2.32-5.02 3.81-5.76 5.95-11.26 12.16-17.11 18.02-3.6 3.61-5.85 7.84-7.44 12.55-.32.95-.59 1.94-1.07 2.82-1.07 1.98-5.97 4.35-7.49 3.06-1.21-1.03-1.96-3.88-1.44-5.43 1.79-5.37 3.79-10.77 6.52-15.71 4.95-8.96 9.38-18.32 17.23-25.4 2.72-2.45 2.21-8.16-.46-10.76-7.13-6.96-14.19-13.99-21.46-20.79-1.29-1.21-3.44-2.06-5.22-2.1-24.61-.5-49.23-.83-73.85-1.21-2.24-.03-4.5.03-6.7-.26-3.02-.41-4.55.98-5.45 3.64-2.24 6.66-.75 13.29.17 19.91.08.58 1.44 1.23 2.29 1.41 7.34 1.5 14.65 3.16 22.05 4.29 22.35 3.42 36.07 22.55 38.64 41.38 1.36 9.96.44 19.62-2.69 29.13-.84 2.54-1.82 5.12-2.12 7.75-.93 7.98-6.05 12.71-12.42 16.39-13.11 7.55-27.06 12.81-42.21 14.33-3.33.33-4.49 1.47-4.57 4.89-.14 5.92-.78 11.84-1.49 17.72-.27 2.22.45 3.12 2.44 3.42 4.75.72 9.51 1.38 14.24 2.19 1.51.26 3.32.51 4.34 1.47 1.04.98 1.74 2.84 1.67 4.26-.05.94-1.6 2.27-2.72 2.6-12.47 3.77-25.16 3.71-37.88 1.56-5.07-.85-10.04-2.23-15.11-3.06-3.56-.62-5.24-2.53-5.59-6.39zm38.85-104.38c.24.03.49.07.73.1 0 1.45-.07 2.91.01 4.36.68 11.51-.15 12.51 13.16 11.93 5.73-.25 11.08.01 16.36 2.16.97.39 2.5.85 3.13.4 4.83-3.45 9.86-3.7 15.48-2.25 2.83.73 5.01-1.53 4.81-4.07-.75-9.33-3.67-17.78-10.94-24.1-10.49-9.12-23.01-13.01-36.7-13.41-.91-.03-2.54 1.44-2.71 2.41-1.26 7.46-2.25 14.97-3.33 22.47zm-9.47-23.91c-3.12-.33-5.91-1.12-8.6-.84-11.84 1.25-22.42 5.78-31.82 13.08-5.71 4.43-9.62 16.65-7.58 23.59.53 1.79 1.37 2.84 3.45 2.93 10.48.47 20.96 1.25 31.45 1.5 3.61.08 7.29-.93 10.87-1.74.87-.2 2.12-1.53 2.13-2.35.15-11.85.1-23.69.1-36.17zm10.52 70.27h.48c0 5.03.05 10.06-.02 15.09-.03 2.1.67 3.18 2.9 2.92 4.64-.54 9.32-.87 13.93-1.63 11.04-1.82 20.32-7.15 28.33-14.82.69-.67 1.34-1.53 1.65-2.43 1.73-5.07 3.27-10.2 5.03-15.26.83-2.39-.46-3.4-2.31-3.94-1.14-.33-2.43-.14-3.66-.14-7.35.01-14.71.1-22.06.04-7.03-.06-14.07-.61-20.92 1.68-2.38.79-3.67 1.83-3.44 4.75.35 4.56.09 9.16.09 13.74zm-33.67-200.61c.02.21.04.41.06.62 5.87-.56 11.8-.75 17.58-1.79 6.29-1.14 6.7-2.02 7.18-8.24.13-1.67.35-3.35.31-5.02-.09-4.46.05-8.96-.55-13.36-.76-5.6-3.92-7.98-9.47-7.49-4.21.37-8.43.96-12.57 1.85-11.54 2.49-20.57 9.36-29.23 16.93-3.27 2.86-4.11 6.54-4.49 10.42-.26 2.65.92 4.22 4.08 4.36 9.05.4 18.07 1.12 27.1 1.72zm-30.02 10.84c4.73 8.95 15.65 20.85 22.62 25.14.28.17.59.32.9.44 6.56 2.52 13.07 5.2 19.72 7.45 2.45.83 5.25.82 7.89.8 2.55-.02 3.82-1.38 3.18-4.19-.35-1.51-.25-3.11-.37-4.67-.63-8.21-1.26-16.42-1.91-24.85-14.83-.66-29.32-1.4-43.82-1.85-2.55-.09-5.14 1.05-8.21 1.73zm51.32 171.56c-13.57-.48-26.72-1.13-39.89-1.34-6.17-.1-8.09 3-5.89 8.68.83 2.16 1.9 4.34 3.32 6.15 7.91 10.08 17.8 17.48 30.03 21.59 3.52 1.18 7.06 1.53 10.34-.47.95-.58 1.98-1.98 1.99-3.02.16-10.4.1-20.79.1-31.59zm14.67-149.95c.17.04.34.09.51.13.21 3 .45 6.01.63 9.01.15 2.57 1.47 3.36 3.97 3.14 11.16-.95 21.14-5.02 30.64-10.8 6.89-4.18 9.29-10.79 11.03-17.95.2-.83 0-1.77-.08-2.65-.16-1.7-.98-2.43-2.84-2.48-11.84-.33-23.68-.64-35.5-1.28-3.19-.17-4.61 1.15-5.1 3.79-1.2 6.36-2.19 12.73-3.26 19.09zm4.45-34.22c8.35.23 15.92.72 23.47.53 4.97-.13 9.93-1.21 14.88-1.93 1.85-.27 2.45-1.37 2.29-3.31-.54-6.76-3.29-12.44-7.9-17.32-7.47-7.9-17.53-9.39-27.49-10.83-3.68-.53-5.5 1.79-5.39 5.62.04 1.34.13 2.68.13 4.02.01 7.58.01 15.16.01 23.22zm101.71 81.23c9.05.36 18.18.3 27.11-2.29.69-.2 1.75-.63 1.84-1.11 1.18-6.02 2.81-12.11.35-18.12-.49-1.19-2.49-2.59-3.72-2.52-6.43.31-12.27 2.35-16.77 7.28-2.11 2.32-4.1 4.77-6.38 6.9-2.86 2.66-4.42 5.53-2.43 9.86zm27.77 11.58c-7.93-.66-16.03-1.42-24.13-1.98-3.82-.26-5.62 1.62-4.64 5.17.71 2.57 2.04 5.22 3.82 7.2 2.13 2.37 5.31 3.77 7.5 6.09 4.81 5.09 10.93 4.5 17.45 4.85 0-7.11 0-14 0-21.33z" fill="#010105"/></svg>