<svg enable-background="new 0 0 400 400" viewBox="0 0 400 400" xmlns="http://www.w3.org/2000/svg"><path d="m275.28 320.58c-3.61-.33-5.74-1.89-7.5-4.51-4.75-7.05-10.21-13.66-14.48-20.97-5.59-9.57-9.31-19.87-7.13-31.35.58-3.03-.98-3.83-3.72-4.06-9.11-.76-18.2-1.74-27.3-2.61-3.12-.3-6.26-.4-9.35-.85-1.97-.29-2.73.65-2.98 2.24-.29 1.87-.74 3.83-.48 5.66 1.38 9.76-.72 19.12-2.76 28.53-.68 3.14-.81 6.41-.97 9.63-.13 2.59-1.15 4.4-3.93 5.75-.22-2.86-.47-5.36-.6-7.86-.52-10.51-1.07-21.01-1.45-31.52-.12-3.22.03-6.5.53-9.68.46-2.97-.5-4.84-3.2-5.73-3.28-1.07-6.63-1.94-9.97-2.83-3.92-1.05-7.81-2.1-9.8-6.86 4.43 0 8.57.01 12.71 0 2.66-.01 5.33.08 7.99-.09 1.76-.11 2.22-1.25 2.17-3.05-.11-4.11.31-8.23.13-12.33-.35-8.02-.96-16.02-1.48-24.03-.04-.67-.5-1.45-.28-1.97 3.63-8.51.06-17.28 1.01-25.88 1.11-10.11 2.07-20.24 3.02-30.37.5-5.34.74-10.72 1.3-16.05.23-2.18-1.04-2.97-2.58-3.2-4.18-.62-8.62-1.98-12.57-1.16-5.98 1.24-11.52-.36-17.25-.69-.56-.03-1.13-.1-1.65-.27-6.39-2.17-12.12 1.7-18.25 2-.73.04-1.4 1.01-2.12 1.53-3.31 2.43-6.66 4.78-9.9 7.3-1.09.85-2.25 1.96-2.7 3.19-1.11 3.03-3.26 4.34-6.22 4.83-12.11 2-23.81 1.01-34.91-4.63-4.18-2.13-8.42-4.14-12.58-6.31-4.4-2.3-5.55-4.84-4.22-8.84 8.04-.5 14.95 2.91 21.88 6.27 3.72 1.8 7.42 3.64 11.16 5.4 4.42 2.09 8.98 2.56 13.69 1.01 1.27-.42 2.62-.98 3.9-.91 5.45.31 9.04-2.37 11.59-6.83 4.32-7.58 10.63-11.45 19.46-12.6 7.06-.92 13.78.66 20.66.67 2.1 0 4.21-.1 6.31-.17 3.1-.1 6.2-.3 9.3-.29 2.48.01 5.92 1.49 6.79-1.6.72-2.56-.19-5.83-1.13-8.53-.65-1.86-2.57-3.29-3.99-4.99-1.13.78-2.12 1.47-3.86 2.68.67-8.22 1.3-15.85 1.93-23.49.28-.12.55-.24.83-.36.97 1.07 2.72 2.09 2.79 3.21.46 7.56 5.29 12.91 9.12 18.72 1.99 3.01 3.14 5.99 3.09 9.64-.06 4.83.89 5.09 5.75 5.59 10.55 1.1 21.06 2.64 31.56 4.09.89.12 1.72.93 2.51 1.52 11.48 8.53 22.84 17.23 34.48 25.54 4.72 3.37 10.51 2.3 15.97 2.22 3.11-.05 6.31-.26 9.3.39 2.18.47 4.08 2.23 6.56 3.68-6.01 4.31-11.89 4.45-18.02 4.2-12.71-.53-22.99-6.73-32.89-13.71-6.94-4.89-13.46-10.39-20.27-15.48-1.23-.92-2.98-1.57-4.5-1.6-8.62-.15-17.24 0-25.85-.13-2.1-.03-3.21.66-3.41 2.65-.59 5.88-1.08 11.77-1.67 17.66-.94 9.35-2.28 18.67-2.79 28.04-.36 6.66-.04 13.42.68 20.06 1.42 13.12-.05 26.15-.49 39.21-.04 1.12-.16 2.23-.21 3.35-.28 5.9 1.77 8.23 7.77 8.5 5.92.26 11.87.06 17.77.53 7.64.61 15.24 1.77 22.88 2.49 2.28.21 4.62-.29 6.2-.41.5-1.21.67-2.3 1.28-3.03 6.47-7.82 13.01-15.58 19.52-23.37.28-.34.39-.92.74-1.1 6.76-3.68 5.89-9.6 4.68-15.65-.08-.41-.01-.85-.01-1.82 3.1.55 6.17.69 8.86 1.77 1.18.48 2.3 2.92 2.23 4.41-.25 5.34 2.29 9.36 5.13 13.48 7.52 10.95 15.55 21.62 19.91 34.42.29.85 1.37 1.82 2.25 2.03 4.56 1.07 9.17 1.91 14.55 2.99.63-8.31 1.12-16.29 1.86-24.25.54-5.76 1.26-11.51 2.23-17.2.24-1.4 1.79-2.58 2.74-3.86.39.16.78.32 1.18.48.37 5.53.77 11.06 1.1 16.59.54 9.05 1.1 18.09 1.5 27.15.1 2.3.68 3.31 3.22 3.46 5.69.35 11.35 1.08 17.02 1.7.99.11 2.15.15 2.88.69 1.09.81 1.87 2.05 2.78 3.1-.94.79-1.79 2.1-2.84 2.28-4.13.69-8.31 1.16-12.49 1.45-1.98.14-4-.44-6.01-.49-4.02-.1-6.03 1.64-5.7 5.52.69 8.12-1.29 15.75-3.73 23.32-.61 1.9-1.12 4.33-4.5 3.27 3.27-10.06 1.37-19.94-.81-29.76-.21-.95-1.44-2.17-2.4-2.39-6.07-1.39-12.22-2.43-18.29-3.83-1.79-.41-2.94-.29-4.01 1.23-1.09 1.55-2.51 2.89-3.53 4.48-7.05 11.02-17.72 18.7-26.45 28.18-3.02 3.27-4.27 6.37-5.07 10.22-.36 1.73-.77 3.45-1.2 5.35zm-6.37-17.55c.64-1.67 1.32-2.83 1.51-4.06 1.43-9.59 2.67-19.2 4.19-28.77.36-2.27-.32-3.44-2.26-4.08-2.85-.95-5.71-1.93-8.62-2.68-5.75-1.48-10.67 3.09-9.78 8.98 1.59 10.54 6.74 19.53 12.41 28.28.5.78 1.4 1.3 2.55 2.33zm22.28-75.39c-.88 1.75-1.64 2.8-1.97 3.97-1.06 3.75-2.03 7.53-2.9 11.34-.74 3.25-1.34 6.53-1.87 9.82-.32 1.96.62 3.32 2.62 3.53 6.17.66 12.35 1.29 18.54 1.74 1.2.09 2.45-.67 4.15-1.18-6.34-9.63-9.5-20.68-18.57-29.22zm-8.79 61.45c1.25-.51 1.9-.58 2.24-.94 4.73-4.99 9.53-9.93 14.07-15.1 1.53-1.74.16-3.28-1.71-3.67-2.82-.6-5.71-1.07-8.58-1.13-1.75-.04-4.47.25-5.09 1.34-1.15 2.04-1.95 4.77.23 7.12.43.46.68 1.78.38 2.1-2.87 3-.78 6.51-1.54 10.28zm-4.23-48.36c-3.52 4.01-6.69 7.62-9.91 11.29 3.41 2.02 7.84 2.32 8.56.41 1.33-3.48 2.94-7.13 1.35-11.7z" fill="#010100"/><path d="m46.61 309.72c.37-4.65 1.05-9.09 1-13.52-.07-6.79-.67-13.57-1-20.36-.11-2.23-1.69-3.03-3.37-2.78-3.6.53-7.22 1.23-10.66 2.37-5.37 1.77-9.08-.35-10.03-6.41 6.75-1.4 13.46-3.12 20.28-4.09 3.94-.56 4.98-2.23 5.17-5.95.46-9.03 1.27-18.05 2.2-27.05.32-3.08 1.14-6.19 2.28-9.07.55-1.38 2.28-2.49 3.73-3.18.34-.16 2.34 1.72 2.51 2.83.82 5.13 1.75 10.32 1.72 15.49-.04 7.36-.89 14.72-1.37 22.08-.07 1.08-.01 2.18-.01 3.66 3.74 0 7.07.1 10.39-.08.68-.04 1.54-1.03 1.91-1.79 2.36-4.77 4.16-9.88 6.99-14.35 9.72-15.34 22.81-27.79 35.71-40.35 1.74-1.69 6.28-.35 7.56 2.81 6.87 17.02 18.24 32.06 21.99 50.45 1.01 4.97 1.67 4.98 6.62 3.95 1.01-.21 3.02.64 3.34 1.47 1.69 4.41 4.66 7.22 9.11 8.61.41.13.9.37 1.12.71.7 1.06 1.28 2.19 1.91 3.3-1.17.53-2.31 1.33-3.54 1.51-1.28.2-2.66-.3-3.99-.27-.82.02-2.06.19-2.39.73-2.64 4.33-3.19 1.12-3.83-1.05-.77-2.62-2.08-3.98-5.06-4.37-3-.39-3.9 1.27-5.13 3.18-11.41 17.74-8.09 15.82-29.19 23.91-4.27 1.64-8.41 3.63-12.71 5.21-.92.34-2.65-.01-3.31-.71-4.62-4.87-9.08-9.89-13.52-14.92-.71-.8-1.13-1.88-1.61-2.87-.24-.49-.32-1.07-.49-1.6-3.85-11.97-8.36-14.8-20.77-12.85-.84.13-1.99 1.18-2.19 1.99-.51 2.14-.93 4.42-.73 6.58.43 4.7-.21 9.03-2.3 13.33-1.55 3.18-2.43 6.69-3.53 10.08-.67 2.12-1.73 3.6-4.81 3.37zm72.55-84.97c-1.43 12.17-2.9 24.04-4.11 35.93-.13 1.31 1.15 3.96 1.85 3.98 5.65.23 11.32.08 16.97-.2 1.9-.09 2.55-1.66 2.1-3.46-.9-3.56-1.57-7.22-2.9-10.61-1.96-4.98-4.28-9.83-6.73-14.59-1.87-3.63-4.15-7.05-6.28-10.55-.15-.22-.53-.3-.9-.5zm-13.39 5.56c-11 8.83-17.66 19.64-24.99 29.86-1.1 1.54-.96 4.56 1.72 4.78 5.73.45 11.51.39 17.26.14.95-.04 2.41-1.96 2.62-3.18 1.29-7.6 2.38-15.24 3.34-22.88.32-2.56.05-5.19.05-8.72zm5.15 62.01c9.54-.93 16.85-4.37 21.71-12.24 1.81-2.93 1.54-4.65-1.68-4.78-5.62-.22-11.27.34-16.9.79-.77.06-2 1.25-2.09 2.02-.48 4.52-.69 9.07-1.04 14.21zm-24.64-14.12c3.64 6.48 7.31 13.03 10.96 19.54 1.78-.58 3.21-.91 4.51-1.52.69-.32 1.68-1.15 1.65-1.71-.22-5.21-.55-10.42-1.07-15.61-.09-.9-1.16-2.35-1.9-2.43-4.73-.55-9.69-2.31-14.15 1.73z" fill="#010100"/><g fill="#fcfafa"><path d="m342.2 3.2-6.3 9.2h6.1v1.2h-8.2v-.5l6.2-9.1h-5.7v-1.2h7.8v.4z"/><path d="m344 13.7v-10.9h3.1c1.6 0 3 .5 4.1 1.4 1.1 1 1.6 2.2 1.6 3.9s-.5 3-1.6 4-2.5 1.5-4.2 1.5h-3zm1.4-9.6v8.4h1.6c1.4 0 2.5-.4 3.2-1.1.8-.8 1.2-1.8 1.2-3.2s-.4-2.4-1.2-3.1-1.8-1-3.1-1z"/><path d="m356.3 2.8v10.9h-1.4v-10.9z"/><path d="m366.6 13.2c-.8.4-1.8.6-3 .6-1.6 0-2.8-.5-3.7-1.5s-1.4-2.3-1.4-3.9c0-1.7.5-3.2 1.6-4.2s2.4-1.6 4-1.6c1 0 1.9.1 2.6.4v1.5c-.8-.4-1.6-.6-2.6-.6-1.2 0-2.2.4-3 1.2s-1.1 1.9-1.1 3.3c0 1.3.4 2.3 1.1 3.1s1.6 1.1 2.8 1.1c1.1 0 2-.2 2.8-.7v1.3z"/><path d="m368.2 13c0-.3.1-.5.3-.6.2-.2.4-.3.6-.3.3 0 .5.1.7.3s.3.4.3.6-.1.5-.3.6c-.2.2-.4.3-.7.3s-.5-.1-.6-.3c-.2-.2-.3-.4-.3-.6z"/><path d="m381.1 13.7h-1.7l-5.5-8.4c-.2-.2-.3-.5-.4-.7 0 .2.1.8.1 1.5v7.6h-1.4v-10.9h1.8l5.3 8.3c.3.4.4.6.4.8 0-.3-.1-.8-.1-1.6v-7.5h1.4v10.9z"/><path d="m389.7 13.7h-5.8v-10.9h5.6v1.2h-4.2v3.5h3.9v1.2h-3.9v3.7h4.4z"/><path d="m398.4 4.1h-3.1v9.6h-1.4v-9.6h-3.1v-1.3h7.7v1.3z"/></g></svg>