<svg enable-background="new 0 0 400 400" viewBox="0 0 400 400" xmlns="http://www.w3.org/2000/svg"><path d="m122.83 208.01c3.15-1.18 4.46.2 6.17 2.46 9.03 11.96 18.19 23.83 27.68 35.42 5.31 6.48 11.35 12.36 17.06 18.51.38.41.76.84 1.21 1.16 1.69 1.2 14.69-.98 15.82-2.73 2.53-3.92 4.57-7.99 3.2-12.9-.21-.74-.23-1.55-.26-2.33-.2-5.44-1.91-10.26-4.62-15.08-2.7-4.8-3.99-10.39-6.01-15.59-1.17-3.01-2.35-6.05-3.91-8.87-3.27-5.94-7.57-10.38-14.78-11.96-6.84-1.49-13.46-4.09-20.07-6.5-12.34-4.49-25.04-7.49-38.03-9.23-2.07-.28-3.1-1.07-3.68-3.06-1.41-4.8-3.03-9.54-4.54-14.24 4.85-3.77 9.93-5.65 15.99-4.17 2.48.6 5.1.68 7.66.88.71.06 1.87-.08 2.1-.52 1.38-2.56 3.71-2.04 5.89-2.08 9.39-.17 18.78-.24 28.16-.6 1.91-.07 3.93-.96 5.63-1.93 3.62-2.07 4.12-5.78 2.09-9.4-2.01-3.58-3.51-7.45-5.21-11.2-1.33-2.94-2.26-6.12-4-8.79-3.04-4.68-7.1-7.94-13.25-7.55-11.26.71-22.64.56-33.77 2.15-6.92.99-13.5 4.48-20.19 6.96-6.16 2.29-8.06 1.53-10.29-4.9-2.18-6.27-2.27-12.76-1.09-19.22.21-1.16 1.61-2.25 2.69-3.08 10.88-8.36 24.21-11.23 36.6-16.21 14.89-5.99 30.54-9.31 45.95-13.49 6.23-1.69 12.19-4.36 18.33-6.39 1.69-.56 3.61-.41 5.43-.58.1.36.21.72.31 1.08 1.44-1.37 2.87-2.74 4.46-4.25 1.08.74 2.14 1.47 3.33 2.28 2.23-4.39 6.15-5.76 10.48-7.13 16.39-5.2 32.62-10.87 48.96-16.22 12.95-4.24 25.93-8.38 38.96-12.37 6.27-1.92 11.59.73 13.19 7.13 1.17 4.68.95 9.72 1.25 14.6.08 1.32-.33 2.67-.32 4.01.06 9.16-6.47 13.99-12.59 19.03-.62.51-2.13.22-3.14-.05-4.97-1.32-9.93-2.67-14.83-4.2-2.11-.66-3.95-.42-5.07 1.33-3.03 4.77-6.34 9.47-8.57 14.62-2.74 6.33-4.85 13-6.59 19.69-1.6 6.16-4.21 11.71-7.36 17.15-.84 1.45-1.17 3.6-.85 5.25 2.04 10.55 2.12 10.54 11.82 17.6 5.23-9.94 12.72-18.06 21.07-25.35 4-3.5 8.59-6.38 13.13-9.2 1.3-.81 3.38-.66 5.06-.48 2.09.23 4.11 1.23 6.2 1.4 5.46.44 8.8 3.73 11.63 7.93 1.77 2.63 1.63 5.39-.8 7.45-8.79 7.45-17.67 14.81-26.5 22.21-6.82 5.71-13.13 11.89-17.23 19.91-.66 1.29-.8 3.26-.33 4.62 2.45 7.19 5.17 14.29 7.8 21.42.19.52.26 1.18.62 1.54 4.96 5.02 5.17 11.31 5.14 17.82-.01 2.71.66 5.62 1.77 8.1 4.16 9.23 6.12 18.65 5.34 28.9-.79 10.25-.38 20.58-.61 30.87-.04 1.73-.46 3.54-1.1 5.15-2.26 5.72-4.75 11.34-7.03 17.05-2.54 6.35-6.02 12.03-10 17.66-6.03 8.54-10.65 18.05-16.14 26.99-4.9 7.98-10.02 15.84-15.35 23.54-3.28 4.74-8.18 5.96-13.7 4.59-7.91-1.95-15.73-4.58-23.75-5.72-6.29-.89-11.64-2.93-16.84-6.44-3.85-2.6-8.17-4.72-12.56-6.27-15.32-5.41-25.14-15.78-30.54-31.08-5.09-14.41-9.52-28.86-10.27-44.24-.11-2.2-.61-4.44-1.3-6.54-2.49-7.65-5.25-15.21-7.66-22.88-.99-3.16-1.72-6.5-1.91-9.8-.69-11.14-1.06-22.32-1.54-33.64zm87.31-18.74c0 .66-.07 1.1.01 1.52 2.32 12.53 4.84 25.03 6.9 37.61.75 4.55 2.89 7.75 5.77 11.22 4.35 5.24 9.36 6.3 15.64 5.68 10.71-1.06 18.2-5.95 22.01-16.28 2.59-7.01 3.96-14.19 4.14-21.63.17-7.1-1.38-13.74-5.07-19.87-1.84-3.06-4.46-5.37-7.87-5.76-5.41-.62-11.14-1.6-16.32-.49-8.57 1.84-16.8 5.24-25.21 8zm29.82-92.93c-.62-1.56-1.03-3.47-2.05-4.97-2.42-3.58-10.43-6.11-14.57-4.63-9.04 3.25-18.27 6.12-26.96 10.15-7.54 3.49-14.42 8.39-21.64 12.59-2.91 1.69-2.94 4-.92 6 4.01 3.98 8.11 7.97 12.64 11.33 6.73 4.98 13.84 9.46 20.87 14.02.98.64 2.7 1.14 3.61.72 4.09-1.91 8.28-3.8 11.91-6.43 3.03-2.19 5.43-5.31 7.9-8.2 1.11-1.3 2.01-2.94 2.49-4.58 1.85-6.44 3.51-12.93 5.21-19.42.53-2.05.95-4.12 1.51-6.58zm8.66 196.2c-.27-.15-.54-.31-.82-.46-.04-.67-.13-1.34-.1-2.01.31-6.54-7.82-12.78-14.14-7.56-2.21 1.82-5 2.94-7.49 4.44-.74.45-1.68.97-1.98 1.68-1.76 4.22-3.75 8.4-4.91 12.8-1.35 5.08 1.54 8.54 6.63 9.18 4.26.53 8.02-.43 11.21-3.26 2.59-2.3 5.31-4.54 7.45-7.21 1.77-2.23 2.79-5.05 4.15-7.6zm-49.4 19.76c-.9-6.04-1.22-11.85-2.78-17.31-.84-2.94-3.46-5.64-5.88-7.79-2.88-2.55-5.57-1.73-7.62 1.63-.57.94-.95 2.01-1.35 3.05-2.25 5.95-.07 11.33 1.98 16.83 1.37 3.66 3.36 5.42 7.43 4.48 2.26-.53 4.65-.53 8.22-.89z" fill="#010102"/><g fill="#fcfbfa"><path d="m377.9 391.2c-.2.3-.4.5-.6.8-.7-.6-1.4-1-2.2-1.5.2-.3.4-.5.5-.8.6.4 1.4.8 2.3 1.5zm-1.8 6.1c-.2-.2-.5-.4-.9-.6.4-.6.8-1.2 1.2-1.9s.7-1.3.9-1.9c.3.3.5.5.8.7-.7 1.3-1.4 2.6-2 3.7zm2.2-9c-.3.3-.5.5-.6.8-.6-.6-1.3-1.1-2-1.5.3-.3.5-.5.6-.7.6.5 1.3.9 2 1.4zm.3.2v-.9h2 4.5c-.3 1.3-.6 2.5-1 3.6s-.9 2.1-1.4 3c.4.5 1 1 1.6 1.4s1.2.8 1.9 1.1c-.3.2-.5.4-.8.8-.4-.3-1-.7-1.6-1.2s-1.2-1.1-1.6-1.6c-.5.6-1.1 1.1-1.7 1.6s-1.4.9-2.1 1.4c-.1-.3-.3-.5-.7-.8.6-.2 1.2-.5 1.9-1s1.4-1.1 2-1.8c-.5-.8-.9-1.6-1.2-2.5s-.6-2-.8-3.2c-.4.1-.7.1-1 .1zm2.5 2.7c.3 1 .7 1.7 1 2.2.3-.5.6-1.1 1-2s.6-1.9.9-3h-3.2-.4c.1.9.3 1.8.7 2.8z"/><path d="m396.5 388.5v1.5 3.6h1.5v.9c-.4 0-1 0-1.7 0h-7.9c-.5 0-.9 0-1.2 0v-.9h1.3v-3.5c0-.7 0-1.2 0-1.6h2.4c0-.8 0-1.4 0-1.7h1c0 .3-.1.8-.1 1.7h1.5c0-.8 0-1.4 0-1.7h1c0 .3-.1.9-.1 1.7zm-8.2 9.2c-.2-.3-.5-.5-.8-.8.8-.3 1.4-.6 1.9-.9s1-.7 1.4-1.1c.3.3.6.5.9.8-1.6 1-2.8 1.6-3.4 2zm2.6-6.8v-1.6h-1.5v1.6zm0 2.7v-1.9h-1.5v1.9zm2.4-2.7v-1.6h-1.5v1.6zm0 2.7v-1.9h-1.5v1.9zm.2 2 .7-.8c.4.2.9.5 1.6.8s1.3.7 1.8 1c-.3.3-.5.5-.8.8-.4-.3-1.5-1-3.3-1.8zm2-4.7v-1.6h-1.4v1.6zm0 2.7v-1.9h-1.4v1.9z"/></g></svg>