<svg enable-background="new 0 0 400 400" viewBox="0 0 400 400" xmlns="http://www.w3.org/2000/svg"><path d="m44.79 238.29c18.34-5.18 36.15-10.89 54.3-15.11 14.01-3.26 28.45-4.65 42.69-6.87 3.09-.48 6.22-.8 9.28-1.45 4.93-1.06 7.87-4.82 7.85-9.88 0-.83-.26-1.78-.71-2.46-6.68-10.2-13.33-20.42-20.2-30.49-2-2.93-4.5-5.59-7.12-7.98-.92-.84-3.34-1.21-4.34-.6-9.12 5.58-19.02 7.94-29.6 8.38-9.61.4-19.18 1.55-28.79 1.88-13.67.46-22.89-6.89-29.73-17.96-.87-1.41-1.61-2.91-2.78-5.05 3.01 0 5.51-.18 7.98.03 10.8.9 20.94-1.4 31.13-4.96 24.38-8.53 48.87-16.76 73.51-24.47 7.37-2.3 15.42-2.38 23.12-3.65 8.58-1.42 17.14-2.99 25.67-4.65 1.71-.33 3.33-1.29 4.91-2.12 5.03-2.66 8.61-5.99 7.56-12.6-1.44-9.03 2.78-16.32 7.68-23.54 2.07-3.05 2.47-7.27 3.44-11 .36-1.38.19-2.89.26-4.35.33-6.84.13-6.96-6.78-8.24-13.95-2.57-26.3 1.81-38.01 8.73-8.38 4.95-16.51 10.32-26.27 12.32-14.49 2.97-28.02.63-40.48-7.35-4.89-3.14-9.69-6.45-14.32-9.96-3.82-2.89-6.7-6.51-6.54-11.8 2.97-.58 5.24-.32 7.62 1.67 6.59 5.49 14.61 6.01 22.29 3.84 11.59-3.26 23.12-7.03 34.21-11.66 12.99-5.43 26.26-9.71 40.12-11.56 7.43-.99 15.28-.62 22.72.53 10.9 1.68 21.79 3.99 32.34 7.17 14.03 4.23 19.52 14.5 15.93 28.66-1.24 4.87-3.45 9.66-6.03 13.99-4.51 7.56-9.66 14.75-14.86 22.58 6.01.64 11.52 1.25 17.04 1.8 5.57.56 11.16.89 16.7 1.64 3.17.43 6.49 1 9.32 2.38 9.44 4.6 19.64 5.85 29.78 7.49 5.96.96 12.03 1.49 17.86 2.97 8.93 2.26 14.73 8.59 18.79 16.53 4.11 8.02 5.56 16.82 5.88 25.65.26 7.1-.66 14.26-1.14 21.38-.17 2.59-1.42 4.49-3.77 5.87-6.75 3.97-13.31 8.45-21.39 9.07-3.39.26-6.9-.15-10.28-.74-3.06-.54-4.42-6.09-2.16-8.2 3.92-3.66 6.65-8.12 6.8-13.43.22-7.55-.27-15.12-.56-22.68-.04-.92-.48-2.04-1.11-2.68-6.57-6.66-13.46-12.72-23.33-14.04-15.77-2.1-31.2-.07-46.91 3.08.8 5.53 1.7 10.8 2.24 16.1.2 1.99-.03 4.25-.8 6.08-5.04 12.07-10.28 24.05-15.44 36.06-.43 1.01-.76 2.06-1.26 3.43 10.8 1.9 21.34 3.77 31.88 5.58 6.61 1.13 13.26 2.05 19.86 3.25 12.21 2.22 19.26 9.58 20.45 21.89.53 5.53.2 11.16-.04 16.73-.05 1.1-1.19 2.69-2.22 3.13-8.34 3.56-17.12 3.79-26.33 3.16-.72-7.77-1.65-15.4-2.04-23.07-.16-3.22-1.33-3.82-4.2-3.75-7.5.18-15-.04-22.5.1-4.96.09-9.8-.15-14.5-1.98-1.04-.4-2.41-.34-3.54-.07-11.63 2.76-23.24 5.61-34.86 8.41-1.08.26-2.21.35-3.32.46-6.24.59-12.15 1.06-17.87 4.96-4.22 2.88-10.31 3.79-15.66 4.11-13.46.79-25.79 5.21-37.96 10.34-9.58 4.04-19.06 8.29-28.58 12.45-.56.25-1.09.58-2.2 1.17 6.44 2.56 12.4 4.71 18.15 7.31 2.87 1.29 5.58 3.16 7.97 5.22 3.22 2.76 6 6.03 9.13 8.91.71.66 2.38 1.19 3.08.81 12.83-6.94 27.14-6.91 41.02-8.83 8.16-1.13 16.27-1.89 24.21-4.8 6.39-2.34 13.49-3.09 20.35-3.69 10.48-.92 12.77-7.48 12.41-15.88-.28-6.56-2.33-12.45-6.09-18.31 4.85.82 9.68 1.88 14.56 2.41 4.82.52 8.59 2.58 11.93 5.99 5.95 6.07 12.08 11.96 18.14 17.93 5.75 5.68 6.88 12.61 5.2 20.15-1.83 8.24-4.71 16.08-9.85 22.92-8.87 11.8-17.19 24.06-26.73 35.29-11.15 13.12-24.51 23.93-40.25 31.31-13.03 6.12-26.76 6.64-40.71 3.91-.92-.18-1.87-.75-2.57-1.4-8.18-7.47-16.51-14.8-24.42-22.55-8.64-8.45-14.59-18.55-17.27-30.5-1.71-7.63-4.08-15.12-5.7-22.76-1.1-5.19-3.8-9.22-7.34-12.88-2.96-3.05-5.88-6.15-8.99-9.05-2.74-2.56-3.65-5.43-2.3-8.95.82-2.15-.02-3.45-2.07-4.08-6.62-2.03-13.29-3.87-19.85-6.07-5.58-1.87-11.21-3.76-16.48-6.35-3.96-1.99-6.17-5.73-6.21-10.71zm175.78 53.99c-.25-.4-.5-.79-.76-1.19-2.14.23-4.35.21-6.42.74-10.06 2.59-20.16 5.1-30.11 8.08-11.86 3.55-23.61 7.5-35.38 11.37-3.65 1.2-5.7 3.59-6.27 7.71-1.2 8.69 3.81 21.91 11.37 25.79 7.65 3.94 16.18 5.01 23.62-.45 9.27-6.81 18-14.35 26.87-21.69 1.41-1.16 2.57-2.78 3.44-4.4 3.14-5.91 6.08-11.93 9.16-17.87 1.41-2.74 2.98-5.39 4.48-8.09zm-60.63-135.59c2.57 2.69 4.72 5.29 7.24 7.45 1.66 1.42 3.98 2.05 5.77 3.36 1.74 1.27 3.51 2.73 4.67 4.49 3.07 4.66 5.89 9.49 8.65 14.34.95 1.68 1.96 2.05 3.78 1.56 5.11-1.39 8.39-4.86 11.03-9.18 3.14-5.14 6.82-10.03 9.34-15.45 2.11-4.53 3.5-9.61 4.07-14.58.53-4.57-3.05-6.61-7.67-5.61-7.09 1.53-14.19 3-21.34 4.22-8.75 1.51-17.11 3.94-25.54 9.4z" fill="#010105"/><g fill="#fcfbfa"><path d="m377.9 391.2c-.2.3-.4.5-.6.8-.7-.6-1.4-1-2.2-1.5.2-.3.4-.5.5-.8.6.4 1.4.8 2.3 1.5zm-1.8 6.1c-.2-.2-.5-.4-.9-.6.4-.6.8-1.2 1.2-1.9s.7-1.3.9-1.9c.3.3.5.5.8.7-.7 1.3-1.4 2.6-2 3.7zm2.2-9c-.3.3-.5.5-.6.8-.6-.6-1.3-1.1-2-1.5.3-.3.5-.5.6-.7.6.5 1.3.9 2 1.4zm.3.2v-.9h2 4.5c-.3 1.3-.6 2.5-1 3.6s-.9 2.1-1.4 3c.4.5 1 1 1.6 1.4s1.2.8 1.9 1.1c-.3.2-.5.4-.8.8-.4-.3-1-.7-1.6-1.2s-1.2-1.1-1.6-1.6c-.5.6-1.1 1.1-1.7 1.6s-1.4.9-2.1 1.4c-.1-.3-.3-.5-.7-.8.6-.2 1.2-.5 1.9-1s1.4-1.1 2-1.8c-.5-.8-.9-1.6-1.2-2.5s-.6-2-.8-3.2c-.4.1-.7.1-1 .1zm2.5 2.7c.3 1 .7 1.7 1 2.2.3-.5.6-1.1 1-2s.6-1.9.9-3h-3.2-.4c.1.9.3 1.8.7 2.8z"/><path d="m396.5 388.5v1.5 3.6h1.5v.9c-.4 0-1 0-1.7 0h-7.9c-.5 0-.9 0-1.2 0v-.9h1.3v-3.5c0-.7 0-1.2 0-1.6h2.4c0-.8 0-1.4 0-1.7h1c0 .3-.1.8-.1 1.7h1.5c0-.8 0-1.4 0-1.7h1c0 .3-.1.9-.1 1.7zm-8.2 9.2c-.2-.3-.5-.5-.8-.8.8-.3 1.4-.6 1.9-.9s1-.7 1.4-1.1c.3.3.6.5.9.8-1.6 1-2.8 1.6-3.4 2zm2.6-6.8v-1.6h-1.5v1.6zm0 2.7v-1.9h-1.5v1.9zm2.4-2.7v-1.6h-1.5v1.6zm0 2.7v-1.9h-1.5v1.9zm.2 2 .7-.8c.4.2.9.5 1.6.8s1.3.7 1.8 1c-.3.3-.5.5-.8.8-.4-.3-1.5-1-3.3-1.8zm2-4.7v-1.6h-1.4v1.6zm0 2.7v-1.9h-1.4v1.9z"/></g></svg>