<svg enable-background="new 0 0 400 400" viewBox="0 0 400 400" xmlns="http://www.w3.org/2000/svg"><path d="m29.9 29.82c9.21-5.23 18.71-4.44 27.84-2.34 11.29 2.59 22.28 6.46 33.41 9.72 1.79.52 3.67 1.01 5.52 1.07 19.79.59 39.61.66 59.37 1.8 9.54.55 18.97 3.01 28.43 4.69 20.48 3.63 40.94 7.32 61.42 10.91 1.07.19 2.68-.01 3.35-.7 6.87-7.09 14.65-5.76 22.28-2.11 11.98 5.72 24.68 7.66 37.71 8.42 6.58.38 13.17.55 19.38 3.29 8.86 3.91 11.06 12.44 10.07 20.29-.11.91-1.36 1.95-2.33 2.45-9.93 5.11-20.39 6.57-31.23 3.74-9.79-2.56-19.45-3.68-29.41-.66-7.22 2.19-11.51 7.5-15.46 13.21-7.87 11.36-11.91 24.24-13.88 37.76-3.03 20.7-5.36 41.5-8.82 62.13-1.46 8.74-5.01 17.12-7.63 25.66-.98 3.19-2.03 6.37-3.15 9.88 7.41 1.85 14.62 3.66 21.85 5.45 11.18 2.76 22.43 5.23 33.51 8.34 6.13 1.72 11.99 1.77 18.11.42 5.89-1.29 11.91-2 17.81-3.28 1.46-.32 3.22-1.58 3.88-2.89 7.55-15.23 11.9-31.53 15.79-47.99 1.73-7.32 3.93-14.48 8.43-20.67 3.27-4.5 7.37-7.72 13.14-8.38 1.83-.21 2.74.32 3.59 2.04 4.78 9.7 4.78 19.94 3.37 30.23-3.49 25.42-5.53 50.93-5.86 76.6-.21 15.81-4.11 30.98-10.26 45.54-.34.8-.8 1.63-1.4 2.24-6.88 6.96-14.28 12.84-23.79 16.34-16.23 5.98-31.89 13.52-48.13 19.47-33.33 12.21-67.72 17.37-103.2 13.14-15.36-1.83-30.37-5.37-45.05-10.22-1.89-.62-3.63-1.73-5.37-2.71-15.49-8.73-30.98-17.46-46.41-26.29-1.59-.91-3.08-2.24-4.18-3.7-13.45-17.96-17.88-38.35-15.12-60.26 1.24-9.82 3.88-19.47 6.12-29.14 3.32-14.33 3.45-28.82 2.79-43.4-.59-13.04.84-25.91 3.78-38.64.46-1.97 1.23-2.53 3.12-2.48 4.14.11 8.29.13 12.42-.01 1.87-.06 2.76.65 3.56 2.27 6.75 13.58 8.87 27.51 3.99 42.23-4.29 12.95-4.54 26.15-1.56 39.43 1.29 5.73 5.39 8.93 11 7.57 16-3.89 32.07-1.4 48.1-.86 14.37.48 28.61.32 42.52-4.01 2.67-.83 4.47-2.24 5.86-4.54 4.33-7.15 4.62-14.76 1.72-22.28-4.14-10.73-9.11-21.15-13.24-31.88-2.26-5.87-5.68-10.42-10.67-14.15-2.15-1.61-3.99-3.93-5.32-6.29-10.08-17.81-20.28-35.56-29.83-53.65-3.98-7.54-6.51-15.86-9.59-23.86-1.2-3.13-2.44-6.3-3.07-9.57-.86-4.4-3.6-6.42-7.48-8.01-14.43-5.93-29.52-7.92-44.96-7.98-11.47-.04-22.24-2.24-31.3-9.87-7.49-6.33-12.18-14.45-15.54-23.51zm174.35 303.42c7.7-.51 15.44-.67 23.09-1.59 20.09-2.42 40.15-5.13 60.21-7.82 9.04-1.21 17.35-4.3 24.36-10.33.87-.74 1.92-1.85 1.99-2.85.97-13.49-3-26.52-19.46-30.36-4.85-1.13-9.95-1.33-14.95-1.63-13.84-.84-27.69-1.41-41.53-2.3-5.79-.37-11.58-2.06-17.32-1.83-18.88.79-37.73 2.31-56.6 3.29-12.04.63-24.1.94-36.15 1.12-6.25.09-12.51-.65-18.76-.58-5.86.06-11.12 2.28-15.71 5.94-.64.51-1.4 1.3-1.48 2.03-.92 8.41-.36 16.67 10.65 21.32 7.35 3.1 14.08 7.68 21.09 11.59 1.16.65 2.3 1.47 3.55 1.79 25.27 6.44 50.73 11.83 77.02 12.21zm-28.3-251.03c11.5 22.87 23.21 46.18 35.02 69.66 2.37-1.03 5.04-.58 6-4.02 5.36-19.25 10.94-38.44 16.51-57.63.51-1.77.18-2.85-1.31-3.95-5.77-4.26-12.34-5.7-19.29-5.44-6.69.25-13.36 1.06-20.05 1.33-5.55.23-11.1.05-16.88.05z" fill="#010100"/><g fill="#fafbfa"><path d="m6.4 11.7c-1-.8-1.9-1.6-2.9-2.3l.6-.7c.9.7 1.9 1.4 2.9 2.2zm-2.1 8.3c.7-2.1 1.4-4.2 2-6.4.2.1.6.3 1 .4-.7 2.3-1.3 4.4-1.9 6.4zm3-12.8c-1.1-.9-2.1-1.7-2.9-2.4l.6-.7c1 .8 2 1.5 3 2.4zm1.4-1.3v-.9h10.2v.9c-.9 4.2-2.3 7.3-4.1 9.4 1.3 1.4 3.2 2.7 5.7 4-.2.2-.4.5-.7.9-2.5-1.4-4.4-2.7-5.7-4.2-1.4 1.5-3.5 3-6.1 4.4 0 0 0 0-.1-.1-.3-.4-.5-.7-.7-.8 2.7-1.3 4.7-2.8 6.2-4.2-1.8-2.2-3-5.3-3.7-9.4zm9.2 0h-7.1c.6 3.8 1.7 6.7 3.4 8.7 1.7-2 2.9-4.8 3.7-8.7z"/><path d="m31.6 3.6h.9v2.3h4.1v9.1h1.7v.9h-16.6v-.9h1.7v-9.1h4.1v-2.3h.9v2.3h3.1v-2.3zm-4 13.3.6.8c-1.9.9-3.8 1.9-5.8 2.8-.2-.3-.3-.6-.5-.9 2-.9 3.9-1.8 5.7-2.7zm-3.2-10.1v3.7h3.1v-3.7zm0 4.5v3.7h3.1v-3.7zm4.1-4.5v3.7h3.1v-3.7zm0 4.5v3.7h3.1v-3.7zm9.1 9.1c-2.1-1.1-4.1-2-5.8-2.7l.5-.8c2.2.9 4.1 1.8 5.8 2.6zm-1.9-13.6h-3.1v3.7h3.1zm-3.2 4.5v3.7h3.1v-3.7z"/></g></svg>