<svg enable-background="new 0 0 400 400" viewBox="0 0 400 400" xmlns="http://www.w3.org/2000/svg"><path d="m123.4 291.09c9.03-.6 9.03-.6 11.49 6.78 1.34 4.03 2.84 8.02 3.98 12.1.78 2.81 2.47 4.41 5.14 5.16 9.51 2.67 19.23 2.68 28.96 2.03.93-.06 2.11-1.17 2.6-2.1 2.84-5.36 3.49-11.07 1.93-16.92-3.3-12.32-4.23-24.82-4.06-37.55.32-23.84-.04-47.68.4-71.51.18-10.04 1.62-20.06 2.59-30.09.22-2.27-.3-4-1.87-5.74-7.59-8.39-11.8-18.67-15.52-29.11-2.91-8.2-5.31-16.59-7.72-24.96-.66-2.3-1.83-3.57-3.96-4.47-8.53-3.57-17.53-4.18-26.61-4.66-3.63-.19-7.37-.77-10.77-1.99-5.39-1.92-7.81-6.64-7.2-12.7 7.57-1.75 15.26-1.76 22.9-.44 8.68 1.5 16.41-.1 23.3-5.71.7-.57 2.19-.61 3.14-.32 1.47.46 2.87 1.28 4.14 2.18 6.27 4.45 12.9 5.8 20.51 3.78 9.89-2.63 20.02-1.2 30.05-.65 24.12 1.34 48.23 2.8 72.35 4.16 8.15.46 11.98 3.15 13.32 9.62.42 2 .16 3.25-2.12 4.04-6.28 2.19-12.66 2.25-19.2 1.89-5.76-.32-11.57-.14-17.32.25-3.28.22-5.36 2.23-5.63 5.9-.27 3.76-2.19 6.83-4.35 9.95-7.5 10.84-17.01 19.87-25.89 29.47-3.34 3.61-6.32 7.56-9.66 11.17-6.87 7.43-8.49 16.51-9.34 26.18-1.37 15.59-4.12 31.08-5.03 46.69-1.05 17.96-.86 36-.99 54-.08 10.85.32 21.71.38 32.56.01 2.03.92 3.07 2.36 4.37 4.99 4.52 10.77 4.9 17.11 4.59 11.61-.58 23.25-.71 34.89-.78 2.76-.02 4.27-.95 5.52-3.27 2.44-4.5 3.43-9.1 2.47-14.21-1.12-5.97 1.09-8.95 7.07-9.62 1.03-.12 2.7.61 3.19 1.45.97 1.68 1.72 3.69 1.86 5.61.53 7.02.75 14.06 1.12 21.09.76 14.23-2.23 28.01-4.66 41.9-.95 5.44-3.84 7.89-8.38 9.96-7.34 3.35-15.04 4.09-22.91 4.1-19.58.02-39.15.01-58.73 0-14.95-.01-29.64-1.87-44.06-5.96-2.18-.62-3.16-1.86-4.27-3.68-9.22-15.14-7.91-31.83-6.83-48.3.57-8.83 2.83-17.55 4.31-26.24zm70.32 73.86c.57 0 1.57-.01 2.58 0 14.24.21 28.38-.5 42.13-4.7 10.55-3.21 10.67-3.19 11.28-14.13.18-3.16-.23-6.45-.99-9.52-.28-1.14-2.27-2.5-3.59-2.62-4.89-.45-9.81-.44-14.73-.56-17.76-.45-35.53-.72-53.28-1.4-11.47-.44-22.76-.23-33.57 4.22-.97.4-2.44.85-2.67 1.59-1.95 6.15-4.52 12.38-1.05 18.77.68 1.26 2.21 2.54 3.57 2.88 16.38 4.02 33.12 4.82 50.32 5.47zm26.97-264.49c-1.34-1.54-2.43-3.67-4.16-4.6-2.39-1.28-5.22-2.02-7.94-2.36-9.76-1.23-19.54-2.21-29.32-3.28-3.55-.39-6.94 3.59-5.86 6.92 3.91 12 7.91 23.97 11.68 36.01.83 2.64 2.31 3.37 4.37 2.13 3.77-2.26 7.98-4.32 10.82-7.52 6.6-7.43 12.51-15.48 18.64-23.32.7-.91.97-2.16 1.77-3.98z" fill="#010100"/><path d="m167.5 32.74c4.38-2.8 7.62-4.98 10.98-6.96.98-.58 2.31-.81 3.48-.77 20.66.57 41.32 1.21 61.98 1.81 4.9.14 9.83-.2 14.35 2.42 2.21 1.28 3.55 2.9 3.8 5.5.31 3.22-.5 5.41-3.89 6.7-9.57 3.66-19.59 4.45-29.62 4.84-13.51.53-27.04.58-40.56.68-1.64.01-3.42-.72-4.91-1.52-2.84-1.53-5.73-3.11-8.22-5.14-2.58-2.11-4.71-4.77-7.39-7.56z" fill="#010100"/><g fill="#fafbfa"><path d="m6.4 11.7c-1-.8-1.9-1.6-2.9-2.3l.6-.7c.9.7 1.9 1.4 2.9 2.2zm-2.1 8.3c.7-2.1 1.4-4.2 2-6.4.2.1.6.3 1 .4-.7 2.3-1.3 4.4-1.9 6.4zm3-12.8c-1.1-.9-2.1-1.7-2.9-2.4l.6-.7c1 .8 2 1.5 3 2.4zm1.4-1.3v-.9h10.2v.9c-.9 4.2-2.3 7.3-4.1 9.4 1.3 1.4 3.2 2.7 5.7 4-.2.2-.4.5-.7.9-2.5-1.4-4.4-2.7-5.7-4.2-1.4 1.5-3.5 3-6.1 4.4 0 0 0 0-.1-.1-.3-.4-.5-.7-.7-.8 2.7-1.3 4.7-2.8 6.2-4.2-1.8-2.2-3-5.3-3.7-9.4zm9.2 0h-7.1c.6 3.8 1.7 6.7 3.4 8.7 1.7-2 2.9-4.8 3.7-8.7z"/><path d="m31.6 3.6h.9v2.3h4.1v9.1h1.7v.9h-16.6v-.9h1.7v-9.1h4.1v-2.3h.9v2.3h3.1v-2.3zm-4 13.3.6.8c-1.9.9-3.8 1.9-5.8 2.8-.2-.3-.3-.6-.5-.9 2-.9 3.9-1.8 5.7-2.7zm-3.2-10.1v3.7h3.1v-3.7zm0 4.5v3.7h3.1v-3.7zm4.1-4.5v3.7h3.1v-3.7zm0 4.5v3.7h3.1v-3.7zm9.1 9.1c-2.1-1.1-4.1-2-5.8-2.7l.5-.8c2.2.9 4.1 1.8 5.8 2.6zm-1.9-13.6h-3.1v3.7h3.1zm-3.2 4.5v3.7h3.1v-3.7z"/></g></svg>