<svg enable-background="new 0 0 400 400" viewBox="0 0 400 400" xmlns="http://www.w3.org/2000/svg"><path d="m6.8 9.5c.6.3 1.3.7 2.1 1.1-.4.4-.7.8-.9 1.2-.7-.4-1.3-.8-1.8-1.1s-1.1-.6-1.6-.8c.2-.4.5-.8.7-1.2.4.2.8.5 1.5.8zm.9 6.9c-.3.6-.5 1.1-.7 1.7s-.4 1.1-.6 1.7c-.6-.4-1.1-.7-1.6-1 .7-1 1.2-1.8 1.5-2.4.3-.5.6-1.1.8-1.7.3-.6.5-1.2.8-1.8.3.3.8.6 1.3.8-.7 1.3-1.2 2.2-1.5 2.7zm.1-11c.4.3 1 .7 1.7 1.1-.5.2-.8.6-1.1 1.1-.5-.6-1-1-1.4-1.2s-.9-.6-1.5-.8c.2-.4.5-.7.9-1.1.5.3.9.6 1.4.9zm10.5 13.1c1 .4 2 .6 3.1.7-.4.4-.7.8-.8 1.3-.9-.2-1.9-.6-3-.9-1-.4-2-.9-2.8-1.6-.5.4-1.1.9-1.9 1.3s-1.9.9-3.3 1.2c-.1-.3-.5-.8-1.1-1.3 1 0 2.1-.3 3.2-.8 1.2-.5 1.9-1 2.3-1.7h-3.2c-.4 0-1 0-2 .1v-1.2c1 0 1.7.1 2 .1h3.3v-1h-2.3c-.2 0-.9 0-2 .1v-1.2c1.2 0 1.9.1 2 .1h2.3v-.8h-4.1c0-.7.1-1.2.1-1.6 0-.5 0-1.1-.1-1.8h4.1v-.7h-2.5c0-.6.1-1.1.1-1.6v-.6h-.5c-.4 0-1 0-1.8.1v-1.3c1.2 0 1.9.1 2.1.1h.2c0-.3 0-.8-.1-1.4h1.4c0 .6-.1 1-.1 1.4h3.4c0-.4 0-.8-.1-1.3h1.5c0 .4-.1.9-.1 1.3.7 0 1.5 0 2.5-.1v1.2c-1 0-1.8-.1-2.5-.1v.6c0 .3 0 .8.1 1.5h-2.5v.8h4.1c0 .7-.1 1.3-.1 1.8s0 1 .1 1.5h-4.1v.8h1.4c.8 0 1.8 0 2.9-.1v1.2c-1 0-1.9-.1-2.8-.1h-1.5v1h3.2c.3 0 1 0 2.1-.1v1.2c-1.1 0-1.8-.1-2.1-.1h-3.4l-.1.1c1.4 1 2.4 1.5 3.4 1.9zm-4.1-6.7v-1.3h-2.7v1.3zm2.2-4.1v-1.1h-3.4v1.1zm1.9 4.1v-1.3h-2.8v1.3z" fill="#fafbfa"/><path d="m37 6.7v2.3 5.4c1 0 1.8 0 2.2-.1v1.3c-.6 0-1.5-.1-2.5-.1h-11.9c-.7 0-1.3 0-1.8.1v-1.3c.5 0 1.1.1 2 .1v-5.2c0-1 0-1.8-.1-2.5h3.7c0-1.3 0-2.1-.1-2.5h1.5c0 .4-.1 1.3-.1 2.5h2.2c0-1.2 0-2.1-.1-2.6h1.5c0 .4-.1 1.3-.1 2.6zm-12.3 13.7c-.3-.4-.7-.8-1.1-1.1 1.1-.4 2.1-.9 2.9-1.3.8-.5 1.5-1 2.1-1.6.4.4.9.8 1.3 1.1-2.5 1.4-4.2 2.4-5.2 2.9zm3.9-10.1v-2.4h-2.2v2.4zm0 4.1v-2.9h-2.2v2.9zm3.5-4.1v-2.4h-2.2v2.4zm0 4.1v-2.9h-2.2v2.9zm.4 2.9 1-1.1c.6.3 1.4.7 2.5 1.3s2 1.1 2.7 1.5c-.4.4-.8.8-1.1 1.3-.8-.8-2.5-1.7-5.1-3zm3.1-7v-2.4h-2.1v2.4zm0 4.1v-2.9h-2.1v2.9z" fill="#fafbfa"/><g fill="#010103"><path d="m162.33 129.53c.88 3.39 1.65 6.81 2.66 10.16.64 2.11 1.65 4.11 2.44 6.17.75 1.96 1.76 3.88 2.11 5.92 1.9 10.74 5.1 21.08 9.67 30.95 4.08 8.84 10.31 15.56 20.81 18.99.67-3.86 1.67-7.39 1.79-10.95.17-4.9-.38-9.83-.51-14.75-.29-11.25-.46-22.5-.76-33.76-.36-13.64-.77-27.27-1.24-40.91-.06-1.63-.35-3.37-1.02-4.83-3.38-7.33-6.91-14.58-10.64-22.36 4.75 4.35 9.29 8.51 14.16 12.97 2.96-5.78 5.79-11.3 9.1-17.76-3.39-.63-6.38-1.75-9.31-1.62-5.85.27-11.85.33-17.16 3.53-.61.37-1.56.46-2.28.31-8.67-1.8-17.12.69-25.66 1.32-6.24.46-12.46 1.28-18.66 2.11-2.19.29-3.7-.18-3.77-2.47-.06-2.25-.98-5.15 2.86-5.61 5.88-.7 11.74-1.64 17.63-2.29 30.46-3.33 60.92-6.66 91.39-9.84 3.74-.39 7.61-.07 11.36.37 1.13.13 2.07 1.78 3.11 2.73-.9.76-1.71 2.02-2.71 2.2-12.42 2.26-24.84 4.57-37.33 6.39-4.37.64-6.74 2.2-8.21 6.51-1.73 5.03-4.29 9.83-6.93 14.47-2.1 3.68-2.33 7.44-1.68 11.34.71 4.29 1.66 8.56 2.71 12.79 1.09 4.38 1.78 8.7.72 13.21-.31 1.34.21 2.86.27 4.29.47 10.37 1.11 20.74 1.34 31.12.25 11.63.12 23.28.16 34.92.02 4.05 2.07 5.71 5.74 3.91 7.44-3.66 12.59-9.79 14.92-17.64 3.22-10.86 5-22 3.64-33.45-.52-4.38-.63-8.89 2.2-13.16 2.14 3.11 2.73 6.2 1.92 9.47-1.44 5.81-1.59 11.58-1.09 17.59.52 6.28 0 12.71-.73 19-1.32 11.42-8.46 18.66-18.47 23.17-5.29 2.39-8.63 4.82-8.77 11.69-.4 20.12-1.87 40.23-2.79 60.34-.58 12.74-.91 25.49-1.4 38.24-.06 1.5-.45 2.99-1.38 4.43 0-1.16 0-2.32 0-3.48 0-24.96.01-49.92-.02-74.88 0-1.77-.1-3.61-.56-5.3-2.15-8-2.13-16.15-1.92-24.32.07-2.61-.86-4.51-3.45-4.98-11.03-2.01-16.28-10.32-20.89-19.18-6.48-12.44-9.24-26.07-12.04-39.64-1.17-5.65-1.79-11.41-2.66-17.11.45-.1.89-.21 1.33-.32z"/><path d="m172.09 274.14c.81 2.37 2.08 4.69 2.35 7.12 1.44 12.89 2.59 25.81 3.94 38.71.28 2.66 1.07 5.26 1.39 7.92.55 4.67 2.69 5 6.48 4.37 7.27-1.22 14.49-2.77 21.78-3.82 5.52-.8 11.11-1.18 16.69-1.44 2.1-.1 3.55-.7 4.09-2.64 1.21-4.38 2.92-8.77 3.2-13.23.5-7.91-.11-15.88.14-23.81.13-4.19 1.11-8.34 1.84-13.43 3.12 5.06 3.08 9.62 2.79 14.18-1.09 17.29-1.75 34.63-3.55 51.85-.85 8.12-3.08 16.37-6.24 23.9-3.18 7.57-16.4 13.08-24.83 11.56-4.09-.74-8.33-1.75-11.96-3.66-6.27-3.3-9.69-8.88-10.86-16.03-.83-5.05-2.44-9.98-3.76-14.94-.31-1.17-.53-2.67-1.35-3.34-2.9-2.4-2.02-4.93-.97-7.78.54-1.48.79-3.31.48-4.84-3.34-16.13-2.7-32.49-3.04-48.8-.01-.51.13-1.02.21-1.54.4-.1.79-.2 1.18-.31zm57.4 65.44c-.17-.08-.35-.16-.52-.23-.31-1.86-.53-3.75-.98-5.58-.16-.65-.83-1.62-1.35-1.67-4.88-.5-9.87-1.64-14.64-1.05-9.29 1.16-18.44 3.34-27.66 5.03-1.77.33-2.57 1.09-2.86 2.97-1.23 8.24 2.82 14.57 6.96 21.06 3.36 5.26 7.88 7.97 13.99 8.31 1 .05 2 .24 3 .31 7.37.47 16.53-4.36 18.97-10.87 2.21-5.9 3.43-12.17 5.09-18.28z"/><path d="m201.05 25.32c2.49.34 5.07.53 7.55 1.13 1.02.25 2.08 1.25 2.58 2.2.19.36-1.07 1.63-1.82 2.3-3.78 3.34-8.53 3.46-13.19 3.89-4.89.45-9.78 1.38-14.65 1.3-3.57-.06-7.17-1.27-10.66-2.32-.79-.24-1.44-1.85-1.6-2.91-.07-.49 1.16-1.59 1.9-1.7 8.93-1.37 17.88-2.63 26.82-3.88.97-.13 1.99-.01 3.07-.01z"/></g></svg>