<svg enable-background="new 0 0 400 400" viewBox="0 0 400 400" xmlns="http://www.w3.org/2000/svg"><g fill="#fcfafa"><path d="m342.2 3.2-6.3 9.2h6.1v1.2h-8.2v-.5l6.2-9.1h-5.7v-1.2h7.8v.4z"/><path d="m344 13.7v-10.9h3.1c1.6 0 3 .5 4.1 1.4 1.1 1 1.6 2.2 1.6 3.9s-.5 3-1.6 4-2.5 1.5-4.2 1.5h-3zm1.4-9.6v8.4h1.6c1.4 0 2.5-.4 3.2-1.1.8-.8 1.2-1.8 1.2-3.2s-.4-2.4-1.2-3.1-1.8-1-3.1-1z"/><path d="m356.3 2.8v10.9h-1.4v-10.9z"/><path d="m366.6 13.2c-.8.4-1.8.6-3 .6-1.6 0-2.8-.5-3.7-1.5s-1.4-2.3-1.4-3.9c0-1.7.5-3.2 1.6-4.2s2.4-1.6 4-1.6c1 0 1.9.1 2.6.4v1.5c-.8-.4-1.6-.6-2.6-.6-1.2 0-2.2.4-3 1.2s-1.1 1.9-1.1 3.3c0 1.3.4 2.3 1.1 3.1s1.6 1.1 2.8 1.1c1.1 0 2-.2 2.8-.7v1.3z"/><path d="m368.2 13c0-.3.1-.5.3-.6.2-.2.4-.3.6-.3.3 0 .5.1.7.3s.3.4.3.6-.1.5-.3.6c-.2.2-.4.3-.7.3s-.5-.1-.6-.3c-.2-.2-.3-.4-.3-.6z"/><path d="m381.1 13.7h-1.7l-5.5-8.4c-.2-.2-.3-.5-.4-.7 0 .2.1.8.1 1.5v7.6h-1.4v-10.9h1.8l5.3 8.3c.3.4.4.6.4.8 0-.3-.1-.8-.1-1.6v-7.5h1.4v10.9z"/><path d="m389.7 13.7h-5.8v-10.9h5.6v1.2h-4.2v3.5h3.9v1.2h-3.9v3.7h4.4z"/><path d="m398.4 4.1h-3.1v9.6h-1.4v-9.6h-3.1v-1.3h7.7v1.3z"/></g><path d="m223.82 76.02c5.79-.88 11.26-1.82 16.75-2.53 10.56-1.37 20.44-4.84 29.77-9.81 10.32-5.5 20.83-10.58 32.53-11.97 7.18-.85 14.51-.31 21.77-.55 16.07-.55 28.66 6.88 39.42 17.76 9.27 9.37 11.34 20.95 8.21 33.59-3.29 13.27-7.46 26.25-13.8 38.4-1.79 3.42-4.48 6.37-6.7 9.57-7.8 11.22-16.66 21.21-29.54 26.92-3.03 1.34-5.87 3.35-8.4 5.51-8.78 7.47-19.26 10.37-30.34 12.04-12.19 1.83-24.16 4.61-35.36 9.96-5.58 2.67-11.44 3.02-17.38 2.62-10.47-.7-20.93-1.6-31.38-2.59-1.31-.12-2.53-1.3-3.79-1.99.95-1.34 1.6-3.13 2.88-3.96 10.85-7.08 23.19-10.24 35.53-13.58 7.72-2.09 15.2-5.12 22.67-8.03 2.18-.85 3.95-2.73 6.18-4.34-3.82-3.55-7.24-6.74-10.68-9.91-4.77-4.41-9.39-8.98-14.35-13.16-5.9-4.98-10.58-10.87-14.44-17.49-2.94-5.04-6.86-9.07-12.4-11.89-.68.97-1.38 1.92-2.03 2.91-8.76 13.38-17.49 26.79-26.32 40.13-.95 1.43-2.31 2.73-3.75 3.67-4.77 3.12-9.58 6.22-14.55 9.01-5.44 3.06-9.79 7.19-13.98 11.79-4.48 4.91-9.51 9.5-14.93 13.33-14.28 10.11-29.78 18.07-45.83 25.05-11.73 5.1-23.53 7.45-36.14 3.85-3.21-.92-6.58-1.44-9.91-1.67-3.9-.27-6.27-1.78-6.42-5.99 8.88-2.71 17.9-5.28 26.8-8.21 13.34-4.39 26.04-9.98 37.07-19.03 3.57-2.93 8.11-4.67 12.21-6.96 5.56-3.1 6.56-7.95 2.67-13.1-12.75-16.88-25.39-33.84-38.39-50.52-2.05-2.63-5.5-4.67-8.72-5.77-7.8-2.66-15.79-4.81-23.81-6.78-9.37-2.3-17.5-6.17-22.14-15.22-.2-.39-.31-.82-.52-1.36 5.41-3.23 11.38-4.01 17.19-2.59 11.32 2.76 21.22.3 31.57-4.74 20.57-10.02 41.5-19.43 62.74-27.94 16.49-6.6 34.11-8 51.84-6.44 2.15.19 4.4.82 6.33 1.8 6.78 3.44 13.47 7.05 20.11 10.77 1.25.7 2.37 1.99 3.06 3.28 3.94 7.4 4.49 15.34 3.36 23.5-.14 1-.22 2-.31 3-.44 5.13 1.07 8.94 5.52 12.31 14.53 11.02 28.89 22.3 42.87 34.01 6.75 5.65 12.6 12.38 18.66 18.81 1.85 1.96 3.17 2.07 5.34.67 3.66-2.36 7.53-4.39 11.3-6.59 3.27-1.91 3.96-9.65 1.08-12.16-9.2-8.01-18.45-15.97-27.58-24.07-1.53-1.36-2.84-3.15-3.76-4.98-2.72-5.38-5.08-10.95-7.84-16.31-.72-1.4-2.21-2.85-3.67-3.36-7.49-2.58-15.13-4.76-22.64-7.29-5.78-1.95-10.34-5.56-13.63-11.38zm121.09 8.3c.26-13.5-10.66-21.08-19.9-17.81-7.58 2.68-15.27 5.18-22.6 8.45-6.28 2.81-12.11 6.61-18.14 9.96-1.81 1.01-2.19 2.5-1.17 4.21 3.01 5.06 5.57 10.52 9.28 15.03 7.67 9.33 16.09 18.03 23.93 27.23 2.15 2.52 4.4 3.11 6.99 1.99 2.05-.9 4.35-2.29 5.46-4.11 3.7-6.1 7.92-12.16 10.09-18.84 3.15-9.72 4.69-19.96 6.06-26.11zm-211.43.33c2.83 7.21 6.38 12.6 11.07 17.12 6.19 5.97 12.6 11.71 19.01 17.45.93.83 2.3 1.38 3.55 1.6 4.68.82 7.24-2.36 9.4-5.65 5.81-8.88 9.46-18.72 11.68-29.02 1.36-6.33.23-12.26-5.19-16.67-1.65-1.34-3.26-1.91-5.51-1.17-6.99 2.3-14.19 4-21.08 6.56-7.68 2.86-15.12 6.41-22.93 9.78zm-39.02 25.27c6.61 6.24 12.69 12.53 19.35 18.15 8.97 7.58 16.06 16.4 20.26 27.4 1.19 3.12 3.35 3.66 6.26 3.43 4.47-.35 6.67-3.78 9.24-6.66 3.31-3.72 3.2-7.11-.18-10.86-.75-.83-1.67-1.5-2.42-2.32-4.75-5.18-9.67-10.22-14.15-15.62-3.85-4.64-6.9-9.97-10.88-14.47-3.13-3.54-7.08-6.39-10.85-9.29-.75-.57-2.72-.46-3.55.14-4.36 3.13-8.52 6.52-13.08 10.1z" fill="#010103"/><path d="m86.67 322.82c8.01 1.11 14.74 2.84 21.47 2.84 21.03-.01 42.05-.62 63.07-1.14 3.33-.08 6.73-.54 9.92-1.45 2.03-.57 3.74-2.28 6.21-3.88-1.76-.98-2.49-1.46-3.28-1.81-10.79-4.79-19.57-12.04-26.35-21.7-5.16-7.35-10.66-14.38-17.81-19.96-2.48-1.94-4.93-3.09-8.28-2.4-5.36 1.1-10.51.25-15.65-1.86-12.9-5.3-25.93-10.26-38.9-15.38-1.02-.4-1.95-1.04-3.18-1.71.67-1.6 1.3-3.1 1.97-4.72 19.93 3.67 38.07-2.98 56.49-8.6 11.31-3.45 22.97-5.75 34.5-8.43 26.67-6.2 53.38-12.24 80.04-18.49 7.96-1.86 15.8-.63 23.66.25 10.64 1.18 20.77 4.16 30.33 9.09 15.81 8.15 22.61 20.9 20.38 38.56-.32 2.55-.72 5.1-1.17 7.63-1.14 6.34-3.39 11.9-8.11 16.81-9.52 9.91-17.97 20.81-29.85 28.3-14.39 9.06-29.99 15.33-45.78 21.36-17.19 6.56-35.19 8.15-53.21 9.98-9.34.95-18.62 2.45-27.94 3.57-16.41 1.98-32.23-.41-46.94-7.92-5.9-3.01-11.14-7.42-16.36-11.6-2.04-1.65-3.19-4.39-5.23-7.34zm129.73-77.57c.86.8 1.46 1.43 2.13 1.98 15.6 12.91 31.19 25.82 46.8 38.71 5.49 4.53 11.34 4.1 16.07-1.38 3.21-3.72 6.16-7.67 9.16-11.57.6-.77 1.03-1.74 1.3-2.69 1.53-5.25 3.07-10.51 4.44-15.8 1.74-6.72-1.7-17.16-7.04-20.12-7.99-4.43-16.81-5.63-25.66-3.94-9.42 1.8-18.67 4.48-27.97 6.89-6.67 1.71-13.27 3.67-19.23 7.92zm-57.11 19.77c1.59 2.25 2.6 4.56 4.34 5.98 6.39 5.19 12.79 10.43 19.6 15.02 11.57 7.79 23.45 15.12 35.25 22.57 1.38.87 3 1.57 4.59 1.86 7.8 1.41 14.52-1.25 20.48-6.05.67-.54.96-2.38.58-3.25-1.87-4.28-5.72-6.26-9.76-8.16-5.01-2.36-10.49-4.39-14.52-7.97-4.92-4.37-9-9.91-12.6-15.48-4.73-7.32-10.29-13.47-18.24-17.21-.89-.42-2.24-.74-3.02-.37-8.74 4.16-17.42 8.49-26.7 13.06z" fill="#010103"/></svg>