<svg enable-background="new 0 0 400 400" viewBox="0 0 400 400" xmlns="http://www.w3.org/2000/svg"><path d="m231.17 25.81c8.02.61 16.07.98 24.06 1.9 8.3.95 13.65 5.92 15.62 13.6.65 2.54.67 4.68-2.54 5.34-.21.04-.39.23-.6.3-14.04 4.63-24.56 13.53-33.58 25.24-10.78 13.99-22.6 27.11-31.67 42.44-8.53 14.43-8.35 28.64-.67 43 2.13 3.97 5.25 7.45 8.14 10.97 12.61 15.42 22.01 32.38 24.42 52.47.7 5.83.12 11.82.08 17.73-.02 3.13-.29 6.26-.22 9.38.44 18.91.93 37.82 1.46 56.72.04 1.3.22 2.75.82 3.86 4.2 7.81 8.84 15.39 15.54 21.31 2.88 2.54 6.23 5.05 9.81 6.2 11.33 3.64 21.41 9.46 31.2 16.03 4.33 2.91 9.03 5.33 13.75 7.57 3.93 1.87 6.01 4.72 6.7 8.91.34 2.09-.18 3.26-2.2 4.12-6.85 2.93-13.92 3.67-20.98 1.42-6.79-2.16-13.69-4.41-19.94-7.74-7.4-3.94-15.05-6.91-23.13-8.62-21.01-4.47-39.23-15.31-58.05-24.8-1-.5-1.95-1.11-2.99-1.51-15.27-5.95-26.73-17.3-39-27.51-4.73-3.94-9.18-8.27-14.19-11.81-12.31-8.71-19.84-21.02-26.6-33.99-11.51-22.08-17.9-45.8-21.22-70.28-2.12-15.6-2.95-31.38-3.99-47.11-.56-8.48 2.12-16.37 6.37-23.63 4.7-8.03 9.57-15.94 10.54-25.5.07-.71.54-1.5 1.06-2.01 20.92-20.94 43.51-39.7 70.86-51.74 19.4-8.52 39.93-12.1 61.14-12.26zm-128.71 140.64c-.21 9.02 1.36 17.53 5.86 25.51 3.91 6.92 6.64 14.36 8.45 22.15 1.8 7.73 3.71 15.44 5.99 23.03 2.59 8.62 6.18 17.01 12.66 23.37 11.51 11.28 23.79 21.77 35.27 33.07 7.09 6.98 15.5 11.29 24.59 14.52 3.5 1.25 7.36 1.72 11.09 2.03 2.92.24 4.35-1.21 4.32-4.67-.18-22.84-.13-45.68-.05-68.51.01-2.76.73-5.5.94-8.27.56-7.45 1.59-14.92 1.37-22.35-.22-7.82-3.4-14.65-9.68-19.9-4.63-3.87-8.76-8.34-13.31-12.31-3.03-2.64-5.15-5.73-6.7-9.41-7.29-17.28-10.33-34.91-4.83-53.31 4.45-14.91 12.81-27.52 23.44-38.66 2.62-2.75 2.62-5.45 1.72-8.55-.87-2.98-3.21-4.13-6.1-4.42-1.78-.18-3.55-.49-5.33-.51-13.37-.15-25.67 3.81-36.84 10.79-15.47 9.68-28.28 22.6-41.04 35.5-.59.59-.91 1.53-1.17 2.36-5.99 19.07-9.67 38.57-10.65 58.54z" fill="#010106"/><path d="m136.42 121.72c6.47 3.07 10.56 7.41 13.87 12.55 6.75 10.5 9.37 22.39 11.21 34.48 1.92 12.63 3 25.35 2.09 38.12-.36 4.99-1.44 9.94-2.2 14.9-.32 2.09-1.29 3.15-3.65 3.51-6.68 1.02-6.71 1.2-9.54-5.02-7.43-16.29-11.46-33.57-14.77-51.05-2.09-11.04-3.35-22.18-1.31-33.34.85-4.73 2.77-9.27 4.3-14.15z" fill="#010106"/><g fill="#fcfbfa"><path d="m385.2 377.6.6-.7c.6.4 1.3.9 1.9 1.5l-.6.7c-.8-.5-1.4-1-1.9-1.5zm.3 7.1c.6-1.4 1.1-2.9 1.5-4.5.3.1.6.3.9.4-.5 1.4-1 2.9-1.5 4.4zm.2-10.1.6-.6c.7.5 1.3 1.1 1.9 1.6l-.7.7c-.6-.6-1.2-1.2-1.8-1.7zm8.4-.8h.8v.9h1.8v.7h-1.8v1.8h-.8v-.3h-1.2v.9h3.3v2.6h-.8v-.4h-2.5c0 .3 0 .6-.1.8h3.4v.7h-3.5c0 .3-.1.6-.1.8h4v.7h-3.5c.7.9 1.9 1.3 3.6 1.5-.2.2-.4.5-.6.9-1.9-.3-3.2-1.1-3.8-2.3-.5 1.1-1.8 2-3.9 2.4-.2-.3-.4-.5-.6-.8 1.9-.4 3.1-.9 3.6-1.7h-3.2v-.7h3.5c.1-.2.1-.5.2-.8h-3.3v-.7h3.4c0-.2 0-.5 0-.8h-2.4v.3h-.8v-2.6h3.3v-.9h-1.2v.3h-.8v-1.8h-1.8v-.7h1.8v-.9h.8v.9h3.2zm-4.4 5.5h2.4c0-.3 0-.6 0-.9h-2.4zm1.2-3.1h3.2v-.8h-3.2zm4.4 2.2h-2.4v.9h2.5v-.9z"/><path d="m389.2 385.8h.9v1.5h1.9v-1.5h.9v1.5h2.7v6h1.1v.9h-11.3v-.9h1.1v-6h2.7zm.2 8.7.5.8c-1.2.6-2.5 1.3-4 1.9-.2-.3-.3-.6-.6-.8 1.6-.6 3-1.3 4.1-1.9zm-2-4.3h1.9v-2.1h-1.9zm0 3.1h1.9v-2.2h-1.9zm2.7-3.1h1.9v-2.1h-1.9zm0 3.1h1.9v-2.2h-1.9zm2.4 1.3c1.4.6 2.7 1.2 4.1 1.8l-.5.9c-1.5-.7-2.8-1.4-4.1-1.9zm2.2-6.5h-1.9v2.1h1.9zm-1.9 5.2h1.9v-2.2h-1.9z"/></g></svg>