<svg enable-background="new 0 0 400 400" viewBox="0 0 400 400" xmlns="http://www.w3.org/2000/svg"><path d="m23.08 366.79c-.46-3.43-.91-6.83-1.38-10.29 7.95-2.67 15.7-5.11 23.34-7.86 10.45-3.76 20.49-8.24 28.85-15.94 10.53-9.69 16.95-21.44 17.63-35.74 1.16-24.38 6.97-47.97 11.33-71.82.98-5.34 1.54-10.85 1.49-16.28-.38-38.72-1-77.43-1.44-116.15-.03-2.61-.62-3.86-3.43-4.03-12.72-.78-25.44-1.55-38.13-2.65-4.41-.38-8.82-1.39-13.08-2.64-2.34-.69-4.36-2.46-7.47-4.31 5.02-2.55 8.94-4.84 13.08-6.61 30.43-13.04 62.09-17.03 94.88-12.77 2.14.28 4.49.1 6.55-.5 10.83-3.14 21.7-6.23 32.38-9.85 10.36-3.51 20.96-5.22 31.81-6.16 33.32-2.88 66.58-6.45 99.94-8.79 11.48-.81 23.15 1.18 34.73 1.96 1.2.08 2.39.55 3.55.95 12.76 4.45 17.32 14.21 12.25 26.8-1.91 4.75-4.61 9.18-6.67 13.88-2.72 6.2-4.25 12.69-4.13 19.53.13 7.47-1.72 14.54-3.86 21.67-2.17 7.22-3.58 14.71-4.82 22.17-2.3 13.79-3.64 27.75-6.49 41.41-2.41 11.56-6.37 22.8-9.69 34.16-5.27 18.01-10.55 36.02-15.93 54-.49 1.64-1.42 3.29-2.56 4.56-4.43 4.89-9.33 9.39-13.51 14.48-5.83 7.12-13.12 11.76-21.39 15.58-18.87 8.71-37.56 17.82-56.19 27.03-4.89 2.42-9.99 3.21-15.2 3.61-15.59 1.2-29.87 7.44-44.73 11.41-32.16 8.6-64.71 14.96-97.9 17.63-13.81 1.11-27.7 1.2-41.56 1.74-.64.04-1.3-.09-2.25-.18zm300.82-302.02c-7.16-1-14.01-2-20.87-2.9-4.09-.54-8.36-1.86-12.26-1.18-8.88 1.54-17.76 3.56-26.33 6.37-16.31 5.35-32.6 9.55-49.99 6.29-2.68-.5-5.84-.23-8.4.71-12.47 4.58-25.1 7.99-38.54 7.5-9.3-.34-17.35 2.82-24.11 9.13-1.21 1.13-2.21 2.81-2.61 4.42-2.1 8.46-4.01 16.96-5.9 25.47-.96 4.35-2.34 8.73-2.42 13.12-.1 5.78.96 11.58 1.39 17.38.51 6.8 1.65 13.65 1.18 20.39-1.27 18.07-3.2 36.1-4.97 54.13-2.58 26.38-5.26 52.75-7.85 79.12-.81 8.23.47 16.03 5.04 23.14 1.22 1.89 2.38 2.33 4.66 1.67 29.91-8.77 59.87-17.4 89.79-26.13 1.68-.49 3.32-1.34 4.77-2.33 13.37-9.17 26.71-18.4 40.01-27.67 1.34-.94 2.6-2.15 3.54-3.48 9.82-13.88 19.58-27.8 29.3-41.75.94-1.34 1.67-2.91 2.14-4.48 4.53-14.97 9.05-29.94 13.46-44.95 5.62-19.15 9.67-38.66 10.59-58.6.55-11.92-.42-23.91-.79-35.87-.19-6.36-.53-12.72-.83-19.5z" fill="#010106"/><path d="m218.08 115.63c5.72 2.35 11.31 4.54 16.76 7.02.78.35 1.39 2.14 1.3 3.2-1.06 12.14-2.34 24.26-3.41 36.4-1.15 13.03-2.09 26.08-3.23 39.11-1.04 11.98-4.63 23.18-10.72 33.54-.51.87-1.78 1.62-2.81 1.8-3.41.59-6.9.71-10.3 1.35-2.47.47-3.35-.66-4.12-2.66-2.96-7.67-3.18-15.48-1.41-23.41 1.4-6.32 3.26-12.57 4.24-18.95.75-4.89.83-9.97.52-14.92-.34-5.51-.35-10.82 1.12-16.24 3.97-14.66 7.59-29.41 11.36-44.12.16-.64.4-1.25.7-2.12z" fill="#010106"/><g fill="#fcfbfa"><path d="m385.2 377.6.6-.7c.6.4 1.3.9 1.9 1.5l-.6.7c-.8-.5-1.4-1-1.9-1.5zm.3 7.1c.6-1.4 1.1-2.9 1.5-4.5.3.1.6.3.9.4-.5 1.4-1 2.9-1.5 4.4zm.2-10.1.6-.6c.7.5 1.3 1.1 1.9 1.6l-.7.7c-.6-.6-1.2-1.2-1.8-1.7zm8.4-.8h.8v.9h1.8v.7h-1.8v1.8h-.8v-.3h-1.2v.9h3.3v2.6h-.8v-.4h-2.5c0 .3 0 .6-.1.8h3.4v.7h-3.5c0 .3-.1.6-.1.8h4v.7h-3.5c.7.9 1.9 1.3 3.6 1.5-.2.2-.4.5-.6.9-1.9-.3-3.2-1.1-3.8-2.3-.5 1.1-1.8 2-3.9 2.4-.2-.3-.4-.5-.6-.8 1.9-.4 3.1-.9 3.6-1.7h-3.2v-.7h3.5c.1-.2.1-.5.2-.8h-3.3v-.7h3.4c0-.2 0-.5 0-.8h-2.4v.3h-.8v-2.6h3.3v-.9h-1.2v.3h-.8v-1.8h-1.8v-.7h1.8v-.9h.8v.9h3.2zm-4.4 5.5h2.4c0-.3 0-.6 0-.9h-2.4zm1.2-3.1h3.2v-.8h-3.2zm4.4 2.2h-2.4v.9h2.5v-.9z"/><path d="m389.2 385.8h.9v1.5h1.9v-1.5h.9v1.5h2.7v6h1.1v.9h-11.3v-.9h1.1v-6h2.7zm.2 8.7.5.8c-1.2.6-2.5 1.3-4 1.9-.2-.3-.3-.6-.6-.8 1.6-.6 3-1.3 4.1-1.9zm-2-4.3h1.9v-2.1h-1.9zm0 3.1h1.9v-2.2h-1.9zm2.7-3.1h1.9v-2.1h-1.9zm0 3.1h1.9v-2.2h-1.9zm2.4 1.3c1.4.6 2.7 1.2 4.1 1.8l-.5.9c-1.5-.7-2.8-1.4-4.1-1.9zm2.2-6.5h-1.9v2.1h1.9zm-1.9 5.2h1.9v-2.2h-1.9z"/></g></svg>