<svg enable-background="new 0 0 400 400" viewBox="0 0 400 400" xmlns="http://www.w3.org/2000/svg"><path d="m66.05 74.55c1.22-8.25 2.31-16.1 3.64-23.91.15-.86 1.61-2 2.59-2.14 18.62-2.54 37.3-4.61 55.86-7.49 12.46-1.93 24.76 0 37.13-.09 12.17-.08 24.33-1.37 36.49-2.17 11.71-.76 23.46-2.62 35.12-2.12 17.86.78 35.65 3.06 53.45 4.95 4.12.44 7.17.06 9.62-3.82 2.3-3.67 5.53-6.74 8.11-10.26 1.34-1.84 2.78-2.16 4.86-1.82 9.18 1.5 14.23 7.03 13.89 16.33-.32 8.94-1.51 17.84-1.9 26.78-.47 10.61-.35 21.25-.73 31.86-.85 23.63-2.11 47.31-11.46 69.44-5.29 12.53-9.18 25.39-12.41 38.52-.26 1.05-.62 2.31-1.37 2.96-7.38 6.42-10.52 15-12.93 24.11-.71 2.67-2.22 5.43-4.12 7.41-11.53 11.96-19.08 26.74-28.7 40.03-1.39 1.92-3.21 3.75-5.22 4.95-18.44 11-37.22 21.44-55.37 32.9-10.36 6.54-20.15 14.17-29.43 22.2-12.07 10.43-25.27 18.22-40.86 21.85-1.7.4-3.48 1.15-4.81 2.24-3.78 3.12-7.92 4.31-12.72 3.32-7.07-1.45-13.51 1.09-19.82 3.55-4.04 1.57-6.99-.42-10.03-2-2.36-1.22-1.68-7.94.68-9.39 18.77-11.53 37.53-23.09 56.36-34.53 2.07-1.26 2.9-2.57 2.87-5.01-.22-16.13 1.44-32.15 2.89-48.2 1.28-14.15 2.14-28.37-.23-42.52-.26-1.55-1-3.26-2.06-4.38-1.98-2.09-2.33-4.05-1.66-6.89.96-4.09 1.44-8.35 1.58-12.55.77-22.66-2.08-45.14-3.56-67.68-1.32-20.1-2.97-40.17-4.41-60.26-.36-5.02-.63-6.08-5.64-6.58-6.75-.67-13.59-.63-20.39-.5-10.96.21-21.91.74-32.86 1.12-.58.04-1.12-.08-2.45-.21zm103.91 182.06c.14.01.29.02.43.03 0 5.93-.51 11.92.14 17.78.73 6.6 2.44 13.11 3.84 19.63.42 1.93 1.83 2.77 3.79 2.08 4.18-1.49 8.9-2.25 12.38-4.74 7.97-5.72 15.54-12.06 22.9-18.57 13.98-12.36 26.43-26.06 35.41-42.64 1.54-2.84 2.35-5.63 2.35-8.88 0-1.64.89-3.75 2.1-4.83 3.39-3.04 5.27-6.67 6.51-11.01 2.78-9.77 6.18-19.38 8.86-29.18 1.52-5.55 2.14-11.35 3.09-17.05.37-2.2.01-4.64.84-6.62 5.11-12.31 6.77-25.43 9.39-38.33 2.2-10.83 4.32-21.75 9.34-31.73 1.58-3.14 2.87-6.16 3.11-9.72.41-5.97-1-7.88-6.9-7.91-1.69-.01-3.42.85-5.06 1.48-10.92 4.18-22.22 5.91-33.87 5.29-9.13-.48-18.25-1.32-27.39-1.63-8.7-.3-17.41-.1-26.11-.15-9.84-.06-19.7-.47-29.36 2.1-5.44 1.45-5.49 1.45-5.42 6.94.03 2.12.17 4.25.32 6.37 1 13.93 1.98 27.86 3.05 41.79.44 5.66.88 11.34 1.69 16.96 1.24 8.62 3.46 17.14 4.09 25.8 1 13.71.97 27.49 1.48 41.23.22 6.03 1.14 12.07.95 18.07-.28 9.16-1.26 18.29-1.95 27.44z" fill="#010102"/><path d="m199.34 174.51c.27-11.41 1.39-23.08 4.74-34.41 1.02-3.47.42-5.87-2.68-8.03-4.55-3.17-5.31-6.56-3.04-13.4 1.2-3.62 4.88-3.62 8.01-4.39 7.11-1.73 13.69.81 20.39 2.29.99.22 2.05 1.32 2.55 2.29 2.73 5.2 4.62 10.78 9.13 15.05 2.65 2.5 2.6 6.47 1.58 9.85-3.65 12.15-7.03 24.43-11.54 36.26-2.63 6.9-7.05 13.15-10.98 19.5-2.2 3.55-7.64 4.75-11.45 2.91-.86-.42-1.57-1.48-2.01-2.41-3.81-7.96-4.53-16.51-4.7-25.51z" fill="#010102"/><g fill="#fcfbfa"><path d="m385.2 377.6.6-.7c.6.4 1.3.9 1.9 1.5l-.6.7c-.8-.5-1.4-1-1.9-1.5zm.3 7.1c.6-1.4 1.1-2.9 1.5-4.5.3.1.6.3.9.4-.5 1.4-1 2.9-1.5 4.4zm.2-10.1.6-.6c.7.5 1.3 1.1 1.9 1.6l-.7.7c-.6-.6-1.2-1.2-1.8-1.7zm8.4-.8h.8v.9h1.8v.7h-1.8v1.8h-.8v-.3h-1.2v.9h3.3v2.6h-.8v-.4h-2.5c0 .3 0 .6-.1.8h3.4v.7h-3.5c0 .3-.1.6-.1.8h4v.7h-3.5c.7.9 1.9 1.3 3.6 1.5-.2.2-.4.5-.6.9-1.9-.3-3.2-1.1-3.8-2.3-.5 1.1-1.8 2-3.9 2.4-.2-.3-.4-.5-.6-.8 1.9-.4 3.1-.9 3.6-1.7h-3.2v-.7h3.5c.1-.2.1-.5.2-.8h-3.3v-.7h3.4c0-.2 0-.5 0-.8h-2.4v.3h-.8v-2.6h3.3v-.9h-1.2v.3h-.8v-1.8h-1.8v-.7h1.8v-.9h.8v.9h3.2zm-4.4 5.5h2.4c0-.3 0-.6 0-.9h-2.4zm1.2-3.1h3.2v-.8h-3.2zm4.4 2.2h-2.4v.9h2.5v-.9z"/><path d="m389.2 385.8h.9v1.5h1.9v-1.5h.9v1.5h2.7v6h1.1v.9h-11.3v-.9h1.1v-6h2.7zm.2 8.7.5.8c-1.2.6-2.5 1.3-4 1.9-.2-.3-.3-.6-.6-.8 1.6-.6 3-1.3 4.1-1.9zm-2-4.3h1.9v-2.1h-1.9zm0 3.1h1.9v-2.2h-1.9zm2.7-3.1h1.9v-2.1h-1.9zm0 3.1h1.9v-2.2h-1.9zm2.4 1.3c1.4.6 2.7 1.2 4.1 1.8l-.5.9c-1.5-.7-2.8-1.4-4.1-1.9zm2.2-6.5h-1.9v2.1h1.9zm-1.9 5.2h1.9v-2.2h-1.9z"/></g></svg>