<svg enable-background="new 0 0 400 400" viewBox="0 0 400 400" xmlns="http://www.w3.org/2000/svg"><path d="m361.2 9.6.8-1c.9.7 1.9 1.4 2.9 2.3l-.9 1.1c-1-1-2-1.8-2.8-2.4zm.5 10.6c.9-2.1 1.6-4.3 2.3-6.7.4.2.8.4 1.3.6-.7 2.1-1.5 4.3-2.2 6.6zm.4-15.2.9-.9c1 .8 2 1.6 2.8 2.4l-1 1c-.9-.9-1.8-1.7-2.7-2.5zm12.5-1.2h1.2v1.4h2.7v1.1h-2.7v2.7h-1.2v-.6h-1.8v1.3h4.9v3.8h-1.2v-.5h-3.7c0 .4-.1.9-.1 1.2h5.1v1h-5.2c0 .5-.1.9-.2 1.2h6v1h-5.2c1.1 1.3 2.9 2 5.5 2.2-.4.4-.7.8-.9 1.3-2.9-.5-4.8-1.6-5.7-3.5h-.1c-.8 1.7-2.7 2.9-5.9 3.6-.2-.4-.6-.8-.9-1.1 2.8-.6 4.6-1.4 5.4-2.5h-4.8v-1h5.3c.1-.3.2-.7.2-1.2h-4.9v-1h5c0-.4 0-.8.1-1.2h-3.5v.5h-1.2v-3.8h4.9v-1.3h-1.8v.5h-1.2v-2.7h-2.7v-1h2.6v-1.4h1.2v1.4h4.7v-1.4zm-6.6 8.3h3.6c0-.4 0-.9 0-1.4h-3.6zm1.9-4.6h4.7v-1.3h-4.7zm6.6 3.2h-3.7v1.4h3.7z" fill="#fbfcfa"/><path d="m385.3 3.8h1.3v2.2h2.8v-2.2h1.3v2.2h4.1v9.1h1.7v1.3h-16.9v-1.3h1.7v-9.1h4.1v-2.2zm.4 13.1.7 1.2c-1.8.9-3.8 1.9-6 2.9-.2-.4-.5-.8-.8-1.3 2.3-1 4.3-1.9 6.1-2.8zm-3.1-6.4h2.8v-3.2h-2.8zm0 4.6h2.8v-3.3h-2.8zm4-4.6h2.8v-3.2h-2.8zm0 4.6h2.8v-3.3h-2.8zm3.7 1.9c2.1.9 4.1 1.8 6.1 2.7l-.7 1.3c-2.2-1.1-4.2-2-6.1-2.9zm3.2-9.7h-2.8v3.2h2.8zm-2.8 7.8h2.8v-3.3h-2.8z" fill="#fbfcfa"/><g fill="#010105"><path d="m95.29 359.03c19.37-2.55 38.32-5.04 57.28-7.55.87-.12 1.78-.27 2.58-.62 22.07-10.03 44.73-18.83 65.66-31.27 16.31-9.7 31.54-20.86 45.47-33.74 19.84-18.34 26.52-41.27 23.32-67.58-.03-.22-.13-.45-.11-.66.63-7.07-3.42-10.33-9.64-11.58-4.59-.92-9.23-2.1-13.86-2.16-14.68-.21-27.86-4.84-40.14-12.52-9.1-5.69-18.43-11.08-27.16-17.31-7.45-5.31-14.17-11.65-21.25-17.48-7.78-6.4-15.36-12.91-21.14-21.38-3.83-5.62-10.18-5.64-15.22-1.02-13.37 12.26-28.92 20.26-46.92 22.87-11.79 1.71-23.01-.8-33.12-7.1-4.26-2.66-7.2-6.64-7.46-12.09-.11-2.44.57-3.66 3.2-3.93 4.89-.5 9.79-1.1 14.61-2.05 3.56-.7 7.14-1.72 10.47-3.16 6.66-2.88 13.03-6.47 19.75-9.19 10.34-4.18 19.09-10.48 27.06-18.16 13.86-13.36 27.94-26.49 41.88-39.77 15.99-15.23 34.31-26.82 54.69-35.22.91-.37 1.92-.68 2.89-.7 10.57-.23 21.06.57 31.16 3.84 11.48 3.71 19.61 11.83 26.36 21.41 2.89 4.11 5.09 8.7 7.94 12.83 5.58 8.08 11.5 15.93 17.12 23.99 11.86 17.02 18.11 36.28 22.21 56.38 3.47 17.04 5.29 34.23 5.49 51.64.09 8.03 1 16.1 2.19 24.05 1.14 7.63.6 15.02-1.94 22.13-4.93 13.78-10.26 27.41-15.48 41.08-.39 1.02-1.12 1.93-1.77 2.84-5.65 7.92-11.75 15.57-16.9 23.81-9.59 15.35-23.63 25.52-38.84 34.25-30.13 17.29-62.88 26.53-97.25 30.4-20.31 2.28-40.5 1.52-60.19-4.16-5.34-1.51-10.56-4.7-12.94-11.12zm195.13-188.71c.5-.29 1.55-.64 2.24-1.35 2.18-2.25 4.35-4.52 6.25-7 .68-.89.96-2.46.77-3.6-.95-5.62-1.96-11.23-3.26-16.77-1.5-6.37-2.19-13.3-5.26-18.87-6.13-11.11-13.35-21.67-20.67-32.07-6.96-9.9-15.13-18.82-24.6-26.47-3.93-3.18-8.96-3.58-13-2.34-12.78 3.92-24.21 10.54-32.83 21.07-8.74 10.68-17.94 20.87-28.91 29.3-1.63 1.25-1.77 2.33-.7 3.89 2.4 3.49 4.23 7.57 7.26 10.38 7.62 7.05 15.76 13.54 23.73 20.2.64.54 1.59.83 2.44.98 11.02 1.91 21.21 6.13 31.1 11.16 8.01 4.07 16.18 7.78 25.14 8.9 7.62.95 15.34 1.12 23.01 1.69 2.24.16 4.45.54 7.29.9z"/><path d="m273.62 145.25c-6.32 2.05-12.5 3.09-19.11.33-5.29-2.21-10.97-3.5-16.46-5.24-1.47-.46-3.04-.85-4.31-1.66-7.61-4.85-15.82-8.18-24.6-10.26-8.22-1.95-11.43-5.97-11.27-14.5.08-4.21.81-8.43 1.55-12.6.19-1.04 1.39-2.19 2.42-2.75 14.65-8.07 28.21-4 40.07 5.39 13.79 10.91 24.52 24.68 31.71 41.29z"/></g></svg>