<svg enable-background="new 0 0 400 400" viewBox="0 0 400 400" xmlns="http://www.w3.org/2000/svg"><g fill="#fcfafa"><path d="m342.2 3.2-6.3 9.2h6.1v1.2h-8.2v-.5l6.2-9.1h-5.7v-1.2h7.8v.4z"/><path d="m344 13.7v-10.9h3.1c1.6 0 3 .5 4.1 1.4 1.1 1 1.6 2.2 1.6 3.9s-.5 3-1.6 4-2.5 1.5-4.2 1.5h-3zm1.4-9.6v8.4h1.6c1.4 0 2.5-.4 3.2-1.1.8-.8 1.2-1.8 1.2-3.2s-.4-2.4-1.2-3.1-1.8-1-3.1-1z"/><path d="m356.3 2.8v10.9h-1.4v-10.9z"/><path d="m366.6 13.2c-.8.4-1.8.6-3 .6-1.6 0-2.8-.5-3.7-1.5s-1.4-2.3-1.4-3.9c0-1.7.5-3.2 1.6-4.2s2.4-1.6 4-1.6c1 0 1.9.1 2.6.4v1.5c-.8-.4-1.6-.6-2.6-.6-1.2 0-2.2.4-3 1.2s-1.1 1.9-1.1 3.3c0 1.3.4 2.3 1.1 3.1s1.6 1.1 2.8 1.1c1.1 0 2-.2 2.8-.7v1.3z"/><path d="m368.2 13c0-.3.1-.5.3-.6.2-.2.4-.3.6-.3.3 0 .5.1.7.3s.3.4.3.6-.1.5-.3.6c-.2.2-.4.3-.7.3s-.5-.1-.6-.3c-.2-.2-.3-.4-.3-.6z"/><path d="m381.1 13.7h-1.7l-5.5-8.4c-.2-.2-.3-.5-.4-.7 0 .2.1.8.1 1.5v7.6h-1.4v-10.9h1.8l5.3 8.3c.3.4.4.6.4.8 0-.3-.1-.8-.1-1.6v-7.5h1.4v10.9z"/><path d="m389.7 13.7h-5.8v-10.9h5.6v1.2h-4.2v3.5h3.9v1.2h-3.9v3.7h4.4z"/><path d="m398.4 4.1h-3.1v9.6h-1.4v-9.6h-3.1v-1.3h7.7v1.3z"/></g><path d="m94.66 367.98c14.22-7.23 28.06-14.77 42.33-21.41 23.4-10.9 43.86-25.56 62.17-43.78 13.85-13.79 29.14-26.14 43.66-39.27 9.41-8.5 18.23-17.56 24.22-28.93 1.3-2.46 2.38-5.03 3.8-8.05-3.35-.67-6.33-1.32-9.34-1.88-36.93-6.8-73.89-13.46-110.77-20.55-3.88-.75-7.56-3.64-10.82-6.19-6.94-5.42-11.25-12.94-15.05-20.72-4.31-8.8-10.19-16.31-18.33-21.83-1.7-1.15-4.02-2.03-6.04-2-17.1.29-33.21-4.09-48.87-10.32-7.61-3.03-13.8-8.11-17.92-15.97 7.05-1.24 13.74-2.45 20.45-3.59 13.37-2.28 25.52-7.89 37.76-13.43 33.38-15.1 63.27-36.04 93.89-55.76 5.45-3.51 10.95-6.95 16.31-10.6 11.45-7.79 24.38-11.86 37.78-13.83 15.36-2.25 30.87-3.89 46.37-4.6 15.86-.73 29.68 5.54 41.6 15.87 11.27 9.76 18.42 22.37 24.1 35.89 5.72 13.62 9.29 27.75 9.55 42.6.16 9.2-.61 18.28-3.65 27.09-3.57 10.35-6.24 21.06-10.51 31.1-10.6 24.94-22.75 49.03-40.22 70.13-19.73 23.82-43.31 43.28-68.06 61.5-33.3 24.51-69.46 43.99-107.05 60.92-8.87 3.99-18.37 5.87-28.12 5.04-8.07-.69-6.13.93-9.24-7.43zm30.99-214.25c.45 4.17 4.1 9.44 8.12 11.59 19.9 10.6 41.14 17.26 63.18 21.52 28.85 5.57 57.72 11 86.6 16.37 1.1.2 2.77-.53 3.61-1.38 5.65-5.74 11.16-11.61 16.66-17.5.89-.95 1.71-2.11 2.15-3.32 3.12-8.49 6.21-16.99 9.07-25.57.37-1.11-.22-3.06-1.07-3.95-3.13-3.3-7.31-3.43-11.54-3.16-5.69.36-11.39 1.14-17.06.91-24.79-.99-49.58-2.24-74.36-3.53-1.63-.08-3.45-.92-4.77-1.94-12.65-9.79-25.21-19.69-37.79-29.56-1.2-.94-2.13-1.97-4.07-.93-7.25 3.91-13.91 8.52-19.22 14.9-5.93 7.14-11.9 14.25-17.74 21.46-.89 1.11-1.19 2.72-1.77 4.09zm65.77-56.44c2.86 5.08 6.18 8.29 11.39 9.08 1.09.16 2.11.73 3.18 1.05 11.86 3.52 23.28 8.65 35.89 9.39 7.36.43 14.79.71 22.04 1.94 15.27 2.58 29.77 7.79 43.9 14.09 2.03.9 4.16 1.72 6.32 2.12 4.52.83 6.92-.73 8.1-5.05 4.62-16.89 1.77-33-5.26-48.63-4.75-10.55-11.79-18.96-22.69-23.59-7.01-2.98-13.8-4.23-21.6-1.42-18.14 6.54-35.78 14.06-52.48 23.67-9.67 5.56-19.12 11.5-28.79 17.35z" fill="#010103"/></svg>