<svg enable-background="new 0 0 400 400" viewBox="0 0 400 400" xmlns="http://www.w3.org/2000/svg"><path d="m5.17 384 .55-.58c.85.61 1.65 1.24 2.4 1.87l-.59.64c-.83-.73-1.62-1.38-2.36-1.93m1.22 9.53-.82-.34c.71-1.76 1.37-3.64 1.98-5.63.24.13.5.25.76.36-.6 1.67-1.24 3.54-1.92 5.61m-.5-13.5.57-.54c.56.44 1.31 1.06 2.26 1.87l-.64.64c-.68-.66-1.41-1.32-2.19-1.97m3.25.46h2.24v-1.36h.77v1.36h4.57v-1.36h.76v1.36h2.28v.69h-2.28v1.84h-2.64v1.26h4.18v2.64h-4.21c0 .45-.02.86-.05 1.21h4.32v.69h-4.38c-.04.34-.1.75-.19 1.22h5.15v.69h-4.82c.87 1.19 2.51 1.92 4.93 2.19-.17.31-.3.57-.37.76-2.77-.49-4.52-1.41-5.26-2.76-.56 1.26-2.3 2.23-5.24 2.9-.12-.24-.26-.48-.43-.72 2.73-.55 4.38-1.34 4.96-2.38h-4.38v-.69h4.65c.1-.38.17-.79.21-1.22h-4.32v-.69h4.4c.03-.34.05-.75.05-1.21h-4.2v-2.64h4.23v-1.26h-2.69v-1.84h-2.24zm1.46 4.46v1.29h3.45c.01-.4.02-.57.01-.53v-.32-.45h-3.46zm1.55-2.59h4.57v-1.19h-4.57zm6.11 2.59h-3.42v.77c-.01.19-.01.37-.02.53h3.44z" fill="#fafafc"/><path d="m32.63 379.16h.82v1.98h3.54v7.89h1.46v.78h-14.37v-.78h1.46v-7.89h3.54v-1.98h.82v1.98h2.73zm-3.49 11.48.5.73c-1.61.82-3.28 1.63-5 2.41-.13-.27-.28-.55-.44-.82 1.75-.72 3.4-1.49 4.94-2.32m-2.78-5.55h2.73v-3.18h-2.73zm0 3.95h2.73v-3.2h-2.73zm3.54-3.95h2.73v-3.18h-2.73zm0 3.95h2.73v-3.2h-2.73zm7.89 4.68c-1.84-.92-3.51-1.7-5.02-2.32l.45-.73c1.89.8 3.57 1.55 5.04 2.23zm-1.62-11.81h-2.73v3.18h2.73zm-2.73 7.13h2.73v-3.2h-2.73z" fill="#fafafc"/><path d="m38.97 180.92c4.15-.08 7.14.82 9.32 4.14 6.57 9.99 13.21 19.94 20.03 29.76 4.33 6.23 8.96 12.26 13.58 18.28 1.11 1.45 2.75 2.5 4.83 4.34.61-7.61 1.77-14.37 1.57-21.09-.55-18.57-1.66-37.12-2.64-55.67-.05-.89-.79-2.08-1.55-2.53-6.53-3.84-13.68-5.52-21.21-5.11-10.94.59-21.86 1.39-32.79 2.15-4.38.3-6.53-1.16-8.22-6.09 5.47-1.5 10.93-3 16.39-4.47 4.53-1.22 9.14-2.2 13.6-3.64 8.71-2.82 17.58-4.2 26.72-3.96.87.02 1.75-.13 2.83-.22.05-.86.21-1.62.12-2.33-1.36-10.54-2.84-21.06-4.07-31.62-.32-2.77-1.57-3.91-4.12-4.71-8.1-2.52-16.11-5.31-24.16-8-.07-.31-.15-.63-.22-.94 4.05-1.69 8.05-3.52 12.17-5.03 3.66-1.35 7.47-2.3 11.18-3.53 2.26-.75 2.96-2.08 2.21-4.64-2.77-9.43-5.26-18.95-7.85-28.44-.29-1.05-.52-2.12-.75-3.06 2.52-1.88 4.21-1.19 5.78.96 2.7 3.7 5.73 7.17 8.27 10.97 3.72 5.56 6.12 11.69 6.36 18.47.11 2.89 1.73 4.53 4.23 4.78 2.69.28 5.69.25 7.25-2.76 2.15-4.16 3.19-8.59 2.72-13.29-.75-7.53 1.4-14.35 4.84-20.87l1.08-.18c1.12 5.72 2.31 11.44 3.33 17.18.29 1.63.08 3.35.14 5.03.28 7.72 3.62 10.14 10.77 12.73 7.25 2.62 13.94 1.94 21.19 1.36 8.31-.67 16.75.42 25.13.57 7.48.13 9.75-2.9 7.8-10-1.41-5.1-.05-7.1 5.7-7.96 1.2 3.74 2.56 7.51 3.58 11.36.59 2.23 1.75 3.02 3.98 3.1 18.55.68 37.1 1.45 55.65 2.18 2.46.1 4.93.02 7.37.26 2.4.24 3.99-.69 4.58-2.92 1.84-7 3.62-14.01 5.3-21.05 1.16-4.86 1.92-9.86 5.56-13.64.4-.02.8-.04 1.2-.06.66 4.63 1.61 9.25 1.9 13.9.36 5.8.11 11.64.26 17.46.11 4.45 1.66 6.43 5.93 7.76 3.69 1.15 3.12 4.47 3.85 7.14.59 2.17-.19 3.74-2.28 4.51-5.55 2.06-7.02 5.91-5.6 11.49.77 3.01.69 6.23 1.24 9.3.2 1.11.94 2.51 1.83 2.95.6.3 2.16-.62 2.88-1.38 11.31-11.91 20.48-25.38 28.93-39.41 7.21-11.97 14.89-23.66 22.2-35.58 1.43-2.33 3.07-2.89 5.16-1.64 2.16 1.29 4.44 2.71 5.97 4.64 1.69 2.12 1.81 4.65-.83 6.72-10.04 7.87-16.94 18.13-21.59 29.83-8.08 20.31-21.15 37.27-35.31 53.49-2.06 2.36-5.68 3.35-8.99 5.2 1.4 5.82 2.8 11.88 4.38 17.89.21.8 1.3 1.44 2.08 2.02 2.87 2.13 5.9 4.07 8.64 6.35 1.32 1.1 2.45 2.67 3.15 4.25 1.6 3.61.73 5.21-2.99 6.31-1.61.48-3.58.54-4.73 1.54-1.62 1.42-2.62 3.54-3.88 5.36 1.44.85 2.88 2.39 4.33 2.41 4.09.06 8.52.37 12.23-1 10.67-3.94 21.63-7.67 31.32-13.44 5.77-3.43 10.02-10.11 13.78-16.08 8.03-12.75 13.16-26.83 16.84-41.44 1.25-4.98 2.88-9.83 7.44-13.46 5.35 8.78 8 17.89 4.93 27.65-3.05 9.68-6.75 19.18-10.57 28.59-1.09 2.69-3.79 4.68-5.41 7.2-8.14 12.62-19.49 20.81-33.74 25.31-11.81 3.73-23.54 7.72-35.31 11.59-.52.17-1.05.32-2.04.62.56 4.97 1.03 9.93 1.75 14.86.11.77 1.25 1.54 2.08 2.02 8.33 4.78 16.74 9.41 25.03 14.25 5.28 3.08 10.66 6.11 15.52 9.79 3.76 2.84 6.09 7.03 6.83 12.54-7.48-2.65-14.62-5.03-21.63-7.75-1.65-.64-2.69-2.71-4.3-3.62-5.12-2.88-10.76-2.76-16.35-2.11-.79.09-2 1.61-2.02 2.48-.1 4.32.12 8.65.27 12.98.09 2.55.65 5.15.33 7.64-.39 3.02-2.44 3.51-4.58 1.39-1.11-1.1-2.06-2.42-3.29-3.35-5.2-3.93-6.36-9.4-6.24-15.45.08-3.99-.77-5.13-4.65-4.41-3.62.67-7.46 1.79-10.46 3.82-7.1 4.81-13.76 10.28-21.21 15.97.33-6.05-.63-11.23 4.79-15.5 7.63-6.01 14.45-13.05 21.7-19.54 1.55-1.38 1.97-2.58 1.33-4.62-1.38-4.37-2.29-8.88-3.67-13.24-.36-1.12-1.6-2.38-2.71-2.78-7.29-2.59-14.9-2.57-22.53-2.46-8.25.12-13.76-4.32-15.76-12.29-.08-.31-.05-.65-.12-1.89 8.49 1 16.79 1.89 25.07 2.98 8.23 1.09 12.23-2.36 11.95-10.54-.13-3.74-2.84-6.44-6.55-5.64-5.08 1.09-9.72-.11-14.49-1.38-17.11-4.54-34.63-5.31-52.53-5.64-1.58 6.08-1.44 12.11.11 17.91 3.66 13.65 8.94 26.59 16.97 38.42 8.5 12.53 15.64 25.82 18.69 40.9.19.96.24 1.96.37 3.15-2.25.52-4.28 1.17-6.36 1.37-.84.08-2.16-.62-2.62-1.36-4.26-6.92-8.64-13.79-12.47-20.94-3.5-6.53-7.23-12.78-13.09-18.06-3.55 7.91-5.26 15.93-6.45 24.07-1.41 9.61-2.43 19.29-4.17 28.84-.97 5.33-3.7 10.08-8.2 13.47-1.13.85-2.43 1.47-3.72 2.24-3.67-4.06-4.05-8.59-3.09-13.37 3.96-19.84 7.97-39.67 11.97-59.5 1.58-7.84.9-15.58-1.08-23.25-2.41-9.35-4.53-18.7-2.6-28.45.3-1.49.1-3.14-.16-4.67-.7-4.17-2.23-5.65-6.39-5.84-19.78-.9-39.55-1.74-59.33-2.55-2.54-.1-4.67 3.33-4.43 7.11.15 2.45.78 4.89.71 7.33-.13 4.46-.89 8.92-.91 13.38-.07 15.21.06 30.42.13 45.63 0 .2.19.39.33.67 3.54.3 6.43-.51 9.28-3.19 11.57-10.87 22.99-22.01 36.74-30.22 4.03-2.41 8.58-3.94 13.02-5.94 1.17 3.7.35 5.8-1.91 7.89-13.15 12.15-26.29 24.32-39.19 36.74-6.46 6.22-11.95 13.31-15.95 21.45-1.08 2.19-.97 3.95.05 6.24 8 18.03 19.57 33.83 30.84 49.81 6.7 9.5 11.07 19.89 12.3 31.52.33 3.15.33 3.15-2.42 3.16.54-3.64-1.79-5.77-4-8.26-6.75-7.6-13.31-15.37-19.73-23.26-6.92-8.51-13.59-17.22-20.38-25.83-.54-.69-1.15-1.33-1.97-2.28-3.58 5.71-4.9 11.88-5.72 18.13-1.68 12.75-3.03 25.55-4.72 38.3-.44 3.29-1.3 6.63-2.65 9.64-1.12 2.5-3.26 4.54-4.95 6.79-.49-.1-.99-.21-1.48-.31-.79-3.03-1.95-6.01-2.31-9.09-1.19-10.24 1.54-19.96 4.39-29.64 2.25-7.64 4.19-15.36 3.65-23.41-.2-3.04-1.12-6.04-1.72-9.09-9.83 6.26-19 12.38-28.45 18.02-9.36 5.59-18.73 11.32-29.36 14.02-2.49-2.47-1.86-4.13.34-6.22 12.41-11.79 26.71-21.01 40.92-30.35 5.14-3.38 10.34-6.68 15.35-10.25 6.94-4.94 7.5-11.22 2.13-17.77-11.39-13.92-20.22-29.52-28.77-45.24-5.28-9.7-9.69-19.87-14.44-29.85-.6-1.25-.9-2.7-1.44-4.38zm143.41-87.8c1.14 3.63 2.15 6.24 2.78 8.94 1.73 7.43.1 14.64-1.68 21.83-1.82 7.35-2.54 14.73-.52 22.2.55 2.04 1.37 3.17 3.7 3.46 6.87.84 13.7 2.03 20.56 2.99 6.08.85 12.17 2.14 18.27 2.23 9.93.15 19.87-.51 29.81-.83 1.16-.04 2.32-.1 3.56-.16-1.3-20-2.56-39.59-3.86-59.61-9.16-.89-17.9-2.19-26.68-2.48-12.85-.42-25.72-.18-38.58-.04-2.42.03-4.84.94-7.36 1.47zm-13.39 51.26c1.37-15.52 2.76-30.89 4.08-46.27.4-4.7.35-5.11-4.46-5.45-10.36-.75-20.79-.72-31.14-1.61-8.9-.76-17.02 1.01-24.75 5.22-.2.11-.4.23-.61.28-2.28.5-2.35 1.95-2.22 4.01.28 4.31.62 8.73.01 12.97-.69 4.83-2.51 9.48-3.61 14.26-1 4.35-.89 8.72 1.4 12.7.54.94 1.89 1.85 2.97 1.98 11.55 1.37 23.11 2.66 34.68 3.8 7.93.78 15.8.37 23.65-1.89z" fill="#010101"/></svg>