<svg enable-background="new 0 0 400 400" viewBox="0 0 400 400" xmlns="http://www.w3.org/2000/svg"><path d="m113.75 176.08c-12.95-1.16-25.1-2.15-37.21-3.37-6.32-.64-12.63-1.56-18.9-2.62-1.79-.3-3.6-1.28-5.09-2.38-3.31-2.45-3.15-6.7.11-9.31 6.36-5.09 13.82-7.08 21.75-7.81 7.01-.65 14.04-1.29 21.02-2.22 1.54-.21 3.3-1.3 4.32-2.51 5.24-6.25 10.18-12.75 15.42-19 3.75-4.46 5.19-9.48 4.83-15.51-6.19-.57-12.29-1.14-18.38-1.68-9.69-.86-19.39-1.72-29.08-2.54-4.78-.4-9.62-.35-14.33-1.15-4.86-.82-7.04-3.75-6.58-7.8.09-.8.73-1.81 1.41-2.24 4.9-3.1 9.86-6.08 14.83-9.07 3.35-2.02 6.71-4.01 10.09-5.97 5.11-2.98 10.56-3.3 16.19-1.92 2.6.64 5.3 1.03 7.8 1.95 11.03 4.06 22.03-4.35 22.66-16.71.18-3.54-.65-7.12-.72-10.69-.07-3.56.11-7.15.38-10.7.27-3.5 1.8-6.17 4.97-8.16 3.48-2.19 6.67-4.9 9.79-7.62 1.76-1.54 3.45-1.73 5.53-1.1 6.45 1.94 9.79 6.42 10.45 12.94.76 7.56 1.34 15.14 1.94 22.72.48 6.06 3.39 10.45 8.91 13.23 4.65-4.3 10.48-3.6 16.13-3.36 12.84.54 25.72.74 38.48 2.04 9.77.99 18.59 4.97 23.85 14 1.39 2.39 1.69 5.48 2.16 8.31.14.83-.65 2.1-1.39 2.75-9.23 8.2-19.79 12.58-32.4 12.15-10.16-.35-20.34.35-30.51.23-7.25-.08-14.51-.61-21.73-1.21-2.49-.21-3.76.35-4.87 2.68-4.8 10.08-9.82 20.06-14.83 30.2 3.3 3.67 7.63 3.74 11.99 3.97 2.62.14 5.22.81 7.82 1.25 2.5.42 5 1.19 7.51 1.23 9.96.14 19.94.32 29.89-.03 7.56-.26 15.15-.96 22.63-2.09 8.06-1.21 15.64.1 22.92 3.24 5.94 2.57 7.09 9.1 3.69 14.59-2.73 4.41-6.24 5.77-11.21 6.07-12.84.78-25.64 2.09-38.44 3.34-1.05.1-2.35 1.16-2.9 2.13-1.85 3.31-3.51 6.74-5.08 10.2-6.55 14.5-16.72 26.68-25.5 39.75-3.92 5.83-8.43 11.27-12.8 16.79-3.06 3.87-2.89 7.49.62 10.86 18.81 18.1 40.71 31.72 63.7 43.71 17.25 8.99 34.51 17.94 51.88 26.7 3.14 1.58 6.82 2.06 10.22 3.12 9.05 2.82 18 5.98 27.14 8.47 13.54 3.68 27.25 2.87 40.93.47 6.59-1.15 13.21-2.14 20.14-3.25.76 3.25 1.58 6.25 2.1 9.29.13.77-.4 2-1.04 2.51-10.37 8.49-20.57 17.22-31.3 25.24-9.42 7.04-20.53 6.42-31.32 4.3-6.63-1.3-13.08-3.73-19.45-6.07-11.95-4.39-23.79-9.08-35.67-13.68-1.66-.64-3.28-1.4-4.88-2.2-28.75-14.25-54.71-33.07-81.85-49.97-6.8-4.24-13.19-9.26-21.52-10.41-.89-.12-1.82-1.2-2.39-2.06-1.6-2.42-3.2-4.88-4.49-7.47-2.22-4.45-5.16-8.05-10.04-9.69-1.69-.57-1.97-1.62-1.72-3.36 1.09-7.41 1.96-14.86 3-22.28.14-1.04.52-2.26 1.22-2.96 12.67-12.83 21.89-28.28 32.53-42.66 3.72-5.03 7.67-9.92 11.83-14.6 3.1-3.49 1.57-7.4 1.71-11.16.02-.49-1.22-1.17-1.99-1.52-5.03-2.33-10.38-2.77-15.77-2.13-4.65.55-9.21 1.89-13.86 2.41-5.44.6-7.6 4.23-8.75 8.75-.71 2.79-.87 5.74-1.12 8.63-.71 8.15-4.63 14.95-9.45 21.15-5.07 6.52-10.44 12.88-16.23 18.76-5.38 5.46-10.39 11.1-13.98 17.88-3.99 7.54-10.34 12.5-17.56 16.55-11.3 6.34-22.55 12.75-33.95 18.9-2.79 1.51-6 2.52-9.13 3.05-3.99.67-6.13-2.28-4.43-5.97 1.2-2.6 2.73-5.16 4.6-7.31 14.8-16.89 31.7-31.58 48.72-46.12 14.29-12.2 23.52-27.99 31.95-44.36 1.26-2.34 1.35-5.3 2.08-8.51z" fill="#010000"/><g fill="#fbfcfa"><path d="m361.2 9.6.8-1c.9.7 1.9 1.4 2.9 2.3l-.9 1.1c-1-1-2-1.8-2.8-2.4zm.5 10.6c.9-2.1 1.6-4.3 2.3-6.7.4.2.8.4 1.3.6-.7 2.1-1.5 4.3-2.2 6.6zm.4-15.2.9-.9c1 .8 2 1.6 2.8 2.4l-1 1c-.9-.9-1.8-1.7-2.7-2.5zm12.5-1.2h1.2v1.4h2.7v1.1h-2.7v2.7h-1.2v-.6h-1.8v1.3h4.9v3.8h-1.2v-.5h-3.7c0 .4-.1.9-.1 1.2h5.1v1h-5.2c0 .5-.1.9-.2 1.2h6v1h-5.2c1.1 1.3 2.9 2 5.5 2.2-.4.4-.7.8-.9 1.3-2.9-.5-4.8-1.6-5.7-3.5h-.1c-.8 1.7-2.7 2.9-5.9 3.6-.2-.4-.6-.8-.9-1.1 2.8-.6 4.6-1.4 5.4-2.5h-4.8v-1h5.3c.1-.3.2-.7.2-1.2h-4.9v-1h5c0-.4 0-.8.1-1.2h-3.5v.5h-1.2v-3.8h4.9v-1.3h-1.8v.5h-1.2v-2.7h-2.7v-1h2.6v-1.4h1.2v1.4h4.7v-1.4zm-6.6 8.3h3.6c0-.4 0-.9 0-1.4h-3.6zm1.9-4.6h4.7v-1.3h-4.7zm6.6 3.2h-3.7v1.4h3.7z"/><path d="m385.3 3.8h1.3v2.2h2.8v-2.2h1.3v2.2h4.1v9.1h1.7v1.3h-16.9v-1.3h1.7v-9.1h4.1v-2.2zm.4 13.1.7 1.2c-1.8.9-3.8 1.9-6 2.9-.2-.4-.5-.8-.8-1.3 2.3-1 4.3-1.9 6.1-2.8zm-3.1-6.4h2.8v-3.2h-2.8zm0 4.6h2.8v-3.3h-2.8zm4-4.6h2.8v-3.2h-2.8zm0 4.6h2.8v-3.3h-2.8zm3.7 1.9c2.1.9 4.1 1.8 6.1 2.7l-.7 1.3c-2.2-1.1-4.2-2-6.1-2.9zm3.2-9.7h-2.8v3.2h2.8zm-2.8 7.8h2.8v-3.3h-2.8z"/></g></svg>