<svg enable-background="new 0 0 400 400" viewBox="0 0 400 400" xmlns="http://www.w3.org/2000/svg"><path d="m5.17 384 .55-.58c.85.61 1.65 1.24 2.4 1.87l-.59.64c-.83-.73-1.62-1.38-2.36-1.93m1.22 9.53-.82-.34c.71-1.76 1.37-3.64 1.98-5.63.24.13.5.25.76.36-.6 1.67-1.24 3.54-1.92 5.61m-.5-13.5.57-.54c.56.44 1.31 1.06 2.26 1.87l-.64.64c-.68-.66-1.41-1.32-2.19-1.97m3.25.46h2.24v-1.36h.77v1.36h4.57v-1.36h.76v1.36h2.28v.69h-2.28v1.84h-2.64v1.26h4.18v2.64h-4.21c0 .45-.02.86-.05 1.21h4.32v.69h-4.38c-.04.34-.1.75-.19 1.22h5.15v.69h-4.82c.87 1.19 2.51 1.92 4.93 2.19-.17.31-.3.57-.37.76-2.77-.49-4.52-1.41-5.26-2.76-.56 1.26-2.3 2.23-5.24 2.9-.12-.24-.26-.48-.43-.72 2.73-.55 4.38-1.34 4.96-2.38h-4.38v-.69h4.65c.1-.38.17-.79.21-1.22h-4.32v-.69h4.4c.03-.34.05-.75.05-1.21h-4.2v-2.64h4.23v-1.26h-2.69v-1.84h-2.24zm1.46 4.46v1.29h3.45c.01-.4.02-.57.01-.53v-.32-.45h-3.46zm1.55-2.59h4.57v-1.19h-4.57zm6.11 2.59h-3.42v.77c-.01.19-.01.37-.02.53h3.44z" fill="#fafafc"/><path d="m32.63 379.16h.82v1.98h3.54v7.89h1.46v.78h-14.37v-.78h1.46v-7.89h3.54v-1.98h.82v1.98h2.73zm-3.49 11.48.5.73c-1.61.82-3.28 1.63-5 2.41-.13-.27-.28-.55-.44-.82 1.75-.72 3.4-1.49 4.94-2.32m-2.78-5.55h2.73v-3.18h-2.73zm0 3.95h2.73v-3.2h-2.73zm3.54-3.95h2.73v-3.18h-2.73zm0 3.95h2.73v-3.2h-2.73zm7.89 4.68c-1.84-.92-3.51-1.7-5.02-2.32l.45-.73c1.89.8 3.57 1.55 5.04 2.23zm-1.62-11.81h-2.73v3.18h2.73zm-2.73 7.13h2.73v-3.2h-2.73z" fill="#fafafc"/><path d="m114.62 271.82c-1.26 1.2-2.16 2.01-3.01 2.87-14.17 14.17-28.3 28.38-42.54 42.48-4.13 4.09-8.64 7.79-12.88 11.77-4.34 4.07-9.31 5.55-15.27 4.09-.76-3.68-.39-6.73 2.63-9.85 16.17-16.75 31.87-33.95 48.14-50.6 7.1-7.26 15.1-13.65 22.83-20.27 1.87-1.6 2.07-2.81 1.15-5.04-3.03-7.35-6.84-14.04-11.81-20.41-7.04-9.03-12.94-19-18.92-28.81-2.79-4.59-4.08-9.9-3.8-15.93 4.25 0 8.46-.14 12.65.11.89.05 1.83 1.47 2.5 2.43 6.86 9.81 13.67 19.65 20.51 29.48.63.9 1.3 1.77 2.48 3.37 3.78-27.11 7.45-53.47 11.18-80.23-3.95-1.11-7.77-2.21-11.61-3.26-11.75-3.2-23.49-6.45-35.29-9.48-2.61-.67-3.87-1.63-3.46-4.46.25-1.74.05-3.54.05-5.93 8.03-.51 15.79-1.05 23.56-1.49 6.92-.39 13.86-.61 20.77-1.06.98-.06 2.55-.88 2.75-1.64 2.68-10.25 5.16-20.54 7.74-31.02-6.6-2.52-13.29-3.02-19.97-3.18-6.7-.16-13.45.53-20.11.02-5.14-.39-10.31-1.67-15.21-3.32-3.48-1.17-5.52-4.38-6.46-8.32 7.1-4.64 15.08-6.1 23.3-6.18 8.94-.08 17.89.39 26.84.48 10.23.09 10.22.02 13.5-9.48 2.73-7.91 5.48-15.81 8.2-23.67 8.03.36 11.89 5.66 10.35 13.75-.81 4.26-1.46 8.57-1.87 12.89-.15 1.58.48 3.28.98 4.86.65 2.04 2.09 2.84 4.35 2.83 16.12-.08 32.24-.08 48.36 0 1.96.01 3.29-.51 3.81-2.41 1.44-5.26 2.79-10.55 4.27-15.79.45-1.59 1-3.23 1.87-4.61 2.93-4.62 6.28-4.68 9.45-.38 2.85 3.87 3.84 7.48 2.18 12.66-2.6 8.16.81 12.64 8.64 13.37 2.55.24 5.14.1 7.71.01 1.99-.08 3.98-.36 6.59-.61-1.06-5.43-2.1-10.63-3.07-15.84-.34-1.86-.7-3.76-.67-5.63.04-2.51 1.61-3.67 4.06-3.15 3.21.69 5.87 1.98 7.9 5.01 3.66 5.45 7.71 10.7 12.02 15.65 3.15 3.62 7.73 4.82 12.45 4.93.89.02 2.4-.99 2.6-1.79 1.33-5.15 2.57-10.33 3.43-15.57.56-3.39.04-6.98.71-10.33.43-2.14 1.75-4.47 3.38-5.92 4.18-3.74 7.54-2.71 9.39 2.46 2.39 6.68 1.53 13.46.59 20.24-1.66 12.03.64 15.16 13.98 17.93 4.32.9 9.14.11 13.61-.6 11.97-1.9 16.64 1.51 17.92 14.48-7.97.52-15.92 1.26-23.89 1.47-5.57.14-11.17-.62-16.75-.69-5.49-.07-8.61 2.66-7.86 8.01.81 5.78 2.65 11.5 4.8 16.94.66 1.66 3.7 2.98 5.84 3.35 5.23.9 10.58 1.7 15.86 1.56 10.57-.27 16.27 4.53 16.15 14.83-7.66.24-15.35.47-23.03.71-2.46.08-4.92.27-7.38.2-2.37-.06-2.99 1.02-3.04 3.24-.59 26.63-1.53 53.25-1.75 79.88-.06 7.52 1.77 15.08 3.04 22.58.26 1.51 1.92 2.78 3.16 4.46 5.12-5.35 9.91-10.32 14.67-15.31 4.63-4.86 9.97-8.23 16.92-8.51 2.28-.09 3.38.64 4.5 2.83 2.32 4.54 1.74 7.82-1.54 11.89-11.1 13.75-21.09 28.4-33.6 40.99-2.69 2.71-1.37 5.66-.21 8.04 4.15 8.5 8.2 16.99 15.55 23.58 4.86 4.36 8.81 9.82 12.74 15.1 3.74 5.02 5.6 10.89 5.85 17.69-3.07.32-6.13.78-9.19.84-.78.01-1.73-1.16-2.36-1.98-4.92-6.37-9.7-12.86-14.72-19.16-1.84-2.3-4.19-4.19-6.32-6.27-.25.13-.51.26-.76.39v63.26c-3.95.41-7.56.78-11.27 1.16-3.64-7.64-4.28-15.4-2.37-23.37 1.63-6.82 2.84-13.63.21-20.44-.83-2.15-2.04-4.15-2.97-6.02-5.08 6.12-9.72 12.21-14.9 17.81-5.36 5.78-12.26 8.81-20.19 9.45-1.89.15-2.73-.41-3.3-2.27-2.9-9.42-2.72-9.19 4.02-16.49 9.79-10.59 19.34-21.41 28.68-32.39 2.4-2.82 3.65-6.61 5.41-9.96.97-1.84.4-3.26-.9-4.82-12.84-15.38-25.58-30.84-38.45-46.2-1.79-2.14-2.79-4.03-1.84-6.89.84-2.52 1.11-5.23 1.82-8.84 2.55 1.07 5.36 1.5 7.09 3.1 7.88 7.29 17.21 11.93 27.25 16.01 2.48-6.28 2.53-12.6.6-18.73-3.83-12.22-6.29-24.7-7.43-37.41-.39-4.37.27-8.88.83-13.29.38-2.98.32-5.59-1.22-8.34-1.01-1.81-1.44-4.18-1.41-6.29.15-7.83.47-15.66 1-23.48.18-2.71-.6-3.91-3.27-4.13-8.02-.66-16.02-1.74-24.05-2.01-10.16-.34-20.34.03-30.51-.04-3.05-.02-4.91 1.15-5.48 4.11-.69 3.61-2.09 7.34-1.69 10.85 1.7 15.16-1.43 29.86-3.32 44.71-3.44 27.03-5.54 54.12-1.58 81.3.27 1.88 1.43 4 2.84 5.29 7.83 7.19 16.08 13.92 23.76 21.27 6.29 6.02 9.46 13.51 7.53 22.49-.07.31-.24.6-.47 1.14-2.73 0-5.54.23-8.29-.1-1.23-.15-2.57-1.19-3.45-2.18-6.54-7.36-12.98-14.82-19.46-22.23-.57-.65-1.19-1.26-1.99-2.11-5.43 9.22-8.39 18.93-9.33 29.27-.98 10.81-1.58 21.66-2.88 32.43-.45 3.73-2.12 7.44-3.87 10.84-1.32 2.57-4.05 3.34-7.43 2.17 0-1.1 0-2.29 0-3.47 0-24.85-.29-49.71.14-74.56.18-10.59 1.89-21.16 2.9-31.73 1.7-17.82 3.46-35.63 5.05-53.46.67-7.46 1.05-14.95 1.43-22.43.09-1.84-.31-3.7-.49-5.71-4.66.86-8.3 2.35-11.85 5.03-11.52 8.68-23.4 16.87-35.15 25.25-6.96 4.97-13.19 10.63-18.35 17.55-7.03 9.42-6.78 19.23-2.45 29.46 3.35 7.91 6.74 15.81 10.22 23.67.57 1.29 1.58 2.41 2.5 3.51 8.18 9.81 14.68 20.54 18.15 32.93.5 1.79.61 3.68.95 5.84-3.17.36-6.03.84-8.89.93-.86.03-2.08-.83-2.57-1.62-3.68-5.99-7.44-11.94-10.76-18.13-3.24-6.05-7.08-11.38-13.22-14.74-.47-.26-.98-.44-2.31-1.04-1.07 7.2-2.46 13.97-3.03 20.81-1.2 14.49-1.89 29.01-2.97 43.51-.22 2.97-1.04 5.94-1.89 8.82-.74 2.54-2.71 3.68-5.4 3.63-1.92-.04-2.91-.67-3.39-2.79-3.44-15.18-2.45-30.2 1.12-45.21 3.23-13.56 3.65-27.23.97-40.95-.05-.65-.23-1.17-.54-2.3zm26.02-70c1.5-1.16 2.65-2.02 3.77-2.92 18.73-15.1 37.38-30.29 56.23-45.24 3.53-2.8 5.7-5.76 6.43-10.3 1.16-7.16-1.18-10.57-8.53-10.95-5.13-.27-10.27-.37-15.4-.59-1.55-.06-3.12-.5-4.63-.35-8.9.93-17.77 2.07-26.68 2.95-2.06.2-2.6 1.1-2.8 2.9-.31 2.89-.62 5.8-1.26 8.62-2.59 11.33-5.49 22.58-7.9 33.95-1.51 7.11-2.08 14.36.77 21.93zm14.38-89.34c7.04-.33 13.84-.39 20.59-1.01 9.45-.87 18.86-2.1 28.28-3.29 2.64-.33 4.47-1.54 4.36-4.77-.07-2.2.56-4.43.83-6.64.73-5.94 1.43-11.87 2.17-17.97-5.69-.82-10.97-1.84-16.3-2.26-2.96-.24-6 .49-9 .81-4.56.49-9.12.97-13.67 1.51-5.73.67-11.46 1.4-17.26 2.11zm128.73-3.83c-3.52-6.97-6.35-13.25-9.79-19.19-3.37-5.82-8.73-9.44-15.45-10.09-8.87-.86-17.8-1.18-26.71-1.59-.91-.04-2.01.75-2.77 1.44-2.7 2.46-3.82 5.45-3.66 9.24.27 6.66.08 13.34.08 20.19z" fill="#010101"/></svg>