<svg enable-background="new 0 0 400 400" viewBox="0 0 400 400" xmlns="http://www.w3.org/2000/svg"><path d="m5.17 384 .55-.58c.85.61 1.65 1.24 2.4 1.87l-.59.64c-.83-.73-1.62-1.38-2.36-1.93m1.22 9.53-.82-.34c.71-1.76 1.37-3.64 1.98-5.63.24.13.5.25.76.36-.6 1.67-1.24 3.54-1.92 5.61m-.5-13.5.57-.54c.56.44 1.31 1.06 2.26 1.87l-.64.64c-.68-.66-1.41-1.32-2.19-1.97m3.25.46h2.24v-1.36h.77v1.36h4.57v-1.36h.76v1.36h2.28v.69h-2.28v1.84h-2.64v1.26h4.18v2.64h-4.21c0 .45-.02.86-.05 1.21h4.32v.69h-4.38c-.04.34-.1.75-.19 1.22h5.15v.69h-4.82c.87 1.19 2.51 1.92 4.93 2.19-.17.31-.3.57-.37.76-2.77-.49-4.52-1.41-5.26-2.76-.56 1.26-2.3 2.23-5.24 2.9-.12-.24-.26-.48-.43-.72 2.73-.55 4.38-1.34 4.96-2.38h-4.38v-.69h4.65c.1-.38.17-.79.21-1.22h-4.32v-.69h4.4c.03-.34.05-.75.05-1.21h-4.2v-2.64h4.23v-1.26h-2.69v-1.84h-2.24zm1.46 4.46v1.29h3.45c.01-.4.02-.57.01-.53v-.32-.45h-3.46zm1.55-2.59h4.57v-1.19h-4.57zm6.11 2.59h-3.42v.77c-.01.19-.01.37-.02.53h3.44z" fill="#fafafc"/><path d="m32.63 379.16h.82v1.98h3.54v7.89h1.46v.78h-14.37v-.78h1.46v-7.89h3.54v-1.98h.82v1.98h2.73zm-3.49 11.48.5.73c-1.61.82-3.28 1.63-5 2.41-.13-.27-.28-.55-.44-.82 1.75-.72 3.4-1.49 4.94-2.32m-2.78-5.55h2.73v-3.18h-2.73zm0 3.95h2.73v-3.2h-2.73zm3.54-3.95h2.73v-3.18h-2.73zm0 3.95h2.73v-3.2h-2.73zm7.89 4.68c-1.84-.92-3.51-1.7-5.02-2.32l.45-.73c1.89.8 3.57 1.55 5.04 2.23zm-1.62-11.81h-2.73v3.18h2.73zm-2.73 7.13h2.73v-3.2h-2.73z" fill="#fafafc"/><path d="m118.57 306.88c-.67 5.43-1.25 10.31-1.89 15.17-.42 3.17-1.76 5.73-5.68 7.21-.24-4-.65-7.71-.64-11.42.01-4.14.49-8.27.59-12.41.05-2.22.18-4.6-.53-6.63-.59-1.68-2.16-3.79-3.67-4.15-1.66-.4-4 .61-5.59 1.68-3.49 2.36-6.7 5.15-10.01 7.78-3.12 2.48-6.63 4.61-9.25 7.55-3.12 3.49-6.57 5.91-11.11 6.89-2.66.58-5.01 1.57-6.62 4.11-.59.93-2.28 1.17-3.52 1.74-1.81-5.4 1.36-13.56 5.56-16.04 4.9-2.9 9.7-5.99 14.49-9.07 7.44-4.79 8.49-12.44 8.78-20.31.03-.86-.99-1.91-1.76-2.61-4.32-3.9-8.85-7.57-13.04-11.6-3.08-2.96-5.42-6.51-5.94-12.19 2.28 1.11 4.12 1.64 5.5 2.74 7.75 6.23 15.24 12.79 23.14 18.81 2.46 1.87 5.85 2.75 8.95 3.5 3.64.88 5.09-.27 5.99-3.93.26-1.07.29-2.21.29-3.33.02-15.57-.03-31.13.07-46.7.01-2.13-.62-3.14-2.62-3.87-7.65-2.82-15.27-5.76-22.82-8.83-1.55-.63-3.02-1.84-4.13-3.13-2.03-2.37-3.69-5.06-5.65-7.51-3.8-4.76-6.83-9.78-8.25-15.88-1.27-5.44-3.28-6.73-8.87-6.57-7.26.21-14.51.94-21.77 1.12-3.42.08-6.93-.26-10.26-1.02-3.12-.71-5.49-2.77-6.45-6.43 14.45-.48 28.6-.96 43.19-1.45.52-4.73 1.05-9.35 1.52-13.97 1.05-10.24 1.99-20.5 3.15-30.73.28-2.46-.55-3.62-2.83-3.84-6.44-.63-12.9-1.12-19.34-1.8-2.21-.23-4.38-.84-6.55-1.34-2.61-.6-3.72-2.05-3.74-4.97-.02-2.87 1.14-4.41 3.64-4.47 4.99-.13 9.98.13 14.97.32 3.56.13 7.11.55 10.67.58 2.51.02 4.22-1.35 4.58-3.99.85-6.3 1.57-12.63 2.55-18.91.55-3.51 1.2-7.07 2.41-10.38.67-1.85 2.59-3.25 4.32-4.61 1.67 12.6 1.05 24.73-3.47 37.51 8.01.64 15.31 1.31 22.61 1.77 4.57.29 9.18.13 13.75.43 2.37.15 3.78-.88 4.15-2.91.41-2.25.42-4.62.26-6.92-.1-1.4-.66-2.87-1.35-4.12-5.41-9.76-4.54-20.21-3.42-31.01 4.44 3.13 7.55 7.23 9.06 12.12 1.93 6.27 3.11 12.77 4.5 19.2.54 2.51.39 4.94-2.84 6.09 2.27 3.78 4.19 6.46 9.49 6.22 19.11-.86 38.25-1.02 57.37-1.37 1.39-.03 3.08.07 4.14.81 3.33 2.33 6.94 2.66 10.82 2.55 6.35-.17 12.71-.05 19.42-.05 0-8.66.17-17.02-.14-25.37-.07-1.75-2.2-3.32-2.9-5.15-1.22-3.18-2.2-6.48-2.98-9.8-.23-1 .52-2.22 1.02-4.08 6.37 5.91 13.43 10.57 15.27 18.85 1.43 6.44 1.28 13.24 1.8 19.88.16 1.99.21 3.99.33 6.33 6.87.23 13.53.49 20.2.67 10.4.28 20.8.43 31.2.82 2.36.09 3.8-.65 3.96-2.91.46-6.21.76-12.44 1.06-18.66.18-3.79-.03-7.62.46-11.36.26-1.99 1.66-3.84 2.55-5.75.37.08.74.16 1.1.24 1.47 5.09 2.94 10.18 4.41 15.27 1.92 6.65 4.18 13.18 4 20.3-.1 3.99 1.97 4.8 5.94 4.37 7.88-.85 11.46-6.74 14.6-12.53 4.88-9.01 8.87-18.51 13.31-27.76.78-1.63 1.96-3.07 3.22-4.99 4.06 4.47 5.36 9.22 4.16 14.12-2.42 9.85-4.72 19.86-11.89 27.72-.52.57-.91 1.27-1.32 1.94-2.5 4.17-2.32 5.07 1.56 7.87 5.5 3.97 5.5 3.97 7.19 8.23-5.26 0-10.32 0-15.39 0-4.73 0-8.34 1.83-9.3 6.49-2.08 10.1-8.69 17.45-13.95 25.69-2.13 3.33-3.96 7.21-4.51 11.04-.23 1.58 2.98 4.84 5.1 5.34 4.15.98 8.63.67 12.98.7 3.13.03 6.27-.48 9.38-.33 5.08.25 8.15 5.5 5.81 9.98-.54 1.03-2.28 2-3.49 2.03-5.22.13-10.46.02-15.68-.23-3.53-.17-7.05-.7-11.62-1.17.13 7.09.15 13.59.39 20.08.25 6.69.67 13.37 1.11 20.05.34 5.12.58 10.27 1.34 15.34.31 2.03 1.91 3.86 3.37 6.63 1.84-2.76 3-4.47 4.14-6.19 3.46-5.22 6.72-10.58 10.42-15.63 3.47-4.73 8.41-7.53 14.36-9.28.19 4.94.42 9-3.25 13.34-6.39 7.54-11.57 16.12-17.13 24.35-1.95 2.89-1.6 5.31 1.29 8 11.72 10.91 23.01 22.27 34.74 33.16 3.38 3.14 7.59 5.47 11.65 7.77 2.84 1.61 5.3 3.27 6.33 6.52.64 2.01.29 3.79-1.93 4.14-2.56.41-5.57 1.08-7.75.16-3.82-1.62-7.73-3.82-10.62-6.75-11.77-11.97-23.11-24.36-34.76-36.45-1.75-1.81-4.32-2.82-6.97-4.48-1.62 6.38-.59 11.8.1 17.19.73 5.65 1.9 11.25 2.49 16.91.41 3.89-.02 7.8-2.97 11.16-5.61-5.6-8.06-12.22-8.62-19.88-.38-5.21-1.57-10.35-2.52-16.29-12.21 11.92-21.27 26.67-38.99 30.32-.63-4.58-.4-8.28 3.09-11.83 7.29-7.42 13.93-15.48 21.04-23.08 2.5-2.67 5.65-4.73 8.43-7.14 1.25-1.09 2.57-2.22 3.44-3.6 2.08-3.31 1.39-5.27-1.93-7.3-7.64-4.65-15.3-9.28-22.82-14.13-9.83-6.35-13.23-16.12-14.01-27.11 2.27-1.74 3.5-.77 4.65 1.19 7.09 12.14 17.87 20.12 30.06 26.49.37.19.8.25 1.62.49-.7-17.8-1.4-35.3-2.1-53.07-7.77-.42-15.23-.82-22.68-1.24-9.16-.51-18.32-1.01-27.47-1.57-1.82-.11-2.72.27-3.15 2.36-1.92 9.37-1.48 18.73-.13 28.07 1.42 9.84 3.19 19.64 4.8 29.45.84 5.09-.34 7.05-5.32 7.88-1.91-5.56-3.88-11.23-5.8-16.91-.79-2.33-1.4-4.71-2.21-7.03-1.64-4.7-5.69-5.44-9.48-2.2-6.37 5.44-12.98 10.59-19.5 15.85-.69.56-1.74.85-2.17 1.54-5.12 8.26-14.64 10.88-21.64 16.76-2.9 2.44-7.49 3.08-11.43 3.99-1.3.3-2.99-1.13-4.51-1.77.81-1.56 1.22-3.74 2.51-4.59 7.83-5.18 15.87-10.06 23.83-15.06.94-.59 2.07-1.15 2.62-2.03 4.84-7.66 12.33-12.6 18.89-18.46 11.12-9.93 18.4-24.22 18.82-38.35-5.14-.43-10.33-1.05-15.53-1.27-12.95-.55-25.91-.69-38.85-1.44-15.41-.89-30.79-2.23-46.19-3.37-.31-.02-.63.09-1.86.27-.25 26.04-.5 52.17-.77 79.39 1.64-1.09 2.91-1.57 3.66-2.47 6.97-8.46 13.85-16.99 20.77-25.49 4.27-5.26 8.56-10.5 13.26-16.27 1.21 4.14 2.27 7.41 3.05 10.74.21.91-.15 2.17-.68 3-4.43 6.97-9.1 13.78-13.4 20.83-3.93 6.44-8.21 12.47-13.78 17.65-4.58 4.25-8.76 8.94-12.93 13.6-3.26 3.64-3.04 6.3.47 9.55 11.58 10.72 23.22 21.39 34.78 32.14 1.61 1.5 3.03 3.27 4.22 5.13.56.88.8 3.05.43 3.25-1.15.62-2.92 1.16-3.97.69-3.02-1.37-5.96-3.05-8.66-4.98-9.36-6.69-18.6-13.56-27.92-20.31-.87-.63-1.98-.93-3.53-1.63zm107.77-131.46c-.46-16.8-.92-33.72-1.38-50.76-1.53-.11-2.52-.2-3.51-.25-20.09-1.01-40.19-2.02-60.28-3.04-5.92-.3-11.83-.79-17.75-.9-14.51-.27-17.09 2.29-16.78 16.64.22 9.95.72 19.85-1.67 29.7-1.24 5.13.35 6.51 5.63 6.65 23.8.63 47.6 1.35 71.4 1.92 7.91.2 15.83.04 24.34.04zm39.08 4.6c7.82-.46 13.62-.97 19.43-1.08 3.55-.07 4.36-1.61 4.42-4.91.28-13.86.1-27.76 3.02-41.44 1.03-4.84-.76-6.45-5.8-5.91-3.54.38-7.14.71-10.68.51-11.61-.66-23.21-1.52-34.81-2.45-2.08-.17-2.86.62-3.12 2.44-.67 4.65-1.84 9.28-1.92 13.94-.19 10.6.11 21.22.28 31.83.05 2.82 1.4 4.46 4.46 4.73 8.89.76 17.78 1.67 24.72 2.34zm-146.15-56.58c-.89-.13-1.42-.27-1.97-.29-10.84-.44-21.68-.83-32.52-1.34-2.09-.1-2.89.9-3.05 2.65-1.25 13.24-2.62 26.48-3.58 39.74-.3 4.16 3.38 7.02 7.46 7.18 3.79.15 7.58.56 11.33 1.12 4.54.67 9.13 1.92 13.48-.32 1.56-.8 3.5-2.54 3.7-4.06 1.89-14.75 3.45-29.54 5.15-44.68zm-6.66 58.26c-8.84-.61-17.3-1.16-25.75-1.81-4.62-.35-6.01.75-5.77 5.45.09 1.84.66 3.76 1.46 5.43 4.27 8.95 11.21 14.97 20.72 17.69 2.29.66 4.99.25 7.43-.13.76-.12 1.81-1.74 1.82-2.69.16-7.81.09-15.65.09-23.94z" fill="#010101"/></svg>