<svg enable-background="new 0 0 400 400" viewBox="0 0 400 400" xmlns="http://www.w3.org/2000/svg"><path d="m184.46 107.04c-7.93 0-16.07.07-24.21-.01-17.01-.18-34.01-.43-51.02-.66-6.36-.08-12.76.25-19.06-.36-6.21-.61-8.37-4.1-7.49-9.92.3-1.99 1.2-2.78 3.08-3.24 13.06-3.18 26.28-3.52 39.66-3.03 19 .7 38.03.76 57.05 1.09.53.01 1.07-.12 2.1-.23 0-13.04 0-25.98 0-39.61-1.54 0-3.5.01-5.45 0-21.93-.18-43.87-.31-65.8-.62-4.11-.06-8.23-.72-12.3-1.36-2.94-.46-5.09-2.14-6.01-5.17-1.25-4.1-.52-5.37 3.38-7.09 4.91-2.16 9.93-2.87 15.3-2.86 46.35.12 92.69.05 139.04.08 11.4.01 22.81.04 34.21.37 2.81.08 5.78.99 8.3 2.25 1.71.85 3.25 2.79 4.02 4.61 1.39 3.28.34 5.13-2.95 6.48-9.53 3.89-19.56 4.56-29.66 4.3-21.8-.55-43.59-1.32-65.99-2.01v40.04c1.92.11 4.22.35 6.52.37 22.38.18 44.77.25 67.15.52 5.24.06 10.49.56 15.71 1.17 5.22.6 7.6 4.47 5.82 9.43-.4 1.12-1.89 2.35-3.08 2.6-6.85 1.48-13.75 3.7-20.65 3.78-15.19.17-30.39-.95-45.6-1.22-8.69-.15-17.39.35-26.48.57v3.74c0 8.73.15 17.47-.08 26.19-.08 2.87.97 3.83 3.53 4.49 9.31 2.38 18.56 5 27.85 7.48 11.9 3.18 19.1 11.01 22.44 22.64 3.82 13.3 2.92 26.37-2.46 39.05-4.93 11.61-10.12 23.11-15.33 34.6-8.28 18.27-7 35.58 4.95 51.89 11.17 15.25 26.4 25.22 43.21 33.1 5.06 2.37 10.21 4.55 15.26 6.93 4.33 2.04 7.47 5.15 8.79 9.97.58 2.12-.1 3.51-2 3.75-3.49.44-7.22 1.21-10.51.42-4.71-1.12-9.34-3.11-13.6-5.46-8.12-4.48-16.42-8.86-23.82-14.38-12.23-9.13-23.21-19.83-31.56-32.68-9.78-15.06-10.91-31.3-5.68-48.52 4.4-14.49 9.79-28.51 16.02-42.27 2.15-4.75 4.08-9.72 5.25-14.78 2.84-12.26-1.56-22.45-12.33-28.98-6.91-4.18-14.13-7.7-22.6-7.36-9.13.37-18.39-.22-27.37 1.12-6.25.93-12.14 4.35-18.13 6.79-.96.39-1.69 1.42-2.46 2.23-19.65 20.69-31.2 45.25-35.37 73.43-2.76 18.64-4.73 37.35-3.29 56.17 1.28 16.73 3.39 33.39 4.97 50.09.28 2.96.21 6.11-.55 8.95-.51 1.9-2.25 3.79-3.94 4.96-2.14 1.49-4.14 1.13-5.67-1.69-3.2-5.93-4.88-12.18-5.44-18.84-1.18-14.15-2.61-28.29-3.7-42.45-1.46-19.05-.16-38 2.35-56.91 2.31-17.37 8.51-33.38 15.3-49.41 4.97-11.74 11.76-21.66 21.04-30.12 2.15-1.96 4.14-4.11 6.38-5.95 4.09-3.36 8.58-5.9 13.88-7.09 4.79-1.07 9.39-2.96 14.17-4.07 3.69-.85 5.2-2.36 5.05-6.47-.39-9.93-.14-19.88-.14-30.83z" fill="#010101"/><g fill="#fbfafa"><path d="m6.4 11.7c-1-.8-1.9-1.6-2.9-2.3l.6-.7c.9.7 1.9 1.4 2.9 2.2zm-2.1 8.3c.7-2.1 1.4-4.2 2-6.4.2.1.6.3 1 .4-.7 2.3-1.3 4.4-1.9 6.4zm3-12.8c-1.1-.9-2.1-1.7-2.9-2.4l.6-.7c1 .8 2 1.5 3 2.4zm1.4-1.3v-.9h10.2v.9c-.9 4.2-2.3 7.3-4.1 9.4 1.3 1.4 3.2 2.7 5.7 4-.2.2-.4.5-.7.9-2.5-1.4-4.4-2.7-5.7-4.2-1.4 1.5-3.5 3-6.1 4.4 0 0 0 0-.1-.1-.3-.4-.5-.7-.7-.8 2.7-1.3 4.7-2.8 6.2-4.2-1.8-2.2-3-5.3-3.7-9.4zm9.2 0h-7.1c.6 3.8 1.7 6.7 3.4 8.7 1.7-2 2.9-4.8 3.7-8.7z"/><path d="m31.6 3.6h.9v2.3h4.1v9.1h1.7v.9h-16.6v-.9h1.7v-9.1h4.1v-2.3h.9v2.3h3.1v-2.3zm-4 13.3.6.8c-1.9.9-3.8 1.9-5.8 2.8-.2-.3-.3-.6-.5-.9 2-.9 3.9-1.8 5.7-2.7zm-3.2-10.1v3.7h3.1v-3.7zm0 4.5v3.7h3.1v-3.7zm4.1-4.5v3.7h3.1v-3.7zm0 4.5v3.7h3.1v-3.7zm9.1 9.1c-2.1-1.1-4.1-2-5.8-2.7l.5-.8c2.2.9 4.1 1.8 5.8 2.6zm-1.9-13.6h-3.1v3.7h3.1zm-3.2 4.5v3.7h3.1v-3.7z"/></g></svg>