<svg enable-background="new 0 0 400 400" viewBox="0 0 400 400" xmlns="http://www.w3.org/2000/svg"><path d="m78.3 292.7c-1.4-2.5-2.5-4.8-3.9-7.1-1.9-3-4.5-5-7.9-5.9-2.6-.7-5-1.4-6.3 2.2-.8 2.2-3.1 1.9-4.8.6-6.3-4.8-10-11-10.5-19-.7-11.7-1.6-23.4-2.4-35.1-.1-1.3-.4-3-1.2-3.7-2.3-1.9-2.6-3.9-1.5-6.4 3.3-7.3.4-14.5-.5-21.7-.5-4.1-.5-8.2-.8-12.3-.6-8.3-1.3-16.6-1.9-24.9-.2-2.7-.1-5.5-.6-8.2-.7-3.4-1.7-6.7-2.7-9.9-1-3.1-2-5.9 1.6-8.6 6.4-4.9 12.4-10.3 18.6-15.4 1-.8 2.3-1.6 3.6-1.9 12.7-3.3 25.6-5.5 38.9-5.2 2 .1 4.4-.3 5.9.7 5.8 3.6 11.9 2.3 17.9 1.7 17.3-1.6 34.5-3.4 51.8-4.7 3.5-.3 7 1.5 10.6 1.6 7 .2 13.9-.2 20.9-.1 3.5 0 7.3 0 10.6 1 4.9 1.5 9.8 1.6 14.7 1 10.8-1.4 21.5.2 32.3 1.1 2.9.2 5.5.3 8.3-1 1.9-.9 4.5-.4 6.7-.3 3.2.1 6.5.8 9.7.4 7.5-1.1 14.8-.4 22.1.9 8 1.3 15.6 1.3 23.3-1.7 3-1.2 7.1-1.1 10.1 0 5.4 1.9 10.6 2.7 16.1 1.1 2.1-.6 3.1.1 3.9 2 1.3 3.2 1.8 6.3.6 9.6-2.3 6.4-2.4 12.8.3 19.2.6 1.5.6 3.5.3 5.2-2.1 11.9-4.7 23.7-6.4 35.6-1.2 8.5-1.5 17.1-1.9 25.6-.5 10.9-1.7 21.6-4.2 32.3-1 4.6-1.7 9.2-3.8 13.5-1.2 2.4-1.2 5.3-1.8 8-.8 3.1-1.2 6.5-2.6 9.3-1.5 3.3-4.4 4.8-8.4 4.8-4.8 0-9.6 1.4-14.5 1.7-9.2.5-18.4.3-27.5.9-9.5.6-18.9 1.7-28.4 2.7-6.4.7-12.8 1.8-19.2 2.7-.7.1-1.6.3-2.2.1-8.9-3.1-18-2-27-1.2-2.6.2-5.3-.1-7.9.1-10 .8-20.1 1-29.9 2.6-12.3 2-24.5.7-36.7.4-5.4-.1-11 .7-16.2 2-11.6 2.8-23.4 2.1-35 3.1-3.8-.1-7 .3-10.2.6zm255.2-158.5c-2.7.7-5.1 1.4-7.4 1.9-8.9 1.9-17.9.9-26.9.4-8.8-.5-17.7-.8-26.6-.9-4.7 0-9.5 1.2-14.2 1-8.8-.4-17.5-1.5-26.3-2.1-3.6-.2-7.3.3-11 .6-5.3.4-10.7 1.4-16 1.4-5.1 0-10 .4-15 1.3-11.1 2-22.4 3.4-33.2-1.6-.5-.2-1.5-.4-1.8-.1-2.4 3-5.7 1.9-8.6 1.8-8.7-.2-17.5 1.1-26.1-1.9-2.3-.8-4.9-.7-7.4-.7-7.9 0-15.9.8-23.7 0-8.1-.9-16.1-1.6-24.2-.6-4.3.6-6 1.7-5.9 6 .3 8.9.9 17.7 1.8 26.6.8 7.5 2.1 15 3.6 22.4.3 1.4 2.2 3.1 3.8 3.5 4.6 1.4 9-.1 13.1-2.1 5.2-2.6 10.6-3.6 16.3-2.7 10.7 1.7 21.5 1.4 32.3.9 10.1-.5 20.3-.3 30.4-.4 5.5-.1 11 .3 16.4-.4 16.9-2.2 33.7-5.1 50.8-4.2 4.1.2 8.3 0 12.4.1 1.6 0 3.2.1 4.6.8 8.6 3.8 17.5 3.3 26.5 2.1 6.7-.9 13.5-1.6 19.2 3.6 1.2-1.3 2.3-2.3 3.1-3.5 1.4-2.2 3-2.3 5.3-1.3 2.1.9 4.5 1.5 6.6 1.4 4.4-.3 8.8-1.1 13.2-1.7 3-.5 6.1-.7 8.9-1.8 1.4-.5 2.9-2.6 3.1-4.1.5-4 .4-8 .3-12-.2-7 0-13.8 3.2-20.4 2.1-4.2 2.4-9-.6-13.3zm-262.9 123.4c.4 3 .6 6.9 1.5 10.7.6 2.7 3.8 3.4 5.9 2.2 2.5-1.4 5-3.1 7.8-3.7 9.4-2 18.9-4.6 28.1.7.3.2.8.2 1.2.2 10.1.2 20.1.5 29.9-2.6 3.8-1.2 7.5-1.4 11.5-1.4 5.2-.1 10.5-.9 15.7-1.4 2.7-.3 5.4-1 8.1-1.2 9.1-.5 18.2-.7 27.3-1.1 1.4-.1 3-.3 4.3-1 3.5-1.9 7.1-2.4 11-2.2 4 .2 8 .2 12.1 0 5.8-.3 11.4.5 16.9 2.2 1.6.5 3.6.8 5.3.4 8.7-2.1 17.4-1.8 26.2-1.3 2.9.2 6.1.2 8.6-.9 3.4-1.4 6.6-2 10.1-1.4 2.4.4 4.8 1 7.2.9 3.6-.1 7.3-.5 10.8-1.3 2.4-.5 3.4-2.4 3.5-5.2.6-13 1.6-25.9 2.5-38.9.2-2.5-4.7-7.1-7.3-6.7-4.1.6-8.1 1.4-12.2 1.9-5.1.6-10.1 2.7-15.3 1-5.3-1.7-10.6-1.1-16-.3-10.3 1.5-20.7 3.8-31.1.3-4.4-1.5-8.8-1-13.4-.2-5.7 1-11.5 1-17.3 1.4-4.7.3-9.6-.2-14.1.9-10 2.4-19.9 3.5-30.2 3.1-2.1-.1-4.2.5-6.2.9-5.5.9-11 2.4-16.5 2.6-7.6.4-15.2-.2-22.8-.4-6.9-.1-13.7-.5-20.4 1.8-8.2 2.9-16.6 2.7-25.1 1.9-2.8-.3-5.7.9-8.5 1.8-2 .6-2.8 2-2.6 4.4.4 3.9.3 7.8.5 11.7.1 1.3.2 2.9.8 4 2.6 4.7 3.7 9.8 2.2 16.2z"/></svg>