<svg enable-background="new 0 0 400 400" viewBox="0 0 400 400" xmlns="http://www.w3.org/2000/svg"><g fill="#fbfafa"><path d="m37.59 393.81c-.92.31-1.52.05-2-.78-.7-1.2-1.52-2.34-2.47-3.78v4.59c-.55.03-.95.05-1.41.07-.03-.37-.06-.64-.06-.91 0-1.91 0-3.81 0-5.7 1.13-.41 1.77-.03 2.29.91.62 1.11 1.38 2.14 2.31 3.19v-4.2h1.35v6.61z"/><path d="m12.94 393.88v-6.75c1.9.19 3.93-.54 5.37 1.29.8 1.01.78 2.88.03 3.97-1.37 1.97-3.4 1.51-5.4 1.49m1.45-1.22c2.04.12 2.92-.58 2.89-2.21-.03-1.51-.98-2.19-2.89-2z"/><path d="m11.81 393.87h-5.49c.68-2.18 2.47-3.48 3.51-5.45h-3.08v-1.21h5.29c-.71 2.13-2.44 3.48-3.47 5.51.86 0 1.63.04 2.39-.01.79-.05 1.14.21.85 1.16"/><path d="m39.33 393.86v-6.61h3.7v1.07h-2.22v1.52c.68.04 1.34.09 2.07.13v1.07c-.72.05-1.38.09-2.1.14v1.48h2.4v1.19h-3.85z"/><path d="m27.71 388.56c-1.15-.3-2.46-.61-3.1.64-.37.73-.41 1.93-.06 2.67.63 1.35 1.99.93 3.17.68.35.94-.01 1.32-.93 1.46-1.62.25-3.05-.27-3.76-1.48-.73-1.24-.6-3.03.31-4.17.88-1.11 2.71-1.7 4-1.16.32.13.44.74.65 1.12-.1.08-.19.16-.28.24"/><path d="m49.15 387.24v1.07c-.59.02-1.17.05-1.87.08v5.44h-1.48v-5.44h-1.85c-.05-.4-.08-.73-.13-1.15z"/><path d="m20.06 387.21h1.33v6.62h-1.33z"/><path d="m30.68 393.25c-.49.38-.8.79-1.05.76-.32-.05-.6-.45-.9-.7.26-.24.51-.64.8-.67.29-.04.62.3 1.15.61"/></g><path d="m39.84 125.69c-1.65-1.82-3.07-3.38-4.65-5.12.61-.68 1.13-1.36 1.75-1.95 7.9-7.53 10.7-7.04 13.59 3.43 1.64 5.95 2.26 12.32 2.37 18.52.35 18.69.22 37.38.29 56.08 0 .55.11 1.1.25 2.28h54.31c.19 1.91.32 3.2.48 4.87 1.25-.54 2.33-1 3.69-1.59-.76-.91-1.39-1.66-2.17-2.6 8.97 0 17.66-.02 26.35.01 10.19.03 20.53 1.23 30.51-.18 9.04-1.27 17.75-.93 26.58.19 2.15.27 4.26 1.53 6.2 2.65 1.52.87 2.77 2.23 4.25 3.47 3.31-5.61 8.28-6.98 14.21-6.24 20.54 2.58 41.12.4 61.68.43.99 0 2-.02 2.97.15 7.03 1.18 14.11 2.16 21.06 3.69 5.52 1.22 10.87 3.23 16.34 4.7 3.26.88 6.71 2.21 9.93 1.89 5.99-.6 8.3-5.55 5.88-11.01-.54-1.22-1-2.48-1.42-3.75-.96-2.88-.68-5.42 1.8-7.58 1.41-1.23 2.48-2.85 3.8-4.41-3.73-4.19-4.28-9.37-4.79-14.45-.64-6.46-.75-12.96-1.31-19.43-.24-2.73.39-4.46 3.22-5.16 1.24-.31 2.38-1.02 3.81-1.65-.59-.49-.87-.91-1.26-1.03-7.02-2.13-7.4-7.68-7.05-13.61.16-2.68.39-5.36.51-8.04.28-6.34-3.89-9.58-9.37-6.52-7.17 4-14.94 4.28-22.66 5.26-1.55.2-3.11.36-4.67.47-3.91.28-7.58.53-11.7-.59-4.82-1.3-10.34-.14-15.54.16-12.61.71-25.21 1.76-37.83 2.26-14.53.57-29.07.8-43.61.96-15.97.18-30.89-4.26-45.27-10.87-4.76-2.19-7.08-5.85-7.54-11.07 5.19-2.46 10.4-2.26 15.75-1.04 5.74 1.31 11.49 2.82 17.32 3.49 3.43.4 6.82.52 10.3 1.15 5.49 1 11.35.61 16.98.06 9.6-.93 19.13-2.25 28.59.9.63.21 1.65.08 2.16-.32 4.4-3.48 9.58-3.52 14.72-3.23 5.91.33 11.81.97 17.7 1.62 15.02 1.65 29.94-.38 44.9-1.1 3.46-.17 6.96-.71 10.37-.4 1.57.14 2.99 1.93 4.8 3.21 3.74-2 7.34-4.83 7.91-10.26.2-1.86.86-3.71 1.5-5.49.84-2.33.74-4.12-.79-6.42-1.25-1.89-1.15-4.83-1.16-7.31-.01-1.61.71-3.28 1.32-4.83 1.47-3.7 1.91-7.19-.74-10.66-.63-.83-.6-2.33-.53-3.51.52-8.49 1.14-16.97 1.69-25.46.31-4.79 3.03-6.62 7.36-4.8 4.26 1.79 7.06 5.07 8.81 9.23 2.73 6.45 4.43 13.06 3.4 20.22-1.82 12.72-.01 25.22 2.89 37.59 3.1 13.23 5.25 26.53 4.34 40.19-1.08 16.27 2.95 32.01 5.03 47.95.33 2.55.36 5.23 1.22 7.6 1.87 5.13-1.29 8.03-4.44 10.84-1.03.92-2.89 1.3-4.35 1.25-4.31-.16-4.31-.29-4.6 4.33 3.19 1.04 6.53 1.92 9.69 3.23 1.37.57 2.82 1.79 3.48 3.1 2.09 4.1 1.9 8.44.38 12.71-.6 1.68-1.34 3.32-2.1 4.93-3.85 8.11-6.36 16.32-4.4 25.56 3.08 14.45.76 28.98-.21 43.47-.06.89-.23 1.78-.23 2.68-.03 4.4-.45 8.53-3.63 12.15-1.6 1.82-2.27 4.58-3 7.02-1.38 4.62-4.21 7.79-8.86 9.74-.42-.67-.85-1.36-1.58-2.53-2.22 1.37-4.42 2.73-7.49 4.63 2.59 1.08 4.24 1.77 5.98 2.5-.32 2.98-1.31 4.73-4.57 5.59-15.76 4.18-30.23 11.57-44.73 18.81-5.8 2.89-11.22 6.57-17.11 9.23-3.14 1.42-6.89 1.6-10.4 2.05-11.98 1.53-23.99 2.87-35.97 4.45-2.48.33-4.39.24-5.49-2.52-7.15 4.76-14.5 1.7-21.61.72-18.61-2.54-37.15-5.57-55.7-8.53-1.77-.28-3.62-1.09-5.09-2.14-6.34-4.51-13.68-5.06-21.05-5.83-6.21-.65-12.39-1.59-18.53-2.72-1.73-.32-3.48-1.51-4.85-2.73-5.02-4.46-9.84-9.15-14.86-13.61-1.18-1.05-2.83-2.06-4.33-2.18-2.99-.24-4.95-1.78-6.75-3.86-7.22-8.36-10.78-18.46-13.6-28.87s-5-20.93-3.21-31.79c.38-2.27 1.53-4.42 2.43-6.93-3.49-2.35-4.68-6.82-5.61-11.27-2.22-10.62-4.38-21.28-2.45-32.24.15-.83.02-1.8-.26-2.6-4.01-11.39-5.61-23.23-6.63-35.18-.13-1.54-.02-3.14.26-4.67 1.83-10.16.38-19.95-2.32-29.82-1.23-4.51-.77-9.5-.9-14.28-.02-.69.84-1.51 1.46-2.08 1.97-1.79 4.02-3.52 6.4-5.61zm249.18 97.62c-12.02-.35-24.01.98-35.84-1.82-8.09-1.91-16.16-2.6-24.5-.68-4.25.98-8.89.28-13.35.34-3.91-4.75-8.16-1.83-12.8-1.34-7.56.8-15.47.26-22.99-1.05-7.25-1.26-14.36-1.82-21.64-1.26-3.23.25-6.48.35-9.72.35-1.02 0-2.49-.22-2.96-.89-1.21-1.73-2.5-1.27-4.09-.93-3.9.84-7.84 2.04-11.78 2.12-13.39.27-26.78 1.68-40.2-.17-9.17-1.27-18.44-1.78-27.88-2.66-1.24 4.47-2.33 8.79-3.64 13.03-1.05 3.39-.98 6.63-.27 10.14 1.89 9.28 3.62 18.62 4.92 28 1.38 9.96 1.5 20.13 3.43 29.96 1.93 9.85 6.54 18.53 16.48 23.11 1.52.7 3.13 2.05 3.86 3.52 2.79 5.65 7.25 8.47 13.42 8.84.11.01.22.02.33.05 7.18 1.88 14.89 2.07 21.19 6.8.86.64 2.35.56 3.55.6 8.16.27 16.33.31 24.48.76 5.99.33 11.86 1.27 15.12 7.52.39.76 2.19 1.17 3.3 1.1 3.44-.22 6.99-1.53 10.27-1 9.14 1.47 18.18 3.56 27.21 5.65 1.96.45 3.33.76 5.12-.64 1.08-.84 3.11-.76 4.68-.63 2.88.25 5.78 1.47 8.57 1.21 14.4-1.39 28.62-3.59 41.16-11.7 4.11-2.66 7.22-2.48 9.88.36 5.65-8.35 14.22-11.93 23.45-14.44 4.42-1.21 8.83-2.46 13.2-3.82 1.35-.42 2.87-.96 3.79-1.94 4.46-4.78 9.84-7.59 16.33-8.24 2.18-.22 2.92-1.38 3.19-3.48.86-6.65 1.76-13.31 3-19.9.62-3.31.56-6.17-1.93-8.64-1.51-1.5-1.25-2.97-.45-4.82 1.21-2.82 2.82-5.84 2.77-8.75-.22-12.87-.95-25.73-1.52-38.59-.26-5.8-.76-6.97-6.62-7.47-5.24-.45-10.65.21-15.9.97-6.67.97-12.69.2-17.9-4.39-1.97-1.74-4.45-1.23-5.61 1.18-.47 1-.66 2.13-1.11 3.64z" fill="#010000"/></svg>