<svg enable-background="new 0 0 400 400" viewBox="0 0 400 400" xmlns="http://www.w3.org/2000/svg"><path d="m5.17 384 .55-.58c.85.61 1.65 1.24 2.4 1.87l-.59.64c-.83-.73-1.62-1.38-2.36-1.93m1.22 9.53-.82-.34c.71-1.76 1.37-3.64 1.98-5.63.24.13.5.25.76.36-.6 1.67-1.24 3.54-1.92 5.61m-.5-13.5.57-.54c.56.44 1.31 1.06 2.26 1.87l-.64.64c-.68-.66-1.41-1.32-2.19-1.97m3.25.46h2.24v-1.36h.77v1.36h4.57v-1.36h.76v1.36h2.28v.69h-2.28v1.84h-2.64v1.26h4.18v2.64h-4.21c0 .45-.02.86-.05 1.21h4.32v.69h-4.38c-.04.34-.1.75-.19 1.22h5.15v.69h-4.82c.87 1.19 2.51 1.92 4.93 2.19-.17.31-.3.57-.37.76-2.77-.49-4.52-1.41-5.26-2.76-.56 1.26-2.3 2.23-5.24 2.9-.12-.24-.26-.48-.43-.72 2.73-.55 4.38-1.34 4.96-2.38h-4.38v-.69h4.65c.1-.38.17-.79.21-1.22h-4.32v-.69h4.4c.03-.34.05-.75.05-1.21h-4.2v-2.64h4.23v-1.26h-2.69v-1.84h-2.24zm1.46 4.46v1.29h3.45c.01-.4.02-.57.01-.53v-.32-.45h-3.46zm1.55-2.59h4.57v-1.19h-4.57zm6.11 2.59h-3.42v.77c-.01.19-.01.37-.02.53h3.44z" fill="#fafafc"/><path d="m32.63 379.16h.82v1.98h3.54v7.89h1.46v.78h-14.37v-.78h1.46v-7.89h3.54v-1.98h.82v1.98h2.73zm-3.49 11.48.5.73c-1.61.82-3.28 1.63-5 2.41-.13-.27-.28-.55-.44-.82 1.75-.72 3.4-1.49 4.94-2.32m-2.78-5.55h2.73v-3.18h-2.73zm0 3.95h2.73v-3.2h-2.73zm3.54-3.95h2.73v-3.18h-2.73zm0 3.95h2.73v-3.2h-2.73zm7.89 4.68c-1.84-.92-3.51-1.7-5.02-2.32l.45-.73c1.89.8 3.57 1.55 5.04 2.23zm-1.62-11.81h-2.73v3.18h2.73zm-2.73 7.13h2.73v-3.2h-2.73z" fill="#fafafc"/><path d="m103.88 112.42c-5.76-.19-11.08-.42-16.46 2.3-12.36 6.25-25.01 11.95-37.63 17.67-2.11.96-4.7 1.26-7.05 1.19-4.01-.12-8-.93-12.02-1.15-2.75-.15-4.57-1.09-5.65-3.73-.84-2.05-2.11-3.91-3.38-6.19 7.92-2.64 15.57-5.4 23.35-7.73 23.85-7.15 46.22-17.95 69.09-27.53 4.81-2.01 9.17.36 9.28 5.64.35 17.41 1.86 34.81-2.13 52.13-3.34 14.48-5.6 29.2-8.54 43.77-.69 3.4 1.26 4.48 3.64 4.67 6 .46 12.09 1.14 18.04.57 21-2.01 42.02-1.66 63.06-1.67 9.74-.01 19.49-.3 29.22.06 17.77.67 35.27-1.9 52.83-3.84 8.23-.91 16.44-1.99 24.67-2.78 2.24-.21 3.58-1.13 4.17-3.11.92-3.09 2.2-6.2 2.34-9.35.2-4.55-.59-9.13-.76-13.7-.26-6.88-4.19-10.04-10.48-11.79-9.32-2.6-18.72-3.03-28.26-2.48-11.39.65-22.77 1.66-34.17 1.81-5.84.08-11.76-1.03-17.52-2.23-3.81-.79-6.7-3.45-8.55-8.15 5.09-1.48 9.98-3.2 15-4.31 12.46-2.75 25.13-2.25 37.78-2.01 11.54.22 23.07.16 34.33-2.87 7.8-2.1 10.72-7.08 8.93-15.13-.66-2.94-1.74-5.77-2.53-8.68-.8-2.94-.56-5.64 2.47-7.25 3.43-1.82 8.61-1.16 10.44 1.27 3.77 5.01 7.77 9.87 11.16 15.12 4.15 6.43 9.73 10.92 16.47 14.27 5.7 2.84 11.39 5.72 16.93 8.86 4.07 2.31 7.9 5.05 9.65 10.08-5.95 2.69-11.78 2.25-17.52.56-6.64-1.95-13.14-4.35-19.76-6.37-1.76-.54-3.71-.44-5.84-.66-.1 1.34-.22 2.3-.23 3.27-.06 13.09-.11 26.19-.16 39.28 0 .78-.17 1.61.03 2.34 2.06 7.58.78 14.98-.34 22.58-.9 6.09-.27 12.5.4 18.69.89 8.31-.21 16.22-2.74 24.11-2.17 6.78-3.86 13.72-5.87 20.55-.42 1.44-1.06 2.93-1.99 4.09-8.88 11.15-20.85 17.6-33.97 22.44-13 4.79-25.86 9.96-38.81 14.86-1.83.69-3.89 1.27-5.8 1.16-14.94-.85-29.65 1.93-44.48 2.62-28.82 1.34-56.34-3.82-81.79-18-1.59-.89-3.07-2.23-4.2-3.67-4.06-5.2-7.75-10.7-11.96-15.78-5.52-6.67-7.76-14.4-7.42-22.74.74-18.22 1.75-36.42 2.95-54.62 1.01-15.41 2.03-30.83 3.8-46.16 1.18-10.18 3.69-20.22 5.62-30.31.73-3.94 1.54-7.87 2.36-11.97zm90.81 185.54v1c11.99-1.33 24.03-2.35 35.97-4.06 18.79-2.7 37.1-7.28 53.7-16.94 7.03-4.09 14-8.28 17.32-16.56 4.3-10.73 7.93-21.61 9.51-33.08.71-5.13.61-10.26-1.5-15.17-.9-2.09-2.01-3.45-4.6-3.65-3.66-.29-7.27-1.28-10.93-1.67-4.85-.51-9.86-1.61-14.58-.91-17.74 2.62-35.49 4.36-53.45 3.82-15.09-.45-30.2-1.21-45.28-.79-17.76.5-35.48 2.1-53.22 3.29-6.41.43-12.74 1.46-17.97 5.56-1.4 1.1-2.91 3.1-2.95 4.72-.24 8.69-.36 17.4.11 26.08.5 9.32 3.92 17.55 11.01 24.01 1.31 1.2 2.5 2.6 3.46 4.09 3.73 5.73 9.07 8.52 15.61 10.42 18.91 5.48 37.51 12.25 57.79 9.84z" fill="#010101"/></svg>