<svg enable-background="new 0 0 400 400" viewBox="0 0 400 400" xmlns="http://www.w3.org/2000/svg"><g fill="#fcfafa"><path d="m342.2 3.2-6.3 9.2h6.1v1.2h-8.2v-.5l6.2-9.1h-5.7v-1.2h7.8v.4z"/><path d="m344 13.7v-10.9h3.1c1.6 0 3 .5 4.1 1.4 1.1 1 1.6 2.2 1.6 3.9s-.5 3-1.6 4-2.5 1.5-4.2 1.5h-3zm1.4-9.6v8.4h1.6c1.4 0 2.5-.4 3.2-1.1.8-.8 1.2-1.8 1.2-3.2s-.4-2.4-1.2-3.1-1.8-1-3.1-1z"/><path d="m356.3 2.8v10.9h-1.4v-10.9z"/><path d="m366.6 13.2c-.8.4-1.8.6-3 .6-1.6 0-2.8-.5-3.7-1.5s-1.4-2.3-1.4-3.9c0-1.7.5-3.2 1.6-4.2s2.4-1.6 4-1.6c1 0 1.9.1 2.6.4v1.5c-.8-.4-1.6-.6-2.6-.6-1.2 0-2.2.4-3 1.2s-1.1 1.9-1.1 3.3c0 1.3.4 2.3 1.1 3.1s1.6 1.1 2.8 1.1c1.1 0 2-.2 2.8-.7v1.3z"/><path d="m368.2 13c0-.3.1-.5.3-.6.2-.2.4-.3.6-.3.3 0 .5.1.7.3s.3.4.3.6-.1.5-.3.6c-.2.2-.4.3-.7.3s-.5-.1-.6-.3c-.2-.2-.3-.4-.3-.6z"/><path d="m381.1 13.7h-1.7l-5.5-8.4c-.2-.2-.3-.5-.4-.7 0 .2.1.8.1 1.5v7.6h-1.4v-10.9h1.8l5.3 8.3c.3.4.4.6.4.8 0-.3-.1-.8-.1-1.6v-7.5h1.4v10.9z"/><path d="m389.7 13.7h-5.8v-10.9h5.6v1.2h-4.2v3.5h3.9v1.2h-3.9v3.7h4.4z"/><path d="m398.4 4.1h-3.1v9.6h-1.4v-9.6h-3.1v-1.3h7.7v1.3z"/></g><path d="m21.74 125.1c7.39-2.02 14.43-1.66 20.85 1 10.08 4.18 19.8 9.24 29.6 14.08 1.15.57 2.01 2.04 2.64 3.28 4.64 9.21 6.49 19.2 8.15 29.26 1.33 8.06 3.93 15.58 9.46 21.86 1.51 1.71 3.17 2.44 5.52 2.42 16.12-.1 32.25.32 48.36-.18 11.16-.35 22.42-1.12 33.39-3.07 19.01-3.39 37.8-8.03 56.75-11.79 26.84-5.32 52.5-14.62 78.5-22.77 1.3-.41 2.56-1.35 3.52-2.35 15.52-16.13 24.61-35.48 28.5-57.38.81-4.58 1.29-9.23 1.96-14.05 3.74.61 6.34 2.72 8.21 5.5 7.53 11.23 11.88 23.65 11.36 37.19-.19 5.06-2.54 10.16-4.52 14.99-1.73 4.25-1.54 7.73 1.2 11.47 2.34 3.19 4.1 6.82 6.3 10.58-11.08.76-16.84 7.21-19.14 16.81-.75 3.13.17 6.84.98 10.12.73 2.95.31 4.67-2.74 5.46-6.34 1.66-10.36 5.8-13.43 11.52-12.89 23.97-30.55 44.04-51.28 61.48-18.73 15.76-38.54 29.98-61.58 38.82-28.16 10.82-56.35 8.86-84.29-1.19-1.82-.66-3.28-2.29-4.97-3.38-14.16-9.12-25.38-20.95-33.61-35.71-3.04-5.45-6.53-10.73-10.4-15.63-13.12-16.63-19.84-36.36-27.49-55.65-2.96-7.48-5.9-14.96-8.91-22.42-.58-1.44-1.35-2.82-2.21-4.12-9.53-14.35-19.09-28.67-28.64-43-.63-.92-1.22-1.87-2.04-3.15zm81.55 100.32c2.47 8.37 5.74 15.63 11.29 21.4 7.44 7.73 15.38 14.98 23.21 22.33.95.89 2.54 1.3 3.9 1.54 6.26 1.13 12.66 1.67 18.8 3.24 14.94 3.81 29.79 4.24 44.77.39 17.05-4.37 32.02-12.96 46.63-22.4 10.65-6.88 19.49-15.71 27.43-25.46 1.22-1.5.88-4.27 1.27-6.45-1.86-.33-4.02-1.43-5.55-.86-24.09 9.03-48.96 14.91-74.38 18.45-22.41 3.13-44.71 4.05-66.67-3.59-9.78-3.39-19.97-5.62-30.7-8.59z" fill="#010103"/><path d="m111.8 111.75c7.24.49 14.45.96 21.67 1.47 11.27.8 22.54 2.26 33.8 2.21 7.71-.03 15.46-1.91 23.12-3.38 27.33-5.27 54.62-10.76 81.94-16.07 5.36-1.04 10.51.25 15.15 2.98 5.29 3.12 5.64 9.5 1.26 13.79-17.06 16.71-37.78 27.7-59.04 37.82-9.79 4.66-19.66 8.97-27.71 16.64-4.54 4.32-9.97 4.68-15.74 1.31-9.94-5.8-20.13-11.19-30.18-16.8-1.24-.69-2.51-1.54-3.43-2.61-5.54-6.49-12.26-11.43-19.93-15.06-8.97-4.25-15.3-11.09-20.03-19.61-.32-.58-.61-1.19-.87-1.81-.08-.18-.01-.42-.01-.88z" fill="#010103"/></svg>