<svg enable-background="new 0 0 400 400" viewBox="0 0 400 400" xmlns="http://www.w3.org/2000/svg"><g fill="#fcfafa"><path d="m342.2 3.2-6.3 9.2h6.1v1.2h-8.2v-.5l6.2-9.1h-5.7v-1.2h7.8v.4z"/><path d="m344 13.7v-10.9h3.1c1.6 0 3 .5 4.1 1.4 1.1 1 1.6 2.2 1.6 3.9s-.5 3-1.6 4-2.5 1.5-4.2 1.5h-3zm1.4-9.6v8.4h1.6c1.4 0 2.5-.4 3.2-1.1.8-.8 1.2-1.8 1.2-3.2s-.4-2.4-1.2-3.1-1.8-1-3.1-1z"/><path d="m356.3 2.8v10.9h-1.4v-10.9z"/><path d="m366.6 13.2c-.8.4-1.8.6-3 .6-1.6 0-2.8-.5-3.7-1.5s-1.4-2.3-1.4-3.9c0-1.7.5-3.2 1.6-4.2s2.4-1.6 4-1.6c1 0 1.9.1 2.6.4v1.5c-.8-.4-1.6-.6-2.6-.6-1.2 0-2.2.4-3 1.2s-1.1 1.9-1.1 3.3c0 1.3.4 2.3 1.1 3.1s1.6 1.1 2.8 1.1c1.1 0 2-.2 2.8-.7v1.3z"/><path d="m368.2 13c0-.3.1-.5.3-.6.2-.2.4-.3.6-.3.3 0 .5.1.7.3s.3.4.3.6-.1.5-.3.6c-.2.2-.4.3-.7.3s-.5-.1-.6-.3c-.2-.2-.3-.4-.3-.6z"/><path d="m381.1 13.7h-1.7l-5.5-8.4c-.2-.2-.3-.5-.4-.7 0 .2.1.8.1 1.5v7.6h-1.4v-10.9h1.8l5.3 8.3c.3.4.4.6.4.8 0-.3-.1-.8-.1-1.6v-7.5h1.4v10.9z"/><path d="m389.7 13.7h-5.8v-10.9h5.6v1.2h-4.2v3.5h3.9v1.2h-3.9v3.7h4.4z"/><path d="m398.4 4.1h-3.1v9.6h-1.4v-9.6h-3.1v-1.3h7.7v1.3z"/></g><path d="m22.6 125.49c8.78-.1 16.99 1.19 24.93 4.14 3.14 1.17 6.24 2.46 9.37 3.65 7.84 2.97 14.76 7.09 20.22 13.74 4.39 5.35 9.58 10.04 14.26 15.16.93 1.02 1.6 2.68 1.64 4.06.17 6.27.08 12.54.08 18.81v3.53c8.81-.63 17.15-1.33 25.51-1.81 24.12-1.39 48.24-2.75 72.36-4 14.63-.76 29.28-1.78 43.91-1.74 6.79.02 13.57 2.35 20.37 3.5 7.81 1.31 15.63 2.51 23.46 3.67 1.19.18 2.45-.09 3.68-.22 6.88-.72 12.13-3.36 15.98-9.8 8.04-13.43 17.19-26.22 22.94-40.89 1.78-4.54 2.68-9.43 3.75-14.22.17-.77-.78-2.46-1.47-2.62-2.77-.64-5.8-1.6-8.46-1.08-27.2 5.3-54.36 10.87-81.52 16.38-.97.2-2.01.38-2.85.86-14.56 8.34-30.59 11.67-46.95 13.83-3.63.48-6.88-.47-10.18-2.41-16.24-9.56-29.04-23.02-41.8-36.49-3.19-3.37-5.17-7.9-7.31-12.28 5.78.63 11.29-.31 16.29 3.4 7.01 5.2 15.42 5.75 23.8 4.62 10.07-1.36 20.05-3.49 30.15-4.6 19.9-2.19 39.86-3.91 59.79-5.83 22.27-2.14 44.54-4.27 66.82-6.41 2.56-.25 5.12-.48 7.68-.78 5.79-.66 9.42-4.92 8.15-10.73-1.08-4.95-3.3-9.65-5.05-14.44-.26-.73-.69-1.39-1.27-2.54 1.27.29 2.18.43 3.04.71 10.51 3.44 21.05 6.82 31.5 10.46 1.57.55 3.25 2.03 3.98 3.52 4.78 9.72 3.49 19.67.11 29.39-4.69 13.51-9.8 26.88-14.76 40.3-.38 1.04-.95 2.02-1.54 2.96-16.34 25.94-32.45 52.02-49.19 77.7-5.41 8.3-12.4 15.57-18.74 23.24-8.41 10.19-16.74 20.44-25.4 30.42-4.01 4.61-8.31 9.15-13.16 12.82-16.87 12.77-34.38 24.62-53.14 34.51-6.14 3.24-12.54 5.57-19.59 4.58-8.4-1.18-15.4 2.69-22.74 5.61-1.73.69-3.9 1-5.71.65-13.5-2.61-26.97-5.38-40.41-8.26-1.6-.34-3.32-1.38-4.43-2.6-12.66-13.91-25.25-27.88-37.75-41.94-1.26-1.42-2.22-3.39-2.63-5.25-3.92-18.02-7.54-36.1-11.57-54.1-2.44-10.9-5.3-21.71-8.25-32.48-.96-3.5-2.02-6.86-1.09-10.47 1.83-7.12-.86-13.7-2.36-20.41-1.13-5.02-2.68-9.95-3.6-15-.95-5.21-3.47-9.38-7.11-13.01-2.59-2.59-3.8-5.69-3.74-9.81zm116.45 179.03c4.79-.52 9.86-.67 14.76-1.67 18.44-3.76 35.32-11.35 50.67-22.13 23.45-16.46 44.64-35.55 64.21-56.43 2.11-2.25 3.44-5.53 4.28-8.57 1.35-4.88-.85-8.72-5.81-10.1-3.48-.97-7.3-1.58-10.87-1.27-15.49 1.38-30.93 3.26-46.41 4.77-13.72 1.34-27.53 2.7-40.27 8.2-16.5 7.13-32.62 15.15-48.94 22.71-1.77.82-3.77 1.44-5.71 1.57-7.81.51-15.64.88-23.46 1.1-2.1.06-3.16.7-3.25 2.78-.27 6.33-1.54 12.81-.59 18.95 1.95 12.6 8.58 23.4 15.51 33.89.54.81 1.97 1.27 3.06 1.44 5.74.89 11.51 1.61 17.27 2.44 5.1.73 10.18 1.52 15.55 2.32z" fill="#010103"/></svg>