<svg enable-background="new 0 0 400 400" viewBox="0 0 400 400" xmlns="http://www.w3.org/2000/svg"><path d="m5.17 384 .55-.58c.85.61 1.65 1.24 2.4 1.87l-.59.64c-.83-.73-1.62-1.38-2.36-1.93m1.22 9.53-.82-.34c.71-1.76 1.37-3.64 1.98-5.63.24.13.5.25.76.36-.6 1.67-1.24 3.54-1.92 5.61m-.5-13.5.57-.54c.56.44 1.31 1.06 2.26 1.87l-.64.64c-.68-.66-1.41-1.32-2.19-1.97m3.25.46h2.24v-1.36h.77v1.36h4.57v-1.36h.76v1.36h2.28v.69h-2.28v1.84h-2.64v1.26h4.18v2.64h-4.21c0 .45-.02.86-.05 1.21h4.32v.69h-4.38c-.04.34-.1.75-.19 1.22h5.15v.69h-4.82c.87 1.19 2.51 1.92 4.93 2.19-.17.31-.3.57-.37.76-2.77-.49-4.52-1.41-5.26-2.76-.56 1.26-2.3 2.23-5.24 2.9-.12-.24-.26-.48-.43-.72 2.73-.55 4.38-1.34 4.96-2.38h-4.38v-.69h4.65c.1-.38.17-.79.21-1.22h-4.32v-.69h4.4c.03-.34.05-.75.05-1.21h-4.2v-2.64h4.23v-1.26h-2.69v-1.84h-2.24zm1.46 4.46v1.29h3.45c.01-.4.02-.57.01-.53v-.32-.45h-3.46zm1.55-2.59h4.57v-1.19h-4.57zm6.11 2.59h-3.42v.77c-.01.19-.01.37-.02.53h3.44z" fill="#fafafc"/><path d="m32.63 379.16h.82v1.98h3.54v7.89h1.46v.78h-14.37v-.78h1.46v-7.89h3.54v-1.98h.82v1.98h2.73zm-3.49 11.48.5.73c-1.61.82-3.28 1.63-5 2.41-.13-.27-.28-.55-.44-.82 1.75-.72 3.4-1.49 4.94-2.32m-2.78-5.55h2.73v-3.18h-2.73zm0 3.95h2.73v-3.2h-2.73zm3.54-3.95h2.73v-3.18h-2.73zm0 3.95h2.73v-3.2h-2.73zm7.89 4.68c-1.84-.92-3.51-1.7-5.02-2.32l.45-.73c1.89.8 3.57 1.55 5.04 2.23zm-1.62-11.81h-2.73v3.18h2.73zm-2.73 7.13h2.73v-3.2h-2.73z" fill="#fafafc"/><path d="m300.85 256.6c.47-15.64.93-31.14 1.4-46.82-8.37-1.99-16.57-2.76-24.84-2.24-9.84.62-19.66 1.39-29.32-1.42-19.86-5.79-37.83-20.4-41.57-47.84-1.83-13.39-1.66-26.77-1.98-40.18-.22-9.28-1.17-18.56 1.41-27.69.24-.86.43-1.74.67-2.59 1.5-5.24 1.51-5.12 6.82-5.23 2.15-.04 3.12.72 3.93 2.65 8.1 19.35 12.27 39.39 11.6 60.45-.58 18.24 6.79 28.16 24.37 33.15 4.7 1.34 9.64 2.56 14.47 2.58 10.48.05 20.97-.65 31.45-1.24.96-.05 2.44-1.36 2.67-2.32 1.52-6.38 3.46-12.77 3.97-19.26 1.43-18.03-.41-36.01-2.24-53.93-1.32-12.89-3.06-25.76-5.1-38.56-1.12-7.04-3.38-13.89-4.85-20.89-1-4.78-1.08-9.68 1.96-13.87.79-1.08 2.67-1.94 4.04-1.93 3.9.04 7.8.68 11.7.88 1.8.09 2.53.65 2.69 2.52 2.22 25.08 4.21 50.18 6.87 75.21 1.83 17.23 4.53 34.36 6.96 51.52 2.16 15.28 4.51 30.53 6.68 45.81.2 1.38-.1 2.9-.48 4.28-6.55 24.22-8.49 49.14-10.43 73.98-1.12 14.31-6.58 26.98-11.07 40.16-2.28 6.68-5.81 11.75-11.75 15.53-4.52 2.87-8.83 6.15-12.9 9.65-14.18 12.17-31.18 18.24-48.92 22.35-27.47 6.37-55.06 6.54-82.32-1.16-9.31-2.63-18.19-6.76-27.25-10.24-.71-.27-1.37-.77-1.94-1.28-10.63-9.44-21.31-18.81-31.83-28.37-13.47-12.23-21.17-27.56-24.9-45.31-8.92-42.46-10.59-85.39-9.47-128.56.81-31.37 3.34-62.56 9.59-93.35 1.73-8.53 3.99-16.96 6.16-25.4.37-1.42 1.34-2.78 2.33-3.92 1.6-1.86 3.45-3.51 5.19-5.25 3.22-3.22 5.33-3.39 7.4.66 1.97 3.85 3.59 8.39 3.63 12.64.2 20.36-.02 40.74-.4 61.1-.84 44.65-1.81 89.29-2.89 133.93-.09 3.66 1.17 6.35 4.04 7.76 3.73 1.83 7.79 3.57 11.85 4 5.28.56 10.77.25 16.05-.5 10.63-1.51 21 .04 31.28 2.15 16.44 3.38 33.07 3.6 49.73 4.01 27.61.69 55.22 1.61 82.84 2.4 4.02.08 8.04-.02 12.7-.02zm-107.86 19.38v.05c-28.27-1.02-56.55-2.03-84.82-3.1-1.81-.07-2.81.46-3.59 2.17-5.28 11.55-2.96 22.23 5.08 31.17 9.63 10.71 20.25 20.53 30.48 30.7.68.68 1.64 1.2 2.56 1.52 27.88 9.72 56.37 12.9 85.53 7.28 24.6-4.73 45.13-17.16 63-34.34.79-.76 1.28-2.06 1.45-3.17 1-6.63 1.53-13.36 2.88-19.91.78-3.8-.81-5.66-3.58-7.28-5.19-3.03-10.93-3.89-16.81-3.83-9.39.11-18.79.74-28.18.54-18.02-.37-36.01-1.17-54-1.8z" fill="#010101"/></svg>