<svg enable-background="new 0 0 400 400" viewBox="0 0 400 400" xmlns="http://www.w3.org/2000/svg"><path d="m5.17 384 .55-.58c.85.61 1.65 1.24 2.4 1.87l-.59.64c-.83-.73-1.62-1.38-2.36-1.93m1.22 9.53-.82-.34c.71-1.76 1.37-3.64 1.98-5.63.24.13.5.25.76.36-.6 1.67-1.24 3.54-1.92 5.61m-.5-13.5.57-.54c.56.44 1.31 1.06 2.26 1.87l-.64.64c-.68-.66-1.41-1.32-2.19-1.97m3.25.46h2.24v-1.36h.77v1.36h4.57v-1.36h.76v1.36h2.28v.69h-2.28v1.84h-2.64v1.26h4.18v2.64h-4.21c0 .45-.02.86-.05 1.21h4.32v.69h-4.38c-.04.34-.1.75-.19 1.22h5.15v.69h-4.82c.87 1.19 2.51 1.92 4.93 2.19-.17.31-.3.57-.37.76-2.77-.49-4.52-1.41-5.26-2.76-.56 1.26-2.3 2.23-5.24 2.9-.12-.24-.26-.48-.43-.72 2.73-.55 4.38-1.34 4.96-2.38h-4.38v-.69h4.65c.1-.38.17-.79.21-1.22h-4.32v-.69h4.4c.03-.34.05-.75.05-1.21h-4.2v-2.64h4.23v-1.26h-2.69v-1.84h-2.24zm1.46 4.46v1.29h3.45c.01-.4.02-.57.01-.53v-.32-.45h-3.46zm1.55-2.59h4.57v-1.19h-4.57zm6.11 2.59h-3.42v.77c-.01.19-.01.37-.02.53h3.44z" fill="#fafafc"/><path d="m32.63 379.16h.82v1.98h3.54v7.89h1.46v.78h-14.37v-.78h1.46v-7.89h3.54v-1.98h.82v1.98h2.73zm-3.49 11.48.5.73c-1.61.82-3.28 1.63-5 2.41-.13-.27-.28-.55-.44-.82 1.75-.72 3.4-1.49 4.94-2.32m-2.78-5.55h2.73v-3.18h-2.73zm0 3.95h2.73v-3.2h-2.73zm3.54-3.95h2.73v-3.18h-2.73zm0 3.95h2.73v-3.2h-2.73zm7.89 4.68c-1.84-.92-3.51-1.7-5.02-2.32l.45-.73c1.89.8 3.57 1.55 5.04 2.23zm-1.62-11.81h-2.73v3.18h2.73zm-2.73 7.13h2.73v-3.2h-2.73z" fill="#fafafc"/><path d="m182.61 79.19c4.56-.6 8.84-1.28 13.14-1.63.8-.07 1.87 1.03 2.53 1.83 11.3 13.8 25.59 23.2 42.92 27.02 10.29 2.27 20.99 3.33 31.54 3.68 21.47.72 42.57-2.15 63.32-8.02 6.34-1.79 9.47-5.87 11.59-11.33.96-2.47 1.6-5.14 1.92-7.78.92-7.62 4.08-14.33 7.9-21.12 5.85 6.33 8.79 13.7 10.48 21.87 5.49 26.6 4.66 53.13-.16 79.7-6.35 35-14.1 69.65-24.66 103.66-2.83 9.12-7.31 16.58-14.63 22.95-13.55 11.82-27.94 22.42-43.44 31.41-3.65 2.12-8.6 2.06-12.97 2.87-21.87 4.04-43.72 8.23-65.65 11.97-14.75 2.52-29.53 5.3-44.65 3.86-17.25-1.64-33.32-6.39-46.92-17.73-2.92-2.44-5.78-4.99-8.92-7.11-12.52-8.46-20.76-20.5-28.19-33.23-13.73-23.54-22.72-49.07-30.19-75.08-6.31-22-11.3-44.38-16.96-66.57-1.9-7.47-4.12-14.86-6.1-22.31-2.32-8.78-2.51-17.69-1.23-26.63.11-.79 1.09-1.86 1.88-2.1 6.73-2.08 6.79-2.06 10.14 4.27 9.82 18.53 16.89 38.19 23.5 58.03 4.28 12.84 9.4 25.3 15.84 37.28 6.62 12.32 17.11 16.64 30.12 15.46 8.65-.78 17.17-2.93 25.75-4.42 3.53-.61 7.1-.93 10.61-1.65 3.74-.76 6.48 1.43 9.33 3s5.3 2.15 7.74-.44c5.7-6.05 12.89-4.16 19.79-3.72 12.39.79 24.77 1.67 37.17 2.4 1.73.1 3.54-.27 5.24-.73 2.48-.67 4.94-1.47 7.31-2.45 10.99-4.57 22.52-6.12 34.31-6.82 15.85-.94 31.69-2.27 47.52-3.6 1.45-.12 3.16-1.1 4.12-2.22 4.74-5.52 9.22-11.25 13.87-16.85 6.04-7.27 6.95-16.03 7.2-24.94.02-.81-1.17-2.03-2.08-2.44-5.28-2.39-10.81-2.61-16.41-1.31-11.12 2.59-22.22 5.33-33.76 4.83-24.96-1.1-49.76-3.48-73.84-10.66-6.76-2.02-13.35-4.63-18.68-9.49-1.11-1.02-2.08-2.67-2.28-4.15-1.77-13.04-3.37-26.12-5.06-39.56zm12.84 223.75c25.17-.49 49.37-4.18 73.17-11.05 14.34-4.14 25.02-12.28 32.69-24.94 3.47-5.73 7.48-11.15 11.57-16.46 8.3-10.79 3.21-25.44-10.1-28.13-4.69-.95-9.53-1.36-14.32-1.57-11.39-.51-22.74-.78-34.13.96-16.12 2.47-32.31 4.6-48.55 6.07-14.01 1.27-28.16 1.03-42.19 2.15-15.41 1.23-30.27 5.13-43.55 13.32-13.26 8.18-11.35 4.77-10.13 20.12.01.11.01.22.03.33 1.38 9.02 5.65 16 13.77 20.65 22.38 12.82 46.5 18.69 71.74 18.55z" fill="#010101"/></svg>