<svg enable-background="new 0 0 400 400" viewBox="0 0 400 400" xmlns="http://www.w3.org/2000/svg"><g fill="#fcfafa"><path d="m342.2 3.2-6.3 9.2h6.1v1.2h-8.2v-.5l6.2-9.1h-5.7v-1.2h7.8v.4z"/><path d="m344 13.7v-10.9h3.1c1.6 0 3 .5 4.1 1.4 1.1 1 1.6 2.2 1.6 3.9s-.5 3-1.6 4-2.5 1.5-4.2 1.5h-3zm1.4-9.6v8.4h1.6c1.4 0 2.5-.4 3.2-1.1.8-.8 1.2-1.8 1.2-3.2s-.4-2.4-1.2-3.1-1.8-1-3.1-1z"/><path d="m356.3 2.8v10.9h-1.4v-10.9z"/><path d="m366.6 13.2c-.8.4-1.8.6-3 .6-1.6 0-2.8-.5-3.7-1.5s-1.4-2.3-1.4-3.9c0-1.7.5-3.2 1.6-4.2s2.4-1.6 4-1.6c1 0 1.9.1 2.6.4v1.5c-.8-.4-1.6-.6-2.6-.6-1.2 0-2.2.4-3 1.2s-1.1 1.9-1.1 3.3c0 1.3.4 2.3 1.1 3.1s1.6 1.1 2.8 1.1c1.1 0 2-.2 2.8-.7v1.3z"/><path d="m368.2 13c0-.3.1-.5.3-.6.2-.2.4-.3.6-.3.3 0 .5.1.7.3s.3.4.3.6-.1.5-.3.6c-.2.2-.4.3-.7.3s-.5-.1-.6-.3c-.2-.2-.3-.4-.3-.6z"/><path d="m381.1 13.7h-1.7l-5.5-8.4c-.2-.2-.3-.5-.4-.7 0 .2.1.8.1 1.5v7.6h-1.4v-10.9h1.8l5.3 8.3c.3.4.4.6.4.8 0-.3-.1-.8-.1-1.6v-7.5h1.4v10.9z"/><path d="m389.7 13.7h-5.8v-10.9h5.6v1.2h-4.2v3.5h3.9v1.2h-3.9v3.7h4.4z"/><path d="m398.4 4.1h-3.1v9.6h-1.4v-9.6h-3.1v-1.3h7.7v1.3z"/></g><path d="m56.13 316.01c-.88-1.83-1.72-3.59-2.62-5.46 1.48-1.14 2.78-2.15 4.42-3.41-6.08-6.56-12.07-13-18.43-19.86 3.65.19 3.9-1.95 3.73-4.37-2.27-.85-4.83-1.25-6.58-2.65-1.25-1.01-1.41-3.37-2.23-5.63 6-1.07 6.06-5.48 5.73-9.85-.11-1.51-.99-3.09-1.88-4.39-4.05-5.99-8.71-11.62-12.22-17.9-2.93-5.25-3.55-11.29-1.05-17.16 3.1-7.29 2.95-14.44-.59-21.53-.3-.59-.36-1.31-.66-1.89-1.37-2.62-.48-4.65.66-7.33 2.44-5.78 3.79-12.03 5.5-18.11.19-.66.1-1.86-.33-2.17-5.22-3.82-4.46-9.92-6.25-15.26.93-.35 1.62-.66 2.34-.88 3.65-1.15 4.85-3.17 3.95-6.85-.77-3.14-1.47-6.32-2.5-9.38-1.31-3.9.22-7.01 3.3-8.61 6.74-3.5 6.93-9.49 7.23-15.67-5.5-1.35-5.5-1.35-3.95-9.16 4.41.62 4.87-2.41 5.12-5.87-2.11-.72-4.19-1.42-6.6-2.24 2.1-6.09 4.26-11.94 6.04-17.9.42-1.4.05-4-.91-4.68-3.67-2.6-3.54-5.89-2.71-9.56.34-1.5.64-3.02 1.03-4.84 5.57 1.46 9-.99 11.85-5.39 2.11-3.26 5.8-3.18 8.49-.44 2.55 2.59 7.55 1.76 10.44-1.8 1.2-1.47 2.4-2.98 3.35-4.61 1.11-1.91 2.47-2.3 4.46-1.57 2.02.74 3.26 1.91 3.01 4.21-.1.89-.21 1.78-.29 2.67-.57 6.17 1.71 9.26 7.68 10.87 1.78.48 4.86 1.69 4.81 2.4-.17 2.73-.85 5.74-2.33 7.99-1.53 2.32-4.21 3.87-6.57 5.91 1.74 1.07 3.14 1.94 5.41 3.34-5.52.39-6.45 4.09-7.43 7.85-.95 3.65-2.68 6.6-6.98 7.05-1.87.19-2.45 1.44-2.51 3.28-.18 6.26-.53 12.52-.75 18.78-.03.94.04 2.16.59 2.81 5.89 7.15 11.89 14.21 18.16 21.65 1.85-2.47 3.49-4.67 5.15-6.89 2.35 3.17 4.6 3.42 7.53.88 3.09-2.68 6.59-3.65 10.59-2.76 1.64.37 3.27.74 4.92 1.05 6.38 1.21 12.57 1.23 17.52-3.81 5.76-5.86 12.21-6.85 19.56-3.43 4.25 1.98 7.97 1.74 11.3-2.25.84-1.01 3.44-.55 5.24-.74.21-.02.49.02.65.14 6.6 4.96 12.21 2 17.64-2.21 2.33-1.81 4.3-2.46 6.95-.07 2.76 2.49 6.44 2.47 9.85 1.22 6.63-2.44 13.17-1.99 20.06-.88 4.67.76 9.73-.25 14.52-1.07 18.51-3.17 36.97-6.59 55.45-9.93.98-.18 2.02-.38 2.87-.86 7.56-4.21 15.83-5.95 24.28-7.22 9.5-1.44 13.11-6.68 11.11-15.72-.07-.33-.01-.76-.2-.97-5.56-6.32-2.82-13.55-2.28-20.54.03-.44.28-.91.2-1.32-1.17-6.43 3.38-9.91 7.15-13.71 1.7-1.72 3.68-1.41 5.29.32 1.29 1.38 2.45 2.9 3.94 4.69 2.46-1.75 4.88-3.46 7.68-5.44 2.84 5.09 5.41 10.13 8.39 14.91 2.2 3.53 3.21 6.95 1.61 10.98-1.08 2.73-.57 5.34.82 7.98 1.71 3.26 2.86 6.81 4.57 10.06 2.06 3.92 2.9 7.54 1.01 12-.88 2.07.34 5.18 1.01 7.72.61 2.31.31 4.19-.63 6.39-1.14 2.67-2.05 5.68-2.06 8.55-.03 12.02-.92 23.92-3.64 35.64-.55 2.34-1.88 4.49-2.51 6.82-.82 3.08-1.4 6.23-1.9 9.38-.45 2.85-.28 5.84-1.04 8.59-2.17 7.86-4.96 15.55-6.95 23.44-1.65 6.55-4.13 12.49-8.98 17.25-1.76 1.72-1.91 3.36-.48 5.24 1.98 2.61 1.98 5.1.21 7.95-1.64 2.64-2.63 5.68-4.12 8.42-3.63 6.65-6.27 13.51-6.11 21.29.04 1.98-.96 4.07-1.82 5.97-1.15 2.54-2.91 4.82-3.89 7.41-1.92 5.07-5.27 7.72-10.76 7.42-2.22-.12-3.59.83-4.16 2.99-1.33 5.01-4.89 6.93-9.74 8.15-11.05 2.77-22 6-32.86 9.43-3.07.97-5.99 2.97-8.51 5.07-4.99 4.16-10.47 6.98-16.75 8.69-9.91 2.7-19.73 5.78-29.53 8.89-6.87 2.18-13.34 1.94-19.82-2.53-3.04 4.56-7.72 4.73-12.68 4.43-3.56-.21-6.7 1.05-9.52 3.46-1.14.98-3.18 1.43-4.73 1.3-4.11-.36-8.23-.97-12.26-1.84-7.03-1.52-13.76.7-20.61 1.35-4.78.45-9.56 1.11-14.28 2.02-2.33.45-3.78-.01-5.03-1.99-.94-1.49-2.2-2.79-3.7-4.63-2.33 4.57-6.35 4.73-10.48 4.5-.84-.04-1.93-.17-2.44-.71-3.09-3.2-7.04-4.13-11.21-4.65-5.96-.75-10.65-3.08-12.35-9.48-.63-2.36-1.94-4.53-2.63-6.88-1.06-3.65-2.62-6.23-7.12-5.33-.61.12-1.65-1.01-2.2-1.77-.5-.69-.59-1.67-.87-2.52-1.31-3.96-3.66-4.78-7.15-2.23zm25.55-154.11c-3.19 5.18-3.21 5.11-9.33 6.98-3.04.93-5.75 2.38-7.08 5.63-.67 1.65-1.68 3.15-2.55 4.72-1.82 3.28-3.47 3.76-7.09 2.47-1.15-.41-2.68-.58-3.78-.18-2.48.9-4.8 2.24-7.49 3.54 6.39 7.45 12.49 14.58 18.64 21.67.46.52 1.31.75 2.02 1 3.36 1.19 6.36.69 8.99-2.67 1.47 1.69 2.71 2.99 3.79 4.41 3.03 3.97 7.25 5.53 11.99 5.69 6.74.22 13.49.15 18.99 5 .15.13.42.15.64.19 7.59 1.37 15.13 3.48 22.77 3.97 19.07 1.22 38.19 1.77 57.29 2.43 2.25.08 4.74-.4 6.77-1.36 7.83-3.72 15.91-5.52 24.65-5.25 2.51.08 5.91-1.5 7.47-3.46 2.4-3.04 4.89-4.11 8.47-3.67.98.12 2.06-.37 3-.15 2.51.6 4.96 1.5 7.46 2.16 1.46.39 3.17 1.12 4.46.71 8.73-2.76 17.5-5.49 26.04-8.78 15.42-5.94 30.72-12.21 46.01-18.48 1.64-.67 3.76-2 4.18-3.46 1.39-4.79 4.65-6.83 9.13-7.48 3.83-.56 5.17-3.08 5.56-6.46.14-1.21.25-2.48.07-3.67-.59-3.93.28-7.42 2.21-10.92 2.72-4.91 3.39-10.14.89-15.45-1.62-3.43-5.12-4.43-8.26-2.3-1.01.69-1.9 1.56-2.8 2.41-4.17 3.91-6.7 3.49-9.52-1.55-1.63-2.91-3.8-5.14-7.48-4.44-5.12.97-10.22 2.11-15.31 3.24-9.68 2.15-18.68 5.8-26.94 11.45-2.86 1.96-6.5 2.84-9.85 4.02-6.17 2.17-12.13-.1-18.16-1.03-2.39-.37-5.2-2.19-6.95 1.49-.25.53-2.02.46-3.09.46-5.67-.02-11.57-1.16-16.99 0-23.52 5.04-47.06 8.43-71.22 6.1-6.65-.64-13.37.3-19.65 3.26-2.24 1.06-4.79 2.09-7.19 2.07-5.87-.05-11.98.28-17.17-3.33-4.5-3.12-11.24-3.39-15.37.08-2.22 1.87-3.91 2.09-6.04.26-.55-.48-1.29-.79-2.18-1.32zm18.5 96.93c-2.32-1.1-4.49-2.26-6.75-3.18-2.37-.96-4.89-1.57-7.26-2.54-2.94-1.21-4.87.06-5.99 2.53-1.83 4.05-2.4 8.18-1.19 12.7 1.25 4.69 2.1 9.58 2.34 14.42.16 3.12.97 5.18 3.48 6.97 2.9 2.07 3.45 4.45 1.66 7.48-1.83 3.1-.63 5.12 1.6 7.19 3.96-5.06 4.09-5.29 6.33-4.04 2.48 1.39 4.8 3.12 6.96 4.98.95.81 1.3 2.31 1.95 3.48.77 1.36 1.4 2.85 2.41 4 .75.85 2.16 1.9 3.02 1.71 1.22-.28 2.41-1.46 3.24-2.53 1.25-1.61.52-4.88 3.69-4.83 2.99.05 3.52 2.66 4.27 4.89.18.53.34 1.06.59 1.56 1.9 3.88 4.13 5.16 8.25 4.06 9.3-2.5 18.65-3.38 28.22-1.89 2.52.39 5.17.57 7.69.29 2.79-.32 5.1.27 7.08 2.1 2.34 2.16 4.99 2.59 8.05 2.05 2.19-.39 4.47-.22 6.68-.54 1.39-.2 3.01-.52 4-1.39 3.33-2.9 6.93-3.74 11.12-2.48 1.06.32 2.2.37 3.3.58 3.45.65 5.83-.76 7.45-3.76.46-.85.95-2.06 1.7-2.33 4.1-1.46 8.22-2.91 12.45-3.89 3.08-.71 4.52.75 4.72 4.03.11 1.75.02 3.5.02 5.23 4.97.19 5.36-.13 6.85-4.05.55-1.44 1.32-2.85 2.25-4.09 2.02-2.7 5.83-2.76 8.12-.27.3.32.57.72.95.9 3.58 1.65 11.04-1.59 12.38-5.29 1.72-4.75 4.38-8.23 9.94-9.18 6.23-1.06 12.33-2.85 18.51-4.32.05-1.11.25-1.91.1-2.65-.71-3.49 1.08-5.16 4.01-6.63 5.48-2.74 10.76-5.87 15.96-8.75-.14-5.75-4.21-10.75-2.23-17 3.75 2.42 5.25.84 6.47-2.18 1.5-3.72 3.96-7.14 4.98-10.96 1.54-5.77 2.22-11.78 3.2-17.7.08-.48-.28-1.06-.5-1.57-1.44-3.35-4.05-4.83-7.64-4.97-4.23-.17-8.52-.14-12.65-.9-3.28-.6-6.75-3.72-9.43-3.03-2.83.73-4.83 4.67-7.2 7.2-.46.49-.91.99-1.36 1.49-2.86 3.16-3.25 3.2-6.89.14-1.23 2.64-2.64 5.03-3.46 7.61-.71 2.22-1.98 3.11-4.11 3.7-11.4 3.15-22.97 5.86-34.08 9.84-14.57 5.22-28.96 10.48-44.71 10.72-8.65.13-17.17 1.42-24.73 6.24-.7.45-1.72.53-2.59.55-11.74.28-23.48.73-35.21.67-5.34-.03-10.76-.86-15.3-4.18-5.06-3.69-8.67-3.3-12.71 1.81z" fill="#010103"/></svg>