<svg enable-background="new 0 0 400 400" viewBox="0 0 400 400" xmlns="http://www.w3.org/2000/svg"><g fill="#fafafb"><path d="m12.4 4.8-6.1 9h6v1.2h-8v-.5l6.1-8.9h-5.7v-1.2h7.6v.4z"/><path d="m14 15v-10.6h3c1.6 0 2.9.5 4 1.4s1.6 2.2 1.6 3.8-.5 3-1.6 3.9-2.4 1.5-4 1.5zm1.4-9.4v8.2h1.6c1.3 0 2.4-.4 3.1-1.1s1.1-1.8 1.1-3.1-.4-2.3-1.2-3-1.8-1-3.1-1z"/><path d="m26.1 4.4v10.6h-1.4v-10.6z"/><path d="m36.1 14.6c-.8.4-1.8.6-2.9.6-1.5 0-2.7-.5-3.6-1.4s-1.4-2.2-1.4-3.8c0-1.7.5-3.1 1.5-4.1s2.3-1.6 3.9-1.6c1 0 1.8.1 2.5.4v1.4c-.8-.4-1.6-.6-2.5-.6-1.2 0-2.1.4-2.9 1.2s-1.1 1.8-1.1 3.2c0 1.3.3 2.3 1 3s1.6 1.1 2.7 1.1c1 0 2-.2 2.7-.7v1.3z"/><path d="m37.6 14.3c0-.2.1-.5.3-.6s.4-.3.6-.3c.3 0 .5.1.6.3s.3.4.3.6-.1.4-.3.6-.4.3-.6.3c-.3 0-.5-.1-.6-.3s-.3-.4-.3-.6z"/><path d="m50.2 15h-1.6l-5.3-8.2c-.2-.2-.3-.5-.4-.7 0 .2.1.7.1 1.5v7.4h-1.4v-10.6h1.7l5.2 8.1c.2.4.4.6.4.7 0-.3-.1-.8-.1-1.5v-7.3h1.4z"/><path d="m58.6 15h-5.7v-10.6h5.5v1.2h-4.1v3.4h3.8v1.2h-3.8v3.6h4.3z"/><path d="m67.1 5.6h-3.1v9.4h-1.4v-9.4h-3v-1.2h7.5z"/></g><path d="m63.27 315.01c-2.64 4.23-6.59 7.33-7.43 12.4-.09.52-.98.97-1.58 1.34-.9.56-1.87 1.03-3.25 1.77 0-2.2 0-4.38 0-6.55 0-5.6.21-11.21-.07-16.79-.2-4.01.49-7.51 3.6-10.45-3.36-3.08-3.71-6.94-3.68-10.92.5-68.52 1.02-137.05 1.48-205.57.12-18.13.02-36.26.02-53.75 97.17.38 193.72.75 290.58 1.13v4.06c0 31.8-.01 63.61.02 95.41 0 2.46.3 4.76-2.67 6.1-1.35.61-2.17 2.39-3.85 4.37 2.71-.48 4.49-.8 6.94-1.23-.77 1.28-1.4 2.33-2.28 3.81 2.25 2.99 2.18 6.81.7 10.82-.29.8.26 1.92.47 2.89.2.92.65 1.84.64 2.76-.19 22.62-.34 45.23-.68 67.85-.14 9.03 0 18.15-1.32 27.04-.88 5.91 1.7 11.35.59 17.04-.44 2.24-.96 4.46-1.52 7.08.28 1.55 1.05 3.74 1.03 5.92-.09 12.31-.53 24.61-.5 36.92.01 3.59-.66 6.25-3.98 7.95-.96.49-1.74 1.34-2.57 2.01.11.33.12.65.26.72 4.9 2.32 5.85 6.36 5.85 11.45 0 10.41.62 20.81.97 31.22.03.98 0 1.97 0 3.36-8.26 0-16.28 0-24.3 0-.11 0-.29.03-.33-.02-1.96-3.21-3.78-1.17-5.48.36-1.68-2.74-3.04-2.8-5.42-1.29-1.42.9-3.36.98-5.07 1.42-.35-.34-.7-.67-1.05-1.01 1.48-4.1 3.08-8.16 4.42-12.31 1.88-5.83 3.47-11.75 5.39-17.57.93-2.83.33-4.7-2.9-6.06v3.49c-1.92.61-4.2 1.33-7.09 2.25.54-2.3.96-4.08 1.44-6.17-4-2.02-8.09-4.09-12.47-6.32-.37 1.44-.61 2.35-.75 2.89-3.8.34-7.42.66-11.21 1-.29-1.31-.5-2.25-.76-3.42-2.69 0-5.42 0-8.28 0-.44-1-.87-2-.96-2.22-4.16-1.67-7.68-3.09-11.21-4.52-.09-.04-.24-.18-.22-.23 1.23-4.28-3.99-5.51-4.29-9.07-.03-.38-.29-.93-.59-1.07-4.69-2.06-3.15-6.97-4.75-10.43-.2-.43.39-1.2.55-1.82.43-1.71.83-3.44.83-5.27 2.54-2.33 2.71-4.21.77-5.48-.14-2.88 0-5.24-.44-7.47-.55-2.82-.84-5.32-.29-8.39.86-4.75 1.39-9.62 2.25-14.42.12-.67-.61-1.6-1.13-2.26-2.08-2.64-4.3-5.16-6.33-7.84-.85-1.12-1.52-2.44-1.97-3.78-.98-2.9-3-4.17-5.89-3.12-2.03.74-4.16 1.54-5.12-.95-.57-1.47.09-3.42.23-5.76-1.41-1.5-3.39-3.92-5.71-5.96-2.14-1.9-4.53-3.58-7.03-4.96-.87-.48-2.4.22-3.17.32-2.31-2.14-4.36-4.34-6.72-6.13-1.62-1.22-2.55-2.41-2.02-4.43.88-3.37-.56-5.69-3.15-7.74-3.38-2.68-5.19-6.37-5.46-10.65-.11-1.81.44-3.67.79-6.22-2.08-1.39-2.4-3.67.38-6.03-.5-1.02-.93-1.91-1.46-3.01 1.9-1.21 3.16-3.71 6-1.66.43.31 1.55-.02 2.19-.36 4.89-2.66 10.65-3.78 14.49-8.31 1.08-1.27 2.24-2.2 4.27-.83.84.56 2.94-.23 4.17-.93 1.09-.62 1.78-1.95 2.91-3.27 2.3 2.66 4.87 2.41 7.57 1.82 3.22-.7 4.14-2.01 3.9-6.48 3.51 1.87 5.51-.68 7.74-2.51 2.51-2.06 5.26-3 8.47-3.9 4.08-1.15 7.61-4.61 11.08-7.45 1.74-1.42 2.65-3.82 4.28-5.43.57-.57 2.18-.09 3.17-.33.87-.22 1.74-.44 2.61-.65.63-.15 1.48-.08 1.86-.47 3.63-3.76 7.24-7.56 10.71-11.46.54-.61.75-1.94.51-2.75-.54-1.8-1.62-3.44.06-5.27.28-.3-.27-1.36-.22-1.14 1.43-1.43 2.62-2.32 3.42-3.47 2.79-4.02 5.49-8.11 8.11-12.24.48-.76.65-1.87.58-2.78-.35-4.58.18-8.87 3.16-12.65.55-.7.46-2.04.39-3.06-.28-3.96-1.27-8 1.7-11.54-.66-.99-1.26-1.9-1.84-2.76 3.68-6.94 3.71-7.8.34-13.55.67-.42 1.43-.89 2.4-1.49-4.96-4.87 1.14-7 1.95-10.48-2.91-3.57-5.97-3.42-10.6.85-2.04-2.49-3.84-1.19-5.76.47-2.19 1.9-4.56 3.59-6.91 5.42-.94-.59-1.76-1.11-2.59-1.63-.27.17-.55.33-.82.5.66 1.17 1.33 2.33 2.09 3.68-5.3 1.78-13.77.08-14.23 8.39-3.7 1.26-6.64 1.9-9.22 3.23-3.35 1.73-3.22 1.97-6.93.13-3.19 3.69-6.46 7.47-9.96 11.5-.2-.62-.48-1.02-.41-1.34 1.09-5.31-1.37-8.91-5.56-11.73-.92-.62-1.7-1.45-2.55-2.19-4.85-4.24-5.57-7.09-3.35-13.24 1.26-3.49-1.53-6.42-4.91-6.06-.55-1.18-.98-2.13-1.38-2.99-3.94 2.79-7.31 5.19-10.68 7.58-7.26.1-10.91 5.44-14.55 10.82-.71-1.18-1.56-3.12-1.88-3.04-1.4.36-2.83 1.1-3.89 2.09-2.12 1.98-4 4.21-6.05 6.4-.68-.52-1.28-.97-2.17-1.63-.33 1.63-.63 3.1-.87 4.24-1.7.29-3.11.53-4.52.77.25.68.51 1.36.79 2.11-1.33.67-4.3-.33-3.17 3.31.25.8-2.39 2.49-3.94 4.01-.39-.25-1.27-.82-2.6-1.68-1.16 1.34-2.36 2.67-3.49 4.05-1.72 2.11-3.72 3.46-6.63 2.99-.71-.11-1.65.08-2.23.49-4.57 3.23-9.11 6.51-13.56 9.89-.57.43-.57 1.6-.86 2.5-.84.11-2 .25-3.59.45.57 1.23.93 2.04 1.3 2.84-.13.12-.25.23-.38.35-.87-.68-1.73-1.37-3.03-2.39-.23 3.08-5.86 3.03-3.63 7.69-.67-.34-1.3-.66-2.12-1.08-.39 1.29-.76 2.54-1.24 4.16-3.15-2.45-4.91.02-7.11 1.65-5.98 4.43-10.1 10.4-14.13 16.45-.55.82-.67 1.93-1.08 3.18-2.92-.52-2.39 2.18-2.81 3.86-1.13-.11-2.14-.21-3.14-.31.06 1.09.33 2.23.13 3.27-.6 3.06 1.37 6.7-2.06 9.17-.88.63-1.54 1.58-2.41 2.5.94 1.49 1.83 2.89 2.71 4.29-.19 1.67-4.65 2.08-.61 5.02-1.47-.13-2.15-.19-2.21-.2-.83 2.35-1.69 4.49-2.32 6.71-.23.83.1 1.83.23 3.52-.75 1.07-2.07 2.96-3.63 5.19 1.43.4 2.41.67 4.38 1.23-1.15.7-2.18 1.03-2.18 1.36 0 6.97-7.54 12.41-4.06 20.07.95 2.08.08 3.52-1.64 4.85-1.31 1.01-2.54 2.29-3.36 3.71-1.04 1.79-3.55 3.44-1.19 6.08.38.42-.18 1.67-.21 1.88 1.46 1.81 2.65 3.28 3.82 4.72 1.28.4 2.81 1.09 4.4 1.27.86.1 1.83-.65 2.73-1.06.87-.39 1.71-.84 2.77-.92 2.63-3.72 4.46-8.48 9.58-8.54 1.57-2.4 2.87-4.39 4.25-6.5 1.16.71 1.99 1.22 3.3 2.03 1.64-1.6 3.33-3.25 5.03-4.89.22-.21.5-.41.78-.5 2.16-.63 4.49-.9 6.45-1.92 1.94-1.01 3.5-2.75 5.13-4.09 4.41 2.17 8.64 2.56 13.21.84 2.7-1.02 5.71-2.22 8.54.13.32.27 1.07.11 1.6.02 3.53-.61 4.3-.09 4.32 3.28.03 4.55-.51 9.12 2.87 13.03.61.71-.12 2.72-.45 4.07-.65 2.6-1.46 5.17-2.26 7.97-.9-.16-2.07-.38-3.63-.66-.6 2.44-1.18 4.81-1.76 7.17.32.2.63.4.95.6.93-1.32 1.86-2.64 2.8-3.95.41.17.82.35 1.24.52-.26.78-.31 1.77-.82 2.3-1.75 1.8-3.62 3.48-5.55 5.08-.4.33-1.21.16-1.64.2-.56 2-1.1 3.96-1.57 5.64.13 1.87.24 3.59.36 5.3-.43.05-.85.11-1.28.16-.21-.75-.42-1.5-.7-2.52-.8.45-1.51.85-2.43 1.36.71.97 1.28 1.75 1.67 2.28-3.11 3.07-6.12 6.13-9.27 9.05-.38.35-1.5-.1-1.5-.1-2.95 3.32-5.66 6.36-8.39 9.42-.9-.38-1.6-.68-2.3-.98-1.04 5.59-5.68 3.21-8.82 4.03-1.93.5-4.01.47-5.9 1.08-2.11.67-3.89 1.77-2.85 4.7.21.59-.86 2.13-1.67 2.47-1.04.43-2.4.09-3.62.07-3.12-.04-3.65.72-2.84 2.89-1.8.38-3.68 1.12-5.54 1.08-2.36-.06-4.85.67-7.05-1.52-1.48-1.47-3.9-2.01-5.56-2.8-.51 2.45-.94 4.15-1.21 5.86-.45 2.8 1.72 3.86 3.62 3.67 3.68-.37 6.37.26 8.7 3.47.71.98 3.53.41 5.81.59.54 1.74 1.27 4.45 4.59 3.54 3.46-.95 3.39-3.94 3.08-7.42 3.1 3.22 7.3-2.41 9.38 1.97 2.17-.24 4.1-.07 5.68-.74 1.97-.83 3.71-2.29 5.45-3.6 2.07-1.56 3.81-4.08 6.22-2.36 1.89-1.51 3.45-3.08 5.28-4.17 3.9-2.33 8.59-3.5 11.01-8.21 2.09 2.45 3.82 2.24 5.92-.03 5.39-5.84 11-11.48 16.53-17.18.72-.75 1.53-1.42 2.96-1.68-.33.9-.66 1.8-1.2 3.26 3.46-.59 5.8-2.56 7.53-4.85.81-1.07.14-3.25-.66-5.06.27-.3.52-.63.83-.9 1.73-1.53 3.35-4.01 5.26-4.28 1.85-.25 3.97 1.88 6.06 2.78.84.36 1.89.24 3.09.37-.19.74-.39 1.54-.72 2.85 1.47-.07 2.68-.12 4.15-.19-.15.61-.34 1.36-.38 1.49 1.72 1.09 3.68 1.86 5.02 3.24 5.36 5.54 10.54 11.27 15.06 17.17.2 1.31.47 2.62.59 3.94.07.84-.07 1.71-.13 2.56-.11 1.69-.24 3.39-.4 5.72-2.41.24-3.79 2.81-4.98 5.7-.44 1.05-1.55 1.8-2.22 2.78-.98 1.44-1.84 2.96-2.5 4.57-.88 1.15-1.75 2.3-2.63 3.45.19.22.38.45.57.67-1.4 0-2.81 0-4.51 0 .18 1.19.31 2.11.47 3.19-.97.14-1.94.27-3.12.44.11 1.07.22 2.12.32 3.18-6.32-.44-12.07 3.68-13.92 9.9-2.67-.44-5.35-.96-8.06-1.27-.77-.09-1.96.17-2.37.71-3.43 4.58-4.5 4.87-9.16 1.97-.68.52-1.43 1.09-2.26 1.72-.49-1.39-.92-2.6-1.1-3.09-3.17 1.01-6.14 1.95-9.09 2.91-1.47.48-2.77.74-2.82 3.02-.02 1.22-1.97 2.4-3.27 3.83.2.4.64 1.24 1.38 2.68-1.51-.66-2.45-1.07-3.49-1.52-.23.55-.58.98-.53 1.36.66 4.57-2.37 6.82-5.29 9.56-5.54 5.2-10.61 10.89-16.02 16.54-1.11-.67-2.22-1.34-3.79-2.29-.91 2.15-1.77 4.17-2.8 6.62-2.68.08-4.62 1.71-5.38 5.04-.18.8-1.99 1.23-3.38 2.01.06.47.19 1.42.36 2.62-3.16-.2-4.38 2.07-5.37 4.47-1.3 3.13-2.91 5.62-7.26 4.13.35 1.26.57 2.03.82 2.94-2.27 0-4.36 0-7.21 0 1.44-1.98 2.56-3.51 3.98-5.45-.09-.28-.38-1.17-.74-2.26 1.29-.59 2.47-1.14 3.26-1.5.43-1.2.49-2.44 1.11-2.89 6.51-4.68 12.39-9.93 16.51-16.93.17-.29.35-.65.62-.78 6.5-3.16 10.33-9.03 14.67-14.38 1.34-1.65 2.68-3.29 4.21-5.17-1.14-.62-2.15-1.17-3.13-1.7-3.5 4.36-6.25 5.17-9.25 2.66-1.79 2.28-3.71 4.46-5.3 6.87-.56.85-.37 2.21-.45 3.35-.06.93-.01 1.87-.54 2.89-1.48-3.29-3.83-5.34-7.07-5.08-1.35.11-3.12 2.24-3.59 3.79-.35 1.15 1.07 2.84 1.54 3.91-1.61 2.29-3.43 4.88-5.24 7.47.1.05.2.09.3.14-.76.65-1.76 1.16-2.22 1.98-.58 1.04-.54 2.42-1.11 3.47-.44.81-1.79 2.04-2.07 1.89-4.15-2.33-6.15 1.73-9.26 2.91-.58-.47-1.24-1-1.71-1.38-1.05 3.7-2.08 7.35-3.26 11.53.26.39.99 1.5 2.11 3.2-2.83.38-4.97.66-7.54 1-.35-2.64-.36-5.12-1.08-7.37-.57-1.76-1.73-3.59-3.14-4.76-1.85-1.52-3.87-1.5-4.95 1.37-.37.98-1.34 1.73-2.05 2.58-1.21 1.47-2.42 2.93-4.02 4.87-2.52-.3-3.25.53-1.89 3.92-4.22-.24-8.31-.47-12.79-.72 0-4.92 0-9.59 0-14.26 0-2.24.42-4.58-.07-6.7-2.37-10.3 4.49-14.78 11.77-19.19.74 1.63 1.47 3.25 2.43 5.36-2.84 1.95-5.64 3.87-8.45 5.8-.22-.27-.44-.55-.67-.82-.65 1.88-1.3 3.76-1.96 5.65 5.74 1.77 5.96 1.7 7.95-1.74h6c-.22.54-.51 1.28-.81 2.01 4.16 2.54 7.01 2.25 10.35-1.16 4.7-4.8 9.26-9.74 14.09-14.4 3.96-3.82 4.09-3.68 8.88-.96 1.15-1.71 2.31-3.44 3.21-4.78-3.17-.35-6.31-.71-9.89-1.11-3.56 4.38-4.19 4.62-8.49 2.19-3.56 3.24-7.28 6.63-11.52 10.49-1.76-.19-2.82-1.4-2.93-4.42-.12-3.07-1.49-6.09-2.32-9.13-.31.03-.62.05-.93.08.58-.92 1.16-1.84 1.75-2.75-.29-.02-.58-.05-.86-.07 0-2.09 0-4.18 0-6.67-1.48-.72-3.32-1.71-5.35-2.79zm72.72-18.5c-2.2.7-4.21.72-5.02 1.72-2.53 3.1 2.8 3.45 2.03 6.51 4.48-2.72 6.26 1.55 9.23 2.77 2.86-2.27 5.64-4.47 8.49-6.74 2.23 1.87 4.25 3.57 6.25 5.24 4.95-4.73 9.7-9.3 14.47-13.84 8.99-8.55 17.96-17.11 27.03-25.58 1.39-1.29 3.22-2.1 4.85-3.14.64-.35.65-1.34.63-2.33-.05-3.45-1.09-4.22-4-2.48-2.28 1.37-4.23 3.28-6.46 5.07-1.53-2.17-3.94-3.43-6.86-1.83-1.79.97-3.93 2.22-1.99 4.8-1.47 0-2.69 0-4.53 0 .97 1.26 1.42 1.84 1.92 2.5-1.04.46-1.93.85-2.83 1.24.24.13.48.27.72.4-1.65 3.79-3.31 7.59-5 11.46-1.26-.64-2.1-1.07-3.18-1.62-1.44 4.04-4.45 5.04-7.12 4.46-2.34 4.01-4.31 7.39-6.41 11-1.03-.98-1.65-1.57-2.43-2.32-2.62 2.87-4.86.19-7.3-.4-1.43-.35-3.05-.87-4.38-.53-2.76.71-5.37 1.95-8.23 3.03.06.19.16.88.12.61zm116.78-61.58c5.65-4.75 11.72-8.94 16.59-14.23 3.79-4.11 7.1-8.41 12.2-11.11 1.81-.96 3.46-2.79 3.91-5.3.48-2.65 3.93-4.42 6.56-4.12 1.31.15 3.1-.18 4.01-1.02 3.35-3.06 6.42-6.43 9.6-9.68.58-.59 1.15-1.6 1.78-1.64 3.91-.25 7.43 3.37 11.58 1.19.06-.03.19.07.28.1.39.84.77 1.68 1.38 2.99 3.11-4.38 9.33-5.69 9.17-12.1-.01-.39.54-.94.96-1.18 3.63-2.11 3.87-3.83 1.15-6.84-1.73.49-3.28 1.12-4.89 1.33-1.75.22-3.56.05-5.32.05-.58 6.15-3.86 9.14-9.75 8.81-2.69-.15-4.64.59-6.46 2.64-1.13 1.27-2.95 1.97-4.55 2.76-1.6.8-3.63 1.01-4.91 2.13-11.19 9.73-20.7 21.41-33.68 29.08-.94.55-1.5 2.25-2.35 2.34-2.11.22-2.46 1.57-2.85 3.11-.34 1.35-.68 2.7-1.03 4.09-1.4-.44-2.44-.77-3.15-.99-1.08 1.91-2.04 3.62-3.15 5.58.54.33 1.61 1.09 2.92 2.01zm-39.94 38.76c-.28-.08-.56-.15-.84-.23.33-1.54.77-3.07.96-4.63.12-.98-.14-2.01-.23-3.01-.63.29-1.59.41-1.85.9-2.65 5.02-7.66 7.36-11.78 10.73-2.1 1.71-4.15 3.68-5.61 5.93-1.47 2.28-3.07 3.92-5.67 4.76-1.17.38-2.78 1.19-3.08 2.15-.98 3.11-2.92 4.6-6.22 4.61-.17 2.92-.34 5.61-.5 8.31.5.19 1 .38 1.5.58.99-1.13 2.55-2.13 2.86-3.42.7-2.9 2.58-3.57 5.06-3.8.97-.09 1.94-.31 2.97-.48-.08-5.75 2.67-9.19 8.08-10.27 4.7-.94 8.01-3.57 10.53-7.54 1.06-1.67 2.53-3.07 3.82-4.59zm86.19 18.71c-2.52-.25-4.33-.43-6.14-.59-.62-.06-1.59-.34-1.83-.05-1.84 2.23-3.66 1.27-6.28.36 1.37 4.5 2.75 9.01 3.87 12.69-2.31.57-4.36.97-6.32 1.62-1.03.34-2.03 1.02-2.81 1.78-.68.66-1.65 1.95-1.42 2.44.49 1.01 1.7 2.35 2.6 2.34 2.71-.03 5.41-.64 8.12-1.03-.03-.3-.06-.6-.09-.9.63.47 1.26.95 2.07 1.55.47-1 1.16-1.75 1.05-2.37-.71-4.01 1.98-5.82 4.73-7.58 5.87-3.76 5.42-6.22 2.45-10.26zm-31.73-85.01c.59-.19.87-.2 1-.34 4.3-4.67 8.59-9.36 12.89-14.04.29-.32.63-.61.97-.88 3.67-2.82 7.34-5.64 11.03-8.44 1.95-1.48 1.38-2.73-.26-3.98-2.26-1.73-4.23-1.94-6.26.51-2.72 3.28-7.18 4.94-8.35 9.7-1.1 4.5-4.15 5.96-8.61 4.57-2.29-.71-6.33 2.25-5.68 4.27.95 2.93 2.17 5.77 3.27 8.63zm55.17 98.05c5.5-.84 6.09-1.66 6.05-9.32 6.14-.3 3.63-6.32 6.86-9.4-3.52-.38-6.21-.67-9.25-.99 2.35 4.03-2.2 5.17-2.26 8.1-3.73-1.92-3.73-1.92-6.6 1.2 1.7 3.39 3.42 6.84 5.2 10.41zm-224.42 3c-2.83.77-5.51 1.49-8.6 2.33-.73.73-1.94 1.93-3.38 3.37.66 1.13 1.6 2.71 2.53 4.3.1-.38.2-.76.3-1.15 2.53 0 5.14.4 7.57-.09 4.77-.96 10.05-1.16 13.08-6.29-1.68-1.57-3.27-3.04-4.71-4.39-2.51 1.12-3.84 5.67-6.79 1.92zm169.58-32.4c2.46.75 4.03 1.12 5.52 1.71 1.64.64 3.76 1.08 4.66 2.33 1.25 1.73 2.41 1.96 4.16 1.51 1.25-.32 2.51-.59 4.02-.94-2.38-3.97-4.57-7.71-8.79-9.56-.75-.33-1.98-.37-2.64.03-2.05 1.25-3.94 2.77-6.93 4.92zm41.4 57.3c2.08 1.24 4.47 2.66 6.97 4.15-.04.05.44-.5 1.17-1.33-1.13-.15-1.9-.26-2.82-.39.32-1.03.56-1.83.99-3.23.93 1.3 1.57 2.19 2.19 3.06 6.36-5.7 7.43-11.05 3.21-13.05-3.5 3.21-6.89 6.34-11.71 10.79zm27.15 16.74c-1.96-4.42-6.33-6.07-12.53-4.72.93 1.86 1.82 3.63 2.7 5.38-.8.34-1.65.7-2.5 1.06.04.25.09.49.13.74 1.23-.12 2.46-.24 3.72-.36.7.78 1.5 1.67 2.38 2.64 2.06-1.6 3.99-3.1 6.1-4.74zm-79.51-55.43c1.42 2.09 2.73 4 4.04 5.92 3.88-1.29 7.51-2.5 11.3-3.76-2.93-4.73-8.83-5.43-15.34-2.16zm53.81 64.91c.72.64 1 1.06 1.37 1.18 3.02 1.03 6.03 2.11 9.1 2.93.76.2 2.05-.23 2.58-.83 1.71-1.93 3.18-4.07 4.48-5.78-1.83-.69-4.42-1.66-7.33-2.75-.86 5.21-5.83 4.41-10.2 5.25zm8.03-132.68c-4.84 4.1-9 8.24-4.78 15.13 2.15-2.33 4.76-4.3 6.09-6.92.9-1.76.08-4.46-.18-6.71-.08-.65-.9-1.21-1.13-1.5zm-261.05 16.63c1.14.77 1.45 1.09 1.83 1.21 1.34.42 3.18 1.46 3.93.95.96-.65 1.8-2.9 1.38-3.91-.96-2.3-2.72-4.28-3.63-5.6-2.28 1.15-3.72 1.88-4.39 2.22-.19 2.62-.51 4.86-.43 7.1.03.95.9 1.87 1.39 2.8.21-.15.42-.31.63-.46-.19-1.14-.38-2.28-.71-4.31zm251.12 73.77c1.97 5.27 3.64 5.9 7.56 2.86 1.84-1.42 3.27-3.36 4.99-4.94 1.86-1.71 1.83-3.33-.16-5.27-3.16 4-6.95 7.12-12.39 7.35zm32.42-163.03c-4.15-1.81-5.56 2.45-8.2 3.77-2.74 1.38-2.43 3.82-1.84 6.22 3.31 1.01 5.25.33 6.21-3.25.6-2.24 2.34-4.19 3.83-6.74zm-81.07 55.41c-1.47-.8-2.61-1.42-3.67-2-2.33 2.08-4.49 4.01-6.89 6.15.83.89 2 2.14 3.29 3.52 2.46-2.6 4.74-4.99 7.27-7.67zm-3.52-156.21c1.98-1.6 4.96-2.92 4.96-4.26.01-1.83-2.24-3.67-3.53-5.53-3.46 2.74-4.2 1.42-1.43 9.79zm-181.61 220.67c-1.43 2.5-2.88 4.05-3.08 5.75-.1.91 2.47 3.13 2.95 2.9 1.6-.76 3.62-2.21 3.89-3.69.21-1.14-1.96-2.72-3.76-4.96zm-17.84 93.16c-1.55-1.3-2.79-2.34-4.02-3.37-.19.23-.38.46-.57.68.67 1.8 1.34 3.61 2.03 5.47 2.2-1.66 4.75-2.78 5.96-4.74 1.2-1.93 1.04-4.71 1.62-7.88-1.46.2-2.76.39-4.7.66 1.4 1.18 2.2 1.85 3.11 2.61-1.08 2.07-2.1 4.03-3.43 6.57zm275.06-51.14c-.4-3.3-2.82-5.62 1.11-6.7-.95-1.15-1.69-2.03-2.37-2.85-3.08 2.22-4.22 4.72-1.95 7.8.51.7 1.64.93 3.21 1.75zm-277.3-37.82c-.38.29-.77.57-1.15.86 1.46 2.64 2.92 5.28 4.66 8.42.92-1.04 2.11-2.14 2-2.29-1.75-2.4-3.65-4.68-5.51-6.99zm26.81 73.81c-2.02 1.59-3.6 2.84-5.15 4.06.95.43 2.87.67 3.39 1.65 1.29 2.4 2.62.95 3.94 1.02-1.02-1.1-2.6-2.1-2.49-2.86.16-1.15 1.5-2.14 2.26-3.1-.39-.15-1.31-.52-1.95-.77zm166.17-129.44c-.82-.91-1.43-1.6-2.37-2.64-1.16 2.55-4.6 3-4.34 6.97 2.49-1.61 4.47-2.89 6.71-4.33zm80.76 150.61c3.18 1.34 5.18-1.69 7.77-1.84-2.74-.56-5.85-2.93-7.77 1.84zm-22.86-111.76c-3.95-.95-4.99 1.88-7.45 3.41 3.98 1.61 5.11-1.09 7.45-3.41zm3.59 106.59c.17.33.33.66.5.99 1.65-.3 3.31-.6 5.21-.95-.55-1.24-.98-2.19-1.51-3.36-1.58 1.24-2.89 2.28-4.2 3.32zm-95.38-329.06c-4.2-2.64-3.76.53-4.54 1.99.23.31.45.62.68.93 1.14-.86 2.28-1.73 3.86-2.92z" fill="#010105"/><path d="m158.5 332.12c.59.99 1.17 1.96 1.76 2.96 1.53-1.11 2.61-1.89 3.68-2.66.06.31.11.62.17.92 1.61-.18 3.53-1.02 4.77-.43 5.43 2.58 8.93-1.99 13.33-3.1 1.4-.35 2.96-.06 4.8-.06.2-.53.53-1.43.87-2.32.2 0 .38-.03.55 0 1.75.37 3.65 1.38 5.22 1 5.64-1.34 11.23-2.98 16.72-4.86 2.59-.89 4.91-2.59 7.52-4.02.9.64 1.98 1.42 3.15 2.26.96-.54 1.95-1.09 3.68-2.06-.76 1.6-1.15 2.42-1.58 3.33 1.36-.3 2.65-.59 3.95-.89-.22.25-.45.5-.67.75 1.45 1.69 2.64 3.74 4.41 4.98 3.34 2.34 5.99 4.84 6.39 9.22.22 2.43 1.55 3.5 4.18 2.19.69-.34 2.13.26 2.91.84.86.64 1.35 1.75 2 2.67 1.88 2.64 3.37 6.06 8.29 2.73-.79 1.94-1.14 2.81-1.28 3.16 1.54 1.17 2.87 2.19 4.91 3.75 3.21.21 7.5.48 12.49.8 1.49-1.92 3.42-1.44 4.97 1.52 1.46-1.14 2.68-2.09 3.68-2.87 1.68.7 3.25 1.36 5.35 2.24-.52.6-1.25 1.94-2.38 2.64-4.5 2.78-6.62 4.73-8.53 8.46.47.52.97 1.09 1.49 1.63 1.23 1.27 1.3 2.4-.53 3.04-2.92 1.03-1.66 2.19.42 3.91-13.3.46-26.02.9-38.91 1.35.54-3.06 1-5.69 1.55-8.85-2.9-.15-5.53-.29-8.24-.43.23 1.18.44 2.26.78 3.97-4.14-1.42-6.97.45-9.91 2.86.42-.99.83-1.98 1.29-3.06-1.48.33-2.84.63-4.2.94-.31-.18-.62-.36-.93-.54 3.52-2.29 1.57-3.93.07-5.48-3.83-3.96-11.96-2.92-14.36 1.78-1.11-3.17-2.1-3.02-6.89 1.1 1.35.41 2.61.8 4.57 1.4-1.69.78-2.88 1.33-4.35 2 .68 1.23 1.3 2.34 2.18 3.92-1.57.12-2.96.4-4.31.27-.7-.06-1.67-.7-1.91-1.31-.26-.67-.06-1.77.36-2.4 1.08-1.64.98-2.76-.86-3.69-3.29-1.67-4.59-1.82-7.58-.74-.08-1.8-.17-3.69-.24-5.4 2.43-.66 5.75-.79 8.01-2.4 2.28-1.61 5-4.38 2.04-7.38.71-.93 1.67-1.63 1.7-2.37.04-.83-.57-2.14-1.25-2.43-.63-.27-2.02.27-2.55.9-4.06 4.81-7.99 9.73-11.91 14.56.21.12 1.18.65 3.05 1.67-3.46 2.62-6.5 4.93-9.83 7.45.91 1.74-.58 2.37-2.9 2.53-3.12.23-6.23.6-9.35.9-.54.05-1.09.01-1.99.01 1.24-4.17-1.29-5.85-4.41-7.34-1.01-.48-1.63-1.79-2.74-3.09-.14.32-.66 1.05-.78 1.85-.19 1.21-.08 2.46-.16 3.69-.24 4.12-1.4 5.53-5.57 5.42-5.02-.13-10.01-1-15.03-1.2-2.74-.11-5.52.5-8.54.81.07-.81.46-1.79.15-2.14-2.66-2.99-.14-4.52 1.63-6.28 1.9-1.9 3.74-3.87 5.73-5.66.67-.6 1.75-.76 3.25-1.37 2.01-5.45 2.99-5.92 7.53-1.99-.28-1.95-.18-3.21-.66-4.2-1.07-2.23-.46-3.87 1.31-5.29 3.43-2.76 6.27-6.6 11.41-6.23-1.41-5.05-1.24-5.3 7.06-9.84zm78.47 24.19c1.5-1.35 3.45-2.86 5.05-4.68.63-.71 1.02-2.66.58-3.1-1.46-1.46-3.27-3.26-5.11-3.46-2.04-.22-4.94 4.18-4.75 6.13.05.54.14 1.2.48 1.56 1.07 1.13 2.26 2.16 3.75 3.55zm-42.62-16.36c2.43 1.1 4.37 2.64 6.29 2.6 1.02-.02 2.63-2.67 2.84-4.28.37-2.9-1.94-4.1-4.51-4.88-1.36 1.93-2.63 3.74-4.62 6.56zm17.94-7.65c1.97.45 3.52 1.17 5 1.04 2.02-.17 4.38-.55 3.76-3.73-.2-1-.11-2.06-.15-3.1-1.09.06-2.51-.29-3.21.26-1.75 1.4-3.18 3.2-5.4 5.53zm12.37 6.14c.9 1.49 1.4 2.82 2.33 3.68.77.71 2.22 1.36 3.07 1.1.64-.2 1.21-1.92 1.13-2.91-.16-1.93-.79-3.83-1.34-6.22-1.85 1.55-3.43 2.87-5.19 4.35zm-96.51 32.53c1.08-.08 1.94-.15 3.02-.23-1.8-3.36.63-4.72 3.09-6.28-1.72-.24-3.02-.42-4.32-.6l.57.72c-.96 1.06-1.93 2.12-3.03 3.33.16.73.37 1.71.67 3.06zm70.91-22.86c.16.26.33.52.49.79 1.46-.24 2.91-.47 4.7-.76-.9-1.6-1.57-2.8-2.43-4.34-1.13 1.75-1.95 3.03-2.76 4.31zm-33.29 7.91c2.33 3.55 4.58 1.01 6.87.83 0-.28 0-.56-.01-.83-2.29 0-4.57 0-6.86 0zm37.48-3.91c-.41-.16-.82-.33-1.23-.49-1.43 1.42-3.93 2.38-1.15 5.67.79-1.73 1.58-3.46 2.38-5.18zm47.1 9.59c2.01 4.47 2.98 4.92 6.51 3.06-2.17-1.02-4.2-1.98-6.51-3.06z" fill="#010105"/><path d="m209.61 79.22c.44.71.87 1.41 1.4 2.28 1.34-.85 2.54-1.61 3.84-2.44 2.7 3.58 4.12 8.37 9.06 9.18.85 1.63 1.63 3.11 2.58 4.93-3.33 2.19.39 5.39-.14 8.34-.04.21 1.38.68 1.57.76.27 2.07.52 3.95.82 6.27-3.14 1.79.27 3.87.87 6.17-2.18 1.54-3.29 3.24-.87 5.65.52.51.2 1.87.28 3.02.89.16 1.83.33 2.29.41.62 2.2 1.14 4.05 1.66 5.88-.45 1.72-.96 3.64-1.56 5.93-2.17-.05-3.31 1.65-3.4 4.38-.05 1.45-.32 2.9-.39 4.35-.08 1.84-.34 3.01-2.79 3.15-2.98.18-1.45 1.83-.53 3.72-1.33-.18-2.66-.37-4.17-.58-1.29 3.42-3.94 5.62-7.72 6.89-1.91.64-3.78 2.11-5.09 3.68-1.97 2.36-3.82 2.69-6.23.93-.34-.25-.83-.3-1.34-.47-.32.57-.62 1.11-1 1.79-1.19-.71-2.32-1.39-3.69-2.2-3.07 4.6-8.15 3.71-12.96 4.68-.96-1.91-1.93-3.86-3.03-6.07-1.66 1.22-3.14 2.32-4.01 2.96-1.53-1.09-2.61-2.18-3.91-2.72-2.29-.95-3.52-2.29-2.88-4.87.4-1.63.87-3.25 1.12-4.9.33-2.14-.2-3.77-2.88-3.65-.28-3.13.65-6.64-2.01-9.04.72-3.69 1.46-7.35 2.1-11.02.07-.41-.57-1.34-.69-1.31-.92.24-1.79.65-2.99 1.14.23-.65.25-1.31.57-1.53 2.01-1.37 2.01-3.13 1.65-5.32-.21-1.29.46-2.79.95-4.11.89-2.36 1.92-4.68 2.96-6.98.44-.97.98-2.58 1.61-2.65 4.26-.49 5.7-3.89 7.13-6.34 2.59-.39 4.64-.7 7.42-1.12-1.73-1.38-2.75-2.2-3.4-2.72 1.08-1.74 1.92-3.46 3.11-4.89.86-1.04 2.16-1.73 3.29-2.55.15-.11.5.06.65-.05 3.68-2.64 7.31-5.32 11.98-6.09.5-.08.75-1.71 1.23-2.91 1.18 1.04 2.34 2.81 3.22 2.68 1.49-.21 2.8-1.63 4.32-2.64zm-10.77 60.01c6.32.32 8.98-2.24 9.02-9.67 0-.67-.01-1.37.19-1.99 2.23-7.05-1.4-11.93-5.22-15.86-2.75.5-4.77 1.2-6.76 1.15-4.57-.12-6.89 1.96-6.84 6.57.02 1.44.38 3.14-.23 4.27-1.2 2.21-.16 3.38 1.14 4.88 2.77 3.22 5.39 6.58 8.7 10.65z" fill="#010105"/><path d="m284.33 76.5c2.56 1.88 4.99 3.66 7.41 5.46.44.33.84.7.86.71-.36 2.59-.67 4.79-1.06 7.61-3.94 3.76-8.69 8.16-13.26 12.73-1.21 1.21-2.61 2.92-2.68 4.46-.35 7.63-5.62 11.51-10.94 15.53-1.72 1.3-3.35 2.85-4.6 4.59-1.51 2.11-2.85 3.8-5.68 2.25-.27-.15-.65-.12-.99-.14-5.16-.32-5.72-.94-5.23-6-1.12-.51-2.28-1.04-3.71-1.7.6-.9 1.06-1.59 1.51-2.27-.24-.01-.49-.02-.73-.03 0-1.74-.02-3.47 0-5.21.05-4.33.44-8.68.1-12.97-.84-10.7-1.14-11.46 9.22-15.51 6.83-2.67 14.13-4.12 21.22-6.12.32-.09.66-.27.97-.24 1.4.14 3.01.86 4.13.38 1.3-.54 2.15-2.11 3.46-3.53z" fill="#010105"/><path d="m124.91 157.54c-1.49-1.86-2.31-2.89-2.78-3.48 2.15-2.64 4.41-4.91 6.04-7.57 1.22-1.98 1.64-4.44 2.42-6.69.18-.52.24-1.18.6-1.51 1.66-1.53 3.6-2.79 5.08-4.47 1.53-1.74 2.63-3.85 4.01-5.94 1.74 1.1 3.32 2.09 5.06 3.19.67-.81 1.35-1.63 2.03-2.45.31.13.61.27.92.4-.76 1.43-1.52 2.86-1.99 3.73.48 2.43 1.33 4.45 1.18 6.4-.34 4.49.66 5.85 5.95 8.64-2.15 3.2-.38 5.26 1.52 8.07 1.56 2.3 1.07 6.08 1.21 9.21.06 1.34-.59 2.7-.98 4.27-2.03 2.24-4.24 4.96-6.74 7.37-2.91 2.81-6.43 1.46-9.81.98-1.25-.18-2.56.01-3.84.05-.4.01-.96.25-1.19.07-3.33-2.74-5.01.24-6.99 2.01-2.77 2.48-5.48 5.03-8.22 7.55-.37-.19-.74-.38-1.11-.58-.25-1.34-.14-2.96-.88-3.94-.62-.82-2.23-.88-4-1.49.3-.57.65-1.6 1.29-2.4 1.49-1.88 3.27-3.56 4.62-5.53.52-.75.1-2.1.26-3.16.24-1.5.63-2.99 1.73-4.41-.55-.91-1.11-1.82-1.99-3.26 2.12-1.61 4.24-3.25 6.6-5.06z" fill="#010105"/><path d="m294.5 367.52c-2.09 6.04-2.99 6.7-7.83 6.05-.07-1.31-.13-2.55-.24-4.49.93-1.16 2.33-3.04 3.87-4.81 1.26-1.44 2.11-2.74.85-4.7-.32-.5.12-1.86.63-2.48 1.54-1.9 3.29-3.64 4.95-5.44 1.65 1.68 1.77 7.15.27 8.88-2.19 2.53-4.58 4.89-6.63 8.09 1.36-.36 2.73-.73 4.13-1.1z" fill="#010105"/></svg>