<svg enable-background="new 0 0 400 400" viewBox="0 0 400 400" xmlns="http://www.w3.org/2000/svg"><path d="m177.61 309.04c-1.14-5.82 3.38-7.52 8.34-9.24 3.53-1.23 6.91-3.03 10.14-4.94 9.61-5.68 19.02-11.71 28.69-17.29 8.7-5.03 17.63-9.66 26.63-14.56.31.76.7 1.73 1.09 2.7.2-7.06 6.2-9.41 10.27-13.32 4.74-4.54 9.56-9.1 13.57-14.25 2.21-2.84 3.2-6.83 4.09-10.46.86-3.51-1.6-5.24-5.12-4.27-2.42.67-4.94.97-7.4 1.52-.58.13-1.14.51-1.61.89-4.14 3.35-7.99 7.17-12.44 10.03-16.04 10.29-33.32 18.26-50.72 25.9-4.1 1.8-8.92 1.92-13.36 2.99-2.02.49-4.27.98-5.84 2.21-12.16 9.56-26.78 13.59-41.01 18.52-.29.1-.66.01-1.21.01-.28-1.58-.78-3.2-.78-4.82 0-.89.65-1.98 1.34-2.63.87-.82 2.06-1.31 3.14-1.91 12.67-6.95 24.56-15.09 36.36-23.42 4.44-3.13 9.96-4.91 15.21-6.64 5.93-1.96 11.11-4.72 15.84-8.91 12.14-10.77 24.65-21.11 36.95-31.71 1-.87 1.8-2.26 2.14-3.55 1.02-3.89 1.81-7.84 2.57-11.79.16-.82-.22-1.75-.36-2.63-.9.18-1.94.14-2.69.58-9.36 5.48-18.56 11.25-28.07 16.46-3.41 1.87-7.54 2.42-11.29 3.7-1.52.52-3.32 1-4.34 2.1-9.67 10.42-21.4 17.33-35 21.29-3.85 1.12-7.52 2.85-11.28 4.28-.94.36-1.94 1-2.85.9-8.32-.92-15.02 3.63-22.24 6.42-1.04.4-2.07.83-3.08 1.23-2.84-2.84-5.06-2.75-7.71.24-3.98 4.48-9.46 6.52-15.63 5.66 1.03-3.11 1.94-6.21 3.12-9.2.36-.92 1.37-1.72 2.27-2.27 25.1-15.56 50.28-30.98 75.29-46.67 6.32-3.96 12.26-8.58 18.08-13.26 2.15-1.73 3.44-4.53 5.55-7.42-2.18-.48-3.6-1.2-4.88-1.01-5.78.88-11.44 1.61-15.96 6.39-6.95 7.34-15.66 10.91-26.01 9.53-.84-.11-1.84-.05-2.57.31-10.51 5.17-22 6.46-33.28 8.72-10.39 2.08-20.69 4.68-30.9 7.52-5.04 1.4-9.73.05-14.58-.26-1.86-.12-3.76.29-6.69.55 3.63 2.87 2.05 4.48-.06 4.9-4.01.81-8.15 1.41-12.22 1.31-4.55-.11-9.08-1.19-13.63-1.65-3.26-.33-4.75-1.94-4.55-5.32 10.4-4.06 20.83-8.19 31.31-12.21 6.15-2.36 12.28-4.79 18.56-6.75 7.13-2.23 14.42-3.99 21.64-5.94.31-.08.75-.15.98 0 4.69 3.01 7.03-.52 9.63-3.4.58-.65 1.29-1.19 1.96-1.81 1.21.87 2.3 1.64 3.38 2.41 10.84-8.5 23.7-12.56 36.18-17.41 5.83-2.27 11.74-4.33 17.58-6.57 2.99-1.15 5.89-2.37 8.69.93 1.11-1.59 1.98-2.85 3.04-4.38-5.52-4.94-11.34-9.26-18.43-11.32-1.4-.41-3.36 1.09-5.11 1.72-2.16-.48-4.73-.92-7.22-1.65-3.48-1.02-7.21-1.73-10.29-3.51-8.49-4.9-17.34-8.83-26.81-11.21-2.31-.58-5.05.2-7.52.69-8.75 1.74-15.37-2.73-22.83-7.11 16.39-10.3 32.09-20.17 48.39-30.42.46.96.93 1.96 1.41 2.97.38-.04.75-.07 1.13-.11-1.1-4.78 2.37-5.87 5.12-7.56 11.14-6.87 22.3-13.7 33.38-20.66 2.24-1.41 4.35-3.14 6.18-5.06 6.11-6.39 12.03-12.97 18.12-19.37.81-.86 2.36-1.82 3.32-1.61 9.82 2.15 19.01-.64 27.78-4.15 11.86-4.75 23.72-2.83 35.68-1.75 2.9.26 5.79.75 8.69.78 5.18.05 9.62 1.97 14.29 4.05 3.58 1.59 8.05 1.45 12.14 1.53 3.28.06 5.33.85 6.6 4.17.64 1.68 2.54 3.1 4.18 4.13 9.54 6.03 13.62 15.35 15.85 25.8 1.51 7.08-.4 13.52-4.2 19.48-.58.9-1.5 1.65-2.4 2.27-4.78 3.32-9.5 6.73-14.42 9.83-7.43 4.69-14.21 10.06-19.77 16.93-1.04 1.29-2.77 2.18-4.35 2.84-5.06 2.09-10.25 3.84-15.28 6-3.45 1.48-5.55 4.35-6.73 7.94-.59 1.78-.09 2.79 1.39 3.92 4.26 3.24 8.67 6.4 12.41 10.2 2.24 2.27 3.97 5.49 4.83 8.59 3.6 13.04 7.3 25.99 12.78 38.43 1.72 3.91 1.17 8.79 1.93 13.18.94 5.47 2.18 10.88 3.23 16.33.55 2.84 1.32 5.69 1.42 8.56.71 19.03-1.5 37.73-6.74 56.05-.43 1.49-1.07 2.94-1.72 4.35-1.23 2.64-2.67 4.81-.79 8.23 1.15 2.09.28 5.73-.56 8.39-1.82 5.74-4.15 11.33-6.41 16.93-.43 1.06-1.45 1.9-2.28 2.75-.46.47-1.05.85-1.65 1.14-7.3 3.49-11.91 9.01-13.23 17.15-.18 1.08-.92 2.56-1.81 2.97-9 4.21-14.08 12.09-19.23 19.98-2.93 4.48-8.09 6.45-13.16 5.21-.87-.21-1.92-1.13-2.25-1.97-2.95-7.61-1.35-15.35 1.51-22.25 2.58-6.22 7.46-11.49 11.52-17.47-.44-.68-1.01-1.58-1.61-2.53 1.33-.13 3.21.2 3.74-.5.75-.99.28-2.8.71-4.14 1.12-3.47 2.6-6.83 3.66-10.31 1.03-3.37 2.23-6.81 2.44-10.27.39-6.45.11-12.93.11-19.92-2.69.67-5.77 1.35-8.8 2.22-3.61 1.04-7.12 2.93-10.77 3.23-9.09.74-17.34 3.01-24.13 9.47-4.31 4.1-9.27 6.88-15.47 7.04-1.37.04-2.79.79-4.06 1.44-4.38 2.23-8.78 4.46-13.05 6.89-6.84 3.9-14.12 6.48-21.65 8.78-6.24 1.91-11.99 5.4-18.02 8.03-5.86 2.56-11.95 3.45-18.35 2.27-1.98-.37-2.42-1.15-2.57-3.05-.27-3.55.55-6.16 3.89-8.01 3.03-1.67 5.31-4.95 9.53-3.76.41.11 1.26-1.17 1.84-1.87 1.51-1.84 2.68-4.13 4.54-5.49 4.86-3.59 10.54-5.55 16.54-5.83 2.86-.15 5.83 1.02 9.12 1.67zm85.01-260.46c-3.73 3.91-7.88 4.14-12.63 3.59-3.1-.36-7.07.12-9.48 1.85-5.51 3.96-10.41 8.8-15.36 13.49-4.34 4.12-3.14 10.28 2.49 11.71 7.77 1.98 15.74 3.18 23.59 4.88 6.38 1.38 13.25.79 19.04 4.59 2.62 1.72 5.39 2.52 8.58 1.97.95-.16 2.05.54 3.09.82 1.61.42 3.43 1.5 4.79 1.08 2.82-.86 5.92-1.97 7.97-3.94 7.92-7.63 16.07-15.12 18.98-26.5 1.21-4.71 1.26-5.84-3.23-8.04-.8-.39-1.63-.76-2.49-.96-11.5-2.75-23.03-4.38-34.71-1.02-4.06 1.17-7.81 1.08-10.63-3.52zm-96.6 56.67c2.77 6.95 8.18 10.26 14.91 10.35 13.27.17 25.15 4.03 36.04 11.39.46.31 1.01.5 1.47.81.36.24.83.53.95.89 1.7 5.34 6.39 5.74 10.54 5.44 11.18-.82 18.31-8.63 26.36-15.96-12.59-7.22-25.74-11.31-38.43-16.45-2.64-1.07-5.4-2.03-7.78-3.55-4.89-3.13-9.41-6.93-15.43-7.72-1.6-.21-3.62-.53-4.85.2-7.99 4.68-15.8 9.66-23.78 14.6zm104.24 82.7c.42-5.59.13-6.67-1.91-7.49-3.26-1.3-8.73.08-10.59 3.5-.85 1.56.26 4.17.5 6.48 4.46-.92 8.16-1.69 12-2.49z" fill="#010000"/><g fill="#fbfcfa"><path d="m361.2 9.6.8-1c.9.7 1.9 1.4 2.9 2.3l-.9 1.1c-1-1-2-1.8-2.8-2.4zm.5 10.6c.9-2.1 1.6-4.3 2.3-6.7.4.2.8.4 1.3.6-.7 2.1-1.5 4.3-2.2 6.6zm.4-15.2.9-.9c1 .8 2 1.6 2.8 2.4l-1 1c-.9-.9-1.8-1.7-2.7-2.5zm12.5-1.2h1.2v1.4h2.7v1.1h-2.7v2.7h-1.2v-.6h-1.8v1.3h4.9v3.8h-1.2v-.5h-3.7c0 .4-.1.9-.1 1.2h5.1v1h-5.2c0 .5-.1.9-.2 1.2h6v1h-5.2c1.1 1.3 2.9 2 5.5 2.2-.4.4-.7.8-.9 1.3-2.9-.5-4.8-1.6-5.7-3.5h-.1c-.8 1.7-2.7 2.9-5.9 3.6-.2-.4-.6-.8-.9-1.1 2.8-.6 4.6-1.4 5.4-2.5h-4.8v-1h5.3c.1-.3.2-.7.2-1.2h-4.9v-1h5c0-.4 0-.8.1-1.2h-3.5v.5h-1.2v-3.8h4.9v-1.3h-1.8v.5h-1.2v-2.7h-2.7v-1h2.6v-1.4h1.2v1.4h4.7v-1.4zm-6.6 8.3h3.6c0-.4 0-.9 0-1.4h-3.6zm1.9-4.6h4.7v-1.3h-4.7zm6.6 3.2h-3.7v1.4h3.7z"/><path d="m385.3 3.8h1.3v2.2h2.8v-2.2h1.3v2.2h4.1v9.1h1.7v1.3h-16.9v-1.3h1.7v-9.1h4.1v-2.2zm.4 13.1.7 1.2c-1.8.9-3.8 1.9-6 2.9-.2-.4-.5-.8-.8-1.3 2.3-1 4.3-1.9 6.1-2.8zm-3.1-6.4h2.8v-3.2h-2.8zm0 4.6h2.8v-3.3h-2.8zm4-4.6h2.8v-3.2h-2.8zm0 4.6h2.8v-3.3h-2.8zm3.7 1.9c2.1.9 4.1 1.8 6.1 2.7l-.7 1.3c-2.2-1.1-4.2-2-6.1-2.9zm3.2-9.7h-2.8v3.2h2.8zm-2.8 7.8h2.8v-3.3h-2.8z"/></g></svg>