<svg enable-background="new 0 0 400 400" viewBox="0 0 400 400" xmlns="http://www.w3.org/2000/svg"><g fill="#fbfafc"><path d="m12.4 4.8-6.1 9h6v1.2h-8v-.5l6.1-8.9h-5.7v-1.2h7.6v.4z"/><path d="m14 15v-10.6h3c1.6 0 2.9.5 4 1.4s1.6 2.2 1.6 3.8-.5 3-1.6 3.9-2.4 1.5-4 1.5zm1.4-9.4v8.2h1.6c1.3 0 2.4-.4 3.1-1.1s1.1-1.8 1.1-3.1-.4-2.3-1.2-3-1.8-1-3.1-1z"/><path d="m26.1 4.4v10.6h-1.4v-10.6z"/><path d="m36.1 14.6c-.8.4-1.8.6-2.9.6-1.5 0-2.7-.5-3.6-1.4s-1.4-2.2-1.4-3.8c0-1.7.5-3.1 1.5-4.1s2.3-1.6 3.9-1.6c1 0 1.8.1 2.5.4v1.4c-.8-.4-1.6-.6-2.5-.6-1.2 0-2.1.4-2.9 1.2s-1.1 1.8-1.1 3.2c0 1.3.3 2.3 1 3s1.6 1.1 2.7 1.1c1 0 2-.2 2.7-.7v1.3z"/><path d="m37.6 14.3c0-.2.1-.5.3-.6s.4-.3.6-.3c.3 0 .5.1.6.3s.3.4.3.6-.1.4-.3.6-.4.3-.6.3c-.3 0-.5-.1-.6-.3s-.3-.4-.3-.6z"/><path d="m50.2 15h-1.6l-5.3-8.2c-.2-.2-.3-.5-.4-.7 0 .2.1.7.1 1.5v7.4h-1.4v-10.6h1.7l5.2 8.1c.2.4.4.6.4.7 0-.3-.1-.8-.1-1.5v-7.3h1.4z"/><path d="m58.6 15h-5.7v-10.6h5.5v1.2h-4.1v3.4h3.8v1.2h-3.8v3.6h4.3z"/><path d="m67.1 5.6h-3.1v9.4h-1.4v-9.4h-3v-1.2h7.5z"/></g><path d="m87.88 292.43c-.82-6.09 1.35-11.68 3.39-17.39 4.56-12.73 12.61-23.04 21.84-32.59 3.55-3.67 6.12-7.83 7.95-12.63 3.58-9.39 7.4-18.71 11.42-27.92 2.33-5.35 2.84-10.72 1.96-16.38-.9-5.75 3.87-14.8 9.02-17.25.38-.18.98-.41 1.23-.24 3.26 2.2 7.58 2.62 9.07 7.55 4.01 13.24 9.45 26.07 11.49 39.88.59 3.98 1.49 8 1.37 11.97-.12 4.03-.9 8.17-2.15 12.02-1.51 4.65-3.93 9.01-5.69 13.59-.41 1.07-.25 3.07.48 3.78 11.8 11.43 15.64 26.75 20.54 41.56 2.24 6.79 4.65 13.52 6.77 20.35.73 2.34 2.11 3.73 4.32 4.13 4.83.86 9.68 1.74 14.55 2.16 4.34.37 8.72.15 13.09.16 7.89.02 13.93-4.47 19.96-8.63 5.15-3.55 9.65-8.03 14.8-11.58 6.54-4.51 9.6-10.81 10.32-18.33.88-9.24.13-18.36-4.01-26.87-.91-1.86-2.18-3.66-3.66-5.1-6.15-5.99-9.59-13.06-9.65-21.75-.02-2.14.69-3.14 2.6-3.97 4.62-2 9.03-1.47 13.18.96 7.24 4.23 14.37 8.65 21.49 13.09 1.08.67 2.02 1.77 2.67 2.87 4.19 7.1 6.03 14.94 6.26 23.07.5 17.29-2.44 34.05-8.49 50.28-1.41 3.78-3.63 6.68-6.89 9.17-2.65 2.02-5.18 4.7-6.7 7.63-5.75 11.04-12.89 20.37-23.38 27.77-8.6 6.07-17.57 9.52-27.6 10.94-16.78 2.38-32.51-.73-46.93-9.76-1.26-.79-2.14-2.33-2.94-3.67-1.76-2.97-3.15-6.18-5.07-9.05-5.06-7.59-7.15-16.33-10-24.79-.2-.6-.25-1.37-.07-1.98 1.56-5.29.21-10.18-2.12-14.86-5.56-11.18-6.52-23.33-7.78-35.45-.49-4.75-3.21-7.05-8.03-6.87-4.5.17-8.69 1.11-12.44 4.13-7.05 5.69-14.59 10.78-21.59 16.52-4.31 3.54-8.61 5.79-14.58 3.48z" fill="#000001"/><path d="m115.07 59.03c3.28 1.33 3.73-1.06 4.74-2.46.2-.27-.23-1.25-.63-1.64-.28-.27-1.08-.27-1.52-.08-2.76 1.2-4.26-.05-4.31-2.66-.07-3.71.34-7.43.58-11.84 14.43 5.95 25.14 14.25 28.81 28.93 3.96 15.86 4.51 32.15 3.05 48.34-.58 6.43-3.47 12.66-5.4 18.96-.24.8-.97 1.5-1.59 2.12-3.15 3.12-4.79 6.94-5.37 11.28-.15 1.1-.24 2.28-.7 3.26-7.08 15.26-13 31.27-26.86 42.24-7.06 5.59-14.24 10.99-23.66 11.67-2.86.21-5.8-.13-8.64-.63-.84-.15-1.97-1.64-2.05-2.59-.31-3.62.13-6.75 2.74-10.09 4.01-5.13 6.9-11.2 9.9-17.06 8.2-16.01 16.29-32.07 24.26-48.19 6.32-12.79 10.38-26.13 9.16-40.69-.39-4.67-.04-9.39-.07-14.09-.01-2.73.17-5.28-1.87-7.81-1.12-1.37-.42-4.22-.57-6.97z" fill="#000001"/><path d="m196.82 24.85c7.96 3.09 13.06 9.08 17.67 15.41 8.5 11.65 16.53 23.64 25.07 35.26 5.2 7.07 11.7 12.91 19.36 17.36 13.52 7.84 27.48 7.39 41.72 2.32 6.77-2.41 13.13-5.48 18.21-10.99.33 4.56 2.79 9.05-.99 13.14-.65.7-1.08 1.76-1.26 2.71-1.82 9.73-9.09 14.13-17.23 17.59-11.37 4.83-23.3 4.71-35.31 3.76-14.36-1.13-27.88-5-40.41-12.2-2.81-1.61-5.71-3.1-8.68-4.38-12.09-5.22-17.47-15.18-19.02-27.5-1.07-8.53-1.31-17.16-2.04-25.73-.33-3.89-1.07-7.75-1.44-11.64-.5-5.45 1.21-10.33 4.35-15.11z" fill="#000001"/><path d="m321.54 204.53c.34 1.62.88 3.56 1.15 5.54.6 4.41-1.35 8.11-5.11 10.33-6.24 3.68-13.08 5.01-20.21 5.28-.22.01-.47.06-.67-.01-9.86-3.55-20.16.05-30.15-1.81-3.82-.71-7.8-.47-11.69-.86-1.25-.13-2.58-.69-3.63-1.41-4.7-3.23-9.25-6.67-13.96-9.87-8.34-5.68-11.63-13.79-11.64-23.55 0-5.58-.11-11.17.03-16.75.15-6.19-1.84-11.81-3.9-17.52-1.58-4.37-2.72-8.95-3.53-13.53-.6-3.38 2.4-5.28 5.49-3.87 4.16 1.89 7.91 4.46 10.06 8.53 4.98 9.42 12.31 16.94 19.1 24.95 4.38 5.16 8.28 10.82 11.71 16.66 3.36 5.72 8.16 9.34 13.88 12.11 9.48 4.59 19.3 6.1 29.62 3.36 3.86-1.03 7.51-.68 10.77 1.98.55.43 1.58.27 2.68.44z" fill="#000001"/><path d="m209.42 306.52c-12.27 0-19.57-7.31-20.08-16.71-.17-3.09.27-6.25.75-9.32.16-1.03 1.14-2.13 2.04-2.83 6.42-5 13.77-7.75 21.83-8.62 8.05-.87 15.02-4.26 21.07-9.45 2.8-2.4 5.36-1.51 8.06-.41 2.62 1.07 3.58 3.25 3.32 5.97-.17 1.77-.05 3.76-.83 5.24-4.29 8.05-8.03 16.58-13.48 23.79-6.32 8.36-15.8 12.08-22.68 12.34z" fill="#000001"/></svg>