<svg enable-background="new 0 0 400 400" viewBox="0 0 400 400" xmlns="http://www.w3.org/2000/svg"><path d="m374.8 390.4.4-.4c.7.5 1.3 1 1.8 1.4l-.5.5c-.5-.6-1.1-1.1-1.7-1.5zm1 7.3-.6-.3c.5-1.4 1.1-2.8 1.5-4.3.2.1.4.2.6.3-.5 1.3-1 2.8-1.5 4.3zm-.4-10.3.4-.4c.4.3 1 .8 1.7 1.4l-.5.5c-.4-.5-1-1-1.6-1.5zm2.5.3h1.7v-1h.6v1h3.5v-1h.6v1h1.8v.5h-1.8v1.4h-2v1h3.2v2h-3.2v.9h3.3v.5h-3.4c0 .3-.1.6-.1.9h4v.5h-3.7c.7.9 1.9 1.5 3.8 1.7-.1.2-.2.4-.3.6-2.1-.4-3.5-1.1-4-2.1-.4 1-1.8 1.7-4 2.2-.1-.2-.2-.4-.3-.6 2.1-.4 3.4-1 3.8-1.8h-3.4v-.5h3.6c.1-.3.1-.6.2-.9h-3.3v-.5h3.4c0-.3 0-.6 0-.9h-3.2v-2h3.3v-1h-2.1v-1.4h-1.7v-.5zm1.1 3.5v1h2.7c0-.3 0-.4 0-.4 0-.1 0-.2 0-.2 0-.1 0-.2 0-.3h-2.7zm1.2-3v.9h3.5v-.9zm4.7 3h-2.6v.6.4h2.6z" fill="#fbfcfa"/><path d="m393.6 386.7h.6v1.5h2.7v6.1h1.1v.6h-11v-.6h1.1v-6.1h2.7v-1.5h.6v1.5h2.1v-1.5zm-2.7 8.8.4.6c-1.2.6-2.5 1.3-3.8 1.9-.1-.2-.2-.4-.3-.6 1.2-.6 2.5-1.2 3.7-1.9zm-2.2-6.7v2.4h2.1v-2.4zm0 3v2.5h2.1v-2.5zm2.8-3v2.4h2.1v-2.4zm0 3v2.5h2.1v-2.5zm6 6.1c-1.4-.7-2.7-1.3-3.9-1.8l.3-.6c1.5.6 2.7 1.2 3.9 1.7zm-1.2-9.1h-2.1v2.4h2.1zm-2.1 3v2.5h2.1v-2.5z" fill="#fbfcfa"/><g fill="#010106"><path d="m149.9 256.83c5.15 0 10.16-.04 15.16.05.69.01 1.48.51 2.04.99 12.86 11.1 27.67 14.21 43.9 10.13 8.85-2.22 17.59-5.04 26.19-8.12 5.33-1.91 10.52-4.58 14.03-9.37 2.16-2.94 4.66-2.39 7.37-1.22 2.9 1.24 4.59 3.45 4.07 6.58-.55 3.28-1.4 6.56-2.56 9.68-3.33 8.98-7.06 17.82-10.3 26.83-3.45 9.56-6.37 19.31-9.84 28.86-1.08 2.97-2.81 5.9-4.91 8.25-7.96 8.92-12.09 19.69-15.59 30.82-2.25 7.16-7 12.02-14.63 15.18-4.24-6.05-9.19-11.8-12.61-18.34-4.8-9.17-8.73-18.83-12.56-28.47-6.58-16.57-14.75-32.31-23.56-47.76-4.18-7.33-6.08-15.27-6.2-24.09zm38.07 35.46c4.33 10.76 8.58 21.32 12.83 31.87 1.91 4.73 4.2 6.38 9.18 4.87 3.36-1.02 7.26-2.98 9.1-5.74 5.08-7.6 9.31-15.77 13.65-23.84 1.8-3.36 2.16-7.05.23-10.63-1.94-3.6-5.96-5.76-8.84-5.21-6.45 1.24-12.93 2.45-19.44 3.3-5.8.77-11.55 1.42-16.71 5.38z"/><path d="m140.23 26.01c8.18 4.27 12.52 11.47 14.52 20.17 2.96 12.87 1.87 25.78-.06 38.68-1.93 12.93-8.15 23.48-17.5 32.42-3.72 3.56-7.89 3.88-12.4 2.32-.88-.3-1.71-1.36-2.13-2.27-4.09-8.75-2.66-17.14 1.71-25.38 3.55-6.7 7.24-13.36 10.27-20.3 3.68-8.45 3.96-17.6 4.13-26.68.11-6.24.02-12.49.02-18.73.47-.07.96-.15 1.44-.23z"/><path d="m239.04 141.94c7.75 5.81 34.16 64.88 34.96 78.47-3.46 0-6.91.07-10.36-.06-.73-.03-1.68-.63-2.13-1.26-10-14.18-19.58-28.64-25.72-44.97-4.05-10.8-2.43-23.56 3.25-32.18z"/><path d="m158.47 120.86c6.16 3.52 8.97 8.64 9.16 14.89.43 14.57-3.7 28.26-9.04 41.6-.84 2.1-2.97 3.65-4.13 5.67-2.94 5.11-6.2 10.14-8.36 15.59-3.49 8.82-9.65 14.86-18.36 19.96 10.36-32.96 20.51-65.22 30.73-97.71z"/><path d="m243.04 37.79c1.24 2.82 2.85 5.54 3.65 8.49 3.95 14.52 6.24 29.3 6.29 44.37 0 1.34-.28 2.68-.28 4.01.01 2.26-1.35 2.95-3.28 3.38-1.98.44-3.34.47-4.81-1.5-5.34-7.14-7.82-15.26-8.81-23.93-1.38-12.15.2-23.79 6.11-34.62.39-.07.76-.14 1.13-.2z"/></g></svg>