<svg enable-background="new 0 0 400 400" viewBox="0 0 400 400" xmlns="http://www.w3.org/2000/svg"><path d="m374.8 390.4.4-.4c.7.5 1.3 1 1.8 1.4l-.5.5c-.5-.6-1.1-1.1-1.7-1.5zm1 7.3-.6-.3c.5-1.4 1.1-2.8 1.5-4.3.2.1.4.2.6.3-.5 1.3-1 2.8-1.5 4.3zm-.4-10.3.4-.4c.4.3 1 .8 1.7 1.4l-.5.5c-.4-.5-1-1-1.6-1.5zm2.5.3h1.7v-1h.6v1h3.5v-1h.6v1h1.8v.5h-1.8v1.4h-2v1h3.2v2h-3.2v.9h3.3v.5h-3.4c0 .3-.1.6-.1.9h4v.5h-3.7c.7.9 1.9 1.5 3.8 1.7-.1.2-.2.4-.3.6-2.1-.4-3.5-1.1-4-2.1-.4 1-1.8 1.7-4 2.2-.1-.2-.2-.4-.3-.6 2.1-.4 3.4-1 3.8-1.8h-3.4v-.5h3.6c.1-.3.1-.6.2-.9h-3.3v-.5h3.4c0-.3 0-.6 0-.9h-3.2v-2h3.3v-1h-2.1v-1.4h-1.7v-.5zm1.1 3.5v1h2.7c0-.3 0-.4 0-.4 0-.1 0-.2 0-.2 0-.1 0-.2 0-.3h-2.7zm1.2-3v.9h3.5v-.9zm4.7 3h-2.6v.6.4h2.6z" fill="#fbfcfa"/><path d="m393.6 386.7h.6v1.5h2.7v6.1h1.1v.6h-11v-.6h1.1v-6.1h2.7v-1.5h.6v1.5h2.1v-1.5zm-2.7 8.8.4.6c-1.2.6-2.5 1.3-3.8 1.9-.1-.2-.2-.4-.3-.6 1.2-.6 2.5-1.2 3.7-1.9zm-2.2-6.7v2.4h2.1v-2.4zm0 3v2.5h2.1v-2.5zm2.8-3v2.4h2.1v-2.4zm0 3v2.5h2.1v-2.5zm6 6.1c-1.4-.7-2.7-1.3-3.9-1.8l.3-.6c1.5.6 2.7 1.2 3.9 1.7zm-1.2-9.1h-2.1v2.4h2.1zm-2.1 3v2.5h2.1v-2.5z" fill="#fbfcfa"/><g fill="#010106"><path d="m202.92 355.45c12-11.47 23.42-22.99 30.59-37.89 1.93-4.01 3.13-8.35 4.82-12.48.79-1.94 1.66-3.97 2.99-5.54 2.37-2.8 5.79-2.81 7.9.12 3.56 4.95 6.83 10.13 10.02 15.33.78 1.26.86 2.99 1.13 4.52.47 2.74-.32 4.46-2.92 6.25-3.39 2.34-6.6 5.51-8.73 9.02-9.15 15.05-22.32 26.07-35.69 36.98-3 2.44-6.12 3.21-9.92 2.37-3.92-.87-7.94-1.28-11.92-1.9-.55-.09-1.25 0-1.63-.31-5.45-4.53-12.22-7.55-16.04-13.94-7.35-12.31-12.47-25.46-14.77-39.64-1.53-9.45-1.5-18.93.06-28.39.14-.86.49-1.71.81-2.53 2.07-5.18 4.31-10.29 6.18-15.54.97-2.74 1.91-4.4 5.33-3.56 4.99 1.22 6.38 2.1 5.95 5.99-.91 8.07 1.44 15.49 3.99 22.9.66 1.91.68 3.42-.61 5.25-4.45 6.32-4.92 13.36-2.49 20.5 1.97 5.8 4.41 11.45 6.72 17.14 1.42 3.49 3.7 6.21 7.08 8.14 3.77 2.14 7.31 4.7 11.15 7.21z"/><path d="m226.06 62.35c1.2-4.97 2.97-12.31 4.79-19.65.18-.75.5-1.52.95-2.13 3.06-4.16 5.4-4.37 8.65-.32 4.31 5.36 5.62 11.82 5.86 18.52.73 19.99 3.17 39.65 10.57 58.44 2.43 6.17 5.65 11.67 10.99 15.71 12.05 9.09 24 18.3 36.29 27.06 3.83 2.73 8.57 4.2 12.95 6.13 3.16 1.4 6.47 2.48 9.6 3.95 5.23 2.45 7.69 8.84 5.43 14.16-.36.84-1.55 1.54-2.51 1.88-5.34 1.89-10.54 1-15.72-.85-12.94-4.63-24.61-11.53-35.95-19.22-15.43-10.47-27.63-23.85-36.24-40.19-9.97-18.96-14.8-39.45-15.66-63.49z"/><path d="m68.65 161.03c-2.02-.52-3.31-.86-4.61-1.19-2.25-.58-2.71-1.92-2.52-4.23.5-6.1 2.22-11.33 7.04-15.61 4.98-4.43 8.55-10.39 14.65-13.64 6.27-3.34 11-8.26 14.9-14.13 1.14-1.71 2.84-3.14 4.52-4.36 3.79-2.77 7.58-5.59 11.65-7.92 13.55-7.74 20.76-19.89 24.56-34.51 2.25-8.64 4.17-17.39 6.86-25.89 1.43-4.51 4.06-8.66 6.44-12.81.51-.89 2.53-1.78 3.41-1.46 2.87 1.06 5.83 2.32 8.22 4.19 2.88 2.26 4.14 5.35 2.25 9.19-3.52 7.15-3.28 15.01-3.62 22.67-.27 6.28-1.51 11.89-5.52 17.06-10.34 13.34-19.81 27.39-30.58 40.36-10.09 12.15-23.43 20.63-36.92 28.73-5.34 3.21-10.28 7.08-15.46 10.56-1.78 1.21-3.76 2.14-5.27 2.99z"/><path d="m238.25 184.99c.24 12.51 1.04 25.03 4.21 37.16 1.18 4.5 3.75 8.92 6.66 12.62 7.8 9.94 16.09 19.49 24.27 29.13 1.13 1.33 2.54 2.57 4.08 3.35 13.09 6.63 24.83 14.99 34.74 25.92 1.9 2.09 4.98 3.36 7.75 4.34 2.33.83 3.08 2.3 3.53 4.35.45 2.1-.22 3.57-2.06 4.79-3.47 2.31-6.92 2.74-10.73.84-8.65-4.29-16.89-9.09-23.16-16.71-1.09-1.32-2.62-2.61-4.21-3.14-23.52-7.9-37.88-25.72-49.75-46.08-8.41-14.43-13.57-29.97-12.73-46.9.36-7.2 1.7-14.39 3.02-21.51.87-4.66 4.74-6.04 8.74-3.7 3.91 2.29 6.1 5.44 5.67 10.17-.17 1.78-.03 3.58-.03 5.37z"/><path d="m153.43 152.04c3.3-.04 5.82.99 7.47 3.78.4.67.78 1.39 1.32 1.94 5.67 5.79 5.83 12.41 3.87 19.88-1.08 4.1-.4 8.66-.63 13.01-.08 1.52-.15 3.24-.87 4.5-2.42 4.23-2.88 8.69-3.05 13.47-.11 3.14-1.37 6.55-3.05 9.27-5.41 8.75-11.15 17.29-16.99 25.75-1.23 1.79-3.28 3.14-5.2 4.28-1.9 1.13-4.05 1.93-6.18 2.54-3.23.92-5.38 2.74-6.67 5.91-.55 1.35-1.79 2.61-3.04 3.44-17.04 11.24-35.31 19.61-55.53 23.29-1.07.19-2.16.24-3.66.41 0-2.47-.26-4.62.11-6.65.19-1.04 1.35-2.18 2.36-2.75 11.32-6.32 22.7-12.53 34.05-18.8 1.06-.59 2.35-1.15 2.97-2.1 3.99-6.13 10.32-8.97 16.42-12.25 1.93-1.04 3.62-2.85 4.93-4.66 4.65-6.41 8.58-13.41 13.75-19.35 6.27-7.21 9.71-15.48 11.72-24.48 2.78-12.43 5.53-24.9 5.54-37.75 0-.86.23-1.71.36-2.68z"/></g></svg>