<svg enable-background="new 0 0 400 400" viewBox="0 0 400 400" xmlns="http://www.w3.org/2000/svg"><g fill="#010000"><path d="m178.9 374.48c-3.24-.28-6.58-.58-9.92-.84-1.11-.09-2.28-.27-3.34-.03-9.3 2.13-16.94-1.82-23.85-7.11-16.48-12.6-21.15-31.31-24.31-50.28-3.47-20.83-2.01-41.76 2.34-62.34.84-3.98 4.72-7.34 7.33-10.89.28-.38 1.48-.27 2.2-.11 5.85 1.26 9.69 4.63 11.44 10.5 1.27 4.25 2.88 8.41 4.6 12.5.98 2.34 2.9 3.15 5.65 3.1 11.5-.22 23-.16 34.5-.17 12.96-.02 25.92.05 38.88-.06 3.23-.03 6.45-.57 9.67-.92 3.48-.38 6.08-1.83 8.09-4.99 5.43-8.54 13.53-10.44 22.85-7.95 1.44.39 3.1 2.05 3.6 3.49 2.81 8.09 5.46 16.25 7.82 24.49 1.07 3.74 1.46 7.68 1.95 11.56.94 7.42.6 14.61-2.81 21.61-1.87 3.85-2.54 8.28-3.85 12.42-.32 1.02-.83 2.09-1.55 2.86-7.84 8.45-15.72 16.86-23.64 25.23-.74.78-1.7 1.48-2.69 1.88-18.32 7.4-37.41 12.02-56.82 15.4-2.63.45-5.34.43-8.14.65zm57.52-71.52c0-1.56.09-3.13-.02-4.69-.38-5.75-5.84-9.49-11.23-7.74-3.51 1.14-7.11 2.04-10.49 3.47-4.62 1.94-9.27 1.8-14.11 1.4-3.83-.31-7.83-.34-11.57.42-9.15 1.85-17.97 5.35-27.61 4.47-1.81-.16-3.91.89-5.56 1.9-1.04.64-2.07 2.22-2.1 3.41-.3 11.24 2.04 21.95 7.01 32.05.45.91 1.38 2.06 2.25 2.22 7.57 1.39 15.14 3.4 22.77 3.65 15.32.49 28.62-5.96 41.18-14.08.53-.34 1-.91 1.3-1.47 4.24-7.84 9.37-15.39 8.18-25.01z"/><path d="m176.82 51.54c.33 4.89.66 9.79 1.01 14.7.34 4.84-1.03 8.75-4.83 12.19-7.39 6.67-14.38 13.78-21.52 20.72-.56.54-1.17 1.12-1.47 1.8-2.6 5.95-7.44 9.94-12.07 14.17-7.94 7.24-15.7 14.68-23.73 21.82-2.62 2.33-5.61 4.57-8.83 5.84-6.42 2.53-11.5 6.79-16.61 11.13-2.81 2.39-5.61 4.81-8.44 7.18-5.96 4.99-12.79 5.36-19.96 3.58-.75-.19-1.57-.86-1.99-1.54-3.65-5.82-3.73-11.49-.17-17.63 7.66-13.22 18.81-23.26 29.75-33.46 16.21-15.11 32.71-29.9 49.05-44.87 1.21-1.11 2.34-2.45 3.1-3.9 4-7.61 7.83-15.32 11.81-22.95 3.05-5.85 6.94-10.94 13.12-13.89 2.35-1.12 3.77-.96 5.5 1.45 5.11 7.15 7.85 14.79 6.28 23.66z"/><path d="m331.39 127.08c-2.55 2.21-1.65 3.65-.08 5.15 1.69 1.62 3.47 3.24 4.8 5.15 4.53 6.5 3.64 11.95-4.01 15.34-3.04 1.35-4.73.49-5.62-2.57-4.6 1.57-9.13 3.49-13.84 4.62-7.37 1.77-13.44-.07-18.99-5.95-14.99-15.89-29.44-32.15-42.22-49.92-4.66-6.48-10.98-11.75-16.31-17.79-6.14-6.96-12.44-13.94-15.77-22.78-1.91-5.08-3.04-10.48-4.22-15.8-.22-.99.79-2.52 1.63-3.41.97-1.02 2.55-1.44 3.6-2.41 4.16-3.84 8.92-3.64 13.33-1.23 4.13 2.26 8.61 4.84 11.36 8.48 10.79 14.26 23.31 26.85 35.88 39.44 3.18 3.19 5.53 7.2 8.37 10.74.76.95 1.85 1.72 2.93 2.31 2 1.09 4.35 1.67 6.13 3.02 6.62 4.98 13.17 10.05 19.54 15.34 4.55 3.77 8.76 7.94 13.49 12.27z"/><path d="m311.32 245.6c-7.36-2.01-14.54-4-21.73-5.92-9.15-2.44-17.43-6.49-25.26-11.91-16.27-11.25-32.87-22.03-49.36-32.96-3.35-2.22-5.33-5.07-4.94-9.2.09-.93.4-2.02.99-2.69 2.28-2.6 3.28-5.57 2.97-8.96-.26-2.89.7-5.04 3.36-6.31 2.65-1.27 5.04-1.68 7.71.48 10.57 8.59 23.59 12.56 35.58 18.46 6.41 3.16 12.97 6.02 19.49 8.94 3.18 1.42 6.32 2.74 8.09 6.11.34.65 1.92 1.17 2.72.97 2.23-.57 3.9.01 5.41 1.61 4.81 5.09 11.55 6.04 17.74 8.13 8.8 2.97 16.06 13.47 15.54 22.76-.17 3.04-1.21 5.51-4.32 6.47-4.55 1.39-9.14 2.63-13.99 4.02z"/><path d="m171.14 139.67c2.11.7 3.96 1.16 5.66 1.95.89.41 1.88 1.27 2.2 2.15 1.26 3.46 2.71 6.93 3.29 10.53 1.04 6.53-.45 12.88-4.8 17.8-10.82 12.24-22 24.15-33.16 36.08-2.04 2.18-4.65 3.82-7.02 5.68-12.58 9.85-25.17 19.69-37.76 29.52-.52.41-1.03.92-1.64 1.13-7.69 2.67-15.29 5.69-23.13 7.81-6.39 1.73-9.23-1.36-7.55-7.86 1.02-3.95 3.06-7.63 4.65-11.43.13-.3.31-.71.56-.81 5.39-2.07 7.74-7.22 11.38-11.07 1.04-1.11 2.35-2.4 3.72-2.69 4.73-.98 7.41-4.24 10.52-7.55 5.72-6.09 12.1-11.59 18.31-17.21 5.85-5.3 11.16-11.33 18.95-14.1 1.06-.38 1.97-1.79 2.51-2.94 1.68-3.54 4.25-6.16 7.42-8.43 4.73-3.38 9.16-7.19 13.93-10.51 3.7-2.58 6.45-5.66 8.05-9.91 1.02-2.69 2.49-5.22 3.91-8.14z"/></g><path d="m361.2 9.6.8-1c.9.7 1.9 1.4 2.9 2.3l-.9 1.1c-1-1-2-1.8-2.8-2.4zm.5 10.6c.9-2.1 1.6-4.3 2.3-6.7.4.2.8.4 1.3.6-.7 2.1-1.5 4.3-2.2 6.6zm.4-15.2.9-.9c1 .8 2 1.6 2.8 2.4l-1 1c-.9-.9-1.8-1.7-2.7-2.5zm12.5-1.2h1.2v1.4h2.7v1.1h-2.7v2.7h-1.2v-.6h-1.8v1.3h4.9v3.8h-1.2v-.5h-3.7c0 .4-.1.9-.1 1.2h5.1v1h-5.2c0 .5-.1.9-.2 1.2h6v1h-5.2c1.1 1.3 2.9 2 5.5 2.2-.4.4-.7.8-.9 1.3-2.9-.5-4.8-1.6-5.7-3.5h-.1c-.8 1.7-2.7 2.9-5.9 3.6-.2-.4-.6-.8-.9-1.1 2.8-.6 4.6-1.4 5.4-2.5h-4.8v-1h5.3c.1-.3.2-.7.2-1.2h-4.9v-1h5c0-.4 0-.8.1-1.2h-3.5v.5h-1.2v-3.8h4.9v-1.3h-1.8v.5h-1.2v-2.7h-2.7v-1h2.6v-1.4h1.2v1.4h4.7v-1.4zm-6.6 8.3h3.6c0-.4 0-.9 0-1.4h-3.6zm1.9-4.6h4.7v-1.3h-4.7zm6.6 3.2h-3.7v1.4h3.7z" fill="#fbfcfa"/><path d="m385.3 3.8h1.3v2.2h2.8v-2.2h1.3v2.2h4.1v9.1h1.7v1.3h-16.9v-1.3h1.7v-9.1h4.1v-2.2zm.4 13.1.7 1.2c-1.8.9-3.8 1.9-6 2.9-.2-.4-.5-.8-.8-1.3 2.3-1 4.3-1.9 6.1-2.8zm-3.1-6.4h2.8v-3.2h-2.8zm0 4.6h2.8v-3.3h-2.8zm4-4.6h2.8v-3.2h-2.8zm0 4.6h2.8v-3.3h-2.8zm3.7 1.9c2.1.9 4.1 1.8 6.1 2.7l-.7 1.3c-2.2-1.1-4.2-2-6.1-2.9zm3.2-9.7h-2.8v3.2h2.8zm-2.8 7.8h2.8v-3.3h-2.8z" fill="#fbfcfa"/></svg>