<svg enable-background="new 0 0 400 400" viewBox="0 0 400 400" xmlns="http://www.w3.org/2000/svg"><path d="m5.17 384 .55-.58c.85.61 1.65 1.24 2.4 1.87l-.59.64c-.83-.73-1.62-1.38-2.36-1.93m1.22 9.53-.82-.34c.71-1.76 1.37-3.64 1.98-5.63.24.13.5.25.76.36-.6 1.67-1.24 3.54-1.92 5.61m-.5-13.5.57-.54c.56.44 1.31 1.06 2.26 1.87l-.64.64c-.68-.66-1.41-1.32-2.19-1.97m3.25.46h2.24v-1.36h.77v1.36h4.57v-1.36h.76v1.36h2.28v.69h-2.28v1.84h-2.64v1.26h4.18v2.64h-4.21c0 .45-.02.86-.05 1.21h4.32v.69h-4.38c-.04.34-.1.75-.19 1.22h5.15v.69h-4.82c.87 1.19 2.51 1.92 4.93 2.19-.17.31-.3.57-.37.76-2.77-.49-4.52-1.41-5.26-2.76-.56 1.26-2.3 2.23-5.24 2.9-.12-.24-.26-.48-.43-.72 2.73-.55 4.38-1.34 4.96-2.38h-4.38v-.69h4.65c.1-.38.17-.79.21-1.22h-4.32v-.69h4.4c.03-.34.05-.75.05-1.21h-4.2v-2.64h4.23v-1.26h-2.69v-1.84h-2.24zm1.46 4.46v1.29h3.45c.01-.4.02-.57.01-.53v-.32-.45h-3.46zm1.55-2.59h4.57v-1.19h-4.57zm6.11 2.59h-3.42v.77c-.01.19-.01.37-.02.53h3.44z" fill="#fafafc"/><path d="m32.63 379.16h.82v1.98h3.54v7.89h1.46v.78h-14.37v-.78h1.46v-7.89h3.54v-1.98h.82v1.98h2.73zm-3.49 11.48.5.73c-1.61.82-3.28 1.63-5 2.41-.13-.27-.28-.55-.44-.82 1.75-.72 3.4-1.49 4.94-2.32m-2.78-5.55h2.73v-3.18h-2.73zm0 3.95h2.73v-3.2h-2.73zm3.54-3.95h2.73v-3.18h-2.73zm0 3.95h2.73v-3.2h-2.73zm7.89 4.68c-1.84-.92-3.51-1.7-5.02-2.32l.45-.73c1.89.8 3.57 1.55 5.04 2.23zm-1.62-11.81h-2.73v3.18h2.73zm-2.73 7.13h2.73v-3.2h-2.73z" fill="#fafafc"/><g fill="#010101"><path d="m180.87 371.97c-14.5 4.53-29.12 4.46-43.78 3.36-5.45-.41-10.85-1.63-16.3-1.98-3.4-.22-6.94.16-10.29.85-9.43 1.95-18.68.28-27.98-.9-7.99-1.01-15.96-2.21-23.97-2.94-3.11-.28-4.72-1.49-5.34-4.68 7.94-1.87 15.99-2.24 24.14-1.94 9.7.35 19.44.87 29.12.43 7.38-.33 10.66-4.72 10.83-12.26.46-20.13.84-40.27 1.37-60.4.41-15.66.91-31.32 1.58-46.97.13-3.01-.85-3.95-3.66-3.99-10.96-.15-21.92-.24-32.86-.72-4.53-.2-9.13-.92-13.5-2.1-4.53-1.23-6.29-4.06-6.38-8.49 18.4-.72 36.8-1.43 55.55-2.16 1.04-12.09 2.72-23.98 2.95-35.89.47-23.72-.07-47.46.27-71.18.1-6.63 1.79-13.25 2.8-19.86.56-3.66-3.72-7.59-6.78-5.62-6.28 4.04-12.16 2.05-18.28.17-5.23-1.61-5.27-1.55-7.78 3.12-3.66 6.79-7.14 13.68-10.96 20.38-3.3 5.79-7.21 11.1-14.17 12.96-3.55-6.06-1.86-15.6 3.5-19.61 6.81-5.09 10.27-12.31 12.55-20.12 1.2-4.11 2.86-7.62 6.2-10.38 7.38-6.1 12.23-13.93 16.42-22.5 5.09-10.42 11.29-20.3 16.88-30.49 1.14-2.09 2.34-2.49 4.54-1.86 3.44.99 5.75 2.93 6.47 6.47 1.21 5.99 4.43 10.74 8.25 15.46 4.84 5.97 9.23 12.38 13.1 19.02 7.05 12.1 14.23 24.02 23.74 34.44 2.69 2.95 4.23 7 6.03 10.68 1.14 2.33.63 4.28-2.31 5.05-1.17.3-2.23 1-3.97 1.81-2.97-4.47-6.37-8.79-8.89-13.58-3.23-6.15-8.04-8.61-14.73-8.36-5.7.21-11.41.26-17.11.2-1.86-.02-3.1.5-3.42 2.33-.67 3.8-1.56 7.61-1.71 11.44-.2 5.21.48 10.45.32 15.66-.98 32.88-2.08 65.76-3.14 98.64-.01.44 0 .88 0 1.51 6.19 2.47 12.63 2.61 19.1 2.66 5.23.04 10.53-.32 15.67.4 5.19.73 8.01 4.56 8.49 9.3-9.45 0-18.94.02-28.43-.01-3.69-.01-7.4.05-11.07-.23-2.6-.2-4.19.89-4.76 3.16-.79 3.11-1.71 6.31-1.7 9.47.09 27.19.6 54.39.45 81.57-.04 7.76-1.61 15.55-2.92 23.24-.53 3.08.41 4.16 3.09 4.95 8.28 2.43 16.71 2.66 25.25 2.52 6.32-.11 12.72.12 18.97.99 4.56.64 6.84 3.14 8.56 6.98zm-76.72-288.85c9.8 1.61 19.55 3.54 29.39 4.68 4.2.49 8.69-.2 12.86-1.18 4.41-1.04 4.93-2.54 3.41-6.79-3.17-8.85-8.06-16.67-14.7-23.33-1.55-1.56-3.56-2.67-5.39-3.92-1.75-1.2-3.13-.83-4.65.74-5.52 5.7-10.9 11.59-16.89 16.76-4.39 3.78-4.94 8.01-4.03 13.04z"/><path d="m227.84 119.02c1.27 11.1 2.74 21.71 3.61 32.37.64 7.78 1.92 15.11 7.89 20.74 6.38 6.02 14.1 9.36 22.62 10.93 3.37.62 6.18-.97 9.07-2.69 16.61-9.91 22.96-25.66 25.61-43.75 1.15-7.82 2.91-15.56 4.4-23.36 7.17 2.09 9.39 8.51 8.12 13.56-.65 2.58-1.83 5.03-2.65 7.57-1.2 3.71-2.53 7.4-3.37 11.2-1.17 5.31-.76 10.41 3.12 14.8 6.89 7.79 13.6 15.73 20.53 23.47 5.87 6.56 11.21 13.38 13.15 22.24.14.64.18 1.3.28 2.05-3.14.78-5.56.35-7.65-2.45-5.67-7.63-11.55-15.1-17.41-22.59-3.85-4.92-8.68-8.66-14.24-11.52-1.97-1.02-3.21-.71-4.95.8-6.05 5.27-12.07 10.65-18.65 15.2-9.31 6.44-19.97 6.41-30.7 4.6-.88-.15-1.75-.9-2.42-1.58-2.99-3.02-5.85-6.17-8.87-9.17-1.9-1.89-3.85-3.78-6.02-5.32-5.05-3.59-6.85-3.29-10.87 1.28-4.29 4.87-8.52 9.79-12.92 14.56-3.86 4.18-8.4 7.28-14.11 8.56-2.19.49-3.04-.28-3.69-2.16-1.26-3.68.79-9.44 4.27-11.76 7.57-5.06 14.62-10.69 20.37-17.83 4.27-5.3 6.9-11.2 6.93-18.11.03-5.71-.14-11.42.09-17.11.12-2.97.63-6 1.48-8.85.84-2.71 2.8-4.73 6.98-5.68z"/><path d="m268.59 301.3c-4.32-5.8-7.72-10.89-11.66-15.53-7.74-9.13-11.47-19.82-13.15-31.41-2.04-14-.37-27.37 6.46-40 2.14-3.96 5.1-6.3 9.54-7.53 2.63 4.19 2.98 8.81 1.52 13.34-1.61 4.98-3.53 9.92-5.95 14.56-4.77 9.15-4.74 18.47-1.79 27.98 2.71 8.74 7.49 16.12 15.44 22.22 1.45-3.89 3.3-7.29 3.96-10.9 1.78-9.88 3.32-19.82 4.44-29.8.86-7.65-3.11-14.27-5.73-21.13-1.27-3.33-3.02-6.62-3.48-10.07-.49-3.71.27-7.58 1.05-11.44 5.56 4.85 9.12 10.65 11.97 16.94 6.27 13.88 5.8 28.26 3.14 42.78-2.32 12.72-6.24 24.93-12.36 36.35-.83 1.56-2.47 2.68-3.4 3.64z"/><path d="m206.42 309.92c.75-2.7 1.39-5.03 2.09-7.56 7.53.8 14.89 1.3 22.15 2.4 19.44 2.94 38.94 2.84 58.5 1.92 7.81-.36 15.64-.29 23.47-.21 4.06.04 6.7 1.89 7.31 4.72.53 2.46.05 4.02-2.95 4.86-10.05 2.82-20.17 2.68-30.25.96-16.99-2.9-34.04-2.67-51.14-1.96-9.94.42-19.52-1.46-29.18-5.13z"/><path d="m164.97 352.93c-7.55-10.73-12.95-22.82-16.78-35.63-2.96-9.88-5.33-19.86-4.25-30.36 1.18-11.53 5.47-21.75 12.45-31.33 4.04 4.29 5.08 9.23 4.2 14.43-1.01 5.93-2.35 11.85-4.09 17.61-3.73 12.31-1.55 23.9 3.82 35.1 3.93 8.2 7.63 16.42 8.63 25.59.29 2.72.55 5.21-3.98 4.59z"/><path d="m164.86 213.41c-5.56-.99-9.42-3.25-11.83-8.6-12.37-27.45-9.59-54.1 3.38-80.42.85-1.72 1.86-1.84 3.46-1.38 3.88 1.12 5.97 3.53 5.74 7.55-.26 4.57-.86 9.12-1.42 13.67-.1.83-.6 1.7-1.14 2.37-8.26 10.29-9.68 22.4-7.57 34.64 1.65 9.6 5.37 18.84 8.17 28.24.37 1.24.76 2.48 1.21 3.93z"/><path d="m71.43 340.62c0-3.41-.15-5.98.07-8.52.1-1.09.75-2.33 1.53-3.13 14.6-14.95 19.26-33.31 18.22-53.52-.3-5.78-1.33-11.52-2-17.29-.09-.75-.01-1.51-.01-2.43 5.62.98 8.6 4.71 10.39 9.51.92 2.48 1.54 5.17 1.78 7.81.88 9.81 1.11 19.64-.94 29.37-.27 1.29-.68 2.61-1.3 3.76-3.95 7.37-8.04 14.66-11.95 22.04-2.37 4.45-5.34 8.28-9.99 10.46-1.66.79-3.51 1.19-5.8 1.94z"/><path d="m79.63 202.51c.82-3.72 1.3-7.61 2.56-11.22 2.57-7.37 5.13-14.8 8.51-21.81 3.03-6.31 3.27-12.48 2.19-19.14-1.23-7.59-1.96-15.26-2.92-23 13.17 4.68 18.65 19.76 14.96 31.44-3.18 10.07-7.22 19.87-10.96 29.77-1.3 3.44-2.69 6.86-4.26 10.18-1.92 4.05-4.89 5.21-10.08 3.78z"/></g></svg>