<svg enable-background="new 0 0 400 400" viewBox="0 0 400 400" xmlns="http://www.w3.org/2000/svg"><g fill="#fbfafa"><path d="m37.59 393.81c-.92.31-1.52.05-2-.78-.7-1.2-1.52-2.34-2.47-3.78v4.59c-.55.03-.95.05-1.41.07-.03-.37-.06-.64-.06-.91 0-1.91 0-3.81 0-5.7 1.13-.41 1.77-.03 2.29.91.62 1.11 1.38 2.14 2.31 3.19v-4.2h1.35v6.61z"/><path d="m12.94 393.88v-6.75c1.9.19 3.93-.54 5.37 1.29.8 1.01.78 2.88.03 3.97-1.37 1.97-3.4 1.51-5.4 1.49m1.45-1.22c2.04.12 2.92-.58 2.89-2.21-.03-1.51-.98-2.19-2.89-2z"/><path d="m11.81 393.87h-5.49c.68-2.18 2.47-3.48 3.51-5.45h-3.08v-1.21h5.29c-.71 2.13-2.44 3.48-3.47 5.51.86 0 1.63.04 2.39-.01.79-.05 1.14.21.85 1.16"/><path d="m39.33 393.86v-6.61h3.7v1.07h-2.22v1.52c.68.04 1.34.09 2.07.13v1.07c-.72.05-1.38.09-2.1.14v1.48h2.4v1.19h-3.85z"/><path d="m27.71 388.56c-1.15-.3-2.46-.61-3.1.64-.37.73-.41 1.93-.06 2.67.63 1.35 1.99.93 3.17.68.35.94-.01 1.32-.93 1.46-1.62.25-3.05-.27-3.76-1.48-.73-1.24-.6-3.03.31-4.17.88-1.11 2.71-1.7 4-1.16.32.13.44.74.65 1.12-.1.08-.19.16-.28.24"/><path d="m49.15 387.24v1.07c-.59.02-1.17.05-1.87.08v5.44h-1.48v-5.44h-1.85c-.05-.4-.08-.73-.13-1.15z"/><path d="m20.06 387.21h1.33v6.62h-1.33z"/><path d="m30.68 393.25c-.49.38-.8.79-1.05.76-.32-.05-.6-.45-.9-.7.26-.24.51-.64.8-.67.29-.04.62.3 1.15.61"/></g><path d="m93.06 364.65c6.71-1.31 12.63-2.29 18.46-3.69 2.13-.51 4.46-1.6 5.93-3.16 2.47-2.61 4.67-3.19 7.41-.72 1.41-.95 2.7-1.83 4.51-3.04 1.93 2.32 3.91 4.69 5.89 7.06.32-.17.64-.35.97-.52.13-1.68.27-3.35.43-5.37 6.28.28 12.41.96 18.51.73 9.6-.36 19.16-1.52 28.75-1.98 6.68-.32 13.39.02 20.09-.02 2.77-.02 5.68.25 8.27-.51 6.03-1.77 7.45-7.71 3.83-12.79-3.23-4.52-6.24-9.28-8.69-14.26-5.18-10.53-9.86-21.3-14.94-31.87-.65-1.35-2.27-2.56-3.72-3.13-3.82-1.5-7.78-2.64-11.71-3.88-1.8-.57-3.61-1.25-5.46-1.53-5.27-.8-6.9.03-8.55 4.98-3.92 11.76-7.43 23.67-11.52 35.37-2.12 6.08-5.08 11.88-7.73 17.77-.91 2.02-2.48 3.12-4.83 2.65-5.91-1.17-10.52 2.02-16 5.25.6-2.03.97-3.24 1.31-4.46 5.69-20.43 14.75-39.52 23.39-58.78 1-2.22 1.03-3.96.12-6.27-1.82-4.62-4.61-8.28-8.44-11.4-6.68-5.44-13.23-11.04-19.74-16.7-5.55-4.83-9.92-10.62-12.9-17.37-.56-1.26-1.04-2.92-.68-4.14.96-3.27.08-5.83-1.9-8.37-7.05-9.02-8.26-19.5-7.75-30.51.23-4.97-.4-9.96-.48-14.95-.06-3.42-.16-6.88.32-10.25 2.34-16.6 5.11-33.15 7.2-49.78.75-5.94.44-12.1-.18-18.08-.67-6.44-.29-12.68.81-18.99.26-1.46-.08-3.41-.91-4.6-2.2-3.16-2.87-6.59-3.47-10.3-1.1-6.71-2.61-13.38-4.47-19.92-2.05-7.19-.64-13.82 2.08-21.31 1.72 4.48 3.33 8.11 4.53 11.88 2.07 6.51 5.04 12.35 10.51 16.72.83.66 1.73 2.19 1.51 3.04-2.51 9.77 1.84 18.15 5.04 26.81.82 2.23 1.26 4.77 1.15 7.13-.8 16.88-1.78 33.75-2.75 50.63-.06.96-.25 2.07-.79 2.83-4 5.72-5.28 12.29-5.79 19.02-.48 6.36-.12 12.8-.96 19.1-.73 5.48-2.43 10.87-4.08 16.17-.84 2.69-.46 4.15 1.64 6.23 2.86 2.84 6.03 6.28 6.97 9.99 4.28 16.94 15.56 28.42 28.77 38.4 7.56 5.71 15.63 10.77 23.56 15.98 1.94 1.27 4.24 1.99 6.4 2.9 5.73 2.41 11.07 2.63 16.86-.74 7.23-4.2 14.83-7.95 22.65-10.88 11.3-4.24 19.19-12.23 26.69-21.13 15.7-18.63 23.01-40.1 22.78-64.32-.04-4.13.55-8.27.49-12.4-.09-6.79.05-13.66-.87-20.36-.97-7.1-.91-13.6 4.54-19.18-4.32-3.36-4.29-7.48-2.76-11.94 1.31-3.81 1.72-8.06 6.27-10.03.89-.38 1.45-2.7 1.32-4.04-.41-4.02.12-7.69 3.22-10.46 7.15-6.38 9-15.47 12.45-23.75.99-2.37 2.02-4.75 3.36-6.92 2.2-3.54 5.34-5.93 10.13-6.67-1.16 4.21-2.24 8.13-3.32 12.05-2.01 7.29-4.1 14.4-8.04 21.12-3.23 5.52-4.84 12.22-6.09 18.6-1.67 8.51-3.58 16.6-10.66 22.45-1.24 1.03-2.17 2.44-3.18 3.6.3.38.35.52.42.53 7.41 1.55 8.07 1.88 8.9 9.59 1.2 11.22-.37 22.32-2.47 33.35-.29 1.52-.47 3.07-.62 4.62-.09.89-.01 1.79-.02 2.69-.06 8.95 1.52 18.3-.56 26.76-3.04 12.39-8.7 24.14-13.26 36.15-.23.61-.6 1.21-1.01 1.72-6.81 8.45-13.23 17.28-20.65 25.16-3.42 3.63-8.75 5.54-13.35 7.96-2.25 1.18-5 1.44-7.21 2.66-2.68 1.49-5.35 3.26-7.45 5.46-2.25 2.37-2.57 5.23-1.06 8.62 7.71 17.36 15.24 34.81 22.58 52.33 1.41 3.37 3.57 5.09 6.86 5.39 4.88.45 9.79.68 14.7.76 6.15.1 12.34-.28 18.04 3.65-3.66 3.87-7.96 6.55-12.79 7.76-6.91 1.72-13.97 3.1-21.04 3.75-3.41.31-7-1.39-11.02-2.3-1.85 5.26-7.24 4.96-12.12 6-13.68 2.91-27.42.85-41.13.67-11.29-.15-22.59-1.03-33.87-.86-4.55.07-9.17 1.8-13.59 3.26-6.66 2.2-13.29 4.06-20.35 2.35-1.33-.32-2.74-.93-3.76-1.81-3.2-2.75-6.22-5.73-9.93-9.21zm74.8 2.03c-1.32-1.98-2.51-3.76-4.14-6.21-.36 3.14-.62 5.4-.94 8.21 1.98-.77 3.39-1.33 5.08-2z" fill="#010000"/></svg>