<svg enable-background="new 0 0 400 400" viewBox="0 0 400 400" xmlns="http://www.w3.org/2000/svg"><g fill="#fbfafa"><path d="m37.59 393.81c-.92.31-1.52.05-2-.78-.7-1.2-1.52-2.34-2.47-3.78v4.59c-.55.03-.95.05-1.41.07-.03-.37-.06-.64-.06-.91 0-1.91 0-3.81 0-5.7 1.13-.41 1.77-.03 2.29.91.62 1.11 1.38 2.14 2.31 3.19v-4.2h1.35v6.61z"/><path d="m12.94 393.88v-6.75c1.9.19 3.93-.54 5.37 1.29.8 1.01.78 2.88.03 3.97-1.37 1.97-3.4 1.51-5.4 1.49m1.45-1.22c2.04.12 2.92-.58 2.89-2.21-.03-1.51-.98-2.19-2.89-2z"/><path d="m11.81 393.87h-5.49c.68-2.18 2.47-3.48 3.51-5.45h-3.08v-1.21h5.29c-.71 2.13-2.44 3.48-3.47 5.51.86 0 1.63.04 2.39-.01.79-.05 1.14.21.85 1.16"/><path d="m39.33 393.86v-6.61h3.7v1.07h-2.22v1.52c.68.04 1.34.09 2.07.13v1.07c-.72.05-1.38.09-2.1.14v1.48h2.4v1.19h-3.85z"/><path d="m27.71 388.56c-1.15-.3-2.46-.61-3.1.64-.37.73-.41 1.93-.06 2.67.63 1.35 1.99.93 3.17.68.35.94-.01 1.32-.93 1.46-1.62.25-3.05-.27-3.76-1.48-.73-1.24-.6-3.03.31-4.17.88-1.11 2.71-1.7 4-1.16.32.13.44.74.65 1.12-.1.08-.19.16-.28.24"/><path d="m49.15 387.24v1.07c-.59.02-1.17.05-1.87.08v5.44h-1.48v-5.44h-1.85c-.05-.4-.08-.73-.13-1.15z"/><path d="m20.06 387.21h1.33v6.62h-1.33z"/><path d="m30.68 393.25c-.49.38-.8.79-1.05.76-.32-.05-.6-.45-.9-.7.26-.24.51-.64.8-.67.29-.04.62.3 1.15.61"/></g><path d="m124.32 368.3c-7.13 7.21-8.64 7.85-11.5 4.78 4.68-4.84 7.37-10.81 9.31-17.17.03-.11.11-.21.11-.32.33-8.26 3.29-15.87 5.81-23.58.38-1.16.65-2.4 1.26-3.43 7.6-12.86 11.23-26.9 12.86-41.64 1.15-10.45 3.25-20.79 4.26-31.25.64-6.64.27-13.41 0-20.11-.22-5.44-.91-10.87-1.58-16.28-.13-1.08-.88-2.41-1.77-3.04-9.77-6.88-16.1-16.62-22.31-26.48-1.25-1.99-2.24-4.32-3.95-5.8-8.13-7.06-11.51-17.17-17.18-25.8-5.2-7.89-7.36-16.34-7.21-25.61.02-1.19-.17-2.51-.69-3.56-4.3-8.72-3.71-18.27-4.75-27.54-.02-.22-.05-.47.03-.67 4.39-11.38.68-23.52 3.28-35.09 2.6-11.55 4.91-23.17 7.6-34.71.5-2.13 2.19-3.99 3.42-6.13 4.06 2.38 4.81 5.93 5.22 9.63 1.05 9.38-1.01 18.49-2.37 27.66-1.64 11.06-3.31 22.12-4.95 33.19-.1.66-.2 1.36-.1 2 1.51 9.9 3 19.8 4.64 29.68.45 2.74 1.14 5.49 2.15 8.07 1.09 2.76 3.04 4.93 6.45 5.73 4.07-7.69 8.37-15.27 12.17-23.08 9.38-19.26 18.49-38.64 27.83-57.92 1.09-2.25 2.58-4.51 4.45-6.11 2.26-1.95 4.02-1.02 4.09 1.93.34 14.85-1.74 29.3-8.88 42.51-7.23 13.37-15.34 26.26-22.33 39.75-3.61 6.97-7.15 13.85-12.1 19.98-.62.77-.75 2.28-.52 3.32.91 4.15 1.97 8.26 3.15 12.34.39 1.35 1.16 2.66 2.03 3.78 5.55 7.17 10.69 14.74 16.91 21.28 6.36 6.69 13.34 13.04 20.96 18.18 4.38 2.96 10.64 3.06 15.96 4.72 13.23 4.12 26.83 2.57 40.32 2.83.44.01.91-.05 1.31-.21 5.75-2.4 11.45-4.94 17.25-7.22 7.99-3.14 12.82-9.56 17.14-16.41 3.1-4.91 5.54-10.24 8.68-15.12 3.13-4.87 6.78-9.4 10.16-14.11.62-.87 1.3-1.8 1.56-2.8 1.99-7.66 3.79-15.37 5.85-23.02.59-2.17.31-3.59-1.2-5.34-9.97-11.54-18.78-23.91-26.54-37.06-3.01-5.11-3.26-10.57-3.56-16.13-.04-.66.73-1.9 1.21-1.94.79-.07 1.94.38 2.44 1.01 5.69 7.19 11.26 14.47 16.91 21.69 3.03 3.87 6.3 7.57 9.2 11.54 1.95 2.67 3.32 5.75 5.19 8.49.91 1.32 2.2 2.72 3.63 3.27 2.06.8 3.06-.91 3.95-2.63 3.89-7.48 4.51-15.63 4.89-23.79.52-10.94.79-21.88 1.18-32.83.02-.45-.02-.94.16-1.33 2.37-5.13.96-10.77 2.11-16.07.32-1.47.35-3.2-.11-4.6-2.5-7.65 1.22-14.73 1.85-22.09.04-.48.87-1.29 1.26-1.25.62.06 1.59.62 1.7 1.13.94 4.07 2.48 8.21 2.37 12.28-.17 6.04-1.35 12 1.97 17.62.4.68.46 1.81.21 2.57-1.32 3.98-.55 7.91-.19 11.91 1.39 15.36 1.16 30.62-3.54 45.53-.94 2.98-1.71 6.03-2.25 9.11-1.89 10.67-6.11 20.41-10.81 30.13-3.71 7.68-5.81 16.13-8.75 24.2-.64 1.75-1.91 3.25-2.72 4.95-1.12 2.35-2.05 4.79-3.12 7.16-.48 1.07-.9 2.3-1.71 3.09-9.56 9.44-19.02 18.98-28.89 28.09-2.73 2.53-6.66 3.78-10.09 5.53-1.27.65-2.82.81-4.02 1.56-3.23 2.03-3.43 3.5-1.24 6.59 2.16 3.03 3.07 6.22 1.18 9.72-6.25 11.56-4.72 23.56-2 35.62.15.65.31 1.32.62 1.91 5.56 10.47 11.54 20.74 16.62 31.44 4.63 9.76 8.61 19.87 12.28 30.04 2.09 5.78-.75 11.39-6.05 14.07-.82.41-1.96.32-2.94.27-6.15-.26-12.31-.4-18.43-.94-4.22-.37-8.11.6-12.17 1.43-12.24 2.52-24.58 4.58-36.89 6.78-3.08.55-6.18 1.09-9.29 1.33-7.4.58-14.83.88-22.23 1.48-4.44.36-8.83 1.29-13.27 1.54-4.68.31-8.96-1.38-12.95-4.23zm38.58-78.66c-7.62 5-9.38 13.3-11.54 21.39-.66 2.48-1.26 5.01-2.23 7.37-2.02 4.92-4.11 9.82-6.47 14.59-3.56 7.21-7.48 14.23-11.02 21.45-1.6 3.27-.58 4.91 2.97 4.6 3.61-.31 7.14-1.52 10.73-2.19 2.23-.41 4.6-1.09 6.75-.71 6.19 1.1 12.12.86 18.09-1.24 8.75-3.07 17.86-3.7 27.1-3.66 5.33.02 10.67-.79 15.99-1.33 1.64-.16 3.3-1.05 4.88-.89 7.78.8 15.45 1.42 23.23-.68 4.41-1.19 5.7-2.52 3.7-6.83-.64-1.39-1.59-2.74-2.7-3.79-8.42-7.87-13.96-17.63-18.72-27.95-2.65-5.76-4.77-11.83-9.35-16.54-.66-.68-.93-2.04-.89-3.07.7-15.96 1.44-31.91 2.27-47.87.18-3.47-2.09-6.07-5.45-5.95-3.91.15-7.83.09-11.74.37-3.53.25-6.7-.66-10.07-1.62-4.48-1.28-9.39-1-13.68-3.31-.09-.05-.22.01-.33-.01-3.36-.59-6.75-1.08-10.08-1.81-2.12-.46-4.15-1.28-6.56-2.04.29 4.48.53 8.48.81 12.48.92 13.04 2.38 26.09-.25 39.1-.82 4.03-.51 7.44 3.92 9.19.2.07.27.37.64.95z" fill="#010000"/></svg>