<svg enable-background="new 0 0 400 400" viewBox="0 0 400 400" xmlns="http://www.w3.org/2000/svg"><g fill="#fbfafa"><path d="m37.59 393.81c-.92.31-1.52.05-2-.78-.7-1.2-1.52-2.34-2.47-3.78v4.59c-.55.03-.95.05-1.41.07-.03-.37-.06-.64-.06-.91 0-1.91 0-3.81 0-5.7 1.13-.41 1.77-.03 2.29.91.62 1.11 1.38 2.14 2.31 3.19v-4.2h1.35v6.61z"/><path d="m12.94 393.88v-6.75c1.9.19 3.93-.54 5.37 1.29.8 1.01.78 2.88.03 3.97-1.37 1.97-3.4 1.51-5.4 1.49m1.45-1.22c2.04.12 2.92-.58 2.89-2.21-.03-1.51-.98-2.19-2.89-2z"/><path d="m11.81 393.87h-5.49c.68-2.18 2.47-3.48 3.51-5.45h-3.08v-1.21h5.29c-.71 2.13-2.44 3.48-3.47 5.51.86 0 1.63.04 2.39-.01.79-.05 1.14.21.85 1.16"/><path d="m39.33 393.86v-6.61h3.7v1.07h-2.22v1.52c.68.04 1.34.09 2.07.13v1.07c-.72.05-1.38.09-2.1.14v1.48h2.4v1.19h-3.85z"/><path d="m27.71 388.56c-1.15-.3-2.46-.61-3.1.64-.37.73-.41 1.93-.06 2.67.63 1.35 1.99.93 3.17.68.35.94-.01 1.32-.93 1.46-1.62.25-3.05-.27-3.76-1.48-.73-1.24-.6-3.03.31-4.17.88-1.11 2.71-1.7 4-1.16.32.13.44.74.65 1.12-.1.08-.19.16-.28.24"/><path d="m49.15 387.24v1.07c-.59.02-1.17.05-1.87.08v5.44h-1.48v-5.44h-1.85c-.05-.4-.08-.73-.13-1.15z"/><path d="m20.06 387.21h1.33v6.62h-1.33z"/><path d="m30.68 393.25c-.49.38-.8.79-1.05.76-.32-.05-.6-.45-.9-.7.26-.24.51-.64.8-.67.29-.04.62.3 1.15.61"/></g><path d="m112.54 349.98h12.17c6.54 0 12.54-1.95 18.15-5.17 4.46-2.56 6.82-6.43 6.53-11.62-.52-9.21 1.17-18.09 4.37-26.63 1.79-4.78 4.57-9.18 6.73-13.83 3.2-6.88 5.64-13.97 3.74-21.69-.4-1.63-1.57-3.48-2.95-4.38-7.29-4.79-14.6-9.58-22.19-13.86-12.27-6.92-19.09-17.71-23.28-30.71-5.98-18.58-6.51-37.8-7.3-57.04-.43-10.47-1.27-20.98-2.81-31.34-1-6.73-4.2-12.76-11.67-15.34-8.87 10.55-17.71 21.07-26.56 31.59-.18-.07-.37-.15-.55-.22.4-1.27.8-2.55 1.2-3.82 5.95-19.1 11.76-38.24 17.93-57.26 2.42-7.46 2.03-14.53-1.05-21.54-2.93-6.65-4.78-13.47-4.01-21.29 2.51 0 5.05-.13 7.57.08.79.06 1.77.88 2.2 1.62 8.38 14.4 16.97 28.7 24.82 43.38 2.16 4.04 2.07 9.29 3.01 13.99.04.22.06.44.07.67.33 6.72 2.5 12.6 7.79 17.07 2.5 2.11 3.05 4.81 2.98 8.05-.45 20.14-.73 40.29-.99 60.43-.02 1.4.29 2.93.9 4.18 2.98 6.09 5.13 12.33 5.23 19.23.02 1.59 1.01 3.39 2.05 4.7 14.55 18.49 34.05 28.04 56.97 31.42 4.42.65 8.76 1.87 13.19 2.41 1.8.22 3.97-.22 5.55-1.12 3.78-2.15 7.25-4.85 10.97-7.13 1.79-1.09 2.65-2.37 2.04-4.36-2.07-6.71.13-12.24 4.14-17.64 4.59-6.19 9.02-12.56 12.88-19.22 8.1-13.98 8.81-29.03 5.59-44.55-2.93-14.11-6.46-28.13-6.97-42.65-.85-24.26 5.55-46.71 17.05-67.8 4.01-7.35 8.87-14.22 13.16-21.42 1.28-2.14 2.67-2.19 4.69-1.47 4.91 1.76 7.84 5.91 6.87 11.26-.85 4.68-2.43 9.25-4 13.76-2.94 8.43-6.06 16.79-9.19 25.16-.81 2.17-.09 3.42 1.65 4.78 6.17 4.82 12.06 10.02 18.32 14.71 8.1 6.07 14.45 13.68 20.23 21.81 5.69 8 11.07 16.22 16.81 24.68-4.08.95-7.27 1.77-10.93-1.04-13.15-10.06-26.62-19.71-39.97-29.51-.88-.65-1.81-1.24-2.81-1.92-7.29 9.64-9.23 20.3-6.76 31.63 2 9.15 5 18.09 7.14 27.21 2 8.55 2.51 17.27 1.16 26-.23 1.47-.95 2.96-1.75 4.25-12.49 20.16-25.08 40.25-37.47 60.47-1.11 1.81-1.74 4.47-1.38 6.53 3.89 22.51 9.86 44.5 16.87 66.22.7 2.17 2.41 4.19 4.09 5.82 2.72 2.65 5.95 4.76 8.68 7.4 1.96 1.9 3.98 2.31 6.39 1.61 8.46-2.47 16.94-4.91 25.37-7.5 5.9-1.82 11.78-3.88 18.04-2.4 2.75.65 5.33 1.99 8.89 3.37-2.63 1.75-4.38 2.84-6.05 4.04-6.63 4.76-13.39 9.36-19.78 14.42-2.88 2.28-5.82 3.37-9.36 3.78-8.44.98-16.91 1.93-25.26 3.44-4.69.85-9.26 2.57-13.73 4.32-10.08 3.94-20.59 4.9-31.26 5.07-17.42.27-34.59-2.01-51.7-4.95-1.69-.29-3.56-.22-5.22.2-4.44 1.12-8.79 2.58-13.22 3.74-1.04.27-2.71.34-3.33-.27-5.52-5.44-12.51-8.1-19.53-10.75-5.17-1.95-9.03-5.31-10.8-10.71-.18-.62-.19-1.3-.35-2.35zm54.82-15.53c1.06 4.41 1.93 8.88 3.29 13.19.34 1.08 2.12 2.2 3.39 2.42 11.02 1.88 22.13 3.26 33.09 5.38 12.27 2.38 23.56 1.22 33.68-6.72 1.5-1.18 2.03-2.27 1.7-4.23-1.09-6.6-3.78-12.43-8.17-17.38-5.27-5.94-10.84-11.62-16.14-17.54-1.11-1.24-2.04-2.94-2.34-4.56-1.63-8.79-2.95-17.64-4.59-26.44-.3-1.61-1.2-3.55-2.46-4.47-5.35-3.88-11.12-6.17-17.72-2.85-1.7.85-3.65 1.29-5.17 2.36-1.41.99-2.96 2.39-3.47 3.93-2.66 7.94-5.11 15.96-7.44 24.01-3.11 10.75-6.75 21.38-7.65 32.9z" fill="#010000"/></svg>