<svg enable-background="new 0 0 400 400" viewBox="0 0 400 400" xmlns="http://www.w3.org/2000/svg"><path d="m5.17 384 .55-.58c.85.61 1.65 1.24 2.4 1.87l-.59.64c-.83-.73-1.62-1.38-2.36-1.93m1.22 9.53-.82-.34c.71-1.76 1.37-3.64 1.98-5.63.24.13.5.25.76.36-.6 1.67-1.24 3.54-1.92 5.61m-.5-13.5.57-.54c.56.44 1.31 1.06 2.26 1.87l-.64.64c-.68-.66-1.41-1.32-2.19-1.97m3.25.46h2.24v-1.36h.77v1.36h4.57v-1.36h.76v1.36h2.28v.69h-2.28v1.84h-2.64v1.26h4.18v2.64h-4.21c0 .45-.02.86-.05 1.21h4.32v.69h-4.38c-.04.34-.1.75-.19 1.22h5.15v.69h-4.82c.87 1.19 2.51 1.92 4.93 2.19-.17.31-.3.57-.37.76-2.77-.49-4.52-1.41-5.26-2.76-.56 1.26-2.3 2.23-5.24 2.9-.12-.24-.26-.48-.43-.72 2.73-.55 4.38-1.34 4.96-2.38h-4.38v-.69h4.65c.1-.38.17-.79.21-1.22h-4.32v-.69h4.4c.03-.34.05-.75.05-1.21h-4.2v-2.64h4.23v-1.26h-2.69v-1.84h-2.24zm1.46 4.46v1.29h3.45c.01-.4.02-.57.01-.53v-.32-.45h-3.46zm1.55-2.59h4.57v-1.19h-4.57zm6.11 2.59h-3.42v.77c-.01.19-.01.37-.02.53h3.44z" fill="#fafafc"/><path d="m32.63 379.16h.82v1.98h3.54v7.89h1.46v.78h-14.37v-.78h1.46v-7.89h3.54v-1.98h.82v1.98h2.73zm-3.49 11.48.5.73c-1.61.82-3.28 1.63-5 2.41-.13-.27-.28-.55-.44-.82 1.75-.72 3.4-1.49 4.94-2.32m-2.78-5.55h2.73v-3.18h-2.73zm0 3.95h2.73v-3.2h-2.73zm3.54-3.95h2.73v-3.18h-2.73zm0 3.95h2.73v-3.2h-2.73zm7.89 4.68c-1.84-.92-3.51-1.7-5.02-2.32l.45-.73c1.89.8 3.57 1.55 5.04 2.23zm-1.62-11.81h-2.73v3.18h2.73zm-2.73 7.13h2.73v-3.2h-2.73z" fill="#fafafc"/><path d="m54.21 57.49c4.15 0 7.67-.77 10.66.16 5.83 1.83 11.35 4.53 15.91 8.95 8.35 8.11 16.91 15.99 25.57 24.15 5.83-5.23 9.67-11.71 11.68-19.34 2.63-10 2.62-20.13 1.62-30.33-.42-4.33-.68-8.67-1.04-13.32 3.65.97 7 1.74 10.26 2.8.9.29 1.74 1.33 2.25 2.23 6.97 12.42 8.8 25.86 7.99 39.87-.42 7.35-2.03 14.37-4.88 21.12-4.13 9.79-4.67 20.22-5.27 30.58-.95 16.6.17 33.1 3.69 49.39 4.03 18.71 14.41 32.86 31.24 41.87 18.52 9.91 38.25 12.8 58.81 8.12 7.62-1.73 14.38-5.57 20.31-10.67 6.54-5.62 12.82-11.53 19.43-17.06 5.22-4.37 8.72-9.69 9.66-16.37 1.47-10.5 3.04-21.03 3.58-31.6.26-5.19-1.03-10.72-2.77-15.7-3.46-9.9-7.68-19.55-11.69-29.25-.58-1.39-1.68-2.6-2.69-3.77-12.3-14.27-22.34-29.92-28.75-47.7-2.65-7.34-3.62-15-2.34-22.81.18-1.08.48-2.13.74-3.29 4.93.25 8.07 2.78 10.39 6.63 6.4 10.63 12.56 21.4 19.31 31.81 3.38 5.21 7.67 9.87 11.85 14.51 2.31 2.57 9.75 1.71 12.13-.87 6.42-7 13.09-13.78 19.3-20.96s11.97-14.74 17.97-22.1c1.33-1.63 2.59-3.88 4.35-4.48 3.02-1.03 7.3-2.41 9.44-1.08 3.33 2.08 6.49 5.79 6.42 10.42-.03 1.67-1.3 4.18-2.69 4.84-10.26 4.83-15.53 13.26-18.96 23.64-3.15 9.52-7.7 18.59-10.76 28.14-3.73 11.61-3.87 23.8-3.99 35.89-.11 11.64.02 23.28-.06 34.93-.01 1.98-.32 4.02-.9 5.91-3.27 10.68-6.72 21.31-9.99 32-1.25 4.08-3.4 7.2-7.43 8.93-4 1.71-6.99 4.2-7.15 9.12-.04 1.31-1.19 2.83-2.23 3.83-2.91 2.78-5.89 5.52-9.1 7.95-4.54 3.42-5.27 7.95-3.86 12.87 1.62 5.68 1.92 11.29 1.75 17.19-.72 24.81 2.07 49.34 6.7 73.72 1.06 5.61 4.83 7.98 9.02 10.26 3.12 1.7 4.94 3.98 4.15 7.53-.35 1.6-1.24 3.38-2.45 4.44-4.96 4.35-11.17 5.16-17.46 5.96-15.97 2.03-31.93 4.17-47.85 6.53-19.28 2.85-38.58 2.35-57.91.85-7.02-.54-14.07-.7-21.11-1.01-4.26-.19-6.23-2.2-5.8-6.49.26-2.65.95-5.29 1.78-7.82.25-.75 1.62-1.5 2.54-1.59 6.23-.65 10.36-3.97 11.49-9.99 1.33-7.11 2.26-14.33 2.71-21.55.85-13.62 1.07-27.28 1.85-40.9.46-8 1.71-15.95 2.18-23.94.3-5.1.09-10.28-.41-15.37-.16-1.66-1.64-3.56-3.06-4.67-6.77-5.3-14.34-9.73-20.5-15.65-13.83-13.31-21.12-30.25-24.56-48.94-1.66-9.02-2.77-18.17-5.01-27.03-1.8-7.1-4.9-13.89-7.5-20.78-2.8-7.42-5.13-15.1-8.7-22.14-4.1-8.05-9.19-15.57-14.07-23.15-4.11-6.39-8.62-12.52-12.81-18.86-1.14-1.73-1.75-3.8-2.98-6.56zm151.08 289.32v.92c8.05 0 16.11.11 24.16-.06 2.97-.06 5.98-.55 8.86-1.3 2.24-.58 3.16-2.1 2.71-4.84-2.76-16.77-5.38-33.57-7.83-50.39-1.24-8.5-2.17-17.05-3.01-25.6-.41-4.21-.16-8.49-.48-12.71-.33-4.35-6.05-7.61-10.38-6.22-5.08 1.62-10.47 2.26-15.7 3.41-4.79 1.05-9.58 2.12-14.32 3.38-2.16.57-3.3 1.97-3.67 4.53-3.37 23.35-7.02 46.67-10.4 70.02-.71 4.93-.83 9.96-.93 14.95-.05 2.72 1.47 4.01 4.48 3.95 8.83-.15 17.67-.04 26.51-.04z" fill="#010101"/></svg>