<svg enable-background="new 0 0 400 400" viewBox="0 0 400 400" xmlns="http://www.w3.org/2000/svg"><path d="m179.77 102.18c.51 1.73 1.44 3.47 1.44 5.2-.01 4.13-.51 8.25-.69 12.38-.04 1.05.04 2.51.69 3.12 6.77 6.41 7.82 15.08 9.47 23.5.4 2.04 1.26 3.34 3.41 3.1.95-.11 2.06-.64 2.69-1.34 1.95-2.15 3.6-4.58 5.57-6.71 1.25-1.35 2.97-2.27 4.26-3.59 1.06-1.09 2.77-2.82 2.48-3.72-1-3.11.72-3.72 2.86-4.39 3.01 4.1 1 12.14-3.31 14.2-.96.46-2.18 1.51-2.3 2.41-.94 7.07-5.66 11.49-10.76 15.56-3.77 3.01-4.97 6.81-4.16 11.29.27 1.5 1.15 3.15 2.27 4.19 5.78 5.41 12.18 10.13 16.87 16.73 1.47 2.07 4.65 2.92 7 4.4 1.01.64 2.49 1.28 2.76 2.22 1.31 4.47 5.11 6.29 8.5 8.57 5.38 3.6 8.14 8.97 10.42 14.67-.21.38-.43.75-.64 1.13-3.16-1.32-6.77-2.05-9.4-4.06-8.79-6.73-17.24-13.92-25.82-20.93-1.02-.84-2.07-1.64-3.76-2.97-.82 4.66-1.78 8.67-2.2 12.74-.98 9.57-5.46 17.15-12.75 23.17-4.38 3.62-8.75 7.11-14.56 8.62-2.5.65-4.93 3.17-6.49 5.45-3.77 5.49-5.24 12-3.07 18.22 1.16 3.33 4.52 6.58 7.73 8.36 7.98 4.44 15.19 9.78 22.2 15.55 2.43 2 5.63 3.12 8.58 4.4 2.63 1.14 4.58 2.65 5 6.16-4.66-.54-9.05-1.03-13.44-1.58-.38-.05-.8-.4-1.07-.71-5.03-5.78-11.95-8.48-18.72-11.39-2.65-1.14-3.8-.24-3.4 2.66.31 2.19.79 4.44 1.68 6.46 3.17 7.26 6.82 14.33 9.74 21.69 1.49 3.77 2.33 7.98 2.57 12.04.6 10.36 1.05 20.75.79 31.12-.1 4.2-2.12 8.37-3.43 12.51-.3.94-1.24 1.67-2.49 3.27-.86-2.46-1.87-4.12-1.97-5.84-.36-6.34-1.09-12.76-.44-19.02 1.38-13.12-.12-25.73-3.48-38.46-2.32-8.8-5.64-16.61-12.26-22.91-.81-.77-1.43-1.72-2.17-2.56-5.46-6.11-7.33-13.13-5.53-21.15 1.59-7.09 3.09-14.2 4.68-21.29.21-.96.52-2.05 1.15-2.73 4.85-5.22 5.89-11.89 7.34-18.44.36-1.6 1.04-3.14 1.63-4.69 5.11-13.41 10.29-26.79 15.31-40.23.65-1.74.62-3.74.8-5.63.43-4.46.08-5.31-4.5-5.23-5.64.1-7.81-3.05-9.52-7.63-3.69-9.85-3.12-19.75-.85-29.71 1.04-4.57 2.58-9.04 3.52-13.63 1.19-5.77 5.04-9.82 8.3-14.28.52-.09.99-.18 1.47-.27zm-8.77 129.6c2.3-1 5.07-1.35 6.35-2.92 4.34-5.31 9.4-10.56 11.81-16.76 2.25-5.77 1.68-12.71 1.88-19.15.06-2.03-1.4-4.12-2.17-6.18-.33.07-.67.15-1 .22-.65 1.65-1.29 3.3-1.96 4.94-.87 2.15-1.33 4.65-2.74 6.38-3.35 4.14-4.81 8.93-6.3 13.88-1.23 4.11-2.88 8.23-5.13 11.85-1.56 2.53-1.65 4.59-.74 7.74zm4.87-105.13c-1.25 3.11-2.22 5.1-2.86 7.19-2.01 6.56-3.36 13.22-1.84 20.09.31 1.4 1.02 3.35 2.1 3.84 4.33 1.98 10.1-1.6 9.72-6.32-.5-6.17-1.71-12.32-3.07-18.37-.47-2.05-2.32-3.77-4.05-6.43z" fill="#010100"/><path d="m215.52 76.57c-.36-1.72-.94-3.42-1.05-5.16-.96-14.9 1.1-29.38 6.59-43.3.42-1.06 1.9-1.69 2.89-2.52 1 1.28 2.97 2.66 2.85 3.81-1.33 12.04.21 24.41-4.03 36.12-.84 2.31-1.39 4.74-2.45 6.93-.83 1.71-2.25 3.13-3.41 4.68-.47-.18-.93-.37-1.39-.56z" fill="#010100"/><path d="m256.18 124.81c1.11 3.17 2.97 6.29 3.18 9.52.54 8.42.5 16.89.34 25.33-.04 1.95-1.29 3.98-2.36 5.75-.49.8-1.99 1.57-2.85 1.41-.88-.17-1.97-1.38-2.24-2.33-2.46-8.97-2.63-18.08-.9-27.17.8-4.19 2.18-8.27 3.29-12.39.51-.04 1.02-.08 1.54-.12z" fill="#010100"/><path d="m141.8 38.9c3.49 4.74 4.38 9.81 3.43 14.91-1.44 7.75-3.4 15.43-5.5 23.03-.42 1.51-2.49 2.57-4.32 4.35-1.38-5.38-2.46-9.48-1.14-14.06 2.57-8.87 4.69-17.87 7.01-26.82.08-.31.22-.62.52-1.41z" fill="#010100"/><g fill="#fcfafa"><path d="m342.2 3.2-6.3 9.2h6.1v1.2h-8.2v-.5l6.2-9.1h-5.7v-1.2h7.8v.4z"/><path d="m344 13.7v-10.9h3.1c1.6 0 3 .5 4.1 1.4 1.1 1 1.6 2.2 1.6 3.9s-.5 3-1.6 4-2.5 1.5-4.2 1.5h-3zm1.4-9.6v8.4h1.6c1.4 0 2.5-.4 3.2-1.1.8-.8 1.2-1.8 1.2-3.2s-.4-2.4-1.2-3.1-1.8-1-3.1-1z"/><path d="m356.3 2.8v10.9h-1.4v-10.9z"/><path d="m366.6 13.2c-.8.4-1.8.6-3 .6-1.6 0-2.8-.5-3.7-1.5s-1.4-2.3-1.4-3.9c0-1.7.5-3.2 1.6-4.2s2.4-1.6 4-1.6c1 0 1.9.1 2.6.4v1.5c-.8-.4-1.6-.6-2.6-.6-1.2 0-2.2.4-3 1.2s-1.1 1.9-1.1 3.3c0 1.3.4 2.3 1.1 3.1s1.6 1.1 2.8 1.1c1.1 0 2-.2 2.8-.7v1.3z"/><path d="m368.2 13c0-.3.1-.5.3-.6.2-.2.4-.3.6-.3.3 0 .5.1.7.3s.3.4.3.6-.1.5-.3.6c-.2.2-.4.3-.7.3s-.5-.1-.6-.3c-.2-.2-.3-.4-.3-.6z"/><path d="m381.1 13.7h-1.7l-5.5-8.4c-.2-.2-.3-.5-.4-.7 0 .2.1.8.1 1.5v7.6h-1.4v-10.9h1.8l5.3 8.3c.3.4.4.6.4.8 0-.3-.1-.8-.1-1.6v-7.5h1.4v10.9z"/><path d="m389.7 13.7h-5.8v-10.9h5.6v1.2h-4.2v3.5h3.9v1.2h-3.9v3.7h4.4z"/><path d="m398.4 4.1h-3.1v9.6h-1.4v-9.6h-3.1v-1.3h7.7v1.3z"/></g></svg>