<svg enable-background="new 0 0 400 400" viewBox="0 0 400 400" xmlns="http://www.w3.org/2000/svg"><path d="m207.35 297.73c-3.92 1.07-7.23 1.89-10.48 2.89-2.66.82-5.21 2.02-7.9 2.74-1.2.32-2.73.2-3.89-.26-2.53-1.01-2.63-2.86-.7-4.78 6.49-6.48 12.95-12.99 19.34-19.56 1.47-1.51 2.71-3.28 3.89-5.04 4.52-6.73 3.92-11.6-.83-18.28-3.65-5.14-6.45-10.9-9.54-16.43-3.16-5.64-5.92-11.51-9.4-16.94-3.35-5.23-6.58-5.91-12.38-4.07-1.68.53-3.54.51-6.01.84 1.45-4.44 2.57-8.03 3.83-11.56.23-.65.95-1.29 1.61-1.6 3.87-1.84 5.8-4.76 6.24-9.11.25-2.44 1.41-4.92 2.65-7.11 3.78-6.72 7.85-13.28 11.66-19.99.64-1.13.9-2.74.72-4.05-1.97-14.19-5.02-28.14-9.4-41.8-1.01-3.14-1.42-6.57-1.51-9.88-.1-3.64 1.67-6.41 5.45-7.45 4.96 6.24 4.44 15.73 12.5 20.51 5.29-7.44 10.44-14.72 15.63-21.97 3.09-4.32 5.63-8.75 5.91-14.33.11-2.18 1.66-4.28 2.69-6.74-3.83-3.69-9.25-7.03-6.09-14.14 3.57.17 6.4 1.94 7.17 5.36 2.68 11.94 9.1 22.29 13.94 33.29 7.11 16.12 11.73 32.7 10.47 50.36-.55 7.7-2.91 15.29-4.65 22.89-.29 1.26-1.46 2.48-2.53 3.35-3.89 3.19-7.99 6.13-11.83 9.39-.82.7-1.54 2.58-1.18 3.46 5.96 14.49 5.44 30 7.62 45.1 1.31 9.11-1.88 16.88-4.57 24.98-1.65 4.97-3.69 9.8-3.3 15.28.1 1.34-1.18 3.14-2.34 4.13-4.7 4.04-6.38 9.07-6.07 15.14.19 3.78-.29 7.6-.5 11.4-.05.89.05 1.96-.41 2.61-2.67 3.81-2.2 8.11-2.05 12.32s-1.05 8.02-2.12 12.04c-1.03 3.89-.06 8.31.04 12.5.12 4.66.72 9.37.21 13.96-.29 2.58-2.42 4.95-4.06 8.07-5.68-9.51-7.74-18.89-7.81-28.74-.1-14.66-.03-29.32-.03-43.98.01-1.25.01-2.46.01-4.8zm-4.18-126.05c-1.2 3.33-2.14 6.17-3.25 8.95-.78 1.95-1.37 4.21-2.76 5.64-2.29 2.36-2.32 4.88-1.76 7.66.44 2.19.73 4.48 1.64 6.47 2.64 5.77 5.22 11.62 8.49 17.04 2.63 4.37 3.76 8.68 2.82 13.64-.18.93-.21 2.13.23 2.91 4.04 7.19 8.19 14.32 12.6 21.98.9-1.42 1.76-2.33 2.12-3.4 3.47-10.31 4.83-20.8 3.08-31.68-1.57-9.79-3.82-19.53-2.95-29.58.08-.92-.28-2.03-.8-2.81-4.82-7.21-11.27-12.56-19.46-16.82zm27.19-59.95c-.47-.14-.94-.27-1.41-.41-.26.48-.47.99-.78 1.44-6.65 9.52-13.35 19-19.93 28.57-.85 1.23-1.26 2.84-1.59 4.34-1.41 6.38 1.53 11.24 5.66 15.65 2.79 2.99 5.83 2.73 7.04-1.12 3.93-12.54 7.73-25.12 11.1-37.81.88-3.31-.01-7.09-.09-10.66zm6.33 36.57c-3.84 5.69-7.47 11.05-11.07 16.43-.36.54-.93 1.29-.79 1.77.84 2.89 1.06 6.55 2.99 8.39 3.25 3.11 7.75 4.5 12.39 2.39.66-.3 1.3-1.49 1.29-2.26-.09-6.14-.23-12.29-.6-18.42-.2-3.13-1.06-6.14-4.21-8.3z" fill="#010100"/><path d="m129.22 192.43c1.6 2.04 3.84 3.84 4.68 6.15 4.31 11.85 8.78 23.69 12.07 35.84 1.19 4.42-.41 9.74-1.43 14.51-.29 1.36-2.89 2.89-4.6 3.12-2.33.31-5.08-.24-5.93-3.22-2.71-9.53-5.64-19.02-7.89-28.66-1.64-6.99-1.82-14.2-.08-21.29.5-2.04 1.31-3.99 1.97-5.99.4-.15.81-.3 1.21-.46z" fill="#010100"/><path d="m248.6 52.03c3.19-.07 4.77.83 5.7 3.4.53 1.46 1.97 3.05 3.39 3.63 2.14.88 3.54 2.03 4.42 4.13 1.04 2.47 2.46 4.78 3.44 7.27.54 1.38 1.02 3.13.64 4.46-1.1 3.85.01 7.02 2.16 10.06 1.73 2.44 2.27 5.05 1.21 7.9-3.08.9-5.35.01-7.29-2.55-6.39-8.46-12.12-17.25-13.59-28.02-.47-3.36-.08-6.84-.08-10.28z" fill="#010100"/><path d="m151.54 144.57c-7.91-.68-10.63-3.5-11.94-12.82-1.02-7.24.14-14.22 3.31-20.89 1.11-2.33 2.29-2.36 4.09-1.01 3.02 2.26 4.35 5.55 4.45 9.04.26 8.46.09 16.94.09 25.68z" fill="#010100"/><path d="m187.51 50.68c-7.77 1.67-8.39 1.51-11.41-4.51-3.38-6.75-5.39-13.7-1.57-21.01 5.73.51 9.5 3.04 10.62 8.23 1.22 5.7 1.61 11.58 2.36 17.29z" fill="#010100"/><g fill="#fcfafa"><path d="m342.2 3.2-6.3 9.2h6.1v1.2h-8.2v-.5l6.2-9.1h-5.7v-1.2h7.8v.4z"/><path d="m344 13.7v-10.9h3.1c1.6 0 3 .5 4.1 1.4 1.1 1 1.6 2.2 1.6 3.9s-.5 3-1.6 4-2.5 1.5-4.2 1.5h-3zm1.4-9.6v8.4h1.6c1.4 0 2.5-.4 3.2-1.1.8-.8 1.2-1.8 1.2-3.2s-.4-2.4-1.2-3.1-1.8-1-3.1-1z"/><path d="m356.3 2.8v10.9h-1.4v-10.9z"/><path d="m366.6 13.2c-.8.4-1.8.6-3 .6-1.6 0-2.8-.5-3.7-1.5s-1.4-2.3-1.4-3.9c0-1.7.5-3.2 1.6-4.2s2.4-1.6 4-1.6c1 0 1.9.1 2.6.4v1.5c-.8-.4-1.6-.6-2.6-.6-1.2 0-2.2.4-3 1.2s-1.1 1.9-1.1 3.3c0 1.3.4 2.3 1.1 3.1s1.6 1.1 2.8 1.1c1.1 0 2-.2 2.8-.7v1.3z"/><path d="m368.2 13c0-.3.1-.5.3-.6.2-.2.4-.3.6-.3.3 0 .5.1.7.3s.3.4.3.6-.1.5-.3.6c-.2.2-.4.3-.7.3s-.5-.1-.6-.3c-.2-.2-.3-.4-.3-.6z"/><path d="m381.1 13.7h-1.7l-5.5-8.4c-.2-.2-.3-.5-.4-.7 0 .2.1.8.1 1.5v7.6h-1.4v-10.9h1.8l5.3 8.3c.3.4.4.6.4.8 0-.3-.1-.8-.1-1.6v-7.5h1.4v10.9z"/><path d="m389.7 13.7h-5.8v-10.9h5.6v1.2h-4.2v3.5h3.9v1.2h-3.9v3.7h4.4z"/><path d="m398.4 4.1h-3.1v9.6h-1.4v-9.6h-3.1v-1.3h7.7v1.3z"/></g></svg>