<svg enable-background="new 0 0 400 400" viewBox="0 0 400 400" xmlns="http://www.w3.org/2000/svg"><path d="m107.59 96.97c4.19-6.29 8.45-12.16 12.14-18.37 5.31-8.94 10.19-18.13 11.86-28.63.35-2.18-.08-3.6-1.94-4.81-2.84-1.84-4.71-4.39-5.13-8.17 5.14-1.99 10.22-1.6 15.23.32 3.86 1.48 7.77 2.9 11.43 4.8 6.66 3.46 10.06 11.78 4.28 18.89-8.55 10.49-17.13 20.97-25.42 31.67-2.88 3.72-4.89 8.09-7.52 12.54 7.26 2.76 13.17 6.7 20.54 5.94 2.54-.26 4.16-1.16 5.39-3.65 5.94-12.02 14.12-22.53 22.8-32.66 7.71-9 14.56-18.48 16.7-30.5.5-2.84.54-5.78.52-8.67-.01-.94-.67-2.06-1.37-2.77-3.36-3.37-3.42-3.93-.05-7.91 9.22 3.05 18.54 6.09 27.81 9.3.75.26 1.53 1.77 1.51 2.67-.11 4.47-.61 8.93-.69 13.4-.03 1.41.57 2.97 1.32 4.21.97 1.61 2.26 3.07 3.59 4.42 10.59 10.7 17.71 23.43 22.3 37.68.61 1.9 1.49 3.7 2.16 5.34 12.05-1.81 17.78-11.31 24.52-18.92-6.82-8.76-13.61-17.2-20.08-25.87-4.64-6.23-8.16-13.12-9.6-20.84-.25-1.33.31-3.16 1.15-4.25 1.38-1.79 3-.64 4.31.5 7.59 6.62 15 13.44 22.77 19.83 5.86 4.82 12.16 9.1 18.28 13.6 2.29 1.69 3.94 1.55 5.61-1.21 3-4.97 6.27-9.81 9.76-14.45 1.89-2.51 2.26-4.62.38-7.13-.38-.51-.52-1.21-1.09-2.62 8.69 3.18 17.88 3.32 23.94 11.02 3.2 4.07 3.42 8.09-.07 12-9.53 10.7-19.05 21.4-28.62 32.06-1.03 1.15-2.27 2.16-3.57 3-12.28 7.99-24.51 16.06-36.93 23.83-4.43 2.77-9.34 4.76-14.03 7.11-.97.49-1.95.97-3.43 1.71 12.2 6.56 23.92 12.81 35.6 19.15 3.83 2.08 7.56 4.32 11.3 6.56 4.16 2.5 5.49 6.28 4.7 10.93-.6 3.56-1.65 6.81-4.37 9.53-16.48 16.46-23.8 36.67-24.03 59.68-.15 14.88-.23 29.77-.23 44.65 0 1.96.43 3.99 1.04 5.87 1.33 4.15 3.15 8.15 4.32 12.33 3.47 12.37 9.33 23.39 18.14 32.76 2.44 2.59 4.97 5.14 7.71 7.41 10.24 8.51 20.58 16.9 30.89 25.33 2.26 1.85 4.08 6.44 3.08 7.96-1.09 1.66-5.8 1.95-8.52.46-1.17-.64-2.3-1.39-3.38-2.18-4.49-3.26-9.32-5.72-14.89-6.55-8.19-1.21-13.76-6.87-19.18-12.17-19.76-19.31-31.27-43.27-38.26-69.69-2.73-10.32-4.39-20.68-4.13-31.44.38-15.2.1-30.42.1-46.13-6.65 1.47-13.03 2.82-19.38 4.31-18.56 4.36-37.07 3.23-55.57-.33-4.59-.88-8.58-2.92-12.12-6.07-4.17-3.71-8.63-7.1-13.34-10.94-5 10.16-11.62 19.26-14.02 30.34-1.68 7.78.83 10.92 8.88 11.39 11.82.68 23.66 1.19 35.47 2.06 10.04.74 20.03 2.08 30.07 2.75 5.09.34 10.24-.22 15.36-.41 1.11-.04 2.22-.31 3.33-.4 5.26-.43 7.65 2.74 5.78 7.78-.25.68-1.12 1.39-1.85 1.61-10.88 3.31-21.6 7.58-32.72 9.55-19.09 3.38-38.16 1.54-56.62-4.59-2.56-.85-4.57-3.44-6.74-5.33-2.1-1.83-4.09-3.8-6.37-5.94-4.87 4.96-7.74 10.75-8.38 17.46-.4 4.2-.19 8.49.07 12.72.22 3.58 1.69 6.47 4.18 9.45 10.67 12.78 24.87 14.12 39.47 11.83 12.06-1.89 23.77-5.98 35.63-9.1 1.61-.43 3.21-.92 4.81-1.39 1.71 3.5 1.35 6.15-1.69 8.91-12.69 11.55-26.97 20.17-44.12 22.56-15.99 2.23-30.31-2.35-42.39-13.32-.4-.36-.75-.84-.99-1.33-4.88-9.95-9.04-19.94-9.38-31.45-.38-12.84.68-25.27 5.57-37.16 9.07-22.06 13.05-45.44 18.31-68.52 1.39-6.1.64-10.89-2.95-15.84-3.38-4.67-6.13-9.79-9.41-15.12 4.14.33 7.7.52 11.23.96 1.13.14 2.37.71 3.22 1.47 6 5.38 12 10.76 17.82 16.33 4.42 4.23 7.01 9.49 7.57 15.67.28 3.08-.07 5.73-2.39 8.28-3.15 3.47-2.24 6.67 1.89 8.75 8.73 4.42 18.01 6.42 27.79 6.71 20.46.59 40.91 1.33 61.35 2.22 3.26.14 4.83-1 6.13-3.77 2.62-5.56 1.86-11.39 1.7-17.17-.02-.88-1.17-1.82-1.94-2.59-9.64-9.67-19.25-19.37-29.02-28.91-1.18-1.16-3.22-1.97-4.89-2.02-16.55-.48-33.13-.28-49.64-1.27-9.88-.59-19.62-3.35-29.5-4.38-7.57-.79-13.27-4.97-19.3-8.68-3.67-2.26-7.33-3.9-11.74-4.39-2.79-.31-5.97-1.64-7.98-3.55-10.58-10.07-17.98-22.18-21.4-36.48-.58-2.42-.4-5.15.06-7.62.21-1.11 1.84-2.24 3.08-2.73.56-.22 2.19.92 2.55 1.78 3.17 7.5 8.96 12.19 15.91 15.99 5.82 3.19 11.38 6.97 17.96 11.05zm94.03-28.22c-.55.51-.9.79-1.19 1.12-12.09 13.62-24.16 27.26-36.29 40.84-2.06 2.3-1.09 3.38 1.19 4.45 9.98 4.68 20.5 6.85 31.47 6.81 11.83-.04 21.95-4.33 30.59-12.89-7.08-14.33-12.21-29.84-25.77-40.33z" fill="#010104"/><g fill="#fcfbfa"><path d="m385.2 377.6.6-.7c.6.4 1.3.9 1.9 1.5l-.6.7c-.8-.5-1.4-1-1.9-1.5zm.3 7.1c.6-1.4 1.1-2.9 1.5-4.5.3.1.6.3.9.4-.5 1.4-1 2.9-1.5 4.4zm.2-10.1.6-.6c.7.5 1.3 1.1 1.9 1.6l-.7.7c-.6-.6-1.2-1.2-1.8-1.7zm8.4-.8h.8v.9h1.8v.7h-1.8v1.8h-.8v-.3h-1.2v.9h3.3v2.6h-.8v-.4h-2.5c0 .3 0 .6-.1.8h3.4v.7h-3.5c0 .3-.1.6-.1.8h4v.7h-3.5c.7.9 1.9 1.3 3.6 1.5-.2.2-.4.5-.6.9-1.9-.3-3.2-1.1-3.8-2.3-.5 1.1-1.8 2-3.9 2.4-.2-.3-.4-.5-.6-.8 1.9-.4 3.1-.9 3.6-1.7h-3.2v-.7h3.5c.1-.2.1-.5.2-.8h-3.3v-.7h3.4c0-.2 0-.5 0-.8h-2.4v.3h-.8v-2.6h3.3v-.9h-1.2v.3h-.8v-1.8h-1.8v-.7h1.8v-.9h.8v.9h3.2zm-4.4 5.5h2.4c0-.3 0-.6 0-.9h-2.4zm1.2-3.1h3.2v-.8h-3.2zm4.4 2.2h-2.4v.9h2.5v-.9z"/><path d="m389.2 385.8h.9v1.5h1.9v-1.5h.9v1.5h2.7v6h1.1v.9h-11.3v-.9h1.1v-6h2.7zm.2 8.7.5.8c-1.2.6-2.5 1.3-4 1.9-.2-.3-.3-.6-.6-.8 1.6-.6 3-1.3 4.1-1.9zm-2-4.3h1.9v-2.1h-1.9zm0 3.1h1.9v-2.2h-1.9zm2.7-3.1h1.9v-2.1h-1.9zm0 3.1h1.9v-2.2h-1.9zm2.4 1.3c1.4.6 2.7 1.2 4.1 1.8l-.5.9c-1.5-.7-2.8-1.4-4.1-1.9zm2.2-6.5h-1.9v2.1h1.9zm-1.9 5.2h1.9v-2.2h-1.9z"/></g></svg>