<svg viewBox="0 0 400 400" xmlns="http://www.w3.org/2000/svg"><rect width="400" height="400" fill="white" /><path d="m378.6 9.2.8-1c.9.7 1.9 1.4 2.9 2.3l-.9 1.1c-1.1-.9-2-1.7-2.8-2.4zm.5 10.7c.9-2.1 1.6-4.3 2.3-6.7.4.2.8.4 1.3.6-.7 2.1-1.5 4.3-2.2 6.6zm.4-15.2.9-.9c1 .8 2 1.6 2.8 2.4l-1 1c-1-.9-1.9-1.8-2.7-2.5zm12.5-1.3h1.2v1.4h2.7v1.1h-2.7v2.7h-1.2v-.5h-1.8v1.3h4.9v3.8h-1.2v-.5h-3.7c0 .4-.1.9-.1 1.2h5.1v1h-5.2c0 .5-.1.9-.2 1.2h6v1h-5.2c1.1 1.3 2.9 2 5.5 2.2-.4.4-.7.8-.9 1.3-2.9-.5-4.8-1.6-5.7-3.5h-.1c-.8 1.7-2.7 2.9-5.9 3.6-.2-.4-.6-.8-.9-1.1 2.8-.6 4.6-1.4 5.4-2.5h-4.8v-1h5.3c.1-.3.2-.7.2-1.2h-4.9v-1h5c0-.4 0-.8.1-1.2h-3.6v.5h-1.2v-3.8h4.9v-1.3h-1.8v.5h-1.2v-2.7h-2.6v-1.1h2.6v-1.4h1.2v1.4h4.7v-1.4zm-6.7 8.4h3.6c0-.4 0-.9 0-1.4h-3.6zm1.9-4.7h4.7v-1.2h-4.7zm6.7 3.3h-3.7v1.4h3.7z" fill="#fcfafa"/><path d="m384.7 21.4h1.3v2.2h2.8v-2.2h1.3v2.2h4.1v9.1h1.7v1.3h-16.9v-1.3h1.7v-9.1h4.1v-2.2zm.3 13.2.7 1.2c-1.8.9-3.8 1.9-6 2.9-.2-.4-.5-.8-.8-1.3 2.4-1 4.4-2 6.1-2.8zm-3.1-6.5h2.8v-3.2h-2.8zm0 4.6h2.8v-3.3h-2.8zm4.1-4.6h2.8v-3.2h-2.8zm0 4.6h2.8v-3.3h-2.8zm3.6 1.9c2.1.9 4.1 1.8 6.1 2.7l-.7 1.3c-2.2-1.1-4.2-2-6.1-2.9zm3.3-9.7h-2.8v3.2h2.8zm-2.8 7.8h2.8v-3.3h-2.8z" fill="#fcfafa"/><path d="m90.66 238.49c4.1 1.02 7.75 2 10.58 5.44 3.61 4.37 8.51 6.33 14.39 5.4 4.31-.68 8.65-1.15 13-1.54 2.21-.2 3.16-1.18 3.87-3.3 7.41-21.83 6.63-43.81 1.31-65.85-.74-3.05-2.23-5.99-3.77-8.77-2.4-4.34-3.31-8.9-3.42-13.82-.26-10.71-.58-21.44-1.37-32.12-.31-4.17-1.86-8.27-2.99-12.36-2.8-10.18-4.93-20.44-4.07-31.09.18-2.18-.53-3.66-2.27-5.16-2.05-1.77-4.1-3.92-5.23-6.33-3.5-7.45-6.73-15.05-9.69-22.73-.93-2.42-.66-5.29-.95-7.96-.54-4.95 2.28-7.63 6.2-9.96 4.84-2.88 4.71-3.07 9.18.29 6.63 4.98 11.83 11.27 16.16 18.25 10.06 16.23 18.8 33.17 22.73 51.97 1.98 9.46 5.26 18.43 7.73 27.68 2.44 9.15 4.4 18.56.08 27.81-1.17 2.5-.09 3.58 2.14 4.03 1.07.22 2.26.27 3.31.03 1.62-.38 3.4-.75 4.7-1.69 10.96-7.97 23.64-10.68 36.7-12.42 12.51-1.67 24.96-3.98 37.51-5.17 12.56-1.19 20.54 6.95 24.86 16.76.3.68.1 1.72-.18 2.49-.87 2.42-1.71 4.87-2.87 7.15-2.55 5.01-3.46 10.24-3.26 15.86.09 2.7-.99 5.44-1.61 8.15-5.01 21.78-14.11 42.13-22 62.91-3.17 8.36-5.89 16.89-9.1 25.23-1.85 4.81-2.63 9.6-2.19 14.73.99 11.74 2.54 23.39 6.83 34.42 1.46 3.75 3.75 7.34 6.34 10.44 3.35 4.02 7.41 7.45 11.12 11.18 4.64 4.67 10.23 6.04 16.34 4.07 4.62-1.49 9.16-3.43 13.42-5.77 5.71-3.13 11.64-4.59 18.04-3.89 1.12.12 2.69 1.32 3.04 2.37 2.61 7.7.32 14.74-3.37 21.51-.15.28-.39.6-.67.72-7.54 3.22-14.24 8.56-22.94 8.82-10.68.31-21.27-.04-31.51-3.55-3.56-1.22-6.48-3.13-8.81-6.29-5.86-7.92-12.11-15.54-17.99-23.44-1.47-1.97-2.48-4.44-3.15-6.83-2.22-7.96-3.79-16.11-6.34-23.95-3.3-10.14-3.47-20.25.5-29.89 7.57-18.38 10.78-37.76 14.56-57.06.47-2.39 1.62-4.79 2.97-6.85 3.73-5.65 5.48-11.96 6.66-18.48 1.58-8.73 2.53-17.46.9-26.35-.57-3.07-2.17-4.39-4.89-4.04-7.39.94-15.03 1.28-22.06 3.48-10.96 3.42-21.52 8.12-32.18 12.45-1.36.55-2.65 2-3.35 3.35-3.69 7.23-4.7 15.11-5.11 23.07-.35 6.93-.52 13.87-.5 20.81 0 1.2 1.1 3.05 2.15 3.46 3.82 1.51 7.75 2.91 11.77 3.68 7.53 1.45 11.85 10.09 7.99 16.75-.43.74-1.54 1.18-2.43 1.54-9.43 3.8-18.91 7.49-28.29 11.42-1.32.55-2.73 1.99-3.17 3.33-7.92 23.63-15.63 47.32-23.56 70.94-1.52 4.53-3.52 8.94-5.75 13.17-2.83 5.36-8.7 7.87-14.53 6.32-.99-.26-1.99-2.16-2.18-3.42-1.39-9.02.05-17.83 2.31-26.55 4.25-16.45 8.53-32.89 12.76-49.34 1.12-4.34.7-5.24-3.8-6.15-4.15-.83-8.44-1-12.63-1.68-3.07-.51-6.21-1.07-9.1-2.17-5.68-2.15-9.76-6.23-10.82-12.29-1.35-7.79-.43-15.55 1.95-23.22z" fill="#010000"/></svg>