<svg viewBox="0 0 400 400" xmlns="http://www.w3.org/2000/svg"><rect width="400" height="400" fill="white" /><g fill="#fbfafa"><path d="m37.59 393.81c-.92.31-1.52.05-2-.78-.7-1.2-1.52-2.34-2.47-3.78v4.59c-.55.03-.95.05-1.41.07-.03-.37-.06-.64-.06-.91 0-1.91 0-3.81 0-5.7 1.13-.41 1.77-.03 2.29.91.62 1.11 1.38 2.14 2.31 3.19v-4.2h1.35v6.61z"/><path d="m12.94 393.88v-6.75c1.9.19 3.93-.54 5.37 1.29.8 1.01.78 2.88.03 3.97-1.37 1.97-3.4 1.51-5.4 1.49m1.45-1.22c2.04.12 2.92-.58 2.89-2.21-.03-1.51-.98-2.19-2.89-2z"/><path d="m11.81 393.87h-5.49c.68-2.18 2.47-3.48 3.51-5.45h-3.08v-1.21h5.29c-.71 2.13-2.44 3.48-3.47 5.51.86 0 1.63.04 2.39-.01.79-.05 1.14.21.85 1.16"/><path d="m39.33 393.86v-6.61h3.7v1.07h-2.22v1.52c.68.04 1.34.09 2.07.13v1.07c-.72.05-1.38.09-2.1.14v1.48h2.4v1.19h-3.85z"/><path d="m27.71 388.56c-1.15-.3-2.46-.61-3.1.64-.37.73-.41 1.93-.06 2.67.63 1.35 1.99.93 3.17.68.35.94-.01 1.32-.93 1.46-1.62.25-3.05-.27-3.76-1.48-.73-1.24-.6-3.03.31-4.17.88-1.11 2.71-1.7 4-1.16.32.13.44.74.65 1.12-.1.08-.19.16-.28.24"/><path d="m49.15 387.24v1.07c-.59.02-1.17.05-1.87.08v5.44h-1.48v-5.44h-1.85c-.05-.4-.08-.73-.13-1.15z"/><path d="m20.06 387.21h1.33v6.62h-1.33z"/><path d="m30.68 393.25c-.49.38-.8.79-1.05.76-.32-.05-.6-.45-.9-.7.26-.24.51-.64.8-.67.29-.04.62.3 1.15.61"/></g><path d="m81.18 67.81c3.47.96 7.17 1.45 10.37 2.98 6.45 3.07 12.86 6.35 18.81 10.26 3.15 2.07 5.45 5.55 7.85 8.61 2.26 2.89 4.81 5.21 8.26 6.56 9.35 3.65 17.19 9.33 23.38 17.3 3.75 4.83 8.53 8.48 14.02 11.21 9.29 4.62 16.37 12.08 23.7 19.07 9.1 8.67 19.31 15.44 30.46 21.07 7.78 3.93 15.35 8.28 22.96 12.54 1.32.74 2.7 1.74 3.49 2.99 2.16 3.42 5.22 5.2 9 6.39 7.86 2.47 15.61 5.27 23.85 8.08.35-4.42.7-8.51.98-12.6.32-4.58.85-9.16.78-13.73-.04-2.65-1.1-5.28-1.68-7.93-.22-1.02-.92-2.39-.51-3.04 5.22-8.38 3.78-17.77 3.97-26.8.49-22.6.33-45.21.9-67.8.14-5.58 1.98-11.13 3.21-16.65 1.55-6.95 3.29-13.86 5.01-21.05 3.41.89 5.9 3.35 7.02 6.41 2.21 6.04 4.46 12.22 5.38 18.54 1.84 12.61 2.62 25.29 1.55 38.13-.63 7.49.61 15.18 1.42 22.74 1.88 17.54 1.1 35.09.69 52.65-.1 4.36-.57 8.77-.12 13.08.42 4.04 1.44 8.13 2.9 11.94 2.31 6.04 3.06 11.95 1.43 18.3-1.54 6-1.56 12.17-.42 18.28 1.51 8.11.67 15.94-2.04 23.72-.66 1.89-.63 4.53.18 6.34 4.42 9.89 3.05 20.45 3.95 30.74.28 3.23.19 6.49.36 9.73.26 4.75.76 9.27-1.9 13.9-2.69 4.68-1.6 10.21-.81 15.46.68 4.53 1.42 9.1 1.45 13.65.02 3.01-.59 6.29-1.89 8.99-3.41 7.08-6.68 14.09-6.84 22.18-.03 1.51-.82 3.41-1.91 4.41-2.59 2.35-6.77.78-7.74-2.6-4.03-14.05-5.96-28.46-6.62-43-.35-7.65-.95-15.16-3.35-22.46-.98-2.98-1.17-5.89.28-8.77 2.15-4.26.93-8.56-.09-12.74-1.12-4.6-1.2-8.95.58-13.43.57-1.44.1-3.37-.14-5.05-.38-2.7-1.3-5.37-1.41-8.07-.38-9.14-.04-18.33-.89-27.41-.58-6.17-3.85-10.87-10.21-13.69-13.48-5.97-26.72-12.5-39.83-19.27-4.91-2.53-9.12-6.39-13.69-9.59-2.83-1.99-5.6-4.11-8.62-5.77-24.35-13.34-45.56-30.76-65.33-50.05-2.16-2.11-3.93-5.16-6.51-6.21-10.72-4.38-17.97-13.56-27.86-19.23-12.16-6.96-21.64-17.3-26.43-31.07-.8-2.3-1.32-4.7-1.96-7.06.21-.38.41-.78.61-1.18z" fill="#010000"/></svg>