<svg enable-background="new 0 0 400 400" viewBox="0 0 400 400" xmlns="http://www.w3.org/2000/svg"><g fill="#fcfafa"><path d="m342.2 3.2-6.3 9.2h6.1v1.2h-8.2v-.5l6.2-9.1h-5.7v-1.2h7.8v.4z"/><path d="m344 13.7v-10.9h3.1c1.6 0 3 .5 4.1 1.4 1.1 1 1.6 2.2 1.6 3.9s-.5 3-1.6 4-2.5 1.5-4.2 1.5h-3zm1.4-9.6v8.4h1.6c1.4 0 2.5-.4 3.2-1.1.8-.8 1.2-1.8 1.2-3.2s-.4-2.4-1.2-3.1-1.8-1-3.1-1z"/><path d="m356.3 2.8v10.9h-1.4v-10.9z"/><path d="m366.6 13.2c-.8.4-1.8.6-3 .6-1.6 0-2.8-.5-3.7-1.5s-1.4-2.3-1.4-3.9c0-1.7.5-3.2 1.6-4.2s2.4-1.6 4-1.6c1 0 1.9.1 2.6.4v1.5c-.8-.4-1.6-.6-2.6-.6-1.2 0-2.2.4-3 1.2s-1.1 1.9-1.1 3.3c0 1.3.4 2.3 1.1 3.1s1.6 1.1 2.8 1.1c1.1 0 2-.2 2.8-.7v1.3z"/><path d="m368.2 13c0-.3.1-.5.3-.6.2-.2.4-.3.6-.3.3 0 .5.1.7.3s.3.4.3.6-.1.5-.3.6c-.2.2-.4.3-.7.3s-.5-.1-.6-.3c-.2-.2-.3-.4-.3-.6z"/><path d="m381.1 13.7h-1.7l-5.5-8.4c-.2-.2-.3-.5-.4-.7 0 .2.1.8.1 1.5v7.6h-1.4v-10.9h1.8l5.3 8.3c.3.4.4.6.4.8 0-.3-.1-.8-.1-1.6v-7.5h1.4v10.9z"/><path d="m389.7 13.7h-5.8v-10.9h5.6v1.2h-4.2v3.5h3.9v1.2h-3.9v3.7h4.4z"/><path d="m398.4 4.1h-3.1v9.6h-1.4v-9.6h-3.1v-1.3h7.7v1.3z"/></g><path d="m106.49 352.93c-1.19-5.54-.06-10.81 1.19-16 1.34-5.53 2.71-11.11 4.71-16.42 3.65-9.68 4.87-19.68 4.89-29.9 0-2.49.53-4.54 2.13-6.72 2.99-4.07 2.73-9.1 2.31-13.91-.06-.66-1.73-1.54-2.76-1.71-10.15-1.68-20.31-3.29-30.48-4.79-9.34-1.37-17.76-4.5-24.02-11.98-.98-1.17-1.78-2.5-3.37-4.76 9.74-.25 18.53-.47 27.32-.71 7.81-.21 15.62-.44 23.43-.68.66-.02 1.33-.2 1.98-.35 8.28-1.89 8.47-2.35 8.68-10.8.36-14.46-2.21-28.23-8.54-41.3-2.24-4.62-4.24-9.37-6.07-14.17-1-2.62-2.69-3.45-5.3-4.2-4.08-1.18-6.49-.1-9.03 3.15-7.58 9.69-15.63 19.02-23.24 28.69-9.05 11.48-20.15 20.62-32.02 28.92-4.64 3.24-10.24 4.23-16.05-2.05.56-.97 1.17-2.02 1.77-3.07 12.28-21.39 27.52-40.78 41.38-61.1 8.55-12.54 15.85-25.95 19.79-40.8 1.32-4.99 3.67-9.28 6.41-13.52.75-1.15 1.06-2.89.88-4.27-.54-4.3-1.4-8.56-2.15-12.89 3.41-1.33 6.17-1.36 9.21.87 6.67 4.9 13.57 9.49 20.52 13.97 2.55 1.64 3.59 3.49 3.36 6.51-.27 3.45-.06 6.94-.06 10.41 0 8.17 3.12 12.89 10.89 16.05 4.76 1.93 9.73 3.37 14.4 5.48 3 1.35 5.79 3.32 8.39 5.37 6.22 4.92 12.18 10.17 18.44 15.05 1.67 1.3 3.94 2.09 6.05 2.47 1.11.2 2.96-.63 3.65-1.59 9.22-12.92 18.82-25.61 27.27-39.02 10.26-16.29 18.68-33.54 23.39-52.45 2.52-10.15-.95-18.09-7.48-25.22-1.88-2.06-1.39-3.6-.5-5.69.98-2.31 2.49-2.01 4.35-1.53 14.51 3.8 27.47 10.51 38.86 20.31 5.42 4.66 6.24 10.53 5.1 17.06-.15.88-.38 1.75-.58 2.62-1.39 6.01.79 9.72 6.75 11.31 2.27.6 4.55 1.24 6.87 1.52 9.36 1.13 17.39 5.62 25.33 10.16 9.38 5.37 19.93 7.16 30.01 10.35 6.27 1.98 12.74 3.32 19.14 4.87 4.45 1.08 6.85 5.07 5.39 9.5-.26.78-1.23 1.48-2.04 1.9-7.63 3.95-15.64 4.11-23.84 2.27-10.46-2.35-20.93-4.62-31.39-6.96-.81-.18-1.72-.54-2.29-1.11-4.71-4.68-10.28-4.61-16.72-3.24 2.72 7.19 2.88 14.92 7.46 21.17 3.31 4.51 4.2 9.74 5.06 15.08.54 3.38 1.7 6.69 2.79 9.96 1.16 3.5 3.92 5.32 7.43 5.18 10.67-.4 20.81-2.49 28.93-10.26 2.34-2.24 4.84-4.34 7.44-6.26 1.59-1.18 3.43-2.21 5.32-2.76 7.98-2.34 13.58.86 14.34 9.29.55 6.11-.71 12.41-1.37 18.6-.1.91-1.21 1.82-2.03 2.53-6.52 5.64-13.43 10.88-19.52 16.94-6.46 6.44-14.27 9.23-22.84 10.92-6.17 1.22-12.3 2.72-16.93 7.41-1.03 1.04-1.88 2.51-2.23 3.92-2.37 9.54-4.53 19.14-6.86 28.69-3.03 12.45-9.13 23.54-15.98 34.17-5.26 8.15-10.94 16.07-16.98 23.66-3.99 5.01-9.67 6.96-16.16 5.38-.76-5.04-.03-9.1 3.33-13.37 12.76-16.21 19.59-35.27 24.39-55.06 1.65-6.81 2.06-13.91 3.16-20.86.36-2.3-.61-3.43-2.53-4.42-4.89-2.52-10.09-3.51-15.53-3.6-6.6-.12-13.19-.27-19.78-.57-1.75-.08-3.59-.5-5.2-1.2-12.39-5.42-24.98-10.51-35.18-19.8-3.06-2.78-5.04-6.18-5.56-10.52 4.3-1.86 8.51-1.32 12.61-.31 5.09 1.26 10.14 2.74 15.13 4.37 3.56 1.17 7.04 1.68 10.82 1.22 11.87-1.46 23.78-2.6 35.65-4.06 2.39-.29 4.77-1.23 6.99-2.24 4.27-1.95 6.45-6.68 5.36-11.18-3.65-15.1-7.24-30.23-14.54-44.12-2.12-4.04-4.5-7.99-7.18-11.68-2.83-3.89-6.87-3.69-9.65.05-3.47 4.67-7.15 9.2-10.34 14.06-4.03 6.13-9.83 10.35-15.23 15.01-9.75 8.4-19.46 16.86-29.42 25.01-5.27 4.31-6.95 9.69-6.21 16.06.17 1.41 1.18 2.8 2.04 4.05 8.21 11.89 11.26 24.69 6.72 38.74-.45 1.38-1.8 2.83-3.12 3.5-10.96 5.58-21.95 11.1-33.06 16.36-3.39 1.6-7.2 2.36-10.84 3.42-6.08 1.77-7.82 3.63-7.94 9.88-.16 8.13-3.25 15.49-5.57 23.04-3.83 12.5-7.52 25.06-11.98 37.34-2.18 5.99-5.67 11.58-9.13 16.99-2.75 4.27-7.36 5.01-12.39 4.37zm50-116.73c8.11-.34 15.66-2.18 22.08-7.56 4.48-3.76 5.61-6.32 2.59-12.3-3.3-6.54-6.92-13.26-11.83-18.57-9.38-10.16-19.48-19.71-29.87-28.86-6.5-5.72-14.06-10.23-21.15-15.27-1.73-1.23-3.18-1.12-5.09.22-2.7 1.9-3.55 4.19-2.06 6.82 1.66 2.94 3.48 6.18 6.09 8.12 9.02 6.73 15.05 15.59 19.01 25.83 4.71 12.17 8.89 24.55 13.26 36.85 1.77 4.98 1.72 5 6.97 4.72z" fill="#010103"/></svg>