<svg enable-background="new 0 0 400 400" viewBox="0 0 400 400" xmlns="http://www.w3.org/2000/svg"><path d="m374.8 390.4.4-.4c.7.5 1.3 1 1.8 1.4l-.5.5c-.5-.6-1.1-1.1-1.7-1.5zm1 7.3-.6-.3c.5-1.4 1.1-2.8 1.5-4.3.2.1.4.2.6.3-.5 1.3-1 2.8-1.5 4.3zm-.4-10.3.4-.4c.4.3 1 .8 1.7 1.4l-.5.5c-.4-.5-1-1-1.6-1.5zm2.5.3h1.7v-1h.6v1h3.5v-1h.6v1h1.8v.5h-1.8v1.4h-2v1h3.2v2h-3.2v.9h3.3v.5h-3.4c0 .3-.1.6-.1.9h4v.5h-3.7c.7.9 1.9 1.5 3.8 1.7-.1.2-.2.4-.3.6-2.1-.4-3.5-1.1-4-2.1-.4 1-1.8 1.7-4 2.2-.1-.2-.2-.4-.3-.6 2.1-.4 3.4-1 3.8-1.8h-3.4v-.5h3.6c.1-.3.1-.6.2-.9h-3.3v-.5h3.4c0-.3 0-.6 0-.9h-3.2v-2h3.3v-1h-2.1v-1.4h-1.7v-.5zm1.1 3.5v1h2.7c0-.3 0-.4 0-.4 0-.1 0-.2 0-.2 0-.1 0-.2 0-.3h-2.7zm1.2-3v.9h3.5v-.9zm4.7 3h-2.6v.6.4h2.6z" fill="#fbfcfa"/><path d="m393.6 386.7h.6v1.5h2.7v6.1h1.1v.6h-11v-.6h1.1v-6.1h2.7v-1.5h.6v1.5h2.1v-1.5zm-2.7 8.8.4.6c-1.2.6-2.5 1.3-3.8 1.9-.1-.2-.2-.4-.3-.6 1.2-.6 2.5-1.2 3.7-1.9zm-2.2-6.7v2.4h2.1v-2.4zm0 3v2.5h2.1v-2.5zm2.8-3v2.4h2.1v-2.4zm0 3v2.5h2.1v-2.5zm6 6.1c-1.4-.7-2.7-1.3-3.9-1.8l.3-.6c1.5.6 2.7 1.2 3.9 1.7zm-1.2-9.1h-2.1v2.4h2.1zm-2.1 3v2.5h2.1v-2.5z" fill="#fbfcfa"/><g fill="#010101"><path d="m260.96 258.53c-3.62 4.63-2.65 9.33-1.6 14.1.5 2.27.91 4.61.93 6.92.09 13.66-.09 27.31.1 40.97.1 7.25.77 14.49 1.19 21.96-1.12.24-2.17.46-3.68.79-.95-5.69-1.91-11.24-2.81-16.81-1-6.18-1.92-12.38-2.92-18.56-.88-5.45-.9-5.45 2.11-8.68-1.33-3.36-2.85-6.34-3.69-9.5-1.21-4.53-2.66-5.96-7.76-6.27-.55 1.27-1.04 2.62-1.7 3.89-.46.86-1.06 2.17-1.77 2.3-5.29.98-6.87 5.7-9.6 9.23-1.63 2.12-3.08 4.38-4.61 6.57-.29-.11-.58-.21-.87-.32 1.74-4.65 2.83-9.68 5.34-13.87 5.57-9.3 11.95-18.11 17.76-27.27 1.14-1.8 1.8-4.32 1.69-6.45-.73-13.74-1.83-27.47-2.54-41.21-.1-1.87 1-4 2.07-5.68 1.07-1.7 1.62-3.08.36-4.82-2.66-3.68-3.07-7.82-2.32-12.14 1.21-6.98-.82-13.51-2.54-20.11-.64-2.47-1.42-5.15-1.09-7.59 1.48-10.73-1.92-20.82-3.68-31.12-.81-4.74-2.13-9.4-2.72-14.15-.32-2.57.25-5.31.73-7.91.43-2.34.27-4.2-1.38-6.16-1.46-1.73-2.49-3.93-3.33-6.07-3.39-8.69-5.54-17.76-10.69-25.91-3.28-5.19-3.88-12.05-5.94-18.07-1.03-3.03-2.21-6.17-4.05-8.74-3.51-4.9-8.35-5.08-12.6-.97-1.45 1.4-2.77 2.95-4.34 4.21-10.89 8.73-18.56 19.67-23.45 32.76-2.22 5.95-5.11 11.67-8.01 17.34-2.74 5.37-4.7 10.76-4.06 16.95.17 1.65-.64 3.49-1.3 5.11-3.03 7.44-4.68 14.92-5.24 23.15-.94 13.86-4.11 27.58-6.4 41.34-.63 3.75-1.51 7.45-2.24 11.18-.19.98-.59 2.12-.29 2.97 2.94 8.38-.7 16.29-1.59 24.4-.99 8.99-2.1 17.97-2.75 26.98-.3 4.14.97 7.91 3.82 11.41 2.06 2.53 2.97 6.13 3.91 9.39 1.04 3.61 1.78 7.14 6.01 8.48.96.3 1.77 1.31 2.46 2.16 2.96 3.65 5.73 7.46 8.81 11.01 3.87 4.47 6.91 9.25 7.77 15.26.17 1.19 1.14 2.37 2 3.33 1.1 1.25 2.83 2.07 3.6 3.46.72 1.3.87 3.14.62 4.64-.1.63-1.81 1.13-2.86 1.47-3.45 1.11-5.61-.33-7.78-3.19-3.74-4.92-7.38-9.78-9.47-15.69-.5-1.4-1.54-2.74-2.65-3.77-4.45-4.15-8.35-8.59-10.57-14.43-1.31-3.45-2.81-4.27-6.36-5.12-.24 3.9-.52 7.75-.7 11.6-.34 7.15-.71 14.31-.88 21.47-.1 4.43-1.28 8.14-5.36 10.47-.37.21-.65.61-.93.95-.14.16-.2.39-.37.76 8.66 11.15 6.24 23.55 3.37 35.87-.97 4.18-1.77 8.72-5.44 11.66-.46-.03-.92-.05-1.38-.08-.3-2.86-1-5.75-.8-8.57.3-4.42 1.66-8.8-1.23-12.95-.56-.81-.37-2.15-.51-3.25-1.86-14.73.65-29.22 2.22-43.78.69-6.33 1.04-12.71 1.37-19.08.08-1.62-.22-3.4-.86-4.88-1.39-3.22-4.41-3.64-6.82-1.15-5.45 5.63-10.68 11.49-16.4 16.83-3.85 3.6-8.37 6.47-12.95 9.33 3.2-6.14 5.02-12.82 10.12-17.89 9.06-8.98 17.6-18.43 24.62-29.2 3.91-6 4.2-12.6 4.59-19.27 1.17-20.11 2.28-40.23 8.66-59.58.17-.52.24-1.11.21-1.65-.73-15.27 3.08-30.01 5.83-44.8 2.65-14.25 6.54-28.29 10.24-42.33 2.29-8.68 6.69-16.11 15.4-20.41-3.43-2.7-1.96-5.19-.2-7.92 9.29-14.32 21.74-25.8 33.72-37.7 2.08-2.07 6.42-1.03 8.51 2.28 2.14 3.39 4.09 6.95 5.72 10.61 6.77 15.21 13.8 30.33 19.88 45.81 2.92 7.43 6.37 15.04 5.21 23.63-.25 1.82 1.5 4.12 2.76 5.9 1.89 2.68 2.39 5.46 1.56 8.53-1.37 5.04-.96 9.89 1.13 14.67 2.83 6.47 3.2 13.28 3.45 20.29.27 7.53 2.24 14.97 2.96 22.5.63 6.53.68 13.12.76 19.68.08 6.6-.24 13.21-.15 19.81.02 1.36.83 2.88 1.7 4 1.22 1.57 2.89 2.8 4.29 4.25 3.68 3.8 4.13 6.96 2.19 11.83-.35.89 0 2.74.69 3.24 4.41 3.22 6.88 7.4 7.59 12.81.14 1.03 1.32 2.44 2.3 2.74 2.48.77 3.79 2.37 4.97 4.53 7.5 13.72 15.12 27.38 22.35 41.92-1.06-.32-2.4-.32-3.13-.99-7.78-7.09-15.72-14.02-23.03-21.57-2.74-2.83-4.16-7.07-5.8-10.82-2.24-4.99-4.4-9.97-9.46-13.25z"/><path d="m181.48 335.96c-1.01-2.22-1.9-4.15-2.86-6.25 3.49.72 4.24 2.33 2.86 6.25z"/></g></svg>