<svg enable-background="new 0 0 400 400" viewBox="0 0 400 400" xmlns="http://www.w3.org/2000/svg"><g fill="#010100"><path d="m129.43 30.24c1.14 4.65 2.25 10.09 3.82 15.4 2.39 8.12 3.46 16.37 3.55 24.81.14 13.3 1.28 26.65.41 39.88-.94 14.23 5.92 23.8 15.7 32.25 6.52 5.63 13.52 10.75 17.78 18.51 1.39 2.53 2.61 5.15 4.06 8.04-2.98.39-4.87-.28-6.64-2.42-8.07-9.73-17.85-17.4-29.52-24.07 0 2.04.01 3.31 0 4.58-.21 26.2.32 52.36 1.85 78.53.67 11.45-.79 23.02-1.21 34.54-1.05 28.74-2.11 57.48-3.04 86.22-.2 6.06-1.38 11.62-5.22 16.17 0-6.51-.27-13.04.05-19.54.91-18.56 1.4-37.06-.62-55.64-1.73-16.01 1.04-31.9 3.15-47.78.75-5.68.02-11.57-.26-17.36-1.29-26.15-2.66-52.3-4-78.44-.06-1.22-.14-2.43-.22-3.83-3.09-.77-5.4-.45-7.66 2.22-8.25 9.73-16.77 19.23-25.2 28.81-.72.82-1.5 1.59-2.4 2.53-2.31-2.3-1.93-4.61-.42-6.74 4.07-5.75 8.26-11.41 12.46-17.07 2.93-3.96 6.01-7.81 8.89-11.8 3.42-4.74 7.02-9.2 12.19-12.24 3.54-2.08 4.63-5.36 4.07-9.5-2.49-18.58-3.6-37.19-1.08-55.88.16-1.18.14-2.54-.29-3.62-3.16-7.84-2.25-15.77-.71-23.73.23-1.19.43-2.39.51-2.83z"/><path d="m301.15 178.52c-1.77-1.32-3.32-2.16-4.47-3.38-7.52-7.98-14.96-16.04-22.43-24.08-.75-.81-1.46-1.67-2.97-3.39-.84 4.93-1.97 8.87-2.1 12.85-.42 12.4-.79 24.82-.57 37.23.39 21.48 1.28 42.94 1.87 64.42.38 13.87.21 27.77.97 41.61.59 10.82 2.32 21.57 3.38 32.36 1.07 10.93 1.85 21.88-1.03 32.69-.5 1.89-1.29 3.71-1.94 5.57-.38-.02-.75-.03-1.13-.05-.76-5.49-1.58-10.97-2.26-16.47-.19-1.54-.15-3.15.03-4.69 2.21-19.26-1.44-38.13-3.67-57.1-.34-2.89.41-5.89.56-8.85.08-1.61.43-3.4-.13-4.8-1.8-4.57-2.38-9.21-2.25-14.09.19-7.49 0-15 .06-22.5.1-13.32.35-26.65-2.11-39.82-1.66-8.86-.46-17.62.48-26.39 1.1-10.29 2.02-20.51-1.83-30.48-.2-.52-.45-1.02-.94-2.13-3.72 5.32-7.1 10.37-10.73 15.26-2.12 2.86-4.37 5.71-7.01 8.05-1.9 1.69-4.55 2.55-7.21 3.43.55-3.81.22-7.51 3.82-10.18 2.34-1.74 4.23-4.33 5.74-6.88 5.47-9.23 10.76-18.56 15.94-27.95 1.02-1.85 1.71-4.13 1.77-6.23.76-31.21 1.39-62.43 2.05-93.65.01-.43.1-.85.15-1.28.34-.07.68-.15 1.02-.22.53 2.55 1.49 5.1 1.5 7.66.02 6.82-.65 13.64-.52 20.46.23 11.75.83 23.49 1.31 35.23.57 13.75 1.13 27.51 1.82 41.25.08 1.56.7 3.26 1.57 4.57 5.07 7.66 11.82 13.66 19.13 19.12 6.35 4.74 10.39 11 11.98 18.8.13.66.26 1.32.31 1.98.04.42-.06.85-.16 2.07z"/><path d="m229.59 323.39c-7.46.93-14.76 1.84-22.05 2.76-8.53 1.07-17.04 2.74-25.59 2.98-4.29.12-8.69-2.23-12.95-3.73-.72-.25-.98-1.83-1.51-2.9 4.82-3.71 10.23-5 15.83-5.27 8.92-.43 17.86-.51 26.79-.72 4.57-.11 9.14-.4 13.7-.21 4.87.21 5.7 1.38 5.78 7.09z"/><path d="m224.08 298.55c-20.15 2.07-40.31 4.14-60.69 6.23-.38-2.57-.7-4.74-1.08-7.3 6.78-1.29 13.53-2.14 20.04-3.91 8.3-2.26 16.42.32 24.62.08 3.77-.11 7.61.17 11.33.78 2.12.35 4.07 1.73 6.1 2.65-.11.49-.22.98-.32 1.47z"/></g><path d="m377.9 391.2c-.2.3-.4.5-.6.8-.7-.6-1.4-1-2.2-1.5.2-.3.4-.5.5-.8.6.4 1.4.8 2.3 1.5zm-1.8 6.1c-.2-.2-.5-.4-.9-.6.4-.6.8-1.2 1.2-1.9s.7-1.3.9-1.9c.3.3.5.5.8.7-.7 1.3-1.4 2.6-2 3.7zm2.2-9c-.3.3-.5.5-.6.8-.6-.6-1.3-1.1-2-1.5.3-.3.5-.5.6-.7.6.5 1.3.9 2 1.4zm.3.2v-.9h2 4.5c-.3 1.3-.6 2.5-1 3.6s-.9 2.1-1.4 3c.4.5 1 1 1.6 1.4s1.2.8 1.9 1.1c-.3.2-.5.4-.8.8-.4-.3-1-.7-1.6-1.2s-1.2-1.1-1.6-1.6c-.5.6-1.1 1.1-1.7 1.6s-1.4.9-2.1 1.4c-.1-.3-.3-.5-.7-.8.6-.2 1.2-.5 1.9-1s1.4-1.1 2-1.8c-.5-.8-.9-1.6-1.2-2.5s-.6-2-.8-3.2c-.4.1-.7.1-1 .1zm2.5 2.7c.3 1 .7 1.7 1 2.2.3-.5.6-1.1 1-2s.6-1.9.9-3h-3.2-.4c.1.9.3 1.8.7 2.8z" fill="#fcfbfa"/><path d="m396.5 388.5v1.5 3.6h1.5v.9c-.4 0-1 0-1.7 0h-7.9c-.5 0-.9 0-1.2 0v-.9h1.3v-3.5c0-.7 0-1.2 0-1.6h2.4c0-.8 0-1.4 0-1.7h1c0 .3-.1.8-.1 1.7h1.5c0-.8 0-1.4 0-1.7h1c0 .3-.1.9-.1 1.7zm-8.2 9.2c-.2-.3-.5-.5-.8-.8.8-.3 1.4-.6 1.9-.9s1-.7 1.4-1.1c.3.3.6.5.9.8-1.6 1-2.8 1.6-3.4 2zm2.6-6.8v-1.6h-1.5v1.6zm0 2.7v-1.9h-1.5v1.9zm2.4-2.7v-1.6h-1.5v1.6zm0 2.7v-1.9h-1.5v1.9zm.2 2 .7-.8c.4.2.9.5 1.6.8s1.3.7 1.8 1c-.3.3-.5.5-.8.8-.4-.3-1.5-1-3.3-1.8zm2-4.7v-1.6h-1.4v1.6zm0 2.7v-1.9h-1.4v1.9z" fill="#fcfbfa"/></svg>