<svg enable-background="new 0 0 400 400" viewBox="0 0 400 400" xmlns="http://www.w3.org/2000/svg"><g fill="#fafafb"><path d="m12.4 4.8-6.1 9h6v1.2h-8v-.5l6.1-8.9h-5.7v-1.2h7.6v.4z"/><path d="m14 15v-10.6h3c1.6 0 2.9.5 4 1.4s1.6 2.2 1.6 3.8-.5 3-1.6 3.9-2.4 1.5-4 1.5zm1.4-9.4v8.2h1.6c1.3 0 2.4-.4 3.1-1.1s1.1-1.8 1.1-3.1-.4-2.3-1.2-3-1.8-1-3.1-1z"/><path d="m26.1 4.4v10.6h-1.4v-10.6z"/><path d="m36.1 14.6c-.8.4-1.8.6-2.9.6-1.5 0-2.7-.5-3.6-1.4s-1.4-2.2-1.4-3.8c0-1.7.5-3.1 1.5-4.1s2.3-1.6 3.9-1.6c1 0 1.8.1 2.5.4v1.4c-.8-.4-1.6-.6-2.5-.6-1.2 0-2.1.4-2.9 1.2s-1.1 1.8-1.1 3.2c0 1.3.3 2.3 1 3s1.6 1.1 2.7 1.1c1 0 2-.2 2.7-.7v1.3z"/><path d="m37.6 14.3c0-.2.1-.5.3-.6s.4-.3.6-.3c.3 0 .5.1.6.3s.3.4.3.6-.1.4-.3.6-.4.3-.6.3c-.3 0-.5-.1-.6-.3s-.3-.4-.3-.6z"/><path d="m50.2 15h-1.6l-5.3-8.2c-.2-.2-.3-.5-.4-.7 0 .2.1.7.1 1.5v7.4h-1.4v-10.6h1.7l5.2 8.1c.2.4.4.6.4.7 0-.3-.1-.8-.1-1.5v-7.3h1.4z"/><path d="m58.6 15h-5.7v-10.6h5.5v1.2h-4.1v3.4h3.8v1.2h-3.8v3.6h4.3z"/><path d="m67.1 5.6h-3.1v9.4h-1.4v-9.4h-3v-1.2h7.5z"/></g><path d="m267.98 234.92c-6.8 7.09-13.38 14.08-18.11 22.58-.22.39-.38.84-.67 1.16-5.68 6.19-9.98 13.31-14.37 20.41-1.1 1.77-3.92 2.92-6.16 3.45-4.05.95-6.8-2.12-5.65-6.14 4.1-14.28 8.33-28.52 12.58-42.76.34-1.14 1.11-2.18 1.8-3.18 8.49-12.22 16.95-24.46 25.54-36.62 1.26-1.78 1.3-3.13.47-5.13-9.11-21.94-21.82-41.74-35.62-60.95-7.76-10.8-15.09-21.91-22.56-32.92-6.43-9.46-11.17-9.53-17.56-.06-2.5 3.71-4.8 7.55-7.23 11.31-.66 1.03-1.29 2.17-2.21 2.93-9.09 7.49-14.3 17.55-19.01 28.02-5.13 11.41-10.53 22.71-15.8 34.06-.61 1.32-1.14 2.67-1.68 4.02-2.16 5.39-1.52 9.5 2.87 14.3 9.43 10.29 17.99 21.43 26.39 32.6 2.43 3.23 3.72 7.65 4.48 11.71 1.39 7.46 2.17 15.06 2.84 22.63.39 4.37.07 8.79.07 13.2-.54.16-1.09.31-1.63.47-3.08-12.26-12.68-19.64-20.44-28.34-7.79-8.74-15.38-17.95-28.29-21.1-1.68 3.95-3.86 7.88-5.07 12.09-4.81 16.75-10.12 33.39-12.04 50.83-1.46 13.23-2.71 26.49-4.39 39.69-2.08 16.31-4.53 32.57-6.76 48.86-.24 1.78-1.03 2.55-2.77 2.6-1.33.04-2.65.22-4.52.38 4.26-10.66 3.9-21.67 4.55-32.46.97-16.08 1.38-32.2 1.45-48.31.1-23.44 1.98-46.69 5.83-69.8.24-1.41.28-2.86.5-5.17-6 2.15-11.73 3.61-16.91 6.18-10.93 5.42-19.97 13.5-28.49 22.12-1.4 1.41-2.44 3.18-3.6 4.82-1.47 2.08-3.36 3.19-6.54 2.77 5-9.71 9.53-19.41 14.89-28.62 3.87-6.64 9.09-12.49 13.27-18.97 5.83-9.05 13.43-16.48 21.21-23.69 3.39-3.14 7.72-5.31 11.76-7.68 2.17-1.27 3.39-2.92 4.23-5.27 8.2-23.06 15.76-46.38 25.02-69 5.98-14.61 14.65-28.1 21.81-42.25 5.37-10.61 13.3-19.31 20.43-28.61 4.17-5.43 9.56-6.86 16.1-4.5 5.75 2.08 10.38 5.53 14.34 10.12 16.55 19.2 31.57 39.43 43.52 61.9 5.39 10.14 12.35 19.45 15.82 30.59.1.32.21.65.4.92 9.79 14.11 13.97 30.62 19.79 46.41 2.18 5.92 5.77 9.69 11.68 11.93 14.9 5.65 26.84 15.85 38.62 26.16 3.52 3.07 3.42 6.8.42 11.7-6.24-1.28-12.59-2.46-18.89-3.9-6.16-1.42-12.26-3.1-19.14-4.86 2.8 9.28 5.47 17.53 7.77 25.89 4.18 15.19 8.28 30.41 12.1 45.69 1.02 4.08.82 8.44 1.36 12.65.86 6.65 1.86 13.28 2.85 19.91.66 4.44.22 8.68-2.09 13.3-.83-1.27-1.54-2.17-2.05-3.16-7.19-13.89-14.14-27.91-21.62-41.65-5.18-9.5-11.12-18.59-16.65-27.91-3.3-5.56-6.62-11.12-9.67-16.81-2.12-3.98-4.23-7.87-8.57-10.54z" fill="#010105"/></svg>