<svg enable-background="new 0 0 400 400" viewBox="0 0 400 400" xmlns="http://www.w3.org/2000/svg"><path d="m79.5 235.9c-2.3-9-4.3-17.1-6.5-25.1-1.2-4.4-1-8.5.8-12.6 3-7 3.9-14.3 3.7-22-.4-15.8-.7-31.5-.5-47.3.1-7.5-2.1-14.1-5-20.7-1.7-3.9.9-8.9 4.8-10.8 8.7-4.1 17.3-5 26.5-1.7 3.8 1.4 8 2.1 12.1 2.7 4.3.6 7.5 2.6 9.9 6 1.8 2.5 3.7 4.9 5.6 7.3 4.2 5.2 8.9 6.6 15.4 4.8 8.2-2.3 16.2-5.9 25-5 8 .9 15.9 1.9 23.7 3.7 5.4 1.2 9.8 4.7 11.4 10.4.4 1.2 0 3.2-.8 4.2-6.2 7.8-9.5 16.6-10 26.5-.4 9-1.1 18-1.9 26.9-.2 2.4-1.7 4.7-2.4 7-.5 1.6-.9 3.4-.6 5 .5 3 1.4 6 2.3 8.9.5 1.6.5 2.9-1.1 3.8-4.9 2.6-6.2 7-6.5 12.1-.1 1.9-.5 3.8-.9 5.6-1 4.2-1.3 8.3 1.4 12.1.5.7.3 2.3-.1 3.1-6.2 10.8-12.4 21.6-18.7 32.4-.5.8-1.5 1.7-2.3 1.9-7.3 1-11.7 5.7-15 11.8-1.6 3-3.8 4.1-7.2 3.8-1.4-.1-3.2.5-4.2 1.5-6.5 6.5-14.1 10.1-23.5 10.6-6.4.3-12.7 2.1-19 3.4-9 1.8-18.1 1.7-27.2 1.1-8.2-.6-16.5-1-24.7-1.7-1.6-.1-3.5-.9-4.5-2.1-8.2-9-8.2-16-1.9-26.3 3.4-5.6 6.7-7.5 13.3-5.5 11.1 3.3 22.7.6 34 1.2 17.1.9 32-5.8 46.9-12.7 2.3-1.1 4.6-2.4 7-2.8 4.6-.9 7-3.4 7.9-8 .7-3.5 2.2-6.8 3-10.3.2-1-.5-2.2-.9-3.3-.1-.2-.3-.3-.5-.4-4.1-5.1-9.4-6.3-15.9-6.2-17.8.2-35.5-.7-52.9 6.7zm63.1-85.2c0-.1 0-.2 0-.3-.9-.1-1.9-.2-2.8-.2-3.3.1-7.1-.7-9.9.6-6.7 3.1-12.9 7.1-19.3 10.9-2.5 1.4-2.3 5.8.1 7.3 1.7 1 2.6 2.2 1 4-1.3 1.4-.8 2.6 0 3.9 3 5 5.9 10 8.7 15.1 1 1.9 2.3 2.5 4.3 2.6 4 .2 8 .6 12 1 11.2 1.3 11.3 1.4 19-6.8.9-.9 1.5-2.3 1.7-3.6.7-5 1.2-10.1 1.9-15.1.7-5.6 1.2-11.2-2-16.3-1.3-2-2.8-3.3-5.4-3.1-3.2.2-6.3 0-9.3 0z"/><path d="m267.8 306.7c-15.8-.7-31.3-3.1-46.5-7.5-1-.3-2.3-1.1-2.7-1.9-1.7-3.3-3.6-6.7-4.5-10.3-1.1-4.6-1.3-9.4-2-14.1-.3-2 .3-3.1 2.2-3.8 5.4-2.1 10.8-2.8 16.4-1 4 1.3 8.1 2.6 12 4.1 10 3.9 20.6 3.3 30.9 4.4 7.4.8 14.7.6 21.9-1.7 13.2-4.1 21.8-12.9 25.5-26 5.9-20.7 6.3-41.7 1.3-62.7-.3-1.4-1.4-2.8-2.6-3.7-4.7-3.5-10-4.2-15.3-2.1-5.6 2.2-11 4.8-16.4 7.5-1 .5-1.8 1.7-2.3 2.8-1.6 3.4-3.9 5.4-7.8 5.3-5.3-.1-9.9 1.7-14.2 4.7-6.6 4.5-13.2 9.4-21.4 10.7-5.6.8-11.4.9-17.1 1.1-.8 0-1.8-.6-2.4-1.2-2.9-2.9-4.2-6.6-4.4-10.6 0-1.2 1-2.7 1.9-3.6 11.9-11.4 25.4-20.7 39-29.8 1.9-1.3 4-2.5 5.8-3.9 6.2-5 13.2-8.2 21.1-9.5 1.5-.2 3-1.1 4.2-2.1 6.5-5.4 13-10.8 19.4-16.4 1.1-.9 1.9-2.5 2.2-3.9 1.3-5.1 2.2-10.3 3.6-15.4.3-1.3 1.5-2.7 2.7-3.3 6.7-2.9 13.4-5.7 20.2-8.4 9.3-3.8 22.1 3.2 24 13 1.2 6.2 1 12.4-1 18.2-3.1 8.8-3.3 18.1-4.8 27.1-1.9 11.1 1.4 21.9 2.1 32.8.1.9.3 2-.1 2.8-4.8 9.4-4 19.3-2.9 29.2 1.2 10.1 1.8 20.1-1.1 29.9-5.2 17.8-16.4 30.3-34.5 35.7-3.8 1.1-7.9 1.7-11.7 2.8-3 .9-6.2 1.8-8.7 3.6-8.4 5.9-17.8 7.4-27.7 7.4-1.3-.2-2.8-.2-4.3-.2z"/></svg>