<svg enable-background="new 0 0 400 400" viewBox="0 0 400 400" xmlns="http://www.w3.org/2000/svg"><path d="m98.88 258.44c16.57-3.58 32.29-6.98 48.01-10.38 6.99-1.51 14.01-2.91 20.95-4.64 1.76-.44 3.64-1.66 4.79-3.07 6.28-7.73 12.28-15.69 18.54-23.43 1.72-2.13 3.92-3.93 6.1-5.61 10.81-8.32 21.82-16.39 32.47-24.91 3.44-2.75 6.21-6.44 8.9-9.99 3.93-5.19 6.12-10.8 5.06-17.75-2.21-14.47-3.74-29.05-5.72-43.56-.22-1.57-1.31-3.33-2.53-4.4-4.43-3.93-9.19-7.5-13.63-11.43-3.66-3.25-6.17-7.29-6.85-12.75 3.52-.46 6.98-.58 10.28-1.4 11.48-2.83 22.91-5.84 34.33-8.87 12.46-3.3 24.93-6.79 37.9-2.95 14.19 4.2 25.23 11.97 29.12 27.21 2.02 7.93.91 15.77-1.23 23.52-.86 3.12-1.92 6.24-2.31 9.44-.81 6.6-4.17 11.4-9.02 15.78-7.47 6.75-14.46 14.02-21.71 21.02-1.03.99-2.23 1.86-3.5 2.53-4.84 2.57-9.62 5.27-14.63 7.47-8.75 3.85-16.15 9.24-22.28 16.66-1.58 1.91-5.1 2.19-7.68 3.32-1.9.83-4.07 1.44-5.52 2.79-11.24 10.42-22.33 20.99-33.46 31.52-.56.53-1.05 1.14-1.8 1.96 6.83 2.98 13.76 3.34 20.83 2.99 4.23-.21 8.57-.82 12.66-.11 2.79.48 5.88 2.39 7.71 4.6 3.83 4.6 3.08 7.38-1.81 10.71-9.87 6.71-21.23 9.08-32.63 11.53-5.06 1.09-10.02 3.05-14.72 5.28-4.53 2.14-6.68 6-6.71 11.38-.13 22.72-.46 45.44-.97 68.16-.12 5.33-1.07 10.67-1.99 15.94-.33 1.87-1.37 3.85-2.65 5.28-3.23 3.6-6.36 2.93-8.02-1.52-3.6-9.65-5.09-19.74-5.39-29.93-.62-20.92-.84-41.84-1.19-62.77-.07-4.38-1.28-6.2-5.67-5.79-5.61.52-11.31 1.51-16.66 3.23-9.9 3.18-19.6 6.77-30.13 7.56-8.82.66-12.45-4.08-14.15-9.59-1.45-4.73-2.04-9.75-3.09-15.03zm170.22-111.67c3.98-1.85 7.47-3.05 10.5-4.98 9.53-6.07 13.24-15.73 14.94-26.24 1.12-6.87-1.59-11.9-7.11-14.58-6.39-3.11-13.25-3.68-21.19-3.43.39 3.39.66 6.53 1.14 9.62.46 2.95 1.57 5.85 1.63 8.8.22 9.84.09 19.68.09 30.81z" fill="#010104"/><path d="m173 24.63c6.22 4.23 12.2 8.14 17.99 12.31 3.56 2.57 5.44 6.17 4.96 10.74-.32 3.01-1.26 5.42-4.2 7.09-12.85 7.32-23.94 16.79-33.53 28.66 1.54.66 3.06 1.44 4.67 1.99 11.94 4.08 23.96 7.94 35.82 12.24 5.32 1.93 10.55 4.33 15.4 7.23 4.56 2.73 7.28 7.06 5.92 12.76-.26 1.1-1.56 2.53-2.62 2.78-11.87 2.79-23.52 1.78-34.9-2.51-1.1-.42-2.01-1.36-2.97-2.11-8.81-6.89-17.62-13.77-26.4-20.7-4.2-3.31-8.1-3.88-12.45.04-5.62 5.07-11.61 9.72-17.74 14.81 7.37 5.9 15.06 9.92 23.21 12.99 7.83 2.95 15.95 5.18 23.71 8.28 8.98 3.59 16.22 9.36 20.05 18.89-7.21 5.98-15.51 6.82-23.71 3.93-10.49-3.69-20.59-8.52-30.81-12.97-1.16-.5-2.06-1.67-2.99-2.62-6.32-6.47-13.45-11.74-21.9-15.18-2.92-1.19-5.13-1.01-7.33 1.61-4.47 5.3-9.63 10.15-11.34 17.17-3.09 12.7 2.55 21.95 13.6 27.84 8.78 4.69 18.53 5.76 28.19 6.83 13.22 1.46 26.48 2.51 40.23 3.78.6 3.65 1.36 7.56 1.8 11.5.08.7-1 1.85-1.82 2.29-6.9 3.72-14.4 5.53-22.13 6.2-18.41 1.58-36.56.43-54.48-4.67-9.38-2.67-15.47-9.4-22.37-15.37-4.8-4.15-6.82-9.41-7.14-15.33-.22-4.19.01-8.57.99-12.64 1.95-8.14 4.45-16.15 6.96-24.15.6-1.91 1.86-3.83 3.31-5.24 24.34-23.61 48.43-47.49 74.48-69.27 1-.84 1.81-1.97 2.54-3.08 5.56-8.48 11.09-17.02 17-26.12z" fill="#010104"/><g fill="#fcfbfa"><path d="m385.2 377.6.6-.7c.6.4 1.3.9 1.9 1.5l-.6.7c-.8-.5-1.4-1-1.9-1.5zm.3 7.1c.6-1.4 1.1-2.9 1.5-4.5.3.1.6.3.9.4-.5 1.4-1 2.9-1.5 4.4zm.2-10.1.6-.6c.7.5 1.3 1.1 1.9 1.6l-.7.7c-.6-.6-1.2-1.2-1.8-1.7zm8.4-.8h.8v.9h1.8v.7h-1.8v1.8h-.8v-.3h-1.2v.9h3.3v2.6h-.8v-.4h-2.5c0 .3 0 .6-.1.8h3.4v.7h-3.5c0 .3-.1.6-.1.8h4v.7h-3.5c.7.9 1.9 1.3 3.6 1.5-.2.2-.4.5-.6.9-1.9-.3-3.2-1.1-3.8-2.3-.5 1.1-1.8 2-3.9 2.4-.2-.3-.4-.5-.6-.8 1.9-.4 3.1-.9 3.6-1.7h-3.2v-.7h3.5c.1-.2.1-.5.2-.8h-3.3v-.7h3.4c0-.2 0-.5 0-.8h-2.4v.3h-.8v-2.6h3.3v-.9h-1.2v.3h-.8v-1.8h-1.8v-.7h1.8v-.9h.8v.9h3.2zm-4.4 5.5h2.4c0-.3 0-.6 0-.9h-2.4zm1.2-3.1h3.2v-.8h-3.2zm4.4 2.2h-2.4v.9h2.5v-.9z"/><path d="m389.2 385.8h.9v1.5h1.9v-1.5h.9v1.5h2.7v6h1.1v.9h-11.3v-.9h1.1v-6h2.7zm.2 8.7.5.8c-1.2.6-2.5 1.3-4 1.9-.2-.3-.3-.6-.6-.8 1.6-.6 3-1.3 4.1-1.9zm-2-4.3h1.9v-2.1h-1.9zm0 3.1h1.9v-2.2h-1.9zm2.7-3.1h1.9v-2.1h-1.9zm0 3.1h1.9v-2.2h-1.9zm2.4 1.3c1.4.6 2.7 1.2 4.1 1.8l-.5.9c-1.5-.7-2.8-1.4-4.1-1.9zm2.2-6.5h-1.9v2.1h1.9zm-1.9 5.2h1.9v-2.2h-1.9z"/></g></svg>