<svg enable-background="new 0 0 400 400" viewBox="0 0 400 400" xmlns="http://www.w3.org/2000/svg"><g fill="#010000"><path d="m135.91 230.12c-4.36.57-8.37.14-11.42 1.65-12.77 6.33-26.28 5.85-39.79 4.94-9.22-.62-18.45-1.75-27.54-3.39-6.89-1.25-12.76-5.18-18.43-9.27-5.21-3.76-7.06-8.93-7.33-15.04-.69-15.31 3.21-29.74 7.32-44.32 4.03-14.28 9.61-27.49 18.49-39.4 4.87-6.53 9.35-13.41 13.43-20.47 6.86-11.89 17.45-20.32 26.83-29.84 10.36-10.53 21-20.78 31.53-31.15.54-.54 1.13-1.02 1.8-1.62 9.91 7.3 17.13 16.52 21.49 27.83 3.21 8.33 5.7 16.93 8.9 25.27 1.91 4.98 4.13 9.94 6.94 14.46 5.69 9.15 8.65 18.94 9.17 29.68.38 7.71 1.85 15.3 5.23 22.38 4.89 10.26 6.4 21.21 7.37 32.43 1.13 13.13 3.4 26.15 4.94 39.25.31 2.64.08 5.6-.83 8.07-3.72 10.06-7.8 19.98-11.77 29.95-.41 1.03-.8 2.17-1.52 2.96-11.23 12.16-22.32 24.46-33.88 36.3-4.09 4.19-9.35 7.23-14.24 10.92.9 1.03 1.84 2.11 3.07 3.53-7.04 6.44-11.63 15.37-21.43 19.03-12 4.49-22.59 11.62-33.06 18.93-8.98 6.28-19.05 10.22-30.16 12.11-2.73-5.1-5.47-10.2-8.29-15.47.76-.81 1.48-1.64 2.26-2.41 19.09-18.8 37.06-38.52 52.06-60.87 3.2-4.77 8.71-7.95 12.97-12.07 1.79-1.73 3.59-3.77 4.52-6.02 2.73-6.61 6.64-12.05 12.75-15.98 1.45-.93 2.59-3.02 2.99-4.78 1.94-8.7 3.6-17.48 5.63-27.59zm4.47-104.89c-3.09-2.63-6.03-4.66-8.38-7.24-2.66-2.92-5.8-4.53-9.57-4.92-.93-.1-2.43.57-2.86 1.34-1.88 3.33-4.63 5.53-8.19 6.5-11.52 3.14-19.58 10.78-26.55 19.94-3.45 4.53-6.71 9.28-10.62 13.38-3.33 3.5-4.28 7.21-4.76 11.9-.89 8.67 1.94 15.24 8.52 20.52 1.72 1.38 3.28 3.38 5.26 3.97 14.78 4.44 29.78 6.96 45.29 4.6 5-.76 7.02-2.86 6.42-7.96-.31-2.63-1.24-5.2-1.98-7.77-.68-2.35-1.89-4.62-2.15-7.01-1.47-13.44-2.73-26.91-4.03-40.37-.1-1-.01-2.03-.01-3.95 1.65 2.85 2.79 4.82 4.33 7.47 2.46-8.06 10.14-8.53 15.46-12.32-.53-1.18-.96-2.12-1.57-3.48-1.52 1.77-2.74 3.21-4.61 5.4zm12.21 50.75c7.08 1.72 10.7 7.27 15 12.08.88.99 2.53 2.01 3.72 1.89 3.85-.38 7.66-1.28 12.14-2.1-3.6-5.26-6.58-10.56-10.51-15.01-2.36-2.67-6.09-4.27-9.43-5.89-2.36-1.15-4.6-.63-6.08 2.15-1.25 2.32-3.04 4.37-4.84 6.88zm24.08 37.57c-.31.02-.61.04-.92.06v9.37c2.14-3.11 1.11-6.28.92-9.43z"/><path d="m199.28 120.96c1.08-5.15 2.43-9.66 5.4-14.01 8.35-12.25 18.76-21.99 31.61-29.34 4.08-2.33 7.67-5.35 12.85-4.52.84.14 2.15-.68 2.79-1.45 6.58-7.93 15.19-12.83 24.25-17.43 7.93-4.02 15.64-8.75 22.7-14.13 4.96-3.79 8.68-9.21 13.27-14.24 3.07.75 5.7 3.23 7.67 6.19 3.72 5.58 6.74 11.64 10.69 17.03 7.52 10.29 15.52 20.23 23.24 30.37.9 1.18 1.81 2.7 1.89 4.11 1.04 19.02 3.13 37.86 7.55 56.44 2.55 10.71.99 21.27-2.22 31.73-2.72 8.85-4.92 17.87-7.27 26.84-.42 1.61-.77 3.37-.55 4.97.67 4.71-1.53 8.04-4.58 11.21-2.09 2.17-4 4.54-5.79 6.97-6.92 9.38-16.14 15.45-26.86 19.78-22.17 8.96-44.21 18.26-66.3 27.41-.81.34-1.64.63-2.72 1.05-.45-1.72-.86-3.28-1.39-5.29-1.23 1.92-2.23 3.48-3.37 5.27-1.18-.95-2.25-1.82-3.53-2.85-.42 1.09-.78 2.06-1.25 3.28-1.59-.38-3.07-.74-5.56-1.33 2.27-5.63 3.84-11.24 6.64-16.14 7.62-13.31 18.33-23.81 31.12-32.26 3.91-2.58 7.5-5.65 11.43-8.65.65.9 1.25 1.74 2.05 2.86 3.31-7.95 9.61-12.39 16.77-15.96 5.56-2.77 9.69-7.13 12.94-12.35.44-.71.73-1.65.73-2.49.05-7.72.07-15.45-.02-23.17-.01-1.01-.47-2.18-1.09-3-1.87-2.51-4-4.82-5.87-7.34-1.61-2.16-3.45-2.38-5.86-1.53-6.86 2.41-13.2 5.31-18.91 10.26-14.48 12.55-30.8 22.27-49.27 27.9-6.5 1.98-13.24 3.12-20.22 1.62.36-5.35 1.2-10 5.25-14.06 6.32-6.32 11.69-13.58 17.95-19.97 4.18-4.26 8.96-8.04 13.89-11.44 11.6-8.01 23.68-15.32 35.08-23.6 6.08-4.42 11.2-10.17 16.62-15.47 1.78-1.74 2.03-3.94 1.12-6.48-1.66-4.62-2.91-9.39-4.4-14.07-1.3-4.09-5.35-6.08-9.29-4.34-2.74 1.21-5.63 2.46-7.87 4.38-7.79 6.68-16.75 11.05-26.36 14.3-4.24 1.43-8.45 2.92-12.69 4.36-9.38 3.17-18.12 7.57-26.07 13.52-4.71 3.52-10.1 5.05-16.19 5.06zm130.39-45.02c-2.25 2.02-4.2 3.78-6.21 5.59.82.97 1.46 1.73 2.16 2.56 2.88-1.76 5.41-3.31 8.16-4.99-1.57-1.21-2.89-2.22-4.11-3.16zm-2.89 113.15c-.75 2.31-1.31 4.06-1.69 5.22 1.24-.78 2.74-1.72 4.32-2.71-1.05-1-1.61-1.53-2.63-2.51z"/><path d="m46.16 374.08c-5.81.22-3.66-4.53-5.55-6.45.22-.16.45-.31.67-.47 1.53 2.17 3.06 4.33 4.88 6.92z"/></g><path d="m361.2 9.6.8-1c.9.7 1.9 1.4 2.9 2.3l-.9 1.1c-1-1-2-1.8-2.8-2.4zm.5 10.6c.9-2.1 1.6-4.3 2.3-6.7.4.2.8.4 1.3.6-.7 2.1-1.5 4.3-2.2 6.6zm.4-15.2.9-.9c1 .8 2 1.6 2.8 2.4l-1 1c-.9-.9-1.8-1.7-2.7-2.5zm12.5-1.2h1.2v1.4h2.7v1.1h-2.7v2.7h-1.2v-.6h-1.8v1.3h4.9v3.8h-1.2v-.5h-3.7c0 .4-.1.9-.1 1.2h5.1v1h-5.2c0 .5-.1.9-.2 1.2h6v1h-5.2c1.1 1.3 2.9 2 5.5 2.2-.4.4-.7.8-.9 1.3-2.9-.5-4.8-1.6-5.7-3.5h-.1c-.8 1.7-2.7 2.9-5.9 3.6-.2-.4-.6-.8-.9-1.1 2.8-.6 4.6-1.4 5.4-2.5h-4.8v-1h5.3c.1-.3.2-.7.2-1.2h-4.9v-1h5c0-.4 0-.8.1-1.2h-3.5v.5h-1.2v-3.8h4.9v-1.3h-1.8v.5h-1.2v-2.7h-2.7v-1h2.6v-1.4h1.2v1.4h4.7v-1.4zm-6.6 8.3h3.6c0-.4 0-.9 0-1.4h-3.6zm1.9-4.6h4.7v-1.3h-4.7zm6.6 3.2h-3.7v1.4h3.7z" fill="#fbfcfa"/><path d="m385.3 3.8h1.3v2.2h2.8v-2.2h1.3v2.2h4.1v9.1h1.7v1.3h-16.9v-1.3h1.7v-9.1h4.1v-2.2zm.4 13.1.7 1.2c-1.8.9-3.8 1.9-6 2.9-.2-.4-.5-.8-.8-1.3 2.3-1 4.3-1.9 6.1-2.8zm-3.1-6.4h2.8v-3.2h-2.8zm0 4.6h2.8v-3.3h-2.8zm4-4.6h2.8v-3.2h-2.8zm0 4.6h2.8v-3.3h-2.8zm3.7 1.9c2.1.9 4.1 1.8 6.1 2.7l-.7 1.3c-2.2-1.1-4.2-2-6.1-2.9zm3.2-9.7h-2.8v3.2h2.8zm-2.8 7.8h2.8v-3.3h-2.8z" fill="#fbfcfa"/></svg>