<svg enable-background="new 0 0 400 400" viewBox="0 0 400 400" xmlns="http://www.w3.org/2000/svg"><path d="m361.2 9.6.8-1c.9.7 1.9 1.4 2.9 2.3l-.9 1.1c-1-1-2-1.8-2.8-2.4zm.5 10.6c.9-2.1 1.6-4.3 2.3-6.7.4.2.8.4 1.3.6-.7 2.1-1.5 4.3-2.2 6.6zm.4-15.2.9-.9c1 .8 2 1.6 2.8 2.4l-1 1c-.9-.9-1.8-1.7-2.7-2.5zm12.5-1.2h1.2v1.4h2.7v1.1h-2.7v2.7h-1.2v-.6h-1.8v1.3h4.9v3.8h-1.2v-.5h-3.7c0 .4-.1.9-.1 1.2h5.1v1h-5.2c0 .5-.1.9-.2 1.2h6v1h-5.2c1.1 1.3 2.9 2 5.5 2.2-.4.4-.7.8-.9 1.3-2.9-.5-4.8-1.6-5.7-3.5h-.1c-.8 1.7-2.7 2.9-5.9 3.6-.2-.4-.6-.8-.9-1.1 2.8-.6 4.6-1.4 5.4-2.5h-4.8v-1h5.3c.1-.3.2-.7.2-1.2h-4.9v-1h5c0-.4 0-.8.1-1.2h-3.5v.5h-1.2v-3.8h4.9v-1.3h-1.8v.5h-1.2v-2.7h-2.7v-1h2.6v-1.4h1.2v1.4h4.7v-1.4zm-6.6 8.3h3.6c0-.4 0-.9 0-1.4h-3.6zm1.9-4.6h4.7v-1.3h-4.7zm6.6 3.2h-3.7v1.4h3.7z" fill="#fbfcfa"/><path d="m385.3 3.8h1.3v2.2h2.8v-2.2h1.3v2.2h4.1v9.1h1.7v1.3h-16.9v-1.3h1.7v-9.1h4.1v-2.2zm.4 13.1.7 1.2c-1.8.9-3.8 1.9-6 2.9-.2-.4-.5-.8-.8-1.3 2.3-1 4.3-1.9 6.1-2.8zm-3.1-6.4h2.8v-3.2h-2.8zm0 4.6h2.8v-3.3h-2.8zm4-4.6h2.8v-3.2h-2.8zm0 4.6h2.8v-3.3h-2.8zm3.7 1.9c2.1.9 4.1 1.8 6.1 2.7l-.7 1.3c-2.2-1.1-4.2-2-6.1-2.9zm3.2-9.7h-2.8v3.2h2.8zm-2.8 7.8h2.8v-3.3h-2.8z" fill="#fbfcfa"/><g fill="#010105"><path d="m263.53 94.7c1.85 3.66 2.05 6.38.78 9.21-.19.43-.14 1.01-.08 1.51.26 2.01 1.22 4.17.76 5.98-2.1 8.22-4.77 16.29-6.88 24.51-.96 3.76-1.25 7.72-1.55 11.61-.6 7.7-1.02 15.41-1.43 23.12-.06 1.08.36 2.18.68 3.96 1.43-1.58 2.29-2.52 3.49-3.84 2.77 7.87 6.14 15.41 4.22 23.53-1.41 5.97-2.45 12.05-5.65 17.71-4.18 7.41-8.81 14.22-15.17 19.85-.9.8-2.08 1.77-2.27 2.81-1.04 5.88-5.36 9.36-9.18 13.24-1.88 1.91-3.55 4.12-5.67 5.71-3.38 2.51-3.73 5.72-2.65 9.24 2.51 8.18 4.48 16.51 9.3 23.9 3.14 4.82 5.21 10.35 7.5 15.68.72 1.68.58 3.73.83 5.55.49.69 1.39 1.48 1.67 2.44 2.13 7.27 4.95 14.48 2.73 22.3-.06.21-.09.47-.02.67 2.39 6.95-1.05 13.88-.12 20.83.12.87-.37 1.83-.57 2.75-.42-.02-.85-.04-1.27-.07-.25-3.12-.57-6.24-.74-9.37-.32-6.01-.23-12.05-.91-18.01-.67-5.9-2.67-11.43-5.81-16.64-1.24-2.06-.86-5.09-1.32-7.66-.13-.74-.62-1.42-1-2.1-5.12-9.25-10.46-18.39-15.3-27.78-3.65-7.07-5.37-14.72-3.93-22.74.76-4.21 1.93-8.3 6.11-10.59.29-.16.54-.4.79-.62 6.37-5.45 10.44-8.39.71-16.26-5.82-4.71-11.09-10.09-16.51-15.28-2.09-2-4.23-4.08-5.76-6.5-4.13-6.53-9.93-11.08-16.35-15.1-6.12-3.83-10.82-8.97-13.32-15.9-.15-.42-.31-.86-.55-1.22-2.28-3.35-4.58-6.68-7.13-10.39-6.6 6.71-13.73 8.7-21.81 6.62-1.78-.46-3.66-1.67-4.85-3.07-1.92-2.29-3.44-4.95-4.9-7.59-2.24-4.05-2.52-8.18-.49-12.52 1.68-3.59 2.38-7.74 6.5-9.66.48-5.05 5.66-5.12 8.24-7.86 5.6-5.95 13.02-8.43 20.07-11.7 1.61-.75 3.23-1.49 4.8-2.33 7.22-3.89 13.29-9.7 21.57-11.88 5.97-1.57 8.97-7.51 13.6-11.12 8.6-6.69 14.98-15.28 20.78-24.3 5.01-7.8 7.95-16.3 6.76-25.88-.63-5.05-.21-10.04 3.88-15.1 1.05 2.1 2.55 3.72 2.58 5.37.19 10.94 1 21.98-.24 32.78-1.23 10.74-8.17 19.13-15.68 26.69-.75.76-2.37 1.03-2.64 1.84-3.01 9.05-10.07 14.42-17.72 18.89-6.05 3.53-12.63 6.16-19.05 9.03-6.71 3-13.49 5.87-20.28 8.7-2.46 1.03-5.01 1.91-7.58 2.59-1.27.34-2.71.06-3.77.06-7.23 4.29-11.69 10.85-13.47 19.51 3.2 1.25 6.34 2.7 9.63 3.7 3.72 1.13 7.25.38 10.52-1.84 5.65-3.84 7.73-3.76 13.29.18 4.72 3.34 5.81 3.32 10.23-.33 5.12-4.24 9.01-9.29 12.23-15.23 2.16-3.98 2.94-7.94 4.12-12.06.66-2.31 3.74-3.92 6.29-6.38 2.57 5.8 4.68 10.56 6.78 15.31 1.52 3.45 7.76 6.8 11.5 6.1 2.09-.39 4.13-1.11 6.23-1.3 1.64-.14 3.33.31 5.78.58 1.73-1.67 4.3-4.05 8.21-4.08.6 0 1.52-.22 1.75-.63 2.26-4.17 5.53-7.72 6.18-12.84.86-6.74 2.39-13.4 8.28-17.99.87-.68 1.24-2.04 1.78-3.11.73-1.49 1.42-2.98 2.47-5.19zm-76.29 70.89c.88-.39 1.54-.59 2.09-.94 7.48-4.81 17.11-2.33 24.61-7.33 2.15-1.43 5.09-1.61 7.58-2.59 2.06-.81 4.11-1.77 5.92-3.03 1.14-.8 1.82-2.27 2.7-3.44-1.54-.74-3.04-1.57-4.63-2.17-.54-.2-1.3.23-1.96.28-4.16.32-8.27 2.11-12.52.24-.77-.34-1.95.18-2.92.4-8.9 2.08-17.07 5.9-24.91 10.52-4.51 2.66-5.62 4.89-4.46 10.12 1.81 8.18 7.06 14.22 12.44 20.15.41.02.83.04 1.24.06.64-2.01 1.27-4.02 1.79-5.66 6.18-1.25 12.25-2.52 18.35-3.68 1.54-.29 3.16-.22 3.83-.27 3.35-2.24 6.14-4.31 9.12-6.06 4.03-2.37 8.55-4.04 12.22-6.84 4-3.05 7.07-7.12 6.65-12.8-.12-1.65.06-3.46.63-5 1.28-3.47.8-6.49-2.11-8.42-1.17 2.44-3 4.73-3.32 7.22-.74 5.69-4.38 8.96-8.95 10.82-8.66 3.52-17.63 6.29-26.45 9.41-1.78.63-3.62 1.24-5.22 2.2-6.15 3.69-6.6 3.06-11.72-3.19zm64.94 13.34c-.69.61-1.11.94-1.49 1.32-8.27 8.43-18.34 14.17-28.97 18.95-2.56 1.15-5.65 1.09-8.48 1.68-2.8.58-3.78 2.36-3.3 5.16.58 3.42 3.1 5.19 5.51 7.23 3.27 2.77 6.6 5.61 9.25 8.93 4.94 6.21 11.58 6.84 15.11.5 4.2-7.55 8.42-15.05 10.14-23.86 1.15-5.89.34-12.15 3.16-17.74.19-.4-.53-1.26-.93-2.17zm-35.69 12.54c.03.22.07.44.1.66 2.88-.53 6.08-.45 8.58-1.73 3.54-1.8 6.55-4.64 9.82-6.97 2.23-1.59 2.51-3.77 1.32-5.87-1.28-2.25-3.24-1.64-5.22-.54-5.46 3.03-10.87 6.17-17.28 6.92-1.6.19-3.26.95-4.58 1.89-.91.64-1.97 2.29-1.71 3.06.36 1.07 1.8 2.23 2.96 2.47 1.93.41 4 .11 6.01.11z"/><path d="m182.93 373.9c2.1-3.89 2.01-8.86 6.21-11.72.18-.12.42-.29.46-.47 1.26-6.5 6.84-11.86 4.57-19.39-.93-3.09-.56-6.64-.37-9.96.28-4.9-1.8-8.46-5.75-10.91-.93-.57-2.86-.36-3.9.23-4.4 2.51-7.43 1.46-9.45-4.1-.75-2.06-1.05-4.36-1.09-6.56-.07-3.12.16-6.26.47-9.38 1.2-11.99-1.3-16.17-12.33-21.39-7.49-3.55-15.38-4.4-23.48-4.26-3.51.06-5.36-1.34-5.93-4.76-.16-.97-.33-2.05-.85-2.83-4.38-6.56-3.87-13.51-1.48-20.45 3.75-10.91 11.35-19.18 19.38-27.08 2.47-2.43 5.25-4.54 7.73-6.96 5.86-5.71 10.09-12.18 9.83-20.86-.07-2.25.7-4.53.99-6.24 2.59.37 4.79.29 6.62 1.08 1.16.5 2.51 2.31 2.48 3.49-.16 5.85 2.04 11.57.35 17.57-.78 2.78-1.76 4.78-3.99 6.54-5.24 4.13-9.52 9.11-12.33 15.44 4.1 3.88 7.21 8.83 13.23 10.73 3.09.97 4.27-.47 5.24-2.36 1.55-3.04 2.75-6.28 3.89-9.51.87-2.49 1.42-5.09 2.17-7.85 2.67-.6 4.49.58 5.91 3.19 2.27 4.2 2.4 8 .64 12.68-2.44 6.5-6.67 11.6-10.73 16.87-1.86 2.42-4.57 4.21-6.95 6.2-1.11.93-2.48 1.54-3.55 2.51-3.98 3.58-4.07 5.52-.29 9.14 6.62 6.34 13.21 12.74 20.04 18.85 8.65 7.73 13.13 16.64 9.67 28.47-.66 2.26-.77 4.92-.29 7.22.8 3.91-.62 7.44-.89 11.11-.44 6.05-2 11.66-3.97 17.25-.73 2.06-2.01 3.92-3.01 5.89-1.63 3.22-3.13 6.51-4.9 9.65-.8 1.42-2.11 2.56-3.19 3.83-.4-.32-.78-.61-1.16-.9zm-13.26-125.51c-2.83-5.76-7.35-9.29-12.61-11.97-5.07-2.59-5.37-2.48-9.54 1.42-3.04 2.84-2.75 8.43 1.12 9.7 4.23 1.39 6.67 5.86 11.4 5.91 1.31.01 2.86.12 3.89-.5 1.98-1.2 3.67-2.88 5.74-4.56zm-15.62 8.65c-1.87-1.05-3.69-1.91-5.32-3.04-1.64-1.14-3.08-2.57-4.63-3.84-4.4-3.62-6.99-1.07-8.49 2.94-1.46 3.92-.27 8.43 2.36 10.47 2.51 1.95 9.03 2.14 12.17.26 2.49-1.49 4.64-3.24 3.91-6.79z"/></g></svg>