<svg enable-background="new 0 0 400 400" viewBox="0 0 400 400" xmlns="http://www.w3.org/2000/svg"><g fill="#fbfafa"><path d="m37.59 393.81c-.92.31-1.52.05-2-.78-.7-1.2-1.52-2.34-2.47-3.78v4.59c-.55.03-.95.05-1.41.07-.03-.37-.06-.64-.06-.91 0-1.91 0-3.81 0-5.7 1.13-.41 1.77-.03 2.29.91.62 1.11 1.38 2.14 2.31 3.19v-4.2h1.35v6.61z"/><path d="m12.94 393.88v-6.75c1.9.19 3.93-.54 5.37 1.29.8 1.01.78 2.88.03 3.97-1.37 1.97-3.4 1.51-5.4 1.49m1.45-1.22c2.04.12 2.92-.58 2.89-2.21-.03-1.51-.98-2.19-2.89-2z"/><path d="m11.81 393.87h-5.49c.68-2.18 2.47-3.48 3.51-5.45h-3.08v-1.21h5.29c-.71 2.13-2.44 3.48-3.47 5.51.86 0 1.63.04 2.39-.01.79-.05 1.14.21.85 1.16"/><path d="m39.33 393.86v-6.61h3.7v1.07h-2.22v1.52c.68.04 1.34.09 2.07.13v1.07c-.72.05-1.38.09-2.1.14v1.48h2.4v1.19h-3.85z"/><path d="m27.71 388.56c-1.15-.3-2.46-.61-3.1.64-.37.73-.41 1.93-.06 2.67.63 1.35 1.99.93 3.17.68.35.94-.01 1.32-.93 1.46-1.62.25-3.05-.27-3.76-1.48-.73-1.24-.6-3.03.31-4.17.88-1.11 2.71-1.7 4-1.16.32.13.44.74.65 1.12-.1.08-.19.16-.28.24"/><path d="m49.15 387.24v1.07c-.59.02-1.17.05-1.87.08v5.44h-1.48v-5.44h-1.85c-.05-.4-.08-.73-.13-1.15z"/><path d="m20.06 387.21h1.33v6.62h-1.33z"/><path d="m30.68 393.25c-.49.38-.8.79-1.05.76-.32-.05-.6-.45-.9-.7.26-.24.51-.64.8-.67.29-.04.62.3 1.15.61"/></g><path d="m194.6 174.92c0-11.57 0-22.71 0-34.44-7.63 0-15.08-.02-22.53 0-6.92.02-13.86.35-20.76.02-4.65-.22-9.11-1.69-11.6-6.23-1.78-3.24-1.31-4.4 2.05-5.79 6.8-2.82 13.94-2.88 21.12-2.69 9.73.26 19.46.34 29.19.7 2.53.09 3.83-.88 4.3-3.12.81-3.82 1.47-7.67 2.2-11.51.35-1.87.61-3.75 1.06-5.6 1.71-6.99 5.4-11.72 12.91-13.76 10.99-2.99 22.08-4.52 33.4-5.12 4.76-.25 9.67-.67 14.18-2.07 8.68-2.7 12.62-13.49 8.31-21.56-.42-.79-1.4-1.37-2.25-1.82-9.91-5.29-20.67-7.39-31.72-7.31-17.67.12-35.34.86-53.01 1.26-2.06.05-3.04.67-3.22 2.81-.44 5-1.23 9.98-1.55 14.99-.59 9.28-3.78 16.76-12.57 21.29-9.34 4.81-18.53 9.94-27.67 15.11-1.83 1.04-3.46 2.73-4.71 4.46-8.57 11.85-12.49 25.42-15.23 39.63-2.63 13.7-6.27 27.21-9.78 40.72-1.18 4.52-3.81 5.44-8.23 4.34-2.29-.57-2.91-1.65-2.84-3.98.42-15.41 2.93-30.48 6.81-45.36 3.57-13.66 8.23-26.93 14.21-39.72.28-.61.38-1.42.85-1.81 6.57-5.47 12.85-11.39 19.92-16.13 4.04-2.71 9.46-3.25 14.1-5.17 6.76-2.8 11.24-7.38 11.36-15.35.08-5.35.71-10.69 1.12-16.36-5.78-1.19-11.46-2.28-17.1-3.56-2.15-.49-4.32-1.16-6.29-2.15-8.7-4.34-17.39-8.7-25.91-13.38-1.55-.85-3.11-3.18-3.22-4.91-.29-4.77 1.96-6.18 6.5-4.74 13.63 4.32 27.1 9.36 40.97 12.72 9.34 2.26 19.25 2.81 28.91 2.93 12.06.16 24.13-.9 36.2-1.46 12.69-.59 25.44-.28 37.6 3.33 23.01 6.83 26.79 25.06 19.82 42.77-.84 2.14-3.47 3.68-5.47 5.25-7.41 5.8-16.44 6.76-25.28 7.96-8.74 1.19-17.57 1.81-26.35 2.72-1.44.15-2.88.42-4.27.81-3.65 1.03-6.26 2.8-6.77 7.16-.56 4.72-1.91 9.35-3.01 14.44 4.34.37 8.32.63 12.28 1.07 13.77 1.56 27.55 3.1 41.3 4.81 13.52 1.68 20.75 10.41 23.37 24.4 1.09 5.81 1.22 11.64-2.03 16.92-.89 1.45-2.22 2.82-3.67 3.71-17.41 10.68-36.44 14.12-56.62 12.75-18.68-1.27-37.37-.77-55.95 1.45-6.47.77-12.86 2.79-19.08 4.86-5.34 1.77-7.53 6.29-7.95 11.77-.68 8.95.05 10.1 8.12 13.58 13.67 5.89 28.02 8.53 42.8 8.48 17.28-.06 34.39.61 51.31 4.78 18.53 4.57 32.59 14.86 40.64 32.06 3.24 6.91 4.41 14.96 5.59 22.64 2.15 13.93 4.02 27.92 5.23 41.96 1.16 13.48 1.37 27.05 1.91 40.59.13 3.28-2.75 3.97-4.97 4.47-2.24.5-4.48-.25-4.89-3.22-1.17-8.63-2.39-17.25-3.55-25.87-2.24-16.62-4.38-33.26-6.7-49.87-1.01-7.19-2.16-14.37-3.59-21.49-2.8-13.84-11.78-21.71-24.92-25.78-9.4-2.91-18.99-4.28-28.73-4.45-19.76-.34-39.2-3.42-58.64-6.48-3.98-.63-8.01-1.05-11.91-1.99-16.7-4.01-24.91-18.07-21.51-35.28 2.54-12.87 11.19-19.23 22.78-21.51 12.24-2.4 24.79-3.22 37.22-4.65 1.99-.23 4.02-.03 6.41-.03zm15.87-.03c9.25 0 18.29.05 27.32-.01 9.7-.07 19.11-1.69 28.13-5.4 7.69-3.16 8.93-4.89 8.8-13.09-.07-4.49-1.72-8.13-6.12-9.87-3.2-1.27-6.47-2.83-9.82-3.19-9.54-1.04-19.12-1.7-28.71-2.18-6.44-.32-12.91-.06-19.6-.06z" fill="#010105"/></svg>