<svg enable-background="new 0 0 400 400" viewBox="0 0 400 400" xmlns="http://www.w3.org/2000/svg"><path d="m361.2 9.6.8-1c.9.7 1.9 1.4 2.9 2.3l-.9 1.1c-1-1-2-1.8-2.8-2.4zm.5 10.6c.9-2.1 1.6-4.3 2.3-6.7.4.2.8.4 1.3.6-.7 2.1-1.5 4.3-2.2 6.6zm.4-15.2.9-.9c1 .8 2 1.6 2.8 2.4l-1 1c-.9-.9-1.8-1.7-2.7-2.5zm12.5-1.2h1.2v1.4h2.7v1.1h-2.7v2.7h-1.2v-.6h-1.8v1.3h4.9v3.8h-1.2v-.5h-3.7c0 .4-.1.9-.1 1.2h5.1v1h-5.2c0 .5-.1.9-.2 1.2h6v1h-5.2c1.1 1.3 2.9 2 5.5 2.2-.4.4-.7.8-.9 1.3-2.9-.5-4.8-1.6-5.7-3.5h-.1c-.8 1.7-2.7 2.9-5.9 3.6-.2-.4-.6-.8-.9-1.1 2.8-.6 4.6-1.4 5.4-2.5h-4.8v-1h5.3c.1-.3.2-.7.2-1.2h-4.9v-1h5c0-.4 0-.8.1-1.2h-3.5v.5h-1.2v-3.8h4.9v-1.3h-1.8v.5h-1.2v-2.7h-2.7v-1h2.6v-1.4h1.2v1.4h4.7v-1.4zm-6.6 8.3h3.6c0-.4 0-.9 0-1.4h-3.6zm1.9-4.6h4.7v-1.3h-4.7zm6.6 3.2h-3.7v1.4h3.7z" fill="#fbfcfa"/><path d="m385.3 3.8h1.3v2.2h2.8v-2.2h1.3v2.2h4.1v9.1h1.7v1.3h-16.9v-1.3h1.7v-9.1h4.1v-2.2zm.4 13.1.7 1.2c-1.8.9-3.8 1.9-6 2.9-.2-.4-.5-.8-.8-1.3 2.3-1 4.3-1.9 6.1-2.8zm-3.1-6.4h2.8v-3.2h-2.8zm0 4.6h2.8v-3.3h-2.8zm4-4.6h2.8v-3.2h-2.8zm0 4.6h2.8v-3.3h-2.8zm3.7 1.9c2.1.9 4.1 1.8 6.1 2.7l-.7 1.3c-2.2-1.1-4.2-2-6.1-2.9zm3.2-9.7h-2.8v3.2h2.8zm-2.8 7.8h2.8v-3.3h-2.8z" fill="#fbfcfa"/><g fill="#010105"><path d="m248.84 345.52c.91-.34 1.81-.69 3.61-1.37-.52 2.49-1.24 4.68-1.37 6.91-.1 1.81.56 3.65.8 5.48.56 4.39 1.3 8.78 1.46 13.19.06 1.57-1.33 3.2-2.06 4.81-.34-.08-.68-.17-1.02-.25-.65-3.25-1.74-6.49-1.8-9.75-.04-1.93 1.55-3.89 2.23-5.44-.86-3.18-2.05-6.47-2.57-9.86-.62-4.02-1.58-7.73-3.53-11.4-1.33-2.5-1.06-5.82-1.69-8.74-.31-1.44-.92-2.87-1.62-4.17-1.74-3.23-4.1-6.21-5.34-9.61-3.52-9.63-9.93-16.46-18.63-21.63-3.16-1.88-5.88-4.74-8.29-7.58-2.58-3.04-3.52-6.77-3.34-10.93.29-6.7-.11-13.44.16-20.15.13-3.32-.78-6.04-3.08-8.13-3.46-3.14-7.2-5.97-10.8-8.97-3.76-3.13-7.61-6.18-11.14-9.55-.94-.9-.89-2.85-1.52-5.13-2.71-1.37-2.52-7.06 1.56-10.05 3.88-2.84 7.91-5.47 11.89-8.17 4.21-2.85 7.33-6.5 9.02-12.2-3.34-.88-6.56-1.95-9.87-2.52-3.07-.53-6.27-.94-9.35-.67-7.28.64-13.75-1.94-19.88-5.04-5.34-2.7-10.3-6.31-15.04-10.02-4.6-3.6-7.01-8.58-6.82-14.64.1-3.13.25-6.31-.15-9.39-1.02-7.85 1.09-14.77 5.56-21.12.64-.9 1.32-1.8 2.13-2.55 2.38-2.21 4.7-4.51 7.27-6.47 18.06-13.83 30.4-32.68 44.16-50.27.99-1.27 1.43-3.01 1.98-4.58 1.22-3.47 2.35-6.98 3.6-10.7 1.12.47 2.08.87 3.14 1.31 1.18-1.37 2.34-2.7 3.96-4.59.31 1.85 1.03 3.33.67 4.48-1.62 5.18-2.83 10.69-5.53 15.29-4.1 6.97-7.31 14.03-8.07 22.13-.3 3.21.5 5.58 3.11 7.89 4.54 4.01 9.75 6.56 15.13 9.08 3.53 1.66 6.61 4.27 10.28 6.72 4.56-3.72 6.93-9.45 7.47-16.15.18-2.22.59-4.44 1.19-6.58.81-2.88 2.59-4.92 6-5.3 5.2 7.53 8.2 15.98 9.5 25.04 1.45 10.16 1.32 20.31-.8 30.37-.34 1.6-1.62 2.98-2.36 4.51-.96 1.99-2.05 3.96-2.7 6.05-4.63 15.08-12.75 27.79-25.55 37.16-5.54 4.06-10.65 8.39-15 13.75-2.71 3.34-6.08 6.19-9.34 9.05-3.06 2.69-3.62 5-.97 7.99 4 4.5 7.87 9.23 12.47 13.06 9.34 7.78 15.65 18.07 23.41 27.13.75.88 1.04 2.21 1.4 3.37 4.87 15.92 10.03 31.76 14.41 47.82 1.56 5.71 1.22 11.95 1.77 17.94.22 2.33.14 4.78.86 6.95.74 2.23.71 3.82-1.52 5.08.2.36.37.73.55 1.11zm-88.33-215.7c-1.8 3.1-3.59 5.91-5.11 8.85-3.28 6.3-2.99 12.59.08 18.96 5.34 11.07 16.35 15.41 25.59 21.85.08.06.22.05.33.06 9.36.21 18.76 1.03 28.08.45 9.25-.58 16.03-7.47 18-16.38.97-4.36-.33-6.05-4.66-6.31-8.59-.53-17.17-1.09-25.75-1.74-1.27-.1-2.61-.51-3.72-1.13-3.11-1.73-6.17-3.56-9.15-5.5-3.26-2.11-6.58-4.18-9.57-6.64-4.74-3.91-9.22-8.12-14.12-12.47zm25.42-23.95c-.83.57-1.71.93-2.26 1.59-2.95 3.5-5.7 7.17-8.76 10.57-1.41 1.56-1.4 2.89-1 4.8 2.35 11.19 13.23 14.49 19.86 21.7.06.07.22.04.32.08 14.72 5.05 29.32 6.57 43.63-1.72-3.9-1.12-3.99-4.03-3.21-7.41.32-1.39.39-2.89.32-4.32-.28-6.05-1.87-7.41-7.8-6.84-1.56.15-3.11.59-4.66.54-3.43-.1-7.18.4-10.21-.82-9.72-3.9-19.54-7.93-25.42-17.52-.1-.2-.34-.3-.81-.65z"/><path d="m206.85 52.26c-.29-5.15-.42-10.3-.92-15.43-.32-3.22-.57-3.19 1.14-4.65.4-2.87.69-5.01.99-7.16.49-.04.99-.07 1.48-.11.8 1.75 1.77 3.44 2.37 5.26 1.82 5.48 2.41 11.1 1.37 16.83-.34 1.9-.66 3.65-3.38 3.55-1.01-.02-2.06 1.13-3.05 1.71zm2.15-17.44v7.83c3.29-1.65 3.29-4.55 0-7.83z"/></g></svg>