<svg enable-background="new 0 0 400 400" viewBox="0 0 400 400" xmlns="http://www.w3.org/2000/svg"><path d="m248.7 158c-6.2-1.4-12.4-2.8-18.5-4-3.5-.7-7.1-1.2-10.7-1.7-3.1-.4-6.1-.7-9.2 1.1-1.7 1-4.1.8-6.1.9-5.4.3-10.8.1-16.1.7-11.6 1.2-23.2 2.1-34.7-1.1-3.8-1.1-6-4.1-5.5-8 .8-6.5 1.5-7.3 8.2-7.7 8.3-.5 16.7-.4 25-.8 5.6-.2 10.5-1.9 14.1-6.7 1.7-2.2 4.1-3.9 6.3-5.7 4.5-3.7 7.4-8.3 9.3-13.8-6.3-5.4-13.8-7.9-21.7-9.3-6-1.1-12-1.5-17.8.9-1.3.6-2.6 1.4-3.7 2.3-3.2 2.8-6.3 5.6-9.3 8.6-3.6 3.6-7.6 6.6-12.6 8.2-1.6.5-3 1.9-4.2 3.1-9.8 10.9-9.8 11.1-23.9 14-10 2.1-19.7 4.6-28.6 9.9-4.1 2.5-8.3 2.7-13.1.1-4.1-2.2-9.3-2.5-14-3.4-3.7-.7-7.6-.9-11.3-1.4-7.6-1-10.8-7.2-14.6-12.6-.3-.4-.4-1-.7-1.4-3.9-4.5-3.3-8.6.6-13 1.5-1.7 2.7-2.7 4.9-2.2 10 2 20.1 4 30.1 6 2.6.5 5.2 1.1 7.8 1.5 4.4.7 8.4.5 12.2-2.7 1.9-1.6 4.8-1.8 7.3-2.7 10.6-3.9 21.2-7.7 31.7-12 2.2-.9 3.9-3.2 5.5-5.1 2.9-3.3 6.3-5.4 10.5-6.6 1.9-.6 3.8-1.9 5-3.4 3.4-4.3 6.4-9 9.8-13.3 4.4-5.7 6.5-6.1 12.8-2.6 2.8 1.6 5.4 3.7 8 5.7 4.6 3.7 9.6 6.5 15.4 7.9s11.6 2.7 17.1 4.6c8.2 2.9 16.4 3.3 24.9 1.5 2.4-.5 5.1-.2 7.5.3 3.3.6 4.7 3.2 4.2 6.4-.8 4.7-2.4 8.6-6.3 11.9-5.4 4.6-10.4 9.5-16.9 12.7-1.2.6-2.4 1.5-3.3 2.5-2.3 2.5-1.5 5.2 1.7 6.3 10.4 3.7 21.1 3.9 32 3.9 3.2 0 6.6.5 9.6 1.5 6 1.9 10.7 8.9 10.7 15.2 0 .9-.5 1.8-1 2.6-2.6 4-5.3 7.9-7.8 12-.8 1.3-1.7 2.8-1.9 4.3-1 7.9-6.5 12.5-12.6 16.1-3.5 2.1-6.1 4.6-8.3 7.9-1.4 2-2.7 3.6-5.5 3.6-1 0-1.9 1.1-2.9 1.7-3.1 2.2-6.2 4.4-9.3 6.5-5.3 3.6-15.4 2-18.7-4.4-1.7-3.2-4.1-3.5-7.5-3.5-6.2 0-12.4-.8-18.5-1.5-7.8-.9-15.4-.9-22.9 1.7-1.2.4-2.5 1.2-3.3 2.2-7.1 8.6-12.3 18.3-14.4 29.3-.7 3.7 0 7.7.2 11.6.1 1.5.8 3.1.4 4.4-1.4 3.9.7 6.7 2.1 9.9 2.1 4.9 5.4 6.6 10.4 7.5 20.5 4 40.9 8.7 61.5 12.6 6.3 1.2 13.1.6 19.6.5 13.9-.1 27.7-.3 41.6-.8 5.9-.2 11.8-1.1 17.7-1.4 3.3-.2 6.7.2 10.1.2 1.3 0 2.5-.5 3.8-.6 1.5-.1 3.1-.3 4.5.1 2.6.7 4.6.6 6.6-1.5 1.1-1.2 2.7-2 4.3-2.5 7.9-2.7 15.8-5.3 23.7-8 4.3-1.5 8.1.6 12.1 1.2.4.1.9.9 1 1.4.8 4.5.4 8.9-2.4 12.6-1.3 1.8-2.9 3.4-4.5 4.9s-2.7 3.1-2.4 5.5c.1.9-.6 2.2-1.3 2.9-10.7 10.1-21.3 20.3-32.3 30.1-4.9 4.3-11.5 5-17.7 4.2-8.3-1.1-16.4-3.1-24.6-4.7-2.6-.5-5.2-1.2-7.8-1.4-6-.5-11.3-2.8-16.8-5.2-5.3-2.3-10.9-3.9-16.5-5.2-13.1-3.2-26.2-6.3-38.8-11.5-6.1-2.5-13.1-3-19.7-4.4-.8-.2-1.8-.1-2.4-.5-6.6-4-13.9-5.8-21.3-6.7-9.7-1.2-17.1-6.3-23.8-12.7-2-1.9-4.6-3.4-4.6-6.7 0-.6-.6-1.4-1.2-1.7-3.1-1.3-3.5-3.8-3.4-6.7.1-1.5-.3-3-.2-4.4.2-1.9.8-3.7 1.3-5.6.4-1.5 1.2-3 1.3-4.5.2-5 1.8-9.5 3.9-13.9 2.1-4.6 3.8-9.4 6.1-13.9 3.7-7.1 4.9-14.8 5.4-22.6.1-1.8.4-3.6.7-5.3 1-5.7 3.7-8.8 9.9-10.4 18.1-4.9 35.9-3 53.8-.1 1 .2 2.1.3 3.1.3 6 .1 12.1.3 18.1.3 10.2 0 23.1-9.2 23.7-22.3z"/></svg>