<svg enable-background="new 0 0 400 400" viewBox="0 0 400 400" xmlns="http://www.w3.org/2000/svg"><g fill="#fbfafc"><path d="m12.4 4.8-6.1 9h6v1.2h-8v-.5l6.1-8.9h-5.7v-1.2h7.6v.4z"/><path d="m14 15v-10.6h3c1.6 0 2.9.5 4 1.4s1.6 2.2 1.6 3.8-.5 3-1.6 3.9-2.4 1.5-4 1.5zm1.4-9.4v8.2h1.6c1.3 0 2.4-.4 3.1-1.1s1.1-1.8 1.1-3.1-.4-2.3-1.2-3-1.8-1-3.1-1z"/><path d="m26.1 4.4v10.6h-1.4v-10.6z"/><path d="m36.1 14.6c-.8.4-1.8.6-2.9.6-1.5 0-2.7-.5-3.6-1.4s-1.4-2.2-1.4-3.8c0-1.7.5-3.1 1.5-4.1s2.3-1.6 3.9-1.6c1 0 1.8.1 2.5.4v1.4c-.8-.4-1.6-.6-2.5-.6-1.2 0-2.1.4-2.9 1.2s-1.1 1.8-1.1 3.2c0 1.3.3 2.3 1 3s1.6 1.1 2.7 1.1c1 0 2-.2 2.7-.7v1.3z"/><path d="m37.6 14.3c0-.2.1-.5.3-.6s.4-.3.6-.3c.3 0 .5.1.6.3s.3.4.3.6-.1.4-.3.6-.4.3-.6.3c-.3 0-.5-.1-.6-.3s-.3-.4-.3-.6z"/><path d="m50.2 15h-1.6l-5.3-8.2c-.2-.2-.3-.5-.4-.7 0 .2.1.7.1 1.5v7.4h-1.4v-10.6h1.7l5.2 8.1c.2.4.4.6.4.7 0-.3-.1-.8-.1-1.5v-7.3h1.4z"/><path d="m58.6 15h-5.7v-10.6h5.5v1.2h-4.1v3.4h3.8v1.2h-3.8v3.6h4.3z"/><path d="m67.1 5.6h-3.1v9.4h-1.4v-9.4h-3v-1.2h7.5z"/></g><path d="m166.12 116.43c-3.69-9.15-6.98-17.55-10.48-25.86-2.12-5.04-4.76-9.86-6.82-14.92-1.64-4.02.05-6.04 4.38-5.51 2.32.28 4.69.73 6.83 1.6 1.49.6 3.1 1.8 3.87 3.17 5.75 10.36 11.48 20.74 16.83 31.31 1.79 3.54 4.39 5.1 7.72 4.15 7.05-2.01 13.95-4.56 20.82-7.14.94-.35 1.65-2.02 1.97-3.21 2.76-10.25 5.06-20.64 8.16-30.78 3.29-10.78 7.03-21.45 11.12-31.95 1.59-4.09 4.47-7.76 7.22-11.26.68-.87 3.18-.6 4.79-.4 2.39.3 3.4 1.92 3.85 4.35 2.93 15.6-.06 30.18-6.9 44.27-3.17 6.52-5.87 13.26-8.66 19.96-1.32 3.18.01 4.84 3.49 4.73.45-.01.94.02 1.33-.16 5.57-2.61 11.43-1.07 17.17-1.36 6.01-.31 11.97-1.39 17.97-1.86 1.39-.11 2.83 1.13 4.3 1.39 1.2.21 2.8.31 3.7-.3 3.15-2.15 5.14-2.05 7.33.98 2.83 3.89 4.49 8.13 2.37 12.83-.58 1.28-2.18 2.68-3.53 2.94-22.49 4.42-45.02 8.61-67.52 13-5.92 1.16-11.75 2.74-17.57 4.32-1.79.49-3.67 1.34-5 2.58-1.04.97-1.9 2.85-1.77 4.22 1.24 12.92 2.28 25.88 4.29 38.68.97 6.19 3.66 12.17 6 18.07 6.74 16.98 16.67 31.77 31.59 44 2-3.83 4.28-7.48 5.88-11.41 3.69-9.09 4.03-18.75 3.99-28.4-.03-8.39-.51-16.78-.42-25.17.06-5.56.52-11.16 1.33-16.66.26-1.74 1.91-3.9 3.51-4.67 2.43-1.17 4.68.48 5.67 2.82 1.54 3.67 2.8 7.48 3.96 11.29 1.79 5.86 3.15 11.86 5.16 17.64 1.86 5.35 3.17 10.59 2.54 16.37-.99 9-1.45 18.07-2.33 27.09-.15 1.53-1.13 3.03-1.95 4.42-2.82 4.78-5.75 9.5-8.61 14.25-1 1.66-.31 2.76 1.08 3.95 6.79 5.81 15.11 7.5 23.52 8.93 3.52.6 7.11.88 10.68 1.1 2.55.16 3.72 1.72 3.81 3.85.1 2.31.87 5.51-2.27 6.29-4.15 1.03-8.67 2.33-12.71 1.64-8.11-1.39-16.03-3.99-23.99-6.21-2.52-.7-4.89-2-7.43-2.55-.94-.2-2.69.67-3.2 1.56-3.28 5.64-8.32 10.36-9.29 17.26-.1.68-.7 1.46-1.3 1.86-7.47 5.04-11.98 12.62-16.79 19.84-5.02 7.54-10.97 13.95-18.21 19.45-3.01 2.29-4.69 6.32-7.05 9.51-1.11 1.5-2.18 3.12-3.59 4.29-5.77 4.79-11.73 9.34-17.47 14.18-2.02 1.7-3.46 4.09-5.38 5.93-2.96 2.83-5.71 6.3-9.26 8.01-7.8 3.75-16.05 6.58-24.13 9.74-.7.28-1.58.42-2.3.27-1.18-.25-2.3-.79-3.45-1.21.62-.91 1.04-2.11 1.89-2.69 6.19-4.21 12.73-7.95 18.63-12.53 4.36-3.38 7.94-7.77 11.83-11.76 18.88-19.38 34.8-41.15 50.71-62.91 5.4-7.38 9.91-15.42 14.76-23.2.88-1.41 1.5-3 2.09-4.56 2.25-5.92 1.77-7.43-3.1-11.32-9.59-7.67-16.95-17.15-22.62-27.98-3.73-7.13-7.46-14.27-10.96-21.51-1.08-2.24-2.24-2.4-4.43-1.86-12.69 3.14-25.43 6.1-38.15 9.16-1.29.31-2.72.56-3.78 1.28-4.68 3.18-9.83 3.8-15.33 3.48-6.6-.38-13.18-.14-19.58 1.93-.9.29-2.31.11-3.05-.44-2.89-2.16-2.51-10.02.45-12.08 6.81-4.75 14.72-6.32 22.65-6.18 10.35.19 20.15-1.74 29.93-4.71 5.23-1.59 10.67-2.45 15.93-3.95 2.19-.62 4.42-1.74 6.16-3.2 2.2-1.85 3.2-4.34 2.39-7.51-2.27-8.88-4.3-17.82-6.45-26.73-.85-3.52-2.57-4.42-6.08-3.24-19.8 6.64-39.59 13.29-59.39 19.93-4.85 1.63-7.05-.13-6.33-5.22.59-4.14 2.06-7.67 5.24-10.85 9.39-9.4 20.72-14.82 33.24-18.66 8.11-2.45 15.77-6.23 24.5-9.79z" fill="#000001"/><path d="m134.41 231.18c2.88-.6 5.84-.97 8.63-1.84 12.16-3.79 24.28-7.73 36.41-11.6 3.75-1.2 7.48-.49 8.57 1.6 1.07 2.04-.5 7.11-2.78 9.1-5.58 4.86-12 8.15-19.09 10.14-5.17 1.45-10.37 2.74-15.54 4.2-2.67.76-5.48 1.36-7.89 2.67-4.57 2.48-9.02 4.59-14.51 4.12-2.28-.19-4.7 1.19-7.04 1.92-1.6.5-3.13 1.27-4.75 1.6-4.58.94-6.25-.66-7.31-5.02-1.03-4.18.25-6.15 4.05-7.84 5.7-2.55 11.09-5.79 16.66-8.65 1.33-.68 2.86-.99 4.29-1.48.11.37.21.73.3 1.08z" fill="#000001"/></svg>