<svg viewBox="0 0 400 400" xmlns="http://www.w3.org/2000/svg"><rect width="400" height="400" fill="white" /><path d="m313.7 274c-3.4-.8-6.8-1.5-10.1-2.4-7.6-1.9-15.1-3.8-22.7-5.7-.8-.2-1.7-.3-2.4-.7-7.5-5.4-16.2-6.7-25.1-6.4-15.3.5-30.4-1.7-45.5-3.4-22.9-2.7-45.9-4-69-.8-6.4.9-13.1.4-19.7.5-9.4.2-18.8.3-28.2.5-1 0-2.4 0-3 .6-4.6 4.8-10.7 4.5-16.5 5.1-1 .1-2.1.1-3.2 0-3.4-.4-6.5.4-9 2.9-1.5 1.5-3.1 1.7-5.2 1.3-3.8-.7-7.8-.9-11.6-1.6-1.5-.3-2.9-1.4-4.1-2.4-1-.8-1.5-2-2.5-2.9-4.6-4.3-4.6-9.2-2-14.4.4-.8 1.2-1.5 1.9-1.9 7.3-4 15.3-6 23.4-7.6.5-.1 1.1-.2 1.6-.1 7.5 2.7 14.8 0 22.2-.7 2.5-.2 5.1-.8 7.6-.5 9.5.9 18.5-1.9 27.4-4.4 12.4-3.5 24.9-3.1 37.4-2.6 3.4.1 6.8-.1 10.1.3 2.9.3 5.7 1.2 8.6 1.7 1.2.2 2.5.4 3.6-.1 4.8-2.1 9.7-2.5 14.8-2.5 10.6 0 20.9.2 31.3 3.4 5.5 1.7 12 .4 18 .3 12.7-.2 25.4-.6 38.1-.8 8.8-.2 17.6.3 26.3-.6 7-.7 13.7-3.3 20.7-4.6 8.5-1.6 17.1-3 25.7-3.8 7.9-.8 11.6 4.4 9.4 12-1.1 3.8-2.9 7.1-5.8 10-4.6 4.5-9 9.3-13.5 13.8-3 2.9-5.6 6-7 10-.3.8-.8 1.8-1.4 2-6.9 1.8-12.8 6.7-20.6 6.5z"/><path d="m135.9 130c19-.9 38-1.9 57.1-2.8 2.5-.1 5 .9 7.5 1.1 5.8.4 11.6 1.2 17.3.8 13.1-1.1 26.1-1.3 39.3-.3 7.7.6 15.6-.2 23.4-.4.5 0 1.1 0 1.6.1 9.2 1.1 12.4 5.8 10.3 14.9-.1.4-.5 1-.8 1.2-3.8 1.4-7.2 3.8-11.6 3.6-8.5-.5-17.2-1.4-25.6-.5-29 3.1-58.1 2.7-87.1 4.5-13.5.8-26.8-.4-40.1-2.3-4.3-.6-8.8.2-13.3.5-13.7.9-27.4 1.9-41.1 2.9-2.1.2-3.6-.5-5-2-3.3-3.7-6.5-7.2-6.1-12.7.1-2 .8-3.2 2.7-4.1 7.6-3.6 15.7-3.6 23.9-3.6 16 .1 31.9-.2 47.9-.3-.3-.1-.3-.3-.3-.6z"/></svg>