<svg viewBox="0 0 400 400" xmlns="http://www.w3.org/2000/svg"><rect width="400" height="400" fill="white" /><g fill="#010101"><path d="m206.28 157.19c2-25.9-.95-50.37-13.25-73.08-1.25-2.31-2.97-4.47-4.83-6.34-11.19-11.26-22.05-22.93-35.59-31.54-2.63-1.67-5.38-3.14-7.84-5.26 5.11 2.1 10.28 4.07 15.32 6.33 8.26 3.7 16.44 7.58 24.64 11.41.8.37 1.63.82 2.25 1.42 8.08 7.79 16.08 15.78 20.91 26.02 3.13 6.62 5.09 13.82 7.26 20.86.9 2.9 2.6 4.18 5.37 4.7 9.18 1.72 21.54-3.49 25.96-11.62 1.41-2.6 1.55-6.04 1.72-9.12.56-9.85-1.46-19.37-4.46-28.68-3.66-11.36-7.51-22.66-11.39-34.32.51.58.92.93 1.19 1.38 9.95 15.9 18.06 32.68 23.23 50.74 2.65 9.27 3.02 18.72.25 28.15-2.35 8.01-10.92 14.65-19.36 14.95-3.79.14-7.61.3-11.35.89-5.39.86-5.75 1.31-5.61 6.65.15 5.59.62 11.17.96 16.75.17 2.78.36 5.56.57 8.61 22.93 3.06 45.83 6.12 68.72 9.17-.01.2-.02.4-.03.59-13.65 2.07-27.29 4.15-40.94 6.22-7.74 1.17-15.47 2.37-23.23 3.43-2.12.29-2.88 1.14-3.16 3.35-1.26 10.1 1.57 19.77 2.79 29.61 3.01 24.36 13.63 46.19 22.9 68.41 10.74 25.73 23.91 50.26 39.16 73.62 4.58 7.02 9.72 13.67 14.6 20.49.69.96 1.35 1.94 1.65 3.44-2.34-1.4-5.07-2.4-6.95-4.26-17.75-17.61-35.02-35.74-46.46-58.28-11.78-23.22-22.89-46.83-31.22-71.52-3.91-11.58-5.81-23.88-7.98-35.97-1.44-7.99-1.76-16.18-2.58-24.27-.04-.43-.16-.85-.19-1.06-38.22-3.89-76.76-3.42-114.16-12.75-.03-.39-.05-.78-.08-1.17 5.83-1.28 11.62-2.77 17.5-3.82 18.34-3.28 36.91-3.88 55.48-4.1 11.53-.14 23.06-.03 34.59-.03z"/><path d="m201.3 276.4c-1.5.52-2.79 1.03-4.12 1.41-17.45 5.02-35.15 9.05-53.4 8.2-9.88-.46-19.7-2.49-29.52-3.97-7.62-1.15-15.2-2.53-22.8-3.82-.95-.16-1.88-.43-2.86-.66 37.41-13.55 74.83-13.53 112.7-1.16z"/><path d="m191.44 216.12c-31.56 10.59-62.86 6.09-94.81.11 31.92-6.53 63.2-10.44 94.81-.11z"/></g><path d="m6.4 11.7c-1-.8-1.9-1.6-2.9-2.3l.6-.7c.9.7 1.9 1.4 2.9 2.2zm-2.1 8.3c.7-2.1 1.4-4.2 2-6.4.2.1.6.3 1 .4-.7 2.3-1.3 4.4-1.9 6.4zm3-12.8c-1.1-.9-2.1-1.7-2.9-2.4l.6-.7c1 .8 2 1.5 3 2.4zm1.4-1.3v-.9h10.2v.9c-.9 4.2-2.3 7.3-4.1 9.4 1.3 1.4 3.2 2.7 5.7 4-.2.2-.4.5-.7.9-2.5-1.4-4.4-2.7-5.7-4.2-1.4 1.5-3.5 3-6.1 4.4 0 0 0 0-.1-.1-.3-.4-.5-.7-.7-.8 2.7-1.3 4.7-2.8 6.2-4.2-1.8-2.2-3-5.3-3.7-9.4zm9.2 0h-7.1c.6 3.8 1.7 6.7 3.4 8.7 1.7-2 2.9-4.8 3.7-8.7z" fill="#fbfafa"/><path d="m31.6 3.6h.9v2.3h4.1v9.1h1.7v.9h-16.6v-.9h1.7v-9.1h4.1v-2.3h.9v2.3h3.1v-2.3zm-4 13.3.6.8c-1.9.9-3.8 1.9-5.8 2.8-.2-.3-.3-.6-.5-.9 2-.9 3.9-1.8 5.7-2.7zm-3.2-10.1v3.7h3.1v-3.7zm0 4.5v3.7h3.1v-3.7zm4.1-4.5v3.7h3.1v-3.7zm0 4.5v3.7h3.1v-3.7zm9.1 9.1c-2.1-1.1-4.1-2-5.8-2.7l.5-.8c2.2.9 4.1 1.8 5.8 2.6zm-1.9-13.6h-3.1v3.7h3.1zm-3.2 4.5v3.7h3.1v-3.7z" fill="#fbfafa"/></svg>