<svg enable-background="new 0 0 400 400" viewBox="0 0 400 400" xmlns="http://www.w3.org/2000/svg"><g fill="#010102"><path d="m93.74 76.44c8.09-4.29 16.28-7.26 24.88-7.64 14.73-.65 29.51-.17 44.26-.55 11.92-.31 23.83-1.2 36.32-1.86-3.98-14.02-7.71-27.17-11.56-40.73 7.48 1.21 14.53 2.26 21.52 3.59.85.16 2.06 1.83 2.02 2.75-.27 5.9-.83 11.79-1.35 17.67-.13 1.44-.49 2.86-.67 4.3-.78 6.17 1.42 10.09 7.09 12.57 1.02.44 2.1.77 3.17 1.06 5.55 1.5 5.76 1.62 8.85-3.32 4.33-6.91 8.09-14.19 12.55-21.01 2.45-3.76 5.36-7.54 8.91-10.18 5.23-3.89 11.91-2.44 14.67 2.18 2.11 3.53.63 6.95-.28 10.36-.12.45-1.25.74-1.96.9-12.06 2.83-20.18 10.92-27.81 20.51 5.92 2.8 11.82 3.04 17.65 2.4 6.43-.71 12.75-2.43 19.18-3.07 4.03-.4 8.3-.12 12.23.81 2.85.67 5.33 2.91 8.53 4.77-7.59 4.88-15.09 7.27-22.91 8.66-13.18 2.33-26.45 2.68-39.79 1.62-2.62-.21-5.47-.22-7.9.6-4.85 1.63-7.47 6.6-6.21 13.41 1.33 7.19 3.87 14.17 5.93 21.22.37 1.28 1.12 2.45 1.5 3.73 2.36 8.03 8.34 10.82 16.03 11.16 1.68.07 3.36.11 5.03.11 5.77.01 6.21.01 6.26-5.92.04-4.61-.97-9.27-1.94-13.83-1.21-5.69.14-10.18 4.6-13.31.34-.24.76-.37 1.68-.8 1.36 7.27 2.44 14.3 4.01 21.21 3.16 13.87 4.72 13.35 17.2 13.15 3.89-.06 7.75-1.06 11.64-1.42 6.02-.55 10.81 1.63 14.66 7.11-6.88 1.17-13.24 2.23-19.6 3.33-6.28 1.08-12.55 2.19-19.12 3.33v4.04c0 51.61-.08 103.22.13 154.83.02 5.14-1.9 8.57-5.98 10.6-4.96 2.46-10.22 4.47-15.53 6.07-8.65 2.6-17.55 4.42-26.17 7.13-8.05 2.52-16.26 2.84-24.53 2.99-9.82.18-19.66-.5-29.33 2.3-8.7 2.52-15.34 7.59-20.54 14.77-2.99 4.12-4.12 8.85-4.3 13.89-.32 8.49-3.85 12.24-13.18 13.49-.19-2.95-.8-5.92-.47-8.78 1.17-10.15 5.53-19.53 11.6-27.14 5.03-6.31 12.96-10.49 20.06-14.88 3.48-2.16 7.91-3.26 12.05-3.79 8.76-1.13 17.6-1.6 26.41-2.27 11.69-.9 23.54-.5 34.92-3.97 4.79-1.46 9.44-3.41 14.11-5.25 8.21-3.25 11.54-9.9 11.96-18.18.27-5.35.52-10.84-.34-16.08-1.73-10.57-.42-20.94.73-31.37.2-1.77.39-3.58.3-5.35-1.41-26.04-2.87-52.08-4.32-78.11-.23-4.13-.59-8.27-.65-12.4-.03-2.17-1.02-3.04-2.93-3.18-4.23-.32-8.47-.55-12.7-.87-2.56-.2-5.19-.19-7.64-.83-4.71-1.24-8.11-3.55-9.51-9.02-4.02-15.69-8.73-31.21-13.07-46.82-.58-2.08-1.29-2.95-3.7-3.22-16.33-1.84-32.62-.35-48.93.11-11.73.33-23.5.61-35.2-.1-6.09-.37-12.08-2.83-18.05-4.57-1.5-.49-2.76-1.79-4.47-2.91z"/><path d="m91.44 204c-.5-6.46-.5-6.46 4.61-7.86 6.03-1.65 12.13-3.09 18.08-5 6.32-2.03 12.77-2.04 19.24-1.91 12.63.26 25.27.32 37.87 1.12 6.74.43 13.49 1.86 20.05 3.54 3.26.83 6.11 3.25 9.67 5.24-5.79 5.62-12.06 6.91-18.6 6.82-11.28-.15-22.56-.76-33.84-1.05-13.97-.36-27.94-.63-41.91-.89-5-.09-10.01-.01-15.17-.01z"/><path d="m94.15 128.86c10.25-1.86 20.62-3.91 31.06-5.53 2.53-.39 5.28 1.03 7.92.99 7.69-.12 15.38-.38 23.05-.91 8.74-.6 16.76 1.22 24.47 6.07-6.25 3.71-12.77 5.59-19.51 6.61-20.95 3.14-41.83 3.07-62.59-1.68-2.66-.6-4.54-1.69-4.4-5.55z"/></g><path d="m6.4 11.7c-1-.8-1.9-1.6-2.9-2.3l.6-.7c.9.7 1.9 1.4 2.9 2.2zm-2.1 8.3c.7-2.1 1.4-4.2 2-6.4.2.1.6.3 1 .4-.7 2.3-1.3 4.4-1.9 6.4zm3-12.8c-1.1-.9-2.1-1.7-2.9-2.4l.6-.7c1 .8 2 1.5 3 2.4zm1.4-1.3v-.9h10.2v.9c-.9 4.2-2.3 7.3-4.1 9.4 1.3 1.4 3.2 2.7 5.7 4-.2.2-.4.5-.7.9-2.5-1.4-4.4-2.7-5.7-4.2-1.4 1.5-3.5 3-6.1 4.4 0 0 0 0-.1-.1-.3-.4-.5-.7-.7-.8 2.7-1.3 4.7-2.8 6.2-4.2-1.8-2.2-3-5.3-3.7-9.4zm9.2 0h-7.1c.6 3.8 1.7 6.7 3.4 8.7 1.7-2 2.9-4.8 3.7-8.7z" fill="#fafbfa"/><path d="m31.6 3.6h.9v2.3h4.1v9.1h1.7v.9h-16.6v-.9h1.7v-9.1h4.1v-2.3h.9v2.3h3.1v-2.3zm-4 13.3.6.8c-1.9.9-3.8 1.9-5.8 2.8-.2-.3-.3-.6-.5-.9 2-.9 3.9-1.8 5.7-2.7zm-3.2-10.1v3.7h3.1v-3.7zm0 4.5v3.7h3.1v-3.7zm4.1-4.5v3.7h3.1v-3.7zm0 4.5v3.7h3.1v-3.7zm9.1 9.1c-2.1-1.1-4.1-2-5.8-2.7l.5-.8c2.2.9 4.1 1.8 5.8 2.6zm-1.9-13.6h-3.1v3.7h3.1zm-3.2 4.5v3.7h3.1v-3.7z" fill="#fafbfa"/></svg>