<svg viewBox="0 0 400 400" xmlns="http://www.w3.org/2000/svg"><rect width="400" height="400" fill="white" /><path d="m362.1 8.8c1.1.8 2.1 1.6 3.1 2.4l-1 1.1c-1.3-1.1-2.3-2-3-2.5zm1.9 4.8c.5.2.9.4 1.4.5-.6 2.3-1.3 4.5-1.9 6.8l-1.5-.5c.8-2.1 1.4-4.3 2-6.8zm-1-9.4c1.3.9 2.4 1.8 3.4 2.5l-1 1.1c-1.4-1.2-2.4-2.1-3.2-2.6zm3.7 2.2v-1.4h10.3v1.2c-.5 3.6-1.8 6.8-4 9.4 1.5 1.6 3.4 2.8 5.7 3.8-.3.4-.7.8-1.1 1.4-2.3-1.1-4.1-2.5-5.6-4.1-1.6 1.6-3.6 3.1-5.9 4.3-.3-.5-.7-.9-1-1.3 2.4-1.1 4.4-2.5 6-4.1-1.9-2.5-3-5.6-3.3-9.3h-1.1zm8.8 0h-6.4c.3 3.3 1.3 6 3 8.2 2-2.3 3.1-5.1 3.4-8.2z" fill="#fbfafc"/><path d="m385.3 3.8h1.3v2.2h2.8v-2.2h1.3v2.2h4.1v9.1h1.7v1.3h-16.9v-1.3h1.7v-9.1h4.1v-2.2zm.4 13.1.7 1.2c-1.8.9-3.8 1.9-6 2.9-.2-.4-.5-.8-.8-1.3 2.3-1 4.3-1.9 6.1-2.8zm-3.1-6.4h2.8v-3.2h-2.8zm0 4.6h2.8v-3.3h-2.8zm4-4.6h2.8v-3.2h-2.8zm0 4.6h2.8v-3.3h-2.8zm3.7 1.9c2.1.9 4.1 1.8 6.1 2.7l-.7 1.3c-2.2-1.1-4.2-2-6.1-2.9zm3.2-9.7h-2.8v3.2h2.8zm-2.8 7.8h2.8v-3.3h-2.8z" fill="#fbfafc"/><g fill="#010100"><path d="m329.87 277.83c-1.66-.31-3.92-.47-5.99-1.17-3.76-1.27-7.37-.97-11.18-.16-14.54 3.09-29.09 6.19-43.72 8.79-4.06.72-8.45-.14-12.66-.53-6.46-.61-12.89-1.52-19.34-2.13-1.61-.15-3.32.21-4.92.59-10.87 2.56-21.61 5.54-33.03 4.86-5.28-.32-10.57-.2-15.4-2.51-8.73-4.18-17.93-2.4-27.02-2.71-11.35-.39-21.59 2.37-31.08 8.59-4.26 2.8-8.99 4.26-14.35 2.98-8.33-1.98-16.64-1.35-24.77 1.25-8.22 2.63-16.35 1.36-24.51-.28-8.32-1.66-16.66-3.21-25-4.81-.11-.02-.22-.03-.33-.05-4.38-.77-14-12.06-13.27-16.08.39-2.16 1.38-4.61 2.92-6.08 6.8-6.48 13.86-12.7 20.93-18.9 1.1-.96 2.68-1.58 4.14-1.88 11.83-2.39 23.67-4.75 35.54-6.92 1.96-.36 4.34-.28 6.11.51 7.33 3.27 14.98 2.64 22.45 1.72 15.31-1.88 30.5-4.68 45.8-6.54 7.17-.87 14.5-.62 21.75-.56 15.1.13 30.22.98 45.3.57 10.58-.29 21.12-2.12 31.67-3.36 10.66-1.25 21.34-2.42 31.95-4.04 3.89-.59 7.59-2.43 11.42-3.55 3.38-.99 6.81-2.43 10.25-2.53 13.26-.37 26.37 1.17 39.11 4.98 11.33 3.39 18.63 12.94 19.32 24.8.06 1.01-.13 2.39-.77 3.02-9.96 9.69-20.76 18.08-34.76 21.14-1.95.41-3.96.6-6.56.99z"/><path d="m41.5 147.77c0-5.63-.08-11.11.08-16.58.03-.85.98-1.91 1.78-2.47 3.41-2.34 6.88-4.61 10.42-6.74 1.19-.71 2.64-1.18 4.01-1.33 3-.32 6.03-.5 9.04-.51 8.83-.01 17.26-1.88 25.56-4.77 3.68-1.28 7.53-2.2 11.37-2.81 5.34-.84 10.46-1.3 15.94 1.17 4.83 2.17 10.61 2.65 16.03 3.01 15.73 1.05 31.49 2.06 47.25 2.25 6.6.08 13.25-1.83 19.85-2.98 25.88-4.52 51.75-9.13 77.64-13.61 2.4-.42 4.91-.21 7.37-.22 10.86-.02 21.72-.07 32.58.07 1.51.02 3.25.7 4.46 1.64 5.49 4.24 10.62 8.96 16.27 12.95 5.49 3.87 6.91 12.09 4.39 17.91-3.86 8.92-10.28 14.16-19.18 16.77-9.55 2.79-19.16 5.39-29.34 3.83-2.02-.31-4.31-.04-6.26.59-4.69 1.52-9.17 1.53-13.6-.74-2.32-1.19-4.58-1.2-7.04-.14-9.92 4.28-20.49 5.05-31.12 5.83-12.82.94-25.58 2.89-38.42 3.54-8.67.44-17.41-.61-26.11-.95-1.88-.07-4.07-.55-5.61.2-7.09 3.44-14.35 2.67-21.62 1.36-6.11-1.1-11.99-.82-17.72 1.61-9.13 3.88-18.24 2.64-27.21-.37-8.46-2.84-16.89-5.85-25.14-9.26-10.51-4.34-21.18-7.77-32.58-8.63-.97-.07-1.93-.38-3.09-.62zm235.93-35.96c2.32 4.25 5.06 6.98 8.88 7.74 3.76.75 7.78 1.08 11.56.63 8.39-1.02 16.47-1.11 24.05 3.36.56.33 1.86.13 2.32-.33.38-.38.35-1.94-.04-2.2-2.13-1.48-4.32-3.55-6.69-3.87-5.39-.72-10.91-.77-16.37-.67-6.56.12-12.9-.57-18.98-3.14-1.27-.55-2.65-.87-4.73-1.52z"/></g></svg>