<svg enable-background="new 0 0 400 400" viewBox="0 0 400 400" xmlns="http://www.w3.org/2000/svg"><path d="m120.52 137.59c33.19 1.18 56.13 1.52 79 3.02 10.17.67 20.19 3.68 30.28 5.64 1.43.28 2.89.47 4.26.92 5.27 1.73 10.11 1.35 14.95-1.73 1.64-1.04 4.3-.77 6.47-.67 17.43.78 34.84 1.89 52.28 2.44 12.51.4 25.05-.07 37.57.24 4.3.1 8.74.84 12.81 2.21 7.46 2.51 8.6 10.55 2.55 15.63-11.34 9.52-24.49 14.41-39.2 14.22-19.57-.25-39.12-1.28-58.69-1.65-17.89-.34-35.81.12-53.69-.49-10.13-.35-20.2-2.45-30.33-3.21-10.92-.81-21.88-1.18-32.83-1.35-22.6-.34-45.21-.23-67.81-.76-4.91-.11-9.8-2.01-14.65-3.28-12.43-3.26-24.8-6.78-37.27-9.84-3.38-.83-3.02-3.3-3.32-5.35-.16-1.1.85-2.89 1.87-3.58 9.6-6.58 20.58-9.45 31.93-10.03 24.67-1.26 49.38-1.87 63.82-2.38z" fill="#010102"/><path d="m29.35 236.81c8.11-1.67 15.99-4.07 24.03-4.79 16.25-1.46 32.57-2.58 48.88-2.81 22.25-.32 44.51.29 66.77.55 21.82.26 43.63.57 65.45.88 24.95.36 49.9.42 74.83 1.24 15.3.5 30.58 2 45.83 3.46 3.89.37 7.86 1.84 11.38 3.62 5.01 2.54 6.7 8 4.66 13.26-.38.99-1.44 1.95-2.43 2.44-9.99 5.02-20.78 6.95-31.78 7.35-20.06.73-40-.51-59.86-3.69-6.11-.98-12.51-.32-18.76-.12-24.15.76-48.27 1.34-72.43-.06-12.94-.75-25.95-.33-38.93-.41-23.41-.14-46.68-1.97-69.89-5.12-7.59-1.03-15.41-.63-23.12-.45-6.78.16-13.06-1.04-19.06-4.24-3.02-1.61-4.98-3.56-4.97-7.14 0-.98-.29-1.98-.6-3.97z" fill="#010102"/><g fill="#fafbfa"><path d="m6.4 11.7c-1-.8-1.9-1.6-2.9-2.3l.6-.7c.9.7 1.9 1.4 2.9 2.2zm-2.1 8.3c.7-2.1 1.4-4.2 2-6.4.2.1.6.3 1 .4-.7 2.3-1.3 4.4-1.9 6.4zm3-12.8c-1.1-.9-2.1-1.7-2.9-2.4l.6-.7c1 .8 2 1.5 3 2.4zm1.4-1.3v-.9h10.2v.9c-.9 4.2-2.3 7.3-4.1 9.4 1.3 1.4 3.2 2.7 5.7 4-.2.2-.4.5-.7.9-2.5-1.4-4.4-2.7-5.7-4.2-1.4 1.5-3.5 3-6.1 4.4 0 0 0 0-.1-.1-.3-.4-.5-.7-.7-.8 2.7-1.3 4.7-2.8 6.2-4.2-1.8-2.2-3-5.3-3.7-9.4zm9.2 0h-7.1c.6 3.8 1.7 6.7 3.4 8.7 1.7-2 2.9-4.8 3.7-8.7z"/><path d="m31.6 3.6h.9v2.3h4.1v9.1h1.7v.9h-16.6v-.9h1.7v-9.1h4.1v-2.3h.9v2.3h3.1v-2.3zm-4 13.3.6.8c-1.9.9-3.8 1.9-5.8 2.8-.2-.3-.3-.6-.5-.9 2-.9 3.9-1.8 5.7-2.7zm-3.2-10.1v3.7h3.1v-3.7zm0 4.5v3.7h3.1v-3.7zm4.1-4.5v3.7h3.1v-3.7zm0 4.5v3.7h3.1v-3.7zm9.1 9.1c-2.1-1.1-4.1-2-5.8-2.7l.5-.8c2.2.9 4.1 1.8 5.8 2.6zm-1.9-13.6h-3.1v3.7h3.1zm-3.2 4.5v3.7h3.1v-3.7z"/></g></svg>