<svg enable-background="new 0 0 400 400" viewBox="0 0 400 400" xmlns="http://www.w3.org/2000/svg"><path d="m32.2 267.4c13.2-4.9 23.5-13.4 33.9-21.7 1.5-1.2 3.3-2.2 5.1-2.9 7.3-2.6 14.5-5.3 21.9-7.3 5.7-1.5 11.6-2.5 17.5-2.7 9.8-.3 19.3-1.7 28.3-5.9 2.9-1.3 6.5-2 9.8-1.9 18.5.6 36.8-.7 54.9-3.9 16.9-3 33.9-2.2 50.9-1.7 1.6 0 3.2.1 4.8 0 4.3-.1 8.3.5 11.4 4.1.7.9 2.4 1.3 3.6 1.3 3.3.2 6.6.2 9.8 0 4.5-.3 8.6.3 12 3.5.7.7 2.1 1 3.2 1 9.4.1 18.8.1 28.3 0 1 0 2.1-.2 3.1-.6 8.5-3.7 17.3-3.8 26.1-2.4 1.3.2 2.8 1.5 3.5 2.7 2.4 3.8 3.2 7.9 1.8 12.4-.9 2.9-.7 6.1-1.7 9-1.1 3.4-3 6.7-4.5 10-1.7 3.8-4.6 6.3-8.3 8.3-6.5 3.4-13 6.8-19 10.9-5.9 4-12.3 4.5-19 4.2-21.3-1.2-41.6-7-62-12.6-3.6-1-7.1-2-10.6-3.3-4.3-1.6-8.6-2.2-13.3-1.8-5.3.5-10.7 0-16-.5-12.6-1.1-25.1 0-37.7 1.1-11 .9-22.2.8-33.3 1.2-2.4.1-4.7.7-7.1 1.3-5 1.2-10.2 2.2-15 3.9-7.8 2.8-15.3 6.6-23.2 9.3-14 4.7-28.5 7-43.3 7.3-1.6 0-3.2-.1-4.7-.4-6.6-1.3-9.7-4.5-10.6-11.2-.4-3.5-.4-7.1-.6-10.7z"/><path d="m321.4 132.7c-2.9 3.2-5.6 6.4-8.6 9.4-.7.7-2.1.9-3.1.9-5.8-.3-11.6-1.1-17.4-1.2-4.2-.1-8.4.5-12.5.9-2.4.2-4.8.8-7.2 1.2-2.9.4-5.5.8-7.8-2.2-1-1.3-4.3-2-6-1.4-10.5 4-20.6 1.5-31-.6-9.5-1.9-19.5-1.7-29.3-2.2-6-.3-12.1-.6-18.1-.5-3.2.1-6.5.8-9.6 1.8-3.7 1.2-7.3 2-11.2.7-.7-.2-1.7-.3-2.1 0-5 3.9-11.1 4.6-17.1 5.2-11.3 1.1-21.5 6.1-32.3 9-12.8 3.4-25.6 4-38.6 1.5-1-.2-1.9-.9-2.8-1.3-2.7-1.4-5.2-3.2-8-4.3-2.7-1.1-4.1-2.9-4.2-5.7-.1-4.2.6-7.9 4.4-10.9 3.1-2.5 5.9-5 10.2-4.7 4.4.3 7.6-2.3 10.9-4.5 3.8-2.6 7.7-4.1 12.4-3.5 6.1.8 11.5-.9 16.9-3.8 2.9-1.5 6.7-1.4 10.2-1.6 18.5-1 37-2.3 55.5-2.6 8.6-.1 17.2 2 25.8 2.6 7.6.6 14.3 3.1 21 6.5 2.8 1.4 6.5 1.4 9.9 1.4 19.8.4 39.6.5 59.3 1 6 .1 12 .8 17.9 1.8 4.9.6 9.2 3 12.5 7.1z"/></svg>