<svg viewBox="0 0 400 400" xmlns="http://www.w3.org/2000/svg"><rect width="400" height="400" fill="white" /><path d="m24.28 250.87c-2.33-10.46-3.55-7.43 5.45-11.96 9.5-4.79 19.91-6.51 30.45-7.45 7.91-.71 15.8-1.89 23.72-2.12 11.96-.34 23.93-.1 35.9.03 11.86.13 23.71.45 35.57.64 32.89.54 65.78 1.04 98.66 1.58 18.79.31 37.6.26 56.37 1.13 15.96.74 31.96 2.2 47.24 7.38 3.91 1.32 7.5 3.89 10.86 6.39 1.71 1.27 2.58 3.67 4.37 6.36-116.89-.64-232.67 1.21-348.59-1.98z" fill="#010102"/><path d="m357.8 162.12c-16.62 4.94-32.55 6.44-48.77 5.7-18.48-.84-36.81.42-55.18 2.84-18.71 2.47-37.58 4.01-56.43 5.04-24.81 1.35-49.68 1.27-74.36-2.28-18.58-2.67-36.76-.18-54.99 3.02-12.63 2.22-24.96.89-36.66-4.71-1.73-.83-4.03-5.32-3.44-7 .21-.6 1.01-1.1 1.65-1.43 6.15-3.22 12.78-4.68 19.67-4.94 12.84-.49 25.68-.82 38.52-1.38 27.26-1.2 54.51-2.49 81.77-3.77 31.39-1.47 62.76-3.62 94.16-4.26 23-.47 46.05.84 69.06 1.76 6.79.27 13.55 1.99 19.34 5.93 1.94 1.32 3.44 3.3 5.66 5.48z" fill="#010102"/><g fill="#fafbfa"><path d="m6.4 11.7c-1-.8-1.9-1.6-2.9-2.3l.6-.7c.9.7 1.9 1.4 2.9 2.2zm-2.1 8.3c.7-2.1 1.4-4.2 2-6.4.2.1.6.3 1 .4-.7 2.3-1.3 4.4-1.9 6.4zm3-12.8c-1.1-.9-2.1-1.7-2.9-2.4l.6-.7c1 .8 2 1.5 3 2.4zm1.4-1.3v-.9h10.2v.9c-.9 4.2-2.3 7.3-4.1 9.4 1.3 1.4 3.2 2.7 5.7 4-.2.2-.4.5-.7.9-2.5-1.4-4.4-2.7-5.7-4.2-1.4 1.5-3.5 3-6.1 4.4 0 0 0 0-.1-.1-.3-.4-.5-.7-.7-.8 2.7-1.3 4.7-2.8 6.2-4.2-1.8-2.2-3-5.3-3.7-9.4zm9.2 0h-7.1c.6 3.8 1.7 6.7 3.4 8.7 1.7-2 2.9-4.8 3.7-8.7z"/><path d="m31.6 3.6h.9v2.3h4.1v9.1h1.7v.9h-16.6v-.9h1.7v-9.1h4.1v-2.3h.9v2.3h3.1v-2.3zm-4 13.3.6.8c-1.9.9-3.8 1.9-5.8 2.8-.2-.3-.3-.6-.5-.9 2-.9 3.9-1.8 5.7-2.7zm-3.2-10.1v3.7h3.1v-3.7zm0 4.5v3.7h3.1v-3.7zm4.1-4.5v3.7h3.1v-3.7zm0 4.5v3.7h3.1v-3.7zm9.1 9.1c-2.1-1.1-4.1-2-5.8-2.7l.5-.8c2.2.9 4.1 1.8 5.8 2.6zm-1.9-13.6h-3.1v3.7h3.1zm-3.2 4.5v3.7h3.1v-3.7z"/></g></svg>