<svg enable-background="new 0 0 400 400" viewBox="0 0 400 400" xmlns="http://www.w3.org/2000/svg"><g fill="#fbfafc"><path d="m12.4 4.8-6.1 9h6v1.2h-8v-.5l6.1-8.9h-5.7v-1.2h7.6v.4z"/><path d="m14 15v-10.6h3c1.6 0 2.9.5 4 1.4s1.6 2.2 1.6 3.8-.5 3-1.6 3.9-2.4 1.5-4 1.5zm1.4-9.4v8.2h1.6c1.3 0 2.4-.4 3.1-1.1s1.1-1.8 1.1-3.1-.4-2.3-1.2-3-1.8-1-3.1-1z"/><path d="m26.1 4.4v10.6h-1.4v-10.6z"/><path d="m36.1 14.6c-.8.4-1.8.6-2.9.6-1.5 0-2.7-.5-3.6-1.4s-1.4-2.2-1.4-3.8c0-1.7.5-3.1 1.5-4.1s2.3-1.6 3.9-1.6c1 0 1.8.1 2.5.4v1.4c-.8-.4-1.6-.6-2.5-.6-1.2 0-2.1.4-2.9 1.2s-1.1 1.8-1.1 3.2c0 1.3.3 2.3 1 3s1.6 1.1 2.7 1.1c1 0 2-.2 2.7-.7v1.3z"/><path d="m37.6 14.3c0-.2.1-.5.3-.6s.4-.3.6-.3c.3 0 .5.1.6.3s.3.4.3.6-.1.4-.3.6-.4.3-.6.3c-.3 0-.5-.1-.6-.3s-.3-.4-.3-.6z"/><path d="m50.2 15h-1.6l-5.3-8.2c-.2-.2-.3-.5-.4-.7 0 .2.1.7.1 1.5v7.4h-1.4v-10.6h1.7l5.2 8.1c.2.4.4.6.4.7 0-.3-.1-.8-.1-1.5v-7.3h1.4z"/><path d="m58.6 15h-5.7v-10.6h5.5v1.2h-4.1v3.4h3.8v1.2h-3.8v3.6h4.3z"/><path d="m67.1 5.6h-3.1v9.4h-1.4v-9.4h-3v-1.2h7.5z"/></g><path d="m102.3 85.37c2.82 6.67 5.47 13.39 8.48 19.94 3.12 6.79 6.39 13.52 9.99 20.06 2.12 3.86 3.15 7.55 2.75 12.04-.97 10.81-1.49 21.66-2 32.5-.24 5.11-.04 10.25-.04 16.02 7.41-1.43 14.19-.46 20.47-4.17 7.56-4.48 16.3-5.19 24.85-6.32 6.4-.84 12.41-2.7 17.6-6.81 3.16-2.5 4.72-5.73 3.44-9.43-2.03-5.88-4.26-11.78-7.19-17.25-7.5-14.06-11.8-28.97-12.57-44.83-.25-5.22.05-10.59 1.09-15.69.41-2.02 3.27-4.05 5.47-5.04 1.77-.8 6.45 3.61 7.05 5.91.11.43.18.89.18 1.33-.17 8.38 2.85 15.94 5.82 23.55 2.96 7.6 6.01 15.19 8.48 22.95 3.11 9.78 10.13 17.02 15.55 25.3.43.66 1.75 1.22 2.54 1.1 2.94-.46 6.51-.35 8.62-2.01 10.24-8.01 22.56-9.86 34.59-12.68 12.73-2.99 25.5-5.85 38.19-8.98 6.28-1.55 12.44-3.59 18.68-5.34 1.28-.36 2.64-.47 3.97-.54 2.43-.14 4.6.58 5.37 3.08.79 2.55 1.56 5.57-.96 7.47-4.61 3.47-9.21 7.25-14.4 9.61-9.92 4.5-19.52 9.41-28.22 16-.79.6-1.66 1.21-2.59 1.51-11.6 3.71-23.16 7.54-34.84 10.94-4.58 1.33-9.46 1.66-14.19 2.48-1.21.21-2.41.47-3.59.8-6.67 1.89-6.63 2.37-4.46 8.9 4.05 12.18 10.25 22.88 19.24 32.16 6.06 6.26 11.37 13.24 17.09 19.84 1.16 1.34 2.56 2.49 3.94 3.61 8.94 7.26 17.9 14.49 27.07 21.9 3.92-6.46 7.47-13.34 11.99-19.51 6.59-9.01 9.46-19.06 10.3-29.93.06-.78.17-1.56.3-2.33 1.03-6.05 3.86-7.72 9.81-5.96 1.9.56 2.91 1.51 3.48 3.51 3.77 13.32 1.85 26.14-3.15 38.72-3.45 8.67-7.87 16.77-13.66 24.14-7.31 9.3-7.25 10.32.18 19.35 1.47 1.79 3.2 3.44 5.05 4.85 6.47 4.98 12.96 9.96 19.63 14.67 2.3 1.62 2.82 3.29 2.37 5.89-.95 5.55-1.98 6.63-7.71 6.4-5.06-.19-9.6-2.03-13.53-5.21-8.01-6.47-16.02-12.94-23.92-19.54-1.74-1.45-3.09-1.84-4.95-.41-3.27 2.52-6.5 5.13-9.96 7.36-11.03 7.1-22.9 7.46-35.14 3.85-.69-.2-1.61-1.04-1.69-1.67-.33-2.89-.54-5.81-.45-8.7.02-.66 1.34-1.66 2.2-1.84 6.43-1.39 12.9-2.65 19.36-3.89 1.86-.36 3.79-.4 5.64-.79 3.78-.78 5.98-3.21 6.6-7.07 1.62-10.12-4.81-20.53-14.54-23.53-2.26-.7-4.04-.61-5.9 1.52-9.09 10.42-21.23 15.74-34.09 19.71-12.44 3.84-25.1 6.24-38.18 6.84-6.2.28-12.39 1.81-18.46 3.28-11.68 2.84-23.45 2.97-35.32 2.11-1.56-.11-3.19.18-4.69-.15-5.39-1.15-9.01 1.22-12.35 5.2-6.21 7.4-10.59 15.76-13.79 24.77-4 11.27-7.66 22.66-11.87 33.85-1.51 4-3.87 7.8-6.43 11.26-2.83 3.83-7.49 4.64-11.79 2.6-.95-.45-1.81-1.61-2.17-2.64-1.45-4.13-.47-8.17.9-12.13 6.23-17.94 12.96-35.72 18.57-53.85 3.92-12.67 6.31-25.81 9.42-38.73.84-3.48 1.54-7.01 2.72-10.37 3.72-10.55 5-21.49 5.87-32.55 1.99-25.55 4.44-51.06 6.07-76.63.36-5.59-1.71-11.39-3.05-17.01-2.49-10.43-5.28-20.79-7.9-31.19-.3-1.18-.42-2.43-.45-3.65-.3-10.58-1.03-8.31 9.21-10.51zm141.51 164.74c-3.73-4.32-6.78-8.72-10.71-12.09-2.53-2.17-6.58-4.34-9.54-3.87-8.17 1.28-16.64 2-24.07 6.48-5.56 3.35-11.37 6.33-18.06 6.66-6.14.31-12.29.53-18.43.69-6.04.16-12 .28-17.34 3.91-1.53 1.04-3.82 1.07-5.79 1.32-4.55.58-9.12.95-13.67 1.53-6.72.86-12.24 4.6-15.96 9.65-2.11 2.87-1.91 7.91-1.69 11.91.27 4.72 1.65 6.29 6.14 5.89 3.56-.32 7.15-.13 10.73-.29 17.8-.8 35.44-2.58 52.62-7.7 2.11-.63 4.38-.86 6.59-.99 5.91-.33 11.91.05 17.73-.84 16.1-2.46 28.77-11.61 41.45-22.26zm-125.19-13.78c32.96-.68 64.35-5.65 92.76-23.63-2.5-7.59-6.34-14.12-11.99-19.57-1.89-1.82-4.04-2.06-6.5-1.47-3.15.75-6.36 1.24-9.52 1.96-8.68 2-17.69 3.18-25.94 6.32-10.34 3.94-20.64 7.82-31.4 10.41-2.39.58-4.8 1.11-7.09 1.98-.84.32-1.93 1.56-1.89 2.33.39 7.02.99 14.03 1.57 21.67z" fill="#000001"/><path d="m252.59 91.36c.12-20.01.22-40.01.35-60.02.02-2.89 3.86-6.42 6.88-6.31 1.45.05 2.95.12 4.31.55.86.27 1.97 1.1 2.19 1.89 3.54 12.81 6.97 25.66 10.36 38.51.24.9.19 2.02-.13 2.89-1.96 5.31-4.01 10.58-6.08 15.85-.86 2.18-1.86 4.3-2.76 6.46-.34.82-.55 1.7-.86 2.54-1.69 4.59-7.01 8.03-11.26 7.28-1.93-.34-4.01-5.4-3.95-9.65.31 0 .63.01.95.01z" fill="#000001"/></svg>