<svg enable-background="new 0 0 400 400" viewBox="0 0 400 400" xmlns="http://www.w3.org/2000/svg"><path d="m144.61 202.62c-1.06-3.7-5.88-7.23.15-10.56-4.51-4.13-4.67-5.44-2.96-11.03.62-2.04.67-4.55.1-6.61-2.59-9.3-1.41-18.64-.93-28.02.44-8.69.45-17.4.56-26.11.06-4.7.48-9.2 4.75-12.24 1.1-.78 2.16-1.6 3.38-2.51-1.42-2.11-2.35-3.62-3.41-5.02-1.03-1.36-1.62-2.61-.26-4.14.39-.44.77-1.48.54-1.78-3.85-5.08.42-9.31 1.17-13.98h3.43c.09-1.4.88-3.57.17-4.34-3.39-3.64-3.28-8.12-3.88-12.53-.68-4.93.25-8.8 5.56-10.48.38-.12.66-.52 1.19-.96-4.47-4.58-2.52-9.02.14-13.45 2.07-3.44 4.41-6.75 3.41-11.19-.14-.6.78-1.87 1.47-2.11.64-.23 1.86.27 2.4.85 3.31 3.55 3.72 10.97.71 16.48-2.02 3.7-2.43 7.52-2.37 11.63.06 4.31 1.57 7.2 5.78 8.61 2.71.91 5.04 2.26 3.15 6.01 1.65 0 2.99.2 4.26-.04 4.24-.79 8.02-.12 11.83 2.11 4.27 2.5 8.3.53 9.19-4.29.44-2.39-.01-4.94.02-7.42.01-.97.08-1.98.38-2.88.83-2.55 1.97-5 2.68-7.58 1.09-3.98 2.83-7.03 7.25-8.24 1.12-.31 1.79-2.63 2.45-4.12.57-1.3.84-2.74 1.47-4.9 3.24 4.95 3.45 9.41 2.72 13.98-.35 2.2-.78 4.44-1.56 6.51-4.58 12.24-4.38 25.26-6.2 37.94-1.68 11.73-3.02 23.51-4.5 35.27-.06.44-.16.91-.08 1.33 1.25 6.79.18 13.33-1.92 19.8-.26.79-.06 1.77.11 2.63.79 4.08 1.78 8.17-2.13 12.12 5.49.91 4.9 4.83 5.26 8.35.75 7.34 1.62 14.67 2.39 21.6-1.62 1-3.05 1.88-5.12 3.16 3.53 3.36 6.55 6.18 9.51 9.05 3.54 3.44 5.01 7.82 5.72 12.58.41 2.76-.38 4.17-3.35 4.43-1.04.09-1.99 1.22-2.99 1.87.86.73 1.61 1.78 2.6 2.12 1.66.57 3.48.7 5.24 1.01 3.03.54 5.03 2.2 5.87 5.24 1.67 6.03 3.4 12.05 5.11 18.07.12.43.48.98.33 1.27-1.91 3.84 1.37 5.48 3.24 7.67 1.74 2.04 3.53 4.06 5.44 5.94 3.1 3.04 5.15 6.13 5.09 10.99-.04 3.14 2.45 6.33 3.88 9.46.97 2.13 2.06 4.22 3.33 6.79-.78.43-1.66.91-2.52 1.39 1.13 1.65 1.95 2.84 2.72 3.97-1.44 1.4-2.84 2.76-4.38 4.26 4.01 3.82 12.42 2.7 10.58 11.31-3.81-1.65-7.53-3.02-10.97-4.9-1.23-.67-2.3-2.47-2.56-3.92-.53-2.89-1.74-5.07-3.85-7.14-1.79-1.77-2.86-4.27-4.9-7.47-3.61-.45-9.14-2.63-13.69-1.35-7.33 2.08-13.63-1.31-20.63-1.01-.09-1.29-.15-2.25-.22-3.22-.22-3.05-3.48-5.03-5.68-3.05-5.01 4.5-11.6 3.59-17.14 6-2.44-5.42-3.97-5.96-10.49-3.54 3.34 3.48 4.83 8.75 11.08 8.39 1.03-.06 2.55 1.02 3.12 2 1.74 2.98 3.53 6.04 4.54 9.31 1.56 5.09 4.65 9.02 7.9 13.05 2.18 2.71 3.57 6.05 5.4 9.06 1.03 1.7 2.13 3.39 3.4 4.92 2.15 2.58 4.7 4.85 6.63 7.57 1.62 2.28 2.59 5.02 4.01 7.87-3.9 1.34-7.94.7-10.3 4.75 4.22.39 8.04.82 11.88 1.07 2.62.17 4.93.98 6.26 3.27 3.18 5.48 6.27 11.02 9.14 16.66.45.88 0 2.84-.75 3.58-1.48 1.46-2.51.15-3.73-1.1-2.47-2.54-5.31-4.71-7.97-7.07-3.57-3.16-7.46-6.05-10.62-9.59-7.06-7.91-13.85-16.08-20.54-24.31-2.16-2.65-3.78-5.77-5.45-8.78-2.65-4.77-5.32-9.55-7.62-14.5-1.05-2.27-1.13-4.96-1.86-7.4-.31-1.04-.92-2.27-1.78-2.83-5.68-3.72-8.63-8.93-9.07-15.66-.08-1.2.08-2.69-.55-3.55-4.07-5.6-4.59-12.25-5.83-18.69-2.43-12.62-5.01-25.21-7.27-37.86-.78-4.38-.87-8.9-1.13-13.37-.26-3.92-.17-3.93 3.07-6.46zm15.78-97.63c-2.79 2.04-5.46 3.2-6.06 6.98-2.32 14.48-4.33 28.95-3.61 43.69.28 5.58 0 11.19.07 16.78.03 2.12.27 4.23.52 6.34 1.23 10.32 2.41 20.64 3.79 30.94 1.54 11.51 3.29 23 4.92 34.5.29 2.01 1.14 3.04 3.38 3.33 4.43.56 8.77 1.93 13.2 2.24 4.52.31 7.26 2.05 8.07 6.57.02.14.33.22.5.33 4.63-4.78 4.64-4.94 12.01-4.17 4.15.44 8.49.91 12.28 2.49 2.62 1.09 4.68 1.42 7.38.53-.09-1.15-.17-2.21-.22-2.96-1.62-.58-3.51-.67-3.97-1.52-1.96-3.7-5.6-7.01-3.74-11.9.81-2.11.29-3.64-1.56-4.86-2.75-1.81-4.02-4.52-5.03-7.61-3.11-9.56-6.29-19.1-9.84-28.5-1.5-3.97-1.92-7.11 1.95-9.82.58-.4 1.05-1.91.75-2.4-.4-.64-1.61-1.1-2.47-1.09-4.56.04-5.5-.76-5.56-5.24-.23-18.57-.45-37.13-.66-55.7-.02-1.58 0-2.81-1.85-3.78-8.47-4.4-17.84-7.36-24.25-15.17zm33.82-12.27c-1.23-1.6-3.21-3.05-3.06-4.22.33-2.58-.56-4.49-2.43-5.39-3.66-1.77-7.61-2.94-11.42-4.41-2.04-.79-4.04-1.68-6.06-2.51-3.15-1.29-6.23-2.84-9.49-3.76-2.55-.72-4.23.78-4.62 3.48-.39 2.65-.41 5.44-1.27 7.93-1.67 4.88.28 8.53 3.45 11.75 1.61 1.63 3.72 2.81 5.71 4.03 4.37 2.69 8.89 5.15 13.19 7.94 5.77 3.74 10.07 3.09 14.44-2.49-3.26-5.15-2.89-7.66 1.56-12.35zm20.63 189.26c3.28-1.67 6.31-3.11 9.22-4.75 1.04-.59 2.71-1.97 2.54-2.43-.47-1.27-1.63-2.38-2.72-3.32-1.41-1.22-3.43-1.91-4.45-3.36-2.39-3.37-5.62-4.33-9.36-3.96-3.31.33-5.97-.65-8.03-3.16-1.52-1.86-3.09-1.58-5.07-.8-1.64.65-3.49.95-5.26 1.01-2.1.07-4.25-.14-6.33-.5-4.35-.73-8.69-1.53-12.98-2.52-2-.47-5.3.58-5.42 2.37-.39 5.43-.54 10.87-.79 16.36 1.21.22 1.96.39 2.73.49 3.61.46 6.86-.61 10.34-1.54 4.98-1.33 10.42-1.27 15.65-1.17 2.23.05 4.66 1.39 6.59 2.72 2.15 1.49 3.72 2.37 6.18.46 1.84-1.42 4.03-1.01 5.47 1.15.53.85.99 1.73 1.69 2.95zm-2-38.05c4.33-.92 5.09-2.7 3.11-7.86-.77 2.99-5.11 4-3.11 7.86zm13.13 16.81c-.85 1.4-2.09 2.55-1.89 3.36.26 1.05 1.53 2.31 2.59 2.57.76.19 1.89-1.1 3.02-1.84-1.32-1.46-2.21-2.43-3.72-4.09zm-42.31 55.28c-.51.19-1.01.38-1.52.57.55 1.79 1.1 3.59 1.64 5.38.54-.18 1.07-.35 1.61-.53-.58-1.8-1.16-3.61-1.73-5.42z" fill="#010102"/><g fill="#fcfbfa"><path d="m385.2 377.6.6-.7c.6.4 1.3.9 1.9 1.5l-.6.7c-.8-.5-1.4-1-1.9-1.5zm.3 7.1c.6-1.4 1.1-2.9 1.5-4.5.3.1.6.3.9.4-.5 1.4-1 2.9-1.5 4.4zm.2-10.1.6-.6c.7.5 1.3 1.1 1.9 1.6l-.7.7c-.6-.6-1.2-1.2-1.8-1.7zm8.4-.8h.8v.9h1.8v.7h-1.8v1.8h-.8v-.3h-1.2v.9h3.3v2.6h-.8v-.4h-2.5c0 .3 0 .6-.1.8h3.4v.7h-3.5c0 .3-.1.6-.1.8h4v.7h-3.5c.7.9 1.9 1.3 3.6 1.5-.2.2-.4.5-.6.9-1.9-.3-3.2-1.1-3.8-2.3-.5 1.1-1.8 2-3.9 2.4-.2-.3-.4-.5-.6-.8 1.9-.4 3.1-.9 3.6-1.7h-3.2v-.7h3.5c.1-.2.1-.5.2-.8h-3.3v-.7h3.4c0-.2 0-.5 0-.8h-2.4v.3h-.8v-2.6h3.3v-.9h-1.2v.3h-.8v-1.8h-1.8v-.7h1.8v-.9h.8v.9h3.2zm-4.4 5.5h2.4c0-.3 0-.6 0-.9h-2.4zm1.2-3.1h3.2v-.8h-3.2zm4.4 2.2h-2.4v.9h2.5v-.9z"/><path d="m389.2 385.8h.9v1.5h1.9v-1.5h.9v1.5h2.7v6h1.1v.9h-11.3v-.9h1.1v-6h2.7zm.2 8.7.5.8c-1.2.6-2.5 1.3-4 1.9-.2-.3-.3-.6-.6-.8 1.6-.6 3-1.3 4.1-1.9zm-2-4.3h1.9v-2.1h-1.9zm0 3.1h1.9v-2.2h-1.9zm2.7-3.1h1.9v-2.1h-1.9zm0 3.1h1.9v-2.2h-1.9zm2.4 1.3c1.4.6 2.7 1.2 4.1 1.8l-.5.9c-1.5-.7-2.8-1.4-4.1-1.9zm2.2-6.5h-1.9v2.1h1.9zm-1.9 5.2h1.9v-2.2h-1.9z"/></g></svg>