<svg enable-background="new 0 0 400 400" viewBox="0 0 400 400" xmlns="http://www.w3.org/2000/svg"><path d="m374.8 390.4.4-.4c.7.5 1.3 1 1.8 1.4l-.5.5c-.5-.6-1.1-1.1-1.7-1.5zm1 7.3-.6-.3c.5-1.4 1.1-2.8 1.5-4.3.2.1.4.2.6.3-.5 1.3-1 2.8-1.5 4.3zm-.4-10.3.4-.4c.4.3 1 .8 1.7 1.4l-.5.5c-.4-.5-1-1-1.6-1.5zm2.5.3h1.7v-1h.6v1h3.5v-1h.6v1h1.8v.5h-1.8v1.4h-2v1h3.2v2h-3.2v.9h3.3v.5h-3.4c0 .3-.1.6-.1.9h4v.5h-3.7c.7.9 1.9 1.5 3.8 1.7-.1.2-.2.4-.3.6-2.1-.4-3.5-1.1-4-2.1-.4 1-1.8 1.7-4 2.2-.1-.2-.2-.4-.3-.6 2.1-.4 3.4-1 3.8-1.8h-3.4v-.5h3.6c.1-.3.1-.6.2-.9h-3.3v-.5h3.4c0-.3 0-.6 0-.9h-3.2v-2h3.3v-1h-2.1v-1.4h-1.7v-.5zm1.1 3.5v1h2.7c0-.3 0-.4 0-.4 0-.1 0-.2 0-.2 0-.1 0-.2 0-.3h-2.7zm1.2-3v.9h3.5v-.9zm4.7 3h-2.6v.6.4h2.6z" fill="#fbfcfa"/><path d="m393.6 386.7h.6v1.5h2.7v6.1h1.1v.6h-11v-.6h1.1v-6.1h2.7v-1.5h.6v1.5h2.1v-1.5zm-2.7 8.8.4.6c-1.2.6-2.5 1.3-3.8 1.9-.1-.2-.2-.4-.3-.6 1.2-.6 2.5-1.2 3.7-1.9zm-2.2-6.7v2.4h2.1v-2.4zm0 3v2.5h2.1v-2.5zm2.8-3v2.4h2.1v-2.4zm0 3v2.5h2.1v-2.5zm6 6.1c-1.4-.7-2.7-1.3-3.9-1.8l.3-.6c1.5.6 2.7 1.2 3.9 1.7zm-1.2-9.1h-2.1v2.4h2.1zm-2.1 3v2.5h2.1v-2.5z" fill="#fbfcfa"/><path d="m245.05 373.28c-4.38 2.81-8.69 2.95-13.16 1.54-9.95-3.13-18.66-8.72-27.02-14.65-12.41-8.79-24.92-17.61-36.34-27.61-8.33-7.3-15.6-16.05-22.26-24.97-15.59-20.89-25.28-44.47-28.73-70.35-2.89-21.73-1.75-43.29 4.57-64.46 2.94-9.85 4.77-20.06 8.22-29.71 3.29-9.21 7.07-18.52 12.35-26.68 10.43-16.14 21.5-31.94 33.29-47.12 14.78-19.02 33.28-33.68 55.87-42.74.8-.32 1.62-.59 2.9-1.05 0 2.55.2 4.77-.09 6.92-.13 1.01-.99 2.2-1.87 2.79-5.29 3.55-10.65 7.01-16.05 10.38-5.2 3.25-6.51 6.92-3.3 12.26 5.42 9 11.26 17.74 16.91 26.59 9.26-5.4 17.36-13.08 29.61-12.65-4.91 7.51-10.55 13.47-16.74 18.96-5.36 4.75-10.77 9.44-16.02 14.3-8.96 8.28-14.03 18.95-18.22 30.14-7.86 20.98-12.52 42.63-14.25 64.97-1.25 16.07 1.66 31.39 7.52 46.27.78 1.98 1.7 3.91 2.3 5.94 3.34 11.22 9.3 21.03 16.44 30.12 2.52 3.21 5.91 5.76 9.01 8.49 6.12 5.41 12.48 10.57 18.42 16.17 5.48 5.17 11.67 8.95 18.74 11.4 4.96 1.72 8.96 4.55 11.14 9.98-3.41 2.27-7.02 3.34-11.16 1.93-6.78-2.31-13.24-5.03-18.98-9.62-6.45-5.16-13.42-9.68-20.29-14.31-1.12-.75-2.91-1.06-4.26-.82-17.28 3.08-34.54 6.28-51.79 9.53-1.08.2-2.04 1.05-3.05 1.6.53.98.86 2.17 1.63 2.91 17.25 16.6 36.36 30.76 56.83 43.12 5.81 3.51 11.72 6.86 17.83 10.43zm-108.71-202.64c-.32.56-.62.91-.75 1.32-3.63 11.79-6.09 23.8-6.91 36.13-.96 14.5.3 28.84 2.91 43.07 2.82 15.36 6.73 30.35 17.05 42.75.64.77 1.23 1.62 1.63 2.53 1.73 3.89 5.01 5.03 8.91 5.31 14.64 1.08 29.01-1.03 43.28-3.9 4.82-.97 9.49-2.67 14.71-4.17-7.35-10.24-14.16-19.66-20.87-29.14-1.01-1.42-1.91-3.07-2.3-4.75-2.56-10.87-4.69-21.86-7.53-32.66-2.2-8.37-2.59-16.71-1.69-25.22.14-1.31.16-2.63.25-4.39-7.41-.05-12.9-4.16-18.62-7.83-9.94-6.36-19.97-12.65-30.07-19.05zm64.2-110.01c-.97 1.03-1.74 1.81-2.47 2.63-22.94 25.7-40.93 54.74-57.11 84.97-3.42 6.39-1.1 14.31 5.48 18.41 3.57 2.22 7.72 3.51 11.45 5.49 5.21 2.78 10.28 5.81 15.41 8.74 2.6 1.48 5.07 3.24 7.8 4.4 3.98 1.68 5.41.6 6.08-3.66 1.87-11.89 2.65-24 7.33-35.34 1.87-4.53 3.26-9.27 4.77-13.95 3.66-11.3 9.05-21.64 16.86-30.63 1.74-2.01 2.11-3.97 1.46-6.45-2.98-11.35-7.91-21.82-14.28-31.62-.7-1.07-1.77-1.91-2.78-2.99z" fill="#010106"/></svg>