<svg enable-background="new 0 0 400 400" viewBox="0 0 400 400" xmlns="http://www.w3.org/2000/svg"><path d="m185.36 373.9c-1.05-3.73.49-5.61 3.4-7.53 25.1-16.51 49.31-34.18 70.3-55.84 8.84-9.13 16.03-19.48 20.03-31.89-9.82-5.7-20.41-8.71-31.23-11.17-22.77-5.16-45.52-10.38-68.27-15.62-1.17-.27-2.28-.9-3.35-1.49-6.95-3.83-13.86-7.74-20.85-11.5-2.15-1.16-4.48-2.05-6.8-2.82-8.26-2.74-9.71-2.44-13.77 5.12-4.79 8.91-10.81 16.61-18.93 22.68-11.43 8.54-19.7 20.08-28.99 30.65-5.45 6.21-10.48 12.88-17.77 17.2-6.47 3.84-13.46 5.26-20.93 4.66-1.89-.15-2.74-.92-3.46-2.81-2.07-5.4-.72-9.32 3.06-13.74 15.98-18.72 31.75-37.63 47.14-56.85 10.7-13.37 20.25-27.57 26.79-43.59 5.12-12.54 8.2-25.47 9-39.01.54-9.04 1.62-18.05 2.35-27.08.13-1.63-.1-3.34-.43-4.96-1.29-6.35-2.57-12.71-4.13-19-.35-1.42-1.58-2.79-2.73-3.8-1.66-1.47-3.71-2.48-5.45-3.88-4.94-3.99-5.84-7.44-3.57-13.98 6.71 1.79 13.4 3.9 20.23 5.31 5.89 1.22 10.29 4.18 14.26 8.56 6.04 6.65 12.1 13.29 15.83 21.53 1.82 4.02 2.65 8.49 3.9 12.76.4 1.37.73 2.77 1.31 5.01 4.16-1.76 8.35-2.83 11.75-5.1 10.9-7.25 21.61-14.78 32.16-22.52 4.74-3.48 9.24-7.41 13.28-11.67 9.63-10.15 19.14-20.42 28.27-31.02 6.83-7.93 11.25-16.96 8.69-28.01-.78-3.35.27-6.52 2.88-8.46 3.99-2.97 8.4-5.4 12.71-7.92.53-.31 1.74.01 2.36.43 10.27 7.02 19.32 15.24 25.44 26.27 2.04 3.67 3.15 7.54 2.98 11.85-.23 5.59-.16 11.2.02 16.79.04 1.23.78 2.78 1.71 3.59 6.83 5.95 13.84 11.71 20.68 17.66.95.83 1.91 2.41 1.82 3.56-.59 7.12 1.24 13.71 3.75 20.23 1.04 2.71 1.68 5.58 2.81 8.24 5.53 13.11 7.69 26.7 6.64 40.9-.41 5.57-.07 11.19-.07 16.79 0 4.66 0 4.66-3.54 7.47 5.15 7.79 3.53 16.08 1.38 24.23-4.91 18.6-12.83 36.05-22.42 52.59-4.55 7.84-11.76 14.09-17.04 21.56-11.54 16.31-27.84 27.37-42.87 39.82-9.99 8.28-19.95 16.65-30.48 24.21-9.55 6.86-19.98 12.33-32.05 13.66-5.32.62-12.64-.14-17.8-2.07zm-19.92-197.15c-3.87 7.42-7.33 14.7-11.39 21.62-3.06 5.22-4.45 10.52-4.07 16.54.16 2.52.89 3.36 3.29 3.89 17.47 3.82 34.9 7.8 52.34 11.73 21.9 4.94 43.96 9.25 64.97 17.52 4.43 1.74 9.21 2.75 13.91 3.64 6.38 1.21 12.35.87 16.73-5.19 2-2.78 4.96-4.85 7.23-7.46.91-1.04 1.62-2.69 1.59-4.04-.14-5.59-.73-11.17-.87-16.75-.07-2.54-1.22-3.35-3.48-3.88-28.04-6.66-56.08-13.34-84.09-20.15-15.37-3.74-31.3-5.49-45.67-12.86-3.26-1.69-6.72-2.97-10.49-4.61zm39.65-19.23c2.37 1.31 3.92 2.58 5.68 3.08 30.1 8.45 60.21 16.87 90.38 25.08 2.87.78 6.26.7 9.18.02 6.1-1.42 6.57-2.33 7.21-8.61.21-2 .49-4 .53-6.01.35-17.73-4.77-33.96-13.78-49.03-4.73-7.92-10.84-14.69-19.02-20.42-1.57 1.82-2.95 3.59-4.5 5.2-7.61 7.91-15.78 14.98-25.47 20.49-16.59 9.46-32.77 19.66-50.21 30.2z" fill="#010104"/><g fill="#fcfbfa"><path d="m385.2 377.6.6-.7c.6.4 1.3.9 1.9 1.5l-.6.7c-.8-.5-1.4-1-1.9-1.5zm.3 7.1c.6-1.4 1.1-2.9 1.5-4.5.3.1.6.3.9.4-.5 1.4-1 2.9-1.5 4.4zm.2-10.1.6-.6c.7.5 1.3 1.1 1.9 1.6l-.7.7c-.6-.6-1.2-1.2-1.8-1.7zm8.4-.8h.8v.9h1.8v.7h-1.8v1.8h-.8v-.3h-1.2v.9h3.3v2.6h-.8v-.4h-2.5c0 .3 0 .6-.1.8h3.4v.7h-3.5c0 .3-.1.6-.1.8h4v.7h-3.5c.7.9 1.9 1.3 3.6 1.5-.2.2-.4.5-.6.9-1.9-.3-3.2-1.1-3.8-2.3-.5 1.1-1.8 2-3.9 2.4-.2-.3-.4-.5-.6-.8 1.9-.4 3.1-.9 3.6-1.7h-3.2v-.7h3.5c.1-.2.1-.5.2-.8h-3.3v-.7h3.4c0-.2 0-.5 0-.8h-2.4v.3h-.8v-2.6h3.3v-.9h-1.2v.3h-.8v-1.8h-1.8v-.7h1.8v-.9h.8v.9h3.2zm-4.4 5.5h2.4c0-.3 0-.6 0-.9h-2.4zm1.2-3.1h3.2v-.8h-3.2zm4.4 2.2h-2.4v.9h2.5v-.9z"/><path d="m389.2 385.8h.9v1.5h1.9v-1.5h.9v1.5h2.7v6h1.1v.9h-11.3v-.9h1.1v-6h2.7zm.2 8.7.5.8c-1.2.6-2.5 1.3-4 1.9-.2-.3-.3-.6-.6-.8 1.6-.6 3-1.3 4.1-1.9zm-2-4.3h1.9v-2.1h-1.9zm0 3.1h1.9v-2.2h-1.9zm2.7-3.1h1.9v-2.1h-1.9zm0 3.1h1.9v-2.2h-1.9zm2.4 1.3c1.4.6 2.7 1.2 4.1 1.8l-.5.9c-1.5-.7-2.8-1.4-4.1-1.9zm2.2-6.5h-1.9v2.1h1.9zm-1.9 5.2h1.9v-2.2h-1.9z"/></g></svg>