<svg enable-background="new 0 0 400 400" viewBox="0 0 400 400" xmlns="http://www.w3.org/2000/svg"><path d="m76.95 309.65c-3.16-7.64-3.27-15.37-2.18-23.02 1.84-12.95 4.35-25.8 6.32-38.74 2.37-15.59 4.58-31.2 6.65-46.83 3.14-23.74 5.8-47.54 9.23-71.23 2.59-17.91 6.24-35.67 9.07-53.55 1.66-10.49.78-20.98-1.76-31.31-.18-.75-.3-1.51-.52-2.61 4.52.13 8.52.22 11.98 3.82 5.5 5.72 11.57 10.89 17.27 16.43 1.2 1.17 1.99 2.87 2.67 4.45.66 1.53.96 3.21 1.36 4.84 1.84 7.5 4.21 14.58 9.07 20.96 5.99 7.87 9.49 17.11 8.66 27.25-.45 5.41-1.87 10.76-3.12 16.07-.33 1.4-1.56 2.67-2.57 3.83-8.06 9.28-14.41 19.56-18.71 31.37 7.65 2.48 15.34 2.75 23.01 1.83 10.88-1.3 21.71-2.99 32.53-4.66 1.29-.2 3.02-1.02 3.54-2.06 2.02-4.04 4.1-8.16 5.32-12.49 2.44-8.7 3.84-17.7 6.56-26.3 3.02-9.55 2.1-18.99 1.02-28.55-2.05-18.08-6.25-35.63-12.77-52.65-2.85-7.45-2.91-13.39-1.33-21.64 4.03 1.45 8.23 2.33 11.8 4.35 14.82 8.36 25.28 20.75 32.15 36.25 3.29 7.42 3 14.72-.68 21.97-1.88 3.7-3.53 7.5-2.8 11.86.38 2.32 1.12 3.63 3.92 3.88 14.26 1.27 28.47 3.05 42.73 4.21 19.38 1.58 31.08 12.78 38.17 29.81 4.12 9.91 6.59 20.16 4.86 31.09-.39 2.46-.03 5.15.5 7.62 1.8 8.38-.12 16.43-1.49 24.6-1.07 6.36-1.11 12.89-2.19 19.25-1.72 10.12-3.1 20.41-6.09 30.19-6.4 20.93-13.74 41.58-20.72 62.34-.28.82-.82 1.58-1.33 2.3-6.18 8.9-12.57 17.66-18.53 26.7-8.52 12.93-19.24 23.34-33.62 29.37-21.76 9.12-43.25 7.26-64.32-2.59-.75-.35-1.55-1.03-1.9-1.76-2.53-5.27-7.03-8.13-12.02-10.69-2.8-1.44-5.16-3.8-7.56-5.92-.93-.82-1.41-2.16-2.41-3.77 4.79.52 8.89.23 12.69 2.99 2.1 1.53 5.2 2.1 7.91 2.32 8.69.7 17.4 1.16 26.11 1.46 8.07.28 15.74-1.54 23.06-4.99 8.89-4.2 17.88-8.2 26.77-12.42 1.42-.68 2.82-1.84 3.71-3.14 7.62-11.19 15.12-22.46 22.66-33.71.5-.74 1.25-1.47 1.38-2.28 1.59-10.03 8.51-17.64 12.04-26.74 2.4-6.18 4.09-12.76 5.12-19.31 2.08-13.16 3.45-26.44 1.93-39.79-.35-3.1-.79-6.84-2.67-8.99-3.36-3.83-8.36-5.56-13.56-5.78-22.45-.93-44.9-1.69-67.35-2.66-6.91-.3-13.79-1.32-20.7-1.52-5.12-.15-10.3.95-15.4.64-4.63-.29-9.21-1.61-13.76-2.7-9.9-2.35-19.79-4.73-29.62-7.35-2.37-.63-3.62-.16-4.42 1.97-4.9 13.06-9.94 26.07-14.62 39.21-1.72 4.82-2.6 9.94-3.78 14.94-.32 1.38-.34 2.82-.55 4.74 7.16-2.03 13.87-3.96 20.6-5.82 14.53-4.02 28.81-9.11 43.9-10.82 23.49-2.66 47.03-4.74 70.52-.33 13.08 2.46 24.31 9.38 35.43 16.3 1.2.75 2.2 1.91 3.11 3.03 5.17 6.39 3.78 11.63-3.69 14.67-4.98 2.03-9.94 1.21-14.84.09-19.38-4.44-39.05-6.7-58.88-6.72-10.58-.01-21.16 1.64-31.76 2.1-4.73.21-9.57-.34-14.25-1.15-4.7-.81-9.23-1.77-13.66.89-.46.28-1.43.36-1.8.06-4.02-3.19-8.71-2.6-13.22-2.19-7.24.66-14.45 1.62-21.63 2.75-1.34.21-2.87 1.62-3.59 2.88-4.46 7.89-6.32 16.64-8.21 25.41-1.31 6.07-3.01 12.12-5.23 17.91-1.49 3.95-4.75 6.72-9.52 7.78zm174.88-184.68c-6.58-.41-13.16-.85-19.74-1.21-.95-.05-2.2-.05-2.83.49-3.44 2.96-7.22 4.99-6.86 11.25.4 6.96-1.91 14.07-3.04 21.11-1.33 8.26-.85 9.12 7.03 12.14 7.27 2.78 14.85 2.93 22.48 2.46 10.42-.64 20.61.13 29.82 5.61 4.11 2.44 7.73-.13 11.57-.48.37-.03.81-1.02.96-1.63 3.08-12.59 2.48-24.98-3.61-36.51-3.81-7.21-9.9-11.95-18.7-12.18-5.7-.15-11.39-.68-17.08-1.05z" fill="#010104"/><g fill="#fcfbfa"><path d="m385.2 377.6.6-.7c.6.4 1.3.9 1.9 1.5l-.6.7c-.8-.5-1.4-1-1.9-1.5zm.3 7.1c.6-1.4 1.1-2.9 1.5-4.5.3.1.6.3.9.4-.5 1.4-1 2.9-1.5 4.4zm.2-10.1.6-.6c.7.5 1.3 1.1 1.9 1.6l-.7.7c-.6-.6-1.2-1.2-1.8-1.7zm8.4-.8h.8v.9h1.8v.7h-1.8v1.8h-.8v-.3h-1.2v.9h3.3v2.6h-.8v-.4h-2.5c0 .3 0 .6-.1.8h3.4v.7h-3.5c0 .3-.1.6-.1.8h4v.7h-3.5c.7.9 1.9 1.3 3.6 1.5-.2.2-.4.5-.6.9-1.9-.3-3.2-1.1-3.8-2.3-.5 1.1-1.8 2-3.9 2.4-.2-.3-.4-.5-.6-.8 1.9-.4 3.1-.9 3.6-1.7h-3.2v-.7h3.5c.1-.2.1-.5.2-.8h-3.3v-.7h3.4c0-.2 0-.5 0-.8h-2.4v.3h-.8v-2.6h3.3v-.9h-1.2v.3h-.8v-1.8h-1.8v-.7h1.8v-.9h.8v.9h3.2zm-4.4 5.5h2.4c0-.3 0-.6 0-.9h-2.4zm1.2-3.1h3.2v-.8h-3.2zm4.4 2.2h-2.4v.9h2.5v-.9z"/><path d="m389.2 385.8h.9v1.5h1.9v-1.5h.9v1.5h2.7v6h1.1v.9h-11.3v-.9h1.1v-6h2.7zm.2 8.7.5.8c-1.2.6-2.5 1.3-4 1.9-.2-.3-.3-.6-.6-.8 1.6-.6 3-1.3 4.1-1.9zm-2-4.3h1.9v-2.1h-1.9zm0 3.1h1.9v-2.2h-1.9zm2.7-3.1h1.9v-2.1h-1.9zm0 3.1h1.9v-2.2h-1.9zm2.4 1.3c1.4.6 2.7 1.2 4.1 1.8l-.5.9c-1.5-.7-2.8-1.4-4.1-1.9zm2.2-6.5h-1.9v2.1h1.9zm-1.9 5.2h1.9v-2.2h-1.9z"/></g></svg>