<svg enable-background="new 0 0 400 400" viewBox="0 0 400 400" xmlns="http://www.w3.org/2000/svg"><path d="m23.67 197.25c.84.74 1.76 1.4 2.49 2.23 3.02 3.43 6.27 5.12 11.22 3.8 4.39-1.17 9.01-.74 13.39 1.45 10.6 5.29 21.3 10.39 32.01 15.44 8.28 3.9 16.85 6.64 26.21 5.7 3.52-.35 5.24-3.34 3.69-6.58-.72-1.51-1.59-2.95-2.4-4.42-.75-1.37-1.52-2.73-2.49-4.49 2.27-1.19 4.49-2.36 7.21-3.79-5.08-5.16-3.02-11.08-2.29-16.85.48-3.77.98-7.55 1.72-11.27.42-2.1-.15-3.27-1.99-4.32-8.16-4.65-16.34-9.28-24.33-14.22-3.96-2.45-7.96-5.14-11.08-8.51-2.18-2.36-3.57-5.96-4.11-9.21-1.02-6.12.74-7.74 6.59-9.5 6.35-1.91 11.36-.01 15.88 4.28 1.14 1.08 2.22 2.23 3.43 3.21 2.93 2.37 6.09 3.77 9.87 1.93 2.46-1.2 4.51-.67 6.77.89 7.09 4.89 14.39 9.47 21.52 14.31 1.96 1.33 3.77 1.81 6.2 1.51 2.3-.28 5.06-.16 7.02.89 4.94 2.65 9.79 3.18 15.08 1.52 1.11-.35 2.85-.26 3.69.4 4.4 3.44 9.5 4.96 14.84 5.73 6.09.88 10.66 3.32 11.58 9.98 13.94-2.74 27.17.85 40.54 2.4 5.47.63 10.42 2.33 14.82 6.17 3.89-4.64 9.45-4.34 14.49-5.61 13.63-3.43 27.54-4.88 41.51-5.41 7.69-.29 15.43.13 23.11.67 5.48.38 5.46.71 5.11 6.15-.17.14-.35.43-.5.41-4.68-.66-8.08 1.22-10.86 4.92-.73.97-2.47 1.47-3.82 1.65-3.98.54-8 .92-12.01 1.15-2.28.14-3.88 1.1-3.81 3.32.18 5.55.67 11.1 1.11 16.64.04.48.53.98.93 1.35 6.14 5.66 9.74 13 13.58 20.21 1.56 2.93 3.53 5.73 5.77 8.18 3.36 3.68 7.54 5.9 12.81 5.43 1.78-.16 3.59-.11 5.37-.01 3.18.19 5.83-.45 8.63-2.45 5.15-3.69 11.48-3.13 17.5-3.3.49-.01 1.35.83 1.45 1.39.46 2.5.72 5.05 1.08 7.84-8.44 2.2-16.63 4.33-24.82 6.47-12.65 3.3-25.28 6.68-37.98 9.82-1.73.43-4.03.17-5.59-.66-2.94-1.57-5.72-1.94-8.94-1.21-5.34 1.21-10.73 2.29-16.14 3.06-2.32.33-4.87.14-7.12-.49-2.39-.67-4.34-.68-6.15 1.03-2.72 2.57-5.91 2.53-9.37 2.11-11.22-1.35-22.43-2.86-33.7-3.59-4.3-.28-8.71 1.53-13.11 2.14-2.25.31-4.66.49-6.85.03-5.9-1.24-11.67-3.14-17.6-4.21-4.24-.77-8.68-1.03-12.98-.77-6.69.4-12.88-.66-18.53-4.31-1.82-1.18-3.18-1.16-4.93.49-2.71 2.54-8.96 1.83-11.59-.98-1.37-1.47-2.61-3.07-3.97-4.56-2.85-3.11-5.98-3.18-9.45-.79-1.19.82-3.31 1.38-4.53.89-3.03-1.21-5.7-3.27-8.67-4.67-2.24-1.06-4.67-2.12-7.08-2.3-3.87-.28-7.79.33-11.68.2-1.25-.04-2.66-.99-3.65-1.91-1.8-1.66-3.59-3.45-4.94-5.47-3.72-5.55-8.89-8.12-15.44-8.18-3.3-.03-5.93-1.4-8.44-3.5-4.55-3.8-9.4-7.24-13.95-11.04-2.12-1.77-4.27-2.76-6.99-2.34-2.25.35-3.67-.58-4.99-2.43-3.24-4.53-6.73-8.88-10.12-13.31.23-.24.5-.49.77-.73zm149.88 60.26c3.74-2.82 7.02-5.34 10.34-7.8 3.85-2.86 8.06-4.82 12.99-4.74 2.8.05 5.6.1 8.38.33 8.52.7 17.36-.73 25.4 3.21 4.61 2.26 7.81.55 11.02-2.56 1.62-1.58 2.13-2.94 1.34-5.25-3.93-11.41-7.81-22.84-11.33-34.38-1.05-3.43-2.83-5.68-6.11-6.26-5.91-1.05-11.87-1.92-17.85-2.39-5.22-.41-9.99-1.07-12.36-6.6-.25-.58-.79-1.04-1.24-1.6-.95.3-1.89.41-2.63.85-2.85 1.73-5.15 1.06-7.46-1.13-1.08-1.02-2.59-1.94-4.03-2.17-13.8-2.24-27.62-4.36-41.46-6.36-.95-.14-2.54.67-3.03 1.51-2.38 4.04-4.59 8.2-6.62 12.42-.84 1.74-1.44 3.76-1.52 5.68-.44 10.51-.76 21.03-.9 31.55-.02 1.55.78 3.47 1.85 4.6 3.29 3.49 7.71 4.23 12.32 4.18 5.25-.05 10.53-.41 15.75-.04 6.5.46 11.88 2.97 14.06 9.92.73 2.29 1.94 4.45 3.09 7.03zm77.36-48.59c1.47 3.4 2.78 6.47 4.11 9.53 3.78 8.71 7.54 17.42 11.38 26.1.38.86 1.11 1.67 1.88 2.23 7.49 5.45 7.5 5.44 16.24 2.43.84-.29 1.69-.59 2.53-.88 5.66-1.95 11.32-3.91 16.92-5.84-.02-4.33-.97-7.95-4-10.67-6.05-5.44-9.74-12.12-10.98-20.17-.2-1.32-.56-2.63-1.01-3.89-1.67-4.64-4.67-7.94-9.34-9.87-3.05-1.26-5.9-3.03-8.74-4.74-1.55-.93-2.9-2.18-5.01-3.81.6 2.67.85 4.44 1.4 6.11.79 2.38.22 3.82-2.06 5.12-4.45 2.54-8.71 5.43-13.32 8.35zm-118.23-35.63c.5-4.79-.49-8.44-4.6-10.62-.7-.37-1.89-.73-2.39-.39-3.01 2.01-5.88 4.22-9.38 6.79 1.79 1.69 3.01 3.85 4.5 4.05 3.8.51 7.72.17 11.87.17zm155.24 28.77c3.93-2.41 5.34-6.56 3.98-10.6-.98-2.93-3.91-4.29-8.25-3.65 1.4 4.68 2.79 9.32 4.27 14.25zm-45.38-16.02c-.32 6.63 2.92 9.18 7.71 11.05 3.91 1.53 6.84.6 9.92-1.93-1.48-1.71-2.82-3.41-5.35-2.38-3.52 1.44-6.28.16-8.67-2.37-1.14-1.19-2.11-2.53-3.61-4.37zm-66.48-15.24v5.9c4.32-.32 8.42-.62 12.53-.92.03-.25.05-.5.08-.75-4.03-1.36-8.07-2.71-12.61-4.23zm57.09 21.53c2.18 4.54 4.28 8.91 6.37 13.28 2.49-6.44.34-11.04-6.37-13.28zm13.27 62.69c1.39-.87 2.27-1.43 3.35-2.1-1.07-1.35-2-2.52-3.35-4.22z" fill="#010102"/><path d="m142.51 195.62c4.91 3.35 4.35 9.2-1.15 11.87-4.35-5.18-4.18-6.9 1.15-11.87z" fill="#010102"/><g fill="#fcfbfa"><path d="m385.2 377.6.6-.7c.6.4 1.3.9 1.9 1.5l-.6.7c-.8-.5-1.4-1-1.9-1.5zm.3 7.1c.6-1.4 1.1-2.9 1.5-4.5.3.1.6.3.9.4-.5 1.4-1 2.9-1.5 4.4zm.2-10.1.6-.6c.7.5 1.3 1.1 1.9 1.6l-.7.7c-.6-.6-1.2-1.2-1.8-1.7zm8.4-.8h.8v.9h1.8v.7h-1.8v1.8h-.8v-.3h-1.2v.9h3.3v2.6h-.8v-.4h-2.5c0 .3 0 .6-.1.8h3.4v.7h-3.5c0 .3-.1.6-.1.8h4v.7h-3.5c.7.9 1.9 1.3 3.6 1.5-.2.2-.4.5-.6.9-1.9-.3-3.2-1.1-3.8-2.3-.5 1.1-1.8 2-3.9 2.4-.2-.3-.4-.5-.6-.8 1.9-.4 3.1-.9 3.6-1.7h-3.2v-.7h3.5c.1-.2.1-.5.2-.8h-3.3v-.7h3.4c0-.2 0-.5 0-.8h-2.4v.3h-.8v-2.6h3.3v-.9h-1.2v.3h-.8v-1.8h-1.8v-.7h1.8v-.9h.8v.9h3.2zm-4.4 5.5h2.4c0-.3 0-.6 0-.9h-2.4zm1.2-3.1h3.2v-.8h-3.2zm4.4 2.2h-2.4v.9h2.5v-.9z"/><path d="m389.2 385.8h.9v1.5h1.9v-1.5h.9v1.5h2.7v6h1.1v.9h-11.3v-.9h1.1v-6h2.7zm.2 8.7.5.8c-1.2.6-2.5 1.3-4 1.9-.2-.3-.3-.6-.6-.8 1.6-.6 3-1.3 4.1-1.9zm-2-4.3h1.9v-2.1h-1.9zm0 3.1h1.9v-2.2h-1.9zm2.7-3.1h1.9v-2.1h-1.9zm0 3.1h1.9v-2.2h-1.9zm2.4 1.3c1.4.6 2.7 1.2 4.1 1.8l-.5.9c-1.5-.7-2.8-1.4-4.1-1.9zm2.2-6.5h-1.9v2.1h1.9zm-1.9 5.2h1.9v-2.2h-1.9z"/></g></svg>