<svg enable-background="new 0 0 400 400" viewBox="0 0 400 400" xmlns="http://www.w3.org/2000/svg"><path d="m374.8 390.4.4-.4c.7.5 1.3 1 1.8 1.4l-.5.5c-.5-.6-1.1-1.1-1.7-1.5zm1 7.3-.6-.3c.5-1.4 1.1-2.8 1.5-4.3.2.1.4.2.6.3-.5 1.3-1 2.8-1.5 4.3zm-.4-10.3.4-.4c.4.3 1 .8 1.7 1.4l-.5.5c-.4-.5-1-1-1.6-1.5zm2.5.3h1.7v-1h.6v1h3.5v-1h.6v1h1.8v.5h-1.8v1.4h-2v1h3.2v2h-3.2v.9h3.3v.5h-3.4c0 .3-.1.6-.1.9h4v.5h-3.7c.7.9 1.9 1.5 3.8 1.7-.1.2-.2.4-.3.6-2.1-.4-3.5-1.1-4-2.1-.4 1-1.8 1.7-4 2.2-.1-.2-.2-.4-.3-.6 2.1-.4 3.4-1 3.8-1.8h-3.4v-.5h3.6c.1-.3.1-.6.2-.9h-3.3v-.5h3.4c0-.3 0-.6 0-.9h-3.2v-2h3.3v-1h-2.1v-1.4h-1.7v-.5zm1.1 3.5v1h2.7c0-.3 0-.4 0-.4 0-.1 0-.2 0-.2 0-.1 0-.2 0-.3h-2.7zm1.2-3v.9h3.5v-.9zm4.7 3h-2.6v.6.4h2.6z" fill="#fbfcfa"/><path d="m393.6 386.7h.6v1.5h2.7v6.1h1.1v.6h-11v-.6h1.1v-6.1h2.7v-1.5h.6v1.5h2.1v-1.5zm-2.7 8.8.4.6c-1.2.6-2.5 1.3-3.8 1.9-.1-.2-.2-.4-.3-.6 1.2-.6 2.5-1.2 3.7-1.9zm-2.2-6.7v2.4h2.1v-2.4zm0 3v2.5h2.1v-2.5zm2.8-3v2.4h2.1v-2.4zm0 3v2.5h2.1v-2.5zm6 6.1c-1.4-.7-2.7-1.3-3.9-1.8l.3-.6c1.5.6 2.7 1.2 3.9 1.7zm-1.2-9.1h-2.1v2.4h2.1zm-2.1 3v2.5h2.1v-2.5z" fill="#fbfcfa"/><path d="m156.4 267.77c-4.16 9.02-8.04 17.79-12.22 26.42-5.01 10.34-9.6 20.98-15.63 30.71-6.4 10.33-16.3 15.68-29.45 14.64.81-4.24 1.87-8.31 2.3-12.45.64-6.18 3.6-10.88 7.48-15.61 12.39-15.14 20.87-32.47 27.09-50.95 8.08-23.98 12.29-48.74 14.9-73.82 1.83-17.63 2.22-35.32.58-52.96-1.01-10.79-3.06-21.48-4.21-32.26-.62-5.85-.98-11.87-.31-17.68.74-6.45 8.65-10.84 14.92-9.02.82.24 1.53 1.45 1.97 2.36 7.34 14.99 9.12 30.73 6.21 47.07-2.01 11.27-2.7 22.59-2.63 34.06.07 10.61 4.62 18.27 12.45 24.74 13.35 11.04 28.72 18.49 44.4 25.39 12.61 5.55 25.43 10.48 39.2 12.38.87.12 1.75.17 3.13.3 2.09-30.32 4.17-60.51 6.32-91.67-6.94 1.49-13.43 2.42-19.63 4.34-6.05 1.87-11.86 4.6-17.66 7.21-10.91 4.91-22.21 5.4-34.67 3.54 3.67-2.43 6.67-4.44 9.7-6.43 18.44-12.07 36.86-24.17 55.35-36.15 1.94-1.26 2.67-2.51 2.53-4.83-1.35-22.46-2.59-44.92-3.86-67.38-.05-.89-.08-1.78.2-2.86 5.43 5.62 12.24 10.99 12.4 19.25.26 13.51 4.55 25.89 8.22 38.53 5.74 19.81 10.17 39.85 11.52 60.51.99 15.07-.33 30.03-2.79 44.81-3.72 22.38-8.21 44.63-12.4 66.93-.2 1.09-.46 2.25-1.02 3.17-10.96 18.04-16.48 38.05-21.18 58.36-2.96 12.79-6.6 25.32-14.12 36.34-6.39 9.37-14.64 16.45-25.43 20.91-2.94-6.27-3.13-12.52-.01-18.46 2.16-4.11 5.08-7.87 8.02-11.5 5.29-6.55 9.46-13.53 10.68-22.05.49-3.41-.17-5.6-3.49-7.61-25.17-15.22-50.19-30.7-75.25-46.1-1.11-.67-2.23-1.35-3.61-2.18zm103.9-14.74c-27.76-17.11-55.25-34.04-82.92-51.09-3.98 3.98-7.9 7.79-11.68 11.74-.68.72-1 1.99-1.08 3.03-.64 7.8-1.24 15.61-1.66 23.42-.06 1.08.7 2.55 1.56 3.25 2.76 2.27 5.75 4.26 8.64 6.36 21.09 15.29 42.19 30.59 63.28 45.88 2.98 2.16 8.17 1.2 9.29-1.9 4.87-13.41 9.64-26.88 14.57-40.69z" fill="#010106"/></svg>