<svg enable-background="new 0 0 400 400" viewBox="0 0 400 400" xmlns="http://www.w3.org/2000/svg"><path d="m138.89 45.72c5.66-3.23 10.9-4.41 16.62-2.59 2.76.87 4.47 2.45 5.51 5.29 1.09 3 2.82 5.79 4.47 8.56.51.85 1.62 1.73 2.56 1.87 2.94.44 3.91 2.35 4.65 4.88 3.2 10.93 6.88 21.73 9.7 32.75 2.23 8.73 1.8 17.72.83 26.7-.4 3.68-.05 7.61.79 11.23 1.12 4.82.51 9.19-1.12 13.71-.58 1.59-.13 3.59.01 5.4.1 1.31.75 2.62.68 3.9-1.33 24.25-2.74 48.49-4.1 72.73-.59 10.39-1.19 20.78-1.66 31.18-.28 6.24 6.26 11.79 12.42 10.71 1.98-.35 3.95-.76 5.94-1.09 5.27-.89 5.25-.95 6.5-6.36 2.19-9.56 1.24-19.2.41-28.75-.85-9.89-.7-19.63 1.46-29.32 1.06-4.74.93-9.44.27-14.29-.51-3.65.1-7.48.37-11.22.59-8.24 1.39-16.47 1.91-24.71.42-6.7.67-13.42.75-20.13.06-5.08.77-9.84 2.75-14.65 1.34-3.25.92-7.23 1.34-10.88.12-1.08.07-2.52.72-3.15 3.4-3.28 2.65-7.05 1.6-10.87-.62-2.27 0-3.68 2.03-4.98 4.33-2.77 8.43-5.9 12.72-8.74 2.66-1.76 4.84-3.63 5.9-6.89.52-1.6 2.49-2.71 3.77-4.07 5.01-5.28 9.99-10.58 15.01-15.84 3.08-3.23 8.44-3.15 11.36.14.52.58 1.01 1.2 1.55 1.76 5.58 5.85 3.31 9.75-4.14 12.39-3.77 1.33-7.21 2.75-10.14 5.51-4.88 4.61-9.96 9.01-14.84 13.62-1.08 1.02-2.14 2.43-2.45 3.83-1.54 6.96-2.74 13.99-4.23 20.96-1.16 5.43-2.58 10.8-3.85 16.21-.38 1.61-.89 3.24-.9 4.86-.09 8.95-.01 17.91-.08 26.86-.01 1.28-.11 2.86-.84 3.78-2.1 2.67-2.53 5.57-2.19 8.8 1.66 15.51-.88 30.82-2.56 46.14-.67 6.09-2.06 12.09-3.03 18.15-.19 1.17-.33 2.53.08 3.57 2.38 6.02 1.54 12.05.36 18.11-.26 1.31-.36 2.66-.49 3.99-.47 4.61-.11 8.59 5.5 10.15 2.14.6 4.07 2.33 5.83 3.85 4.21 3.64 5.18 8.29 4.2 13.68-3.22 17.7-6.28 35.42-9.44 53.38 3.24 1.71 6.24 3.29 10.13 5.34-6.13.56-6.45 5.38-8.69 8.61-.96 1.39-2.49 2.7-4.05 3.31-2.58 1.01-5.44 1.27-8.1 2.11-3.95 1.25-7.75 1.63-11.68-.21-.95-.44-2.53-.01-3.63.47-1.41.61-2.76 1.53-3.91 2.57-6.48 5.81-14.27 7.28-22.65 7.27-15.83-.01-31.28-2.1-45.64-9.1-7.79-3.8-12.01-10.62-12.4-19.27-.2-4.42.84-8.89 1.12-13.35.3-4.67.79-9.39.44-14.03-.42-5.59.02-10.86 2.27-16.03 2.87-6.6 1.79-13.67 2.06-20.55.33-8.3.59-9.19 8.95-10.6 5.91-1 12-.87 18-1.33 5.66-.44 11.32-.94 16.97-1.52 2.2-.23 2.9-1.62 3.27-3.86.69-4.24 2.04-8.38 3.03-12.58.3-1.26.61-2.62.43-3.86-1.31-9.07-2.76-18.13-4.14-27.19-.15-.99-.28-2.01-.25-3.01.53-20.57 1.23-41.13 1.58-61.71.19-10.95-.03-21.91-.4-32.86-.39-11.63-.85-23.28-1.96-34.85-.49-5.12-2.59-10.1-4.1-15.1-.22-.72-1.22-1.23-1.92-1.76-9.2-7.07-13.57-17.4-19.24-27.03zm-9.27 240.07c-.03.3-.15.64-.08.95 2.56 12.43 1.1 24.69-1.37 36.94-1.74 8.66-2.49 17.33 1.21 25.7.62 1.41 2.14 2.81 3.58 3.4 4.65 1.91 9.51 3.27 14.17 5.16 3.06 1.24 5.98 1.05 9.13.73 3.59-.37 7.29-.4 10.88-.01 5.06.55 9.93 1.99 14.99-.67 6.01-3.16 12.49-4.71 19.44-3.86 1.42.17 3.16-.85 4.5-1.72 3.25-2.12 3.81-5.48 3.9-9.1.33-12.41 3.24-24.36 6.9-36.12 1.48-4.77.33-8.97-1.23-13.27-1.43-3.93-5.34-3.92-8.43-5.23-2.81-1.2-5.53-2.53-8.46-.12-.49.41-1.68.1-2.52-.06-6.69-1.3-13.33-2.95-20.07-3.87-5.71-.78-11.72-1.8-17.25-.8-6.08 1.1-11.86 1.65-17.78.09-4.15-1.11-7.91-.42-11.51 1.86z" fill="#010100"/><path d="m175.46 25.03c1.32.51 2.55.8 3.6 1.4 5.36 3.11 10.79 3.74 16.46.82.74-.38 1.79-.52 2.61-.35 10.59 2.17 21.18.39 31.76.01 8.75-.32 17.03 1.04 25.3 3.96 4.27 1.5 9.16 1.3 13.79 1.67 2.1.17 4.25-.33 6.36-.23 3.53.17 6.77 3.83 5.96 7.11-.3 1.2-2.28 2.03-3.58 2.9-.41.28-1.18.38-1.63.19-8.15-3.41-16.07.64-24.1.73-11.16.13-21.99-1.75-32.69-4.79-2.74-.78-5.67-1.34-8.5-1.32-11.06.07-21.85-1.4-32.35-4.87-4.73-1.55-5.14-2.52-2.99-7.23z" fill="#010100"/><g fill="#fcfafa"><path d="m342.2 3.2-6.3 9.2h6.1v1.2h-8.2v-.5l6.2-9.1h-5.7v-1.2h7.8v.4z"/><path d="m344 13.7v-10.9h3.1c1.6 0 3 .5 4.1 1.4 1.1 1 1.6 2.2 1.6 3.9s-.5 3-1.6 4-2.5 1.5-4.2 1.5h-3zm1.4-9.6v8.4h1.6c1.4 0 2.5-.4 3.2-1.1.8-.8 1.2-1.8 1.2-3.2s-.4-2.4-1.2-3.1-1.8-1-3.1-1z"/><path d="m356.3 2.8v10.9h-1.4v-10.9z"/><path d="m366.6 13.2c-.8.4-1.8.6-3 .6-1.6 0-2.8-.5-3.7-1.5s-1.4-2.3-1.4-3.9c0-1.7.5-3.2 1.6-4.2s2.4-1.6 4-1.6c1 0 1.9.1 2.6.4v1.5c-.8-.4-1.6-.6-2.6-.6-1.2 0-2.2.4-3 1.2s-1.1 1.9-1.1 3.3c0 1.3.4 2.3 1.1 3.1s1.6 1.1 2.8 1.1c1.1 0 2-.2 2.8-.7v1.3z"/><path d="m368.2 13c0-.3.1-.5.3-.6.2-.2.4-.3.6-.3.3 0 .5.1.7.3s.3.4.3.6-.1.5-.3.6c-.2.2-.4.3-.7.3s-.5-.1-.6-.3c-.2-.2-.3-.4-.3-.6z"/><path d="m381.1 13.7h-1.7l-5.5-8.4c-.2-.2-.3-.5-.4-.7 0 .2.1.8.1 1.5v7.6h-1.4v-10.9h1.8l5.3 8.3c.3.4.4.6.4.8 0-.3-.1-.8-.1-1.6v-7.5h1.4v10.9z"/><path d="m389.7 13.7h-5.8v-10.9h5.6v1.2h-4.2v3.5h3.9v1.2h-3.9v3.7h4.4z"/><path d="m398.4 4.1h-3.1v9.6h-1.4v-9.6h-3.1v-1.3h7.7v1.3z"/></g></svg>