<svg enable-background="new 0 0 400 400" viewBox="0 0 400 400" xmlns="http://www.w3.org/2000/svg"><g fill="#010105"><path d="m363.2 122.43c-7.43 3.65-15.27 5.41-23.22 6.56-28.63 4.16-57.45 5.37-86.36 5.45-9.25.03-18.49 1.22-27.73 1.98-1.41.12-2.81.72-4.15 1.26-7.3 2.95-8.17 4.65-6.47 12.27 4.31 19.31 8.68 38.6 12.9 57.93 3.31 15.13 3.4 30.47 1.86 45.78-2.94 29.21-8.03 58.01-17.3 85.97-2.77 8.35-6.75 16.07-11.79 23.24-5.2 7.38-12.43 11.34-21.38 12.38-1.93.22-2.84-.31-3.52-2.06-2.52-6.54-1.8-12.84.73-19.25 3.27-8.3 7.09-16.53 9.02-25.17 3.39-15.15 5.89-30.52 8.06-45.9 2.05-14.49 4.07-29.08 4.53-43.67.74-23.33-3.41-45.9-14.85-66.66-1.78-3.23-3.72-6.39-5.88-9.37-7.09-9.83-18.5-13.4-30.87-9.92-16.22 4.57-32.05 10.51-48.03 15.93-1.2.41-2.3 1.29-3.29 2.13-1.7 1.45-3.28 3.04-4.9 4.58-6.26 5.93-13.61 5.92-20.57 2.37-13.15-6.69-25.92-14.13-38.84-21.27-.18-.1-.28-.33-.83-1.02 3.22-1.63 6.18-3.78 9.47-4.67 9.69-2.61 19.57-4.52 29.28-7.09 16.42-4.34 32.76-8.93 49.12-13.49 36.25-10.09 72.85-18.65 110.27-22.84 20.32-2.27 40.82-3.08 61.27-3.92 12.84-.53 25.73-.12 38.59.3 9.18.3 18.21 1.79 26.91 5.09 3.67 1.39 6.14 3.29 6.62 7.38.21 1.89.85 3.69 1.35 5.7z"/><path d="m70.51 56.84c5.38-.31 10.28-1.12 15.09-.78 15.71 1.12 30.54-1.99 45.35-7.1 20.36-7.02 40.99-13.36 61.71-19.25 8.31-2.36 17.19-2.74 25.82-3.97.85-.12 1.82-.07 2.62.23 10.47 3.87 21.36 4.41 32.38 4.55 5.65.07 11.5.35 16.87 1.88 9.39 2.69 15.06 12.53 13.86 22.26-.01.11-.05.22-.04.33.84 8.9-3.44 15.26-10.02 20.6-6.07 4.92-11.76 10.35-18.07 14.93-5.31 3.85-11.72 4.85-18.27 4.13-4.68-.51-7.49-3.57-6.4-8.1 1.28-5.34 2.59-10.91 6.86-14.96 3.86-3.66 4.58-8.31 4.16-13.26-.06-.76-.97-1.69-1.73-2.1-5.3-2.9-10.97-3.42-16.52-1.23-12.57 4.97-25.7 7.33-38.92 9.72-4.88.88-9.38 3.99-14.01 6.19-5.95 2.83-11.57 6.94-17.82 8.37-8.86 2.03-16.5 5.36-23.7 10.95-5.9 4.58-13.26 4.98-20.54 2.79-6.6-1.99-12.85-4.59-17.57-9.91-6.06-6.84-12.2-13.62-18.16-20.54-1.17-1.38-1.73-3.32-2.95-5.73z"/><path d="m89.32 181.72c4.51 1.46 8.05 2.77 11.68 3.74 16.77 4.48 31.7 13.24 47.34 20.31 7.68 3.47 9.93 10.04 6.82 18.96-1.67 4.77-4.01 9.51-6.96 13.6-5.66 7.82-8.57 16.55-10.64 25.79-2.38 10.63-6.07 20.68-13.08 29.4-7.5 9.32-14.4 19.11-21.7 28.58-3.98 5.17-9.15 8.41-15.91 8.81-2.3.14-3.62-.52-3.25-2.83.92-5.81 1.23-11.91 3.27-17.33 5.86-15.56 12.36-30.89 18.79-46.23 7.24-17.3 7.31-35.09 3.39-52.97-1.03-4.71-3.84-9.24-6.62-13.32-3.78-5.51-8.3-10.5-13.13-16.51z"/><path d="m258.45 171.28c7.92.58 14.76 3.27 21.32 6.67 11.67 6.05 22.75 12.99 31.66 22.86 1.79 1.98 3.33 4.21 4.76 6.47 3.04 4.83 3.92 9.72 2.19 15.57-5.31 18-10 36.18-15 54.27-.37 1.35-1.09 2.68-1.94 3.8-5.13 6.77-10.29 13.52-15.54 20.2-2.27 2.89-4.65 5.72-7.25 8.3-1.21 1.21-2.96 2.2-4.63 2.56-6.77 1.47-11.96 1.16-11.84-7.82.1-6.97 2.02-13.42 4.39-19.85 3.94-10.68 8.82-21.15 11.48-32.15 5.15-21.29 2.25-42-8.29-61.36-1.73-3.17-4.51-5.81-7.01-8.51-2.78-3.02-4.23-6.46-4.3-11.01z"/></g><path d="m377.9 391.2c-.2.3-.4.5-.6.8-.7-.6-1.4-1-2.2-1.5.2-.3.4-.5.5-.8.6.4 1.4.8 2.3 1.5zm-1.8 6.1c-.2-.2-.5-.4-.9-.6.4-.6.8-1.2 1.2-1.9s.7-1.3.9-1.9c.3.3.5.5.8.7-.7 1.3-1.4 2.6-2 3.7zm2.2-9c-.3.3-.5.5-.6.8-.6-.6-1.3-1.1-2-1.5.3-.3.5-.5.6-.7.6.5 1.3.9 2 1.4zm.3.2v-.9h2 4.5c-.3 1.3-.6 2.5-1 3.6s-.9 2.1-1.4 3c.4.5 1 1 1.6 1.4s1.2.8 1.9 1.1c-.3.2-.5.4-.8.8-.4-.3-1-.7-1.6-1.2s-1.2-1.1-1.6-1.6c-.5.6-1.1 1.1-1.7 1.6s-1.4.9-2.1 1.4c-.1-.3-.3-.5-.7-.8.6-.2 1.2-.5 1.9-1s1.4-1.1 2-1.8c-.5-.8-.9-1.6-1.2-2.5s-.6-2-.8-3.2c-.4.1-.7.1-1 .1zm2.5 2.7c.3 1 .7 1.7 1 2.2.3-.5.6-1.1 1-2s.6-1.9.9-3h-3.2-.4c.1.9.3 1.8.7 2.8z" fill="#fcfbfa"/><path d="m396.5 388.5v1.5 3.6h1.5v.9c-.4 0-1 0-1.7 0h-7.9c-.5 0-.9 0-1.2 0v-.9h1.3v-3.5c0-.7 0-1.2 0-1.6h2.4c0-.8 0-1.4 0-1.7h1c0 .3-.1.8-.1 1.7h1.5c0-.8 0-1.4 0-1.7h1c0 .3-.1.9-.1 1.7zm-8.2 9.2c-.2-.3-.5-.5-.8-.8.8-.3 1.4-.6 1.9-.9s1-.7 1.4-1.1c.3.3.6.5.9.8-1.6 1-2.8 1.6-3.4 2zm2.6-6.8v-1.6h-1.5v1.6zm0 2.7v-1.9h-1.5v1.9zm2.4-2.7v-1.6h-1.5v1.6zm0 2.7v-1.9h-1.5v1.9zm.2 2 .7-.8c.4.2.9.5 1.6.8s1.3.7 1.8 1c-.3.3-.5.5-.8.8-.4-.3-1.5-1-3.3-1.8zm2-4.7v-1.6h-1.4v1.6zm0 2.7v-1.9h-1.4v1.9z" fill="#fcfbfa"/></svg>