<svg enable-background="new 0 0 400 400" viewBox="0 0 400 400" xmlns="http://www.w3.org/2000/svg"><g fill="#fafafb"><path d="m12.4 4.8-6.1 9h6v1.2h-8v-.5l6.1-8.9h-5.7v-1.2h7.6v.4z"/><path d="m14 15v-10.6h3c1.6 0 2.9.5 4 1.4s1.6 2.2 1.6 3.8-.5 3-1.6 3.9-2.4 1.5-4 1.5zm1.4-9.4v8.2h1.6c1.3 0 2.4-.4 3.1-1.1s1.1-1.8 1.1-3.1-.4-2.3-1.2-3-1.8-1-3.1-1z"/><path d="m26.1 4.4v10.6h-1.4v-10.6z"/><path d="m36.1 14.6c-.8.4-1.8.6-2.9.6-1.5 0-2.7-.5-3.6-1.4s-1.4-2.2-1.4-3.8c0-1.7.5-3.1 1.5-4.1s2.3-1.6 3.9-1.6c1 0 1.8.1 2.5.4v1.4c-.8-.4-1.6-.6-2.5-.6-1.2 0-2.1.4-2.9 1.2s-1.1 1.8-1.1 3.2c0 1.3.3 2.3 1 3s1.6 1.1 2.7 1.1c1 0 2-.2 2.7-.7v1.3z"/><path d="m37.6 14.3c0-.2.1-.5.3-.6s.4-.3.6-.3c.3 0 .5.1.6.3s.3.4.3.6-.1.4-.3.6-.4.3-.6.3c-.3 0-.5-.1-.6-.3s-.3-.4-.3-.6z"/><path d="m50.2 15h-1.6l-5.3-8.2c-.2-.2-.3-.5-.4-.7 0 .2.1.7.1 1.5v7.4h-1.4v-10.6h1.7l5.2 8.1c.2.4.4.6.4.7 0-.3-.1-.8-.1-1.5v-7.3h1.4z"/><path d="m58.6 15h-5.7v-10.6h5.5v1.2h-4.1v3.4h3.8v1.2h-3.8v3.6h4.3z"/><path d="m67.1 5.6h-3.1v9.4h-1.4v-9.4h-3v-1.2h7.5z"/></g><path d="m231.61 360.98c1.15.85 1.89 1.4 2.63 1.95-.33.51-.66 1.02-.99 1.54-2.72-2.64-4.5-1.51-6.66.62-2.11 2.08-4.91 3.45-8.01 5.54-.23-1.9-.31-2.59-.42-3.53-1.39.13-2.66.25-4.18.39.93-3.46-.39-5.05-2.82-4.79-2.02-2.85-3.66-5.18-5.75-8.12 1.67.27 3.13.5 5.03.8 1.14-2.78 2.51-6.15 4.32-10.58-2.93.8-5.15 1.41-7.63 2.09-1.72-2.43 1.62-4.06 2.57-6.45-.81-.94-1.6-1.85-2.82-3.26.67-.43 1.82-.8 1.85-1.25.13-1.65.41-3.65-.36-4.91-.9-1.49-2.68-.99-4.01.26-.79.75-1.74 1.33-2.62 1.99-.25-.23-.5-.46-.75-.69.62-.66 1.12-1.67 1.87-1.91 2.98-.97 4.6-3.17 5.51-5.89.32-.96-.24-2.22-.43-3.51-2.44 1.33-4.1 2.24-5.76 3.14-.16-.27-.32-.55-.49-.82 2.09-2.77 4.19-5.54 6.28-8.32-.11-.34-.22-.68-.33-1.02-2 .25-4 .5-5.67.71 1.41-1.99 2.98-4.23 4.69-6.66-6.22-2.45-6.32-2.81-3.76-9.26-1.53 1.48-3.07 2.96-4.6 4.43-.36-.24-.71-.48-1.07-.72.29-.93.29-2.15.91-2.75 3.63-3.6 3.59-4.82-.3-7.3.92-1.76 2.46-3.46 2.55-5.22.09-1.75-1.27-3.57-2.11-5.62.91-.1 2.04-.23 2.92-.33-.72-1.75-1.54-3.41-2.09-5.17-.77-2.43-.55-4.36 2.22-5.77 2.54-1.29 2.15-3.82-.84-6.22-1.36 4-4.24 5.9-9.04 6.28 1.86-2.66 3.36-4.8 4.77-6.8-1.29-.97-2.5-1.86-4.4-3.28 2.95-.59 4.79-.96 7.75-1.56-2.3-1.19-4.32-1.93-1.49-3.59.73 2.31 2.08 3.12 4.17 1.46-1.9-5.82-2.33-6.06-9.37-4.74.68-.73 1.01-1.13 1.39-1.48 1.47-1.32 3.18-2.45 4.37-3.98 1.76-2.25 1.98-4.59-.51-6.79-1.82-1.62-3.35-3.57-4.63-4.96 1.52-1.77 4.03-3.43 3.89-4.83-.17-1.77-2.5-3.32-3.1-4.75.19-2.2 1.37-5.51.38-6.39-2.67-2.36-4.14 1.75-7.26 1.78 1.4-1.84 2.79-3.68 4.51-5.94-1.5-1.17-3.16-2.47-5-3.91 1.77-1.63 3.08-2.84 4.39-4.04 1.23-1.13 2.48-2.25 3.87-3.5-.83-.94-1.54-1.74-2.39-2.7-1.4 1.19-2.66 2.26-4.02 3.41-3.32-3.15 1.28-4.15 1.57-6.65-.82-1.12-1.86-2.55-3.02-4.15.52-1.1 1.07-2.26 1.65-3.51-1.71-.3-3.21-.56-4.82-.84 2.16-2.71 4.15-5.22 5.93-7.45-2.25-3.14-4.45-6.2-6.66-9.29 5.39-3.54 5.39-3.54.72-10.19 1.33.26 2.66.52 4.54.89-.08-.74.06-1.76-.32-2.54-.68-1.4-1.55-2.74-2.55-3.93-1.56-1.86-1.78-3.67-.6-5.8.72-1.29 1.46-2.47-.35-4-.58-.49.9-3.42 1.58-5.71-.34-.06-1.51-.39-2.69-.46-1.28-.08-2.57.09-3.61.13 1.7-2.76 3.34-5.41 4.98-8.06-.62-.5-1.24-1-1.86-1.51-.29.79-.38 2.03-.93 2.28-.9.41-2.16.42-3.13.13-.39-.12-.83-1.85-.51-2.21 4.27-4.92.34-7.96-2.44-11.28-.42-.5-.81-1.04-.96-1.24.96-1.48 1.89-2.67 2.48-4.01.12-.26-1.26-1.68-1.57-1.56-1.52.56-2.9 1.47-4.63 2.41-.1-.16-.54-.84-.58-.91 1.24-2.07 2.23-3.72 3.26-5.43-4.07-2.24-5.83.75-8.04 2.33-3.11-5.26-3.11-5.26-9.34-.87-1.95-2.99-3.26-3.07-8.07-.47-3.67-3.25-3.7-3.31-8.2-.39-1.57 1.02-2.72 1.49-4.36-.06-.69-.65-2.47-.6-3.55-.25-1.99.64-3.63.96-5.73-.07-1.3-.64-3.27.09-5.29.22-2.07-2.63-3.31-2.66-6 0-1.2 1.19-2.56 3.43-4.17-.03-.36-.76-2.89-.8-4.37-.66-.98.1-1.87 1.13-3.64 2.28.74-1.71 1.3-2.59 1.48-3.55.14-.75-.2-1.59-.32-2.4-.76.18-1.74.11-2.24.57-2.2 2.05-4.27 4.25-6.31 6.33-1.93-1.71-3.69-3.27-5.78-5.13-.66 1.41-.86 2.54-1.53 3.05-.71.54-2.57.89-2.72.64-2.4-4.21-4.94-1.95-7.71.06.28-1.88.49-3.37.6-4.1-4.2-.87-8.16-1.68-12.44-2.56 2.39-3.48.34-5.19-1.79-6.42.55-3.56 1.12-6.81 1.53-10.08.24-1.91.54-3.63 2.97-3.68 1.99-.04 4.15-.26 3.97 2.83-.01.18.48.39.88.69 2.37-2.27 1.42-4.3-.95-6.64 3.6.56 7.22 2.5 7.83-2.95-.68-.17-1.47-.21-2.08-.56-.7-.4-1.6-.99-1.74-1.64-.12-.59.57-1.45 1.09-2.04.43-.48 1.12-.72 1.69-1.08 4.2-2.63 4.2-2.63 7.64 1.1 2.87-1.85 5.91-4.91 9.14-.53 1.24-.98 2.19-1.73 3.13-2.46 4.45 3.69 4.45 3.69 9.85.49.44 1.54.88 3.09 1.32 4.64.39.13.78.26 1.17.39 2.96-3.51 5.92-7.01 8.88-10.52.4.2.8.41 1.2.61.5 2.81-4.31 6.11.09 8.68 1.86-2.92 3.62-5.7 5.58-8.78-1.32-1.67-4.72-3.55-1.05-6.36 3.54-2.7 4.38-2.72 5.41-1.14-1.38 1.46-2.71 2.85-4.03 4.24.3.49.6.98.89 1.47 1.84-.57 3.69-1.12 5.52-1.71.31-.1.56-.36.83-.56 3.64-2.84 7.2-6.11 11.81-1.48.88-1.13 1.47-1.88 2.16-2.75 1.49 2.06.76 3.38-.89 4.6-1.38 1.02-2.66 2.17-3.73 3.7 3.09.55 5.58-.78 7.63-2.54 2.1-1.79 3.74-4.13 5.77-6.44 3.24 3.64 6.31 3.99 9.47 1.23.37.58.59.84.71 1.13.39 1.02.74 2.06 1.11 3.09.74-.95 1.58-1.85 2.22-2.86 1.35-2.14 1.58-4.26-.47-6.6.74.13 1.94.03 2.15.44 1.94 3.81 4.12 1.7 6.28.37.47-.29.91-.62 1.5-1.02 1.03.7 2.03 1.38 3.85 2.61-.3-2.51-.51-4.32-.76-6.41 2.89-.92 3.54 2.82 5.45 3.32.98-1.18 1.72-2.88 2.86-3.21 1.24-.36 2.85.54 4.29.94.42.12 1 .69 1.15.57 3.77-2.82 7.83.66 11.67-.56.89-.28 2.18-.36 2.9.09 3.29 2.03 5.54.27 7.9-1.72 1.7-1.44 3.57-2.68 5.43-4.06 1.11.66 2.15 1.29 3.57 2.13 1.61-2.17 3.23-4.36 4.86-6.57-2.24-1.26-2.24-1.26-5.83 2.49-1.01-3.34-.95-2.62 5.49-8.15 1.12 1.31 2.24 2.62 3.35 3.92 3.88-2.79 5.19-2.77 7.48-.8 3.71-.24 6.43-.44 9.16-.59 2.1-.12 4.21-.17 6.31-.26.22-.01.51-.24.63-.16 2.93 1.89 5.29.77 7.56-1.29.31-.28 1.22-.32 1.58-.08 2.51 1.7 4.57.74 7.12-.27 1.4-.55 3.72 1.24 5.68 2 2.03-1.44 4.16-3.03 6.38-4.51 1.7-1.13 3.46-2.09 5.45-.36.39.34 1.45.49 1.79.21 2.41-1.95 4.71-4.02 7.35-6.33 1.02.87 2.78 2.35 4.52 3.84 3.8-4.03 3.8-4.03 8.29-.6 1.49-1.36 3.02-2.76 4.61-4.22 1.84 1.45 3.58 2.82 5.41 4.26 1.18-.79 2.26-1.53 3.34-2.26-.67 3.33-3.48 6.58.54 9.41-6.86 6.64-7.54 8.27-4.59 9.9 1.12-.88 2.18-1.71 3.25-2.55.24.21.47.43.71.64-.57 1.08-1.74 2.24-1.6 3.22.54 3.84 1.33 7.6-.65 11.3-.2.37.32 1.32.75 1.77 1.61 1.69 1.34 3.43.28 5.19-1.03 1.7-.71 2.98.16 4.83.7 1.49-.36 3.81-.69 6.08 2.18.96 2.77 2.56.85 5.13-1.88 2.52-1.42 5.22 1.05 7.88-3.28 2.61-6.26 5.3-9.61 7.4-.84.53-2.87-.82-4.24-1.28-2.66 2.37-5.49 4.9-8.7 7.77-1.26-2.51-2.15-4.27-3.49-6.95-1.63 2.35-3.04 4.37-4.6 6.63-3.11-4.06.3-5.7.81-8.64-.78.47-1.69.81-2.33 1.43-1.28 1.24-2.27 2.82-3.64 3.93-2.84 2.3-5.9 2.39-9.1.07-1.66 2.38-3.46 2.33-5.6.56-.74-.61-2.35-.96-3.15-.57-4.53 2.19-9.35 1.75-14.11 2.02-.54.03-1.19.57-1.54 1.05-3.76 5.27-7.46 10.58-11.21 15.91 2.95 3.06 3.92-1.35 6.2-1.25 0 .49.15 1.08-.04 1.51-.21.48-.73.82-1.11 1.23-6.46 6.85-6.48 7.15-1.21 14.6.51.71.95 1.47 1.98 3.1-3.29.59-6.09 1.07-8.89 1.62-.59.12-1.35.36-1.63.79-.25.39-.11 1.24.17 1.71.74 1.25 1.64 2.39 2.64 3.81-1.05 1.62-2.13 3.28-3.33 5.12.56.75 1.13 1.52 1.78 2.41-2.07 3.01-4.15 6.04-6.91 10.04 2.62-.37 4.29-.61 6.43-.91-.13-.12.24.14.51.48.26.32.41.72.14.22-2.17 3.04-3.99 5.58-5.8 8.11.32.35.64.7.96 1.05 1.53-.65 3.06-1.29 4.52-1.91 2.05 3.35-4.59 6.59.22 9.62-3.21 5.15-3.21 5.15 1.18 10.74-1.42 1.07-2.84 2.15-4.4 3.32 1.55 1.3 2.98 2.51 4.66 3.92-2.62 3.11-5.17 6.14-7.97 9.46 3 2.13 4.17-1.33 6.64-1.54-.09 4.56-4.89 6.01-5.24 9.3.66 2.23 1.1 4.56 2.05 6.66.62 1.37 1.96 2.42 2.98 3.61-4.02 2.59-2.49 4.93.69 8.68-1.25-.1-2.25-.03-3.16-.29s-1.73-.84-2.59-1.28c-.19.25-.37.49-.56.74.56.48 1.04 1.12 1.68 1.4 2.49 1.06 5.6 7.65 4.11 9.74-2.12 2.97-1.89 5.46.57 7.91-3.86 2.49-3.77 3.77.01 8.02-1.09 2.5-2.09 4.79-3.21 7.35-.46-.11-1.5-.36-2.51-.59-2.17 3.65.9 5.26 2.97 7.32-1.17 1.52-2.24 2.89-3.46 4.48 5.83 3.78.74 6.37-1.61 9.8 2.51.37 4.43.65 6.02.89-1.79 2.31-4.02 5.2-6.52 8.45 2.34.89 3.97 1.52 5.68 2.17-2.6 1.75-4.6 3.09-6.6 4.43.46.61.93 1.23 1.39 1.84 1.3 1 2.59 2.01 3.92 3.03-2.62 3.85-4.68-1.07-7.98-.33 4.82 2.14 4.17 4.79 2.05 7.92-.49.73-.11 2.47.44 3.4 2.57 4.31 2.64 4.27-1.39 8.1 1.97 1.98 4.05 3.87 5.88 5.98.76.87.99 2.2 1.65 3.77-1.34-.11-1.67-.04-1.75-.15-2.62-3.72-3.73-3.83-7.41-.6-1.07.94-2.11 1.93-3.19 2.91 1.35 1.96 2.6 3.76 4.07 5.88-2.95.87-4.16 2.7-2.87 5.07 1.89 3.63 1.28 6.65-.84 9.05zm-9.49-101.59c-.24 1.01-.5 2.13-.77 3.28-1.57 0-2.88 0-4.26 0 .15-.98.3-1.91.49-3.19-2.6 1.84-4.75 3.38-6.97 4.96 1.97.59 3.9 1.17 6.06 1.83-1.25.86-2.14 1.47-3.03 2.08.21.33.42.65.64.98 5.81.11 8.29-5.46 13.14-7.74-2.03-1.63-3.54-2.85-4.99-4.02 1.1-2.1 2.03-3.9 2.97-5.7-.35-.24-.71-.47-1.06-.71-2.35 1.69-4.69 3.38-7.84 5.64 2.33 1.07 3.84 1.76 5.62 2.59zm76.98-193.55c1.09-1.77 1.77-2.88 2.75-4.48 2.21-.92 3.09.78 3.43 4.42 1.36-1.67 2.72-2.6 2.67-3.45-.08-1.31-1.11-2.56-1.94-4.24.13-.18.76-.84 1.16-1.62.17-.34.01-1.11-.27-1.34-.29-.23-.97-.14-1.4.01-1.32.48-2.6 1.06-4.33 1.78-.03.08-.19 1.26-.61 1.37-4.19 1.04-3.31 3.59-1.46 7.55zm-209.96 32.19c-2.56-.62-4.3-1.03-6.38-1.53 1.62-2.08 3.01-3.86 4.89-6.25-4.46-.07-6.45 2.88-8.49 3.68 1.15 3.56 2.19 6.78 3.27 10.13.55-.39 1.24-.88 1.97-1.4-.49-.86-.91-1.59-1.44-2.52 1.95-.67 3.68-1.26 6.18-2.11zm214.95-51.04c-1.31.88-2.42 1.58-3.49 2.34-1.13.81-2.21 1.68-3.37 2.56 2.45 2.14 8.57 2.22 11.06.27-1.37-1.69-2.74-3.38-4.2-5.17zm-8.96 9.97c-2.33-1.94-4.13-3.45-5.72-4.77-2.31 3.16-4.41 6.02-6.52 8.91.56-.13 1.96-.05 2.27-.59 2.13-3.77 5.86-2.88 9.97-3.55zm-10.92 26.35c.14.44.29.88.43 1.32 3.27-.44 5.45-3.07 8.15-4.65-.05-.39-.09-.77-.14-1.16-3-.25-6-.49-9.73-.8 1.69 1.59 2.79 2.62 4.04 3.8-1.07.57-1.91 1.03-2.75 1.49zm-162.76 7.26c2.44-1.7 4.6-3.21 6.73-4.7-1.47-2.88-2.24-2.79-8.35.87.49 1.16.99 2.34 1.62 3.83zm87.51 2c-1.97-1.32-3.37-2.46-5.22-.03-3.04 3.99-3.2 3.86-1.51 5.86 2.21-1.92 4.42-3.83 6.73-5.83zm-12.14-16.36c2.59-1.24 4.26-1.75 5.53-2.75.81-.64 1.23-1.98 1.44-3.08.07-.39-1.32-1.53-1.48-1.43-1.66 1.05-3.35 2.12-4.7 3.52-.61.62-.46 1.98-.79 3.74zm-30.41 6.19c4.18-1.53 4.03-6.06 7.16-8.45-3.94-.66-7.31 3.6-7.16 8.45zm54.15 218.73c-.17.14-.35.27-.52.4.65 1.82 1.29 3.64 1.93 5.42-.93.63-1.7 1.16-2.56 1.73 1.82 1.17 3.48.37 6.9-3.19-1.93-1.46-3.84-2.91-5.75-4.36zm4.73-120.49c-.01-.33-.02-.67-.03-1-1.64-.14-3.99-.99-4.76-.24-1.17 1.15-3.45 2.84-1.52 5.66 2.2-1.54 4.26-2.98 6.31-4.42zm-16.03-67.87c.2.42.39.83.59 1.25 2.31-.63 4.62-1.25 7.41-2.01-1.19-1.47-2.06-2.54-3.12-3.84-1.78 1.66-3.33 3.13-4.88 4.6zm-90.47-14.81c-.01.3-.03.59-.04.89 1.46.14 2.93.28 5.03.49-2.12-5.55 2.69-4.13 4.87-5.78-1.2-.39-2.35-1.15-2.81-.85-2.45 1.6-4.72 3.47-7.05 5.25zm121.5 186.04c-1.61-.84-2.8-1.46-3.84-2-1.41 2.4-2.56 4.37-3.75 6.4 3.29.41 5.22-1.86 7.59-4.4zm77.82-219.88c-.16-.48-.31-.95-.47-1.43-1.63.34-3.54.28-4.82 1.15-1.29.87-2.87 2.48-.8 4.59 2.01-1.42 4.05-2.86 6.09-4.31zm-8.05-3.86h7.13c-1.39-.97-2.35-1.64-3.48-2.42.96-.62 1.66-1.08 2.36-1.53-.11-.33-.22-.66-.33-.98-1.16.31-2.61.3-3.42 1.01-.96.84-1.38 2.3-2.26 3.92zm-121.47 5.38c.22-.32.44-.65.66-.97-1.82-1.5-3.65-2.99-5.47-4.49-.24 5.87-.24 5.87 4.81 5.46zm1.5 9.49c.75 3.14 1.19 4.98 1.71 7.16 1.38-.63 2.71-1.23 5.2-2.36-2.59-1.8-4.44-3.08-6.91-4.8zm24.25 254.06c-.42-1.06-.76-1.91-1.12-2.8 1.77-.7 3.29-1.3 4.82-1.91-.06-.32-.11-.63-.17-.95-.99.13-2.1.01-2.95.43-1.38.69-2.66 1.63-3.84 2.64-.66.57-1.03 1.48-1.52 2.24.94.25 1.87.59 2.82.72.52.08 1.08-.19 1.96-.37zm41.9-265.5c.62-.43 1.9-1.31 3.18-2.2-.07-.29-.14-.57-.22-.86-2.61-.43-5.23-.87-7.84-1.3-.29.37-.58.75-.87 1.12 1.73.98 3.46 1.95 5.75 3.24zm-32.47 214.75c-1.37 1.47-2.74 2.77-3.88 4.25-.5.65-.54 1.65-.93 2.98 4.81-1.49 6.52-5.21 4.81-7.23zm-45.65-167.29c.26.2.53.4.79.6 2.13-1.03 4.27-2.05 6.54-3.14-1.86-3.08-3.9-.96-5.55-.38-.84.29-1.21 1.9-1.78 2.92zm53.11 4.48c-4.1-3.55-6.01.4-8.63.7.09.47.18.95.27 1.42 2.48-.63 4.96-1.26 8.36-2.12zm-14 173.38c-2.04-1.89-3.63-3.37-5.9-5.48.64 2.89 1.05 4.78 1.5 6.81 1.39-.43 2.52-.77 4.4-1.33zm-15.44-199.23c.43-.25.85-.5 1.28-.75-1.75-2.17-3.5-4.35-5.61-6.95-1.06 4.7 2.46 5.65 4.33 7.7zm20.13 159.76c.08-3.19.08-3.19 4.04-5.56-4.39-1.83-5.04 2.51-8.16 3.89 1.78.73 2.76 1.12 4.12 1.67zm-78.79-163.91c.32.21.64.41.95.62 1.7-1.36 3.4-2.72 5.48-4.39-1.72-.54-2.75-.86-4.13-1.3-.8 1.77-1.55 3.42-2.3 5.07zm-66.1 13.27c-.01-.18-.01-.36-.02-.54-2.39-.52-4.77-1.05-7.56-1.66.23 1.36.39 2.26.58 3.37 2.53-.42 4.77-.8 7-1.17zm142.12 4.02c-.34.32-.68.65-1.01.97.43 1.35.86 2.69 1.35 4.21 1.25-.31 2.26-.56 4.44-1.1-2.06-1.76-3.42-2.92-4.78-4.08zm20.81-18.65c4.38 1.46 4.73 1.06 5-3.24-1.3.84-3.15 2.04-5 3.24zm-33.43 16.8c-4.41 2.81-4.69 3.23-3.46 5.16 4.41-2.77 4.41-2.77 3.46-5.16zm14.76 228.81c2.51-.33 5.03-.65 7.54-.98-4.48-2.11-4.9-2.07-7.54.98zm27.72-237.94c5.22-.8 6.82-2.36 5.72-5.19-1.77 1.6-3.46 3.14-5.72 5.19zm61.69-8.01c-2.45-.39-4.89-.79-8-1.29 2.63 3.5 5.21 3.05 8 1.29zm-220.21 9.78c1.45 1.79 2.6 3.21 3.75 4.64.31-.59.95-1.23.87-1.76-.31-2.13-1.45-3.4-4.62-2.88zm44.86-15.58c-.15-.58-.29-1.17-.44-1.75-2.06.62-4.11 1.23-6.17 1.85.12.47.24.94.36 1.4 2.08-.5 4.16-1 6.25-1.5zm82.9 112.84c-.2.31-.4.61-.6.92.23 1.29.47 2.59.74 4.11 1.02-.5 1.97-.98 3.98-1.97-1.75-1.3-2.93-2.18-4.12-3.06zm-120.41-96.41c.07.37.14.74.22 1.12 2.04-.3 4.08-.6 6.58-.96-2.73-2.39-4.84-2.64-6.8-.16zm36.81-24.28c-2.91-1.63-4.91-.09-5.64 4.11 1.72-1.26 3.54-2.59 5.64-4.11zm173.18-26.99c.01.38.02.77.04 1.15h8.15c0-.38 0-.77 0-1.15-2.73 0-5.46 0-8.19 0zm-211.28 39.08c.08.52.17 1.03.25 1.55 2.42-.39 4.84-.79 7.26-1.18-.05-.4-.1-.81-.15-1.21-2.45.28-4.9.56-7.36.84zm19.66.3c-5.21-1.79-5.68-1.72-8.07 1.34 2.83-.48 5.06-.85 8.07-1.34zm156.93-6.08c-2.27-3.13-2.81-3.13-6.47 0zm-82.51 79.53c.23-.29.45-.58.68-.88-.22-1.28-.43-2.56-.65-3.84-.4-.08-.79-.16-1.19-.24-.37 1.22-.96 2.43-.99 3.65-.01.42 1.39.87 2.15 1.31zm69.23-108.87c-1.78 2.35-3.09 4.08-4.38 5.8 2.17-.12 3.97-1.43 4.76-3.7.18-.56-.23-1.33-.38-2.1zm19.19 17.17c-6.75-2.4-6.75-2.4-7.3.64 2.22-.19 4.38-.38 7.3-.64z" fill="#010105"/><path d="m283.71 33.55c-1.67 0-2.98 0-4.28 0-.17-.29-.34-.58-.51-.88 1.41-.97 2.83-1.94 4.24-2.91.27.26.55.52.82.78-.09 1.02-.18 2.03-.27 3.01z" fill="#010105"/></svg>