<svg enable-background="new 0 0 400 400" viewBox="0 0 400 400" xmlns="http://www.w3.org/2000/svg"><path d="m156.26 109.14c7.84-4.14 15.62-8.28 23.44-12.35.63-.33 1.5-.32 2.25-.28 11.94.59 23.88 1.11 35.81 1.85 5.56.35 11.15.81 16.6 1.86 4.31.84 7.77 3.35 8.97 8.06.66 2.59.28 4.27-2.6 5.45-7.95 3.28-15.72 6.99-23.64 10.36-2.06.87-2.78 2.09-3.04 4.22-1.88 15.77-4.27 31.49-5.69 47.3-.84 9.33-.35 18.78-.25 28.18.41 39.62.95 79.24 1.28 118.85.02 2.9 1.08 4.15 3.51 5.15 10.04 4.13 20.54 6.11 31.3 6.91 7.26.54 14.51 1.16 21.22 4.34 5.2 2.47 9.36 6.03 11.9 11.66-4.79 2.01-9.51 4.01-14.24 5.98-4.44 1.85-8.99 3.45-13.3 5.55-7.28 3.56-14.78 5.44-22.95 4.71-1.53-.14-3.39.79-4.75 1.73-2.65 1.83-5.05 4.01-7.64 6.12-6.39-5.42-12.56-10.76-18.89-15.91-1.26-1.02-3.12-1.81-4.71-1.82-15.11-.14-30.22-.07-45.33-.09-6.14-.01-12.29.16-18.41-.22-6.83-.42-11.62-6.26-11.06-13.1.07-.9 1.18-2.03 2.09-2.49 7.34-3.72 15.15-5.27 23.37-4.69 8.56.61 16.97.01 25.14-2.87 6.45-2.27 9.62-6.13 9.38-13.01-.41-11.74-1.16-23.47-1.88-35.19-.97-15.52-2.14-31.04-3.01-46.57-.19-3.32-.81-6.05-3.5-8.23-.72-.58-1.35-2.25-1.02-2.98 4.4-9.87 5.72-20.44 6.87-30.98 2.23-20.37 3.69-40.79 3.02-61.31-.32-10.03-.25-10.2-9.4-14.21-5.47-2.37-9.37-5.81-10.84-11.98z" fill="#010100"/><path d="m228.91 45.18c-5.27 1.07-10.52 2.63-15.87 3.13-19.2 1.78-38.41 1.95-57.59-.48-.67-.08-1.33-.27-1.99-.28-6.07-.17-9.35-3.33-9.85-9.91 2.21-1.03 4.81-2.24 7.41-3.46 5.86-2.76 11.57-5.92 17.62-8.19 6.23-2.33 12.44 1.23 18.76 1.16 7.15-.08 14.31.29 21.46.52 10.12.32 18.1 7.01 20.05 17.51z" fill="#010100"/><g fill="#fafbfa"><path d="m6.4 11.7c-1-.8-1.9-1.6-2.9-2.3l.6-.7c.9.7 1.9 1.4 2.9 2.2zm-2.1 8.3c.7-2.1 1.4-4.2 2-6.4.2.1.6.3 1 .4-.7 2.3-1.3 4.4-1.9 6.4zm3-12.8c-1.1-.9-2.1-1.7-2.9-2.4l.6-.7c1 .8 2 1.5 3 2.4zm1.4-1.3v-.9h10.2v.9c-.9 4.2-2.3 7.3-4.1 9.4 1.3 1.4 3.2 2.7 5.7 4-.2.2-.4.5-.7.9-2.5-1.4-4.4-2.7-5.7-4.2-1.4 1.5-3.5 3-6.1 4.4 0 0 0 0-.1-.1-.3-.4-.5-.7-.7-.8 2.7-1.3 4.7-2.8 6.2-4.2-1.8-2.2-3-5.3-3.7-9.4zm9.2 0h-7.1c.6 3.8 1.7 6.7 3.4 8.7 1.7-2 2.9-4.8 3.7-8.7z"/><path d="m31.6 3.6h.9v2.3h4.1v9.1h1.7v.9h-16.6v-.9h1.7v-9.1h4.1v-2.3h.9v2.3h3.1v-2.3zm-4 13.3.6.8c-1.9.9-3.8 1.9-5.8 2.8-.2-.3-.3-.6-.5-.9 2-.9 3.9-1.8 5.7-2.7zm-3.2-10.1v3.7h3.1v-3.7zm0 4.5v3.7h3.1v-3.7zm4.1-4.5v3.7h3.1v-3.7zm0 4.5v3.7h3.1v-3.7zm9.1 9.1c-2.1-1.1-4.1-2-5.8-2.7l.5-.8c2.2.9 4.1 1.8 5.8 2.6zm-1.9-13.6h-3.1v3.7h3.1zm-3.2 4.5v3.7h3.1v-3.7z"/></g></svg>