<svg enable-background="new 0 0 400 400" viewBox="0 0 400 400" xmlns="http://www.w3.org/2000/svg"><g fill="#010101"><path d="m232.16 71.27c12.39 5.7 21.62 13.86 27.8 25.02 8.77 15.83 13.79 32.81 12.45 51.07-.86 11.67-4.24 22.97-9.31 33.42-9.25 19.07-12.34 39.53-15.5 60.09-3.5 22.77 2.99 43.6 11.77 64.04 7.79 18.13 17.77 35.06 28.43 51.62.9 1.39 1.78 2.79 2.34 4.53-.67-.61-1.37-1.19-2.01-1.82-16.83-16.65-32.41-34.29-44.48-54.82-11.74-19.95-15.72-41.55-14.36-64.43.94-15.83 5.14-30.75 11.44-45.22 5.8-13.32 10.93-26.87 13.91-41.19 1.92-9.22.83-18.16-2.11-26.75-5.86-17.1-12.3-34-18.52-50.98-.49-1.33-1.06-2.63-1.85-4.58z"/><path d="m167.88 71.34c12.22 5.67 21.4 13.9 27.53 25.07 8.79 16.04 14.18 33.14 12.56 51.7-1 11.44-4.33 22.51-9.38 32.72-9.27 18.71-12.31 38.83-15.47 59.06-3.6 23.01 2.83 44.09 11.74 64.73 8.48 19.66 19.42 37.99 31.31 56.11-.51-.06-.86 0-1-.14-17.85-17.54-34.42-36.1-46.9-58-13.11-22.99-15.54-47.68-12.23-73.38 2.07-16.09 9.18-30.49 14.74-45.45 3.92-10.53 6.9-21.45 9.74-32.34 2.18-8.38.36-16.83-2.37-24.76-5.97-17.3-12.54-34.4-18.86-51.59-.42-1.07-.83-2.16-1.41-3.73z"/><path d="m164.18 361.07c-7.92-8.62-16.05-17.06-23.7-25.91-11.38-13.16-21.57-27.23-28.4-43.34-9.86-23.27-10.88-47.5-4.96-71.72 3.08-12.6 8.72-24.57 13.07-36.88 2.72-7.68 5.27-15.43 7.76-23.19 4.55-14.18 1.79-27.93-3.03-41.38-5.08-14.19-10.63-28.22-15.99-42.31-.55-1.44-1.18-2.84-2.05-4.91 6.64 2.77 11.8 6.49 16.51 10.88 11.06 10.29 16.47 23.62 20.79 37.69 5.71 18.59 3.12 36.47-3.7 54.11-3.7 9.57-8.57 18.85-10.99 28.73-3.59 14.61-6.26 29.55-7.9 44.51-2.21 20.17 4.45 38.86 12.28 57.07 7.58 17.61 17.16 34.14 27.47 50.27 1.2 1.88 2.41 3.74 3.62 5.61-.26.25-.52.51-.78.77z"/><path d="m279.14 57.73c-60.17 12.96-120.48 8.11-180.89.92 10.54-2.03 21-4.68 31.62-5.95 19.3-2.31 38.68-4.04 58.07-5.46 5.7-.42 11.53 1.26 17.32 1.55 10.61.53 21.31.03 31.83 1.24 14.13 1.63 28.13 4.47 42.18 6.78-.03.3-.08.61-.13.92z"/></g><path d="m6.4 11.7c-1-.8-1.9-1.6-2.9-2.3l.6-.7c.9.7 1.9 1.4 2.9 2.2zm-2.1 8.3c.7-2.1 1.4-4.2 2-6.4.2.1.6.3 1 .4-.7 2.3-1.3 4.4-1.9 6.4zm3-12.8c-1.1-.9-2.1-1.7-2.9-2.4l.6-.7c1 .8 2 1.5 3 2.4zm1.4-1.3v-.9h10.2v.9c-.9 4.2-2.3 7.3-4.1 9.4 1.3 1.4 3.2 2.7 5.7 4-.2.2-.4.5-.7.9-2.5-1.4-4.4-2.7-5.7-4.2-1.4 1.5-3.5 3-6.1 4.4 0 0 0 0-.1-.1-.3-.4-.5-.7-.7-.8 2.7-1.3 4.7-2.8 6.2-4.2-1.8-2.2-3-5.3-3.7-9.4zm9.2 0h-7.1c.6 3.8 1.7 6.7 3.4 8.7 1.7-2 2.9-4.8 3.7-8.7z" fill="#fbfafa"/><path d="m31.6 3.6h.9v2.3h4.1v9.1h1.7v.9h-16.6v-.9h1.7v-9.1h4.1v-2.3h.9v2.3h3.1v-2.3zm-4 13.3.6.8c-1.9.9-3.8 1.9-5.8 2.8-.2-.3-.3-.6-.5-.9 2-.9 3.9-1.8 5.7-2.7zm-3.2-10.1v3.7h3.1v-3.7zm0 4.5v3.7h3.1v-3.7zm4.1-4.5v3.7h3.1v-3.7zm0 4.5v3.7h3.1v-3.7zm9.1 9.1c-2.1-1.1-4.1-2-5.8-2.7l.5-.8c2.2.9 4.1 1.8 5.8 2.6zm-1.9-13.6h-3.1v3.7h3.1zm-3.2 4.5v3.7h3.1v-3.7z" fill="#fbfafa"/></svg>