<svg enable-background="new 0 0 400 400" viewBox="0 0 400 400" xmlns="http://www.w3.org/2000/svg"><path d="m215.63 74.2c.59-1.36 1.15-2.65 1.69-3.92-4.09-2.08-4.75-1.93-6.09 1.88-.68 1.94-1.74 2.53-3.71 2.44-6.59-.28-13.2-.3-19.78-.71-1.29-.08-2.73-1.26-3.69-2.32-2.15-2.35-4.1-3.35-7.23-1.38-3.57 2.25-7.62 3.13-11.91 2.13-1.29-.3-2.64-.29-4.29-.46-1.41 6.78-2.79 13.41-4.21 20.23-1-.12-1.83-.23-2.84-.35-.29 16.22-.61 32.33-.86 48.44-.15 9.4.28 18.84-.42 28.19-.59 7.88-2.44 15.66-3.7 23.49-.39 2.42-1.07 4.88-.95 7.29.9 18.17-4.07 35.2-9.93 52.04-4.03 11.57-9.47 22.43-17.3 32.3-.6-.66-1.13-1.24-1.61-1.75-.32.11-.48.12-.51.19-.56 1.21-1.11 2.42-1.72 3.77.81.67 1.55 1.29 2.25 1.87 0 .28.08.54-.01.68-6.58 9.44-12.34 19.6-19.93 28.14-15.57 17.53-35.21 29.16-57.9 35.29-2.08.56-4.74-1.01-7.55-1.69-1.35 3.06-4.14 5.18-8.23 5.1-1.02-.02-2.02-.55-3.04-.85.46-.9.75-1.97 1.41-2.69 13.64-14.82 27.58-29.38 40.92-44.46 12.92-14.6 25.02-30.04 33.4-47.71 5.32-11.23 8.43-23.5 12.7-35.24 2.78-7.65 5.85-15.19 8.74-22.79.28-.73.56-1.87.21-2.36-2.86-4-2.49-8.53-2.12-12.97 2.14-25.65 4.37-51.29 6.61-76.93.12-1.42.51-2.86.99-4.21 1.45-4.11 3-8.18 4.51-12.27 1.54-4.17 2.59-8.66 7.51-10.71-2.94-4.24-.97-8.04-.09-12.07 1.46-6.73 5.51-10.5 11.96-11.77 9.85-1.94 19.69-4.54 29.64-5.16 12.95-.81 25.41-3.77 38.03-6.13 13.3-2.49 26.51-5.54 39.86-7.66 4.09-.65 8.6.66 12.78 1.66 1.11.26 1.68 2.7 2.57 4.08 1.24 1.93 2.46 3.89 3.87 5.69 1.03 1.32 3.49 2.57 3.34 3.57-.37 2.61-1.17 5.76-2.97 7.45-7.77 7.34-17.05 12.1-27.87 12.54-10.78.44-21.6.1-32.53.1zm-70.72-11.17c-.3.14-.61.29-.91.43v7.77c.37.15.74.29 1.11.44.79-1.64 2.11-3.26 2.2-4.93.06-1.2-1.54-2.47-2.4-3.71zm36.16 2c2.04-.74 3.54-1.28 5.59-2.02-2.12-1-3.72-1.75-5.59-2.63z" fill="#010000"/><path d="m208.63 145.89c2.3 0 4.27.35 6.06-.08 2.5-.61 5.37-1.22 7.16-2.85 4.06-3.71 8.92-5.45 13.92-7.06.97-.31 2.22-.05 3.27.22 2.93.73 5.91 1.37 8.71 2.46 5.55 2.16 11.17 1.76 16.83.91 4.53-.68 8.87-.37 13.1 1.63.96.46 2.41.06 3.59-.18 2.25-.45 4.51-1.67 6.69-1.52 8.56.59 17.1 1.49 25.62 2.47 16.77 1.93 33.54 3.88 50.29 6.04 5.67.73 5.64 1.01 6.61 6.72.32 1.86.6 3.72.96 6-6.06.38-9.58 4.31-13.02 8.55-2.04 2.5-4.6 3.55-8.26 2.59-9.72-2.57-19.51-5.03-29.42-6.67-5.89-.97-12.04-.44-18.08-.36-14.1.18-28.19.55-42.29.69-1.92.02-3.85-.83-6.43-1.44-2.6 4.61-4.11 10.46-4.97 16.52-2.03 14.25.89 27.85 5.77 41.1 6.96 18.87 14.13 37.67 21.24 56.48.43 1.13 1.16 2.15 1.82 3.17 11.36 17.55 22.71 35.09 34.11 52.61 2.62 4.02 3.2 8.01 1.22 12.59-1.59 3.67-2.67 7.61-3.53 11.53-.61 2.78-2.68 2.35-4.37 2.58s-3.39 1.12-5.04-1.07c-2.4-3.18-5.56-5.79-8.3-8.73-6.02-6.44-12.3-12.67-17.87-19.48-7.08-8.65-13.76-17.66-20.23-26.78-3.46-4.88-6.48-10.15-9.03-15.56-4.81-10.2-9.15-20.63-13.79-31.21 1.86-1.21 3.68-2.39 5.5-3.57-.24-.31-.35-.58-.49-.6-7.18-1.04-7.24-1.02-9.04-8.08-4.9-19.27-10.09-38.48-14.48-57.87-3.06-13.56-4.08-27.42-3.83-41.75zm37.58 44.14c-1.37-.71-2.5-1.3-3.61-1.88-3.13 5.38-.83 10.43 5.01 10.98-.81-1.59-1.54-3.03-2.53-4.96.23-.83.64-2.32 1.13-4.14zm-3.4 63.47h7.57c-.73-1.97-1.36-3.65-1.94-5.21-1.85 1.73-3.46 3.21-5.63 5.21zm91.76-106.26c-2.93.92-4.78 2.06-2.93 5.47 1.47-.84 2.85-1.63 4.38-2.5-.51-1.06-.94-1.92-1.45-2.97z" fill="#010000"/><g fill="#fbfcfa"><path d="m361.2 9.6.8-1c.9.7 1.9 1.4 2.9 2.3l-.9 1.1c-1-1-2-1.8-2.8-2.4zm.5 10.6c.9-2.1 1.6-4.3 2.3-6.7.4.2.8.4 1.3.6-.7 2.1-1.5 4.3-2.2 6.6zm.4-15.2.9-.9c1 .8 2 1.6 2.8 2.4l-1 1c-.9-.9-1.8-1.7-2.7-2.5zm12.5-1.2h1.2v1.4h2.7v1.1h-2.7v2.7h-1.2v-.6h-1.8v1.3h4.9v3.8h-1.2v-.5h-3.7c0 .4-.1.9-.1 1.2h5.1v1h-5.2c0 .5-.1.9-.2 1.2h6v1h-5.2c1.1 1.3 2.9 2 5.5 2.2-.4.4-.7.8-.9 1.3-2.9-.5-4.8-1.6-5.7-3.5h-.1c-.8 1.7-2.7 2.9-5.9 3.6-.2-.4-.6-.8-.9-1.1 2.8-.6 4.6-1.4 5.4-2.5h-4.8v-1h5.3c.1-.3.2-.7.2-1.2h-4.9v-1h5c0-.4 0-.8.1-1.2h-3.5v.5h-1.2v-3.8h4.9v-1.3h-1.8v.5h-1.2v-2.7h-2.7v-1h2.6v-1.4h1.2v1.4h4.7v-1.4zm-6.6 8.3h3.6c0-.4 0-.9 0-1.4h-3.6zm1.9-4.6h4.7v-1.3h-4.7zm6.6 3.2h-3.7v1.4h3.7z"/><path d="m385.3 3.8h1.3v2.2h2.8v-2.2h1.3v2.2h4.1v9.1h1.7v1.3h-16.9v-1.3h1.7v-9.1h4.1v-2.2zm.4 13.1.7 1.2c-1.8.9-3.8 1.9-6 2.9-.2-.4-.5-.8-.8-1.3 2.3-1 4.3-1.9 6.1-2.8zm-3.1-6.4h2.8v-3.2h-2.8zm0 4.6h2.8v-3.3h-2.8zm4-4.6h2.8v-3.2h-2.8zm0 4.6h2.8v-3.3h-2.8zm3.7 1.9c2.1.9 4.1 1.8 6.1 2.7l-.7 1.3c-2.2-1.1-4.2-2-6.1-2.9zm3.2-9.7h-2.8v3.2h2.8zm-2.8 7.8h2.8v-3.3h-2.8z"/></g></svg>