<svg enable-background="new 0 0 400 400" viewBox="0 0 400 400" xmlns="http://www.w3.org/2000/svg"><g fill="#fafafb"><path d="m12.4 4.8-6.1 9h6v1.2h-8v-.5l6.1-8.9h-5.7v-1.2h7.6v.4z"/><path d="m14 15v-10.6h3c1.6 0 2.9.5 4 1.4s1.6 2.2 1.6 3.8-.5 3-1.6 3.9-2.4 1.5-4 1.5zm1.4-9.4v8.2h1.6c1.3 0 2.4-.4 3.1-1.1s1.1-1.8 1.1-3.1-.4-2.3-1.2-3-1.8-1-3.1-1z"/><path d="m26.1 4.4v10.6h-1.4v-10.6z"/><path d="m36.1 14.6c-.8.4-1.8.6-2.9.6-1.5 0-2.7-.5-3.6-1.4s-1.4-2.2-1.4-3.8c0-1.7.5-3.1 1.5-4.1s2.3-1.6 3.9-1.6c1 0 1.8.1 2.5.4v1.4c-.8-.4-1.6-.6-2.5-.6-1.2 0-2.1.4-2.9 1.2s-1.1 1.8-1.1 3.2c0 1.3.3 2.3 1 3s1.6 1.1 2.7 1.1c1 0 2-.2 2.7-.7v1.3z"/><path d="m37.6 14.3c0-.2.1-.5.3-.6s.4-.3.6-.3c.3 0 .5.1.6.3s.3.4.3.6-.1.4-.3.6-.4.3-.6.3c-.3 0-.5-.1-.6-.3s-.3-.4-.3-.6z"/><path d="m50.2 15h-1.6l-5.3-8.2c-.2-.2-.3-.5-.4-.7 0 .2.1.7.1 1.5v7.4h-1.4v-10.6h1.7l5.2 8.1c.2.4.4.6.4.7 0-.3-.1-.8-.1-1.5v-7.3h1.4z"/><path d="m58.6 15h-5.7v-10.6h5.5v1.2h-4.1v3.4h3.8v1.2h-3.8v3.6h4.3z"/><path d="m67.1 5.6h-3.1v9.4h-1.4v-9.4h-3v-1.2h7.5z"/></g><path d="m240.89 24.85c6.12.36 12.58.99 19.04 1.06 11.63.13 23.26-.18 34.88-.12 5.75.03 11.36 1 16.4 4.07 5.65 3.45 8.53 8.71 9.51 15.06.12.8-.84 2.22-1.67 2.66-5.94 3.11-11.95 6.09-18 8.99-1.27.61-2.75.96-4.17 1.1-25.93 2.57-51.89 4.91-77.8 7.68-11.88 1.27-23.89 2.43-35.45 5.26-19.31 4.72-33.53 17.27-43.99 33.65-6.28 9.83-11.12 20.61-16.11 31.2-1.4 2.97-1.18 6.76-1.46 10.2-2.23 27.32-4.41 54.65-6.58 81.98-2.11 26.55-4.27 53.09-6.27 79.64-1.41 18.66-3.46 37.21-8.71 55.23-3.66 12.56-12.58 14.68-23.35 10.86-.9-.32-1.72-1.38-2.19-2.3-4.68-9.01-6.85-18.47-4.17-28.51 3.49-13.05 3-26.32 3.12-39.64.41-45.66 1.18-91.31 1.89-136.97.04-2.4.5-4.92 1.31-7.18 9.94-27.53 19.97-55.04 30.05-82.52.64-1.74 1.66-3.41 2.81-4.86 2.98-3.77 6.49-7.18 9.15-11.15 5.24-7.83 12.95-12.03 21.14-15.81 17.87-8.25 36.79-12.44 56.19-14.73 14.66-1.72 29.34-3.21 44.43-4.85z" fill="#010105"/><path d="m209.19 279.67c1.1-20.89 2.31-41.78 3.26-62.68.44-9.71-3.65-17.87-10.41-24.49-1.93-1.89-5.35-2.33-8.15-3.24-1.01-.33-2.22-.08-3.34-.05-9.07.27-9.61-5.27-8.48-11.4.24-1.28 1.67-2.83 2.93-3.33 4.73-1.89 9.59-3.5 14.46-5.03 2.76-.87 5.75-1.07 8.45-2.09 5.42-2.06 10.94-1.65 16.52-1.34 29.92 1.66 59.84 3.25 89.75 4.93 7.15.4 11.89 4.77 12.75 11.83.37 3.06.24 6.25-.15 9.31-.16 1.23-1.38 2.82-2.54 3.34-11.96 5.48-24.51 6.49-37.39 4.53-8.74-1.33-17.58-2.09-25.41 2.83-4.35 2.73-8 6.65-11.7 10.3-.94.93-1.14 2.86-1.25 4.36-1.65 21.41-3.21 42.83-4.86 64.25-.14 1.87-.52 3.76-1.08 5.54-1.61 5.11-3.25 10.22-5.09 15.25-2.94 7.99-4.87 16.09-5.47 24.69-.39 5.64-2.38 11.36-4.59 16.65-3.18 7.62-14.88 9.79-20.84 4.22-.62-.58-.68-2.01-.63-3.03 1-20.45 2.05-40.89 3.1-61.34.07-1.34.16-2.68.24-4.02-.02.01-.05.01-.08.01z" fill="#010105"/></svg>