<svg enable-background="new 0 0 400 400" viewBox="0 0 400 400" xmlns="http://www.w3.org/2000/svg"><path d="m374.8 390.4.4-.4c.7.5 1.3 1 1.8 1.4l-.5.5c-.5-.6-1.1-1.1-1.7-1.5zm1 7.3-.6-.3c.5-1.4 1.1-2.8 1.5-4.3.2.1.4.2.6.3-.5 1.3-1 2.8-1.5 4.3zm-.4-10.3.4-.4c.4.3 1 .8 1.7 1.4l-.5.5c-.4-.5-1-1-1.6-1.5zm2.5.3h1.7v-1h.6v1h3.5v-1h.6v1h1.8v.5h-1.8v1.4h-2v1h3.2v2h-3.2v.9h3.3v.5h-3.4c0 .3-.1.6-.1.9h4v.5h-3.7c.7.9 1.9 1.5 3.8 1.7-.1.2-.2.4-.3.6-2.1-.4-3.5-1.1-4-2.1-.4 1-1.8 1.7-4 2.2-.1-.2-.2-.4-.3-.6 2.1-.4 3.4-1 3.8-1.8h-3.4v-.5h3.6c.1-.3.1-.6.2-.9h-3.3v-.5h3.4c0-.3 0-.6 0-.9h-3.2v-2h3.3v-1h-2.1v-1.4h-1.7v-.5zm1.1 3.5v1h2.7c0-.3 0-.4 0-.4 0-.1 0-.2 0-.2 0-.1 0-.2 0-.3h-2.7zm1.2-3v.9h3.5v-.9zm4.7 3h-2.6v.6.4h2.6z" fill="#fbfcfa"/><path d="m393.6 386.7h.6v1.5h2.7v6.1h1.1v.6h-11v-.6h1.1v-6.1h2.7v-1.5h.6v1.5h2.1v-1.5zm-2.7 8.8.4.6c-1.2.6-2.5 1.3-3.8 1.9-.1-.2-.2-.4-.3-.6 1.2-.6 2.5-1.2 3.7-1.9zm-2.2-6.7v2.4h2.1v-2.4zm0 3v2.5h2.1v-2.5zm2.8-3v2.4h2.1v-2.4zm0 3v2.5h2.1v-2.5zm6 6.1c-1.4-.7-2.7-1.3-3.9-1.8l.3-.6c1.5.6 2.7 1.2 3.9 1.7zm-1.2-9.1h-2.1v2.4h2.1zm-2.1 3v2.5h2.1v-2.5z" fill="#fbfcfa"/><path d="m240.23 247.61c-2.63-2.67-2.8-6.27-1.61-9.55 3.6-9.95 7.46-19.81 11.54-29.57 1.54-3.68 3.87-7.06 6.05-10.44 2.68-4.15 4.02-7.74 2.33-13.31-1.8-5.93-.56-12.8-.51-19.25.07-9.37 1.37-18.89.09-28.07-1.38-9.86-4.73-19.53-8.05-29-1.21-3.45-4.72-6.14-7.33-9.04-1.46-1.63-2.27-3.14-1.33-5.37 3.02-7.17 1.56-14-1.98-20.51-3.73-6.85-7.7-13.57-11.81-20.79-4.72 5.01-9 9.52-13.23 14.08-4.1 4.41-7.72 9.46-14.66 9.8.17 1.63.29 2.8.45 4.35-3.66 1.33-7.39 2.68-11.34 4.12.16.79.13 1.61.48 2.21 2.36 4.1 1.34 7.47-1.27 11.26-5.87 8.55-11.23 17.45-16.85 26.28 7.33 4.4 14.6 8.57 21.65 13.08 3.07 1.96 5.98 4.36 8.45 7.04 3.59 3.89 4.44 8.89 2.93 13.52-12.88-3.16-25.79-6.24-38.65-9.53-10.67-2.73-20.73-1.28-29.96 4.48-8.91 5.55-17.71 4.94-27.15.93 1.38-5.26 2.71-10.42 4.11-15.56.16-.6.65-1.17 1.1-1.63 10.63-10.83 12.25-23.85 9.25-37.99-1.55-7.32-3.48-14.57-2.47-22.2 1.33-10.01 6.36-17.67 14.61-23.92 4 8.69 7.99 17.14 11.73 25.69.55 1.27.26 3.16-.21 4.57-1.1 3.28-.11 5.32 2.99 6.61 1.01.42 1.91 1.12 2.82 1.66 14.26-10.18 27.78-20.95 38.64-34.71.76-.96 1.74-1.77 2.43-2.78 4.05-5.97 9.51-9.43 16.78-10.19 1.43-.15 2.98-1.36 4.05-2.48 4.7-4.93 9.15-10.09 13.91-14.95.83-.84 2.86-1.16 4.09-.83 7.07 1.9 12 6.81 14.82 13.17 4.87 11.01 8.87 22.41 13.42 33.57 3.54 8.68 7.29 17.29 11.11 25.85.97 2.17 1.19 4-.34 5.86-2.8 3.41-2.21 6.66-.37 10.45 4.91 10.15 9.54 20.44 13.94 30.83.91 2.16.77 5.03.33 7.43-1.13 6.15-2.73 12.21-4.06 18.33-.22 1.02-.45 2.44.05 3.16 5.83 8.32 3.46 17.16 1.62 25.87-1.64 7.76-5.06 14.67-10.54 20.64-4.7 5.12-6.37 11.71-7.17 18.47-1.34 11.31-4.43 22-9.53 32.28-10.79 21.76-22.6 42.92-35.65 63.4-5.95 9.33-11.62 18.85-17.47 28.24-3.93 6.31-9.4 10.49-16.97 11.24-1.24.12-3.02-.65-3.83-1.62-2.74-3.26-1.69-9.5 1.75-12.03 3.33-2.45 6.76-4.8 9.94-7.44.86-.71 1.6-2.47 1.34-3.49-1.09-4.32-.45-8.34 1.07-12.42 11.67-31.32 26.44-61.08 44.47-89.8zm17.89-135.03c4.49-6.68 3.43-12.13-2.6-14.91.85 4.85 1.66 9.51 2.6 14.91zm-24.03-84.85c.44 2.55.81 4.67 1.35 7.74 1.28-2.57 2.09-4.22 3.04-6.14-1.51-.55-2.72-1-4.39-1.6z" fill="#010101"/></svg>