<svg enable-background="new 0 0 400 400" viewBox="0 0 400 400" xmlns="http://www.w3.org/2000/svg"><path d="m374.8 390.4.4-.4c.7.5 1.3 1 1.8 1.4l-.5.5c-.5-.6-1.1-1.1-1.7-1.5zm1 7.3-.6-.3c.5-1.4 1.1-2.8 1.5-4.3.2.1.4.2.6.3-.5 1.3-1 2.8-1.5 4.3zm-.4-10.3.4-.4c.4.3 1 .8 1.7 1.4l-.5.5c-.4-.5-1-1-1.6-1.5zm2.5.3h1.7v-1h.6v1h3.5v-1h.6v1h1.8v.5h-1.8v1.4h-2v1h3.2v2h-3.2v.9h3.3v.5h-3.4c0 .3-.1.6-.1.9h4v.5h-3.7c.7.9 1.9 1.5 3.8 1.7-.1.2-.2.4-.3.6-2.1-.4-3.5-1.1-4-2.1-.4 1-1.8 1.7-4 2.2-.1-.2-.2-.4-.3-.6 2.1-.4 3.4-1 3.8-1.8h-3.4v-.5h3.6c.1-.3.1-.6.2-.9h-3.3v-.5h3.4c0-.3 0-.6 0-.9h-3.2v-2h3.3v-1h-2.1v-1.4h-1.7v-.5zm1.1 3.5v1h2.7c0-.3 0-.4 0-.4 0-.1 0-.2 0-.2 0-.1 0-.2 0-.3h-2.7zm1.2-3v.9h3.5v-.9zm4.7 3h-2.6v.6.4h2.6z" fill="#fbfcfa"/><path d="m393.6 386.7h.6v1.5h2.7v6.1h1.1v.6h-11v-.6h1.1v-6.1h2.7v-1.5h.6v1.5h2.1v-1.5zm-2.7 8.8.4.6c-1.2.6-2.5 1.3-3.8 1.9-.1-.2-.2-.4-.3-.6 1.2-.6 2.5-1.2 3.7-1.9zm-2.2-6.7v2.4h2.1v-2.4zm0 3v2.5h2.1v-2.5zm2.8-3v2.4h2.1v-2.4zm0 3v2.5h2.1v-2.5zm6 6.1c-1.4-.7-2.7-1.3-3.9-1.8l.3-.6c1.5.6 2.7 1.2 3.9 1.7zm-1.2-9.1h-2.1v2.4h2.1zm-2.1 3v2.5h2.1v-2.5z" fill="#fbfcfa"/><g fill="#010106"><path d="m140.69 60.46c-9.98 0-19.47.07-28.97-.02-10.85-.1-21.71-.61-32.55-.42-5.65.1-11.29 1.26-16.92 2.09-.84.12-1.75.94-2.29 1.69-2.38 3.3-3.37 7.04-2.88 11.09.27 2.22.5 4.49 1.2 6.59 2.56 7.76 2.18 15.44.84 23.42-.85 5.03-.48 10.51.52 15.56 3.93 19.84 3.02 39.89 3.23 59.89.21 20.37.31 40.74.52 61.11.02 1.77.26 3.6.8 5.28 4 12.43 2.32 25.29 3.08 37.97.42 6.98-.75 14.13 2.21 20.86.3.69.19 1.93-.25 2.53-1.99 2.72-.99 5.3-.38 8.2.99 4.68 1.49 9.5 1.69 14.29.47 11.29.95 22.6-1.55 33.77-.12.54-.26 1.09-.4 1.63-1.19 4.74-3.42 7.95-9.1 7.84-4.78-.09-9.58.54-14.35 1.06-2.65.29-3.74-.94-4.55-3.24-3.27-9.35-4.28-19.06-3.54-28.8 1.77-23.55.49-46.96-2.11-70.36-1.42-12.78-2-25.55-1.29-38.49.69-12.57-.69-25.25-.95-37.89-.38-18.35-.68-36.71-.77-55.06-.03-5.54-.43-10.93-2.29-16.15-1.64-4.6-2.26-9.3-1.8-14.17.21-2.22-.08-4.5.19-6.71.81-6.64-.69-12.72-3.27-18.85-3.54-8.39-2.62-17.39-1.96-26.18.4-5.33 1.47-10.63 2.59-15.88.32-1.48 1.58-3.2 2.89-3.96 7.29-4.18 15.41-4.84 23.46-3.86 8.73 1.07 17.11-.62 25.65-1.47 7.98-.8 16.05-.63 24.09-.89 15.2-.48 30.4-1.07 45.6-1.39 5.89-.12 11.79.42 17.68.57 6.35.17 12.7.45 19.04.3 12.75-.32 25.49-.89 38.23-1.4 2.46-.1 4.93-.23 7.35-.66 8.91-1.58 17.82-1.02 26.73-.1 6.16.63 12.25.59 18.24-1.22 11.12-3.36 22.61-2.58 33.99-2.99 13.86-.51 27.74-1.04 41.6-.89 5 .05 10.14 1.6 14.92 3.29 4.5 1.59 6.74 5.03 6.63 10.4-.97 43.64-1.63 87.29-2.49 130.93-1.03 52.71-2.14 105.41-3.35 158.11-.04 1.58-1.17 3.64-2.46 4.6-4.92 3.68-15.51 3.7-20.48.21-.84-.59-1.28-1.97-1.57-3.08-2.58-9.87-2.52-19.92-2.08-30.01.98-22.36 2.05-44.71 2.76-67.08.77-24.27 1.39-48.56 1.62-72.84.08-8.58-1.47-17.17-1.74-25.77-.26-8.37-.01-16.76.34-25.13.42-9.73 1.15-19.42-.86-29.09-1.57-7.54-2.94-15.13-4.19-22.74-.33-2.04-1.42-2.31-3.05-2.77-10.89-3.04-21.78-1.06-32.67-.17-7.25.6-14.48 1.42-21.73 1.97-2.47.19-3.75 1.15-4.45 3.57-2.78 9.62-2.78 19.44-2.39 29.31.38 9.51 1 19.01 1.04 28.52.03 5.21-1.42 10.44-1.32 15.64.51 25.96 1.46 51.91 1.93 77.87.2 11.18-.55 22.37-.53 33.56.01 5.46 1.11 10.92 1.19 16.38.15 10.5.27 21.02-.25 31.5-.49 9.82-2.06 19.57-2.7 29.39-.5 7.56-.94 15.23-.25 22.74 1.11 12.12-2.09 21.66-13.81 27.54-2.78-1.52-6.1-3.14-9.2-5.11-1.1-.7-1.9-2.16-2.43-3.44-3.46-8.47-4.1-17.42-3.61-26.39.63-11.39 1.92-22.74 2.65-34.12.33-5.23-.07-10.5-.03-15.75.14-17.45.29-34.91.56-52.36.04-2.55.44-5.16 1.14-7.62 2.23-7.89 1.71-15.64-.45-23.44-.56-2.01-.72-4.2-.69-6.31.55-40.51 1.15-81.03 1.78-121.54.05-3.24.54-6.47.55-9.71.02-5.46-2.81-8.22-8.13-8.22-22.39 0-44.79.07-67.18-.08-3.03-.02-4.3 1.12-5.31 3.72-3.79 9.76-3.21 19.7-1.9 29.79.8 6.2 1.31 12.47 1.37 18.72.26 25.18.6 50.37.29 75.55-.17 13.74-1.41 27.48-2.44 41.2-1.38 18.41-2.39 36.76-.8 55.27 1.18 13.68.52 27.52.88 41.28.17 6.37 1.15 12.72 1.11 19.08-.02 3.09-1.18 6.32-2.47 9.21-1.3 2.92-4.05 4.37-7.34 4.52-1.45.06-2.9.18-4.36.22-6.22.18-6.2.17-8.35-5.72-1.83-5.02-2.42-10.16-1.87-15.5.94-9.1-.22-18.07-1.95-27.01-.54-2.78-.44-5.72-.3-8.58.24-4.9 1.09-9.78 1.1-14.67.07-73 .05-145.99.05-218.99.02-1.42.02-2.86.02-5.54z"/><path d="m206.96 215.82c-6.9-.57-6.97-.55-9.33-7.09-3.8-10.52-4.69-21.58-5.7-32.59-.49-5.34-.59-10.72-.85-16.08-.23-4.96.01-9.9 2.67-14.27 1.16-1.91 2.78-3.57 4.38-5.16 2.03-2.01 4.5-3.61 6.29-5.79 1.31-1.59 2.46-1.86 4.43-1.95 5.45-.25 8.46 2.25 11.37 6.76 4.2 6.51 5.78 12.77 3.13 20.2-1.02 2.86-1.18 6.13-1.21 9.21-.13 13.09-.13 26.18.01 39.26.03 2.44-.8 4-2.93 4.59-4.04 1.14-8.17 1.96-12.26 2.91z"/><path d="m296.71 206.47c0-16.03.06-31.57-.06-47.1-.02-2.61-.52-5.32-1.36-7.8-1.76-5.17.05-11.08 4.64-13.95 1.52-.95 3.02-1.9 4.54-2.85 4.91-3.07 9.9-2.35 13.89 2 2.04 2.22 4.01 4.52 6.18 6.62 3.47 3.35 4.84 7.43 3.46 11.91-2.18 7.08-1.38 14.2-.8 21.27.75 9.1-2.16 17.68-3.09 26.53-3.04 2.21-6.02 6.17-9.13 6.27-5.98.19-12.04-1.78-18.27-2.9z"/><path d="m111.37 180.77c-.49 9.83-.9 19.67-1.55 29.49-.08 1.27-1.13 2.95-2.23 3.6-5.92 3.48-11.92 1.69-17.74-.47-.98-.36-1.8-2.07-2.07-3.3-1.42-6.63-3.28-13.25-3.82-19.97-1.22-15.44.23-30.84 1.93-46.2.11-.95 1.01-1.82 1.58-2.71.11-.17.41-.21.55-.37 6.9-7.59 14.64-3.86 22.16-1.45.84.27 1.59 2.29 1.6 3.51.12 12.62.07 25.24.07 37.86-.17.01-.32.01-.48.01z"/></g></svg>