<svg enable-background="new 0 0 400 400" viewBox="0 0 400 400" xmlns="http://www.w3.org/2000/svg"><path d="m374.8 390.4.4-.4c.7.5 1.3 1 1.8 1.4l-.5.5c-.5-.6-1.1-1.1-1.7-1.5zm1 7.3-.6-.3c.5-1.4 1.1-2.8 1.5-4.3.2.1.4.2.6.3-.5 1.3-1 2.8-1.5 4.3zm-.4-10.3.4-.4c.4.3 1 .8 1.7 1.4l-.5.5c-.4-.5-1-1-1.6-1.5zm2.5.3h1.7v-1h.6v1h3.5v-1h.6v1h1.8v.5h-1.8v1.4h-2v1h3.2v2h-3.2v.9h3.3v.5h-3.4c0 .3-.1.6-.1.9h4v.5h-3.7c.7.9 1.9 1.5 3.8 1.7-.1.2-.2.4-.3.6-2.1-.4-3.5-1.1-4-2.1-.4 1-1.8 1.7-4 2.2-.1-.2-.2-.4-.3-.6 2.1-.4 3.4-1 3.8-1.8h-3.4v-.5h3.6c.1-.3.1-.6.2-.9h-3.3v-.5h3.4c0-.3 0-.6 0-.9h-3.2v-2h3.3v-1h-2.1v-1.4h-1.7v-.5zm1.1 3.5v1h2.7c0-.3 0-.4 0-.4 0-.1 0-.2 0-.2 0-.1 0-.2 0-.3h-2.7zm1.2-3v.9h3.5v-.9zm4.7 3h-2.6v.6.4h2.6z" fill="#fbfcfa"/><path d="m393.6 386.7h.6v1.5h2.7v6.1h1.1v.6h-11v-.6h1.1v-6.1h2.7v-1.5h.6v1.5h2.1v-1.5zm-2.7 8.8.4.6c-1.2.6-2.5 1.3-3.8 1.9-.1-.2-.2-.4-.3-.6 1.2-.6 2.5-1.2 3.7-1.9zm-2.2-6.7v2.4h2.1v-2.4zm0 3v2.5h2.1v-2.5zm2.8-3v2.4h2.1v-2.4zm0 3v2.5h2.1v-2.5zm6 6.1c-1.4-.7-2.7-1.3-3.9-1.8l.3-.6c1.5.6 2.7 1.2 3.9 1.7zm-1.2-9.1h-2.1v2.4h2.1zm-2.1 3v2.5h2.1v-2.5z" fill="#fbfcfa"/><g fill="#010106"><path d="m301.35 218.07c-2.9 1.6-5.04 1.18-7.32-1.08-4.84-4.81-9.7-9.67-15.06-13.88-10.49-8.24-16.74-19.39-22.28-31.03-10.04-21.09-15.58-43.37-15.62-66.74-.02-11.04 1.43-22.09 2.29-33.13.68-8.7 1.49-17.39 2.2-26.09.22-2.68-2-5.34-5.42-5.6-3.4-.26-6.87.44-10.31.48-10.38.11-20.77.4-31.14.07-23.15-.73-46.28-1.8-69.43-2.72-.98-.04-1.96 0-3.25 0 .82 7.96 1.61 15.6 2.4 23.25.75 7.23 1.72 14.45 2.2 21.7.23 3.42-.5 6.89-.72 10.35-.21 3.34-.86 6.76-.39 10.01 1.74 12.19-1.6 23.79-3.69 35.51-4.2 23.48-10.68 46.39-18.64 68.85-1.8 5.07-4.74 9.81-7.66 14.38-1.24 1.94-3.77 3.06-5.71 4.55-.25-.24-.5-.48-.76-.72 2.83-8.08 5.76-16.12 8.47-24.24 5.19-15.57 11.23-30.95 15.17-46.84 7.3-29.47 7.11-59.45 2.51-89.34-1.16-7.56-4.39-14.77-6.2-22.26-1.09-4.51-1.34-9.24-1.88-13.88-.2-1.69.67-2.35 2.42-2.86 9.28-2.71 18.71-1.16 28.05-1.07 21.71.22 43.41 1.06 65.12 1.27 14.09.14 28.19-.37 42.28-.61 6.01-.1 9.65 3.58 9.31 9.71-.14 2.44-.87 4.85-1.11 7.29-1.17 11.79-2.46 23.57-3.35 35.38-1.21 15.96-2.1 31.93-3.09 47.91-.08 1.31-.05 2.71.34 3.95 3.32 10.55 6.54 21.14 10.18 31.58 3.11 8.94 8.05 16.97 14 24.3 7.69 9.47 15.58 18.78 23.37 28.17.91 1.1 1.8 2.23 2.72 3.38z"/><path d="m267.77 374c-2.35 1.49-3.78.9-5.31-1.01-16.15-20.19-32.39-40.31-48.58-60.48-.9-1.12-1.7-2.37-2.28-3.68-8.9-20.26-17.77-40.53-26.62-60.82-.44-1.01-.99-2.12-.96-3.16.43-13.01-3.77-25.41-4.95-38.18-.6-6.51.14-13.13.08-19.69-.06-6.91.04-13.86-.65-20.71-.79-7.81 1.63-15.06 2.94-22.5 1.86-10.57 4.48-21.01 6.03-31.62.62-4.27-.74-8.84-1.21-13.26-.09-.89-.46-1.8-.35-2.65 1.7-14-3.8-26.55-7.81-39.41-.96-3.07-1.92-6.14-3.03-9.69 5.57 2.64 9.57 6.38 12.27 11.14 10.44 18.44 14.83 38.19 11.97 59.34-.23 1.7-1.04 3.43-1.95 4.91-3 4.9-4.77 10.26-4.64 15.9.37 16.39-1.99 32.58-3.09 48.86-1.88 27.84.53 55.3 11.82 81.24 3.64 8.36 8.19 16.42 13.13 24.1 16.89 26.24 34.15 52.26 51.26 78.36.61.93 1.2 1.87 1.93 3.01z"/><path d="m235.46 103.54c-3.32 0-5.77.1-8.19-.06-.75-.05-1.74-.6-2.13-1.22-5.25-8.41-10.77-16.68-15.48-25.39-2.92-5.39-2.98-11.58-1.73-17.68.36-1.75.93-2.38 2.87-2.19 8.11.81 12.35 4.68 13.61 12.6.72 4.51 1.61 9 2.41 13.5.89 5.02 2.74 9.55 5.95 13.63 1.32 1.68 1.68 4.13 2.69 6.81z"/><path d="m161.22 120.58c7.69.47 12.13 3.8 12.78 9.6.11.96-.14 2.42-.79 2.94-7.26 5.82-11.59 13.76-16.12 21.6-3.13 5.41-7.52 9.64-13 12.65-3.2-1.44-3.36-3.33-1.9-6.36 6.46-13.36 12.66-26.84 19.03-40.43z"/><path d="m241.09 167.39c-3.92-.2-6.56-.7-8.75-3.09-4.54-4.95-9.38-9.61-13.89-14.58-3.82-4.2-6.32-9.07-7.2-14.85-.76-4.97.9-8.44 5.46-11.21 9.07 13.77 17.49 27.88 24.38 43.73z"/><path d="m158.43 64.85c6.19.36 10.51 4.16 10.46 10.2-.09 10.23-2.89 19.98-8.39 28.57-1.3 2.04-5.5 2.22-9.54 3.69.42-4.21.59-7.47 1.13-10.66.31-1.84 1.12-3.63 1.88-5.37 3.3-7.48 5.23-15.19 4.47-23.44-.09-.99-.01-1.99-.01-2.99z"/></g></svg>