<svg enable-background="new 0 0 400 400" viewBox="0 0 400 400" xmlns="http://www.w3.org/2000/svg"><path d="m361.2 9.6.8-1c.9.7 1.9 1.4 2.9 2.3l-.9 1.1c-1-1-2-1.8-2.8-2.4zm.5 10.6c.9-2.1 1.6-4.3 2.3-6.7.4.2.8.4 1.3.6-.7 2.1-1.5 4.3-2.2 6.6zm.4-15.2.9-.9c1 .8 2 1.6 2.8 2.4l-1 1c-.9-.9-1.8-1.7-2.7-2.5zm12.5-1.2h1.2v1.4h2.7v1.1h-2.7v2.7h-1.2v-.6h-1.8v1.3h4.9v3.8h-1.2v-.5h-3.7c0 .4-.1.9-.1 1.2h5.1v1h-5.2c0 .5-.1.9-.2 1.2h6v1h-5.2c1.1 1.3 2.9 2 5.5 2.2-.4.4-.7.8-.9 1.3-2.9-.5-4.8-1.6-5.7-3.5h-.1c-.8 1.7-2.7 2.9-5.9 3.6-.2-.4-.6-.8-.9-1.1 2.8-.6 4.6-1.4 5.4-2.5h-4.8v-1h5.3c.1-.3.2-.7.2-1.2h-4.9v-1h5c0-.4 0-.8.1-1.2h-3.5v.5h-1.2v-3.8h4.9v-1.3h-1.8v.5h-1.2v-2.7h-2.7v-1h2.6v-1.4h1.2v1.4h4.7v-1.4zm-6.6 8.3h3.6c0-.4 0-.9 0-1.4h-3.6zm1.9-4.6h4.7v-1.3h-4.7zm6.6 3.2h-3.7v1.4h3.7z" fill="#fbfcfa"/><path d="m385.3 3.8h1.3v2.2h2.8v-2.2h1.3v2.2h4.1v9.1h1.7v1.3h-16.9v-1.3h1.7v-9.1h4.1v-2.2zm.4 13.1.7 1.2c-1.8.9-3.8 1.9-6 2.9-.2-.4-.5-.8-.8-1.3 2.3-1 4.3-1.9 6.1-2.8zm-3.1-6.4h2.8v-3.2h-2.8zm0 4.6h2.8v-3.3h-2.8zm4-4.6h2.8v-3.2h-2.8zm0 4.6h2.8v-3.3h-2.8zm3.7 1.9c2.1.9 4.1 1.8 6.1 2.7l-.7 1.3c-2.2-1.1-4.2-2-6.1-2.9zm3.2-9.7h-2.8v3.2h2.8zm-2.8 7.8h2.8v-3.3h-2.8z" fill="#fbfcfa"/><g fill="#010105"><path d="m97.62 339.11c-1.56 3.36-2.75 6.64-4.54 9.55-1.53 2.5-3.62 4.72-5.7 6.83-1.72 1.74-3.71 1.98-5.31-.42-2.19 3.65-2.02 4.21 2.69 8.63-2.82 2.03-5.56 4-8.27 5.94-3.12-2.97-3.25-9.59-.36-14.54.59.65 1.13 1.25 2.35 2.6-.19-2.12.15-3.7-.49-4.53-2.14-2.79-1.81-5.72-.83-8.61 1.58-4.65 3.47-9.2 5.15-13.82.37-1.01.81-2.22.59-3.19-2.87-12.48-3-25.28-2.92-37.88.16-24.61 1.46-49.21 2.55-73.81.52-11.72 1.49-23.43 2.63-35.11.31-3.11 1.86-6.17 3.18-9.09.73-1.62.83-2.62-.29-4.16-3.36-4.66-2.33-8.21 2.58-11.11 12.8-7.55 25.67-15 38.27-22.88 11.39-7.12 23.13-13.1 36.59-15.08 1.17-.17 2.55-.5 3.38-1.25 14.31-12.89 31.89-17.73 50.25-21.14 8.24-1.53 16.21-1.47 24.25.22 5.91 1.24 10.39 4.18 13.28 10.06 11.09 22.57 22.28 45.1 34.05 67.32 6.06 11.44 13.6 22.08 20.13 33.29 6.05 10.37 9.71 21.6 10 33.72.15 6.23-1.05 12.26-3.94 17.83-.92 1.77-1.24 4.51-4.49 3.91-.37-.07-1.06 1.29-1.52 2.04-1.61 2.64-4.1 2.74-5.5-.05-1.79-3.58-3.28-7.31-4.81-11.02-1.19-2.89-2.25-5.83-3.34-8.75-.42-1.14-1.16-2.33-1.08-3.45.36-4.86-1.78-8.61-4.79-12.09-.51-.59-.9-1.29-1.4-1.89-8.19-9.94-15.06-20.52-16.03-34.64-1.49 1.23-2.11 1.74-3.35 2.76-2.15-5.2-4.44-10.01-6.13-15.03-2.24-6.67-3.92-13.52-6.04-20.23-.46-1.46-1.5-3.1-2.76-3.88-3.92-2.45-6.48-5.92-9.03-9.67-4.58-6.72-9.35-13.37-14.64-19.52-2.37-2.75-6.15-4.35-9.43-6.23-.79-.45-2.36-.29-3.21.21-8.77 5.1-17.4 10.45-26.22 15.47-5.85 3.34-11.68 6.58-16.17 11.78-1.63 1.9-1.82 3.56-1.14 6.03 3.38 12.14 10.89 21.96 17.8 32.08 3.28 4.8 5.25 9.86 6.53 15.53 1.16 5.13 3.29 10.22 5.93 14.79 8.88 15.39 13.51 32.05 15.94 49.46.94 6.75 1.98 13.5 2.96 20.25.11.77.33 1.6.14 2.31-2.06 7.55-1.47 15.1.3 22.54 1.35 5.65-.36 10.8-1.55 16.12-.57 2.56-.45 5.26-.72 7.89-.29 2.84-.73 5.66-.99 8.5-.5 5.43-1.6 10.91-1.25 16.29.69 10.43-5.25 14.43-15.08 14.91.04-3.7-.76-7.21 1.65-10.8 3.99-5.94 4.68-12.95 5.11-19.9.3-4.91.32-9.84.36-14.76.04-5.31-.11-10.41-2.86-15.45-2.13-3.89-2.81-8.69-3.62-13.17-1.78-9.97-4.97-19.46-8.83-28.78-.89-2.15-1.55-4.45-1.94-6.75-1.14-6.68-4.02-12.7-6.53-18.92-4.38-10.86-8.21-21.94-12.1-32.99-3.93-11.16-8.98-21.6-16.61-30.81-2.72-3.28-4.19-7.6-6.22-11.46-.93-1.76-1.81-3.55-2.82-5.53-7.37 2.07-14.56 4.08-21.74 6.12-.51.14-.98.54-1.38.91-4.3 3.92-8.62 7.81-12.85 11.81-4.71 4.45-6.63 9.64-5.34 16.32 1.59 8.22 3.03 16.57 3.36 24.91.33 8.46-.8 16.98-1.21 25.47-.19 3.94-.38 7.73-3.62 10.71-.71.66-.75 2.53-.47 3.7 1.17 4.94 1.55 9.56-2.21 13.81-.75.86-.47 3.26.15 4.57 1.57 3.34 1.36 6.34-.34 9.52-4.14 7.73-3.67 16.48-5.27 24.78-.44 2.3-.49 4.69-1.07 6.96-.37 1.43-1.08 3.08-2.18 3.94-1.34 1.04-2.54 1.99-1.22 3.38 1.23 1.29 2.95 1.8 4.63-.04 3.12-3.42 5.01-7.36 5.81-11.87.14-.77.31-1.55.29-2.33-.23-10.77 4.2-20.26 8.56-29.64 6.17-13.26 8.05-27.62 11.27-41.63 2.28-9.88 5.49-19.65 5.09-29.99-.14-3.69-.55-7.37-.6-11.06-.08-5.93 2.92-9.12 8.4-8.87 1.09.05 2.57.85 3.12 1.75 7.6 12.35 12.6 25.69 13.94 40.17.91 9.81-.98 19.14-6.36 27.6-2.22 3.49-4.15 7.18-6.53 10.55-1.97 2.79-4.09 5.63-6.71 7.75-3.27 2.65-5.33 5.78-6.79 9.64-4.01 10.55-7.72 21.27-12.6 31.41-2.69 5.59-7.45 10.19-11.4 15.13-.34.43-1.64.37-2.39.16-1.95-.59-3.92-1.35-6.13-2.11z"/><path d="m185.22 77.19c-.8-.66-1.45-1.2-2.41-2-3.14 8.69-8.84 14.67-17.38 17.54-7.89 2.65-15.9 5.06-25.28 2.27-5.06 3.21-11.09 1.96-15.32-3.94-3.53-4.91-6.63-9.84-4.58-16.36.57-1.81 1.34-2.83 3.2-3.28 4.34-1.05 8.62-2.35 12.95-3.42 17.95-4.43 34.5-12.78 51.93-18.67 3.36-1.13 6.12-4.02 9.18-6.06 3.69-2.46 7.41-4.88 11.16-7.34.95 1.06 1.53 1.7 2.2 2.44.24-.29.5-.48.6-.74 2.02-5.16 5.91-8.59 10.5-11.34 4.96-2.98 12.74.25 13.85 5.88.9 4.55 1.34 9.12-3.54 12.13-1.21.75-2.11 1.99-3.2 2.95-5 4.46-9.82 8.62-16.33 11.55-9.22 4.15-17.19 11.11-25.68 16.87-.53.38-1.02.85-1.85 1.52z"/><path d="m179.34 305.39c-.49 6.26-2.77 10.61-8.44 12.68-7.49 2.73-13.15 7.21-16.68 14.37-.49.99-1.32 1.82-1.82 2.81-2.39 4.69-6.05 7.31-11.11 9.2-4.44 1.66-8.24 5.24-12.04 8.31-3.73 3.02-7.45 3.18-11.48 1.04-.65-.34-1.43-.86-1.67-1.49-.64-1.66 2.57-9.66 4.14-10.78 8.36-5.93 15.5-13.13 21.78-21.2.96-1.23 2.19-2.53 2.45-3.95.82-4.45 4-6.64 7.36-8.93 1.46-1 2.54-2.68 3.51-4.23.82-1.3 1.05-2.97 1.86-4.29 3.4-5.56 2.68-10.97-.08-16.52-2.12-4.26-.47-8.32 1.39-12.17.27-.57 2.19-.77 3.17-.49 6.7 1.94 10.89 6.67 12.66 13.15 2.02 7.4 3.36 14.98 5 22.49z"/><path d="m280.87 229.12c-8.7 1.51-16.63-.6-24.63-2.07-6.59-1.21-13.24-2.13-19.84-3.3-1.38-.25-3.13-.64-3.93-1.62-5.84-7.16-11.98-14.17-17.06-21.86-4.96-7.5-3.52-15.86-.55-23.89.25-.69 1.12-1.61 1.73-1.62 3.53-.09 7.34-.93 10.32 1.65 5.3 4.59 10.71 9.1 15.52 14.16 4.99 5.26 9.33 11.14 13.96 16.74 4.42 5.35 9.96 9.26 16 12.54 3.81 2.08 6.91 4.86 8.48 9.27z"/><path d="m288.09 286.17c1.21-1.29 2.03-2.17 3.02-3.24 1.16 2.68 2.22 5.13 3.39 7.81-1.64 1.01-3.23 1.98-4.83 2.96-.93-.84-1.73-1.55-2.86-2.57-.17 1.27-.3 2.19-.49 3.64-2.56.15-6.07 1.41-7.63.18-1.96-1.55-2.99-1.13-4.1-.07-2.3 2.22-4.92 2.18-7.79 1.94-7.19-.6-12.91-3.83-17.69-9.12-6.99-7.74-13.6-15.72-17.54-25.55-2.84-7.1-1.66-8.64 6.52-8.04 6.48.47 11.17 4.19 15.51 8.46 3.02 2.98 5.89 6.12 8.67 9.33 3.8 4.38 8.74 6.55 14.26 7.4 4.75.75 8.89 2.23 11.56 6.87z"/></g></svg>