<svg enable-background="new 0 0 400 400" viewBox="0 0 400 400" xmlns="http://www.w3.org/2000/svg"><g fill="#010104"><path d="m326.9 339.16c-2.21-5.48-1.74-11.1-1.01-16.6 1.19-8.98 3.13-17.86 4.14-26.85.77-6.84.95-13.8.76-20.7-.43-16.32-.56-32.7-2.06-48.94-1.66-18.02-4.46-36-11.27-52.97-5.97-14.87-16.2-25.31-31.33-31.72-10.87-4.61-21.43-5.66-32.85-4.16-11.41 1.5-22.96 1.96-34.4 3.32-4.12.49-8.22 1.97-12.09 3.58-6.14 2.54-12.27 4.87-19 5-3.08.06-2.41 2.81-3.04 4.43-.31.81.41 2.53 1.21 3.18 6.43 5.29 12.76 10.77 16.66 18.2 1.89 3.61 2.52 7.96 3.28 12.06.75 4.03.67 8.23 1.47 12.25.57 2.84 2.3 4.13 5.66 2.77 19.44-7.86 40.28-9.94 60.51-14.57 7.53-1.72 14.31-1.47 21.31 1.92 2.85 1.38 6.53 1.39 9.84 1.46 5.01.09 6.55 3 7.34 7.88.1.63-.82 1.7-1.54 2.15-5.76 3.6-12.06 3.48-18.49 2.59-7.07-.98-14.12-.87-20.73 2.2-11.65 5.42-23.29 10.86-34.78 16.6-5.04 2.52-10.07 3.99-15.73 3.53-3.43-.28-6.91-.05-11.33-.05 0 5.42.1 10.64-.02 15.85-.71 30.55-1.26 61.1-2.39 91.63-.27 7.27-2.14 14.57-4.04 21.65-.76 2.84-3.16 5.71-5.59 7.53-3.23 2.42-5.55 1.32-6.15-2.64-1.14-7.51-2.06-15.06-2.63-22.63-.68-9.04-1.16-18.11-1.21-27.16-.03-5.89.85-11.79 1.34-17.68.05-.55.25-1.1.3-1.65 1.05-12.31-4.24-18-16.62-15.5-7.31 1.48-14.37 4.15-21.52 6.39-1.02.32-1.83 1.24-2.79 1.79-8.72 4.96-17.35 10.11-26.26 14.69-2.21 1.14-5.5.93-8.1.41-7.12-1.41-14.1-3.5-21.2-4.97-5.7-1.17-7.14-.46-8.26 5.15-2.68 13.35-5.12 26.76-7.23 40.21-1.48 9.45-2.87 18.8-8.55 26.87-2.89 4.1-6.32 6.82-11.38 8.83-2.1-3.55-2.33-7.52-1.37-11.25 6.81-26.39 7.09-53.32 7.18-80.29.06-17.68.51-35.36.55-53.05.03-12.73-2.4-25.14-6.22-37.25-.89-2.82-2.72-5.37-4.21-7.98-4.22-7.37-8.48-14.71-12.69-21.99 6.78-7.13 12.54-6.32 22.32-1.4.2.1.4.23.55.39 5.29 5.89 11.12 5.55 18.25 3.01 15.15-5.39 30.74-9.54 45.95-14.76 7.76-2.66 15.32-6.15 22.6-9.96 11.64-6.1 24.1-9.4 36.79-12.16 17.69-3.85 35.34-7.89 53.09-11.45 4.16-.83 8.67-.28 12.99.04 18.88 1.4 36.81 6.07 53.06 16.1 16.43 10.15 27.68 24.84 36.11 41.88 1.01 2.04.86 4.61 1.55 6.84 1.17 3.79 2.61 7.49 3.86 11.26.96 2.92 2.36 5.83 2.6 8.82 1.14 14.5 2.24 29.02 2.71 43.56.17 5.26-1.77 10.56-2.22 15.89-.74 8.79-.88 17.64-1.6 26.43-1.27 15.47-4.09 30.52-11.78 44.37-2.34 4.2-5.33 6.65-10.3 7.62zm-230.73-112.51c1.5-.53 2.53-.87 3.55-1.27 8.85-3.44 17.79-6.69 26.53-10.39 13.54-5.73 27.18-10.65 42.2-10.91 3.29-.06 6.66-2.29 9.76-3.95 1.1-.59 2-2.4 2.15-3.75 1.07-9.52-1.26-18.44-5.48-26.87-2-4.01-5.08-7.1-9.6-8.32-.92-.25-2.04-.44-2.9-.16-15.53 5.06-31.04 10.22-44.81 19.33-2.58 1.7-5.31 3.54-7.12 5.95-4.92 6.51-9.41 13.35-14.01 20.1-.6.88-1.24 2-1.2 2.98.18 5.57.57 11.14.93 17.26zm-6.7 52.95c3.98 1.28 7.98.23 11.92-1.09 5.5-1.85 10.9-4.02 16.46-5.66 14.03-4.14 28.2-7.79 42.15-12.17 8.38-2.64 16.46-6.22 24.59-9.58 1.02-.42 2.33-2.15 2.18-3.06-1.24-7.6-2.78-15.16-4.28-22.72-.12-.59-.52-1.56-.88-1.6-4.69-.52-9.65-2.03-14.05-1.06-6.57 1.45-12.74 4.71-19.11 7.12-11.67 4.41-23.74 8.05-32.61 17.67-.66.71-1.96 1.03-3.01 1.15-3.22.37-6.46.52-9.68.8-4.4.39-8.8.82-13.68 1.28z"/><path d="m100.52 57.07c8.37-1.42 16.59-2.45 24.63-4.25 18.96-4.25 37.87-8.76 56.74-13.36 15.74-3.84 31.27-8.67 47.15-11.73 12.92-2.49 26.23-2.59 39.41-.76 2.4.33 4.45 1.52 4.32 4.26-.13 2.69-.76 5.03-4.16 6-23.1 6.57-46.24 13.04-69.17 20.19-16.31 5.08-32.29 11.18-48.42 16.84-.52.18-1.14.39-1.46.79-3.28 4.11-7.33 3.52-11.77 2.39-5.63-1.42-11.39-2.31-17.07-3.53-1.16-.25-2.23-.95-3.31-1.49-2.98-1.5-5.8-3.44-8.94-4.46-5.23-1.71-7.54-5.19-7.95-10.89z"/><path d="m216.01 262.51c8.39-3.16 16.16-6.2 24.01-9.01 5.46-1.96 10.92-4.13 16.58-5.27 6.84-1.38 13.86-2.13 20.83-2.49 5.35-.28 10.43-.84 15.05-3.75.68-.43 1.78-.77 2.47-.53 5.94 2.11 11.88 1.34 17.86.33s10.11 2.52 9.89 8.57c-.03.95-1.03 2.13-1.9 2.75-6.6 4.72-14.25 6.69-22.06 8.34-9.27 1.95-18.59 3.83-27.68 6.45-4.16 1.2-8.16 3.66-11.64 6.32-6.84 5.23-13.89 6.72-21.93 3.34-1.81-.76-3.95-1.49-5.81-1.25-4 .51-6.4-1.1-8.46-4.3-1.99-3.08-4.43-5.87-7.21-9.5z"/></g><path d="m385.2 377.6.6-.7c.6.4 1.3.9 1.9 1.5l-.6.7c-.8-.5-1.4-1-1.9-1.5zm.3 7.1c.6-1.4 1.1-2.9 1.5-4.5.3.1.6.3.9.4-.5 1.4-1 2.9-1.5 4.4zm.2-10.1.6-.6c.7.5 1.3 1.1 1.9 1.6l-.7.7c-.6-.6-1.2-1.2-1.8-1.7zm8.4-.8h.8v.9h1.8v.7h-1.8v1.8h-.8v-.3h-1.2v.9h3.3v2.6h-.8v-.4h-2.5c0 .3 0 .6-.1.8h3.4v.7h-3.5c0 .3-.1.6-.1.8h4v.7h-3.5c.7.9 1.9 1.3 3.6 1.5-.2.2-.4.5-.6.9-1.9-.3-3.2-1.1-3.8-2.3-.5 1.1-1.8 2-3.9 2.4-.2-.3-.4-.5-.6-.8 1.9-.4 3.1-.9 3.6-1.7h-3.2v-.7h3.5c.1-.2.1-.5.2-.8h-3.3v-.7h3.4c0-.2 0-.5 0-.8h-2.4v.3h-.8v-2.6h3.3v-.9h-1.2v.3h-.8v-1.8h-1.8v-.7h1.8v-.9h.8v.9h3.2zm-4.4 5.5h2.4c0-.3 0-.6 0-.9h-2.4zm1.2-3.1h3.2v-.8h-3.2zm4.4 2.2h-2.4v.9h2.5v-.9z" fill="#fcfbfa"/><path d="m389.2 385.8h.9v1.5h1.9v-1.5h.9v1.5h2.7v6h1.1v.9h-11.3v-.9h1.1v-6h2.7zm.2 8.7.5.8c-1.2.6-2.5 1.3-4 1.9-.2-.3-.3-.6-.6-.8 1.6-.6 3-1.3 4.1-1.9zm-2-4.3h1.9v-2.1h-1.9zm0 3.1h1.9v-2.2h-1.9zm2.7-3.1h1.9v-2.1h-1.9zm0 3.1h1.9v-2.2h-1.9zm2.4 1.3c1.4.6 2.7 1.2 4.1 1.8l-.5.9c-1.5-.7-2.8-1.4-4.1-1.9zm2.2-6.5h-1.9v2.1h1.9zm-1.9 5.2h1.9v-2.2h-1.9z" fill="#fcfbfa"/></svg>