<svg enable-background="new 0 0 400 400" viewBox="0 0 400 400" xmlns="http://www.w3.org/2000/svg"><path d="m221.28 255.48c-3.24-.56-5.94-1.16-8.66-1.39-.79-.07-2.06.74-2.43 1.48-2.61 5.19-5.27 10.37-7.44 15.75-1.36 3.37-1.72 7.13-2.79 10.63-1.49 4.87-2.52 10.08-5 14.42-10.13 17.77-20.71 35.28-31.2 52.84-1.36 2.28-2.85 4.66-4.82 6.36-1.8 1.55-4.34 2.25-7.28 3.68-.47-4.42-.83-7.79-1.2-11.26 1.61-.49 2.97-.9 4.62-1.4-3.48-3.54-3.07-7.24-1.74-11.36 4.27-13.16 8.17-26.44 12.42-39.61 2.2-6.79 5.52-13.28 7.12-20.19 1.98-8.57 3.19-17.39 3.84-26.17.93-12.49 3.97-24.48 7.32-36.41 1.18-4.19.23-7.93-.57-11.81-.16-.79-1.14-1.6-1.95-2.04-3.65-1.99-7.49-2.73-11.65-1.69-2.16.54-4.43.59-6.61 1.05-3.22.68-6.5 1.27-9.6 2.34-7.55 2.59-15.22 1.96-22.91 1.31-12.9-1.1-25.62-4.25-38.7-3.18-1.1.09-2.21.01-3.84.01.99 4.54 2.03 8.71 2.76 12.93.67 3.85 1.31 7.75 1.37 11.63.05 2.94 1.28 4.21 3.83 4.97 7.13 2.14 14.4 1.78 21.65 1.23 10.48-.79 20.93-2.21 31.42-2.56 5.59-.19 11.29 1.04 16.83 2.16 3.16.64 4.38 3.02 4.8 6.64.81 6.94-2.27 11-7.62 14.56-9.64 6.42-20.32 8.41-31.61 8.15-4.13-.1-8.26-.49-12.38-.81-2.04-.16-3.81-.2-5.47 1.57-.7.75-2.68.66-3.99.44-5.61-.95-11.18-2.09-17.08-3.22-1.03 4.19-1.97 8.19-3.01 12.15-2.05 7.78-4 15.59-6.31 23.29-1.46 4.87-2.63 9.62-1.53 14.75.26 1.22-.43 2.81-1.08 4.02-6.21 11.62-12.59 23.16-18.79 34.8-3.51 6.6-6.57 13.44-10.2 19.97-2.86 5.16-7.45 8.18-13.41 9.05-1.75.25-2.58-.2-3.3-1.84-2.01-4.58-1.7-9.12-.41-13.77 8.18-29.61 16.17-59.27 24.6-88.81 2.77-9.72 2.06-19.51 2.21-29.3.21-13.86.84-27.84-3.25-41.32-3.56-11.75-7.4-23.44-11.74-34.92-1.7-4.5-5.16-8.33-7.72-12.52-3.31-5.43-4.4-11.38-4.09-17.69.1-2.04.9-3.13 2.65-4.16 16.24-9.51 33.79-15.09 52.34-17.87 12.82-1.93 25.56-4.47 38.41-6.14 6.61-.85 13.39-.39 20.1-.48.52-.01 1.28.1 1.53.44 2.24 3.02 4.85 1.79 7.48.78 10.38-3.97 21.39-3.96 32.11-3.74 21.12.43 42.26 1.57 63.29 3.5 9.9.91 19.55 4.44 29.36 6.54 3.99.86 8.11 1.14 12.18 1.6 1.77.2 3.71-.21 5.33.36 4.13 1.44 8.01 2.47 11.94-.63.73-.58 2.51-.38 3.54.08 4.05 1.79 8.15 3.56 11.94 5.82 7.56 4.51 14.68 9.84 22.47 13.88 5.85 3.03 8.49 7.58 9.76 13.46 1.87 8.68.52 17.36-.08 26.06-.33 4.75-.1 9.57.21 14.33.36 5.47 1.13 10.9 1.6 16.36.11 1.29-.09 2.68-.45 3.92-2.7 9.11-5.73 18.12-8.12 27.3-1.37 5.24-2.32 10.73-2.44 16.13-.18 8.25-2.04 15.38-7.64 21.85-4.64 5.37-8.53 11.53-11.94 17.79-8.14 14.97-19.03 27.34-33.25 36.64-19.55 12.79-39.25 25.36-58.89 38.02-2.71 1.75-5.45 3.45-8.24 5.21-1.03-5.78 2.12-15.41 6.4-18.94 10.62-8.75 21.11-17.69 32.09-25.96 23.73-17.88 38.51-41.67 47.03-69.68 5.5-18.07 8.03-36.64 8.79-55.5.3-7.47 1.29-14.91 1.69-22.38.13-2.47-.26-5.07-.96-7.44-.94-3.2-2.64-6.18-3.59-9.38-1.39-4.7-4.27-7.58-8.63-9.84-13.41-6.96-27.68-10.75-42.56-12.4-8.99-1-18.06-1.3-27.07-2.09-3.1-.27-6.16-1.05-9.23-1.61-7.54-1.36-13.21 3.29-13.12 10.96.02 1.44.57 3.09 1.41 4.26 3.47 4.88 4.03 9.78 1.88 15.49-2.52 6.65-4.33 13.58-6.29 20.43-.42 1.46-.4 3.14-.21 4.66.39 3.05 2.41 4.41 5.22 3.22 14-5.9 29.04-5.9 43.73-7.81 3.94-.51 8.03.28 12.05.24 7.02-.07 14.05-.33 21.07-.5 1.56-.04 3.15-.22 4.66.03 5.06.86 5.35 2.26 5.03 7.22-.52 7.92-5.03 11.78-11.65 14.9-8.75 4.13-17.72 6.53-27.38 7.04-8.81.47-17.58 1.88-26.39 2.34-4.63.24-9.33-.63-13.99-1.08-2.67-.26-5.37-.48-7.98-1.06-2.87-.64-4.71.46-6.18 2.74-3.58 5.55-3.2 11.75-2.73 17.88.42 5.44 1.64 6.64 7.18 6.06 4.4-.46 8.67-2.01 13.03-2.92 2.39-.5 4.84-.92 7.26-.95 18.35-.22 36.7-.33 55.05-.46 1.11-.01 2.24.12 3.34.32 3.07.55 4.65 1.86 4.65 5.55 0 4.9-.19 9.21-4.99 12.02-1.29.75-2.08 2.32-3.2 3.41-3.32 3.23-7.12 5.32-11.95 5.1-14.68-.67-29.2.6-43.7 3.01-7.55 1.26-14.6-1.42-21-5.41-1.99-1.24-2.35-3.16-.23-4.91.82-.66 1.62-1.41 2.87-2.52zm-129.15-71.34c.05-.4.1-.8.15-1.2 7.11 0 14.23.08 21.34-.03 5.92-.09 11.91.12 17.73-.72 16.37-2.36 32.66-5.22 48.99-7.84 5.2-.83 7.26-3.3 6.13-8.42-.92-4.16-.95-7.91 2.38-11.26-4.86-3.56-9.42-6.91-14.13-10.37 1.32-1.26 2.42-2.3 4.22-4.02-3.52-1.81-6.44-4.44-9.57-4.71-11.09-.99-22.44-2.69-33.34-1.31-17.69 2.24-35.09 6.71-52.61 10.24-3.69.74-7.17 7.25-5.7 10.68 3.71 8.62 7.49 17.22 11.11 25.88.42 1.01.49 2.89-.13 3.48-2.67 2.56-1.3 5.47-.34 7.74.42.99 3.78 1.25 5.69.99 2.39-.32 4.67-1.52 7.76-2.61-3.78-2.55-6.73-4.53-9.68-6.52zm111.05 31.11c-1.9-1.31-3.39-2.34-5.5-3.8.69 2.51 1.19 4.34 1.76 6.44 1.28-.89 2.25-1.58 3.74-2.64z" fill="#010000"/><path d="m81.54 31.57c.04-.06.48-.8.88-1.57 2.65-5.17 2.67-5.28 8.46-4.11 10.45 2.1 20.95 3.07 31.64 2.88 16.11-.28 32.24-.5 48.33.05 15.63.53 31.23 2.07 46.84 3.14 21.97 1.5 43.95 2.86 65.91 4.54 8.45.65 16.85 1.98 25.25 3.11 1.63.22 3.23.89 4.78 1.51 6.56 2.66 7.7 8.5 3.28 13.99-2.78 3.45-5.83 4.95-10.24 4.81-12.95-.41-25.55 2.22-38.13 4.89-7.73 1.64-15.51 1.83-23.32.53-.65-.11-1.42-.13-1.92-.49-4-2.88-8.19-2.19-12.44-.8-6.91 2.27-13.73-.13-20.59-.41-14.64-.6-29.1-2.79-43.61-4.7-8.6-1.13-17.6.57-26.41 1.2-9.7.69-19.36 1.65-29.08-.1-2.06-.37-4.45.13-6.48.81-6.67 2.25-13.26 4.71-19.83 7.22-1.77.67-2.84.5-4.43-.76-1.79-1.41-4.34-1.84-6.51-2.8-1.54-.68-3.19-1.34-4.36-2.46-.36-.34.49-2.38 1.21-3.31 1.48-1.89 1.7-3.23.15-5.48-4.12-6-2.83-12.73-1.04-19.09.43-1.52 3.5-2.7 5.56-3.22 1.71-.45 3.72.32 6.1.62z" fill="#010000"/><g fill="#fbfcfa"><path d="m361.2 9.6.8-1c.9.7 1.9 1.4 2.9 2.3l-.9 1.1c-1-1-2-1.8-2.8-2.4zm.5 10.6c.9-2.1 1.6-4.3 2.3-6.7.4.2.8.4 1.3.6-.7 2.1-1.5 4.3-2.2 6.6zm.4-15.2.9-.9c1 .8 2 1.6 2.8 2.4l-1 1c-.9-.9-1.8-1.7-2.7-2.5zm12.5-1.2h1.2v1.4h2.7v1.1h-2.7v2.7h-1.2v-.6h-1.8v1.3h4.9v3.8h-1.2v-.5h-3.7c0 .4-.1.9-.1 1.2h5.1v1h-5.2c0 .5-.1.9-.2 1.2h6v1h-5.2c1.1 1.3 2.9 2 5.5 2.2-.4.4-.7.8-.9 1.3-2.9-.5-4.8-1.6-5.7-3.5h-.1c-.8 1.7-2.7 2.9-5.9 3.6-.2-.4-.6-.8-.9-1.1 2.8-.6 4.6-1.4 5.4-2.5h-4.8v-1h5.3c.1-.3.2-.7.2-1.2h-4.9v-1h5c0-.4 0-.8.1-1.2h-3.5v.5h-1.2v-3.8h4.9v-1.3h-1.8v.5h-1.2v-2.7h-2.7v-1h2.6v-1.4h1.2v1.4h4.7v-1.4zm-6.6 8.3h3.6c0-.4 0-.9 0-1.4h-3.6zm1.9-4.6h4.7v-1.3h-4.7zm6.6 3.2h-3.7v1.4h3.7z"/><path d="m385.3 3.8h1.3v2.2h2.8v-2.2h1.3v2.2h4.1v9.1h1.7v1.3h-16.9v-1.3h1.7v-9.1h4.1v-2.2zm.4 13.1.7 1.2c-1.8.9-3.8 1.9-6 2.9-.2-.4-.5-.8-.8-1.3 2.3-1 4.3-1.9 6.1-2.8zm-3.1-6.4h2.8v-3.2h-2.8zm0 4.6h2.8v-3.3h-2.8zm4-4.6h2.8v-3.2h-2.8zm0 4.6h2.8v-3.3h-2.8zm3.7 1.9c2.1.9 4.1 1.8 6.1 2.7l-.7 1.3c-2.2-1.1-4.2-2-6.1-2.9zm3.2-9.7h-2.8v3.2h2.8zm-2.8 7.8h2.8v-3.3h-2.8z"/></g></svg>