<svg enable-background="new 0 0 400 400" viewBox="0 0 400 400" xmlns="http://www.w3.org/2000/svg"><g fill="#010101"><path d="m309.93 373.95c-3.58-6.8-7.35-13.5-10.69-20.41-11.65-24.13-17.86-49.72-20.74-76.3-2.91-26.86-4.06-53.76-3.99-80.76.02-8.83-1.32-17.66-1.2-26.48.09-7.11 1.46-14.2 2.23-21.3 2.1-19.36 4.51-38.77 2.26-58.24-1.21-10.5-3.89-20.83-6.02-31.21-.19-.95-.98-2.23-1.8-2.54-8.34-3.19-16.74-6.22-24.98-9.24-2.39 2.25-1.28 3.53.67 4.91 11.07 7.85 15.56 18.41 12.67 31.8-.37 1.73-1.4 3.45-2.5 4.87-2.1 2.7-4.48 5.19-6.74 7.76-.51-.23-1.02-.46-1.53-.69-.88-8.72-1.86-17.44-2.59-26.18-.28-3.44-.03-6.94.05-10.4.14-5.88-1.66-9.48-7.35-11.41-5.34-1.81-11.05-2.57-16.62-3.64-1.63-.31-3.38-.33-5.02-.11-1.18.16-2.72.65-3.31 1.52-1.14 1.67-1.03 3.32.99 4.83 11.28 8.43 12.5 21.6 8.25 33.22-.29.8-.82 1.65-1.48 2.15-3.81 2.9-7.69 5.69-12.18 8.99.5-6.5 1.18-12.32 1.33-18.15.17-6.45-.09-12.91-.32-19.37-.04-1.29-.67-2.59-1.16-3.83-3.22-8.1-3.96-8.38-12.59-7.66-18.06 1.5-36.13 2.87-54.21 4.13-2.72.19-4.3 1.37-5.64 3.81 9.96 6.72 17.65 15.09 16.92 28.05-.56 10.09-6.46 17.06-15.09 22.23-.22-.55-.64-1.11-.64-1.65.09-5.02.48-10.04.34-15.05-.2-7.23-.29-14.51-1.33-21.64-.78-5.35-4.89-8.27-9.7-8.83-1.89-.22-3.07.35-4.17 1.94-7.71 11.12-9.35 23.45-7.71 36.53 1.59 12.63 3.32 25.26 4.54 37.93.51 5.31-.23 10.72-.24 16.09-.04 20.82-.23 41.65.05 62.46.24 18.28-.29 36.43-4.03 54.41-3.98 19.15-7.3 38.44-11.6 57.51-2.88 12.78-7.96 24.89-14.59 36.27-1.06 1.83-2.24 3.58-3.83 5.19 1.25-4.73 2.55-9.45 3.74-14.19 6.69-26.64 10.67-53.71 12.91-81.07 2.83-34.6 4.64-69.25 3.87-103.96-.28-12.39-1.84-24.76-2.93-37.13-1.58-17.94-3.28-35.88-4.85-53.82-.11-1.27.31-2.65.73-3.89 1.81-5.4 3.95-10.71 5.5-16.18 1.04-3.68 3.17-6.2 6.02-8.53 12.19-10.01 26.45-14.34 41.83-16.5 29.34-4.12 58.73-3.14 88.12-1.64 7.29.37 14.56 2.23 21.73 3.87 13.81 3.15 21.87 12.52 26.82 25.29 4.41 11.39 5.62 23.17 5.35 35.24-.39 17.15-1.85 34.17-5.2 51.02-.49 2.47-.19 5.13-.09 7.69 1.5 39.93 3.3 79.84 3.18 119.82-.03 8.68 2.69 17.4 4.37 26.05 4.92 25.34 9.96 50.66 14.96 75.99-.27.14-.52.29-.77.43z"/><path d="m220.1 204.99c1.92 8.07 3.81 15.26 5.33 22.52 5.04 24.11 4.87 48.41 2.48 72.79-1.99 20.25-4.83 40.37-9.33 60.3-10.45-23.35-9.68-127.06 1.52-155.61z"/><path d="m185.27 200.35c4.82 9.22 7.18 18.24 8.63 27.55 3.39 21.74 1.61 43.51.37 65.28-1.26 22.06-5.65 43.64-9.85 65.25-.21 1.07-.5 2.12-.89 3.77-.72-10.42-1.33-20.19-2.08-29.95-1.14-14.71-2.61-29.39-3.46-44.11-.34-5.98.72-12.03.93-18.06.24-6.78.67-13.6.23-20.35-.46-6.97-.31-13.76 1.04-20.63 1.68-8.55 2.9-17.19 4.33-25.78.12-.75.36-1.47.75-2.97z"/><path d="m258.08 202.31c2.55 5.04 2.89 10.23 1.91 15.48-1.27 6.81-2.65 13.59-4.21 20.34-1.94 8.42-.13 16.7.7 25 2.03 20.24 3.93 40.51 6.66 60.66.94 6.96 4.15 13.61 6.35 20.39.78 2.4 1.63 4.78 2.62 7.66-14.11-15.15-23.85-32.09-27.23-51.97-1.78-10.51-2.55-21.34-2.39-32 .33-21.88 4.89-43 13.93-63.05.28-.61.53-1.23.83-1.83.11-.18.34-.28.83-.68z"/><path d="m146.92 211.62c5.25 6.01 8.46 12.16 10.75 18.82 4.58 13.33 3.81 26.83 1.33 40.41-2.96 16.18-6.71 32.14-12.82 47.46-.45 1.13-.9 2.36-1.7 3.22-7.02 7.67-14.12 15.26-21.6 22.68.3-.86.56-1.73.91-2.56 3.78-9.19 7.24-18.54 11.47-27.52 4.16-8.84 4.82-18.31 6.18-27.66 3.43-23.71 5.56-47.53 5.5-71.51-.02-.83-.02-1.67-.02-3.34z"/><path d="m244.9 153.37c1.73 1.97 3.36 3.81 4.95 5.67 8.46 9.87 8.85 21.03 5.18 32.81-.21.67-.73 1.45-1.33 1.76-4.93 2.56-9.92 5.01-15.51 7.81 1.51-4.39 2.75-8.15 4.1-11.86 5.12-14.02 4.44-27.22-5.95-39.2 12.54-13.19 11.2-28.5 7.13-44.23 7.12 1.3 13.99 8.77 14.98 15.84 1 7.09-.08 13.86-3.31 20.16-1.13 2.19-3.27 3.88-5 5.75-1.66 1.8-3.38 3.54-5.24 5.49z"/><path d="m137.67 106.99c5.3 5.58 9.55 11.64 11.13 19.18.98 4.69-.4 8.94-2.43 13.23-2.7 5.72-4.96 11.67-7.07 17.64-.57 1.62-.4 3.83.21 5.48 1.75 4.68 3.53 9.43 6 13.75 3.91 6.82 2.92 13.76 1.54 20.83-.11.58-.61 1.23-1.12 1.55-5.41 3.48-10.86 6.9-17.03 10.8.88-2.7 1.46-4.59 2.1-6.45 3.23-9.39 5.13-18.66 2.76-28.84-2.51-10.81-1.92-21.82.62-32.85 2.58-11.18 5.96-22.47 3.29-34.32z"/><path d="m209.96 197.67c.57-15.26 1.12-30.2 1.68-45.16 7.32 1.37 13.4 8.88 14.11 17.22 1.23 14.36-3.87 23.65-15.79 27.94z"/><path d="m175.88 94.56c0-7.08.39-14.1-.11-21.06-.5-6.93-1.89-13.8-2.88-20.56 14.7 1.5 23.96 20.65 15.62 33.49-.35.54-.85 1.05-1.39 1.39-3.86 2.36-7.75 4.66-11.24 6.74z"/><path d="m205.18 143.33c0-14.47 0-28.27 0-42.14 10.65 4.81 17.36 16.26 16.22 27.65-.09.86-.66 1.89-1.33 2.45-4.72 3.92-9.53 7.73-14.89 12.04z"/><path d="m167.67 201.83c9.97-14.54 6.68-30.32 4.39-46.03 7.86 2.98 14.99 12.25 15.17 19.61.16 6.69-1.37 13.36-5.42 18.27-3.26 3.95-8.88 5.94-13.46 8.8-.22-.21-.45-.43-.68-.65z"/><path d="m174.09 104.15c8.6 2.89 13.91 9.71 13.58 18.52-.41 11.01-3.23 20.1-14.78 23.12.95-6.79 2.51-13.62 2.71-20.48.2-6.96-.94-13.97-1.51-21.16z"/></g><path d="m6.4 11.7c-1-.8-1.9-1.6-2.9-2.3l.6-.7c.9.7 1.9 1.4 2.9 2.2zm-2.1 8.3c.7-2.1 1.4-4.2 2-6.4.2.1.6.3 1 .4-.7 2.3-1.3 4.4-1.9 6.4zm3-12.8c-1.1-.9-2.1-1.7-2.9-2.4l.6-.7c1 .8 2 1.5 3 2.4zm1.4-1.3v-.9h10.2v.9c-.9 4.2-2.3 7.3-4.1 9.4 1.3 1.4 3.2 2.7 5.7 4-.2.2-.4.5-.7.9-2.5-1.4-4.4-2.7-5.7-4.2-1.4 1.5-3.5 3-6.1 4.4 0 0 0 0-.1-.1-.3-.4-.5-.7-.7-.8 2.7-1.3 4.7-2.8 6.2-4.2-1.8-2.2-3-5.3-3.7-9.4zm9.2 0h-7.1c.6 3.8 1.7 6.7 3.4 8.7 1.7-2 2.9-4.8 3.7-8.7z" fill="#fbfafa"/><path d="m31.6 3.6h.9v2.3h4.1v9.1h1.7v.9h-16.6v-.9h1.7v-9.1h4.1v-2.3h.9v2.3h3.1v-2.3zm-4 13.3.6.8c-1.9.9-3.8 1.9-5.8 2.8-.2-.3-.3-.6-.5-.9 2-.9 3.9-1.8 5.7-2.7zm-3.2-10.1v3.7h3.1v-3.7zm0 4.5v3.7h3.1v-3.7zm4.1-4.5v3.7h3.1v-3.7zm0 4.5v3.7h3.1v-3.7zm9.1 9.1c-2.1-1.1-4.1-2-5.8-2.7l.5-.8c2.2.9 4.1 1.8 5.8 2.6zm-1.9-13.6h-3.1v3.7h3.1zm-3.2 4.5v3.7h3.1v-3.7z" fill="#fbfafa"/></svg>