<svg enable-background="new 0 0 400 400" viewBox="0 0 400 400" xmlns="http://www.w3.org/2000/svg"><path d="m374.8 390.4.4-.4c.7.5 1.3 1 1.8 1.4l-.5.5c-.5-.6-1.1-1.1-1.7-1.5zm1 7.3-.6-.3c.5-1.4 1.1-2.8 1.5-4.3.2.1.4.2.6.3-.5 1.3-1 2.8-1.5 4.3zm-.4-10.3.4-.4c.4.3 1 .8 1.7 1.4l-.5.5c-.4-.5-1-1-1.6-1.5zm2.5.3h1.7v-1h.6v1h3.5v-1h.6v1h1.8v.5h-1.8v1.4h-2v1h3.2v2h-3.2v.9h3.3v.5h-3.4c0 .3-.1.6-.1.9h4v.5h-3.7c.7.9 1.9 1.5 3.8 1.7-.1.2-.2.4-.3.6-2.1-.4-3.5-1.1-4-2.1-.4 1-1.8 1.7-4 2.2-.1-.2-.2-.4-.3-.6 2.1-.4 3.4-1 3.8-1.8h-3.4v-.5h3.6c.1-.3.1-.6.2-.9h-3.3v-.5h3.4c0-.3 0-.6 0-.9h-3.2v-2h3.3v-1h-2.1v-1.4h-1.7v-.5zm1.1 3.5v1h2.7c0-.3 0-.4 0-.4 0-.1 0-.2 0-.2 0-.1 0-.2 0-.3h-2.7zm1.2-3v.9h3.5v-.9zm4.7 3h-2.6v.6.4h2.6z" fill="#fbfcfa"/><path d="m393.6 386.7h.6v1.5h2.7v6.1h1.1v.6h-11v-.6h1.1v-6.1h2.7v-1.5h.6v1.5h2.1v-1.5zm-2.7 8.8.4.6c-1.2.6-2.5 1.3-3.8 1.9-.1-.2-.2-.4-.3-.6 1.2-.6 2.5-1.2 3.7-1.9zm-2.2-6.7v2.4h2.1v-2.4zm0 3v2.5h2.1v-2.5zm2.8-3v2.4h2.1v-2.4zm0 3v2.5h2.1v-2.5zm6 6.1c-1.4-.7-2.7-1.3-3.9-1.8l.3-.6c1.5.6 2.7 1.2 3.9 1.7zm-1.2-9.1h-2.1v2.4h2.1zm-2.1 3v2.5h2.1v-2.5z" fill="#fbfcfa"/><g fill="#010101"><path d="m209.63 159.86c6.58 1.76 7.89 5.59 4.82 10.98-.67 1.18-.89 3.24-.31 4.38 3.41 6.71 2.99 13.72 1.79 20.7-1.22 7.15-2.93 14.22-4.54 21.29-.24 1.04-1.09 1.93-2.1 3.62-.55-1.51-.78-1.9-.83-2.31-1.61-13.54-3.29-27.07-4.71-40.63-.28-2.63.53-5.37.72-8.07.09-1.2 0-2.44-.17-3.64-.98-6.96-2.08-13.9-2.95-20.87-.13-1.03.43-2.5 1.18-3.21 2.38-2.23 2.66-4.48.82-7.1-.25-.36-.57-.92-.46-1.23 2.06-5.6-2.77-9.86-2.88-15.09-.11-5.25-.9-10.48-1.11-15.73-.05-1.17.84-2.66 1.74-3.52 1.87-1.78 2.34-3.68.82-5.64-4-5.14-3.96-11.09-3.35-17 .9-8.68 2.31-17.31.89-26.07-.11-.7.89-1.82 1.65-2.38 2.45-1.82 2.39-4.83-.47-5.84-5.46-1.92-11.04-3.51-16.76-5.29-.84 4.12-3.59 5.25-7.06 4.64-3.24-.57-6.37-1.69-9.6-2.38-2.58-.55-5.22-.81-8.23-1.26-.11 1.95-.33 3.37-.24 4.77.16 2.39-1.29 3.38-3.06 2.57-6.13-2.81-12.32-1.01-18.5-.77-1.67.06-3.33.01-5.12.01-.04.04-.32.21-.31.35.45 5.33-3.06 6.81-7.31 7.95-4.3 1.15-8.48 2.76-12.84 4.21-2.27-2.46-2.07-5.22-1.47-8.15 1.54-7.5 2.8-8.24 10.13-6.69 2.05.43 4.57.3 6.46-.53 8.44-3.69 17.4-4.75 26.36-6.14 8.03-1.25 16.01-2.98 23.92-4.88 3.39-.81 6.51-1.01 9.81.07 4.04 1.31 8.1 2.57 12.2 3.64 3.81 1 7.54 1.11 10.49-2.57-1.1-1.29-2.15-2.52-3.84-4.5 3.4-.36 6.08-.66 8.77-.91 3.53-.33 7.06-.83 10.6-.88 3.89-.05 7.83 0 11.65.59 8.94 1.36 17.84 2.99 26.73 4.67 5.14.97 8.44 4.08 9.03 9.4.94 8.54 1.78 17.1 2.43 25.68.29 3.75 1.45 7.03 2.9 10.49 1.91 4.55 2.53 9.64 3.76 14.48 5.32 20.81 3.25 42.05 3.46 63.14.01 1.16-2.05 3.46-2.72 3.31-2.16-.49-4.85-1.38-5.96-3.04-1.1-1.65-1.13-3.79-3.59-4.66-.87-.31-1.46-2.14-1.69-3.36-1.42-7.58-3.02-15.15-3.9-22.8-.44-3.8.41-7.77.93-11.63.12-.92 1.23-1.71 2.15-2.91-4.17-3.25-4.06-7.98-3.96-12.89.15-7.27.26-14.58-.4-21.81-.41-4.43-3.39-8.58-1.6-13.33-4.1-3.92-2.14-9.01-2.64-13.64-.62-5.67-2.73-7.72-8.18-6.29-7.66 2.01-14.01-1.53-20.7-3.69-2.61-.84-4.67-1.31-6.98.77-1.24 1.11-3.2 1.49-4.9 2.01-5.74 1.77-7.32 4.58-7.15 10.41.29 10.14.08 20.3.06 30.45 0 .55-.07 1.15-.3 1.64-3.85 8.4-1.67 17.15-1.48 25.78.05 2.34.19 4.72.61 7.02.61 3.35 1.63 6.63 2.27 9.98.84 4.38 1.66 8.77 2.12 13.19.36 3.44.08 6.94.2 10.4.12 3.42.41 6.74-4.22 7.68-1 .21-1.72 1.78-2.88 3.06z"/><path d="m120.52 165.58c3.23 4.22 2.14 9.77 1.2 15.31-.82 4.84-1.82 9.67-2.42 14.54-.5 4.03-4.33 4.01-6.33 6.17-.32-.07-.63-.13-.95-.2 0-4.53.04-9.06-.01-13.58-.13-12.3-.95-24.64-.22-36.89.52-8.66-.52-17.05-.91-25.58-.74-16.4-.54-32.89.21-49.29.15-3.36-.08-7.94 3.19-11 1.85-1.74 3.53-1.63 4.69.29 1.11 1.83 2 4 2.24 6.1.65 5.53 1.1 11.11 1.23 16.68.1 4.23-.46 8.46-.64 12.7-.05 1.21-.17 2.66.4 3.61 1.68 2.82 1.65 5.74 1.09 8.73-1.01 5.39.07 10.5.99 15.83.92 5.37-.24 11.1-.58 16.67-.27 4.35-.54 8.71-1.09 13.03-.25 2.01-1.16 3.93-2.09 6.88z"/><path d="m249.96 188.28c2.93 1.72 5.81 3.37 8.64 5.1.4.25.93.96.83 1.27-1.47 4.41 1.03 8.24 1.65 12.33 1.02 6.74 1.7 13.53 2.51 20.3.54 4.5.53 4.51-2.75 8.08 1.67 1.95 3.34 3.91 5.02 5.86-.24.27-.49.53-.73.8-1.05 0-2.11 0-3.51 0 .38.88.6 1.68 1.03 2.34 4.67 7.09 4.95 14.91 3.75 22.93-.53 3.52-3.8 7.36-4.82 6.34-1.73-1.73-3.55-4.47-3.45-6.7.22-4.68-1.62-8.37-3.39-12.37-5-11.27-7.2-23.05-4.57-35.29 1.01-4.68-.3-8.86-1.61-13.07-1.18-3.81-1.21-7.34.31-11.08.82-1.98.73-4.31 1.09-6.84z"/><path d="m149.7 199.38c8.54 3.23 12.87 9.21 12.9 17.97.03 8.26-.22 16.52-.26 24.78-.01 1.78.69 3.6.45 5.31-.16 1.16-1.67 3.21-2.12 3.09-4.34-1.11-6.43 2.21-9.58 4.86-.76-8.08-3.16-15.25-2.1-23.14.75-5.6-.63-11.5-1.15-17.25-.46-5.28-.41-10.46 1.86-15.62z"/><path d="m226.86 370.62c-.13-.15.67.33.69.84.04 1.04-.34 2.09-.55 3.14-.85-.33-2.15-.43-2.47-1.04-3.36-6.46-5.45-13.04-1.03-19.94.57-.9.9-1.95 1.47-3.21-1.56-.13-2.73-.24-4.21-.36-.59-5.22-1.2-10.41-1.76-15.61-.58-5.33-2.6-11.08-1.26-15.89 1.43-5.13-1.43-10.11.73-14.81 7.48.15 11 3.66 10.99 10.68-.01 6.79-.22 13.42-2.11 20.17-1.16 4.13.98 9.14 1.39 13.77.43 4.84.85 9.71.68 14.55-.07 2.34-1.49 4.65-2.56 7.71z"/><path d="m279.21 193.5c-3.08-4.23-5.22-10.03-3.66-14.1 3.14-8.2-1.93-14.04-3.34-20.9-.06-.29-.07-.6-.08-.68 2.26.57 4.46 1.17 6.69 1.68 4.48 1.04 6.31 4.31 3.99 8.21-2.46 4.11-2.5 8.04-1.26 12.5.85 3.06.97 6.4.94 9.6-.02 1.39-1.24 2.77-1.92 4.16-.46-.16-.91-.31-1.36-.47z"/><path d="m158.92 273.73c-5 .75-4.99.75-5.44-3.9-.13-1.33-.23-2.69-.54-3.98-.78-3.24.06-5.67 3.26-7 1.04-.43 2.81-1.31 3.08-.99.85.99 1.67 2.52 1.55 3.74-.42 4.08-1.25 8.13-1.91 12.13z"/></g></svg>