<svg enable-background="new 0 0 400 400" viewBox="0 0 400 400" xmlns="http://www.w3.org/2000/svg"><path d="m374.8 390.4.4-.4c.7.5 1.3 1 1.8 1.4l-.5.5c-.5-.6-1.1-1.1-1.7-1.5zm1 7.3-.6-.3c.5-1.4 1.1-2.8 1.5-4.3.2.1.4.2.6.3-.5 1.3-1 2.8-1.5 4.3zm-.4-10.3.4-.4c.4.3 1 .8 1.7 1.4l-.5.5c-.4-.5-1-1-1.6-1.5zm2.5.3h1.7v-1h.6v1h3.5v-1h.6v1h1.8v.5h-1.8v1.4h-2v1h3.2v2h-3.2v.9h3.3v.5h-3.4c0 .3-.1.6-.1.9h4v.5h-3.7c.7.9 1.9 1.5 3.8 1.7-.1.2-.2.4-.3.6-2.1-.4-3.5-1.1-4-2.1-.4 1-1.8 1.7-4 2.2-.1-.2-.2-.4-.3-.6 2.1-.4 3.4-1 3.8-1.8h-3.4v-.5h3.6c.1-.3.1-.6.2-.9h-3.3v-.5h3.4c0-.3 0-.6 0-.9h-3.2v-2h3.3v-1h-2.1v-1.4h-1.7v-.5zm1.1 3.5v1h2.7c0-.3 0-.4 0-.4 0-.1 0-.2 0-.2 0-.1 0-.2 0-.3h-2.7zm1.2-3v.9h3.5v-.9zm4.7 3h-2.6v.6.4h2.6z" fill="#fbfcfa"/><path d="m393.6 386.7h.6v1.5h2.7v6.1h1.1v.6h-11v-.6h1.1v-6.1h2.7v-1.5h.6v1.5h2.1v-1.5zm-2.7 8.8.4.6c-1.2.6-2.5 1.3-3.8 1.9-.1-.2-.2-.4-.3-.6 1.2-.6 2.5-1.2 3.7-1.9zm-2.2-6.7v2.4h2.1v-2.4zm0 3v2.5h2.1v-2.5zm2.8-3v2.4h2.1v-2.4zm0 3v2.5h2.1v-2.5zm6 6.1c-1.4-.7-2.7-1.3-3.9-1.8l.3-.6c1.5.6 2.7 1.2 3.9 1.7zm-1.2-9.1h-2.1v2.4h2.1zm-2.1 3v2.5h2.1v-2.5z" fill="#fbfcfa"/><g fill="#010101"><path d="m152.02 152.59c7.38 2.07 8.13 3.8 5.31 9.87-.37.79-.74 1.63-.84 2.48-.9 7.5-1.63 15.02-2.66 22.5-.46 3.37-4.63 7.76-6.77 8.05-.29-3.02-1.01-6.09-.7-9.06.16-1.57 2.12-2.95 3.45-4.64-4.77-2.17-4.02-6.67-3.82-11.16.51-11.62.76-23.26 1.23-34.89.07-1.72.83-3.41 1.16-5.13.2-1.06.37-2.18.23-3.23-.27-2.1-.46-4.29-1.22-6.24-1.78-4.58-.33-7.92 2.92-11.29 1.97-2.05 3.7-2.87 6.36-2.14 1.5.41 3.07.59 4.62.83.54.08 1.28.27 1.61.01 7.29-5.67 16.59-6.86 24.58-11 1.99-1.03 2.88-2.1 3.45-4.3.88-3.41 2.54-6.61 4.1-10.47-3.7-4.76-2.97-11.18-2.16-17.53.98-7.61 1.56-15.14-2.2-23.28-3.3 2.12-6.67 3.91-9.6 6.24-5.37 4.27-13.17 1.94-14.75-5.08 11.56-.61 20.9-7.31 31.29-11.18 3.72-1.39 7.75-1.91 11.61-2.95 1.57-.43 3.36-.86 4.51-1.89 3.25-2.9 7.21-2.45 9.88 1.71-6.27 2.44-12.43 5-18.71 7.2-2.71.95-3.69 2.6-3.7 5.19 0 1.57-.19 3.18.11 4.69 2.67 13.54 1.11 27.23 1.49 40.84.12 4.46 3.3 7.54 7.29 5.74 6.01-2.71 12.03-1.77 18.09-1.64 2.58.06 4.86.19 6.02-2.77.27-.68 1.34-1.03 2.31-1.72.73 1.26 1.33 2.29 2.02 3.47.59-.35 1.2-.7 1.92-1.13 2 2.13 2.39 4.61 1.52 7.15-1.3 3.78-.86 7.33.14 11.13.89 3.38.81 7.01 1.13 10.53.09.99-.2 2.13.19 2.97 3.21 6.87 1.14 14.13 1.65 21.19.06.79-.4 1.73-.87 2.44-1.54 2.34-2.13 4.46-.08 6.99.6.74-.12 2.6-.33 3.92-.23 1.36-1.17 2.91-.79 4.03 2.14 6.28-2.64 10.55-4.35 15.67-.34 1-1.93 1.59-3.47 2.77 0-2.83-.02-4.91 0-6.98.18-17.01.31-34.02.58-51.02.05-3.22.95-6.44.9-9.66-.05-2.97-.42-6.09-1.46-8.83-1.47-3.87-3.98-4.05-7.64-2.35-4.72 2.2-9.75 3.75-14.67 5.52-3.25 1.17-6.55 2.2-9.79 3.38-2.06.74-2.85 2.13-2.39 4.44.29 1.46.3 3.2-.23 4.56-2.19 5.71-2.05 11.58-1.76 17.52.35 7.26.47 14.54.62 21.81.06 3.01 1.01 6.51-4.61 7.29 1.7.7 2.27.96 2.85 1.18 3.36 1.26 4.54 3.1 3.23 6.37-1.79 4.46-2.45 8.94-2.28 13.73.14 4.05-.89 5.01-5.15 6.51-.08-.89-.19-1.72-.22-2.55-.38-11.02.92-22.09-1.79-33.07-.84-3.39.65-7.29.74-10.97.07-2.83-.46-5.68-.56-8.52-.11-2.88.02-5.78-.04-8.66-.07-3.45-.12-6.91-.37-10.35-.13-1.8-1.25-2.38-3.08-1.82-9.62 2.94-19.26 5.77-28.86 8.78-.96.3-2.19 1.48-2.32 2.39-.38 2.61-.4 5.29-.29 7.93.06 1.42.81 2.8.97 4.23.31 2.88.44 5.77.63 8.67.2 3.59-2.86 4.19-6.18 5.58zm47.97-50.66c-4.38-1.66-5.58-.61-4.82 4.18 1.65-1.43 3.09-2.68 4.82-4.18z"/><path d="m245.72 231.19c3.96.3 5.52 2.51 5.82 5.74.77 8.2 1.43 16.41 2.17 24.98-.7.35-1.86.94-3.3 1.67.95.87 1.97 1.45 2.44 2.32.59 1.09 1.28 2.6.96 3.63-.67 2.18-.12 3.91.38 6.02.9 3.83 1.07 7.89 1.06 11.85-.01 2.57-.88 5.14-1.53 8.56 4.66 6.5 4.75 18.54-.57 25.64 2.92 2.88 2.38 6.04.94 9.52-.87 2.1-.96 4.53-1.37 6.81-.33 1.84-.6 3.69-.9 5.53-.38.09-.76.19-1.14.28-.67-1.57-1.39-3.12-1.98-4.71-.54-1.46-.79-3.04-1.43-4.45-1.69-3.71-3.48-7.36 1.9-10.04-4.48-2.84-4-6.44-2.77-10.3 2.08.05 4.51 1.23 5.32-2.8-2.02 0-3.82 0-6.06 0-.11-.79-.42-2.26-.49-3.75-.28-5.88-.48-11.76-.72-17.65-.03-.67-.33-1.39-.16-1.99 1.68-6.02-.22-11.7-1.51-17.45-.93-4.16-.56-8.11 1.21-12.09.65-1.45.05-3.49-.11-5.24-.15-1.68-.47-3.33-.67-5.01-.06-.53.21-1.18-.01-1.6-3.13-5.92 1.58-10.31 2.52-15.47z"/><path d="m139.61 310.94c-.69-5.29-1.81-10.37-1.86-15.47-.02-2.95 1.83-5.88 2.56-8.88.33-1.37-.01-2.9-.07-4.36-.04-1.07-.39-2.2-.15-3.19 1.95-7.94 3.76-15.88 2.29-24.14-.06-.32-.04-.7.08-.99 3.4-8.65 2.93-17.78 3.35-26.79.02-.43.18-.85.41-1.89 1.5.78 3.25 1.15 3.91 2.21.49.78-.44 2.46-.86 4.24 2.08 2.54 4.43 5.69 3.41 10.02-3.89.67-4.21.96-5.03 4.63 2.12.51 4.24 1.03 6.65 1.61-.94 9.75-.97 19.53-3.05 28.87-1.83 8.22-2.99 16.42-3.8 24.74-.32 3.46-4.28 8.35-7.84 9.39z"/><path d="m192.73 276c6.65 3.12 7.52 12.85 1.97 19.37.7.85 1.49 1.65 2.11 2.56 1.67 2.43 2.53 4.92.77 7.78-.45.73-.66 2.18-.24 2.79 1.83 2.66.96 5.28.52 8.06-.53 3.37-.87 6.82-.79 10.22.13 5.81.48 11.63 1.06 17.41.34 3.35-.35 6.03-2.49 8.67-1.04 1.29-1.11 3.37-1.61 5.1.31.15.61.31.92.46-1.76-.13-3.51-.27-5.74-.43 0-3.07 0-6.05 0-9.03 0-6.15 0-12.3 0-18.46 0-1.01.23-2.13-.13-3-2.55-6.23-.88-12.19 1.5-17.86 1.84-4.38.77-8.31-.37-12.36-.71-2.55-1.08-4.95.15-7.44.36-.73.63-1.93.28-2.53-2.51-4.35.28-7.58 2.09-11.31z"/><path d="m192.13 374.7c.21-4.58.38-8.48.56-12.39.22-.06.43-.12.65-.18.67 1.32 1.34 2.64 2.24 4.4-.98.59-1.92 1.16-2.87 1.73 1.18 1.72 2.05 3 3.01 4.41-1.04.6-1.99 1.13-3.59 2.03z"/></g></svg>