<svg enable-background="new 0 0 400 400" viewBox="0 0 400 400" xmlns="http://www.w3.org/2000/svg"><g fill="#fbfafc"><path d="m12.4 4.8-6.1 9h6v1.2h-8v-.5l6.1-8.9h-5.7v-1.2h7.6v.4z"/><path d="m14 15v-10.6h3c1.6 0 2.9.5 4 1.4s1.6 2.2 1.6 3.8-.5 3-1.6 3.9-2.4 1.5-4 1.5zm1.4-9.4v8.2h1.6c1.3 0 2.4-.4 3.1-1.1s1.1-1.8 1.1-3.1-.4-2.3-1.2-3-1.8-1-3.1-1z"/><path d="m26.1 4.4v10.6h-1.4v-10.6z"/><path d="m36.1 14.6c-.8.4-1.8.6-2.9.6-1.5 0-2.7-.5-3.6-1.4s-1.4-2.2-1.4-3.8c0-1.7.5-3.1 1.5-4.1s2.3-1.6 3.9-1.6c1 0 1.8.1 2.5.4v1.4c-.8-.4-1.6-.6-2.5-.6-1.2 0-2.1.4-2.9 1.2s-1.1 1.8-1.1 3.2c0 1.3.3 2.3 1 3s1.6 1.1 2.7 1.1c1 0 2-.2 2.7-.7v1.3z"/><path d="m37.6 14.3c0-.2.1-.5.3-.6s.4-.3.6-.3c.3 0 .5.1.6.3s.3.4.3.6-.1.4-.3.6-.4.3-.6.3c-.3 0-.5-.1-.6-.3s-.3-.4-.3-.6z"/><path d="m50.2 15h-1.6l-5.3-8.2c-.2-.2-.3-.5-.4-.7 0 .2.1.7.1 1.5v7.4h-1.4v-10.6h1.7l5.2 8.1c.2.4.4.6.4.7 0-.3-.1-.8-.1-1.5v-7.3h1.4z"/><path d="m58.6 15h-5.7v-10.6h5.5v1.2h-4.1v3.4h3.8v1.2h-3.8v3.6h4.3z"/><path d="m67.1 5.6h-3.1v9.4h-1.4v-9.4h-3v-1.2h7.5z"/></g><path d="m255.04 24.4c2.05 1.52 4.9 2.59 6.03 4.63 5.9 10.64 10.85 21.74 9.89 34.31-.9 11.79-5.18 22.61-10.75 32.92-2.75 5.08-5.72 10.05-8.94 15.68 4.2-.35 7.71-.8 11.23-.92 15.2-.55 30.41-1 45.61-1.49 1.9-.06 3.8-.1 5.7-.21 6.27-.35 11.33 3.76 11.71 10.1.47 7.84-1.33 13.76-10.12 17.21-8.96 3.52-18.25 5.22-27.77 5.91-15.65 1.14-31.22 2.81-46.09 8.18-6.37 2.3-12.55 5.14-18.99 7.81 4.24 11 7.42 22.05 15 30.91 3.04 3.55 6.69 6.59 10.05 9.87 5.17 5.04 7.64 11.17 7.38 18.4-.28 7.72-.63 15.44-.74 23.16-.03 1.92.35 4.04 1.19 5.75 13.47 27.14 26.81 54.36 40.74 81.26 4.14 7.99 10.07 15.04 15 22.63 2.92 4.49 5.6 9.14 8.15 13.85.87 1.62 1.21 3.62 1.43 5.49.48 4.01-1.71 6.26-5.5 5.05-3.28-1.06-6.81-2.64-9.19-5.03-17.49-17.57-29.53-38.91-41.46-60.37-10.64-19.14-18.02-39.66-26.48-59.73-.86-2.04-2.43-3.94-4.08-5.45-2.89-2.63-5.95-5.14-9.21-7.29-7.67-5.06-9.18-13.28-10.62-21.2-1.38-7.56-1.44-15.35-2.16-23.03-.13-1.4-.33-2.93-1-4.11-4.32-7.58-8.73-15.1-13.26-22.56-.52-.86-2.13-1.87-2.88-1.65-13.81 4.08-27.65 8.08-41.29 12.69-5.88 1.99-11.47 5.04-16.92 8.1-11.71 6.58-24.93 8.37-37.48 12.29-.95.3-2.08.47-2.76 1.1-5.88 5.43-13.2 6.16-20.65 6.39-3.67.12-5.49-1.43-6.28-4.99-1.32-5.89.16-9.45 5.28-12.57 1.43-.87 2.89-1.72 4.39-2.46 24.66-12.14 49.27-24.36 74.02-36.3 6.11-2.95 12.71-4.9 19-7.5 2.65-1.1 5.38-2.36 7.55-4.17 3.15-2.61 4.22-6.35 3.1-10.35-1.78-6.34-3.29-12.82-5.82-18.86-4.35-10.4-8.76-20.87-14.39-30.6-3.85-6.66-9.72-12.18-14.88-18.04-3.49-3.97-7.25-7.73-8.32-13.14-.56-2.83-2.07-6.12 1.02-8.32 4.29-3.05 10.85-3.13 13.79-.05 7.48 7.85 15.61 15.29 21.79 24.09 6.37 9.07 10.78 19.52 15.98 29.4 2.13 4.06 3.95 8.28 6.14 12.3 2.54 4.66 4.36 9.5 5.13 14.77.76 5.16 4.8 8.36 10.02 7.28 4.76-.98 9.35-2.86 13.91-4.63 1.19-.46 2.22-1.85 2.9-3.06 12.16-21.28 19.4-44.11 21.5-68.55.69-8.01 1.55-16 2.33-24.01.37-.3.72-.59 1.07-.89z" fill="#000001"/></svg>