<svg enable-background="new 0 0 400 400" viewBox="0 0 400 400" xmlns="http://www.w3.org/2000/svg"><path d="m175.02 204.33c3.94-1.97 7.58-3.89 11.31-5.65 9.98-4.7 15.58-12.46 16.32-23.5 1.17-17.51 2.25-35.04 3.33-52.56.16-2.68-.06-5.38.15-8.06.9-11.57-.89-22.76-4.92-33.56-.74-1.99-2.66-3.82-4.49-5.05-4.28-2.87-10.46-1.66-13.61 2.3-3.35 4.2-6.4 8.68-10.12 12.52-1.86 1.92-4.78 3.44-7.42 3.85-5.28.81-10.69.8-16.05.97-2.47.08-5.67-3.14-5.06-5.5.73-2.82 1.68-6.09 3.65-8.01 12.75-12.42 25.78-24.55 38.79-36.69.96-.9 2.47-1.52 3.79-1.66 5.11-.53 10.25-.83 15.39-1.19 4.82-.33 7.85-3.09 8.51-7.82.63-4.47 4.44-8.67 8.65-9.54.32-.07.66-.12.98-.07 5.46.79 10.64 7.95 10.17 13.68-.52 6.21-2.06 12.69-.92 18.62 4.41 22.99 2.22 45.96 1.15 68.96-.92 19.75-4.77 39.08-9.01 58.29-1.71 7.77 5.08 16.68 13.05 16.53 7.85-.15 12.24 3.5 14.8 11.01-7.28 4.25-14.67 8.03-23.61 6.26-11.28-2.24-22.44-1.14-33.64.91-4.57.83-9.34.64-14.02.71-.83.01-2.16-.81-2.43-1.55-1.71-4.68-3.19-9.47-4.74-14.2z" fill="#010100"/><path d="m140.33 260.87c9.89-.96 18.99-1.86 28.09-2.74 13.13-1.27 26.25-2.67 39.4-3.69 3.6-.28 7.45.04 10.91 1.05 6.72 1.95 13.37 4.32 19.81 7.07 2.64 1.13 4.93 3.47 6.9 5.68 2.33 2.61 2.89 5.69 1.74 9.34-4.01 12.79-7.66 25.68-11.56 38.51-.57 1.87-1.52 3.71-2.67 5.29-2.53 3.48-3.55 6.99-2.14 11.3 1.62 4.96 1.77 10.03.08 15.15-3.14 9.49-8.42 17.54-16.15 23.8-6.42 5.2-13.76 5.03-20.36.14-2.25-1.66-4.36-3.56-6.77-4.95-6.94-4.01-10.86-10.34-14.16-17.32-7.34-15.54-11.75-32.08-16.4-48.51-2.87-10.12-6.18-19.81-13.6-27.61-.82-.86-1.62-2.01-1.85-3.14-.58-2.99-.84-6.02-1.27-9.37zm72.76 10.92c-.48.31-.87.53-1.22.8-6.07 4.87-12.38 6.8-19.76 2.53-3.21-1.86-6.9-1.47-10.42-.17-2.97 1.1-4.18 2.75-3.73 6.25 1.72 13.45 7.77 25.09 14.56 36.46 2.9 4.87 4.84 5.17 9.16 1.37 1.48-1.3 2.96-2.92 3.66-4.7 1.41-3.61 2.57-7.38 3.3-11.18 1.51-7.8 2.71-15.68 6.64-22.72 1.33-2.37 1.51-4.22-.39-6.21-.68-.71-1.19-1.59-1.8-2.43z" fill="#010100"/><g fill="#fcfafa"><path d="m342.2 3.2-6.3 9.2h6.1v1.2h-8.2v-.5l6.2-9.1h-5.7v-1.2h7.8v.4z"/><path d="m344 13.7v-10.9h3.1c1.6 0 3 .5 4.1 1.4 1.1 1 1.6 2.2 1.6 3.9s-.5 3-1.6 4-2.5 1.5-4.2 1.5h-3zm1.4-9.6v8.4h1.6c1.4 0 2.5-.4 3.2-1.1.8-.8 1.2-1.8 1.2-3.2s-.4-2.4-1.2-3.1-1.8-1-3.1-1z"/><path d="m356.3 2.8v10.9h-1.4v-10.9z"/><path d="m366.6 13.2c-.8.4-1.8.6-3 .6-1.6 0-2.8-.5-3.7-1.5s-1.4-2.3-1.4-3.9c0-1.7.5-3.2 1.6-4.2s2.4-1.6 4-1.6c1 0 1.9.1 2.6.4v1.5c-.8-.4-1.6-.6-2.6-.6-1.2 0-2.2.4-3 1.2s-1.1 1.9-1.1 3.3c0 1.3.4 2.3 1.1 3.1s1.6 1.1 2.8 1.1c1.1 0 2-.2 2.8-.7v1.3z"/><path d="m368.2 13c0-.3.1-.5.3-.6.2-.2.4-.3.6-.3.3 0 .5.1.7.3s.3.4.3.6-.1.5-.3.6c-.2.2-.4.3-.7.3s-.5-.1-.6-.3c-.2-.2-.3-.4-.3-.6z"/><path d="m381.1 13.7h-1.7l-5.5-8.4c-.2-.2-.3-.5-.4-.7 0 .2.1.8.1 1.5v7.6h-1.4v-10.9h1.8l5.3 8.3c.3.4.4.6.4.8 0-.3-.1-.8-.1-1.6v-7.5h1.4v10.9z"/><path d="m389.7 13.7h-5.8v-10.9h5.6v1.2h-4.2v3.5h3.9v1.2h-3.9v3.7h4.4z"/><path d="m398.4 4.1h-3.1v9.6h-1.4v-9.6h-3.1v-1.3h7.7v1.3z"/></g></svg>