<svg enable-background="new 0 0 400 400" viewBox="0 0 400 400" xmlns="http://www.w3.org/2000/svg"><path d="m194.87 374.79c-3.26-13.08-6.04-25.64-9.55-37.99-4.09-14.4-8.93-28.58-13.25-42.91-5.49-18.2-9.31-36.7-7.63-55.85.86-9.8 2.28-19.55 3.55-29.3.13-1.03.67-2.24 1.42-2.91 10.85-9.67 14.97-22.47 17.06-36.25.42-2.74.88-5.48 1.39-8.58-6.78-.79-13.3-1.56-19.83-2.3-15.78-1.8-31.61-3.19-47.3-5.57-5.67-.86-11.3-3.53-16.37-6.4-6.19-3.5-8.77-9.55-8.65-16.74.03-1.97.79-2.95 2.43-3.84 9.28-5.03 19.29-6.74 29.56-5.34 10.61 1.45 21.06 4.02 31.6 5.94 7.08 1.29 14.23 1.82 21.29-.21 9.36-2.69 12.01-6.2 12.66-15.9.84-12.65-1.35-24.96-3.71-37.29-3.43-17.97.75-33.74 14.14-46.61.99-.95 2.77-1.81 4.03-1.64 6.84.94 13.76 1.73 20.41 3.5 8.09 2.15 12.99 10.63 9.63 19.08-1.36 3.42-2.52 6.98-4.36 10.13-5.06 8.64.59 16.47 8.65 17.76 10.79 1.72 21.37.87 32.06-.45 5.27-.65 10.72-.88 15.97-.28 2.63.3 5.58 2.42 7.33 4.58 3.18 3.9 2.16 7.09-1.98 9.82-15.31 10.07-32.45 14.68-50.37 17.09-6.64.89-13.23 2.16-20.03 3.29-.53 4.23-1.21 8.31-1.44 12.41-.06 1.06.99 2.65 1.98 3.22 10.68 6.19 22.44 7.85 34.55 8.04 8.5.13 17.01.16 25.05 3.63 6.24 2.69 10.82 6.99 14.1 14.02-5.42 2.16-10.63 4.59-16.07 6.31-9.2 2.91-18.65 3.07-28.22 1.83-9.01-1.16-18.06-1.35-27.01.94-2.29.59-3.27 1.65-3.25 4.14.03 3.57-.08 7.21-.74 10.71-1.46 7.73.78 14.54 3.49 21.7 6.15 16.29 11.98 32.74 16.91 49.43 3.79 12.82 1.72 25.74-3.24 38.1-1.75 4.36-3.76 8.6-5.55 12.94-2.81 6.82-5.97 13.24-11.18 18.82-7.86 8.43-10.03 19.4-11.73 30.5-1.78 11.68-8.22 20.75-17.8 28.43z" fill="#010102"/><g fill="#fafbfa"><path d="m6.4 11.7c-1-.8-1.9-1.6-2.9-2.3l.6-.7c.9.7 1.9 1.4 2.9 2.2zm-2.1 8.3c.7-2.1 1.4-4.2 2-6.4.2.1.6.3 1 .4-.7 2.3-1.3 4.4-1.9 6.4zm3-12.8c-1.1-.9-2.1-1.7-2.9-2.4l.6-.7c1 .8 2 1.5 3 2.4zm1.4-1.3v-.9h10.2v.9c-.9 4.2-2.3 7.3-4.1 9.4 1.3 1.4 3.2 2.7 5.7 4-.2.2-.4.5-.7.9-2.5-1.4-4.4-2.7-5.7-4.2-1.4 1.5-3.5 3-6.1 4.4 0 0 0 0-.1-.1-.3-.4-.5-.7-.7-.8 2.7-1.3 4.7-2.8 6.2-4.2-1.8-2.2-3-5.3-3.7-9.4zm9.2 0h-7.1c.6 3.8 1.7 6.7 3.4 8.7 1.7-2 2.9-4.8 3.7-8.7z"/><path d="m31.6 3.6h.9v2.3h4.1v9.1h1.7v.9h-16.6v-.9h1.7v-9.1h4.1v-2.3h.9v2.3h3.1v-2.3zm-4 13.3.6.8c-1.9.9-3.8 1.9-5.8 2.8-.2-.3-.3-.6-.5-.9 2-.9 3.9-1.8 5.7-2.7zm-3.2-10.1v3.7h3.1v-3.7zm0 4.5v3.7h3.1v-3.7zm4.1-4.5v3.7h3.1v-3.7zm0 4.5v3.7h3.1v-3.7zm9.1 9.1c-2.1-1.1-4.1-2-5.8-2.7l.5-.8c2.2.9 4.1 1.8 5.8 2.6zm-1.9-13.6h-3.1v3.7h3.1zm-3.2 4.5v3.7h3.1v-3.7z"/></g></svg>