<svg enable-background="new 0 0 400 400" viewBox="0 0 400 400" xmlns="http://www.w3.org/2000/svg"><g fill="#fbfafc"><path d="m12.4 4.8-6.1 9h6v1.2h-8v-.5l6.1-8.9h-5.7v-1.2h7.6v.4z"/><path d="m14 15v-10.6h3c1.6 0 2.9.5 4 1.4s1.6 2.2 1.6 3.8-.5 3-1.6 3.9-2.4 1.5-4 1.5zm1.4-9.4v8.2h1.6c1.3 0 2.4-.4 3.1-1.1s1.1-1.8 1.1-3.1-.4-2.3-1.2-3-1.8-1-3.1-1z"/><path d="m26.1 4.4v10.6h-1.4v-10.6z"/><path d="m36.1 14.6c-.8.4-1.8.6-2.9.6-1.5 0-2.7-.5-3.6-1.4s-1.4-2.2-1.4-3.8c0-1.7.5-3.1 1.5-4.1s2.3-1.6 3.9-1.6c1 0 1.8.1 2.5.4v1.4c-.8-.4-1.6-.6-2.5-.6-1.2 0-2.1.4-2.9 1.2s-1.1 1.8-1.1 3.2c0 1.3.3 2.3 1 3s1.6 1.1 2.7 1.1c1 0 2-.2 2.7-.7v1.3z"/><path d="m37.6 14.3c0-.2.1-.5.3-.6s.4-.3.6-.3c.3 0 .5.1.6.3s.3.4.3.6-.1.4-.3.6-.4.3-.6.3c-.3 0-.5-.1-.6-.3s-.3-.4-.3-.6z"/><path d="m50.2 15h-1.6l-5.3-8.2c-.2-.2-.3-.5-.4-.7 0 .2.1.7.1 1.5v7.4h-1.4v-10.6h1.7l5.2 8.1c.2.4.4.6.4.7 0-.3-.1-.8-.1-1.5v-7.3h1.4z"/><path d="m58.6 15h-5.7v-10.6h5.5v1.2h-4.1v3.4h3.8v1.2h-3.8v3.6h4.3z"/><path d="m67.1 5.6h-3.1v9.4h-1.4v-9.4h-3v-1.2h7.5z"/></g><path d="m201.33 25.5c12.64 5.25 19.37 14.93 22.08 27.74 3.12 14.76.36 28.09-9.29 40.01-4.37 5.39-7.69 11.54-9.25 18.45-.78 3.47-.15 4.45 3.44 4.74 1.41.11 2.94-.03 4.27-.47 21.63-7.22 43.3-14.32 64.79-21.95 3.75-1.33 6.92-2.81 11.15-2.33 3.28.37 6.76-1.17 10.16-1.81 2.08-.39 4.18-.87 6.28-.99 5.66-.32 6.68.7 6.51 6.19-.12 3.91-.14 7.84-.48 11.74-.1 1.15-.86 2.57-1.77 3.26-5.51 4.21-11.08 8.36-16.79 12.29-1.98 1.37-4.39 2.15-6.67 3.06-11.11 4.43-22.22 8.84-33.37 13.15-.99.38-2.27.05-4.34.05-5.12 5.48-13.04 7.52-20.8 10.02-5.5 1.77-10.86 4.01-16.19 6.26-1.6.67-2.99 1.96-4.33 3.13-4.34 3.77-6.94 8.19-4.86 14.18 4.36 12.54 8.26 25.26 13.24 37.54 3.05 7.52 5.24 15.11 6.93 22.99 1.4 6.52 3.01 13.09 5.5 19.25 2.92 7.22 3.53 14.74 4.52 22.25 2.93 22.17 5.84 44.35 8.58 66.55 1.18 9.56 1.97 19.17-.46 28.7-.22.86-.48 1.72-.78 2.56-.26.71-.61 1.39-1.83 2.34-1.8-4.45-4.26-8.76-5.28-13.39-2.33-10.57-4.65-21.23-5.67-31.97-1.23-12.92-5.86-24.73-9.94-36.76-13.43-39.57-26.61-79.23-42.13-118.05-1.11-2.78-2.45-3.35-5.28-3.59-15.56-1.28-30.02 3.99-44.84 7.08-6.13 1.27-12.3 2.5-18.26 4.36-6.67 2.09-20.15-5.2-22.67-10.24-2.72-5.44-1.35-12.94 3.39-16.61 6.2-4.8 13.33-7.61 20.7-10.04 12.3-4.04 24.56-8.25 36.8-12.48 3.73-1.29 5.26-3.39 4.04-7.15-1.8-5.58-4.4-10.9-6.78-16.28-.94-2.13-2.54-4-3.28-6.18-4.37-12.79-8.85-25.55-12.72-38.5-1.58-5.28-1.8-10.97-2.47-16.49-.1-.87.65-2.58 1.13-2.63 1.26-.13 3 .03 3.84.82 3.18 2.98 6.04 6.29 9.07 9.43 10.24 10.62 19.71 22.05 32.05 30.47 2.12 1.45 4.25 2.89 6.43 4.26 4 2.51 10.3 1.19 12.89-2.66 6.93-10.27 11.48-21.54 13.08-33.78.59-4.51-.02-9.36-1.01-13.85-1.45-6.71-1.73-9.57.67-14.67z" fill="#000001"/></svg>