<svg enable-background="new 0 0 400 400" viewBox="0 0 400 400" xmlns="http://www.w3.org/2000/svg"><path d="m195.98 357.74c1.28 2.41 2.72 4.16 3.15 6.12 1.4 6.42-5.2 12.9-11.74 11.62-.89-.18-2.23-1.43-2.24-2.19-.01-2.7-.24-5.75.9-8.04 2.4-4.83 3.48-9.54 3.37-15.03-.22-11.08-2.22-21.59-5.6-32.16-2.51-7.86-2.99-16.41-4.02-24.7-1.48-11.87-2.25-23.83-4.12-35.63-1-6.31-3.64-12.37-5.6-18.73 2.18-.92 4.5-1.89 7.46-3.14-3.06-1.49-5.44-2.9-7.99-3.85-3.62-1.34-5.86-3.88-7.55-7.18-5.55-10.83-9.04-22.38-11.72-34.17-1.35-5.93-1.91-12.05-2.83-18.08.37-.2.74-.39 1.11-.59 4 1.58 7.94 3.33 12.03 4.64 1.76.56 3.92.6 5.71.14 4.32-1.12 8.47-2.9 12.79-4 3.74-.95 7.59-1.6 11.44-1.92 4.04-.33 6.68-2.99 5.24-6.8-4.96-13.05-3.98-26.9-5.88-40.35-1.38-9.74-2.13-19.58-3.19-29.37-.31-2.86-2.56-5.32-5.2-4.7-2.88.68-6.17 1.87-8.1 3.94-4.26 4.56-7.75 9.83-11.62 14.76-3.97 5.05-8.93 8.07-16.21 7.15 0-4.36-.07-8.78.07-13.2.02-.7.85-1.53 1.5-2.05 6.27-4.97 10.65-11.39 14.46-18.32 2.21-4.01 4.69-7.87 7.09-11.78 3.16-5.14 7.29-9.23 12.57-12.28 1.44-.83 2.68-2.64 3.23-4.27 2.79-8.26 5.33-16.6 7.96-24.91.33-1.04.72-2.07 1.05-3.03 6.98.02 11.05 3.69 11.31 10.26.16 4.13-.28 8.3.11 12.4.56 5.75 1.73 11.44 2.47 17.18.42 3.29.84 6.64.68 9.93-.5 10.17-1.37 20.33-1.89 30.5-.21 4.07.05 8.14-4.83 10.54 9.11 5.06 10.39 12.92 10.12 21.83-.2 6.75.04 13.66 1.24 20.28 1.56 8.61 8.84 13.5 17.62 13 2.67-.15 5.33-.72 8-.75 6.77-.07 10.16 4.6 8.1 10.91-.83 2.55-1.83 5.06-2.46 7.66-1.04 4.28-2.74 7.88-7.06 9.91-1.21.57-2.16 2.28-2.65 3.68-2.14 6.11-3.99 12.33-6.1 18.45-.87 2.51-1.88 5.05-3.27 7.3-12 19.41-20.86 40.27-28.54 61.67-.41 1.15-.52 2.78-.03 3.83 7.57 16.18 5.19 33.58 6.19 50.54.07 1.21-.67 2.55-1.29 3.69-1.73 3.24-3.6 6.42-5.24 9.29zm4.65-168.93c-4.65.37-9.61 1.44-14.44.99-8.87-.82-13.59 3.6-16.31 11.18-.43 1.19-.33 3.04.34 4.07 2.49 3.84 5.55 7.32 7.93 11.22 2 3.26 3.8 6.78 4.93 10.43 2.54 8.21 4.7 16.54 6.79 24.87.61 2.42 1.91 2.96 4.04 2.82 2.57-.17 3.99-1.58 4.76-3.98.88-2.76 1.64-5.64 3.09-8.09 1.03-1.74 2.9-3.48 4.77-4.12 2.6-.9 3.36-2.25 2.8-4.64-2.01-8.6.6-16.22 4.72-23.62 1.95-3.5 3.45-7.26 5.11-10.92.55-1.22 1.1-2.47 1.42-3.76.8-3.21-.35-5.08-3.65-5.39-5.34-.51-10.7-.72-16.3-1.06z" fill="#010100"/><g fill="#fcfafa"><path d="m342.2 3.2-6.3 9.2h6.1v1.2h-8.2v-.5l6.2-9.1h-5.7v-1.2h7.8v.4z"/><path d="m344 13.7v-10.9h3.1c1.6 0 3 .5 4.1 1.4 1.1 1 1.6 2.2 1.6 3.9s-.5 3-1.6 4-2.5 1.5-4.2 1.5h-3zm1.4-9.6v8.4h1.6c1.4 0 2.5-.4 3.2-1.1.8-.8 1.2-1.8 1.2-3.2s-.4-2.4-1.2-3.1-1.8-1-3.1-1z"/><path d="m356.3 2.8v10.9h-1.4v-10.9z"/><path d="m366.6 13.2c-.8.4-1.8.6-3 .6-1.6 0-2.8-.5-3.7-1.5s-1.4-2.3-1.4-3.9c0-1.7.5-3.2 1.6-4.2s2.4-1.6 4-1.6c1 0 1.9.1 2.6.4v1.5c-.8-.4-1.6-.6-2.6-.6-1.2 0-2.2.4-3 1.2s-1.1 1.9-1.1 3.3c0 1.3.4 2.3 1.1 3.1s1.6 1.1 2.8 1.1c1.1 0 2-.2 2.8-.7v1.3z"/><path d="m368.2 13c0-.3.1-.5.3-.6.2-.2.4-.3.6-.3.3 0 .5.1.7.3s.3.4.3.6-.1.5-.3.6c-.2.2-.4.3-.7.3s-.5-.1-.6-.3c-.2-.2-.3-.4-.3-.6z"/><path d="m381.1 13.7h-1.7l-5.5-8.4c-.2-.2-.3-.5-.4-.7 0 .2.1.8.1 1.5v7.6h-1.4v-10.9h1.8l5.3 8.3c.3.4.4.6.4.8 0-.3-.1-.8-.1-1.6v-7.5h1.4v10.9z"/><path d="m389.7 13.7h-5.8v-10.9h5.6v1.2h-4.2v3.5h3.9v1.2h-3.9v3.7h4.4z"/><path d="m398.4 4.1h-3.1v9.6h-1.4v-9.6h-3.1v-1.3h7.7v1.3z"/></g></svg>