<svg enable-background="new 0 0 400 400" viewBox="0 0 400 400" xmlns="http://www.w3.org/2000/svg"><path d="m201.84 260c-11.56 4.68-22.74 9.18-33.89 13.74-.8.33-1.47 1-2.14 1.58-18.29 16.04-39.55 25.97-63.42 30-6.38 1.08-13.14.3-19.69-.09-3.95-.23-7.85-4.17-8.41-7.47-.51-3.02 2.11-7.72 5.55-9.64 12.6-7.01 24.97-14.5 37.92-20.79 13.06-6.34 24.32-14.9 35.14-24.32 2.71-2.36 6.04-4.17 9.34-5.67 7.93-3.6 16.22-6.45 23.95-10.42 4.78-2.45 8.96-6.2 13.09-9.74 3.23-2.77 4.4-6.36 4.21-10.99-1.85-44.39-3.36-88.78-5.06-133.18-.31-8.05-1.07-16.08-1.64-24.11-.62-8.72 2.25-16.07 8.83-21.83.79-.69 2.43-1.05 3.45-.76 9.71 2.75 13.6 10.17 15.07 19.36.98 6.17 1.5 12.43 2.78 18.53.6 2.85 2.18 5.64 3.86 8.09 4.2 6.12 8.27 7.82 15.18 5.31 11.43-4.15 22.6-9.01 33.91-13.46 5.28-2.08 10.53-4.52 16.03-5.72 10.24-2.24 13.2 4.62 12.65 12.56-.07 1.02-1.09 2.18-1.98 2.89-12.35 9.79-24.65 19.66-37.19 29.2-10.56 8.03-20.72 16.39-28.26 27.47-.77 1.13-1.48 2.63-1.45 3.93.5 19.46 1.12 38.92 1.73 58.38.01.42.17.84.33 1.63 7.22-1.15 14.29-.72 20.86-5.61 10.31-7.67 22.83-10.55 35.35-12.66 6.16-1.04 12.42-1.42 18.64-2.16 1.74-.21 2.65.22 2.92 2.17.78 5.76 1.67 11.51 2.68 17.23.39 2.18-.23 3.42-2.12 4.64-13.08 8.43-27.43 14.02-42.05 19.02-9.33 3.19-18.53 6.66-26.38 12.87-5.47 4.33-9.73 9.54-11.46 16.48-.32 1.28-.53 2.63-.54 3.95-.03 24.29-.22 48.58.13 72.86.07 5.24 1.55 10.66 3.35 15.64 2.3 6.37 1.42 12.16-1.74 17.63-2.88 4.99-6.09 9.92-9.88 14.24-4.45 5.07-10.49 5.94-16.95 4.14-1.88-.52-2.59-1.46-2.76-3.45-1.42-16.72-2.97-33.43-4.47-50.14-1.82-20.25-3.62-40.53-5.47-61.33z" fill="#010102"/><g fill="#fafbfa"><path d="m6.4 11.7c-1-.8-1.9-1.6-2.9-2.3l.6-.7c.9.7 1.9 1.4 2.9 2.2zm-2.1 8.3c.7-2.1 1.4-4.2 2-6.4.2.1.6.3 1 .4-.7 2.3-1.3 4.4-1.9 6.4zm3-12.8c-1.1-.9-2.1-1.7-2.9-2.4l.6-.7c1 .8 2 1.5 3 2.4zm1.4-1.3v-.9h10.2v.9c-.9 4.2-2.3 7.3-4.1 9.4 1.3 1.4 3.2 2.7 5.7 4-.2.2-.4.5-.7.9-2.5-1.4-4.4-2.7-5.7-4.2-1.4 1.5-3.5 3-6.1 4.4 0 0 0 0-.1-.1-.3-.4-.5-.7-.7-.8 2.7-1.3 4.7-2.8 6.2-4.2-1.8-2.2-3-5.3-3.7-9.4zm9.2 0h-7.1c.6 3.8 1.7 6.7 3.4 8.7 1.7-2 2.9-4.8 3.7-8.7z"/><path d="m31.6 3.6h.9v2.3h4.1v9.1h1.7v.9h-16.6v-.9h1.7v-9.1h4.1v-2.3h.9v2.3h3.1v-2.3zm-4 13.3.6.8c-1.9.9-3.8 1.9-5.8 2.8-.2-.3-.3-.6-.5-.9 2-.9 3.9-1.8 5.7-2.7zm-3.2-10.1v3.7h3.1v-3.7zm0 4.5v3.7h3.1v-3.7zm4.1-4.5v3.7h3.1v-3.7zm0 4.5v3.7h3.1v-3.7zm9.1 9.1c-2.1-1.1-4.1-2-5.8-2.7l.5-.8c2.2.9 4.1 1.8 5.8 2.6zm-1.9-13.6h-3.1v3.7h3.1zm-3.2 4.5v3.7h3.1v-3.7z"/></g></svg>