<svg enable-background="new 0 0 400 400" viewBox="0 0 400 400" xmlns="http://www.w3.org/2000/svg"><path d="m362.1 8.8c1.1.8 2.1 1.6 3.1 2.4l-1 1.1c-1.3-1.1-2.3-2-3-2.5zm1.9 4.8c.5.2.9.4 1.4.5-.6 2.3-1.3 4.5-1.9 6.8l-1.5-.5c.8-2.1 1.4-4.3 2-6.8zm-1-9.4c1.3.9 2.4 1.8 3.4 2.5l-1 1.1c-1.4-1.2-2.4-2.1-3.2-2.6zm3.7 2.2v-1.4h10.3v1.2c-.5 3.6-1.8 6.8-4 9.4 1.5 1.6 3.4 2.8 5.7 3.8-.3.4-.7.8-1.1 1.4-2.3-1.1-4.1-2.5-5.6-4.1-1.6 1.6-3.6 3.1-5.9 4.3-.3-.5-.7-.9-1-1.3 2.4-1.1 4.4-2.5 6-4.1-1.9-2.5-3-5.6-3.3-9.3h-1.1zm8.8 0h-6.4c.3 3.3 1.3 6 3 8.2 2-2.3 3.1-5.1 3.4-8.2z" fill="#fbfcfa"/><path d="m385.3 3.8h1.3v2.2h2.8v-2.2h1.3v2.2h4.1v9.1h1.7v1.3h-16.9v-1.3h1.7v-9.1h4.1v-2.2zm.4 13.1.7 1.2c-1.8.9-3.8 1.9-6 2.9-.2-.4-.5-.8-.8-1.3 2.3-1 4.3-1.9 6.1-2.8zm-3.1-6.4h2.8v-3.2h-2.8zm0 4.6h2.8v-3.3h-2.8zm4-4.6h2.8v-3.2h-2.8zm0 4.6h2.8v-3.3h-2.8zm3.7 1.9c2.1.9 4.1 1.8 6.1 2.7l-.7 1.3c-2.2-1.1-4.2-2-6.1-2.9zm3.2-9.7h-2.8v3.2h2.8zm-2.8 7.8h2.8v-3.3h-2.8z" fill="#fbfcfa"/><path d="m184.92 237.07c-18.86-4.62-36.81-9.01-54.77-13.4.03-.13.06-.27.09-.4 13.16.78 26.32 1.63 39.49 2.33 12.51.66 25.04 1.47 37.26-2.45 8.46-2.71 15.82-7.12 21.97-13.88-6.93-5.62-14.81-8.97-23.05-11.57-14.28-4.51-29.06-6.22-43.89-7.45-15.26-1.26-30.55-2.21-45.85-3.3 5.06-2.69 10.74-3.96 16.52-4.8 15.05-2.19 29.9-.32 44.69 2.38 15.95 2.9 31.87 5.93 47.81 8.88 6.74 1.24 9.94-.87 11.22-7.6.46-2.39.46-4.89.44-7.34-.01-.88-.46-2.01-1.1-2.6-9.78-8.99-20.12-17.23-33.28-20.66-4.69-1.22-9.67-1.58-14.55-1.83-16.04-.83-32.09-1.43-48.14-2.12-.02-.44-.03-.88-.05-1.33 1.57-.39 3.14-.84 4.72-1.17 8.97-1.87 17.93-3.86 26.94-5.48 3.21-.58 5.25-2.14 5.78-5.09 1.23-6.9 2.8-13.84 3-20.8.34-11.73-.32-23.49-.43-35.24-.02-2.39-.94-3.67-3.08-4.52-3.86-1.55-7.42-1.41-11.29.41-3.79 1.78-7.98 2.69-11.96 4.07-1.11.38-2.29.88-3.14 1.64-5.33 4.79-10.47 9.78-15.88 14.48-3.13 2.72-5.25 5.93-6.93 9.67-6.64 14.78-13.45 29.48-20.2 44.21-.4.88-.88 1.73-1.53 2.52.29-10.81 2.79-21.11 6.52-31.15 3.46-9.32 7.01-18.62 10.66-27.86.62-1.57 1.78-3.11 3.08-4.21 7.34-6.22 14.56-12.65 22.35-18.26 3.14-2.26 7.59-2.84 11.55-3.77 3.25-.77 6.65-.86 9.96-1.38 7.39-1.14 11.29-5.51 11.88-12.95.68-8.7 1.46-17.39 2.21-26.09.08-.87.29-1.72.59-3.39 3.14 6.2 4.42 12.1 5.32 18.13.6 4.08 1.09 8.21 2.12 12.19.6 2.31 1.97 4.49 3.33 6.5 1.8 2.67 4.24 4.38 7.71 4.66 4.56.37 9.09 1.18 13.64 1.75 14.4 1.8 25.24 9.87 34.56 20.18 9.8 10.83 14.17 24.27 16.1 38.41 1.61 11.82 2.25 23.77 3.3 35.45-.36-1-.86-2.26-1.28-3.56-4.8-14.89-9.55-29.79-14.43-44.66-.6-1.84-1.68-3.66-2.96-5.11-5.4-6.13-11.33-11.83-16.39-18.22-7.15-9.02-16.71-12.29-27.55-13.23-3.66-.32-7.33-.51-11.38-.78-3.17 20.72-6.3 41.22-9.47 61.98 5.33 1.99 10.54 3.95 15.75 5.88 9.53 3.53 19.07 7.06 28.61 10.58 12.68 4.68 17.46 12.01 16.47 25.61-.77 10.6-.03 20.95 3.55 31.08 2.34 6.63 4.16 13.45 6.15 20.2 6.26 21.21 12.26 42.51 18.86 63.62 2.59 8.28 6.53 16.14 9.86 24.19.5 1.22 1.03 2.43 1.14 3.94-.6-.63-1.24-1.22-1.79-1.89-13.27-16.48-21.36-35.16-24.8-56.07-2.63-16.01-8.92-30.64-18.9-43.56-.67-.87-1.4-1.69-2.04-2.45-4 2.26-7.7 4.56-11.58 6.52-8.43 4.27-17.32 6.35-26.87 5.71-8.58-.58-12.21 2.74-11.71 11.38.34 5.84 1.88 11.64 3.18 17.39.24 1.07 1.75 2.2 2.93 2.66 9.47 3.7 18.88 7.62 28.55 10.73 7.31 2.35 11.77 7.26 14.47 13.83 2.02 4.9 3.75 10.18 4.24 15.41 1.42 15.38.19 30.62-4.52 45.44-.39 1.22-.95 2.38-2.04 3.5-.81-6.41-1.64-12.81-2.41-19.22-1.64-13.55-3.2-27.1-4.92-40.64-.15-1.19-.95-2.51-1.85-3.35-8.19-7.72-18.35-10.32-29.22-10.72-.89-.03-2.23 1.22-2.69 2.2-6.14 13.18-7.62 27.04-5.36 41.28 2.56 16.15 3.57 32.24-.38 48.32-.15.61-.4 1.19-1.14 1.75-3.07-31.62-6.13-63.25-9.25-95.38-6.66.59-13.08 1.15-19.49 1.76-.39.04-.82.36-1.11.66-8.32 8.81-16.77 17.7-20.35 29.59-2.4 7.99-3.49 16.38-5.11 24.6-1.05 5.32-2 10.66-2.99 15.99-.37.03-.74.07-1.11.1-1.09-6.05-2.34-12.07-3.23-18.15-2.23-15.29 1.03-29.79 6.77-43.86.36-.89 1.02-1.73 1.71-2.42 1.67-1.65 3.66-3.02 5.15-4.81 8.69-10.46 20.94-13.97 33.31-17.21 2.51-.66 4.51-1.69 5.26-4.1 2.33-7.29 4.42-14.65 6.67-22.28z" fill="#010106"/></svg>