<svg enable-background="new 0 0 400 400" viewBox="0 0 400 400" xmlns="http://www.w3.org/2000/svg"><path d="m371.58 338.53c-5.36 1.5-9.99 3.13-15.51 1.04-16.91-6.42-34.16-11.96-51-18.54-6.24-2.44-11.74-6.78-17.56-10.29-1.82-1.09-3.47-2.53-5.39-3.38-24.63-10.87-48.45-23.58-74.02-32.3-4.94-1.69-9.57-1.73-14.36.15-4.47 1.75-9 3.35-13.48 5.07-.82.31-1.65.76-2.29 1.34-11.95 10.89-26.61 15.2-42.16 15.87-14.48.63-28.63 3-42.89 5.04-14.84 2.12-29.72 1.93-44.34-1.67-3.59-.88-7.02-2.9-10.16-4.96-3.19-2.1-2.53-5.71.57-7.85 7.82-5.41 16.29-7.66 25.85-7.13 15.09.84 29.76-2.96 44.6-4.89 12.86-1.67 25.71-3.41 38.55-5.23 7.28-1.03 13.92-3.32 17.89-10.35-4.8-3.83-10.41-4.76-16.15-4.92-21.24-.6-42.5-.97-63.74-1.66-8.11-.26-16.08-.12-23.84 2.53-.69.23-1.67.35-2.25.03-4.34-2.44-8.61-5-12.78-7.84 2.51-.61 5.02-2.9 6.98.56.38-.21.64-.27.71-.41 3.81-8.57 10.34-12.79 19.73-13.83 16.79-1.86 33.51-4.96 50.46-3.6 12.92 1.04 25.83 2.57 38.59 4.78 6.4 1.11 12.46 4.21 18.65 6.48.69.25 1.31.81 1.83 1.36 4.07 4.33 11.23 4.93 15.52.65 7.67-7.63 12.18-16.7 11.33-27.94-.28-3.7-1.94-5.71-5.31-7.15-9.52-4.06-19.36-3.95-29.35-3-16.03 1.52-32.07 2.94-48.09 4.51-13.9 1.36-27.79 2.84-41.68 4.32-9.99 1.06-18.57-1.7-25.88-9.64 8.44-3.91 15.67-9.63 25.31-10.75 12.1-1.41 24.08-3.79 36.13-5.61 3.74-.56 7.6-.4 11.33-1.02 5.53-.92 7.01-2.95 6.68-8.41-.64-10.5-1.26-21-2.12-31.49-.11-1.32-1.38-3.13-2.57-3.63-1.98-.84-4.34-1.18-6.52-1.09-10.15.4-20.29.95-30.43 1.57-11.39.7-22.76 1.81-34.15 2.19-5.07.17-10.19-1.01-15.28-1.62-8.54-1.02-17.03-1.74-24.61 4.65-.99-2.26-1.77-4.04-2.62-6 1.08-.6 2-1.11 3.09-1.71-.78-1.18-1.49-2.27-2.51-3.81 3.68-3.55 7.33-7.16 11.11-10.63.75-.69 1.96-1.02 3.01-1.19 11.15-1.78 22.3-3.64 33.49-5.1 2.4-.31 4.99.87 8.1 1.49 6.26-5.37 14.56-5.68 23.09-5.4 8.36.27 16.74.34 25.1.16 2.72-.06 5.68-.69 8.08-1.94 3.77-1.96 5.09-5.76 5.25-9.89.22-5.92.19-11.86.62-17.76.21-2.89 1.08-5.7 4.97-6.08 1.02-.1 1.91-1.53 2.29-1.86-1.76-3.53-3.21-6.43-4.75-9.54 1.88-.94 3.41-1.84 5.04-2.49 3.29-1.33 5.99-3.17 7.85-6.39 1.56-2.7 4.39-2.86 6.82-.9.26.21.53.52.82.54 7.15.45 9.18 6.82 12.71 11.26 3.65 4.6 5.97 9.92 5.85 16.07-.12 6.49-.06 12.98-.04 19.47 0 1.22.13 2.47.37 3.67 1.33 6.71 2.45 7.89 9.28 7.55 23.63-1.16 46.86 2.58 70.17 5.4 14.09 1.7 28.18 3.46 42.3 4.91 5.4.56 9.56 2.72 12.91 7.21-6.78 4.59-14.32 6.69-22.23 7.54-9.62 1.04-19.12.4-28.67-1.55-5.84-1.19-12.02-.82-18.05-.98-18.56-.49-37.13-.75-55.69-1.43-4.68-.17-7.96 1.62-10.78 4.89-5.4 6.26-8.1 13.83-10.28 21.62-1.39 4.96-2.27 9.99-1.18 15.46 6.99.49 13.88 1.08 20.78 1.44 11.14.59 21.18 4.41 30.43 10.39 6.01 3.88 11.95 7.91 17.56 12.34 1.63 1.29 2.64 4.12 2.84 6.34.88 9.69-1.89 18.82-5.15 27.78-1.57 4.3-3.42 8.5-5.28 12.69-.71 1.6-.63 2.72.95 3.61 2.31 1.3 4.47 3 6.93 3.88 15.25 5.48 30.59 10.69 45.83 16.2 3.97 1.43 7.74 3.47 11.46 5.5 16.98 9.26 34 18.43 50.8 28.02 8.31 4.74 15.66 10.85 20.56 19.35 1.38 2.45 2.55 5.09 3.97 7.93z" fill="#010000"/><g fill="#fbfcfa"><path d="m361.2 9.6.8-1c.9.7 1.9 1.4 2.9 2.3l-.9 1.1c-1-1-2-1.8-2.8-2.4zm.5 10.6c.9-2.1 1.6-4.3 2.3-6.7.4.2.8.4 1.3.6-.7 2.1-1.5 4.3-2.2 6.6zm.4-15.2.9-.9c1 .8 2 1.6 2.8 2.4l-1 1c-.9-.9-1.8-1.7-2.7-2.5zm12.5-1.2h1.2v1.4h2.7v1.1h-2.7v2.7h-1.2v-.6h-1.8v1.3h4.9v3.8h-1.2v-.5h-3.7c0 .4-.1.9-.1 1.2h5.1v1h-5.2c0 .5-.1.9-.2 1.2h6v1h-5.2c1.1 1.3 2.9 2 5.5 2.2-.4.4-.7.8-.9 1.3-2.9-.5-4.8-1.6-5.7-3.5h-.1c-.8 1.7-2.7 2.9-5.9 3.6-.2-.4-.6-.8-.9-1.1 2.8-.6 4.6-1.4 5.4-2.5h-4.8v-1h5.3c.1-.3.2-.7.2-1.2h-4.9v-1h5c0-.4 0-.8.1-1.2h-3.5v.5h-1.2v-3.8h4.9v-1.3h-1.8v.5h-1.2v-2.7h-2.7v-1h2.6v-1.4h1.2v1.4h4.7v-1.4zm-6.6 8.3h3.6c0-.4 0-.9 0-1.4h-3.6zm1.9-4.6h4.7v-1.3h-4.7zm6.6 3.2h-3.7v1.4h3.7z"/><path d="m385.3 3.8h1.3v2.2h2.8v-2.2h1.3v2.2h4.1v9.1h1.7v1.3h-16.9v-1.3h1.7v-9.1h4.1v-2.2zm.4 13.1.7 1.2c-1.8.9-3.8 1.9-6 2.9-.2-.4-.5-.8-.8-1.3 2.3-1 4.3-1.9 6.1-2.8zm-3.1-6.4h2.8v-3.2h-2.8zm0 4.6h2.8v-3.3h-2.8zm4-4.6h2.8v-3.2h-2.8zm0 4.6h2.8v-3.3h-2.8zm3.7 1.9c2.1.9 4.1 1.8 6.1 2.7l-.7 1.3c-2.2-1.1-4.2-2-6.1-2.9zm3.2-9.7h-2.8v3.2h2.8zm-2.8 7.8h2.8v-3.3h-2.8z"/></g></svg>