<svg enable-background="new 0 0 400 400" viewBox="0 0 400 400" xmlns="http://www.w3.org/2000/svg"><path d="m72.7 347.58c16.5-4.8 33.01-9.6 49.75-14.47 0-1.23 0-2.33 0-3.44 0-37.05-.03-74.1.06-111.15.01-2.68-.58-3.84-3.44-4.44-16.84-3.54-33.64-7.33-50.44-11.04-.43-.09-.85-.22-1.37-.91 1.51-.33 3.01-.72 4.54-.97 36.87-5.9 73.75-11.79 110.62-17.68 7.18-1.15 14.34-2.36 21.54-3.37 2.24-.31 3.23-1.4 3.87-3.44 3.44-10.92 4.6-22.19 4-33.49-1.05-19.77-2.74-39.51-4.17-59.26-.03-.45-.12-.89-.16-1.33-.86-8.53-.87-8.44-9.48-9.18-33.32-2.85-66.64-5.77-99.96-8.65-1.78-.15-3.57-.23-5.43-.93 3.78-.57 7.56-1.17 11.34-1.69 26.26-3.61 52.48-7.49 78.79-10.68 14.64-1.78 29.41-2.91 44.15-3.34 9.79-.28 19.65 1 29.44 1.94 19.37 1.85 38.72 3.94 58.08 5.93.29.03.58.14.94.76-28.48 4.88-56.96 9.75-86.11 14.74-4.32 36.09-2.9 72.13 2.12 108.37 32.63 3.21 64.98 6.39 97.33 9.57-.01.11-.02.22-.03.33-31.3 4.54-62.53 9.7-93.93 13.44s-62.97 6.06-94.84 9.03c-.7 39.61-1.38 78.81-2.09 118.83 61.71-2.86 122.62 3.57 184.54 7.21-1.34.6-1.93.94-2.56 1.13-23.19 6.78-46.96 10.61-70.99 11.82-31.94 1.61-63.94 2.1-95.92 2.86-22.31.53-44.45-1.92-66.58-4.33-4.52-.49-9.04-.94-13.57-1.41-.01-.25-.02-.51-.04-.76z" fill="#010101"/><g fill="#fbfafa"><path d="m6.4 11.7c-1-.8-1.9-1.6-2.9-2.3l.6-.7c.9.7 1.9 1.4 2.9 2.2zm-2.1 8.3c.7-2.1 1.4-4.2 2-6.4.2.1.6.3 1 .4-.7 2.3-1.3 4.4-1.9 6.4zm3-12.8c-1.1-.9-2.1-1.7-2.9-2.4l.6-.7c1 .8 2 1.5 3 2.4zm1.4-1.3v-.9h10.2v.9c-.9 4.2-2.3 7.3-4.1 9.4 1.3 1.4 3.2 2.7 5.7 4-.2.2-.4.5-.7.9-2.5-1.4-4.4-2.7-5.7-4.2-1.4 1.5-3.5 3-6.1 4.4 0 0 0 0-.1-.1-.3-.4-.5-.7-.7-.8 2.7-1.3 4.7-2.8 6.2-4.2-1.8-2.2-3-5.3-3.7-9.4zm9.2 0h-7.1c.6 3.8 1.7 6.7 3.4 8.7 1.7-2 2.9-4.8 3.7-8.7z"/><path d="m31.6 3.6h.9v2.3h4.1v9.1h1.7v.9h-16.6v-.9h1.7v-9.1h4.1v-2.3h.9v2.3h3.1v-2.3zm-4 13.3.6.8c-1.9.9-3.8 1.9-5.8 2.8-.2-.3-.3-.6-.5-.9 2-.9 3.9-1.8 5.7-2.7zm-3.2-10.1v3.7h3.1v-3.7zm0 4.5v3.7h3.1v-3.7zm4.1-4.5v3.7h3.1v-3.7zm0 4.5v3.7h3.1v-3.7zm9.1 9.1c-2.1-1.1-4.1-2-5.8-2.7l.5-.8c2.2.9 4.1 1.8 5.8 2.6zm-1.9-13.6h-3.1v3.7h3.1zm-3.2 4.5v3.7h3.1v-3.7z"/></g></svg>