<svg enable-background="new 0 0 400 400" viewBox="0 0 400 400" xmlns="http://www.w3.org/2000/svg"><path d="m147.84 192.12c10.34 2.09 22.05-1.66 33.58-7.13 8.67-4.11 17.83-7.2 26.53-11.25 6.04-2.81 12.18-4.22 18.75-4 6.37.22 12.36-1.02 18.15-3.76 6.89-3.26 13.93-6.04 21.88-5.07 1.32.16 2.78-.66 4.16-1.09 8.63-2.71 17.22-5.51 25.89-8.09 1.76-.53 3.79-.53 5.64-.31 4.63.57 7.83 6.64 5.59 10.58-.48.84-1.75 1.27-2.69 1.82-13.4 7.92-28.57 10.72-43.24 14.97-1.07.31-2.22.47-3.2.97-20.83 10.59-43.52 16.2-65.28 24.29-11.52 4.28-23.19 8.19-34.59 12.78-7.57 3.04-15.1 3.79-22.97 2.2-10.73-2.17-21.45-4.4-32.18-6.61-3.76-.77-6.53-2.6-8.63-6.1-5.1-8.51-9.41-17.3-11.13-27.13-1.87-10.75 1.62-20.31 7.15-29.28.53-.85 1.71-1.4 2.69-1.86 9.59-4.56 19.2-9.08 28.8-13.61 2.22-1.05 4.74-1.75 6.6-3.26 8.3-6.77 18.38-8.72 28.35-11.23 5.59-1.41 10.89-3.94 16.36-5.85 1.65-.57 3.42-1.04 5.15-1.07 14.54-.25 28.69-2.42 42.22-7.97 1.18-.49 2.62-.38 3.95-.46 12.83-.78 25.7-1.15 38.49-2.42 8.9-.88 16.38-5.23 21.4-12.93 3.42-5.24 4.28-10.93 2.21-16.99-1.91-5.6-3.59-11.29-5.57-16.86-.43-1.22-1.5-2.67-2.62-3.1-3.3-1.27-6.83-3.03-10.19-2.89-13.81.57-27.77.08-41.24 4.19-10.47 3.19-20.89 6.64-31.51 9.25-10.82 2.66-19.88 9.11-30.15 12.86-10.07 3.67-20.12 7.4-30.25 10.92-2.17.75-4.64 1.07-6.94.95-11.37-.6-22.73-1.3-34.07-2.26-2.07-.18-4.18-1.52-5.98-2.75-2.45-1.66-3.57-3.87-2.71-7.19 1.46-5.62 2.26-11.4 3.62-17.05.3-1.27 1.55-2.8 2.73-3.26 2.46-.94 5.17-1.74 7.77-1.71 6.85.1 13.39-1.03 19.46-4.17 7.52-3.89 15.55-4.66 23.76-4.15 14.41.9 27.77-3.7 41.29-7.56 9.78-2.79 19.48-5.96 29.38-8.17 6.49-1.45 13.28-1.68 19.95-2.14 17.06-1.16 34.11-3.15 51.25-1.54 2.33.22 4.8.96 6.81 2.14 9.92 5.83 13.01 15.73 15.02 26.15 1.41 7.35 2.89 14.71 3.85 22.12.38 2.97-.16 6.23-.98 9.17-3.93 14.09-14.16 24.2-23.11 34.95-4.19 5.04-11.13 6.78-17.64 7.3-19.69 1.55-38.24 7.97-57.19 12.71-6.07 1.52-12.03 3.52-18.16 4.75-4.79.96-9.77.97-14.64 1.6-3.98.51-8.06.9-11.87 2.07-6.56 2.01-13.11.46-19.65.74-1.82.08-3.91.32-5.37 1.27-8.12 5.28-17.79 5.71-26.59 8.78-3.16 1.1-6.35 2.23-9.32 3.74-6.78 3.46-9.83 12.28-5.8 18.61 1.83 2.87 5.54 4.75 8.71 6.5 6.04 3.34 12.89 3.5 19.57 3.87 5.37.26 10.76.02 18.75.02z" fill="#000001"/><path d="m294.81 213.44c5.98 2.42 8.61 7.05 9.11 13.07.18 2.11.44 4.31.05 6.36-1.79 9.49.35 18.69 2 27.88 1.41 7.88.27 15.37-2.37 22.72-2.76 7.67-5.7 15.28-8.66 22.87-.51 1.32-1.42 2.52-2.31 3.65-4.71 5.97-9.71 11.74-14.14 17.91-4.47 6.22-10.14 10.7-16.64 14.67-16.91 10.32-33.81 20.54-52.8 26.75-9.82 3.21-19.71 6.22-30.14 5.62-5.4-.31-10.79-1.59-16.08-2.87-9.99-2.43-19.92-5.09-29.81-7.87-1.78-.5-3.48-1.81-4.85-3.12-2.18-2.07-3.81-4.75-6.09-6.68-9.27-7.79-13.33-17.65-13.62-29.71-.24-9.81-1.22-19.51-.3-29.42.77-8.25-.77-16.72-1.24-25.1-.25-4.4-.81-8.64 1.1-13.12 1.24-2.91.23-6.78.23-10.16 5.46-.49 6.05-.18 8.27 4.7 4.57 10.03 6.21 20.67 6.78 31.59.27 5.21 1.25 10.4 2.13 15.56.42 2.45 1.79 3.37 4.62 2.55 4.54-1.32 8.72-2.86 12.47-6.03 6.86-5.8 15.06-9.06 23.84-10.93 1.63-.35 3.26-1.38 4.55-2.49 2.61-2.27 5.16-4.67 7.42-7.28 5.44-6.28 12.4-10.16 19.97-13.12 9.98-3.91 19.97-7.81 30.04-11.48 2.56-.93 5.44-1.35 8.18-1.34 9.17.04 18.34.24 27.5.7 2.48.12 4.94 1.25 7.34 2.11 11.46 4.13 20.9-3.75 18.86-15.94-1.18-7.09-.71-13.8 3.01-20.09.28-.48.56-.97.88-1.43.1-.17.33-.27.7-.53zm-42.12 113.69c3.24-3.9 6.9-8.41 10.67-12.82 3.79-4.42 7.48-8.95 11.61-13.03 3.77-3.72 5.63-8.22 6.94-13.12.49-1.84.94-3.68 1.38-5.53 1.86-7.75-2.18-11.84-10.1-10.24-5.37 1.08-10.75 2.07-16.1 3.27-9.66 2.17-19.76 2.85-28.49 8.21-4.13 2.54-8.71 3.62-13.42 3.66-8.19.07-15.1 3.17-20.86 8.62-8.26 7.8-17.91 12.65-28.7 15.98-7.56 2.33-14.82 4.72-22.89 3.14-2.15-.42-4.6.44-6.85.98-.86.21-1.91.99-2.26 1.78-3.09 7.11-3.99 14.13 3.88 20.05 2.29 1.72 4.93 3.07 7.56 4.25 14.64 6.59 29.79 6.61 45.38 4.15 19.87-3.12 38.61-9.34 56.58-18.19 1.53-.75 3.43-.73 5.67-1.16z" fill="#000001"/><g fill="#fbfafa"><path d="m6.44 374.46.42-.45c.65.47 1.27.95 1.85 1.44l-.45.49c-.65-.56-1.25-1.06-1.82-1.48m.93 7.33-.63-.26c.55-1.36 1.05-2.8 1.52-4.33.19.1.38.19.59.27-.46 1.29-.95 2.73-1.48 4.32m-.38-10.38.44-.42c.43.34 1.01.82 1.74 1.44l-.49.49c-.53-.51-1.09-1.01-1.69-1.51m2.5.35h1.72v-1.04h.59v1.04h3.52v-1.04h.59v1.04h1.75v.53h-1.75v1.42h-2.03v.97h3.22v2.03h-3.24c0 .35-.01.66-.03.93h3.32v.53h-3.37c-.03.27-.08.58-.15.94h3.96v.53h-3.71c.67.92 1.93 1.48 3.79 1.68-.13.24-.23.44-.29.59-2.13-.38-3.48-1.08-4.04-2.12-.43.97-1.77 1.72-4.03 2.23-.09-.19-.2-.37-.33-.55 2.1-.42 3.37-1.03 3.81-1.83h-3.36v-.53h3.58c.08-.29.13-.61.16-.94h-3.33v-.53h3.39c.02-.27.04-.58.04-.93h-3.23v-2.03h3.25v-.97h-2.07v-1.42h-1.73zm1.12 3.44v1h2.65c.01-.3.02-.44.01-.4v-.25-.35zm1.19-2h3.52v-.91h-3.52zm4.71 2h-2.63v.59c0 .15-.01.28-.01.4h2.64z"/><path d="m13.56 383.74h.63v1.52h2.72v6.07h1.13v.6h-11.06v-.6h1.13v-6.07h2.73v-1.52h.63v1.52h2.1v-1.52zm-2.69 8.83.38.56c-1.24.63-2.53 1.25-3.85 1.85-.1-.21-.21-.42-.34-.63 1.36-.55 2.63-1.15 3.81-1.78m-2.13-4.27h2.1v-2.45h-2.1zm0 3.04h2.1v-2.46h-2.1zm2.72-3.04h2.1v-2.45h-2.1zm0 3.04h2.1v-2.46h-2.1zm6.07 3.6c-1.41-.71-2.7-1.3-3.86-1.78l.35-.56c1.45.62 2.75 1.19 3.88 1.72zm-1.25-9.09h-2.1v2.45h2.1zm-2.09 5.49h2.1v-2.46h-2.1z"/></g></svg>