<svg enable-background="new 0 0 400 400" viewBox="0 0 400 400" xmlns="http://www.w3.org/2000/svg"><path d="m374.8 390.4.4-.4c.7.5 1.3 1 1.8 1.4l-.5.5c-.5-.6-1.1-1.1-1.7-1.5zm1 7.3-.6-.3c.5-1.4 1.1-2.8 1.5-4.3.2.1.4.2.6.3-.5 1.3-1 2.8-1.5 4.3zm-.4-10.3.4-.4c.4.3 1 .8 1.7 1.4l-.5.5c-.4-.5-1-1-1.6-1.5zm2.5.3h1.7v-1h.6v1h3.5v-1h.6v1h1.8v.5h-1.8v1.4h-2v1h3.2v2h-3.2v.9h3.3v.5h-3.4c0 .3-.1.6-.1.9h4v.5h-3.7c.7.9 1.9 1.5 3.8 1.7-.1.2-.2.4-.3.6-2.1-.4-3.5-1.1-4-2.1-.4 1-1.8 1.7-4 2.2-.1-.2-.2-.4-.3-.6 2.1-.4 3.4-1 3.8-1.8h-3.4v-.5h3.6c.1-.3.1-.6.2-.9h-3.3v-.5h3.4c0-.3 0-.6 0-.9h-3.2v-2h3.3v-1h-2.1v-1.4h-1.7v-.5zm1.1 3.5v1h2.7c0-.3 0-.4 0-.4 0-.1 0-.2 0-.2 0-.1 0-.2 0-.3h-2.7zm1.2-3v.9h3.5v-.9zm4.7 3h-2.6v.6.4h2.6z" fill="#fbfcfa"/><path d="m393.6 386.7h.6v1.5h2.7v6.1h1.1v.6h-11v-.6h1.1v-6.1h2.7v-1.5h.6v1.5h2.1v-1.5zm-2.7 8.8.4.6c-1.2.6-2.5 1.3-3.8 1.9-.1-.2-.2-.4-.3-.6 1.2-.6 2.5-1.2 3.7-1.9zm-2.2-6.7v2.4h2.1v-2.4zm0 3v2.5h2.1v-2.5zm2.8-3v2.4h2.1v-2.4zm0 3v2.5h2.1v-2.5zm6 6.1c-1.4-.7-2.7-1.3-3.9-1.8l.3-.6c1.5.6 2.7 1.2 3.9 1.7zm-1.2-9.1h-2.1v2.4h2.1zm-2.1 3v2.5h2.1v-2.5z" fill="#fbfcfa"/><g fill="#010101"><path d="m138.78 219.47c.29-2.19.59-4.39.93-6.97 4.3.5 8.73.44 12.81 1.61 10.33 2.97 20.98 3.05 31.5 4.33 4.73.58 9.22 1.64 13.55 4.28 3.57 2.17 8.17 2.74 12.39 3.73 4.34 1.02 7.93 2.88 10.3 7.3-4.64 1.6-9.11 3.26-13.66 4.64-1.04.31-2.4-.23-3.57-.55-11.31-3.12-22.6-6.33-33.92-9.39-2.13-.58-4.41-1-6.59-.88-12.29.65-24.27-1.03-36.22-3.79-3.75-.87-4.96-3.81-7.27-6.11-.39.13-.88.15-1.17.4-6.42 5.56-13.79 4.7-21.3 3.31-5.49-1.02-10.98-2.12-16.51-2.74-5.49-.62-9.79 4.53-7.86 9.83 2.21 6.05 1.69 11.7.06 17.7-.72 2.66-.3 5.78.2 8.59 2.09 11.75.56 23.42-.48 35.11-.11 1.28-.19 2.82.38 3.88 4.04 7.57 3.56 15.8 3.65 23.92.03 3.11-.39 6.26-.95 9.32-.65 3.62-1.25 6.84 1.13 10.41 2.19 3.27 1.6 7.5-.38 10.91-2.35 4.05-.49 7.48 1.23 10.71.62 1.17 3.35 1.79 5.07 1.72 6.57-.28 13.13-.93 19.69-1.48 1.56-.13 3.14-.25 4.65-.62 6.56-1.59 11.95-.03 15.87 5.69.44.65.91 1.28 2.13 1.61.2-2.02.54-4.04.57-6.07.03-2.31 1.08-3.2 3.3-3.07 9.03.56 18.1.8 27.09 1.75 6.05.64 11.98 2.4 18 3.4 2.27.38 4.8.5 6.97-.1 8.82-2.44 17.18-2.11 25.12 2.87 2.45 1.54 4.65 1.92 7.55-.05 1.9-1.28 5.12-.94 7.71-.77 2.3.15 4.55 1.08 6.83 1.64 4.93 1.21 4.93 1.21 4.38 6.76-3.98.52-8.04 1.09-12.12 1.53-.65.07-1.57-.31-2.02-.8-2.66-2.9-6.1-2.86-8.97-1.32-6.59 3.56-13.55 3.42-20.59 3.09-11.28-.52-22.56-1.08-33.83-1.8-2.74-.18-5.59-.68-8.12-1.69-6.11-2.44-12.23-2.93-18.68-1.67-5.59 1.09-11.26 1.95-16.94 2.32-3.5.23-7.09-.53-10.62-1.03-8.52-1.22-17.01-2.66-25.55-3.75-2.63-.33-4.24-1.58-4.88-3.82-1.08-3.84-2.21-7.74-2.56-11.69-.63-7.09-1.73-13.93-5.27-20.27-.83-1.49-.63-3.59-.75-5.43-.18-2.95.36-6.08-.45-8.83-1.81-6.17-2.78-12.38-2.9-18.8-.22-12.31-.67-24.61-.91-36.92-.04-2.33.23-4.71.73-6.99 2.26-10.35.54-20.74.55-31.11.01-4.46.07-9 .9-13.35.63-3.29 2.43-6.38 3.91-9.45.29-.61 1.61-1.15 2.36-1.05 12.5 1.84 24.98 3.78 37.46 5.73.65.1 1.42.26 1.86.69 3.23 3.1 7.17 2.05 11.02 2.34 4.94.37 9.77 1.97 14.69 2.85 3.67.65 5.98 2 5.25 6.35-.13.77 1.43 1.82 2.22 2.74.36-.23.69-.46 1.03-.7z"/><path d="m230.42 238.38c-1.01-2.6-1.97-5.07-2.91-7.49 5.71-3.91 5.73-4.13 1-10.67 1.11-1.52 2.52-2.88 3.16-4.54.4-1.04.08-2.97-.68-3.74-4.93-5.01-4.15-11.06-3.3-17.06 1.91-13.5 4.61-26.93 5.84-40.49 1.33-14.57 1.2-29.27 2.02-43.9.32-5.66 1.37-11.29 2.32-16.89 1.31-7.79-1.42-12.78-8.85-15.4-1.89-.67-3.87-1.12-5.84-1.5-6.41-1.26-12.53-3.19-17.98-6.97-1.44-1-3.16-1.67-4.85-2.19-19.86-6.12-39.77-12.09-59.58-18.35-3.73-1.18-7.12-3.47-10.53-5.18-2.45.96-5.13 2.65-7.96 2.99-6.96.84-10.82-1.73-13.65-8.17-.99-2.25-1.83-4.59-3.03-6.72-.66-1.17-1.94-2-2.92-3-1-1.02-1.98-2.07-2.97-3.11.33-.47.66-.93.98-1.4 10.36 3.87 20.72 7.74 30.65 11.45-1.44 1.78-2.67 3.29-3.9 4.8.24.43.47.86.71 1.29 1.55-.32 3.46-.17 4.58-1.04 3.78-2.97 7.22-2.68 11.84-1.43 9.34 2.53 19.08 3.57 28.61 5.45 5.12 1.01 10.27 2.13 15.19 3.82 8.55 2.95 16.97 6.3 25.37 9.66 2.41.96 4.59.97 7.1.53 2.16-.38 4.62-.22 6.72.43 3.61 1.12 7.13 2.65 10.55 4.29 5.34 2.56 10.97 3.61 16.8 4.19 1.91.19 3.87 1.05 5.56 2.03 7.89 4.6 16.22 8.01 25.22 9.67 1.1.2 2.24.49 3.32.36 6.72-.81 12.71 1.32 18.68 4.07 7.2 3.32 14.51 6.43 21.9 9.3 2.95 1.14 4.53 2.87 5.16 5.84.37 1.73 1 3.4 1.67 5.62-4.72-.26-9.23.04-13.47-.91-4.12-.92-7.95-3.13-12.3-4.93-1.77 2.48-4.55 1.87-7.63 1.14-12.81-3.04-25.69-5.82-38.51-8.83-1.82-.43-3.66-1.37-5.15-2.51-3.72-2.87-8.89-1.57-9.68 2.92-.63 3.58-.93 7.37-.49 10.96.94 7.64.77 15.07-.74 22.66-.94 4.73-.57 9.76-.52 14.65.04 4.13.75 8.27.63 12.39-.07 2.24-1.38 4.41-1.9 6.67-.66 2.88-1.8 5.9-1.48 8.72.84 7.61-.47 14.9-1.87 22.27-.48 2.53.05 5.25.05 7.88 0 2.39.32 4.89-.24 7.16-2.34 9.44-5.11 18.77-7.4 28.22-.72 2.94-2.05 4.53-5.3 4.99z"/></g></svg>