<svg enable-background="new 0 0 400 400" viewBox="0 0 400 400" xmlns="http://www.w3.org/2000/svg"><g fill="#fafafb"><path d="m12.4 4.8-6.1 9h6v1.2h-8v-.5l6.1-8.9h-5.7v-1.2h7.6v.4z"/><path d="m14 15v-10.6h3c1.6 0 2.9.5 4 1.4s1.6 2.2 1.6 3.8-.5 3-1.6 3.9-2.4 1.5-4 1.5zm1.4-9.4v8.2h1.6c1.3 0 2.4-.4 3.1-1.1s1.1-1.8 1.1-3.1-.4-2.3-1.2-3-1.8-1-3.1-1z"/><path d="m26.1 4.4v10.6h-1.4v-10.6z"/><path d="m36.1 14.6c-.8.4-1.8.6-2.9.6-1.5 0-2.7-.5-3.6-1.4s-1.4-2.2-1.4-3.8c0-1.7.5-3.1 1.5-4.1s2.3-1.6 3.9-1.6c1 0 1.8.1 2.5.4v1.4c-.8-.4-1.6-.6-2.5-.6-1.2 0-2.1.4-2.9 1.2s-1.1 1.8-1.1 3.2c0 1.3.3 2.3 1 3s1.6 1.1 2.7 1.1c1 0 2-.2 2.7-.7v1.3z"/><path d="m37.6 14.3c0-.2.1-.5.3-.6s.4-.3.6-.3c.3 0 .5.1.6.3s.3.4.3.6-.1.4-.3.6-.4.3-.6.3c-.3 0-.5-.1-.6-.3s-.3-.4-.3-.6z"/><path d="m50.2 15h-1.6l-5.3-8.2c-.2-.2-.3-.5-.4-.7 0 .2.1.7.1 1.5v7.4h-1.4v-10.6h1.7l5.2 8.1c.2.4.4.6.4.7 0-.3-.1-.8-.1-1.5v-7.3h1.4z"/><path d="m58.6 15h-5.7v-10.6h5.5v1.2h-4.1v3.4h3.8v1.2h-3.8v3.6h4.3z"/><path d="m67.1 5.6h-3.1v9.4h-1.4v-9.4h-3v-1.2h7.5z"/></g><path d="m260.96 375.25c-3.93-7.3-6.5-14.98-7.18-22.98-1.13-13.25-1.39-26.56-2.16-39.84-.44-7.63-1.77-15.09-4.88-22.16-1.04-2.37-2.42-3.41-5.29-3.4-29 .14-58 .27-86.99-.01-11.64-.11-22.76-3.22-31.6-11.15-3.2-2.87-5.29-7.42-6.87-11.59-4.96-13.1-6.64-26.94-7.27-40.8-.62-13.72-.55-27.51-.06-41.24.45-12.73.88-12.69 12.89-16 26.29-7.25 52.47-14.9 78.89-21.64 13.62-3.47 27.64-5.35 41.49-7.93 3.74-.7 7.55-1.11 11.19-2.13 1.71-.48 3.96-1.79 4.48-3.25 1.83-5.11 3.71-10.38 4.31-15.72 1.99-17.84 2.1-35.7-.76-53.53-.87-5.45-3.9-8.41-8.86-8.85-7.09-.62-14.25-.69-21.37-.52-26.17.61-52.33 1.37-78.5 2.16-9.38.28-18.75.98-28.13 1.11-3.16.04-6.46-.71-9.48-1.74-4.75-1.63-7.05-5.14-7.9-10.91 7.98-4.24 16.59-6.84 25.46-8.72 13.42-2.84 27.04-3.65 40.7-3.69 20.26-.06 40.5-.53 60.64-3.05 2.11-.26 4.27-.33 6.31-.85 10.33-2.62 19.15 1.86 27.58 6.48 8.7 4.76 15.6 11.75 18.7 21.55 2.64 8.34 3.15 17.09 1.82 25.59-3.2 20.61-4.46 41.35-5.71 62.11-.08 1.33-.98 2.96-2.02 3.83-11.31 9.43-24.67 14.54-38.94 16.89-20.41 3.35-40.97 5.74-61.41 8.89-10.26 1.58-20.52 3.46-30.54 6.1-5.04 1.33-9.61 4.54-14.26 7.15-.9.51-1.64 2.12-1.67 3.25-.53 17.79-.95 35.58-1.33 53.37-.02 1.17.34 2.43.84 3.5 1.4 3.05 3.29 5.9 4.38 9.05 1.71 4.91 5.27 7 9.97 8.24 12.68 3.34 25.63 3.66 38.61 4.15 11.5.44 22.71-1.72 34.04-3.06 11.1-1.31 22.35-2.62 33.37.23 11.94 3.09 13.42 5.33 15.52 19.13 2.26 14.79 1.39 29.7.67 44.58-.62 12.96-1.29 25.93-1.84 38.89-.23 6.25-.13 6.26-6.84 8.51z" fill="#010105"/></svg>