<svg enable-background="new 0 0 400 400" viewBox="0 0 400 400" xmlns="http://www.w3.org/2000/svg"><path d="m362.1 8.8c1.1.8 2.1 1.6 3.1 2.4l-1 1.1c-1.3-1.1-2.3-2-3-2.5zm1.9 4.8c.5.2.9.4 1.4.5-.6 2.3-1.3 4.5-1.9 6.8l-1.5-.5c.8-2.1 1.4-4.3 2-6.8zm-1-9.4c1.3.9 2.4 1.8 3.4 2.5l-1 1.1c-1.4-1.2-2.4-2.1-3.2-2.6zm3.7 2.2v-1.4h10.3v1.2c-.5 3.6-1.8 6.8-4 9.4 1.5 1.6 3.4 2.8 5.7 3.8-.3.4-.7.8-1.1 1.4-2.3-1.1-4.1-2.5-5.6-4.1-1.6 1.6-3.6 3.1-5.9 4.3-.3-.5-.7-.9-1-1.3 2.4-1.1 4.4-2.5 6-4.1-1.9-2.5-3-5.6-3.3-9.3h-1.1zm8.8 0h-6.4c.3 3.3 1.3 6 3 8.2 2-2.3 3.1-5.1 3.4-8.2z" fill="#fbfafc"/><path d="m385.3 3.8h1.3v2.2h2.8v-2.2h1.3v2.2h4.1v9.1h1.7v1.3h-16.9v-1.3h1.7v-9.1h4.1v-2.2zm.4 13.1.7 1.2c-1.8.9-3.8 1.9-6 2.9-.2-.4-.5-.8-.8-1.3 2.3-1 4.3-1.9 6.1-2.8zm-3.1-6.4h2.8v-3.2h-2.8zm0 4.6h2.8v-3.3h-2.8zm4-4.6h2.8v-3.2h-2.8zm0 4.6h2.8v-3.3h-2.8zm3.7 1.9c2.1.9 4.1 1.8 6.1 2.7l-.7 1.3c-2.2-1.1-4.2-2-6.1-2.9zm3.2-9.7h-2.8v3.2h2.8zm-2.8 7.8h2.8v-3.3h-2.8z" fill="#fbfafc"/><path d="m23.9 104.91c6.38 0 12.45-.54 18.39.1 16.14 1.75 31.2-2.79 46.34-7.13 21.54-6.18 42.03-15.07 62.7-23.58 30.17-12.42 61.56-19.53 94.42-18.39 13.55.47 26.97 2.22 40.07 5.86 16.52 4.59 28.19 15.34 36.09 30.04 2.56 4.76 2.6 10.81 4.23 16.13 1.65 5.4 1.17 10.37-.94 15.57-2.65 6.51-4.63 13.29-7.09 19.89-.59 1.57-1.69 3.16-2.97 4.23-7.22 6.02-14.52 11.95-21.91 17.76-2.44 1.91-5.12 3.59-7.88 4.99-7.48 3.78-15.02 7.46-22.63 10.97-5.42 2.5-10.52 5.37-14.94 9.45-1.09 1.01-2.65 1.64-4.11 2.09-23.68 7.4-47.44 14.54-71.03 22.19-11.89 3.86-23.7 8.13-35.13 13.16-9.54 4.21-19.28 6.88-29.51 8.34-6.97.99-13.91 2.24-20.84 3.49-8.31 1.51-17.81 12.93-18.19 22.02-.46 11.03 3.22 20.87 9.23 29.93.58.87 1.63 1.49 2.56 2.06 10.45 6.41 21.93 9.77 33.92 11.98 18.83 3.47 37.67 6.6 56.87 6.95 25.37.47 50.11-3.38 74.42-10.55 29.14-8.6 57.25-19.73 84.19-33.75 4.43-2.3 8.26-5.76 12.7-8.04 7.04-3.62 14.47-5.97 22.62-3.99 2.12.51 3.1 1.43 3.39 3.71.82 6.43 2.08 12.81 2.84 19.25.17 1.48-.51 3.55-1.55 4.61-23.62 24.12-52.87 37.2-85.54 43.73-10.83 2.16-21.61 4.78-32.22 7.87-18.74 5.45-37.89 7.57-57.28 8.3-43.32 1.64-85.29-5.75-126.35-19.12-1.32-.43-2.61-1.29-3.62-2.25-7.24-6.84-14.84-13.38-21.42-20.81-2.98-3.36-4.61-8.39-5.61-12.93-1.17-5.29-1.16-10.87-1.34-16.34-.21-6.24-1.3-12.24-4.16-17.79-1.03-2-.72-3.39.49-5.15 5-7.29 10.22-14.46 14.63-22.1 3.59-6.23 8.99-9.63 15.11-12.56 10.92-5.23 22.54-7.87 34.4-9.69 21.38-3.29 41.36-11.16 61.48-18.61 25.04-9.28 50.1-18.47 75.16-27.71 8.74-3.22 16.29-8.43 23.17-14.54 10-8.88 19.32-18.36 24.5-31.08 2.49-6.12 3.55-12.47 2.93-19.03-.11-1.13-.89-2.5-1.79-3.22-7.98-6.28-17.18-7.85-26.95-6.28-11.26 1.81-22.6 3.39-33.65 6.1-9.84 2.41-19.34 6.21-28.98 9.43-37.42 12.5-74.87 24.89-112.22 37.61-7.77 2.65-15.14 2.53-22.57-.35-11.1-4.3-21.06-10.4-28.88-19.53-3.24-3.79-5.55-8.09-5.55-13.29z" fill="#000001"/></svg>