<svg enable-background="new 0 0 400 400" viewBox="0 0 400 400" xmlns="http://www.w3.org/2000/svg"><g fill="#fafafb"><path d="m12.4 4.8-6.1 9h6v1.2h-8v-.5l6.1-8.9h-5.7v-1.2h7.6v.4z"/><path d="m14 15v-10.6h3c1.6 0 2.9.5 4 1.4s1.6 2.2 1.6 3.8-.5 3-1.6 3.9-2.4 1.5-4 1.5zm1.4-9.4v8.2h1.6c1.3 0 2.4-.4 3.1-1.1s1.1-1.8 1.1-3.1-.4-2.3-1.2-3-1.8-1-3.1-1z"/><path d="m26.1 4.4v10.6h-1.4v-10.6z"/><path d="m36.1 14.6c-.8.4-1.8.6-2.9.6-1.5 0-2.7-.5-3.6-1.4s-1.4-2.2-1.4-3.8c0-1.7.5-3.1 1.5-4.1s2.3-1.6 3.9-1.6c1 0 1.8.1 2.5.4v1.4c-.8-.4-1.6-.6-2.5-.6-1.2 0-2.1.4-2.9 1.2s-1.1 1.8-1.1 3.2c0 1.3.3 2.3 1 3s1.6 1.1 2.7 1.1c1 0 2-.2 2.7-.7v1.3z"/><path d="m37.6 14.3c0-.2.1-.5.3-.6s.4-.3.6-.3c.3 0 .5.1.6.3s.3.4.3.6-.1.4-.3.6-.4.3-.6.3c-.3 0-.5-.1-.6-.3s-.3-.4-.3-.6z"/><path d="m50.2 15h-1.6l-5.3-8.2c-.2-.2-.3-.5-.4-.7 0 .2.1.7.1 1.5v7.4h-1.4v-10.6h1.7l5.2 8.1c.2.4.4.6.4.7 0-.3-.1-.8-.1-1.5v-7.3h1.4z"/><path d="m58.6 15h-5.7v-10.6h5.5v1.2h-4.1v3.4h3.8v1.2h-3.8v3.6h4.3z"/><path d="m67.1 5.6h-3.1v9.4h-1.4v-9.4h-3v-1.2h7.5z"/></g><path d="m120.39 263.88c3.96-4.31 7.7-8.47 11.56-12.51.81-.85 2.01-1.39 3.1-1.92 7.46-3.58 14.93-7.13 22.4-10.68 5.08-2.41 5.08-2.41 9.63.5 3.33-3.13 6.4-6.52 9.98-9.26 7.44-5.71 16.11-9.11 24.85-12.29 12.06-4.37 23.49-9.85 33.22-18.47 3.48-3.08 5.48-6.41 6.19-11.27 2.51-17.25 5.49-34.45 8.62-51.6 2.03-11.13-.73-21.71-2.29-32.55-1.45-10.09-7.26-17.46-12.19-25.67-4.63-7.73-10.78-11.89-19.38-14.2-14.56-3.9-28.67-9.54-43.3-13.11-10-2.44-20.54-2.75-30.86-3.75-5.92-.58-11.92-.8-17.18-3.88-2.81-1.65-5.24-3.93-8.61-6.52 8.78-2.55 16.56-4.28 23.93-7.08 12.13-4.6 24.57-2.49 36.88-2.47 8.02.02 16.06.98 24.04 1.93 6.21.73 11.82 3 16.21 7.9 2.51 2.81 5.56 5.14 8.46 7.77 2.07-1.61 3.99-3.11 5.75-4.48 5.14 3.47 10.19 6.57 14.89 10.15 4.46 3.39 7.64 7.75 8.17 13.69.28 3.09 1.05 6.15 1.6 9.19 5.47-.04 7.62 1.86 6.84 7.35-.87 6.11.76 11.22 3.39 16.64 6.5 13.35 8.71 27.9 10.17 42.52 1.27 12.73 2.12 25.6-1.29 38.06-2.73 9.99-6.75 19.63-10.3 29.39-.35.96-1.35 1.76-2.2 2.44-3.5 2.79-7.23 5.31-10.56 8.29-2.88 2.57-5.25 5.69-7.99 8.42-1.35 1.34-2.89 2.84-4.62 3.39-14.47 4.64-28.97 9.24-43.57 13.46-3.92 1.13-6.02 3.9-8.67 6.39-2.12 1.99-4.59 3.88-7.25 4.96-5.79 2.35-11.85 4.03-17.72 6.22-2.91 1.09-5.72 2.53-8.41 4.1-3.9 2.28-5.68 5.41-5.81 10.37-.19 7.33-1.6 14.65-2.83 21.92-2.52 15 .6 29.14 6.16 42.93.43 1.07 1.68 2.04 2.78 2.56 10.36 4.88 21.48 6.72 32.72 8.16 20.74 2.66 41.47 5.36 62.2 8.11 7.58 1.01 12.88 5.14 16.18 12.54-1.43.06-2.59.2-3.75.15-11.12-.48-21.99.86-32.94 3.04-6.76 1.35-14.02.67-21.02.25-12.73-.75-25.54-1.75-37.63-6.09-7.62-2.73-14.88-6.56-22.13-10.23-3.47-1.76-6.36-4.65-9.83-6.4-6.34-3.19-9.39-8.54-11.2-15.01-4.98-17.74-6.64-35.82-5.36-54.16.19-2.7 1.42-5.4 2.53-7.94 1.21-2.76 1.04-5.05-.98-7.31-.95-1.07-1.6-2.41-2.58-3.94z" fill="#010105"/></svg>