<svg enable-background="new 0 0 400 400" viewBox="0 0 400 400" xmlns="http://www.w3.org/2000/svg"><path d="m67.67 287.9c11.1-2.34 22.25-4.6 33.37-7.05 10.25-2.27 20.66-4.07 30.61-7.29 13.18-4.27 24.6-12.23 35.79-20.21 8.34-5.95 16.71-12.06 24.13-19.08 7.69-7.28 7.23-8.69-.74-15.55-25.76-22.17-53.68-40.95-85.39-53.64-2.45-.98-5.45-1-8.16-.86-6.81.35-13.6 1.07-20.4 1.6-9.82.77-17.18-7.44-14.83-16.59.29-1.11.92-2.3 1.75-3.09 22.7-21.82 37.55-48.77 50.3-77.06 3.97-8.8 5-18 2.1-27.48-1.32-4.33-1.63-8.77.26-13.14 1.16-2.67 2.73-3.63 5.44-2.09 1.94 1.1 4.06 1.92 5.9 3.17 10.62 7.2 20.08 15.73 28.22 25.65 1.44 1.75 2.27 4.33 2.56 6.63.59 4.76.73 9.59.82 14.4.02 1.31-.47 2.88-1.26 3.92-11.53 15.13-22.91 30.38-34.87 45.17-4.17 5.16-9.78 9.15-14.73 13.67-1.31 1.2-2.62 2.38-4.24 3.86 8.62 4.25 16.89 8.34 25.17 12.42 19.95 9.82 39.98 19.51 59.82 29.55 5.05 2.55 9.39 6.47 14.33 9.27 3.92 2.22 8.2 3.88 12.46 5.38.98.34 3.12-.61 3.76-1.6 10.23-15.68 16.49-32.67 16.4-51.64-.06-12.52-3.61-24.16-10.26-34.6-2.82-4.42-7.42-7.7-11.13-11.57-8.27-8.65-16.7-17.17-24.61-26.13-3.55-4.02-6.01-9.01-9.28-14.04 5.19-1.24 9.31-.94 13.34.5 9.31 3.32 18.06 7.4 25.43 14.41 8.42 8.02 17.53 15.3 26.29 22.97 7.28 6.39 13.47 13.72 18.55 21.98 1.17 1.9 2.23 3.96 3.78 5.52 7.77 7.85 8.9 17.77 7.67 27.76-1.04 8.45-3.46 16.81-6.04 24.98-2.51 7.97-5.71 15.77-9.15 23.4-2 4.43-5.3 8.25-7.6 12.56-1.28 2.4-2.07 5.2-2.45 7.91-.47 3.4.45 6.48 3.08 9.13 21.51 21.7 39.08 46.24 53.17 73.35 1.65 3.19 4.4 5.92 7.03 8.46 6.98 6.76 10.98 15.13 13.67 24.24 2.92 9.93 4.23 20.12 4.34 30.46.03 3-3.03 7-6.45 8.1-3.26 1.05-6 .17-8.36-2.54-6.76-7.76-11.84-16.51-15.87-25.92-.62-1.44-1.31-2.85-1.83-4.32-5.77-16.55-14.63-31.15-26.14-44.44-11.49-13.27-21.91-27.45-32.97-41.1-6.51-8.03-14.06-9.8-23.66-5.99-.97.38-1.85 1.14-2.61 1.88-3.39 3.35-6.19 7.66-10.17 9.98-16.1 9.41-32.1 19.19-48.98 27.02-26.83 12.45-54.92 14.18-83.42 5.51-2.7-.82-3.63-2.6-3.94-7.79z" fill="#010105"/><g fill="#fcfbfa"><path d="m377.9 391.2c-.2.3-.4.5-.6.8-.7-.6-1.4-1-2.2-1.5.2-.3.4-.5.5-.8.6.4 1.4.8 2.3 1.5zm-1.8 6.1c-.2-.2-.5-.4-.9-.6.4-.6.8-1.2 1.2-1.9s.7-1.3.9-1.9c.3.3.5.5.8.7-.7 1.3-1.4 2.6-2 3.7zm2.2-9c-.3.3-.5.5-.6.8-.6-.6-1.3-1.1-2-1.5.3-.3.5-.5.6-.7.6.5 1.3.9 2 1.4zm.3.2v-.9h2 4.5c-.3 1.3-.6 2.5-1 3.6s-.9 2.1-1.4 3c.4.5 1 1 1.6 1.4s1.2.8 1.9 1.1c-.3.2-.5.4-.8.8-.4-.3-1-.7-1.6-1.2s-1.2-1.1-1.6-1.6c-.5.6-1.1 1.1-1.7 1.6s-1.4.9-2.1 1.4c-.1-.3-.3-.5-.7-.8.6-.2 1.2-.5 1.9-1s1.4-1.1 2-1.8c-.5-.8-.9-1.6-1.2-2.5s-.6-2-.8-3.2c-.4.1-.7.1-1 .1zm2.5 2.7c.3 1 .7 1.7 1 2.2.3-.5.6-1.1 1-2s.6-1.9.9-3h-3.2-.4c.1.9.3 1.8.7 2.8z"/><path d="m396.5 388.5v1.5 3.6h1.5v.9c-.4 0-1 0-1.7 0h-7.9c-.5 0-.9 0-1.2 0v-.9h1.3v-3.5c0-.7 0-1.2 0-1.6h2.4c0-.8 0-1.4 0-1.7h1c0 .3-.1.8-.1 1.7h1.5c0-.8 0-1.4 0-1.7h1c0 .3-.1.9-.1 1.7zm-8.2 9.2c-.2-.3-.5-.5-.8-.8.8-.3 1.4-.6 1.9-.9s1-.7 1.4-1.1c.3.3.6.5.9.8-1.6 1-2.8 1.6-3.4 2zm2.6-6.8v-1.6h-1.5v1.6zm0 2.7v-1.9h-1.5v1.9zm2.4-2.7v-1.6h-1.5v1.6zm0 2.7v-1.9h-1.5v1.9zm.2 2 .7-.8c.4.2.9.5 1.6.8s1.3.7 1.8 1c-.3.3-.5.5-.8.8-.4-.3-1.5-1-3.3-1.8zm2-4.7v-1.6h-1.4v1.6zm0 2.7v-1.9h-1.4v1.9z"/></g></svg>