<svg enable-background="new 0 0 400 400" viewBox="0 0 400 400" xmlns="http://www.w3.org/2000/svg"><path d="m69.12 24.45c5.41 5.31 7.69 11.04 9.61 16.87 4.34 13.14 7.5 26.67 13.79 39.15 1.17 2.33 1.04 5.47 1.01 8.23-.06 6.16 1.45 11.95 3.57 17.63 4.16 11.17 5.95 22.87 8.28 34.49 1.77 8.84 4.97 17.39 7.12 26.16 1.7 6.93 2.88 13.98 4.09 21.02.77 4.51 1.11 5.29 5.87 5.6 7.14.46 14.3.78 21.45.75 17.35-.08 33.25 5.08 48.43 12.95 5.08 2.64 8.27 7.11 10.6 12.17.61 1.33.51 3.04.5 4.58-.01 4.68-.33 9.37-.13 14.04.16 3.56.13 6.93-.58 10.52-.67 3.42.72 7.24 1.2 10.88 2.24 16.97 4.54 33.93 6.69 50.91 1.02 8.02 3.26 15.51 8.12 22.09 2.06 2.79 4.12 5.6 5.9 8.57 5.09 8.48 13.09 13.23 22.01 16.08 4.4 1.41 9.53.46 14.32.78 5.45.37 10.87.98 16.31 1.48.44.04.91.19 1.31.09 12.89-3.34 26.19-3.18 39.31-4.54 4.95-.51 10.1-.7 14.97.1 4.51.74 8.84 2.82 13.11 4.63 2.66 1.12 2.57 5.62 0 7.21-5.98 3.68-12.6 5.5-19.53 5.06-19.98-1.27-39.73 1.38-59.58 2.73-7.04.48-14.21-1.4-21.35-1.77-4.62-.24-9.28.33-13.92.45-1.29.03-2.68.03-3.86-.39-4.73-1.7-9.51-3.34-14.05-5.46-2.23-1.04-4.17-2.92-5.91-4.74-10.82-11.33-16.42-25.09-18.64-40.44-.72-4.96-1.94-9.85-2.99-15.01-.85.09-1.59.08-2.29.25-6.83 1.7-13.67 3.41-20.49 5.15-12.2 3.11-23.46-2.89-27.91-14.73-4.32-11.52-1.11-21.74 5.23-31.42.46-.7 1.85-1.06 2.83-1.09 3.91-.12 7.84.07 11.75-.1 2.42-.11 4.15.39 4.78 2.98.57 2.35-.06 4.15-2.16 5.44-3.23 1.99-5.04 4.99-6.04 8.56-1.61 5.76-.39 8.69 4.86 11.6 9.7 5.37 23.05-.51 24.66-11.01.34-2.25-.01-4.69-.49-6.95-.63-2.94-1.82-5.75-2.56-8.67-1.73-6.87-6.07-11.44-12.23-14.63-11.99-6.21-24.38-9.22-37.86-5.81-3.44.87-5.46 2.83-5.6 6.1-.2 4.88-.06 9.81.33 14.68 1.1 13.77 1.31 27.5-.95 41.18-1.54 9.29-6.43 16.58-13.92 22.15-1.02.76-2.37 1.3-3.63 1.5-5.63.88-11.27 1.96-16.95 2.31-16.29 1-28.01-5.37-32.75-21.06-2.62-8.68-3.31-17.97-4.65-27.01-3.51-23.7-1.38-47.61-2.62-71.4-.21-4.02-.54-8.03-.83-12.05-1.59-21.82 1.57-43.32 4.4-64.85 1.49-11.31 2.09-22.8 4.52-33.9 3.11-14.18 2.46-28.71 5.23-42.86.17-.88.06-1.86.42-2.64 2.95-6.45 3.01-13.42 3.93-20.27.68-4.59 2.46-8.99 3.96-14.32zm110.62 207.39c.08-.01.17-.03.25-.04-.35-2.17.05-5.04-1.19-6.38-4.57-4.93-8.87-10.49-16.47-11.15-12.36-1.07-24.7-2.33-37.06-3.35-.84-.07-2.14.98-2.61 1.85-2.18 4.01-1.31 8.23-.58 12.45.41 2.39 1.52 3.17 3.96 3.38 8.24.7 16.55 1.17 24.63 2.78 7.63 1.52 14.98 4.4 22.47 6.6 5.86 1.72 6.71 1.07 6.61-4.8-.01-.45-.01-.9-.01-1.34z" fill="#010100"/><g fill="#fcfbfa"><path d="m377.9 391.2c-.2.3-.4.5-.6.8-.7-.6-1.4-1-2.2-1.5.2-.3.4-.5.5-.8.6.4 1.4.8 2.3 1.5zm-1.8 6.1c-.2-.2-.5-.4-.9-.6.4-.6.8-1.2 1.2-1.9s.7-1.3.9-1.9c.3.3.5.5.8.7-.7 1.3-1.4 2.6-2 3.7zm2.2-9c-.3.3-.5.5-.6.8-.6-.6-1.3-1.1-2-1.5.3-.3.5-.5.6-.7.6.5 1.3.9 2 1.4zm.3.2v-.9h2 4.5c-.3 1.3-.6 2.5-1 3.6s-.9 2.1-1.4 3c.4.5 1 1 1.6 1.4s1.2.8 1.9 1.1c-.3.2-.5.4-.8.8-.4-.3-1-.7-1.6-1.2s-1.2-1.1-1.6-1.6c-.5.6-1.1 1.1-1.7 1.6s-1.4.9-2.1 1.4c-.1-.3-.3-.5-.7-.8.6-.2 1.2-.5 1.9-1s1.4-1.1 2-1.8c-.5-.8-.9-1.6-1.2-2.5s-.6-2-.8-3.2c-.4.1-.7.1-1 .1zm2.5 2.7c.3 1 .7 1.7 1 2.2.3-.5.6-1.1 1-2s.6-1.9.9-3h-3.2-.4c.1.9.3 1.8.7 2.8z"/><path d="m396.5 388.5v1.5 3.6h1.5v.9c-.4 0-1 0-1.7 0h-7.9c-.5 0-.9 0-1.2 0v-.9h1.3v-3.5c0-.7 0-1.2 0-1.6h2.4c0-.8 0-1.4 0-1.7h1c0 .3-.1.8-.1 1.7h1.5c0-.8 0-1.4 0-1.7h1c0 .3-.1.9-.1 1.7zm-8.2 9.2c-.2-.3-.5-.5-.8-.8.8-.3 1.4-.6 1.9-.9s1-.7 1.4-1.1c.3.3.6.5.9.8-1.6 1-2.8 1.6-3.4 2zm2.6-6.8v-1.6h-1.5v1.6zm0 2.7v-1.9h-1.5v1.9zm2.4-2.7v-1.6h-1.5v1.6zm0 2.7v-1.9h-1.5v1.9zm.2 2 .7-.8c.4.2.9.5 1.6.8s1.3.7 1.8 1c-.3.3-.5.5-.8.8-.4-.3-1.5-1-3.3-1.8zm2-4.7v-1.6h-1.4v1.6zm0 2.7v-1.9h-1.4v1.9z"/></g></svg>