<svg enable-background="new 0 0 400 400" viewBox="0 0 400 400" xmlns="http://www.w3.org/2000/svg"><path d="m275.52 374.82c-2.76.17-5.45.77-7.99.42-8.26-1.16-15.76-3.89-22.88-8.74-9.43-6.43-16.12-14.69-20.52-24.9-1.73-4.01-3.17-8.58-3.07-12.86.37-17.24-2.62-34.13-4.81-51.08-.89-6.9-3.41-13.63-5.55-20.32-1.51-4.71-4.11-7.26-8.09-9.12-.26 1.12-.56 2.18-.75 3.26-1.47 8.05-5.47 14.47-12.09 19.33-3.79 2.78-7.62 5.56-11.04 8.76-7.53 7.05-16.19 8.02-25.57 5.23-8.3-2.47-16.06-6.09-22.83-11.67-9.31-7.68-12.05-18.19-12.92-29.49-.06-.8 1.3-1.71 2.01-2.58.7.58.99.7 1.01.85 1.31 11.41 9.04 18.7 16.98 25.58 5.58 4.84 12.31 7.15 19.96 5.52 5.09-1.09 10.51-1.23 15.29-3.07 10-3.85 18.52-18.56 17.95-29.33-.1-1.81-.55-2.85-2.42-3.36-3.11-.84-6.14-1.94-9.81-3.13-.21 2.14-.5 3.85-.51 5.56-.01 5.07-2.21 7.95-7.15 9.06-3.94.88-8.09 2.12-10.98-1.99-1.29-1.84-2.31-4.09-2.72-6.3-2.79-15.05-3.14-30.18-1.68-45.44.89-9.33.84-18.77.96-28.16.15-11.53-.31-23.08.13-34.59.51-13.29 1.81-26.55 2.58-39.84.77-13.18 1.12-26.38 2-39.55.6-8.89 1.81-17.73 2.74-26.6.55 0 1.09-.01 1.64-.01 1.19 9 3.25 17.98 3.36 26.99.13 10.66.2 21.21 2.87 31.59 1.19 4.63 1.19 9.26.28 13.94-1.53 7.87-.26 15.7 1.47 23.28 2.48 10.86 4.58 21.64 3.32 32.83-.09.76-.02 1.61.25 2.31 2.14 5.61 1.73 11.42 1.53 17.24-.48 14.21-.85 28.42-1.42 42.62-.09 2.32.63 3.91 2.45 5.06 1.98 1.25 3.92 2.67 6.08 3.52 6.42 2.56 12.93 4.88 19.42 7.3 6.91-5.82 4.87-14.8 7.89-21.94-2.53-7.43-3.31-15.61-9.38-21.67 3.91 1.73 9.36 1.01 11.26 5.39 1.73 4 4.91 6.57 7.17 9.97 3.47 5.23 3.45 11.1 2.67 16.87-.71 5.27-2.38 10.4-3.41 15.64-.33 1.68-.47 3.7.17 5.2 1.51 3.56 3.67 6.83 5.33 10.33 2.19 4.61 4.82 9.16 6.09 14.04 2.74 10.59 5.25 21.3 6.87 32.1 1.14 7.57 1 15.39.8 23.09-.22 8.21 1.72 15.97 3.87 23.7 1.5 5.39 5.54 9.11 9.8 12.47 6.91 5.43 13.87 10.82 21.39 16.69z" fill="#010100"/><g fill="#fcfbfa"><path d="m377.9 391.2c-.2.3-.4.5-.6.8-.7-.6-1.4-1-2.2-1.5.2-.3.4-.5.5-.8.6.4 1.4.8 2.3 1.5zm-1.8 6.1c-.2-.2-.5-.4-.9-.6.4-.6.8-1.2 1.2-1.9s.7-1.3.9-1.9c.3.3.5.5.8.7-.7 1.3-1.4 2.6-2 3.7zm2.2-9c-.3.3-.5.5-.6.8-.6-.6-1.3-1.1-2-1.5.3-.3.5-.5.6-.7.6.5 1.3.9 2 1.4zm.3.2v-.9h2 4.5c-.3 1.3-.6 2.5-1 3.6s-.9 2.1-1.4 3c.4.5 1 1 1.6 1.4s1.2.8 1.9 1.1c-.3.2-.5.4-.8.8-.4-.3-1-.7-1.6-1.2s-1.2-1.1-1.6-1.6c-.5.6-1.1 1.1-1.7 1.6s-1.4.9-2.1 1.4c-.1-.3-.3-.5-.7-.8.6-.2 1.2-.5 1.9-1s1.4-1.1 2-1.8c-.5-.8-.9-1.6-1.2-2.5s-.6-2-.8-3.2c-.4.1-.7.1-1 .1zm2.5 2.7c.3 1 .7 1.7 1 2.2.3-.5.6-1.1 1-2s.6-1.9.9-3h-3.2-.4c.1.9.3 1.8.7 2.8z"/><path d="m396.5 388.5v1.5 3.6h1.5v.9c-.4 0-1 0-1.7 0h-7.9c-.5 0-.9 0-1.2 0v-.9h1.3v-3.5c0-.7 0-1.2 0-1.6h2.4c0-.8 0-1.4 0-1.7h1c0 .3-.1.8-.1 1.7h1.5c0-.8 0-1.4 0-1.7h1c0 .3-.1.9-.1 1.7zm-8.2 9.2c-.2-.3-.5-.5-.8-.8.8-.3 1.4-.6 1.9-.9s1-.7 1.4-1.1c.3.3.6.5.9.8-1.6 1-2.8 1.6-3.4 2zm2.6-6.8v-1.6h-1.5v1.6zm0 2.7v-1.9h-1.5v1.9zm2.4-2.7v-1.6h-1.5v1.6zm0 2.7v-1.9h-1.5v1.9zm.2 2 .7-.8c.4.2.9.5 1.6.8s1.3.7 1.8 1c-.3.3-.5.5-.8.8-.4-.3-1.5-1-3.3-1.8zm2-4.7v-1.6h-1.4v1.6zm0 2.7v-1.9h-1.4v1.9z"/></g></svg>