<svg enable-background="new 0 0 400 400" viewBox="0 0 400 400" xmlns="http://www.w3.org/2000/svg"><path d="m214.45 228.29c-1.94-5.88-4.47-11.64-5.68-17.67-2.2-10.91 2.39-20.07 8.83-28.54 4.03-5.3 8.89-9.08 15.75-9.76 4.31-.43 6.22.41 7.37 3.74-4.15-1.1-5.97 1.94-8.27 4.25-4.41 4.44-9.09 8.63-11.41 14.71-2.6 6.82-2.3 13.6.07 20.35 1.42 4.05 6.7 6.75 10.52 5.16 8.92-3.71 18.39-3.31 27.71-4.11 2.44-.21 4.88-.38 8.2-.63 0-10.1.01-20.02 0-29.94-.05-29.44-.16-58.87-.14-88.31.01-15.56.33-31.11.35-46.67.01-5.36-.72-10.72-.58-16.07.08-3.01 1.26-5.99 2.1-9.68 3.51 3.38 6.04 5.88 6.06 10.56.02 7.02 1.1 14.04 1.57 21.07.33 5.01.7 10.04.54 15.05-.36 11.63-1.13 23.24.96 34.8 2.02 11.16.32 22.33-.29 33.47-.24 4.3.43 8.3 1.33 12.5.87 4.07.17 8.56-.32 12.81-1.57 13.64-1.08 27.21-.05 40.87.85 11.35.54 22.8.65 34.2.05 5.03-.19 10.07-.13 15.11.03 2-.62 3.36-2.56 3.67-1.95.31-3.83.54-5.32-1.65-4.64-6.83-5.21-14.33-4.3-22.2.49-4.23-.32-5.56-4.38-6.4-6.42-1.33-13.06-.72-18.69 2.1-3.09 1.54-5.68 6.01-6.58 9.64-2.91 11.79-2.32 23.32 6.46 32.95 8.66 9.51 19.51 11.86 31.49 8.38 7.26-2.11 14.23-5.24 21.26-8.09 1.59-.65 2.82-2.15 4.34-3.05.75-.44 1.78-.4 2.68-.58-.1.99.18 2.35-.36 2.9-17.78 18.22-36.68 23.79-58.86 14.18-7.14-3.09-13.1-9.34-15.62-17.23-1.88-5.89-2.94-12.16-3.4-18.34-.32-4.26-.57-9.14 4.82-12.38-4.22-.4-6.66.41-9.26 2.75-12.12 10.92-20.01 24.85-28.03 38.66-1.65 2.84-1.83 6.52-2.72 9.81-.17.64-.3 1.6-.75 1.82-4.42 2.2-3.16 6.51-4.08 10.11-2.82 10.94-9.57 19.31-18.31 26.18-2.37 1.87-5.04 3.37-7.31 5.35-5.45 4.77-11.84 6.27-18.88 7.53-6.5 1.16-13.12 4.16-18.62 7.92-10.13 6.93-19.45 15.02-29.14 22.59-1.29 1.01-2.74 1.83-4.11 2.74-.33-.22-.66-.43-.99-.65.88-1.68 1.46-3.61 2.67-5 17.97-20.57 36.21-40.9 53.96-61.66 9.08-10.62 16.92-22.3 25.99-32.93 13.49-15.81 26.45-32.18 42.94-45.17.52-.41 1.07-.79 1.61-1.18-.37-.01-.73-.03-1.09-.04z" fill="#010100"/><g fill="#fcfbfa"><path d="m377.9 391.2c-.2.3-.4.5-.6.8-.7-.6-1.4-1-2.2-1.5.2-.3.4-.5.5-.8.6.4 1.4.8 2.3 1.5zm-1.8 6.1c-.2-.2-.5-.4-.9-.6.4-.6.8-1.2 1.2-1.9s.7-1.3.9-1.9c.3.3.5.5.8.7-.7 1.3-1.4 2.6-2 3.7zm2.2-9c-.3.3-.5.5-.6.8-.6-.6-1.3-1.1-2-1.5.3-.3.5-.5.6-.7.6.5 1.3.9 2 1.4zm.3.2v-.9h2 4.5c-.3 1.3-.6 2.5-1 3.6s-.9 2.1-1.4 3c.4.5 1 1 1.6 1.4s1.2.8 1.9 1.1c-.3.2-.5.4-.8.8-.4-.3-1-.7-1.6-1.2s-1.2-1.1-1.6-1.6c-.5.6-1.1 1.1-1.7 1.6s-1.4.9-2.1 1.4c-.1-.3-.3-.5-.7-.8.6-.2 1.2-.5 1.9-1s1.4-1.1 2-1.8c-.5-.8-.9-1.6-1.2-2.5s-.6-2-.8-3.2c-.4.1-.7.1-1 .1zm2.5 2.7c.3 1 .7 1.7 1 2.2.3-.5.6-1.1 1-2s.6-1.9.9-3h-3.2-.4c.1.9.3 1.8.7 2.8z"/><path d="m396.5 388.5v1.5 3.6h1.5v.9c-.4 0-1 0-1.7 0h-7.9c-.5 0-.9 0-1.2 0v-.9h1.3v-3.5c0-.7 0-1.2 0-1.6h2.4c0-.8 0-1.4 0-1.7h1c0 .3-.1.8-.1 1.7h1.5c0-.8 0-1.4 0-1.7h1c0 .3-.1.9-.1 1.7zm-8.2 9.2c-.2-.3-.5-.5-.8-.8.8-.3 1.4-.6 1.9-.9s1-.7 1.4-1.1c.3.3.6.5.9.8-1.6 1-2.8 1.6-3.4 2zm2.6-6.8v-1.6h-1.5v1.6zm0 2.7v-1.9h-1.5v1.9zm2.4-2.7v-1.6h-1.5v1.6zm0 2.7v-1.9h-1.5v1.9zm.2 2 .7-.8c.4.2.9.5 1.6.8s1.3.7 1.8 1c-.3.3-.5.5-.8.8-.4-.3-1.5-1-3.3-1.8zm2-4.7v-1.6h-1.4v1.6zm0 2.7v-1.9h-1.4v1.9z"/></g></svg>