<svg enable-background="new 0 0 400 400" viewBox="0 0 400 400" xmlns="http://www.w3.org/2000/svg"><path d="m161.81 255.27c-1.82-1.58-1.56-3.9.38-6.08 5.96-6.71 2.65-14.1 1.61-21.32-.15-1.03-.83-1.98-1.26-2.96-.45.34-.91.69-1.36 1.03-4.11 10.25-8.28 20.48-12.28 30.77-1.06 2.72-2.45 4.79-5.13 6.19-19.38 10.14-34.46 25.85-51.06 39.6-1.55 1.29-2.92 2.86-4.62 3.89-4.19 2.54-5.3 6.47-5.04 10.88.61 10.04 1.6 20.05 2.12 30.09.19 3.74-.31 7.55-.88 11.27-.24 1.55-1.27 3.12-2.31 4.37-3.8 4.51-6.61 4.21-9.57-.74-3.98-6.67-4.47-14.17-5.43-21.61-.64-4.98-1.44-10-2.85-14.8-.85-2.89-2.83-5.53-4.63-8.05-1.77-2.48-2.7-4.88-2.07-8.02 4.74-23.8 1.78-47.73 1.07-71.62-.19-6.26-.84-12.53-.76-18.78.24-17.94-3.83-35.31-6.65-52.85-1.03-6.4-1.83-12.87-3.33-19.16-2.18-9.1-4.9-18.08-7.4-27.11-.32-1.16-.74-2.3-1.19-3.69 10.14-1.7 20.02-2.97 29.71-5.11 10.02-2.21 19.88-5.19 29.76-7.99 29.17-8.28 58.64-15.31 88.64-19.74 15.59-2.31 31.41-2.99 47.02-5.18 8.84-1.24 17.06 1.47 25.58 2 12.27.76 24.57 1.17 36.87 1.49 18.85.49 36.39 4.92 52.33 15.47 7.95 5.26 6.07 12.41 2.83 18.06-.4.69-1.85.94-2.85 1.1-13.67 2.15-26.89-.36-40.01-3.93-10.83-2.95-21.77-3.38-32.92-1.97-4.93.62-10.02.17-15.02-.04-4.4-.18-8.34.94-12.74 3.51 5.73 1.5 10.87 2.57 15.83 4.22 4.07 1.35 8.31 2.82 11.77 5.24 8.33 5.81 8.9 14.37 7.01 23.46-.61 2.95-1.5 5.89-1.66 8.87-.07 1.29 1.07 3.2 2.22 3.86 1.59.92 3.25.22 4.51-1.58 3.46-4.95 7.1-9.78 10.77-14.58 1.49-1.95 3.14-3.8 4.88-5.54 5.57-5.55 6.66-5.53 14.02-2.71 5.78 2.22 10.53 5.46 14.52 10.28 6.25 7.56 5.33 15.72 2.92 24.13-.33 1.16-1.71 2.01-2.53 3.06-6.42 8.18-15.01 12.75-24.93 15.24-4.63 1.16-8.75 3.32-11.91 7.08-3.17 3.76-3.35 4.29-.36 8.26 11.77 15.58 22.28 32.01 30.11 49.85 4.27 9.72 6.58 20.36 9.21 30.73 1.48 5.82 2.08 11.9 2.52 17.91.24 3.24-.81 6.55-1.02 9.85-.25 3.95-.48 7.94-.24 11.88.36 5.92 1.08 11.79-.84 17.62-.7 2.12-1.74 3.29-3.93 3.97-8.73 2.71-8.73 2.8-12.86-5.57-5.15-10.44-7.7-21.65-9.65-33.03-2.14-12.52-5.02-24.78-12.32-35.5-.92-1.36-2.01-2.61-3.56-4.6-.72 6.44-1.46 12.02-1.93 17.62-.86 10.13-1.98 20.26-2.16 30.4-.11 6.09 1.54 12.19 2.09 18.31 1.06 11.91-1.2 23.42-5.33 34.51-1.81 4.86-6.23 6.87-11.27 7.07-.81.03-2-1.11-2.48-2-5.61-10.35-7.99-21.52-8.05-33.22-.06-11.08.56-22.19-.15-33.22-1.33-20.97-3.38-41.9-5.17-62.84-.32-3.71-1.68-6.98-4.94-9.11-2.14-1.39-3.9-1.72-6.03.69-11.15 12.56-17.75 27.27-21.27 43.5-2.11 9.72-4.53 19.42-5.78 29.26-.96 7.61-.33 15.42-.37 23.14-.04 8.86-7.08 15.4-15.91 14.57-.86-.08-2.12-.97-2.37-1.75-.95-2.95-1.98-5.97-2.21-9.03-.56-7.11-.33-14.29-1.03-21.38-1.98-20 1.22-39.28 7.91-58.02 2.92-8.18 6.67-16.08 10.36-23.96 1.29-2.76 3.48-5.12 5.34-7.6 3.89-5.18 7.93-10.26 11.72-15.52 1.29-1.78 2.18-3.91 2.96-5.99 2.02-5.4 1.33-6.5-4.18-8.09-7.52-2.16-14.99-4.48-22.5-6.67-10.26-3-18.03-9.25-23.62-18.22-2.36-3.79-4.68-7.67-6.37-11.78-1.1-2.66-1.03-5.81-1.52-9 6.89-1.09 12.87.26 18.7 2.11 8.52 2.7 16.84 6.06 25.43 8.51 7.35 2.1 14.95 3.31 23.22 5.08-.98-6.09-1.28-11.38-2.74-16.32-2.27-7.67-5.28-15.13-8.05-22.65-.89-2.41-2.27-4.67-2.93-7.12-1-3.72-3.54-5.09-6.92-4.78-11.12 1.02-22.25 2-33.31 3.5-7.29.99-14.49 2.75-21.68 4.4-2.57.59-4.91 2.17-7.48 2.69-3.67.74-7.45 1.15-11.21 1.29-4.93.18-7.75 2.03-7.86 5.9-.03.96.43 2.34 1.15 2.86 22.21 16.12 32.78 39.38 40.72 64.62 6.79 21.57 8.45 43.58 8.4 65.91 0 .75-.11 1.64-.51 2.24-6.94 10.27-12.94 21.4-21.15 30.53-13.34 14.84-28.84 27.54-47.02 36.3-6.15 2.97-12.95 4.57-20.27 7.08-.78-5.57-1.51-10.01-1.91-14.48-.06-.66 1.4-1.53 2.24-2.19 8.69-6.68 17.7-12.97 26.02-20.07 12.68-10.82 21.91-24.08 26.22-40.48.71-2.61 2.54-4.93 4.16-7.97zm-77.51-34.24c11.2-4.48 18.4-11.67 24.3-20.54 5.57-8.37 11.59-16.44 17.23-24.77 1.18-1.75 1.93-4.01 2.21-6.13 1.71-12.69-10.66-28.28-20.57-32.41-.77-.32-1.97-.21-2.75.16-6.77 3.2-13.52 6.44-20.17 9.87-.98.51-1.94 2.08-1.99 3.2-.21 5.25.06 10.52-.13 15.77-.26 7.23-.8 14.46-1.17 21.69-.33 6.35-1.15 12.75-.71 19.05.33 4.62 2.36 9.13 3.75 14.11zm-.39 54.92c1.38-1.15 2.15-1.76 2.88-2.41 7.16-6.42 14.11-13.09 21.53-19.21 13.81-11.4 25.81-24.33 35.6-39.35 3.54-5.43 9.45-5.37 13.49-.21 1.1 1.41 2.09 2.9 3.13 4.36-1.47-8.69-.3-18.45-9.99-23.64-9.47 8.81-18.77 17.69-28.33 26.28-4.38 3.93-9.1 7.54-13.98 10.85-7.21 4.9-14.71 9.35-22.01 14.11-.98.64-2.2 1.9-2.22 2.9-.18 8.48-.1 16.96-.1 26.32z" fill="#010104"/><path d="m81.64 41.1c-.82-3.41.42-4.46 3.83-4.84 27.22-3.09 54.43-6.36 81.61-9.76 13.59-1.7 27.21-2.64 40.81-.88 10.19 1.32 19.63 5.21 28.3 10.77 4.28 2.74 7.41 6.42 8.51 11.57.59 2.76-.07 4.68-2.85 5.91-4.14 1.83-8.45 2.57-12.77 1.51-13.08-3.2-25.72-2.07-38.63 1.68-18.55 5.39-37.36 9.93-56.15 14.47-6.51 1.57-11.87 5.1-17.44 8.32-4.79 2.77-9.13 2.45-13.84-.36-5.29-3.15-8.97-7.27-11.29-13.05-1.77-4.43-4.86-8.31-6.81-12.68-1.79-4.01-2.84-8.35-4.22-12.55.32-.03.63-.07.94-.11z" fill="#010104"/><g fill="#fcfbfa"><path d="m385.2 377.6.6-.7c.6.4 1.3.9 1.9 1.5l-.6.7c-.8-.5-1.4-1-1.9-1.5zm.3 7.1c.6-1.4 1.1-2.9 1.5-4.5.3.1.6.3.9.4-.5 1.4-1 2.9-1.5 4.4zm.2-10.1.6-.6c.7.5 1.3 1.1 1.9 1.6l-.7.7c-.6-.6-1.2-1.2-1.8-1.7zm8.4-.8h.8v.9h1.8v.7h-1.8v1.8h-.8v-.3h-1.2v.9h3.3v2.6h-.8v-.4h-2.5c0 .3 0 .6-.1.8h3.4v.7h-3.5c0 .3-.1.6-.1.8h4v.7h-3.5c.7.9 1.9 1.3 3.6 1.5-.2.2-.4.5-.6.9-1.9-.3-3.2-1.1-3.8-2.3-.5 1.1-1.8 2-3.9 2.4-.2-.3-.4-.5-.6-.8 1.9-.4 3.1-.9 3.6-1.7h-3.2v-.7h3.5c.1-.2.1-.5.2-.8h-3.3v-.7h3.4c0-.2 0-.5 0-.8h-2.4v.3h-.8v-2.6h3.3v-.9h-1.2v.3h-.8v-1.8h-1.8v-.7h1.8v-.9h.8v.9h3.2zm-4.4 5.5h2.4c0-.3 0-.6 0-.9h-2.4zm1.2-3.1h3.2v-.8h-3.2zm4.4 2.2h-2.4v.9h2.5v-.9z"/><path d="m389.2 385.8h.9v1.5h1.9v-1.5h.9v1.5h2.7v6h1.1v.9h-11.3v-.9h1.1v-6h2.7zm.2 8.7.5.8c-1.2.6-2.5 1.3-4 1.9-.2-.3-.3-.6-.6-.8 1.6-.6 3-1.3 4.1-1.9zm-2-4.3h1.9v-2.1h-1.9zm0 3.1h1.9v-2.2h-1.9zm2.7-3.1h1.9v-2.1h-1.9zm0 3.1h1.9v-2.2h-1.9zm2.4 1.3c1.4.6 2.7 1.2 4.1 1.8l-.5.9c-1.5-.7-2.8-1.4-4.1-1.9zm2.2-6.5h-1.9v2.1h1.9zm-1.9 5.2h1.9v-2.2h-1.9z"/></g></svg>