<svg enable-background="new 0 0 400 400" viewBox="0 0 400 400" xmlns="http://www.w3.org/2000/svg"><g fill="#fbfafc"><path d="m12.4 4.8-6.1 9h6v1.2h-8v-.5l6.1-8.9h-5.7v-1.2h7.6v.4z"/><path d="m14 15v-10.6h3c1.6 0 2.9.5 4 1.4s1.6 2.2 1.6 3.8-.5 3-1.6 3.9-2.4 1.5-4 1.5zm1.4-9.4v8.2h1.6c1.3 0 2.4-.4 3.1-1.1s1.1-1.8 1.1-3.1-.4-2.3-1.2-3-1.8-1-3.1-1z"/><path d="m26.1 4.4v10.6h-1.4v-10.6z"/><path d="m36.1 14.6c-.8.4-1.8.6-2.9.6-1.5 0-2.7-.5-3.6-1.4s-1.4-2.2-1.4-3.8c0-1.7.5-3.1 1.5-4.1s2.3-1.6 3.9-1.6c1 0 1.8.1 2.5.4v1.4c-.8-.4-1.6-.6-2.5-.6-1.2 0-2.1.4-2.9 1.2s-1.1 1.8-1.1 3.2c0 1.3.3 2.3 1 3s1.6 1.1 2.7 1.1c1 0 2-.2 2.7-.7v1.3z"/><path d="m37.6 14.3c0-.2.1-.5.3-.6s.4-.3.6-.3c.3 0 .5.1.6.3s.3.4.3.6-.1.4-.3.6-.4.3-.6.3c-.3 0-.5-.1-.6-.3s-.3-.4-.3-.6z"/><path d="m50.2 15h-1.6l-5.3-8.2c-.2-.2-.3-.5-.4-.7 0 .2.1.7.1 1.5v7.4h-1.4v-10.6h1.7l5.2 8.1c.2.4.4.6.4.7 0-.3-.1-.8-.1-1.5v-7.3h1.4z"/><path d="m58.6 15h-5.7v-10.6h5.5v1.2h-4.1v3.4h3.8v1.2h-3.8v3.6h4.3z"/><path d="m67.1 5.6h-3.1v9.4h-1.4v-9.4h-3v-1.2h7.5z"/></g><path d="m29.55 342.26c.12-1.17.19-1.9.28-2.78-2.26-.37-4.46-.73-7.05-1.16-.05-1.13-.15-2.31-.15-3.49-.01-15-.27-30.01.11-45 .17-6.66 2.13-13.27 2.4-19.94.54-13.63.49-27.28.68-40.93.21-15.77.38-31.54.68-47.3.04-2.26-.26-4-1.98-5.68-1.04-1.02-1.78-2.83-1.81-4.3-.4-15.22-.64-30.44-.92-45.65-.11-5.9 4.1-12.34 9.65-14.4 2.68-.99 5.47-1.96 8.29-2.25 3.62-.37 6.79.93 9.85 3.25 15.96 12.09 34.31 16.03 53.86 14.09 32.77-3.26 64.89-10.45 97-17.48 4.73-1.04 9.07-3.85 13.8-4.94 10.23-2.35 20.6-4.11 30.91-6.11.33-.06.68-.1.97-.25 6.11-2.95 11.96-2.55 17.68 1.14.67.44 1.95.14 2.88-.07 1.97-.44 3.87-1.39 5.84-1.51 3.32-.22 6.68-.11 10 .13 4.42.32 8.88.57 13.21 1.44 4.14.83 8.03 1.32 12.14-.25 1.69-.65 3.95-.64 5.71-.12 11.03 3.29 22 6.76 32.94 10.34 1.34.44 2.35 1.9 3.52 2.87 1.35 1.11 2.56 2.56 4.1 3.24 5.03 2.23 8.54 5.66 9.82 11.11 2.59 11.08 5.26 22.15 7.63 33.28.56 2.64.08 5.51.08 8.67-5.59-.65-10.58-.48-15.08-4.33-9.27-7.92-18.99-15.31-28.63-22.79-1.71-1.33-3.79-2.34-5.86-2.99-4.58-1.45-9.3-2.45-13.88-3.88-2.4-.75-5.01-1.59-6.86-3.17-2.83-2.43-5.71-2.89-9.24-2.52-13.91 1.45-27.87 2.42-41.74 4.17-6.14.78-12.21 2.69-18.12 4.65-16.11 5.34-32.17 10.87-48.15 16.59-3.16 1.13-5.96.71-8.8-.18-3.62-1.14-6.97-1.08-10.26.86-7.03 4.16-14.67 2.24-21.97 1.67-20.99-1.63-41.56.01-61.65 6.42-1.58.51-3.26 1.9-4.11 3.35-9.3 15.67-13.84 32.86-15.81 50.83-.47 4.32-.71 8.67-1.04 12.85 3.24 2.07 5.31 1.32 7.66-1.29 17.65-19.66 35.48-39.15 53.19-58.76 1.72-1.9 3.34-2.76 6.03-2.48 8.57.88 17.17 1.38 25.75 2.12 1.27.11 2.68.48 3.71 1.19 6.32 4.35 13.42 5.9 20.93 6.18 6.7.25 13.45.14 20.08.99 11.52 1.48 19.47 8.52 25.22 18.15 4.52 7.58 8.59 15.43 12.95 23.11 3.25 5.73 6.88 11.25 9.93 17.08 3.91 7.47 3.16 14.4-2.51 21.09-8.54 10.07-16.56 20.57-24.9 30.81-1.46 1.79-3.17 3.58-5.14 4.69-16.72 9.4-29.69 23.26-43.49 36.15-1.49 1.39-3.42 2.48-5.34 3.19-5.03 1.86-10.09 3.75-15.28 5.04-5.28 1.3-9.43 3.89-12.37 8.38-4.51 6.88-12.27 8.61-18.99 11.93-1.23.61-3.07.02-4.63-.09-2.11-.15-4.21-.37-6.36-.57-.52 1.2-.96 2.2-1.46 3.36-4.92-1.4-9.73-2.77-14.32-4.08 1.19-1.62 2.11-3.44 3.52-4.69 3.91-3.47 7.68-7.28 12.11-9.95 24.21-14.62 43.67-34.35 61.62-55.86 7.74-9.27 15.63-18.46 24-27.15 5.72-5.95 7.46-12.63 7-20.48-.51-8.69-2.95-15.75-11.47-20.22-8.57-4.49-16.13-10.95-25.81-13.29-7.35-1.78-14.17-1.42-21.45 1.82-16.54 7.36-30.51 18.59-45.5 28.3-1.69 1.1-3.44 2.14-4.97 3.44-8.36 7.1-18.7 9.81-28.82 12.97-2.42.76-3.52 1.94-3.96 4.55-2.68 15.76-5.63 31.48-8.35 47.23-.28 1.64-.27 4.03.69 5.04 1.97 2.07 4.81 2.37 7.37.64 4.54-3.06 9.05-6.18 13.49-9.39 6.81-4.91 13.61-9.83 20.27-14.93 2.35-1.8 4.69-2.97 7.65-2.48 2.42.4 3.76-.75 5.16-2.67 11.42-15.8 23.4-31.15 37.47-44.72 5.51-5.32 11.78-9.97 19.56-11.11 11.13-1.63 11.25-1.28 11.72 9.05.1 2.17-.31 4.53-1.15 6.53-4 9.56-7.93 19.02-15.86 26.44-9.47 8.86-17.87 18.86-27.34 27.72-11.11 10.39-23.73 18.61-38.51 23.09-5.45 1.66-10.78 3.76-16.26 5.31-2.95.83-6.11 1.29-9.16 1.25-5.7-.08-11.4-.47-17.07-1.07-3.4-.36-5.33 1.08-6.41 3.99-.58 1.55-1.14 3.24-1.13 4.86 0 6.57-3.9 9.84-9.99 12.11z" fill="#000001"/><path d="m119.93 81.93c-2.64 0-4.84 0-7.29 0-1.18-8.6-2.32-16.97-3.56-26.01 10.53-1.81 20.71-3.88 30.99-5.25 19.42-2.58 38.92-4.35 58.55-3.37 6.94.35 13.64.11 19.59-4.18 1.36 2 2.55 3.74 3.91 5.73 1.84-1.23 3.51-2.47 5.29-3.53 5.12-3.04 10.78-3.99 16.65-4.53 20.84-1.92 41.56-1.07 62.17 2.38 3.13.52 6.14 1.97 9.08 3.28 2.21.98 2.66 2.56 1.79 5.18-1.47 4.44-3.93 7.37-8.24 9.33-5.47 2.49-10.65 5.63-16.2 8.62-2.36-4.27-5.82-2.47-8.25-.84-6.87 4.61-14.67 6.04-22.48 7.2-21.23 3.15-42.52 5.88-63.77 8.85-12.84 1.79-25.68 3.65-38.5 5.63-5.12.79-9.58 3.09-12.79 7.31-2.66 3.49-6.07 5.61-10.45 5.89-.89.06-2.37-.5-2.68-1.18-2.33-5.06-6.56-7.37-11.67-8.48-2.63-.57-3.32-2-2.84-4.55.43-2.3.46-4.66.7-7.48z" fill="#000001"/></svg>