<svg enable-background="new 0 0 400 400" viewBox="0 0 400 400" xmlns="http://www.w3.org/2000/svg"><path d="m374.8 390.4.4-.4c.7.5 1.3 1 1.8 1.4l-.5.5c-.5-.6-1.1-1.1-1.7-1.5zm1 7.3-.6-.3c.5-1.4 1.1-2.8 1.5-4.3.2.1.4.2.6.3-.5 1.3-1 2.8-1.5 4.3zm-.4-10.3.4-.4c.4.3 1 .8 1.7 1.4l-.5.5c-.4-.5-1-1-1.6-1.5zm2.5.3h1.7v-1h.6v1h3.5v-1h.6v1h1.8v.5h-1.8v1.4h-2v1h3.2v2h-3.2v.9h3.3v.5h-3.4c0 .3-.1.6-.1.9h4v.5h-3.7c.7.9 1.9 1.5 3.8 1.7-.1.2-.2.4-.3.6-2.1-.4-3.5-1.1-4-2.1-.4 1-1.8 1.7-4 2.2-.1-.2-.2-.4-.3-.6 2.1-.4 3.4-1 3.8-1.8h-3.4v-.5h3.6c.1-.3.1-.6.2-.9h-3.3v-.5h3.4c0-.3 0-.6 0-.9h-3.2v-2h3.3v-1h-2.1v-1.4h-1.7v-.5zm1.1 3.5v1h2.7c0-.3 0-.4 0-.4 0-.1 0-.2 0-.2 0-.1 0-.2 0-.3h-2.7zm1.2-3v.9h3.5v-.9zm4.7 3h-2.6v.6.4h2.6z" fill="#fbfcfa"/><path d="m393.6 386.7h.6v1.5h2.7v6.1h1.1v.6h-11v-.6h1.1v-6.1h2.7v-1.5h.6v1.5h2.1v-1.5zm-2.7 8.8.4.6c-1.2.6-2.5 1.3-3.8 1.9-.1-.2-.2-.4-.3-.6 1.2-.6 2.5-1.2 3.7-1.9zm-2.2-6.7v2.4h2.1v-2.4zm0 3v2.5h2.1v-2.5zm2.8-3v2.4h2.1v-2.4zm0 3v2.5h2.1v-2.5zm6 6.1c-1.4-.7-2.7-1.3-3.9-1.8l.3-.6c1.5.6 2.7 1.2 3.9 1.7zm-1.2-9.1h-2.1v2.4h2.1zm-2.1 3v2.5h2.1v-2.5z" fill="#fbfcfa"/><path d="m133.79 374.26c0-2.65-.04-5.31.01-7.97.15-9.4.52-18.8.38-28.19-.05-3.63-1.43-7.23-1.8-10.88-.25-2.44-.41-5.24.52-7.39 1.85-4.27 1.01-8.37.3-12.51-1.67-9.72-2.73-19.39-1.31-29.31.63-4.43.33-9.19-.57-13.6-2.3-11.29-.57-22.52-.45-33.78.07-5.99-.16-12.03-.91-17.97-.5-3.97-.62-7.71.56-11.54.79-2.55 1.07-5.27 1.87-7.82 1.05-3.35 1.36-6.44-.89-9.51-.64-.87-.67-2.32-.69-3.51-.06-6.27-.18-12.54.03-18.8.12-3.54.29-7.22 1.36-10.54 1.63-5.05.99-9.92.31-14.9-.81-5.98-1.92-11.95-2.27-17.96-.19-3.23.97-6.53 1.46-9.81.64-4.28 1.66-8.55 1.74-12.84.24-11.75-.1-23.5.17-35.25.1-4.5 1.08-9.01 1.93-13.47 1.16-6.13 2.58-12.21 3.88-18.32.18-.84.32-1.69.63-3.35 6.38 7.86 12.11 15.17 12.34 25.18.14 6.15.12 12.31-.02 18.46-.05 2.25.45 3.62 2.85 3.99 5.95.93 10.23 3.26 7.71 10.94 3.91.23 7.24.75 10.49.44 1.22-.12 2.58-1.98 3.32-3.35 1.65-3.04 3.66-3.67 7.08-2.87 8.91 2.09 17.94 3.69 26.92 5.49.65.13 1.46.1 1.92.49 5.04 4.23 11.24 5.16 17.37 6.45 4.54.95 8.44 3.08 9.61 8.65 4.28-2.29 7.98-2.04 10.9 1.36 3.63 4.22 7.47 8.37 7.2 14.57-.13 2.9-.37 5.87.07 8.71.51 3.33 1.23 6.78 2.7 9.76 1.84 3.73 3.62 6.99 1.47 11.3-.87 1.73-.83 4.24-.42 6.24 2.64 13.06 2 26.27 2.21 39.45.07 4.7-.06 9.42.35 14.09.45 5.14-2.09 9.29-3.89 13.68-.9 2.2-1.05 3.89.09 6.19 3.65 7.3 2.6 15.02 1.19 22.67-1.72 9.34-3.43 18.68-5.25 28.01-.22 1.13-.89 2.28-1.65 3.17-9.2 10.83-18.49 21.59-27.67 32.43-2.81 3.32-6.67 4.07-10.35 3.4-15.39-2.78-30.78-.32-46.16-.57-1.86-.03-3.73-.93-5.56-1.54-1.99-.66-3.88-1.83-5.91-2.12-5.86-.83-7.7.34-8.67 6.11-2.52 14.98-4.75 30-7.1 45.01-.4 2.54-.59 5.12-1.16 7.62-.91 4.07-3.66 5.94-8.24 5.81zm106.13-257.24c-2.15-.26-4.02-.44-5.88-.71-3.96-.58-8.34-.33-11.81-1.98-13.05-6.21-26.73-10.01-40.89-12.51-8.74-1.54-17.06-1.9-24.29 4.44-.83.73-1.85 1.29-2.88 1.71-2.17.9-2.74 2.38-2.69 4.71.44 20.81.74 41.62 1.08 62.43.19 11.52.42 23.05.49 34.57.02 2.71.78 3.94 3.62 4.8 4.97 1.51 9.62.88 14.48-.17 1.71-.37 3.72.42 5.55.86 2.1.5 4.13 1.66 6.22 1.74 15.41.57 30.83.93 46.24 1.37 4.02.12 6.98-2.05 7.53-5.99.68-4.86 1.47-9.76 1.55-14.65.34-21.12.37-42.24.66-63.36.08-5.59.65-11.17 1.02-17.26zm-88.41 143.94c.17 3.84.32 10.89.83 17.91.7 9.72 5.04 13.6 14.92 13.77 1 .02 2.02-.01 3.01-.16 7.74-1.21 15.44-1.66 23.3-.7 3.85.47 8.01.03 11.8-.94 8.21-2.09 16.24-4.88 24.41-7.17 2.27-.64 3.44-1.78 3.66-4.02 1.04-10.43 2.63-20.85 2.94-31.31.33-11.43-4.04-14.77-15.54-13.54-.56.06-1.11.13-1.66.21-8.86 1.28-17.69 2.31-26.6.2-2.68-.63-5.67-1.23-8.26-.67-6.97 1.49-13.72.9-20.51-.7-1.96-.46-3.93-.84-5.92-1.17-3.42-.56-6.34 1.89-6.35 5.3-.04 6.6-.03 13.19-.03 22.99zm84.19-156.59c.05-.43.11-.87.16-1.3-2.05-.62-4.1-1.23-6.71-2.01.31 2.16.48 3.34.71 4.95 2.16-.61 4-1.13 5.84-1.64zm-57.09-14.42c2.3-.32 4.23-.58 6.16-.85-.02-.27-.03-.54-.05-.81-2.21-.65-4.43-1.29-7.08-2.07.42 1.62.66 2.56.97 3.73z" fill="#010101"/></svg>