<svg enable-background="new 0 0 400 400" viewBox="0 0 400 400" xmlns="http://www.w3.org/2000/svg"><path d="m179.56 142.99c4.99 12.55 10.1 25.05 14.89 37.67 1.39 3.67 3.34 6.22 6.96 7.9 4.83 2.25 9.42 5.03 14.41 7.74 3.52-20.07 6.97-39.73 10.6-60.37-5.78-.93-11.3-2.36-16.88-2.64-24.3-1.21-48.52-.13-72.57 3.79-5.52.9-5.39 1.01-6.17 6.53-6.13 43.28-8.68 86.78-8.98 130.49-.17 25.15-5.8 49.22-18.06 71.47-.42.76-.9 1.49-1.87 3.11.78-8.33 1.45-15.69 2.17-23.04 2.16-22.04 4.36-44.08 6.49-66.12 1.48-15.25 3.58-30.48 4.13-45.77.74-20.44.78-40.95.16-61.39-.8-26.45-.6-52.8 2.92-79.06 1.26-9.42 2.93-18.78 4.34-28.17.36-2.38 1.37-3.83 3.61-5.06 16.32-8.96 33.96-12.01 52.33-12.42 11.85-.26 23.68-1.3 35.53-1.46 6-.08 12.03.9 18.02 1.57 19.12 2.14 38.22 4.37 57.33 6.56.54.06 1.07.17 1.6.62-11.63.94-23.25 1.89-34.88 2.82-24.19 1.94-48.39 3.88-72.58 5.8-12.49.99-24.97 2.04-37.47 2.92-8.23.58-12.9 4.9-13.67 13.07-.18 1.89-.42 3.79-.45 5.68-.12 6.72-.1 6.74 6.27 8.74 12.5 3.92 25.41 5.46 38.39 5.46 28.63 0 57.25-.53 85.88-.75 2.49-.02 3.51-1.02 4.26-3.22 2.93-8.63 6.02-17.21 9.04-25.81l.9-.09c1.75 6.89 3.7 13.74 5.19 20.68 2.33 10.84 4.36 21.81 3.06 32.93-.71 6.05-2.62 11.95-3.95 17.93-.56 2.54-2.2 3.47-4.65 3.99-13.55 2.89-27.07 5.93-40.6 8.93-.97.21-1.91.51-3.31.89 1.73 19.22 3.46 38.42 5.22 57.9 5.14-.55 9.9-.98 14.64-1.65.95-.13 1.92-1.05 2.63-1.84 7.17-7.91 10.79-17.29 12.01-27.84.92-7.96 2.4-15.86 3.77-24.7 4.42 6.52 6.64 12.86 7.52 19.59 1.26 9.66.38 19.27-2.65 28.51-1.18 3.59-3.59 6.8-5.6 10.09-6.06 9.97-15.02 15.88-26.12 19.08-1.78.52-3.76 2.73-4.33 4.57-1.1 3.58-1.44 7.43-1.7 11.19-.07.95 1.14 2.29 2.11 2.96 8.18 5.67 16.59 11.03 24.62 16.9 3.63 2.65 7.03 5.91 9.72 9.5 10.55 14.08 14.73 30.42 15.9 47.67 1.08 15.91.73 31.76-2.44 47.46-.22 1.07-.52 2.13-.89 3.67-.74-6.62-.87-12.86-2.23-18.83-2.39-10.55-5.32-20.98-8.39-31.36-3.61-12.21-7.57-24.31-11.48-36.43-.45-1.39-1.2-3.05-2.34-3.8-7.43-4.97-15-9.73-23.26-15.02-1.12 6.75-2.74 13.01-3.09 19.34-.98 17.64-1.48 35.31-2.09 52.97-.56 16.11-1.84 32.13-5.59 47.99-2.27-39.26-4.55-78.51-6.86-118.52-6.19 2.55-12.83 1.71-17.7 7.72-12.53 15.46-20.06 32.79-23 52.43-2.2 14.69-5.25 29.25-7.92 43.86-.36.03-.73.07-1.09.1-1.16-6.6-2.85-13.16-3.37-19.81-2.08-26.53 2.7-51.64 16.42-74.76 2.96-4.99 6.55-9.28 11.4-12.52 5.67-3.79 11.14-7.91 16.95-11.45 9.34-5.68 9.7-14.68 8.4-23.23-.15-.99-1.68-1.96-2.77-2.6-11.24-6.6-21.67-14.21-30.81-23.59-7.85-8.06-10.93-17.85-10.83-28.7.05-6.2 1.09-12.39 1.68-18.59.4-.07.79-.12 1.17-.18zm30.13-54.07v.45c-12.74 0-25.49-.22-38.22.06-13.46.3-26.71 2.11-39.27 7.45-1.95.83-2.41 1.89-2.01 3.84.95 4.71 1.82 9.43 2.6 14.17.3 1.82 1.08 2.66 3 2.87 4.77.52 9.5 1.5 14.28 1.89 26.32 2.14 52.67 2.67 79.03.7 10.26-.76 20.47-2.05 30.18-5.72 1.06-.4 2.49-1.14 2.79-2.05 1.66-4.95 3.18-9.96 4.43-15.02.83-3.35-.95-5.85-4.09-6.71-3.62-.99-7.42-1.79-11.15-1.85-13.85-.21-27.71-.08-41.57-.08z" fill="#010101"/><g fill="#fbfafa"><path d="m6.4 11.7c-1-.8-1.9-1.6-2.9-2.3l.6-.7c.9.7 1.9 1.4 2.9 2.2zm-2.1 8.3c.7-2.1 1.4-4.2 2-6.4.2.1.6.3 1 .4-.7 2.3-1.3 4.4-1.9 6.4zm3-12.8c-1.1-.9-2.1-1.7-2.9-2.4l.6-.7c1 .8 2 1.5 3 2.4zm1.4-1.3v-.9h10.2v.9c-.9 4.2-2.3 7.3-4.1 9.4 1.3 1.4 3.2 2.7 5.7 4-.2.2-.4.5-.7.9-2.5-1.4-4.4-2.7-5.7-4.2-1.4 1.5-3.5 3-6.1 4.4 0 0 0 0-.1-.1-.3-.4-.5-.7-.7-.8 2.7-1.3 4.7-2.8 6.2-4.2-1.8-2.2-3-5.3-3.7-9.4zm9.2 0h-7.1c.6 3.8 1.7 6.7 3.4 8.7 1.7-2 2.9-4.8 3.7-8.7z"/><path d="m31.6 3.6h.9v2.3h4.1v9.1h1.7v.9h-16.6v-.9h1.7v-9.1h4.1v-2.3h.9v2.3h3.1v-2.3zm-4 13.3.6.8c-1.9.9-3.8 1.9-5.8 2.8-.2-.3-.3-.6-.5-.9 2-.9 3.9-1.8 5.7-2.7zm-3.2-10.1v3.7h3.1v-3.7zm0 4.5v3.7h3.1v-3.7zm4.1-4.5v3.7h3.1v-3.7zm0 4.5v3.7h3.1v-3.7zm9.1 9.1c-2.1-1.1-4.1-2-5.8-2.7l.5-.8c2.2.9 4.1 1.8 5.8 2.6zm-1.9-13.6h-3.1v3.7h3.1zm-3.2 4.5v3.7h3.1v-3.7z"/></g></svg>