<svg enable-background="new 0 0 400 400" viewBox="0 0 400 400" xmlns="http://www.w3.org/2000/svg"><g fill="#010102"><path d="m115.93 255.37c-2.26-4.4-.23-6.49 3.06-8.39 5.93-3.43 11.39-7.5 15.63-13.02.58-.76 1.47-1.43 2.37-1.79 23.14-9.37 43.52-23.81 65.51-35.28 11.16-5.82 22.85-10.81 34.66-15.2 21.11-7.84 40.24-19.38 59.69-30.4 5.18-2.94 8.88-.77 9.28 5.22.23 3.35-.9 5.8-3.11 8.39-4.01 4.7-8.48 8.07-14.78 8.8-1.6.19-3.2 1-4.66 1.78-28.08 14.82-56.05 29.85-84.27 44.41-8.6 4.44-17.92 7.5-26.82 11.38-2.7 1.18-5.31 2.76-7.62 4.59-3.5 2.78-6.89 5.76-9.98 8.98-5.4 5.6-12.48 7.14-19.6 8.67-6.46 1.37-12.91 2.88-19.36 1.86z"/><path d="m112.4 88.5c-.65 5.11-1.27 9.52-1.76 13.96-.54 4.87-1.11 9.74-1.4 14.63-.23 3.79-.31 7.63 0 11.41 1.25 15.33-1.39 30.03-6.74 44.33-.4 1.08-1.38 2.54-2.27 2.67-.84.13-2.2-1.07-2.82-2.01-1.79-2.7-3.28-5.59-4.95-8.37-4.92-8.15-4.66-16.78-2.55-25.64 1.14-4.78 2.27-9.59 2.99-14.44.48-3.26.72-6.71.2-9.94-2.06-12.97.35-25.61 2.35-38.29.49-3.09.67-6.27 1.54-9.25.58-1.99 2.02-3.8 3.36-5.46.38-.48 1.86-.47 2.64-.17 4.09 1.53 6.06 4.99 6.82 8.93 1.15 6.01 1.81 12.12 2.59 17.64z"/><path d="m262.4 315.83c-.26-1.14-.52-1.68-.48-2.18.59-6.66-1.8-12.45-5.01-18.07-.78-1.37-.96-3.14-1.19-4.76-1.82-12.84.88-25.05 4.8-37.2 1.46-4.51 1.84-9.4 2.46-14.15.38-2.96 3.22-6.37 6.12-6.72 3.97-.48 8.8 2.73 9.13 6.72 1.26 15.01 2.42 30.03 3.22 45.07.21 3.94-1.01 7.95-1.55 11.93-1.02 7.6-5.99 12.55-11.61 16.93-1.56 1.2-3.76 1.58-5.89 2.43z"/><path d="m194.47 39.03c2.87 3.86 5.25 6.82 7.33 9.99.72 1.1 1.02 2.73.91 4.06-1.19 14.03-2.48 28.05-3.8 42.07-1 10.61-3.2 20.96-6.86 31-.77 2.11-1.8 2.6-3.86 2.65-2.29.06-2.61-1.23-3.25-2.93-5.1-13.59-6.95-27.57-4.39-41.85 2.43-13.52 5.42-26.94 8.59-40.31.42-1.78 3.32-2.99 5.33-4.68z"/><path d="m113.69 374.61c-.22-3.04-.53-5.81-.59-8.58-.08-3.51-1.08-6.54-3.83-8.87-2.68-2.27-3.5-5.21-3.41-8.68.42-16.17 2.87-32.09 6.64-47.75 1-4.16 4.64-7.68 7.17-11.66 4.04 3.08 6.34 6.64 6.8 11 1.52 14.33 4.06 28.73.89 43.07-2.21 9.99-5.51 19.74-8.3 29.61-.82 2.88-2.96 2.02-5.37 1.86z"/><path d="m261.36 24.98c4.67 1.7 7.55 4.52 8.16 9.25 2.42 18.68 4.14 37.38-.39 55.98-1.15 4.75-2.96 9.35-4.7 13.93-.69 1.81-1.65 3.69-4.3 3.46-2.69-.23-3.77-1.73-4.28-4.2-4.7-22.93-6.4-45.8 1.08-68.53.66-2.01 1.5-3.97 2.36-5.9.58-1.31 1.32-2.56 2.07-3.99z"/><path d="m189.24 323.59c-7.53-23.49-10.74-46.74-.13-70.12 1.15-2.53 2.5-2.69 4.66-1.79 5.34 2.21 6.39 7.24 7.48 11.96 2.77 11.97 1.67 23.98-.17 35.99-1.03 6.73-1.79 13.52-2.36 20.3-.2 2.41-.83 3.42-3.31 3.3-1.88-.08-3.78.21-6.17.36z"/></g><path d="m385.2 377.6.6-.7c.6.4 1.3.9 1.9 1.5l-.6.7c-.8-.5-1.4-1-1.9-1.5zm.3 7.1c.6-1.4 1.1-2.9 1.5-4.5.3.1.6.3.9.4-.5 1.4-1 2.9-1.5 4.4zm.2-10.1.6-.6c.7.5 1.3 1.1 1.9 1.6l-.7.7c-.6-.6-1.2-1.2-1.8-1.7zm8.4-.8h.8v.9h1.8v.7h-1.8v1.8h-.8v-.3h-1.2v.9h3.3v2.6h-.8v-.4h-2.5c0 .3 0 .6-.1.8h3.4v.7h-3.5c0 .3-.1.6-.1.8h4v.7h-3.5c.7.9 1.9 1.3 3.6 1.5-.2.2-.4.5-.6.9-1.9-.3-3.2-1.1-3.8-2.3-.5 1.1-1.8 2-3.9 2.4-.2-.3-.4-.5-.6-.8 1.9-.4 3.1-.9 3.6-1.7h-3.2v-.7h3.5c.1-.2.1-.5.2-.8h-3.3v-.7h3.4c0-.2 0-.5 0-.8h-2.4v.3h-.8v-2.6h3.3v-.9h-1.2v.3h-.8v-1.8h-1.8v-.7h1.8v-.9h.8v.9h3.2zm-4.4 5.5h2.4c0-.3 0-.6 0-.9h-2.4zm1.2-3.1h3.2v-.8h-3.2zm4.4 2.2h-2.4v.9h2.5v-.9z" fill="#fcfbfa"/><path d="m389.2 385.8h.9v1.5h1.9v-1.5h.9v1.5h2.7v6h1.1v.9h-11.3v-.9h1.1v-6h2.7zm.2 8.7.5.8c-1.2.6-2.5 1.3-4 1.9-.2-.3-.3-.6-.6-.8 1.6-.6 3-1.3 4.1-1.9zm-2-4.3h1.9v-2.1h-1.9zm0 3.1h1.9v-2.2h-1.9zm2.7-3.1h1.9v-2.1h-1.9zm0 3.1h1.9v-2.2h-1.9zm2.4 1.3c1.4.6 2.7 1.2 4.1 1.8l-.5.9c-1.5-.7-2.8-1.4-4.1-1.9zm2.2-6.5h-1.9v2.1h1.9zm-1.9 5.2h1.9v-2.2h-1.9z" fill="#fcfbfa"/></svg>