<svg enable-background="new 0 0 400 400" viewBox="0 0 400 400" xmlns="http://www.w3.org/2000/svg"><g fill="#010000"><path d="m288.07 129.64c-2.11-.47-4.39-.58-6.31-1.47-6.37-2.98-13.43-5.29-18.63-9.73-3.53-3.02-7.76-3.18-11.03-5.75-7.03-5.52-13.96-11.18-21.04-16.63-4.41-3.39-9.02-6.51-13.95-10.05-3.62 7.57-5.19 14.62-3.26 22.26.54 2.13.78 4.37.84 6.57.13 4.59.23 9.19-.03 13.77-.17 2.94-1.01 5.85-1.52 8.77-.22 1.3-.62 2.63-.5 3.9.55 5.68 1.12 11.36 2.01 16.99.21 1.33 1.5 2.72 2.65 3.61.99.77 2.49 1.17 3.78 1.21 9.05.26 17 4.47 25.47 6.78 6.21 1.7 12.68 2.54 19.08 3.42 4.71.65 6.96 3.56 8.38 7.6 1.39 3.95 1.18 7.44-2.59 10.1-1.46 1.03-2.68 2.39-4.15 3.39-.88.6-2.09 1.22-3.07 1.1-11.99-1.4-24.06-1.34-36.08-2.1-.77-.05-1.54-.2-2.22-.3-.5-1.14-.96-2.18-1.53-3.47-4.06 2.9-6.64 5.72-6.25 10.91.51 6.79.01 13.65.22 20.48.04 1.39.99 3.16 2.09 4.04 15.27 12.16 32.53 21.3 48.94 31.72 5.69 3.62 12.39 5.63 18.56 8.53 1.44.67 2.58 1.98 3.86 2.97 1.11.86 2.13 1.96 3.38 2.51 6.33 2.78 9.25 12.95 4.58 18.02-1.94 2.1-5.55 3.95-8.26 3.78-4.84-.3-9.99-.05-14.47-3.07-3.76-2.54-7.65-5.42-11.91-6.55-12.33-3.26-22.68-10.96-34.74-14.7-.32-.1-.66-.13-.98-.22-7.93-2.1-9.58-1.24-10.68 7.02-.69 5.13-.42 10.38-.59 15.58-.01.34-.02.67-.07 1-.99 7.13-2 14.26-2.99 21.39-.09.66-.4 1.41-.2 1.97 1.75 5.03-.58 9.62-1.23 14.43-1.12 8.29-4 16.09-5.89 24.16-.33 1.42-1.44 2.65-2.19 3.97-1.74 3.09-3.67 6.09-5.19 9.29-2.44 5.13-4.53 6.97-10.24 7.98.38-3.31-1.37-5.13-4.17-6.58-1.05-.54-1.89-2.57-1.87-3.91.23-16.11.63-32.23 1-48.34.02-.66-.08-1.56.29-1.94 3.22-3.32 2.44-7.45 2.51-11.44.09-5.25.34-10.49.48-15.73.04-1.44.12-2.94-.18-4.33-1.42-6.51-1.31-12.92-.58-19.59 1.31-11.91 1.59-23.93 2.29-35.9.45-7.67 1.6-15.39 1.18-23.02-.8-14.34-.73-12.5-14.14-16.36-1.97-.57-4.33.22-6.51.4-.22.02-.45.07-.65.17-3.18 1.52-6.57-1.99-10.26 1.26-2.37 2.09-7.14 1.74-10.87 1.94-3.66.19-7.38-.18-11.04-.56-1.45-.15-2.8-1.07-4.24-1.49-2.44-.71-4.9-1.41-7.39-1.92-6.37-1.3-8.25-4.35-6.27-10.5.51-1.59 1.12-3.16 1.73-4.72.76-1.93 1.88-3.04 4.16-3.76 2.64-.83 4.99-2.88 7.19-4.73 2.1-1.77 4.24-2.06 6.81-1.59 9.47 1.71 18.98 3.51 28.65 2.41 5.64-.64 11.26-1.73 16.78-3.06 1.23-.3 2.91-2.46 2.88-3.73-.27-12.27-.22-24.61-1.53-36.79-1.44-13.35-3.3-26.63-2.67-40.1.02-.33.05-.7-.05-1-4.01-11.23-2.42-23-3.11-34.53-.21-3.56.67-7.24 3.76-10.01.97-.87 1.14-2.82 1.35-4.33.61-4.48 2.23-5.92 6.54-5.54 10.43.92 16.86 8.13 16.59 18.59-.19 7.22 4.27 10.57 11.49 9.3 2.33-.41 5.16.33 7.39 1.35 3.91 1.8 7.37 4.59 11.32 6.3 5.04 2.19 9.47 4.9 12.76 9.4 2.53 3.46 5.51 6.39 9.57 8.18 1.31.58 2.38 2.02 3.21 3.29 4.53 6.94 10.61 12.08 17.3 16.97 5.18 3.78 9.33 9.21 13.26 14.41 3.05 4.03.74 9.72-3.8 11.96-1.35.67-2.32 2.1-3.47 3.19.06.42.16.81.26 1.2z"/><path d="m119.33 78.41c3-2.62 5.93-5.32 9.01-7.83 2.41-1.96 4.85-4.01 7.58-5.43 3.94-2.05 6.77.08 6.68 4.37-.04 2.08.28 4.25.86 6.26 2.49 8.69 2.39 17.23-1.36 25.53-.64 1.42-1.79 2.83-3.07 3.69-7.24 4.86-14.61 9.52-21.89 14.32-2.88 1.9-5.5 4.22-8.47 5.94-3.93 2.28-7.21 1.69-10.62-1.31-.41-.36-.92-.85-1.39-.85-4.38.01-4.31-2.78-4.37-6.08-.08-4.59 1.01-8.42 4.1-11.96 3.67-4.21 6.92-8.78 10.25-13.27 2.88-3.88 5.81-7.59 10.36-9.76 1.16-.55 1.76-2.29 2.62-3.48-.09-.05-.19-.09-.29-.14z"/><path d="m181.26 233.98c-1.28 4.2-1.92 8.59-6.34 11.47-6.45 4.21-12.52 8.99-18.77 13.51-.72.52-1.47 1.05-2.29 1.37-8.02 3.16-14.78 8.2-21.18 13.87-1.58 1.4-3.85 2.03-5.81 2.99-3.76 1.84-7.46 3.84-11.32 5.44-2.31.96-4.85 1.57-7.33 1.79-1.62.14-4.09-.13-3.85-2.61.21-2.14.75-5.15 2.21-6.07 2.38-1.49 2.97-3.37 4.05-5.6 1.65-3.39 3.94-6.82 6.83-9.18 5-4.09 10.26-8.32 16.13-10.75 7.21-2.98 12.26-8.37 18.03-12.95 3.34-2.65 6.06-6.1 9.06-9.18.15-.16.35-.32.55-.38 4.01-1.05 5.93-4.06 7.39-7.63.9-2.22 2.59-2.14 4.38-1.01 5.42 3.43 7.32 8.77 8.26 14.92z"/></g><path d="m361.2 9.6.8-1c.9.7 1.9 1.4 2.9 2.3l-.9 1.1c-1-1-2-1.8-2.8-2.4zm.5 10.6c.9-2.1 1.6-4.3 2.3-6.7.4.2.8.4 1.3.6-.7 2.1-1.5 4.3-2.2 6.6zm.4-15.2.9-.9c1 .8 2 1.6 2.8 2.4l-1 1c-.9-.9-1.8-1.7-2.7-2.5zm12.5-1.2h1.2v1.4h2.7v1.1h-2.7v2.7h-1.2v-.6h-1.8v1.3h4.9v3.8h-1.2v-.5h-3.7c0 .4-.1.9-.1 1.2h5.1v1h-5.2c0 .5-.1.9-.2 1.2h6v1h-5.2c1.1 1.3 2.9 2 5.5 2.2-.4.4-.7.8-.9 1.3-2.9-.5-4.8-1.6-5.7-3.5h-.1c-.8 1.7-2.7 2.9-5.9 3.6-.2-.4-.6-.8-.9-1.1 2.8-.6 4.6-1.4 5.4-2.5h-4.8v-1h5.3c.1-.3.2-.7.2-1.2h-4.9v-1h5c0-.4 0-.8.1-1.2h-3.5v.5h-1.2v-3.8h4.9v-1.3h-1.8v.5h-1.2v-2.7h-2.7v-1h2.6v-1.4h1.2v1.4h4.7v-1.4zm-6.6 8.3h3.6c0-.4 0-.9 0-1.4h-3.6zm1.9-4.6h4.7v-1.3h-4.7zm6.6 3.2h-3.7v1.4h3.7z" fill="#fbfcfa"/><path d="m385.3 3.8h1.3v2.2h2.8v-2.2h1.3v2.2h4.1v9.1h1.7v1.3h-16.9v-1.3h1.7v-9.1h4.1v-2.2zm.4 13.1.7 1.2c-1.8.9-3.8 1.9-6 2.9-.2-.4-.5-.8-.8-1.3 2.3-1 4.3-1.9 6.1-2.8zm-3.1-6.4h2.8v-3.2h-2.8zm0 4.6h2.8v-3.3h-2.8zm4-4.6h2.8v-3.2h-2.8zm0 4.6h2.8v-3.3h-2.8zm3.7 1.9c2.1.9 4.1 1.8 6.1 2.7l-.7 1.3c-2.2-1.1-4.2-2-6.1-2.9zm3.2-9.7h-2.8v3.2h2.8zm-2.8 7.8h2.8v-3.3h-2.8z" fill="#fbfcfa"/></svg>