<svg enable-background="new 0 0 400 400" viewBox="0 0 400 400" xmlns="http://www.w3.org/2000/svg"><g fill="#010104"><path d="m48.72 207.31c7.24-4.43 14.99-5.87 22.89-6.98 4.51-.64 9.07-1.5 13.37-2.97 38.69-13.22 77.24-26.87 116.05-39.75 10.43-3.46 21.59-4.69 32.41-6.99 2.73-.58 5.44-1.26 8.14-1.99 13.32-3.61 21.65-11.94 24.43-25.65.46-2.25 1.21-4.63 2.49-6.49 7.72-11.19 10.14-23.96 11.24-37.1.86-10.29.72-20.6-1.83-30.68-.5-1.97-1.83-3.97-3.33-5.39-5-4.73-9.38-9.65-8.62-18.18 4.11.86 8.35 1.04 11.96 2.63 11.05 4.87 20.91 11.58 28.86 20.83 8.75 10.18 9.84 22.15 6.98 34.48-1.79 7.75-5.08 15.16-7.79 22.68-.36 1.01-1.22 1.86-1.91 2.73-8.75 11.04-17.51 22.07-26.84 33.83 6.33 1.73 12.1 3.63 18.01 4.84 8.97 1.84 18.06 3.12 27.07 4.8 7.4 1.38 14.26 3.93 18.8 10.5 2.93 4.24 3.73 9.06 3.33 14.07-.07.84-1.09 1.81-1.92 2.36-6.78 4.52-14.42 4.05-22.06 3.79-13.97-.49-27.94-1.04-41.92-1.28-11.18-.19-22.38-.32-33.55.19-12.61.58-24.83 3.21-35.91 9.73-.57.34-1.12.72-1.9 1.23 7.87 8.73 15.41 17.59 23.53 25.89 4.37 4.46 6.39 9.09 6.35 15.37-.07 8.82.85 17.65 1.3 26.48.06 1.21.22 2.64-.32 3.6-5.47 9.82-6.35 20.74-6.82 31.51-.68 15.42-6.55 29.29-11.01 43.67-3.54 11.41-9.07 21.53-16.12 30.98-.73.98-1.5 1.98-2.42 2.77-2.81 2.39-6.16 2.99-9.75 2.66-4.77-.44-4.71-4.54-4.88-7.53-.25-4.49.28-9.09 1.05-13.55.82-4.72 2.43-9.29 3.5-13.98.49-2.15.74-4.41.68-6.61-.21-8.61-.91-17.23-.8-25.83.08-6.12 1.25-12.21 1.8-18.33 1.78-19.61-.44-38.8-5.67-57.77-1.92-6.95-2.59-14.25-3.84-21.39-.96-5.48-2.64-10.84-8.58-12.45-3.13-.85-7.12-.73-10.11.48-24.34 9.85-50.07 14.12-75.63 18.95-12.19 2.3-24.34 1.53-35.21-5.69-.74-.49-1.5-.98-2.19-1.55-1-.82-1.98-1.74-3.31-2.92z"/><path d="m223.9 108.27c-2.91-.46-3.44 1.26-3.95 3.43-2.58 10.99-5.31 21.94-7.98 32.9-1.21 4.98-10.11 10.66-15.03 9.25-3.46-.99-4.23-4.42-4.91-7.4-.45-2-.37-4.31.13-6.31 2.22-8.8 2.41-17.65 1.65-26.63-.88-10.25-1.26-20.55-2.19-30.8-.31-3.37-1.48-6.7-2.59-9.94-1.13-3.27-3-6.29-3.97-9.59-2.38-8.04-8.35-12.39-15.41-15.73-5.53-2.62-6.7-5.23-4.84-10.97 1.19-3.67 6.5-6.54 10.1-5.02 17.2 7.26 34.35 14.69 49.9 25.18 8.17 5.51 9.53 10.12 4.82 18.79-3.76 6.92-4.21 14.23-4.81 21.66-.3 3.57-.59 7.13-.92 11.18z"/><path d="m271.33 317.26c-1.92-3.42-2.13-6.9-.49-9.9 6.34-11.6 6.51-24.5 8.27-37.07 1.1-7.86 2.16-15.75 2.81-23.66.3-3.58-.32-7.26-.74-10.87-.24-2.1-1.12-4.12-1.37-6.21-.81-6.78-3.53-12.3-9.59-15.9-2.2-1.31-2.21-3.26-.96-5.21 1.14-1.78 2.36-3.56 3.83-5.06.72-.73 2.15-1.27 3.15-1.13 16.71 2.39 31.32 9.13 42.49 22.03 4.93 5.7 6.94 12.43 4.68 20.28-2.59 9.02-4.39 18.26-6.63 27.38-.36 1.47-1.04 2.96-1.93 4.18-3.58 4.87-7.29 9.64-10.97 14.43-.54.7-1.06 1.59-1.81 1.94-7.53 3.55-11.85 10.31-16.72 16.54-3.53 4.5-8.12 7.22-14.02 8.23z"/><path d="m92.36 246.06c7.19.81 12.83 3.51 17.71 7.85 1.25 1.11 2.51 2.26 3.52 3.59 9.97 13.15 22.64 23.01 37.02 30.87 2.09 1.14 4.04 2.86 5.49 4.76 3.43 4.49 2.36 10.54-2.24 13.71-3.58 2.47-7.27 4.8-10.96 7.1-5.08 3.17-10.79 4.2-16.65 4.4-1.3.04-2.84-.58-3.92-1.38-5.19-3.87-10.3-7.87-15.35-11.93-1.08-.87-2.02-2.09-2.64-3.35-5.04-10.2-10.34-20.31-14.78-30.77-1.46-3.43-1.18-7.9-.69-11.76.56-4.36 2.24-8.58 3.49-13.09z"/><path d="m109.62 84.65c14.41-.26 22.89 7.57 28.36 19.52 3.34 7.32 4.92 15.05 4.16 23.15-.08.88-.05 1.83-.38 2.62-4.07 10.05-8.29 19.86-16.96 27.23-5.35 4.55-11.62 3.96-16.23 2.04-.79-.33-1.41-1.61-1.67-2.57-1.99-7.36-2.35-14.84-.31-22.19 4.32-15.56 4.13-31.36 3.03-47.24-.04-.74 0-1.5 0-2.56z"/></g><path d="m385.2 377.6.6-.7c.6.4 1.3.9 1.9 1.5l-.6.7c-.8-.5-1.4-1-1.9-1.5zm.3 7.1c.6-1.4 1.1-2.9 1.5-4.5.3.1.6.3.9.4-.5 1.4-1 2.9-1.5 4.4zm.2-10.1.6-.6c.7.5 1.3 1.1 1.9 1.6l-.7.7c-.6-.6-1.2-1.2-1.8-1.7zm8.4-.8h.8v.9h1.8v.7h-1.8v1.8h-.8v-.3h-1.2v.9h3.3v2.6h-.8v-.4h-2.5c0 .3 0 .6-.1.8h3.4v.7h-3.5c0 .3-.1.6-.1.8h4v.7h-3.5c.7.9 1.9 1.3 3.6 1.5-.2.2-.4.5-.6.9-1.9-.3-3.2-1.1-3.8-2.3-.5 1.1-1.8 2-3.9 2.4-.2-.3-.4-.5-.6-.8 1.9-.4 3.1-.9 3.6-1.7h-3.2v-.7h3.5c.1-.2.1-.5.2-.8h-3.3v-.7h3.4c0-.2 0-.5 0-.8h-2.4v.3h-.8v-2.6h3.3v-.9h-1.2v.3h-.8v-1.8h-1.8v-.7h1.8v-.9h.8v.9h3.2zm-4.4 5.5h2.4c0-.3 0-.6 0-.9h-2.4zm1.2-3.1h3.2v-.8h-3.2zm4.4 2.2h-2.4v.9h2.5v-.9z" fill="#fcfbfa"/><path d="m389.2 385.8h.9v1.5h1.9v-1.5h.9v1.5h2.7v6h1.1v.9h-11.3v-.9h1.1v-6h2.7zm.2 8.7.5.8c-1.2.6-2.5 1.3-4 1.9-.2-.3-.3-.6-.6-.8 1.6-.6 3-1.3 4.1-1.9zm-2-4.3h1.9v-2.1h-1.9zm0 3.1h1.9v-2.2h-1.9zm2.7-3.1h1.9v-2.1h-1.9zm0 3.1h1.9v-2.2h-1.9zm2.4 1.3c1.4.6 2.7 1.2 4.1 1.8l-.5.9c-1.5-.7-2.8-1.4-4.1-1.9zm2.2-6.5h-1.9v2.1h1.9zm-1.9 5.2h1.9v-2.2h-1.9z" fill="#fcfbfa"/></svg>