<svg enable-background="new 0 0 400 400" viewBox="0 0 400 400" xmlns="http://www.w3.org/2000/svg"><path d="m361.2 9.6.8-1c.9.7 1.9 1.4 2.9 2.3l-.9 1.1c-1-1-2-1.8-2.8-2.4zm.5 10.6c.9-2.1 1.6-4.3 2.3-6.7.4.2.8.4 1.3.6-.7 2.1-1.5 4.3-2.2 6.6zm.4-15.2.9-.9c1 .8 2 1.6 2.8 2.4l-1 1c-.9-.9-1.8-1.7-2.7-2.5zm12.5-1.2h1.2v1.4h2.7v1.1h-2.7v2.7h-1.2v-.6h-1.8v1.3h4.9v3.8h-1.2v-.5h-3.7c0 .4-.1.9-.1 1.2h5.1v1h-5.2c0 .5-.1.9-.2 1.2h6v1h-5.2c1.1 1.3 2.9 2 5.5 2.2-.4.4-.7.8-.9 1.3-2.9-.5-4.8-1.6-5.7-3.5h-.1c-.8 1.7-2.7 2.9-5.9 3.6-.2-.4-.6-.8-.9-1.1 2.8-.6 4.6-1.4 5.4-2.5h-4.8v-1h5.3c.1-.3.2-.7.2-1.2h-4.9v-1h5c0-.4 0-.8.1-1.2h-3.5v.5h-1.2v-3.8h4.9v-1.3h-1.8v.5h-1.2v-2.7h-2.7v-1h2.6v-1.4h1.2v1.4h4.7v-1.4zm-6.6 8.3h3.6c0-.4 0-.9 0-1.4h-3.6zm1.9-4.6h4.7v-1.3h-4.7zm6.6 3.2h-3.7v1.4h3.7z" fill="#fbfcfa"/><path d="m385.3 3.8h1.3v2.2h2.8v-2.2h1.3v2.2h4.1v9.1h1.7v1.3h-16.9v-1.3h1.7v-9.1h4.1v-2.2zm.4 13.1.7 1.2c-1.8.9-3.8 1.9-6 2.9-.2-.4-.5-.8-.8-1.3 2.3-1 4.3-1.9 6.1-2.8zm-3.1-6.4h2.8v-3.2h-2.8zm0 4.6h2.8v-3.3h-2.8zm4-4.6h2.8v-3.2h-2.8zm0 4.6h2.8v-3.3h-2.8zm3.7 1.9c2.1.9 4.1 1.8 6.1 2.7l-.7 1.3c-2.2-1.1-4.2-2-6.1-2.9zm3.2-9.7h-2.8v3.2h2.8zm-2.8 7.8h2.8v-3.3h-2.8z" fill="#fbfcfa"/><path d="m42.75 341.36c-.33-.84-.68-1.74-1.21-3.09-.72 1.01-1.2 1.98-1.95 2.66-1.71 1.54-3.37 3.34-5.4 4.29-2.49 1.16-4.78.81-6.17-2.39-1.78-4.07-4.11-7.91-6.64-12.68 7.87-5.11 15.49-10.58 23.61-15.16 6.59-3.71 13.61-6.83 20.73-9.39 20.55-7.4 39.73-17.3 57.47-30.03 3.36-2.41 7.01-4.42 10.32-6.88 4.06-3.02 5.47-7.52 5.8-12.34.05-.71-.96-1.77-1.74-2.22-3.18-1.83-6.79-3.06-9.63-5.3-3.58-2.82-7.27-4.5-11.81-4.74-1.53-.08-3.25-.85-4.46-1.82-4.02-3.21-7.82-6.68-11.76-10-2.39-2.01-4.7-4.2-7.35-5.81-2.74-1.67-5.73-3.38-8.81-3.92-3.67-.64-4.49 3.63-6.68 5.57-6.85 6.09-13.26 12.7-20.28 18.57-7.12 5.95-15.54 7.74-24.57 4.98-1.36-.42-2.84-1.76-3.47-3.06-2.49-5.11-4.66-10.37-7.06-15.81 1.49-.96 2.86-1.89 4.28-2.74 16.68-10 33.74-19.43 49.98-30.1 24.77-16.28 44.69-37.06 56.17-65.03 4.17-10.15 10.14-19.11 19.36-25.98 4.1 6.31 8.38 12.32 12.03 18.7 3.32 5.8 8.09 9.7 13.74 12.86 15.69 8.78 32.72 13.73 50.15 17.45 9.4 2.01 18.9 3.54 28.93 1.94.2-3.57.45-7.11.61-10.66.92-20.68 1.75-41.37 2.78-62.05.27-5.46.99-10.92 1.76-16.34 1-6.99 4.32-9.92 12.13-10.75v3.85c0 22.5-.01 45 .01 67.5 0 1.45-.24 3.1.35 4.31 3.23 6.54 2.45 13.5 2.58 20.4.06 3.1.39 6.27 1.16 9.27 1.06 4.12 3.04 5.33 7.24 5.34 1.68 0 3.4-.24 5.03.04 6.97 1.19 12.42-1.17 16.35-6.92 1.11-1.63 2.2-3.6 2.38-5.5 1.3-14.03 2.6-28.07 3.43-42.14.71-12.05.62-24.15 1.26-36.2.15-2.75 1.95-5.38 2.78-8.13.8-2.63 1.28-5.36 1.98-8.03.76-2.91 1.6-5.79 2.41-8.69.59-.09 1.18-.18 1.77-.26 1.51 2.57 3.73 4.97 4.42 7.74 2.7 10.83 5.03 21.77 7.24 32.72.49 2.44.09 5.12-.24 7.65-.91 6.97-2.65 13.89-2.88 20.87-.48 15.1-.42 30.22-.17 45.32.14 8.36 3.88 12.5 11.86 14.99 6.71 2.1 13.51 3.98 18.83 9.07 4.1 3.92 6.5 8.45 6.38 14.22-.06 3.01-.01 6.03-.01 9.03-2.58 1.38-4.47.97-6.72-.82-7.58-6.04-15.9-10.77-25.44-13.09-3.21-.78-5.2-.35-7.31 2.93-4.95 7.68-10.55 14.96-16.19 22.17-7.8 9.96-18 11.27-29.61 7.95-6.55-1.87-10.96-4.69-12.7-12.06-1.78-7.54-5.28-14.69-8.2-21.94-.95-2.36-2.34-4.58-3.73-6.74-5.36-8.3-10.8-10.05-19.4-5.15-2 1.14-3.38 5.5-3.09 8.18 1.06 9.96-1.52 19.08-5.1 28.08-2.23 5.6-3.47 11.31-2.78 17.35.09.77.02 1.81.48 2.24 4.73 4.41 7.91 10.43 14.78 12.61 31.1 9.85 62.24 19.61 93.11 30.16 10.59 3.62 20.52 9.23 30.54 14.35 2.12 1.08 5.05 4.51 4.6 5.89-1.16 3.6-3.4 7.42-6.32 9.74-2.69 2.13-6.77 2.77-10.35 3.44-10.28 1.9-20.3-.4-30.17-2.84-6.59-1.63-13.19-3.63-19.33-6.47-3.96-1.83-7.57-2.98-11.94-2.78-2.12.1-4.45-1.28-6.45-2.42-12.43-7.1-24.91-14.04-38.57-18.64-12.08-4.07-24.64-5.33-37.14-7.17-7.26-1.07-14.61-2.33-21.52-4.67-4.91-1.66-9.16-5.27-14.09-8.24-1.52 1.73-3.46 4.13-5.6 6.34-12.57 12.93-27.52 22-44.75 27.32-1.07.33-2.14.64-3.22.91-9.47 2.4-17.88 6.78-26.38 11.72-16.68 9.69-34.3 17.76-51.53 26.49-.21.05-.47-.02-.9-.02zm166.55-144.72c.31-7.61-.67-12.45-5.55-14.9-9.09-4.56-18.67-6.68-28.73-3.3-5.61 1.88-11.24 3.74-16.71 5.98-8.56 3.49-17.05 7.2-25.44 11.07-1.3.6-2.27 2.49-2.82 3.99-.75 2.08-1.01 4.34-1.38 6.55-.93 5.6 1.26 10.09 6.23 12.76 2.56 1.37 5.09 2.85 7.79 3.91 10.06 3.95 20.03 8.23 30.33 11.43 6.7 2.08 13.5 1.37 18.32-5.2 1.64-2.23 3.79-4.13 5.9-5.95 8.87-7.63 10.66-18.18 12.06-26.34zm82.46 15.75c2.47-1.37 5.08-2.53 7.37-4.14 4.85-3.41 5.78-8.39 2.38-13.34-.89-1.31-2.69-2.44-4.26-2.76-4.69-.95-9.47-1.46-14.21-2.13-2.08-.29-5.34 1.97-5.79 3.98-1.79 7.97 6.01 17.75 14.51 18.39z" fill="#010105"/></svg>