<svg enable-background="new 0 0 400 400" viewBox="0 0 400 400" xmlns="http://www.w3.org/2000/svg"><path d="m38.66 290.16c13.14-3.19 25.51-6.15 37.85-9.23 2.69-.67 5.4-1.51 7.88-2.73 21.09-10.3 42.26-20.44 63.13-31.17 13.17-6.77 25.16-15.43 36.13-25.44.81-.74 1.72-1.39 3.24-2.61-4.53-2.77-8.23-5.44-12.26-7.43-17.81-8.81-36.3-15.84-56.01-18.87-5.73-.88-11.76-.05-17.63.31-1.33.08-2.91 1.24-3.82 2.35-6.34 7.84-14.45 13.24-23.41 17.59-12.84 6.23-24.96 13.53-34.96 23.94-3.73 3.88-8.34 6.3-13.81 7.17-2.13-4.19-2.61-7.85-.28-12.53 3.58-7.18 8.3-13.04 14.28-18.27 22.63-19.8 43.48-41.29 61.76-65.24 14.59-19.11 25.28-40.01 30.48-63.59 2-9.09.84-17.99-1.43-26.87-1.68-6.56-3.1-13.2-4.77-20.41 11.76 3.18 23.21 5.32 33.16 11.17 12.82 7.54 18.27 19.13 16.06 34.09-1.02 6.9 2.44 11.94 9.23 13.8 19.72 5.41 39.81 9.75 59.07 16.48 20.09 7.03 39.41 16.28 59.01 24.71 11.95 5.14 23.29 11.33 33.31 19.82 9.11 7.72 12.61 17.32 10.79 29-.09.55-.12 1.16-.4 1.61-1.04 1.69-11.18 4.22-13 3.3-13.83-6.96-27.01-14.87-38.48-25.44-5.24-4.83-11.17-8.57-18.52-9.48-4.97-.62-5.98-.21-8.22 4.08-8.3 15.84-16.59 31.69-24.87 47.53-.35.68-.6 1.41-.81 1.9 7.52 6.47 15.11 12.57 22.22 19.19 20.97 19.52 41.73 39.26 62.61 58.87 11.84 11.12 21.09 24.34 30.24 37.59 4.67 6.77 8.84 13.98 12.43 21.38 2.08 4.3 2.56 9.38 3.88 14.61-3.63.37-6.48.84-9.34.85-.93 0-2.14-1-2.77-1.87-21.31-29.71-46.86-55.28-75.81-77.46-8.14-6.24-17.19-11.29-25.66-17.11-8.84-6.08-17.3-12.7-26.27-18.58-5.18-3.39-11-5.83-16.61-8.54-.76-.37-2.35-.18-2.92.39-19.4 19.62-43.94 30.89-68.46 42.12-15.85 7.26-31.81 14.29-47.81 21.19-2.41 1.04-5.42 1.42-8.04 1.13-14.23-1.57-28.4-3.67-42.64-5.08-5.38-.51-5.23-4.84-7.75-8.22zm89.78-124.73c11.42 2.39 21.71 4.44 31.95 6.71 11.25 2.49 22.41 5.21 32.21 11.81 4.22 2.84 8.96 4.9 13.23 7.67 6.9 4.47 12.4 2.01 17.58-3 .8-.78 1.72-1.45 2.45-2.29 7.86-9.02 15.61-18.15 23.6-27.05 2.45-2.73 3.37-5.53 3.13-9.09-.12-1.83-.58-2.76-2.38-3.38-26.59-9.24-53.15-18.56-79.74-27.8-1.17-.41-2.63-.43-3.86-.17-9.27 1.98-15.57 7.55-20.02 15.86-3.63 6.78-8.05 13.12-12.02 19.72-2.04 3.39-3.85 6.9-6.13 11.01z" fill="#010104"/><g fill="#fcfbfa"><path d="m385.2 377.6.6-.7c.6.4 1.3.9 1.9 1.5l-.6.7c-.8-.5-1.4-1-1.9-1.5zm.3 7.1c.6-1.4 1.1-2.9 1.5-4.5.3.1.6.3.9.4-.5 1.4-1 2.9-1.5 4.4zm.2-10.1.6-.6c.7.5 1.3 1.1 1.9 1.6l-.7.7c-.6-.6-1.2-1.2-1.8-1.7zm8.4-.8h.8v.9h1.8v.7h-1.8v1.8h-.8v-.3h-1.2v.9h3.3v2.6h-.8v-.4h-2.5c0 .3 0 .6-.1.8h3.4v.7h-3.5c0 .3-.1.6-.1.8h4v.7h-3.5c.7.9 1.9 1.3 3.6 1.5-.2.2-.4.5-.6.9-1.9-.3-3.2-1.1-3.8-2.3-.5 1.1-1.8 2-3.9 2.4-.2-.3-.4-.5-.6-.8 1.9-.4 3.1-.9 3.6-1.7h-3.2v-.7h3.5c.1-.2.1-.5.2-.8h-3.3v-.7h3.4c0-.2 0-.5 0-.8h-2.4v.3h-.8v-2.6h3.3v-.9h-1.2v.3h-.8v-1.8h-1.8v-.7h1.8v-.9h.8v.9h3.2zm-4.4 5.5h2.4c0-.3 0-.6 0-.9h-2.4zm1.2-3.1h3.2v-.8h-3.2zm4.4 2.2h-2.4v.9h2.5v-.9z"/><path d="m389.2 385.8h.9v1.5h1.9v-1.5h.9v1.5h2.7v6h1.1v.9h-11.3v-.9h1.1v-6h2.7zm.2 8.7.5.8c-1.2.6-2.5 1.3-4 1.9-.2-.3-.3-.6-.6-.8 1.6-.6 3-1.3 4.1-1.9zm-2-4.3h1.9v-2.1h-1.9zm0 3.1h1.9v-2.2h-1.9zm2.7-3.1h1.9v-2.1h-1.9zm0 3.1h1.9v-2.2h-1.9zm2.4 1.3c1.4.6 2.7 1.2 4.1 1.8l-.5.9c-1.5-.7-2.8-1.4-4.1-1.9zm2.2-6.5h-1.9v2.1h1.9zm-1.9 5.2h1.9v-2.2h-1.9z"/></g></svg>