<svg enable-background="new 0 0 400 400" viewBox="0 0 400 400" xmlns="http://www.w3.org/2000/svg"><path d="m374.8 390.4.4-.4c.7.5 1.3 1 1.8 1.4l-.5.5c-.5-.6-1.1-1.1-1.7-1.5zm1 7.3-.6-.3c.5-1.4 1.1-2.8 1.5-4.3.2.1.4.2.6.3-.5 1.3-1 2.8-1.5 4.3zm-.4-10.3.4-.4c.4.3 1 .8 1.7 1.4l-.5.5c-.4-.5-1-1-1.6-1.5zm2.5.3h1.7v-1h.6v1h3.5v-1h.6v1h1.8v.5h-1.8v1.4h-2v1h3.2v2h-3.2v.9h3.3v.5h-3.4c0 .3-.1.6-.1.9h4v.5h-3.7c.7.9 1.9 1.5 3.8 1.7-.1.2-.2.4-.3.6-2.1-.4-3.5-1.1-4-2.1-.4 1-1.8 1.7-4 2.2-.1-.2-.2-.4-.3-.6 2.1-.4 3.4-1 3.8-1.8h-3.4v-.5h3.6c.1-.3.1-.6.2-.9h-3.3v-.5h3.4c0-.3 0-.6 0-.9h-3.2v-2h3.3v-1h-2.1v-1.4h-1.7v-.5zm1.1 3.5v1h2.7c0-.3 0-.4 0-.4 0-.1 0-.2 0-.2 0-.1 0-.2 0-.3h-2.7zm1.2-3v.9h3.5v-.9zm4.7 3h-2.6v.6.4h2.6z" fill="#fbfcfa"/><path d="m393.6 386.7h.6v1.5h2.7v6.1h1.1v.6h-11v-.6h1.1v-6.1h2.7v-1.5h.6v1.5h2.1v-1.5zm-2.7 8.8.4.6c-1.2.6-2.5 1.3-3.8 1.9-.1-.2-.2-.4-.3-.6 1.2-.6 2.5-1.2 3.7-1.9zm-2.2-6.7v2.4h2.1v-2.4zm0 3v2.5h2.1v-2.5zm2.8-3v2.4h2.1v-2.4zm0 3v2.5h2.1v-2.5zm6 6.1c-1.4-.7-2.7-1.3-3.9-1.8l.3-.6c1.5.6 2.7 1.2 3.9 1.7zm-1.2-9.1h-2.1v2.4h2.1zm-2.1 3v2.5h2.1v-2.5z" fill="#fbfcfa"/><g fill="#010101"><path d="m252.97 355.97c-3.8.17-6.06-.44-7.66-3.2-1.78-3.09-4-5.94-6.11-8.82-2.91-3.98-5.76-7.94-6.05-13.16-.06-1.15-.83-2.29-1.4-3.37-6.29-11.84-12.82-23.57-18.83-35.55-2.53-5.04-4.11-10.58-5.95-15.96-1.5-4.37-3.51-6.47-7.39-6.61-1.12-.04-2.89.6-3.31 1.45-2.12 4.37-4 8.86-5.78 13.39s-2.82 9.42-5.09 13.66c-6.42 12.01-13.18 23.86-20.12 35.58-1.61 2.72-4.37 4.85-6.87 6.93-1.28 1.06-2.74.23-2.82-1.47-.08-1.83-.13-3.88.57-5.5 8.96-20.59 14.6-42.19 19.52-64 .94-4.14 2.54-7.59 5.13-11.19 6.05-8.38 8.21-17.94 3.87-28.09-3.07-7.16-6.05-14.36-9.12-21.52-.43-1.02-.98-2.03-1.69-2.88-2.48-2.98-4.39-2.92-6.76.12-8.05 10.33-16.17 20.59-24.07 31.03-1.79 2.37-3.8 3.16-6.89 3.02 3.69-11.18 7.05-22.17 12.26-32.59 12.15-24.28 23.86-48.78 35.65-73.24.78-1.63 1.15-3.63 1.1-5.45-.65-24.27-1.31-48.55-2.2-72.81-.24-6.46-1.61-12.88-1.8-19.33-.11-3.65 1.13-7.34 1.88-11.76 5.81 4.54 8.97 9.34 9.42 15.79.26 3.79.49 7.61 1.19 11.33.46 2.42 1.74 4.69 2.65 7.03.31.81.99 1.72.83 2.44-1.82 8.31 2.02 15.79 3.2 23.66 1.14 7.61 2.16 15.29 2.45 22.97.25 6.66 2.13 12.52 6.84 16.95 15.63 14.66 26.71 32.67 37.91 50.6 8.29 13.28 13.08 27.92 15.4 43.29.71 4.73-.37 9.73-.57 14.61-.08 1.88-.01 3.77-.01 6.55-1.44-.89-2.89-1.29-3.51-2.23-3.83-5.88-7.72-11.74-11.09-17.89-3.22-5.87-5.4-12.33-8.88-18.02-2.05-3.36-5.58-5.88-8.7-8.47-1.42-1.18-2.98-.73-4.09 1.19-6.93 11.94-12.98 24.23-15.73 37.91-.71 3.54-.6 6.83.64 10.43 3.07 8.9 8.12 16.63 13.01 24.51.72 1.16 1.58 2.8 1.28 3.93-.82 3.08.66 4.59 3 5.8 2.78 1.43 4.03 3.73 4.83 6.73 4.05 15.22 8.22 30.42 12.58 45.55 1.42 4.92 3.81 9.56 5.22 14.48 1.14 3.89 1.4 7.99 2.06 12.18zm-31.72-178.66c-.8-2.46-1.99-4.56-2.08-6.7-.36-8.73-4.5-15.13-11.3-20.25-1.26-.95-1.75-2.95-2.51-4.51-.59-1.19-.89-3.35-1.61-3.48-1.23-.22-2.94.49-4.01 1.35-6 4.85-9.96 11.09-11.92 18.56-1.86 7.06-4.22 13.9-8.91 19.67-4.3 5.29-4.38 5.43-.66 11.21 1.21 1.87 2.58 3.65 4.03 5.34 4.06 4.76 8.26 9.4 12.29 14.18 2.99 3.55 5.99 3.33 7.66-1 1.09-2.82 2.71-4.69 5.58-5.67 1.79-.61 3.39-1.76 5.18-2.35 2.59-.84 3.79-2.72 4.1-5.15.28-2.19.76-4.68.02-6.61-2.32-6.02-.6-10.65 4.14-14.59z"/><path d="m257.66 374.08c-1.8.2-3.42.39-5.02.57-1.94-8.36-1.61-10.46 2.14-13.18 2.97 3.71 3.96 7.81 2.88 12.61z"/></g></svg>