<svg enable-background="new 0 0 400 400" viewBox="0 0 400 400" xmlns="http://www.w3.org/2000/svg"><path d="m374.8 390.4.4-.4c.7.5 1.3 1 1.8 1.4l-.5.5c-.5-.6-1.1-1.1-1.7-1.5zm1 7.3-.6-.3c.5-1.4 1.1-2.8 1.5-4.3.2.1.4.2.6.3-.5 1.3-1 2.8-1.5 4.3zm-.4-10.3.4-.4c.4.3 1 .8 1.7 1.4l-.5.5c-.4-.5-1-1-1.6-1.5zm2.5.3h1.7v-1h.6v1h3.5v-1h.6v1h1.8v.5h-1.8v1.4h-2v1h3.2v2h-3.2v.9h3.3v.5h-3.4c0 .3-.1.6-.1.9h4v.5h-3.7c.7.9 1.9 1.5 3.8 1.7-.1.2-.2.4-.3.6-2.1-.4-3.5-1.1-4-2.1-.4 1-1.8 1.7-4 2.2-.1-.2-.2-.4-.3-.6 2.1-.4 3.4-1 3.8-1.8h-3.4v-.5h3.6c.1-.3.1-.6.2-.9h-3.3v-.5h3.4c0-.3 0-.6 0-.9h-3.2v-2h3.3v-1h-2.1v-1.4h-1.7v-.5zm1.1 3.5v1h2.7c0-.3 0-.4 0-.4 0-.1 0-.2 0-.2 0-.1 0-.2 0-.3h-2.7zm1.2-3v.9h3.5v-.9zm4.7 3h-2.6v.6.4h2.6z" fill="#fbfcfa"/><path d="m393.6 386.7h.6v1.5h2.7v6.1h1.1v.6h-11v-.6h1.1v-6.1h2.7v-1.5h.6v1.5h2.1v-1.5zm-2.7 8.8.4.6c-1.2.6-2.5 1.3-3.8 1.9-.1-.2-.2-.4-.3-.6 1.2-.6 2.5-1.2 3.7-1.9zm-2.2-6.7v2.4h2.1v-2.4zm0 3v2.5h2.1v-2.5zm2.8-3v2.4h2.1v-2.4zm0 3v2.5h2.1v-2.5zm6 6.1c-1.4-.7-2.7-1.3-3.9-1.8l.3-.6c1.5.6 2.7 1.2 3.9 1.7zm-1.2-9.1h-2.1v2.4h2.1zm-2.1 3v2.5h2.1v-2.5z" fill="#fbfcfa"/><g fill="#010106"><path d="m198.34 274.07c-4.37 7.47-9.37 14.48-12.71 22.21-2.42 5.61-2.73 12.16-3.84 18.31-3.23 17.93-6.39 35.88-9.59 53.82-.13.75-.38 1.49-.56 2.16-.4.06-.62.15-.81.11-6.57-1.5-6.51-1.5-6.3-8.32.93-30.19 8.46-58.98 18.47-87.24.51-1.44 1.49-2.74 2.37-4.01 2.35-3.39 4.76-6.74 7.17-10.13-5.01-4.5-10.09-8.69-14.75-13.31-8.74-8.67-16.97-17.86-25.91-26.31-5.65-5.34-12.16-9.76-18.35-14.52-2.2-1.69-3.69-1.15-5.28 1.35-5.83 9.18-13.09 12.34-22.76 10 1.17-1.76 2.09-3.52 3.36-4.97 25.51-29.14 51.05-58.25 76.64-87.32 1.28-1.45 1.76-2.74.87-4.44-3.25-6.15-2.9-11.94 1.12-17.76 3.18-4.6 1.46-9.82.6-14.69-1.38-7.81-3.56-15.47-4.86-23.29-2.04-12.31.96-23.98 5.43-35.36.65-1.66 1.44-3.26 2.32-5.24 5.55 4.62 9.56 10.12 12.52 16.45 5.3 11.34 4.2 23.02 2.21 34.88-2.32 13.85-2.58 27.81 3.32 40.88 2.52 5.57 6.55 10.72 10.8 15.21 12.92 13.64 26.33 26.8 39.44 40.27 11.04 11.34 20.39 23.96 28.24 38.17-5.33-.44-9.84-1.81-13.93-4.82-3.86-2.84-8-5.31-12.24-8.08-5.68 7.38-11.4 14.53-16.82 21.91-8.13 11.09-16.25 22.19-23.91 33.6-2.42 3.6-3.43 8.19-4.84 12.4-.33.97-.04 2.59.62 3.38 10.13 12.27 16.31 26.64 22.04 41.23 5.08 12.92 9.28 26.1 11.51 39.86 1.39 8.63 1.39 18.1-.26 23.61-6.18-.48-9.12-2.88-10.77-8.45-6.01-20.36-11.78-40.79-18.32-60.98-2.31-7.13-6.26-13.81-10.01-20.38-2.67-4.68-6.68-8.31-12.23-10.19zm-53.05-82.03c.42.57.65.95.94 1.27 15.7 17.48 31.37 35 47.2 52.37 1.19 1.31 3.41 2.13 5.24 2.31 7.81.79 13.79-3.12 18.14-8.93 6.89-9.21 12.78-19.17 19.71-28.35 5.76-7.63 9.83-15.85 12.41-24.99.68-2.42.63-4.34-.99-6.16-4.61-5.17-8.99-10.58-13.93-15.42-10.79-10.57-21.83-20.88-34.52-29.24-2.08-1.37-3.31-1.21-4.99.75-10.81 12.55-21.77 24.97-32.67 37.43-5.52 6.31-11.01 12.61-16.54 18.96z"/><path d="m181 175.25c7.19.75 10.51 4.26 12.13 11.14.99 4.2 2.45 8.3 3.96 12.35.6 1.61 1.91 2.96 3.3 5.03 3.23-9.74 6.26-18.87 9.46-28.52 4.39 4.22 7.41 8.89 8.03 14.48.58 5.27.11 10.67-.02 16.01-.02.8-.51 1.74-1.07 2.35-7.3 8.02-17.87 9.81-26.67 3.8-6.03-4.12-9.68-10.41-10.02-17.79-.29-6.19.55-12.42.9-18.85z"/></g></svg>