<svg enable-background="new 0 0 400 400" viewBox="0 0 400 400" xmlns="http://www.w3.org/2000/svg"><path d="m47.42 320.79c11.43-7.6 23.3-11.92 35.4-15.56 10.78-3.25 20.88-7.78 30.49-13.61 8.21-4.98 16.81-9.31 24.91-14.44 2.52-1.6 4.61-4.64 5.74-7.48 1.39-3.5.53-6.98-2.42-10.09-17.8-18.75-35.39-37.7-53.17-56.47-1.12-1.18-3.16-2-4.82-2.08-8.28-.36-16.23 1.43-23.84 4.61-9.57 4-18.95 3.54-28.28-.71-3.04-1.38-6.11-2.68-9.34-4.09.51-2.55 1.27-4.93 1.4-7.33.27-4.88 3.08-7.24 7.24-9.22 17.38-8.23 35.69-13.76 54.3-18.1 19.68-4.6 39.62-8.11 59.4-12.32 5.43-1.16 10.83-2.78 16-4.83 5.09-2.02 6.12-5.89 2.6-10.18-4.41-5.38-5.72-11.23-5.41-18.02.41-8.94.22-17.91.02-26.86-.05-2.34-.76-4.8-1.74-6.95-1.71-3.76-3.67-7.43-5.9-10.91-1.71-2.67-.97-4.4 1.34-5.82 3.51-2.17 7.1-4.23 10.7-6.24 1.65-.92 3.44-1.61 5.15-2.43 4.24-2.03 8.29-4.01 13.34-1.83 5.64 2.44 10.34 5.91 12.3 11.63 1.89 5.53 3.06 11.43 3.6 17.26 1.28 13.95 1.14 27.93-.45 41.9-.69 6.06 3.05 8.84 9.15 7.33 8.57-2.12 17.15-4.21 25.74-6.22 7.36-1.72 14.73-3.06 21.96.65.46.24 1.44.17 1.79-.17 5.06-4.91 11.6-5.91 18.04-5.97 9.8-.09 19.65.34 29.41 1.26 5.78.55 8.06 6.06 5.05 10.97-.74 1.2-2.5 2.15-3.95 2.49-19.29 4.39-38.55 9-57.96 12.79-10.39 2.03-16.53 8.18-19.7 17.43-1.92 5.63-2.33 11.78-3.29 17.72-1.05 6.51-1.69 13.1-3.04 19.55-.61 2.91-2.48 5.55-3.82 8.3-.62 1.28-1.74 2.46-1.94 3.79-1.6 10.82-5.83 20.55-11.9 29.56-.74 1.09-1.29 2.31-1.98 3.57 10.71 10.04 23.08 16.67 37.03 20.46 11.65 3.16 23.42 5.94 34.89 9.66 10.61 3.44 20.91 7.83 31.29 11.96 20.98 8.34 41.91 16.78 62.86 25.18 2.81 1.13 6.68 7.62 6.08 10.45-.14.65-.86 1.44-1.49 1.66-3.11 1.08-6.23 2.62-9.42 2.8-5.11.29-9.92 1.13-14.57 3.31-8.51 4-17.52 4.25-26.62 2.9-15.88-2.35-31.82-4.39-47.59-7.32-20.29-3.78-39.18-11.26-56.69-22.45-12.8-8.18-26.26-15.35-39.35-23.08-2.06-1.22-3.74-1.4-5.86-.32-2.28 1.16-4.74 1.97-7.14 2.89-9.79 3.77-18.88 8.25-27.08 15.37-13.97 12.12-30.72 19.43-49.1 22.5-10.21 1.7-20.38 1.08-30.13-2.29-3.31-1.13-5.93-4.13-9.23-6.56zm150.49-136.65c.1-8.06-5.96-12.54-12.88-11.16-12.6 2.51-25.21 5.01-37.87 7.17-12.72 2.16-24.74 5.89-35.4 13.45-2.51 1.78-2.92 3.28-1.51 6 4.27 8.23 10.72 14.2 18.56 18.88 7.58 4.52 15.53 8.57 22.56 13.83 5.95 4.45 12.35 6.9 19.35 8.56 1.82.43 2.79.23 3.87-1.35 5.04-7.4 10.22-14.69 15.29-22.06.6-.88 1.17-2 1.18-3.02.09-8.18 2.54-15.84 5.01-23.51.86-2.64 1.46-5.37 1.84-6.79z" fill="#010000"/><g fill="#fbfcfa"><path d="m361.2 9.6.8-1c.9.7 1.9 1.4 2.9 2.3l-.9 1.1c-1-1-2-1.8-2.8-2.4zm.5 10.6c.9-2.1 1.6-4.3 2.3-6.7.4.2.8.4 1.3.6-.7 2.1-1.5 4.3-2.2 6.6zm.4-15.2.9-.9c1 .8 2 1.6 2.8 2.4l-1 1c-.9-.9-1.8-1.7-2.7-2.5zm12.5-1.2h1.2v1.4h2.7v1.1h-2.7v2.7h-1.2v-.6h-1.8v1.3h4.9v3.8h-1.2v-.5h-3.7c0 .4-.1.9-.1 1.2h5.1v1h-5.2c0 .5-.1.9-.2 1.2h6v1h-5.2c1.1 1.3 2.9 2 5.5 2.2-.4.4-.7.8-.9 1.3-2.9-.5-4.8-1.6-5.7-3.5h-.1c-.8 1.7-2.7 2.9-5.9 3.6-.2-.4-.6-.8-.9-1.1 2.8-.6 4.6-1.4 5.4-2.5h-4.8v-1h5.3c.1-.3.2-.7.2-1.2h-4.9v-1h5c0-.4 0-.8.1-1.2h-3.5v.5h-1.2v-3.8h4.9v-1.3h-1.8v.5h-1.2v-2.7h-2.7v-1h2.6v-1.4h1.2v1.4h4.7v-1.4zm-6.6 8.3h3.6c0-.4 0-.9 0-1.4h-3.6zm1.9-4.6h4.7v-1.3h-4.7zm6.6 3.2h-3.7v1.4h3.7z"/><path d="m385.3 3.8h1.3v2.2h2.8v-2.2h1.3v2.2h4.1v9.1h1.7v1.3h-16.9v-1.3h1.7v-9.1h4.1v-2.2zm.4 13.1.7 1.2c-1.8.9-3.8 1.9-6 2.9-.2-.4-.5-.8-.8-1.3 2.3-1 4.3-1.9 6.1-2.8zm-3.1-6.4h2.8v-3.2h-2.8zm0 4.6h2.8v-3.3h-2.8zm4-4.6h2.8v-3.2h-2.8zm0 4.6h2.8v-3.3h-2.8zm3.7 1.9c2.1.9 4.1 1.8 6.1 2.7l-.7 1.3c-2.2-1.1-4.2-2-6.1-2.9zm3.2-9.7h-2.8v3.2h2.8zm-2.8 7.8h2.8v-3.3h-2.8z"/></g></svg>