<svg enable-background="new 0 0 400 400" viewBox="0 0 400 400" xmlns="http://www.w3.org/2000/svg"><path d="m374.8 390.4.4-.4c.7.5 1.3 1 1.8 1.4l-.5.5c-.5-.6-1.1-1.1-1.7-1.5zm1 7.3-.6-.3c.5-1.4 1.1-2.8 1.5-4.3.2.1.4.2.6.3-.5 1.3-1 2.8-1.5 4.3zm-.4-10.3.4-.4c.4.3 1 .8 1.7 1.4l-.5.5c-.4-.5-1-1-1.6-1.5zm2.5.3h1.7v-1h.6v1h3.5v-1h.6v1h1.8v.5h-1.8v1.4h-2v1h3.2v2h-3.2v.9h3.3v.5h-3.4c0 .3-.1.6-.1.9h4v.5h-3.7c.7.9 1.9 1.5 3.8 1.7-.1.2-.2.4-.3.6-2.1-.4-3.5-1.1-4-2.1-.4 1-1.8 1.7-4 2.2-.1-.2-.2-.4-.3-.6 2.1-.4 3.4-1 3.8-1.8h-3.4v-.5h3.6c.1-.3.1-.6.2-.9h-3.3v-.5h3.4c0-.3 0-.6 0-.9h-3.2v-2h3.3v-1h-2.1v-1.4h-1.7v-.5zm1.1 3.5v1h2.7c0-.3 0-.4 0-.4 0-.1 0-.2 0-.2 0-.1 0-.2 0-.3h-2.7zm1.2-3v.9h3.5v-.9zm4.7 3h-2.6v.6.4h2.6z" fill="#fbfcfa"/><path d="m393.6 386.7h.6v1.5h2.7v6.1h1.1v.6h-11v-.6h1.1v-6.1h2.7v-1.5h.6v1.5h2.1v-1.5zm-2.7 8.8.4.6c-1.2.6-2.5 1.3-3.8 1.9-.1-.2-.2-.4-.3-.6 1.2-.6 2.5-1.2 3.7-1.9zm-2.2-6.7v2.4h2.1v-2.4zm0 3v2.5h2.1v-2.5zm2.8-3v2.4h2.1v-2.4zm0 3v2.5h2.1v-2.5zm6 6.1c-1.4-.7-2.7-1.3-3.9-1.8l.3-.6c1.5.6 2.7 1.2 3.9 1.7zm-1.2-9.1h-2.1v2.4h2.1zm-2.1 3v2.5h2.1v-2.5z" fill="#fbfcfa"/><g fill="#010106"><path d="m196.41 25.21c4.9 1.05 8.67 4.66 11.44 9.23 2.36 3.9 4.21 8.12 6.12 12.27 1.68 3.65 3.14 7.4 4.71 11.11 3.8 8.93 8.66 17.11 15.93 23.76 9.24 8.44 16.58 18.37 22.74 29.26 4.24 7.49 9.07 14.64 13.44 22.06 1.4 2.37 3.06 4.07 5.74 4.62 2.56.52 3.59 2.17 4.11 4.59 1.79 8.31.79 16.53-1.1 24.61-3.5 15.01-7.08 30.02-11.26 44.86-1.49 5.28-4.71 10.09-7.29 15.04-11.39 21.79-22.97 43.47-34.2 65.34-5.45 10.62-12.68 19.66-21.59 27.48-2.17 1.9-4.05 4.13-6.33 6.47 3.69 2.76 7.37 5.46 10.98 8.24 8.42 6.47 16.72 13.11 27.16 16.23.99.3 2.07 1.05 2.64 1.91 3.26 4.93 6.45 9.91 9.51 14.96 1.55 2.55.89 4.37-1.96 5.84-6.94 3.55-13.38 2.25-20.58-4.7-4.27-4.12-8.63-8.18-12.55-12.61-7.17-8.11-16.59-13.14-25.47-19.49-1.06 1.14-1.99 2.22-3 3.22-7.09 6.99-13.99 14.18-21.35 20.88-6.59 6-14.52 9.6-23.49 10.49-1.25.12-2.58-.53-3.87-.83.64-1.05 1.1-2.3 1.96-3.12 13.13-12.5 26.28-24.98 39.54-37.35 1.87-1.74 2.58-3.08.87-5.24-3.46-4.36-6.61-8.97-10.26-13.16-21.01-24.1-33.9-52.38-42.9-82.7-6.68-22.49-10.86-45.43-12.54-68.82-.71-9.93.83-19.64 4.37-28.97.52-1.38 1.75-2.54 2.8-3.65 22.17-23.3 43.16-47.59 60.72-74.61 5.59-8.58 9.92-17.95 14.96-27.22zm70.51 129.15c-.16-.69-.3-1.23-.4-1.78-2.26-12.03-7.43-22.82-15.24-32.06-12.7-15.02-25.89-29.64-39-44.32-3.82-4.28-8.78-6.91-14.51-7.71-1.22-.17-2.93.2-3.79.99-6.58 6.06-13.38 11.94-19.4 18.54-12.14 13.3-23.66 27.16-35.78 40.48-4.73 5.2-8.26 10.9-11.52 17.07-4.21 7.97-4.54 16.01-2.8 24.39 2.15 10.39 5.14 20.62 6.84 31.07 3.98 24.5 10.93 47.86 23.68 69.35 8.98 15.13 18.39 29.9 30.28 42.98 1.94 2.13 4.01 2.7 6.14 1.41 2.89-1.76 6.08-3.63 8.01-6.29 11.23-15.47 22.14-31.19 33.13-46.84.7-1 1.23-2.13 1.7-3.27 5.16-12.48 10.51-24.88 15.36-37.48 3.24-8.42 6.15-17.01 8.49-25.72 2.37-8.84 3.84-17.91 5.74-26.88.97-4.69 2.05-9.37 3.07-13.93z"/><path d="m170.48 106.86c5.91.77 10.03 3.85 11.93 8.95 2.4 6.46 4.06 13.2 5.84 19.88.25.94-.49 2.29-1.07 3.28-3.23 5.5-7.71 9.84-12.95 13.38-1.98 1.34-2.6 2.91-2.63 5.28-.03 2.49-.67 5.03-1.4 7.44-1.11 3.63-2.43 7.2-3.83 10.72-3.77 9.46-.68 17.98 3.5 26.35.35.71 1.23 1.19 1.94 1.67.45.31 1.03.42 1.55.61 20.97 7.62 17.8 7.07 40.08-1.99.69-.28 1.44-.76 1.83-1.36 5.39-8.26 9.36-16.87 6.43-27.11-2.12-7.41-4.15-14.85-6.37-22.22-.39-1.29-1.34-2.59-2.39-3.46-5.67-4.71-7.47-10.69-6.08-17.74 1.07-5.44 2.86-10.52 7.35-14.29 2.45-2.06 4.55-4.53 7.24-7.26.77 6.12 1.74 11.63 2.12 17.17.67 9.96 4.86 19.01 6.96 28.58 1.6 7.3 3.13 14.65 4.16 22.04 1.82 13.07-2.48 24.61-9.41 35.5-1.43 2.25-2.59 5.68-1.97 8.08 3.6 13.98.34 26.8-5.54 39.34-3.74 7.97-8.52 14.98-16.98 18.65-.2.09-.39.21-.6.3-6.42 2.68-7.82 2.49-12.32-2.67-12.39-14.19-20.35-30.34-21.77-49.42-.19-2.57-1.13-5.21-2.28-7.55-2.45-5.02-5.68-9.68-7.81-14.82-2.02-4.88-3.67-10.09-4.4-15.31-2.08-14.93.92-29.08 7.53-42.59 5.64-11.52 9.35-23.67 10.74-36.48.11-.84.35-1.7.6-2.95zm10.78 126.88c-.34.04-.67.07-1.01.11 1.44 5.21 2.56 10.54 4.42 15.6 1.72 4.68 4.31 9.04 6.37 13.61 1.45 3.21 5.19 4.54 7.78 2.18 2.36-2.14 5.06-4.55 6.09-7.4 2.55-7.09 4.48-14.44 6.19-21.8 1.06-4.56-.89-7.78-5.24-9.69-7.06-3.1-13.97-3.74-21 .69-2.76 1.74-4.83 3.04-3.6 6.7z"/></g></svg>