<svg viewBox="0 0 400 400" xmlns="http://www.w3.org/2000/svg"><rect width="400" height="400" fill="white" /><g fill="#fafafb"><path d="m12.4 4.8-6.1 9h6v1.2h-8v-.5l6.1-8.9h-5.7v-1.2h7.6v.4z"/><path d="m14 15v-10.6h3c1.6 0 2.9.5 4 1.4s1.6 2.2 1.6 3.8-.5 3-1.6 3.9-2.4 1.5-4 1.5zm1.4-9.4v8.2h1.6c1.3 0 2.4-.4 3.1-1.1s1.1-1.8 1.1-3.1-.4-2.3-1.2-3-1.8-1-3.1-1z"/><path d="m26.1 4.4v10.6h-1.4v-10.6z"/><path d="m36.1 14.6c-.8.4-1.8.6-2.9.6-1.5 0-2.7-.5-3.6-1.4s-1.4-2.2-1.4-3.8c0-1.7.5-3.1 1.5-4.1s2.3-1.6 3.9-1.6c1 0 1.8.1 2.5.4v1.4c-.8-.4-1.6-.6-2.5-.6-1.2 0-2.1.4-2.9 1.2s-1.1 1.8-1.1 3.2c0 1.3.3 2.3 1 3s1.6 1.1 2.7 1.1c1 0 2-.2 2.7-.7v1.3z"/><path d="m37.6 14.3c0-.2.1-.5.3-.6s.4-.3.6-.3c.3 0 .5.1.6.3s.3.4.3.6-.1.4-.3.6-.4.3-.6.3c-.3 0-.5-.1-.6-.3s-.3-.4-.3-.6z"/><path d="m50.2 15h-1.6l-5.3-8.2c-.2-.2-.3-.5-.4-.7 0 .2.1.7.1 1.5v7.4h-1.4v-10.6h1.7l5.2 8.1c.2.4.4.6.4.7 0-.3-.1-.8-.1-1.5v-7.3h1.4z"/><path d="m58.6 15h-5.7v-10.6h5.5v1.2h-4.1v3.4h3.8v1.2h-3.8v3.6h4.3z"/><path d="m67.1 5.6h-3.1v9.4h-1.4v-9.4h-3v-1.2h7.5z"/></g><path d="m371.23 353.74c-116.05 0-232.09 0-348.51 0 0-2.74-.01-5.04 0-7.35.04-6.46.13-12.92.13-19.38.01-9.85.06-19.69-.08-29.54-.16-11.73-.53-23.46-.74-35.2-.04-2.32.35-4.65.38-6.97.03-3.06-.08-6.12-.2-9.17-.04-.99-.49-1.98-.46-2.97.22-8.28.39-16.56.85-24.82.13-2.33 1.19-4.6 1.57-5.95-.73-2.21-1.68-3.79-1.71-5.39-.16-7.72-.02-15.45-.1-23.18-.03-3.17-.27-6.31 3.12-8.24-1.03-1.43-1.87-2.59-2.42-3.34 2.04-2.31 3.99-4.54 5.95-6.76-.27-.45-.53-.9-.8-1.35-1.62.32-3.25.65-5.61 1.12.88-.88 1.64-1.32 1.89-1.96.4-1.03.9-3.03.62-3.18-3.88-1.99-2.38-4.32-1.27-5.73-1.2-7.21-2.35-13.49-.6-19.89.31-1.14 1.57-2.02 2.38-3.01-4.12-3.78-2.95-9.4-3.29-14.05-.33-4.5-.46-9.91 3.2-14.03-4.89-5.39-3.68-11.69-2.72-18.03.26-1.71-.21-3.54-.4-5.31-.08-.75-.45-1.49-.42-2.22.1-2.39.31-4.78.45-6.73 2.74-2.63 5.5-5.27 8.7-8.33-1.68-1.24-2.56-1.89-2.86-2.11.27-2.13.47-3.71.75-5.89-2.58 1.81-4.43 3.11-6.27 4.4-.37-.38-.74-.77-1.11-1.15 1.08-1.43 2.15-2.86 3.38-4.5-.4-.45-1.21-1.01-1.51-1.76-.51-1.29-1.19-2.85-.83-4 .23-.75 2.18-1.35 3.35-1.35 17.91-.05 35.82-.01 53.73.08 3.13.02 6.25.56 9.37.62 16.48.31 32.96.61 49.44.79 20.92.23 41.85.33 62.78.49 1.01.01 2.1-.14 2.99.2.95.36 1.91 1.1 2.43 1.94.22.36-.61 1.45-1.08 2.12-.61.88-1.34 1.69-2.02 2.52.12.31.25.63.37.94.96-.21 2.34-.09 2.82-.68 2.43-2.99 3.87-1.54 5.35 1.29.68-.94 1.21-1.67 1.42-1.96-.78-1.76-1.39-3.14-2-4.52.23-.16.47-.31.7-.47 1.42.82 2.83 1.65 5.07 2.95-.2-1.83-.33-3-.48-4.35h19.99c11.2 0 22.39-.06 33.59.07 1.54.02 3.06.98 5.08 1.67 1.15-2.2 3.95-1.74 6.73-1.44 20.77 2.28 41.58.84 62.38.71 8.25-.05 16.5-.01 25.13-.01.3 8.67 1.39 17.43.7 26.04-.88 11.01-.54 21.86.66 32.78.2 1.79-.52 3.67-.79 5.51-.22 1.51-.6 3.03-.56 4.53.21 9.15.57 18.3.76 27.45.11 5.34-.06 10.68-.05 16.02.06 26.53.14 53.07.2 79.6.02 11.08.13 22.17-.06 33.25-.08 4.43-.86 8.85-1.3 13.27-.09.86-.46 2.02-.06 2.55 2.7 3.56 2.04 7.52 1.97 11.57-.22 12.07-.09 24.15-.09 36.22.02 5.25.02 10.48.02 15.57zm-243.22-147.54c-3.59-4.05-7.05-7.96-10.52-11.87.31-.05.62-.09.92-.14-.12-1.63-.3-3.25-.33-4.88-.02-1.08.26-2.15.27-3.23.04-3.08.01-6.15.01-9.15-1.77 0-2.99 0-4.81 0 1.45-1.56 2.41-2.6 3.45-3.71-1.42-1.55-2.76-3.01-4.09-4.46.3-.06.6-.13.9-.19 0-1.23.35-2.6-.07-3.67-1.19-3.01-.66-4.66 2.25-6.16 2.12-1.09 4.17-2.34 6.46-3.64 2.24 5.55 5.43-1 8.59-.31-.67 1.32-1.09 2.15-1.53 2.99 6.7 2.82 9.86 2.22 13.14-2.35 5.53 2.31 7.24 1.58 11.24-4.93 1.84 1.44 3.49 3.24 5.54 4.18 1.85.85 4.14.75 6.24 1.07.02-.24.04-.48.06-.71 1.13.47 2.25.95 3.38 1.42.2-.28.41-.57.61-.85-2.66-1.23-2.45-2.66-.46-4.46 2.36 2.1 4.66 4.15 7.18 6.39 2.16-2.23 4.15-4.29 6.14-6.35 3.5 3.6 3.47 3.57 7.28.89.53-.37 1.45-.52 2.09-.36 3.24.79 5.78-.51 7.65-2.86 1.33-1.67 2.82-1.7 4.03-.75 2.5 1.95 3.7.59 4.7-1.5 3.87 2.26 3.87 2.25 8.76 1.94.43-.03.86.16 1.29.19 1.01.09 2.29.57 2.99.13 2.25-1.41 4.16-.72 5.85.68 1.62 1.35 3.03 2.98 4.37 4.62 2.73 3.36 5.43 3.36 8.25.16.92-1.05 2.47-2.33 3.65-2.25 3.67.25 6.62-.37 8.37-5.19.73 2.28 1.13 3.54 1.55 4.85 1.91-.85 3.86-1.71 5.28-2.34.3 1.84.55 3.35.9 5.52 1.49-1.89 2.42-3.07 3.5-4.44 1.07 1.49 1.96 2.73 2.85 3.97 4.1-2.95 5.14-2.32 7.03 1.03 2.19-.8 2.97-4.27 6.12-3.7-.64 1.67-1.11 2.91-1.37 3.58 1.9.47 3.34.72 4.7 1.2 2.39.84 4.66 2.14 7.11 2.63 2.25.45 4.66.1 6.96.1-.26-1.03-.6-2.35-.94-3.68.31-.16.61-.33.92-.49 1.05 1.15 2.11 2.3 3.42 3.73 4.14-2.92 7.82-1.58 10.45 1.64 2.72-.54 4.82-.96 6.98-1.39.14-.79.31-1.71.56-3.09 1.75 1.52 3.13 2.8 4.6 3.96 1.75 1.38 2.95.89 3.11-1.32.16-2.18.03-4.39.03-7.49-3.17 3.52-5.59 3.07-7.22.8-1.76.08-3.05.5-3.99.1-2.04-.87-3.6-.49-5.16.91-.71.64-1.59 1.08-2.46 1.67-3.34-3.67-6.49-7.13-9.26-10.18-1.84.35-3.5 1.22-4.59.76-2.37-1.01-4.37-1.41-6.35.75-2.66-1.9-5.18-3.71-7.76-5.55-2.64 1.88-5.17 3.68-7.7 5.48-.07-.35-.15-.7-.22-1.05-1.53.07-3.14-.12-4.58.27-4.37 1.18-6.56-1.83-8.75-4.15-1.41.33-2.87 1.19-3.73.78-2.33-1.11-4.4-2.09-6.74-.14-.29.24-1.27.17-1.49-.11-2.09-2.56-4.4-1.78-6.87-.25-.39-1.42-.69-2.55-1.05-3.87-1.21.32-2.24.6-3.8 1.02.62-1.72 1.09-3.07 1.78-4.99-2.39 1.84-4.27 3.57-6.41.64-.29-.4-1.65-.1-2.5.02-2.25.31-4.49.69-6.88 1.06-.18.61-.49 1.62-.84 2.79-4.3-1.81-9.76.88-12.54-4.69-3.58 3.52-5.33-.3-7.68-1.34-4.73 3.28-4.73 3.28-8.16-.15-1.94 2.12-3.88 4.25-5.82 6.37-1.53-.73-2.82-1.34-4.31-2.05-1.43 2.87-3.36 2.43-5.47.87-1.17-.86-2.32-1.8-3.61-2.44-.77-.39-2.11-.71-2.66-.32-2.81 2.01-4.52.46-6.2-1.57-1.07-1.29-2.17-2.55-3.14-3.68-1.85.74-3.54 1.41-5.24 2.09-.08-.28-.16-.57-.24-.85 1.11-1.48 2.22-2.97 3.33-4.45-.36-.32-.71-.63-1.07-.95-2.12 1.58-4.23 3.15-6.35 4.73-2.09 1.55-4.19 3.1-6.79 5.02-.17-2.05-.26-3.22-.29-3.56-1.98-.29-4.25.06-5.18-.9-2.87-2.94-7.85-5.4-3.94-10.59-2.76-1.02-5.16-1.91-7.85-2.91-5.29 3.9-5.71 4.6-4.13 7.08 1.12-.35 2.23-.7 3.69-1.16-2.31 4.16-2.18 4.75 1.22 7.19-1.43 1.5-2.88 3.02-4.75 4.97-1.24-1.34-2.85-2.48-3.66-4.04-2.68-5.12-5.15-5.83-10-2.5-1.16.8-2.36 1.54-3.51 2.28-3.85-4.41-4.05-4.42-8.15-.52-.5-.41-1.02-.83-1.52-1.26-2.61-2.25-4.78-6.07-9.03-2.47-.14.12-.84-.43-1.37-.72.9-.78 1.62-1.41 2.39-2.07-.64-.95-1.17-1.73-1.83-2.7-2.51 2.79-4.77 5.41-7.16 7.91-.6.62-1.94 1.42-2.39 1.17-4.27-2.45-6.71 1.16-10.2 2.66 2.46 2.71 4.67 5.16 6.1 6.74-.26 2.54-.42 4.09-.6 5.86 2.04-.6 3.15-.92 4.45-1.3.16 1.44.28 2.5.39 3.52 1.09.12 2 .22 2.76.3-.33 1.36-.6 2.46-.9 3.7 1.58-.74 2.67-1.24 3.76-1.75.51 1.83 1.02 3.67 1.56 5.6.49-.21 1.3-.54 2.16-.9 1.17 2.21 1.24 5.37 4.86 4 0 2.68.5 5.16-.14 7.31-.66 2.25-1.67 4.19.02 6.33.12.15.16.48.08.65-2.2 4.52 1.22 6.63 3.66 9.23.77-.51 1.33-.88 2.07-1.37-.13 1.29-.22 2.21-.27 2.67 1.43.99 2.54 1.66 3.53 2.47 1.01.82 1.91 1.77 2.86 2.66.17-.16.34-.31.51-.47 1.01 3.2 2.02 6.4 3.14 9.93.55.11 1.47.29 2.38.47-.29.16-.59.32-.88.48.89 2.88 1.7 5.79 2.74 8.61.2.54 1.32.71 1.96 1.13.85.56 2.03 1.04 2.38 1.85.69 1.62 1.06 3.41 1.27 5.17.37 3.08.94 5.98 3.62 7.25-.36 4.32-.71 8.27-.98 12.22-.02.32.54.66.81 1.01 1.31 1.64 2.52 3.39 3.96 4.91 1.31 1.38 2.75 2.73 4.37 3.71 2.13 1.29 3.34 4.11 2.49 6.43-.26.7-.04 1.57-.04 2.61 1.34-.62 2.16-1 2.45-1.13 1.24 3.15 2.4 6.09 3.64 9.26 1.88-1.32 2.97-2.08 4.06-2.84.36 1-.08 1.47-.03 1.88.29 2.65-.21 6.15 1.28 7.7 1.75 1.82 4.57 2.68 5.64 5.45.46 1.19 1.09 2.31 1.68 3.44.38.72.72 1.53 1.29 2.08 1.03.99 2.22 1.82 3.57 2.89 1.65-1.22 2.59-.38 2.53 2.07-.03 1.11-.56 2.33-.26 3.31.47 1.55 1.1 3.62 2.3 4.26 2.02 1.07 2.1 2.13 1.58 3.98-.78 2.75-.1 5.02 2.54 6.58 1.63.97 3.16 2.13 4.62 3.34 4 3.33 4.71 7.74 1.45 10.26 1.26 1.16 2.33 2.7 3.78 3.31 1.32.55 3.23.49 4.55-.08.79-.34 1.3-2.16 1.31-3.32.02-2.55-.36-5.1-.62-8.06-4-2.52-4.28-3.39-3.16-9.11.16-.83-.57-1.85-.92-2.87-1.4.67-2.37 1.12-3.83 1.82.52-1.68.89-2.88 1.33-4.28-1.14-.13-2.07-.24-4.14-.48 1.46-.66 2.14-.97 2.78-1.27-1.46-1.92-2.6-3.43-3.69-4.87 3.13-4.43 1.01-6.69-3.67-11.09 2.73-2.61 2.24-5.34-.08-7.9-1.12-1.23-2.55-2.17-3.79-3.29-3.93-3.56-7.84-7.15-11.74-10.72 2.66-3.05 2.73-5.47.22-8.46-2.01-2.4-4.54-4.36-6.45-6.82-1.23-1.57-2.12-3.61-2.54-5.57-1.19-5.55-3.58-10.2-8.6-13.37.43-.89.9-1.85 1.34-2.74-3.29-3-3.27-2.99-.77-6.22.32-.42.31-1.1.46-1.66-.55 0-1.1-.02-1.65.01-.54.04-1.08.14-2.14.29.85-1.18 1.36-1.88 2.17-2.98zm171.51-24.48c3.92-2.54 2.3-5.7 1.01-8.66-.95-2.18-3.14-2.57-4.38-.97-6.67 8.59-14.08 16.43-22.02 22.41.14 2.32.88 4.32.24 5.65-2.74 5.63-7.79 9.05-12.92 12.3-.33.21-.92.23-1.29.09-4.6-1.77-6.81 1.53-9.37 4.18 1.07 1.45 2.05 2.77 3.02 4.08-.15.26-.29.52-.44.78-2.79-3-5.12-1.06-7.44.44-.75-.86-1.38-1.58-1.95-2.24-4.88 1.28-.15 6.06-3.47 7.79 1.63 1.49 2.95 2.88 4.44 4.03 1.87 1.44 2.62 2.83.96 4.98-1.23 1.59-1.61 3.39-.21 5.25.26.34-.08 1.14-.12 1.52-1.56-.39-2.91-.73-4.25-1.07-.19.25-.39.51-.58.76 2.26 1.46 1.63 2.65.23 4.1-1.76 1.82-4.14 3.71-4.62 5.93-.5 2.33-1.53 3.45-3.22 4.58-1.55 1.04-3.01 2.23-5.02 3.74-.57-1.01-1.19-2.1-1.47-2.59-2.24-1.17-4.22-2.2-6.95-3.62-1.71 1.41-4.06 3.23-6.28 5.21-2.87 2.57-2.68 4.31.45 6.28-2.18 3.82 1.33 8.65-2.14 12.21-.06.06.36.53.47.84.26.77.46 1.55.74 2.53-1.04-.12-1.61-.18-2.21-.25-.21 1.74-.4 3.28-.58 4.75-1.11.25-2.03.45-2.95.65.26.27.51.55.77.82-1.48 1.9-2.79 3.96-4.47 5.67-3.44 3.51-3.49 3.63 2.12 6.89-1.63 1.37-3.26 2.74-4.96 4.17.49.54 1.45 1.6 2.45 2.71-.89 1.27-1.7 2.44-2.57 3.69.63.86 1.18 1.6 1.84 2.48 2.64-2.81 4.97-5.55 7.57-7.99 2.28-2.14 3.47-4.42 3.21-7.64-.09-1.1.95-2.48 1.81-3.43 1.63-1.81 3.5-3.4 5.27-5.09-.16-.2-.32-.41-.48-.61h3.23c-.2-.28-.41-.56-.61-.84 1.29-1.28 2.59-2.55 3.85-3.85.69-.71 1.42-1.42 1.95-2.25 1.62-2.53 3.25-4.95 7.23-3.57-.58-1.24-.92-1.97-1.27-2.71.31.14.61.28.92.42 1.61-2.08 3.17-4.2 4.84-6.23 2.31-2.81 4.55-5.7 7.12-8.26.94-.94 2.7-1.05 4.82-1.79.39-3.27 2.08-6.83 6.78-8.11.49-.13.82-.99 1.13-1.56 1.48-2.66 1.35-5.25-.93-7.86 4.58-2.98 6.32-6.79 4.01-10.96 2.54-1.91 4.87-3.31 6.77-5.16 2.87-2.8 5.41-5.94 8.15-8.88 1.25-1.34 2-2.46.69-4.37-.59-.85-.1-2.45-.1-3.66 1.57.7 2.61 1.17 3.64 1.63.29-1.38.58-2.76.81-3.86h7.36c-1.1-1.32-1.77-2.12-2.51-3.01 1.09-.83 1.88-1.43 2.66-2.02-.27-.18-.55-.35-.82-.53.29-1.01.31-2.24.93-2.98 3.7-4.48 7.53-8.85 11.37-13.32-.7-1.13-1.34-2.16-2.26-3.62zm-207.1-84.58c.41-.98 1.56-2.65 1.21-3.08-2.35-2.86-.25-5.17 1.01-8.14-5.84-.14-4.95 6.88-9.23 7.42 2.1 5.13-4.55 7.55-3.56 12.82 2.93-2.86 4.86-1.11 6.81.57.51.44 1.09.78 1.61 1.21 2.97 2.46 4.63-.74 6.6-1.81.59-.32.6-2.93-.01-3.97-1.1-1.85-2.88-3.31-4.44-5.02zm31.13-10.09c-2.82-3.65-3.9-8.37-8.79-10.35-1.47 2.37-4.63 3.63-4.83 7.85 1.69-1.18 2.63-1.84 4.14-2.89-.31 2.56-1.32 4.88-.59 6.36.85 1.74 3.2 2.75 4.97 4.13 1.64-1.64 3.21-3.21 5.1-5.1zm-13.83 25.57c4.2.5 8.13.91 11.63-1.74 1.67-1.26 2.83-2.53-.11-3.85-.86-.39-1.72-1.51-1.96-2.45-.68-2.67-2.35-3.56-4.96-3.48 4.77 6.29-3.51 7.28-4.6 11.52zm-18.27-33.54c.35.2.71.4 1.06.6 2.4-.98 4.79-1.95 7.45-3.04-2.14-2.39-3.97-4.42-6-6.68-1.74 2.25-5.11 2.68-5.52 6.34 1.9-.65 3.3-1.13 4.83-1.66-.72 1.77-1.27 3.11-1.82 4.44zm-50.72 35.66c1.88 1.39 2.44 5.09 6.14 4.11 1.92-.51 3.04-2.05 2.58-4.31-1.21.21-2.21.39-2.71.48-.18-2.18-.34-4.11-.52-6.37-2.02 2.25-3.55 3.94-5.49 6.09zm21.59 93.32c3.75 2.5 2.44 5.09.13 7.72.32.16.65.32.97.48 1.89-.89 3.78-1.77 5.48-2.57-.39-1.86-.85-3.31-.98-4.8-.12-1.36.11-2.75.19-4.13-1.28.63-2.59 1.23-3.85 1.91-.57.3-1.07.75-1.94 1.39zm117.35-122.49c-.2.19-.4.38-.6.58 2.58 3.36 5.15 6.72 7.73 10.08.31-.16.62-.31.92-.47-.59-1.66-1.18-3.33-1.77-4.97.97-.91 1.83-1.72 2.84-2.66-1.36-1.64-2.57-3.11-4.36-5.26v6.24c-2.01-1.51-3.39-2.53-4.76-3.54zm-16.43-28.3c3.02 1.7 5.12 1.53 6.6-.93.36-.59.34-1.9-.07-2.32-.4-.41-1.71-.4-2.3-.05-1.39.83-2.58 1.97-4.23 3.3z" fill="#010105"/></svg>