<svg viewBox="0 0 400 400" xmlns="http://www.w3.org/2000/svg"><rect width="400" height="400" fill="white" /><g fill="#fafafb"><path d="m12.4 4.8-6.1 9h6v1.2h-8v-.5l6.1-8.9h-5.7v-1.2h7.6v.4z"/><path d="m14 15v-10.6h3c1.6 0 2.9.5 4 1.4s1.6 2.2 1.6 3.8-.5 3-1.6 3.9-2.4 1.5-4 1.5zm1.4-9.4v8.2h1.6c1.3 0 2.4-.4 3.1-1.1s1.1-1.8 1.1-3.1-.4-2.3-1.2-3-1.8-1-3.1-1z"/><path d="m26.1 4.4v10.6h-1.4v-10.6z"/><path d="m36.1 14.6c-.8.4-1.8.6-2.9.6-1.5 0-2.7-.5-3.6-1.4s-1.4-2.2-1.4-3.8c0-1.7.5-3.1 1.5-4.1s2.3-1.6 3.9-1.6c1 0 1.8.1 2.5.4v1.4c-.8-.4-1.6-.6-2.5-.6-1.2 0-2.1.4-2.9 1.2s-1.1 1.8-1.1 3.2c0 1.3.3 2.3 1 3s1.6 1.1 2.7 1.1c1 0 2-.2 2.7-.7v1.3z"/><path d="m37.6 14.3c0-.2.1-.5.3-.6s.4-.3.6-.3c.3 0 .5.1.6.3s.3.4.3.6-.1.4-.3.6-.4.3-.6.3c-.3 0-.5-.1-.6-.3s-.3-.4-.3-.6z"/><path d="m50.2 15h-1.6l-5.3-8.2c-.2-.2-.3-.5-.4-.7 0 .2.1.7.1 1.5v7.4h-1.4v-10.6h1.7l5.2 8.1c.2.4.4.6.4.7 0-.3-.1-.8-.1-1.5v-7.3h1.4z"/><path d="m58.6 15h-5.7v-10.6h5.5v1.2h-4.1v3.4h3.8v1.2h-3.8v3.6h4.3z"/><path d="m67.1 5.6h-3.1v9.4h-1.4v-9.4h-3v-1.2h7.5z"/></g><path d="m371.34 327.49c-4.2-.33-7.84-.83-11.5-.88-12.05-.14-24.12.21-36.16-.26-9.53-.37-18.95-.18-28.44.8-5.5.57-11.14-.36-16.72-.46-12.07-.21-24.15-.44-36.22-.43-16.45.02-32.89.28-49.34.41-20.7.16-41.4.33-62.1.4-1.55.01-3.1-.77-4.65-1.19-.5-.13-1.01-.43-1.49-.4-4.96.33-9.91.97-14.87 1.03-25.04.28-50.09.42-75.13.6-3.9.03-7.81 0-12.02 0 0-12.3 0-24.41 0-36.3 1.73-.5 3.38-.97 5.03-1.45-.03-.39-.07-.78-.1-1.17-1.3-.29-2.6-.57-4.13-.91.8-.44 1.46-.81 2.11-1.17-3.6-1.16-4.71-13.33-2.13-15.74-.17-2.54-.38-4.47-.41-6.41-.03-1.45.5-2.97.2-4.33-2.32-10.35-.38-20.74-.45-31.1-.14-20.47-.04-40.95-.15-61.42-.16-30.44-.41-60.88-.63-91.31-.01-.88 0-1.76 0-3.03 1.36-.07 2.54-.19 3.71-.19 37.83-.01 75.66-.02 113.5.04 1.7 0 3.4.76 5.11 1.09 1.06.2 2.16.4 3.23.35 3.22-.17 6.44-.65 9.66-.68 27.06-.25 54.12-.5 81.17-.57 8.46-.02 16.92.54 25.39.74 2.9.07 5.8-.21 8.71-.23 32.67-.25 65.34-.49 98.01-.72.31 0 .63.13.81.17zm-231.12-171.92c-.52-1.77-.89-3.06-1.27-4.36.28-.09.56-.17.84-.26 1 .81 2 1.63 3.23 2.63 1.37-1.78 2.57-3.35 4.16-5.43-2.4.25-3.84.4-6.2.64 2.13-2.27 3.61-3.85 5.23-5.57 1.37 1.14 2.82 1.95 3.64 3.18.56.83.34 2.26.27 3.41-.06.9-.43 1.77-.67 2.66.92-.47 1.85-.93 3-1.52 1.02.59 2.4 1.9 3.92 2.1 1.29.17 2.76-.93 4.09-1.45-.27 1.34-.54 2.71-.96 4.82 1.71-1.2 2.67-1.87 3.68-2.58 1.41 1.18 2.7 2.25 3.97 3.34 3.21 2.74 5.35 2.56 8.02-.76.6-.74 1.06-1.6 1.56-2.37 1.89 1.19 3.62 2.28 5.17 3.26.95-1.31 1.63-2.26 2.32-3.21.29.19.58.37.87.56-.38.96-.76 1.92-1.2 3.04 1.18-.33 2.61-1.07 2.89-.76 2.41 2.67 5.12 2.09 7.96 1.13.07-.02.26.31.52.62-.61.96-1.26 1.96-1.95 3.04.48.28 1.04.78 1.21.67 3.6-2.32 5.37 1.01 7.95 2.27 2.51 1.23 6.09 2.9 8.12 1.98 4.91-2.23 9.69-.87 14.49-1.13 1.98-.11 4.01.48 5.96.25 2.42-.29 4.78-1.09 7.28-1.71-.06-.33-.21-1.23-.29-1.69h6.92c.17.53.46 1.46.76 2.39.21-.28.43-.57.64-.85 3.03 1.97 6.05 3.94 9.86 6.43-.31-2.14-.56-3.85-.83-5.73 2.09 1.91 3.01-.17 4.12-1.58 4.54-5.81 9.05-11.64 13.54-17.48.15-.19-.02-.62-.04-1.03-1.51.09-2.98.19-5.07.32.94-1.53 1.44-2.35 1.99-3.26-2.06-2.96-4.07-5.86-5.29-7.62-8 0-14.83 0-21.66 0-.01-.29-.02-.57-.03-.86-1.29.85-2.59 1.71-4.03 2.66-1.68-1.37-3.24-2.79-4.98-3.99-.71-.49-1.76-.65-2.66-.65-2.81-.02-5.62.12-8.44.13-.38 0-.82-.36-1.14-.66-1.35-1.29-2.57-.93-4.21-.32-1.29.48-3.42.37-4.44-.42-1.89-1.46-3.25-3.61-5.05-5.73.12-.28.54-1.25 1.12-2.61-3.69-1.26-8.03-1.8-7.43-6.62-3.51-.95-6.6-1.79-10.31-2.79-.08-.11-.69-.93-1.29-1.76-.11.33-.22.67-.33 1-1.69.19-3.38.38-5.24.59v8.84c-2.98 3.44-6.59 7.6-9.99 11.53-5.4-4.86-7.38 1.32-10.84 2.5-2.45-2.96-4.24-.87-6.22.92-1.05.95-2.43 1.53-3.66 2.27-.29-1.2-.57-2.4-.88-3.59-.05-.17-.23-.31-.46-.6-3.18 4.76-4.1-.72-5.41-1.22-2.09 1.96-3.84 3.6-5.63 5.29.82.96 1.67 1.95 2.54 2.97-1.48 1.68-2.85 3.24-4.31 4.89-1.46-1.22-2.86-2.53-4.41-3.61-.72-.5-2.07-1.05-2.59-.72-2.55 1.61-4.57.52-6.44-.98-6.48 3.94-6.48 3.94-4.29 7.57-1.08.08-2.14.17-2.99.23-.4 2.35-.76 4.46-1.25 7.27.37 1.8.93 4.49 1.53 7.39.83-.1 2-.24 3.17-.38.29.99.55 1.87.68 2.31h6.11c-.18-.88-.4-1.98-.76-3.73 1.57 1.13 2.53 1.82 3.6 2.59 1.56-1.35 3.67-2.35 4.22-3.9.53-1.51-.54-3.59-1.03-6.05 2 .74 3.54 1.3 5.02 1.85zm-53.98 14.15c2.56-2.78 4.6-5.12 6.78-7.31 1.13-1.14 3.77-1.4 2.23-3.91-.97-1.58-2.05-3.21-3.46-4.37-1.48-1.22-3.41-1.89-5.45-2.95-3.45 4.07-10.55 6.1-9.54 13.45-2.51.47-4.81 1.12-7.14 1.28-2.48.18-5.27.64-6.46-2.82-.32-.03-.63-.07-.95-.1-.95 1.7-1.91 3.4-2.42 4.31-2.41 1.38-4.44 2.54-6.2 3.54.99 1.35 2.01 2.1 2.09 2.95.28 2.82 4.9 8.39 7.59 9.2 1.42.43 2.56 1.79 3.98 2.26 1.38.46 2.96.32 4.45.47.05.01.07.38.06.35-.86 1.11-1.61 2.09-2.38 3.1 2.32-.38 4.57-1.46 5.86-.76 1.49.81 2.14 3.18 3.5 5.44-2.46-.64-3.92-1.03-5.39-1.42-.07.28-.14.56-.21.84l2.1 2.61c.04.47.07.94.11 1.42-5.29-5.74-6.1.82-9.19 1.7 1.6 2.62 3.02 4.96 4.57 7.49-.31.58-.81 1.55-1.34 2.57 2.45 2.67 4.71 5.3 7.15 7.74 1.86 1.86 3.32 3.58.35 5.99 3.44-.23 3.39-.23 3.45 2.87.04 2.09 1.1 4.26-.89 6.11-.28.26 0 1.3.23 1.9.83 2.19 1.74 4.35 2.8 6.96.13-.01 1.18-.05 2.44-.11-.72 1.3-1.31 2.35-1.9 3.41.01.34.01.68.02 1.01 5.97-4.24 8.12.38 10.59 3.76 1.8-.86 3.37-1.61 5.48-2.61-.72 4.57 2.21 4.16 4.36 4.62 4.96 1.05 6 2.64 5.06 7.54-.18.93.28 1.99.47 3.18 1.12-.58 1.81-.94 2.69-1.39.12 1.29.22 2.26.31 3.24.29-.16.58-.33.87-.49.99 1.5 1.98 3 2.61 3.94 3.47 1.18 6.79 2.3 10.04 3.41 0-.21 0-.96 0-.98 3.88-.37 7.41-.7 11.15-1.05-.63-1.4-1.12-2.48-1.61-3.57l.78-.9c1.63.94 3.59 1.56 4.81 2.87 3.04 3.28 3.08 3.4 5.27.24 1.88.22 3.47.41 5.06.6.11-.42.21-.84.32-1.25-2.29.16-4.34.01-4.02-2.73-1.57.62-2.98 1.18-4.57 1.81-.11-1.63-.18-2.56-.25-3.67-4.56 1.99-4.32-2.12-6.22-4.11 1.54-.41 2.68-.72 3.63-.97.26-3.17.51-6.18.74-9.05.54.06 1.48.15 2.34.24-.45-2.27-.82-4.14-1.21-6.11-5-2.5-10.25-4.11-15.73.29-.35-1.8-.66-3.4-.97-5-2.22-.43-4.1-1.35-5.73-2.6-1.59-1.22-2.83-2.88-4.38-4.15-3.22-2.64-6.55-5.15-9.9-7.76-5.75 3.91-6.62-2.22-9.34-4.35-1.55.71-2.97 1.36-4.84 2.2.63-1.57 1.01-2.5 1.46-3.62-1.81-.17-3.26-.31-3.79-.36-.37-2.53-.65-4.38-.92-6.23 1.26-4.35-.48-14.87-3.41-17.7.89-1.76 1.38-4.53 2.65-4.96 5.13-1.7 1.53-3.25.22-4.79 1.49-2.39 2.91-4.67 4.33-6.95-.3-.18-.6-.36-.89-.55-.99.57-1.98 1.15-2.97 1.72-.15-.19-.31-.39-.46-.58.73-1.3 1.46-2.6 2.33-4.15-.92-.65-1.75-1.23-3.2-2.25zm150 90.99c2.7.2 6.3.13 8.45-3.49.97.93 1.72 1.65 2.47 2.36 3.87-4.13 6.17-3.73 8.86-1.5-.87-1.87-1.73-3.74-2.36-5.09-2.24.13-3.76.22-5.47.32.89-1.58 1.39-2.46 1.89-3.34-4.11 2.98-6.56-1.92-9.77-1.4-.47.71-.99 1.51-1.51 2.29-5.96-3.38-10.95-.63-15.99 2.1-.22-1.27-.42-2.4-.66-3.84-2.61 2.05-5 3.72-7.1 5.7-.71.67-1.28 2.77-.91 3.1 1.63 1.45.41 2.5-.1 3.69-1.33 3.12 1.46 9.49 3.37 10.04 1.07 3.09 1.9 5.5 2.85 8.22 1.14-.72 1.84-1.16 2.52-1.59-.53-1.12-.96-2.03-1.34-2.83 6.69.09 9.56-5.49 13.79-8.7 1.01-.76.62-3.41 1.01-6.04zm71.12-50.88c2.29 1.94 5.1.87 8.07-4.1-1.11-.9-2.24-1.81-4.12-3.33 1.49.1 1.94.02 2.29.17 2.79 1.17 3.58.31 3.34-2.67-.11-1.29.83-2.93 1.76-4.01 2.72-3.14 2.67-4.64-.7-7.24-.7-.54-1.24-1.33-2.01-1.72-1.03-.53-2.18-1.03-3.3-1.1-3.4-.19-6.88.23-10.2-.34-3.66-.63-5.61.05-7.28 4.16 1.33-.73 2.38-1.31 3.44-1.89.32.23.65.45.97.68-.84 1.47-1.64 2.95-2.53 4.39-1.19 1.94-3.1 3.77-.39 5.82-.88 1.23-1.59 2.21-2.63 3.66 2.82 2.52 5.48 5.17 8.46 7.41.88.65 2.63.11 4.83.11zm-37.11-38.06c1.65 2.88 3.79 4 7.02 3.71 3.64-.32 7.32-.07 11.91-.07 1.52-1.83 4.04-1.9 6.52.68 2.02-1.49 3.87-2.85 5.72-4.2-.81-1.36-2.21-2.76-1.93-3.39 1.91-4.2-2.36-5.1-2.96-6.64-3.51 0-6.14 0-9.56 0 1.54 1.77 2.3 2.63 3.05 3.5-.12.38-.24.76-.36 1.15-2.68-3.47-5.06-1.18-6.42-.65-3.04-2.41-5.5-4.36-8.21-6.51-2.05 3.35-5.44 5.01-6.02 8.89h3.74c-.99 1.38-1.68 2.36-2.5 3.53zm-69.32 100.37c1.87-1.2 3.68-2.3 5.43-3.49 2.66-1.8 3.36-4.33 1.94-6.51-1.92-2.95-4.02-2.03-5.77-.51-4.97-1.32-9.61-2.55-13.88-3.69-.73 1.91-1.52 3.95-2.54 6.63.37.49 1.24 1.68 1.82 2.46-.32 1.91-.59 3.48-1.03 6.1 3.13-2.26 5.29-3.18 6.63.25 1.52-1.41 2.79-2.6 4.08-3.79 1.19.93 2.24 1.73 3.32 2.55zm-41.39-48.89c-4.07 3.42-7.43 6.24-11.32 9.5 1.72.74 2.81 1.22 3.44 1.49.41 1.9.24 4.02 1.2 4.84 1.47 1.27 4.29 2.78 5.5 2.16 1.81-.93 3.36-.85 5.1-.92.24-.01.61-.41.67-.69.53-2.34 1.32-4.69 1.35-7.05.02-1.04-1.35-2.79-2.37-3.03-3.07-.74-3.98-2.55-3.57-6.3zm2.02 35.13c-.34-2.04-1.19-3.76-.71-4.95 1.64-4.05.47-6.34-4.19-7.2 1.49 3.49 1.49 3.49.36 4.77-1.15-.56-2.25-1.1-3.36-1.64.13 2.14 1.47 4.04 1.02 4.7-2.48 3.57 1.11 5.23 1.66 8.07 2.21-1.59 4.01-2.88 5.22-3.75zm-6.2-43.84c.45-.41.89-.82 1.34-1.23 1.04 1.77 2.08 3.53 3.27 5.55 3.74-2.91-1.08-6.84 1.66-9.61.33-.33-.76-2.73-1.73-3.52-1.57-1.28-3.58-2.01-5.58-3.08v7.41c.88-.3 1.51-.51 2.02-.69 1.72 3.57-4.24 4.19-2.35 7.7.46-.84.92-1.68 1.37-2.53zm99.55-41.18c-1.54 1.51-2.95 2.88-4.5 4.39 1.54 2.25 2.92 4.28 4.31 6.31.27-.18.54-.35.81-.53 0-1.97 0-3.94 0-6.69 1.26 1.04 1.8 1.39 2.22 1.85.41.44.71.99 1.11 1.57 1.53-1.96 1.53-1.96-3.95-6.9zm-29.96 28.33c0-3.95 0-6.88 0-9.55-1.38 1.49-2.6 2.81-3.96 4.28.99 1.32 2.17 2.9 3.96 5.27zm-134.19 77.71c.31.2.62.4.93.6 3.32-1.25 4.72-4.14 2.73-6.52-1.27 2.06-2.47 3.99-3.66 5.92zm-39.01-97.02c1.31-1.53 2.91-2.58 2.89-3.62-.01-1-1.69-1.97-2.89-3.23z" fill="#010105"/></svg>