<svg viewBox="0 0 400 400" xmlns="http://www.w3.org/2000/svg"><rect width="400" height="400" fill="white" /><path d="m362.1 8.8c1.1.8 2.1 1.6 3.1 2.4l-1 1.1c-1.3-1.1-2.3-2-3-2.5zm1.9 4.8c.5.2.9.4 1.4.5-.6 2.3-1.3 4.5-1.9 6.8l-1.5-.5c.8-2.1 1.4-4.3 2-6.8zm-1-9.4c1.3.9 2.4 1.8 3.4 2.5l-1 1.1c-1.4-1.2-2.4-2.1-3.2-2.6zm3.7 2.2v-1.4h10.3v1.2c-.5 3.6-1.8 6.8-4 9.4 1.5 1.6 3.4 2.8 5.7 3.8-.3.4-.7.8-1.1 1.4-2.3-1.1-4.1-2.5-5.6-4.1-1.6 1.6-3.6 3.1-5.9 4.3-.3-.5-.7-.9-1-1.3 2.4-1.1 4.4-2.5 6-4.1-1.9-2.5-3-5.6-3.3-9.3h-1.1zm8.8 0h-6.4c.3 3.3 1.3 6 3 8.2 2-2.3 3.1-5.1 3.4-8.2z" fill="#fbfafc"/><path d="m385.3 3.8h1.3v2.2h2.8v-2.2h1.3v2.2h4.1v9.1h1.7v1.3h-16.9v-1.3h1.7v-9.1h4.1v-2.2zm.4 13.1.7 1.2c-1.8.9-3.8 1.9-6 2.9-.2-.4-.5-.8-.8-1.3 2.3-1 4.3-1.9 6.1-2.8zm-3.1-6.4h2.8v-3.2h-2.8zm0 4.6h2.8v-3.3h-2.8zm4-4.6h2.8v-3.2h-2.8zm0 4.6h2.8v-3.3h-2.8zm3.7 1.9c2.1.9 4.1 1.8 6.1 2.7l-.7 1.3c-2.2-1.1-4.2-2-6.1-2.9zm3.2-9.7h-2.8v3.2h2.8zm-2.8 7.8h2.8v-3.3h-2.8z" fill="#fbfafc"/><path d="m135.47 331.29c-20.19 1.46-39.88-2.4-59.63-5.68-10.37-1.72-20.74-3.46-31.11-5.15-2.35-.38-4.23-1.09-5.91-3.15-14.37-17.51-18.41-37.28-13.6-59.19 4.38-19.92 11.34-38.8 22.13-56.17.93-1.5 2.05-2.94 3.3-4.19 41.86-41.89 83.75-83.75 125.58-125.67 1.75-1.75 3.43-2.41 5.87-2.24 12.09.83 23.8 3.45 34.44 9.17 25.2 13.54 50.52 26.94 75.11 41.54 21.19 12.58 39.45 29.05 55.41 47.88 19.07 22.5 26.99 48.82 25.79 78.02-.29 7.13-1.52 14.22-2.1 21.35-.2 2.5-1.31 4.04-3.21 5.49-12.46 9.52-26.31 16.51-40.78 22.32-29.4 11.8-60.05 19.05-91.08 24.88-27.06 5.09-54.24 9.32-81.78 10.74-6.12.33-12.28.05-18.43.05zm20.88-75.16c7.27 0 14.55.25 21.8-.06 13.18-.56 26.43-.82 39.51-2.35 28.44-3.33 54.96-12.8 79.78-27.04 7.66-4.39 7.87-4.86 6.07-13.69-.13-.66-.3-1.31-.46-1.96-2.4-9.29-7.31-17.28-13.18-24.67-15.11-18.99-33.4-34.56-53.15-48.47-10.47-7.37-21.57-13.56-34.21-16.54-2.3-.54-3.86-.25-5.55 1.63-30.57 33.92-61.06 67.91-91.99 101.5-5.53 6.01-7.31 12.85-8.64 20.15-1 5.43 4.33 11.45 9.68 11.47 16.77.07 33.56.04 50.34.03z" fill="#000001"/></svg>