<svg enable-background="new 0 0 400 400" viewBox="0 0 400 400" xmlns="http://www.w3.org/2000/svg"><path d="m374.8 390.4.4-.4c.7.5 1.3 1 1.8 1.4l-.5.5c-.5-.6-1.1-1.1-1.7-1.5zm1 7.3-.6-.3c.5-1.4 1.1-2.8 1.5-4.3.2.1.4.2.6.3-.5 1.3-1 2.8-1.5 4.3zm-.4-10.3.4-.4c.4.3 1 .8 1.7 1.4l-.5.5c-.4-.5-1-1-1.6-1.5zm2.5.3h1.7v-1h.6v1h3.5v-1h.6v1h1.8v.5h-1.8v1.4h-2v1h3.2v2h-3.2v.9h3.3v.5h-3.4c0 .3-.1.6-.1.9h4v.5h-3.7c.7.9 1.9 1.5 3.8 1.7-.1.2-.2.4-.3.6-2.1-.4-3.5-1.1-4-2.1-.4 1-1.8 1.7-4 2.2-.1-.2-.2-.4-.3-.6 2.1-.4 3.4-1 3.8-1.8h-3.4v-.5h3.6c.1-.3.1-.6.2-.9h-3.3v-.5h3.4c0-.3 0-.6 0-.9h-3.2v-2h3.3v-1h-2.1v-1.4h-1.7v-.5zm1.1 3.5v1h2.7c0-.3 0-.4 0-.4 0-.1 0-.2 0-.2 0-.1 0-.2 0-.3h-2.7zm1.2-3v.9h3.5v-.9zm4.7 3h-2.6v.6.4h2.6z" fill="#fbfcfa"/><path d="m393.6 386.7h.6v1.5h2.7v6.1h1.1v.6h-11v-.6h1.1v-6.1h2.7v-1.5h.6v1.5h2.1v-1.5zm-2.7 8.8.4.6c-1.2.6-2.5 1.3-3.8 1.9-.1-.2-.2-.4-.3-.6 1.2-.6 2.5-1.2 3.7-1.9zm-2.2-6.7v2.4h2.1v-2.4zm0 3v2.5h2.1v-2.5zm2.8-3v2.4h2.1v-2.4zm0 3v2.5h2.1v-2.5zm6 6.1c-1.4-.7-2.7-1.3-3.9-1.8l.3-.6c1.5.6 2.7 1.2 3.9 1.7zm-1.2-9.1h-2.1v2.4h2.1zm-2.1 3v2.5h2.1v-2.5z" fill="#fbfcfa"/><g fill="#010101"><path d="m153.06 69.61c-2.4-1.23-1.48-4.09-.87-7.16 2.2-11.13 5.62-21.84 10.37-32.12.82-1.78 2.22-3.3 3.51-5.17 3.8.35 6.66 2.75 7.98 6.33 4.35 11.81 11.87 21.71 18.48 32.19 2.23 3.53 3.67 7.62 5.03 11.61 1.01 2.96.96 5.97-.96 8.94-1.74 2.69-2.56 5.96-4.15 8.76-2.13 3.75-4.75 7.21-6.91 10.94-3.77 6.52-8.68 12.74-7.69 20.92.35 2.86 1.57 5.65 2.65 8.37 1.84 4.66 4.08 9.16 5.72 13.88.58 1.67-.09 3.78-.19 5.69-.31.04-.63.07-.94.11 1.11 1.52 2.22 3.03 3.36 4.6-1.4 1.83-2.73 3.58-4.07 5.32.22.28.43.56.65.85 1.07-.72 2.14-1.44 3.58-2.42-.52 2.26-.87 4.44-1.53 6.52-4.4 13.83-8.87 27.63-13.33 41.44-.24.74-.42 1.55-.85 2.18-5.13 7.71-8.63 16.1-10.87 25.07-.24.97-1.77 1.56-2.38 2.53-.73 1.16-1.92 3.02-1.5 3.72 1.82 3 .55 4.83-2.15 6.66 2.57 1.77 2.38 3.85 1.43 6.19-.44 1.09-.53 2.4-.46 3.6 1.31 21.74 7.15 42.23 17.09 61.57 1.32 2.57 3.32 4.77 4.84 7.25 3.61 5.88 7.19 11.79 10.67 17.75 3.07 5.26 6.44 10.24 11.74 13.53 1.32.82 2.75 1.49 4.21 2.03 3.01 1.12 5.03.8 6.9-2.62 7.2-13.13 14.87-26.01 22.37-38.98.3-.53.63-1.04 1.62-1.42 0 1.84-.12 3.69.05 5.52.08.85.54 2.2 1.13 2.39 2.98.97 2.08 2.64 1.06 4.42-4.86 8.42-9.81 16.8-14.57 25.28-2.34 4.18-4.42 8.52-6.48 12.85-2.53 5.35-5.59 6.7-10.92 4.61-.62-.24-1.23-.56-1.87-.72-6.4-1.6-11.25-5.1-14.08-11.2-.41-.88-1.08-1.82-1.89-2.3-6.8-4.09-10.7-10.6-14.65-17.12-.72-1.18-1.97-2.03-2.94-3.06-1.1-1.18-2.48-2.23-3.18-3.62-3.21-6.39-6.21-12.88-9.31-19.32-1.05-2.18-2.41-4.18-1.19-6.9.37-.84-.73-2.33-1.2-3.63.33-.31.8-.75 1.22-1.15-.07-.32-.06-.57-.18-.73-3.77-5.03-4.58-11.07-5.81-16.97-.07-.33-.09-.67-.12-1-.52-7.11-4.84-13.4-2.98-21.27 1.67-7.06 1.03-14.68 1.25-22.05.17-5.55.78-10.89 4.59-15.34.41-.48.66-1.2.75-1.83 1.55-11.35 7.57-20.93 12.46-30.92 4.96-10.13 7.13-21.06 9.6-31.88.67-2.95.06-6.51-.96-9.46-3.72-10.77-7.75-21.43-11.89-32.05-1.52-3.91-3.45-7.71-5.59-11.33-4.03-6.84-4.32-14.45-5.1-22-.32-3.11-.95-6.2-1.09-9.32-.09-2.55.31-5.16.54-8.56zm15.92 37.7c1.34 2.52 3 .98 4.36-.55 1.47-1.66 3.14-3.4 3.85-5.41 2.61-7.45 5.13-14.96 7.08-22.59.59-2.31-.66-5.15-1.25-7.7-.51-2.22-1.29-4.39-1.83-6.21-.76-.56-1.6-.89-1.96-1.5-1.43-2.39-2.47-5.05-4.13-7.26-1.36-1.81-3.39-3.11-5.39-4.88-4.81 7.82-7.45 15.45-9.6 23.35-1.53 5.65-.65 10.79 1.86 15.86 1.09 2.2 2.23 4.38 3.16 6.65 1.36 3.27 1.21 6.45-1.11 9.69-.43-1.11-.61-2.02-1.11-2.7-.49-.66-1.32-1.08-1.99-1.6-.18.78-.65 1.61-.5 2.32.53 2.59 1.26 5.15 2.24 8.98 2.51-2.58 4.35-4.45 6.32-6.45z"/><path d="m244.78 304.66c-.35 3.17 3.13 5.89-.29 8.88-2.25 1.96-4.1 4.4-7.56 2.91 1.47-7.32 3.1-9.96 7.85-11.79z"/></g></svg>