<svg enable-background="new 0 0 400 400" viewBox="0 0 400 400" xmlns="http://www.w3.org/2000/svg"><path d="m374.8 390.4.4-.4c.7.5 1.3 1 1.8 1.4l-.5.5c-.5-.6-1.1-1.1-1.7-1.5zm1 7.3-.6-.3c.5-1.4 1.1-2.8 1.5-4.3.2.1.4.2.6.3-.5 1.3-1 2.8-1.5 4.3zm-.4-10.3.4-.4c.4.3 1 .8 1.7 1.4l-.5.5c-.4-.5-1-1-1.6-1.5zm2.5.3h1.7v-1h.6v1h3.5v-1h.6v1h1.8v.5h-1.8v1.4h-2v1h3.2v2h-3.2v.9h3.3v.5h-3.4c0 .3-.1.6-.1.9h4v.5h-3.7c.7.9 1.9 1.5 3.8 1.7-.1.2-.2.4-.3.6-2.1-.4-3.5-1.1-4-2.1-.4 1-1.8 1.7-4 2.2-.1-.2-.2-.4-.3-.6 2.1-.4 3.4-1 3.8-1.8h-3.4v-.5h3.6c.1-.3.1-.6.2-.9h-3.3v-.5h3.4c0-.3 0-.6 0-.9h-3.2v-2h3.3v-1h-2.1v-1.4h-1.7v-.5zm1.1 3.5v1h2.7c0-.3 0-.4 0-.4 0-.1 0-.2 0-.2 0-.1 0-.2 0-.3h-2.7zm1.2-3v.9h3.5v-.9zm4.7 3h-2.6v.6.4h2.6z" fill="#fbfcfa"/><path d="m393.6 386.7h.6v1.5h2.7v6.1h1.1v.6h-11v-.6h1.1v-6.1h2.7v-1.5h.6v1.5h2.1v-1.5zm-2.7 8.8.4.6c-1.2.6-2.5 1.3-3.8 1.9-.1-.2-.2-.4-.3-.6 1.2-.6 2.5-1.2 3.7-1.9zm-2.2-6.7v2.4h2.1v-2.4zm0 3v2.5h2.1v-2.5zm2.8-3v2.4h2.1v-2.4zm0 3v2.5h2.1v-2.5zm6 6.1c-1.4-.7-2.7-1.3-3.9-1.8l.3-.6c1.5.6 2.7 1.2 3.9 1.7zm-1.2-9.1h-2.1v2.4h2.1zm-2.1 3v2.5h2.1v-2.5z" fill="#fbfcfa"/><path d="m198.83 335.22c3.28.44 6.3.68 9.23 1.32 1.14.25 2.26 1.24 3.11 2.16 7.69 8.37 16.95 14.04 27.98 16.95 3.68.97 6.02-.18 7.1-3.43 1.99-6.01 4.14-12.05 5.22-18.26 1.17-6.67 1.16-13.55 1.73-20.33.09-1.13.43-3.14.81-3.18 1.42-.14 3.15-.02 4.34.7 3.71 2.24 4.03 2.23 5.58-1.43-2.5-2.38-5.2-4.37-7.12-6.95-1.74-2.34-1.61-4.87 1.6-6.63 2.61-1.44 4.92-3.43 7.49-5.27-5.26-2.2-9.62-1.97-12.48 4.46-3.01-9.12-5.74-17.34-8.44-25.57-2.03-6.16-3.95-12.35-6.12-18.45-.41-1.15-1.65-2.52-2.77-2.82-4.68-1.29-7.52-4.42-9.98-8.37-5.46-8.78-5.54-8.73-3.75-18.85.89-5.02-1.28-7.48-6.31-7.16-6.29.4-6.29.4-9-5.06-1.89-3.81-3.98-7.53-5.61-11.44-2.81-6.76-7.22-12.07-12.68-16.94-5.94-5.3-8.69-12.88-11.77-20.07-4.67-10.91-7.12-22.32-7.79-34.16-.21-3.78-2.13-5.16-5.83-4.45-1.18.23-2.44 1.06-3.27 1.97-3.77 4.14-7.3 8.49-11.13 12.57-1.12 1.19-2.88 2.24-4.46 2.43-2.67.32-4.33 1.34-5.2 3.88-.39 1.15-1.26 2.13-1.68 3.27-.66 1.77-1.64 2.18-3.57 1.9-6.15-.9-6.05-.77-7.54 5.5-.27 1.14-1.95 1.95-2.98 2.91-.36-.32-.72-.64-1.08-.96.78-1.53 1.42-3.14 2.35-4.56 11.21-17.13 22.41-34.27 33.76-51.3 2.05-3.07 3.64-6.11 3.38-9.87-.64-9.21 2.84-17.31 6.97-25.16 2.02-3.84 2.59-7.73 2-11.95-.48-3.43-.38-6.98-1.14-10.33-1.54-6.77 2.23-11.7 5.5-17.96 2.21 3.09 4.63 5.42 5.78 8.27 5.79 14.43 10.39 29.03 6.03 44.96-.71 2.6.31 6.34 1.81 8.76 6.15 9.94 14.87 17.49 24.19 24.4 7.27 5.39 14.46 10.9 21.48 16.62 2.54 2.07 4.46 4.9 6.67 7.38-.11.44-.23.87-.34 1.31-3.54.08-7.18.68-10.61.11-5.05-.84-9.96-2.5-14.92-3.84-.53-.14-1.11-.35-1.5-.71-7.21-6.61-16.45-6.97-25.38-8.22-3.06-.43-3.09 2.26-3.73 4.16-.39 1.15-.6 2.37-1.12 4.51 7.24 6.98 8.65 17.94 12.23 27.95.63 1.75 1.44 3.52 2.54 5.01 5.53 7.46 11.52 14.6 16.71 22.29 10.14 15 19.85 30.29 29.73 45.46 1.03 1.58 1.97 3.22 3.05 4.99-.99.88-1.88 1.67-3.05 2.71 7.62 3.55 12.56 9.46 14.82 17.31 2.69 9.34 4.9 18.82 7.39 28.21.33 1.26.78 2.72 1.67 3.57 3.04 2.89 3.79 6.33 3.47 10.33-.23 2.78-.22 5.61.01 8.39.21 2.64-.76 3.69-3.36 3.62-1.09-.03-2.19.36-3.8.64 8.09 5.72 7.64 13.5 6.37 21.59-1.85 11.76-6.17 22.33-14.21 31.3-2.3 2.56-3.91 5.73-6.08 8.42-.68.84-2.31 1.69-3.21 1.45-9.43-2.55-19.06-4.43-26.74-11.44-4.42-4.04-9.78-7.04-14.7-10.54-6.12-4.35-8.99-10.09-7.65-18.08zm43.54-84.15c1.55-5.32 1.55-5.32-3.55-8.33 1.16 2.71 2.18 5.11 3.55 8.33z" fill="#010101"/></svg>