<svg enable-background="new 0 0 400 400" viewBox="0 0 400 400" xmlns="http://www.w3.org/2000/svg"><g fill="#010102"><path d="m169.06 204.42c-12.14-2.52-23.78-5.4-35.57-7.27-13.08-2.07-22.02-9.85-29.55-19.75-6.54-8.61-8.36-18.65-7.32-29.25 1.79-18.28 6.37-35.85 13.93-52.6.72-1.61 1.67-3.16 2.77-4.54 6.98-8.75 13.72-17.72 21.18-26.04 4.51-5.03 10.09-9.13 15.35-13.45 9.86-8.1 19.87-16.01 29.72-24.12 1.78-1.47 3.35-1.77 5.46-1.08 6.42 2.08 11.57 6.02 15.55 11.24 13.77 18.05 27.66 36.03 40.82 54.51 7.83 11 14.49 22.88 18.79 35.83 4.95 14.92 4.4 29.71-1.5 44.28-.29.71-.65 1.46-1.19 1.98-11.69 11.38-25.04 19.88-41.25 23.11-5.8 1.16-11.76 1.5-17.62 2.38-1 .15-2.32.95-2.73 1.81-9.63 20.29-19.72 40.38-28.44 61.05-4.2 9.97-6.52 20.91-8.37 31.65-2.63 15.29 1.52 29.72 8.26 43.44 5.53 11.25 16.01 15.75 27.03 19.12 11.31 3.46 22.44.77 33.33-2.37 11.05-3.18 22.01-6.73 32.86-10.52 3.28-1.15 6.15-3.58 9.1-5.58 8.23-5.57 16.4-11.22 24.59-16.83 3.83 5.22 3.83 5.21.05 10.02-3.66 4.66-7.49 9.21-10.96 14.02-9.91 13.76-23.72 22.03-39.37 27.19-27.22 8.97-52.79 3.68-76.08-11.83-8.88-5.92-14.87-15.38-20.54-24.58-10.85-17.6-10.83-36.36-6.34-55.75 3.87-16.72 11.8-31.78 18.59-47.33 3.43-7.85 6.07-16.05 8.95-24.14.49-1.29.34-2.82.5-4.6zm4.37-75.19c-.12 0-.24.01-.37.01-.35-13.41-.66-26.82-1.09-40.22-.11-3.45-.22-6.98-.97-10.32-1.56-6.94-9.43-9.23-14.57-4.48-8.78 8.13-17.33 16.55-26.48 24.24-5.43 4.57-8.56 10.12-10.55 16.61-1.6 5.23-3.21 10.46-4.57 15.76-2.59 10.07-3.48 20.11 1.91 29.66 3.86 6.84 7.79 13.72 16.13 16.06 7.41 2.07 14.78 4.39 22.3 5.93 6.22 1.28 12.47.63 18.16-2.78 1.81-1.08 2.61-2.32 2.48-4.57-.87-15.3-1.6-30.6-2.38-45.9zm21.86-68.17c-3.76 5.12-6.07 10.21-4.98 16.45.46 2.62.58 5.36.38 8.01-1.85 24.01-2.42 48.03-.05 72.02.72 7.27 2.81 14.4 4.4 21.57.52 2.35 1.79 3.29 4.61 2.68 10.81-2.31 21.69-4.32 32.56-6.29 1.96-.36 2.75-1.27 3.36-3.05 6.46-18.84 5.59-37.55-.68-56.23-7.5-22.33-20.25-40.89-39.6-55.16z"/><path d="m153.02 134.66c-.85 1.27-1.47 2.82-2.6 3.74-3.26 2.65-6.41 5.52-11.06 5.74-2.06.1-3.21-.33-4.25-2.19-4.36-7.74-3.14-15.23.8-22.61.33-.61 1.56-1.07 2.35-1.05 8.27.22 13.96 6.69 14.76 16.37z"/><path d="m211.54 154.22c-7.31-11.21-8.33-23.03-1.68-32.9 10.04 4.4 15.18 17.76 10.46 27.62-.54 1.12-2.03 1.9-3.22 2.58-1.73.99-3.59 1.75-5.56 2.7z"/></g><path d="m6.4 11.7c-1-.8-1.9-1.6-2.9-2.3l.6-.7c.9.7 1.9 1.4 2.9 2.2zm-2.1 8.3c.7-2.1 1.4-4.2 2-6.4.2.1.6.3 1 .4-.7 2.3-1.3 4.4-1.9 6.4zm3-12.8c-1.1-.9-2.1-1.7-2.9-2.4l.6-.7c1 .8 2 1.5 3 2.4zm1.4-1.3v-.9h10.2v.9c-.9 4.2-2.3 7.3-4.1 9.4 1.3 1.4 3.2 2.7 5.7 4-.2.2-.4.5-.7.9-2.5-1.4-4.4-2.7-5.7-4.2-1.4 1.5-3.5 3-6.1 4.4 0 0 0 0-.1-.1-.3-.4-.5-.7-.7-.8 2.7-1.3 4.7-2.8 6.2-4.2-1.8-2.2-3-5.3-3.7-9.4zm9.2 0h-7.1c.6 3.8 1.7 6.7 3.4 8.7 1.7-2 2.9-4.8 3.7-8.7z" fill="#fafbfa"/><path d="m31.6 3.6h.9v2.3h4.1v9.1h1.7v.9h-16.6v-.9h1.7v-9.1h4.1v-2.3h.9v2.3h3.1v-2.3zm-4 13.3.6.8c-1.9.9-3.8 1.9-5.8 2.8-.2-.3-.3-.6-.5-.9 2-.9 3.9-1.8 5.7-2.7zm-3.2-10.1v3.7h3.1v-3.7zm0 4.5v3.7h3.1v-3.7zm4.1-4.5v3.7h3.1v-3.7zm0 4.5v3.7h3.1v-3.7zm9.1 9.1c-2.1-1.1-4.1-2-5.8-2.7l.5-.8c2.2.9 4.1 1.8 5.8 2.6zm-1.9-13.6h-3.1v3.7h3.1zm-3.2 4.5v3.7h3.1v-3.7z" fill="#fafbfa"/></svg>