<svg enable-background="new 0 0 400 400" viewBox="0 0 400 400" xmlns="http://www.w3.org/2000/svg"><path d="m125.08 134.28c-.9-5.31.61-9.32 2.69-13.17 7.57-13.99 17.5-26.19 28.64-37.43 2.18-2.2 2.7-4.03 1.26-6.94-7.43-15.02-14.65-30.15-21.94-45.23-.53-1.1-1.05-2.2-1.66-3.49 1.57-1.01 3.06-1.97 4.74-3.05 8.52 5.51 15.32 12.73 20.48 21.33 5 8.33 9.42 17.01 13.95 25.61 1.35 2.56 3.06 4.43 5.58 5.94 10.39 6.18 21.58 10.21 33.24 13.14 12.06 3.02 21.01 9.67 25.1 21.87.13.39.2.8.41 1.65-1.36-.45-2.38-.73-3.36-1.13-10.57-4.27-21.02-8.87-31.73-12.72-6.84-2.46-14.07-3.81-22.06-5.9.84 4.08 1.61 6.86 1.96 9.68 1.17 9.53 2.33 19.06 3.23 28.62.69 7.35.78 14.76 1.53 22.11.93 9.1-1.54 17.77-2.81 26.59-1.31 9.07-2.95 18.1-4.52 27.14-.2 1.15-.56 2.56-1.36 3.27-6.15 5.43-9.21 12.54-11.04 20.23-1.98 8.31-6.97 14.92-11.56 21.77-1.18 1.76-1.65 3.37-.74 5.24 1.08 2.21.67 4.05-1.05 5.73-2.28 2.23-3.27 4.85-3.04 8.14.12 1.69-.73 3.45-1.14 5.17-2.64 11.07-5.8 22.04-7.79 33.22-2.02 11.37 1.48 21.91 7.42 31.64.56.91 1.44 1.73 2.36 2.28 7.79 4.6 15.46 9.44 23.48 13.6 9.4 4.88 19.08 3.74 27.28-2.33 4.46-3.3 7.56-8.76 10.52-13.7 8.26-13.74 10.5-28.97 10.72-44.77.24-17.34 1.14-34.67 1.7-52.01.22-6.95 2.75-13.06 6.53-18.74 7.63-11.44 15.31-22.85 22.93-34.3 4.41-6.64 8.66-9.57 15.37-10.31.59 8.83-2.79 16.18-8.32 22.68-8.55 10.05-15.65 20.93-20.1 33.45-2.98 8.39-4.51 17.04-5.1 25.9-1.51 22.55-2.04 45.24-5.07 67.6-2.43 17.95-11.63 32.81-29.41 40.42-4.52 1.93-9.12 2.03-13.98.25-8.28-3.04-16.7-5.78-25.21-8.1-5.64-1.53-10.06-4.33-13.8-8.74-9.64-11.35-17.2-23.74-19.62-38.68-1.67-10.27-1.51-20.42 2.24-30.42 5.96-15.9 11.16-32.1 17.48-47.85 3.43-8.56 8.02-16.77 12.99-24.57 6.82-10.72 8.5-22.94 11.54-34.78.47-1.84-.25-3.98-.36-5.98-.42-7.47-.93-14.94-1.18-22.42-.19-5.7-.35-11.44.03-17.12.72-10.7-.97-20.86-5.22-30.71-1.87-4.33-4.96-5.14-8.17-1.77-7.86 8.27-15.64 16.63-23.74 24.66-2.88 2.81-6.59 4.78-10.32 7.43z" fill="#010102"/><g fill="#fafbfa"><path d="m6.4 11.7c-1-.8-1.9-1.6-2.9-2.3l.6-.7c.9.7 1.9 1.4 2.9 2.2zm-2.1 8.3c.7-2.1 1.4-4.2 2-6.4.2.1.6.3 1 .4-.7 2.3-1.3 4.4-1.9 6.4zm3-12.8c-1.1-.9-2.1-1.7-2.9-2.4l.6-.7c1 .8 2 1.5 3 2.4zm1.4-1.3v-.9h10.2v.9c-.9 4.2-2.3 7.3-4.1 9.4 1.3 1.4 3.2 2.7 5.7 4-.2.2-.4.5-.7.9-2.5-1.4-4.4-2.7-5.7-4.2-1.4 1.5-3.5 3-6.1 4.4 0 0 0 0-.1-.1-.3-.4-.5-.7-.7-.8 2.7-1.3 4.7-2.8 6.2-4.2-1.8-2.2-3-5.3-3.7-9.4zm9.2 0h-7.1c.6 3.8 1.7 6.7 3.4 8.7 1.7-2 2.9-4.8 3.7-8.7z"/><path d="m31.6 3.6h.9v2.3h4.1v9.1h1.7v.9h-16.6v-.9h1.7v-9.1h4.1v-2.3h.9v2.3h3.1v-2.3zm-4 13.3.6.8c-1.9.9-3.8 1.9-5.8 2.8-.2-.3-.3-.6-.5-.9 2-.9 3.9-1.8 5.7-2.7zm-3.2-10.1v3.7h3.1v-3.7zm0 4.5v3.7h3.1v-3.7zm4.1-4.5v3.7h3.1v-3.7zm0 4.5v3.7h3.1v-3.7zm9.1 9.1c-2.1-1.1-4.1-2-5.8-2.7l.5-.8c2.2.9 4.1 1.8 5.8 2.6zm-1.9-13.6h-3.1v3.7h3.1zm-3.2 4.5v3.7h3.1v-3.7z"/></g></svg>