<svg enable-background="new 0 0 400 400" viewBox="0 0 400 400" xmlns="http://www.w3.org/2000/svg"><path d="m236.52 281.02c11.74 11.74 23.2 23.22 34.89 34.91 4.28-4.91 7.05-10.45 9.25-16.28 5.76-15.25 9.89-30.87 9.93-47.33 0-1.89-.2-3.8-.49-5.67-.95-6.22-1.13-6.32-7.39-7.43-8.9-1.58-17.61-.2-26.29 1.65-8.53 1.82-17 3.9-25.56 5.55-2.99.58-6.31.82-9.23.16-13.87-3.15-27.47-.48-41.27.77-19.92 1.82-39.96 2.26-59.94 3.32-2.25.12-5.83-.3-6.48.84-1.56 2.75-3.04 6.65-2.24 9.41 1.83 6.22 4.6 12.3 7.85 17.94 3.11 5.39 7.34 10.13 11.02 15.2 5.32 7.35 10.83 11.2 19.75 13.61 7.07-7.98 9.08-20.83 22.59-23.26 1.27 3.77 2.78 7.68 3.92 11.69 3.77 13.28 6.77 26.6 5.15 40.66-.61 5.25-2.86 7.9-7.62 9.45-6.36 2.07-12.44 1.66-18.71-.48-15.62-5.34-27.09-15.85-37.45-28.29-27.25-32.74-43.47-70.47-52.79-111.72-2.66-11.78-1.32-23.03.19-34.52 1.66-12.64 2.74-25.39 5.12-37.9 1.33-7 4.61-13.67 7.33-20.36 3.15-7.74 6.59-15.36 10.05-22.97 1.98-4.36 4.65-8.43 6.3-12.9 3.6-9.74 6.47-19.76 10.18-29.45 2.94-7.68 6.68-15.05 10.4-23.32 2.79 3.68 4.82 6.55 7.04 9.26 15.49 18.89 26.24 40.77 38.86 61.48 3.09 5.06 6.08 10.18 8.96 15.36.65 1.17 1.05 2.74.9 4.05-.68 5.89-1.69 11.73-2.38 17.62-.25 2.09-1.06 3.06-3.14 2.97-.22-.01-.46 0-.67.06-8.07 2.32-13.54-.71-18.78-7.15-8.39-10.31-17.84-19.76-27.39-30.15-3.36 4.71-6.82 9.03-9.72 13.71-8.76 14.16-13.04 29.84-14.76 46.25-1.92 18.44-1.68 36.83 1.05 55.23.88 5.93 3.34 9.17 8.97 11.17 9.61 3.41 19.17 3.27 28.71.69 30.1-8.11 60.87-9.5 91.79-9.97 17.42-.26 34.49-3.21 51.17-8.24 1.17-.35 2.5-1.87 2.81-3.09 1.76-6.81 1.15-13.73-1.16-20.17-4.72-13.13-10.28-25.95-15.1-39.04-5.71-15.53-14.01-29.38-25.38-41.39-1.76-1.86-3.28-3.95-5.17-6.24-.85 1.26-1.57 2.35-2.31 3.43-4.12 5.99-8.16 12.04-12.39 17.95-6.44 9-13.41 12.69-25.17 13.38-.19-1.78-.52-3.61-.55-5.44-.16-11.81 2.72-23.08 6.49-34.11 6.14-17.98 12.55-35.87 18.87-53.78 1.39-3.95 5.43-5.97 9.58-5.51 5.04.56 8.21 3.03 11.15 7.24 24.85 35.65 47.41 72.69 67.88 111 20.03 37.5 28.23 77.45 24.62 119.87-.65 7.57-2.37 14.61-5.46 21.58-10.54 23.81-20.7 47.79-31.12 71.65-.68 1.57-2.17 3.08-3.67 3.94-3.77 2.17-7.72 4.05-11.7 5.83-.84.37-2.49.22-3.09-.37-14.21-14.08-27.09-29.24-35.97-47.34-5.96-12.14-8.38-25.19-8.72-38.63-.02-.92.57-2.13 1.27-2.74 1.54-1.32 3.3-2.32 5.22-3.64z" fill="#010102"/><g fill="#fcfbfa"><path d="m385.2 377.6.6-.7c.6.4 1.3.9 1.9 1.5l-.6.7c-.8-.5-1.4-1-1.9-1.5zm.3 7.1c.6-1.4 1.1-2.9 1.5-4.5.3.1.6.3.9.4-.5 1.4-1 2.9-1.5 4.4zm.2-10.1.6-.6c.7.5 1.3 1.1 1.9 1.6l-.7.7c-.6-.6-1.2-1.2-1.8-1.7zm8.4-.8h.8v.9h1.8v.7h-1.8v1.8h-.8v-.3h-1.2v.9h3.3v2.6h-.8v-.4h-2.5c0 .3 0 .6-.1.8h3.4v.7h-3.5c0 .3-.1.6-.1.8h4v.7h-3.5c.7.9 1.9 1.3 3.6 1.5-.2.2-.4.5-.6.9-1.9-.3-3.2-1.1-3.8-2.3-.5 1.1-1.8 2-3.9 2.4-.2-.3-.4-.5-.6-.8 1.9-.4 3.1-.9 3.6-1.7h-3.2v-.7h3.5c.1-.2.1-.5.2-.8h-3.3v-.7h3.4c0-.2 0-.5 0-.8h-2.4v.3h-.8v-2.6h3.3v-.9h-1.2v.3h-.8v-1.8h-1.8v-.7h1.8v-.9h.8v.9h3.2zm-4.4 5.5h2.4c0-.3 0-.6 0-.9h-2.4zm1.2-3.1h3.2v-.8h-3.2zm4.4 2.2h-2.4v.9h2.5v-.9z"/><path d="m389.2 385.8h.9v1.5h1.9v-1.5h.9v1.5h2.7v6h1.1v.9h-11.3v-.9h1.1v-6h2.7zm.2 8.7.5.8c-1.2.6-2.5 1.3-4 1.9-.2-.3-.3-.6-.6-.8 1.6-.6 3-1.3 4.1-1.9zm-2-4.3h1.9v-2.1h-1.9zm0 3.1h1.9v-2.2h-1.9zm2.7-3.1h1.9v-2.1h-1.9zm0 3.1h1.9v-2.2h-1.9zm2.4 1.3c1.4.6 2.7 1.2 4.1 1.8l-.5.9c-1.5-.7-2.8-1.4-4.1-1.9zm2.2-6.5h-1.9v2.1h1.9zm-1.9 5.2h1.9v-2.2h-1.9z"/></g></svg>