<svg enable-background="new 0 0 400 400" viewBox="0 0 400 400" xmlns="http://www.w3.org/2000/svg"><path d="m5.17 384 .55-.58c.85.61 1.65 1.24 2.4 1.87l-.59.64c-.83-.73-1.62-1.38-2.36-1.93m1.22 9.53-.82-.34c.71-1.76 1.37-3.64 1.98-5.63.24.13.5.25.76.36-.6 1.67-1.24 3.54-1.92 5.61m-.5-13.5.57-.54c.56.44 1.31 1.06 2.26 1.87l-.64.64c-.68-.66-1.41-1.32-2.19-1.97m3.25.46h2.24v-1.36h.77v1.36h4.57v-1.36h.76v1.36h2.28v.69h-2.28v1.84h-2.64v1.26h4.18v2.64h-4.21c0 .45-.02.86-.05 1.21h4.32v.69h-4.38c-.04.34-.1.75-.19 1.22h5.15v.69h-4.82c.87 1.19 2.51 1.92 4.93 2.19-.17.31-.3.57-.37.76-2.77-.49-4.52-1.41-5.26-2.76-.56 1.26-2.3 2.23-5.24 2.9-.12-.24-.26-.48-.43-.72 2.73-.55 4.38-1.34 4.96-2.38h-4.38v-.69h4.65c.1-.38.17-.79.21-1.22h-4.32v-.69h4.4c.03-.34.05-.75.05-1.21h-4.2v-2.64h4.23v-1.26h-2.69v-1.84h-2.24zm1.46 4.46v1.29h3.45c.01-.4.02-.57.01-.53v-.32-.45h-3.46zm1.55-2.59h4.57v-1.19h-4.57zm6.11 2.59h-3.42v.77c-.01.19-.01.37-.02.53h3.44z" fill="#fafafc"/><path d="m32.63 379.16h.82v1.98h3.54v7.89h1.46v.78h-14.37v-.78h1.46v-7.89h3.54v-1.98h.82v1.98h2.73zm-3.49 11.48.5.73c-1.61.82-3.28 1.63-5 2.41-.13-.27-.28-.55-.44-.82 1.75-.72 3.4-1.49 4.94-2.32m-2.78-5.55h2.73v-3.18h-2.73zm0 3.95h2.73v-3.2h-2.73zm3.54-3.95h2.73v-3.18h-2.73zm0 3.95h2.73v-3.2h-2.73zm7.89 4.68c-1.84-.92-3.51-1.7-5.02-2.32l.45-.73c1.89.8 3.57 1.55 5.04 2.23zm-1.62-11.81h-2.73v3.18h2.73zm-2.73 7.13h2.73v-3.2h-2.73z" fill="#fafafc"/><path d="m180.82 110.84c.71-.91 1.38-1.66 1.93-2.49 12.67-18.94 28.76-34.79 45.16-50.39 9.33-8.87 18.49-17.91 27.62-26.98 1.58-1.57 3.08-2.22 5.3-1.92 12.55 1.72 21.76 7.52 25.91 20.14 1.6 4.87 3.79 9.55 5.8 14.28 3.59 8.44 8.51 15.94 15.56 21.96 1.13.96 2.23 2.36 2.59 3.76 7.92 30.33 19.83 59.34 29.42 89.11 4.13 12.84 6.38 26.27 9.9 39.32 4.94 18.33 10.34 36.54 15.39 54.84 3.84 13.93 7.33 27.98 6.41 42.6-.37 5.89-1.52 11.73-2.46 17.57-.18 1.14-.88 2.28-1.58 3.24-6.44 8.74-12.87 17.49-19.47 26.1-1.05 1.36-2.83 2.5-4.49 3-9.91 2.97-19.71 3.07-29.57-.81-6.85-2.69-14.04-4.5-21.01-6.88-1.48-.5-2.87-1.59-4-2.7-3.82-3.76-7.35-7.83-11.3-11.45-5.14-4.71-5.16-10.58-4.53-16.73.02-.22.09-.45.2-.64 1.15-1.83 10.25-2.02 11.65-.36 3.46 4.08 6.63 8.52 10.61 12.03 10.15 8.94 22.12 9.16 34.48 5.89 1.4-.37 2.58-1.7 3.79-2.67 2.36-1.89 4.51-4.08 7.04-5.7 7.47-4.79 9.69-12.2 10.61-20.32 1.1-9.7-.24-19.24-2.53-28.61-2.89-11.82-6.22-23.54-9.28-35.32-.56-2.14-1.81-3.06-3.87-3.54-5.82-1.35-11.53-.63-16.67 1.98-10.16 5.16-19.99 10.95-30.09 16.24-3.09 1.62-6.54 2.8-9.96 3.49-2.96.6-5.45-.94-6.71-3.88-1.51-3.54-.9-7.41 1.49-9.53 15.46-13.78 30.9-27.58 46.45-41.26 2.05-1.8 2.63-3.36 1.76-6.01-1.71-5.2-3.01-10.53-4.46-15.81-1.24-4.5-2.29-8.95-6.11-12.33-1.61-1.42-2.29-4.01-3.1-6.18-2.8-7.51-5.03-15.26-8.28-22.57-7.45-16.74-15.6-33.18-23-49.94-3.56-8.05-5.79-16.68-9.17-24.82-2.3-5.54-5.55-10.68-8.56-16.33-1.03.92-1.71 1.43-2.27 2.04-8.51 9.21-17.02 18.41-25.47 27.68-1.34 1.47-2.42 3.21-3.47 4.91-3.24 5.23-6.18 10.66-9.67 15.71-3.76 5.44-5.67 11.05-5.24 17.81.33 5.24-3.84 8.59-7.57 11.61-3.26 2.64-5.18 5.74-5.33 10.06 4.32 2.31 9.06 3.4 13.62 2.38 8.34-1.87 12.15 2.87 12.23 11.86-5.07 1.89-10.13 3.93-15.29 5.66-5.72 1.92-7.57 5.94-8.14 11.68-.92 9.21.2 17.27 8.6 22.8.7.46 1.18 1.27 1.92 2.1-2.32 2.03-4.49 3.94-6.66 5.84-2.09 1.84-4.19 3.68-6.48 5.69 3.72 2.84 4.54 6.45 4.32 10.81-.33 6.67 5.3 11.6 12.22 11.28 6.53-.31 9.05 1.54 10.92 8.48-3.04 1.52-6.15 3.22-9.37 4.66-5.93 2.65-7.63 5.25-7.36 11.62.76 17.78 1.35 35.57 2.37 53.33.26 4.6 1.64 9.19 2.92 13.66 2.2 7.71.77 14.83-3.1 21.56-.84 1.47-2.37 2.73-3.87 3.59-5.63 3.23-7.49 2.42-9.29-3.65-5.55-18.73-8.31-38-10.95-57.27-1.42-10.4-2.11-20.91-2.79-31.4-.21-3.25-1.33-4.8-4.47-4.78-6.8.05-13.61.17-20.41.28-.89.01-1.79.18-2.68.14-7.3-.29-9.47-3.84-6.14-10.34.56-1.09 1.95-2.17 3.14-2.45 7.82-1.84 15.69-3.46 24.07-5.26.1-1 .41-2.53.37-4.04-.17-5.93-.51-11.85-.66-17.78-.05-1.95-.75-2.71-2.73-2.9-5.01-.47-9.99-1.14-14.98-1.8-4.8-.63-8.22-7.11-5.92-11.37.38-.7 1.57-1.09 2.46-1.35 4.18-1.23 8.38-2.38 12.58-3.52 3.23-.88 5.23-2.94 5.92-6.18.77-3.6 1.36-7.24 2.14-10.84.42-1.96-.45-2.86-2.13-3.51-5.2-2.04-10.46-2.01-15.81-.71-6.53 1.59-8.66-.07-8.85-6.76-.25-8.59 1.04-10.42 9.28-12.61 2.48-.66 5.04-1.03 7.57-1.41 2.93-.45 4.71-2.16 5.14-4.97.45-2.9 1.09-5.72-2.07-8.08-14.8-11.04-29.52-22.2-44.08-33.55-5.55-4.32-10.64-9.23-15.86-13.98-5.33-4.85-11.51-7.54-18.97-7.91-1.42 3.36-2.96 6.7-4.26 10.13-5.46 14.35-12.01 28.19-19.91 41.33-6.05 10.06-9.6 20.83-11.32 32.35-2.32 15.52-4.02 31.06-3.18 46.8.22 4.13 1.68 6.91 5.07 9.73 9.67 8.05 20.91 12.26 32.79 15.3 6.87 1.76 12.02 5.35 13.68 12.7.17.74.17 1.53.26 2.45-7.45 1.81-14.72 1.22-21.94-.68-8.53-2.24-16.99-4.77-25.58-6.73-5.44-1.24-9.34 1.72-9.56 7.38-.46 11.62-.25 23.27-.63 34.9-.23 7.12 1.73 13.64 3.9 20.26 1.76 5.37 2.78 10.98 4.14 16.48.21.85.31 1.82.8 2.49 3.49 4.78 7.08 9.49 10.95 14.66 4.42-3.7 8.7-2.62 13.33-.2 3.59 1.87 7.89 1.51 11.34-.55 6.1-3.66 12.07-7.62 17.71-11.95 5.18-3.99 10.51-6.76 17.22-5.88.54.07 1.06.26 2.27.58-.68 2.97-.95 6.01-2.08 8.69-2.16 5.15-5 9.62-10.13 12.84-17.99 11.31-37.12 18.65-58.62 18.65-1.46 0-3.29-.68-4.33-1.68-6.84-6.61-13.53-13.38-20.23-20.14-.68-.69-1.47-1.53-1.66-2.42-3.24-15.19-6.6-30.35-9.49-45.61-2.72-14.37-1.57-28.8.79-43.1 4.74-28.79 9.6-57.56 14.66-86.3 1.24-7.02 3.77-13.81 5.09-20.83 1.73-9.2 2.8-18.53 4.25-27.78.31-1.95.78-3.96 1.63-5.72 6.07-12.59 12.69-24.93 18.23-37.74 3.21-7.42 4.74-15.57 7-23.39.62-2.15 1.53-4.3 1.65-6.49.31-5.94 4.13-7.82 9.13-8.4 1.04-.12 2.48.19 3.22.86 11.89 10.89 23.77 21.78 35.43 32.91 1.62 1.54 1.91 4.41 3.08 6.52.63 1.13 1.74 2.03 2.79 2.85.58.45 1.44.6 2.2.75 16.83 3.49 30.17 13.57 43.79 23.14 1.23.91 2.55 1.73 3.94 2.64z" fill="#010101"/></svg>