<svg enable-background="new 0 0 400 400" viewBox="0 0 400 400" xmlns="http://www.w3.org/2000/svg"><g fill="#fcfafa"><path d="m342.2 3.2-6.3 9.2h6.1v1.2h-8.2v-.5l6.2-9.1h-5.7v-1.2h7.8v.4z"/><path d="m344 13.7v-10.9h3.1c1.6 0 3 .5 4.1 1.4 1.1 1 1.6 2.2 1.6 3.9s-.5 3-1.6 4-2.5 1.5-4.2 1.5h-3zm1.4-9.6v8.4h1.6c1.4 0 2.5-.4 3.2-1.1.8-.8 1.2-1.8 1.2-3.2s-.4-2.4-1.2-3.1-1.8-1-3.1-1z"/><path d="m356.3 2.8v10.9h-1.4v-10.9z"/><path d="m366.6 13.2c-.8.4-1.8.6-3 .6-1.6 0-2.8-.5-3.7-1.5s-1.4-2.3-1.4-3.9c0-1.7.5-3.2 1.6-4.2s2.4-1.6 4-1.6c1 0 1.9.1 2.6.4v1.5c-.8-.4-1.6-.6-2.6-.6-1.2 0-2.2.4-3 1.2s-1.1 1.9-1.1 3.3c0 1.3.4 2.3 1.1 3.1s1.6 1.1 2.8 1.1c1.1 0 2-.2 2.8-.7v1.3z"/><path d="m368.2 13c0-.3.1-.5.3-.6.2-.2.4-.3.6-.3.3 0 .5.1.7.3s.3.4.3.6-.1.5-.3.6c-.2.2-.4.3-.7.3s-.5-.1-.6-.3c-.2-.2-.3-.4-.3-.6z"/><path d="m381.1 13.7h-1.7l-5.5-8.4c-.2-.2-.3-.5-.4-.7 0 .2.1.8.1 1.5v7.6h-1.4v-10.9h1.8l5.3 8.3c.3.4.4.6.4.8 0-.3-.1-.8-.1-1.6v-7.5h1.4v10.9z"/><path d="m389.7 13.7h-5.8v-10.9h5.6v1.2h-4.2v3.5h3.9v1.2h-3.9v3.7h4.4z"/><path d="m398.4 4.1h-3.1v9.6h-1.4v-9.6h-3.1v-1.3h7.7v1.3z"/></g><path d="m64.19 74.24c1.82-1.03 3.24-1.83 4.59-2.58-.85-2.36-1.58-4.39-2.53-7.02 3.6-.6 6.61-1.22 9.66-1.59 30.02-3.65 58.66-12.7 87.21-22.18 16.54-5.49 33.09-11.08 50.45-13.5 6.75-.94 13.55-1.57 20.33-2.26 1.19-.12 2.51-.07 3.62.33 15.1 5.46 29.43 12.47 42.55 21.77 4.61 3.27 8.44 7.43 9.8 13.2.95 4.04.73 7.67-2.51 11.12-2.08 2.22-3.72 5.54-4.11 8.56-1.2 9.29-2.3 18.67-2.34 28.02-.06 14.29-1.97 28.26-4.63 42.24-.9 4.74-.35 9.8-.15 14.7.06 1.4.94 2.98 1.9 4.1 7.43 8.67 14.98 17.23 22.44 25.87.85.98 1.88 2.21 1.95 3.38.91 14.41 6.22 27.89 8.74 41.93 1.79 9.99 3.24 20.18 3.31 30.3.1 14.76 2.43 29.17 4.67 43.63 1.37 8.83 1.51 8.81-6.71 11.99-.4.16-.83.23-2.11.59-3.88-8.45-8.7-16.66-11.47-25.5-4.77-15.21-8.37-30.8-12.25-46.28-4.43-17.66-8.42-35.44-13.09-53.04-1.25-4.7-4.27-8.94-6.47-13.38-.42.07-.84.15-1.26.22-.47 1.15-1.07 2.27-1.4 3.47-4.2 15.35-12.05 28.45-23.97 39.05-.33.3-.56.72-.92.97-6.2 4.47-6.47 10.65-4.33 17.03 3.36 10.04 7.08 19.97 10.92 29.84.94 2.43 2.69 4.66 4.45 6.64 16.69 18.85 33.46 37.64 50.25 56.41 1.18 1.31 2.63 2.41 4.07 3.45 5.62 4.07 11.35 7.97 16.89 12.14 4.02 3.02 7.09 6.89 8.01 11.99.16.89-.65 2.5-1.46 2.94-4.01 2.18-7.93 1.16-11.84-.71-9-4.31-16.37-10.84-23.92-17.15-13.31-11.13-26.78-22.06-39.88-33.42-4.43-3.85-8-8.71-11.85-13.21-9.08-10.63-17.87-21.54-27.24-31.91-4.62-5.11-10.11-9.49-15.49-13.85-5.97-4.85-13.11-6.01-20.58-5.05-.92.12-2.13 1.45-2.42 2.45-2.77 9.78-5.82 19.52-7.9 29.45-2.22 10.63-7.45 19.5-13.89 27.92-12.28 16.05-27.76 28.55-44.61 39.3-9.68 6.17-20.12 11.14-30.3 16.49-4.38 2.3-9.11 2.75-14.05 1.57-.77-3.89-.32-6.94 2.94-9.88 12.46-11.23 24.91-22.51 36.83-34.3 10.74-10.62 20.78-21.98 28.11-35.36 6.92-12.62 9.2-26.04 5.95-40.19-.31-1.33-1.31-2.83-2.43-3.6-8.95-6.13-18.04-12.06-27.01-18.16-1.53-1.04-2.95-2.41-4.04-3.9-11.86-16.21-20.49-33.91-23.17-53.97-1.57-11.74-2-23.63-3.18-35.42-1.44-14.36-2.89-28.72-4.88-43-.57-4.07-3-7.89-4.63-11.81-1.49-3.63-3.06-7.19-4.62-10.84zm16.3 3.44c6.69 5.91 13.22 12.01 20.14 17.65 3.7 3.01 3.91 6.46 2.96 10.46-.33 1.4-1.37 2.69-1.47 4.07-.25 3.48-.45 7.01-.11 10.46.29 2.92 2.4 4.4 5.44 4.09 4.09-.41 8.22-.62 12.23-1.43 3.7-.74 7.2-2.5 10.9-3.22 13.91-2.72 27.89-5.11 41.81-7.8 22.09-4.27 44.25-7.65 66.88-6.29 4.22.25 8.46.04 12.88.04.31-1.64.64-3.03.84-4.44 1.45-10.41.4-20.77-.95-31.08-.88-6.68-2.39-13.26-6.88-18.6-3.51-4.17-7.53-6.35-13.48-4.63-11.26 3.25-22.7 5.89-34.07 8.72-17.99 4.49-35.96 9.03-53.98 13.35-10.89 2.61-21.39 5.81-29.05 14.73-.47.55-1.3.84-2.01 1.11-7.73 2.96-15.09 2.32-21.27-3.35-3.17-2.89-6.74-3.6-10.81-3.84zm137.81 92.39c2.85 0 6.36.33 9.78-.09 3.82-.46 7.65-1.32 11.31-2.52 3.42-1.12 5.8-3.57 6.7-7.3 1.97-8.14 4.44-16.18 5.93-24.4.86-4.74.45-9.76.17-14.63-.16-2.87-1.67-4.02-5.04-2.94-14.35 4.62-28.78 9.01-43.24 13.29-28.25 8.38-55.97 18.79-85.41 22.56-2.9.37-6-.83-9.01-1.28-2.05-.31-4.1-.74-6.15-.75-.64 0-1.86 1.22-1.83 1.85.32 7.79-.19 15.77 3.52 22.99.73 1.43 2.55 2.9 4.09 3.19 4.48.84 9.06 1.37 13.62 1.51 19.95.6 39.31-3.94 58.83-7.09 11.98-1.93 23.74-5.66 36.73-4.39zm-106.81 33.05c1.62 2.96 2.29 5.14 3.71 6.6 4.78 4.97 9.91 9.6 14.73 14.53 2.77 2.84 6 4.56 9.83 5.29 6.03 1.16 12.02 2.73 18.1 3.38 8.95.95 17.99 1.15 25.47-5.28 3.71-3.19 7.89-4.37 12.68-3.74 3.04.4 5.47-.56 7.88-2.63 6.96-5.97 14.02-11.85 21.34-17.36 5.05-3.8 9.08-8.24 11.42-14.07.63-1.56 1.11-4.17.3-5.04-.89-.97-3.53-1.07-5.08-.55-9.32 3.1-18.52 6.57-27.83 9.74-4.21 1.43-8.5 2.86-12.86 3.56-14.57 2.34-29.19 4.32-43.78 6.49-8.82 1.32-17.54 3.31-26.34-.76-2.42-1.11-5.8-.16-9.57-.16z" fill="#010103"/><path d="m77.38 232.45c9.88 3.94 18.51 8.29 25.1 15.86 4.26 4.9 6.51 10.58 6.86 17.08.83 15.1-2.37 29.57-8.95 42.89-2.92 5.91-8.54 11-14.02 14.98-6.42 4.66-17.69-2.15-18.02-10.31-.2-4.8.56-9.29 3.72-13.52 8.26-11.05 10.09-24.12 10.5-37.48.3-9.92-.93-19.59-5.19-29.5z" fill="#010103"/></svg>