<svg enable-background="new 0 0 400 400" viewBox="0 0 400 400" xmlns="http://www.w3.org/2000/svg"><path d="m5.17 384 .55-.58c.85.61 1.65 1.24 2.4 1.87l-.59.64c-.83-.73-1.62-1.38-2.36-1.93m1.22 9.53-.82-.34c.71-1.76 1.37-3.64 1.98-5.63.24.13.5.25.76.36-.6 1.67-1.24 3.54-1.92 5.61m-.5-13.5.57-.54c.56.44 1.31 1.06 2.26 1.87l-.64.64c-.68-.66-1.41-1.32-2.19-1.97m3.25.46h2.24v-1.36h.77v1.36h4.57v-1.36h.76v1.36h2.28v.69h-2.28v1.84h-2.64v1.26h4.18v2.64h-4.21c0 .45-.02.86-.05 1.21h4.32v.69h-4.38c-.04.34-.1.75-.19 1.22h5.15v.69h-4.82c.87 1.19 2.51 1.92 4.93 2.19-.17.31-.3.57-.37.76-2.77-.49-4.52-1.41-5.26-2.76-.56 1.26-2.3 2.23-5.24 2.9-.12-.24-.26-.48-.43-.72 2.73-.55 4.38-1.34 4.96-2.38h-4.38v-.69h4.65c.1-.38.17-.79.21-1.22h-4.32v-.69h4.4c.03-.34.05-.75.05-1.21h-4.2v-2.64h4.23v-1.26h-2.69v-1.84h-2.24zm1.46 4.46v1.29h3.45c.01-.4.02-.57.01-.53v-.32-.45h-3.46zm1.55-2.59h4.57v-1.19h-4.57zm6.11 2.59h-3.42v.77c-.01.19-.01.37-.02.53h3.44z" fill="#fafafc"/><path d="m32.63 379.16h.82v1.98h3.54v7.89h1.46v.78h-14.37v-.78h1.46v-7.89h3.54v-1.98h.82v1.98h2.73zm-3.49 11.48.5.73c-1.61.82-3.28 1.63-5 2.41-.13-.27-.28-.55-.44-.82 1.75-.72 3.4-1.49 4.94-2.32m-2.78-5.55h2.73v-3.18h-2.73zm0 3.95h2.73v-3.2h-2.73zm3.54-3.95h2.73v-3.18h-2.73zm0 3.95h2.73v-3.2h-2.73zm7.89 4.68c-1.84-.92-3.51-1.7-5.02-2.32l.45-.73c1.89.8 3.57 1.55 5.04 2.23zm-1.62-11.81h-2.73v3.18h2.73zm-2.73 7.13h2.73v-3.2h-2.73z" fill="#fafafc"/><path d="m194.55 112.73c25.25-24.22 36.84-55.44 47.96-87.02 14.44 1.69 25.37 8.94 33.2 20.61 14.14 21.06 25.31 43.7 34.42 67.34 10.46 27.13 19.47 54.7 25.21 83.31 2.85 14.21 1.6 28.01-1.39 41.85-2.46 11.37-2.83 22.8-2.17 34.36.46 8.04.68 16.1.81 24.15.02 1.22-.77 2.75-1.67 3.64-3.73 3.65-5.67 7.63-5.02 13.15.75 6.4-.78 12.26-7.32 15.49-3.56 1.75-5.69 4.67-7.45 8.22-5.63 11.31-13.19 20.99-24.37 27.43-7.72 4.45-16.27 6.08-24.88 7.58-4.71.82-9.42 1.63-14.58 2.53 0-5.15-.12-9.93.12-14.69.04-.83 1.47-1.8 2.46-2.35 10.87-5.99 21.8-11.86 32.65-17.88 1.61-.89 3.13-2.17 4.3-3.58 23.74-28.61 32.46-61.72 28.76-98.29-2.86-28.26-10.82-55.45-18.64-82.62-6.16-21.38-13.61-42.34-22.69-62.67-3.04-6.8-6.97-13.22-10.86-19.6-2.26-3.71-6.27-4.89-10.45-5.06-.79-.03-1.83.69-2.41 1.37-8.37 9.78-16.91 19.42-24.89 29.51-2.99 3.78-5.05 8.47-6.81 13.02-3.83 9.94-8.52 19.03-19.3 23.79 6.45 7.02 12.06 14.04 18.71 19.88 2.33 2.05 7.2 1.31 10.94 1.6 1.99.15 4.01-.26 6.02-.34 3.67-.14 5.08 1.44 4.7 5.14-.46 4.54-2 7.71-7.17 8.97-7.14 1.74-14.07 4.38-21.02 6.84-1.04.37-2.4 1.81-2.42 2.78-.17 10.97-.1 21.94-.08 32.9 0 .42.17.84.28 1.39 6.21 0 12.33.02 18.44-.02 1.22-.01 2.44-.31 3.67-.37 9.22-.45 13.21 3.26 13.76 13.11-7.37 1.85-14.81 3.72-22.25 5.59-1.08.27-2.16.68-3.26.75-6.5.46-9.14 4.64-9.65 10.42-.58 6.56-.79 13.17-.92 19.76-.02 1.05 1.02 2.4 1.94 3.13 6.45 5.06 13.89 6.21 21.87 5.48 7.36-.67 14.4.75 21.58 4.19-5.19 4.09-10.67 6-16.83 6.18-6.35.18-12.7.06-18.81 2.56-5.38 2.2-8.73 5.82-10.44 11.33-2.79 9.01-1.59 17.9.29 26.84 1.3 6.18 1.97 12.43-.12 18.55-.84 2.46-2.31 4.71-3.76 7.6-8.44-9.8-13.67-19.89-12.23-32.53.84-7.4.43-14.71-1.59-21.94-.7-2.51-2.09-4.04-4.36-5.08-5.52-2.52-11.11-2.02-16.72-.46-2.15.6-4.23 1.44-6.37 2.06-7.16 2.06-11.72-.46-13.83-7.62-.37-1.26-.51-2.59-.84-4.35 14.29-2.13 28.37-4.24 42.59-6.36.58-11.78 1.15-23.25 1.74-35.1-8.52-1.14-16.72-2.07-24.86-3.39-4.6-.75-9.17-1.91-13.62-3.33-2.08-.67-3.83-2.4-6.56-4.19 8.23-3.06 15.39-5.8 22.61-8.37 4.1-1.46 8.25-2.89 12.47-3.91 11-2.66 12.63-8.45 10.65-18.31-1.24-6.17-3.94-12.06-6.24-17.98-.39-1.01-2.09-2.13-3.2-2.14-7.47-.09-14.98-.35-22.41.32-11.2 1-12.46-6.53-9.84-13.51.92-2.45 5.59-4.12 8.84-4.87 3.36-.78 7.09.19 10.65.01 3.63-.18 7.39-.35 10.82-1.39 4.99-1.5 7.3-5.45 6.64-10.64-.36-2.84-1.35-5.63-2.29-8.36-.69-2-1.83-3.83-2.63-5.8-3.37-8.24-8.75-14.81-15.53-20.63-12.81-11.01-25.18-22.54-37.74-33.85-.82-.74-1.67-1.46-2.84-2.48-2.8 3.59-5.32 7.26-8.29 10.52-6.56 7.19-10.4 15.54-12.89 24.94-4.82 18.25-10.12 36.38-15.75 54.4-1.23 3.93-4.74 7.12-6.99 10.78-.92 1.5-1.83 3.35-1.8 5.03.46 26.85 1.06 53.7 1.68 80.55.04 1.65.32 3.34.8 4.92 6.27 20.75 12.54 41.5 18.98 62.19.57 1.82 2.07 3.66 3.65 4.79 9.75 7.04 19.15 14.46 26.05 24.45 2.43 3.52 4.07 7.59 6.1 11.48-4.76 3.47-9.28 4.23-14.39 2.78-8.46-2.41-15-7.12-20.59-14.03-21.73-26.85-34.89-57.55-42.04-91.06-4.88-22.86-6.01-45.96-2.36-69.04 1.4-8.87 4.88-17.4 7.41-26.09.41-1.39.66-2.86 1.24-4.17 2.44-5.49 2.72-10.86-.22-16.32-.53-.98-.35-2.62.04-3.77 6.94-20.41 13.95-40.81 21-61.18.43-1.23 1.19-2.4 2-3.43 6.84-8.71 13.84-17.3 20.57-26.09 6.88-8.98 15.73-14.36 26.93-16.01 2.27-.33 3.58.1 4.95 2.11 11.67 17.08 23.32 34.18 35.33 51.03 4.44 6.18 9.79 11.65 14.82 17.57z" fill="#010101"/></svg>