<svg enable-background="new 0 0 400 400" viewBox="0 0 400 400" xmlns="http://www.w3.org/2000/svg"><path d="m5.17 384 .55-.58c.85.61 1.65 1.24 2.4 1.87l-.59.64c-.83-.73-1.62-1.38-2.36-1.93m1.22 9.53-.82-.34c.71-1.76 1.37-3.64 1.98-5.63.24.13.5.25.76.36-.6 1.67-1.24 3.54-1.92 5.61m-.5-13.5.57-.54c.56.44 1.31 1.06 2.26 1.87l-.64.64c-.68-.66-1.41-1.32-2.19-1.97m3.25.46h2.24v-1.36h.77v1.36h4.57v-1.36h.76v1.36h2.28v.69h-2.28v1.84h-2.64v1.26h4.18v2.64h-4.21c0 .45-.02.86-.05 1.21h4.32v.69h-4.38c-.04.34-.1.75-.19 1.22h5.15v.69h-4.82c.87 1.19 2.51 1.92 4.93 2.19-.17.31-.3.57-.37.76-2.77-.49-4.52-1.41-5.26-2.76-.56 1.26-2.3 2.23-5.24 2.9-.12-.24-.26-.48-.43-.72 2.73-.55 4.38-1.34 4.96-2.38h-4.38v-.69h4.65c.1-.38.17-.79.21-1.22h-4.32v-.69h4.4c.03-.34.05-.75.05-1.21h-4.2v-2.64h4.23v-1.26h-2.69v-1.84h-2.24zm1.46 4.46v1.29h3.45c.01-.4.02-.57.01-.53v-.32-.45h-3.46zm1.55-2.59h4.57v-1.19h-4.57zm6.11 2.59h-3.42v.77c-.01.19-.01.37-.02.53h3.44z" fill="#fafafc"/><path d="m32.63 379.16h.82v1.98h3.54v7.89h1.46v.78h-14.37v-.78h1.46v-7.89h3.54v-1.98h.82v1.98h2.73zm-3.49 11.48.5.73c-1.61.82-3.28 1.63-5 2.41-.13-.27-.28-.55-.44-.82 1.75-.72 3.4-1.49 4.94-2.32m-2.78-5.55h2.73v-3.18h-2.73zm0 3.95h2.73v-3.2h-2.73zm3.54-3.95h2.73v-3.18h-2.73zm0 3.95h2.73v-3.2h-2.73zm7.89 4.68c-1.84-.92-3.51-1.7-5.02-2.32l.45-.73c1.89.8 3.57 1.55 5.04 2.23zm-1.62-11.81h-2.73v3.18h2.73zm-2.73 7.13h2.73v-3.2h-2.73z" fill="#fafafc"/><path d="m220.23 325.25c4.81.15 8.9.72 12.53 4.49 5.94 6.16 12.96 11.31 21.61 12.84 15.03 2.66 32.69-1.3 43.65-18.69 4.86-7.71 5.48-15.65 3.69-24.09-.19-.91-2.27-1.99-3.5-2.03-11.18-.34-22.37-.23-33.53-.77-4.25-.2-8.72-1.11-12.6-2.82-7.14-3.14-10.31-9.52-11.59-17.18 5.76-1.34 11.04-.03 16.34 2.02 4.75 1.84 9.55 4.11 14.51 4.71 12.35 1.49 23.87-9.02 24.12-21.49.24-12.23-2.55-23.97-6.46-35.46-.34-1-1.87-2.23-2.87-2.25-5.88-.11-11.83-.41-17.64.31-24.74 3.06-49.42 6.55-74.15 9.7-16.31 2.08-32.64 4-48.99 5.69-11.9 1.23-23.84 2.53-35.78 2.71-6.72.1-9.54 3.8-10.74 8.79-2.63 10.95-1.06 21.02 6.46 30.38 7.89 9.82 18.05 10.92 29.14 10.36 6.85-.34 13.09-2.54 18.79-6.43 3.13-2.13 6.49-3.93 10.07-6.07.94 1.92 1.88 3.64 2.6 5.46.22.56.09 1.6-.3 2.02-6.31 6.83-12.7 13.58-21 18.08-7.83 4.25-15.95 5.05-24.63 2.75-5.9-1.57-12.02-2.29-18.5-3.48.31 7.29-1.52 14.19 3.18 20.63 4.13 5.67 7.54 11.9 10.92 18.08 4.95 9.06 13.28 12.33 22.51 11.24 8.18-.96 16.1-4.31 24.04-6.88 1.18-.38 2.22-2.18 2.69-3.55 1.54-4.42 2.78-8.95 4.14-13.43 1.49-4.91 4.1-6.24 9.43-4.56-1.34 9.21-2.66 18.48-4.08 27.73-.12.78-.84 1.57-1.47 2.15-5.14 4.64-10.07 9.58-15.57 13.76-7.77 5.91-16.6 7.37-26.03 4.32-2.34-.76-4.77-1.31-7-2.3-1.97-.88-3.68-2.32-5.58-3.38-2.19-1.23-4.35-2.92-6.71-3.33-4.13-.71-7.1-2.73-9.09-6.15-6.43-11-13.24-21.83-18.84-33.25-2.82-5.75-4.76-12.64-4.67-18.98.26-17.3-1.75-34.38-3.04-51.55-1.37-18.2.72-36.19 3.72-54.1 5.75-34.31 10.68-68.72 13.23-103.45 1.03-14.06 2.88-28.06 3.53-42.13.26-5.53-1.69-11.16-2.68-16.74-.35-1.95-.83-3.87-1.33-6.19 1.86-.25 3.53-.97 4.86-.57 4.71 1.42 9.66 2.03 13.35 6.18 8.93 10.02 18.03 19.92 27.44 29.49 9.33 9.48 19.19 18.44 28.7 27.76 5.67 5.55 10.87 11.6 16.75 16.92 3.32 3 7.56 4.98 11.41 7.38 1.61 1 2.77.52 3.99-.94 21.95-26.27 45.55-51.15 66.01-78.67 4.42-5.95 10.07-10.38 16.79-13.58 1.96-.93 3.24-.73 4.73.6 4.88 4.35 7.14 10.07 7.69 16.3.6 6.77.76 13.63.49 20.43-.44 11.06-1.82 22.1-1.96 33.16-.1 7.9 1.15 15.82 1.87 23.73 1.91 21.17 3.86 42.33 5.79 63.5.95 10.47 1.74 20.96 2.91 31.41.4 3.51 1.56 6.99 2.74 10.35 4.46 12.77 6.13 26.07 7.76 39.39.54 4.44 1.67 8.87 1.67 13.3 0 7.78-.44 15.59-1.16 23.34-.31 3.37-.18 6.45 1.34 9.4 1.68 3.26 1.33 6.16-.38 9.42-2.91 5.53-5.54 11.23-7.9 17.02-1.83 4.49-4.45 8.15-8.36 11-15.4 11.21-32.12 16.97-51.32 12.45-4.85-1.14-9.27-3.07-12.68-6.99-2.86-3.29-6.06-6.28-9.03-9.47-5.1-5.51-7.16-11.99-6.03-19.8zm66.72-124.42c-.71-7.86-1.06-15.55-2.21-23.12-.95-6.25-2.67-12.4-4.41-18.49-.46-1.6-2.1-3.8-3.47-4.03-4.48-.74-9.16-1.31-13.65-.85-13.34 1.36-26.63 3.18-39.93 4.94-32.12 4.25-64.25 8.5-96.35 12.93-8.53 1.18-16.62 3.93-24.01 8.31 1.14 4.52 5.09 1.81 7.67 3.46-2.72 2.27-5.49 4.33-7.93 6.73-1.14 1.12-2.06 2.83-2.34 4.4-.82 4.5-1.35 9.05-1.78 13.61-.13 1.34.02 3.14.82 4.05 2.88 3.26 6.02 6.31 9.23 9.25.76.69 2.21 1.06 3.26.92 6.42-.85 12.83-1.84 19.23-2.87 11.92-1.92 23.81-3.92 35.97-2.41 3.3.41 6.74.39 10.04-.02 17.41-2.16 34.81-4.45 52.19-6.83 3.59-.49 7.62-.72 10.53-2.54 3.98-2.5 7.98-3.55 12.49-3.96 11.33-1.04 22.64-2.27 34.65-3.48zm-167.98-121.8c-2.66 7.85-4.09 14.51-3.28 21.39 1.23 10.48.71 20.69-2.84 30.75-2.08 5.88-3.57 11.98-5.18 18.02-1.4 5.24 1.3 8.2 6.42 7.21 1.43-.27 2.85-.58 4.28-.79 18.88-2.71 37.34-8.2 56.58-8.61 3.25-.07 6.37-1.04 8.59-4.22-13.81-17.51-27.25-35.31-44.36-49.75-6.07-5.14-13.1-9.14-20.21-14zm149.58-13.26c-4.17 3.98-8.1 8.3-12.6 11.91-8.64 6.93-15.7 15.15-22.11 24.13-5.5 7.71-11.83 14.84-17.28 22.59-2.48 3.53-4.03 7.82-5.41 11.97-.75 2.25.48 3.87 3.49 3.64 11.58-.88 23.2-1.27 34.75-2.41 8.56-.85 16.93-2.88 24.72-6.86 2.07-1.06 2.41-2.28 2.16-4.51-.8-7.2-1.66-14.43-1.75-21.66-.1-8.59.23-17.23 1.06-25.78.64-6.28-.55-10.96-7.03-13.02z" fill="#010101"/></svg>