<svg enable-background="new 0 0 400 400" viewBox="0 0 400 400" xmlns="http://www.w3.org/2000/svg"><g fill="#fcfafa"><path d="m342.2 3.2-6.3 9.2h6.1v1.2h-8.2v-.5l6.2-9.1h-5.7v-1.2h7.8v.4z"/><path d="m344 13.7v-10.9h3.1c1.6 0 3 .5 4.1 1.4 1.1 1 1.6 2.2 1.6 3.9s-.5 3-1.6 4-2.5 1.5-4.2 1.5h-3zm1.4-9.6v8.4h1.6c1.4 0 2.5-.4 3.2-1.1.8-.8 1.2-1.8 1.2-3.2s-.4-2.4-1.2-3.1-1.8-1-3.1-1z"/><path d="m356.3 2.8v10.9h-1.4v-10.9z"/><path d="m366.6 13.2c-.8.4-1.8.6-3 .6-1.6 0-2.8-.5-3.7-1.5s-1.4-2.3-1.4-3.9c0-1.7.5-3.2 1.6-4.2s2.4-1.6 4-1.6c1 0 1.9.1 2.6.4v1.5c-.8-.4-1.6-.6-2.6-.6-1.2 0-2.2.4-3 1.2s-1.1 1.9-1.1 3.3c0 1.3.4 2.3 1.1 3.1s1.6 1.1 2.8 1.1c1.1 0 2-.2 2.8-.7v1.3z"/><path d="m368.2 13c0-.3.1-.5.3-.6.2-.2.4-.3.6-.3.3 0 .5.1.7.3s.3.4.3.6-.1.5-.3.6c-.2.2-.4.3-.7.3s-.5-.1-.6-.3c-.2-.2-.3-.4-.3-.6z"/><path d="m381.1 13.7h-1.7l-5.5-8.4c-.2-.2-.3-.5-.4-.7 0 .2.1.8.1 1.5v7.6h-1.4v-10.9h1.8l5.3 8.3c.3.4.4.6.4.8 0-.3-.1-.8-.1-1.6v-7.5h1.4v10.9z"/><path d="m389.7 13.7h-5.8v-10.9h5.6v1.2h-4.2v3.5h3.9v1.2h-3.9v3.7h4.4z"/><path d="m398.4 4.1h-3.1v9.6h-1.4v-9.6h-3.1v-1.3h7.7v1.3z"/></g><path d="m54.7 130.59c5.07 1.99 10.16 3.91 15.18 6.02 1.07.45 1.9 1.51 2.76 2.38 14.69 14.79 29.95 28.94 47.26 40.65 9.6 6.49 20.16 10.63 32.1 9.9.77-.05 1.54-.15 2.85-.28.53-3.58 1.29-7.17 1.53-10.78.19-2.81 1.5-4.11 4.01-3.5 3.39.83 7.08 1.55 9.87 3.45 11.08 7.54 23.24 10.01 36.35 8.98.63-.05 1.23-.37 2.53-.78-5.17-3.24-9.7-6.48-14.58-9.07-16.47-8.76-32.95-17.53-49.67-25.8-5.55-2.74-11.87-3.9-17.75-6.02-1.53-.55-3.13-1.75-4.04-3.09-6.47-9.66-12.84-19.4-19.08-29.21-1.31-2.06-2.92-3.06-5.18-3.74-10.16-3.06-20.34-6.07-30.35-9.55-7.55-2.63-13.54-7.36-16.32-15.28-.42-1.21-.59-2.5-.98-4.23 4.94 1.06 9.46 1.76 13.81 3 13.4 3.84 26.71 2.75 40.16.13 17.72-3.44 33.35-11.79 49.37-19.53 22.62-10.93 45.62-21.07 68.57-31.31 5.07-2.26 10.61-3.46 15.92-5.18 10.01-3.24 20.15-2.03 30.25-.79 14.23 1.75 27.73 5.8 40.07 13.35 14.76 9.03 24.17 22.07 28.67 38.59 3.67 13.47 5.56 27.23 2.83 41.13-1.13 5.77-3.13 11.4-5.13 16.96-2.5 6.93-5.28 13.77-8.21 20.53-.83 1.91-2.29 3.85-3.99 5.03-23.27 16.1-46.63 32.07-69.96 48.08-.92.63-1.79 1.32-2.51 1.85 5.4 5.59 10.68 11.18 16.1 16.63 6 6.03 12.72 11.46 17.99 18.05 3.34 4.17 5.13 9.82 6.71 15.09 5.63 18.79 6.13 38.12 5.09 57.53-.77 14.34-3.4 28.31-7.18 42.21-2.32 8.52-7.4 11.99-15.28 13.09-.11.01-.22-.03-.58-.08-.93-10.39-1.65-20.87-2.83-31.29-2.57-22.66-5.28-45.3-8.11-67.93-1.53-12.25-8.28-21.8-16.78-30.23-8.74-8.67-17.62-17.23-29.27-22.08-6.47-2.69-13.07-3.55-19.99-1.92-2.04.48-2.91 1.24-3.3 3.37-2.95 15.94-6.19 31.82-9.03 47.77-.85 4.76-3.18 8.56-5.96 12.17-17.17 22.29-38.05 39.98-64.29 50.7-5.51 2.25-11.65 2.93-17.5 4.36-1.88.46-2.91-.34-3.6-2.04-1.19-2.95-1.43-5.81.12-8.73 2.18-4.08 4.88-7.52 8.75-10.34 19.29-14.03 34.14-31.89 43.93-53.65 6.13-13.62 6.76-27.9 2.42-42.27-.32-1.07-1.4-2.34-2.42-2.72-32.86-12.29-57-35.12-76.49-63.45-5.62-8.18-10.48-16.88-15.68-25.34.29-.27.56-.53.84-.79zm256.73-29.52c-.49-13.45-.59-26.24-6.03-38.16-6.35-13.9-20.91-19.46-32.64-18.74-11.61.71-22.7 4.51-33.35 9.42-11.75 5.42-23.68 10.45-35.5 15.74-.83.37-1.81 1.34-1.96 2.17-.86 4.94 1.18 8.8 5.34 11.28 13.32 7.94 26.77 15.71 39.85 24.04 15.74 10.02 31.17 20.52 49.07 26.49 1.01.34 2.74.65 3.2.13 4.52-4.98 9.74-9.51 10.13-17.1.28-5.33 1.3-10.63 1.89-15.27zm-184.3 3.21c2.5 6.15 6.52 10.28 12.01 13.08 5.46 2.79 10.93 5.58 16.32 8.5 2.44 1.32 4.55 3.29 7.05 4.43 32.18 14.73 65.47 26.98 96.76 43.7.84.45 2.59.14 3.41-.49 6.76-5.15 13.4-10.45 20.07-15.73.47-.37.79-.92 1.27-1.5-19.17-9.68-37.84-19.84-57.15-28.6-12.5-5.67-22.05-13.55-29.05-25.31-5.01-8.42-11.22-16.13-16.97-24.26-17.94 8.75-35.7 17.39-53.72 26.18z" fill="#010103"/></svg>