<svg enable-background="new 0 0 400 400" viewBox="0 0 400 400" xmlns="http://www.w3.org/2000/svg"><g fill="#fcfafa"><path d="m342.2 3.2-6.3 9.2h6.1v1.2h-8.2v-.5l6.2-9.1h-5.7v-1.2h7.8v.4z"/><path d="m344 13.7v-10.9h3.1c1.6 0 3 .5 4.1 1.4 1.1 1 1.6 2.2 1.6 3.9s-.5 3-1.6 4-2.5 1.5-4.2 1.5h-3zm1.4-9.6v8.4h1.6c1.4 0 2.5-.4 3.2-1.1.8-.8 1.2-1.8 1.2-3.2s-.4-2.4-1.2-3.1-1.8-1-3.1-1z"/><path d="m356.3 2.8v10.9h-1.4v-10.9z"/><path d="m366.6 13.2c-.8.4-1.8.6-3 .6-1.6 0-2.8-.5-3.7-1.5s-1.4-2.3-1.4-3.9c0-1.7.5-3.2 1.6-4.2s2.4-1.6 4-1.6c1 0 1.9.1 2.6.4v1.5c-.8-.4-1.6-.6-2.6-.6-1.2 0-2.2.4-3 1.2s-1.1 1.9-1.1 3.3c0 1.3.4 2.3 1.1 3.1s1.6 1.1 2.8 1.1c1.1 0 2-.2 2.8-.7v1.3z"/><path d="m368.2 13c0-.3.1-.5.3-.6.2-.2.4-.3.6-.3.3 0 .5.1.7.3s.3.4.3.6-.1.5-.3.6c-.2.2-.4.3-.7.3s-.5-.1-.6-.3c-.2-.2-.3-.4-.3-.6z"/><path d="m381.1 13.7h-1.7l-5.5-8.4c-.2-.2-.3-.5-.4-.7 0 .2.1.8.1 1.5v7.6h-1.4v-10.9h1.8l5.3 8.3c.3.4.4.6.4.8 0-.3-.1-.8-.1-1.6v-7.5h1.4v10.9z"/><path d="m389.7 13.7h-5.8v-10.9h5.6v1.2h-4.2v3.5h3.9v1.2h-3.9v3.7h4.4z"/><path d="m398.4 4.1h-3.1v9.6h-1.4v-9.6h-3.1v-1.3h7.7v1.3z"/></g><path d="m107.27 84.17c6.28-1.66 12.19-.68 17.53 2.47 6.05 3.57 12.05 7.35 17.58 11.66 12.6 9.84 25.68 10.03 40.02 4.11 11.64-4.81 23.92-8.01 35.69-12.54 10.88-4.19 21.86-6 33.43-4.55 3.09.39 6.26.39 9.38.23 1.03-.05 2.74-1.05 2.86-1.82.53-3.35 1.24-6.88.68-10.14-1.03-5.91-2.52-11.83-4.6-17.45-1.32-3.57-3.97-6.69-6.25-9.84-.33-.45-2.04-.15-3.01.15-28.56 8.7-56.86 18.09-83.78 31.23-1.77.87-4.09 1.13-6.08.94-5.11-.49-10.22-1.25-15.26-2.23-1.97-.38-3.88-1.46-5.63-2.53-2.76-1.69-5.46-3.51-8-5.51-2.58-2.03-4.93-4.34-7.39-6.52.14-.3.28-.61.42-.91 4.29-.43 8.57-1.07 12.88-1.26 13.49-.59 25.97-5.5 38.72-9.12 13.85-3.93 27.69-8.02 41.21-12.95 7.81-2.84 14.94-7.53 22.43-11.26 1.42-.71 3.21-1.4 4.67-1.16 17.58 2.83 31.62 11.31 41.04 26.66 1.31 2.14 2.01 5.02 2 7.56-.05 17.68.34 35.41-.75 53.03-1.78 28.63-7.61 56.47-19.55 82.78-.49 1.09-1.13 2.23-2.01 3.01-3.72 3.32-4.43 7.13-2.83 11.82 4.31 12.58 8.88 25.09 12.43 37.89 2.43 8.77 3.68 17.92 4.78 26.99 1.11 9.2 1.42 18.5 1.95 27.77.11 1.96-.04 4.07-.65 5.92-1.04 3.14-3.85 3.22-6.66 3.22-2.9 0-2.72-2.15-2.99-3.94-1.75-11.76-5.75-22.89-9.05-34.25-3.44-11.84-6.98-23.55-12.1-34.75-4.74-10.36-10.43-20.07-19.74-27.11-1.21-.91-2.55-1.65-4.75-3.06 0 4.39.01 7.92 0 11.44-.04 16.94-3.93 33.27-8.08 49.52-4.68 18.33-10.7 36.22-19.18 53.2-1.3 2.6-2.76 5.11-4.13 7.67-4.86 9.05-9.78 18.06-14.54 27.16-3.36 6.43-7.52 12.15-13.54 16.7-2.05-2.35-2.84-4.51-1.47-7.73 8.86-20.87 17.9-41.68 23.97-63.63 4.75-17.2 8.37-34.47 8.45-52.46.03-7.76 2.12-15.49 2.7-23.27.4-5.42-.12-10.92-.32-16.39-.09-2.61-1.3-4.53-3.6-5.96-2.46-1.53-4.61-3.57-7.07-5.1-17.85-11.14-30.91-27.36-45.05-42.43-.88-.94-1.46-2.24-1.98-3.45-6.37-14.9-12.87-29.75-18.96-44.76-2.4-5.92-5.8-10.74-10.95-14.45-3.46-2.48-5.82-5.58-4.87-10.6zm48.63 37.15c-1.24 5.23 3.45 16.55 7.97 19.19.46.27 1.06.45 1.6.45 7.67-.06 15.59 1.02 22.97-.51 12.19-2.54 24.02-6.78 36.01-10.27 1.69-.49 3.43-.98 5.18-1.11 10.48-.76 20.96-1.37 31.44-2.19 1.19-.09 2.92-.98 3.33-1.95 2.31-5.44 3.14-11.17 2.04-17.05-.92-4.9-6.13-7.45-10.44-5.74-8.39 3.33-17.04 6.04-25.65 8.78-10.64 3.38-21.4 6.42-30.94 12.54-1.46.94-3.15 1.64-4.84 2.08-4.74 1.26-9.64 2.03-14.29 3.54-6.76 2.2-12.23.36-16.43-4.92-2.19-2.73-4.44-3.8-7.95-2.84zm20.52 37.46c-.27.51-.55 1.02-.82 1.54 3.79 4.05 6.92 9.21 11.5 11.94 12.58 7.52 26.67 10.1 41.26 9.02 7.17-.53 13.62-2.96 18.35-9.05 3.14-4.05 7.29-7.34 10.26-11.49 1.97-2.75 3-6.34 3.75-9.71.25-1.13-1.36-3.39-2.66-4.02-3.38-1.62-7.02-1.9-10.66-.24-5.99 2.74-12.21 5.02-18.02 8.09-6.09 3.21-12.27 6.56-17.58 10.88-5.67 4.61-11.55 5.48-17.74 2.91-4.44-1.84-8.25-5.18-12.43-7.69-1.61-.96-3.47-1.47-5.21-2.18z" fill="#010103"/></svg>