<svg enable-background="new 0 0 400 400" viewBox="0 0 400 400" xmlns="http://www.w3.org/2000/svg"><path d="m169.84 150.36c-7.76-2.16-15.64-3.23-21.85-9.32-5.71-5.6-12.32-10.3-18.9-15.7-5.66 15.2-11.17 30.01-16.76 45.02 6.24 3.02 12.7 3.93 19.14 3.23 10.43-1.13 20.8-2.85 31.16-4.55 5.73-.94 11.36-2.5 17.08-3.47 2.4-.4 3.61-1.55 4.06-3.71 2.03-9.73 4.52-19.4 5.93-29.22 2.92-20.37 5.32-40.81 5.73-61.46.11-5.45 1.68-11.11 3.74-16.21 1.36-3.37 4.34-6.57 7.41-8.65 5.55-3.75 7.65-3.11 12.19 1.73 12.12 12.88 24.28 25.73 36.28 38.72 2 2.17 3.46 4.91 4.88 7.55 3.61 6.69 6.57 13.78 10.69 20.12 4.98 7.66 10.96 14.66 16.36 22.06 1.34 1.84 2.49 3.98 3.11 6.16 2.58 9.14 5.18 18.29 7.29 27.54 3.11 13.67 9.65 25.95 15.16 38.63 5.01 11.51 9.13 23.17 8.01 35.93-1.08 12.21-3.8 24.2-8.78 35.35-6.78 15.19-14.52 29.95-21.9 44.87-.43.88-1.11 1.7-1.84 2.36-3.72 3.35-5.8 7.51-6.89 12.37-1.46 6.49-4.66 12.06-9.78 16.44-4.13 3.53-8.52 4.52-13.61 1.96-2.77-1.39-5.77-2.35-8.73-3.32-4.74-1.56-8.22.54-11.1 4.11-2.76 3.42-8.48 2.68-10.22-1.35-5.44-12.62-11.23-25.11-16.1-37.95-1.84-4.86-1.7-10.52-2.19-15.84-1.04-11.48-1.94-22.97-2.81-34.46-.25-3.27-2.55-5.01-5.07-5.54-3.63-.76-7.53-1-11.22-.59-4.75.53-9.37 2.15-14.11 2.9-6.05.96-7.36 3.32-8.37 9.97-.82 5.39-.22 10.98 2.36 16.04 8.8 17.3 10.28 35.7 8.16 54.6-1.21 10.82-5.03 20.44-14.32 26.97-1.31.92-3.41.72-5.15 1.03-.09.02-.21-.09-.31-.11-13.12-1.77-23.15-9.06-32.74-17.58-5.23-4.64-10.04-9.38-13.72-15.39-8.76-14.32-17.83-28.5-22.48-44.81-2.48-8.68-3.85-17.67-6.08-26.43-3.01-11.79-6.42-23.48-9.51-35.25-.49-1.85-.68-4-.26-5.83 5.23-22.65 10.28-45.35 16.05-67.86 2.96-11.55 7.4-22.72 10.91-34.14 4.49-14.62 8.94-29.27 12.93-44.03 1.18-4.35 3.29-7.94 5.49-11.69 4.09-6.97 5.43-14.83 6.8-22.67 1.58-9.1 6.49-17.62 13.05-23.05 3.62 2.17 5.4 5.66 6.65 9.54 3.41 10.59 3.77 21.23 1.01 32.05-1.32 5.19-2.24 10.5-3 15.81-.26 1.82.12 4.01.94 5.67 4.96 9.96 11.19 19.11 18.57 27.43 8.49 9.57 11.34 20.32 7.24 32.64-.13.42-.33.81-.58 1.38zm101.14 83.88c3.19-.41 6.73-.8 10.26-1.33 1.74-.26 2.72-1.17 2.55-3.2-1.16-14.59-3.82-28.82-10.37-42.05-2.02-4.08-5.06-7.44-9.39-9.23-1.2-.49-2.99-.77-4.04-.23-13.97 7.19-29.03 9.43-44.45 10.11-6.14.27-12.39-.17-18.42.78-29.48 4.67-58.91 9.68-88.34 14.66-.98.17-2.3 1.08-2.62 1.96-2.17 5.87-4.19 11.79-6.09 17.75-1.49 4.69-1.07 9.33 1.36 13.62.56.98 1.86 1.92 2.97 2.15 6.36 1.28 12.89 1.87 19.11 3.58 8.73 2.41 16.84 1.53 25.02-2.08 2.61-1.15 5.92-1.58 8.75-1.19 5.77.8 11.27.62 16.78-1.33 7.79-2.75 15.77-4.14 24-2.21 9.37 2.2 18.37 1.15 27.1-2.79 1.62-.73 3.35-1.32 5.09-1.68 1.93-.4 3.96-.8 5.89-.63 11.51 1.02 22.97 2.19 34.84 3.34zm10.66 19.89c-7.82 0-14.69-.79-21.3.18-10.69 1.58-21.22 4.32-31.81 6.57-4.2.89-5.14 1.68-3.99 5.82 1.23 4.43 3.45 8.6 5.41 12.81 1.45 3.12 3.93 5.95 4.63 9.19 2.02 9.38 3.37 18.91 5 28.37 1.17 6.77 2.36 13.54 3.69 21.11 2.7-1.32 5.54-1.82 6.87-3.51 5.15-6.54 11.4-12.85 14.34-20.37 5.87-15.03 9.92-30.78 14.51-46.3 1.2-4.12 1.63-8.46 2.65-13.87zm-52.73-144.52c-5.75 17.37-11.27 34.06-16.9 51.07 16.57-.96 32.78-1.89 49.6-2.86-3.7-21.2-17.52-34.72-32.7-48.21zm-92.7 175.9c1.6-1.22 2.84-2.15 4.06-3.11 2.79-2.22 1.98-5.27 1.62-8.06-.33-2.58-2.3-3.59-4.78-3.86-4.1-.45-8.19-1.07-12.29-1.54-4.12-.47-7.09 2.52-6.68 6.66 1.15 11.81 4.48 23.05 9.86 33.54 3.03 5.91 7.13 11.28 10.98 16.73.54.76 2.48.97 3.6.71.71-.17 1.59-1.7 1.55-2.59-.31-8.48-.72-16.96-1.28-25.43-.33-5.04-1.8-9.66-6.64-13.05z" fill="#010102"/><g fill="#fcfbfa"><path d="m385.2 377.6.6-.7c.6.4 1.3.9 1.9 1.5l-.6.7c-.8-.5-1.4-1-1.9-1.5zm.3 7.1c.6-1.4 1.1-2.9 1.5-4.5.3.1.6.3.9.4-.5 1.4-1 2.9-1.5 4.4zm.2-10.1.6-.6c.7.5 1.3 1.1 1.9 1.6l-.7.7c-.6-.6-1.2-1.2-1.8-1.7zm8.4-.8h.8v.9h1.8v.7h-1.8v1.8h-.8v-.3h-1.2v.9h3.3v2.6h-.8v-.4h-2.5c0 .3 0 .6-.1.8h3.4v.7h-3.5c0 .3-.1.6-.1.8h4v.7h-3.5c.7.9 1.9 1.3 3.6 1.5-.2.2-.4.5-.6.9-1.9-.3-3.2-1.1-3.8-2.3-.5 1.1-1.8 2-3.9 2.4-.2-.3-.4-.5-.6-.8 1.9-.4 3.1-.9 3.6-1.7h-3.2v-.7h3.5c.1-.2.1-.5.2-.8h-3.3v-.7h3.4c0-.2 0-.5 0-.8h-2.4v.3h-.8v-2.6h3.3v-.9h-1.2v.3h-.8v-1.8h-1.8v-.7h1.8v-.9h.8v.9h3.2zm-4.4 5.5h2.4c0-.3 0-.6 0-.9h-2.4zm1.2-3.1h3.2v-.8h-3.2zm4.4 2.2h-2.4v.9h2.5v-.9z"/><path d="m389.2 385.8h.9v1.5h1.9v-1.5h.9v1.5h2.7v6h1.1v.9h-11.3v-.9h1.1v-6h2.7zm.2 8.7.5.8c-1.2.6-2.5 1.3-4 1.9-.2-.3-.3-.6-.6-.8 1.6-.6 3-1.3 4.1-1.9zm-2-4.3h1.9v-2.1h-1.9zm0 3.1h1.9v-2.2h-1.9zm2.7-3.1h1.9v-2.1h-1.9zm0 3.1h1.9v-2.2h-1.9zm2.4 1.3c1.4.6 2.7 1.2 4.1 1.8l-.5.9c-1.5-.7-2.8-1.4-4.1-1.9zm2.2-6.5h-1.9v2.1h1.9zm-1.9 5.2h1.9v-2.2h-1.9z"/></g></svg>