<svg enable-background="new 0 0 400 400" viewBox="0 0 400 400" xmlns="http://www.w3.org/2000/svg"><path d="m164.69 25.21c18.51-.74 36.3 13.54 39.2 31.16 1.12 6.8 4.52 11.49 11.35 13.94 17.87 6.41 35.62 13.18 53.41 19.82 1.03.39 2.21.72 2.97 1.45 9.97 9.46 20.39 18.52 29.67 28.62 12.76 13.9 16.06 30.78 12.51 49.11-.31 1.59-1.03 3.19-1.88 4.59-6.36 10.51-12.8 20.98-19.36 31.69 1.09.46 1.95 1.03 2.88 1.18 5.63.94 8.99 4.26 11.64 9.28 2.3 4.35 5.94 7.98 8.9 11.99.83 1.13 1.61 2.41 2.01 3.74 1.61 5.35 3 10.76 4.61 16.11 1.17 3.9 1.66 7.7 1.04 11.84-1.58 10.39-2.66 20.85-4.07 31.27-.21 1.58-.97 3.15-1.74 4.59-9.92 18.44-25.54 32.09-39.64 47.02-.83.87-2.57 1.28-3.87 1.23-3.13-.12-5.83.68-8.56 2.22-10.7 6.05-21.48 11.97-32.32 17.77-1.65.89-3.77 1.32-5.66 1.28-6.26-.11-12.51-.5-18.76-.83-1.78-.09-3.19-.04-3.81 2.19-.22.81-1.73 1.47-2.77 1.8-15.83 5.08-32.13 6.46-48.65 6.1-1.34-.03-2.68.05-4.02.17-5.42.49-10.71.35-15.41-2.9-3.47-2.39-7.29-1.44-11.05-1.22-2.68.16-5.37.54-8.03.39-5.22-.29-10.07-1.43-13.66-5.89-2.37-2.95-5.08-5.73-8.06-8.06-7.09-5.55-9.43-13.38-9.7-21.6-.4-12.38.22-24.8.46-37.2.01-.7.34-1.56.82-2.06 11.81-12.32 20.01-27.12 28.49-41.71 1.9-3.27 3.3-6.83 5.01-10.22 1.04-2.07.74-3.36-1.45-4.56-3.82-2.09-7.32-4.79-11.18-6.77-13.97-7.16-22.63-18.98-29.04-32.75-1.78-3.83-3.19-7.88-4.33-11.95-1.82-6.48-1.78-12.81.99-19.3 3.21-7.52 7.04-14.6 11.1-21.7 10.22-17.88 23.94-32.33 39.94-45.08 7.73-6.16 14.52-13.58 21.32-20.81 4.24-4.51 6.67-10.21 8.22-16.3 3.35-13.17 6.94-26.3 10.48-39.64zm-8.45 193.89c3.58 0 6.05.12 8.5-.02 7.81-.47 15.32-2.03 21.48-7.29 1.07-.91 1.99-2.38 2.28-3.74 1.19-5.68 2.28-11.4 3.08-17.14 1.45-10.35 4.71-20.47 3.52-31.17-.88-8-1.14-16.06-1.86-24.08-.19-2.16-.63-4.47-1.62-6.37-2.54-4.85-4-9.82-3.9-15.37.06-3.09-.67-6.22-1.24-9.29-.9-4.84-3.19-8.87-7.81-11.02-1.05-.49-2.89-.43-3.83.18-14.12 9.24-28.22 18.51-42.16 28.02-5.25 3.58-10.52 7.33-15.01 11.77-6.83 6.75-13.09 14.09-19.35 21.38-1.39 1.62-2.57 4.16-2.46 6.19.49 8.9 1.46 17.78 2.31 26.67.53 5.56 3.13 9.69 8.01 12.74 4.44 2.78 8.41 6.29 12.61 9.44.98.73 1.97 1.54 3.09 1.96 11.43 4.28 22.96 8.22 34.36 7.14zm41.28 34.82c-1.8-3-3.62-5.68-5.07-8.54-2.55-5.07-6.8-7.63-12.17-7.35-5.07.26-10.12 1.44-15.1 2.56-1.65.37-3.41 1.55-4.52 2.87-3.8 4.53-6.87 9.74-11.05 13.86-9.39 9.27-19.28 18.03-28.95 27.01-.9.83-1.89 1.66-2.49 2.69-5.06 8.66-10.86 17.05-11.64 27.48-.22 2.9-.32 6.07.58 8.76 2.55 7.62 7.1 14.15 12.63 19.95 1.11 1.16 2.65 2.31 4.16 2.6 5.9 1.16 11.84 2.45 17.81 2.79 7.58.43 14.5 1.45 18.16 9.49.8-1.16 1.37-1.98 1.95-2.8 2.38-3.41 5.07-5.68 9.75-6.09 2.76-.24 5.77-2.78 7.77-5.07 2.06-2.35 3.4-5.54 4.42-8.57 2.27-6.77 4.11-13.68 6.2-20.51.88-2.87 1.05-6.38 6.13-6.34-4.25-6.25-2.15-12.24-1.76-18.19.65-9.86 3.54-19.65.84-29.62-.46-1.7-.6-3.48-.9-5.26 1.07-.57 1.94-1.03 3.25-1.72zm18.13 82c1.88-.2 3.66-.29 5.39-.6 3.08-.54 6.19-1.02 9.18-1.87 20.28-5.74 37.06-17.35 52.55-31.23 9.3-8.34 14.23-19.16 17.41-30.73 2.83-10.28 2.73-20.83-1.49-30.95-5.47-13.1-16.6-19.37-29.13-23.88-.6-.22-1.55.04-2.16.4-9.31 5.39-19.37 7.03-30 6.71-7.7-.23-14.94 2.04-21.76 5.55.39 4.08 1.48 7.8 5.13 9.46 8.85 4.02 14.56 11.19 20.15 18.66 1.55 2.08 1.96 3.86.94 6.08-5.9 12.76-11.29 25.8-17.93 38.16-3.52 6.56-6.43 13.13-8.34 20.25-1.26 4.63-1.6 9.19.06 13.99zm-13.19-241.95c4.09 2.12 4.61 6.39 5.8 10.3 1.04 3.42 1.88 6.92 3.16 10.24 4.29 11.12 6 22.56 5.28 34.47-.14 2.37.77 5.05 1.94 7.19 1.38 2.51 1.43 4.59.53 7.24-.75 2.21-.59 4.75-.73 7.14-.34 5.86.56 12.13-1.28 17.46-1.62 4.69-1.77 9.09-1.69 13.65s3.12 6.85 7.72 6.35c4.33-.47 8.73-.79 12.92-1.88 16.59-4.33 32-10.4 39.52-27.82 1.52-3.52 5.02-5.27 8.76-6.18.94-.23 1.87-.49 3.09-.82-1.98-5.96-.68-11.49 1.14-16.93 2.17-6.47 1.27-12.52-2.08-18.36-2.04-3.56-3.95-7.19-5.85-10.68.77-1.34 1.42-2.47 2.26-3.92-1.94-1.11-3.56-2.4-5.4-3.03-6.85-2.36-13.79-4.48-20.68-6.74-1.45-.48-3.08-.87-4.2-1.8-9.7-8.08-20.77-13.36-32.91-16.61-3.23-.86-6.35-2.12-9.52-3.2-4.91-1.67-5.2-1.54-7.78 3.93z" fill="#010105"/><g fill="#fcfbfa"><path d="m377.9 391.2c-.2.3-.4.5-.6.8-.7-.6-1.4-1-2.2-1.5.2-.3.4-.5.5-.8.6.4 1.4.8 2.3 1.5zm-1.8 6.1c-.2-.2-.5-.4-.9-.6.4-.6.8-1.2 1.2-1.9s.7-1.3.9-1.9c.3.3.5.5.8.7-.7 1.3-1.4 2.6-2 3.7zm2.2-9c-.3.3-.5.5-.6.8-.6-.6-1.3-1.1-2-1.5.3-.3.5-.5.6-.7.6.5 1.3.9 2 1.4zm.3.2v-.9h2 4.5c-.3 1.3-.6 2.5-1 3.6s-.9 2.1-1.4 3c.4.5 1 1 1.6 1.4s1.2.8 1.9 1.1c-.3.2-.5.4-.8.8-.4-.3-1-.7-1.6-1.2s-1.2-1.1-1.6-1.6c-.5.6-1.1 1.1-1.7 1.6s-1.4.9-2.1 1.4c-.1-.3-.3-.5-.7-.8.6-.2 1.2-.5 1.9-1s1.4-1.1 2-1.8c-.5-.8-.9-1.6-1.2-2.5s-.6-2-.8-3.2c-.4.1-.7.1-1 .1zm2.5 2.7c.3 1 .7 1.7 1 2.2.3-.5.6-1.1 1-2s.6-1.9.9-3h-3.2-.4c.1.9.3 1.8.7 2.8z"/><path d="m396.5 388.5v1.5 3.6h1.5v.9c-.4 0-1 0-1.7 0h-7.9c-.5 0-.9 0-1.2 0v-.9h1.3v-3.5c0-.7 0-1.2 0-1.6h2.4c0-.8 0-1.4 0-1.7h1c0 .3-.1.8-.1 1.7h1.5c0-.8 0-1.4 0-1.7h1c0 .3-.1.9-.1 1.7zm-8.2 9.2c-.2-.3-.5-.5-.8-.8.8-.3 1.4-.6 1.9-.9s1-.7 1.4-1.1c.3.3.6.5.9.8-1.6 1-2.8 1.6-3.4 2zm2.6-6.8v-1.6h-1.5v1.6zm0 2.7v-1.9h-1.5v1.9zm2.4-2.7v-1.6h-1.5v1.6zm0 2.7v-1.9h-1.5v1.9zm.2 2 .7-.8c.4.2.9.5 1.6.8s1.3.7 1.8 1c-.3.3-.5.5-.8.8-.4-.3-1.5-1-3.3-1.8zm2-4.7v-1.6h-1.4v1.6zm0 2.7v-1.9h-1.4v1.9z"/></g></svg>