<svg enable-background="new 0 0 400 400" viewBox="0 0 400 400" xmlns="http://www.w3.org/2000/svg"><path d="m180.54 25.53c2.46.38 4.58.56 6.63 1.04 6.51 1.52 8.05 3.43 8.15 10.14.07 5.37 1 10.2 6.4 12.94 5.81 2.95 7.75 7.88 7.74 14.23-.01 5.12.99 10.24 1.36 15.37.21 2.93 1.34 5.18 3.35 7.36 8.5 9.21 17.31 18.2 25.11 27.99 12.47 15.66 21.85 32.94 20.93 53.78-.28 6.21-2.01 12.63-4.4 18.41-4.86 11.76-10.84 23.06-15.93 34.73-2.46 5.64-6.13 10.02-10.68 13.93-2.45 2.1-4.9 4.31-6.87 6.84-2.68 3.44-2.12 5.46 1.48 7.86 1.77 1.18 3.46 2.5 5.32 3.52 7.87 4.3 13.79 9.97 16.89 18.85 1.47 4.21 5.5 7.52 8.27 11.3.69.94 1.34 2.12 1.44 3.23.87 10.26 1.66 20.52 2.36 30.79.08 1.16-.32 2.42-.73 3.55-3.85 10.49-7.69 20.98-11.68 31.42-.56 1.46-1.65 2.91-2.87 3.9-6.53 5.27-13.12 10.47-19.84 15.51-1.39 1.05-3.36 1.79-5.09 1.86-13.97.57-27.95.98-41.92 1.34-1.24.03-2.65-.44-3.71-1.11-5.68-3.58-11.4-7.11-16.82-11.06-1.95-1.42-3.51-3.76-4.55-6.01-8.25-17.72-12.47-36.12-8.01-55.64.64-2.78 2.43-5.42 4.14-7.8 6.46-8.98 13.14-17.81 19.66-26.75 1.11-1.52 1.84-3.32 2.81-4.95 3.08-5.16 2.82-9.59-.71-14.98-8.74-13.36-17.1-27.04-24.61-41.12-3.82-7.16-6.51-15.31-7.88-23.32-1.97-11.49 1.95-22.57 5.33-33.49.38-1.22 1.41-2.26 2.21-3.34 10.29-13.96 20.51-27.98 30.95-41.83 3.1-4.11 4.76-8.65 6.55-13.38 3.34-8.85 3.32-17.31-.22-25.96-1.99-4.86-2.05-9.95-1.66-15.16.56-7.78.73-15.61 1.1-23.99zm-25.45 142.31c.31.99.66 2.03.96 3.08 2.48 8.7 5.58 17.29 7.22 26.14 1.4 7.57 4.39 14.01 9.1 19.83 2.95 3.65 6.37 6.95 9.1 10.75 3.95 5.5 9.21 5.64 14.95 4.45 8.91-1.86 13.86-8.36 18.32-15.56 5.89-9.5 12.06-18.83 18.02-28.29.73-1.16 1.27-2.61 1.36-3.97.5-7.26.88-14.52 1.16-21.79.07-1.74 0-3.7-.73-5.21-4.8-9.94-9.43-20-14.84-29.6-3.99-7.09-10.22-12.04-18.33-14.31-2.42-.68-3.83-.23-5.23 1.97-5.63 8.85-12.63 16.53-20.83 23.07-3.48 2.77-7.12 5.33-10.65 7.96 3.81 12.45 3.81 12.45-9.58 21.48zm80.98 146.8c-.34-4.47-.56-10.07-1.24-15.61-.91-7.42-1.85-14.86-6.36-21.27-6.06-8.6-14.74-13.47-24.19-17.26-.66-.27-1.75-.01-2.42.38-6.67 3.83-12.33 8.74-16.84 15.08-3.94 5.54-8.38 10.73-12.54 16.12-.64.83-1.33 1.87-1.39 2.85-.52 9.04-1.28 18.09-1.23 27.13.04 8.12.44 16.36 7.32 22.48 2.66 2.36 4.75 5.35 7.21 7.94.8.85 1.87 1.71 2.96 1.98 9.82 2.46 19.26 1.8 27.11-5.21 6.75-6.02 13.02-12.57 19.42-18.97.8-.8 1.46-2.05 1.56-3.15.35-3.77.41-7.58.63-12.49z" fill="#010100"/><g fill="#fcfbfa"><path d="m377.9 391.2c-.2.3-.4.5-.6.8-.7-.6-1.4-1-2.2-1.5.2-.3.4-.5.5-.8.6.4 1.4.8 2.3 1.5zm-1.8 6.1c-.2-.2-.5-.4-.9-.6.4-.6.8-1.2 1.2-1.9s.7-1.3.9-1.9c.3.3.5.5.8.7-.7 1.3-1.4 2.6-2 3.7zm2.2-9c-.3.3-.5.5-.6.8-.6-.6-1.3-1.1-2-1.5.3-.3.5-.5.6-.7.6.5 1.3.9 2 1.4zm.3.2v-.9h2 4.5c-.3 1.3-.6 2.5-1 3.6s-.9 2.1-1.4 3c.4.5 1 1 1.6 1.4s1.2.8 1.9 1.1c-.3.2-.5.4-.8.8-.4-.3-1-.7-1.6-1.2s-1.2-1.1-1.6-1.6c-.5.6-1.1 1.1-1.7 1.6s-1.4.9-2.1 1.4c-.1-.3-.3-.5-.7-.8.6-.2 1.2-.5 1.9-1s1.4-1.1 2-1.8c-.5-.8-.9-1.6-1.2-2.5s-.6-2-.8-3.2c-.4.1-.7.1-1 .1zm2.5 2.7c.3 1 .7 1.7 1 2.2.3-.5.6-1.1 1-2s.6-1.9.9-3h-3.2-.4c.1.9.3 1.8.7 2.8z"/><path d="m396.5 388.5v1.5 3.6h1.5v.9c-.4 0-1 0-1.7 0h-7.9c-.5 0-.9 0-1.2 0v-.9h1.3v-3.5c0-.7 0-1.2 0-1.6h2.4c0-.8 0-1.4 0-1.7h1c0 .3-.1.8-.1 1.7h1.5c0-.8 0-1.4 0-1.7h1c0 .3-.1.9-.1 1.7zm-8.2 9.2c-.2-.3-.5-.5-.8-.8.8-.3 1.4-.6 1.9-.9s1-.7 1.4-1.1c.3.3.6.5.9.8-1.6 1-2.8 1.6-3.4 2zm2.6-6.8v-1.6h-1.5v1.6zm0 2.7v-1.9h-1.5v1.9zm2.4-2.7v-1.6h-1.5v1.6zm0 2.7v-1.9h-1.5v1.9zm.2 2 .7-.8c.4.2.9.5 1.6.8s1.3.7 1.8 1c-.3.3-.5.5-.8.8-.4-.3-1.5-1-3.3-1.8zm2-4.7v-1.6h-1.4v1.6zm0 2.7v-1.9h-1.4v1.9z"/></g></svg>