<svg enable-background="new 0 0 400 400" viewBox="0 0 400 400" xmlns="http://www.w3.org/2000/svg"><g fill="#fcfafa"><path d="m342.2 3.2-6.3 9.2h6.1v1.2h-8.2v-.5l6.2-9.1h-5.7v-1.2h7.8v.4z"/><path d="m344 13.7v-10.9h3.1c1.6 0 3 .5 4.1 1.4 1.1 1 1.6 2.2 1.6 3.9s-.5 3-1.6 4-2.5 1.5-4.2 1.5h-3zm1.4-9.6v8.4h1.6c1.4 0 2.5-.4 3.2-1.1.8-.8 1.2-1.8 1.2-3.2s-.4-2.4-1.2-3.1-1.8-1-3.1-1z"/><path d="m356.3 2.8v10.9h-1.4v-10.9z"/><path d="m366.6 13.2c-.8.4-1.8.6-3 .6-1.6 0-2.8-.5-3.7-1.5s-1.4-2.3-1.4-3.9c0-1.7.5-3.2 1.6-4.2s2.4-1.6 4-1.6c1 0 1.9.1 2.6.4v1.5c-.8-.4-1.6-.6-2.6-.6-1.2 0-2.2.4-3 1.2s-1.1 1.9-1.1 3.3c0 1.3.4 2.3 1.1 3.1s1.6 1.1 2.8 1.1c1.1 0 2-.2 2.8-.7v1.3z"/><path d="m368.2 13c0-.3.1-.5.3-.6.2-.2.4-.3.6-.3.3 0 .5.1.7.3s.3.4.3.6-.1.5-.3.6c-.2.2-.4.3-.7.3s-.5-.1-.6-.3c-.2-.2-.3-.4-.3-.6z"/><path d="m381.1 13.7h-1.7l-5.5-8.4c-.2-.2-.3-.5-.4-.7 0 .2.1.8.1 1.5v7.6h-1.4v-10.9h1.8l5.3 8.3c.3.4.4.6.4.8 0-.3-.1-.8-.1-1.6v-7.5h1.4v10.9z"/><path d="m389.7 13.7h-5.8v-10.9h5.6v1.2h-4.2v3.5h3.9v1.2h-3.9v3.7h4.4z"/><path d="m398.4 4.1h-3.1v9.6h-1.4v-9.6h-3.1v-1.3h7.7v1.3z"/></g><path d="m214.91 317.99c0 2.16.27 3.97-.05 5.67-1.16 6.1-4.09 11.46-6.86 16.97-3.43 6.83-5.72 14.23-8.67 21.32-1.11 2.66-2.43 5.29-4.07 7.66-2.22 3.23-4.92 4.49-8.98 4.84-1.17-4.11-.74-8.31 1.02-11.98 5.97-12.45 9-25.61 11.06-39.17.83-5.43 3.97-10.46 5.27-15.86 1.74-7.25 2.83-14.66 3.97-22.03.92-5.96 1.68-11.97 2.11-17.98.18-2.58-.34-5.36-1.23-7.8-.35-.97-3.22-2.18-3.79-1.75-5.09 3.82-11.21 3.66-16.95 4.64-7.55 1.29-14.83 3.15-21.8 6.35-1.29.59-3.06.63-4.48.33-7.77-1.61-15.59-3.08-23.19-5.32-2.81-.83-5.05-3.63-7.54-5.54.11-.38.23-.76.34-1.13 3.98-.61 7.99-1.07 11.94-1.85 12.27-2.4 24.57-4.69 36.74-7.54 3.73-.87 7.07-3.4 10.81-5.29-14.87-19.55-12.52-39.54-4.11-60.02-3.77-1.61-6.93-3.36-10.31-4.33-7.55-2.15-10.77-7.86-12.63-14.67-3.34-12.2-2.11-24.43.49-36.54.55-2.58 2.92-4.71 4.04-7.23.89-1.99 1.43-4.24 1.65-6.42.37-3.64-.24-4.23-3.95-3.5-3.6.71-7.15 1.76-10.65 2.91-6.46 2.13-12.71 5.45-19.32 6.44-12.88 1.93-24.64-1.28-33.84-11.26-.42-.46-.72-1.04-1.3-1.89 9.21-2.61 18.08-5.19 26.99-7.62 15.51-4.24 30.81-9.31 46.88-11.28 4.55-.56 8.3-5.5 9.22-11.52 1.08-7.07 2.12-14.15 3.01-21.25.95-7.59-.61-14.12-7.73-18.52-3.19-1.97-6.2-4.46-6.7-8.94 3-1.32 5.9-2.51 9.24-1.22 1.35.52 2.79.81 4.19 1.19 11.01 2.98 17.45 10.59 17.64 22.14.14 8.25-.74 16.52-1.2 24.78-.08 1.55-.29 3.09-.45 4.74 4.51 0 8.82.2 13.11-.04 7.59-.42 15.17-1.6 22.75-1.54 5.86.05 11.72 1.42 17.56 2.34 8.17 1.3 16.37 2.46 24.44 4.22 3.49.76 6.88 2.57 9.97 4.46 2.94 1.8 3.92 4.97 3.76 8.54-7.71 2.76-15.46 2.54-23.26 1.46-3.54-.49-7.05-1.51-10.59-1.61-5.31-.14-10.66.17-15.97.56-6.58.48-13.14 1.2-19.7 1.91-1.41.15-2.93.48-4.13 1.19-1.62.96-2.28 2.4-.65 4.13 9.98 10.58 12.47 23.4 11 37.34-.48 4.55-1.18 9.09-1.98 13.6-.86 4.88-2.3 9.59-5.88 13.26-2.34 2.39-2.12 4.56-.5 7.38 3.4 5.9 6.35 12.06 9.53 18.09 3.04 5.76 4.39 11.86 4.35 18.39-.03 5.8.43 11.6.53 17.41.04 2.37 1.19 3.06 3.32 3.06 7.71.01 15.42.04 23.12.13 4.9.06 9.86-.21 14.67.49 5.66.82 8.91 4.68 9.68 10.28-7.71 1.65-15.4 3.5-23.17 4.9-7.67 1.38-15.42 2.36-23.16 3.39-3.58.48-5.47 2.1-6.45 5.67-4.69 17.13-9.32 34.27-14.27 51.32-.98 3.36-3.32 6.28-4.89 9.14zm-36.03-161.33c6.16 0 12.4-.12 18.63.07 2.16.07 3.56-.4 4.64-2.32 6.35-11.36 8.55-23.6 7.49-36.44-.18-2.23-1.07-4.82-2.53-6.43-2.61-2.88-5.9-5.14-8.91-7.66-3.88 2.28-7.23 5.29-8.3 9.67-1.61 6.6-2.43 13.41-6.84 18.99-.19.24-.13.65-.22.97-1.19 3.82-2.29 7.66-3.62 11.43-1.25 3.54-2.11 7.05-.34 11.72zm26.37 43.36c-3.37 5.45-6.6 10.64-9.8 15.86-1.62 2.64-1.39 6.83.82 8.97 1.83 1.77 3.92 3.37 6.15 4.58 3.1 1.69 8.53-1.14 8.74-4.67.32-5.31.42-10.68.01-15.97-.26-3.6-2-6.82-5.92-8.77z" fill="#010103"/></svg>