<svg enable-background="new 0 0 400 400" viewBox="0 0 400 400" xmlns="http://www.w3.org/2000/svg"><path d="m197.89 224.15c-4.19-3.13-8.74-6.76-13.53-10.04-2.76-1.89-4.31-4.38-5.41-7.39-3.66-10.04-3.89-20.31-2.4-30.76 1.06-7.45 3.04-14.57 6.46-21.27 1.91-3.76 3.79-7.54 5.78-11.26.4-.75 1.09-1.47 1.83-1.88 2.03-1.11 2.8-2.68 3.31-4.99.46-2.13 2.34-3.93 3.45-5.96.61-1.1 1.5-2.51 1.26-3.53-.76-3.14-.24-5.9 1.26-8.66.46-.83.61-1.92.63-2.89.24-10.07.38-20.14.67-30.2.07-2.23-.67-3.18-2.87-3.56-3.31-.58-4.73-4.25-2.04-6.33 6.54-5.04 5.34-11.19 4.2-17.89-.6-3.52.31-7.28.36-10.93.05-3.21-.09-6.42-.24-9.62-.16-3.62-.42-7.23-.64-10.85.59-.1 1.17-.2 1.76-.29.54 2.44 1.47 4.87 1.53 7.32.13 5.99-1.32 11.89-.13 18 1.02 5.22 1.07 10.65 1.32 16 .11 2.4-.33 4.82-.46 6.46 2.01.89 4.05 1.13 4.56 2.15 1.18 2.33 1.5 4.97-1.8 6.34-2.46 1.02-2.75 2.84-2.55 5.42.59 7.91.92 15.85 1.01 23.79.02 1.93-1.29 3.88-2.09 6.07 3.11.89 3.41 3.32 2.93 6.36-.21 1.32.19 2.88.72 4.15 1.82 4.39 3 9.44 6 12.85 2.64 3.01 2.37 6.79 4.64 9.59.39.48.83 1.3.69 1.79-1.21 3.99 1.39 6.8 2.92 9.93 5.59 11.45 7.6 23.53 4.26 35.82-1.44 5.3-4.79 10.34-8.24 14.73-2.27 2.88-6.23 4.47-9.53 6.48-4.53 2.76-5.99 7.34-7.27 11.99-.22.81.5 2 1.02 2.88 1.12 1.92 2.63 3.64 3.54 5.64 1.76 3.9.81 6.7-2.36 9.3-.89.73-1.52 2.1-1.71 3.27-.39 2.42-.42 4.9-.58 7.36-.21 3.21-.7 6.4 1.55 9.3.84 1.08.96 2.71 1.42 4.09 2.75 8.36 5.52 16.71 8.24 25.08.65 2 1.2 4.05 1.73 6.09 1.3 5.02 3.29 9.99 3.68 15.08.85 11.01 1.06 22.09 1.14 33.14.03 4.1-1.79 7.7-5.24 10.42-3.59 2.84-7 5.94-10.31 9.11-3.85 3.68-8.31 4.35-13.04 2.65-8.08-2.91-14.4-7.53-18.33-15.84-5.38-11.37-3.49-22.47-.72-33.69 1.08-4.4 3.22-8.53 4.79-12.82.95-2.61 1.6-5.33 2.62-7.91.92-2.35 2.56-4.47 3.18-6.88 2.03-7.84 6.57-14.34 10.38-21.29 2.17-3.97 2.79-8.81 3.92-13.31.45-1.82.34-3.78.57-5.67.38-3.11.76-6.06-1.86-8.69-1.81-1.82-1.37-3.97-.19-6.44 1.5-3.12 2.08-6.7 2.9-10.12.5-2.35.79-4.72 1.31-7.69zm-1.25 55.57c-4.07 3.12-6.62 6.55-8.16 10.75-3.43 9.37-7.04 18.68-10.23 28.13-2.3 6.84-5 13.76-5.78 20.84-.97 8.86 1.87 17.29 7.83 24.24 1.22 1.42 3.1 2.47 4.88 3.16 8.01 3.07 14.82 1.27 21.24-4.54 4.68-4.23 6.02-9.41 6.89-15.1 3.25-21.38-3.53-40.85-11.56-60.03-1.11-2.68-3.31-4.89-5.11-7.45zm7.21-146.2c-2.38 3.15-4.66 5.43-6.05 8.16-5.94 11.62-11.63 23.38-17.38 35.1-.27.55-.29 1.26-.27 1.89.07 2.15.18 4.31.33 6.46.15 2.14.38 4.26.51 6.4.04.64.11 1.47-.24 1.9-1.82 2.26-1.11 4.27.19 6.45.59.98 1.02 2.33.86 3.42-.36 2.52.89 3.23 2.97 3.96 1.49.53 3.11 1.71 3.89 3.05 3.65 6.32 10.91 8.67 17.33 5.02 2.89-1.64 5.58-3.73 8.04-5.97 2.02-1.84 4.16-3.95 5.19-6.39 1.72-4.09 2.76-8.49 3.76-12.83.49-2.12.74-4.52.27-6.61-3.41-15.2-10.59-29.09-15.43-43.81-.67-2.09-2.4-3.82-3.97-6.2z" fill="#010100"/><g fill="#fcfbfa"><path d="m377.9 391.2c-.2.3-.4.5-.6.8-.7-.6-1.4-1-2.2-1.5.2-.3.4-.5.5-.8.6.4 1.4.8 2.3 1.5zm-1.8 6.1c-.2-.2-.5-.4-.9-.6.4-.6.8-1.2 1.2-1.9s.7-1.3.9-1.9c.3.3.5.5.8.7-.7 1.3-1.4 2.6-2 3.7zm2.2-9c-.3.3-.5.5-.6.8-.6-.6-1.3-1.1-2-1.5.3-.3.5-.5.6-.7.6.5 1.3.9 2 1.4zm.3.2v-.9h2 4.5c-.3 1.3-.6 2.5-1 3.6s-.9 2.1-1.4 3c.4.5 1 1 1.6 1.4s1.2.8 1.9 1.1c-.3.2-.5.4-.8.8-.4-.3-1-.7-1.6-1.2s-1.2-1.1-1.6-1.6c-.5.6-1.1 1.1-1.7 1.6s-1.4.9-2.1 1.4c-.1-.3-.3-.5-.7-.8.6-.2 1.2-.5 1.9-1s1.4-1.1 2-1.8c-.5-.8-.9-1.6-1.2-2.5s-.6-2-.8-3.2c-.4.1-.7.1-1 .1zm2.5 2.7c.3 1 .7 1.7 1 2.2.3-.5.6-1.1 1-2s.6-1.9.9-3h-3.2-.4c.1.9.3 1.8.7 2.8z"/><path d="m396.5 388.5v1.5 3.6h1.5v.9c-.4 0-1 0-1.7 0h-7.9c-.5 0-.9 0-1.2 0v-.9h1.3v-3.5c0-.7 0-1.2 0-1.6h2.4c0-.8 0-1.4 0-1.7h1c0 .3-.1.8-.1 1.7h1.5c0-.8 0-1.4 0-1.7h1c0 .3-.1.9-.1 1.7zm-8.2 9.2c-.2-.3-.5-.5-.8-.8.8-.3 1.4-.6 1.9-.9s1-.7 1.4-1.1c.3.3.6.5.9.8-1.6 1-2.8 1.6-3.4 2zm2.6-6.8v-1.6h-1.5v1.6zm0 2.7v-1.9h-1.5v1.9zm2.4-2.7v-1.6h-1.5v1.6zm0 2.7v-1.9h-1.5v1.9zm.2 2 .7-.8c.4.2.9.5 1.6.8s1.3.7 1.8 1c-.3.3-.5.5-.8.8-.4-.3-1.5-1-3.3-1.8zm2-4.7v-1.6h-1.4v1.6zm0 2.7v-1.9h-1.4v1.9z"/></g></svg>