<svg enable-background="new 0 0 400 400" viewBox="0 0 400 400" xmlns="http://www.w3.org/2000/svg"><g fill="#fcfafa"><path d="m342.2 3.2-6.3 9.2h6.1v1.2h-8.2v-.5l6.2-9.1h-5.7v-1.2h7.8v.4z"/><path d="m344 13.7v-10.9h3.1c1.6 0 3 .5 4.1 1.4 1.1 1 1.6 2.2 1.6 3.9s-.5 3-1.6 4-2.5 1.5-4.2 1.5h-3zm1.4-9.6v8.4h1.6c1.4 0 2.5-.4 3.2-1.1.8-.8 1.2-1.8 1.2-3.2s-.4-2.4-1.2-3.1-1.8-1-3.1-1z"/><path d="m356.3 2.8v10.9h-1.4v-10.9z"/><path d="m366.6 13.2c-.8.4-1.8.6-3 .6-1.6 0-2.8-.5-3.7-1.5s-1.4-2.3-1.4-3.9c0-1.7.5-3.2 1.6-4.2s2.4-1.6 4-1.6c1 0 1.9.1 2.6.4v1.5c-.8-.4-1.6-.6-2.6-.6-1.2 0-2.2.4-3 1.2s-1.1 1.9-1.1 3.3c0 1.3.4 2.3 1.1 3.1s1.6 1.1 2.8 1.1c1.1 0 2-.2 2.8-.7v1.3z"/><path d="m368.2 13c0-.3.1-.5.3-.6.2-.2.4-.3.6-.3.3 0 .5.1.7.3s.3.4.3.6-.1.5-.3.6c-.2.2-.4.3-.7.3s-.5-.1-.6-.3c-.2-.2-.3-.4-.3-.6z"/><path d="m381.1 13.7h-1.7l-5.5-8.4c-.2-.2-.3-.5-.4-.7 0 .2.1.8.1 1.5v7.6h-1.4v-10.9h1.8l5.3 8.3c.3.4.4.6.4.8 0-.3-.1-.8-.1-1.6v-7.5h1.4v10.9z"/><path d="m389.7 13.7h-5.8v-10.9h5.6v1.2h-4.2v3.5h3.9v1.2h-3.9v3.7h4.4z"/><path d="m398.4 4.1h-3.1v9.6h-1.4v-9.6h-3.1v-1.3h7.7v1.3z"/></g><path d="m173.47 32.02c1.07-.48 1.87-.84 2.89-1.3-.96-1.12-1.86-2.16-2.78-3.23 2.33-2.22 4.6-2.64 7.63-1.54 8.67 3.16 16.97 6.91 24.31 12.59 12.82 9.92 16.05 20.97 10.95 36.46-2.17 6.6-5.25 12.43-10.61 17.09-5.99 5.21-11.62 10.82-17.41 16.25.2.41.4.83.59 1.24 1.16.47 2.31.96 3.49 1.4 14.84 5.64 29.73 11.1 43.14 19.89 6.62 4.34 13.53 8.24 20.35 12.27 3.68 2.17 5.87 5.31 7.03 9.39 2.61 9.25 1.25 18.63 1.36 27.99.13 10.21-5.46 17.7-10.18 25.67-1.23 2.07-3.74 3.49-5.86 4.9-2.5 1.65-4.15 3.65-4.36 6.7-.36 5.18-3.12 8.92-7.19 11.87-2.89 2.1-6.04 3.95-8.56 6.43-2.21 2.17-4.49 4.84-5.35 7.7-2.12 7.01-1.22 8.63 5.45 11.46 13.48 5.71 25.53 13.9 37.52 22.04 4.35 2.95 7.35 7.94 10.73 12.19.87 1.09 1.17 2.9 1.18 4.38.1 10.52.11 21.04-.01 31.56-.02 1.44-.88 2.87-1.35 4.3-.03.1-.15.17-.2.27-8.07 15.76-23.4 22.8-37.67 30.92-33.96 19.31-68.51 17.8-103.41 2.45-4.18-1.84-6.88-4.56-8.88-8.48-6.78-13.27-9.08-27.51-9.33-42.19-.03-2.02 1.15-4.04 1.65-6.09 4.2-17.2 15.14-30.71 24.71-44.96 1.14-1.7 3.54-2.59 5.44-3.72 1.43-.86 3.08-1.36 4.48-2.26 4.29-2.75 4.12-7.32-.28-9.54-6.99-3.52-14.08-6.86-20.9-10.68-2.6-1.45-5.06-3.68-6.76-6.13-6.42-9.18-8.76-19.76-9.15-30.75-.52-14.48.61-28.84 4.55-42.86.51-1.81 1.17-3.62 2.06-5.27 10.83-20.07 21.77-40.07 32.53-60.18 1.7-3.17 3.67-5.86 6.91-7.42 5.72-2.76 9.03-7.48 11.05-13.27 3-8.64 5.96-17.3 8.92-25.95.78-2.26.23-3.98-1.78-5.5-2.4-1.78-4.52-3.94-6.9-6.09zm3.15 193.27c7.27.88 13.1-2.08 18.43-6.61 1.78-1.52 3.71-2.93 5.77-4.02 2.32-1.23 3.24-2.9 2.84-5.42-.39-2.45.52-4.17 2.54-5.71 3.38-2.57 6.58-5.39 9.71-8.27.99-.91 1.83-2.26 2.17-3.56 1.79-6.81 3.42-13.66 5.06-20.5 2.78-11.61-2.05-22.35-13.13-26.62-11.23-4.34-22.88-7.63-34.39-11.22-3.01-.94-7.22 1.4-8.48 4.3-6.21 14.23-11.8 28.81-22.42 40.58-2.07 2.3-2.43 4.85-1.49 7.44 1.1 3.02.02 5.12-1.81 7.33-1.03 1.24-2.21 2.72-2.41 4.22-.9 6.75 1.05 12.3 7.29 15.97 5.3 3.12 10.4 6.57 15.62 9.81 1.01.63 2.18 1.25 3.33 1.38 3.77.41 7.57.61 11.37.9zm20.76 43.72c-1.32.36-3.49.41-4.99 1.43-16.89 11.57-33.68 23.27-50.46 35-.8.56-1.56 1.64-1.71 2.57-.97 6.07-1.8 12.16-2.59 18.25-.14 1.08-.07 2.25.2 3.31 2.44 9.47 14.13 17.72 23.92 16.84 16.64-1.49 32.46-6.2 47.77-12.64 2.55-1.08 4.9-3.1 6.81-5.17 4.16-4.53 7.95-9.39 11.93-14.09 6.17-7.28 7.15-15.32 3.41-23.95-6.38-14.67-19.1-19.39-34.29-21.55z" fill="#010103"/></svg>