<svg enable-background="new 0 0 400 400" viewBox="0 0 400 400" xmlns="http://www.w3.org/2000/svg"><path d="m71.93 235.06c.4 3.33.77 6.66 1.22 9.97.76 5.49 3.29 9.26 8.52 12.12 16.1 8.81 33.4 13.73 51.14 17.58 13.31 2.89 26.56 6.07 39.86 9.01 1.67.37 3.56.39 5.21 0 7.61-1.8 15.17-3.82 22.75-5.73 4.8-1.2 7.36 1.29 6.37 6.11-.58 2.8-1.83 5-3.97 7.09-2.75 2.69-5.19 5.9-7 9.3-3.02 5.67-7.08 9.84-13.04 12.41-6.87 2.96-13.52 6.44-20.35 9.49-1.51.67-3.42.83-5.09.68-10.45-.96-20.87-2.34-31.33-3.09-12.18-.87-23.59-3.59-34.58-9.35-20.33-10.65-37.7-25.57-56.58-38.3-4.89-3.3-7.64-7.08-8.38-12.99-.97-7.75-2.81-15.39-4.13-23.1-.22-1.31-.05-2.9.52-4.09 3.63-7.66 7.13-15.36 13.52-21.35 5.99-5.62 7.24-13.18 8.2-21.02.95-7.77 3.83-15.06 7.67-22.01 3.67-6.64 6.91-13.53 9.95-20.48 4.82-11.03 5.74-22.56 4.3-34.49-1.58-13.1-2.64-26.26-3.74-39.41-.13-1.53.62-3.47 1.61-4.69 2.53-3.1 4.99-7.41 8.32-8.39 3.31-.98 7.62 1.62 11.55 2.4 2.79.55 4.46 2.2 5.89 4.47 5.97 9.47 7.7 20.1 8.86 30.96.65 6.1 1.83 12.15 2.93 18.19 1.82 10.02 7.61 16.93 16.43 21.94 10.88 6.19 22.38 10.5 34.44 13.72 6.31 1.69 12.8 3.56 18.44 6.71 11.14 6.21 16.18 16.89 18.27 29.06.39 2.26.88 5.37-.27 6.87-2.65 3.44-6.72 5.16-11.27 4.81-1.88-.14-3.74-.64-5.6-1.05-18.08-4.04-36.16-8.11-54.24-12.12-4.69-1.04-9.49-1.64-14.11-2.91-4.29-1.18-7.65.23-10.21 3.24-2.43 2.85-4.43 6.14-6.21 9.46-3.94 7.37-7.46 14.98-11.48 22.31-2.86 5.24-4.4 10.69-4.39 16.67z" fill="#010000"/><path d="m274.82 242.8c-.52 9.72-1.11 19.44-1.46 29.17-.05 1.29.78 3.01 1.77 3.88 8.68 7.66 18.56 13.51 29.77 16.25 20.25 4.95 38.16 15.11 56.57 24.19 1.8.89 3.51 2.52 4.58 4.23 2.4 3.83 1.4 7.04-2.41 9.44-17.04 10.74-35.6 13.9-55.35 11.1-2.1-.3-4.2-.65-6.29-1.03-5.1-.92-9.57-2.93-14.04-5.79-5.57-3.56-11.82-6.4-18.16-8.32-11.48-3.47-19.06-11.06-24.28-21.22-4.6-8.93-8.53-18.21-12.63-27.4-.55-1.22-.72-2.85-.44-4.16 1.43-6.77 2.58-13.41 1.87-20.51-1.39-13.95 2.12-27.57 4.1-41.29.49-3.41.48-6.91.41-10.37-.13-6.29-.09-12.58 2.05-18.56 2.85-7.94 1.55-15.86.45-23.83-1.49-10.86-2.94-21.72-4.31-32.59-.15-1.16.11-2.44.46-3.59 1.09-3.64 2.51-7.19 3.44-10.87 1.33-5.28 2.8-10.58 3.37-15.97.62-5.78 3.78-9.58 7.93-12.94 1.39-1.12 2.95-2.03 4.42-3.04 7.61-5.23 19.58-1.31 22.34 7.62 1.14 3.68 2.02 7.73 1.69 11.5-.59 6.76.53 13.15 2.43 19.47 1.6 5.33.95 10.62.57 15.95-.6 8.49.44 10.36 7.99 14.29 12.75 6.64 26.44 10.15 40.57 12.25 11.19 1.66 21.92 4.67 30.79 12.15 2.62 2.21 4.84 4.93 7.09 7.55.65.76.97 2 1.04 3.04.29 4.91.34 9.84.7 14.75.15 2.12-.6 3.24-2.45 4.12-8.62 4.14-17.69 4.85-26.87 3.08-8.98-1.73-17.79-4.34-26.77-6.12-9.98-1.97-20.03-3.63-30.11-4.9-1.56-.2-4.38 2.13-5.06 3.89-1.86 4.85-3.56 9.94-4.09 15.07-1.02 9.78-1.19 19.65-1.72 29.49.02.02.03.02.04.02z" fill="#010000"/><g fill="#fbfcfa"><path d="m361.2 9.6.8-1c.9.7 1.9 1.4 2.9 2.3l-.9 1.1c-1-1-2-1.8-2.8-2.4zm.5 10.6c.9-2.1 1.6-4.3 2.3-6.7.4.2.8.4 1.3.6-.7 2.1-1.5 4.3-2.2 6.6zm.4-15.2.9-.9c1 .8 2 1.6 2.8 2.4l-1 1c-.9-.9-1.8-1.7-2.7-2.5zm12.5-1.2h1.2v1.4h2.7v1.1h-2.7v2.7h-1.2v-.6h-1.8v1.3h4.9v3.8h-1.2v-.5h-3.7c0 .4-.1.9-.1 1.2h5.1v1h-5.2c0 .5-.1.9-.2 1.2h6v1h-5.2c1.1 1.3 2.9 2 5.5 2.2-.4.4-.7.8-.9 1.3-2.9-.5-4.8-1.6-5.7-3.5h-.1c-.8 1.7-2.7 2.9-5.9 3.6-.2-.4-.6-.8-.9-1.1 2.8-.6 4.6-1.4 5.4-2.5h-4.8v-1h5.3c.1-.3.2-.7.2-1.2h-4.9v-1h5c0-.4 0-.8.1-1.2h-3.5v.5h-1.2v-3.8h4.9v-1.3h-1.8v.5h-1.2v-2.7h-2.7v-1h2.6v-1.4h1.2v1.4h4.7v-1.4zm-6.6 8.3h3.6c0-.4 0-.9 0-1.4h-3.6zm1.9-4.6h4.7v-1.3h-4.7zm6.6 3.2h-3.7v1.4h3.7z"/><path d="m385.3 3.8h1.3v2.2h2.8v-2.2h1.3v2.2h4.1v9.1h1.7v1.3h-16.9v-1.3h1.7v-9.1h4.1v-2.2zm.4 13.1.7 1.2c-1.8.9-3.8 1.9-6 2.9-.2-.4-.5-.8-.8-1.3 2.3-1 4.3-1.9 6.1-2.8zm-3.1-6.4h2.8v-3.2h-2.8zm0 4.6h2.8v-3.3h-2.8zm4-4.6h2.8v-3.2h-2.8zm0 4.6h2.8v-3.3h-2.8zm3.7 1.9c2.1.9 4.1 1.8 6.1 2.7l-.7 1.3c-2.2-1.1-4.2-2-6.1-2.9zm3.2-9.7h-2.8v3.2h2.8zm-2.8 7.8h2.8v-3.3h-2.8z"/></g></svg>