<svg enable-background="new 0 0 400 400" viewBox="0 0 400 400" xmlns="http://www.w3.org/2000/svg"><path d="m138.98 102.12c.44-12.53 1.08-32.77 1.94-53.01.14-3.21-1.07-4.36-3.9-4.24-3.01.14-6.09.15-8.98.88-8.11 2.05-16.18 4.32-24.17 6.8-1.56.49-3.21 2.1-3.94 3.61-4.84 10.02-6.71 20.82-7.46 31.8-1.2 17.57-.4 35.04 1.68 52.57 1.43 12.07.97 24.36 1.31 36.55 1.08 38.48 2.08 76.96 3.25 115.44.68 22.15 1.68 44.28 2.41 66.43.12 3.66-.12 7.39-.72 11-.73 4.36-4.63 6.55-8.84 5.15-1.03-.35-2.01-1.66-2.48-2.76-4.06-9.31-5.56-19.18-4.82-29.19 1.62-21.87-.78-43.61-1.51-65.4-1.08-32.44-2.56-64.86-3.72-97.29-.96-26.84-2.04-53.68-2.35-80.53-.14-12.02.89-24.14 2.55-36.05.92-6.6 4.16-12.89 6.55-19.25.42-1.1 1.66-2.08 2.76-2.72 12.84-7.55 26.71-11.86 41.58-12.89 13.83-.95 27.66-1.89 41.51-2.62 3.08-.16 6.25.39 9.31.97 1.68.32 3.47 1.1 4.78 2.2 4.43 3.71 3.76 8.13-1.65 9.6-4.7 1.28-9.61 2-14.48 2.43-9.94.88-9.91.73-10.77 10.53-1.27 14.6-3.37 29.18-3.73 43.8-.52 21.47.16 42.96.41 64.45.32 28.44 1.62 56.86 5.63 85.02 2.85 20.01 7.09 39.82 10.92 59.68 3.13 16.24 6.61 32.42 9.84 48.64.5 2.5.47 5.11.62 7.68.16 2.73-.26 5.18-3.36 6.18-3.48 1.12-7 .1-8.81-2.66-4.16-6.37-6.75-13.43-8.03-20.83-4.4-25.33-9.02-50.64-12.6-76.09-3.41-24.25-6.06-48.62-8.27-73.01-2.57-28.3-3.96-56.7-2.46-92.87z" fill="#010103"/><path d="m259.64 49.03c-4.34.55-8.55.76-12.6 1.69-5.98 1.37-11.83 3.31-17.76 4.89-3.24.86-5.39 2.86-7.14 5.62-5.62 8.88-8.26 18.73-7.94 29.04.46 14.96 1.69 29.89 2.8 44.82 1.59 21.31 3.37 42.6 5.06 63.9 1.94 24.42 3.92 48.84 5.81 73.27 1.7 21.97 3.32 43.95 4.93 65.93.34 4.68.79 9.39.7 14.07-.05 2.47-.74 5.15-1.89 7.33-2.39 4.5-8.25 4.38-10.69-.03-5.02-9.07-6.51-19.05-6.66-29.15-.61-42.57-5.64-84.82-8.83-127.2-2.01-26.77-4.67-53.49-6.42-80.27-1.27-19.43-1.34-38.93 2.78-58.16 2.48-11.55 9.23-19.38 20.08-24.1 9.22-4 18.99-5.09 28.73-6.14 18.05-1.94 36.17-2.07 54.28-.77 3.53.25 7.02 1.25 10.52 1.92 3 .58 2.76 2.83 2.9 5.15s-.61 3.71-2.86 4.05c-7.38 1.13-14.76 2.28-22.16 3.23-4.21.54-8.46.77-12.7.99-2.32.12-3.29.89-3.29 3.43.08 37.49-.2 74.99.24 112.47.11 9.19 2.35 18.38 3.84 27.54 4.57 28.13 9.09 56.28 13.95 84.36 3.62 20.92 7.79 41.75 11.62 62.63.54 2.95.83 6 .83 9 0 4.93-3.66 8.28-8.49 7.77-1.07-.11-2.3-1.26-2.96-2.26-4.91-7.44-6.92-15.92-8.42-24.55-8.24-47.46-16.69-94.89-24.5-142.42-1.73-10.52-1.39-21.41-1.62-32.14-.73-34.12-1.28-68.24-1.91-102.36 0-.85-.1-1.72-.23-3.55z" fill="#010103"/><g fill="#fcfbfa"><path d="m377.9 391.2c-.2.3-.4.5-.6.8-.7-.6-1.4-1-2.2-1.5.2-.3.4-.5.5-.8.6.4 1.4.8 2.3 1.5zm-1.8 6.1c-.2-.2-.5-.4-.9-.6.4-.6.8-1.2 1.2-1.9s.7-1.3.9-1.9c.3.3.5.5.8.7-.7 1.3-1.4 2.6-2 3.7zm2.2-9c-.3.3-.5.5-.6.8-.6-.6-1.3-1.1-2-1.5.3-.3.5-.5.6-.7.6.5 1.3.9 2 1.4zm.3.2v-.9h2 4.5c-.3 1.3-.6 2.5-1 3.6s-.9 2.1-1.4 3c.4.5 1 1 1.6 1.4s1.2.8 1.9 1.1c-.3.2-.5.4-.8.8-.4-.3-1-.7-1.6-1.2s-1.2-1.1-1.6-1.6c-.5.6-1.1 1.1-1.7 1.6s-1.4.9-2.1 1.4c-.1-.3-.3-.5-.7-.8.6-.2 1.2-.5 1.9-1s1.4-1.1 2-1.8c-.5-.8-.9-1.6-1.2-2.5s-.6-2-.8-3.2c-.4.1-.7.1-1 .1zm2.5 2.7c.3 1 .7 1.7 1 2.2.3-.5.6-1.1 1-2s.6-1.9.9-3h-3.2-.4c.1.9.3 1.8.7 2.8z"/><path d="m396.5 388.5v1.5 3.6h1.5v.9c-.4 0-1 0-1.7 0h-7.9c-.5 0-.9 0-1.2 0v-.9h1.3v-3.5c0-.7 0-1.2 0-1.6h2.4c0-.8 0-1.4 0-1.7h1c0 .3-.1.8-.1 1.7h1.5c0-.8 0-1.4 0-1.7h1c0 .3-.1.9-.1 1.7zm-8.2 9.2c-.2-.3-.5-.5-.8-.8.8-.3 1.4-.6 1.9-.9s1-.7 1.4-1.1c.3.3.6.5.9.8-1.6 1-2.8 1.6-3.4 2zm2.6-6.8v-1.6h-1.5v1.6zm0 2.7v-1.9h-1.5v1.9zm2.4-2.7v-1.6h-1.5v1.6zm0 2.7v-1.9h-1.5v1.9zm.2 2 .7-.8c.4.2.9.5 1.6.8s1.3.7 1.8 1c-.3.3-.5.5-.8.8-.4-.3-1.5-1-3.3-1.8zm2-4.7v-1.6h-1.4v1.6zm0 2.7v-1.9h-1.4v1.9z"/></g></svg>