<svg enable-background="new 0 0 400 400" viewBox="0 0 400 400" xmlns="http://www.w3.org/2000/svg"><path d="m229.28 374.5c0-2.2-.5-4.55.08-6.58 4.93-17.38 7.95-35.05 8.94-53.09.3-5.51.46-10.74-1.55-16.1-.91-2.43.35-5.66.57-8.53.36-4.86 1.11-9.74.83-14.57-.14-2.44-2.13-4.78-3.35-7.13-.3-.58-.82-1.07-1.29-1.54-9.43-9.37-15.45-20.45-18.12-33.58-1.35-6.63-3.95-13.04-6.33-19.42-3.96-10.63-4.82-21.53-3.51-32.69.07-.56.24-1.12.18-1.66-1.12-9.88 4.41-17.36 8.84-25.35 4.37-7.89 8.19-16.09 12.18-24.19 1.13-2.3 2.07-4.7 2.97-7.11 2.26-6.05 5.68-11.28 10.1-16.02 2.33-2.5 3.94-5.68 5.76-8.62 7.57-12.28 15.09-24.59 22.64-36.88.12-.19.26-.36.4-.53 4.65.31 7.18 2.88 6.82 7.54-.18 2.27-.96 4.59-1.89 6.7-5.5 12.47-11.18 24.86-16.63 37.36-.56 1.28-.47 3.22.07 4.55 1.39 3.41 3.41 6.55 4.78 9.97 1.09 2.72 1.55 5.69 2.37 8.53.39 1.36.79 2.78 1.52 3.98 5.11 8.41 10.13 16.88 15.53 25.11 3.56 5.42 5.64 11.19 7.08 17.51 1.8 7.9 4.73 15.53 7.29 23.64-2.9-.67-6.13-.37-8.3-3.73-2.72-4.23-5.57-8.43-8.81-12.26-9.51-11.24-15.3-24.1-18.91-38.33-1.5-5.89-5.13-11.35-8.4-16.63-1.31-2.11-4.27-3.2-6.81-4.99-4.09 7.13-7.62 13.58-11.43 19.87-3.23 5.32-5.48 10.83-6.54 17.04-.55 3.22-2.84 6.19-4.54 9.15-.94 1.63-2.26 3.05-3.45 4.54-4.19 5.25-4.79 10.76-1.83 16.89 3.92 8.13 7.9 16.19 12.25 24.13 4.43 8.09 6.4 17.53 9.5 26.35.47 1.32.92 2.93 1.92 3.74 3.11 2.51 4.7 5.83 6.07 9.42 2.23 5.85 4.48 11.69 7.02 17.41 2.33 5.24 2.51 10.37 1.49 16-1.16 6.44-1.81 13.07-1.69 19.61.31 17.65-4.82 33.78-13.15 48.97-2.41 4.39-6.34 7.95-9.58 11.89-.37-.15-.73-.26-1.09-.37z" fill="#010102"/><path d="m108.35 329.2c-1.47-6.74-.78-12.6.82-18.28 2.64-9.35 5.76-18.57 8.5-27.89.71-2.42 1.06-5.02 1.06-7.54-.01-7.39-.65-14.79-.33-22.15.19-4.51 1.69-8.96 2.6-13.43 1.5-7.42 3.03-14.84 4.43-22.28.19-1.02.07-2.41-.49-3.22-2.29-3.23-1.96-6.43-.35-9.73 1.03-2.1.84-4-.54-5.93-4.66-6.5-4.31-14.43-5.99-21.77-1.22-5.34-1.9-10.79-3.04-16.15-.48-2.25-1.47-4.41-2.36-6.55-1.46-3.5-3.14-6.9-4.53-10.42-2.45-6.23-4.5-12.63-7.18-18.76-3.47-7.94-4.47-15.97-1.67-24.18 5.98-17.55 11.32-35.37 20.22-51.76 4.88-8.98 11.14-16.96 19.1-23.85 4.36 4.9 6.44 10.41 6.04 16.71-.1 1.52-.99 3.23-2.02 4.41-3.69 4.26-4.35 8.78-1.38 13.55 1.88 3.02 4.02 5.91 6.31 8.63 7.95 9.49 15.14 19.42 18.53 31.56.62 2.21.79 4.54 1.18 6.81-.27.3-.54.61-.81.91-1.66-.74-3.37-1.38-4.97-2.25-.86-.47-1.49-1.35-2.27-1.98-7.96-6.46-14.97-13.71-20.22-22.63-2.7-4.58-9.62-4.81-12.77-.66-5.11 6.73-9.55 13.85-11.07 22.32-.44 2.47-.42 5.12-.04 7.61.77 4.97 1.82 9.9 2.99 14.79.53 2.22 1.63 4.3 2.42 6.47.34.93.97 2.02.75 2.84-.97 3.59.64 6.55 1.94 9.63 2.82 6.69 5.34 13.53 8.5 20.06 3.06 6.31 4.71 12.74 3.95 19.72-.3 2.73.61 4.84 2.31 7.03 1.24 1.59 2.12 3.93 2.14 5.94.06 7.62-.06 15.19 2.51 22.54.44 1.25.15 2.89-.2 4.25-7.52 28.99-14.97 58.01-22.78 86.92-1.37 5.07-4.13 9.81-6.61 14.52-.85 1.6-2.82 2.58-4.68 4.19z" fill="#010102"/><g fill="#fcfbfa"><path d="m385.2 377.6.6-.7c.6.4 1.3.9 1.9 1.5l-.6.7c-.8-.5-1.4-1-1.9-1.5zm.3 7.1c.6-1.4 1.1-2.9 1.5-4.5.3.1.6.3.9.4-.5 1.4-1 2.9-1.5 4.4zm.2-10.1.6-.6c.7.5 1.3 1.1 1.9 1.6l-.7.7c-.6-.6-1.2-1.2-1.8-1.7zm8.4-.8h.8v.9h1.8v.7h-1.8v1.8h-.8v-.3h-1.2v.9h3.3v2.6h-.8v-.4h-2.5c0 .3 0 .6-.1.8h3.4v.7h-3.5c0 .3-.1.6-.1.8h4v.7h-3.5c.7.9 1.9 1.3 3.6 1.5-.2.2-.4.5-.6.9-1.9-.3-3.2-1.1-3.8-2.3-.5 1.1-1.8 2-3.9 2.4-.2-.3-.4-.5-.6-.8 1.9-.4 3.1-.9 3.6-1.7h-3.2v-.7h3.5c.1-.2.1-.5.2-.8h-3.3v-.7h3.4c0-.2 0-.5 0-.8h-2.4v.3h-.8v-2.6h3.3v-.9h-1.2v.3h-.8v-1.8h-1.8v-.7h1.8v-.9h.8v.9h3.2zm-4.4 5.5h2.4c0-.3 0-.6 0-.9h-2.4zm1.2-3.1h3.2v-.8h-3.2zm4.4 2.2h-2.4v.9h2.5v-.9z"/><path d="m389.2 385.8h.9v1.5h1.9v-1.5h.9v1.5h2.7v6h1.1v.9h-11.3v-.9h1.1v-6h2.7zm.2 8.7.5.8c-1.2.6-2.5 1.3-4 1.9-.2-.3-.3-.6-.6-.8 1.6-.6 3-1.3 4.1-1.9zm-2-4.3h1.9v-2.1h-1.9zm0 3.1h1.9v-2.2h-1.9zm2.7-3.1h1.9v-2.1h-1.9zm0 3.1h1.9v-2.2h-1.9zm2.4 1.3c1.4.6 2.7 1.2 4.1 1.8l-.5.9c-1.5-.7-2.8-1.4-4.1-1.9zm2.2-6.5h-1.9v2.1h1.9zm-1.9 5.2h1.9v-2.2h-1.9z"/></g></svg>