<svg enable-background="new 0 0 400 400" viewBox="0 0 400 400" xmlns="http://www.w3.org/2000/svg"><path d="m262.94 366.26c-6.32-7.91-8.08-16.2-9.15-24.66-2.41-19.19-4.6-38.41-6.99-57.6-3.06-24.56-4.66-49.21-5.42-73.95-.78-25.28.56-50.39 6.91-74.93 3.1-11.96 7.63-23.56 11.64-35.28.44-1.28 1.5-2.48 2.56-3.4 9.95-8.68 20.23-17.01 29.87-26.01 8.32-7.77 16.01-16.23 23.81-24.53 1.49-1.59 2.78-2.13 4.88-1.87 4.44.55 8.9.97 13.37 1.15 2.61.11 4.34 1.1 5.73 3.27 5.19 8.1 6.17 17.1 5.84 26.4-.03.89-.25 1.78-.29 2.67-.18 3.63-1.42 6.42-4.68 8.65-13.94 9.53-27.66 19.39-41.55 29-6.3 4.36-12.29 8.99-16.53 15.5-5.79 8.89-6.43 18.38-3.13 28.27.31.92.88 1.8 1.49 2.57 9.44 11.78 19 23.47 28.36 35.32 10.64 13.47 23.32 24.33 38.94 31.65 4.55 2.13 9.03 4.44 13.38 6.97 5.92 3.44 8.79 8.95 9.92 15.58.43 2.52-.51 3.61-2.8 4.36-8.22 2.69-16.51 2.38-24.36-.64-10.92-4.21-21.55-9.19-32.23-14-1.76-.79-3.25-2.31-4.71-3.66-7.49-6.89-14.72-14.07-22.48-20.65-3.56-3.02-8.09-4.88-12.98-7.74 0 2.34-.04 3.42.01 4.49 1.52 35.33 3.08 70.66 4.58 105.99.54 12.76-.54 25.33-6.34 36.93-1.77 3.55-4.84 6.48-7.65 10.15z" fill="#010106"/><path d="m44.97 360.73c-1.43-7.6-3.11-14.88-4.1-22.26-1.27-9.41-1.52-18.98-3.09-28.33-1.06-6.32-3.17-12.58-5.63-18.53-6.1-14.78-7.13-30.38-8.11-45.99-1.47-23.4-.73-46.76 2.67-69.96 4-27.26 11.28-53.54 24.71-77.83.52-.93 1.25-1.96 2.15-2.44 18.75-10.08 31.79-26.55 46.35-41.32 5.97-6.06 11.77-12.28 17.78-18.29.85-.85 2.51-1.44 3.71-1.32 10.74 1.11 15.71 8.02 12.29 18.25-3.46 10.36-7.85 20.41-11.98 30.53-.5 1.22-1.85 2.14-2.94 3.05-8.08 6.7-16.39 13.14-24.22 20.13-5.24 4.68-8.53 10.89-10.55 17.64-.36 1.19-.12 2.91.51 4 6.89 11.9 13.88 23.74 20.92 35.55.78 1.32 1.92 2.46 3.03 3.54 10.17 9.91 20.39 19.78 30.56 29.7 2.28 2.22 4.12 4.7 3.9 8.19-.12 1.85-.65 2.82-2.79 2.79-7.38-.11-14.77.07-22.15-.14-1.45-.04-3.09-1.06-4.24-2.09-10.32-9.18-21.35-17.34-33.73-23.54-5.61-2.81-11.51-4.75-18.12-5.23-1.17 9.63-2.49 19.03-3.44 28.47-1.54 15.47-3.32 30.94-4.06 46.45-.46 9.55.71 19.19 1.38 28.78.87 12.61 2.07 25.19 2.88 37.81.18 2.83-.89 5.72-1.05 8.6-.33 6.14-.47 12.28-.62 18.43-.21 7.67-3.74 12.52-12.02 15.36z" fill="#010106"/><g fill="#fcfbfa"><path d="m385.2 377.6.6-.7c.6.4 1.3.9 1.9 1.5l-.6.7c-.8-.5-1.4-1-1.9-1.5zm.3 7.1c.6-1.4 1.1-2.9 1.5-4.5.3.1.6.3.9.4-.5 1.4-1 2.9-1.5 4.4zm.2-10.1.6-.6c.7.5 1.3 1.1 1.9 1.6l-.7.7c-.6-.6-1.2-1.2-1.8-1.7zm8.4-.8h.8v.9h1.8v.7h-1.8v1.8h-.8v-.3h-1.2v.9h3.3v2.6h-.8v-.4h-2.5c0 .3 0 .6-.1.8h3.4v.7h-3.5c0 .3-.1.6-.1.8h4v.7h-3.5c.7.9 1.9 1.3 3.6 1.5-.2.2-.4.5-.6.9-1.9-.3-3.2-1.1-3.8-2.3-.5 1.1-1.8 2-3.9 2.4-.2-.3-.4-.5-.6-.8 1.9-.4 3.1-.9 3.6-1.7h-3.2v-.7h3.5c.1-.2.1-.5.2-.8h-3.3v-.7h3.4c0-.2 0-.5 0-.8h-2.4v.3h-.8v-2.6h3.3v-.9h-1.2v.3h-.8v-1.8h-1.8v-.7h1.8v-.9h.8v.9h3.2zm-4.4 5.5h2.4c0-.3 0-.6 0-.9h-2.4zm1.2-3.1h3.2v-.8h-3.2zm4.4 2.2h-2.4v.9h2.5v-.9z"/><path d="m389.2 385.8h.9v1.5h1.9v-1.5h.9v1.5h2.7v6h1.1v.9h-11.3v-.9h1.1v-6h2.7zm.2 8.7.5.8c-1.2.6-2.5 1.3-4 1.9-.2-.3-.3-.6-.6-.8 1.6-.6 3-1.3 4.1-1.9zm-2-4.3h1.9v-2.1h-1.9zm0 3.1h1.9v-2.2h-1.9zm2.7-3.1h1.9v-2.1h-1.9zm0 3.1h1.9v-2.2h-1.9zm2.4 1.3c1.4.6 2.7 1.2 4.1 1.8l-.5.9c-1.5-.7-2.8-1.4-4.1-1.9zm2.2-6.5h-1.9v2.1h1.9zm-1.9 5.2h1.9v-2.2h-1.9z"/></g></svg>