<svg enable-background="new 0 0 400 400" viewBox="0 0 400 400" xmlns="http://www.w3.org/2000/svg"><path d="m207.49 143.58c-13.16-.57-25.95-1.11-38.75-1.68-3.79-.17-7.59-.34-11.37-.59-4-.26-7.56-1.62-10.76-4.14-3.06-2.41-6.37-4.51-10.23-7.2-1.96 3.87-4.45 7.31-5.51 11.16-3.5 12.77-7.53 25.27-15.34 36.48 7.35 5.05 14.15 10.14 21.35 14.58 13.76 8.48 19.58 21.71 21.98 36.69 1.96 12.22.44 24.51-.94 36.79-1.45 12.88-2.01 25.86-3.11 38.79-.21 2.5-.73 5.11-1.74 7.38-5.61 12.67-11.39 25.26-17.21 37.84-.83 1.79-1.95 3.58-3.36 4.92-5.26 5.01-10.51 10.04-16.1 14.67-8.59 7.11-18.58 7.36-29.06 5.14-.69-5.6-.52-10.21 4.05-14.84 19-19.23 32.48-41.78 38.1-68.52 3.51-16.74 2.17-33.33-1.82-49.86-2.57-10.65-7.13-20.4-12.23-29.98-2.49-4.67-6.95-7.05-11.92-5.69-8.29 2.26-16.46 4.95-24.69 7.41-2.77.83-5.54 1.83-8.38 2.22-5.11.71-8.17-1.67-8.82-6.81-.67-5.21.11-9.58 4.31-13.89 21.37-21.96 36.6-47.67 44.14-77.5 4.78-18.88 3.46-37.73-2.68-56.21-.43-1.29-1.51-2.4-2.43-3.48-5.65-6.61-11.6-12.97-16.87-19.86-1.96-2.56-2.32-6.34-3.49-9.81 5.19-1.22 9.79-.92 13.69 1.22 9.19 5.04 18.12 10.55 27.01 16.11 1.59.99 2.51 3.1 3.65 4.74 4.46 6.43 8.95 12.85 13.28 19.38.79 1.19 1.29 2.87 1.21 4.29-.36 6.37-.82 12.74-1.58 19.06-.29 2.38.53 3.77 2.18 5.14 6.47 5.39 13.99 8.75 21.85 11.47 14.14 4.89 28.3 9.72 42.43 14.62 1.66.58 3.22 1.44 5.29 2.37 1.63-3.43 3.51-6.62 4.72-10.04 7.56-21.5 12-43.52 10.38-66.45-.22-3.09-1.07-6.16-1.86-9.18-.28-1.07-1.07-2.18-1.94-2.89-4.39-3.58-4.76-6.92-1.03-11.92 9.49 6.3 19.3 12.18 28.38 19.04 7.26 5.48 11.31 13.55 11.23 22.72-.06 7.18-1.59 14.36-2.59 21.53-.14 1.04-.71 2.21-1.46 2.93-3.16 3.08-3.86 7-3.82 11.09.01.95 1.05 2.5 1.9 2.74 14.23 4.04 28.55 7.55 43.57 5.56.95-.13 2.18-.17 2.91.31 6.12 3.97 13.28 3.52 20 4.91.55.11 1.11.12 1.66.21 5.39.87 7.63 2.91 7.69 6.98.08 5.53-3.2 10.76-7.91 10.91-7.23.24-13.73 2.36-20.28 5.09-1.93.8-4.6-.05-6.91-.32-9.77-1.17-19.55-2.3-29.29-3.7-2.57-.37-5.14-1.41-7.49-2.58-5.59-2.78-11.05-5.82-16.89-8.93-.77 1.73-1.47 3.2-2.09 4.72-5.16 12.74-10.23 25.51-15.49 38.2-1.15 2.78-.99 4.41 1.64 6.39 9.39 7.06 18.53 14.46 27.74 21.75.87.69 1.92 1.38 2.37 2.32 4.35 9.18 9.08 18.23 12.74 27.69 5.13 13.25 4.51 27.03 1.44 40.67-2.96 13.18-5.57 26.52-9.71 39.35-3.96 12.26-8.6 24.45-18.44 33.81-7.04 6.69-13.16 14.34-20.19 21.04-2.87 2.74-6.98 4.29-10.7 5.98-1.1.5-3.47.12-4.1-.72-.98-1.32-1.56-3.49-1.27-5.1.56-3.04 2.08-5.54 4.84-7.62 2.36-1.77 4-4.76 5.42-7.49 5.19-10 10.13-20.13 15.22-30.18 11.7-23.11 17.65-47.34 13.41-73.28-1.16-7.12-3.79-14-5.94-20.93-.35-1.14-1.63-2.07-2.65-2.9-8.4-6.88-16.88-13.66-25.24-20.58-5.28-4.37-10.15-9.13-13.24-15.41-1.34-2.71-1.7-5.3-.83-8.35 2.78-9.7 5.23-19.44 7.97-29.78z" fill="#010104"/><g fill="#fcfbfa"><path d="m385.2 377.6.6-.7c.6.4 1.3.9 1.9 1.5l-.6.7c-.8-.5-1.4-1-1.9-1.5zm.3 7.1c.6-1.4 1.1-2.9 1.5-4.5.3.1.6.3.9.4-.5 1.4-1 2.9-1.5 4.4zm.2-10.1.6-.6c.7.5 1.3 1.1 1.9 1.6l-.7.7c-.6-.6-1.2-1.2-1.8-1.7zm8.4-.8h.8v.9h1.8v.7h-1.8v1.8h-.8v-.3h-1.2v.9h3.3v2.6h-.8v-.4h-2.5c0 .3 0 .6-.1.8h3.4v.7h-3.5c0 .3-.1.6-.1.8h4v.7h-3.5c.7.9 1.9 1.3 3.6 1.5-.2.2-.4.5-.6.9-1.9-.3-3.2-1.1-3.8-2.3-.5 1.1-1.8 2-3.9 2.4-.2-.3-.4-.5-.6-.8 1.9-.4 3.1-.9 3.6-1.7h-3.2v-.7h3.5c.1-.2.1-.5.2-.8h-3.3v-.7h3.4c0-.2 0-.5 0-.8h-2.4v.3h-.8v-2.6h3.3v-.9h-1.2v.3h-.8v-1.8h-1.8v-.7h1.8v-.9h.8v.9h3.2zm-4.4 5.5h2.4c0-.3 0-.6 0-.9h-2.4zm1.2-3.1h3.2v-.8h-3.2zm4.4 2.2h-2.4v.9h2.5v-.9z"/><path d="m389.2 385.8h.9v1.5h1.9v-1.5h.9v1.5h2.7v6h1.1v.9h-11.3v-.9h1.1v-6h2.7zm.2 8.7.5.8c-1.2.6-2.5 1.3-4 1.9-.2-.3-.3-.6-.6-.8 1.6-.6 3-1.3 4.1-1.9zm-2-4.3h1.9v-2.1h-1.9zm0 3.1h1.9v-2.2h-1.9zm2.7-3.1h1.9v-2.1h-1.9zm0 3.1h1.9v-2.2h-1.9zm2.4 1.3c1.4.6 2.7 1.2 4.1 1.8l-.5.9c-1.5-.7-2.8-1.4-4.1-1.9zm2.2-6.5h-1.9v2.1h1.9zm-1.9 5.2h1.9v-2.2h-1.9z"/></g></svg>