<svg enable-background="new 0 0 400 400" viewBox="0 0 400 400" xmlns="http://www.w3.org/2000/svg"><path d="m135.92 142.77c-2.56 4.72-3.38 9.76-2.97 14.73.96 11.58 2.59 23.1 3.73 34.67 1.48 15.03 2.85 30.07 4.06 45.13 1.56 19.52 2.73 39.07 4.46 58.58.44 4.97-.4 9.4-2.65 13.53-3.84 7.05-7.57 14.25-12.26 20.72-8.19 11.31-17.01 22.18-25.71 33.12-3.91 4.91-8.82 8.55-15.12 9.97-5.49 1.24-11.79-2.87-13.77-7.96-2.33-5.97-.61-9.34 4.33-13.28 16.49-13.15 29.78-28.98 37.49-48.98 6.25-16.21 7.52-32.88 4.12-49.81-7.07-35.22-10.23-70.73-10.81-106.67-.59-36.55 15.95-63.07 44.67-83.29 20.33-14.32 41.86-26.67 64.43-37.16 1.26-.58 3.28-.55 4.53.05 6.22 3 9.09 9.28 7.38 15.95-.36 1.41-1.26 2.87-2.33 3.87-4.97 4.65-10.89 7.7-17.28 10.02-7.55 2.73-15.23 5.29-22.42 8.82-11.09 5.45-19.27 14.5-26.52 24.26-4.11 5.53-7.71 11.49-11.14 17.48s-1.75 12.2 1.99 17.03c7.32 9.45 15.21 18.5 23.42 27.2 4.64 4.92 10.35 8.82 15.61 13.15.95.78 2.03 1.39 3.01 2.13 4.51 3.41 6.12 6.99 4.58 10.09-1.45 2.9-7.85 5.81-11.53 4.53-7.2-2.5-14.48-4.47-20.5-10.04-10.42-9.66-21.62-18.44-32.8-27.84z" fill="#010106"/><path d="m158.06 374.62c-1.78-3.92-1.23-6.8 2.29-9.64 4.94-4 9.24-8.79 13.98-13.05 13.81-12.39 21.64-28.02 26.35-45.78 8.99-33.88 11.41-68.28 9.67-103.13-.73-14.64-1.44-29.29-1.56-43.94-.1-12.93 1.89-25.75 6.26-37.89 1.9-5.28 5.55-10.4 9.61-14.34 7.99-7.77 16.65-14.89 25.35-21.89 14.2-11.42 28.66-22.52 43.02-33.75.26-.2.56-.35.81-.51 9.61 3.37 11.9 17.66 9.31 24.36-.43 1.11-1.74 1.98-2.8 2.73-18.74 13.22-37.53 26.36-56.22 39.65-1.39.99-2.44 2.78-3.07 4.41-1.87 4.88-3.9 9.77-5.01 14.84-.93 4.27-1.39 8.92-.7 13.18.83 5.1 2.75 10.13 4.89 14.88 1.13 2.5 3.55 4.54 5.7 6.43 11.76 10.34 24.74 18.51 39.47 24.28 11.19 4.38 21.71 10.5 32.48 15.95.76.38 1.3 1.63 1.5 2.57.26 1.18.06 2.45.06 3.68 0 5.37-3.13 7.5-8.41 5.46-6.14-2.37-12.1-5.22-18.3-7.43-13.15-4.7-26.45-8.97-39.56-13.76-3.25-1.19-6.13-3.53-8.97-5.62-3.58-2.63-6.95-5.56-10.69-8.58-3.33 6.48-3.79 13.11-3.53 19.79.22 5.58.94 11.15 1.29 16.73.6 9.52.46 18.94-2.35 28.24-4.7 15.6-5.84 31.85-8.17 47.88-1.66 11.45-4.44 22.58-9.27 33.14-.28.61-.51 1.28-.93 1.76-8.29 9.4-16.44 18.91-24.96 28.1-7.29 7.88-16.54 11.61-27.54 11.25z" fill="#010106"/><g fill="#fcfbfa"><path d="m385.2 377.6.6-.7c.6.4 1.3.9 1.9 1.5l-.6.7c-.8-.5-1.4-1-1.9-1.5zm.3 7.1c.6-1.4 1.1-2.9 1.5-4.5.3.1.6.3.9.4-.5 1.4-1 2.9-1.5 4.4zm.2-10.1.6-.6c.7.5 1.3 1.1 1.9 1.6l-.7.7c-.6-.6-1.2-1.2-1.8-1.7zm8.4-.8h.8v.9h1.8v.7h-1.8v1.8h-.8v-.3h-1.2v.9h3.3v2.6h-.8v-.4h-2.5c0 .3 0 .6-.1.8h3.4v.7h-3.5c0 .3-.1.6-.1.8h4v.7h-3.5c.7.9 1.9 1.3 3.6 1.5-.2.2-.4.5-.6.9-1.9-.3-3.2-1.1-3.8-2.3-.5 1.1-1.8 2-3.9 2.4-.2-.3-.4-.5-.6-.8 1.9-.4 3.1-.9 3.6-1.7h-3.2v-.7h3.5c.1-.2.1-.5.2-.8h-3.3v-.7h3.4c0-.2 0-.5 0-.8h-2.4v.3h-.8v-2.6h3.3v-.9h-1.2v.3h-.8v-1.8h-1.8v-.7h1.8v-.9h.8v.9h3.2zm-4.4 5.5h2.4c0-.3 0-.6 0-.9h-2.4zm1.2-3.1h3.2v-.8h-3.2zm4.4 2.2h-2.4v.9h2.5v-.9z"/><path d="m389.2 385.8h.9v1.5h1.9v-1.5h.9v1.5h2.7v6h1.1v.9h-11.3v-.9h1.1v-6h2.7zm.2 8.7.5.8c-1.2.6-2.5 1.3-4 1.9-.2-.3-.3-.6-.6-.8 1.6-.6 3-1.3 4.1-1.9zm-2-4.3h1.9v-2.1h-1.9zm0 3.1h1.9v-2.2h-1.9zm2.7-3.1h1.9v-2.1h-1.9zm0 3.1h1.9v-2.2h-1.9zm2.4 1.3c1.4.6 2.7 1.2 4.1 1.8l-.5.9c-1.5-.7-2.8-1.4-4.1-1.9zm2.2-6.5h-1.9v2.1h1.9zm-1.9 5.2h1.9v-2.2h-1.9z"/></g></svg>