<svg enable-background="new 0 0 400 400" viewBox="0 0 400 400" xmlns="http://www.w3.org/2000/svg"><path d="m374.8 390.4.4-.4c.7.5 1.3 1 1.8 1.4l-.5.5c-.5-.6-1.1-1.1-1.7-1.5zm1 7.3-.6-.3c.5-1.4 1.1-2.8 1.5-4.3.2.1.4.2.6.3-.5 1.3-1 2.8-1.5 4.3zm-.4-10.3.4-.4c.4.3 1 .8 1.7 1.4l-.5.5c-.4-.5-1-1-1.6-1.5zm2.5.3h1.7v-1h.6v1h3.5v-1h.6v1h1.8v.5h-1.8v1.4h-2v1h3.2v2h-3.2v.9h3.3v.5h-3.4c0 .3-.1.6-.1.9h4v.5h-3.7c.7.9 1.9 1.5 3.8 1.7-.1.2-.2.4-.3.6-2.1-.4-3.5-1.1-4-2.1-.4 1-1.8 1.7-4 2.2-.1-.2-.2-.4-.3-.6 2.1-.4 3.4-1 3.8-1.8h-3.4v-.5h3.6c.1-.3.1-.6.2-.9h-3.3v-.5h3.4c0-.3 0-.6 0-.9h-3.2v-2h3.3v-1h-2.1v-1.4h-1.7v-.5zm1.1 3.5v1h2.7c0-.3 0-.4 0-.4 0-.1 0-.2 0-.2 0-.1 0-.2 0-.3h-2.7zm1.2-3v.9h3.5v-.9zm4.7 3h-2.6v.6.4h2.6z" fill="#fbfcfa"/><path d="m393.6 386.7h.6v1.5h2.7v6.1h1.1v.6h-11v-.6h1.1v-6.1h2.7v-1.5h.6v1.5h2.1v-1.5zm-2.7 8.8.4.6c-1.2.6-2.5 1.3-3.8 1.9-.1-.2-.2-.4-.3-.6 1.2-.6 2.5-1.2 3.7-1.9zm-2.2-6.7v2.4h2.1v-2.4zm0 3v2.5h2.1v-2.5zm2.8-3v2.4h2.1v-2.4zm0 3v2.5h2.1v-2.5zm6 6.1c-1.4-.7-2.7-1.3-3.9-1.8l.3-.6c1.5.6 2.7 1.2 3.9 1.7zm-1.2-9.1h-2.1v2.4h2.1zm-2.1 3v2.5h2.1v-2.5z" fill="#fbfcfa"/><g fill="#010106"><path d="m210.42 193.5c.34 5.2.65 10.41 1.03 15.61.78 10.38 1.69 20.75 2.39 31.13.89 13.23-4.52 23.72-14.58 31.92-5.11 4.17-10.44 8.09-15.88 11.84-10.71 7.38-20 16.14-27.19 27.01-1.53 2.31-3.47 3.17-6.07 3.35-4.34.3-8.66.77-13.29 1.2-.67-2.32-1.56-4.51-1.84-6.78-.11-.89 1-2.1 1.8-2.91 10.49-10.56 21.03-21.09 31.58-31.6.86-.86 1.9-1.54 3.46-2.79-3.35-1.22-5.92-1.85-8.2-3.03-8.91-4.64-17.71-9.49-26.59-14.2-4.44-2.36-8.9-4.71-13.48-6.76-1.33-.6-3.28-.61-4.68-.12-7.47 2.61-14.86 5.46-22.65 8.37-1.26-3.69-2.59-7.09-3.5-10.6-.21-.81.84-2.14 1.6-2.97 16.5-17.83 33.05-35.61 49.58-53.41 7.23-7.78 14.46-15.57 21.65-23.32-6.33-6.74-12.62-13.22-18.65-19.94-8.18-9.12-15.69-18.76-19-30.86-1.32-4.8-2.04-9.77-3.15-15.2 4.73 0 8.73-.16 12.71.11 1.05.07 2.19 1.35 2.97 2.33 10.77 13.46 21.47 26.97 32.2 40.45.62.77 1.32 1.48 2.48 2.76-3.12-14.1-6.09-27.5-9.06-40.9-.48-2.18-1.3-4.34-1.44-6.54-.58-8.9-5.12-15.21-11.99-20.56-5.52-4.3-10.41-9.41-15.57-14.17 3.95-4.58 8.2-6.34 14.44-5.5 23.83 3.22 47.74 5.91 71.65 8.47 13.44 1.44 26.96 2.18 40.42 3.42 4.29.39 7.83 2.4 10.13 6.69-9.66 1.83-19.09 3.61-28.52 5.39-7.03 1.33-14.08 2.58-21.08 4.04-1.09.23-2.52 1.14-2.91 2.09-6.23 15.31-12.33 30.67-18.65 46.52 3.01.65 5.77 1.45 8.58 1.74.92.1 2.09-1 2.96-1.76 7.64-6.71 15.05-13.72 22.94-20.13 4.82-3.92 10.77-5.92 17.04-6.41 1.05-.08 2.68.56 3.14 1.38.56.99.68 2.85.09 3.76-5.6 8.77-11.36 17.43-17.17 26.07-.78 1.16-1.98 2.12-3.14 2.95-9.51 6.89-19.07 13.73-28.6 20.6-.9.64-1.75 1.35-2.42 2.45 10.37-3.03 20.77-5.96 31.09-9.14 7.78-2.39 15.61-3.94 23.77-2.94 2.09.26 4.25.6 6.2 1.36 8.21 3.22 16.48 6.36 24.5 10.01 10.19 4.63 12.8 10.83 7.75 23.58-.49 1.24-1.86 2.18-2.94 3.12-12.54 10.82-25.09 21.64-37.7 32.39-1.61 1.37-2.21 2.61-1.92 4.84 1.29 9.99 2.35 20 3.35 30.02.12 1.2-.38 2.63-1 3.71-4.82 8.32-9.77 16.57-14.61 24.88-.65 1.12-1.5 2.52-1.34 3.66 1.66 11.61-4.9 20.26-10.35 29.3-1.21 2.01-2.66 3.87-3.94 5.84-4.27 6.58-4.58 13.59-2.27 20.91.54 1.7 1.26 2.26 3.1 1.99 8.52-1.23 17.07-2.28 25.6-3.48 1.06-.15 2.11-.68 3.06-1.22 4.65-2.69 9.13-5.68 13.91-8.11 9.12-4.64 16.95-10.72 22.98-19.05.97-1.35 2.18-2.52 3.93-4.52.57 6.25 1.14 11.69 1.48 17.15.05.79-.93 1.72-1.57 2.46-10.22 11.88-20.51 23.7-30.67 35.62-8.02 9.4-18.24 12.32-29.91 9.69-6.49-1.46-12.72-4.1-19.03-6.31-.99-.35-1.92-1.14-2.65-1.94-10.5-11.41-16.25-24.17-12.1-40.11 2.56-9.84 4.45-19.85 6.82-29.74.28-1.18 1.43-2.58 2.54-3.07 16.5-7.26 23.85-20.77 26.15-37.82 1.6-11.89.31-23.43-4.24-34.56-.38-.92-.74-1.92-1.37-2.66-7.75-9.11-15.55-18.19-23.34-27.27-.29.08-.56.15-.82.22zm-77.48 31.52c1.6 1.21 2.74 2.08 3.89 2.94 12.98 9.74 25.96 19.47 38.94 29.21 4.75 3.57 8.47 2.57 10.88-2.92 1.03-2.35 2.09-4.7 3.13-7.05 3.49-7.88 3.32-8.61-3.27-14.32-.59-.51-1.19-1.02-1.84-1.46-10.16-6.85-21.37-11.15-33.34-13.48-2.08-.41-4.62-.46-6.48.37-3.97 1.77-7.61 4.23-11.91 6.71zm114.05-25.19c9.98-5.68 19.67-11.2 29.35-16.72.36-.21.67-.52 1.14-.9-3.26-6.32-8.36-9.84-15.22-10.75-2.61-.35-5.98-1.35-7.79-.18-6.03 3.9-11.51 8.65-17.26 13.13 3.35 5.3 6.45 10.18 9.78 15.42zm-56.54-85.51c6.49-3.64 7.82-9.99 9.57-16.1 3.18-11.11 2.55-11.87-8.19-16.26-4.99-2.04-8.87-1.82-12.43 2.23-.07.08-.16.16-.26.21-1.67.92-1.51 2.09-.76 3.63 1.9 3.91 3.64 7.91 5.45 11.86 2.21 4.85 4.44 9.69 6.62 14.43zm-20.8 77.82c2.45 5.55 4.71 10.76 7.08 15.92.31.68 1.12 1.5 1.78 1.58 5.19.65 10.41 1.13 16.64 1.78-.68-5.84-.67-11.4-2.16-16.51-.98-3.38-4-6.24-6.36-9.12-.52-.63-2.32-.84-3.17-.45-4.55 2.07-9 4.39-13.81 6.8z"/><path d="m165.77 27.12c14.29.64 28.02.85 41.67 2.03 8.22.71 15.32 4.52 19.85 12.15-8.92 8.04-18.96 10.37-30.27 7.1-9.53-2.76-19.02-5.67-28.58-8.33-2.17-.61-2.83-1.61-2.71-3.74.16-2.75.04-5.52.04-9.21z"/></g></svg>