<svg enable-background="new 0 0 400 400" viewBox="0 0 400 400" xmlns="http://www.w3.org/2000/svg"><path d="m374.8 390.4.4-.4c.7.5 1.3 1 1.8 1.4l-.5.5c-.5-.6-1.1-1.1-1.7-1.5zm1 7.3-.6-.3c.5-1.4 1.1-2.8 1.5-4.3.2.1.4.2.6.3-.5 1.3-1 2.8-1.5 4.3zm-.4-10.3.4-.4c.4.3 1 .8 1.7 1.4l-.5.5c-.4-.5-1-1-1.6-1.5zm2.5.3h1.7v-1h.6v1h3.5v-1h.6v1h1.8v.5h-1.8v1.4h-2v1h3.2v2h-3.2v.9h3.3v.5h-3.4c0 .3-.1.6-.1.9h4v.5h-3.7c.7.9 1.9 1.5 3.8 1.7-.1.2-.2.4-.3.6-2.1-.4-3.5-1.1-4-2.1-.4 1-1.8 1.7-4 2.2-.1-.2-.2-.4-.3-.6 2.1-.4 3.4-1 3.8-1.8h-3.4v-.5h3.6c.1-.3.1-.6.2-.9h-3.3v-.5h3.4c0-.3 0-.6 0-.9h-3.2v-2h3.3v-1h-2.1v-1.4h-1.7v-.5zm1.1 3.5v1h2.7c0-.3 0-.4 0-.4 0-.1 0-.2 0-.2 0-.1 0-.2 0-.3h-2.7zm1.2-3v.9h3.5v-.9zm4.7 3h-2.6v.6.4h2.6z" fill="#fbfcfa"/><path d="m393.6 386.7h.6v1.5h2.7v6.1h1.1v.6h-11v-.6h1.1v-6.1h2.7v-1.5h.6v1.5h2.1v-1.5zm-2.7 8.8.4.6c-1.2.6-2.5 1.3-3.8 1.9-.1-.2-.2-.4-.3-.6 1.2-.6 2.5-1.2 3.7-1.9zm-2.2-6.7v2.4h2.1v-2.4zm0 3v2.5h2.1v-2.5zm2.8-3v2.4h2.1v-2.4zm0 3v2.5h2.1v-2.5zm6 6.1c-1.4-.7-2.7-1.3-3.9-1.8l.3-.6c1.5.6 2.7 1.2 3.9 1.7zm-1.2-9.1h-2.1v2.4h2.1zm-2.1 3v2.5h2.1v-2.5z" fill="#fbfcfa"/><g fill="#010101"><path d="m167.05 366.46c3.03-1.34 5.97-2.46 6.34-6.51.13-1.41 1.29-2.85 2.26-4.03 3.83-4.65 5.86-9.93 6.05-15.95.02-.77.06-1.64.43-2.28 5.23-9.2 3.59-18.83 1.86-28.47-.88-4.93-1.32-10.03-4.76-14.1-.93-1.11-1.77-2.31-2.82-3.29-5.08-4.73-10.09-9.54-15.38-14.03-2.58-2.19-5.7-3.75-8.59-5.57-.37-.24-.93-.25-1.21-.54-5.93-6.34-11.84-12.71-17.75-19.08-.07-.08-.06-.23-.14-.3-4.85-4.35-5.49-10.85-8.07-16.34-1.15-2.44-.3-5.8-.44-8.74-.12-2.52-.31-5.05-.58-7.56-.3-2.75-.27-5.08 2.48-6.98 1.6-1.1 2.66-3.24 3.52-5.11 1.8-3.87 3.46-7.32 8.02-9.2 2.79-1.15 4.67-4.63 6.85-7.15 2.05-2.37 3.83-4.97 7.64-4.45.64.09 1.68-.9 2.16-1.63 2.26-3.46 5.21-6.77 6.35-10.6 1.37-4.59 1.16-9.65 1.62-14.51.01-.11 0-.28-.07-.32-4.49-2.73-4.74-7.78-6.7-11.92-.35-.75-2.07-1.11-3.19-1.18-1.06-.07-2.16.47-3.24.76-6.66 1.78-11.26-1.1-12.85-8.57 3.39-.48 6.75-1.12 10.13-1.39 2.54-.21 3.86-1.12 3.99-3.82.14-2.92.93-5.37 4.59-5.87 1.94-.26 1.99-2.73.78-4.9-1.55-2.78-2.75-5.77-4.01-8.7-.23-.54-.28-1.65.02-1.85 2.79-1.83 1.33-4.62 1.85-6.98 1.86-8.37-.87-16.66-.05-24.98.42-4.32 2.3-6.32 6.54-7.1 2.84 7.16-.62 15.65 4.59 23 1.87-2.25 3.34-4.04 4.84-5.81 1.08-1.28 2.09-2.65 3.32-3.76 2.05-1.84 3.87-2.31 6.14.28 3.5 3.99 7.06 8.24 13.48 8.59 1.12-4.61 2.27-9.24 3.31-13.88.12-.54-.45-1.2-.58-1.83-.41-1.92-1.14-3.86-1.05-5.77.16-3.2-.61-5.83-2.63-8.36-2.77-3.46-5.29-7.13-7.75-10.83-1.61-2.42-3.75-2.58-5.77-1.28-2.59 1.67-4.99 3.72-7.21 5.87-1.91 1.86-3.32 4.23-5.18 6.16-2.48 2.56-5.23 4.36-9.24 3.22-1.47-.42-3.33.54-5.48.96.41-9.55-4.1-17.53-8.71-25.47-.28-.48-.47-1.01-.67-1.53-2.48-6.35-1.06-8.22 5.71-9.28 8.69-1.36 17.3-3.25 25.92-5.04 11.11-2.31 22.26-3.53 33.61-2.26 2.53.28 5.16-.25 7.68.11 1.52.21 3.05 1.22 4.28 2.23.75.61.94 1.91 1.38 2.9-.99.32-2 .95-2.96.9-1.94-.11-2.67.75-3.37 2.44-2.36 5.66-5.07 11.17-7.4 16.84-.99 2.41-1.16 5.14-2.06 7.6-.89 2.44-2.05 4.84-3.44 7.02-.98 1.54-.84 2.52-.16 4.18 1.28 3.14 1.96 6.53 2.81 9.83.16.62.05 1.35-.06 2-1.68 10.8.31 21.12 4.06 31.22.96 2.59 2.6 5.43-2.67 6.73 7.07 2.95 3.01 5.78.46 8.59.26.17.52.35.78.52 1.83-.49 3.67-.98 5.69-1.53.19.2.62.46.76.82 2.32 6.22 6.85 9.28 13.39 10.03 3.5.4 6.91 1.63 10.36 2.48 2.15.53 2.5 1.93 1.68 4.49-10.41 0-21.01-.04-31.6.04-1.55.01-3.09.58-4.63.9-.01.41-.03.81-.04 1.22 5.55 4.65 10.99 9.45 16.7 13.89 3.05 2.37 5.1 4.83 4.52 8.93-.11.8.44 2.32.98 2.48 7.47 2.19 7.71 8.43 8.28 14.47.16 1.66.12 3.37-.06 5.03-.65 6.12 1.43 11.4 4.72 16.39 2.16 3.26 4.22 6.59 6.26 9.93.51.84 1.19 1.86 1.1 2.72-.22 2.18 1.07 2.83 2.65 3.67 1.2.64 2.5 1.65 3.06 2.83 1.71 3.57 4.54 5.67 8.02 7.19 2.25.98 4.62 1.88 6.57 3.31 1.91 1.4 3.35 3.44 5 5.2-.22.29-.44.59-.65.88-1.09.09-2.27.51-3.25.23-6.4-1.8-13.06-3.08-17.88-8.35-3.17-3.47-6.52-6.77-9.76-10.17-5.67-5.94-9.72-12.74-11.54-20.85-.58-2.59-1.81-5.03-2.7-7.56-.29-.82-.53-1.68-.61-2.54-.31-3.18-.35-6.4-.86-9.55-.5-3.09-1.79-6.16 1.71-8.87-5.25 2.45-6.61-1.69-8.78-4.32-.21-.26-.36-.57-.54-.85-5.6-8.42-9.11-9.61-18.63-6.41-5.29 1.78-10.11 3.92-14.54 7.78-4.68 4.08-5.55 9.5-7.81 14.47-.23.51.2 1.49.59 2.07 2.26 3.37 2.25 7.01 1.08 10.63-1.61 4.99-3.44 9.83-3.3 15.27.05 1.75-1.92 3.55-3.38 6.04-2.95-5.12-3.43-9.44-3.24-13.96.21-4.89.62-9.82.2-14.67-.4-4.54-3.65-5.69-7.25-2.74-6.23 5.1-12.44 10.26-18.3 15.78-4.42 4.17-6.79 8.96-5.56 15.85 1.08 6.09 1.69 12.15 4.75 17.6.89 1.58 2.07 3.32 3.58 4.16 4.09 2.28 6.8 5.73 9.22 9.52.46.72.98 1.65.9 2.42-.38 3.85.96 6.12 5.05 6.57.99.11 1.98.98 2.79 1.71 7.67 6.87 15.51 13.57 22.82 20.82 2.55 2.53 3.85 6.38 5.53 9.73 1.39 2.75 2.53 5.64 3.73 8.48.43 1.01.82 2.06 1.01 3.13.37 2.09.41 4.25.91 6.31 2.43 10.02-.4 19.39-3.47 28.71-1.43 4.33-2.99 8.63-4.72 12.85-.72 1.76-1.68 3.76-3.14 4.83-2.75 2.03-3.94 4.48-4.39 7.78-.74 5.49-7.09 9.88-12.02 8.6-.54-.14-1.33-.19-1.54-.55-2.63-4.52-7.68-5.9-11.41-8.96-1.07-.87-1.72-2.25-2.87-3.81 4.13 0 7.8-.41 11.29.2 1.47.19 2.51 2.66 3.96 4.4zm23.09-232.67c.05.3.1.61.15.91 2.01.11 4.28.86 5.96.17 2.01-.84 3.78-2.72 5.11-4.54.52-.71-.39-2.5-.73-3.78-.41-1.55-1.51-3.2-1.25-4.61.87-4.67-.54-8.73-3.71-11.66-5.14-4.74-10.85-8.86-16.34-13.23-1.66-1.32-2.95-.71-4.33.67-2.53 2.53-5.04 5.15-7.9 7.26-4.88 3.6-6.02 8.71-6.12 14.14-.08 4.41-.37 8.64-2.14 12.75-1.19 2.78-.24 4.86 2.71 5.13 3.81.36 7.73.2 11.54-.29 5.72-.71 11.37-1.92 17.05-2.92zm5.67 22.76c-6.33-14.01-12.76-15.85-31.15-10.19 2.12 5.1 4.42 10.15 6.31 15.34 1.86 5.12 2.19 5.69 7.56 5.02 1.86-.23 3.7-1.37 5.36-2.4 3.93-2.43 7.74-5.03 11.92-7.77zm-22.34-106.15c1.64-3.16 3.27-6.02 4.62-9.01.68-1.51 1.67-3.78 1.05-4.75-.8-1.23-3.15-2.19-4.73-2.06-5.32.42-10.62 1.29-15.9 2.15-3.44.56-5.81 1.24-6.1 6.23-.25 4.5.45 7.69 3.2 10.87 3.27 3.78 8.47 3.82 11.68-.14 1.75-2.14 3.46-4.13 6.18-3.29zm28.71-18.39c-2.86.38-5.77.57-8.56 1.24-.99.24-1.97 1.53-2.47 2.58-.9 1.86-1.19 4.03-2.16 5.84-3.07 5.72-2.67 8.18 2.36 12.02.36.27.71.55 1.06.83 3.74 2.9 4.93 2.52 8.3-1.03 3.74-3.94 4.74-9.04 6.49-13.79 3.02-8.26 1.58-7.22-5.02-7.69zm-14.16 267.31c-3.98-6.12-3.98-6.12-6.72-4.5 2.4 1.25 1.94 5.96 6.72 4.5z"/><path d="m136.98 319.34c2.07 2.34 4.22 4.18 5.62 6.47 2.5 4.08 4.62 8.4 6.77 12.69 1.63 3.24 2.54 6.57 1.09 10.26-.71 1.8-.21 3.33 2.1 4.11 2.21.75 2.29 3.67.35 5.01-2.5 1.72-5.42 1.12-6.74-1.57-3.78-7.66-8.42-15.01-8.58-24.01-.03-1.46-.88-2.96-1.58-4.33-1.39-2.74-1.43-5.33.97-8.63z"/></g></svg>