<svg enable-background="new 0 0 400 400" viewBox="0 0 400 400" xmlns="http://www.w3.org/2000/svg"><path d="m204.25 257c-1.47 3.47-2.91 6.39-3.96 9.44-2.52 7.3-6.64 13.55-11.66 19.38-7.78 9.03-13.99 19.25-22.39 27.92-9.55 9.86-20.29 17.6-32.8 22.77-9.79 4.05-19.92 7.31-29.99 10.68-4.74 1.58-9.66 1.61-14.65-.11 1.39-4.55 2.97-8.31 7.6-11.05 8.23-4.87 16.02-10.56 23.54-16.48 3.02-2.38 4.84-6.27 7.37-9.71-5.21-3.08-10.15-3.02-15.1-1.96-7.96 1.7-15.88 3.57-23.78 5.55-.95.24-1.97 1.43-2.38 2.42-2.92 6.89-6.1 13.7-8.39 20.8-2.2 6.83-6.46 10.21-13.4 10.5-2.33.1-4.7-.01-7.02-.26-4.48-.48-6.19-3.52-4.63-7.96 1.67-4.74 3.49-9.44 4.91-14.26 1.19-4.06 1.95-8.24 2.77-12.4.77-3.86 0-8.07 2.76-11.48.37-.46.48-1.31.4-1.93-.96-7.12 1.85-13.62 3.08-20.4 1.63-9 2.68-18.12 3.68-27.22.55-4.97.89-10.03.63-15.01-.51-9.81-1.49-19.59-2.3-29.38-.14-1.64-.38-3.27-.61-5.17h7.1c.68-2.64 1.32-5.09 2.14-8.25 10.29 1.2 20.47 2.39 30.64 3.59 3.09.36 6.18 1.1 9.26 1.09 21.03-.09 41.29 4.2 61.13 10.76 2.49.83 4.83 2.28 7.06 3.71 3.95 2.53 7.76 5.28 11.86 8.09 3.08-3.3 3.7-7.44 3.99-11.46.78-10.78-.14-21.45-2.65-31.99-.59-2.47-1.72-3.47-4.38-3.3-3.9.25-7.85-.14-11.75.11-9.75.62-19.15-.49-28.13-4.57-1.18-.54-2.83-.47-4.16-.19-6.12 1.3-12.23 2.69-18.3 4.21-3.47.87-6.48.24-8.95-2.25-2.54-2.55-5.33-3.35-8.99-3.17-15.41.75-30.86.9-46.27 1.75-8.35.46-16.62 2.02-24.96 2.83-2.62.25-5.4-.01-7.97-.6-5.14-1.18-7.49-7.32-4.6-11.75.52-.8 1.76-1.39 2.76-1.57 7.9-1.43 15.83-2.75 23.75-4.09 4.07-.69 8.23-1.03 12.19-2.11 2.38-.65 4.71-2.12 6.59-3.76 2.73-2.39 2.47-3.86.24-6.71-7.4-9.46-13.51-19.52-14.06-31.98-.32-7.24 1.64-8.56 8.99-7.74 12.31 1.36 22.25 7.92 31.93 14.65 3.94 2.74 6.36 7.7 9.39 11.72 3.16 4.2 6.04 8.63 9.36 12.69 4.48 5.48 10.25 7.87 17.3 5.77 1.64-.49 3.33-1.38 4.59-2.52 6.15-5.55 12.21-11.19 18.21-16.91 7.26-6.92 12.63-15.02 15.24-25.11-4.07-2.63-8.53-3.76-13.31-3.26-5.45.57-10.87 1.35-16.29 2.15-9.5 1.42-18.76-.25-27.9-2.41-8.67-2.05-17.42-2.81-26.27-2.79-6.06.02-11.76-1.12-16.93-4.47-.8-.52-1.86-.95-2.79-.93-3.99.08-7.38-.95-10.29-3.9-.77-.78-2.67-.59-4.04-.58-4.01.03-5.09-.77-5.24-3.9-.08-1.68.48-2.56 2.14-3.19 8.62-3.29 17.64-4.24 26.71-4.02 17.88.44 35.76 1.28 53.64 1.97 18.22.7 36.44 1.4 54.65 2.11 6.98.27 18.7 3.57 26.31 7.47 6.25-5.26 13.06-10.24 18.98-16.12 12.14-12.07 23.95-24.49 35.56-37.07 3.51-3.8 6.92-2.54 10.62-1.59 3.86.98 6.23 3.58 6.51 7.59.33 4.79-.71 9.13-3.75 13.19-3.42 4.56-7.32 7.99-12.94 9.34-3.61.87-6.29 3.13-8.76 5.84-12.62 13.83-26.25 26.63-40.98 38.17-4.87 3.82-6.29 8.43-5.17 13.84 1.28 6.2 3.39 12.22 5.34 19.03 3.99-1.61 7.73-2.54 10.86-4.48 23.27-14.41 43.74-32.18 62.09-52.44 1.05-1.16 2.15-2.27 3.25-3.43 3.34 1.48 6.65 2.75 9.76 4.42 1.14.61 2.3 2.02 2.58 3.26 1.14 5.14.79 10.06-2.17 14.77-4.09 6.51-9.55 11.21-16.24 15-21.79 12.34-43.36 25.06-65.11 37.48-2.45 1.4-3.08 2.74-2.79 5.47.89 8.34 1.37 16.73 2.1 25.09.28 3.21 1.04 3.55 3.72 1.73 19.17-12.99 38.46-25.81 57.36-39.17 4.83-3.41 8.26-8.75 12.61-12.91 2.18-2.09 4.83-3.86 7.56-5.15 2.12-1.01 4.27-.25 5.7 2.1 1.91 3.15 4.26 6.05 6.12 9.22 1.22 2.09 2.2 4.41 2.79 6.75.92 3.67.22 6.9-2.94 9.61-4.15 3.55-8.66 5.99-13.88 7.77-10.01 3.42-19.81 7.51-29.6 11.55-5.47 2.26-10.85 4.79-16.1 7.52-7.15 3.71-14.69 5.87-22.63 6.93-2.09.28-4.2.76-6.17 1.5-5.22 1.95-6.33 3.81-5.95 9.27.11 1.56.29 3.14.2 4.69-.47 8.93 1.59 17.17 5.85 25.07 1.66 3.08 3.81 4.1 6.67 3.58 3.03-.55 6.23-1.35 8.81-2.94 11.23-6.92 22.75-13.51 33.2-21.49 7.93-6.05 14.6-13.82 21.43-21.2 4.47-4.83 8.02-10.49 14.56-13.02 2.08-.81 3.43-.67 4.95 1.01 3.97 4.38 8.78 8.3 9.42 14.64.29 2.9-.48 5.93-1.03 8.86-.15.79-1.22 1.41-1.88 2.1-.07.07-.2.09-.31.12-20.24 6.81-37.08 19.45-54.4 31.34-5.2 3.57-11.22 5.95-16.92 8.76-3.61 1.78-7.32 3.33-10.99 4.99-4.67 2.12-5.57 4.22-3.09 8.88 2.25 4.23 4.78 8.36 7.55 12.27 4.84 6.85 10.11 13.4 14.9 20.29 3.61 5.19 8.2 9.11 13.59 12.23.39.22.78.43 1.17.66 7.08 4.17 15.22 6.92 19.15 14.87 6.6-3.48 11.23.29 15.55 3.51 10.86 8.09 22.41 14.77 35.42 18.63 3.58 1.06 7.48 1.19 11.25 1.47 3.97.3 3.39 3.94 4.6 6.16.33.6-.81 2.56-1.75 3.22-9.25 6.48-18.45 13.05-27.96 19.13-7.41 4.74-15.71 6.94-24.63 6.15-2.94-.26-5.86-.56-7.3-4.28-1.9 3.03-4.13 2.71-6.34 1.08-3.14-2.32-6.38-4.54-9.21-7.2-3.75-3.52-7.98-5.97-12.73-7.84-1.83-.72-3.71-2.17-4.81-3.8-7.22-10.69-14.91-20.95-24.57-29.62-1.3-1.16-2.23-2.78-3.16-4.3-12-19.54-23.97-39.1-35.95-58.65-.6-.93-1.23-1.84-2.19-3.32zm-39.98-13.99c.46-10.81-6.75-20.71-17.97-22.39-12.99-1.95-26.21-2.76-39.36-3.1-2.98-.08-7.31 3.18-8.75 6.04-1.51 3.01-.64 7.43-.17 11.16.35 2.77 2.08 4.41 5.49 4.66 13.04.98 26.03 2.61 39.08 3.53 7.2.52 14.46.1 21.68.1zm-35.18 20.1c0-.38 0-.76 0-1.13-7.7 0-15.41.09-23.11-.03-6.28-.1-9.34 3.15-8.47 9.27.36 2.54.44 5.14 1.01 7.63.23 1 1.31 2.31 2.25 2.56 3.99 1.04 8.04 2 12.13 2.5 9.85 1.2 19.72 2.34 29.61 3.06 5.42.4 9.96-1.46 13.69-6.11 2.79-3.47 2.96-7.28 3.96-11.09.79-2.99-.46-4.82-3.08-5.75-1.64-.58-3.47-.86-5.21-.89-7.6-.07-15.19-.02-22.78-.02zm40.82-112.25c2.15 1.54 3.43 3.04 4.99 3.47 6.41 1.76 12.83 4.38 19.64 2.07 1.46-.49 3.62-1.56 3.83-2.67 1.44-7.52 3.88-14.94 2.6-22.82-1.02-6.32-1.03-12.64 1.05-18.85.51-1.54.55-3.29.55-4.95-.01-5.93-2.9-10.94-10.11-6.48-.38.23-.82.35-1.23.54-3.07 1.4-3.99 4.66-2.22 7.54 4.84 7.86 4.97 15.86.82 24.08-1.38 2.73-2.18 5.76-3.52 8.52-.65 1.35-1.68 2.87-2.94 3.52-3.96 2.03-8.12 3.68-13.46 6.03z" fill="#010000"/><path d="m49.55 40.6c5.3-4.52 11.4-6.98 18.47-7.61 19.82-1.76 39.63-3.75 59.43-5.7 6.68-.66 13.33-2 20.01-2.11 7.01-.12 14.04.88 21.06 1.32 3.79.24 7.61.18 11.39.5 7.5.62 12.68 5.52 13.89 12.8.29 1.73.17 3.18-1.72 3.77-4.65 1.46-9.27 3.73-14.01 4.03-6.74.42-13.58-.63-20.38-1.04-4.23-.26-8.47-.38-12.69-.81-1.86-.19-3.62-1.2-5.48-1.51-1.19-.2-2.51.08-3.73.34-2.79.61-5.57 1.98-8.32 1.91-19.79-.55-39.57-1.45-59.35-2.07-2.6-.08-5.24.76-7.86 1.2-.44.07-.85.28-1.27.43-5.68 1.99-8.06.65-9.44-5.45z" fill="#010000"/><g fill="#fbfcfa"><path d="m361.2 9.6.8-1c.9.7 1.9 1.4 2.9 2.3l-.9 1.1c-1-1-2-1.8-2.8-2.4zm.5 10.6c.9-2.1 1.6-4.3 2.3-6.7.4.2.8.4 1.3.6-.7 2.1-1.5 4.3-2.2 6.6zm.4-15.2.9-.9c1 .8 2 1.6 2.8 2.4l-1 1c-.9-.9-1.8-1.7-2.7-2.5zm12.5-1.2h1.2v1.4h2.7v1.1h-2.7v2.7h-1.2v-.6h-1.8v1.3h4.9v3.8h-1.2v-.5h-3.7c0 .4-.1.9-.1 1.2h5.1v1h-5.2c0 .5-.1.9-.2 1.2h6v1h-5.2c1.1 1.3 2.9 2 5.5 2.2-.4.4-.7.8-.9 1.3-2.9-.5-4.8-1.6-5.7-3.5h-.1c-.8 1.7-2.7 2.9-5.9 3.6-.2-.4-.6-.8-.9-1.1 2.8-.6 4.6-1.4 5.4-2.5h-4.8v-1h5.3c.1-.3.2-.7.2-1.2h-4.9v-1h5c0-.4 0-.8.1-1.2h-3.5v.5h-1.2v-3.8h4.9v-1.3h-1.8v.5h-1.2v-2.7h-2.7v-1h2.6v-1.4h1.2v1.4h4.7v-1.4zm-6.6 8.3h3.6c0-.4 0-.9 0-1.4h-3.6zm1.9-4.6h4.7v-1.3h-4.7zm6.6 3.2h-3.7v1.4h3.7z"/><path d="m385.3 3.8h1.3v2.2h2.8v-2.2h1.3v2.2h4.1v9.1h1.7v1.3h-16.9v-1.3h1.7v-9.1h4.1v-2.2zm.4 13.1.7 1.2c-1.8.9-3.8 1.9-6 2.9-.2-.4-.5-.8-.8-1.3 2.3-1 4.3-1.9 6.1-2.8zm-3.1-6.4h2.8v-3.2h-2.8zm0 4.6h2.8v-3.3h-2.8zm4-4.6h2.8v-3.2h-2.8zm0 4.6h2.8v-3.3h-2.8zm3.7 1.9c2.1.9 4.1 1.8 6.1 2.7l-.7 1.3c-2.2-1.1-4.2-2-6.1-2.9zm3.2-9.7h-2.8v3.2h2.8zm-2.8 7.8h2.8v-3.3h-2.8z"/></g></svg>