<svg enable-background="new 0 0 400 400" viewBox="0 0 400 400" xmlns="http://www.w3.org/2000/svg"><path d="m374.8 390.4.4-.4c.7.5 1.3 1 1.8 1.4l-.5.5c-.5-.6-1.1-1.1-1.7-1.5zm1 7.3-.6-.3c.5-1.4 1.1-2.8 1.5-4.3.2.1.4.2.6.3-.5 1.3-1 2.8-1.5 4.3zm-.4-10.3.4-.4c.4.3 1 .8 1.7 1.4l-.5.5c-.4-.5-1-1-1.6-1.5zm2.5.3h1.7v-1h.6v1h3.5v-1h.6v1h1.8v.5h-1.8v1.4h-2v1h3.2v2h-3.2v.9h3.3v.5h-3.4c0 .3-.1.6-.1.9h4v.5h-3.7c.7.9 1.9 1.5 3.8 1.7-.1.2-.2.4-.3.6-2.1-.4-3.5-1.1-4-2.1-.4 1-1.8 1.7-4 2.2-.1-.2-.2-.4-.3-.6 2.1-.4 3.4-1 3.8-1.8h-3.4v-.5h3.6c.1-.3.1-.6.2-.9h-3.3v-.5h3.4c0-.3 0-.6 0-.9h-3.2v-2h3.3v-1h-2.1v-1.4h-1.7v-.5zm1.1 3.5v1h2.7c0-.3 0-.4 0-.4 0-.1 0-.2 0-.2 0-.1 0-.2 0-.3h-2.7zm1.2-3v.9h3.5v-.9zm4.7 3h-2.6v.6.4h2.6z" fill="#fbfcfa"/><path d="m393.6 386.7h.6v1.5h2.7v6.1h1.1v.6h-11v-.6h1.1v-6.1h2.7v-1.5h.6v1.5h2.1v-1.5zm-2.7 8.8.4.6c-1.2.6-2.5 1.3-3.8 1.9-.1-.2-.2-.4-.3-.6 1.2-.6 2.5-1.2 3.7-1.9zm-2.2-6.7v2.4h2.1v-2.4zm0 3v2.5h2.1v-2.5zm2.8-3v2.4h2.1v-2.4zm0 3v2.5h2.1v-2.5zm6 6.1c-1.4-.7-2.7-1.3-3.9-1.8l.3-.6c1.5.6 2.7 1.2 3.9 1.7zm-1.2-9.1h-2.1v2.4h2.1zm-2.1 3v2.5h2.1v-2.5z" fill="#fbfcfa"/><g fill="#010106"><path d="m202.28 374.12c-.45-1.38-1.06-3.27-1.65-5.09 4.63-2.38 9.18-4.64 13.64-7.07 1.45-.79 2.73-1.94 3.99-3.04 8.74-7.64 8.72-17.69.25-25.72-6.82-6.47-13.51-13.08-19.98-19.9-5.86-6.16-8.5-13.72-8.81-22.25-.15-4.2 2.05-7.42 3.3-11.08 2.28-6.7 6.51-11.37 12.75-14.69 4.59-2.44 8.78-5.65 13.54-8.77-7.44-4.01-14.36-7.84-21.4-11.44-.96-.49-2.6-.17-3.73.27-8.74 3.4-17.24 7.56-26.19 10.26-11.25 3.4-22.96 5.62-34.7 3.03-5.1-1.12-9.78-4.17-14.61-6.44-.73-.34-1.6-1.17-1.73-1.9-.98-5.46-2.09-10.93-2.54-16.45-.31-3.87.49-7.81.53-11.72.02-2.22.85-3.63 2.84-4.37 8.48-3.12 16.96-6.23 25.46-9.3 7.46-2.69 14.93-5.32 22.41-7.95 1.47-.52 2.97-1.27 4.48-1.31 5.12-.13 7.11-3.09 8.45-7.64 2.1-7.16 4.84-14.14 7.48-21.69-3.44-.35-6.59-.88-9.76-.96-23.99-.62-44.66-10.04-63.7-23.84-3.69-2.67-6.36-5.84-5.78-10.89 4.72-.97 8.88.46 12.09 3.19 11 9.38 24.27 13.02 37.94 15.82 7.22 1.48 14.47 2.86 22.85 4.51-.87-2.08-1.09-3.78-2.05-4.72-9.72-9.53-17.13-20.65-22.71-32.99-1.73-3.82-2.94-7.94-3.93-12.03-1.3-5.34-3.4-7.25-8.78-6.95-12.51.71-25.01 1.51-37.52 2.13-2.88.14-5.8-.34-8.7-.48-3.98-.19-6.51-2.08-7.33-6.2 2.31-2.29 5.14-2.42 8.29-2.14 3.4.31 6.86.21 10.28.02 6.24-.34 12.52-.53 18.7-1.39 15.95-2.22 31.85-4.74 47.76-7.21 14.48-2.25 28.94-4.59 43.4-6.89.33-.05.67-.11 1-.1 16.14.86 31.77-3.22 47.66-4.76 4.13-.4 8.47.26 12.56 1.13 1.41.3 2.88 2.57 3.39 4.23.66 2.15-.76 3.64-2.99 4.46-8.93 3.27-18.28 4.18-27.64 4.96-15.61 1.31-31.23 2.42-46.83 3.83-9.91.9-13.58 4.01-14.97 13.96-1.17 8.38-.87 16.96-1.77 25.4-.63 5.9.95 10.4 5.65 13.96 1.76 1.33 3.27 3 5.08 4.69 15.61-14.65 34.35-24.57 53.47-33.86 1.37-.67 3.26-.29 4.81-.39 2.05 6.02 2 6.96-2.87 10.28-9.61 6.55-19.41 12.81-29.12 19.21-5.4 3.55-10.51 7.59-12.76 13.82-1.28 3.56-1.3 7.6-1.66 11.44-.07.78.71 1.86 1.39 2.47 3.78 3.33 7.62 6.6 11.53 9.77.91.74 2.16 1.13 3.32 1.47 19.94 5.85 39.74 12.21 60.34 15.56 4.7.77 9.29 2.3 13.17 6.07-5.04 2.84-10.04 2.43-15.15 1.71-4.29-.6-8.63-.94-12.95-1.25-2.46-.18-3.94.92-4.17 3.64-.34 4.1-1.24 8.17-1.33 12.27-.2 9.51.04 19.03-.14 28.54-.05 2.56.87 3.79 3.21 4 4.76.44 9.53.95 14.31 1.07 4.57.12 9.18-.54 13.73-.24 2.67.18 5.26 1.58 7.78 2.91-7.77 5.43-16.34 7.11-25.1 8.42-12.09 1.81-23.84-.98-35.71-2.24-.88-.09-1.81-.37-2.64-.21-13.45 2.56-25.09 8.47-34.45 18.62-3.11 3.37-4.19 7.3-3.49 11.77.76 4.8 2 9.39 5.5 13.06 4.7 4.92 9.4 9.83 14.01 14.84 3.48 3.79 7.05 7.52 10.14 11.62 6.43 8.53 5.13 18.45-2.99 25.33-3.93 3.33-7.95 6.56-11.73 10.04-2.12 1.95-4.33 2.69-7.2 2.67-2.86-.02-5.75.66-9.22 1.11zm-19.92-139.27c.29-.04.58-.08.87-.11-1.52-6.39-2.99-12.79-4.6-19.16-.32-1.27-.96-2.59-1.84-3.53-.65-.7-2.1-1.35-2.9-1.11-14.3 4.4-28.57 8.93-42.82 13.49-.99.32-2.17.94-2.67 1.77-2.77 4.61-5.53 9.25-1.84 14.78 1.27 1.9 1.45 4.95 3.09 6.1 5.57 3.92 11.81 6.47 18.88 5.36 4.64-.72 9.27-1.55 13.85-2.55 6.14-1.34 12.49-1.93 17.08-7.41 2-2.4 3.61-4.39 2.9-7.63zm36.61 5.73c1.49-6.91 3.39-13.6 4.27-20.42.92-7.19.77-14.52 1.28-21.78.14-1.93-.63-2.64-2.12-3.58-4.81-3-9.5-6.19-14.13-9.46-2.19-1.54-4.1-3.48-6.21-5.13-.62-.49-1.58-1-2.27-.87-4.01.72-7.19 4.11-7.9 8.17-.14.77-.31 1.53-.44 2.31-1.58 9.59-3.07 19.17 1.93 28.32.26.47.39 1.08.38 1.62-.09 3.69 1.71 6.25 4.54 8.43 2.21 1.7 4.39 3.54 6.19 5.65 3.66 4.27 8.48 5.9 14.48 6.74zm20.12-38.74c-1.24 7.47-2.56 14.46-3.52 21.49-.99 7.19-1.4 14.45-4.97 21.06-.45.84.24 3.28 1.03 3.65 6.06 2.86 12.22 5.57 19.22 4.7 1.94-.24 2.55-1.33 2.6-3.17.14-4.92.41-9.83.62-14.74.41-9.8.82-19.61 1.24-29.71-5.21-1.06-10.21-2.07-16.22-3.28zm-62.61-71.69c1.26-7.63 2.52-14.94 3.67-22.28.45-2.86.79-5.76.84-8.65.01-.78-1.17-2.18-1.93-2.27-4.99-.59-10.01-1.01-15.03-1.28-3.16-.17-4.75 1.75-4.02 4.8.62 2.59 1.19 5.32 2.48 7.6 4.11 7.29 8.52 14.4 12.88 21.55.26.42 1.08.51 1.11.53z"/><path d="m157.79 33.41c9.57-1.43 19.12-3.13 28.74-4.23 12.87-1.48 25.79-2.58 38.7-3.65 2.49-.21 5.24 0 7.52.91 1.52.6 2.8 2.62 3.49 4.29.9 2.18-.78 3.79-2.63 4.35-4.01 1.22-8.1 2.35-12.25 2.96-17.75 2.62-35.57 3.43-53.47 1.71-2.11-.2-4.2-.71-6.31-.84-3.1-.2-4.36-1.73-3.79-5.5z"/></g></svg>