<svg enable-background="new 0 0 400 400" viewBox="0 0 400 400" xmlns="http://www.w3.org/2000/svg"><path d="m374.8 390.4.4-.4c.7.5 1.3 1 1.8 1.4l-.5.5c-.5-.6-1.1-1.1-1.7-1.5zm1 7.3-.6-.3c.5-1.4 1.1-2.8 1.5-4.3.2.1.4.2.6.3-.5 1.3-1 2.8-1.5 4.3zm-.4-10.3.4-.4c.4.3 1 .8 1.7 1.4l-.5.5c-.4-.5-1-1-1.6-1.5zm2.5.3h1.7v-1h.6v1h3.5v-1h.6v1h1.8v.5h-1.8v1.4h-2v1h3.2v2h-3.2v.9h3.3v.5h-3.4c0 .3-.1.6-.1.9h4v.5h-3.7c.7.9 1.9 1.5 3.8 1.7-.1.2-.2.4-.3.6-2.1-.4-3.5-1.1-4-2.1-.4 1-1.8 1.7-4 2.2-.1-.2-.2-.4-.3-.6 2.1-.4 3.4-1 3.8-1.8h-3.4v-.5h3.6c.1-.3.1-.6.2-.9h-3.3v-.5h3.4c0-.3 0-.6 0-.9h-3.2v-2h3.3v-1h-2.1v-1.4h-1.7v-.5zm1.1 3.5v1h2.7c0-.3 0-.4 0-.4 0-.1 0-.2 0-.2 0-.1 0-.2 0-.3h-2.7zm1.2-3v.9h3.5v-.9zm4.7 3h-2.6v.6.4h2.6z" fill="#fbfcfa"/><path d="m393.6 386.7h.6v1.5h2.7v6.1h1.1v.6h-11v-.6h1.1v-6.1h2.7v-1.5h.6v1.5h2.1v-1.5zm-2.7 8.8.4.6c-1.2.6-2.5 1.3-3.8 1.9-.1-.2-.2-.4-.3-.6 1.2-.6 2.5-1.2 3.7-1.9zm-2.2-6.7v2.4h2.1v-2.4zm0 3v2.5h2.1v-2.5zm2.8-3v2.4h2.1v-2.4zm0 3v2.5h2.1v-2.5zm6 6.1c-1.4-.7-2.7-1.3-3.9-1.8l.3-.6c1.5.6 2.7 1.2 3.9 1.7zm-1.2-9.1h-2.1v2.4h2.1zm-2.1 3v2.5h2.1v-2.5z" fill="#fbfcfa"/><g fill="#010101"><path d="m259.05 82.55c-3.94 2.68-8.04 3.33-12.39 2.73-3.43-.47-6.86-1.01-10.28-1.57-4.39-.71-7.09.7-8.82 4.75-2.02 4.72-4.05 9.44-5.98 14.2-1.97 4.85-1.31 6.45 3.74 7.67 3.22.78 6.62.87 9.94 1.17 9.22.84 13.62 5.61 12.87 14.81-.51 6.28.79 11.8 3.98 17.25 6.09 10.42 11.74 21.1 17.55 31.68.52.94.94 1.93 1.49 3.08-3.29.89-5.57.29-8.03-1.98-5.57-5.14-10.08-10.94-13.83-17.53-2.5-4.4-5.86-8.31-8.95-12.35-.43-.56-1.54-.86-2.34-.86-10.53-.02-20.95-.95-31.39-2.46-5.35-.77-10.94-.06-16.39.35-1.05.08-2.68 1.84-2.81 2.96-.24 2.19-1.64 5.08 1.54 6.47 4.1 1.79 7 4.65 7.19 9.2.11 2.7-.6 5.51-1.34 8.16-1.63 5.8-3.6 11.5-5.29 17.29-1.05 3.59-5.25 5.96-8.23 3.69-5.77-4.38-10.82-9.58-13.1-17.29 3.37.18 6.27.29 9.15.5 4.37.31 7.17-2.41 6.89-6.85-.53-8.47-4.57-15.07-11.18-20.12-1.24-.94-3.13-1.06-4.74-1.47-2.91-.75-3.59-1.89-1.82-4.08 2.16-2.68 1.79-4.51-.21-7.3-1.93-2.69-2.49-6.36-3.49-9.15-4.25 3.86-8.78 7.79-13.06 11.96-1.8 1.75-3.28 3.91-4.57 6.08-3.88 6.52-7.58 13.14-11.37 19.71-.28.48-.53 1.13-.97 1.35-4.41 2.17-2.98 6.27-3.54 9.85-.94 6.05-2.18 12.09-3.76 18.01-2.02 7.59 1.13 18.74 7.19 23.71 2.68 2.2 5.43 4.23 6.58 7.79.81 2.51 1.74 5.07 5.15 5.36.78.07 1.51 1.23 2.17 1.97 8.76 9.88 17.51 19.77 26.25 29.67.51.58 1.06 1.18 1.38 1.87 2.75 5.95 5.41 11.93 8.19 17.87 2.03 4.34 3.3 8.71 2.24 13.6-.69 3.14-3.19 3.38-5.49 4.02-2.48.69-3.5-1.09-4.09-2.94-.67-2.11-.85-4.37-1.45-6.51-1.1-3.93-1.82-8.09-3.66-11.67-4.7-9.14-9.91-18.02-14.99-26.97-.57-1-1.43-2.27-2.4-2.54-3.48-.99-5.55-3.53-7.76-6.08-7.83-9.06-15.73-18.05-23.63-27.06-5.97-6.81-7.21-14.42-4.69-23.1 4.48-15.46 11.13-29.97 19.15-43.79 3.78-6.51 9.27-12.01 13.76-18.14 2.43-3.31 5.3-5.67 9.35-6.41 2.16-.39 3.28-1.57 3.51-3.75.13-1.21.42-2.43.79-3.59.59-1.84 1.06-5.05 2.01-5.22 3.61-.64 7.63-1.08 11.03-.05 2.75.83 4.96 1.94 7.77.59 6.18-2.97 12.69-2.73 19.32-2.04 4.7.49 6.82-1 7.61-4.67.22-1.01.16-2.24-.22-3.2-2.62-6.64-5.2-13.29-8.12-19.8-1.26-2.81-2.91-5.47-7.09-4.74-1.43.25-3.12-1.49-4.78-2-1.71-.52-3.54-.78-5.33-.89-1.43-.09-2.88.32-4.33.34-5.72.07-7.84-1.69-9.43-8.47 3.87 0 7.56-.21 11.22.06 4.22.31 8.39 1.34 12.61 1.52 4.04.17 4.78-.96 4.62-5-.27-6.69-.38-13.4-.83-20.08-.21-3.05-3.09-3.4-5.39-4.06-7.04-2.05-14.09-4.03-20.96-5.99-.2-4.17 3.48-7.18 6.87-6.25 1.39.38 2.82 1.21 4.16 1.08 6.34-.59 12.07 1.53 17.96 3.29 2.75.82 5.82.61 8.74.87.77.07 1.62-.05 2.29.25 11.21 5.14 23.26 6.95 35.21 9.25 4.46.86 8.52 2.65 12.24 5.73 2.33 1.93 6.16 2.28 9.41 2.81 5.18.84 6.76 1.9 8.25 7.07-1.28.4-2.66 1.31-3.85 1.11-5-.85-10.3-1.25-14.82-3.29-5.56-2.51-11.09-3.18-16.93-2.86-.65.04-1.49.83-1.83 1.49-.66 1.28-1.05 2.7-1.53 4.07-1.74 4.94-3.47 9.88-5.22 14.86 4.31 3.87 9.22 4.93 14.72 4.48 5.74-.44 8.08 1.11 10.61 6.52zm-27.57 56.64c1.28-1.72 3.53-3.41 3.33-4.73-.62-4.11-1.64-8.38-3.62-11.96-.86-1.54-4.48-1.56-6.84-2.26-.43-.13-.88-.2-1.32-.24-10.77-1-21.54-2.23-32.33-2.87-4.36-.26-8.88 1.3-12.74-2.57-1.4 1.86-3.47 3.35-3.46 4.82.04 4.42.77 8.86 1.48 13.25.33 2.05 1.87 2.55 4.01 2.49 11.63-.33 23.27-.61 34.9-.59 5.55.01 11.26.1 16.59 4.66zm-25.46-86.13c4.67 3.74 7.75 8.29 8.85 13.98.65 3.39 3.38 3.29 5.84 3.89 2.37.58 4.57.13 5.5-2.01 2.11-4.86 4.29-9.79 5.48-14.92.9-3.87-1.95-8.28-6.65-8.94-2.75-.38-5.42-1.32-8.13-2-4.15-1.04-5.63-.68-6.12 3.45-.39 3.31-2.26 4.73-4.77 6.55zm12 39.96c5.37-6.31 5.08-5.5 1.43-11.62-4.1 2.39-4.31.51-1.43 11.62z"/><path d="m208.52 311.84c3.9 1.67 3.58 4.37 3.51 7.27-.3 13.18-4.91 25.06-11.69 35.95-7.03 11.29-16.56 19.93-30.91 20.02-5.13.03-10.28-1.6-15.41-2.52-2.91-.52-5.78-1.48-8.7-1.62-4.7-.24-5.43-.73-5.86-5.33-.1-1.02-.63-2.1-1.23-2.96-1.66-2.35-3.47-4.6-5.23-6.89.14-.29.28-.57.43-.86 3.88 1.42 7.71 2.98 11.65 4.18 1.63.49 4.05.94 5.15.12 2.9-2.18 5.57-4.83 7.81-7.69 10.16-12.96 14.14-28.41 17.28-44.15.04-.22.14-.43.19-.64.38-1.94-1.38-5.3 2.97-4.65 4.33.65 6.71 3.28 5.78 6.9-2.21 8.53-4.35 17.12-7.2 25.44-2.3 6.71-5.48 13.14-8.58 19.54-.8 1.65-2.6 3.06-4.27 3.96-2.24 1.21-3.46 2.67-3.2 5.58 6.76 2.81 13.25 1.64 19.34-2.03 3.05-1.84 5.7-4.32 8.5-6.56.68-.54 1.36-1.19 1.75-1.95 7.87-15.11 13.17-30.84 11.38-48.22-.67-6.47-2.56-12.37-5.64-18.32-3.84-7.42-5.75-15.83-8.52-23.8-.49-1.42-.69-3.31-1.71-4.1-6.54-5.07-10.74-11.89-14.76-18.9-2.28-3.98-4.58-7.96-7.16-11.74-1.65-2.42-4-4.35-5.75-6.72-3.47-4.72-8.09-9.16-9.77-14.49-2.4-7.61-1.83-15.69 1.45-23.56 2.73-6.54 4.1-13.64 6.08-20.5 1.34-4.64 2.67-9.28 4.1-14.27 2.36 1.62 3.87 2.66 5.73 3.94-.04 9.61-2.4 19.27-6.66 28.52-1.68 3.65-3.08 7.44-4.86 11.04-1.11 2.24-1.07 4.13.1 6.31 1.59 2.95 2.92 6.03 4.35 9.06 1.41 2.96 2.86 5.8 6.79 6.03.66.04 1.4.99 1.88 1.68 4.84 6.97 9.88 13.81 14.33 21.02 2.47 4.01 3.79 8.71 5.91 12.97.95 1.9 2.19 4.22 3.93 5.07 6.99 3.41 8.27 10.02 9.27 16.42.63 4.05.32 7.97 4.52 10.34.76.43 1.27 1.59 1.55 2.52 1.66 5.44 3.41 10.87 4.75 16.39 1.03 4.27.72 8.5-3.37 12.2z"/></g></svg>