<svg enable-background="new 0 0 400 400" viewBox="0 0 400 400" xmlns="http://www.w3.org/2000/svg"><path d="m60.58 344.45c7.49-3.69 14.86-3.28 22.4-2.3 5.86.76 11.79.96 17.7 1.18 1.84.07 3.76-.42 5.54-.99 5.53-1.77 10.94-3.96 16.53-5.49 4.04-1.11 7.07-3.03 8.9-6.82.78-1.62 1.7-2.71 3.92-1.7.98.44 2.61-.05 3.76-.55 8.74-3.77 15.23-10.49 21.85-17 1.73-1.7 3.33-3.52 5.71-6.05-5.73 0-10.57.12-15.41-.04-3.94-.13-7.74-.32-8.9 3.42-5.07-.08-9.56-.4-14.02-.16-6.03.33-11.77-.23-17.28-2.97-4.3-2.13-8.66-4.3-13.22-5.73-6.88-2.16-10.31-7.25-13.29-13.23-1.77-3.54-4.06-6.9-6.59-9.95-3.5-4.21-8.26-4.58-13.15-2.84-2.61.93-5.07 2.31-7.56 3.56-4.15 2.09-6.97 1.19-9.2-2.81-.98-1.76-.66-2.85.75-4.32 13.23-13.82 26.6-27.53 39.45-41.7 10.26-11.3 18.73-23.95 25.31-37.8.47-.99.89-2.01 1.62-3.66-1.83 0-3.22-.09-4.59.01-16.78 1.32-32.27-3.84-47.61-9.55-5.48-2.04-10.6-4.94-14.02-9.95-1.22-1.79-2-3.89-3.33-6.54 3.74.71 6.63 1.41 9.56 1.78 19.27 2.43 38.56 3.5 57.78-.33 5.28-1.05 10.33-2.94 14.06-7.66-6.06-5.41-12.04-10.76-18.03-16.1-4.09-3.65-8.13-7.36-12.33-10.89-.84-.7-2.55-1.32-3.38-.94-15.17 7.03-29.12 1.88-42.81-4.38-4.56-2.09-8.56-5.41-12.82-8.16.13-.41.27-.81.4-1.22 6.28-1.73 12.51-3.66 18.84-5.15 19.34-4.55 37.49-12.43 55.97-19.47 22.38-8.52 45.2-15.99 69.25-17.96 9.98-.82 20.11.22 30.17.41.89.02 1.8.17 2.68.09 8.79-.89 16.88 1.4 24.4 5.68 6.3 3.59 12.6 7.28 18.44 11.55 9.06 6.63 10.94 16.25 5.07 26.8-3.46 6.22-7.97 11.86-12.13 17.67-.66.93-1.91 1.51-2.98 2.07-7.13 3.74-14.29 7.42-21.43 11.14-.96.5-1.87 1.09-3.37 1.97 4.25 1.37 7.86 2.74 11.58 3.67 2.69.67 3 2.29 2 4.18-1.02 1.93-2.81 3.45-3.91 5.34-.69 1.18-.74 2.74-1.08 4.13 1.39.29 2.95 1.15 4.15.8 17.91-5.23 35.76-10.67 53.65-15.95 12.34-3.64 24.87-5.98 37.7-3.02 5.53 1.28 11.33 2.45 16.22 5.13 4.68 2.56 8.38 6.96 12.39 10.66.49.45.49 1.66.39 2.48-1.29 10.21-2.62 20.41-4.01 30.61-.16 1.19-.58 2.4-1.12 3.47-4.89 9.71-10.07 19.22-18.69 26.29-.26.21-.5.45-.71.71-9.04 11.34-20.84 18.53-34.31 23.53-7.74 2.87-15.1 6.74-22.73 9.94-2.37.99-3.04 2.32-2.98 4.78.25 9.65 3.86 18.31 7.68 26.9 2.5 5.61 5.41 11.04 7.85 16.68 3.26 7.52 8.07 13.63 14.16 19.19 13.72 12.52 26.99 25.53 40.36 38.43 2.3 2.22 4.21 4.85 6.41 7.42-2.37 2.59-4.85 3.8-7.97 3.58-.78-.05-1.56-.15-2.34-.23-6.15-.66-11.03-2.8-15.28-8.02-4.28-5.26-10.01-9.7-15.85-13.27-17.62-10.76-31.22-25.13-41.63-42.87-11.09-18.91-22.05-37.85-29.9-58.42-4.32-11.3-5.84-23.19-7.58-34.99-1.22-8.26-5-14.74-10.92-20.15-4.7-4.3-8.34-9.08-8.81-15.62-.08-1.17.55-2.79 1.42-3.57 3.39-3.03 7.02-5.81 10.71-8.8-8.58-3.05-61.4 7.32-63.78 12.52.71.42 1.42.9 2.18 1.27 9.34 4.56 18.53 9.49 28.09 13.53 9.17 3.87 15.98 10.21 21.37 18.18 8.36 12.39 14.04 25.88 12.76 41.15-.57 6.81-2.63 13.54-4.36 20.21-4.38 16.95-13.89 30.79-26.32 42.84-14.74 14.28-30.02 27.91-47.92 38.16-14.15 8.1-29.63 11.75-45.87 12.23-.98.03-2-.24-2.94-.55-7.01-2.31-14.03-4.59-20.98-7.07-1.3-.47-2.66-1.61-3.35-2.81-2.86-5.04-5.48-10.21-8.34-15.59zm210.85-108.1c.4.25.81.51 1.21.76 4.93-2.3 10.34-3.93 14.69-7.04 7.33-5.25 14.05-11.36 20.9-17.25 9.24-7.93 16.24-17.46 20.09-29.14 1.01-3.07 2.38-6.06 2.99-9.21 1.37-7.14-4.3-12.36-11.22-10.6-4.76 1.21-9.5 2.56-14.31 3.57-12.68 2.65-24.79 6.69-35.58 14.04-3.68 2.5-7.66 3.25-12.02 3.29-5.99.05-11.97.45-18.27.71 1.98 5.69 5.3 9.75 9.78 12.91 5.48 3.86 11.16 7.45 16.47 11.53 4.64 3.57 6.53 8.54 5.89 14.5-.43 3.95-.43 7.95-.62 11.93zm-49.76-85.51c-.93-.99-1.43-1.79-2.15-2.26-2.76-1.83-3.07-4.47-1.78-7.03 2.49-4.95 4.95-10 8.19-14.47 5.96-8.24 8.97-17.41 9.76-27.35.38-4.77-1.41-6.85-5.96-8.52-1.36-.5-2.77-.88-4.19-1.15-10.03-1.9-20.06-1.62-30 .46-4 .84-7.89 2.23-11.75 3.6-2.03.72-2.51 2.21-1.85 4.52.97 3.41 1.84 6.98 1.87 10.49.07 11.31-3.39 22.02-6.37 32.78-1.27 4.59-2.95 9.06-4.57 13.97 16.65-.02 33.16 3.73 48.8-5.04zm-23.91 110.87c-1.89 0-3.19-.11-4.47.02-10.57 1.08-21.13 2.16-31.69 3.32-10.42 1.14-19.22-1.73-25.85-10.17-2.14-2.72-4.07-5.63-6.39-8.19-3.05-3.38-6.3-6.59-9.62-9.7-1.83-1.72-3.62-1.28-5.55.46-7.9 7.11-15.92 14.08-23.95 21.06-.82.72-1.93 1.11-3.46 1.97 2.89 2.52 4.44 4.87 6.53 5.54 24.88 8.01 49.83 15.8 74.78 23.58 3.82 1.19 8.23 3.62 11.5 2.62 3.45-1.05 5.63-5.79 8.78-8.43 6.89-5.77 6.55-14.25 9.39-22.08zm-71.26-40.41c.99 4.43 3.52 7.72 6.87 10.45 5.58 4.55 12.16 7.06 19.02 8.84 15.02 3.9 30.38 6.7 44.15 14.45 1.96 1.1 3.54.44 3.51-2.17-.03-2.46.24-5-.27-7.37-1.29-5.97-2.32-12.11-4.6-17.72-3.35-8.23-10.74-11.99-18.96-14.03-10.75-2.68-21.18-3.81-30.77 4.17-2.21 1.83-6.56 1.57-9.89 1.43-3.24-.13-6.16.06-9.06 1.95zm22.04-80.05c3.81-3 7.28-5.93 8.06-11.11.58-3.84 2.25-7.55 2.63-11.39.44-4.35.22-8.81-.21-13.18-.13-1.3-1.87-3.46-2.93-3.49-4.07-.11-8.39-.25-12.2.96-8.49 2.7-16.74 6.2-25.07 9.4-.97.37-1.88.88-3.14 1.48 11.17 9.28 21.98 18.27 32.86 27.33z" fill="#010104"/><path d="m66.56 52.97c3.29-.29 6.13-.56 8.98-.79 20.74-1.65 40.05-8.68 59.53-15.33 23.57-8.05 47.9-11.86 72.89-10.52 2.19.12 4.59.41 6.47 1.42 1.82.97 3.44 2.77 4.5 4.58 1.22 2.08.77 4.05-2.15 4.68-1.74.38-3.38 1.2-5.11 1.62-13.43 3.18-25.16 9.81-35.81 18.27-10.01 7.95-21.78 10.59-33.87 12.26-22.01 3.04-43.68.99-65.02-5.14-3.24-.93-5.64-2.26-7.04-5.4-.82-1.82-2.04-3.44-3.37-5.65z" fill="#010104"/><g fill="#fcfbfa"><path d="m385.2 377.6.6-.7c.6.4 1.3.9 1.9 1.5l-.6.7c-.8-.5-1.4-1-1.9-1.5zm.3 7.1c.6-1.4 1.1-2.9 1.5-4.5.3.1.6.3.9.4-.5 1.4-1 2.9-1.5 4.4zm.2-10.1.6-.6c.7.5 1.3 1.1 1.9 1.6l-.7.7c-.6-.6-1.2-1.2-1.8-1.7zm8.4-.8h.8v.9h1.8v.7h-1.8v1.8h-.8v-.3h-1.2v.9h3.3v2.6h-.8v-.4h-2.5c0 .3 0 .6-.1.8h3.4v.7h-3.5c0 .3-.1.6-.1.8h4v.7h-3.5c.7.9 1.9 1.3 3.6 1.5-.2.2-.4.5-.6.9-1.9-.3-3.2-1.1-3.8-2.3-.5 1.1-1.8 2-3.9 2.4-.2-.3-.4-.5-.6-.8 1.9-.4 3.1-.9 3.6-1.7h-3.2v-.7h3.5c.1-.2.1-.5.2-.8h-3.3v-.7h3.4c0-.2 0-.5 0-.8h-2.4v.3h-.8v-2.6h3.3v-.9h-1.2v.3h-.8v-1.8h-1.8v-.7h1.8v-.9h.8v.9h3.2zm-4.4 5.5h2.4c0-.3 0-.6 0-.9h-2.4zm1.2-3.1h3.2v-.8h-3.2zm4.4 2.2h-2.4v.9h2.5v-.9z"/><path d="m389.2 385.8h.9v1.5h1.9v-1.5h.9v1.5h2.7v6h1.1v.9h-11.3v-.9h1.1v-6h2.7zm.2 8.7.5.8c-1.2.6-2.5 1.3-4 1.9-.2-.3-.3-.6-.6-.8 1.6-.6 3-1.3 4.1-1.9zm-2-4.3h1.9v-2.1h-1.9zm0 3.1h1.9v-2.2h-1.9zm2.7-3.1h1.9v-2.1h-1.9zm0 3.1h1.9v-2.2h-1.9zm2.4 1.3c1.4.6 2.7 1.2 4.1 1.8l-.5.9c-1.5-.7-2.8-1.4-4.1-1.9zm2.2-6.5h-1.9v2.1h1.9zm-1.9 5.2h1.9v-2.2h-1.9z"/></g></svg>