<svg enable-background="new 0 0 400 400" viewBox="0 0 400 400" xmlns="http://www.w3.org/2000/svg"><path d="m179.03 375.42c-3.24-5.73-3.99-11.09-4.66-16.49-.73-5.87-1.49-11.73-2.35-17.58-.42-2.89-2.03-4.19-5.18-4.42-11.81-.85-23.59-2.02-35.46-3.08-2.32 5.25-2.22 10.4-.91 15.6 1.36 5.41 2.18 10.78-.9 15.93-.38.64-.87 1.23-1.95 2.74-9.49-21.22-11.24-42.87-11.26-64.71 2.79-1.29 4.6-.66 5.58 1.45 1.15 2.49 2.46 5.07 2.82 7.73 1.18 8.58 2.43 10.78 11.01 11.54 9.19.81 18.49.4 27.74.36 3.04-.02 5.18-1.55 4.95-4.97-.48-7.22-1.01-14.44-1.61-21.65-.76-9.02-2.02-18.01-2.34-27.04-.8-22.58-1.55-45.18-1.58-67.78-.02-12.05 1.54-24.1 2.22-36.16.07-1.29-.63-3.15-1.61-3.89-5.68-4.3-12.1-6.59-19.33-6.43-1.86.04-2.91.64-3.35 2.46-1.77 7.26-3.54 14.53-5.41 21.77-.81 3.13-1.51 6.36-2.93 9.22-1.04 2.08-3.16 3.63-4.8 5.41-.51-.17-1.01-.34-1.52-.51-.37-2.54-1.02-5.08-1.06-7.63-.05-4.19.38-8.17-1.34-12.43-1.2-2.98.17-7 .41-10.55.09-1.34.43-2.68.35-4-1.01-15.76 3.47-30.8 6.1-46.07.23-1.35 2.17-2.41 3.32-3.61.48.15.97.3 1.45.45.9 3.73 1.9 7.43 2.66 11.19.3 1.51.01 3.13.08 4.69.29 6.2 2.45 11.44 8.32 14.29 5.81 2.82 11.74 5.38 17.67 7.94 2.23.96 3.72.29 4.99-2.1 3.88-7.31 5-15.29 5.76-23.28.74-7.76 2.54-15.13 5.47-22.34 1.19-2.93 1.34-6.26 2.09-9.39.53-2.22 1.25-4.4 1.86-6.52 6.3.97 8.13 3.22 7.56 8.89-.23 2.22-.86 4.4-1.05 6.62-.34 3.98-.45 7.98-.73 11.97-.16 2.22-.38 4.44-.71 6.64-.95 6.38-1.79 12.78-3 19.11-1.92 9.98-3.64 20.03-6.29 29.83-8.86 32.86-8.3 66.12-5.4 99.6.78 9 .11 18.12.3 27.18.06 3.09.69 6.17 1.1 9.25.16 1.22.7 2.44.61 3.62-.74 10.59 3.64 20.37 4.71 30.67 1.13 10.85 1.34 21.65-1.02 32.38-.26 1.1-.73 2.15-1.38 4.1z" fill="#010102"/><path d="m236.68 147.1c-5.2 10.66-10.29 21.09-15.36 31.52-2.14 4.4-4.37 8.66-4.02 13.94.18 2.74-1.52 5.56-1.93 8.4-1.7 11.93.91 23.62 2.32 35.37 2.6 21.76 5.16 43.53 7.81 65.29.5 4.09 1.49 8.12 2 12.21.94 7.64 1.76 15.29 2.51 22.96.73 7.45 1.36 14.91 1.91 22.37.35 4.74.85 9.57-3.09 14.68-.99-4.07-1.88-7.21-2.52-10.4-3.79-19.06-7.62-38.11-11.21-57.21-.94-5.02-1.64-10.21-1.47-15.29.49-14.2-3.57-27.56-6.53-41.19-5.13-23.65-5.81-47.44-.31-71.19.32-1.39.95-2.75 1.62-4.02 5.78-10.97 11.79-21.82 17.34-32.9 2.79-5.57 4.8-11.53 7.05-17.36.37-.96.32-2.19.16-3.24-1.27-8.51-2.67-17.01-3.9-25.53-.35-2.41-.26-4.89-.41-7.33-.31-5.21-.85-10.41-.91-15.62-.08-6.79.06-13.59.39-20.38.44-8.93 1.16-17.85 1.76-26.76 4.45-.38 6.55 1.42 6.84 5.64.77 11.29 2.82 22.48 1.68 33.93-.41 4.06 1.06 8.34 1.87 12.49.91 4.69-1.39 9.25.4 14.22 1.61 4.47 1 9.71 1.57 14.59.58 4.99 1.18 10 2.19 14.92.99 4.8 2.37 9.54 3.83 14.23 1.49 4.8 3.12 9.56 4.96 14.23 4.58 11.64 9.47 23.16 13.91 34.85 1.77 4.67 2.54 9.71 4.03 14.51 1.61 5.2 3.69 10.27 5.24 15.49.87 2.93 1.36 6.05 1.43 9.09.03 1.35-1.2 3.64-2.26 3.91-1.97.5-3.54-.83-4.43-3.06-6.21-15.57-12.65-31.04-18.81-46.62-2.54-6.43-4.71-13.01-6.8-19.6-1.49-4.7-3.92-8.49-8.86-11.14z" fill="#010102"/><g fill="#fcfbfa"><path d="m385.2 377.6.6-.7c.6.4 1.3.9 1.9 1.5l-.6.7c-.8-.5-1.4-1-1.9-1.5zm.3 7.1c.6-1.4 1.1-2.9 1.5-4.5.3.1.6.3.9.4-.5 1.4-1 2.9-1.5 4.4zm.2-10.1.6-.6c.7.5 1.3 1.1 1.9 1.6l-.7.7c-.6-.6-1.2-1.2-1.8-1.7zm8.4-.8h.8v.9h1.8v.7h-1.8v1.8h-.8v-.3h-1.2v.9h3.3v2.6h-.8v-.4h-2.5c0 .3 0 .6-.1.8h3.4v.7h-3.5c0 .3-.1.6-.1.8h4v.7h-3.5c.7.9 1.9 1.3 3.6 1.5-.2.2-.4.5-.6.9-1.9-.3-3.2-1.1-3.8-2.3-.5 1.1-1.8 2-3.9 2.4-.2-.3-.4-.5-.6-.8 1.9-.4 3.1-.9 3.6-1.7h-3.2v-.7h3.5c.1-.2.1-.5.2-.8h-3.3v-.7h3.4c0-.2 0-.5 0-.8h-2.4v.3h-.8v-2.6h3.3v-.9h-1.2v.3h-.8v-1.8h-1.8v-.7h1.8v-.9h.8v.9h3.2zm-4.4 5.5h2.4c0-.3 0-.6 0-.9h-2.4zm1.2-3.1h3.2v-.8h-3.2zm4.4 2.2h-2.4v.9h2.5v-.9z"/><path d="m389.2 385.8h.9v1.5h1.9v-1.5h.9v1.5h2.7v6h1.1v.9h-11.3v-.9h1.1v-6h2.7zm.2 8.7.5.8c-1.2.6-2.5 1.3-4 1.9-.2-.3-.3-.6-.6-.8 1.6-.6 3-1.3 4.1-1.9zm-2-4.3h1.9v-2.1h-1.9zm0 3.1h1.9v-2.2h-1.9zm2.7-3.1h1.9v-2.1h-1.9zm0 3.1h1.9v-2.2h-1.9zm2.4 1.3c1.4.6 2.7 1.2 4.1 1.8l-.5.9c-1.5-.7-2.8-1.4-4.1-1.9zm2.2-6.5h-1.9v2.1h1.9zm-1.9 5.2h1.9v-2.2h-1.9z"/></g></svg>