<svg enable-background="new 0 0 400 400" viewBox="0 0 400 400" xmlns="http://www.w3.org/2000/svg"><g fill="#010102"><path d="m123.56 238.23c2.08 4.11 4.42 7.84 5.83 11.89.85 2.45.43 5.41.26 8.13-.33 5.22-.96 10.42-1.34 15.64-.39 5.32-.62 10.66-.91 15.78 8.31 1.77 16.25 3.55 24.22 5.12 4.44.88 6.42-.69 6.5-5.33.35-20.24.82-40.49.73-60.74-.05-11.83-1.08-23.66-1.67-35.49-.01-.22-.1-.45-.06-.67 2.23-12.42-2.4-24.64-1.06-37.03.27-2.55.65-5.1.71-7.65.14-5.67.38-11.35.11-17.01-.43-8.93-1.25-17.85-1.89-26.66-.3-.25-.47-.52-.63-.51-8.7.57-17.07-1.6-25.52-3.05-.66-.11-1.33-.21-2-.27-8.46-.7-12.02 2.3-12.8 10.84-.76 8.3-1.4 16.6-2.34 24.88-.13 1.13-1.51 2.59-2.64 3.02-1.57.6-2.98-.15-3.3-2.22-.77-4.95-2.49-9.91-2.37-14.83.46-17.99 1.41-35.97 2.39-53.94.44-8.14 1.32-16.26 2.14-24.37.25-2.53.7-5.85 3.81-5.61 1.22.1 3.01 3.81 3.09 5.93.36 9.49.22 19.01.17 28.51-.01 1.07-.5 2.19-.95 3.2-1.02 2.25-.7 4.08.69 6.21.93 1.43.98 3.55 1.08 5.38.19 3.37 1.4 4.55 4.67 4.64 2.99.08 6.1.03 8.94.8 7.34 1.99 14.67.74 22 .5 2.8-.09 3.48-1.98 3.59-4.3.69-14 1.29-28 2.11-41.99.16-2.74 1.16-5.43 2.39-8.07 4.34 9.36 11.22 17.9 6.89 29-.2.5-.17 1.11-.17 1.66-.02 15.76-.59 31.51 1.83 47.21.91 5.9.38 12.06.2 18.09-.32 10.95-1.1 21.88-1.23 32.83-.1 8.13.48 16.27.82 24.4.22 5.24.63 10.47.83 15.72.63 17.09 1.44 34.18 1.72 51.28.18 10.83-.64 21.68-.68 32.53-.02 4.4 1.44 8.84 1.16 13.19-.53 8.36-1.85 16.67-2.78 25-.26 2.33-.64 4.72-.35 7.01 1.62 12.82-2.47 25.03-3.51 37.6-4.4-1.13-7.26-4.66-7.26-8.67 0-6.04.14-12.09-.03-18.13-.39-13.66.36-27.23 2.12-40.78.35-2.66-.24-5.44-.44-8.92-9.24 5.77-18.59 3.01-27.63 3.3-2.83.09-4.43.91-5.13 3.56-1.06 3.99-2.26 7.94-3.16 11.96-1.79 7.95-3.3 15.96-5.18 23.89-.46 1.96-1.91 3.68-3.3 5.34-2.4-5.67-2.35-11.3-2.14-16.99.32-8.82.45-17.65.47-26.48 0-.97-1.06-2.33-1.99-2.84-3-1.63-6.17-2.94-9.25-5.23 1.77-.31 3.54-.79 5.32-.9 6.56-.41 7.28-1.15 7.93-7.68 1.31-13.24 2.69-26.48 4.15-39.7.32-2.99 1-5.99 4.84-7.98z"/><path d="m231.48 318.03c-2.7-5.44-5.22-10.51-7.75-15.58-3.94-7.9-3.22-16.57-4.19-24.97-.59-5.11-1.3-10.21-1.75-15.33-.18-2.06.19-4.16.29-6.25.05-1.07.4-2.29.02-3.2-3.48-8.49-3.58-17.47-3.88-26.39-.57-16.66-1.39-33.32-1.39-49.98 0-10.5 1.88-20.8 5.67-30.82 1.84-4.87 1.53-10.55 2.32-15.84.34-2.27.65-4.64 1.57-6.7 3.79-8.47 7.89-16.79 11.66-25.26.81-1.82 1.12-4.06.98-6.06-.73-10.13-2.19-20.17-.4-30.42.75-4.27-.88-8.91-.52-13.31.32-4 1.7-7.96 2.93-11.84.79-2.48 2.58-2.15 4.08-.54 2.62 2.82 3.96 6.19 3.83 10.07-.3 9.4-.46 18.8-1.02 28.18-.19 3.23.42 5.97 2.25 8.48 3.5 4.79 3.89 9.79 1.46 15.17-.45 1.01-.59 2.48-.21 3.49 2.68 7.23 5.44 14.42 8.34 21.56 2.27 5.57 5.75 10.33 10.4 14.21.77.64 1.53 1.32 2.17 2.09 7.03 8.39 14.06 16.78 21.04 25.21 1.19 1.44 2.17 3.05 3.79 5.38-6.98-1.61-13.04-2.94-17.49-7.76-9.4-10.19-18.77-20.41-27.95-30.79-1.76-2-2.62-4.8-3.87-7.25-.89-1.75-1.72-3.52-2.8-5.74-4.65 4.91-7.53 10.16-8.86 16.05-3.28 14.49-6.83 28.97-9.06 43.63-1.16 7.61-.17 15.65.59 23.43 2.18 22.26 4.79 44.48 7.11 66.73.87 8.34 1.37 16.71 2.12 25.06.12 1.3.62 2.58 1.07 3.82 2.22 6.07 1.98 12.07-.5 17.99-.49 1.2-1.31 2.25-2.05 3.48z"/><path d="m275.23 295.87c-1.32-4.9-3.41-9.73-3.81-14.7-1.43-17.67-5.69-35.05-4.64-53.01.57-9.66-1-19.42-.94-29.13.03-5.3 1.54-10.58 2.21-15.89.31-2.45 2.17-3.31 3.91-3.38 1.01-.04 2.79 1.62 3.02 2.77.96 4.66 2.18 9.45 1.96 14.13-.39 8.44-.32 16.72 2.21 24.85.26.84.31 1.77.33 2.66.35 14.65.8 29.29.97 43.94.08 6.55-.19 13.13-.76 19.66-.24 2.74-1.69 5.38-2.59 8.06-.62.01-1.24.03-1.87.04z"/><path d="m275.3 30.73c5.83 2.49 7.81 6.65 8.5 11.67 2.05 15.02 4.18 30.04 6.11 45.08.82 6.41 1.66 12.88 1.65 19.32-.01 3.67-1.71 7.34-2.65 11.01-.42-.04-.83-.07-1.25-.11-.57-1.84-1.19-3.66-1.71-5.51-1.79-6.33-3.58-12.67-5.3-19.02-.47-1.74-.99-3.12-3.51-1.46-.22-.23-.43-.47-.65-.7.38-1.98.79-3.96 1.15-5.95.21-1.16.62-2.38.47-3.51-1.29-9.51-3.41-18.97-3.76-28.51-.2-5.22-.74-10.26-1.4-15.39-.29-2.14 1.48-4.55 2.35-6.92z"/><path d="m186.46 73.46c4.29-6.57 1.41-13.88 2.72-20.67.8-4.16 1.75-8.3 2.9-12.37.45-1.61 1.7-2.98 2.48-4.52 1.69-3.35 3.32-6.74 5.07-10.31 2.46 2.47 3.5 5.62 3.64 9.06.23 5.98-.62 11.75-3.17 17.28-1.1 2.39-1.84 5.09-2.09 7.71-.68 7.2-5.76 10.65-11.55 13.82z"/></g><path d="m385.2 377.6.6-.7c.6.4 1.3.9 1.9 1.5l-.6.7c-.8-.5-1.4-1-1.9-1.5zm.3 7.1c.6-1.4 1.1-2.9 1.5-4.5.3.1.6.3.9.4-.5 1.4-1 2.9-1.5 4.4zm.2-10.1.6-.6c.7.5 1.3 1.1 1.9 1.6l-.7.7c-.6-.6-1.2-1.2-1.8-1.7zm8.4-.8h.8v.9h1.8v.7h-1.8v1.8h-.8v-.3h-1.2v.9h3.3v2.6h-.8v-.4h-2.5c0 .3 0 .6-.1.8h3.4v.7h-3.5c0 .3-.1.6-.1.8h4v.7h-3.5c.7.9 1.9 1.3 3.6 1.5-.2.2-.4.5-.6.9-1.9-.3-3.2-1.1-3.8-2.3-.5 1.1-1.8 2-3.9 2.4-.2-.3-.4-.5-.6-.8 1.9-.4 3.1-.9 3.6-1.7h-3.2v-.7h3.5c.1-.2.1-.5.2-.8h-3.3v-.7h3.4c0-.2 0-.5 0-.8h-2.4v.3h-.8v-2.6h3.3v-.9h-1.2v.3h-.8v-1.8h-1.8v-.7h1.8v-.9h.8v.9h3.2zm-4.4 5.5h2.4c0-.3 0-.6 0-.9h-2.4zm1.2-3.1h3.2v-.8h-3.2zm4.4 2.2h-2.4v.9h2.5v-.9z" fill="#fcfbfa"/><path d="m389.2 385.8h.9v1.5h1.9v-1.5h.9v1.5h2.7v6h1.1v.9h-11.3v-.9h1.1v-6h2.7zm.2 8.7.5.8c-1.2.6-2.5 1.3-4 1.9-.2-.3-.3-.6-.6-.8 1.6-.6 3-1.3 4.1-1.9zm-2-4.3h1.9v-2.1h-1.9zm0 3.1h1.9v-2.2h-1.9zm2.7-3.1h1.9v-2.1h-1.9zm0 3.1h1.9v-2.2h-1.9zm2.4 1.3c1.4.6 2.7 1.2 4.1 1.8l-.5.9c-1.5-.7-2.8-1.4-4.1-1.9zm2.2-6.5h-1.9v2.1h1.9zm-1.9 5.2h1.9v-2.2h-1.9z" fill="#fcfbfa"/></svg>