<svg viewBox="0 0 400 400" xmlns="http://www.w3.org/2000/svg"><rect width="400" height="400" fill="white" /><path d="m374.8 390.4.4-.4c.7.5 1.3 1 1.8 1.4l-.5.5c-.5-.6-1.1-1.1-1.7-1.5zm1 7.3-.6-.3c.5-1.4 1.1-2.8 1.5-4.3.2.1.4.2.6.3-.5 1.3-1 2.8-1.5 4.3zm-.4-10.3.4-.4c.4.3 1 .8 1.7 1.4l-.5.5c-.4-.5-1-1-1.6-1.5zm2.5.3h1.7v-1h.6v1h3.5v-1h.6v1h1.8v.5h-1.8v1.4h-2v1h3.2v2h-3.2v.9h3.3v.5h-3.4c0 .3-.1.6-.1.9h4v.5h-3.7c.7.9 1.9 1.5 3.8 1.7-.1.2-.2.4-.3.6-2.1-.4-3.5-1.1-4-2.1-.4 1-1.8 1.7-4 2.2-.1-.2-.2-.4-.3-.6 2.1-.4 3.4-1 3.8-1.8h-3.4v-.5h3.6c.1-.3.1-.6.2-.9h-3.3v-.5h3.4c0-.3 0-.6 0-.9h-3.2v-2h3.3v-1h-2.1v-1.4h-1.7v-.5zm1.1 3.5v1h2.7c0-.3 0-.4 0-.4 0-.1 0-.2 0-.2 0-.1 0-.2 0-.3h-2.7zm1.2-3v.9h3.5v-.9zm4.7 3h-2.6v.6.4h2.6z" fill="#fbfcfa"/><path d="m393.6 386.7h.6v1.5h2.7v6.1h1.1v.6h-11v-.6h1.1v-6.1h2.7v-1.5h.6v1.5h2.1v-1.5zm-2.7 8.8.4.6c-1.2.6-2.5 1.3-3.8 1.9-.1-.2-.2-.4-.3-.6 1.2-.6 2.5-1.2 3.7-1.9zm-2.2-6.7v2.4h2.1v-2.4zm0 3v2.5h2.1v-2.5zm2.8-3v2.4h2.1v-2.4zm0 3v2.5h2.1v-2.5zm6 6.1c-1.4-.7-2.7-1.3-3.9-1.8l.3-.6c1.5.6 2.7 1.2 3.9 1.7zm-1.2-9.1h-2.1v2.4h2.1zm-2.1 3v2.5h2.1v-2.5z" fill="#fbfcfa"/><path d="m205.98 296.33c-7.23 7.6-13.78 14.97-20.85 21.8-14.08 13.6-27.99 27.42-42.83 40.15-11.36 9.75-24.95 15.67-40.3 16.46-.89.05-1.79.09-2.68.09-.55 0-1.09-.08-1.79-.13-.69-3.23-.45-5.85 1.93-8.59 31.9-36.63 63.68-73.36 95.42-110.13.95-1.11 1.59-2.99 1.48-4.44-2.8-35.47-5.73-70.93-8.57-106.4-.16-1.95-.83-2.89-2.72-3.58-14.88-5.4-30.18-6.12-45.67-4.06-9.63 1.28-19.14 3.64-28.8 4.46-18.73 1.6-34-5.55-46.48-20.42 4.32-.61 8.12-1.18 11.92-1.66 34.06-4.34 68.11-8.69 102.18-12.94 2.58-.32 3.47-1.15 3.76-3.82 2.78-25.91 5.73-51.8 8.64-77.73 13.8 4.76 23.75 16.44 23.64 30.86-.06 8.57.36 17.17 1.08 25.72.27 3.24 1.98 6.36 3.04 9.53 3.03 9.02 10.6 11.96 18.8 14.2 14.44 3.94 28.78 3.08 43.12-.45 7.68-1.89 15.42-2.91 23.22-.88 12.21 3.17 19.72 11.66 25.76 23.27-5.07 0-9.58-.15-14.08.03-19.89.78-39.86 1.02-59.45 4.89-7.15 1.41-14.04 4.3-20.96 6.74-3.85 1.36-6.14 4.29-6.74 8.42-1.02 6.96-2.66 13.89-2.99 20.88-1.42 29.78-.73 59.51 3.79 89.05 1.21 7.92 3.86 15.19 8.3 22.05 11.36 17.55 22.23 35.43 33.38 53.12 1.1 1.74 2.6 3.37 4.24 4.62 14.07 10.7 28.22 21.3 42.34 31.94.79.6 1.55 1.24 2.73 2.18-8.49 2.94-16.83 4.91-25.22 2.81-8.3-2.07-16.31-5.32-24.38-8.25-1.36-.49-2.47-1.86-3.51-3-19.73-21.55-39.43-43.12-59.12-64.69-.54-.58-.97-1.24-1.63-2.1z" fill="#010106"/></svg>