<svg viewBox="0 0 400 400" xmlns="http://www.w3.org/2000/svg"><rect width="400" height="400" fill="white" /><path d="m374.8 390.4.4-.4c.7.5 1.3 1 1.8 1.4l-.5.5c-.5-.6-1.1-1.1-1.7-1.5zm1 7.3-.6-.3c.5-1.4 1.1-2.8 1.5-4.3.2.1.4.2.6.3-.5 1.3-1 2.8-1.5 4.3zm-.4-10.3.4-.4c.4.3 1 .8 1.7 1.4l-.5.5c-.4-.5-1-1-1.6-1.5zm2.5.3h1.7v-1h.6v1h3.5v-1h.6v1h1.8v.5h-1.8v1.4h-2v1h3.2v2h-3.2v.9h3.3v.5h-3.4c0 .3-.1.6-.1.9h4v.5h-3.7c.7.9 1.9 1.5 3.8 1.7-.1.2-.2.4-.3.6-2.1-.4-3.5-1.1-4-2.1-.4 1-1.8 1.7-4 2.2-.1-.2-.2-.4-.3-.6 2.1-.4 3.4-1 3.8-1.8h-3.4v-.5h3.6c.1-.3.1-.6.2-.9h-3.3v-.5h3.4c0-.3 0-.6 0-.9h-3.2v-2h3.3v-1h-2.1v-1.4h-1.7v-.5zm1.1 3.5v1h2.7c0-.3 0-.4 0-.4 0-.1 0-.2 0-.2 0-.1 0-.2 0-.3h-2.7zm1.2-3v.9h3.5v-.9zm4.7 3h-2.6v.6.4h2.6z" fill="#fbfcfa"/><path d="m393.6 386.7h.6v1.5h2.7v6.1h1.1v.6h-11v-.6h1.1v-6.1h2.7v-1.5h.6v1.5h2.1v-1.5zm-2.7 8.8.4.6c-1.2.6-2.5 1.3-3.8 1.9-.1-.2-.2-.4-.3-.6 1.2-.6 2.5-1.2 3.7-1.9zm-2.2-6.7v2.4h2.1v-2.4zm0 3v2.5h2.1v-2.5zm2.8-3v2.4h2.1v-2.4zm0 3v2.5h2.1v-2.5zm6 6.1c-1.4-.7-2.7-1.3-3.9-1.8l.3-.6c1.5.6 2.7 1.2 3.9 1.7zm-1.2-9.1h-2.1v2.4h2.1zm-2.1 3v2.5h2.1v-2.5z" fill="#fbfcfa"/><path d="m149.08 365.29c-2.42-23.03-3.99-46.04-1.23-69.19 2-16.79 3.83-33.62 9.83-49.54 3.3-8.75 7.39-17.25 11.81-25.5 2.17-4.05 5.94-7.23 8.87-10.89 9.97-12.47 15.75-26.34 14.91-42.68-.76-14.75-1.04-29.53-1.56-44.29-.06-1.67-.27-3.33-.45-5.44-2.82.9-5.41 1.71-7.99 2.54-3.73 1.19-7.37 2.89-11.19 3.5-10.46 1.68-15.22 9.2-19.13 17.74-4.73 10.33-6.24 21.41-7.41 32.54-1 9.54-1.39 19.17-2.93 28.62-.6 3.68-3.49 7.04-5.63 10.36-.67 1.05-2.29 1.49-4.01 2.53 0-9.47-.31-18.27.07-27.04.6-13.96.77-27.98 4.25-41.66 2.6-10.26 6.43-20.03 12-29.01 1.53-2.46 4.03-4.47 6.44-6.21 5.98-4.32 12.12-8.43 18.28-12.48 6.3-4.14 11.28-9.5 15.07-15.95.81-1.38 1.14-3.14 1.33-4.76 1.92-16.33 3.76-32.67 5.65-49.01.14-1.18.41-2.35.73-4.18 3.26 5.22 3.88 10.53 4.46 15.79 1.22 11 2.26 22.02 3.38 33.03.06.55.25 1.09.32 1.64 1.03 7.46 4.58 13.03 10.85 17.56 8.88 6.41 17.11 13.72 25.63 20.62 6.15 4.98 8.89 12.05 11.06 19.18 6.36 20.81 8.12 42.09 5.22 63.71-.06.43-.19.85-.57 2.5-1.38-1.5-2.55-2.28-3.01-3.36-5.31-12.43-8.36-25.45-9.87-38.85-1.07-9.52-2.59-18.82-8.91-26.62-6.65-8.2-15.42-13.01-25.75-16.73-.98 3.37-2.28 6.48-2.76 9.7-3.45 23.12-4.38 46.32-1.49 69.57.27 2.2 1.64 4.63 3.23 6.24 9.28 9.39 19.07 18.29 28.11 27.89 10.51 11.16 15.04 25.43 18.98 39.86 5.3 19.42 6 39.3 6.09 59.25.07 14.55-.11 29.11.05 43.66.03 3.01-.88 4.35-4.14 4.41-.41-5.18-.7-10.39-1.26-15.58-3.02-27.93-7.38-55.62-13.96-82.97-4.14-17.19-12.25-32.01-24.06-45.03-7.35-8.09-16.04-7.17-24.08-3.05-.56.29-1.02.87-1.39 1.41-6.38 9.19-12.97 18.24-19.04 27.63-8.26 12.78-11.81 27.05-12.97 42.16-1.18 15.38-2.66 30.76-4.82 46.02-1 7.02-3.95 13.77-6.02 20.64-.36-.1-.68-.19-.99-.28z" fill="#010106"/></svg>