<svg viewBox="0 0 400 400" xmlns="http://www.w3.org/2000/svg"><rect width="400" height="400" fill="white" /><path d="m374.8 390.4.4-.4c.7.5 1.3 1 1.8 1.4l-.5.5c-.5-.6-1.1-1.1-1.7-1.5zm1 7.3-.6-.3c.5-1.4 1.1-2.8 1.5-4.3.2.1.4.2.6.3-.5 1.3-1 2.8-1.5 4.3zm-.4-10.3.4-.4c.4.3 1 .8 1.7 1.4l-.5.5c-.4-.5-1-1-1.6-1.5zm2.5.3h1.7v-1h.6v1h3.5v-1h.6v1h1.8v.5h-1.8v1.4h-2v1h3.2v2h-3.2v.9h3.3v.5h-3.4c0 .3-.1.6-.1.9h4v.5h-3.7c.7.9 1.9 1.5 3.8 1.7-.1.2-.2.4-.3.6-2.1-.4-3.5-1.1-4-2.1-.4 1-1.8 1.7-4 2.2-.1-.2-.2-.4-.3-.6 2.1-.4 3.4-1 3.8-1.8h-3.4v-.5h3.6c.1-.3.1-.6.2-.9h-3.3v-.5h3.4c0-.3 0-.6 0-.9h-3.2v-2h3.3v-1h-2.1v-1.4h-1.7v-.5zm1.1 3.5v1h2.7c0-.3 0-.4 0-.4 0-.1 0-.2 0-.2 0-.1 0-.2 0-.3h-2.7zm1.2-3v.9h3.5v-.9zm4.7 3h-2.6v.6.4h2.6z" fill="#fbfcfa"/><path d="m393.6 386.7h.6v1.5h2.7v6.1h1.1v.6h-11v-.6h1.1v-6.1h2.7v-1.5h.6v1.5h2.1v-1.5zm-2.7 8.8.4.6c-1.2.6-2.5 1.3-3.8 1.9-.1-.2-.2-.4-.3-.6 1.2-.6 2.5-1.2 3.7-1.9zm-2.2-6.7v2.4h2.1v-2.4zm0 3v2.5h2.1v-2.5zm2.8-3v2.4h2.1v-2.4zm0 3v2.5h2.1v-2.5zm6 6.1c-1.4-.7-2.7-1.3-3.9-1.8l.3-.6c1.5.6 2.7 1.2 3.9 1.7zm-1.2-9.1h-2.1v2.4h2.1zm-2.1 3v2.5h2.1v-2.5z" fill="#fbfcfa"/><path d="m200.84 243.57c-3.81 3.54-7.77 6.87-11.3 10.6-3.29 3.48-6.31 7.25-9.13 11.12-7.63 10.49-15.08 21.11-22.61 31.68-.39.54-.73 1.23-1.27 1.54-5.84 3.29-7.63 9.36-10.31 14.83-1.96 4.01-3.76 8.13-6.05 11.95-1.52 2.54-3.48 4.98-5.75 6.85-2.79 2.3-4.63 4.98-6.08 8.22-1.04 2.32-2.78 4.33-4.58 7.04-1.14-1.76-1.71-2.65-2.13-3.29 1.27-2.09 2.92-3.84 3.48-5.89 2.66-9.74 8.02-18.17 12.77-26.86 6.53-11.95 13.17-23.87 20.36-35.43 2.83-4.55 7.3-8.06 10.92-12.13 1.31-1.47 2.73-3.05 3.39-4.84 2.89-7.83 8.4-13.93 13.08-20.59.64-.91 1.7-1.82 1.78-2.79.33-3.86 2.61-6.22 5.55-8.26.46-.32.82-1.06.87-1.64.64-8.76 1.23-17.52 1.82-26.28.05-.78.39-1.69.11-2.32-2.37-5.23-.7-10.55-.63-15.85.09-6.56-.68-13.14-.51-19.7.26-10.05 1.26-20.07 1.47-30.12.15-7.11-.35-14.25-.85-21.36-.1-1.42-1.53-2.74-2.61-4.54-4.27 4.63-7.87 8.59-11.54 12.5-17.01 18.12-33.74 36.47-48.45 56.56-2.25 3.07-4.32 6.25-6.52 9.36-1.36 1.93-2.12 4.38-5.28 4.56-.75.04-1.28 2.55-2.07 3.82-.74 1.18-1.57 2.38-2.63 3.23-.3.24-1.94-.51-2.3-1.17-.82-1.49-1.39-2.91.06-4.83 1.9-2.51 3.03-5.61 4.46-8.47 1.53-3.05 2.71-6.35 4.63-9.13 2.88-4.17 7.22-7.56 9.22-12.04 2.54-5.69 6.8-9.91 9.99-14.98 1.96-3.12 4.56-5.07 8.18-5.73.97-.18 1.89-.63 2.83-.95-1.35-3.94 1.82-10.27 5.65-12 1.3-.59 2.41-1.78 3.38-2.89 2.4-2.76 4.4-5.91 7.04-8.41 6.8-6.43 13.25-13.31 21.94-17.47 2.65-1.27 4.76-3.79 3.98-7.11-1.48-6.27-.48-12.46.05-18.68.08-1 .35-2.14-.01-2.98-2.05-4.85-.57-9.63-.17-14.51.35-4.27-.82-8.68-.43-12.94.49-5.26 1.91-10.44 2.93-15.67 3.7.23 5.11 2.31 5.5 4.56.64 3.68.85 7.48.82 11.22-.07 8.73 0 17.48-.72 26.17-.94 11.31 1.71 22.26 2.39 33.39.03.56.25 1.14.15 1.67-1.21 6.42 1.87 11.03 6.08 15.38 3.1 3.21 5.83 6.79 8.67 10.25 1.79 2.19 4.27 4.02 3.81 7.46-.09.65.87 1.47 1.4 2.17 4.45 6 8.9 12 13.37 17.99.53.71 1.1 1.42 1.74 2.02 9.53 8.87 16.83 19.37 23 30.77 1.91 3.52 4.53 6.64 6.64 10.06 1.48 2.4 2.66 5 4.07 7.71-3.61 1.03-5.97.73-7.5-2.23-.44-.86-1.29-1.54-2.03-2.21-16.48-14.96-29.98-32.52-43.78-49.83-4.02-5.04-8.55-9.69-13.01-14.35-.65-.68-2.25-.43-3.41-.62.23 1.06.44 2.12.7 3.17.45 1.88 1.26 3.73 1.34 5.62.25 5.57.28 11.16.27 16.74 0 2.54-.31 5.09-.46 7.63-.32 5.45-.97 10.91-.85 16.35.26 12.06.9 24.11 1.46 36.15.04.92.41 2.07 1.05 2.69 4.65 4.54 6.26 10.41 7.7 16.46.64 2.68 1.45 5.45 2.82 7.82 6.99 12.08 11.7 25.34 19.61 36.98 1.78 2.62 2.38 6.11 4.81 8.71.78.84-.21 3.34.25 4.58 1.59 2.2 3.47 4.24 4.72 6.61 9.48 17.99 18.92 36 28.17 54.1 2.09 4.09 3.36 8.59 5.01 12.89-3.32 1.77-5.17 1.56-7.07-.92-4.3-5.58-8.71-11.11-13.45-16.31-4.29-4.69-7.21-9.83-7.9-16.19-.21-1.95-.82-3.57-3.04-4.3-.8-.26-1.53-1.56-1.78-2.52-1.79-7.03-5.71-12.96-9.08-19.26-3.41-6.36-7.5-12.51-10.16-19.05-2.31-5.65-6.33-10.35-7.73-16.6-1.52-6.78-5.96-12.56-9.56-18.62-2.79-4.7-5.41-9.47-8.76-13.81-.81-1.07-1.66-2.11-1.99-2.51z" fill="#010101"/></svg>