<svg viewBox="0 0 400 400" xmlns="http://www.w3.org/2000/svg"><rect width="400" height="400" fill="white" /><path d="m150.42 25.7c6.9.08 13.2 1.37 19.18 3.95 11.69 5.04 21.64 12.12 27.34 24.02 3.27 6.84 3.31 14.32 4.28 21.6.62 4.66 1.19 9.33 1.57 14.01.2 2.48 1.31 3.54 3.67 4.3 14.15 4.56 28.22 9.36 42.34 14.01 14.24 4.69 26.5 12.9 38.26 21.85 18.55 14.13 34.07 31.33 48.69 49.37 3.53 4.35 5.61 9.3 5.86 15.03.15 3.37-1.79 4.97-4.37 4.37-3.55-.82-7.11-2.39-10.16-4.4-2.24-1.47-3.7-4.14-5.46-6.32-13.87-17.18-30.91-30.84-49.54-42.23-16.65-10.18-35.19-16.35-54.03-21.5-5.54-1.51-10.91-3.91-16.05-6.51-4.53-2.3-9.01-3.96-14.08-3.23-1.16.17-2.56.91-3.22 1.83-3.09 4.38-5.96 8.92-9.07 13.64 4.79 3.24 9.49 6.41 14.2 9.58 2.23 1.5 4.33 3.27 6.73 4.42 11.28 5.41 14.25 15.52 15.43 26.7.67 6.34 1.02 12.73 2.12 19 .62 3.51 2.24 6.91 3.82 10.16 1.26 2.59 3.09 4.92 4.74 7.32 6.53 9.49 12.3 19.31 16.58 30.14 5.02 12.7 13.19 23.61 22.69 33.4 11.53 11.89 23.17 23.69 34.96 35.32 10.5 10.36 22.49 18.72 35.48 25.72 5.11 2.75 10.01 5.92 14.89 9.07 3.31 2.13 5.58 5.07 6.12 9.19.29 2.21-.53 3.3-2.62 3.86-6.47 1.73-12.71.48-18.77-1.65-8.85-3.11-17.6-6.53-26.37-9.87-.92-.35-1.87-.84-2.59-1.49-11.04-10.01-23.97-17.12-36.73-24.58-12.78-7.48-23.76-17.02-31.57-29.93-5.49-9.08-11.26-18.02-17.26-26.78-3.24-4.73-7.58-8.51-13.38-10.93-9.87 10.31-22.43 18.04-29.99 30.77-1.37 2.3-3.12 4.38-4.52 6.66-12.93 21.15-29.2 39.46-46.98 56.65-8.85 8.56-17.12 17.69-27.47 24.53-7.26 4.8-15.05 8.19-24.27 8.59.28-4.49.39-8.52 3.35-12.34 22.06-28.49 44.48-56.72 65.64-85.87 11.52-15.87 21.26-33.11 30.97-50.2 10.13-17.83 10.12-37.01 4.58-56.31-1.69-5.89-4-11.61-6.3-17.3-2.14-5.3-9.26-7.95-14.3-5.25-2.62 1.4-5.09 3.3-7.17 5.42-18.86 19.21-38.89 37.08-60.85 52.67-11.94 8.48-24.86 15-39.57 17.42-2.64.43-4.91-.05-5.4-2.39-.38-1.79.35-4.82 1.68-5.82 25.42-19 46.21-42.6 66.38-66.77 8.87-10.64 16.93-21.97 25.22-33.09 1.64-2.2 2.84-4.81 3.89-7.38 5.58-13.64 12-27.01 14.88-41.59.99-5.01 1.34-10.18 1.65-15.29.19-3.11-.61-5.96-2.58-8.74-3.54-4.97-2.21-10.91-2.52-16.81z" fill="#010104"/><g fill="#fcfbfa"><path d="m385.2 377.6.6-.7c.6.4 1.3.9 1.9 1.5l-.6.7c-.8-.5-1.4-1-1.9-1.5zm.3 7.1c.6-1.4 1.1-2.9 1.5-4.5.3.1.6.3.9.4-.5 1.4-1 2.9-1.5 4.4zm.2-10.1.6-.6c.7.5 1.3 1.1 1.9 1.6l-.7.7c-.6-.6-1.2-1.2-1.8-1.7zm8.4-.8h.8v.9h1.8v.7h-1.8v1.8h-.8v-.3h-1.2v.9h3.3v2.6h-.8v-.4h-2.5c0 .3 0 .6-.1.8h3.4v.7h-3.5c0 .3-.1.6-.1.8h4v.7h-3.5c.7.9 1.9 1.3 3.6 1.5-.2.2-.4.5-.6.9-1.9-.3-3.2-1.1-3.8-2.3-.5 1.1-1.8 2-3.9 2.4-.2-.3-.4-.5-.6-.8 1.9-.4 3.1-.9 3.6-1.7h-3.2v-.7h3.5c.1-.2.1-.5.2-.8h-3.3v-.7h3.4c0-.2 0-.5 0-.8h-2.4v.3h-.8v-2.6h3.3v-.9h-1.2v.3h-.8v-1.8h-1.8v-.7h1.8v-.9h.8v.9h3.2zm-4.4 5.5h2.4c0-.3 0-.6 0-.9h-2.4zm1.2-3.1h3.2v-.8h-3.2zm4.4 2.2h-2.4v.9h2.5v-.9z"/><path d="m389.2 385.8h.9v1.5h1.9v-1.5h.9v1.5h2.7v6h1.1v.9h-11.3v-.9h1.1v-6h2.7zm.2 8.7.5.8c-1.2.6-2.5 1.3-4 1.9-.2-.3-.3-.6-.6-.8 1.6-.6 3-1.3 4.1-1.9zm-2-4.3h1.9v-2.1h-1.9zm0 3.1h1.9v-2.2h-1.9zm2.7-3.1h1.9v-2.1h-1.9zm0 3.1h1.9v-2.2h-1.9zm2.4 1.3c1.4.6 2.7 1.2 4.1 1.8l-.5.9c-1.5-.7-2.8-1.4-4.1-1.9zm2.2-6.5h-1.9v2.1h1.9zm-1.9 5.2h1.9v-2.2h-1.9z"/></g></svg>