<svg viewBox="0 0 400 400" xmlns="http://www.w3.org/2000/svg"><rect width="400" height="400" fill="white" /><path d="m149.82 375.06c-3.17-11.87-1.68-23.15 1.22-34.27 4.83-18.48 6.45-37.41 8.75-56.28 1.27-10.38 3.8-20.68 6.55-30.8 6.03-22.21 7.88-44.88 8.7-67.73.46-12.74 1.26-25.47 1.91-38.3-3.09-1.83-5.93-2.09-9.4-.48-13.69 6.35-27.54 12.33-41.28 18.56-2.03.92-3.64.81-5.68.03-8.11-3.13-15.39-7.59-22.15-13-3.5-2.79-6.24-6.04-7.64-10.87 3.06-.36 6.05-.38 8.87-1.1 8-2.03 15.96-4.2 23.86-6.58 5.66-1.71 11.1-4.2 16.81-5.7 7.43-1.95 15.05-3.18 22.55-4.89 2.81-.64 5.61-1.56 8.24-2.73 4.36-1.93 6.56-4.91 6.9-10.26 1.2-19.1-.25-38-3.02-56.85-.6-4.06-1.97-8.02-3.22-11.96-.37-1.17-1.38-2.23-2.31-3.12-1.93-1.85-4.15-3.42-5.97-5.37-1.95-2.1-1.61-4.78-.1-6.8.55-.73 2.95-.47 4.36-.1 6.16 1.61 12.27 3.43 18.4 5.17 10.48 2.98 17.61 9.37 19.23 20.44 1.26 8.59 2.06 17.29 2.42 25.97.41 9.71.09 19.44.09 29.82 7.41-.36 14.62-.59 21.81-1.1 14.15-.99 28.29-2.24 42.45-3.16 6.13-.4 12.3-.25 18.45-.37s10.7 2.76 12.35 7.85c1.2 3.71-.04 7.68-3.6 8.98-4.44 1.62-9.22 3.63-13.76 3.43-15.07-.69-29.61 2.03-44.18 5.11-9.84 2.09-19.73 3.97-29.62 5.85-2.04.39-3.37 1.08-4.03 3.27-.9 2.99-1.99 5.97-3.44 8.72-2.86 5.42-3.41 10.9-1.71 16.77.44 1.52.16 3.27.09 4.91-.43 9.5 1.37 18.15 9 24.75 9.5 8.23 16.84 18.23 23.1 29.02 10.07 17.36 18.8 35.37 23.7 54.92 1.55 6.17 3.82 11.9 6.84 17.37 3.18 5.75 4.77 11.86 6.09 18.28 2.12 10.37 5.41 20.5 7.99 30.78.83 3.33 1.28 6.83 1.38 10.26.16 5.88-.01 5.88-6.04 7.38-.44-.76-.99-1.57-1.4-2.44-15.95-34.12-31.97-68.2-47.75-102.39-3.6-7.79-6.16-16.06-9.64-23.91-4.06-9.17-9.46-17.51-17.32-24-.5-.42-1.03-.8-2.03-1.56-1.07 5.62-1.93 10.85-3.06 16.02-7.59 34.72-14.97 69.49-22.99 104.11-3.58 15.44-8.53 30.55-12.76 45.84-.51 1.84-1.25 2.67-3.19 2.49-1.56-.09-3.12.02-4.82.02z" fill="#010104"/><g fill="#fcfbfa"><path d="m385.2 377.6.6-.7c.6.4 1.3.9 1.9 1.5l-.6.7c-.8-.5-1.4-1-1.9-1.5zm.3 7.1c.6-1.4 1.1-2.9 1.5-4.5.3.1.6.3.9.4-.5 1.4-1 2.9-1.5 4.4zm.2-10.1.6-.6c.7.5 1.3 1.1 1.9 1.6l-.7.7c-.6-.6-1.2-1.2-1.8-1.7zm8.4-.8h.8v.9h1.8v.7h-1.8v1.8h-.8v-.3h-1.2v.9h3.3v2.6h-.8v-.4h-2.5c0 .3 0 .6-.1.8h3.4v.7h-3.5c0 .3-.1.6-.1.8h4v.7h-3.5c.7.9 1.9 1.3 3.6 1.5-.2.2-.4.5-.6.9-1.9-.3-3.2-1.1-3.8-2.3-.5 1.1-1.8 2-3.9 2.4-.2-.3-.4-.5-.6-.8 1.9-.4 3.1-.9 3.6-1.7h-3.2v-.7h3.5c.1-.2.1-.5.2-.8h-3.3v-.7h3.4c0-.2 0-.5 0-.8h-2.4v.3h-.8v-2.6h3.3v-.9h-1.2v.3h-.8v-1.8h-1.8v-.7h1.8v-.9h.8v.9h3.2zm-4.4 5.5h2.4c0-.3 0-.6 0-.9h-2.4zm1.2-3.1h3.2v-.8h-3.2zm4.4 2.2h-2.4v.9h2.5v-.9z"/><path d="m389.2 385.8h.9v1.5h1.9v-1.5h.9v1.5h2.7v6h1.1v.9h-11.3v-.9h1.1v-6h2.7zm.2 8.7.5.8c-1.2.6-2.5 1.3-4 1.9-.2-.3-.3-.6-.6-.8 1.6-.6 3-1.3 4.1-1.9zm-2-4.3h1.9v-2.1h-1.9zm0 3.1h1.9v-2.2h-1.9zm2.7-3.1h1.9v-2.1h-1.9zm0 3.1h1.9v-2.2h-1.9zm2.4 1.3c1.4.6 2.7 1.2 4.1 1.8l-.5.9c-1.5-.7-2.8-1.4-4.1-1.9zm2.2-6.5h-1.9v2.1h1.9zm-1.9 5.2h1.9v-2.2h-1.9z"/></g></svg>