<svg enable-background="new 0 0 400 400" viewBox="0 0 400 400" xmlns="http://www.w3.org/2000/svg"><path d="m130.89 32.69c6.7-3.61 13.75-5 20.87-5.56 12.26-.97 24.56-1.6 36.85-2.05 3.63-.13 7.3 1.2 10.95 1.24 9.94.12 19.89.19 29.82-.27 8.94-.41 17.63.12 26.08 3.23.81.3 1.98.77 2.54.43 4.04-2.45 7.7-.21 10.67 1.63 1.82 1.13 2.15 4.66 3.32 7.55-6.84.56-12.86.78-18.79 1.62-3.93.56-7.78 1.9-11.57 3.15-.87.29-1.93 1.62-1.99 2.54-.83 11.49-1.59 22.99-2.18 34.5-.8 15.58 3.49 30.29 7.62 45.09 4.77 17.07 12.25 33.08 18.31 49.64 2.14 5.84 3.82 11.84 5.72 17.76-.39.32-.77.65-1.16.97-1.2-.78-2.65-1.35-3.55-2.38-13.2-15.12-23.62-31.7-27.53-51.79-1.4-7.18-3.22-14.28-4.95-21.83-.4-.02-1.48-.13-2.57-.13-19.14-.01-38.29.05-57.43-.08-2.7-.02-4.21.79-4.9 3.34-.35 1.29-1.09 2.54-1.17 3.83-.58 9.3-4.93 17.02-9.85 24.59-4.02 6.19-7.42 12.79-11.66 18.81-3.29 4.67-7.44 8.72-11.75 13.67-.47-1.97-.67-2.8-.86-3.62-.75-3.11-1.08-5.8 2.15-8.21 2.01-1.5 3.44-4.18 4.39-6.62 5.55-14.25 11.53-28.38 16.14-42.94 7.11-22.41 11-45.47 9.17-69.11-.82-10.57 1.31-8.31-9.68-10.57-4.59-.94-9.32-1.21-13.93-2.09-3.79-.71-7.46-1.88-9.08-6.34zm92.15 10.41c-.97-.47-1.16-.64-1.37-.65-12.03-.79-24.06-1.63-36.1-2.25-.94-.05-2.52 1.28-2.86 2.29-2.37 7.05-1.95 14.05.95 20.91 1.12 2.66 2.84 4.34 5.89 4.68 3.77.42 7.48 1.35 11.24 1.74 7.02.73 14.04 1.05 20.73-2.03 1.74-.8 2.53-1.8 2.42-3.81-.4-7-.62-14.02-.9-20.88zm-1.88 58.82c.04.3.08.61.12.91.89 0 1.8.11 2.68-.02 4.22-.62 5.2-2.08 4.31-6.2-.57-2.62-1.23-5.22-1.62-7.86-.48-3.28-2.53-4.62-5.51-4.7-2.78-.07-5.57.21-8.36.3-5.11.16-10.26.76-15.32.32-4.73-.41-9.35-2.01-14.04-2.93-.96-.19-2.85.12-2.97.56-1.69 6.44-3.22 12.92-4.56 19.44-.15.71 1.12 2.46 1.77 2.48 7.12.2 14.26.48 21.36.08 7.4-.41 14.76-1.55 22.14-2.38z" fill="#010100"/><path d="m122.8 225.23c1.29-4.66 2.97-8.14 6.84-10.99 15.34-11.3 27.3-25.4 33.88-43.6 1.1-3.04 2.39-6.01 3.7-9.29 3.44 2.48 6.71 4.8 9.93 7.19.49.36 1.22 1.16 1.1 1.49-1.77 4.84 2.36 7.27 4.22 10.61.32.58.66 1.15 1.02 1.77-1.15 1.68-2.27 3.32-3.62 5.3 5.2 2.66 6.79 7.58 8.6 12.41 1.55 4.16 4.55 7.04 8.82 9.33 1.3-4.4 2.41-8.58 3.8-12.66.63-1.85 1.41-3.92 2.78-5.2 4.9-4.59 6.59-10.44 7.5-16.75.27-1.87.41-3.99 1.4-5.45s2.85-2.7 4.58-3.22c2.11-.63 3.94.53 4.69 2.77 1.56 4.63 3.8 9.17 4.42 13.93 1.53 11.79 7.45 20.17 17.37 26.43 6.3 3.97 12.09 8.77 17.99 13.35 1.53 1.19 2.6 2.99 4.44 5.18-5.65-.75-10.44-1.34-15.21-2.08-.66-.1-1.25-.85-1.8-1.38-8.18-7.94-17.65-14.04-27.65-19.4-1.82-.97-3.47-1.48-4.95.53-.25.35-.66.72-1.06.8-5.63 1.1-6.07 5.65-6.87 10.07-1.12 6.25-2.39 12.47-3.74 19.48 7.01.48 13.64.92 20.27 1.41 2.34.17 4.88-.01 6.93.87 2.2.95 4.69 2.58 5.73 4.59 2.52 4.88-.07 9.36-5.95 9.78-4.22.3-8.54-1.01-12.84-1.48-2.37-.26-4.78-.23-7.17-.4-2.5-.18-5.04-.21-7.48-.71-3.06-.63-4.34.02-4.56 3.21-.1 1.42.07 2.93.5 4.29 1.27 4.04.94 7.89-.59 11.8-2.15 5.49-.78 8.39 5.01 8.84 6.3.49 12.69-.02 19.03-.14 3.9-.08 7.81-.46 11.7-.3 2.95.12 5.7 1.17 7.08 4.76-11.91 4.54-23.26 10.56-36.67 8.49-5.83-.9-8.08 1.74-7.86 7.59.15 3.94-.53 7.92-.84 11.88-.24 3.05-.71 6.1-.67 9.14.09 7.6.52 15.19.62 22.78.1 7.27.11 14.54-.14 21.81-.16 4.56-1.79 8.5-7.07 10.47-.51-6.43-1.03-12.59-1.47-18.75-1-14.07-2.01-28.13-2.9-42.2-.15-2.42.23-4.88.51-7.31.18-1.55.69-3.05.94-4.6 1.25-7.87-1.9-11.91-9.82-11.81-4.66.06-9.32.94-13.95 1.64-7.84 1.19-12.68-1.76-14.09-9.01 6.05-2.73 12.49-2.62 18.97-2.53 4.46.06 8.92-.2 13.38-.4 3.1-.14 5.13-1.66 5.1-4.94-.07-7.26-.2-14.52-.57-21.77-.04-.77-1.78-2.06-2.75-2.08-7.02-.12-14.04.03-21.07.07-1.89.01-3.81.12-5.67-.16-5.17-.76-8.01-3.61-9.17-9.1 11.06-6.58 23.7-4.78 36.1-6.22-1.42-5.93-2.76-11.55-4.12-17.17-1.67-6.84-3.3-13.69-5.09-20.5-.41-1.55-1.24-3.1-2.23-4.38-2-2.57-4.14-2.61-6.46-.3-7.62 7.58-15.12 15.29-22.88 22.72-1.74 1.66-4.3 3.22-6.59 3.39-4.27.31-7.73 1.8-10.88 4.47-.63.55-1.41.94-2.5 1.64z" fill="#010100"/><g fill="#fcfbfa"><path d="m377.9 391.2c-.2.3-.4.5-.6.8-.7-.6-1.4-1-2.2-1.5.2-.3.4-.5.5-.8.6.4 1.4.8 2.3 1.5zm-1.8 6.1c-.2-.2-.5-.4-.9-.6.4-.6.8-1.2 1.2-1.9s.7-1.3.9-1.9c.3.3.5.5.8.7-.7 1.3-1.4 2.6-2 3.7zm2.2-9c-.3.3-.5.5-.6.8-.6-.6-1.3-1.1-2-1.5.3-.3.5-.5.6-.7.6.5 1.3.9 2 1.4zm.3.2v-.9h2 4.5c-.3 1.3-.6 2.5-1 3.6s-.9 2.1-1.4 3c.4.5 1 1 1.6 1.4s1.2.8 1.9 1.1c-.3.2-.5.4-.8.8-.4-.3-1-.7-1.6-1.2s-1.2-1.1-1.6-1.6c-.5.6-1.1 1.1-1.7 1.6s-1.4.9-2.1 1.4c-.1-.3-.3-.5-.7-.8.6-.2 1.2-.5 1.9-1s1.4-1.1 2-1.8c-.5-.8-.9-1.6-1.2-2.5s-.6-2-.8-3.2c-.4.1-.7.1-1 .1zm2.5 2.7c.3 1 .7 1.7 1 2.2.3-.5.6-1.1 1-2s.6-1.9.9-3h-3.2-.4c.1.9.3 1.8.7 2.8z"/><path d="m396.5 388.5v1.5 3.6h1.5v.9c-.4 0-1 0-1.7 0h-7.9c-.5 0-.9 0-1.2 0v-.9h1.3v-3.5c0-.7 0-1.2 0-1.6h2.4c0-.8 0-1.4 0-1.7h1c0 .3-.1.8-.1 1.7h1.5c0-.8 0-1.4 0-1.7h1c0 .3-.1.9-.1 1.7zm-8.2 9.2c-.2-.3-.5-.5-.8-.8.8-.3 1.4-.6 1.9-.9s1-.7 1.4-1.1c.3.3.6.5.9.8-1.6 1-2.8 1.6-3.4 2zm2.6-6.8v-1.6h-1.5v1.6zm0 2.7v-1.9h-1.5v1.9zm2.4-2.7v-1.6h-1.5v1.6zm0 2.7v-1.9h-1.5v1.9zm.2 2 .7-.8c.4.2.9.5 1.6.8s1.3.7 1.8 1c-.3.3-.5.5-.8.8-.4-.3-1.5-1-3.3-1.8zm2-4.7v-1.6h-1.4v1.6zm0 2.7v-1.9h-1.4v1.9z"/></g></svg>