<svg enable-background="new 0 0 400 400" viewBox="0 0 400 400" xmlns="http://www.w3.org/2000/svg"><path d="m362.1 8.8c1.1.8 2.1 1.6 3.1 2.4l-1 1.1c-1.3-1.1-2.3-2-3-2.5zm1.9 4.8c.5.2.9.4 1.4.5-.6 2.3-1.3 4.5-1.9 6.8l-1.5-.5c.8-2.1 1.4-4.3 2-6.8zm-1-9.4c1.3.9 2.4 1.8 3.4 2.5l-1 1.1c-1.4-1.2-2.4-2.1-3.2-2.6zm3.7 2.2v-1.4h10.3v1.2c-.5 3.6-1.8 6.8-4 9.4 1.5 1.6 3.4 2.8 5.7 3.8-.3.4-.7.8-1.1 1.4-2.3-1.1-4.1-2.5-5.6-4.1-1.6 1.6-3.6 3.1-5.9 4.3-.3-.5-.7-.9-1-1.3 2.4-1.1 4.4-2.5 6-4.1-1.9-2.5-3-5.6-3.3-9.3h-1.1zm8.8 0h-6.4c.3 3.3 1.3 6 3 8.2 2-2.3 3.1-5.1 3.4-8.2z" fill="#fbfcfa"/><path d="m385.3 3.8h1.3v2.2h2.8v-2.2h1.3v2.2h4.1v9.1h1.7v1.3h-16.9v-1.3h1.7v-9.1h4.1v-2.2zm.4 13.1.7 1.2c-1.8.9-3.8 1.9-6 2.9-.2-.4-.5-.8-.8-1.3 2.3-1 4.3-1.9 6.1-2.8zm-3.1-6.4h2.8v-3.2h-2.8zm0 4.6h2.8v-3.3h-2.8zm4-4.6h2.8v-3.2h-2.8zm0 4.6h2.8v-3.3h-2.8zm3.7 1.9c2.1.9 4.1 1.8 6.1 2.7l-.7 1.3c-2.2-1.1-4.2-2-6.1-2.9zm3.2-9.7h-2.8v3.2h2.8zm-2.8 7.8h2.8v-3.3h-2.8z" fill="#fbfcfa"/><g fill="#010106"><path d="m284.56 373.33c-3.93 2.71-7.88 3.14-11.93.54-4.89-3.14-9.79-6.28-14.58-9.56-11.13-7.62-23.76-9.81-36.88-10.69-11.81-.79-22.36-5.13-31.7-12.4-6.06-4.72-7.75-11.84-4.54-18.85 4.3-9.39 4.32-9.41-3.09-16.77-7.32-7.27-13.18-15.41-13.64-26.13-.45-10.42 2.72-19.57 10.94-26.58 8.69-7.4 17.16-15.08 26.01-22.28 4.39-3.57 9.33-6.52 14.2-9.45 4.25-2.56 7.25-5.87 8.52-11.01-5.48-3.02-11.48-3.95-17.6-4.29-11.42-.64-22.44 2.09-33.52 4.22-9.22 1.77-18.37 3.89-27.6 5.64-2.7.51-5.58.64-8.31.33-4.03-.47-6.37-4.35-5.13-8.17.28-.88 1.38-1.65 2.28-2.15 9.63-5.29 20.09-7.88 30.83-9.81 17.52-3.15 35.11-3.96 52.79-2.25 3.58.35 7.25 1.54 10.5 3.13 8.04 3.94 11.44 11.14 9.11 19.79-1.76 6.54 0 11.46 4.09 16.65 5.44 6.9 10.39 14.29 14.74 21.93 5.77 10.15 4.46 20.85-2.15 29.76-4.1 5.53-10.56 9.71-16.68 13.25-10.23 5.93-21.05 10.84-31.6 16.24-2.28 1.17-4.58 2.41-6.6 3.96-1.54 1.19-3.04 2.73-3.9 4.45-2.42 4.8-1.18 7.85 3.66 9.91 14.17 6.03 29.04 9.6 44.05 12.73 10.39 2.17 20.31 5.46 28.26 12.98 4.38 4.14 7.61 9.02 9.47 14.88zm-80.29-123.03c8.37 12.97 16.54 25.61 24.85 38.48 5.11-3.28 9.75-6.87 14.92-9.41 4.98-2.45 5.81-6.24 5.53-10.94-.06-1-.12-2.01-.33-2.99-2.92-13.9-12.76-23.12-21.77-33.08-7.89 6.1-15.39 11.9-23.2 17.94zm-11.16 8.75c-1.81 1.56-3.25 2.79-4.68 4.03-6.01 5.2-8.18 14.59-3.89 21.19 4.9 7.53 10.73 14.46 16.2 21.7 5.63-3.24 10.92-6.28 16.49-9.49-8.09-12.55-15.98-24.8-24.12-37.43z"/><path d="m106.07 162.28c-.36 27.31-.31 54.64-1.21 81.93-.78 23.48-2.62 46.93-4.03 70.4-.77 12.85-1.48 25.7-2.48 38.53-.28 3.61-1.06 7.33-2.48 10.63-.69 1.62-3.22 2.87-5.17 3.43-2.38.68-4.43-.55-4.86-3.26-.56-3.51-1.43-7.07-1.27-10.57 1.55-32.98 3.16-65.96 5.03-98.92.79-13.96 2.64-27.86 3.35-41.81 1.09-21.73-.53-43.4-2.11-65.07-1.66-22.7-1.21-45.4.56-68.1.78-10.02 2.53-19.61 6.62-28.88 1.68-3.8 3.95-6.54 7.21-8.84 11.77-8.3 25.03-12.16 39.2-13.34 43.01-3.58 86.12-1.59 129.18-2.05 2.22-.02 4.48.21 6.66.63 1.37.26 2.82.86 3.92 1.71 3.92 3.03 3.45 7.09-.96 9.02-6.96 3.04-14.33 3.08-21.74 3.08-18.99 0-37.99-.03-56.98.25-17.67.26-35.35.54-52.98 1.55-9.33.53-18.66 2.19-27.82 4.13-10 2.12-17.13 11.92-17.13 22.19v93.36c-.17 0-.34 0-.51 0z"/><path d="m258.96 143.51c-4.39 1.12-9.01 1.23-12.17 3.42-3.14 2.17-5.48 6.18-6.99 9.87-2.01 4.92-2.85 10.32-4.28 15.49-.38 1.38-.88 2.8-1.65 4-1.95 3.04-4.87 3.48-8.25 2.96-3.43-.53-4.11-3.27-4.04-5.66.12-4.06.7-8.21 1.77-12.13 1.32-4.84 3.27-9.51 5.1-14.19.5-1.29 1.5-2.42 2.41-3.5.71-.85 1.74-1.43 2.47-2.27 6.06-6.98 13.43-11.19 22.91-11.16 2 .01 2.89-1 2.89-3.14 0-2.52.42-5.04.68-7.76-3.9-.57-7.41-1.36-10.95-1.54-14.61-.76-21.34-10.7-23.27-22.23-.76-4.56-.28-9.33-.43-14-.08-2.65 1.27-3.75 3.76-3.98 1.32-.12 2.62-.54 4.78-1 2.08 5.48 4.62 10.94 6.22 16.66 2.23 7.97 3.78 9.83 11.98 11.12 2.19.35 4.42.44 6.72.66 2.49-5.78 2.35-11.57 1.55-17.32-.61-4.42-1.65-8.79-2.73-13.12-1.58-6.32-4.99-8.54-11.41-7.36-6.15 1.13-12.23 2.64-18.38 3.74-4.35.77-7.28-1.06-8.02-4.66-.61-2.93-.39-5.25 3.14-6.62 9.61-3.73 19.18-7.35 29.73-7.24 9.42.1 17.98 6.96 19.16 16.36.8 6.4.43 12.95.8 19.41.23 4.01.72 8.02 1.36 11.99.55 3.41 3.02 4.82 6.4 4.05 3.83-.87 6.39-3.33 7.6-6.89 1.58-4.64 2.79-9.4 4.07-14.13 1.09-4.02 2.9-7.41 7.46-7.99 1.06-.13 2.8.7 3.34 1.62 2.81 4.74 3.47 9.94 1.91 15.21-1.39 4.7-2.54 9.69-5.07 13.76-1.98 3.19-5.75 5.42-9.05 7.57-2.18 1.43-4.9 2.11-7.46 2.89-5.9 1.78-8.79 5.94-8.36 12.58 3.55 1.02 7.12 2.32 10.81 3.06 8.4 1.69 14.24 6.68 18.42 13.83 5.15 8.8 7.79 18.23 6.85 28.54-.2 2.18-.83 3.43-3.23 3.78-6.9 1.03-5.11 2.21-8.11-4.04-2.12-4.41-4.24-8.98-5.31-13.71-2.3-10.09-10.08-13.41-18.74-16.82-.3 6.94-.61 13.38-.84 19.82-.34 9.62-.52 19.25-1.01 28.86-.14 2.74-.64 5.68-1.88 8.06-.97 1.85-3.2 3.24-5.16 4.29-.74.39-2.78-.4-3.4-1.26-3.42-4.67-4.8-10.13-4.67-15.8.21-8.83 1.06-17.65 1.25-26.48.15-5.73-.4-11.42-.68-17.6z"/><path d="m181.38 128.84c3.26.77 6.26 1.67 9.33 2.18 11.61 1.93 18.98 9.05 22.38 19.77 2.44 7.7 3.28 15.9 4.83 23.88.62 3.2-1.56 4.53-3.94 5.32-2.69.89-5.53.15-6.61-2.47-2.54-6.16-4.52-12.54-6.82-18.8-.83-2.26-1.45-4.86-3-6.53-4.12-4.43-9.69-6.54-15.97-8.63-.19 7.6-.27 14.72-.58 21.84-.29 6.57-.43 13.19-1.43 19.66-.39 2.52-2.54 5.26-4.66 6.91-2.8 2.19-5.13 1.08-6.31-2.3-2.89-8.29-3.13-16.9-2.68-25.53.33-6.37 1.01-12.71 1.59-19.85-4.98.85-9.74 1.65-14.48 2.5-.26.05-.53.43-.67.71-2.98 5.8-7.67 10.76-8.3 17.73-.27 2.98-1.18 5.92-2 8.82-1.19 4.2-3.65 6.02-7.93 5.46-1.34-.17-3.08-1.37-3.66-2.57-2.13-4.4-2.34-9.16-.64-13.72 2.57-6.91 4.71-14.17 8.57-20.32 2.47-3.94 7.38-6.79 11.77-8.95 4.9-2.41 10.45-3.49 16.4-5.37.23-2.27.57-5.55.94-9.17-5.24-.88-10.25-1.97-15.32-2.52-7.99-.87-12.99-5.75-16.49-12.26-4.04-7.52-4.91-15.71-3.48-24.13.43-2.52.6-2.59 7.01-4.6 3.9 5.27 7.13 10.91 7.69 17.73.54 6.53 2.08 8.57 8.56 10.11 2.81.67 5.74.77 8.61 1.23 1.99.31 2.71-.61 3.19-2.42 2.11-8.05.88-15.99-.56-23.94-.04-.22-.12-.43-.17-.65-2.18-9.95-3.09-10.73-13.43-9.82-5.11.45-10.16 1.58-15.26 2.15-2.28.25-4.7.19-6.92-.33-2.96-.7-3.55-3.25-3.81-6.01-.27-2.88 1.76-3.22 3.62-3.9 5.88-2.14 11.76-4.28 17.63-6.44 11.83-4.34 26.21 2.7 29.93 14.65 2.97 9.54 2.98 19.41 3.36 29.24.09 2.34.01 4.69.01 7.65 4.24-1.59 8.08-2.93 11.82-4.51.74-.32 1.32-1.51 1.57-2.42 1.46-5.15 2.86-10.32 4.16-15.51 1.3-5.16 4.33-7.81 8.88-7.22.92.12 2.23 1.11 2.49 1.97 3.2 10.55 1.25 20.66-4.6 29.52-3.21 4.87-9.13 7.38-14.94 9.07-7.04 2.02-9.33 5-9.68 12.79z"/></g></svg>