<svg enable-background="new 0 0 400 400" viewBox="0 0 400 400" xmlns="http://www.w3.org/2000/svg"><path d="m204.31 374.88c-.34-5.81-.69-11.35-.98-16.89-.54-10.28-.99-20.57-1.61-30.85-.17-2.89-.44-5.87-1.31-8.6-3.01-9.41-2.84-18.96-1.52-28.54.65-4.75-.11-8.77-2.75-12.96-6.66-10.57-13.27-21.19-17.28-33.23-1.16-3.48-4.29-6.31-7.19-10.38-4.9 7.66-9.17 14.26-13.36 20.92-2.74 4.35-5.15 8.92-8.09 13.13-3.84 5.51-8.67 9.89-16.35 11.34 3.66-8.06 4.5-16.58 10.14-23.45 7.6-9.26 11.22-20.54 14.21-31.93 1.87-7.13 3.22-14.39 4.78-21.6.64-2.93 1.47-5.61 4.86-6.57 3.98-1.13 5.75-.66 7.31 3.16 3.93 9.61 7.73 19.27 11.38 28.99 3.46 9.22 7.73 17.84 15.86 24.4 3.81-5.77 6.3-11.97 7.53-18.52 1.82-9.66 2.94-19.46 4.77-29.12.8-4.23 2.25-8.43 4.08-12.33 1.9-4.05 4.39-4.04 7.13-.59 5.09 6.39 10.34 12.67 15.19 19.23 2.3 3.11 3.93 6.73 5.71 10.2 7.01 13.69 15.23 26.57 25.23 38.29.36.42.51 1 1.12 2.23 3.33-9.31 4.75-17.75 4.59-26.34-.26-13.95-2.63-27.66-6.96-40.87-1.99-6.06-6.22-11.36-8.95-17.22-3.25-6.99-7.96-12.48-14.19-16.98-5.53-3.99-10.51-8.73-16.02-12.75-7.07-5.16-13.03-11.26-17.2-18.94-1.9-3.5-4.69-4.57-8.27-4.24-9.79.91-19.58 1.92-29.36 2.89-.11.01-.22.08-.33.07-8.82-.62-12.66 4.8-14.91 12.21-.55 1.82-1.53 3.53-1.87 5.38-2.91 15.77-12.24 27.22-24.28 37.04-4.4 3.59-8.46 7.65-12.36 11.78-6.83 7.23-7.88 16.49-7.42 25.71.56 11.26 2.15 22.48 3.23 33.72.35 3.67.75 7.37.7 11.05-.25 19.58-.51 39.16-1.05 58.74-.12 4.19-1.28 8.37-2.19 12.51-.31 1.42-1.35 2.67-2.05 4-.35-.03-.7-.05-1.04-.08-1.27-6.5-2.85-12.95-3.77-19.49-3.67-26.06-6.54-52.21-5.57-78.59.47-12.84 1.63-25.65 2.62-38.46.3-3.86 2.04-7.12 4.62-10.15 9.63-11.35 18.74-23.16 28.65-34.25 6.96-7.78 9.93-16.78 11.04-26.73 1.44-12.9.05-25.68-1.46-38.49-.57-4.82-.21-9.75-.29-14.63-.02-1.09.29-2.42-.21-3.24-3.84-6.29-3.71-13.22-3.34-20.15.14-2.58-.71-4.03-3.17-4.53-5.13-1.04-10.26-2.11-15.41-3.03-4.63-.83-8.93-2.04-11.03-7.2 16.3-3.46 32.37-6.86 48.43-10.27 2.95-.63 6.01-.96 8.83-1.97 10.85-3.89 21.39-.48 32.06.88 6.37.81 12.03 3.02 17.49 6.26 5.47 3.26 11.15 6.17 16.72 9.27 1.17.65 2.79 1.19 3.28 2.22.93 1.96 2.15 4.6 1.51 6.3-.84 2.22-3.62 1.69-5.6.57-1.92-1.09-3.72-2.39-5.56-3.62-1.02-.68-1.9-1.62-3-2.12-4.4-2.01-7.38-.03-7.59 4.62-.88 18.74 2.08 37.28 2.95 55.93.36 7.7 3.71 14.68 7.31 21.42.56 1.04 1.52 1.92 2.45 2.69 8.16 6.81 16.17 13.83 24.61 20.29 6.82 5.22 11.46 11.86 14.84 19.53 7.71 17.45 14.04 35.39 15.95 54.46.62 6.21-.78 12.67-1.62 18.97-1.63 12.19-3.35 24.29-1.98 36.72.62 5.66-.62 11.53-1.23 17.29-.09.89-1.32 1.66-2.02 2.49-.81-.74-2.1-1.34-2.37-2.25-4.71-15.97-14.43-28.74-25.23-41-9.75-11.07-18.91-22.67-28.57-34.33-.45 1.01-.84 1.65-1.03 2.34-4.49 15.67-9.34 31.25-13.31 47.05-2.82 11.23-1.27 22.7.4 34.03.11.77.33 1.55.33 2.32.05 14.09.32 28.18-.04 42.26-.13 4.94-1.57 9.92-2.92 14.74-.91 3.24-2.68 6.3-6.7 7.84zm-27.16-292.48v.23c2.35 0 4.71.09 7.05-.02 6.38-.28 12.7-.83 18.57-3.8 1.95-.98 2.82-2.27 3.03-4.34.66-6.79 1.52-13.56 2.09-20.36.49-5.8-2.29-9.76-7.99-10.9-3.23-.65-6.68-.73-9.98-.46-7.92.66-15.81 1.62-23.64-.68-.51-.15-1.14-.23-1.62-.07-1.98.69-6.02 6.29-5.7 8.49 1.29 8.82 2.44 17.68 4.37 26.37 1.24 5.6 1.8 5.48 7.78 5.52 2.02.03 4.03.02 6.04.02zm-2.71 34.49c10.57 0 19.47-1.51 25.87-4.38 6.6-2.97 6.8-3.32 5.81-10.59-.87-6.45-3.73-8.7-10.18-7.76-9.22 1.34-17.98 4.07-26.41 8.12-3.2 1.54-4.07 3.41-3.74 6.69.8 7.81 1.57 8.35 8.65 7.92z" fill="#010100"/><g fill="#fafbfa"><path d="m6.4 11.7c-1-.8-1.9-1.6-2.9-2.3l.6-.7c.9.7 1.9 1.4 2.9 2.2zm-2.1 8.3c.7-2.1 1.4-4.2 2-6.4.2.1.6.3 1 .4-.7 2.3-1.3 4.4-1.9 6.4zm3-12.8c-1.1-.9-2.1-1.7-2.9-2.4l.6-.7c1 .8 2 1.5 3 2.4zm1.4-1.3v-.9h10.2v.9c-.9 4.2-2.3 7.3-4.1 9.4 1.3 1.4 3.2 2.7 5.7 4-.2.2-.4.5-.7.9-2.5-1.4-4.4-2.7-5.7-4.2-1.4 1.5-3.5 3-6.1 4.4 0 0 0 0-.1-.1-.3-.4-.5-.7-.7-.8 2.7-1.3 4.7-2.8 6.2-4.2-1.8-2.2-3-5.3-3.7-9.4zm9.2 0h-7.1c.6 3.8 1.7 6.7 3.4 8.7 1.7-2 2.9-4.8 3.7-8.7z"/><path d="m31.6 3.6h.9v2.3h4.1v9.1h1.7v.9h-16.6v-.9h1.7v-9.1h4.1v-2.3h.9v2.3h3.1v-2.3zm-4 13.3.6.8c-1.9.9-3.8 1.9-5.8 2.8-.2-.3-.3-.6-.5-.9 2-.9 3.9-1.8 5.7-2.7zm-3.2-10.1v3.7h3.1v-3.7zm0 4.5v3.7h3.1v-3.7zm4.1-4.5v3.7h3.1v-3.7zm0 4.5v3.7h3.1v-3.7zm9.1 9.1c-2.1-1.1-4.1-2-5.8-2.7l.5-.8c2.2.9 4.1 1.8 5.8 2.6zm-1.9-13.6h-3.1v3.7h3.1zm-3.2 4.5v3.7h3.1v-3.7z"/></g></svg>