<svg enable-background="new 0 0 400 400" viewBox="0 0 400 400" xmlns="http://www.w3.org/2000/svg"><g fill="#010100"><path d="m163.06 30.63c6.74-.82 13.23-1.97 19.75-2.32 9.15-.49 18.25-.64 27.27-2.93 4.51-1.15 9.06.93 12.48 4.28.79.77 1.13 2.85.68 3.92-6.77 16.15-2.39 32.18.43 48.2.15.86 2.02 1.83 3.21 2.05 11.88 2.17 23.76 4.37 35.7 6.16 3.93.59 6.22 2.58 7.18 5.98.99 3.52 1.55 7.21 1.85 10.86 1.07 12.94 1.66 25.92 2.99 38.82.97 9.44 3.02 18.76 4.17 28.19.55 4.52.46 9.18.05 13.73-.75 8.42-1.85 9.75-10.31 14.74-.56-3.94-1.44-7.51-1.52-11.09-.18-8.93.42-17.89-.05-26.79-.75-14.18-2.05-28.33-3.25-42.48-.45-5.28-2.47-9.8-6.75-13.35-3.51-2.91-6.38-6.61-9.9-9.5-6.33-5.18-13.91-5.68-21.67-4.75-2.72.33-3.55 2.53-2.99 4.71.55 2.19 1.72 4.33 3.04 6.2 6.96 9.84 14.16 19.52 21.02 29.43 1.54 2.22 2.25 5.1 2.98 7.78.7 2.55-1.04 4.08-3.4 2.93-2.24-1.09-4.44-2.55-6.18-4.31-2.19-2.21-3.83-4.95-5.85-7.34-1.43-1.7-2.91-3.45-4.66-4.78-4.42-3.35-5.87-3.1-9.07 1.24-2.52 3.41-5.27 6.7-7.36 10.36-3.38 5.91-3.03 12.37-.95 18.56 2.91 8.67-.97 16.01-4.11 23.43-1.36 3.22-3.35 2.97-5.2-.04-2.28-3.72-4.21-7.72-6.9-11.11-3.81-4.81-3.57-9.9-2.14-15.22.69-2.57 1.78-5.05 2.85-7.49 1.7-3.9 1.57-6.63-1.74-9.34-3.77-3.08-8.03-5.56-12.4-8.51-1.79 2.43-3.23 4.35-4.64 6.3-2.16 2.99-4.31 6-6.46 9-4.23 5.89-4.23 5.89-5.16 12.68-4.6 1.58-5.46 1.2-7.18-3.26-1.45-3.77-.84-7.42.53-11.1 5.53-14.86 10.97-29.76 16.43-44.65.31-.83.54-1.69.99-3.08-5.02.81-9.69 2.04-14.39 2.23-10.6.43-18.65 6.43-25.98 12.69-3.96 3.38-5.96 9.57-7.77 14.86-5.27 15.44-5.31 31.4-3.76 47.46.65 6.79.88 13.63 1.15 20.45.2 5.15-4.63 8.06-9.03 5.47-.58-.34-1-1.44-1.01-2.19-.22-25.48-3-50.99.79-76.44.53-3.53.76-7.13.8-10.71.03-2.29 1.06-3.42 3-4.21 9.71-3.97 19.39-8.03 29.12-11.97 7.21-2.92 13.45-7.2 18.01-13.49 1.48-2.04 2.27-4.91 2.48-7.47.87-10.89-.16-21.71-2.54-32.34-.74-3.38-2.81-6.48-4.63-10.45zm40.41 102.19c4.49-4.78 8.07-8.33 11.34-12.15 4.03-4.7 4.15-9.62.64-14.76-3.73-5.46-9.07-8.87-14.98-11.47-2.99-1.32-9.71 1.87-10.65 5.03-1.24 4.18-2.45 8.37-3.49 12.6-.21.87.09 2.22.68 2.88 5.32 5.91 10.76 11.71 16.46 17.87zm-26.37-48.48c9.88-.78 19.45-1.52 29.01-2.35.58-.05 1.34-.76 1.6-1.35 1.65-3.74.78-10.26-2.04-12.63-3.4-2.87-7.35-4.03-11.8-2.27-3.11 1.23-6.25 2.48-9.47 3.33-2.52.67-3.75 2.3-3.66 4.51.14 3.44-.93 5.8-4.45 6.75.27 1.36.49 2.44.81 4.01zm8.32-29.9c6.26-.46 12.39-.85 18.51-1.41.91-.08 2.29-.82 2.52-1.55.93-2.97 1.77-6.01 2.11-9.09.36-3.27-.99-4.39-4.28-4.54-3.01-.13-6.09 0-9.01-.61-4.02-.83-7.58-.29-11.27 1.45-5.09 2.4-5.49 2.65-4.85 8.23.17 1.52.7 3.04 1.29 4.47.91 2.21 2.31 3.87 4.98 3.05z"/><path d="m216.11 266.99c-4.04 3.88-8.28 6.92-13.97 7.54-3.21.35-6.35 1.26-9.53 1.86-2.37.44-3.62 1.98-3.49 4.21.4 6.78.87 13.56 1.62 20.31.45 4.1 1.33 8.17 2.34 12.17.28 1.11 1.51 2.45 2.59 2.8 3.39 1.09 6.98 1.55 10.36 2.65 3.73 1.22 7.3 2.89 10.8 5.05-6.19 1.44-11.82 4.43-18.35 2.8-2.62-.65-5.79-.33-8.41.49-8.95 2.78-18.03 4.31-27.4 4.04-.94-.03-1.87-.67-2.8-1.03.61-.84 1.03-2.09 1.85-2.46 3.85-1.74 7.78-3.29 11.73-4.8 1.56-.6 3.24-.86 4.83-1.38 4.84-1.61 5.15-2.25 4.6-7.22-1.09-9.78-2.21-19.56-3.02-29.37-.22-2.66-1.34-3.81-3.64-3.55-4.97.57-9.91 1.44-14.87 2.21-3.19.49-6.37 1.36-9.57 1.43-4.11.1-6.13-1.81-7.43-6.21 6.95-2.31 13.91-4.64 20.87-6.94 3.07-1.02 6.13-2.11 9.25-2.94 2.02-.54 3.22-1.68 3.24-3.65.03-3.87.35-7.84-.4-11.58-1.47-7.32-3.65-14.49-5.42-21.75-.71-2.93-3.15-3.28-5.35-3.72-3.16-.64-6.41-.88-9.52-1.28-1.85 2.54-3.43 5.27-5.55 7.51-3.98 4.22-10.29 3.34-12.84-1.84-.76-1.54-.85-4.05-.12-5.59 5.23-11.11 10.72-22.1 16.2-33.09 2.59-5.2 5.34-10.32 8.04-15.47.5-.96 1.06-1.9 1.72-3.08 2.71 2.51 5.08 4.9 7.64 7.05 8.3 6.98 16.54 14.04 25.05 20.74 6.6 5.19 12.69 10.61 15.63 19.5-3.04-1.01-5.7-1.85-8.32-2.76-7.81-2.72-14.22-1.06-19.79 5.15-2.74 3.05-4.11 6.2-3.11 10.64 2.03 8.93 3.46 18 4.96 27.04.42 2.54 1.71 3.95 4.08 3.93 3.09-.03 6.2-.36 9.25-.84 3.4-.53 6.72-1.59 10.13-2.01 2.63-.37 4.69.97 6.12 3.44zm-28.94-56.33c-4.75-7.38-11.2-11.18-19.43-12.09-.6-.07-1.57.02-1.81.39-3.18 4.94-6.41 9.85-9.25 14.99-.83 1.5-.28 3.79 2.26 3.77 9.8-.1 19.26-1.67 28.23-7.06z"/><path d="m168.43 306.88c-5.14 5.35-11.26 6.24-17.98 4.85-.41-.08-.88-.3-1.13-.6-1.34-1.61-.09-8.2 1.74-9.26 4.24-2.46 8.45-4.97 12.78-7.26.84-.45 2.15-.03 3.24-.01-.11.98.11 2.2-.39 2.89-2.73 3.68.52 6.2 1.74 9.39z"/><path d="m151.1 259.37c-5.57-.28-6.93-1.33-7.5-5.61-.24-1.81.2-2.88 1.87-3.75 3.16-1.65 6.29-3.41 9.27-5.36 1.89-1.23 3.04-.59 4.27.83 3.67 4.22 2.42 10.06-2.81 12.45-1.59.74-3.4.98-5.1 1.44z"/></g><path d="m377.9 391.2c-.2.3-.4.5-.6.8-.7-.6-1.4-1-2.2-1.5.2-.3.4-.5.5-.8.6.4 1.4.8 2.3 1.5zm-1.8 6.1c-.2-.2-.5-.4-.9-.6.4-.6.8-1.2 1.2-1.9s.7-1.3.9-1.9c.3.3.5.5.8.7-.7 1.3-1.4 2.6-2 3.7zm2.2-9c-.3.3-.5.5-.6.8-.6-.6-1.3-1.1-2-1.5.3-.3.5-.5.6-.7.6.5 1.3.9 2 1.4zm.3.2v-.9h2 4.5c-.3 1.3-.6 2.5-1 3.6s-.9 2.1-1.4 3c.4.5 1 1 1.6 1.4s1.2.8 1.9 1.1c-.3.2-.5.4-.8.8-.4-.3-1-.7-1.6-1.2s-1.2-1.1-1.6-1.6c-.5.6-1.1 1.1-1.7 1.6s-1.4.9-2.1 1.4c-.1-.3-.3-.5-.7-.8.6-.2 1.2-.5 1.9-1s1.4-1.1 2-1.8c-.5-.8-.9-1.6-1.2-2.5s-.6-2-.8-3.2c-.4.1-.7.1-1 .1zm2.5 2.7c.3 1 .7 1.7 1 2.2.3-.5.6-1.1 1-2s.6-1.9.9-3h-3.2-.4c.1.9.3 1.8.7 2.8z" fill="#fcfbfa"/><path d="m396.5 388.5v1.5 3.6h1.5v.9c-.4 0-1 0-1.7 0h-7.9c-.5 0-.9 0-1.2 0v-.9h1.3v-3.5c0-.7 0-1.2 0-1.6h2.4c0-.8 0-1.4 0-1.7h1c0 .3-.1.8-.1 1.7h1.5c0-.8 0-1.4 0-1.7h1c0 .3-.1.9-.1 1.7zm-8.2 9.2c-.2-.3-.5-.5-.8-.8.8-.3 1.4-.6 1.9-.9s1-.7 1.4-1.1c.3.3.6.5.9.8-1.6 1-2.8 1.6-3.4 2zm2.6-6.8v-1.6h-1.5v1.6zm0 2.7v-1.9h-1.5v1.9zm2.4-2.7v-1.6h-1.5v1.6zm0 2.7v-1.9h-1.5v1.9zm.2 2 .7-.8c.4.2.9.5 1.6.8s1.3.7 1.8 1c-.3.3-.5.5-.8.8-.4-.3-1.5-1-3.3-1.8zm2-4.7v-1.6h-1.4v1.6zm0 2.7v-1.9h-1.4v1.9z" fill="#fcfbfa"/></svg>