<svg enable-background="new 0 0 400 400" viewBox="0 0 400 400" xmlns="http://www.w3.org/2000/svg"><path d="m235.45 270.92c-6.36 9.1-12.54 17.74-18.48 26.55-1.67 2.48-3.66 3.92-6.45 4.84-1.46.48-3.07 1.83-3.75 3.22-5.95 12.13-11.68 24.37-17.56 36.54-.71 1.47-1.68 2.95-2.88 4.03-3.55 3.17-7.6 3.07-10.1-.81-4.04-6.26-7.7-12.8-11.11-19.43-2.75-5.36-4.95-11-7.28-16.57-1.97-4.71-4.72-8.63-8.81-11.93-4.28-3.45-5.36-8.86-6.23-14.09-.75-4.53-1.25-9.08-4.95-12.49-3.63-3.34-4.16-3.43-7.48-.01-2.8 2.9-5.42 6-8.43 8.66-15.79 13.99-24.65 32.3-32.36 51.37-1.08 2.67-2.37 5.34-4.07 7.63-1.67 2.25-3.71 2.59-6.63.83-6.1-3.68-8.4-7.84-6.87-15.4 2.57-12.69 3.75-25.66 5.3-38.54.45-3.75.26-7.59.18-11.39-.23-11.75-1.04-23.51-.67-35.23.25-8.22 1.99-16.4 3.18-24.59 1.61-11.06 2.98-22.18 5.16-33.14 1.2-6.06 4.01-11.78 5.77-17.75 2.36-7.97 6.98-14.09 13.25-19.57 12.14-10.6 23.82-21.72 35.52-32.8 1.54-1.46 2.85-3.9 2.99-5.97 1.23-18.6-1.3-36.81-6.45-54.67-.41-1.41-2.02-2.97-3.43-3.5-3.11-1.17-6.44-1.8-9.71-2.53-6.5-1.45-8.76-3.94-9.54-10.96 5.81-2.05 11.61-4.43 17.62-5.99 1.5-.39 3.69 1.84 5.88 3.03 5.97-5.81 14.22-4.39 21.64-4.44 24.5-.14 49 .54 73.5 1.08 6.36.14 12.26 1.7 15.42 8.53-5.37 4.27-10.77 8.56-16.41 13.05 7.85 5.78 2.9 11.35-.13 17.02 3.18 3.65 3.54 7.99 3.4 12.58-.19 6.13-.05 12.28-.05 18.4-1.81.77-3.32 1.41-5.44 2.31 3.96 2.9 4.25 6.57 3.45 10.81-.52 2.74.69 4.92 3.87 6.1 9.32 3.46 18.53 7.25 27.72 11.05 1.68.7 3.32 1.85 4.58 3.17 6.7 7.07 13.03 14.49 19.97 21.32 3.63 3.57 5.52 7.43 5.37 12.33-.07 2.36.9 3.57 3.12 3.84 3.17.38 4.23 2.4 5.03 5.27 2.36 8.5 4.53 17.11 7.78 25.29 4.98 12.54 6.49 25.49 6.4 38.76-.07 9.96-.59 19.92-.45 29.87.1 7.24.96 14.47 1.43 21.7.1 1.53.54 3.43-.15 4.56-3.89 6.38-2.26 13.06-1.22 19.6 1.13 7.16 2.5 14.34 4.47 21.31 2.85 10.04 2.99 20 1.02 30.13-.6 3.07-.68 6.24-1.34 9.29-.2.89-1.5 2.01-2.45 2.19-3.46.63-6.59-.08-9.02-2.99-1.06-1.27-2.43-2.32-3.79-3.3-19.09-13.78-29.75-33.87-40.33-53.97-4.62-8.79-8.34-18.06-13.02-26.8-3.74-6.93-9.14-12.64-15.98-17.4zm58.59 53.18c2.92-.93 3.9-2.67 3.91-5.55.11-24.06.58-48.12.5-72.18-.08-24.73-4.18-48.81-14.12-71.58-2.04-4.66-5.31-9.24-9.11-12.6-11.98-10.6-24.46-20.63-36.84-30.77-1.17-.96-2.95-1.53-4.48-1.61-6.14-.33-12.3-.55-18.45-.53-10.71.03-21.56-1.75-32.1.93-18.06 4.6-36.03 9.59-53.96 14.7-4.62 1.32-8.24 4.24-9.54 9.46-.51 2.04-1.94 3.96-3.28 5.67-1.93 2.46-4.3 4.57-6.23 7.03-.89 1.14-1.56 2.7-1.7 4.13-.85 8.68-1.58 17.38-2.23 26.09-.36 4.82-.74 9.53-4.24 13.4-.55.61-.36 2.21-.04 3.21.63 1.99 2.39 3.93 2.27 5.8-.61 9.68-3.41 18.69-9.97 26.12-3.1 3.51-3.6 6.8-.94 10.8 2.09 3.16 3.24 6.48 3.11 10.38-.21 6.19-.06 12.39-.06 19.61 13.85-16.85 27.02-32.88 40.26-48.99 4.48 2.75 8.54 5.56 12.88 7.81 3.6 1.87 4.57 4.49 4.78 8.35.2 3.66 1 7.57 2.65 10.81 6.34 12.45 13.12 24.67 19.75 36.97 1.42 2.64 2.87 5.27 4.4 8.09 4.22-1.33 8.26-2.55 12.25-3.92.75-.26 1.47-1 1.93-1.69 11.13-16.78 22.24-33.57 33.27-50.42.47-.72.51-2.1.17-2.92-2.6-6.14-5.61-12.12-7.96-18.35-1.95-5.16-1.03-10.41 1.51-15.24.43-.81 2.08-1.57 3.02-1.42 6.58 1 11.07 4.92 14.21 10.63 3.93 7.15 7.74 14.37 11.92 21.38 5.6 9.4 9.71 19.34 12.44 29.92.35 1.37 1.34 2.91 2.5 3.66 2.85 1.84 4.18 4.29 4.84 7.56.86 4.25 1.22 9.14 3.61 12.44 5.81 8.02 12.68 15.29 19.07 22.82zm-133.04-211.31c.71.15 1.12.28 1.55.32 10.56 1.09 21.1 2.29 31.68 3.2 7.37.64 14.52-.54 21.06-4.17 1-.56 2.11-2.14 2.05-3.19-.38-6.8-.98-13.6-1.75-20.37-.1-.9-1.41-2.24-2.32-2.4-8.59-1.46-17.2-2.75-25.83-3.98-1.14-.16-2.54-.04-3.53.49-6.39 3.42-12.73 6.94-19.01 10.56-.82.47-1.58 1.64-1.72 2.59-.82 5.53-1.44 11.08-2.18 16.95zm21.36-48.2v.24c3 0 6.02-.21 9 .05 3.96.34 7.87 1.26 11.83 1.55 3.97.28 5.28 1.88 4 5.7-.28.84-1.1 1.66-1.03 2.43.14 1.48.45 3.11 1.26 4.29.34.5 2.16.16 3.24-.09 1.4-.32 2.86-.74 4.07-1.48.87-.54 1.89-1.64 1.95-2.55.4-6.46.92-12.95.67-19.41-.14-3.44-1.55-6.9-2.8-10.19-.38-.99-2.1-1.97-3.29-2.07-11.24-.98-22.51-1.58-33.73-2.7-5.27-.53-9.66.45-14.02 3.55-5.96 4.22-6.01 3.9-2.76 10.77 3.09 6.52 7.93 10.03 15.24 9.93 2.12-.04 4.24-.02 6.37-.02z" fill="#010100"/><g fill="#fcfbfa"><path d="m377.9 391.2c-.2.3-.4.5-.6.8-.7-.6-1.4-1-2.2-1.5.2-.3.4-.5.5-.8.6.4 1.4.8 2.3 1.5zm-1.8 6.1c-.2-.2-.5-.4-.9-.6.4-.6.8-1.2 1.2-1.9s.7-1.3.9-1.9c.3.3.5.5.8.7-.7 1.3-1.4 2.6-2 3.7zm2.2-9c-.3.3-.5.5-.6.8-.6-.6-1.3-1.1-2-1.5.3-.3.5-.5.6-.7.6.5 1.3.9 2 1.4zm.3.2v-.9h2 4.5c-.3 1.3-.6 2.5-1 3.6s-.9 2.1-1.4 3c.4.5 1 1 1.6 1.4s1.2.8 1.9 1.1c-.3.2-.5.4-.8.8-.4-.3-1-.7-1.6-1.2s-1.2-1.1-1.6-1.6c-.5.6-1.1 1.1-1.7 1.6s-1.4.9-2.1 1.4c-.1-.3-.3-.5-.7-.8.6-.2 1.2-.5 1.9-1s1.4-1.1 2-1.8c-.5-.8-.9-1.6-1.2-2.5s-.6-2-.8-3.2c-.4.1-.7.1-1 .1zm2.5 2.7c.3 1 .7 1.7 1 2.2.3-.5.6-1.1 1-2s.6-1.9.9-3h-3.2-.4c.1.9.3 1.8.7 2.8z"/><path d="m396.5 388.5v1.5 3.6h1.5v.9c-.4 0-1 0-1.7 0h-7.9c-.5 0-.9 0-1.2 0v-.9h1.3v-3.5c0-.7 0-1.2 0-1.6h2.4c0-.8 0-1.4 0-1.7h1c0 .3-.1.8-.1 1.7h1.5c0-.8 0-1.4 0-1.7h1c0 .3-.1.9-.1 1.7zm-8.2 9.2c-.2-.3-.5-.5-.8-.8.8-.3 1.4-.6 1.9-.9s1-.7 1.4-1.1c.3.3.6.5.9.8-1.6 1-2.8 1.6-3.4 2zm2.6-6.8v-1.6h-1.5v1.6zm0 2.7v-1.9h-1.5v1.9zm2.4-2.7v-1.6h-1.5v1.6zm0 2.7v-1.9h-1.5v1.9zm.2 2 .7-.8c.4.2.9.5 1.6.8s1.3.7 1.8 1c-.3.3-.5.5-.8.8-.4-.3-1.5-1-3.3-1.8zm2-4.7v-1.6h-1.4v1.6zm0 2.7v-1.9h-1.4v1.9z"/></g></svg>