<svg enable-background="new 0 0 400 400" viewBox="0 0 400 400" xmlns="http://www.w3.org/2000/svg"><path d="m198.45 255.17c-.69-2.55-1.66-4.82-1.87-7.16-.78-8.45-1.64-16.91-1.8-25.38-.08-4.27 1.44-8.54 1.98-12.85.9-7.19.64-14.34-2.32-21.08-2.92-6.66-7-7.23-11.9-1.91-2.43 2.64-5.04 5.12-7.28 7.9-4.87 6.03-10.64 10.73-17.95 13.55-1.15.44-1.89 2.08-2.68 3.26-.47.71-.45 1.99-1.04 2.33-5.29 3.01-6.95 8.91-10.65 13.14-3.81 4.35-7.76 8.64-12.1 12.44-3.94 3.45-4.44 7.96-5.56 12.52-3.28 13.4-1.26 26.94-1.42 40.42-.15 11.97.14 23.95.28 35.93.01 1.21.08 2.49.46 3.63 2.9 8.71 1.22 17.25-.91 25.75-.43 1.73-1.62 3.28-2.64 5.27-3.87-3.92-5.4-8.31-6.32-12.91-1.13-5.66-2.78-11.36-.07-17.09.31-.65.04-1.82-.36-2.52-1.84-3.16-1.71-6.54-1.77-10.04-.4-23.16-1.19-46.31-1.36-69.46-.04-5.59 1.49-11.26 2.79-16.77 2.83-11.98 4.48-24.13 6.22-36.29.95-6.64 3.8-13.03 5.96-19.47.35-1.05 1.43-1.98 2.38-2.67 17.19-12.5 34.4-24.98 51.66-37.38 1.47-1.06 2.05-2 1.7-3.84-.82-4.39-1.2-8.88-2.14-13.24-2.68-12.44-.98-24.98-1.11-37.47-.01-1.22.19-2.61-.31-3.63-3.2-6.55-2.47-13.51-2.47-20.42 0-3.46-.19-6.94-.64-10.36-.53-4.05-3.2-5.83-7.26-5.24-.55.08-1.17.1-1.63.37-6.27 3.66-12.33 1.87-18.57-.31-8.16-2.86-8.23-2.66-7.77-11.37.01-.22.1-.43.26-1.13 2.54.19 5.18.2 7.77.6 11.15 1.72 22.03-.05 32.93-2.21 8.11-1.61 16.28-2.94 24.44-4.31 1.4-.24 2.98-.41 4.29-.01 9.84 2.96 19.87 2.57 29.96 2.16 7.55-.31 15.19-1.43 22.65.99.32.1.74.03.97.21 1.73 1.38 3.42 2.81 5.12 4.23-1.6 1.13-3.07 2.87-4.84 3.26-4.22.94-8.57 1.32-12.89 1.78-3 .32-6.04.22-9.02.63-5.95.83-8.68 3.32-7.8 9.13 1.46 9.61-1.05 18.23-3.9 27.15-1.85 5.77-1.62 12.17-2.76 18.2-1.8 9.43-3.88 18.8-6.06 28.15-.52 2.24-.36 3.59 1.91 4.44 6.05 2.27 9.47 6.7 11.57 12.81 3.87 11.25 9.9 21.3 16.96 30.97 10.85 14.87 19.52 31.15 24.4 48.99 2.64 9.64 3.5 19.76 5.27 29.65 1.23 6.91.72 13.77.2 20.7-.33 4.42.48 8.91.45 13.36-.07 10.49-.49 20.97-.48 31.46 0 6.7.71 13.39.76 20.09.09 13.57-2.62 26.57-9.11 38.94-.68-2.29-1.16-4.66-2.08-6.85-4.96-11.77-4.91-23.99-4.44-36.5 1-26.72 1.28-53.47 1.74-80.21.02-1.22-.69-3.01-1.64-3.61-6.94-4.38-10.93-10.88-14.21-18.14-.88-1.96-3.3-3.17-4.78-4.92-2.53-2.99-4.81-6.19-7.31-9.2-7.45-8.98-14.18-18.37-19.2-29-1.64-3.47-4.75-6.26-7.49-9.74-3.25 5.04-3.53 9.76-3.18 14.37.58 7.69 1.71 15.33 2.6 22.99.18 1.55.74 3.17.46 4.64-2.06 11.03-.31 22.11-.66 33.15-.38 11.73-1.1 23.44-1.47 35.17-.23 7.35-.09 14.72-.08 22.08.02 9.82.18 19.65.08 29.47-.09 9.05-.32 18.11-.77 27.15-.12 2.39-1.23 4.72-1.89 7.08-.93 3.36-3.63 4.4-6.48 3.8-1.53-.32-3.41-2.22-3.86-3.77-1.17-4.03-2.52-8.32-2.25-12.41 2.24-32.88.59-65.79 1.17-98.68.06-1.68.8-3.32 1.16-4.76zm1.54-105.87c.34.06.67.12 1.01.18.52-1 1.29-1.94 1.52-3 .8-3.71 1.41-7.47 2.11-11.2 4.48-23.73 8.97-47.45 13.45-71.18 1.1-5.81 2.61-11.58 3.21-17.44.6-5.83-1.94-8.12-7.89-8.23-4.25-.08-8.58-.57-12.73.05-4.73.71-9.3 2.47-13.54 3.65 1.81 4.06 4.17 7.45 4.79 11.13 1.18 7.01 1.41 14.18 1.96 21.29.89 11.52-1.05 23.2 2 34.62 1.23 4.63 1.64 9.29-1.59 13.47-.29.37-.37 1.08-.26 1.57 1.96 8.37 3.97 16.73 5.96 25.09zm-67.15 64.73c6.22-2.27 10.65-6.18 14.67-10.83 6.64-7.68 13.35-15.33 20.44-22.59 3.2-3.28 7.21-5.92 11.2-8.24 3.65-2.11 5.91-4.78 5.91-8.94 0-1.69-.42-4.12-1.55-4.88-1.15-.78-3.73-.48-5.12.32-7.54 4.36-14.79 9.23-22.37 13.53-9.17 5.2-16.79 11.88-21.4 21.45-2.61 5.43-2.57 11.51-2.84 17.43-.03.81.61 1.64 1.06 2.75zm123.01-7.57c1.09-5.52.44-7.2-2.31-11.12-3.26-4.63-6.42-9.37-9.15-14.32-1.45-2.62-2.8-5.06-5.6-6.32-3.4-1.53-5.27-3.83-4.56-7.81.16-.88-.21-2.05-.71-2.83-3.78-5.8-7.67-11.54-11.49-17.32-.66-1-1.13-2.12-1.69-3.19-.42.33-.84.67-1.25 1-1.97 4.47-3.94 8.94-5.93 13.48.63.57 1.07 1.09 1.61 1.43 12.1 7.65 20.95 18.27 28.5 30.26 3.53 5.64 7.98 10.69 12.58 16.74z" fill="#010100"/><g fill="#fafbfa"><path d="m6.4 11.7c-1-.8-1.9-1.6-2.9-2.3l.6-.7c.9.7 1.9 1.4 2.9 2.2zm-2.1 8.3c.7-2.1 1.4-4.2 2-6.4.2.1.6.3 1 .4-.7 2.3-1.3 4.4-1.9 6.4zm3-12.8c-1.1-.9-2.1-1.7-2.9-2.4l.6-.7c1 .8 2 1.5 3 2.4zm1.4-1.3v-.9h10.2v.9c-.9 4.2-2.3 7.3-4.1 9.4 1.3 1.4 3.2 2.7 5.7 4-.2.2-.4.5-.7.9-2.5-1.4-4.4-2.7-5.7-4.2-1.4 1.5-3.5 3-6.1 4.4 0 0 0 0-.1-.1-.3-.4-.5-.7-.7-.8 2.7-1.3 4.7-2.8 6.2-4.2-1.8-2.2-3-5.3-3.7-9.4zm9.2 0h-7.1c.6 3.8 1.7 6.7 3.4 8.7 1.7-2 2.9-4.8 3.7-8.7z"/><path d="m31.6 3.6h.9v2.3h4.1v9.1h1.7v.9h-16.6v-.9h1.7v-9.1h4.1v-2.3h.9v2.3h3.1v-2.3zm-4 13.3.6.8c-1.9.9-3.8 1.9-5.8 2.8-.2-.3-.3-.6-.5-.9 2-.9 3.9-1.8 5.7-2.7zm-3.2-10.1v3.7h3.1v-3.7zm0 4.5v3.7h3.1v-3.7zm4.1-4.5v3.7h3.1v-3.7zm0 4.5v3.7h3.1v-3.7zm9.1 9.1c-2.1-1.1-4.1-2-5.8-2.7l.5-.8c2.2.9 4.1 1.8 5.8 2.6zm-1.9-13.6h-3.1v3.7h3.1zm-3.2 4.5v3.7h3.1v-3.7z"/></g></svg>