<svg enable-background="new 0 0 400 400" viewBox="0 0 400 400" xmlns="http://www.w3.org/2000/svg"><path d="m362.1 8.8c1.1.8 2.1 1.6 3.1 2.4l-1 1.1c-1.3-1.1-2.3-2-3-2.5zm1.9 4.8c.5.2.9.4 1.4.5-.6 2.3-1.3 4.5-1.9 6.8l-1.5-.5c.8-2.1 1.4-4.3 2-6.8zm-1-9.4c1.3.9 2.4 1.8 3.4 2.5l-1 1.1c-1.4-1.2-2.4-2.1-3.2-2.6zm3.7 2.2v-1.4h10.3v1.2c-.5 3.6-1.8 6.8-4 9.4 1.5 1.6 3.4 2.8 5.7 3.8-.3.4-.7.8-1.1 1.4-2.3-1.1-4.1-2.5-5.6-4.1-1.6 1.6-3.6 3.1-5.9 4.3-.3-.5-.7-.9-1-1.3 2.4-1.1 4.4-2.5 6-4.1-1.9-2.5-3-5.6-3.3-9.3h-1.1zm8.8 0h-6.4c.3 3.3 1.3 6 3 8.2 2-2.3 3.1-5.1 3.4-8.2z" fill="#fbfcfa"/><path d="m385.3 3.8h1.3v2.2h2.8v-2.2h1.3v2.2h4.1v9.1h1.7v1.3h-16.9v-1.3h1.7v-9.1h4.1v-2.2zm.4 13.1.7 1.2c-1.8.9-3.8 1.9-6 2.9-.2-.4-.5-.8-.8-1.3 2.3-1 4.3-1.9 6.1-2.8zm-3.1-6.4h2.8v-3.2h-2.8zm0 4.6h2.8v-3.3h-2.8zm4-4.6h2.8v-3.2h-2.8zm0 4.6h2.8v-3.3h-2.8zm3.7 1.9c2.1.9 4.1 1.8 6.1 2.7l-.7 1.3c-2.2-1.1-4.2-2-6.1-2.9zm3.2-9.7h-2.8v3.2h2.8zm-2.8 7.8h2.8v-3.3h-2.8z" fill="#fbfcfa"/><g fill="#010106"><path d="m201.18 373.24c-1.64.37-2.83.67-4.04.9-5.41 1.03-5.68 1.11-7.35-4.09-1.28-3.99-2.4-8.23-2.49-12.38-.85-38.94-1.47-77.88-2.09-116.81-.04-2.38-.48-3.68-3.2-3.9-1.55-.12-3.2-1-4.49-1.96-9.86-7.36-19.67-14.75-28.32-23.62-3.02-3.09-7.26-5.05-11.09-7.26-1.97-1.14-3.92-.55-5.88.87-11.86 8.62-23.78 17.14-35.77 25.58-1.87 1.32-2.48 2.74-2.52 4.97-.83 42.41-1.7 84.81-2.72 127.21-.07 3.03-.8 6.3-2.2 8.94-.92 1.74-3.45 2.98-5.52 3.66-2.13.71-3.9-.26-4.94-2.74-2.78-6.6-3.45-13.48-2.72-20.42 3.72-35.5 2.03-71.12 2.57-106.69.31-20.81-.08-41.64.42-62.44.16-6.82 1.88-13.66 3.35-20.39 1.78-8.12 7.45-13.39 14.9-15.96 7.11-2.46 14.63-4.04 22.1-5.11 17.87-2.55 35.71-1.08 53.49 1.46 1.54.22 3.04.72 4.56 1.08 13.37 3.14 19.28 12.97 21.09 25.3 1.56 10.68 2.08 21.59 2.16 32.4.4 53.16.49 106.31.69 159.47.02 3.91.01 7.81.01 11.93zm-52.11-180.77c11.68 10.51 23.08 20.77 34.65 31.17.4-.74.63-1 .68-1.29 2.56-15.88 2.91-31.78-.19-47.62-.53-2.72-1.8-5.3-2.85-8.28-11.09 8.94-21.59 17.39-32.29 26.02zm-11.93-9.8c10.73-7.97 21.36-15.85 31.99-23.74-.09-.36-.17-.73-.26-1.09-19.79-5.76-39.69-3.01-60.39-.35 9.9 8.71 19.21 16.88 28.66 25.18zm-43.36 34.49c11.01-8.8 21.27-17 31.8-25.41-9.6-8.43-19.03-16.71-28.89-25.37-5.6 16.9-4.92 33.33-2.91 50.78z"/><path d="m274.56 101.38c7.56 6.06 15.29 11.63 22.25 18.05 4.96 4.58 9.28 10.02 13.18 15.57 7.97 11.36 8.56 23.83 4.57 36.86-4.01 13.11-11.53 24.12-20.11 34.53-8.75 10.62-17.78 21.02-26.31 31.81-12.7 16.05-15.77 34.02-9.08 53.37 2.73 7.9 6.26 15.52 9.52 23.23.55 1.31 1.46 2.52 2.42 3.59 9.63 10.76 19.2 21.58 29.02 32.15 3.41 3.67 7.51 6.69 11.28 10.03 3.26 2.88 5.91 6.2 6.35 10.68.1 1.02-.66 2.91-1.37 3.09-2.47.65-5.24 1.38-7.63.86-2.49-.55-5.09-2.1-6.9-3.94-13.49-13.71-27.26-27.2-40.02-41.57-11.32-12.75-16.35-28.77-20.12-45.17-1.61-7 1.09-13.48 1.65-20.21.19-2.33.8-4.63 1.08-6.96.78-6.49 2.2-12.77 5.96-18.27 1.21-1.77.94-3.06-.46-4.68-6.28-7.29-12.51-14.63-18.57-22.1-19.2-23.67-16.19-53.61-1.37-74.92 15.96-22.96 32.68-45.38 49.09-68.02 2.6-3.59 3.94-7.47 3.4-11.94-.21-1.77-.92-2.56-2.83-3.01-12.53-2.98-25.09-1.72-37.73-1.1-7.5.37-15.15-.51-22.62-1.58-4.83-.69-6.54-4.11-5.24-8.68.35-1.23 1.6-2.6 2.79-3.13 4.93-2.24 10.14-3.19 15.62-3.02 12.63.39 25.28.42 37.91.88 6.63.24 13.05 1.81 18.97 5 8.06 4.33 11.24 11.01 8.99 19.84-.85 3.31-2.07 6.7-3.91 9.55-5.99 9.29-12.34 18.35-18.55 27.5-.51.7-1.02 1.4-1.23 1.71zm17.38 82.45c1.21-1.56 2.63-2.79 3.28-4.34 2.05-4.94 4.17-9.89 5.62-15.02 2.7-9.58 1.38-18.56-5.12-26.51-8.26-10.1-18.56-17.64-29.82-24.51-6.34 8.21-12.59 16.31-18.87 24.44 15.05 15.39 29.82 30.5 44.91 45.94zm-8.17 10.73c-15.07-14.58-29.8-28.84-44.59-43.14-8.55 12.13-9.7 26.96-2.57 39.58 5.71 10.1 12.12 19.82 18.24 29.68.86 1.39 1.89 2.68 3.03 4.29 8.75-10.28 17.21-20.22 25.89-30.41z"/><path d="m134.9 58.31c12.38 1.76 24.84 3.09 37.12 5.39 13.87 2.6 19.95 11.77 18.39 26.17-.17 1.56-.54 3.1-.64 4.66-.59 9.21-5.99 14.55-13.95 18.27-8.99 4.2-18.42 6.43-28.21 6.65-18.88.43-37.55-1.35-55.66-7.12-1.6-.51-3.18-1.62-4.34-2.86-7.1-7.52-6.96-16.5-5.87-26.1 1.12-9.82 7.32-14.5 15.27-18.08 12.03-5.42 24.77-6.55 37.78-6 .04-.33.07-.65.11-.98zm-.72 46.57c2.24 0 4.47.07 6.71-.01 10.06-.39 20.12-.92 29.62-4.74 1.39-.56 3.15-1.31 3.76-2.49 5.19-9.98-.56-20.69-11.64-22.35-13.8-2.07-27.63-2.23-41.44-.48-5.83.74-11.67 1.96-17.27 3.7-5.88 1.83-9.45 5.69-8.86 12.65.48 5.58 1.86 8.01 7.3 9.66 10.38 3.15 21.08 3.7 31.82 4.06z"/><path d="m148.78 306.4c0 15.44.14 30.88-.09 46.32-.07 4.87-.79 9.81-1.88 14.56-.94 4.13-4.01 6.1-7.51 5.89-1.77-.11-2.89-.6-3.43-2.78-3.04-12.27-3.93-24.71-3.71-37.28.46-26.07.86-52.14 1.45-78.21.07-3.18-1.02-4.65-4-4.59-5.46.12-10.92.49-16.38.62-2.32.06-4.73.13-6.96-.41-3.39-.83-4.43-3.71-4.98-6.87-.49-2.79 1.04-4.25 3.25-5.1s4.56-1.9 6.85-1.92c17.69-.16 35.38-.05 53.07-.11 3.9-.01 6.66 1.79 8.53 4.94 1.88 3.17.88 6.04-2.57 7.17-2.41.79-4.99 1.18-7.52 1.42-3.11.29-6.26.3-9.39.29-3.48-.02-4.7 1.43-4.66 5.04.18 17.01.08 34.02.08 51.02-.04 0-.09 0-.15 0z"/><path d="m203.77 36.07c-5.45 3.82-11.65 5.48-18.24 5.64-14.99.36-29.98.56-44.97.82-11.18.19-22.4 1-33.54.37-9.97-.56-19.84-2.71-29.84-4.17 0-3.71 0-6.46 0-9.8 3.38-.84 7.01-2.5 10.64-2.52 34.82-.16 69.64-.1 104.45.04 7.32.02 10.66 3.06 11.5 9.62z"/></g></svg>