<svg enable-background="new 0 0 400 400" viewBox="0 0 400 400" xmlns="http://www.w3.org/2000/svg"><path d="m201.47 326.28c-12.73-1.42-24.24 1.86-35.88 3.9-1.76.31-3.52.67-5.24 1.15-5.89 1.63-11.51 3.3-16.42 7.64-8.28 7.32-18.35 10.85-29.8 10.53-.52-2.22-1.25-4.25-1.37-6.31-.06-1.08.66-2.59 1.52-3.27 5.39-4.18 10.74-8.45 16.44-12.17 8.8-5.75 17.77-11.24 26.86-16.52 6.26-3.64 13.28-4.38 20.45-4.08 8.76.36 13.43-2.93 16.17-11.41-10.25-1.7-20.29-1.15-30 2.31-4.7 1.67-9.42 3.74-13.57 6.46-12.71 8.35-25.08 7.29-37.46-.43-2.64-1.64-5.1-3.57-8.28-5.83 3.16-.99 5.58-1.99 8.1-2.51 8.3-1.72 15.47-5.47 21.78-11.12 1.66-1.48 3.97-2.48 6.16-3.09 13.35-3.7 26.81-7.05 40.11-10.91 3.3-.96 6.65-2.88 9.13-5.24 4.38-4.18 1.66-14.3-4.25-15.54-2.22-.46-5.5 1.15-7.43 2.82-13.08 11.32-28.19 18.52-44.9 22.32-5.03 1.14-10.43.73-15.66.88-3.13.09-5.5-1.31-7.14-4.11-1.06-1.81-2.48-3.41-3.94-5.36 5.08-1.66 9.89-3.31 14.75-4.8 9.06-2.76 16.94-7.61 23.9-13.87 2.27-2.04 3.58-5.09 5.57-7.49 2.4-2.9 5.08-5.56 7.57-8.38 1.5-1.69 2.87-3.49 4.4-5.35-2.56-1.68-4.09-1.66-5.9.14-4.85 4.84-11.16 6.67-17.72 7.01-11.82.61-23.67.74-35.86 1.08.35-.62.53-1.44 1.03-1.74 2.58-1.54 5.09-3.43 7.91-4.28 5.77-1.75 10.39-4.81 14.32-9.38s8.38-8.7 12.56-13.06c.77-.8 1.51-1.67 2.05-2.63 2.08-3.68 1.67-5.04-2-7.07-4.99-2.77-9.9-5.68-15-8.23-2.41-1.21-5.18-1.69-7.77-2.55-.82-.27-1.65-.59-2.35-1.07-.82-.57-1.51-1.33-2.24-2.02-3.76-3.5-7.51-7.01-11.27-10.51-.63-10.65-7.14-20.12-6.26-31.05.22-2.78.81-5.52 1.19-8.29.7-5.06 1.04-10.2 2.15-15.17 1.74-7.83 3.62-15.89 9.16-21.96 4.98-5.46 8.28-11.31 9.9-18.54.7-3.12 3.52-5.76 5.39-8.61 2.07-3.14 4.64-6.06 6.08-9.45.86-2.03.24-4.85-.21-7.22-.93-4.91 3.09-10.49 8.04-10.63.65-.02 1.42.55 1.96 1.03 2.17 1.94 4.12 4.16 6.43 5.91 2.82 2.14 3.84 4.94 3.6 8.2-.36 4.89-.84 9.78-1.56 14.63-.5 3.37-2.21 6.07-4.86 8.5-2.57 2.35-4.48 5.49-6.39 8.46-.41.63.04 2.43.69 3.03 3.92 3.57 8.35 5.64 13.98 5.27 3.71-.24 7.52.58 11.24 1.19 1.22.2 2.64.96 3.38 1.92 2.19 2.83 5.17 3.67 8.46 4.1 3.24.42 5.02-.62 5.24-3.91.25-3.74.32-7.41-2.1-10.9-4.68-6.76-3.39-14.53-3.02-22.13.11-2.33-.56-4.7-.88-7.05-.38-2.8-1.42-5.69-1.04-8.38.78-5.46.76-10.68-1.79-15.65-1.26-2.46-.14-3.56 2.06-4.08 4.94-1.17 9.21.68 12.54 3.97 4.7 4.63 8.93 9.73 13.25 14.73.9 1.04 1.54 2.46 1.89 3.8 1.59 6.05 3.21 12.11 4.45 18.24.67 3.33.58 6.81.86 10.65.48.22 1.46.66 2.58 1.17 3.64-4.4 7.25-8.66 10.69-13.06.57-.72.6-2.08.47-3.09-1.15-9.1-2.18-18.22-3.71-27.26-.72-4.25-2.45-8.34-3.72-12.5 8.59-4.03 17.25-3.33 25.97-.27 10.27 3.61 19.73 8.34 26.63 17.24 4.76 6.14 10.52 11.19 17.38 15.04 5.23 2.93 7.99 7.32 7.55 13.8-.42 6.17-.98 12.54 2.35 18.35.5.88.34 2.18.34 3.29.02 12.43.07 24.85-.03 37.28-.02 2.89-.32 5.82-.86 8.67-1.14 5.96 1.2 10.51 5.52 14.23 5.54 4.77 6.53 13.82 1.98 19.45-1.27 1.57-2.58 3.1-3.77 4.72-3.21 4.34-7.71 6.19-12.87 5.9-5.12-.28-10.18-1.35-15.3-1.87-3.31-.34-6.67-.5-10-.37-2.42.09-4.04 1.36-4.36 4.15-.38 3.32-1.39 6.57-1.74 9.9-.13 1.28.41 3.21 1.35 3.91 3.74 2.8 7.73 5.26 11.67 7.78 3.19 2.03 6.33 4.19 9.71 5.85 2.56 1.25 5.46 2.52 8.21 2.51 6.25-.01 10.01 4.63 14.92 7.08.53.27.78 1.55.78 2.36.05 9.4-.06 18.81.1 28.21.04 2.34-1.31 2.76-2.92 3.34-14.29 5.16-28.59 10.22-43.45 13.62-8 1.83-15.6 4.93-21.31 11.3-1.63 1.82-3.07 3.81-5.21 6.49 2.33.31 4.26 1.2 5.58.65 8.24-3.44 16.76-2.13 25.18-1.71 5.22.26 9.77-.86 14.42-3.17 10.37-5.13 26.66 2.02 30.39 12.87.68 1.98.33 3.33-1.36 4.2-1.66.86-3.43 1.73-5.25 2.01-11.48 1.79-22.96 3.73-34.51 4.96-6.29.67-12.71-.02-19.07-.01-8.04.01-15.34 1.6-19.96 9.22-2.47 4.07-2.68 8.42-2.5 12.95.48 11.79-.99 23.23-6.62 33.83-1.95 3.67-4.33 6.98-8.68 8.7-3-6.67-2.69-13.36-1.57-20.15 1.1-6.71 2.25-13.42 2.94-20.17.25-2.62-.71-5.3-1.1-7.92zm2.53-88.09c4.93-1.8 8.02-5.19 9.83-9.47 5.54-13.05 8.97-26.39 4.85-40.7-.64-2.23-.42-5.39.74-7.3 1.78-2.94 1.24-5.26-.17-7.73-3.65-6.4-7.81-12.27-16.39-13.8-1.38 3.6-3.39 7.02-3.91 10.65-.89 6.18-3.38 11.49-6.63 16.62-1.37 2.17-2.28 4.71-3.93 6.62-6.27 7.27-5.24 14.84-1.39 22.64 1.23 2.5 2.32 5.12 3.91 7.38 1.31 1.86 3.01 3.98 5 4.72 2.95 1.1 4.54 2.89 5.63 5.6.62 1.51 1.52 2.94 2.46 4.77zm-45.96-63.52c3.09.4 4.92-.88 6.36-3.44 1.46-2.59 3.15-5.17 5.26-7.22 2.66-2.59 4.04-7.04 2.59-10.84-1.1-2.89-3.82-4.15-8.15-3.78-.67.06-1.33.18-2 .23-10.25.73-20.36.72-29.43-5.28-1.67-1.1-3.52-1.96-5.38-2.71-.78-.31-2.01-.38-2.66.03-5.19 3.33-6 9.66-1.92 14.41 8.87 10.3 21.26 14.31 33.49 18.56.61.23 1.34.04 1.84.04zm3.77-36.87c9.58-.11 16.98-3.62 16.15-12.66-.35-3.76-2.03-6.06-5.74-6.78-1.52-.3-3.11-.29-4.67-.38-5.46-.34-10.95-.46-16.37-1.1-2.05-.24-4.31-1.29-5.86-2.66-2.48-2.2-4.44-4.99-6.64-7.51-2.5-2.87-8.31-4.85-10.51-3.62-3.78 2.13-5.58 6.6-3.74 11.29 1.05 2.67 2.99 5.22 5.11 7.2 3.26 3.03 7.04 5.5 10.56 8.25 6.77 5.31 14.71 7.2 21.71 7.97zm85.64-69.25c-3.35 5.33-6.07 10.5-9.59 15.04-3.54 4.57-7.74 8.65-11.88 12.71-5.66 5.56-11.47 10.97-17.32 16.33-2.87 2.63.02 4.93.3 7.33.06.5 2.14 1.17 3.24 1.09 10.45-.75 18.65-5.28 24.47-14.23 5.23-8.05 10.79-15.89 16.34-23.72 3.03-4.27 2.88-7.97-1.11-11.51-1.39-1.23-3.09-2.12-4.45-3.04zm14.91 174.59c-.66-4.58-3.13-7.37-7.03-8.59-3.81-1.19-7.77-2.08-11.72-2.63-1.34-.19-3.26.67-4.26 1.69-5.79 5.92-11.31 12.1-17.12 18.01-1.19 1.21-3.14 1.97-4.86 2.31-3.24.64-6.57.82-10.16 1.23.83 1.97 1.64 3.45 2.1 5.03.69 2.39 2.08 2.92 4.48 2.71 6.2-.53 11.71-2.51 16.6-6.44 6.43-5.17 13.46-9.16 21.74-10.66 3.39-.62 6.69-1.72 10.23-2.66zm-44.81-106.77c-.17.41-.34.81-.52 1.22 1.86 1.21 3.7 2.47 5.59 3.62 2.64 1.6 5.46 2.93 7.94 4.74 3.18 2.32 4.95 2.18 7.45-.73 2.05-2.38 4.05-5.58 6.72-6.49 6.69-2.26 11.97-6.12 15.82-11.72 1.18-1.72 1.51-5.57.39-6.94-1.32-1.61-5.25-2.86-7-2.03-12.27 5.79-24.28 12.15-36.39 18.33z" fill="#010102"/><g fill="#fcfbfa"><path d="m377.9 391.2c-.2.3-.4.5-.6.8-.7-.6-1.4-1-2.2-1.5.2-.3.4-.5.5-.8.6.4 1.4.8 2.3 1.5zm-1.8 6.1c-.2-.2-.5-.4-.9-.6.4-.6.8-1.2 1.2-1.9s.7-1.3.9-1.9c.3.3.5.5.8.7-.7 1.3-1.4 2.6-2 3.7zm2.2-9c-.3.3-.5.5-.6.8-.6-.6-1.3-1.1-2-1.5.3-.3.5-.5.6-.7.6.5 1.3.9 2 1.4zm.3.2v-.9h2 4.5c-.3 1.3-.6 2.5-1 3.6s-.9 2.1-1.4 3c.4.5 1 1 1.6 1.4s1.2.8 1.9 1.1c-.3.2-.5.4-.8.8-.4-.3-1-.7-1.6-1.2s-1.2-1.1-1.6-1.6c-.5.6-1.1 1.1-1.7 1.6s-1.4.9-2.1 1.4c-.1-.3-.3-.5-.7-.8.6-.2 1.2-.5 1.9-1s1.4-1.1 2-1.8c-.5-.8-.9-1.6-1.2-2.5s-.6-2-.8-3.2c-.4.1-.7.1-1 .1zm2.5 2.7c.3 1 .7 1.7 1 2.2.3-.5.6-1.1 1-2s.6-1.9.9-3h-3.2-.4c.1.9.3 1.8.7 2.8z"/><path d="m396.5 388.5v1.5 3.6h1.5v.9c-.4 0-1 0-1.7 0h-7.9c-.5 0-.9 0-1.2 0v-.9h1.3v-3.5c0-.7 0-1.2 0-1.6h2.4c0-.8 0-1.4 0-1.7h1c0 .3-.1.8-.1 1.7h1.5c0-.8 0-1.4 0-1.7h1c0 .3-.1.9-.1 1.7zm-8.2 9.2c-.2-.3-.5-.5-.8-.8.8-.3 1.4-.6 1.9-.9s1-.7 1.4-1.1c.3.3.6.5.9.8-1.6 1-2.8 1.6-3.4 2zm2.6-6.8v-1.6h-1.5v1.6zm0 2.7v-1.9h-1.5v1.9zm2.4-2.7v-1.6h-1.5v1.6zm0 2.7v-1.9h-1.5v1.9zm.2 2 .7-.8c.4.2.9.5 1.6.8s1.3.7 1.8 1c-.3.3-.5.5-.8.8-.4-.3-1.5-1-3.3-1.8zm2-4.7v-1.6h-1.4v1.6zm0 2.7v-1.9h-1.4v1.9z"/></g></svg>