<svg enable-background="new 0 0 400 400" viewBox="0 0 400 400" xmlns="http://www.w3.org/2000/svg"><path d="m207.12 228.55c5.58-1.57 10.92-3.09 16.27-4.59 2.91-.81 5.94-1.29 8.72-2.41 11.8-4.76 23.87-4.16 36.24-3.01 18.36 1.71 36.82 2.48 55.24 3.46 1.38.07 3.36-.95 4.17-2.09 5.5-7.81 6.69-16.67 5.43-25.9-.15-1.11-1.94-2.59-3.19-2.84-6.21-1.28-12.47-2.84-18.75-3.07-6.26-.24-12.07-1.97-18.08-3.08-9.42-1.73-19-2.57-28.46-4.1-4.04-.65-7.99-1.97-11.92-3.19-6.71-2.07-13.34-4.41-20.08-6.4-2.71-.8-4.87-2.05-5.49-4.79-.84-3.68-1.4-7.44-1.74-11.2-.08-.9.95-2.18 1.82-2.83 5.81-4.34 12.4-6.88 19.66-6.65 10.84.34 21.85.14 32.42 2.15 5.77 1.1 11.1.97 16.69.75 1.45-.06 3.34.21 4.32 1.11 4.74 4.37 10.38 6.22 16.61 7.1 4.86.69 9.67 1.81 14.47 2.88 1.96.44 3.07-.06 3.98-1.88 2.81-5.64 3.62-11.48 2.01-17.59-1.2-4.54-2.74-9-3.66-13.59-.9-4.44-3.2-7.62-6.71-10.34-3.8-2.94-7.5-6.06-10.9-9.45-10.61-10.56-23.1-18.15-36.56-24.47-8.59-4.03-16.89-8.7-25.19-13.3-2.71-1.5-5.48-3.35-7.39-5.7-1.92-2.38-3.61-5.49-3.99-8.46-.77-6.06 7.55-13.18 13.74-12.74 4.88.35 9.81.49 14.68.18 6.83-.45 13.04.79 18.8 4.65 13.28 8.9 26.79 17.47 39.95 26.55 10.51 7.24 18.99 16.64 26.35 27.03.75 1.06 1.27 2.35 1.64 3.62 3.45 11.8 6.89 23.6 10.2 35.44.59 2.11.97 4.44.71 6.58-.98 8.32-.28 16.45 1.61 24.6 1.95 8.43 1.56 16.89-.75 25.24-.32 1.17-.52 2.55-1.27 3.39-7.12 7.99-10.5 17.67-12.17 27.92-2.51 15.46-10.63 28.4-18.44 41.36-3.75 6.23-9.54 11.23-14.4 16.79-1.11 1.26-2.59 2.36-3.24 3.83-4.7 10.59-13.73 17.49-21.42 25.53-.46.49-.99.92-1.42 1.43-4.38 5.3-10.09 8.39-16.33 11.21-5.92 2.68-11.03 7.1-16.62 10.56-2.13 1.32-4.5 2.48-6.92 3.06-17.29 4.12-34.62 8.02-51.92 12.11-4.01.95-7.85 2.77-11.89 3.46-4.8.82-9.73.92-14.61 1.17-1.72.09-3.5-.35-3.38-2.71.11-2.19-1.88-4.65 1.43-6.41 8.18-4.37 16-9.47 24.34-13.48 19.51-9.39 37.96-20.46 55.56-33.04 13.37-9.56 26.86-18.94 40.28-28.41 6.1-4.3 10.19-9.94 11.63-17.39.45-2.32.15-3.71-2.42-4.87-10.64-4.81-21.87-6.42-33.34-6.33-20.32.15-40.43-1.73-60.35-5.62-1.2-.23-2.61-1.53-3.13-2.69-1.16-2.65-1.85-5.48-2.84-8.54zm112.19-52.53c-.25 2.3-.46 4.27-.75 7 2.71-2.46 4.05-4.3.75-7z" fill="#010000"/><path d="m32.28 304.44c-.23-3.66-.43-6.84-.62-10.01 4.37-2.06 8.07-5.64 13.49-5.18 11.39.97 21.42-3.69 30.53-9.38 16.01-10 31.38-21.02 46.88-31.82 4.93-3.43 8.67-7.97 10.49-13.96.87-2.86 0-4.02-2.67-4.8-6.22-1.81-12.3-1.38-18.51.22-7.66 1.98-15.36 4.06-23.18 5.1-4.86.64-9.98-.42-14.95-.99-7.44-.85-14.84-2.51-22.29-2.73-5.95-.18-12.03.9-17.91 2.1-8.99 1.84-11.07.27-11.13-8.9-.02-3.13 1.02-4.6 4.02-5.31 1.51-.36 3.29-1.34 4.09-2.58 6.61-10.23 16.97-13.15 28.01-13.72 13.94-.72 27.94-.54 41.92-.6 15.22-.06 30.44.09 45.65.01 1.16-.01 2.71-.77 3.4-1.7 1.65-2.21 3.57-4.56 4.17-7.14 1.81-7.81 3.04-15.75 4.49-23.64.39-2.11-.5-3.61-2.57-3.93-2.82-.43-6.03-1.48-8.49-.61-11.16 3.93-22.74 3.28-34.19 3.69-18.33.66-36.68.77-55 1.55-4.67.2-8.23-1.42-11.74-3.8-2.12-1.44-4.06-1.74-6.53-.77-4.2 1.64-7.39.13-8.91-4.24-1.78-5.11-1.55-10.37 0-15.5.26-.86 1.62-1.73 2.62-1.97 15.49-3.8 30.99-3.36 46.56-.29 24.69 4.86 49.19 3.51 73.38-3.15 9.38-2.58 11.66-6.17 11.2-15.86-.11-2.34-.43-4.68-.85-6.99-2.22-12.1-2.16-12.43-14.02-15.47-14.17-3.62-28.44-6.98-42.81-9.64-5.93-1.1-12.25.04-18.39-.09-5.11-.11-10.25-.33-15.32-.94-7.09-.86-14.13-2.12-21.18-3.26-2.2-.36-4.45-.65-6.54-1.37-8.08-2.76-8.28-11.02-2.87-16.01 7.61-7.02 17.29-10.43 27.47-11.23 4.73-.37 9.63 1.62 14.48 2.38 20.2 3.19 40.4 6.36 60.61 9.47 15.34 2.36 28.6 8.39 37.14 21.96 2.17 3.46 2.72 7.94 4 11.95 2.45 7.64 4.95 15.27 7.29 22.94.46 1.5.73 3.3.37 4.78-2.51 10.15-4.34 20.31-2.7 30.83.2 1.26-.15 2.67-.51 3.93-3.46 12.02-6.96 24.04-10.51 36.04-.37 1.24-.92 2.59-1.79 3.5-6.58 6.88-10.43 15.22-13.37 24.13-1.74 5.3-3.73 10.52-5.78 15.71-4.74 11.97-13.98 20.06-24.15 27.17-15.3 10.7-32.81 16.63-50.27 22.58-7.4 2.52-14.93 4.66-22.3 7.23-4.82 1.68-9.54 2.68-14.72 1.8-5.06-.86-10.23-1.01-15.49-1.49z" fill="#010000"/><g fill="#fbfcfa"><path d="m361.2 9.6.8-1c.9.7 1.9 1.4 2.9 2.3l-.9 1.1c-1-1-2-1.8-2.8-2.4zm.5 10.6c.9-2.1 1.6-4.3 2.3-6.7.4.2.8.4 1.3.6-.7 2.1-1.5 4.3-2.2 6.6zm.4-15.2.9-.9c1 .8 2 1.6 2.8 2.4l-1 1c-.9-.9-1.8-1.7-2.7-2.5zm12.5-1.2h1.2v1.4h2.7v1.1h-2.7v2.7h-1.2v-.6h-1.8v1.3h4.9v3.8h-1.2v-.5h-3.7c0 .4-.1.9-.1 1.2h5.1v1h-5.2c0 .5-.1.9-.2 1.2h6v1h-5.2c1.1 1.3 2.9 2 5.5 2.2-.4.4-.7.8-.9 1.3-2.9-.5-4.8-1.6-5.7-3.5h-.1c-.8 1.7-2.7 2.9-5.9 3.6-.2-.4-.6-.8-.9-1.1 2.8-.6 4.6-1.4 5.4-2.5h-4.8v-1h5.3c.1-.3.2-.7.2-1.2h-4.9v-1h5c0-.4 0-.8.1-1.2h-3.5v.5h-1.2v-3.8h4.9v-1.3h-1.8v.5h-1.2v-2.7h-2.7v-1h2.6v-1.4h1.2v1.4h4.7v-1.4zm-6.6 8.3h3.6c0-.4 0-.9 0-1.4h-3.6zm1.9-4.6h4.7v-1.3h-4.7zm6.6 3.2h-3.7v1.4h3.7z"/><path d="m385.3 3.8h1.3v2.2h2.8v-2.2h1.3v2.2h4.1v9.1h1.7v1.3h-16.9v-1.3h1.7v-9.1h4.1v-2.2zm.4 13.1.7 1.2c-1.8.9-3.8 1.9-6 2.9-.2-.4-.5-.8-.8-1.3 2.3-1 4.3-1.9 6.1-2.8zm-3.1-6.4h2.8v-3.2h-2.8zm0 4.6h2.8v-3.3h-2.8zm4-4.6h2.8v-3.2h-2.8zm0 4.6h2.8v-3.3h-2.8zm3.7 1.9c2.1.9 4.1 1.8 6.1 2.7l-.7 1.3c-2.2-1.1-4.2-2-6.1-2.9zm3.2-9.7h-2.8v3.2h2.8zm-2.8 7.8h2.8v-3.3h-2.8z"/></g></svg>