<svg enable-background="new 0 0 400 400" viewBox="0 0 400 400" xmlns="http://www.w3.org/2000/svg"><g fill="#fcfafa"><path d="m342.2 3.2-6.3 9.2h6.1v1.2h-8.2v-.5l6.2-9.1h-5.7v-1.2h7.8v.4z"/><path d="m344 13.7v-10.9h3.1c1.6 0 3 .5 4.1 1.4 1.1 1 1.6 2.2 1.6 3.9s-.5 3-1.6 4-2.5 1.5-4.2 1.5h-3zm1.4-9.6v8.4h1.6c1.4 0 2.5-.4 3.2-1.1.8-.8 1.2-1.8 1.2-3.2s-.4-2.4-1.2-3.1-1.8-1-3.1-1z"/><path d="m356.3 2.8v10.9h-1.4v-10.9z"/><path d="m366.6 13.2c-.8.4-1.8.6-3 .6-1.6 0-2.8-.5-3.7-1.5s-1.4-2.3-1.4-3.9c0-1.7.5-3.2 1.6-4.2s2.4-1.6 4-1.6c1 0 1.9.1 2.6.4v1.5c-.8-.4-1.6-.6-2.6-.6-1.2 0-2.2.4-3 1.2s-1.1 1.9-1.1 3.3c0 1.3.4 2.3 1.1 3.1s1.6 1.1 2.8 1.1c1.1 0 2-.2 2.8-.7v1.3z"/><path d="m368.2 13c0-.3.1-.5.3-.6.2-.2.4-.3.6-.3.3 0 .5.1.7.3s.3.4.3.6-.1.5-.3.6c-.2.2-.4.3-.7.3s-.5-.1-.6-.3c-.2-.2-.3-.4-.3-.6z"/><path d="m381.1 13.7h-1.7l-5.5-8.4c-.2-.2-.3-.5-.4-.7 0 .2.1.8.1 1.5v7.6h-1.4v-10.9h1.8l5.3 8.3c.3.4.4.6.4.8 0-.3-.1-.8-.1-1.6v-7.5h1.4v10.9z"/><path d="m389.7 13.7h-5.8v-10.9h5.6v1.2h-4.2v3.5h3.9v1.2h-3.9v3.7h4.4z"/><path d="m398.4 4.1h-3.1v9.6h-1.4v-9.6h-3.1v-1.3h7.7v1.3z"/></g><path d="m41.66 234.12c9.74-3.06 19.32-6.05 28.88-9.07 16.73-5.28 33.38-10.83 50.23-15.73 5.59-1.62 11.65-1.77 17.52-2.25 9.14-.76 18.3-1.35 27.46-1.75 2.82-.12 3.93-1.45 4.58-3.83 1.72-6.34.9-12.67-.1-18.98-1.22-7.73-2.5-15.46-3.92-23.16-.21-1.14-1.07-2.47-2.03-3.12-5.2-3.57-10.91-3.77-16.68-1.74-10.21 3.59-20.27 7.6-30.54 10.98-17.19 5.66-34.49 11-51.79 16.32-1.63.5-3.91.53-5.36-.23-7.88-4.16-15.79-8.33-23.28-13.13-4.63-2.97-7.71-7.65-9.6-13.54 2.3.19 4.28.12 6.14.56 4.11.98 7.91-.04 11.84-1.07 22.64-5.93 44.34-14.61 66.37-22.35 1.84-.65 3.93-.97 5.87-.86 12.17.67 24.34 1.5 36.51 2.28 1.2.08 2.41.12 4.1.2-.38-1.46-.62-2.61-.98-3.72-3.19-10.01-6.33-20.03-9.65-29.99-.69-2.05-1.84-4.07-3.19-5.76-3.85-4.8-7.97-9.38-11.87-14.15-1.13-1.39-2.12-1.88-3.94-1.33-13.16 3.97-26.36 7.8-39.52 11.77-1.31.4-2.69 1.23-3.59 2.26-7.81 8.93-17.59 12.75-29.35 11.61-1.17-.11-2.41-.37-3.46-.88-5.4-2.65-10.61-5.73-16.14-8.05-6.87-2.89-11.87-7.24-14.23-14.68 4.83-.53 9.49-.91 14.11-1.58 12.06-1.74 23.24-6.36 34.47-10.78 5.1-2 10.27-3.84 15.23-6.16 5.11-2.39 10.3-3.18 15.91-2.9 12.17.6 24.37.79 36.55 1.32 1.77.08 3.7.76 5.21 1.71 4.64 2.91 8.94 6.39 13.68 9.11 9.58 5.49 15.45 14.1 20.35 23.49 7.98 15.3 12.59 31.76 15.57 48.67 3.68 20.92 7.11 41.89 10.58 62.85.93 5.61 1.62 11.26 2.46 17.15 8.98-.42 17.77-.69 26.55-1.26 30.84-1.99 60.42-9.5 89.19-20.51.94-.36 1.81-.92 2.77-1.19 6.58-1.88 9.33-6.85 11.17-12.96 3.57-11.86 2.57-23.69.35-35.54-2.04-10.88-3.59-21.92-6.69-32.5-2.71-9.26-6.01-18.83-11.35-26.71-5.36-7.9-14.7-11.7-24.64-9.63-10.92 2.27-22.21 4.34-32.24 8.89-11.88 5.39-23.66 4.46-35.78 4.02-5.02-.18-10.06.25-15.09.21-1.22-.01-2.51-.6-3.63-1.18-3.87-1.97-7.54-4.4-11.54-6-6.76-2.71-9.96-6.12-11.6-13.95 3.91-1.05 7.85-2.15 11.8-3.17 23.8-6.18 47.6-12.36 71.41-18.48 1.69-.44 3.51-.57 5.27-.53 11.52.21 23.04.46 34.56.8 1.63.05 3.32.4 4.84 1 16.49 6.47 27.71 18.17 34.91 34.3 6.87 15.39 10.99 31.65 16.11 47.59 2.8 8.72 5.57 17.47 8.03 26.29 3.08 11.06 2.4 22.41 1.76 33.69-1.35 24.14-7.64 47.42-12.74 70.9-2.7 12.45-5.55 24.87-8.49 37.27-.55 2.32-1.64 4.6-2.86 6.67-4.94 8.38-10.15 16.59-15.01 25.02-4 6.95-9.22 11.76-17.69 11.89-.56.01-1.12.04-1.67-.02-8.07-.79-7.76-.87-10.01-8.96-1.19-4.3-.64-7.21 3.16-9.55 5.15-3.18 7.07-7.76 6.33-13.84-.28-2.25.44-4.97 1.57-6.99 6.17-11.03 9.2-22.8 10.32-35.36 1.13-12.69 3.29-25.28 4.97-37.92.16-1.2.19-2.42.3-3.77-3.08-.64-5.55-.33-8.19 1.63-7.66 5.67-16.57 8.72-25.66 11.21-14.49 3.97-29.14 7.16-44.25 6.99-3.68-.04-7.56-.91-10.97-2.31-10.74-4.43-21.31-9.29-31.94-13.98-1-.44-2.02-.84-3.34-1.38-2.33 5.77-4.86 11.25-6.77 16.93-7.37 21.91-19.08 41.59-30.9 61.23-.51.84-1.15 1.68-1.91 2.29-12.04 9.64-25.03 17.7-39.53 23.04-9.47 3.49-19.29 4.63-29.43 2.66-.94-3.54-.05-5.81 3.18-8.05 25.24-17.46 45.5-39.4 57.89-67.75 4.09-9.35 6.4-19.48 9.57-29.24.67-2.06-.45-2.76-2.07-3.41-6.79-2.73-13.62-1.33-20.5-.44-9.51 1.23-17.1 6.92-25.56 10.59-3.65 1.58-6.83 3.65-9.12 7.05-4.56 6.77-11.68 8.83-19.08 8.38-7.5-.46-15.05-1.97-22.31-3.98-7.72-2.13-15.11-5.46-22.69-8.12-2.87-1.01-4.45-2.61-4.43-5.8.01-1.79-.45-3.54-.73-5.55z" fill="#010103"/><path d="m208.92 139.1c4.75.23 9.37-.53 14.18 2.01 9 4.73 18.94 4.41 28.56 2.33 15.83-3.42 31.49-7.63 47.3-11.2 5.73-1.29 11.66-2.28 17.51-2.34 7.65-.07 9.67 3.09 8.91 10.66-.52 5.16-2.39 8.57-7.31 11.16-9.89 5.19-19.27 11.34-29 16.84-2.53 1.43-5.54 2.34-8.43 2.75-8.71 1.24-17.7 1.31-24.99 7.38-.64.53-1.95.62-2.85.43-4.61-.97-8.96-2.37-12.72-5.56-6.06-5.13-12.46-9.86-18.66-14.83-5.68-4.55-10.48-9.78-12.36-17.09-.14-.54-.25-1.09-.33-1.64-.04-.18.08-.4.19-.9z" fill="#010103"/></svg>