<svg enable-background="new 0 0 400 400" viewBox="0 0 400 400" xmlns="http://www.w3.org/2000/svg"><g fill="#fcfafa"><path d="m342.2 3.2-6.3 9.2h6.1v1.2h-8.2v-.5l6.2-9.1h-5.7v-1.2h7.8v.4z"/><path d="m344 13.7v-10.9h3.1c1.6 0 3 .5 4.1 1.4 1.1 1 1.6 2.2 1.6 3.9s-.5 3-1.6 4-2.5 1.5-4.2 1.5h-3zm1.4-9.6v8.4h1.6c1.4 0 2.5-.4 3.2-1.1.8-.8 1.2-1.8 1.2-3.2s-.4-2.4-1.2-3.1-1.8-1-3.1-1z"/><path d="m356.3 2.8v10.9h-1.4v-10.9z"/><path d="m366.6 13.2c-.8.4-1.8.6-3 .6-1.6 0-2.8-.5-3.7-1.5s-1.4-2.3-1.4-3.9c0-1.7.5-3.2 1.6-4.2s2.4-1.6 4-1.6c1 0 1.9.1 2.6.4v1.5c-.8-.4-1.6-.6-2.6-.6-1.2 0-2.2.4-3 1.2s-1.1 1.9-1.1 3.3c0 1.3.4 2.3 1.1 3.1s1.6 1.1 2.8 1.1c1.1 0 2-.2 2.8-.7v1.3z"/><path d="m368.2 13c0-.3.1-.5.3-.6.2-.2.4-.3.6-.3.3 0 .5.1.7.3s.3.4.3.6-.1.5-.3.6c-.2.2-.4.3-.7.3s-.5-.1-.6-.3c-.2-.2-.3-.4-.3-.6z"/><path d="m381.1 13.7h-1.7l-5.5-8.4c-.2-.2-.3-.5-.4-.7 0 .2.1.8.1 1.5v7.6h-1.4v-10.9h1.8l5.3 8.3c.3.4.4.6.4.8 0-.3-.1-.8-.1-1.6v-7.5h1.4v10.9z"/><path d="m389.7 13.7h-5.8v-10.9h5.6v1.2h-4.2v3.5h3.9v1.2h-3.9v3.7h4.4z"/><path d="m398.4 4.1h-3.1v9.6h-1.4v-9.6h-3.1v-1.3h7.7v1.3z"/></g><path d="m96.44 181.51c6.79.26 12.68.86 18.55.65 17.02-.6 32.9-5.89 48.45-12.4 21.43-8.97 42.88-17.91 64.37-26.75 12.65-5.2 25.89-7.47 39.56-7.81 8.49-.21 16.97-1.08 25.46-1.47 2.75-.13 4.49-1.21 5.93-3.52 4.05-6.49 4.99-13.64 4.36-20.99-.91-10.59-2.22-21.14-3.43-31.7-.13-1.15-.42-2.61-1.19-3.32-7.6-7.08-15.89-13.13-26.24-15.55-6.12-1.43-12.2-1.02-18.2.89-15.19 4.82-29.53 11.58-43.47 19.23-1.43.79-2.63 2.05-3.83 3.2-16.04 15.39-33.23 29.31-52.44 40.58-7.36 4.32-15.18 7.66-23.78 8.66-1.34.16-2.91-.06-4.11-.65-9.35-4.55-18.63-9.24-27.93-13.89-.5-.25-1.07-.43-1.47-.8-9.76-9.04-19.67-17.92-29.13-27.26-2.5-2.47-3.63-6.33-5.31-9.6-.96-1.87-.33-2.99 1.72-3.76 6.84-2.55 13.49-1.93 20.34.23 7 2.2 14.16 3.93 21.34 5.44 1.95.41 4.44-.27 6.32-1.2 20.66-10.17 41.13-20.73 61.88-30.69 23.79-11.42 49.06-17.92 75.16-21.37 5.32-.7 10.66-1.33 16-1.81 1.61-.15 3.37.05 4.91.55 10.95 3.56 21.88 7.18 32.77 10.93 1.72.59 3.4 1.69 4.72 2.95 18.89 18.19 26.51 40.84 26.42 66.61-.07 19.6-2.72 38.74-8.38 57.55-1.68 5.58-1.62 11.7-2.16 17.59-1.18 12.93-1.91 25.9-3.52 38.77-.59 4.72-3.24 9.16-4.77 13.79-.68 2.06-1.24 4.28-1.24 6.43 0 4.36.11 8.76.73 13.06.78 5.38-.67 10.01-3.07 14.71-3.76 7.36-7.06 14.96-10.71 22.38-1.07 2.17-2.46 4.25-4.04 6.09-10.57 12.3-17.53 26.65-23.94 41.35-2.99 6.85-5.86 13.82-9.56 20.29-4.48 7.84-10.71 14.1-20.01 16.21-1.83.41-3.76.56-5.64.59-5.35.08-5.94-.58-6.5-6.03-.43-4.18.57-7.99 2.62-11.57.44-.78.91-1.55 1.44-2.27 7.39-9.91 11.8-20.95 12.8-33.33.26-3.22.79-6.45 1.58-9.59.61-2.43 1.59-4.83 2.79-7.03 1.5-2.74 3.45-5.23 5.12-7.87 3.02-4.78.22-10.54-5.48-11.1-16.25-1.6-32.49-3.48-48.78-4.45-5.52-.33-11.22 1.57-16.78 2.74-24.39 5.15-48.71 10.64-73.16 15.46-5.69 1.12-11.81.18-17.72.01-8.05-.23-16.09-.73-24.14-.91-2.46-.06-3.86-.58-4.41-3.26-.72-3.49-1.88-6.9-2.99-10.3-.55-1.7-.11-2.66 1.11-4.03 5.14-5.74 11.68-7.74 19.06-8.22 17.32-1.11 32.64-8.88 48.51-14.8 8.38-3.12 16.5-7.06 25.05-9.55 10.04-2.93 20.42-4.73 30.66-6.95 3.49-.76 7.06-1.2 10.53-2.04 10.1-2.44 20.29-.61 30.42-.59 13.53.03 27.05.77 40.58 1.03 1.47.03 3.46-.73 4.35-1.82 2.37-2.93 4.83-6 6.26-9.43 6.57-15.71 10.2-32.14 10.77-49.18.16-4.73-.01-4.67-4.62-5.32-7.82-1.11-15.23.47-22.09 4.02-24.58 12.71-50.43 22.39-76.09 32.58-14.92 5.93-29.6 5.62-44.15.05-11.66-4.47-22.99-9.88-34.27-15.26-3.44-1.64-6.59-4.29-9.24-7.08-2-2.12-3.03-5.19-4.65-8.1z" fill="#010103"/></svg>