<svg enable-background="new 0 0 400 400" viewBox="0 0 400 400" xmlns="http://www.w3.org/2000/svg"><path d="m123.74 25.44c6.22 2.59 7.79 5.43 6.7 11.44-.12.66-.14 1.36-.38 1.97-3.53 8.67.5 17.42-.23 26.13-.08.98.89 2.24 1.68 3.09 5.79 6.17 13.12 9.38 21.41 9.89 13.52.83 26.82-.75 39.61-5.4 1.98-.72 3.92-2.1 5.37-3.64 6.95-7.42 15.57-10.23 25.46-9.52 4.74.34 6.45 4.08 4 8.17-3.5 5.85-6.94 11.75-10.58 17.52-1.45 2.3-2.23 4.51-1.41 7.19 1.47 4.85.91 9.72.04 14.58-3.01 16.67.6 32.47 6.42 47.94 1.68 4.47 2.63 8.93 2.42 13.72-.06 1.45.75 3.18 1.69 4.38 1.99 2.55 4.22 4.94 6.53 7.21 3.57 3.51 7.22 3.37 10.87.02 9.31-8.57 18.72-17.02 29.72-23.45 1.82-1.07 3.77-1.92 5.61-2.85 2.87 3.15 3.67 6.28 1.17 9.44-4.69 5.93-9.42 12.04-15.14 16.88-6.79 5.75-14.65 10.23-22.02 15.28-.73.5-1.34 1.19-2.03 1.76-3.89 3.22-5.77 7.02-3.49 12.02 1.94 4.26-.24 7.98-1.37 11.9-.44 1.53-.14 3.35.1 5 .91 6.41 2.05 12.78 2.87 19.2.35 2.74.17 5.56.17 8.34-.01 12.19-.08 24.37-.08 36.56.01 10.74-1.64 21.17-5.64 31.16-.68 1.69-1.8 3.33-3.09 4.63-20.97 21.07-46.78 33.73-74.64 42.79-5.95 1.93-11.84 4.03-17.81 5.9-4.73 1.48-9.47 1.38-14.14-.45-3.45-1.35-6.3-3.09-5.53-7.88 4.56-2.7 9.96-3.91 15.46-4.86 3.62-.63 7.31-1.19 10.78-2.35 6.95-2.32 11.94-6.77 14-14.13 3.46-12.32 5.72-24.75 5.64-37.66-.05-7.8 1.32-15.59 1.85-23.4.15-2.15.13-4.61-.76-6.48-3.22-6.75-1.75-13.62-1.01-20.45.34-3.22-.29-6-1.21-9.07-1.55-5.18-2.21-10.63-3.05-16-.49-3.09-.36-6.28-.99-9.33-.31-1.49-1.48-3.03-2.68-4.04-1.42-1.19-3.23-2.04-5.01-2.67-12.08-4.33-18.54-14.12-24.35-24.65-7.44-13.47-10.24-28.1-10.65-43.23-.7-25.83-.87-51.68-1.71-77.51-.44-13.51.72-26.58 6.43-38.98.92-2 1.95-3.97 3-6.11zm6.73 63.29c-.81 13.34-1.69 26.28-2.33 39.23-.14 2.91 3.38 5.9 6.37 5.92 4.8.03 9.66.38 14.4-.21 4.47-.56 8.84-2.06 13.2-3.35 1.78-.53 2.34-1.92 2.02-3.96-1.57-10.17-2.97-20.36-4.41-30.54-.73-5.17-1.71-6.64-7.07-6.97-7.21-.45-14.47-.12-22.18-.12zm52.18 93.61c1.91 5.14 3.59 10.1 5.59 14.92 1.2 2.91 2.29 7.15 4.52 8.02 2.77 1.08 6.66-.69 10.07-1.23.11-.02.21-.08.31-.14 7.12-3.92 14.2-7.9 21.36-11.74 2.53-1.36 3-3.28 1.71-5.49-2.95-5.07-5.64-10.41-9.35-14.88-4.06-4.89-4.81-4.57-10.53-1.64-7.84 4.02-15.66 8.06-23.68 12.18zm21.02-98.27c-5.55.62-11.22.94-16.74 2.02-2.71.53-5.3 2.24-7.65 3.85-1.07.74-1.95 2.48-2.03 3.83-.67 10.37-1.14 20.75-1.64 31.13-.06 1.16.09 2.32.16 3.86 9.12-2.63 17.8-5.08 26.42-7.71.68-.21 1.41-1.64 1.42-2.51.09-11.16.06-22.32.06-34.47zm-36.38 76.51c-.02 0-.03 0-.05 0-.31-4.68-.56-9.37-.96-14.05-.07-.86-.63-2.32-1.14-2.4-3.72-.61-7.56-1.61-11.21-1.2-6.07.69-12.02 2.47-18.06 3.51-2.25.39-2.88 1.47-3.2 3.49-.9 5.69.29 11.07 1.86 16.48 1.26 4.3 3.14 7.15 8.3 7.5 7.27.49 14.43 1.53 21.44-1.55 2.54-1.12 4.06-2.37 3.46-5.44-.41-2.06-.31-4.22-.44-6.34zm29.26 163.8c0-1.61.3-3.89-.07-6.07-.56-3.34-1.28-6.73-2.51-9.87-.86-2.2-2.77-3.02-5.05-1.04-1.51 1.3-3.2 2.52-5.01 3.33-7.02 3.16-10.44 8.61-10.66 16.17-.18 5.98-.38 11.96-.33 17.94.02 2.22 1.57 3.16 3.71 2.19 4.65-2.1 9.3-4.21 13.86-6.51 3.82-1.93 6.35-4.7 5.68-9.51-.27-1.94.21-3.99.38-6.63zm-14.51-158.49c10.44 1.76 18.75-2.49 26.56-8.22.62-.45.94-1.46 1.16-2.28 1.9-7.15-.87-13.1-5.07-18.56-.68-.89-2.36-1.84-3.26-1.59-5.79 1.57-11.54 3.34-17.18 5.35-1.17.42-2.35 2.03-2.68 3.31-1.93 7.28-1.76 14.56.47 21.99zm11.04 55.14c-11.7-.34-10.51-2.04-15.48 7.45-4.41 8.42-6.04 17.51-2.93 26.89.33.99 1.39 2.41 2.17 2.45 6.23.32 12.32-.37 17.55-4.2.73-.54 1.39-1.82 1.32-2.7-.78-9.9-1.71-19.78-2.63-29.89zm30.92 29.04c-.61-8.1-.98-16.01-1.89-23.86-.35-3.01-1.7-5.97-2.95-8.8-1-2.25-2.69-3.31-5.39-1.92-2.36 1.21-5.06 1.78-7.47 2.92-.87.42-1.94 1.7-1.91 2.55.32 7.58.74 15.17 1.4 22.73.21 2.39 1.15 4.75 2 7.04.28.75 1.43 1.77 2.05 1.69 4.52-.6 9-1.46 14.16-2.35zm-26.83 29.82c-.69-2.67-1.43-6.23-2.59-9.65-.53-1.55-1.78-2.77-3.95-1.82-5 2.19-10.1 4.17-15.1 6.37-.71.31-1.58 1.41-1.54 2.09.41 6.24.96 12.47 1.6 18.68.07.67.9 1.76 1.46 1.81 4.18.41 8.4.99 12.57.75 3.03-.18 5.24-2.18 5.66-5.62.48-3.85 1.15-7.69 1.89-12.61zm-24.62-83.44c.15-3.08-.14-7.47-3.71-10.69-.87-.79-2.56-1.28-3.71-1.05-5.25 1.04-10.45 2.39-15.66 3.63-4.43 1.06-5.28 2.74-2.61 6.63 1.93 2.82 4.79 4.99 6.9 7.71 2.26 2.92 4.52 4.69 8.32 2.68.9-.47 2.19-.23 3.31-.26 6.99-.15 7.3-.45 7.16-8.65zm38.16 96.34c5.25-4.23 10.28-8.27 15.27-12.36.47-.38.99-1.13.93-1.64-.42-4.06-.61-8.2-1.6-12.14-.75-3-3.29-4.04-6.37-2.8-3.68 1.48-9.24-.47-11.05 3.6-1.61 3.62-1.03 8.34-.94 12.56.1 4.32.59 8.7 3.76 12.78zm2.4 33.34c3.68-2.02 6.29-4.75 7.58-8.67 1.22-3.7 2.7-7.33 3.68-11.08.58-2.2.8-4.65.5-6.89-.37-2.75-2.3-4.36-5.26-3.83-3.37.6-6.69 1.44-10.26 2.22.51 9.62-2.91 19.44 3.76 28.25z" fill="#010106"/><g fill="#fcfbfa"><path d="m385.2 377.6.6-.7c.6.4 1.3.9 1.9 1.5l-.6.7c-.8-.5-1.4-1-1.9-1.5zm.3 7.1c.6-1.4 1.1-2.9 1.5-4.5.3.1.6.3.9.4-.5 1.4-1 2.9-1.5 4.4zm.2-10.1.6-.6c.7.5 1.3 1.1 1.9 1.6l-.7.7c-.6-.6-1.2-1.2-1.8-1.7zm8.4-.8h.8v.9h1.8v.7h-1.8v1.8h-.8v-.3h-1.2v.9h3.3v2.6h-.8v-.4h-2.5c0 .3 0 .6-.1.8h3.4v.7h-3.5c0 .3-.1.6-.1.8h4v.7h-3.5c.7.9 1.9 1.3 3.6 1.5-.2.2-.4.5-.6.9-1.9-.3-3.2-1.1-3.8-2.3-.5 1.1-1.8 2-3.9 2.4-.2-.3-.4-.5-.6-.8 1.9-.4 3.1-.9 3.6-1.7h-3.2v-.7h3.5c.1-.2.1-.5.2-.8h-3.3v-.7h3.4c0-.2 0-.5 0-.8h-2.4v.3h-.8v-2.6h3.3v-.9h-1.2v.3h-.8v-1.8h-1.8v-.7h1.8v-.9h.8v.9h3.2zm-4.4 5.5h2.4c0-.3 0-.6 0-.9h-2.4zm1.2-3.1h3.2v-.8h-3.2zm4.4 2.2h-2.4v.9h2.5v-.9z"/><path d="m389.2 385.8h.9v1.5h1.9v-1.5h.9v1.5h2.7v6h1.1v.9h-11.3v-.9h1.1v-6h2.7zm.2 8.7.5.8c-1.2.6-2.5 1.3-4 1.9-.2-.3-.3-.6-.6-.8 1.6-.6 3-1.3 4.1-1.9zm-2-4.3h1.9v-2.1h-1.9zm0 3.1h1.9v-2.2h-1.9zm2.7-3.1h1.9v-2.1h-1.9zm0 3.1h1.9v-2.2h-1.9zm2.4 1.3c1.4.6 2.7 1.2 4.1 1.8l-.5.9c-1.5-.7-2.8-1.4-4.1-1.9zm2.2-6.5h-1.9v2.1h1.9zm-1.9 5.2h1.9v-2.2h-1.9z"/></g></svg>