<svg enable-background="new 0 0 400 400" viewBox="0 0 400 400" xmlns="http://www.w3.org/2000/svg"><g fill="#fbfafa"><path d="m37.59 393.81c-.92.31-1.52.05-2-.78-.7-1.2-1.52-2.34-2.47-3.78v4.59c-.55.03-.95.05-1.41.07-.03-.37-.06-.64-.06-.91 0-1.91 0-3.81 0-5.7 1.13-.41 1.77-.03 2.29.91.62 1.11 1.38 2.14 2.31 3.19v-4.2h1.35v6.61z"/><path d="m12.94 393.88v-6.75c1.9.19 3.93-.54 5.37 1.29.8 1.01.78 2.88.03 3.97-1.37 1.97-3.4 1.51-5.4 1.49m1.45-1.22c2.04.12 2.92-.58 2.89-2.21-.03-1.51-.98-2.19-2.89-2z"/><path d="m11.81 393.87h-5.49c.68-2.18 2.47-3.48 3.51-5.45h-3.08v-1.21h5.29c-.71 2.13-2.44 3.48-3.47 5.51.86 0 1.63.04 2.39-.01.79-.05 1.14.21.85 1.16"/><path d="m39.33 393.86v-6.61h3.7v1.07h-2.22v1.52c.68.04 1.34.09 2.07.13v1.07c-.72.05-1.38.09-2.1.14v1.48h2.4v1.19h-3.85z"/><path d="m27.71 388.56c-1.15-.3-2.46-.61-3.1.64-.37.73-.41 1.93-.06 2.67.63 1.35 1.99.93 3.17.68.35.94-.01 1.32-.93 1.46-1.62.25-3.05-.27-3.76-1.48-.73-1.24-.6-3.03.31-4.17.88-1.11 2.71-1.7 4-1.16.32.13.44.74.65 1.12-.1.08-.19.16-.28.24"/><path d="m49.15 387.24v1.07c-.59.02-1.17.05-1.87.08v5.44h-1.48v-5.44h-1.85c-.05-.4-.08-.73-.13-1.15z"/><path d="m20.06 387.21h1.33v6.62h-1.33z"/><path d="m30.68 393.25c-.49.38-.8.79-1.05.76-.32-.05-.6-.45-.9-.7.26-.24.51-.64.8-.67.29-.04.62.3 1.15.61"/></g><path d="m138.88 25.02c3.19.82 4.79 3.05 5.78 5.75 1.04 2.83 1.68 5.81 2.82 8.59 1 2.43 2.66 4.58 3.64 7.02 1.05 2.62 1.59 5.45 2.46 8.15.94 2.93 1.59 6.06 3.1 8.67 6.08 10.56 12.43 20.96 18.72 31.4.36.6 1 1.14 1.64 1.46 2.26 1.12 4.57 2.13 7.55 3.5 3.3-2.05 7.35.08 10.98 1.79 6.76 3.19 13.21 7.06 19.75 10.71 1.05.59 2 1.42 2.85 2.29 7.61 7.74 15.25 15.46 22.72 23.34 1.54 1.62 2.8 3.76 3.5 5.88 3.95 11.87 7.72 23.8 11.45 35.75.59 1.88.95 3.92.96 5.89.08 14.22.2 28.44-.02 42.65-.11 6.9.91 13.52 2.47 20.21 1.18 5.05 1.41 10.33 1.89 15.53.21 2.22-.17 4.48-.04 6.71 1.09 19.52-3.09 37.99-11.07 55.71-.41.92-.79 1.85-1.13 2.8-3.09 8.57-7.09 16.52-13.84 22.98-3.53 3.38-6.24 7.61-9.48 11.31-2.36 2.68-4.89 5.23-7.52 7.64-3.72 3.41-7.55 4.18-12.77 2.3-8.09-2.92-15.3-6.6-20.52-13.59-.4-.53-.91-.99-1.41-1.44-7.63-6.78-13.42-14.88-17.67-24.16-.91-1.98-2.69-3.53-3.79-5.44-1.35-2.34-3.21-4.79-3.41-7.3-.35-4.51-.13-9.21.75-13.65 1.73-8.72 2.67-17.48 2.34-26.33-.43-11.42.97-22.55 4.82-33.3 1.79-5.02 2.05-10.04.82-15.12-1.27-5.25.34-10.17 1.22-15.2.26-1.47.16-3.07-.15-4.54-.43-2.07-1.07-4.12-1.86-6.09-5.02-12.59-5.3-25.97-6.75-39.17-.96-8.77-2.26-17.51-3.64-26.23-1.19-7.57-1.39-14.91 2.91-21.71.47-.75.66-1.69 1.17-2.41 4.23-6 4.1-12.5 2.12-19.15-.32-1.08-1.25-1.99-1.93-2.96-1.53-2.17-3.74-4.12-4.5-6.53-2.41-7.62-6.58-14.16-11.45-20.32-3.04-3.84-5.08-8.07-6.39-12.77-1.17-4.19-2.21-8.53-4.17-12.37-3.03-5.94-.23-10.48 2.53-15.2.67-1.13 1.7-2.05 2.55-3.05zm87.85 222.95c.04.24.09.47.13.71 4.67-.88 9.36-1.67 14.01-2.67 1.9-.41 2.78-1.73 3.04-3.84 1.15-9.2 2.4-18.38 3.88-27.53.5-3.1.53-5.97-1.01-8.72-2.47-4.41-2.61-9.13-2.05-13.99.19-1.66.24-3.35.18-5.02-.21-5.45-3.8-9.35-9.16-10.11-2.65-.38-5.29-.87-7.94-1.24-3.64-.5-6.72 2.09-6.91 5.75-.52 9.71-.82 19.43-1.62 29.12-.71 8.66-2 17.27-2.97 25.9-.2 1.77-.36 3.58-.17 5.34.52 5.08 1.85 6.21 6.92 6.29 1.21.02 2.44.01 3.67.01zm-39.51-.4c5.97.15 14.18-6.5 14.89-11.36 1.98-13.7 3.89-27.42 5.78-41.14.13-.94.2-2.34-.33-2.83-3.91-3.61-4.25-8.68-5.85-13.26-.39-1.13-1.92-2.39-3.11-2.64-5.57-1.15-11.21-1.98-16.83-2.88-4.45-.71-7.89 2.8-6.26 7.11 2.59 6.86 3.2 13.94 3.28 21.06.15 12.69 4.07 25.47-1.2 38.09-1.51 3.61.02 5.56 3.79 6.6 2.24.63 4.57.99 5.84 1.25zm42.72 8.51c0 .03 0 .07-.01.1-3.24-.21-6.47-.41-9.71-.63-2.84-.19-7.62 2.45-8.18 5.15-1.97 9.46-2.23 18.88 2.34 27.81.48.94 1.34 2.18 2.2 2.34 6.78 1.25 13.58 2.96 20.41 3.15 6.31.17 8.27-2.31 9.65-8.52.36-1.63.68-3.3.79-4.96.44-6.71.78-13.43-2.05-19.8-1.16-2.63-2.72-4.34-6.06-4.11-3.11.19-6.26-.33-9.38-.53zm-24.46 102.26c-.11-.98-.11-1.99-.36-2.93-3.33-12.2-3.72-24.7-3.85-37.24-.03-2.55-.22-5.16-.82-7.63-.88-3.6-3.31-5.1-6.98-4.87-7.26.47-11.91 5.12-16.22 10.24-.41.49-.34 1.47-.31 2.22.33 7.19 2.11 14.07 6.45 19.78 5.06 6.65 10.84 12.76 16.25 19.14 1.52 1.82 3.15 2.81 5.84 1.29zm-11.2-239.37c-.5 1.17-.7 1.95-1.12 2.6-2.06 3.18-1.41 5.59 1.57 7.93 4.83 3.8 8.17 8.76 10.35 14.53.94 2.5 2.56 4.76 3.37 7.29 1.87 5.79 5.71 9.47 11.02 12.23 5.44 2.83 11.37 2.58 15.8-1.59.71-.67 1.23-2.11 1.05-3.04-1.56-7.75-5.18-14.42-10.77-20.07-8.86-8.94-20.49-13.39-31.27-19.88zm-23.82 148.81c4.34 3.75 4.96 8.75 3.74 14.42-.48 2.21-.16 4.64.07 6.95.36 3.72 1.86 6.58 6.05 7.27 4.77.78 10.05 1.49 13.07-2.77 5.21-7.35 8.38-15.75 8.78-24.96.13-3-.87-5.71-3.45-7.23-7.34-4.32-14.67-6.08-21.44 1.32-1.8 1.97-4.36 3.23-6.82 5zm43.74 46.6c1.39 8.36 2.61 16.74 4.23 25.05.82 4.19 2.67 4.76 6.33 2.44 1.09-.69 1.99-1.78 2.76-2.84 1.45-1.98 2.85-4.01 4.08-6.13 3.68-6.37 7.46-12.7 10.84-19.23 2.43-4.7.84-7.88-4.22-9.53-3.24-1.05-6.44-1.47-9.78 0-2.74 1.21-5.69 1.97-8.55 2.92-5.18 1.73-5.18 1.73-5.69 7.32zm-41.99-187.63c-4.94 8.34-5.98 17.11-5.27 26.13.25 3.16 1.35 6.27 2.23 9.36.48 1.68 1.61 2.26 3.58 2 5.31-.72 10.65-1.14 15.99-1.6 5.95-.51 6.88-1.51 5.83-7.43-.3-1.66-1.34-3.24-2.28-4.71-2.41-3.79-6.38-6.69-6.5-11.77-.01-.37-.38-.8-.7-1.07-4.23-3.61-8.48-7.19-12.88-10.91z" fill="#010000"/></svg>