<svg enable-background="new 0 0 400 400" viewBox="0 0 400 400" xmlns="http://www.w3.org/2000/svg"><g fill="#fcfafa"><path d="m342.2 3.2-6.3 9.2h6.1v1.2h-8.2v-.5l6.2-9.1h-5.7v-1.2h7.8v.4z"/><path d="m344 13.7v-10.9h3.1c1.6 0 3 .5 4.1 1.4 1.1 1 1.6 2.2 1.6 3.9s-.5 3-1.6 4-2.5 1.5-4.2 1.5h-3zm1.4-9.6v8.4h1.6c1.4 0 2.5-.4 3.2-1.1.8-.8 1.2-1.8 1.2-3.2s-.4-2.4-1.2-3.1-1.8-1-3.1-1z"/><path d="m356.3 2.8v10.9h-1.4v-10.9z"/><path d="m366.6 13.2c-.8.4-1.8.6-3 .6-1.6 0-2.8-.5-3.7-1.5s-1.4-2.3-1.4-3.9c0-1.7.5-3.2 1.6-4.2s2.4-1.6 4-1.6c1 0 1.9.1 2.6.4v1.5c-.8-.4-1.6-.6-2.6-.6-1.2 0-2.2.4-3 1.2s-1.1 1.9-1.1 3.3c0 1.3.4 2.3 1.1 3.1s1.6 1.1 2.8 1.1c1.1 0 2-.2 2.8-.7v1.3z"/><path d="m368.2 13c0-.3.1-.5.3-.6.2-.2.4-.3.6-.3.3 0 .5.1.7.3s.3.4.3.6-.1.5-.3.6c-.2.2-.4.3-.7.3s-.5-.1-.6-.3c-.2-.2-.3-.4-.3-.6z"/><path d="m381.1 13.7h-1.7l-5.5-8.4c-.2-.2-.3-.5-.4-.7 0 .2.1.8.1 1.5v7.6h-1.4v-10.9h1.8l5.3 8.3c.3.4.4.6.4.8 0-.3-.1-.8-.1-1.6v-7.5h1.4v10.9z"/><path d="m389.7 13.7h-5.8v-10.9h5.6v1.2h-4.2v3.5h3.9v1.2h-3.9v3.7h4.4z"/><path d="m398.4 4.1h-3.1v9.6h-1.4v-9.6h-3.1v-1.3h7.7v1.3z"/></g><path d="m84.06 244.52c8.89 3.21 16.95-1.16 25.17-2.95 26.1-5.66 52.02-12.14 78.13-17.78 9.58-2.07 19.46-2.85 29.23-3.94 3.22-.36 4.68-1.98 4.93-4.82.16-1.85.2-3.95-.53-5.58-2.26-5.09-4.43-10.35-7.58-14.88-2.03-2.93-5.49-4.95-9.78-4.52-23.29 2.29-45.46 9.49-67.92 15.41-2.8.74-5.48 2.23-7.95 3.79-3.7 2.35-7.54 2.5-11.19.71-6.42-3.13-12.67-6.62-18.85-10.21-1.37-.79-2.13-2.63-3.47-4.39 7.74-1.85 14.8-3.43 21.81-5.22 12.1-3.09 24.3-5.59 36.02-10.32 17.92-7.23 37.1-8.66 56.16-10.51 11.16-1.09 22.08.91 33.12 1.24 3.79.11 7.63.16 11.34.81 7.19 1.27 10.49 5.01 11.64 12.66-9.33 5.26-19.99 3.19-30.3 4.99.64 1.64 1.08 3.14 1.78 4.49 2.76 5.34 5.72 10.57 8.37 15.96 1.47 3 3.16 4.61 6.9 4.36 19.19-1.27 37.87 2.23 56.43 6.57 2.47.58 5.09 1.35 7.11 2.79 1.59 1.13 2.85 3.29 3.37 5.23.67 2.48-1.71 3.26-3.56 4.08-7.48 3.3-15.36 3.59-23.35 3.14-12.93-.71-25.84-2.26-38.79.2-5.44 1.03-6.71 1.36-7.92 6.82-1.06 4.78-1.57 9.7-2.04 14.58-.93 9.68-3.45 18.86-7.87 27.55-2.69 5.27-5.15 10.67-7.52 16.09-.62 1.42-.48 3.17-.75 5.19-3.1.62-5.4 3.3-6.68 6.55-4.83 12.21-14.11 20.57-24.25 28.04-13.86 10.21-28.01 20.03-42.11 29.91-2.32 1.63-5.02 2.71-7.6 4.06-1.81-3.97-1.23-6.48 1.86-9.36 14.06-13.14 27.92-26.5 41.58-40.06 16.66-16.53 26.06-36.85 30.43-59.74 1.32-6.91 3.52-13.65 2.69-20.84-.49-4.22-.79-4.78-5.07-4.76-3.22.02-6.51.15-9.65.8-22.1 4.61-44.24 9.06-66.2 14.24-8.75 2.07-17.15 5.73-25.6 8.96-3.4 1.3-6.55 1.5-9.59-.34-6.58-3.98-13.18-7.95-19.49-12.35-1.7-1.19-2.37-3.87-3.51-5.86.35-.25.7-.52 1.05-.79z" fill="#010103"/><path d="m281.29 115.42c5.56-5.94 5.16-11.63-.74-16.04-7.49-5.62-15.88-8.57-25.28-8.44-9.17.13-18.34.24-27.5.51-1.16.03-2.52.72-3.4 1.53-4.09 3.73-10.04 3.27-13.3-1.17-2.12-2.88-4.6-5.56-6.31-8.67-1.53-2.8-2.22-6.06-3.46-9.6 2.06-.15 3.03-.28 4-.28 12.98-.01 25.96-.04 38.94.03 1.74.01 3.56.35 5.21.93 9.5 3.29 19.02 6.55 28.41 10.13 4.54 1.73 8.81 4.15 13.43 6.37 3.22-4.64 4.05-10.23 2.93-16.14-.81-4.28-2.1-8.47-2.8-12.76-.51-3.08-2.1-4.92-4.71-6.36-9-4.96-18.27-9.35-28.83-8.5-6.31.51-12.5 2.32-18.79 3.25-1.71.25-3.96 0-5.3-.96-7.12-5.08-12.57-11.69-16.4-19.58-.29-.6-.53-1.23-.69-1.88-.17-.74-.22-1.51-.38-2.7 2.16.54 4.1.86 5.93 1.51 6.94 2.45 14.05 3.09 21.4 3.09 16.47.02 32.09 4.33 46.83 11.41 11.89 5.71 18.34 16.3 22.94 28.16.3.79.18 1.76.18 2.64.03 6.7-.15 13.42.13 20.11.26 6.1-.64 11.94-3.83 17.08-8.78 14.14-17.6 28.27-26.84 42.11-5.49 8.23-13.79 11.69-23.7 11.43-2.08-.06-3.13-.87-3.51-2.75-.42-2.07-2.48-3.98.29-6.21 8.7-7.01 15.87-15.38 21.23-25.24.64-1.18 1.45-2.28 1.95-3.51 1.06-2.6-.04-4.14-2.69-3.37-7.81 2.27-15.53 4.84-23.3 7.25-6.38 1.98-12.7 4.22-19.18 5.75-7.41 1.75-13.51-1.14-18.63-6.55-4.23-4.46-8.8-8.62-12.89-13.19-2.47-2.75-4.32-6.05-7.04-9.95 2.65-.18 4.09-.57 5.41-.32 3.39.65 6.99 1.02 10.03 2.49 12.41 6 25.27 5.42 38.41 3.7 6.62-.86 13.35-1.02 20.03-1.12 4.66-.07 9.24.69 11.82 5.81z" fill="#010103"/><path d="m125.12 178.46c-1.17-2.93-2.53-5.39-3.13-8.02-1.14-4.99-.11-5.84 4.11-8.44 4.32-2.66 8.61-5.73 12.02-9.44 6.99-7.58 12.14-16.51 17.49-26.8-4.41.32-8.01.34-11.52.92-2.95.49-5.92 1.35-8.66 2.56-11.58 5.11-22.72 3.27-33.69-1.8-8.4-3.88-16.15-8.71-22.01-16.07-1.22-1.53-2.2-3.24-3.43-5.09 3.35-1.32 6.24-1.11 8.77.49 6.83 4.32 14.26 5.31 22.17 4.94 7.26-.33 14.55-.21 21.82-.03 6.69.17 13.37.72 20.05 1.05 2.34.11 4.71.28 7.03.05 5.17-.53 6.65-1.92 7.97-6.94 1.1-4.17 2.16-8.35 3.36-13-9.51 2.17-18.51 4.24-27.52 6.29-.87.2-1.78.56-2.62.47-10.31-1.09-20.73-1.62-30.88-3.58-9.21-1.77-15.3-8.38-19.41-16.65-1.72-3.47-3.19-7.07-5.07-11.29 2.64.8 4.62 1.39 6.59 2.01 23.79 7.5 48.07 12.16 73.08 12.66 1.77.04 3.51 1.42 5.96 2.48.17-2.8.48-5.72.48-8.65 0-1.42-.54-2.84-.84-4.27-1.91-9.03-5.54-16.57-15.33-19.62-3.47-1.08-6.7-3.09-9.84-5.01-6.91-4.23-14.24-6.84-22.43-6.71-.66.01-1.34-.1-2-.25-3-.67-4.62-3.11-4-5.97.4-1.88 3.49-3.57 5.9-3.14 2.42.43 4.81 1.03 7.23 1.44 9.45 1.6 19.03 2.67 28.35 4.86 11.44 2.68 21.43 8.22 28.87 17.74 5.51 7.04 7.38 15.33 7.58 23.87.38 16.37-3.3 32.16-8.04 47.72-.28.92-.99 1.75-1.63 2.5-6.42 7.61-12.87 15.2-19.33 22.77-.57.67-1.23 1.32-1.96 1.81-11.53 7.88-23.1 15.73-35.49 24.14z" fill="#010103"/></svg>