<svg enable-background="new 0 0 400 400" viewBox="0 0 400 400" xmlns="http://www.w3.org/2000/svg"><g fill="#010101"><path d="m81.73 360.51c2.9-5.51 5.96-10.94 8.66-16.55 12.3-25.49 19.4-52.56 24.2-80.31 4.52-26.12 7.29-52.45 3.82-78.84-1.91-14.55-6.03-28.83-9.55-43.14-3.25-13.23-7.78-26.18-10.38-39.51-2.98-15.33-.46-30.52 4.69-45.22.31-.9.94-1.82 1.67-2.42 5.62-4.61 11.12-9.38 17.01-13.62 5.11-3.69 11-5.68 17.32-6.79 9.46-1.66 18.85-3.79 28.17-6.12 5.28-1.32 10.35-1.69 15.82-1.09 22.9 2.49 45.86 4.47 68.79 6.69 22 2.12 35.86 14.45 40.6 36.1.74 3.38 1.56 6.8 1.79 10.23.21 3.17.19 6.53-.6 9.58-3.31 12.65-6.93 25.21-10.5 37.79-.36 1.25-.9 2.59-1.74 3.54-12.55 14.2-18.4 31.26-21.01 49.62-1.07 7.52-1.47 15.13-2.14 22.7-.1 1.08-.01 2.18-.01 3.62 5.12-1.12 9.93-2.09 14.68-3.28.97-.24 1.83-1.22 2.58-2.01 7.76-8.16 10.39-18.17 11.01-29.13.43-7.53 1.75-15.01 2.68-22.51.44-.11.88-.22 1.32-.33 1.88 4.17 4.22 8.2 5.56 12.53 4.07 13.15 3.36 26.49.75 39.82-.09.44-.08 1-.35 1.28-5.56 5.88-9.62 13.28-16.96 17.36-4.49 2.5-9.05 4.95-13.81 6.87-5.09 2.05-7.15 6.02-6.72 10.78.65 7.18 1.43 14.55 3.67 21.34 6.28 19.1 13.13 38.02 20.15 56.87 7.08 19.01 15.59 37.34 27.78 53.75.93 1.25 1.73 2.61 2.57 3.93.11.17.1.42.34 1.46-2.04-1.03-3.95-1.49-5.16-2.68-15.92-15.65-31.08-31.91-41.57-51.92-5.63-10.73-8.17-22.42-11-34.04-3.65-14.98-7.26-29.98-10.89-44.97-.98-4.05-3.05-6.18-7.21-5.91-9.49.61-18.84 2.44-25.49 9.96-9.7 10.97-19.49 21.92-28.28 33.61-13.37 17.78-19.89 38.59-24.4 60.11-1.95 9.28-4.08 18.51-6.44 27.67 0-5.21-.19-10.44.03-15.64 1.33-31.04 10.13-60.26 21.5-88.89 1.78-4.49 4.08-8.22 7.82-11.35 6.35-5.31 12.55-10.83 18.47-16.62 5.22-5.1 11.11-8.83 17.88-11.48 6.65-2.61 13.16-5.61 19.62-8.67 1.1-.52 2.23-2.15 2.36-3.37 1.73-16.13 2.52-32.41 5.18-48.37 1.5-8.97 5.42-17.73 9.35-26.06 3.95-8.35 9.21-16.09 14.01-24.02 8.35-13.83 8.97-28.5 4.84-43.67-.29-1.06-1.32-2.03-2.22-2.79-12.32-10.4-26.66-16.73-42.24-20.2-27.06-6.03-54.04-6.63-80.89 1.61-12.05 3.7-21.8 10.72-30.11 19.85-3.64 3.99-5.21 8.87-4.06 14.55 6.71 33.2 13.46 66.4 19.84 99.67 2.63 13.69 2.61 27.63 1.31 41.49-3.38 36.16-13.79 70.32-30.12 102.68-6.01 11.91-13.3 23.05-22.03 33.2-.51.59-.92 1.26-1.38 1.89-.2-.2-.39-.42-.58-.63z"/><path d="m182.86 199.93c-6.8-.11-15.29-1.92-23.55-4.89-1-.36-1.98-1.03-2.71-1.8-9.73-10.26-13.88-22.3-10.86-36.31 1.45-6.75 3.56-13.36 5.3-20.05.8-3.09 2.76-5.19 5.19-7.12 7.61-6.05 16.81-8.82 25.71-11.91 3.2-1.11 7.42.62 11.16 1.19 5.96.9 11.83 1.85 17.29 4.85 12.08 6.64 17.88 16.7 17.63 30.4-.2 10.72-2.11 21.1-6.11 31.06-.47 1.17-1.28 2.42-2.29 3.12-10.44 7.22-21.88 11.56-36.76 11.46zm-24.91-41.96c.28 8.95 4.94 15.41 10 21.85 3.7 4.72 8.1 7.24 14.12 7.6 18.76 1.13 32.4-10.08 32.4-29.83 0-3.67-1.51-7.79-3.53-10.93-6.22-9.67-16.1-13.22-26.97-14.91-4.46-.69-8.28-.07-11.88 2.74-2.19 1.71-4.76 2.93-7.05 4.53-.94.66-1.97 1.63-2.3 2.66-1.71 5.39-3.22 10.85-4.79 16.29z"/><path d="m137.06 83.6c15.06-2.86 29.33-5.59 43.61-8.24 1.27-.24 2.73-.25 3.95.13 13.71 4.25 27.88 5.04 42.06 5.92 10.35.65 20.24 3.4 29.92 6.98.17.06.26.34.94 1.31-8.44 1.54-16.43 3.4-24.52 4.39-20.61 2.52-41.27 2.74-61.9.05-10.8-1.41-21.29-4.04-31.13-8.85-.77-.38-1.5-.86-2.93-1.69z"/><path d="m198.94 166.45c-7.04 1.3-13.16 2.44-19.82 3.67-.54-6.28-1.08-12.43-1.56-18.59-.04-.46.28-1.12.65-1.4 7.12-5.5 16.2-2.55 18.3 4.26 1.15 3.75 1.58 7.74 2.43 12.06z"/></g><path d="m6.4 11.7c-1-.8-1.9-1.6-2.9-2.3l.6-.7c.9.7 1.9 1.4 2.9 2.2zm-2.1 8.3c.7-2.1 1.4-4.2 2-6.4.2.1.6.3 1 .4-.7 2.3-1.3 4.4-1.9 6.4zm3-12.8c-1.1-.9-2.1-1.7-2.9-2.4l.6-.7c1 .8 2 1.5 3 2.4zm1.4-1.3v-.9h10.2v.9c-.9 4.2-2.3 7.3-4.1 9.4 1.3 1.4 3.2 2.7 5.7 4-.2.2-.4.5-.7.9-2.5-1.4-4.4-2.7-5.7-4.2-1.4 1.5-3.5 3-6.1 4.4 0 0 0 0-.1-.1-.3-.4-.5-.7-.7-.8 2.7-1.3 4.7-2.8 6.2-4.2-1.8-2.2-3-5.3-3.7-9.4zm9.2 0h-7.1c.6 3.8 1.7 6.7 3.4 8.7 1.7-2 2.9-4.8 3.7-8.7z" fill="#fbfafa"/><path d="m31.6 3.6h.9v2.3h4.1v9.1h1.7v.9h-16.6v-.9h1.7v-9.1h4.1v-2.3h.9v2.3h3.1v-2.3zm-4 13.3.6.8c-1.9.9-3.8 1.9-5.8 2.8-.2-.3-.3-.6-.5-.9 2-.9 3.9-1.8 5.7-2.7zm-3.2-10.1v3.7h3.1v-3.7zm0 4.5v3.7h3.1v-3.7zm4.1-4.5v3.7h3.1v-3.7zm0 4.5v3.7h3.1v-3.7zm9.1 9.1c-2.1-1.1-4.1-2-5.8-2.7l.5-.8c2.2.9 4.1 1.8 5.8 2.6zm-1.9-13.6h-3.1v3.7h3.1zm-3.2 4.5v3.7h3.1v-3.7z" fill="#fbfafa"/></svg>