<svg enable-background="new 0 0 400 400" viewBox="0 0 400 400" xmlns="http://www.w3.org/2000/svg"><g fill="#fbfafa"><path d="m37.59 393.81c-.92.31-1.52.05-2-.78-.7-1.2-1.52-2.34-2.47-3.78v4.59c-.55.03-.95.05-1.41.07-.03-.37-.06-.64-.06-.91 0-1.91 0-3.81 0-5.7 1.13-.41 1.77-.03 2.29.91.62 1.11 1.38 2.14 2.31 3.19v-4.2h1.35v6.61z"/><path d="m12.94 393.88v-6.75c1.9.19 3.93-.54 5.37 1.29.8 1.01.78 2.88.03 3.97-1.37 1.97-3.4 1.51-5.4 1.49m1.45-1.22c2.04.12 2.92-.58 2.89-2.21-.03-1.51-.98-2.19-2.89-2z"/><path d="m11.81 393.87h-5.49c.68-2.18 2.47-3.48 3.51-5.45h-3.08v-1.21h5.29c-.71 2.13-2.44 3.48-3.47 5.51.86 0 1.63.04 2.39-.01.79-.05 1.14.21.85 1.16"/><path d="m39.33 393.86v-6.61h3.7v1.07h-2.22v1.52c.68.04 1.34.09 2.07.13v1.07c-.72.05-1.38.09-2.1.14v1.48h2.4v1.19h-3.85z"/><path d="m27.71 388.56c-1.15-.3-2.46-.61-3.1.64-.37.73-.41 1.93-.06 2.67.63 1.35 1.99.93 3.17.68.35.94-.01 1.32-.93 1.46-1.62.25-3.05-.27-3.76-1.48-.73-1.24-.6-3.03.31-4.17.88-1.11 2.71-1.7 4-1.16.32.13.44.74.65 1.12-.1.08-.19.16-.28.24"/><path d="m49.15 387.24v1.07c-.59.02-1.17.05-1.87.08v5.44h-1.48v-5.44h-1.85c-.05-.4-.08-.73-.13-1.15z"/><path d="m20.06 387.21h1.33v6.62h-1.33z"/><path d="m30.68 393.25c-.49.38-.8.79-1.05.76-.32-.05-.6-.45-.9-.7.26-.24.51-.64.8-.67.29-.04.62.3 1.15.61"/></g><path d="m129.02 300.9c-2.4 0-4.93.49-7.18-.09-6.2-1.62-12.5-2.78-17.84-7.06-4.52-3.62-10.02-5.81-16.56-6.32 0 4.95-.89 9.93.19 14.43 2.24 9.37 3.96 19.32 12.08 25.92 5.89 4.79 9.59 11.04 13.44 17.34 2.54 4.16 5.55 8.12 8.81 11.75 3.84 4.26 6.7 9.47 12.18 12.27 1.47.75 1.96 3.4 2.57 5.4-7.09-1.91-13.93-3.41-18.89-9.39-4.68-5.65-10.86-10.04-14.01-16.97-.18-.4-.46-.95-.79-1.05-6.36-1.75-6.61-8.52-10.28-12.47-3.9-4.19-6.05-9.32-7.87-14.64-.94-2.75-2-5.46-3.15-8.13-3.02-7.03-4.7-14.15-4.7-22.01-.02-20.19-.89-40.38-1.44-60.57-.1-3.88.23-7.95-3.89-10.34-.27-.16-.63-.54-.6-.77.61-4.21-2.65-6.34-4.82-9.05-.27-.34-.59-.8-.56-1.18.46-5.92-2.06-11.01-4.13-16.31-.97-2.48-.96-5.54-.68-8.26.99-10.01 3.44-19.77 9.28-28.01 2.87-4.05 7.32-7.23 11.57-10 5.31-3.47 11.17-6.11 16.78-9.13 4.19-2.25 4.56-6.88 6.49-10.53.16-.3-.33-1.02-.63-1.47-2.72-4.03-3.71-8.56-3.94-13.34-.06-1.33-.29-2.67-.62-3.96-1.26-4.98-2.79-6.18-7.91-5.95-12.29.54-24.57 1.14-36.86 1.76-5.24.27-10.04-1.91-11.77-5.77 6.92-.93 13.72-1.86 20.53-2.75 11.86-1.56 23.73-3.09 35.59-4.66 3.23-.43 3.99-1.97 3.07-5.31-2.25-8.13-8.18-11.06-15.94-11.65-4.71-.36-9.37-1.05-13.15-4.29-.48-.41-.89-.92-1.78-1.86 3.23-.2 5.88-.4 8.54-.51 2.35-.1 4.71.03 7.05-.15 5.52-.42 7.3-3.56 4.63-8.48-3.46-6.39-6.83-12.87-10.91-18.86-1.4-2.06-4.69-3.12-7.32-4.01-3.95-1.34-5.22-2.08-6.97-6.01 5.38-1.42 10.47-3.56 16.26-3.07 15.14 1.3 30.33 2.16 45.44 3.68 5.38.54 10.64 2.42 15.93 3.78 2.25.58 2.7 2.35 2.61 4.46-.1 2.29-1.77 2.23-3.3 2.47-.44.07-.89.21-1.33.2-4.51-.08-6.47 2.29-6.87 6.62-.13 1.46-1.27 2.81-1.76 4.27-1.06 3.14-2.07 6.29-2.97 9.48-.91 3.22.73 4.89 3.75 5.31 2.98.41 5.98.68 8.98.83 2.83.14 5.09 1.09 7.07 3.89-5.57.54-10.63 1.11-15.71 1.5-5.33.41-9.35 2.48-11.26 7.83-1.54 4.31-3.28 8.55-5.01 12.78-.74 1.81-.34 3.08 1.08 4.42 2.77 2.6 5.4 5.36 8 8.14 4.56 4.88 6.72 10.73 6.72 17.39-.01 3.92-.23 7.86.11 11.74.14 1.65 1.07 3.89 2.36 4.65 2.61 1.56 5.67 3.08 8.62 3.24 12.13.65 23.4 4.7 34.89 7.96 6.99 1.98 13.98 3.96 20.89 6.2 3.7 1.2 7.32 1.66 11.16.99 6.89-1.19 13.79-1.63 20.54-4.25 8.07-3.13 16.91-2.61 25.74-2.26.12.81.27 1.43.29 2.06.02.54-.1 1.08-.18 1.91-8.14 1.1-16.2 2.31-24.29 3.21-2.31.26-4.79-.14-7.08-.7-2.58-.63-3.53 1.07-4.33 2.67-.79 1.57-1.73 3.21.58 4.92 9.61 7.13 19.99 8.48 31.48 5.71 6.69-1.61 13.66-2.18 20.53-2.93 1.8-.2 3.72.63 5.55 1.39-3.18 2.45-6.12 4.44-10.27 4.48-4.08.04-8.2.97-12.18 1.97-1.28.32-2.19 2.13-3.27 3.25 1.19.72 2.35 1.51 3.59 2.13 1.08.54 2.47.61 3.36 1.34 10.48 8.6 23.34 12.53 35.31 18.24 6.49 3.09 13.35 2.16 20.01 3.23 7.72 1.23 15.53 2.03 23.21 3.46 3.29.61 6.36 2.36 9.42 4.18-11.62 5.02-23.62.49-35.4 2.1-.25 1.86-.49 3.71-.65 4.92 6.71 3.8 13.06 7.38 19.37 11.01.53.3.93.94 1.22 1.51 1.99 3.98 3.92 7.98 6 12.22-1.68 2.16-3.5 2.8-6.35.66-5.52-4.15-11.68-7.49-15.41-13.7-.63-1.05-2.08-1.6-3.13-2.42-1.83-1.43-4.11-2.56-5.38-4.39-3.33-4.76-8.33-5.99-13.38-7.39-4.97 7.47.67 16.61-4.27 24.56-3.53-5.89-8.15-10.64-7.29-18.08.5-4.28.07-8.7-.33-13.02-.28-3.06-2.19-5.17-5.03-6.63-15-7.74-29.95-15.58-44.91-23.39-.69-.36-1.36-.9-2.1-1.03-11.04-1.93-19.96-8.82-30.14-12.73-3.91-1.5-8.14-2.19-12.16-3.44-1.6-.5-3.04-1.5-4.55-2.29-1.11-.58-2.33-1.81-3.32-1.65-7.87 1.28-15.37-1.01-22.9-2.34-11.09-1.96-22.1-4.5-33.05-7.18-3.84-.94-7.6-2.67-11.05-4.66-3.97-2.29-7.85-2.21-11.94-1.05-13.42 3.78-23.34 12.12-29.99 24.13-3.92 7.09-3.16 15.19-3.19 23.01 0 .31.17.65.34.92 4.28 6.73 6.26 14.25 7.87 21.96.73 3.52 3.16 5.98 6.72 6.82 5.34 1.27 10.53 1.75 14.96-2.79 2.49-2.55 5.56-4.51 8.21-6.92 1.63-1.49 3.42-3.11 4.31-5.04 2.39-5.19 3.61-10.22-3.23-14-2.73-1.51-5.59-2.78-8.41-4.13-4.02-1.93-7.98-4.01-12.11-5.67-2.32-.93-4.95-1.06-7.4-1.72-1.88-.51-3.69-1.27-5.46-2.44 4.34-4.2 9.17-6.77 14.7-5.02 9.32 2.95 18.62 5.96 26.4 12.55 6.72 5.69 6.63 13.93 5.43 20.58-.16.89-1.11 1.63-1.69 2.45-3.44 4.82-6.88 9.64-10.3 14.47-1.32 1.86-.91 3.38 1.13 4.3 3.24 1.47 6.43 3.32 9.84 4.12 10.56 2.47 20.35 6.62 29.7 12.03 5.51 3.19 11.25 5.98 16.86 9 1.17.63 2.53 1.24 3.29 2.25 2.91 3.86 6.97 4.48 11.33 4.43 1.34-.02 2.73.1 4.02-.18 10.48-2.33 20.38.24 30.17 3.54 1.28.43 2.26 1.73 3.38 2.62-.16.5-.31 1-.47 1.5-5.15.57-10.29 1.26-15.45 1.68-3.28.27-4.09.93-3.18 4.1.6 2.11 1.6 4.18 2.77 6.03.39.62 1.9.54 2.89.78 1.2.28 2.65.23 3.55.91 2.13 1.61 4.12 3.47 5.95 5.42 4.54 4.83 10.19 6.61 16.64 6.55 6.15-.06 12.31-.11 18.46.02 2.45.05 5 .4 5.84 3.74-4.33 2.42-8.97 3.02-13.85 2.76-2.23-.12-5.12-1.19-6.28 1.63-1.22 2.96.59 5.27 2.76 7.3 2.94 2.75 5.8 5.6 8.58 8.51 3.47 3.62 5.72 7.92 6.94 12.83-2.72 1.74-4.91 1.29-7.14-.88-2.32-2.26-5.1-4.05-7.36-6.36-1.72-1.76-2.96-4-4.35-6.07-.49-.73-.68-2.21-1.18-2.29-6.25-.98-8-7.51-12.94-10.25-5.66-3.15-9.99-8.03-14.42-12.85-4.49-4.87-10.85-8-15.46-12.8-8.09-8.43-18.46-12.71-28.69-17.31-13.24-5.96-26.42-12.13-39.96-17.32-7.17-2.75-14.52-4.87-21.31-8.66-2.37-1.33-5.63-1.12-8.5-1.49-3.33-.43-6.67-.88-10.01-.97-.86-.02-2.48 1.3-2.49 2.01-.01 2.28.22 4.7 1.01 6.82 1.32 3.56 1.21 6.84.79 10.65-.67 6.12.45 12.44.97 18.66.05.61 1.21 1.2 1.94 1.68 5.43 3.54 10.81 7.19 16.37 10.52 2.52 1.51 5.43 2.38 8.17 3.52.72.3 1.64.33 2.16.82 5.26 4.92 10.46 9.9 15.68 14.87-.11.27-.27.51-.44.75zm-19.42-267.13c-2.89.49-5.54.78-8.1 1.42-1.82.45-2.85 1.7-2.04 3.79.96 2.48 1.87 4.99 2.82 7.48 1.62 4.24 3.44 8.4 4.8 12.72.81 2.59 1.03 5.32 4.31 6.05 2.84.63 6.9-.82 7.91-3.7 2.13-6.05 3.85-12.26 5.4-18.49.82-3.31-1.1-5.71-4.21-6.66-3.59-1.11-7.32-1.77-10.89-2.61zm6.47 91.66c6.71-3.62 6.51-7.11 4.44-10.84-1.87-3.37-4.98-6.04-7.99-9.53-2.78 8.1-1.14 14.38 3.55 20.37z" fill="#010000"/></svg>