<svg enable-background="new 0 0 400 400" viewBox="0 0 400 400" xmlns="http://www.w3.org/2000/svg"><path d="m362.1 8.8c1.1.8 2.1 1.6 3.1 2.4l-1 1.1c-1.3-1.1-2.3-2-3-2.5zm1.9 4.8c.5.2.9.4 1.4.5-.6 2.3-1.3 4.5-1.9 6.8l-1.5-.5c.8-2.1 1.4-4.3 2-6.8zm-1-9.4c1.3.9 2.4 1.8 3.4 2.5l-1 1.1c-1.4-1.2-2.4-2.1-3.2-2.6zm3.7 2.2v-1.4h10.3v1.2c-.5 3.6-1.8 6.8-4 9.4 1.5 1.6 3.4 2.8 5.7 3.8-.3.4-.7.8-1.1 1.4-2.3-1.1-4.1-2.5-5.6-4.1-1.6 1.6-3.6 3.1-5.9 4.3-.3-.5-.7-.9-1-1.3 2.4-1.1 4.4-2.5 6-4.1-1.9-2.5-3-5.6-3.3-9.3h-1.1zm8.8 0h-6.4c.3 3.3 1.3 6 3 8.2 2-2.3 3.1-5.1 3.4-8.2z" fill="#fbfafc"/><path d="m385.3 3.8h1.3v2.2h2.8v-2.2h1.3v2.2h4.1v9.1h1.7v1.3h-16.9v-1.3h1.7v-9.1h4.1v-2.2zm.4 13.1.7 1.2c-1.8.9-3.8 1.9-6 2.9-.2-.4-.5-.8-.8-1.3 2.3-1 4.3-1.9 6.1-2.8zm-3.1-6.4h2.8v-3.2h-2.8zm0 4.6h2.8v-3.3h-2.8zm4-4.6h2.8v-3.2h-2.8zm0 4.6h2.8v-3.3h-2.8zm3.7 1.9c2.1.9 4.1 1.8 6.1 2.7l-.7 1.3c-2.2-1.1-4.2-2-6.1-2.9zm3.2-9.7h-2.8v3.2h2.8zm-2.8 7.8h2.8v-3.3h-2.8z" fill="#fbfafc"/><path d="m217.38 327.81c-1.68 3.41-3.23 6.89-5.1 10.19-.68 1.21-2 2.61-3.24 2.85-7.84 1.53-13.13 6.93-18.56 12.02-1.53 1.44-2.02 3.94-3.27 5.76-.94 1.36-2.14 2.99-3.57 3.49-6.78 2.36-12.85 5.56-17.2 11.55-.61.84-2.3 1.37-3.43 1.29-7.81-.56-15.61-1.32-23.4-2.05-.63-.06-1.44-.2-1.83-.62-5.95-6.34-12.28-12.39-17.59-19.23-3.63-4.68-4.22-10.56-.75-16.06 2.12-3.35 2.54-6.83 1.17-10.52-2.65-7.13-2.05-14.17.29-21.26 1.12-3.39 1.78-6.93 2.63-10.4.81-3.28-.45-5.36-3.65-4.89-5.23.78-10.29 2.04-14.98 5.04-3.95 2.53-8.53 4.67-13.1 5.53-8.3 1.55-16.79 2.08-25.21 2.91-2.4.24-3.92-1.34-5.63-2.98-4.75-4.55-6.06-9.77-5.64-16.26.84-12.83.65-25.71 3.37-38.4 1.36-6.34 4.47-11.61 8.04-16.78 2.02-2.92 3.9-5.94 6.02-9.18-5.28-3.76-10.45-7.27-15.4-11.07-1.56-1.2-2.77-3.06-3.66-4.86-3.85-7.77-3.4-15.4.03-23.41 1.68-3.94 1.98-8.72 1.89-13.1-.15-7.13 1.11-13.76 2.94-20.68 3.81-14.42 4.87-29.13 2.36-44.2-1.47-8.84-5.69-15.6-11.01-22.04-1.83-2.22-4.86-3.48-7.41-5.06-3.56-2.21-4.74-6.48-2.31-9.99 3.23-4.66 6.45-9.28 11.67-12.25 3.75-2.13 6.94-5.25 10.36-7.95 4.44-3.52 9.52-4.76 15.09-4.27.45.04.91-.02 1.34.07 3.28.64 7.18-1.67 9.85 1.37 5.13 5.85 10.96 11.48 9.94 20.4-.51 4.5-.01 8.8 3.35 12.17.87.87 2.46 1.6 3.63 1.49 8.68-.85 17.34-1.93 26.01-2.92 1-.11 2.23-.54 2.98-.13 4.35 2.38 7.61-.68 11.42-1.72 7.85-2.15 15.93-3.46 23.93-5.03 6.12-1.2 12.42-1.82 17.52-6.02.49-.4 1.31-.85 1.8-.7 6.7 2.04 12.95-1.23 19.43-1.63 3.89-.25 7.73-1.17 11.61-1.74 4.54-.67 7.6-3.77 8.19-8.39.1-.78.29-1.58.17-2.34-.99-6.55 1.66-10.87 7.85-13.12.62-.23 1.17-.65 1.76-.97 12.72-7.03 12.72-7.03 26.33-1.82.71.27 1.73.58 1.95 1.13 2.17 5.53 6.31 10.24 6.26 16.74-.03 3.8 1.14 7.61 1.8 11.41.11.66.45 1.28.52 1.94 1.11 10.24 5.17 19.33 10.64 27.91.67 1.05.93 2.52.94 3.79.08 8.4.1 16.8-.01 25.19-.02 1.34-.79 2.66-1.19 4-.68 2.33-1.19 4.72-2.06 6.97-.97 2.51-1.59 5.97-3.51 7.17-12.67 7.89-15.72 19.65-15.24 33.52.26 7.62 4.06 13.43 8.11 19.04 3.77 5.22 8.66 9.64 13.06 14.4 1.06 1.15 2.18 2.25 3.17 3.47 5.35 6.55 10.67 13.14 15.47 19.05.73 2.31.87 4.32 1.88 5.66 2.13 2.84 3.54 5.79 4.28 9.29.36 1.7 1.82 3.36 3.19 4.6 1.55 1.41 3.5 2.41 5.36 3.43 2.82 1.55 5.13 3.4 6.18 6.66.37 1.15 1.61 2.08 2.59 2.96 5.9 5.32 12.32 10.16 17.59 16.03 3.78 4.21 6.3 9.66 8.89 14.81 1.75 3.46-1.73 10.12-5.56 11.32-7.81 2.45-15.73 4.22-23.92 1.87-1.15-.33-2.27-.9-3.3-1.53-7.44-4.54-13.35-10.7-19.14-17.15-5.61-6.25-9.63-13.22-13.22-20.75-4.27-8.95-9.19-17.66-14.61-25.95-4.36-6.66-11.15-10.61-19.13-11.94-1.51-.25-3.53.26-4.78 1.16-3.54 2.54-6.93 5.32-10.15 8.26-4.46 4.06-9.39 7.1-15.31 8.58-1.28.32-2.73 1.63-3.29 2.86-2.89 6.37-7.33 9.98-14.62 10.44-5.66.36-11.24 1.92-16.9 2.59-2.33.27-4.9-.02-7.14-.74-4.98-1.6-7.18-1.14-10.49 2.99-4.26 5.33-8.57 10.63-12.77 16.01-.78 1-1.74 2.36-1.64 3.47.27 3.16-.86 5.5-3.34 7.15-4.99 3.32-4.38 8.7-5.07 13.53-.34 2.4-1.17 3.66-3.53 4.46-6.6 2.22-8.33 5.64-6.75 12.51 2.04 8.8 6.81 13 15.97 12.7 11.04-.37 21.79-2.32 30.92-9.33 6.74-5.17 14-9.81 20.09-15.65 6.24-5.99 11.38-13.14 16.94-19.84 1.78-2.15 3.22-4.59 5.02-6.72 5.13-6.07 11.79-8.17 19.54-7.21.44.05 1.21.04 1.27.23 1.18 3.61 3.73 7.57 3.04 10.82-1.1 5.17-4.31 9.92-6.77 14.76-.68 1.33-1.67 2.76-2.9 3.49-3.74 2.21-5.91 5.63-8.17 9.14-1.54 2.39-3.29 4.91-5.56 6.51-3.31 2.34-5.78 5.1-7.63 8.65-.56 1.08-2 1.7-3.03 2.53-.31-.16-.64-.32-.97-.48zm-10.05-206.63c-1.65 1.95-3.24 3.61-4.57 5.46-1.65 2.3-3.42 3.98-6.57 3.8-1.33-.08-2.75.6-4.07 1.11-2.48.96-4.86 2.21-7.39 3.04-5.49 1.81-11.18 3.1-16.54 5.23-4.6 1.83-4.9 6.78-1.06 10.08 3.31 2.85 3.34 7.48-.06 10.3 1.58 4.69 3.18 9.44 4.89 14.49.69-1.14 1.12-1.84 1.61-2.65 1.68.96 3.19 1.82 4.77 2.73 1.2-.55 1.19-4.27 4-1.66-.51.91-1.03 1.83-1.61 2.87 2.88.09 5.88-2.48 8.18 1.04 1.24-3.23 3.71-4.8 6.95-5.03 2.88-.21 5.82-.42 8.67-.09 8.99 1.03 17.94 2.48 26.94 3.43 6.09.64 8.24-1.58 8.1-7.58-.33-13.62 4.91-25.55 11.86-36.7 1.99-3.2 3.18-6.12 3.45-9.71.57-7.7.62-7.69-6.67-9.81-.43-.12-.86-.25-1.27-.43-2.8-1.24-5.18-.71-7.81.94-3.17 2-6.61 4.2-10.19 4.8-6.65 1.1-13.03 2.16-17.43 8.08-1.39-1.25-2.46-2.2-4.18-3.74zm-123.97 128.59c.02 8.22 1.11 9.39 9.46 9.81.22.01.45 0 .67.01 6.4.19 12.77.45 18.12 4.73.47.38 1.25.5 1.9.52 4.67.21 9.38.8 14.02.47 10.47-.76 18.02-5.72 21.77-16.01 2.44-6.71 5.83-13.09 8.03-19.86 1.3-4.01 1.76-8.55 1.46-12.77-.45-6.25-4.53-9.88-10.34-11.12-2.1-.45-3.18.12-3.9 1.9-1.13 2.79-3.21 4.36-6.06 5.25-8 2.51-15.14 6.61-21.08 12.55-3.68 3.68-7.92 4.62-12.99 4.68-5.39.06-10.81 1.14-16.13 2.18-1.18.23-2.65 2.08-2.9 3.4-.94 4.71-1.4 9.5-2.03 14.26zm48.61-102.96c-4.61 3.36-9.67 4.4-14.99 4.61-4.91.19-9.83.29-14.73.62-7.53.5-11.3 3.41-13.36 10.37-.57 1.9-.35 4.03-.91 5.93-.84 2.83-2.12 5.52-3.05 8.33-.42 1.28-.44 2.69-.64 4.05.35.12.7.23 1.05.35-.85 1.03-1.83 1.97-2.51 3.1-1.06 1.77-2.78 3.74-2.64 5.49.24 2.9-.41 4.98-2.37 6.91-.37.36-.75.96-.72 1.43.26 3.95.6 7.9.96 12.24 1.53-.74 2.53-1.2 3.5-1.7 14.78-7.64 29.62-15.19 44.31-22.98 3.91-2.07 7.64-2.21 11.9-1.69 3.01.37 6.22-.75 9.3-1.37.59-.12 1.49-1.07 1.44-1.56-.37-4.09.21-8.8-1.65-12.12-4.29-7.66-9.79-14.64-14.89-22.01zm-32.92-28.83c.78 2.19 1.68 4.13 2.16 6.17.66 2.81 2.22 3.31 4.86 2.87 7.61-1.25 15.28-2.13 22.87-3.44 6.12-1.05 12.45-1.79 18.2-3.96 11.48-4.33 22.46-9.96 33.94-14.29 15.15-5.71 30.54-10.77 45.89-15.92 3.33-1.12 6.93-1.46 10.43-2.05 2.41-.41 4.96-.32 7.23-1.09 1.37-.47 3.1-2.06 3.29-3.34.34-2.28-.33-4.89-3.07-5.69-3.85-1.13-7.71-2.05-11.7-.04-4.54 2.29-9.4 3.51-14.57 2.99-6.12-.61-11.41 1.43-16.23 5.09-.93.71-2.14 1.21-3.3 1.43-6.03 1.15-12.09 2.18-18.14 3.24-6.15 1.08-12.3 2.57-18.5.17-.47-.18-1.12.11-2.01.23 1.03 1.17 1.75 1.99 2.72 3.09-1.25.33-2.18.6-3.13.81-11.03 2.47-21.88 5.53-32.03 10.64-3.55 1.79-7.11 3.15-11.19 2.66-.93-.11-2.08.09-2.85.58-4.96 3.2-9.85 6.51-14.87 9.85zm94.32 72.75c-2.44 2.22-6.44 1.33-5.88 5.58.03.22-.84.72-1.34.82-5.13 1.09-6.87 4.49-6.79 9.41.03 1.99-.71 3.99-.71 5.98.01 1.73.21 3.63.96 5.15 1.92 3.93 3.66 7.68 0 11.57-.33.35-.49 1.02-.46 1.53.23 3.45.13 6.99.9 10.33 1.38 5.95 4.14 7.06 9.98 5.11 15.22-5.08 24.04-16.5 30.03-30.53 1.27-2.97 1.45-6.54 1.51-9.84.06-3.88-1.59-5.43-5.45-5.87-2.55-.3-5.16-.12-7.69-.48-5.99-.85-12.67-.47-15.06-8.76zm-102.32-56.3c1.67-.42 2.89-.73 4.15-1.05-1.72-4.3-3.3-8.26-5-12.51-3.33 1.91-6.96 4-11.37 6.53 4.53.74 7.93 1.29 11.37 1.85.27 1.71.52 3.23.85 5.18zm89.16 54.19c1.58-1.06 2.72-1.83 4.08-2.74-1.61-1.86-3.09-3.56-5.18-5.97.43 3.39.73 5.76 1.1 8.71zm-86.36-76.33c-.35-.11-.7-.22-1.05-.33-.56 1.48-1.77 3.08-1.52 4.41.31 1.67 1.83 3.04 4.09 1.16-.51-1.74-1.01-3.49-1.52-5.24zm-32.94-39.66c1.95 3.71 3.84 4.04 7.34 1.42-2.46-.47-4.79-.92-7.34-1.42zm222.81 155.3c.56 1.48.89 2.38 1.29 3.43 1.66-.56 3.12-1.06 5.35-1.82-2.56-.63-4.26-1.04-6.64-1.61z" fill="#010100"/></svg>