<svg enable-background="new 0 0 400 400" viewBox="0 0 400 400" xmlns="http://www.w3.org/2000/svg"><path d="m124 251.2c-5 2.7-5.9 4.5-5.2 10.7.6 5.1-1 7-6.2 7.2-3.8.2-7.1-.6-8.7-4.6-2.2-5.2-4.7-10.1-6.7-15.4s-2.1-10.7.5-16c4.1-8.4 5-17.6 6.4-26.7.3-2.2 1.3-3.3 3.4-4 5.5-1.7 10.8-.6 16.2.8 4.2 1.1 8.4 2.4 12.7 2.6 8.1.4 13.2-3.6 13.8-11.6.6-7.8-.2-15.6-.6-23.4 0-.7-1-1.5-1.7-1.9-3.4-2-7.2-2.7-11-1.5-9.7 2.9-19.3 3.2-29 0-5.1-1.6-10.3-.8-15.3.6-3.3.9-7.6 7.5-7.4 11.1.1 1 0 2.2-.5 3-7.2 11.8-16.2 21.8-28.9 28.2-8.3 4.2-19.6-1.1-22.1-9.4-1.3-4.4-.8-8.6 1.2-12.6.4-.9 1.7-1.4 2.7-1.9 6-2.9 12.1-5.5 17.9-8.6 1.8-1 2.9-3.4 4.2-5.3 1.4-1.9 2.6-4.1 4.2-5.9 6.9-7.5 9.1-16.3 6.8-25.9-5.4-22.7-5.3-45.9-6.3-69.1-.2-5.1.5-9.4 3.4-13.7 1.8-2.7 2.8-5.9 3.9-9 .8-2.3 2.1-3.3 4.6-3.3 4.1.1 7.4 1.1 8.9 5.4 2.9 7.8 5.8 15.6 8.9 23.3.7 1.7 2 3.4 3.4 4.7 2.9 2.5 6.6 4.2 8.3 8.1.3.6 1.5 1.1 2.3 1.2 6.5.5 13.1.7 19.6 1.3 4.1.4 8.1 1.3 12.1 2 .9.1 2.1.5 2.7.1 6.4-4.8 14-4.7 21.3-5.1 11.4-.6 22.8-.2 34.2-.1 5.2 0 10.4.3 15.5.4.9 0 1.9-.2 2.7-.6 4-2.3 8.4-2.5 12.9-2.5 4.2 0 8.4-.4 12.4-1.2 3.1-.7 4.7-3 4.3-6.6-.5-3.8-.7-7.6-.3-11.4.7-6.2 3.8-11.4 8.6-15.4 2.3-1.9 4.6-3.8 6.9-5.5 2.4-1.8 5.7-1.4 7.6.8 4.1 4.4 8.2 8.8 12.2 13.4.8 1 1.4 2.3 1.6 3.6.6 4.1 1.2 8.2 1.4 12.3.2 4 2.4 7.1 4.1 10.5 1.1 2.2 2 4.6 2.2 7 1.6 14.1 3 28.2 4.2 42.3.2 2.3-.3 4.6-.7 6.9-1.6 8.7-2.9 17.6-5 26.2-1.1 4.4-4.3 8.3-4.9 13 0 .3-.5.7-.8.9-9.1 7.4-14.4 17.7-20.9 27.5 3.6 1.6 2.4 4.7 3.1 7.2.7 2.1 1.6 4.2 2.4 6.3.1.3.4.5.5.8 4.3 8 10.6 13.2 19.6 14.8 2.6.4 3.1 2.5 3.4 4.4.5 2.8 2.1 3.9 4.8 3.8.8 0 1.7.1 2.5.2 6.5.3 12.8 1.4 18.3 5.2 3.9 2.7 8.3 3.4 12.8 4.2.9.1 2.1.3 2.6.9 2.9 3.7 7.3 4.8 11.3 6.7.8.4 2 1.3 2.1 2 .4 2.8 2.2 4.2 4.6 5.1 2.7 1.1 4.6 2.9 5.3 5.8.6 2.7 2.3 4.3 4.7 5.6.9.5 1.4 1.8 1.8 2.9 1.8 5.9-.6 10.8-4.4 15-1.1 1.2-3.2 2.3-4.9 2.3-9.2.2-17.6-2.8-25.4-7.5-4.4-2.6-9-5-13.8-7-4.3-1.8-8.1-3.8-10-8.5-.4-1.1-1.5-2-2.5-2.7-2.2-1.6-4.5-3.2-6.8-4.7-6.8-4.2-13-9.1-17.9-15.4-3.8-4.9-9.3-5.5-14.8-5.8-.4 0-.9 0-1.2.3-4.1 3.7-9.9 5.6-11.7 11.6-1.8 6.1-6.4 8.1-12.1 8-8-.1-16.1-.6-24.1-1-.7 0-1.5-.4-1.9-.8-4.7-4.4-5.2-13.7-1-18.6.5-.6 1.4-.9 2.1-1.3 3-1.5 6.1-3 9.1-4.5 5-2.5 7.4-6.6 6.7-12.1-.1-.8-1-1.8-1.7-2.2-8.1-4.5-16.9-5.3-25.8-4.7-3.6.2-7.1 1-10.7 1.4-3.4.3-5.4 2.3-7.3 4.9-4.9 7.1-6.6 15.1-7 23.4-.2 3.7-1.2 6.8-3.1 9.8-2.2 3.6-3.9 7.4-4 11.8-.1 3.9-2.3 7.1-5.6 8.6-7.7 3.5-11.7 9.6-14.6 17.2-1.4 3.8-.9 5.8 1.3 9.1 3.6 5.4 9 5.4 14.2 6.5 6.7 1.5 13.5 1.2 20.1-.7 4.6-1.3 6.5-3.2 6.5-8 0-3.9-.8-7.7-1.5-11.6-.7-4-2.1-8-2.6-12.1-.5-5.1 2.2-7 7.3-6.1 5.6.9 10.5 2.9 13.7 7.9.3.5.8 1 1.3 1.4 5.1 4.3 7.7 9.2 7.4 16.4-.2 5.9 2.1 11.8 3.2 17.7.2 1.3.2 2.7 0 4-1.5 7.7-3 15.4-4.7 23-.3 1.3-1.5 2.7-2.6 3.5-3.6 2.5-7.3 5.1-12.9 4.2 0-4.8-.5-9.9.1-14.8 1-8.8-1.6-11.7-10.5-10.5-1.8.2-3.8.1-4.9 2.2-.3.6-1.6.8-2.5 1.2-2.5 1.1-5.6 1.7-7.5 3.4-6.1 5.6-13.2 6-20.8 5.4-1.1-.1-2.1-.3-3.1-.4-6.8-.9-11.4-3.7-15.3-10.3-7.6-13.1-5.9-26.2-2.8-39.6 2-8.6 5.6-16.6 10.2-24.2 5.7-9.4 11.2-18.9 16.3-28.7 1.5-2.8 1.3-6.8 1-10.1-.1-1.3-2.6-2.6-4.2-3.4-8-3.8-16-2.3-23.8.5-7.9 2.8-7.8 3-7.8 11.2 0 2.4-.2 4.9.1 7.3.2 1.7.8 3.3 1.4 5.3zm46.4-82.9c1 5 1.9 9.9 3 14.7 1.1 4.9 4.1 8.2 9.1 9.5 5.9 1.5 11.9 3 17.8 4.5 7.7 1.9 15.4 3.4 22.4 7.5 5.9 3.5 11.9 6.8 18.1 9.8 6.3 3 14.5-1.5 15.8-8.4.5-2.5.9-5 1.4-7.5 2.2-9.8 2.8-19.9 6.6-29.3 1.4-3.6-.6-5.8-4.5-5.8-5.3 0-10.7.6-15.8-.3-16.5-3-33.3-1.3-49.9-2.3-8.4-.4-16.8 2.9-24 7.6zm-67.4-33.1c1.6 2.5 3.3 4.8 4.7 7.3 1 1.7 2.1 2 3.9 1.6 7.5-1.8 15-3.5 22.6-5.1 9.6-2.1 19.1-4.7 29.1-4 2.6.2 5.4-1.5 8-2.2 1-.3 2-.7 3-.8 13.7-.4 27.3-.1 40.7 3.2 2.7.7 5.7.6 8.4 0 3.2-.7 6.1-2 8.7 1.1.3.4 1.2.3 1.8.3 6.1-.2 11.6 1.8 17 4.4 3.1 1.5 6.5 2.4 9.9 3.3 2.4.6 4.5.1 6.1-2.1 1.2-1.7 2.7-3.2 4.3-4.6 1.9-1.7 2.4-3.3 1.6-5.8-1.2-3.7-2.1-7.5-2.8-11.4-.7-4-2.9-6.2-6.8-7.4-13.2-4-26.7-2.2-40-1.2-8.6.6-17 3.4-25.5 4.9-8.9 1.6-17.8 2.9-27 .6-4.9-1.3-10.3-1.2-15.4-.8-11.5.8-22.9 2.2-34.4 3.3-5.3.5-10 2.1-13 6.7-1.9 2.6-3.3 5.6-4.9 8.7z"/></svg>