<svg enable-background="new 0 0 400 400" viewBox="0 0 400 400" xmlns="http://www.w3.org/2000/svg"><path d="m362.1 8.8c1.1.8 2.1 1.6 3.1 2.4l-1 1.1c-1.3-1.1-2.3-2-3-2.5zm1.9 4.8c.5.2.9.4 1.4.5-.6 2.3-1.3 4.5-1.9 6.8l-1.5-.5c.8-2.1 1.4-4.3 2-6.8zm-1-9.4c1.3.9 2.4 1.8 3.4 2.5l-1 1.1c-1.4-1.2-2.4-2.1-3.2-2.6zm3.7 2.2v-1.4h10.3v1.2c-.5 3.6-1.8 6.8-4 9.4 1.5 1.6 3.4 2.8 5.7 3.8-.3.4-.7.8-1.1 1.4-2.3-1.1-4.1-2.5-5.6-4.1-1.6 1.6-3.6 3.1-5.9 4.3-.3-.5-.7-.9-1-1.3 2.4-1.1 4.4-2.5 6-4.1-1.9-2.5-3-5.6-3.3-9.3h-1.1zm8.8 0h-6.4c.3 3.3 1.3 6 3 8.2 2-2.3 3.1-5.1 3.4-8.2z" fill="#fbfafc"/><path d="m385.3 3.8h1.3v2.2h2.8v-2.2h1.3v2.2h4.1v9.1h1.7v1.3h-16.9v-1.3h1.7v-9.1h4.1v-2.2zm.4 13.1.7 1.2c-1.8.9-3.8 1.9-6 2.9-.2-.4-.5-.8-.8-1.3 2.3-1 4.3-1.9 6.1-2.8zm-3.1-6.4h2.8v-3.2h-2.8zm0 4.6h2.8v-3.3h-2.8zm4-4.6h2.8v-3.2h-2.8zm0 4.6h2.8v-3.3h-2.8zm3.7 1.9c2.1.9 4.1 1.8 6.1 2.7l-.7 1.3c-2.2-1.1-4.2-2-6.1-2.9zm3.2-9.7h-2.8v3.2h2.8zm-2.8 7.8h2.8v-3.3h-2.8z" fill="#fbfafc"/><path d="m359.29 344.39c-5.01 2.6-9.93 5.41-15.05 7.76-17.46 8.01-35.92 11.2-55.05 11.55-20.09.37-40.08-.66-59.68-5.06-7.51-1.68-14.72-5.1-21.78-8.35-7.09-3.27-13.84-7.3-20.7-11.06-1.14-.63-2.4-1.39-3.09-2.43-8.98-13.63-18.03-27.22-24.69-42.22-4.95-11.16-6.98-23.06-9.04-34.96-1.38-8.01-2.84-16-4.33-24.37-9.95 5.12-20.85 8.22-26.64 18.63-5.36 9.64-13.74 16.33-22.06 23.13-1.46 1.19-2.55 3.03-3.34 4.78-1.68 3.77-2.98 7.7-4.57 11.51-1.68 4.03-4.63 6.5-9.39 6.83-3.07-5.1-3.09-10.78-1.3-16.09 3.1-9.2 6.94-18.14 10.55-27.16.36-.89 1.18-1.62 1.83-2.38 10.82-12.54 21.4-25.31 32.57-37.53 6.09-6.66 13.04-12.56 19.85-18.52 6.1-5.33 8.42-11.86 7.68-19.75-.52-5.58-5.17-8.18-10.34-5.65-1.5.74-2.84 2.05-4.4 2.38-6.05 1.27-10.79 5.16-16.23 7.58-4.54 2.03-9.54 3.04-14.36 4.46-1.6.47-3.25.81-4.88 1.18-6.78 1.56-11.26 5.01-13.36 12.29-2.9 10.07-6.99 19.8-10.68 29.63-.82 2.18-1.98 4.25-3.17 6.26-8.61 14.53-17.26 29.03-25.91 43.53-.51.85-.99 1.98-1.78 2.37-5.67 2.79-8.5 8.01-11.51 13.1-2.57 4.34-6.67 6.02-11.55 6.63-1.18-4.36-.71-8.57 1.07-12.49 8.18-18.12 16.34-36.27 24.84-54.24 3.77-7.96 8.89-15.29 12.45-23.33 8.79-19.87 11.17-40.89 9.38-62.38-.63-7.55-2.14-15.04-3.53-22.5-.39-2.08-1.6-4.11-2.83-5.89-1.84-2.67-4.17-4.99-6.02-7.64-3.66-5.24-8.87-7.5-14.92-8.61-1.41-.26-3.23-1.49-3.77-2.75-1.81-4.18-3.13-8.58-4.63-12.89-.07-.21-.13-.44-.12-.65.39-5.6 9.56-10.42 14.37-7.55 2.11 1.26 4.08 2.79 6.28 3.88 6.35 3.13 11.05 7.69 13.79 14.32.52 1.26 2.01 2.24 3.25 3.07 7.99 5.33 16.01 3.27 23.88-.25 6.77-3.03 13.5-5.99 21.16-5.62.61.03 1.38-.19 1.85-.58 8.18-6.78 18.16-8.52 28.13-10.81 12.94-2.97 25.77-6.56 38.41-10.65 16.74-5.41 33.93-6.68 51.3-7.04 7.14-.15 10.52-3.94 10.07-11.25-.38-6.12-.82-12.24-1.32-19.54 3.95 1.84 7.32 2.84 10.03 4.76 8.08 5.74 13.69 13.48 16.54 22.98.76 2.54.77 5.57.24 8.2-2.4 11.83-5.09 23.59-7.72 35.37-5.62 25.19.54 47.36 17.01 66.93 6.02 7.15 12.96 13.22 21.12 18.62 12.44-21.12 19.2-42.21 3.73-64.87 4.68-.68 8.44-.57 11.68 3.66 4.41 5.76 9.33 11.21 14.57 16.22 5.25 5.03 6.25 11.11 6.08 17.74-.19 7.23-2.91 13.67-6.22 19.98-3.53 6.72-6.73 13.62-10.11 20.42-1.09 2.19-.61 3.69 1.09 5.58 9.99 11.08 21.32 20.34 34.7 27.1 5.85 2.96 10.01 7.78 12.69 14.24-3.29 2.11-6.82 3.54-10.65 2.21-7.14-2.49-14.35-4.81-20.3-9.92-8.46-7.27-18.75-11.21-29.05-14.97-.78-.29-2.37.65-3.14 1.45-5.8 6.07-11.35 12.38-17.25 18.34-5.36 5.41-11.66 9.36-19.83 10.31-1.67-3.99-3.21-8.04-5.08-11.93-.66-1.37-1.92-2.74-3.26-3.43-10.81-5.55-22.63-7.61-34.47-9.34-9.82-1.44-19.7-2.49-29.59-3.26-4.65-.36-9.39.21-14.06.66-1.3.13-2.94 1.02-3.67 2.08-3.76 5.5-5.32 11.87-5.7 18.37-.96 16.27 1.23 32.1 7.19 47.38 3.28 8.41 10.46 12.91 17.17 17.83 15.07 11.05 32.33 16.27 50.64 18.97 25.53 3.76 51.08 2.93 76.69 1.63 8.11-.41 16.29.01 24.41.46 2.63.14 5.18 1.59 7.77 2.44 0 .34.03.73.06 1.11zm-201.08-182c7.27 8.48 13.27 16.18 20.02 23.14 5.8 5.97 9.3 12.28 7.79 20.76-.37 2.09.37 3.11 2.74 3.55 15.05 2.76 30.1 5.55 45.08 8.68 8.47 1.77 17.36 2.04 25.2 6.39 3.91 2.16 7.85 4.27 11.86 6.24 6.53 3.22 13.29.18 15.22-6.75 1.08-3.87 1.99-7.8 3.26-11.6.64-1.91.23-3.12-1.14-4.4-7.7-7.15-15.27-14.44-23.05-21.5-8.42-7.64-13.61-16.9-15.8-28.08-.8-4.07-2.44-8.17-4.58-11.73-2.55-4.25-6.87-5.99-11.89-4.83-14.47 3.34-29 6.47-43.35 10.26-10.33 2.72-20.4 6.38-31.36 9.87zm81.28-60.39c.12-4.07-1.65-6.63-5.23-8.01-4.17-1.6-8.33-3.23-12.6-4.51-1.69-.51-3.77-.51-5.48-.05-20.94 5.6-41.91 11.15-62.76 17.09-18.07 5.15-35.79 11.12-51.02 22.85-5.88 4.53-8.4 10.45-8.85 17.26-.39 5.95 2.66 11.59 10.49 10.6 3.24-.41 6.45-1.66 9.5-2.94 7.3-3.05 14.33-6.78 21.76-9.45 11.98-4.29 24.03-8.58 36.34-11.74 20.24-5.2 40.71-9.47 61.07-14.22 1.13-.26 2.75-1.09 3.02-1.99 1.45-4.89 2.55-9.91 3.76-14.89z" fill="#000001"/></svg>