<svg enable-background="new 0 0 400 400" viewBox="0 0 400 400" xmlns="http://www.w3.org/2000/svg"><g fill="#fbfafa"><path d="m37.59 393.81c-.92.31-1.52.05-2-.78-.7-1.2-1.52-2.34-2.47-3.78v4.59c-.55.03-.95.05-1.41.07-.03-.37-.06-.64-.06-.91 0-1.91 0-3.81 0-5.7 1.13-.41 1.77-.03 2.29.91.62 1.11 1.38 2.14 2.31 3.19v-4.2h1.35v6.61z"/><path d="m12.94 393.88v-6.75c1.9.19 3.93-.54 5.37 1.29.8 1.01.78 2.88.03 3.97-1.37 1.97-3.4 1.51-5.4 1.49m1.45-1.22c2.04.12 2.92-.58 2.89-2.21-.03-1.51-.98-2.19-2.89-2z"/><path d="m11.81 393.87h-5.49c.68-2.18 2.47-3.48 3.51-5.45h-3.08v-1.21h5.29c-.71 2.13-2.44 3.48-3.47 5.51.86 0 1.63.04 2.39-.01.79-.05 1.14.21.85 1.16"/><path d="m39.33 393.86v-6.61h3.7v1.07h-2.22v1.52c.68.04 1.34.09 2.07.13v1.07c-.72.05-1.38.09-2.1.14v1.48h2.4v1.19h-3.85z"/><path d="m27.71 388.56c-1.15-.3-2.46-.61-3.1.64-.37.73-.41 1.93-.06 2.67.63 1.35 1.99.93 3.17.68.35.94-.01 1.32-.93 1.46-1.62.25-3.05-.27-3.76-1.48-.73-1.24-.6-3.03.31-4.17.88-1.11 2.71-1.7 4-1.16.32.13.44.74.65 1.12-.1.08-.19.16-.28.24"/><path d="m49.15 387.24v1.07c-.59.02-1.17.05-1.87.08v5.44h-1.48v-5.44h-1.85c-.05-.4-.08-.73-.13-1.15z"/><path d="m20.06 387.21h1.33v6.62h-1.33z"/><path d="m30.68 393.25c-.49.38-.8.79-1.05.76-.32-.05-.6-.45-.9-.7.26-.24.51-.64.8-.67.29-.04.62.3 1.15.61"/></g><path d="m226.31 332.52c-3.04.39-4.85-.58-6.16-3.18-2.31-4.58-4.97-8.99-7.6-13.68 3.07-1.97 6.23-1.38 9.35-.85 1.97.34 4.27 1.33 5.24-1.22.86-2.28 1.04-4.7-1.31-6.7-2.03-1.73-3.56-4.04-5.58-5.78-1.86-1.61-4.06-2.8-6.12-4.18-.3.24-.6.49-.9.73.3 2.4.59 4.8.91 7.19.12.89.72 1.95.41 2.6-.65 1.35-1.52 2.9-2.73 3.61-1.8 1.04-2.31-.77-2.97-2.1-2.9-5.84-4.09-12.06-4.12-18.5-.02-5.02-2.12-8.92-6.03-11.77-3.33-2.43-6.83-4.71-10.5-6.59-1.36-.7-3.44-.23-5.14.03-4.07.63-4.92-.15-4.15-4.19 2.34-12.3 5.46-24.54 4.48-37.19-.51-6.53-1.62-13.03-2.87-19.46-.62-3.17-2.86-5.03-6.19-6.3-2.7-1.03-4.86-3.73-6.95-5.97-1.6-1.71-2.87-2.05-5.17-1.24-4.78 1.69-8.74 4.23-11.84 8.28-2.11 2.75-4.42 5.39-6.97 7.72-2.58 2.36-5.43 4.49-8.43 6.29-1.63.97-2.56 1.88-2.65 3.77-.13 2.57-.61 5.13-.57 7.69.01.99.81 2.52 1.63 2.84 4 1.57 8.05 3.29 12.24 4.06 5.01.92 8.85 2.85 11.19 8.34-3.98.41-7.75.97-11.55 1.14-2.34.11-4.34.55-5.1 2.92-.78 2.44-2.28 4.91-.11 7.56.85 1.04 1.42 2.58 1.5 3.92.33 6.03 0 12.12.73 18.09 1.1 8.97-.93 17.28-3.75 25.6-1.54 4.54-2.78 9.19-4.08 13.81-2.72 9.69.61 17.73 6.75 25.09 4.21 5.05 8.27 10.24 12.21 15.52 1.24 1.66 1.85 3.78 2.75 5.68-.22.31-.44.63-.66.94-1.62-.94-3.59-1.57-4.8-2.89-2.64-2.88-4.65-6.35-7.38-9.12-2.75-2.79-6.07-5.02-9.41-7.72-2.67 3.24-4.77 5.8-6.84 8.32 0-6.23-.08-12.4.02-18.56.22-14.79 4.48-28.91 7.38-43.25 3.49-17.28 2.15-33.82-7.22-49.19-4.21-6.91-3.62-14.02-.22-20.83 2.06-4.13 4.81-8.09 7.95-11.47 6.94-7.45 14.29-14.52 21.55-21.67 1.42-1.4 1.99-2.61 1.37-4.68-1.25-4.15-2.13-8.42-3.28-13.1-3.17.73-6.18 1.41-9.17 2.13-1.74.42-3.44 1.2-5.19 1.3-1.46.08-2.97-.58-4.45-.91.73-1.37 1.1-3.29 2.24-4.02 4.95-3.19 9.22-8.18 17.03-6.14-.61-3.7-.89-6.63-1.59-9.46-2.08-8.37-7.13-14.63-13.95-19.8-6.26-4.75-11.94-10.18-14.94-17.77-.19-.49-.35-1-.52-1.5.22-.25.44-.49.67-.74 3.22 2.64 6.3 5.48 9.71 7.87 3.45 2.41 7.21 4.38 10.92 6.58 2.42-2.88 3.03-4.87.97-8.2-4.33-7.01-7.76-14.57-11.65-21.86-1.99-3.74-3.88-7.6-6.36-11-1.78-2.43-4.47-4.2-6.52-6.05-4.86 2.28-1.21 9.2-7.31 10.34-4.5-14.2-2-28.6-1.88-43.06 2.88.22 4.16 2.18 4.55 4.31.57 3.15.51 6.42.71 9.64.23 3.66.33 7.34.72 10.99.24 2.26 1.5 3.32 4.08 3.3 6.15-.05 12.3.53 18.45.41 5.79-.12 11.6-.52 17.33-1.35 5.62-.82 9.82 1.01 13.42 5.42-1.9 1.57-3.84 3.04-5.63 4.69-5.86 5.4-8.68 11.81-6.51 19.89.27 1 .35 2.35-.11 3.2-2.27 4.31-1.46 8.65-.53 13.05.76 3.62 2.61 4.62 5.75 2.72 3.54-2.14 6.91-4.56 10.37-6.83.72-.48 1.51-.86 2.25-1.28 1.4 3.72.66 6.48-1.96 9.51-5.81 6.7-10.57 14.17-13.04 22.85-1.25 4.38.58 6.67 5.23 6.51 1.89-.06 3.76-.56 5.64-.8 4.84-.61 8.06 1.63 8.31 6.41.22 4.33-.12 8.71-.59 13.04-.13 1.16-1.49 2.3-2.48 3.24-3.32 3.14-6.76 6.16-10.09 9.29-.52.49-.7 1.35-1.14 2.26.98.69 1.82 1.37 2.76 1.92 6.81 3.97 12.07 9.42 16.51 15.93 2 2.94 5.19 5.14 8.02 7.44 2.25 1.83 4.16 3.69 4.16 7.04-3.84 0-7.55 0-11.52 0 .48 3.26.61 6.53 1.49 9.59 1.61 5.58 1.31 11.03.09 16.58-.53 2.4-.54 4.92-1.19 7.27-1.01 3.64.21 5.44 3.79 6.48 8.19 2.38 15.3 6.56 20.94 13.17.96 1.12 3.14 1.88 4.65 1.73 5.57-.55 10.32 1.29 14.85 4.16 1.32.84 2.64 1.69 3.99 2.47 7.32 4.23 13.81 8.92 15.91 18.05.77 3.37 3.76 6.23 5.73 9.33.4-.09.79-.17 1.19-.26-.71 1.01-1.43 2.03-2.35 3.33-2.31-3.08-3.32-7.34-8.27-6.56-1.93 3.87-1.49 7.97-.82 12.05.49 2.97 1.3 5.91 1.65 8.89.17 1.49-.37 3.07-.59 4.6-.31.03-.62.05-.93.08-1.67-2.58-3.31-5.18-5.03-7.72-.87-1.29-1.79-2.59-2.86-3.71-4.91-5.15-12.96-3.38-14.74 3.46-.47 1.73.93 3.96 1.52 6.14zm-89.44-241.04c2.21 4.63 3.7 8.73 6.07 12.22.96 1.42 3.87 2.04 5.9 2.06 2.26.03 3.7-1.77 3.97-4.21.24-2.21.58-4.41.83-6.61.37-3.31-1.41-5.51-4.43-5.44-3.88.1-7.73 1.19-12.34 1.98zm107.93 212.96c-.25-9.67-9.58-10.62-14.06-16.12-1.37.68-2.51 1.25-3.92 1.95 3.19 4.96 6.21 9.75 9.36 14.44.38.56 1.48 1 2.18.92 2.08-.22 4.13-.74 6.44-1.19zm-78.25-130.06c3.39-.98 5.01-3.36 4.9-6.67-.03-.86-1.86-2.51-2.21-2.35-1.62.73-3.46 1.68-4.4 3.1-1.54 2.3-.58 4.45 1.71 5.92z" fill="#010000"/><path d="m223.86 115.58c10.61 8.34 13.37 18.98 10.91 31.58-.65 3.31-.35 6.91.11 10.3.83 6.08 4.21 9.32 10.33 9.16 5.54-.14 11.04-1.37 16.56-2.12.22-.03.43-.11.65-.15 7.27-1.33 7.98-1.76 9.22-9.26 1.84-11.07.98-22.07-1.91-32.91-.22-.82-.79-1.57-1.31-2.27-.51-.7-1.16-1.31-1.76-1.98 4.97-3.14 10.06-.82 10.2 4.72.53 21.13.91 42.27 1.4 63.4.03 1.41.37 2.87.84 4.21 3.3 9.35 4.06 18.98 3.33 28.78-.09 1.21-.69 2.38-1.45 3.55-2.66-4.47-4.57-9.03-4.65-14.17-.04-2.98.02-6.11-3.36-7.36-3.68-1.37-7.4-3.24-11.36-.34-3.19 2.34-6.78 2.48-10.55 1.37-2.45-.72-4.98-1.34-7.51-1.57-4-.38-6.35 1.54-6.71 5.61-.22 2.52.13 5.11.46 7.65.58 4.5-.71 7.13-5.47 9.27-1.01-3.44-2.48-6.72-2.86-10.12-.71-6.49-1.7-12.84-4.48-18.81-.36-.78-.94-2.01-.62-2.47 3.45-4.94 1.36-10.18.83-15.25-.64-6.13-.79-12.13-.04-18.31 1.72-14.07.81-28.16-.8-42.51zm38.43 79.7c2.43-.57 6.1-1.36 9.73-2.31 3.01-.79 4.06-2.59 2.79-5.66-.59-1.42-.91-3.01-1.03-4.55-.3-3.83-2.21-5.19-6.06-5.8-10.1-1.6-20.07-2.99-29.89 1.11-.9.37-2.25 1.5-2.17 2.1.52 3.71 1.29 7.4 2.25 11.02.2.76 1.5 1.64 2.37 1.74 6.86.83 13.75 1.49 22.01 2.35z" fill="#010000"/><path d="m176.82 357.63c1.28 5.31 2.58 10.71 3.88 16.09-3.03 1.85-4.56.7-5.62-2.12-4.51-12.07-4.65-24.24-.97-36.51.18-.61.46-1.43.94-1.69 3.57-1.94 2-4.47.79-6.85-1.66-3.27-3.52-6.45-5.21-9.71-2.33-4.5-7.97-5.56-11.49-1.97-4.26 4.33-9.61 6.33-15.53 7.69 0-1.82 0-3.46 0-5.23.83-.17 1.58-.47 2.32-.45 7.67.19 10.87-5.26 13.53-11.05.59-1.28.1-3.46-.63-4.83-1.3-2.45-3.29-4.52-4.73-6.91-.71-1.17-.77-2.71-1.23-4.05-.24-.68-.61-1.38-1.09-1.9-1.1-1.18-2.3-2.26-3.46-3.38.19-.23.38-.47.57-.7 1.52 1.17 3.09 2.29 4.55 3.54.75.65 1.34 1.5 1.93 2.31 4.24 5.94 7.96 12.77 17.33 9.38 1.01 4.53 1.96 8.42 2.72 12.34.32 1.68 1.01 2.59 2.77 2.58.67 0 1.34.28 2 .22 10.67-1 17.14 5.68 23.16 12.89 9.24 11.07 13.31 24.09 13.46 38.58-3.42-14.59-9.06-27.68-23.33-35.26-3.31 4.12-2.03 8.51-.37 12.59 1.58 3.9 4.89 5.88 9.48 5.61-.26.73-.35 1.27-.62 1.71-2.76 4.56-4.12 9.16-2.04 14.54.94 2.44.74 5.36-1.23 8.48-2.48-4.3-4.64-8.02-6.79-11.74-3.7-6.45-8.02-7.72-15.09-4.2zm9.91-10.08c-1.33-2.89-2.1-5.4-3.55-7.4-.83-1.14-2.74-1.75-4.26-1.99-.42-.07-1.43 2-1.74 3.2-.9 3.54 1.58 5.81 3.92 7.42 1.01.69 3.46-.69 5.63-1.23z" fill="#010000"/><path d="m141.2 24.96c3.61.9 4.29 3.51 4.82 5.95 1.85 8.5 3.82 17 5.09 25.59.53 3.6-.33 7.5-1.11 11.14-.25 1.16-2.16 2.28-3.53 2.74-.56.19-2.02-1.27-2.57-2.25-3.2-5.79-4.77-12.05-4.42-18.65.42-8.12 1.12-16.22 1.72-24.52z" fill="#010000"/><path d="m177.75 78.71c-.57-5.92-1.37-11.77-1.55-17.64-.05-1.73 1.65-3.51 2.53-5.24-4.75-3.66-6.99-5.09-1.34-13.99-4.05-2.46-3.03-6.29-2.77-9.95.31-.23.62-.47.93-.7 1.37 1.66 3.24 3.13 3.99 5.04.99 2.53 1.41 5.4 1.54 8.15.31 6.69.53 13.39.33 20.08-.06 2.14-1.55 4.23-2.47 6.53 2.47 3.86 2.25 6.74-1.19 7.72z" fill="#010000"/><path d="m163.33 255.27c4.52 1.71 4.29 4.9-.5 10.21.17-3.62.32-6.72.5-10.21z" fill="#010000"/><path d="m161.6 246.46c1.21-1.07 2.11-1.86 3.58-3.15.48 2.86.87 5.16 1.26 7.46-.37.14-.73.29-1.1.43-1.18-1.49-2.35-2.97-3.74-4.74z" fill="#010000"/></svg>