<svg viewBox="0 0 400 400" xmlns="http://www.w3.org/2000/svg"><rect width="400" height="400" fill="white" /><g fill="#fafafb"><path d="m12.4 4.8-6.1 9h6v1.2h-8v-.5l6.1-8.9h-5.7v-1.2h7.6v.4z"/><path d="m14 15v-10.6h3c1.6 0 2.9.5 4 1.4s1.6 2.2 1.6 3.8-.5 3-1.6 3.9-2.4 1.5-4 1.5zm1.4-9.4v8.2h1.6c1.3 0 2.4-.4 3.1-1.1s1.1-1.8 1.1-3.1-.4-2.3-1.2-3-1.8-1-3.1-1z"/><path d="m26.1 4.4v10.6h-1.4v-10.6z"/><path d="m36.1 14.6c-.8.4-1.8.6-2.9.6-1.5 0-2.7-.5-3.6-1.4s-1.4-2.2-1.4-3.8c0-1.7.5-3.1 1.5-4.1s2.3-1.6 3.9-1.6c1 0 1.8.1 2.5.4v1.4c-.8-.4-1.6-.6-2.5-.6-1.2 0-2.1.4-2.9 1.2s-1.1 1.8-1.1 3.2c0 1.3.3 2.3 1 3s1.6 1.1 2.7 1.1c1 0 2-.2 2.7-.7v1.3z"/><path d="m37.6 14.3c0-.2.1-.5.3-.6s.4-.3.6-.3c.3 0 .5.1.6.3s.3.4.3.6-.1.4-.3.6-.4.3-.6.3c-.3 0-.5-.1-.6-.3s-.3-.4-.3-.6z"/><path d="m50.2 15h-1.6l-5.3-8.2c-.2-.2-.3-.5-.4-.7 0 .2.1.7.1 1.5v7.4h-1.4v-10.6h1.7l5.2 8.1c.2.4.4.6.4.7 0-.3-.1-.8-.1-1.5v-7.3h1.4z"/><path d="m58.6 15h-5.7v-10.6h5.5v1.2h-4.1v3.4h3.8v1.2h-3.8v3.6h4.3z"/><path d="m67.1 5.6h-3.1v9.4h-1.4v-9.4h-3v-1.2h7.5z"/></g><path d="m202.51 374.81c-1.81-12.09-1.31-23.4.91-34.85 2.21-11.38 3.43-22.96 2.55-34.69-.54-7.22.05-14.52-.28-21.77-.7-15.15-9.01-25.83-20.32-35.09-8.75-7.17-18.63-10.29-29.58-11.19-3.56-.29-7.12-.81-10.63-1.49-.91-.18-2.13-1.27-2.26-2.1-.12-.75.84-2.08 1.67-2.51 19.36-10.12 28.81-26.46 29.64-47.89.36-9.25-.51-18.53-.44-27.8.04-6.13 1.09-12.26 1.09-18.39-.01-15.78.09-31.58-.67-47.33-.9-18.75 6.92-32.96 20.75-44.73 10.07-8.56 20.51-16.31 33.84-18.96 1.18-.23 2.42-.21 3.64-.21 3.22-.02 6.46.23 9.66-.03 2.87-.24 5.36.03 7.21 2.45 1.22 1.59 1.76 3.14.48 5.15-1.61 2.54-2.7 5.41-4.27 7.98-1.81 2.96-2.82 6.01-2.49 9.52.1 1.06-.23 2.23-.63 3.24-3.42 8.75-4.74 17.88-5.44 27.19-1.34 17.96-2.94 35.91-4.42 53.86-.08 1-.43 2.15-.08 2.99 3 7.09.69 14.04-.14 21.11-.68 5.75-.56 11.59-.71 17.4-.24 9.07.37 18.05 1.78 27.06.96 6.1.19 12.46.39 18.69.77 22.92 1.17 45.86 2.56 68.74 1.37 22.43 3.8 44.8 5.69 67.21.19 2.2.03 4.48-.33 6.66-.53 3.21-2.38 5.48-5.62 6.45-10.95 3.24-22.21 3.17-33.55 3.33zm30.31-340.12c-8.9 4.61-17.78 8.85-26.29 13.73-9.54 5.47-16.18 13.6-19.65 24.15-3.29 10-4.54 20.34-4.14 30.76.39 10.15 1.84 20.26 2.33 30.41.58 11.84.52 23.71.94 35.56.2 5.54-.21 10.92-2.01 16.19-.34 1.01-.67 2.36-.27 3.22 1.35 2.88.41 5.41-.62 8.04-1.1 2.81-2.37 5.59-3.07 8.51-2.03 8.53-6.46 15.19-13.92 19.98-3.09 1.98-2.78 4.4.41 6.37 1.12.69 2.43 1.13 3.7 1.5 15.08 4.32 28.67 10.62 35.51 26.12.13.3.32.6.53.86 6.72 8.49 8.44 18.66 9.03 28.96.43 7.56-.1 15.2-.62 22.77-.96 13.81-.73 27.74-4.39 41.29-.73 2.72-.44 5.79-.2 8.66.08.97 1.31 2.44 2.25 2.65 6.01 1.31 11.97 1.18 17.75-1.34 2.12-.93 3.13-1.84 2.33-4.51-3.7-12.34-4.77-24.94-3.75-37.81.36-4.6-.72-9.31-1.16-13.97-.2-2.1-.65-4.2-.64-6.29.09-19.8.94-39.58-.58-59.38-.93-12.14-.99-24.36-1.33-36.54-.13-4.46.04-8.94.1-13.4.19-13.36-2.77-26.79.95-40.07.15-.52.05-1.11.05-1.67 0-11.42-.06-22.83.02-34.25.05-7.15-.24-14.36.58-21.43 1.96-17.08 3.21-34.3 8.23-50.9.83-2.83.43-5.58-2.07-8.17z" fill="#010105"/></svg>