<svg viewBox="0 0 400 400" xmlns="http://www.w3.org/2000/svg"><rect width="400" height="400" fill="white" /><g fill="#fafafb"><path d="m12.4 4.8-6.1 9h6v1.2h-8v-.5l6.1-8.9h-5.7v-1.2h7.6v.4z"/><path d="m14 15v-10.6h3c1.6 0 2.9.5 4 1.4s1.6 2.2 1.6 3.8-.5 3-1.6 3.9-2.4 1.5-4 1.5zm1.4-9.4v8.2h1.6c1.3 0 2.4-.4 3.1-1.1s1.1-1.8 1.1-3.1-.4-2.3-1.2-3-1.8-1-3.1-1z"/><path d="m26.1 4.4v10.6h-1.4v-10.6z"/><path d="m36.1 14.6c-.8.4-1.8.6-2.9.6-1.5 0-2.7-.5-3.6-1.4s-1.4-2.2-1.4-3.8c0-1.7.5-3.1 1.5-4.1s2.3-1.6 3.9-1.6c1 0 1.8.1 2.5.4v1.4c-.8-.4-1.6-.6-2.5-.6-1.2 0-2.1.4-2.9 1.2s-1.1 1.8-1.1 3.2c0 1.3.3 2.3 1 3s1.6 1.1 2.7 1.1c1 0 2-.2 2.7-.7v1.3z"/><path d="m37.6 14.3c0-.2.1-.5.3-.6s.4-.3.6-.3c.3 0 .5.1.6.3s.3.4.3.6-.1.4-.3.6-.4.3-.6.3c-.3 0-.5-.1-.6-.3s-.3-.4-.3-.6z"/><path d="m50.2 15h-1.6l-5.3-8.2c-.2-.2-.3-.5-.4-.7 0 .2.1.7.1 1.5v7.4h-1.4v-10.6h1.7l5.2 8.1c.2.4.4.6.4.7 0-.3-.1-.8-.1-1.5v-7.3h1.4z"/><path d="m58.6 15h-5.7v-10.6h5.5v1.2h-4.1v3.4h3.8v1.2h-3.8v3.6h4.3z"/><path d="m67.1 5.6h-3.1v9.4h-1.4v-9.4h-3v-1.2h7.5z"/></g><path d="m148.85 25.05c8.46 5.13 16.59 10.23 24.91 15.01 2.83 1.63 6.04 2.82 9.23 3.58 19.82 4.72 35.79 14.79 46.2 32.7 2.54 4.37 3.46 9.27 2.85 14.25-1.57 12.91.59 25.68 1.07 38.52.15 3.94-.59 7.92-.94 11.88-.1 1.09-.62 2.28-.33 3.25 1.87 6.25 2 12.58.95 18.92-1.08 6.47.54 12.67 1.55 18.93 1.67 10.26 3.22 20.55 5.32 30.73.69 3.32 2.39 6.8 4.62 9.36 3.82 4.39 4.33 9.16 3.38 14.39-.14.75-1.35 1.66-2.22 1.88-7.12 1.78-14.13.87-21.18-.81-10.86-2.59-21.81-4.79-32.68-7.31-2.31-.54-3.63.36-4.13 2.2-.73 2.66-1.07 5.44-1.4 8.19-.34 2.75-.03 5.66-.8 8.27-1.38 4.65-2.55 9.06-1.24 14.05.59 2.25-.6 5.01-1.16 7.5-1.8 8.06-4.22 16.04-3.37 24.45.14 1.34.88 2.6 1.26 3.92.48 1.68 1.2 3.37 1.24 5.07.18 9.93 1.59 19.6 5.85 28.66 1.03 2.19 2.41 4.28 3.94 6.16 3.6 4.43 7.45 8.65 11.08 13.05 2.94 3.56 6 6.88 10.3 8.89.88.41 1.86 1.75 1.86 2.66.02 3.56-.34 7.12-.58 11.04-1.02-.23-1.99-.18-2.63-.62-9.19-6.32-18.97-11.81-26.56-20.32-11.19-12.55-17.25-27.28-19.54-43.71-2.77-19.86-2.14-39.72.67-59.53.14-.99.37-2 .76-2.91 5.55-12.98 6.62-26.87 7.85-40.65 1.44-16.03 2.23-32.09 4.34-48.08 2.03-15.38.19-30.82-2.89-46.04-4.48-22.11-12.35-43.13-20.75-63.95-1.66-4.12-4.29-7.84-6.26-11.84-1.78-3.6-2.64-7.37-.57-11.74z" fill="#010105"/></svg>