<svg viewBox="0 0 400 400" xmlns="http://www.w3.org/2000/svg"><rect width="400" height="400" fill="white" /><g fill="#fcfafa"><path d="m342.2 3.2-6.3 9.2h6.1v1.2h-8.2v-.5l6.2-9.1h-5.7v-1.2h7.8v.4z"/><path d="m344 13.7v-10.9h3.1c1.6 0 3 .5 4.1 1.4 1.1 1 1.6 2.2 1.6 3.9s-.5 3-1.6 4-2.5 1.5-4.2 1.5h-3zm1.4-9.6v8.4h1.6c1.4 0 2.5-.4 3.2-1.1.8-.8 1.2-1.8 1.2-3.2s-.4-2.4-1.2-3.1-1.8-1-3.1-1z"/><path d="m356.3 2.8v10.9h-1.4v-10.9z"/><path d="m366.6 13.2c-.8.4-1.8.6-3 .6-1.6 0-2.8-.5-3.7-1.5s-1.4-2.3-1.4-3.9c0-1.7.5-3.2 1.6-4.2s2.4-1.6 4-1.6c1 0 1.9.1 2.6.4v1.5c-.8-.4-1.6-.6-2.6-.6-1.2 0-2.2.4-3 1.2s-1.1 1.9-1.1 3.3c0 1.3.4 2.3 1.1 3.1s1.6 1.1 2.8 1.1c1.1 0 2-.2 2.8-.7v1.3z"/><path d="m368.2 13c0-.3.1-.5.3-.6.2-.2.4-.3.6-.3.3 0 .5.1.7.3s.3.4.3.6-.1.5-.3.6c-.2.2-.4.3-.7.3s-.5-.1-.6-.3c-.2-.2-.3-.4-.3-.6z"/><path d="m381.1 13.7h-1.7l-5.5-8.4c-.2-.2-.3-.5-.4-.7 0 .2.1.8.1 1.5v7.6h-1.4v-10.9h1.8l5.3 8.3c.3.4.4.6.4.8 0-.3-.1-.8-.1-1.6v-7.5h1.4v10.9z"/><path d="m389.7 13.7h-5.8v-10.9h5.6v1.2h-4.2v3.5h3.9v1.2h-3.9v3.7h4.4z"/><path d="m398.4 4.1h-3.1v9.6h-1.4v-9.6h-3.1v-1.3h7.7v1.3z"/></g><path d="m186.05 161.67c.6 1.24 1.12 2.32 1.75 3.62-14.1 15.19-27.7 31.05-45.71 42.07-4.49 2.75-9.61 4.47-14.94 6.9-.33-7.37-1.52-13.91 4.17-19.17 2.19-2.02 3.74-4.73 5.55-7.15 6.43-8.6 13.22-16.77 21.33-24 14.88-13.26 26.42-29.41 37.79-45.68 4.85-6.94 10.61-13.25 15.59-20.12 2.09-2.88 3.92-6.31 4.64-9.75.88-4.21-.11-8.19-4.48-10.92-13.04-8.14-23.8-18.78-33.18-30.94-4.14-5.37-8.4-10.7-14.3-14.51-1.82-1.17-2.5-4.12-3.95-6.69 1.19 0 1.4-.06 1.56.01 20.86 8.89 41.85 17.5 62.53 26.8 12.81 5.76 24.15 14.01 34.66 23.38 6.76 6.03 13.88 11.67 20.56 17.8 3.5 3.21 6.58 6.95 9.47 10.74 1.7 2.22 2.93 5.04-1.1 7.3 10.71 3.66 14.48 12.4 17.31 21.61 5.08 16.53 8.87 33.47 15.84 49.4.42.97.4 2.18.37 3.28-.26 11.08-.31 22.17-.97 33.22-.25 4.14-1.73 8.25-2.99 12.27-5.44 17.28-11.26 34.41-20.31 50.23-1.16 2.02-2.42 4.03-3.94 5.78-10.55 12.19-21.16 24.32-31.79 36.44-1.17 1.34-2.49 2.58-3.89 3.67-9.19 7.15-18.57 14.06-27.58 21.42-4.73 3.86-9.71 6.65-15.77 7.44-3.23.42-5.92 1.72-7.9 4.45-2.39 3.29-5.69 5.03-9.65 6.09-8.42 2.26-16.72 4.95-25.08 7.41-1.15.34-2.41.63-3.59.54-11.93-.93-23.86-1.92-35.79-2.97-1.29-.11-2.63-.52-3.8-1.1-6.31-3.13-12.47-6.58-18.88-9.49-5.14-2.34-9.34-5.7-12.97-9.87-9.06-10.42-17.21-21.46-23.19-33.98-.57-1.2-.99-2.47-1.58-3.97 3.33-.76 6.22-1.22 8.29 2.2.74 1.22 1.78 2.39 2.96 3.18 11.6 7.75 22.3 16.95 35.2 22.62 11.91 5.23 24.69 5.94 37.48 6.27 4.35.11 8.69.53 13.04.65 1.26.03 2.66-.23 3.8-.77 11.43-5.38 22.83-10.83 34.21-16.31 1.19-.57 2.31-1.38 3.29-2.25 12.04-10.72 24.07-21.45 36.04-32.24 1.73-1.56 3.29-3.36 4.65-5.24 5.37-7.44 10.4-15.14 15.99-22.4 7.29-9.47 12.19-20 15.25-31.47 1.73-6.48 2.95-13.15 5.32-19.39 5.59-14.73 1.97-29.05-1.05-43.47-.37-1.75-.74-3.5-1.02-5.27-.88-5.53-2.44-10.67-5.39-15.65-3.73-6.31-6.33-13.29-9.36-20-2.83-6.27-6.39-11.93-13.17-14.44-1.5-.55-3.82-.37-5.18.45-14.67 8.8-29.3 17.7-43.77 26.83-3.16 1.99-5.86 4.85-8.39 7.64-2.89 3.18-6.19 5.36-10.37 6.29-1.16.28-2.28.77-3.61 1.21zm46.23-70.25c3.1-3.75 2.94-5.49-.88-7.93.3 2.73.58 5.27.88 7.93z" fill="#010103"/></svg>