<svg viewBox="0 0 400 400" xmlns="http://www.w3.org/2000/svg"><rect width="400" height="400" fill="white" /><g fill="#fbfafa"><path d="m37.59 393.81c-.92.31-1.52.05-2-.78-.7-1.2-1.52-2.34-2.47-3.78v4.59c-.55.03-.95.05-1.41.07-.03-.37-.06-.64-.06-.91 0-1.91 0-3.81 0-5.7 1.13-.41 1.77-.03 2.29.91.62 1.11 1.38 2.14 2.31 3.19v-4.2h1.35v6.61z"/><path d="m12.94 393.88v-6.75c1.9.19 3.93-.54 5.37 1.29.8 1.01.78 2.88.03 3.97-1.37 1.97-3.4 1.51-5.4 1.49m1.45-1.22c2.04.12 2.92-.58 2.89-2.21-.03-1.51-.98-2.19-2.89-2z"/><path d="m11.81 393.87h-5.49c.68-2.18 2.47-3.48 3.51-5.45h-3.08v-1.21h5.29c-.71 2.13-2.44 3.48-3.47 5.51.86 0 1.63.04 2.39-.01.79-.05 1.14.21.85 1.16"/><path d="m39.33 393.86v-6.61h3.7v1.07h-2.22v1.52c.68.04 1.34.09 2.07.13v1.07c-.72.05-1.38.09-2.1.14v1.48h2.4v1.19h-3.85z"/><path d="m27.71 388.56c-1.15-.3-2.46-.61-3.1.64-.37.73-.41 1.93-.06 2.67.63 1.35 1.99.93 3.17.68.35.94-.01 1.32-.93 1.46-1.62.25-3.05-.27-3.76-1.48-.73-1.24-.6-3.03.31-4.17.88-1.11 2.71-1.7 4-1.16.32.13.44.74.65 1.12-.1.08-.19.16-.28.24"/><path d="m49.15 387.24v1.07c-.59.02-1.17.05-1.87.08v5.44h-1.48v-5.44h-1.85c-.05-.4-.08-.73-.13-1.15z"/><path d="m20.06 387.21h1.33v6.62h-1.33z"/><path d="m30.68 393.25c-.49.38-.8.79-1.05.76-.32-.05-.6-.45-.9-.7.26-.24.51-.64.8-.67.29-.04.62.3 1.15.61"/></g><path d="m177.2 224.18c-3.05 7.42-5.75 14.52-8.89 21.42-2.83 6.22-6.84 11.51-14.16 14.15-1.56-8.38-2.62-16.34 2.59-23.65 3.87-5.43 4.95-11.7 5.57-18.06.59-6.07 1.52-12.02 4.61-17.34 3.77-6.49 3.6-13.25 2.63-20.4-1.98-14.52-3.83-29.08-5.02-43.68-.52-6.39.68-12.92 1.22-19.38.47-5.57 1.34-11.12 1.62-16.7.31-6.03 1.71-11.68 4.4-17.06.43-.86.76-1.97.62-2.89-.69-4.8 1.54-8.43 3.91-12.36 3.16-5.23 4.97-11.3 8.25-16.43 3.39-5.3 7.79-9.97 11.92-14.77 1.04-1.21 2.77-1.83 4.17-2.73 2.8-1.79 5.74-3.4 8.36-5.43 4.04-3.14 8.31-4.77 12.97-1.97 5.42 3.27 10.75 6.75 15.77 10.6 3.23 2.47 4.5 5.94 2.13 10.05-1.15 1.98-1.75 4.28-2.84 7.07-1.99-1.29-3.78-2.16-5.2-3.43-3.25-2.91-6.18-6.18-9.48-9.02-5.21-4.48-10.19-3.8-15.65.25-8.93 6.63-13.44 16.21-18.66 25.43-3.32 5.87-6.21 11.68-6.51 18.72-.14 3.4-2.43 6.67-3.46 10.08-.73 2.42-1.14 4.96-1.41 7.48-.76 7.09-1.5 14.19-1.98 21.3-.16 2.39.6 4.82.69 7.25.06 1.47.11 3.26-.63 4.38-1.47 2.23-1.33 4 .14 6.06.61.86 1.06 2.07 1.03 3.1-.74 21.89 7.16 42.19 11.54 63.13.23 1.09.59 2.16.79 3.26.74 4.11 2.26 7.6 5.21 10.88 5.21 5.77 6.45 13.41 7.71 20.8 4.02 23.51 2.98 46.88-3.39 69.83-1.86 6.68-5.82 12.77-8.69 19.19-.89 2-1.31 4.22-2 6.32-.83 2.51-1.34 5.23-2.67 7.46-4.97 8.34-10.04 16.65-15.51 24.67-1.32 1.93-4.23 3.01-6.63 3.84-1.09.38-3.15-.43-4.02-1.38-1.35-1.48-1.59-3.37-.34-5.5 3.84-6.56 7.38-13.3 11.1-19.93.58-1.04 1.33-2.18 2.3-2.79 3.37-2.11 4.85-5.38 6.21-8.88 1.86-4.77 4.25-9.36 5.85-14.21 1.59-4.86 2.6-9.92 3.65-14.94 2.31-11.05 4.66-22.11 6.67-33.22 1.26-6.96-.14-13.84-2.04-20.55-2.46-8.69-5.17-17.32-7.72-25.98-1.06-3.62-4.01-3.72-6.73-4.04z" fill="#010000"/></svg>