<svg enable-background="new 0 0 400 400" viewBox="0 0 400 400" xmlns="http://www.w3.org/2000/svg"><g fill="#fbfafa"><path d="m37.59 393.81c-.92.31-1.52.05-2-.78-.7-1.2-1.52-2.34-2.47-3.78v4.59c-.55.03-.95.05-1.41.07-.03-.37-.06-.64-.06-.91 0-1.91 0-3.81 0-5.7 1.13-.41 1.77-.03 2.29.91.62 1.11 1.38 2.14 2.31 3.19v-4.2h1.35v6.61z"/><path d="m12.94 393.88v-6.75c1.9.19 3.93-.54 5.37 1.29.8 1.01.78 2.88.03 3.97-1.37 1.97-3.4 1.51-5.4 1.49m1.45-1.22c2.04.12 2.92-.58 2.89-2.21-.03-1.51-.98-2.19-2.89-2z"/><path d="m11.81 393.87h-5.49c.68-2.18 2.47-3.48 3.51-5.45h-3.08v-1.21h5.29c-.71 2.13-2.44 3.48-3.47 5.51.86 0 1.63.04 2.39-.01.79-.05 1.14.21.85 1.16"/><path d="m39.33 393.86v-6.61h3.7v1.07h-2.22v1.52c.68.04 1.34.09 2.07.13v1.07c-.72.05-1.38.09-2.1.14v1.48h2.4v1.19h-3.85z"/><path d="m27.71 388.56c-1.15-.3-2.46-.61-3.1.64-.37.73-.41 1.93-.06 2.67.63 1.35 1.99.93 3.17.68.35.94-.01 1.32-.93 1.46-1.62.25-3.05-.27-3.76-1.48-.73-1.24-.6-3.03.31-4.17.88-1.11 2.71-1.7 4-1.16.32.13.44.74.65 1.12-.1.08-.19.16-.28.24"/><path d="m49.15 387.24v1.07c-.59.02-1.17.05-1.87.08v5.44h-1.48v-5.44h-1.85c-.05-.4-.08-.73-.13-1.15z"/><path d="m20.06 387.21h1.33v6.62h-1.33z"/><path d="m30.68 393.25c-.49.38-.8.79-1.05.76-.32-.05-.6-.45-.9-.7.26-.24.51-.64.8-.67.29-.04.62.3 1.15.61"/></g><path d="m170.98 67.64c3.7-14.28 7.28-28.1 10.85-41.87 4.1.11 5.6 1.45 6.74 5.25 3.12 10.38 2.55 20.81.34 31.21-1.67 7.89 3.1 16.75 11.49 18.93 9.5 2.47 18.66 6.29 28.18 8.67 9.15 2.29 16.16 7.49 22.36 14.05 6.49 6.86 12.32 14.24 14.29 23.86 1.48 7.22.97 14.42-2.03 21.04-1.5 3.31-4.58 6.01-7.3 8.62-2.3 2.21-3.02 4.56-3 7.69.12 22.28-.01 44.56.1 66.84.05 9.17.54 18.34.75 27.51.03 1.28-.01 2.84-.67 3.82-3.29 4.87-4.55 10.35-5.57 15.99-.97 5.4-3.97 7.83-9.88 8.32-2.01-10.4-1.86-20.88-.99-31.37.69-8.24 1.91-16.45 2.39-24.7.53-9.25-1.35-18.04-7.04-26.06 4.9-4.35 4.08-9.6 2.28-15.06-.59-1.79-.59-3.76-1.02-5.6-.79-3.4-2.63-4.07-5.75-2.81-6.71 2.72-11.62 7.77-17.02 12.28-5.03 4.2-10.39 8.12-16.04 11.41-5.14 2.99-8.05 6.96-8.54 12.73-1.37 16.39-2.93 32.78-3.85 49.2-.36 6.43.42 13 1.38 19.4.88 5.86-.23 10.91-3.15 15.97-1.19 2.06-1.42 4.8-1.6 7.26-.18 2.43.15 4.92.42 7.36.56 4.98-.44 9.64-1.77 14.46-1.28 4.67-.93 9.76-1.62 14.62-.98 6.96-2.04 13.93-3.52 20.8-.57 2.65-2.38 5.04-3.63 7.54-.42-.08-.84-.15-1.27-.23-1.63-6.57-3.51-13.09-4.86-19.72-5.03-24.7-6.07-49.74-5.46-74.83.14-5.61 2.12-11.5 4.51-16.68 4.74-10.27 2.77-20.13-.41-30.04-1.35-4.22-3.55-4.93-7.79-3.48-4.65 1.59-9.23 3.43-13.97 4.67-3.66.96-5.59-.74-5.31-4.3.09-1.1 1.18-2.54 2.21-3.06 9.53-4.82 18.56-10.35 26.08-18.05 2.34-2.4 3.64-5.11 3.78-8.62.6-15.88 1.45-31.76 2.08-47.64.04-1.07-.71-2.53-1.57-3.21-7.08-5.61-14.69-10.15-23.93-11.25-3.83-.45-6.53-2.51-7.96-6.27-1.01-2.65-.41-4.44 2.32-5.04 5.66-1.26 11.36-2.31 17.04-3.45 2.96-.59 5.96-1.02 8.86-1.79 5.03-1.35 6.92-4.11 6.57-9.35-.16-2.34-.84-4.68-.75-7 .14-3.61.26-7.34 1.23-10.78 1.43-5.04.76-7.78-4.26-8.76-7.76-1.51-15.64-2.42-23.51-3.3-7.36-.82-12.51-5.27-14.1-12.29-.66-2.9 1.26-3.91 2.83-5.45 1.39-1.36 2.7-1.73 4.41-.68 6.47 3.96 13.58 3.67 20.77 3.28 4.9-.25 9.83-.04 14.88-.04zm20.25 26.98c-1.46 5.09-1.04 25.31.65 29.42.32.79 1.49 1.5 2.4 1.74 5.51 1.43 11.11 2.53 16.58 4.08 8.22 2.33 17.02 2.74 24.53 7.46 2.73 1.71 7.18.92 8.74-1.81 4.65-8.11 5.63-16.49-4.34-22.5-15-9.05-31.96-12.86-48.56-18.39zm-1.76 88.82c3.16-1.44 6.38-2.38 8.98-4.2 9.26-6.48 18.37-13.17 27.36-20.01 1.28-.97 2.06-3.16 2.18-4.85.05-.71-2.13-2.04-3.45-2.31-8.32-1.68-16.66-3.27-25.04-4.63-9.81-1.59-9.95-1.51-12.71 8.09-2.7 9.43-3.08 18.74 2.68 27.91z" fill="#010000"/></svg>