<svg enable-background="new 0 0 400 400" viewBox="0 0 400 400" xmlns="http://www.w3.org/2000/svg"><g fill="#010104"><path d="m226.38 46.37c3.69.72 6.78 1.1 9.74 1.95 11.75 3.39 23.19 7.57 33.1 14.99 2.19 1.64 4.13 3.83 5.62 6.14 2.54 3.94 3.43 8.14.7 12.58-2.92 4.76-5.5 9.74-8.36 14.53-5.95 9.96-3.67 17.06 7.07 21.64 11.72 5 24.08 7.63 36.6 9.44 15.05 2.18 30.15 4.02 45.21 6.12 3.2.45 6.36 1.25 9.48 2.13 2.68.75 4.38 2.57 4.69 5.5.27 2.57-.29 4.35-3.06 5.44-9.42 3.72-19.25 4.88-29.26 5.06-17.36.32-34.7-.17-51.9-2.71-4.39-.65-8.66-2.16-12.93-3.45-.99-.3-1.84-1.22-2.62-1.99-3.88-3.84-7.71-7.72-11.74-11.76-5.59 8.62-8.76 17.71-10.33 27.4-1.82 11.26-3.51 22.53-5.43 33.77-.4 2.33.36 3.44 2.26 4.48 8.34 4.51 17.42 6.36 26.69 7.26 21.55 2.08 43.12 2.26 64.68.06 7.77-.8 15.52-2.08 23.31-2.45 6.93-.33 11.04 3.27 12.06 9.23.31 1.8.05 3.03-1.83 4.07-24.6 13.68-50.92 18.66-78.66 14.59-8.29-1.22-16.21-4.94-24.3-7.55-5.95-1.92-11.88-3.9-17.83-5.84-4.29-1.4-6.41-.41-6.97 4.1-.47 3.83-.47 7.84.12 11.65 1 6.51 2.6 12.92 3.98 19.37.77 3.58 2.55 6.46 5.25 9.08 8.98 8.69 18.83 16.17 29.6 22.47 14.57 8.53 30.17 9.69 46.41 6.4 8-1.62 16.05-2.96 24.09-4.41.77-.14 1.55-.26 2.33-.33 7.03-.63 10.36 3.38 8.43 10.1-.96 3.34-2.65 5.97-5.89 7.72-27.77 14.99-55.76 17.35-84.15 1.78-4.51-2.47-9.02-4.95-13.46-7.54-1.32-.77-2.54-1.83-3.58-2.97-5.12-5.63-9.91-11.59-15.31-16.94-8.14-8.09-12.39-18.23-16.04-28.7-8.02-23-9.04-46.71-5.8-70.58 3.58-26.36 7.31-52.74 12.08-78.9 2.42-13.28.77-26.3.85-39.44.01-1.48-.83-2.99-1.37-4.45-1.03-2.78-2.16-5.55-3.53-9.04z"/><path d="m22.74 203.59c-1.06-4.01.01-6.7 2.87-9.42 11.35-10.79 22.84-21.49 33.41-33.01 5.35-5.83 9.39-13.08 13-20.2 2.85-5.62 5.71-11.03 10.01-15.68 1.06-1.15 1.72-3.14 1.7-4.73-.12-11.08-.52-22.15-.69-33.23-.03-1.94-.6-3.04-2.34-3.92-5.39-2.71-10.78-5.44-16.02-8.42-4.06-2.31-6.65-5.87-7.42-11.1 9.81.05 19.46-.91 28.99 1.6 16.76 4.41 32.62 11.02 47.58 19.68 13.19 7.65 22.56 19.3 31.11 31.55 16.18 23.2 23.71 49.36 25.62 77.34 1.82 26.71-2.22 52.39-13.32 76.86-3.2 7.05-6.91 13.71-11.91 19.72-9.02 10.84-17.67 21.98-26.51 32.97-.74.92-1.64 1.88-2.67 2.39-7.49 3.72-15.05 7.29-22.54 10.99-11.22 5.54-22.24 11.68-34.74 13.88-6.77 1.2-13.67 1.72-20.27 2.52-1.96-4.35-1.88-7.56 1.94-9.88.66-.4 1.24-.97 1.76-1.55 5.9-6.64 13.26-10.74 21.84-12.89 1.65-.42 3.26-1.47 4.61-2.57 13.62-11.1 26.99-22.51 40.82-33.35 8.56-6.71 14.14-15.51 19.21-24.69 13.44-24.34 17.63-50.6 15.76-78.1-1.62-23.72-7.87-46.13-20.2-66.4-5.57-9.16-13.69-16.48-24.45-20-2.02-.66-2.86-.12-3.56 1.62-2.12 5.28-4.94 10.36-6.34 15.82-6.82 26.75-22.24 47.5-43.79 64.13-12.07 9.32-25.24 16.08-40.63 17.82-.87.09-1.76.15-2.83.25z"/><path d="m117.46 157.11c4.92 1.55 9.15 2.33 12.87 4.16 10.45 5.14 18.23 12.91 21.37 24.47 1.39 5.09.57 9.72-2.02 14.71-10.49 20.2-27.26 34.66-43.73 49.46-10.56 9.49-21.95 17.67-35.4 22.62-3.14 1.16-6.46 1.83-9.58 3.01-5.6 2.12-11.28 4.15-16.63 6.8-4.56 2.26-8.98 3.91-14.52 2.63 1.46-5.46 1.21-10.82 7.44-14.59 16-9.69 30.84-21.09 44.28-34.18 7.65-7.45 14.24-15.79 19.64-24.99 6.11-10.41 11.92-21 18.01-31.42 1.4-2.39 1.79-4.6 1.19-7.29-1.06-4.67-1.81-9.41-2.92-15.39z"/></g><path d="m385.2 377.6.6-.7c.6.4 1.3.9 1.9 1.5l-.6.7c-.8-.5-1.4-1-1.9-1.5zm.3 7.1c.6-1.4 1.1-2.9 1.5-4.5.3.1.6.3.9.4-.5 1.4-1 2.9-1.5 4.4zm.2-10.1.6-.6c.7.5 1.3 1.1 1.9 1.6l-.7.7c-.6-.6-1.2-1.2-1.8-1.7zm8.4-.8h.8v.9h1.8v.7h-1.8v1.8h-.8v-.3h-1.2v.9h3.3v2.6h-.8v-.4h-2.5c0 .3 0 .6-.1.8h3.4v.7h-3.5c0 .3-.1.6-.1.8h4v.7h-3.5c.7.9 1.9 1.3 3.6 1.5-.2.2-.4.5-.6.9-1.9-.3-3.2-1.1-3.8-2.3-.5 1.1-1.8 2-3.9 2.4-.2-.3-.4-.5-.6-.8 1.9-.4 3.1-.9 3.6-1.7h-3.2v-.7h3.5c.1-.2.1-.5.2-.8h-3.3v-.7h3.4c0-.2 0-.5 0-.8h-2.4v.3h-.8v-2.6h3.3v-.9h-1.2v.3h-.8v-1.8h-1.8v-.7h1.8v-.9h.8v.9h3.2zm-4.4 5.5h2.4c0-.3 0-.6 0-.9h-2.4zm1.2-3.1h3.2v-.8h-3.2zm4.4 2.2h-2.4v.9h2.5v-.9z" fill="#fcfbfa"/><path d="m389.2 385.8h.9v1.5h1.9v-1.5h.9v1.5h2.7v6h1.1v.9h-11.3v-.9h1.1v-6h2.7zm.2 8.7.5.8c-1.2.6-2.5 1.3-4 1.9-.2-.3-.3-.6-.6-.8 1.6-.6 3-1.3 4.1-1.9zm-2-4.3h1.9v-2.1h-1.9zm0 3.1h1.9v-2.2h-1.9zm2.7-3.1h1.9v-2.1h-1.9zm0 3.1h1.9v-2.2h-1.9zm2.4 1.3c1.4.6 2.7 1.2 4.1 1.8l-.5.9c-1.5-.7-2.8-1.4-4.1-1.9zm2.2-6.5h-1.9v2.1h1.9zm-1.9 5.2h1.9v-2.2h-1.9z" fill="#fcfbfa"/></svg>