<svg enable-background="new 0 0 400 400" viewBox="0 0 400 400" xmlns="http://www.w3.org/2000/svg"><path d="m60.38 375.18c.31-7.42-.46-13.73 2.48-20.19 12.5-27.45 24.49-55.12 36.63-82.73.67-1.51 1.27-3.15 1.42-4.78 1.02-10.91 1.97-21.84 2.75-32.77.08-1.07-.92-2.51-1.84-3.27-1.16-.96-2.75-1.41-4.29-2.14-9.63 9.14-19.2 18.23-28.77 27.31-7.47 7.09-15.26 13.87-22.28 21.37-3.91 4.18-7.59 4.11-12.93 1.79 2.11-3.4 3.76-7.07 6.29-9.96 21.03-24.01 41.23-48.62 57.42-76.27 3.41-5.82 5.1-11.87 4.9-18.78-.4-13.64-.35-27.31-.04-40.95.19-8.37-.67-16.53-3.1-24.48-4.76-15.56-5.6-31.64-6.58-47.71-.27-4.47-.69-8.93-.84-13.4-.08-2.29-.95-3.36-3.23-3.73-7.83-1.28-15.63-2.73-23.45-4.06-5.47-.93-10.75-2.3-14.87-6.32-1.24-1.21-2.22-2.69-3.73-4.55 6.49-.9 12.32-1.73 18.16-2.53 4.43-.61 8.85-1.54 13.3-1.69 3.86-.13 7.74.71 11.61.99 7.02.5 14.05.91 21.07 1.35 7.14.45 11.35 3.47 11.95 8.94.17 1.54-.07 3.53-.95 4.7-4.22 5.64-5.67 12.09-6.04 18.88-.63 11.3 2.16 22.2 4.15 33.19 2.66 14.71 4.15 29.46 1.43 44.36-.16.88.03 2.08.54 2.78 5.37 7.42 7.3 16 8.33 24.83 1.56 13.33 3.12 26.66 4.29 40.02 1.35 15.39-.62 30.61-3.53 45.69-4.31 22.3-10.08 44.21-18.11 65.49-.51 1.34-1.18 2.65-1.96 3.86-6.92 10.82-14.05 21.51-20.79 32.45-4.95 8.05-10.45 15.41-19.43 19.24-2.91 1.24-6.09 1.9-9.96 3.07z" fill="#010100"/><path d="m329.22 368.28c-4.22-.95-8.45-1.85-12.64-2.88-.67-.16-1.27-.87-1.75-1.45-7.82-9.65-15.62-19.32-23.39-29-.62-.78-1.06-1.71-1.54-2.59-4.68-8.52-9.19-17.15-14.08-25.55-3.52-6.07-5.48-12.52-7.25-19.28-2.08-7.93-5.71-15.45-8.64-23.16-8.37-22.06-13.4-44.97-16.49-68.28-.64-4.82.96-9.96 1.68-14.93 4.35-30.21 8.9-60.4 13.01-90.64 1-7.35.37-14.73-5.64-20.55-1.49-1.44-2.37-3.85-2.79-5.97-1.01-5.13-1.59-10.35-2.48-16.44 8.11-2.42 15.92-4.75 23.74-7.08 25.01 3.26 49.62 8.18 72.96 18.09 5.76 2.44 11.15 5.65 15.23 11.09-9 4.5-18.16 5.08-27.5 2.72-5.18-1.31-10.17-3.38-15.33-4.84-8.63-2.43-17.07-2.01-24.91 2.73-1.16.71-2.28 2.2-2.58 3.52-2.86 12.53-6.1 25.01-8.07 37.69-1.22 7.88-.49 16.06-.49 24.11 0 .99.75 2.07 1.36 2.97 13.69 20.04 27.25 40.18 41.22 60.02 5.33 7.57 11.62 14.48 17.51 21.65 4.71 5.73 7.98 12.12 9.01 19.53.21 1.52.24 3.07.37 4.81-2.63.51-5.01 1.12-7.43 1.36-.92.09-2.24-.39-2.85-1.07-14.68-16.44-29.65-32.63-43.74-49.56-7.21-8.66-13.02-18.47-22.05-25.55-.87-.69-1.73-1.4-2.87-2.32-4.62 7.87-7.18 16.19-7.78 25.05-1.16 17.29 2.91 33.8 8.39 49.94 5.2 15.33 10.61 30.64 16.89 45.55 3.7 8.79 9.22 16.82 14.04 25.12 6.45 11.11 13.41 21.95 19.4 33.29 3.51 6.65 5.58 14.06 8.29 21.13-.24.26-.53.52-.81.77z" fill="#010100"/><g fill="#fcfafa"><path d="m342.2 3.2-6.3 9.2h6.1v1.2h-8.2v-.5l6.2-9.1h-5.7v-1.2h7.8v.4z"/><path d="m344 13.7v-10.9h3.1c1.6 0 3 .5 4.1 1.4 1.1 1 1.6 2.2 1.6 3.9s-.5 3-1.6 4-2.5 1.5-4.2 1.5h-3zm1.4-9.6v8.4h1.6c1.4 0 2.5-.4 3.2-1.1.8-.8 1.2-1.8 1.2-3.2s-.4-2.4-1.2-3.1-1.8-1-3.1-1z"/><path d="m356.3 2.8v10.9h-1.4v-10.9z"/><path d="m366.6 13.2c-.8.4-1.8.6-3 .6-1.6 0-2.8-.5-3.7-1.5s-1.4-2.3-1.4-3.9c0-1.7.5-3.2 1.6-4.2s2.4-1.6 4-1.6c1 0 1.9.1 2.6.4v1.5c-.8-.4-1.6-.6-2.6-.6-1.2 0-2.2.4-3 1.2s-1.1 1.9-1.1 3.3c0 1.3.4 2.3 1.1 3.1s1.6 1.1 2.8 1.1c1.1 0 2-.2 2.8-.7v1.3z"/><path d="m368.2 13c0-.3.1-.5.3-.6.2-.2.4-.3.6-.3.3 0 .5.1.7.3s.3.4.3.6-.1.5-.3.6c-.2.2-.4.3-.7.3s-.5-.1-.6-.3c-.2-.2-.3-.4-.3-.6z"/><path d="m381.1 13.7h-1.7l-5.5-8.4c-.2-.2-.3-.5-.4-.7 0 .2.1.8.1 1.5v7.6h-1.4v-10.9h1.8l5.3 8.3c.3.4.4.6.4.8 0-.3-.1-.8-.1-1.6v-7.5h1.4v10.9z"/><path d="m389.7 13.7h-5.8v-10.9h5.6v1.2h-4.2v3.5h3.9v1.2h-3.9v3.7h4.4z"/><path d="m398.4 4.1h-3.1v9.6h-1.4v-9.6h-3.1v-1.3h7.7v1.3z"/></g></svg>