<svg enable-background="new 0 0 400 400" viewBox="0 0 400 400" xmlns="http://www.w3.org/2000/svg"><path d="m374.8 390.4.4-.4c.7.5 1.3 1 1.8 1.4l-.5.5c-.5-.6-1.1-1.1-1.7-1.5zm1 7.3-.6-.3c.5-1.4 1.1-2.8 1.5-4.3.2.1.4.2.6.3-.5 1.3-1 2.8-1.5 4.3zm-.4-10.3.4-.4c.4.3 1 .8 1.7 1.4l-.5.5c-.4-.5-1-1-1.6-1.5zm2.5.3h1.7v-1h.6v1h3.5v-1h.6v1h1.8v.5h-1.8v1.4h-2v1h3.2v2h-3.2v.9h3.3v.5h-3.4c0 .3-.1.6-.1.9h4v.5h-3.7c.7.9 1.9 1.5 3.8 1.7-.1.2-.2.4-.3.6-2.1-.4-3.5-1.1-4-2.1-.4 1-1.8 1.7-4 2.2-.1-.2-.2-.4-.3-.6 2.1-.4 3.4-1 3.8-1.8h-3.4v-.5h3.6c.1-.3.1-.6.2-.9h-3.3v-.5h3.4c0-.3 0-.6 0-.9h-3.2v-2h3.3v-1h-2.1v-1.4h-1.7v-.5zm1.1 3.5v1h2.7c0-.3 0-.4 0-.4 0-.1 0-.2 0-.2 0-.1 0-.2 0-.3h-2.7zm1.2-3v.9h3.5v-.9zm4.7 3h-2.6v.6.4h2.6z" fill="#fbfcfa"/><path d="m393.6 386.7h.6v1.5h2.7v6.1h1.1v.6h-11v-.6h1.1v-6.1h2.7v-1.5h.6v1.5h2.1v-1.5zm-2.7 8.8.4.6c-1.2.6-2.5 1.3-3.8 1.9-.1-.2-.2-.4-.3-.6 1.2-.6 2.5-1.2 3.7-1.9zm-2.2-6.7v2.4h2.1v-2.4zm0 3v2.5h2.1v-2.5zm2.8-3v2.4h2.1v-2.4zm0 3v2.5h2.1v-2.5zm6 6.1c-1.4-.7-2.7-1.3-3.9-1.8l.3-.6c1.5.6 2.7 1.2 3.9 1.7zm-1.2-9.1h-2.1v2.4h2.1zm-2.1 3v2.5h2.1v-2.5z" fill="#fbfcfa"/><g fill="#010106"><path d="m119.47 374.83c-3.77-7.42-2.97-14.55-1.06-21.67 8.65-32.27 17.52-64.48 25.93-96.81 2.52-9.71 4-19.71 5.53-29.65.48-3.09-.2-6.43-.76-9.59-.36-2.03-1.81-2.95-3.99-1.73-3.95 2.23-8.17 4.06-11.89 6.63-11.99 8.3-25.57 12.7-39.41 16.45-4.62 1.25-9.44 1.76-14.15 2.71-3.01.61-5.14-.24-6.41-3.16-.52-1.2-1.39-2.25-2.23-3.59 7.45-6.14 14.77-12.18 22.1-18.2 13.4-11.02 27.17-21.62 40.05-33.21 7.34-6.6 13.26-14.79 19.73-22.34.52-.61.72-1.98.43-2.74-3.68-9.44-3.5-19.54-5.21-29.31-.82-4.7-2.44-9.27-3.93-13.82-.75-2.29-3.84-3.29-6.55-2.13-3.98 1.7-7.77 3.55-10.99 6.78-13.87 13.91-29.01 26.32-45.82 36.53-10.05 6.11-20.97 9.9-32.76 11.11-2.28.24-3.52-.23-4.36-2.4-.84-2.16-2.04-4.18-3.2-6.5 15.25-5.64 27.15-15.79 38.66-26.47 6.01-5.57 11.49-11.56 15.46-18.85 7.41-13.61 16.7-25.99 26.46-37.93 4.79-5.87 4.51-11.34 1.43-17.25-2.54-4.88-2.25-9.48.32-14.05.45-.8 2.12-1.57 3.01-1.38 10.23 2.18 17.23 8.82 22.39 17.39 8.94 14.87 14.57 31.06 18.76 47.87 2.51 10.06 5.62 20.01 9.23 29.73 7.11 19.14 8.34 38.67 4.05 58.39-1.95 8.95-1.57 17.8-1.41 26.68.17 9.1-.78 17.79-4.46 26.15-5.67 12.86-6.54 26.86-9.4 40.39-4.17 19.76-9.23 39.35-19.23 56.95-5.43 9.55-11.29 19.39-20.73 26-1.61 1.14-3.5 1.91-5.59 3.02z"/><path d="m328.67 239.91c-9.62.25-18.79-1.7-27.37-5.7-10.93-5.09-21.56-10.85-32.45-16.03-2.91-1.39-6.3-2.36-9.49-2.42-4.79-.09-7.97 3.12-8.29 7.9-.22 3.42.18 6.9.54 10.32 1.06 10.12 1.91 20.27 3.41 30.32 4.41 29.47 13.68 57.33 28.6 83.21 2.07 3.58 4.18 7.14 6.06 10.82.42.82.33 2.42-.22 3.12-4.5 5.82-12.2 5.47-16.29-.61-7.73-11.52-16.11-22.67-22.96-34.69-5.04-8.84-8.59-18.64-11.88-28.33-8.04-23.74-11.21-48.29-11-73.32.26-30.33.65-60.67.61-91-.02-18.8-.96-37.6-1.04-56.4-.07-15.74 2.04-31.26 7.17-46.21.72-2.09 2.9-3.73 4.59-5.38.34-.34 1.64.01 2.33.37 6.14 3.2 9.17 8.69 10.55 15.15 1.14 5.35 1.73 10.82 2.88 16.18.62 2.87 1.5 5.83 2.95 8.36 3.44 6.02 7.53 11.67 10.88 17.73 3.1 5.61 7.51 9.67 12.84 12.91 16.63 10.09 34.72 16.9 52.91 23.52 4.95 1.8 9.71 4.46 14.07 7.43 4.32 2.94 4.92 7.63 3.95 12.65-.48 2.46-1.55 2.95-3.87 2.75-11.37-1-22.24-4.01-32.71-8.32-10.01-4.12-19.63-9.22-29.71-13.17-7.77-3.05-15.96-5.02-23.99-7.39-5.14-1.52-6.07-1.22-7.95 3.8-1.12 2.98-1.97 6.27-1.96 9.42.04 15.11.39 30.21.74 45.32.02 1.07.7 2.36 1.48 3.13 18.31 17.95 38.18 33.78 61.06 45.66 4 2.07 7.66 5.01 11 8.07 3.02 2.77 4.16 6.53 2.56 10.83z"/></g></svg>