<svg enable-background="new 0 0 400 400" viewBox="0 0 400 400" xmlns="http://www.w3.org/2000/svg"><path d="m276.61 124.14c-5.86 1.75-10.86.34-15.23-3.23-7.69-6.28-15.24-12.74-23.01-19.26-2.85 5.24-3.63 11.39-3.74 17.57-.12 6.89.04 13.61 3.45 20.2 1.96 3.79 1.79 8.99 1.5 13.48-.12 1.91-2.81 3.92-4.73 5.37-3.11 2.35-3.86 5.38-3.18 8.83.25 1.29 1.38 2.94 2.51 3.36.79.29 2.57-.99 3.34-2 1.05-1.39 1.55-3.2 2.46-5.2.93 1.05 1.69 1.95 2.49 2.81 6.94 7.44 13.93 14.82 20.8 22.32 2.63 2.88 5.23 5.85 7.37 9.09 1.36 2.05 1.92 4.66 2.73 7.05 1.52 4.52 3.01 9.04 4.39 13.6.36 1.19.85 2.85.33 3.72-2.05 3.36-1.88 6.7-.96 10.29 2.1 8.18-.49 16.22-.91 24.33-.09 1.67-.39 3.34-.41 5.02-.23 19.34-.53 38.68-.58 58.03-.02 9.62 1.06 19.28.48 28.85-.42 7.02-2.68 13.95-4.28 20.88-.13.58-1.55 1.32-2.26 1.21-1-.15-2.36-.78-2.77-1.6-2.34-4.79-2.71-10.04-1.77-15.1 3.24-17.42 1-34.83.24-52.23-.43-9.84-2.25-19.77-1.33-29.46.69-7.29-1.68-13.73-2.02-20.58-.32-6.58.01-13.21.34-19.8.27-5.33-.17-10.34-2.61-15.28-1.1-2.23-.5-5.26-.95-7.87-.27-1.55-.77-3.24-1.7-4.45-2.25-2.92-4.81-5.6-7.25-8.38-.37-.42-.7-1.14-1.13-1.2-4.86-.69-5.6-5.78-8.87-8.24-3.27-2.47-5.95-5.73-8.86-8.68-9.28-9.44-12.54-20.84-12.21-33.96.54-21.69.14-43.4.56-65.09.15-7.45 1.51-14.88 2.43-22.31.6-4.83.09-6-4.71-6.97-3.26-.66-6.66-.58-9.99-.91-1.88-.19-3.97-.1-5.55-.93-1.49-.79-2.77-2.48-3.43-4.06-.21-.51 1.66-2.2 2.84-2.93 2.75-1.71 5.72-3.06 8.49-4.74 2.49-1.52 4.94-2.36 7.92-1.61 1.03.26 2.35-.29 3.44-.73 6.31-2.5 12.4-5.89 18.93-7.34 4.42-.98 9.45.62 14.15 1.36.71.11 1.65 1.89 1.59 2.84-.05.92-1.06 2.15-1.97 2.61-5.17 2.63-10.47 5.02-15.66 7.61-5.45 2.72-7.44 7.13-5.93 13.05 2.18 8.54 4.35 17.09 6.66 25.6.29 1.06 1.23 2.08 2.12 2.8 1.56 1.26 3.26 2.38 5.01 3.37 4.87 2.75 8.32 6.75 11.72 11.19 4.11 5.38 9.4 9.85 14.15 14.75 3.43 3.49 5.37 7.65 5.56 12.95z" fill="#010100"/><path d="m145.03 153.23c-5.36 5.91-9.63 10.78-14.09 15.49-3.95 4.17-8.76 6.47-15.13 5.89.07-1.38-.28-2.88.28-3.88 1.98-3.57 3.81-7.38 6.53-10.34 6.91-7.53 13.7-15.1 17.93-24.54 5.53-12.33 4.62-25.07 2.05-37.87-.46-2.3-1.27-4.54-1.62-6.85-.36-2.41-1.75-3-3.77-2.53-4.02.93-7.98 2.07-12.01 2.95-1.21.27-3.17.45-3.67-.2-.69-.9-.63-2.67-.35-3.96.26-1.24 1.06-2.45 1.88-3.47 3.02-3.75 6.32-7.28 9.18-11.14 4.38-5.9 8.45-12.04 12.74-18.01.94-1.31 2.12-2.61 3.48-3.41 4.14-2.44 8.42-4.65 12.66-6.91 2.75-1.46 6.41-.99 7.98.97 1.51 1.89.94 5.09-1.56 7.43-3.13 2.93-6.26 5.8-5.87 10.64-6.94 12.4-1.95 25.37-1.8 38.11.04 3.57.43 7.16.18 10.71-.4 5.56.24 10.9 2.05 16.15.47 1.35 1.06 2.93.78 4.23-1.15 5.26.88 10.17 1.25 15.24.31 4.28-.47 8.63-.56 12.96-.04 2.16-.1 4.53.68 6.47 4.39 11 4.71 22.7 6.19 34.19.16 1.22-.32 2.64-.85 3.82-2.84 6.32-5.79 12.59-8.7 18.87-.23.51-.36 1.1-.71 1.51-7 8.24-5.84 17.79-3.69 27.1 2.04 8.83 1.02 17.61.79 26.38-.2 7.79.77 15.24 2.22 22.87 1.89 9.95 2.18 20.19 3.56 30.26 1.36 9.94-.74 19.6-1.62 29.38-.39 4.32-.5 8.66-.75 13.13-2.08.02-4.56 1.2-5.19-1.97-2.5-12.58-4.89-25.17-7.33-37.76 2.5-11.46-.5-22.36-3.37-33.27-.28-1.06-.75-2.37-.37-3.24 1.71-3.98.38-7.35-1.65-10.69-.4-.66-1.01-1.59-.81-2.14 2.21-6.16-.44-12.17-.37-18.25.06-5.33.36-10.67 1-15.96.5-4.14 1.03-8.2-.45-12.21-1.97-5.34-1.22-10.6-.45-16.1.88-6.23 3.42-11.1 7.85-15.36 5.43-5.22 6.63-11.3 4.43-18.7-2.09-7.02-2.95-14.4-4.38-21.62-.19-.95-.6-1.85-.87-2.78-.59-2.05-1.13-4.11-1.76-6.14-.51-1.58-1.12-3.14-1.94-5.45z" fill="#010100"/><g fill="#fcfafa"><path d="m342.2 3.2-6.3 9.2h6.1v1.2h-8.2v-.5l6.2-9.1h-5.7v-1.2h7.8v.4z"/><path d="m344 13.7v-10.9h3.1c1.6 0 3 .5 4.1 1.4 1.1 1 1.6 2.2 1.6 3.9s-.5 3-1.6 4-2.5 1.5-4.2 1.5h-3zm1.4-9.6v8.4h1.6c1.4 0 2.5-.4 3.2-1.1.8-.8 1.2-1.8 1.2-3.2s-.4-2.4-1.2-3.1-1.8-1-3.1-1z"/><path d="m356.3 2.8v10.9h-1.4v-10.9z"/><path d="m366.6 13.2c-.8.4-1.8.6-3 .6-1.6 0-2.8-.5-3.7-1.5s-1.4-2.3-1.4-3.9c0-1.7.5-3.2 1.6-4.2s2.4-1.6 4-1.6c1 0 1.9.1 2.6.4v1.5c-.8-.4-1.6-.6-2.6-.6-1.2 0-2.2.4-3 1.2s-1.1 1.9-1.1 3.3c0 1.3.4 2.3 1.1 3.1s1.6 1.1 2.8 1.1c1.1 0 2-.2 2.8-.7v1.3z"/><path d="m368.2 13c0-.3.1-.5.3-.6.2-.2.4-.3.6-.3.3 0 .5.1.7.3s.3.4.3.6-.1.5-.3.6c-.2.2-.4.3-.7.3s-.5-.1-.6-.3c-.2-.2-.3-.4-.3-.6z"/><path d="m381.1 13.7h-1.7l-5.5-8.4c-.2-.2-.3-.5-.4-.7 0 .2.1.8.1 1.5v7.6h-1.4v-10.9h1.8l5.3 8.3c.3.4.4.6.4.8 0-.3-.1-.8-.1-1.6v-7.5h1.4v10.9z"/><path d="m389.7 13.7h-5.8v-10.9h5.6v1.2h-4.2v3.5h3.9v1.2h-3.9v3.7h4.4z"/><path d="m398.4 4.1h-3.1v9.6h-1.4v-9.6h-3.1v-1.3h7.7v1.3z"/></g></svg>