<svg enable-background="new 0 0 400 400" viewBox="0 0 400 400" xmlns="http://www.w3.org/2000/svg"><path d="m24.54 280.9c-.35-3.04-.79-5.79-.91-8.56-.04-.83.61-1.88 1.25-2.52 11.79-11.64 23.62-23.23 35.44-34.82.16-.16.3-.38.49-.45 10.08-3.48 16.06-12.52 24.59-18.12 14.03-9.2 28.16-18.27 41.83-27.99 9.27-6.59 17.98-13.99 26.64-21.39 8.02-6.85 5.55-15.78 1.34-22.47-1.6-2.54-4.54-2.3-6.97-1-3.44 1.83-6.91 3.72-10.02 6.06-8.23 6.18-16.24 12.65-24.4 18.92-1.2.92-2.69 1.79-4.14 1.98-4.16.55-7.42 2.53-10.69 5.06-16.64 12.89-33.59 25.38-53.15 33.6-7.56 3.18-15.53 5.37-24.13 8.29 1.84-6.89 2.93-12.35 8.58-16.53 26.72-19.75 53.04-40.04 79.57-60.05 5.17-3.9 10.71-7.32 16-11.07 1.42-1.01 2.74-2.3 3.76-3.72 5.09-7.08 10.12-14.22 15.03-21.43.88-1.3 1.43-3.01 1.59-4.58.71-7.34.97-14.74 1.9-22.05 1-7.89 6.14-12.76 13.24-15.51 3.35-1.29 6.56.23 9.39 2.19.81.56 1.58 1.31 2.13 2.13 3.67 5.46 9.01 8.74 14.53 12.04 5.9 3.52 8.65 9.6 10.11 16.02 2.52 11.03 4.18 22.06 1.87 33.53-1.24 6.14-.69 12.69-.59 19.05.12 7.27.3 14.57 1.06 21.79 1.01 9.61-2.58 18.28-4.84 27.2-4.85 19.17-9.94 38.29-15.17 57.36-1.77 6.45-4.35 12.57-9 17.75-5.83 6.49-11.19 13.4-16.84 20.05-.89 1.05-2.14 2.15-3.4 2.44-2.82.64-4.44 2.1-5.29 4.84-2.05 6.61-7.43 10.23-13.3 12.34-12.1 4.35-23.02 10.61-33.82 17.48-11.84 7.53-25.61 10.34-39.19 13.19-4.47.94-9.08 1.23-13.6 1.94-2.63.42-4.44-.67-4.42-3.14.03-3.51.6-7.06 1.33-10.5.16-.75 1.92-1.29 3.04-1.67 12.71-4.41 24.86-10.02 36.5-16.75 10.06-5.82 19.04-12.93 26.67-21.72 10.93-12.58 22-25.05 32.79-37.75 5.6-6.59 10.77-13.74 12.22-22.44 1.16-7.01.99-14.24 1.26-21.38.03-.69-.96-1.91-1.62-2.03-2.16-.39-4.6-1.05-6.54-.4-5.14 1.7-10.37 3.5-15.03 6.2-21.59 12.51-39.78 29.65-59.7 44.45-14.3 10.6-29.53 19.3-47.39 24.14z" fill="#010000"/><path d="m264.38 64.32c4.03-2.39 8.01-4.85 12.12-7.09.94-.51 2.38-.53 3.47-.27 6.74 1.59 10.03 6.3 10.58 14.04.43 5.99 1.19 11.97 2.13 17.9.52 3.3 2.43 5.79 5.69 7.34 10.72 5.08 19.56 12.64 28.21 20.71 6.57 6.13 14.53 10.74 21.74 16.21 5.42 4.1 10.9 8.19 15.83 12.84 4.15 3.92 6 9.36 6.96 14.97.74 4.32-2.82 8.4-7.13 7.77-4.33-.63-8.7-1.07-12.46-4.16-3.15-2.59-6.97-4.44-10.68-6.23-9.7-4.7-12.31-4.38-19.72-15.63-2.57 2.56-4.48 2.32-7.69-.1-6.59-4.96-12.99-10.34-20.15-14.32-9.37-5.21-11-4.25-15.84 5.2-3.12 6.09-6.25 12.24-5.56 19.36.19 1.98 1.31 3.88 2.02 5.81.04.1.14.17.2.27 7.4 11.74 18.32 19.67 29.42 27.47 10.06 7.07 19.93 14.43 29.81 21.77 7.45 5.54 12.19 12.64 12.38 22.29.06 2.75-1.07 4.28-3.51 5.35-4.23 1.84-8.34 1.66-12.74.48-17.24-4.61-31.73-14.01-45.25-25.25-8.32-6.92-13.37-9.23-23.8-10.93-.65 2.94-1.77 5.9-1.91 8.91-.69 15.5-.12 30.87 6.48 45.36.32.71.53 1.51.99 2.12 4.52 5.95 9.11 11.85 13.64 17.79 4.89 6.42 11.74 10.24 18.57 14.07 15.17 8.52 31.44 13.81 48.56 16.68 4.86.81 7.62 5.71 5.78 10.15-.35.86-1.53 1.52-2.47 1.97-8.3 3.93-17.15 4.22-25.98 3.07-13.57-1.77-26.61-5.77-39.34-10.74-5.36-2.09-10.2-4.9-14.54-8.76-3.75-3.33-7.77-6.43-11.97-9.18-14.77-9.66-22.63-23.57-26.12-40.54-2.8-13.61-2.18-27.21-.22-40.73 2.71-18.69 6.02-37.29 9.35-55.88.43-2.4 2.26-4.71 3.9-6.69 1.32-1.59 1.61-2.68.78-4.65-.71-1.69-.99-3.94-.52-5.7 3.74-14.03 7.85-27.97 11.53-42.02 1.15-4.37 1.88-8.98 1.83-13.48-.04-4.63.84-8.44 4.1-11.84 1.24-1.29 1.62-3.4 2.4-5.14-.29-.19-.58-.38-.87-.57z" fill="#010000"/><g fill="#fbfcfa"><path d="m361.2 9.6.8-1c.9.7 1.9 1.4 2.9 2.3l-.9 1.1c-1-1-2-1.8-2.8-2.4zm.5 10.6c.9-2.1 1.6-4.3 2.3-6.7.4.2.8.4 1.3.6-.7 2.1-1.5 4.3-2.2 6.6zm.4-15.2.9-.9c1 .8 2 1.6 2.8 2.4l-1 1c-.9-.9-1.8-1.7-2.7-2.5zm12.5-1.2h1.2v1.4h2.7v1.1h-2.7v2.7h-1.2v-.6h-1.8v1.3h4.9v3.8h-1.2v-.5h-3.7c0 .4-.1.9-.1 1.2h5.1v1h-5.2c0 .5-.1.9-.2 1.2h6v1h-5.2c1.1 1.3 2.9 2 5.5 2.2-.4.4-.7.8-.9 1.3-2.9-.5-4.8-1.6-5.7-3.5h-.1c-.8 1.7-2.7 2.9-5.9 3.6-.2-.4-.6-.8-.9-1.1 2.8-.6 4.6-1.4 5.4-2.5h-4.8v-1h5.3c.1-.3.2-.7.2-1.2h-4.9v-1h5c0-.4 0-.8.1-1.2h-3.5v.5h-1.2v-3.8h4.9v-1.3h-1.8v.5h-1.2v-2.7h-2.7v-1h2.6v-1.4h1.2v1.4h4.7v-1.4zm-6.6 8.3h3.6c0-.4 0-.9 0-1.4h-3.6zm1.9-4.6h4.7v-1.3h-4.7zm6.6 3.2h-3.7v1.4h3.7z"/><path d="m385.3 3.8h1.3v2.2h2.8v-2.2h1.3v2.2h4.1v9.1h1.7v1.3h-16.9v-1.3h1.7v-9.1h4.1v-2.2zm.4 13.1.7 1.2c-1.8.9-3.8 1.9-6 2.9-.2-.4-.5-.8-.8-1.3 2.3-1 4.3-1.9 6.1-2.8zm-3.1-6.4h2.8v-3.2h-2.8zm0 4.6h2.8v-3.3h-2.8zm4-4.6h2.8v-3.2h-2.8zm0 4.6h2.8v-3.3h-2.8zm3.7 1.9c2.1.9 4.1 1.8 6.1 2.7l-.7 1.3c-2.2-1.1-4.2-2-6.1-2.9zm3.2-9.7h-2.8v3.2h2.8zm-2.8 7.8h2.8v-3.3h-2.8z"/></g></svg>