<svg enable-background="new 0 0 400 400" viewBox="0 0 400 400" xmlns="http://www.w3.org/2000/svg"><path d="m374.8 390.4.4-.4c.7.5 1.3 1 1.8 1.4l-.5.5c-.5-.6-1.1-1.1-1.7-1.5zm1 7.3-.6-.3c.5-1.4 1.1-2.8 1.5-4.3.2.1.4.2.6.3-.5 1.3-1 2.8-1.5 4.3zm-.4-10.3.4-.4c.4.3 1 .8 1.7 1.4l-.5.5c-.4-.5-1-1-1.6-1.5zm2.5.3h1.7v-1h.6v1h3.5v-1h.6v1h1.8v.5h-1.8v1.4h-2v1h3.2v2h-3.2v.9h3.3v.5h-3.4c0 .3-.1.6-.1.9h4v.5h-3.7c.7.9 1.9 1.5 3.8 1.7-.1.2-.2.4-.3.6-2.1-.4-3.5-1.1-4-2.1-.4 1-1.8 1.7-4 2.2-.1-.2-.2-.4-.3-.6 2.1-.4 3.4-1 3.8-1.8h-3.4v-.5h3.6c.1-.3.1-.6.2-.9h-3.3v-.5h3.4c0-.3 0-.6 0-.9h-3.2v-2h3.3v-1h-2.1v-1.4h-1.7v-.5zm1.1 3.5v1h2.7c0-.3 0-.4 0-.4 0-.1 0-.2 0-.2 0-.1 0-.2 0-.3h-2.7zm1.2-3v.9h3.5v-.9zm4.7 3h-2.6v.6.4h2.6z" fill="#fbfcfa"/><path d="m393.6 386.7h.6v1.5h2.7v6.1h1.1v.6h-11v-.6h1.1v-6.1h2.7v-1.5h.6v1.5h2.1v-1.5zm-2.7 8.8.4.6c-1.2.6-2.5 1.3-3.8 1.9-.1-.2-.2-.4-.3-.6 1.2-.6 2.5-1.2 3.7-1.9zm-2.2-6.7v2.4h2.1v-2.4zm0 3v2.5h2.1v-2.5zm2.8-3v2.4h2.1v-2.4zm0 3v2.5h2.1v-2.5zm6 6.1c-1.4-.7-2.7-1.3-3.9-1.8l.3-.6c1.5.6 2.7 1.2 3.9 1.7zm-1.2-9.1h-2.1v2.4h2.1zm-2.1 3v2.5h2.1v-2.5z" fill="#fbfcfa"/><g fill="#010106"><path d="m141.95 210.36c-9.86-1.68-19.29-.51-28.56 1.7-16.98 4.03-33.63 9.16-49.52 16.51-6.37 2.95-12.96 3.98-19.93 2.84-6.03-.99-10.55-4.03-14.06-10.08 7.07-4.93 13.89-10.39 21.36-14.76 20.51-11.99 43.03-18.48 66.18-23.01 13.19-2.58 23.13-10.19 31.64-20.06 2.76-3.2 3.63-6.89 3.05-11.23-1.7-12.75-2.99-25.55-4.65-38.3-.2-1.51-1.32-3.31-2.56-4.21-3.72-2.69-7.93-3.04-12.47-2.16-17.88 3.47-35.8 6.73-53.69 10.11-1.3.24-2.59.69-3.79 1.24-8.04 3.65-16.22 7.03-24.02 11.15-5.32 2.81-10.29 2.24-15.45.44-2.3-.8-4.53-1.92-6.65-3.14-6.16-3.56-7.91-9.41-4.7-15.74.42-.83 1.57-1.82 2.39-1.82 21.54-.14 41.18-7.83 60.66-15.7 16.29-6.58 33-11.17 50.4-13.12 5.85-.66 8.37-4.34 9.91-9 1-3.01 1.23-6.35 1.32-9.56.18-6.98 3.6-12.06 8.81-16.21.57-.46 1.77-.76 2.35-.47 4.37 2.18 8.87 4.21 12.89 6.93 3.47 2.35 4.41 6.04 2.69 10.12-4.46 10.59-3.96 21.34-1.18 32.21 2.26 8.83 2.13 17.83.45 26.65-3.57 18.79-3.67 37.81-4.39 56.79-.36 9.5-.78 19.01-.82 28.52-.01 2.88.81 5.89 1.86 8.6.99 2.56 1.7 4.84 1.14 7.7-1.22 6.14-1.96 12.37-2.97 18.54-.23 1.42-.67 2.83-1.22 4.16-6.46 15.7-12.95 31.4-19.47 47.08-3.32 7.99-7.98 14.48-16.76 17.57-6.83 2.4-12.48 6.7-15.95 13.54-4.47 8.82-11.81 15.08-19.74 20.67-11.07 7.79-22.15 15.65-35.03 20.24-4.26 1.52-8.88 2.15-13.38 2.87-1.57.25-3.46.34-4.33-2.08-.81-2.24.23-3.22 1.6-4.53 11.64-11.13 23.83-21.65 37.39-30.46 11.08-7.2 19.55-17.01 27.52-27.27 10.73-13.82 20.37-28.37 26.98-44.66 6.32-15.59 8.08-31.72 4.7-48.61z"/><path d="m250.97 206.77c.97 22.81 6.25 44.57 13.02 66.09 1.09 3.47 2.69 6.11 5.48 8.44 16.26 13.59 35.33 21.19 55.54 26.36 5.51 1.41 11.22 2.05 16.75 3.39 3.33.81 6.59 2.09 9.71 3.53 3.09 1.42 4.54 4.08 4.61 7.57.06 3.43-1.89 5.17-4.63 6.65-7.89 4.26-16.15 3.53-24.56 2.33-17.58-2.51-34.46-7.61-51.02-13.77-8.86-3.29-16.16-9.25-22.26-16.31-5.31-6.14-10.04-12.84-14.57-19.6-3.23-4.82-4.56-10.51-4.13-16.33.57-7.78-1.02-14.79-5.63-21.19-.93-1.29-1.21-3.34-1.12-5 .21-3.9.61-7.82 1.34-11.66 1.48-7.75.26-15.35-.66-23.01-2.99-24.98-2.03-50.04-1.61-75.1.37-21.82.62-43.65.23-65.46-.11-6.1-2.54-12.19-4.17-18.21-.6-2.2-.53-3.82 1.18-5.39 1.14-1.05 2.27-2.23 3.05-3.56 2.36-3.98 5.61-5.19 10.09-4.14 5.34 1.25 10.97 1.76 13.69 7.64 3.5 7.56 9.23 12.75 16.87 15.93 23.72 9.88 47.39 19.87 71.18 29.59 6.91 2.82 14.16 4.81 21.21 7.32 5.01 1.78 9.24 4.53 11.01 9.96.68 2.1.52 3.32-1.98 4.26-13.77 5.15-27.37 3.73-40.65-1.28-9.39-3.54-18.33-8.25-27.58-12.16-10.75-4.54-21.8-8.08-33.62-8.41-2.68-.07-5.37-.06-8.03.21-3.47.36-6.37 3.62-5.24 6.79 3.67 10.34.27 20.15-1.8 29.99-2.56 12.2-4.77 24.32-3.13 36.86.28 2.11.86 3.35 2.69 4.49 23.99 14.89 49.76 25.74 76.67 34.1 4.99 1.55 9.73 3.9 14.57 5.9.61.25 1.2.62 1.73 1.02 3.92 2.95 6.34 6.82 7.12 11.69-3.46 1.37-6.81 3.27-10.39 4.02-7.89 1.65-15.58-.18-23.03-2.76-11.02-3.82-21.62-8.54-31.15-15.4-.97-.7-2.15-1.2-3.3-1.53-8.9-2.6-17.85-5.03-26.71-7.78-2.77-.86-4.18.19-4.72 2.47-.9 3.77-1.39 7.63-2.05 11.45z"/></g></svg>