<svg enable-background="new 0 0 400 400" viewBox="0 0 400 400" xmlns="http://www.w3.org/2000/svg"><path d="m29.87 144.01c10.22-.72 20.05-.65 29.59-2.26 20.22-3.4 39.28-10.5 56.81-21.22 8.49-5.19 7.74-5.36 5.52-14.91-2.96-12.72-9.3-23.06-18.2-32.46-9.91-10.47-19-21.73-28.42-32.67-3.03-3.52-1-10.6 2.96-12.92 4.9-2.87 9.14-2.23 13.61.63 6.58 4.22 13.05 8.67 19.93 12.35 9.74 5.21 19.86 9.7 29.69 14.73 4.15 2.12 8.25 4.53 11.94 7.36 5.99 4.6 8.04 11.05 7.16 18.45-.41 3.43-1.3 6.84-1.42 10.27-.18 5.2 1.31 6.18 6.03 4.6 12.39-4.15 24.65-8.74 37.21-12.3 9.64-2.73 19.63-4.26 29.51-6.14 15.26-2.9 30.52-5.88 45.87-8.28 4.5-.7 9.31.29 13.95.76 12.23 1.26 24.55 2.06 36.64 4.17 12.03 2.1 23.05 7.17 29.93 17.94 2.61 4.08 3.52 9.27 4.92 14.05.24.81-.75 2.55-1.63 3.04-6.36 3.56-12.78 4.07-19.44.41-8.12-4.47-16.28-8.9-24.7-12.74-3.97-1.81-8.55-2.9-12.91-3.12-13.5-.67-26.77 1.17-39.73 5.05-1.02.31-1.99.77-3.55 1.38 1.78 1.27 3.13 2.18 4.43 3.16 6.06 4.6 12.18 9.11 18.12 13.85 7.29 5.81 10.3 13.4 8.22 22.6-.51 2.24-1.67 4.67-3.26 6.29-10.04 10.22-20.09 20.44-30.57 30.2-4.2 3.92-9.46 6.7-14.27 9.96-5.55 3.77-11.34 7.23-16.6 11.36-3.1 2.43-5.73 5.67-7.93 8.98-3.45 5.17-2.52 12.08 1.83 16.33 17.38 16.97 34.88 33.83 54.68 48.03 5.51 3.95 11.41 7.44 17.39 10.66 4.68 2.53 9.81 2.96 14.89.65.4-.18.84-.31 1.27-.44 10.14-3.06 12.41-2.64 18.58 5.81 4.89 6.7 10.93 10.91 19.09 12.38 4.32.78 7 4.08 9.26 10.36-13.62 9.08-28.04 13.11-43.99 6.62-13.25-5.39-26.42-10.97-39.58-16.55-1.37-.58-2.76-1.57-3.64-2.75-5.79-7.77-13.12-13.7-21.53-18.37-11.62-6.45-22.03-14.44-31.25-24.06-7.51-7.84-15.35-15.35-22.97-23.09-1.53-1.56-2.89-2.36-5.23-1.78-3.79.93-7.7 1.35-11.54 2.1-1.05.21-2.17.64-3 1.29-14.12 11.14-30.33 14.35-47.93 13.51-9.12-.44-18.3.45-27.45.81-7.5.3-10.51 5.63-12.44 11.73-2.5 7.91-1.66 15.93-.03 23.9 2.6 12.73 5.91 25.23 11.47 37.05 1.42 3.01 3.35 5.34 6.19 7.22 11.59 7.71 23.57 14.65 37.04 18.5 13.52 3.87 27.3 3.62 40.87.77 5.9-1.24 11.35-4.59 17.04-6.9 7.76-3.15 15.5-6.38 23.37-9.23 2.66-.96 5.68-1.12 8.55-1.24 2.9-.12 4.77 1.53 5.56 4.39 1.34 4.79-.55 10-4.61 12.75-18.13 12.27-37.55 21.65-59.09 26.15-12.96 2.71-26.12 2.92-39 .11-7.68-1.67-14.95-5.22-22.37-8.01-.79-.3-1.4-1.09-2.06-1.7-8.43-7.7-17.15-15.11-25.14-23.23-3.58-3.64-5.99-8.57-8.42-13.19-8-15.16-12.38-31.58-16.13-48.17-1.99-8.83-3.61-17.74-5.29-26.63-.39-2.07-.49-4.23-.5-6.34-.04-16.01-.19-32.01.04-48.02.14-9.98-2.92-18.91-7.79-27.36-4.46-7.75-9.14-15.37-13.7-23.06-.61-1.04-1.11-2.14-1.85-3.57zm54.38 26.83c-.26.35-.52.7-.79 1.05 4.79 10.52 4.66 21.39 3.32 32.56-1.01 8.4 1.76 16.05 7.39 22.62 10.42-3.41 20.72-6.71 30.94-10.24.95-.33 2.15-2.26 1.95-3.16-.92-4.19-1.57-8.69-3.64-12.33-6.36-11.16-16.21-18.93-27.1-25.33-3.73-2.2-8.02-3.48-12.07-5.17zm130.09-7.27c-1.35-3.49-2.23-7.27-4.15-10.41-5.55-9.09-13.14-16.33-22.11-22.03-2.14-1.36-4.55-2.44-6.98-3.17-4.53-1.36-7.73 1.82-6.54 6.27 1.67 6.25 3.41 12.48 5 18.75 2.07 8.17 6.13 15.19 11.39 21.74 2.54 3.16 5.36 3.73 8.42 2.26 3.88-1.86 7.35-4.57 11.11-6.71 2.6-1.49 3.31-3.7 3.86-6.7zm-92.96-6.04c12.52 15.22 24.72 30.05 36.9 44.85 5.53-3.28 5.82-3.6 5.12-8.91-1.52-11.43-5.12-22.19-11.08-32.06-3.44-5.7-8.24-10-14.92-11.68-1.09-.27-2.55-.35-3.45.16-4.19 2.36-8.22 4.96-12.57 7.64zm130.21-40.83c-.19-.08-.38-.15-.56-.23 0-.45.02-.89 0-1.34-.54-8.59-9.58-13.99-17.34-10.37-3.73 1.75-7.48 3.46-11.22 5.21-5.73 2.67-6.33 3.96-3.76 9.8.82 1.86 2.25 3.58 3.75 4.99 2.51 2.37 5.3 4.43 7.96 6.65 4.12 3.43 10.3 2.57 13.39-1.83 1.86-2.65 3.87-5.19 5.6-7.92.95-1.52 1.47-3.3 2.18-4.96z" fill="#010104"/><g fill="#fcfbfa"><path d="m385.2 377.6.6-.7c.6.4 1.3.9 1.9 1.5l-.6.7c-.8-.5-1.4-1-1.9-1.5zm.3 7.1c.6-1.4 1.1-2.9 1.5-4.5.3.1.6.3.9.4-.5 1.4-1 2.9-1.5 4.4zm.2-10.1.6-.6c.7.5 1.3 1.1 1.9 1.6l-.7.7c-.6-.6-1.2-1.2-1.8-1.7zm8.4-.8h.8v.9h1.8v.7h-1.8v1.8h-.8v-.3h-1.2v.9h3.3v2.6h-.8v-.4h-2.5c0 .3 0 .6-.1.8h3.4v.7h-3.5c0 .3-.1.6-.1.8h4v.7h-3.5c.7.9 1.9 1.3 3.6 1.5-.2.2-.4.5-.6.9-1.9-.3-3.2-1.1-3.8-2.3-.5 1.1-1.8 2-3.9 2.4-.2-.3-.4-.5-.6-.8 1.9-.4 3.1-.9 3.6-1.7h-3.2v-.7h3.5c.1-.2.1-.5.2-.8h-3.3v-.7h3.4c0-.2 0-.5 0-.8h-2.4v.3h-.8v-2.6h3.3v-.9h-1.2v.3h-.8v-1.8h-1.8v-.7h1.8v-.9h.8v.9h3.2zm-4.4 5.5h2.4c0-.3 0-.6 0-.9h-2.4zm1.2-3.1h3.2v-.8h-3.2zm4.4 2.2h-2.4v.9h2.5v-.9z"/><path d="m389.2 385.8h.9v1.5h1.9v-1.5h.9v1.5h2.7v6h1.1v.9h-11.3v-.9h1.1v-6h2.7zm.2 8.7.5.8c-1.2.6-2.5 1.3-4 1.9-.2-.3-.3-.6-.6-.8 1.6-.6 3-1.3 4.1-1.9zm-2-4.3h1.9v-2.1h-1.9zm0 3.1h1.9v-2.2h-1.9zm2.7-3.1h1.9v-2.1h-1.9zm0 3.1h1.9v-2.2h-1.9zm2.4 1.3c1.4.6 2.7 1.2 4.1 1.8l-.5.9c-1.5-.7-2.8-1.4-4.1-1.9zm2.2-6.5h-1.9v2.1h1.9zm-1.9 5.2h1.9v-2.2h-1.9z"/></g></svg>