<svg enable-background="new 0 0 400 400" viewBox="0 0 400 400" xmlns="http://www.w3.org/2000/svg"><path d="m61.55 256c7.52 0 14.87.16 22.2-.04 7.91-.22 15.82-.63 23.7-1.31 2.1-.18 4.19-1.47 6.12-2.56 3.16-1.78 4.77-4.27 4.13-8.27-.72-4.51-.84-9.14-.98-13.72-.06-1.98-.69-3.11-2.61-3.61-10.24-2.69-20.43-5.62-30.73-8.07-10.16-2.42-17.29-7.94-20.67-18.49 6.41-1.46 12.69-2.78 18.91-4.33 7.59-1.89 15.17-3.83 22.68-6 6.41-1.85 9.16-5.6 9.28-12.3.15-8.76-3.22-16.6-6.8-24.33-1.08-2.33-6.06-3.12-7.83-1.32-5.83 5.94-12.81 7.12-20.39 4.63-4.18-1.37-8.16-3.47-12.09-5.5-5.65-2.93-11.17-6.11-16.76-9.15-5.71-3.11-9.51-7.57-10.41-14.41 9.6-3.28 19.24-3.36 28.98-2.5 4.23.37 8.47.98 12.7.91 6.54-.12 9.33-3.95 8.4-10.43-.61-4.28-2.29-7.66-5.78-10.47-4.87-3.92-9.42-8.27-13.96-12.59-4.23-4.02-7.47-8.62-7.38-14.86.03-1.99.73-2.63 2.77-2.73 5.69-.28 10.92.52 16.06 3.4 10.5 5.89 22.25 9.62 31.45 17.72 3.44 3.03 6.3 6.85 8.93 10.66 1.87 2.71 4.27 3.25 6.95 2.9 7.38-.96 14.28-3.37 20.81-7.03 4.74-2.66 9.64-5.08 14.65-7.17 2.85-1.19 4.43-3.16 4.97-5.83.77-3.82 1.22-7.72 1.43-11.61.07-1.24-.84-2.71-1.66-3.79-11.52-15.13-23.11-30.22-34.68-45.32-.73-.96-1.42-1.95-2.49-3.42 13.91 1.32 26.24 5.19 35.41 15.39 5.65 6.28 9.8 13.89 15.29 20.35 4.97 5.84 10.83 10.93 16.29 16.35 1.51 1.49 3.13 1.55 5.19 1.01 25.28-6.67 50.63-13.11 75.88-19.92 5.72-1.54 11.12-.51 16.57.41 17.03 2.88 32.11 9.53 43.24 23.37 8.15 10.14 12.15 22.03 14.35 34.63 5.05 28.93-1.69 55.24-17.89 79.39-.74 1.1-1.72 2.06-2.68 2.98-11.24 10.75-22.56 21.43-33.68 32.3-1.42 1.39-2.47 3.72-2.66 5.72-1.01 10.83.52 21.49 3.58 31.83 5.2 17.57 6.2 35.14 1.57 52.96-.73 2.8-.95 5.73-1.42 8.6-.72 4.35-7.54 8.29-11.47 6.35-.94-.47-1.37-2.36-1.66-3.68-3.21-14.97-6.02-30.04-9.63-44.91-2.26-9.29-5.66-18.3-8.69-27.4-.55-1.66-1.67-3.16-2.63-4.66-4.82-7.57-8.56-9.05-18.57-5.92-3.05.96-6.03 2.51-8.68 4.32-6.52 4.47-13.86 6.48-21.41 8.18-17.66 3.99-35.32 7.99-52.87 12.43-3.96 1-7.51 3.74-11.15 5.85-.52.3-.75 1.55-.7 2.33.82 11.61 1.69 23.21 2.63 34.81.07.89.61 1.9 1.24 2.58 15.3 16.59 33.95 27.05 56.57 28.9 6.43.53 13.15-2 19.69-3.34 2.94-.6 5.74-1.89 8.68-2.55 3.5-.78 7.14-.9 9.34 2.6 2.27 3.61 3.02 5.98-.73 9.28-15.68 13.82-33.85 20.74-54.7 19.83-11.71-.51-22.39-4.63-32.19-11.24-6.45-4.34-11.55-9.62-15.34-16.43-3.53-6.34-7.33-12.6-11.6-18.45-5.63-7.71-8.68-16.2-9.98-25.55-.79-5.64-2.02-11.25-5.74-15.89-2.45-3.06-5.41-4.92-9.39-5.87-11.5-2.76-23.02-5.58-34.26-9.22-8.21-2.7-13.99-9.51-15.7-16.78zm222.5-50.22c10.61-10.15 20.97-20.02 31.26-29.97.81-.78 1.21-2.09 1.55-3.23 3.71-12.3 7.49-24.58 10.98-36.93 1.15-4.05 2.1-8.3 2.16-12.47.2-13.37-5.94-24.43-13.26-35.12-4.97-7.25-14.8-8.81-21.15-7.04-17 4.73-34.05 9.29-51.07 13.93-7.19 1.96-14.38 3.95-21.75 5.98 1.38 15.13 8.76 26.08 21.42 33.53 9.22 5.43 18.81 5.71 28.56 1.21 3.65-1.68 7.32-3.35 11.11-4.68 11.85-4.17 23.95-4.85 37.31-2.22-1.52 3.15-2.31 6.33-4.26 8.44-3.22 3.5-6.83 6.92-10.9 9.29-11.39 6.62-23.11 12.69-34.7 18.97-2.43 1.32-4.89 2.59-7.52 3.97 6.81 12.22 13.48 24.18 20.26 36.34zm-33.35 14.73c-2.11-2.88-3.5-5.22-5.3-7.18-6.27-6.77-9.42-14.53-9.36-23.89.04-5.94-7.81-10.7-13.41-8.88-11.47 3.73-22.95 7.45-34.44 11.12-12.95 4.14-25.43 9.22-35.94 18.14-1.07.91-1.98 2.72-1.95 4.09.2 9.28.66 18.55 1.05 27.83.06 1.52.22 3.03.37 5.14 35.79 1.19 68.08-8.95 98.98-26.37zm-36.5-68.9c-4.18-8.19-8.22-16.39-12.52-24.45-2.66-4.99-6.8-8.6-12.14-10.54-2.04-.74-4.64-1.69-6.43-1.04-8.04 2.96-16.61 5.38-23.61 10.06-8.06 5.39-14.7 12.91-21.87 19.61-.54.51-.59 1.82-.48 2.72.53 4.32 1.28 8.62 1.79 12.94.72 6.1 2.37 11.78 6.33 16.66 1.22 1.51 2.26 1.93 4.23 1.34 11-3.34 22.13-6.26 33.07-9.77 11.44-3.66 22.27-8.66 31.63-17.53z" fill="#010104"/><g fill="#fcfbfa"><path d="m385.2 377.6.6-.7c.6.4 1.3.9 1.9 1.5l-.6.7c-.8-.5-1.4-1-1.9-1.5zm.3 7.1c.6-1.4 1.1-2.9 1.5-4.5.3.1.6.3.9.4-.5 1.4-1 2.9-1.5 4.4zm.2-10.1.6-.6c.7.5 1.3 1.1 1.9 1.6l-.7.7c-.6-.6-1.2-1.2-1.8-1.7zm8.4-.8h.8v.9h1.8v.7h-1.8v1.8h-.8v-.3h-1.2v.9h3.3v2.6h-.8v-.4h-2.5c0 .3 0 .6-.1.8h3.4v.7h-3.5c0 .3-.1.6-.1.8h4v.7h-3.5c.7.9 1.9 1.3 3.6 1.5-.2.2-.4.5-.6.9-1.9-.3-3.2-1.1-3.8-2.3-.5 1.1-1.8 2-3.9 2.4-.2-.3-.4-.5-.6-.8 1.9-.4 3.1-.9 3.6-1.7h-3.2v-.7h3.5c.1-.2.1-.5.2-.8h-3.3v-.7h3.4c0-.2 0-.5 0-.8h-2.4v.3h-.8v-2.6h3.3v-.9h-1.2v.3h-.8v-1.8h-1.8v-.7h1.8v-.9h.8v.9h3.2zm-4.4 5.5h2.4c0-.3 0-.6 0-.9h-2.4zm1.2-3.1h3.2v-.8h-3.2zm4.4 2.2h-2.4v.9h2.5v-.9z"/><path d="m389.2 385.8h.9v1.5h1.9v-1.5h.9v1.5h2.7v6h1.1v.9h-11.3v-.9h1.1v-6h2.7zm.2 8.7.5.8c-1.2.6-2.5 1.3-4 1.9-.2-.3-.3-.6-.6-.8 1.6-.6 3-1.3 4.1-1.9zm-2-4.3h1.9v-2.1h-1.9zm0 3.1h1.9v-2.2h-1.9zm2.7-3.1h1.9v-2.1h-1.9zm0 3.1h1.9v-2.2h-1.9zm2.4 1.3c1.4.6 2.7 1.2 4.1 1.8l-.5.9c-1.5-.7-2.8-1.4-4.1-1.9zm2.2-6.5h-1.9v2.1h1.9zm-1.9 5.2h1.9v-2.2h-1.9z"/></g></svg>