<svg viewBox="0 0 400 400" xmlns="http://www.w3.org/2000/svg"><rect width="400" height="400" fill="white" /><path d="m126.89 358.66c-9.62-16.08-19.09-31.94-17.31-52.21 3.12-35.38 2.78-70.9 2.13-106.37-.24-13.03-2.59-26.03-4.18-39.02-.64-5.18-.56-10.02 1.5-15.02 3.14-7.64 5.52-15.58 8.4-23.33.8-2.15 1.99-4.26 3.44-6.03 9.25-11.23 18.28-22.67 28.09-33.39 6.15-6.72 13.17-12.78 20.46-18.26 6.93-5.21 9.37-11.68 8.46-19.81-.9-8.02 2.38-13.8 8.8-18.28 1.86-1.29 3.34-1.22 4.6.36 1.65 2.07 3.11 4.32 4.48 6.6.62 1.03.99 2.28 1.19 3.47 1.59 9.52 6.15 17.61 11.92 25.14 1.43 1.86 2.77 3.81 3.94 5.84 12.28 21.31 29.16 38.61 47.41 54.76 6.7 5.93 12.87 12.46 19.62 18.34 5.41 4.72 7.35 10.76 8.06 17.46.65 6.1-.65 11.96-2.22 17.85-2.5 9.38-4.63 18.86-6.81 28.32-.4 1.72-.4 3.55-.4 5.34-.03 21.49-.12 42.98.07 64.47.04 4.67-.55 8.84-3.72 12.38-1.47 1.65-1.55 3.23-.27 5.07 5.63 8.13 7.15 16.93 6.29 26.9-1.46 17.04-1.51 34.2-2.46 51.3-.11 1.96-1.78 4.62-3.48 5.48-1.63.83-4.28-.09-6.38-.63-.59-.15-1.05-1.62-1.2-2.54-1.65-10.37-3.57-20.71-4.7-31.13-.84-7.65-.82-15.42-.8-23.13.01-4.04-.55-7.8-2.67-11.2-2.55-4.07-2.99-8.29-1.35-12.73 1.26-3.4.52-6.38-1.04-9.56-1.07-2.19-1.6-4.87-1.57-7.33.12-8.5.43-17.01.99-25.49.42-6.34.03-12.54-2.22-18.47-3.69-9.71-3.02-19.54-1.18-29.41 1.58-8.46 3.68-16.82 5.07-25.3 2.07-12.66.21-24.25-8.8-34.41-13.31-15.02-26.79-29.79-43.13-41.63-1.81-1.31-3.77-2.4-5.67-3.58-6.8-4.22-13.51-5.84-21.41-1.98-5.45 2.66-10.74 5.19-15.37 9.2-8.21 7.09-16.52 14.1-25.13 20.71-3.89 2.99-5.74 6.58-5.58 11.11.34 9.47.26 19.06 1.8 28.37 3.55 21.48 4.08 42.98 2.02 64.54-.42 4.37-2.99 8.6-4.87 12.75-1.22 2.68-1.5 5.16-.73 8.03 1.42 5.28 2.83 10.61 3.6 16.01.56 3.91.34 8 0 11.96-2.16 25.64-4.44 51.27-6.69 76.9-.04.42-.14.84-.22 1.26-.24.12-.51.22-.78.32z" fill="#010102"/><g fill="#fcfbfa"><path d="m385.2 377.6.6-.7c.6.4 1.3.9 1.9 1.5l-.6.7c-.8-.5-1.4-1-1.9-1.5zm.3 7.1c.6-1.4 1.1-2.9 1.5-4.5.3.1.6.3.9.4-.5 1.4-1 2.9-1.5 4.4zm.2-10.1.6-.6c.7.5 1.3 1.1 1.9 1.6l-.7.7c-.6-.6-1.2-1.2-1.8-1.7zm8.4-.8h.8v.9h1.8v.7h-1.8v1.8h-.8v-.3h-1.2v.9h3.3v2.6h-.8v-.4h-2.5c0 .3 0 .6-.1.8h3.4v.7h-3.5c0 .3-.1.6-.1.8h4v.7h-3.5c.7.9 1.9 1.3 3.6 1.5-.2.2-.4.5-.6.9-1.9-.3-3.2-1.1-3.8-2.3-.5 1.1-1.8 2-3.9 2.4-.2-.3-.4-.5-.6-.8 1.9-.4 3.1-.9 3.6-1.7h-3.2v-.7h3.5c.1-.2.1-.5.2-.8h-3.3v-.7h3.4c0-.2 0-.5 0-.8h-2.4v.3h-.8v-2.6h3.3v-.9h-1.2v.3h-.8v-1.8h-1.8v-.7h1.8v-.9h.8v.9h3.2zm-4.4 5.5h2.4c0-.3 0-.6 0-.9h-2.4zm1.2-3.1h3.2v-.8h-3.2zm4.4 2.2h-2.4v.9h2.5v-.9z"/><path d="m389.2 385.8h.9v1.5h1.9v-1.5h.9v1.5h2.7v6h1.1v.9h-11.3v-.9h1.1v-6h2.7zm.2 8.7.5.8c-1.2.6-2.5 1.3-4 1.9-.2-.3-.3-.6-.6-.8 1.6-.6 3-1.3 4.1-1.9zm-2-4.3h1.9v-2.1h-1.9zm0 3.1h1.9v-2.2h-1.9zm2.7-3.1h1.9v-2.1h-1.9zm0 3.1h1.9v-2.2h-1.9zm2.4 1.3c1.4.6 2.7 1.2 4.1 1.8l-.5.9c-1.5-.7-2.8-1.4-4.1-1.9zm2.2-6.5h-1.9v2.1h1.9zm-1.9 5.2h1.9v-2.2h-1.9z"/></g></svg>