<svg enable-background="new 0 0 400 400" viewBox="0 0 400 400" xmlns="http://www.w3.org/2000/svg"><path d="m237.98 371.57c-.34-2.1-.97-4.03-.93-5.95.3-12.51.79-25.02 1.12-37.53.14-5.15.03-10.3.02-15.45 0-4.73-1.37-6.25-6.19-6.18-3.56.06-7.25.1-10.65 1.02-12.07 3.24-24.43 2.27-36.67 2.95-2.01.11-4.03.1-6.04.12-5.25.04-5.6.11-6.89 5.26-.67 2.66-1.02 5.58-.68 8.28 1 7.81.14 15.37-2.07 22.84-2.21 7.48-4.35 14.98-6.66 22.42-.93 2.98-3.15 4.79-7.18 5.79-.11-2.77-.64-5.37-.23-7.81 2.34-13.79 1.99-27.63 1.29-41.5-.1-2-.44-4-.78-5.98-1.48-8.68-4.66-11.78-13.36-13.48-5.58-1.09-11.23-2.05-16.61-3.81-2.78-.91-5.66-2.95-7.4-5.29-3.49-4.69-8.28-7.37-12.98-10.38s-7.31-7.6-7.95-12.99c-.77-6.43-.88-12.94-1.42-19.4-.15-1.81.23-2.93 2.01-3.64 11.51-4.62 21.69-11.56 31.78-18.58 5.33-3.71 11.08-6.25 17.24-7.93 3.04-.83 4.38-2.79 4.09-5.6-.54-5.32-1.93-10.58-2.09-15.89-.19-6.29-3.3-9.46-8.82-11.59-2.14-.83-3.84-3.11-5.42-5.01-4.41-5.31-8.58-10.81-12.96-16.15-6.5-7.91-11.1-16.72-13.31-26.76-.53-2.39-1.59-4.68-1.99-7.09-.42-2.56-.38-5.2-.45-7.81-.02-.88.61-1.97.28-2.62-3.68-7.26-.05-14.29.87-21.28 1.59-12.09 7.04-23.09 12.3-33.87 7.15-14.65 15.54-28.7 23.25-43.08 1.14-2.13 2.53-2.61 4.23-1.51 2.11 1.36 4.38 2.86 5.76 4.87 4.8 6.97 9.26 14.18 13.8 21.32.71 1.12 1.36 2.34 1.77 3.6 1.28 3.88 2.84 7.46 6.73 9.56.83.45 1.34 1.71 1.75 2.7 6.81 16.62 9.07 34.29 11.75 51.85.14.89-.35 1.89-.63 2.82-1.21 4.02-3.33 7.99-3.5 12.05-.35 8.52-2.92 15.9-7.93 22.7-1.4 1.9-1.72 4.62-2.47 6.98-.44 1.37-.7 2.8-1.12 4.19-3.18 10.48-6.85 20.88-6.89 32-.02 4.45.87 8.91.91 13.37.03 3.25 1.94 4.69 4.45 4.78 4.63.17 9.5.49 13.88-.68 9.69-2.59 19.48-2.47 29.3-2.55 5.48-.04 10.97.15 16.45.2 3.72.03 5.7-1.37 5.48-4.99-.37-6.27-2.32-12.1-6.13-17.31-2.27-3.11-4.64-6.48-5.69-10.1-4.77-16.41-9.14-32.93-13.54-49.44-2.92-10.96-.11-21.32 4.11-31.33 3.56-8.44 7.68-16.63 11.49-24.96 1.07-2.33 2.33-4.67 2.85-7.15 1.73-8.35 6.68-14.56 12.61-20.26 3.13-3 10.86-2.02 13.24 1.86 10.97 17.89 18.42 37.23 23.23 57.59 1.77 7.5 2.94 15.13 4.3 22.72.19 1.05-.12 2.19-.22 3.29-.34 4.07-.11 8.31-1.16 12.19-2.44 9.01-4.83 18.16-8.61 26.64-1.75 3.91-6.75 6.35-10.22 9.52-2.23 2.03-4.5 4.05-6.49 6.3-3.35 3.78-5.47 8.11-5.36 13.36.06 2.79.05 5.64-.43 8.37-.7 3.92.99 6.24 4.36 7.53 3.43 1.31 6.92 2.49 10.47 3.45 4.26 1.15 8.18 2.64 11.37 5.97 3.25 3.38 6.84 6.44 10.38 9.53 10.69 9.34 13.66 20.73 10.52 34.52-1.34 5.87-4.39 9.78-8.63 13.31-8.51 7.08-17.62 13.03-28.73 15.22-2.51.5-4.69 1.9-4.53 4.62.74 13.25-4.14 25.51-6.49 38.21-1.1 5.93-2.24 11.86-3.38 17.79-.78 4.22-2.88 7.44-7.56 9.27zm-89.8-192.09c2.25-2.97 4.51-5.06 5.66-7.64 5.08-11.4 9.89-22.92 14.68-34.45.89-2.14 1.44-4.47 1.82-6.76 1.75-10.75.48-21.39-1.33-32-2.48-14.54-6.99-28.16-17.55-39.1-2.53-2.62-4.91-5.19-9.02-5.44-.54.92-1.12 1.85-1.65 2.82-6.13 11.41-12.59 22.65-18.31 34.27-9.05 18.39-9.89 37.36.68 55.15 6.79 11.41 16.01 21.37 25.02 33.15zm53.83 112.06v.01c9.6-.42 19.2-1.03 28.8-1.16 3.44-.05 4.68-1.37 5.18-4.46 2.72-16.9 2.95-33.8.28-50.74-.63-3.98-2.98-6.25-6.7-6.95-4.71-.89-9.54-2.18-14.25-1.92-16.31.9-32.08 4.17-46.45 12.56-2.38 1.39-3.75 3.03-3.8 5.69-.07 3.35-.38 6.75.11 10.03 1.55 10.42 5.11 20.54 2.39 31.43-1.12 4.49 2.24 6.96 6.98 6.72 9.15-.47 18.31-.81 27.46-1.21zm66.42-163.18h.8c0-5.03.02-10.06-.02-15.09-.01-.87-.05-1.84-.43-2.6-5.06-10.08-10.1-20.17-15.34-30.15-1.94-3.71-5.22-6.04-9.32-7.13-1.78-.47-2.97-.33-4.01 1.65-4.06 7.71-8.97 15.02-12.41 22.98-2.75 6.36-5.05 13.37-5.42 20.2-1.11 20.61 5.73 39.33 15.91 56.94.48.83 1.53 1.72 2.43 1.87 8.5 1.39 13.44-1.34 17.22-9.18 1.74-3.62 3.45-7.27 5.52-10.7 3.18-5.28 5.15-10.84 5.09-17.06-.05-3.91-.02-7.82-.02-11.73zm-116.08 152.42.33-.03c-.62-5.21-.91-10.48-1.95-15.6-1.11-5.42-2.81-10.75-4.54-16.02-.73-2.23-2.37-3.8-5.17-2.5-4.52 2.11-9.13 4.05-13.6 6.26-4.37 2.17-8.47 4.96-12.96 6.82-5.24 2.16-6.48 3.77-4.95 9.32.46 1.68 1.29 3.36 2.33 4.76 5.76 7.78 11.99 14.99 22.35 16.65 1.08.17 2.09.93 3.17 1.04 3.4.37 6.83.84 10.24.75 2.95-.08 5-1.63 4.78-5.1-.13-2.11-.03-4.23-.03-6.35zm102.32 6.81c7.01-.31 16.87-4.17 21.7-8.53.87-.78 1.92-1.87 2.03-2.9.53-4.84 1.69-9.86.91-14.53-2.11-12.65-10.57-20.45-21.8-25.61-4.53-2.08-7.33-.15-7.27 4.93.04 3.35.07 6.7.1 10.05.11 12.28.61 24.52 4.33 36.59z" fill="#010100"/><g fill="#fafbfa"><path d="m6.4 11.7c-1-.8-1.9-1.6-2.9-2.3l.6-.7c.9.7 1.9 1.4 2.9 2.2zm-2.1 8.3c.7-2.1 1.4-4.2 2-6.4.2.1.6.3 1 .4-.7 2.3-1.3 4.4-1.9 6.4zm3-12.8c-1.1-.9-2.1-1.7-2.9-2.4l.6-.7c1 .8 2 1.5 3 2.4zm1.4-1.3v-.9h10.2v.9c-.9 4.2-2.3 7.3-4.1 9.4 1.3 1.4 3.2 2.7 5.7 4-.2.2-.4.5-.7.9-2.5-1.4-4.4-2.7-5.7-4.2-1.4 1.5-3.5 3-6.1 4.4 0 0 0 0-.1-.1-.3-.4-.5-.7-.7-.8 2.7-1.3 4.7-2.8 6.2-4.2-1.8-2.2-3-5.3-3.7-9.4zm9.2 0h-7.1c.6 3.8 1.7 6.7 3.4 8.7 1.7-2 2.9-4.8 3.7-8.7z"/><path d="m31.6 3.6h.9v2.3h4.1v9.1h1.7v.9h-16.6v-.9h1.7v-9.1h4.1v-2.3h.9v2.3h3.1v-2.3zm-4 13.3.6.8c-1.9.9-3.8 1.9-5.8 2.8-.2-.3-.3-.6-.5-.9 2-.9 3.9-1.8 5.7-2.7zm-3.2-10.1v3.7h3.1v-3.7zm0 4.5v3.7h3.1v-3.7zm4.1-4.5v3.7h3.1v-3.7zm0 4.5v3.7h3.1v-3.7zm9.1 9.1c-2.1-1.1-4.1-2-5.8-2.7l.5-.8c2.2.9 4.1 1.8 5.8 2.6zm-1.9-13.6h-3.1v3.7h3.1zm-3.2 4.5v3.7h3.1v-3.7z"/></g></svg>