<svg enable-background="new 0 0 400 400" viewBox="0 0 400 400" xmlns="http://www.w3.org/2000/svg"><path d="m98.26 50.05c1.01 8.07 2.35 15.91 2.84 23.79.31 5.09 4.07 6.48 7.23 8.71.42.3 1.37.18 1.91-.09 8.77-4.27 18.16-2.92 27.38-3.08 1.67-.03 3.34 0 5.66 0 .97-6.63 2.03-13.12 2.85-19.63.81-6.43 1.15-12.93 2.17-19.32.46-2.88 1.65-5.87 3.27-8.29 2.56-3.82 6.74-3.38 9.16.49 3.87 6.18 5.63 12.43 3.95 20.04-1.21 5.49-.68 11.57.14 17.24 1.27 8.74 2.02 17.32-.55 25.91-.29.96-.58 1.94-1.06 2.8-7.43 13.42-16.38 25.83-25.57 38.08-6 7.99-9.2 17.08-9.64 27.06-.05 1.19.67 2.79 1.58 3.58 3.09 2.68 6.72 3.35 10.9 3.13 10.37-.53 20.77-.7 31.15-.68 11.3.01 22.61.06 33.89.69 13.06.73 26.08 2.11 39.11 3.21.65.05 1.3.12 2.29.22 1.11-4.64 2.28-9.16 3.17-13.73.14-.7-.82-1.93-1.59-2.45-5.2-3.5-10.55-6.75-15.67-10.35-1.26-.88-2.49-2.7-2.59-4.16-.32-4.72-3.61-7.81-5.58-11.63-1.14-2.21-2.23-4.67-2.43-7.09-1.61-19.07-3.12-38.14-4.34-57.24-.2-3.21 1.02-6.55 1.84-9.77 1.33-5.21 3.02-10.33 1.66-15.83-.17-.67.06-1.58.41-2.22 2.44-4.5 4.96-8.97 7.61-13.71 6.66 4.79 9.79 11.04 10.1 18.87.29 7.48.74 14.95 1.01 22.43.1 2.83 1.63 4.29 4.13 4.88 6.52 1.53 13 3.32 19.6 4.36 8.83 1.39 17.75 2.12 26.63 3.23 2.32.29 3.27-.65 4.1-2.76 3.36-8.53 4.04-17.35 3.44-26.38-.66-9.9 3.4-17.53 11.7-23.74 1.52 2.58 3.32 4.89 4.34 7.51 6.14 15.83 8.94 32.27 5.51 48.98-1.47 7.15-5.45 13.89-8.87 20.51-3.52 6.82-7.52 13.43-11.74 19.86-5.82 8.88-12.03 17.51-18.08 26.24-.19.28-.37.58-.63.78-9.12 7.38-8.78 17.19-6.92 27.32.21 1.16 1.29 2.53 2.35 3.12 6.45 3.59 12.95 7.09 19.56 10.36 2.23 1.1 2.91 2.39 2.36 4.68-.34 1.41-.29 2.91-.67 4.31-2.37 8.64.12 17.07.95 25.58 1.83 18.64 3.14 37.29-1.73 55.69-1.05 3.96-2.82 7.77-4.6 11.48-.45.94-2.28 1.8-3.4 1.72-2.99-.2-5.96-.9-8.92-1.47-7.17-1.37-15.01 3.2-17.21 10.18-3.04 9.63-3.25 19.6-3.27 29.57-.01 6.95-1.01 13.61-5.32 19.36-2.54 3.38-5.76 5.86-10.43 7.5 1.81-4.42.27-7.49-2.26-10.71-1.52-1.93-2.35-4.93-2.34-7.44.07-10.63.56-21.25.95-31.88.25-6.78-3.83-11.14-10.81-11.48-6.02-.29-12.09-.27-18.06-1.01-16.42-2.02-32.75-4.92-49.22-6.35-9.71-.84-19.61.47-29.43.8-2.06.07-2.7 1.19-3.05 3.16-2.72 15.27-5.57 30.51-8.46 46.19-3.94 1.17-4.93.79-7.62-3.26-3.91-5.89-5.67-12.34-5.26-19.39.47-7.98.27-15.91-2.72-23.47-.7-1.78-1.93-3.47-3.29-4.84-2.19-2.23-4.51-4.41-7.09-6.16-8.14-5.51-12.33-13.35-14.78-22.65-5.6-21.26-8.12-42.59-3.05-64.32.23-.97.77-1.86.94-2.83.53-3 1.56-6.07 1.27-9-.58-5.88 1.49-9.4 7.39-10.13 6.1-.76 12.25-1.1 18.38-1.67 3.96-.37 7.85-1.18 10.61-4.3.7-.8 1.05-2.82.54-3.62-2.62-4.1-2.89-8.36-1.71-12.88.2-.76.37-1.52.55-2.28 1.42-6.05.89-7.31-4.34-10.33-1.84-1.06-3.62-2.27-5.54-3.14-6.96-3.17-12.35-7.59-14.48-15.43-.63-2.32-2.67-4.38-4.39-6.26-7.59-8.34-8.95-18.42-7.51-28.89 1.71-12.42 6.58-23.85 12.85-34.69 1.72-3 4.28-1.29 6.79-1.59zm79.49 227.16c7.95 0 15.89-.1 23.84.05 2.99.06 5.98.56 8.93 1.08 4.07.71 8.08 1.79 12.16 2.39 5.28.77 10.46.26 15.42-2.01 2.03-.93 3.02-2.08 3.16-4.45 1.46-24.57 3.89-49.08 3.22-73.75-.13-4.74-.68-5.74-5.07-7.35-1.15-.42-2.35-.75-3.56-.92-17.88-2.49-35.82-3.74-53.86-2.24-13.34 1.11-26.67 1.22-39.6-2.55-5.38-1.57-9.81-.85-14.14 2.08-1.01.69-1.99 2.04-2.17 3.21-.99 6.63-1.82 13.29-2.53 19.96-.61 5.77-2 11.69-1.27 17.31 1.81 13.84 4.61 27.55 7.17 41.29.2 1.05 1.56 2.48 2.59 2.68 10.09 1.99 20.19 3.87 30.59 3.26 5.03-.29 10.08-.04 15.12-.04zm106.68-176.71c-12.79-1.63-25.26-3.44-37.79-4.58-1.75-.16-5.35 2.85-5.45 4.55-.8 13.58.76 26.47 11.86 36.47 4.17 3.76 7.31 4.42 12.42 2.42 2.65-1.04 5.1-3.24 6.97-5.48 3.86-4.62 7.29-9.6 10.85-14.47.5-.69 1.08-1.55 1.09-2.34.09-5.46.05-10.9.05-16.57zm-4.92 144.81h.45c0-13.31.02-26.61-.01-39.92-.01-4.73-2.02-7.63-5.21-7.77-2.32-.11-6.82 4.5-7.05 7.39-.84 10.25-2.06 20.5-2.31 30.76-.3 12.6-.03 25.24.51 37.83.24 5.65 6.05 8.15 11 5.43 1.85-1.02 2.69-2.31 2.66-4.53-.1-9.72-.04-19.45-.04-29.19zm-182.95-59.23c-.92 5.78-2.76 11.5-2.52 17.15.36 8.54 2.14 17.01 3.35 25.51 1.61 11.37 4.63 22.94-4.83 32.68-.07.07-.08.21-.13.31-1.47 3.04-.63 5.94 1.49 8.01.93.91 3.33.42 5.05.36.98-.03 1.94-.51 2.93-.69 1.73-.31 2.35-1.16 2.23-3.01-.34-5.02-.58-10.05-.62-15.09-.06-7.36-.21-14.74.23-22.08.69-11.48 2.08-22.93 2.69-34.41.32-6.24-2.37-8.45-9.87-8.74zm8.66-84.22c.44 1.66.58 2.31.79 2.94 2.45 7.55 8.22 12.59 13.44 18.09 2.07 2.18 3.92 2.18 6.12.73 1.2-.79 2.45-1.64 3.38-2.72 3.35-3.9 6.8-7.74 9.73-11.94 1.47-2.1 2.32-4.87 2.68-7.45.66-4.83-4.67-8.61-9.29-7.12-3.91 1.27-7.95 2.14-11.92 3.24-4.9 1.37-9.78 2.78-14.93 4.23z" fill="#010100"/><g fill="#fafbfa"><path d="m6.4 11.7c-1-.8-1.9-1.6-2.9-2.3l.6-.7c.9.7 1.9 1.4 2.9 2.2zm-2.1 8.3c.7-2.1 1.4-4.2 2-6.4.2.1.6.3 1 .4-.7 2.3-1.3 4.4-1.9 6.4zm3-12.8c-1.1-.9-2.1-1.7-2.9-2.4l.6-.7c1 .8 2 1.5 3 2.4zm1.4-1.3v-.9h10.2v.9c-.9 4.2-2.3 7.3-4.1 9.4 1.3 1.4 3.2 2.7 5.7 4-.2.2-.4.5-.7.9-2.5-1.4-4.4-2.7-5.7-4.2-1.4 1.5-3.5 3-6.1 4.4 0 0 0 0-.1-.1-.3-.4-.5-.7-.7-.8 2.7-1.3 4.7-2.8 6.2-4.2-1.8-2.2-3-5.3-3.7-9.4zm9.2 0h-7.1c.6 3.8 1.7 6.7 3.4 8.7 1.7-2 2.9-4.8 3.7-8.7z"/><path d="m31.6 3.6h.9v2.3h4.1v9.1h1.7v.9h-16.6v-.9h1.7v-9.1h4.1v-2.3h.9v2.3h3.1v-2.3zm-4 13.3.6.8c-1.9.9-3.8 1.9-5.8 2.8-.2-.3-.3-.6-.5-.9 2-.9 3.9-1.8 5.7-2.7zm-3.2-10.1v3.7h3.1v-3.7zm0 4.5v3.7h3.1v-3.7zm4.1-4.5v3.7h3.1v-3.7zm0 4.5v3.7h3.1v-3.7zm9.1 9.1c-2.1-1.1-4.1-2-5.8-2.7l.5-.8c2.2.9 4.1 1.8 5.8 2.6zm-1.9-13.6h-3.1v3.7h3.1zm-3.2 4.5v3.7h3.1v-3.7z"/></g></svg>