<svg enable-background="new 0 0 400 400" viewBox="0 0 400 400" xmlns="http://www.w3.org/2000/svg"><path d="m6.8 9.5c.6.3 1.3.7 2.1 1.1-.4.4-.7.8-.9 1.2-.7-.4-1.3-.8-1.8-1.1s-1.1-.6-1.6-.8c.2-.4.5-.8.7-1.2.4.2.8.5 1.5.8zm.9 6.9c-.3.6-.5 1.1-.7 1.7s-.4 1.1-.6 1.7c-.6-.4-1.1-.7-1.6-1 .7-1 1.2-1.8 1.5-2.4.3-.5.6-1.1.8-1.7.3-.6.5-1.2.8-1.8.3.3.8.6 1.3.8-.7 1.3-1.2 2.2-1.5 2.7zm.1-11c.4.3 1 .7 1.7 1.1-.5.2-.8.6-1.1 1.1-.5-.6-1-1-1.4-1.2s-.9-.6-1.5-.8c.2-.4.5-.7.9-1.1.5.3.9.6 1.4.9zm10.5 13.1c1 .4 2 .6 3.1.7-.4.4-.7.8-.8 1.3-.9-.2-1.9-.6-3-.9-1-.4-2-.9-2.8-1.6-.5.4-1.1.9-1.9 1.3s-1.9.9-3.3 1.2c-.1-.3-.5-.8-1.1-1.3 1 0 2.1-.3 3.2-.8 1.2-.5 1.9-1 2.3-1.7h-3.2c-.4 0-1 0-2 .1v-1.2c1 0 1.7.1 2 .1h3.3v-1h-2.3c-.2 0-.9 0-2 .1v-1.2c1.2 0 1.9.1 2 .1h2.3v-.8h-4.1c0-.7.1-1.2.1-1.6 0-.5 0-1.1-.1-1.8h4.1v-.7h-2.5c0-.6.1-1.1.1-1.6v-.6h-.5c-.4 0-1 0-1.8.1v-1.3c1.2 0 1.9.1 2.1.1h.2c0-.3 0-.8-.1-1.4h1.4c0 .6-.1 1-.1 1.4h3.4c0-.4 0-.8-.1-1.3h1.5c0 .4-.1.9-.1 1.3.7 0 1.5 0 2.5-.1v1.2c-1 0-1.8-.1-2.5-.1v.6c0 .3 0 .8.1 1.5h-2.5v.8h4.1c0 .7-.1 1.3-.1 1.8s0 1 .1 1.5h-4.1v.8h1.4c.8 0 1.8 0 2.9-.1v1.2c-1 0-1.9-.1-2.8-.1h-1.5v1h3.2c.3 0 1 0 2.1-.1v1.2c-1.1 0-1.8-.1-2.1-.1h-3.4l-.1.1c1.4 1 2.4 1.5 3.4 1.9zm-4.1-6.7v-1.3h-2.7v1.3zm2.2-4.1v-1.1h-3.4v1.1zm1.9 4.1v-1.3h-2.8v1.3z" fill="#fafbfa"/><path d="m37 6.7v2.3 5.4c1 0 1.8 0 2.2-.1v1.3c-.6 0-1.5-.1-2.5-.1h-11.9c-.7 0-1.3 0-1.8.1v-1.3c.5 0 1.1.1 2 .1v-5.2c0-1 0-1.8-.1-2.5h3.7c0-1.3 0-2.1-.1-2.5h1.5c0 .4-.1 1.3-.1 2.5h2.2c0-1.2 0-2.1-.1-2.6h1.5c0 .4-.1 1.3-.1 2.6zm-12.3 13.7c-.3-.4-.7-.8-1.1-1.1 1.1-.4 2.1-.9 2.9-1.3.8-.5 1.5-1 2.1-1.6.4.4.9.8 1.3 1.1-2.5 1.4-4.2 2.4-5.2 2.9zm3.9-10.1v-2.4h-2.2v2.4zm0 4.1v-2.9h-2.2v2.9zm3.5-4.1v-2.4h-2.2v2.4zm0 4.1v-2.9h-2.2v2.9zm.4 2.9 1-1.1c.6.3 1.4.7 2.5 1.3s2 1.1 2.7 1.5c-.4.4-.8.8-1.1 1.3-.8-.8-2.5-1.7-5.1-3zm3.1-7v-2.4h-2.1v2.4zm0 4.1v-2.9h-2.1v2.9z" fill="#fafbfa"/><path d="m164.12 341.55c-6.54-8.44-11.77-17.11-12.78-27.63-.33-3.41.01-6.93.44-10.35 1.2-9.61-2.51-16.01-11.63-19.3-5.03-1.81-10.06-3.7-15.23-5.02-4.28-1.09-8.29-.79-12.01 2.83-3.53 3.43-5.58 6.9-5.49 11.83.09 5.03-.17 10.07-.32 15.1-.05 1.67-.12 3.37-.41 5.01-.87 4.9-3.48 6.86-8.48 6.5-6.76-.48-9.58-2.47-10.48-9.21-.75-5.56-.48-11.3-.28-16.94.16-4.45 1.12-8.87 1.37-13.33.58-10.21-5.11-16.74-13.3-21.55-5.59-3.28-11.24-6.47-17.01-9.43-11.51-5.9-19.03-15.12-22.6-27.39-1.82-6.27-5.14-11.21-9.9-15.52-1.27-1.15-2.27-3.46-2.15-5.15.34-4.77.75-9.67 2.18-14.19 3.53-11.17 7.64-22.15 11.51-33.22.84-2.41 2.55-3.76 4.94-4.56 9.89-3.31 20.17-3.67 30.45-4.34 7.91-.52 15.82-1.33 23.64-2.59 6.27-1.01 7.62-3.78 5.1-9.76-1.69-3.99-3.9-7.8-6.27-11.45-3.14-4.84-4.51-10.03-4.97-15.73-1.21-14.94-2.71-29.86-4.2-44.78-.17-1.73-.89-3.45-1.56-5.09-1.66-4.12-3.43-8.19-5.56-13.22 3.15-.17 5.9-.97 8.24-.32 8.6 2.36 17.1 5.11 25.56 7.96 1.26.42 2.58 1.96 3.01 3.27 1.15 3.47 2.34 7.05 2.59 10.66.39 5.67 2.98 9.63 8.3 10.78 6.05 1.31 12.31 2.01 18.5 2.15 6.91.16 13.84-.69 20.77-.92 2.53-.08 4.06-1.17 5.41-3.2 4.21-6.32 4.29-13.21 3.28-20.36-.94-6.64.08-13.08 2.36-19.73 9.11 4.34 18.28 8 26.68 12.98 4.59 2.72 5.62 8.63 6.23 13.97 1.12 9.79-1.48 19.1-3.69 28.45-2.62 11.08-6.98 21.36-13.24 30.96-7.38 11.31-14.21 22.98-21.32 34.57 11.82 11.8 25.58 20.21 41.06 25.67 8.94 3.15 18.14 5.66 27.34 7.99 3.65.92 5.73 2.45 6.15 6.18.1.85.53 1.66.97 2.93 4.71-6.81 10.37-5.42 16.48-2.78 3.22 1.39 6.78 2.14 10.26 2.71 4.29.7 7.2-1.58 9.21-5.25 2.74-5 2.95-10.31 1.69-15.65-1.76-7.5-3.81-14.94-5.85-22.37-.34-1.24-1.01-2.53-1.88-3.46-13.42-14.47-20.37-31.77-21.49-51.25-1.04-18.08-1.24-36.21-1.64-54.33-.03-1.15 1.31-3.17 2.27-3.34 2.73-.49 5.89-1.03 8.33-.1 6.02 2.31 11.78 5.34 17.52 8.34.89.46 1.45 2.29 1.49 3.51.19 6.08 1.29 7.74 7.36 9.07 9.73 2.13 19.37.54 28.94-1.28.94-.18 1.94-1.42 2.41-2.41 2.09-4.45 4.04-8.96 5.98-13.48 3.36-7.86 12.69-9.85 18.96-3.92 3.66 3.46 7.37 6.91 10.61 10.75 1.47 1.74 2.22 4.34 2.62 6.67 1.76 10.25-.38 20.25-2.36 30.25-1.71 8.64-4.77 16.65-9.47 24.18-6.1 9.77-11.87 19.75-17.36 29.87-3.75 6.91-8.14 13.08-14.87 17.27-3.53 2.19-4.87 5.13-4.45 9.22.56 5.44.61 10.94 1.27 16.37.95 7.8.33 15.39-2.3 23.1 1.09.4 1.97.79 2.9 1.07 11.77 3.56 23.43 7.5 35.34 10.52 9.81 2.49 22.42 14.5 23.11 28.17.68 13.49.06 27.05-.01 40.58 0 .65-.07 1.45-.44 1.93-6.44 8.44-4.41 17.82-3.03 27.1.69 4.63 2.09 9.2 2.39 13.84.56 8.57-4.06 13.47-12.54 14.86-7.52 1.23-13.69.04-17.43-7.36-.4-.79-1.19-1.4-1.52-2.2-3.3-7.94-10.59-9.26-17.77-10.61-.9-.17-2.51.72-3.03 1.58-3.84 6.37-4.94 13.34-4 20.67.2 1.55.56 3.08.8 4.63.77 5.06-1.23 8.74-5.88 10.84-.91.41-1.86.8-2.82 1.05-6.14 1.64-6.19 1.6-9.65-3.7-.79-1.21-1.55-2.5-2.56-3.52-7.17-7.33-10.28-16.31-11.02-26.34-.22-3-.7-6.01-1.35-8.95-.21-.94-1.16-2.17-2.03-2.45-10.4-3.39-20.84-6.62-31.68-10.02-1.31 5.24-2.58 10.29-3.83 15.34-.35 1.41-.88 2.82-.96 4.24-.33 6.16-3.79 9.52-9.43 11.26-2.22.68-4.27 1.9-6.79 3.05-1.39-2.99-2.92-5.8-4.03-8.78-2.38-6.38-5.23-12.69-6.65-19.3-2.41-11.19-9.82-16.12-20.12-17.67-11.15-1.67-9.19-2.87-14.33 7.41-2.82 5.63-4.33 11.94-6.28 17.99-1.87 5.8-3.91 11.47-8.92 15.42-.99.7-2.06 1.3-3.37 2.15zm-9-126.65c-.65-7.24-.79-12.29-1.61-17.23-1.61-9.7-9.41-16.96-19-18.15-.74-.09-1.72-.17-2.25.22-3.22 2.31-6.85 4.18-7.67 8.76-2.11 11.76-4.7 23.43-6.52 35.23-1.01 6.6-.94 13.37-1.14 20.07-.03 1.03.85 2.75 1.69 3.03 6.14 2.01 12.31 4.11 18.62 5.41 3.11.64 6.63-.03 9.82-.75 1.3-.3 2.95-2.19 3.18-3.56 1.89-11.68 3.49-23.4 4.88-33.03zm133.72 38.54c-.68-5.86-.75-10.5-1.84-14.89-1.38-5.57-5.51-8.98-10.82-11.05-4.88-1.9-9.42-2.2-13.69 1.57-1.65 1.46-3.88 2.24-5.63 3.62-.91.72-1.65 1.98-1.92 3.13-1.73 7.26-3.43 14.53-4.89 21.85-.85 4.23-1.84 8.57-1.69 12.83.31 8.53 1.92 10.09 10.2 11.47 7.94 1.32 15.86 1.64 23.05-2.94 1.11-.71 2.34-1.95 2.61-3.15 1.76-7.82 3.26-15.69 4.62-22.44zm-72.75-15.86c-.35 0-.7 0-1.05 0 0-6.49.05-12.97-.02-19.46-.04-3.79 1.06-8.63-.83-11.09-1.99-2.6-6.92-2.97-10.59-4.24-4.47-1.55-8.5.19-9.65 4.74-3.74 14.88-7.07 29.89-5.36 45.37.71 6.41 1.38 13.41 9.26 15.93 4.98 1.6 9.85 3.92 15.26 1.71 2.03-.83 3.12-1.89 3.06-4.46-.21-9.49-.08-19-.08-28.5zm126.24 44.83c.08-.01.16-.01.24-.02-.32-4.34-.66-8.68-.97-13.02-.92-12.87-6.83-22.14-19.15-26.96-1.82-.71-2.76-.5-3.83 1.13-3.54 5.43-4.98 11.27-4.82 17.77.12 4.95.67 10.63-1.44 14.71-2.82 5.45-1.26 8.78 1.91 12.62.92 1.11 1.59 2.44 2.49 3.57.53.66 1.22 1.47 1.96 1.62 4.46.94 8.93 2.2 13.44 2.41 6.01.27 10.06-4.16 10.17-10.13.02-1.24 0-2.47 0-3.7zm-37.41-158.85c3.82-.13 6.48-1.52 8.69-4.59 3.66-5.08 7.7-9.88 11.56-14.82.54-.7 1.24-1.41 1.44-2.22 1.61-6.45-3.83-13.26-10.42-13.52-6.9-.27-13.79-.85-20.68-1.38-2.65-.2-7.85 3.16-7.77 5.33.31 8.27.65 16.55 1.15 24.81.06.93 1.01 2.35 1.83 2.6 4.68 1.43 9.46 2.56 14.2 3.79zm-217.56 79.95c-.4 0-.79 0-1.19 0 0-8.05-.05-16.1.03-24.15.02-2.08-.81-2.94-2.69-3.9-4.26-2.18-7.78-.71-11.25 1.46-.96.6-2.05 1.88-2.1 2.91-.47 8.91-1.42 17.89-.8 26.75.43 6.18 2.62 12.4 4.91 18.25 2.35 6.01 4.22 6.48 10.55 5.47 1.88-.3 2.63-.94 2.6-2.97-.13-7.94-.06-15.88-.06-23.82zm61.07-75.65c.2-.22.41-.43.61-.65 1.21-.17 2.45-.24 3.63-.53 6.98-1.68 11.55-8.49 11.78-17.19.1-3.54-1.27-6.05-4.73-6.66-5.04-.89-10.16-1.29-15.23-1.96-2.03-.27-2.93.75-3.8 2.43-3.95 7.7-1.88 14.57 2.88 20.95 1.15 1.55 3.21 2.42 4.86 3.61z" fill="#010103"/></svg>