<svg enable-background="new 0 0 400 400" viewBox="0 0 400 400" xmlns="http://www.w3.org/2000/svg"><path d="m199.02 255.26c-.81-5.16-1.95-10.3-2.34-15.49-.8-10.52-3.67-12.57-13.77-9.18-2.95.99-5.9 1.99-9.94 3.36.78-2.72 1.03-4.78 1.94-6.51 2.02-3.86 4.55-7.46 6.52-11.34 3.41-6.7 7.69-12.48 14.46-16.2 1.05-.58 1.84-2.45 1.95-3.78.57-7.01.59-14.09 1.41-21.06.39-3.34 1.98-6.6 3.34-9.76.68-1.57.84-2.52-.55-3.73-2.57-2.26-3.68-5.2-3.65-8.66.04-4.28-1.46-8.09-4.13-11.45-5.65-7.09-11.2-14.26-16.95-21.27-6.96-8.49-9.28-18.07-7.53-29.03 1.44.11 2.64.28 3.83.28 3.72.01 6.46.73 8.38 4.82 2.48 5.27 7.87 7.66 13.45 9.77 3.02-4.75 4.06-9.99 4.41-15.3.79-12.23-.11-24.38-2.68-36.38-.25-1.15-1.42-2.9-2.28-2.97-2.18-.18-4.56-2.16-6.7.72-5.73 7.73-11.62 15.35-17.61 22.88-2.78 3.49-5.87 6.75-8.99 9.95-1.52 1.56-3.44 2.73-5.66 4.44-.28-3.79-.98-6.58 2.08-9.29 1.74-1.54 2.36-4.68 2.84-7.23.55-2.93 1.15-5.66 3.53-7.68 4.74-4.03 6.75-9.57 8.4-15.31 2.61-9.06 9.33-15.68 14.08-23.46.37-.6 1.99-.83 2.92-.65 6.09 1.18 9.95 5.16 12.75 10.45 5.73 10.8 8.03 22.5 8.76 34.53.7 11.5.71 23.05 1.49 34.54.38 5.5 1.85 10.92 2.98 17.27 9.38-8.18 16.29-17.46 26.64-23.11 1.49 4.91 1.17 9.48-.52 13.97-1.5 3.97-2.97 7.97-4.72 11.83-.65 1.43-1.9 2.71-3.15 3.73-8.14 6.73-15.45 14.13-18.08 24.76-1.09 4.41-1.51 9.06-1.62 13.61-.21 9.06-.07 18.13.16 27.19.04 1.48 1.01 3.14 2 4.36 9.2 11.32 17.58 23.18 24.05 36.28 1.5 3.04 2.29 6.42 3.54 10.02-3.68.27-6.27-.19-8.58-2.42-7.16-6.91-14.45-13.7-21.92-20.74-3.35 4.32-4.99 9.13-6.25 14.09-1.16 4.54-1.99 9.18-3.39 13.65-.66 2.11-2.31 3.91-3.52 5.85-.44-.09-.91-.22-1.38-.35z" fill="#010100"/><path d="m222.58 295.9c6.79 8.08 8.22 17.39 6.71 27.05-1.39 8.91-3.69 17.69-5.84 26.46-.48 1.95-1.71 3.91-3.08 5.42-4.37 4.79-9.02 9.32-13.48 14.03-7.16 7.56-15.86 8.98-25.56 6.62-1.95-.47-3.88-1.21-5.86-1.42-8.63-.93-13.01-6.69-14.98-14.16-1.98-7.51-3.26-15.27-4.03-23-1.25-12.45-1.84-24.97-2.66-37.46-.05-.83-.05-1.97.44-2.47 3.09-3.21 3.43-7.15 3.27-11.24-.12-2.98.68-5.52 3.2-7.34 5.29-3.82 13.61-.29 14.48 6.21.19 1.42.01 2.9.03 4.34.05 2.9-.19 5.86.25 8.7 1.21 7.79 2.53 8.94 10.18 10.12 6.85 1.06 13.7 2.08 20.52 3.29 2.5.45 4.39.09 5.63-2.24 1.1-2.06 2.39-4.05 3.22-6.22 1.36-3.55 3.76-5.7 7.56-6.69zm-33.72 29.41c-1.91 0-3.36-.02-4.81 0-9.18.15-9.46.05-12.68 8.66-2.17 5.8-4.02 11.87-4.87 17.97-.8 5.75 2.62 9.19 8.35 9.98 2.19.3 4.49-.07 6.66.3 2 .33 3.89 1.29 5.85 1.87 1.05.31 2.32.87 3.21.55 11.12-4.04 19.37-10.54 20.98-23.38.99-7.89-2.3-13.58-10.13-14.9-4.28-.73-8.67-.75-12.56-1.05z" fill="#010100"/><path d="m153.82 202.42c-4.97-15.77-5.65-30.51-.15-45.24 6.71.77 11.51 4.96 11.02 11.73-.72 9.97-2.67 19.87-4.69 29.68-.3 1.53-3.75 2.41-6.18 3.83z" fill="#010100"/><path d="m142.16 68.35c-8.42-9.96-8.44-32.58-.24-42.86 5.89 2.84 9.24 7.55 9.6 14.05.49 8.75-1.23 17.13-5.68 24.77-.89 1.51-2.41 2.67-3.68 4.04z" fill="#010100"/><path d="m242.67 29.67c6.62 4.61 10.69 10.73 9.99 19.1-.46 5.52-1.66 10.99-2.55 16.48-.45 2.77-2.87 2.58-4.69 2.59-1.05.01-2.76-1.06-3.05-1.99-1.56-4.95-3.26-9.94-3.93-15.05-.63-4.82.14-9.82-.04-14.72-.12-3.28 1.15-5.27 4.27-6.41z" fill="#010100"/><path d="m253.85 160.83c1.4 2.11 3.42 4.05 4.09 6.38 2.46 8.51 2.63 17.27.62 25.85-.81 3.45-3.28 6.51-4.94 9.64-2.63.07-3.19-1.16-3.34-3.31-.39-5.57-.91-11.13-1.65-16.66-1.02-7.6.72-14.59 3.94-21.34.43-.19.85-.38 1.28-.56z" fill="#010100"/><g fill="#fcfafa"><path d="m342.2 3.2-6.3 9.2h6.1v1.2h-8.2v-.5l6.2-9.1h-5.7v-1.2h7.8v.4z"/><path d="m344 13.7v-10.9h3.1c1.6 0 3 .5 4.1 1.4 1.1 1 1.6 2.2 1.6 3.9s-.5 3-1.6 4-2.5 1.5-4.2 1.5h-3zm1.4-9.6v8.4h1.6c1.4 0 2.5-.4 3.2-1.1.8-.8 1.2-1.8 1.2-3.2s-.4-2.4-1.2-3.1-1.8-1-3.1-1z"/><path d="m356.3 2.8v10.9h-1.4v-10.9z"/><path d="m366.6 13.2c-.8.4-1.8.6-3 .6-1.6 0-2.8-.5-3.7-1.5s-1.4-2.3-1.4-3.9c0-1.7.5-3.2 1.6-4.2s2.4-1.6 4-1.6c1 0 1.9.1 2.6.4v1.5c-.8-.4-1.6-.6-2.6-.6-1.2 0-2.2.4-3 1.2s-1.1 1.9-1.1 3.3c0 1.3.4 2.3 1.1 3.1s1.6 1.1 2.8 1.1c1.1 0 2-.2 2.8-.7v1.3z"/><path d="m368.2 13c0-.3.1-.5.3-.6.2-.2.4-.3.6-.3.3 0 .5.1.7.3s.3.4.3.6-.1.5-.3.6c-.2.2-.4.3-.7.3s-.5-.1-.6-.3c-.2-.2-.3-.4-.3-.6z"/><path d="m381.1 13.7h-1.7l-5.5-8.4c-.2-.2-.3-.5-.4-.7 0 .2.1.8.1 1.5v7.6h-1.4v-10.9h1.8l5.3 8.3c.3.4.4.6.4.8 0-.3-.1-.8-.1-1.6v-7.5h1.4v10.9z"/><path d="m389.7 13.7h-5.8v-10.9h5.6v1.2h-4.2v3.5h3.9v1.2h-3.9v3.7h4.4z"/><path d="m398.4 4.1h-3.1v9.6h-1.4v-9.6h-3.1v-1.3h7.7v1.3z"/></g></svg>