<svg enable-background="new 0 0 400 400" viewBox="0 0 400 400" xmlns="http://www.w3.org/2000/svg"><path d="m362.1 8.8c1.1.8 2.1 1.6 3.1 2.4l-1 1.1c-1.3-1.1-2.3-2-3-2.5zm1.9 4.8c.5.2.9.4 1.4.5-.6 2.3-1.3 4.5-1.9 6.8l-1.5-.5c.8-2.1 1.4-4.3 2-6.8zm-1-9.4c1.3.9 2.4 1.8 3.4 2.5l-1 1.1c-1.4-1.2-2.4-2.1-3.2-2.6zm3.7 2.2v-1.4h10.3v1.2c-.5 3.6-1.8 6.8-4 9.4 1.5 1.6 3.4 2.8 5.7 3.8-.3.4-.7.8-1.1 1.4-2.3-1.1-4.1-2.5-5.6-4.1-1.6 1.6-3.6 3.1-5.9 4.3-.3-.5-.7-.9-1-1.3 2.4-1.1 4.4-2.5 6-4.1-1.9-2.5-3-5.6-3.3-9.3h-1.1zm8.8 0h-6.4c.3 3.3 1.3 6 3 8.2 2-2.3 3.1-5.1 3.4-8.2z" fill="#fbfafc"/><path d="m385.3 3.8h1.3v2.2h2.8v-2.2h1.3v2.2h4.1v9.1h1.7v1.3h-16.9v-1.3h1.7v-9.1h4.1v-2.2zm.4 13.1.7 1.2c-1.8.9-3.8 1.9-6 2.9-.2-.4-.5-.8-.8-1.3 2.3-1 4.3-1.9 6.1-2.8zm-3.1-6.4h2.8v-3.2h-2.8zm0 4.6h2.8v-3.3h-2.8zm4-4.6h2.8v-3.2h-2.8zm0 4.6h2.8v-3.3h-2.8zm3.7 1.9c2.1.9 4.1 1.8 6.1 2.7l-.7 1.3c-2.2-1.1-4.2-2-6.1-2.9zm3.2-9.7h-2.8v3.2h2.8zm-2.8 7.8h2.8v-3.3h-2.8z" fill="#fbfafc"/><g fill="#000001"><path d="m184.96 326.22c-.9-12.01-1.84-24.61-2.8-37.2-.72-9.37-1.57-18.74-2.14-28.12-.17-2.71-1.58-3.77-3.75-3.41-3.46.57-6.92 1.45-10.23 2.62-3.67 1.29-7.07 3.41-10.78 4.56-14.06 4.33-31.44-6.64-33.47-21.13 17.48-3.01 34.97-6.01 52.63-9.05 1.25-11.76 2.08-23.38.27-34.93-1.28-8.15-3.37-16.17-5.1-24.25-1.05-4.92-4.68-7.6-9.04-8.38-7.26-1.29-13.08-4.84-18.62-9.36-4.58-3.74-9.4-7.2-14.2-10.85-7.93 8.09-14.94 16.64-20.08 26.54-5.92 11.4-11.56 22.93-17.28 34.43-2.35 4.72-4.49 6.12-9.43 5.6.43-1.83.84-3.62 1.29-5.41 2.92-11.83 5.05-23.93 9.02-35.4 3.47-10.02 7.87-20.12 13.87-28.79 14.86-21.5 33.78-39.69 51.11-59.16 8.77-9.86 17.95-19.37 27.13-28.85 8.46-8.75 16.54-17.67 19.46-30.75 3.83 1.21 7.61 1.74 10.66 3.52 5.26 3.08 10.34 6.63 14.96 10.61 2.31 1.99 3.92 5.19 5.01 8.15 2.08 5.67 1.31 7.29-4.01 10.09-4.05 2.13-8.18 4.16-12.42 5.87-6.62 2.68-11.41 7.25-14.99 13.48 7.13 6.7 15.67 10.65 24.83 13.47 3.52 1.08 7.04 2.21 10.57 3.25 8.5 2.51 16.56 5.9 24.17 10.59 14.37 8.85 29.11 17.1 43.45 26.02 6.46 4.01 12.46 8.92 15.43 16.35 1.18 2.96 1.83 6.13 2.79 9.44-6.3.71-11.15.41-16.04-4.16-27.35-25.51-59.94-40.92-96.34-48.78-5.41-1.17-10.55-3.53-15.86-5.2-4.01-1.26-8.05-2.48-12.15-3.35-1.2-.25-3.03.36-3.96 1.23-10.66 10.06-21.41 20.04-31.69 30.49-4.26 4.33-7.45 9.7-11.13 14.6.15.42.3.84.45 1.26 4.26.13 8.53.56 12.76.32 10.19-.59 19.61-4.13 28.9-8.11 14.54-6.23 29.34-11.57 45.29-12.81 4.01-.31 8.04-.5 12.06-.75 7.63-.48 11.31 2.38 13 10.51-2.91 1.31-5.81 3.03-8.95 3.97-11.88 3.54-23.82 6.86-35.76 10.2-9.21 2.58-18.12 5.75-25.51 12.15-1.27 1.1-2.67 2.04-4.3 3.28 1.51 1.43 2.26 2.21 3.08 2.91 6.11 5.25 12.12 10.64 18.42 15.66 2.66 2.12 3.86 4.51 3.74 7.71-.32 9.16-.86 18.32-.98 27.48-.05 4.09.56 8.21 1.12 12.28.25 1.83 1.44 2.68 3.62 2.44 17.56-1.98 35.12-4.04 52.72-5.61 6.3-.56 12.72.03 19.08.28 2.84.11 4.79 1.75 5.5 4.6.95 3.87.29 4.97-3.6 5.84-18.21 4.1-36.4 8.31-54.67 12.16-4.77 1.01-9.79.83-14.69 1.28-4.49.41-6.77 2.99-6.77 7.5.03 20.82.12 41.64-.01 62.45-.02 2.84 1.08 4.49 3.5 4.66 3.94.28 8.13.71 11.86-.28 19.09-5.05 38.58-6.59 58.17-6.55 10.03.02 20.06 1.55 30.09 2.38 3.12.26 6.31.14 9.34.79 2.06.45 4.27 1.56 5.76 3.04 3.51 3.48 2.86 6.5-1.36 8.84-9.2 5.09-19.19 7.71-29.54 7.98-28.23.76-55.67 6.69-83.23 11.92-15.49 2.94-30.93 6.14-46.81 6.14-1.85 0-3.76.53-5.53 1.14-15.85 5.45-31.66 11.03-47.53 16.42-1.78.6-3.94.62-5.82.29-5.17-.91-10.25-2.35-15.43-3.19-3.11-.5-5.37-1.74-7.05-4.41-1.23-1.95-2.8-3.68-4.44-5.78 24.62-2.71 47.3-10.62 69.87-18.89 14.05-5.13 28.01-10.45 42.51-15.88z"/><path d="m72 265.19c.37-1.88.32-3.98 1.19-5.59 1.85-3.43 3.92-6.8 6.35-9.83 15.36-19.09 30.88-38.06 46.23-57.16 1.17-1.45 1.73-3.53 2.16-5.41.49-2.16.52-4.43.79-7.06 4.4.04 8.32 1.42 12.06 3.38 7.61 3.98 14.01 9.25 17.4 17.41.44 1.05.16 2.83-.49 3.82-2.08 3.18-4.41 6.2-6.8 9.15-.87 1.08-2.07 2.14-3.35 2.6-10.32 3.76-18.49 10.52-26.43 17.87-9.18 8.49-17.96 17.63-29.23 23.46-6.1 3.16-12.62 5.5-18.95 8.21-.3-.29-.62-.57-.93-.85z"/><path d="m317.48 237.21c-3.18-.28-6.07-.41-8.91-.86-.98-.15-1.96-.96-2.71-1.7-12.08-11.96-26.13-20.96-41.81-27.34-3.72-1.51-8-1.96-12.07-2.25-11.3-.8-21.05-5.17-29.14-12.81-6.89-6.51-13.16-13.67-19.92-20.77 2.47-3.05 4.83-5.97 7.26-8.98.86.49 1.59.79 2.19 1.24 6.78 5.17 14.45 8.19 22.72 10.16 3.84.92 7.46 2.91 11.05 4.68 16.46 8.08 32.92 16.2 47.4 27.64 6.05 4.78 11.85 9.89 17.53 15.1 4.44 4.08 7.19 9.09 6.41 15.89z"/><path d="m80.08 341.65c-1.59-2.43-1.28-4.18.94-6.11 10.39-9.01 20.68-18.14 30.91-27.33 9.57-8.6 17.78-18.23 22.53-30.44.27-.7 1.65-1.49 2.42-1.41 9.05.95 17.49 3.77 24.77 9.29 2.02 1.53 3.64 3.99 4.68 6.35 2.23 5.09 1.22 6.74-3.45 9.53-11.97 7.15-23.93 14.35-35.69 21.86-13.95 8.91-29.23 14.28-45.22 17.95-.63.14-1.28.21-1.89.31z"/></g></svg>