<svg enable-background="new 0 0 400 400" viewBox="0 0 400 400" xmlns="http://www.w3.org/2000/svg"><g fill="#fafafb"><path d="m12.4 4.8-6.1 9h6v1.2h-8v-.5l6.1-8.9h-5.7v-1.2h7.6v.4z"/><path d="m14 15v-10.6h3c1.6 0 2.9.5 4 1.4s1.6 2.2 1.6 3.8-.5 3-1.6 3.9-2.4 1.5-4 1.5zm1.4-9.4v8.2h1.6c1.3 0 2.4-.4 3.1-1.1s1.1-1.8 1.1-3.1-.4-2.3-1.2-3-1.8-1-3.1-1z"/><path d="m26.1 4.4v10.6h-1.4v-10.6z"/><path d="m36.1 14.6c-.8.4-1.8.6-2.9.6-1.5 0-2.7-.5-3.6-1.4s-1.4-2.2-1.4-3.8c0-1.7.5-3.1 1.5-4.1s2.3-1.6 3.9-1.6c1 0 1.8.1 2.5.4v1.4c-.8-.4-1.6-.6-2.5-.6-1.2 0-2.1.4-2.9 1.2s-1.1 1.8-1.1 3.2c0 1.3.3 2.3 1 3s1.6 1.1 2.7 1.1c1 0 2-.2 2.7-.7v1.3z"/><path d="m37.6 14.3c0-.2.1-.5.3-.6s.4-.3.6-.3c.3 0 .5.1.6.3s.3.4.3.6-.1.4-.3.6-.4.3-.6.3c-.3 0-.5-.1-.6-.3s-.3-.4-.3-.6z"/><path d="m50.2 15h-1.6l-5.3-8.2c-.2-.2-.3-.5-.4-.7 0 .2.1.7.1 1.5v7.4h-1.4v-10.6h1.7l5.2 8.1c.2.4.4.6.4.7 0-.3-.1-.8-.1-1.5v-7.3h1.4z"/><path d="m58.6 15h-5.7v-10.6h5.5v1.2h-4.1v3.4h3.8v1.2h-3.8v3.6h4.3z"/><path d="m67.1 5.6h-3.1v9.4h-1.4v-9.4h-3v-1.2h7.5z"/></g><path d="m276.66 316.21c7.58.44 14.81 1.06 22.05 1.22 6.48.15 12.97-.22 19.46-.31 2.46-.04 4.94-.14 7.38.1 7.5.74 11.08 5.06 9.25 12.35-1.13 4.53-3.29 9.04-5.96 12.89-3.93 5.69-8.67 10.82-13.19 16.09-.87 1.01-2.22 1.97-3.5 2.23-20.93 4.23-41.82 8.63-62.84 12.37-14.84 2.64-29.79 3.39-44.46-1.64-6.89-2.36-13.27-5.19-16.96-12.09-1.3-2.43-3.25-4.55-5.06-6.68-5.66-6.64-8.54-14.31-8.79-23.89 6.43-.97 12.96-2.41 19.57-2.86 14.31-.98 28.51-2.49 42.47-5.96 1.81-.45 2.65-.94 2.68-2.97.24-22.49.57-44.99.87-67.48.01-.43-.09-.86-.19-1.72-5.06.35-10.03.69-15 1.04-1.9.13-3.83.12-5.68.46-7.41 1.39-14.39.53-20.93-3.45-.95-.58-2.35-.49-3.56-.53-2.91-.09-5.85.2-8.71-.2-1.41-.2-3.18-1.27-3.88-2.47-1.64-2.83-.17-9.88 2.14-12.27.08-.08.17-.15.24-.24 7.53-10.94 19.25-13.23 31.17-15.12 5.08-.81 10.13-1.75 15.22-2.51 11.64-1.74 16.16-12.91 9.85-23.83-.11-.19-.15-.42-.28-.79 5.78-4.91 3.99-11.42 3.45-17.68-.06-.66-.26-1.32-.4-1.97-1.98-9.06-.03-8.49-10.53-9.38-6.2-.52-12.18.86-15.68 7.3-1.58 2.91-3.89 5.47-6.1 7.99-1.3 1.48-2.87 3.31-4.6 3.7-3.04.68-6.48 1-9.39.18-1.29-.36-2.07-3.8-2.44-5.96-1.09-6.29-.18-12.46 1.75-18.52 12.75-40.03 25.5-80.06 38.22-120.1 1.61-5.06 6.72-5.77 10.29-8.38.36-.26 1.44.36 2.14.68 9.9 4.51 17.71 11.26 22.43 21.22 2.82 5.96 5.7 11.91 8.11 18.03 3.46 8.79 8.05 16.82 13.4 24.62 15.01 21.89 28.29 44.76 37.18 69.94 1.41 4 3.39 7.81 4.69 11.84 1.61 4.97 2.79 10.07 4.15 15.12.75 2.8-.12 4.13-3.17 4.78-6.07 1.28-10.87-.6-14.66-5.12-5.24-6.26-10.42-12.6-15.3-19.15-6.31-8.46-16.08-8.22-24.34-5.91-.77.22-1.66 1.26-1.86 2.07-1.15 4.85-2.83 9.72-2.96 14.62-.19 7.24.83 14.51 1.17 21.77.1 2.01.84 2.82 2.74 3.46 8.74 2.93 17.69 3.72 26.82 3.21.78-.04 1.57-.09 2.35-.1 8.89-.12 12.13 3.8 10.44 12.62-1.79 9.37-1.79 9.38-10.95 11.89-8.08 2.22-16.17 4.41-24.26 6.61-5.08 1.38-6.57 3.56-6.37 8.97.19 5.02.3 10.04.31 15.06.04 17.24.01 34.48.01 51.72zm-26.17-224.09c-4.12 8.22-7.82 16.37-12.24 24.13-2.64 4.64-1.5 8.93-.87 13.91 12.52-2.35 24.76-4.64 38.13-7.14-5-8.33-9.36-16.1-14.24-23.53-2.39-3.63-5.89-6.42-10.78-7.37z" fill="#010105"/><path d="m92.64 142.28c13.75.45 25.62 1.84 37.2 5.03 14.04 3.87 16.85 13.83 13.07 26.32-.3.98-1.16 1.86-1.94 2.61-13.22 12.77-29.13 17.62-47.09 14.96-9.23-1.37-18.34-3.79-27.36-6.26-6.68-1.83-10.72-9.97-9.44-16.85 1.74-9.35 8.18-14.85 15.59-19.52 6.59-4.15 13.48-7.63 19.97-6.29z" fill="#010105"/><path d="m102.77 289.67c-10.34-.11-18.6-1.81-26.47-5.27-1.04-.46-2.07-1.33-2.68-2.28-5.74-8.95-5.39-17.46.87-27.7 1.83-2.99 6.18-4.59 9.58-6.45 9.06-4.97 18.61-8.72 28.86-10.35 2.24-.36 4.67-.33 6.9.13 8.42 1.72 16.8 3.68 25.18 5.56 10.37 2.33 15.11 13 9.45 22.08-1.71 2.74-4.66 4.79-7.26 6.88-13.5 10.8-28.79 16.89-44.43 17.4z" fill="#010105"/></svg>