<svg enable-background="new 0 0 400 400" viewBox="0 0 400 400" xmlns="http://www.w3.org/2000/svg"><g fill="#010101"><path d="m83.77 369.91c35.48-5.55 70.26-10.99 105.26-16.47 0-2.41.08-4.73-.01-7.04-1.1-27.73-2.22-55.46-3.33-83.2-.25-6.3-.26-6.26-6.11-8.54-12.76-4.97-25.92-5.61-39.3-3.65-14.13 2.07-28.09 2-41.73-2.86-1.43-.51-2.84-1.11-4.15-2.24 8.32-.87 16.65-1.75 24.97-2.6 20.14-2.06 40.29-4.05 60.42-6.24 1.19-.13 2.96-1.55 3.22-2.66 1.19-5.19 2.58-10.46 2.73-15.74.45-15.67-2.74-30.94-6.4-46.06-1.97-8.12-4.55-16.13-7.48-23.95-1.37-3.64-3.93-6.97-6.48-10-4.68-5.56-9.75-10.79-14.51-15.99-2.82 2.62-5.65 5.1-8.31 7.75-15.78 15.73-31.55 31.48-49.29 45.04-10.58 8.09-22.14 14.34-35.52 16.52-.55.09-1.11.17-1.66.2-.17.01-.36-.14-.82-.34 3.71-2.72 7.33-5.28 10.86-7.97 28.02-21.35 52.32-46.53 74.99-73.33 15.59-18.43 29.19-38.23 39.11-60.34 3.42-7.62 6.12-15.56 9.27-23.65.66.95 1.31 1.88 1.94 2.82 10.12 15.3 20.04 30.73 30.41 45.87 13.92 20.33 31.52 37.06 51.17 51.84 21.73 16.35 43.09 33.18 64.61 49.8.53.41 1.02.85 1.38 1.66-.92-.35-1.86-.67-2.76-1.05-21.1-8.93-42.2-17.84-63.27-26.82-1.51-.64-2.96-1.58-4.22-2.63-9.8-8.17-19.55-16.4-29.32-24.61-1.27-1.07-2.55-2.11-4-3.3-11.21 11.78-20.27 24.69-26.1 39.69-6 15.46-8.66 31.66-10.02 48.09-.55 6.57-.38 13.2-.94 19.77-.28 3.29 1.07 4.91 3.91 5.46 7.66 1.46 15.31 3.41 23.06 3.97 15.61 1.13 31.28 1.31 46.91 2.22 6.3.37 12.54 1.66 18.81 2.53v.91c-28.94 4.22-57.88 8.44-87.11 12.7-1.16 31.39-2.32 62.67-3.51 94.77 34.1.81 67.79 3.3 99.99 14.63-8.35 1.31-16.98 2.69-25.62 4.02-13.7 2.12-27.39 4.31-41.12 6.25-3.5.49-7.16.53-10.67.12-19.31-2.27-38.67-1.25-57.99-.7-26.66.76-53.24.66-79.64-3.79-.31-.05-.58-.29-1.63-.86zm105.49-299.5c-10.58 14.2-20.97 28.17-31.5 42.31 11.66 14.81 23.26 29.53 35.09 44.55 13.04-13.31 25.77-26.31 38.65-39.46-13.88-15.58-27.93-31.34-42.24-47.4z"/><path d="m123.5 349.69c20.1-26.58 19.8-55.59 10.07-86.51 1.42 1.11 2.12 1.52 2.65 2.09 5.09 5.48 10.3 10.86 15.18 16.53 7.7 8.94 9.73 19.35 7.16 30.75-.34 1.53-.72 3.05-.98 4.59-1.35 7.91-4.73 14.1-12.15 18.36-7.39 4.25-14.04 9.78-21.01 14.75-.3-.19-.61-.38-.92-.56z"/><path d="m257.11 255.04c-2.33 5.89-4.28 11.97-7.07 17.62-4.84 9.78-4.54 19.89-2.81 30.15 2.21 13.08 8.2 24.74 14.14 36.39 1.1 2.16 2.33 4.27 3.58 6.56-3.32.72-5.72.23-8.1-2.1-8.27-8.07-16.17-16.38-22.04-26.46-5.36-9.2-5.08-18.85-2.36-28.57 1.59-5.68 3.99-11.13 6.07-16.66.31-.82.73-1.7 1.36-2.28 5.5-5.07 11.06-10.07 16.6-15.09.2.15.42.3.63.44z"/><path d="m251.7 149.15c-.27 25.56.68 50.61 11.56 74.25-.29.28-.57.57-.86.85-1.51-.57-3.28-.8-4.47-1.76-6.46-5.16-13.07-10.2-19-15.93-2.22-2.15-3.71-6.02-3.84-9.17-.24-5.61.02-11.48 1.47-16.86 2.87-10.59 7.54-20.52 13.78-29.63.4-.61.9-1.17 1.36-1.75z"/></g><path d="m6.4 11.7c-1-.8-1.9-1.6-2.9-2.3l.6-.7c.9.7 1.9 1.4 2.9 2.2zm-2.1 8.3c.7-2.1 1.4-4.2 2-6.4.2.1.6.3 1 .4-.7 2.3-1.3 4.4-1.9 6.4zm3-12.8c-1.1-.9-2.1-1.7-2.9-2.4l.6-.7c1 .8 2 1.5 3 2.4zm1.4-1.3v-.9h10.2v.9c-.9 4.2-2.3 7.3-4.1 9.4 1.3 1.4 3.2 2.7 5.7 4-.2.2-.4.5-.7.9-2.5-1.4-4.4-2.7-5.7-4.2-1.4 1.5-3.5 3-6.1 4.4 0 0 0 0-.1-.1-.3-.4-.5-.7-.7-.8 2.7-1.3 4.7-2.8 6.2-4.2-1.8-2.2-3-5.3-3.7-9.4zm9.2 0h-7.1c.6 3.8 1.7 6.7 3.4 8.7 1.7-2 2.9-4.8 3.7-8.7z" fill="#fbfafa"/><path d="m31.6 3.6h.9v2.3h4.1v9.1h1.7v.9h-16.6v-.9h1.7v-9.1h4.1v-2.3h.9v2.3h3.1v-2.3zm-4 13.3.6.8c-1.9.9-3.8 1.9-5.8 2.8-.2-.3-.3-.6-.5-.9 2-.9 3.9-1.8 5.7-2.7zm-3.2-10.1v3.7h3.1v-3.7zm0 4.5v3.7h3.1v-3.7zm4.1-4.5v3.7h3.1v-3.7zm0 4.5v3.7h3.1v-3.7zm9.1 9.1c-2.1-1.1-4.1-2-5.8-2.7l.5-.8c2.2.9 4.1 1.8 5.8 2.6zm-1.9-13.6h-3.1v3.7h3.1zm-3.2 4.5v3.7h3.1v-3.7z" fill="#fbfafa"/></svg>