<svg enable-background="new 0 0 400 400" viewBox="0 0 400 400" xmlns="http://www.w3.org/2000/svg"><g fill="#010102"><path d="m233.76 262.1c-13.87-.51-26.83-.98-39.79-1.47-4.58-.17-9.17-.28-13.73-.65-3.11-.26-5.96-1.25-6.94-5.11 5.4-3.46 11.3-5.75 17.73-6.12 13.28-.76 26.57-1.3 39.87-1.7 2.95-.09 3.91-1.68 3.87-3.9-.09-6.02-.44-12.04-.85-18.04-.15-2.22-.95-4.39-1.1-6.61-.28-3.96-2.64-5.71-6.1-6.94-6.29-2.24-12.77-1.83-19.24-2.01-8.71-.24-17.42-.73-26.11-1.28-3.67-.23-6.65-1.8-8.08-6.36 7.31-1.49 14.46-4.09 21.66-4.21 24.83-.39 49.68.01 74.52.28 7.71.08 15.42.62 23.11 1.12 3.48.22 6.97.78 9.19 4.02 1.42 2.07 1.43 3.91-1.44 4.41-6.57 1.16-13.14 2.46-19.77 3.08-7.44.69-14.95.7-22.42 1.01-.44.02-.89.11-1.33.21-8.16 1.79-8.87 2.49-8.68 10.75.18 7.8.71 15.58 1.11 23.7 5.9.24 11.12.44 16.34.68 11.73.54 23.46 1.02 35.17 1.75 2.26.14 4.7.85 6.62 2.01 2.89 1.74 2.58 3.8-.35 5.33-6.46 3.39-13.43 4.84-20.64 5.27-10.71.63-21.44 1.11-32.14 1.86-1.26.09-2.98 1.2-3.52 2.3-.84 1.73-1.11 3.85-1.16 5.82-.42 14.2-.95 28.4-.96 42.6 0 6.77.91 13.56 1.69 20.31.73 6.32 4.49 10.57 9.7 14.06 9.25 6.21 19.7 8.87 30.34 11.08 4.37.91 8.95 1.01 13.2 2.28 3.86 1.15 7.6 3.07 11.01 5.24 1.45.92 1.94 3.35 3.36 6.02-12.22-.38-22.99 3.69-34.13.86-2.24-.57-4.85.22-7.28.5-12.2 1.44-24.32.61-36.48-.73-5.75-.63-11.6-.21-17.39-.56-11.14-.68-22.28-1.52-33.41-2.41-5.13-.41-10.23-1.12-15.34-1.65-4.78-.5-4.4.54-6.19-5.44 7.12-1.34 14.19-2.72 21.28-3.99 10.91-1.97 21.77-4.15 31.67-9.39 3.03-1.6 5.7-3.89 8.51-5.89 2.54-1.81 3.3-4.37 3.84-7.41 3.22-18.06.67-36.17.79-54.24.03-6.68-.01-13.37-.01-20.44z"/><path d="m315.42 164.87c-3.75-.23-7.1-.28-10.4-.74-1.21-.17-2.66-1.06-3.35-2.07-3.89-5.74-7.48-11.68-11.4-17.39-.9-1.31-2.66-2.76-4.1-2.85-9.01-.57-18.09-1.46-27.06-.94-18 1.06-35.95 2.12-53.92.02-1.96-.23-3.01.34-3.95 2.08-4.65 8.54-9.47 16.99-14.14 25.52-.91 1.66-1.94 2.41-3.91 2.41-3.45.02-6.89.38-10.74.62-1.07-6.61-1.17-12.43 3.27-18.08 4.03-5.13 7.55-10.83 10.37-16.72 17.41-36.38 34.56-72.88 51.8-109.34.28-.59.65-1.13 1.33-2.29 2.27 2.74 4.53 5.03 6.29 7.66 6.85 10.26 12.68 20.91 15.6 33.16 3.28 13.74 10.52 25.84 18.29 37.49 9.06 13.58 18.45 26.93 27.69 40.39 4.3 6.25 7.7 12.84 8.33 21.07zm-73.43-31.92c.02-.2.04-.4.06-.6 2.69 0 5.42.31 8.05-.06 6.82-.96 13.62-2.13 20.39-3.43 1.59-.3 2.82-1.29 2.65-3.57-.6-8.44-2.68-16.19-8.05-23.02-6.71-8.53-12.85-17.44-16.44-27.88-.8-2.33-2.44-4.55-4.19-6.33-2.34-2.38-3.68-2.01-5.41.83-7.99 13.07-15.94 26.16-23.96 39.21-2.75 4.47-5.47 8.81-6.29 14.23-.68 4.48.14 6.89 4.57 7.46 9.52 1.22 19.08 2.12 28.62 3.16z"/><path d="m76.6 303.68c8.74-4.04 16.7-7.73 24.68-11.38 3.2-1.46 6.46-2.05 10.06-1.4 11.61 2.08 23.33 1.69 35.06 1.34 6.59-.2 9.29 2.26 10.45 8.75 1.38 7.73-.15 9.58-7.95 10.7-4.03.58-7.96 1.85-11.94 2.79-1.29.3-2.59.71-3.89.75-3.46.11-6.96-.28-10.39.09-14.78 1.58-28.55-2.08-41.92-7.8-1.58-.68-2.68-2.44-4.16-3.84z"/><path d="m137.69 248.53c-10.57-.74-23.04-3.21-34.74-8.56-2.44-1.12-4.21-4.13-5.8-6.58-1.15-1.78-.42-3.5 1.72-4.63 8.03-4.27 16.67-5.99 25.58-5.39 8.56.57 17.11 1.82 25.58 3.24 3.2.54 6.46 1.97 9.17 3.78 1.84 1.23 3.09 3.7 4.03 5.86 1.02 2.36.18 4.39-2.13 6.01-6.39 4.45-13.45 6.39-23.41 6.27z"/></g><path d="m6.4 11.7c-1-.8-1.9-1.6-2.9-2.3l.6-.7c.9.7 1.9 1.4 2.9 2.2zm-2.1 8.3c.7-2.1 1.4-4.2 2-6.4.2.1.6.3 1 .4-.7 2.3-1.3 4.4-1.9 6.4zm3-12.8c-1.1-.9-2.1-1.7-2.9-2.4l.6-.7c1 .8 2 1.5 3 2.4zm1.4-1.3v-.9h10.2v.9c-.9 4.2-2.3 7.3-4.1 9.4 1.3 1.4 3.2 2.7 5.7 4-.2.2-.4.5-.7.9-2.5-1.4-4.4-2.7-5.7-4.2-1.4 1.5-3.5 3-6.1 4.4 0 0 0 0-.1-.1-.3-.4-.5-.7-.7-.8 2.7-1.3 4.7-2.8 6.2-4.2-1.8-2.2-3-5.3-3.7-9.4zm9.2 0h-7.1c.6 3.8 1.7 6.7 3.4 8.7 1.7-2 2.9-4.8 3.7-8.7z" fill="#fafbfa"/><path d="m31.6 3.6h.9v2.3h4.1v9.1h1.7v.9h-16.6v-.9h1.7v-9.1h4.1v-2.3h.9v2.3h3.1v-2.3zm-4 13.3.6.8c-1.9.9-3.8 1.9-5.8 2.8-.2-.3-.3-.6-.5-.9 2-.9 3.9-1.8 5.7-2.7zm-3.2-10.1v3.7h3.1v-3.7zm0 4.5v3.7h3.1v-3.7zm4.1-4.5v3.7h3.1v-3.7zm0 4.5v3.7h3.1v-3.7zm9.1 9.1c-2.1-1.1-4.1-2-5.8-2.7l.5-.8c2.2.9 4.1 1.8 5.8 2.6zm-1.9-13.6h-3.1v3.7h3.1zm-3.2 4.5v3.7h3.1v-3.7z" fill="#fafbfa"/></svg>