<svg enable-background="new 0 0 400 400" viewBox="0 0 400 400" xmlns="http://www.w3.org/2000/svg"><g fill="#010102"><path d="m157.55 321.67c4.37-3.86 9.02-5.52 14.48-3.82 7.65 2.38 14.98 1.7 22.57-.91 12.04-4.15 24.32-7.6 36.54-11.18 2.38-.7 3.06-1.75 2.94-4.21-.54-10.84-.95-21.69-1.19-32.54-.05-2.44-.98-3.53-3.07-4.44-10.49-4.54-20.99-3.28-31.52-.28-2.58.73-5.08 1.74-7.67 2.42-10.88 2.89-18.86-.83-24.41-10.75-3.93-7.01-4.7-14.59-5.14-22.32-.12-2.11-.21-4.23-.33-6.67.9 0 1.64-.01 2.37 0 18.46.21 36.94.8 55.28-1.93 3.57-.53 7.07-2.01 10.4-3.5 1.08-.48 2.25-2.45 2.14-3.62-1.26-14.02-2.75-28.02-4.19-42.19-8.55-.86-16.75.03-24.9 1.41-5.84.98-11.61 2.35-17.44 3.39-4.88.87-9.8 1.36-14.44-1.08-4.49-2.37-7.89-11.06-6.1-15.55.24-.59.76-1.09 1.23-1.56 22.97-23.31 39.29-51.14 54.58-79.74 8.66-16.21 16.31-32.8 22.12-50.25.38-1.14.94-2.23 1.47-3.48 8.57 3.76 15.31 8.96 18.24 18.18 3 9.47 8.52 17.35 15.5 24.38 20.54 20.69 39.64 42.54 55.81 66.93 4.43 6.68 10.99 12 16.84 17.67 4.78 4.63 7.01 9.92 6.04 16.9-8.96.86-17.87 2.49-26.73 2.31-6.22-.13-12.33-3.06-18.59-4.11-7.12-1.2-14.35-1.95-21.56-2.38-2.53-.15-5.27.94-7.71 1.95-4.43 1.83-6.59 4.76-6.74 10.2-.33 12.78 1.47 25.17 4.3 37.52.41 1.78 1.14 2.48 3.05 2.77 11.3 1.73 22.26-.4 33.28-2.42 8.85-1.62 17.39-.99 24.97 4.66 1.66 1.24 2.38 2.61 2.47 4.74.35 8.48.94 16.96 1.48 25.93-6.26.87-12.28 2.06-18.36 2.46-10.71.71-21.44 1.08-32.17 1.32-7.56.17-11.85 3.52-13.33 11.44-1.78 9.58.2 18.94 2.12 28.25.16.8 1.43 1.64 2.36 1.97 20.22 7.17 40.85 12.6 62.46 12.72 5.52.03 11.06-1.34 16.55-2.28 7.14-1.22 9.92 1.27 9.06 8.4-.4 3.33-1.73 6.03-4.24 8.44-22.15 21.24-48 35.62-78 42.37-22.76 5.13-45.67 5.56-68.69 2.03-1.83-.28-3.7-.9-5.35-1.74-11.95-6.1-23.85-12.29-35.74-18.5-1.06-.55-2.21-1.22-2.91-2.15-6.69-8.94-13.31-17.95-20.13-27.16z"/><path d="m63.83 180.83c-6.96-.95-13.94-1.79-20.87-2.93-1.34-.22-2.85-1.3-3.68-2.43-4.17-5.68-8.16-11.49-12.18-17.27-3.84-5.51-3.79-11.96-4.64-18.27-.69-5.09 1.24-8.41 5.42-10.6 6.01-3.14 12.02-6.38 18.31-8.88 6.31-2.51 13.04-3.96 19.44-6.29 3.4-1.24 6.45-1.31 9.68.1 4.91 2.14 10.02 3.9 14.74 6.39 13.28 7.01 17.81 16.71 14.96 31.39-.68 3.5-1.84 6.91-2.54 10.41-1.03 5.13-4.27 8.34-8.55 10.93-7.73 4.67-16.51 6.76-30.09 7.45z"/><path d="m117.3 256.65c-6.59 10.15-12.45 19.96-19.13 29.16-4.27 5.88-11.06 8.47-18.17 9.79-8.71 1.62-16.95-.69-24.88-3.68-7.39-2.78-14.44-6.46-21.59-9.83-.91-.43-1.95-1.32-2.25-2.22-2.99-8.88-3.58-17.71 1.01-26.31.36-.68.78-1.38 1.33-1.9 9.07-8.68 19.68-14.68 32.26-15.58 9.52-.68 19.02 1.17 27.49 5.98 8.04 4.56 15.8 9.61 23.93 14.59z"/></g><path d="m6.4 11.7c-1-.8-1.9-1.6-2.9-2.3l.6-.7c.9.7 1.9 1.4 2.9 2.2zm-2.1 8.3c.7-2.1 1.4-4.2 2-6.4.2.1.6.3 1 .4-.7 2.3-1.3 4.4-1.9 6.4zm3-12.8c-1.1-.9-2.1-1.7-2.9-2.4l.6-.7c1 .8 2 1.5 3 2.4zm1.4-1.3v-.9h10.2v.9c-.9 4.2-2.3 7.3-4.1 9.4 1.3 1.4 3.2 2.7 5.7 4-.2.2-.4.5-.7.9-2.5-1.4-4.4-2.7-5.7-4.2-1.4 1.5-3.5 3-6.1 4.4 0 0 0 0-.1-.1-.3-.4-.5-.7-.7-.8 2.7-1.3 4.7-2.8 6.2-4.2-1.8-2.2-3-5.3-3.7-9.4zm9.2 0h-7.1c.6 3.8 1.7 6.7 3.4 8.7 1.7-2 2.9-4.8 3.7-8.7z" fill="#fafbfa"/><path d="m31.6 3.6h.9v2.3h4.1v9.1h1.7v.9h-16.6v-.9h1.7v-9.1h4.1v-2.3h.9v2.3h3.1v-2.3zm-4 13.3.6.8c-1.9.9-3.8 1.9-5.8 2.8-.2-.3-.3-.6-.5-.9 2-.9 3.9-1.8 5.7-2.7zm-3.2-10.1v3.7h3.1v-3.7zm0 4.5v3.7h3.1v-3.7zm4.1-4.5v3.7h3.1v-3.7zm0 4.5v3.7h3.1v-3.7zm9.1 9.1c-2.1-1.1-4.1-2-5.8-2.7l.5-.8c2.2.9 4.1 1.8 5.8 2.6zm-1.9-13.6h-3.1v3.7h3.1zm-3.2 4.5v3.7h3.1v-3.7z" fill="#fafbfa"/></svg>