<svg enable-background="new 0 0 400 400" viewBox="0 0 400 400" xmlns="http://www.w3.org/2000/svg"><path d="m362.1 8.8c1.1.8 2.1 1.6 3.1 2.4l-1 1.1c-1.3-1.1-2.3-2-3-2.5zm1.9 4.8c.5.2.9.4 1.4.5-.6 2.3-1.3 4.5-1.9 6.8l-1.5-.5c.8-2.1 1.4-4.3 2-6.8zm-1-9.4c1.3.9 2.4 1.8 3.4 2.5l-1 1.1c-1.4-1.2-2.4-2.1-3.2-2.6zm3.7 2.2v-1.4h10.3v1.2c-.5 3.6-1.8 6.8-4 9.4 1.5 1.6 3.4 2.8 5.7 3.8-.3.4-.7.8-1.1 1.4-2.3-1.1-4.1-2.5-5.6-4.1-1.6 1.6-3.6 3.1-5.9 4.3-.3-.5-.7-.9-1-1.3 2.4-1.1 4.4-2.5 6-4.1-1.9-2.5-3-5.6-3.3-9.3h-1.1zm8.8 0h-6.4c.3 3.3 1.3 6 3 8.2 2-2.3 3.1-5.1 3.4-8.2z" fill="#fbfafc"/><path d="m385.3 3.8h1.3v2.2h2.8v-2.2h1.3v2.2h4.1v9.1h1.7v1.3h-16.9v-1.3h1.7v-9.1h4.1v-2.2zm.4 13.1.7 1.2c-1.8.9-3.8 1.9-6 2.9-.2-.4-.5-.8-.8-1.3 2.3-1 4.3-1.9 6.1-2.8zm-3.1-6.4h2.8v-3.2h-2.8zm0 4.6h2.8v-3.3h-2.8zm4-4.6h2.8v-3.2h-2.8zm0 4.6h2.8v-3.3h-2.8zm3.7 1.9c2.1.9 4.1 1.8 6.1 2.7l-.7 1.3c-2.2-1.1-4.2-2-6.1-2.9zm3.2-9.7h-2.8v3.2h2.8zm-2.8 7.8h2.8v-3.3h-2.8z" fill="#fbfafc"/><path d="m56.02 363.88c5.95-.67 11.68-1.56 17.44-1.9 14.47-.85 27.93-5.94 41.75-9.56 15.34-4.01 30.64-8.21 46.05-11.97 5.95-1.45 12.14-1.95 18.22-2.81 5.63-.79 8.97-4.17 10.78-9.31 3.5-9.91 2.96-11.43-7.34-12.68-9.17-1.11-18.49-.95-27.74-1.39-5.34-.25-10.84.14-15.98-1.02-11.18-2.53-16-10.86-17.72-22.01 5.82.71 11.43 1.36 17.03 2.07 14.54 1.84 29.07 3.75 43.61 5.54 2.09.26 4.26.21 6.37 0 6.64-.64 9.17-3.61 8.76-10.21-.43-7.04-1.09-14.06-1.39-21.1-.11-2.54-1.19-3.93-3.46-3.98-6.57-.14-13.31-.96-19.68.18-16.48 2.96-32.81 6.77-49.17 10.39-1.86.41-3.7 1.54-5.23 2.75-5.83 4.61-12.35 5.38-19.36 3.92-1.31-.27-2.62-.65-3.95-.78-10.1-.92-16.57-7.71-22.95-14.43-1.83-1.93-2.55-4.91-3.72-7.28 39.74-3.06 78.82-5.05 115.84-19.12-.01-.44-.02-.88-.03-1.33-1.31-.4-2.62-.85-3.94-1.2-15-4.03-30.01-8.04-45-12.11-1.36-.37-2.88-.89-3.86-1.83-13.88-13.31-22.05-29.33-22.84-48.78-.03-.67.05-1.34.13-2.01.04-.32.2-.63.29-.89 2.66-1.07 4.18.51 5.79 2.18 12.87 13.35 26.89 25.32 42.86 34.83 10.93 6.51 22.72 10.92 35.35 13.75 3.16-5.31 4.14-11.13 3.44-17.07-1.61-13.75-7.11-26.26-13.39-38.41-.8-1.56-3.64-2.3-5.69-2.93-5.02-1.55-9.92-.34-14.85.91-3 .76-6.14 1.08-9.24 1.25-7.71.43-13.15-3.56-17.42-9.5-2.61-3.64-5.6-6.82-10.2-7.61-1.72-.29-3.86-.19-5.35.6-13.41 7.15-26.82 14.32-40.01 21.86-8.13 4.65-16.59 6.3-25.79 5.21-2.74-.33-4.03-1.96-3.65-4.21.58-3.46 1.37-7.03 4.77-9.17 10.78-6.78 21.49-13.69 32.33-20.38 26.1-16.13 48.3-36.67 67.2-60.66 8.56-10.86 15.62-22.91 23.26-34.49.52-.79.49-2.12.35-3.15-.83-5.97-1.77-11.92-2.67-17.89 9.83-1.06 21.76 5.92 25.63 15.09 2.6 6.17 4.89 12.48 7.33 18.72 1.22 3.12 3.28 5.34 6.29 7.05 9.54 5.4 18.74 11.41 28.41 16.53 11.96 6.33 21.88 15.06 31.29 24.53 17.77 17.89 34.78 36.45 49 57.35 9.26 13.6 16.39 28.21 19.26 44.61.4 2.3.62 4.63.9 6.78-.31.33-.43.58-.61.64-7.21 2.24-7.64 2.39-10.18-4.66-8.7-24.21-24.88-42.96-43.16-60.25-1.77-1.67-3.71-3.15-5.66-4.8-.77.92-1.33 1.6-1.9 2.27-3.88 4.51-7.14 5.55-12.42 2.84-16.25-8.32-33.18-8.02-50.34-4.17-6.5 1.46-12.22 4.79-16.93 9.29 4.14 3.84 8.31 7.41 12.12 11.32 4.05 4.15 6.28 9.16 5.79 15.18-.45 5.57-.76 11.16-1.12 16.74-.1 1.56-.33 3.14-.19 4.68.26 2.87.99 5.69 4.18 6.64 3.34.99 6.49.9 9.26-1.9 2.51-2.53 5.25-4.89 8.13-6.99 6.29-4.56 11.29-10.14 14.69-17.15 1.22-2.51 2.44-5.05 3.97-7.38 2.87-4.38 4.32-9.04 3.59-14.26-.38-2.71 1-3.1 3.35-3.65 4.79-1.13 8.03.51 11 4.06 3.37 4.02 7.2 7.66 10.57 11.69 1.47 1.76 2.55 3.97 3.37 6.14 2.98 7.94 2.52 9.22-4.28 14.44-13.67 10.49-27.34 20.99-41 31.49-.68.52-1.31 1.13-1.96 1.69.02.37.03.73.05 1.1 7.05.69 14.11 1.95 21.16 1.93 11.51-.04 23.01-1.16 34.52-1.41 13.77-.3 25.94 3.35 33.86 15.76 1.36 2.13 2.34 4.51 3.56 6.89-6.95 2.21-13.59 2.34-20.21.57-11.13-2.98-22.34-3.92-33.88-2.85-15.92 1.47-31.93 2.02-47.85 3.5-4.98.46-9.89 2.42-14.67 4.13-2.67.95-3.89 3.2-3.64 6.41.62 7.69.77 15.42 1.35 23.12.1 1.27 1.1 3.02 2.18 3.57 2.85 1.47 5.96 2.44 8.99 3.54 1.25.45 2.65.56 3.84 1.12 2.99 1.39 3.35 4.14 3.55 7.05.2 2.9-2.15 2.67-3.75 3.36-3.7 1.58-7.47 3-11.12 4.67-5.74 2.62-9.05 7.05-9.53 13.59 4.24 2.73 8.94 3.64 13.79 2.93 5.85-.86 11.66-2.07 17.43-3.38 1.39-.31 2.83-1.34 3.79-2.44 8.65-9.98 17.45-19.85 25.63-30.2 2.41-3.05 3.27-7.46 4.31-11.39 1.05-3.97 2.19-7.72 5.71-10.56 5.55 5.12 10.82 10.51 14.1 17.27 3.39 6.98 2.36 14.04-2.26 20.24-4.13 5.55-8.69 10.79-13.52 16.73 6.76 2.31 13.13 4.54 19.54 6.65 7.21 2.37 14.64 4.17 21.63 7.05 7.67 3.17 10.89 9.43 9.91 17.18-.13 1.04-.81 2.42-1.66 2.9-5.46 3.11-11.19 4.44-17.32 1.85-8.26-3.49-16.9-4.54-25.86-4.77-27.38-.69-54.52 2.37-81.73 4.43-14.72 1.12-29.48 1.99-44.14 3.66-7.26.83-14.28 3.68-21.53 4.83-16.43 2.62-32.89 5.32-49.44 6.89-9.93.94-19.71-1.83-29.15-5.36-3.41-1.27-5.36-3.28-6.02-7.39zm215.71-229.92c-1.17-1.45-2.06-2.7-3.1-3.81-18.86-20.07-42-33.81-66.85-44.98-.99-.45-2.63-.17-3.69.35-9.07 4.41-16.84 10.54-23.24 18.34-7.95 9.69-15.73 19.5-25.65 27.35-.91.72-1.16 2.26-1.72 3.41 1.2.42 2.43 1.28 3.6 1.2 20.18-1.4 40.37-2.75 60.52-4.47 16.08-1.37 32.05-2.9 47.67 3.09 3.82 1.47 8.03 1.33 12.46-.48z" fill="#000001"/></svg>