<svg enable-background="new 0 0 400 400" viewBox="0 0 400 400" xmlns="http://www.w3.org/2000/svg"><path d="m362.1 8.8c1.1.8 2.1 1.6 3.1 2.4l-1 1.1c-1.3-1.1-2.3-2-3-2.5zm1.9 4.8c.5.2.9.4 1.4.5-.6 2.3-1.3 4.5-1.9 6.8l-1.5-.5c.8-2.1 1.4-4.3 2-6.8zm-1-9.4c1.3.9 2.4 1.8 3.4 2.5l-1 1.1c-1.4-1.2-2.4-2.1-3.2-2.6zm3.7 2.2v-1.4h10.3v1.2c-.5 3.6-1.8 6.8-4 9.4 1.5 1.6 3.4 2.8 5.7 3.8-.3.4-.7.8-1.1 1.4-2.3-1.1-4.1-2.5-5.6-4.1-1.6 1.6-3.6 3.1-5.9 4.3-.3-.5-.7-.9-1-1.3 2.4-1.1 4.4-2.5 6-4.1-1.9-2.5-3-5.6-3.3-9.3h-1.1zm8.8 0h-6.4c.3 3.3 1.3 6 3 8.2 2-2.3 3.1-5.1 3.4-8.2z" fill="#fbfafc"/><path d="m385.3 3.8h1.3v2.2h2.8v-2.2h1.3v2.2h4.1v9.1h1.7v1.3h-16.9v-1.3h1.7v-9.1h4.1v-2.2zm.4 13.1.7 1.2c-1.8.9-3.8 1.9-6 2.9-.2-.4-.5-.8-.8-1.3 2.3-1 4.3-1.9 6.1-2.8zm-3.1-6.4h2.8v-3.2h-2.8zm0 4.6h2.8v-3.3h-2.8zm4-4.6h2.8v-3.2h-2.8zm0 4.6h2.8v-3.3h-2.8zm3.7 1.9c2.1.9 4.1 1.8 6.1 2.7l-.7 1.3c-2.2-1.1-4.2-2-6.1-2.9zm3.2-9.7h-2.8v3.2h2.8zm-2.8 7.8h2.8v-3.3h-2.8z" fill="#fbfafc"/><path d="m132.36 28.68c19.82 7.81 40.55 12.86 57.65 25.69 7.1 5.32 13.71 11.58 19.48 18.33 7.09 8.3 15.4 13.48 25.9 16.54 17.48 5.11 34.56 11.54 51.92 17.09 7.64 2.44 15.63 3.78 23.3 6.15 5.41 1.67 10.71 3.92 15.75 6.51 5.02 2.58 8.37 6.85 10.14 12.4.98 3.08.39 4.65-2.78 5.75-8.09 2.8-16.17 2.45-24.05-.24-8.76-3-17.25-6.74-25.95-9.92-8.39-3.07-16.88-5.87-25.34-8.73-11.65-3.94-23.26-8-34.99-11.69-14.44-4.54-28.27-2.76-41.23 5.1-10.14 6.15-18.57 14.22-26.36 23.84 6.25 1.67 12.17 1.48 17.94.76 10.98-1.36 21.96-2.94 32.79-5.14 5.62-1.14 11.11-3.41 16.35-5.83 5.98-2.77 12.14-3.6 18.56-3.46 3.58.08 7.15.24 10.72.51 4.14.31 6.51 2.7 6.92 6.83.44 4.43-.09 8.11-4.72 10.71-5.71 3.21-10.92 7.31-16.75 11.31 1.47 1.2 2.63 2.17 3.82 3.12 15.86 12.6 31.96 24.92 47.47 37.93 5.91 4.96 12.14 6.14 19.19 5.56 6.13-.5 12.23-1.28 18.34-1.92 1.22-.13 2.45-.25 3.68-.27 8.52-.08 12.66 5.37 10.08 13.44-.28.88-1.62 1.69-2.63 2.04-7.4 2.54-14.82 4.99-22.28 7.36-2 .63-3.11 1.43-3.38 3.8-.62 5.55-1.58 11.07-2.64 16.56-.54 2.82-1.35 5.65-2.47 8.29-4.64 10.89-9.45 21.7-14.59 33.44 8.41 2.65 16.46 5.63 24.74 7.67 9.97 2.46 20.18 3.96 30.21 6.21 6.82 1.53 13.24 4.27 18.34 9.27 2.28 2.23 4.1 4.93 6.34 7.68-5.52 3.98-11.4 5.17-17.25 4.67-9.43-.8-18.8-2.46-28.18-3.83-9.51-1.39-19.01-2.88-28.51-4.32-11.45-1.74-22.14 2-32.95 4.71-36.31 9.12-72.71 17.93-108.86 27.67-15.28 4.12-30.03 10.23-45.01 15.46-13.61 4.76-27.15 9.71-40.83 14.23-2.68.88-5.92.46-8.84.11-9.22-1.1-18.4-2.46-27.6-3.71-8.58-1.17-12.4-5.94-11.87-15.29 3.09-.29 6.27-.62 9.44-.87 6.69-.52 13.39-.96 20.08-1.53 1.31-.11 2.62-.53 3.86-1 25.71-9.73 51.39-19.55 77.14-29.15 3.43-1.28 4.88-3.48 5.68-6.66 2.37-9.41.7-18.69-1.03-27.93-.57-3.06-1.66-6.02-2.44-9.05-.54-2.08-1.82-2.5-3.89-2.68-11.91-.98-23.81-2.05-35.67-3.44-3.02-.35-6.04-1.69-8.81-3.07-5.7-2.86-9.39-7.45-10.69-14.34 4.45-.89 8.89-1.72 13.3-2.68 8.19-1.78 16.48-3.21 24.48-5.61 4.24-1.27 8.19-3.97 11.86-6.6 2.66-1.91 3.75-4.97 2.18-8.38-.32-.7-.52-1.48-.65-2.25-1.96-11.69-6.92-21.61-15.98-29.59-4.5-3.96-6.97-9.43-7.47-15.87 5.25.52 10.02.68 14.78 3.65 10.79 6.73 20.2 14.69 27.38 25.22 4.36 6.4 10.26 11.18 16.57 15.47 1.01.69 2.72.95 3.92.66 6.52-1.56 12.97-3.43 19.47-5.07 8.62-2.17 9.03-9.68 4.83-14.78-9.67-11.74-19.87-23.07-30.35-34.1-7.94-8.35-18.05-12.7-29.74-12.57-1.77.02-3.85.91-5.25 2.05-18.3 14.93-37.8 27.89-59.93 36.43-4.36 1.68-9.23 2.06-14.15 3.09-.57-3.47-1.19-5.98-1.3-8.51-.04-.96.89-2.19 1.72-2.92 18.32-16.12 36.57-32.33 55.08-48.22 16.35-14.04 30.14-29.97 38.59-50.01 2.38-5.65 4-11.61 6.17-17.35.78-2.07-.28-2.89-1.48-4.21-5.39-5.95-11.04-11.74-15.76-18.2-4.82-6.62-5.36-14.21-1.51-22.32zm131.46 171.31c-5.82-11.27-13-20.7-20.9-29.54-4.3-4.81-9.32-8.97-14.04-13.39-1.9-1.78-3.88-1.97-6.4-.88-5.63 2.44-11.42 4.51-17.14 6.74-8.93 3.49-17.86 6.99-27 10.58.5.53.75.89 1.08 1.14 12.01 9.15 23.92 18.43 36.11 27.34 2.88 2.1 6.55 3.55 10.07 4.26 13.34 2.69 25.43-2.6 38.22-6.25zm-54.98 64.93c-.2-.09-.39-.19-.59-.28-.53-2.38-.8-4.85-1.63-7.13-2.46-6.77-10.54-10.3-17.28-7.75-7.31 2.78-14.65 5.46-21.9 8.39-1.18.48-2.55 1.91-2.78 3.11-1.8 9.21-3.6 18.43-4.87 27.72-.83 6.11-.51 12.29 2.59 17.97.84 1.54 1.72 1.97 3.44 1.36 11.36-4.04 22.77-7.96 34.11-12.03.98-.35 2.18-1.42 2.41-2.36 2.28-9.65 4.37-19.33 6.5-29zm20.69 24.32c2.78-.35 5.2-.52 7.57-.98 6.88-1.35 13.91-2.26 20.55-4.39 6.34-2.03 11.07-6.15 12.18-13.6 1.09-7.27 3.27-14.37 4.44-21.63.65-4.01.81-8.29.14-12.27-1.19-7.08-7.15-9.94-13.68-7.2-6.07 2.55-12.11 5.16-18.21 7.64-1.82.74-2.8 1.69-3.14 3.79-.78 4.84-1.95 9.62-2.93 14.43-2.28 11.26-4.55 22.49-6.92 34.21z" fill="#000001"/></svg>