<svg viewBox="0 0 400 400" xmlns="http://www.w3.org/2000/svg"><rect width="400" height="400" fill="white" /><g fill="#fbfafc"><path d="m12.4 4.8-6.1 9h6v1.2h-8v-.5l6.1-8.9h-5.7v-1.2h7.6v.4z"/><path d="m14 15v-10.6h3c1.6 0 2.9.5 4 1.4s1.6 2.2 1.6 3.8-.5 3-1.6 3.9-2.4 1.5-4 1.5zm1.4-9.4v8.2h1.6c1.3 0 2.4-.4 3.1-1.1s1.1-1.8 1.1-3.1-.4-2.3-1.2-3-1.8-1-3.1-1z"/><path d="m26.1 4.4v10.6h-1.4v-10.6z"/><path d="m36.1 14.6c-.8.4-1.8.6-2.9.6-1.5 0-2.7-.5-3.6-1.4s-1.4-2.2-1.4-3.8c0-1.7.5-3.1 1.5-4.1s2.3-1.6 3.9-1.6c1 0 1.8.1 2.5.4v1.4c-.8-.4-1.6-.6-2.5-.6-1.2 0-2.1.4-2.9 1.2s-1.1 1.8-1.1 3.2c0 1.3.3 2.3 1 3s1.6 1.1 2.7 1.1c1 0 2-.2 2.7-.7v1.3z"/><path d="m37.6 14.3c0-.2.1-.5.3-.6s.4-.3.6-.3c.3 0 .5.1.6.3s.3.4.3.6-.1.4-.3.6-.4.3-.6.3c-.3 0-.5-.1-.6-.3s-.3-.4-.3-.6z"/><path d="m50.2 15h-1.6l-5.3-8.2c-.2-.2-.3-.5-.4-.7 0 .2.1.7.1 1.5v7.4h-1.4v-10.6h1.7l5.2 8.1c.2.4.4.6.4.7 0-.3-.1-.8-.1-1.5v-7.3h1.4z"/><path d="m58.6 15h-5.7v-10.6h5.5v1.2h-4.1v3.4h3.8v1.2h-3.8v3.6h4.3z"/><path d="m67.1 5.6h-3.1v9.4h-1.4v-9.4h-3v-1.2h7.5z"/></g><path d="m138.96 357.22c-.69-4.63-.44-7.95 2.78-11.25 15.68-16.08 23.78-35.94 27.98-57.67.6-3.13 1.92-6.12 2.9-9.18.2-.62.63-1.31.51-1.88-1.29-6.05.92-11.71 2.03-17.45.5-2.58-.07-4.39-2.37-5.03-4.37-1.22-8.85-2-13.29-2.96-10.44 5.2-21.52 1.15-32.26 2.09-7.33.64-14.77.01-22.16.19-2.5.06-3.92-.65-4.79-3.01-.72-1.97-1.82-3.8-2.87-5.92.88-.41 1.51-.83 2.21-1.01 11.77-2.97 21.92-9.45 32.43-15.11 2.47-1.33 4.57-3.63 6.39-5.85 3.32-4.07 8-5.58 12.57-7.3 3.83-1.44 7.05-3.53 8.57-7.44.36-.93.13-2.77-.54-3.33-5.46-4.59-10.79-9.47-16.79-13.27-3.94-2.49-8.93-3.32-13.44-4.89-1.16-.4-2.6-.51-3.41-1.28-6.06-5.71-14.01-7.16-21.48-9.66-2.17-.73-2.95-1.69-2.8-4.02.38-6.14.37-12.3.75-18.45.08-1.24.84-2.86 1.82-3.57 6.24-4.51 10.07-10.67 12.78-17.68 2.59-6.7 6.45-12.39 12.2-16.87 4.05-3.16 8.05-6.52 11.49-10.31 13.68-15.11 29.63-28.17 40.71-45.61 2.85-4.48 4.59-9.19 4.62-14.48.05-7.33 2.34-13.8 7.32-19.59 5.46 2.03 9.54 5.81 12.1 10.88 5.69 11.25 7.47 23.1 4.04 35.45-.23.85-.48 1.81-1.05 2.42-5.75 6.22-8.29 14.24-12.33 21.41-3.98 7.06-8.95 13.59-13.74 20.17-3.28 4.52-6.99 8.72-10.67 13.27-2.49-2.11-4.62-.77-6.57.75-3.53 2.75-7.06 5.51-10.39 8.49-4.44 3.97-9.61 6.31-15.15 8.31-3.89 1.4-7.42 3.86-10.97 6.07-2.63 1.64-4.93 3.83-7.56 5.48-5.11 3.19-5.29 5.91-.62 9.45 5.01 3.8 11 4.88 16.84 6.24 7.13 1.67 12.53 5.68 16.97 11.25 1.6 2.01 3.13 4.08 4.65 6.17 4.6 6.32 10.01 11.37 18.26 12.4 1.42.18 3.16.97 3.99 2.06 2.08 2.73 4.58 3.5 7.85 3.22 12.8-1.11 25.1 2.23 37.52 4.43 2.16.38 4.24 1.42 6.26 2.37 3.53 1.64 7 2.12 11 1.71 2.26-.23 5.36 1.6 7.11 3.43 8.27 8.64 16.78 17.14 24.12 26.54 11.38 14.59 18.95 31.24 21.08 49.74 1.05 9.13.2 18.49.18 27.75 0 .89-.41 1.8-.31 2.66 1.37 11.85-2.74 22.69-6.1 33.68-1.08 3.53-2.06 7.08-3.27 10.57-.31.91-1.16 1.94-2.02 2.29-3.47 1.45-5.26.61-5.84-3.17-.34-2.21-.15-4.83.75-6.84 8.29-18.52 9.6-38 8.36-57.85-.5-7.97-3.2-15.34-7.26-22.11-4.37-7.28-8.9-14.52-14.04-21.25-2-2.62-5.99-3.65-8.86-5.7-1.81-1.28-3.17-3.17-4.84-4.67-.81-.73-1.89-1.75-2.8-1.71-5 .21-9.18-1.44-12.77-4.81-2.15-2.02-4.69-2.62-7.65-2.7-10.84-.31-21.69-.81-32.52-1.42-2.54-.14-4.18.65-4.79 2.98-.81 3.1-2.11 6.35-1.83 9.41 1.33 14.59-1.23 28.85-3.85 42.98-1.27 6.84-5.09 13.3-8.25 19.69-4.32 8.73-9.12 17.27-16.39 23.97-5.41 4.99-11.11 9.67-16.86 14.26-1.44 1.13-3.59 1.35-5.64 2.07z" fill="#000001"/></svg>