<svg viewBox="0 0 400 400" xmlns="http://www.w3.org/2000/svg"><rect width="400" height="400" fill="white" /><path d="m187.56 257.92c2.55 6.88 5.03 13.79 7.68 20.63 1.81 4.68 3.73 9.31 5.8 13.88 1.21 2.67 3.27 3.79 6.49 3.42 6.88-.79 13.83-1.04 20.73-1.71 1.42-.14 3.06-.83 4.08-1.8 5.02-4.79 9.95-9.68 14.71-14.72 1-1.06 1.53-2.89 1.63-4.41 1.05-16.1-2.08-31.86-4.04-47.72-2.62-21.2-5.23-42.4-7.78-63.61-1.65-13.66-2.84-27.38-4.94-40.97-1.03-6.67-3.87-13.05-5.53-19.65-4.15-16.54-7.22-33.29-6.14-50.43.54-8.63 2.17-17.19 3.34-25.99 5.25 1.49 7.86 4.58 9.66 8.45 4.26 9.13 4.76 19 5.56 28.8.1 1.22.05 2.46.06 3.69.03 6.56-.07 13.07-6.09 17.8 12.32 10.2 13.36 24.49 15.43 38.27 1.12 7.41 2.34 14.59 5.34 21.63 2.31 5.42 2.65 11.71 3.71 17.64 2.98 16.61 6.25 33.18 8.67 49.88 1.52 10.49 1.11 21.26 2.65 31.75 1.59 10.79.14 20.82-4.06 30.68-.48 1.13-.73 2.35-1.14 3.51-1.77 5.04-2.53 10.87-5.64 14.87-3.13 4.02-8.55 6.31-13.08 9.17-3.56 2.25-7.28 4.41-11.57.5-1.83 2.79-3.38 5.49-5.3 7.91-1.02 1.28-2.55 2.49-4.09 2.97-4.9 1.54-9.89 2.83-14.89 3.98-1.99.46-2.73 1.42-3.04 3.33-1.5 9.29-.49 18.51.48 27.75.57 5.43 1.19 10.94.91 16.36-.37 7.43-4.73 10.95-12.62 10.84-1.1-5.89-2.24-11.88-3.34-17.88-1.84-10.01-3.67-20.01-5.45-30.03-.47-2.67-2.12-4.31-4.54-4.82-5.14-1.1-9.92-2.3-15.26 1.21-8.42 5.54-18.5 6.23-28.38 6.78-1.23.07-2.46.01-3.69.01-8.47 0-8.76-.19-9.88-8.52-.13-.98.6-2.49 1.42-3.1 4.14-3.09 8.95-3.47 14-3.55 4.37-.06 8.88-.7 13.06-1.95 7.48-2.24 14.7-5.34 22.15-7.69 7.28-2.3 9.9-7.47 9.8-14.5-.1-6.93-.69-13.86-.55-20.79.08-3.91 1.18-7.81 1.82-11.71.63-.03 1.25-.09 1.86-.16z" fill="#010100"/><g fill="#fcfafa"><path d="m342.2 3.2-6.3 9.2h6.1v1.2h-8.2v-.5l6.2-9.1h-5.7v-1.2h7.8v.4z"/><path d="m344 13.7v-10.9h3.1c1.6 0 3 .5 4.1 1.4 1.1 1 1.6 2.2 1.6 3.9s-.5 3-1.6 4-2.5 1.5-4.2 1.5h-3zm1.4-9.6v8.4h1.6c1.4 0 2.5-.4 3.2-1.1.8-.8 1.2-1.8 1.2-3.2s-.4-2.4-1.2-3.1-1.8-1-3.1-1z"/><path d="m356.3 2.8v10.9h-1.4v-10.9z"/><path d="m366.6 13.2c-.8.4-1.8.6-3 .6-1.6 0-2.8-.5-3.7-1.5s-1.4-2.3-1.4-3.9c0-1.7.5-3.2 1.6-4.2s2.4-1.6 4-1.6c1 0 1.9.1 2.6.4v1.5c-.8-.4-1.6-.6-2.6-.6-1.2 0-2.2.4-3 1.2s-1.1 1.9-1.1 3.3c0 1.3.4 2.3 1.1 3.1s1.6 1.1 2.8 1.1c1.1 0 2-.2 2.8-.7v1.3z"/><path d="m368.2 13c0-.3.1-.5.3-.6.2-.2.4-.3.6-.3.3 0 .5.1.7.3s.3.4.3.6-.1.5-.3.6c-.2.2-.4.3-.7.3s-.5-.1-.6-.3c-.2-.2-.3-.4-.3-.6z"/><path d="m381.1 13.7h-1.7l-5.5-8.4c-.2-.2-.3-.5-.4-.7 0 .2.1.8.1 1.5v7.6h-1.4v-10.9h1.8l5.3 8.3c.3.4.4.6.4.8 0-.3-.1-.8-.1-1.6v-7.5h1.4v10.9z"/><path d="m389.7 13.7h-5.8v-10.9h5.6v1.2h-4.2v3.5h3.9v1.2h-3.9v3.7h4.4z"/><path d="m398.4 4.1h-3.1v9.6h-1.4v-9.6h-3.1v-1.3h7.7v1.3z"/></g></svg>