<svg viewBox="0 0 400 400" xmlns="http://www.w3.org/2000/svg"><rect width="400" height="400" fill="white" /><g fill="#fafafb"><path d="m12.4 4.8-6.1 9h6v1.2h-8v-.5l6.1-8.9h-5.7v-1.2h7.6v.4z"/><path d="m14 15v-10.6h3c1.6 0 2.9.5 4 1.4s1.6 2.2 1.6 3.8-.5 3-1.6 3.9-2.4 1.5-4 1.5zm1.4-9.4v8.2h1.6c1.3 0 2.4-.4 3.1-1.1s1.1-1.8 1.1-3.1-.4-2.3-1.2-3-1.8-1-3.1-1z"/><path d="m26.1 4.4v10.6h-1.4v-10.6z"/><path d="m36.1 14.6c-.8.4-1.8.6-2.9.6-1.5 0-2.7-.5-3.6-1.4s-1.4-2.2-1.4-3.8c0-1.7.5-3.1 1.5-4.1s2.3-1.6 3.9-1.6c1 0 1.8.1 2.5.4v1.4c-.8-.4-1.6-.6-2.5-.6-1.2 0-2.1.4-2.9 1.2s-1.1 1.8-1.1 3.2c0 1.3.3 2.3 1 3s1.6 1.1 2.7 1.1c1 0 2-.2 2.7-.7v1.3z"/><path d="m37.6 14.3c0-.2.1-.5.3-.6s.4-.3.6-.3c.3 0 .5.1.6.3s.3.4.3.6-.1.4-.3.6-.4.3-.6.3c-.3 0-.5-.1-.6-.3s-.3-.4-.3-.6z"/><path d="m50.2 15h-1.6l-5.3-8.2c-.2-.2-.3-.5-.4-.7 0 .2.1.7.1 1.5v7.4h-1.4v-10.6h1.7l5.2 8.1c.2.4.4.6.4.7 0-.3-.1-.8-.1-1.5v-7.3h1.4z"/><path d="m58.6 15h-5.7v-10.6h5.5v1.2h-4.1v3.4h3.8v1.2h-3.8v3.6h4.3z"/><path d="m67.1 5.6h-3.1v9.4h-1.4v-9.4h-3v-1.2h7.5z"/></g><path d="m130.12 329.65c4.75-.58 9.51-1.76 14.23-1.63 16.43.45 32.58-2.05 48.76-4.11 5.49-.7 10.86-2.57 16.21-4.14 3.11-.91 3.21-3.7 3-6.34-1.1-13.44-9.92-22.7-24.07-23.67-15.26-1.06-30.59-.97-45.89-1.52-2.14-.08-4.26-.92-6.38-1.41 0-.53 0-1.06 0-1.6 2.49-.75 4.96-2.11 7.46-2.16 19.45-.38 38.99-1.17 58.02 4.04 7.51 2.05 11.97 7.92 14.63 14.92 1.37 3.62 1.87 7.58 2.7 11.4.35 1.62 1.04 2.85 2.9 2.34 11.06-3.04 22.32-6.09 29.08-16.36 6.22-9.45 7.72-19.54 3.1-30.57-4.05-9.68-10.43-17.62-17.59-24.67-17.27-17.01-24.73-38.41-28.07-61.34-3.12-21.38-.56-42.59 4.23-63.79 6.11-26.99 13.46-53.51 23.71-79.19 2.01-5.03 4.88-9.72 7.53-14.93 2.26 2.62 1.16 4.85.37 6.89-3.95 10.21-8.06 20.36-12.01 30.57-6.12 15.81-9.56 32.33-12.6 48.94-2.23 12.2-4.58 24.41-6.14 36.7-.76 6 .13 12.21.32 18.33.05 1.56.51 3.14.38 4.67-1.23 15.17 4.68 28.64 9.71 42.4 4.03 11.04 12.53 18.61 19.66 27.29 4.9 5.96 9.71 12.01 14.25 18.25 7.71 10.59 8.23 22.36 5.03 34.6-3.72 14.21-13.88 22.19-26.83 27.27-3.83 1.5-7.88 2.51-11.9 3.47-1.96.47-2.78 1.48-3.17 3.3-1.45 6.8-4.04 13.13-6.95 19.47-4.82 10.54-13.38 16.3-23.76 18.98-11.86 3.06-24.11 4.63-36.2 6.81-4.5.81-8.99 1.75-13.53 2.22-2.35.24-5.11.68-7.45-2.58 4.94-1.28 9.41-2.5 13.91-3.58 12.81-3.08 25.64-6.07 38.44-9.15 15.71-3.78 24.55-13.72 26.55-30.01-2.48-1.64-5.21-1.51-7.88-.56-10.54 3.74-21.47 5.3-32.58 5.55-5.24.12-10.49-.29-15.74-.45-5.12-.16-10.24-.39-15.36-.46-3.74-.05-7.58.39-10.21-2.97.06-.42.1-.82.13-1.22z" fill="#010105"/></svg>