<svg enable-background="new 0 0 400 400" viewBox="0 0 400 400" xmlns="http://www.w3.org/2000/svg"><g fill="#fcfafa"><path d="m342.2 3.2-6.3 9.2h6.1v1.2h-8.2v-.5l6.2-9.1h-5.7v-1.2h7.8v.4z"/><path d="m344 13.7v-10.9h3.1c1.6 0 3 .5 4.1 1.4 1.1 1 1.6 2.2 1.6 3.9s-.5 3-1.6 4-2.5 1.5-4.2 1.5h-3zm1.4-9.6v8.4h1.6c1.4 0 2.5-.4 3.2-1.1.8-.8 1.2-1.8 1.2-3.2s-.4-2.4-1.2-3.1-1.8-1-3.1-1z"/><path d="m356.3 2.8v10.9h-1.4v-10.9z"/><path d="m366.6 13.2c-.8.4-1.8.6-3 .6-1.6 0-2.8-.5-3.7-1.5s-1.4-2.3-1.4-3.9c0-1.7.5-3.2 1.6-4.2s2.4-1.6 4-1.6c1 0 1.9.1 2.6.4v1.5c-.8-.4-1.6-.6-2.6-.6-1.2 0-2.2.4-3 1.2s-1.1 1.9-1.1 3.3c0 1.3.4 2.3 1.1 3.1s1.6 1.1 2.8 1.1c1.1 0 2-.2 2.8-.7v1.3z"/><path d="m368.2 13c0-.3.1-.5.3-.6.2-.2.4-.3.6-.3.3 0 .5.1.7.3s.3.4.3.6-.1.5-.3.6c-.2.2-.4.3-.7.3s-.5-.1-.6-.3c-.2-.2-.3-.4-.3-.6z"/><path d="m381.1 13.7h-1.7l-5.5-8.4c-.2-.2-.3-.5-.4-.7 0 .2.1.8.1 1.5v7.6h-1.4v-10.9h1.8l5.3 8.3c.3.4.4.6.4.8 0-.3-.1-.8-.1-1.6v-7.5h1.4v10.9z"/><path d="m389.7 13.7h-5.8v-10.9h5.6v1.2h-4.2v3.5h3.9v1.2h-3.9v3.7h4.4z"/><path d="m398.4 4.1h-3.1v9.6h-1.4v-9.6h-3.1v-1.3h7.7v1.3z"/></g><path d="m137.68 60.95c9.2-4.14 18.24-4.16 27.16-.91 10.82 3.95 21.52 8.19 33.11 9.45.89.1 1.94 1.09 2.45 1.94 6.28 10.58 12.59 21.14 18.58 31.88 1.42 2.55 1.74 5.73 2.4 8.66 1.21 5.41 1.16 5.39 6.81 5.69 4.91.26 9.9.2 14.72 1.02 10.11 1.74 20.19 3.77 30.2 6.04 19.4 4.4 38.76 9 58.11 13.63 2.34.56 3.44-.04 4.31-2.18 3.33-8.22 3.09-16.55 1.32-25.06-1.98-9.51-3.63-19.1-5.6-28.61-.36-1.73-1.27-3.57-2.47-4.86-7.66-8.28-15.47-16.42-23.69-25.1 7.85-1.05 15.09-2.09 22.36-2.93.95-.11 2.09.67 3.02 1.24 5.63 3.44 11.04 7.31 16.88 10.32 7.27 3.74 11.24 9.96 14.53 16.92 6.26 13.26 8.71 27.44 9.78 41.9 1.41 19.15 1.13 38.23-2.38 57.19-1.85 10-5.86 19.2-9.72 28.49-2.23 5.37-4.76 10.63-6.65 16.11-4.21 12.24-11.16 22.68-19.37 32.61-14.91 18.02-29.48 36.33-43.77 54.84-6.02 7.81-13.41 13.71-21.56 18.88-22.43 14.23-46.99 21.64-73.5 22.54-14.77.51-29.2-1.74-43.32-6.04-1.17-.36-2.27-.94-3.36-1.51-7.95-4.1-15.76-8.5-23.87-12.24-5.48-2.53-9.56-6.37-13.45-10.76-15.93-18.02-27.18-38.76-35.68-61.08-4.61-12.11-9.44-24.19-13.08-36.6-3.19-10.85-9.68-18.71-18.35-25.24-4.02-3.03-8.29-5.72-12.24-8.83-5.98-4.71-8.54-10.02-7.94-16.24 5.61.53 11.25.86 16.84 1.62 20.6 2.79 39.6 10.74 58.66 18.45.31.12.62.26.9.44 8.28 5.04 16.09 4.73 23.38-2.07 17.75-16.55 32.57-35.42 42.52-57.7 6.36-14.23 6.75-29.03 2.22-43.93-.36-1.19-1.2-2.45-2.18-3.19-5.55-4.14-11.2-8.16-16.85-12.17-4.62-3.27-8.29-7.38-11.23-12.61zm57.7 193.97c8.9 1.07 20.73-.83 32.31-4.74 2.1-.71 4.32-1.28 6.52-1.46 14.83-1.25 29.65-2.46 44.5-3.49 4.18-.29 7.68-1.39 10.79-4.38 3.3-3.17 6.96-5.98 10.62-8.74 2.29-1.73 3.08-3.93 3.31-6.61.48-5.53-2.58-8.7-7.06-11.08-8.38-4.47-17.48-6.14-26.8-6.69-15.12-.9-29.87 1.48-44.46 5.26-2.7.7-5.74.84-8.51.43-15.04-2.25-30.03-4.81-45.06-7.09-1.56-.24-3.55.21-4.91 1.05-12.07 7.49-23.95 15.29-36.09 22.66-3.56 2.16-5.41 4.35-3.75 8.42.58 1.42 1.12 3.36 2.26 3.96 3.23 1.73 6.74 2.98 10.19 4.26 17.04 6.31 34.86 7.63 56.14 8.24zm3.02-84.18h5.03c18.23 0 36.46-.04 54.69.05 2.17.01 4.41.49 6.49 1.15 10.74 3.43 21.38 7.15 32.16 10.44 8.1 2.48 16.32 2.4 24.4-.39 6.07-2.1 7.36-4.71 5.97-11.12-1.19-5.52-5.47-7.93-9.87-10.19-12.53-6.44-26.23-9.38-39.66-13.09-18.99-5.25-38.23-9.17-58.01-9.84-4.58-.15-8.31 2.18-10.47 5.49-3.64 5.57-6.48 11.72-9.12 17.86-1.2 2.78-1.08 6.11-1.61 9.64zm49.43 122.12c-.04-.37-.07-.73-.11-1.1-4.74 0-9.48.03-14.23-.01-23.14-.2-46.23-.85-69.15-4.79-7.49-1.29-14.49-3.06-20.92-7.26-5.02-3.27-10.41-5.96-15.96-9.09.07 1 .11 1.55.15 2.09.89 10.9 7.04 18.97 13.98 26.8 4.15 4.68 8.89 7.5 15.03 8.34 4.09.56 8.09 1.73 12.18 2.27 16.8 2.2 33.63 3.47 50.28-1.04 10.96-2.96 20.51-8.47 28.75-16.21z" fill="#010103"/></svg>