<svg enable-background="new 0 0 400 400" viewBox="0 0 400 400" xmlns="http://www.w3.org/2000/svg"><path d="m143.75 374.83c-6.1 2.47-12.34 1.58-18.48.44-6.92-1.28-13.73-3.1-20.62-4.53-4.51-.94-8.19-3.02-11.53-6.26-5.54-5.37-11.64-10.16-17.18-15.52-12.55-12.16-16.6-27.95-18.38-44.6-1.73-16.16 2.16-31.45 6.76-46.78 5.98-19.89 11.54-39.92 16.46-60.1 1.91-7.83 1.64-16.21 2.2-24.34 1.53-22.33 2.97-44.66 4.45-66.99.88-13.31-1.27-26.12-6.88-38.22-4.61-9.91-7.55-20.1-6.19-31.13.48-3.85 1.45-7.64 2.44-12.68 4.65 3.06 8.95 5.19 12.4 8.28 10.62 9.53 17.58 21.46 20.33 35.44.9 4.56-.45 9.53-.54 14.31-.06 3.18-.18 6.5.63 9.51.7 2.63 2.79 3.89 6.06 2.63 9.28-3.57 18.69-6.78 28.02-10.21 1.33-.49 2.67-1.21 3.72-2.14 8.91-7.94 18.82-14.37 29.28-20.05 3.93-2.13 7.74-4.48 11.54-6.84 7.74-4.81 14.81-10.39 20.6-17.54 2.17-2.68 4.67-5.09 7.36-7.98 3.61 6.76 7.02 13.22 10.5 19.65.68 1.27 1.4 2.6 2.41 3.59 15.12 14.88 31.14 28.72 49.8 38.96 7.67 4.21 16.21 6.84 24.37 10.15.69.28 1.5.27 2.85.49 2.01-10.53 3.77-20.98 6.06-31.32 1.63-7.37 3.55-14.74 6.12-21.83 1.89-5.21 5.97-9.11 11.08-12.21 3.49 5.31 5.44 11.16 6.95 17.19 3.26 13.06 1.64 25.99-.99 38.89-2.76 13.58-5.54 27.16-8.26 40.74-.26 1.3-.32 2.67-.32 4-.02 23.73-.11 47.46.12 71.18.03 2.79 1.38 5.9 2.99 8.26 3.7 5.42 4.63 10.81 1.96 16.9-2.88 6.58-1.68 13.27-.35 20.01 4.43 22.48 1.22 44.29-6.2 65.67-1.06 3.06-2.3 6.08-3.11 9.2-1.61 6.22-5.13 10.95-10.14 14.9-14.52 11.45-29.83 21.35-48.29 25.2-6.87 1.43-13.76 1.26-20.54-.42-1.31-3.32-.01-4.79 3.16-5.84 20.56-6.79 38.05-18.14 51.57-35.26.54-.68 1.03-1.4 1.63-2.21-10.04-7.47-21.27-11.52-33.3-13.66-7.38-1.31-14.78-2.56-21.06-7.17-5.2-3.81-8.82-8.71-11.28-15.92 6.92.91 13.28 1.23 19.36 2.68 9.66 2.3 19.12 5.4 28.7 8.07 6.5 1.81 13.13 3.33 19.83 1.45 2.81-.79 5.48-2.42 7.89-4.13 2.45-1.74 3.48-4.32 3.45-7.56-.14-14.77-.12-29.55-.01-44.32.02-2.45-.79-3.9-2.91-5.06-4.67-2.57-9.71-3.92-14.86-3.13-13.58 2.11-26.97.46-40.45-.92-25.19-2.58-50.48-3.02-75.76-2.42-14.52.34-29 1.93-43.52 2.45-6.21.22-12.45-1.19-18.69-1.25-6.23-.06-12.46.61-18.68 1.09-.88.07-1.95.66-2.53 1.35-4.5 5.39-7.49 11.37-6.85 18.68.99 11.3-.81 22.06-6.2 32.14-.73 1.36-1.28 2.89-1.55 4.41-1.38 7.85-.38 9.75 6.94 12.87 8.98 3.83 18.48 4.96 28.14 5.55 7.89.48 15.78 1.38 23.6 2.53 3.51.52 6.79 2.2 8.9 6.66-5.61 1.4-10.87 3.1-16.27 3.97-10.04 1.62-20.19 2.56-30.22 4.21-3.55.58-7.02 2.16-10.29 3.77-1.56.77-2.75 2.55-3.76 4.09-1.03 1.58-.63 2.95 1.05 4.26 9.03 7.03 19.22 11.74 29.91 15.56 9.34 3.33 17.6 8.27 23.36 16.66.38.55.73 1.13 1.06 1.71.1.18.1.42.18.79zm68.87-215.17c23.67.44 55.32.18 86.9-2.87 6.04-.58 4.42.51 5.68-5.11.17-.76.16-1.56.22-2.34 1.01-13.71-4.51-24.65-15.33-32.45-11.78-8.49-24.23-16.04-36.37-24.03-6.8-4.48-13.71-8.82-20.3-13.59-3.79-2.74-6.81-6.54-10.61-9.26-3.2-2.3-6.98-3.82-10.58-5.51-2.32-1.09-4.37-.43-6.48 1.15-18.29 13.66-37 26.59-57.5 36.87-12.95 6.49-24.49 15.23-34.99 25.26-.85.81-1.65 2.12-1.69 3.23-.2 4.55.05 9.12-.15 13.67-.16 3.7 2.59 10.02 5.31 10.47 9.8 1.64 19.61 3.96 29.48 4.3 19.43.68 38.93.21 66.41.21zm-13.7 56.64v.44c29.07 0 58.14-.07 87.21.04 7.52.03 14.36-1.62 20.51-6.05 1.63-1.18 2.3-2.4 1.96-4.48-1.35-8.39-2.68-16.78-3.68-25.22-.33-2.79-1.13-3.65-4.01-3.78-24.68-1.06-49.36-2.31-74.03-3.49-15.97-.76-31.93-1.85-47.9-2.15-14.08-.27-28.18.23-42.26.61-8.41.23-16.67 1.51-24.55 4.74-2.57 1.05-4.27 2.47-4.83 5.36-.82 4.27-2.31 8.44-2.84 12.74-.67 5.49-.92 11.07-.87 16.6.03 3.24 1.87 4.74 5.66 4.72 29.88-.16 59.76-.08 89.63-.08z" fill="#010100"/><g fill="#fcfbfa"><path d="m377.9 391.2c-.2.3-.4.5-.6.8-.7-.6-1.4-1-2.2-1.5.2-.3.4-.5.5-.8.6.4 1.4.8 2.3 1.5zm-1.8 6.1c-.2-.2-.5-.4-.9-.6.4-.6.8-1.2 1.2-1.9s.7-1.3.9-1.9c.3.3.5.5.8.7-.7 1.3-1.4 2.6-2 3.7zm2.2-9c-.3.3-.5.5-.6.8-.6-.6-1.3-1.1-2-1.5.3-.3.5-.5.6-.7.6.5 1.3.9 2 1.4zm.3.2v-.9h2 4.5c-.3 1.3-.6 2.5-1 3.6s-.9 2.1-1.4 3c.4.5 1 1 1.6 1.4s1.2.8 1.9 1.1c-.3.2-.5.4-.8.8-.4-.3-1-.7-1.6-1.2s-1.2-1.1-1.6-1.6c-.5.6-1.1 1.1-1.7 1.6s-1.4.9-2.1 1.4c-.1-.3-.3-.5-.7-.8.6-.2 1.2-.5 1.9-1s1.4-1.1 2-1.8c-.5-.8-.9-1.6-1.2-2.5s-.6-2-.8-3.2c-.4.1-.7.1-1 .1zm2.5 2.7c.3 1 .7 1.7 1 2.2.3-.5.6-1.1 1-2s.6-1.9.9-3h-3.2-.4c.1.9.3 1.8.7 2.8z"/><path d="m396.5 388.5v1.5 3.6h1.5v.9c-.4 0-1 0-1.7 0h-7.9c-.5 0-.9 0-1.2 0v-.9h1.3v-3.5c0-.7 0-1.2 0-1.6h2.4c0-.8 0-1.4 0-1.7h1c0 .3-.1.8-.1 1.7h1.5c0-.8 0-1.4 0-1.7h1c0 .3-.1.9-.1 1.7zm-8.2 9.2c-.2-.3-.5-.5-.8-.8.8-.3 1.4-.6 1.9-.9s1-.7 1.4-1.1c.3.3.6.5.9.8-1.6 1-2.8 1.6-3.4 2zm2.6-6.8v-1.6h-1.5v1.6zm0 2.7v-1.9h-1.5v1.9zm2.4-2.7v-1.6h-1.5v1.6zm0 2.7v-1.9h-1.5v1.9zm.2 2 .7-.8c.4.2.9.5 1.6.8s1.3.7 1.8 1c-.3.3-.5.5-.8.8-.4-.3-1.5-1-3.3-1.8zm2-4.7v-1.6h-1.4v1.6zm0 2.7v-1.9h-1.4v1.9z"/></g></svg>