<svg enable-background="new 0 0 400 400" viewBox="0 0 400 400" xmlns="http://www.w3.org/2000/svg"><path d="m101.07 122.74c10.72-.86 13.04 7.25 16.24 14.1 4.29 9.21 3.79 19.16 3.98 29.01.11 5.56.41 11.18 1.32 16.65.91 5.44 2.36 5.9 7.23 3.65 5.17-2.39 10.42-4.65 15.51-7.2 13.06-6.55 23.24-16.51 31.94-27.98 3.47-4.57 5.1-10.18 5.36-16.01 1.3-28.96 2.56-57.92 3.83-86.88.33-7.59.66-15.18.99-22.82 4.23.39 8.23.56 12.17 1.18 5.09.8 8.73 5.16 8.15 11.38-.58 6.26-2.66 12.37-4.04 18.55-.48 2.15-1.13 4.33-1.17 6.51-.33 16.44-.98 32.9-.62 49.33.32 14.51 3.28 28.67 10.15 41.68 4.99 9.46 12.64 16.51 21.79 21.81 7.05 4.09 14.31 7.86 21.68 11.35 3.45 1.64 7.38 2.28 11.77 3.57 1.13-6 2.45-11.29 3.07-16.66 1.3-11.44 2.22-22.92 3.33-34.38.14-1.44.5-2.86.81-4.28 1.66-7.67 8.78-10.81 15.41-6.65 1.2.75 2.12 2.28 2.7 3.65 3.31 7.72 3.08 15.83 1.56 23.78-3.51 18.43-7.25 36.83-11.34 55.14-1.11 4.97.27 9.5.37 14.24.07 3.52.14 7.12-.52 10.55-1.61 8.34-4.11 16.52-5.38 24.9-1.39 9.15-1.65 18.46-2.73 27.66-.64 5.51-1.54 11.04-2.95 16.39-2.5 9.5-5.59 18.85-8.21 28.33-.93 3.37-2.59 5.98-5.07 8.41-12.19 11.94-25.77 21.72-41.73 28.11-20.39 8.16-40.8 7.72-61.34.82-2.22-.75-4.42-1.58-6.61-2.42-5.77-2.21-11.16-4.91-15.6-9.47-5.77-5.92-12.35-11.08-17.77-17.27-8.01-9.13-10.95-20.63-12.77-32.33-3.04-19.55-3.44-39.2-1.68-58.91.31-3.42.02-6.95-.41-10.37-1.06-8.35.55-16.5 1.46-24.71 2.2-19.9.98-39.8.22-59.7-.43-10.92-.74-21.87-1.1-32.71zm20.52 149.39c-.11 0-.21 0-.32 0 0 3.02.06 6.04-.01 9.05-.14 6.09.81 8.26 6.76 9.59 5.24 1.17 10.82 1.27 16.22 1.11 6.95-.2 13.97-1.14 20.51 1.73 3.42 1.5 6.6 1.41 10.07 1.03 4.53-.5 9.16-1.27 13.64-.81 6.53.66 12.9 2.71 19.43 3.45 13.95 1.59 27.88 1.63 41.6-2.2 2.04-.57 3.22-1.54 4.03-3.46 3.72-8.87 5.89-18.14 5.95-27.69.03-4.17-1.75-8.4-3.03-12.51-.72-2.33-2.73-3.2-5.24-3.39-11.82-.92-23.6-2.44-35.43-2.91-25.77-1.04-51.46-4.85-77.32-2.44-4.05.38-8.05 1.56-11.99 2.67-2.46.7-3.57 2.59-3.67 5.32-.26 7.17-.78 14.31-1.2 21.46zm57.19 39c-15.45 0-30.89-.01-46.34.01-4.65.01-6.68 2.36-5.9 6.81.23 1.31.46 2.65.91 3.9 4.26 11.62 14.46 17.79 23.28 25.22.31.26.85.26 1.27.4 11.35 4.03 23.11 6.05 35.05 7.2 9.52.92 19 1.07 28.25-1.84 7.11-2.24 14.04-5.17 18.72-11.17 4.53-5.8 8.26-12.22 12.38-18.35 1.79-2.67 1.04-5.01-1.13-6.83-1.41-1.18-3.23-2.23-5-2.56-6.14-1.12-12.32-2.52-18.52-2.69-14.31-.36-28.65-.1-42.97-.1zm78.76-86.54c.1-.59.2-.81.17-1.02-.07-.44-.18-.87-.31-1.3-2.24-7.58-7.36-12.79-13.71-17.15-10.58-7.27-21.42-14.26-31.35-22.33-6.2-5.05-12.62-9.07-20.04-11.79-1.86-.68-3.22-.59-4.87.64-17.43 12.9-34.9 25.75-52.45 38.49-1.85 1.34-2.28 2.83-1.39 4.46.61 1.1 2.04 2.22 3.26 2.45 12.3 2.28 24.62 4.42 36.96 6.51 13.39 2.27 26.7 5.71 40.47 2.95 5.27-1.06 10.39-.6 15.43 1.41 1.05.42 2.69.16 3.74-.38 4.81-2.48 9.84-3.36 15.21-2.97 2.96.21 5.96.03 8.88.03z" fill="#010100"/><g fill="#fcfbfa"><path d="m377.9 391.2c-.2.3-.4.5-.6.8-.7-.6-1.4-1-2.2-1.5.2-.3.4-.5.5-.8.6.4 1.4.8 2.3 1.5zm-1.8 6.1c-.2-.2-.5-.4-.9-.6.4-.6.8-1.2 1.2-1.9s.7-1.3.9-1.9c.3.3.5.5.8.7-.7 1.3-1.4 2.6-2 3.7zm2.2-9c-.3.3-.5.5-.6.8-.6-.6-1.3-1.1-2-1.5.3-.3.5-.5.6-.7.6.5 1.3.9 2 1.4zm.3.2v-.9h2 4.5c-.3 1.3-.6 2.5-1 3.6s-.9 2.1-1.4 3c.4.5 1 1 1.6 1.4s1.2.8 1.9 1.1c-.3.2-.5.4-.8.8-.4-.3-1-.7-1.6-1.2s-1.2-1.1-1.6-1.6c-.5.6-1.1 1.1-1.7 1.6s-1.4.9-2.1 1.4c-.1-.3-.3-.5-.7-.8.6-.2 1.2-.5 1.9-1s1.4-1.1 2-1.8c-.5-.8-.9-1.6-1.2-2.5s-.6-2-.8-3.2c-.4.1-.7.1-1 .1zm2.5 2.7c.3 1 .7 1.7 1 2.2.3-.5.6-1.1 1-2s.6-1.9.9-3h-3.2-.4c.1.9.3 1.8.7 2.8z"/><path d="m396.5 388.5v1.5 3.6h1.5v.9c-.4 0-1 0-1.7 0h-7.9c-.5 0-.9 0-1.2 0v-.9h1.3v-3.5c0-.7 0-1.2 0-1.6h2.4c0-.8 0-1.4 0-1.7h1c0 .3-.1.8-.1 1.7h1.5c0-.8 0-1.4 0-1.7h1c0 .3-.1.9-.1 1.7zm-8.2 9.2c-.2-.3-.5-.5-.8-.8.8-.3 1.4-.6 1.9-.9s1-.7 1.4-1.1c.3.3.6.5.9.8-1.6 1-2.8 1.6-3.4 2zm2.6-6.8v-1.6h-1.5v1.6zm0 2.7v-1.9h-1.5v1.9zm2.4-2.7v-1.6h-1.5v1.6zm0 2.7v-1.9h-1.5v1.9zm.2 2 .7-.8c.4.2.9.5 1.6.8s1.3.7 1.8 1c-.3.3-.5.5-.8.8-.4-.3-1.5-1-3.3-1.8zm2-4.7v-1.6h-1.4v1.6zm0 2.7v-1.9h-1.4v1.9z"/></g></svg>