<svg enable-background="new 0 0 400 400" viewBox="0 0 400 400" xmlns="http://www.w3.org/2000/svg"><g fill="#fbfafa"><path d="m37.59 393.81c-.92.31-1.52.05-2-.78-.7-1.2-1.52-2.34-2.47-3.78v4.59c-.55.03-.95.05-1.41.07-.03-.37-.06-.64-.06-.91 0-1.91 0-3.81 0-5.7 1.13-.41 1.77-.03 2.29.91.62 1.11 1.38 2.14 2.31 3.19v-4.2h1.35v6.61z"/><path d="m12.94 393.88v-6.75c1.9.19 3.93-.54 5.37 1.29.8 1.01.78 2.88.03 3.97-1.37 1.97-3.4 1.51-5.4 1.49m1.45-1.22c2.04.12 2.92-.58 2.89-2.21-.03-1.51-.98-2.19-2.89-2z"/><path d="m11.81 393.87h-5.49c.68-2.18 2.47-3.48 3.51-5.45h-3.08v-1.21h5.29c-.71 2.13-2.44 3.48-3.47 5.51.86 0 1.63.04 2.39-.01.79-.05 1.14.21.85 1.16"/><path d="m39.33 393.86v-6.61h3.7v1.07h-2.22v1.52c.68.04 1.34.09 2.07.13v1.07c-.72.05-1.38.09-2.1.14v1.48h2.4v1.19h-3.85z"/><path d="m27.71 388.56c-1.15-.3-2.46-.61-3.1.64-.37.73-.41 1.93-.06 2.67.63 1.35 1.99.93 3.17.68.35.94-.01 1.32-.93 1.46-1.62.25-3.05-.27-3.76-1.48-.73-1.24-.6-3.03.31-4.17.88-1.11 2.71-1.7 4-1.16.32.13.44.74.65 1.12-.1.08-.19.16-.28.24"/><path d="m49.15 387.24v1.07c-.59.02-1.17.05-1.87.08v5.44h-1.48v-5.44h-1.85c-.05-.4-.08-.73-.13-1.15z"/><path d="m20.06 387.21h1.33v6.62h-1.33z"/><path d="m30.68 393.25c-.49.38-.8.79-1.05.76-.32-.05-.6-.45-.9-.7.26-.24.51-.64.8-.67.29-.04.62.3 1.15.61"/></g><path d="m155.4 224.72c2.6-2.31 3.86-5 2.7-8.55-.66-2.01-.84-4.19-1.59-6.16-.81-2.12-1.79-4.25-3.12-6.06-2.59-3.49-3.27-7.46-3.92-11.59-.58-3.67-1.82-7.24-2.88-11.25-1.37.78-1.97 1.11-2.75 1.55-2.58-6.48-5.1-12.79-7.33-18.41 1.39-2.39 2.75-4.19 3.48-6.23.31-.86-.7-2.19-1.1-3.3-1.04.48-2.07.96-3.21 1.48-4.95-6.94-4.83-13.1-.12-15.2.57.99 1.06 2.04 1.72 2.98 3.67 5.22 7.26 10.49 11.1 15.58 4.45 5.91 7.73 12.23 8.62 19.7.13 1.07 1.17 2.56 2.12 2.9 2.24.79 2.68 1.92 2.5 4.21-.37 4.9 3.31 7.28 6.89 9.36 3.18 1.84 5.98.83 8.29-1.95 1.07-1.28 2.43-2.33 3.51-3.61.51-.61 1.1-1.65.91-2.28-2.11-7.07.64-13.7 1.64-20.49.17-1.18.35-2.6-.14-3.58-2.28-4.66-1.56-9.29-.6-14.08.46-2.3.08-4.76.08-7.59-1.09.66-1.6.98-2.31 1.41-.38-1.41-.71-2.66-.87-3.25 1.64-1.2 2.88-2.12 4.13-3.03-.11-.27-.21-.55-.32-.82-1.35-.17-2.7-.34-4.29-.54-.42-5.81-.77-11.58-1.29-17.34-.65-7.24-1.43-14.47-2.21-21.7-.34-3.13-1.24-6.41 3.14-7.34-6.63-9.81-8.16-20.59-9.39-31.71-.75-6.77 0-13.98-3.49-20.35-.78-1.41-.8-2.48.72-3.7.95-.77 1.27-2.44 1.62-3.77.35-1.32.38-2.73.65-4.99 3.2 4.87 5.89 8.95 8.57 13.03-.27.03-.55.06-.82.09 0 1.88-.37 3.84.06 5.62 2.88 12.06 6.38 24 8.77 36.15 1.87 9.51 2.45 19.28 3.57 28.94.4 3.43.68 6.88.92 9.33-1.48 1.77-2.92 2.76-3.23 4.03-.49 1.96-.04 3.75 2.5 4.69 1.2.44 2.31 2.41 2.59 3.85 2.51 12.83 4.87 25.68 7.11 38.56.24 1.39-.89 2.98-.83 4.46.11 2.51-.22 5.73 1.17 7.37 6.49 7.66 13.5 14.87 20.63 22.58.32-.16 1.37-.68 2.52-1.25 1.62 2.05 3.25 4.12 5.11 6.48.48-1.64.81-2.78 1.29-4.45 4.07 2.91 7.99 5.57 11.74 8.44 1.89 1.45 3.52 1.99 5.7.61.73-.46 1.99-.07 2.27-.07 4.6-5.12 9.24-10.04 13.6-15.21 2.71-3.21 5-6.79 7.45-10.17.48.85 1.13 2.01 1.99 3.55.53-1.04.9-1.78 1.27-2.51 4.08-8.07 8.06-16.18 12.31-24.16.83-1.57 2.67-2.61 4.07-3.87 4.08-3.68 9.54-5.84 12.02-11.39.45-1.01 3.27-.97 6.27-1.74-.92 4.25-1.01 7.81-2.46 10.69-2.96 5.88-6.62 11.4-10.09 17.02-.61.98-1.52 2.22-2.5 2.45-3.23.76-4.67 3.05-6.03 5.71-2.33 4.58-4.8 9.09-7.31 13.58-2.11 3.79-5 6.77-9.25 8.34-.34-2.13-.5-4.08-1.05-5.91-.17-.57-1.39-.82-2.9-1.64.72 4.47 1.31 8.14 1.86 11.55-2.5 3.72-5.32 7.33-7.48 11.3s-2.46 8.17.11 12.4c1.84 3.03 3.1 6.41 4.87 10.16.75-2.1 1.31-3.7 2.08-5.86.29 1.19.46 1.91.73 3 4.02-1.34 5.6 1.72 7.59 4.3 1.34 1.73 2.71 3.97 4.57 4.66 5.5 2.05 9.2 5.9 12.01 10.69 5.54 9.43 9.44 19.32 6.95 30.6-.37 1.7-1.12 3.31-1.8 5.29-1.01-2-1.82-3.61-2.64-5.22-.36.05-.73.1-1.09.15-.82 4.41-1.6 8.84-2.49 13.24-.46 2.29-.96 4.6-1.73 6.8-1.35 3.86-3.62 6.94-6.99 7.5-1.13 2.08-1.64 3.57-2.6 4.66-1.91 2.18-4.18 4.06-6.08 6.25-.81.94-.98 2.41-1.63 3.53-.46.8-1.22 1.44-1.88 2.11-2.88 2.9-6.13 5.51-8.59 8.73-5.63 7.37-10.87 15.03-16.08 22.31-1.86-.59-3.44-1.37-5.09-1.56-6.43-.75-7.55-1.66-9.19-8.09-.14-.54-.35-1.06-.25-.76-2.12-1.33-4.04-1.95-5.04-3.27-4.86-6.4-9.57-12.93-14.08-19.58-.9-1.33-.73-3.4-.62-5.26-5.04-5.39-12.76-9.6-8.5-19.76 1.56 2.23 4.92 2.63 4.69 6.14-.02.33 1.56.91 2.46 1.13 2.16.53 4.45.65 6.5 1.43 2.1.8 3.94 2.13 3.5 5.03-.11.76.48 2.15 1.11 2.42 4.47 1.88 6.54 6 9.1 9.58 3.1 4.35 6.48 8.25 11.88 10.4 4.2-4.55 9.6-8.56 12.28-13.92 2.07-4.14 4.58-6.04 8.17-8.05 1.68-.94 2.39-3.65 3.51-5.57.78-1.34 1.52-2.71 2.56-4.59.77 1.1 1.34 1.9 1.9 2.71.35-.01.69-.01 1.04-.02.41-2.35.81-4.69 1.42-8.2 6.04-5.93 9.64-13.7 13.6-30.91-5.23-.64-6.51-5.06-8.51-9.03-.91-1.8-2.51-3.41-4.14-4.67-4.5-3.5-10.09-6.03-13.57-10.31-4.58-5.62-10.89-8.42-16.13-12.82-4.21-3.53-8.1-2.62-12.26-.51-2.09 1.06-4.18 2.15-6.17 3.39-2.58 1.6-5.07 2.95-8.05-.41-.36 3.21-1.76 4.53-4.44 4.91-1.09.16-2.33 1.65-2.88 2.83-1.25 2.67-3.07 3.77-6.03 3.82-6.55.12-13.09.53-19.84.82.07-3.97-2.73-6.81-6.37-9.17-1.87-1.21-3.77-2.54-5.21-4.2-1.31-1.5-2.11-3.49-2.97-5.33-.6-1.28-.64-2.88-1.44-3.97-1.33-1.81-3.06-2.55-4.93-.38-.78.9-1.82 1.57-3.35 2.85.09-4.13-.81-7.2-4.29-8.76zm38.35-23.89c-4.13-2.63-5.43 1.15-7.27 3.25-.97-.53-1.69-.91-2.49-1.35-.28 1.22-.51 2.2-.73 3.16.62.31 1.18.59 2.08 1.03-3.59 3.09-6.2 6.35-4.87 10.98.67 2.32 2.05 4.42 3.03 6.65 1.31 2.96 2.55 5.95 3.84 8.98 1.01.61 2.31 1.46 3.68 2.19 1.4.75 2.8 1.76 4.31 1.99 2.41.36 4.9.21 7.36.18 3.53-.04 6.49-1.38 8.88-4.01 2.99-3.3 6.95-4.1 11.43-2.13.5-3.75 7.31-4.75 4.13-10.56-4.45 3.9-6.79-.62-9.72-2.1-3.26-1.65-7-3.21-6.7-8.05-3.35 1.6-15.87-6.42-16.96-10.21zm49.42 18.6c-.04.38-.07.75-.11 1.13 2.77-1.67 4.03-.46 4.75 1.82 1.01-.78 2.1-1.31 2.69-2.17.6-.89.71-2.11 1.03-3.18-1.03-.21-2.23-.85-3.05-.53-1.87.72-3.55 1.92-5.31 2.93zm13.21 113.5c-1.61 3-2.96 5.49-4.83 8.98 1.73-.85 3.85-1.46 3.83-1.96-.11-2.37 3.32-4.52 1-7.02zm40.7-40.05c.4-2.17.72-3.93 1.18-6.45-1.79 1.21-2.94 1.99-4.23 2.87.57.81 1.05 1.55 1.59 2.23.32.38.75.69 1.46 1.35zm-131.91-83.62c2.79-2.54 2.67-5.23 0-7.32zm118.14 51.41c1.3-1.99 2.46-3.77 3.62-5.55-4.9 1.94-5.13 2.36-3.62 5.55zm-96.01-113.13c.27.11.54.23.81.34.57-1.11 1.46-2.19 1.56-3.34.05-.63-1.24-1.38-2.37-2.52z" fill="#010000"/><path d="m155.43 224.71c.1 1.01-.13 2.24.37 2.98 2.8 4.17 2.68 7.75-.65 11.31-5.2 5.56-10.52 11-15.58 16.69-1.97 2.21-3.35 4.95-4.99 7.45.26.29.51.59.77.88-2.17 0-4.35 0-7.06 0 3.09 5.86-1.73 8.88-3.43 13.11-.79-.5-1.29-.82-1.84-1.17-.79 6.6-8.77 7.71-10.18 13.82-.44 1.91-1.84 3.57-2.57 5.43-1.64 4.19-1.27 4.49 2.43 6.89 2.24 1.45 4.35 3.4 5.87 5.59 3.34 4.81 5.47 10.51 11.26 13.34 1.67.82 1.29 5.38-.34 7.41 1.25 1.64 2.19 1.48 3.02-.4.58-1.3 1.27-2.54 2.21-4.41 3.18 5.22 8.31 8.42 9.31 14.5.14.83.97 1.72 1.71 2.23 2.03 1.38 4.13 2.68 6.3 3.83 3.46 1.82 6.55 3.8 6.43 8.39-.02.62.68 1.74 1.15 1.8 2.53.32 5.11.53 7.65.42.63-.03 1.2-1.4 2.03-2.44-1.36-.5-2.36-.86-2.52-.92.94-2.39 2.32-4.74 2.75-7.26.86-5.1 1.36-10.17 6.32-13.36.71-.46.84-2.11.92-3.23.19-2.67.07-5.36.31-8.02.21-2.27 1.56-3.57 3.97-3.75 2.78-.22 2.62 1.85 2.9 3.55.41 2.48 1.94 4.88.09 7.56-.41.59.78 2.28 1.52 4.24-1.64-.98-2.88-1.71-4.07-2.42-2.44 5.55-2.44 5.55 3.61 9.76-.63.58-1.22 1.11-1.82 1.65.3.04.6.08.9.13-.24 2.49-.02 5.12-.8 7.43-1.81 5.4-4.17 10.6-6.1 15.96-.34.94-.01 2.42.54 3.33 1.39 2.28-.51 7.78-3.3 8.15-2.36.32-4.91.15-7.23-.42-3.13-.77-6.13-2.08-9.14-3.28-.89-.35-1.76-1-2.38-1.73-5.68-6.73-11.31-13.51-16.96-20.27-.28-.34-.56-.78-.94-.92-6.26-2.41-8.29-8-10.26-13.62-.53-1.51-1.19-2.32-3.06-2.33-5.87-.04-6.95-1.34-6.62-7.2.02-.42-.04-.84-.09-1.71-4.22 1.43-6.08-1.44-7.68-4.25-4.06-7.13-10.59-11.31-17.44-15.19-1.52-.86-2.95-1.88-4.86-3.1 2.26-.79 4-1.42 5.75-2 4.14-1.38 6.46-4.14 6.87-8.57.1-1.08.69-2.55 1.53-3.06 9.51-5.7 15.4-14.79 21.99-23.22.75-.97 1.51-1.93 2.37-3.04.85.63 1.62 1.2 2.73 2.03.58-2.52 1.35-4.72 1.54-6.98.22-2.59 1.51-3.18 3.77-3 1.52.12 3.06.02 5.22.02-.82-1-1.27-1.55-1.7-2.08 1.26.28 2.51.55 4.76 1.04-.61-2.13-1.02-3.58-1.43-5.03-.41.02-.82.05-1.23.07-.67 1.33-1.34 2.67-2.01 4-.91-.57-1.81-1.14-2.11-1.32 2.29-3.89 4.73-7.32 6.43-11.09 2.07-4.59 5.1-8.03 9.33-10.64 1.42-.88 2.48-2.31 3.71-3.5.02-.05.05-.06.05-.06zm-55.51 72.85c-3.41 2.53-.01 4.79.16 7.07.05.67 1.1 1.57 1.85 1.79.61.18 1.98-.36 2.12-.83.26-.94.23-2.25-.26-3.05-1.01-1.68-2.4-3.14-3.87-4.98zm1.09-3.76c2.75 4.39 2.75 4.39 7.01 2.26-.31-1.79-.63-3.67-1.01-5.88-2.16 1.31-3.95 2.38-6 3.62zm20 30.34c.21.27.41.55.62.82 1.24-.88 2.57-1.67 3.62-2.73.14-.14-1.09-1.65-2.09-3.12-.99 2.31-1.57 3.67-2.15 5.03z" fill="#010000"/></svg>