<svg enable-background="new 0 0 400 400" viewBox="0 0 400 400" xmlns="http://www.w3.org/2000/svg"><path d="m378.6 9.2.8-1c.9.7 1.9 1.4 2.9 2.3l-.9 1.1c-1.1-.9-2-1.7-2.8-2.4zm.5 10.7c.9-2.1 1.6-4.3 2.3-6.7.4.2.8.4 1.3.6-.7 2.1-1.5 4.3-2.2 6.6zm.4-15.2.9-.9c1 .8 2 1.6 2.8 2.4l-1 1c-1-.9-1.9-1.8-2.7-2.5zm12.5-1.3h1.2v1.4h2.7v1.1h-2.7v2.7h-1.2v-.5h-1.8v1.3h4.9v3.8h-1.2v-.5h-3.7c0 .4-.1.9-.1 1.2h5.1v1h-5.2c0 .5-.1.9-.2 1.2h6v1h-5.2c1.1 1.3 2.9 2 5.5 2.2-.4.4-.7.8-.9 1.3-2.9-.5-4.8-1.6-5.7-3.5h-.1c-.8 1.7-2.7 2.9-5.9 3.6-.2-.4-.6-.8-.9-1.1 2.8-.6 4.6-1.4 5.4-2.5h-4.8v-1h5.3c.1-.3.2-.7.2-1.2h-4.9v-1h5c0-.4 0-.8.1-1.2h-3.6v.5h-1.2v-3.8h4.9v-1.3h-1.8v.5h-1.2v-2.7h-2.6v-1.1h2.6v-1.4h1.2v1.4h4.7v-1.4zm-6.7 8.4h3.6c0-.4 0-.9 0-1.4h-3.6zm1.9-4.7h4.7v-1.2h-4.7zm6.7 3.3h-3.7v1.4h3.7z" fill="#fcfafa"/><path d="m384.7 21.4h1.3v2.2h2.8v-2.2h1.3v2.2h4.1v9.1h1.7v1.3h-16.9v-1.3h1.7v-9.1h4.1v-2.2zm.3 13.2.7 1.2c-1.8.9-3.8 1.9-6 2.9-.2-.4-.5-.8-.8-1.3 2.4-1 4.4-2 6.1-2.8zm-3.1-6.5h2.8v-3.2h-2.8zm0 4.6h2.8v-3.3h-2.8zm4.1-4.6h2.8v-3.2h-2.8zm0 4.6h2.8v-3.3h-2.8zm3.6 1.9c2.1.9 4.1 1.8 6.1 2.7l-.7 1.3c-2.2-1.1-4.2-2-6.1-2.9zm3.3-9.7h-2.8v3.2h2.8zm-2.8 7.8h2.8v-3.3h-2.8z" fill="#fcfafa"/><g fill="#010000"><path d="m329.27 76.73c3.38 11.79 5.11 23.39 5.74 35.13 1.74 32.3-.14 64.4-5.76 96.28-1.36 7.71-2.24 15.5-3.58 23.21-.45 2.57-1.32 5.17-2.53 7.47-5.17 9.85-7.15 20.63-9.66 31.29-1.56 6.61-3.64 13.12-5.8 19.57-2.39 7.14-6.25 13.26-12.89 17.42-1.44.91-2.14 3.09-3.03 4.77-1.12 2.11-1.75 4.56-3.2 6.4-5.11 6.52-10.62 12.72-15.69 19.27-4.03 5.21-8.75 9.41-14.37 12.86-17.09 10.47-34.92 19.16-54.83 22.72-16.99 3.04-34.11 2.86-51.17.78-10.31-1.26-20.54-3.25-30.78-5.01-1.23-.21-2.35-1.06-3.5-1.64-2.68-1.35-5.26-2.95-8.05-4.02-4.14-1.59-7.76-3.68-10.83-7.01-5.47-5.92-11.02-11.8-17.01-17.18-6.04-5.42-8.21-12.35-9.27-19.87-.56-3.97-1-8.05-.76-12.04.51-8.52-.82-16.74-3.41-24.74-3.31-10.22-2.93-20.74-3.19-31.22-.28-11.41-.06-22.85-.72-34.23-.51-8.8-2.09-17.53-3.1-26.3-1.54-13.36-2.66-26.74-1.09-40.17.16-1.38 1.27-3.04 2.43-3.85 6.26-4.38 12.94-6.16 20.06-2 1.25.73 2.48 1.92 3.14 3.2 5.01 9.75 6.1 20.46 7.4 31.12 1.48 12.2.97 24.33-.66 36.47-.64 4.78.62 6.97 5.05 8.98 6.72 3.05 13.77 3.98 20.89 1.63 3.91-1.29 7.64-3.13 11.44-4.75 3.18-1.35 6.33-2.8 9.54-4.1 13.12-5.32 23.22-14.24 30.94-25.94.71-1.07.98-2.81.69-4.07-.72-3.13.06-5.85 1.09-8.75 4.66-13.11 8.43-26.41 7.84-40.57-.22-5.2-.94-10.12-3.42-14.85-1.16-2.21-1.8-5.16-1.46-7.6 1.57-11.46-1.4-22.45-3-33.58-2.04-14.16-4.97-28.25-3.64-42.68.37-3.98 1.47-7.89 2.19-11.84.38-2.07 1.6-2.65 3.58-2.49 1.89.15 3.85.3 5.7-.02 4.37-.75 7.07 1.43 8.24 5.12 1.87 5.92 3.96 11.95 4.55 18.07 1.97 20.26 7.35 39.77 12.12 59.42 4.85 19.98 9.85 39.93 14.63 59.93.72 3.01 2.1 4.86 4.92 6.11 11.23 4.96 23.15 7.22 35.23 7.49 10.85.24 21.62.78 32.42 1.82 8.2.79 18.9-6.38 22.26-13.85 4.46-9.91 5.11-20.06 3.8-30.79-2.17-17.76-3.44-35.63-5.27-53.44-.3-2.89.64-3.94 3.28-4.54 4.11-.93 8.16-2.19 12.5-3.39zm-43.5 173.88c-10.64 4.38-21.07 8.68-31.51 12.95-1.13.46-2.3.98-3.49 1.11-12.56 1.42-25.14 2.7-37.7 4.15-6.99.81-14.11 1.2-20.87 2.95-9.39 2.43-18.55 5.78-27.69 9.09-5.22 1.89-10.16 2.95-15.4.21-.87-.45-2.73-.11-3.49.57-1.6 1.46-3.12 1.81-5.16 1.31-2.27-.56-4.66-.68-6.93-1.23-11.31-2.75-21.73-.89-31.26 5.81-.79.56-2.1 1.42-2.02 1.99.57 4.36.33 9.33 2.4 12.91 5.61 9.65 12.24 18.71 18.51 27.97.66.98 1.53 2 2.55 2.52 13.35 6.91 27.22 11.75 42.61 11.04 7.93-.37 15.91-.31 23.85-.01 15.48.58 29.25-4.25 41.15-13.67 9.8-7.77 19.02-16.32 28.07-24.97 8.86-8.49 17.79-17 22.86-28.66 3.62-8.28 6.23-16.52 3.52-26.04zm-184.62 10.77c5.55-1.29 10.72-2.66 15.95-3.67 12.24-2.36 24.06-7.26 36.85-6.26 6.16.48 11.98-.5 17.5-3.37 4.35-2.26 8.88-2.93 13.89-2.37 4.11.46 8.4-.3 12.56-.9 6.03-.86 11.85-3.51 18.13-2.1 9.43 2.11 18.58.83 27.77-1.71 4.02-1.11 8.38-1.8 12.51-1.5 11.6.83 23.15 2.32 34.73 3.37 1.1.1 2.75-.74 3.41-1.66 2.8-3.91 4.98-8.29 8.02-11.97 3.9-4.73 4.09-9.11 2.16-14.93-1.84-5.51-5.21-7.3-10.1-7.99-1.76-.25-3.57-.28-5.35-.32-16.54-.35-33.11-.33-49.63-1.17-7.74-.4-15.45-2.21-23.06-3.91-2.49-.55-4.02-.37-5.94 1.19-14.5 11.79-29.07 23.49-43.67 35.15-1.15.92-2.66 1.74-4.09 1.9-20.89 2.37-41.8 4.62-62.7 6.92-.62.07-1.22.36-2.04.62 1.04 4.92 2.04 9.68 3.1 14.68z"/><path d="m250.85 294.31c-7.54 6.32-16.04 10.53-24.54 14.75-7.47 3.71-15.35 4.45-23.51 4.14-1.65-.06-3.72.36-4.94 1.37-12.06 9.93-26.52 11.67-41.29 12.32-9.81.43-19.47-.54-28.58-4.49-1.17-.51-2.37-1.92-2.73-3.15-.98-3.43-1.38-7.02-2.28-10.48-.57-2.21-.21-3.78 1.96-4.58 2.91-1.07 5.89-2.85 8.82-2.81 10.73.15 20.72-2.95 30.83-5.83 18.69-5.33 37.88-7.79 57.2-9.2 6.4-.47 12.91-.03 19.33.48 4.41.35 7.47 3.24 9.73 7.48z"/></g></svg>