<svg enable-background="new 0 0 400 400" viewBox="0 0 400 400" xmlns="http://www.w3.org/2000/svg"><g fill="#fbfafa"><path d="m37.59 393.81c-.92.31-1.52.05-2-.78-.7-1.2-1.52-2.34-2.47-3.78v4.59c-.55.03-.95.05-1.41.07-.03-.37-.06-.64-.06-.91 0-1.91 0-3.81 0-5.7 1.13-.41 1.77-.03 2.29.91.62 1.11 1.38 2.14 2.31 3.19v-4.2h1.35v6.61z"/><path d="m12.94 393.88v-6.75c1.9.19 3.93-.54 5.37 1.29.8 1.01.78 2.88.03 3.97-1.37 1.97-3.4 1.51-5.4 1.49m1.45-1.22c2.04.12 2.92-.58 2.89-2.21-.03-1.51-.98-2.19-2.89-2z"/><path d="m11.81 393.87h-5.49c.68-2.18 2.47-3.48 3.51-5.45h-3.08v-1.21h5.29c-.71 2.13-2.44 3.48-3.47 5.51.86 0 1.63.04 2.39-.01.79-.05 1.14.21.85 1.16"/><path d="m39.33 393.86v-6.61h3.7v1.07h-2.22v1.52c.68.04 1.34.09 2.07.13v1.07c-.72.05-1.38.09-2.1.14v1.48h2.4v1.19h-3.85z"/><path d="m27.71 388.56c-1.15-.3-2.46-.61-3.1.64-.37.73-.41 1.93-.06 2.67.63 1.35 1.99.93 3.17.68.35.94-.01 1.32-.93 1.46-1.62.25-3.05-.27-3.76-1.48-.73-1.24-.6-3.03.31-4.17.88-1.11 2.71-1.7 4-1.16.32.13.44.74.65 1.12-.1.08-.19.16-.28.24"/><path d="m49.15 387.24v1.07c-.59.02-1.17.05-1.87.08v5.44h-1.48v-5.44h-1.85c-.05-.4-.08-.73-.13-1.15z"/><path d="m20.06 387.21h1.33v6.62h-1.33z"/><path d="m30.68 393.25c-.49.38-.8.79-1.05.76-.32-.05-.6-.45-.9-.7.26-.24.51-.64.8-.67.29-.04.62.3 1.15.61"/></g><path d="m121.24 212.34c10.97 3.64 21.89 4.46 33 2.46 7.59-1.36 15.15-2.91 22.73-4.3 1.52-.28 3.12-.41 4.65-.24 10.73 1.21 21.4.81 32.12-.36 11.55-1.27 23.17-2.01 35.25-3.03.43-3.17 1.04-6.32 1.17-9.5.03-.76-1.37-1.84-2.33-2.34-10.43-5.39-20.95-10.6-31.33-16.08-2.93-1.54-6-3.33-8.12-5.77-7.16-8.27-14.13-16.71-20.74-25.43-3.85-5.08-11.62-5.88-15.38-.72-4.81 6.6-9.38 13.37-14.07 20.05-3.99 5.68-9.11 9.81-16.01 11.42-1.16.27-2.37.32-3.86.51.62-7.55 2.89-14.27 5.7-20.82 4.72-10.98 9.41-21.98 14.41-32.84 2-4.34 5.15-8.14 7.12-12.49 5.14-11.31 5.3-23.21 3.06-35.2-2.84-15.14-3.61-30.19 1.08-45.14.4-1.28.83-2.55 1.29-3.81.42-1.15.89-2.28 1.43-3.65 4.75 1.05 7.94 4.14 9.31 8.28 2.2 6.63 3.88 13.49 5.09 20.37 1.05 5.93 1.21 12.02 1.65 18.04.95 13.09-2.27 25.8-3.63 38.69-.12 1.11-.1 2.29-.47 3.31-2.89 7.92.69 12.94 6.45 18.28 12.3 11.41 23.67 23.84 37.74 33.21 4.63 3.08 9.54 5.74 14.61 8.76 3.31-7.61 4.13-15.04 4.35-22.51.25-8.61-.09-17.24.12-25.85.13-5.74 1.21-11.38 4.32-16.36 1.26-2.01 3.01-3.71 4.94-6.05 4.16 7.68 6.8 15.08 6.79 22.94-.02 9.26-1.17 18.5-1.57 27.76-.34 8.04-.42 16.1-.38 24.15.01 1.94.81 3.92 1.47 5.8 5.83 16.55 11.62 33.11 17.64 49.59 1.21 3.31 2.93 6.58 5.08 9.36 6.31 8.16 9.58 17.61 10.5 27.53 1.07 11.55.7 23.23.87 34.85.01.92-.54 1.91-1.02 2.77-2.58 4.71-5.09 9.46-7.86 14.05-1.79 2.96-2.92 5.91-2.67 9.45.08 1.13-.71 2.5-1.45 3.48-1.21 1.6-2.6 3.11-4.11 4.42-8.21 7.08-13.51 15.99-16.27 26.36-.7 2.64-.11 5.64-.11 8.51-4.65.63-7.73-1.13-10.31-4.79-6.47-9.18-9.23-19.47-10.01-30.48-.14-1.98-.39-4.01-1.01-5.88-2.93-8.9-6.01-17.75-9.03-26.59 2.07-1.79 3.3-1.14 4.66.77 6.29 8.85 12.7 17.61 19.07 26.39.7.97 1.45 1.9 2.35 3.07 7.23-11.02 12.43-22.62 14.04-35.44 1.13-8.96 1.25-18.05 1.59-27.09.05-1.23-1.01-2.78-1.99-3.72-4.86-4.65-10.63-6.56-17.42-5.7-3.2.4-6.49.22-9.73.04-5.45-.31-10.63.53-15.74 2.48-1.74.66-3.89.42-5.84.34-1.32-.05-2.7-.35-3.92-.85-10.23-4.18-20.02-1.09-30.04 1.26-18.62 4.38-37.5 4.08-56.38 1.73-4.98-.62-9.93-1.53-15.14-2.35-3.65 7.14-3.87 14.66-1.93 22.16 2.26 8.75 5.13 17.35 7.75 26.01.19.64.33 1.4.76 1.85 6.46 6.8 12.83 13.69 19.54 20.24 1.61 1.57 4.35 1.97 7.54 3.32 1.29-6.89 2.74-13.06 3.54-19.3 1.17-9.2 1.63-18.49 2.92-27.67.43-3.04 2.13-6.13 3.96-8.68 1.86-2.59 3.33-2.03 5.63.26 4.94 4.92 6.42 10.23 5.26 17.4-2.51 15.56-3.89 31.3-5.75 46.96-.08.66-.08 1.49-.47 1.93-3.86 4.44-4.55 10.06-6.05 15.42-.49 1.76-1.95 3.56-3.46 4.66-3.49 2.55-5.29 2.16-6.6-1.92-3.26-10.11-9.54-17.09-19.64-20.52-3.08-1.05-4.59-2.79-3.35-6.2.78-2.13-.06-3.64-2.19-4.47-8.52-3.32-13.05-9.65-15.72-18.37-3.37-10.98-7.94-21.6-12.17-32.3-2.15-5.44-2.14-10.91-.98-16.47.55-2.62 1.27-5.21 2.02-7.79 1.73-5.98 2.74-11.93.39-18.03-.48-1.26-.6-2.95-.19-4.22 3.02-9.28 3.49-18.85 3.77-28.49.4-13.86 1.57-27.73-.36-41.57-.26-1.88-.37-3.8-.8-5.64-.55-2.4-.76-4.52 1.44-6.37.46-.38.26-2.21-.25-2.96-1.57-2.3-2.32-4.63-1.02-7.21 2.67-5.3 2.38-10.53.68-16.13-1.72-5.64-2.75-11.52-3.72-17.36-1.06-6.38 2.04-9.49 8.51-9.2 1.9.09 2.99.65 3.63 2.62 6.24 19.02 10.53 38.4 10.67 58.51.04 5.46-.84 10.93-1.07 16.4-.07 1.59.37 3.33 1.03 4.79 1.11 2.45 2.97 3.27 5.4 1.45.44-.33 1.01-.88 1.43-.8 1.2.21 2.77.35 3.39 1.15.5.65.25 2.54-.37 3.29-1.78 2.14-3.81 4.1-5.93 5.92-3.65 3.18-5 7.21-4.95 12.23zm147.31 37.73c-.22-8.28-3.13-15.59-7.49-22.3-4.24-6.54-8.5-7.91-15.93-5.82-1.72.48-3.48.86-5.14 1.51-3.68 1.45-7.37 1.76-11.05.27-3.79-1.53-7.45-.79-11.1.34-10.65 3.29-21.44 5.37-32.62 3.61-6.69-1.05-13.11-.06-19.48 1.88-6.49 1.97-13.05 2.89-19.82 1.64-2.74-.51-5.53-.76-8.3-1.12-6.29-.82-12.21-.03-17.64 3.59-1.74 1.16-2.01 2.21-1.31 4.1 1.74 4.71 3.4 9.46 4.83 14.27.66 2.21 1.94 3.07 4.02 3.15 4.58.18 9.18.72 13.73.44 19.29-1.22 38.6-2.36 57.84-4.15 17.03-1.59 33.93-3.96 51.03-.31 5.97 1.28 12.21.81 18.43-1.1z" fill="#010000"/></svg>