<svg enable-background="new 0 0 400 400" viewBox="0 0 400 400" xmlns="http://www.w3.org/2000/svg"><g fill="#010101"><path d="m76.98 106.4c4.55-1.34 9.1-2.71 13.66-4.03 8.69-2.52 17.3-5.42 26.13-7.38 5.71-1.26 11.73-1.33 17.62-1.58 15.2-.65 30.4-1.1 45.6-1.64.43-.02.86-.15 1.6-.29 3.13-22.06 6.27-44.15 9.43-66.47 5.31 1.76 8.32 5.42 9.41 10.1 1.36 5.83 2.28 11.86 2.54 17.84.46 10.6-.32 21.27 2.23 31.73.08.33.11.66.18.99.89 3.99 2.52 6.28 7.4 6.88 27.41 3.39 54.75 7.31 82.12 11.06 6.86.94 13.72 1.91 20.66 3.38-6.01.87-12.03 1.76-18.04 2.62-27.79 3.97-55.57 7.96-83.37 11.83-2.22.31-3.02 1.32-3.51 3.24-1.5 5.9-.82 11.66 1.73 17.03 5 10.5 10.41 20.75 18.32 29.52 6.14 6.81 11.72 14.12 17.64 21.12 5.12 6.05 11.33 10.74 19.07 14.78.35-3.72 1.1-7.1.9-10.42-.79-13.39-2.07-26.75-2.75-40.14-.38-7.45-.15-14.96.25-22.41.15-2.78 1.57-5.49 2.41-8.23h.97c1.55 4.82 3.16 9.61 4.62 14.45 7.87 26.08 13.31 52.66 15.92 79.79 2.52 26.15 2.66 52.33-1 78.38-1.99 14.15-5.02 28.15-7.48 42.24-.51 2.89-1.8 5.02-4.04 6.98-17.57 15.38-38.05 23.91-61.14 26.57-26.16 3.01-51.54-.01-76.06-9.67-1.76-.69-3.49-2-4.71-3.46-20.43-24.34-28.88-52.93-28.88-84.18 0-41.18.58-82.36.93-123.53.01-.98.13-2.04.51-2.93 3.41-8.13 6.9-16.23 10.6-24.9 3.01 5.21 4.62 10.47 4.78 15.82.32 10.26-.17 20.54-.19 30.81-.01 7.26-.02 14.53.38 21.78.29 5.24 3.14 7.32 7.85 5.37 8.48-3.52 16.77-7.89 22.45-15.3 10.48-13.68 20.27-27.9 26.49-44.15 2.7-7.05 4.78-14.34 7.28-21.96-37.28-3.75-73.85-7.43-110.42-11.11-.03-.19-.06-.36-.09-.53zm47.31 106.1c.1 1.06.12 1.61.2 2.15 3.47 22.64 4.29 45.39 2.99 68.26-1.36 24.05 5.69 45.43 21.1 63.99.81.97 1.93 2.03 3.08 2.32 17.91 4.57 35.88 8.5 54.61 6.96 19.15-1.58 37.15-6.51 53.31-17.2 1.11-.73 2.21-1.98 2.59-3.21 3.83-12.42 6.48-25.11 7.54-38.08 2.18-26.73 2.07-53.4-2.03-79.98-.33-2.16-1.2-3.24-3.22-4.08-12.8-5.29-25.58-10.65-38.28-16.17-2.27-.99-4.48-2.52-6.19-4.31-8.43-8.8-16.68-17.77-25.03-26.73-23.01 16.32-42.54 37.59-70.67 46.08z"/><path d="m144.26 295.3c4.63.66 7.42-2.38 10.65-4.65 4.62-3.24 10.06-4.12 15.57-4.56 13.9-1.11 27.7-3.49 41.78-1.92 15.4 1.72 30.64 3.73 44.61 11.05.78.41 1.54.86 2.44 2.16-8.05 2.01-16.02 4.41-24.16 5.95-19.43 3.67-39.01 5.23-58.73 2.49-10.7-1.49-20.94-4.55-30.56-9.55-.55-.3-1.07-.65-1.6-.97z"/><path d="m249.1 237.51c-10.77 2.62-20.72 5.48-30.84 7.4-14.42 2.73-29 3.97-43.67 1.76-10.34-1.56-20.17-4.63-29.98-9.77 10.67-3.54 20.93-6.51 30.86-10.37 10.35-4.02 20.97-2.71 31.48-2.55 8.43.13 16.93 1.15 25.23 2.68 6.41 1.17 11.92 4.74 16.92 10.85z"/></g><path d="m6.4 11.7c-1-.8-1.9-1.6-2.9-2.3l.6-.7c.9.7 1.9 1.4 2.9 2.2zm-2.1 8.3c.7-2.1 1.4-4.2 2-6.4.2.1.6.3 1 .4-.7 2.3-1.3 4.4-1.9 6.4zm3-12.8c-1.1-.9-2.1-1.7-2.9-2.4l.6-.7c1 .8 2 1.5 3 2.4zm1.4-1.3v-.9h10.2v.9c-.9 4.2-2.3 7.3-4.1 9.4 1.3 1.4 3.2 2.7 5.7 4-.2.2-.4.5-.7.9-2.5-1.4-4.4-2.7-5.7-4.2-1.4 1.5-3.5 3-6.1 4.4 0 0 0 0-.1-.1-.3-.4-.5-.7-.7-.8 2.7-1.3 4.7-2.8 6.2-4.2-1.8-2.2-3-5.3-3.7-9.4zm9.2 0h-7.1c.6 3.8 1.7 6.7 3.4 8.7 1.7-2 2.9-4.8 3.7-8.7z" fill="#fbfafa"/><path d="m31.6 3.6h.9v2.3h4.1v9.1h1.7v.9h-16.6v-.9h1.7v-9.1h4.1v-2.3h.9v2.3h3.1v-2.3zm-4 13.3.6.8c-1.9.9-3.8 1.9-5.8 2.8-.2-.3-.3-.6-.5-.9 2-.9 3.9-1.8 5.7-2.7zm-3.2-10.1v3.7h3.1v-3.7zm0 4.5v3.7h3.1v-3.7zm4.1-4.5v3.7h3.1v-3.7zm0 4.5v3.7h3.1v-3.7zm9.1 9.1c-2.1-1.1-4.1-2-5.8-2.7l.5-.8c2.2.9 4.1 1.8 5.8 2.6zm-1.9-13.6h-3.1v3.7h3.1zm-3.2 4.5v3.7h3.1v-3.7z" fill="#fbfafa"/></svg>