<svg enable-background="new 0 0 400 400" viewBox="0 0 400 400" xmlns="http://www.w3.org/2000/svg"><path d="m100.92 240.51c8.02-1.53 14.81-2.81 21.61-4.11 14.49-2.77 27.61-9.05 40.09-16.52 8.7-5.2 16.62-11.7 25.08-17.31 3.78-2.51 7.99-4.4 12.12-6.32 4.13-1.93 7.07-4.66 7.64-9.38.1-.86.15-1.79-.08-2.6-2.12-7.52-4.3-15.01-6.58-22.89-7.54 2.15-14.93 4.18-22.27 6.38-8.66 2.6-17.14 5.97-25.93 7.9-14.62 3.2-29.42 5.64-44.19 8.11-4.48.75-9.13.78-13.69.68-4.49-.1-8.49-1.73-11.53-5.98 2.05-.65 3.89-1.25 5.73-1.82l90.24-28.05c1.07-.33 2.12-.69 3.17-1.07 10.91-3.88 12.97-12.1 5.3-20.96-2.42-2.79-4.65-5.75-7.15-8.46-1.73-1.87-3.58-3.75-5.71-5.09-4.48-2.82-9.25-4.3-14.6-2.13-8.07 3.28-16.31 6.14-24.3 9.59-11.65 5.04-23.93 7.15-36.41 8.5-3.72.4-5.48-.88-7.21-5.01 1.04-.52 2.09-1.08 3.17-1.57 12.29-5.63 24.73-10.96 36.84-16.96 8.18-4.05 15.96-8.93 23.8-13.64 13.02-7.81 26.04-15.65 38.89-23.75 6.54-4.12 11.59-9.77 14.78-17.19-5.33-3.63-11.13-5.85-17.46-6.32-5.88-.44-11.83-.11-17.7-.62-8.91-.77-14.39-6.33-18.47-14.36 5.87-.63 11.39-1.23 16.92-1.82 5.78-.61 11.56-1.38 17.36-1.73 3.51-.21 7.17-.23 10.57.5 13.31 2.89 26.61 5.9 39.81 9.28 13.78 3.53 26.38 9.78 37.97 18 13.84 9.83 17.62 23.69 11.51 41.36-2.52 7.3-5.98 13.73-12.45 18.55-6.27 4.67-12.17 9.91-17.75 15.38-7.02 6.88-16.03 10.04-24.57 14.07-3.56 1.68-5.22 4.14-5.24 7.7-.02 3.32.37 6.67.9 9.96.73 4.52 1.62 9.02 2.78 13.44.36 1.36 1.57 2.97 2.81 3.56 5.71 2.69 11.9 2.7 18.08 2.63 5.47-.07 10.95-.09 16.42.08 14.8.46 24.34 8.76 31.06 21.13 4.95 9.1 7.03 19.03 8.22 29.18 1.71 14.6 2.97 29.3.1 43.8-1.92 9.71-5.29 19.14-8.18 28.65-2.44 8.01-4.95 16.02-7.79 23.89-1.5 4.16-3.35 8.32-5.78 11.99-5.55 8.39-11.34 16.64-17.43 24.64-5.09 6.69-10.17 9.91-16.27 11.19.35-2.89.11-5.78 1.1-8.15 3.85-9.26 8.04-18.38 12.21-27.5 4.82-10.55 10.5-20.78 14.45-31.65 6.58-18.09 7.45-37.13 7.2-56.25-.19-14.53-3.51-28.33-8.69-41.76-1.66-4.31-5.99-5.22-9.84-5.86-3.91-.65-7.99-.48-11.98-.32-5.58.22-11.17.65-16.72 1.28-1.42.16-3.42 1.1-3.93 2.23-1.7 3.81-4.12 7.9-4 11.81.72 22.87-5.05 44.82-8.96 67.01-.9 5.13-4.24 9.79-6.17 14.78-2.8 7.27-5.3 14.66-7.99 21.98-3.77 10.27-7.41 20.59-11.45 30.75-2.26 5.69-6.22 10.06-12.37 11.95-3.44 1.06-4.74.54-4.8-3.07-.06-3.58 0-7.63 1.54-10.71 12.16-24.25 15.6-50.67 19.87-76.92 1.69-10.35 3.86-20.63 5.69-30.96.96-5.44.67-10.68-3.2-15.2-1.54-1.8-2.77-2.26-5.07-.95-11.38 6.45-22.63 13.21-34.43 18.78-7.58 3.57-15.92 5.89-24.15 7.65-10.93 2.34-21.25-1.07-31.16-5.56-2.54-1.15-5.06-2.4-7.42-3.87-1.29-.84-2.23-2.21-3.96-3.97zm86.3-141.66c13.91 4.88 23.59 14.18 31.72 25.37.45.61 2.25.87 3.04.5 4.12-1.97 8.61-3.61 12.06-6.46 8.43-6.96 16.35-14.53 24.49-21.83 5.3-4.76 7.99-10.95 9.58-17.68 1.72-7.25-.59-12.77-7.46-15.7-4.63-1.98-9.83-2.63-14.78-3.85-4.57-1.13-7.96.55-11.33 3.78-13.6 13.02-28.09 24.93-44.73 33.96-.66.36-1.22.9-2.59 1.91z" fill="#010104"/><g fill="#fcfbfa"><path d="m385.2 377.6.6-.7c.6.4 1.3.9 1.9 1.5l-.6.7c-.8-.5-1.4-1-1.9-1.5zm.3 7.1c.6-1.4 1.1-2.9 1.5-4.5.3.1.6.3.9.4-.5 1.4-1 2.9-1.5 4.4zm.2-10.1.6-.6c.7.5 1.3 1.1 1.9 1.6l-.7.7c-.6-.6-1.2-1.2-1.8-1.7zm8.4-.8h.8v.9h1.8v.7h-1.8v1.8h-.8v-.3h-1.2v.9h3.3v2.6h-.8v-.4h-2.5c0 .3 0 .6-.1.8h3.4v.7h-3.5c0 .3-.1.6-.1.8h4v.7h-3.5c.7.9 1.9 1.3 3.6 1.5-.2.2-.4.5-.6.9-1.9-.3-3.2-1.1-3.8-2.3-.5 1.1-1.8 2-3.9 2.4-.2-.3-.4-.5-.6-.8 1.9-.4 3.1-.9 3.6-1.7h-3.2v-.7h3.5c.1-.2.1-.5.2-.8h-3.3v-.7h3.4c0-.2 0-.5 0-.8h-2.4v.3h-.8v-2.6h3.3v-.9h-1.2v.3h-.8v-1.8h-1.8v-.7h1.8v-.9h.8v.9h3.2zm-4.4 5.5h2.4c0-.3 0-.6 0-.9h-2.4zm1.2-3.1h3.2v-.8h-3.2zm4.4 2.2h-2.4v.9h2.5v-.9z"/><path d="m389.2 385.8h.9v1.5h1.9v-1.5h.9v1.5h2.7v6h1.1v.9h-11.3v-.9h1.1v-6h2.7zm.2 8.7.5.8c-1.2.6-2.5 1.3-4 1.9-.2-.3-.3-.6-.6-.8 1.6-.6 3-1.3 4.1-1.9zm-2-4.3h1.9v-2.1h-1.9zm0 3.1h1.9v-2.2h-1.9zm2.7-3.1h1.9v-2.1h-1.9zm0 3.1h1.9v-2.2h-1.9zm2.4 1.3c1.4.6 2.7 1.2 4.1 1.8l-.5.9c-1.5-.7-2.8-1.4-4.1-1.9zm2.2-6.5h-1.9v2.1h1.9zm-1.9 5.2h1.9v-2.2h-1.9z"/></g></svg>