<svg enable-background="new 0 0 400 400" viewBox="0 0 400 400" xmlns="http://www.w3.org/2000/svg"><path d="m374.8 390.4.4-.4c.7.5 1.3 1 1.8 1.4l-.5.5c-.5-.6-1.1-1.1-1.7-1.5zm1 7.3-.6-.3c.5-1.4 1.1-2.8 1.5-4.3.2.1.4.2.6.3-.5 1.3-1 2.8-1.5 4.3zm-.4-10.3.4-.4c.4.3 1 .8 1.7 1.4l-.5.5c-.4-.5-1-1-1.6-1.5zm2.5.3h1.7v-1h.6v1h3.5v-1h.6v1h1.8v.5h-1.8v1.4h-2v1h3.2v2h-3.2v.9h3.3v.5h-3.4c0 .3-.1.6-.1.9h4v.5h-3.7c.7.9 1.9 1.5 3.8 1.7-.1.2-.2.4-.3.6-2.1-.4-3.5-1.1-4-2.1-.4 1-1.8 1.7-4 2.2-.1-.2-.2-.4-.3-.6 2.1-.4 3.4-1 3.8-1.8h-3.4v-.5h3.6c.1-.3.1-.6.2-.9h-3.3v-.5h3.4c0-.3 0-.6 0-.9h-3.2v-2h3.3v-1h-2.1v-1.4h-1.7v-.5zm1.1 3.5v1h2.7c0-.3 0-.4 0-.4 0-.1 0-.2 0-.2 0-.1 0-.2 0-.3h-2.7zm1.2-3v.9h3.5v-.9zm4.7 3h-2.6v.6.4h2.6z" fill="#fbfcfa"/><path d="m393.6 386.7h.6v1.5h2.7v6.1h1.1v.6h-11v-.6h1.1v-6.1h2.7v-1.5h.6v1.5h2.1v-1.5zm-2.7 8.8.4.6c-1.2.6-2.5 1.3-3.8 1.9-.1-.2-.2-.4-.3-.6 1.2-.6 2.5-1.2 3.7-1.9zm-2.2-6.7v2.4h2.1v-2.4zm0 3v2.5h2.1v-2.5zm2.8-3v2.4h2.1v-2.4zm0 3v2.5h2.1v-2.5zm6 6.1c-1.4-.7-2.7-1.3-3.9-1.8l.3-.6c1.5.6 2.7 1.2 3.9 1.7zm-1.2-9.1h-2.1v2.4h2.1zm-2.1 3v2.5h2.1v-2.5z" fill="#fbfcfa"/><path d="m189.48 118.67c-3.77.56-6.8.66-9.61 1.49-6.96 2.07-13.84 4.42-20.68 6.84-.82.29-1.82 1.77-1.74 2.6.38 3.76 1.02 7.49 1.75 11.2.41 2.07 1.33 4.04 1.79 6.1.54 2.41.53 4.85-2.3 5.92-2.59.98-4.86.83-6.73-1.8-5.22-7.36-9.61-15.1-11.36-24.06-.38-1.95-.11-4.03-.44-5.99-.37-2.23-.83-4.49-1.68-6.57-1.07-2.65.55-10.62 2.83-12.3 1.26-.93 2.54-1.82 4.11-2.95 2.72 3.42 5.12 6.9 5.49 11.26.3 3.53 2.22 5.19 5.4 5.85 3.55.73 6.8.51 10.39-.91 9.03-3.56 18.29-6.59 28.24-6.47 5 .06 6.11-1.34 5.57-6.32-.62-5.79-1.36-11.56-1.83-17.36-.15-1.83-.92-2.51-2.55-2.83-1.86-.37-3.67-1.06-5.54-1.35-9.76-1.48-16.86-7.49-23.4-14.13-5.18-5.27-5.85-12.3-6.2-19.56 1.74-.35 3.32-.68 5.1-1.04.52 1.69 1.01 3.14 1.42 4.62 3.16 11.23 16.17 21.97 27.88 23.06 2.32.22 4.55.32 5.59-2.38.98-2.55-.28-4.41-2.19-5.76-5.57-3.93-11.04-8.06-16.91-11.47-7.89-4.58-14.37-10.25-17.73-18.92-.84-2.17-1.4-4.46-1.94-6.74-.61-2.58 1.35-4.5 3.73-3.39 1.54.72 2.75 2.37 3.82 3.82 2.09 2.84 3.73 6.03 5.99 8.72 7.29 8.67 16.63 14.88 25.93 21.11.83.55 1.73 1.03 2.66 1.39 5.65 2.17 5.65 2.16 5.65 8.34 0 3.81-.12 7.62.04 11.42.14 3.36.05 6.52-3.84 8.63 5.12 4.62 5.68 10.44 5.57 16.47-.01.77.12 1.59.4 2.3 4.4 11.04 4.96 22.9 7.36 34.36 1.18 5.66 3.33 11.12 4.9 16.71.75 2.67 1.67 5.45 1.62 8.17-.1 5.88 1.62 11.1 3.85 16.45 2.46 5.93 3.57 12.42 5.98 18.38 2.28 5.63.53 11.76 3.65 17.48 2.86 5.25 3.47 11.72 5.08 17.66 1.63 6.04 3.5 12.03 4.84 18.13 1.07 4.88 1.84 9.89 2.12 14.87.25 4.41.74 8.6 2.7 12.64.59 1.21.1 3.05-.17 4.56-.54 3.02-1.34 6-1.92 9.02-.77 4-.74 8.31-2.27 11.98-4.2 10.1-8.62 20.15-13.76 29.79-3.17 5.94-7.83 11.09-11.79 16.61-3.25 4.54-6.49 9.08-9.65 13.68-2.23 3.25-4.95 5.73-10.11 6.65.99-2.4 1.69-4.2 2.47-5.96.36-.81 1.11-1.48 1.34-2.31 3.76-13.82 10.82-26.09 18.15-38.18 5.89-9.72 9.33-20.24 11.63-31.25.54-2.57-.55-3.8-2.7-3.81-2.62-.01-5.36.25-7.84 1.04-12.09 3.85-24.41 6.24-37.03 7.63-3.99.44-7.77 2.98-12.15 3.17-.89.04-2.39 2.99-2.35 4.57.2 8.48.83 16.96 1.21 25.44.04.91-.53 1.86-.81 2.79-1.03-.39-2.39-.49-3.03-1.23-3.67-4.18-4.11-9.52-4.95-14.71-.3-1.87-.5-3.81-1.15-5.56-3.45-9.2-3.75-18.85-3.64-28.44.03-2.51 2.19-5.21 3.97-7.32.43-.51 3.89.48 4.83 1.67 1.92 2.42 3.04 5.37 1.91 8.77-1.85 5.58.42 8.15 6.06 6.65 11.98-3.19 23.91-6.62 35.84-10 2.11-.6 2.42-2.92.93-4.64-1.18-1.36-2.05-2.99-3.01-4.53-.35-.56-.39-1.46-.86-1.79-5.31-3.74-6.65-10.5-11.29-14.74-.56-.52-1.08-1.2-1.34-1.91-4.46-11.79-8.93-23.58-13.25-35.42-.75-2.06-.92-4.37-1.13-6.59-.89-9.31-4.87-18.16-4.04-27.72.04-.42-.09-.92-.3-1.28-5.06-8.66-3.95-18.46-3.49-27.52.57-11.14 2.63-22.45 7.5-32.88 1.3-2.8 2.03-5.86 3.41-9.92zm9.68-3.23c-2.35 4.44-4.52 8.5-6.65 12.6-.3.58-.41 1.28-.54 1.93-1.14 5.7-2.46 11.38-3.33 17.12-.98 6.46-1.59 12.98-2.26 19.48-.09.83.39 1.72.65 2.58 1.96 6.41 4.37 12.71 5.8 19.23 2.69 12.31 3.3 25.07 7.97 36.96.41 1.03 1.24 2.38.9 3.15-1.68 3.75.99 5.78 2.79 8.23.65.89 1.43 1.83 1.68 2.86 3.81 15.42 15.92 26.93 19.91 42.28.28 1.07 2.15 2.73 2.79 2.53 3.68-1.13 8.07-.31 10.94-3.66.38-.44.4-1.29.39-1.95-.04-3.02.11-6.06-.28-9.04-1.26-9.72-5.55-18.91-5.04-28.96.05-.92-.66-1.88-1.03-2.81-1.99-5.1-3.91-10.23-6.01-15.28-2.03-4.9-.69-10.88-4.85-15.1-.19-.2-.12-.65-.19-.98-.79-3.95-1.63-7.88-2.32-11.85-.18-1.04.13-2.15.11-3.23-.03-1.57.26-3.3-.31-4.67-3.65-8.72-8.75-16.96-8.35-26.94.02-.53-.32-1.07-.43-1.61-2.57-12.91-7.62-25.28-8.3-38.61-.11-2.51-1.76-4.01-4.04-4.26z" fill="#010101"/></svg>