<svg enable-background="new 0 0 400 400" viewBox="0 0 400 400" xmlns="http://www.w3.org/2000/svg"><path d="m362.1 8.8c1.1.8 2.1 1.6 3.1 2.4l-1 1.1c-1.3-1.1-2.3-2-3-2.5zm1.9 4.8c.5.2.9.4 1.4.5-.6 2.3-1.3 4.5-1.9 6.8l-1.5-.5c.8-2.1 1.4-4.3 2-6.8zm-1-9.4c1.3.9 2.4 1.8 3.4 2.5l-1 1.1c-1.4-1.2-2.4-2.1-3.2-2.6zm3.7 2.2v-1.4h10.3v1.2c-.5 3.6-1.8 6.8-4 9.4 1.5 1.6 3.4 2.8 5.7 3.8-.3.4-.7.8-1.1 1.4-2.3-1.1-4.1-2.5-5.6-4.1-1.6 1.6-3.6 3.1-5.9 4.3-.3-.5-.7-.9-1-1.3 2.4-1.1 4.4-2.5 6-4.1-1.9-2.5-3-5.6-3.3-9.3h-1.1zm8.8 0h-6.4c.3 3.3 1.3 6 3 8.2 2-2.3 3.1-5.1 3.4-8.2z" fill="#fbfcfa"/><path d="m385.3 3.8h1.3v2.2h2.8v-2.2h1.3v2.2h4.1v9.1h1.7v1.3h-16.9v-1.3h1.7v-9.1h4.1v-2.2zm.4 13.1.7 1.2c-1.8.9-3.8 1.9-6 2.9-.2-.4-.5-.8-.8-1.3 2.3-1 4.3-1.9 6.1-2.8zm-3.1-6.4h2.8v-3.2h-2.8zm0 4.6h2.8v-3.3h-2.8zm4-4.6h2.8v-3.2h-2.8zm0 4.6h2.8v-3.3h-2.8zm3.7 1.9c2.1.9 4.1 1.8 6.1 2.7l-.7 1.3c-2.2-1.1-4.2-2-6.1-2.9zm3.2-9.7h-2.8v3.2h2.8zm-2.8 7.8h2.8v-3.3h-2.8z" fill="#fbfcfa"/><path d="m237.78 347.14c2.98-9.1 6.33-17.99 8.8-27.13 4.92-18.22 9.96-36.45 13.81-54.92 3.56-17.1 2.99-34.55.32-51.8-1.49-9.58-3.35-19.15-5.82-28.53-2.56-9.73-11.3-17.84-20.78-20.48-.4 9.55-.82 19.04-1.19 28.53-.55 14.09-.47 28.24-1.76 42.27-1.34 14.56-3.74 29.03-6.12 43.47-4.4 26.71-13.08 52.23-22.52 77.48-1.62 4.34-4.1 8.43-6.65 12.33-2.16 3.29-5.44 5.43-10.01 6.37 2.8-8.57 5.02-16.76 8.13-24.6 7.23-18.21 9.39-37.42 12.02-56.57 3.41-24.82 7.5-49.57 10.21-74.47 1.54-14.17 1.59-28.61.98-42.87-.46-10.85-7.84-11.91-16.23-7.95-.74.35-1.38 1.45-1.59 2.32-4.83 20.61-8.21 41.47-10.14 62.55-1.32 14.37-1.74 28.85-3.48 43.16-3.36 27.67-15.55 51.09-35.76 70.31-.23.21-.53.34-1.28.8 1.37-3.64 2.55-6.85 3.78-10.05 5.18-13.46 10.12-27.01 15.64-40.32 3.11-7.49 4.74-15.16 4.9-23.12.37-18.45.66-36.91.61-55.37-.04-17.08 1.12-33.99 5.35-50.59.39-1.51 1.31-3.09 2.44-4.17 9.52-9.15 19.13-18.23 28.77-27.25 1.44-1.34 2.16-2.57 1.7-4.63-2.38-10.7-4.75-21.4-6.85-32.15-.6-3.07-2.27-4.42-4.94-4.2-5.86.49-11.68 1.36-17.52 2.1-.66.08-1.28.47-1.93.54-10.72 1.09-15.75 8.49-19.64 17.37-3.47 7.93-4.48 16.36-5.4 24.81-3.59 32.97-8.64 65.62-19.39 97.18-9.02 26.47-26.16 45.35-51.67 57.24.34-4.15 1.02-7.56 4.06-10.67 18.61-19.04 30.51-42 38.76-67.08 8.31-25.29 12.01-51.36 13.31-77.81.64-13.12 3.07-25.77 8.46-37.72 1.27-2.82 3.76-5.25 6.09-7.42 9.39-8.75 20.79-13.38 33.31-15.33 8.27-1.29 16.68-1.85 24.87-3.49 13.29-2.66 22.52-12.92 23.38-24.63-47.27-1.67-94.56-3.33-141.85-5-.07-.48-.15-.97-.22-1.45 5.53-1.95 10.99-4.12 16.59-5.81 17.01-5.13 34.61-6.95 52.2-8.69 15.69-1.55 31.4-3.02 47.12-4.24 4.04-.31 8.27 0 12.24.85 15.01 3.2 30.13 3.63 45.38 2.81 13.5-.72 26.79 1.08 39.84 4.56.5.13.98.35 2.01.73-7.08 3.95-14.16 6.03-21.63 6.77-9.33.93-18.74 1.3-28.01 2.6-8.25 1.16-11.29 5.37-11.51 13.74-.12 4.58-.27 9.17-.65 13.73-.52 6.37-3.92 11.29-8.37 15.61-2.86 2.78-6.12 3.85-10.12 2.99-4.43-.96-8.62 0-12.87 2.36 1.23 4.21 2.44 8.37 3.65 12.53 3.18 10.95 6.35 21.9 9.51 32.85.44 1.51.67 2.79 2.8 3.09 8.23 1.19 14.61 5.66 20.26 11.58 11.66 12.21 17.92 27.09 21.92 43.15 4.97 19.96 5.1 40.08 2.1 60.32-3.76 25.39-10.69 49.82-22.3 72.79-1.28 2.54-3.11 4.88-5.05 6.98-3.65 3.93-7.58 7.61-11.4 11.38-.11.13-.34.14-.67.26z" fill="#010106"/></svg>