<svg enable-background="new 0 0 400 400" viewBox="0 0 400 400" xmlns="http://www.w3.org/2000/svg"><path d="m76.91 374.59c-1.02-3.24-2.2-6.28-2.85-9.43-.22-1.07.59-2.67 1.41-3.59 10.76-12.14 22.02-23.85 32.35-36.35 20.52-24.83 37.61-51.98 52.24-80.68 6.34-12.44 12.9-24.77 19.17-37.25 1.49-2.97 2.12-6.35 3.35-9.46 1.84-4.64 3.22-9.63 5.94-13.71 5.27-7.9 5.8-17.02 7.91-25.75.82-3.37 1.31-6.81 2.12-10.18.49-2.03-.11-3.3-1.74-4.56-4.26-3.3-8.51-4.41-14.03-2.73-8.75 2.66-17.8 4.32-26.69 6.51-17.17 4.21-32.99 11.85-48.77 19.54-4.79 2.33-9.39 5.12-13.85 8.05-8.76 5.76-17.93 7.14-27.76 3.35-11.57-4.46-23.14-8.94-34.66-13.53-1.07-.42-2.07-1.55-2.62-2.6-.81-1.56-1.19-3.35-1.85-5.36 2.68-.93 5.27-1.87 7.88-2.74 40.82-13.64 81.61-27.36 122.49-40.82 8.79-2.89 18.01-4.47 26.82-7.31 4.45-1.43 8.57-4.1 12.58-6.63 1.45-.91 2.39-2.94 3.1-4.65 2.01-4.83 1.46-6.5-2.63-9.62-9.7-7.4-19.33-14.88-29.12-22.15-2.93-2.17-6.14-4.08-9.47-5.57-10.81-4.84-21.74-9.42-32.62-14.11-6.2-2.67-8.69-11.3-4.23-16.28 1.34-1.5 4.48-1.97 6.78-1.92 17.27.35 34.4 2.2 51.04 6.99 12.56 3.61 24.96 7.78 37.39 11.83 1.37.45 2.83 1.5 3.64 2.69 5.38 7.82 10.6 15.75 15.87 23.65 4.09 6.14 9.64 10.56 16.42 13.31 1.65.67 3.71.44 5.59.41 12.86-.18 25.72-.44 38.59-.64 14.32-.22 28.64-.44 42.96-.53 2.54-.02 5.21.28 7.59 1.1 1.94.67 3.88 2.06 5.21 3.64 2.82 3.36 6.69 4.34 10.57 5.34 2.71.7 4.27 2.1 4.64 4.96.29 2.23-.26 3.76-2.17 5.12-7.2 5.09-15.36 7.81-23.88 9.29-16.63 2.9-33.32 5.41-49.98 8.16-2.18.36-4.39.98-6.41 1.87-5.3 2.34-5.83 4.04-5.67 9.79.31 10.68 5.01 20.06 9.48 29.11 7.09 14.34 7.41 28.85 5.75 44.13-.85 7.82-.2 15.83.16 23.73.19 4.08-.09 7.88-1.45 11.81-5.9 16.99-11.52 34.08-17.3 51.12-.6 1.78-1.45 3.51-2.39 5.15-2.55 4.46-5.48 8.74-7.77 13.33-3.19 6.41-8 10.86-13.89 14.9-5.25 3.6-9.59 8.67-13.91 13.47-6.99 7.77-15.13 13.91-24.39 18.63-12.34 6.28-25.46 9.81-39.3 9.88-3.67.02-7.38-1.59-11.02-2.64-14.28-4.11-28.68-7.89-42.75-12.63-7.29-2.46-12.62-.22-17.66 4.21-2.83 2.49-5.22 5.51-7.58 8.47-4.93 6.2-10.22 9.15-18.63 9.88zm166.57-233.62c-1.54 8.75-2.95 17.11-4.52 25.44-.34 1.81-1.06 3.63-1.97 5.24-14.13 24.87-28.82 49.45-42.38 74.63-17.21 31.96-36.75 62.15-61.78 88.6-2.08 2.2-1.51 3.87 1.56 4.54 14.55 3.21 29.12 2.45 43.66-.08 17.92-3.12 35.16-8.35 49.6-19.81 6.51-5.16 11.99-11.71 17.52-18 3.36-3.81 6.4-8.06 8.77-12.55 7.85-14.91 11.69-31.11 14.3-47.62 2.76-17.54 4.6-35.33.01-52.65-3.44-12.98-8.92-25.46-14-37.95-1.82-4.43-5.59-7.76-10.77-9.79z" fill="#010104"/><g fill="#fcfbfa"><path d="m385.2 377.6.6-.7c.6.4 1.3.9 1.9 1.5l-.6.7c-.8-.5-1.4-1-1.9-1.5zm.3 7.1c.6-1.4 1.1-2.9 1.5-4.5.3.1.6.3.9.4-.5 1.4-1 2.9-1.5 4.4zm.2-10.1.6-.6c.7.5 1.3 1.1 1.9 1.6l-.7.7c-.6-.6-1.2-1.2-1.8-1.7zm8.4-.8h.8v.9h1.8v.7h-1.8v1.8h-.8v-.3h-1.2v.9h3.3v2.6h-.8v-.4h-2.5c0 .3 0 .6-.1.8h3.4v.7h-3.5c0 .3-.1.6-.1.8h4v.7h-3.5c.7.9 1.9 1.3 3.6 1.5-.2.2-.4.5-.6.9-1.9-.3-3.2-1.1-3.8-2.3-.5 1.1-1.8 2-3.9 2.4-.2-.3-.4-.5-.6-.8 1.9-.4 3.1-.9 3.6-1.7h-3.2v-.7h3.5c.1-.2.1-.5.2-.8h-3.3v-.7h3.4c0-.2 0-.5 0-.8h-2.4v.3h-.8v-2.6h3.3v-.9h-1.2v.3h-.8v-1.8h-1.8v-.7h1.8v-.9h.8v.9h3.2zm-4.4 5.5h2.4c0-.3 0-.6 0-.9h-2.4zm1.2-3.1h3.2v-.8h-3.2zm4.4 2.2h-2.4v.9h2.5v-.9z"/><path d="m389.2 385.8h.9v1.5h1.9v-1.5h.9v1.5h2.7v6h1.1v.9h-11.3v-.9h1.1v-6h2.7zm.2 8.7.5.8c-1.2.6-2.5 1.3-4 1.9-.2-.3-.3-.6-.6-.8 1.6-.6 3-1.3 4.1-1.9zm-2-4.3h1.9v-2.1h-1.9zm0 3.1h1.9v-2.2h-1.9zm2.7-3.1h1.9v-2.1h-1.9zm0 3.1h1.9v-2.2h-1.9zm2.4 1.3c1.4.6 2.7 1.2 4.1 1.8l-.5.9c-1.5-.7-2.8-1.4-4.1-1.9zm2.2-6.5h-1.9v2.1h1.9zm-1.9 5.2h1.9v-2.2h-1.9z"/></g></svg>