<svg enable-background="new 0 0 400 400" viewBox="0 0 400 400" xmlns="http://www.w3.org/2000/svg"><path d="m374.8 390.4.4-.4c.7.5 1.3 1 1.8 1.4l-.5.5c-.5-.6-1.1-1.1-1.7-1.5zm1 7.3-.6-.3c.5-1.4 1.1-2.8 1.5-4.3.2.1.4.2.6.3-.5 1.3-1 2.8-1.5 4.3zm-.4-10.3.4-.4c.4.3 1 .8 1.7 1.4l-.5.5c-.4-.5-1-1-1.6-1.5zm2.5.3h1.7v-1h.6v1h3.5v-1h.6v1h1.8v.5h-1.8v1.4h-2v1h3.2v2h-3.2v.9h3.3v.5h-3.4c0 .3-.1.6-.1.9h4v.5h-3.7c.7.9 1.9 1.5 3.8 1.7-.1.2-.2.4-.3.6-2.1-.4-3.5-1.1-4-2.1-.4 1-1.8 1.7-4 2.2-.1-.2-.2-.4-.3-.6 2.1-.4 3.4-1 3.8-1.8h-3.4v-.5h3.6c.1-.3.1-.6.2-.9h-3.3v-.5h3.4c0-.3 0-.6 0-.9h-3.2v-2h3.3v-1h-2.1v-1.4h-1.7v-.5zm1.1 3.5v1h2.7c0-.3 0-.4 0-.4 0-.1 0-.2 0-.2 0-.1 0-.2 0-.3h-2.7zm1.2-3v.9h3.5v-.9zm4.7 3h-2.6v.6.4h2.6z" fill="#fbfcfa"/><path d="m393.6 386.7h.6v1.5h2.7v6.1h1.1v.6h-11v-.6h1.1v-6.1h2.7v-1.5h.6v1.5h2.1v-1.5zm-2.7 8.8.4.6c-1.2.6-2.5 1.3-3.8 1.9-.1-.2-.2-.4-.3-.6 1.2-.6 2.5-1.2 3.7-1.9zm-2.2-6.7v2.4h2.1v-2.4zm0 3v2.5h2.1v-2.5zm2.8-3v2.4h2.1v-2.4zm0 3v2.5h2.1v-2.5zm6 6.1c-1.4-.7-2.7-1.3-3.9-1.8l.3-.6c1.5.6 2.7 1.2 3.9 1.7zm-1.2-9.1h-2.1v2.4h2.1zm-2.1 3v2.5h2.1v-2.5z" fill="#fbfcfa"/><path d="m94.5 367.58c9.34-4.26 17.58-8.65 26.29-11.74 4.79-1.7 10.36-1.23 15.59-1.69 18.16-1.58 36.39-2.59 54.47-4.83 21.42-2.65 35.72-15.18 44.05-34.8.31-.74.31-1.74.12-2.54-4.81-21.24-9.65-42.48-14.58-64.08-3.74 0-7.41-.13-11.06.09-.84.05-1.79 1.15-2.4 1.98-17.33 23.31-40.09 38.66-68.15 45.94-6.32 1.64-12.96 2.06-19.65 3.07-1.14-3.18-2.24-5.73-2.88-8.4-.17-.73.87-2.06 1.69-2.68 18.65-14.11 37.48-27.97 55.97-42.28 10-7.74 19.38-16.27 26.71-26.75.58-.82 1.11-1.68 1.66-2.52 2.69-4.1 3.48-8.3 2.32-13.31-2.8-12.08-5.07-24.29-7.45-36.47-.39-2-1.15-2.75-3.28-2.72-9.29.12-18.58-.03-27.87.15-1.24.02-2.93 1.03-3.6 2.09-3.37 5.27-6.57 10.66-9.64 16.12-2.24 3.98-5.5 5.89-9.94 5.3-3.52-.46-7.02-1.27-10.44-2.23-.93-.26-1.92-1.49-2.27-2.5-8.42-24.06-10.53-48.62-5.52-73.68.21-1.06.94-2.25 1.79-2.9 2.31-1.75 4.81-3.23 7.57-5.03 6.77 8.95 14.75 16.85 19.04 27.46.66 1.63 2.89 3.28 4.67 3.65 4.68.98 9.49 1.46 14.27 1.78 4.12.28 8.29-.09 12.42.12 2.38.12 3.62-.84 4.74-2.79 6.16-10.76 8.22-22.34 7.26-34.58-.9-11.38-1.86-22.75-2.56-34.14-.17-2.82-1.2-3.95-3.9-4.12-8.8-.58-17.59-1.68-26.4-1.78-9.04-.1-16.49-3.35-23.41-9.32.94-.62 1.69-1.17 2.5-1.63 18.78-10.66 39.08-15.51 60.57-16.31 20.34-.76 40.65-2.03 60.98-3.04 7.61-.38 14.18 3.02 20.38 6.63 3.68 2.14 3.91 6.98 4.71 11.5-7.58 1.54-14.96 3.29-22.42 4.47-6.83 1.07-13.75 1.61-20.65 2.19-3.83.32-6.45 2.51-7.73 5.64-2.48 6.07-4.85 12.27-6.36 18.63-3.99 16.73-7.5 33.58-11.19 50.38-.12.53-.09 1.1-.14 1.89.92.1 1.78.28 2.64.28 10.07.02 20.15-.04 30.22.06 2.13.02 3.21-.66 3.93-2.68 2.88-8.11 5.91-16.16 8.86-24.24 2.81-7.69 6.87-9.53 14.59-6.58.52.2 1.05.38 1.57.59 6.96 2.71 10.68 6.88 11.02 15.26.71 16.97 2.98 33.86 4.45 50.81.12 1.38-.65 3.22-1.63 4.24-3.88 4.03-7.06 8.31-8.04 14.01-.78 4.54-4.34 6.24-8.3 7.26-8.26 2.12-8.14 2.05-10.65-6-2.36-7.56-5.11-15.01-7.55-22.55-1.65-5.1-5.36-7.84-10.33-7.35-8.07.79-16.07 2.44-24.06 3.95-.82.15-1.61 1.69-2 2.74-3.86 10.57-3.87 21.5-.88 32.04 4.01 14.16 9.08 28.03 13.91 41.94 2.64 7.6 5.73 15.03 8.6 22.55 1.83 4.8 3.97 9.31 7.49 13.29 10.91 12.35 12.31 26.75 8.38 42.19-2.12 8.34-3.85 16.77-5.95 25.11-.4 1.6-1.46 3.26-2.69 4.39-21.26 19.55-46.83 29.99-74.85 35.17-19.02 3.52-38.17 4.75-57.43 2.65-6.76-.74-13.55-1.8-20.12-3.51-2.61-.7-4.64-3.55-7.46-5.84z" fill="#010106"/></svg>