<svg enable-background="new 0 0 400 400" viewBox="0 0 400 400" xmlns="http://www.w3.org/2000/svg"><g fill="#010103"><path d="m263.99 194.65c-1.84 10.2-3.67 20.4-5.54 30.6-.2 1.08-.46 2.21-.96 3.18-11.07 21.95-22.16 43.89-33.28 65.81-2.17 4.27-4.93 8-9.72 9.68-3.8 1.33-4.97.71-5.82-3.23-.88-4.05.2-7.7 2.16-11.25 9.19-16.63 18.36-33.26 27.47-49.94 6.53-11.95 10.61-24.72 10.91-38.35.16-7.11-1.05-14.26-1.76-21.37-1.44-14.58-3.02-29.15-4.39-43.73-.19-2.05-.94-3.15-2.68-4.11-5-2.74-9.77-5.92-14.88-8.43-4.16-2.05-5.77-5.77-7.43-9.5-4.15-9.31-5.75-19.26-6.56-29.31-1-12.39-1.27-24.8.48-37.18.39-2.77 1.34-4.84 4.03-5.99 3.38-1.44 5.44-.69 6.71 2.71 4.34 11.57 5.02 23.55 3.67 35.7-.8 7.25-1.66 14.45.99 21.55 2.87 7.7 8.4 12.73 16.18 16.42 1.6-6.63 3.28-13.05 4.69-19.53 2.78-12.77 4.76-25.75 8.35-38.28 2.11-7.36 6.65-14.04 10.17-20.99 1.02-2.01 2.49-3.36 5.08-2.73 2.76.67 5.44 1.75 5.87 4.75.38 2.67.24 5.6-.47 8.2-4.67 17.02-9.68 33.95-14.33 50.98-1.7 6.23-2.72 12.65-4.14 19.4 4.74.23 9.17.51 13.6.66 7.71.27 15.43.29 23.13.75 4.38.27 8.28 1.92 10.4 6.26 1.06 2.16.77 3.6-1.56 4.84-7.32 3.9-14.99 3.71-22.88 2.67-6.31-.83-12.66-1.29-19.01-1.84-1.31-.11-2.64.13-3.99.21-2.4 10.42-1.04 20.21 2.88 29.74 3.59 8.74 8.01 16.88 14.88 23.66 5.41 5.33 9.92 11.58 15.4 16.84 7.9 7.59 10.27 17.08 10.51 27.36.34 14.07-2.28 27.84-5.18 41.52-6.94 32.81-17.27 64.51-31.85 94.75-1.23 2.54-3.09 5.02-5.27 6.77-1.36 1.09-3.93 1.17-5.82.87-.8-.13-1.64-2.37-1.8-3.73-.8-6.99 1.46-13.48 3.76-19.9 7.34-20.51 15.19-40.84 21.97-61.53 4.06-12.38 7.19-25.16 9.44-37.99 2.2-12.51 2.6-25.62-4.5-36.85-4.82-7.62-11.72-13.93-17.68-20.83-.41.24-.82.48-1.23.71z"/><path d="m119.03 25.02c6.83 1.09 12.39 4.3 16.49 9.32 13.01 15.95 22.45 33.58 24.13 54.58 1.22 15.26-1.42 30.08-5.04 44.79-6.47 26.24-10.57 52.8-11.27 79.87-.54 20.9 3.31 41.16 8.35 61.28 4.57 18.25 10.27 36.16 18.99 52.87 4.16 7.98 9.59 15.33 14.68 22.8 3.93 5.76 7.68 11.55 8.98 18.55.8 4.31-1.55 6.56-5.71 5-2.19-.82-4.32-2.39-5.89-4.15-16.48-18.45-27.75-39.91-36.06-63.05-10.1-28.16-16.38-57.1-17.9-87.03-.96-18.83 2.11-37.22 5.48-55.61 3.79-20.67 7.75-41.32 10.88-62.09 1.46-9.67-.67-19.38-3.48-28.77-3.89-13.03-10.82-24.22-20.53-33.71-4.34-4.26-4.78-9.06-2.1-14.65z"/><path d="m112.8 221.44c0 10.17-.89 20.44.19 30.49 1.99 18.62 2.85 37.54 9.01 55.44 6.42 18.68 13.52 37.13 20.32 55.69 1.52 4.15 1.2 5.02-2.44 6.72-2.26 1.06-4.94-.09-6.66-2.88-12.02-19.47-20.25-40.49-25.62-62.68-6.14-25.4-9.75-51.12-9.95-77.3-.06-8.38-.81-16.75-1.25-25.13-.36-6.93.49-13.61 4.06-19.74 2.3-3.94 5.83-4.39 8.58-.64 1.29 1.76 2.07 4.29 2.11 6.5.21 11.17.1 22.35.1 33.53z"/><path d="m171.95 175.21c6.11.79 8.65 3.08 9.01 9 .46 7.35.43 14.73.62 22.1.39 14.98.5 29.97 1.27 44.93 1.08 21.14 6.71 41.1 16.61 59.88 3.9 7.38 7.53 14.93 10.75 22.63 1.15 2.74.8 6.13 1.04 9.24.15 1.87-.65 2.62-2.72 2.82-4.24.42-6.75-.93-9.03-4.82-12.92-22.03-23.3-45.02-27.99-70.27-.83-4.47-.73-9.12-.92-13.69-.35-8.27-.42-16.55-.95-24.8-.55-8.47-1.47-16.91-2.29-25.35-1.14-11.59.55-23.64 4.6-31.67z"/><path d="m121.36 111.05c.01 18.46-2.95 32.33-9.02 45.54-1.35 2.94-3.39 4.81-6.68 4.42-3.74-.44-5.35-2.16-5.25-6.48.09-3.97.98-7.95 1.73-11.88 1.57-8.23 3.31-16.44 4.91-24.66 2.32-11.91-.06-23.07-5.41-33.78-3.44-6.89-6.85-13.81-10.05-20.82-2.11-4.61-3.26-9.47-2.61-14.66.35-2.76 1.5-3.28 4.02-2.53 4.22 1.24 7.32 3.83 9.55 7.46 11.58 18.79 19.06 38.87 18.81 57.39z"/><path d="m196.34 98.44c-.28 11.06-3.18 22.99-6.73 34.77-1.61 5.33-3.68 10.54-5.81 15.69-.83 2-2.27 3.8-3.64 5.53-1.87 2.38-4.65 3.3-7.15 1.81-2.43-1.45-3.14-4.37-2.35-7.16.88-3.11 1.84-6.25 3.26-9.13 5.46-11.12 6.73-23 7.3-35.15.55-11.78-1.54-23.21-4.35-34.44-1.06-4.24-4.98-7.78-7.69-11.57-1.23-1.72-3.29-3.08-3.9-4.95-.9-2.73-1.04-5.78-1.11-8.7-.06-2.39 1.43-3.09 3.82-2.67 5.86 1.04 10.53 3.95 13.53 8.99 8.36 14.06 14.64 28.87 14.82 46.98z"/></g><path d="m377.9 391.2c-.2.3-.4.5-.6.8-.7-.6-1.4-1-2.2-1.5.2-.3.4-.5.5-.8.6.4 1.4.8 2.3 1.5zm-1.8 6.1c-.2-.2-.5-.4-.9-.6.4-.6.8-1.2 1.2-1.9s.7-1.3.9-1.9c.3.3.5.5.8.7-.7 1.3-1.4 2.6-2 3.7zm2.2-9c-.3.3-.5.5-.6.8-.6-.6-1.3-1.1-2-1.5.3-.3.5-.5.6-.7.6.5 1.3.9 2 1.4zm.3.2v-.9h2 4.5c-.3 1.3-.6 2.5-1 3.6s-.9 2.1-1.4 3c.4.5 1 1 1.6 1.4s1.2.8 1.9 1.1c-.3.2-.5.4-.8.8-.4-.3-1-.7-1.6-1.2s-1.2-1.1-1.6-1.6c-.5.6-1.1 1.1-1.7 1.6s-1.4.9-2.1 1.4c-.1-.3-.3-.5-.7-.8.6-.2 1.2-.5 1.9-1s1.4-1.1 2-1.8c-.5-.8-.9-1.6-1.2-2.5s-.6-2-.8-3.2c-.4.1-.7.1-1 .1zm2.5 2.7c.3 1 .7 1.7 1 2.2.3-.5.6-1.1 1-2s.6-1.9.9-3h-3.2-.4c.1.9.3 1.8.7 2.8z" fill="#fcfbfa"/><path d="m396.5 388.5v1.5 3.6h1.5v.9c-.4 0-1 0-1.7 0h-7.9c-.5 0-.9 0-1.2 0v-.9h1.3v-3.5c0-.7 0-1.2 0-1.6h2.4c0-.8 0-1.4 0-1.7h1c0 .3-.1.8-.1 1.7h1.5c0-.8 0-1.4 0-1.7h1c0 .3-.1.9-.1 1.7zm-8.2 9.2c-.2-.3-.5-.5-.8-.8.8-.3 1.4-.6 1.9-.9s1-.7 1.4-1.1c.3.3.6.5.9.8-1.6 1-2.8 1.6-3.4 2zm2.6-6.8v-1.6h-1.5v1.6zm0 2.7v-1.9h-1.5v1.9zm2.4-2.7v-1.6h-1.5v1.6zm0 2.7v-1.9h-1.5v1.9zm.2 2 .7-.8c.4.2.9.5 1.6.8s1.3.7 1.8 1c-.3.3-.5.5-.8.8-.4-.3-1.5-1-3.3-1.8zm2-4.7v-1.6h-1.4v1.6zm0 2.7v-1.9h-1.4v1.9z" fill="#fcfbfa"/></svg>