<svg enable-background="new 0 0 400 400" viewBox="0 0 400 400" xmlns="http://www.w3.org/2000/svg"><path d="m374.8 390.4.4-.4c.7.5 1.3 1 1.8 1.4l-.5.5c-.5-.6-1.1-1.1-1.7-1.5zm1 7.3-.6-.3c.5-1.4 1.1-2.8 1.5-4.3.2.1.4.2.6.3-.5 1.3-1 2.8-1.5 4.3zm-.4-10.3.4-.4c.4.3 1 .8 1.7 1.4l-.5.5c-.4-.5-1-1-1.6-1.5zm2.5.3h1.7v-1h.6v1h3.5v-1h.6v1h1.8v.5h-1.8v1.4h-2v1h3.2v2h-3.2v.9h3.3v.5h-3.4c0 .3-.1.6-.1.9h4v.5h-3.7c.7.9 1.9 1.5 3.8 1.7-.1.2-.2.4-.3.6-2.1-.4-3.5-1.1-4-2.1-.4 1-1.8 1.7-4 2.2-.1-.2-.2-.4-.3-.6 2.1-.4 3.4-1 3.8-1.8h-3.4v-.5h3.6c.1-.3.1-.6.2-.9h-3.3v-.5h3.4c0-.3 0-.6 0-.9h-3.2v-2h3.3v-1h-2.1v-1.4h-1.7v-.5zm1.1 3.5v1h2.7c0-.3 0-.4 0-.4 0-.1 0-.2 0-.2 0-.1 0-.2 0-.3h-2.7zm1.2-3v.9h3.5v-.9zm4.7 3h-2.6v.6.4h2.6z" fill="#fbfcfa"/><path d="m393.6 386.7h.6v1.5h2.7v6.1h1.1v.6h-11v-.6h1.1v-6.1h2.7v-1.5h.6v1.5h2.1v-1.5zm-2.7 8.8.4.6c-1.2.6-2.5 1.3-3.8 1.9-.1-.2-.2-.4-.3-.6 1.2-.6 2.5-1.2 3.7-1.9zm-2.2-6.7v2.4h2.1v-2.4zm0 3v2.5h2.1v-2.5zm2.8-3v2.4h2.1v-2.4zm0 3v2.5h2.1v-2.5zm6 6.1c-1.4-.7-2.7-1.3-3.9-1.8l.3-.6c1.5.6 2.7 1.2 3.9 1.7zm-1.2-9.1h-2.1v2.4h2.1zm-2.1 3v2.5h2.1v-2.5z" fill="#fbfcfa"/><path d="m80.46 361.75c8.97-.31 17.85-.61 26.73-.91 16.88-.57 33.76-1.09 50.64-1.76 1.45-.06 3.08-.69 4.25-1.55 9.36-6.91 18.65-13.92 27.9-20.98 1.11-.84 1.98-2.11 2.69-3.34 7.87-13.45 12.15-28.17 13.73-43.5 1.62-15.67 2.06-31.45 3.17-47.18.23-3.29-1.14-4.12-4.03-3.95-7.63.46-14.69 2.98-21.39 6.38-8.07 4.09-15.96 8.55-23.83 13.01-14.05 7.96-28.98 12.37-45.23 10.88-5.62-.52-11.16-1.89-16.74-2.87.01-.31.01-.61.02-.92.95-.32 1.9-.64 2.86-.95 28.03-8.81 54.96-20.2 80.27-35.14 11.3-6.67 20.92-15.4 26.9-27.45 2.66-5.37 4.03-10.96 3.79-17.12-1-26.62-1.72-53.24-2.55-79.86-.04-1.22-.16-2.44-.3-4.54-7.25-.07-14.51-.76-21.64-.09-12.45 1.17-24.78 3.6-37.24 4.69-12.79 1.12-23.73-3.12-32.11-14.22 6.26-.79 12.05-1.53 17.85-2.24 21.98-2.69 43.96-5.42 65.95-7.99 2.18-.26 2.39-1.47 2.77-3.03 3.91-16.19 7.84-32.37 11.77-48.55.26-1.08.57-2.15.87-3.24 9.96 4.1 14.78 14.26 12.22 25.08-1.25 5.3-2.42 10.67-2.94 16.07-.44 4.61 1.66 8.65 4.74 12.18 2.53 2.9 5.53 4.15 9.4 4.26 11.57.32 22.67-2.15 33.68-5.21 7.33-2.04 14.6-4.16 22.37-3.83 8.89.37 16.26 5.4 19.12 13.71-28.46 3.48-56.84 6.95-85.15 10.41 0 6.33-.08 12.35.01 18.37.62 41.74 1.41 83.48 1.87 125.22.27 24.29.08 48.58-.02 72.87-.01 1.88-.63 3.97-1.57 5.61-10.34 17.95-24.27 32.33-42.69 42.05-13.4 7.07-27.73 11.24-42.79 12.77-21.92 2.24-42.72-1.96-62.63-11.11-.81-.37-1.62-.75-2.41-1.17-.14-.09-.15-.39-.31-.86z" fill="#010106"/></svg>