<svg enable-background="new 0 0 400 400" viewBox="0 0 400 400" xmlns="http://www.w3.org/2000/svg"><path d="m107.39 252.7c-1.28-2.11-2-3.3-2.85-4.7 13.2-4.01 22.88-13.14 33.13-21.36 5.83-4.67 11.57-9.45 17.31-14.15 2.94 3.95-.36 6.62-1.55 9.74 1.71 1.63 3.38 3.22 5.42 5.17.59-5.7 1.23-11.07 1.67-16.46.2-2.41.94-4.24 3.22-5.39 1.29-.65 2.34-1.74 3.59-2.46 8.6-4.99 15.22-11.68 19.9-20.64 2.33-4.46 6.32-8.07 9.62-12.01 2.72-3.24 4.02-6.86 3.75-11.14-.28-4.35-.19-8.73-.53-13.08-.09-1.11-.94-2.5-1.87-3.13-4.69-3.19-10.08-3.52-15.48-2.95-5.33.56-10.6 1.68-15.92 2.32-2.73.33-5.6.6-8.28.14-9.88-1.72-19.37.93-28.94 2.3-15.82 2.28-31.55 4.97-47.64 5.16-7.39.09-14.75 2.36-22.14 3.51-9.71 1.51-19.2.37-28.34-3.09-4.66-1.76-7.89-5.18-8.5-10.35-.13-1.09.65-2.9 1.56-3.42 11.18-6.36 22.45-12.55 33.73-18.73.93-.51 2.13-.86 3.17-.79 21.8 1.44 42.95-3.5 64.3-6.41 13.41-1.82 26.82-3.63 40.27-5.13 3.65-.41 6.01-1.8 6.72-5.23 1.4-6.77 2.75-13.57 3.68-20.42 1.26-9.24 3.22-18.21 7.88-26.71.77.83 1.41 1.52 2.33 2.5 4.33-8.51 12.42-12.52 19.65-17.49 1.01-.7 2.48-1.1 3.72-1.06 16.59.56 28.84 10.98 32.27 27.44 1.26 6.02 2.2 12.1 3.49 18.11.54 2.49 1.42 4.95 2.48 7.27 1.89 4.1 4.77 6.37 9.79 6.59 15.97.69 31.94 1.7 47.88 2.99 11.3.91 22.36 3.22 32.54 8.58.89.47 1.76.97 2.62 1.5.36.23.64.58 1.08.99-1.58.64-3 1.22-4.43 1.8 15.48-.18 25.13 9.03 34.02 20.34-10.29 6.12-21.02 9.11-32.4 8.32-14.83-1.02-29.63-2.7-44.4-4.4-9.58-1.1-18.67.98-27.78 3.27-1.37.34-2.69 1.12-3.88 1.94-2.49 1.71-3.71 3.89-1.79 6.8 1.65 2.5 3.11 5.16 5.05 7.4 3.81 4.4 7.77 8.68 11.9 12.77 2.74 2.71 4.63 5.59 4.85 9.53.06.99.78 2.06 1.46 2.86 2.03 2.38 4.08 4.78 6.33 6.95 6.98 6.72 10.8 14.97 13.68 24.18 2.81 9 2.32 16.78-2.11 25.15-5.32 10.06-9.46 20.74-14.14 31.13-.64 1.42-1.18 2.98-2.17 4.14-12.11 14.34-23.14 29.72-39.37 40.03-14.24 9.05-28.35 18.32-42.59 27.36-2.23 1.42-4.88 2.2-7.38 3.17-2.76 1.07-5.56 1.97-7.98-.83-4.05 2.8-7.82 5.61-11.8 8.1-13.8 8.64-28.96 12.65-45.18 12.82-.67.01-1.35-.02-2.01-.11-5.75-.75-6.35-1.88-6.98-7.65-.6-5.41 1.41-8.78 6.19-10.74 4.01-1.65 8.01-3.47 12.17-4.63 7.26-2.03 13.92-4.95 18.9-10.82 1.89-2.23 3.94-1.85 5.95-.54 2.96 1.95 2.91 2.04 5.34-.96-1.05-.39-2.05-.76-3.62-1.34 20.85-14.41 43.38-25.99 59.36-45.88 1.9 1.36 3.26 2.34 4.96 3.56 1.13-2.93 2.43-5.63 3.22-8.48 4.01-14.3 8.49-28.51 11.63-43 2.42-11.14.51-22.25-4.7-32.63-1.09-2.17-2.52-3.17-4.85-3.44-5.72-.67-11.43.32-15.4 4.17-13.39 13.01-29.38 21.83-45.88 29.96-5.2 2.56-10.49 4.93-15.82 7.42-.51-5.76-2.3-6.77-10.38-6.09-.7 3.58-.25 4.03 6.05 6-.52 2.83-1.75 5-4.38 6.6-6.69 4.06-13.23 8.37-19.84 12.57-.91.58-1.87 1.08-2.93 1.69-.83-2.82 1.03-6.33-2.48-7.67-2.93 2.74-5.77 5.4-8.85 8.29 1.38.82 2.47 1.47 3.46 2.06-1.89 2.04-3.53 4.29-5.64 5.96-1.68 1.33-3.84 2.27-5.93 2.8-3.9.98-7.93 1.4-11.84 2.33-1.38.33-3.04 1.16-3.76 2.28-6.31 9.8-16.03 13.57-26.84 15.11-4.15.59-8.46.22-12.68.02-1.01-.05-2.74-1.12-2.79-1.83-.15-2.05-2.19-4.32.85-6.24 10.78-6.82 21.42-13.84 32.12-20.79 1.97-1.28 3.99-2.5 5.89-3.87 4.84-3.49 9.76-6.64 16.89-4.95zm154.94-75.27c1.15-1.61 2.37-3.04 3.25-4.66.52-.95 1-2.4.63-3.26-1.38-3.26-3.12-6.37-4.86-9.8-1.38.75-2.56 1.39-4.3 2.34 3.51 1.34 6.84 2.12 5.97 6.38-6.13 1.57-10.84-.32-13.61-6.07-3.09.76-4.16 2.14-3.39 5.13 1.15 4.51 2.3 6.33 5.3 6.08 4.17-.36 7.67.9 11.01 3.86zm-17.62 90.32c2.63-1.11 4.92-2.08 7.53-3.18-1.22-1.3-2.16-2.31-3.38-3.6-1.49 2.39-6.45 1.79-4.15 6.78zm-150.5-122.7h5.36c-1.12-2.13-2.08-3.93-3.34-6.33-.8 2.49-1.36 4.25-2.02 6.33zm92.23 186.33c-.94-1.94-1.73-3.56-2.51-5.18-.17.07-.34.13-.52.2v5.82c1.06-.3 1.94-.54 3.03-.84z" fill="#010000"/><g fill="#fbfcfa"><path d="m361.2 9.6.8-1c.9.7 1.9 1.4 2.9 2.3l-.9 1.1c-1-1-2-1.8-2.8-2.4zm.5 10.6c.9-2.1 1.6-4.3 2.3-6.7.4.2.8.4 1.3.6-.7 2.1-1.5 4.3-2.2 6.6zm.4-15.2.9-.9c1 .8 2 1.6 2.8 2.4l-1 1c-.9-.9-1.8-1.7-2.7-2.5zm12.5-1.2h1.2v1.4h2.7v1.1h-2.7v2.7h-1.2v-.6h-1.8v1.3h4.9v3.8h-1.2v-.5h-3.7c0 .4-.1.9-.1 1.2h5.1v1h-5.2c0 .5-.1.9-.2 1.2h6v1h-5.2c1.1 1.3 2.9 2 5.5 2.2-.4.4-.7.8-.9 1.3-2.9-.5-4.8-1.6-5.7-3.5h-.1c-.8 1.7-2.7 2.9-5.9 3.6-.2-.4-.6-.8-.9-1.1 2.8-.6 4.6-1.4 5.4-2.5h-4.8v-1h5.3c.1-.3.2-.7.2-1.2h-4.9v-1h5c0-.4 0-.8.1-1.2h-3.5v.5h-1.2v-3.8h4.9v-1.3h-1.8v.5h-1.2v-2.7h-2.7v-1h2.6v-1.4h1.2v1.4h4.7v-1.4zm-6.6 8.3h3.6c0-.4 0-.9 0-1.4h-3.6zm1.9-4.6h4.7v-1.3h-4.7zm6.6 3.2h-3.7v1.4h3.7z"/><path d="m385.3 3.8h1.3v2.2h2.8v-2.2h1.3v2.2h4.1v9.1h1.7v1.3h-16.9v-1.3h1.7v-9.1h4.1v-2.2zm.4 13.1.7 1.2c-1.8.9-3.8 1.9-6 2.9-.2-.4-.5-.8-.8-1.3 2.3-1 4.3-1.9 6.1-2.8zm-3.1-6.4h2.8v-3.2h-2.8zm0 4.6h2.8v-3.3h-2.8zm4-4.6h2.8v-3.2h-2.8zm0 4.6h2.8v-3.3h-2.8zm3.7 1.9c2.1.9 4.1 1.8 6.1 2.7l-.7 1.3c-2.2-1.1-4.2-2-6.1-2.9zm3.2-9.7h-2.8v3.2h2.8zm-2.8 7.8h2.8v-3.3h-2.8z"/></g></svg>