<svg enable-background="new 0 0 400 400" viewBox="0 0 400 400" xmlns="http://www.w3.org/2000/svg"><path d="m176.86 25.16c7.4.66 10.14 3.01 11.57 9.42 3.2 14.4 6.53 28.78 9.54 43.22.69 3.29.34 6.82.31 10.24-.04 4.02-.47 8.04-.36 12.06.09 3.31 1.26 6.31 4.29 8.46 2.52-3.69 5.97-4.07 9.84-2.96 5.62 1.61 11.27 2.08 17.19 1.86 4.18-.16 8.43 1.87 12.66 2.83 6.74 1.54 13.49 3.04 20.25 4.48 3.21.68 4.75 2.62 4.86 5.95-3.23 2.78-7.07 2.16-10.78 1.51-3.43-.6-6.68-.58-10.19-.17-3.47.4-7.15-1.34-10.77-1.89-1.92-.29-3.93.03-5.89-.07-3.75-.19-7.5-.54-11.25-.73-4.22-.21-8.44-.42-12.67-.43-3.5-.01-5.88 2.19-6.5 5.31-.71 3.53-1.27 7.46-.42 10.84 1.19 4.73 1.26 9.19.43 13.89-.69 3.89-1.61 7.69.34 11.78.97 2.03 0 5.02-.24 7.57-.72 7.57-1.59 15.13-2.21 22.72-.1 1.26.45 2.86 1.24 3.87 4.07 5.2 8.48 10.13 12.44 15.41 2.78 3.72 5 7.85 7.49 11.78.65 1.02 1.28 2.1 2.14 2.94 7.43 7.29 15.1 14.34 22.3 21.86 4.62 4.83 8.57 10.3 12.79 15.51.49.6.91 1.32 1.13 2.05.62 2.1 2.68 4.27.16 6.37-1.82 1.52-6.54.99-8.37-.94-12.42-13.05-24.76-26.17-37.23-39.17-3.66-3.82-7.67-7.3-11.86-11.25-2.7 4.36-3.33 8.16-2.98 12.07.77 8.66 3.1 17.2 1.89 26.01-.03.22-.07.5.04.66 4.43 7.2 1.73 15.75 4.51 23.34 3.72 10.17 6.43 20.73 10.48 30.75 6.69 16.55 15.51 32.2 21.05 49.26 1 3.07 2.45 5.99 3.77 8.95.66 1.47 1.62 3.2-.51 3.85-1.46.45-4.14.42-4.75-.46-6.92-9.84-15.77-18.36-20.47-29.74-2.73-6.61-5.94-13.02-8.6-19.66-5.21-13.02-10.2-26.14-15.24-39.23-.31-.8-.31-1.73-.42-2.61-.68-5.18-1.35-10.35-2.01-15.53-.25-1.98-.56-3.97-.7-5.96-.13-1.78.48-3.83-.2-5.33-2.92-6.5-.6-12.96-.45-19.44.12-5.21.34-10.65-.95-15.6-1.36-5.2-1.35-10.1-.4-15.16 2.27-12.14.35-24.34.75-36.5.07-2.07 1.21-4.08 1.54-6.16.5-3.15.74-6.35 1.05-9.53.2-1.98.05-4.03.53-5.93 1.76-6.98-.6-13.76-.77-20.64-.02-1-.27-2-.35-3-.48-5.82-1.42-7.12-7.4-7.56-5.22-.39-10.54.45-15.73-.08-10.11-1.04-20.17-2.58-30.22-4.11-1.65-.25-3.47-1.19-4.64-2.38-2.46-2.51-1.48-5.52 1.93-5.75 9.36-.65 18.75-1.11 28.13-1.39 7.25-.22 14.45-.25 21.52 2.31 4.95 1.79 9.11-2.35 8.15-7.64-3.24-17.89-5.16-36-9.35-53.74-1.41-5.9-1.01-12.21-1.43-18.39z" fill="#010102"/><g fill="#fcfbfa"><path d="m385.2 377.6.6-.7c.6.4 1.3.9 1.9 1.5l-.6.7c-.8-.5-1.4-1-1.9-1.5zm.3 7.1c.6-1.4 1.1-2.9 1.5-4.5.3.1.6.3.9.4-.5 1.4-1 2.9-1.5 4.4zm.2-10.1.6-.6c.7.5 1.3 1.1 1.9 1.6l-.7.7c-.6-.6-1.2-1.2-1.8-1.7zm8.4-.8h.8v.9h1.8v.7h-1.8v1.8h-.8v-.3h-1.2v.9h3.3v2.6h-.8v-.4h-2.5c0 .3 0 .6-.1.8h3.4v.7h-3.5c0 .3-.1.6-.1.8h4v.7h-3.5c.7.9 1.9 1.3 3.6 1.5-.2.2-.4.5-.6.9-1.9-.3-3.2-1.1-3.8-2.3-.5 1.1-1.8 2-3.9 2.4-.2-.3-.4-.5-.6-.8 1.9-.4 3.1-.9 3.6-1.7h-3.2v-.7h3.5c.1-.2.1-.5.2-.8h-3.3v-.7h3.4c0-.2 0-.5 0-.8h-2.4v.3h-.8v-2.6h3.3v-.9h-1.2v.3h-.8v-1.8h-1.8v-.7h1.8v-.9h.8v.9h3.2zm-4.4 5.5h2.4c0-.3 0-.6 0-.9h-2.4zm1.2-3.1h3.2v-.8h-3.2zm4.4 2.2h-2.4v.9h2.5v-.9z"/><path d="m389.2 385.8h.9v1.5h1.9v-1.5h.9v1.5h2.7v6h1.1v.9h-11.3v-.9h1.1v-6h2.7zm.2 8.7.5.8c-1.2.6-2.5 1.3-4 1.9-.2-.3-.3-.6-.6-.8 1.6-.6 3-1.3 4.1-1.9zm-2-4.3h1.9v-2.1h-1.9zm0 3.1h1.9v-2.2h-1.9zm2.7-3.1h1.9v-2.1h-1.9zm0 3.1h1.9v-2.2h-1.9zm2.4 1.3c1.4.6 2.7 1.2 4.1 1.8l-.5.9c-1.5-.7-2.8-1.4-4.1-1.9zm2.2-6.5h-1.9v2.1h1.9zm-1.9 5.2h1.9v-2.2h-1.9z"/></g></svg>