<svg enable-background="new 0 0 400 400" viewBox="0 0 400 400" xmlns="http://www.w3.org/2000/svg"><path d="m141.79 162.92c2.59-11.01-1.28-21.28-1.93-31.79-.18-2.93.95-5.91 1.18-8.9.14-1.8-.24-3.65-.5-5.47-.41-2.8-1.09-5.57-1.34-8.38-.54-5.93-.88-11.87-1.36-18.52 2.55-.96 5.99-2.6 9.62-3.55 6.51-1.71 11.57 2 12.73 9.14.31 1.95.01 4-.08 6-.03.66-.32 1.3-.42 1.97-1.05 7.42.46 9.95 7.87 10.38 6.19.36 12.49-.23 18.67-.96 3.75-.44 5.29-4.05 5.5-7.18.29-4.37-.37-8.84-.93-13.23-1.14-8.86-2.69-17.68-3.59-26.56-.22-2.17 1.15-4.7 2.32-6.76 1.82-3.19 2.61-6.32 1.48-9.9-.29-.92-.3-2-.16-2.97.63-4.13-.49-7.71-3.03-10.97-2.77-3.57-2.48-5.05 1.29-7.51.75-.49 1.52-.95 2.33-1.32 1.11-.51 2.26-.92 3.88-1.58.97 2.67 2.33 5.18 2.76 7.84 1.42 8.8 3.64 17.7 3.34 26.48-.23 6.83-.8 13.09 3.06 19.07.58.9.28 2.38.35 3.59.38 6.23.61 12.48 1.2 18.69.16 1.68 1.21 3.34 2.09 4.88 1.2 2.09 2.91 2.87 5.56 2.61 10.24-.99 20.5-1.72 30.77-2.38 2.1-.13 3.49-.69 3.8-2.81.77-5.27 1.58-10.54 2.12-15.84.27-2.65-.18-5.37-.04-8.05.26-4.96 3.03-7.25 7.96-6.81 7.42.65 12.01 5.53 9.85 12.57-4.27 13.92-2.41 27.96-2.29 41.97.04 4.24-1.71 7.55-3.49 10.97-1.14 2.19-4 2.05-4.81-.28-1.11-3.23-2.02-6.62-2.41-10.01-1.11-9.66-8.51-13.29-17.34-9.2-4.94 2.28-10.66 2.9-16.07 4.12-2.94.66-5.94 1.15-8.93 1.44-2.21.21-3.1 1.12-3.14 3.33-.22 13.75-.72 27.49-.74 41.24-.04 30.88.55 61.78.04 92.65-.17 10.41-2.78 20.8-4.51 31.16-2.07 12.45-3.97 24.96-6.71 37.27-3.55 15.94-11.6 29.91-20.77 43.25-.25.37-.42.79-.94.98 2.23-15.15 3.42-30.38 8.74-44.72 3.18-8.58 4.81-17.37 5.66-26.42 1.39-14.81 3.13-29.58 4.54-44.39.28-2.97-.33-6.01-.41-9.02-.25-9.39-.5-18.77-.65-28.16-.09-5.45.16-10.91-.07-16.34-.09-1.99-1.13-3.94-1.74-5.91-.4.02-.8.03-1.19.05-1.78 1.95-3.55 3.92-5.36 5.84-7.51 7.98-14.49 16.56-22.7 23.75-7.6 6.66-16.42 11.94-24.86 17.6-4.06 2.72-9.9.78-11.95-3.72 1.36-.88 2.7-1.89 4.16-2.67 5.4-2.9 10.02-6.67 13.58-11.7.63-.89 1.47-1.83 2.43-2.23 4.44-1.84 7.29-5.37 10.16-8.98 5.07-6.4 10.07-12.88 15.48-18.98 2.99-3.37 6.72-6.08 10.19-8.99 1.87-1.57 4.09-2.75 5.85-4.43 2.25-2.14 3.32-4.8 3.21-8.11-.22-6.93-.95-14.02.17-20.78 1.38-8.3-.29-16.21-.7-24.3-.12-2.32-1.19-3.47-3.14-3.48-3.76-.02-7.57.1-11.29.64-4.75.69-9.39 2.1-14.15 2.7-2.5.31-3.46 1.42-4.03 3.56-1.44 5.39-2.87 10.79-4.52 16.13-.85 2.75-1.92 5.49-3.33 8-1.57 2.86-4.21 4.49-8.32 4.39z" fill="#010102"/><g fill="#fcfbfa"><path d="m385.2 377.6.6-.7c.6.4 1.3.9 1.9 1.5l-.6.7c-.8-.5-1.4-1-1.9-1.5zm.3 7.1c.6-1.4 1.1-2.9 1.5-4.5.3.1.6.3.9.4-.5 1.4-1 2.9-1.5 4.4zm.2-10.1.6-.6c.7.5 1.3 1.1 1.9 1.6l-.7.7c-.6-.6-1.2-1.2-1.8-1.7zm8.4-.8h.8v.9h1.8v.7h-1.8v1.8h-.8v-.3h-1.2v.9h3.3v2.6h-.8v-.4h-2.5c0 .3 0 .6-.1.8h3.4v.7h-3.5c0 .3-.1.6-.1.8h4v.7h-3.5c.7.9 1.9 1.3 3.6 1.5-.2.2-.4.5-.6.9-1.9-.3-3.2-1.1-3.8-2.3-.5 1.1-1.8 2-3.9 2.4-.2-.3-.4-.5-.6-.8 1.9-.4 3.1-.9 3.6-1.7h-3.2v-.7h3.5c.1-.2.1-.5.2-.8h-3.3v-.7h3.4c0-.2 0-.5 0-.8h-2.4v.3h-.8v-2.6h3.3v-.9h-1.2v.3h-.8v-1.8h-1.8v-.7h1.8v-.9h.8v.9h3.2zm-4.4 5.5h2.4c0-.3 0-.6 0-.9h-2.4zm1.2-3.1h3.2v-.8h-3.2zm4.4 2.2h-2.4v.9h2.5v-.9z"/><path d="m389.2 385.8h.9v1.5h1.9v-1.5h.9v1.5h2.7v6h1.1v.9h-11.3v-.9h1.1v-6h2.7zm.2 8.7.5.8c-1.2.6-2.5 1.3-4 1.9-.2-.3-.3-.6-.6-.8 1.6-.6 3-1.3 4.1-1.9zm-2-4.3h1.9v-2.1h-1.9zm0 3.1h1.9v-2.2h-1.9zm2.7-3.1h1.9v-2.1h-1.9zm0 3.1h1.9v-2.2h-1.9zm2.4 1.3c1.4.6 2.7 1.2 4.1 1.8l-.5.9c-1.5-.7-2.8-1.4-4.1-1.9zm2.2-6.5h-1.9v2.1h1.9zm-1.9 5.2h1.9v-2.2h-1.9z"/></g></svg>