<svg enable-background="new 0 0 400 400" viewBox="0 0 400 400" xmlns="http://www.w3.org/2000/svg"><path d="m148.85 25.21c5.14 5.28 7.42 11.91 8.61 18.9.92 5.38 1.2 10.88 1.76 16.32 1.35 13.23 2.73 26.46 3.99 39.7.26 2.76.05 5.57.1 8.36.03 2-.15 4.06.27 5.98.96 4.37 3.82 6.37 8.2 5.89 7.89-.88 15.79-1.74 23.64-2.9 1.34-.2 2.95-1.55 3.63-2.8 4.37-8.03 4.46-16.66 3.22-25.48-.77-5.51-1.74-11.08-1.62-16.6.15-6.94 4.81-11.85 11.64-13.77 5.75 7.99 5.75 7.99 10.85 8.79-1.35.9-2.91 1.43-3.61 2.51-1.19 1.85-2.94 4.27-2.56 6.05 3.31 15.4 1.97 31 2.51 46.51.3 8.61.02 17.25.66 25.83.42 5.64 2.03 11.19 3.05 16.79 1.04 5.7-.31 8.85-4.26 10.39-2.22.87-3.84.78-4.57-1.93-2.3-8.51-4.65-17.01-7.04-25.49-1.09-3.87-2.3-7.7-3.51-11.53-.63-2.01-1.89-2.78-4.09-2.21-3.89 1-7.87 1.7-11.75 2.73-1.35.36-2.57 1.27-3.78 2.04-3.96 2.52-7.73 5.3-12.99 4.15-.88-.19-2.96 1.68-3.28 2.92-1.16 4.45-2.68 8.97.63 13.42 1.09 1.46 1.3 3.78 1.41 5.74 1.17 19.42 2.4 38.85 3.25 58.28.38 8.63 1.91 16.8 5.86 24.52.57 1.12.62 2.58.63 3.89.06 5.48-.15 10.97.1 16.44.1 2.14.89 4.37 1.82 6.34 1.36 2.87 3.49 4.35 7.04 3.3 3.31-.98 6.84-1.18 10.17-2.1 7.61-2.11 15.25-1.71 22.92-.66 2.24.31 3.87-.35 4.43-2.46 1.19-4.49 2.53-8.99 3.09-13.58.72-5.88 3.09-9.57 8.56-11.26.32 2.67.77 5.29.92 7.92.41 7.42 1.74 14.63 4.49 21.56 2.58 6.49 3.74 13.22 4.04 20.24.69 16.09 1.84 32.15 2.8 48.35-2.83.97-4.78.33-6.63-2.1-5.31-6.99-7.9-15-9.18-23.48-1.21-8.05-1.96-16.18-3.1-24.24-.15-1.04-1.2-2.5-2.13-2.77-3.09-.89-6.31-1.79-9.5-1.85-10.17-.19-20.36.11-30.53-.02-3.21-.04-4.53 1.53-5.49 4.18-2.82 7.84-3.55 15.94-2.78 24.14.65 7.01 1.82 13.97 2.64 20.96.86 7.26 1.06 14.52-1.12 21.62-1.4 4.57-3.7 8.6-7.95 11.7-3.43-5.65-4.84-11.72-4.97-18.12-.13-6.71.26-13.44-.24-20.12-.39-5.18-1.48-10.37-2.88-15.38-1.19-4.26-2.11-8.36-1.43-12.8 1.43-9.23-.32-18.3-2-27.29-1.7-9.11-1.95-18.19-1.1-27.36.12-1.32.18-2.75-.19-3.99-8.35-28.25-9.07-57.32-9.31-86.43-.04-5.26-.23-10.53-.02-15.78.62-15.5-.63-30.82-3.87-45.99-3.99-18.62-3.47-37.59-4.2-56.46-.13-3.24.22-6.51-.08-9.73-.35-4.18.73-7.45 4.83-9.78z" fill="#010102"/><g fill="#fcfbfa"><path d="m385.2 377.6.6-.7c.6.4 1.3.9 1.9 1.5l-.6.7c-.8-.5-1.4-1-1.9-1.5zm.3 7.1c.6-1.4 1.1-2.9 1.5-4.5.3.1.6.3.9.4-.5 1.4-1 2.9-1.5 4.4zm.2-10.1.6-.6c.7.5 1.3 1.1 1.9 1.6l-.7.7c-.6-.6-1.2-1.2-1.8-1.7zm8.4-.8h.8v.9h1.8v.7h-1.8v1.8h-.8v-.3h-1.2v.9h3.3v2.6h-.8v-.4h-2.5c0 .3 0 .6-.1.8h3.4v.7h-3.5c0 .3-.1.6-.1.8h4v.7h-3.5c.7.9 1.9 1.3 3.6 1.5-.2.2-.4.5-.6.9-1.9-.3-3.2-1.1-3.8-2.3-.5 1.1-1.8 2-3.9 2.4-.2-.3-.4-.5-.6-.8 1.9-.4 3.1-.9 3.6-1.7h-3.2v-.7h3.5c.1-.2.1-.5.2-.8h-3.3v-.7h3.4c0-.2 0-.5 0-.8h-2.4v.3h-.8v-2.6h3.3v-.9h-1.2v.3h-.8v-1.8h-1.8v-.7h1.8v-.9h.8v.9h3.2zm-4.4 5.5h2.4c0-.3 0-.6 0-.9h-2.4zm1.2-3.1h3.2v-.8h-3.2zm4.4 2.2h-2.4v.9h2.5v-.9z"/><path d="m389.2 385.8h.9v1.5h1.9v-1.5h.9v1.5h2.7v6h1.1v.9h-11.3v-.9h1.1v-6h2.7zm.2 8.7.5.8c-1.2.6-2.5 1.3-4 1.9-.2-.3-.3-.6-.6-.8 1.6-.6 3-1.3 4.1-1.9zm-2-4.3h1.9v-2.1h-1.9zm0 3.1h1.9v-2.2h-1.9zm2.7-3.1h1.9v-2.1h-1.9zm0 3.1h1.9v-2.2h-1.9zm2.4 1.3c1.4.6 2.7 1.2 4.1 1.8l-.5.9c-1.5-.7-2.8-1.4-4.1-1.9zm2.2-6.5h-1.9v2.1h1.9zm-1.9 5.2h1.9v-2.2h-1.9z"/></g></svg>