<svg enable-background="new 0 0 400 400" viewBox="0 0 400 400" xmlns="http://www.w3.org/2000/svg"><g fill="#010102"><path d="m218.6 25.4c7.25 3.01 10.95 7.59 12.39 14.88 1.39 7.04 3.55 14.18 6.82 20.53 4.65 9.03 8.2 18.01 7.31 28.35-.75 8.76 2.77 16.62 5.59 24.6 3.03 8.57 2.71 16.65-2.96 24.16-.45.6-.59 1.98-.22 2.58 4.42 7.15 4.36 14.9 3.12 22.76-1.35 8.53-3.41 16.88-7.84 24.44-.45.76-.83 1.61-1.02 2.47-2.44 11.61-9.05 21.04-15.97 30.25-1.18 1.58-3.5 2.25-5.06 3.61-.93.82-2.11 2.25-1.98 3.25.99 7.46-1.51 13.82-5.7 19.7-2.22 3.11-3.31 6.19-1.29 9.89.51.95.44 2.5.08 3.59-3.56 10.59-1.65 21.15-.29 31.81 2.81 21.97 10.44 42.72 15.57 64.1 1.4 5.85 3.08 11.64 4.75 17.93-3.14.23-6 .56-8.86.58-.76.01-1.81-.77-2.26-1.48-7.19-11.2-14.37-22.41-21.37-33.73-1.13-1.83-1.64-4.16-2.03-6.33-.89-4.94-2.7-9.43-5.9-13.31-1.82-2.21-2.28-4.51-1.87-7.42 1.51-10.77 2.23-21.59-.41-32.32-1.66-6.75-.14-13.34.77-19.97.95-6.98 1.96-13.95 3.11-20.9.37-2.28 1.08-4.54 1.9-6.71 1.39-3.65 3.22-7.15 4.47-10.85 2.41-7.18 6.19-13.28 12.5-17.69.97-.67 1.77-1.74 2.34-2.79 9.11-16.75 17.01-34.04 20.68-52.85 1.2-6.14.74-12.68.48-19.01-.59-13.97-1.49-27.94-2.38-41.89-.1-1.59-.79-3.2-1.47-4.68-7.43-16.43-12.61-33.44-13.47-51.57-.09-1.85.28-3.72.47-5.98z"/><path d="m180.05 83.82c-6.81-1.97-7.7-7.63-9.1-13.07-1.86-7.25-3.54-14.59-6.1-21.6-2.44-6.68-.88-12.87.52-20.53 3.16 3.19 6.14 5.44 8.15 8.36 7.1 10.36 13.41 21.26 16.53 33.51 2.75 10.81 4.66 21.83 6.77 32.8.75 3.92.06 7.71-1.94 11.34-.91 1.64-1.2 3.78-1.24 5.71-.08 3.91-.16 7.88.38 11.73 1.33 9.49-.76 18.27-4.13 27.09-4.78 12.52-8.9 25.29-13.39 37.92-.66 1.86-1.61 3.69-2.74 5.31-6.67 9.53-13.51 18.95-20.08 28.54-.99 1.45-.93 3.64-1.28 5.5-.07.4.2.86.32 1.29 2.13 7.13 2.29 14.15-.52 21.23-4.19 10.56-2.97 21.22-.32 31.96 5.53 22.45 10.83 44.95 16.3 67.69-2.24 1.03-4.44 2.04-6.92 3.18-3.66-5.48-6.97-11.07-10.9-16.17-10.03-13.03-13.16-28.02-13.25-43.98-.01-1.12-.13-2.26.02-3.35.83-5.88-.85-10.92-4.57-15.52-1.09-1.35-1.63-3.38-1.86-5.17-2.06-15.78 1.48-30.91 5.62-45.94 1.66-6.03 3.66-11.97 5.25-18.02 1.52-5.77 4-10.84 8.85-14.55 3.45-2.64 5.42-6.05 5.59-10.5.19-5.16 2.46-9.66 4.7-14.18 4.26-8.61 8.06-17.46 12.61-25.92 5.52-10.26 6.43-21.1 4.87-32.23-1.53-10.76-2.32-21.37 1.86-32.43z"/><path d="m128.3 71.41c1.48 8.71-8.71 15.33-15.16 13.14-1.25-.42-2.47-1.33-3.35-2.32-5.26-5.9-5.19-13.54-6.49-20.7-.68-3.7-2.29-7.99-1.07-11.05 1.17-2.93 5.44-4.64 8.37-6.86 3.92-2.97 4.15-2.97 7.71.43 5.71 5.47 7.54 12.72 9.06 20.08.47 2.39.62 4.85.93 7.28z"/><path d="m302.92 106.12c1.46 4.16 3.12 8.25 4.32 12.48 1.13 3.97 1.92 8.04 2.61 12.11.73 4.33.7 8.57-.94 12.86-2.35 6.15-4.06 12.54-6.38 18.7-.72 1.92-2.45 4.67-3.91 4.79-1.83.16-4.36-1.59-5.69-3.24-3.7-4.6-3-10.32-3.11-15.78 4.74-3.89 1.39-8.06.5-12.18-.28-1.27-.59-2.82-.12-3.91 3.71-8.59 7.6-17.1 11.44-25.64.43-.05.85-.12 1.28-.19z"/><path d="m100.32 163.73c1.96-8.31 3.76-16.81 6.04-25.18 1.09-3.99 6.04-4.95 8.95-2.05 1.17 1.17 2.3 2.51 3 3.99 4.06 8.64 5.21 17.69 3.53 27.1-.12.64-.29 1.45-.74 1.83-4.24 3.58-8.12 7.9-14.21 8.08-1.07.03-2.82-.93-3.14-1.83-1.33-3.71-2.23-7.59-3.43-11.94z"/><path d="m253.98 231.4c6.36 5.78 7.33 12.78 6.11 20.02-1.44 8.56-3.67 16.99-5.49 25.49-.89 4.18-4.74 2.8-7.22 3.96-2.18 1.02-2.88-.97-3.79-2.28-2.53-3.63-2.59-7.64-1.95-11.86 1.89-12.42 7.53-23.48 12.34-35.33z"/><path d="m88.15 283.57c3.97.94 6.15 3.72 7.47 6.88 1.89 4.5 3.61 9.16 4.53 13.93.52 2.72-.55 5.81-1.19 8.67-.62 2.81-1.81 5.5-2.35 8.32-.44 2.29-1.6 2.99-3.7 2.78-4.1-.41-5.82-2.07-6.44-6.12-1.04-6.83-2.19-13.65-3.13-20.5-.2-1.46 0-3.12.54-4.49 1.24-3.2 2.8-6.27 4.27-9.47z"/></g><path d="m385.2 377.6.6-.7c.6.4 1.3.9 1.9 1.5l-.6.7c-.8-.5-1.4-1-1.9-1.5zm.3 7.1c.6-1.4 1.1-2.9 1.5-4.5.3.1.6.3.9.4-.5 1.4-1 2.9-1.5 4.4zm.2-10.1.6-.6c.7.5 1.3 1.1 1.9 1.6l-.7.7c-.6-.6-1.2-1.2-1.8-1.7zm8.4-.8h.8v.9h1.8v.7h-1.8v1.8h-.8v-.3h-1.2v.9h3.3v2.6h-.8v-.4h-2.5c0 .3 0 .6-.1.8h3.4v.7h-3.5c0 .3-.1.6-.1.8h4v.7h-3.5c.7.9 1.9 1.3 3.6 1.5-.2.2-.4.5-.6.9-1.9-.3-3.2-1.1-3.8-2.3-.5 1.1-1.8 2-3.9 2.4-.2-.3-.4-.5-.6-.8 1.9-.4 3.1-.9 3.6-1.7h-3.2v-.7h3.5c.1-.2.1-.5.2-.8h-3.3v-.7h3.4c0-.2 0-.5 0-.8h-2.4v.3h-.8v-2.6h3.3v-.9h-1.2v.3h-.8v-1.8h-1.8v-.7h1.8v-.9h.8v.9h3.2zm-4.4 5.5h2.4c0-.3 0-.6 0-.9h-2.4zm1.2-3.1h3.2v-.8h-3.2zm4.4 2.2h-2.4v.9h2.5v-.9z" fill="#fcfbfa"/><path d="m389.2 385.8h.9v1.5h1.9v-1.5h.9v1.5h2.7v6h1.1v.9h-11.3v-.9h1.1v-6h2.7zm.2 8.7.5.8c-1.2.6-2.5 1.3-4 1.9-.2-.3-.3-.6-.6-.8 1.6-.6 3-1.3 4.1-1.9zm-2-4.3h1.9v-2.1h-1.9zm0 3.1h1.9v-2.2h-1.9zm2.7-3.1h1.9v-2.1h-1.9zm0 3.1h1.9v-2.2h-1.9zm2.4 1.3c1.4.6 2.7 1.2 4.1 1.8l-.5.9c-1.5-.7-2.8-1.4-4.1-1.9zm2.2-6.5h-1.9v2.1h1.9zm-1.9 5.2h1.9v-2.2h-1.9z" fill="#fcfbfa"/></svg>