<svg enable-background="new 0 0 400 400" viewBox="0 0 400 400" xmlns="http://www.w3.org/2000/svg"><g fill="#010104"><path d="m269.05 329.2c-2.76.81-5.41 1.59-8.4 2.48-2.37-7.19-4.43-14.25-7.01-21.11-12.96-34.47-15.39-70.4-14.65-106.7.28-13.62.98-27.33 2.91-40.8 1.67-11.67 5.36-23.05 8.15-34.56 2.06-8.49 4.12-16.97 3.11-25.83-1.33-11.63-4.82-15.4-17.3-18.49-6.77-1.68-13.6-.79-20.29.78-8.16 1.91-16.29 3.94-24.4 6.04-5.07 1.32-9.85 3.12-14.39 6.04-10.04 6.46-21.57 9.19-33.17 11.08-7.91 1.29-15.98 1.65-24 2.03-1.84.09-4.19-.99-5.55-2.32-6.63-6.47-13.82-12.61-17.34-21.51-1.48-3.75-2-7.89-2.95-11.85.29-.36.59-.71.88-1.07 4.27.97 8.56 1.88 12.81 2.94 5.62 1.41 11.15 3.24 16.83 4.34 7.84 1.52 15.27-1.36 22.78-2.96 21.21-4.51 42.33-9.45 63.6-13.61 5.3-1.04 11.13-.19 16.6.61 10.2 1.48 20.12 4.09 29.33 9.01 14.07 7.52 19.69 19.22 18.26 34.96-1.15 12.72-4.83 24.82-8.79 36.77-8.95 26.99-10 54.56-7.96 82.56 1.47 20.19 2.47 40.42 3.78 60.63.13 1.94.48 4.11 1.48 5.71 4.72 7.58 6.68 15.66 5.74 24.56-.36 3.31-.06 6.7-.06 10.27z"/><path d="m157.28 197.64c3.14-2.07 6.15-2.44 9.61-1.07 8.2 3.24 16.75 5.68 24.7 9.43 10.24 4.83 14.32 14.09 15.77 24.91 1.4 10.35-.7 20.33-3.02 30.21-6.85 29.22-10.46 58.98-15.21 88.55-1.01 6.29-2.16 12.56-3.24 18.84-1.01 5.92.17 5.28-6.78 6.02-.66-7.11-1.35-14.21-1.99-21.32-1.27-14.15-2.54-28.3-3.69-42.46-.11-1.29.6-2.66.98-3.98.51-1.77 1.86-3.73 1.48-5.27-2.49-10.06-1.27-20.28-1.66-30.42-.57-14.42-.65-28.86-1.11-43.29-.21-6.63-3.4-12.16-7.74-16.9-3.1-3.39-6.76-6.26-7.78-11.05-.14-.76-.21-1.52-.32-2.2z"/><path d="m87 39.97c8.1-.26 16.21-.87 24.29-.68 10.27.24 19.84-2.97 29.62-5.14 12.54-2.78 24.97-6.07 37.54-8.72 3.97-.84 8.24-.63 12.35-.37 18 1.11 35.8 3.68 53.3 8.06 6.78 1.7 13.13 4.46 18.29 9.41 6.27 6.02 7.95 13.4 6.59 21.52-.34.29-.41.41-.51.42-8.69 1.74-8.78 1.78-13.11-6.18-1.19-2.2-2.69-3.23-5.07-3.68-9.87-1.87-19.66-4.4-29.61-5.65-5.4-.67-11.15.32-16.6 1.33-18.01 3.33-35.93 7.22-53.95 10.5-14.2 2.59-28.19 1.66-40.98-5.73-7.67-4.43-14.91-9.62-22.35-14.46.08-.21.14-.42.2-.63z"/><path d="m304.32 301.5c-1.28-6.56-3.21-12.71-3.56-18.95-.86-15.4-.77-30.84-1.53-46.25-.42-8.46-1.55-16.91-2.78-25.31-1.06-7.29-5.25-13.2-9.66-18.88-1.3-1.68-3-3.08-4.09-4.87-1.89-3.12-3.76-6.32-5.02-9.72-.65-1.75-.72-5.09.29-5.8 2.42-1.71 4.95-3.86 8.8-2.46 16.3 5.92 30.15 15.04 40.11 29.48.96 1.39 1.59 3.19 1.83 4.88 1.36 9.73 2.6 19.48 3.76 29.24.22 1.82.21 3.8-.28 5.55-5.32 19.14-10.74 38.26-16.21 57.36-.27.93-1.05 2.09-1.89 2.43-2.87 1.15-5.87 2.01-9.77 3.3z"/><path d="m60.13 128.76h4.63c13.1 0 26.2-.33 39.28.1 12.78.42 25.14-2.21 37.6-4.12 18.45-2.82 36.86-5.98 55.34-8.63 3.52-.5 7.38.29 10.87 1.27 1.38.39 2.64 2.79 3.08 4.5.51 1.99-.49 3.56-2.85 4.47-16.13 6.28-32.03 13.17-48.31 19.01-15.71 5.64-31.96 9.47-48.85 9.11-12.26-.26-23.84-3.43-34.72-9.09-.49-.26-1.02-.52-1.39-.91-4.66-4.96-9.3-9.94-14.68-15.71z"/></g><path d="m385.2 377.6.6-.7c.6.4 1.3.9 1.9 1.5l-.6.7c-.8-.5-1.4-1-1.9-1.5zm.3 7.1c.6-1.4 1.1-2.9 1.5-4.5.3.1.6.3.9.4-.5 1.4-1 2.9-1.5 4.4zm.2-10.1.6-.6c.7.5 1.3 1.1 1.9 1.6l-.7.7c-.6-.6-1.2-1.2-1.8-1.7zm8.4-.8h.8v.9h1.8v.7h-1.8v1.8h-.8v-.3h-1.2v.9h3.3v2.6h-.8v-.4h-2.5c0 .3 0 .6-.1.8h3.4v.7h-3.5c0 .3-.1.6-.1.8h4v.7h-3.5c.7.9 1.9 1.3 3.6 1.5-.2.2-.4.5-.6.9-1.9-.3-3.2-1.1-3.8-2.3-.5 1.1-1.8 2-3.9 2.4-.2-.3-.4-.5-.6-.8 1.9-.4 3.1-.9 3.6-1.7h-3.2v-.7h3.5c.1-.2.1-.5.2-.8h-3.3v-.7h3.4c0-.2 0-.5 0-.8h-2.4v.3h-.8v-2.6h3.3v-.9h-1.2v.3h-.8v-1.8h-1.8v-.7h1.8v-.9h.8v.9h3.2zm-4.4 5.5h2.4c0-.3 0-.6 0-.9h-2.4zm1.2-3.1h3.2v-.8h-3.2zm4.4 2.2h-2.4v.9h2.5v-.9z" fill="#fcfbfa"/><path d="m389.2 385.8h.9v1.5h1.9v-1.5h.9v1.5h2.7v6h1.1v.9h-11.3v-.9h1.1v-6h2.7zm.2 8.7.5.8c-1.2.6-2.5 1.3-4 1.9-.2-.3-.3-.6-.6-.8 1.6-.6 3-1.3 4.1-1.9zm-2-4.3h1.9v-2.1h-1.9zm0 3.1h1.9v-2.2h-1.9zm2.7-3.1h1.9v-2.1h-1.9zm0 3.1h1.9v-2.2h-1.9zm2.4 1.3c1.4.6 2.7 1.2 4.1 1.8l-.5.9c-1.5-.7-2.8-1.4-4.1-1.9zm2.2-6.5h-1.9v2.1h1.9zm-1.9 5.2h1.9v-2.2h-1.9z" fill="#fcfbfa"/></svg>