<svg enable-background="new 0 0 400 400" viewBox="0 0 400 400" xmlns="http://www.w3.org/2000/svg"><g fill="#010104"><path d="m341.05 373.25c-6.85 1.71-6.85 1.71-10.49-4.17-9.13-14.74-18.21-29.5-27.46-44.16-.97-1.53-2.85-2.57-4.46-3.6-2.49-1.6-5.37-2.68-7.62-4.53-3.97-3.26-7.84-6.72-11.32-10.49-14.64-15.9-31.55-28.64-50.95-38.25-11.31-5.6-22.22-12.01-33.28-18.12-1.65-.91-3.44-1.85-4.64-3.23-4.79-5.49-10.99-5.88-17.47-5.07-5.2.65-10.33 1.88-15.53 2.58-2.74.37-5.59.39-8.35.15-11.54-.98-16.82-11.42-17.11-21.17-.29-9.57 1-19.19 1.61-28.79.03-.43.1-.97.37-1.26 4.81-5.22 5.23-11.86 6.2-18.4 2.28-15.36 4.81-30.69 7.15-46.05 1.78-11.65 1.43-23.34-2.02-34.56-1.94-6.31-5.69-12.08-8.73-18.03-5.91-11.56-15.76-18.63-27.38-23.52-8.25-3.47-12.73-9.85-14.82-18.25-.13-.54-.24-1.09-.29-1.65-.03-.31.06-.64.2-1.81 6.37 1.61 12.67 2.91 18.79 4.8 15.49 4.79 30.68 10.39 45.03 18.08 4.52 2.42 7.74 5.5 9.32 10.67 2.25 7.36 5.34 14.46 7.89 21.73.56 1.6.82 3.57.43 5.18-.84 3.44-.24 6.45.92 9.73 2.37 6.71 4.78 13.49 6.13 20.45.83 4.23.28 8.96-.62 13.26-3.75 17.82-7.98 35.54-11.78 53.35-.88 4.11-.77 8.44-1.01 12.68-.14 2.54.88 4.2 3.35 5.51 22.61 12 45.37 23.76 67.58 36.47 9.43 5.39 17.92 12.56 26.39 19.47 16.48 13.46 32.18 27.84 46.38 43.71 16.89 18.89 26.32 41.04 27.85 66.43.01.21-.13.43-.26.86z"/><path d="m274.96 366.28c-3.11-.68-6.32-.9-9.11-2.1-6.86-2.94-13.63-6.01-19.37-11.1-8.67-7.7-18.69-13.46-29.24-18.14-26.19-11.61-51.09-25.63-76.17-39.39-7.26-3.98-15.36-6.54-23.26-9.18-6.51-2.18-11.9-5.44-15.84-11.75 6.92-2.86 13.65-5.7 20.44-8.4.7-.28 1.74.14 2.59.37 18.64 5.07 37.28 10.14 55.91 15.28 1.46.4 2.9 1.18 4.13 2.08 27.49 20.19 54.95 40.4 82.39 60.65 7.98 5.89 10.35 12.49 7.53 21.68z"/><path d="m50.52 58.43c3.89-2.27 7.51-4.49 11.25-6.48.79-.42 2.29-.4 3.01.09 4.12 2.81 8.52 5.4 12.02 8.87 4.06 4.03 8.25 7.34 13.77 9.13 7.31 2.37 13.9 6.1 19.23 11.82 5.23 5.61 6.88 12.14 5.04 19.53-1.5 6.04-4.09 11.51-8.09 16.37-7.31 8.88-10.85 19.45-12.9 30.56-1.56 8.45-2.31 17.08-4.21 25.45-2.02 8.92-6.61 16.36-15.47 20.29-1.01.45-2.09.76-3.16 1.07-.84.24-1.71.38-2.61.58 0-3.49-.21-6.8.03-10.08 1.32-17.96 2.91-35.91 4.1-53.88.92-13.89-.15-27.75-2.45-41.46-1.14-6.78-4.44-12.56-9.61-17.26-4.34-3.97-7.7-8.66-9.95-14.6z"/><path d="m343.71 265.78c-8.58 2.62-14.39-.04-20.53-5.92-16.86-16.15-36.67-28.54-56.16-41.24-11.7-7.63-23.33-15.36-36.13-21.15-5.7-2.58-8.11-5.64-10.22-11.05 3.23-3.34 7.03-4.4 11.72-3.61 19.6 3.31 38.83 7.99 56.3 17.71 5.6 3.12 9.92 8.52 14.91 12.78 7.22 6.16 14.74 11.99 21.69 18.43 4.88 4.52 9.52 9.48 13.36 14.9 3.92 5.51 5.14 12.21 5.06 19.15z"/><path d="m183.08 29.78c3.8-1.52 7.29-3 10.86-4.27.93-.33 2.19-.2 3.15.14 11.37 4.03 22.73 8.1 34.05 12.28 1.14.42 2.26 1.44 2.93 2.48 4.01 6.26 5.88 13.33 6.57 20.58 2.22 23.28-.09 46.18-6.17 68.77-1.48 5.48-4.06 8.9-9.88 9.41-.87.08-1.72.43-3.11.8-.9-3.92-2.15-7.73-2.61-11.64-1.34-11.32-2.59-22.65-3.45-34.01-.94-12.49-3.23-24.74-8.61-35.98-2.5-5.22-7.16-9.67-11.6-13.62-4.84-4.3-9.37-8.59-12.13-14.94z"/></g><path d="m385.2 377.6.6-.7c.6.4 1.3.9 1.9 1.5l-.6.7c-.8-.5-1.4-1-1.9-1.5zm.3 7.1c.6-1.4 1.1-2.9 1.5-4.5.3.1.6.3.9.4-.5 1.4-1 2.9-1.5 4.4zm.2-10.1.6-.6c.7.5 1.3 1.1 1.9 1.6l-.7.7c-.6-.6-1.2-1.2-1.8-1.7zm8.4-.8h.8v.9h1.8v.7h-1.8v1.8h-.8v-.3h-1.2v.9h3.3v2.6h-.8v-.4h-2.5c0 .3 0 .6-.1.8h3.4v.7h-3.5c0 .3-.1.6-.1.8h4v.7h-3.5c.7.9 1.9 1.3 3.6 1.5-.2.2-.4.5-.6.9-1.9-.3-3.2-1.1-3.8-2.3-.5 1.1-1.8 2-3.9 2.4-.2-.3-.4-.5-.6-.8 1.9-.4 3.1-.9 3.6-1.7h-3.2v-.7h3.5c.1-.2.1-.5.2-.8h-3.3v-.7h3.4c0-.2 0-.5 0-.8h-2.4v.3h-.8v-2.6h3.3v-.9h-1.2v.3h-.8v-1.8h-1.8v-.7h1.8v-.9h.8v.9h3.2zm-4.4 5.5h2.4c0-.3 0-.6 0-.9h-2.4zm1.2-3.1h3.2v-.8h-3.2zm4.4 2.2h-2.4v.9h2.5v-.9z" fill="#fcfbfa"/><path d="m389.2 385.8h.9v1.5h1.9v-1.5h.9v1.5h2.7v6h1.1v.9h-11.3v-.9h1.1v-6h2.7zm.2 8.7.5.8c-1.2.6-2.5 1.3-4 1.9-.2-.3-.3-.6-.6-.8 1.6-.6 3-1.3 4.1-1.9zm-2-4.3h1.9v-2.1h-1.9zm0 3.1h1.9v-2.2h-1.9zm2.7-3.1h1.9v-2.1h-1.9zm0 3.1h1.9v-2.2h-1.9zm2.4 1.3c1.4.6 2.7 1.2 4.1 1.8l-.5.9c-1.5-.7-2.8-1.4-4.1-1.9zm2.2-6.5h-1.9v2.1h1.9zm-1.9 5.2h1.9v-2.2h-1.9z" fill="#fcfbfa"/></svg>