<svg enable-background="new 0 0 400 400" viewBox="0 0 400 400" xmlns="http://www.w3.org/2000/svg"><g fill="#010102"><path d="m207.95 292.07c-1.03.6-2.16 1.25-3.32 1.93 5.35 5.2 6.31 12.48 2.77 20.17-.32.71-.97 1.53-.82 2.14 1.57 6.39-3.14 10.61-5.19 15.76-.71 1.8-1.16 4.1-.71 5.91 1.5 6.04.44 11.39-3.71 15.91-3.68 4.01-5.45 8.61-5.68 13.94-.13 3.03-1.63 5.24-4.39 6.99-2.12-3.81-2.8-7.73-2.09-11.88 1.31-7.57 3.89-14.97 2.88-22.85-.08-.6.42-1.57.94-1.89 2.58-1.57 2.75-3.89 2.27-6.45-.89-4.76-.77-9.32 2.21-13.45.51-.7 1.01-1.62 1.01-2.44.05-9.57 1.75-19.15-.88-28.69-1.1-4.02-1.17-8.33-1.72-12.5-.07-.53-.02-1.31-.34-1.53-4.14-2.95-4.62-7.74-6.07-12.01-1.46-4.29-3.26-8.39-2.41-13.31.41-2.36-1.11-5.18-2.15-7.63-2.58-6.08-2.66-12.26-.6-18.36 3.14-9.3 6.65-18.48 9.97-27.72.9-2.5 2.52-4 5.12-4.77.93-.28 2.22-1.79 2.13-2.6-.62-5.67 1.13-10.89 3-16 3.8-10.35 1.59-20.53-.3-30.76-.08-.42-.3-.85-.57-1.18-5.75-7.19-8.75-15.78-12.21-24.13-.48-1.16-.76-2.67-.43-3.83.67-2.4 1.75-4.67-.73-6.66 1.54-3.83-1.93-5.89-2.89-8.8-.84-2.54-.21-5.79.46-8.56 2-8.36 4.24-16.67 6.62-24.94.57-1.98 2.33-3.59 3.03-5.55 2.13-5.98 4.02-12.05 5.99-18.09 1.45-4.44 3.63-8.4 7.34-11.37 2.42-1.94 4.25-1.47 4.6 1.6.3 2.6.14 5.44-.62 7.93-2.49 8.18-4.63 16.39-8.87 24.09-6.27 11.37-7.39 24-5.43 36.84.02.11.08.22.07.33-.42 7.69 3.2 14.45 4.73 21.65 1.21 5.69 3.31 10.27 6.43 15.01 4.6 6.98 7.32 15.05 7.4 23.38.05 5.6.38 11.68-3.83 16.69-1.4 1.67-1.51 4.42-2.22 6.67-.36 1.15-.67 2.33-1.15 3.44-5.17 12.12-10.43 24.2-15.52 36.35-1.73 4.13-2.12 8.38-.07 12.66.48 1 .64 2.55.2 3.51-1.39 3.05-.9 5.87.4 8.7 2.16 4.73 4.18 9.54 6.6 14.14 3.77 7.18 5.59 14.7 5.78 22.82.09 3.01 1.85 5.99 2.97 9.39z"/><path d="m159.29 75.71c.84 2.05 2.33 3.94 2.26 5.77-.54 15.82 1.29 31.74-1.91 47.44-.4 1.97-.26 4.65-3.51 4.1-2.06-.35-3.47-3.68-3.19-5.93.15-1.22-.24-2.89-1.04-3.79-2.5-2.85-2.9-5.64-1.37-9.14.58-1.32.23-3.49-.49-4.85-1.14-2.18-1.83-4.16-1.2-6.63 1.07-4.25.76-8.81 3.66-12.66 1-1.33.95-3.64.92-5.5-.06-3.88 1.45-6.66 5.87-8.81z"/><path d="m157.69 240.58c-3.34-3.9-4.29-7.31-3.88-11.19.51-4.86 1.54-9.77-.68-14.52-.18-.38-.19-.9-.1-1.31 2.32-11.3 5.6-22.26 11.52-32.27.16-.26.51-.41.82-.65 2.81 2.2 3.71 4.93 2.53 8.31-.66 1.9-1.35 3.78-1.96 5.7-.86 2.74-1.13 5.3-.61 8.37.62 3.68-.76 7.69-1.19 11.56-.8 7.09-1.33 14.23-2.46 21.26-.27 1.67-2.48 3.03-3.99 4.74z"/><path d="m155.37 297.95c2.96 2.27 3.59 5.4 3.49 8.51-.19 5.75-.82 11.49-1.21 17.24-.05.74.1 1.55.35 2.25.69 1.93.14 3.35-1.73 4.07-2.22.85-2.38 2.33-1.68 4.26 1.9 5.25 1.62 10.37-.49 15.56-.85 2.1-.76 4.56-1.26 6.82-.29 1.34-.89 2.61-1.48 4.26-3.8-3.85-3.66-10.15-.32-13.42-4.91-14.69-2.42-44.41 4.33-49.55z"/><path d="m236.45 248.52c-2.27-18.2-2.38-36.21 6-53.38-6.35-3.97.37-8.51-1.42-13.09 3.88.81 4.66 2.94 4.34 5.56-.26 2.09-.88 4.15-1.44 6.19-.99 3.63-1.33 7.09.36 10.75.66 1.43-.28 3.61-.26 5.29.29 2.46 1.08 4.99.78 7.38-1.17 9.41-2.7 18.78-4.04 28.17-.28 1.99-.41 3.96-4.32 3.13z"/><path d="m246.19 132.7c-3.06 1.89-4.4.23-4.98-1.79-2.25-7.81-4.89-15.58-6.21-23.56-1.11-6.74-.62-13.74-.78-20.63-.01-.6.38-1.22.67-2.09 3.22 2.17 3.7 5.47 4.38 8.51 1.88 8.38 3.69 16.79 5.23 25.24.88 4.8 1.16 9.69 1.69 14.32z"/><path d="m243.53 348.06c-6.33.91-5.74-3.55-6.74-6.39-1.06-3.02-3.27-6.16-.1-9.16-1.53-1.78-3.23-3.22-4.2-5.04-1.12-2.09-2.31-4.68.13-6.71 1.8-1.5 6.86-.02 7.75 2.49 1.37 3.86 2.56 7.89 3.05 11.93.51 4.25.11 8.6.11 12.88z"/><path d="m233.01 292.05c3.57.95 4.74 3.46 5.17 6.28.61 3.96.76 7.98 1.36 11.94.42 2.78-.51 4.39-3.13 5.28-1.35.46-2.6 1.21-4.25 2-3.37-8.7-1.46-16.94.85-25.5z"/></g><path d="m385.2 377.6.6-.7c.6.4 1.3.9 1.9 1.5l-.6.7c-.8-.5-1.4-1-1.9-1.5zm.3 7.1c.6-1.4 1.1-2.9 1.5-4.5.3.1.6.3.9.4-.5 1.4-1 2.9-1.5 4.4zm.2-10.1.6-.6c.7.5 1.3 1.1 1.9 1.6l-.7.7c-.6-.6-1.2-1.2-1.8-1.7zm8.4-.8h.8v.9h1.8v.7h-1.8v1.8h-.8v-.3h-1.2v.9h3.3v2.6h-.8v-.4h-2.5c0 .3 0 .6-.1.8h3.4v.7h-3.5c0 .3-.1.6-.1.8h4v.7h-3.5c.7.9 1.9 1.3 3.6 1.5-.2.2-.4.5-.6.9-1.9-.3-3.2-1.1-3.8-2.3-.5 1.1-1.8 2-3.9 2.4-.2-.3-.4-.5-.6-.8 1.9-.4 3.1-.9 3.6-1.7h-3.2v-.7h3.5c.1-.2.1-.5.2-.8h-3.3v-.7h3.4c0-.2 0-.5 0-.8h-2.4v.3h-.8v-2.6h3.3v-.9h-1.2v.3h-.8v-1.8h-1.8v-.7h1.8v-.9h.8v.9h3.2zm-4.4 5.5h2.4c0-.3 0-.6 0-.9h-2.4zm1.2-3.1h3.2v-.8h-3.2zm4.4 2.2h-2.4v.9h2.5v-.9z" fill="#fcfbfa"/><path d="m389.2 385.8h.9v1.5h1.9v-1.5h.9v1.5h2.7v6h1.1v.9h-11.3v-.9h1.1v-6h2.7zm.2 8.7.5.8c-1.2.6-2.5 1.3-4 1.9-.2-.3-.3-.6-.6-.8 1.6-.6 3-1.3 4.1-1.9zm-2-4.3h1.9v-2.1h-1.9zm0 3.1h1.9v-2.2h-1.9zm2.7-3.1h1.9v-2.1h-1.9zm0 3.1h1.9v-2.2h-1.9zm2.4 1.3c1.4.6 2.7 1.2 4.1 1.8l-.5.9c-1.5-.7-2.8-1.4-4.1-1.9zm2.2-6.5h-1.9v2.1h1.9zm-1.9 5.2h1.9v-2.2h-1.9z" fill="#fcfbfa"/></svg>