<svg enable-background="new 0 0 400 400" viewBox="0 0 400 400" xmlns="http://www.w3.org/2000/svg"><path d="m374.8 390.4.4-.4c.7.5 1.3 1 1.8 1.4l-.5.5c-.5-.6-1.1-1.1-1.7-1.5zm1 7.3-.6-.3c.5-1.4 1.1-2.8 1.5-4.3.2.1.4.2.6.3-.5 1.3-1 2.8-1.5 4.3zm-.4-10.3.4-.4c.4.3 1 .8 1.7 1.4l-.5.5c-.4-.5-1-1-1.6-1.5zm2.5.3h1.7v-1h.6v1h3.5v-1h.6v1h1.8v.5h-1.8v1.4h-2v1h3.2v2h-3.2v.9h3.3v.5h-3.4c0 .3-.1.6-.1.9h4v.5h-3.7c.7.9 1.9 1.5 3.8 1.7-.1.2-.2.4-.3.6-2.1-.4-3.5-1.1-4-2.1-.4 1-1.8 1.7-4 2.2-.1-.2-.2-.4-.3-.6 2.1-.4 3.4-1 3.8-1.8h-3.4v-.5h3.6c.1-.3.1-.6.2-.9h-3.3v-.5h3.4c0-.3 0-.6 0-.9h-3.2v-2h3.3v-1h-2.1v-1.4h-1.7v-.5zm1.1 3.5v1h2.7c0-.3 0-.4 0-.4 0-.1 0-.2 0-.2 0-.1 0-.2 0-.3h-2.7zm1.2-3v.9h3.5v-.9zm4.7 3h-2.6v.6.4h2.6z" fill="#fbfcfa"/><path d="m393.6 386.7h.6v1.5h2.7v6.1h1.1v.6h-11v-.6h1.1v-6.1h2.7v-1.5h.6v1.5h2.1v-1.5zm-2.7 8.8.4.6c-1.2.6-2.5 1.3-3.8 1.9-.1-.2-.2-.4-.3-.6 1.2-.6 2.5-1.2 3.7-1.9zm-2.2-6.7v2.4h2.1v-2.4zm0 3v2.5h2.1v-2.5zm2.8-3v2.4h2.1v-2.4zm0 3v2.5h2.1v-2.5zm6 6.1c-1.4-.7-2.7-1.3-3.9-1.8l.3-.6c1.5.6 2.7 1.2 3.9 1.7zm-1.2-9.1h-2.1v2.4h2.1zm-2.1 3v2.5h2.1v-2.5z" fill="#fbfcfa"/><g fill="#010106"><path d="m169.3 301.14c1.6-6.12 3.11-12.27 4.82-18.35.88-3.11 2.1-6.12 3.21-9.17 2.78-7.63 4.39-15.4 3.92-23.62-.17-3.03.48-6.2 1.26-9.17 4.41-16.96 8.69-33.96 13.58-50.78 3.05-10.49 6.97-20.73 10.8-30.97 1.64-4.38 2.72-8.71 2.31-13.37-.5-5.79.56-11.29 2.75-16.67 1.64-4.03 2.52-8.38 4.36-12.31 5.65-12.08 3.55-23.84-1.4-35.33-2.55-5.92-6-11.47-9.29-17.04-6.12-10.4-10.8-21.27-12.6-33.32-.45-3 1.8-3.41 3.17-4.83 1.43-1.48 2.69-.88 4.17-.12 8.16 4.24 14.79 10.35 19.41 18.11 5.98 10.05 11.05 20.64 16.49 31 .41.79.89 1.65.94 2.5.36 6.05 2.58 11.15 7.13 15.28.58.52.53 2.1.3 3.08-2.64 11.08-5.36 22.15-8.09 33.21-.21.85-.51 1.74-1.01 2.45-10.89 15.48-16.54 33.18-20.68 51.29-5.22 22.86-9.51 45.94-14.23 68.92-.2.97-.4 2.04-.96 2.81-5.13 7.08-6.4 15.24-7.14 23.68-.82 9.46-2.23 18.88-3.07 28.34-.23 2.65.13 5.61 1.14 8.05 5.26 12.81 11 25.43 16.17 38.27 1.93 4.81 3.14 10 3.97 15.13.66 4.1-1.05 6.16-4.19 6.93-3.72.92-5.92-.09-7.88-3.6-1.79-3.22-3.42-6.55-5.41-9.64-10.15-15.76-16.39-33.17-21.73-50.96-.42-1.39-.82-2.8-1.02-4.22-.25-1.77-.28-3.56-.41-5.35-.27-.08-.53-.15-.79-.23z"/><path d="m234.39 299.78c2.02 2.77 4.57 5.64 6.41 8.9 5.96 10.59 9.94 21.93 11.99 33.94.47 2.75.02 4.43-3.1 5.45-7.83 2.57-7.89 2.83-12.37-4.41-5.42-8.77-10.31-17.8-11.44-28.32-.06-.56-.11-1.11-.13-1.67-.2-6.14.52-11.77 8.64-13.89z"/><path d="m179.71 95.19c-7.29 0-7.23-.03-10.05-6.88-2.89-7.01-6.12-13.89-8.82-20.97-1.17-3.08-1.16-6.59-2.09-9.78-.99-3.39 1.23-4.92 3.43-5.96 1.17-.56 3.41-.02 4.61.82 13.4 9.28 21.16 21.76 21.33 38.44.03 3.37-1.21 4.94-4.73 4.36-1.19-.2-2.45-.03-3.68-.03z"/><path d="m127.58 329.46c7.49-.89 14.94 3.2 17.91 10.04 3.48 7.99 4.28 16.31 2.35 25.08-3.72.32-7.37.74-11.03.85-.85.03-2.08-.81-2.56-1.6-6.4-10.66-8.29-22.19-6.67-34.37z"/><path d="m253.43 28.86c5.15.77 8.26 3.29 10.08 7.02 4.41 9.06 5.55 18.82 4.33 28.69-.24 1.94-3.21 4.53-5.34 5.03-3.05.71-6.13-1.1-7.8-4.03-4.06-7.17-4.82-15.04-3.98-23.03.5-4.58 1.78-9.07 2.71-13.68z"/></g></svg>