<svg viewBox="0 0 400 400" xmlns="http://www.w3.org/2000/svg"><rect width="400" height="400" fill="white" /><path d="m180.61 373.6c1.02-8.04 2.06-16.07 3.03-24.12.12-.97 0-2.01-.23-2.97-2.5-10.07-2.18-20.09 0-30.18.46-2.13-.1-4.49-.26-6.74-.06-.76-.53-1.52-.49-2.26.49-8.92 1.03-17.85 1.58-26.77.06-1 .55-2.08.32-2.98-2.51-9.63 1.17-19.07.81-28.64-.27-7.38-.11-14.77-.28-22.16-.03-1.08-.73-2.21-1.31-3.2-.5-.85-1.57-1.43-1.91-2.31-4.34-11.15-14.55-17.37-21.78-26.08-.63-.76-1.31-1.53-1.74-2.41-1.91-3.99-4.07-7.9-5.49-12.06-1.13-3.31-2.01-6.97-1.81-10.41.62-10.58 3.48-20.7 8.03-30.28 1.99-4.18 4.34-8.2 6.61-12.25.41-.74 1.19-1.28 1.82-1.88 3.37-3.22 6.79-6.38 10.12-9.64 6.14-6.02 12.06-12.29 18.39-18.1 5.34-4.9 8.4-10.31 8.07-17.87-.44-10.28-.04-20.6-.16-30.89-.03-2.97-.49-5.96-1.01-8.9-.63-3.59.59-9.46 3.82-15.37 1.72 5.84 3.34 10.94 4.71 16.12.59 2.25.26 4.77 1.03 6.93 1.64 4.63 2.16 9.19 2.49 14.15.62 9.35-1.36 18.23-2.14 27.31-.19 2.26-.75 3.62-3.27 3.32-.67 2.81-1.53 5.39-1.84 8.02-.58 5-2.81 8.84-7.13 11.4-2.48 1.47-2.74 3.37-2.33 6.19.96 6.73 4.78 11.93 8.14 17.46.86 1.42.7 3.45 1.15 5.16.28 1.07.66 2.2 1.3 3.08 1.99 2.77 4.3 5.32 6.15 8.18 2.72 4.22 4.79 8.89 7.79 12.89 5.75 7.66 7.61 17.13 12.39 25.19 2.08 3.51 4.29 6.96 6.61 10.32 1.46 2.12 1.01 3.21-2.31 4.68-1.87-1.61-3.8-3.12-5.55-4.83-1.26-1.23-2.84-2.55-3.26-4.11-1.12-4.1-3.95-6.87-6.44-10.02-3.08-3.91-5.88-8.08-8.5-12.32-4.11-6.64-8.03-13.4-11.89-20.18-1.32-2.31-2.36-4.8-3.28-7.31-2.88-7.85-5.69-15.73-8.44-23.63-1.2-3.44-2.93-4.02-5.34-1.5-7.92 8.26-15.33 16.92-20.49 27.25-3.62 7.24-4.4 14.95-3.19 22.89.12.76.24 1.69.72 2.18 3.6 3.7 4.59 8.58 6.31 13.18.95 2.55 2.28 5.18 4.13 7.12 8.36 8.77 14.46 19.11 20.15 29.59 2.32 4.28 2.61 9.88 3 14.95.44 5.85-.48 11.8-.02 17.65.78 9.82-.6 19.39-1.81 29.06-.99 7.85-.83 15.85-1.64 23.73-.84 8.19-2.26 16.33-3.39 24.49-1.15 8.32-2.4 16.63-3.31 24.98-.61 5.55-2.06 10.66-5.45 15.1-.39-.04-.79-.12-1.18-.2z" fill="#010102"/><g fill="#fcfbfa"><path d="m385.2 377.6.6-.7c.6.4 1.3.9 1.9 1.5l-.6.7c-.8-.5-1.4-1-1.9-1.5zm.3 7.1c.6-1.4 1.1-2.9 1.5-4.5.3.1.6.3.9.4-.5 1.4-1 2.9-1.5 4.4zm.2-10.1.6-.6c.7.5 1.3 1.1 1.9 1.6l-.7.7c-.6-.6-1.2-1.2-1.8-1.7zm8.4-.8h.8v.9h1.8v.7h-1.8v1.8h-.8v-.3h-1.2v.9h3.3v2.6h-.8v-.4h-2.5c0 .3 0 .6-.1.8h3.4v.7h-3.5c0 .3-.1.6-.1.8h4v.7h-3.5c.7.9 1.9 1.3 3.6 1.5-.2.2-.4.5-.6.9-1.9-.3-3.2-1.1-3.8-2.3-.5 1.1-1.8 2-3.9 2.4-.2-.3-.4-.5-.6-.8 1.9-.4 3.1-.9 3.6-1.7h-3.2v-.7h3.5c.1-.2.1-.5.2-.8h-3.3v-.7h3.4c0-.2 0-.5 0-.8h-2.4v.3h-.8v-2.6h3.3v-.9h-1.2v.3h-.8v-1.8h-1.8v-.7h1.8v-.9h.8v.9h3.2zm-4.4 5.5h2.4c0-.3 0-.6 0-.9h-2.4zm1.2-3.1h3.2v-.8h-3.2zm4.4 2.2h-2.4v.9h2.5v-.9z"/><path d="m389.2 385.8h.9v1.5h1.9v-1.5h.9v1.5h2.7v6h1.1v.9h-11.3v-.9h1.1v-6h2.7zm.2 8.7.5.8c-1.2.6-2.5 1.3-4 1.9-.2-.3-.3-.6-.6-.8 1.6-.6 3-1.3 4.1-1.9zm-2-4.3h1.9v-2.1h-1.9zm0 3.1h1.9v-2.2h-1.9zm2.7-3.1h1.9v-2.1h-1.9zm0 3.1h1.9v-2.2h-1.9zm2.4 1.3c1.4.6 2.7 1.2 4.1 1.8l-.5.9c-1.5-.7-2.8-1.4-4.1-1.9zm2.2-6.5h-1.9v2.1h1.9zm-1.9 5.2h1.9v-2.2h-1.9z"/></g></svg>