<svg viewBox="0 0 400 400" xmlns="http://www.w3.org/2000/svg"><rect width="400" height="400" fill="white" /><path d="m155.6 376.21c2.43-10.04 4.57-19.06 6.83-28.05.29-1.14 1.09-2.19 1.83-3.15 12.9-16.79 16.7-35.46 11.81-56.01-3.72-15.64-3.49-31.06 1.25-46.65 3.16-10.41 10.04-16.11 19.39-20.1 9.83-4.2 20.17-5.62 30.69-6.38 18.02-1.31 27.58-10.31 31.02-28.14 1.02-5.3-.11-8.7-4.34-12-15.97-12.49-32.02-24.79-50.88-32.76-1.85-.78-3.79-1.35-5.71-1.95-7.13-2.22-12.86-1.84-18.77 4.49-10.6 11.35-22.75 21.24-36.52 28.72-9.37 5.09-19.2 6.5-28.91 1.83 20.32-13.37 37.24-31.05 55.88-46.63 17.96-15.01 25.98-34.77 27.22-57.66.06-1.1-.92-2.68-1.89-3.35-14.31-9.82-30.46-13.52-47.55-13.99-8.86-.24-17.64-1.04-25.8-4.99-7.08-3.42-12.46-8.53-16.01-16.12 7.91-1.23 15.57-2.42 23.23-3.6 6.85-1.05 13.68-2.27 20.57-3.03 2.5-.28 5.35.04 7.67 1 9.45 3.91 19.23 5.83 29.42 5.69 10.57-.15 20.31 2.75 28.44 9.34 13.23 10.72 18.17 24.86 14.66 41.57-2.72 12.94-2.95 25.73.85 38.46.43 1.45 1.18 2.89 2.11 4.09 10.23 13.17 22.81 23.6 37.32 31.74 1.95 1.09 3.93 2.12 5.89 3.22 13.08 7.31 18.23 18.02 15.77 32.79-.22 1.32-.59 2.62-.78 3.95-1.41 9.64-6.76 16.19-15.06 21.2-11.54 6.96-23.9 11.43-36.82 14.88-14.4 3.85-26.24 12.13-33.7 24.9-3.99 6.83-5.48 15.28-7.32 23.18-1.91 8.21-1.71 16.64-.32 25.01 1.92 11.52-.61 22.46-6.26 32.33-6.49 11.33-14.01 22.06-21.18 32.99-.61.94-1.85 1.85-2.92 2.02-3.49.55-7.01.75-11.11 1.16z" fill="#010106"/><g fill="#fcfbfa"><path d="m385.2 377.6.6-.7c.6.4 1.3.9 1.9 1.5l-.6.7c-.8-.5-1.4-1-1.9-1.5zm.3 7.1c.6-1.4 1.1-2.9 1.5-4.5.3.1.6.3.9.4-.5 1.4-1 2.9-1.5 4.4zm.2-10.1.6-.6c.7.5 1.3 1.1 1.9 1.6l-.7.7c-.6-.6-1.2-1.2-1.8-1.7zm8.4-.8h.8v.9h1.8v.7h-1.8v1.8h-.8v-.3h-1.2v.9h3.3v2.6h-.8v-.4h-2.5c0 .3 0 .6-.1.8h3.4v.7h-3.5c0 .3-.1.6-.1.8h4v.7h-3.5c.7.9 1.9 1.3 3.6 1.5-.2.2-.4.5-.6.9-1.9-.3-3.2-1.1-3.8-2.3-.5 1.1-1.8 2-3.9 2.4-.2-.3-.4-.5-.6-.8 1.9-.4 3.1-.9 3.6-1.7h-3.2v-.7h3.5c.1-.2.1-.5.2-.8h-3.3v-.7h3.4c0-.2 0-.5 0-.8h-2.4v.3h-.8v-2.6h3.3v-.9h-1.2v.3h-.8v-1.8h-1.8v-.7h1.8v-.9h.8v.9h3.2zm-4.4 5.5h2.4c0-.3 0-.6 0-.9h-2.4zm1.2-3.1h3.2v-.8h-3.2zm4.4 2.2h-2.4v.9h2.5v-.9z"/><path d="m389.2 385.8h.9v1.5h1.9v-1.5h.9v1.5h2.7v6h1.1v.9h-11.3v-.9h1.1v-6h2.7zm.2 8.7.5.8c-1.2.6-2.5 1.3-4 1.9-.2-.3-.3-.6-.6-.8 1.6-.6 3-1.3 4.1-1.9zm-2-4.3h1.9v-2.1h-1.9zm0 3.1h1.9v-2.2h-1.9zm2.7-3.1h1.9v-2.1h-1.9zm0 3.1h1.9v-2.2h-1.9zm2.4 1.3c1.4.6 2.7 1.2 4.1 1.8l-.5.9c-1.5-.7-2.8-1.4-4.1-1.9zm2.2-6.5h-1.9v2.1h1.9zm-1.9 5.2h1.9v-2.2h-1.9z"/></g></svg>