<svg viewBox="0 0 400 400" xmlns="http://www.w3.org/2000/svg"><rect width="400" height="400" fill="white" /><path d="m136.79 375.31c-.99-3.2.12-4.99 2.6-6.94 15.54-12.21 29.1-26.12 37.28-44.56 3.28-7.39 3.64-15.15 3.66-22.99.03-12.6-2.39-24.88-4.85-37.18-2.68-13.39-1.66-26.73 4.1-39.06 2.4-5.13 7.27-9.28 11.54-13.31 11.56-10.91 25.32-18.3 40.22-23.56 22.08-7.8 28.98-23.76 24.5-45.26-1.88-9.02-5.47-17.68-8.39-26.48-.27-.8-1.28-1.37-1.97-2.01-.15-.14-.41-.16-.62-.24-3.68-1.32-7.63-4.13-10.96-3.52-3.27.6-5.91 4.66-8.83 7.21-22.16 19.36-45.86 36.49-72.67 48.91-8.91 4.13-18.13 7.49-26.36 13.06-4.77 3.23-9.67.56-14.56-1.15.45-3.98 1.6-6.97 5.22-9.42 24.89-16.9 49.59-34.07 74.35-51.16.64-.44 1.36-.83 1.89-1.38 10.17-10.54 20.31-21.1 30.24-31.43-13.02-9.44-25.94-18.67-38.69-28.12-5.76-4.28-11.02-9.17-14.46-15.65-.78-1.47-1.4-3.05-1.84-4.65-1.49-5.41-.5-6.75 4.64-8.96 8.04-3.46 15.67-.6 23.24 1.28 15.06 3.75 27.58 11.97 38.07 23.32 13.58 14.7 25.2 30.81 34.32 48.65 1.3 2.54 1.97 5.41 2.84 8.16 2.8 8.81 5.68 17.6 8.29 26.46 2.46 8.37 4.83 16.8 3.67 25.71-.83 6.36-2.92 12.09-7.72 16.67-4.12 3.94-7.97 8.17-12.01 12.19-1.09 1.09-2.36 2.07-3.7 2.84-10.66 6.13-21.29 12.31-32.05 18.26-11.35 6.28-21.21 14.13-28.06 25.33-.67 1.09-1.38 2.48-1.28 3.66.63 6.8-1.05 13.17-3.8 19.18-3.16 6.92-2.5 13.78-1.29 20.93 2.34 13.78 4.69 27.57 6.28 41.44.85 7.43-2.92 13.87-7.72 19.39-2.41 2.76-5.36 5.06-8.1 7.53-7.47 6.74-14.87 13.56-22.47 20.15-7.01 6.06-15 9.2-24.55 6.7z" fill="#010106"/><g fill="#fcfbfa"><path d="m385.2 377.6.6-.7c.6.4 1.3.9 1.9 1.5l-.6.7c-.8-.5-1.4-1-1.9-1.5zm.3 7.1c.6-1.4 1.1-2.9 1.5-4.5.3.1.6.3.9.4-.5 1.4-1 2.9-1.5 4.4zm.2-10.1.6-.6c.7.5 1.3 1.1 1.9 1.6l-.7.7c-.6-.6-1.2-1.2-1.8-1.7zm8.4-.8h.8v.9h1.8v.7h-1.8v1.8h-.8v-.3h-1.2v.9h3.3v2.6h-.8v-.4h-2.5c0 .3 0 .6-.1.8h3.4v.7h-3.5c0 .3-.1.6-.1.8h4v.7h-3.5c.7.9 1.9 1.3 3.6 1.5-.2.2-.4.5-.6.9-1.9-.3-3.2-1.1-3.8-2.3-.5 1.1-1.8 2-3.9 2.4-.2-.3-.4-.5-.6-.8 1.9-.4 3.1-.9 3.6-1.7h-3.2v-.7h3.5c.1-.2.1-.5.2-.8h-3.3v-.7h3.4c0-.2 0-.5 0-.8h-2.4v.3h-.8v-2.6h3.3v-.9h-1.2v.3h-.8v-1.8h-1.8v-.7h1.8v-.9h.8v.9h3.2zm-4.4 5.5h2.4c0-.3 0-.6 0-.9h-2.4zm1.2-3.1h3.2v-.8h-3.2zm4.4 2.2h-2.4v.9h2.5v-.9z"/><path d="m389.2 385.8h.9v1.5h1.9v-1.5h.9v1.5h2.7v6h1.1v.9h-11.3v-.9h1.1v-6h2.7zm.2 8.7.5.8c-1.2.6-2.5 1.3-4 1.9-.2-.3-.3-.6-.6-.8 1.6-.6 3-1.3 4.1-1.9zm-2-4.3h1.9v-2.1h-1.9zm0 3.1h1.9v-2.2h-1.9zm2.7-3.1h1.9v-2.1h-1.9zm0 3.1h1.9v-2.2h-1.9zm2.4 1.3c1.4.6 2.7 1.2 4.1 1.8l-.5.9c-1.5-.7-2.8-1.4-4.1-1.9zm2.2-6.5h-1.9v2.1h1.9zm-1.9 5.2h1.9v-2.2h-1.9z"/></g></svg>