<svg viewBox="0 0 400 400" xmlns="http://www.w3.org/2000/svg"><rect width="400" height="400" fill="white" /><g fill="#010102"><path d="m185.64 165.4c1.78 3.15 3.06 5.4 4.34 7.66-.15.2-.31.4-.46.6-1.38-.5-2.76-1-4.83-1.75-.11 7.57-.31 14.9-.23 22.23.01 1.09 1.32 2.21 2.14 3.22 2.46 3.04 5.04 5.81 3.67 10.46-.44 1.49 1.1 3.95 2.35 5.44 1.62 1.93 3.86 3.33 5.95 5.06-.84 1.44-1.6 2.74-2.36 4.05 2.46 1.43 5.07 2.4 6.96 4.14 4.37 4.06 6.03 9.41 5.31 15.25-.55 4.53-1.33 9.1-2.7 13.43-1.05 3.3-3.19 6.25-4.93 9.52 3.1 3.46 2.96 5.28-.56 9.27-4.05 4.58-8.18 9.14-11.78 14.07-1.72 2.35-2.27 5.53-3.39 8.33-1.39 3.47-2.97 4.59-6.71 4.86-1.29-6.03 3.78-14.93 9.49-17.33 2.1-9.11 6.28-16.6 13.36-22.18 2.52-1.99 2.64-3.89 1.02-5.92-2.68-3.34-3.34-6.84-2.43-10.96.86-3.87-.28-7.54-2.12-10.97-2.54-4.72-5.26-9.35-7.69-14.12-4.49-8.8-9-17.61-13.07-26.61-.76-1.69.19-4.37.85-6.43.81-2.51 2.31-4.8 3.22-7.29 1.54-4.35 2.88-8.78 4.6-14.03z"/><path d="m175.58 305.64c6.32 2.41 8.17 5.53 7.11 11.47-.88 4.93-.53 9.41 1.71 14.24 5.46 11.75 8.44 24.23 8.13 37.32-.02 1-.01 2.05-.3 2.99-.35 1.15-.99 2.21-1.51 3.31-.62-1.03-1.55-1.98-1.82-3.09-1.56-6.28-2.89-12.63-4.48-18.9-.54-2.12-1.84-4.05-2.39-6.16-.98-3.74-1.83-7.54-2.42-11.36-1.36-8.72-2.54-17.47-3.78-26.21-.16-1.08-.16-2.19-.25-3.61z"/><path d="m176.76 133.49c-3.39-1.96-3.13-5.31-.98-9.85.92-1.94 1.45-4.08 2.07-6.15.91-3.05 1.43-6.26 2.66-9.18 3.68-8.71 7.66-17.29 11.46-25.95 1.24-2.83 4.4-3.88 6.92-2.12 1.92 1.34 2.1 3.58.03 4.76-3.12 1.78-3.94 4.2-3.85 7.68.06 2.51-.84 5.18-1.89 7.54-1.57 3.56-3.54 6.96-5.53 10.31-3.05 5.14-5.31 10.51-5.94 16.53-.31 3.06-1.82 5.47-4.95 6.43z"/><path d="m213.2 122.17c1.16-.62 1.99-1.23 2.93-1.52 1.07-.33 2.89-.87 3.2-.45.76 1.04 1.21 2.61 1.12 3.92-.09 1.37-.82 2.77-1.5 4.03-3.75 6.98-7.85 13.69-13.69 19.22-1.92 1.82-3.82 2.5-6.9 1.5.95-2.36 1.65-4.66 2.76-6.75 1.92-3.64 3.94-7.26 6.24-10.67.82-1.22 2.46-2.32 3.9-2.61 3.75-.76 4.46-1.81 2.7-5.17-.21-.4-.4-.79-.76-1.5z"/><path d="m203.85 70.95c3.3-3.96 2.74-6.45-.05-9.76-1.5-1.78-3.04-4.2-3.05-6.33-.01-1.79 2.18-3.59 3.65-5.74 4.74 4.64 6.6 9.79 6.83 15.42.35 8.75.95 7.52-7.23 9.79-2.21.61-4.73.09-7.88.09 2.06-3.48.76-7.61 4.91-8.9.97 1.86 1.89 3.64 2.82 5.43z"/><path d="m196.21 25.63c5.7 1.06 9.27 8.37 6.47 14-1.29 2.6-1.91 4.58.93 6.9-1.81.55-3.14.95-4.88 1.48-.07-7.69-6.42-14.22-2.52-22.38z"/><path d="m216.47 95.64c2.65 5.56 2.64 5.6-2.07 10.39-3.82-5.08-4.96-3.2 2.07-10.39z"/><path d="m213.87 116.05c.17-2.35.34-4.7.53-7.29 3.21.38 3.91 2.49 3.49 4.5-.28 1.32-1.96 2.35-3.01 3.51-.34-.24-.67-.48-1.01-.72z"/><path d="m206.88 77.61c2.89.94 4.14 3.81 2.77 5.93-.25.39-.88.78-1.3.75-.36-.03-.92-.63-.98-1.03-.24-1.84-.34-3.69-.49-5.65z"/><path d="m192.46 162.96c-.27-2.29-.47-3.88-.67-5.61 3.12.99 3.31 2.07.67 5.61z"/></g><path d="m385.2 377.6.6-.7c.6.4 1.3.9 1.9 1.5l-.6.7c-.8-.5-1.4-1-1.9-1.5zm.3 7.1c.6-1.4 1.1-2.9 1.5-4.5.3.1.6.3.9.4-.5 1.4-1 2.9-1.5 4.4zm.2-10.1.6-.6c.7.5 1.3 1.1 1.9 1.6l-.7.7c-.6-.6-1.2-1.2-1.8-1.7zm8.4-.8h.8v.9h1.8v.7h-1.8v1.8h-.8v-.3h-1.2v.9h3.3v2.6h-.8v-.4h-2.5c0 .3 0 .6-.1.8h3.4v.7h-3.5c0 .3-.1.6-.1.8h4v.7h-3.5c.7.9 1.9 1.3 3.6 1.5-.2.2-.4.5-.6.9-1.9-.3-3.2-1.1-3.8-2.3-.5 1.1-1.8 2-3.9 2.4-.2-.3-.4-.5-.6-.8 1.9-.4 3.1-.9 3.6-1.7h-3.2v-.7h3.5c.1-.2.1-.5.2-.8h-3.3v-.7h3.4c0-.2 0-.5 0-.8h-2.4v.3h-.8v-2.6h3.3v-.9h-1.2v.3h-.8v-1.8h-1.8v-.7h1.8v-.9h.8v.9h3.2zm-4.4 5.5h2.4c0-.3 0-.6 0-.9h-2.4zm1.2-3.1h3.2v-.8h-3.2zm4.4 2.2h-2.4v.9h2.5v-.9z" fill="#fcfbfa"/><path d="m389.2 385.8h.9v1.5h1.9v-1.5h.9v1.5h2.7v6h1.1v.9h-11.3v-.9h1.1v-6h2.7zm.2 8.7.5.8c-1.2.6-2.5 1.3-4 1.9-.2-.3-.3-.6-.6-.8 1.6-.6 3-1.3 4.1-1.9zm-2-4.3h1.9v-2.1h-1.9zm0 3.1h1.9v-2.2h-1.9zm2.7-3.1h1.9v-2.1h-1.9zm0 3.1h1.9v-2.2h-1.9zm2.4 1.3c1.4.6 2.7 1.2 4.1 1.8l-.5.9c-1.5-.7-2.8-1.4-4.1-1.9zm2.2-6.5h-1.9v2.1h1.9zm-1.9 5.2h1.9v-2.2h-1.9z" fill="#fcfbfa"/></svg>