<svg enable-background="new 0 0 400 400" viewBox="0 0 400 400" xmlns="http://www.w3.org/2000/svg"><path d="m374.8 390.4.4-.4c.7.5 1.3 1 1.8 1.4l-.5.5c-.5-.6-1.1-1.1-1.7-1.5zm1 7.3-.6-.3c.5-1.4 1.1-2.8 1.5-4.3.2.1.4.2.6.3-.5 1.3-1 2.8-1.5 4.3zm-.4-10.3.4-.4c.4.3 1 .8 1.7 1.4l-.5.5c-.4-.5-1-1-1.6-1.5zm2.5.3h1.7v-1h.6v1h3.5v-1h.6v1h1.8v.5h-1.8v1.4h-2v1h3.2v2h-3.2v.9h3.3v.5h-3.4c0 .3-.1.6-.1.9h4v.5h-3.7c.7.9 1.9 1.5 3.8 1.7-.1.2-.2.4-.3.6-2.1-.4-3.5-1.1-4-2.1-.4 1-1.8 1.7-4 2.2-.1-.2-.2-.4-.3-.6 2.1-.4 3.4-1 3.8-1.8h-3.4v-.5h3.6c.1-.3.1-.6.2-.9h-3.3v-.5h3.4c0-.3 0-.6 0-.9h-3.2v-2h3.3v-1h-2.1v-1.4h-1.7v-.5zm1.1 3.5v1h2.7c0-.3 0-.4 0-.4 0-.1 0-.2 0-.2 0-.1 0-.2 0-.3h-2.7zm1.2-3v.9h3.5v-.9zm4.7 3h-2.6v.6.4h2.6z" fill="#fbfcfa"/><path d="m393.6 386.7h.6v1.5h2.7v6.1h1.1v.6h-11v-.6h1.1v-6.1h2.7v-1.5h.6v1.5h2.1v-1.5zm-2.7 8.8.4.6c-1.2.6-2.5 1.3-3.8 1.9-.1-.2-.2-.4-.3-.6 1.2-.6 2.5-1.2 3.7-1.9zm-2.2-6.7v2.4h2.1v-2.4zm0 3v2.5h2.1v-2.5zm2.8-3v2.4h2.1v-2.4zm0 3v2.5h2.1v-2.5zm6 6.1c-1.4-.7-2.7-1.3-3.9-1.8l.3-.6c1.5.6 2.7 1.2 3.9 1.7zm-1.2-9.1h-2.1v2.4h2.1zm-2.1 3v2.5h2.1v-2.5z" fill="#fbfcfa"/><path d="m73.61 348.93c-2.79-9.88-5.35-18.9-7.86-27.93-.2-.71-.28-1.67.04-2.28 3.27-6.26 1.27-12.74.85-19.13-.39-5.91-1.22-11.8-1.63-17.71-.17-2.42-.18-5.01.49-7.3 2.33-8.03.68-15.96-.08-23.94-1.24-12.98-.8-25.93 1.25-38.82.31-1.98.43-4.01.43-6.02.04-11.53.24-23.06-.03-34.59-.43-18.62.28-37.12 3.95-55.43 3.35-16.75 3.38-33.81 4.6-50.76.75-10.38 1.28-20.78 2.03-31.15.07-1.01.85-2.22 1.67-2.86 1.57-1.22 3.41-2.08 5.34-3.22 3.35 4.66 6.49 9.28 9.92 13.66 1.06 1.35 2.81 2.5 4.47 2.98 10.54 3.02 21.27 2.14 31.99 1.17 6.79-.62 13.59-1.31 20.4-1.59 2.72-.11 5.6.41 8.19 1.28 8.73 2.92 17.45 3 26.45 1.33 6.87-1.28 13.9-1.71 20.88-2.35 12-1.1 24.02-1.96 36.01-3.13 5.99-.58 11.91-1.75 17.9-2.39 2.27-.24 4.72-.09 6.92.5 3.07.82 5.73.51 8.17-1.44 2.64-2.11 5.36-2.03 8.44-.97 4.21 1.45 8.5 2.84 12.87 3.63 5.43.99 7.99-.86 9.75-6.16.71-2.12 1.43-4.24 1.93-6.42.56-2.44 1.95-2.61 3.96-1.92 3.4 1.17 5.5 3.62 7.17 6.68 3.38 6.2 2.68 12.73 1.88 19.33-1.11 9.1-2.22 18.21-3.01 27.35-.3 3.42.36 6.91.47 10.37.34 11.4.55 22.81.94 34.21.34 9.73.31 19.35-1.82 28.99-.82 3.73.08 8.02.93 11.9 2.1 9.65 1.79 19.4 1.14 29.07-.54 8.09 1.19 15.75 2.51 23.55.17.99.39 2 .33 2.99-.65 11.28 1.75 22.23 3.46 33.27 2.58 16.66 3.71 33.4-.14 49.98-2.2 9.46-1.77 18.84-1.21 28.33.24 4.1.31 8.3-.28 12.35-.72 4.93-.43 9.57 1.68 14.04.82 1.74.4 2.75-1.07 3.94-6.02 4.88-13.07 7.16-20.52 8.52-4.62.85-9.23 1.76-13.87 2.42-1.58.22-3.41.15-4.86-.45-3.15-1.3-6.2-1.64-9.44-.54-10.87 3.71-22.09 2.61-33.24 2.3-9.61-.27-19.23-.58-28.84-.88-.78-.02-1.83.24-2.3-.16-3.58-3.03-6.95-1.5-10.59-.04-1.87.75-4.25.95-6.25.57-10.26-1.94-20.52-.91-30.78-.28-5.02.31-10.04.89-15.06.97-3.3.05-6.61-.75-9.92-.88-7.11-.28-14.23-.44-21.35-.54-4.83-.07-9.51.71-14.38-1.55-2.89-1.34-7.03-.34-10.55.1-6.41.79-14.73-3.08-17.98-8.74-1.96-3.41-.23-6.68 3.55-6.68 9.4-.01 18.81 0 28.21 0 8.27 0 13.09-4.61 13.22-12.99.1-6.71-.11-13.43-.18-20.14-.15-14.77-.37-29.54-.37-44.32 0-2.56-1-3.94-3.24-4.15-3.85-.36-7.74-.5-11.61-.46-1.99.02-3.98.96-5.95.9-4.62-.15-6.45 2.4-7.41 6.44-2.08 8.76-3.16 17.55-2.01 26.57.2 1.59-.43 3.54-1.27 4.98-2.35 4-3.35 7.85-2.08 12.63 1.48 5.58-1.47 10.08-5.27 14.11-1.84 1.95-3.01 4.51-4.67 6.65-.66.84-1.83 1.28-3.27 2.25zm152.23 1.32c1.94 1.2 3.49 2.93 5.19 3.09 7.68.71 15.4.95 23.1 1.42 5.94.36 11.83.4 17.58-1.5 3.89-1.29 7.41-.45 10.84 1.76 1.05.68 2.77.5 4.16.43 2.52-.12 5.23-1.17 7.5-.54 5.07 1.41 8.38-1.21 11.73-4.03.51-.43.63-1.6.54-2.39-.43-4-1.26-7.97-1.45-11.98-.57-12.15-1.86-24.35 1.41-36.37.33-1.22.12-2.67-.12-3.96-1.31-6.96-1.98-13.89-1.12-21.01.46-3.83.1-7.83-.43-11.69-1.06-7.76-4.36-10.14-12.07-9.36-17.57 1.77-35.15 3.51-52.72 5.25-4 .4-6.12 1.9-6.63 5.79-.46 3.5-.43 7.13-.1 10.66.74 7.87 2.41 15.71 2.57 23.58.22 10.61-.98 21.24-.9 31.86.05 6.89-1.09 12.76-7.15 16.83-.45.31-.75.82-1.93 2.16zm6.31-146.54h.35c0 6.26-.09 12.53.03 18.79.1 5.36.39 10.73.72 16.08.25 3.98 2.04 6.43 4.6 6.26 4.9-.33 9.84-.5 14.66-1.34 12.97-2.26 25.85-3.76 38.84-.07 2.22.63 4.85.08 7.25-.24 2.39-.32 3.39-1.71 3.36-4.39-.16-13.54-.18-27.08-.01-40.62.05-4.2.88-8.39 1.26-12.6.33-3.55.78-7.11.74-10.65-.05-4.69-.29-9.4-.9-14.04-.38-2.92-1.43-5.79-2.48-8.57-.73-1.94-2.33-2.55-4.58-2.38-11.04.82-22.12 1.15-33.13 2.22-8.2.8-16.37 2.2-24.44 3.86-8.09 1.66-9.1 6.74-7.46 13.6.57 2.37 1.09 4.82 1.13 7.24.14 8.95.06 17.9.06 26.85zm-88.83-37.82c-.67 11.32-1.78 22.12-1.84 32.92-.07 14.38.68 28.77 1.08 43.15.02.55.14 1.11.26 1.66.95 4.36 1.96 5.39 6.41 5.82 2.88.28 5.82.51 8.68.21 8.66-.92 17.27-2.42 25.94-3.11 5.97-.47 12.01.1 18.02.08 5.21-.02 8.38-3 8.56-8.04.37-10.73 1.25-21.48.79-32.17-.57-13.21-.83-26.3 1.24-39.41.72-4.55-4.04-9.16-8.79-8.97-6.7.26-13.39.7-20.08 1.16-3.89.27-7.82.44-11.63 1.15-7.55 1.41-15.03 3.21-22.55 4.76-2.06.41-4.19.55-6.09.79zm66.52 186.48c-.82-4.24-2.28-9.12-2.62-14.08-.58-8.36-.39-16.76-.66-25.14-.15-4.5-.12-8.87 2.26-12.96.61-1.05.58-2.59.52-3.89-.39-8.38-.91-16.75-1.32-25.12-.23-4.68-1.52-6.44-6.23-6.97-6.54-.74-13.01-1.11-19.56.92-8.36 2.59-16.69 5.2-25.9 3.27-6.06-1.27-11.01 2.63-12.4 7.74-3 11.04-2.66 22.36-2.91 33.64-.25 11.48.52 23-2.67 34.32-.93 3.32-.14 7.12-.14 9.73 4.25 1.15 7.48 2.1 10.75 2.88 1.72.41 3.53.83 5.26.68 18.44-1.6 36.89-3.31 55.62-5.02zm84.41-210.58c6.8-.45 7.71-1.33 7.55-7.68-.39-15.74-1.13-31.44 1.88-47.11.95-4.95.25-10.52-1-15.48-.8-3.17-1.37-5.93-.41-9 .37-1.17.79-2.33 1.04-3.53.81-3.84-1.04-6.7-4.96-7.15-3.08-.36-6.25-.53-9.33-.24-10.52.98-20.97 3.73-31.59.63-.65-.19-1.9.46-2.39 1.09-1.95 2.52-4.35 3.55-7.55 3.44-1.93-.07-4.82-.03-5.67 1.13-2.93 4.02-6.27 8.28-7.42 12.96-2.5 10.16-4.48 20.57-3.62 31.17.81 10.01 1.83 20 2.88 29.98.3 2.83 1.56 4.41 5.03 4.24 8.92-.44 17.89-.08 26.81-.63 6.76-.42 13.02.64 19.19 3.31 3.05 1.31 6.37 1.93 9.56 2.87zm-112.73 1.06c1.85-.28 3.67-.3 5.31-.84 7.32-2.42 14.61-4.91 21.83-7.61 1.15-.43 2.5-1.96 2.67-3.14 1.3-8.95 2.46-17.92 3.41-26.91 1.28-12.2-.9-24.63 2.48-36.7.17-.62.08-1.34-.01-2-.53-3.83-2.25-5.11-6.02-4.56-2.21.32-4.42.79-6.65.86-7.81.26-15.65.04-23.43.64-9.53.74-18.96 1.21-28.27-1.59-.75-.23-1.74-.06-2.51.22-4.67 1.69-8.28 4.07-7.18 10.06.38 2.04-.21 4.23-.2 6.35.02 3.45-.03 6.91.32 10.33.44 4.4 1.57 8.74 1.81 13.13.32 6.02.29 12.09.02 18.12-.29 6.65-.93 13.29-1.58 19.92-.29 2.97.97 4.96 3.92 5.42 2.98.47 5.95 1.11 8.95 1.33 2.25.17 4.8.4 6.77-.44 5.97-2.52 11.82-4.81 18.36-2.59zm-90.84 5.01c9.96.32 19.55.36 28.97-1.9 3.46-.83 4.88-3.51 5.17-7.28.26-3.48 1.3-6.9 1.61-10.38.16-1.73-.11-3.79-.96-5.24-1.44-2.45-2.39-4.76-1.32-7.54 3.79-9.88 4.85-20.11 4.26-30.61-.42-7.45-.58-14.92-.85-22.29-13.51-1.73-27.76-.43-36.88 3.29zm32.02 52.42h.14c0-4.47.02-8.94 0-13.42-.02-4.59-.35-9.19-.05-13.76.4-6.24-1.33-7.32-7.48-8.22-7.41-1.08-14.72-.9-22.05 1.84-4.18 1.56-5.94 3.79-6.19 7.81-.1 1.67-.19 3.36-.05 5.02.36 4.23 1.04 8.44 1.28 12.68 1.02 18.65 1.91 37.31 2.86 55.97.18 3.5 4.03 6.46 7.38 5.61 3.9-.99 7.77-2.08 11.66-3.08 11.45-2.96 11.86-2.93 12.38-14.92.53-11.82.12-23.69.12-35.53z" fill="#010101"/></svg>