<svg enable-background="new 0 0 400 400" viewBox="0 0 400 400" xmlns="http://www.w3.org/2000/svg"><path d="m201.88 28.97c30.74.95 61.48 1.75 92.21 2.93 12.95.49 25.88 1.68 38.81 2.72 11.39.92 18.16 8.15 23.3 17.51 1.49 2.71 1.77 4.87-.02 7.91-4.02 6.85-5.81 14.66-5.74 22.52.13 13.62.53 27.28 1.66 40.85 2.15 25.82 2.94 51.6.48 77.42-2.28 23.94-4.24 47.91-7.06 71.78-1.45 12.28-4.48 24.38-6.77 36.57-2.66 14.18-11.03 24.68-21.73 33.66-14.6 12.26-31.66 19.68-49.86 24.53-25.7 6.86-51.8 11.15-78.54 10.34-22.97-.69-44.86-6.63-66.19-14.52-13.07-4.84-25.67-10.95-38.42-16.64-1.5-.67-2.93-2.07-3.8-3.49-17.42-28.45-28.63-59.28-34.71-91.99-7.33-39.48-9.23-79.28-6-119.3.68-8.46 1.97-16.88 3.07-25.3 1.64-12.56.2-24.74-4.19-36.6-3.61-9.73-3.06-19.52-.29-29.34.49-1.75 1.39-2.48 3.18-2.79 21.14-3.71 42.21-7.81 63.41-11.09 7.2-1.11 14.72-.35 22.08-.14 20.45.57 40.9 1.32 61.36 1.94 4.58.14 9.16.02 13.74.02.02.17.02.33.02.5zm-21.41 145.2c.75-4.46 1.6-8.05 1.93-11.69 1.6-17.59 3.61-35.17 4.39-52.8.55-12.46-.57-24.99-1.03-37.49-.22-5.91-3.59-9.61-9.07-11.03-4.39-1.14-8.97-2.08-13.48-2.15-20.38-.3-40.62 2-60.86 4.08-7.72.79-14.9 2.97-20.96 7.99-1.07.89-1.99 2.41-2.22 3.77-2.78 16.18-5.01 32.46-8.19 48.55-3.33 16.83-3.13 33.05 4.51 48.78 1.26 2.59 2.65 3.51 5.54 3.44 23.47-.58 46.95-1.04 70.42-1.43 9.61-.15 19.21-.02 29.02-.02zm1.11 96.53h.92c0-15.77-.05-31.54.05-47.3.01-2.36-.34-3.44-3.04-3.91-20.24-3.56-40.45-7.36-60.67-11.03-1.39-.25-3-.5-4.25-.04-12.57 4.59-25.46 8.44-36.8 15.94-2.1 1.39-2.82 2.75-2.48 5.15 2.05 14.49 3.73 29.03 6.12 43.46 1.71 10.35 4.19 20.63 9.48 29.87 1.3 2.27 3.5 4.32 5.76 5.69 5.64 3.41 11.65 6.18 17.31 9.54 6.52 3.88 13.33 6.71 20.9 7.61 3.11.37 6.19.9 9.3 1.29 11.47 1.45 22.73 1.3 33.4-4.1 2.21-1.12 2.97-2.43 3.01-4.87.25-15.78.65-31.54.99-47.3zm136.44-195.9c-1.4-.27-2.37-.52-3.36-.65-22.63-2.92-45.28-5.63-67.86-8.86-5.76-.83-10.07-.14-13.62 4.73-1.89 2.59-4.57 4.6-6.79 6.96-.82.87-1.7 1.92-1.96 3.03-2.2 9.44-5.25 18.83-6.17 28.41-2.25 23.31 1.11 46.17 7.94 68.54.55 1.81 1.25 2.68 3.39 2.71 14.2.18 28.4.66 42.61.79 15.29.14 29.64-3.54 43-11.09 2.11-1.19 2.89-2.53 2.89-4.99-.09-28.77-.06-57.53-.06-86.3-.01-1.02-.01-2.01-.01-3.28zm-96.59 181.29c.45 26.19 2.36 46.25 8.47 65.76.74 2.37 1.59 3.47 4.23 3.51 4.24.07 8.46.77 12.7.94 9.69.4 19.63 2.14 29.02.61 14.25-2.32 26.58-8.76 30.03-24.97.53-2.51 1.38-4.95 1.93-7.45 3.74-17.02 7.67-33.97 7.78-51.58.06-9.48-3.95-15.79-12.32-19.52-3.34-1.49-6.87-2.7-10.42-3.55-6.62-1.57-13.44-2.4-19.97-4.26-5.35-1.53-10.49-1.59-15.79-.43-1.31.29-2.64.47-3.97.65-8.96 1.24-18.04 2.12-25.97 7.05-1.12.7-2.3 2.2-2.45 3.45-1.42 11.84-2.62 23.73-3.27 29.79z" fill="#010102"/><g fill="#fafbfa"><path d="m6.4 11.7c-1-.8-1.9-1.6-2.9-2.3l.6-.7c.9.7 1.9 1.4 2.9 2.2zm-2.1 8.3c.7-2.1 1.4-4.2 2-6.4.2.1.6.3 1 .4-.7 2.3-1.3 4.4-1.9 6.4zm3-12.8c-1.1-.9-2.1-1.7-2.9-2.4l.6-.7c1 .8 2 1.5 3 2.4zm1.4-1.3v-.9h10.2v.9c-.9 4.2-2.3 7.3-4.1 9.4 1.3 1.4 3.2 2.7 5.7 4-.2.2-.4.5-.7.9-2.5-1.4-4.4-2.7-5.7-4.2-1.4 1.5-3.5 3-6.1 4.4 0 0 0 0-.1-.1-.3-.4-.5-.7-.7-.8 2.7-1.3 4.7-2.8 6.2-4.2-1.8-2.2-3-5.3-3.7-9.4zm9.2 0h-7.1c.6 3.8 1.7 6.7 3.4 8.7 1.7-2 2.9-4.8 3.7-8.7z"/><path d="m31.6 3.6h.9v2.3h4.1v9.1h1.7v.9h-16.6v-.9h1.7v-9.1h4.1v-2.3h.9v2.3h3.1v-2.3zm-4 13.3.6.8c-1.9.9-3.8 1.9-5.8 2.8-.2-.3-.3-.6-.5-.9 2-.9 3.9-1.8 5.7-2.7zm-3.2-10.1v3.7h3.1v-3.7zm0 4.5v3.7h3.1v-3.7zm4.1-4.5v3.7h3.1v-3.7zm0 4.5v3.7h3.1v-3.7zm9.1 9.1c-2.1-1.1-4.1-2-5.8-2.7l.5-.8c2.2.9 4.1 1.8 5.8 2.6zm-1.9-13.6h-3.1v3.7h3.1zm-3.2 4.5v3.7h3.1v-3.7z"/></g></svg>