<svg enable-background="new 0 0 400 400" viewBox="0 0 400 400" xmlns="http://www.w3.org/2000/svg"><path d="m362.1 8.8c1.1.8 2.1 1.6 3.1 2.4l-1 1.1c-1.3-1.1-2.3-2-3-2.5zm1.9 4.8c.5.2.9.4 1.4.5-.6 2.3-1.3 4.5-1.9 6.8l-1.5-.5c.8-2.1 1.4-4.3 2-6.8zm-1-9.4c1.3.9 2.4 1.8 3.4 2.5l-1 1.1c-1.4-1.2-2.4-2.1-3.2-2.6zm3.7 2.2v-1.4h10.3v1.2c-.5 3.6-1.8 6.8-4 9.4 1.5 1.6 3.4 2.8 5.7 3.8-.3.4-.7.8-1.1 1.4-2.3-1.1-4.1-2.5-5.6-4.1-1.6 1.6-3.6 3.1-5.9 4.3-.3-.5-.7-.9-1-1.3 2.4-1.1 4.4-2.5 6-4.1-1.9-2.5-3-5.6-3.3-9.3h-1.1zm8.8 0h-6.4c.3 3.3 1.3 6 3 8.2 2-2.3 3.1-5.1 3.4-8.2z" fill="#fbfafc"/><path d="m385.3 3.8h1.3v2.2h2.8v-2.2h1.3v2.2h4.1v9.1h1.7v1.3h-16.9v-1.3h1.7v-9.1h4.1v-2.2zm.4 13.1.7 1.2c-1.8.9-3.8 1.9-6 2.9-.2-.4-.5-.8-.8-1.3 2.3-1 4.3-1.9 6.1-2.8zm-3.1-6.4h2.8v-3.2h-2.8zm0 4.6h2.8v-3.3h-2.8zm4-4.6h2.8v-3.2h-2.8zm0 4.6h2.8v-3.3h-2.8zm3.7 1.9c2.1.9 4.1 1.8 6.1 2.7l-.7 1.3c-2.2-1.1-4.2-2-6.1-2.9zm3.2-9.7h-2.8v3.2h2.8zm-2.8 7.8h2.8v-3.3h-2.8z" fill="#fbfafc"/><path d="m64.56 202.91c3.61-1.86 6.33-1.24 9.67.96 11.37 7.48 21.2 16.4 28.54 27.89 4.27 6.7 10.24 11.32 16.98 15.28 18.08 10.64 36.71 20.02 57.17 25.18 15.01 3.78 30.14 3.63 45.23.39 1.19-.25 2.54-1.4 3.14-2.5 5.1-9.28 7.26-19.44 8.17-29.86.39-4.54.01-9.15.05-13.73.02-2.73-1.16-4.15-3.89-4.91-6.45-1.81-12.84-1.72-19.21.08-9.03 2.55-17.99 5.34-27.04 7.81-1.7.46-3.8.32-5.49-.21-9.91-3.14-19.95-5.98-29.55-9.89-8.03-3.27-14.46-9.16-19.89-15.98-.47-.59-.74-1.38-1-2.11-1.61-4.52-.98-5.49 3.72-6.46 10.2-2.1 20.5-2.21 30.73-.94 19.54 2.43 38.37.59 56.32-7.96 1.71-.82 3.45-1.73 5.27-2.13 3.65-.81 4.76-3.29 4.1-6.43-.79-3.77-1.77-7.61-3.43-11.06-2.84-5.94-6.31-11.58-9.45-17.37-3.67-6.78-16.34-10.81-24.52-7.15-7.84 3.51-15.34 7.78-23.03 11.64-15.58 7.81-31.19 15.57-46.79 23.35-21.1 10.53-42.83 11.78-65.1 4.27-7.08-2.39-14.19-4.78-21.06-7.69-5.45-2.31-9.89-6.05-11.79-12.63 6.67-.46 13.07-.93 19.47-1.34 14.73-.94 29.47-1.82 44.2-2.84 1.5-.1 3.02-.75 4.4-1.43 24.45-12.08 48.98-24.02 73.28-36.39 19.04-9.69 39.16-15.61 60.11-19.2 7.48-1.28 15.05-2.6 22.24-4.94 12.15-3.95 24.4-4.29 36.74-2.32 11.24 1.8 22.49 3.84 33.47 6.79 11.39 3.05 21.28 9.27 29.57 17.78 1.22 1.25 2.28 2.76 3.07 4.33 5.02 9.99 10.37 19.84 14.72 30.11 2.31 5.45 2.91 11.64 4.11 17.54 1.38 6.79 2.7 13.6 3.78 20.44.31 1.99.18 4.28-.51 6.16-5.98 16.26-12.1 32.46-18.27 48.64-.7 1.84-1.96 3.48-2.99 5.19-12 19.75-30.87 30.57-51.32 39.19-12.4 5.23-25.4 8.55-38.68 10.72-6.21 1.01-11.69 3.68-16.71 7.36-3.39 2.49-6.94 4.51-11.32 4.5-3.5 0-6.74-.61-8.61-3.99-2.89-5.24-7.66-6.31-13.15-6.71-9.48-.7-18.94-1.72-28.36-2.97-15.6-2.06-30.04-7.78-43.86-15.05-18.26-9.61-35.86-20.28-50.51-35.08-11.93-12.05-20.4-26-22.7-43.15-.06-.34-.02-.68-.02-1.18zm151.16-75.56c.28 5.36 2.4 9.18 7.35 11.12 2.29.9 4.58 1.77 6.89 2.61 4.39 1.6 7.91 3.99 10.52 8.19 5.92 9.48 12.39 18.61 18.54 27.95 1.13 1.72 2.12 2.29 4.31 1.88 21.3-4.03 42.63-7.88 63.96-11.8 4.34-.8 8.66-1.67 13.3-2.56-1.53-4.85-2.67-9.3-4.32-13.55-4.21-10.86-10.11-20.76-20.82-26.19-19.69-9.97-40.34-14.15-62.22-8.04-12.48 3.48-24.95 6.91-37.51 10.39zm47.62 140.41c.74-.21 1.2-.27 1.58-.47 17.9-9.16 35.81-18.32 53.67-27.56.98-.51 1.81-1.61 2.35-2.63 4.31-8.08 8.64-16.16 12.74-24.34 1.69-3.37 3.25-6.9 4.16-10.54 1.3-5.19.81-10.37-2.42-15.73-16.09 5.12-32.24 9.94-48.15 15.48-6.58 2.29-12.67 6.05-18.88 9.32-.96.51-2.04 2.02-2 3.03.42 10.46-2.18 20.38-4.86 30.33-2.06 7.74-2.08 15.46 1.81 23.11z" fill="#000001"/></svg>