<svg enable-background="new 0 0 400 400" viewBox="0 0 400 400" xmlns="http://www.w3.org/2000/svg"><path d="m230.02 321.78c-59.81.18-109.29-8.24-157.46-24.57-1.24-.42-2.63-.91-3.51-1.8-15.07-15.34-28.13-32.1-36.74-52.05-7.56-17.52-8.7-35.92-8.13-54.61.67-21.78 4.17-43.16 9.24-64.31.36-1.48 1.45-3 2.61-4.04 19.89-17.68 43.44-27.3 69.41-32.02 30.81-5.6 61.78-9.07 93.1-7.49 34.12 1.72 67.96 6.02 101.21 13.98 19.61 4.7 37.68 12.93 52.46 27.07 10.6 10.14 19.21 21.7 21.16 36.77.66 5.11.3 10.49-.5 15.6-1.44 9.2-2.63 18.31-2.05 27.69.67 10.91 1.61 21.95-2.42 32.54-6.67 17.54-13.36 35.08-20.13 52.59-.39 1-1.47 1.96-2.48 2.44-17.78 8.4-35.49 16.99-53.49 24.9-4.87 2.14-10.63 2.56-16.05 3.1-18.32 1.83-36.7 3.36-46.23 4.21zm-154.52-141.06c.78 0 1.34.07 1.88-.01 10.17-1.57 20.35-1.34 30.37.78 11.9 2.51 23.63 5.87 35.53 8.4 12.55 2.67 25.06 2.79 37.27-2.15 2.12-.86 2.76-1.97 2.82-4.17.56-21.25 1.23-42.5 1.86-63.75.03-1.06 0-2.13 0-3.36-13.56-1.14-26.39-4.72-39.77-2.9-12.84 1.75-25.85 2.32-38.65 4.28-10.26 1.57-19.57 6.07-26.05 14.55-4.95 6.47-9.12 13.53-13.57 20.38-.49.75-.9 1.96-.64 2.71 2.91 8.44 5.95 16.83 8.95 25.24zm237.02 24.18c6.05-.77 12.9-1.61 19.74-2.51 1.75-.23 2.83-.99 2.5-3.11-1.33-8.6-1.83-17.39-3.99-25.77-3.81-14.77-12.15-26.67-25.17-35.12-16.65-10.8-35.15-15.15-54.64-15.97-9.92-.42-10.03-.19-13.51 9.08-6.1 16.27-8.93 33.19-9.35 50.51-.1 4.2.67 8.43 1.15 12.63.3 2.59 1.72 3.53 4.5 3.72 12.71.84 25.41 2 38.1 3.07 13.25 1.12 26.5 2.26 40.67 3.47zm-136.83 27.12c-29.87-4.97-59.4-9.9-88.93-14.76-1.01-.17-2.26.06-3.17.54-4.75 2.49-9.44 5.08-14.09 7.76-.72.41-1.55 1.48-1.52 2.21.23 5.6.05 11.81 3.88 16 5.9 6.45 12.09 13.36 19.57 17.49 12.45 6.87 25.9 12.01 39.17 17.27 13.59 5.39 27.69 6.74 42.11 3.3 2.42-.58 3.21-1.47 3.19-3.97-.12-14.2-.06-28.41-.07-42.61.01-.99-.08-1.98-.14-3.23zm71.04 1.34c-.02.14-.04.28-.06.41-4.7 0-9.39-.04-14.09.01-4.24.05-9.36 5.31-9.2 9.42.44 10.95.93 21.9 1.36 32.86.2 5.13.12 5.28 5.11 6.2 25.52 4.73 50.01.75 73.78-8.99 4.28-1.75 7.57-4.49 9.86-8.6 1.74-3.11 3.71-6.17 6-8.88 2.46-2.91 1.72-5.19-.52-7.54-.84-.89-1.69-1.79-2.66-2.53-5.49-4.17-11.92-6.35-18.57-7.14-16.98-2-34.01-3.51-51.01-5.22z" fill="#010102"/><g fill="#fafbfa"><path d="m6.4 11.7c-1-.8-1.9-1.6-2.9-2.3l.6-.7c.9.7 1.9 1.4 2.9 2.2zm-2.1 8.3c.7-2.1 1.4-4.2 2-6.4.2.1.6.3 1 .4-.7 2.3-1.3 4.4-1.9 6.4zm3-12.8c-1.1-.9-2.1-1.7-2.9-2.4l.6-.7c1 .8 2 1.5 3 2.4zm1.4-1.3v-.9h10.2v.9c-.9 4.2-2.3 7.3-4.1 9.4 1.3 1.4 3.2 2.7 5.7 4-.2.2-.4.5-.7.9-2.5-1.4-4.4-2.7-5.7-4.2-1.4 1.5-3.5 3-6.1 4.4 0 0 0 0-.1-.1-.3-.4-.5-.7-.7-.8 2.7-1.3 4.7-2.8 6.2-4.2-1.8-2.2-3-5.3-3.7-9.4zm9.2 0h-7.1c.6 3.8 1.7 6.7 3.4 8.7 1.7-2 2.9-4.8 3.7-8.7z"/><path d="m31.6 3.6h.9v2.3h4.1v9.1h1.7v.9h-16.6v-.9h1.7v-9.1h4.1v-2.3h.9v2.3h3.1v-2.3zm-4 13.3.6.8c-1.9.9-3.8 1.9-5.8 2.8-.2-.3-.3-.6-.5-.9 2-.9 3.9-1.8 5.7-2.7zm-3.2-10.1v3.7h3.1v-3.7zm0 4.5v3.7h3.1v-3.7zm4.1-4.5v3.7h3.1v-3.7zm0 4.5v3.7h3.1v-3.7zm9.1 9.1c-2.1-1.1-4.1-2-5.8-2.7l.5-.8c2.2.9 4.1 1.8 5.8 2.6zm-1.9-13.6h-3.1v3.7h3.1zm-3.2 4.5v3.7h3.1v-3.7z"/></g></svg>