<svg viewBox="0 0 400 400" xmlns="http://www.w3.org/2000/svg"><rect width="400" height="400" fill="white" /><path d="m123.32 70.33c-.76-1.43-1.58-3-2.7-5.12 5.04-2.17 9.83-4.55 14.84-6.29 5.12-1.77 10.46-2.91 15.7-4.32.11-.03.28.03.33-.03 3.98-4.83 10.3-1.08 14.79-4.04 1.26-.83 2.6-1.54 3.87-2.35.27-.17.4-.67.66-.73 9.25-2.21 15.7-9.93 25.07-12.27 8.52-2.12 16.44-6.83 25-8.55 7.62-1.53 15.75-.42 23.66-.65 10.38-.3 16.67 6.79 23.19 13.04 8.32 7.98 12.03 18.28 13.56 29.6 1.86 13.8 2.4 27.63 1.95 41.53-.01.22.07.52-.04.66-3.7 4.83-1.28 11.1-4.15 16.39-3.35 6.16-5.99 12.86-6.52 20.08-.04.54-.27 1.08-.5 1.58-4.06 8.69-8.15 17.37-12.17 26.08-.5 1.08-.92 2.33-.89 3.49.11 4.61-1.35 8.7-3.35 12.79-4.03 8.24-7.83 16.61-8.5 25.97-.03.44-.01 1-.27 1.29-4.4 5.14-3.6 11.62-4.24 17.59-.93 8.66-.94 17.42-1.58 26.12-.21 2.77-1.18 5.49-1.92 8.74 1.38.99 1.49 2.68.08 4.81-.69 1.04-.88 2.55-.92 3.86-.49 15.2-1.13 30.4.42 45.58.37 3.59-.59 7.57 3.21 10.04-1.02 1.42-1.79 2.5-2.56 3.58.29-.02.58-.03.87-.05.34 2.95.77 5.89 1 8.85.54 7.02.99 14.05 1.47 21.07.14 1.98.28 3.96.43 6.17-2.04 0-3.78 0-5.82 0-.51-2.21-.87-4.52-1.6-6.7-.5-1.48-1.6-2.75-2.29-4.19-.49-1.03-.9-2.15-1.08-3.27-.66-4.14-1.22-8.3-1.77-12.46-.16-1.21-.27-2.44-.24-3.66.15-6.38.63-12.76.45-19.13-.12-4.4-.7-8.9-1.85-13.15-1.77-6.55-1.89-12.86.45-19.25.22-.6-.2-1.44-.35-2.17-.65-3.14-1.61-6.22.72-9.25.7-.9.59-2.57.55-3.88-.32-10.41-.83-20.81 1.66-31.07.03-.11.04-.22.05-.33.63-6.29.86-12.66 2.01-18.86 1.01-5.43 3.11-10.65 4.63-16 1.12-3.96 2.04-7.97 3.14-11.94 1.15-4.18 2.11-8.44 3.67-12.46 3.62-9.34 8.91-18.1 9.47-28.68 1.07.21 1.77.35 2.12.42 2.79-6.99 5.55-13.9 8.29-20.82.24-.61.46-1.3.41-1.93-.36-4.52.65-8.58 3.57-12.17.56-.69.54-1.88.73-2.84.34-1.63.14-3.64 1.04-4.84 2.7-3.62 2.08-7.57 1.97-11.58-.27-9.83-.39-19.66-.58-29.49-.01-.44.15-1.18-.04-1.29-3.62-2.08-1.31-5.72-2.31-8.31-1.89-4.93-4.24-9.91-7.44-14.07-3.65-4.75-8.38-8.68-12.74-12.86-3.27-3.14-7.03-5.01-11.83-4.2-2.52.42-5.13.48-7.7.45-3.07-.03-5.65.56-8.33 2.47-2.09 1.49-5.26 1.44-7.93 2.16-3.19.87-6.43 1.62-9.49 2.81-4.36 1.69-8.58 3.73-12.86 5.62-2.17.96-3.2 2.49-3.16 4.98.03 1.68-.58 3.37-.93 5.05-.11.53-.6 1.14-.46 1.54 2.77 7.39.65 15.06 1.34 22.56.09.99.21 2.01.52 2.94 1.08 3.21 2.03 6.33-.11 9.57-.53.8-.09 2.19-.3 3.26-.42 2.09-1.01 4.14-1.49 6.22-.27 1.17-.74 2.37-.65 3.52.41 5.04-.81 9.67-2.73 14.29-3.35 8.05-6.34 16.24-9.64 24.31-.59 1.44-1.91 2.6-2.93 3.86-.76.94-2 1.72-2.31 2.77-2.05 7.08-7.37 11.85-11.96 17.07-6.86 7.81-13.74 15.64-21.22 22.84-3.33 3.21-8.12 4.92-12.26 7.28-.47.27-1.24.19-1.56.54-3.31 3.75-6.36 1.09-9.69-.27 4.15-5.19 8.1-10.24 15.2-11.17.91-.12 1.82-1.22 2.49-2.05 3.54-4.34 6.91-8.81 10.52-13.08 3.71-4.39 7.75-8.49 11.41-12.92 2.75-3.33 5.35-6.83 7.62-10.5 3.41-5.49 6.57-11.15 9.66-16.83 1.09-2 1.69-4.28 2.49-6.44.74-2.02 1.44-4.06 2.16-6.1.15-.41.45-.84.41-1.23-.81-7.46 3.34-13.77 4.7-20.71.33-1.68-.17-3.54-.36-5.31-.12-1.09-.53-2.17-.53-3.26-.04-9.51.01-19.03-.06-28.54-.01-1.06-.44-2.85-1.08-3.05-1.8-.57-4.47-1.38-5.61-.52-2.81 2.12-5.79 3.09-9.05 2.87-7.07-.48-13.42 1.75-19.71 4.47-2.97 1.29-6.03 2.39-9.04 3.58-1.5.6-2.67 1.37-4.46-.16-.86-.68-3.41.57-5.69 1.03z" fill="#010100"/><g fill="#fcfafa"><path d="m342.2 3.2-6.3 9.2h6.1v1.2h-8.2v-.5l6.2-9.1h-5.7v-1.2h7.8v.4z"/><path d="m344 13.7v-10.9h3.1c1.6 0 3 .5 4.1 1.4 1.1 1 1.6 2.2 1.6 3.9s-.5 3-1.6 4-2.5 1.5-4.2 1.5h-3zm1.4-9.6v8.4h1.6c1.4 0 2.5-.4 3.2-1.1.8-.8 1.2-1.8 1.2-3.2s-.4-2.4-1.2-3.1-1.8-1-3.1-1z"/><path d="m356.3 2.8v10.9h-1.4v-10.9z"/><path d="m366.6 13.2c-.8.4-1.8.6-3 .6-1.6 0-2.8-.5-3.7-1.5s-1.4-2.3-1.4-3.9c0-1.7.5-3.2 1.6-4.2s2.4-1.6 4-1.6c1 0 1.9.1 2.6.4v1.5c-.8-.4-1.6-.6-2.6-.6-1.2 0-2.2.4-3 1.2s-1.1 1.9-1.1 3.3c0 1.3.4 2.3 1.1 3.1s1.6 1.1 2.8 1.1c1.1 0 2-.2 2.8-.7v1.3z"/><path d="m368.2 13c0-.3.1-.5.3-.6.2-.2.4-.3.6-.3.3 0 .5.1.7.3s.3.4.3.6-.1.5-.3.6c-.2.2-.4.3-.7.3s-.5-.1-.6-.3c-.2-.2-.3-.4-.3-.6z"/><path d="m381.1 13.7h-1.7l-5.5-8.4c-.2-.2-.3-.5-.4-.7 0 .2.1.8.1 1.5v7.6h-1.4v-10.9h1.8l5.3 8.3c.3.4.4.6.4.8 0-.3-.1-.8-.1-1.6v-7.5h1.4v10.9z"/><path d="m389.7 13.7h-5.8v-10.9h5.6v1.2h-4.2v3.5h3.9v1.2h-3.9v3.7h4.4z"/><path d="m398.4 4.1h-3.1v9.6h-1.4v-9.6h-3.1v-1.3h7.7v1.3z"/></g></svg>