<svg enable-background="new 0 0 400 400" viewBox="0 0 400 400" xmlns="http://www.w3.org/2000/svg"><path d="m105.82 215.13c8.13 3.74 15.85 7.18 23.47 10.83 15.02 7.2 29.99 14.49 44.96 21.78 4.94 2.41 8.26 1.72 10.17-3.51 2.13-5.82 4.05-11.98 4.48-18.1 1.05-15.17 1.27-30.39 1.59-45.6.03-1.22-1.4-2.86-2.59-3.66-17.35-11.68-35.03-22.89-52.1-34.95-15.12-10.68-26.28-25.15-35.59-41.05-.21-.35-.29-.78-.51-1.41 6.22-2 12.16-1.55 17.67 1.33 9.75 5.1 18.6 11.57 26.51 19.25 6.33 6.16 12.36 12.65 18.97 18.49 5.5 4.86 12.56 6.11 19.74 6.16.79.01 2.06-1.2 2.3-2.07 4.94-17.76 4.23-35.22-3.67-52.03-7.36-15.68-15.09-31.19-22.53-46.83-2.58-5.42-4.8-11.01-7.59-17.46 3.53 1.57 6.24 2.72 8.9 3.99 9.25 4.39 17.84 9.79 25.26 16.92 10.24 9.84 15.18 21.98 16.74 35.99 1.83 16.37 5.39 32.41 11.89 47.67.26.61.57 1.2.99 2.1 5.67-.99 11.39-1.89 17.05-3.04 1.04-.21 2.08-1.26 2.78-2.18 8.34-10.94 16.45-22.07 24.99-32.85 3-3.79 6.77-7.11 10.66-10.01 3.57-2.65 7.99-2.87 12.19-1.24.85.33 1.89 1.94 1.74 2.77-1.61 9.02-3.37 18.02-5.28 26.99-.27 1.26-1.44 2.47-2.46 3.41-16.31 15.03-32.02 30.61-46.62 47.36-11.5 13.19-15.86 28.51-15.82 45.46.02 10.61 1.25 21.13 3.87 32.41 3.41-8.42 11.03-10.89 17.11-15.06 18.36-12.58 36.96-24.83 55.47-37.2.91-.61 1.86-1.15 3.06-1.9.64 3.6.17 6.23-2.31 8.98-23.9 26.53-47.63 53.22-71.47 79.8-1.49 1.66-1.73 2.89-.86 4.97 9.54 22.66 18.86 45.41 28.51 68.03 1.54 3.62 4.27 6.77 6.64 10.01 3.88 5.32 7.92 10.53 12.44 16.53-1.96 0-3.21 0-4.46 0-3.69 0-7.47-.48-11.07.1-7.2 1.17-11.38-2.29-15.51-7.66-13.28-17.28-23.33-36.23-30.9-56.6-4.13-11.1-8.39-22.16-12.83-33.14-.76-1.88-2.42-3.76-4.17-4.81-10.4-6.22-21.85-9.84-33.7-11.72-12.44-1.97-22.02-8.24-30.03-17.49-7.3-8.44-12.81-18.03-17.68-28.01-.14-.38-.17-.81-.4-1.75z" fill="#010106"/><g fill="#fcfbfa"><path d="m385.2 377.6.6-.7c.6.4 1.3.9 1.9 1.5l-.6.7c-.8-.5-1.4-1-1.9-1.5zm.3 7.1c.6-1.4 1.1-2.9 1.5-4.5.3.1.6.3.9.4-.5 1.4-1 2.9-1.5 4.4zm.2-10.1.6-.6c.7.5 1.3 1.1 1.9 1.6l-.7.7c-.6-.6-1.2-1.2-1.8-1.7zm8.4-.8h.8v.9h1.8v.7h-1.8v1.8h-.8v-.3h-1.2v.9h3.3v2.6h-.8v-.4h-2.5c0 .3 0 .6-.1.8h3.4v.7h-3.5c0 .3-.1.6-.1.8h4v.7h-3.5c.7.9 1.9 1.3 3.6 1.5-.2.2-.4.5-.6.9-1.9-.3-3.2-1.1-3.8-2.3-.5 1.1-1.8 2-3.9 2.4-.2-.3-.4-.5-.6-.8 1.9-.4 3.1-.9 3.6-1.7h-3.2v-.7h3.5c.1-.2.1-.5.2-.8h-3.3v-.7h3.4c0-.2 0-.5 0-.8h-2.4v.3h-.8v-2.6h3.3v-.9h-1.2v.3h-.8v-1.8h-1.8v-.7h1.8v-.9h.8v.9h3.2zm-4.4 5.5h2.4c0-.3 0-.6 0-.9h-2.4zm1.2-3.1h3.2v-.8h-3.2zm4.4 2.2h-2.4v.9h2.5v-.9z"/><path d="m389.2 385.8h.9v1.5h1.9v-1.5h.9v1.5h2.7v6h1.1v.9h-11.3v-.9h1.1v-6h2.7zm.2 8.7.5.8c-1.2.6-2.5 1.3-4 1.9-.2-.3-.3-.6-.6-.8 1.6-.6 3-1.3 4.1-1.9zm-2-4.3h1.9v-2.1h-1.9zm0 3.1h1.9v-2.2h-1.9zm2.7-3.1h1.9v-2.1h-1.9zm0 3.1h1.9v-2.2h-1.9zm2.4 1.3c1.4.6 2.7 1.2 4.1 1.8l-.5.9c-1.5-.7-2.8-1.4-4.1-1.9zm2.2-6.5h-1.9v2.1h1.9zm-1.9 5.2h1.9v-2.2h-1.9z"/></g></svg>