<svg enable-background="new 0 0 400 400" viewBox="0 0 400 400" xmlns="http://www.w3.org/2000/svg"><path d="m162.03 374.68c2.55-28.27 5.08-56.39 7.63-84.7-6.58.62-13.67 1.3-20.76 1.95-12.19 1.12-24.14-.1-35.72-4.1-10.59-3.66-16.04-11.92-19.13-22.14.3-.17.53-.4.66-.36 8.77 3.29 17.42.8 26.07-.57 16.24-2.57 32.47-5.19 48.67-7.95 1.55-.26 3.29-1.41 4.26-2.67 3.97-5.19 5.13-11.39 5.32-17.71.23-7.72-.14-15.46.1-23.17.12-3.84-1.7-5.3-5.04-5.5-5.02-.31-10.05-.75-15.07-.6-7.49.22-15.01.53-22.43 1.52-5.8.78-11.6 2.25-17.13 4.18-4.16 1.44-7.99 1.46-11.57-.59-3.74-2.14-7.68-4.43-10.51-7.58-8.51-9.43-14.17-20.55-17.56-32.97.82-.15 1.47-.22 2.11-.38 4.47-1.12 7.93-.29 11.66 3.11 8.57 7.83 19.52 10.56 30.76 11.99 15.71 2 31.42 2.58 47.15-.09 3.01-.51 4.81-1.76 4.75-4.75-.1-5.44-.15-10.91-.83-16.29-.78-6.2-2.36-12.29-3.3-18.47-.33-2.14-1.2-3.06-3.17-3.54-6.64-1.61-13.11-.37-19.61.85-5.93 1.11-11.88 2.14-17.83 3.11-8.38 1.37-16.03-.95-23-5.36-13.8-8.74-24.74-20.19-31.74-35.12-.7-1.49-1.21-3.08-1.83-4.65 2.96-1.68 5.7-1.18 8.23.08 5.27 2.64 10.63 5.2 15.59 8.36 7.25 4.62 15.05 7.78 23.53 8.06 13.61.46 27.24.12 40.84.12 2.14-7.98.95-15.08-1.21-22.07-2.8-9.1-6.12-17.95-11.63-25.89-2-2.88-3.36-6.35-4.36-9.74-2.72-9.19-8.76-14.81-17.72-17.63-2.13-.67-4.33-1.24-6.32-2.2-4.74-2.29-5.17-7.34-1-10.37.27-.2.54-.4.81-.6 8.25-6 8.29-6.12 17.85-3.02 14.72 4.76 28.87 10.85 42.15 18.85 8.64 5.2 12.07 8.92 9.43 22.13-.25 1.24-.12 2.65.22 3.89 3.11 11.43 6.33 22.84 9.46 34.27 1.2 4.38 4.68 6.54 8.07 8.96 2.39 1.71 4.56 3.81 6.49 6.03 1.42 1.63 1.01 3.16-.96 4.69-6.86 5.33-10.89 12.18-9.58 21.2.33 2.29 0 5.37 3.75 6.23 3.14-6.04 6.28-12.06 9.4-18.1 7.33-14.2 14.81-28.32 21.93-42.62 6.98-14.01 5.14-27.52-3.17-40.43-.6-.94-1.17-1.9-1.71-2.88-.09-.17-.01-.43-.01-.77 6.51-1.99 12.95-1.4 19.36.67 3.51 1.13 6.98 2.54 10.58 3.15 4.89.84 8.41 3.32 10.97 7.37 2.03 3.2 4.27 6.33 5.84 9.75 1.57 3.41 3.04 6.81.03 10.82-1.77 2.36-1.82 6.11-2.31 9.29-.77 4.99-2.6 9.39-5.83 13.33-7.11 8.65-13.93 17.53-21.19 26.05-1.75 2.05-4.57 3.85-7.17 4.35-4.11.8-6.88 2.93-9.3 5.99-2.98 3.78-5.85 7.65-9.01 11.27-1.66 1.91-3.62 3.81-5.84 4.94-4.39 2.22-9.03 5.1-13.98-.48-.38 6.81-.76 12.93-1.01 19.05-.03.64.58 1.4 1.08 1.94 1.29 1.4 2.51 2.95 4.05 4.01 4.54 3.13 4.79 7.13 2.65 11.64-1.82 3.83-3.9 7.54-5.67 11.39-.6 1.31-.6 2.91-.87 4.37 1.48.03 3.17.54 4.4 0 3.53-1.57 7.1-3.23 10.23-5.46 6.64-4.74 12.75-10.27 19.55-14.75 13.09-8.62 22.88-19.87 29.45-34.06 2.48-5.36 5.36-10.54 8.22-16.1 7.56 2.91 14.83 6.03 22.32 8.5 6.64 2.19 10.73 7.18 14.58 12.32 3.53 4.72 2.76 8.11-1.59 12.09-14 12.82-30.55 21.2-47.97 28.34-15.62 6.39-31.02 13.4-44.72 23.52-3.14 2.32-6.11 4.9-9.03 7.51-5.43 4.84-6.77 11.16-5.84 18.03.14 1.05 1.83 2.41 3.03 2.72 9.88 2.58 19.95 2.01 30.03 1.55 5.76-.26 11.62-.34 17.31.44 2.48.34 5.29 2.6 6.78 4.79 3.29 4.82 1.67 9.61-3.87 10.86-10.98 2.48-22.1 4.44-33.21 6.3-8 1.34-15.92 2.75-22.63 7.67-2.57 1.88-5.55 3.83-5.44 7.59.5 17.05-5.18 32.77-10.3 48.61-2.95 9.14-6.15 18.21-9.4 27.25-3.23 8.88-6.85 10.89-17.27 9.38z" fill="#010104"/><g fill="#fcfbfa"><path d="m385.2 377.6.6-.7c.6.4 1.3.9 1.9 1.5l-.6.7c-.8-.5-1.4-1-1.9-1.5zm.3 7.1c.6-1.4 1.1-2.9 1.5-4.5.3.1.6.3.9.4-.5 1.4-1 2.9-1.5 4.4zm.2-10.1.6-.6c.7.5 1.3 1.1 1.9 1.6l-.7.7c-.6-.6-1.2-1.2-1.8-1.7zm8.4-.8h.8v.9h1.8v.7h-1.8v1.8h-.8v-.3h-1.2v.9h3.3v2.6h-.8v-.4h-2.5c0 .3 0 .6-.1.8h3.4v.7h-3.5c0 .3-.1.6-.1.8h4v.7h-3.5c.7.9 1.9 1.3 3.6 1.5-.2.2-.4.5-.6.9-1.9-.3-3.2-1.1-3.8-2.3-.5 1.1-1.8 2-3.9 2.4-.2-.3-.4-.5-.6-.8 1.9-.4 3.1-.9 3.6-1.7h-3.2v-.7h3.5c.1-.2.1-.5.2-.8h-3.3v-.7h3.4c0-.2 0-.5 0-.8h-2.4v.3h-.8v-2.6h3.3v-.9h-1.2v.3h-.8v-1.8h-1.8v-.7h1.8v-.9h.8v.9h3.2zm-4.4 5.5h2.4c0-.3 0-.6 0-.9h-2.4zm1.2-3.1h3.2v-.8h-3.2zm4.4 2.2h-2.4v.9h2.5v-.9z"/><path d="m389.2 385.8h.9v1.5h1.9v-1.5h.9v1.5h2.7v6h1.1v.9h-11.3v-.9h1.1v-6h2.7zm.2 8.7.5.8c-1.2.6-2.5 1.3-4 1.9-.2-.3-.3-.6-.6-.8 1.6-.6 3-1.3 4.1-1.9zm-2-4.3h1.9v-2.1h-1.9zm0 3.1h1.9v-2.2h-1.9zm2.7-3.1h1.9v-2.1h-1.9zm0 3.1h1.9v-2.2h-1.9zm2.4 1.3c1.4.6 2.7 1.2 4.1 1.8l-.5.9c-1.5-.7-2.8-1.4-4.1-1.9zm2.2-6.5h-1.9v2.1h1.9zm-1.9 5.2h1.9v-2.2h-1.9z"/></g></svg>