<svg enable-background="new 0 0 400 400" viewBox="0 0 400 400" xmlns="http://www.w3.org/2000/svg"><path d="m81.7 170.96c1.51.35 3.07.57 4.53 1.08 11.82 4.13 23.95 3.22 36.15 2.65 23.12-1.08 46.27-1.8 69.41-2.39 3.66-.09 6.33-1.3 7.5-4.34 1.65-4.31 3.36-8.88 3.54-13.41.38-9.42-1.16-18.71-4.31-27.69-.6-1.7-1.46-2.36-3.32-2.57-7.29-.81-13.94 1.1-20.41 4.16-20.76 9.82-42.63 11.09-64.95 8.01-4.22-.58-8.43-2.31-12.28-4.25-6.32-3.19-11.19-7.69-13.17-15.13-2.09-7.86-5.19-15.46-7.84-23.17-.39-1.14-.75-2.3-.58-4.27 1.38.59 3.13.83 4.07 1.83 13.95 14.97 31.54 19.23 51.09 17.17 20.07-2.11 40.12-3.48 60.28-1.45.77.08 2.29-.83 2.38-1.44.44-2.89 1.36-6.09.57-8.72-4.96-16.52-16.34-26.93-32.96-30.42-19.53-4.09-37.95-10.92-55.97-19.22-4.02-1.85-8.44-2.81-12.57-4.44-3.2-1.26-6.44-2.62-9.33-4.45-4.2-2.66-4.92-7.75-1.93-11.73.48-.64 1.64-1.12 2.48-1.11 49.2.29 94.01 12.6 130.33 47.93 1.18 1.15 2.23 2.51 3.07 3.92 6.01 10.09 11.95 20.22 17.91 30.33.55.94 1.15 1.85 1.86 2.99 9.08-8.77 17.94-17.47 26.98-25.97 2.93-2.75 5.04-5.85 6.62-9.5 3.19-7.37 6.62-14.63 10.04-22.15 6.63 2.25 13.07 4.42 19.49 6.65.67.23 1.31.82 1.74 1.41 7.63 10.5 7.1 24.54-1.38 34.11-1.16 1.31-2.87 2.1-4.25 3.22-8.61 6.97-18.43 11.09-29.31 13.11-7.13 1.33-14.16 3.25-20.36 7.37-3.58 2.38-5.38 4.96-5.03 9.84 1.05 14.39 1.37 28.84 1.76 43.27.08 3.01 1.23 4.79 3.75 6.07 2.46 1.24 4.2-.17 5.66-1.66 8.44-8.65 17.04-17.16 24.99-26.24 2.67-3.05 3.67-7.6 5.24-11.54.77-1.92 1.68-2.81 3.92-2.51 3.65.5 7.37.52 11.02 1.01 1.32.18 2.8.84 3.74 1.76 4.58 4.44 9.02 9.02 13.48 13.58 6.5 6.67 4.77 17.2-3.49 21.33-7.6 3.8-15.4 7.24-22.74 11.5-7.98 4.62-16.54 6.46-25.5 7.39-6.35.66-12.62 1.62-18.2 5.2-3.28 2.1-5.23 4.52-5.83 8.66-1.44 9.94-1.08 19.84-.54 29.79.13 2.37 1.45 3.28 3.27 4.08 7.99 3.54 16.3 3.29 24.72 2.28 5.64-.68 11.33-1.67 16.97-1.54 7.85.19 13.67 4.28 17.38 11.56-5.61 4.41-12.05 6.91-18.81 8.4-7.52 1.66-15.28 2.33-22.72 4.27-5.54 1.45-10.89 3.91-16.02 6.52-5.22 2.65-8.1 7.3-8.29 13.26-.26 8.6-1.12 17.27-.36 25.79 1.78 19.97-2.24 38.68-10.35 56.75-2.08 4.63-5.92 6.39-10.72 7.36-3.48-5.74-5.6-12.04-6.1-18.59-1.08-14.27-1.65-28.57-2.27-42.87-.49-11.18-.81-22.37-1.07-33.55-.08-3.36-2.63-3.94-4.55-3.37-5.6 1.65-11.94 2.77-16.31 6.22-9.47 7.47-19.33 7.76-30.04 4.7-.99-.28-1.9-1.14-2.67-1.9-8.5-8.44-16.92-16.96-25.46-25.36-1.47-1.45-1.9-2.79-1.34-4.75.55-1.92.76-3.95 1.14-5.92.85-4.48 4.01-6.95 8.05-5.07 14.36 6.68 29.43 4.12 44.28 3.88 6.78-.11 13.55-1.29 20.31-2.08 3.14-.36 4.39-2.03 4.96-5.42 2.1-12.7.83-25.14-1.46-37.64-.49-2.69-1.86-3.87-4.09-3.84-3.76.04-7.6.18-11.26.96-20.02 4.27-40.07 8.32-60.5 10.05-2.89.24-5.82.24-8.72.14-5.46-.18-9.79-1.88-13.28-6.8-5.8-8.2-12.63-15.67-18.74-23.66-1.94-2.53-2.97-5.76-4.41-8.67.38-.23.74-.49 1.11-.76z" fill="#010104"/><g fill="#fcfbfa"><path d="m385.2 377.6.6-.7c.6.4 1.3.9 1.9 1.5l-.6.7c-.8-.5-1.4-1-1.9-1.5zm.3 7.1c.6-1.4 1.1-2.9 1.5-4.5.3.1.6.3.9.4-.5 1.4-1 2.9-1.5 4.4zm.2-10.1.6-.6c.7.5 1.3 1.1 1.9 1.6l-.7.7c-.6-.6-1.2-1.2-1.8-1.7zm8.4-.8h.8v.9h1.8v.7h-1.8v1.8h-.8v-.3h-1.2v.9h3.3v2.6h-.8v-.4h-2.5c0 .3 0 .6-.1.8h3.4v.7h-3.5c0 .3-.1.6-.1.8h4v.7h-3.5c.7.9 1.9 1.3 3.6 1.5-.2.2-.4.5-.6.9-1.9-.3-3.2-1.1-3.8-2.3-.5 1.1-1.8 2-3.9 2.4-.2-.3-.4-.5-.6-.8 1.9-.4 3.1-.9 3.6-1.7h-3.2v-.7h3.5c.1-.2.1-.5.2-.8h-3.3v-.7h3.4c0-.2 0-.5 0-.8h-2.4v.3h-.8v-2.6h3.3v-.9h-1.2v.3h-.8v-1.8h-1.8v-.7h1.8v-.9h.8v.9h3.2zm-4.4 5.5h2.4c0-.3 0-.6 0-.9h-2.4zm1.2-3.1h3.2v-.8h-3.2zm4.4 2.2h-2.4v.9h2.5v-.9z"/><path d="m389.2 385.8h.9v1.5h1.9v-1.5h.9v1.5h2.7v6h1.1v.9h-11.3v-.9h1.1v-6h2.7zm.2 8.7.5.8c-1.2.6-2.5 1.3-4 1.9-.2-.3-.3-.6-.6-.8 1.6-.6 3-1.3 4.1-1.9zm-2-4.3h1.9v-2.1h-1.9zm0 3.1h1.9v-2.2h-1.9zm2.7-3.1h1.9v-2.1h-1.9zm0 3.1h1.9v-2.2h-1.9zm2.4 1.3c1.4.6 2.7 1.2 4.1 1.8l-.5.9c-1.5-.7-2.8-1.4-4.1-1.9zm2.2-6.5h-1.9v2.1h1.9zm-1.9 5.2h1.9v-2.2h-1.9z"/></g></svg>