<svg enable-background="new 0 0 400 400" viewBox="0 0 400 400" xmlns="http://www.w3.org/2000/svg"><path d="m146.95 24.3c3.24 3.28 6.79 5.86 9.02 9.3 9.46 14.54 15.95 30.21 16.37 47.89.1 4.34 1.21 8.15 5.57 10.93 2.91-3.51 5.95-6.9 8.69-10.53 6.06-8.04 11.99-16.17 17.91-24.31 2.07-2.84 4.33-4.17 7.9-2.51 2.1.97 4.46 1.55 6.77 1.86 3.85.51 6.19 2.77 7.96 5.93 7.9 14.05 6.34 27.85-1.11 41.49-.26.48-.65.94-1.08 1.26-12.05 8.77-19.84 21.12-28.01 33.15-2.07 3.05-3.99 6.28-6.51 8.92-2.59 2.71-5.58 5.24-8.84 7.04-5.12 2.82-7.2 7.08-7.58 12.54-.16 2.29 3.32 4.79 6.24 3.71 3.99-1.48 8.33-3.17 11.33-6.02 13.69-13.02 28.4-24.61 44.74-34.09 2.76-1.6 5.85-2.63 9.15-4.08 2.05 4.9 3.98 9.39 5.78 13.93.3.75.21 1.81-.07 2.6-1.93 5.46-3.57 11.07-6.05 16.27-2.69 5.63-6.29 10.82-9.29 16.32-1.16 2.12-2.59 3.46-4.93 4.07-14.8 3.83-27.47 11.68-39.4 20.92-9.63 7.46-11.75 17.65-5.72 28.2.59 1.04 1.53 1.9 2.41 2.74 19.51 18.74 41.72 33.72 65.28 46.79 11.05 6.13 22.07 12.34 33.42 17.85 13.17 6.39 24.83 15.07 37.01 22.97 1.12.72 1.65 2.36 2.68 3.91 7.65-2.03 14.32 2.88 21.64 4.79 4.31 1.12 8.47 2.82 12.69 4.29.72.25 1.61.49 2.02 1.04 1.22 1.65-.19 10.42-1.66 11.95-4.56 4.76-9.4 9.31-13.5 14.45-10.88 13.6-24.73 18.38-41.45 14.32-8.88-2.15-17.54-5.2-26.26-7.97-1.55-.49-3.02-1.46-4.33-2.46-14.96-11.39-30.2-22.43-44.7-34.38-9.91-8.16-18.98-17.38-28.01-26.54-5.07-5.14-9.06-11.34-13.99-16.64-3.99-4.3-8.67-7.96-13-11.94-1.3-1.2-2.66-2.4-3.68-3.83-6.52-9.09-13.22-18.07-19.32-27.44-3.08-4.72-4.88-10.26-7.55-15.28-2.13-4-4.41-7.97-7.13-11.58-2.62-3.48-6.44-5-10.85-5.92-14.43-3-28.88-6.04-43.07-9.95-11.4-3.13-21.46-9.28-30.78-16.65-4.37-3.46-9.36-6.1-13.92-9.33-1.33-.94-2.5-2.49-3.1-4.02-1.67-4.26-2.76-8.75-4.53-12.96-1.84-4.37-1.86-8.45-.22-12.89 1.01-2.72 2.09-5.02 4.52-6.74 2.09-1.48 3.88-3.38 5.88-5 5.08-4.1 11.26-3.73 15.85.81 11.1 10.94 22.64 21.39 36.33 29.04 9.64 5.38 20.25 7.54 31.21 8.21 1.92.12 2.81-.56 3.56-2.19 2.41-5.23 1.31-10.5.55-15.83-.66-4.62-2.79-7.96-6.31-11.23-14.36-13.33-31.09-23.34-46.81-34.78-8.67-6.29-16.67-13.5-24.69-20.6-1.48-1.31-2.09-4.05-2.33-6.21-.38-3.43.08-6.94-.16-10.4-.16-2.36.98-3.12 2.82-4.19 6.57-3.79 12.95-4.02 19.92-.85 5.16 2.34 10.76 3.75 16.21 5.4 6.86 2.07 13.35 4.45 18.92 9.45 3.35 3.02 8.1 4.54 12.35 6.45.77.35 2.89-.41 3.15-1.12 1.33-3.59 2.92-7.29 3.15-11.04.3-4.87-.54-9.81-.99-14.71-.5-5.46 1.13-10.38 3.7-15.06.63-1.15 1.44-2.47 2.53-3.07 6.69-3.69 11.23-9.42 15.7-16.45z" fill="#010000"/><g fill="#fbfcfa"><path d="m361.2 9.6.8-1c.9.7 1.9 1.4 2.9 2.3l-.9 1.1c-1-1-2-1.8-2.8-2.4zm.5 10.6c.9-2.1 1.6-4.3 2.3-6.7.4.2.8.4 1.3.6-.7 2.1-1.5 4.3-2.2 6.6zm.4-15.2.9-.9c1 .8 2 1.6 2.8 2.4l-1 1c-.9-.9-1.8-1.7-2.7-2.5zm12.5-1.2h1.2v1.4h2.7v1.1h-2.7v2.7h-1.2v-.6h-1.8v1.3h4.9v3.8h-1.2v-.5h-3.7c0 .4-.1.9-.1 1.2h5.1v1h-5.2c0 .5-.1.9-.2 1.2h6v1h-5.2c1.1 1.3 2.9 2 5.5 2.2-.4.4-.7.8-.9 1.3-2.9-.5-4.8-1.6-5.7-3.5h-.1c-.8 1.7-2.7 2.9-5.9 3.6-.2-.4-.6-.8-.9-1.1 2.8-.6 4.6-1.4 5.4-2.5h-4.8v-1h5.3c.1-.3.2-.7.2-1.2h-4.9v-1h5c0-.4 0-.8.1-1.2h-3.5v.5h-1.2v-3.8h4.9v-1.3h-1.8v.5h-1.2v-2.7h-2.7v-1h2.6v-1.4h1.2v1.4h4.7v-1.4zm-6.6 8.3h3.6c0-.4 0-.9 0-1.4h-3.6zm1.9-4.6h4.7v-1.3h-4.7zm6.6 3.2h-3.7v1.4h3.7z"/><path d="m385.3 3.8h1.3v2.2h2.8v-2.2h1.3v2.2h4.1v9.1h1.7v1.3h-16.9v-1.3h1.7v-9.1h4.1v-2.2zm.4 13.1.7 1.2c-1.8.9-3.8 1.9-6 2.9-.2-.4-.5-.8-.8-1.3 2.3-1 4.3-1.9 6.1-2.8zm-3.1-6.4h2.8v-3.2h-2.8zm0 4.6h2.8v-3.3h-2.8zm4-4.6h2.8v-3.2h-2.8zm0 4.6h2.8v-3.3h-2.8zm3.7 1.9c2.1.9 4.1 1.8 6.1 2.7l-.7 1.3c-2.2-1.1-4.2-2-6.1-2.9zm3.2-9.7h-2.8v3.2h2.8zm-2.8 7.8h2.8v-3.3h-2.8z"/></g></svg>