<svg enable-background="new 0 0 400 400" viewBox="0 0 400 400" xmlns="http://www.w3.org/2000/svg"><path d="m211.71 127.31c4.14-.65 7.79-1.11 11.38-1.87.92-.19 1.84-1.18 2.44-2.03 5.72-8.12 8.11-17.35 8.67-27.11.37-6.58.16-13.22.83-19.77.78-7.61 3.69-14.51 9.09-20.12.83-.87 2.23-1.76 3.33-1.71 15.65.59 31.29 1.34 47.14 2.06.7 2.34 1.59 4.65 1.99 7.04.15.88-.58 2.29-1.36 2.9-4.97 3.87-10.78 5.28-16.99 5.13-5.76-.14-11.37.34-16.75 2.71-2.03.9-3.1 2.08-3.55 4.31-3.11 15.23-6.31 30.43-9.59 45.62-.39 1.79-1.19 3.63-2.26 5.1-5.23 7.13-10.56 14.18-15.99 21.16-1.04 1.34-2.56 2.47-4.1 3.22-4.73 2.29-9.6 4.27-14.33 6.56-.84.41-1.85 1.74-1.78 2.57 1.16 14.5 2.47 28.99 3.77 43.48.04.42.25.82.48 1.55 9.57-2 19.07-3.94 28.53-6.07.84-.19 1.65-1.46 2.09-2.41 5.64-12.16 11.5-24.24 16.71-36.58 4.8-11.36 9.9-14.94 22.01-12.19 7.78 1.77 15.33 4.81 22.73 7.9 2.27.95 3.7 3.94 6.01 6.56-3.42.78-6.07 1.42-8.73 1.97-6.79 1.42-13.57 2.87-20.38 4.17-2.25.43-3.7 1.48-4.98 3.4-10.22 15.38-20.51 30.7-30.9 45.96-.99 1.46-2.61 2.77-4.23 3.49-7.52 3.37-15.15 6.52-22.85 9.79 1.88 11.46 3.53 22.74 5.6 33.93 3.28 17.7 2.65 35.43.86 53.18-1.3 12.94-3.19 25.79-8.24 37.88-2.22 5.31-5.2 10.3-7.83 15.43-.49-.01-.98-.02-1.48-.02-2.58-5.74-5.41-11.38-7.7-17.23-4.85-12.43-6.7-25.51-7.34-38.73-1.29-26.71-2.3-53.44-3.43-80.16-.06-1.33-.13-2.66-.21-4.29-9.43-2.14-18.71-4.71-28.15-6.27-10.87-1.8-19.26-6.92-25-16.19-2.28-3.68-3.64-7.93-5.87-11.65-2.69-4.48-5.53-8.95-8.88-12.93-5.73-6.8-13.69-7.89-22.01-7.39-6.35.39-12.45-.52-18.67-3.34 14.66-9.91 29.75-15.91 47.54-10.88 4.92 1.39 8.96 3.45 11.95 7.81 4.94 7.19 10.98 13.7 15.25 21.24 6.92 12.21 17.59 16.84 30.69 17.86 1.63.13 3.27.16 5.22.25-.72-8.74-1.4-17.06-2.1-25.39-.57-6.8-1.31-13.59-1.69-20.4-.14-2.43-.89-3.79-3.12-4.85-7.56-3.61-14.98-7.55-22.54-11.17-9.31-4.46-16.97-10.76-22.65-19.39-.91-1.38-1.67-2.9-2.19-4.47-4.33-13.04-8.65-26.1-12.83-39.19-.72-2.25-1.91-3.48-4.12-4.28-7.32-2.65-14.71-2.14-22.2-1.11-6.59.9-12.39-.82-17.51-6.46 5.72-1.7 11.01-3.21 16.27-4.84 14.43-4.45 28.69-4.16 42.66 1.72 1.75.73 3.66 2.35 4.38 4.03 4.5 10.57 9.04 21.16 12.89 31.98 4.66 13.11 12.3 19.79 24.82 20.46.32.02.64-.08 1.2-.15 2.25-7.19 2.88-14.62 2.38-22.12-1.05-15.97-5.51-31.21-10.31-46.36-.28-.88-.97-1.77-1.71-2.35-11.59-8.92-24.16-14.3-39.29-11.44-3.16.6-6.75.13-9.89-.75-2.02-.57-4.03-2.49-5.27-4.32-3.04-4.5-2.3-6.29 2.68-8.24 1.56-.61 3.21-1.07 4.66-1.88 9.24-5.13 19.24-5.24 29.35-4.5 5.68.42 11.39.79 17 1.71 6.09 1 11.31 4.15 15.94 8.15.86.74 1.5 1.93 1.87 3.04 5.97 17.68 12.21 35.28 17.6 53.13 1.8 5.97 1.47 12.6 2.01 18.94.39 4.9.63 9.81.98 15.21z" fill="#010106"/><g fill="#fcfbfa"><path d="m385.2 377.6.6-.7c.6.4 1.3.9 1.9 1.5l-.6.7c-.8-.5-1.4-1-1.9-1.5zm.3 7.1c.6-1.4 1.1-2.9 1.5-4.5.3.1.6.3.9.4-.5 1.4-1 2.9-1.5 4.4zm.2-10.1.6-.6c.7.5 1.3 1.1 1.9 1.6l-.7.7c-.6-.6-1.2-1.2-1.8-1.7zm8.4-.8h.8v.9h1.8v.7h-1.8v1.8h-.8v-.3h-1.2v.9h3.3v2.6h-.8v-.4h-2.5c0 .3 0 .6-.1.8h3.4v.7h-3.5c0 .3-.1.6-.1.8h4v.7h-3.5c.7.9 1.9 1.3 3.6 1.5-.2.2-.4.5-.6.9-1.9-.3-3.2-1.1-3.8-2.3-.5 1.1-1.8 2-3.9 2.4-.2-.3-.4-.5-.6-.8 1.9-.4 3.1-.9 3.6-1.7h-3.2v-.7h3.5c.1-.2.1-.5.2-.8h-3.3v-.7h3.4c0-.2 0-.5 0-.8h-2.4v.3h-.8v-2.6h3.3v-.9h-1.2v.3h-.8v-1.8h-1.8v-.7h1.8v-.9h.8v.9h3.2zm-4.4 5.5h2.4c0-.3 0-.6 0-.9h-2.4zm1.2-3.1h3.2v-.8h-3.2zm4.4 2.2h-2.4v.9h2.5v-.9z"/><path d="m389.2 385.8h.9v1.5h1.9v-1.5h.9v1.5h2.7v6h1.1v.9h-11.3v-.9h1.1v-6h2.7zm.2 8.7.5.8c-1.2.6-2.5 1.3-4 1.9-.2-.3-.3-.6-.6-.8 1.6-.6 3-1.3 4.1-1.9zm-2-4.3h1.9v-2.1h-1.9zm0 3.1h1.9v-2.2h-1.9zm2.7-3.1h1.9v-2.1h-1.9zm0 3.1h1.9v-2.2h-1.9zm2.4 1.3c1.4.6 2.7 1.2 4.1 1.8l-.5.9c-1.5-.7-2.8-1.4-4.1-1.9zm2.2-6.5h-1.9v2.1h1.9zm-1.9 5.2h1.9v-2.2h-1.9z"/></g></svg>