<svg enable-background="new 0 0 400 400" viewBox="0 0 400 400" xmlns="http://www.w3.org/2000/svg"><path d="m119.11 262.26c33.56 10.9 64.83 3.4 95.94-8.94-1.55-8.75-3.12-17.64-4.69-26.54-.19-1.1-.37-2.21-.57-3.31-1.05-5.6-1.87-6.37-7.52-7.64-6.41-1.44-12.68-.59-18.93.92-4.67 1.13-9.4 2.1-13.97 3.56-9.85 3.15-19.99 3.32-30.17 3.63-14.87.46-29.73 1.46-44.59 1.57-4.86.03-10.01-1.33-14.54-3.22-15.02-6.25-28.35-15.21-39.8-26.83-1.25-1.27-2.36-2.69-3.51-4.06-.26-.31-.4-.72-.71-1.31 7.55-2.17 14.96-2.45 22.37-.81 19.72 4.38 39.6 7.14 59.87 6.66 19.05-.45 37.94-1.7 56.44-6.92 6.08-1.72 12.6-1.79 18.87-2.89 2.25-.4 4.53-1.35 6.48-2.55 3.57-2.2 4.21-4.9 2.6-8.79-2.01-4.85-4.27-9.62-5.97-14.58-1.05-3.09-3.01-4.67-5.91-5.14-2.5-.4-5.37-1.11-7.56-.3-9.77 3.62-19.39 1.91-29.11.16-20.2-3.65-39.6-10.12-58.95-16.76-8.01-2.75-16.12-5.26-23.99-8.37-4.86-1.92-7.41-5.1-9.15-9.58 4.73.37 9.21.68 13.68 1.06 22.18 1.93 44.34 4.02 66.54 5.76 12.15.95 24.33 1.42 36.51 1.88 5.03.19 9.84-1.1 13.52-4.8.9-.9 1.55-2.76 1.31-3.98-3.7-18.3-7.81-36.5-14.71-53.93-.64-1.61-1.61-3.2-2.8-4.46-10.13-10.75-20.34-21.43-30.52-32.14-.74-.78-1.44-1.62-2.44-2.75 8.44-1.51 16.34-1.46 24.25.53 12.32 3.1 22.44 9.69 31.06 18.92 9.37 10.03 17.91 20.73 23.64 33.23 3.8 8.29 6.29 17.17 9.4 25.78.37 1.03.73 2.18 1.44 2.96 2.05 2.27 4.67 2.81 7.25 1.14 3.19-2.05 6.19-4.4 9.21-6.71 1.24-.95 2.21-2.23 3.43-3.21 15.49-12.47 27.32-27.81 36.14-45.59 1.33-2.69 2.57-5.2 2.12-8.22-.47-3.17 1.32-4.48 3.99-4.37 3.77.16 7.56.65 11.27 1.34 3.06.57 6.05 1.6 9.05 2.48 13.67 4.02 17.6 16.4 13.88 28.91-.21.7-.8 1.33-1.33 1.89-4.58 4.91-9 10-13.88 14.59-2.28 2.14-5.42 3.48-8.32 4.85-4.58 2.17-8.92 4.58-12.34 8.45-13.44 15.18-31.05 24.76-47.98 35.15-7.31 4.49-10.06 10.34-8.83 18.51.17 1.1.2 2.23.25 3.35.35 7 5.01 11.38 11.74 9.52 7.78-2.14 15.69-4.78 22.63-8.79 13.14-7.6 26.83-13.86 41.02-18.99 9.42-3.41 19.24-5.71 28.92-8.37 1.91-.52 3.99-.49 6-.51 8.81-.12 8.71-.07 10.87 8.32.55 2.12-.05 2.94-1.76 3.9-12.57 7.08-25.08 14.26-37.61 21.41-4.76 2.72-9.64 5.24-14.26 8.18-17.73 11.32-37.08 19.19-56.57 26.77-2.61 1.01-3.48 2.33-3.42 5.11.19 8.62-.21 17.25.21 25.85.16 3.29 1.78 6.57 3.13 9.68.3.68 2.28.83 3.5.87 11.27.34 21.77-2.8 32.19-6.8 11.99-4.61 24.17-8.74 36.31-12.96 4.76-1.65 9.6-2 14.34.36 2.76 1.37 4.48 3.4 4.25 6.58-.24 3.35-.58 6.5-4.31 8.35-25.73 12.76-51.4 25.66-77.08 38.52-.39.2-.76.44-1.45.85 2.44 5.69 3.44 11.85 7.76 16.79 9.21 10.53 18.07 21.36 27.17 32 1.43 1.67 3.2 3.1 5 4.37 10.79 7.6 21.79 14.91 32.4 22.74 7.33 5.41 12.84 12.38 15.86 18.41-6.7 3.75-13.59 3.94-20.55 1.16-3.09-1.24-5.94-3.09-8.85-4.75-4.66-2.66-9.08-5.85-13.95-8.02-9.73-4.33-17.2-11.55-25.02-18.38-6.32-5.52-12.5-11.22-18.98-16.56-4.14-3.42-7.29-7.4-9.81-12.12-4.68-8.78-9.83-17.31-14.47-26.11-1.59-3.01-3.31-3.73-6.56-3.09-17.32 3.45-34.86 5.98-51.97 10.23-15.26 3.79-27.01-1.17-38.16-10.74-4.61-3.96-10.14-6.82-15.02-10.5-1.37-1.03-2.52-3.13-2.67-4.83-.16-2.08.83-4.27 1.45-7.03z" fill="#010104"/><g fill="#fcfbfa"><path d="m385.2 377.6.6-.7c.6.4 1.3.9 1.9 1.5l-.6.7c-.8-.5-1.4-1-1.9-1.5zm.3 7.1c.6-1.4 1.1-2.9 1.5-4.5.3.1.6.3.9.4-.5 1.4-1 2.9-1.5 4.4zm.2-10.1.6-.6c.7.5 1.3 1.1 1.9 1.6l-.7.7c-.6-.6-1.2-1.2-1.8-1.7zm8.4-.8h.8v.9h1.8v.7h-1.8v1.8h-.8v-.3h-1.2v.9h3.3v2.6h-.8v-.4h-2.5c0 .3 0 .6-.1.8h3.4v.7h-3.5c0 .3-.1.6-.1.8h4v.7h-3.5c.7.9 1.9 1.3 3.6 1.5-.2.2-.4.5-.6.9-1.9-.3-3.2-1.1-3.8-2.3-.5 1.1-1.8 2-3.9 2.4-.2-.3-.4-.5-.6-.8 1.9-.4 3.1-.9 3.6-1.7h-3.2v-.7h3.5c.1-.2.1-.5.2-.8h-3.3v-.7h3.4c0-.2 0-.5 0-.8h-2.4v.3h-.8v-2.6h3.3v-.9h-1.2v.3h-.8v-1.8h-1.8v-.7h1.8v-.9h.8v.9h3.2zm-4.4 5.5h2.4c0-.3 0-.6 0-.9h-2.4zm1.2-3.1h3.2v-.8h-3.2zm4.4 2.2h-2.4v.9h2.5v-.9z"/><path d="m389.2 385.8h.9v1.5h1.9v-1.5h.9v1.5h2.7v6h1.1v.9h-11.3v-.9h1.1v-6h2.7zm.2 8.7.5.8c-1.2.6-2.5 1.3-4 1.9-.2-.3-.3-.6-.6-.8 1.6-.6 3-1.3 4.1-1.9zm-2-4.3h1.9v-2.1h-1.9zm0 3.1h1.9v-2.2h-1.9zm2.7-3.1h1.9v-2.1h-1.9zm0 3.1h1.9v-2.2h-1.9zm2.4 1.3c1.4.6 2.7 1.2 4.1 1.8l-.5.9c-1.5-.7-2.8-1.4-4.1-1.9zm2.2-6.5h-1.9v2.1h1.9zm-1.9 5.2h1.9v-2.2h-1.9z"/></g></svg>