<svg enable-background="new 0 0 400 400" viewBox="0 0 400 400" xmlns="http://www.w3.org/2000/svg"><path d="m276.75 375.19c.49-7.31.75-14.47 1.56-21.57.37-3.24-.57-4.6-3.58-5.35-3.24-.8-6.32-2.32-9.57-3.03-17.37-3.76-30.88-14.72-45.3-23.99-2.07-1.33-4.29-2.5-6.13-4.1-4.72-4.1-10.22-5.13-16.22-4.81-6.59.35-13.24.11-19.76.96-18.4 2.4-44.87-10.73-54.1-31.55-3.78-8.53-9.23-16.31-13.94-24.43-4.26-7.34-10.72-11.84-18.7-14.32-6.65-2.07-10.79-6.84-14.31-13.37 4.82 1.42 9.05 2.67 13.27 3.92 8.03 2.39 16.09 4.71 24.07 7.24 1.46.46 2.94 1.56 3.91 2.77 7.3 9.18 12.61 19.5 16.75 30.43 4.66 12.31 13.37 20.68 25.18 26.05 1.08.49 2.35.89 3.51.85 12.52-.46 25.03-1.03 37.54-1.54 1.9-.08 2.89-.64 3.28-2.81 1.93-10.67.99-21.26-1.26-31.67-4.04-18.68-8.62-37.23-12.85-55.87-.46-2.04-1.57-2.37-3.22-2.6-19.27-2.68-38.55-5.37-57.81-8.11-1.17-.17-2.41-.56-3.39-1.19-11.32-7.39-21.09-16.24-26.82-28.84-.51-1.12-1.13-2.18-1.71-3.27-12.77-23.85-12.79-23.83-33.24-41.62-7.66-6.66-15.23-13.42-23.54-20.75 1.85.29 2.8.37 3.72.58 3.05.71 6.05 1.79 9.14 2.13 11.64 1.29 20.73 6.68 28.59 15.39 7.94 8.78 16.98 16.56 25.44 24.88 1.39 1.36 2.53 3.12 3.36 4.89 3.18 6.77 5.63 13.94 9.37 20.36 6.36 10.9 16.17 17.27 28.7 19.56 10.28 1.88 20.59 2.8 31.04 2.57 2.35-.05 3.4-.81 4.03-2.93 2.09-7.01 1.89-14.16-.48-20.83-5.01-14.09-9.79-28.38-16.41-41.72-4.81-9.69-11.91-18.44-19.02-26.73-4.11-4.8-10.41-7.66-15.45-11.74-7.29-5.91-14.57-11.87-21.37-18.32-5.3-5.03-8.95-11.4-11.9-18.77 5.79 1.2 11.15 2.51 16.57 3.38 5.38.86 9.65 3.16 13.57 7.07 13.85 13.83 28.36 27.02 41.9 41.15 6.19 6.46 11.34 14.18 15.78 21.99 6.07 10.68 6.46 22.85 6.88 34.86.35 9.99 4.1 18.22 13.36 23.7 8.69-8.2 19.39-14.73 23.45-26.87 1.6-4.79 2.36-10.01 2.61-15.08.98-19.49.14-38.94-2.48-58.28-2.37-17.52 3.67-32.14 15.31-44.73 4.08-4.42 8.82-8.24 13.35-12.22 1.89-1.67 5.96-1.18 8.28.74 2.49 2.06 1.24 4.17.08 6.28-3.31 5.99-7.38 11.29-12.25 16.23-12.54 12.69-15.03 28.1-10.89 45.05 3.87 15.81 6.3 31.82 5.85 48.16-.29 10.35-3.17 20.03-8.16 29.08-2.24 4.05-5.74 6.55-9.84 8.73-7.96 4.24-15.65 9-23.31 13.78-1.11.69-1.86 2.65-2 4.09-1.66 16.82 3.09 32.8 6.53 48.96 2.78 13.01 5.59 26.01 8.4 39.01.23 1.08.55 2.13.87 3.39 7.1-2.22 14.04-4.33 20.91-6.61 1.03-.34 1.99-1.38 2.63-2.33 7.37-10.95 14.7-21.93 21.96-32.96.75-1.14 1.21-2.63 1.35-4 .98-10.13 1.4-20.34 2.86-30.4 2.44-16.81 12.27-29.23 25.29-39.35 4.55-3.54 9.53-6.5 15.12-10.27 0 5.12.13 9.22-.1 13.3-.05.96-1.21 2.03-2.11 2.74-7.48 5.93-14.66 12.15-20.18 20.03-4.71 6.72-7.02 13.91-4.33 22.14.65 1.99.8 4.18.92 6.29 1.06 18.42-4.54 34.54-16.66 48.47-9.8 11.27-21.92 19.72-33.96 28.28-1.62 1.16-3.24 2.32-5.08 3.62 14.07 13.92 29.73 23.78 49.91 24.33.93.03 2.38-1.02 2.74-1.91 1.35-3.3 2.31-6.76 3.49-10.13 1.89-5.4 5.95-8.39 11.63-10.33 0 7.55.22 14.78-.09 21.99-.15 3.5 1.09 5.22 4.36 5.71 8.28 1.25 16.57 2.49 24.86 3.67 7.15 1.02 14.05 2.8 20.15 6.82 2.12 1.4 4.02 3.14 6.5 5.1-6.4 3.84-12.78 5.62-19.53 4.51-6.7-1.11-13.21-3.29-19.89-4.6-4.58-.9-9.29-1.43-13.96-1.54-7.05-.16-11.23 3.5-12.66 10.38-.23 1.09-.39 2.2-.47 3.31-.58 7.78-3.8 10.21-11.9 8.52z" fill="#010106"/><g fill="#fcfbfa"><path d="m385.2 377.6.6-.7c.6.4 1.3.9 1.9 1.5l-.6.7c-.8-.5-1.4-1-1.9-1.5zm.3 7.1c.6-1.4 1.1-2.9 1.5-4.5.3.1.6.3.9.4-.5 1.4-1 2.9-1.5 4.4zm.2-10.1.6-.6c.7.5 1.3 1.1 1.9 1.6l-.7.7c-.6-.6-1.2-1.2-1.8-1.7zm8.4-.8h.8v.9h1.8v.7h-1.8v1.8h-.8v-.3h-1.2v.9h3.3v2.6h-.8v-.4h-2.5c0 .3 0 .6-.1.8h3.4v.7h-3.5c0 .3-.1.6-.1.8h4v.7h-3.5c.7.9 1.9 1.3 3.6 1.5-.2.2-.4.5-.6.9-1.9-.3-3.2-1.1-3.8-2.3-.5 1.1-1.8 2-3.9 2.4-.2-.3-.4-.5-.6-.8 1.9-.4 3.1-.9 3.6-1.7h-3.2v-.7h3.5c.1-.2.1-.5.2-.8h-3.3v-.7h3.4c0-.2 0-.5 0-.8h-2.4v.3h-.8v-2.6h3.3v-.9h-1.2v.3h-.8v-1.8h-1.8v-.7h1.8v-.9h.8v.9h3.2zm-4.4 5.5h2.4c0-.3 0-.6 0-.9h-2.4zm1.2-3.1h3.2v-.8h-3.2zm4.4 2.2h-2.4v.9h2.5v-.9z"/><path d="m389.2 385.8h.9v1.5h1.9v-1.5h.9v1.5h2.7v6h1.1v.9h-11.3v-.9h1.1v-6h2.7zm.2 8.7.5.8c-1.2.6-2.5 1.3-4 1.9-.2-.3-.3-.6-.6-.8 1.6-.6 3-1.3 4.1-1.9zm-2-4.3h1.9v-2.1h-1.9zm0 3.1h1.9v-2.2h-1.9zm2.7-3.1h1.9v-2.1h-1.9zm0 3.1h1.9v-2.2h-1.9zm2.4 1.3c1.4.6 2.7 1.2 4.1 1.8l-.5.9c-1.5-.7-2.8-1.4-4.1-1.9zm2.2-6.5h-1.9v2.1h1.9zm-1.9 5.2h1.9v-2.2h-1.9z"/></g></svg>