<svg enable-background="new 0 0 400 400" viewBox="0 0 400 400" xmlns="http://www.w3.org/2000/svg"><path d="m27.78 357.54c-1.98-3.3-1.85-6.74-.68-10.06 2.58-7.32 4.62-14.77 9.93-21 5.93-6.96 9.18-15.59 11.84-24.27 6.22-20.29 12.67-40.52 18.13-61.02 3.84-14.4 3.33-29.28 1.27-44.02-.14-.97-.54-1.93-.94-2.84-5.01-11.47-10-22.95-15.12-34.37-.8-1.78-1.99-3.51-3.38-4.87-7.51-7.26-13.75-15.25-16-26.1 1.48-.11 2.88-.29 4.28-.31 38.79-.32 75.46-11.06 111.93-22.76 3.29-1.06 6.62-2.14 9.73-3.62 11.63-5.55 24.35-6.49 36.73-8.67 21.57-3.8 43.19-7.48 64.89-10.42 18.61-2.52 37.34-4.62 56.19-2.42 4.64.54 9.32 1.28 13.8 2.56 5.57 1.59 9.1 5.6 10.26 11.33.22 1.08-.44 2.83-1.3 3.55-7.46 6.29-16.43 8.34-25.9 8.57-7.27.18-14.56-.31-21.81.15-5.54.35-11.07 1.47-16.51 2.68-10.45 2.32-21.06 2.79-31.68 2.78-14.06-.01-27.32 4.23-40.8 7.29-26.16 5.94-52.34 11.78-78.36 18.26-11.01 2.74-21.79 6.65-32.41 10.72-8.32 3.19-8.14 3.66-5.59 12.17.32 1.07.76 2.13.9 3.22.87 6.42 5.5 9 10.98 9.21 5.47.21 11.24-.25 16.45-1.81 12.17-3.66 23.96-8.64 36.15-12.23 27.33-8.06 54.76-15.78 82.27-23.21 6.4-1.73 13.25-1.9 19.92-2.51 14.36-1.31 28.73-3.17 43.12-3.41 14.19-.25 26.96 5.08 37.56 14.68 8.41 7.62 8.82 18.38 6.09 27.58-.27.91-1.03 1.7-1.67 2.46-4.18 4.94-8.39 9.85-13.03 15.28 7.19 1.68 13.86 3.25 20.54 4.81 3.16.74 6.36 1.3 9.46 2.22 7.51 2.24 12.6 8.87 12.75 16.68.02 1.08-.8 2.53-1.68 3.21-3.21 2.44-6.98 2.66-10.88 2.31-19.71-1.81-39.41-3.68-59.14-5.28-9.26-.75-18.29.78-26.87 4.49-1.2.52-2.33 1.18-3.78 1.92.94.87 1.53 1.5 2.2 2.04 8.69 7.06 17.45 14.02 26.02 21.21 2.06 1.73 4 3.98 5.09 6.39 9.39 20.69 13.4 42.35 10.78 65.02-1.19 10.27-4.71 19.92-10.9 28.18-5.35 7.13-12.94 11.92-20.54 16.51-9.39 5.68-19.97 6.97-30.49 8.37-16.52 2.2-33.03 4.56-49.61 6.12-5.27.5-10.74-1.61-16.16-1.99-9.07-.63-15.57-4.87-21.25-11.95-11.09-13.81-20.14-28.46-23.37-46.16-.26-1.42-.4-2.88-.4-4.32-.03-18.7-.02-37.39-.02-56.09 0-4.53-.08-4.99-4.65-4.68-7.68.53-15.32 1.59-22.96 2.54-3.1.39-6.21.91-9.22 1.74-1.27.35-2.77 1.45-3.3 2.61-4.44 9.64-8.6 19.41-13 29.06-10.37 22.71-24.21 43.26-39.53 62.85-4.07 5.29-9.28 9.02-16.33 9.62zm73.37-126.03c1.25-.22 2.03-.31 2.78-.5 35.46-8.81 70.95-17.54 106.38-26.49 23.31-5.89 46.52-12.04 70.87-11.89 7.91.05 15.86-1.05 23.25-4.37 1.38-.62 3.05-1.36 3.79-2.54 4.68-7.46 7.52-15.6 6.48-24.47-.32-2.69-2.11-5.87-4.23-7.54-4.22-3.33-9.4-4.35-14.89-3.34-15.39 2.83-30.74 5.94-46.21 8.25-24.14 3.61-47.98 8.05-70.98 16.68-24.94 9.36-49.36 20.79-76.65 22.12-.59.03-1.61 1.26-1.59 1.91.24 10.62.63 21.23 1 32.18zm100.31 122.6c6.97-.88 14.01-1.41 20.9-2.71 15.75-2.96 31.14-7.2 45.08-15.46 4.09-2.42 8.19-4.88 10.45-9.55 3.35-6.9 5.66-14.05 6.79-21.63 1.52-10.19-2.69-16.1-12.94-17.62-2.28-.34-4.69-.22-6.99.11-22.45 3.25-44.89 6.55-67.31 9.92-4.5.68-9.2 1.1-13.36 2.77-6.3 2.53-12.24 5.96-18.23 9.2-1.2.65-2.4 2.04-2.79 3.33-3.53 11.7-.55 22.25 6.03 32.08.41.61 1.12 1.11 1.8 1.42 9.7 4.45 19.43 8.76 30.57 8.14zm71.56-94.54c-.63-3.1-.79-5.81-1.75-8.2-3.65-9.08-9.53-16.63-16.73-23.17-.72-.65-1.66-1.39-2.55-1.46-10.19-.77-20.23-3.26-30.63-.98-17.12 3.76-34.47 6.59-50.74 13.48-2.3.97-4.51 2.14-6.76 3.22 4.59 9.06 4.38 9.07 4.6 18.77.09 4 1.28 7.98 2 12.13 1.77-.3 2.65-.41 3.51-.61 13.4-3.02 26.81-6.02 40.2-9.08 10.34-2.36 20.61-4.79 31.42-4.19 8.79.48 17.63.09 27.43.09z" fill="#010104"/><path d="m100.33 45.7c8.26-1.81 16.13-1.4 23.97-.2 10.85 1.67 21.73 3.53 32.67 1.56 9.11-1.64 18.1-3.98 27.11-6.13 19.99-4.76 39.86-10.14 60.01-14.1 7.79-1.53 16.23-.31 24.3.43 4.66.43 8.46 7.13 7.49 11.65-.17.77-.86 1.51-1.48 2.09-4.79 4.48-10.13 8.4-16.53 9.86-20.75 4.72-40.47 12.66-60.74 18.88-15.51 4.76-31.23 6.54-47.34 4.33-1.41-.19-2.87-.55-4.12-1.2-7.23-3.73-14.36-7.66-21.62-11.35-3.97-2.02-8.13-3.68-12.19-5.53-4.8-2.16-8.42-5.63-11.53-10.29z" fill="#010104"/><g fill="#fcfbfa"><path d="m385.2 377.6.6-.7c.6.4 1.3.9 1.9 1.5l-.6.7c-.8-.5-1.4-1-1.9-1.5zm.3 7.1c.6-1.4 1.1-2.9 1.5-4.5.3.1.6.3.9.4-.5 1.4-1 2.9-1.5 4.4zm.2-10.1.6-.6c.7.5 1.3 1.1 1.9 1.6l-.7.7c-.6-.6-1.2-1.2-1.8-1.7zm8.4-.8h.8v.9h1.8v.7h-1.8v1.8h-.8v-.3h-1.2v.9h3.3v2.6h-.8v-.4h-2.5c0 .3 0 .6-.1.8h3.4v.7h-3.5c0 .3-.1.6-.1.8h4v.7h-3.5c.7.9 1.9 1.3 3.6 1.5-.2.2-.4.5-.6.9-1.9-.3-3.2-1.1-3.8-2.3-.5 1.1-1.8 2-3.9 2.4-.2-.3-.4-.5-.6-.8 1.9-.4 3.1-.9 3.6-1.7h-3.2v-.7h3.5c.1-.2.1-.5.2-.8h-3.3v-.7h3.4c0-.2 0-.5 0-.8h-2.4v.3h-.8v-2.6h3.3v-.9h-1.2v.3h-.8v-1.8h-1.8v-.7h1.8v-.9h.8v.9h3.2zm-4.4 5.5h2.4c0-.3 0-.6 0-.9h-2.4zm1.2-3.1h3.2v-.8h-3.2zm4.4 2.2h-2.4v.9h2.5v-.9z"/><path d="m389.2 385.8h.9v1.5h1.9v-1.5h.9v1.5h2.7v6h1.1v.9h-11.3v-.9h1.1v-6h2.7zm.2 8.7.5.8c-1.2.6-2.5 1.3-4 1.9-.2-.3-.3-.6-.6-.8 1.6-.6 3-1.3 4.1-1.9zm-2-4.3h1.9v-2.1h-1.9zm0 3.1h1.9v-2.2h-1.9zm2.7-3.1h1.9v-2.1h-1.9zm0 3.1h1.9v-2.2h-1.9zm2.4 1.3c1.4.6 2.7 1.2 4.1 1.8l-.5.9c-1.5-.7-2.8-1.4-4.1-1.9zm2.2-6.5h-1.9v2.1h1.9zm-1.9 5.2h1.9v-2.2h-1.9z"/></g></svg>