<svg enable-background="new 0 0 400 400" viewBox="0 0 400 400" xmlns="http://www.w3.org/2000/svg"><path d="m97.56 38.06c3.17 8.52 3.7 16.23 2.57 24.05-.82 5.64-2.21 11.19-2.99 16.83-.87 6.27-2.05 12.63-1.85 18.91.35 11.48-2.72 22.37-4.49 33.48-.14.86-.24 1.73-.45 3.28 2.15-.22 4.17.04 5.71-.69 4.1-1.96 8.03-4.29 11.97-6.58 5.67-3.3 10.91-7.9 17-9.83 23.24-7.35 43.26-20.65 63.93-32.87 9.4-5.56 19.15-10.53 28.9-15.46 3.14-1.59 6.83-2.07 10.2-3.26 5.27-1.86 9.23-5.24 11.67-10.89-6.32-.83-12.37-1.65-18.43-2.43-29.83-3.82-59.69-7.5-89.49-11.55-7.5-1.02-14.89-3.04-22.22-4.99-2.48-.66-5.08-2.11-6.82-3.95-1.19-1.27-1.28-3.85-1.2-5.82.02-.47 2.73-1.23 4.17-1.17 26.03 1.12 52.05 2.31 78.07 3.61 2.41.12 4.8.93 7.15 1.58 19.48 5.38 38.97 10.74 58.41 16.25 9.57 2.71 18.4 6.84 25.47 15.08-4.67 1.31-9.03 2.43-13.3 3.78-2.54.8-5.07 1.76-7.41 3.02-23.27 12.65-46.37 25.65-69.83 37.93-6.92 3.62-14.77 5.62-22.37 7.77-5.4 1.52-10.02 3.89-14.31 7.51-2.83 2.38-6.45 3.94-9.9 5.46-10.83 4.79-21.77 9.31-32.6 14.11-3.05 1.35-5.93 3.14-8.73 4.98-7 4.59-12.52 10.08-13.9 19.05-1.51 9.76-4.71 19.05-10.61 27.21-.54.74-.92 1.94-.75 2.81 2.28 11.83-1.02 23.08-3.46 34.41-5.05 23.39-9.46 46.87-12.34 70.65-.84 6.98-3.85 13.7-5.86 20.54-3.12 10.6-6.01 21.27-9.43 31.77-1.78 5.47-4.14 10.81-6.88 15.86-1.34 2.46-4.15 4.12-6.3 6.14-.35-.21-.7-.42-1.06-.63.79-4.4 1.53-8.82 2.37-13.21 2.8-14.71 5.98-29.37 8.3-44.15 1.25-8.02 1.34-16.27 1.4-24.42.08-10.66 3.34-20.7 5.29-31 1.87-9.88 4.12-19.69 6.19-29.53.14-.66.28-1.33.28-1.99.16-20.24 6.4-39.42 10.23-59.02 1.13-5.81 2.32-11.63 3.84-17.34.9-3.37 2.5-6.54 3.8-9.8.49-1.24 1.38-2.46 1.43-3.71.36-10 4.44-19.1 6.66-28.64 3.89-16.75 7.09-33.66 10.88-50.44 1.22-5.4 3.03-10.74 5.21-15.83 1.01-2.45 3.54-4.25 5.88-6.87z" fill="#010102"/><path d="m248.22 213.96c3.18-.63 6.33-1.58 9.53-1.83 10.13-.81 18.69-6.71 28.41-8.6 11.73-2.28 23.55-4.25 35.41-5.64 5.93-.69 12.05.47 18.07.28 2.41-.08 4.94-1.25 7.12-2.45 2.47-1.36 3.5-3.62 3.38-6.73-.68-18.22-1.15-36.45-1.69-54.68-.03-.88 0-1.76 0-2.65 5.83.38 9.75 3.63 10.61 9.07.56 3.52.81 7.12.88 10.69.16 8.04 3.97 15.07 5.94 22.6 4.19 16.06 4.37 32.33 1.7 48.6-.81 4.9-2.88 9.63-4.74 14.29-1.21 3.03-1.16 5.88-.1 8.79 1.57 4.29 1.37 8.45-.07 12.77-2.37 7.1-4.53 14.27-6.6 21.46-.64 2.25-1.71 3.55-3.94 4.43-6.24 2.45-12.47 4.97-18.51 7.86-4.99 2.39-10.01 3.31-15.52 2.8-2.25-.21-4.67.79-6.92 1.53-1.46.48-2.84 1.36-4.08 2.3-3.99 3.01-8.29 3.65-13.2 2.85-3.01-.49-6.22.14-9.33.38-8.27.62-15.73-2.3-23.45-4.71-8.68-2.71-15.21-7.48-20.92-14.53-4.62-5.7-8.17-11.09-7.72-18.76.17-2.83-1.43-5.75-2.1-8.65-1.68-7.26-3.45-14.51-4.9-21.82-2.19-11.11-3.61-22.3-2.11-33.68.18-1.4-.14-2.89-.35-4.32-.6-4.25-1.41-8.23.67-12.66 1.3-2.78.24-6.72.01-10.13-.18-2.73.19-4.89 3.53-5.63.5 1.41 1.03 2.74 1.45 4.11 1.5 4.91 2.81 9.89 4.47 14.75 2.09 6.09 3.64 12.18 2.34 18.67-1.06 5.26.93 10.13 1.93 15.14 2.76 13.81 5.16 27.69 8.22 41.43 1.27 5.72 3.8 11.17 5.87 16.7 1.9 5.09 5.99 7.71 11.02 8.86 10.89 2.49 21.79 3.53 32.81.34 8.15-2.36 16.45-4.21 24.66-6.4 2.14-.57 4.23-1.42 6.21-2.41 6.2-3.09 12.22-6.58 18.55-9.36 3.78-1.66 5.48-4.12 5.98-8 2.08-15.95 2.23-31.88-.25-47.81-.8-5.17-2.35-6.31-8.91-5.21-3.82.64-7.67 1.67-11.5 1.63-15.98-.16-31.18 4.03-46.51 7.7-10.48 2.51-21.01 3.08-31.38-.78-1.41-.53-2.77-1.19-4.16-1.79.07-.28.13-.54.19-.8z" fill="#010102"/><g fill="#fcfbfa"><path d="m385.2 377.6.6-.7c.6.4 1.3.9 1.9 1.5l-.6.7c-.8-.5-1.4-1-1.9-1.5zm.3 7.1c.6-1.4 1.1-2.9 1.5-4.5.3.1.6.3.9.4-.5 1.4-1 2.9-1.5 4.4zm.2-10.1.6-.6c.7.5 1.3 1.1 1.9 1.6l-.7.7c-.6-.6-1.2-1.2-1.8-1.7zm8.4-.8h.8v.9h1.8v.7h-1.8v1.8h-.8v-.3h-1.2v.9h3.3v2.6h-.8v-.4h-2.5c0 .3 0 .6-.1.8h3.4v.7h-3.5c0 .3-.1.6-.1.8h4v.7h-3.5c.7.9 1.9 1.3 3.6 1.5-.2.2-.4.5-.6.9-1.9-.3-3.2-1.1-3.8-2.3-.5 1.1-1.8 2-3.9 2.4-.2-.3-.4-.5-.6-.8 1.9-.4 3.1-.9 3.6-1.7h-3.2v-.7h3.5c.1-.2.1-.5.2-.8h-3.3v-.7h3.4c0-.2 0-.5 0-.8h-2.4v.3h-.8v-2.6h3.3v-.9h-1.2v.3h-.8v-1.8h-1.8v-.7h1.8v-.9h.8v.9h3.2zm-4.4 5.5h2.4c0-.3 0-.6 0-.9h-2.4zm1.2-3.1h3.2v-.8h-3.2zm4.4 2.2h-2.4v.9h2.5v-.9z"/><path d="m389.2 385.8h.9v1.5h1.9v-1.5h.9v1.5h2.7v6h1.1v.9h-11.3v-.9h1.1v-6h2.7zm.2 8.7.5.8c-1.2.6-2.5 1.3-4 1.9-.2-.3-.3-.6-.6-.8 1.6-.6 3-1.3 4.1-1.9zm-2-4.3h1.9v-2.1h-1.9zm0 3.1h1.9v-2.2h-1.9zm2.7-3.1h1.9v-2.1h-1.9zm0 3.1h1.9v-2.2h-1.9zm2.4 1.3c1.4.6 2.7 1.2 4.1 1.8l-.5.9c-1.5-.7-2.8-1.4-4.1-1.9zm2.2-6.5h-1.9v2.1h1.9zm-1.9 5.2h1.9v-2.2h-1.9z"/></g></svg>