<svg enable-background="new 0 0 400 400" viewBox="0 0 400 400" xmlns="http://www.w3.org/2000/svg"><path d="m26.93 51.6c10.77-.17 20.92-.68 30.89 1.89 2.66.69 5.32 1.66 7.74 2.95 5.23 2.79 10.17 6.12 15.46 8.76 6.27 3.13 11.46 7.29 15.07 13.31 1.18 1.97 2.48 2.22 4.68 1.52 50.04-15.91 100.07-31.89 150.23-47.42 7.93-2.46 16.48-2.91 24.76-4.19 6.41-.99 12.86-1.74 19.26-2.77 11.22-1.8 22.33-.19 33.43 1.02 6.43.7 12.9 1.59 19.15 3.18 3.54.9 6.94 3.04 9.91 5.26 2.95 2.2 3.68 5.69 2.95 9.67-4.74.3-9.39.62-14.04.88-17.42 1-34.94 1.15-52.23 3.22-13.68 1.63-27.23 5.04-40.57 8.65-23.52 6.36-45.69 16.05-66.7 28.48-4.29 2.54-9.72 3.09-14.55 4.78-2.37.83-4.79 1.84-6.81 3.29-6.46 4.62-12.96 9.23-19.04 14.32-5.12 4.29-10.82 5.29-16.94 4.12-6.35-1.21-12.55-3.18-18.86-4.63-3.47-.79-7.01-1.36-10.55-1.65-.94-.08-2.44.98-2.93 1.91-2.46 4.65-1.72 9.53-.57 14.39 1.18 5 2.45 9.98 3.34 15.04.41 2.3 1.91 2.82 3.58 3.39 9 3.05 18.18 2.67 27.16.42 13.75-3.45 27.3-7.67 41.01-11.27 38.27-10.03 76.51-20.19 114.92-29.66 9.9-2.44 20.37-2.68 30.61-3.59 6.32-.56 12.73-.92 19.05-.53 6.85.42 10.98 4.21 12.17 10.1-5.14 1.56-10.37 3-15.51 4.73-29.86 10.04-59.63 20.35-89.59 30.1-7.26 2.36-15.18 2.6-22.64 4.45-10.07 2.49-20 5.56-29.97 8.45-4.83 1.4-9.73 2.67-14.39 4.5-7.07 2.78-14.47 2.66-21.8 3.16-10.71.73-21.44 1.28-32.16 1.78-1.35.06-2.83-.38-4.1-.94-2.96-1.31-5.74-3.04-8.74-4.24-5.7-2.27-8.86-.47-9.98 5.48-2.81 14.94-5.59 29.89-8.36 44.84-.1.54-.06 1.1-.1 1.92 5.99 1.94 12.05 1.66 17.81-.09 11.1-3.37 22.17-6.95 33.02-11.07 21.58-8.2 43.75-14.41 66.25-19.27 20.2-4.35 40.54-8.29 61-11.08 27.5-3.76 55.12-3.98 82.43 2.23 4.29.98 8.44 2.85 12.44 4.76 1.93.92 3.63 2.65 4.97 4.38 3.89 5.05 3 7.71-2.95 9.49-13.09 3.91-26.33 3.11-39.58 1.14-15.13-2.24-30.09-2.32-44.68 3.05-1.97.72-3.88 1.61-6.56 2.74 4.87 3 9.01 5.96 13.51 8.22 6.72 3.37 10.82 8.77 13.63 15.47 6.62 15.77 10.79 32.2 12.92 49.14 1.14 9.09-1.92 17.73-3.65 26.46-3.02 15.31-10.15 28.7-20.2 40.57-4.34 5.13-9.09 9.94-13.1 15.3-8.73 11.66-20.79 17.93-34.43 21.13-23.17 5.43-45.96 3.98-67.97-5.65-1.07-.47-2.26-1.16-2.89-2.08-7.61-11.2-14.85-22.63-19.78-35.33-5.32-13.71-6.77-27.97-5.48-42.54 1.01-11.48 2.33-22.93 3.22-34.42.33-4.32-.23-8.71-.28-13.06-.08-6.76-4.45-10.63-9.41-14.1-.47-.33-1.22-.28-1.85-.32-.32-.02-.67.1-.97.24-16.19 7.31-33.29 8.02-50.59 7.07-2.83-.16-4.44.85-5.97 3.14-4.55 6.78-9.46 13.32-13.99 20.11-2.42 3.62-5.35 6.45-9.05 8.74-1.56.96-2.9 2.73-3.65 4.43-1.72 3.87-2.78 8.04-4.54 11.89-1.75 3.83-3.5 7.89-6.21 11.01-4.25 4.89-5.87 10.36-6.25 16.56-.43 7.12-5 9.99-11.64 7.24-.95-.4-1.97-2.03-1.96-3.09.04-3.64-.2-7.53.95-10.88 6.61-19.33 13.06-38.75 20.6-57.73 7.19-18.09 10.53-37.16 15.98-55.68 6.13-20.83 4.73-41.68.89-62.48-2.51-13.59-6.14-26.99-9.63-40.38-2.13-8.16-7.4-14.38-13.68-19.88-3.69-3.22-7.04-6.83-10.43-10.38-.95-.99-1.48-2.37-2.49-4.07zm132.39 168.34c4.38 4.15 8.08 8.26 12.38 11.6 6.82 5.31 10.41 11.94 11.61 20.53 1.12 8.03 3.43 15.89 5.21 23.83.72.08 1.16.2 1.59.18 4.02-.2 8.05-.28 12.06-.65 26.18-2.36 50.95-10.36 75.53-19.05.89-.32 1.88-1.58 2.05-2.54 1.79-10.09.07-19.56-5.3-28.34-2.1-3.43-4.53-6.74-6.06-10.42-2.68-6.45-4.77-13.15-7.32-20.34-32.65 10.95-68.1 13.27-101.75 25.2zm53.42 131.46c2.99-.74 9.08-1.51 14.57-3.76 14.62-5.98 27.4-15.02 39.06-25.6 3.22-2.92 7.22-5.76 8.79-9.5 2.28-5.43 3.12-11.61 3.77-17.56.6-5.45-5.73-10.3-10.16-9.39-17.42 3.6-34.68 7.67-50.91 15.14-5.54 2.55-11.09 2.32-16.7 1.11-3.36-.72-6.64-1.93-9.84-3.22-6.71-2.72-12.47-.78-17.82 3.33-.59.45-1.03 1.46-1.07 2.24-.29 7.15-.81 14.32-.6 21.46.21 7.11 3.68 13.23 9.38 17.06 8.48 5.7 18.2 8.44 31.53 8.69z" fill="#010104"/><g fill="#fcfbfa"><path d="m385.2 377.6.6-.7c.6.4 1.3.9 1.9 1.5l-.6.7c-.8-.5-1.4-1-1.9-1.5zm.3 7.1c.6-1.4 1.1-2.9 1.5-4.5.3.1.6.3.9.4-.5 1.4-1 2.9-1.5 4.4zm.2-10.1.6-.6c.7.5 1.3 1.1 1.9 1.6l-.7.7c-.6-.6-1.2-1.2-1.8-1.7zm8.4-.8h.8v.9h1.8v.7h-1.8v1.8h-.8v-.3h-1.2v.9h3.3v2.6h-.8v-.4h-2.5c0 .3 0 .6-.1.8h3.4v.7h-3.5c0 .3-.1.6-.1.8h4v.7h-3.5c.7.9 1.9 1.3 3.6 1.5-.2.2-.4.5-.6.9-1.9-.3-3.2-1.1-3.8-2.3-.5 1.1-1.8 2-3.9 2.4-.2-.3-.4-.5-.6-.8 1.9-.4 3.1-.9 3.6-1.7h-3.2v-.7h3.5c.1-.2.1-.5.2-.8h-3.3v-.7h3.4c0-.2 0-.5 0-.8h-2.4v.3h-.8v-2.6h3.3v-.9h-1.2v.3h-.8v-1.8h-1.8v-.7h1.8v-.9h.8v.9h3.2zm-4.4 5.5h2.4c0-.3 0-.6 0-.9h-2.4zm1.2-3.1h3.2v-.8h-3.2zm4.4 2.2h-2.4v.9h2.5v-.9z"/><path d="m389.2 385.8h.9v1.5h1.9v-1.5h.9v1.5h2.7v6h1.1v.9h-11.3v-.9h1.1v-6h2.7zm.2 8.7.5.8c-1.2.6-2.5 1.3-4 1.9-.2-.3-.3-.6-.6-.8 1.6-.6 3-1.3 4.1-1.9zm-2-4.3h1.9v-2.1h-1.9zm0 3.1h1.9v-2.2h-1.9zm2.7-3.1h1.9v-2.1h-1.9zm0 3.1h1.9v-2.2h-1.9zm2.4 1.3c1.4.6 2.7 1.2 4.1 1.8l-.5.9c-1.5-.7-2.8-1.4-4.1-1.9zm2.2-6.5h-1.9v2.1h1.9zm-1.9 5.2h1.9v-2.2h-1.9z"/></g></svg>