<svg enable-background="new 0 0 400 400" viewBox="0 0 400 400" xmlns="http://www.w3.org/2000/svg"><path d="m239.11 306.15c.6-4.62.45-8.73-3.2-12.63-2.65-2.83-3.84-6.99-5.76-10.52-1.9-3.51-3.45-7.32-5.93-10.37-3.71-4.58-5.83-9.8-7.44-15.24-3.18-10.7-8.18-20.28-16.31-28.01-6.67-6.34-9.66-14.57-12.6-22.92-.95-2.68-2.54-5.17-4.03-7.63-3.7-6.09-7.55-12.09-11.26-18.18-6.63-10.88-13.25-21.76-19.8-32.69-4.13-6.89-8.37-13.74-12.06-20.86-3.15-6.09-6.48-11.96-11.01-17.14-2.36-2.69-4.89-5.35-6.64-8.43-3.6-6.33-9.4-7.62-15.85-7.91-5.86-.26-7.86-1.99-9.34-8.28 4.84-2.08 9.64-4.5 14.7-6.14 2.01-.65 4.6.26 6.88.7 5.69 1.09 8.3-.43 8.42-6.22.15-7.13-.58-14.27-.81-21.42-.09-2.88-.15-5.82.25-8.66.5-3.48 2.69-5.52 6.41-5.66.22.29.6.55.6.81-.12 4.64 1.23 8.43 5.54 10.88.79.45 1.05 1.91 1.43 2.95 2.73 7.45 5.49 14.89 8.08 22.39.7 2.02 1.52 2.8 3.79 2.59 9.02-.84 18.06-1.53 27.1-2.08 1.95-.12 2.69-1.13 2.77-2.59.46-8.11.75-16.24 1.15-24.36.26-5.33.45-10.68 1.02-15.98.19-1.79 1.38-3.5 2.24-5.18 1.26-2.47 3.21-2.78 5.62-1.68 2.26 1.04 3.4 2.69 2.58 5.1-1.91 5.6-.95 10.9.89 16.34 2.58 7.62 4.79 15.36 6.96 23.1.56 1.99 1.52 2.62 3.44 2.77 11.59.92 23.15 2.21 34.75 2.79 5.07.25 10.23-.83 15.32-1.53.78-.11 1.81-1.37 2.02-2.26 1.66-7.15 3.28-14.32 4.65-21.53.97-5.15 1.22-10.45 2.39-15.54.61-2.66 2.52-5.01 4.06-7.92 6.52 7.07 8.01 14.92 8.29 23.21.16 4.8.56 9.6.74 14.4.26 6.86 3.43 11.91 9.38 15.21 4.68 2.6 7.35 6.44 7.5 11.84.04 1.3-.23 2.65-.58 3.91-4.96 17.63-10.26 35.17-14.83 52.89-2.65 10.26-3.75 20.91-6.26 31.21-2.52 10.32-5.91 20.4-13.47 28.48-1.64 1.75-3.24 2.61-5.52 2.29-4.5-.63-8.39-1.92-11.55-5.8-9.89-12.15-20.22-23.94-30.24-35.98-2.11-2.54-3.7-5.53-5.42-8.38-3.1-5.14-5.97-10.43-9.23-15.46-1.94-2.99-2.83-5.97-2.13-9.56 3.41-.04 6.19.72 8.75 3.24 8.29 8.17 16.66 16.27 25.35 24.01 5.32 4.74 8.44 10.94 12.49 16.52 2.92 4.02 6.25 7.29 11.97 7.76 1.02-5.83 2.18-11.58 2.99-17.39 1.13-8.14 2.88-16.02 7.31-23.11 3.41-5.46 4.81-11.56 4.91-17.91.14-8.37.07-16.74-.16-25.11-.04-1.31-1.21-2.74-2.17-3.83-5.44-6.19-12.38-7.42-20.43-7.49-16.65-.13-33.28-1.45-49.93-2.1-2.84-.11-5.74.59-8.56 1.17-8.1 1.66-16.14 3.69-24.28 5.1-6.14 1.06-12.41 1.4-18.63 2.04-1.1.11-2.2.13-3.26.2-1.37 3.88-1.08 7.03 1.41 10.45 13.9 19.07 27.89 38.1 41.15 57.61 7.84 11.53 14.14 24.1 21.59 35.9 9.24 14.64 19.01 28.94 28.44 43.47 3.08 4.75 6.41 9.47 8.55 14.66 5.88 14.21 13.6 27.4 21.19 40.7 3.62 6.35 5.42 13.38 5.27 20.85-.23 11.52-.35 23.05-.32 34.57.01 3.66.67 7.31 1.06 11.21-1.7.52-3.49 1.07-5.53 1.69-7.68-11.27-14.52-22.79-15.7-36.83-.62-7.43-1.06-8.28-8.5-8.53-10.81-.36-21.65-.01-32.46.45-4.78.21-5.45.96-5.21 5.89.34 6.89 1.48 13.74 2.19 20.62.44 4.32 1.08 8.67.97 12.98-.12 4.61-2.37 8.29-7.08 10.57-.56-1.32-1.09-2.49-1.56-3.69-5.08-13.13-10.25-26.22-15.15-39.42-1.08-2.9-2.84-4.26-5.61-4.28-7.47-.04-14.95-.06-22.41.28-4.56.21-9.12.97-13.62 1.78-1.16.21-2.78 1.36-3.06 2.39-1.52 5.58-2.86 11.22-3.92 16.9-.98 5.22-2.9 7.88-6.76 8.42-1.97.28-3.25-.18-4.3-2.14-5.57-10.35-7.55-21.65-9.22-33.08-1.03-7.09-.21-13.92 1.08-20.93.88-4.78-.36-9.93-.52-14.92-.59-18.66-1.34-37.27 1.68-55.89 1.61-9.88.93-20.11 1.89-30.12 1.02-10.67 2.71-21.28 4.21-31.9.33-2.35 3.57-4.53 5.87-3.66 2.52.95 5.26 2.2 7.02 4.13 8.94 9.82 16.24 20.82 21.52 33.02 7.64 17.7 17.3 34.3 26.7 51.08 3.51 6.26 5.53 13.35 8.12 20.11 1.12 2.93-.16 4.73-2.96 6.04-6.2 2.92-11.59.54-16.83-2.4-2.91-1.63-5.55-3.75-8.28-5.7-2.27-1.61-3.86-3.64-3.86-7.07 3.01-.48 5.95-.97 8.9-1.41 4.42-.66 5.74-2.61 4.87-6.87-.63-3.11-1.66-5.84-3.82-8.35-1.57-1.83-2.12-4.53-3.22-6.8-1.24-2.57-2.15-5.48-3.98-7.57-7.29-8.34-14.9-16.41-22.36-24.6-.59-.65-.95-1.52-1.42-2.29-.47.11-.93.22-1.4.34-.99 2.98-2.66 5.92-2.86 8.96-.92 13.39-1.98 26.81-1.92 40.21.07 15.87 1.2 31.75 2 47.61.06 1.1.97 2.46 1.89 3.17 3.2 2.44 6.86 2.8 10.82 2.21 5.17-.77 10.39-1.34 15.61-1.63 16.25-.91 32.39.94 48.56 2.09 7.11.51 23.9-.59 27.23-2.5z" fill="#010100"/><g fill="#fcfafa"><path d="m342.2 3.2-6.3 9.2h6.1v1.2h-8.2v-.5l6.2-9.1h-5.7v-1.2h7.8v.4z"/><path d="m344 13.7v-10.9h3.1c1.6 0 3 .5 4.1 1.4 1.1 1 1.6 2.2 1.6 3.9s-.5 3-1.6 4-2.5 1.5-4.2 1.5h-3zm1.4-9.6v8.4h1.6c1.4 0 2.5-.4 3.2-1.1.8-.8 1.2-1.8 1.2-3.2s-.4-2.4-1.2-3.1-1.8-1-3.1-1z"/><path d="m356.3 2.8v10.9h-1.4v-10.9z"/><path d="m366.6 13.2c-.8.4-1.8.6-3 .6-1.6 0-2.8-.5-3.7-1.5s-1.4-2.3-1.4-3.9c0-1.7.5-3.2 1.6-4.2s2.4-1.6 4-1.6c1 0 1.9.1 2.6.4v1.5c-.8-.4-1.6-.6-2.6-.6-1.2 0-2.2.4-3 1.2s-1.1 1.9-1.1 3.3c0 1.3.4 2.3 1.1 3.1s1.6 1.1 2.8 1.1c1.1 0 2-.2 2.8-.7v1.3z"/><path d="m368.2 13c0-.3.1-.5.3-.6.2-.2.4-.3.6-.3.3 0 .5.1.7.3s.3.4.3.6-.1.5-.3.6c-.2.2-.4.3-.7.3s-.5-.1-.6-.3c-.2-.2-.3-.4-.3-.6z"/><path d="m381.1 13.7h-1.7l-5.5-8.4c-.2-.2-.3-.5-.4-.7 0 .2.1.8.1 1.5v7.6h-1.4v-10.9h1.8l5.3 8.3c.3.4.4.6.4.8 0-.3-.1-.8-.1-1.6v-7.5h1.4v10.9z"/><path d="m389.7 13.7h-5.8v-10.9h5.6v1.2h-4.2v3.5h3.9v1.2h-3.9v3.7h4.4z"/><path d="m398.4 4.1h-3.1v9.6h-1.4v-9.6h-3.1v-1.3h7.7v1.3z"/></g></svg>