<svg enable-background="new 0 0 400 400" viewBox="0 0 400 400" xmlns="http://www.w3.org/2000/svg"><path d="m176.27 191.94c-.47-8.03-.91-15.81-1.38-23.6-.38-6.26-.68-12.52-1.28-18.75-.14-1.45-1.04-3.21-2.17-4.1-6.04-4.79-12.95-6.38-20.52-4.68-6.45 1.45-12.88 1.29-19.26-.33-9.82-2.5-16.3-9.21-19.53-18.25-2.59-7.26-3.56-15.16-4.71-22.86-2.66-17.85-3.85-35.8-3.23-53.86.22-6.41-.73-4.81 5.1-6.51.74-.22 1.49-.38 2.81-.72 1.53 7.77 2.92 15.43 4.55 23.04 2.36 11.03 4.31 22.19 7.48 32.99 4.94 16.81 19.58 22.95 34.76 21.48 7.68-.74 11.8-5.62 10.66-13.43-2.72-18.74-1.16-37.55-1.71-56.31-.11-3.82.59-7.23 2.49-10.55 1.92-3.37 3.53-6.92 5.24-10.32 5.6 1.13 7.95 3.49 8.86 8.89.37 2.2.82 4.47.66 6.67-.52 7.28 1.36 14.18 2.78 21.18.54 2.68.4 5.5.62 8.24.27 3.39.2 6.87.98 10.15 1.67 7.06 3.79 14.01 5.74 21 .18.64.41 1.28.67 1.9 4.83 11.56 12.53 14.79 23.43 8.51 5-2.88 9.3-7.72 10.22-14.14 2.23-15.61 4.35-31.24 6.42-46.87.69-5.2.81-10.48 1.72-15.63.81-4.59 4.5-7.15 7.91-5.2 2.57 1.47 5.6 4.68 5.81 7.33 1.36 16.95 2.19 33.95 2.73 50.95.11 3.62-1.81 7.28-2.6 10.96-1.44 6.71-5.36 11.58-10.11 16.44-8.36 8.53-17.06 15.88-29.31 17.89-2.48.41-4.77 1.89-7.19 2.72-5.66 1.92-8.11 6.19-8.23 11.78-.1 4.56.3 9.16.78 13.7.11 1.08 1.23 2.32 2.23 2.99 3.52 2.38 7.06 4.78 10.82 6.74 9.43 4.91 16.59 12.42 23.71 20.02 3.96 4.23 8.24 7.89 14.37 8.53 2.99.31 5.41-.17 7.21-2.94 1.51-2.34 3.33-4.51 5.26-6.53 1.27-1.33 2.83-2.67 4.52-3.26 5.47-1.91 7.6-.18 8.49 5.37.77 4.82-.03 8.81-2.88 12.85-2.86 4.04-4.39 8.79-4.07 13.92.19 3-1.32 5.25-3.96 5.93-4.61 1.19-9.36 1.87-14.09 2.48-1.02.13-2.23-.87-3.29-1.44-15.79-8.58-30.45-18.76-43.72-30.89-.64-.58-1.39-1.04-2.47-1.84-.08 1.45-.19 2.5-.19 3.55-.01 19.03.06 38.06-.09 57.09-.02 2.78 1.05 4.29 3.16 5.68 8.16 5.36 17.35 7.52 26.82 8.93 12.32 1.84 24.68 2.66 37.13 1.51 1.46-.14 3.11.28 4.47.89 14.01 6.28 22.47 17.65 28.36 31.29 3.82 8.83 5.95 18.06 5.46 27.73-.17 3.31-.72 6.66-1.58 9.87-1.32 4.96-3.06 9.81-4.62 14.71-1.23 3.87-1.23 3.87-5.7 5.29-4.25-5.2-5.83-11.39-6.46-17.94-.82-8.55-1.28-17.16-2.58-25.64-1.16-7.55-4.99-14.05-10.11-19.75-4.31-4.8-9.82-7.08-16.1-7.05-5.68.02-11.36 1.03-17.04.98-5.78-.05-11.55-.91-17.34-1.28-1.36-.09-2.94.05-4.1.67-5.23 2.78-10.41 5.67-15.47 8.76-.92.56-1.73 2.22-1.67 3.33.23 4.01.68 8.03 1.36 12 2.08 12.16-1.01 24.06-1.61 36.08-.21 4.24-.38 8.51-1.13 12.67-.31 1.7-1.78 3.74-3.29 4.57-3.81 2.1-5.58.83-6.05-3.48-1.97-18.24-3.97-36.48-6.06-54.7-.13-1.17-.97-2.48-1.87-3.3-6.34-5.71-14.19-7.48-22.22-6.37-13.37 1.85-26.56 5.06-39.93 6.89-6.64.91-9.27 4.51-10.89 10.19-1.63 5.7-1.88 11.35-1.31 17.24.78 8.1 1.14 16.26 1.35 24.41.12 4.85-2.03 9.13-4.87 12.97-2.43 3.28-4.65 3.47-8.42 2.34-4.78-1.44-6.31-4.13-6.37-9.15-.27-20.25-1.07-40.5-1.57-60.75-.03-1.16.53-2.61 1.31-3.49 13.13-14.93 29.85-23.73 49.12-27.53 8.29-1.63 16.88-1.8 25.33-2.58 6.62-.61 12.47-2.86 16.58-8.29 1.03-1.36 1.75-3.46 1.61-5.14-.95-11.93-2.13-23.85-3.36-35.75-.1-1-.96-2.28-1.83-2.79-8.51-4.94-17.09-9.75-25.67-14.57-.57-.32-1.38-.87-1.81-.69-5.21 2.24-11.53 2.16-15.31 7.38-3.35 4.62-6.67 9.26-10.15 13.78-2.86 3.71-6.54 6.23-11.48 5.66-1.34-.15-2.98-1.04-3.76-2.11-3.27-4.46-3.39-9.33-.97-14.25 6.2-12.63 12.84-25.02 21.05-36.46 1.25-1.74 3.91-3.29 6.02-3.43 7.28-.49 13.98.84 19.6 6.5 5.65 5.69 12.46 10.04 20.93 11.89z" fill="#010106"/><g fill="#fcfbfa"><path d="m385.2 377.6.6-.7c.6.4 1.3.9 1.9 1.5l-.6.7c-.8-.5-1.4-1-1.9-1.5zm.3 7.1c.6-1.4 1.1-2.9 1.5-4.5.3.1.6.3.9.4-.5 1.4-1 2.9-1.5 4.4zm.2-10.1.6-.6c.7.5 1.3 1.1 1.9 1.6l-.7.7c-.6-.6-1.2-1.2-1.8-1.7zm8.4-.8h.8v.9h1.8v.7h-1.8v1.8h-.8v-.3h-1.2v.9h3.3v2.6h-.8v-.4h-2.5c0 .3 0 .6-.1.8h3.4v.7h-3.5c0 .3-.1.6-.1.8h4v.7h-3.5c.7.9 1.9 1.3 3.6 1.5-.2.2-.4.5-.6.9-1.9-.3-3.2-1.1-3.8-2.3-.5 1.1-1.8 2-3.9 2.4-.2-.3-.4-.5-.6-.8 1.9-.4 3.1-.9 3.6-1.7h-3.2v-.7h3.5c.1-.2.1-.5.2-.8h-3.3v-.7h3.4c0-.2 0-.5 0-.8h-2.4v.3h-.8v-2.6h3.3v-.9h-1.2v.3h-.8v-1.8h-1.8v-.7h1.8v-.9h.8v.9h3.2zm-4.4 5.5h2.4c0-.3 0-.6 0-.9h-2.4zm1.2-3.1h3.2v-.8h-3.2zm4.4 2.2h-2.4v.9h2.5v-.9z"/><path d="m389.2 385.8h.9v1.5h1.9v-1.5h.9v1.5h2.7v6h1.1v.9h-11.3v-.9h1.1v-6h2.7zm.2 8.7.5.8c-1.2.6-2.5 1.3-4 1.9-.2-.3-.3-.6-.6-.8 1.6-.6 3-1.3 4.1-1.9zm-2-4.3h1.9v-2.1h-1.9zm0 3.1h1.9v-2.2h-1.9zm2.7-3.1h1.9v-2.1h-1.9zm0 3.1h1.9v-2.2h-1.9zm2.4 1.3c1.4.6 2.7 1.2 4.1 1.8l-.5.9c-1.5-.7-2.8-1.4-4.1-1.9zm2.2-6.5h-1.9v2.1h1.9zm-1.9 5.2h1.9v-2.2h-1.9z"/></g></svg>