<svg enable-background="new 0 0 400 400" viewBox="0 0 400 400" xmlns="http://www.w3.org/2000/svg"><path d="m133.59 224.99c7.71-19.53 15.67-38.71 22.75-58.22 2.4-6.61 2.49-14.04 3.77-21.07.44-2.44-.66-3.34-2.76-4.01-7.18-2.28-14.09-1.05-21.07 1.03-6.83 2.04-13.76 3.72-20.68 5.44-1.49.37-3.11.28-4.67.29-6.16.03-8.45-2.01-9.06-8.14-.2-2-.13-4.03-.23-6.04-.19-3.56 1-6.12 4.39-7.85 1.25-.64 2.56-2.78 2.48-4.15-.51-8.46-1.23-16.92-2.24-25.34-1.47-12.21-3.32-24.38-4.85-36.58-.68-5.46 1.96-8.03 7.43-7.7 2.34.14 4.73.63 7.02.35 4.16-.5 6.16 1.26 7.57 5.06 2.53 6.85 3.89 13.72 2.73 21.02-1.54 9.71-1.18 19.39.59 29.05.33 1.82.21 3.77.02 5.62-.51 4.94 1.33 6.86 6.22 6.39 4.45-.43 8.91-.8 13.38-1.12 4.19-.3 5.78-1.46 5.77-5.66-.01-4.1-.77-8.21-1.25-12.3-1.79-15.22-3.6-30.43-5.39-45.65-.25-2.11-.5-4.22-.68-6.34-.36-4.24 2.02-6.81 6.22-6.45 3 .25 6 .75 8.93 1.43.88.2 1.78 1.25 2.26 2.13 3.41 6.2 4.59 12.87 4.98 19.94.86 15.92 2.28 31.8 3.54 48.47 5.8-1.03 11.58-2.04 17.34-3.1 1.42-.26 2.81-.72 4.21-1.12 4.09-1.2 6.03-4.1 4.61-8.07-5.08-14.16-5.36-29.2-8.45-43.71-.8-3.73-2.51-7.41-4.45-10.73-4.76-8.15 2.05-16.55 10.33-17.34 1.78-.17 3.78 1.93 5.68 2.97 3.11 1.69 4.17 4.31 4.78 7.8 2.61 14.89 4.24 29.87 5.29 44.95.23 3.25 1.52 6.5 2.81 9.54.4.95 2.48 1.85 3.64 1.69 4.42-.6 8.82-1.53 13.15-2.61.9-.22 2.16-1.62 2.15-2.47-.06-9.96-.31-19.92-.58-29.87-.02-.84-.3-1.8-.78-2.49-6.32-9.13-5.91-19.11-3.91-29.34.41-2.11 1.46-2.95 3.56-3.21 2.76-.34 5.51-.96 8.21-1.68 2.34-.62 3.68.08 4.8 2.23 4.5 8.59 5.47 17.9 5.72 27.33.33 12.31.44 24.62.75 36.92.14 5.39 2.28 10.01 6.35 13.57 5.09 4.45 5.68 10.49 5.78 16.55.05 3.31-7.87 7.18-11.36 5.85-1.03-.39-2.11-.9-2.9-1.65-6-5.65-12.96-5.7-20.68-4.68-12.32 1.63-13.58 8.64-14.34 18.92-.54 7.33.3 14.76.17 22.14-.06 3.42-.63 6.91-1.53 10.22-2.95 10.9-5.94 21.79-9.38 32.54-1.16 3.63-3.82 6.75-5.59 10.21-2.27 4.44-4.72 8.86-6.41 13.53-3.76 10.41-7.29 20.91-10.51 31.49-1.25 4.11-1.54 8.54-2.02 12.85-.09.8.73 2.1 1.5 2.54 7.07 4.1 14.73 4.89 22.7 3.72 2.18-.32 2.78-1.75 3.13-3.68 1.73-9.8 3.26-19.65 5.43-29.35 1.63-7.28 4.04-14.39 6.25-21.53 2.63-8.49 4.28-17.12 4.53-26.02.03-1.19.42-2.42.86-3.54 2.08-5.3 4.01-10.69 6.43-15.84 3.81-8.13 5.25-16.81 6.43-25.56.15-1.14-.31-2.38-.56-3.55-.82-3.81-1.79-7.59-2.49-11.41-.57-3.12 1.06-5.23 3.9-6.21 2.2-.76 4.52-1.31 6.83-1.51 1.11-.09 2.64.54 3.41 1.37 8.52 9.19 16.95 18.48 25.36 27.77.66.73 1.28 1.6 1.59 2.51 6.44 18.93 13.97 37.56 17.35 57.36.91 5.33-.41 11.06-.82 16.59-.19 2.56-.97 5.1-.95 7.65.04 5.21-2.1 9.19-5.93 12.52-1.77 1.54-3.44 3.22-4.99 4.98-6.62 7.52-14.95 7.53-23.76 5.52-.6-.14-1.25-.52-1.65-.99-5.59-6.48-10.53-13.35-12.91-21.73-.36-1.28-.38-2.64-.67-3.95-1.27-5.79 2.68-8.8 6.4-11.86.53-.44 1.72-.38 2.49-.16 5.16 1.47 10.32 2.95 15.4 4.65 1.76.59 3.3 1.81 5.16 2.87 2.73-6 2.56-12.32 1.04-18.32-3.14-12.44-6.87-24.73-10.6-37.01-.58-1.91-2.43-3.43-4.21-5.83-1.29 3.24-2.19 5.5-3.09 7.75-4.28 10.68-8.62 21.35-12.79 32.07-.7 1.79-1.12 3.95-.84 5.81.53 3.57.15 6.86-1.33 10.11-.6 1.32-1.02 2.72-1.52 4.08-7.23 19.85-7.2 19.85-6.93 41.09.02 2.02.73 2.91 2.51 3.63 5.18 2.09 10.12 5.02 15.47 6.39 5.31 1.36 11.01 1.72 16.52 1.62 7.71-.15 15.46-1.35 22.84 1.76 3.25 1.37 6.4 3.13 9.31 5.12 2.32 1.58 3.08 4.15 1.79 6.84-2.43 5.08-2.08 9.94.03 15.13 1.11 2.74 1.26 6.08 1.06 9.1-.36 5.4-.25 10.53 1.55 15.81 2.58 7.57 3.42 15.44 1.6 23.47-.87 3.81-3.3 6.03-6.4 7.67-3.36 1.78-6.26.58-7.75-2.9-5.31-12.39-8.64-25.36-11.45-38.5-1.51-7.03-3.34-13.96-8.72-19.26-4.91-4.84-10.93-5.73-17.39-4.74-.69.11-1.68 1.51-1.69 2.32-.03 4.33-.53 8.85.5 12.96 2.32 9.26 2.9 18.49 2.01 27.93-.5 5.34-.43 10.73-.85 16.07-.12 1.6-.73 3.32-1.6 4.69-2.61 4.12-7.7 4-10-.08-5.42-9.6-7.84-20.19-9.71-30.88-1.52-8.68-2.65-17.43-3.61-26.19-.83-7.6-7.88-13.21-15.57-12.79-5.15.29-10.39-.49-15.56-1.05-5.32-.58-7.71 0-7.65 5.22.09 7.79.79 15.45 3.55 22.93 1.67 4.53 2.51 9.53 2.75 14.38.26 5.2-.61 10.46-.97 15.7-.26 3.8-2.89 5.68-5.93 7.03-3.69 1.64-5.82.78-8.02-2.64-5.24-8.14-6.6-17.45-8.3-26.7-2.15-11.65-4.63-23.24-6.91-34.86-.35-1.77-1.16-2.6-3.02-2.9-6.84-1.1-13.68-2.27-20.46-3.68-1.99-.41-2.82.31-3.76 1.73-4.8 7.24-6.17 14.98-3.7 23.36 2.18 7.39 5.01 14.69 4.21 22.59-.28 2.73-.94 5.54-2.03 8.04-2.47 5.64-7.66 7.94-12.56 4.47-2.97-2.1-5.33-6.62-5.84-10.34-2.15-15.5-3.55-31.11-5.1-46.69-.55-5.57-3.92-9.58-9.61-10.01-3.41-.26-4.5-1.98-4.57-4.91-.05-2.01-.13-4.06.23-6.02.21-1.14 1.01-2.5 1.96-3.13 3.44-2.29 7.01-4.41 10.64-6.38 1.07-.58 2.62-.92 3.75-.62 8.75 2.25 17.4 4.9 26.18 6.97 4.63 1.09 9.47 1.77 14.21 1.72 6.54-.06 9.33-2.99 10.32-9.52.49-3.2.62-6.48 1.28-9.64 1.07-5.11 1.98-10.33 3.75-15.21 7.46-20.47 15.62-40.69 22.74-61.27 4.56-13.18 6.35-27 4.48-41.02-.13-.99-1.26-2.53-2.07-2.63-2.11-.26-4.51-2.62-6.44.06-5.35 7.43-9.24 15.55-10.93 24.62-.14.76-.3 1.65-.06 2.33 1.59 4.46-.34 8.24-2.02 12.16-6.23 14.59-12.12 29.34-18.62 43.81-4.29 9.57-9.29 18.82-14.17 28.12-2.5 4.77-8.77 7.64-13.94 6.71-.9-.16-1.78-.85-2.51-1.49-3.46-3.02-7.1-5.88-10.22-9.21-4.85-5.18-6.29-11.93-6.18-18.65.13-7.91 1.75-15.79 1.99-23.71.25-8.08 2.69-15.08 6.96-21.89 3-4.77 4.62-10.4 7.08-15.54 3.1-6.49 8.15-10.34 15.59-10.11 1.23.04 3.15 1.12 3.49 2.14.75 2.24 1.42 4.95.81 7.1-1.23 4.36-2.45 9.22-5.25 12.55-8.68 10.34-10.52 22.42-10.71 35.16-.04 2.8.2 5.62-.12 8.39-.35 3.07.73 4.6 3.76 4.9.92.1 1.78.38 3.29.72z" fill="#010106"/><g fill="#fcfbfa"><path d="m385.2 377.6.6-.7c.6.4 1.3.9 1.9 1.5l-.6.7c-.8-.5-1.4-1-1.9-1.5zm.3 7.1c.6-1.4 1.1-2.9 1.5-4.5.3.1.6.3.9.4-.5 1.4-1 2.9-1.5 4.4zm.2-10.1.6-.6c.7.5 1.3 1.1 1.9 1.6l-.7.7c-.6-.6-1.2-1.2-1.8-1.7zm8.4-.8h.8v.9h1.8v.7h-1.8v1.8h-.8v-.3h-1.2v.9h3.3v2.6h-.8v-.4h-2.5c0 .3 0 .6-.1.8h3.4v.7h-3.5c0 .3-.1.6-.1.8h4v.7h-3.5c.7.9 1.9 1.3 3.6 1.5-.2.2-.4.5-.6.9-1.9-.3-3.2-1.1-3.8-2.3-.5 1.1-1.8 2-3.9 2.4-.2-.3-.4-.5-.6-.8 1.9-.4 3.1-.9 3.6-1.7h-3.2v-.7h3.5c.1-.2.1-.5.2-.8h-3.3v-.7h3.4c0-.2 0-.5 0-.8h-2.4v.3h-.8v-2.6h3.3v-.9h-1.2v.3h-.8v-1.8h-1.8v-.7h1.8v-.9h.8v.9h3.2zm-4.4 5.5h2.4c0-.3 0-.6 0-.9h-2.4zm1.2-3.1h3.2v-.8h-3.2zm4.4 2.2h-2.4v.9h2.5v-.9z"/><path d="m389.2 385.8h.9v1.5h1.9v-1.5h.9v1.5h2.7v6h1.1v.9h-11.3v-.9h1.1v-6h2.7zm.2 8.7.5.8c-1.2.6-2.5 1.3-4 1.9-.2-.3-.3-.6-.6-.8 1.6-.6 3-1.3 4.1-1.9zm-2-4.3h1.9v-2.1h-1.9zm0 3.1h1.9v-2.2h-1.9zm2.7-3.1h1.9v-2.1h-1.9zm0 3.1h1.9v-2.2h-1.9zm2.4 1.3c1.4.6 2.7 1.2 4.1 1.8l-.5.9c-1.5-.7-2.8-1.4-4.1-1.9zm2.2-6.5h-1.9v2.1h1.9zm-1.9 5.2h1.9v-2.2h-1.9z"/></g></svg>