<svg enable-background="new 0 0 400 400" viewBox="0 0 400 400" xmlns="http://www.w3.org/2000/svg"><path d="m191.75 375.03c-13.21.08-23.63.09-33.68-3.18-1.64-.53-3.29-1.46-4.55-2.61-15.43-14.14-30.78-28.38-46.2-42.52-1.47-1.35-2.15-2.56-1.66-4.61 1.35-5.59.85-11.02-1.54-16.33-1.14-2.53-2.03-5.23-2.65-7.94-1.69-7.42-5.35-13.62-10.72-18.95-.98-.97-1.69-2.38-2.1-3.72-2.58-8.44-5.21-16.88-7.4-25.43-.55-2.15.5-4.69.72-7.06.16-1.71.74-3.66.16-5.11-7.8-19.52-9.23-39.69-6.71-60.34.14-1.15-.27-2.42-.65-3.56-1.96-5.83-4.08-11.6-5.93-17.46-.51-1.62-.5-3.47-.37-5.19.12-1.65.52-3.34 1.13-4.89 4.89-12.49 1.61-24.67-1.61-36.73-2.11-7.88-2.44-15.4.16-23.27 2.31-6.99 3.61-14.3 5.54-21.41.41-1.49 1.4-3.05 2.57-4.07 10.86-9.47 23.7-14.53 37.78-16.84 12.13-1.99 24.34-3.66 36.34-6.29 7.48-1.64 14.87-4.25 21.89-7.36 11.12-4.92 22.52-5.9 34.36-4.44 14.65 1.8 29.33 3.31 43.93 5.42 4.33.63 8.54 2.62 12.61 4.43 13.57 6.05 28.25 8.33 42.28 12.79 6.12 1.95 11.84 4.63 16.7 8.99 3.1 2.78 4.95 5.74 3.96 10.24-.81 3.69-.56 7.6-1.24 11.33-1.27 7.04-.39 13.8 1.96 20.43 1.76 4.96.43 9.81-.58 14.55-3.28 15.35-1.55 30.76-.99 46.16.75 20.58 1.66 41.16 2.42 61.74.05 1.37-.47 2.81-.93 4.15-.4 1.15-1.01 2.25-1.65 3.29-3.81 6.18-5.3 12.82-4.8 20.11.19 2.71-.49 5.94-1.92 8.21-5.74 9.05-7.34 19.32-9.6 29.44-.6 2.69-1.52 5.38-2.73 7.85-5.5 11.25-11.12 22.43-16.78 33.6-.84 1.66-1.96 3.27-3.24 4.62-8.65 9.07-17.28 18.16-26.16 27.02-2.05 2.05-4.86 3.58-7.59 4.67-12.04 4.83-24.77 6.75-37.56 8.21-8.57.99-17.17 1.55-22.97 2.06zm115.85-264.01c-.17-2.55-.35-7.48-.83-12.37-1.01-10.33-4.61-19.36-13.72-25.28-4.39-2.86-8.79-5.81-13.5-8.06-14.55-6.94-30.16-10.52-45.9-13.35-9.2-1.66-18.65-3.31-27.91-2.97-20.59.76-40.87 4.56-60.98 9-15.15 3.35-29.77 8.21-42.28 17.87-1.23.95-2.29 2.47-2.78 3.94-2.3 6.89-4.45 13.83-6.53 20.79-3.7 12.42-4.77 24.76 1.08 36.95.79 1.65 1.2 3.67 1.17 5.51-.32 16.9-.8 33.79-1.14 50.69-.05 2.43.21 4.92.74 7.29 1.71 7.75 4.31 15.36 5.31 23.19 2.65 20.64 4.69 41.35 6.83 62.05.33 3.22.86 6.22 3.12 8.61 4.5 4.76 5.87 10.21 4.15 16.57-.24.89.55 2.71 1.36 3.1 3.77 1.83 5.85 4.94 7.68 8.5 2.4 4.67 5.57 9.01 7.49 13.86 3.15 7.98 8.45 11.48 17.06 12.64 10.68 1.44 21.09 3.46 31.81.59 3.29-.88 6.86-1.31 10.25-1.08 5.56.37 11.12 1.22 16.6 2.27 22.25 4.26 38.87-7.4 55.43-19.34.35-.25.56-.69.87-1.02 9.85-10.66 17.1-22.77 21.19-36.79 1.62-5.56 4.13-10.86 6.07-16.34.81-2.3 1.39-4.71 1.75-7.12 1.76-11.72 3.45-23.46 5.08-35.2 1.57-11.3 3.7-22.57 4.38-33.92 1.02-16.86.98-33.78 1.43-50.68.05-1.78.16-3.61.63-5.31 2.92-10.55 3.82-21.34 4.09-34.59z" fill="#010106"/><path d="m202.53 231.14c-5.36 0-10.73.13-16.08-.1-1.26-.05-2.91-1.02-3.64-2.08-7.68-11.1-10.35-23.57-9.94-36.91.2-6.48 0-12.98.02-19.47.01-3.03 4.46-7.78 7.43-7.65 14.64.63 27.95 4.79 38.64 15.35 7.73 7.64 9.99 17.23 8.2 27.5-1.35 7.77-4.02 15.31-6.28 22.9-.23.76-1.69 1.6-2.6 1.63-5.25.15-10.5.08-15.75.08 0-.42 0-.83 0-1.25z" fill="#010106"/><g fill="#fcfbfa"><path d="m385.2 377.6.6-.7c.6.4 1.3.9 1.9 1.5l-.6.7c-.8-.5-1.4-1-1.9-1.5zm.3 7.1c.6-1.4 1.1-2.9 1.5-4.5.3.1.6.3.9.4-.5 1.4-1 2.9-1.5 4.4zm.2-10.1.6-.6c.7.5 1.3 1.1 1.9 1.6l-.7.7c-.6-.6-1.2-1.2-1.8-1.7zm8.4-.8h.8v.9h1.8v.7h-1.8v1.8h-.8v-.3h-1.2v.9h3.3v2.6h-.8v-.4h-2.5c0 .3 0 .6-.1.8h3.4v.7h-3.5c0 .3-.1.6-.1.8h4v.7h-3.5c.7.9 1.9 1.3 3.6 1.5-.2.2-.4.5-.6.9-1.9-.3-3.2-1.1-3.8-2.3-.5 1.1-1.8 2-3.9 2.4-.2-.3-.4-.5-.6-.8 1.9-.4 3.1-.9 3.6-1.7h-3.2v-.7h3.5c.1-.2.1-.5.2-.8h-3.3v-.7h3.4c0-.2 0-.5 0-.8h-2.4v.3h-.8v-2.6h3.3v-.9h-1.2v.3h-.8v-1.8h-1.8v-.7h1.8v-.9h.8v.9h3.2zm-4.4 5.5h2.4c0-.3 0-.6 0-.9h-2.4zm1.2-3.1h3.2v-.8h-3.2zm4.4 2.2h-2.4v.9h2.5v-.9z"/><path d="m389.2 385.8h.9v1.5h1.9v-1.5h.9v1.5h2.7v6h1.1v.9h-11.3v-.9h1.1v-6h2.7zm.2 8.7.5.8c-1.2.6-2.5 1.3-4 1.9-.2-.3-.3-.6-.6-.8 1.6-.6 3-1.3 4.1-1.9zm-2-4.3h1.9v-2.1h-1.9zm0 3.1h1.9v-2.2h-1.9zm2.7-3.1h1.9v-2.1h-1.9zm0 3.1h1.9v-2.2h-1.9zm2.4 1.3c1.4.6 2.7 1.2 4.1 1.8l-.5.9c-1.5-.7-2.8-1.4-4.1-1.9zm2.2-6.5h-1.9v2.1h1.9zm-1.9 5.2h1.9v-2.2h-1.9z"/></g></svg>