<svg enable-background="new 0 0 400 400" viewBox="0 0 400 400" xmlns="http://www.w3.org/2000/svg"><path d="m377.27 117.93c-1.92 13.11-4.01 25.68-5.55 38.31-1.78 14.65-3.03 29.36-4.6 44.04-.16 1.46-.59 3.16-1.49 4.24-10.53 12.66-16.99 27.21-20.55 43.18-3.21 14.36-7.86 28.3-15.17 41.05-8.69 15.15-20.73 26.66-38.73 29.98-22.27 4.11-43.75 10.92-65.15 18.18-14.92 5.06-30.13 9.49-46.08 9.77-17.32.31-34.3-2.64-51.2-6.02-.63-.13-1.31-.38-1.81-.78-12.91-10.18-26.33-19.78-38.54-30.74-14.99-13.44-24.59-31.11-34.86-48.21-7.19-11.97-11.04-24.33-9.57-38.41 1.16-11.03-3.29-21.33-5.62-31.86-4.7-21.27-9.86-42.45-14.79-63.67-.32-1.4-.41-2.88-.41-4.32-.03-18.13.02-36.26-.07-54.4-.01-2.27.55-3.69 2.66-4.76 3.38-1.72 6.69-3.64 9.85-5.74 1.88-1.25 3.26-1.06 5.14-.01 14.24 7.97 28.68 15.61 42.77 23.83 5.82 3.39 11.73 4.85 18.34 5.11 41.12 1.67 82.24 3.32 123.33 5.5 8.05.43 15.98 3.13 23.95 4.87 9.5 2.07 18.97 4.29 28.48 6.29 1.67.35 3.6.27 5.24-.19 12.28-3.38 24.53-6.87 36.75-10.45 1.62-.48 3.14-1.58 4.48-2.67 1.99-1.63 3.82-3.45 5.62-5.29 9.04-9.18 19.79-11.46 32.33-9.26 6.17 1.08 9.43 3.23 10.25 9.58 1.43 11.09 3.34 22.08 5 32.85zm-58.25 43.15c-1.28-.46-2.31-.84-3.34-1.22-9.12-3.34-18.42-6.26-27.3-10.13-9.93-4.32-19.45-9.57-29.22-14.26-1.73-.83-3.83-1.29-5.76-1.27-24.05.24-48.09.94-72.14.82-16.73-.08-33.23-2.35-48.79-9.2-1.07-.47-2.83-.18-3.96.38-9.43 4.64-18.62 9.77-28.22 14.01-5.25 2.32-7.63 6.14-9.06 11.1-.65 2.25-1.43 4.57-1.45 6.87-.1 8.7.02 17.4.18 26.1.14 7.59-1.52 14.37-8.7 18.29-3.04 1.66-6.56 2.46-9.9 3.66.06.23.1.57.23.87 8.57 19.05 17.13 38.11 25.76 57.14.49 1.07 1.36 2.04 2.25 2.86 9.71 8.95 19.44 17.88 29.24 26.73 1.28 1.16 2.91 2.09 4.54 2.68 10.83 3.88 21.82 7.36 32.53 11.53 8.99 3.5 18.14 3.6 27.41 2.66 17.59-1.79 33.5-8.43 48.42-17.61 14.76-9.07 26.64-20.84 34.88-36.33 7.3-13.71 15.11-27.17 23.06-40.51 5.13-8.61 9.13-17.56 11.55-27.31 2.3-9.3 5.14-18.47 7.79-27.86z" fill="#010106"/><path d="m151.81 199.85c13.21-3.51 25.93-6.9 38.66-10.27 4.32-1.15 8.64-2.28 12.96-3.41 11.89-3.1 22.61 0 32.31 6.77 6.66 4.65 9.8 11.75 11.11 19.61.17 1.03-.41 2.78-1.22 3.31-25.77 16.78-53.11 22.83-82.84 11.73-.95-.35-2.18-1.08-2.46-1.91-2.9-8.44-5.62-16.94-8.52-25.83z" fill="#010106"/><g fill="#fcfbfa"><path d="m385.2 377.6.6-.7c.6.4 1.3.9 1.9 1.5l-.6.7c-.8-.5-1.4-1-1.9-1.5zm.3 7.1c.6-1.4 1.1-2.9 1.5-4.5.3.1.6.3.9.4-.5 1.4-1 2.9-1.5 4.4zm.2-10.1.6-.6c.7.5 1.3 1.1 1.9 1.6l-.7.7c-.6-.6-1.2-1.2-1.8-1.7zm8.4-.8h.8v.9h1.8v.7h-1.8v1.8h-.8v-.3h-1.2v.9h3.3v2.6h-.8v-.4h-2.5c0 .3 0 .6-.1.8h3.4v.7h-3.5c0 .3-.1.6-.1.8h4v.7h-3.5c.7.9 1.9 1.3 3.6 1.5-.2.2-.4.5-.6.9-1.9-.3-3.2-1.1-3.8-2.3-.5 1.1-1.8 2-3.9 2.4-.2-.3-.4-.5-.6-.8 1.9-.4 3.1-.9 3.6-1.7h-3.2v-.7h3.5c.1-.2.1-.5.2-.8h-3.3v-.7h3.4c0-.2 0-.5 0-.8h-2.4v.3h-.8v-2.6h3.3v-.9h-1.2v.3h-.8v-1.8h-1.8v-.7h1.8v-.9h.8v.9h3.2zm-4.4 5.5h2.4c0-.3 0-.6 0-.9h-2.4zm1.2-3.1h3.2v-.8h-3.2zm4.4 2.2h-2.4v.9h2.5v-.9z"/><path d="m389.2 385.8h.9v1.5h1.9v-1.5h.9v1.5h2.7v6h1.1v.9h-11.3v-.9h1.1v-6h2.7zm.2 8.7.5.8c-1.2.6-2.5 1.3-4 1.9-.2-.3-.3-.6-.6-.8 1.6-.6 3-1.3 4.1-1.9zm-2-4.3h1.9v-2.1h-1.9zm0 3.1h1.9v-2.2h-1.9zm2.7-3.1h1.9v-2.1h-1.9zm0 3.1h1.9v-2.2h-1.9zm2.4 1.3c1.4.6 2.7 1.2 4.1 1.8l-.5.9c-1.5-.7-2.8-1.4-4.1-1.9zm2.2-6.5h-1.9v2.1h1.9zm-1.9 5.2h1.9v-2.2h-1.9z"/></g></svg>