<svg enable-background="new 0 0 400 400" viewBox="0 0 400 400" xmlns="http://www.w3.org/2000/svg"><path d="m182.27 325.61c-21.9-.35-40.53-6.85-58.94-14.87-15.75-6.86-28.03-18.22-40.9-28.93-8.86-7.37-17.58-14.93-26.56-22.15-2.17-1.75-5.12-2.56-7.77-3.66-1.85-.77-3.76-1.62-5.71-1.9-7.36-1.07-10.88-6.25-13.83-12.26-5.42-11.02-6.03-22.63-3.8-34.4 2.33-12.28 5.2-24.46 7.91-36.67.25-1.14.86-2.36 1.67-3.18 19.18-19.32 38.94-38 60.85-54.23 14.19-10.5 29.58-19.01 46.25-24.8 6.35-2.2 13.35-2.6 20.08-3.66 18.01-2.82 36.01-5.69 54.05-8.28 15.78-2.26 30.94.6 45.55 6.64 12.49 5.16 24.7 11.08 37.43 15.53 7.26 2.54 15.29 2.94 23.02 4.04 9.41 1.34 18.87 2.35 28.29 3.64 1.21.17 2.59.85 3.44 1.73 7.95 8.22 12.38 17.36 9.67 29.41-1.94 8.62-1.34 17.33 1.29 26.13 5.74 19.22 10.14 38.82 8.9 59.07-.46 7.51-2.53 14.93-4.03 22.36-.21 1.02-1.17 2.37-2.09 2.69-17.56 6.23-31.01 18.39-44.57 30.47-6.01 5.36-12.39 10.3-18.64 15.38-.84.68-1.88 1.35-2.9 1.53-17.44 2.89-33.48 10.34-50.22 15.5-19.25 5.93-38.64 11.26-58.62 14.1-3.77.55-7.59.61-9.82.77zm-11.9-47.2c20.26-.75 38.71-3.53 56.96-7.64 26.83-6.05 52.77-14.45 76.84-28.15 6.08-3.46 10.41-7.42 10.37-14.82 0-.89.22-1.77.32-2.66 1.81-15.56-.29-30.79-3.92-45.89-3.09-12.86-7.79-24.97-16.68-35.07-2.22-2.52-4.56-4.41-8.23-5.17-27.13-5.59-54.2-11.52-81.29-17.32-1.18-.25-2.42-.54-3.61-.44-14.51 1.23-28.87 3.4-42.87 7.56-23.95 7.11-45.41 19.24-66.12 32.86-1 .66-1.8 2.02-2.15 3.21-2.55 8.55-5.36 17.05-7.32 25.74-2.79 12.36-3.12 24.76.87 37.11 1.69 5.24 4.17 8.78 9.98 9.58 3.42.47 6.36 1.94 8.7 5 5.09 6.67 10.59 13.03 16.05 19.39 1.1 1.28 2.67 2.4 4.25 2.95 10.65 3.73 21.39 7.22 32.04 10.93 5.66 1.96 11.23 3.96 15.81 2.83z" fill="#010102"/><path d="m212 222.84c-1.45-.63-3.86-1.32-5.89-2.6-7.82-4.95-16.38-7.52-25.5-8.59-3.19-.37-6.4-.96-9.47-1.89-3.5-1.06-6.02-3.83-5.93-7.35.12-4.81 1.26-9.62 2.22-14.38.16-.79 1.58-1.44 2.53-1.93 12.18-6.28 25.35-9.2 38.75-11.31 8.5-1.34 16.98-3.01 25.54-3.72 7.93-.66 15.66 1.01 22.04 6.23 5.25 4.29 7.47 10.31 6.41 16.78-.83 5.06-3.23 9.87-5.07 14.73-.31.82-1.26 1.67-2.11 1.96-10.56 3.57-21.11 7.19-31.76 10.45-3.38 1.04-7.07 1.02-11.76 1.62z" fill="#010102"/><g fill="#fcfbfa"><path d="m385.2 377.6.6-.7c.6.4 1.3.9 1.9 1.5l-.6.7c-.8-.5-1.4-1-1.9-1.5zm.3 7.1c.6-1.4 1.1-2.9 1.5-4.5.3.1.6.3.9.4-.5 1.4-1 2.9-1.5 4.4zm.2-10.1.6-.6c.7.5 1.3 1.1 1.9 1.6l-.7.7c-.6-.6-1.2-1.2-1.8-1.7zm8.4-.8h.8v.9h1.8v.7h-1.8v1.8h-.8v-.3h-1.2v.9h3.3v2.6h-.8v-.4h-2.5c0 .3 0 .6-.1.8h3.4v.7h-3.5c0 .3-.1.6-.1.8h4v.7h-3.5c.7.9 1.9 1.3 3.6 1.5-.2.2-.4.5-.6.9-1.9-.3-3.2-1.1-3.8-2.3-.5 1.1-1.8 2-3.9 2.4-.2-.3-.4-.5-.6-.8 1.9-.4 3.1-.9 3.6-1.7h-3.2v-.7h3.5c.1-.2.1-.5.2-.8h-3.3v-.7h3.4c0-.2 0-.5 0-.8h-2.4v.3h-.8v-2.6h3.3v-.9h-1.2v.3h-.8v-1.8h-1.8v-.7h1.8v-.9h.8v.9h3.2zm-4.4 5.5h2.4c0-.3 0-.6 0-.9h-2.4zm1.2-3.1h3.2v-.8h-3.2zm4.4 2.2h-2.4v.9h2.5v-.9z"/><path d="m389.2 385.8h.9v1.5h1.9v-1.5h.9v1.5h2.7v6h1.1v.9h-11.3v-.9h1.1v-6h2.7zm.2 8.7.5.8c-1.2.6-2.5 1.3-4 1.9-.2-.3-.3-.6-.6-.8 1.6-.6 3-1.3 4.1-1.9zm-2-4.3h1.9v-2.1h-1.9zm0 3.1h1.9v-2.2h-1.9zm2.7-3.1h1.9v-2.1h-1.9zm0 3.1h1.9v-2.2h-1.9zm2.4 1.3c1.4.6 2.7 1.2 4.1 1.8l-.5.9c-1.5-.7-2.8-1.4-4.1-1.9zm2.2-6.5h-1.9v2.1h1.9zm-1.9 5.2h1.9v-2.2h-1.9z"/></g></svg>