<svg enable-background="new 0 0 400 400" viewBox="0 0 400 400" xmlns="http://www.w3.org/2000/svg"><path d="m266.05 343.76c-9.82-.82-21.49-2.03-33.2-2.71-13.62-.78-27.28-.8-40.89-1.73-7.88-.54-15.7-2.15-23.53-3.41-9.93-1.59-19.94-2.91-29.74-5.09-10.77-2.39-21.34-5.65-32.01-8.5-3.45-.92-6.9-1.92-10.4-2.62-3.69-.74-6.84-2.29-9.92-4.5-9.47-6.8-18.98-13.43-24.97-23.91-16.56-29.02-29.79-59.26-35.49-92.46-2.57-14.98-3.76-29.96-2.03-45.09 1.33-11.63 4.34-22.82 8.9-33.59.51-1.21 1.34-2.32 2.14-3.39 6.27-8.44 12.52-16.91 18.92-25.25 1.39-1.81 3.17-3.47 5.1-4.67 12.62-7.87 25.46-15.39 37.96-23.45 8.78-5.66 17.91-7.34 28.07-5.24 7.44 1.54 14.97 2.78 22.52 3.55 3.93.4 8.02-.37 12-.86 3.73-.46 7.34-.7 10.59 1.65 2.81 2.03 5.96 1.64 9.05 1.07 3.6-.67 6.85-.38 9.65 2.24 2.82 2.64 6.14 3.16 9.91 2.64 12.59-1.74 24.92.53 37.33 2.32 4.91.71 10.02.32 15.02.08 6.4-.3 12.57.13 18.89 1.65 8.42 2.02 17.14 2.78 25.72 4.14 9.54 1.51 18.46 4.35 25.51 11.49 1.69 1.71 3.78 3.33 5.99 4.15 4.59 1.7 7.25 4.78 9.59 9.03 7.02 12.72 15.11 24.86 21.73 37.77 4.55 8.89 8.53 18.1 7.69 28.96-.5 6.53 1.99 13.34 3.48 19.95 1.82 8.08 4.3 16.1 2.32 24.46-.73 3.08-2.32 5.96-3.54 8.92-.93 2.25-2.43 4.41-2.79 6.75-2.07 13.42-7.12 25.82-12.63 38.06-7.8 17.33-16.19 34.33-26.55 50.37-9.8 15.19-23.94 22.66-41.13 25.38-5.7.91-11.54 1.13-19.26 1.84zm82.75-143.63c-.29-.07-.58-.14-.86-.21-.29-13.62-2.99-26.86-6.65-39.92-3.42-12.21-8.4-23.56-17.6-32.71-2.04-2.03-3.5-4.62-5.28-6.91-3.7-4.76-7.29-9.63-11.23-14.2-2.71-3.14-5.94-5.83-10.54-5.72-5.75.13-10.95-1.88-16.14-4-3.72-1.52-7.49-2.94-11.29-4.25-.91-.31-2.04-.05-3.06.04-1.43.13-2.92.73-4.26.46-4.36-.88-8.63-2.74-13-2.97-7.12-.37-14.3.37-21.45.44-8.78.09-17.63 1.53-26.28-1.42-5.46-1.86-11.1-1.76-16.86-1.59-8.34.26-16.73-.21-25.06-.9-15.55-1.29-30.85-4.75-46.71-3.18-10.07 1-18.35 3.36-22.87 13.28-2 4.38-5.93 5.78-10.5 6.72-3.08.63-6.84 2.19-8.51 4.58-3.87 5.54-7.35 11.57-9.75 17.87-5.19 13.64-7.3 28.08-9.48 42.46-1.51 9.95-.72 19.46 3.11 28.91 3.1 7.64 5.22 15.68 7.83 23.53 6.46 19.4 12.7 38.87 19.52 58.15 4.14 11.7 11.49 21.15 23.57 25.55 14.76 5.37 30.24 7.5 45.81 8.97 2.1.2 4.3-.23 6.34.2 15.85 3.4 31.8 5.9 47.94 7.77 25.25 2.93 50.41 1.53 75.62.75 5.24-.16 10.1-.22 14.76 2.85 3.68 2.42 7.11 1.23 9.45-2.51.88-1.41 1.55-2.97 2.11-4.54 2.17-6.1 3.96-12.35 6.43-18.32 10.95-26.4 23.84-52.05 30.77-79.98 1.57-6.35 2.75-12.8 4.12-19.2z" fill="#010102"/><path d="m120.01 186.08c9.74-2.41 19.36-5.63 29.24-6.93 6.59-.87 13.54.98 20.32 1.67 12.89 1.32 25.79 2.61 38.67 4.08 2.97.34 5.89 1.27 8.81 2.04 2.64.7 4.33 2.38 4.35 5.23.01 2.92-.09 5.72-3.43 7.3-6.73 3.19-13.72 3.94-20.93 2.57-6.8-1.3-13.51-3.2-20.35-4.18-4.23-.61-8.65-.25-12.94.13-5.7.5-11.24.8-16.89-.83-6.65-1.91-13.44-3.4-20.25-4.62-3.65-.66-5.9-2.18-6.6-6.46z" fill="#010102"/><g fill="#fcfbfa"><path d="m385.2 377.6.6-.7c.6.4 1.3.9 1.9 1.5l-.6.7c-.8-.5-1.4-1-1.9-1.5zm.3 7.1c.6-1.4 1.1-2.9 1.5-4.5.3.1.6.3.9.4-.5 1.4-1 2.9-1.5 4.4zm.2-10.1.6-.6c.7.5 1.3 1.1 1.9 1.6l-.7.7c-.6-.6-1.2-1.2-1.8-1.7zm8.4-.8h.8v.9h1.8v.7h-1.8v1.8h-.8v-.3h-1.2v.9h3.3v2.6h-.8v-.4h-2.5c0 .3 0 .6-.1.8h3.4v.7h-3.5c0 .3-.1.6-.1.8h4v.7h-3.5c.7.9 1.9 1.3 3.6 1.5-.2.2-.4.5-.6.9-1.9-.3-3.2-1.1-3.8-2.3-.5 1.1-1.8 2-3.9 2.4-.2-.3-.4-.5-.6-.8 1.9-.4 3.1-.9 3.6-1.7h-3.2v-.7h3.5c.1-.2.1-.5.2-.8h-3.3v-.7h3.4c0-.2 0-.5 0-.8h-2.4v.3h-.8v-2.6h3.3v-.9h-1.2v.3h-.8v-1.8h-1.8v-.7h1.8v-.9h.8v.9h3.2zm-4.4 5.5h2.4c0-.3 0-.6 0-.9h-2.4zm1.2-3.1h3.2v-.8h-3.2zm4.4 2.2h-2.4v.9h2.5v-.9z"/><path d="m389.2 385.8h.9v1.5h1.9v-1.5h.9v1.5h2.7v6h1.1v.9h-11.3v-.9h1.1v-6h2.7zm.2 8.7.5.8c-1.2.6-2.5 1.3-4 1.9-.2-.3-.3-.6-.6-.8 1.6-.6 3-1.3 4.1-1.9zm-2-4.3h1.9v-2.1h-1.9zm0 3.1h1.9v-2.2h-1.9zm2.7-3.1h1.9v-2.1h-1.9zm0 3.1h1.9v-2.2h-1.9zm2.4 1.3c1.4.6 2.7 1.2 4.1 1.8l-.5.9c-1.5-.7-2.8-1.4-4.1-1.9zm2.2-6.5h-1.9v2.1h1.9zm-1.9 5.2h1.9v-2.2h-1.9z"/></g></svg>