<svg enable-background="new 0 0 400 400" viewBox="0 0 400 400" xmlns="http://www.w3.org/2000/svg"><g fill="#fcfafa"><path d="m342.2 3.2-6.3 9.2h6.1v1.2h-8.2v-.5l6.2-9.1h-5.7v-1.2h7.8v.4z"/><path d="m344 13.7v-10.9h3.1c1.6 0 3 .5 4.1 1.4 1.1 1 1.6 2.2 1.6 3.9s-.5 3-1.6 4-2.5 1.5-4.2 1.5h-3zm1.4-9.6v8.4h1.6c1.4 0 2.5-.4 3.2-1.1.8-.8 1.2-1.8 1.2-3.2s-.4-2.4-1.2-3.1-1.8-1-3.1-1z"/><path d="m356.3 2.8v10.9h-1.4v-10.9z"/><path d="m366.6 13.2c-.8.4-1.8.6-3 .6-1.6 0-2.8-.5-3.7-1.5s-1.4-2.3-1.4-3.9c0-1.7.5-3.2 1.6-4.2s2.4-1.6 4-1.6c1 0 1.9.1 2.6.4v1.5c-.8-.4-1.6-.6-2.6-.6-1.2 0-2.2.4-3 1.2s-1.1 1.9-1.1 3.3c0 1.3.4 2.3 1.1 3.1s1.6 1.1 2.8 1.1c1.1 0 2-.2 2.8-.7v1.3z"/><path d="m368.2 13c0-.3.1-.5.3-.6.2-.2.4-.3.6-.3.3 0 .5.1.7.3s.3.4.3.6-.1.5-.3.6c-.2.2-.4.3-.7.3s-.5-.1-.6-.3c-.2-.2-.3-.4-.3-.6z"/><path d="m381.1 13.7h-1.7l-5.5-8.4c-.2-.2-.3-.5-.4-.7 0 .2.1.8.1 1.5v7.6h-1.4v-10.9h1.8l5.3 8.3c.3.4.4.6.4.8 0-.3-.1-.8-.1-1.6v-7.5h1.4v10.9z"/><path d="m389.7 13.7h-5.8v-10.9h5.6v1.2h-4.2v3.5h3.9v1.2h-3.9v3.7h4.4z"/><path d="m398.4 4.1h-3.1v9.6h-1.4v-9.6h-3.1v-1.3h7.7v1.3z"/></g><path d="m47.66 219.81c13.51 4.19 26.74 8.26 39.94 12.45 1.17.37 2.28 1.36 3.11 2.33 3.42 4 6.79 8.03 10.01 12.19 1.06 1.37 1.81 3.07 2.31 4.74 3.18 10.59 6.73 21.11 9.22 31.87 2.12 9.14 7.73 15.44 14.41 21.15 12.3 10.49 26.83 14.19 42.7 13.64 17.64-.61 34.64-3.97 50.47-12 3.96-2.01 7.62-4.62 11.29-7.15 16.36-11.26 27.27-27.55 39.27-42.82 1.93-2.46 3.64-5.15 5.8-7.39 6.14-6.36 9.46-13.85 10.25-22.64 1.08-11.99 4.87-23.13 11.5-33.19 4.01-6.1 5.32-12.83 5.9-19.94.83-10.14 2.05-20.25 3.03-30.38.11-1.18-.04-2.49-.46-3.59-1.52-3.95-2.95-7.98-4.91-11.72-3.22-6.12-2.55-11.79 1.13-17.66 16.06 5.47 27.98 15.01 32.96 31.89 3.03 10.26 3.08 20.64 2.28 31.23-.78 10.24-.47 20.56-.78 30.84-.07 2.18-.45 4.46-1.25 6.48-6.83 17.24-13.14 34.73-20.97 51.51-4.37 9.38-10.86 17.91-17.25 26.17-4.69 6.06-10.92 10.9-16.2 16.52-15.97 17-35.63 27.88-57.6 34.82-17.86 5.64-36.15 8.31-54.93 6.31-16.75-1.78-32.31-7.22-46.3-16.46-4.45-2.94-7.68-7.76-11.36-11.81-12.9-14.23-23.27-30.33-33.94-46.2-7.8-11.61-15.54-23.21-25.83-32.92-5.1-4.85-5.18-11.36-3.8-18.27z" fill="#010103"/><path d="m351.65 129.45c-.69-2.66-1.49-4.87-1.8-7.15-.61-4.56-2.69-8.29-6.04-11.26-9.1-8.09-18.3-16.07-27.47-24.09-7.36-6.44-16.09-7.05-25.25-5.99-32 3.7-63.01 10.73-92.89 23.42-26.88 11.42-53.06 24.17-78.93 37.6-5.63 2.92-10.26 7.87-15.18 12.08-8.26 7.06-16.53 13.93-27.09 17.57-18.81 6.49-36.52 3.45-53.77-5.29-2.56-1.3-1.42-3.53-1.34-5.32.03-.59 1.87-1.48 2.94-1.58 9.17-.8 18.08-2.85 25.6-8.18 37-26.27 78.64-43.68 119.37-62.81 23.93-11.24 48.56-20.55 74.46-26.15 16.08-3.48 32.31-6.6 48.84-5.75 25.66 1.32 48.1 9.57 63.62 31.64 3.73 5.3 8 10.21 11.92 15.38 1.07 1.41 1.97 3.01 2.6 4.66 2.54 6.67.9 10.85-5.32 14-4.64 2.35-9.29 4.7-14.27 7.22z" fill="#010103"/><path d="m91.64 212.96c1.73-.11 2.71-.29 3.67-.22 13.45 1.02 26.45-1.52 39.44-4.64 13.69-3.29 27.57-5.8 41.2-9.31 6.98-1.8 13.74-4.72 20.34-7.69 18.03-8.12 35.87-16.68 53.9-24.79 12.96-5.83 26.27-10.74 40.35-13.24 4.54-.81 7.27 1.96 6.55 6.49-.62 3.91-2.39 6.84-5.36 9.61-20.2 18.84-43.96 32.17-68.29 44.64-9.15 4.69-18.35 9.28-27.66 13.65-2.56 1.2-5.56 1.87-8.4 2.03-7.93.45-14.65 3.59-20.64 8.53-2 1.65-3.9 1.91-6.44 1.28-17.67-4.42-35.47-8.36-53.02-13.18-4.72-1.3-8.88-4.94-13.01-7.9-1.28-.94-1.63-3.17-2.63-5.26z" fill="#010103"/></svg>