<svg enable-background="new 0 0 400 400" viewBox="0 0 400 400" xmlns="http://www.w3.org/2000/svg"><g fill="#fbfafa"><path d="m37.59 393.81c-.92.31-1.52.05-2-.78-.7-1.2-1.52-2.34-2.47-3.78v4.59c-.55.03-.95.05-1.41.07-.03-.37-.06-.64-.06-.91 0-1.91 0-3.81 0-5.7 1.13-.41 1.77-.03 2.29.91.62 1.11 1.38 2.14 2.31 3.19v-4.2h1.35v6.61z"/><path d="m12.94 393.88v-6.75c1.9.19 3.93-.54 5.37 1.29.8 1.01.78 2.88.03 3.97-1.37 1.97-3.4 1.51-5.4 1.49m1.45-1.22c2.04.12 2.92-.58 2.89-2.21-.03-1.51-.98-2.19-2.89-2z"/><path d="m11.81 393.87h-5.49c.68-2.18 2.47-3.48 3.51-5.45h-3.08v-1.21h5.29c-.71 2.13-2.44 3.48-3.47 5.51.86 0 1.63.04 2.39-.01.79-.05 1.14.21.85 1.16"/><path d="m39.33 393.86v-6.61h3.7v1.07h-2.22v1.52c.68.04 1.34.09 2.07.13v1.07c-.72.05-1.38.09-2.1.14v1.48h2.4v1.19h-3.85z"/><path d="m27.71 388.56c-1.15-.3-2.46-.61-3.1.64-.37.73-.41 1.93-.06 2.67.63 1.35 1.99.93 3.17.68.35.94-.01 1.32-.93 1.46-1.62.25-3.05-.27-3.76-1.48-.73-1.24-.6-3.03.31-4.17.88-1.11 2.71-1.7 4-1.16.32.13.44.74.65 1.12-.1.08-.19.16-.28.24"/><path d="m49.15 387.24v1.07c-.59.02-1.17.05-1.87.08v5.44h-1.48v-5.44h-1.85c-.05-.4-.08-.73-.13-1.15z"/><path d="m20.06 387.21h1.33v6.62h-1.33z"/><path d="m30.68 393.25c-.49.38-.8.79-1.05.76-.32-.05-.6-.45-.9-.7.26-.24.51-.64.8-.67.29-.04.62.3 1.15.61"/></g><path d="m194.19 335.18c.44-44.59.88-88.64 1.33-133.54-5.08 0-9.84.04-14.6-.01-17.79-.18-35.57-.35-53.36-.61-2.44-.04-4.91-.41-7.31-.91-4.67-.97-6.65-3.49-6.78-8.21-.1-3.57 1.7-6.3 6.23-6.99 5.59-.85 11.34-.8 17.02-.83 17.8-.09 35.6-.03 53.4-.03h4.06c.45-39.02.89-77.68 1.34-117.08-5.15 0-10.04.05-14.93-.01-17.45-.2-34.91-.37-52.36-.73-3.07-.06-6.26-.63-9.17-1.63-4.28-1.48-6.78-7.58-5.25-11.77.14-.38.42-.86.75-1.01 4.04-1.72 7.5-4.64 12.36-4.62 39.18.12 78.36.03 117.54.09 12.86.02 25.73.18 38.58.6 3.15.1 6.38 1.18 9.33 2.4 1.27.52 2.66 2.52 2.7 3.89.09 2.62 1.44 5.68-2.14 7.67-7.76 4.29-16.09 6.22-24.8 6.06-12.41-.22-24.81-1-37.21-1.4-5.68-.18-11.37-.03-17.32-.03v116.41c4.24.17 8.65.42 13.06.5 16.67.3 33.34.51 50 .83 2.45.05 4.92.3 7.34.7 3.94.67 7.55 6.14 6.49 10.01-.27.98-1.47 1.9-2.47 2.46-6.28 3.54-13.14 5.16-20.28 5-12.19-.28-24.36-1.03-36.55-1.28-5.88-.12-11.78.44-18.13.71.45 45.11.89 89.8 1.33 134.25 9.01 0 17.59.09 26.17-.02 17.67-.22 35.33-.64 52.99-.8 6.08-.06 9.57 3.59 9.55 9.66 0 1.01-1.07 2.36-2.02 2.98-6.94 4.54-14.69 5.85-22.8 5.11-42.79-3.93-85.68-1.55-128.52-2.01-9.81-.11-19.64 1.42-29.47 1.53-4.82.05-9.67-1.43-14.5-2.2-3.8-.61-4.96-2.91-5.32-6.64s.9-5.86 4.15-6.81c2.86-.83 5.86-1.54 8.81-1.59 10.86-.18 21.72-.07 32.57-.07h43.99c1.25-.03 2.46-.03 4.2-.03z" fill="#010105"/></svg>