<svg enable-background="new 0 0 400 400" viewBox="0 0 400 400" xmlns="http://www.w3.org/2000/svg"><path d="m234.32 289.22c6.33-2.57 10.24 3.21 15.59 4.72 1.24-1.74 1.56-3.18-.69-4.6-.8-.5-1.59-2.24-1.29-2.95.4-.94 1.82-1.89 2.9-2.02 14.81-1.78 29.68-1.74 44.56-1.1 11.63.49 23.2.57 34.78-1.3 7.77-1.25 15.65-.83 23.31 1.23 1.44.39 2.95 1.49 3.85 2.69 2.42 3.22 5.26 4.93 9.44 4.48 4.19-.45 5.65 1.05 4.94 5.16-.99 5.79-3.63 10.48-9.69 12.41-1.7.54-3.41 1.11-5.03 1.86-8.2 3.81-16.49 4.66-25.64 3.6-15.64-1.81-31.44-2.46-47.19-2.97-21.8-.71-43.61-.97-65.42-1.16-13.09-.12-26.2-.18-39.26.55-9.35.52-18.58 2.8-27.93 3.53-9.33.73-18.74.32-28.1.78-5.11.25-10.17 1.31-15.26 1.9-3.76.43-7.55.64-11.32 1.04-11.65 1.25-23.31 2.43-34.94 3.87-12.17 1.51-24.29 1.93-37.07-.87 1.1-1.94 2.09-3.67 2.94-5.16-1.83-2.57-3.66-5.04-5.34-7.6-.35-.54-.47-1.88-.16-2.1 2.68-1.91 5.29-4.67 8.3-5.25 10.94-2.12 22.02-3.55 33.06-5.14 5.53-.8 11.08-1.5 16.64-1.97 1.13-.1 2.68.73 3.49 1.62 3.16 3.51 4.27 3.47 8.49 1.9 3.11-1.15 6.7-1.59 10.04-1.44 6.21.27 11.94-.73 16.42-5.17 2.16-2.14 3.82-4.94 5.21-7.69 2.7-5.35 5.01-10.92 12.48-11.82-2.83-3.46-1.25-6.42.85-8.35 8.17-7.51 10.77-17.31 12.01-27.67.98-8.2 1.55-16.45 2.37-25.44-37.07-.56-73.45-1.1-110.13-1.66-.72-2.34-.12-4.4 2.31-6.44 6.26-5.24 13.71-7.85 21.49-10.47.93 2.84 2.66 2.28 4.52.95 3.27-2.33 6.9-2.92 10.84-2.42 20.55 2.61 41.09 1.59 61.58-.57 9.39-.99 9.41-1.22 10.15-10.45 1.41-17.62 2.76-35.25 4.12-52.87.05-.65.01-1.3.01-2.8-5.37 0-10.59.12-15.8-.03-4.8-.14-9.61-.99-14.39-.76-6.66.33-13.28 1.49-19.94 2.07-11.91 1.04-23.87 2.45-35.65-1.02-6.17-1.82-11.77-4.73-16.92-9.52.45-.2.73-.35 1.03-.44 10.6-3.14 21.22-6.23 31.81-9.44 6.81-2.06 13.73-1.66 20.63-1.08 6.83.58 13.6.85 20.33-.91 1.55-.41 3.38-.31 4.96.06 10.44 2.4 20.71.75 30.94-1.18 4.99-.94 9.91-2.26 15.27-3.51-5.04-6.9.51-12.24.51-18.33 3.68.95 4.15 3.44 4.07 6.08-.06 2-.56 3.98-.79 5.98-.63 5.36 1.75 8.06 7.11 8.06 12.2.01 24.4.08 36.6-.05 3.13-.03 5.84.08 6.78 4.32 5.55-6.67 12.99-5.14 19.68-5.32 13.19-.36 26.4.06 39.59.31 2.05.04 4.16.71 6.12 1.43 4.51 1.64 8.86 3.77 13.44 5.19 4.72 1.46 8.01 3.75 7.68 9.61-4.6 3.71-10.52 4.99-16.74 5.32-15.95.86-31.9 2.07-47.86 2.39-14.19.29-28.39-.42-42.59-.7-4.14-.08-8.28-.1-12.41-.39-1.73-.12-3.41-.87-5.23-1.37-.94 1.1-2.36 2.59-3.58 4.24-.47.64-.76 1.67-.62 2.43.37 1.96.62 4.12 1.64 5.74 3.45 5.52 3.46 11.44 2.68 17.52-.7 5.43-2.03 10.85-2.09 16.29-.06 5.19 1.11 10.4 1.9 15.58.08.55 1.19 1.35 1.82 1.34 15.99-.11 31.99-.17 47.97-.59 3.5-.09 6.96-1.56 10.46-2.3 3.49-.74 6.93-.93 8.76.95 4.78-.26 8.57-.5 12.36-.68 10.16-.47 20.32-.95 30.49-1.3 1.61-.06 3.28.35 4.85.81 4.5 1.3 8.92 2.85 13.44 4.07 2.74.74 4.2 2.5 4.79 5.02.6 2.52-.73 4.05-2.91 5.37-8.65 5.24-18.2 7.31-28.06 8.28-7.9.77-15.77 1.39-23.67-.61-2.03-.51-4.51.8-6.8 1.2-4.05.7-8.1 1.85-12.17 1.93-17.9.35-35.81.4-53.71.53-5.37.04-9.74 3.18-10.86 8.51-1.45 6.88-2.67 13.83-3.58 20.8-.26 1.94.98 4.05 1.36 6.11.18.99.41 2.47-.12 3.02-6.12 6.4-7.09 15.01-10.07 22.76-.77 2-1.99 3.97-3.44 5.54-5.08 5.5-10.35 10.82-15.71 16.37 3.4 2.28 7.62 2.79 11.5 1.58 10.14-3.17 20.47-3.13 30.89-3.15 8.15-.02 16.31-.35 24.44-.99 5.19-.39 5.16-.75 7.58 4.02zm-67.5-152.59c4.19-3.65 4.37-4.34 1.93-7.44-.61 2.38-1.18 4.56-1.93 7.44zm49.41 163.24c-1.17-1.46-2-2.49-3.2-4-.36 2.25-.6 3.71-.91 5.59 1.47-.57 2.56-.99 4.11-1.59z" fill="#010000"/><g fill="#fbfcfa"><path d="m361.2 9.6.8-1c.9.7 1.9 1.4 2.9 2.3l-.9 1.1c-1-1-2-1.8-2.8-2.4zm.5 10.6c.9-2.1 1.6-4.3 2.3-6.7.4.2.8.4 1.3.6-.7 2.1-1.5 4.3-2.2 6.6zm.4-15.2.9-.9c1 .8 2 1.6 2.8 2.4l-1 1c-.9-.9-1.8-1.7-2.7-2.5zm12.5-1.2h1.2v1.4h2.7v1.1h-2.7v2.7h-1.2v-.6h-1.8v1.3h4.9v3.8h-1.2v-.5h-3.7c0 .4-.1.9-.1 1.2h5.1v1h-5.2c0 .5-.1.9-.2 1.2h6v1h-5.2c1.1 1.3 2.9 2 5.5 2.2-.4.4-.7.8-.9 1.3-2.9-.5-4.8-1.6-5.7-3.5h-.1c-.8 1.7-2.7 2.9-5.9 3.6-.2-.4-.6-.8-.9-1.1 2.8-.6 4.6-1.4 5.4-2.5h-4.8v-1h5.3c.1-.3.2-.7.2-1.2h-4.9v-1h5c0-.4 0-.8.1-1.2h-3.5v.5h-1.2v-3.8h4.9v-1.3h-1.8v.5h-1.2v-2.7h-2.7v-1h2.6v-1.4h1.2v1.4h4.7v-1.4zm-6.6 8.3h3.6c0-.4 0-.9 0-1.4h-3.6zm1.9-4.6h4.7v-1.3h-4.7zm6.6 3.2h-3.7v1.4h3.7z"/><path d="m385.3 3.8h1.3v2.2h2.8v-2.2h1.3v2.2h4.1v9.1h1.7v1.3h-16.9v-1.3h1.7v-9.1h4.1v-2.2zm.4 13.1.7 1.2c-1.8.9-3.8 1.9-6 2.9-.2-.4-.5-.8-.8-1.3 2.3-1 4.3-1.9 6.1-2.8zm-3.1-6.4h2.8v-3.2h-2.8zm0 4.6h2.8v-3.3h-2.8zm4-4.6h2.8v-3.2h-2.8zm0 4.6h2.8v-3.3h-2.8zm3.7 1.9c2.1.9 4.1 1.8 6.1 2.7l-.7 1.3c-2.2-1.1-4.2-2-6.1-2.9zm3.2-9.7h-2.8v3.2h2.8zm-2.8 7.8h2.8v-3.3h-2.8z"/></g></svg>