<svg enable-background="new 0 0 400 400" viewBox="0 0 400 400" xmlns="http://www.w3.org/2000/svg"><path d="m117.7 354.86c14.46-.59 28.31-1.08 42.16-1.8 1.71-.09 3.68-1.01 4.97-2.17 4.79-4.29 6.64-10.11 6.82-16.27.27-8.83-.05-17.68-.02-26.52.01-1.98-.85-2.93-2.58-3.76-6.82-3.3-14.07-4.25-21.52-4.22-3.24.01-6.49.3-9.73.23-9.82-.2-15.41-5.25-16.93-15.46 5.88-.63 11.74-1.28 17.61-1.88 7.68-.78 15.35-1.66 23.05-2.18 3.71-.25 6.36-1.82 7.48-5.12 1.9-5.57 4.1-11.21 4.76-16.99 1.04-9.07.94-18.27 1.23-27.41.1-3.14-1.38-5.27-4.17-7.01-8.72-5.43-18.31-6.73-28.28-6.93-9.71-.19-18-3.71-24.9-11.57 8.37-1.44 16.23-2.79 24.1-4.14 9.04-1.54 18.1-2.97 27.09-4.72 1.58-.31 3.65-1.65 4.19-3.03 1.66-4.23 3.59-8.66 3.82-13.09.99-19.21 1.41-38.44 2.08-57.66.07-2.05-1.04-2.92-2.72-3.68-8.96-4.08-18.53-5.77-28.16-7.2-12.49-1.84-25.07-3.16-37.48-5.45-8.85-1.64-17.05-5.31-24.18-12.66 31.62-1.55 62.53-3.06 93.69-4.58-.42-10.78-.75-21.05-1.34-31.31-.06-1.05-1.54-2.62-2.64-2.93-7.83-2.19-15.65-4.62-23.64-6-13.33-2.3-26.78-3.91-40.19-5.72-3.43-.46-6.91-.56-10.36-.93-5.6-.6-6.95-1.92-8.09-8.04 5.72-2.92 11.53-5.94 17.41-8.82.69-.34 1.75 0 2.62.14 10.93 1.79 21.8 4.02 32.79 5.26 7.75.87 15.64.41 23.47.54 24.28.39 48.55.99 72.54 5.31 3.14.57 6.34 1.55 9.17 3.02 8.28 4.29 17.1 5.5 26.24 5.72 5.92.14 11.85.57 17.73 1.27 2.82.34 5.79 1.17 8.19 2.61 1.8 1.09 3.35 3.32 4.04 5.37 1.28 3.79.39 4.75-3.6 5.5-4.51.84-9.09 1.42-13.48 2.68-10.74 3.09-21.41 1.8-32.2.42-13.86-1.77-27.77-3.14-41.67-4.52-2.04-.2-4.28.21-6.24.89-3.96 1.37-5.19 3.46-4.83 7.64.65 7.69 1.51 15.37 2.05 23.07.19 2.71 1.36 4.24 3.75 5.28 9.32 4.04 19.07 4.28 28.99 3.71 13.49-.78 25.67 2.6 36.1 12.21-8.5 5.14-17.36 7.18-27.02 6.05-9.87-1.15-19.77-2-29.64-3.19-7.95-.96-12.23 3.64-15.47 9.82-3.39 6.46-4.65 13.53-5.06 20.71-.98 17.24-1.02 34.44 2.11 51.53.43 2.35 1.51 3.63 3.76 3.97 9.5 1.4 18.98 3.07 28.52 4.05 10.12 1.04 20.35 1.3 30.04 4.79 3.21 1.15 6.22 2.86 10.13 4.7-1.65.73-2.37 1.11-3.12 1.37-4.66 1.56-9.5 2.72-13.96 4.72-9.41 4.22-18.94 3.41-28.6 1.61-5.82-1.08-11.61-2.58-17.59-1.04-.76.19-1.51.39-2.26.61-4.21 1.26-6.51 3.52-6.81 8.47-.95 15.52-2.44 31.01-3.88 46.5-.21 2.31 1.04 2.89 2.59 3.62 8.84 4.14 18.29 5.75 27.9 6.71 5.89.59 11.8 1.09 17.65 1.99 2.24.34 4.49 1.43 6.44 2.64 3.42 2.12 4.38 6.58 2.31 10.04-.43.72-1.47 1.26-2.34 1.5-7.94 2.23-16.03 2.68-24.26 2.28-7.69-.38-15.42-.14-23.13-.28-5.08-.09-8.56 2.41-10.77 6.66-1.33 2.55-2.77 5.35-2.96 8.12-.67 9.68-.81 19.4-1.16 29.1-.07 1.99.7 2.93 2.82 3.25 7.73 1.17 15.43 2.54 23.14 3.87 5.82 1.01 11.05 3.28 15.81 7.52-4.35 2.99-8.45 5.84-12.6 8.61-.6.4-1.47.5-2.22.54-18.32.9-36.64 1.79-54.97 2.61-1.29.06-2.65-.35-3.91-.73-10.48-3.18-20.89-6.59-31.44-9.52-3.7-1.03-6.11-2.81-7.41-6.33-.42-1.23-1.07-2.37-1.83-3.97z" fill="#010100"/><g fill="#fafbfa"><path d="m6.4 11.7c-1-.8-1.9-1.6-2.9-2.3l.6-.7c.9.7 1.9 1.4 2.9 2.2zm-2.1 8.3c.7-2.1 1.4-4.2 2-6.4.2.1.6.3 1 .4-.7 2.3-1.3 4.4-1.9 6.4zm3-12.8c-1.1-.9-2.1-1.7-2.9-2.4l.6-.7c1 .8 2 1.5 3 2.4zm1.4-1.3v-.9h10.2v.9c-.9 4.2-2.3 7.3-4.1 9.4 1.3 1.4 3.2 2.7 5.7 4-.2.2-.4.5-.7.9-2.5-1.4-4.4-2.7-5.7-4.2-1.4 1.5-3.5 3-6.1 4.4 0 0 0 0-.1-.1-.3-.4-.5-.7-.7-.8 2.7-1.3 4.7-2.8 6.2-4.2-1.8-2.2-3-5.3-3.7-9.4zm9.2 0h-7.1c.6 3.8 1.7 6.7 3.4 8.7 1.7-2 2.9-4.8 3.7-8.7z"/><path d="m31.6 3.6h.9v2.3h4.1v9.1h1.7v.9h-16.6v-.9h1.7v-9.1h4.1v-2.3h.9v2.3h3.1v-2.3zm-4 13.3.6.8c-1.9.9-3.8 1.9-5.8 2.8-.2-.3-.3-.6-.5-.9 2-.9 3.9-1.8 5.7-2.7zm-3.2-10.1v3.7h3.1v-3.7zm0 4.5v3.7h3.1v-3.7zm4.1-4.5v3.7h3.1v-3.7zm0 4.5v3.7h3.1v-3.7zm9.1 9.1c-2.1-1.1-4.1-2-5.8-2.7l.5-.8c2.2.9 4.1 1.8 5.8 2.6zm-1.9-13.6h-3.1v3.7h3.1zm-3.2 4.5v3.7h3.1v-3.7z"/></g></svg>