<svg enable-background="new 0 0 400 400" viewBox="0 0 400 400" xmlns="http://www.w3.org/2000/svg"><path d="m197.32 374.99c-1.74-3.01-3.45-5.88-5.05-8.81-.34-.63-.51-1.56-.33-2.24 2.05-7.73.1-15.3-.72-22.94-.57-5.31-.71-10.67-1.02-16.02-.06-1.12.06-2.25-.07-3.36-1.24-10.93-3.73-12.39-12.74-12.43-5.7-.03-11.4.66-17.09.61-7.28-.07-13.08-5.01-14.83-12.81 8.24 0 16.28.09 24.31-.04 4.85-.08 9.62-.85 13.67-3.81.84-.62 1.64-1.89 1.69-2.89.36-7.46.61-14.94.64-22.41 0-1.05-1.13-2.58-2.13-3.05-2.5-1.19-5.33-1.7-7.85-2.85-2.76-1.26-5.32-2.94-7.97-4.44.1-.38.2-.75.3-1.13 6.29-1.69 12.59-3.38 19.33-5.19-.55-6.8-1.05-13.56-1.71-20.31-.06-.61-1.08-1.52-1.75-1.61-3.16-.43-6.45-1.27-9.5-.77-8.45 1.38-13.33-.52-18.42-8.66 6.91-.73 13.42-1.76 19.96-2.02 9.94-.4 13.49-3.53 13.07-13.5-.42-10.01.55-8.62-9.35-12.13-3.76-1.34-7.93-1.83-10.61-5.28-.85-1.1-1.55-2.31-2.58-3.88 6.32-.77 12.06-1.46 17.8-2.19 4.08-.52 5.46-2.02 5.66-6.08.46-9.2-1.49-11.59-10.68-12.65-3.44-.4-6.91-.53-10.37-.67-8.88-.37-12.18-4.76-10.15-14.12h21.97c6.44 0 8.02-1.03 9.13-7.51 1.9-11.07.95-22.08-1.8-32.91-.35-1.4-1.55-2.67-2.59-3.78-6.07-6.42-12.49-12.53-18.24-19.22-4.54-5.28-7.11-11.74-8.52-18.59 4.24-1.49 9.75.4 12.86 4.51 2.36 3.11 4.45 6.43 6.61 9.69 2.13 3.2 4.99 5.32 9.15 6.35.12-1.45.32-2.74.33-4.03.03-8.5.04-17 .02-25.49-.02-10.68 2.9-20.73 6.37-30.82 3.26 1.09 4.57 3.68 5.72 6.35 2.96 6.82 3.46 14.06 3.58 21.36.19 11.41.25 22.82.58 34.23.15 5.02.76 10.04 1.34 15.03.17 1.5.73 3.07 1.54 4.34 1.3 2.06 2.94 2.77 5.19.79 2.94-2.58 6.55-4.49 9.11-7.37 2.76-3.1 4.82-6.88 6.83-10.55 1.27-2.33 1.8-5.04 2.81-7.53 3.54-8.7 3.79-17.56 1.81-26.66-.59-2.68-.66-5.54-.51-8.29.07-1.29.98-2.77 1.94-3.73 1.54-1.53 3.02-1.76 4.53.61 4.6 7.23 5.66 15.42 7.11 23.57.77 4.31.93 8.36-1.09 12.39-.48.96-.52 2.54-.06 3.5 1.15 2.4.4 4.3-.47 6.59-4.28 11.25-11.75 19.81-21.34 26.85-3.68 2.7-7.39 5.65-10.16 9.21-2.58 3.32-4.1 7.53-5.76 11.48-.79 1.88.18 3.16 2.4 3.86 6.89 2.19 13.69 1.3 20.54-.01 2.3-.44 4.72-1.15 6.95-.81 2.39.37 5.09 1.32 6.79 2.93 3.09 2.94 2.47 5.44-1.2 7.53-5.31 3.01-11.19 3.51-17.12 4.16-4.26.46-8.52 1.56-12.6 2.92-3.17 1.06-4.99 3.49-4.51 7.27.3 2.4.06 4.87.06 8.18 5.79-.48 11.2-.84 16.58-1.39 4.76-.48 9.49-1.55 14.26-1.66 4.8-.11 8.02 2.79 10.03 7.34-8.31 4.05-16.96 6.55-25.9 8.12-2.31.41-4.64.76-6.92 1.31-5.71 1.38-8.84 5.15-8.73 11.06.05 2.98.71 5.98 1.43 8.88.25.99 1.38 2.22 2.35 2.49 4.9 1.41 9.87 2.63 14.85 3.75 2.93.66 6.02.7 8.89 1.53 3.24.93 5.77 2.93 6.27 7.28-5.74.87-11.42 1.82-17.12 2.58-5.65.76-11.32 1.33-17.8 2.08-.17 6.63-.39 13.17-.41 19.72 0 .67 1.04 1.73 1.8 1.95 3.3.99 6.65 1.93 10.04 2.52 4.53.79 7.68 4.51 7.04 9-.12.81-.92 1.93-1.65 2.18-2.19.73-4.5 1.17-6.78 1.58-1.75.32-3.55.34-5.3.63-2.68.44-3.78 1.87-3.85 4.81-.15 6.71-.72 13.41-1.3 20.1-.18 2.12.62 3.25 2.31 4.31 6.12 3.87 12.75 4.53 19.71 3.45 6.04-.94 12-.99 17.94.77 1.73.51 2.58 1.3 2.24 3.02-.38 1.97 1.3 4.53-1.83 5.75-9.45 3.65-18.86 7.2-29.3 4.36-1.57-.43-3.34-.24-5.01-.13-2.88.2-4.93 1.63-5.37 4.6-.91 6.29-1.99 12.58-2.43 18.92-.74 10.7-.93 21.44-1.58 32.15-.21 3.36-.82 6.83-5.27 8.22z" fill="#010100"/><g fill="#fafbfa"><path d="m6.4 11.7c-1-.8-1.9-1.6-2.9-2.3l.6-.7c.9.7 1.9 1.4 2.9 2.2zm-2.1 8.3c.7-2.1 1.4-4.2 2-6.4.2.1.6.3 1 .4-.7 2.3-1.3 4.4-1.9 6.4zm3-12.8c-1.1-.9-2.1-1.7-2.9-2.4l.6-.7c1 .8 2 1.5 3 2.4zm1.4-1.3v-.9h10.2v.9c-.9 4.2-2.3 7.3-4.1 9.4 1.3 1.4 3.2 2.7 5.7 4-.2.2-.4.5-.7.9-2.5-1.4-4.4-2.7-5.7-4.2-1.4 1.5-3.5 3-6.1 4.4 0 0 0 0-.1-.1-.3-.4-.5-.7-.7-.8 2.7-1.3 4.7-2.8 6.2-4.2-1.8-2.2-3-5.3-3.7-9.4zm9.2 0h-7.1c.6 3.8 1.7 6.7 3.4 8.7 1.7-2 2.9-4.8 3.7-8.7z"/><path d="m31.6 3.6h.9v2.3h4.1v9.1h1.7v.9h-16.6v-.9h1.7v-9.1h4.1v-2.3h.9v2.3h3.1v-2.3zm-4 13.3.6.8c-1.9.9-3.8 1.9-5.8 2.8-.2-.3-.3-.6-.5-.9 2-.9 3.9-1.8 5.7-2.7zm-3.2-10.1v3.7h3.1v-3.7zm0 4.5v3.7h3.1v-3.7zm4.1-4.5v3.7h3.1v-3.7zm0 4.5v3.7h3.1v-3.7zm9.1 9.1c-2.1-1.1-4.1-2-5.8-2.7l.5-.8c2.2.9 4.1 1.8 5.8 2.6zm-1.9-13.6h-3.1v3.7h3.1zm-3.2 4.5v3.7h3.1v-3.7z"/></g></svg>