<svg enable-background="new 0 0 400 400" viewBox="0 0 400 400" xmlns="http://www.w3.org/2000/svg"><path d="m46.69 278.93c.09.97.17 1.71.26 2.69 1-.14 2.06.03 2.67-.41 5.82-4.24 12.85-4.15 19.44-5.67 6.11-1.4 12.08-1.24 18.21.11 2.14.47 4.7-.79 7.03-1.4 1.83-.48 3.57-1.41 5.41-1.72 1.48-.25 3.07.13 4.61.25 2.18.17 4.64 1.1 6.48.4 7.22-2.73 14.65-2.81 22.17-2.7 6.6.09 13.21-.04 19.81.06 2.01.03 3.24-.48 4.17-2.44 2.49-5.25 5.26-10.36 7.83-15.58.4-.8.75-2.03.42-2.73-2.13-4.49-1.64-9.17-1.29-13.86.08-1 .29-2 .36-3 .64-8.34-2.2-11.33-10.55-11-2 .08-4.08.18-5.97.78-1.55.49-3.16 1.47-4.22 2.69-2.89 3.33-12.4 6.17-16.07 3.96-2.07-1.25-3.39-3.74-5.13-5.77-1.7 1.38-3.32 2.89-5.13 4.12-6.44 4.41-13.49 3.57-20.72 2.64-5.38-.69-10.93-.92-16.33-.44-7.59.68-10.1 5.94-6.17 13.49-3.5-.3-6.48-.67-9.47-.78-4.13-.15-6.94-1.79-8.06-5.98-.37-1.38-1.39-2.6-1.75-3.98-1.4-5.4-5.55-7.04-10.34-7.3-3.15-.17-4.53-1.75-4.14-4.36.62-4.16 1.79-8.25 2.96-12.3.19-.67 1.51-1.18 2.4-1.46 4.17-1.27 8.33-2.6 12.58-3.56 2.74-.62 3.98-1.9 4-4.73.03-4.25 2.06-7.67 5.01-10.82 1.34 1.13 2.6 2.2 4 3.38 7.04-7.55 16.47-7.6 25.7-7.96 7.49-.29 15 0 22.49-.23 2.75-.08 4.76.59 6.19 2.93 2.18 3.58 5.04 4.91 9.47 4.22 5.5-.85 11.15-1 16.73-.93 6.02.08 11.15-1.73 15.74-5.85-2.87-.71-3.16-2.54-2.52-5.18.81-3.36-.41-6.23-3.49-8-2.59-1.49-3.39-3.43-1.83-6.02 2.01-3.34 1.17-6.21-1.35-8.71-3.38-3.36-3.58-7.1-1.89-11.28.54-1.34.89-2.78 1.12-4.2.62-3.76-1.04-6.56-4.61-7.91-4.3-1.63-8.39-1.11-12.71.47-6.36 2.33-12.86 5.14-19.47 5.73-9.84.87-19.85.24-29.76-.32-3.55-.2-7-2.04-11.01-3.29-3.52 2.61-8.33 3.11-13.16 2.76-6.24-.45-12.45-1.31-18.66-2.07-3.09-.38-5.66-1.64-7.64-4.27-2.01-2.66-4.42-5.01-7.09-7.98 8.64-3.51 13.56-8.95 9.39-19.02 6.29.51 9.07-3.62 12.22-6.98 1.98-2.11 4.09-2.76 6.97-3.06 9.4-.98 17.66 1.01 24.55 7.7 1.5 1.46 2.93 1.26 4.8.43 1.98-.87 4.25-1.29 6.43-1.47 10.91-.87 21.83-1.61 32.75-2.33 1.06-.07 2.24.02 3.19.44 2.14.94 4.15 2.2 6.26 3.2 4.25 2.02 6.48 1.08 8.12-3.13.32-.83 1.02-1.92 1.76-2.12 5.69-1.57 11.37-3.83 17.16-4.18 9.45-.58 18.97.08 28.46.3 4.36.1 8.72.6 13.07.5 2.03-.05 4.19-.78 6.03-1.72 5.97-3.03 12.04-4.27 18.71-2.7 3.24.77 6.7.56 9.98 1.2 3.34.65 6.12.44 8.27-2.58.54-.76 1.53-1.48 2.42-1.65 17.56-3.42 35.11-7 53.12-6.7 4.35.07 8.7.65 13.03 1.16 5.24.61 10.01 2.14 13.24 6.83 1.25 1.82 2.93 3.35 4.37 4.96 1.71-.67 3.21-1.41 4.8-1.85 5.33-1.47 10.02.33 13.13 4.92 2.82 4.16 2.68 9.19-.63 13.42-.62.79-2 1.23-3.09 1.37-3.4.42-6.59.48-8.76 4.16-.91 1.54-4.02 2.44-6.15 2.48-8.16.15-16.33-.37-24.49-.22-4.18.07-8.64.25-12.44 1.75-7.08 2.79-14.17 2.57-21.43 2.07-8.38-.58-16.62-.41-24.88 2-3.46 1.01-7.68.01-11.43-.73-3.38-.66-6.14-.57-8.21 2.44-2.54 3.67-5.89 3.39-9.48 2.01-2.4-.92-4.75-1.97-7.2-2.77-5.87-1.9-10.85-.1-12.72 5.67-1.94 6-3.4 12.34-3.75 18.6-.43 7.88.48 15.82.85 23.74.03.65.11 1.64.51 1.86 5.13 2.87 8.99 8.28 15.68 8.06 12.85-.44 25.71-.88 38.56-1.42 3.9-.16 7.38-.14 10.12 3.56 1.99 2.68 4.71 1.53 6.62-1.42 1.16-1.8 3.5-2.83 5.49-4.35 2.19 3.18 4.41 3.58 7.31 1.57.79-.55 2.56.16 3.83.49 1.62.43 3.19 1.56 4.76 1.53 19.57-.38 39.14-1.01 58.71-1.33 3.86-.06 7.85.52 11.57 1.57 5.95 1.67 7.71 7.17 4.36 12.28-3.62 5.52-7.53 10.87-10.77 16.61-3.37 5.97-8.33 7.27-14.48 6.29-1.88-.3-3.79-.53-5.59-1.1-11.17-3.51-22.45-1.67-33.62-.38-8.92 1.03-17.63.44-26.33-1.12-2.29-.41-4.36-2.06-6.36-2.25-1.57.38-3.15 1.14-4.7 1.08-4.69-.19-9.36-.8-14.05-1.06-2.35-.13-4.12-.69-4.32-4.32-6.54 8.33-14.37 4.75-21.77 3.65-3.16-.47-5.86-.42-8.53 1.51-2.27 1.65-4.72 2.84-7.81 1.76-.83-.29-2.5.59-3.21 1.42-6.19 7.34-7.76 16.35-9.27 25.47-1.07 6.44-2.82 12.76-4.36 19.54 1.96.67 4.77 1.75 7.64 2.58 2.99.86 5.42 2.33 7.44 4.79.8.98 2.7 1.84 3.88 1.61 19.86-3.87 39.95-1.91 59.93-2.56 6.66-.22 13.26-1.68 19.92-2.3 3.14-.29 6.43-.38 9.49.24 7.22 1.46 14.32 3.57 21.54 5.05 2.6.53 5.53.5 8.11-.12 3.31-.8 6.42-.95 9.48.37 5.42 2.35 10.93 4.57 16.06 7.47 2.47 1.4 4.65 3.93 6.04 6.45 2.31 4.23.76 7.95-3.38 10.34-12.64 7.28-26.46 8.35-40.59 7.82-2.35-.09-4.74-.09-7.02-.57-4.1-.85-7.38-.01-11.29 1.93-3.72 1.85-8.89 1.38-13.34.97-4.05-.37-8.02-1.94-11.97-3.16-4.39-1.36-8.88-1.42-12.72.83-7.91 4.63-16.17 5.07-24.86 3.51-5.23-.94-10.55-.78-15.62-3.18-5.68-2.69-11.88-.74-17.89-.58-5.88.16-11.77-.47-17.66-.62-1.7-.04-3.58 0-5.08.66-3.97 1.76-7.78 3.88-11.81 5.94-1.02-1.08-2-2.1-2.86-3.01-6.68 4.29-13.63 3.68-20.94 2.73-6.36-.83-12.94-.72-19.35-.15-9.01.8-17.95 2.4-26.92 3.68-1.1.16-2.28.23-3.27.66-6.46 2.85-13.16 4.03-20.24 3.61-1.33-.08-3 1.22-4.08 2.3-1.53 1.54-3.02 2.26-5.27 2.09-9.93-.75-19.87-1.31-29.8-1.95-.65-.04-1.43-.02-1.92-.36-3.72-2.62-7.49-5.2-11.04-8.05-3.53-2.82-3.74-8.87-.81-12.19 2.96-3.36 5.76-6.85 8.67-10.25 3.97-4.55 7.8-6.95 14.03-8.71z" fill="#010101"/><g fill="#fafbfa"><path d="m6.4 11.7c-1-.8-1.9-1.6-2.9-2.3l.6-.7c.9.7 1.9 1.4 2.9 2.2zm-2.1 8.3c.7-2.1 1.4-4.2 2-6.4.2.1.6.3 1 .4-.7 2.3-1.3 4.4-1.9 6.4zm3-12.8c-1.1-.9-2.1-1.7-2.9-2.4l.6-.7c1 .8 2 1.5 3 2.4zm1.4-1.3v-.9h10.2v.9c-.9 4.2-2.3 7.3-4.1 9.4 1.3 1.4 3.2 2.7 5.7 4-.2.2-.4.5-.7.9-2.5-1.4-4.4-2.7-5.7-4.2-1.4 1.5-3.5 3-6.1 4.4 0 0 0 0-.1-.1-.3-.4-.5-.7-.7-.8 2.7-1.3 4.7-2.8 6.2-4.2-1.8-2.2-3-5.3-3.7-9.4zm9.2 0h-7.1c.6 3.8 1.7 6.7 3.4 8.7 1.7-2 2.9-4.8 3.7-8.7z"/><path d="m31.6 3.6h.9v2.3h4.1v9.1h1.7v.9h-16.6v-.9h1.7v-9.1h4.1v-2.3h.9v2.3h3.1v-2.3zm-4 13.3.6.8c-1.9.9-3.8 1.9-5.8 2.8-.2-.3-.3-.6-.5-.9 2-.9 3.9-1.8 5.7-2.7zm-3.2-10.1v3.7h3.1v-3.7zm0 4.5v3.7h3.1v-3.7zm4.1-4.5v3.7h3.1v-3.7zm0 4.5v3.7h3.1v-3.7zm9.1 9.1c-2.1-1.1-4.1-2-5.8-2.7l.5-.8c2.2.9 4.1 1.8 5.8 2.6zm-1.9-13.6h-3.1v3.7h3.1zm-3.2 4.5v3.7h3.1v-3.7z"/></g></svg>