<svg enable-background="new 0 0 400 400" viewBox="0 0 400 400" xmlns="http://www.w3.org/2000/svg"><path d="m21.91 327.19c31.98-1.05 60.68-11.75 89.71-21.08 11.49-3.69 22.73-8.23 34.33-11.51 16.55-4.68 33.29-8.67 50.03-12.65 3.37-.8 5.53-2.46 6.59-5.38 1.36-3.75 2.95-7.65 3.12-11.55.36-8.25-.07-16.55-.35-24.82-.04-1.15-1.02-2.3-1.67-3.38-.27-.46-.91-.69-1.22-1.14-5.13-7.33-11.83-7.29-19.63-4.95-9.41 2.83-19.02 5.22-28.97 4.97-3.06-.08-6.13-.97-9.12-1.79-10.21-2.81-20.72-4.88-29.79-10.78-1.45-.94-3.06-2.45-3.48-4-1.42-5.3-4.19-9.41-8.54-12.76-3.8-2.93-7.16-6.44-10.86-9.5-2.15-1.78-3.27-3.66-2.98-6.57.29-2.85.06-5.76.06-8.96-5.25 1.31-10.07 2.79-14.99 3.7-13.06 2.4-24.53-1.36-34.49-9.84-1.79-1.52-2.93-3.8-4.6-6.05 14.56-4.28 28.48-8.38 42.41-12.46 21.13-6.19 42.21-12.52 63.42-18.43 5.42-1.51 11.26-1.44 16.83-2.52 3.47-.67 6.99-1.72 10.14-3.3 5.49-2.74 5.96-8.6 1.33-12.53-6.31-5.36-12.58-10.78-18.97-16.04-1.11-.92-2.7-1.59-4.13-1.73-13.43-1.39-25.54 2.79-37.28 8.83-5.93 3.05-12.01 6.04-18.34 8-9.71 3.01-19.45 1.66-28.94-1.8-5.13-1.87-10.32-3.65-15.59-5.07-5.08-1.37-7.76-4.43-8.36-9.89 6.36-1.78 12.68-3.57 19.01-5.32 45.02-12.45 89.98-25.12 135.11-37.18 11.83-3.16 24.17-4.41 36.28-6.52 2.64-.46 5.36-.64 7.93-1.35 6.42-1.75 12.64.28 18.95.6 11.84.62 23.69.83 35.53 1.47 4.32.23 8.7.81 12.88 1.9 9.07 2.37 14.6 8.24 16.05 17.96-7.1 4.4-14.87 5.52-23.08 4.57-11.54-1.35-23.05-3.29-34.62-3.85-16.84-.82-33.07 3.47-49.15 7.9-8.31 2.29-16.47 4.93-25.28 4.54-3.03-.13-6.06.71-7.93 3.56-1.08 1.65-1.27 3.02.67 4.55 10.02 7.89 19.88 16 29.93 23.86 1.29 1.01 3.5 1.55 5.13 1.3 10.94-1.66 21.8-3.93 32.78-5.27 4.51-.55 9.23.76 13.86 1.07 1.59.1 3.51.22 4.77-.54 3.3-1.99 6.72-2.58 10.51-2.6 11.4-.05 22.81-.77 34.19-.43 8.31.25 16.25 2.97 23.74 6.65 4.14 2.04 7.34 5.09 8.5 9.82 1.06 4.32.5 5.98-3.83 6.76-7.01 1.26-14.13 2.11-21.24 2.63-5.43.4-10.87.33-16.22-1.62-1.96-.72-4.6.17-6.88.63-11.39 2.3-22.72 5.02-34.17 6.95-7.02 1.18-14.26 1.03-21.36 1.81-4.96.54-9.96 1.3-14.76 2.61-3.55.96-5.22 3.66-5.64 7.75-.56 5.44.32 10.08 2.74 15.02 3.79 7.72 4.69 16.31 4.83 24.85.19 10.74-.14 21.49.06 32.23.14 7.48.72 14.96 3.51 22.28.5-.39.91-.59 1.15-.92 11.49-15.85 23.14-31.59 34.33-47.65 4.32-6.21 7.76-13.07 11.26-19.81 2.82-5.42 2.38-11.32 1.07-17.07-1.26-5.54-2.84-11-4.38-16.9 5.43-.36 10.86-.76 16.29-1.02.61-.03 1.53.55 1.86 1.11 5.24 8.99 14.2 13.33 22.7 18.24 7.62 4.41 9.57 8.72 7.44 17.25-.37 1.49-1.37 3.1-2.56 4.06-7.75 6.25-14.14 13.65-19.54 21.98-2.49 3.84-5.23 7.53-7.89 11.26-5.41 7.57-12.39 13.27-20.16 18.39-13.52 8.92-26.59 18.52-39.81 27.9-1.61 1.14-2.97 2.63-4.85 4.33 5.63 2.05 10.73 1.94 15.88.64 5.84-1.48 11.61-3.74 17.54-4.28 11.23-1.02 22.54-1.11 33.82-1.5 13.08-.46 26.16-1.29 39.23-1.08 10.32.16 20.39 2.72 29.75 7.25 4.7 2.28 7.15 6.58 8.32 11.62.5 2.16.02 3.47-2.22 4.4-8.84 3.68-18.11 4.91-27.55 4.96-9.4.05-18.8-.11-28.19-.44-16.1-.57-31.9 1-47.4 5.58-17.26 5.1-35.13 6.65-52.9 8.63-17.03 1.89-34.08 3.89-50.43 9.07-13.4 4.25-26.37 9.85-39.53 14.84-15.15 5.75-30.28 11.53-45.45 17.21-7.77 2.91-15.43 2.76-23.15-.67-7.55-3.36-15.4-6.05-22.93-9.46-2.97-1.34-5.64-3.6-8-5.91-1.18-1.14-1.34-3.32-2.17-5.62zm68.92-147.13c-.15.37-.3.74-.45 1.11 3.24 2.07 6.23 4.84 9.76 6.07 9.56 3.35 19.19 6.78 29.08 8.84 18.47 3.85 37.12 6.89 55.74 9.95 3.53.58 7.3-.15 10.94-.55 1.98-.22 2.76-1.52 2.8-3.75.15-9.72-1.41-19.17-4.36-28.38-4.03-12.57-14.1-17.67-24.81-16.95-7.58.51-15.07 2.91-22.49 4.88-5.71 1.51-11.26 3.65-16.87 5.53-13.12 4.41-26.23 8.84-39.34 13.25z" fill="#010105"/><g fill="#fcfbfa"><path d="m377.9 391.2c-.2.3-.4.5-.6.8-.7-.6-1.4-1-2.2-1.5.2-.3.4-.5.5-.8.6.4 1.4.8 2.3 1.5zm-1.8 6.1c-.2-.2-.5-.4-.9-.6.4-.6.8-1.2 1.2-1.9s.7-1.3.9-1.9c.3.3.5.5.8.7-.7 1.3-1.4 2.6-2 3.7zm2.2-9c-.3.3-.5.5-.6.8-.6-.6-1.3-1.1-2-1.5.3-.3.5-.5.6-.7.6.5 1.3.9 2 1.4zm.3.2v-.9h2 4.5c-.3 1.3-.6 2.5-1 3.6s-.9 2.1-1.4 3c.4.5 1 1 1.6 1.4s1.2.8 1.9 1.1c-.3.2-.5.4-.8.8-.4-.3-1-.7-1.6-1.2s-1.2-1.1-1.6-1.6c-.5.6-1.1 1.1-1.7 1.6s-1.4.9-2.1 1.4c-.1-.3-.3-.5-.7-.8.6-.2 1.2-.5 1.9-1s1.4-1.1 2-1.8c-.5-.8-.9-1.6-1.2-2.5s-.6-2-.8-3.2c-.4.1-.7.1-1 .1zm2.5 2.7c.3 1 .7 1.7 1 2.2.3-.5.6-1.1 1-2s.6-1.9.9-3h-3.2-.4c.1.9.3 1.8.7 2.8z"/><path d="m396.5 388.5v1.5 3.6h1.5v.9c-.4 0-1 0-1.7 0h-7.9c-.5 0-.9 0-1.2 0v-.9h1.3v-3.5c0-.7 0-1.2 0-1.6h2.4c0-.8 0-1.4 0-1.7h1c0 .3-.1.8-.1 1.7h1.5c0-.8 0-1.4 0-1.7h1c0 .3-.1.9-.1 1.7zm-8.2 9.2c-.2-.3-.5-.5-.8-.8.8-.3 1.4-.6 1.9-.9s1-.7 1.4-1.1c.3.3.6.5.9.8-1.6 1-2.8 1.6-3.4 2zm2.6-6.8v-1.6h-1.5v1.6zm0 2.7v-1.9h-1.5v1.9zm2.4-2.7v-1.6h-1.5v1.6zm0 2.7v-1.9h-1.5v1.9zm.2 2 .7-.8c.4.2.9.5 1.6.8s1.3.7 1.8 1c-.3.3-.5.5-.8.8-.4-.3-1.5-1-3.3-1.8zm2-4.7v-1.6h-1.4v1.6zm0 2.7v-1.9h-1.4v1.9z"/></g></svg>