<svg enable-background="new 0 0 400 400" viewBox="0 0 400 400" xmlns="http://www.w3.org/2000/svg"><path d="m336.95 50.44c-5.64 1.19-11.08 2.38-16.55 3.46-.68.14-1.62-.03-2.19-.42-7.81-5.32-16.65-5.68-25.52-4.85-8 .75-15.93 2.28-23.89 3.42-2.71.39-4.46 1.79-5.29 4.81 3.68 1.87 7.43 3.76 11.17 5.67 5.57 2.86 11.21 5.59 16.68 8.62 10.7 5.93 9.88 15.67 6.34 24.1-.41.98-2.01 1.66-3.19 2.09-23.74 8.61-45.45 20.95-65.8 35.79-.81.59-1.6 1.22-2.37 1.86-.13.11-.17.34-.35.77 10.87-2.8 21.66-5.25 32.24-8.4 11.68-3.48 23.58-4.93 35.67-5.63 11.06-.64 22.1-1.53 33.16-2.28 8.15-.56 16.06.84 23.79 3.27 1.57.49 3.11 1.33 4.41 2.35 5.73 4.5 5.23 11.96-.94 15.53-3.93 2.27-8.04 3.24-12.55 1.99-10.02-2.76-19.94-1.3-29.92.5-20.58 3.71-41.24 6.99-61.78 10.89-10.56 2-20.75 5.43-30.23 10.71-2.19 1.22-2.98 2.73-3.16 5.29-1.81 25.56-3.82 51.11-5.7 76.66-.14 1.96-1.37 4.6 2.3 5.39 2.73-4.08 5.57-8.08 8.15-12.25 4.44-7.17 9.6-13.74 15.67-19.6 1.45-1.4 2.63-3.12 4.22-4.32 10.82-8.14 14.01-19.58 14.49-32.36.14-3.83 1.05-7.63 1.66-11.83 9.38 3.04 18.23 5.47 26.72 8.8 8.09 3.17 14.86 15.75 13.45 23.64-.24 1.34-.91 2.77-1.79 3.8-5.76 6.71-11.62 13.34-17.5 19.94-.88.98-1.98 1.81-3.09 2.53-2.54 1.64-5.05 3.34-7.73 4.72-12.34 6.32-22.46 15.19-31.39 25.75-3.83 4.53-9.08 7.85-13.61 11.8-2.44 2.13-4.77 4.39-7.06 6.68-6.45 6.44-7.59 14.22-5.3 22.65.39 1.42 1.97 3.24 3.29 3.53 2.63.58 5.74 1 8.17.13 24.74-8.86 50.74-9.01 76.42-11.2 12.14-1.04 24.36-1.13 36.56-1.41 8.84-.2 17.34 1.81 25.5 5.1 7.03 2.84 10.17 8.19 9.28 15.65-.13 1.12-.94 2.57-1.87 3.12-6.41 3.76-13.2 5.45-20.57 3.09-1.49-.48-3.07-.69-4.52-1.26-10.64-4.19-21.42-3.64-32.57-2.21-29.86 3.84-59.61 8.17-89.18 13.89-5.37 1.04-10.04 3.32-14.33 6.19-6.64 4.44-13.41 5.13-20.95 3.28-2.43-.59-5.38-.28-7.8.51-33.74 11.12-67.44 22.36-101.13 33.66-9.31 3.12-18.29 1.97-27.21-1.43-5.64-2.15-11.29-4.27-16.94-6.39-5.05-1.9-5.27-2.16-6.35-7.99 10.84-2.16 21.65-4.5 32.54-6.43 17.92-3.18 34.89-9.61 52.22-14.8 21.42-6.41 42.68-13.32 64.11-19.69 4.68-1.39 7.24-4.15 7.72-8.52.85-7.76 1.86-15.61 1.54-23.37-1.44-34.44-3.35-68.86-5.01-103.29-.1-2.07-.99-2.74-2.77-3.46-4.23-1.72-7.5-1.46-11.47 1.56-9.18 6.99-20.28 10.22-31.08 13.91-7.93 2.71-15.75 5.78-23.74 8.27-7.86 2.45-14.3 7.28-21.05 11.62-4.89 3.14-10.1 4.73-15.92 3.76-1.3-.22-2.61-.59-3.82-1.11-9.97-4.26-19.82-8.84-29.92-12.75-5.06-1.96-8.49-5.05-10.71-9.97 3.6 0 7.19-.07 10.77.02 4.81.12 9.61.4 14.42.53.98.02 2.01-.24 2.94-.57 38.89-13.71 77.76-27.49 116.69-41.07 3.78-1.32 5.19-3.61 5.79-7.18 1.43-8.56.49-17.03-1.44-25.31-2.27-9.77-5-19.45-7.96-29.04-2.56-8.28-17.81-13.88-26.03-6.64-3.95 3.47-9.34 6.07-14.5 7.25-14.03 3.22-25.75 9.66-34.72 21.03-5.23 6.63-12.07 7.81-19.91 5.51-3.75-1.1-7.63-1.71-11.43-2.64-1.04-.25-2.26-.59-2.97-1.31-4.97-5.07-11.28-6.51-18.01-6.95-7.95-.52-13.25-5.33-14.95-13.82 5.58-1.33 11.13-2.93 16.79-3.95 33.68-6.07 65.08-19.27 96.96-30.94 18.58-6.8 37.04-13.92 55.74-20.37 5.39-1.86 11.4-2.04 17.16-2.71 16.45-1.93 32.92-3.66 49.37-5.59 2.98-.35 5.99-1.02 8.81-2.01 14.11-4.96 28.22-3.3 42.36-.32 1.86.39 3.73.78 5.55 1.32 10.64 3.13 15.86 9.56 16.91 21.23zm-123.82 75.16c6.07-5.32 11.63-10.14 17.12-15.03 2.5-2.23 5.13-4.38 7.24-6.95 4.69-5.7 9.5-11.37 13.48-17.55 4.33-6.71 7.96-13.91 11.55-21.06 1.77-3.53.94-5.54-2.77-6.32-4.98-1.05-10.29-2.36-15.17-1.64-13.47 1.99-26.85 4.68-40.14 7.69-6.89 1.56-13.49 4.38-20.6 6.76 1.01 1.41 1.43 2.06 1.91 2.65 7 8.58 14.1 17.08 20.94 25.78 1.56 1.99 2.66 4.6 3.2 7.09 1.29 5.89 2.1 11.86 3.24 18.58z" fill="#010105"/><g fill="#fcfbfa"><path d="m377.9 391.2c-.2.3-.4.5-.6.8-.7-.6-1.4-1-2.2-1.5.2-.3.4-.5.5-.8.6.4 1.4.8 2.3 1.5zm-1.8 6.1c-.2-.2-.5-.4-.9-.6.4-.6.8-1.2 1.2-1.9s.7-1.3.9-1.9c.3.3.5.5.8.7-.7 1.3-1.4 2.6-2 3.7zm2.2-9c-.3.3-.5.5-.6.8-.6-.6-1.3-1.1-2-1.5.3-.3.5-.5.6-.7.6.5 1.3.9 2 1.4zm.3.2v-.9h2 4.5c-.3 1.3-.6 2.5-1 3.6s-.9 2.1-1.4 3c.4.5 1 1 1.6 1.4s1.2.8 1.9 1.1c-.3.2-.5.4-.8.8-.4-.3-1-.7-1.6-1.2s-1.2-1.1-1.6-1.6c-.5.6-1.1 1.1-1.7 1.6s-1.4.9-2.1 1.4c-.1-.3-.3-.5-.7-.8.6-.2 1.2-.5 1.9-1s1.4-1.1 2-1.8c-.5-.8-.9-1.6-1.2-2.5s-.6-2-.8-3.2c-.4.1-.7.1-1 .1zm2.5 2.7c.3 1 .7 1.7 1 2.2.3-.5.6-1.1 1-2s.6-1.9.9-3h-3.2-.4c.1.9.3 1.8.7 2.8z"/><path d="m396.5 388.5v1.5 3.6h1.5v.9c-.4 0-1 0-1.7 0h-7.9c-.5 0-.9 0-1.2 0v-.9h1.3v-3.5c0-.7 0-1.2 0-1.6h2.4c0-.8 0-1.4 0-1.7h1c0 .3-.1.8-.1 1.7h1.5c0-.8 0-1.4 0-1.7h1c0 .3-.1.9-.1 1.7zm-8.2 9.2c-.2-.3-.5-.5-.8-.8.8-.3 1.4-.6 1.9-.9s1-.7 1.4-1.1c.3.3.6.5.9.8-1.6 1-2.8 1.6-3.4 2zm2.6-6.8v-1.6h-1.5v1.6zm0 2.7v-1.9h-1.5v1.9zm2.4-2.7v-1.6h-1.5v1.6zm0 2.7v-1.9h-1.5v1.9zm.2 2 .7-.8c.4.2.9.5 1.6.8s1.3.7 1.8 1c-.3.3-.5.5-.8.8-.4-.3-1.5-1-3.3-1.8zm2-4.7v-1.6h-1.4v1.6zm0 2.7v-1.9h-1.4v1.9z"/></g></svg>