<svg enable-background="new 0 0 400 400" viewBox="0 0 400 400" xmlns="http://www.w3.org/2000/svg"><path d="m209.42 43.64c-5.21.9-9.93 1.7-14.65 2.54-6.9 1.23-11.76-1.09-13.84-6.45-.82-2.1-.41-3.11 1.75-4.02 9.57-4.03 19.64-5.08 29.85-5.33 11.1-.28 22.07-1.27 32.78-4.51 6.1-1.84 15.35 3.53 16.85 9.66.21.85-.3 2.15-.91 2.89-9.85 12.17-19.43 24.59-29.79 36.31-9.55 10.8-19.96 20.85-30 31.22-8.56 8.84-17.35 17.48-25.63 26.58-4.34 4.77-7.89 10.27-11.69 15.51-4.33 5.98-8.48 12.09-12.87 18.02-1.26 1.71-1.16 2.95-.3 4.79 2.15 4.58 5.75 7.83 9.13 11.41 8.81 9.35 17.94 18.51 25.68 28.71 8.68 11.43 6.92 24.42 2.23 37.12-.32.86-1.21 1.58-1.96 2.2-7.65 6.37-15.15 12.95-23.08 18.96-3.75 2.84-4.73 6.17-4.46 10.38.6 9.22 4.61 17.17 9.27 24.88 1.5 2.49 3.25 4.85 4.54 7.43 5.71 11.44 13.83 21.08 22.24 30.56 4.81 5.43 9.24 11.2 13.73 16.9 1.09 1.38 1.82 3.08 2.55 4.7 3.15 6.98.27 11.7-7.61 11.34-6.56-.3-12.85-1.73-17.28-7.8-17.33-23.72-33.06-48.34-44.19-75.67-2.74-6.72-2.19-13.2.38-19.87 2.76-7.15 5.97-13.5 12.81-18.01 4.22-2.79 7.35-7.42 10.53-11.56 7.2-9.38 5.32-20.87-1.31-29.21-5.96-7.49-12.97-14.14-19.5-21.18-2.28-2.46-4.6-4.88-6.75-7.45-5.1-6.1-6.43-13.05-4.6-20.76 1.47-6.21 4.24-11.4 8.62-16.28 7.38-8.22 13.81-17.28 20.7-25.94 1.66-2.09 3.39-4.17 5.34-5.99 10.4-9.69 20.87-19.3 31.31-28.94.74-.68 1.78-1.28 2.11-2.13 3.25-8.41 10.66-13.34 16.35-19.69 3.9-4.35 5.45-9.32 5.06-15.11-.14-2.01-.89-3.25-2.66-3.72-3.65-.94-7.34-1.71-10.73-2.49z" fill="#010102"/><g fill="#fafbfa"><path d="m6.4 11.7c-1-.8-1.9-1.6-2.9-2.3l.6-.7c.9.7 1.9 1.4 2.9 2.2zm-2.1 8.3c.7-2.1 1.4-4.2 2-6.4.2.1.6.3 1 .4-.7 2.3-1.3 4.4-1.9 6.4zm3-12.8c-1.1-.9-2.1-1.7-2.9-2.4l.6-.7c1 .8 2 1.5 3 2.4zm1.4-1.3v-.9h10.2v.9c-.9 4.2-2.3 7.3-4.1 9.4 1.3 1.4 3.2 2.7 5.7 4-.2.2-.4.5-.7.9-2.5-1.4-4.4-2.7-5.7-4.2-1.4 1.5-3.5 3-6.1 4.4 0 0 0 0-.1-.1-.3-.4-.5-.7-.7-.8 2.7-1.3 4.7-2.8 6.2-4.2-1.8-2.2-3-5.3-3.7-9.4zm9.2 0h-7.1c.6 3.8 1.7 6.7 3.4 8.7 1.7-2 2.9-4.8 3.7-8.7z"/><path d="m31.6 3.6h.9v2.3h4.1v9.1h1.7v.9h-16.6v-.9h1.7v-9.1h4.1v-2.3h.9v2.3h3.1v-2.3zm-4 13.3.6.8c-1.9.9-3.8 1.9-5.8 2.8-.2-.3-.3-.6-.5-.9 2-.9 3.9-1.8 5.7-2.7zm-3.2-10.1v3.7h3.1v-3.7zm0 4.5v3.7h3.1v-3.7zm4.1-4.5v3.7h3.1v-3.7zm0 4.5v3.7h3.1v-3.7zm9.1 9.1c-2.1-1.1-4.1-2-5.8-2.7l.5-.8c2.2.9 4.1 1.8 5.8 2.6zm-1.9-13.6h-3.1v3.7h3.1zm-3.2 4.5v3.7h3.1v-3.7z"/></g></svg>