<svg enable-background="new 0 0 400 400" viewBox="0 0 400 400" xmlns="http://www.w3.org/2000/svg"><path d="m211.54 374.86c-1.57-4.44-2.67-8.74-.32-12.63 4.42-7.32 5.32-15.25 5.58-23.51.11-3.58 1-7.21 2.06-10.66 3.97-12.97 7.43-26.12 7.9-39.67.2-5.84-1.89-11.85-3.46-17.64-.78-2.87-2.39-5.71-4.25-8.07-9.81-12.55-17.39-26.02-18.66-42.3-.31-3.95-.16-7.82 2.11-11.31 3.05-4.69 2.98-10.2 4.12-15.41 1.27-5.76 2.89-11.44 4.43-17.14.46-1.72 1.23-3.36 1.72-5.08 1.93-6.79 1.47-13.27-3.92-18.31-4.96-4.63-10.27-8.92-15.68-13.03-7.83-5.94-16.29-11.11-23.73-17.48-8.84-7.56-12.02-18.08-10.77-29.39 1.43-12.99 3.58-25.92 6.05-38.75.94-4.91-.18-8.32-3.79-11.19-4.79-3.82-6.29-9.07-6.64-14.81-.06-.91.45-2.38 1.1-2.66.85-.38 2.41-.22 3.15.36 8.83 7.01 17.79 13.74 23.62 23.92 2.63 4.59 7.22 8.11 11.14 11.89 4.34 4.18 9.11 7.93 13.36 12.21 3.39 3.42 5.02 7.84 5.25 12.78-3.19 1.2-5.57.73-7.97-1.99-3.77-4.27-7.96-8.18-12.18-12.02-3.61-3.3-7.75-5.84-12.9-5.56-1.16.06-2.83 1.01-3.31 2-6.1 12.81-7.64 26.04-3.18 39.72.07.21.08.49.22.63 6.42 6.64 11.99 14.3 21.27 17.48 1.12.39 2.24 1 3.16 1.75 4.84 3.98 9.63 8.03 14.4 12.1.74.63 1.74 1.43 1.86 2.26.98 6.62 5.76 10.76 9.97 15.12 4 4.16 4.2 8.59 1.78 13.16-6.08 11.48-9.31 23.91-12.66 36.31-.75 2.8-1.24 5.69-1.6 8.57-.76 6.22.15 11.96 3.23 17.72 7.27 13.6 13.93 27.53 20.83 41.32.45.9.71 2.08 1.43 2.63 4.14 3.13 3.42 7.12 2.63 11.43-1.44 7.79-1.31 16.09-3.98 23.39-5.67 15.53-8.96 31.54-12.58 47.56-1.31 5.76-4.36 11.41-10.79 14.3z" fill="#010100"/><g fill="#fcfafa"><path d="m342.2 3.2-6.3 9.2h6.1v1.2h-8.2v-.5l6.2-9.1h-5.7v-1.2h7.8v.4z"/><path d="m344 13.7v-10.9h3.1c1.6 0 3 .5 4.1 1.4 1.1 1 1.6 2.2 1.6 3.9s-.5 3-1.6 4-2.5 1.5-4.2 1.5h-3zm1.4-9.6v8.4h1.6c1.4 0 2.5-.4 3.2-1.1.8-.8 1.2-1.8 1.2-3.2s-.4-2.4-1.2-3.1-1.8-1-3.1-1z"/><path d="m356.3 2.8v10.9h-1.4v-10.9z"/><path d="m366.6 13.2c-.8.4-1.8.6-3 .6-1.6 0-2.8-.5-3.7-1.5s-1.4-2.3-1.4-3.9c0-1.7.5-3.2 1.6-4.2s2.4-1.6 4-1.6c1 0 1.9.1 2.6.4v1.5c-.8-.4-1.6-.6-2.6-.6-1.2 0-2.2.4-3 1.2s-1.1 1.9-1.1 3.3c0 1.3.4 2.3 1.1 3.1s1.6 1.1 2.8 1.1c1.1 0 2-.2 2.8-.7v1.3z"/><path d="m368.2 13c0-.3.1-.5.3-.6.2-.2.4-.3.6-.3.3 0 .5.1.7.3s.3.4.3.6-.1.5-.3.6c-.2.2-.4.3-.7.3s-.5-.1-.6-.3c-.2-.2-.3-.4-.3-.6z"/><path d="m381.1 13.7h-1.7l-5.5-8.4c-.2-.2-.3-.5-.4-.7 0 .2.1.8.1 1.5v7.6h-1.4v-10.9h1.8l5.3 8.3c.3.4.4.6.4.8 0-.3-.1-.8-.1-1.6v-7.5h1.4v10.9z"/><path d="m389.7 13.7h-5.8v-10.9h5.6v1.2h-4.2v3.5h3.9v1.2h-3.9v3.7h4.4z"/><path d="m398.4 4.1h-3.1v9.6h-1.4v-9.6h-3.1v-1.3h7.7v1.3z"/></g></svg>