<svg enable-background="new 0 0 400 400" viewBox="0 0 400 400" xmlns="http://www.w3.org/2000/svg"><path d="m374.8 390.4.4-.4c.7.5 1.3 1 1.8 1.4l-.5.5c-.5-.6-1.1-1.1-1.7-1.5zm1 7.3-.6-.3c.5-1.4 1.1-2.8 1.5-4.3.2.1.4.2.6.3-.5 1.3-1 2.8-1.5 4.3zm-.4-10.3.4-.4c.4.3 1 .8 1.7 1.4l-.5.5c-.4-.5-1-1-1.6-1.5zm2.5.3h1.7v-1h.6v1h3.5v-1h.6v1h1.8v.5h-1.8v1.4h-2v1h3.2v2h-3.2v.9h3.3v.5h-3.4c0 .3-.1.6-.1.9h4v.5h-3.7c.7.9 1.9 1.5 3.8 1.7-.1.2-.2.4-.3.6-2.1-.4-3.5-1.1-4-2.1-.4 1-1.8 1.7-4 2.2-.1-.2-.2-.4-.3-.6 2.1-.4 3.4-1 3.8-1.8h-3.4v-.5h3.6c.1-.3.1-.6.2-.9h-3.3v-.5h3.4c0-.3 0-.6 0-.9h-3.2v-2h3.3v-1h-2.1v-1.4h-1.7v-.5zm1.1 3.5v1h2.7c0-.3 0-.4 0-.4 0-.1 0-.2 0-.2 0-.1 0-.2 0-.3h-2.7zm1.2-3v.9h3.5v-.9zm4.7 3h-2.6v.6.4h2.6z" fill="#fbfcfa"/><path d="m393.6 386.7h.6v1.5h2.7v6.1h1.1v.6h-11v-.6h1.1v-6.1h2.7v-1.5h.6v1.5h2.1v-1.5zm-2.7 8.8.4.6c-1.2.6-2.5 1.3-3.8 1.9-.1-.2-.2-.4-.3-.6 1.2-.6 2.5-1.2 3.7-1.9zm-2.2-6.7v2.4h2.1v-2.4zm0 3v2.5h2.1v-2.5zm2.8-3v2.4h2.1v-2.4zm0 3v2.5h2.1v-2.5zm6 6.1c-1.4-.7-2.7-1.3-3.9-1.8l.3-.6c1.5.6 2.7 1.2 3.9 1.7zm-1.2-9.1h-2.1v2.4h2.1zm-2.1 3v2.5h2.1v-2.5z" fill="#fbfcfa"/><g fill="#010101"><path d="m189.24 338.93c-1.55-4.45-.99-7.48 1.67-11.16 4.47-6.18 8.52-12.94 11.24-20.03 5.63-14.69 10.66-29.54 17.64-43.76 3.6-7.32 4.51-16.07 6.02-24.29 1.87-10.17 2.39-20.42-.33-30.62-1.34-5.01-3.25-9.37-8.14-12.01-2.63-1.43-5.22-3.19-7.31-5.32-5.25-5.36-11.61-5.37-18.3-4.53-3 .38-6 .75-9.01.95-3.91.26-6.12-1.48-6.25-5.29-.21-5.76.51-11.36 4.07-16.25 2.24-3.07 4.58-6.11 6.45-9.4 5.88-10.38 14.9-18.08 22.64-26.86 5.85-6.64 8.57-14.03 7.09-22.82-.18-1.1-.37-2.23-.8-3.24-4.28-10.06-8.41-20.19-13.02-30.09-1.85-3.97-4.63-7.57-7.32-11.08-1.01-1.31-2.88-2.1-4.52-2.76-4.45-1.78-6.54-1.23-8.74 2.99-4.39 8.41-8.28 17.08-12.71 25.47-3.16 5.99-6.58 11.89-10.43 17.45-1.57 2.27-4.6 3.54-6.97 5.26-.43-.28-.86-.56-1.3-.84 1.06-4.94 1.54-10.1 3.29-14.78 3.32-8.87 6.93-17.7 11.21-26.14 6.61-13.04 10.87-26.91 15.71-40.59.48-1.35.99-2.69 1.55-4.18 6.76.77 11.57 4.37 14.98 9.77 3.39 5.38 6.37 11.03 9.51 16.57.61 1.07.98 2.32 1.75 3.24 9.45 11.32 13.56 24.95 17.12 38.87 1.91 7.47 4.21 14.83 6.29 22.25 1.61 5.72-.41 10.71-4.27 14.55-9.05 8.98-18.63 17.42-27.74 26.36-4.39 4.31-8.05 9.31-8.94 16.26 4.2 1.1 8.4 2.09 12.52 3.34 2.21.67 4.43 1.56 6.38 2.78 9.19 5.76 18.3 11.66 27.42 17.53 3.86 2.49 5.7 6.05 5.83 10.67.66 22.73-4.64 44.37-12.36 65.47-1.97 5.37-5.33 10.24-8.07 15.33-5.03 9.33-10.23 18.57-15.06 28-3.8 7.42-7.78 14.62-14.44 19.92-1.28 1.01-2.71 1.88-4.35 3.01z"/><path d="m165.77 374.22c2.3-12.33 6.46-23.37 16.92-30.9.62-.44 2.12-.56 2.57-.15 1.14 1.06 2.87 2.7 2.66 3.77-.53 2.73-1.56 5.59-3.17 7.84-2.9 4.06-6.51 7.6-9.56 11.56-2.55 3.33-5.42 6.09-9.42 7.88z"/></g></svg>