<svg enable-background="new 0 0 400 400" viewBox="0 0 400 400" xmlns="http://www.w3.org/2000/svg"><path d="m232.84 374.97c-3.41-5.34-4.54-10.86-5.15-16.34-1.22-10.89-2.36-21.82-2.64-32.76-.17-6.74 1.43-13.5 2.01-20.28.21-2.39.2-4.97-.46-7.24-1.21-4.19-3.75-5.36-8.02-4.93-10.2 1.03-20.33 4.01-30.65 2.15-6.99-1.26-14.02-2.89-20.65-5.37-6.72-2.51-11.04-7.88-12.44-15.13-.18-.95.46-2.55 1.24-3.11 5.43-3.81 11.66-5.77 18.15-6.38 12.14-1.14 24.28-1.97 35.92-6.13 2.69-.96 5.71-1.28 8.59-1.33 5.28-.09 9.86-6.19 8.54-11.27-1.28-4.92-1.94-10.17-1.82-15.25.16-7.3-.87-14.19-3.7-20.9-1.43-3.39-2.78-6.87-3.64-10.44-1.37-5.74-5.62-7.82-10.59-7.92-4.12-.09-8.51.69-12.35 2.19-6.33 2.47-12.34 5.77-18.42 8.84-1.57.79-2.97 1.96-4.36 3.07-16.42 13.01-34 23.9-54.34 29.74-2.13.61-4.4.89-6.62 1-6.59.33-10.58-2.49-13.08-9.01-1.9-4.96-.07-12.15 3.93-15.57 6.8-5.82 13.82-11.42 20.27-17.61 2.88-2.77 4.51-6.82 6.87-10.18 1.06-1.5 2.33-3 3.83-4.02 4.8-3.29 9.6-6.61 14.66-9.44 8.28-4.62 14.83-10.85 20.21-18.65 2.35-3.42 5.8-6.16 9.02-8.88 10.58-8.91 20.09-18.84 28.46-29.82 10.44-13.7 11.97-29 7.43-45.21-1.04-3.7-9.66-8.83-14.17-8.69-3.85.12-6.72 1.29-9.33 4.64-8.3 10.68-16.3 21.78-25.89 31.21-16.07 15.79-33.77 29.72-55.03 38.27-3.6 1.45-7.37 2.49-11.34 3.82-1.1-2.74-2.26-5.16-2.97-7.7-.25-.88.38-2.29 1.05-3.1 17.05-20.75 34.16-41.46 51.26-62.17 2.06-2.5 4.1-5.01 6.42-7.84-7.2-3.03-14.49-4.14-21.74-2.45-16.96 3.97-28.89-4.13-39.59-15.59-3.02-3.24-3.13-7.49-1.64-11.02.71-1.68 4.45-3.1 6.71-2.95 11.38.77 22.7 2.32 34.07 3.17 10.02.75 20.09 1.02 30.14 1.36 13.74.47 27.47.44 40.83 4.68 18.24 5.79 32.49 16.03 40.73 33.84 6.3 13.64 5.43 26.41-1.73 39.74-11.14 20.74-27.66 36.98-43 54.27-.73.82-1.44 1.66-2.47 2.85 3.47 1.01 6.64 1.9 9.78 2.86 5.88 1.79 11.69 3.84 17.63 5.4 10.74 2.82 17.12 10.22 22.1 19.58 4.19 7.86 4.82 16.43 6.05 24.91 1.25 8.63 2.51 17.27 3.55 25.92.33 2.72 1.57 4.05 4.03 4.97 7.88 2.93 15.82 2.25 23.83.85 4.72-.83 9.42-2.06 14.18-2.33 6.28-.36 9.01 2.67 9.07 8.91.05 6.29-.35 6.82-6.29 8.51-9.46 2.68-18.96 5.21-28.36 8.1-5.81 1.79-11.24 4.57-15.38 9.19-1.06 1.19-1.82 3.08-1.87 4.67-.2 6.82-.02 13.65-.1 20.48-.21 17.23-3.6 34-8.2 50.49-1.28 4.58-4.32 8.75-7 12.81-1.18 1.83-3.48 2.91-5.53 4.52z" fill="#010104"/><g fill="#fcfbfa"><path d="m385.2 377.6.6-.7c.6.4 1.3.9 1.9 1.5l-.6.7c-.8-.5-1.4-1-1.9-1.5zm.3 7.1c.6-1.4 1.1-2.9 1.5-4.5.3.1.6.3.9.4-.5 1.4-1 2.9-1.5 4.4zm.2-10.1.6-.6c.7.5 1.3 1.1 1.9 1.6l-.7.7c-.6-.6-1.2-1.2-1.8-1.7zm8.4-.8h.8v.9h1.8v.7h-1.8v1.8h-.8v-.3h-1.2v.9h3.3v2.6h-.8v-.4h-2.5c0 .3 0 .6-.1.8h3.4v.7h-3.5c0 .3-.1.6-.1.8h4v.7h-3.5c.7.9 1.9 1.3 3.6 1.5-.2.2-.4.5-.6.9-1.9-.3-3.2-1.1-3.8-2.3-.5 1.1-1.8 2-3.9 2.4-.2-.3-.4-.5-.6-.8 1.9-.4 3.1-.9 3.6-1.7h-3.2v-.7h3.5c.1-.2.1-.5.2-.8h-3.3v-.7h3.4c0-.2 0-.5 0-.8h-2.4v.3h-.8v-2.6h3.3v-.9h-1.2v.3h-.8v-1.8h-1.8v-.7h1.8v-.9h.8v.9h3.2zm-4.4 5.5h2.4c0-.3 0-.6 0-.9h-2.4zm1.2-3.1h3.2v-.8h-3.2zm4.4 2.2h-2.4v.9h2.5v-.9z"/><path d="m389.2 385.8h.9v1.5h1.9v-1.5h.9v1.5h2.7v6h1.1v.9h-11.3v-.9h1.1v-6h2.7zm.2 8.7.5.8c-1.2.6-2.5 1.3-4 1.9-.2-.3-.3-.6-.6-.8 1.6-.6 3-1.3 4.1-1.9zm-2-4.3h1.9v-2.1h-1.9zm0 3.1h1.9v-2.2h-1.9zm2.7-3.1h1.9v-2.1h-1.9zm0 3.1h1.9v-2.2h-1.9zm2.4 1.3c1.4.6 2.7 1.2 4.1 1.8l-.5.9c-1.5-.7-2.8-1.4-4.1-1.9zm2.2-6.5h-1.9v2.1h1.9zm-1.9 5.2h1.9v-2.2h-1.9z"/></g></svg>