<svg enable-background="new 0 0 400 400" viewBox="0 0 400 400" xmlns="http://www.w3.org/2000/svg"><path d="m138.33 286.74c10.7-1.51 21.23-2.82 31.7-4.54 9.36-1.54 18.92-2.66 27.9-5.51 15.02-4.78 15.93-9.16 14.33-22.43-.67-5.53-.69-11.14-.97-16.71-.07-1.32-.01-2.64-.01-4.5-2.15.52-3.98.66-5.51 1.4-5.12 2.45-10.26 4.9-15.16 7.75-6.52 3.79-13.52 6.14-20.93 6.59-10.13.62-20.3.47-30.45.75-5.21.14-8.05-2.97-10.45-6.99-5.99-10.04-7.62-21.06-7.74-32.52-.13-12 5.46-20.92 13.86-28.87 10.32-9.78 22.41-17.03 34.03-24.99 3.88-2.65 7.73-5.36 11.75-7.78 6.22-3.74 11.4-8.39 15.58-14.42 2.71-3.9 6.56-7 9.76-10.58 4.85-5.43 6.57-11.84 5.38-18.99-.17-1.02-.58-2.22-1.29-2.9-7.78-7.51-16.54-13.36-27.53-14.9-1.2-.17-2.91.59-3.8 1.5-1.87 1.9-3.53 4.07-4.96 6.33-9.13 14.52-23.11 22.31-38.6 28.06-9.2 3.41-18.56 5.89-28.48 5.2-1.42-.1-3.73-.88-3.96-1.77-.58-2.28-2.03-4.83 1.47-6.87 17.07-9.99 30.96-23.86 44.87-37.64 5.3-5.25 4.76-9.75-.01-15.51-8.17-9.88-13.85-21.09-15.93-33.88-.33-2.02-.05-4.14-.05-6.21.32-.21.64-.42.96-.63 3.48 2.7 7.73 4.82 10.3 8.21 13.25 17.5 31.2 28.52 50.4 38.05 11.86 5.89 23.24 12.67 32.86 21.85 8.21 7.83 13.54 17.22 11.96 29.25-.49 3.75-1.67 7.05-4.64 9.71-2.91 2.6-5.64 5.45-8.17 8.43-6.76 7.96-14.63 14.29-24.42 18.25-2.72 1.1-5 3.34-7.39 5.17-10.66 8.17-21.59 16.02-31.81 24.71-6.34 5.39-11.83 11.87-17.19 18.28-3.57 4.28-4.53 9.72-3.27 15.24.29 1.28 1.4 2.77 2.55 3.4 9.41 5.21 19.43 5.37 29.66 3.16 8.8-1.9 16.56-5.55 23.09-12.08 6.33-6.32 13.22-12.07 19.98-17.95 3.77-3.28 6.62-7.21 7.43-12.04 1.19-7.04 5.62-9.94 12-11.17 6.01-1.15 10.36 2.86 9.17 9.08-.64 3.34-2.09 6.58-3.47 9.73-2.95 6.73-7.11 13.12-8.96 20.12-3.69 13.94-5.98 28.24-4.82 42.81.35 4.45 1.04 5.16 5.47 4.64 8.23-.97 16.29-2.64 23.46-7.27 6.75-4.35 14.09-7.34 22.17-8.05 4.89-.43 7.18 2.6 4.34 6.5-3 4.12-6.89 8.09-11.26 10.63-8.38 4.87-17.4 8.62-26.09 12.95-5.5 2.74-10.98 5.55-16.27 8.67-1.22.72-2.06 2.81-2.28 4.38-1.15 8.26.68 16.25 2.77 24.17 1.14 4.32 2.68 8.53 3.85 12.84 4.64 17.06 17.98 26.11 32.06 34.14 3.89 2.22 9.07 2.13 13.62 3.27 2.67.67 5.55 1.21 7.82 2.63 3.43 2.15 2.96 4.88-.7 6.48-7.77 3.4-15.57 2.23-23.3-.03-8.25-2.41-16.03-5.69-21.33-13.01-.52-.72-1.16-1.37-1.84-1.96-9.35-8.07-16.1-18-19.97-29.64-2.67-8.02-4.31-16.38-6.5-24.57-.95-3.55-2.1-7.05-3.23-10.55-.61-1.9-1.69-2.51-3.81-1.8-12.82 4.27-25.63 8.62-38.59 12.43-3.09.91-7.13.82-10.07-.4-6.36-2.62-12.35-6.16-18.36-9.56-2.51-1.43-3.32-4.05-2.98-7.54z" fill="#010104"/><g fill="#fcfbfa"><path d="m385.2 377.6.6-.7c.6.4 1.3.9 1.9 1.5l-.6.7c-.8-.5-1.4-1-1.9-1.5zm.3 7.1c.6-1.4 1.1-2.9 1.5-4.5.3.1.6.3.9.4-.5 1.4-1 2.9-1.5 4.4zm.2-10.1.6-.6c.7.5 1.3 1.1 1.9 1.6l-.7.7c-.6-.6-1.2-1.2-1.8-1.7zm8.4-.8h.8v.9h1.8v.7h-1.8v1.8h-.8v-.3h-1.2v.9h3.3v2.6h-.8v-.4h-2.5c0 .3 0 .6-.1.8h3.4v.7h-3.5c0 .3-.1.6-.1.8h4v.7h-3.5c.7.9 1.9 1.3 3.6 1.5-.2.2-.4.5-.6.9-1.9-.3-3.2-1.1-3.8-2.3-.5 1.1-1.8 2-3.9 2.4-.2-.3-.4-.5-.6-.8 1.9-.4 3.1-.9 3.6-1.7h-3.2v-.7h3.5c.1-.2.1-.5.2-.8h-3.3v-.7h3.4c0-.2 0-.5 0-.8h-2.4v.3h-.8v-2.6h3.3v-.9h-1.2v.3h-.8v-1.8h-1.8v-.7h1.8v-.9h.8v.9h3.2zm-4.4 5.5h2.4c0-.3 0-.6 0-.9h-2.4zm1.2-3.1h3.2v-.8h-3.2zm4.4 2.2h-2.4v.9h2.5v-.9z"/><path d="m389.2 385.8h.9v1.5h1.9v-1.5h.9v1.5h2.7v6h1.1v.9h-11.3v-.9h1.1v-6h2.7zm.2 8.7.5.8c-1.2.6-2.5 1.3-4 1.9-.2-.3-.3-.6-.6-.8 1.6-.6 3-1.3 4.1-1.9zm-2-4.3h1.9v-2.1h-1.9zm0 3.1h1.9v-2.2h-1.9zm2.7-3.1h1.9v-2.1h-1.9zm0 3.1h1.9v-2.2h-1.9zm2.4 1.3c1.4.6 2.7 1.2 4.1 1.8l-.5.9c-1.5-.7-2.8-1.4-4.1-1.9zm2.2-6.5h-1.9v2.1h1.9zm-1.9 5.2h1.9v-2.2h-1.9z"/></g></svg>