<svg enable-background="new 0 0 400 400" viewBox="0 0 400 400" xmlns="http://www.w3.org/2000/svg"><path d="m236.93 148.82c-9.66 2.73-19.8 3.73-27.88 8.34-10.06 5.74-21.74 7.33-31.27 14.11-2.69 1.91-7.42 1.93-11.02 1.41-9.56-1.38-18.62-3.96-22.95-14.23-3.55-8.42-1.31-18.35 5.66-24.27 10.31-8.77 20.77-17.4 30.66-26.63 8.53-7.96 12.29-18.19 11.34-29.99-.27-3.33-2.73-3.91-5.19-4.8-2.52-.91-4.2-.65-5.79 1.87-3.28 5.21-7.97 9.01-13.43 11.85-8.62 4.5-17.14 9.08-24.57 15.56-2.66 2.32-6.65 3.11-10.8 4.94.51-5.32.71-9.27 3.78-12.6 7.8-8.47 15.4-17.12 23.13-25.65 4.27-4.71 7.94-9.69 8.42-16.35.16-2.17-.33-3.84-2.25-5.17-4.13-2.88-8.15-5.9-12.18-8.92-4.15-3.1-6.97-6.91-6.3-12.72 4.43-.23 8.52 1 12.05 3.26 7.03 4.51 14.59 7.36 22.6 9.71 7.28 2.15 12.67 7.89 17.56 13.61 7.03 8.23 12.31 17.55 15.83 27.82.25.74.8 1.59.62 2.23-1.7 6.19-3.07 12.53-5.49 18.44-1.58 3.83-5 6.86-7.17 10.49-5.69 9.51-14.03 16.13-23.23 21.83-6.89 4.27-13.34 9.02-18.33 15.52-.41.53-.82 1.06-1.18 1.62-.1.16-.05.42-.13 1.43 3.42 0 6.92.62 10.1-.14 5.4-1.28 10.83-2.95 15.84-5.31 15.51-7.29 31.95-10.63 48.83-12.3 4.22-.42 8.49-.82 12.71-.67 9.23.31 14.3 5.47 14.2 14.68-.04 4.19-1.01 8.4-1.86 12.54-.26 1.29-1.34 2.53-2.31 3.53-15.58 15.93-34.44 26.47-55.33 33.73-7.63 2.65-15.14 5.6-20.41 12.23-.27.34-.5.71-.93 1.33 8.11 5.9 8.74 14.76 9.68 23.63.83 7.87 1.58 15.83 3.43 23.5 2.67 11.06 2.32 22.01.24 32.94-2.52 13.28-5.08 26.59-8.59 39.63-3.1 11.5-7.42 22.69-11.46 33.93-1.46 4.07-3.45 8.03-7.9 10.18-2.69-2.67-3.06-6.21-1.85-9.03 4-9.28 4.37-19.12 5.28-28.88 1.73-18.49 3.67-36.97 4.7-55.5.47-8.5-.95-17.11-1.68-25.66-.36-4.23-1.23-8.41-1.62-12.64-1-10.87-3.85-21.04-10.48-29.95-.58-.78-.34-2.38-.1-3.52.21-1.06 1.33-2 1.35-3.02.15-6.4 4.91-9.35 9.16-12.75 10.83-8.68 23.39-14.38 35.57-20.75 8.31-4.35 16.61-8.74 24.75-13.39 3.83-2.17 6.27-5.6 6.19-11.05z" fill="#010104"/><g fill="#fcfbfa"><path d="m385.2 377.6.6-.7c.6.4 1.3.9 1.9 1.5l-.6.7c-.8-.5-1.4-1-1.9-1.5zm.3 7.1c.6-1.4 1.1-2.9 1.5-4.5.3.1.6.3.9.4-.5 1.4-1 2.9-1.5 4.4zm.2-10.1.6-.6c.7.5 1.3 1.1 1.9 1.6l-.7.7c-.6-.6-1.2-1.2-1.8-1.7zm8.4-.8h.8v.9h1.8v.7h-1.8v1.8h-.8v-.3h-1.2v.9h3.3v2.6h-.8v-.4h-2.5c0 .3 0 .6-.1.8h3.4v.7h-3.5c0 .3-.1.6-.1.8h4v.7h-3.5c.7.9 1.9 1.3 3.6 1.5-.2.2-.4.5-.6.9-1.9-.3-3.2-1.1-3.8-2.3-.5 1.1-1.8 2-3.9 2.4-.2-.3-.4-.5-.6-.8 1.9-.4 3.1-.9 3.6-1.7h-3.2v-.7h3.5c.1-.2.1-.5.2-.8h-3.3v-.7h3.4c0-.2 0-.5 0-.8h-2.4v.3h-.8v-2.6h3.3v-.9h-1.2v.3h-.8v-1.8h-1.8v-.7h1.8v-.9h.8v.9h3.2zm-4.4 5.5h2.4c0-.3 0-.6 0-.9h-2.4zm1.2-3.1h3.2v-.8h-3.2zm4.4 2.2h-2.4v.9h2.5v-.9z"/><path d="m389.2 385.8h.9v1.5h1.9v-1.5h.9v1.5h2.7v6h1.1v.9h-11.3v-.9h1.1v-6h2.7zm.2 8.7.5.8c-1.2.6-2.5 1.3-4 1.9-.2-.3-.3-.6-.6-.8 1.6-.6 3-1.3 4.1-1.9zm-2-4.3h1.9v-2.1h-1.9zm0 3.1h1.9v-2.2h-1.9zm2.7-3.1h1.9v-2.1h-1.9zm0 3.1h1.9v-2.2h-1.9zm2.4 1.3c1.4.6 2.7 1.2 4.1 1.8l-.5.9c-1.5-.7-2.8-1.4-4.1-1.9zm2.2-6.5h-1.9v2.1h1.9zm-1.9 5.2h1.9v-2.2h-1.9z"/></g></svg>