<svg enable-background="new 0 0 400 400" viewBox="0 0 400 400" xmlns="http://www.w3.org/2000/svg"><path d="m174.14 58.28c-1.39 5.44-3.56 9.77 1.58 14.51 5.86 5.4 10.82 11.95 15.39 18.54 7.98 11.52 15.38 23.46 23 35.24.85 1.31 1.41 2.81 2.31 4.08 5.17 7.27 8.67 15.26 11.26 23.8 1.34 4.42 1.47 8.63 1.29 13.14-.32 8.33-2.11 15.95-6.56 23.19-4.58 7.46-7 15.93-7.62 24.69-.46 6.55.93 12.76 4.81 18.4 3.41 4.96 6.27 10.3 9.28 15.53 3.46 6.02 3.96 12.41 2.49 19.15-1.11 5.08-2.86 9.71-5.86 14.07-3.33 4.83-5.68 10.32-8.87 15.26-6.14 9.5-12.59 18.8-18.86 28.22-4.23 6.36-9.25 12.12-12.52 19.22-2.72 5.91-6.75 11.24-10.37 16.71-1.81 2.74-1.85 5.38-.45 8.17.84 1.67.77 2.98-1.11 3.85-1.81.83-3.79 1.67-4.77-.83-1.2-3.07-2.66-6.27-2.84-9.47-.71-12.84-.88-25.71-1.43-38.56-.44-10.28-1.28-20.55-1.71-30.84-.46-11.03-.65-22.08-.94-33.12-.02-.67.05-1.34.16-2.01.64-4.06.63-8.04.37-12.21-.63-10.24-.17-20.55-.13-30.83.04-9.85.11-19.69.13-29.54.06-32.57-.34-65.15.33-97.7.31-15.28 2.59-30.53 4.13-45.78.5-4.97 1.37-9.9 2.34-14.8.2-1.04 1.59-1.84 2.42-2.75.92.92 2.46 1.73 2.64 2.77.6 3.61 1.06 7.31.95 10.95-.13 4.51 1.35 7.09 5.3 9.95 7.07 5.11 14.83 8.02 22.85 10.78 2.49.86 4.94 2.26 6.93 3.97 1.1.94 1.21 3.03 1.77 4.6-1.52.29-3.26 1.21-4.54.78-6.96-2.4-13.76-5.27-20.71-7.7-3.98-1.42-8.15-2.28-12.44-3.43zm-3.96 30.87c.27 1.99.8 3.93.76 5.85-.38 15.2-.97 30.39-1.3 45.6-.19 8.5-.05 17 .03 25.51.02 1.98.58 3.96.59 5.94 0 2.22-.5 4.43-.5 6.65 0 1.88.59 3.77.57 5.65-.13 10.41-.01 20.83-.69 31.21-.68 10.44 1.51 20.83.12 31.24-.1.75.27 1.54.29 2.32.12 4.91.83 9.91.12 14.7-.67 4.48-1.6 8.7.14 13.09.28.72-.18 1.72-.26 2.59-.14 1.53-.39 3.08-.34 4.6.17 5.01.39 10.02.73 15.02.18 2.64.71 5.26.98 7.91.57 5.55 1.34 11.1 1.52 16.67.2 6.44-.17 12.91-.23 19.36-.01 1.14.3 2.27.55 4.04.98-1.53 1.57-2.44 2.16-3.36 8.28-13.01 16.5-26.06 24.84-39.03 6.22-9.68 12.81-19.13 18.83-28.93 6.35-10.33 5.55-20.13-1.65-29.86-5.52-7.46-9.77-15.49-10.45-24.98-.98-13.65 1.11-26.45 9.58-37.79 1.75-2.35 2.58-5.66 3.03-8.65.56-3.73.49-7.6.29-11.39-.17-3.06-.51-6.24-1.51-9.11-4.24-12.26-11.19-23.12-18.48-33.72-8.51-12.38-17.31-24.55-26.03-36.78-.36-.5-1.22-.65-1.68-.89-.74 2.44-1.41 4.61-2.01 6.54z" fill="#010102"/><g fill="#fafbfa"><path d="m6.4 11.7c-1-.8-1.9-1.6-2.9-2.3l.6-.7c.9.7 1.9 1.4 2.9 2.2zm-2.1 8.3c.7-2.1 1.4-4.2 2-6.4.2.1.6.3 1 .4-.7 2.3-1.3 4.4-1.9 6.4zm3-12.8c-1.1-.9-2.1-1.7-2.9-2.4l.6-.7c1 .8 2 1.5 3 2.4zm1.4-1.3v-.9h10.2v.9c-.9 4.2-2.3 7.3-4.1 9.4 1.3 1.4 3.2 2.7 5.7 4-.2.2-.4.5-.7.9-2.5-1.4-4.4-2.7-5.7-4.2-1.4 1.5-3.5 3-6.1 4.4 0 0 0 0-.1-.1-.3-.4-.5-.7-.7-.8 2.7-1.3 4.7-2.8 6.2-4.2-1.8-2.2-3-5.3-3.7-9.4zm9.2 0h-7.1c.6 3.8 1.7 6.7 3.4 8.7 1.7-2 2.9-4.8 3.7-8.7z"/><path d="m31.6 3.6h.9v2.3h4.1v9.1h1.7v.9h-16.6v-.9h1.7v-9.1h4.1v-2.3h.9v2.3h3.1v-2.3zm-4 13.3.6.8c-1.9.9-3.8 1.9-5.8 2.8-.2-.3-.3-.6-.5-.9 2-.9 3.9-1.8 5.7-2.7zm-3.2-10.1v3.7h3.1v-3.7zm0 4.5v3.7h3.1v-3.7zm4.1-4.5v3.7h3.1v-3.7zm0 4.5v3.7h3.1v-3.7zm9.1 9.1c-2.1-1.1-4.1-2-5.8-2.7l.5-.8c2.2.9 4.1 1.8 5.8 2.6zm-1.9-13.6h-3.1v3.7h3.1zm-3.2 4.5v3.7h3.1v-3.7z"/></g></svg>