<svg enable-background="new 0 0 400 400" viewBox="0 0 400 400" xmlns="http://www.w3.org/2000/svg"><path d="m153.91 126.58c-1.67-5.27-1.19-9.51 2.23-13.96 7.89-10.29 15.12-21.08 22.69-31.62 2.74-3.81 5.97-7.28 8.44-11.25 1.47-2.36 2.14-5.31 2.7-8.09.53-2.64-.72-4.73-2.58-6.85-4.13-4.68-8.06-9.59-11.56-14.75-2.81-4.14-3.75-9-2.85-14.67 6.17 2.92 12.08 5.66 17.92 8.53.67.33 1.05 1.39 1.43 2.18 1.51 3.12 2.8 6.35 4.47 9.37 1.92 3.48 4.16 6.78 6.27 10.15.83 1.32 1.9 2.54 2.52 3.95 4.44 10.12 8.92 20.23 13.15 30.44 5.21 12.56 4.52 25.85 4.41 39.04-.01 1.19-.93 2.44-1.61 3.56-7.39 12.21-16.73 22.92-26.12 33.58-5.76 6.55-8.5 14.11-7.62 22.83.12 1.15.83 2.55 1.72 3.27 5.75 4.63 11.6 9.14 17.47 13.62 1.05.8 2.33 1.3 3.49 1.95 7.48 4.23 15.18 8.12 22.37 12.8 10.41 6.77 11.55 19.77 3.82 29.49-8.42 10.59-18.87 18.69-29.73 26.42-6.43 4.58-12.07 9.84-13.27 18.12-.36 2.47-.01 5.39 1.02 7.65 4.38 9.66 9.72 18.91 13.6 28.76 4.13 10.5 6.97 21.52 5.74 33.04-.29 2.73-1.07 5.53-2.28 7.98-.65 1.32-2.62 2.46-4.14 2.69-.77.12-2.46-1.85-2.72-3.08-.8-3.91-1.8-7.96-1.51-11.87.98-13.18-3.56-24.03-12.47-33.48-2.97-3.15-5.5-6.75-7.98-10.32-4.13-5.95-4.02-12.53-2.41-19.26.36-1.52.65-3.08.7-4.64.2-5.85 1.87-10.62 8.18-12.49.87-.26 1.6-1.19 2.26-1.92 10.15-11.18 20.33-22.35 30.36-33.64 1.03-1.16 1.2-3.11 1.63-4.73.16-.61-.22-1.36-.1-1.99 1.3-6.93-3.18-9.68-8.55-11.4-5.73-1.84-11.61-3.2-17.42-4.78-14.38-3.94-26.82-27.12-21.8-43.26 1.96-6.29 6.31-12.02 10.35-17.42 5.08-6.77 11.35-12.65 16.43-19.42 8.5-11.35 10.44-24.25 6.98-37.9-1.37-5.4-3.07-10.74-4.93-15.99-2.39-6.75-6.29-7.62-11.48-2.86-8.38 7.69-15.56 16.33-21.39 26.12-2.16 3.63-4.64 7.12-7.36 10.36-2.61 3.11-6.08 5.17-10.47 5.74z" fill="#010102"/><g fill="#fafbfa"><path d="m6.4 11.7c-1-.8-1.9-1.6-2.9-2.3l.6-.7c.9.7 1.9 1.4 2.9 2.2zm-2.1 8.3c.7-2.1 1.4-4.2 2-6.4.2.1.6.3 1 .4-.7 2.3-1.3 4.4-1.9 6.4zm3-12.8c-1.1-.9-2.1-1.7-2.9-2.4l.6-.7c1 .8 2 1.5 3 2.4zm1.4-1.3v-.9h10.2v.9c-.9 4.2-2.3 7.3-4.1 9.4 1.3 1.4 3.2 2.7 5.7 4-.2.2-.4.5-.7.9-2.5-1.4-4.4-2.7-5.7-4.2-1.4 1.5-3.5 3-6.1 4.4 0 0 0 0-.1-.1-.3-.4-.5-.7-.7-.8 2.7-1.3 4.7-2.8 6.2-4.2-1.8-2.2-3-5.3-3.7-9.4zm9.2 0h-7.1c.6 3.8 1.7 6.7 3.4 8.7 1.7-2 2.9-4.8 3.7-8.7z"/><path d="m31.6 3.6h.9v2.3h4.1v9.1h1.7v.9h-16.6v-.9h1.7v-9.1h4.1v-2.3h.9v2.3h3.1v-2.3zm-4 13.3.6.8c-1.9.9-3.8 1.9-5.8 2.8-.2-.3-.3-.6-.5-.9 2-.9 3.9-1.8 5.7-2.7zm-3.2-10.1v3.7h3.1v-3.7zm0 4.5v3.7h3.1v-3.7zm4.1-4.5v3.7h3.1v-3.7zm0 4.5v3.7h3.1v-3.7zm9.1 9.1c-2.1-1.1-4.1-2-5.8-2.7l.5-.8c2.2.9 4.1 1.8 5.8 2.6zm-1.9-13.6h-3.1v3.7h3.1zm-3.2 4.5v3.7h3.1v-3.7z"/></g></svg>