<svg enable-background="new 0 0 400 400" viewBox="0 0 400 400" xmlns="http://www.w3.org/2000/svg"><path d="m149.94 374.41c-5.38-8.39-8.98-17.61-8.91-27.61.06-8.99 1.54-17.98 2.48-26.96.77-7.43 2.29-14.85 2.38-22.29.18-15.56 4.78-29.89 10.61-44.03 3.45-8.36 6.57-16.86 9.92-25.27.61-1.54 1.44-3.03 2.4-4.37 5.64-7.93 11.34-15.81 17.17-23.9-8.93-10.31-20.45-19-21.84-34.92 1.67 1.19 2.74 1.92 3.77 2.7 9.46 7.21 19.4 13.58 30.48 18.08 3.56 1.45 6.6 1.43 9.4-1.54 1.21-1.29 2.74-2.31 4.24-3.29 10.37-6.8 18.85-15.3 24.22-26.65.32-.67.87-1.24 1.37-1.93 4.49 1.99 6.83 5.24 6.7 9.99-.18 6.8-2.11 12.88-7.1 17.9-7.25 7.3-14.26 14.84-21.53 22.46.63.73 1.15 1.42 1.75 2.03 1.02 1.04 2.04 2.08 3.14 3.03 11.14 9.61 20.39 20.55 27.82 33.46 7.36 12.79 13.19 26.02 17.99 39.91 3.82 11.06 8.73 21.75 13.04 32.64.71 1.8 1.38 3.88 1.17 5.72-1.23 10.84-.26 21.31 3.75 31.56 2.02 5.18 3.25 10.66 4.89 16.18-1.02.73-2.01 1.42-2.98 2.14-5.64 4.2-7.62 3.88-11.66-1.8-3.83-5.39-5.64-11.26-5.24-17.96.53-8.82-1.27-17.31-4.16-25.65-6.77-19.55-13.53-39.09-23.72-57.2-2.84-5.06-6.18-9.84-9.37-14.7-5.4-8.22-10.9-16.38-16.29-24.61-2.32-3.54-4.84-6.78-9.18-7.87-4.57-1.15-8.39-.7-12.03 3.22-13.37 14.43-19.76 31.94-23.52 50.74-.75 3.73-1.12 7.56-2.25 11.17-1.15 3.68-3.09 7.1-4.53 10.7-.64 1.61-1.25 3.36-1.28 5.05-.14 7.5.04 15-.13 22.5-.04 1.9-.61 3.94-1.49 5.64-1.89 3.67-3.99 7.26-6.27 10.7-1.38 2.08-1.65 4.05-.78 6.28 1.58 4.06 3.06 8.16 4.82 12.14 3.94 8.99.73 14.95-9.25 16.61z" fill="#010100"/><path d="m118.34 131.28c2.06-19.66 12.98-34.52 24.41-48.98-12.71-13.06-29.33-21.44-37.63-38.01 7.45-6.84 11.76-5.74 18.07-2.84 14.28 6.56 28.93 12.33 43.44 18.38 2.31.96 4.43.52 6.62-.83 4.65-2.88 9.73-5.13 14.17-8.3 5.88-4.2 11.44-8.87 16.89-13.62 7.29-6.35 15.57-10.37 25.1-11.87 4.02-.63 7.81-.02 11.24 2.2 3.26 2.1 4.97 7.01 3.47 10.37-.42.95-1.71 1.63-2.74 2.18-17.16 9.13-34.22 18.48-51.61 27.17-5.17 2.58-6.96 5.88-6.47 11.66 2.38.41 5.04.58 7.52 1.36 3.78 1.18 7.91 2.11 11.04 4.34 8.39 5.96 14.95 13.76 19.83 22.86 1.04 1.94 1.79 4.12 2.24 6.28.97 4.64-1.14 7.56-5.92 7.31-5.16-.27-10.15-1.15-14.68-4.55-8.74-6.57-17.87-12.65-27.02-18.64-5.27-3.45-10.88-4.7-17.45-2.86-4.84 1.36-8.2 3.4-10.96 7.62-5.82 8.88-12.26 17.35-18.24 26.13-1.82 2.68-3.57 4.33-7 3.22-1.44-.46-3.04-.42-4.32-.58z" fill="#010100"/><g fill="#fcfbfa"><path d="m377.9 391.2c-.2.3-.4.5-.6.8-.7-.6-1.4-1-2.2-1.5.2-.3.4-.5.5-.8.6.4 1.4.8 2.3 1.5zm-1.8 6.1c-.2-.2-.5-.4-.9-.6.4-.6.8-1.2 1.2-1.9s.7-1.3.9-1.9c.3.3.5.5.8.7-.7 1.3-1.4 2.6-2 3.7zm2.2-9c-.3.3-.5.5-.6.8-.6-.6-1.3-1.1-2-1.5.3-.3.5-.5.6-.7.6.5 1.3.9 2 1.4zm.3.2v-.9h2 4.5c-.3 1.3-.6 2.5-1 3.6s-.9 2.1-1.4 3c.4.5 1 1 1.6 1.4s1.2.8 1.9 1.1c-.3.2-.5.4-.8.8-.4-.3-1-.7-1.6-1.2s-1.2-1.1-1.6-1.6c-.5.6-1.1 1.1-1.7 1.6s-1.4.9-2.1 1.4c-.1-.3-.3-.5-.7-.8.6-.2 1.2-.5 1.9-1s1.4-1.1 2-1.8c-.5-.8-.9-1.6-1.2-2.5s-.6-2-.8-3.2c-.4.1-.7.1-1 .1zm2.5 2.7c.3 1 .7 1.7 1 2.2.3-.5.6-1.1 1-2s.6-1.9.9-3h-3.2-.4c.1.9.3 1.8.7 2.8z"/><path d="m396.5 388.5v1.5 3.6h1.5v.9c-.4 0-1 0-1.7 0h-7.9c-.5 0-.9 0-1.2 0v-.9h1.3v-3.5c0-.7 0-1.2 0-1.6h2.4c0-.8 0-1.4 0-1.7h1c0 .3-.1.8-.1 1.7h1.5c0-.8 0-1.4 0-1.7h1c0 .3-.1.9-.1 1.7zm-8.2 9.2c-.2-.3-.5-.5-.8-.8.8-.3 1.4-.6 1.9-.9s1-.7 1.4-1.1c.3.3.6.5.9.8-1.6 1-2.8 1.6-3.4 2zm2.6-6.8v-1.6h-1.5v1.6zm0 2.7v-1.9h-1.5v1.9zm2.4-2.7v-1.6h-1.5v1.6zm0 2.7v-1.9h-1.5v1.9zm.2 2 .7-.8c.4.2.9.5 1.6.8s1.3.7 1.8 1c-.3.3-.5.5-.8.8-.4-.3-1.5-1-3.3-1.8zm2-4.7v-1.6h-1.4v1.6zm0 2.7v-1.9h-1.4v1.9z"/></g></svg>