<svg enable-background="new 0 0 400 400" viewBox="0 0 400 400" xmlns="http://www.w3.org/2000/svg"><path d="m179 112.01c-13.99-11.47-29.39-21.18-38.94-38.09 5.7-2.83 10.82-5.49 16.05-7.9 2.17-1 3.7-.14 5.15 2.07 6.19 9.46 12.55 18.81 21.38 26.13.52.43 1.02.88 1.56 1.27 8.81 6.35 9.37 6.29 16.85-1.38 11.48-11.78 22.98-23.53 34.49-35.28.7-.72 1.51-1.33 2.3-1.96 8.12-6.46 17.35-3.84 21.01 5.95 2.02 5.38 2 5.44-2.63 8.6-6.46 4.42-12.96 8.79-19.35 13.32-1.29.91-2.64 2.3-3.08 3.74-1.63 5.34-5.35 8.85-9.51 12.18-3.22 2.57-6.49 5.2-9.15 8.31-3.54 4.15-3.22 6.08.37 10.02 3.09 3.39 6.28 6.71 9.23 10.22 5.44 6.47 11.54 12.08 18.91 16.34 16.18 9.37 29.77 22.14 43.99 34.06 6.45 5.41 13.45 9.87 20.56 14.33 6.92 4.34 12.88 10.25 19.08 15.68 2.85 2.49 5.38 5.39 7.88 8.25 2.11 2.41 4.35 4.36 7.66 4.97 1.04.19 2.08 1.19 2.8 2.09 1.18 1.48 2.21 3.11 3.11 4.78 3.49 6.51 8.89 10.76 15.56 13.66 4.78 2.08 8.29 7.37 7.51 10.86-.53 2.39-7.84 6.3-11.69 5.89-1.87-.2-3.99-.9-5.39-2.08-24.33-20.45-48.31-41.33-72.91-61.44-22.09-18.06-44.83-35.31-67.31-52.88-5.2-4.06-10.57-7.91-15.77-11.98-1.55-1.21-2.85-1.46-4.46-.27-1.96 1.45-4.16 2.62-5.96 4.23-14.26 12.76-28.58 25.46-42.59 38.48-8.1 7.53-16.21 15.19-23.32 23.63-6.54 7.76-15.04 12.56-22.97 18.3-2.35 1.71-4.73 3.41-7.23 4.88-8.32 4.88-15.33 11.09-20.68 19.2-1.05 1.59-2.87 2.83-4.59 3.79-9.24 5.11-17.13 11.7-23 20.56-3.15 4.75-8.63 4.03-13.12 5.63-.34.12-1.2-.53-1.48-1.02-2.44-4.13-4.8-8.3-7.26-12.6 9.19-8.03 18.27-15.82 27.18-23.8 17.52-15.69 35.56-30.73 54.67-44.45.9-.65 1.77-1.4 2.47-2.25 9.77-11.91 21.52-21.69 33.12-31.73 12.77-11.05 24.95-22.81 35.39-36.2 1.47-1.96 2.73-4.07 4.11-6.11z" fill="#010100"/><path d="m160.3 192.78c6.06-3.03 11.91-6.08 17.89-8.82.92-.42 2.78.17 3.69.92 7.44 6.11 14.75 12.36 22.28 18.72 8.7-7.17 16.48-16.01 29.23-16.13.47 5.76.96 10.89-4.24 15.28-5.41 4.58-9.92 10.24-14.94 15.56.92 1 1.64 1.83 2.41 2.61 4.74 4.76 9.65 9.36 14.21 14.29 8.11 8.77 17.17 16.29 27.39 22.48 2.65 1.6 5.09 3.67 7.33 5.83 10.91 10.55 23.22 19.24 35.79 27.66 5.36 3.59 10.29 7.88 15.1 12.19 4.24 3.8 6.7 8.55 5.77 14.6-.3 1.96-.05 4-.05 6.42-6.35.55-12.54 1.17-18.74 1.51-.96.05-2.12-1.06-2.96-1.86-15.62-14.92-31.05-30.05-46.87-44.75-6.45-5.99-13.58-11.31-20.71-16.51-6.85-5-12.5-11.07-18.15-17.31-3.52-3.89-8.21-6.72-12.43-9.95-1.9-1.46-3.45-1.04-5.19.72-5.11 5.18-10.58 10-15.62 15.23-4 4.16-11.27 4.57-12.9 11.37-.04.16-.34.28-.54.37-10.54 4.82-18.1 13.35-26.2 21.18-17.23 16.63-35.15 32.56-50.61 50.95-1.06 1.26-2.86 2.09-4.47 2.65-3.62 1.25-6.84 2.87-9.75 5.55-2.06 1.89-5.49 3.95-7.74 3.44-1.77-.4-3.1-4.52-3.81-7.2-.82-3.09-.84-6.41-1.03-9.64-.25-4.45.61-6.21 4.83-6.91 5.25-.87 8.78-3.93 12.4-7.32 21.24-19.9 42.38-39.91 63.92-59.47 8.5-7.72 18.15-14.17 26.91-21.62 3.83-3.26 6.97-7.44 10-11.51 2.01-2.7 1.71-5.27-1.57-7.6-4.82-3.42-9.26-7.4-13.72-11.31-3.42-2.99-5.99-6.6-6.91-11.62z" fill="#010100"/><g fill="#fcfbfa"><path d="m377.9 391.2c-.2.3-.4.5-.6.8-.7-.6-1.4-1-2.2-1.5.2-.3.4-.5.5-.8.6.4 1.4.8 2.3 1.5zm-1.8 6.1c-.2-.2-.5-.4-.9-.6.4-.6.8-1.2 1.2-1.9s.7-1.3.9-1.9c.3.3.5.5.8.7-.7 1.3-1.4 2.6-2 3.7zm2.2-9c-.3.3-.5.5-.6.8-.6-.6-1.3-1.1-2-1.5.3-.3.5-.5.6-.7.6.5 1.3.9 2 1.4zm.3.2v-.9h2 4.5c-.3 1.3-.6 2.5-1 3.6s-.9 2.1-1.4 3c.4.5 1 1 1.6 1.4s1.2.8 1.9 1.1c-.3.2-.5.4-.8.8-.4-.3-1-.7-1.6-1.2s-1.2-1.1-1.6-1.6c-.5.6-1.1 1.1-1.7 1.6s-1.4.9-2.1 1.4c-.1-.3-.3-.5-.7-.8.6-.2 1.2-.5 1.9-1s1.4-1.1 2-1.8c-.5-.8-.9-1.6-1.2-2.5s-.6-2-.8-3.2c-.4.1-.7.1-1 .1zm2.5 2.7c.3 1 .7 1.7 1 2.2.3-.5.6-1.1 1-2s.6-1.9.9-3h-3.2-.4c.1.9.3 1.8.7 2.8z"/><path d="m396.5 388.5v1.5 3.6h1.5v.9c-.4 0-1 0-1.7 0h-7.9c-.5 0-.9 0-1.2 0v-.9h1.3v-3.5c0-.7 0-1.2 0-1.6h2.4c0-.8 0-1.4 0-1.7h1c0 .3-.1.8-.1 1.7h1.5c0-.8 0-1.4 0-1.7h1c0 .3-.1.9-.1 1.7zm-8.2 9.2c-.2-.3-.5-.5-.8-.8.8-.3 1.4-.6 1.9-.9s1-.7 1.4-1.1c.3.3.6.5.9.8-1.6 1-2.8 1.6-3.4 2zm2.6-6.8v-1.6h-1.5v1.6zm0 2.7v-1.9h-1.5v1.9zm2.4-2.7v-1.6h-1.5v1.6zm0 2.7v-1.9h-1.5v1.9zm.2 2 .7-.8c.4.2.9.5 1.6.8s1.3.7 1.8 1c-.3.3-.5.5-.8.8-.4-.3-1.5-1-3.3-1.8zm2-4.7v-1.6h-1.4v1.6zm0 2.7v-1.9h-1.4v1.9z"/></g></svg>