<svg enable-background="new 0 0 400 400" viewBox="0 0 400 400" xmlns="http://www.w3.org/2000/svg"><path d="m278.7 361.97c-1.24-1.14-2.53-2.33-3.82-3.52-.25.09-.5.18-.75.28.26 1.93.51 3.86.85 6.46-1.84.77-4.38 2.18-7.11 2.9-3.66.96-6.73.52-9.84-2.77-4-4.24-9.03-7.61-13.93-10.88-5.44-3.63-10.41-7.54-14.39-12.86-7.02-9.38-15.07-17.96-20.37-28.63-1.88-3.79-5.38-6.81-8.31-10.03-3.64-4.01-10.63-2.87-13.32 1.88-8.59 15.17-17.57 30.12-26.88 44.86-3.98 6.3-8.84 12.13-13.92 17.61-2.77 3-6.75 4.95-10.37 7.04-.76.44-2.87-.2-3.48-1.01-1.68-2.19-3.07-4.66-4.25-7.17-1.66-3.55-2.12-6.5 1.31-10.12 3.22-3.4 5.32-8.31 6.7-12.92 2.9-9.71 9.19-17.28 14.61-25.43 1.66-2.5 3.77-4.79 5.01-7.48 1.64-3.55.55-5.3-3.23-5.09-10.13.57-20.26 1.34-30.36 2.38-6.44.66-12.8 2.05-19.23 2.87-5.55.71-10.98.4-15.54-3.52-1.71-1.47-3.53-9.11-2.41-10.91.42-.68 1.39-1.06 2.16-1.48 6.56-3.62 13.74-4.72 21.06-4.59 14.22.25 27.96-3.12 41.9-5.05 6.3-.88 12.66-1.31 19-1.86 4.78-.41 9.33-1.12 11.59-6.41-7.64-4.47-15.62-4.89-23.88-3.44-6.87 1.21-13.54.35-20.18-1.68-5.96-1.82-9.22-5.79-10.99-11.56-5.14-16.82-3.98-33.31 2.16-49.64 2.52-6.69 4.9-13.43 7.29-20.17 1.84-5.17 10.06-7.79 14.61-4.61.36.25.74.54 1 .89 4.66 6.28 10.47 6.29 17.62 4.54 20.91-5.11 42.3-7.35 63.74-8.58 14.45-.82 26.61 5.22 36.39 15.67 5.38 5.74 6.45 12.86 4.4 20.38-.29 1.08-1.14 2.24-2.06 2.9-6.84 4.88-11.39 11.49-15.16 18.86-.99 1.94-2.88 3.65-4.75 4.85-4.98 3.2-10.26 5.94-15.27 9.09-9.04 5.68-18.54 10.27-28.74 13.49-2.78.88-5.49 2.55-7.7 4.47-2.38 2.06-1.91 4.74 1.01 5.8 2.72.99 6.03 1.96 8.69 1.31 24.5-5.98 49.56-8.51 74.38-12.42 6.92-1.09 14.04-1.07 21.07-1.15 1.24-.01 3.05 1.73 3.64 3.08 1.12 2.55-.82 7.13-3.09 8.81-7.94 5.87-17.2 7.73-26.71 8.89-10.98 1.34-21.98 2.58-32.93 4.12-3.05.43-6.05 1.61-8.93 2.81-1.58.66-3.03 1.89-4.2 3.18-1.59 1.76-1.65 3.39.3 5.46 9.1 9.71 17.99 19.62 26.87 29.53 1.02 1.14 1.55 2.72 2.68 4.75-.19-.06.44.3 1.07.29 5.9-.03 9.08 3.72 11.43 8.39 2.01 3.98 3.66 8.14 5.56 12.17 1.13 2.4.69 4.06-2 4.97zm-63.04-142.04c10.62-2.06 21.22-4.24 31.87-6.11 3.64-.64 4.93-2.55 5.32-5.97.81-7.09-1.65-10.87-8.73-11.51-5.07-.45-10.26-.33-15.32.23-5.39.61-10.73 1.86-15.99 3.23-1.47.38-3.38 2-3.69 3.37-.72 3.22-1.04 6.67-.7 9.95.62 5.9 1.22 6.16 7.24 6.81zm-69.36 7.93c6.62 1.81 32.52-1.19 38.33-4.47.79-.45 1.65-1.31 1.88-2.14 1.05-3.75 2.23-7.51 2.72-11.35.64-5.03-2.22-7.08-7.23-5.86-5.19 1.26-10.52 3.67-15.6 3.24-8.96-.75-15.23 1.9-19.35 9.79-.15.29-.5.49-.61.79-.33.91-.84 1.85-.81 2.76.09 2.44.43 4.87.67 7.24zm5.19 18.76c-.04.41-.09.83-.13 1.24 2.23.82 4.41 1.85 6.7 2.44 8.38 2.12 16.78 2.91 24.88-.99 1.12-.54 2.6-2.51 2.34-3.3-.46-1.38-2.09-2.4-3.33-3.45-.36-.3-1.08-.17-1.63-.27-10.12-1.68-19.27 2.58-28.83 4.33zm78.82-10.58c-8.16-1.16-15.62 1.16-22.82 4.62-.4.19-.79 1.15-.65 1.56.16.46.93 1.01 1.44 1.01 8.08-.02 15.72-1.45 22.03-7.19z" fill="#010000"/><path d="m104.31 77.26c1.54-6.29 3.02-12.34 4.5-18.39.21-.87.39-1.75.67-2.6 1.18-3.5 2.15-8.31 6.07-8.45 4.33-.15 9.17.8 12.42 5.14 2.02 2.69 2.54 5.16 2.12 8.32-.46 3.53.92 4.49 4 2.61 4.08-2.48 8.05-5.22 11.74-8.25 10.38-8.52 20.32-17.6 31.01-25.69 3.55-2.69 8.8-3.4 13.41-4.27 1.34-.25 3.66 1.77 4.65 3.31 1.54 2.39 2.46 5.22 3.37 7.96.24.71-.34 1.88-.86 2.62-.95 1.35-2.14 2.54-3.56 4.18 6.4 1.61 12.47 2.96 18.44 4.69 9.21 2.67 18.31 5.73 27.52 8.38 5.86 1.69 11.85 2.95 18.01 4.46 1.67-5.66 3.07-10.56 4.56-15.44 2.46-8.09 7.27-10.9 15.52-9.16 7.56 1.6 8.12 1.6 8.07 9.36-.04 6.75-1.52 13.5-2.37 20.24-.14 1.11-.6 2.25-.45 3.31 2.16 14.7-2.81 28.52-5.1 42.69-2.14 13.27-8.62 24.68-15.3 35.82-3.95 6.6-11.03 10.78-18.14 13.95-7.01 3.13-14.29 5.63-22.38 8.77.77-2.91 1.25-4.7 1.73-6.49-.32-.17-.65-.35-.97-.52-1.15 1.63-2.39 3.2-3.42 4.9-1.73 2.88-4.22 4.33-7.53 4.02-11.93-1.11-23.59 1.59-35.38 2.42-2.02.14-4.49 1.63-5.45-.33-2.57 0-4.68.27-6.7-.04-13.89-2.18-27.75-4.6-41.65-6.68-3.39-.51-5.67-1.96-8.18-4.3-7.75-7.24-10.9-16.54-11.25-26.43-.64-18.3-.18-36.63-.18-54.32 2.14-1.06 3.66-1.81 5.19-2.57-.03-.37-.06-.73-.09-1.1-1.48-.78-2.98-1.57-4.04-2.12zm29.67 48.57c1.19-.09 1.97-.08 2.73-.21 23.16-3.91 46.34-7.56 69.82-9.1 11.29-.74 22.48-1.62 33.79.05 3.84.57 8-.24 11.87-1.09 1.94-.43 4.22-2.01 5.13-3.71 1.43-2.69 1.98-5.89 2.6-8.93.58-2.84-.87-4.89-3.59-5.59-1.99-.51-4.22-.89-6.2-.54-16.72 3.03-33.34 6.46-50.33 7.9-16.81 1.43-33.6 3.41-50.3 5.85-5.22.76-10.14 3.73-15.1 5.91-.8.35-1.51 1.92-1.48 2.9.05 2.1.64 4.17 1.06 6.56zm2.66 17.74c2.61 1.96 4.45 4.18 6.77 4.96 14.75 4.98 30 6.17 45.38 4.34 13.64-1.62 27.23-3.77 40.81-5.89 6.29-.98 12.61-2.17 17.72-6.51 2.32-1.97 2.42-4.95 0-6.81-1.19-.91-2.76-1.68-4.23-1.81-7.12-.64-14.33-1.88-21.4-1.34-15.37 1.16-30.66 3.28-45.99 4.99-5.29.59-10.58 1.3-15.89 1.64-7.79.5-15.22 2.16-23.17 6.43zm-5-51.65c17.56-2.1 34.49-4.37 51.47-6.07 13.66-1.37 27.33-3.27 41.15-1.94 5.55.53 10.44-1.13 13.22-4.04-6.23-2.48-12.28-4.89-18.75-7.47 0 0-.1-.81-.27-2.11-.86 1.32-1.44 2.21-2.08 3.2-3.8-1.16-7.35-2.69-11.06-3.25-3.83-.58-7.82-.1-11.72-.32-1.1-.06-2.23-.83-3.23-1.46-3.32-2.06-6.45-4.47-9.9-6.24-3.35-1.71-6.81-1.92-10.55-.05-13.41 6.73-25.4 15.45-36.62 25.28-1.13.98-1.21 3.15-1.66 4.47zm69.3-33.95c3.31 1.23 6.13 2.28 8.96 3.33-4.2-5.24-5.95-5.85-8.96-3.33zm-72.98 91.72c-.15-.28-.3-.55-.45-.83-1.92.87-3.84 1.73-5.77 2.6.16.4.33.8.49 1.2 2.87 1.41 3.84-1.92 5.73-2.97z" fill="#010000"/><g fill="#fbfcfa"><path d="m361.2 9.6.8-1c.9.7 1.9 1.4 2.9 2.3l-.9 1.1c-1-1-2-1.8-2.8-2.4zm.5 10.6c.9-2.1 1.6-4.3 2.3-6.7.4.2.8.4 1.3.6-.7 2.1-1.5 4.3-2.2 6.6zm.4-15.2.9-.9c1 .8 2 1.6 2.8 2.4l-1 1c-.9-.9-1.8-1.7-2.7-2.5zm12.5-1.2h1.2v1.4h2.7v1.1h-2.7v2.7h-1.2v-.6h-1.8v1.3h4.9v3.8h-1.2v-.5h-3.7c0 .4-.1.9-.1 1.2h5.1v1h-5.2c0 .5-.1.9-.2 1.2h6v1h-5.2c1.1 1.3 2.9 2 5.5 2.2-.4.4-.7.8-.9 1.3-2.9-.5-4.8-1.6-5.7-3.5h-.1c-.8 1.7-2.7 2.9-5.9 3.6-.2-.4-.6-.8-.9-1.1 2.8-.6 4.6-1.4 5.4-2.5h-4.8v-1h5.3c.1-.3.2-.7.2-1.2h-4.9v-1h5c0-.4 0-.8.1-1.2h-3.5v.5h-1.2v-3.8h4.9v-1.3h-1.8v.5h-1.2v-2.7h-2.7v-1h2.6v-1.4h1.2v1.4h4.7v-1.4zm-6.6 8.3h3.6c0-.4 0-.9 0-1.4h-3.6zm1.9-4.6h4.7v-1.3h-4.7zm6.6 3.2h-3.7v1.4h3.7z"/><path d="m385.3 3.8h1.3v2.2h2.8v-2.2h1.3v2.2h4.1v9.1h1.7v1.3h-16.9v-1.3h1.7v-9.1h4.1v-2.2zm.4 13.1.7 1.2c-1.8.9-3.8 1.9-6 2.9-.2-.4-.5-.8-.8-1.3 2.3-1 4.3-1.9 6.1-2.8zm-3.1-6.4h2.8v-3.2h-2.8zm0 4.6h2.8v-3.3h-2.8zm4-4.6h2.8v-3.2h-2.8zm0 4.6h2.8v-3.3h-2.8zm3.7 1.9c2.1.9 4.1 1.8 6.1 2.7l-.7 1.3c-2.2-1.1-4.2-2-6.1-2.9zm3.2-9.7h-2.8v3.2h2.8zm-2.8 7.8h2.8v-3.3h-2.8z"/></g></svg>