<svg enable-background="new 0 0 400 400" viewBox="0 0 400 400" xmlns="http://www.w3.org/2000/svg"><path d="m378.6 9.2.8-1c.9.7 1.9 1.4 2.9 2.3l-.9 1.1c-1.1-.9-2-1.7-2.8-2.4zm.5 10.7c.9-2.1 1.6-4.3 2.3-6.7.4.2.8.4 1.3.6-.7 2.1-1.5 4.3-2.2 6.6zm.4-15.2.9-.9c1 .8 2 1.6 2.8 2.4l-1 1c-1-.9-1.9-1.8-2.7-2.5zm12.5-1.3h1.2v1.4h2.7v1.1h-2.7v2.7h-1.2v-.5h-1.8v1.3h4.9v3.8h-1.2v-.5h-3.7c0 .4-.1.9-.1 1.2h5.1v1h-5.2c0 .5-.1.9-.2 1.2h6v1h-5.2c1.1 1.3 2.9 2 5.5 2.2-.4.4-.7.8-.9 1.3-2.9-.5-4.8-1.6-5.7-3.5h-.1c-.8 1.7-2.7 2.9-5.9 3.6-.2-.4-.6-.8-.9-1.1 2.8-.6 4.6-1.4 5.4-2.5h-4.8v-1h5.3c.1-.3.2-.7.2-1.2h-4.9v-1h5c0-.4 0-.8.1-1.2h-3.6v.5h-1.2v-3.8h4.9v-1.3h-1.8v.5h-1.2v-2.7h-2.6v-1.1h2.6v-1.4h1.2v1.4h4.7v-1.4zm-6.7 8.4h3.6c0-.4 0-.9 0-1.4h-3.6zm1.9-4.7h4.7v-1.2h-4.7zm6.7 3.3h-3.7v1.4h3.7z" fill="#fcfafa"/><path d="m384.7 21.4h1.3v2.2h2.8v-2.2h1.3v2.2h4.1v9.1h1.7v1.3h-16.9v-1.3h1.7v-9.1h4.1v-2.2zm.3 13.2.7 1.2c-1.8.9-3.8 1.9-6 2.9-.2-.4-.5-.8-.8-1.3 2.4-1 4.4-2 6.1-2.8zm-3.1-6.5h2.8v-3.2h-2.8zm0 4.6h2.8v-3.3h-2.8zm4.1-4.6h2.8v-3.2h-2.8zm0 4.6h2.8v-3.3h-2.8zm3.6 1.9c2.1.9 4.1 1.8 6.1 2.7l-.7 1.3c-2.2-1.1-4.2-2-6.1-2.9zm3.3-9.7h-2.8v3.2h2.8zm-2.8 7.8h2.8v-3.3h-2.8z" fill="#fcfafa"/><g fill="#010000"><path d="m277.54 363.33c-4.99-.7-8.93-2.23-12.47-5.34-6.56-5.76-13.49-11.09-20.2-16.67-1.53-1.27-2.84-2.83-4.2-4.3-4.64-4.97-9.35-9.89-13.87-14.97-1.99-2.23-3.57-4.82-5.36-7.23-3.46-4.66-6.86-9.36-10.45-13.91-.92-1.17-2.36-2.09-3.75-2.72-3.75-1.7-6.29-.88-8.45 2.54-.77 1.22-1.58 2.49-2.04 3.84-1.75 5.27-5.1 9.36-9.11 13.05-1.02.94-2.23 2.21-2.4 3.45-.65 4.8-3.09 8.55-6.3 11.92-3.31 3.47-5.39 7.58-7.01 12.06-2.49 6.9-7.24 12.17-12.85 17.19 1.51 2.57.13 4.92-1.94 6.68-2.43 2.08-5.19 3.81-7.91 5.52-1.92 1.2-3.28.07-3.06-1.81.26-2.33.66-5.09 2.06-6.78 18.13-21.86 31.27-46.2 37.91-73.93 1.3-5.43 3.38-10.7 4.35-16.17 1.96-10.98-1.41-13.24-9.89-15.6-3.81-1.07-7.96-1.1-11.97-1.29-5.38-.25-10.09-2.32-15.01-4.25-12.82-5-19.28-16.89-28.69-25.55-.9-.83-.9-3.12-.64-4.62.73-4.11.43-5.16-3.46-6.69-2.8-1.1-5.84-1.62-8.55-2.87-1.51-.7-3.23-2.18-3.68-3.67-.66-2.18-.5-4.9 2.1-6.13 3.3-1.56 6.64-3.45 10.16-4.08 8.23-1.47 15.97-4.17 23.53-7.61 11.94-5.44 24.28-9.8 37.21-12.13 5.22-.94 10.65-.71 15.94-1.38 2.02-.25 3.86-1.77 5.89-2.27 13.57-3.32 27.13-6.72 40.79-9.66 4.25-.91 8.82-.8 13.21-.55 3.91.22 6.29 2.72 6.19 6.63-.13 5.2-.27 10.6-1.71 15.53-2.18 7.48-5.41 14.66-8.34 21.9-2.78 6.87-7.75 12.08-13.02 17.15-3.42 3.29-6.03 7.42-9.27 10.93-1.86 2.01-4.08 3.79-6.43 5.21-5.27 3.17-10.71 6.05-16.08 9.04-5.32 2.96-6.62 5.93-3.86 11.27 3.73 7.21 7.08 14.68 13.2 20.46 2.43 2.3 3.93 5.59 5.84 8.44 1.79 2.66 3.26 5.61 5.38 7.97 14.14 15.74 28.51 31.28 42.57 47.09 2.44 2.74 3.93 6.4 5.54 9.79.56 1.17.1 2.8.1 4.52zm-150.73-144.06c2.02 3.93 5.62 4.78 9.01 5.71 3.14.86 5.24 2.21 5.04 5.85-.04.67.35 1.61.86 2.04 2.82 2.37 5.48 5.13 8.68 6.82 11.42 6.03 23.33 10.83 36.64 8.81 3.94-.6 7.69-2.59 11.47-4.1 1.71-.68 2.05-2.12 1.37-3.87-1.68-4.25-3.15-8.59-5.02-12.75-.45-.99-2.33-2.16-3.27-1.96-4.2.91-8.58 1.72-12.37 3.61-8.7 4.34-17.93 4.29-27.19 4.15-2.11-.03-4.31-1.14-6.27-2.15-2.95-1.52-2.94-4.79-.05-6.54 1.12-.68 2.49-.93 3.77-1.34 12.01-3.85 24.01-7.72 36.03-11.51 3.59-1.13 2.47-3.91 2.03-6.08-.45-2.26-1.81-4.17-4.77-3.29-8.34 2.48-16.71 4.85-25.01 7.46-8.89 2.79-17.13 7.77-26.87 7.73-1.25-.02-2.51.84-4.08 1.41zm110.19-36.17c-1.91.33-4.99.72-7.99 1.43-4.66 1.11-9.35 2.2-13.87 3.77-4.8 1.67-9.46 3.8-14.07 5.95-.82.38-1.69 1.91-1.6 2.82.87 9.25 2.69 10.59 11.87 9.1.11-.02.22-.03.33-.06 12.46-3.71 25-7.21 37.3-11.4 1.68-.57 2.71-4.55 3.06-7.09.31-2.28-1.98-3.25-4.14-3.48-3.21-.34-6.44-.62-10.89-1.04zm-24.99 58.12c2.63-1.13 5.59-1.59 7.37-3.3 7.82-7.51 17.45-13.47 21.53-24.28.48-1.28.79-2.63 1.18-3.95-1.56-.31-3.18-1.07-4.66-.84-4.52.69-9.07 1.47-13.46 2.74-4.99 1.45-9.87 3.31-14.65 5.35-1.02.43-1.75 2.36-1.96 3.7-.42 2.74-.8 5.61-.46 8.33.43 3.45 1.48 6.84 2.51 10.17.24.77 1.49 1.23 2.6 2.08z"/><path d="m276.19 93.76c.33-2.77.61-5.54 1.02-8.3.36-2.44 1.74-4.65 4.19-4.39 1.38.15 3.42 2.37 3.61 3.85.65 5.15.98 10.41.74 15.59-.24 5-1.74 9.94-1.97 14.94-.33 7.09-4.84 11.61-9.67 15.29-11.03 8.39-22.63 16.04-34.02 23.96-11.18 7.78-24.07 11.12-37.1 13.95-14.17 3.08-28.53 3.79-42.98 2.72-1.67-.12-3.43-.34-5.02.03-5.63 1.33-10.73-.34-15.99-2.05-8.51-2.77-16.76-6.09-24.58-10.4-.89-.49-1.84-1.86-1.84-2.82 0-3.33.27-6.68.74-9.98.13-.89 1.23-1.77 2.07-2.42 3.99-3.07 7.94-6.2 12.1-9.04 15.43-10.54 27.1-24.47 36.88-40.18 1.23-1.97 2.98-3.61 4.31-5.53 3.09-4.47 6.57-8.76 8.99-13.58 6.06-12.05 9.6-24.97 12.33-38.16.73-3.51 2.55-6.84 4.14-10.12.93-1.93 2.71-2.09 4.58-1.04 3.64 2.06 6.42 4.88 5.93 9.31-.71 6.3-1.89 12.54-2.92 18.8-.27 1.65-.76 3.27-1.05 4.91-1.12 6.49-.5 12.38 5.23 16.84 2 1.56 3.64 3.64 5.26 5.64 9.47 11.73 21.41 19.4 36.2 22.71 3.67.82 7.15 2.54 10.71 3.84.52.19 1.04.41 1.56.6 12.16 4.48 15.61.24 16.94-12.29.09-.88-.07-1.79-.12-2.68-.1.02-.18.01-.27 0zm-25.97 31.15c-4.4-1.49-8.9-2.39-12.81-4.43-12.81-6.69-25.38-13.73-34.05-26.02-2.33-3.3-5.86-5.77-8.93-8.52-1.55-1.39-3.04-1.28-4.59.4-2.04 2.22-4.34 4.2-6.56 6.26-3.53 3.29-4.31 5.77-1.9 9.95 1.44 2.49 3.78 4.69 6.17 6.34 3.39 2.33 7.29 3.9 10.81 6.06 1.93 1.19 3.64 2.83 5.22 4.48 2.22 2.32 3.87 5.33 6.39 7.18 5.32 3.88 11.04 7.22 16.62 10.74.82.52 1.78 1.1 2.7 1.15 6.1.35 11.71-.89 16.7-4.74 2.96-2.24 4.37-4.93 4.23-8.85zm-51.83 26.46c.05-.12.09-.25.14-.37 1.78-.16 3.87.21 5.26-.6 2.31-1.36 4.79-3.17 5.92-5.43.52-1.05-1.62-3.97-3.17-5.37-1.67-1.5-3.99-2.42-6.16-3.23-7.95-2.98-14.06-7.64-16.34-16.33-.61-2.33-1.76-4.62-3.08-6.65-2.47-3.79-7.19-4.57-10.16-1.26-2.85 3.17-4.7 7.22-7.27 10.66-2.5 3.34-1.67 6.27.57 9.08 3.62 4.54 7.36 8.99 11.13 13.42.53.62 1.48 1.03 2.31 1.22 6.94 1.65 13.9 3.24 20.85 4.86zm-46.07 1.08c5.55.11 9.31-2.4 9.11-6.55-.31-6.55-3.25-11.75-9.08-15.07-1.66-.95-3.21-1.1-4.86.37-2.25 1.99-4.79 3.66-7.12 5.58-.59.49-1.22 1.39-1.2 2.09.18 8.31 5.19 13.43 13.15 13.58z"/><path d="m280.34 311.51c-4.13 1.82-7.65 1.76-11.33-1.82-5.6-5.45-11.84-10.24-17.77-15.35-.82-.71-1.62-1.57-2.1-2.52-2.68-5.37-5.34-10.76-7.86-16.2-3.28-7.08-6.38-14.25-9.66-21.33-1.25-2.69.48-4.42 2.08-5.7.77-.61 3.16-.17 4.12.63 2.97 2.48 5.95 5.09 8.31 8.13 10.2 13.17 19.95 26.69 30.36 39.68 3.64 4.55 4.81 9.05 3.85 14.48z"/><path d="m119.42 339.28c.31-4.75 1.29-8.83 4.38-12.3 2.82-3.18 5.27-6.67 7.99-9.94 2.24-2.69 3.69-5.56 4.65-9.05.87-3.17 3.25-6.11 5.51-8.67 3.81-4.32 4.29-9.15 3.25-14.41-.7-3.58-.09-6.59 2.94-8.98 1.56-1.23 2.69-1.05 4.06.2 4.05 3.71 5.38 8.64 5.18 13.71-.28 6.78-1.27 13.55-2.32 20.26-.3 1.94-1.59 3.92-2.91 5.47-4.64 5.45-9.36 10.85-14.31 16.02-4.92 5.13-11.11 7.59-18.42 7.69z"/></g></svg>