<svg enable-background="new 0 0 400 400" viewBox="0 0 400 400" xmlns="http://www.w3.org/2000/svg"><path d="m260.61 375.09c-.84-8.09-1.66-15.29-2.29-22.5-.24-2.77-1.08-4.53-3.86-5.88-13.07-6.34-26.18-12.66-38.88-19.69-5.08-2.81-9.48-7.1-13.61-11.3-3.73-3.8-7.59-4.62-12.79-4.37-6.5.31-11.72 1.98-16.47 6.54-3.26 3.13-7.53 5.19-11.28 7.84-5.74 4.06-9.71 9.19-11.42 16.32-1.85 7.69-4.51 15.2-7.13 22.67-1.18 3.35-3.03 6.53-7.68 7.72-.62-3.01-1.74-5.89-1.71-8.77.09-10.61.43-21.23.93-31.83.46-9.8 1.98-19.62-1.51-29.22-.4-1.1-.24-2.44-.19-3.66.58-13.53 1.49-27.05 1.68-40.58.09-6.65-1.23-13.32-1.79-19.99-1.09-12.93-1.99-25.88-3.18-38.8-1.28-13.92-2.98-27.8-4.14-41.72-.46-5.53-.6-11.23.22-16.69 1.99-13.33-.63-26.24-2.38-39.29-1.72-12.85-3.22-25.75-4.08-38.68-.4-6.05.84-12.22 1.58-18.3.16-1.3 1.53-3.59 2.07-3.51 2.38.35 5.49.71 6.81 2.32 3.51 4.31 6.15 9.32 9.33 13.92.96 1.39 2.38 2.69 3.89 3.43 9.32 4.59 18.86 8.76 28.05 13.61 4.05 2.14 7.47 5.51 11.12 8.39 1.74 1.38 3.19 3.19 5.06 4.34 4.77 2.94 7.04 2.67 11.33-.88 6.72-5.58 13.62-10.94 20.07-16.82 7.86-7.17 16.62-12.82 26.34-17 2.29-.98 3.43-2.5 4.19-4.77 2.47-7.41 5.12-14.76 7.83-22.48 8.21 4.22 12.41 10.85 13.72 19.55 1.28 8.48-.61 16.72-2.02 24.97-3.46 20.22-3.03 40.56-2.28 60.93.04 1.12.16 2.24.08 3.35-1.26 17.26 5.02 33.22 8.48 49.67.23 1.07.64 2.38.24 3.25-3.31 7.22-2.45 14.91-2.66 22.46-.35 13.2-.87 26.41-.67 39.6.1 6.66 1.67 13.29 2.46 19.95 3.66 30.85 4.12 61.62-3.13 92.08-.62 2.62-2.73 4.95-4.41 7.22-1.6 2.1-3.54 3.96-5.92 6.6zm-14.89-113.81c-1-.78-1.7-1.26-2.32-1.83-5.95-5.44-11.88-10.89-17.82-16.33-11.96-10.96-23.92-21.94-35.9-32.87-3.71-3.39-10.25-2.34-13.2 1.66-2.63 3.56-5.5 7-8.64 10.11-4.37 4.32-9.13 8.25-13.64 12.43-1.02.95-2.03 2.16-2.48 3.44-3.66 10.57-1.21 18.29 8.19 24.26 11.43 7.26 21.89 15.5 29.62 26.77 1.63 2.38 3.48 2.89 5.95 1.69 6.82-3.33 14.12-5.96 20.31-10.21 6.45-4.43 13.66-5.72 20.98-7.59-10.11 8.55-20.22 17.09-30.33 25.64 4.65 8.74 11.58 14.56 19.99 18.7 7.96 3.93 15.96 7.97 21.72 14.83 3.26 3.88 6.67 4.58 11.2 3.68.08-.43.21-.85.21-1.27.16-23.4-.75-46.75-3.64-70-.95-7.65-2.76-15.28-2.85-22.94-.27-22.82.12-45.65.21-68.48.01-2.45-.09-4.93-.41-7.36-.59-4.51-2.19-8.32-6.91-10.21-2.78-1.12-5.45-2.65-7.93-4.34-2.22-1.51-3.56-1.13-5.35.74-10.6 11.08-21.31 22.05-32 33.03-6.78 6.96-5.72 17.74 2.32 23.18 3.42 2.32 6.81 4.7 10.24 7 3.6 2.42 6.1 5.51 6.32 10.04.13 2.66 1.54 3.77 4.16 4.17 1.48.23 3.16 1.15 4.15 2.29 5.07 5.82 9.66 12.08 14.99 17.64 3.48 3.64 3.22 7.47 2.86 12.13zm-100.22-115.08c-.1 8.49 3.33 14.37 9.48 18.67 6.77 4.73 13.76 9.16 20.55 13.87 8.76 6.07 8.89 6.14 17.97.2.65-.43 1.34-.85 1.88-1.4 6.72-6.85 13.32-13.83 20.15-20.56 4.82-4.74 8.34-10.16 9.86-16.74.33-1.42.29-3.5-.52-4.53-8.99-11.28-20.02-19.98-33.42-25.55-2.3-.96-4.12-.61-6.14.94-11.7 8.98-23.41 17.96-35.33 26.65-3.39 2.47-4.91 5.23-4.48 8.45zm77.58-70.42c-5.46 5.99-10.64 11.84-16.04 17.49-1.72 1.8-1.96 3.56-1.44 5.76 1.14 4.78 3.97 8.49 7.59 11.58 6.12 5.22 12.37 10.29 18.6 15.37.63.51 1.6 1.02 2.34.93 4.84-.57 9.66-1.31 14.43-1.98.13-.63.24-.95.25-1.28.5-18.65.98-37.3 1.46-55.95.02-.78.04-1.58-.12-2.34-.82-3.79-3.79-4.78-6.68-2.28-5.99 5.17-11.98 10.34-18.1 15.63-.79-1-1.39-1.77-2.29-2.93zm-78.38 49.19c5.52.74 10.07-1.36 13.91-4.75 5.27-4.65 10.04-9.87 15.33-14.5 3.26-2.85 3.11-5.76 1.58-9.18-4.06-9.05-11.26-15.14-19.36-20.32-4.43-2.83-9.19-4.93-15.34-5.35-.51 5.1-1.82 10.12-1.33 14.97 1.31 12.96 3.39 25.85 5.21 39.13zm9.83 193.98c7-5.1 13.86-10.09 20.7-15.08 4.07-2.97 4.28-3.5 1.05-7.54-5.99-7.5-13.85-12.83-21.59-18.33-5.77 9.43-5.88 31.61-.16 40.95zm-3.95-102.6c3.39-1.76 6.67-2.91 9.26-4.95 3.12-2.46 5.57-5.75 8.47-8.52 1.6-1.53 1.58-2.98.66-4.74-4.09-7.81-10.51-13.09-18.59-17.23-4.9 11.73-4.84 23.06.2 35.44z" fill="#010102"/><g fill="#fcfbfa"><path d="m385.2 377.6.6-.7c.6.4 1.3.9 1.9 1.5l-.6.7c-.8-.5-1.4-1-1.9-1.5zm.3 7.1c.6-1.4 1.1-2.9 1.5-4.5.3.1.6.3.9.4-.5 1.4-1 2.9-1.5 4.4zm.2-10.1.6-.6c.7.5 1.3 1.1 1.9 1.6l-.7.7c-.6-.6-1.2-1.2-1.8-1.7zm8.4-.8h.8v.9h1.8v.7h-1.8v1.8h-.8v-.3h-1.2v.9h3.3v2.6h-.8v-.4h-2.5c0 .3 0 .6-.1.8h3.4v.7h-3.5c0 .3-.1.6-.1.8h4v.7h-3.5c.7.9 1.9 1.3 3.6 1.5-.2.2-.4.5-.6.9-1.9-.3-3.2-1.1-3.8-2.3-.5 1.1-1.8 2-3.9 2.4-.2-.3-.4-.5-.6-.8 1.9-.4 3.1-.9 3.6-1.7h-3.2v-.7h3.5c.1-.2.1-.5.2-.8h-3.3v-.7h3.4c0-.2 0-.5 0-.8h-2.4v.3h-.8v-2.6h3.3v-.9h-1.2v.3h-.8v-1.8h-1.8v-.7h1.8v-.9h.8v.9h3.2zm-4.4 5.5h2.4c0-.3 0-.6 0-.9h-2.4zm1.2-3.1h3.2v-.8h-3.2zm4.4 2.2h-2.4v.9h2.5v-.9z"/><path d="m389.2 385.8h.9v1.5h1.9v-1.5h.9v1.5h2.7v6h1.1v.9h-11.3v-.9h1.1v-6h2.7zm.2 8.7.5.8c-1.2.6-2.5 1.3-4 1.9-.2-.3-.3-.6-.6-.8 1.6-.6 3-1.3 4.1-1.9zm-2-4.3h1.9v-2.1h-1.9zm0 3.1h1.9v-2.2h-1.9zm2.7-3.1h1.9v-2.1h-1.9zm0 3.1h1.9v-2.2h-1.9zm2.4 1.3c1.4.6 2.7 1.2 4.1 1.8l-.5.9c-1.5-.7-2.8-1.4-4.1-1.9zm2.2-6.5h-1.9v2.1h1.9zm-1.9 5.2h1.9v-2.2h-1.9z"/></g></svg>