<svg enable-background="new 0 0 400 400" viewBox="0 0 400 400" xmlns="http://www.w3.org/2000/svg"><path d="m361.2 9.6.8-1c.9.7 1.9 1.4 2.9 2.3l-.9 1.1c-1-1-2-1.8-2.8-2.4zm.5 10.6c.9-2.1 1.6-4.3 2.3-6.7.4.2.8.4 1.3.6-.7 2.1-1.5 4.3-2.2 6.6zm.4-15.2.9-.9c1 .8 2 1.6 2.8 2.4l-1 1c-.9-.9-1.8-1.7-2.7-2.5zm12.5-1.2h1.2v1.4h2.7v1.1h-2.7v2.7h-1.2v-.6h-1.8v1.3h4.9v3.8h-1.2v-.5h-3.7c0 .4-.1.9-.1 1.2h5.1v1h-5.2c0 .5-.1.9-.2 1.2h6v1h-5.2c1.1 1.3 2.9 2 5.5 2.2-.4.4-.7.8-.9 1.3-2.9-.5-4.8-1.6-5.7-3.5h-.1c-.8 1.7-2.7 2.9-5.9 3.6-.2-.4-.6-.8-.9-1.1 2.8-.6 4.6-1.4 5.4-2.5h-4.8v-1h5.3c.1-.3.2-.7.2-1.2h-4.9v-1h5c0-.4 0-.8.1-1.2h-3.5v.5h-1.2v-3.8h4.9v-1.3h-1.8v.5h-1.2v-2.7h-2.7v-1h2.6v-1.4h1.2v1.4h4.7v-1.4zm-6.6 8.3h3.6c0-.4 0-.9 0-1.4h-3.6zm1.9-4.6h4.7v-1.3h-4.7zm6.6 3.2h-3.7v1.4h3.7z" fill="#fbfcfa"/><path d="m385.3 3.8h1.3v2.2h2.8v-2.2h1.3v2.2h4.1v9.1h1.7v1.3h-16.9v-1.3h1.7v-9.1h4.1v-2.2zm.4 13.1.7 1.2c-1.8.9-3.8 1.9-6 2.9-.2-.4-.5-.8-.8-1.3 2.3-1 4.3-1.9 6.1-2.8zm-3.1-6.4h2.8v-3.2h-2.8zm0 4.6h2.8v-3.3h-2.8zm4-4.6h2.8v-3.2h-2.8zm0 4.6h2.8v-3.3h-2.8zm3.7 1.9c2.1.9 4.1 1.8 6.1 2.7l-.7 1.3c-2.2-1.1-4.2-2-6.1-2.9zm3.2-9.7h-2.8v3.2h2.8zm-2.8 7.8h2.8v-3.3h-2.8z" fill="#fbfcfa"/><g fill="#010105"><path d="m102.25 344.58c.37-4.83.4-9.95 1.2-14.95 2.68-16.78 5.48-33.54 8.6-50.24.83-4.46.36-8.07-2.64-11.4-2.42-2.7-3.22-6-3.57-9.53-.45-4.52-.55-4.59-5.16-4.39-2.79.12-5.57.77-8.34.71-1.52-.04-3.32-.74-4.44-1.75-1.47-1.32-1.7-2.9 0-4.85 8.17-9.44 18.21-16.85 27.13-25.44 6.02-5.8 11.1-12.55 16.85-18.66 2.81-2.99 6.07-5.59 9.3-8.14 4.23-3.35 4.15-8.21-.33-11.32-7.21-5-15.5-7.32-23.75-9.82-7.13-2.16-12.93-6.06-16.18-13.07-.13-.28-.18-.6-.34-1.14 9.06-4.88 18.09-9.76 27.13-14.63 2.46-1.33 5.02-2.5 7.35-4.03 1.81-1.19 3.33-2.82 4.96-4.27.9-.81 1.6-1.97 2.64-2.46 23.73-11.3 44.77-27.03 67.06-40.7 7.43-4.56 14.95-9 22.15-13.91 3.26-2.23 6.18-5.2 8.62-8.33 3.32-4.26 2.83-5.59-1.42-8.87-1.42-1.1-4.08-1.73-1.9-4.99-4.48.57-5.54-2.63-7.26-5.37-.98-1.56-2.72-2.86-4.4-3.73-5.24-2.74-6-4.93-3.91-10.43 1.51-4 3.72-6.92 7.87-8.44 1.44-.53 2.5-2.11 3.93-3.39.32.27.84.73 1.9 1.63.56-1.01 1.15-2.06 1.79-3.2 1.11 2.8 1.97 4.98 2.84 7.17.27-.07.53-.14.8-.2-.89 2.13-1.78 4.25-2.92 6.97 3.6-.45 4.88-3.16 5.59-5.08.72-1.96-.34-4.58-.7-7.53.39.11 1.7.05 2.12.63 7.09 9.87 17.09 16.72 25.79 24.91 3.22 3.03 6.38 5.78 6.07 10.93-.14 2.38 2.17 3.37 4.42 2.44 2.24-.92 3.59-.32 5.17 1.39 5.39 5.83 11.53 10.45 19.51 12.42 1.83.45 4.27 2.93 4.43 4.66.33 3.66-.16 7.61-1.36 11.08-.5 1.47-3.54 2.52-5.59 2.9-4.77.89-8.92-1.23-13-3.46-5.57-3.05-11.07-6.34-16.92-8.74-7.1-2.92-10.96-.85-13.9 6.34-.04.1-.13.2-.15.3-1.93 9.97-8.26 17.37-14.35 24.99-6.29 7.87-12.42 15.82-20.28 22.3-1.87 1.54-3.3 4-4.13 6.32-1.76 4.91-.86 6.66 3.81 8.83 15.8 7.34 31.67 14.55 47.39 22.07 2.05.98 3.89 3.29 4.87 5.43 1.31 2.84-1.31 5.77-4.38 5.04-2.97-.7-5.64-1.06-8.26.9-.48.36-1.54.3-2.18.05-9.34-3.62-19.31-3.52-29.02-4.89-13.95-1.98-27.97-3.52-41.97-5.07-1.53-.17-3.62.35-4.73 1.35-22.61 20.23-45.1 40.58-67.64 60.89-.57.52-1.32.83-1.99 1.24.15.3.3.59.44.89 2.57.49 5.15.98 7.72 1.48 5.36 1.04 7.89 3.57 8.22 8.9.35 5.58.44 11.19.36 16.78-.02 1.14-1.33 2.26-2.25 3.7 2.14 2.78 2.01 6.46.74 10-4.63 12.95-6.23 26.51-8.27 39.99-.08.55-.02 1.23-.31 1.63-2.87 3.89-1.98 8.23-1.74 12.56.23 4.32.05 8.66.05 13.37h19.01c.11 0 .27.03.33-.03 3.7-4.23 9.1-2.89 13.68-4.21 2.64-.76 4.6-2 4.78-5.21.1-1.71.6-3.68 1.59-5.03 9.97-13.48 13.73-29.15 16.37-45.27 1.74-10.57 3.31-21.15 7.02-31.36 1.91-5.25 1.88-11.18 3.08-16.72.8-3.7 2.13-7.3 3.43-10.86 2.16-5.89 4.68-7.36 11.01-6.75 5.51.53 6.04.8 6.66 6.24.76 6.66 1.19 13.37 1.64 20.07.24 3.63 1.46 5.5 5.56 6.35 10.38 2.13 20.61 5.01 30.86 7.73 1.43.38 2.65 1.54 3.17 1.86 3.61.48 6.6.63 9.46 1.32 5.86 1.42 11.68 3.04 17.45 4.77 4 1.2 4.95 2.77 4.84 6.91-.23 8.51-9.61 14.5-17.15 10.25-7.98-4.49-16.24-5.77-25.15-5.48-8.48.28-16.9.22-25.3-2.05-5.89-1.59-8.66-.79-11.91 5.41-6.84 13.07-14.36 25.78-21.37 38.76-1.97 3.65-3.14 7.73-5.05 12.56 7.19-.96 13.12-1.74 19.05-2.53 15.96-2.13 32-3.84 47.87-6.53 17.43-2.95 35.08-4.63 52.28-9.07 4.2-1.09 8.88-.6 13.32-.46 7.45.24 11.64 4.74 13.92 11.61-8.72 6.15-18.38 10.42-29.13 11.61-26.4 2.94-52.11 9.49-78.13 14.47-10.63 2.03-21.54 2.6-32.21 4.48-12.65 2.23-25.18 5.14-37.74 7.82-10.2 2.18-20.42 4.16-30.91 2.35-1.14-.2-2.41-.62-3.25-1.36-3.43-3.04-6.78-6.19-10.01-9.44-.74-.75-1.25-2.11-1.22-3.17.11-3.46.34-6.94.89-10.36.26-1.82 1.3-3.46 2.12-5.45zm60.8-202.59c-.08.52-.16 1.04-.23 1.56 1.94 1.99 3.7 5.46 5.84 5.71 7.03.84 14.19.67 21.3.49 1.47-.04 3.43-1.44 4.25-2.77 2.97-4.86 5.65-9.9 8.2-14.99.71-1.41 1.01-3.28.79-4.84-.31-2.2-1.48-3.74-4.2-2.3-2.17 1.14-4.53 1.92-6.74 2.99-9.76 4.69-19.48 9.43-29.21 14.15z"/><path d="m139.59 49.76c4.97 2.32 9.78 4.39 14.39 6.85 1.11.59 2.2 2.45 2.16 3.69-.08 2.61-.48 5.4-1.55 7.76-1.83 4.05-4.22 7.86-6.5 11.69-.37.62-1.38.84-2.63.7-.79 1.72-1.33 3.63-2.44 5.11-1.17 1.57-2.88 2.73-4.37 4.06-.41.36-.98.58-1.31.99-4.12 5.11-9.2 9.56-11.41 15.99-2.32 6.76-7.53 11.55-13.09 14.74-3.73 2.14-4.33 4.99-6.07 7.78-.67 1.08-1.88 1.98-3.04 2.54-1.17.56-2.59.6-4.28.95 1.16.95 2.06 1.69 3.09 2.53-4.64 6.33-8.96 12.85-13.95 18.81-4.16 4.98-10.35 5.67-16.86 5.94.9-6.29.33-12.45 4.76-17.8 4.33-5.23 7.87-11.12 11.66-16.79 6.84-10.23 13.49-20.61 23.95-28.04-.67-.91-1.13-1.53-1.73-2.33 2.77-.39 3.98-1.94 4.17-4.54.05-.65.9-1.72 1.47-1.78 3.3-.37 3.77-2.75 3.85-5.25.11-3.6 1.31-6.39 4.53-8.33 1.05-.64 1.76-1.98 2.42-3.11 4.28-7.32 8.48-14.67 12.78-22.16zm-6.49 37.34c-1.93-5.44-6.68-3.5-10.47-4.43 1.02 1.86 2.19 4.21 3.81 4.58 3.01.68 6.29.19 9.85.19-.5-1.1-.8-1.74-1.18-2.56-.64.71-1.14 1.27-2.01 2.22z"/></g></svg>