<svg enable-background="new 0 0 400 400" viewBox="0 0 400 400" xmlns="http://www.w3.org/2000/svg"><path d="m362.1 8.8c1.1.8 2.1 1.6 3.1 2.4l-1 1.1c-1.3-1.1-2.3-2-3-2.5zm1.9 4.8c.5.2.9.4 1.4.5-.6 2.3-1.3 4.5-1.9 6.8l-1.5-.5c.8-2.1 1.4-4.3 2-6.8zm-1-9.4c1.3.9 2.4 1.8 3.4 2.5l-1 1.1c-1.4-1.2-2.4-2.1-3.2-2.6zm3.7 2.2v-1.4h10.3v1.2c-.5 3.6-1.8 6.8-4 9.4 1.5 1.6 3.4 2.8 5.7 3.8-.3.4-.7.8-1.1 1.4-2.3-1.1-4.1-2.5-5.6-4.1-1.6 1.6-3.6 3.1-5.9 4.3-.3-.5-.7-.9-1-1.3 2.4-1.1 4.4-2.5 6-4.1-1.9-2.5-3-5.6-3.3-9.3h-1.1zm8.8 0h-6.4c.3 3.3 1.3 6 3 8.2 2-2.3 3.1-5.1 3.4-8.2z" fill="#fbfcfa"/><path d="m385.3 3.8h1.3v2.2h2.8v-2.2h1.3v2.2h4.1v9.1h1.7v1.3h-16.9v-1.3h1.7v-9.1h4.1v-2.2zm.4 13.1.7 1.2c-1.8.9-3.8 1.9-6 2.9-.2-.4-.5-.8-.8-1.3 2.3-1 4.3-1.9 6.1-2.8zm-3.1-6.4h2.8v-3.2h-2.8zm0 4.6h2.8v-3.3h-2.8zm4-4.6h2.8v-3.2h-2.8zm0 4.6h2.8v-3.3h-2.8zm3.7 1.9c2.1.9 4.1 1.8 6.1 2.7l-.7 1.3c-2.2-1.1-4.2-2-6.1-2.9zm3.2-9.7h-2.8v3.2h2.8zm-2.8 7.8h2.8v-3.3h-2.8z" fill="#fbfcfa"/><path d="m237.06 109.8c-11.71 10.62-19.91 25.41-37.99 27.46 2.62-7.66 4.03-15.13 9.66-21.08 6.05-6.4 11.37-13.5 17.1-20.42-13.45-14.35-28.87-27.07-35.36-47.7 2.19.7 3.58.92 4.73 1.56 3.87 2.18 7.47 4.96 11.52 6.71 7.18 3.1 12.79 8.12 18.27 13.42 3.63 3.52 7.32 7.02 12.57 7.9 1.03.17 2.68-.04 3.2-.73 7.47-9.67 15.51-18.77 25.76-26.38-7.56-4.51-15.35-7.09-23.44-8.73-21.03-4.27-42.28-3.72-63.52-2.39-11.38.71-22.73 1.82-34.1 2.66-6.1.45-12.25.45-18.33 1.12-4.72.52-8.59 2.96-11.38 7.4 2.76 1.94 5.63 3.83 8.36 5.9 8.01 6.07 16 12.17 23.93 18.34 2.32 1.8 4.97 1.42 7.11-1.23 4.22-5.22 8.25-10.62 12.81-15.53 3.22-3.46 7.19-6.23 11.17-9.03.26 6.01-1.55 11.29-3.74 16.48-2.91 6.87-5.77 13.76-8.66 20.64-.17.41-.34.83-.59 1.2-2.38 3.49-2.29 4.66.57 7.69 8.1 8.55 15.74 17.48 21.24 27.98 1.79 3.42 3.01 7.14 4.11 11.09-4.4-1.67-8.9-2.25-12.52-5.67-8.23-7.77-18.16-12.96-28.6-17.13-.76-.3-2.51.26-2.94.95-8.18 13.21-20.14 22.02-33.59 29.09-2.27 1.19-2.92 2.59-2.33 5.07.85 3.58 1.56 7.23 1.93 10.89.28 2.83 1.73 4.06 4.25 3.88 6.89-.5 14.02-.23 20.59-2 20.33-5.47 41.16-5.27 61.87-6.68 7.97-.54 15.51 1.61 23.24 2.62 9.97 1.31 20 2.15 29.95 3.58 3.47.5 6.87 1.93 10.12 3.36 1.92.85 3.48 2.53 5.74 4.25-24.53 4.94-48.15 8.93-72.43 6.85-14.26-1.23-28.61-1.42-42.87-2.68-9.56-.84-19.03-2.71-28.54-4.14-1.88-.28-3.75-.65-5.63-.93-4.23-.64-4.99-.33-6.01 3.95-.75 3.12-1.1 6.39-1.21 9.61-.55 16.87-1.59 33.76-1.29 50.62.43 24.13-5.5 47.24-9.66 70.66-1.58 8.92-3.01 17.88-5.11 26.68-2.87 12.02-7.69 23.35-14.55 33.67-1.95 2.94-4.97 5.17-7.5 7.73-.3-.23-.61-.46-.91-.69.73-2.43 1.35-4.9 2.21-7.28 6.04-16.84 8.49-34.47 11.44-51.99 1.86-11.03 3.92-22.02 5.55-33.08.75-5.07.77-10.25.98-15.38.36-8.83.38-17.69.97-26.51.61-9.02 2.25-17.99 2.52-27.01.56-18.46.47-36.94-3.78-55.1-.32-1.36-.06-2.9.14-4.32.52-3.58.9-7.08-1.17-10.39-.49-.78-.54-1.91-.58-2.9-.84-19.11-1.78-38.23-2.35-57.35-.11-3.82 1.27-7.68 1.92-11.53.17-.98.51-2.08.23-2.96-2.55-7.86 3.11-13.27 5.76-19.57.22-.53 1.01-.84 1.55-1.23 9.96-7.06 20.87-12.08 32.64-15.25 1.38-.37 2.87-.52 4.31-.5 25.85.31 51.7.49 77.54 1.06 13.52.3 27.08.72 40.53 2.07 27.31 2.74 44.02 19.29 44.68 46.86.39 16.42-.85 32.88-1.25 49.33-.11 4.58.02 9.18.24 13.76.68 14.3.85 28.53.06 42.88-.79 14.43.86 29.01 1.6 43.52.53 10.39 1.89 20.76 1.87 31.14-.05 18.72 3.56 36.92 6.7 55.2 3.63 21.15 7.28 42.29 10.93 63.47-3.31 1.21-4.85.04-6.67-2.87-9.24-14.8-11.78-31.71-15.83-48.15-3.6-14.65-7.27-29.3-10.35-44.07-1.31-6.3-1.29-12.89-1.68-19.36-1.04-17.32-1.81-34.65-3.03-51.96-.57-8.13-1.96-16.2-2.93-24.31-.13-1.07-.36-2.45.15-3.21 4.93-7.38 3.78-15.4 2.67-23.41-.93-6.77-3.91-12.18-9.38-16.72-11.94-9.91-23.42-20.41-35.19-30.75zm-125.4 25.85c1.08-1 1.53-1.31 1.86-1.73 7.43-9.24 14.99-18.37 22.17-27.79 2.04-2.68 3.08-6.17 4.36-9.37.28-.71-.12-1.97-.63-2.66-6.26-8.57-12.55-17.13-18.94-25.6-2.59-3.44-5.87-6.05-10.48-7.16-.11 1.35-.22 2.43-.28 3.51-.37 7.82.04 15.77-1.27 23.42-1.78 10.36-.72 20.51.29 30.71.53 5.38 1.84 10.69 2.92 16.67zm166.31.96c.44-.16.87-.32 1.31-.48.88-10.78 1.59-21.59 2.73-32.35.56-5.22.48-10.16-1.62-15.05-2.98-6.94-4.38-14.2-4.61-21.78-.09-2.92-1.62-5.79-2.49-8.68-.38 0-.76.01-1.15.01-7.29 11.15-16.12 21.3-21.41 33.72-.32.74-.13 2.02.32 2.73 8.94 13.99 17.94 27.93 26.92 41.88z" fill="#010106"/></svg>