<svg viewBox="0 0 400 400" xmlns="http://www.w3.org/2000/svg"><rect width="400" height="400" fill="white" /><g fill="#010100"><path d="m231.2 305.28c-.58 2.39-.99 5.54-2.09 8.42-4.98 13-4.31 26.21-2.03 39.57.84 4.95 1.13 9.99 1.8 14.98.24 1.79-.35 2.62-2.05 3.1-2.9.82-5.7 2.01-8.63 2.68-.92.21-2.6-.43-3.1-1.21-10.59-16.67-19.64-34.04-24.12-53.48-2.95-12.79-2.54-25.77-2.37-38.72.24-18 .76-36 1.32-53.99.05-1.67.97-3.61 2.1-4.88 2.83-3.16 6.14-5.88 9-9.02 1.71-1.88 3.52-2.03 5.69-1.5 6.86 1.66 11.39 5.99 13.89 12.43 2.69 6.93 3.64 14.16 4.16 21.59.83 12.03 2.4 24.01 3.7 36.01.85 7.78 1.76 15.55 2.73 24.02z"/><path d="m358.56 178.14c-4.48-.64-8.49-1.03-12.41-1.85-1.55-.33-3.32-1.3-4.28-2.54-9.03-11.57-13.76-25.02-16.09-39.29-4.53-27.79-4.2-55.48 3.12-82.83 1.35-5.04 2.89-10.28 5.6-14.65 2.76-4.46 7.07-7.98 10.88-12.1 5.3 3.36 8.58 8.03 11.1 13.3 5.16 10.77 7.23 22.34 7.89 34.09 1.81 32.24.69 64.4-3.99 96.39-.45 3.1-1.17 6.14-1.82 9.48z"/><path d="m62.69 142c0 16.89-.05 33.78.06 50.67.02 2.38-.76 3.48-3 3.91-1.31.25-2.56.79-3.84 1.21-6.79 2.22-6.75 2.19-10.53-4.04-7.31-12.07-11.01-25.4-13.22-39.13-3.59-22.28-4.81-44.7-2.79-67.22.47-5.22 1.64-10.37 2.27-15.58.36-2.92 1.82-4.86 4.11-6.53 2.62-1.91 5.17-3.94 7.54-6.14 1.75-1.63 3.49-1.68 5.52-.95 4.48 1.61 7.64 4.73 9.45 9 3.85 9.1 6.63 18.38 6.4 28.52-.35 15.43-.09 30.87-.09 46.3-.62-.02-1.25-.02-1.88-.02z"/></g><path d="m6.4 11.7c-1-.8-1.9-1.6-2.9-2.3l.6-.7c.9.7 1.9 1.4 2.9 2.2zm-2.1 8.3c.7-2.1 1.4-4.2 2-6.4.2.1.6.3 1 .4-.7 2.3-1.3 4.4-1.9 6.4zm3-12.8c-1.1-.9-2.1-1.7-2.9-2.4l.6-.7c1 .8 2 1.5 3 2.4zm1.4-1.3v-.9h10.2v.9c-.9 4.2-2.3 7.3-4.1 9.4 1.3 1.4 3.2 2.7 5.7 4-.2.2-.4.5-.7.9-2.5-1.4-4.4-2.7-5.7-4.2-1.4 1.5-3.5 3-6.1 4.4 0 0 0 0-.1-.1-.3-.4-.5-.7-.7-.8 2.7-1.3 4.7-2.8 6.2-4.2-1.8-2.2-3-5.3-3.7-9.4zm9.2 0h-7.1c.6 3.8 1.7 6.7 3.4 8.7 1.7-2 2.9-4.8 3.7-8.7z" fill="#fafbfa"/><path d="m31.6 3.6h.9v2.3h4.1v9.1h1.7v.9h-16.6v-.9h1.7v-9.1h4.1v-2.3h.9v2.3h3.1v-2.3zm-4 13.3.6.8c-1.9.9-3.8 1.9-5.8 2.8-.2-.3-.3-.6-.5-.9 2-.9 3.9-1.8 5.7-2.7zm-3.2-10.1v3.7h3.1v-3.7zm0 4.5v3.7h3.1v-3.7zm4.1-4.5v3.7h3.1v-3.7zm0 4.5v3.7h3.1v-3.7zm9.1 9.1c-2.1-1.1-4.1-2-5.8-2.7l.5-.8c2.2.9 4.1 1.8 5.8 2.6zm-1.9-13.6h-3.1v3.7h3.1zm-3.2 4.5v3.7h3.1v-3.7z" fill="#fafbfa"/></svg>