<svg viewBox="0 0 400 400" xmlns="http://www.w3.org/2000/svg"><rect width="400" height="400" fill="white" /><path d="m6.8 9.5c.6.3 1.3.7 2.1 1.1-.4.4-.7.8-.9 1.2-.7-.4-1.3-.8-1.8-1.1s-1.1-.6-1.6-.8c.2-.4.5-.8.7-1.2.4.2.8.5 1.5.8zm.9 6.9c-.3.6-.5 1.1-.7 1.7s-.4 1.1-.6 1.7c-.6-.4-1.1-.7-1.6-1 .7-1 1.2-1.8 1.5-2.4.3-.5.6-1.1.8-1.7.3-.6.5-1.2.8-1.8.3.3.8.6 1.3.8-.7 1.3-1.2 2.2-1.5 2.7zm.1-11c.4.3 1 .7 1.7 1.1-.5.2-.8.6-1.1 1.1-.5-.6-1-1-1.4-1.2s-.9-.6-1.5-.8c.2-.4.5-.7.9-1.1.5.3.9.6 1.4.9zm10.5 13.1c1 .4 2 .6 3.1.7-.4.4-.7.8-.8 1.3-.9-.2-1.9-.6-3-.9-1-.4-2-.9-2.8-1.6-.5.4-1.1.9-1.9 1.3s-1.9.9-3.3 1.2c-.1-.3-.5-.8-1.1-1.3 1 0 2.1-.3 3.2-.8 1.2-.5 1.9-1 2.3-1.7h-3.2c-.4 0-1 0-2 .1v-1.2c1 0 1.7.1 2 .1h3.3v-1h-2.3c-.2 0-.9 0-2 .1v-1.2c1.2 0 1.9.1 2 .1h2.3v-.8h-4.1c0-.7.1-1.2.1-1.6 0-.5 0-1.1-.1-1.8h4.1v-.7h-2.5c0-.6.1-1.1.1-1.6v-.6h-.5c-.4 0-1 0-1.8.1v-1.3c1.2 0 1.9.1 2.1.1h.2c0-.3 0-.8-.1-1.4h1.4c0 .6-.1 1-.1 1.4h3.4c0-.4 0-.8-.1-1.3h1.5c0 .4-.1.9-.1 1.3.7 0 1.5 0 2.5-.1v1.2c-1 0-1.8-.1-2.5-.1v.6c0 .3 0 .8.1 1.5h-2.5v.8h4.1c0 .7-.1 1.3-.1 1.8s0 1 .1 1.5h-4.1v.8h1.4c.8 0 1.8 0 2.9-.1v1.2c-1 0-1.9-.1-2.8-.1h-1.5v1h3.2c.3 0 1 0 2.1-.1v1.2c-1.1 0-1.8-.1-2.1-.1h-3.4l-.1.1c1.4 1 2.4 1.5 3.4 1.9zm-4.1-6.7v-1.3h-2.7v1.3zm2.2-4.1v-1.1h-3.4v1.1zm1.9 4.1v-1.3h-2.8v1.3z" fill="#fafbfa"/><path d="m37 6.7v2.3 5.4c1 0 1.8 0 2.2-.1v1.3c-.6 0-1.5-.1-2.5-.1h-11.9c-.7 0-1.3 0-1.8.1v-1.3c.5 0 1.1.1 2 .1v-5.2c0-1 0-1.8-.1-2.5h3.7c0-1.3 0-2.1-.1-2.5h1.5c0 .4-.1 1.3-.1 2.5h2.2c0-1.2 0-2.1-.1-2.6h1.5c0 .4-.1 1.3-.1 2.6zm-12.3 13.7c-.3-.4-.7-.8-1.1-1.1 1.1-.4 2.1-.9 2.9-1.3.8-.5 1.5-1 2.1-1.6.4.4.9.8 1.3 1.1-2.5 1.4-4.2 2.4-5.2 2.9zm3.9-10.1v-2.4h-2.2v2.4zm0 4.1v-2.9h-2.2v2.9zm3.5-4.1v-2.4h-2.2v2.4zm0 4.1v-2.9h-2.2v2.9zm.4 2.9 1-1.1c.6.3 1.4.7 2.5 1.3s2 1.1 2.7 1.5c-.4.4-.8.8-1.1 1.3-.8-.8-2.5-1.7-5.1-3zm3.1-7v-2.4h-2.1v2.4zm0 4.1v-2.9h-2.1v2.9z" fill="#fafbfa"/><g fill="#010103"><path d="m190.36 122.88c3.87 3.65 7.11 6.69 10.25 9.65-2.1 1.94-4.08 3.78-6.07 5.61.16.4.33.81.49 1.21 3.8 1.16 7.57 2.4 11.41 3.38.61.16 1.73-.68 2.25-1.35 1.87-2.37 3.58-4.85 5.64-7.69.79 3.31.79 5.72-1.98 7.85-3.77 2.91-7.24 6.22-10.87 9.39-4.2-6.65-4.2-6.65-8.34-6.81-.29 1.33-.6 2.7-.9 4.08.43-.34.87-.68 1.3-1.02 3.47 3.92 6.94 7.83 10.59 11.95 3.34-1.91 3.65-8.32 9.88-7.64-.52 3.1-.41 6.56-1.78 9.26-1.04 2.05-3.8 3.59-6.12 4.53-2.55 1.03-4.68-.4-5.92-2.95-.38-.78-1.03-1.42-1.58-2.15-4.32 5.25-4.99 9.08-2.68 15.1 1.31 3.42 2.64 6.84 4.01 10.36 3.39-2.43-.06-8.02 5.62-9.36 2.98 2.96 6.3 6.27 10.31 10.26-5.66 1.53-10.12 2.74-15.32 4.14 2.99 1.15 5.9 1.49 7.52 3.11 1.54 1.54 1.56 4.5 2.55 6.7.63 1.39 1.7 2.64 2.77 3.76 3.17 3.32 3.22 3.75.1 7.57-.64-6.69-7.21-5.72-10.93-9.3-.77 3.93-.67 6.73 2.38 9.14 3.22 2.55 6.05 5.59 9.73 9.06-2.79 0-4.74-.06-6.68.02-1.77.07-3.62.03-5.29.51-2.96.85-3.71 3.07-2.77 7.18.65 2.83 3.16 1.78 4.9 2.25.34.09 1.29-.66 1.32-1.07.06-.92-.28-1.87-.46-2.84 1.7-.39 8.68 2.38 8.67 4.2-.01 2.08-1.15 4.34-2.35 6.16-.78 1.19-2.54 1.73-3.81 2.52-.06.31-.2.63-.13.69 3.78 3.12 4.98 7.37 5.94 12 1.02 4.93.25 8.88-3.53 12.3-3.79 3.43-5.19 6.89-3.49 12.65 1.91 6.47 1.21 13.72 1.57 20.63.04.7-.22 1.73-.71 2.09-3.85 2.84-7.57 6-11.78 8.18-4.05 2.09-8.85.24-11.36-3.71-5.36-8.43-7.27-17.96-8.27-27.7-.54-5.31-1.16-10.73 2.15-15.59.36-.52.25-1.49.1-2.21-.35-1.75-.77-3.5-1.31-5.2-1.27-3.98-2.06-7.44 1.63-11.11 3.34-3.32 3.16-8.35 3.46-12.99.88-13.61 1.64-27.24 3.24-40.77.66-5.55 1.69-10.9.86-16.53-1.79-12.03 1.51-23.8 2.29-35.7.31-4.28.93-8.58 1.5-13.8zm-3.02 119.85c-1.59 1.73-3.03 3.13-4.25 4.69-.45.58-.8 1.69-.55 2.3 2.13 5.24 4.4 10.41 6.78 15.95 2.97-3.26 5.64-6.18 8.34-9.15-3.47-4.63-6.72-8.98-10.32-13.79zm9.28-13.48c-2.08 1.36-3.72 2.42-5.47 3.56 2.27 2.49 4.43 4.6 6.27 6.96 1.77 2.26 3.33 2.01 5.33.06-1.98-3.42-3.97-6.85-6.13-10.58zm-1.96-35.26c-1.56 1.86-2.79 3.32-4.01 4.78 1.84.08 3.68.19 5.53.23.35.01.71-.22 1.3-.41-.92-1.5-1.67-2.72-2.82-4.6zm2.91 81.73c1.58-4.27 1.29-4.74-2.74-4.82-.3 1.31-.61 2.66-.98 4.23 1.42.23 2.5.4 3.72.59z"/><path d="m22.72 260.49c-.33-6.2-.73-11.77-.82-17.34-.02-1.11.93-2.43 1.77-3.34 12.57-13.69 25.22-27.3 37.78-41 2.1-2.29 3.96-4.84 5.73-7.4 8.3-12.07 16.6-24.14 24.72-36.33 2.27-3.4 4.12-7.13 5.8-10.88 2.64-5.92 5.04-11.94 7.39-17.99.73-1.89 1.66-2.69 3.7-2.23 1.3.29 2.66.29 4 .38 1.82.12 2.87.65 3.44 2.78.76 2.85 3.39 4.23 6.24 4.22 2.31-.01 4.77-.52 5.32 2.41.32 1.67-.39 3.54-.72 5.92 4.24 4.72 4.4 7.98-.11 13.88-2.37 3.11-4.68 6.34-7.5 9.01-1.64 1.56-4.15 2.48-6.42 3.04-2.23.55-3.81-.67-4.87-3-.86-1.89-2.62-3.38-3.99-5.05-.54.3-1.08.6-1.62.9.39 1.22.56 2.59 1.23 3.63 1.63 2.53 3.9 4.71 5.18 7.38 1.82 3.81 1.59 6.36-2.19 8.55-4.84 2.81-8.18 6.79-10.78 11.95-1.45 2.89-5.63 4.42-8.96 6.84-2.05-4.38-3.82-8.17-5.62-11.99-4.1 4.06-4.72 12.45-1.32 16.67 3.77 4.68 4.14 7.01.55 12.04-5.13 7.19-10.73 14.04-16.04 21.1-2.22 2.95-4.42 5.95-6.25 9.14-5.56 9.68-14.41 13.98-24.92 15.63-3.4.54-6.86.71-10.72 1.08zm21.3-19c1.56.97 2.63 2.21 3.58 2.12 2.42-.21 4.84-.86 7.17-1.62 2.03-.66 2.84-3.54 1.34-4.47-2.05-1.26-4.2-2.7-6.6-.27-1.41 1.41-3.17 2.46-5.49 4.24zm23.25-24.19c.87-6.89.01-8.99-4.17-10.59v9.59c1.41.34 2.68.65 4.17 1z"/><path d="m371.59 281.53c-6.62 0-12.56.07-18.48-.07-1.06-.03-2.36-.69-3.1-1.48-6.86-7.38-13.67-14.81-20.37-22.33-.98-1.1-1.67-2.7-1.91-4.17-.79-4.81-3.07-8.52-7.24-11.06-2.19-1.33-3.16-3.18-2.93-5.86.11-1.31-.61-2.75-1.14-4.05-.42-1.02-1.08-1.96-1.73-2.87-9.41-13.16-15.77-27.61-19.57-43.37-1.64-6.78-5.17-13.08-7.29-19.77-4-12.62-5.38-25.59-3.76-38.79.28-2.29.82-4.68 1.85-6.71 3.98-7.82 3.59-16.53 5.39-24.79.21-.97.36-1.95.53-2.93 5.28 1.29 6.09 3.01 3.88 7.67-1.35 2.86-1.75 5.65.08 8.59 1.94 3.11 2.14 6.54.85 10.01-1.27 3.42-3.96 3.95-6.63 1.05-2.06 3.9-2.41 7.81-1.63 12.02 1.08 5.78 1.88 11.61 2.91 17.4.15.85.81 1.85 1.53 2.27.45.26 1.59-.29 2.19-.76 1.4-1.1 2.66-2.37 4.15-3.73 1.77 1.98 3.46 3.86 5.7 6.35-4.68.28-8.61.51-12.55.75-.08.37-.15.75-.23 1.12 1.29 1.02 2.58 2.03 4.31 3.4-1.94.81-3.28 1.36-5.02 2.09 4.57 3.44 8.82 6.65 13.32 10.04-2.07 3.61-4.1 7.14-5.85 10.19 4.9 5.37 9.56 10.47 14.4 15.77-.95 1-2.23 2.36-3.89 4.11 4.11 1.72 4.43 5.2 4.83 9 .43 4.14 2.75 7.51 6.43 9.75 2.2 1.33 4.4 2.66 6.9 4.18 1.23-1.13 2.59-2.37 3.94-3.62.28.19.56.38.83.57-.61.95-1 2.24-1.87 2.78-3.61 2.27-4.06 3.42-2.84 7.38 1.07 3.51 2.27 6.71 6.24 8.01.85.28 1.61 1.54 1.97 2.52 1.82 4.89 5.73 6.55 10.44 7.1s5.41 1.96 2.98 5.94c-1.44 2.37-.4 5.59 2.26 6.51 2.96 1.02 5.87 1.89 7.57 4.97.39.7 2.18.98 3.26.87 2.32-.24 3.41.75 4.24 2.79 1.48 3.58 3.19 7.07 5.05 11.16z"/><path d="m196.61 107.67c-1.48 2.98-2.92 5.88-4.37 8.78-.28-.14-.55-.29-.83-.43.81-6.49 1.62-12.98 2.45-19.62 4.88.84 10.03 1.72 15.43 2.64.11 1.7.21 3.33.32 5.13.95-.06 1.8-.11 2.84-.18.75 2.33 1.52 4.64 2.24 6.97 1.32 4.27.95 4.92-3.16 6.79-1.96.89-3.8 2.06-5.88 3.21 1.88 3.04 7.04 3.87 4.1 8.47-1.35-1.96-2.55-4.08-4.14-5.86-1.18-1.33-2.72-2.59-4.35-3.22-4.02-1.56-4.87-3.15-2.76-7.08 1.39-2.58 1.17-4.34-1.89-5.6zm6.42 4.96c1.48-1.09 2.46-1.82 3.73-2.76-1.39-.8-2.4-1.38-3.73-2.14z"/><path d="m327.17 194.88c-1.67.45-3.35.9-5.02 1.35-.1-.35-.2-.7-.3-1.05 1.33-1.5 2.53-3.35 4.95-1.72.12.47.24.95.37 1.42z"/><path d="m319.34 175.85c-1.59 0-2.52 0-3.62 0 0-1.71 0-3.24 0-5.71 1.35 2.13 2.3 3.64 3.62 5.71z"/></g></svg>