<svg viewBox="0 0 400 400" xmlns="http://www.w3.org/2000/svg"><rect width="400" height="400" fill="white" /><g fill="#010100"><path d="m219.31 77.26c-.82 20.13-2.08 40.21-7.86 59.68-.03.11-.04.22-.07.33-1.94 6.52-3.29 7.41-9.93 6.16-.77-.14-1.72-1.03-2-1.79-6.42-17.75-13.07-35.42-19-53.33-4.52-13.65-1.79-27.21 2.54-40.47 1.14-3.5 2.84-6.82 3.91-10.33 1.49-4.87 4.95-8.15 8.5-11.39.64-.58 2.03-.86 2.87-.6 4.38 1.33 8.74 2.74 13 4.42 1.13.45 2.22 1.8 2.68 2.98 3.79 9.59 4.79 19.72 5.31 29.9.25 4.81.05 9.63.05 14.44z"/><path d="m346.04 367.61c.89 2.68-.46 4.04-3.96 4.41-4.66.49-9.24 1.63-13.89 2.25-1.09.15-2.73-.3-3.4-1.08-19.37-22.8-27.75-48.39-19.22-78.03 1.16-4.04 3.24-7.83 4.95-11.71.25-.58.68-1.28 1.2-1.5 2.33-.98 11.44 2.26 12.36 4.7 3.9 10.32 8.25 20.54 11.17 31.15 3.99 14.52 6.85 29.35 10.15 44.06.36 1.62.38 3.33.64 5.75z"/><path d="m56.56 371.17c-7.81-20.79-9.62-41.56-5.45-62.84.41-2.08.72-4.19 1.1-6.27 2.13-11.73 2.28-12.05 11.88-19.18.82-.61 2.26-.84 3.29-.63 11.4 2.32 18.67 10.73 18.73 23.59.05 9.89-1.04 19.87-2.58 29.66-1.55 9.9-4.24 19.63-6.55 29.4-.24 1-1.15 2.42-1.99 2.61-6.08 1.36-12.23 2.46-18.43 3.66z"/></g><path d="m6.4 11.7c-1-.8-1.9-1.6-2.9-2.3l.6-.7c.9.7 1.9 1.4 2.9 2.2zm-2.1 8.3c.7-2.1 1.4-4.2 2-6.4.2.1.6.3 1 .4-.7 2.3-1.3 4.4-1.9 6.4zm3-12.8c-1.1-.9-2.1-1.7-2.9-2.4l.6-.7c1 .8 2 1.5 3 2.4zm1.4-1.3v-.9h10.2v.9c-.9 4.2-2.3 7.3-4.1 9.4 1.3 1.4 3.2 2.7 5.7 4-.2.2-.4.5-.7.9-2.5-1.4-4.4-2.7-5.7-4.2-1.4 1.5-3.5 3-6.1 4.4 0 0 0 0-.1-.1-.3-.4-.5-.7-.7-.8 2.7-1.3 4.7-2.8 6.2-4.2-1.8-2.2-3-5.3-3.7-9.4zm9.2 0h-7.1c.6 3.8 1.7 6.7 3.4 8.7 1.7-2 2.9-4.8 3.7-8.7z" fill="#fafbfa"/><path d="m31.6 3.6h.9v2.3h4.1v9.1h1.7v.9h-16.6v-.9h1.7v-9.1h4.1v-2.3h.9v2.3h3.1v-2.3zm-4 13.3.6.8c-1.9.9-3.8 1.9-5.8 2.8-.2-.3-.3-.6-.5-.9 2-.9 3.9-1.8 5.7-2.7zm-3.2-10.1v3.7h3.1v-3.7zm0 4.5v3.7h3.1v-3.7zm4.1-4.5v3.7h3.1v-3.7zm0 4.5v3.7h3.1v-3.7zm9.1 9.1c-2.1-1.1-4.1-2-5.8-2.7l.5-.8c2.2.9 4.1 1.8 5.8 2.6zm-1.9-13.6h-3.1v3.7h3.1zm-3.2 4.5v3.7h3.1v-3.7z" fill="#fafbfa"/></svg>