<svg enable-background="new 0 0 400 400" viewBox="0 0 400 400" xmlns="http://www.w3.org/2000/svg"><path d="m263.23 374.65c-3.61.61-5.05-.61-6.27-3.51-10.49-24.9-15.08-51.41-21.28-77.46-3.78-15.87-6.72-31.93-10.25-47.86-.86-3.89-2.48-7.62-3.88-11.38-.75-2.02-2.1-2.26-4.26-1.63-10.89 3.18-20.47 8.92-29.81 15.09-6.51 4.3-13.35 7.5-21.04 9.11-6.44 1.34-12.74 3.29-19.07 4.96-1.77-3.06-.78-4.71 2.02-6.52 12.59-8.12 25.12-16.36 37.45-24.88 9.25-6.4 17.14-14.37 24.28-23.04.78-.95 1.27-2.36 1.38-3.61.31-3.34.39-6.7.48-10.06.02-.75-.09-1.61-.45-2.25-5.32-9.43-6.83-20-9.33-30.31-1.59-6.55-4.19-12.89-6.69-19.19-1.23-3.11-3.68-3.91-7.35-3.34-5.47.85-10.18 3.2-14.99 5.56-10.03 4.93-20.03 9.93-30.13 14.72-1.27.6-3.31.63-4.57.03-12.43-5.88-24.85-11.79-37.05-18.11-2.22-1.15-3.46-4.18-5.6-6.91 2.11-.54 3.14-.93 4.2-1.06 3.27-.39 5.75-1.96 8.04-4.33 1.26-1.3 3.3-2.27 5.11-2.53 5.53-.81 11.15-.98 16.67-1.85 4.69-.74 9.6-1.41 13.86-3.33 6.33-2.86 13.01-2.83 19.54-4.09 4.97-.95 9.94-2.5 14.56-4.55 4.8-2.13 6.84-6.8 5.9-11.72-1.16-6.08-2.9-12.18-5.4-17.83-3.61-8.16-8.09-15.94-12.3-23.83-.6-1.13-1.62-2.15-2.68-2.89-4.41-3.06-9.11-5.73-13.3-9.06-2.71-2.15-4.99-5-6.96-7.88-1.41-2.07-.61-4.08 1.72-5.6 6.3-4.11 14.54-3.75 20.1 1.7 4.4 4.32 9.61 6.64 15.27 8.67 4.36 1.56 8.51 3.89 12.44 6.37 3.18 2 4.48 5.23 3.18 9.05-1.55 4.55-1.35 8.95.69 13.35 2.77 5.98 5.19 12.12 8.12 18.01 1.3 2.61 3.47 4.8 5.61 7.66 3.02-4.46 5.79-8.22 8.23-12.19 5.67-9.22 11.91-18.21 14.23-29.05.67-3.15.9-6.41 1.2-9.62.36-3.83-.3-7.27-3.66-9.84-1.08-.83-1.83-2.27-2.37-3.58-1.68-4.05.93-8.18 5.31-8.39.75-.04 1.62.62 2.29 1.13 7.67 5.81 15.35 11.61 22.93 17.54 1.15.9 2.21 2.31 2.63 3.69 1.73 5.71 1.34 11.21-2.44 16.16-8.22 10.76-16.43 21.52-24.64 32.29-.67.87-1.31 1.77-2.34 3.16 2.06.18 3.66.49 5.24.43 12.18-.5 24.35-1.2 36.54-1.57 3.98-.12 8.07.18 11.97 1 7.19 1.51 10.43 6.06 10.3 14.29-7.13 1.7-14.4 3.86-21.81 5.13-18.54 3.18-36.72 7.72-54.94 13.88 1.03 5.43 2.04 10.89 3.11 16.34 1.97 10.09 3.93 20.19 6.04 30.25.25 1.18 1.31 2.95 2.19 3.07 2.08.29 4.31 1.88 6.45-.62 5.75-6.71 11.79-13.18 17.64-19.81 4.64-5.25 7.38-11.43 8.33-18.36.14-1.01-.13-2.16-.51-3.13-.8-2.04-1.79-4-2.89-6.39 5.89-1.33 10.48-2.45 14.42 2.57 2.88 3.66 6.82 6.48 9.91 10 2.02 2.3 3.84 5.02 4.88 7.86 1.44 3.93.89 7.67-2.33 11.09-14.87 15.82-29.53 31.84-44.35 47.71-1.56 1.67-1.9 3.18-1.5 5.38 2.23 12.09 4.2 24.24 6.49 36.32.53 2.79 2.12 5.36 2.95 8.11.54 1.79 1.05 3.79.81 5.6-1.95 14.78 1.85 28.93 4.64 43.16 1.54 7.87 2.36 15.64 1.27 23.61-.2 1.44.29 3.08.8 4.51 2.91 8.11 6.02 16.19 6.18 24.94.04 3.24-.77 6.53-1.16 9.66z" fill="#010104"/><g fill="#fcfbfa"><path d="m385.2 377.6.6-.7c.6.4 1.3.9 1.9 1.5l-.6.7c-.8-.5-1.4-1-1.9-1.5zm.3 7.1c.6-1.4 1.1-2.9 1.5-4.5.3.1.6.3.9.4-.5 1.4-1 2.9-1.5 4.4zm.2-10.1.6-.6c.7.5 1.3 1.1 1.9 1.6l-.7.7c-.6-.6-1.2-1.2-1.8-1.7zm8.4-.8h.8v.9h1.8v.7h-1.8v1.8h-.8v-.3h-1.2v.9h3.3v2.6h-.8v-.4h-2.5c0 .3 0 .6-.1.8h3.4v.7h-3.5c0 .3-.1.6-.1.8h4v.7h-3.5c.7.9 1.9 1.3 3.6 1.5-.2.2-.4.5-.6.9-1.9-.3-3.2-1.1-3.8-2.3-.5 1.1-1.8 2-3.9 2.4-.2-.3-.4-.5-.6-.8 1.9-.4 3.1-.9 3.6-1.7h-3.2v-.7h3.5c.1-.2.1-.5.2-.8h-3.3v-.7h3.4c0-.2 0-.5 0-.8h-2.4v.3h-.8v-2.6h3.3v-.9h-1.2v.3h-.8v-1.8h-1.8v-.7h1.8v-.9h.8v.9h3.2zm-4.4 5.5h2.4c0-.3 0-.6 0-.9h-2.4zm1.2-3.1h3.2v-.8h-3.2zm4.4 2.2h-2.4v.9h2.5v-.9z"/><path d="m389.2 385.8h.9v1.5h1.9v-1.5h.9v1.5h2.7v6h1.1v.9h-11.3v-.9h1.1v-6h2.7zm.2 8.7.5.8c-1.2.6-2.5 1.3-4 1.9-.2-.3-.3-.6-.6-.8 1.6-.6 3-1.3 4.1-1.9zm-2-4.3h1.9v-2.1h-1.9zm0 3.1h1.9v-2.2h-1.9zm2.7-3.1h1.9v-2.1h-1.9zm0 3.1h1.9v-2.2h-1.9zm2.4 1.3c1.4.6 2.7 1.2 4.1 1.8l-.5.9c-1.5-.7-2.8-1.4-4.1-1.9zm2.2-6.5h-1.9v2.1h1.9zm-1.9 5.2h1.9v-2.2h-1.9z"/></g></svg>