<svg enable-background="new 0 0 400 400" viewBox="0 0 400 400" xmlns="http://www.w3.org/2000/svg"><path d="m120.25 113.38c18.01-6.64 35.87-13.1 53.62-19.84 8.25-3.13 16.31-6.75 24.4-10.28 3.34-1.46 3.87-4.82 4.17-7.88.25-2.62.08-5.43-.59-7.98-3.24-12.42 2.34-21.12 11.93-27.78 3.96-2.75 8.59-4.84 13.21-6.31 9.26-2.94 18.62-5.79 28.14-7.56 4.03-.75 8.78.82 12.82 2.34 1.79.68 3.01 3.72 3.86 5.93 3.48 9.11 3.33 18.41.47 27.63-1.65 5.31-5.5 7.24-11.2 6.6-4.84-.55-9.85-1.56-14.56-.87-10.94 1.6-18.74 12.47-17.5 23.43.13 1.18 1.14 2.67 2.18 3.27 8.87 5.18 18.19 6.44 28.03 2.96 3.65-1.29 7.5-2.4 10.47 1.29.87 1.08 1.47 2.78 1.39 4.14-.36 6.13-.89 12.26-1.63 18.36-.16 1.31-1.15 2.87-2.23 3.65-3.98 2.85-8.61 3.39-13.41 3.38-5-.01-10.02.17-15.01.49-1.5.1-2.97.93-4.43 1.46-4.27 1.56-6.35 4.07-6.25 9.17.22 11.85.28 23.78-.81 35.56-1.71 18.49-1.43 36.84.64 55.27.67 5.96.38 12.09-.09 18.1-1.32 17.04-.05 33.99 1.33 50.94.25 3.1.47 6.21.71 9.46 5.26 1.02 10.3 1.99 15.34 2.96 4.61.89 5.68 4.21 2.93 8.03-2.46 3.41-4.81 6.98-6.66 10.75-4.14 8.42-8.17 16.92-11.76 25.58-1.99 4.8-3.3 9.95-4.37 15.06-.7 3.39-3.11 3.58-5.4 3.61-.88.01-2.14-1.76-2.63-2.96-2.89-7.15-5.97-14.25-8.31-21.58-3.41-10.73-10.27-19.22-16.97-27.87-.62-.79-1.38-1.49-1.93-2.32-2.52-3.88-.94-8.06 3.55-8.67 4.53-.62 9.13-.71 13.7-.95 4.95-.25 5.06-.42 4.35-5.26-2.04-13.83-4.57-27.62-5.85-41.53-1.64-17.82-2.37-35.74-3.19-53.62-.21-4.43 1.1-8.91 1.03-13.36-.11-7.13-.91-14.25-1.22-21.38-.51-11.85-.96-23.71-1.22-35.56-.05-2.37-.89-3.5-2.83-4.63-10.29-6.02-21.57-8.39-33.24-9.54-12.34-1.22-24.68-2.59-37.01-3.94-5-.53-6.95-2.44-7.97-7.75z" fill="#010102"/><g fill="#fafbfa"><path d="m6.4 11.7c-1-.8-1.9-1.6-2.9-2.3l.6-.7c.9.7 1.9 1.4 2.9 2.2zm-2.1 8.3c.7-2.1 1.4-4.2 2-6.4.2.1.6.3 1 .4-.7 2.3-1.3 4.4-1.9 6.4zm3-12.8c-1.1-.9-2.1-1.7-2.9-2.4l.6-.7c1 .8 2 1.5 3 2.4zm1.4-1.3v-.9h10.2v.9c-.9 4.2-2.3 7.3-4.1 9.4 1.3 1.4 3.2 2.7 5.7 4-.2.2-.4.5-.7.9-2.5-1.4-4.4-2.7-5.7-4.2-1.4 1.5-3.5 3-6.1 4.4 0 0 0 0-.1-.1-.3-.4-.5-.7-.7-.8 2.7-1.3 4.7-2.8 6.2-4.2-1.8-2.2-3-5.3-3.7-9.4zm9.2 0h-7.1c.6 3.8 1.7 6.7 3.4 8.7 1.7-2 2.9-4.8 3.7-8.7z"/><path d="m31.6 3.6h.9v2.3h4.1v9.1h1.7v.9h-16.6v-.9h1.7v-9.1h4.1v-2.3h.9v2.3h3.1v-2.3zm-4 13.3.6.8c-1.9.9-3.8 1.9-5.8 2.8-.2-.3-.3-.6-.5-.9 2-.9 3.9-1.8 5.7-2.7zm-3.2-10.1v3.7h3.1v-3.7zm0 4.5v3.7h3.1v-3.7zm4.1-4.5v3.7h3.1v-3.7zm0 4.5v3.7h3.1v-3.7zm9.1 9.1c-2.1-1.1-4.1-2-5.8-2.7l.5-.8c2.2.9 4.1 1.8 5.8 2.6zm-1.9-13.6h-3.1v3.7h3.1zm-3.2 4.5v3.7h3.1v-3.7z"/></g></svg>