<svg enable-background="new 0 0 400 400" viewBox="0 0 400 400" xmlns="http://www.w3.org/2000/svg"><path d="m226.14 369.88c-5.64-14.66-7.8-29.19-6.16-44.25.36-3.32.18-6.71.12-10.07-.13-6.4-3.43-9.15-9.62-7.35-14.14 4.13-20.1 10.05-19.6 27.51.24 8.6 1.12 17.19 1.48 25.79.11 2.64-.42 5.34-.93 7.96-.6 3.06-2.47 4.93-6.64 5.09-.74-3.39-2.28-6.95-2.12-10.44.42-9.58-.78-18.92-2.07-28.36-.72-5.22.05-10.66.3-15.99.12-2.47-.4-4.61-1.11-7-.92-3.07-.05-6.72.31-10.09.04-.41 1.72-.74 2.68-.93 10.41-2.07 20.83-4.1 31.24-6.16.86-.17 1.7-.47 2.05-.57 0-6.71.18-13.19-.03-19.65-.57-17.44-1.38-34.87-1.93-52.31-.14-4.42.69-8.88.43-13.28-.4-6.64-1.36-13.25-2.09-19.87-.11-1-.46-2-.38-2.98 1.43-17.55-2.59-34.74-3.53-52.13-.05-.94-1.05-2.27-1.93-2.63-2.04-.83-4.26-1.28-6.44-1.69-6.01-1.13-12.23-1.56-18.03-3.36-11.03-3.42-22.41-4.01-33.71-5.37-7.1-.85-14.24-1.39-21.36-2.11-3.53-.36-6.56-1.52-7.64-5.91 10.44-1.88 18.92-8.56 29.61-10.63 15.51-3.01 30.58-8.28 45.84-12.59.21-.06.42-.2.63-.21 8.61-.62 13.16-5.29 14.58-13.76.66-3.92 2.67-7.59 3.68-11.48 3.86-14.97 13.81-25.15 25.81-33.98 6.26-4.61 12.64-7.11 20.45-5.09 2.34.6 4.91.26 7.35.54 6.7.77 9.4 5.86 6.21 11.88-2.25 4.24-4.76 8.35-7.24 12.47-1.34 2.21-3.18 3.74-6.02 3.53-2.91-.22-3.73-2.37-4.54-4.66-1.07-3.05-2.27-6.05-3.53-9.38-4.35 1.43-8.58 2.72-12.73 4.26-.9.33-1.55 1.51-2.16 2.4-6.63 9.65-9.39 20.64-11.16 32-.46 2.98-1.41 5.88-1.78 8.86-.13 1.05.46 2.79 1.26 3.25 2.49 1.41 5.17 3.04 7.92 3.35 8.01.89 16.05 1.28 23.24-3.71 3.57-2.48 7.49-1.88 11.2-.21.81.37 1.52 1.57 1.74 2.52 1.67 7.05.27 14.02-.93 20.95-.61 3.51-1.5 7-2.57 10.4-.99 3.14-3.03 4.26-5.24 2.59-7.99-6.03-17.44-5.65-26.61-6.51-2.78-.26-5.59-.35-8.38-.22-.91.04-2.31.87-2.57 1.65-1.26 3.81-1.15 7.54.54 11.38 1.03 2.34 1.31 5.12 1.45 7.72.45 8.69.57 17.4 1.03 26.08.33 6.25 1.01 12.49 1.51 18.73.05.66.13 1.4-.1 1.99-3.9 9.63-1.5 19.42-.85 29.17.19 2.89.84 5.89.32 8.67-1.77 9.53-.25 18.97.34 28.43.7 11.39 1.79 22.75 2.44 34.14.17 3.06 1.34 4.72 4.21 4.78 4.21.08 8.42-.19 12.63-.35 2.34-.09 4.7-.53 7-.3 5.65.57 8.03 3.2 8.46 8.68 1.11 14.16 2.14 28.33 3.43 42.48.35 3.87 1.75 7.64 2.19 11.51.38 3.31.08 6.71.08 9.97-6.69.97-12.27-3.09-12.05-9.12.51-14.1-4.54-27.28-6.15-41.02-.96-8.2-2.49-9.14-10.84-8.42-2.52.22-5 .85-7.81 1.34.58 8.57 1.13 16.81 1.69 25.04 3.82 4.21.9 8.51.35 12.85-.32 2.48.13 5.12.56 7.63 1.01 5.94-1.39 10.72-4.92 15.11-.67.73-1.91.96-2.86 1.44z" fill="#010102"/><g fill="#fafbfa"><path d="m6.4 11.7c-1-.8-1.9-1.6-2.9-2.3l.6-.7c.9.7 1.9 1.4 2.9 2.2zm-2.1 8.3c.7-2.1 1.4-4.2 2-6.4.2.1.6.3 1 .4-.7 2.3-1.3 4.4-1.9 6.4zm3-12.8c-1.1-.9-2.1-1.7-2.9-2.4l.6-.7c1 .8 2 1.5 3 2.4zm1.4-1.3v-.9h10.2v.9c-.9 4.2-2.3 7.3-4.1 9.4 1.3 1.4 3.2 2.7 5.7 4-.2.2-.4.5-.7.9-2.5-1.4-4.4-2.7-5.7-4.2-1.4 1.5-3.5 3-6.1 4.4 0 0 0 0-.1-.1-.3-.4-.5-.7-.7-.8 2.7-1.3 4.7-2.8 6.2-4.2-1.8-2.2-3-5.3-3.7-9.4zm9.2 0h-7.1c.6 3.8 1.7 6.7 3.4 8.7 1.7-2 2.9-4.8 3.7-8.7z"/><path d="m31.6 3.6h.9v2.3h4.1v9.1h1.7v.9h-16.6v-.9h1.7v-9.1h4.1v-2.3h.9v2.3h3.1v-2.3zm-4 13.3.6.8c-1.9.9-3.8 1.9-5.8 2.8-.2-.3-.3-.6-.5-.9 2-.9 3.9-1.8 5.7-2.7zm-3.2-10.1v3.7h3.1v-3.7zm0 4.5v3.7h3.1v-3.7zm4.1-4.5v3.7h3.1v-3.7zm0 4.5v3.7h3.1v-3.7zm9.1 9.1c-2.1-1.1-4.1-2-5.8-2.7l.5-.8c2.2.9 4.1 1.8 5.8 2.6zm-1.9-13.6h-3.1v3.7h3.1zm-3.2 4.5v3.7h3.1v-3.7z"/></g></svg>