<svg enable-background="new 0 0 400 400" viewBox="0 0 400 400" xmlns="http://www.w3.org/2000/svg"><path d="m196.18 375.51c-3.73-6.66-4.79-12.77-4.78-18.87.04-13.63.64-27.26 1.01-40.89.04-1.45.18-2.92.09-4.36-.34-5.42-4.36-8.85-9.56-7.48-6.7 1.77-13.26 4.17-18.53 8.94-1.05.95-1.88 2.62-2.02 4.03-.69 7.11-1.24 14.24-1.62 21.38-.47 8.93-.69 17.87-1.11 26.81-.06 1.18-.47 2.46-1.09 3.46-1.38 2.23-4.19 2.46-5.42.18-1.2-2.24-1.96-4.92-2.13-7.46-.3-4.43-.08-8.91.07-13.36.31-8.94.28-17.92 1.26-26.79.5-4.54 2.8-8.91 4.46-13.28.3-.79 1.35-1.44 2.19-1.86 9.28-4.66 18.41-9.73 28.92-11.17 2.46-.34 2.96-1.55 3.24-3.98 1.12-9.81-1.24-19.36-1.64-29.03-.52-12.39-.73-24.83-.27-37.22.75-20.28.46-40.49-1.5-60.69-.16-1.62-.04-3.42.52-4.92 1.5-4.04 1.17-7.89.36-12.08-.98-5.1-1-10.41-1.09-15.64-.04-2.37-.84-3.88-2.91-4.71-1.96-.79-3.95-1.79-6-2.01-7.1-.75-13.73-2.93-20.15-5.93-1.21-.57-2.53-1.41-3.76-1.33-9.03.59-16.89-3.96-25.4-5.51-8.44-1.54-17.03-2.21-25.53-3.39-1.1-.15-2.1-1.05-3.14-1.61.76-.91 1.34-2.14 2.3-2.68 9.01-5.11 18.97-7.31 29.06-8.67 16.57-2.23 31.77-9 47.59-13.7 5.68-1.69 5.38-1.83 5.82-7.84.23-3.15 1.64-6.2 2.39-9.33 2.29-9.57 7.67-16.76 15.15-23.25 7.42-6.44 15.05-11.24 24.59-14.01 7.52-2.18 14.73-2 22.15-1.31 1.14.11 2.99 2.07 2.99 3.17-.02 4.65-.32 9.34-1.11 13.92-.55 3.17-3.76 3.45-5.98 2.62-9.25-3.46-18.75-2.35-28.22-2.15-4.02.08-10.25 5.09-11.37 8.89-.28.95-.93 2.21-1.73 2.53-2.54 1-3.03 3.16-3.45 5.33-1.22 6.34-2.31 12.71-3.48 19.06-1.03 5.56-.84 11.06.36 16.94 7.02-2.33 13.85-4.37 20.47-6.94 2.04-.79 3.55-2.99 5.28-4.58 3.54-3.25 5.7-2.84 6.67 1.73.7 3.34.7 6.86.75 10.3.08 5.26.71 6.49 5.65 8.07 2.96.94 6.04 1.69 9.13 2.06 7.84.95 13.22 6.7 13.25 14.47.01 1.67-.21 3.5.38 4.98 3.82 9.58 3.52 19.46 2.54 29.42-.1.98-.01 1.97-.01 3.16 5.02 1.05 9.93 2.06 14.83 3.09.75.16 1.72.2 2.19.69 6.96 7.21 13.74 14.61 14.67 25.25.19 2.24-.44 4.67-1.2 6.84-1.06 3.05-4.87 3.5-6.69.88-3.8-5.47-6.87-11.16-6.53-18.24.25-5.19-9.48-10.81-13.95-8.2-.8.47-1.37 2.03-1.34 3.07.17 5.8.6 11.6.85 17.4.09 2.1.14 4.24-.16 6.31-.41 2.81-2.27 4.15-5.13 4.33-2.91.19-4.39-1.36-5.01-3.9-2.02-8.26-2.32-16.5.33-24.98-3.22-3.55-6.15-3.3-10.44-.59-7.17 4.52-9.73 10.48-8.18 18.67.58 3.1-.18 6.02-3.56 7.54-2.13.96-3.58.36-4.07-1.78-.36-1.58-.45-3.35-.14-4.93.59-3.1.71-5.97-1.44-8.58-.38-.46-.74-1.36-.53-1.79 1.7-3.66 2.2-8.04 6.46-10.16 5.2-2.59 10.28-5.4 15.43-8.1 4.03-2.11 4.56-3.68 3.66-8.13-.41-2.04.16-4.27.12-6.4-.09-4.12.02-8.29-.54-12.35-.79-5.75-2.05-11.43-3.26-17.11-.2-.93-1.02-2.28-1.79-2.46-4.11-.96-8.26-2-12.45-2.27-4.03-.27-5.54 1.62-5.75 5.73-.05 1 .03 2.01.13 3.01.5 5.02-1.71 7.24-6.66 5.95-3.4-.89-6.6-2.62-9.83-4.1-4.53-2.09-9.01-4.3-14.25-6.81-.45 2.54-1.11 4.33-1.02 6.08.37 7.59.96 15.17 1.47 22.75.06.88.4 1.89.1 2.64-2.27 5.62-.75 11.23-.16 16.85.32 3 .57 6.01.61 9.02.48 37.94.96 75.88 1.3 113.82.03 2.96 1.22 4.41 3.77 4.96 3.82.81 7.67 1.56 11.54 2.08 13.24 1.78 20.54 9.97 20.32 23.32-.12 7.04-.93 14.09-.86 21.12.05 4.65 1.12 9.28 1.72 13.92.19 1.44.38 2.88.47 4.33.29 5.04-1.82 8.54-7.31 10.48-.7-7.51-1.28-14.82-2.09-22.1-.4-3.64-1.43-7.22-1.75-10.87-.31-3.51-.36-7.1-.02-10.61.64-6.63-2.08-12.02-6-16.87-2.72-3.38-13.35-4.28-16.24-1.14-1.71 1.85-2.73 5.02-2.74 7.6-.01 5.11.84 10.23 1.45 15.33 1.55 12.93.47 25.69-2.51 38.3-.56 2.38-2.04 4.59-3.46 7.69zm-34.22-269.98c.37-2.79 2.17-3.66 4.55-4.6 6.09-2.39 12.01-5.22 17.87-8.11.78-.38.86-2.19 1.26-3.34-1.21-.27-2.42-.6-3.65-.76-.35-.04-.78.39-1.13.66-5.76 4.45-12.46 6.81-19.32 8.91-5.44 1.66-10.81 3.56-16.2 5.38-.89.3-1.74.75-2.6 1.14-.03.32-.07.65-.1.97 1.88.59 3.74 1.25 5.64 1.75 11.17 2.93 22.97 3.6 33.32 9.49 1.25.71 3.05.46 4.59.66.08-.36.17-.73.25-1.09-6.32-7.52-17.23-5.16-24.48-11.06z" fill="#010102"/><g fill="#fafbfa"><path d="m6.4 11.7c-1-.8-1.9-1.6-2.9-2.3l.6-.7c.9.7 1.9 1.4 2.9 2.2zm-2.1 8.3c.7-2.1 1.4-4.2 2-6.4.2.1.6.3 1 .4-.7 2.3-1.3 4.4-1.9 6.4zm3-12.8c-1.1-.9-2.1-1.7-2.9-2.4l.6-.7c1 .8 2 1.5 3 2.4zm1.4-1.3v-.9h10.2v.9c-.9 4.2-2.3 7.3-4.1 9.4 1.3 1.4 3.2 2.7 5.7 4-.2.2-.4.5-.7.9-2.5-1.4-4.4-2.7-5.7-4.2-1.4 1.5-3.5 3-6.1 4.4 0 0 0 0-.1-.1-.3-.4-.5-.7-.7-.8 2.7-1.3 4.7-2.8 6.2-4.2-1.8-2.2-3-5.3-3.7-9.4zm9.2 0h-7.1c.6 3.8 1.7 6.7 3.4 8.7 1.7-2 2.9-4.8 3.7-8.7z"/><path d="m31.6 3.6h.9v2.3h4.1v9.1h1.7v.9h-16.6v-.9h1.7v-9.1h4.1v-2.3h.9v2.3h3.1v-2.3zm-4 13.3.6.8c-1.9.9-3.8 1.9-5.8 2.8-.2-.3-.3-.6-.5-.9 2-.9 3.9-1.8 5.7-2.7zm-3.2-10.1v3.7h3.1v-3.7zm0 4.5v3.7h3.1v-3.7zm4.1-4.5v3.7h3.1v-3.7zm0 4.5v3.7h3.1v-3.7zm9.1 9.1c-2.1-1.1-4.1-2-5.8-2.7l.5-.8c2.2.9 4.1 1.8 5.8 2.6zm-1.9-13.6h-3.1v3.7h3.1zm-3.2 4.5v3.7h3.1v-3.7z"/></g></svg>