<svg enable-background="new 0 0 400 400" viewBox="0 0 400 400" xmlns="http://www.w3.org/2000/svg"><path d="m115.82 30.62c12.39.75 22.97 4.51 31.41 13.3 5.74 5.97 11.53 11.89 17.17 17.95 4.04 4.34 6.49 9.35 5.38 15.54-.58 3.24.7 5.84 3.37 7.47 2.55 1.55 5.29 2.95 8.13 3.82 11.59 3.57 23.54 5.19 35.59 6.35 14.1 1.36 27.22 5.99 39.65 12.68 27.66 14.89 53.87 32.01 78 52.11 17.58 14.64 30.57 32.56 35.54 55.46 1.1 5.07 1.2 10.06.7 15.28-.66 6.84-.01 13.8-.13 20.71-.08 4.91-.24 9.85-.84 14.72-1.04 8.36-4.28 15.45-10.26 21.93-11.91 12.9-22.81 26.72-34.2 40.09-9.26 10.87-19.9 20.28-31.45 28.64-1.54 1.11-3.68 1.52-5.61 1.95-15.16 3.4-30.24 7.34-45.54 9.9-12.42 2.08-25.1 3.13-37.7 3.53-30.71.97-61.28-1.04-91.55-6.56-15.97-2.92-31.63-7.07-46.82-12.85-1.22-.47-2.56-1.02-3.45-1.92-14.57-14.73-25.87-31.7-33.73-50.83-7.08-17.22-8.24-35.06-4.64-53.34 2.25-11.4 3.87-22.93 5.84-34.39.28-1.63.68-3.31 1.39-4.79 9.19-19.02 18.06-38.21 27.85-56.91 5.37-10.26 12.22-19.76 18.59-29.48 11.22-17.12 22.61-34.13 33.83-51.25.98-1.49 1.6-3.45 1.71-5.23.69-11.18 1.19-22.35 1.77-33.88zm68.16 302.63c0-.25.01-.5.01-.75 14.88 0 29.76.03 44.64-.05 1.61-.01 3.28-.51 4.8-1.1 6.02-2.35 11.83-5.38 18.02-7.1 7.4-2.05 15.13-2.92 22.67-4.53 1.97-.42 4.01-1.37 5.61-2.6 9.57-7.35 17.35-16.39 24.59-26 6.19-8.21 12.89-16.03 19.34-24.04.69-.85 1.63-1.74 1.79-2.73 1.88-11.45 4.03-22.88 5.27-34.4.66-6.08-2.45-11.22-7.57-14.87-2-1.43-3.96-1.91-6.53-1.25-33.74 8.73-67.55 17.23-101.27 26.05-8.61 2.25-17.11 3.31-25.8 1.18-5.74-1.4-10.79-.2-15.56 3.12-1.8 1.25-3.82 2.28-5.87 3.1-11.84 4.71-24.25 6.81-36.87 8.01-14.53 1.37-28.32-.6-40.93-8.42-3.44-2.14-6.62-5.6-10.3-6.22-3.77-.63-7.97 1.76-12.05 2.3-3.39.45-4.2 2.07-4.49 5.23-1.05 11.81-2.46 23.58-7.09 34.67-1.55 3.73-1.12 7.47.41 11.08 4.09 9.69 11.14 17.2 18.28 24.63.44.46 1.12.75 1.74.94 18.81 5.83 37.76 11.3 57.53 12.42 16.53.96 33.1.93 49.63 1.33zm133.45-141.1c-.23-.69-.38-1.21-.58-1.71-8.35-20.9-22.74-36.53-42.29-47.31-21.09-11.64-43.44-20.46-66.24-28.18-8.55-2.9-17.12-5.89-25.33-9.62-5.9-2.68-11.76-4.71-18.21-5.28-2.16-.19-3.47.44-4.87 2.03-18.68 21.28-37.42 42.51-56.14 63.76-.73.83-1.47 1.74-1.88 2.75-2.89 7.02-5.94 13.98-8.44 21.14-1.92 5.48-2.15 11.26.16 16.76.58 1.37 2.23 3.01 3.58 3.21 10.38 1.49 20.78 3.5 31.22 3.78 32.55.87 64.7-3.97 96.86-8.2 17.51-2.3 34.94-5.22 52.42-7.73 13.17-1.91 26.37-3.6 39.74-5.4z" fill="#010104"/><g fill="#fcfbfa"><path d="m385.2 377.6.6-.7c.6.4 1.3.9 1.9 1.5l-.6.7c-.8-.5-1.4-1-1.9-1.5zm.3 7.1c.6-1.4 1.1-2.9 1.5-4.5.3.1.6.3.9.4-.5 1.4-1 2.9-1.5 4.4zm.2-10.1.6-.6c.7.5 1.3 1.1 1.9 1.6l-.7.7c-.6-.6-1.2-1.2-1.8-1.7zm8.4-.8h.8v.9h1.8v.7h-1.8v1.8h-.8v-.3h-1.2v.9h3.3v2.6h-.8v-.4h-2.5c0 .3 0 .6-.1.8h3.4v.7h-3.5c0 .3-.1.6-.1.8h4v.7h-3.5c.7.9 1.9 1.3 3.6 1.5-.2.2-.4.5-.6.9-1.9-.3-3.2-1.1-3.8-2.3-.5 1.1-1.8 2-3.9 2.4-.2-.3-.4-.5-.6-.8 1.9-.4 3.1-.9 3.6-1.7h-3.2v-.7h3.5c.1-.2.1-.5.2-.8h-3.3v-.7h3.4c0-.2 0-.5 0-.8h-2.4v.3h-.8v-2.6h3.3v-.9h-1.2v.3h-.8v-1.8h-1.8v-.7h1.8v-.9h.8v.9h3.2zm-4.4 5.5h2.4c0-.3 0-.6 0-.9h-2.4zm1.2-3.1h3.2v-.8h-3.2zm4.4 2.2h-2.4v.9h2.5v-.9z"/><path d="m389.2 385.8h.9v1.5h1.9v-1.5h.9v1.5h2.7v6h1.1v.9h-11.3v-.9h1.1v-6h2.7zm.2 8.7.5.8c-1.2.6-2.5 1.3-4 1.9-.2-.3-.3-.6-.6-.8 1.6-.6 3-1.3 4.1-1.9zm-2-4.3h1.9v-2.1h-1.9zm0 3.1h1.9v-2.2h-1.9zm2.7-3.1h1.9v-2.1h-1.9zm0 3.1h1.9v-2.2h-1.9zm2.4 1.3c1.4.6 2.7 1.2 4.1 1.8l-.5.9c-1.5-.7-2.8-1.4-4.1-1.9zm2.2-6.5h-1.9v2.1h1.9zm-1.9 5.2h1.9v-2.2h-1.9z"/></g></svg>