<svg enable-background="new 0 0 400 400" viewBox="0 0 400 400" xmlns="http://www.w3.org/2000/svg"><g fill="#010102"><path d="m173.3 25.08c5.23.18 8.46 1.39 9.42 6.09.65 3.2 2.65 5.55 5.73 6.94 3.9 1.76 6.37 4.88 8.66 8.47 9.27 14.5 18.67 28.94 28.35 43.17 3.33 4.9 5.88 9.98 7.36 15.64 2.54 9.73 6.83 18.57 12.63 26.8 4.76 6.76 8.8 14.03 13.55 20.8 5.07 7.24 8.59 15.04 10.81 23.58 2.96 11.36 6.47 22.55 12.98 32.53.55.85.81 2.11.71 3.13-.85 8.57-1.79 17.13-2.75 25.69-.11.96-.24 2.16-.84 2.79-3.43 3.58-3.88 7.91-3.45 12.5.52 5.59-.56 10.88-2.82 16-1.99 4.49-4 8.99-5.7 13.6-2.16 5.84-5.46 10.78-9.42 15.61-2.99 3.65-4.39 8.69-6.15 13.25-3 7.8-4.7 16.19-10.01 22.92-2.32 2.94-5.34 5.33-7.91 8.09-1.31 1.4-2.98 2.92-3.38 4.65-1.94 8.24-6.03 14.97-12.59 20.33-2.14 1.75-3.9 4-5.64 6.17-1.45 1.81-3.13 2.58-5.27 1.71-8.38-3.42-16.88-6.6-25-10.54-2.81-1.37-4.51-4.88-7.01-7.09-1.56-1.39-3.63-2.23-5.51-3.22-1.64-.87-3.5-1.39-4.99-2.45-6.58-4.65-11.14-10.95-15.55-17.68-6.61-10.08-14.37-19.4-21.56-29.11-.96-1.29-1.62-2.89-2.05-4.45-.77-2.8-1.37-5.65-1.84-8.51-1.35-8.1-3.36-16.01-7.92-22.94-4.18-6.35-3.96-13.58-4.72-20.63-.54-5.12-.69-10.28-1.43-15.37-1.14-7.91 1.56-15.25 2.98-22.78 1.65-8.78 4.17-17.44 5.28-26.28 1.03-8.17.85-16.52.92-24.79.03-3.9.52-7.52 2.7-10.83 4.68-7.12 4.92-15.47 6.06-23.47 1.96-13.65 5.55-26.64 12.81-38.49 1.28-2.09 2.23-4.4 3.53-6.47 6.38-10.13 10.68-21.09 13.3-32.72.53-2.34 1.56-3.82 3.96-4.25 2.17-.39 3.37-1.72 4.19-3.8 1.67-4.26 3.55-8.45 5.55-12.57.46-1.06 1.7-1.72 2.03-2.02zm2.71 17.5c-4.51 7.75-7.23 15.89-8.21 24.5-.99 8.61-3.05 16.63-9.38 23-.39.39-.74.88-.92 1.39-4.41 12.36-10.56 24.17-10.83 37.77-.13 6.43-.49 12.92-4.08 18.77-1.16 1.9-1.69 4.63-1.45 6.86.84 7.66 5.85 12.25 12.5 15.32 7.4 3.41 14.83 6.74 22.2 10.22 2.21 1.04 4.11 3.14 6.38 3.59 10.57 2.08 22.25 1.46 30.02-10.55 4.58-7.08 10.61-13.21 15.84-19.88 1.01-1.29 1.84-3.08 1.9-4.67.26-7.56-1.85-14.66-5.56-21.13-4.44-7.75-9.31-15.25-14.08-22.81-5.97-9.46-11.82-18.92-14.79-29.9-.76-2.81-2.39-5.66-4.35-7.83-4.6-5.1-7.14-10.93-8.26-17.62-.6-3.7-2.8-6.28-6.93-7.03zm-45.3 183.77c-.22.07-.43.13-.65.2-.45 4.45-.94 8.89-1.34 13.34-.45 4.89-1.63 9.9-1.04 14.67.98 7.84 2.87 15.61 4.85 23.28 3.13 12.11 9.94 22.4 16.94 32.55 11.66 16.89 24.6 32.5 43.14 42.35 2.16 1.15 4.82 1.87 7.24 1.86 3.59-.01 6.2-2.34 8.07-5.32 11.19-17.92 22.5-35.78 33.42-53.86 2.19-3.63 2.95-8.13 4.31-12.25 1.15-3.48 1.92-7.13 3.41-10.46 2.05-4.57 3.5-12.28 2.64-17.87-3.2 2.46-6.49 4.61-9.33 7.25-5.26 4.88-11.51 6.65-18.43 6.65-5.47 0-10.26 1.86-14.68 4.96-1.16.81-2.52 1.44-3.88 1.85-11.34 3.4-21.52.17-30.77-6.21-4.17-2.88-8.55-4.63-13.28-6.04-7.32-2.17-13.18-6.24-16.95-13.21-4.36-8.02-9.1-15.83-13.67-23.74zm126.91 5.92c.56.07 1.12.14 1.68.21.32-1.38.93-2.77.91-4.14-.23-11.85-.66-23.7-.83-35.55-.04-2.81-.76-4.95-3.06-6.58-5.13-3.62-7.3-8.82-7.81-14.88-.09-1.11-.2-2.24-.48-3.31-.77-2.94-2.88-4.31-5.74-4.9-2.97-.62-2.79 2.09-3.65 3.45-3.1 4.9-5.41 10.39-9.02 14.85-6.04 7.46-12.8 14.36-19.42 21.33-.94.99-2.89 1.66-4.27 1.5-6.66-.78-13.26-1.95-19.91-2.84-2.26-.3-4.05-1.1-5.13-3.15-1.09-2.06-2.67-2.19-4.78-1.75-2.35.49-5.05 1.27-7.16.59-9.89-3.21-17.49-9.5-21.85-19-1.52-3.31-3.77-3.49-6.4-3.25-2.79.26-4.6 1.86-4.95 4.93-.7 6.22-1.37 12.45-2.39 18.62-.51 3.11.01 5.31 2.81 7.01 7.54 4.59 11.9 11.35 13.78 19.96.37 1.68 1.99 3.46 3.52 4.46 11.3 7.42 22.72 14.66 34.12 21.95 1.6 1.02 3.18 2.09 4.87 2.95 17.25 8.8 33.95-.53 42-12.29 3.51-5.13 5.86-11.07 11.16-14.9.96-.7 1.37-2.25 1.88-3.47 1.59-3.78 3.11-7.59 4.82-11.79 1.32.87 2.81 1.31 3.17 2.21.86 2.09 1.44 4.38 1.65 6.63.37 3.69.35 7.43.48 11.15z"/><path d="m261.12 138.89c1.47.74 4.27 1.68 4.19 2.19-.33 2.22-1.49 4.32-2.35 6.47-.35-.08-.7-.16-1.05-.24-.51-2.52-1.01-5.03-1.52-7.55.24-.28.48-.58.73-.87z"/><path d="m217.05 235.37c4.7 1.63 6.32 3.19 5.67 6.29-.32 1.5-2.01 3.95-2.83 3.86-2.07-.24-4.75-1.17-5.83-2.76-2.38-3.48 1.47-5.12 2.99-7.39z"/></g><path d="m385.2 377.6.6-.7c.6.4 1.3.9 1.9 1.5l-.6.7c-.8-.5-1.4-1-1.9-1.5zm.3 7.1c.6-1.4 1.1-2.9 1.5-4.5.3.1.6.3.9.4-.5 1.4-1 2.9-1.5 4.4zm.2-10.1.6-.6c.7.5 1.3 1.1 1.9 1.6l-.7.7c-.6-.6-1.2-1.2-1.8-1.7zm8.4-.8h.8v.9h1.8v.7h-1.8v1.8h-.8v-.3h-1.2v.9h3.3v2.6h-.8v-.4h-2.5c0 .3 0 .6-.1.8h3.4v.7h-3.5c0 .3-.1.6-.1.8h4v.7h-3.5c.7.9 1.9 1.3 3.6 1.5-.2.2-.4.5-.6.9-1.9-.3-3.2-1.1-3.8-2.3-.5 1.1-1.8 2-3.9 2.4-.2-.3-.4-.5-.6-.8 1.9-.4 3.1-.9 3.6-1.7h-3.2v-.7h3.5c.1-.2.1-.5.2-.8h-3.3v-.7h3.4c0-.2 0-.5 0-.8h-2.4v.3h-.8v-2.6h3.3v-.9h-1.2v.3h-.8v-1.8h-1.8v-.7h1.8v-.9h.8v.9h3.2zm-4.4 5.5h2.4c0-.3 0-.6 0-.9h-2.4zm1.2-3.1h3.2v-.8h-3.2zm4.4 2.2h-2.4v.9h2.5v-.9z" fill="#fcfbfa"/><path d="m389.2 385.8h.9v1.5h1.9v-1.5h.9v1.5h2.7v6h1.1v.9h-11.3v-.9h1.1v-6h2.7zm.2 8.7.5.8c-1.2.6-2.5 1.3-4 1.9-.2-.3-.3-.6-.6-.8 1.6-.6 3-1.3 4.1-1.9zm-2-4.3h1.9v-2.1h-1.9zm0 3.1h1.9v-2.2h-1.9zm2.7-3.1h1.9v-2.1h-1.9zm0 3.1h1.9v-2.2h-1.9zm2.4 1.3c1.4.6 2.7 1.2 4.1 1.8l-.5.9c-1.5-.7-2.8-1.4-4.1-1.9zm2.2-6.5h-1.9v2.1h1.9zm-1.9 5.2h1.9v-2.2h-1.9z" fill="#fcfbfa"/></svg>