<svg enable-background="new 0 0 400 400" viewBox="0 0 400 400" xmlns="http://www.w3.org/2000/svg"><path d="m184.78 115.52c.32-8.56.85-16.91.9-25.27.05-9.96-.48-19.91-.45-29.87.03-8.28 2.1-16.17 6.03-23.47.44-.82 2.03-1.59 2.98-1.48 5.07.58 7.61 2.84 8.61 7.92.62 3.15.92 6.43.87 9.65-.29 19.36-.73 38.71-1.11 58.07-.01.55.06 1.1.12 2 7.8.87 15.54 1.78 23.29 2.58 11.79 1.22 23.72 1.66 35.37 3.68 21.2 3.68 35.3 16.34 37.79 40.34 1.75 16.8 4.47 33.52 5.48 50.35.87 14.47.54 29.09-.38 43.57-.87 13.7-3.15 27.32-4.95 40.95-.33 2.51-1.19 4.98-2.05 7.38-.93 2.63-2.36 5.09-3.18 7.75-3.75 12.16-10.28 22.77-19.78 30.93-6.33 5.43-13.96 9.67-21.58 13.21-14.76 6.86-30.7 8.31-46.82 8.53-16.49.22-32.85-.74-49.09-3.64-1.42-.25-2.83-.68-4.17-1.22-8.8-3.59-17.59-7.19-26.33-10.9-1.38-.59-2.69-1.58-3.73-2.67-17.88-18.96-27.06-41.58-29.64-67.44-2.8-28.04-3-56.08-1.77-84.16.76-17.23 3.67-34.01 12.02-49.43.58-1.06 1.17-2.2 2.02-3.02 11.66-11.06 24.84-19.5 40.96-22.22 5.91-.99 12.02-.88 18.04-1.2 6.69-.34 13.37-.6 20.55-.92zm-76.15 127.07c-.08.87-.28 1.95-.26 3.03.25 10.05.21 20.12.88 30.14 1.45 21.52 9.36 40.34 24.71 55.76 1.23 1.23 2.73 2.33 4.3 3.05 20.73 9.57 42.62 12.91 65.29 12.18 20.81-.67 40.22-5.67 57.24-18.15 3.03-2.23 6.43-4.5 8.36-7.57 3.24-5.16 6.3-10.74 7.87-16.57 2.87-10.63 4.93-21.52 6.72-32.4 1.58-9.57 2.34-19.27 3.52-29.47-59.69 0-119.04 0-178.63 0zm179.11-19.12c-.48-15.97-.36-31.21-1.62-46.34-.69-8.34-3.21-16.63-5.78-24.67-2.82-8.82-8.96-14.55-18.59-15.75-2.66-.33-5.32-.74-8-.9-13.5-.8-27-1.77-40.52-2.23-20.4-.69-40.81-3.52-61.24.17-9.32 1.68-18.38 3.69-26.31 9.26-4.1 2.88-7.7 5.94-9.03 11.11-3.05 11.89-6.64 23.65-9.3 35.62-2.17 9.77-2.25 19.76-.19 29.67 1.03 4.96.97 5.01 5.87 4.96 13.53-.13 27.07-.36 40.6-.43 36.03-.19 72.06-.32 108.1-.46 8.39-.04 16.76-.01 26.01-.01z" fill="#010103"/><g fill="#fcfbfa"><path d="m385.2 377.6.6-.7c.6.4 1.3.9 1.9 1.5l-.6.7c-.8-.5-1.4-1-1.9-1.5zm.3 7.1c.6-1.4 1.1-2.9 1.5-4.5.3.1.6.3.9.4-.5 1.4-1 2.9-1.5 4.4zm.2-10.1.6-.6c.7.5 1.3 1.1 1.9 1.6l-.7.7c-.6-.6-1.2-1.2-1.8-1.7zm8.4-.8h.8v.9h1.8v.7h-1.8v1.8h-.8v-.3h-1.2v.9h3.3v2.6h-.8v-.4h-2.5c0 .3 0 .6-.1.8h3.4v.7h-3.5c0 .3-.1.6-.1.8h4v.7h-3.5c.7.9 1.9 1.3 3.6 1.5-.2.2-.4.5-.6.9-1.9-.3-3.2-1.1-3.8-2.3-.5 1.1-1.8 2-3.9 2.4-.2-.3-.4-.5-.6-.8 1.9-.4 3.1-.9 3.6-1.7h-3.2v-.7h3.5c.1-.2.1-.5.2-.8h-3.3v-.7h3.4c0-.2 0-.5 0-.8h-2.4v.3h-.8v-2.6h3.3v-.9h-1.2v.3h-.8v-1.8h-1.8v-.7h1.8v-.9h.8v.9h3.2zm-4.4 5.5h2.4c0-.3 0-.6 0-.9h-2.4zm1.2-3.1h3.2v-.8h-3.2zm4.4 2.2h-2.4v.9h2.5v-.9z"/><path d="m389.2 385.8h.9v1.5h1.9v-1.5h.9v1.5h2.7v6h1.1v.9h-11.3v-.9h1.1v-6h2.7zm.2 8.7.5.8c-1.2.6-2.5 1.3-4 1.9-.2-.3-.3-.6-.6-.8 1.6-.6 3-1.3 4.1-1.9zm-2-4.3h1.9v-2.1h-1.9zm0 3.1h1.9v-2.2h-1.9zm2.7-3.1h1.9v-2.1h-1.9zm0 3.1h1.9v-2.2h-1.9zm2.4 1.3c1.4.6 2.7 1.2 4.1 1.8l-.5.9c-1.5-.7-2.8-1.4-4.1-1.9zm2.2-6.5h-1.9v2.1h1.9zm-1.9 5.2h1.9v-2.2h-1.9z"/></g></svg>