<svg enable-background="new 0 0 400 400" viewBox="0 0 400 400" xmlns="http://www.w3.org/2000/svg"><path d="m161.08 367.33c-4 2-8.03 4.2-12.23 6.02-1.6.69-3.66 1-5.35.67-5.04-.99-9.94-2.77-15-3.56-13.09-2.06-22.08-10.17-30.11-19.76-9.06-10.83-13.38-23.96-17.09-37.21-2.97-10.64-5.4-21.47-7.3-32.34-.83-4.72.18-9.79.5-14.69.31-4.8.82-9.59 1.21-14.38.26-3.23.81-6.18 2.78-9.08 3.87-5.66 3.67-12.54 4.45-19.06.8-6.69 2.15-13.14 5.01-19.36 7.78-16.98 15.59-33.96 22.7-51.22 5.57-13.51 13.73-25.09 23.73-35.46 7.14-7.41 14.46-14.69 22.15-21.53 16.7-14.87 31.57-31.37 45.25-49.01 5.42-6.99 11.09-13.77 16.81-20.52.83-.98 2.63-1.83 3.85-1.68 3.63.45 7.32 1.08 10.76 2.29 5.95 2.09 7.34 5.82 5.78 11.92-1.45 5.69-2.31 11.54-3.4 17.32-.1.54.01 1.12.04 1.68.18 4.24 1.34 7.59 5.78 9.55 8 3.52 14.42 9.24 20.12 15.83 2.92 3.38 6.02 6.65 9.32 9.66 8.05 7.36 14.05 16.11 18.87 25.83 9.67 19.54 19.48 39.01 26.12 59.86 1.15 3.61 2.04 7.32 2.85 11.03 1.33 6.11 1.39 12.03-1.36 18-3.11 6.76-5.21 13.87-9.61 20.16-5.7 8.15-6.52 18.12-8.4 27.68-1.54 7.85-4.19 15.49-6.44 23.19-.3 1.03-1.04 1.97-1.7 2.85-2.55 3.4-5.04 6.86-7.75 10.13-5.13 6.19-10.04 12.41-8.67 21.02-.77.33-1.1.61-1.36.56-5.43-1.13-8.37 1.56-10.34 6.31-3.74 9-10.39 15.13-18.74 20.14-17.65 10.57-34.81 21.98-54.02 29.68-2.18.87-4.49 1.44-6.61 2.43-6.14 2.87-12.12 2.36-17.89-.83-1.66-.91-2.93-2.53-4.71-4.12zm91.86-184.69c-1.2-8.64-2.29-17.51-3.69-26.32-3.63-22.83-13.76-43.05-25.51-62.58-1.16-1.94-3.08-3.51-4.9-4.94-2.09-1.64-4.25-1.65-6.76-.11-10.45 6.41-19.02 14.78-26.54 24.38-9.24 11.79-18.68 23.43-28.02 35.14-.55.69-1.11 1.43-1.4 2.24-3.22 8.93-6.49 17.84-9.51 26.84-1.69 5.06-1.97 10.27-.54 15.53.59 2.18 1.66 3.27 3.95 3.83 14.74 3.59 29.73 5.06 44.85 5.55 14.47.46 29.07-1.16 43.33 3.2 2.83.87 6.37-.2 9.49-.86 1.04-.22 2.34-1.84 2.54-2.99 1.06-6.16 1.81-12.36 2.71-18.91zm-115.74 53.65c-2.63 9.1-3.27 17.92-2.16 26.9 1.26 10.19 6.11 19.05 10.15 28.25 6.57 14.95 12.65 30.06 14.01 46.62.53 6.41 1.6 12.78 2.49 19.64 1.05-.91 1.73-1.45 2.35-2.05 23.87-23.11 47.59-46.39 71.69-69.25 6.49-6.15 9.18-13.82 11.68-21.78.63-2.01.37-4.48-.08-6.62-.84-4.01-2.41-5.07-6.52-5.21-20.34-.68-40.67-1.85-61.01-1.84-11.58.01-22-2.18-31.59-8.7-3.37-2.29-7.19-3.92-11.01-5.96z" fill="#010000"/><g fill="#fbfcfa"><path d="m361.2 9.6.8-1c.9.7 1.9 1.4 2.9 2.3l-.9 1.1c-1-1-2-1.8-2.8-2.4zm.5 10.6c.9-2.1 1.6-4.3 2.3-6.7.4.2.8.4 1.3.6-.7 2.1-1.5 4.3-2.2 6.6zm.4-15.2.9-.9c1 .8 2 1.6 2.8 2.4l-1 1c-.9-.9-1.8-1.7-2.7-2.5zm12.5-1.2h1.2v1.4h2.7v1.1h-2.7v2.7h-1.2v-.6h-1.8v1.3h4.9v3.8h-1.2v-.5h-3.7c0 .4-.1.9-.1 1.2h5.1v1h-5.2c0 .5-.1.9-.2 1.2h6v1h-5.2c1.1 1.3 2.9 2 5.5 2.2-.4.4-.7.8-.9 1.3-2.9-.5-4.8-1.6-5.7-3.5h-.1c-.8 1.7-2.7 2.9-5.9 3.6-.2-.4-.6-.8-.9-1.1 2.8-.6 4.6-1.4 5.4-2.5h-4.8v-1h5.3c.1-.3.2-.7.2-1.2h-4.9v-1h5c0-.4 0-.8.1-1.2h-3.5v.5h-1.2v-3.8h4.9v-1.3h-1.8v.5h-1.2v-2.7h-2.7v-1h2.6v-1.4h1.2v1.4h4.7v-1.4zm-6.6 8.3h3.6c0-.4 0-.9 0-1.4h-3.6zm1.9-4.6h4.7v-1.3h-4.7zm6.6 3.2h-3.7v1.4h3.7z"/><path d="m385.3 3.8h1.3v2.2h2.8v-2.2h1.3v2.2h4.1v9.1h1.7v1.3h-16.9v-1.3h1.7v-9.1h4.1v-2.2zm.4 13.1.7 1.2c-1.8.9-3.8 1.9-6 2.9-.2-.4-.5-.8-.8-1.3 2.3-1 4.3-1.9 6.1-2.8zm-3.1-6.4h2.8v-3.2h-2.8zm0 4.6h2.8v-3.3h-2.8zm4-4.6h2.8v-3.2h-2.8zm0 4.6h2.8v-3.3h-2.8zm3.7 1.9c2.1.9 4.1 1.8 6.1 2.7l-.7 1.3c-2.2-1.1-4.2-2-6.1-2.9zm3.2-9.7h-2.8v3.2h2.8zm-2.8 7.8h2.8v-3.3h-2.8z"/></g></svg>