<svg enable-background="new 0 0 400 400" viewBox="0 0 400 400" xmlns="http://www.w3.org/2000/svg"><path d="m188.92 24.97c5.97 2.1 9.87 6.03 12.81 10.67 3.81 6.02 7.47 12.24 10.35 18.74 8.96 20.23 17.74 40.55 26.19 61 9.48 22.94 14.8 47.06 19.5 71.35 1.82 9.42-.33 18.48-1.1 27.66-1.18 14.05-3.37 28.02-4.11 42.08-.48 9.11.42 18.36 1.5 27.45 1.22 10.25.85 19.92-4.93 28.94-1.97 3.08-3.34 6.59-4.64 10.03-1.88 4.96-4.55 9.06-9.42 11.64-1.26.67-2.23 2.48-2.69 3.96-3.04 9.7-7.61 18.57-13.59 26.79-4.85 6.66-11.62 9.12-19.46 9.36-.79.02-1.86-.66-2.36-1.33-14.7-19.89-29.35-39.81-43.96-59.76-.7-.95-1.09-2.2-1.37-3.37-3.82-15.98-8.06-31.88-11.28-47.98-4.01-20.04-4.94-40.4-3.79-60.82.6-10.59 2.15-21.15.75-31.8-.17-1.27.16-2.68.55-3.93 6.83-21.9 12.14-44.17 16.51-66.69.8-4.1 2.88-7.96 4.47-11.89 4.82-11.91 9.78-23.77 14.48-35.73 1.08-2.74 2.55-4.68 5.39-5.29 6.22-1.33 9.03-5.06 8.97-11.43-.04-3.09.75-6.17 1.23-9.65zm11.3 319.39c6.62-3.88 10.78-9 12.39-15.85 1.7-7.22 4.2-13.9 9.94-18.96.48-.42.86-1.05 1.08-1.66 3.32-9.35 7.25-18.53 9.76-28.1 5.33-20.27 4.65-41.25 6.18-61.97.1-1.31.18-2.91-.45-3.93-1.2-1.97-2.89-5.12-4.43-5.16-8.45-.17-17.06-.41-25.34 1.02-11.31 1.96-22.36 5.38-33.51 8.21-7.86 1.99-15.71 4.02-23.85 6.1 1.88 45.98 16.86 86.28 48.23 120.3zm-12.27-290.21c-.66 1.45-1.13 2.41-1.54 3.4-5.11 12.4-10.38 24.73-15.23 37.23-1.71 4.41-2.79 9.16-3.48 13.86-3.2 21.77-4.54 43.83-11.17 65.03-2.02 6.46-2.48 13.21-.89 19.89.26 1.1 1.45 2.49 2.5 2.8 7.5 2.26 15.16 2.44 22.92 1.6 14.44-1.56 28.89-2.98 43.33-4.46 1.67-.17 3.35-.27 5-.58 4.32-.8 6.42-3.32 6.2-7.74-.14-2.67-.44-5.38-1.11-7.96-3.02-11.45-6.27-22.83-9.3-34.28-1.67-6.3-2.97-12.74-1.42-19.22.53-2.2.26-3.76-.76-5.61-6.43-11.65-12.77-23.34-19.15-35.02-5.21-9.48-10.42-18.96-15.9-28.94z" fill="#010102"/><g fill="#fcfbfa"><path d="m385.2 377.6.6-.7c.6.4 1.3.9 1.9 1.5l-.6.7c-.8-.5-1.4-1-1.9-1.5zm.3 7.1c.6-1.4 1.1-2.9 1.5-4.5.3.1.6.3.9.4-.5 1.4-1 2.9-1.5 4.4zm.2-10.1.6-.6c.7.5 1.3 1.1 1.9 1.6l-.7.7c-.6-.6-1.2-1.2-1.8-1.7zm8.4-.8h.8v.9h1.8v.7h-1.8v1.8h-.8v-.3h-1.2v.9h3.3v2.6h-.8v-.4h-2.5c0 .3 0 .6-.1.8h3.4v.7h-3.5c0 .3-.1.6-.1.8h4v.7h-3.5c.7.9 1.9 1.3 3.6 1.5-.2.2-.4.5-.6.9-1.9-.3-3.2-1.1-3.8-2.3-.5 1.1-1.8 2-3.9 2.4-.2-.3-.4-.5-.6-.8 1.9-.4 3.1-.9 3.6-1.7h-3.2v-.7h3.5c.1-.2.1-.5.2-.8h-3.3v-.7h3.4c0-.2 0-.5 0-.8h-2.4v.3h-.8v-2.6h3.3v-.9h-1.2v.3h-.8v-1.8h-1.8v-.7h1.8v-.9h.8v.9h3.2zm-4.4 5.5h2.4c0-.3 0-.6 0-.9h-2.4zm1.2-3.1h3.2v-.8h-3.2zm4.4 2.2h-2.4v.9h2.5v-.9z"/><path d="m389.2 385.8h.9v1.5h1.9v-1.5h.9v1.5h2.7v6h1.1v.9h-11.3v-.9h1.1v-6h2.7zm.2 8.7.5.8c-1.2.6-2.5 1.3-4 1.9-.2-.3-.3-.6-.6-.8 1.6-.6 3-1.3 4.1-1.9zm-2-4.3h1.9v-2.1h-1.9zm0 3.1h1.9v-2.2h-1.9zm2.7-3.1h1.9v-2.1h-1.9zm0 3.1h1.9v-2.2h-1.9zm2.4 1.3c1.4.6 2.7 1.2 4.1 1.8l-.5.9c-1.5-.7-2.8-1.4-4.1-1.9zm2.2-6.5h-1.9v2.1h1.9zm-1.9 5.2h1.9v-2.2h-1.9z"/></g></svg>