<svg enable-background="new 0 0 400 400" viewBox="0 0 400 400" xmlns="http://www.w3.org/2000/svg"><path d="m157 158.59c9.16.54 17.63 1.03 26.09 1.55 6.92.42 13.86.71 20.75 1.41 2.95.3 4.63-.82 5.34-3.31 1.07-3.74 2.38-7.57 2.49-11.4.25-9.48-.01-18.99-.37-28.47-.05-1.36-1.51-3.4-2.78-3.87-5.3-1.96-10.69-4.31-16.22-4.89-9.07-.94-15.86-5.15-21.23-11.98-1.84-2.35-3.2-5.31-3.99-8.2-1.52-5.6-2.23-11.42-3.77-17.01-.87-3.15-2.63-6.07-4.17-8.99-.77-1.47-2.08-2.64-2.94-4.07-2.87-4.76-1.52-8.07 3.78-9.16 7.55-1.56 14.93-.37 22.15 1.89 6.3 1.96 12.63 3.13 19.11 1.16 5.7-1.73 10.13-4.58 11.59-11.13 1.27-5.72 3.54-11.23 5.44-17.03 5.05 2.85 7.84 7.21 9.84 12.16 3.97 9.85 4.53 20.29 4.52 30.68-.01 7.89-1.47 15.77-1.7 23.68-.13 4.52.92 9.08 1.44 13.62.04.33.14.66.21.98.83 4.08.92 7.72-1.54 11.72-3.93 6.39-3.56 13.92-3.55 21.21.01 10.16.49 20.37-.33 30.47-1.18 14.6-.02 29.05 1.19 43.53.19 2.23.16 4.5.57 6.68.61 3.23 1.7 6.37 2.24 9.61.53 3.15 1.48 6.58.76 9.53-2.67 11.08-2.17 22.14-1.2 33.32 1.47 16.94 2.39 33.93 3.96 50.86.35 3.73 1.9 7.61 3.84 10.87 2.24 3.76 2.56 7.32.35 10.69-3.89 5.93-5.24 12.47-6.03 19.3-.54 4.63-3.08 8.01-7.57 10.54-1.29-5.87-2.53-11.49-3.77-17.12-.24-1.09-.47-2.19-.7-3.28-1.79-8.51-5.19-11.73-13.95-12.91-5.2-.7-10.48-.88-15.61-1.9-8.28-1.64-14.93-6.37-20.65-12.4-3.09-3.26-4.71-7.23-5.1-11.76-1.18-13.59-2.47-27.18-3.69-40.77-.1-1.09-.01-2.2-.01-4.13 8.08-.19 16.08-.37 24.08-.58 7.13-.19 14.27-.37 21.39-.65 2.68-.11 3.76-1.48 3.65-4.37-.24-6.03-.16-12.09-.02-18.13.04-2.04-.49-3.59-2.35-4.32-4.32-1.69-8.59-4.14-13.07-4.66-17.19-2.02-27.34-12.39-32.29-27.77-2.87-8.92-3.34-18.62-4.69-28-.73-5.05-1.1-10.16-1.48-15.26-.16-2.54-.01-5.09-.01-7.94zm56.06 42.37c-.52-3.52-.86-7.42-1.73-11.21-1.08-4.73-3.76-7.74-9.13-8.24-6.78-.63-13.51-1.88-20.25-2.91-4.02-.61-6.93 1.42-7.57 5.39-2.45 15.18 10.38 32.49 28.52 33.6 1.72.11 3.72-.17 5.17-1 1.44-.82 3.01-2.42 3.37-3.94.88-3.67 1.09-7.49 1.62-11.69zm4.99 116.07c-1.25-6.88-2.03-13.89-3.98-20.57-.82-2.81-3.73-6.28-6.38-7.05-6.92-2-14.21-2.72-21.38-3.8-.82-.12-2.27.49-2.62 1.17-2.89 5.65-4.79 12.02-1.56 17.63 3.79 6.58 9.15 12.25 13.86 18.29.31.39.94.67 1.46.73 4.31.49 8.64 1.38 12.94 1.26 5.85-.16 6.99-1.77 7.66-7.66zm-36.79-244.89c-.02 4.22 1.11 7.61 3.2 10.98 5.13 8.29 13.81 9.13 22 10.77 3.58.72 7.37-2.09 7.59-4.52.88-9.54-2.39-15.05-11.34-18.5-2.74-1.06-5.81-2.26-8.59-1.99-4.26.42-8.41 2.07-12.86 3.26z" fill="#010100"/><g fill="#fcfafa"><path d="m342.2 3.2-6.3 9.2h6.1v1.2h-8.2v-.5l6.2-9.1h-5.7v-1.2h7.8v.4z"/><path d="m344 13.7v-10.9h3.1c1.6 0 3 .5 4.1 1.4 1.1 1 1.6 2.2 1.6 3.9s-.5 3-1.6 4-2.5 1.5-4.2 1.5h-3zm1.4-9.6v8.4h1.6c1.4 0 2.5-.4 3.2-1.1.8-.8 1.2-1.8 1.2-3.2s-.4-2.4-1.2-3.1-1.8-1-3.1-1z"/><path d="m356.3 2.8v10.9h-1.4v-10.9z"/><path d="m366.6 13.2c-.8.4-1.8.6-3 .6-1.6 0-2.8-.5-3.7-1.5s-1.4-2.3-1.4-3.9c0-1.7.5-3.2 1.6-4.2s2.4-1.6 4-1.6c1 0 1.9.1 2.6.4v1.5c-.8-.4-1.6-.6-2.6-.6-1.2 0-2.2.4-3 1.2s-1.1 1.9-1.1 3.3c0 1.3.4 2.3 1.1 3.1s1.6 1.1 2.8 1.1c1.1 0 2-.2 2.8-.7v1.3z"/><path d="m368.2 13c0-.3.1-.5.3-.6.2-.2.4-.3.6-.3.3 0 .5.1.7.3s.3.4.3.6-.1.5-.3.6c-.2.2-.4.3-.7.3s-.5-.1-.6-.3c-.2-.2-.3-.4-.3-.6z"/><path d="m381.1 13.7h-1.7l-5.5-8.4c-.2-.2-.3-.5-.4-.7 0 .2.1.8.1 1.5v7.6h-1.4v-10.9h1.8l5.3 8.3c.3.4.4.6.4.8 0-.3-.1-.8-.1-1.6v-7.5h1.4v10.9z"/><path d="m389.7 13.7h-5.8v-10.9h5.6v1.2h-4.2v3.5h3.9v1.2h-3.9v3.7h4.4z"/><path d="m398.4 4.1h-3.1v9.6h-1.4v-9.6h-3.1v-1.3h7.7v1.3z"/></g></svg>