<svg enable-background="new 0 0 400 400" viewBox="0 0 400 400" xmlns="http://www.w3.org/2000/svg"><g fill="#010101"><path d="m80.46 375.36c-.75-3.06-.09-5.33 1.86-7.6 25.42-29.6 40.38-63.91 45.03-102.56 2.31-19.2 3.78-38.5 5.35-57.78 1.58-19.4 2.82-38.83 4.26-58.24.08-1.07.46-2.2.98-3.14 5.46-9.78 13.26-17.08 24.12-20.06 10.21-2.8 20.7-4.6 31.08-6.77.94-.2 2.01-.04 2.98.15 14.05 2.75 28.24 2.93 42.45 2.05 9.67-.59 19.24-.71 28.42 3 7.79 3.15 13.95 8.29 19.01 16-1.68 0-2.81 0-3.94 0-31.23 0-62.47-.45-93.68.29-8.81.21-17.85 3.03-26.21 6.18-7.64 2.88-9.74 10.75-11.68 18.23 8.52 4.44 17.43 6.11 26.66 6.66 13.1.78 25.79-2.04 38.59-4 14.6-2.23 29.01-2.09 42.43 5.4 1.07.6 2.09 1.28 3.1 1.98.8.56 1.55 1.2 2.94 2.29-7.28.94-13.86 1.82-20.44 2.65-28.07 3.53-56.15 7.05-84.22 10.58-.11.01-.22.04-.33.05-2.85.44-6.91-.09-8.24 1.56-1.66 2.05-1.11 5.92-1.43 9.01-.32 3.2-.54 6.42-.88 10.53 5.01 0 9.68-.12 14.33.02 28.5.86 57.01 1.66 85.5 2.77 6.11.24 12.23 1.33 18.23 2.59 5.02 1.05 8.54 4.18 9.46 9.89-11.45.7-22.71 1.41-33.96 2.08-27.57 1.62-55.16 3.03-82.71 4.97-5.88.42-10.17 4.7-12.04 10.35-1.36 4.1-1.83 8.5-2.46 12.81-.13.87.53 2.12 1.22 2.79 4.76 4.63 10.73 6.34 17.17 6.31 10.74-.05 21.47-.53 32.21-.49 18.66.06 37.41-1.21 55.9 2.27 7.61 1.43 15.05 3.8 22.56 5.75.01.46.01.92.02 1.38-6.44 1.62-12.81 3.75-19.35 4.74-8.04 1.22-16.22 2.04-24.34 2.08-17.36.09-34.59.86-51.85 3.14-10.12 1.34-20.56.47-30.85.24-3.56-.08-5.12.93-6.38 4.39-4.42 12.17-8.56 24.54-14.19 36.16-9.71 20.05-24.41 35.98-43.43 47.78-.66.41-1.36.77-2.06 1.12-.3.13-.62.2-1.19.4z"/><path d="m237.45 69.58c0-1.34-.08-2.69.01-4.02.47-7.08 1.82-13.55 9-17.38 3.5-1.87 6.69-4.56 9.52-7.38 2.98-2.97 6.19-2.96 9.82-2.23 13.16 2.65 21.19 11.95 22.13 25.48.63 9.06-1.39 17.54-5.4 25.58-.57 1.14-1.55 2.24-2.62 2.91-4.15 2.6-8.22 5.44-12.67 7.41-7.84 3.47-16.56.74-21.79-6.07-5.53-7.18-8.3-15.23-8-24.3zm35.48.04c.35-5.5-2.47-10.31-8.34-13.32-.64-.33-1.49-.65-2.14-.51-6.63 1.42-11.19 6.7-11.34 13.64-.06 2.83.61 5.77 1.43 8.51 1.38 4.57 1.54 4.51 6.42 3.8 1.66-.24 3.34-.35 5-.58 8.91-1.28 8.91-1.28 8.97-11.54z"/><path d="m172.57 71.69c-.33 3.04-.77 6.14-.99 9.25-.75 10.66-9.03 14.58-16.96 18.3-8.94 4.19-17.92 1.53-25.49-3.41-3.31-2.16-4.74-7.62-6.37-11.83-4.22-10.95-.47-21.06 3.97-30.98.36-.8 1.38-1.4 2.22-1.88 5.04-2.9 10.07-5.8 15.19-8.54 1.19-.64 2.74-1 4.09-.9 12.68.95 21.22 8.96 23.41 21.9.46 2.63.62 5.31.93 8.09zm-29.47 13.7c5.38-2.14 10.57-4.13 15.68-6.31.77-.33 1.57-1.54 1.64-2.4.7-9.19-3.6-15.08-12.35-17.16-4.09-.97-9.47 2.16-10.59 6.2-.14.5-.07 1.12.08 1.63 1.8 5.95 3.64 11.89 5.54 18.04z"/><path d="m233.26 62.58c-1.71 7.19-2.86 14.76-5.34 21.86-4.92 14.12-27.16 19.17-37.45 8.43-4.38-4.58-6.4-10.96-7.37-17.36-1.19-7.87 1.63-15.21 3.04-22.76 1.09-5.87 3.75-9.74 9.79-10.86.22-.04.42-.15.64-.21 3.65-1.08 7.77-3.81 10.87-2.94 8.68 2.45 17.27 6.07 22.71 13.89 1.79 2.58 2.01 6.24 3.11 9.95zm-15.75 5.35c.02-4.72-1.49-9.8-5.96-13.74-1.69-1.49-3.17-2.06-5.32-.71-2.64 1.65-5.55 2.88-8.29 4.38-.84.46-1.87 1.04-2.24 1.83-3.6 7.59-2.12 16.96 7.28 19.97 7.34 2.35 14.9-3.07 14.53-11.73z"/></g><path d="m6.4 11.7c-1-.8-1.9-1.6-2.9-2.3l.6-.7c.9.7 1.9 1.4 2.9 2.2zm-2.1 8.3c.7-2.1 1.4-4.2 2-6.4.2.1.6.3 1 .4-.7 2.3-1.3 4.4-1.9 6.4zm3-12.8c-1.1-.9-2.1-1.7-2.9-2.4l.6-.7c1 .8 2 1.5 3 2.4zm1.4-1.3v-.9h10.2v.9c-.9 4.2-2.3 7.3-4.1 9.4 1.3 1.4 3.2 2.7 5.7 4-.2.2-.4.5-.7.9-2.5-1.4-4.4-2.7-5.7-4.2-1.4 1.5-3.5 3-6.1 4.4 0 0 0 0-.1-.1-.3-.4-.5-.7-.7-.8 2.7-1.3 4.7-2.8 6.2-4.2-1.8-2.2-3-5.3-3.7-9.4zm9.2 0h-7.1c.6 3.8 1.7 6.7 3.4 8.7 1.7-2 2.9-4.8 3.7-8.7z" fill="#fbfafa"/><path d="m31.6 3.6h.9v2.3h4.1v9.1h1.7v.9h-16.6v-.9h1.7v-9.1h4.1v-2.3h.9v2.3h3.1v-2.3zm-4 13.3.6.8c-1.9.9-3.8 1.9-5.8 2.8-.2-.3-.3-.6-.5-.9 2-.9 3.9-1.8 5.7-2.7zm-3.2-10.1v3.7h3.1v-3.7zm0 4.5v3.7h3.1v-3.7zm4.1-4.5v3.7h3.1v-3.7zm0 4.5v3.7h3.1v-3.7zm9.1 9.1c-2.1-1.1-4.1-2-5.8-2.7l.5-.8c2.2.9 4.1 1.8 5.8 2.6zm-1.9-13.6h-3.1v3.7h3.1zm-3.2 4.5v3.7h3.1v-3.7z" fill="#fbfafa"/></svg>