<svg enable-background="new 0 0 400 400" viewBox="0 0 400 400" xmlns="http://www.w3.org/2000/svg"><path d="m148.42 215.37c13.57 0 26.16-.37 38.72.13 8.68.35 17.3 1.93 25.96 2.9 2.79.31 5.59.57 8.39.57.72 0 2.03-1.05 2.08-1.69.52-6.79.89-13.59 1.15-20.39.04-.97-.69-2.03-1.23-2.95-2.52-4.32-5.5-8.42-7.58-12.94-3.84-8.33-8.27-16.29-14.2-23.26-4.18-4.91-7.89-9.97-10.07-16.06-.96-2.69-2.71-3.78-5.74-4.15-4.95-.61-9.78-2.2-14.69-3.21-2.56-.52-5.18-.86-7.79-.94-1.93-.06-3.73.14-3.78-2.48-.04-2.26-.7-4.93 2.99-5.07 1.9-.07 3.79-.47 5.68-.43 15.33.27 30.65.48 45.97 1 3.49.12 6.91 1.63 10.42 2.02 4.15.47 4.42-.28 4.63-4.37.23-4.44 1.01-8.86 1.64-13.27.53-3.74-.96-6.29-3.56-9.06-4.08-4.35-8.2-9.08-10.74-14.39-6.44-13.5-15.3-25.18-24.85-36.48-1.95-2.31-3.98-4.57-5.7-7.05-2.78-4.01-6.65-5.54-11.28-5.26-5.5.33-10.68-.74-15.66-2.95-1.33-.59-2.5-1.52-3.75-2.3.05-.49.11-.98.16-1.46 2.97-.44 5.92-.96 8.9-1.31 3.08-.37 6.4.04 9.24-.97 7.82-2.77 15.97-1.25 23.89-2.48 6.62-1.02 13.35-1.57 20.05-1.74 4.38-.11 8.79.86 13.19 1.25 1.85.16 3.9.58 5.55-.01 3.99-1.42 7.38.29 7.73 4.57.25 3 .29 6.04.18 9.05-.81 21.25-1.63 42.49-2.56 63.73-.57 12.96-1.45 25.9-1.97 38.86-.13 3.29.83 6.62.82 9.94-.01 2.73-.83 5.44-1.08 8.18-.72 7.68-1.53 15.37-1.96 23.07-.59 10.7-.71 21.42-1.33 32.11-.34 5.9-1.52 11.76-1.92 17.66-.64 9.59-.97 19.21-1.36 28.82-.36 8.67-.64 17.35-.94 26.02-.2 5.63.27 11.37-.69 16.86-2.22 12.76-.17 25.8-3.13 38.52-1.4 6.02-1.06 12.42-2.09 18.55-.62 3.67-2.25 7.2-3.69 10.68-.31.74-2.3 1.61-2.65 1.34-1.02-.81-2.23-2.17-2.23-3.32 0-4.02.61-8.03.75-12.05.55-16.42.97-32.85 1.54-49.27.23-6.6.82-13.18 1.01-19.78.04-1.51-.47-3.39-1.41-4.53-8.01-9.7-14.42-20.4-20.68-31.28-3.58-6.21-8.74-11.5-13.09-17.29-1.8-2.4-3.6-4.88-4.93-7.55-1.76-3.53-4.39-4.38-7.99-3.8-5.43.88-10.88 1.75-16.09-1.04-2.16-1.15-4.64-1.94-6.41-3.53-1.08-.99-1.07-3.16-1.82-5.72zm45.42-179.11c1.22 2.24 1.89 3.92 2.94 5.31 3.7 4.91 7.34 9.88 11.33 14.55 7.89 9.22 12.87 20.24 19.39 30.31.74 1.14 2.14 1.85 3.23 2.77.51-1.4 1.32-2.77 1.47-4.21.45-4.47-.52-8.87.56-13.52 1.38-5.98 1.05-12.34 1.59-18.52.49-5.54 1.11-11.06 1.79-16.58.35-2.9-.59-3.85-3.55-3.4-1.86.28-3.74.46-5.62.57-7.57.43-15.15.74-22.72 1.27-3.21.21-6.38.87-10.41 1.45zm-2.46 190.24c-.15.35-.29.71-.44 1.06 1.16 1.46 2.35 2.9 3.48 4.38 7.78 10.19 15.91 20.13 21.44 31.85.78 1.66 2.24 3.03 3.5 4.43.38.42 1.4.86 1.68.66.52-.37.96-1.19.99-1.85.31-7.34.51-14.68.82-22.01.06-1.53.33-3.06.67-4.55.94-4.23 1.25-8.41-.36-12.72-1.43 1.13-2.51 2-3.01 2.39-1.75-1.53-2.93-3.45-4.17-3.49-8.2-.29-16.4-.15-24.6-.15zm34.05-50.46c.25-.05.51-.1.76-.15.23-3.32.4-6.65.69-9.96.59-6.74 1.01-13.51 1.92-20.22.81-5.94-.89-9.16-5.94-9.23-7.58-.11-15.17.01-22.75.12-1.15.02-2.28.5-4.23.96 10.13 13.17 19.84 25.83 29.55 38.48z" fill="#010100"/><g fill="#fcfafa"><path d="m342.2 3.2-6.3 9.2h6.1v1.2h-8.2v-.5l6.2-9.1h-5.7v-1.2h7.8v.4z"/><path d="m344 13.7v-10.9h3.1c1.6 0 3 .5 4.1 1.4 1.1 1 1.6 2.2 1.6 3.9s-.5 3-1.6 4-2.5 1.5-4.2 1.5h-3zm1.4-9.6v8.4h1.6c1.4 0 2.5-.4 3.2-1.1.8-.8 1.2-1.8 1.2-3.2s-.4-2.4-1.2-3.1-1.8-1-3.1-1z"/><path d="m356.3 2.8v10.9h-1.4v-10.9z"/><path d="m366.6 13.2c-.8.4-1.8.6-3 .6-1.6 0-2.8-.5-3.7-1.5s-1.4-2.3-1.4-3.9c0-1.7.5-3.2 1.6-4.2s2.4-1.6 4-1.6c1 0 1.9.1 2.6.4v1.5c-.8-.4-1.6-.6-2.6-.6-1.2 0-2.2.4-3 1.2s-1.1 1.9-1.1 3.3c0 1.3.4 2.3 1.1 3.1s1.6 1.1 2.8 1.1c1.1 0 2-.2 2.8-.7v1.3z"/><path d="m368.2 13c0-.3.1-.5.3-.6.2-.2.4-.3.6-.3.3 0 .5.1.7.3s.3.4.3.6-.1.5-.3.6c-.2.2-.4.3-.7.3s-.5-.1-.6-.3c-.2-.2-.3-.4-.3-.6z"/><path d="m381.1 13.7h-1.7l-5.5-8.4c-.2-.2-.3-.5-.4-.7 0 .2.1.8.1 1.5v7.6h-1.4v-10.9h1.8l5.3 8.3c.3.4.4.6.4.8 0-.3-.1-.8-.1-1.6v-7.5h1.4v10.9z"/><path d="m389.7 13.7h-5.8v-10.9h5.6v1.2h-4.2v3.5h3.9v1.2h-3.9v3.7h4.4z"/><path d="m398.4 4.1h-3.1v9.6h-1.4v-9.6h-3.1v-1.3h7.7v1.3z"/></g></svg>