<svg enable-background="new 0 0 400 400" viewBox="0 0 400 400" xmlns="http://www.w3.org/2000/svg"><path d="m374.8 390.4.4-.4c.7.5 1.3 1 1.8 1.4l-.5.5c-.5-.6-1.1-1.1-1.7-1.5zm1 7.3-.6-.3c.5-1.4 1.1-2.8 1.5-4.3.2.1.4.2.6.3-.5 1.3-1 2.8-1.5 4.3zm-.4-10.3.4-.4c.4.3 1 .8 1.7 1.4l-.5.5c-.4-.5-1-1-1.6-1.5zm2.5.3h1.7v-1h.6v1h3.5v-1h.6v1h1.8v.5h-1.8v1.4h-2v1h3.2v2h-3.2v.9h3.3v.5h-3.4c0 .3-.1.6-.1.9h4v.5h-3.7c.7.9 1.9 1.5 3.8 1.7-.1.2-.2.4-.3.6-2.1-.4-3.5-1.1-4-2.1-.4 1-1.8 1.7-4 2.2-.1-.2-.2-.4-.3-.6 2.1-.4 3.4-1 3.8-1.8h-3.4v-.5h3.6c.1-.3.1-.6.2-.9h-3.3v-.5h3.4c0-.3 0-.6 0-.9h-3.2v-2h3.3v-1h-2.1v-1.4h-1.7v-.5zm1.1 3.5v1h2.7c0-.3 0-.4 0-.4 0-.1 0-.2 0-.2 0-.1 0-.2 0-.3h-2.7zm1.2-3v.9h3.5v-.9zm4.7 3h-2.6v.6.4h2.6z" fill="#fbfcfa"/><path d="m393.6 386.7h.6v1.5h2.7v6.1h1.1v.6h-11v-.6h1.1v-6.1h2.7v-1.5h.6v1.5h2.1v-1.5zm-2.7 8.8.4.6c-1.2.6-2.5 1.3-3.8 1.9-.1-.2-.2-.4-.3-.6 1.2-.6 2.5-1.2 3.7-1.9zm-2.2-6.7v2.4h2.1v-2.4zm0 3v2.5h2.1v-2.5zm2.8-3v2.4h2.1v-2.4zm0 3v2.5h2.1v-2.5zm6 6.1c-1.4-.7-2.7-1.3-3.9-1.8l.3-.6c1.5.6 2.7 1.2 3.9 1.7zm-1.2-9.1h-2.1v2.4h2.1zm-2.1 3v2.5h2.1v-2.5z" fill="#fbfcfa"/><path d="m220.02 82.26c0 8.05-.16 16.11.04 24.16.29 11.28.95 22.54 1.26 33.82.25 9.27.69 18.58.21 27.82-.94 18.3.71 36.45 2.23 54.61 1.63 19.6 1.45 39.1-1.76 58.53-.23 1.42-.23 2.9-.23 4.34-.01 26.3.03 52.6-.09 78.9-.01 1.81-1.09 3.62-1.69 5.43-.28.83-.51 1.69-.91 2.46-.52 1.02-1.3 2.84-1.77 2.78-1.56-.21-3.96-.73-4.38-1.79-1.93-4.95-3.75-10.04-4.77-15.24-1.04-5.31-2.85-9.52-7.68-12.59-9.46-6.03-16.99-14.2-23.32-23.38-2.38-3.45-4.22-7.37-5.72-11.3-1.92-5.04-2.24-10.22.73-15.19 1.03-1.71 1.77-3.62 2.41-5.53 4.51-13.54 14.13-24.26 20.32-36.87 2.12-4.31 4.16-8.66 6.27-12.97 1.09-2.23.49-3.49-1.45-5.28-7.29-6.74-14.39-13.71-21.16-20.95-2.28-2.44-3.64-5.87-4.98-9.03-1.7-4.02-1.7-8.07-.06-12.36 2.71-7.1 5.69-13.85 10.24-20.13 4.68-6.45 7.92-13.95 11.69-21.05.78-1.46 1.19-3.13 1.65-4.74 1.29-4.54.88-8.4-3.33-11.61-3.54-2.7-6.41-6.24-9.79-9.17-1.96-1.7-2.98-3.64-2.8-6.11.23-3.18-1.42-5.16-4.01-6.35-6.21-2.85-7.79-8.13-7.19-14.16.42-4.29 2.1-8.45 2.69-12.74 1.17-8.48 5.93-14.89 11.07-21.31 9.77-12.24 19.22-24.73 28.82-37.11 2.51-3.24 5.46-3.23 7.45.41 1.06 1.95 1.54 4.46 1.52 6.71-.11 13.65-.45 27.29-.69 40.94-.04 2.01-.01 4.03-.01 6.04-.27.01-.54.01-.81.01zm-16.14 186.52c-.45-.03-.9-.06-1.34-.1-6.53 8.2-13.61 16.02-19.4 24.71-4.6 6.9-4.35 14.65 1.18 21.57 1.96 2.44 3.67 5.13 5.87 7.32 3.21 3.21 6.49 6.45 10.23 8.97 3.17 2.13 4.95 1 5.28-2.91.26-3.09.25-6.28-.17-9.35-.94-6.78-1.66-13.44-.39-20.33 1.01-5.46 1.47-11.13 1.28-16.68-.14-4.42-1.64-8.8-2.54-13.2zm.54-141.9c.63-2.43 1.51-4.23 1.5-6.03-.13-15.43-.42-30.86-.69-46.29-.02-1.33-.09-2.71-.47-3.97-1.11-3.68-3.77-4.27-6.27-1.46-5.2 5.85-10.41 11.7-15.53 17.62-.76.87-1.37 2.08-1.54 3.21-.49 3.2-.86 6.44-.96 9.67-.04 1.33.3 3.04 1.14 3.98 6.34 7.07 12.83 14 19.31 20.93.66.7 1.64 1.11 3.51 2.34zm-4.13 41.5c-5.22 6.54-9.77 11.92-13.96 17.57-3.8 5.13-5.14 10.61-.64 16.2 4.69 5.82 9.28 11.74 14.14 17.42 1 1.17 3.26 2.3 4.5 1.94 1.17-.34 2.38-2.61 2.52-4.13 1.2-13.43.46-26.8-2.48-39.97-.64-2.88-2.45-5.52-4.08-9.03z" fill="#010101"/></svg>