<svg enable-background="new 0 0 400 400" viewBox="0 0 400 400" xmlns="http://www.w3.org/2000/svg"><g fill="#fcfafa"><path d="m342.2 3.2-6.3 9.2h6.1v1.2h-8.2v-.5l6.2-9.1h-5.7v-1.2h7.8v.4z"/><path d="m344 13.7v-10.9h3.1c1.6 0 3 .5 4.1 1.4 1.1 1 1.6 2.2 1.6 3.9s-.5 3-1.6 4-2.5 1.5-4.2 1.5h-3zm1.4-9.6v8.4h1.6c1.4 0 2.5-.4 3.2-1.1.8-.8 1.2-1.8 1.2-3.2s-.4-2.4-1.2-3.1-1.8-1-3.1-1z"/><path d="m356.3 2.8v10.9h-1.4v-10.9z"/><path d="m366.6 13.2c-.8.4-1.8.6-3 .6-1.6 0-2.8-.5-3.7-1.5s-1.4-2.3-1.4-3.9c0-1.7.5-3.2 1.6-4.2s2.4-1.6 4-1.6c1 0 1.9.1 2.6.4v1.5c-.8-.4-1.6-.6-2.6-.6-1.2 0-2.2.4-3 1.2s-1.1 1.9-1.1 3.3c0 1.3.4 2.3 1.1 3.1s1.6 1.1 2.8 1.1c1.1 0 2-.2 2.8-.7v1.3z"/><path d="m368.2 13c0-.3.1-.5.3-.6.2-.2.4-.3.6-.3.3 0 .5.1.7.3s.3.4.3.6-.1.5-.3.6c-.2.2-.4.3-.7.3s-.5-.1-.6-.3c-.2-.2-.3-.4-.3-.6z"/><path d="m381.1 13.7h-1.7l-5.5-8.4c-.2-.2-.3-.5-.4-.7 0 .2.1.8.1 1.5v7.6h-1.4v-10.9h1.8l5.3 8.3c.3.4.4.6.4.8 0-.3-.1-.8-.1-1.6v-7.5h1.4v10.9z"/><path d="m389.7 13.7h-5.8v-10.9h5.6v1.2h-4.2v3.5h3.9v1.2h-3.9v3.7h4.4z"/><path d="m398.4 4.1h-3.1v9.6h-1.4v-9.6h-3.1v-1.3h7.7v1.3z"/></g><path d="m56.67 347.74c1.72 0 2.71-.08 3.7.01 9.9.91 19.19-1.28 28.48-4.61 15.45-5.54 31.09-10.56 46.69-15.65 4.56-1.49 9.31-2.38 13.91-3.76 2-.6 4.05-1.45 5.73-2.67 3.4-2.48 3.26-5.59-.08-8.01-16.93-12.24-29.03-28.36-37.72-47.16-3.14-6.79-6.3-13.62-8.79-20.66-2.29-6.48-6.6-10.72-12.4-13.81-4.28-2.28-7.7-5.31-9.44-11.14 4.41-.33 8.61-1.31 12.62-.81 11.64 1.43 23.2 3.56 34.82 5.19 3.78.53 6.85 1.78 8.79 5.18.98 1.73 2.29 1.59 3.98 1.03 14.85-4.93 29.65-10 44.61-14.55 7.89-2.4 16.03-4.04 24.14-5.63 3.08-.6 4.54-2.26 4.4-4.88-.36-6.81-1.21-13.62-6.51-18.7-.65-.62-2.44-.57-3.48-.19-9.98 3.59-19.73 7.97-29.9 10.87-32.22 9.18-58.69-1.04-80.44-25.35-10.81-12.09-19.25-25.83-25.9-40.58-1.33-2.95-1.04-6.75-1.04-10.15 0-2.61-.53-4.78-2.29-6.72-6.01-6.61-9.48-14.5-11.69-24.1 4.19.23 8.13.32 12.05.7 9.85.97 17.83 6.15 25.55 11.77.93.68 1.47 2.16 1.78 3.38 1.25 4.86 2.33 9.76 3.57 15.04 4.11-1.28 8-2.47 11.89-3.7 16.09-5.08 32.18-10.17 48.26-15.27 1.06-.34 2.25-.56 3.11-1.19 8.14-5.95 17.55-6.88 27.15-6.84 4.58.02 9.16.42 13.73.8 3.15.26 5.67 2.96 6.34 6.78.55 3.11-.26 5.92-3.28 7.37-12.17 5.85-24.23 11.99-36.66 17.25-14.58 6.16-28.8 12.8-41.55 22.3-3.38 2.52-6.46 5.23-7.44 9.55-.2.88-.27 2.28.23 2.74 7.34 6.67 15.19 12.4 25.9 11.13 2.74-.32 5.46-1.21 8.09-2.13 8.11-2.85 16.19-5.82 24.25-8.83 1.11-.41 2.22-1.11 3.07-1.94 4.56-4.46 9.04-9 13.54-13.53 14.66-14.75 21.88-33.14 26.44-52.98 1.35-5.87 1.61-11.24-.6-16.92-1.9-4.88-3.08-10.04-4.59-15.06-1.82-6.02-8.28-9.94-14.33-8.52-4.46 1.05-8.86 2.34-13.26 3.63-1.03.3-2.06.88-2.87 1.59-5.14 4.51-10.98 7.7-17.61 9.35-19.89 4.98-38.34 13.75-56.4 22.97-12.92 6.6-23.8 2.77-35.05-2.52-1.81-.85-3.36-3.67-3.74-5.81-.48-2.76 2.28-3.64 4.56-4.45 20.2-7.23 40.43-14.36 60.54-21.82 5.2-1.93 9.98-4.95 15-7.36 4.4-2.11 8.92-3.96 13.3-6.12 3.2-1.57 6.21-3.53 9.39-5.16 2.27-1.17 4.59-2.32 7.02-3.05 9.52-2.88 19.02-5.86 28.66-8.28 7.56-1.9 14.86-.14 18.94 6.83 5.97 10.22 12.7 19.97 15.98 31.61 3.52 12.49 2.76 25.06 1.48 37.65-.73 7.22-1.82 14.43-3.18 21.56-.66 3.46-2.17 6.79-3.53 10.08-5.23 12.71-10.55 25.37-15.92 38.26 2.54 2.05 5.17 4.08 7.71 6.23 4.19 3.55 7.13 7.7 8.33 13.34 1.7 7.95 6.32 14.13 13.26 18.64 1.9 1.24 3.57 3.37 4.48 5.47 1.23 2.84.83 5.47-2.72 7.07-3.34 1.5-5.13 4.47-5.53 8.24-.81 7.67-2.23 15.31-2.51 23-.39 10.5-3.77 20.15-7.01 29.9-.99 2.97-1.76 6.04-3.05 8.87-1.44 3.16.03 4.75 2.65 5.49 1.73.49 3.71.29 5.55.11 3.88-.37 7.73-1.33 11.6-1.36 17.58-.15 35.15-.19 52.73.01 5.1.06 10.23.86 15.27 1.78 1.8.33 3.68 1.72 4.95 3.14 2.78 3.1 2.45 5.09-.68 7.84-4.21 3.7-8.4 5.89-14.56 3.87-6.92-2.26-14.19-.5-21.27.63-13.8 2.19-27.65 4.15-41.39 6.68-4.77.88-9.23 3.28-13.91 4.78-5.51 1.77-11 3.82-16.67 4.85-19.79 3.61-38.73 9.62-57.15 17.75-8.93 3.94-18.77 5.77-28.1 8.86-3.76 1.25-7.4 3.05-10.81 5.07-4.8 2.85-9.63 5.79-13.93 9.33-5.39 4.42-11.37 4.32-17.44 3.15-4.23-.82-8.32-2.5-12.38-4.04-4.07-1.54-7.91-3.86-12.08-4.96-7-1.86-11.8-5.77-14.43-12.5-.66-1.64-1.71-3.11-2.91-5.25zm168.45-91.07c-.37-2.53-.5-5.01-1.12-7.36-1.28-4.88-6.48-9.07-10.43-8.24-4.91 1.03-9.91 2.04-14.55 3.88-15.42 6.11-29.07 15.21-41.8 25.74-3.22 2.66-3.28 7.48.13 9.98 3.94 2.89 6.16 6.6 7.29 11.22.61 2.49 1.51 4.91 2.38 7.32.29.79.73 1.74 1.4 2.16 8.94 5.66 18.52 9.09 29.22 6.96 6.27-1.25 12.54-3.94 15.48-9.69 6.72-13.13 9.97-27.43 12-41.97z" fill="#010103"/></svg>