<svg enable-background="new 0 0 400 400" viewBox="0 0 400 400" xmlns="http://www.w3.org/2000/svg"><path d="m5.17 384 .55-.58c.85.61 1.65 1.24 2.4 1.87l-.59.64c-.83-.73-1.62-1.38-2.36-1.93m1.22 9.53-.82-.34c.71-1.76 1.37-3.64 1.98-5.63.24.13.5.25.76.36-.6 1.67-1.24 3.54-1.92 5.61m-.5-13.5.57-.54c.56.44 1.31 1.06 2.26 1.87l-.64.64c-.68-.66-1.41-1.32-2.19-1.97m3.25.46h2.24v-1.36h.77v1.36h4.57v-1.36h.76v1.36h2.28v.69h-2.28v1.84h-2.64v1.26h4.18v2.64h-4.21c0 .45-.02.86-.05 1.21h4.32v.69h-4.38c-.04.34-.1.75-.19 1.22h5.15v.69h-4.82c.87 1.19 2.51 1.92 4.93 2.19-.17.31-.3.57-.37.76-2.77-.49-4.52-1.41-5.26-2.76-.56 1.26-2.3 2.23-5.24 2.9-.12-.24-.26-.48-.43-.72 2.73-.55 4.38-1.34 4.96-2.38h-4.38v-.69h4.65c.1-.38.17-.79.21-1.22h-4.32v-.69h4.4c.03-.34.05-.75.05-1.21h-4.2v-2.64h4.23v-1.26h-2.69v-1.84h-2.24zm1.46 4.46v1.29h3.45c.01-.4.02-.57.01-.53v-.32-.45h-3.46zm1.55-2.59h4.57v-1.19h-4.57zm6.11 2.59h-3.42v.77c-.01.19-.01.37-.02.53h3.44z" fill="#fafafc"/><path d="m32.63 379.16h.82v1.98h3.54v7.89h1.46v.78h-14.37v-.78h1.46v-7.89h3.54v-1.98h.82v1.98h2.73zm-3.49 11.48.5.73c-1.61.82-3.28 1.63-5 2.41-.13-.27-.28-.55-.44-.82 1.75-.72 3.4-1.49 4.94-2.32m-2.78-5.55h2.73v-3.18h-2.73zm0 3.95h2.73v-3.2h-2.73zm3.54-3.95h2.73v-3.18h-2.73zm0 3.95h2.73v-3.2h-2.73zm7.89 4.68c-1.84-.92-3.51-1.7-5.02-2.32l.45-.73c1.89.8 3.57 1.55 5.04 2.23zm-1.62-11.81h-2.73v3.18h2.73zm-2.73 7.13h2.73v-3.2h-2.73z" fill="#fafafc"/><g fill="#010101"><path d="m133.83 375.6c-8.68 0-17.97-.1-27.25.06-2.5.04-4.16-.76-5.75-2.59-2.81-3.25-4.4-6.91-4.92-11.16-.3-2.44.29-3.88 2.71-4.9 9.27-3.91 18.42-8.08 27.69-11.97 2.18-.92 3.05-2.1 3.06-4.45.06-19.78 3.57-39.18 6.38-58.67.38-2.65.66-5.34.68-8.01.08-9.74-.04-19.48.08-29.22.03-2.3-.68-3.63-2.71-4.78-7.49-4.25-14.7-9-22.32-13-8.78-4.6-15.63-11.18-21.21-19.14-11.36-16.2-20.15-33.67-22.8-53.47-1.27-9.48-.84-19.2-1-28.81-.01-.78 1.2-2.11 2.05-2.3 23.65-5.34 47.17-11.39 71.33-14.2 21.22-2.47 42.4-5.23 63.62-7.62 24.29-2.74 48.7-2.58 73.09-2.29 2.28.03 4.64.79 6.82 1.58 8.51 3.09 17.17 3.63 26.05 2.16 3.08-.51 6.26-.48 9.33-1.08 2.7-.53 4.2.55 5.42 2.72 3.89 6.9 4.17 14.47 3.09 21.9-1.9 13.04-4.46 26-6.94 38.95-.47 2.45-1.61 4.87-2.86 7.07-3.87 6.81-8.2 13.36-11.84 20.28-3.57 6.8-8.42 12.1-14.68 16.55-10.39 7.4-20.34 15.41-30.59 23-2.05 1.51-2.45 2.95-1.9 5.3 1.78 7.62 3.46 15.27 4.93 22.95.38 1.97.36 4.34-.39 6.15-2.45 5.86-2.69 11.81-2.29 18.05.84 12.95 1.33 25.94 1.73 38.91.1 3.06.84 4.73 4.1 5.19 10.06 1.44 20.13 2.89 30.12 4.73 4.43.82 8.83 2.26 12.97 4.06 1.81.79 3.36 2.98 4.28 4.89 2.19 4.58 1.25 7.46-3.48 9.12-5.75 2.01-11.69 3.98-17.69 4.63-11.02 1.18-21.88 2.82-32.73 5.2-9.78 2.15-19.93 2.56-29.89 3.91-13.85 1.89-27.63 4.37-41.52 5.82-17.99 1.86-36.08 2.98-54.77 4.48zm51-156.97c.01-.24.03-.48.04-.71 3.02 0 6.04.12 9.05-.02 16.68-.75 33.25-2.27 49.07-8.16 8.87-3.3 17.69-7.18 23.9-14.4 7.29-8.49 14.7-17.19 17.13-28.75.57-2.7 2.05-5.19 2.9-7.85 1.22-3.82 2.76-7.64 3.28-11.57 1.63-12.27-.76-16.01-12.43-17.08-12.46-1.14-24.88-2.85-37.32-4.2-7.43-.8-15.01-2.55-22.32-1.84-15.88 1.56-31.65 4.3-47.43 6.79-13.13 2.07-26.19 4.57-39.31 6.64-4.51.71-9.13.71-13.71.98-3.84.23-16.48 10.64-17.28 14.4-1.95 9.09-.52 17.72 4.8 25.3 4.42 6.3 9.54 12.11 14.37 18.12 4.73 5.89 10.58 10.02 17.88 12.33 5.52 1.75 10.78 4.3 16.2 6.39 1.65.64 3.41 1.19 5.16 1.35 8.66.84 17.34 1.54 26.02 2.28zm43.54 72.55c0-11.3-.09-22.61.06-33.9.04-2.69-.98-4.01-3.12-5.56-4.57-3.31-9.33-4.38-14.79-3.36-2.07.39-4.23.28-6.35.36-8.92.32-17.9.14-26.4 3.64-5.54 2.28-5.57 2.22-5.57 8.19 0 3.92-.13 7.84.03 11.75.3 7.32-.38 14.49-2.38 21.56-1.79 6.34-3.47 12.71-5.16 19.08-1.99 7.47-2.23 14.98-.64 22.59.46 2.19 1.28 2.85 3.56 2.65 10.36-.88 20.73-1.54 31.09-2.3 9.05-.66 18.03-1.62 26.46-5.41 2.31-1.04 3.31-2.32 3.27-5.04-.16-11.42-.06-22.83-.06-34.25z"/><path d="m211.55 26.78c8.93-.36 17.88-1.15 26.8-.95 7.78.17 15.57 1.25 23.29 2.32 4.3.6 7.9 5.83 7.29 9.94-.12.82-1 1.66-1.73 2.23-9.1 7.07-19.6 11.15-30.71 13.56-26.66 5.79-53.59 8.69-80.91 6.8-5.13-.36-10.28-.35-15.4-.77-1.38-.11-3.04-.85-3.94-1.86-3.29-3.67-6.3-7.56-6.34-12.91-.01-2.5.86-4.04 3.24-5.2 13.26-6.44 27.38-9.62 41.93-10.91 12.13-1.07 24.31-1.62 36.46-2.39.01.05.02.09.02.14z"/></g></svg>