<svg enable-background="new 0 0 400 400" viewBox="0 0 400 400" xmlns="http://www.w3.org/2000/svg"><g fill="#fbfafa"><path d="m37.59 393.81c-.92.31-1.52.05-2-.78-.7-1.2-1.52-2.34-2.47-3.78v4.59c-.55.03-.95.05-1.41.07-.03-.37-.06-.64-.06-.91 0-1.91 0-3.81 0-5.7 1.13-.41 1.77-.03 2.29.91.62 1.11 1.38 2.14 2.31 3.19v-4.2h1.35v6.61z"/><path d="m12.94 393.88v-6.75c1.9.19 3.93-.54 5.37 1.29.8 1.01.78 2.88.03 3.97-1.37 1.97-3.4 1.51-5.4 1.49m1.45-1.22c2.04.12 2.92-.58 2.89-2.21-.03-1.51-.98-2.19-2.89-2z"/><path d="m11.81 393.87h-5.49c.68-2.18 2.47-3.48 3.51-5.45h-3.08v-1.21h5.29c-.71 2.13-2.44 3.48-3.47 5.51.86 0 1.63.04 2.39-.01.79-.05 1.14.21.85 1.16"/><path d="m39.33 393.86v-6.61h3.7v1.07h-2.22v1.52c.68.04 1.34.09 2.07.13v1.07c-.72.05-1.38.09-2.1.14v1.48h2.4v1.19h-3.85z"/><path d="m27.71 388.56c-1.15-.3-2.46-.61-3.1.64-.37.73-.41 1.93-.06 2.67.63 1.35 1.99.93 3.17.68.35.94-.01 1.32-.93 1.46-1.62.25-3.05-.27-3.76-1.48-.73-1.24-.6-3.03.31-4.17.88-1.11 2.71-1.7 4-1.16.32.13.44.74.65 1.12-.1.08-.19.16-.28.24"/><path d="m49.15 387.24v1.07c-.59.02-1.17.05-1.87.08v5.44h-1.48v-5.44h-1.85c-.05-.4-.08-.73-.13-1.15z"/><path d="m20.06 387.21h1.33v6.62h-1.33z"/><path d="m30.68 393.25c-.49.38-.8.79-1.05.76-.32-.05-.6-.45-.9-.7.26-.24.51-.64.8-.67.29-.04.62.3 1.15.61"/></g><path d="m85.61 349.14c.45 1.13.98 2.46 1.64 4.12 3.42-1.39 6.77-2.75 10.47-4.25.48 2.02.92 3.88 1.45 6.15 7.73-6.84 16.64-5.48 25.46-4.78 5.75.45 11.33-.27 16.76-2.36 2.56-.98 4.23-2.63 4.76-5.16 1.85-8.96 3.64-17.93 5.16-26.95.18-1.06-1.43-2.41-2.73-4.43.71-4.66 1.68-10.38 2.41-16.13.2-1.57.11-3.39-.51-4.82-3.88-8.93-6.95-17.93-3.88-27.96-.34-.1-.67-.21-1.01-.31-.84.97-1.5 2.25-2.55 2.83-1.32.73-3.08 1.45-4.44 1.16-1.99-.42-2.93.2-3.79 1.73-.85 1.51-.61 2.58.81 3.69 2.19 1.72 4.21 3.66 6.58 5.76-2.53.63-4.11.63-6.09-1.33-2.64-2.61-6.12-4.4-9.32-6.42-1.7-1.07-3.49-2.07-5.38-2.71-5.26-1.8-8.89-5.24-11.41-10.13-.73-1.41-2.08-2.61-3.4-3.57-6.24-4.55-12.6-8.92-18.82-13.49-1.27-.94-2.42-2.34-3.05-3.78-4.12-9.41-8.14-18.88-12.04-28.38-.6-1.46-.75-3.23-.63-4.82.38-4.91 1.02-9.79 1.48-14.69.1-1.08.26-2.44-.26-3.24-3.62-5.53-4.28-10.51 2.72-14.59-4.07-1.46-5.15-4.18-5.3-7.76-.16-4.04 4.1-4.62 5.55-7.81-1.85 0-3.45 0-5.55 0 1.02-5.6 2.15-10.8 2.89-16.05 2.55-18.04 4.97-36.11 7.42-54.16.77-5.65 1.44-11.32 2.18-16.97.1-.77.05-1.98.49-2.24 3.89-2.24 1.55-5.22 1.27-8.09-.61-6.35 1.48-12.16 4.56-17.55 2.32-4.06 5.06-7.9 7.83-11.69.67-.92 2.67-2.02 3.2-1.68 1.33.84 2.25 2.39 3.13 3.79.27.44-.11 1.29-.2 1.96-1.87 13.94-3.84 27.88-5.58 41.84-2.03 16.31-4.06 32.63-5.7 48.98-.85 8.53-1.23 17.16-1.08 25.73.09 5.28 5.7 8.09 10.57 5.92 2.52-1.13 4.34-.57 5.73 1.65.86 1.39 1.58 2.86 2.79 5.07 1.26-6.61 5.2-5.64 9.95-5.44 7.2.31 14.46-1.32 21.71-1.64 10.95-.49 21.91-.64 32.87-.8 19.13-.28 38.26-.74 57.39-.59 11.84.09 23.68 1.08 35.5 1.88 2.72.18 3.95-.54 4.83-3.14 3.41-10.13 8.67-19.69 9.14-30.69.37-8.71.85-17.43 1.12-26.14.3-9.41.31-18.9 4.57-27.57 1.89-3.84 4.63-7.26 7.51-10.76 2.6 4.61 6.45 8.16 5.97 13.9-.59 7.02-.55 14.08-.87 21.13-.05 1.06-.24 2.34-.87 3.12-6.42 8.05-6.3 17.34-5.41 26.86.64 6.94 1.53 13.92 1.25 20.85-.12 2.93-2.84 5.81-4.58 8.59-.87 1.38-2.2 2.46-3.49 3.86 3.92 2.47 4.38 6.12 3.1 9.8-2.01 5.78-4.5 11.4-6.81 17.08-.38.93-.93 1.79-1.32 2.71-3.62 8.75-9.55 15.62-15.79 22.77-13.38 15.33-30.08 25.92-46.67 36.87-2.47 1.63-3.1 3.21-2.57 5.95 1.04 5.38 1.09 11.06 2.91 16.13 1.44 4.02 2.73 7.68 2.64 12.06-.04 1.9 2.4 3.88 3.76 5.78 9.51 13.22 9.5 13.22 10.86 29.26.12 1.41.29 3.04 1.06 4.15 6.8 9.82 10.02 21.14 13.6 32.3.71 2.23 1.8 3.08 4.14 3.45 19.65 3.11 39.27 6.41 58.91 9.6 4.3.7 8.67 1.02 12.95 1.79 3.77.67 6.73 2.76 9.09 6.46-3.06.25-5.78.4-8.49.72-8.76 1.03-17.56 1.8-26.23 3.32-5.66.99-10.86-.6-16.22-1.34-5.87-.8-11.65-2.31-17.53-2.89-4.16-.41-8.54-.31-12.62.54-6.19 1.29-11.71-.05-17.15-2.62-4.76-2.24-9.6-3.59-14.93-2.44-.75.16-1.93-.65-2.6-1.33-.83-.85-1.34-2.01-2.16-3.33-4.49 4.67-9.98 4.26-15.38 3.16-6.67-1.36-13.23-3.27-19.87-4.79-1.44-.33-3.19-.46-4.5.05-4.68 1.84-9.33 2.29-14.38 1.68-14.61-1.77-28.96 1.18-43.39 2.84-7.41.86-14.93.81-22.4 1-.78.02-1.92-.92-2.3-1.7-.82-1.67-1.25-3.53-2.08-6.02-4.44 6.35-10.3 6.61-16.69 5.44-2.48-.45-5.05-.48-6.78 2.34-1.04 1.7-4.48 1.3-5.72-.42-1.81-2.5-3.51-5.08-5.51-7.98-.52 1.16-.85 1.9-1.21 2.69-1.78-3-.54-4.26 2.14-5.98 7.7-4.99 16.01-5.69 24.96-4.6zm53.17-86.39c5.37-10.55 12.32-17.32 24.7-13.91.62-4.62 7.65-7.29 12.42-4.28 3.75-5.8 9.76-8.5 15.69-11.46 6.56-3.28 13.27-6.49 19.18-10.76 5.4-3.91 10.69-7.55 17.19-9.29 2.66-.71 5.77-1.37 7.63-3.14 9.71-9.26 19.11-18.86 28.55-28.41.55-.55.91-1.89.63-2.55-1.01-2.37-2.71-4.27-5.53-4.12-3.86.2-7.27-.69-10.37-3.77-.97 1.36-1.8 2.53-2.64 3.71-2.43-1.41-4.29-2.67-6.31-3.58-.95-.43-2.53-.64-3.27-.13-3.49 2.39-7.19 2.54-11.18 1.99-2.18-.3-4.48-.16-6.68.16-7.15 1.04-14.06 1.15-20-4.16-4.76 4.38-9.37 9.03-14.64 3.02-3.19 1.33-5.74 2.39-8.28 3.45-1.23.52-2.58.86-3.68 1.59-2.57 1.72-4.86 1.15-7.1-.53-1.16-.87-2.26-1.83-3.41-2.72-2.23-1.73-4.6-1.98-6.66.07-1.71 1.71-3.13 1.42-4.98.34-1.14-.66-2.14-1.16-4.06-.63-6.79 1.89-14.14 3.43-20.63-.07-4.24-2.29-7.98-1.91-12.13-1.3-1.11.16-2.21.35-3.31.52-6.48.98-12.96 1.95-19.56 2.95 0 9.41-.04 18.47.07 27.52.01.96.7 2.18 1.46 2.81 3.5 2.87 4.51 6.37 3.22 10.65-.29.95-.6 2.02-.45 2.97.32 1.91.95 3.76 1.59 6.17 2.09-1.71 3.35-2.75 4.84-3.97 3.01 4.02 6.03 7.75 8.71 11.71 2.26 3.34 5.17 5.62 8.66 7.61 3.01 1.71 5.78 4.09 8.12 6.67 4.1 4.54 7.8 9.46 12.21 14.87zm19.38 63.39c0 3.2.19 6.01-.06 8.78-.23 2.57.86 4.16 2.74 5.65 7.35 5.83 15.73 6.83 24.73 5.88 5.42-.57 10.93-.99 16.34-.62 6.55.45 11.99 3.92 16.77 8.55 2.82-2 5.46-3.86 8.09-5.73 4.14-2.95 4.16-7.18.63-10.96-1.97-2.11-4.49-5.07-4.35-7.51.44-7.62-2.26-14.24-4.77-21.04-3.44-9.32-6.79-18.58-8-28.62-.83-6.91-3.35-13.63-5.21-20.4-.28-1-.92-2.16-1.75-2.69-2.79-1.79-5.75-3.33-8.76-5.04-1.57 2.18-2.98 4.12-4.56 6.31-1.1-2.12-2.07-3.99-3.23-6.22-2.17 3.69-4.38 7.03-6.13 10.6-1.45 2.95-3.75 3.4-6.71 3.48.19-1.93.36-3.63.52-5.33-3.32 3.35-5.96 7.05-8.84 10.55-2.54 3.09-3.13 6.54-2.79 10.36.15 1.65.69 3.96-.14 4.87-2.7 2.93-.86 5.21.26 7.76.39.89.71 1.92.68 2.88-.18 7.05-.32 14.1-.74 21.13-.19 3.12-.72 6.37-4.72 7.36zm-65.74-239.43c-.72 3.04-1.33 5.59-1.94 8.14.28.16.55.32.83.47 1.65-1.79 3.31-3.58 5.16-5.59-1.4-1.04-2.36-1.76-4.05-3.02zm-11.94 45.36c-.38 2.03-.63 3.42-.9 4.85h4.8c-1.37-1.7-2.43-3.03-3.9-4.85zm19.59 106.21c-1.12-1.48-1.96-2.61-3.27-4.34-.32 2.59-.52 4.2-.77 6.25 1.49-.71 2.56-1.21 4.04-1.91z" fill="#010000"/><path d="m140.79 119.56c0-1.84.11-2.93-.02-3.98-.41-3.26-2.92-4.73-5.75-3.42-4.45 2.05-5.53 1.77-8.15-2.1-1.55-2.29-.74-5.95 1.59-8.55 4.86-5.43 10.9-7.81 18.11-8.73 13.63-1.74 27.14-4.44 40.76-6.32 4.7-.65 9.63-.52 14.33.13 2.89.4 5.56 2.44 8.78 3.96 5.41-4.82 11.89-.99 18.2-.18.66.08 1.21 1.9 1.62 2.99.51 1.34.81 2.76 1.29 4.43-9.73 5.95-19.39 12-31.22 11.86-5.18-.06-10.36-1.48-15.51-2.4-1.56-.28-2.98-.59-3.4 1.41-.51 2.42-2.2 3.67-4.31 3.15-1.18-.29-1.97-2.19-2.92-3.37-.21-.26-.36-.57-.74-1.18-2.76 4.46-7.12 4.14-11.44 4.07-2.78-.04-5.57.26-8.35.18-3.18-.09-5.53 1.32-7.67 3.46-1.45 1.44-3.09 2.74-5.2 4.59zm13.35-23.08c.27 2.71.55 5.42.82 8.13 3.01-2.92.1-5.43-.82-8.13z" fill="#010000"/></svg>