<svg enable-background="new 0 0 400 400" viewBox="0 0 400 400" xmlns="http://www.w3.org/2000/svg"><path d="m5.17 384 .55-.58c.85.61 1.65 1.24 2.4 1.87l-.59.64c-.83-.73-1.62-1.38-2.36-1.93m1.22 9.53-.82-.34c.71-1.76 1.37-3.64 1.98-5.63.24.13.5.25.76.36-.6 1.67-1.24 3.54-1.92 5.61m-.5-13.5.57-.54c.56.44 1.31 1.06 2.26 1.87l-.64.64c-.68-.66-1.41-1.32-2.19-1.97m3.25.46h2.24v-1.36h.77v1.36h4.57v-1.36h.76v1.36h2.28v.69h-2.28v1.84h-2.64v1.26h4.18v2.64h-4.21c0 .45-.02.86-.05 1.21h4.32v.69h-4.38c-.04.34-.1.75-.19 1.22h5.15v.69h-4.82c.87 1.19 2.51 1.92 4.93 2.19-.17.31-.3.57-.37.76-2.77-.49-4.52-1.41-5.26-2.76-.56 1.26-2.3 2.23-5.24 2.9-.12-.24-.26-.48-.43-.72 2.73-.55 4.38-1.34 4.96-2.38h-4.38v-.69h4.65c.1-.38.17-.79.21-1.22h-4.32v-.69h4.4c.03-.34.05-.75.05-1.21h-4.2v-2.64h4.23v-1.26h-2.69v-1.84h-2.24zm1.46 4.46v1.29h3.45c.01-.4.02-.57.01-.53v-.32-.45h-3.46zm1.55-2.59h4.57v-1.19h-4.57zm6.11 2.59h-3.42v.77c-.01.19-.01.37-.02.53h3.44z" fill="#fafafc"/><path d="m32.63 379.16h.82v1.98h3.54v7.89h1.46v.78h-14.37v-.78h1.46v-7.89h3.54v-1.98h.82v1.98h2.73zm-3.49 11.48.5.73c-1.61.82-3.28 1.63-5 2.41-.13-.27-.28-.55-.44-.82 1.75-.72 3.4-1.49 4.94-2.32m-2.78-5.55h2.73v-3.18h-2.73zm0 3.95h2.73v-3.2h-2.73zm3.54-3.95h2.73v-3.18h-2.73zm0 3.95h2.73v-3.2h-2.73zm7.89 4.68c-1.84-.92-3.51-1.7-5.02-2.32l.45-.73c1.89.8 3.57 1.55 5.04 2.23zm-1.62-11.81h-2.73v3.18h2.73zm-2.73 7.13h2.73v-3.2h-2.73z" fill="#fafafc"/><g fill="#010101"><path d="m158.02 367.65c-8.17 0-16.34.15-24.5-.04-8.33-.2-16.23 1.47-23.78 4.83-6.19 2.75-12.52 4.05-19.25 2.57-.54-.12-1.3.03-1.62-.29-5.72-5.49-13.13-9.58-15.04-18.26-.57-2.59.2-4.06 2.57-5.33 8.06-4.33 16.5-4.16 25.16-2.76 7.14 1.15 14.2.89 21.28-.91 4.69-1.19 7.59-4 8.64-8.37 1.79-7.48 3.41-15.03 4.53-22.64 3.21-21.91 6.12-43.85 9.17-65.78 2.46-17.72 4.98-35.43 7.36-53.16.12-.9-.64-2.52-1.4-2.83-2.54-1.05-5.27-2.33-7.93-2.34-23.16-.07-37.26-13.8-47.94-32.08-8.27-14.15-10.87-29.52-5.99-45.55 1.36-4.46 3.48-8.69 5.45-12.94.44-.95 1.64-1.83 2.68-2.17 26.64-8.64 53.78-15.28 81.57-18.74 18.51-2.3 37.15-3.69 55.77-5 5.15-.36 10.41 1.27 15.65 1.56 11.27.62 22.56 1.27 33.84 1.32 11.24.06 19.63 4.66 25.3 14.18 5.47 9.2 8.3 19.26 8.63 29.96.06 1.93-.51 3.99-1.23 5.81-2.38 5.99-4.9 11.92-7.53 17.81-.74 1.66-1.82 3.33-3.15 4.53-8.22 7.39-17.85 12.62-27.57 17.74-5.34 2.81-10.55 5.87-15.69 9.02-1.08.66-2.18 2.16-2.28 3.36-.41 4.6-2.17 8.61-4.44 12.5-1.22 2.09-1.03 4.11-.78 6.57.48 4.7-.08 9.58-.74 14.31-3.77 26.92-7.48 53.86-8.09 81.08-.26 11.43.76 22.79 3.64 33.93.58 2.23 1.69 3.32 3.9 3.89 10.28 2.63 20.63 1.84 31.01.9 7.44-.68 14.91-1.73 22.35-1.62 9.44.15 13.77 5.73 12.49 15.01-.18 1.28-1.29 2.83-2.41 3.5-6.2 3.7-13.11 3.72-20.11 4-12.38.5-24.77 1.2-37.08 2.58-23.89 2.68-47.68 6.27-71.59 8.72-10.18 1.04-20.55.17-30.84.17 0 .32 0 .64-.01.96zm82.93-270.14c-2.35 0-4.71-.18-7.04.03-25.5 2.24-51.02 4.33-76.49 6.93-8.02.82-16.33 1.07-23.63 5.51-4.68 2.85-10.87 4.35-13.99 8.33-3.28 4.18-3.7 10.6-5.39 16.04-1.91 6.15-.64 11.7 3.16 16.76 1.48 1.96 2.92 4 4.69 5.68 1.31 1.24 3 2.32 4.71 2.84 7.37 2.24 14.79 4.36 22.26 6.27 2.43.62 5.1.88 7.58.6 31-3.47 61.98-7.17 93-10.53 6.53-.71 12.32-2.22 17.32-6.75 3.38-3.07 7.32-5.51 10.99-8.27.79-.6 1.78-1.23 2.11-2.08 2.51-6.3 5.55-12.49 7.14-19.02 2.06-8.49-1.9-14.14-10.13-17.04-11.77-4.15-23.88-5.72-36.29-5.3zm-22.37 166.59c-6.41 0-12.57.26-18.7-.06-9.18-.48-17.95.82-26.6 3.99-3.04 1.12-4.34 2.54-4.94 5.66-3.86 20.18-7.31 40.5-16.05 59.37-.32.69-.66 1.52-.56 2.22.43 3.16 6.1 8.38 9.46 8.7 17.8 1.69 35.55 1.06 53.2-1.56 5.1-.76 10.04-2.54 15.27-3.9-4.39-14.53-5.77-28.69-5.44-42.89.25-10.91-3.02-20.92-5.64-31.53zm-23.78-21.82c8.08-1.51 17.5-3.21 26.87-5.12.95-.19 2.21-1.53 2.38-2.51 1.8-10.11 3.39-20.25 5.06-30.38.78-4.72-.24-9.14-3.63-12.36-3.1-2.95-6.85-5.24-10.5-7.53-1.04-.66-2.8-.68-4.08-.38-9.67 2.24-19.28 4.77-28.98 6.9-3 .66-4.42 2.29-4.25 4.94.32 5.19.8 10.41 1.74 15.53 1.21 6.63.11 12.56-4.68 17.32-2.13 2.12-2.64 3.76-.94 6.21 1.32 1.91 1.35 4.78 4.59 5.14 4.96.53 9.91 1.33 16.42 2.24z"/><path d="m131.27 45.7c6.21-5.59 13.44-7.83 21.29-8.66 24.13-2.55 48.26-5.18 72.39-7.74 13.57-1.44 27.12-3.19 40.73-4.03 5.17-.32 10.62 1.04 15.67 2.53 4.53 1.34 6.33 5.09 5.71 9.79-.18 1.39-1 3.02-2.05 3.91-5.73 4.84-12.33 7.55-19.95 7.57-8.39.02-16.8-.17-25.17.33-4.74.28-9.53 1.38-14.1 2.76-9.18 2.78-18.45 3.14-27.84 1.94-5.98-.76-11.15.08-16.3 3.84-5.13 3.76-11.79 3.47-17.86 2.83-8.54-.89-17-2.6-25.46-4.11-1-.18-2.15-1.14-2.67-2.06-1.58-2.8-2.88-5.77-4.39-8.9z"/></g></svg>