<svg enable-background="new 0 0 400 400" viewBox="0 0 400 400" xmlns="http://www.w3.org/2000/svg"><path d="m362.1 8.8c1.1.8 2.1 1.6 3.1 2.4l-1 1.1c-1.3-1.1-2.3-2-3-2.5zm1.9 4.8c.5.2.9.4 1.4.5-.6 2.3-1.3 4.5-1.9 6.8l-1.5-.5c.8-2.1 1.4-4.3 2-6.8zm-1-9.4c1.3.9 2.4 1.8 3.4 2.5l-1 1.1c-1.4-1.2-2.4-2.1-3.2-2.6zm3.7 2.2v-1.4h10.3v1.2c-.5 3.6-1.8 6.8-4 9.4 1.5 1.6 3.4 2.8 5.7 3.8-.3.4-.7.8-1.1 1.4-2.3-1.1-4.1-2.5-5.6-4.1-1.6 1.6-3.6 3.1-5.9 4.3-.3-.5-.7-.9-1-1.3 2.4-1.1 4.4-2.5 6-4.1-1.9-2.5-3-5.6-3.3-9.3h-1.1zm8.8 0h-6.4c.3 3.3 1.3 6 3 8.2 2-2.3 3.1-5.1 3.4-8.2z" fill="#fbfcfa"/><path d="m385.3 3.8h1.3v2.2h2.8v-2.2h1.3v2.2h4.1v9.1h1.7v1.3h-16.9v-1.3h1.7v-9.1h4.1v-2.2zm.4 13.1.7 1.2c-1.8.9-3.8 1.9-6 2.9-.2-.4-.5-.8-.8-1.3 2.3-1 4.3-1.9 6.1-2.8zm-3.1-6.4h2.8v-3.2h-2.8zm0 4.6h2.8v-3.3h-2.8zm4-4.6h2.8v-3.2h-2.8zm0 4.6h2.8v-3.3h-2.8zm3.7 1.9c2.1.9 4.1 1.8 6.1 2.7l-.7 1.3c-2.2-1.1-4.2-2-6.1-2.9zm3.2-9.7h-2.8v3.2h2.8zm-2.8 7.8h2.8v-3.3h-2.8z" fill="#fbfcfa"/><g fill="#010106"><path d="m35.97 349.16c35.06-3.37 69.23-6.66 103.8-9.98-.42-1.41-.69-2.58-1.11-3.69-4.36-11.61-8.28-23.42-13.25-34.76-5.03-11.48-5.56-23.12-3.77-35.17 3.61-24.25 11.33-47.35 19.69-70.26 1.07-2.93.99-4.9-1.19-7.4-10.55-12.05-16.33-26.37-18.52-42.07-2.48-17.82-2.69-35.79 4.53-52.56 9.79-22.77 24.66-41.67 48.9-50.17 19.14-6.71 38.95-8.18 58.39-.07 12.51 5.22 22.19 14.09 30.61 24.48 9.17 11.31 16.05 23.67 17.58 38.49 1.35 13.11-.44 25.88-4.04 38.47-4.2 14.69-10.4 28.54-17.68 41.93-1.33 2.45-2.69 4.89-3.81 6.92 5.37 7.8 11 15.07 15.64 22.93 7.93 13.41 14.1 27.57 12.98 43.69-.53 7.69-.98 15.48-2.62 22.97-3.89 17.77-8.47 35.39-12.88 53.55 29.62 4.14 59.89 8.37 90.85 12.69-1.23.53-1.85.88-2.52 1.07-21.17 5.99-42.82 9.19-64.66 11.38-33.23 3.34-66.57 3.82-99.92 3.18-42.07-.81-84.06-2.99-125.72-9.33-9.83-1.5-19.57-3.58-29.35-5.41-.39-.06-.76-.33-1.93-.88zm225.08-79.99c-.67-8.02-.94-16.1-2.09-24.04-2.58-17.76-11.88-30.45-29.77-34.9-7.92-1.97-16.36-2.41-24.57-2.48-15.44-.14-29.95 3.57-42.37 13.29-2.67 2.09-5.77 4.47-7.03 7.41-8.6 20.08-12.56 40.99-9.64 62.88 2.72 20.42 12.56 35.59 32.29 43.34 13.02 5.12 26.51 6.04 40.25 4.3 17.88-2.26 29.39-12.42 35.72-28.98 5.01-13.14 6.91-26.79 7.21-40.82zm.84-158.74c.83-12-4.35-24.62-16.34-33.73-6.52-4.96-14.02-8.67-21.19-12.73-6.25-3.54-12.83-4.79-19.85-2.14-2.07.78-4.36.94-6.53 1.51-11.6 3.02-23.07 6.36-33.27 12.98-5.41 3.52-9.24 8.16-11.65 14.27-5.2 13.19-7.5 26.93-8.02 40.95-.82 21.8 8.55 35.06 29.25 41.89 14.11 4.66 28.55 5.11 43.08 2.34 10.15-1.93 19.06-6.43 26.22-13.97 12.83-13.51 18.26-29.89 18.3-51.37z"/><path d="m179.6 265.97c-1.27-6.43 1.81-12.04 8.45-15.99 1.43-.85 2.81-1.94 3.86-3.21 3.36-4.06 7.48-3.97 12.11-2.9 9.61 2.24 16.55 7.71 20.48 16.71 3.32 7.6 1.77 14.63-3.25 21.05-5.64 7.21-12.8 11.22-22.13 9.84-13.67-2-20.09-10.1-19.52-25.5z"/><path d="m190.65 96.87c5.47 1.26 11.17 2.02 16.47 3.92 8.66 3.1 11.89 9.4 9.72 18.32-1.23 5.07-2.82 10.15-5.05 14.85-3.83 8.05-9.99 10.78-18.58 8.18-4.19-1.27-8.16-3.56-11.89-5.93-3.81-2.42-4.95-6.55-4.72-10.87.53-9.74 4.57-18.37 9.11-26.73.57-1.07 3.01-1.11 4.94-1.74z"/></g></svg>