<svg enable-background="new 0 0 400 400" viewBox="0 0 400 400" xmlns="http://www.w3.org/2000/svg"><g fill="#fbfafa"><path d="m37.59 393.81c-.92.31-1.52.05-2-.78-.7-1.2-1.52-2.34-2.47-3.78v4.59c-.55.03-.95.05-1.41.07-.03-.37-.06-.64-.06-.91 0-1.91 0-3.81 0-5.7 1.13-.41 1.77-.03 2.29.91.62 1.11 1.38 2.14 2.31 3.19v-4.2h1.35v6.61z"/><path d="m12.94 393.88v-6.75c1.9.19 3.93-.54 5.37 1.29.8 1.01.78 2.88.03 3.97-1.37 1.97-3.4 1.51-5.4 1.49m1.45-1.22c2.04.12 2.92-.58 2.89-2.21-.03-1.51-.98-2.19-2.89-2z"/><path d="m11.81 393.87h-5.49c.68-2.18 2.47-3.48 3.51-5.45h-3.08v-1.21h5.29c-.71 2.13-2.44 3.48-3.47 5.51.86 0 1.63.04 2.39-.01.79-.05 1.14.21.85 1.16"/><path d="m39.33 393.86v-6.61h3.7v1.07h-2.22v1.52c.68.04 1.34.09 2.07.13v1.07c-.72.05-1.38.09-2.1.14v1.48h2.4v1.19h-3.85z"/><path d="m27.71 388.56c-1.15-.3-2.46-.61-3.1.64-.37.73-.41 1.93-.06 2.67.63 1.35 1.99.93 3.17.68.35.94-.01 1.32-.93 1.46-1.62.25-3.05-.27-3.76-1.48-.73-1.24-.6-3.03.31-4.17.88-1.11 2.71-1.7 4-1.16.32.13.44.74.65 1.12-.1.08-.19.16-.28.24"/><path d="m49.15 387.24v1.07c-.59.02-1.17.05-1.87.08v5.44h-1.48v-5.44h-1.85c-.05-.4-.08-.73-.13-1.15z"/><path d="m20.06 387.21h1.33v6.62h-1.33z"/><path d="m30.68 393.25c-.49.38-.8.79-1.05.76-.32-.05-.6-.45-.9-.7.26-.24.51-.64.8-.67.29-.04.62.3 1.15.61"/></g><path d="m50.69 331.4c13.39 1.65 26.58 3.28 39.78 4.9 8.44 1.04 16.86 2.19 25.32 2.99 1.59.15 3.7-.72 4.9-1.83 3.37-3.13 4.81-7.41 4.56-11.86-.37-6.79-1.44-13.53-2.03-20.31-.17-1.89-.14-4.02.55-5.73 8.03-19.89 16.19-39.74 24.37-59.57.85-2.06 1.02-3.83.18-6.02-6.34-16.72-12.48-33.51-18.8-50.23-.54-1.43-1.74-2.82-3-3.71-3.01-2.12-6.1-4.22-9.41-5.81-3.99-1.92-5.86-5.06-7.17-9.06-5.23-15.94-7.9-32.38-9.28-49-1.03-12.36-1.07-24.79-1.62-37.19-.5-11.28 3.78-21.48 7.26-31.82 2.22-6.6 2.09-7.26-3.01-13.92.86-2.58 1.73-5.22 2.7-8.14.99.5 1.85.89 2.65 1.36 10.02 5.91 20 11.88 30.07 17.69 1.56.9 3.51 1.43 5.31 1.52 19.62.94 39.11-.92 58.6-2.85 13.78-1.36 27.5-1.27 40.72 3.74 2.19.83 4.28 1.9 6.63 2.96 7.04-7.57 16.57-8.53 26.1-8.4 9.46.13 18.92 1.2 28.37 2.01 5.23.45 7.96 3.25 9.31 8.62 5.18 20.49 9.43 41.12 6.9 62.32-1.33 11.17-4.3 22.14-6.64 33.17-.2.97-1.12 1.88-1.91 2.6-2.64 2.42-5.21 4.96-8.11 7.04-5.14 3.68-8.13 8.59-10.15 14.49-2.28 6.65-5.06 13.14-7.83 19.61-.65 1.51-1.9 3.04-3.28 3.91-10.6 6.66-21.26 13.25-32.02 19.66-2.37 1.41-3.17 3.1-3.17 5.68 0 9.99 3.38 19.14 7.3 28.03 7.8 17.68 16.47 35 23.82 52.86 4.29 10.42 11.31 18.64 17.9 27.33.58.76 1.8 1.25 2.8 1.45 7.93 1.55 15.52.1 23.06-2.45 3.98-1.34 8.13-2.44 12.28-2.92 3.98-.46 7.35 1.45 9.99 4.96-.82.6-1.54 1.2-2.34 1.7-15.01 9.32-29.98 18.72-45.09 27.88-6.44 3.9-13.84 5.4-21.18 5.62-9.69.29-19.4-.49-29.11-.79-3.91-.12-7.83-.17-11.74-.31-6.34-.23-11.67 2.68-17.02 5.47-1.97 1.03-3.29 1.25-5.26-.42-5.35-4.53-11.66-4.71-18.07-2.69-7.99 2.52-15.94 5.18-23.85 7.91-2.19.76-4.15.77-6-.58-6.27-4.58-12.98-5.27-20.17-2.48-5.41 2.1-10.51 1.38-15.79-1.03-6.29-2.87-13.08-4.65-19.33-7.6-11.22-5.3-23.33-6.53-35.24-8.89-5.54-1.1-11.12-2.73-16.25-5.05-6.69-2.98-9.21-9.29-7.56-16.82zm156.68-131.33c10.2.21 20.53-1.1 30.46-5.08 7.25-2.91 13.93-6.65 16.58-14.52 2.46-7.33 7.61-11.55 14.22-14.69 1.21-.58 2.43-2 2.82-3.28 3.95-12.81 8.03-25.58 11.48-38.53 5-18.74 4.37-36.54-10.15-51.6-1.64-1.7-3.11-2.41-5.37-2.5-22.89-.98-45.79-1.91-68.66-3.16-9.37-.51-18.46-.22-27.23 3.62-3.05 1.34-6.32 2.23-9.57 3.04-1.51.38-3.32.45-4.79 0-6.63-1.99-13.17-4.29-19.8-6.3-1.08-.33-2.74-.19-3.59.45-4.97 3.74-8.8 8.18-8.19 15.06.18 1.99-.18 4.02-.21 6.03-.26 20.23 3.79 39.77 9.76 58.96 4.48 14.4 10.61 28.01 20.4 39.68 1.29 1.54 3.12 2.89 4.98 3.67 14.85 6.16 30.5 8.39 46.86 9.15zm-47.84 38.93c1.13 4.95 2.41 9.47 3.11 14.09.44 2.86.48 5.98-.16 8.78-2.36 10.46-5.25 20.79-7.61 31.25-2.68 11.83-6.67 23.19-14.93 32.17-4.53 4.92-4.78 9.11-1.87 14.36.05.1.03.27.1.31.98.61 1.99 1.76 2.95 1.72 28.71-1.05 57.41-2.22 86.12-3.38 5.42-.22 10.85-.47 16.41-.71.54-13.56-.85-26.49-5.03-38.82-6.34-18.7-14.11-36.93-17.72-56.49-.69-3.74-3.32-6.46-6.64-7.98-3.82-1.75-7.83-3.45-11.94-4.17-5.45-.96-11.42-2.34-16.54-1.04-8.89 2.27-17.31 6.43-26.25 9.91z" fill="#010000"/><path d="m171.77 129.86c11.17-4.1 21.72-9.03 32.82-11.69 7.26-1.74 15.35-.71 22.97.08 5.39.56 8.03 5.27 9.69 10.11.23.66-.48 2.1-1.17 2.55-6.46 4.22-12.99 8.32-19.54 12.38-.79.49-1.87.81-2.8.76-11.05-.55-22.1-1.23-33.15-1.74-1.97-.09-2.98-.8-3.78-2.54-1.5-3.24-3.23-6.37-5.04-9.91z" fill="#010000"/></svg>