<svg viewBox="0 0 400 400" xmlns="http://www.w3.org/2000/svg"><rect width="400" height="400" fill="white" /><g fill="#fafafb"><path d="m12.4 4.8-6.1 9h6v1.2h-8v-.5l6.1-8.9h-5.7v-1.2h7.6v.4z"/><path d="m14 15v-10.6h3c1.6 0 2.9.5 4 1.4s1.6 2.2 1.6 3.8-.5 3-1.6 3.9-2.4 1.5-4 1.5zm1.4-9.4v8.2h1.6c1.3 0 2.4-.4 3.1-1.1s1.1-1.8 1.1-3.1-.4-2.3-1.2-3-1.8-1-3.1-1z"/><path d="m26.1 4.4v10.6h-1.4v-10.6z"/><path d="m36.1 14.6c-.8.4-1.8.6-2.9.6-1.5 0-2.7-.5-3.6-1.4s-1.4-2.2-1.4-3.8c0-1.7.5-3.1 1.5-4.1s2.3-1.6 3.9-1.6c1 0 1.8.1 2.5.4v1.4c-.8-.4-1.6-.6-2.5-.6-1.2 0-2.1.4-2.9 1.2s-1.1 1.8-1.1 3.2c0 1.3.3 2.3 1 3s1.6 1.1 2.7 1.1c1 0 2-.2 2.7-.7v1.3z"/><path d="m37.6 14.3c0-.2.1-.5.3-.6s.4-.3.6-.3c.3 0 .5.1.6.3s.3.4.3.6-.1.4-.3.6-.4.3-.6.3c-.3 0-.5-.1-.6-.3s-.3-.4-.3-.6z"/><path d="m50.2 15h-1.6l-5.3-8.2c-.2-.2-.3-.5-.4-.7 0 .2.1.7.1 1.5v7.4h-1.4v-10.6h1.7l5.2 8.1c.2.4.4.6.4.7 0-.3-.1-.8-.1-1.5v-7.3h1.4z"/><path d="m58.6 15h-5.7v-10.6h5.5v1.2h-4.1v3.4h3.8v1.2h-3.8v3.6h4.3z"/><path d="m67.1 5.6h-3.1v9.4h-1.4v-9.4h-3v-1.2h7.5z"/></g><path d="m30.79 374.69c0-116.14 0-231.87 0-348.44 5.98 0 11.88.1 17.77-.02 18.23-.38 36.46-1.25 54.69-1.15 11.78.07 23.54 1.76 35.33 2.24 8.03.33 16.1-.08 24.14-.3 14.62-.41 29.22-1.96 43.86-.17 2.17.26 4.45-.5 6.67-.48 6.21.07 12.41.54 18.61.45 23.94-.32 47.88-1.07 71.82-1.1 12.51-.01 25.02 1.32 37.54 1.7 4.54.14 9.12-.56 13.65-1.13 2.59-.33 3.73.15 2.4 3.42 1.58-1.21 2.75-2.11 3.92-3.01.29.14.58.27.88.41-.38 5.27-.89 10.54-1.11 15.81-.14 3.43.16 6.88.24 10.32.08 3.77.15 7.53.19 11.3.03 3.33.01 6.65.01 10.57-.16.1-.95.58-1.89 1.16 2.63 2.25 2.24 4.98 2.04 8.02-.4 6.01-.21 12.07-.05 18.1.23 8.83 1.43 17.72.83 26.49-1.83 26.73.87 53.5-1.08 80.21-.14 1.98.32 4 .36 6.01.1 4.55.11 9.11.16 13.66.03 2.99.05 5.98.11 8.96.06 3 .22 6 .27 9 .11 6.97-1.68 13.87.12 20.97.89 3.52-.34 7.54-.35 11.34-.08 20.47-.12 40.94-.1 61.41.01 9.85.18 19.7.27 29.55.01 1.1 0 2.19 0 3.48-110.53.41-220.74.82-331.3 1.22zm99.79-284.94c-1.87-3.54-4.04-4.68-8.02-4.09-2.87.42-5.71 1.11-8.58 1.55-2.88.44-5.78.87-8.08-1.73-.4-.45-1.6-.77-2.01-.51-2.25 1.46-4.69 2.84-6.37 4.84-.76.9.08 3.15.21 5.09-2.9-.08-3.04 2.01-2.77 4.36-3.78-1.36-5.34 1.92-6.98 2.65-.34 2.26-.58 3.8-.8 5.34-.12.83-.51 1.79-.23 2.47 1.36 3.32-1.65 7.26 1.47 10.36.14.14-.91 1.38-1.31 2.16-1.18 2.29-2.58 4.62-.08 6.21-.93 3.2-1.71 6.03-2.59 8.83-.18.57-.7 1.08-1.17 1.5-2.56 2.25-3.14 4.98-1.85 8.26.3.75.56 1.95.19 2.46-2.65 3.65.73 7.51-.58 11.26-.6 1.72-.31 3.79-.23 5.69.21 4.57 2.59 9.16-.3 13.7-.25.39.26 1.22.33 1.85.4 3.43 1.17 6.89 1.04 10.3-.15 4.11-1.08 8.18-1.78 13.01-1.63.71-2.9 3.33-1.56 5.43 1.57 2.46.39 3.8-.51 5.58-.3.6-.83 1.22-.81 1.82.06 3.12.39 6.24.38 9.37-.01 3.36-.39 6.71-.41 10.07-.01 3.45.29 6.91.32 10.36.01 1.15.02 2.81-.68 3.38-3.02 2.47-3.33 5.58-1.34 8.29 2.47 3.35 2 6.22.21 9.4-.11.19-.1.43-.16.65-3.51 12.05-1.92 24.46-1.9 36.66.01 5.91-1.48 11.65-.92 17.53.07.7-.8 1.55-1.35 2.23-.75.93-1.61 1.77-2.39 2.62 1.62 2.65 3.07 5.04 4.53 7.43.17.29.31.6.53.86 4.05 4.88 7.88 5.51 11.41.69.86-1.17 1.81-2.29 2.84-3.31 5.22-5.11 7.29-11.05 5.35-18.29-1.58-5.91-.72-11.55 2.72-16.68 1.64-2.45 2.49-4.57-.86-5.03 0-1.97.22-3.55-.04-5.05-.79-4.56-2.07-9.07-2.55-13.65-.27-2.54.99-5.21 1.01-7.83.05-4.81-.23-9.62-.5-14.42-.31-5.54.22-10.89 2.35-16.11.8-1.96.84-4.27 1.04-6.43.35-3.76.51-7.53.83-11.29.56-6.51 4.02-12.54 2.97-19.37-.35-2.27.24-4.81.91-7.09.71-2.44.77-4.51.11-7.09-1.01-3.92-2.75-8.33 1.02-11.98 4.41-4.28 3.92-8.24-1.39-10.91 4.86-5.58 4.76-8.76-.51-15.04.75-.94 1.5-1.89 2.31-2.9-.98-1.34-1.87-2.57-2.9-3.97 3.11-2.08 2.92-4.3.86-5.98 1.12-5.12-.99-10.78 3.97-14.18-1.81-5.55 4.72-8.85 3.61-14.22 4.36 1.45 6.91.75 8.54-3.29 2.04-5.06 5.53-8.5 9.98-11.28 1.22-.77 2.33-1.7 3.47-2.54zm144.79 171.17c-1.85 2.5-1.57 3.29 3.61 9.5-.57 3.39-1.42 6.6-1.5 9.84-.04 1.42 1.39 2.95 2.34 4.3.63.89 1.66 1.5 2.41 2.32 3.55 3.87 2.95 8.42 2.18 13.04-.13.75.26 2.09.8 2.36 4.05 2.05 4.64 3.11 4.08 7.58-.18 1.48-.25 3.09.14 4.49.63 2.24 1.81 4.31 2.57 6.52 1.57 4.56 3.04 9.14 7.95 9.01 1.64 2.46 2.81 4.08 3.83 5.79 1.1 1.83 2.46 3.63 2.99 5.64.78 2.98.35 6.58 4.94 6.57.65 1.27 1.72 2.12 2.71 3.04.37.34.67.82.83 1.3.74 2.17 5 3.84 6.99 2.74 6.21-3.44 5.78-10.76 2.12-14.73-2.34-2.54-5.07-4.9-5.07-9.06 0-6.04-3.48-9.41-9.28-9.85-1.72-7.13-2.78-14.48-8.25-20.03 1.03-1.42 1.94-2.66 2.84-3.9-.32.12-.64.25-.96.37-3.07-5.26-6.39-10.4-9.09-15.85-.99-1.99-.35-4.74-.73-7.09-.66-4.04.76-8.5-2.6-12.05-1.56-1.65-3.15-3.5-1.84-6.23.26-.54-.34-1.83-.92-2.36-3.4-3.09-2.93-7.83-3.09-11.26-.25-5.23-1.92-9.76-3.33-14.5-.5-1.68-.56-2.93.96-4.1 1.83-1.42 3.53-3.01 4.7-4.02-1.91-5.64-3.48-10.25-5.04-14.87-.63.09-.66-.04-.62-.13.27-.49.51-1.01.84-1.44 4.56-5.89 5.4-11.67-.13-17.56-.6-.63-.46-2.59.06-3.53 2.27-4.08 3.12-8.26 2.25-12.89-.28-1.47-.17-3.28.46-4.59 1.2-2.48.84-4.22-1.2-5.35 1.04-2.11 2.18-3.98 2.89-6 .58-1.66.63-3.51.96-5.27.36-1.91.78-3.8 1.13-5.71.12-.64-.19-1.55.16-1.94 3.8-4.32 3.43-9.7 3.9-14.85.25-2.65.11-5.23-3.13-5.46-.32-2.8-.6-5.28-.89-7.76.25.11.51.23.76.34.63-1.4 1.64-2.76 1.82-4.22.46-3.77.08-7.69.91-11.35 1.23-5.47-1.12-9.14-4.68-12.66-1.15-1.14-1.97-1.77-3.68-1.07-3.06 1.25-5.62.32-7.6-2.37-.38-.51-1.4-1.17-1.74-1-2.31 1.16-4.28.4-6.31-.68-.37-.2-1.03-.01-1.5.16-1.7.6-3.37 1.28-4.98 1.89-.36 1.43-.8 3.19-1.34 5.32-4.07-3.77-3.55-4.35-9.01-3.67-1.16.14-2.4-.39-3.61-.54-2.84-.35-5.75-1.14-8.51-.79-1.67.22-4.08 2.01-4.44 3.51-.81 3.33 1.55 6.38 4.24 6.95 6.21 1.31 12.39 2.09 18.33-.54-.1-1.46-.21-3.1-.33-4.74.3-.05.6-.1.91-.15 1.76 2.1 3.52 4.21 5.13 6.12 1.67-.58 2.96-1.03 4.25-1.48-.15.4-.3.8-.45 1.2 1.35 1.19 2.7 2.39 4.16 3.67-.07.58-.16 1.42-.27 2.37 1.31.09 2.39.16 3.56.24-1.32 1.98-1.32 1.98.91 7.45-.79.54-1.7 1.17-2.08 1.43.39 2.17 1.44 4.47.81 5.13-3.92 4.03-3.05 9.36-4.05 14.06-1.2 5.68-.77 11.42.81 17.27.94 3.48-.75 7.67-1.26 11.54-.15 1.06.88 2.35.73 3.47-.71 5.07-1.53 10.15-2.8 15.1-.58 2.25-.58 3.84.72 5.82 1.95 2.95 5.35 5.75 2.37 9.96-.15.22.09.68.01.98-.43 1.62-.64 3.39-1.44 4.81-1.65 2.93-1.81 5.5-.41 8.74 1.4 3.23 1.67 6.94 2.43 10.45-.59.74-1.19 1.48-1.68 2.1.86 2.23 3.53 3.84 1.19 6.42-.2.22.16 1.05.4 1.53.94 1.81 1.32 3.39-.43 5.11-.45.44.2 2.12.52 3.18.2.69.97 1.26 1.03 1.92.56 5.85 1.02 11.71 1.53 17.72-.23-.02-1.06-.09-2.61-.23 1.36 2.74 2.43 4.9 3.71 7.5zm-43.77-177.69c-1.14-.96-2.67-2.44-4.41-3.64-.92-.63-2.17-1.05-3.28-1.07-3.84-.07-7.69.06-11.54.16-.53.01-1.04.37-1.57.44-3.37.45-6.75 1.24-10.11 1.19-3.71-.06-7.34-.61-10.66 1.68-.52.36-1.53.35-2.18.13-2.82-.95-5.45-1.1-7.79 1.15-.27.26-1.02.47-1.23.3-2.97-2.33-5.27-.83-7.49 1.77-.44-1.59-.75-2.69-1.11-3.99-1.09.68-1.88 1.31-2.77 1.7-2.72 1.2-2.19 3.47-1.59 5.43.62 2.01.28 4.85 3.79 5.03 1.82.09 3.56 1.26 5.4 1.6 1.44.27 3 .14 4.48-.02 1.38-.15 2.72-.65 4.1-.84 2.31-.31 4.67-.33 6.95-.75 3.61-.67 6.76-1.6 10.84-.07 3.29 1.24 7.18.16 10.65 3.16 2.4 2.07 10.27-1.22 12.37-3.98 2.17-2.83 4.33-5.68 7.15-9.38zm-80.97 4.89c.82-.66 2.27-1.83 3.71-2.99-1.36-1.47-2.58-3.86-4.14-4.12-1.28-.21-3.85 1.88-4.28 3.39-.59 2.07 1.29 3.54 4.71 3.72z" fill="#010105"/></svg>