<svg enable-background="new 0 0 400 400" viewBox="0 0 400 400" xmlns="http://www.w3.org/2000/svg"><path d="m246.73 259.96c-7.01 1.66-13.61 2.94-20.03 4.81-11.61 3.38-23.55 3.91-35.48 4.6-11.73.68-23.45 1.42-35.18 1.99-2.02.1-2.97.91-3.72 2.61-3.97 9.11-4.46 18.54-3.22 28.29 1.07 8.42 1.77 16.89 2.39 25.36.36 4.95-.16 9.86-2.88 14.24-1.95 3.13-2.04 6.48-1.6 10.01.62 4.88 1.08 9.79 1.45 14.7.55 7.15-3.15 10.29-10.08 8.49-1.08-.28-2.31-1.3-2.82-2.31-4.04-8.08-5.34-16.85-5.45-25.71-.4-30.14-3.64-60.07-5.84-90.09-.75-10.25-.61-20.58-.82-30.87-.33-16.3-2.75-32.18-7.18-47.95-2.94-10.49-3.87-21.55-5.68-32.35-.66-3.95-2.8-5.35-6.63-3.97-1.76.64-3.52 1.54-4.99 2.69-8.48 6.65-17.98 8.4-28.17 5.53-9.33-2.62-18.59-5.54-27.69-8.87-5.04-1.85-9.36-5.17-12.33-10.57 6.44-1.54 12.54-3.16 18.71-4.43 19.92-4.11 38.52-12.24 57.61-18.85 6.32-2.19 12.72-2.97 19.23-3.94 7.47-1.11 14.77-3.43 22.08-5.45 15.51-4.29 30.86-9.23 46.49-12.97 15.86-3.79 31.99-6.46 48-9.61 6.36-1.25 12.74-2.4 19.1-3.7 6.68-1.37 13.28-2.36 20.23-1.8 11.25.91 22.57.86 33.85 1.5 3.29.19 6.66.99 9.76 2.13 6.59 2.41 9.08 8.14 6.82 15.08-7.16.47-14.39 1.23-21.64 1.37-45.03.89-88.33 11.34-131.29 23.66-12.34 3.54-24.62 7.33-36.78 11.44-3.92 1.32-7.36 4.05-11.34 6.32 4.22 5.38 8.01 10.34 11.99 15.15.46.56 2.05.67 2.88.36 9.02-3.32 17.99-6.75 26.96-10.21.91-.35 1.83-.9 2.5-1.6 7.12-7.4 16.18-10.86 26.04-11.84 16.86-1.68 33.49-.14 49.66 5.26 3.26 1.09 5.92 2.73 7.93 5.72 2.18 3.23 4.71 6.29 7.46 9.05 8.47 8.5 11.34 18.3 9.34 30.28-2.18 13.11-3.4 26.41-4.41 39.68-.44 5.72.83 11.55 1.11 17.34.53 11.17.61 22.37 1.44 33.51 1.03 13.82 2.31 27.68 7.29 40.8 5.28 13.9 15.17 23.84 27.92 31.02 3.71 2.09 7.88 1.44 11.72-.12 4.55-1.85 9.04-3.88 13.47-6 1.01-.48 1.87-1.56 2.47-2.56 7.81-13.14 9.74-27.4 8.04-42.38-1.17-10.27-3.25-20.29-6.9-29.98-.3-.8-.49-1.63-.93-3.11 5.38 2.13 10.23 3.98 15 6.02.77.33 1.28 1.49 1.69 2.37 2.51 5.49 5.76 10.8 7.21 16.56 1.59 6.3 2.06 13.02 2.03 19.56-.08 15.34-3.46 30.16-8.48 44.62-.32.92-.72 2.02-1.44 2.55-7.89 5.73-15.96 11.17-25.66 13.46-7.51 1.77-14.68-.12-21.74-2.35-4.68-1.48-9.54-2.89-13.69-5.37-3.41-2.04-6.16-5.4-8.75-8.55-12.36-15.02-19.41-32.8-26.03-50.78-3.61-9.86-7.25-19.7-11-29.84zm-94.55-10.09c13.14-3.5 25.74-6.96 38.4-10.21 14.84-3.81 29.32-9.5 45.27-7.4 3.22.42 6.93-2.42 10.3-4.01.79-.37 1.5-1.72 1.58-2.68.52-6.13 1.19-12.28 1.08-18.41-.03-2.07-1.7-4.71-3.43-6.02-2.99-2.26-6.63-2.85-10.48-1.48-16.1 5.76-32.26 11.35-48.34 17.14-2.6.94-4.81.91-7.37-.14-5.69-2.32-11.51-4.3-17.28-6.43-4.15-1.53-8.3-3.08-12.88-4.78 1.07 15 2.1 29.47 3.15 44.42zm77.45-77.07c.06.39.13.79.19 1.18 1.9 0 3.8.07 5.69-.02 2-.1 4.03-.19 5.98-.57 5.21-1.03 6.23-2.31 6.13-7.58-.04-2.12-.27-4.23-.52-6.34-1.55-12.97-11.25-18.34-24.61-15.39-9.41 2.08-18.55 5.74-27.53 9.38-17.1 6.92-32.81 16.22-46.5 28.78-2.36 2.17-2.59 4.64-2.35 7.26.25 2.77 2.71 3.67 5.39 2.43 5.4-2.49 10.21-6.45 16.73-6.09 11.15.62 21.64-2.48 32.04-6.03 4.12-1.41 8.27-2.81 12.5-3.79 5.57-1.28 11.23-2.16 16.86-3.22z" fill="#010104"/><path d="m91.3 56.69c10.82-1.44 21.44-2.35 31.84-4.4 9.07-1.79 17.9-4.83 26.8-7.42 20.82-6.05 41.51-12.56 62.49-18.01 6.86-1.78 14.43-1.12 21.67-1.1 5.12.01 10.29.46 15.33 1.34 4.87.85 8.55 3.71 10.24 8.66.68 1.97.29 3.28-1.57 4.44-5.93 3.69-12.49 5.31-19.29 6.29-8.85 1.27-17.81 2.12-26.49 4.13-6.46 1.5-12.55 4.59-18.84 6.9-14.05 5.15-28.04 10.45-42.21 15.23-4.48 1.51-9.44 1.69-14.2 2.2-1.7.18-3.57-.24-5.23-.79-11.78-3.87-23.49-7.94-35.3-11.72-2.93-.95-4.49-2.63-5.24-5.75z" fill="#010104"/><g fill="#fcfbfa"><path d="m385.2 377.6.6-.7c.6.4 1.3.9 1.9 1.5l-.6.7c-.8-.5-1.4-1-1.9-1.5zm.3 7.1c.6-1.4 1.1-2.9 1.5-4.5.3.1.6.3.9.4-.5 1.4-1 2.9-1.5 4.4zm.2-10.1.6-.6c.7.5 1.3 1.1 1.9 1.6l-.7.7c-.6-.6-1.2-1.2-1.8-1.7zm8.4-.8h.8v.9h1.8v.7h-1.8v1.8h-.8v-.3h-1.2v.9h3.3v2.6h-.8v-.4h-2.5c0 .3 0 .6-.1.8h3.4v.7h-3.5c0 .3-.1.6-.1.8h4v.7h-3.5c.7.9 1.9 1.3 3.6 1.5-.2.2-.4.5-.6.9-1.9-.3-3.2-1.1-3.8-2.3-.5 1.1-1.8 2-3.9 2.4-.2-.3-.4-.5-.6-.8 1.9-.4 3.1-.9 3.6-1.7h-3.2v-.7h3.5c.1-.2.1-.5.2-.8h-3.3v-.7h3.4c0-.2 0-.5 0-.8h-2.4v.3h-.8v-2.6h3.3v-.9h-1.2v.3h-.8v-1.8h-1.8v-.7h1.8v-.9h.8v.9h3.2zm-4.4 5.5h2.4c0-.3 0-.6 0-.9h-2.4zm1.2-3.1h3.2v-.8h-3.2zm4.4 2.2h-2.4v.9h2.5v-.9z"/><path d="m389.2 385.8h.9v1.5h1.9v-1.5h.9v1.5h2.7v6h1.1v.9h-11.3v-.9h1.1v-6h2.7zm.2 8.7.5.8c-1.2.6-2.5 1.3-4 1.9-.2-.3-.3-.6-.6-.8 1.6-.6 3-1.3 4.1-1.9zm-2-4.3h1.9v-2.1h-1.9zm0 3.1h1.9v-2.2h-1.9zm2.7-3.1h1.9v-2.1h-1.9zm0 3.1h1.9v-2.2h-1.9zm2.4 1.3c1.4.6 2.7 1.2 4.1 1.8l-.5.9c-1.5-.7-2.8-1.4-4.1-1.9zm2.2-6.5h-1.9v2.1h1.9zm-1.9 5.2h1.9v-2.2h-1.9z"/></g></svg>