<svg enable-background="new 0 0 400 400" viewBox="0 0 400 400" xmlns="http://www.w3.org/2000/svg"><path d="m374.8 390.4.4-.4c.7.5 1.3 1 1.8 1.4l-.5.5c-.5-.6-1.1-1.1-1.7-1.5zm1 7.3-.6-.3c.5-1.4 1.1-2.8 1.5-4.3.2.1.4.2.6.3-.5 1.3-1 2.8-1.5 4.3zm-.4-10.3.4-.4c.4.3 1 .8 1.7 1.4l-.5.5c-.4-.5-1-1-1.6-1.5zm2.5.3h1.7v-1h.6v1h3.5v-1h.6v1h1.8v.5h-1.8v1.4h-2v1h3.2v2h-3.2v.9h3.3v.5h-3.4c0 .3-.1.6-.1.9h4v.5h-3.7c.7.9 1.9 1.5 3.8 1.7-.1.2-.2.4-.3.6-2.1-.4-3.5-1.1-4-2.1-.4 1-1.8 1.7-4 2.2-.1-.2-.2-.4-.3-.6 2.1-.4 3.4-1 3.8-1.8h-3.4v-.5h3.6c.1-.3.1-.6.2-.9h-3.3v-.5h3.4c0-.3 0-.6 0-.9h-3.2v-2h3.3v-1h-2.1v-1.4h-1.7v-.5zm1.1 3.5v1h2.7c0-.3 0-.4 0-.4 0-.1 0-.2 0-.2 0-.1 0-.2 0-.3h-2.7zm1.2-3v.9h3.5v-.9zm4.7 3h-2.6v.6.4h2.6z" fill="#fbfcfa"/><path d="m393.6 386.7h.6v1.5h2.7v6.1h1.1v.6h-11v-.6h1.1v-6.1h2.7v-1.5h.6v1.5h2.1v-1.5zm-2.7 8.8.4.6c-1.2.6-2.5 1.3-3.8 1.9-.1-.2-.2-.4-.3-.6 1.2-.6 2.5-1.2 3.7-1.9zm-2.2-6.7v2.4h2.1v-2.4zm0 3v2.5h2.1v-2.5zm2.8-3v2.4h2.1v-2.4zm0 3v2.5h2.1v-2.5zm6 6.1c-1.4-.7-2.7-1.3-3.9-1.8l.3-.6c1.5.6 2.7 1.2 3.9 1.7zm-1.2-9.1h-2.1v2.4h2.1zm-2.1 3v2.5h2.1v-2.5z" fill="#fbfcfa"/><g fill="#010101"><path d="m200.38 144.96c3.07.83 2.97 3.03 2.76 5.23-.19 2-.26 4.06-.77 5.99-2.03 7.64-1.55 15.22-.04 22.87.36 1.79-.28 3.78-.98 5.7 6.54 8.77 7.77 20.08 12.75 29.94-1.13.46-2.04.82-3.47 1.4 3.78 2.05 7.29 3.79 10.63 5.8 5.35 3.22 10.54 6.7 15.89 9.93 8.44 5.09 10.86 3.88 12.91-5.2.57-2.54.61-5.42 3.84-6.55 2.36 3.38 2.13 7.05 1.71 10.72-1.04 9.03 1.6 13.74 10.28 17.19 5.14 2.04 8.49 5.51 10.76 11.5-2.72-.94-4.89-1.39-6.75-2.4-3.2-1.74-6.73-3.16-9.83-1.16-3.21 2.07-5.82 5.13-5.77 9.63.03 2.27-.75 4.55-1.09 6.84-.11.72.02 1.48.03 2.22.05 2.58.27 5.17.05 7.73-.07.75-1.39 1.4-2.04 2-1.72-2.24-3.28-4.08-4.63-6.07-1.93-2.86-2.09-6.04-1.23-9.31.97-3.68.49-4.28-3.36-4.22-5.09.08-9.21 2.59-12.97 5.6-3.49 2.79-6.53 6.13-9.95 9.02-3.41 2.89-4.56 6.57-5.19 10.85-3.22 21.67 2.4 42.2 7.84 62.76.43 1.62 1.15 3.18 1.41 4.82.62 3.98 3.45 5.3 6.83 5.66 5.89.63 11.81 1.14 17.72 1.38 2.02.08 4.1-1.22 6.13-1.18 2.64.06 5.31.66 7.85 1.43.73.22 1.52 1.87 1.4 2.74-.1.73-1.41 1.7-2.31 1.85-4.73.79-9.48 1.43-14.25 1.94-.88.09-1.86-.67-3.14-1.17-1.99 2.87-5.08 3.59-8.82 2.74-1.6-.36-3.48-.55-4.99-.06-3.9 1.27-7.71.72-11.68.67-9.06-.1-17.89-2.22-25.61-5.84-8.19-3.84-17.56-6.96-23.08-15.27-.61-.93-1.32-1.8-1.86-2.77-5.05-9.07-9.63-18.45-15.27-27.13-3.27-5.03-5-10.37-6.74-15.88-.33-1.03-.88-2.11-1.63-2.86-2.94-2.92-6.71-5.45-2.91-10.86-4.22.64-4.61-1.82-5.76-4.19-1.94-3.99-4.79-7.54-7.08-11.37-.95-1.59-1.65-3.38-2.15-5.17-2.53-9.03-5.52-17.98-7.26-27.17-1.44-7.64-1.73-15.55-1.8-23.35-.03-3.54 1.81-7.08 2.64-10.65.74-3.19.24-6.7 2.72-9.44.51-.57.63-1.71.57-2.56-.36-5.33 1.36-10.1 3.56-14.82.69-1.48.81-3.21 1.3-4.79.8-2.6 1.69-5.18 2.51-7.77.29-.93.74-1.9.7-2.83-.38-9.09 4.01-16.47 9.09-23.25 5.56-7.41 11.6-14.59 18.24-21.04 4.71-4.58 10.76-7.78 16.21-11.59.44-.31 1.03-.49 1.32-.9 6.66-9.2 14.64-17.22 23-24.78 3.92-3.54 9.02-5.74 13.44-8.76 2.17-1.48 4.21-3.27 5.98-5.21 3.99-4.38 7.74-8.97 11.68-13.4.55-.61 1.89-1.29 2.37-1.03.9.49 1.88 1.56 2.06 2.53.58 3.18 1.16 6.44 1.06 9.65-.06 2.08-1.03 4.29-2.09 6.16-1.65 2.91-3.68 5.61-5.65 8.33-3.34 4.64-5.94 9.54-7.81 15.06-1.92 5.65-5.79 10.62-7.85 16.25-2.29 6.24-3.48 12.89-5.18 19.35-.94 3.52-1.43 7.41-6.25 8.52zm10.37-54.24c-2.39.97-4.24 2.04-6.22 2.43-2.43.48-4.12 1.01-3.23 4.04.16.55-.37 1.51-.86 2.02-3.2 3.38-5.83 7.43-10.55 9.07-.79.28-1.48.97-2.12 1.57-7 6.59-13.98 13.19-20.95 19.81-.8.76-2.02 1.5-2.2 2.42-.68 3.41-3.26 5.22-5.55 7.31-2.65 2.41-5.44 4.68-7.93 7.24-4.55 4.68-8.45 9.72-9.16 16.64-.29 2.87-3.07 5.19-2.31 8.46.05.23-.39.55-.48.86-.4 1.46-.89 2.91-1.11 4.4-.26 1.76.34 4-.54 5.25-2.6 3.68-2.2 8.17-3.82 11.98-6.11 14.33-6.26 29.55-7.29 44.66-.05.75.29 1.53.45 2.3 3.27 15.88 8.44 31.01 17 44.91 1.63 2.65 2.03 6.06 3.07 9.09.26.77.74 1.51 1.27 2.13 1.09 1.27 2.59 2.28 3.38 3.7 4.76 8.57 7.77 18.08 14.14 25.81 1.94 2.35 3.02 5.39 4.53 8.09 1.52 2.71 2.62 5.85 4.72 8 4.68 4.79 9.86 9.1 14.86 13.57.39.35.97.57 1.5.68 5.15 1.06 10.28 2.23 15.46 3.05 1.88.3 3.89-.23 5.69-.37-1.71-6.42-3.04-12.48-4.97-18.35-1.7-5.16-2.78-10.24-2.65-15.72.12-5.23-.18-10.54-1-15.69-.86-5.35-.6-10.36 1.24-15.46.89-2.47.78-5.29 1.39-7.88.39-1.61 1.02-3.31 2.02-4.6 1.85-2.37 4.74-4.15 5.95-6.75 2.74-5.88 7.74-8.37 13.22-10.56 1.43-.57 3.21-1.09 4.01-2.22 2.55-3.58 6.08-5.6 10.05-6.86 3.28-1.04 3.78-3.46 3.8-6.25.02-2.94-1.24-4.94-4.1-6.25-3.71-1.71-7.2-3.92-10.77-5.94-.77-.44-1.47-1.31-2.25-1.38-5.59-.52-8.72-4.65-12.16-8.23-2.68-2.78-5.41-5.64-7.44-8.89-1.74-2.77-2.28-6.36-5.67-6.79-.28-1.73-.2-3.03-.7-4.06-2.69-5.58-5.53-11.09-8.29-16.63-.14-.28-.02-.67-.09-1-.64-3.15-1.31-6.29-1.93-9.44-.32-1.63-.79-3.28-.78-4.91.04-6.71.21-13.43.4-20.14.19-6.72.35-13.47 5.78-18.79-3.23-1.79-2.86-4.46-1.99-6.89 4.48-12.63 6.97-26.19 16.74-36.39.07-.07.05-.21.12-.53-.58-.87-1.25-1.87-1.68-2.52z"/><path d="m238.6 24.9c5.73 2.07 8.11 5.95 9.77 10.74 7.38 21.23 12.32 43.12 18 64.81.9 3.45 2.08 6.83 3.11 10.24.35 1.17.75 2.35.93 3.56.77 5.41-.23 7-4.76 8.67-3.25-6.6-6.51-13.09-9.64-19.64-.86-1.8-1.73-3.72-1.95-5.66-.28-2.49-1.08-4.44-3.01-6.03-.48-.4-.69-1.3-.74-1.99-.17-2.02.15-4.13-.34-6.06-1.2-4.76-2.86-9.4-4.1-14.15-.49-1.87-.26-3.91-.49-5.86-.15-1.29-.22-2.72-.83-3.81-4.92-8.79-6.55-18.45-7.43-28.26-.17-2.05.92-4.21 1.48-6.56z"/></g></svg>