<svg enable-background="new 0 0 400 400" viewBox="0 0 400 400" xmlns="http://www.w3.org/2000/svg"><path d="m374.8 390.4.4-.4c.7.5 1.3 1 1.8 1.4l-.5.5c-.5-.6-1.1-1.1-1.7-1.5zm1 7.3-.6-.3c.5-1.4 1.1-2.8 1.5-4.3.2.1.4.2.6.3-.5 1.3-1 2.8-1.5 4.3zm-.4-10.3.4-.4c.4.3 1 .8 1.7 1.4l-.5.5c-.4-.5-1-1-1.6-1.5zm2.5.3h1.7v-1h.6v1h3.5v-1h.6v1h1.8v.5h-1.8v1.4h-2v1h3.2v2h-3.2v.9h3.3v.5h-3.4c0 .3-.1.6-.1.9h4v.5h-3.7c.7.9 1.9 1.5 3.8 1.7-.1.2-.2.4-.3.6-2.1-.4-3.5-1.1-4-2.1-.4 1-1.8 1.7-4 2.2-.1-.2-.2-.4-.3-.6 2.1-.4 3.4-1 3.8-1.8h-3.4v-.5h3.6c.1-.3.1-.6.2-.9h-3.3v-.5h3.4c0-.3 0-.6 0-.9h-3.2v-2h3.3v-1h-2.1v-1.4h-1.7v-.5zm1.1 3.5v1h2.7c0-.3 0-.4 0-.4 0-.1 0-.2 0-.2 0-.1 0-.2 0-.3h-2.7zm1.2-3v.9h3.5v-.9zm4.7 3h-2.6v.6.4h2.6z" fill="#fbfcfa"/><path d="m393.6 386.7h.6v1.5h2.7v6.1h1.1v.6h-11v-.6h1.1v-6.1h2.7v-1.5h.6v1.5h2.1v-1.5zm-2.7 8.8.4.6c-1.2.6-2.5 1.3-3.8 1.9-.1-.2-.2-.4-.3-.6 1.2-.6 2.5-1.2 3.7-1.9zm-2.2-6.7v2.4h2.1v-2.4zm0 3v2.5h2.1v-2.5zm2.8-3v2.4h2.1v-2.4zm0 3v2.5h2.1v-2.5zm6 6.1c-1.4-.7-2.7-1.3-3.9-1.8l.3-.6c1.5.6 2.7 1.2 3.9 1.7zm-1.2-9.1h-2.1v2.4h2.1zm-2.1 3v2.5h2.1v-2.5z" fill="#fbfcfa"/><g fill="#010101"><path d="m118.38 328.88c-6.72-7.33-8.45-15.84-8.36-24.71.11-11.52.72-23.04 1.24-34.55.04-.97.89-2.36 1.73-2.73 1.9-.84 4.02-1.58 6.06-1.61 4.89-.08 6.37.95 7.4 5.72 2.89 13.43 5.37 26.95 8.31 40.37 2.22 10.14 4.85 20.2 7.43 30.26 1.1 4.27 3.28 5.57 7.59 5.03 3.33-.42 6.67-.79 9.96-1.4 1.37-.26 2.76-.91 3.92-1.69 6.77-4.57 13.55-9.13 20.16-13.91 5.11-3.69 10.4-6.9 16.51-8.69 1.06-.31 2.16-1.17 2.82-2.08 3.07-4.23 5.98-8.57 8.96-12.86.51-.73 1.07-1.44 1.64-2.13 6.96-8.5 7.9-17.53 3.14-27.51-3.16-6.63-5.37-13.72-8.4-20.42-1.69-3.73-4.61-6.92-6.27-10.66-3.7-8.36-6.73-17.03-10.48-25.37-2.91-6.48-6.3-12.77-9.9-18.9-1.83-3.11-5.07-4.69-8.75-5.66-16.31-4.31-32.63-8.61-48.76-13.52-7.42-2.26-14.1-6.37-18.14-13.53-.75-1.33-1.2-2.82-2.05-4.84 4.93.3 9.34.33 13.69.87 16.2 2 32.4 4 48.55 6.32 17.97 2.58 35.9 2.56 53.81-.26 6.7-1.06 13.41-2.27 19.97-3.99 5.48-1.44 8.21-5.62 8.25-11.29.05-5.92.06-11.85-.29-17.75-.13-2.14-.95-4.46-2.13-6.27-7.18-11.08-11.03-23.38-13.8-36.13-.35-1.63-.88-3.25-1.55-4.76-2.78-6.24-7.55-8.81-14.11-7.04-10.46 2.81-18.95 8.1-23.02 18.93-2.61 6.93-5.41 8.08-12.88 7.38-3.88-.36-6.13-1.78-5.94-5.76.07-1.47.6-3.28 1.58-4.28 9.86-10.05 18.8-20.9 24.74-33.66 5.45-11.71 9.59-24.03 14.29-36.09.44-1.13.74-2.32 1.19-3.78.9.49 1.68.83 2.37 1.3 2.12 1.45 4.13 3.08 6.33 4.41 9.39 5.71 14.75 13.79 16.63 24.8 2.66 15.61 11.99 28.5 18.7 42.44.78 1.61 1.53 3.25 2.5 4.74 2 3.09 2.71 6.16 1.18 9.74-.48 1.12.14 2.7.29 4.07.02.2.2.4.32.58 7.71 11.77 12.04 24.65 14.16 38.6 2.78 18.34 6.8 36.48 9.77 54.79.82 5.07-.08 10.45-.52 15.66-.09 1.11-1.39 2.43-2.48 3.09-2.72 1.66-4.05 3.46-2.9 6.87 1.31 3.89.59 7.87-1.62 11.27-2.6 4.02-5.39 7.96-8.51 11.58-3.92 4.53-6.94 9.31-6.82 15.51.04 2.21-1 3.5-2.81 4.51-1.27.7-2.36 1.72-3.65 2.39-8.58 4.46-14.54 11.21-18.09 20.17-1.49 3.76-4.07 6.58-7.44 8.79-11.68 7.68-20.99 17.59-27.94 29.74-4.93 8.62-12.53 14.12-21.59 17.79-1.45.59-2.93 1.12-4.34 1.77-8.39 3.9-16.75 7.85-25.14 11.74-2.53 1.17-5 2.68-7.67 3.29-5.7 1.3-10.75 2.23-15.01-4.83-3.51-5.83-7.77-11.22-11.87-16.67-2.21-2.94-3.8-5.95-3.92-9.73-.08-2.44-.64-4.87-1.06-7.3-.56-3.14-1.07-6.26 3.02-8.16zm111.21-152.08c-.41 1.58-.63 2.43-.86 3.28-1.59 5.91-3.4 7.26-9.45 8.18-2.7.41-5.29 1.63-7.9 2.59-2.71 1-3.12 2.57-1.96 5.38 8.38 20.24 16.56 40.55 24.81 60.84 1.41 3.47 2.87 6.93 4.52 10.93 2.22-1.93 4.42-3.24 5.81-5.15 5.07-6.94 9.98-14 14.74-21.15 5.44-8.17 7.27-17.19 5.53-26.89-.63-3.49.61-6.37 2.91-8.9.81-.89 1.65-1.74 2.56-2.69-1.82-2.49-3.49-4.86-5.25-7.17-5.16-6.72-11.27-10.57-20.28-7.75-5.36 1.68-9.95-.85-12.34-5.83-.82-1.68-1.69-3.36-2.84-5.67z"/><path d="m258.59 333c-.52-1.08-.92-1.86-1.27-2.67-1.01-2.32-2-4.66-2.51-7.87 2.51 1.05 5.33 1.69 7.46 3.26 3.31 2.44 2.64 5.18-1.2 6.5-.73.25-1.47.46-2.48.78z"/></g></svg>