<svg enable-background="new 0 0 400 400" viewBox="0 0 400 400" xmlns="http://www.w3.org/2000/svg"><path d="m22.52 72.19c5.45-2.38 11.08-2.66 16.46-1.04 8.22 2.47 16.22 5.67 24.31 8.55 1.26.45 2.53.88 3.8 1.33 7.96 2.82 15.62 3.3 24.11.69 25.74-7.91 51.65-15.31 77.71-22.1 13.27-3.46 26.92-5.67 40.52-7.63 21.02-3.03 42.13-5.38 63.21-7.97 1.41-.17 3.03-.35 4.29.14 14.24 5.48 29.22 6.18 44.18 7.02 12.65.71 23.79 9.44 26.52 20.96-11.11.44-22.16.86-33.2 1.31-26.15 1.08-52.31 1.97-78.44 3.38-7.43.4-14.8 2.23-22.16 3.6-1.81.34-3.63 1.22-5.19 2.24-3.57 2.32-4.09 6.19-1.46 9.51 4.87 6.14 9.82 12.21 14.62 18.4 1.06 1.37 1.91 3.03 2.39 4.69 5.86 20.19 8.76 40.92 9.82 61.82.78 15.39.65 30.85.26 46.27-.4 15.36-4.57 29.93-10.75 44.03-5.02 11.46-9.33 23.23-14.11 34.79-.62 1.49-1.94 3-3.33 3.81-5.37 3.15-10.9 6.03-16.37 9.01-.33-.14-.66-.27-.99-.41.96-5.65 1.6-11.37 2.94-16.93 2.42-10.1 5.52-20.04 7.78-30.17.83-3.7.28-7.76.03-11.63-.18-2.7-1.58-3.62-4.6-2.87-24.19 6.02-48.43 11.79-72.63 17.75-9 2.22-17.53-.09-26.06-2.31-6.68-1.74-12.59-5.11-17.99-9.43-6.36-5.1-13.38-8.89-21.41-10.74-2.1-.48-3.17-.15-4.05 2-2.29 5.63-2.5 11.28-.96 17.08.2.76.53 1.49.63 2.26 1.57 11.24 8.47 18.54 17.25 25.03 19.85 14.68 41.44 25.03 65.98 28.9 12.8 2.02 25.61 1.97 38.48.9 33.36-2.77 66.05-9.09 97.58-20.28 23.89-8.48 47.35-18.2 70.91-27.61 7.24-2.89 14.15-6.61 21.27-9.81 1.57-.71 2.97-3.22 5.21-.88 2.31 2.41 4.76 4.84 3.05 8.47-1.07 2.27-2.51 4.54-4.32 6.26-8.43 8-18.13 14.13-28.76 18.85-23.28 10.33-46.45 20.92-69.82 31.04-25.09 10.86-50.93 19.56-77.99 24.05-21.54 3.57-43.32 4.28-64.79.38-13.56-2.46-26.68-7.28-40-11.04-.75-.21-1.49-.48-2.25-.67-7.46-1.82-14.38-4.6-20.15-9.95-2.18-2.02-4.89-3.6-7.59-4.9-13.6-6.51-20.94-17.67-25.22-31.75-8.85-29.06-7.51-57.95-.51-87.1 6.92-28.8 13.41-57.7 19.69-86.64 2.24-10.34-1.04-19.58-8.87-26.78-7.13-6.56-13.81-13.4-18.21-22.16-.25-.5-.48-1-.82-1.72zm102.45 162.6c5.72-.49 16.11-1.08 26.42-2.32 17.09-2.05 33.54-6.42 48.77-14.78 1.9-1.04 2.89-2.36 3.01-4.37.73-11.7 1.64-23.41 1.98-35.12.1-3.44-1.38-6.95-2.36-10.36-.27-.95-1.36-2.38-2.06-2.37-5.19.11-10.77-.6-15.48 1.07-9.23 3.27-17.84 8.24-26.94 11.91-14.48 5.83-28.95 11.85-43.82 16.52-12.41 3.91-25.03 2.68-36.58-4.13-4.95-2.92-4.94-3.07-9.21.79-.84.76-1.49 1.95-1.81 3.06-1.32 4.5-2.37 9.07-3.71 13.57-2.48 8.32.72 14.85 6.29 20.66.65.68 1.64 1.2 2.56 1.42 15.88 3.72 32.02 4.72 52.94 4.45zm72.97-89.31c-.08-1.8-.02-3.38-.24-4.91-1.74-12.25-6.03-23.58-12.74-33.94-3.87-5.97-9.01-10.64-16.04-12.51-2.08-.55-4.71-.46-6.7.33-10.7 4.23-21.23 8.89-31.9 13.19-15.06 6.06-29.81 12.7-43.56 21.43-2.19 1.39-3 2.83-2.91 5.37.19 5.81.15 11.64.01 17.46-.05 2.19.61 3.41 2.81 3.66 6.86.8 13.82 2.77 20.55 2.17 18.46-1.66 36.84-4.3 55.22-6.78 11.72-1.59 23.38-3.59 35.5-5.47z" fill="#010104"/><g fill="#fcfbfa"><path d="m385.2 377.6.6-.7c.6.4 1.3.9 1.9 1.5l-.6.7c-.8-.5-1.4-1-1.9-1.5zm.3 7.1c.6-1.4 1.1-2.9 1.5-4.5.3.1.6.3.9.4-.5 1.4-1 2.9-1.5 4.4zm.2-10.1.6-.6c.7.5 1.3 1.1 1.9 1.6l-.7.7c-.6-.6-1.2-1.2-1.8-1.7zm8.4-.8h.8v.9h1.8v.7h-1.8v1.8h-.8v-.3h-1.2v.9h3.3v2.6h-.8v-.4h-2.5c0 .3 0 .6-.1.8h3.4v.7h-3.5c0 .3-.1.6-.1.8h4v.7h-3.5c.7.9 1.9 1.3 3.6 1.5-.2.2-.4.5-.6.9-1.9-.3-3.2-1.1-3.8-2.3-.5 1.1-1.8 2-3.9 2.4-.2-.3-.4-.5-.6-.8 1.9-.4 3.1-.9 3.6-1.7h-3.2v-.7h3.5c.1-.2.1-.5.2-.8h-3.3v-.7h3.4c0-.2 0-.5 0-.8h-2.4v.3h-.8v-2.6h3.3v-.9h-1.2v.3h-.8v-1.8h-1.8v-.7h1.8v-.9h.8v.9h3.2zm-4.4 5.5h2.4c0-.3 0-.6 0-.9h-2.4zm1.2-3.1h3.2v-.8h-3.2zm4.4 2.2h-2.4v.9h2.5v-.9z"/><path d="m389.2 385.8h.9v1.5h1.9v-1.5h.9v1.5h2.7v6h1.1v.9h-11.3v-.9h1.1v-6h2.7zm.2 8.7.5.8c-1.2.6-2.5 1.3-4 1.9-.2-.3-.3-.6-.6-.8 1.6-.6 3-1.3 4.1-1.9zm-2-4.3h1.9v-2.1h-1.9zm0 3.1h1.9v-2.2h-1.9zm2.7-3.1h1.9v-2.1h-1.9zm0 3.1h1.9v-2.2h-1.9zm2.4 1.3c1.4.6 2.7 1.2 4.1 1.8l-.5.9c-1.5-.7-2.8-1.4-4.1-1.9zm2.2-6.5h-1.9v2.1h1.9zm-1.9 5.2h1.9v-2.2h-1.9z"/></g></svg>