<svg enable-background="new 0 0 400 400" viewBox="0 0 400 400" xmlns="http://www.w3.org/2000/svg"><path d="m247.21 322.45c4.44 8.37 2.64 20.54-3.62 26.62-13.2 12.82-28.29 22.2-46.68 25.49-14.49 2.59-28.16-.48-41.62-5.77-6.09-2.39-10.17-7.12-14.98-11.06-8.05-6.57-14.19-14.52-18.31-24.05-4.6-10.63-7.57-21.74-9.39-33.15-3.63-22.68-5.54-45.5-6.2-68.48-.26-8.88-2.22-17.75-3.93-26.52-2.54-13.09-1.7-26.31-2.18-39.49-.94-25.72-1.87-51.44-2.88-77.16-.55-14.09 3.9-26.81 10.17-39.13 2.71-5.32 6.04-9.76 11.56-12.47 3.2-1.57 6.09-3.76 9.18-5.56 7.69-4.46 15.6-7 24.88-5.65 15.51 2.25 30.51 5.88 44.48 13.09 12.21 6.31 20.74 16.05 25.95 28.78 1.69 4.12 3.69 8.15 5.86 12.04 2.54 4.57 2.93 9.3 1.98 14.28-.1.52-.24 1.16-.6 1.48-1.82 1.59-9.04.79-10.72-1.08-11.56-12.94-23.11-25.89-34.69-38.8-4.84-5.4-10.44-9.81-17.27-12.44-12.22-4.71-24.17-2.87-35.95 1.72-.79.31-1.44 1.04-2.09 1.64-1.65 1.52-3.25 3.08-4.88 4.62-3.41 3.23-8.05 5.89-9.89 9.86-1.76 3.8-.29 8.99-.83 13.5-.64 5.31-1.94 10.54-2.9 15.82-.17.95-.39 2.12-.02 2.92 6.37 13.4 5.14 27.71 5.01 41.86-.03 3.05.81 5.19 3.02 7.29 16.41 15.63 33.7 30.18 53.13 41.93 10.47 6.33 21.83 10.22 34.38 9.62 2.56-.12 4.04-1.06 5.2-3.32 4.96-9.64 5.03-19.74 3.41-30.13-.49-3.15-.38-6.48 0-9.65.41-3.41 2.74-5.63 6.1-6.36 3.27-.71 6.52-.76 8.48 2.74 2.49 4.45 5.68 8.68 7.25 13.44 2.71 8.23 5.95 16.41 6.05 25.34.04 3.2 2.31 4.77 5.52 4.11 11.27-2.31 22.5-4.86 33.78-7.12 2.8-.56 5.78-.63 8.64-.4 3.63.29 5.8 2.78 6.23 6.38.55 4.54-.69 7.01-4.23 8.55-7.74 3.37-15.97 4.07-24.26 4.51-7.18.38-13.3 3.1-17.64 8.94-1.17 1.57-2.16 3.9-1.97 5.75.66 6.2 1.89 12.34 2.91 18.5.55 3.29 1.57 6.58 1.59 9.87.05 6.16-7.28 12.05-13.26 10.94-.8-.15-1.54-1.16-2.09-1.92-4.98-6.81-7.53-14.62-9.45-22.74-1.08-4.55-2.68-8.97-4.17-13.41-1.12-3.35-3.71-4.49-6.91-3.51-5.33 1.62-10.76 3.13-15.81 5.43-9.35 4.26-18.46 9.06-27.67 13.63-.4.2-.89.33-1.17.64-6.83 7.46-16.49 10.61-24.55 16.18-1.34.93-2.6 2.11-3.58 3.42-5.43 7.24-10.77 14.54-16.08 21.87-.54.74-.98 1.82-.91 2.7.53 7.34.97 14.62 3.36 21.78 3.99 11.92 8.09 23.56 16.21 33.56 16.47 20.31 40.8 26.96 65.06 17.37 7.38-2.92 14.01-6.6 19.16-12.95 4.5-5.54 9.73-10.47 14.83-15.89zm-124.52-151.62c-1.08 19.43-2.13 38.41-.26 57.37.51 5.18 2 10.27 3.16 15.37.63 2.75 2.22 3.74 5.14 2.74 16.43-5.62 29.12-15.23 36.73-31.44 2.92-6.22 2.1-10.87-1.86-15.56-2.36-2.8-4.79-5.81-7.81-7.76-10.12-6.53-20.5-12.64-30.82-18.87-1.2-.72-2.59-1.13-4.28-1.85z" fill="#010102"/><g fill="#fafbfa"><path d="m6.4 11.7c-1-.8-1.9-1.6-2.9-2.3l.6-.7c.9.7 1.9 1.4 2.9 2.2zm-2.1 8.3c.7-2.1 1.4-4.2 2-6.4.2.1.6.3 1 .4-.7 2.3-1.3 4.4-1.9 6.4zm3-12.8c-1.1-.9-2.1-1.7-2.9-2.4l.6-.7c1 .8 2 1.5 3 2.4zm1.4-1.3v-.9h10.2v.9c-.9 4.2-2.3 7.3-4.1 9.4 1.3 1.4 3.2 2.7 5.7 4-.2.2-.4.5-.7.9-2.5-1.4-4.4-2.7-5.7-4.2-1.4 1.5-3.5 3-6.1 4.4 0 0 0 0-.1-.1-.3-.4-.5-.7-.7-.8 2.7-1.3 4.7-2.8 6.2-4.2-1.8-2.2-3-5.3-3.7-9.4zm9.2 0h-7.1c.6 3.8 1.7 6.7 3.4 8.7 1.7-2 2.9-4.8 3.7-8.7z"/><path d="m31.6 3.6h.9v2.3h4.1v9.1h1.7v.9h-16.6v-.9h1.7v-9.1h4.1v-2.3h.9v2.3h3.1v-2.3zm-4 13.3.6.8c-1.9.9-3.8 1.9-5.8 2.8-.2-.3-.3-.6-.5-.9 2-.9 3.9-1.8 5.7-2.7zm-3.2-10.1v3.7h3.1v-3.7zm0 4.5v3.7h3.1v-3.7zm4.1-4.5v3.7h3.1v-3.7zm0 4.5v3.7h3.1v-3.7zm9.1 9.1c-2.1-1.1-4.1-2-5.8-2.7l.5-.8c2.2.9 4.1 1.8 5.8 2.6zm-1.9-13.6h-3.1v3.7h3.1zm-3.2 4.5v3.7h3.1v-3.7z"/></g></svg>