<svg enable-background="new 0 0 400 400" viewBox="0 0 400 400" xmlns="http://www.w3.org/2000/svg"><path d="m246.27 267.37c-6.95 7.45-14.28 13.46-26.06 12.28 1.3-6.36 2.22-12.61 3.88-18.65 2.86-10.43 7.94-19.88 13.63-29.04 2.23-3.6 4.45-7.27 6.08-11.16 1.86-4.45.09-6.75-4.7-6.46-2.87.18-5.81.68-8.52 1.61-9.42 3.22-18.56 6.94-26.77 12.87-13.51 9.76-27.2 19.28-41.09 28.48-4.35 2.88-5.97 6.48-6.51 11.25-1.01 8.83.31 17.42 2.38 25.92 2.7 11.07 5.52 22.12 8.43 33.14.36 1.36 1.38 2.83 2.53 3.64 11.62 8.28 24.69 9.88 38.42 7.85 16.48-2.43 32.88-5.44 49.41-7.38 7.46-.88 15.17.04 22.74.49 3.23.19 6.31 1.71 6.99 5.3.72 3.77.5 7.3-2.86 10.35-12.06 10.93-26.03 15.87-42.33 15.45-8.8-.23-17.63.95-26.44 1.56-1.2.08-2.42.42-3.57.81-5.72 1.93-11.55 3.58-17.08 5.95-6.38 2.74-12.52 3.28-19 .56-2.66-1.12-5.52-1.94-8.37-2.38-7.98-1.23-14.25-5.16-19.66-11.03-3.71-4.02-8.03-7.47-11.89-11.36-1.17-1.18-2.09-2.9-2.45-4.52-2.42-11.03-4.47-22.14-7.05-33.12-.88-3.74-2.77-7.28-4.5-10.77-10.82-21.92-14.98-45.27-15.15-69.52-.24-33.91-.7-67.81-.7-101.72 0-9.71 1.33-19.41 1.94-29.12.13-2.07-.01-4.22-.41-6.25-.67-3.39-1.2-6.93-2.6-10.04-2.22-4.94-.08-7.61 3.59-10.58 15.11-12.22 31.96-21.37 49.88-28.57 13.99-5.62 28.12-10.92 42.41-15.71 4.14-1.39 9.08-.93 13.59-.55 5.99.5 12.04 1.26 17.83 2.78 7.4 1.94 11.85 11.75 9.09 18.83-.3.77-1.07 1.4-1.73 1.98-10.73 9.56-22.72 17.02-36.5 21.33-14.45 4.52-28.21 10.59-41.65 17.56-3.95 2.05-8.7 2.73-13.16 3.58-2.78.53-4.42 1.97-5.45 4.33-4.24 9.75-5.64 19.98-4.63 30.5.16 1.65 1.37 3.58 2.68 4.69 13.68 11.58 29.4 19.93 45.3 27.92 13.49 6.78 27.16 13.25 42.03 16.44 5.53 1.18 11.28 1.35 16.92 2.02 2.11.25 3.33-.51 3.8-2.67 2.87-13.08 5.66-26.18 8.76-39.21 1.18-4.94 2.48-10.04 4.83-14.48 3.16-5.96 10.51-7.69 16.7-4.91 5.46 2.45 12.33 16.86 10.78 22.67-.23.85-.41 1.79-.91 2.49-9.9 13.96-12.79 29.97-12.64 46.49.2 22.6 1.01 45.2 2.13 67.77.34 6.85 2.56 13.6 3.89 20.39 1.12 5.72-2.28 9.45-7.98 7.9-4.32-1.18-8.57-3.26-12.32-5.75-5.48-3.61-10.48-7.97-15.96-12.23zm-104.68-88.62c0 5.72-.24 10.95.05 16.15.49 8.78 2.49 17.18 6.97 24.9.99 1.71 1.93 2.29 3.96 1.86 12.99-2.72 22.24-11.77 32.79-18.66-3.08-7.15-6.88-13.46-14.08-15.91-9.45-3.2-19.22-5.45-29.69-8.34z" fill="#010102"/><g fill="#fafbfa"><path d="m6.4 11.7c-1-.8-1.9-1.6-2.9-2.3l.6-.7c.9.7 1.9 1.4 2.9 2.2zm-2.1 8.3c.7-2.1 1.4-4.2 2-6.4.2.1.6.3 1 .4-.7 2.3-1.3 4.4-1.9 6.4zm3-12.8c-1.1-.9-2.1-1.7-2.9-2.4l.6-.7c1 .8 2 1.5 3 2.4zm1.4-1.3v-.9h10.2v.9c-.9 4.2-2.3 7.3-4.1 9.4 1.3 1.4 3.2 2.7 5.7 4-.2.2-.4.5-.7.9-2.5-1.4-4.4-2.7-5.7-4.2-1.4 1.5-3.5 3-6.1 4.4 0 0 0 0-.1-.1-.3-.4-.5-.7-.7-.8 2.7-1.3 4.7-2.8 6.2-4.2-1.8-2.2-3-5.3-3.7-9.4zm9.2 0h-7.1c.6 3.8 1.7 6.7 3.4 8.7 1.7-2 2.9-4.8 3.7-8.7z"/><path d="m31.6 3.6h.9v2.3h4.1v9.1h1.7v.9h-16.6v-.9h1.7v-9.1h4.1v-2.3h.9v2.3h3.1v-2.3zm-4 13.3.6.8c-1.9.9-3.8 1.9-5.8 2.8-.2-.3-.3-.6-.5-.9 2-.9 3.9-1.8 5.7-2.7zm-3.2-10.1v3.7h3.1v-3.7zm0 4.5v3.7h3.1v-3.7zm4.1-4.5v3.7h3.1v-3.7zm0 4.5v3.7h3.1v-3.7zm9.1 9.1c-2.1-1.1-4.1-2-5.8-2.7l.5-.8c2.2.9 4.1 1.8 5.8 2.6zm-1.9-13.6h-3.1v3.7h3.1zm-3.2 4.5v3.7h3.1v-3.7z"/></g></svg>