<svg enable-background="new 0 0 400 400" viewBox="0 0 400 400" xmlns="http://www.w3.org/2000/svg"><path d="m374.8 390.4.4-.4c.7.5 1.3 1 1.8 1.4l-.5.5c-.5-.6-1.1-1.1-1.7-1.5zm1 7.3-.6-.3c.5-1.4 1.1-2.8 1.5-4.3.2.1.4.2.6.3-.5 1.3-1 2.8-1.5 4.3zm-.4-10.3.4-.4c.4.3 1 .8 1.7 1.4l-.5.5c-.4-.5-1-1-1.6-1.5zm2.5.3h1.7v-1h.6v1h3.5v-1h.6v1h1.8v.5h-1.8v1.4h-2v1h3.2v2h-3.2v.9h3.3v.5h-3.4c0 .3-.1.6-.1.9h4v.5h-3.7c.7.9 1.9 1.5 3.8 1.7-.1.2-.2.4-.3.6-2.1-.4-3.5-1.1-4-2.1-.4 1-1.8 1.7-4 2.2-.1-.2-.2-.4-.3-.6 2.1-.4 3.4-1 3.8-1.8h-3.4v-.5h3.6c.1-.3.1-.6.2-.9h-3.3v-.5h3.4c0-.3 0-.6 0-.9h-3.2v-2h3.3v-1h-2.1v-1.4h-1.7v-.5zm1.1 3.5v1h2.7c0-.3 0-.4 0-.4 0-.1 0-.2 0-.2 0-.1 0-.2 0-.3h-2.7zm1.2-3v.9h3.5v-.9zm4.7 3h-2.6v.6.4h2.6z" fill="#fbfcfa"/><path d="m393.6 386.7h.6v1.5h2.7v6.1h1.1v.6h-11v-.6h1.1v-6.1h2.7v-1.5h.6v1.5h2.1v-1.5zm-2.7 8.8.4.6c-1.2.6-2.5 1.3-3.8 1.9-.1-.2-.2-.4-.3-.6 1.2-.6 2.5-1.2 3.7-1.9zm-2.2-6.7v2.4h2.1v-2.4zm0 3v2.5h2.1v-2.5zm2.8-3v2.4h2.1v-2.4zm0 3v2.5h2.1v-2.5zm6 6.1c-1.4-.7-2.7-1.3-3.9-1.8l.3-.6c1.5.6 2.7 1.2 3.9 1.7zm-1.2-9.1h-2.1v2.4h2.1zm-2.1 3v2.5h2.1v-2.5z" fill="#fbfcfa"/><path d="m187.94 157.29c-4.77-3.54-5.43-11.03-1.91-15.25.57-.69.92-2.29.52-2.95-3.16-5.18-1.15-10.36-.47-15.62.61-4.73.69-9.54.78-14.32.02-.99-.79-2.71-1.45-2.83-1-.19-2.26.63-3.32 1.21-.66.36-1.14 1.06-1.7 1.6-1.13 1.08-2.21 1.88-3.68.37-.5-.51-1.41-.91-2.12-.89-4.21.11-5.95-2.77-7.6-5.93-1.03-1.98-2.17-3.92-3.46-5.74-2.27-3.21-3.6-6.63-3.31-10.63.18-2.51-.95-4.25-2.91-5.97-4.27-3.74-5.53-9.11-6.26-14.44-.7-5.09-.97-10.25-1.19-15.39-.05-1.12.61-2.65 1.46-3.36 5.74-4.83 11.15-10.31 17.6-13.93 5.05-2.83 11.38-3.53 17.23-4.74 6-1.24 12.12-1.88 18.17-2.89 4.13-.69 7.87.24 10.97 2.87 1.04.88 1.77 3.01 1.47 4.3-.27 1.21-1.98 2.76-3.24 2.95-4.95.75-9.98 1.09-14.99 1.38-.7.04-1.66-.85-2.15-1.56-1.01-1.44-1.79-3.05-2.76-4.75-2.67 2.85-2.98 6.21-2.22 9.32 3.03 12.37 1.74 24.93 2.09 37.42.05 1.73.74 3.44 1.02 5.17.42 2.62.97 5.25 1.05 7.88.17 5.1.57 5.85 5.22 7.51 1.79.64 3.59 1.24 5.36 1.94 2.81 1.11 5.47 2.39 8.04-.75.59-.73 2.55-.71 3.75-.45.85.18 1.57 1.29 2.14 2.13.13.18-.57 1.35-.94 1.37-.94.07-1.94-.17-2.85-.47-.28-.09-.36-.81-.7-1.68-1.39 2.89-2.27 4.91-3.32 6.83-.96 1.75-2.16 2.22-4.05.87-2.51-1.8-5.13-3.67-8.6-1.91-.52.26-1.64-.67-2.53-1.07-.22.21-.69.47-.66.65.94 5.64-4.58 9.92-3.09 15.85 1.1 4.37-.41 8.6-2.82 12.42-.52.82-.83 1.77-1.41 3.04 3.62-.43 4.21 1.8 4.79 4.33 5.94 25.95 13.62 51.39 22.67 76.42 1.65 4.56 1.56 4.6-3.24 7.08-1.87-4.3-5-8.51-5.24-12.88-.25-4.57-2.14-7.53-4.24-11.11-2.39-4.07-3.37-8.95-5.22-13.38-1.49-3.56-3.36-6.95-5.34-10.98-2.65 4.39-4.21 7.45-2.72 12.36 1.59 5.23.91 11.25.71 16.91-.19 5.31-1.06 10.59-1.57 15.89-.13 1.33.18 2.72-.05 4.02-1.44 7.91 2.55 13.72 7.36 19.19 6.46 7.35 13.28 14.28 22.75 17.78.84.31 1.68.61 2.54.85 3.95 1.07 6.35-.84 5.4-4.96-1.14-4.95-2.68-9.89-4.71-14.55-2.44-5.6-5.59-10.9-8.45-16.37 4.89-1.53 5.72-1.18 7.5 3.08 2.43 5.77 5.55 11.37 7 17.38.99 4.1 1.9 8.22 3.16 12.27.55 1.78.63 3.76.65 5.65.03 3.28.92 6.12 3.32 8.45 5.81 5.64 8.21 12.29 6.35 20.41-.39 1.73.17 3.78.67 5.58 2.57 9.26 1.87 18.33-1.01 27.41-1.66 5.24-3.79 5.59-8.46 3.08-7.78-4.18-15.38-8.7-23.08-13.04-1.06-.6-2.22-1.41-3.34-1.43-4.9-.09-8.15-3.16-11.74-5.83-2.39-1.78-4.97-3.48-7.73-4.53-3.15-1.19-4.44-.21-3.91 3.08.87 5.49 2.32 10.9 3.6 16.33 2.4 10.22 4.86 20.42 7.25 30.64.28 1.18.44 2.47.3 3.66-.44 3.82-.4 7.15 3 10.13 2.35 2.07 1.18 4.47-1.83 5.02-3.52-12.5-10.85-23.8-11.7-37.16-.05-.85-.35-1.8-.83-2.5-5.59-8.05-6.29-17.28-6.32-26.6-.01-3.49-.69-6.39-2.68-9.36-1.55-2.31-1.88-5.41-2.9-8.11-1.41-3.71-2.99-7.36-4.44-11.06-.66-1.68-1.19-3.42-1.68-4.81h6.88c3.56 6.31 7.21 12.78 11.21 19.85 3.97-.28 7.52 3.08 11.34 5.65 6.75 4.54 13.13 9.51 21.31 11.69 3.38.9 6.11 4.04 9.32 5.82 2.8 1.56 5.82 2.75 8.81 3.92 2.57 1 4.05-.17 4.44-2.8.38-2.54 1.15-5.11.99-7.62-.58-8.8-1.42-17.59-2.36-26.36-.13-1.22-1.12-2.69-2.15-3.43-5.54-3.98-11.16-7.86-16.89-11.56-1.73-1.12-3.88-1.63-5.89-2.28-7.66-2.46-15.33-4.79-21.98-9.66-4.67-3.42-6.71-7.73-6.71-13.44.01-15.78-.12-31.56-.3-47.34-.11-9.5-.46-18.99-.59-28.49-.03-2.22.48-4.45.57-6.68.1-2.54.77-4.6 4.25-5.17zm-.51-59.35c-.21-2.52-.46-4.84-.58-7.17-.29-5.69-.81-11.39-.69-17.07.09-4.17.52-8.18-1.79-12-.67-1.11-.31-2.82-.56-4.23-.79-4.46-1.42-8.97-2.6-13.32-.34-1.24-2.2-2.59-3.6-2.92-3.76-.87-7.41-.69-10.51 2.36-1.73 1.71-3.96 2.91-5.97 4.34-5.02 3.59-5.24 4.93-1.66 10.13.95 1.38 1.96 2.73 2.76 4.19.39.72.57 1.69.48 2.51-.87 7.98.36 15.61 4.28 22.62 2.34 4.19 5.17 8.11 7.93 12.05.49.7 1.86 1.36 2.64 1.2 3.26-.69 6.44-1.72 9.87-2.69z" fill="#010101"/></svg>