<svg enable-background="new 0 0 400 400" viewBox="0 0 400 400" xmlns="http://www.w3.org/2000/svg"><path d="m264.98 373.61c-2.79.46-5.3 1.61-7.4 1.09-11.47-2.85-23.1-5.41-34.17-9.45-8.85-3.23-17.28-7.95-25.31-12.94-4-2.49-6.94-6.88-9.96-10.72-9.16-11.67-15.03-25.05-19.75-38.99-3.58-10.58-7.31-21.12-10.6-31.79-1.03-3.33-.95-7.04-1.13-10.58-.26-5.12.1-10.29-.53-15.35-.76-6.1-4.87-9.56-10.71-11.04-2.27-.58-4.58-1.04-6.83-1.68-7.54-2.15-11.81-7.77-14.88-14.47-4.69-10.23-7.74-20.93-8.68-32.19-.09-1.05-.46-2.29-1.14-3.04-10.07-11.15-11.18-24.78-10.51-38.75.41-8.59 1.48-17.15 2.41-25.7.2-1.84 1-3.65 1.69-5.4 6.3-16.01 15.12-30.64 24.54-44.95 1.7-2.59 2.8-5.57 4.17-8.38 3.36-6.94 2.94-13.8-.42-20.63-.78-1.59-1.34-3.31-1.87-5.02-1.1-3.5-.21-6.37 3.17-8.65 9 6.31 15.44 14.33 17.08 25.56 1.38 9.46.79 18.89-2.57 27.79-2.43 6.44-5.79 12.6-9.35 18.51-4.72 7.83-9.67 15.58-15.2 22.84-6.75 8.88-8.58 18.69-7.51 29.39.12 1.22.39 2.43.58 3.64 1.29 8.36 1.64 9.02 8.28 15.25.24-.35.52-.64.65-.99 2.39-6.68 7.46-11.12 12.43-15.86 20.23-19.32 34.32-42.22 39.63-70.02.33-1.74.46-3.55.48-5.33.05-7.39.32-14.79-.06-22.16-.38-7.3-1.44-14.56-2.22-21.97 3.81.8 7.99 1.31 10.82 5.39 2.28 3.3 5.01 6.32 7.77 9.24 4.91 5.21 4.64 11.65 4.4 18-.46 12.04-2.71 23.74-7.24 34.97-1.46 3.61.08 6.47 3.93 6.78 13.53 1.07 26 6.3 38.94 9.66 3.44.89 4.75.04 5.9-3 2.63-6.93 1.42-13.92.73-20.9-.72-7.31-1.61-14.61-2.49-22.44 3.38 0 6.13-.08 8.88.06.59.03 1.25.75 1.7 1.3 2.75 3.37 5.19 7.02 8.21 10.12 5.02 5.16 7.2 10.79 5.02 17.95-2.14 7.05-4.03 14.18-5.85 21.32-1.08 4.24.49 10.12 4.58 11.11 11.65-28.21 10.69-56.33-1.29-84.21 3.25-1.55 5.38-1.61 7.64.55 5.49 5.27 11.22 10.29 16.78 15.48.74.69 1.5 1.79 1.55 2.74.53 9.38 1.42 18.79 1.2 28.16-.19 7.89-1.54 15.77-2.7 23.61-1.74 11.71-3.73 23.38-5.69 35.06-.25 1.49-.77 3-1.47 4.35-8 15.3-19.39 28.18-30.29 41.33-4.6 5.55-11.77 7.46-18.81 8.76-4.17.77-8.46 1.19-12.44 2.54-3.26 1.1-6.14 3.32-9 4.94 2.52 2.78 4.56 4.95 6.52 7.19 5.54 6.34 5.35 13.9 4.66 21.61-.74 8.32-5.15 14.92-10.11 21.11-1.78 2.23-4.71 3.75-7.39 4.99-6.38 2.96-12.89 5.68-19.43 8.26-2.4.95-3.98 2.52-3.93 4.84.11 4.85.35 9.76 1.21 14.53 2.23 12.36 9.61 22.18 16.33 32.36 3.29 4.98 7.12 8.9 12.4 11.77 7.56 4.11 14.67 9.04 22.25 13.11 6.86 3.69 14.02 6.83 21.17 9.95 4.31 1.89 8.66 3.57 11.23 9.39zm-75.42-257.67c-4.21 7.27-8.35 14.29-12.3 21.41-.49.88-.24 2.42.13 3.49 1.51 4.31 4.83 6.8 8.9 8.55 4.71 2.02 9.39 4.13 14.04 6.31 6.16 2.88 12.26 5.9 18.41 8.8 3.58 1.69 6.87.84 10.19-1.07 7.45-4.29 9.31-11.63 10.59-19.19.83-4.88-1.14-8.84-5.5-11.27-2.71-1.51-5.59-2.79-8.51-3.84-9.76-3.51-19.59-6.84-29.36-10.31-2.19-.79-4.26-1.86-6.59-2.88zm1.83 91.35c-2.96-.54-5.08-.89-7.17-1.3-2.69-.53-5.57-.67-8-1.77-6.6-2.99-13.01-6.42-19.52-9.63-.87-.43-1.96-1.02-2.78-.82-4.44 1.09-8.95 2.06-13.18 3.73-5.74 2.27-6.26 7.38-1.48 11.5.93.8 2.02 1.4 3.03 2.09 1.66 1.13 3.23 2.43 5.01 3.34 1.8.92 3.78 1.98 5.72 2.03 6.13.19 12.29.16 18.41-.2 7.22-.42 13.67-2.98 19.96-8.97zm-8.1 52.03c4.47-3.57 8.21-7.21 12.55-9.88 7.58-4.68 9.99-12.27 12.35-19.96 1.12-3.66-.47-7.04-3.76-8.79-.74-.39-2.01-.57-2.69-.2-9.01 4.9-17.97 9.92-27.16 15.04 2.9 7.91 5.73 15.64 8.71 23.79zm31.55-73.85c-.18-4.12-2.24-6.36-5.08-7.62-4.88-2.16-9.9-4-14.94-5.79-.81-.29-2.16.14-2.93.7-3.97 2.89-7.85 5.9-11.69 8.96-.68.54-1.57 1.68-1.39 2.23.28.87 1.26 1.81 2.16 2.12 6.72 2.38 13.48 4.65 20.26 6.83.92.29 2.22.19 3.07-.26 3.05-1.62 6.02-3.4 8.93-5.26.8-.5 1.29-1.51 1.61-1.91zm-34.89-18.43c-4.65-4.43-4.75-12.53-12.82-13.59-3.78 5.78-7.58 11.45-11.19 17.22-.75 1.2-.86 2.81-1.4 4.7 9.12-1.75 17.73-2.63 25.41-8.33zm66.82 7.45c2.97-2.88 5.72-5.61 8.55-8.27 4.07-3.83 4.62-9.01 5.27-14.07.31-2.42-1.68-3.41-3.71-4.09-1.97-.66-3.11.16-4.04 1.87-1.98 3.63-4.23 7.11-6.08 10.79-2.19 4.37-2.8 8.87.01 13.77z" fill="#010104"/><g fill="#fcfbfa"><path d="m385.2 377.6.6-.7c.6.4 1.3.9 1.9 1.5l-.6.7c-.8-.5-1.4-1-1.9-1.5zm.3 7.1c.6-1.4 1.1-2.9 1.5-4.5.3.1.6.3.9.4-.5 1.4-1 2.9-1.5 4.4zm.2-10.1.6-.6c.7.5 1.3 1.1 1.9 1.6l-.7.7c-.6-.6-1.2-1.2-1.8-1.7zm8.4-.8h.8v.9h1.8v.7h-1.8v1.8h-.8v-.3h-1.2v.9h3.3v2.6h-.8v-.4h-2.5c0 .3 0 .6-.1.8h3.4v.7h-3.5c0 .3-.1.6-.1.8h4v.7h-3.5c.7.9 1.9 1.3 3.6 1.5-.2.2-.4.5-.6.9-1.9-.3-3.2-1.1-3.8-2.3-.5 1.1-1.8 2-3.9 2.4-.2-.3-.4-.5-.6-.8 1.9-.4 3.1-.9 3.6-1.7h-3.2v-.7h3.5c.1-.2.1-.5.2-.8h-3.3v-.7h3.4c0-.2 0-.5 0-.8h-2.4v.3h-.8v-2.6h3.3v-.9h-1.2v.3h-.8v-1.8h-1.8v-.7h1.8v-.9h.8v.9h3.2zm-4.4 5.5h2.4c0-.3 0-.6 0-.9h-2.4zm1.2-3.1h3.2v-.8h-3.2zm4.4 2.2h-2.4v.9h2.5v-.9z"/><path d="m389.2 385.8h.9v1.5h1.9v-1.5h.9v1.5h2.7v6h1.1v.9h-11.3v-.9h1.1v-6h2.7zm.2 8.7.5.8c-1.2.6-2.5 1.3-4 1.9-.2-.3-.3-.6-.6-.8 1.6-.6 3-1.3 4.1-1.9zm-2-4.3h1.9v-2.1h-1.9zm0 3.1h1.9v-2.2h-1.9zm2.7-3.1h1.9v-2.1h-1.9zm0 3.1h1.9v-2.2h-1.9zm2.4 1.3c1.4.6 2.7 1.2 4.1 1.8l-.5.9c-1.5-.7-2.8-1.4-4.1-1.9zm2.2-6.5h-1.9v2.1h1.9zm-1.9 5.2h1.9v-2.2h-1.9z"/></g></svg>