<svg enable-background="new 0 0 400 400" viewBox="0 0 400 400" xmlns="http://www.w3.org/2000/svg"><path d="m292.23 374.27c-7.72 3.2-15.06 1.7-21.95-1.45-23.42-10.71-45.44-23.57-63.26-42.68-7.27-7.8-13.06-16.25-16.16-26.66-3.66-12.26-7.37-24.35-5.87-37.44.62-5.4.1-10.94.1-16.81-3.53-.46-6.92-.97-10.32-1.3-2.45-.24-4.24-1.09-5.82-3.21-9.77-13.09-19.7-26.06-29.63-39.02-1-1.3-2.28-2.47-3.64-3.38-10.5-7.02-21.1-13.91-31.56-21-1.17-.79-2.31-2.52-2.4-3.88-.51-7.92-.78-15.85-.91-23.78-.02-.95 1.27-1.94 1.99-2.88.11-.15.41-.16.62-.22 10.79-2.64 18.4-9.4 25.35-17.86 10.07-12.26 21.51-23.39 31.67-35.58 10.02-12.02 19.22-24.72 28.67-37.21 1.41-1.86 2.74-2.55 5.03-2.07 6.69 1.42 13.21 3.35 17.07 9.47 1.51 2.4 1.63 5.66 2.51 8.48.43 1.38.81 3.4 1.81 3.88 11.87 5.67 23.85 11.11 35.82 16.59.28.13.65.05 1.31.08 2.78-6.34 5.55-12.78 8.42-19.16 1-2.23 2.05-4.5 3.46-6.48 4.29-6.04 11.98-6.42 16.99-.89 1.72 1.9 3.28 3.96 4.74 6.07 3.44 5 4.5 10.65 2.66 16.33-4.19 12.94-8.75 25.77-13.3 38.6-.62 1.73-2.02 3.2-3.11 4.75-7.57 10.67-15.24 21.28-22.7 32.03-3.23 4.66-7.79 7.26-12.8 9.33-4.2 1.74-7.67 4.21-9.12 8.71-.25.78.04 2.35.61 2.7 9.04 5.59 10.85 14.3 9.45 23.71-1.18 7.91-3.4 15.7-5.61 23.41-2.73 9.51-9.6 16.51-15.37 24.18-6.62 8.8-12.15 18.24-11.03 29.79.96 9.93 3.8 19.27 11.7 26.27 10.87 9.64 21.02 20.25 32.69 28.78 9.63 7.04 20.98 11.76 31.66 17.35 5.1 2.67 9.62 5.67 10.23 12.45zm-107.45-199.82c-5.33-9.66-24.35-24.62-34.65-27.28-.84-.22-2.07-.07-2.76.41-6.67 4.66-13.29 9.39-19.84 14.22-.6.45-.93 1.72-.86 2.56.45 5.14 9.04 14.04 14.21 14.6 8.22.9 16.44 1.87 24.69 2.32 7.14.39 13.66-1.73 19.21-6.83zm21.08-7.78c2.79-1.75 5.14-3.22 7.49-4.7 3.5-2.2 4.53-4.52 3.81-8.64-.8-4.56-3-8.42-6.27-11.61-9.42-9.18-20.32-16.39-32.18-23.91-5.49 5.42-10.97 10.84-17.25 17.04 4.82 2.83 8.68 5.45 12.85 7.44 3.71 1.76 7.78 2.76 11.65 4.19 7.43 2.74 14.07 6.33 16.6 14.71.57 1.83 2.03 3.41 3.3 5.48zm-44.09 40.81c9.41 7.59 17.98 14.97 29.32 18.29 6.08 1.78 11.44 1.43 16.58-1.99 1.12-.74 2.2-2.21 2.44-3.5.96-5.05 1.66-10.15 2.3-15.25.61-4.85-1.41-8.74-5.6-10.84-.91-.46-2.22-.79-3.13-.5-13.78 4.47-27.53 9.04-41.91 13.79zm29.11-103.55c1.53 1.61 2.66 3.21 4.16 4.29 3.26 2.33 6.55 4.73 10.13 6.48 8.16 3.98 16.36 7.8 22.59 14.74.54.6 1.8.93 2.65.82 2.52-.33 5.01-.95 7.44-1.44.78-4.78-.27-9.44-3.84-14.28-7.18-9.74-16.45-16.99-27.56-21.77-1.13-.49-3.21-.25-4.12.51-3.89 3.32-7.52 6.95-11.45 10.65z" fill="#010104"/><path d="m107.81 135.83c-3.89-5.6-3.93-11.19-2.07-16.37 4.08-11.33 8.25-22.7 13.47-33.52 5.23-10.84 12.04-20.91 17.65-31.59 1.9-3.61 2.19-8.06 3.26-12.11 1.19-4.51 2.27-9.06 3.7-13.49.89-2.76 2.96-3.91 6.05-3.23 6.96 1.53 14.09 2.44 20.91 4.44 6.44 1.89 9.02 6.68 8.26 13.19-.12 1.04-.51 2.27-1.21 3-11.6 12.17-19.33 27.09-29.09 40.56-4.9 6.75-10.79 12.8-16.44 18.99-6.48 7.1-13.16 13.95-17.61 22.69-1.43 2.81-4.4 4.83-6.88 7.44z" fill="#010104"/><g fill="#fcfbfa"><path d="m385.2 377.6.6-.7c.6.4 1.3.9 1.9 1.5l-.6.7c-.8-.5-1.4-1-1.9-1.5zm.3 7.1c.6-1.4 1.1-2.9 1.5-4.5.3.1.6.3.9.4-.5 1.4-1 2.9-1.5 4.4zm.2-10.1.6-.6c.7.5 1.3 1.1 1.9 1.6l-.7.7c-.6-.6-1.2-1.2-1.8-1.7zm8.4-.8h.8v.9h1.8v.7h-1.8v1.8h-.8v-.3h-1.2v.9h3.3v2.6h-.8v-.4h-2.5c0 .3 0 .6-.1.8h3.4v.7h-3.5c0 .3-.1.6-.1.8h4v.7h-3.5c.7.9 1.9 1.3 3.6 1.5-.2.2-.4.5-.6.9-1.9-.3-3.2-1.1-3.8-2.3-.5 1.1-1.8 2-3.9 2.4-.2-.3-.4-.5-.6-.8 1.9-.4 3.1-.9 3.6-1.7h-3.2v-.7h3.5c.1-.2.1-.5.2-.8h-3.3v-.7h3.4c0-.2 0-.5 0-.8h-2.4v.3h-.8v-2.6h3.3v-.9h-1.2v.3h-.8v-1.8h-1.8v-.7h1.8v-.9h.8v.9h3.2zm-4.4 5.5h2.4c0-.3 0-.6 0-.9h-2.4zm1.2-3.1h3.2v-.8h-3.2zm4.4 2.2h-2.4v.9h2.5v-.9z"/><path d="m389.2 385.8h.9v1.5h1.9v-1.5h.9v1.5h2.7v6h1.1v.9h-11.3v-.9h1.1v-6h2.7zm.2 8.7.5.8c-1.2.6-2.5 1.3-4 1.9-.2-.3-.3-.6-.6-.8 1.6-.6 3-1.3 4.1-1.9zm-2-4.3h1.9v-2.1h-1.9zm0 3.1h1.9v-2.2h-1.9zm2.7-3.1h1.9v-2.1h-1.9zm0 3.1h1.9v-2.2h-1.9zm2.4 1.3c1.4.6 2.7 1.2 4.1 1.8l-.5.9c-1.5-.7-2.8-1.4-4.1-1.9zm2.2-6.5h-1.9v2.1h1.9zm-1.9 5.2h1.9v-2.2h-1.9z"/></g></svg>