<svg enable-background="new 0 0 400 400" viewBox="0 0 400 400" xmlns="http://www.w3.org/2000/svg"><path d="m240.04 373.74c.37-2.39.46-4.87 1.17-7.15 2.05-6.6 5-13 6.33-19.72.96-4.86-.11-10.12-.24-15.2-.04-1.75-.45-3.68.14-5.22 3.95-10.39 3.66-21.28 4.07-32.09.16-4.04-3.82-3.34-5.75-5.36-3.07 3.25-5.82 6.49-8.91 9.37-8.34 7.77-16.66 15.57-25.33 22.96-2.61 2.23-6.28 3.28-9.57 4.62-.7.28-2.31-.22-2.7-.85-6.06-9.93-12.32-19.83-13.58-31.75-.29-2.77.17-5.86 1.17-8.47 3.79-9.91 8.05-19.65 11.88-29.54.73-1.9 1.03-4.51.33-6.32-2.96-7.61-2.68-15.08.02-22.57 1.08-2.98.81-5.39-1.78-7.38-2.82-2.16-3.39-4.73-1.33-7.73 1.38-2.01 1.07-3.75-.25-5.79-.97-1.49-1.55-3.46-1.67-5.25-.42-6.81-.65-13.64-.79-20.46-.03-1.21.38-2.7 1.14-3.59 1.7-1.99 2.3-4 1.45-6.49-1.06-3.08-.63-6.01.3-9.15.75-2.54.8-5.5.35-8.14-.86-5.06-.25-9.82 1.93-14.35 2.27-4.71 1.81-9.27.03-13.96-.76-1.99-1.76-3.04-4.05-3.2-11.04-.75-22.06-1.67-33.09-2.52-8.31-.63-16.08-2.68-22.53-8.37-.54-.48-1.71-.88-2.24-.62-5.07 2.48-10.11 1.11-15.09-.09-3.79-.92-7.45-2.43-11.25-3.31-4.62-1.07-7.17-4.07-8.9-8.43 1.11 0 2.13-.23 3 .04 4.82 1.52 8.29-.12 11.25-4.03 1.22-1.62 3.15-2.83 4.98-3.85 5.18-2.88 10.5-5.49 15.69-8.36 2.83-1.56 5.6-3.28 8.2-5.2 3.73-2.76 3.67-7.22-.07-10.21-5.25-4.19-10.63-8.21-15.87-12.4-4.66-3.72-8.99-7.72-11.24-13.5-.75-1.93-.25-2.83 1.26-4.16 10.65-9.34 23.25-11.58 36.84-10.72 6.7.43 13.42.88 20.11.74 12.23-.26 23.93 2.66 35.75 5.07 3.64.74 7.59.59 11.31.14 5.38-.65 9.87-.11 13.32 4.75 2.24 3.16 4.19 3.1 6.8.26 1.55-1.68 3.08-2.17 5.3-1.67 5.34 1.21 10.72 2.28 16.1 3.29 3.13.58 5.94 1.5 8.24 3.96 2.37 2.54 5.36 3.53 8.81 1.92 2.13-1 3.41-.29 4.41 1.9 1.25 2.73 2.94 5.27 4.45 7.88 3.2 5.54 3.21 11.59 2.5 17.63-.64 5.43-1.97 10.78-2.66 16.21-.6 4.73-3.32 7.79-6.83 10.59-12.35 9.87-26.46 15.61-41.9 18.47-6.81 1.26-13.5 3.15-20.3 4.48-2.29.45-3.1 1.56-2.97 3.58.13 1.99.29 4.03.83 5.94 1.29 4.51 2.79 8.96 4.26 13.41.24.73.61 1.47 1.1 2.04 8 9.36 11.5 20.62 13.35 32.46 1.82 11.66 3 23.54-.58 34.94-2.42 7.69-6.14 15.12-10.25 22.09-6.64 11.27-14.1 22.04-21.13 33.08-.73 1.15-1.33 2.65-1.3 3.98.2 11.53.51 23.05.95 34.57.04 1.17.89 2.96 1.8 3.29 1.29.48 3.12.2 4.47-.34 1.62-.66 2.91-2.08 4.48-2.93 4.53-2.46 7.45-6.1 9.34-10.91 1.81-4.62 5.2-8.03 9.9-9.96 1.14-.47 2.26-.98 3.38-1.47 7.32-3.2 8.43-6.38 4.3-13.25 5.01-3.79 10.06-7.6 15.53-11.73 2.24 6.91 4.44 13.42 6.39 20 .38 1.27-.11 2.89-.49 4.27-2.46 8.92-2.44 17.83-.24 26.8.77 3.14 1.26 6.37 1.67 9.58.16 1.27.01 2.68-.4 3.9-2.03 6.04-4.18 12.03-6.31 18.04-.26.73-.62 1.43-.96 2.13-3.02 6.2-5.9 12.47-9.14 18.56-2.11 3.96-4.76 7.64-7.16 11.45-.52-.2-1.02-.41-1.53-.63zm-113.17-333.57c10.68 8.82 21.42 17.77 32.26 26.59 2.81 2.29 2.69 5.26 2.39 8.22-.27 2.69-2.62 3.25-4.84 3.88-4 1.13-8.43 1.41-10.88 5.7-.46.8-1.92 1.04-2.94 1.49-3.93 1.76-7.86 3.5-11.83 5.26 3.61 6.09 3.55 6.39 9.85 7.67 8.75 1.77 17.56 3.53 26.43 4.35 5.67.52 11.51-.56 17.26-1.12 2.17-.21 3.08-1.77 3.07-4.03-.03-4.7.18-9.4.18-14.09.02-11.85-.17-23.67 4.98-34.87 1.86-4.05-.59-9.17-4.15-11.88-3 1.18-5.67 3.24-8.14 3.02-15.01-1.34-30-3.02-44.94-4.99-5.98-.79-5.92-1.26-8.64 4.26-.06.1-.03.22-.06.54zm118.83 5.88c-.01.08-.01.16-.02.24-1.78-.12-3.56-.3-5.35-.36-4.15-.14-6.4 1.7-6.78 5.87-.14 1.61.13 3.38.69 4.9 2.52 6.84 3.52 13.85 2.63 21.08-.86 6.92-2.28 13.66-7.1 19.16-.83.94-1.95 2.45-1.7 3.35.64 2.31 1.06 4.76 4.47 5.43 13.23 2.61 25.54.1 37.21-6.13 2.89-1.55 6.47-3.46 7.72-6.14 4.46-9.57 7.2-19.78 6.3-30.49-.72-8.59-5.52-13.55-14.06-14.67-7.96-1.05-16-1.52-24.01-2.24zm-52.39 42.65c0 2.12-.36 4.32.09 6.35.65 2.96 1.32 6.19 3 8.59 2.14 3.06 5.15 5.58 8.1 7.94.93.75 3.96.73 4.17.24 1.8-4.09 5.5-4.39 8.98-4.69 3.47-.3 5.65-1.93 6.86-4.97 4.44-11.18 8.45-22.4 4.74-34.75-.53-1.77-.36-4.09.33-5.83 2.81-7.16-1-14.84-8.52-16.46-4.48-.97-8.97-1.83-13.47-2.7-4.78-.93-6.33-.08-7.82 4.7-4.22 13.54-5.9 27.49-6.46 41.58zm15.92 53.89c-.38.23-.76.46-1.15.68-.91 7.65-1.81 15.31-2.72 22.96-.89 7.53-2.1 15.03.61 22.51.47 1.29.32 3.53-.51 4.42-2.9 3.13-2.08 6.58-1.64 10.09.77 6.1 1.42 12.21 2.3 18.29.8 5.47 1.84 10.91 2.77 16.37.38.2.77.4 1.15.6 2.38-2.2 4.89-4.26 7.08-6.64 1.49-1.62 2.18-4.09 3.83-5.44 3.8-3.1 4.85-7.29 5.69-11.7.29-1.54.46-3.12.97-4.58 1.65-4.73 1.38-9.41.1-14.15-.81-3.02-1.41-6.11.23-9.11 1.67-3.05.59-5.54-1.63-7.78-3.19-3.22-4.56-7.22-5.59-11.56-1.24-5.18-2.73-10.39-4.88-15.25-1.55-3.54-4.36-6.5-6.61-9.71z" fill="#010102"/><g fill="#fcfbfa"><path d="m385.2 377.6.6-.7c.6.4 1.3.9 1.9 1.5l-.6.7c-.8-.5-1.4-1-1.9-1.5zm.3 7.1c.6-1.4 1.1-2.9 1.5-4.5.3.1.6.3.9.4-.5 1.4-1 2.9-1.5 4.4zm.2-10.1.6-.6c.7.5 1.3 1.1 1.9 1.6l-.7.7c-.6-.6-1.2-1.2-1.8-1.7zm8.4-.8h.8v.9h1.8v.7h-1.8v1.8h-.8v-.3h-1.2v.9h3.3v2.6h-.8v-.4h-2.5c0 .3 0 .6-.1.8h3.4v.7h-3.5c0 .3-.1.6-.1.8h4v.7h-3.5c.7.9 1.9 1.3 3.6 1.5-.2.2-.4.5-.6.9-1.9-.3-3.2-1.1-3.8-2.3-.5 1.1-1.8 2-3.9 2.4-.2-.3-.4-.5-.6-.8 1.9-.4 3.1-.9 3.6-1.7h-3.2v-.7h3.5c.1-.2.1-.5.2-.8h-3.3v-.7h3.4c0-.2 0-.5 0-.8h-2.4v.3h-.8v-2.6h3.3v-.9h-1.2v.3h-.8v-1.8h-1.8v-.7h1.8v-.9h.8v.9h3.2zm-4.4 5.5h2.4c0-.3 0-.6 0-.9h-2.4zm1.2-3.1h3.2v-.8h-3.2zm4.4 2.2h-2.4v.9h2.5v-.9z"/><path d="m389.2 385.8h.9v1.5h1.9v-1.5h.9v1.5h2.7v6h1.1v.9h-11.3v-.9h1.1v-6h2.7zm.2 8.7.5.8c-1.2.6-2.5 1.3-4 1.9-.2-.3-.3-.6-.6-.8 1.6-.6 3-1.3 4.1-1.9zm-2-4.3h1.9v-2.1h-1.9zm0 3.1h1.9v-2.2h-1.9zm2.7-3.1h1.9v-2.1h-1.9zm0 3.1h1.9v-2.2h-1.9zm2.4 1.3c1.4.6 2.7 1.2 4.1 1.8l-.5.9c-1.5-.7-2.8-1.4-4.1-1.9zm2.2-6.5h-1.9v2.1h1.9zm-1.9 5.2h1.9v-2.2h-1.9z"/></g></svg>