<svg enable-background="new 0 0 400 400" viewBox="0 0 400 400" xmlns="http://www.w3.org/2000/svg"><path d="m123.44 131.18c3.32-2.06 6.83-3.49 9.33-5.94 5.33-5.24 10.36-10.84 15.1-16.62 3.94-4.8 5.47-10.55 3.69-16.7-.63-2.16-1.85-4.22-3.14-6.09-3.36-4.87-7.13-9.46-10.29-14.45-1.5-2.38-2.41-5.33-2.86-8.14-1.22-7.67-1.07-8.44 7.48-9.23 8.7-.81 16.68 2.52 23.41 7.71 8.7 6.7 18.29 10.19 29.1 10.56 10.09.34 20.12-.23 29.99-2.61 1.71-.41 3.54-.76 3.37-2.89-.1-1.34-.71-2.98-1.67-3.85-10.72-9.67-21.48-19.31-32.42-28.73-2.47-2.12-2.39-4.51-1.19-6.48.79-1.29 3.48-2.38 5.03-2.08 10.73 2.1 21.39 4.58 32.06 6.98 2.72.61 5.37 1.7 8.12 2.04 8.38 1.03 12.99 6.65 16.21 13.51 10.65 22.68 14.14 46.27 8.15 70.9-3.28 13.46-6.57 26.92-9.97 40.36-.42 1.67-1.29 3.35-2.35 4.72-7.37 9.54-14.84 19.01-22.44 28.7 5.69 4.27 9.84 9.5 11.08 16.42 1.77 9.95.46 18.93-7.77 26.18-12.44 10.94-24.53 22.28-36.77 33.44-2.8 2.55-3.02 5.15-.04 7.55 7.58 6.08 15.19 12.15 23.09 17.79 12.09 8.64 24.35 17.06 36.73 25.28 4.72 3.13 9.99 5.46 15.02 8.13 7.86 4.16 14.87 9.39 21.45 15.42 5.5 5.04 11.79 9.24 17.82 13.68 4.77 3.51 8.45 7.66 9.27 13.77.63 4.65-2.36 6.96-6.73 5.05-2.12-.93-4.32-2.06-5.96-3.65-23.07-22.39-50.17-38.79-78.62-53.21-1.2-.61-2.57-.99-3.58-1.82-11.02-9.07-24.78-12.06-37.66-16.98-11.06-4.22-18.29-17.88-14.97-28.87.63-2.07 1.76-4.14 3.15-5.8 4.99-5.98 9.32-12.61 16.39-16.6 2.29-1.29 1.92-4.48-.61-5.08-5.39-1.28-10.87-2.44-16.37-2.91-5.95-.51-11.81-.91-17.12-3.96-7.05-4.06-10.85-12.54-9.55-21.24.46-3.1.97-6.2 1.17-9.32.06-.88-.71-2.4-1.44-2.66-18.73-6.63-31.27-20.27-41.11-36.7-8.55-14.28-16.53-28.9-24.69-43.41-2.82-5.01-5.07-10.22-4.65-16.2.37-5.25.91-5.71 6.03-6.42 8.35-1.17 16.12 1.77 24.15 2.99 4.47.68 7.33 2.84 8.99 6.87 2.3 5.57 4.58 11.15 6.87 16.72.46 1.03.92 2.03 1.72 3.87zm108.77 22.36c4.02-7.19 6.68-15.19 7.23-23.78.12-1.84-.71-3.96-1.72-5.58-1.16-1.87-2.96-2.28-5.17-.86-10.63 6.86-22.4 11.1-34.56 14.25-5.55 1.44-11.08 1.71-16.8-.16-8.06-2.64-16.35-4.56-24.52-6.87-1.87-.53-3.29-.35-4.89.92-8.06 6.41-16.27 12.61-24.29 19.07-1.33 1.08-1.95 3.05-2.89 4.61.27.3.54.6.81.91 6.26-3.22 12.87-1.97 19.38-1.96 2.57 0 5.16.28 7.69-.04 22.42-2.75 44.82-5.62 67.24-8.4 1.13-.14 2.6-.13 3.43.48 3.01 2.22 5.82 4.72 9.06 7.41zm-53.75-36.63c18.33-.36 30.54-1.28 46.4-8.59 2.01-.92 4.23-1.45 6.41-1.92 7.98-1.71 10.56-4.88 10.38-13-.11-5.1-3.26-7.98-8.32-7.08-7.25 1.3-14.55 2.54-21.61 4.57-7.89 2.27-15.49 3.82-23.62 1.01-4.41-1.52-12.94 3.09-14.18 6.8-1.03 3.06-2.27 6.05-3.29 9.12-.66 2-1.21 4.05-1.59 6.12-.37 2.01.35 3.17 2.71 3 2.22-.16 4.47-.03 6.71-.03zm-16.91 93.22c-.12.3-.25.59-.37.89 3.06 3.35 5.56 7.62 9.28 9.88 9.79 5.92 20.81 8.49 32.18 6.82 10.79-1.59 15.95-4.96 17.11-15.02.92-8-3.58-12.33-11.55-10.79-15.5 3-30.43 9.19-46.65 8.22zm65.47-50.9c-1.21.74-2.05 1.24-2.88 1.78-19.43 12.52-40.42 17.91-63.56 14.56-6.32-.91-12.83-.45-19.24-.82-2.96-.17-5.89-.84-8.83-1.29-.2.28-.39.57-.59.85 3.53 3.12 6.56 7.47 10.67 9.16 29.45 12.08 55.92 5.73 80.03-13.92 3.32-2.71 4.04-6.07 4.4-10.32z" fill="#010104"/><g fill="#fcfbfa"><path d="m385.2 377.6.6-.7c.6.4 1.3.9 1.9 1.5l-.6.7c-.8-.5-1.4-1-1.9-1.5zm.3 7.1c.6-1.4 1.1-2.9 1.5-4.5.3.1.6.3.9.4-.5 1.4-1 2.9-1.5 4.4zm.2-10.1.6-.6c.7.5 1.3 1.1 1.9 1.6l-.7.7c-.6-.6-1.2-1.2-1.8-1.7zm8.4-.8h.8v.9h1.8v.7h-1.8v1.8h-.8v-.3h-1.2v.9h3.3v2.6h-.8v-.4h-2.5c0 .3 0 .6-.1.8h3.4v.7h-3.5c0 .3-.1.6-.1.8h4v.7h-3.5c.7.9 1.9 1.3 3.6 1.5-.2.2-.4.5-.6.9-1.9-.3-3.2-1.1-3.8-2.3-.5 1.1-1.8 2-3.9 2.4-.2-.3-.4-.5-.6-.8 1.9-.4 3.1-.9 3.6-1.7h-3.2v-.7h3.5c.1-.2.1-.5.2-.8h-3.3v-.7h3.4c0-.2 0-.5 0-.8h-2.4v.3h-.8v-2.6h3.3v-.9h-1.2v.3h-.8v-1.8h-1.8v-.7h1.8v-.9h.8v.9h3.2zm-4.4 5.5h2.4c0-.3 0-.6 0-.9h-2.4zm1.2-3.1h3.2v-.8h-3.2zm4.4 2.2h-2.4v.9h2.5v-.9z"/><path d="m389.2 385.8h.9v1.5h1.9v-1.5h.9v1.5h2.7v6h1.1v.9h-11.3v-.9h1.1v-6h2.7zm.2 8.7.5.8c-1.2.6-2.5 1.3-4 1.9-.2-.3-.3-.6-.6-.8 1.6-.6 3-1.3 4.1-1.9zm-2-4.3h1.9v-2.1h-1.9zm0 3.1h1.9v-2.2h-1.9zm2.7-3.1h1.9v-2.1h-1.9zm0 3.1h1.9v-2.2h-1.9zm2.4 1.3c1.4.6 2.7 1.2 4.1 1.8l-.5.9c-1.5-.7-2.8-1.4-4.1-1.9zm2.2-6.5h-1.9v2.1h1.9zm-1.9 5.2h1.9v-2.2h-1.9z"/></g></svg>