<svg viewBox="0 0 400 400" xmlns="http://www.w3.org/2000/svg"><rect width="400" height="400" fill="white" /><path d="m185.67 343.14c-1.86-2.37-1.4-4.22.25-6.42 7.4-9.83 14.39-19.99 21.98-29.67 6.41-8.18 13.57-15.77 20.19-23.8 10.4-12.61 19.24-26.13 23.29-42.25 1.58-6.29 3-12.61 4.4-18.94.43-1.95.62-3.97.76-5.97.33-4.85-.86-8.77-5.46-11.62-6.03-3.74-11.66-8.14-17.66-12.4-3.49 5.36-6.71 9.92-9.55 14.71-6.79 11.46-16.91 19.9-26.1 29.18-4.33 4.37-8.64 8.78-12.79 13.32-.94 1.03-1.83 2.81-1.61 4.05.92 5.36 2.04 10.7 3.49 15.93 1.51 5.46 4.29 10.69 4.97 16.22.57 4.67-.24 9.92-1.93 14.35-3.04 7.96-7.73 15.11-14.44 20.7-3.27 2.72-6.42 5.58-9.62 8.38-3.15 2.75-3.39 6.55-.5 9.75 11.16 12.39 22.11 25 36.61 33.77.71.43 1.3 1.07 2.23 1.85-4.42 1.57-8.51 1.55-12.41-.03-9.39-3.81-18.88-7.33-26.38-14.78-4.74-4.71-10.41-8.46-15.59-12.73-11.06-9.09-15.68-21.56-17.61-35.13-1.73-12.17-2.42-24.48-4.23-36.64-.97-6.58-3.24-12.97-5.09-19.4-.3-1.05-1.29-2.06-2.22-2.74-9.69-7.03-19.43-13.99-29.16-20.97-.27-.2-.51-.49-.81-.59-7.84-2.4-10.93-9.11-13.07-15.85-4.02-12.65-7.21-25.57-10.62-38.41-.18-.69.61-2.21 1.27-2.45 1.49-.53 3.59-1.21 4.73-.57 5.23 2.92 9.18.48 13.9-1.74 9.37-4.4 19.17-7.88 28.88-11.53 4.9-1.85 9.99-3.19 14.96-4.87 1.57-.53 3.16-1.21 4.51-2.16 2.58-1.81 3.02-5.6.82-7.59-4.85-4.36-10.11-8.16-16.53-9.93-3.25-.89-6.13-.59-9.01 1.82-8.75 7.33-17.76 14.35-26.67 21.49-4.03 3.23-9.84 1.17-11.26-3.68-.93-3.17-.17-4.89 2.52-6.86 9.99-7.31 17.08-17.31 24.19-27.24 1.56-2.18 2.84-4.58 4.52-6.66 1.64-2.04 3.62-3.79 5.43-5.69.99-1.04 2.07-2.03 2.85-3.21 4.65-6.98 8.99-14.18 13.89-20.99 6.69-9.3 9.17-19.77 9.46-30.91.24-9.29 1.62-18.23 6.25-26.48 1.06-1.89 2.09-2.44 4.23-1.89 2.8.72 5.7 1.31 8.58 1.38 5.37.13 8.3 3.95 11.65 7.16.35.34.08 1.63-.25 2.33-4.44 9.58-4.9 19.89-5.51 30.15-.05.88 1.01 2.12 1.88 2.72 11.21 7.79 22.51 15.45 33.7 23.26 2.16 1.51 4.19 3.36 5.88 5.38 6.61 7.89 13.25 15.78 19.51 23.95 3.73 4.86 6.79 10.23 10.14 15.38.24.37.68.89.58 1.17-2.01 5.48 2.43 9.34 3.57 14.01.26 1.04 1.63 1.82 2.49 2.71.41-.05.81-.1 1.22-.15 1.21-6.29 2.5-12.56 3.62-18.86 2.31-13 .58-25.85-1.45-38.7-.26-1.67.11-3.5.49-5.18.77-3.47 1.94-6.87 2.57-10.36.41-2.27 1.42-2.69 3.44-2.34 9.64 1.65 15.51 9.59 14.78 19.41-.35 4.74-.05 9.56.35 14.31.23 2.79 2.01 4.6 4.79 5.82 12.59 5.52 25.01 11.43 37.62 16.9 5.12 2.22 8.75 5.74 11.35 10.44 3.01 5.44 5.78 11 8.56 16.34-4.84-.85-9.91-1.54-14.51-5.42-8.62-7.26-19.6-9.45-30.36-11.67-3.26-.68-6.65-.7-9.96-1.16-1.28-.18-2.62-.53-3.74-1.15-2.05-1.13-3.95-2.52-6.11-3.92-3.37 4.22-4.26 9.3-5.61 14.19-.33 1.18-.51 2.41-.73 3.62-2.26 12.11-2.22 12.07 7.45 19.44 1.82 1.39 3.4 3.2 4.77 5.05 2.12 2.88 3.8 6.08 5.94 8.94 4.69 6.29 8.08 13.04 8.92 20.99.15 1.45 1.26 3.19 2.46 4.07 2.39 1.75 2.73 3.64 1.97 6.33-1.87 6.63-2.86 13.6-4.6 20.1-1.9 7.11-3.96 14.78-10.01 20.76-18.94 18.73-37.28 38.06-55.76 57.25-4.19 4.35-7.97 9.08-12 13.59-4.79 5.29-10.57 8.59-17.94 9.03zm-100.01-148.41c2.26 4.69 4.17 9.07 6.43 13.26 8.34 15.45 24.18 20.84 38.4 28.39.28.15.66.11.99.17 5.83 1.05 11.64 2.19 17.5 3.08 1.29.2 2.88-.15 4.06-.78 5.53-2.93 11-5.96 16.41-9.1 7.96-4.62 15.05-10.32 21.77-18.24-2.88-.84-5.08-1.95-7.33-2.03-3.89-.14-7.81.3-11.7.6-9.12.7-18.22 1.9-27.35 2.07-9.88.19-18.95-2.89-26.62-9.41-2.99-2.54-2.17-7.26 1.55-8.2 5.5-1.39 11.05-2.89 16.67-3.49 11.67-1.27 23.4-1.93 35.09-2.93 6.79-.58 13.71-.67 20.31-2.18 7.25-1.66 14.22-4.62 21.24-7.2.95-.35 2.09-1.71 2.16-2.68.26-3.78.16-7.59.11-11.39-.04-3.1-1.71-5.42-4.64-5.74-5.03-.56-10.32-1.41-15.16-.44-12.25 2.46-24.31 5.88-36.46 8.88-10.72 2.64-21.53 4.9-31.22 10.7-10.02 5.99-20.91 10.06-32.09 13.38-3.1.91-6.15 1.98-10.12 3.28zm85.61 86.79c-1.01-2.82-2.16-7.37-4.23-11.45-1.89-3.74-4.76-6.98-7.21-10.43-2.41-3.39-9.23-6.55-12.7-4.6-2.18 1.23-2.9 5.08-4.24 7.76-.14.28-.09.66-.14.99-1.84 11.97.46 23.55 3.23 35.1 1.26 5.27 3.17 10.16 7.21 14.07 2.62 2.53 8.84 2.1 10.26-1.28 3.81-9.07 6.7-18.43 7.82-30.16zm-21.32-190.84c-.56.44-1.55.93-2.13 1.71-5.08 6.94-10.16 13.88-15.09 20.93-4.23 6.04-3.63 13.31 1.41 18.59 2 2.1 4.3 3.92 6.25 6.07 1.57 1.73 3.21 1.61 5.11.92 4.84-1.76 8.25-5.26 11.08-9.36 4.38-6.34 8.76-12.68 12.93-19.16 1.23-1.92 2.29-4.26 2.44-6.47.12-1.83-.67-4.46-2.02-5.51-5.67-4.39-12.53-6.15-19.98-7.72zm57.85 46.85c-4.54-6.65-8.51-12.81-12.88-18.67-1.32-1.77-3.66-2.87-5.68-4-2.24-1.26-4.12-1.05-6.05 1.22-6.07 7.14-12.27 14.2-18.75 20.97-2.71 2.84-3.32 5.5-1.59 9.31 14.93-1.14 29.55-4.1 44.95-8.83z" fill="#000001"/><g fill="#fbfafa"><path d="m6.44 374.46.42-.45c.65.47 1.27.95 1.85 1.44l-.45.49c-.65-.56-1.25-1.06-1.82-1.48m.93 7.33-.63-.26c.55-1.36 1.05-2.8 1.52-4.33.19.1.38.19.59.27-.46 1.29-.95 2.73-1.48 4.32m-.38-10.38.44-.42c.43.34 1.01.82 1.74 1.44l-.49.49c-.53-.51-1.09-1.01-1.69-1.51m2.5.35h1.72v-1.04h.59v1.04h3.52v-1.04h.59v1.04h1.75v.53h-1.75v1.42h-2.03v.97h3.22v2.03h-3.24c0 .35-.01.66-.03.93h3.32v.53h-3.37c-.03.27-.08.58-.15.94h3.96v.53h-3.71c.67.92 1.93 1.48 3.79 1.68-.13.24-.23.44-.29.59-2.13-.38-3.48-1.08-4.04-2.12-.43.97-1.77 1.72-4.03 2.23-.09-.19-.2-.37-.33-.55 2.1-.42 3.37-1.03 3.81-1.83h-3.36v-.53h3.58c.08-.29.13-.61.16-.94h-3.33v-.53h3.39c.02-.27.04-.58.04-.93h-3.23v-2.03h3.25v-.97h-2.07v-1.42h-1.73zm1.12 3.44v1h2.65c.01-.3.02-.44.01-.4v-.25-.35zm1.19-2h3.52v-.91h-3.52zm4.71 2h-2.63v.59c0 .15-.01.28-.01.4h2.64z"/><path d="m13.56 383.74h.63v1.52h2.72v6.07h1.13v.6h-11.06v-.6h1.13v-6.07h2.73v-1.52h.63v1.52h2.1v-1.52zm-2.69 8.83.38.56c-1.24.63-2.53 1.25-3.85 1.85-.1-.21-.21-.42-.34-.63 1.36-.55 2.63-1.15 3.81-1.78m-2.13-4.27h2.1v-2.45h-2.1zm0 3.04h2.1v-2.46h-2.1zm2.72-3.04h2.1v-2.45h-2.1zm0 3.04h2.1v-2.46h-2.1zm6.07 3.6c-1.41-.71-2.7-1.3-3.86-1.78l.35-.56c1.45.62 2.75 1.19 3.88 1.72zm-1.25-9.09h-2.1v2.45h2.1zm-2.09 5.49h2.1v-2.46h-2.1z"/></g></svg>