<svg viewBox="0 0 400 400" xmlns="http://www.w3.org/2000/svg"><rect width="400" height="400" fill="white" /><path d="m345.2 187.97c-4.27 1.86-8.13 3.62-12.07 5.18-.91.36-2.12.13-3.15-.05-.86-.16-1.71-.56-2.48-1-9.79-5.54-20.57-7.05-31.54-7.95-6.8-.56-13.58-1.34-20.34-2.26-1.51-.21-3.09-1.15-4.3-2.17-6.75-5.7-13.29-11.64-20.1-17.26-4.1-3.38-8.86-5.63-14.23-6.33-2.72-.35-4.46.24-5.29 3.47-6.87 26.73-14.01 53.39-20.84 80.13-.89 3.49-.97 7.37-.59 10.98 1.26 11.99-2.34 22.69-7.84 33.04-5.65 10.62-12.5 20.36-20.32 29.5-3.88 4.54-8.89 6.88-14.06 9.31-2.76 1.3-5.46 3.07-7.67 5.17-22.49 21.35-48.08 37.25-78.64 43.93-9.88 2.16-20.12 2.68-30.22 3.72-1.15.12-2.45-1.19-4.36-2.2 11.81-7.44 22.69-14.06 33.33-21.05 18.03-11.85 36.65-22.97 53.66-36.15 25.6-19.84 43.88-45.43 52.92-76.94 4.66-16.23 6.4-32.89 6.36-49.76 0-1.85.34-3.79.94-5.55 4.86-14.51 9.77-29.01 14.8-43.46.75-2.15 2.04-4.17 3.35-6.06 1.53-2.19 3.25-4.3 5.11-6.22 5.56-5.74 9.43-12.34 11.19-20.21.29-1.31 1.5-2.9 2.7-3.44 11.75-5.29 20.19-14.13 28.13-24.06 16.2-20.27 34.54-38.44 56.25-52.95 1.59-1.07 2.86-1.93 4.65-.36 1.74 1.52 2.4 3.18 1.45 5.33-1.68 3.79-3.33 7.59-7.43 9.53-1.2.57-2.19 1.58-3.38 2.18-4.68 2.36-7.8 5.64-7.73 11.33.02 1.29-.9 2.73-1.72 3.86-7.87 10.84-17.33 20.19-27.34 29.02-10.3 9.09-19.68 18.94-25.62 31.55-.6 1.28-.64 2.94-.56 4.41.54 9.22 5.12 15.87 12.04 22.03 14.84 13.21 31.82 22.75 49.73 30.71 4.37 1.94 9.84 1.49 14.82 1.97 1.99.19 4.02-.14 6.03-.15 6.66-.09 11.14 3.25 14.36 9.23z" fill="#010102"/><g fill="#fcfbfa"><path d="m385.2 377.6.6-.7c.6.4 1.3.9 1.9 1.5l-.6.7c-.8-.5-1.4-1-1.9-1.5zm.3 7.1c.6-1.4 1.1-2.9 1.5-4.5.3.1.6.3.9.4-.5 1.4-1 2.9-1.5 4.4zm.2-10.1.6-.6c.7.5 1.3 1.1 1.9 1.6l-.7.7c-.6-.6-1.2-1.2-1.8-1.7zm8.4-.8h.8v.9h1.8v.7h-1.8v1.8h-.8v-.3h-1.2v.9h3.3v2.6h-.8v-.4h-2.5c0 .3 0 .6-.1.8h3.4v.7h-3.5c0 .3-.1.6-.1.8h4v.7h-3.5c.7.9 1.9 1.3 3.6 1.5-.2.2-.4.5-.6.9-1.9-.3-3.2-1.1-3.8-2.3-.5 1.1-1.8 2-3.9 2.4-.2-.3-.4-.5-.6-.8 1.9-.4 3.1-.9 3.6-1.7h-3.2v-.7h3.5c.1-.2.1-.5.2-.8h-3.3v-.7h3.4c0-.2 0-.5 0-.8h-2.4v.3h-.8v-2.6h3.3v-.9h-1.2v.3h-.8v-1.8h-1.8v-.7h1.8v-.9h.8v.9h3.2zm-4.4 5.5h2.4c0-.3 0-.6 0-.9h-2.4zm1.2-3.1h3.2v-.8h-3.2zm4.4 2.2h-2.4v.9h2.5v-.9z"/><path d="m389.2 385.8h.9v1.5h1.9v-1.5h.9v1.5h2.7v6h1.1v.9h-11.3v-.9h1.1v-6h2.7zm.2 8.7.5.8c-1.2.6-2.5 1.3-4 1.9-.2-.3-.3-.6-.6-.8 1.6-.6 3-1.3 4.1-1.9zm-2-4.3h1.9v-2.1h-1.9zm0 3.1h1.9v-2.2h-1.9zm2.7-3.1h1.9v-2.1h-1.9zm0 3.1h1.9v-2.2h-1.9zm2.4 1.3c1.4.6 2.7 1.2 4.1 1.8l-.5.9c-1.5-.7-2.8-1.4-4.1-1.9zm2.2-6.5h-1.9v2.1h1.9zm-1.9 5.2h1.9v-2.2h-1.9z"/></g></svg>