<svg viewBox="0 0 400 400" xmlns="http://www.w3.org/2000/svg"><rect width="400" height="400" fill="white" /><path d="m137.52 105.68c-3.93 5.95-7.67 11.62-11.5 17.42 5.37 4.88 6.21 11.23 6.15 17.84-.09 11.81-1.69 23.43-4.98 34.76-.65 2.23-2.26 4.25-3.71 6.15-2.86 3.72-5.7 7.48-8.95 10.84-3.51 3.64-7.48 6.84-11.54 10.5-1.78-2.75-3.03-4.68-4.73-7.32-.73 3.18-1.26 5.72-1.9 8.22-1.03 4.05-6.84 6-9.48 3-11.9-13.55-26.61-23.42-41.82-32.78-13.52-8.32-20.03-21.22-21.77-36.73-.05-.42.06-.87.09-1.22 2.86-1.94 4.69-1.37 6.64 1.47 3.48 5.08 8.26 8.73 14.15 10.84 2.62.94 5.14 2.17 7.72 3.25 1.99.83 3.4 1.9 3.1 4.47-.09.81.81 2.02 1.59 2.6 10.81 7.96 21.66 15.88 32.58 23.69 1 .72 2.66.99 3.92.8 3.08-.47 6.15-1.21 9.14-2.11.98-.3 2.21-1.25 2.51-2.16 7.03-21.55 12.63-43.4 11.89-66.32-.35-10.9-3.63-21.1-9-30.6-.53-.94-1.35-1.79-2.21-2.47-9.4-7.41-18.59-15.1-28.31-22.06-11.7-8.38-22.62-17.5-32.19-28.66 1.25-.93 2.49-1.68 3.53-2.65 1.59-1.49 2.9-1.26 4.65-.08 17.16 11.58 34.37 23.07 51.57 34.57 6.88 4.6 13.7 9.31 20.71 13.71 2.57 1.61 3.85 3.38 3.41 6.43-.21 1.42-.04 2.89-.04 4.65 8.57 2.37 17 4.87 25.53 7 3.54.88 6.34 2.46 8.66 5.23 9.47 11.32 21.55 19.38 33.9 27.13 9.1 5.71 17.92 11.68 25.17 19.89 8.3 9.41 11.7 20.6 12.7 32.51.98 11.67 1.16 23.45.95 35.16-.28 15.66.14 31.1 6.57 45.75 1.75 3.98 3.94 7.36 7.94 9.53 9.46 5.14 17.2 12.34 24.11 20.53 3.03 3.59 6.57 6.76 9.5 10.42 7.53 9.43 16.44 16.93 27.86 21.26 1.25.47 2.61 1.54 3.23 2.7 7.2 13.6 19.4 21.03 33 26.5 11.12 4.48 17.97 12.51 21.66 23.61.13.39.18.8.43 2-9.52-3.79-19.71-3.39-27.89-9.89-7.82-6.22-17.42-9.07-26.75-12.13-7.05-2.32-13.35-5.73-18.96-10.45-23.92-20.1-45.57-42.46-63.91-67.73-10.39-14.32-16.06-31.1-19.83-48.39-.28-1.29-.22-2.67-.22-4.01-.01-15.11.05-30.23-.08-45.34-.02-1.87-.68-3.96-1.68-5.56-14.21-22.81-34.04-39.84-56.22-54.45-5.55-3.59-10.99-7.33-16.89-11.32zm6.54-6.23c-.23.13-.45.25-.68.38.4 1.46.8 2.93 1.23 4.52 1.57-.59 2.63-.98 4.17-1.56-1.9-1.34-3.31-2.34-4.72-3.34z" fill="#010102"/><g fill="#fcfbfa"><path d="m385.2 377.6.6-.7c.6.4 1.3.9 1.9 1.5l-.6.7c-.8-.5-1.4-1-1.9-1.5zm.3 7.1c.6-1.4 1.1-2.9 1.5-4.5.3.1.6.3.9.4-.5 1.4-1 2.9-1.5 4.4zm.2-10.1.6-.6c.7.5 1.3 1.1 1.9 1.6l-.7.7c-.6-.6-1.2-1.2-1.8-1.7zm8.4-.8h.8v.9h1.8v.7h-1.8v1.8h-.8v-.3h-1.2v.9h3.3v2.6h-.8v-.4h-2.5c0 .3 0 .6-.1.8h3.4v.7h-3.5c0 .3-.1.6-.1.8h4v.7h-3.5c.7.9 1.9 1.3 3.6 1.5-.2.2-.4.5-.6.9-1.9-.3-3.2-1.1-3.8-2.3-.5 1.1-1.8 2-3.9 2.4-.2-.3-.4-.5-.6-.8 1.9-.4 3.1-.9 3.6-1.7h-3.2v-.7h3.5c.1-.2.1-.5.2-.8h-3.3v-.7h3.4c0-.2 0-.5 0-.8h-2.4v.3h-.8v-2.6h3.3v-.9h-1.2v.3h-.8v-1.8h-1.8v-.7h1.8v-.9h.8v.9h3.2zm-4.4 5.5h2.4c0-.3 0-.6 0-.9h-2.4zm1.2-3.1h3.2v-.8h-3.2zm4.4 2.2h-2.4v.9h2.5v-.9z"/><path d="m389.2 385.8h.9v1.5h1.9v-1.5h.9v1.5h2.7v6h1.1v.9h-11.3v-.9h1.1v-6h2.7zm.2 8.7.5.8c-1.2.6-2.5 1.3-4 1.9-.2-.3-.3-.6-.6-.8 1.6-.6 3-1.3 4.1-1.9zm-2-4.3h1.9v-2.1h-1.9zm0 3.1h1.9v-2.2h-1.9zm2.7-3.1h1.9v-2.1h-1.9zm0 3.1h1.9v-2.2h-1.9zm2.4 1.3c1.4.6 2.7 1.2 4.1 1.8l-.5.9c-1.5-.7-2.8-1.4-4.1-1.9zm2.2-6.5h-1.9v2.1h1.9zm-1.9 5.2h1.9v-2.2h-1.9z"/></g></svg>