<svg viewBox="0 0 400 400" xmlns="http://www.w3.org/2000/svg"><rect width="400" height="400" fill="white" /><path d="m374.8 390.4.4-.4c.7.5 1.3 1 1.8 1.4l-.5.5c-.5-.6-1.1-1.1-1.7-1.5zm1 7.3-.6-.3c.5-1.4 1.1-2.8 1.5-4.3.2.1.4.2.6.3-.5 1.3-1 2.8-1.5 4.3zm-.4-10.3.4-.4c.4.3 1 .8 1.7 1.4l-.5.5c-.4-.5-1-1-1.6-1.5zm2.5.3h1.7v-1h.6v1h3.5v-1h.6v1h1.8v.5h-1.8v1.4h-2v1h3.2v2h-3.2v.9h3.3v.5h-3.4c0 .3-.1.6-.1.9h4v.5h-3.7c.7.9 1.9 1.5 3.8 1.7-.1.2-.2.4-.3.6-2.1-.4-3.5-1.1-4-2.1-.4 1-1.8 1.7-4 2.2-.1-.2-.2-.4-.3-.6 2.1-.4 3.4-1 3.8-1.8h-3.4v-.5h3.6c.1-.3.1-.6.2-.9h-3.3v-.5h3.4c0-.3 0-.6 0-.9h-3.2v-2h3.3v-1h-2.1v-1.4h-1.7v-.5zm1.1 3.5v1h2.7c0-.3 0-.4 0-.4 0-.1 0-.2 0-.2 0-.1 0-.2 0-.3h-2.7zm1.2-3v.9h3.5v-.9zm4.7 3h-2.6v.6.4h2.6z" fill="#fbfcfa"/><path d="m393.6 386.7h.6v1.5h2.7v6.1h1.1v.6h-11v-.6h1.1v-6.1h2.7v-1.5h.6v1.5h2.1v-1.5zm-2.7 8.8.4.6c-1.2.6-2.5 1.3-3.8 1.9-.1-.2-.2-.4-.3-.6 1.2-.6 2.5-1.2 3.7-1.9zm-2.2-6.7v2.4h2.1v-2.4zm0 3v2.5h2.1v-2.5zm2.8-3v2.4h2.1v-2.4zm0 3v2.5h2.1v-2.5zm6 6.1c-1.4-.7-2.7-1.3-3.9-1.8l.3-.6c1.5.6 2.7 1.2 3.9 1.7zm-1.2-9.1h-2.1v2.4h2.1zm-2.1 3v2.5h2.1v-2.5z" fill="#fbfcfa"/><path d="m114.73 375.18c.36-3.59-.16-7.26 1.16-10.07 6.68-14.31 5.96-29.52 6.86-44.7 1.37-23.22-2.35-46.26-1.41-69.42.86-21.12 1.32-42.28 2.87-63.35 1.19-16.19 5.3-31.95 10.12-47.46.39-1.24 1.22-2.38 2.01-3.44 7.96-10.68 15.48-21.72 24.08-31.85 6.18-7.28 13.43-13.8 20.87-19.84 26.2-21.26 54-40.18 84.03-55.69 1.49-.77 3.13-1.29 4.5-2.23 3.33-2.29 5.9-.75 8.3 1.47 2.51 2.34 2.4 5.14.92 7.98-2.13 4.06-4.29 8.1-6.52 12.1-.47.84-1.16 1.72-1.97 2.17-12.4 6.87-22.96 16.2-34 24.95-9.36 7.42-19.66 13.64-29.25 20.79-7.88 5.87-14.5 13.04-18.35 22.28-.77 1.85-1.07 4.55-.29 6.27 3.56 7.85 1.97 16.07 2.47 24.14.18 2.95.82 5.92 1.64 8.76 2.53 8.74 7.36 16.11 13.36 22.93 6.64 7.56 12.52 15.8 19.26 23.26 3.54 3.92 8.09 6.99 12.41 10.13 5.15 3.75 10.83 6.81 15.71 10.86 2.86 2.38 4.87 5.96 6.75 9.29 1.09 1.94.4 4.09-2.46 4.19-3.65.12-7.37.51-10.94-.02-10.1-1.49-17.86-7.78-25.97-13.34-12.57-8.62-22.09-20.09-31.26-32.04-9.35-12.17-14.15-26.56-20.63-40.14-1.34-2.8-2.58-5.64-3.92-8.58-2.7.71-5.21 1.24-7.61 2.08-.93.32-2.03 1.21-2.33 2.09-1.72 5.03-4.14 10.05-4.62 15.23-1.47 15.8-2.1 31.68-3.18 47.52-1.27 18.71.21 37.34 1.06 56.01.91 20.11 1.61 40.25 1.7 60.38.05 10.46-2.92 20.59-7.39 30.08-5.24 11.13-14.54 16.86-27.98 17.21z" fill="#010106"/></svg>