<svg enable-background="new 0 0 400 400" viewBox="0 0 400 400" xmlns="http://www.w3.org/2000/svg"><g fill="#fafafb"><path d="m12.4 4.8-6.1 9h6v1.2h-8v-.5l6.1-8.9h-5.7v-1.2h7.6v.4z"/><path d="m14 15v-10.6h3c1.6 0 2.9.5 4 1.4s1.6 2.2 1.6 3.8-.5 3-1.6 3.9-2.4 1.5-4 1.5zm1.4-9.4v8.2h1.6c1.3 0 2.4-.4 3.1-1.1s1.1-1.8 1.1-3.1-.4-2.3-1.2-3-1.8-1-3.1-1z"/><path d="m26.1 4.4v10.6h-1.4v-10.6z"/><path d="m36.1 14.6c-.8.4-1.8.6-2.9.6-1.5 0-2.7-.5-3.6-1.4s-1.4-2.2-1.4-3.8c0-1.7.5-3.1 1.5-4.1s2.3-1.6 3.9-1.6c1 0 1.8.1 2.5.4v1.4c-.8-.4-1.6-.6-2.5-.6-1.2 0-2.1.4-2.9 1.2s-1.1 1.8-1.1 3.2c0 1.3.3 2.3 1 3s1.6 1.1 2.7 1.1c1 0 2-.2 2.7-.7v1.3z"/><path d="m37.6 14.3c0-.2.1-.5.3-.6s.4-.3.6-.3c.3 0 .5.1.6.3s.3.4.3.6-.1.4-.3.6-.4.3-.6.3c-.3 0-.5-.1-.6-.3s-.3-.4-.3-.6z"/><path d="m50.2 15h-1.6l-5.3-8.2c-.2-.2-.3-.5-.4-.7 0 .2.1.7.1 1.5v7.4h-1.4v-10.6h1.7l5.2 8.1c.2.4.4.6.4.7 0-.3-.1-.8-.1-1.5v-7.3h1.4z"/><path d="m58.6 15h-5.7v-10.6h5.5v1.2h-4.1v3.4h3.8v1.2h-3.8v3.6h4.3z"/><path d="m67.1 5.6h-3.1v9.4h-1.4v-9.4h-3v-1.2h7.5z"/></g><path d="m23.48 36.05h11.21c11.31 0 22.66-.61 33.91.24 6.25.47 12.32.97 18.52.01 2.85-.44 5.78-.35 8.68-.38 3.15-.03 5.67.69 4.73 4.8-.04.18.4.47.95 1.07.98-1.28 2.05-2.37 2.73-3.66 1.26-2.39 2.76-3.06 5.6-2.5 3.66.72 7.51.49 11.27.68 3.52.18 7.04.48 10.56.54 1.39.02 2.78-.45 4.47-.75.91 1.32 1.95 2.84 3.49 5.08.68-6.5 5.01-4.79 8.5-4.78 37.39.09 74.78.25 112.16.31 35.71.06 71.43.01 107.14.01h4.4v328.33c-8.69-.37-17.24-.74-25.87-1.11 2.29-3.91 4.21-7.19 6.29-10.74-3.56-.52-3.88-2.4-2.52-4.76 1.35-2.34.7-3.77-1.44-5.21-2.3-1.55-4.35-3.48-6.65-5.36-1.2.98-2.3 1.87-3.58 2.91-1.91-2.41-4.19-1.99-5.93-.17-4.08 4.26-7.9 8.77-11.81 13.18-.21.24-.52.69-.43.87 2.63 5.49-3.51 6.51-5.14 9.82-.29.58-2.26.46-3.45.46-57.88-.02-115.76-.08-173.64-.09-37.06 0-74.11.07-111.17.1-1.34 0-2.67 0-4.52 0 0-54.87-.2-109.58.06-164.28.28-54.7.97-109.41 1.48-164.62zm223.23 270.9c.28-.08.57-.16.85-.23 1.98 1.83 3.96 3.65 6.63 6.11-.43-2.48-.68-3.93-.94-5.38 3.61 2.62 5.46.29 7.53-1.6 2.48-2.25 4.77-5.04 7.7-6.39 6.8-3.12 10.02-8.53 11.08-15.4.63-4.07 2.59-7.04 5.46-9.65 1.4-1.27 2.91-2.42 4.5-3.73-.97-1.02-1.81-1.9-2.72-2.85.45-.5.86-1.01 1.33-1.46 2.68-2.56 6.3-4.46 5.77-9.11-.44-3.89.8-7.31 3.64-9.99 3.04-2.88 1.58-6.78 1.04-9.5-.51-2.62-.34-4.16 1.22-5.72 2.4-2.41 2.53-4.69.33-7.23-.58-.67-.83-1.61-1.39-2.29-1.38-1.66-.96-3.03.1-4.76 1.48-2.42 4.39-4.47 2.77-8.05-.08-.18.92-1.11 1.52-1.26.89-.22 1.88-.06 3.17-.06-.44-3.86-.83-7.29-1.31-11.45.37-.42 1.37-1.57 2.38-2.73-.32-.03-.64-.06-.96-.09-.27-2.16-.59-4.32-.79-6.49-.67-7.24 1.93-14.96-3.15-21.56-.1-.12-.01-.39-.01-.74.97-.32 1.98-.65 3.29-1.08 0-7.76 0-15.44 0-23.33-1.18.86-2.08 1.52-2.97 2.18-.19-.2-.38-.4-.57-.6.75-1 1.5-2 2.4-3.18-1.14-1.42-2.31-2.89-3.46-4.33 2.98-4.22 2.98-4.22-1-7.38 1.11-1.18 2.18-2.34 3.77-4.04-3.14-3.74-6.31-7.51-9.53-11.35 2.36-2.72 2.35-3.49-.53-8.33 1.73-1.51 3.49-3.03 5.77-5.02-3.84-.15-6.56-4.92-10.35-.78-.19.21-.93.14-1.28-.05-3.27-1.82-5.41-.01-7.52 2.18-.96 1-2.08 1.83-3.79 3.32 0-2.48 0-4.06 0-4.72-2.83-.67-5.07-1.21-7.75-1.84-.52 1.02-1.29 2.51-2.13 4.13 1.29.22 2.08.35 2.55.43-.27 1.64-1.1 3.39-.55 4.29.6.98 2.48 1.16 3.8 1.69-1 2.71-2.54 3.38-5.12 1.87-.79-.46-2.33-.47-3.07.01-1.95 1.25-3.65 2.89-5.71 4.58-.39-.14-1.4-.51-2.48-.9-.5 1.67-.93 3.11-1.42 4.77-1.54-.63-2.75-1.13-4.06-1.66-.62.82-1.2 1.59-1.89 2.52-1.69-1.26-3.28-2.44-5.11-3.79-1.67 3.56-4.22 2.05-7.09.72 2.46 3.36 1.66 5.02-1.13 7.73-6.21 6.02-12.04 12.43-18.05 18.7 1.42 1.55 2.3 2.52 3.26 3.57-2.87 4.13-5.41-1.53-8.67.09-3.64 1.81-4.22-4.05-7.31-4.94-2.45 2.28-6.23 3.92-3.44 8.49.44.73-.12 2.68-.86 3.39-2.06 1.97-4.45 3.59-6.72 5.35-.2-.22-.4-.44-.59-.66.3-1.04.6-2.07.98-3.4-1.48 0-2.77 0-4.23 0-.11-1.72-.21-3.19-.31-4.8-4.55 0-8.84-.44-12.98.14-3.11.44-5.43.34-6.99-2.76-2.64 2.83-5.07 5.44-7.21 7.73-2.23-.55-4.1-1.35-5.99-1.41-5.54-.18-11.08-.06-16.66-.06-.25-1.87-.45-3.32-.8-5.89-2.45 4.17-4.64 2.89-7.56.22.26 2.76.42 4.44.63 6.63-2.82-1.29-5.14-1.98-7.19.85-1.61 2.23-4.25 3.75-5.74 6.04-1.85 2.85.39 7.57 4.94 11.51 2.89-3.53 5.18-.31 7.64 1.05 1.56-1.46 2.94-2.74 4.26-3.98-2.39-5.96-2.39-5.96 2.64-9.45 3.15 2.55 5.09 6.74 8.8 6.57l6.03 6.03c.22-.16.45-.33.67-.49-.15-1.03-.3-2.06-.48-3.25 1.66-.15 3.07-.28 4.55-.41 0-4.11 0-8.08 0-13.08 2.39 2.66 4.2 4.68 6.08 6.78.58-.77 1.24-1.64 1.9-2.5.28 0 .57-.01.85-.01.17 1.38.26 2.78.54 4.13.14.69.54 1.75 1 1.84.7.15 1.63-.25 2.31-.66.47-.28.68-.98 1.13-1.67.76 1.16 1.36 2.07 2.01 3.06 2.28-1.28 4.27-4 6.78-1.25-.73.5-1.39.96-1.99 1.38 10.42 7.05 13.07-1.57 16.81-7.4 5.18 2.9 6.49 2.58 10.2-1.73.59-.68 1.92-1.21 2.81-1.08 4.63.69 9.23 1.62 14.26 2.54-.03-.09.22.71.52 1.68 1-.56 1.73-.97 2.41-1.35 1.06.89 1.98 1.66 3.06 2.56 1.86-1.17 4.32-1.91 5.17-3.51.66-1.26-.67-3.57-1.21-5.82 1.05.54 1.7.88 2.45 1.26.86-1.52 1.64-2.92 2.28-4.05 2.75 1.52 5.01 3.28 7.57 4 1.74.49 3.82-.48 4.88 1.94.69 1.57 1.66 3.02 2.51 4.52-.23.17-.47.34-.7.51 1.37.4 2.74.79 4.1 1.19.27 2.28 1.11 4.08 2.01 5.86 1.55 3.06 4.38 6.1 4.39 9.16.01 4.13 1.97 6.75 4.11 9.44 2.37 2.99 2.89 6.18 3.11 9.88.75 12.43-2.06 24.93.79 37.3.04.19-.09.44-.21.63-1.62 2.69-.98 5.1.3 6.45-.38 3.14-.65 5.45-1.04 8.7-2.66 4.26-4.2 9.59-2.05 15.79.61 1.78-.2 4.07-.46 6.12-.08.6-.53 1.14-.74 1.73-.43 1.23-.45 2.85-1.28 3.65-5.24 5.04-10.65 9.89-16 14.81 1.21 1.63 1.7 2.15 1.84 2.76.26 1.11.8 2.95.36 3.26-.93.65-2.41.59-3.67.66-1.05.06-2.94-.35-3.02-.1-.42 1.32-.42 2.79-.49 4.21-.03.61.12 1.22.27 2.51-1.55-1.1-2.43-1.73-3.29-2.34-5.66 4.38-5.78 5.14-1.5 10.96 2.37-3.39 5.42-2.2 8.2-.74-.33-2.04-.56-3.66-.8-5.27zm-139.21-137.88c1.58-2.2 3.22-4.2 4.54-6.39 1.45-2.4 1.54-5.08-.51-7.14-1.74-1.74-3.97-3-5.88-4.4-4.81 3.94-7.05 10.49-13.44 9.67-1.38 3.08-2.52 5.63-3.9 8.73-3.43-3.28-6.12-1.65-8.38.45-3 2.78-5.67 5.92-8.62 9.06 1.23 1.04 2.37 1.92 3.41 2.91.76.74 1.94 1.61 1.96 2.45.08 3.26-.3 6.54-.37 9.81-.04 2.17.15 4.35.27 7.16-3.06 2.54-3.06 2.54.59 6.08-.7 1.75-1.37 3.45-2.13 5.37 2.24-.56 3.58-.9 5.21-1.3-.27 1.36-.41 2.07-.51 2.57 1.81-.12 3.47-.24 5.55-.38-3.1 6.47-3 6.47 2.35 10.97 1.09.92 2.29 3.46 1.81 4.22-2.35 3.69-.22 6.53 1.07 9.48-.81 2.6-5.29 4.56-1.09 7.82.04.03-.25.38-.23.56.11.93-.06 2.18.47 2.72 1.5 1.55 1.44 2.94.66 4.81-.41.96-.36 2.69.26 3.41 2.16 2.52 5.61 4.17 4.43 8.64 1.57-.32 2.48-.51 3.17-.65 1.47 3.28 2.52 6.52 4.29 9.3 1.81 2.83 4.04 5.31 2.62 9.37 5.07-.48 7.71 2.82 10.88 5.22 1.4 1.06 2.09 2.08 1.52 3.93-.22.74.48 1.76.77 2.65.34-.02.68-.03 1.02-.05-2.03 3.87 1.71 5.3 3.32 7.49.54.74 2.49.44 4.16.66.12.44.44 1.61.81 2.94 7.12-1.35 10.18 4.36 13.83 7.77 1.89-.26 3.29-.46 5.01-.7-1.15 1.6-1.88 2.6-2.6 3.61.2.28.4.55.6.83 2.28-3.27 4.83-1.97 7.37-.5.53-1.62.96-2.93 1.56-4.77 2.6 2.99 5 5.45 7.02 8.19 1.57 2.13 3.41 2.81 5.05.75 1.19-1.49 2.61-4.23 2-5.45-1.48-2.97-4.08-5.39-6.22-8.02-1.27.84-2.02 1.32-2.67 1.75.49 1.15.93 2.21 1.38 3.27-4.09-3.32-7.55-6.92-11.37-10.11-2.53-2.11-4.52-4.24-4.27-7.84-1.01-.17-1.84-.3-2.74-.45.25-1.03.47-1.91.7-2.88-1.59-.13-2.89-.24-4.19-.35.33-1.5.62-2.81 1.1-4.98-1.44 1-2.1 1.47-2.69 1.87-1.14-3.19-2.26-6.32-3.42-9.57-2.44 1.11-4.1 1.86-5.76 2.62-.21-.2-.42-.39-.63-.59 3.52-3.74 1.01-7.49.78-10.92-1.74.2-3.18.36-5.41.61 1.56-2.12 2.46-3.36 3.45-4.71-1.98-1.57-3.87-2.96-5.64-4.49-3.86-3.34-4.14-5.36-1.43-9.51 1.48-2.28 3.59-4.4 1.72-7.49-.16-.27.36-.95.61-1.53 1.13.7 2.1 1.3 3.22 1.99.03-3.67-1.3-5.67-3.49-4.83-4.22 1.62-5.76-1.24-7.82-3.56.84-1.14 1.55-2.09 2.3-3.11-1.19-1.29-2.23-2.43-2.86-3.11.24-2.17.43-3.87.64-5.76-1.3.26-1.97.39-2.45.49-.34-1.68-.4-3.17-.95-4.46-1.48-3.49-5.39-6.31-2.79-10.85-2.08-3.16 0-6.25.12-9.38.09-2.42.02-4.85.02-7.27.73-1.63 1.14-3.18-.21-5.33-.56-.9-.27-2.68.22-3.81 1.41-3.22 5.61-5.67 2.49-10.02-.05-.07-.03-.25.03-.32 2-2.33-.23-3.48-1.69-5.22zm121.14 72.28c-.18-.47-.37-.94-.55-1.41 1-1.79 1.79-3.75 3.05-5.33 1.53-1.91 3.69-3.4 1.68-6.25-.27-.39-.06-1.27.17-1.84 1.54-3.85-1.47-10.08-5.53-11.19-.65-.18-1.53.02-2.17.32-4.39 2.11-7.62 1.42-10.46-2.32-.26-.35-.51-.8-.88-.96-3.28-1.43-6.59-2.8-10.15-4.3-3.3 2.82-6.93 5.91-10.55 9-.25-.24-.49-.48-.74-.72.37-1.2.75-2.41 1.37-4.42-1.9 1.23-3 1.94-4.11 2.65-1.2.77-2.39 1.54-3.51 2.26-3.09-2.39-5.38-1.8-12.37 3.04-.78-.5-1.6-1.04-2.6-1.69-4.97 4.56-9.9 9.09-14.84 13.62-.41.38-.87.72-1.23 1.14-2.21 2.63-2.18 7.52.3 9.85 2.36 2.22 4.94 4.2 7.51 6.17.47.36 1.53.48 2.03.21 2.92-1.6 5.2-.64 7.09 1.66 1.21 1.47 2.43 1.65 4.33 1.41 4.39-.55 8.89-.99 13.28-.61 2.35.21 3.94.08 5.7-1.44.97-.83 2.56-1.5 3.78-1.37 2.94.3 5.72-2.12 8.75-.37.4.23 1.49-.82 2.3-1.2 2.35-1.11 4.71-2.18 7.55-3.49.06-.52.22-1.79.3-2.45 3.68.03 7.09.03 10.5.03zm-147.68-94.22c-5.03 2.95-5.14 3.33-3.71 8.47.21.77-.36 1.77-.6 2.65-.14.53-.32 1.04-.47 1.56.57.14 1.13.36 1.7.39.54.03 1.18-.37 1.63-.2 4.11 1.59 4.75.34 5.26-4.02.5-4.3-1.05-6.39-3.81-8.85zm256.42 28.7c1.35 1.32 2.56 2.56 3.85 3.71.33.3.91.33 1.37.48.13-.48.41-.98.36-1.44-.43-3.59-2.45-4.44-5.58-2.75zm-233.02-33.43c-1.11 2.58-1.94 4.52-2.77 6.45.29.12.58.23.87.35 1.36-1.26 2.72-2.53 4.21-3.91-.69-.87-1.23-1.54-2.31-2.89zm257.65-89.51c-3.07 0-5.33-.3-7.42.17-.69.15-.95 2.27-1.4 3.49.32.17.65.34.97.51.73-4.59 4.86-1.85 7.85-4.17z" fill="#010105"/><path d="m216.07 149.75c1.84.34 3.69.69 5.99 1.12.28 2.29-1.24 3.59-4.15 3.83-.65-1.76-1.29-3.46-1.84-4.95z" fill="#010105"/><path d="m188.82 159.63c1.08.73 1.76 1.19 2.74 1.85-1.71 1.32-3.14 2.42-4.56 3.52-.23-.18-.46-.35-.68-.53.75-1.47 1.52-2.94 2.5-4.84z" fill="#010105"/><path d="m95.31 166.25c1.73 2.3 3.45 4.6 5.18 6.91-5.06-.69-6.11-1.94-6.21-6.13.34-.26.68-.52 1.03-.78z" fill="#010105"/></svg>