<svg enable-background="new 0 0 400 400" viewBox="0 0 400 400" xmlns="http://www.w3.org/2000/svg"><path d="m378.6 9.2.8-1c.9.7 1.9 1.4 2.9 2.3l-.9 1.1c-1.1-.9-2-1.7-2.8-2.4zm.5 10.7c.9-2.1 1.6-4.3 2.3-6.7.4.2.8.4 1.3.6-.7 2.1-1.5 4.3-2.2 6.6zm.4-15.2.9-.9c1 .8 2 1.6 2.8 2.4l-1 1c-1-.9-1.9-1.8-2.7-2.5zm12.5-1.3h1.2v1.4h2.7v1.1h-2.7v2.7h-1.2v-.5h-1.8v1.3h4.9v3.8h-1.2v-.5h-3.7c0 .4-.1.9-.1 1.2h5.1v1h-5.2c0 .5-.1.9-.2 1.2h6v1h-5.2c1.1 1.3 2.9 2 5.5 2.2-.4.4-.7.8-.9 1.3-2.9-.5-4.8-1.6-5.7-3.5h-.1c-.8 1.7-2.7 2.9-5.9 3.6-.2-.4-.6-.8-.9-1.1 2.8-.6 4.6-1.4 5.4-2.5h-4.8v-1h5.3c.1-.3.2-.7.2-1.2h-4.9v-1h5c0-.4 0-.8.1-1.2h-3.6v.5h-1.2v-3.8h4.9v-1.3h-1.8v.5h-1.2v-2.7h-2.6v-1.1h2.6v-1.4h1.2v1.4h4.7v-1.4zm-6.7 8.4h3.6c0-.4 0-.9 0-1.4h-3.6zm1.9-4.7h4.7v-1.2h-4.7zm6.7 3.3h-3.7v1.4h3.7z" fill="#fcfafa"/><path d="m384.7 21.4h1.3v2.2h2.8v-2.2h1.3v2.2h4.1v9.1h1.7v1.3h-16.9v-1.3h1.7v-9.1h4.1v-2.2zm.3 13.2.7 1.2c-1.8.9-3.8 1.9-6 2.9-.2-.4-.5-.8-.8-1.3 2.4-1 4.4-2 6.1-2.8zm-3.1-6.5h2.8v-3.2h-2.8zm0 4.6h2.8v-3.3h-2.8zm4.1-4.6h2.8v-3.2h-2.8zm0 4.6h2.8v-3.3h-2.8zm3.6 1.9c2.1.9 4.1 1.8 6.1 2.7l-.7 1.3c-2.2-1.1-4.2-2-6.1-2.9zm3.3-9.7h-2.8v3.2h2.8zm-2.8 7.8h2.8v-3.3h-2.8z" fill="#fcfafa"/><g fill="#010000"><path d="m312.41 25.7c11.11 1.18 17.81 7.44 21.06 17.42 4.46 13.67 6.92 27.75 7.4 42.15.15 4.47.23 8.96.65 13.41.45 4.69.03 9.04-2.59 13.15-.82 1.28-.87 3.18-.94 4.8-.56 13.75-.77 27.52-1.62 41.24-.88 14.18-4.94 27.71-9.89 40.93-3.93 10.52-6.53 21.31-8.44 32.35-1.44 8.33-4.74 15.99-9.63 23-10.88 15.6-21.7 31.24-32.33 47.01-6.88 10.2-15.82 18.19-25.65 25.34-13.98 10.17-28.97 18.59-44.63 25.85-1.04.48-2.57-.17-3.88-.22-1.19-.05-2.82-.52-3.5.07-13.46 11.66-30.21 14.99-46.83 18.52-13.57 2.88-27.19 5.58-41.19 4.83-1.62-.09-3.32-.51-4.79-1.2-8.7-4.08-17.38-8.23-25.98-12.52-1.48-.74-2.89-2.1-3.76-3.53-10.58-17.48-16.44-36.62-19.54-56.69-2.77-17.93-5.15-35.95-4.67-54.1.21-7.81 2.65-15.57 4.03-23.36.21-1.18.58-2.58.18-3.6-6.18-15.45-4-31.51-3.55-47.42.8-28.08 1.75-56.15 2.66-84.23.06-1.89.22-3.77.35-5.94 7.28-.47 14.38-.94 22.03-1.44.55 5.42 1.44 10.71 1.55 16.02.28 12.75.13 25.51.29 38.26.07 5.96.98 11.78 3.78 17.2 2.67 5.17 6.81 8.46 12.22 10.31 3.11 1.07 5.69.81 8.65-1.3 10.5-7.49 22.69-11.47 34.8-15.41 13.99-4.56 28.16-8.38 41.72-14.47 8.19-3.68 17.73-4.37 26.67-6.4.11-.02.23-.01.33-.05 14.5-5.54 29.77-3.63 44.73-4.81 11.2-.88 21.04 3.6 31.18 6.77 2.5.78 4.05 4.5 6.12 6.79 2.55 2.82.98 5.39.04 8.32-2.25 7.01-7.2 11.67-12.79 15.86-.79.6-2.03.87-3.05.86-17-.25-34.03-1.21-51-.59-8.31.31-16.66 3.06-24.75 5.53-17.5 5.33-33.62 13.95-49.92 22.07-5.05 2.52-10.01 3.78-15.66 3.67-13.43-.27-26.87-.04-40.3-.14-2.17-.02-3.51.65-4.66 2.45-2.93 4.59-4.01 9.39-2.4 14.7 2.44 8.09 3.18 16.33 3.25 24.81.14 18 .47 36.04 1.72 53.99.74 10.53 3.35 20.94 5.26 31.38.21 1.15 1.21 2.33 2.14 3.16 8.8 7.84 19.63 10.39 30.93 11.28 9.36.73 18.78 1.24 27.84-2.33.73-.29 2.08-.34 2.5.11 2.27 2.41 4.46 1.03 6.7.13 14.73-5.94 29.51-11.81 42.44-21.3 18.9-13.87 36.32-29.43 52.76-46.15 9.33-9.49 14.96-21.05 20.18-32.96 13.42-30.61 21.12-62.86 27.36-95.52 2.54-13.28 5.89-26.57 4.63-40.2-.88-9.53-2.54-19.03-4.52-28.41-2.84-13.58-1.4-26.57 4.31-39.45z"/><path d="m119.11 208.28c8.11-.34 15.26-.48 22.38-1.02 2.44-.18 5.22-.77 7.15-2.14 20.11-14.21 43.56-21.04 65.95-30.21.51-.21 1.13-.53 1.61-.41 5.85 1.47 11.68 2.99 17.49 4.58.41.11.8.79.95 1.28 2.35 8.14 4.83 16.25 6.92 24.46 2.77 10.86.74 21.58-1.61 32.21-1.86 8.4-3.93 16.76-6.01 25.11-.31 1.24-.88 2.62-1.78 3.47-13.34 12.71-27.7 24.09-44.17 32.51-6.64 3.39-13.77 5.33-21.39 4.36-.87-.11-1.78-.24-2.58-.58-15.14-6.53-27.5-16.81-37.31-29.79-3.3-4.38-5.28-10.59-5.71-16.14-1.21-15.68-1.32-31.46-1.89-47.69zm36.82 23.48c-2.2 0-3.57.14-4.89-.03-2.61-.34-3.5.77-3.73 3.3-.47 4.95.56 9.4 3.93 13.07 4.01 4.37 8.17 8.59 12.35 12.79.62.62 1.77 1.18 2.57 1.06 5.51-.8 11.19-1.16 16.45-2.84 14.45-4.61 24.99-14.92 35.15-25.56 2.58-2.71 1.83-9.92-.89-12.04-3.24-2.52-11.27-2.7-14.47-.07-7.66 6.31-15.85 11.56-25.5 14.36-4.25 1.23-8.4 1.28-11.84-1.43-3.12-2.45-6.35-2.97-9.13-2.61z"/></g></svg>