<svg enable-background="new 0 0 400 400" viewBox="0 0 400 400" xmlns="http://www.w3.org/2000/svg"><path d="m358.7 162c1 .9 2.2 1.5 2.4 2.4.8 2.7 1.7 5.6 1.6 8.4 0 .9-2.8 2-4.4 2.6-5.9 2.2-11.8 2.8-17.9.3-6.5-2.7-13.3-2.5-20.2-2.2-10 .4-20.1-.1-30.1-.4-5.4-.2-7.8 1.3-8.5 6.8-.4 3.1 0 6.3.4 9.4.8 5.4.4 10.6-1.2 15.9-1.4 4.7-2 9.7-2.4 14.6-.5 6-.3 12.1-.4 18.1 0 3.8-.8 7.3-3.3 10.3-.7.8-1.4 2.6-1 3.3 4.1 7.8 1.8 15.7.8 23.6-.9 6.4-1.4 12.7.4 19.1.6 2-1.1 4.7-1.8 7.1-.8 3-1.7 6-2.5 9 1.6.7 2.5 1.1 3.6 1.6-.3.8-.5 1.5-.9 2.1-3.3 4.4-6 9-6.9 14.7-.5 3.3-6.1 4.2-7.9 1.2-3.2-5.3-7.1-5.3-11.8-2.7-4.1 2.2-7.9 1.5-11.5-1-2-1.3-3.4-1.3-5 .8-1.6 2.2-4.1 3.6-7 2.7-8.4-2.5-16.8-1.7-25 .6-13.4 3.7-26.8 2.4-40.3 1-4-.4-8-.6-12-1.1-1.4-.2-2.8-.9-4.2-1-2.3 0-4.8.1-7 .6-5.6 1.3-11.1 3.3-16.8 4.2-11.8 2-19.4-6-22.2-15-4.4-13.8-5.3-28.2-6.4-42.6-1.5-20.1-3.2-40.3-4.9-60.4-.9-11.1-1.9-22.1-2.8-33.2-.4-5.4-1.2-7-6.5-8.2-6-1.3-12.1-1.7-18.2-2.5-.6-.1-1.3 0-1.9-.1-3.1-.7-5.3-.3-7.5 2.6-2.4 3.3-6.6 4-10.4 3.3-2-.4-3.6-2.9-5.7-4.8 4.7-4 8.6-7.7 15-8.1 5-.3 9.9-2.7 14.8-4 1.7-.5 3.7-.9 5.3-.5 4.5 1.1 8.7 2.4 12.5-1.9s5.2-9 3.5-14.3c-2-6-3-11.9-.6-18 .2-.5.1-1.2-.1-1.8-1.1-4.8-2.8-9.6-3.2-14.4-.9-10.9-.9-21.8 1.4-32.5.5-2.2 1.4-3.2 3.6-3.7 3.4-.7 6.8-1.6 10.3-2.5 2.7 4.6 4.2 9.7 3 14.6-2.9 12.8-1.2 25.2 1.9 37.6.8 3.4 1.4 6.8 2.1 10.2.7 3 0 5.6-2 8-2.4 2.8-2.5 4.7-.2 7.6 6.1 7.5 14 11.1 23.5 9.6 10.3-1.6 20.5-4.3 30.8-6 7.6-1.2 15.3-1.8 22.9.8 1.7.6 3.4 1.2 5.1 1.8 4.7 1.7 8.9 2.8 14.4 1 5.6-1.8 12.1-1 18.2-.8 5.9.2 11.8 1 17.7 1.6 4.4.4 8.5-.2 12.6-1.9s8.6-2.9 13-3.8c5.5-1.2 8-3.5 8.6-9.2 1.1-12.2 2.3-24.4 3.1-36.7.9-13.3 2.6-26.3 8.6-38.4.9-1.9 1.9-2.3 3.8-2 7.7 1.2 11.5 5.3 11 13.2-.3 5.3-1.3 10.5-1.9 15.7-.5 4.7-.8 9.4-1.2 14.1-.3 3.2-.4 6.3-.7 9.5-.1.8-.2 1.9-.8 2.4-6 5.8-3.7 12.2-1.2 18.5 2.7 6.8 8.5 10.3 14.9 12.9 1.6.7 3.8.2 5.6-.1 5.7-1.1 11.4-1.9 17.3-.9 8.4 1.5 16.6.4 24.9-.9 1.9-.3 3.8-.5 5.7-.4 5.5.5 8 5.9 5 10.3.2.7-.3 1.5-.9 2.3zm-253.6 7.7c-.4 2.1-.8 3.7-1.1 5.4-1.5 9.7.1 19.2 1.5 28.7 1.2 8.2 3.3 16.5 0 24.7-.2.5.2 1.4.5 2 3.1 6.5 8.2 10.3 15.2 11.8 6.7 1.4 13.3 0 19.8-.9 10.5-1.5 20.9-1.8 30.7 3.1.8.4 2.2 0 3.2-.4 4.9-2.5 10-4.3 15.5-3.7 7.9.9 15.8 1.8 23.5 3.6 15.8 3.7 29.9-.1 43.2-8.3 1.1-.7 2.2-2.4 2.3-3.7.7-6.9 1-13.9 1.5-20.9.7-8.7 1.6-17.5 2.5-26.2 0-.4.1-.8.1-1.3 1-7.9-1.4-11-9.2-12.6-7.1-1.4-14.1-.4-21.1.9-5.7 1.1-11.4 2.4-17.1 2.7-4.6.2-9.2-.9-13.9-1.4-8.2-.8-16.4-2.3-24.6-2.2-14 .2-28.1 1.7-42.1 2.3-10.1.5-20.1-.9-30.4-3.6zm43.1 88.4c-8.6-3.9-17.4-3.8-26.3-2.5-5.2.8-10 2.9-13.9 6.4-.9.8-1.7 2.4-1.6 3.6 1.2 16.1 2.6 32.3 3.8 48.4.1 1.9.9 3.1 2.6 3.4 1.9.3 4 .3 5.9 0s3.6-1.5 5.4-1.6c11.4-.4 22.8-.9 34.2-.7 4 .1 7.9 2.1 11.8 3.2 1.5.4 3 1.2 4.4 1.2 13.1-.3 26.2-.5 39.3-1.3 11.1-.7 22.1-1.9 32.8-5.4 3.2-1.1 4.4-2.8 4.8-6 1.3-10.3 2.8-20.5 4.2-30.8.5-3.5 1.8-7.3 1-10.6-2-8.8-5.7-11-14.7-10.4-.8.1-1.7.2-2.5.3-6.5.5-13.1 1.7-19.6 1.3-8.6-.5-17.2-2.3-25.8-3.3-6.1-.7-12.2-1.4-18.3-1.2-6.9.2-13.7 1.5-20.5 2.1-2.9.3-5.7.4-7 3.9z"/></svg>