<svg enable-background="new 0 0 400 400" viewBox="0 0 400 400" xmlns="http://www.w3.org/2000/svg"><g fill="#fcfafa"><path d="m342.2 3.2-6.3 9.2h6.1v1.2h-8.2v-.5l6.2-9.1h-5.7v-1.2h7.8v.4z"/><path d="m344 13.7v-10.9h3.1c1.6 0 3 .5 4.1 1.4 1.1 1 1.6 2.2 1.6 3.9s-.5 3-1.6 4-2.5 1.5-4.2 1.5h-3zm1.4-9.6v8.4h1.6c1.4 0 2.5-.4 3.2-1.1.8-.8 1.2-1.8 1.2-3.2s-.4-2.4-1.2-3.1-1.8-1-3.1-1z"/><path d="m356.3 2.8v10.9h-1.4v-10.9z"/><path d="m366.6 13.2c-.8.4-1.8.6-3 .6-1.6 0-2.8-.5-3.7-1.5s-1.4-2.3-1.4-3.9c0-1.7.5-3.2 1.6-4.2s2.4-1.6 4-1.6c1 0 1.9.1 2.6.4v1.5c-.8-.4-1.6-.6-2.6-.6-1.2 0-2.2.4-3 1.2s-1.1 1.9-1.1 3.3c0 1.3.4 2.3 1.1 3.1s1.6 1.1 2.8 1.1c1.1 0 2-.2 2.8-.7v1.3z"/><path d="m368.2 13c0-.3.1-.5.3-.6.2-.2.4-.3.6-.3.3 0 .5.1.7.3s.3.4.3.6-.1.5-.3.6c-.2.2-.4.3-.7.3s-.5-.1-.6-.3c-.2-.2-.3-.4-.3-.6z"/><path d="m381.1 13.7h-1.7l-5.5-8.4c-.2-.2-.3-.5-.4-.7 0 .2.1.8.1 1.5v7.6h-1.4v-10.9h1.8l5.3 8.3c.3.4.4.6.4.8 0-.3-.1-.8-.1-1.6v-7.5h1.4v10.9z"/><path d="m389.7 13.7h-5.8v-10.9h5.6v1.2h-4.2v3.5h3.9v1.2h-3.9v3.7h4.4z"/><path d="m398.4 4.1h-3.1v9.6h-1.4v-9.6h-3.1v-1.3h7.7v1.3z"/></g><path d="m39.25 115.22c9.37-4.29 18.82-4.51 28.13-1.76 11.02 3.25 21.82 7.23 32.66 11.05 1.33.47 2.6 1.72 3.43 2.93 4.24 6.18 8.61 12.3 12.36 18.76 3.19 5.48 7.96 7.24 13.54 6.46 4.9-.68 9.9-2 14.4-4.05 33.42-15.18 68.52-25.9 102.73-38.95 15.03-5.74 30.2-11.09 45.3-16.62 6.53-2.39 11.87-12.11 9.75-18.63-2.51-7.75-5.53-15.34-8.45-22.95-.37-.96-1.33-1.77-2.17-2.45-2.95-2.4-5.85-4.89-9-7.01-5.68-3.83-8.06-9.04-7.25-16.37 2.91.24 5.86.34 8.78.74 24.88 3.35 44.41 14.95 57.11 37.08 3.79 6.61 5.67 13.65 6.34 21.29 1.58 17.93 3.86 35.79 5.56 53.71 2.29 24.1 1.99 48.24.97 72.42-1.26 29.63-9.49 57.92-15.3 86.7-3.3 16.37-11.17 30.51-18.21 45.16-.49 1.03-1.56 1.87-2.53 2.57-9.84 7-19.55 14.22-29.65 20.83-7.76 5.08-16.8 7.09-25.85 8.79-14.65 2.74-28.86-.25-43.2-2.82-13.85-2.48-27.88-3.92-41.8-6-3.01-.45-6.08-1.3-8.84-2.57-16.32-7.57-27.79-20.86-39.09-34.15-12.2-14.35-22.15-30.29-31.84-46.43-4.77-7.95-6.44-16.53-7.97-25.33-1.6-9.25-3.23-18.5-4.91-27.73-.26-1.41-.7-2.86-1.4-4.1-5.12-9.07-6.7-19.04-7.95-29.19-1.36-11.07-2.07-22.38-6.68-32.74-3.21-7.22-6.84-14.31-10.93-21.07-5.6-9.28-11.83-18.17-18.04-27.57zm268.08 47.12c0-2.14.16-5.28-.04-8.4-.33-5.31-1.39-10.41-4.98-14.65-3.53-4.17-9.75-6.59-13.26-4.92-40.68 19.31-81.34 38.69-122.05 57.94-5.96 2.82-11.41 6.19-15.51 11.37-5.64 7.12-12.47 11.57-21.94 10.88-1.79-.13-2.66.74-3.02 2.71-2.13 11.44.71 21.67 6.92 31.25 1.41 2.17 2.58 2.61 5.1 1.72 19.08-6.71 38.21-13.24 57.35-19.78 1.78-.61 3.67-1.01 5.54-1.22 7.22-.81 14.45-1.6 21.7-2.22 3.45-.3 6.38-1.39 9.07-3.64 5.68-4.76 12.15-7.89 19.6-8.84 6.76-.86 13.51-1.88 20.26-2.83 10.97-1.55 21.61-4.04 30.04-11.89 1.3-1.21 2.31-3.27 2.49-5.04 1.04-10.47 1.79-20.96 2.73-32.44zm-157.06 138.53c6.38 8.94 12.34 13.47 23 19.29 6.93 3.78 13.36 8.46 20.02 12.74.84.54 1.63 1.22 2.54 1.6 11.96 4.96 24.34 6.77 37.07 4.09 19.26-4.06 35.26-13.15 45.47-30.72 3.2-5.51 6.93-10.77 9.6-16.52 4.8-10.31 9.3-20.79 13.29-31.44 2.22-5.93 1.52-11.94-3.68-16.63-1.82-1.65-3.43-2.1-5.95-1.05-37.73 15.74-75.53 31.34-113.3 46.98-9.26 3.83-18.52 7.69-28.06 11.66z" fill="#010103"/></svg>