<svg enable-background="new 0 0 400 400" viewBox="0 0 400 400" xmlns="http://www.w3.org/2000/svg"><g fill="#fcfafa"><path d="m342.2 3.2-6.3 9.2h6.1v1.2h-8.2v-.5l6.2-9.1h-5.7v-1.2h7.8v.4z"/><path d="m344 13.7v-10.9h3.1c1.6 0 3 .5 4.1 1.4 1.1 1 1.6 2.2 1.6 3.9s-.5 3-1.6 4-2.5 1.5-4.2 1.5h-3zm1.4-9.6v8.4h1.6c1.4 0 2.5-.4 3.2-1.1.8-.8 1.2-1.8 1.2-3.2s-.4-2.4-1.2-3.1-1.8-1-3.1-1z"/><path d="m356.3 2.8v10.9h-1.4v-10.9z"/><path d="m366.6 13.2c-.8.4-1.8.6-3 .6-1.6 0-2.8-.5-3.7-1.5s-1.4-2.3-1.4-3.9c0-1.7.5-3.2 1.6-4.2s2.4-1.6 4-1.6c1 0 1.9.1 2.6.4v1.5c-.8-.4-1.6-.6-2.6-.6-1.2 0-2.2.4-3 1.2s-1.1 1.9-1.1 3.3c0 1.3.4 2.3 1.1 3.1s1.6 1.1 2.8 1.1c1.1 0 2-.2 2.8-.7v1.3z"/><path d="m368.2 13c0-.3.1-.5.3-.6.2-.2.4-.3.6-.3.3 0 .5.1.7.3s.3.4.3.6-.1.5-.3.6c-.2.2-.4.3-.7.3s-.5-.1-.6-.3c-.2-.2-.3-.4-.3-.6z"/><path d="m381.1 13.7h-1.7l-5.5-8.4c-.2-.2-.3-.5-.4-.7 0 .2.1.8.1 1.5v7.6h-1.4v-10.9h1.8l5.3 8.3c.3.4.4.6.4.8 0-.3-.1-.8-.1-1.6v-7.5h1.4v10.9z"/><path d="m389.7 13.7h-5.8v-10.9h5.6v1.2h-4.2v3.5h3.9v1.2h-3.9v3.7h4.4z"/><path d="m398.4 4.1h-3.1v9.6h-1.4v-9.6h-3.1v-1.3h7.7v1.3z"/></g><path d="m235.79 129.39c16.24-2.04 30.9 1.65 45.36 6.78 2.4.85 4.95 1.67 7.46 1.75 9.01.29 15.68 5.36 22.32 10.5 15.69 12.15 25.33 28.39 31.4 46.98 4.23 12.97 6.77 26.3 6.34 39.91-.22 6.84-2.31 13.62-3.68 20.41-2.13 10.52-4.34 21.02-6.58 31.52-.27 1.27-.76 2.59-1.48 3.66-7.03 10.38-14.1 20.73-21.24 31.02-.79 1.14-1.97 2.14-3.19 2.81-17.01 9.45-33.9 19.14-51.19 28.06-6.47 3.34-13.88 4.89-20.88 7.18-7.12 2.32-14.34 4.36-21.39 6.86-6.52 2.31-13.23 2.89-20.04 3.49-13.03 1.14-26 2.89-39 4.24-27.55 2.85-53.67-2.16-78.41-14.53-.99-.49-1.87-1.23-2.74-1.93-6.11-4.91-11.99-10.14-18.36-14.67-6.15-4.37-9.46-10.43-11.49-17.22-4.38-14.62-5.55-29.62-1.45-44.38 2.53-9.08 6.19-18.04 10.65-26.35 6.76-12.59 15.16-24.15 24.11-35.43 20.42-25.74 44.42-47.9 68.05-70.46 4.52-4.31 9.7-7.92 14.43-12.03 4.93-4.28 8.46-9.55 9.8-16.03.35-1.69.25-3.51.09-5.25-.14-1.66-.84-3.28-.92-4.94-.4-8.82-5.27-15.08-11.46-20.71-5.05-4.6-8-4.89-13.43-.93-17.28 12.57-34.57 25.14-51.87 37.7-.9.65-1.87 1.22-2.85 1.73-6.74 3.48-13.43 7.08-20.28 10.32-2.56 1.21-5.47 2.02-8.28 2.25-3.83.31-6.07-2.74-4.69-6.39.91-2.41 2.34-4.91 4.22-6.64 23.5-21.58 47.26-42.89 70.64-64.6 6.52-6.06 12.15-13.12 17.82-20.02 1.16-1.41.85-4.21.8-6.37-.05-2.1-.85-4.18-.94-6.29-.18-4.33 2.93-6.68 6.78-4.87 6.46 3.04 12.97 6.09 18.99 9.89 3.26 2.06 5.94 5.41 8.13 8.68 2.63 3.92 3.63 8.48 1.04 12.99-1.88 3.27-1.06 5.85 1.46 8.33 3.5 3.46 6.62 7.35 10.37 10.5 10.26 8.65 15.03 19.6 15.33 32.89.13 5.68 1.24 11.34 1.79 17.01.2 2.02 1.15 2.61 3.06 2.58 5.36-.06 10.73 0 15.4 0zm-152.46 186.34c5.24 12.22 13 21.77 24.81 27.21 7.87 3.62 16.12 6.82 25.13 6.31 1.86-.1 4.2-.02 5.45-1.07 5.81-4.89 11.91-9.64 16.82-15.37 13.17-15.37 26.3-30.93 35.67-48.99 4.8-9.25 8.22-19.26 11.64-29.15 1.58-4.57.35-9.38-2.7-14.13-10.71 8.94-21.29 17.39-31.44 26.32-15.38 13.54-31.85 25.24-50.87 33.23-11.42 4.8-22.59 10.21-34.51 15.64zm1.5-24.33c1.95-.75 3.68-1.25 5.26-2.04 2.69-1.36 5.48-2.63 7.89-4.4 21.88-16.08 42.07-34.09 60.57-53.94 11.43-12.26 22.93-24.51 30.33-39.89 2.19-4.56 3.4-9.2 3.1-14.22-.4-6.62-6.31-10.08-12.08-7.17-11.45 5.77-21.18 13.74-29.73 23.18-14.4 15.91-27.99 32.6-45.14 45.82-.94.73-1.56 1.87-2.34 2.82-5.58 6.77-7.98 15.14-11.56 22.93-2.28 4.97-4.83 9.82-6.86 14.88-1.52 3.8-1.66 7.82.56 12.03zm135.35-72.02c1.03 4.64 3.55 7.75 7.68 9.74 4.63 2.23 9.29 4.44 13.68 7.08 19.26 11.59 38.42 23.34 57.62 35.03 3.97 2.42 10.17.43 11.62-4.07 2.8-8.71 5.54-17.46 7.8-26.32 1.44-5.65 1.71-11.51-.52-17.18-.74-1.88-1.84-2.72-4.01-2.63-6.93.27-13.82.23-20.56-2.03-4.55-1.52-9.25-2.59-13.92-3.73-3.14-.76-6.32-1.77-9.5-1.83-12.87-.21-25.75-.12-38.62-.04-1.37.01-2.9.4-4.08 1.09-2.4 1.41-4.63 3.13-7.19 4.89zm16.56 41.3c-.66 5.38-1.09 10.48-1.93 15.51-3.13 18.81-11.43 34.63-26.81 46.47-5.03 3.87-9.52 8.44-14.31 12.62-1.81 1.58-2.49 3.31-1.51 5.61.62-.09 1.18-.12 1.72-.26 4.44-1.13 8.91-2.17 13.31-3.44 24.86-7.18 49.22-15.54 71.55-29.05 4.89-2.96 7.28-7 8.75-12.02 1.21-4.12-.12-7.11-3.87-9.23-14.61-8.24-29.22-16.48-43.84-24.71-.93-.52-1.92-.94-3.06-1.5zm-22.53-98.89c5.08 9.83 10 19.47 15.12 29 .43.81 2.21 1.25 3.36 1.25 12.98.09 25.96.35 38.93-.05 8.89-.27 17.21 1.04 25.4 4.6 3.22 1.4 7.12 1.35 10.74 1.68 2.46.23 3.01-1.12 2.77-3.6-1.94-20.17-24.34-40.7-44.36-41.94-9.07-.56-18.28.7-27.39 1.48-8.53.74-16.72 2.88-24.57 7.58z" fill="#010103"/></svg>