<svg enable-background="new 0 0 400 400" viewBox="0 0 400 400" xmlns="http://www.w3.org/2000/svg"><path d="m250.67 72.49c-6.77 4.74-14.05 5.18-21.55 3.03-6.65-1.91-13.17-4.25-19.75-6.38-.53-.17-1.08-.29-1.63-.37-7.27-1.11-8.7.19-7.87 7.27.38 3.22.73 6.45 1.33 9.64.63 3.38-.93 5.65-3.47 7.36-3.6 2.44-4.14 6.02-1.09 9.34 6.67 7.25 13.4 14.44 20.1 21.66 1.83 1.97 3.78 3.84 5.46 5.93 2.96 3.68 6.2 6.63 11.34 6.7.9.01 2.12 1.21 2.62 2.16 7.06 13.31 16.12 25.23 25.29 37.09 6.85 8.86 9.65 19.55 12.98 29.96 4.4 13.74 5.68 27.98 6.78 42.27.45 5.86 1.89 11.69 3.31 17.43 2.56 10.39.95 20.64-.13 31.01-1.37 13.23-8.22 23.9-15.37 34.4-6.54 9.61-13.58 18.89-20.42 28.29-6.96 9.58-16.21 15.16-28.51 16.08-1.03-2.48-2.27-4.97-3.03-7.6-.21-.75.79-2.13 1.58-2.84 7.06-6.38 14.32-12.53 21.26-19.03 5.7-5.33 8.98-12.14 10.77-19.97-.87-.45-1.71-.94-2.59-1.33-16.15-7.13-32.31-14.25-48.47-21.36-4.5-1.98-10.33-1.09-13.67 2.62-6.13 6.8-13.67 11.44-21.86 15.22-6.72 3.1-11.56 7.92-13.73 15.17-.63 2.11-.37 3.67 1.54 5.22 4.08 3.31 7.98 6.86 11.82 10.45 4.04 3.78 5.07 9.94 2.54 14.82-.37.7-1.46 1.4-2.25 1.45-5.69.38-11.39.7-17.08.75-1.15.01-2.74-.93-3.41-1.91-9.19-13.5-18.51-26.92-27.16-40.76-2.16-3.45-2.25-8.29-2.94-12.55-1.86-11.48-3.56-22.98-5.25-34.49-.24-1.64-.44-3.43-.02-4.98 2.41-8.86 1.94-17.72.18-26.57-.6-3.02-.24-5.67 1.09-8.41 1.75-3.59 3.75-7.11 3.22-11.41-2.29-18.57 5.01-34.61 12.54-50.93 9.49-20.58 24.52-36.99 38.17-54.49 3.78-4.85 7.71-9.59 11.51-14.44.8-1.03 1.79-2.25 1.88-3.44.9-11.58 2.3-23.18 2.15-34.76-.09-7.13-2.79-14.2-4.02-21.35-.7-4.05-.93-8.19-1.08-12.3-.06-1.61.51-3.32 1.13-4.85 2.17-5.32 4.92-6.59 10.2-4.44 2.23.91 4.53 2.18 6.16 3.89 9.69 10.16 21.56 16.95 34.2 22.58 9.33 4.16 17.6 9.72 24.1 17.7.32.41.63.85 1.1 1.47zm-61.31 204.03c11.61 3.8 23.06 7.24 31.82 16.12.77.78 1.66 1.54 2.63 2.04 7.17 3.64 14.26 7.47 21.62 10.69 3.29 1.44 7.1 2.07 10.71 2.27 4.79.26 6.36-1.02 6.8-5.75 1.13-12.12 2.35-24.26 2.51-36.41.07-5.39-2.18-10.84-3.65-16.19-.68-2.47-2.65-3.85-5.2-4.73-8.03-2.74-15.96-5.78-23.97-8.62-12.2-4.33-24.53-8.24-34.68-16.96-2.61-2.24-6.65-2.96-10.17-3.89-1.25-.33-3.28.38-4.29 1.32-9.54 8.89-20.11 16.31-31.19 23.16-8.25 5.1-16.05 10.95-23.9 16.67-1.05.77-1.82 2.79-1.7 4.14.62 7.46 1.51 14.91 2.41 22.34.45 3.7.77 7.32-.89 10.84-2 4.23-1.93 8.24.9 12.23 1.4 1.98 2.42 4.31 3.22 6.61.81 2.35 2.2 2.58 4.35 2.3 11.35-1.5 21.31-6.47 30.96-12.22 9.34-5.57 17.11-12.58 20.47-23.42.22-.73.67-1.39 1.24-2.54zm-57.16-43.73c.72-.18 1.06-.21 1.36-.35 19.44-9.34 36.61-21.51 49.38-39.27.82-1.15 2.61-2.09 4.04-2.23 6.66-.65 12.67 1.39 17.71 5.7 5.1 4.36 9.9 9.06 14.9 13.54 1.04.94 2.25 1.88 3.55 2.31 4.67 1.54 9.35 3.16 14.14 4.15 3.19.65 6.6.45 9.9.28 1.92-.1 2.9-1.39 2.22-3.52-1.43-4.46-2.32-9.15-4.24-13.38-9.31-20.49-22.45-38.4-38.15-54.39-4.33-4.42-9.75-7.79-14.79-11.48-.72-.53-2.5-.6-3.16-.08-12.21 9.68-25.93 17.69-34.34 31.57-2.42 4-5.61 7.53-8.43 11.3-.6.8-1.25 1.63-1.56 2.55-3.99 11.97-8.08 23.92-11.79 35.98-1.69 5.53-2.61 11.32-.74 17.32z" fill="#010100"/><g fill="#fcfbfa"><path d="m377.9 391.2c-.2.3-.4.5-.6.8-.7-.6-1.4-1-2.2-1.5.2-.3.4-.5.5-.8.6.4 1.4.8 2.3 1.5zm-1.8 6.1c-.2-.2-.5-.4-.9-.6.4-.6.8-1.2 1.2-1.9s.7-1.3.9-1.9c.3.3.5.5.8.7-.7 1.3-1.4 2.6-2 3.7zm2.2-9c-.3.3-.5.5-.6.8-.6-.6-1.3-1.1-2-1.5.3-.3.5-.5.6-.7.6.5 1.3.9 2 1.4zm.3.2v-.9h2 4.5c-.3 1.3-.6 2.5-1 3.6s-.9 2.1-1.4 3c.4.5 1 1 1.6 1.4s1.2.8 1.9 1.1c-.3.2-.5.4-.8.8-.4-.3-1-.7-1.6-1.2s-1.2-1.1-1.6-1.6c-.5.6-1.1 1.1-1.7 1.6s-1.4.9-2.1 1.4c-.1-.3-.3-.5-.7-.8.6-.2 1.2-.5 1.9-1s1.4-1.1 2-1.8c-.5-.8-.9-1.6-1.2-2.5s-.6-2-.8-3.2c-.4.1-.7.1-1 .1zm2.5 2.7c.3 1 .7 1.7 1 2.2.3-.5.6-1.1 1-2s.6-1.9.9-3h-3.2-.4c.1.9.3 1.8.7 2.8z"/><path d="m396.5 388.5v1.5 3.6h1.5v.9c-.4 0-1 0-1.7 0h-7.9c-.5 0-.9 0-1.2 0v-.9h1.3v-3.5c0-.7 0-1.2 0-1.6h2.4c0-.8 0-1.4 0-1.7h1c0 .3-.1.8-.1 1.7h1.5c0-.8 0-1.4 0-1.7h1c0 .3-.1.9-.1 1.7zm-8.2 9.2c-.2-.3-.5-.5-.8-.8.8-.3 1.4-.6 1.9-.9s1-.7 1.4-1.1c.3.3.6.5.9.8-1.6 1-2.8 1.6-3.4 2zm2.6-6.8v-1.6h-1.5v1.6zm0 2.7v-1.9h-1.5v1.9zm2.4-2.7v-1.6h-1.5v1.6zm0 2.7v-1.9h-1.5v1.9zm.2 2 .7-.8c.4.2.9.5 1.6.8s1.3.7 1.8 1c-.3.3-.5.5-.8.8-.4-.3-1.5-1-3.3-1.8zm2-4.7v-1.6h-1.4v1.6zm0 2.7v-1.9h-1.4v1.9z"/></g></svg>