<svg enable-background="new 0 0 400 400" viewBox="0 0 400 400" xmlns="http://www.w3.org/2000/svg"><g fill="#fbfafa"><path d="m37.59 393.81c-.92.31-1.52.05-2-.78-.7-1.2-1.52-2.34-2.47-3.78v4.59c-.55.03-.95.05-1.41.07-.03-.37-.06-.64-.06-.91 0-1.91 0-3.81 0-5.7 1.13-.41 1.77-.03 2.29.91.62 1.11 1.38 2.14 2.31 3.19v-4.2h1.35v6.61z"/><path d="m12.94 393.88v-6.75c1.9.19 3.93-.54 5.37 1.29.8 1.01.78 2.88.03 3.97-1.37 1.97-3.4 1.51-5.4 1.49m1.45-1.22c2.04.12 2.92-.58 2.89-2.21-.03-1.51-.98-2.19-2.89-2z"/><path d="m11.81 393.87h-5.49c.68-2.18 2.47-3.48 3.51-5.45h-3.08v-1.21h5.29c-.71 2.13-2.44 3.48-3.47 5.51.86 0 1.63.04 2.39-.01.79-.05 1.14.21.85 1.16"/><path d="m39.33 393.86v-6.61h3.7v1.07h-2.22v1.52c.68.04 1.34.09 2.07.13v1.07c-.72.05-1.38.09-2.1.14v1.48h2.4v1.19h-3.85z"/><path d="m27.71 388.56c-1.15-.3-2.46-.61-3.1.64-.37.73-.41 1.93-.06 2.67.63 1.35 1.99.93 3.17.68.35.94-.01 1.32-.93 1.46-1.62.25-3.05-.27-3.76-1.48-.73-1.24-.6-3.03.31-4.17.88-1.11 2.71-1.7 4-1.16.32.13.44.74.65 1.12-.1.08-.19.16-.28.24"/><path d="m49.15 387.24v1.07c-.59.02-1.17.05-1.87.08v5.44h-1.48v-5.44h-1.85c-.05-.4-.08-.73-.13-1.15z"/><path d="m20.06 387.21h1.33v6.62h-1.33z"/><path d="m30.68 393.25c-.49.38-.8.79-1.05.76-.32-.05-.6-.45-.9-.7.26-.24.51-.64.8-.67.29-.04.62.3 1.15.61"/></g><path d="m227.62 262.96c5.36 9.33 8.65 18.4 11.3 27.77 3.18 11.27 6.35 22.56 10.05 33.66 2.67 8.01 6.2 15.73 9.35 23.58.93 2.32 2.33 4.05 5.48 4.15 1.96-6.56 3.93-13.16 5.9-19.77.22-.75.42-1.51.67-2.25 1.12-3.3 2.34-3.7 6.14-2.12-.46-.98-.97-1.94-1.36-2.95-.6-1.53-1.78-3.18-1.58-4.62 1.09-8.08 2.68-16.1 3.76-24.18.54-4.07.68-8.26.45-12.36-.57-10.48-.43-21.14-2.4-31.38-3.94-20.45-13.78-38.39-26.62-54.66-9-11.41-18.09-22.76-27.33-33.98-2.17-2.64-5.22-4.55-7.61-7.04-2.28-2.37-4.28-5.03-6.32-7.63-.68-.87-.91-2.14-1.67-2.89-9.66-9.56-13.49-22.49-19.53-34.11-2.55-4.9-4.44-10.34-5.52-15.76-1.1-5.51-.84-11.3-1.15-16.96-.18-3.34-.11-6.71-.55-10.02-.19-1.42-1.11-2.98-2.16-3.99-2.14-2.05-4.42-1.32-5.89 1.24-2.87 5.02-5.38 10.4-9.04 14.79-3.97 4.77-4.8 10.74-7.74 15.81-.9 1.54-1.44 3.33-2.49 4.74-10.42 13.9-15.38 30.05-20.1 46.47-2.19 7.61-6.22 14.79-10.04 21.82-3.43 6.31-6.24 12.56-5.74 19.92.07 1.06-.28 2.25-.75 3.23-3.48 7.29-4.52 15.19-5.7 23.02-.44 2.92.54 6.03.31 9-.5 6.35-1.58 12.65-2.03 19-.6 8.57-.85 17.16-1.21 25.75-.03.75.32 1.51.46 2.27 1.2 6.45 2.4 12.9 3.59 19.35.12.66.08 1.37.31 1.98 1.56 4.22 3.41 8.35 4.7 12.65 2.31 7.68 4.31 15.46 6.42 23.2.12.43.03.94.23 1.31 5.09 9.43 9.98 18.97 15.42 28.19 2.05 3.48 6.3 3.17 9.07.15 2.4-2.62 5.04-5 5.27-9.02.08-1.42 1.28-2.82 2.12-4.13 7.68-12 11.97-25.12 13.6-39.26.49-4.28 1.86-8.52 3.27-12.62.65-1.87 2.38-3.37 4.14-4.78.52 10.59 1.78 20.95-.98 31.15-1.63 6.04-3.56 12-5.13 18.06-3.02 11.65-9.69 21.25-16.83 30.62-.54.71-1.22 1.3-1.85 1.94-2.73 2.77-5.53 3.74-9.53 1.98-3.67-1.61-6.99-2.88-8.33-7.2-.63-2.05-2.1-4.02-3.66-5.56-9.24-9.16-14.55-20.55-18.7-32.58-6.43-18.65-10.99-37.81-13.98-57.25-1.28-8.31-.29-16.98-.26-25.48 0-.84.43-1.74.87-2.5 1.42-2.45 2.36-4.74-.2-7.15-.53-.49-.43-1.85-.33-2.78 1.74-16.43 6.09-32.17 11.83-47.66 3.05-8.22 4.38-17.06 6.7-25.56 1.43-5.25 3.33-10.38 4.87-15.6 1.29-4.35 2.32-8.79 3.56-13.15.66-2.31 1.2-4.75 2.37-6.81 5.07-8.95 10.39-17.76 15.51-26.68 1.09-1.9 2.33-2.94 4.61-3.2 4.57-.54 6.33-2.12 6.54-6.54.34-7.21 2.86-12.87 9.62-16.13 2.96-1.43 3.63-3.59 2.15-6.46-2.1-4.1-1.14-7.47 1.89-10.83 1.35-1.49 1.66-3.92 2.45-5.92.28-.71.47-1.51.95-2.07 5.94-6.98 11.93-13.93 18.11-21.11 2.76 3.12 3.63 6.76 3.77 10.49.4 10.39.56 20.8.85 31.2.04 1.32.07 2.75.58 3.92 2.55 5.86 3.45 11.97 3.46 18.31.01 7.31 1.83 14.08 5.97 20.27 4.79 7.15 9.51 14.38 13.8 21.84 4.52 7.88 10.35 14.45 17.13 20.42 3.74 3.3 7.04 7.25 9.88 11.35 1.3 1.88 1.03 4.85 1.5 7.46-1.38.65-2.67 1.26-4.2 1.99.37 1.29.73 2.52 1.26 4.34 2.13-1.87 3.84-3.6 5.79-4.97.77-.54 2.56-.84 3.09-.36 8.12 7.27 15.21 15.37 20.03 25.23-1.74 1.68-4.23 2.84-2.23 5.97.93-1.01 1.66-1.81 2.21-2.4 1.84 1.67 3.72 3.23 5.41 4.97 1.37 1.42 2.89 2.89 3.67 4.64 4.1 9.19 7.98 18.47 11.93 27.72-1.38 4.81 2.92 7.75 3.88 11.79 2.38 9.98 2.85 20.12 2.37 30.33-.18 3.91-.25 7.84-.13 11.75.11 3.64-.16 7.1-2.11 10.32-.49.8-.77 1.94-.66 2.86.74 6.36-1.21 12.12-3.66 17.82-.48 1.11-1.06 2.39-.93 3.51.81 6.95-1.81 13.1-5 18.8-4.85 8.66-10.22 17.06-15.79 25.27-3.36 4.95-5.63 5.6-11.33.19-2.43-2.31-4.31-5.2-6.79-7.43-10.64-9.57-15.78-22.02-18.84-35.53-2.91-12.86-5.84-25.73-8.23-38.69-.79-4.27-.02-8.86.26-13.28.17-2.77.64-5.55 1.22-8.27.29-1.2 1.18-2.23 2.11-3.93zm34.87 98.13c-.55 2.24.13 5.02-3.31 5.15 3.11.16 6.22.32 9.83.5-1.37-3.77-2.51-7.02-3.76-10.22-.19-.49-.85-1-1.38-1.13-1.8-.42-3.64-.68-5.67-1.03.41 1.34.82 2.68 1 3.26 1.91.27 3.52.06 4.41.76.79.62.79 2.25 1.33 4.09-1.32-.74-1.79-1-2.45-1.38zm-12.62-7.12c3.13-.45 4.97-2.01 3.63-5.13-1.41 0-2.64 0-3.91 0 .18 1.09.39 2.37.65 3.93-2.33-1.48-4.4-2.79-6.47-4.11-.26.24-.52.48-.79.72.52.91.9 1.95 1.58 2.71 1.09 1.23 2.39 2.28 3.6 3.4.63.59 1.27 1.18 1.9 1.78-.06-.91-.11-1.82-.19-3.3zm27.38-35.59c1.23 3.1 2.3 5.8 3.35 8.45 3.35-2.28 4.38-4.6 2.99-6.9-1.22-2.03-4.58-2.6-6.34-1.55zm-19.45-131.92c-1.22-1.52-2.28-2.84-3.18-3.96-.87 2.12-1.71 4.14-2.74 6.66.33 1.42.81 3.53 1.31 5.7 1.44-1.58 2.8-3.06 4.35-4.75-1.44-.3-2.66-.56-4.36-.91 1.92-1.14 3.41-2.03 4.62-2.74zm23.98 76.77c-.34.01-.68.02-1.03.04 1.3 3.31 4.56 3.91 10.32 1.16-1.63-.32-3.26-.65-4.81-.95-.72-1.29-1.64-2.92-2.96-5.27-.75 2.48-1.14 3.75-1.52 5.02zm-43.18-82.59c2.11 1.32 3.87 2.43 6.52 4.09-.24-3.02-.39-4.87-.58-7.24-2.2 1.17-3.82 2.03-5.94 3.15zm39.54 170.67c-5.39 3.8-5.44 3.87-5.46 7.4 4.78-2.81 6.6-5.18 5.46-7.4zm-81.17-245.13c-1.43-1.78-2.86-3.57-4.04-5.04-.76.48-1.88 1.17-2.82 1.76 1.7 3.59 4.16 3.97 6.86 3.28zm-8.24 7.5c2.34-.44 4.22-1.24 3.7-3.83-.13-.65-2.02-1.59-2.79-1.36-2.97.89-1.75 2.98-.91 5.19zm94.94 131.63c-1.14 1.66-2.43 3.53-3.9 5.68 2.58 2.9 4.19-1.29 6.48-1.5-1.05-1.69-1.94-3.14-2.58-4.18zm4.6 4.6c-1.46 2.09-2.51 3.58-3.72 5.3.58.89 1.33 2.05 2.09 3.21.41-2.93 3.71-5.4 1.63-8.51zm-149.28-135.39c.93-2.42 1.6-4.18 2.28-5.93-.31-.2-.61-.39-.92-.59-1.55.72-3.09 1.43-4.95 2.3 1.18 1.39 2.1 2.46 3.59 4.22zm69.69 18.21c-.34-.18-.69-.37-1.03-.55-.97 1.3-2 2.57-2.88 3.93-.29.46-.19 1.17-.27 1.77.68-.02 1.81.21 1.97-.09.87-1.62 1.5-3.37 2.21-5.06zm77.63 171.93c.44.18.88.36 1.33.53.67-1.41 1.45-2.78 1.94-4.25.09-.27-.95-.92-1.91-1.79-.58 2.34-.97 3.92-1.36 5.51zm-89.14-189.6c.39.03.79.05 1.18.08.3-1.4.61-2.79.91-4.19-.32-.13-.63-.25-.95-.38-.99.62-1.98 1.24-3.08 1.93.78 1.01 1.36 1.79 1.94 2.56z" fill="#010000"/></svg>