<svg enable-background="new 0 0 400 400" viewBox="0 0 400 400" xmlns="http://www.w3.org/2000/svg"><path d="m209.58 305.18c-11.07 10.37-24.28 19.84-32.97 33.83-1.12 1.8-3.32 3.29-5.35 4.09-8.09 3.22-16.32 6.13-24.49 9.14-3.86 1.43-5.43 4.07-4.1 8.01.76 2.26 2.23 4.34 3.65 6.31 1.7 2.36 1.36 4.31-1.01 5.61-2.13 1.17-4.48 2.08-6.85 2.58-.9.19-2.36-.85-3.15-1.72-14.2-15.64-23.8-33.78-28.6-54.31-5.15-22.05-6.46-44.48-5.06-67.05.44-7.14 1.27-14.26 2.25-21.35.45-3.27 1.39-6.55 2.64-9.61 11.82-28.87 24.44-57.37 39.56-84.69 4.78-8.64 11.7-15.54 18.87-22.12 8.86-8.13 17.4-16.46 23.02-27.62-.62-.49-1.26-1.07-1.97-1.53-9.96-6.43-19.91-12.88-29.95-19.18-1.25-.79-3.12-1.1-4.61-.91-4.1.52-8.16 1.34-12.2 2.21-1.25.27-2.56.87-3.53 1.69-6.6 5.54-13.14 11.16-19.65 16.8-.92.79-1.67 1.8-2.4 2.78-4.37 5.96-8.66 11.96-13.09 17.87-.53.71-1.83 1.41-2.56 1.24-.75-.17-1.75-1.42-1.77-2.22-.16-5.15-.22-10.3.02-15.44.06-1.22 1.22-2.53 2.15-3.53 7.93-8.53 15.76-17.14 21.23-27.57.26-.49.52-.99.75-1.5 4.83-10.53 4.55-11.5-6-15.55-4.5-1.72-7.27-4.5-8.2-9.25-.85-4.35 1.42-6.87 5.95-6.8 14.47.23 27.49 5.43 40.37 11.31 2.92 1.33 6.13 2.02 9.1 3.25 2.83 1.17 5.94 2.17 8.21 4.1 13.86 11.79 29.14 21.52 44.3 31.45 2.19 1.43 4.19 3.35 5.82 5.41 5.47 6.94 10.7 14.08 16.11 21.07 1.15 1.48 2.58 2.79 4.04 3.98 11.58 9.52 22.08 19.98 29.11 33.45 1.96 3.76 3.61 7.69 5.59 11.45 6 11.36 12.18 22.62 18.11 34.01 3.67 7.05 5.45 14.58 5.24 22.63-.22 8.62-.33 17.25.02 25.86.37 9.18-.88 17.99-3.6 26.74-1.14 3.66-1.52 7.65-1.62 11.51-.31 10.96.02 21.97-2.98 32.65-.93 3.29-2.36 6.48-3.91 9.54-3.27 6.45-4.09 13.39-4.84 20.42-.43 4.09-.94 8.26-2.16 12.16-1.86 6-6.16 9.96-12.27 12.19-3.33-5.49-4.62-11.41-3.32-17.45 1.71-7.94-.59-13.45-7.94-16.93-3.73-1.76-7.26-3.99-11.08-5.52-11.41-4.54-22.89-8.86-34.88-13.49zm-83.79-57.17c3.73-.57 7.18-.93 10.56-1.64 12.32-2.62 22.73-9.05 32.69-16.44 12.67-9.4 24.48-19.55 31.72-34.01 1-1.99 2.32-3.82 3.51-5.72.93-1.48 1.57-3.31 4.01-2.66s5.46-.1 6.42 3.49c1.33 5.01 4.67 8.22 9.17 10.83 7.82 4.55 15.08 10.1 23 14.46 8.65 4.76 17.78 8.63 27.79 13.41.1-4.88.63-8.89.15-12.77-.88-7.2-3.13-14.31-3.39-21.5-.44-12.55-4.92-23.41-12.34-33.02-9.08-11.76-18.67-23.14-28.33-34.44-4.34-5.07-8.97-10.08-14.23-14.13-8.31-6.4-14.08-5.75-21.99 1.18-1.34 1.17-2.59 2.5-3.66 3.92-7.62 10.04-16.78 18.59-26 27.09-1.02.94-1.89 2.59-1.94 3.94-.19 5.25-2.35 9.54-5.18 13.85-14.06 21.36-26.28 43.57-33.46 68.39-1.7 5.86-.57 10.36 1.5 15.77zm-3.32 52.18c.72.99 1.19 1.76 1.77 2.42 2.85 3.22 5.56 6.41 3.71 11.25-.29.76.28 1.94.63 2.85 1.1 2.81 2.41 5.54 3.41 8.38.62 1.77 1.58 2.27 3.43 2.29 10.34.12 19.61-3.33 28.14-8.7 16.22-10.19 30.81-22.29 42.39-37.73 2.73-3.64 8.03-3.42 10.45.23 1.22 1.84 2.6 3.74 4.33 5.04 8.47 6.34 17.81 11.14 27.74 14.74 5.38 1.96 10.89 3.54 16.7 2.76 1.08-.15 2.69-1.06 2.95-1.94 3.64-12.29 6.01-24.78 4.88-37.7-.27-3.07-1.6-5.18-4.65-6.65-13.77-6.6-26.51-14.85-38.21-24.72-5.92-4.99-12.93-7.9-20.55-9.34-2.37-.45-4.17-.01-5.99 1.82-4.42 4.44-8.95 8.8-13.74 12.84-3.1 2.62-6.56 4.97-10.18 6.8-2.83 1.43-4.94 3.07-6.36 5.96-1.1 2.22-2.44 5.08-4.43 5.99-14.38 6.56-27.6 15.84-43.49 18.98-.84.17-1.63 1.44-2.12 2.37-1.61 3.06 1.63 4.77 2.1 7.13 1.04 5.11 1.99 10.53-2.91 14.93z" fill="#010100"/><g fill="#fcfbfa"><path d="m377.9 391.2c-.2.3-.4.5-.6.8-.7-.6-1.4-1-2.2-1.5.2-.3.4-.5.5-.8.6.4 1.4.8 2.3 1.5zm-1.8 6.1c-.2-.2-.5-.4-.9-.6.4-.6.8-1.2 1.2-1.9s.7-1.3.9-1.9c.3.3.5.5.8.7-.7 1.3-1.4 2.6-2 3.7zm2.2-9c-.3.3-.5.5-.6.8-.6-.6-1.3-1.1-2-1.5.3-.3.5-.5.6-.7.6.5 1.3.9 2 1.4zm.3.2v-.9h2 4.5c-.3 1.3-.6 2.5-1 3.6s-.9 2.1-1.4 3c.4.5 1 1 1.6 1.4s1.2.8 1.9 1.1c-.3.2-.5.4-.8.8-.4-.3-1-.7-1.6-1.2s-1.2-1.1-1.6-1.6c-.5.6-1.1 1.1-1.7 1.6s-1.4.9-2.1 1.4c-.1-.3-.3-.5-.7-.8.6-.2 1.2-.5 1.9-1s1.4-1.1 2-1.8c-.5-.8-.9-1.6-1.2-2.5s-.6-2-.8-3.2c-.4.1-.7.1-1 .1zm2.5 2.7c.3 1 .7 1.7 1 2.2.3-.5.6-1.1 1-2s.6-1.9.9-3h-3.2-.4c.1.9.3 1.8.7 2.8z"/><path d="m396.5 388.5v1.5 3.6h1.5v.9c-.4 0-1 0-1.7 0h-7.9c-.5 0-.9 0-1.2 0v-.9h1.3v-3.5c0-.7 0-1.2 0-1.6h2.4c0-.8 0-1.4 0-1.7h1c0 .3-.1.8-.1 1.7h1.5c0-.8 0-1.4 0-1.7h1c0 .3-.1.9-.1 1.7zm-8.2 9.2c-.2-.3-.5-.5-.8-.8.8-.3 1.4-.6 1.9-.9s1-.7 1.4-1.1c.3.3.6.5.9.8-1.6 1-2.8 1.6-3.4 2zm2.6-6.8v-1.6h-1.5v1.6zm0 2.7v-1.9h-1.5v1.9zm2.4-2.7v-1.6h-1.5v1.6zm0 2.7v-1.9h-1.5v1.9zm.2 2 .7-.8c.4.2.9.5 1.6.8s1.3.7 1.8 1c-.3.3-.5.5-.8.8-.4-.3-1.5-1-3.3-1.8zm2-4.7v-1.6h-1.4v1.6zm0 2.7v-1.9h-1.4v1.9z"/></g></svg>