<svg viewBox="0 0 400 400" xmlns="http://www.w3.org/2000/svg"><rect width="400" height="400" fill="white" /><path d="m260.75 143.94c5.12 4.92 6.11 10.28 4.8 16.21-.53 2.39-1.28 4.75-2.12 7.06-5.06 13.71-7.57 27.94-8.44 42.46-.29 4.86-.62 9.79 3.56 13.71 1.61 1.51 1.52 3.42-.41 5.51-1.48 1.6-2.29 4.36-2.36 6.64-.47 16.58.34 33.09 3.57 49.42.39 1.96.68 4.04.47 6-.2 1.83-1.12 3.58-1.94 5.99-4.71-5.2-6.74-10.56-7.54-16.4-2.18-15.86-3.6-31.79-3.28-47.82.05-2.73-1.1-4.17-3.43-5-1.16-.41-2.33-1-3.52-1.04-9.82-.35-19.65-.75-29.47-.81-6.33-.04-12.67.4-19 .76-10.75.61-21.5.72-32.02 3.98-4.97 1.54-10.62 1.13-15.97 1.18-3 .03-4.55.94-4.96 3.95-.81 6.08-1.22 12.28-2.77 18.17-1.72 6.52-4.11 12.96-7.03 19.04-2.23 4.65-5.73 8.69-8.67 13-.47-.09-.94-.18-1.41-.28-.39-2.52-1.34-5.09-1.07-7.53.7-6.2 1.96-12.33 2.97-18.49.48-2.95.78-5.94 1.38-8.87.44-2.12 1.25-4.17 1.91-6.24.19-.59.51-1.15.59-1.75 4.09-28.31 3.83-56.87 4.84-85.36.03-.92.75-1.82 1.16-2.73.78.49 1.75.83 2.32 1.5 3.33 3.92 4.26 8.62 4.87 13.63 1.61 13.4 3.99 26.71 3.02 40.31-.26 3.56-.22 7.14-.19 10.7.02 2.37 1.12 3.34 3.67 2.81 4.13-.86 8.32-1.42 12.93-2.18-4.72-11.8-2.63-23.87-2.85-35.76-.1-5.33.96-10.68 1.39-16.02.93-11.63 1.04-23.25-.77-34.82-.24-1.54-.37-3.12-.37-4.68-.12-25.86-.22-51.72-.28-77.58-.01-2.34.13-4.72.59-7.01.23-1.14 1.32-2.11 2.02-3.16.87.67 1.92 1.2 2.57 2.04 3.72 4.77 4.91 10.13 4.82 16.24-.26 17.79.1 35.59-.03 53.39-.03 4.24-1.02 8.38-.13 12.76.65 3.18-.13 6.68-.41 10.02-.92 11.2-.49 22.34 1.05 33.47.53 3.86.61 7.81.64 11.72.08 10.75.03 21.49.03 32.24 0 5.87 1.64 7.3 7.36 5.95 5.04-1.2 10.01-2.72 15.01-4.11-3.62-3.05-3.12-7.7-2.9-11.78.57-10.48 2.43-20.91 2.68-31.39.3-12.6-.53-25.23-.9-37.84-.05-1.66-.7-3.47-.26-4.97 2.32-7.86 1.24-15.75.69-23.66-.15-2.22 0-4.46.07-6.69.18-6.25.99-12.55.44-18.73-1.02-11.4.75-22.55 1.83-33.78.57-5.9 1.22-11.8 1.86-17.69.46-4.22 2.71-5.3 6.42-3.11 3.28 1.93 5.43 6.08 4.57 9.34-3.63 13.86-3.82 28.09-4.72 42.25-.47 7.37-.72 14.74-.99 22.12-.09 2.34-.16 4.72.14 7.03 1.11 8.72 1.03 17.3-1.14 25.93-.78 3.1.21 6.64.36 9.98.05 1.11.39 2.38-.01 3.31-3.02 7.07-1.3 14.38-1.07 21.55.43 13.34.14 26.61-1.95 39.82-.3 1.86-.48 3.82-.22 5.67.38 2.75 2.15 4.53 5.06 4.2 5.44-.61 10.88-1.38 16.27-2.35 1.07-.19 2.5-1.43 2.77-2.44.87-3.26 1.82-6.46-.09-9.99-1.13-2.09-1.07-4.97-1.1-7.51-.13-10.96-.26-21.93-.09-32.89.12-7.71.8-15.41 1.11-23.12.48-11.73.84-23.47 1.31-35.21.08-1.88.44-3.75.75-5.61 2.21-13.1 4.14-26.27 6.8-39.28 1.54-7.51 4.16-14.82 6.54-22.14.87-2.67 4.14-2.82 5.7-.48 2.28 3.45 2.91 7.29 1.91 11.24-.82 3.24-1.53 6.7-3.23 9.49-3.63 5.99-3.55 12.66-4.14 19.13-1.89 20.72-3.41 41.48-5.01 62.22-.15 1.99.06 4.01.12 6.01.2 7.15.56 14.31.58 21.46.04 15.65-.14 31.3-.06 46.95.01 1.2 1.13 3.07 2.17 3.46 5.09 1.92 10.35 1.41 15.48-.05.64-.18 1.29-1.65 1.31-2.54.35-17.52 3.09-34.72 6.91-51.76 1.07-4.78 2.8-9.42 4.39-14.07.46-1.36 1.5-2.58 2.54-4.3z" fill="#010100"/><path d="m183.27 271.4c-.15 1.16-.29 2.33-.39 3.13-5.81.37-11.55.47-17.22 1.14-9.31 1.11-18.5.79-27.68-1.01-2.36-.46-3.56-1.59-3.1-4.82 5.59-.98 11.37-2.04 17.17-3 1.98-.33 4-.4 6.01-.59 2.08-.2 3.87.03 5.28 1.99 1.27 1.75 2.71 2.16 4.68.2 1.31-1.31 3.61-2.2 5.5-2.27 9.13-.35 18.28-.53 27.42-.44 5.46.05 10.92.83 16.39.98 1.25.04 3.09-.82 3.7-1.84 1.58-2.64 3.99-2.97 5.49-1.15 4.77 5.79 11.28 7.07 18 7.66.57 4.2-.09 5.14-3.91 5.45-1.88.16-3.8-.02-5.7-.09-4.77-.17-7.19 1.18-7.89 5.81-2.37 15.8-3.64 31.58 3.73 46.64.78 1.61 1.64 3.2 2.2 4.89 4.94 14.76 18.25 21.02 29.37 29.69 3.96-3.96 5.49-8.51 6.8-13.32 1.39-5.13 3.4-10.09 5.06-15.16.69-2.1 1.18-4.27 1.68-6.43.28-1.19.14-2.57.71-3.57.45-.79 1.66-1.46 2.6-1.56.51-.05 1.65 1.22 1.65 1.89 0 3.32.07 6.71-.55 9.95-.93 4.81-1.57 9.99-3.88 14.14-3.05 5.48-1.26 12.51-6.34 17.21-1.31 1.21-1.62 3.64-2.11 5.58-.61 2.44-2.22 3.25-4.23 2.36-5.93-2.6-12.78-3.67-16.66-9.86-.71-1.13-2.2-1.81-3.39-2.59-3.08-2.02-6.29-3.85-9.26-6.02-2.91-2.12-4.98-4.84-6.29-8.41-1.99-5.44-4.69-10.61-7.08-15.91-6.31-14-5.31-28.56-3.14-43.16.35-2.34 1.8-4.52 2.79-6.76 1.94-4.39.31-6.66-4.48-6.81-7.6-.23-15.18-.8-22.78-1.16-4.2-.2-5.36 1.34-4.56 5.45 1.75 9.02-.39 17.59-3.61 25.87-5.4 13.89-16.02 23.77-26.51 33.73-3.96 3.76-7.66 7.8-11.45 11.74-1.16 1.21-2.28 2.46-3.34 3.76-4.49 5.52-11.64 2.91-15.14-.89-4.21-4.55-7.51-9.5-9.05-15.71-1.91-7.67-4.5-15.17-6.73-22.76-.31-1.05-.24-2.2-.36-3.41 2.87-1.26 4.91-.49 5.89 2.3 1.65 4.72 3.1 9.52 4.61 14.29.98 3.07 2.02 6.13 2.84 9.25.81 3.08 1.6 6.19 1.98 9.34.4 3.24 1.39 5.97 4.61 7.14 3.2 1.17 5.14-.8 7.01-3.15 11.01-13.81 22.18-27.51 33.12-41.38 2.24-2.83 4.4-6.06 5.41-9.46 2.4-8.11 4.13-16.41 6.02-24.67.31-1.34.04-2.81.04-4.23-.32.03-.63.02-.93.01z" fill="#010100"/><g fill="#fcfafa"><path d="m342.2 3.2-6.3 9.2h6.1v1.2h-8.2v-.5l6.2-9.1h-5.7v-1.2h7.8v.4z"/><path d="m344 13.7v-10.9h3.1c1.6 0 3 .5 4.1 1.4 1.1 1 1.6 2.2 1.6 3.9s-.5 3-1.6 4-2.5 1.5-4.2 1.5h-3zm1.4-9.6v8.4h1.6c1.4 0 2.5-.4 3.2-1.1.8-.8 1.2-1.8 1.2-3.2s-.4-2.4-1.2-3.1-1.8-1-3.1-1z"/><path d="m356.3 2.8v10.9h-1.4v-10.9z"/><path d="m366.6 13.2c-.8.4-1.8.6-3 .6-1.6 0-2.8-.5-3.7-1.5s-1.4-2.3-1.4-3.9c0-1.7.5-3.2 1.6-4.2s2.4-1.6 4-1.6c1 0 1.9.1 2.6.4v1.5c-.8-.4-1.6-.6-2.6-.6-1.2 0-2.2.4-3 1.2s-1.1 1.9-1.1 3.3c0 1.3.4 2.3 1.1 3.1s1.6 1.1 2.8 1.1c1.1 0 2-.2 2.8-.7v1.3z"/><path d="m368.2 13c0-.3.1-.5.3-.6.2-.2.4-.3.6-.3.3 0 .5.1.7.3s.3.4.3.6-.1.5-.3.6c-.2.2-.4.3-.7.3s-.5-.1-.6-.3c-.2-.2-.3-.4-.3-.6z"/><path d="m381.1 13.7h-1.7l-5.5-8.4c-.2-.2-.3-.5-.4-.7 0 .2.1.8.1 1.5v7.6h-1.4v-10.9h1.8l5.3 8.3c.3.4.4.6.4.8 0-.3-.1-.8-.1-1.6v-7.5h1.4v10.9z"/><path d="m389.7 13.7h-5.8v-10.9h5.6v1.2h-4.2v3.5h3.9v1.2h-3.9v3.7h4.4z"/><path d="m398.4 4.1h-3.1v9.6h-1.4v-9.6h-3.1v-1.3h7.7v1.3z"/></g></svg>