<svg viewBox="0 0 400 400" xmlns="http://www.w3.org/2000/svg"><rect width="400" height="400" fill="white" /><g fill="#fafafb"><path d="m12.4 4.8-6.1 9h6v1.2h-8v-.5l6.1-8.9h-5.7v-1.2h7.6v.4z"/><path d="m14 15v-10.6h3c1.6 0 2.9.5 4 1.4s1.6 2.2 1.6 3.8-.5 3-1.6 3.9-2.4 1.5-4 1.5zm1.4-9.4v8.2h1.6c1.3 0 2.4-.4 3.1-1.1s1.1-1.8 1.1-3.1-.4-2.3-1.2-3-1.8-1-3.1-1z"/><path d="m26.1 4.4v10.6h-1.4v-10.6z"/><path d="m36.1 14.6c-.8.4-1.8.6-2.9.6-1.5 0-2.7-.5-3.6-1.4s-1.4-2.2-1.4-3.8c0-1.7.5-3.1 1.5-4.1s2.3-1.6 3.9-1.6c1 0 1.8.1 2.5.4v1.4c-.8-.4-1.6-.6-2.5-.6-1.2 0-2.1.4-2.9 1.2s-1.1 1.8-1.1 3.2c0 1.3.3 2.3 1 3s1.6 1.1 2.7 1.1c1 0 2-.2 2.7-.7v1.3z"/><path d="m37.6 14.3c0-.2.1-.5.3-.6s.4-.3.6-.3c.3 0 .5.1.6.3s.3.4.3.6-.1.4-.3.6-.4.3-.6.3c-.3 0-.5-.1-.6-.3s-.3-.4-.3-.6z"/><path d="m50.2 15h-1.6l-5.3-8.2c-.2-.2-.3-.5-.4-.7 0 .2.1.7.1 1.5v7.4h-1.4v-10.6h1.7l5.2 8.1c.2.4.4.6.4.7 0-.3-.1-.8-.1-1.5v-7.3h1.4z"/><path d="m58.6 15h-5.7v-10.6h5.5v1.2h-4.1v3.4h3.8v1.2h-3.8v3.6h4.3z"/><path d="m67.1 5.6h-3.1v9.4h-1.4v-9.4h-3v-1.2h7.5z"/></g><path d="m119.99 238.76c1.31-.24 2.21-.33 3.06-.58 2.8-.81 4.89-.16 6.52 2.43 1.18 1.88 2.67 3.63 4.28 5.16 2.89 2.74 3.97 5.89 3.67 9.88-.3 3.98 2.42 7.24 6.38 8.33 1.49.41 3.07.62 4.62.69 7.9.36 9.36-1.12 8.94-8.91-.66-12.18-1.24-24.36-2.04-36.53-.09-1.44-1.02-3.18-2.12-4.14-5.31-4.63-10.87-8.98-16.21-13.58-1.27-1.1-2.38-2.69-2.92-4.27-4.51-13.1-8.92-26.24-13.25-39.4-.61-1.87-.9-3.92-.91-5.89-.08-12.87-.18-25.74.04-38.61.07-4.11-.68-7.66-3.29-10.86-1.12-1.37-1.92-3-2.84-4.46.17-.3.23-.59.39-.67 7.95-3.73 7.88-11.18 8.28-18.25.31-5.47.13-10.96.11-16.44-.02-6.63.22-13.23 3.23-19.33.91-1.86 2.23-3.52 3.54-5.54 3.75 4.54 5.15 9.52 5.75 14.58 1.46 12.33 2.57 24.71.62 37.12-.7 4.46 1.17 6.6 5.57 6.6 15.65.01 31.3.01 46.95 0 .87 0 1.74-.12 2.9-.21-.25-2.06-.66-3.92-.68-5.79-.1-7.25-.36-14.51-.03-21.74.6-13.3 1.58-26.58 2.41-39.87.05-.86.22-1.71.37-2.88 5.2 2.82 8.16 7.23 9.26 12.4 1.58 7.4 2.61 14.96 3.29 22.5 1.01 11.25 1.51 22.54 2.26 34.37 16.61.6 33.19 1.19 50.1 1.8.08-1.6.25-3.03.2-4.45-.59-16.09-1.19-32.18-1.85-48.27-.13-3.08.3-4.11 3.38-5.8 2.3 4.41 4.36 8.97 6.98 13.2 3.23 5.22 4.3 10.86 4.8 16.84 1.15 13.93 2.63 27.84 3.83 41.77.26 2.98.32 6.1-.28 9-1.73 8.36-.17 16.51 1.17 24.64 2.7 16.35-.39 31.99-4.8 47.63-1.75 6.21-5.8 10.61-9.33 15.61-4.76 6.76-10.47 10.49-18.93 9.74-1.18-.11-3.15 1.13-3.66 2.24-1.46 3.21-2.96 6.6-3.36 10.05-1.06 9.28-.33 18.55 1.83 27.66 1.11 4.66 2.41 5.94 7.23 5.47 4.52-.44 8.98-1.69 13.38-2.88.72-.2 1.35-1.94 1.43-3.01.39-4.68.52-9.38.83-14.06.13-2 .06-4.18.86-5.92.68-1.48 2.31-3.04 3.84-3.48 2.14-.62 3.8.57 4.91 2.91 2.55 5.35 4.07 10.74 3.61 16.76-.94 12.28.68 24.26 4.28 36.07 1.15 3.77 1.33 7.92 1.37 11.9.05 5.43-.2 5.43-5.73 6.74-4.88-6.4-8.67-13.38-10.69-21.32-2.26-8.87-11.91-13.27-20.28-9.26-.84.4-1.66 2.01-1.59 2.99.34 4.75.75 9.52 1.58 14.2.84 4.71 2.58 9.28 3.29 14.01 2.17 14.43 8.57 27.46 13.02 41.14 1.34 4.13 2.23 8.41 3.24 12.64.2.85.36 1.92.02 2.64-.56 1.22-1.37 2.92-2.39 3.18-1.17.31-3.16-.31-4-1.24-6.44-7.19-10.42-15.74-13.69-24.76-7.04-19.43-11.18-39.54-14.56-59.84-.63-3.81-2.36-5.6-5.98-5.72-3.78-.12-7.56-.03-12.33-.03-.18 7.65-.87 15.12-.43 22.52.77 13.08 2.91 25.99 6.7 38.58.45 1.49 1 2.99 1.77 4.33 4.55 7.96 6.79 16.74 9.09 25.49.39 1.49.8 3.25.35 4.6-.49 1.45-1.76 3.01-3.11 3.69-1.85.93-3.21-.25-4.08-2.2-6.65-14.95-15.58-28.88-19.86-45.47-7.5 15.49-13.61 31.1-25.8 43.02-1.17 1.14-2.67 1.95-4.19 3.04-2.14-2.58-2.64-5.13-1.1-7.85 2.41-4.25 4.71-8.59 7.49-12.58 7.39-10.62 11.09-22.58 13.36-35.12 2.15-11.85 3.02-23.73 1.13-35.71-.8-5.05-1.9-6.24-7.06-6.56-2.89-.18-5.81.01-8.7.27-.72.07-1.72.96-1.94 1.67-.63 2.01-1.16 4.11-1.31 6.2-1.24 16.51-6.55 32.16-10.31 48.11-1.91 8.1-4.8 15.99-7.58 23.86-1.15 3.26-3.73 5.66-7.4 6.13-1.54.19-4.4.07-4.53-.46-.61-2.34-1.55-5.83-.38-7.19 12.41-14.41 14.3-31.8 15.04-49.66.32-7.82.97-15.63 1.66-23.43.19-2.1-.39-2.9-2.37-3.53-6.76-2.16-13.27-1.37-19.6 1.4-.91.4-1.79 1.91-1.86 2.97-.41 5.69-.47 11.4-.84 17.09-.18 2.77-.23 5.73-1.31 8.18-.74 1.7-2.95 3.14-4.83 3.85-2.23.85-3.93-.92-4.63-2.9-1.06-3-2.01-6.12-2.41-9.27-.85-6.75-1.41-13.54-1.92-20.32-.28-3.66-.42-7.35-.29-11.01.36-9.51.9-18.99 1.37-28.64zm144.77-114.74c-.81-2.05-1.31-4.31-2.49-6.11-3.08-4.7-9.35-5.21-13.21-1.28-10.96 11.16-21.84 22.4-32.92 33.45-2.04 2.03-2.23 3.98-.62 5.74 3.49 3.84 7 7.79 11.1 10.92 6.2 4.73 12.84 8.91 19.45 13.08 2.41 1.52 5.19 2.67 7.96 3.37 2.19.56 4.89.65 5.6-2.59 3.06-13.87 3.84-27.84 1.9-41.95-.28-2.01 0-4.19.48-6.18.65-2.78 1.75-5.48 2.75-8.45zm-40.72 137.24c0-5.79.48-11.31-.12-16.7-.75-6.62-2.27-13.17-3.78-19.68-.28-1.22-2.04-2.88-3.24-2.98-12.81-1.07-25.63-1.91-38.46-2.72-5.14-.32-7.52 2.25-7.04 7.23.15 1.56.2 3.12.31 4.69.71 10.01 1.42 20.01 2.15 30.16zm17.09-60.47c-.04-.4-.08-.8-.12-1.2-9.9-7.44-19.68-15.06-29.77-22.25-4.14-2.95-8.94-5-13.45-7.43-1.92-1.03-3.47-.54-5.14.86-6.01 5.02-11.98 10.12-18.3 14.73-4.46 3.25-7.85 6.75-7.74 12.61 0 .1-.1.2-.12.31-.44 2.61 3.08 7.43 5.66 8.02 18.05 4.09 36.03 2.81 53.91-.93 5.13-1.07 10.06-3.12 15.07-4.72zm-95.49-16.08c11.59-8.21 22.91-16.2 34.2-24.24 2.44-1.73 2.02-6.93-.7-8.43-4.79-2.65-9.64-5.18-14.47-7.77-8.54-4.58-17.08-9.16-25.96-13.92-.19 1.48-.36 2.56-.46 3.64-.51 5.51.19 11.19-2.68 16.36-.38.68.14 2.23.73 3.01 2.85 3.78 3.47 8.14 3.62 12.65.08 2.23.09 4.47.08 6.71-.03 4.78 2.2 8.49 5.64 11.99zm4.17-70.93c5.7 4.08 10.82 8.78 16.79 11.79 10.44 5.26 21.43 9.44 32.13 14.2 1.83.81 2.96.55 4.41-.75 8.33-7.45 16.75-14.79 25.12-22.19.52-.46.94-1.03 1.64-1.81-9.21-3.08-18.35-3.43-27.5-3.13-13.18.44-26.39 1.02-39.38-1.67-4.99-1.03-8.92-.1-13.21 3.56z" fill="#010105"/></svg>