<svg viewBox="0 0 400 400" xmlns="http://www.w3.org/2000/svg"><rect width="400" height="400" fill="white" /><path d="m312.75 363.05c-6.17-2.29-13.23-2.3-18.28-7.48-.38-.39-.91-.68-1.43-.86-11.92-4.18-17.34-14.1-21.99-24.76-3.86-8.86-5.66-18.08-5.44-27.75.17-7.61-.23-15.24.26-22.83.66-10.36 1.94-20.67 2.88-31.01.17-1.87-.04-3.78-.06-5.67-.09-8.48-.14-16.97-.27-25.45-.02-1.44-.19-2.93-.63-4.29-1.12-3.49-3.35-4.15-6.3-1.99-3.15 2.32-7.17 4.09-9.19 7.16-2.39 3.63-5.68 5.89-8.72 8.58-1.65 1.46-3.65 2.55-5.55 3.71-3.7 2.28-7.42 4.54-11.18 6.72-4.23 2.44-8.3 5.38-12.83 7.03-12.79 4.67-24.45 11.39-36.26 18.03-11.86 6.67-24.16 12.7-37.67 15.45-3.62.74-4.89 2.72-4.69 6.02.18 3.01.71 6 .8 9.01.2 6.58 1.37 13.44-.07 19.68-1.1 4.77-.35 9.53-1.76 14.18-1.39 4.58-1.45 9.6-3.11 14.05-1.81 4.86-4.58 9.42-7.31 13.88-3.92 6.41-8.3 12.61-14.46 17.04-2.67 1.92-6.11 2.94-9.35 3.84-1.1.31-3.79-1-3.79-1.57 0-1.59.56-3.75 1.72-4.69 17.3-13.96 25.87-32.72 28.96-54.08 1.22-8.4.46-17.13.12-25.69-.11-2.84-1.7-5.61-2.81-9.05 0-1.23.08-3.33-.01-5.43-.47-10.17-.02-20.51-1.79-30.46-1.49-8.4-1.44-16.85-2.83-25.17-.36-2.17-1.68-4.32-3.01-6.16-3.58-4.99-7.48-9.75-11.1-14.71-7.48-10.25-15.75-19.97-21.45-31.45-2.31-4.64-3.91-9.42-4.28-14.57.26-.24.51-.49.77-.73 1.51 1.23 3.4 2.19 4.48 3.72 10.89 15.46 21.64 31.01 32.43 46.53.83 1.19 1.68 2.36 2.64 3.72 3.51-3.13 4.11-7.06 3.87-11.28-.02-.32-.09-.7-.27-.95-9.12-12.98-13.09-28.08-17.91-42.86-5.26-16.12-10.86-32.13-16.1-48.26-1-3.07-1.03-6.46-1.5-9.7.42-.18.83-.36 1.25-.54.89 1.23 1.9 2.41 2.65 3.72.6 1.05.58 2.55 1.34 3.38 5.39 5.92 6.33 13.58 8.68 20.76 3.65 11.13 8.02 22.03 12.09 33.02.23.63.71 1.24.72 1.87.25 8.93 6.3 16.04 7.72 24.63.38 2.3 1.89 4.54 3.31 6.49 1.32 1.81 2.72 1.77 3.98-.61 2.83-5.35 3.58-10.51 1.75-16.6-5.62-18.72-6.87-38.25-9.77-57.47-1.05-6.97-.91-14.31-3.15-20.85-2.27-6.61-1.18-13.2-2.31-19.71-.37-2.15-.06-4.41-.06-6.62.4-.1.8-.2 1.2-.3 1.65 4.48 3.9 8.83 4.83 13.45 2.75 13.69 4.98 27.48 7.43 41.23.19 1.09.37 2.23.82 3.22 2.11 4.63 2.83 9.52 3.63 14.52 1.75 10.86 4.28 21.6 6.57 32.37.6 2.81 3.14 1.93 4.69 1.66 3.1-.54 6.06-1.8 9.13-2.59 1.78-.46 2.24-1.41 2.11-3.14-1.01-14.06-.36-28.48-3.36-42.1-3.21-14.55-2.2-29.43-5.78-43.78-.05-.22-.1-.44-.11-.66-.44-10.88-.89-21.75-1.28-32.63-.06-1.64-.14-3.51 3.13-3.46 1.06 5.21 2.38 10.49 3.19 15.84 2.08 13.93 4.08 27.87 5.85 41.84 2.49 19.63 4.78 39.29 7.08 58.95.53 4.57.39 4.61 4.82 4.58 7.37-.05 7.23 1.17 7.4-7.45.86-42.18 1.91-84.36 2.91-126.54.02-.87.14-1.74.27-3.31 3.59 3.64 4.47 7.72 4.59 11.88.14 5.02-.33 10.06-.39 15.09-.22 17.45-.4 34.91-.53 52.37-.01 1.77.55 3.53.67 5.31.21 3.19.31 6.39.42 9.58.06 1.66-.37 3.45.14 4.95 1.39 4.11.52 8.11.3 12.22-.4 7.32-.11 14.67-.11 22.44 6.35.38 12.21.96 18.07.96 2.29 0 3.19-2.22 1.95-4.22-1.98-3.19-.89-6.32-.81-9.64.17-6.61-.66-13.26-1.09-19.88-.08-1.22-.63-2.53-.32-3.62 2.54-8.82.96-17.8 1.19-26.71.2-7.49-.06-15 .25-22.48.11-2.72 1.28-5.39 2.14-8.74 3.92 3.86 4.92 7.77 5.1 11.8.6 12.88.91 25.78 1.45 38.67.21 4.89.94 9.77 1.05 14.66.07 3.38-.02 6.92-.94 10.14-1.33 4.66-1.25 9.2-.76 13.9.75 7.24 2.05 8.42 9.51 7.93 5.13-.34 5.02-.37 5.27-5.34.31-6.24.88-12.46 1.3-18.69.13-1.89.44-3.83.19-5.68-2.43-18 .22-35.96.26-53.94.01-6.04-.04-12.09.17-18.12.07-2.02.87-4.02 1.33-6.03.4.07.8.15 1.2.22.39 5.52.75 11.04 1.19 16.55.74 9.25 1.79 18.48 2.2 27.74.2 4.41-.99 8.87-1.15 13.32-.13 3.54.4 7.09.57 10.64.55 11.5 1.29 22.99 1.49 34.5.07 3.94.99 6.31 4.97 7.18 1.61.35 3.13 1.12 5.55 2.02.75-2.88 1.59-5.56 2.11-8.29.65-3.45 1.07-6.95 1.51-10.43.08-.6-.23-1.24-.32-1.86-.16-1.15-.53-2.33-.41-3.45.57-5.31 1.43-10.59 1.91-15.9.71-7.86-.5-15.92 2.67-23.5-1.85-6.41.94-12.65.77-19.05-.18-6.55.65-13.16 1.41-19.7.3-2.55 1.63-4.97 2.89-7.37 1.62 8.33 5.38 16.37 1.88 24.97-.44 1.08-.45 2.44-.35 3.64 1.41 16.39-.18 32.63-2.33 48.85-.09.67-.27 1.35-.2 2 1.23 11.46-1.32 22.8-1.19 34.23.02 2.11.56 3.26 2.27 4.63 3 2.41 5.48 5.46 8.9 8.98 2.92-6.41 6.03-12.07 8.09-18.08 2.77-8.11 4.61-16.54 7.07-24.77 1.88-6.28 4.27-12.41 6.07-18.7.81-2.83.82-5.9 1.05-8.87.48-6.16 2.71-11.62 6.08-16.66.4.01.81.03 1.21.04.3 4.79 1.02 9.6.78 14.36s-1.12 9.56-2.3 14.19c-3.34 13.1-6.93 26.14-10.55 39.16-.67 2.41-2 4.65-3.03 6.96-.23.51-.7 1.01-.69 1.51.09 7.64-5.01 13.23-7.7 19.76-.71 1.73-1.29 3.96-.83 5.66 4.35 16.02 4.79 32.49 3.17 48.65-1.19 11.87-1.71 23.8-3.09 35.66-1.61 13.73-.31 27.52 4.76 40.29 2.71 6.82 7.21 13.22 14.19 17.59 6.27 3.93 11.66 9.35 17.09 14.48 1.7 1.6 2.26 4.4 3.34 6.66-.28.26-.6.51-.91.76zm-49.05-166.17c-1.58-3.35-3.31-7.09-5.12-10.79-.33-.67-.91-1.25-1.5-1.74-4.05-3.38-7.74-7.28-12.83-9.23-1.24-.47-2.43-1.21-3.71-1.38-9.52-1.31-19.06-2.54-28.6-3.73-5.42-.68-10.85-1.31-16.29-1.8-2.93-.26-5.95-.61-8.82-.17-5.85.9-11.63 2.22-17.41 3.52-14.82 3.33-27.73 9.6-35.82 23.32-1.24 2.11-2.89 3.98-4.27 6.01-.54.8-1.22 1.76-1.23 2.65-.05 6.15-.36 12.35.22 18.45 1.39 14.58 3.31 29.1 4.85 43.67.93 8.74 1.19 9.9 10.47 5.47 3.91-1.87 7.72-3.93 11.55-5.95 2.25-1.19 4.46-2.44 6.68-3.7 2.31-1.31 4.55-2.78 6.92-3.97 10.46-5.26 21.13-10.14 31.37-15.81 4.17-2.31 9.51-2.47 12.61-6.73.11-.15.43-.11.63-.21 1.96-.99 4-1.84 5.85-3.01 3.58-2.26 6.76-5.68 10.63-6.79 3.73-1.07 6.22-3.15 8.84-5.45 4.95-4.37 9.84-8.8 14.74-13.23 3.28-3 6.54-6.01 10.24-9.4z" fill="#010100"/><g fill="#fcfafa"><path d="m342.2 3.2-6.3 9.2h6.1v1.2h-8.2v-.5l6.2-9.1h-5.7v-1.2h7.8v.4z"/><path d="m344 13.7v-10.9h3.1c1.6 0 3 .5 4.1 1.4 1.1 1 1.6 2.2 1.6 3.9s-.5 3-1.6 4-2.5 1.5-4.2 1.5h-3zm1.4-9.6v8.4h1.6c1.4 0 2.5-.4 3.2-1.1.8-.8 1.2-1.8 1.2-3.2s-.4-2.4-1.2-3.1-1.8-1-3.1-1z"/><path d="m356.3 2.8v10.9h-1.4v-10.9z"/><path d="m366.6 13.2c-.8.4-1.8.6-3 .6-1.6 0-2.8-.5-3.7-1.5s-1.4-2.3-1.4-3.9c0-1.7.5-3.2 1.6-4.2s2.4-1.6 4-1.6c1 0 1.9.1 2.6.4v1.5c-.8-.4-1.6-.6-2.6-.6-1.2 0-2.2.4-3 1.2s-1.1 1.9-1.1 3.3c0 1.3.4 2.3 1.1 3.1s1.6 1.1 2.8 1.1c1.1 0 2-.2 2.8-.7v1.3z"/><path d="m368.2 13c0-.3.1-.5.3-.6.2-.2.4-.3.6-.3.3 0 .5.1.7.3s.3.4.3.6-.1.5-.3.6c-.2.2-.4.3-.7.3s-.5-.1-.6-.3c-.2-.2-.3-.4-.3-.6z"/><path d="m381.1 13.7h-1.7l-5.5-8.4c-.2-.2-.3-.5-.4-.7 0 .2.1.8.1 1.5v7.6h-1.4v-10.9h1.8l5.3 8.3c.3.4.4.6.4.8 0-.3-.1-.8-.1-1.6v-7.5h1.4v10.9z"/><path d="m389.7 13.7h-5.8v-10.9h5.6v1.2h-4.2v3.5h3.9v1.2h-3.9v3.7h4.4z"/><path d="m398.4 4.1h-3.1v9.6h-1.4v-9.6h-3.1v-1.3h7.7v1.3z"/></g></svg>