<svg viewBox="0 0 400 400" xmlns="http://www.w3.org/2000/svg"><rect width="400" height="400" fill="white" /><g fill="#fafafb"><path d="m12.4 4.8-6.1 9h6v1.2h-8v-.5l6.1-8.9h-5.7v-1.2h7.6v.4z"/><path d="m14 15v-10.6h3c1.6 0 2.9.5 4 1.4s1.6 2.2 1.6 3.8-.5 3-1.6 3.9-2.4 1.5-4 1.5zm1.4-9.4v8.2h1.6c1.3 0 2.4-.4 3.1-1.1s1.1-1.8 1.1-3.1-.4-2.3-1.2-3-1.8-1-3.1-1z"/><path d="m26.1 4.4v10.6h-1.4v-10.6z"/><path d="m36.1 14.6c-.8.4-1.8.6-2.9.6-1.5 0-2.7-.5-3.6-1.4s-1.4-2.2-1.4-3.8c0-1.7.5-3.1 1.5-4.1s2.3-1.6 3.9-1.6c1 0 1.8.1 2.5.4v1.4c-.8-.4-1.6-.6-2.5-.6-1.2 0-2.1.4-2.9 1.2s-1.1 1.8-1.1 3.2c0 1.3.3 2.3 1 3s1.6 1.1 2.7 1.1c1 0 2-.2 2.7-.7v1.3z"/><path d="m37.6 14.3c0-.2.1-.5.3-.6s.4-.3.6-.3c.3 0 .5.1.6.3s.3.4.3.6-.1.4-.3.6-.4.3-.6.3c-.3 0-.5-.1-.6-.3s-.3-.4-.3-.6z"/><path d="m50.2 15h-1.6l-5.3-8.2c-.2-.2-.3-.5-.4-.7 0 .2.1.7.1 1.5v7.4h-1.4v-10.6h1.7l5.2 8.1c.2.4.4.6.4.7 0-.3-.1-.8-.1-1.5v-7.3h1.4z"/><path d="m58.6 15h-5.7v-10.6h5.5v1.2h-4.1v3.4h3.8v1.2h-3.8v3.6h4.3z"/><path d="m67.1 5.6h-3.1v9.4h-1.4v-9.4h-3v-1.2h7.5z"/></g><path d="m188.09 36.92c6.69 7.16 9.17 15.66 10.58 24.81.93 6.03 2.67 11.96 4.44 17.83 2.75 9.11 9.62 14.24 18.35 16.49 5.77 1.48 11.9 1.83 17.9 2.1 7.57.34 15.17.08 22.87.08 1.71-8.22 1.44-16.05-.24-23.71-2.34-10.69-5.43-21.21-7.9-31.87-1.64-7.1-1.4-11.99.06-17.63 7.02.68 12.8 3.81 15.66 10.2 2.75 6.15 5.17 12.77 6.01 19.4 3.69 29.38 7.54 58.76 5.98 88.54-.34 6.44-.91 12.54-3.48 18.54-3.39 7.9-6.29 16.02-9.36 24.06-2.19 5.73-4.42 11.33-8.55 16.15-5.88 6.85-5.34 14.9-3.53 23.23 4.47 20.53 8.38 41.17 12.94 61.68 3.7 16.64 9.85 32.49 17.03 47.94 2.72 5.86 4.48 11.93 3.21 18.52-.86 4.45-3.09 6.18-7.54 5.51-3.43-.52-6.16-1.92-8.24-5.03-8.23-12.29-13.82-25.8-18.55-39.68-6.82-20-12.86-40.22-17.15-60.96-1.83-8.84-4.84-17.44-7.46-26.1-.69-2.28-.82-4.2.64-6.25 1.29-1.81 2.55-3.76 3.23-5.85.48-1.46.28-3.35-.25-4.83-.24-.68-2.33-1.43-3.01-1.07-1.54.83-2.74 2.31-4.04 3.56-.12.11-.02.43-.04.66-.59 6.83-.54 7.2-7.39 8.15-8.29 1.15-16.75 1.21-25.01 2.5-4.5.7-8.83 2.82-13.08 4.65-1.94.84-2.46 2.73-2.14 5.09 3.47 25.64 5.99 51.36 4.9 77.28-.38 8.92-1.65 17.81-2.54 26.7-.07.65-.28 1.33-.61 1.9-4.8 8.26-8.02 17.16-10.75 26.27-1.42 4.73-4.99 7.3-9.61 8.43-.87.21-2.35-.06-2.87-.68-3.64-4.31-5.59-9.14-3.73-14.88.1-.32.14-.67.29-.96 5.04-10.23 5.63-21.1 5.47-32.31-.36-25.74.04-51.5-.22-77.25-.06-6.2-1.25-12.44-2.41-18.57-1.03-5.45-3.87-9.94-8.93-12.77-3.31-1.86-6.38-4.22-9.83-5.76-12.54-5.6-18.8-15.33-20.58-28.74-2.44-18.4-5.41-36.73-8.18-55.09-.25-1.65-.63-3.31-1.16-4.89-3.96-11.74-4.14-23.94-4.56-36.13-.44-13.09-1-26.17-1.48-39.26-.12-3.17 2.61-6.16 6.05-6.75 3.92-.68 5.89.38 7.25 3.9 3.42 8.91 3.51 18.04 2.53 27.43-.65 6.26-.45 12.7.18 18.98.73 7.3 5.98 10.45 12.72 11.78 6.48 1.28 12.66-.31 18.92-1.49 6.92-1.31 13.87-2.49 20.77-3.9 1.27-.26 2.69-1.07 3.51-2.06 2.91-3.54 5.95-7.06 8.23-11 1.23-2.11 1.62-5.13 1.33-7.62-.79-6.87-2.22-13.67-3.25-20.52-1.07-7.27-.12-13.88 6.62-18.75zm58.73 146.05c-15.71-6.29-31.02-12.46-46.38-18.47-.96-.37-2.58.15-3.57.77-12.41 7.75-24.75 15.6-37.11 23.43-.76.48-1.45 1.08-2.45 1.83 7.88 3.88 15.23 7.67 22.74 11.07 2.18.99 4.94 1.42 7.31 1.12 8.19-1.03 16.33-2.45 24.48-3.81 12.91-2.13 24.77-6.58 34.98-15.94zm-94.74-64.58c14.04 8.5 25.8 19.01 40.83 24.36 4.06 1.45 7.19 1.6 10.46-.98 8.88-6.97 17.79-13.9 26.58-20.98 3.39-2.73 2.95-6.56-1.1-8.29-2.24-.95-5.07-1.31-7.47-.92-9.54 1.53-18.43.78-26.42-5.33-.97-.74-2.98-.76-4.27-.36-11.29 3.54-22.54 7.25-33.79 10.91-1.33.44-2.66.88-4.82 1.59zm63.57 30.16c1.29 1.78 2.05 3.98 3.52 4.66 9.41 4.38 18.83 8.8 28.56 12.36 3.23 1.18 7.42.16 11.08-.44 1.13-.18 2.48-2.17 2.8-3.54 1.08-4.68 1.9-9.43 2.52-14.19.92-7.07 1.96-14.17 2.21-21.28.16-4.54-1.99-8.54-6.27-11.29-12.72 13.92-28.77 23.04-44.42 33.72zm-84.28-25.25c-.43.73-.6.89-.63 1.08-2.68 17.75 3.78 33.17 12.38 48.01.31.53 1.52.96 2.17.81 12.59-2.87 23.96-8.3 34.98-16.9-16.57-11.18-32.71-22.08-48.9-33zm109.68 75.48c-3.25 1.37-6.04 2.55-8.83 3.73.04.18.08.36.12.54h9.51c-.27-1.44-.49-2.59-.8-4.27z" fill="#010105"/></svg>