<svg viewBox="0 0 400 400" xmlns="http://www.w3.org/2000/svg"><rect width="400" height="400" fill="white" /><path d="m362.1 8.8c1.1.8 2.1 1.6 3.1 2.4l-1 1.1c-1.3-1.1-2.3-2-3-2.5zm1.9 4.8c.5.2.9.4 1.4.5-.6 2.3-1.3 4.5-1.9 6.8l-1.5-.5c.8-2.1 1.4-4.3 2-6.8zm-1-9.4c1.3.9 2.4 1.8 3.4 2.5l-1 1.1c-1.4-1.2-2.4-2.1-3.2-2.6zm3.7 2.2v-1.4h10.3v1.2c-.5 3.6-1.8 6.8-4 9.4 1.5 1.6 3.4 2.8 5.7 3.8-.3.4-.7.8-1.1 1.4-2.3-1.1-4.1-2.5-5.6-4.1-1.6 1.6-3.6 3.1-5.9 4.3-.3-.5-.7-.9-1-1.3 2.4-1.1 4.4-2.5 6-4.1-1.9-2.5-3-5.6-3.3-9.3h-1.1zm8.8 0h-6.4c.3 3.3 1.3 6 3 8.2 2-2.3 3.1-5.1 3.4-8.2z" fill="#fbfafc"/><path d="m385.3 3.8h1.3v2.2h2.8v-2.2h1.3v2.2h4.1v9.1h1.7v1.3h-16.9v-1.3h1.7v-9.1h4.1v-2.2zm.4 13.1.7 1.2c-1.8.9-3.8 1.9-6 2.9-.2-.4-.5-.8-.8-1.3 2.3-1 4.3-1.9 6.1-2.8zm-3.1-6.4h2.8v-3.2h-2.8zm0 4.6h2.8v-3.3h-2.8zm4-4.6h2.8v-3.2h-2.8zm0 4.6h2.8v-3.3h-2.8zm3.7 1.9c2.1.9 4.1 1.8 6.1 2.7l-.7 1.3c-2.2-1.1-4.2-2-6.1-2.9zm3.2-9.7h-2.8v3.2h2.8zm-2.8 7.8h2.8v-3.3h-2.8z" fill="#fbfafc"/><path d="m175.48 201.54c-7.88-2.99-15.1-2.7-21.99-.76-10.19 2.88-20.09 6.78-30.2 9.99-9.57 3.04-19.14 6.23-28.91 8.49-10.31 2.39-20.38 1.13-29.81-4.35-11.57-6.73-23.94-12.16-34.17-21.09-4.42-3.85-7.38-8.45-7.66-14.38-.09-1.84.32-5 1.27-5.33 2.56-.88 6.35-1.78 8.23-.54 18.8 12.47 39.61 13.62 61.01 11.46 21.5-2.16 42.75-5.86 63.45-12.25 3.52-1.09 7-2.33 10.45-3.61 3.37-1.25 5.18-4.55 4.26-8.05-1.35-5.12-3.15-10.03-7.78-13.29-4.47-3.14-8.63-6.87-13.43-9.35-3.05-1.58-7.03-1.8-10.61-1.85-8.7-.11-17.41.31-26.11.31-1.71 0-3.53-.72-5.1-1.49-20.33-9.99-39.57-21.77-57.69-35.37-1.4-1.05-2.6-2.38-4.49-4.13 4.56-.53 8.39-.97 12.23-1.41 10.78-1.24 21.66-1.95 32.31-3.89 7.38-1.35 14.58-4.07 21.63-6.77 18.44-7.04 35.4-17.1 52.83-26.21 15.4-8.05 31.61-14.23 48.39-18.62 4.66-1.22 10.08-.59 14.95.28 6.98 1.24 14.04 2.84 20.6 5.46 7.91 3.16 11.35 10.24 11.95 18.44 1.01 13.92-2.15 26.91-8.3 39.49-4.07 8.32-9.87 14.46-17.51 19.28-4.82 3.04-9.59 6.19-14.33 9.36-.87.58-1.9 1.41-2.18 2.33-1.28 4.28-3.8 6.41-8.34 6.67-5.65.32-7.09 2.21-6.33 8.61 16.04-2.06 32.11-3.86 47.81-8.04 28.08-7.48 54.88-18.18 80.99-30.89 7.34-3.57 15.54-5.59 23.53-7.55 7.6-1.86 12.33.72 14.35 6.38.82 2.28.56 3.84-1.55 5.44-12.66 9.59-26.77 16.6-40.95 23.51-29.81 14.53-60.68 26.28-92.5 35.61-8.87 2.6-17.32 6.2-24.07 12.75-1.54 1.49-2.83 3.78-3.18 5.87-2.16 13.13-4 26.31-5.99 39.47-.22 1.42-.55 2.88-1.14 4.18-13.07 28.82-26.41 57.49-42.88 84.59-9.65 15.88-21.52 29.39-38.12 38.27-.39.21-.79.42-1.17.65-4.4 2.71-8.83 3.57-13.91 1.45-4.41-1.84-9.13-3-13.78-4.2-2.32-.6-2.9-1.63-3.24-4.05-1.02-7.39 1.43-11.45 8.47-15.09 16.34-8.46 28.22-22.22 38.47-37.23 15.47-22.66 28.11-46.77 35.31-73.39 2.23-8.14 3.3-16.61 4.93-25.16zm-24.62-85.94c1.53.96 2.61 2.22 3.63 2.18 6.5-.25 12.17 1.99 17.91 4.73 4.36 2.08 9.19 3.27 13.9 4.5 1.24.32 3.1-.33 4.23-1.15 11.11-8.11 22.14-16.35 33.17-24.58.79-.59 1.69-1.27 2.08-2.11 2.3-4.95 4.9-9.81 6.57-14.98 2.39-7.4-3-15.37-10.73-16.64-.68-.11-1.51.22-2.17.56-24.7 12.51-47.06 28.39-68.59 47.49z" fill="#000001"/></svg>