<svg viewBox="0 0 400 400" xmlns="http://www.w3.org/2000/svg"><rect width="400" height="400" fill="white" /><g fill="#010101"><path d="m136.85 263.44c12.25-2.89 20.4-11.77 29.05-19.75 7.89-7.28 15.86-14.57 22.94-22.6 10.64-12.06 12.1-26.72 9.62-42-.13-.8-1.61-1.57-2.62-2-9.55-4.05-19.3-7.66-28.66-12.11-11.69-5.56-17.21-15.18-16.37-28.23.08-1.32.35-2.66.76-3.91 2.43-7.44 4.83-14.88 7.44-22.25.91-2.57.89-4.75-.2-7.31-1.65-3.89-3.32-7.93-3.94-12.06-.7-4.66-.92-9.61-.14-14.22 1.59-9.33 1.21-18.18-3.04-26.79-3.49-7.07-6.69-14.28-9.58-21.99 1.64.81 3.7 1.23 4.84 2.49 4.47 4.98 9 9.97 12.86 15.42 5.62 7.92 5.17 17.15 4.19 26.24-.6 5.55-2.07 11.01-2.53 16.56-.31 3.72.09 7.61.84 11.28 1.02 5.01 3.97 6.8 8.99 6.08 8.08-1.15 16.13-2.54 24.23-3.5 3.49-.42 4.33-2.99 5.9-5.45-4.95-4.37-8.77-9.48-9.69-16.06-.57-4.06-.99-8.33-.36-12.33 2.34-14.79-2.28-27.57-10.44-39.5-.78-1.15-1.58-2.28-2.38-3.43 14.89 3.25 23.29 12.89 27.24 26.92 1.24 4.4.6 8.56-1.62 12.61-5.29 9.63-4.77 19.03 1.44 28.11 1.7 2.49 3.52 4.93 5.02 7.54 1.19 2.07 2.65 2.52 4.94 2.19 6.98-1.01 13.96-1.66 20.92.56 12.77 4.08 19.07 13.39 21.19 26.03 1.43 8.5.06 16.81-4.89 23.74-3 4.21-7.53 7.62-11.97 10.43-5.44 3.45-11.53 5.87-17.32 8.78-11.73 5.9-14.92 14.1-10.38 26.51.31.84.7 1.66.91 2.52 3.26 13.93 12.93 22.74 24.08 30.47 15.62 10.84 32.73 18.28 51.11 22.91 1.05.26 2.08.59 3.11.89-.02.35-.04.71-.05 1.06-10.75.09-21.54.75-32.23.02-5.12-.35-10.25-2.94-15.04-5.21-5.03-2.39-9.81-5.4-14.42-8.54-5.24-3.57-10.15-7.62-15.25-11.4-1.52-1.13-3.11-2.22-4.81-3.02-6.74-3.18-8.49-2.9-13.73 2.25-16.53 16.24-35.95 27.13-58.7 31.89-.4.08-.83.1-1.26.16zm38.09-106.41c3.76-3.83 7.41-7.59 11.11-11.31 6.58-6.61 6.73-7.92 1.2-15.53-1.44-1.97-2.95-4.06-4.87-5.47-2.65-1.94-5.66-3.45-8.68-4.78-.69-.31-2.56.57-2.98 1.38-6.67 12.57-5.61 24.4 4.22 35.71zm51.53 1.78c-8.75-4.08-17.02-7.96-25.32-11.78-.64-.29-1.62-.47-2.18-.19-6.51 3.32-12.96 6.74-19.49 10.17 6.22 8.09 34.57 9.13 46.99 1.8zm6.3-5.16c10.15-2.76 10.57-10.8 10.96-18.71.3-6.01-2.98-10.19-7.17-13.32-5.36 5.39-10.46 10.5-15.72 15.78 3.86 5.27 7.94 10.83 11.93 16.25zm-47.01-35.8c15.14 11.2 33.24 11.1 39.84-.02-8.27-1.37-16.51-2.77-24.77-4.07-1.71-.27-3.64-.61-5.2-.1-3.28 1.06-6.37 2.66-9.87 4.19z"/><path d="m269.54 374.37c-5.13-1.83-10.28-3.59-15.36-5.56-1.05-.41-1.87-1.54-2.66-2.46-13.62-15.91-21.57-34.2-24.1-55.08-1.48-12.28-5.33-24.01-11.86-34.65-.78-1.27-2.61-2.45-4.08-2.62-6.33-.74-12.71-1-19.05-1.63-2.18-.22-2.7 1.06-3.24 2.57-6.28 17.68-12.75 35.3-18.77 53.07-3.85 11.37-7.58 22.72-15.38 32.16-5.51 6.67-12.28 11.3-22.19 13 .96-2.55 1.17-4.91 2.44-6.23 16.17-16.85 24.19-37.31 26.99-60.11 1.4-11.38 3.03-22.64 9.48-32.53 7.05-10.81 17.35-16.46 29.74-18.82.64-.12 1.4-.21 1.99 0 9.14 3.23 17.83 7.19 24.42 14.7 4.22 4.81 5.4 10.74 6.19 16.73 1.23 9.31 2.37 18.65 3.11 28.01.83 10.55 4.36 20.19 10.07 28.81 6.23 9.4 13.4 18.17 20.17 27.21.73.98 1.56 1.88 2.34 2.82-.07.2-.16.41-.25.61z"/><path d="m299.79 231.43c-14.25 5.39-27.81 3.88-41.63.21-10.34-2.74-16.73-9.44-21.49-18.21-4.36-8.03-1.64-20.48 4.91-26.88 8.23-8.05 16.17-16.4 24.13-24.7 10.72-11.18 12.93-24.84 11.18-39.57-.31-2.65-.77-5.28-1.31-8.93 4.14 3.6 6.69 7.19 8.45 11.41 3.52 8.41 2.64 17.13 1.65 25.81-.39 3.43-1.03 6.86-1.83 10.22-.92 3.88-2.06 7.56-4.93 10.78-5.57 6.25-4.88 14.13 1.19 19.95 5.65 5.43 11.28 10.87 16.99 16.23.78.73 1.96 1.04 2.55 1.91-17-.98-30.52-8.9-42.79-19.35-6.12 5.59-8.15 11.99-6.77 19.46.2 1.06 1.14 2.12 1.98 2.9 10.12 9.36 22.54 13.83 35.73 16.56 3.82.79 7.65 1.41 11.99 2.2z"/><path d="m113.15 249.52c1.73-.97 3.46-1.95 5.2-2.91 6.86-3.75 13.92-7.19 20.56-11.3 11.72-7.25 19.79-17.56 23.68-30.88 1.61-5.5 1.2-6.05-3.48-9.36-2.1-1.48-4.2-2.95-5.77-4.06-9.13 7.05-17.77 14.3-26.99 20.69-9.33 6.47-19.91 10.44-31.28 12.26 5.32-2.63 10.74-5.1 15.92-7.98 2.23-1.24 4.43-3.02 5.87-5.1 6.3-9.1 12.38-18.36 18.35-27.67.82-1.28 1.18-3.36.8-4.83-2.09-8.23-4.01-16.54-6.85-24.52-3.92-11.04-2.23-21.33 2.58-31.49 1.32-2.78 2.88-5.45 5.06-8.02v3.15c0 11.86-.05 23.72.06 35.59.02 1.68.51 3.55 1.35 5.01 6.48 11.27 15.04 20.22 27.78 24.43 7.34 2.43 10.38 7.86 10.52 15.37.15 8.11-2.16 15.67-4.84 23.16-.35.98-1.28 1.8-2.04 2.59-11.98 12.57-26.91 19.7-43.57 23.64-4.22 1-8.47 1.84-12.71 2.76-.06-.17-.13-.35-.2-.53z"/><path d="m226.09 33.29c11.03.5 16.92 6.68 16.17 18.17-.64 9.7-1.89 19.35-2.62 29.04-.14 1.84.49 3.97 1.41 5.6 3.77 6.68 7.79 13.21 12.02 20.32-8.47-2.03-16.01-3.88-19.7-12.6-2.6-6.15-4.76-12.31-5.15-18.95-.81-13.79-1.42-27.61-2.13-41.58z"/></g><path d="m6.4 11.7c-1-.8-1.9-1.6-2.9-2.3l.6-.7c.9.7 1.9 1.4 2.9 2.2zm-2.1 8.3c.7-2.1 1.4-4.2 2-6.4.2.1.6.3 1 .4-.7 2.3-1.3 4.4-1.9 6.4zm3-12.8c-1.1-.9-2.1-1.7-2.9-2.4l.6-.7c1 .8 2 1.5 3 2.4zm1.4-1.3v-.9h10.2v.9c-.9 4.2-2.3 7.3-4.1 9.4 1.3 1.4 3.2 2.7 5.7 4-.2.2-.4.5-.7.9-2.5-1.4-4.4-2.7-5.7-4.2-1.4 1.5-3.5 3-6.1 4.4 0 0 0 0-.1-.1-.3-.4-.5-.7-.7-.8 2.7-1.3 4.7-2.8 6.2-4.2-1.8-2.2-3-5.3-3.7-9.4zm9.2 0h-7.1c.6 3.8 1.7 6.7 3.4 8.7 1.7-2 2.9-4.8 3.7-8.7z" fill="#fbfafa"/><path d="m31.6 3.6h.9v2.3h4.1v9.1h1.7v.9h-16.6v-.9h1.7v-9.1h4.1v-2.3h.9v2.3h3.1v-2.3zm-4 13.3.6.8c-1.9.9-3.8 1.9-5.8 2.8-.2-.3-.3-.6-.5-.9 2-.9 3.9-1.8 5.7-2.7zm-3.2-10.1v3.7h3.1v-3.7zm0 4.5v3.7h3.1v-3.7zm4.1-4.5v3.7h3.1v-3.7zm0 4.5v3.7h3.1v-3.7zm9.1 9.1c-2.1-1.1-4.1-2-5.8-2.7l.5-.8c2.2.9 4.1 1.8 5.8 2.6zm-1.9-13.6h-3.1v3.7h3.1zm-3.2 4.5v3.7h3.1v-3.7z" fill="#fbfafa"/></svg>