<svg enable-background="new 0 0 400 400" viewBox="0 0 400 400" xmlns="http://www.w3.org/2000/svg"><path d="m109.59 203.51c5.65-2.16 10.77-4.83 16.67-1.25 5.34 3.23 11.04 3.02 17.11 1.66 9.69-2.18 19.55-3.59 29.74-5.4-.29-3.47-.46-6.78-.92-10.04-.12-.82-1.02-1.8-1.82-2.2-4.65-2.36-9.24-4.96-14.12-6.73-7.96-2.88-15.33-6.35-19.75-14.04-1.33-2.31-2.09-4.98-3.53-7.21-2.52-3.9-5.21-7.7-8.13-11.31-1.2-1.48-2.24-2.58-1.56-4.64 1.24-3.78.5-7.41-.87-11.08-1.84-4.92-3.31-9.96-4.5-15.69 2.11 1.16 4.29 2.21 6.32 3.51 3.85 2.45 7.52 5.22 11.49 7.45 1.03.58 3.44.17 4.32-.7 20.15-19.77 40.12-39.73 55.44-63.69 2.73-4.28 4.61-9.1 7.24-14.39 2.76 3.1 5.6 5.78 7.81 8.91 2.53 3.58 1.92 7.33-1.08 11.12-3.12 3.95-3.08 4.91 1.28 7.42 8.04 4.62 16.17 9.08 24.31 13.54 6.76 3.7 13.57 7.32 20.39 10.93 1.47.78 3 1.53 4.59 1.98 4.68 1.31 7.72.22 9.6-4.14 2.02-4.69 3.39-9.66 5.05-14.52 1.49-4.37 2.97-8.74 4.74-13.95 3.54 4.21 4.31 8.08 4.44 12.07.33 9.69-2.94 18.71-5.51 27.85-1.71 6.08-4.57 11.45-8.73 16.38-4.97 5.88-9.33 12.31-13.56 18.75-5.48 8.35-12.62 14.76-21.18 19.7-9.4 5.42-18.74 10.94-28.3 16.06-3.36 1.8-7.23 2.8-10.98 3.69-3.79.9-7.69 1.26-11.08 4.14 2.91 2.73 5.53 5.45 8.46 7.79.96.77 2.7.82 4.08.79 8.04-.14 16.13-1.03 24.11-.46 9.4.66 18.65 2.89 26.1 9.31 6.44 5.55 7.91 13.51 9.64 21.29 1.28 5.78 2.54 11.56 3.92 17.31 5.31 22.07 5.91 44.27 2.11 66.62-.49 2.91-.71 3.01-5.52 4.35-.34-1.58-.84-3.14-.97-4.74-.19-2.45-.31-4.94-.11-7.38.95-11.46-.09-22.69-2.68-33.92-2.44-10.56-3.05-21.62-6.26-31.89-2.89-9.24-8.07-17.8-12.56-26.49-1.3-2.51-4.03-3.71-7.14-3.56-8.58.4-17.18.62-25.75 1.14-.89.05-2.29 1.48-2.44 2.43-.68 4.3-1.4 8.66-1.34 12.99.11 7.83.68 15.65 1.25 23.46.34 4.73 1.35 6.03 6.21 6.62 4.72.57 9.55.48 14.33.36 5.01-.13 10-.93 15-.9 3.45.02 4.91 1.42 6.63 4.44-6.12 5.87-13.91 7.64-21.92 8.96-3.3.55-6.63 1.17-9.8 2.2-7.72 2.51-11.1 6.96-10.31 15.03 2.44 24.82.63 49.68 1.19 74.51.09 3.91.12 7.84-.2 11.73-.35 4.28-1.81 5.46-5.95 5.25-.65-7.05-1.32-14.15-1.94-21.25-1.52-17.28-3.09-34.56-4.49-51.85-.4-4.9 0-9.87-.48-14.76-.33-3.38-1.32-6.74-2.41-9.97-.72-2.14-2.48-2.79-4.87-2.01-4.88 1.61-9.85 2.95-14.78 4.41-.53.16-1.25.15-1.57.5-3.24 3.5-6.93 2.52-10.48.89-1.58-.73-3.01-2.07-4.14-3.44-1.2-1.44-1.75-3.43-2.97-4.84-1.99-2.28-4.29-4.28-6.84-6.75-3.67 7.1-4.23 13.87-4.76 20.64-.51 6.57-.65 13.2-1.52 19.72-.69 5.16-2.74 9.9-8.27 13.39-.63-4.93-1.61-9.37-1.68-13.83-.11-6.48.9-12.99.59-19.44-.68-13.95-1.87-27.88-2.92-41.81-.27-3.57-.96-7.11-1.12-10.68-.33-7.65-2.67-14.65-6.17-21.37-1.53-2.85-2.75-5.84-4.18-8.97zm26.79 37.86c.62 3.9 1.21 8.2 2.03 12.46.45 2.34 1.84 3.92 4.46 4.27 4.3.57 8.57 1.81 12.88 1.91 7.84.18 15.61-.64 22.96-3.86 3.27-1.44 4.81-3.33 4.19-7.18-1.08-6.73-1.39-13.59-2.58-20.3-.85-4.8-2.42-9.5-4.12-14.08-.46-1.24-2.75-2.84-3.88-2.62-7.09 1.35-14.39 2.49-19.51 8.49-2.28 2.67-4.85 3.36-8.31 1.74-3.2-1.5-5.31-.19-5.94 3.41-.88 5.04-1.42 10.16-2.18 15.76zm63-159.31c-4.44 5.58-9.03 11.07-13.27 16.82-2.07 2.8-.88 6.14 2.43 7.86 4.85 2.52 9.7 5.07 14.7 7.28 12.36 5.47 24.84 10.67 37.19 16.19 2.73 1.22 4.96.82 7.27-.52 8.41-4.86 9.39-12.53 2.47-19.24-.88-.85-1.79-1.76-2.86-2.32-3.84-2.03-7.63-4.26-11.67-5.8-12.79-4.87-25.31-10.15-35.46-19.74-.08-.08-.18-.13-.8-.53zm-2.92 82.84c-3.03-5.17-7.75-7.8-12.96-9.71-10.58-3.87-21.39-7.23-30.22-14.68-.17-.14-.38-.24-.56-.36-4.23-2.97-8.13-3.47-12.53.24-3.67 3.09-5.49 7.22-2.64 11.17 3.04 4.22 6.49 8.44 10.61 11.5 5.91 4.4 12.8 7.18 20.3 8.12 9.99 1.26 19.67 1.42 28-6.28zm-38.27-36.8c6.14 4.8 12.76 7.23 19.72 9.17 6.53 1.82 13.26 3.57 19.17 6.72 5.59 2.98 11.4 4.97 17.26 7.08 4.61 1.66 8.52.67 12.25-2.16 3.48-2.64 4.07-5.55.97-8.64-2.15-2.14-4.89-3.99-7.72-5.07-4.99-1.9-10.23-3.17-15.39-4.6-8.7-2.41-16.96-5.52-23.39-12.35-1.6-1.7-4.1-2.64-6.33-3.6-.78-.33-2.3 0-2.96.6-4.53 4.14-8.94 8.42-13.58 12.85z" fill="#010104"/><path d="m158.71 24.95c5.03 2.25 9.8 4.32 14.51 6.51 2.66 1.24 3.92 3.68 3.22 6.37-1.1 4.27-2.01 8.9-4.37 12.47-9.65 14.55-20.43 28.22-33.44 40.02-3.46 3.14-6.37 6.89-9.61 10.28-3.76 3.93-8.29 6.35-13.82 6.75-2.91.21-4.06-.73-2.79-3.34 1.56-3.23 3.7-6.35 6.19-8.94 11.4-11.88 22.46-24.05 30.96-38.21 3.18-5.3 5.7-11.16 7.53-17.07 1.34-4.37 1.07-9.23 1.62-14.84z" fill="#010104"/><g fill="#fcfbfa"><path d="m385.2 377.6.6-.7c.6.4 1.3.9 1.9 1.5l-.6.7c-.8-.5-1.4-1-1.9-1.5zm.3 7.1c.6-1.4 1.1-2.9 1.5-4.5.3.1.6.3.9.4-.5 1.4-1 2.9-1.5 4.4zm.2-10.1.6-.6c.7.5 1.3 1.1 1.9 1.6l-.7.7c-.6-.6-1.2-1.2-1.8-1.7zm8.4-.8h.8v.9h1.8v.7h-1.8v1.8h-.8v-.3h-1.2v.9h3.3v2.6h-.8v-.4h-2.5c0 .3 0 .6-.1.8h3.4v.7h-3.5c0 .3-.1.6-.1.8h4v.7h-3.5c.7.9 1.9 1.3 3.6 1.5-.2.2-.4.5-.6.9-1.9-.3-3.2-1.1-3.8-2.3-.5 1.1-1.8 2-3.9 2.4-.2-.3-.4-.5-.6-.8 1.9-.4 3.1-.9 3.6-1.7h-3.2v-.7h3.5c.1-.2.1-.5.2-.8h-3.3v-.7h3.4c0-.2 0-.5 0-.8h-2.4v.3h-.8v-2.6h3.3v-.9h-1.2v.3h-.8v-1.8h-1.8v-.7h1.8v-.9h.8v.9h3.2zm-4.4 5.5h2.4c0-.3 0-.6 0-.9h-2.4zm1.2-3.1h3.2v-.8h-3.2zm4.4 2.2h-2.4v.9h2.5v-.9z"/><path d="m389.2 385.8h.9v1.5h1.9v-1.5h.9v1.5h2.7v6h1.1v.9h-11.3v-.9h1.1v-6h2.7zm.2 8.7.5.8c-1.2.6-2.5 1.3-4 1.9-.2-.3-.3-.6-.6-.8 1.6-.6 3-1.3 4.1-1.9zm-2-4.3h1.9v-2.1h-1.9zm0 3.1h1.9v-2.2h-1.9zm2.7-3.1h1.9v-2.1h-1.9zm0 3.1h1.9v-2.2h-1.9zm2.4 1.3c1.4.6 2.7 1.2 4.1 1.8l-.5.9c-1.5-.7-2.8-1.4-4.1-1.9zm2.2-6.5h-1.9v2.1h1.9zm-1.9 5.2h1.9v-2.2h-1.9z"/></g></svg>