<svg enable-background="new 0 0 400 400" viewBox="0 0 400 400" xmlns="http://www.w3.org/2000/svg"><path d="m131.84 297.81c3.78 0 6.43-.02 9.09 0 12.69.14 23.6-4.95 33.94-11.63 2.58-1.67 3.37-4.01 2.56-7.25-1.37-5.41-2.17-10.96-3.27-16.44-1.16-5.76-3.89-7.16-9.05-4.74-4.25 2-8.55 3.88-12.74 6-2.57 1.3-4.89 3.08-7.46 4.39-2.86 1.46-5.75 3.06-8.82 3.82-5.95 1.47-10.28 4.05-11.92 10.56-2.42 9.58-7.41 17.92-13.98 25.31-5.02 5.64-11.04 9.31-18.89 9.76-.74-3.42-.11-6.02 2.28-8.86 10.04-11.92 16.03-25.45 14.98-41.47-.16-2.41-1.04-4.17-2.98-5.66-3.56-2.71-7.15-5.43-10.37-8.51-2.49-2.38-4.44-5.31-7.12-8.59 6.68-1.21 11.83-.12 16.89 1.77 6.59 2.46 13.15 5 19.77 7.37 1.3.47 2.96.72 4.24.34 18.1-5.32 36.3-10.37 54.2-16.31 10.91-3.62 16.85-14.58 15.8-26.95-4.79 1.13-9.62 1.91-14.21 3.43-12.19 4.04-24.4 8.1-36.37 12.74-6.66 2.59-11.88.94-17.08-3.04-2.47-1.89-4.96-3.88-7.74-5.22-4.51-2.18-7.35-1.23-10.74 2.39-5.33 5.69-11.34 10.54-18.81 13.09-2.84.97-5.99 1.03-9 1.51-.56-5.09.71-8.65 3.58-12.08 6.89-8.22 13.68-16.55 19.96-25.23 4.52-6.24 8.22-13.09 9-21.05.03-.33.12-.67.13-1 .03-9.11.11-10.68-9.5-13.06-2.63-.65-4.98-2.46-7.24-4.29 8.74-1.47 16.41 3.34 25.32 3.66-1.18-4.82-2.47-9.19-3.26-13.64-.85-4.8-1.62-9.69-1.71-14.55-.16-8.5.23-17 .39-25.51.06-3.09-3.04-7.13-6-6.74-3.16.42-6.38 1.65-9.16 3.25-2.76 1.59-4.96 4.13-7.51 6.12-1.13.88-2.45 1.73-3.81 2.05-6.32 1.48-10.59 1.36-9.92-6.95.35-4.34 1.47-8.84 3.24-12.82 5.53-12.37 11.27-24.71 13.37-38.15 1.09-6.94.19-14.19.19-21.65 7.74-1.44 14.96.55 20.96 5.19 2.03 1.57 2.73 6.15 2.43 9.2-.82 8.51-5.24 15.78-9.33 23.12-2.64 4.74-4.89 9.68-7.61 15.12 8.93 1.02 17.11 2.61 25.28 2.6 3.82-.01 8.08-2.52 11.36-4.94 9.08-6.71 17.79-13.93 26.57-21.05 7.63-6.19 12.22-14.77 17.41-22.84 4.1-6.38 4.24-7.32 3.5-14.46 11.27-1.37 22.18 11.04 19.23 21.9-.61 2.26-1.35 4.49-2 6.75-1.63 5.66-.36 8.78 4.62 11.84 9.32 5.72 19.44 9.46 29.95 12.33 8.29 2.27 16.5 4.87 24.74 7.32 1.15.34 2.32.65 3.38.94 5.07-5.76-2.06-7.89-3.16-12.49 1.28.3 2.5.34 3.44.86 3.12 1.73 6.09 3.73 9.21 5.47 8.85 4.95 12.64 12.69 11.06 22.74-1.26 8-4.09 15.09-11.14 19.82-9.82 6.59-19.39 13.61-29.55 19.65-9.01 5.35-18.69 9.58-28.03 14.38-3.56 1.83-7 3.88-10.82 6.01 3.92 7.34 6.72 14.84 13.48 19.65.78.56 2.05.81 3.02.68 13.19-1.75 26.34-3.81 39.56-5.28 4.23-.47 8.65.34 12.92.99 2.91.44 4.36 2.53 3.79 6.07-6.29 1.31-12.77 2.4-19.12 4.04-13.07 3.38-26.08 7.03-39.09 10.63-4.33 1.2-7.2 3.83-8.95 8.19-2.31 5.76-5.3 11.25-8.28 17.44 8.28-.81 15.91-1.69 23.57-2.27 9.48-.72 19.01-1.32 28.3 1.48 2.54.76 5.05 1.86 7.3 3.25 5.61 3.47 6.58 6.93 5.12 13.36-3.8 16.69 1.15 31.83 9.24 46.1 3.07 5.43 8.74 8.13 14.58 10.14 5.43 1.87 8.84 5.48 9.49 12.34-2.99.11-5.92.53-8.79.25-2.86-.27-5.69-1.14-8.48-1.93-1.22-.35-2.5-.96-3.41-1.81-10.95-10.4-19.09-22.62-24.67-36.72-4.52-11.42-9.82-22.54-14.74-33.81-1.48-3.4-4.33-3.72-7.3-3.03-5.11 1.2-10.18 2.58-15.18 4.17-12.99 4.14-25.92 8.43-38.87 12.66-3.96 1.3-4.2 2.09-1.5 5.16 2.29 2.61 4.47 5.33 6.95 7.74 2.77 2.68 3.8 5.89 4.06 9.6.48 6.85 1.79 8.33 8.61 8.18 6.24-.14 12.48-.83 18.68-1.59 6.86-.84 13.16.09 18.63 4.59 5.45 4.49 7.08 11.44 4.14 17.84-.4.87-1.1 1.68-1.83 2.32-3.32 2.92-7.25 4.22-12.11 4.27 1.12-3.51 2.15-6.75 3.19-9.98 1.23-3.83-.22-7.01-4.23-7.75-2.87-.53-5.97-.21-8.91.17-4.76.62-9.48 1.55-14.19 2.48-.98.19-2.08.77-2.71 1.52-2.99 3.55-4.72 7.72-4.34 12.36 1.18 14.71-4.93 26.78-13.61 37.86-3.71 4.74-8.04 9.01-11.97 13.59-2.01 2.35-4.04 4.76-5.59 7.41-2.99 5.12-17.94 12.84-24.56 9.03-.65-3.85 1.84-6.11 4.19-8.54 10.2-10.54 19.06-22.11 24.01-36.02 2.4-6.75 3.27-14.08 4.51-21.2.56-3.2-1.17-4.59-4.34-3.62-4.41 1.35-9.18 2.33-11.62 7.04-.3.59-.81 1.07-1.22 1.6-5.27 6.78-12.23 7.2-18.33 1-2.59-2.63-5.36-5.18-7.39-8.22-1.72-2.53-2.44-5.7-3.78-9.06zm43.18-211.59c-.14.47-.28.93-.42 1.4 2.17 1.54 4.15 3.48 6.53 4.54 9.98 4.47 20.12 8.56 30.1 13.01 5.96 2.66 10.78 6.65 13.49 12.88 1.6 3.68 3.72 7.13 5.4 10.79.91 1.98 2.37 2.97 4.21 2.32 3.73-1.32 7.89-2.34 10.85-4.74 7.89-6.4 15.27-13.43 22.77-20.3 1.03-.94 1.75-2.32 2.33-3.63 2.12-4.76.97-6.91-4.23-7.61-5.85-.79-11.84-.85-17.6-2.06-9.59-2.01-19.1-3.33-28.89-1.76-4.82.77-8.24-1.04-10.25-5.56-1.29-2.91-1.48-6.31-2.73-9.25-1.17-2.77-2.75-5.54-4.77-7.74-1.69-1.85-3.87-1.74-6.04.46-6.32 6.41-12.01 13.63-20.75 17.25zm-35.07 33.45c-2.42 6.6-5.03 12.52-6.74 18.69-1.74 6.25 1.52 12.41 7.36 15.27 2.59 1.27 5.26 2.52 8.03 3.27 12.88 3.47 25.21 3.11 36.06-5.91 3.21-2.66 3.41-5.94.09-8.36-2.46-1.79-5.37-3.3-8.31-4.06-6.9-1.78-13.23-4.56-19.2-8.42-5.32-3.42-10.83-6.58-17.29-10.48zm2.96-17c.77 3.23 3.06 5.16 5.95 6.32 3.51 1.42 7.16 2.49 10.71 3.8 14.87 5.49 26.68 15.35 37.36 26.64 4.38 4.63 9.07 5.34 14.51 3.07 1.32-.55 2.73-1.98 3.18-3.31 2.02-5.99-1.08-13.3-7.58-17.49-13.86-8.93-28.71-15.85-44.13-21.69-7.28-2.76-13.65-2.13-20 2.66zm-8.09 109.58c13.26-.64 25.35-4.1 36.28-11.17 2.21-1.43 2.4-3.6.62-5.74-2.93-3.52-5.8-7.08-8.76-10.57-5.39-6.35-11.8-10.82-20.47-11.36-1.98-.12-3.16.35-3.78 2.26-1.28 3.91-2.94 7.72-3.89 11.71-1.21 5.09-2.98 9.76-6.47 13.76-1.45 1.67-2.71 3.58-3.7 5.55-1.07 2.15-.65 3.95 2.17 4.37 2.77.41 5.52.83 8 1.19zm42.59-32.35c4.18 4.65 8.18 9.13 12.22 13.57.34.37.91.63 1.42.72 10.21 1.78 17.88-5.52 16.22-15.41-.97-5.78-7.55-9.99-12.53-7.69-5.76 2.65-11.32 5.73-17.33 8.81z" fill="#010104"/><g fill="#fcfbfa"><path d="m385.2 377.6.6-.7c.6.4 1.3.9 1.9 1.5l-.6.7c-.8-.5-1.4-1-1.9-1.5zm.3 7.1c.6-1.4 1.1-2.9 1.5-4.5.3.1.6.3.9.4-.5 1.4-1 2.9-1.5 4.4zm.2-10.1.6-.6c.7.5 1.3 1.1 1.9 1.6l-.7.7c-.6-.6-1.2-1.2-1.8-1.7zm8.4-.8h.8v.9h1.8v.7h-1.8v1.8h-.8v-.3h-1.2v.9h3.3v2.6h-.8v-.4h-2.5c0 .3 0 .6-.1.8h3.4v.7h-3.5c0 .3-.1.6-.1.8h4v.7h-3.5c.7.9 1.9 1.3 3.6 1.5-.2.2-.4.5-.6.9-1.9-.3-3.2-1.1-3.8-2.3-.5 1.1-1.8 2-3.9 2.4-.2-.3-.4-.5-.6-.8 1.9-.4 3.1-.9 3.6-1.7h-3.2v-.7h3.5c.1-.2.1-.5.2-.8h-3.3v-.7h3.4c0-.2 0-.5 0-.8h-2.4v.3h-.8v-2.6h3.3v-.9h-1.2v.3h-.8v-1.8h-1.8v-.7h1.8v-.9h.8v.9h3.2zm-4.4 5.5h2.4c0-.3 0-.6 0-.9h-2.4zm1.2-3.1h3.2v-.8h-3.2zm4.4 2.2h-2.4v.9h2.5v-.9z"/><path d="m389.2 385.8h.9v1.5h1.9v-1.5h.9v1.5h2.7v6h1.1v.9h-11.3v-.9h1.1v-6h2.7zm.2 8.7.5.8c-1.2.6-2.5 1.3-4 1.9-.2-.3-.3-.6-.6-.8 1.6-.6 3-1.3 4.1-1.9zm-2-4.3h1.9v-2.1h-1.9zm0 3.1h1.9v-2.2h-1.9zm2.7-3.1h1.9v-2.1h-1.9zm0 3.1h1.9v-2.2h-1.9zm2.4 1.3c1.4.6 2.7 1.2 4.1 1.8l-.5.9c-1.5-.7-2.8-1.4-4.1-1.9zm2.2-6.5h-1.9v2.1h1.9zm-1.9 5.2h1.9v-2.2h-1.9z"/></g></svg>