<svg enable-background="new 0 0 400 400" viewBox="0 0 400 400" xmlns="http://www.w3.org/2000/svg"><path d="m28.45 303.18c2.47-.26 4.38-.76 6.22-.6 6.79.61 12.47-1.77 17.48-6.07 3.95-3.39 8.92-4.18 13.69-4.98 23.45-3.97 45.23-13.03 67.17-21.64 3.19-1.25 6.39-2.47 10.27-3.97-17.69-6.18-32.95-15.2-47.46-25.54-15.32-10.92-30.54-22.01-42.24-37.07-7.82-10.06-13.46-21.1-14.61-34.04-.11-1.23-.18-2.46-.24-3.68-.04-.77-.01-1.54-.01-2.77 6.67 1.57 12.94 1.99 18.43 7.05 10.69 9.84 20.42 20.45 28.83 32.2 5.18 7.24 11.6 9.17 19.82 7.5 5.96-1.21 10.76-3.61 14.72-8.77 8.1-10.55 17.13-20.39 25.54-30.71 7.27-8.92 11.79-18.92 10.96-30.84-.16-2.27-.99-3.62-2.81-4.86-12.41-8.41-24.78-16.88-37.1-25.41-1.51-1.05-3-2.39-3.97-3.94-14.08-22.58-28.09-45.21-42.12-67.84-.52-.84-.97-1.71-1.79-3.18 2.34-.48 4.49-1.58 6.31-1.19 5.06 1.1 10.14 2.29 13.46 7.1 12.48 18.11 28.12 32.9 46.59 44.89 12.29 7.98 24.11 16.67 36.14 25.04 1.09.76 2.19 1.5 3.62 2.48 1.88-4.11 3.66-8 5.69-12.43-.05-.04-.83-.57-1.63-1.13.45-.38.61-.62.74-.61 4.16.23 7.39-1.82 9.18-5.15 3-5.57 6.07-11.28 7.79-17.31 3.35-11.8 5.84-23.85 8.57-35.83.54-2.37.88-4.85-2.24-6.16-.57-.24-.94-1.9-.76-2.78.4-1.94 1.2-3.81 1.96-6.07 13.15 4.73 26.07 9.38 35.65 19.97 6.68 7.38 6.69 16.28 4.89 25.33-2.49 12.54-7.95 23.93-14.23 34.94-5.59 9.8-11.34 19.51-17.14 29.46.89.65 1.63 1.28 2.44 1.79 18.62 11.78 37.26 23.53 55.84 35.38 1.88 1.2 3.17 1.08 5.11.07 5.95-3.1 9.63-8.35 13.03-13.69 11.89-18.64 18.61-38.82 17.18-61.24-.42-6.58-2.12-12.75-6.42-18.8 5.24 0 9.85-.02 14.46.04.47.01 1.01.46 1.38.84 7.79 7.86 15.7 15.61 23.28 23.67 5.48 5.83 6.25 13.28 5.27 20.79-.94 7.19-2.46 14.31-3.86 21.43-.27 1.37-1.06 2.7-1.82 3.91-9.26 14.66-18.27 29.48-27.98 43.84-4.1 6.06-9.63 11.16-14.57 16.64-4.62 5.12-9.33 10.17-13.82 16.24 9.64.6 19.26 1.36 28.91 1.74 9.5.38 19.02.29 28.52.58 2.54.08 5.12.61 7.58 1.29 10.1 2.82 14.32 10.09 11.68 20.25-.32 1.25-1.6 2.68-2.8 3.19-7.9 3.4-16.25 3.71-24.71 3.23-7.8-.44-15.61-.94-23.42-.99-2.81-.02-5.7 1.02-8.44 1.91-2.95.97-5.67 2.42-4.61 6.77-3.59-.81-6.79-1.66-10.04-2.19-1.16-.19-2.81-.04-3.63.66-6.83 5.84-14.86 8.12-23.61 9.1-8.1.91-16.25 2.05-24.13 4.08-9.06 2.33-17.87 5.67-26.75 8.71-37.33 12.74-74.7 25.4-111.94 38.41-9.07 3.17-18.08 3.42-27.05 1.25-9.97-2.41-19.69-5.84-29.5-8.89-1.02-.32-2.1-.91-2.79-1.7-2.65-2.98-5.17-6.11-8.16-9.7zm93.61-80.33c3.42 2.44 6.32 5.49 9.87 6.88 10.92 4.25 22.01 8.09 33.17 11.64 9.82 3.13 19.93 5.21 30.3 5.17 2.75-.01 5.78-.81 8.18-2.15 8.6-4.78 16.89-10.1 25.48-14.9 5.07-2.83 9.34-6.33 12.88-10.94 4.09-5.32 8.42-10.47 12.9-15.46 2.07-2.3 2.84-4.36 1.07-7.05-1.41-2.14-2.28-5.41-4.24-6.3-19.76-8.91-39.68-17.46-59.61-25.98-1.02-.43-2.85-.14-3.75.54-3.1 2.38-6.02 5.01-8.89 7.68-12.69 11.82-25.2 23.84-38.05 35.48-5.85 5.31-12.35 9.89-19.31 15.39z" fill="#010104"/><path d="m89.26 357.63c8.17-2.51 15.99-5.2 23.97-7.29 13.37-3.51 26.12-8.48 38.16-15.24 22.4-12.56 46.94-19.55 71.15-27.43 23.84-7.76 48.24-12.8 73.27-13.65 12.12-.41 24.35.95 36.46 2.16 7.84.79 15.67 2.35 23.3 4.34 4.99 1.3 9.28 4.53 9.74 10.31.22 2.76-.68 5.68-1.46 8.42-.19.68-1.9 1.26-2.94 1.31-17.87.75-35.75 1.44-53.63 2.07-4.26.15-8.1 1.03-12.16 2.75-6.19 2.62-12.93 4.62-19.6 5.29-19.81 1.98-37.89 9.07-55.81 17.04-17.66 7.86-35.38 15.58-53.28 22.87-11.23 4.58-23.15 5.64-35.25 4.72-11.33-.85-22.25-3.48-33.05-6.91-3.55-1.13-5.84-2.82-6.93-6.32-.42-1.36-1.14-2.64-1.94-4.44z" fill="#010104"/><g fill="#fcfbfa"><path d="m385.2 377.6.6-.7c.6.4 1.3.9 1.9 1.5l-.6.7c-.8-.5-1.4-1-1.9-1.5zm.3 7.1c.6-1.4 1.1-2.9 1.5-4.5.3.1.6.3.9.4-.5 1.4-1 2.9-1.5 4.4zm.2-10.1.6-.6c.7.5 1.3 1.1 1.9 1.6l-.7.7c-.6-.6-1.2-1.2-1.8-1.7zm8.4-.8h.8v.9h1.8v.7h-1.8v1.8h-.8v-.3h-1.2v.9h3.3v2.6h-.8v-.4h-2.5c0 .3 0 .6-.1.8h3.4v.7h-3.5c0 .3-.1.6-.1.8h4v.7h-3.5c.7.9 1.9 1.3 3.6 1.5-.2.2-.4.5-.6.9-1.9-.3-3.2-1.1-3.8-2.3-.5 1.1-1.8 2-3.9 2.4-.2-.3-.4-.5-.6-.8 1.9-.4 3.1-.9 3.6-1.7h-3.2v-.7h3.5c.1-.2.1-.5.2-.8h-3.3v-.7h3.4c0-.2 0-.5 0-.8h-2.4v.3h-.8v-2.6h3.3v-.9h-1.2v.3h-.8v-1.8h-1.8v-.7h1.8v-.9h.8v.9h3.2zm-4.4 5.5h2.4c0-.3 0-.6 0-.9h-2.4zm1.2-3.1h3.2v-.8h-3.2zm4.4 2.2h-2.4v.9h2.5v-.9z"/><path d="m389.2 385.8h.9v1.5h1.9v-1.5h.9v1.5h2.7v6h1.1v.9h-11.3v-.9h1.1v-6h2.7zm.2 8.7.5.8c-1.2.6-2.5 1.3-4 1.9-.2-.3-.3-.6-.6-.8 1.6-.6 3-1.3 4.1-1.9zm-2-4.3h1.9v-2.1h-1.9zm0 3.1h1.9v-2.2h-1.9zm2.7-3.1h1.9v-2.1h-1.9zm0 3.1h1.9v-2.2h-1.9zm2.4 1.3c1.4.6 2.7 1.2 4.1 1.8l-.5.9c-1.5-.7-2.8-1.4-4.1-1.9zm2.2-6.5h-1.9v2.1h1.9zm-1.9 5.2h1.9v-2.2h-1.9z"/></g></svg>