<svg enable-background="new 0 0 400 400" viewBox="0 0 400 400" xmlns="http://www.w3.org/2000/svg"><path d="m361.2 9.6.8-1c.9.7 1.9 1.4 2.9 2.3l-.9 1.1c-1-1-2-1.8-2.8-2.4zm.5 10.6c.9-2.1 1.6-4.3 2.3-6.7.4.2.8.4 1.3.6-.7 2.1-1.5 4.3-2.2 6.6zm.4-15.2.9-.9c1 .8 2 1.6 2.8 2.4l-1 1c-.9-.9-1.8-1.7-2.7-2.5zm12.5-1.2h1.2v1.4h2.7v1.1h-2.7v2.7h-1.2v-.6h-1.8v1.3h4.9v3.8h-1.2v-.5h-3.7c0 .4-.1.9-.1 1.2h5.1v1h-5.2c0 .5-.1.9-.2 1.2h6v1h-5.2c1.1 1.3 2.9 2 5.5 2.2-.4.4-.7.8-.9 1.3-2.9-.5-4.8-1.6-5.7-3.5h-.1c-.8 1.7-2.7 2.9-5.9 3.6-.2-.4-.6-.8-.9-1.1 2.8-.6 4.6-1.4 5.4-2.5h-4.8v-1h5.3c.1-.3.2-.7.2-1.2h-4.9v-1h5c0-.4 0-.8.1-1.2h-3.5v.5h-1.2v-3.8h4.9v-1.3h-1.8v.5h-1.2v-2.7h-2.7v-1h2.6v-1.4h1.2v1.4h4.7v-1.4zm-6.6 8.3h3.6c0-.4 0-.9 0-1.4h-3.6zm1.9-4.6h4.7v-1.3h-4.7zm6.6 3.2h-3.7v1.4h3.7z" fill="#fbfcfa"/><path d="m385.3 3.8h1.3v2.2h2.8v-2.2h1.3v2.2h4.1v9.1h1.7v1.3h-16.9v-1.3h1.7v-9.1h4.1v-2.2zm.4 13.1.7 1.2c-1.8.9-3.8 1.9-6 2.9-.2-.4-.5-.8-.8-1.3 2.3-1 4.3-1.9 6.1-2.8zm-3.1-6.4h2.8v-3.2h-2.8zm0 4.6h2.8v-3.3h-2.8zm4-4.6h2.8v-3.2h-2.8zm0 4.6h2.8v-3.3h-2.8zm3.7 1.9c2.1.9 4.1 1.8 6.1 2.7l-.7 1.3c-2.2-1.1-4.2-2-6.1-2.9zm3.2-9.7h-2.8v3.2h2.8zm-2.8 7.8h2.8v-3.3h-2.8z" fill="#fbfcfa"/><path d="m191.26 358.58c0-11.2 0-22.02 0-33.14-9.33-2.59-19.06-4.9-29.02-4.8-20.26.21-47.59-15.01-55.31-41.04-4.61-15.54-7.87-31.29-8.96-47.34-1.56-22.87-2.44-45.8-2.92-68.72-.35-16.43.14-32.9.86-49.32.31-6.98 2.06-13.9 3.33-20.82.68-3.73 4.25-2.55 6.59-3.21.68-.19 2.24 1.27 2.76 2.29 4 7.8 5.17 16.26 4.34 24.8-3.46 35.77-2.1 71.57-.78 107.35.61 16.59 3.52 32.85 9.36 48.55 5.87 15.78 17.06 25.67 32.72 30.73 11.77 3.81 23.89 5.63 36.67 4.98.09-1.29.22-2.47.24-3.66.21-13.09.46-26.19.5-39.28 0-1.21-1.04-2.88-2.1-3.54-3.02-1.9-6.2-3.59-9.48-5.01-10.14-4.39-15.85-12.21-18.57-22.71-3.07-11.86-2.83-23.71-.46-35.59 3.28-16.49 7.63-32.68 14.92-47.89 2.94-6.13 6.84-11.79 10.25-17.69 1.23-2.13 2.37-4.31 3.45-6.52 2.98-6.09 2.98-11.37-1.75-17.24-10.67-13.24-20.68-27.01-30.67-40.77-6.29-8.67-13.27-16.57-21.65-23.25-4.93-3.93-8.61-8.74-9.78-15.15-.64-3.48 1.7-5.99 5.26-5.48 4.14.6 7.35 2.8 10.48 5.53 23.23 20.26 41.92 44.33 59.11 69.69.74 1.09 1.56 2.12 2.6 3.51 1.07-1.46 1.99-2.68 2.88-3.92 11.97-16.64 24.08-33.16 39.05-47.31 6.02-5.69 12.12-11.3 18.39-16.7 2.15-1.85 4.86-3.16 7.5-4.27 1.47-.62 4.4-.97 4.8-.31 1.29 2.15 2.38 4.85 2.28 7.29-.07 1.97-1.65 4.14-3.09 5.75-15.76 17.59-31.74 34.98-47.38 52.67-5.39 6.1-10.05 12.87-14.84 19.47-.62.85-.47 2.76.04 3.83 5.35 11.07 11.23 21.9 16.22 33.12 7.58 17.06 13.22 34.78 12.97 53.7-.18 13.47-2.01 26.81-8.6 38.92-2.73 5.02-6.7 8.85-12.38 10.68-3.72 1.2-7.35 2.68-10.93 4.25-.89.39-1.98 1.64-2.01 2.52-.4 14.54-.65 29.09-.91 43.64-.01.31.17.63.29 1.01 10.97 3.11 21.48.95 31.81-2.8 3.25-1.18 6.31-2.83 9.5-4.18 5.99-2.53 9.53-7.61 13.15-12.57 14.08-19.31 20.41-41.08 20.06-64.83-.38-25.29-1.28-50.57-1.51-75.86-.16-17.45.4-34.91.79-52.37.02-.92 1.17-2.18 2.11-2.63 1.58-.76 3.41-.99 5.42-1.52 4.12 6.64 6.65 13.89 7.13 21.61.6 9.71.63 19.45.65 29.18.03 20.03-.07 40.06-.18 60.1-.12 21.41-1.67 42.73-5.51 63.79-1.1 6.03-4.49 11.62-6.7 17.47-5.41 14.31-16.52 23.64-28.52 31.95-6.67 4.62-14.87 5.22-22.75 6.32-8.18 1.14-16.35 2.36-24.81 3.59-.35 10.64-.69 21.12-1.06 32.35 4 0 7.76-.04 11.51.01 18.24.21 36.47.43 54.71.67 9.96.13 19.92.2 29.87.49 5.9.17 8.87 2.67 9.99 7.6.42 1.85-.1 2.77-1.83 3.61-8.71 4.22-17.97 5.33-27.46 4.85-48.33-2.44-96.69-.97-145.03-1.24-11.73-.07-23.48 1.3-35.2 1.08-6.94-.13-13.84-2.09-20.77-3.18-2.05-.32-2.83-1.43-2.66-3.44.06-.77 0-1.6-.24-2.33-.92-2.85.49-4.31 3.02-4.75 8.12-1.42 16.26-3.74 24.41-3.82 18.44-.19 36.88.82 55.33 1.19 9.26.22 18.53.06 28.5.06zm11.07-223.19c-.49.6-.75.83-.9 1.12-10.41 19.34-18.88 39.51-25.01 60.6-3.17 10.9-3.69 22.01.08 33.02 2.79 8.16 7 14.72 16.66 15.49 1.44.12 2.85.53 4.28.82 11.06 2.25 23.29-4.44 25.88-15.45 1.37-5.83 2.58-11.81 2.89-17.77.79-15.36-3.72-29.84-8.45-44.2-3.86-11.69-8.66-22.98-15.43-33.63z" fill="#010102"/></svg>