<svg enable-background="new 0 0 400 400" viewBox="0 0 400 400" xmlns="http://www.w3.org/2000/svg"><path d="m374.8 390.4.4-.4c.7.5 1.3 1 1.8 1.4l-.5.5c-.5-.6-1.1-1.1-1.7-1.5zm1 7.3-.6-.3c.5-1.4 1.1-2.8 1.5-4.3.2.1.4.2.6.3-.5 1.3-1 2.8-1.5 4.3zm-.4-10.3.4-.4c.4.3 1 .8 1.7 1.4l-.5.5c-.4-.5-1-1-1.6-1.5zm2.5.3h1.7v-1h.6v1h3.5v-1h.6v1h1.8v.5h-1.8v1.4h-2v1h3.2v2h-3.2v.9h3.3v.5h-3.4c0 .3-.1.6-.1.9h4v.5h-3.7c.7.9 1.9 1.5 3.8 1.7-.1.2-.2.4-.3.6-2.1-.4-3.5-1.1-4-2.1-.4 1-1.8 1.7-4 2.2-.1-.2-.2-.4-.3-.6 2.1-.4 3.4-1 3.8-1.8h-3.4v-.5h3.6c.1-.3.1-.6.2-.9h-3.3v-.5h3.4c0-.3 0-.6 0-.9h-3.2v-2h3.3v-1h-2.1v-1.4h-1.7v-.5zm1.1 3.5v1h2.7c0-.3 0-.4 0-.4 0-.1 0-.2 0-.2 0-.1 0-.2 0-.3h-2.7zm1.2-3v.9h3.5v-.9zm4.7 3h-2.6v.6.4h2.6z" fill="#fbfcfa"/><path d="m393.6 386.7h.6v1.5h2.7v6.1h1.1v.6h-11v-.6h1.1v-6.1h2.7v-1.5h.6v1.5h2.1v-1.5zm-2.7 8.8.4.6c-1.2.6-2.5 1.3-3.8 1.9-.1-.2-.2-.4-.3-.6 1.2-.6 2.5-1.2 3.7-1.9zm-2.2-6.7v2.4h2.1v-2.4zm0 3v2.5h2.1v-2.5zm2.8-3v2.4h2.1v-2.4zm0 3v2.5h2.1v-2.5zm6 6.1c-1.4-.7-2.7-1.3-3.9-1.8l.3-.6c1.5.6 2.7 1.2 3.9 1.7zm-1.2-9.1h-2.1v2.4h2.1zm-2.1 3v2.5h2.1v-2.5z" fill="#fbfcfa"/><path d="m202.8 349.99c0-1.18 0-2.28 0-3.37 0-14.22-.11-28.44.09-42.65.04-3-1.1-3.87-3.67-4.21-9.15-1.23-18.03.36-26.92 2.25-3.91.83-7.93 1.61-11.9 1.61-6.52 0-10.86-3.79-12.74-9.96-.82-2.7-.29-4.23 2.49-5.34 7.45-2.98 15.2-3.39 23.08-3.38 5.02 0 10.05-.3 15.06-.68 1.75-.13 3.5-.76 5.17-1.37 6.67-2.45 7.47-3.76 7-10.8-.88-12.95-1.81-25.9-2.52-38.86-.14-2.52-1.39-3.53-3.32-4.41-7.58-3.44-15.76-3.98-23.85-5.03-7.87-1.02-15.78-1.88-23.57-3.34-8.47-1.58-16.15-5.44-21.48-12.2-8.98-11.41-17.42-23.25-25.76-35.14-3.38-4.81-5.28-10.38-4.1-16.52.89-4.6 1.9-5.72 5.57-5.23 1.16.16 2.53 1.23 3.2 2.27 7.86 12.3 16.66 23.8 26.96 34.2 16.41 16.57 36.93 21.28 59.21 21.28 2.56 0 5.25-3.3 4.96-6.86-.36-4.43-1.36-8.83-2.26-13.2-.14-.68-1.15-1.29-1.87-1.73-1.72-1.04-3.45-2.13-5.3-2.89-6.25-2.55-11.07-6.49-13.49-13.01-.3-.8-.92-1.58-1.59-2.12-7.94-6.37-9.98-15.52-10.87-24.78-1.77-18.38 2.24-35.76 10.66-52.15.97-1.88 1.99-3.74 3.08-5.78-6.01-6.07-12.86-10.94-20.34-14.65-12.4-6.15-25.02-11.9-37.72-17.4-3.71-1.6-8.01-1.92-12.08-2.58-13.41-2.2-19.79-14.74-13.33-26.85.85.29 1.77.55 2.64.92 21.5 9.13 43.02 18.2 64.45 27.49 3.54 1.53 6.62 4.1 9.95 6.13 4.48 2.74 8.81 5.84 13.57 7.98 3.67 1.65 7.86 2.43 11.9 2.92 4.26.51 7.79-1.21 11.09-4.32 11.81-11.16 24.19-21.75 38.83-29.05 6.02-3 12.8-4.49 19.27-6.56 1.22-.39 2.62-.24 4.02-.35 1.25 4.78 1.6 8.53-2.68 12.39-9.9 8.92-20.98 15.97-32.28 22.82-6.21 3.76-12.48 7.46-18.48 11.54-5.79 3.94-5.93 7.87-1.35 13.06 15.63 17.7 19.64 38.18 13.92 60.72-.73 2.87-3.16 5.3-4.74 7.97-4.9 8.32-6.31 17.61-7.28 26.98-.54 5.22-.58 10.5-1.06 15.74-.21 2.29.82 3.23 2.73 3.86 3.93 1.3 7.76.94 11.4-.86 8.13-4.03 15.84-8.4 21.74-15.79 8.38-10.48 17.61-20.28 26.21-30.6 2.07-2.49 3.13-5.84 4.54-8.85.75-1.61 1.05-3.45 1.92-4.99 2.99-5.3 7.14-5.52 10.56-.69 2.82 3.99 4.44 8.33 3.25 13.24-.4 1.66-1.16 3.42-2.26 4.69-11.6 13.35-23.25 26.66-35.05 39.83-1.81 2.02-4.32 3.52-6.7 4.92-8.48 4.98-17.18 9.61-25.55 14.77-10.69 6.58-10.54 6.75-10.17 19.23.33 11.3.61 22.6.76 33.9.03 2.36.6 3.62 3.11 3.57 8.92-.18 17.85-.34 26.77-.51 4.68-.09 9.39-.54 14.04-.21 5.38.38 8.24 3.42 8.07 7.62-.03.66.04 1.69-.33 1.92-3.82 2.43-7.5 6.11-11.64 6.77-6.96 1.1-14.24.31-21.38.23-5.65-.06-11.27-.04-15.93 3.8-.76.63-1.4 2.04-1.29 3 1.82 16 3.76 32 5.7 47.99.06.54.31 1.05.56 1.89 8.71-.41 17.4-.83 26.09-1.23 13.3-.62 26.59-1.59 39.89-1.65 4.74-.02 9.53 2.05 14.22 3.42 2.59.76 4.69 2.45 4.47 5.54-.23 3.17-.92 6.19-4.2 7.82-7.41 3.68-15.38 4.8-23.47 4.69-8.93-.12-17.86-1.32-26.78-1.17-22.48.37-44.96.92-67.41 2.05-7.85.39-15.61 2.72-23.42 4.08-1.97.34-4.01.51-6.01.46-9.26-.26-18.51-1.34-27.76.64-2.08.44-4.45-.14-6.62-.57-5.39-1.06-5.25-1.14-5.35-6.39-.04-2.18.86-3.14 2.68-3.99 8.73-4.08 18.05-5.89 27.5-7.08 17.53-2.19 35.09-4.18 52.63-6.27.85-.09 1.69-.33 2.86-.58zm-12.63-249.88c-3.26 3.79-7.47 6.88-9.1 10.99-2.95 7.44-4.11 15.52-3 23.67 1.41 10.3 6.85 18.76 12.65 26.99 2.13 3.02 6.94 3.05 9.37.21 2.1-2.46 4.16-4.99 5.91-7.7 5-7.75 6.56-16.2 3.44-24.95-3.95-11.09-10.49-20.62-19.27-29.21z" fill="#010106"/></svg>