<svg enable-background="new 0 0 400 400" viewBox="0 0 400 400" xmlns="http://www.w3.org/2000/svg"><path d="m374.8 390.4.4-.4c.7.5 1.3 1 1.8 1.4l-.5.5c-.5-.6-1.1-1.1-1.7-1.5zm1 7.3-.6-.3c.5-1.4 1.1-2.8 1.5-4.3.2.1.4.2.6.3-.5 1.3-1 2.8-1.5 4.3zm-.4-10.3.4-.4c.4.3 1 .8 1.7 1.4l-.5.5c-.4-.5-1-1-1.6-1.5zm2.5.3h1.7v-1h.6v1h3.5v-1h.6v1h1.8v.5h-1.8v1.4h-2v1h3.2v2h-3.2v.9h3.3v.5h-3.4c0 .3-.1.6-.1.9h4v.5h-3.7c.7.9 1.9 1.5 3.8 1.7-.1.2-.2.4-.3.6-2.1-.4-3.5-1.1-4-2.1-.4 1-1.8 1.7-4 2.2-.1-.2-.2-.4-.3-.6 2.1-.4 3.4-1 3.8-1.8h-3.4v-.5h3.6c.1-.3.1-.6.2-.9h-3.3v-.5h3.4c0-.3 0-.6 0-.9h-3.2v-2h3.3v-1h-2.1v-1.4h-1.7v-.5zm1.1 3.5v1h2.7c0-.3 0-.4 0-.4 0-.1 0-.2 0-.2 0-.1 0-.2 0-.3h-2.7zm1.2-3v.9h3.5v-.9zm4.7 3h-2.6v.6.4h2.6z" fill="#fbfcfa"/><path d="m393.6 386.7h.6v1.5h2.7v6.1h1.1v.6h-11v-.6h1.1v-6.1h2.7v-1.5h.6v1.5h2.1v-1.5zm-2.7 8.8.4.6c-1.2.6-2.5 1.3-3.8 1.9-.1-.2-.2-.4-.3-.6 1.2-.6 2.5-1.2 3.7-1.9zm-2.2-6.7v2.4h2.1v-2.4zm0 3v2.5h2.1v-2.5zm2.8-3v2.4h2.1v-2.4zm0 3v2.5h2.1v-2.5zm6 6.1c-1.4-.7-2.7-1.3-3.9-1.8l.3-.6c1.5.6 2.7 1.2 3.9 1.7zm-1.2-9.1h-2.1v2.4h2.1zm-2.1 3v2.5h2.1v-2.5z" fill="#fbfcfa"/><path d="m89.58 313.78c-1.14-4.59-2.73-8.71-3.09-12.94-.7-8.11-.79-16.29-.89-24.44-.01-1.03 1.34-2.14 2.17-3.11 1.48-1.7 3.05-3.33 4.58-4.98-.18-.28-.36-.56-.55-.84-1.7.15-3.39.31-5.38.49-.48-10.42-.95-20.67-1.45-31.37 3.46.45 6.95.17 9.62 1.53 1.47.75 1.77 4.2 2.16 6.51.39 2.34.23 4.77.33 7.16.16 3.84.7 7.71.38 11.51-.23 2.77-.11 5.33.18 8.1 1.06 10.09 2.49 20.33 1.71 30.36-.54 6.94-1.95 13.5 1.91 19.88-1.65.79-2.74 1.31-3.73 1.78 1.51 2.28 2.99 4.5 4.46 6.74 3.42 5.22 4.15 10.74 1.89 16.63-.34.88-.51 1.97-.32 2.87.89 4.19 1.94 8.35 3.1 13.25 5.66.47 12.19 1.35 18.72 1.39 2.31.01 4.59-2.09 6.94-3.09 1.93-.82 3.9-1.84 5.93-2.06 15.9-1.73 31.83-3.26 47.74-4.93 2.84-.3 3.96 1.63 5.13 3.52.87 1.4 1.52 2.93 2.49 4.86 1.24-3.21 3.41-5.78.22-8.94 1.63-.62 3.01-1.15 4.39-1.68-.95-3.73-1.97-7.35-2.78-11.01-.74-3.36-1.66-6.72.51-10.06.46-.71-.19-2.24-.54-3.33-.36-1.15-.97-2.22-1.56-3.52 1.68-1.21 3.28-2.36 4.87-3.5-.14-.3-.19-.6-.29-.61-4.62-.69-6.8-3.64-7.62-7.98-.25-1.31-.79-2.56-1.24-3.83-1.69-4.83-4.32-8.71-9.48-10.55-1.62-.58-3.52-1.91-4.17-3.39-1.39-3.19-3.63-5.12-6.47-6.89-2.31-1.43-4.37-3.41-6.18-5.47-6.41-7.31-12.65-14.77-18.98-22.16-4.33-5.05-6.36-10.13-6.1-15.43 5.21-1.16 9.07.51 11.38 4.93.26.49.48 1.24.89 1.38 4.41 1.5 5.67 5.28 6.53 9.16.6.11.94.26 1.25.21 3.78-.66 6.15.96 8.16 4.17 1.13 1.81 3.5 2.82 5.14 4.36 2.43 2.29 4.59 4.87 7.09 7.07 1.8 1.58 3.87 2.93 6.01 4 1.7.85 3.08.1 3.21-2.02.48-7.69 1.16-15.38 1.29-23.07.06-3.62-1.09-7.24-1.48-10.88-.42-3.99-.75-8.01-.85-12.02-.14-5.81-.04-11.62-.04-17.68h8.66c1.02-1.67 2.45-4.01 4.01-6.57-1.83-1.15-3.4-2.15-5.43-3.43 0 1.17.13 1.9-.03 2.56-.28 1.19-.73 2.34-1.11 3.51-1.58-.82-3.73-1.26-4.6-2.56-1.04-1.55-1.23-3.82-1.34-5.8-.36-6.47-.65-12.95-.66-19.42 0-1.5 1.23-3.01 2.07-4.89-2.48-1.24-4.32-4.05-4.79-7.79-.41-3.33-1.84-6.67.24-10.24-2.22-.47-4.58-.97-7.18-1.51-.09-1.25-.21-2.45-.26-3.66-.14-3.56.07-7.14-4.24-8.91-1.18-.49-2.27-2.35-2.52-3.75-1.06-5.9-2.23-11.76.86-17.62 2.52-4.78 5.27-9.15 9.21-12.98 4.23-4.11 8.05-8.76 11.34-13.66 2.17-3.23 3.6-7.2 4.4-11.05.89-4.27-.3-8.07-4.12-11.24-8.69-7.22-17.15-14.74-25.39-22.48-6.5-6.11-10.36-13.69-10.36-22.87 0-.89.08-1.79.2-2.67.06-.41.31-.8.63-1.57 5.45 4.45 11.56 8.09 15.65 13.31 2.21 2.82 4.87 4.63 7.13 7.07 4.22 4.55 7.7 9.78 11.63 14.62.89 1.1 2.24 2.23 3.55 2.51 2.71.56 4.72 1.79 6.21 4.08.61.93 1.35 1.8 2.16 2.56 2.97 2.77 4.51 2.63 6.94-.59 5.13-6.78 10.29-13.54 15.34-20.39.97-1.31 1.48-2.96 2.2-4.46.74-1.56 1.47-3.13 2.26-4.83 4.61 7.1 2.91 14.05-.24 20.23-3.06 6.02-5.81 12.84-14.03 15.43 2.05 3.31 3.51 6.29 5.53 8.82 2.99 3.73 4.02 7.4.83 11.62.15.26.29.53.44.79 1.59-.26 3.28-.25 4.74-.82 3.13-1.21 6.79.04 8.08 3.06.93 2.16 1.95 4.28 2.73 6.48 1.18 3.36 1.26 6.56-1.8 9.17-4.67 3.99-9.28 8.06-13.93 12.08-.91.79-1.88 1.53-2.8 2.28 2.19 3.16 1.92 4.12-2.58 9.36-.84-.98-1.67-1.94-2.7-3.14-.18.57-.45.96-.39 1.29 1.05 6.14-1.12 11.23-5.39 15.4-5.64 5.5-6.52 11.71-4.38 19.12 2.26 7.83 2.38 15.92.46 23.91-.95 3.95-.42 7.71.74 11.49 1.07 3.47.79 6.8-1.06 10.03-.55.96-1.09 2.52-.69 3.34 3.37 6.94 1.98 14.27 1.97 21.47 0 3.36-.41 6.72-.23 10.06.18 3.18 1.06 6.32 1.32 9.5.35 4.33.39 8.68.57 13.01.07 1.59-.59 3.78 1.79 3.99 1.22.1 2.84-.72 3.78-1.64 5.51-5.4 10.83-11 16.32-16.42.98-.96 2.39-1.87 3.7-2.03 2.03-.25 2.94-1.18 3.42-3.01 2.22-8.51 9.61-10.23 16.27-12.91.39.18.77.37 1.16.55-.45 1.9-.44 4.08-1.43 5.64-4.97 7.84-10.13 15.56-15.41 23.2-.77 1.11-2.48 2.03-3.84 2.17-4.11.41-6.13 2.53-6.63 6.5-.16 1.31-.83 2.56-1.09 3.87-.66 3.37-2.04 6.03-5.69 7.04-.83.23-1.9 1.15-2.08 1.93-1.66 7.48-6.84 12.98-10.52 19.33-.92 1.58-1.67 3.54-1.66 5.32.08 11.62.39 23.24.65 34.86.05 2.42 1.02 3.94 3.72 4.14 1.54.12 3.02.97 4.55 1.06 1.15.06 2.79-.2 3.43-.97 1.51-1.8 3.24-2.55 5.48-2.6 1.79-.04 3.57-.28 5.35-.41 7.24-.52 7.24-.52 13.32 2.6 5.14-6.01 12.35-6.43 19.48-7.12 8.46-.83 16.91-1.86 25.38-2.46 1.75-.12 3.61 1.25 5.72 2.04 3.83-7.11 11.06-3.74 17.26-4.53 1.17 5.03-1.29 7.98-5.19 9.45-5.92 2.23-11.95 4.44-18.13 5.6-6.67 1.26-13.57 1.23-20.35 1.92-2.97.3-5.12-.63-6.83-3.06-1.02-1.44-2.36-2.66-3.58-4.01-3.21 2.9-2.1 5.24.95 7.46-4.72 3.17-9.82 3.8-14.94 3.89-6.04.1-12.08-.17-18.12-.41-1.29-.05-2.55-.67-3.84-1.01-.83-.22-1.68-.59-2.49-.54-2.39.15-4.77.49-7.85.83-1.08 4.64-4.95 3.66-9.28 3.06-3.32-.46-6.87.45-10.27.99-3.34.53-6.53 1.1-7.49-3.25-.5 0-.8-.09-.92.01-5.13 4.74-10.87 5.94-17.92 4.99-6.66-.9-13.58.14-20.39.35-.54.02-1.23.06-1.6.38-5.3 4.66-11.94 3.64-18.17 4.28-2.56.26-5.29.95-7.67.35-4.92-1.24-9.78-1.5-14.83-1.5-3.93 0-6.2-2.63-7.22-6.91-3.66-15.44-4.99-31.13-5.7-46.89-.04-1.95 1.68-3.95 2.36-5.46zm88.49-188.12c5 6.81 9.84 13.5 14.85 20.04.49.64 2.15.74 3.18.55 7.84-1.41 10.61-8.52 14.21-13.99 4.11-6.26 6.48-13.67 9.6-20.59 2.31-5.12 1.63-9.98-1.26-14.68-2.87-4.65-2.87-4.78-8.26-3.54-1.6.37-3.29 1.32-4.45 2.49-4.03 4.03-7.85 8.26-11.75 12.43-5.33 5.7-10.65 11.42-16.12 17.29z" fill="#010101"/></svg>