<svg enable-background="new 0 0 400 400" viewBox="0 0 400 400" xmlns="http://www.w3.org/2000/svg"><path d="m25.94 306.17c58.15-8.68 113.75-26.14 169.66-42.38-.05-.3-.1-.59-.16-.89-15.97-3.81-31.85-8.01-47.94-11.19-5.04-1-10.7.38-15.95 1.33-4.66.84-8.23.29-10.78-4.06-2.35-4.02-6.05-5.75-10.63-6.62-11.53-2.18-22.9-5.27-34.48-7.1-13.61-2.15-23.35-9.49-30.95-20.41-1.21-1.74-2.26-3.6-3.49-5.33-4.59-6.44-9.36-12.76-13.77-19.32-1.95-2.91-3.34-6.23-4.65-9.51-.26-.66 1-1.94 1.57-2.93.04-.08.21-.08.3-.13 5.16-2.97 9.1-2.29 14 1.87 10.4 8.83 23.17 13.82 35.79 18.75 11.55 4.51 23.27 8.59 34.81 13.12 4.45 1.75 8.63 4.18 12.9 6.36 5.56 2.84 10.19 1.55 13.24-3.72 6.77-11.7 13.55-23.39 20.44-35.29-.84-.58-1.5-1.12-2.23-1.54-3.68-2.13-7.22-4.57-11.09-6.26-13.31-5.82-21.65-16.56-28.89-28.47-3.44-5.66-6.56-11.49-7.2-18.23-.09-.98.67-2.52 1.5-3.01 4.4-2.63 9.18-1.81 12.74 1.85 5.85 6.01 12.87 10.39 20.31 14.08 9.41 4.68 18.89 9.2 28.35 13.76 2.81 1.35 8.66-.12 10.51-2.71 14.37-20.12 28.91-40.12 42.82-60.56 1.96-2.87 1.29-7.94.88-11.9-.42-4.12-.39-7.71 2.6-10.91 3.93-4.21 9.31-4.71 12.92-.14 6.45 8.16 14.89 13.78 23.09 19.79 5.62 4.12 7.68 11.75 4.85 17.98-.5 1.1-1.76 1.94-2.81 2.69-15.75 11.28-31.24 22.89-45.11 36.48-6.32 6.2-11.9 13.03-16.41 20.96.87.51 1.59 1 2.36 1.37 16.19 7.59 32.41 15.12 48.57 22.77 2.07.98 3.19.88 4.66-1.1 11.88-15.99 23.96-31.82 35.82-47.82 1.81-2.44 3.09-5.38 4.08-8.27 1.55-4.54 2.72-9.22 3.88-13.88.53-2.13 1.37-2.96 3.79-3.12 5.84-.37 10.77.76 15.24 4.98 3.2 3.02 7.15 5.48 11.16 7.34 6.79 3.15 9.75 8.56 10.7 15.49.94 6.85 1.01 7.12-5.26 10.04-8.35 3.89-15.17 9.45-21.45 16.19-19.29 20.72-38.74 41.32-58.66 61.44-6.62 6.69-14.84 11.81-22.38 17.59-3.89 2.98-7.87 5.84-12.05 8.93 3.63 2.58 7.36 2.43 11.13 1.93.88-.12 1.77-.36 2.59-.69 18.26-7.46 37.84-8.58 56.98-11.75 12.58-2.08 25.21-3.8 37.81-5.74 9.84-1.52 19.41-.49 28.68 3.06 5.33 2.04 9.45 5.44 11.24 11.18.69 2.22.34 3.67-1.77 5.03-8.56 5.49-18.07 8.44-27.95 9.86-14.71 2.12-29.48 4.05-44.3 5.23-14.72 1.17-28.77 4.43-42.75 9.13-9.77 3.29-20.26 4.45-30.43 6.54-23.65 4.87-47.37 9.53-70.2 17.55-10.73 3.77-21.15 8.45-31.68 12.8-1.2.5-2.24 1.47-3.23 2.35-6.2 5.49-12.42 10.97-18.52 16.57-1.49 1.37-2.73 1.74-4.73 1.11-17.47-5.52-35.14-10.47-52.4-16.59-6.73-2.39-13.34-6.37-16.84-13.49-.28-.66-.46-1.4-.83-2.44zm213.41-103.78c-.82-.26-1.64-.58-2.48-.79-17.01-4.26-34.03-8.43-51-12.82-2.81-.73-4.44-.15-6.31 1.96-6.54 7.35-13.2 14.6-20 21.71-4.36 4.56-4.64 10.59-7.29 16.49 13.62 4.49 26.56 9.06 39.7 12.93 4.71 1.39 9.91 1.32 14.89 1.42 1.61.03 3.6-1.17 4.82-2.39 5.51-5.56 10.45-11.72 16.27-16.91 6.56-5.86 9.29-13.36 11.4-21.6z" fill="#010104"/><g fill="#fcfbfa"><path d="m385.2 377.6.6-.7c.6.4 1.3.9 1.9 1.5l-.6.7c-.8-.5-1.4-1-1.9-1.5zm.3 7.1c.6-1.4 1.1-2.9 1.5-4.5.3.1.6.3.9.4-.5 1.4-1 2.9-1.5 4.4zm.2-10.1.6-.6c.7.5 1.3 1.1 1.9 1.6l-.7.7c-.6-.6-1.2-1.2-1.8-1.7zm8.4-.8h.8v.9h1.8v.7h-1.8v1.8h-.8v-.3h-1.2v.9h3.3v2.6h-.8v-.4h-2.5c0 .3 0 .6-.1.8h3.4v.7h-3.5c0 .3-.1.6-.1.8h4v.7h-3.5c.7.9 1.9 1.3 3.6 1.5-.2.2-.4.5-.6.9-1.9-.3-3.2-1.1-3.8-2.3-.5 1.1-1.8 2-3.9 2.4-.2-.3-.4-.5-.6-.8 1.9-.4 3.1-.9 3.6-1.7h-3.2v-.7h3.5c.1-.2.1-.5.2-.8h-3.3v-.7h3.4c0-.2 0-.5 0-.8h-2.4v.3h-.8v-2.6h3.3v-.9h-1.2v.3h-.8v-1.8h-1.8v-.7h1.8v-.9h.8v.9h3.2zm-4.4 5.5h2.4c0-.3 0-.6 0-.9h-2.4zm1.2-3.1h3.2v-.8h-3.2zm4.4 2.2h-2.4v.9h2.5v-.9z"/><path d="m389.2 385.8h.9v1.5h1.9v-1.5h.9v1.5h2.7v6h1.1v.9h-11.3v-.9h1.1v-6h2.7zm.2 8.7.5.8c-1.2.6-2.5 1.3-4 1.9-.2-.3-.3-.6-.6-.8 1.6-.6 3-1.3 4.1-1.9zm-2-4.3h1.9v-2.1h-1.9zm0 3.1h1.9v-2.2h-1.9zm2.7-3.1h1.9v-2.1h-1.9zm0 3.1h1.9v-2.2h-1.9zm2.4 1.3c1.4.6 2.7 1.2 4.1 1.8l-.5.9c-1.5-.7-2.8-1.4-4.1-1.9zm2.2-6.5h-1.9v2.1h1.9zm-1.9 5.2h1.9v-2.2h-1.9z"/></g></svg>