<svg enable-background="new 0 0 400 400" viewBox="0 0 400 400" xmlns="http://www.w3.org/2000/svg"><path d="m374.8 390.4.4-.4c.7.5 1.3 1 1.8 1.4l-.5.5c-.5-.6-1.1-1.1-1.7-1.5zm1 7.3-.6-.3c.5-1.4 1.1-2.8 1.5-4.3.2.1.4.2.6.3-.5 1.3-1 2.8-1.5 4.3zm-.4-10.3.4-.4c.4.3 1 .8 1.7 1.4l-.5.5c-.4-.5-1-1-1.6-1.5zm2.5.3h1.7v-1h.6v1h3.5v-1h.6v1h1.8v.5h-1.8v1.4h-2v1h3.2v2h-3.2v.9h3.3v.5h-3.4c0 .3-.1.6-.1.9h4v.5h-3.7c.7.9 1.9 1.5 3.8 1.7-.1.2-.2.4-.3.6-2.1-.4-3.5-1.1-4-2.1-.4 1-1.8 1.7-4 2.2-.1-.2-.2-.4-.3-.6 2.1-.4 3.4-1 3.8-1.8h-3.4v-.5h3.6c.1-.3.1-.6.2-.9h-3.3v-.5h3.4c0-.3 0-.6 0-.9h-3.2v-2h3.3v-1h-2.1v-1.4h-1.7v-.5zm1.1 3.5v1h2.7c0-.3 0-.4 0-.4 0-.1 0-.2 0-.2 0-.1 0-.2 0-.3h-2.7zm1.2-3v.9h3.5v-.9zm4.7 3h-2.6v.6.4h2.6z" fill="#fbfcfa"/><path d="m393.6 386.7h.6v1.5h2.7v6.1h1.1v.6h-11v-.6h1.1v-6.1h2.7v-1.5h.6v1.5h2.1v-1.5zm-2.7 8.8.4.6c-1.2.6-2.5 1.3-3.8 1.9-.1-.2-.2-.4-.3-.6 1.2-.6 2.5-1.2 3.7-1.9zm-2.2-6.7v2.4h2.1v-2.4zm0 3v2.5h2.1v-2.5zm2.8-3v2.4h2.1v-2.4zm0 3v2.5h2.1v-2.5zm6 6.1c-1.4-.7-2.7-1.3-3.9-1.8l.3-.6c1.5.6 2.7 1.2 3.9 1.7zm-1.2-9.1h-2.1v2.4h2.1zm-2.1 3v2.5h2.1v-2.5z" fill="#fbfcfa"/><path d="m228.14 181.74c3.64 5.1 5.54 10.67 6.38 16.57 2.14 15.1 2.17 30.18-2.39 44.87-2.63 8.48-7.51 15.64-15.35 20.43-4.48 2.74-8.83 5.71-13.3 8.48-1.55.96-2.38 1.98-2.38 3.97-.01 5.48-.12 10.98-.56 16.44-.22 2.78.91 4.18 3.23 5.03 1.46.54 2.93 1.1 4.44 1.48 2.2.55 3.53 1.77 3.77 4.11.24 2.29-.44 4.02-2.82 4.62-8.03 2.05-9.97 7.25-8.71 14.99 1.64 10.03 2.54 20.18 3.77 30.27.33 2.74 1.63 3.71 4.62 3.78 16.1.38 32.19 1.11 48.29 1.64 3.01.1 6.04-.32 9.05-.25 4.26.1 5.25 1.7 3.78 5.64-.27.73-.64 1.45-.79 2.21-.51 2.47-1.87 3.24-4.46 3.27-21.93.21-43.88.28-65.79 1.08-9.34.34-18.61 2.45-27.93 3.53-14.47 1.67-28.97 2.8-43.5.43-3.61-.59-5.97-5.58-3.89-8.49.32-.45 1.12-.72 1.73-.8 15.43-1.88 30.85-3.84 46.3-5.5 5.21-.56 10.51-.24 15.76-.46 3.7-.15 4.71-1.55 4.49-5.1-.74-12.39-1.5-24.78-2-37.18-.12-2.99-.73-4.52-4.04-4.53-2.89 0-5.89-.2-8.62-1.04-1.61-.49-3.18-2.18-4.04-3.74-.77-1.4-.04-2.85 1.94-3.48 4.15-1.32 8.27-2.79 12.27-4.49 1-.43 2.12-1.96 2.16-3.03.21-5.59.21-11.2.01-16.79-.04-1.15-1.02-2.84-2.01-3.28-5.09-2.25-10.17-4.91-15.54-6.05-12.69-2.7-20.39-10.41-24.7-22.16-6.64-18.1-9.24-36.8-8.49-56.02.08-2.12.59-3.59 3.03-3.96 2.5-.38 2.33 1.7 2.88 2.92 6.4 14.3 9.43 29.52 12.32 44.82 2.88 15.21 13.42 21.87 27.38 23.08.81.07 2.26-.85 2.48-1.59.7-2.31 1.63-4.86 1.26-7.13-2.9-17.79-1.37-35.75-2.54-53.58-.41-6.21-2.95-12.29-4.69-18.38-.22-.78-1.38-1.41-2.23-1.87-4.12-2.25-8.23-4.52-12.44-6.59-9.91-4.86-14.68-12.91-15.42-23.75-.79-11.58 1.04-22.89 4.67-33.7 3.5-10.44 8.29-20.46 12.78-30.55 1.26-2.83 1.25-4.49-1.14-6.8-8.77-8.46-17.39-17.09-25.78-25.94-4.08-4.3-7.42-9.27-8.75-15.26-.16-.73-.19-1.5-.32-2.56 5.4.48 10.11.83 14.28 5.24 7.29 7.71 15.36 14.69 23.31 21.74 2.47 2.19 5.59 3.68 8.45 5.41 2.04 1.23 3.47.74 5.04-1.25 11.74-14.79 26.23-26.53 41.68-37.19.18-.12.41-.16 1.3-.5.87 1.57 2.48 3.2 2.57 4.9.19 3.52-.33 7.1-.8 10.62-.1.78-1.13 1.56-1.91 2.09-2.03 1.39-4.12 2.69-6.25 3.93-7.84 4.59-15.43 9.36-20.7 17.16-1.83 2.7-4.93 4.52-7.35 6.84-3.84 3.69-3.77 5.94-.33 9.86 13.1 14.92 22.84 31.77 27.86 51.05 3.07 11.82 1.07 23.08-5.54 33.42-.69 1.08-1.76 2.01-2.84 2.73-4.56 3.05-9.25 5.89-13.73 9.05-1.03.73-2.04 2.43-1.98 3.63 1.08 24.38 2.37 48.74 3.46 73.12.16 3.53 2.07 4.53 4.89 4.4 4.25-.19 8.17-1.66 11.07-4.86 6.31-6.97 9.95-15.21 9.93-24.65-.02-12.85-.49-25.7-.79-38.56-.02-3.2-.03-6.36 4.21-7.79zm-18.69-36.44c.32-8.98-2.72-15.49-6.17-21.78-5.25-9.59-10.67-19.09-16.27-28.48-1.19-2-3.42-3.41-5.29-4.95-.48-.39-1.71-.59-2.07-.27-1.8 1.59-4.17 3.08-4.99 5.15-3.18 7.98-6.08 16.09-8.64 24.28-2.55 8.14-4.45 16.42-1.77 25.01 1.9 6.11 4.72 11.89 9.53 15.92 5.82 4.87 13.07 5.7 20.33 3.37 13.33-4.27 14.5-5.8 15.34-18.25z" fill="#010106"/></svg>