<svg enable-background="new 0 0 400 400" viewBox="0 0 400 400" xmlns="http://www.w3.org/2000/svg"><path d="m197.88 178.21c8.87 6.83 12.56 16.28 16.28 25.8 1.26 3.23 3.46 6.1 5.31 9.27 14.37-11.37 26.77-23.6 36.1-38.54 2.89-4.63 4.55-10.11 6.28-15.36 1.19-3.62.84-7.03-2.91-9.72-1.68-1.21-2.21-4.03-3.53-6.66 6.18-1.16 11.41-2.19 16.66-3.05.67-.11 1.64.51 2.21 1.06 4.23 4.12 8.64 8.11 12.46 12.6 1.35 1.59 2.13 4.74 1.55 6.7-1.48 5.07-3.5 10.08-5.99 14.74-2.09 3.91-5.38 7.16-7.74 10.95-7.38 11.83-17.23 21.47-27.64 30.45-4.29 3.7-9.7 6.33-14.94 8.66-5.75 2.56-11.1 5.22-14.41 11.95 3.57.78 6.84 1.93 10.17 2.12 8.82.51 17.67.44 26.49.92 5.12.28 10.23 1.01 15.29 1.87 4.03.69 5.27 2.48 5.62 7.16-1.28.31-2.71.46-3.98.99-2.83 1.18-5.58 2.55-8.36 3.85-.99.46-1.93 1.2-2.97 1.39-11.55 2.09-23.09 4.18-34.67 6.09-5.33.88-8.1 3.44-9.01 9.05-2.27 13.91-4.3 27.86-6.96 41.69-.77 3.98-2.74 8.08-5.23 11.31-3.38 4.39-9.78 2.76-11.66-2.46-2.17-6.05-1.19-12.09-.15-18.21 1.37-8.04 2.4-16.13 3.46-24.22.18-1.4.07-2.96-.38-4.29-.85-2.48-2.43-3.84-5.38-2.78-3.99 1.43-7.8 2.84-11.17 5.76-7.62 6.6-16.14 8.43-25.82 4.07-5.89-2.65-12.09-4.73-18.31-6.47-5.92-1.65-7.78-6.09-9.23-11.14-.15-.53-.14-1.11-.2-1.66-.59-5.4 1.69-7.56 6.98-5.91 4.4 1.38 8.46 1.04 12.8-.08 14.72-3.78 29.49-7.39 44.28-10.9 2.74-.65 4.2-1.87 4.81-4.65.62-2.82 1.85-5.51 2.58-8.31.27-1.05-.12-2.28-.24-3.87 1.7-1.59 1.79-4.03-.31-7.26-13.64 8.79-28.87 5.86-43.67 5.48-6.15-.16-11.62.95-17.12 3.57-2.55 1.22-5.76 1.47-8.66 1.43-2.44-.03-4.12-1.66-5.65-3.99-3.71-5.67-7.83-11.11-12.26-16.23-3.75-4.33-6.12-9.03-6.59-14.69-.12-1.41-.02-2.84-.02-4.33 3.96-.46 7.1-.29 10.38 2.09 8.32 6.04 18.21 8.25 28.1 10.35 16.02 3.41 32.22 5.24 48.59 5.66 3.6.09 4.99-1.28 4.06-4.84-.57-2.19-1.79-4.34-3.18-6.16-2.71-3.55-6.12-6.61-8.56-10.33-3.43-5.22-8.38-6.63-14.03-6.96-2.34-.14-4.7-.13-7.05-.14-11.17-.01-19.13-5.87-22.23-16.63-2.58-8.94-1.99-17.93.16-26.87 1.46-6.07 2.95-12.14 4.38-18.02-15.76-8.09-23.08-21.1-24.72-38.2 4.35-.6 7.43-.43 10.76 1.9 6.11 4.28 12.72 7.87 19.25 11.5 2 1.11 4.41 1.74 6.69 1.96 1.24.12 3.18-.71 3.84-1.74 10.58-16.45 21.03-32.98 31.46-49.53 2.42-3.84 2.91-7.84.75-12.08-1.79-3.51-.18-6.45 2.14-9.36 8.17 2.51 15.93 5.92 22.77 11.01 2.2 1.64 3.98 4.3 5.1 6.86 2.33 5.33 1.39 7.95-3.81 10.33-7.75 3.55-13.21 9.51-17.93 16.23-7.44 10.61-13.65 22.09-22.67 31.58-1.16 1.22-1.74 3.1-2.29 4.78-.81 2.48-.2 4.3 2.34 5.8 6.83 4.04 13.62 8.2 20.14 12.71 7.25 5.01 14.21 10.45 21.26 15.75 1.61 1.21 2.84 7.81 1.88 9.26-1.4 2.09-5.35 3-8.26 1.52-2.77-1.42-5.49-3.04-7.96-4.93-12.21-9.37-26.67-13.34-41.12-17.31-.66-.18-1.95.18-2.24.69-4.26 7.37-8.4 14.78-8.32 23.72.03 3.34 1.28 5.57 4.01 7.47 7.41 5.16 15.53 6.24 24.3 5.36 14.48-1.46 27.51-7.57 40.99-12.24.84-.29 1.7-.9 2.52-.86 1.24.07 2.8.24 3.57 1.02.61.61.62 2.34.25 3.33-1.14 3.05-2.81 5.58-5.94 7.31-7.76 4.29-15.27 8.95-23.55 13.86z" fill="#010104"/><path d="m97.97 356.87c5.83-1.52 11.1-3.51 16.54-4.21 18.73-2.43 36.41-8.88 54.53-13.66 28.87-7.62 58.28-11.81 88.11-12.24 9.77-.14 19.59 1.56 29.34 2.77 2.41.3 4.97 1.56 6.9 3.09 3.74 2.97 3.07 7.15-1.16 9.28-6.19 3.12-12.88 3.98-19.6 3.25-18.72-2.04-37.24-.09-55.84 1.78-14.95 1.51-28.24 8.14-42.38 12.08-3.33.93-6.61 2.25-10.01 2.64-7.99.92-14 5.76-20.22 9.96-7.49 5.06-14.93 4.09-22.64 1.35-6.07-2.16-12.09-4.46-18.1-6.8-.81-.32-1.64-1.08-2.05-1.85-1.1-2.05-1.97-4.23-3.42-7.44z" fill="#010104"/><g fill="#fcfbfa"><path d="m385.2 377.6.6-.7c.6.4 1.3.9 1.9 1.5l-.6.7c-.8-.5-1.4-1-1.9-1.5zm.3 7.1c.6-1.4 1.1-2.9 1.5-4.5.3.1.6.3.9.4-.5 1.4-1 2.9-1.5 4.4zm.2-10.1.6-.6c.7.5 1.3 1.1 1.9 1.6l-.7.7c-.6-.6-1.2-1.2-1.8-1.7zm8.4-.8h.8v.9h1.8v.7h-1.8v1.8h-.8v-.3h-1.2v.9h3.3v2.6h-.8v-.4h-2.5c0 .3 0 .6-.1.8h3.4v.7h-3.5c0 .3-.1.6-.1.8h4v.7h-3.5c.7.9 1.9 1.3 3.6 1.5-.2.2-.4.5-.6.9-1.9-.3-3.2-1.1-3.8-2.3-.5 1.1-1.8 2-3.9 2.4-.2-.3-.4-.5-.6-.8 1.9-.4 3.1-.9 3.6-1.7h-3.2v-.7h3.5c.1-.2.1-.5.2-.8h-3.3v-.7h3.4c0-.2 0-.5 0-.8h-2.4v.3h-.8v-2.6h3.3v-.9h-1.2v.3h-.8v-1.8h-1.8v-.7h1.8v-.9h.8v.9h3.2zm-4.4 5.5h2.4c0-.3 0-.6 0-.9h-2.4zm1.2-3.1h3.2v-.8h-3.2zm4.4 2.2h-2.4v.9h2.5v-.9z"/><path d="m389.2 385.8h.9v1.5h1.9v-1.5h.9v1.5h2.7v6h1.1v.9h-11.3v-.9h1.1v-6h2.7zm.2 8.7.5.8c-1.2.6-2.5 1.3-4 1.9-.2-.3-.3-.6-.6-.8 1.6-.6 3-1.3 4.1-1.9zm-2-4.3h1.9v-2.1h-1.9zm0 3.1h1.9v-2.2h-1.9zm2.7-3.1h1.9v-2.1h-1.9zm0 3.1h1.9v-2.2h-1.9zm2.4 1.3c1.4.6 2.7 1.2 4.1 1.8l-.5.9c-1.5-.7-2.8-1.4-4.1-1.9zm2.2-6.5h-1.9v2.1h1.9zm-1.9 5.2h1.9v-2.2h-1.9z"/></g></svg>