<svg enable-background="new 0 0 400 400" viewBox="0 0 400 400" xmlns="http://www.w3.org/2000/svg"><g fill="#fafafb"><path d="m12.4 4.8-6.1 9h6v1.2h-8v-.5l6.1-8.9h-5.7v-1.2h7.6v.4z"/><path d="m14 15v-10.6h3c1.6 0 2.9.5 4 1.4s1.6 2.2 1.6 3.8-.5 3-1.6 3.9-2.4 1.5-4 1.5zm1.4-9.4v8.2h1.6c1.3 0 2.4-.4 3.1-1.1s1.1-1.8 1.1-3.1-.4-2.3-1.2-3-1.8-1-3.1-1z"/><path d="m26.1 4.4v10.6h-1.4v-10.6z"/><path d="m36.1 14.6c-.8.4-1.8.6-2.9.6-1.5 0-2.7-.5-3.6-1.4s-1.4-2.2-1.4-3.8c0-1.7.5-3.1 1.5-4.1s2.3-1.6 3.9-1.6c1 0 1.8.1 2.5.4v1.4c-.8-.4-1.6-.6-2.5-.6-1.2 0-2.1.4-2.9 1.2s-1.1 1.8-1.1 3.2c0 1.3.3 2.3 1 3s1.6 1.1 2.7 1.1c1 0 2-.2 2.7-.7v1.3z"/><path d="m37.6 14.3c0-.2.1-.5.3-.6s.4-.3.6-.3c.3 0 .5.1.6.3s.3.4.3.6-.1.4-.3.6-.4.3-.6.3c-.3 0-.5-.1-.6-.3s-.3-.4-.3-.6z"/><path d="m50.2 15h-1.6l-5.3-8.2c-.2-.2-.3-.5-.4-.7 0 .2.1.7.1 1.5v7.4h-1.4v-10.6h1.7l5.2 8.1c.2.4.4.6.4.7 0-.3-.1-.8-.1-1.5v-7.3h1.4z"/><path d="m58.6 15h-5.7v-10.6h5.5v1.2h-4.1v3.4h3.8v1.2h-3.8v3.6h4.3z"/><path d="m67.1 5.6h-3.1v9.4h-1.4v-9.4h-3v-1.2h7.5z"/></g><path d="m210.3 374.6c-3.53-6.41-4.69-13.19-4.97-20.17-.52-12.96-.15-26.02-1.63-38.86-2.24-19.43-5.98-38.68-8.63-58.06-1.53-11.18-2.45-22.47-3.1-33.75-.3-5.15-2.35-8.59-6.84-10.48-6.89-2.91-13.99-5.31-20.85-8.29-14.54-6.33-26.46-15.91-34.11-29.97-2.44-4.48-3.3-9.81-4.81-14.5 2.95-2.12 4.36-.95 5.98.52 9.28 8.41 18.36 17.07 28.06 24.97 8.08 6.59 17.9 9.42 28.28 10.3 2.42.21 3.65-.5 3.61-2.97-.04-2.67.42-5.49-.29-7.97-3.75-13.13-4.06-26.73-5.76-40.14-.85-6.66-1.37-13.35-2.15-20.02-.14-1.18-.66-2.36-1.17-3.46-6.45-14.01-12.91-28.01-19.41-42-.6-1.29-1.41-2.54-2.34-3.62-5.5-6.34-11.31-12.43-16.53-18.99-4.33-5.44-10-8.84-15.86-12.1-5.2-2.89-9.54-6.59-12.1-12.4 5.53-2.61 11.35-3.45 17.25-3.84 10.48-.69 20.96-1.32 31.45-1.89 1.42-.08 2.87.52 4.31.53 2.19.01 4.88.54 6.48-.49 4.63-2.98 9.25-2.2 13.82-.77 5.1 1.61 10.21 1.41 15.42 1.71 8.61.51 17.1 2.78 25.67 4.19 1.86.31 3.89.46 5.7.06 5.14-1.14 9.76.83 14.32 2.39 2.44.84 3.36 8.46 1.81 10.73-7.62 11.19-15.26 22.36-22.85 33.57-.73 1.08-1.08 2.42-1.77 3.54-1.16 1.88 1.16 5.23-2.57 6.07-.21.05-.19 1.25-.21 1.92-.16 4.47-.35 8.95-.45 13.42-.1 4.23-1.66 7.49-5.51 9.66-1.62.91-2.85 2.5-4.26 3.78.26.37.53.74.79 1.12.97-.44 1.94-.89 3.76-1.72.06 2.82 1.03 5.83.03 7.87-6.89 14.18-5.34 29.26-5.3 44.19.01 2.13.31 4.27.09 6.37-.19 1.78-.98 3.49-1.45 5.24-.4 1.48-1.12 3.01-1.02 4.47.2 2.89.73 5.77 1.4 8.59.75 3.21 3.39 4.23 6.21 2.57 13.1-7.72 26.37-15.18 39.22-23.29 5.62-3.55 10.4-8.45 15.55-12.74.85-.71 1.7-1.42 2.57-2.14 2.33 4.32 1.97 6.83-1.33 9.85-11.89 10.88-23.53 22.06-35.8 32.49-5.11 4.34-11.44 7.34-17.49 10.42-3.89 1.98-5.87 4.18-5.76 8.84.15 5.79-.67 11.61-1.08 17.41-.06.78-.04 1.6-.27 2.33-4.27 13.26-1.99 26.54.04 39.76.64 4.17.82 8.05-.36 12.17-.9 3.14-1.2 6.58-1.07 9.86.68 17.11 1.6 34.21 2.41 51.31.25 5.23.73 10.47.55 15.69-.17 4.12-1.91 5.76-5.68 6.72z" fill="#010105"/></svg>