<svg enable-background="new 0 0 400 400" viewBox="0 0 400 400" xmlns="http://www.w3.org/2000/svg"><path d="m186.64 375.14c-3.47-4.84-4.7-10.07-4.75-15.46-.18-19.35-.02-38.71-.16-58.06-.12-16.45-.52-32.9-.7-49.36-.06-5.53-2.25-9.87-6.36-13.48-7.23-6.36-14.33-12.86-21.53-19.25-1.06-.94-2.3-2.08-3.59-2.29-4.39-.71-7.23-3.36-10.17-6.44-3.5-3.68-7.59-6.84-11.58-10.01-5.93-4.72-11.63-9.55-13.47-17.4-.18-.76-.52-1.55-.44-2.28.17-1.56-1.75-3.52.88-4.64 2.42-1.03 4.39-2.29 7.1.25 7.43 6.96 15.26 13.5 22.93 20.2.76.66 1.44 1.51 2.32 1.93 10.48 5 19.46 12.21 28.67 19.11 1.19.9 2.72 1.35 4.93 2.41 0-4.71-.09-8.67.02-12.64.2-7.36.45-14.65-.56-22.06-.69-5.07.81-10.42 1.19-15.65.27-3.66.23-7.34.46-10.99.11-1.75.54-3.49.84-5.23.82-4.71 1.97-9.4 2.38-14.14.38-4.39-.87-8.33-3.84-12.07-3.01-3.79-4.78-8.55-7.24-12.81-1.1-1.91-2.34-3.82-3.88-5.37-2.26-2.28-4.3-4.41-3.92-8.03.11-1-.88-2.21-1.57-3.17-3.26-4.53-6.52-9.06-9.97-13.45-.66-.84-2.17-1.39-3.31-1.43-12.86-.47-25.74-.53-38.57-1.37-3.39-.22-7.11-2.1-9.83-4.28-3.66-2.93-2.38-9 1.57-10.05.63-.17 1.43-.38 1.96-.16 3.79 1.61 7.45.35 11.19-.18 2.48-.35 5.1.29 7.6 0 5.2-.6 10.35-1.6 15.54-2.29 2.73-.36 5.54-.81 8.25-.55 8.76.83 17.07-1.86 25.59-2.86 3.77-.44 7.55-.98 11.33-1.01 14.22-.12 28.44-.03 42.67-.08 1.53-.01 3.25-.06 4.56-.72 5.24-2.63 10.52-2.04 16-1.05 2.23.4 5.01.16 7-.85 9.82-5 20.12-4.24 30.49-3.09.97.11 1.98.48 2.83.97 3.27 1.93 3.53 6.12.62 8.45-3.66 2.93-7.88 4.17-12.5 4-4.02-.15-8.04-.77-12.05-.71-3.3.05-6.61.71-9.89 1.22-6.73 1.04-13.43 2.34-20.18 3.17-2.89.36-4.69 1.25-6.35 3.86-8.42 13.19-17 26.29-25.85 39.19-3.24 4.73-5.04 9.76-5.31 15.29-.83 16.75-1.57 33.51-2.05 50.27-.3 10.27-.05 20.56-.05 31.93 2.61-1.02 4.87-1.46 6.6-2.66 9.61-6.61 18.81-13.71 25.77-23.28.64-.88 1.61-1.54 2.49-2.22 10.2-7.84 20.42-15.65 30.62-23.5 2.6-2 7.05-2.24 8.43-.34 1.75 2.4.91 5.68-2.1 8.14-4.77 3.89-9.67 7.63-14.29 11.7-3.84 3.38-7.22 7.29-11.05 10.7-6.83 6.08-13.84 11.95-20.76 17.94-1 .87-2.3 1.68-2.79 2.81-3.07 7.17-8.94 11.89-14.39 17.02-2.1 1.98-4.07 4.18-5.7 6.55-2.24 3.28-3.16 6.94-3.05 11.08.47 17.45.83 34.91.82 52.37 0 6.12-1.33 12.22-1.74 18.35-.6 9.04-1.01 18.09-1.34 27.14-.23 6.49 0 12.99-.33 19.47-.18 4.61-.99 9.2-6.44 11.44zm3.95-266.55c6.32-7.94 12.22-15.52 18.33-22.93 2.02-2.44 2.76-4.97 2.37-8.2-12.92-.87-25.83-2.16-38.86 1.65 3.14 11.43 10.44 20.25 18.16 29.48z" fill="#010100"/><path d="m127.4 30.98c2.92.45 6 1.08 9.11 1.36 9.62.87 19.09-.02 28.66-1.58 8.78-1.43 17.82-1.45 26.75-1.74 12.3-.4 24.61-.39 36.9-.77 3.21-.1 6.49-.69 9.57-1.62 7.21-2.17 14.42-1.29 21.6-.27 1.42.2 3.25 1.53 3.81 2.81.95 2.2 1.11 4.51-1.46 6.49-5.36 4.12-11.5 5.08-17.94 5.58-3.95.31-7.83 1.43-11.78 1.86-5.31.57-10.68.68-15.99 1.27-3.15.35-6.22 1.35-9.37 1.8-1.93.27-3.97.32-5.88 0-6.16-1.04-12.11-1.84-18.53-.59-6.26 1.22-12.91.38-19.39.52-8.94.2-17.89.2-26.81.8-6.11.41-11.09-1.57-15.05-5.81-1.59-1.7-2.68-4.58-2.57-6.85.05-1.03 3.54-1.97 5.53-2.8.8-.35 1.76-.31 2.84-.46z" fill="#010100"/><g fill="#fcfafa"><path d="m342.2 3.2-6.3 9.2h6.1v1.2h-8.2v-.5l6.2-9.1h-5.7v-1.2h7.8v.4z"/><path d="m344 13.7v-10.9h3.1c1.6 0 3 .5 4.1 1.4 1.1 1 1.6 2.2 1.6 3.9s-.5 3-1.6 4-2.5 1.5-4.2 1.5h-3zm1.4-9.6v8.4h1.6c1.4 0 2.5-.4 3.2-1.1.8-.8 1.2-1.8 1.2-3.2s-.4-2.4-1.2-3.1-1.8-1-3.1-1z"/><path d="m356.3 2.8v10.9h-1.4v-10.9z"/><path d="m366.6 13.2c-.8.4-1.8.6-3 .6-1.6 0-2.8-.5-3.7-1.5s-1.4-2.3-1.4-3.9c0-1.7.5-3.2 1.6-4.2s2.4-1.6 4-1.6c1 0 1.9.1 2.6.4v1.5c-.8-.4-1.6-.6-2.6-.6-1.2 0-2.2.4-3 1.2s-1.1 1.9-1.1 3.3c0 1.3.4 2.3 1.1 3.1s1.6 1.1 2.8 1.1c1.1 0 2-.2 2.8-.7v1.3z"/><path d="m368.2 13c0-.3.1-.5.3-.6.2-.2.4-.3.6-.3.3 0 .5.1.7.3s.3.4.3.6-.1.5-.3.6c-.2.2-.4.3-.7.3s-.5-.1-.6-.3c-.2-.2-.3-.4-.3-.6z"/><path d="m381.1 13.7h-1.7l-5.5-8.4c-.2-.2-.3-.5-.4-.7 0 .2.1.8.1 1.5v7.6h-1.4v-10.9h1.8l5.3 8.3c.3.4.4.6.4.8 0-.3-.1-.8-.1-1.6v-7.5h1.4v10.9z"/><path d="m389.7 13.7h-5.8v-10.9h5.6v1.2h-4.2v3.5h3.9v1.2h-3.9v3.7h4.4z"/><path d="m398.4 4.1h-3.1v9.6h-1.4v-9.6h-3.1v-1.3h7.7v1.3z"/></g></svg>