<svg enable-background="new 0 0 400 400" viewBox="0 0 400 400" xmlns="http://www.w3.org/2000/svg"><path d="m120.13 161.36c1.8.43 3.32.79 4.84 1.15 8.7 2.07 13.1 8.52 11.87 17.37-1.29 9.23 3.83 17.7 13.46 22.6 6.58 3.35 13.69 4.1 20.85 4.35 7.93.27 15.87.09 23.81.19 1.94.02 2.96-.62 3.65-2.55 2.6-7.33 2.52-14.7.66-22.13-.18-.71-.63-1.44-1.17-1.94-10.76-10.15-19.02-22.25-27.07-34.52-6.26-9.56-12.81-18.87-21.32-26.66-4.41-4.04-9.3-6.11-15.33-6.33-11.61-.42-23.23-1.08-34.81-2.09-3.32-.29-6.62-1.89-9.71-3.35-1.49-.7-2.75-2.32-3.62-3.81-2.06-3.57-1.51-4.93 2.24-6.63 9.24-4.17 19.02-5.33 28.9-3.99 18.24 2.48 36.36 1.41 54.55-.43 20.59-2.09 41.2-3.9 61.81-5.83 18.15-1.7 36.29-3.6 54.47-4.96 5.24-.39 10.73.17 15.86 1.35 5.77 1.33 7.27 4.51 6.51 10.98-7.32 1.33-14.72 3.06-22.22 3.91-6.4.73-10.7 3.53-14.92 8.49-21.08 24.81-35.23 53.47-47.38 83.28-1.83 4.49-2.79 9.34-4.2 14.21 7.84 2.82 15.18 2.82 22.5.43 6.05-1.97 12.01-4.21 18.02-6.33.11-.04.23-.06.31-.13 6.21-5.71 12.94-11.27 15.89-19.33 2.2-6 2.51-12.68 3.79-19.03 1.06-5.21 4.11-8.81 9.39-10.71 4.34 6.51 5.57 13.8 3.91 21.12-1.97 8.68-5.05 17.11-7.73 25.62-.32 1.02-1.04 1.98-1.77 2.78-10.81 11.93-23.96 19.61-40.02 22.01-5.42.81-10.82 1.7-16.21 2.71-1.62.3-3.23.93-4.69 1.72-2.73 1.47-4.24 3.49-3.91 7.01 1.45 15.71 2.96 31.42 3.78 47.17.33 6.38-1.15 12.83-1.66 19.27-.44 5.55-.92 11.11-.92 16.67 0 7.94.44 15.88.65 23.82.03 1.1-.07 2.25-.38 3.3-2.49 8.42-3.64 16.99-3.57 25.79.05 6.09-2.69 8.2-8.64 7.8-1.78-.12-2.46-.68-2.66-2.54-1.71-16.24-3.53-32.47-5.32-48.7-1.84-16.68-4-33.33-5.36-50.04-.56-6.94.49-14.03.99-21.03.43-6.02 1.14-12.03 1.66-18.05.37-4.3-1.13-6.85-5.38-7.96-3.2-.83-6.61-1.08-9.94-1.19-9.6-.34-19.22-.15-28.47-3.57-17.75-6.55-30.59-17.82-35.67-36.59-2.21-8.04-1.9-16.17-.32-24.68zm91.41 9.6c5.7-8.5 10.94-16.28 16.11-24.1.59-.9.85-2.06 1.1-3.13 1.55-6.63 3.28-13.24 4.5-19.94.83-4.58 1.11-9.3 1.22-13.96.03-1.1-1.46-3.1-2.44-3.24-5.74-.76-11.57-1.74-17.3-1.43-12.28.67-24.51 2.07-36.76 3.19-2.91.27-5.82.6-9.04.94 15.28 19.97 34.43 36.55 42.61 61.67z" fill="#010102"/><path d="m102.81 40.35c15.54-1.77 31.06-3.78 46.63-5.26 24.84-2.36 49.72-4.21 74.56-6.56 19.98-1.89 39.95-2.79 59.97-.88 4.51.43 8.82 1.73 12.12 5.12s3.16 5.28-.55 7.94c-5.91 4.25-12.7 5.31-19.76 5.16-6.6-.15-13.21-.85-19.78-.52-6.22.31-12.45 1.34-18.56 2.61-12.67 2.65-25.42 3.68-38.34 3.23-5.59-.19-11.21.21-16.79-.08-16.35-.85-32.3 2.47-48.41 4.18-1.6.17-3.34.03-4.89-.41-6.23-1.78-12.32-4.19-18.64-5.5-5.14-1.06-6.95-4.06-7.56-9.03z" fill="#010102"/><g fill="#fafbfa"><path d="m6.4 11.7c-1-.8-1.9-1.6-2.9-2.3l.6-.7c.9.7 1.9 1.4 2.9 2.2zm-2.1 8.3c.7-2.1 1.4-4.2 2-6.4.2.1.6.3 1 .4-.7 2.3-1.3 4.4-1.9 6.4zm3-12.8c-1.1-.9-2.1-1.7-2.9-2.4l.6-.7c1 .8 2 1.5 3 2.4zm1.4-1.3v-.9h10.2v.9c-.9 4.2-2.3 7.3-4.1 9.4 1.3 1.4 3.2 2.7 5.7 4-.2.2-.4.5-.7.9-2.5-1.4-4.4-2.7-5.7-4.2-1.4 1.5-3.5 3-6.1 4.4 0 0 0 0-.1-.1-.3-.4-.5-.7-.7-.8 2.7-1.3 4.7-2.8 6.2-4.2-1.8-2.2-3-5.3-3.7-9.4zm9.2 0h-7.1c.6 3.8 1.7 6.7 3.4 8.7 1.7-2 2.9-4.8 3.7-8.7z"/><path d="m31.6 3.6h.9v2.3h4.1v9.1h1.7v.9h-16.6v-.9h1.7v-9.1h4.1v-2.3h.9v2.3h3.1v-2.3zm-4 13.3.6.8c-1.9.9-3.8 1.9-5.8 2.8-.2-.3-.3-.6-.5-.9 2-.9 3.9-1.8 5.7-2.7zm-3.2-10.1v3.7h3.1v-3.7zm0 4.5v3.7h3.1v-3.7zm4.1-4.5v3.7h3.1v-3.7zm0 4.5v3.7h3.1v-3.7zm9.1 9.1c-2.1-1.1-4.1-2-5.8-2.7l.5-.8c2.2.9 4.1 1.8 5.8 2.6zm-1.9-13.6h-3.1v3.7h3.1zm-3.2 4.5v3.7h3.1v-3.7z"/></g></svg>