<svg enable-background="new 0 0 400 400" viewBox="0 0 400 400" xmlns="http://www.w3.org/2000/svg"><g fill="#fafafb"><path d="m12.4 4.8-6.1 9h6v1.2h-8v-.5l6.1-8.9h-5.7v-1.2h7.6v.4z"/><path d="m14 15v-10.6h3c1.6 0 2.9.5 4 1.4s1.6 2.2 1.6 3.8-.5 3-1.6 3.9-2.4 1.5-4 1.5zm1.4-9.4v8.2h1.6c1.3 0 2.4-.4 3.1-1.1s1.1-1.8 1.1-3.1-.4-2.3-1.2-3-1.8-1-3.1-1z"/><path d="m26.1 4.4v10.6h-1.4v-10.6z"/><path d="m36.1 14.6c-.8.4-1.8.6-2.9.6-1.5 0-2.7-.5-3.6-1.4s-1.4-2.2-1.4-3.8c0-1.7.5-3.1 1.5-4.1s2.3-1.6 3.9-1.6c1 0 1.8.1 2.5.4v1.4c-.8-.4-1.6-.6-2.5-.6-1.2 0-2.1.4-2.9 1.2s-1.1 1.8-1.1 3.2c0 1.3.3 2.3 1 3s1.6 1.1 2.7 1.1c1 0 2-.2 2.7-.7v1.3z"/><path d="m37.6 14.3c0-.2.1-.5.3-.6s.4-.3.6-.3c.3 0 .5.1.6.3s.3.4.3.6-.1.4-.3.6-.4.3-.6.3c-.3 0-.5-.1-.6-.3s-.3-.4-.3-.6z"/><path d="m50.2 15h-1.6l-5.3-8.2c-.2-.2-.3-.5-.4-.7 0 .2.1.7.1 1.5v7.4h-1.4v-10.6h1.7l5.2 8.1c.2.4.4.6.4.7 0-.3-.1-.8-.1-1.5v-7.3h1.4z"/><path d="m58.6 15h-5.7v-10.6h5.5v1.2h-4.1v3.4h3.8v1.2h-3.8v3.6h4.3z"/><path d="m67.1 5.6h-3.1v9.4h-1.4v-9.4h-3v-1.2h7.5z"/></g><path d="m127.88 132.31c3.9-2.02 6.53-.83 9.41 1.87 14.24 13.35 30.33 23.69 49.6 28.09 7 1.6 14.25 2.12 22.01 3.22-.94-7.56-2.27-14.05-2.45-20.58-.33-11.55-6.93-20.57-11.31-30.5-6.95-15.73-18.95-27.2-32.01-37.75-6.27-5.06-12.89-9.73-18.82-15.15-5.83-5.33-12.63-6.98-20.04-6.92-6.59.06-13.17.73-19.76.93-2.77.09-5.75.24-8.27-.67-2.44-.87-5.1-2.63-6.43-4.77-2.92-4.7-1.47-7.84 3.68-9.58 14.16-4.78 28.81-7.4 43.59-9.04 18.32-2.04 36.7-4.03 55.1-4.8 11.44-.48 22.96 1.57 34.46 2.07 9.25.4 18.53.64 27.53-2.69 2.11-.78 4.83.08 7.27.19 9.94.45 19.9.72 29.82 1.45 3.38.25 6.8 1.33 9.96 2.63 1.81.75 3.52 2.46 4.59 4.16 2.11 3.38 1.54 5.8-2.15 7.11-14.18 5.03-22.48 16.2-29.53 28.36-12.55 21.66-24.6 43.62-36.75 65.52-.67 1.21-.58 3.03-.39 4.51.85 6.32 1.83 12.61 2.83 18.91.75 4.72 4.72 7.12 9.24 5.24 2.4-1 4.85-2.49 6.59-4.4 7.08-7.78 14.21-15.56 20.64-23.86 2.92-3.77 4.24-8.78 6.37-13.18.51-1.05 1.13-2.32 2.06-2.83 3.1-1.71 4.08-1.21 5.47 2.14 2.19 5.3 2.39 10.63.39 16.03-2.85 7.71-6.9 14.59-12.2 21.02-8.75 10.62-18.76 19.28-31.33 25.04-5.28 2.42-6.95 6.6-6.52 12.48.64 8.72 3.24 16.85 6.73 24.78 3.02 6.85 6 13.71 8.75 20.67.62 1.58.64 3.72.15 5.37-1.64 5.57-3.35 11.15-5.56 16.51-5.38 13.09-7.18 26.91-9.04 40.76-1.84 13.7-2.91 27.55-7.98 40.69-1.24 3.23-.38 7.27-.46 10.95-.08 4.01.09 8.04-.3 12.02-.16 1.62-1.22 3.42-2.39 4.63-3.22 3.32-6.1 3.01-7.78-1.16-1.9-4.72-4.02-9.7-4.28-14.66-.83-15.91-4.79-31.12-8.93-46.33-5.67-20.8-11.57-41.53-17.17-62.34-2.18-8.08-1.83-16.05 1.66-23.93 4.02-9.09 7.4-18.46 11.33-27.59 1.33-3.07.59-5.08-1.7-7.01-4.4-3.7-9.83-4.66-15.21-5.66-5.6-1.05-11.25-1.86-16.86-2.88-9.27-1.69-16.68-6.86-23.4-13.07-9.35-8.63-16.91-18.48-19.64-31.31-.14-.65-.3-1.31-.37-1.97-.12-.87-.14-1.77-.2-2.72zm94.73-15.49c1.69-2.35 3.33-4.02 4.24-6.03 4.25-9.36 8.2-18.85 12.45-28.22 3.08-6.8 6.57-13.42 9.64-20.23 1.26-2.81 2.33-5.84 2.7-8.87.43-3.6-1.13-5.05-4.71-5.48-3.66-.45-7.36-.66-11-1.26-17.55-2.94-35.14-3.03-52.78-1.01-4.52.52-8.93 1.52-13.01 4.18 17.4 22.19 34.58 44.1 52.47 66.92z" fill="#010105"/></svg>