<svg enable-background="new 0 0 400 400" viewBox="0 0 400 400" xmlns="http://www.w3.org/2000/svg"><path d="m362.1 8.8c1.1.8 2.1 1.6 3.1 2.4l-1 1.1c-1.3-1.1-2.3-2-3-2.5zm1.9 4.8c.5.2.9.4 1.4.5-.6 2.3-1.3 4.5-1.9 6.8l-1.5-.5c.8-2.1 1.4-4.3 2-6.8zm-1-9.4c1.3.9 2.4 1.8 3.4 2.5l-1 1.1c-1.4-1.2-2.4-2.1-3.2-2.6zm3.7 2.2v-1.4h10.3v1.2c-.5 3.6-1.8 6.8-4 9.4 1.5 1.6 3.4 2.8 5.7 3.8-.3.4-.7.8-1.1 1.4-2.3-1.1-4.1-2.5-5.6-4.1-1.6 1.6-3.6 3.1-5.9 4.3-.3-.5-.7-.9-1-1.3 2.4-1.1 4.4-2.5 6-4.1-1.9-2.5-3-5.6-3.3-9.3h-1.1zm8.8 0h-6.4c.3 3.3 1.3 6 3 8.2 2-2.3 3.1-5.1 3.4-8.2z" fill="#fbfafc"/><path d="m385.3 3.8h1.3v2.2h2.8v-2.2h1.3v2.2h4.1v9.1h1.7v1.3h-16.9v-1.3h1.7v-9.1h4.1v-2.2zm.4 13.1.7 1.2c-1.8.9-3.8 1.9-6 2.9-.2-.4-.5-.8-.8-1.3 2.3-1 4.3-1.9 6.1-2.8zm-3.1-6.4h2.8v-3.2h-2.8zm0 4.6h2.8v-3.3h-2.8zm4-4.6h2.8v-3.2h-2.8zm0 4.6h2.8v-3.3h-2.8zm3.7 1.9c2.1.9 4.1 1.8 6.1 2.7l-.7 1.3c-2.2-1.1-4.2-2-6.1-2.9zm3.2-9.7h-2.8v3.2h2.8zm-2.8 7.8h2.8v-3.3h-2.8z" fill="#fbfafc"/><g fill="#000001"><path d="m211.29 375.32c-2.94-6.75-3.2-13.57-2.28-20.36 1.31-9.63 3.4-19.16 4.59-28.8.89-7.19.95-14.48 1.27-21.73.26-6.03.42-12.07.51-18.11.02-1.65-.18-3.38-.66-4.94-1.36-4.39-3-5.29-7.59-4.68-7.1.93-14.19 2.43-21.3 2.51-4.75.05-9.7-1.46-14.24-3.13-10.33-3.8-20.12-8.75-27.96-16.76-4.83-4.94-7.8-10.83-8.43-18.19 4.23.11 8.18.6 11.49 3.07 4.3 3.21 8.61 3.34 13.78 2.03 14.84-3.77 29.81-7.03 44.77-10.29 2.9-.63 4.17-2.24 4-4.78-.26-3.75-.7-7.55-1.64-11.18-1.05-4.1-3.02-7.96-4.07-12.06-.82-3.2-2.88-4.54-5.61-5.51-4.68-1.68-9.46-1.59-14.24-.69-18.79 3.55-36.97.42-54.91-5.02-12.99-3.94-25.69-8.57-36.47-17.2-6.79-5.43-12.32-11.87-16.18-20.48 4.95 1.32 9.35 2.49 13.73 3.68 6.26 1.69 12.57 3.22 18.75 5.16 6.05 1.9 11.83 4.77 17.96 6.26 15.82 3.84 32 5.78 48.23 5.15 9.86-.38 19.65-2.86 29.64-4.42-.07-2.97-.95-4.99-3.23-6.71-5.43-4.12-11.42-6.93-17.91-8.89-9.85-2.98-19.77-5.94-27.47-13.35-2-1.93-4-3.98-5.45-6.31-2.11-3.38-4.99-5.48-8.73-6.26-3.6-.75-7.27-1.22-10.94-1.45-1.38-.09-3.1.49-4.2 1.35-8.89 7.05-18.8 9.23-29.65 6.08-8.03-2.33-15.87-5.33-23.88-7.73-4.48-1.34-6.29-4.1-5.88-8.98 1.09-.32 2.41-.8 3.76-1.11 28.03-6.48 55.16-15.77 82.22-25.49 26.22-9.41 53.19-16.32 80.83-20.45 8.87-1.32 17.35.5 26 1.25 12.48 1.08 24.98 1.98 37.43 3.35 9.08 1 18.05 2.93 24.5 10.19 2.13 2.4 3.35 5.61 5.11 8.66-8.32 4.29-16.17 4.43-24.12 2-3.84-1.17-7.52-2.85-11.26-4.32-8.94-3.52-17.66-3.54-26.05 1.64-.29.18-.57.36-.82.58-.15.13-.24.34-.45.66.2.31.39.7.65 1.03 8.92 11.5 8.34 24.96-1.62 35.87-7.85 8.6-15.75 17.15-23.62 25.73-.43.47-.81 1-1.75 2.16 6.22-1.18 11.66-2.21 17.1-3.24.88-.17 1.75-.38 2.63-.5 5.26-.75 9.82-2.71 14.32-5.81 13.82-9.54 28.38-17.87 43.81-24.6 1.84-.8 3.72-1.59 5.67-2.04 1.45-.33 4.13-.59 4.37-.05.87 1.98 1.32 4.34 1.2 6.51-.08 1.39-1.28 2.84-2.26 4.03-6.72 8.24-13.45 16.47-20.29 24.61-6.54 7.79-15.1 12.5-24.65 15.51-12.36 3.9-24.81 7.51-37.1 11.61-5.16 1.72-10.01 4.36-15.2 6.68.42 1.13.67 1.95 1.03 2.71 4.32 9.21 8.92 18.3 12.86 27.67 1.8 4.29 4.74 5.48 8.73 5.75 7.29.48 14.16-1.39 21.08-3.35 4.02-1.14 8.28-2.02 12.43-1.97 5.24.05 10.51 7.19 9.62 12.25-.14.82-1.08 1.59-1.81 2.19-9.47 7.74-20.52 12.51-31.66 17.26-5.32 2.27-10.27 5.84-14.72 9.61-3.86 3.26-6.01 7.95-6.38 13.27-.96 14.06-2.06 28.12-3.02 42.18-.71 10.43-3.63 20.2-8.34 29.48-2.43 4.78-4.77 9.61-7.27 14.35-1.82 3.43-4.08 6.45-8.76 6.86zm-45.02-255.78c1.89 1.4 3.22 2.87 4.87 3.51 5.37 2.09 11.42 2.98 16.19 5.97 7.89 4.95 15.08 11.06 22.37 16.91 3.88 3.11 9.07 3.94 12.17.87 9.63-9.53 16.65-20.69 20.12-33.89.85-3.25.18-6.35-2.61-8.46-3.92-2.96-8.56-4.18-13.3-3.23-10.72 2.17-21.36 4.79-32.04 7.18-9.53 2.15-18.59 5.44-27.77 11.14z"/><path d="m267.14 39.17c-4.19 3.89-8.83 6.65-14.51 6.01-16.75-1.9-31.86 4.56-47.39 8.91-8.28 2.32-16.42 5.17-24.76 7.2-7.56 1.84-14 5.73-20.58 9.5-1.17.67-2.75 1.19-4.03 1.01-10.4-1.47-20.85-2.77-31.13-4.84-6.91-1.39-12.31-5.43-14.94-12.96 5.94-1.2 11.68-2.36 17.42-3.5 10.63-2.1 21.26-4.16 31.88-6.3 1.52-.31 3.06-.76 4.43-1.47 14.73-7.62 30.5-11.87 46.68-15.04 6.53-1.28 12.86-1.87 19.53-1.05 6.18.76 12.5.22 18.76.37 8.65.2 14.66 4.52 18.64 12.16z"/></g></svg>