<svg enable-background="new 0 0 400 400" viewBox="0 0 400 400" xmlns="http://www.w3.org/2000/svg"><path d="m362.1 8.8c1.1.8 2.1 1.6 3.1 2.4l-1 1.1c-1.3-1.1-2.3-2-3-2.5zm1.9 4.8c.5.2.9.4 1.4.5-.6 2.3-1.3 4.5-1.9 6.8l-1.5-.5c.8-2.1 1.4-4.3 2-6.8zm-1-9.4c1.3.9 2.4 1.8 3.4 2.5l-1 1.1c-1.4-1.2-2.4-2.1-3.2-2.6zm3.7 2.2v-1.4h10.3v1.2c-.5 3.6-1.8 6.8-4 9.4 1.5 1.6 3.4 2.8 5.7 3.8-.3.4-.7.8-1.1 1.4-2.3-1.1-4.1-2.5-5.6-4.1-1.6 1.6-3.6 3.1-5.9 4.3-.3-.5-.7-.9-1-1.3 2.4-1.1 4.4-2.5 6-4.1-1.9-2.5-3-5.6-3.3-9.3h-1.1zm8.8 0h-6.4c.3 3.3 1.3 6 3 8.2 2-2.3 3.1-5.1 3.4-8.2z" fill="#fbfafc"/><path d="m385.3 3.8h1.3v2.2h2.8v-2.2h1.3v2.2h4.1v9.1h1.7v1.3h-16.9v-1.3h1.7v-9.1h4.1v-2.2zm.4 13.1.7 1.2c-1.8.9-3.8 1.9-6 2.9-.2-.4-.5-.8-.8-1.3 2.3-1 4.3-1.9 6.1-2.8zm-3.1-6.4h2.8v-3.2h-2.8zm0 4.6h2.8v-3.3h-2.8zm4-4.6h2.8v-3.2h-2.8zm0 4.6h2.8v-3.3h-2.8zm3.7 1.9c2.1.9 4.1 1.8 6.1 2.7l-.7 1.3c-2.2-1.1-4.2-2-6.1-2.9zm3.2-9.7h-2.8v3.2h2.8zm-2.8 7.8h2.8v-3.3h-2.8z" fill="#fbfafc"/><g fill="#000001"><path d="m270.34 160.88c1.58 1.42 2.02 1.94 2.57 2.31 11.75 7.79 17.45 19.47 20.68 32.61 3.61 14.66 5.12 29.47 3.2 44.58-1.01 7.97-5.61 14.03-10.48 19.48-11.62 13-25.06 23.96-40.97 31.52-1.5.71-3.1 1.23-4.68 1.8-6.49 2.34-13.04 4.54-19.47 7.04-5.88 2.28-11.71 4.28-18.2 3.6-3.87-.41-7.03-1.31-7.78-6.27 3.05-1.45 6.31-3.07 9.63-4.57 11.7-5.28 23.89-9.67 35.01-15.98 16.27-9.24 29.59-22.09 38.72-38.66 6.76-12.26 7.22-25.39 3.73-38.76-.7-2.67-5.59-4.27-8.36-2.84-15.48 8.02-31.07 15.86-46.38 24.19-7.39 4.02-15.48 5.01-23.4 6.71-3.86.83-5.39 2.13-5.94 6.25-3.21 24.28-6.77 48.51-10.36 72.74-.42 2.84.41 4.16 3.08 4.68 6.46 1.26 12.9 2.68 19.38 3.82 6.74 1.19 10.42 4.84 10.5 10.59.03 1.93-.53 2.82-2.53 3.05-8.55.97-17.09 2.03-25.64 3.1-1.66.21-3.31.55-4.95.87-5.78 1.15-9.76 3.92-11.44 10.16-1.87 6.99-4.57 13.79-7.24 20.54-2.01 5.07-4.8 9.6-10.73 11.11-2.41.62-4-.08-4.07-2.39-.13-3.94-.34-8.04.58-11.82 1.2-4.96 3.87-9.55 5.17-14.49 2.81-10.74 1.93-12.67-9.2-16.69-2.27-.82-4.79-1.03-7.22-1.32-7.54-.89-11.42-4.42-12.85-11.88-.19-.98-.32-1.98-.55-3.41 7.09-.26 14.07-.38 21.03-.8 5.02-.31 10.07-.69 14.98-1.7 1.85-.38 3.99-2.28 4.82-4.04 1.54-3.29 2.31-6.96 3.22-10.51 1.25-4.85 1.96-9.89 3.59-14.6 3.76-10.88 3.48-22.27 4.51-33.47.66-7.09.12-14.28.12-21.79-4.36.85-9.37.31-13.84 3.79-6.92 5.39-15.31 7.64-23.71 9.72-12.58 3.11-25.12 6.37-37.69 9.5-1.61.4-3.3.51-4.96.65-2.77.24-4.48-.9-4.72-4.13 3.02-1.65 6.13-3.36 9.26-5.04 15.95-8.58 32.01-16.96 47.8-25.84 5.88-3.31 11.22-7.63 16.6-11.76 3.53-2.71 6.62-6.01 11.42-6.77.69 1.08 1.34 2.1 1.99 3.12.35.01.7.02 1.05.04.08-3.15.75-6.43.11-9.43-1.08-5.14-.85-9.79 1.28-14.67 1.03-2.37.92-5.47.59-8.14-.72-5.95-.22-11.71.67-17.63.74-4.95 0-10.19-.47-15.26-.75-8-1.82-15.98-2.78-24.19-8.82 2.12-17.48 3.83-25.91 6.35-7.71 2.3-15.23 2.62-23.09 1.05-6.48-1.29-13.03-2.04-18.71-5.79-2.21-1.46-3.93-.3-4.55 1.55-2.81 8.33-5.36 16.76-7.97 25.16-.7 2.25.24 3.7 2.17 4.98 8.52 5.61 17.44 5.61 26.61 2.04 8.78-3.42 17.01-7.82 24.73-13.32 4.61-3.29 9.83-5.74 14.94-8.67 2.26 2.99 2.25 6.02.23 8.7-4.92 6.51-9.69 13.21-15.27 19.13-6.2 6.59-14.58 9.48-23.46 10.39-9.38.96-18.79.91-28.01-1.39-1.62-.4-3.35-1.67-4.34-3.04-9.38-12.87-10.39-27-6.9-42.18 2.41-10.51 6.39-19.9 13.93-27.65 2.1-2.16 2.7-4.63 2.59-7.6-.23-6.25-.35-12.52-.07-18.77.1-2.22 1.49-4.38 2.35-6.72 3.83 2.51 6.97 4.36 9.88 6.54 2.61 1.95 3.75 4.93 3.25 8.04-.77 4.72-2.03 9.36-3.17 14.01-1.11 4.55-2.43 9.05-3.47 13.62-.47 2.08.16 3.21 2.77 3.81 9.33 2.14 18.49.36 27.7-.5 8.24-.76 16.46-1.73 24.7-2.58 4.87-.5 6.74-2.1 7.2-7 .26-2.75.17-5.62-.3-8.35-1.77-10.47-3.59-20.93-5.71-31.33-1.69-8.31-3.84-16.52-5.8-24.83 6.52-1 11.14 2.13 15 6.87 4.27 5.25 6.31 11.49 8.02 17.91 4.09 15.31 6.09 30.91 6.99 46.69.08 1.46.9 3.59 1.99 4.09 1.04.47 3.3-.36 4.27-1.35 13.98-14.2 29.86-26.91 37.16-46.44.49-1.32.66-2.78.79-4.2.13-1.43.03-2.87.03-4.33 4.14-1 7.36-.61 9.46 3.5 1.16 2.27 2.82 4.31 4.47 6.28 3.69 4.41 6.06 9.26 6.4 15.12.07 1.21 1.15 2.64 2.17 3.48 6.56 5.41 13.13 10.82 19.89 15.98 9.58 7.31 12.9 17.4 12.85 28.83-.05 10.92-4.25 20.19-12.5 27.53-3.93 3.49-7.77 7.09-11.71 10.57-1.93 1.71-4 3.26-6.28 5.1zm-62.9 8.02c1.35-.49 2.4-.81 3.4-1.24 8.32-3.57 16.71-6.96 24.91-10.78 15.24-7.11 28.88-16.18 39.41-29.85 5.08-6.59 7.16-13.36 7.35-21.24.15-6.17-2.11-11.08-7.77-13.72-6.26-2.91-12.72-5.39-19.19-7.82-.97-.36-2.62.24-3.6.91-14.79 10.08-29.52 20.24-44.24 30.41-.79.55-1.86 1.29-2 2.09-1.12 6.19-1.79 12.39 2.07 18.81 4.75-2.1 9.6-3.81 14.02-6.29 10.97-6.15 19.63-15.12 28.15-24.18 1.89-2.01 3.68-3.08 6.36-2.1.52 2.78.86 5.57 1.59 8.26 1 3.69.09 6.84-2.13 9.75-5.36 7.01-11.66 12.99-19.38 17.33-9.16 5.15-18.42 10.11-27.57 15.27-.97.55-2.15 1.85-2.15 2.8.01 3.75.46 7.51.77 11.59zm-4.76 50.23c3.71-1.44 7.19-2.63 10.54-4.11 18.62-8.2 37.05-16.78 53.43-29.1 4.04-3.03 5.34-7.05 2.79-11.38-1.91-3.24-4.91-5.91-7.76-8.47-.78-.7-2.91-.45-4.15.04-8.29 3.24-16.44 6.88-24.78 9.98-8.36 3.1-16.89 5.73-25.34 8.57-2.56.86-3.97 2.5-4.28 5.33-.38 3.43-1.3 6.81-1.74 10.24-.8 6.17-1.68 12.4 1.29 18.9z"/><path d="m99.06 184.04c7.64-.9 15.26-2.13 22.93-2.63 11.93-.77 22.73-5.44 33.85-9.02 4.04-1.3 7.97-2.99 12.08-3.96 2.25-.54 4.88-.36 7.14.23 2.59.67 3.22 3.76 1.23 5.57-13.14 11.98-27.08 22.72-44.62 27.56-8.51 2.35-15.95.17-22.5-5.62-1.75-1.54-3.99-2.57-5.61-4.21-2.02-2.04-3.64-4.48-5.44-6.74.32-.4.63-.79.94-1.18z"/><path d="m271.05 209.06c3.54 2.53 5.32 5.7 5.69 9.72.73 7.79-1 14.4-8.57 18.29-5.45 2.8-10.73 6-16.37 8.31-12.81 5.23-25.74 10.22-38.77 14.87-3.64 1.3-7.83 1.24-11.78 1.41-.92.04-2.52-1.38-2.74-2.36-.4-1.81-.55-3.58 2.11-4.79 10.75-4.91 21.56-9.79 31.88-15.52 13.25-7.35 25.08-16.78 35.9-27.42.8-.8 1.62-1.55 2.65-2.51z"/></g></svg>