<svg enable-background="new 0 0 400 400" viewBox="0 0 400 400" xmlns="http://www.w3.org/2000/svg"><g fill="#fafafb"><path d="m12.4 4.8-6.1 9h6v1.2h-8v-.5l6.1-8.9h-5.7v-1.2h7.6v.4z"/><path d="m14 15v-10.6h3c1.6 0 2.9.5 4 1.4s1.6 2.2 1.6 3.8-.5 3-1.6 3.9-2.4 1.5-4 1.5zm1.4-9.4v8.2h1.6c1.3 0 2.4-.4 3.1-1.1s1.1-1.8 1.1-3.1-.4-2.3-1.2-3-1.8-1-3.1-1z"/><path d="m26.1 4.4v10.6h-1.4v-10.6z"/><path d="m36.1 14.6c-.8.4-1.8.6-2.9.6-1.5 0-2.7-.5-3.6-1.4s-1.4-2.2-1.4-3.8c0-1.7.5-3.1 1.5-4.1s2.3-1.6 3.9-1.6c1 0 1.8.1 2.5.4v1.4c-.8-.4-1.6-.6-2.5-.6-1.2 0-2.1.4-2.9 1.2s-1.1 1.8-1.1 3.2c0 1.3.3 2.3 1 3s1.6 1.1 2.7 1.1c1 0 2-.2 2.7-.7v1.3z"/><path d="m37.6 14.3c0-.2.1-.5.3-.6s.4-.3.6-.3c.3 0 .5.1.6.3s.3.4.3.6-.1.4-.3.6-.4.3-.6.3c-.3 0-.5-.1-.6-.3s-.3-.4-.3-.6z"/><path d="m50.2 15h-1.6l-5.3-8.2c-.2-.2-.3-.5-.4-.7 0 .2.1.7.1 1.5v7.4h-1.4v-10.6h1.7l5.2 8.1c.2.4.4.6.4.7 0-.3-.1-.8-.1-1.5v-7.3h1.4z"/><path d="m58.6 15h-5.7v-10.6h5.5v1.2h-4.1v3.4h3.8v1.2h-3.8v3.6h4.3z"/><path d="m67.1 5.6h-3.1v9.4h-1.4v-9.4h-3v-1.2h7.5z"/></g><path d="m222.47 311.9c4.37-.33 4.96-2.68 4.79-5.54-.69-11.17-1.63-22.33-2.04-33.51-.55-14.98-.88-29.98-.89-44.97 0-4.98 1.35-9.96 1.95-14.95.32-2.65.33-5.34.52-8 .74-10.23 1.55-20.45 2.25-30.69.71-10.44-.18-20.76-2.07-31.05-.79-4.31-3.26-7.33-5.56-10.78-4.07-6.13-9.29-8.3-16.36-7.42-2.97.37-6.03-.03-9.06-.05-2.89-.02-5.79 0-9.22 0-1.31 6.37-2.69 13.1-4.16 20.23 4.12.63 8.06 1.21 12 1.86 3.93.64 5.28 3.15 3.11 6.65-2.52 4.08-5.46 7.9-8.35 11.73-2.08 2.75-4.38 5.32-6.23 7.55 3.32 4.12 6.43 7.86 9.37 11.73.6.79.53 2.07.77 3.13-.21.33-.43.66-.64.99-2.92-1.25-6.29-1.95-8.68-3.87-5.43-4.37-10.02-3.92-13.37 2.2-1.11 2.03-2.09 4.25-2.55 6.5-.92 4.5.54 6.7 4.62 8.71 1.02.5 1.57 1.95 2.33 2.97-1.07.78-2.07 2.1-3.24 2.26-6.74.96-10.79-2.32-10.88-9.06-.11-7.48 1.13-14.47 6.75-20.35 6.39-6.69 12.13-14.01 18.67-21.66-2.99-.52-5.34-1.13-7.71-1.28-2.78-.19-5.59.11-8.39.04-8.04-.2-13.66-5.67-13.29-13.71.22-4.73 1.15-9.58 2.7-14.05 1.45-4.19 1.26-7.02-2.66-9.54-4.92-3.17-7.82-8.02-7.7-13.77.19-8.92 1.81-17.51 9.51-23.64 2.85-2.26 5.46-4.93 7.75-7.75 1.76-2.17.88-3.86-2.04-4.37-4.74-.83-8.86.8-12.66 3.24-3.88 2.5-7.54 5.22-7.19 10.81.08 1.23-1.7 2.57-2.91 4.25-2.45-3.43-3.17-6.69-2.63-10.01 2.13-13.17.45-10.73 12.54-14.09 4.13-1.15 8.65-1.46 12.01-6.42-4.41-.82-8.26-1.53-12.1-2.26-1.84-.35-3.82-.44-5.49-1.19-3.05-1.37-4.21-4.21-3.5-7.45.52-2.4.95-4.83 1.6-7.2.63-2.31.52-4.14-1.42-5.99-2-1.91-1.26-4.3 1.34-5.09 3.24-.98 6.32-2.93 10.01-1.52 3.15 1.2 3.81 2.28 2.97 5.51-.59 2.26-1.07 4.56-1.4 6.87-.38 2.7 1.15 4.38 3.64 4.76 3.49.53 6.9 1.01 9.9-2.16 3.44-3.63 8.01-4.75 12.98-3.6 3.48.8 7.02 1.48 10.4 2.59 2.42.8 5.36 1.67 6.78 3.5 2.77 3.58 3.79 8.05 2.99 12.71-.17.99-.43 1.97-.54 2.97-.86 8.17-6.46 11.66-13.5 13.69-1.82.52-3.7.89-5.58 1.17-2.99.45-5.52 1.35-7 4.36-.43.87-1.89 1.32-2.95 1.76-1.11.46-2.32.69-3.49 1.02.09.42.18.85.27 1.27 3.89-.49 7.89-.59 11.67-1.55 12.55-3.22 25.04-6.71 37.5-10.27.98-.28 2.08-1.86 2.24-2.97 1.37-9.86 2.53-19.75 3.76-29.63.07-.55.17-1.09.42-2.64 1.55 1.43 3.27 2.25 3.64 3.48 3.03 9.96 5.97 20.04 5.35 30.56-.23 3.94-1.96 7.93-3.58 11.64-5.01 11.46-13.8 17.96-26.3 19.72-5.05.71-10.04 2.19-14.92 3.74-3.83 1.22-5.32 4.8-3.82 8.52.34.84 1.81 1.48 2.88 1.74 8.42 2.07 16.89 1.26 25.36.35 10.64-1.14 19.69 1.76 26.38 10.52.58.76 1.26 1.74 1.25 2.61-.14 13.42.88 27.02-.99 40.2-1.65 11.61-3.44 23.19-4.24 34.88-.88 12.83-1.34 25.7-1.85 38.56-.57 14.54-1.41 29.08-1.37 43.62.06 19.62 3.45 38.67 11.91 56.61 1.55 3.29 2.27 6.97 3.55 10.41 1.52 4.07 3.29 8.05 4.81 12.12.81 2.18 1.55 4.43 1.92 6.72.48 2.95-1.45 4.98-4.26 4.12-2.14-.65-4.64-2.06-5.73-3.88-7.03-11.77-10.68-24.83-13.18-38.15-1.42-7.63-3.52-14.7-9.47-21.07zm-62.02-208.49c1.86-3.91 4.67-4.67 7.57-5.18 9.24-1.62 18.52-3.06 27.74-4.8 7.71-1.45 15.25-3.6 21.96-7.87 2.47-1.57 4.47-4.17 3.41-7-1.16-3.08-4.16-1.49-6.48-1-.22.05-.42.16-.63.22-16.34 4.12-32.69 8.15-48.98 12.45-2.01.53-4.67 2.15-5.26 3.88-1.78 5.21-1.37 10.45 1.63 15.45 2.76 4.61 7.34 3.34 11.29 4.25 1.9.44 2.37-.55 2.46-2.15.13-2.49-1.39-3.55-3.47-4.27-3.67-1.23-7.28-2.57-11.24-3.98zm16.16-36.4c11.48-1.88 12.86-3.61 11.99-14.81-.44-5.68-3.05-8.38-8.7-9.18-2.65-.37-4.74.21-5.44 3-.86 3.45.36 5.24 3.8 6.19 1.6.44 3.2.94 4.77 1.49 1.9.67 3.42 1.57 2.84 4.09-.53 2.33-1.64 3.91-4.17 4.01-1.97.08-3.95.02-6.24.02.44 2.03.8 3.62 1.15 5.19zm-12.13 70.89c.85 2.37 1.36 4.96 2.67 7.04.82 1.3 2.77 2.16 4.38 2.55.72.17 2.48-1.16 2.66-2.04 1.02-4.9 1.97-9.84 2.31-14.81.09-1.28-1.88-3.15-3.33-3.9-.86-.45-2.78.47-3.87 1.27-3.23 2.36-4.26 5.85-4.82 9.89z" fill="#010105"/><path d="m193.71 286.4c-.83 6.28-1.73 12.55-2.48 18.84-.9 7.64-.85 7.65 6.25 10.95 1.31.61 2.67 1.16 4.03 1.64 5.31 1.87 8.74 8.75 6.94 14.03-.13.39-.42.8-.75 1.04-4.91 3.46-9.84 6.9-14.98 10.49-.29-3.38.36-5.9 2.95-7.74.98-.7 1.86-1.65 2.52-2.66 1.69-2.61.97-4.88-1.85-6.19-2.1-.98-4.23-1.9-6.74-3.03-.87 5.35-1.91 10.35-2.44 15.41-.43 4.12-1.88 7.48-5.06 10.13-.85.71-1.54 1.62-2.02 2.14 1.22 2.16 2.34 4.16 3.47 6.15-1.66.73-3.32 1.47-4.99 2.2-.35-.2-.7-.39-1.06-.59.37-2.35.77-4.7 1.09-7.05.07-.51-.16-1.06-.28-1.59-.13-.6-.61-1.49-.38-1.74 3.64-4.03 2.51-8.03 1.18-12.79-1.08-3.86.36-8.4.59-12.64.34-6.25.31-6.25-5.79-8.64-3.39 4.67-5.09 9.63-3.19 15.5.64 1.97 2.38 4.47-.73 5.75-3.09 1.28-4.61-.91-5.84-3.42-3.95-8.03-1.19-18.8 6.18-23.76 2.78-1.87 5.76-3.51 8.3-5.66 1.17-.99 2.03-2.92 2.14-4.49.29-4.23.25-8.51.01-12.74-.08-1.31-.93-3.07-1.98-3.73-3.97-2.46-8.08-4.75-12.32-6.73-4.59-2.15-6.29-4.52-6.05-9.65.37-7.84 3.56-11.46 12.36-13.78 4.64-1.23 9.34-2.25 14-3.4 1.03-.25 2.02-.65 3.94-1.27-3.23-1.37-5.63-2.4-8.04-3.42-5.09-2.14-8-7.16-6.68-12.41 1.19-4.76 2.63-9.49 4.53-14 .72-1.71 2.81-3.29 4.63-3.98 1.93-.74 3.71.62 4.02 2.85.16 1.16-.13 2.44-.46 3.6-.42 1.5-1.14 2.91-1.64 4.39-2.38 7.16.07 10.93 7.61 11.43 2.66.18 5.36-.19 8.04-.26 3.73-.1 5.32 1.24 5.95 4.9 1.52 8.83-6.09 18-15.11 18.14-5.15.08-10.3-.13-15.44.12-1.23.06-2.94 1.13-3.5 2.21-2.59 4.98-.99 9.02 4.34 10.46 6.89 1.86 13.92 3.18 20.87 4.86 2.37.57 4.79 1.24 6.95 2.34 6.03 3.1 7.47 8.3 4.1 14.16-2.06 3.58-4.12 7.18-6.42 10.6-.95 1.41-2.55 2.39-3.85 3.57-.21-.2-.42-.41-.64-.61.39-3.8 1.76-7.84.9-11.33-.83-3.33-3.98-6.09-6.12-9.09-.33.16-.7.33-1.06.49z" fill="#010105"/><path d="m179.52 369.13c-1.35.48-2.23.79-3.43 1.22.15-2.63.29-4.91.42-7.19.18-.06.35-.12.53-.18.76 1.91 1.54 3.82 2.48 6.15z" fill="#010105"/></svg>