<svg enable-background="new 0 0 400 400" viewBox="0 0 400 400" xmlns="http://www.w3.org/2000/svg"><path d="m362.1 8.8c1.1.8 2.1 1.6 3.1 2.4l-1 1.1c-1.3-1.1-2.3-2-3-2.5zm1.9 4.8c.5.2.9.4 1.4.5-.6 2.3-1.3 4.5-1.9 6.8l-1.5-.5c.8-2.1 1.4-4.3 2-6.8zm-1-9.4c1.3.9 2.4 1.8 3.4 2.5l-1 1.1c-1.4-1.2-2.4-2.1-3.2-2.6zm3.7 2.2v-1.4h10.3v1.2c-.5 3.6-1.8 6.8-4 9.4 1.5 1.6 3.4 2.8 5.7 3.8-.3.4-.7.8-1.1 1.4-2.3-1.1-4.1-2.5-5.6-4.1-1.6 1.6-3.6 3.1-5.9 4.3-.3-.5-.7-.9-1-1.3 2.4-1.1 4.4-2.5 6-4.1-1.9-2.5-3-5.6-3.3-9.3h-1.1zm8.8 0h-6.4c.3 3.3 1.3 6 3 8.2 2-2.3 3.1-5.1 3.4-8.2z" fill="#fbfafc"/><path d="m385.3 3.8h1.3v2.2h2.8v-2.2h1.3v2.2h4.1v9.1h1.7v1.3h-16.9v-1.3h1.7v-9.1h4.1v-2.2zm.4 13.1.7 1.2c-1.8.9-3.8 1.9-6 2.9-.2-.4-.5-.8-.8-1.3 2.3-1 4.3-1.9 6.1-2.8zm-3.1-6.4h2.8v-3.2h-2.8zm0 4.6h2.8v-3.3h-2.8zm4-4.6h2.8v-3.2h-2.8zm0 4.6h2.8v-3.3h-2.8zm3.7 1.9c2.1.9 4.1 1.8 6.1 2.7l-.7 1.3c-2.2-1.1-4.2-2-6.1-2.9zm3.2-9.7h-2.8v3.2h2.8zm-2.8 7.8h2.8v-3.3h-2.8z" fill="#fbfafc"/><path d="m184.32 236.71c.56 3 1.12 5.59 1.48 8.2.11.79-.06 1.89-.56 2.46-7.21 8.36-13.29 17.82-22.81 23.98-13.1 8.47-27.14 14.19-43.01 14.16-6.7-.01-13.06-1.77-18.89-5.12-1.08-.62-2.04-1.73-2.68-2.83-6.77-11.62-9.49-24.27-9.48-37.61.01-14.37 1.48-28.59 4.6-42.63.71-3.2 2.05-3.75 4.46-1.68 7.53 6.46 15.79 12.21 20.81 21.17.43.76 2.01 1.39 2.95 1.27 12.09-1.58 24.15-3.31 36.22-5.04.85-.12 1.85-.35 2.46-.89 5.61-4.92 12.61-5.81 19.53-7.21 4.1-.83 8.09-2.4 12-3.94 2.6-1.03 3.46-3.26 3.73-6.15 1.35-14.46-.29-28.84-.91-43.24-.4-9.39-.55-18.81-3.74-27.83-.67-1.89-1.36-3.79-2.12-5.65-1.73-4.23-3.46-5.29-7.97-4.35-2.27.47-4.47 1.43-6.58 2.41-8.96 4.15-18.28 5.89-28.08 4.25-7.96-1.33-14.45-5.77-20.87-10.28-1.55-1.09-3.02-2.27-4.84-3.65-1.37 1.9-2.83 3.58-3.91 5.48-3.92 6.87-8.46 13.52-11.38 20.8-3.93 9.78-2.3 12.22 7.23 16.54 12.31 5.58 24.91 5.66 37.69 2.17 8.09-2.2 16.11-4.62 24.17-6.92 2.97-.85 5.48.62 5.12 3.53-.29 2.36-1.21 5.45-2.94 6.71-9.66 7.03-20.11 13.22-32.16 14.17-9.71.76-19.61-.61-29.4-1.26-3.1-.2-6.13-1.37-9.23-1.64-4.34-.38-6.92-2.6-9.09-6.28-8.37-14.14-7.27-28.1.1-42.14 4.62-8.8 9.78-17.38 13.59-26.53 3.54-8.5 5.6-17.62 8.31-26.47.19-.63.39-1.27.6-1.97 3.24-.44 5.82.34 8.1 2.86 4.84 5.37 9.65 10.64 10.1 18.4.1 1.77.1 3.18-1.82 4.18-1.09.57-1.99 1.82-2.58 2.96-1.68 3.25-1.24 4.29 2 5.95 5.38 2.75 11.17 4.17 17.13 4.08 9.28-.14 18.54-.87 27.82-1.15 2.57-.08 3.55-1.5 3.53-3.48-.04-3.43-.16-6.95-.95-10.27-1.62-6.79-4.65-12.94-8.95-18.58-10.54-13.77-20.51-28-33.06-40.1-.47-.45-.86-1-2.06-2.41 2.33.23 3.88 0 5.06.56 11.3 5.38 22.6 10.78 33.74 16.48 2.16 1.11 3.82 3.38 5.44 5.34 12.27 14.83 18.73 31.98 21.2 51 1.39 10.69 2.48 21.59 7.42 32.16 1.73-.97 3.69-1.6 5.02-2.89 9.27-8.92 18.64-17.77 27.53-27.06 6.94-7.26 11.38-16.04 12.32-26.23.11-1.23-.66-3.1-1.64-3.78-4.22-2.92-8.66-5.53-13.05-8.21-4.38-2.68-8.28-5.72-9.2-11.61 4.64-.98 8.82-.04 13.07 1.49 13.38 4.81 23.81 14.37 35.59 21.75 7.49 4.69 12.96 11.25 17.5 18.69 6.67 10.92 8.56 22.91 7.81 35.46-.15 2.45-.41 4.91-.79 7.34-1.77 11.36-7.7 20.67-15.32 28.8-9.91 10.57-20.98 19.88-34.23 26.13-9.68 4.56-20.09 5.88-30.69 6.12-2.12.05-2.54-1.1-3.09-2.7-.61-1.75 0-2.64 1.43-3.55 9.23-5.86 18.31-11.78 28.41-16.35 11.47-5.19 20.25-14.39 27.29-24.78 4.1-6.04 7.92-12.57 10.3-19.42 3.81-10.97 1.21-21.6-4.75-31.83-4.9 1.36-9.84 2.67-14.73 4.12-.78.23-1.45 1-2.06 1.62-2.35 2.39-4.79 4.73-6.97 7.27-6.42 7.47-13.87 13.53-22.82 17.78-2.04.97-3.83 2.73-5.35 4.47-2.92 3.3-6.49 5.32-10.6 6.74-7.06 2.43-9.27 5.1-9.24 12.52.05 11.97.57 23.94.89 35.91.01.45-.05.98.17 1.32 4.42 7.14 1.56 14.64.81 21.89-1.67 16.26-2.96 32.48-3.23 48.86-.22 13.13-2.48 26.25-4.21 39.32-2.09 15.75-4.52 31.44-3.83 47.43.27 6.35-.24 12.75-.61 19.12-.11 1.95-.61 4.04-1.52 5.76-1.89 3.57-6.15 3.76-7.72.14-1.84-4.23-3.51-8.8-3.88-13.34-.55-6.65.18-13.4.27-20.11.11-8.06.43-16.13.14-24.18-.66-18.33 2.34-36.37 3.58-54.55 1.1-16.02 1.02-32.13 1.46-48.02-3.13-1.07-4.82-.73-6.64.99-6.14 5.81-13.84 8.98-21.57 11.95-5.63 2.16-11.44 3.84-17.1 5.94-11.53 4.27-23.12 2.7-34.75.66-7.72-1.35-9.32-.65-10.63 7.06-1.17 6.9-1.2 14-1.57 21.02-.13 2.4 1.11 3.96 3.51 5.01 8.55 3.75 16.95 3.7 25.77.69 17-5.8 32.41-14.43 46.81-25.04 1.71-1.22 3.52-2.31 5.59-3.69z" fill="#000001"/></svg>