<svg enable-background="new 0 0 400 400" viewBox="0 0 400 400" xmlns="http://www.w3.org/2000/svg"><path d="m374.8 390.4.4-.4c.7.5 1.3 1 1.8 1.4l-.5.5c-.5-.6-1.1-1.1-1.7-1.5zm1 7.3-.6-.3c.5-1.4 1.1-2.8 1.5-4.3.2.1.4.2.6.3-.5 1.3-1 2.8-1.5 4.3zm-.4-10.3.4-.4c.4.3 1 .8 1.7 1.4l-.5.5c-.4-.5-1-1-1.6-1.5zm2.5.3h1.7v-1h.6v1h3.5v-1h.6v1h1.8v.5h-1.8v1.4h-2v1h3.2v2h-3.2v.9h3.3v.5h-3.4c0 .3-.1.6-.1.9h4v.5h-3.7c.7.9 1.9 1.5 3.8 1.7-.1.2-.2.4-.3.6-2.1-.4-3.5-1.1-4-2.1-.4 1-1.8 1.7-4 2.2-.1-.2-.2-.4-.3-.6 2.1-.4 3.4-1 3.8-1.8h-3.4v-.5h3.6c.1-.3.1-.6.2-.9h-3.3v-.5h3.4c0-.3 0-.6 0-.9h-3.2v-2h3.3v-1h-2.1v-1.4h-1.7v-.5zm1.1 3.5v1h2.7c0-.3 0-.4 0-.4 0-.1 0-.2 0-.2 0-.1 0-.2 0-.3h-2.7zm1.2-3v.9h3.5v-.9zm4.7 3h-2.6v.6.4h2.6z" fill="#fbfcfa"/><path d="m393.6 386.7h.6v1.5h2.7v6.1h1.1v.6h-11v-.6h1.1v-6.1h2.7v-1.5h.6v1.5h2.1v-1.5zm-2.7 8.8.4.6c-1.2.6-2.5 1.3-3.8 1.9-.1-.2-.2-.4-.3-.6 1.2-.6 2.5-1.2 3.7-1.9zm-2.2-6.7v2.4h2.1v-2.4zm0 3v2.5h2.1v-2.5zm2.8-3v2.4h2.1v-2.4zm0 3v2.5h2.1v-2.5zm6 6.1c-1.4-.7-2.7-1.3-3.9-1.8l.3-.6c1.5.6 2.7 1.2 3.9 1.7zm-1.2-9.1h-2.1v2.4h2.1zm-2.1 3v2.5h2.1v-2.5z" fill="#fbfcfa"/><g fill="#010106"><path d="m130.9 25.36c9.08.97 16.49 4.7 21.13 12.06 4.67 7.42 8.25 15.54 12.26 23.38 1.46 2.86 2.6 5.91 4.2 8.69 5.35 9.29 10.86 18.5 16.27 27.75 2.39 4.08 5.37 7.44 10.11 8.78 2.95.83 5.03.44 6.79-2.76 9.79-17.83 19.98-35.45 29.74-53.3 2-3.65 2.94-7.93 4.08-12 1.22-4.36 4.1-6.56 8.38-6.95.96-.09 2.48.72 2.97 1.56 2.84 4.86 3.11 10.07 2.06 15.56-.62 3.25-.65 6.66-.5 9.98.16 3.5 1.48 6.56 4 9.29 10.02 10.85 20.26 21.54 29.66 32.92 14.91 18.05 23.68 38.7 22.65 62.54-.74 17.14-7.49 32.36-17.28 46.17-5.81 8.21-12.42 15.85-18.53 23.85-.91 1.19-1.5 3.01-1.45 4.5.48 12.52 1.19 25.04 1.69 37.56.08 1.95-.2 4.04-.83 5.89-6.43 18.82-12.96 37.6-19.49 56.38-.55 1.57-1.31 3.08-2.1 4.55-3.96 7.38-7.97 14.75-11.97 22.11-.75 1.37-1.51 2.74-2.36 4.06-4.85 7.56-8.62 9.23-17.22 6.51-4.83-1.53-9.59-3.68-13.93-6.3-9.86-5.95-18.29-13.29-25.99-22.22-14.92-17.31-22.68-37.1-26.32-59.16-2.82-17.11-6.35-34.11-6.27-51.55.03-6.96-4.08-10.49-9.83-12.84-1.54-.63-3.19-1.06-4.84-1.34-15.09-2.65-24.96-12.4-32.86-24.53-6.26-9.62-4.91-20.08-2.23-30.49 4.74-18.41 12.18-35.62 21.94-51.97 8.19-13.72 15.28-28.09 23.5-41.79 3.63-6.05 2.98-11.43.32-17.03-1.81-3.81-4.29-7.31-6.55-10.89-3.8-6.05-4.55-12.23-1.2-18.97zm127.57 168.57c5.61-2.94 10.19-5.27 14.69-7.75.89-.49 1.69-1.46 2.13-2.39 9.81-20.97 8.67-41.32-3.39-61.12-7.24-11.89-17.88-20.52-28.08-29.57-1.5-1.33-3.8-1.78-5.75-2.6-1.92-.81-2.93-.1-3.89 1.77-9.31 18.08-18.74 36.11-28.11 54.15-2.36 4.55-3.39 5.17-8 3.01-1.95-.92-3.61-2.86-4.88-4.7-2.23-3.2-3.85-6.81-6.1-9.99-5.53-7.85-11.25-15.56-16.95-23.29-4.3-5.83-8.68-11.61-13.01-17.37-6.22 3.07-10.69 7.16-14.05 12.47-3.89 6.13-7.72 12.3-11.6 18.44-1.96 3.1-4.41 5.98-5.89 9.29-3.42 7.65-6.52 15.44-9.47 23.28-2.47 6.56-3.31 13.42-2.92 20.45.24 4.37 1.09 8.34 4.74 11.32 1.81 1.47 3.43 3.25 4.84 5.11 3.42 4.52 8.26 5.46 13.41 5.49 4.75.02 8.05-2.19 9.23-6.78.93-3.63 1.17-7.48 1.3-11.25.22-6.48-.23-13 .27-19.45.43-5.56 1.78-11.05 2.84-17.27 4.46 3.31 8.02 5.82 11.39 8.56.79.64 1.35 2.04 1.36 3.1.08 18.69.57 37.41-.12 56.07-.54 14.61-.2 29.07 1.88 43.51 2.85 19.83 6.51 39.49 13.4 58.39.94 2.59 1.99 5.32 3.68 7.44 5.79 7.26 11.85 14.31 17.91 21.35.88 1.02 2.23 1.93 3.53 2.27 9.06 2.39 15.57.06 20.48-7.82 13.32-21.38 22.18-44.58 26.97-69.27 2.87-14.74 2.27-29.52-2.9-43.69-6.31-17.3-13.3-34.36-19.97-51.53-2.59-6.66-5.22-13.3-7.57-20.05-.72-2.08-.55-4.48-.79-6.74 11.4-.83 18.83 3.28 23.21 12.63 1.51 3.23 2.53 6.7 4.07 9.92 3.88 8.12 7.94 16.17 12.11 24.61z"/><path d="m216.85 271.57c-1.44 10.5-2.95 21-4.28 31.52-.44 3.53-3.43 2.89-5.45 3.85-1.81.86-2.97.06-4.28-1.33-5.93-6.28-8.07-13.99-8.88-22.29-2.71-27.48-5.46-54.96-8.21-82.45-.39-3.89-.74-7.79-1.23-11.68-.24-1.88.28-3 2-4.03 7.16-4.28 15.5-1.73 18.59 6.54 2.13 5.7 3.52 11.78 4.41 17.82 2.29 15.69 4.27 31.44 6.05 47.2.55 4.86.09 9.83.09 14.74.39.04.79.07 1.19.11z"/></g></svg>