<svg enable-background="new 0 0 400 400" viewBox="0 0 400 400" xmlns="http://www.w3.org/2000/svg"><path d="m180.15 149.58c-1.58.27-2.13.36-2.67.45-10.85 1.83-10.73 1.75-17.3-7.32-4.31-5.95-8.9-11.71-13.61-17.35-1.36-1.63-3.55-2.57-5.41-3.87-4.42 4.64-7.53 9.76-8.2 15.77-1.94 17.55-5.63 34.99-4.72 52.75.57 11.04 1.26 22.2 3.45 32.99 1.67 8.21 5.67 15.96 8.89 23.81.94 2.3 2.51 4.46 4.21 6.29 2.78 2.97 5.79 2.63 7.95-.73 10.61-16.48 24.43-29.55 41.13-39.8 6.16-3.78 12.2-2.65 18.44-1.41.95.19 1.73 1.33 2.54 2.08 7.43 6.83 15.05 13.44 24.35 17.63 2.71 1.22 5.77 1.63 8.62 2.55 2.18.7 3.59-.22 4.18-2.11 2.09-6.68 4.88-13.29 5.82-20.15 2.55-18.67 2.86-37.47.57-56.24-.12-.98-.84-1.89-1.28-2.83-1.01.5-2.18.82-3 1.54-9.22 8.13-18.18 16.56-27.66 24.37-3.88 3.2-8.83 5.1-13.33 7.62-2.15-4.46-2.23-7.77 1.03-11.65 13.97-16.61 27.57-33.54 41.21-50.44.95-1.18 1.43-2.94 1.63-4.5 1.3-10.18-3.11-19.27-5.77-28.66-3.07-10.86-6.45-21.63-9.67-32.45-1.44-4.84-1.33-9.7-.04-14.56.66-2.49 2.05-4.75 4.62-4.56 2.68.19 6.48.75 7.73 2.56 11.61 16.74 18.48 35.33 20.74 55.64.65 5.84 2.02 11.61 3.03 17.41 2.04 11.77 4.95 23.47 5.87 35.33 1.44 18.6 1.87 37.31 2.09 55.98.22 18.64-4.53 36.42-10.21 54.1-8.03 25-15.2 50.27-26.43 74.12-.9 1.91-1.94 3.77-3.07 5.54-4.76 7.44-9.5 14.9-14.42 22.23-2.29 3.41-4.61 6.96-7.6 9.7-5.8 5.31-14.36 4.85-20.07-.5-2.45-2.3-4.76-4.76-7.35-6.89-15.13-12.45-26.83-27.64-36.93-44.34-12.79-21.15-26.19-41.93-35.76-64.84-6.52-15.62-11.33-31.77-14.59-48.38-.13-.66-.37-1.32-.37-1.98.13-13.62-.54-27.31.67-40.83 1.07-11.96 4.22-23.74 6.46-35.59.06-.33.09-.71.28-.96 7.45-10.15 9.38-22.34 12.68-34.03.76-2.69 1.66-5.34 2.6-7.97 2.28-6.37 5.25-12.31 10.17-17.15 4.15-4.08 7.99-8.46 12.18-12.5 7.17-6.91 15.13-12.64 25.07-14.86 5.15-1.15 9.18-3.75 12.35-7.93 1.34-1.78 3-3.32 4.51-4.97 3-3.28 5.34-3.49 10.72-.97 3.99 1.87 6.09 4.92 5.27 8.72-.44 2.02-1.49 4.4-3.05 5.59-7.18 5.5-14.23 11.36-22.08 15.74-14.76 8.23-25.66 20-34.37 34.11-1.23 2-1.77 4.53-2.21 6.9-.52 2.79.63 4.89 2.79 7.01 10.08 9.86 18.27 21.16 24.21 33.97 1.51 3.24 2.03 6.94 3.11 10.82zm19.28 76.86c-1.42 2.09-2.71 4.04-4.05 5.96-5.3 7.53-10.61 15.22-19.27 19.19-6.98 3.2-12.85 7.52-17.57 13.51-.9 1.14-1.83 2.31-2.96 3.2-2.23 1.76-1.94 3.26-.52 5.58 14.89 24.42 32.91 46.56 50.24 69.2 3.83 5 7.29 4.85 10.02-.8 4.51-9.35 8.71-18.86 12.95-28.35 3.46-7.75 7.44-15.35 10.01-23.39 3.53-11.05 5.99-22.44 8.75-33.73.22-.89-.47-2.54-1.26-3.06-3.35-2.22-6.89-4.16-10.36-6.19-11.92-7.02-23.85-14.01-35.98-21.12z" fill="#010102"/><g fill="#fcfbfa"><path d="m385.2 377.6.6-.7c.6.4 1.3.9 1.9 1.5l-.6.7c-.8-.5-1.4-1-1.9-1.5zm.3 7.1c.6-1.4 1.1-2.9 1.5-4.5.3.1.6.3.9.4-.5 1.4-1 2.9-1.5 4.4zm.2-10.1.6-.6c.7.5 1.3 1.1 1.9 1.6l-.7.7c-.6-.6-1.2-1.2-1.8-1.7zm8.4-.8h.8v.9h1.8v.7h-1.8v1.8h-.8v-.3h-1.2v.9h3.3v2.6h-.8v-.4h-2.5c0 .3 0 .6-.1.8h3.4v.7h-3.5c0 .3-.1.6-.1.8h4v.7h-3.5c.7.9 1.9 1.3 3.6 1.5-.2.2-.4.5-.6.9-1.9-.3-3.2-1.1-3.8-2.3-.5 1.1-1.8 2-3.9 2.4-.2-.3-.4-.5-.6-.8 1.9-.4 3.1-.9 3.6-1.7h-3.2v-.7h3.5c.1-.2.1-.5.2-.8h-3.3v-.7h3.4c0-.2 0-.5 0-.8h-2.4v.3h-.8v-2.6h3.3v-.9h-1.2v.3h-.8v-1.8h-1.8v-.7h1.8v-.9h.8v.9h3.2zm-4.4 5.5h2.4c0-.3 0-.6 0-.9h-2.4zm1.2-3.1h3.2v-.8h-3.2zm4.4 2.2h-2.4v.9h2.5v-.9z"/><path d="m389.2 385.8h.9v1.5h1.9v-1.5h.9v1.5h2.7v6h1.1v.9h-11.3v-.9h1.1v-6h2.7zm.2 8.7.5.8c-1.2.6-2.5 1.3-4 1.9-.2-.3-.3-.6-.6-.8 1.6-.6 3-1.3 4.1-1.9zm-2-4.3h1.9v-2.1h-1.9zm0 3.1h1.9v-2.2h-1.9zm2.7-3.1h1.9v-2.1h-1.9zm0 3.1h1.9v-2.2h-1.9zm2.4 1.3c1.4.6 2.7 1.2 4.1 1.8l-.5.9c-1.5-.7-2.8-1.4-4.1-1.9zm2.2-6.5h-1.9v2.1h1.9zm-1.9 5.2h1.9v-2.2h-1.9z"/></g></svg>