<svg enable-background="new 0 0 400 400" viewBox="0 0 400 400" xmlns="http://www.w3.org/2000/svg"><path d="m374.8 390.4.4-.4c.7.5 1.3 1 1.8 1.4l-.5.5c-.5-.6-1.1-1.1-1.7-1.5zm1 7.3-.6-.3c.5-1.4 1.1-2.8 1.5-4.3.2.1.4.2.6.3-.5 1.3-1 2.8-1.5 4.3zm-.4-10.3.4-.4c.4.3 1 .8 1.7 1.4l-.5.5c-.4-.5-1-1-1.6-1.5zm2.5.3h1.7v-1h.6v1h3.5v-1h.6v1h1.8v.5h-1.8v1.4h-2v1h3.2v2h-3.2v.9h3.3v.5h-3.4c0 .3-.1.6-.1.9h4v.5h-3.7c.7.9 1.9 1.5 3.8 1.7-.1.2-.2.4-.3.6-2.1-.4-3.5-1.1-4-2.1-.4 1-1.8 1.7-4 2.2-.1-.2-.2-.4-.3-.6 2.1-.4 3.4-1 3.8-1.8h-3.4v-.5h3.6c.1-.3.1-.6.2-.9h-3.3v-.5h3.4c0-.3 0-.6 0-.9h-3.2v-2h3.3v-1h-2.1v-1.4h-1.7v-.5zm1.1 3.5v1h2.7c0-.3 0-.4 0-.4 0-.1 0-.2 0-.2 0-.1 0-.2 0-.3h-2.7zm1.2-3v.9h3.5v-.9zm4.7 3h-2.6v.6.4h2.6z" fill="#fbfcfa"/><path d="m393.6 386.7h.6v1.5h2.7v6.1h1.1v.6h-11v-.6h1.1v-6.1h2.7v-1.5h.6v1.5h2.1v-1.5zm-2.7 8.8.4.6c-1.2.6-2.5 1.3-3.8 1.9-.1-.2-.2-.4-.3-.6 1.2-.6 2.5-1.2 3.7-1.9zm-2.2-6.7v2.4h2.1v-2.4zm0 3v2.5h2.1v-2.5zm2.8-3v2.4h2.1v-2.4zm0 3v2.5h2.1v-2.5zm6 6.1c-1.4-.7-2.7-1.3-3.9-1.8l.3-.6c1.5.6 2.7 1.2 3.9 1.7zm-1.2-9.1h-2.1v2.4h2.1zm-2.1 3v2.5h2.1v-2.5z" fill="#fbfcfa"/><g fill="#010106"><path d="m124.33 115.63c5.09 1.83 8.92 4 12 8.42 4.45 6.39 6.28 12.57 5.44 20.49-4.17 38.93-2.91 78.04-2.71 117.09.03 6.34 2.31 12.71 3.78 19.01 2.85 12.18 5.19 24.54 8.97 36.44 4.43 13.93 13.47 24.41 27.58 29.66 11.19 4.16 22.06 2.32 32.47-2.74 2.29-1.11 4.09-3.44 5.83-5.45 6.36-7.36 12.86-14.63 18.83-22.3 8.75-11.23 12.68-24.32 13.05-38.43.31-11.74.25-23.49.36-35.24.28-30.55.47-61.1.87-91.65.19-14.77.76-29.53 1.13-44.29.07-2.65.09-5.39 3.11-6.41 2.99-1.01 5.4-.2 7.73 2.3 6.17 6.61 9.31 13.97 9.33 23.26.01 10.48 1.41 20.95 2.25 32.02 1.64-.7 2.72-1.13 3.76-1.62 11.52-5.46 22.89-11.25 34.59-16.29 6.61-2.84 9.72-7.86 11.63-14.14 2.05-6.72 1.55-13.5-.01-20.24-2.55-11.01-6.57-21.36-13.56-30.38-1.16-1.49-2.29-3.41-3.88-4.1-6.67-2.87-13.46-5.48-20.33-7.84-1.19-.41-2.96.83-4.58 1.35-4.53-5.96-11.74-7.19-18.49-9.36-2.75-.88-5.64-1.57-8.16-2.92-4.27-2.27-6.11-6.29-6.77-11.21 6.89-3.25 14.18-4.43 21.55-3.51 7.84.98 15.77 2.23 23.29 4.57 11.72 3.65 23.04 8.55 34.68 12.49 10.65 3.6 17.65 11.22 24.23 19.78 7.95 10.35 8.6 21.71 5.96 33.77-1.43 6.55-2.92 13.09-4.5 19.6-.33 1.37-1.02 2.72-1.82 3.89-5.11 7.47-10.35 14.87-15.46 22.34-5.45 7.96-12.4 13.96-21.45 17.58-8.82 3.53-17.51 7.38-26.24 11.12-1.33.57-2.57 1.36-3.86 2.03-6.22 3.25-9.63 7.59-9.09 15.41.77 11.25-.18 22.62.29 33.9.71 17.13-1.68 33.93-4.53 50.7-1.94 11.45-3.7 22.99-6.58 34.22-3.54 13.82-11 25.86-19.59 37.16-.45.6-1.09 1.22-1.76 1.45-9.39 3.2-17.58 8.73-26.27 13.28-9.72 5.09-20.08 6.73-30.93 4.76-1.31-.24-2.62-.57-3.86-1.04-9.31-3.51-18.47-7.49-27.95-10.47-7.18-2.26-12.13-6.79-16.47-12.44-16.11-20.95-24.6-44.62-25.78-71.03-.2-4.51-1.83-8.95-2.63-13.45-.46-2.61-.87-5.3-.79-7.93.68-22.93 1.45-45.87 2.3-68.79.09-2.32-.73-3.62-2.75-4.3-6.66-2.26-13.29-4.63-20.02-6.66-10.61-3.2-21.15-6.27-30.3-13.05-13.97-10.35-21.56-23.83-22.18-41.26-.56-15.66 3.12-30.38 9.6-44.5.59-1.29 1.55-2.45 2.48-3.56 6.51-7.83 13.03-15.67 19.63-23.43.97-1.14 2.29-2.16 3.65-2.77 18.14-8.18 36.32-16.27 54.49-24.39 4.22-1.88 8.21-.85 11.76 1.46 3.88 2.52 3.4 9.64-.67 12-9.97 5.77-20 11.43-30 17.15-12.91 7.38-24.66 16.26-34.75 27.21-10.51 11.41-12.72 24.91-9.57 39.71.87 4.08 2.52 7.49 5.62 10.35 5.51 5.08 10.69 10.53 16.32 15.48 8.16 7.18 18 7.07 27.96 5.5.99-.16 2.25-1.6 2.56-2.67 2.2-7.72 4.26-15.48 6.21-23.26 1.13-4.5 1.98-9.08 3-13.83z"/><path d="m193.31 228.64c7.81 1.95 11.49 7.51 13.35 14.56 2.58 9.78 1.96 19.78 1.01 29.66-.67 6.96-2.4 13.81-3.71 20.71-.48 2.5-1.84 4.25-4.53 4.67-.33.05-.65.17-.96.28-7.54 2.66-7.5 2.63-11.69-4.13-5.11-8.24-5.76-17.36-5.99-26.74-.34-14.41 6-26.52 12.52-39.01z"/></g></svg>