<svg enable-background="new 0 0 400 400" viewBox="0 0 400 400" xmlns="http://www.w3.org/2000/svg"><path d="m205.48 129.13c12.54 6.62 24.02 12.63 35.46 18.73 8.19 4.37 15.18 10.28 21.32 17.18 1.14 1.28 1.71 3.09 2.39 4.73 1.92 4.65 3.73 9.34 5.61 14 2.19 5.43 6.68 7.51 12.15 5.44 1.75-.66 3.49-1.62 4.91-2.83 13.93-11.88 26.82-24.81 37.24-39.92 9.15-13.27 8.52-27.54 2.57-41.91-.37-.9-1.47-1.63-2.39-2.16-12.33-7.05-24.47-14.5-37.13-20.89-7.11-3.59-14.95-6.07-22.74-7.87-6.8-1.57-9.47-5.7-10.81-12.1 8.83-1.48 17.14-5.14 26.73-2.4 14.93 4.27 30.21 7.28 45.28 11.06 9.02 2.26 16.38 7.73 23.13 13.78 21.8 19.52 26.96 43.8 19.83 71.46-.92 3.57-2.59 6.46-5.14 9.16-11.7 12.35-23.21 24.88-34.8 37.33-8.39 9.01-18.93 15.11-29.84 20.21-8.2 3.83-11.41 8.8-10.76 17.9.7 9.78-.02 19.69-.6 29.52-1.91 32.52-17.11 52.76-44.22 63.07-13.29 5.06-27.13 7.3-41.06 9.56-7.93 1.28-14.9-.2-22.48-2.35-12.02-3.4-18.25-11.83-23.14-21.99-6.18-12.84-9.24-26.51-10.18-40.73-.25-3.71-1.33-7.44-2.55-10.98-1.08-3.12-3.56-4.26-7.14-4.01-14.4 1.01-28.81 1.79-43.22 2.5-12.4.6-23.8-3.53-34.97-8.14-10.38-4.28-19.39-10.59-26.41-19.56-7.28-9.3-10.33-19.88-10.18-31.57.15-11.35 3.04-22.1 6.97-32.62.46-1.23 1.22-2.38 2-3.46 16.8-23.2 33.66-46.36 50.37-69.63 1.41-1.97 2.28-4.56 2.65-6.98 1-6.51 1.6-13.08 2.42-20.07 1.21.35 2.24.61 3.24.95 6.89 2.3 13.72 4.81 20.68 6.87 6.79 2.01 10.77 7.05 14.07 12.64.99 1.68.87 4.79 0 6.66-2.11 4.51-4.43 9.12-7.6 12.9-21.53 25.63-43.32 51.03-64.92 76.6-1.21 1.44-1.99 3.75-1.96 5.64.12 6.48.63 12.96 1.15 19.43.1 1.21.69 2.6 1.5 3.5 4.03 4.5 7.92 9.21 12.44 13.17 2.84 2.49 6.58 4.15 10.16 5.6 8.91 3.61 18.3 3.99 27.76 3.19 11.6-.98 23.18-2.14 34.78-2.99 2.36-.17 3.54-1.07 4.59-3 2.68-4.92 4.6-10.16 3.95-15.72-1.72-14.56 1.28-28.4 5.09-42.3 6.83-24.89 13.21-49.91 19.66-74.9.44-1.71.36-3.78-.17-5.48-2.31-7.47-4.88-14.86-7.35-22.28-1.32-3.97.16-6 4.23-4.75 4.85 1.49 10 3.19 13.93 6.21 6.35 4.89 11.76 10.99 17.66 16.47 7.11 6.61 9.64 15.14 10.31 24.41.37 4.84 1.39 9.95-4.47 13.72zm10.1 178.73c10.65.33 19.64-3.6 27.37-10.7.87-.8 1.64-1.88 2.04-2.98 3.68-10.3 7.64-20.51 10.77-30.98 3.7-12.38-.82-19.06-13.53-21.04-1.8-.28-3.76.11-5.6.44-2.97.54-5.89 1.3-8.83 1.96-17.22 3.88-34.45 7.72-51.65 11.7-1.12.26-2.72 1.52-2.85 2.48-.72 5.3-1.6 10.67-1.41 15.98.38 10.38 5.45 18.89 13.79 24.53 8.82 5.98 19.14 8.49 29.9 8.61zm-12.26-168.58c-4.83 11.28-9.53 22.13-14.14 33.02-3.1 7.29-6.52 14.49-9.02 21.98-3.35 10.01-4.39 20.3-.78 30.62.57 1.61 1.3 2.29 3.09 2.16 22.01-1.61 42.57-7.81 61.33-19.54.91-.57 1.78-2.44 1.53-3.41-1.53-5.92-2.79-12.02-5.31-17.53-2.38-5.21-5.83-10.06-9.45-14.56-8.81-10.98-17.99-21.66-27.25-32.74z" fill="#010104"/><g fill="#fcfbfa"><path d="m385.2 377.6.6-.7c.6.4 1.3.9 1.9 1.5l-.6.7c-.8-.5-1.4-1-1.9-1.5zm.3 7.1c.6-1.4 1.1-2.9 1.5-4.5.3.1.6.3.9.4-.5 1.4-1 2.9-1.5 4.4zm.2-10.1.6-.6c.7.5 1.3 1.1 1.9 1.6l-.7.7c-.6-.6-1.2-1.2-1.8-1.7zm8.4-.8h.8v.9h1.8v.7h-1.8v1.8h-.8v-.3h-1.2v.9h3.3v2.6h-.8v-.4h-2.5c0 .3 0 .6-.1.8h3.4v.7h-3.5c0 .3-.1.6-.1.8h4v.7h-3.5c.7.9 1.9 1.3 3.6 1.5-.2.2-.4.5-.6.9-1.9-.3-3.2-1.1-3.8-2.3-.5 1.1-1.8 2-3.9 2.4-.2-.3-.4-.5-.6-.8 1.9-.4 3.1-.9 3.6-1.7h-3.2v-.7h3.5c.1-.2.1-.5.2-.8h-3.3v-.7h3.4c0-.2 0-.5 0-.8h-2.4v.3h-.8v-2.6h3.3v-.9h-1.2v.3h-.8v-1.8h-1.8v-.7h1.8v-.9h.8v.9h3.2zm-4.4 5.5h2.4c0-.3 0-.6 0-.9h-2.4zm1.2-3.1h3.2v-.8h-3.2zm4.4 2.2h-2.4v.9h2.5v-.9z"/><path d="m389.2 385.8h.9v1.5h1.9v-1.5h.9v1.5h2.7v6h1.1v.9h-11.3v-.9h1.1v-6h2.7zm.2 8.7.5.8c-1.2.6-2.5 1.3-4 1.9-.2-.3-.3-.6-.6-.8 1.6-.6 3-1.3 4.1-1.9zm-2-4.3h1.9v-2.1h-1.9zm0 3.1h1.9v-2.2h-1.9zm2.7-3.1h1.9v-2.1h-1.9zm0 3.1h1.9v-2.2h-1.9zm2.4 1.3c1.4.6 2.7 1.2 4.1 1.8l-.5.9c-1.5-.7-2.8-1.4-4.1-1.9zm2.2-6.5h-1.9v2.1h1.9zm-1.9 5.2h1.9v-2.2h-1.9z"/></g></svg>