<svg enable-background="new 0 0 400 400" viewBox="0 0 400 400" xmlns="http://www.w3.org/2000/svg"><path d="m22.18 113.39c4.52.13 8.11 1.33 11.48 4.89 10.56 11.15 24.43 16.49 38.78 20.95 23.37 7.26 47.49 10.78 71.53 14.72 7.12 1.17 7.05 1.02 10.37-5.3 5.12-9.75 6.92-20.29 7.15-31.09.2-8.94-.49-17.9-.45-26.84.06-12 1.03-23.92 5.25-35.32.27-.73.61-1.42 1.03-2.38 12.74 7.64 24.79 15.91 33.75 27.84 6.31 8.41 5.92 18.01 3.79 27.65-1.35 6.11-3.38 11.89-6.99 17.24-5.78 8.57-7.56 18.54-8.06 28.71-.05 1.08.73 2.55 1.6 3.27 5.92 4.86 12.97 7.33 20.44 7.43 9.46.13 18.93-.76 28.39-1.19 2.12-.1 3.07-1.37 3.7-3.23 2.49-7.35.61-13.85-3.72-19.91-2.73-3.82-5.88-7.41-8.08-11.52-2.35-4.38-4.06-9.16-5.59-13.92-1.31-4.08.59-7.81 4.43-9.79 4.12-2.12 8.42-2.2 12.67-.56 4.79 1.86 9.52 3.88 14.22 5.96 1.18.52 2.21 1.45 3.19 2.34 9.4 8.53 15.72 18.96 19.51 31.07 1.7 5.44 6.98 6.46 11.05 2.44 11.31-11.19 22.05-22.86 30.64-36.37 8.54-13.45 13.06-27.81 11.18-43.91-.36-3.08-.05-6.26.17-9.37.09-1.37.72-2.7 1.18-4.3 1.73.68 3.08 1.16 4.38 1.72 5.55 2.37 11.06 4.84 16.64 7.14 5.06 2.08 9.9 3.88 12.33 9.76 2.97 7.21 5.42 14.33 3.36 22.08-3.26 12.27-7.86 23.99-15.7 34.19-1.5 1.95-3.07 3.88-4.3 6-8.1 14.03-20.93 22.61-34.47 30.52-7.31 4.27-14.66 8.63-21.35 13.77-4.34 3.34-7.52 8.19-11.25 12.33-3.32 3.68-2.83 8.32-3.18 12.7-1.58 19.6-5.5 38.73-11.64 57.38-4.68 14.19-14.24 24.33-27.38 31.22-.99.52-1.96 1.05-3.28 1.76.86.63 1.5 1.17 2.19 1.61 16.26 10.38 34.13 17.14 52.44 22.74 13.76 4.21 27.71 7.83 41.61 11.57 5.15 1.39 8.41 5.09 8.19 10.35-.03.84-1.21 1.96-2.12 2.39-12.24 5.81-25.19 6.52-38.38 4.97-18.34-2.17-35.61-8.52-53.06-14.04-10.01-3.16-19.82-6.92-29.68-10.54-1.62-.59-3.2-1.62-4.47-2.79-12.18-11.23-24.31-22.5-36.38-33.85-1.41-1.33-2.62-3.07-3.39-4.85-8.7-20.07-14.99-40.92-19.29-62.33-1.15-5.72-.43-11.81-.56-17.73-.03-1.45 0-2.91 0-4.37 0-8.27-3.2-11.8-11.43-13.16-19.74-3.27-39.48-6.51-59.16-10.1-6.9-1.26-13.72-3.23-20.42-5.35-10.71-3.4-18.72-10.48-24.26-20.08-6.37-11.03-12.25-22.34-18.34-33.53-.15-.28-.16-.62-.26-.99zm208.29 72.47c0-.07-.01-.14-.01-.22-4.01.23-8.12-.02-12 .81-7.42 1.58-14.68 3.87-22.06 5.65-2.12.51-2.9 1.53-3.26 3.54-1.87 10.55-3.7 21.12-5.85 31.62-2.81 13.71-.13 25.94 10.12 35.66 9.07 8.61 18.62 16.74 28.33 24.64 4.74 3.86 11.14.98 12.38-5.06.49-2.39.67-4.88.68-7.32.03-9.27 2.31-17.89 6.99-25.89.44-.76.9-2.01.58-2.64-3.6-7.06-3.02-14.54-2.35-22.01.54-6.01 1.72-12 1.77-18 .05-5.4-.76-10.86-1.72-16.2-.58-3.2-2.78-5.14-6.56-4.62-2.31.3-4.69.04-7.04.04z" fill="#010104"/><g fill="#fcfbfa"><path d="m385.2 377.6.6-.7c.6.4 1.3.9 1.9 1.5l-.6.7c-.8-.5-1.4-1-1.9-1.5zm.3 7.1c.6-1.4 1.1-2.9 1.5-4.5.3.1.6.3.9.4-.5 1.4-1 2.9-1.5 4.4zm.2-10.1.6-.6c.7.5 1.3 1.1 1.9 1.6l-.7.7c-.6-.6-1.2-1.2-1.8-1.7zm8.4-.8h.8v.9h1.8v.7h-1.8v1.8h-.8v-.3h-1.2v.9h3.3v2.6h-.8v-.4h-2.5c0 .3 0 .6-.1.8h3.4v.7h-3.5c0 .3-.1.6-.1.8h4v.7h-3.5c.7.9 1.9 1.3 3.6 1.5-.2.2-.4.5-.6.9-1.9-.3-3.2-1.1-3.8-2.3-.5 1.1-1.8 2-3.9 2.4-.2-.3-.4-.5-.6-.8 1.9-.4 3.1-.9 3.6-1.7h-3.2v-.7h3.5c.1-.2.1-.5.2-.8h-3.3v-.7h3.4c0-.2 0-.5 0-.8h-2.4v.3h-.8v-2.6h3.3v-.9h-1.2v.3h-.8v-1.8h-1.8v-.7h1.8v-.9h.8v.9h3.2zm-4.4 5.5h2.4c0-.3 0-.6 0-.9h-2.4zm1.2-3.1h3.2v-.8h-3.2zm4.4 2.2h-2.4v.9h2.5v-.9z"/><path d="m389.2 385.8h.9v1.5h1.9v-1.5h.9v1.5h2.7v6h1.1v.9h-11.3v-.9h1.1v-6h2.7zm.2 8.7.5.8c-1.2.6-2.5 1.3-4 1.9-.2-.3-.3-.6-.6-.8 1.6-.6 3-1.3 4.1-1.9zm-2-4.3h1.9v-2.1h-1.9zm0 3.1h1.9v-2.2h-1.9zm2.7-3.1h1.9v-2.1h-1.9zm0 3.1h1.9v-2.2h-1.9zm2.4 1.3c1.4.6 2.7 1.2 4.1 1.8l-.5.9c-1.5-.7-2.8-1.4-4.1-1.9zm2.2-6.5h-1.9v2.1h1.9zm-1.9 5.2h1.9v-2.2h-1.9z"/></g></svg>