<svg enable-background="new 0 0 400 400" viewBox="0 0 400 400" xmlns="http://www.w3.org/2000/svg"><g fill="#fbfafa"><path d="m37.59 393.81c-.92.31-1.52.05-2-.78-.7-1.2-1.52-2.34-2.47-3.78v4.59c-.55.03-.95.05-1.41.07-.03-.37-.06-.64-.06-.91 0-1.91 0-3.81 0-5.7 1.13-.41 1.77-.03 2.29.91.62 1.11 1.38 2.14 2.31 3.19v-4.2h1.35v6.61z"/><path d="m12.94 393.88v-6.75c1.9.19 3.93-.54 5.37 1.29.8 1.01.78 2.88.03 3.97-1.37 1.97-3.4 1.51-5.4 1.49m1.45-1.22c2.04.12 2.92-.58 2.89-2.21-.03-1.51-.98-2.19-2.89-2z"/><path d="m11.81 393.87h-5.49c.68-2.18 2.47-3.48 3.51-5.45h-3.08v-1.21h5.29c-.71 2.13-2.44 3.48-3.47 5.51.86 0 1.63.04 2.39-.01.79-.05 1.14.21.85 1.16"/><path d="m39.33 393.86v-6.61h3.7v1.07h-2.22v1.52c.68.04 1.34.09 2.07.13v1.07c-.72.05-1.38.09-2.1.14v1.48h2.4v1.19h-3.85z"/><path d="m27.71 388.56c-1.15-.3-2.46-.61-3.1.64-.37.73-.41 1.93-.06 2.67.63 1.35 1.99.93 3.17.68.35.94-.01 1.32-.93 1.46-1.62.25-3.05-.27-3.76-1.48-.73-1.24-.6-3.03.31-4.17.88-1.11 2.71-1.7 4-1.16.32.13.44.74.65 1.12-.1.08-.19.16-.28.24"/><path d="m49.15 387.24v1.07c-.59.02-1.17.05-1.87.08v5.44h-1.48v-5.44h-1.85c-.05-.4-.08-.73-.13-1.15z"/><path d="m20.06 387.21h1.33v6.62h-1.33z"/><path d="m30.68 393.25c-.49.38-.8.79-1.05.76-.32-.05-.6-.45-.9-.7.26-.24.51-.64.8-.67.29-.04.62.3 1.15.61"/></g><path d="m251.02 364.74c-7.46 2.28-14.59 4.46-21.73 6.62-.42.13-1.01.36-1.29.19-5.46-3.38-11.18-1.19-16.65-.42-7.76 1.1-15.11-.97-22.63-1.73-3.89-.39-7.8-.89-11.6-1.74-4.44-.99-8.4.52-12.4 1.79-3.83 1.22-7.54 1.7-11.42.3-1.67-.6-3.47-1.14-5.22-1.19-6.4-.15-8.61-4.94-11.39-9.83 6.62-1.32 12.94-2.61 19.28-3.83 4.83-.93 7.53-3.32 7.65-8.23.53-22.61 6.25-44.46 9.6-66.66.62-4.11 2.76-7.99 4.13-12 .65-1.9 1.39-3.82 1.63-5.78.44-3.61-.4-6.65-3.73-8.99-5.58-3.91-10.77-8.4-16.35-12.31-3.93-2.75-6.19-6.58-7.48-10.82-3.02-9.93-5.62-19.99-8.24-30.03-.19-.74.51-2.17 1.21-2.61 4.4-2.72 6.75-6.71 7.73-11.65.67-3.42 2.61-5.85 5.44-7.26 1.67 1.93 3.29 3.67 4.75 5.55.49.63.78 1.59.78 2.39 0 1.33-.3 2.66-.52 3.99-.85 5.14 1.28 7.29 6.45 6.4 1.32-.23 2.6-.65 3.89-1.01 2.92-.83 5.6-.59 8.71.08 5.03 1.09 10.46.8 15.65.36 1.04-.09 2.79-3.71 2.47-5.36-.8-4.08-2.37-8.07-4.09-11.89-1.83-4.06-4.18-7.89-6.32-11.81-1.81-3.33-4.42-5.79-7.8-7.37-6.63 6.3-7.16 17.55-18.17 20.66-.16-4.48-.74-8.7-.25-12.8.2-1.62 2.69-3.07 4.31-4.38s2.6-2.58 1.87-4.82c-.28-.84-.11-2.09.35-2.87 5.09-8.66 10.26-17.26 15.44-25.86.52-.86 1.18-1.64 1.76-2.43 3.78 1.58 5.69 4.12 5.64 7.4-.15 9.65 3.72 17.82 7.84 26.26 6.2 12.72 11.28 25.99 16.72 39.08.85 2.03 1.1 4.33 1.53 6.52 1.23 6.25.85 11.96-3.53 17.32-4.31 5.26-7.59 11.34-11.66 16.8-4.29 5.75-4.84 12.09-3.93 18.82.23 1.66.66 3.3.79 4.97.25 3.35 1.67 5.95 4.51 7.77 2.24 1.44 3.04 3.56 3.4 6.17 1.1 8.07 3.51 15.7 6.43 23.39 4.22 11.11 6.49 22.96 9.62 34.49.38 1.38.66 2.97 1.52 4.01 2.78 3.38 4.78 6.82 4.34 11.5-.11 1.12 1.6 2.93 2.89 3.54 2.59 1.24 5.47 1.89 8.24 2.75 3.79 1.2 7.02 3.23 9.83 6.56zm-32.71-10.56c-4.12-9.34-8.05-18.2-11.93-27.08-.66-1.52-1.21-3.12-1.63-4.73-2.53-9.71-4.63-19.55-7.66-29.1-1.75-5.51-4.97-10.55-7.89-16.52-1.74 2.02-3.2 3.01-3.62 4.34-1.27 4.03-2.51 8.14-3.11 12.31-2.61 18.29-5.96 36.36-13.19 53.51-.8 1.91-1.18 4.08-1.31 6.16-.12 1.94.67 3.3 3.19 3.18 15.53-.74 31.04-1.37 47.15-2.07zm-35.71-109.55c5.62-3.43 7.59-5.57 10.52-10.93 2.4-4.41 5.03-8.7 7.31-13.17 1.45-2.85 2.82-5.84 3.58-8.92 1.33-5.41-1.99-8.43-7.1-6.43-6.47 2.53-13.06 3.62-19.97 3.14-2-.14-4.1-.26-6.02.2-3.21.76-6.38 1.84-9.42 3.14-.75.32-1.49 2.13-1.27 3.02 1.34 5.42 2.91 10.78 4.51 16.13.27.89.85 1.87 1.59 2.4 5.34 3.83 10.76 7.58 16.27 11.42z" fill="#010000"/><path d="m196 24.67c2.01 2.51 4.94 4.75 5.95 7.65 5.74 16.56 18.24 28.46 28.04 42.25 3.95 5.56 8.2 10.77 12.26 16.15 5.44 7.22 9.19 15.79 13.12 24.04 1.93 4.06 2.63 8.7 3.88 13.08-.28.34-.55.67-.83 1.01-1.82-.64-3.96-.87-5.41-1.99-4.42-3.42-8.52-7.25-12.88-10.75-1.13-.91-2.72-1.61-4.15-1.71-11.16-.79-22.32-1.25-33.47.41-2.13.32-4.53.13-6.58-.53-4.82-1.55-9.3.28-13.89.88-5.32.7-10.62 1.57-15.85 2.73-1.63.36-3.49 1.56-4.39 2.93-2.81 4.29-5 8.99-7.85 13.24-2.25 3.35-5.15 6.28-7.76 9.39-.43-.2-.85-.4-1.28-.6.37-5.47.71-10.93 1.14-16.4.04-.46.56-.97.98-1.29 4.18-3.12 5.62-7.75 7.53-12.35 4.15-9.98 8.83-19.76 13.57-29.49 5.04-10.35 10.62-20.43 15.47-30.86 1.9-4.08 2.65-8.74 3.61-13.2 1.5-7.03 3.45-10.66 8.79-14.59zm-26.15 84.29c19.45-3.13 38.03-6.13 57.35-9.24-6.17-19.16-16.35-35.18-30.17-49.47-.84 1.18-1.41 1.86-1.85 2.6-5.77 9.98-13 19.08-15.95 30.68-1.54 6.05-5.39 11.48-7.84 17.33-.99 2.35-1.01 5.09-1.54 8.1z" fill="#010000"/><path d="m103.05 374.42c-1.19-30.29 8.11-57.97 14.8-86.12.33-.13.67-.27 1-.4 1.48 2.25 3.16 4.39 4.4 6.76 3.87 7.4 2.55 15.17.58 22.61-4.11 15.53-8.54 30.98-13.42 46.28-1.21 3.82-4.63 6.96-7.36 10.87z" fill="#010000"/><path d="m281.34 277.1c4.02.83 5.42 3.64 5.88 6.98.73 5.31 1.08 10.67 1.84 15.97 1.86 12.95 3.96 25.89 2.9 39.03-.4 4.98-1.68 9.89-2.36 14.86-.3 2.2-1.68 3.04-3.39 2.73-1.23-.22-3-1.33-3.27-2.37-1.17-4.52-1.98-9.14-2.72-13.76-2.16-13.48-4.02-26.99-2.33-40.7.07-.55-.09-1.21.16-1.66 3.55-6.55 2.78-13.81 3.29-21.08z" fill="#010000"/><path d="m110.13 201.76c7.07.46 12.32 5.88 11.75 13.7-.78 10.65-2.93 21.2-4.33 31.82-.97 7.34-6.16 12.13-10.61 17.69-.6-8-1.21-16-1.81-24-.02-.22.01-.48.12-.65 4.45-6.67 1.94-13.85 1.49-20.87-.17-2.68-.59-5.19 1.71-7.45.96-.94 1.09-2.86 1.31-4.38.28-1.86.25-3.76.37-5.86z" fill="#010000"/><path d="m267.67 219.64c-5.15-7.91-8.27-16.31-8.72-25.54-.4-8.14-.48-16.29-.65-24.44-.05-2.05 2.76-5.94 4.49-5.89 2.63.07 3.66 2.12 4.45 4.33 1.27 3.57 2.59 7.12 3.96 10.65 2.46 6.37 1.84 12.92 1.4 19.51-.31 4.73-.14 9.51.02 14.26.1 3.03-1.63 5.88-4.95 7.12z" fill="#010000"/></svg>