<svg enable-background="new 0 0 400 400" viewBox="0 0 400 400" xmlns="http://www.w3.org/2000/svg"><g fill="#010000"><path d="m46.42 135.29c2.98-1.54 5.87-3.26 8.95-4.57 5.99-2.56 11.05-6.12 14.7-11.66.9-1.36 2.64-2.46 4.23-3.02 8.91-3.17 16.47-8.25 23.03-15.06 2.43-2.53 5.49-4.57 8.54-6.38 14.6-8.7 29.32-17.2 43.93-25.89 2.46-1.46 4.82-3.27 6.84-5.3 13.39-13.44 29.56-21.37 48.14-24.51 4.7-.79 9.06.48 12.7 3.81 2.54 2.32 5.17 4.54 7.76 6.81.13-.41.25-.83.38-1.24 1.65.12 3.3.25 4.95.37.01.45.01.9.02 1.35-1.01.16-2.02.32-3.18.5 0 .97-.14 1.99.04 2.94.15.78.69 1.48 1.05 2.22.64-.33 1.37-.54 1.9-1 2-1.76 4.14-2.36 6.8-1.56 9.58 2.88 19.04 5.92 25.56 14.35.13-.4.26-.79.4-1.19 2.13.49 4.41.67 6.38 1.53 12.9 5.6 24.18 13.92 35.91 21.5 8.82 5.7 17.92 10.95 26.84 16.48 6.94 4.3 9.52 10.97 9.71 18.78.02.82-.57 1.9-1.23 2.46-3.47 3-7.71 4.39-12.13 3.88-5.52-.64-11.02-1.79-16.39-3.25-2.57-.7-4.9-2.52-7.18-4.05-3.99-2.67-7.59-6.08-11.83-8.19-22.94-11.43-43.36-26.76-64.51-40.97-7.06-4.74-14-9.64-21.13-14.27-1.29-.84-3.26-1.09-4.85-.94-6.52.61-11.94 3.53-17.12 7.59-12.51 9.79-25.35 19.15-38.06 28.69-.79.59-1.56 1.22-2.9 2.28 1.4.16 2.17.32 2.95.33 23.49.31 46.99.61 70.48.91.78.01 1.71-.16 2.31.19 5.88 3.45 12.53 2.87 18.9 3.8 3.45.5 6.43 1.8 7.77 5.61-6.62 4.68-14.17 6.69-21.81 8.33-4.14.89-8.37 1.65-12.59 1.83-3 .12-6.04-.84-9.06-1.32-1.18-.19-2.4-.62-3.55-.49-4.78.5-9.54 1.19-14.31 1.77-.99.12-2.15.46-2.96.09-7.63-3.46-15.41-1.39-23.12-.69-7.02.64-14.08 1.81-20.96-.48-2.88-.96-5.46-2.81-8.25-4.09-2.08-.96-4.22-1.89-6.43-2.4-2.92-.67-5.95-.91-8.94-1.34-3.21 3.38-6.53 7.65-10.62 10.97-4 3.24-8.79 5.52-13.52 8.4-.6-1.89-.96-3-1.6-5.01-3.26 10.27-11.65 14.42-19.16 19.29-10.69 6.93-21.52 13.75-34.14 16.76-3.02.72-6.18.83-9.28 1.22-2.94.38-4.35-1.31-4.09-3.86.43-4.21 1.24-8.56 5.16-11.07 6.05-3.92 12.35-7.52 18.57-11.24-1.28 1.92-2.62 3.81-3.81 5.8-.54.9-1.17 2.02-1.07 2.97.3 2.73.96 5.42 1.55 8.51 2.12-.98 3.96-1.84 4.89-2.27-.53-2.64-1.12-4.63-1.29-6.66-.21-2.77 1.78-5.62-.27-8.35zm51.64-23.57c-3.05 2.36-5.26 4.02-7.39 5.78-.38.31-.49 1.07-.51 1.63-.01.17.78.63 1.03.53 2.16-.88 4.49-1.58 6.31-2.94.73-.55.35-2.6.56-5z"/><path d="m180.59 138.61c6.68-4.3 13.44-5.12 20.68-5.04 11.71.13 22.83 2.62 33.63 6.8 12.68 4.91 19.65 15.08 23.79 27.37 1.37 4.05.41 8.34-1.7 12.3-1.23 2.33-2.03 4.95-2.67 7.52-1.42 5.65-4.15 10.25-9.15 13.49-4.41 2.86-8.51 6.18-12.96 8.97-10.48 6.57-19.36 15.08-28.72 23.03-6.72 5.71-13.8 11.08-22.37 13.9-7.08 2.33-14.05 2.94-21.17-.39-6.46-3.03-13.15-5.63-19.88-8.02-3.93-1.39-6.59-3.93-9.03-7.07-10.04-12.97-14.04-27.95-15.11-44.01-.77-11.54-.52-23.02 1.41-34.42.2-1.18 1.21-2.57 2.25-3.22 10.12-6.28 21.38-8.66 33.08-9.86 7.88-.81 15.7-2.23 23.51-3.58 2.15-.37 3.79-.57 4.41 2.23zm-40.84 50.13c6.76-.71 13.42-1.23 20.02-2.15 7.35-1.03 14.57-3.5 22.12-1.03 1.36.44 3.09-.1 4.62-.35 10.44-1.71 20.76-4.22 31.54-2 5.01 1.03 9.04-2.45 10.13-7.38.6-2.73 1.15-5.47 1.9-8.16 1.25-4.5.64-5.43-3.76-8.43-1.59-1.08-3.67-1.59-5.61-1.98-4.92-.97-10.07-1.23-13.56-5.61-.98.57-1.73 1.06-2.51 1.46-7.1 3.66-14.77 6.2-22.57 4.49-4.84-1.06-8.84-.38-13.15.97-2.98.93-6.08 1.55-8.96 2.72-5.09 2.06-10 1.69-14.97-.25-1.45-.56-3.02-1.24-4.51-1.17-2.16.1-4.33.67-6.39 1.36-.58.19-1.25 1.64-1.08 2.31 2.11 8.22 4.35 16.37 6.74 25.2zm21.87 37.9c4.1-.37 7.33-.63 10.55-.95 15.87-1.58 28.94-7.89 37.56-21.95 2.03-3.31 1.27-6.1-2.48-6.64-3.19-.46-6.56-1.05-9.67-.53-18.63 3.12-37.22 6.51-55.8 9.93-.84.15-2.07 1.43-2.11 2.23-.24 6.12 3.33 14.97 11.5 16.39 3.74.64 7.5 1.09 10.45 1.52z"/><path d="m372.4 312.47c-9.38 5.05-18.57 5.59-27.83 3.73-14.66-2.94-28.79-7.73-41.44-15.79-8.84-5.64-17-12.34-25.46-18.57-3.42-2.52-7.06-4.8-10.2-7.62-3.78-3.41-7.14-7.28-10.98-11.27-.23.13-1.14.67-2.05 1.19-7.32-4.22-10.25-4.01-16.99 1.53-5.12 4.21-11.02 6.72-17.36 8.39-2.37.62-4.71 1.42-7.05 2.14-4.82 1.49-8.44 4.43-11.96 8.12-11.02 11.55-23.83 20.5-39.5 24.86-2.46.69-4.59 2.54-6.88 3.84-1.03.59-2.16 1.7-3.12 1.58-1.81-.24-3.53-1.19-5.29-1.85.87-1.38 1.45-3.13 2.66-4.07 21.96-16.95 44.1-33.66 65.92-50.79 5.02-3.94 9.59-8.83 13.2-14.09 5.06-7.38 10.79-12.89 20.13-13.59 1.54-.12 3.17-.45 4.53-1.14 4.49-2.27 8.28-.09 11.96 1.88 1.13.6 2 2.4 2.26 3.78 1 5.29 3.89 8.56 8.95 10.52 12.44 4.83 22.64 12.82 31.22 22.98 1.18 1.4 2.87 2.5 4.51 3.39 14.64 7.93 29.38 15.69 43.95 23.74 3.77 2.08 7.42 4.69 10.46 7.71 2.56 2.57 4.19 6.1 6.36 9.4z"/><path d="m137.72 258.43c-1.1 7.25-2.1 14.51-3.33 21.74-1.35 7.93-3.21 15.78-4.35 23.74-1.89 13.2 3.32 22.86 15.41 28.65 2.79 1.33 6.14 2.02 9.24 2.04 8.05.07 16.1-.31 24.14-.73 1.49-.08 2.96-1.09 4.37-1.81 1.48-.75 2.79-1.92 4.33-2.44 19.16-6.45 38.38-12.75 57.52-19.27 2.86-.98 4.43-.49 5.59 2.77-5.79 5.18-9.72 12.56-17.8 15.82-10.41 4.19-19.9 10.15-28.97 16.75-10.5 7.65-21.63 13.05-35.15 13.07-6.83.01-13.68 1.79-20.47 3.05-4.17.78-8.01.44-11.62-1.78-5.9-3.64-11.81-7.28-17.62-11.05-1.03-.67-1.87-1.9-2.37-3.05-4.41-10.18-4.37-20.74-1.85-31.27 3.25-13.58 6.91-27.07 10.42-40.59.19-.74.43-1.54.88-2.13 3.53-4.61 7.12-9.17 10.69-13.75.32.09.63.17.94.24z"/></g><path d="m361.2 9.6.8-1c.9.7 1.9 1.4 2.9 2.3l-.9 1.1c-1-1-2-1.8-2.8-2.4zm.5 10.6c.9-2.1 1.6-4.3 2.3-6.7.4.2.8.4 1.3.6-.7 2.1-1.5 4.3-2.2 6.6zm.4-15.2.9-.9c1 .8 2 1.6 2.8 2.4l-1 1c-.9-.9-1.8-1.7-2.7-2.5zm12.5-1.2h1.2v1.4h2.7v1.1h-2.7v2.7h-1.2v-.6h-1.8v1.3h4.9v3.8h-1.2v-.5h-3.7c0 .4-.1.9-.1 1.2h5.1v1h-5.2c0 .5-.1.9-.2 1.2h6v1h-5.2c1.1 1.3 2.9 2 5.5 2.2-.4.4-.7.8-.9 1.3-2.9-.5-4.8-1.6-5.7-3.5h-.1c-.8 1.7-2.7 2.9-5.9 3.6-.2-.4-.6-.8-.9-1.1 2.8-.6 4.6-1.4 5.4-2.5h-4.8v-1h5.3c.1-.3.2-.7.2-1.2h-4.9v-1h5c0-.4 0-.8.1-1.2h-3.5v.5h-1.2v-3.8h4.9v-1.3h-1.8v.5h-1.2v-2.7h-2.7v-1h2.6v-1.4h1.2v1.4h4.7v-1.4zm-6.6 8.3h3.6c0-.4 0-.9 0-1.4h-3.6zm1.9-4.6h4.7v-1.3h-4.7zm6.6 3.2h-3.7v1.4h3.7z" fill="#fbfcfa"/><path d="m385.3 3.8h1.3v2.2h2.8v-2.2h1.3v2.2h4.1v9.1h1.7v1.3h-16.9v-1.3h1.7v-9.1h4.1v-2.2zm.4 13.1.7 1.2c-1.8.9-3.8 1.9-6 2.9-.2-.4-.5-.8-.8-1.3 2.3-1 4.3-1.9 6.1-2.8zm-3.1-6.4h2.8v-3.2h-2.8zm0 4.6h2.8v-3.3h-2.8zm4-4.6h2.8v-3.2h-2.8zm0 4.6h2.8v-3.3h-2.8zm3.7 1.9c2.1.9 4.1 1.8 6.1 2.7l-.7 1.3c-2.2-1.1-4.2-2-6.1-2.9zm3.2-9.7h-2.8v3.2h2.8zm-2.8 7.8h2.8v-3.3h-2.8z" fill="#fbfcfa"/></svg>