<svg enable-background="new 0 0 400 400" viewBox="0 0 400 400" xmlns="http://www.w3.org/2000/svg"><g fill="#fcfafa"><path d="m342.2 3.2-6.3 9.2h6.1v1.2h-8.2v-.5l6.2-9.1h-5.7v-1.2h7.8v.4z"/><path d="m344 13.7v-10.9h3.1c1.6 0 3 .5 4.1 1.4 1.1 1 1.6 2.2 1.6 3.9s-.5 3-1.6 4-2.5 1.5-4.2 1.5h-3zm1.4-9.6v8.4h1.6c1.4 0 2.5-.4 3.2-1.1.8-.8 1.2-1.8 1.2-3.2s-.4-2.4-1.2-3.1-1.8-1-3.1-1z"/><path d="m356.3 2.8v10.9h-1.4v-10.9z"/><path d="m366.6 13.2c-.8.4-1.8.6-3 .6-1.6 0-2.8-.5-3.7-1.5s-1.4-2.3-1.4-3.9c0-1.7.5-3.2 1.6-4.2s2.4-1.6 4-1.6c1 0 1.9.1 2.6.4v1.5c-.8-.4-1.6-.6-2.6-.6-1.2 0-2.2.4-3 1.2s-1.1 1.9-1.1 3.3c0 1.3.4 2.3 1.1 3.1s1.6 1.1 2.8 1.1c1.1 0 2-.2 2.8-.7v1.3z"/><path d="m368.2 13c0-.3.1-.5.3-.6.2-.2.4-.3.6-.3.3 0 .5.1.7.3s.3.4.3.6-.1.5-.3.6c-.2.2-.4.3-.7.3s-.5-.1-.6-.3c-.2-.2-.3-.4-.3-.6z"/><path d="m381.1 13.7h-1.7l-5.5-8.4c-.2-.2-.3-.5-.4-.7 0 .2.1.8.1 1.5v7.6h-1.4v-10.9h1.8l5.3 8.3c.3.4.4.6.4.8 0-.3-.1-.8-.1-1.6v-7.5h1.4v10.9z"/><path d="m389.7 13.7h-5.8v-10.9h5.6v1.2h-4.2v3.5h3.9v1.2h-3.9v3.7h4.4z"/><path d="m398.4 4.1h-3.1v9.6h-1.4v-9.6h-3.1v-1.3h7.7v1.3z"/></g><path d="m79.16 215.19c3.81 0 6.6-.16 9.36.08 1.07.09 2.23.9 3.06 1.69 4.12 3.95 8.14 8.01 12.19 12.03 8.59 8.53 18.42 14.41 30.92 14.95 4.01.17 8 .92 11.99 1.46.88.12 1.94.18 2.55.7 5.51 4.73 11.97 3.32 18.25 2.88 17.76-1.25 34.74-6.32 51.63-11.38 9.44-2.83 15.54-9.93 19.4-19.23-5.21-3.5-10.6-5.07-16.42-4.37-4.52.55-8.98 1.69-13.44 2.7-13.76 3.11-25.83 10.47-38.81 15.55-8.17 3.2-16.67 4.86-25.31 3.35-6.34-1.1-12.47-3.47-18.68-5.29-2.04-.6-4.02-1.56-6.09-1.82-6.02-.77-8.39-4.63-9.07-10.19.03-.04.14-.34.29-.36 12.8-2 23.85-8.67 35.65-13.35 14.7-5.84 29.82-10.55 45.47-12.55 12.93-1.65 26.09-2.05 39.11.45 4.39.84 8.86 1.25 13.3 1.73 5.09.55 7.53-1.99 6.78-7.14-1.92-13.11-5.38-17.06-21.04-21.62-9.53-2.78-19.19-.9-28.48 1.67-8.16 2.25-16.05 5.44-24.06 8.22-1.58.55-3.13 1.2-4.74 1.63-7.11 1.91-14.34 3.48-20.31 8.24-.94.75-2.11 1.35-3.27 1.67-4.91 1.37-10 2.23-14.76 3.99-4.64 1.71-8.74 5.3-13.45 6.28-11.87 2.46-22.37-2.44-32.4-8.12-2.5-1.42-4.58-3.6-7.62-6.05 7.46-2.55 13.75-4.73 20.06-6.86 14.5-4.91 29.01-9.78 43.49-14.75 2.2-.76 4.32-1.84 6.33-3.03 4.29-2.52 5.23-7.3 2.09-11.19-4.78-5.92-9.64-11.79-14.69-17.47-1.82-2.05-4.13-3.81-6.53-5.16-3.66-2.07-7.18-1.86-10.94.72-12.22 8.4-23.67 17.61-33.45 28.83-1.08 1.24-2.86 2.06-4.47 2.59-3.05 1.01-6.21 1.66-9.36 2.47-2.2-3.86-2.55-7.66-.91-11.47 3.62-8.38 7.12-16.7 13.21-23.89 15.9-18.8 31.12-38.16 46.98-57 4.35-5.17 9.85-9.4 15.03-13.82 4.81-4.11 8.71-8.61 9.73-15.14.31-1.97.06-3.38-1.52-4.68-1.61-1.32-2.81-2.84-1.45-5.2 1.33-2.31 2.78-3.32 5.66-2.49 11.32 3.26 21.21 8.92 29.4 17.35 3.77 3.88 5.2 8.76 4.48 14.22-.8 6.11.82 8.54 6.6 10.57 17.81 6.27 35.78 12.12 53.35 19 19.3 7.56 36.85 18.35 52.05 32.57 6.85 6.41 13.69 13.03 15.51 22.93.06.33.21.64.27.97 1.07 5.72 1 5.84-4.59 7.76-6.11 2.1-6.31 2.24-10.06-3.15-5.82-8.37-12.76-15.07-21.94-20.05-8.39-4.55-15.73-11.03-23.6-16.57-9.17-6.47-21.29-12.09-29.25-13.71-.92 3.88-1.31 7.99-2.9 11.56-2.07 4.65-5 8.94-7.73 13.27-4.04 6.39-8.23 12.69-12.6 19.41 11.55 3.6 22.23 7.27 33.1 10.2 7.04 1.9 12.91 5.07 17.8 10.49 3.51 3.89 7.42 7.48 11.42 10.87 3.05 2.59 4.38 5.79 4.93 9.53 1.95 13.22-1.12 25.78-4.98 38.24-1.75 5.65-4.65 10.5-9.13 14.54-5.14 4.64-9.88 9.73-15.04 14.87 3.21 1.55 6.23 2.85 9.09 4.44 6.51 3.61 6.99 5.67 6.21 13.06-.79 7.49-3.31 13.43-9.51 18.14-3.47 2.64-6 6.61-8.68 10.18-7.21 9.62-15.9 17.51-26.19 23.74-3.67 2.22-7.03 4.97-10.82 7.68 9.78 9.14 20.48 15.39 32.91 17.71 16.91 3.16 33.98 5.44 50.98 8.13 2.65.42 5.27.97 7.9 1.5.65.13 1.27.42 1.9.64 3.9 1.37 7.29 4.03 6.72 8.09-.34 2.39-3.52 5.37-6.07 6.27-5.74 2.02-11.82 3.5-17.87 4.15-14.14 1.53-28.37 1.94-42.52.09-4.11-.53-8.19-2.02-12.03-3.66-14.33-6.13-25.77-16.22-36.86-26.91-9.21-8.87-18.48-17.59-25.31-28.54-7.93-12.72-15.92-25.4-23.78-38.15-1.26-2.05-2.71-3.47-5.13-3.77-.22-.03-.43-.15-.65-.18-12.78-1.6-22.48-8.63-31.22-17.5-8.65-8.77-17.58-17.32-23.1-28.57-1.72-3.43-2.72-7.23-4.32-11.67zm69.49-111.91c8.42 8.61 16.82 16.97 24.93 25.61 2.84 3.03 4.98 4.57 9.83.77 3.46-2.71 6.08-6.75 8.43-10.59 3.73-6.09 6.74-12.61 10.38-18.75 4.33-7.31 2.23-14.38-5.57-17.46-1.97-.78-4.01-1.38-6.07-1.9-6.16-1.56-11.94-1.08-17.81 1.91-9.67 4.91-16.44 12.94-24.12 20.41zm44.7 195.78c.52-.06.89-.02 1.16-.16 1.08-.58 2.26-1.07 3.17-1.86 6.75-5.83 13.59-11.56 20.07-17.67 2.37-2.23 4.18-5.24 5.68-8.18 3.26-6.42 1.2-9.43-6.04-9.32-.55.01-1.13.06-1.65.23-9.34 3.24-18.68 6.5-28.24 9.83 2 9.26 3.92 18.18 5.85 27.13z" fill="#010103"/></svg>