<svg enable-background="new 0 0 400 400" viewBox="0 0 400 400" xmlns="http://www.w3.org/2000/svg"><path d="m5.17 384 .55-.58c.85.61 1.65 1.24 2.4 1.87l-.59.64c-.83-.73-1.62-1.38-2.36-1.93m1.22 9.53-.82-.34c.71-1.76 1.37-3.64 1.98-5.63.24.13.5.25.76.36-.6 1.67-1.24 3.54-1.92 5.61m-.5-13.5.57-.54c.56.44 1.31 1.06 2.26 1.87l-.64.64c-.68-.66-1.41-1.32-2.19-1.97m3.25.46h2.24v-1.36h.77v1.36h4.57v-1.36h.76v1.36h2.28v.69h-2.28v1.84h-2.64v1.26h4.18v2.64h-4.21c0 .45-.02.86-.05 1.21h4.32v.69h-4.38c-.04.34-.1.75-.19 1.22h5.15v.69h-4.82c.87 1.19 2.51 1.92 4.93 2.19-.17.31-.3.57-.37.76-2.77-.49-4.52-1.41-5.26-2.76-.56 1.26-2.3 2.23-5.24 2.9-.12-.24-.26-.48-.43-.72 2.73-.55 4.38-1.34 4.96-2.38h-4.38v-.69h4.65c.1-.38.17-.79.21-1.22h-4.32v-.69h4.4c.03-.34.05-.75.05-1.21h-4.2v-2.64h4.23v-1.26h-2.69v-1.84h-2.24zm1.46 4.46v1.29h3.45c.01-.4.02-.57.01-.53v-.32-.45h-3.46zm1.55-2.59h4.57v-1.19h-4.57zm6.11 2.59h-3.42v.77c-.01.19-.01.37-.02.53h3.44z" fill="#fafafc"/><path d="m32.63 379.16h.82v1.98h3.54v7.89h1.46v.78h-14.37v-.78h1.46v-7.89h3.54v-1.98h.82v1.98h2.73zm-3.49 11.48.5.73c-1.61.82-3.28 1.63-5 2.41-.13-.27-.28-.55-.44-.82 1.75-.72 3.4-1.49 4.94-2.32m-2.78-5.55h2.73v-3.18h-2.73zm0 3.95h2.73v-3.2h-2.73zm3.54-3.95h2.73v-3.18h-2.73zm0 3.95h2.73v-3.2h-2.73zm7.89 4.68c-1.84-.92-3.51-1.7-5.02-2.32l.45-.73c1.89.8 3.57 1.55 5.04 2.23zm-1.62-11.81h-2.73v3.18h2.73zm-2.73 7.13h2.73v-3.2h-2.73z" fill="#fafafc"/><path d="m161.11 374.52c1.51-4.55 3.01-9.12 4.56-13.66.24-.72.59-1.52 1.14-1.99 11.08-9.58 17.91-22.23 24.91-34.71 3.42-6.11 6.21-12.57 9.48-19.25-4.53-1.98-8.44-3.84-12.46-5.41-6.42-2.5-10.85-6.79-13.3-13.3-2.05-5.42-4.1-10.86-8.38-15.12-.89-.89-1.1-2.63-1.28-4.03-1.23-9.88-2.34-19.77-3.59-29.64-.16-1.28-.62-2.71-1.42-3.67-2.48-3-4.91-6.15-7.87-8.64-6.71-5.65-9.93-12.67-8.87-21.3.88-7.19 2.97-14.25 3.54-21.44 1.13-14.08 6.35-26.87 11.41-39.74 1.58-4.02 3.83-7.82 6.12-11.51 5.28-8.52 9.3-17.82 16.5-25.19 1.73-1.77 1.46-5.49 2.23-8.8-6.82-.59-12.68-1.09-18.54-1.59-.67-.06-1.39.09-2-.12-5.7-1.98-8.63 1.25-11 5.7-2.42 4.53-5.12 8.93-7.36 13.54-2.65 5.44-6.78 8.69-12.65 9.97-5.01 1.09-7.8-1-7.4-6.1.34-4.32 1.15-8.26 5.27-11.27 3.62-2.64 6.54-6.42 9.26-10.08 4.13-5.56 7.61-11.61 11.75-17.16 2.55-3.42 4.03-6.87 3.41-11.11-.36-2.42.47-4.31 2.33-5.91 10.32-8.87 15.54-21.1 21.56-32.81 2.53-4.93 2.52-4.83 8.13-4.07 7.75 1.06 13.9 4.49 18.26 11.14 2.45 3.74 5.41 7.14 7.88 10.87 3.77 5.67 8.34 10.49 14.14 14.06 3.15 1.94 5.24 4.32 4.95 8.3-.1 1.31.32 2.65.54 4.18.57.17 1.2.55 1.79.5 5.92-.45 9.91 2.64 13.8 6.69 6.43 6.69 13.26 13.01 20.04 19.36 1.59 1.49 2.23 2.88 1.47 4.97-.46 1.25-.78 2.59-.88 3.91-.15 1.97-1.15 2.86-2.97 3.48-6.8 2.29-6.68 2.26-11.09-3.38-3.78-4.83-7.68-9.6-11.89-14.06-1.23-1.3-3.73-2.04-5.62-1.98-8.38.28-16.75.93-25.12 1.46-4.28.27-7.05 5.71-4.67 9.38 5.72 8.82 11.43 17.65 17.33 26.35 7.49 11.04 14.32 22.45 19.13 34.92 5.73 14.85 4.91 29.6-1.98 43.89-1.62 3.36 1.24 4.84 1.74 6.91-4.1 4.28-8.35 8.24-12.01 12.69-2.3 2.8-3.97 6.2-5.46 9.54-2.13 4.76-2.53 9.5.26 14.45 1.25 2.21 1.5 5.3 1.33 7.94-.49 7.81-.94 15.68-2.3 23.37-1.24 7-3.57 13.81-5.56 20.66-1.15 3.97-2.7 7.82-3.83 11.79-.81 2.87-2.09 5.09-5.14 5.95-2.1.6-2.93 2.01-2.89 4.24.1 5.39-2.17 9.89-5.46 14.04-8.38 10.57-17.44 20.47-28.74 27.98-3.63 2.41-7.85 3.92-11.8 5.84-.25-.34-.49-.69-.73-1.03zm-3.23-183.62c.29 12.97 7.32 22.59 16.04 31.31.56.56 1.56.79 2.39.98 12.43 2.79 24.36 1.24 36.03-3.78 7.36-3.16 12.86-7.57 14.93-15.77 1.56-6.19 2.14-11.92-2.9-16.82-1.44-1.4-3.01-2.67-4.42-4.11-1.56-1.58-3.1-1.59-5.11-.76-6.51 2.68-13.32 3.94-20.35 2.98-12.71-1.73-24.89-.23-36.61 5.97zm36.2-74.95c-4.59 6.41-8.71 12.06-12.71 17.79-4.08 5.84-8.12 11.71-12.02 17.67-2.44 3.73-3.55 7.88-2.76 12.4.3 1.7 1.05 2.61 2.94 3.01 12.31 2.64 24.76 3.69 37.3 3 4.07-.22 8.07-1.58 12.11-2.39 2.67-.53 3.07-2.17 2.23-4.44-.74-1.99-1.26-4.09-2.27-5.93-6.3-11.42-12.65-22.82-19.14-34.14-1.26-2.16-3.19-3.94-5.68-6.97zm15.19 146h.83c0-6.25-.02-12.51.01-18.76.02-3.73-4.03-7.36-7.61-6.19-6.84 2.25-13.51 5.01-20.27 7.53-2.32.87-2.85 2.6-2.42 4.8 1.54 7.87 2.94 15.78 4.77 23.58.43 1.82 2.05 3.75 3.66 4.82 4.44 2.94 9.1 5.57 13.79 8.11 4.12 2.24 7.18.29 7.22-4.47.06-6.47.02-12.95.02-19.42zm-43.86-181.77c18.61-.7 37.1-1.39 56.2-2.11-.99-1.26-1.51-2.09-2.18-2.76-6.49-6.48-12.93-13.02-19.55-19.36-2.08-1.99-4.66-3.45-7.04-5.11-1.58-1.1-2.81-.96-4.32.54-6.6 6.54-13.21 13.07-20.14 19.25-2.98 2.65-4.03 5.37-2.97 9.55z" fill="#010101"/></svg>