<svg enable-background="new 0 0 400 400" viewBox="0 0 400 400" xmlns="http://www.w3.org/2000/svg"><path d="m187.35 231.9c8-4.64 14.17-1.32 20.48 3.44-.34-1.04-.67-2.1-1.03-3.13-6.75-19.07-13.12-38.28-20.38-57.14-4.66-12.09-5.17-24.19-2.88-36.57 2.58-13.95 5.91-27.77 8.28-41.75.88-5.18-.04-10.66-.16-16.01-.03-1.22-.15-2.43-.23-3.75 2.82-1.06 5.23-.74 7.66.89 3.92 2.64 6.59 2.57 9.86-.84 6.55-6.8 10.16-15.17 11.66-24.41.17-1.04-.83-2.74-1.8-3.42-5.42-3.83-11.56-3.18-17.76-2.73-17.14 1.27-32.13 9.12-47.6 15.42-3.19 1.3-5.72 4.24-8.5 6.49-5.39 4.37-10.84 8.67-16.09 13.21-3.84 3.32-8.08 4.18-12.82 2.88-7.26-1.99-13.49-6.01-19.21-10.69-1.75-1.43-2.5-4.1-3.89-6.51 3.22-1.29 6.06-2.55 8.98-3.59 18.63-6.61 36-15.82 53.04-25.69 12.29-7.12 25.53-11.47 39.65-12.49 11.79-.86 23.52.26 34.6 4.82 12.94 5.33 17.71 13.76 14.67 27.42-1.61 7.24-4.77 14.14-7.36 21.15-.4 1.07-1.46 1.95-2.34 2.78-5.34 5.08-10.71 10.11-16.42 15.5 6.07 2.36 11.97 2.27 17.79 1.83 14.61-1.11 29.18-2.84 43.8-3.58 6.37-.32 12.89.9 19.25 1.96 4.36.73 5.93 2.92 7.36 7.96-.69.24-1.37.6-2.09.72-29.33 4.94-58.65 9.94-88.02 14.69-3.79.61-6.09 2.43-7.02 5.7-1.22 4.27-2.18 8.68-2.58 13.09-.48 5.22-.15 10.51-.37 15.77-.1 2.31.97 3.37 2.88 4.28 7.88 3.74 16.07 4.52 24.56 2.93 6.59-1.24 13.14-2.76 19.78-3.68 5.07-.7 10.24-.82 15.37-.93 14.32-.29 28.64-.54 42.96-.58 3.65-.01 7.35.61 10.94 1.37 2.81.59 5.09 2.22 5.7 5.74-9.35 1.76-18.54 3.5-27.74 5.22-20.34 3.79-40.63 7.81-61.04 11.17-4.88.8-10.19-.28-15.19-1.13-4.71-.81-9.27-2.5-13.91-3.73-1.15-.3-2.37-.34-4.08-.57 1.22 7.08 2.37 13.74 3.52 20.39.19 1.1.24 2.25.59 3.3 1.5 4.59.24 10.01 3.89 13.91 7.65 8.17 15.27 15.99 27.24 18.25 17.71 3.35 34.87 2.29 52-3 5.84-1.8 11.91-3.13 17.97-3.91 5.62-.72 8.67 2.08 8.48 6.86-.04 1.1-.85 2.62-1.76 3.17-18.51 11.03-38.34 18.08-60.12 16.59-8.44-.58-16.7-3.86-25.02-6.02-5.26-1.36-10.48-2.91-16.86-4.7 5.59 8.44 2.19 16.19.57 24.13 9.16 3.2 18.38 5.32 27.83 6.34 19.13 2.07 38.18 1.06 57.22-1.55 5.92-.81 12.01-.46 18.03-.37 1.43.02 3.06.83 4.24 1.74 2.73 2.11 2.4 4.43-.67 5.96-9.83 4.9-20.43 7.26-31.16 8.89-17.28 2.63-34.65 4.11-52.17 3.57-7.26-.23-14.23-1.15-20.41-5.38-1.74-1.19-3.72-2.02-6-3.24-1.39 5.74-2.77 11.21-3.95 16.72-.14.67.68 2 1.37 2.32 2.9 1.32 5.86 3.04 8.93 3.39 15.22 1.72 30.45 3.43 45.73 4.41 13.61.87 27.29.62 40.92 1.19 6.68.28 13.36 1.13 19.98 2.12 2.05.31 4.25 1.59 5.75 3.07 2.58 2.56 1.73 5.01-1.67 6.12-17.95 5.86-36.4 8.32-55.23 7.55-8.59-.35-17.14-1.6-25.73-2.13-4.45-.27-8.95-.09-13.4.3-5.64.5-10.61-.97-15.19-4.11-2.94-2.02-5.86-4.06-9.61-6.66 1.16 4.69 2.49 8.53 2.98 12.48.61 4.88 4.23 6.83 7.65 9.06 11.57 7.57 24.57 10.95 38.02 13.24 16.53 2.81 32.94 2.08 49.44-.25 6.02-.85 12.25-.68 18.34-.33 3.8.22 5.8 2.31 7.45 5.64-3.83 3.93-8.51 6.53-13.86 7.57-20.58 4-41.25 7.1-62.32 4.78-14.67-1.62-28.77-5.33-42.09-11.78-1.16-.56-2.2-1.51-3.08-2.47-14.04-15.44-21.17-33.94-24.1-54.33-2.27-15.84-2.12-31.6-.2-47.5.67-5.55-1.25-11.42-1.99-17.14-.09-.65-.24-1.3-.31-1.7z" fill="#010104"/><path d="m135.07 254.46c-14.35 17.86-31.35 31.74-50.27 43.36-6.8 4.17-14.08 7.31-21.98 8.82-1.18.23-2.39.33-3.58.49-1.23-3.88.03-6.17 3.08-8.64 18.54-15.06 33.94-33.11 48.14-52.19 4.45-5.98 8.06-12.6 11.89-19.03.74-1.25 1.01-2.97.98-4.46-.15-7.16-.41-14.32-.81-21.47-.06-1.12-.78-2.82-1.63-3.14-1.13-.44-3.01-.24-3.98.47-3.24 2.36-6.34 4.95-9.27 7.69-6.05 5.65-11.86 11.56-17.95 17.16-7.59 6.98-18.55 11.24-26.52 10.57-.54-3.38-.14-6.05 2.64-8.9 12.92-13.21 25.27-26.94 34.74-42.96 1.08-1.82 1.88-3.81 2.87-5.68 5.45-10.25 2.42-18.13-5.84-25.8-4.51-4.18-9.43-7.92-14.13-11.89-6.12-5.18-8.73-11.92-8.88-20.52 3.38 1.49 6.45 2.66 9.35 4.16 20.54 10.66 37.3 25.78 49.3 45.37 5.07 8.28 7.8 18.3 10.1 27.89 4.64 19.34 8.24 38.92 12.28 58.4 1.72 8.32 3.85 16.57 5.08 24.96 1.67 11.42-1.05 22.48-4.24 33.36-3.71 12.65-7.58 25.26-11.5 37.85-.43 1.38-1.54 2.62-2.54 3.74-5.11 5.74-10.52 11.23-15.38 17.17-3.35 4.09-7.66 4.8-12.29 4.78-3.11-.01-6.21-.71-9.32-1.06-1.63-.18-3.14-.43-3.3-2.54s-1.23-4.11 1.25-5.97c21.34-16.01 31.6-38.23 35.41-63.97 2.25-15.15 1.45-30.11-2.73-44.87-.23-.93-.55-1.84-.97-3.15z" fill="#010104"/><g fill="#fcfbfa"><path d="m385.2 377.6.6-.7c.6.4 1.3.9 1.9 1.5l-.6.7c-.8-.5-1.4-1-1.9-1.5zm.3 7.1c.6-1.4 1.1-2.9 1.5-4.5.3.1.6.3.9.4-.5 1.4-1 2.9-1.5 4.4zm.2-10.1.6-.6c.7.5 1.3 1.1 1.9 1.6l-.7.7c-.6-.6-1.2-1.2-1.8-1.7zm8.4-.8h.8v.9h1.8v.7h-1.8v1.8h-.8v-.3h-1.2v.9h3.3v2.6h-.8v-.4h-2.5c0 .3 0 .6-.1.8h3.4v.7h-3.5c0 .3-.1.6-.1.8h4v.7h-3.5c.7.9 1.9 1.3 3.6 1.5-.2.2-.4.5-.6.9-1.9-.3-3.2-1.1-3.8-2.3-.5 1.1-1.8 2-3.9 2.4-.2-.3-.4-.5-.6-.8 1.9-.4 3.1-.9 3.6-1.7h-3.2v-.7h3.5c.1-.2.1-.5.2-.8h-3.3v-.7h3.4c0-.2 0-.5 0-.8h-2.4v.3h-.8v-2.6h3.3v-.9h-1.2v.3h-.8v-1.8h-1.8v-.7h1.8v-.9h.8v.9h3.2zm-4.4 5.5h2.4c0-.3 0-.6 0-.9h-2.4zm1.2-3.1h3.2v-.8h-3.2zm4.4 2.2h-2.4v.9h2.5v-.9z"/><path d="m389.2 385.8h.9v1.5h1.9v-1.5h.9v1.5h2.7v6h1.1v.9h-11.3v-.9h1.1v-6h2.7zm.2 8.7.5.8c-1.2.6-2.5 1.3-4 1.9-.2-.3-.3-.6-.6-.8 1.6-.6 3-1.3 4.1-1.9zm-2-4.3h1.9v-2.1h-1.9zm0 3.1h1.9v-2.2h-1.9zm2.7-3.1h1.9v-2.1h-1.9zm0 3.1h1.9v-2.2h-1.9zm2.4 1.3c1.4.6 2.7 1.2 4.1 1.8l-.5.9c-1.5-.7-2.8-1.4-4.1-1.9zm2.2-6.5h-1.9v2.1h1.9zm-1.9 5.2h1.9v-2.2h-1.9z"/></g></svg>