<svg enable-background="new 0 0 400 400" viewBox="0 0 400 400" xmlns="http://www.w3.org/2000/svg"><path d="m120.31 195.07c3.75.24 3.75.24 8.99 5.34 1.37-4.14.6-8.21-1-11.81-2.8-6.3-6.04-12.44-9.54-18.39-2.3-3.92-4.56-3.66-7.28-.13-14.23 18.53-30 35.59-48.67 49.76-6.28 4.76-13.25 8.32-21.15 9.66-1.73.29-3.51.29-5.24.42-1.07-2.76.12-4.35 1.84-6.04 17.82-17.51 35.04-35.56 49.29-56.18 5.94-8.6 10.44-17.94 13.52-27.96.65-2.11.27-3.37-1.38-4.88-9.82-9-19.62-18.02-29.19-27.28-5.98-5.79-10.31-12.69-11.13-21.25-.27-2.84-.04-5.74-.04-9.78 5.2 1.94 9.64 3.1 13.6 5.18 10.22 5.37 18.79 12.97 26.27 21.66 11.02 12.81 21.72 25.89 32.48 38.92 1.25 1.52 2.3 3.31 3.02 5.14 7.91 20.06 15.73 40.16 23.58 60.24.39.99.87 1.94 1.54 3.43 2.93-9.54 2.78-18.65 1.67-27.75-.91-7.43-1.81-14.92-3.58-22.17-1.5-6.13-4.4-11.91-6.32-17.95-.61-1.91-.84-4.73.16-6.14.84-1.19 3.74-1.41 5.67-1.27 4.07.3 7.68 1.87 10.92 4.58 6 5.03 12.28 9.73 18.34 14.68.89.73 1.78 2.17 1.73 3.23-1.1 21.14 4.6 41.49 6.98 62.21.59 5.18 2.7 8.33 7.17 10.93 3.38 1.97 6.28 2.48 10.01 1.59 10.76-2.57 21.52-5.33 32.43-7.03 9.22-1.43 18.66-1.7 28.01-2.09 16.31-.68 32.64-1.11 48.96-1.56 7.3-.2 14.17 1.77 20.71 4.85 5.34 2.51 7.42 6.17 7.07 11.39-.15 2.22-.83 3.28-3.33 3.51-11.02 1.02-22.1 1.81-33.01 3.6-13.33 2.18-26.48 5.43-39.77 7.92-9.21 1.73-18.46 3.62-27.77 4.26-13.73.95-26.84-2.43-39.34-8.14-1.73-.79-3.47-1.55-5.21-2.31-.19-.08-.43-.04-.65-.04-4.7 4.85-3.73 13.21 1.78 16.95 3.87 2.63 7.62 5.6 10.86 8.96 6.56 6.8 14.87 8.95 23.74 10.33 14.54 2.26 28.99.94 43.49-.38 24.02-2.18 47.41-7.75 70.88-12.92 5.22-1.15 7.96 1.72 6.22 6.97-1.53 4.6-4.07 8.72-8.34 11.44-16.05 10.26-33.47 16.98-52.35 19.58-10.29 1.42-20.66 2.29-31 3.3-11.86 1.17-23.36-1.45-34.92-3.49-2.09-.37-4.17-.97-6.28-1.06-11.19-.51-19.77-7.12-28.99-12.23-.91-.51-1.54-1.6-2.2-2.49-7.57-10.13-15.12-20.26-22.68-30.4-.93-1.24-1.88-2.47-3.3-4.33-.99 5.23-2.19 9.75-2.67 14.34-1.44 14.06-8.39 25.82-15.55 37.41-12.2 19.76-27.24 36.93-47.44 48.91-9.22 5.47-18.74 10.45-28.24 15.44-5.2 2.74-9.7 2.78-16.26.78 0-2.1-.2-4.34.09-6.52.14-1 1.07-2.13 1.95-2.75 23.1-16.16 42.27-36.23 58.32-59.28 13.18-18.92 20.93-39.88 22.03-63.09.01-.21-.1-.42-.25-1.04-3.44 0-7-.19-10.52.11-1.08.09-2.13 1.45-3.04 2.39-15.38 15.98-31.26 31.42-48.87 44.96-8.84 6.8-18.54 12.08-29.51 14.66-1.94.46-3.92.7-6.25 1.1 2.66-6.16 4.89-11.9 9.49-16.7 16.73-17.45 33.38-34.99 49.51-52.98 6.76-7.54 12.54-16.07 17.91-24.68 1.87-3 1.18-7.6 1.64-11.47.18-1.37.27-2.79.39-4.17z" fill="#010104"/><path d="m80.82 61.64c5.83-.93 11.11-1.84 16.41-2.6 13.08-1.86 24.57-7.96 36.25-13.55 12.69-6.08 25.39-12.12 38.08-18.19 4.13-1.97 8.48-2.76 13.02-2.3 8.33.85 16.7 1.49 24.98 2.76 6.45.99 11.91 4.26 16.37 9.17 3.42 3.76 4.79 8.06 3.82 12.97-.84 4.27-2.23 8.43-3 12.7-.54 3.02-.95 6.22-.53 9.22.52 3.75 2.8 4.92 6.23 3.45 10.92-4.7 22.56-5.22 34.13-6.2 12.81-1.09 25.62-2.35 38.45-3.12 4.17-.25 8.46.56 12.63 1.29 3.99.69 5.97 3.51 6.57 7.72-9.24 3.34-18.36 6.63-27.47 9.95-17.54 6.38-35.05 12.8-52.62 19.08-1.68.6-3.71.7-5.49.42-5.62-.88-11.2-2.05-17.17-3.18-.83 9.12-1.63 18-2.49 27.46 5.68-.41 11.08-.76 16.48-1.19 21.41-1.7 42.81-3.52 64.22-5.08 5.54-.4 11.16-.3 16.7.08 5.3.37 7.89 2.77 8.11 6.42.11 1.78-.45 2.83-2.33 3.39-25.08 7.37-50.13 14.83-75.22 22.16-1.63.48-3.55.25-5.28-.01-5.97-.87-11.91-2.04-17.89-2.77-1.34-.16-3.26.58-4.19 1.58-2.57 2.77-3.59 6.28-2.43 9.97 1.46 4.68 3.16 9.31 5 13.85.41 1.02 1.76 1.94 2.88 2.35 12.04 4.41 24.54 5.52 37.29 5.33 12.29-.18 24.6-.15 36.87.48 8.32.43 16.18-1.74 24.24-2.77 3.99-.51 7.93-1.56 11.92-1.82 1.73-.11 4.04.72 5.18 1.96.87.95.97 3.62.24 4.81-1.64 2.66-3.62 5.44-6.15 7.17-12.97 8.85-27.05 15.16-42.68 17.79-16.32 2.75-32.6 2.1-48.7-1.15-9.6-1.94-18.98-5-28.4-7.77-1.4-.41-2.89-1.73-3.63-3.03-13.89-24.4-19.51-50.58-17.65-78.63 1.48-22.33 2.04-44.71 2.87-67.08.05-1.3-.84-2.98-1.84-3.92-2.55-2.39-5.91-3.03-9.11-2.02-5.71 1.81-11.58 3.52-16.82 6.33-10.93 5.86-21.38 12.62-32.25 18.6-7.35 4.04-14.15 8.65-19.08 15.47-3.78 5.24-8.74 4.99-14.07 4-.87-.16-1.68-.62-2.54-.84-6.55-1.68-10.72-5.43-12.67-12.23-1.74-6.14-4.65-12-7.24-18.48z" fill="#010104"/><g fill="#fcfbfa"><path d="m385.2 377.6.6-.7c.6.4 1.3.9 1.9 1.5l-.6.7c-.8-.5-1.4-1-1.9-1.5zm.3 7.1c.6-1.4 1.1-2.9 1.5-4.5.3.1.6.3.9.4-.5 1.4-1 2.9-1.5 4.4zm.2-10.1.6-.6c.7.5 1.3 1.1 1.9 1.6l-.7.7c-.6-.6-1.2-1.2-1.8-1.7zm8.4-.8h.8v.9h1.8v.7h-1.8v1.8h-.8v-.3h-1.2v.9h3.3v2.6h-.8v-.4h-2.5c0 .3 0 .6-.1.8h3.4v.7h-3.5c0 .3-.1.6-.1.8h4v.7h-3.5c.7.9 1.9 1.3 3.6 1.5-.2.2-.4.5-.6.9-1.9-.3-3.2-1.1-3.8-2.3-.5 1.1-1.8 2-3.9 2.4-.2-.3-.4-.5-.6-.8 1.9-.4 3.1-.9 3.6-1.7h-3.2v-.7h3.5c.1-.2.1-.5.2-.8h-3.3v-.7h3.4c0-.2 0-.5 0-.8h-2.4v.3h-.8v-2.6h3.3v-.9h-1.2v.3h-.8v-1.8h-1.8v-.7h1.8v-.9h.8v.9h3.2zm-4.4 5.5h2.4c0-.3 0-.6 0-.9h-2.4zm1.2-3.1h3.2v-.8h-3.2zm4.4 2.2h-2.4v.9h2.5v-.9z"/><path d="m389.2 385.8h.9v1.5h1.9v-1.5h.9v1.5h2.7v6h1.1v.9h-11.3v-.9h1.1v-6h2.7zm.2 8.7.5.8c-1.2.6-2.5 1.3-4 1.9-.2-.3-.3-.6-.6-.8 1.6-.6 3-1.3 4.1-1.9zm-2-4.3h1.9v-2.1h-1.9zm0 3.1h1.9v-2.2h-1.9zm2.7-3.1h1.9v-2.1h-1.9zm0 3.1h1.9v-2.2h-1.9zm2.4 1.3c1.4.6 2.7 1.2 4.1 1.8l-.5.9c-1.5-.7-2.8-1.4-4.1-1.9zm2.2-6.5h-1.9v2.1h1.9zm-1.9 5.2h1.9v-2.2h-1.9z"/></g></svg>