<svg enable-background="new 0 0 400 400" viewBox="0 0 400 400" xmlns="http://www.w3.org/2000/svg"><g fill="#fbfafa"><path d="m37.59 393.81c-.92.31-1.52.05-2-.78-.7-1.2-1.52-2.34-2.47-3.78v4.59c-.55.03-.95.05-1.41.07-.03-.37-.06-.64-.06-.91 0-1.91 0-3.81 0-5.7 1.13-.41 1.77-.03 2.29.91.62 1.11 1.38 2.14 2.31 3.19v-4.2h1.35v6.61z"/><path d="m12.94 393.88v-6.75c1.9.19 3.93-.54 5.37 1.29.8 1.01.78 2.88.03 3.97-1.37 1.97-3.4 1.51-5.4 1.49m1.45-1.22c2.04.12 2.92-.58 2.89-2.21-.03-1.51-.98-2.19-2.89-2z"/><path d="m11.81 393.87h-5.49c.68-2.18 2.47-3.48 3.51-5.45h-3.08v-1.21h5.29c-.71 2.13-2.44 3.48-3.47 5.51.86 0 1.63.04 2.39-.01.79-.05 1.14.21.85 1.16"/><path d="m39.33 393.86v-6.61h3.7v1.07h-2.22v1.52c.68.04 1.34.09 2.07.13v1.07c-.72.05-1.38.09-2.1.14v1.48h2.4v1.19h-3.85z"/><path d="m27.71 388.56c-1.15-.3-2.46-.61-3.1.64-.37.73-.41 1.93-.06 2.67.63 1.35 1.99.93 3.17.68.35.94-.01 1.32-.93 1.46-1.62.25-3.05-.27-3.76-1.48-.73-1.24-.6-3.03.31-4.17.88-1.11 2.71-1.7 4-1.16.32.13.44.74.65 1.12-.1.08-.19.16-.28.24"/><path d="m49.15 387.24v1.07c-.59.02-1.17.05-1.87.08v5.44h-1.48v-5.44h-1.85c-.05-.4-.08-.73-.13-1.15z"/><path d="m20.06 387.21h1.33v6.62h-1.33z"/><path d="m30.68 393.25c-.49.38-.8.79-1.05.76-.32-.05-.6-.45-.9-.7.26-.24.51-.64.8-.67.29-.04.62.3 1.15.61"/></g><path d="m179.71 122.05c7.09 0 14.46-.03 21.83.01 5.14.03 10.28.34 15.4.12 2.27-.1 4.89-.68 6.61-2.01 1.33-1.03-.83-7.22-2.58-8.71-8.25-7.06-16.55-14.07-24.73-21.21-1.46-1.28-2.84-2.94-3.59-4.71-2.66-6.27-5.27-12.59-7.38-19.06-.92-2.82-.54-6.06-.8-9.11-.28-3.22-.9-6.44-.87-9.65.03-3.3.53-6.62 1.1-9.89.14-.8 1.37-2.02 2.03-1.98 1.1.07 2.74.76 3.1 1.63 1.16 2.85 2.08 5.86 2.68 8.89 1.45 7.33 2.28 14.81 4.09 22.04 2.04 8.14 8.17 13.74 13.9 19.4 2.76 2.72 5.96 4.99 9.01 7.51 3.38-2.7 3.61-6.03 3.39-9.4-.52-7.92-1.31-15.83-1.73-23.75-.52-9.72-.85-19.46-1.12-29.2-.05-1.72.11-3.8 1.03-5.11.91-1.28 2.94-2.49 4.43-2.44 2.34.08 4.11 1.78 4.03 4.49-.06 2.12-.27 4.24-.51 6.35-.27 2.44-.81 4.82 1.05 7.02.55.65.52 1.9.55 2.88.11 3.81.24 7.62.15 11.42-.11 4.86.57 9.47 2.22 14.11 1.05 2.96.66 6.4 1.14 9.6.45 3 1.2 5.96 1.88 9.21 8.95-7.01 12.96-15.79 13.58-26.21.44-7.36.66-14.73.93-22.1.14-3.91 3.83-8.38 8.39-9.14.44 2.89 1.35 5.79 1.22 8.65-.36 8.13-1.06 16.26-1.81 24.37-.35 3.77-.92 7.54-1.71 11.25-2.1 9.86-9.08 16.26-16.6 21.93-3.5 2.64-5.44 4.99-4.54 9.5.65 3.27.79 6.69.72 10.03-.06 2.79 1.36 4.06 3.67 4.14 4.88.16 9.78-.04 14.67-.1 1.11-.01 2.22-.16 3.33-.09 7.32.46 7.82 1.3 8.72 8.4.77 6.07 2.74 11.98 3.5 18.05 1.16 9.27.47 18.52-1.6 27.68-.96 4.24-3.69 6.68-7.28 8.93-2.5-3.53-5.04-2.41-7.99-.36-1.77 1.23-4.18 1.5-6.23 2.36-3.56 1.51-4 2.77-2.1 6 3.74 6.37 8.03 12.47 11.18 19.11 3.07 6.47 5.05 13.47 7.38 20.28.2.59-.32 1.74-.86 2.24-4.52 4.2-9.1 8.36-15.97 7.81-.51-.04-1.23.12-1.53.47-2.75 3.16-6.32 2.6-9.92 2.56-1.89-.02-3.77.98-5.69 1.25-3.44.49-6.93 1.13-10.37 1.03-2.58-.07-5.12-1.6-7.66.33-.42.32-1.31.2-1.92.03-5.83-1.58-11.72-1.26-17.65-.93-1.6.09-3.48-.62-4.82-1.56-1.12-.79-1.62-2.45-2.39-3.72 1.16-.64 2.26-1.57 3.51-1.86 3.73-.86 7.56-1.38 9.6-5.56-2.39-2.18-1.72-4.77-1.01-7.61 2.9-11.72 5.61-23.48 8.32-35.25.67-2.9-.54-4.51-4.19-4.4-7.37.22-12.44-3.61-17.03-8.62-.52-.57-1.12-1.17-1.35-1.87-5.94-17.64-7.69-35.56-3.52-53.87.07-.33.26-.62.71-1.6zm75.23 30.75c3.96-4.62 3.46-9.86 3.11-14.91-.27-3.93-1.72-4.95-5.61-3.97-3.04.76-5.46.57-7.24-1.8-1.61.76-3.01 1.99-4.35 1.94-3.85-.15-7.68-.91-11.53-1.25-4.32-.39-8.75-1.24-12.97-.69-3.73.49-7.23.53-10.89-.06-4.41-.71-8.86-1.19-13.31-1.56-4.52-.37-6.13 1.45-6.31 5.83-.47 11.23 3.33 21.73 5.34 32.54.07.4.36.95.68 1.07 3.66 1.4 3.98 4.73 4.37 8.22 4.73-1.17 9.18-2.17 13.56-3.39 2.69-.75 4.9-.29 7.27 1.22 1.7 1.08 3.95 1.94 5.91 1.86 4.68-.17 9.47.82 14.07-1.18 1.55-.67 3.52-.4 5.3-.5 2.9-.17 5.8-.39 8.69-.4 3.93-.01 5.73-1.74 5.84-5.79.17-5.84 2.31-11.82-1.93-17.18zm-28.42 87.54c2.31-3.07 4.86-3.7 8.22-2.79 1.48.4 3.5-.3 5-1.04 2.18-1.08 4.06-2.76 6.19-3.98 1.72-.98 2.27-2.21 1.86-4.11-.62-2.94-.6-6.13-1.75-8.83-3.57-8.39-7.85-16.48-11.25-24.94-1.64-4.09-4.28-5.69-8.18-6.35-4.12-.7-10.94 2.16-11.75 5.28-.87 3.34-1.64 6.73-2.09 10.15-.99 7.52-1.68 15.06-4.96 22.1-1.25 2.69-1.73 5.75-2.43 8.68-.6 2.54.53 4.27 3.1 4.48 2.64.21 5.33.12 7.96-.14 3.44-.32 6.89-1.51 10.08 1.49z" fill="#010000"/><path d="m157.64 268.01c-2.41 1.86-4.43 3.06-6 4.69-4.18 4.35-8.52 8.35-9.61 15.09-.67 4.13-1.11 7.37.94 11.26 2.72 5.16 6.21 9.43 10.46 13.33 2.18 2 3.7 4.7 5.09 7.48-9.15-.68-14.38-7.03-20.43-12.6-3.94 5.21-5.55 11.45-6.09 17.88-.54 6.46-.27 12.98-.47 19.47-.1 3.23-.53 6.45-.7 9.68-.14 2.77-.2 5.54-.15 8.31.07 4.4-1.43 8.19-4.68 11.63-.63-5.46-1.43-10.91-1.84-16.39-1.09-14.42-.8-28.88 2.89-42.87.91-3.46-.08-6.73 1.15-9.97 1.31-3.44 2.39-7.01 3.1-10.61.41-2.1.26-4.46-.26-6.56-3.23-13.08-3.33-26.12.09-39.17.56-2.15.55-2.16 3.52-2.04.26 5.51.54 11.06.78 16.6.13 3.02-.02 6.08.4 9.05.21 1.49 1.12 3.22 2.27 4.16 1.35 1.1 3.26 1.15 3.91-1.19 2.55-9.22 8.43-16.43 14.35-23.58 1.45-1.75 1.54-3.43 1.28-5.53-.66-5.42-1.72-10.92-1.37-16.3.46-6.94-2.42-13.14-2.99-19.79-1.25-14.49-2.47-28.97-3.85-43.45-.27-2.84-1.29-5.6-1.8-8.43-.2-1.13-.31-2.47.11-3.47 1.32-3.15 1.55-6.24.48-9.48-.88-2.65 0-4.78 2.18-6.73 4.55 4.7 6.79 10.22 7.23 16.53.13 1.79.17 3.58.13 5.37-.32 14.74 3.76 28.98 4.97 43.56.41 4.9 1.34 9.76 1.76 14.66.6 7.01.94 14.04 1.41 21.06.03.44.09.89.24 1.3 5.88 15.86 4.96 32.31 4.16 48.74-.14 2.82-.64 5.7-4.5 6.38-2.62-8.96-5.25-18.04-8.16-28.07z" fill="#010000"/><path d="m246.55 144.3c1.92 7.7-2.48 14.4-11.84 12.84-8.37-1.39-16.75-2.67-25.13-3.98-2.98-.47-5.96-.93-8.96-1.27-2.1-.24-3.1-1.22-3.41-3.38-.32-2.3 1.29-2.82 2.7-3.08 3.05-.57 6.16-.84 9.26-1.1 1.44-.12 2.95.36 4.34.09 6.47-1.25 12.56.24 18.69 2.07 5 1.48 9.93 1.15 14.35-2.19z" fill="#010000"/></svg>