<svg enable-background="new 0 0 400 400" viewBox="0 0 400 400" xmlns="http://www.w3.org/2000/svg"><path d="m362.1 8.8c1.1.8 2.1 1.6 3.1 2.4l-1 1.1c-1.3-1.1-2.3-2-3-2.5zm1.9 4.8c.5.2.9.4 1.4.5-.6 2.3-1.3 4.5-1.9 6.8l-1.5-.5c.8-2.1 1.4-4.3 2-6.8zm-1-9.4c1.3.9 2.4 1.8 3.4 2.5l-1 1.1c-1.4-1.2-2.4-2.1-3.2-2.6zm3.7 2.2v-1.4h10.3v1.2c-.5 3.6-1.8 6.8-4 9.4 1.5 1.6 3.4 2.8 5.7 3.8-.3.4-.7.8-1.1 1.4-2.3-1.1-4.1-2.5-5.6-4.1-1.6 1.6-3.6 3.1-5.9 4.3-.3-.5-.7-.9-1-1.3 2.4-1.1 4.4-2.5 6-4.1-1.9-2.5-3-5.6-3.3-9.3h-1.1zm8.8 0h-6.4c.3 3.3 1.3 6 3 8.2 2-2.3 3.1-5.1 3.4-8.2z" fill="#fbfcfa"/><path d="m385.3 3.8h1.3v2.2h2.8v-2.2h1.3v2.2h4.1v9.1h1.7v1.3h-16.9v-1.3h1.7v-9.1h4.1v-2.2zm.4 13.1.7 1.2c-1.8.9-3.8 1.9-6 2.9-.2-.4-.5-.8-.8-1.3 2.3-1 4.3-1.9 6.1-2.8zm-3.1-6.4h2.8v-3.2h-2.8zm0 4.6h2.8v-3.3h-2.8zm4-4.6h2.8v-3.2h-2.8zm0 4.6h2.8v-3.3h-2.8zm3.7 1.9c2.1.9 4.1 1.8 6.1 2.7l-.7 1.3c-2.2-1.1-4.2-2-6.1-2.9zm3.2-9.7h-2.8v3.2h2.8zm-2.8 7.8h2.8v-3.3h-2.8z" fill="#fbfcfa"/><g fill="#010106"><path d="m302.14 370.32c-2.74-4.57-5.89-8.95-8.14-13.75-7.29-15.57-14.86-31.06-21.08-47.06-3.27-8.42-3.97-17.85-5.77-26.83-2.04-10.19-4.08-20.39-5.94-30.61-.4-2.22-1.1-2.91-3.42-2.81-13.97.59-27.94 1-41.91 1.47-.87.03-1.75 0-2.62 0-.1-.3-.21-.59-.31-.89 4.33-1.79 8.57-3.86 13.01-5.29 3.91-1.26 8.02-1.97 12.09-2.61 8.63-1.37 17.3-9.41 18.87-17.9.14-.74-.46-1.89-1.09-2.45-7.13-6.41-14.96-11.74-24.21-14.63-9.51-2.98-18.76-6.54-28.21-12.08 25.81-6.49 48.05-.32 68.51 14.36 7.69-8.5 9.37-23.35 3.55-33.21-.97-1.64-2.81-2.85-4.42-4.01-7.88-5.68-16.76-8.36-26.43-8.29-12.99.1-25.9-.61-39.51-3.44 1.78-.74 2.85-1.22 3.94-1.62 9.21-3.44 18.42-6.88 27.64-10.29 1.52-.56 2.68-1.01 2.59-3.19-.67-16.32-1.18-32.65-1.74-48.98-.01-.32-.13-.63-.28-1.34-3.84 0-7.73-.17-11.58.12-1.01.08-2.11 1.44-2.83 2.45-8.89 12.49-17.71 25.02-26.55 37.54-.69.97-1.42 1.91-2.58 3.48-.02-8.63 1.51-16.23 4.46-23.46 2.78-6.82 6-13.47 9.16-20.13.6-1.26 1.67-2.35 2.69-3.34 6.08-5.95 12.15-11.9 18.32-17.74 9.29-8.79 13.15-19.99 14.58-32.31.45-3.87.81-7.75 1.82-11.7 1.62 6.49 3.25 12.97 4.87 19.46 1.25 4.99 2.34 10.02 3.82 14.94.5 1.65 1.65 3.52 3.06 4.4 14.52 9.03 26.09 20.92 35.4 35.2 6.26 9.61 10.02 21.42 8.6 31.73-.65-.97-1.17-2.05-1.95-2.9-7.78-8.35-15.42-16.85-23.47-24.93-6.26-6.29-13.89-10.71-22.49-14.39-1.17 18.7-2.32 36.95-3.48 55.45 8.47 1.92 16.71 3.93 25.01 5.64 14.83 3.06 24.8 15.14 21.72 31.94-2.65 14.45-6.82 28.46-13.2 41.75-.29.6-.53 1.29-1 1.73-5.22 4.89-5.47 10.88-4.13 17.36 8.31 40.17 16.58 80.34 24.86 120.52.17.81.23 1.64.34 2.46-.22.04-.4.11-.57.18z"/><path d="m114.17 281.61c6.54-1.9 12.55-3.57 18.5-5.41 2.43-.75 4.92-1.58 7.09-2.88 3.82-2.28 4.47-5.74 3.77-10.1-1.15-7.17-4.6-10.31-12.15-10.84-9.66-.68-19.21-2.91-28.8-4.49-.51-.08-1-.32-1.5-.49-.07-.39-.13-.78-.2-1.17 7.03-1.87 14.05-3.76 21.09-5.59 1.18-.31 2.43-.48 3.65-.52 10.98-.29 16.5-8.57 16.42-20.73-16.75-3.7-33.58-7.42-50.83-11.23 4.63-1.12 8.83-1.85 12.84-3.15 14.14-4.59 19.59-14.39 16.23-28.85-.96-4.13-2.34-8.19-3-12.36-2.49-15.58 3.29-26.89 16.95-34.74 4.35-2.5 8.34-3.34 12.87-.98 1.28.67 2.72 1.02 4.04 1.61 15.22 6.68 20.39 14.19 20.91 32.41.03.97-.51 2.18-1.19 2.9-4.38 4.67-5.47 10.23-4.15 16.21 1.35 6.1 3.04 12.13 4.85 18.11.36 1.19 1.8 2.5 3.02 2.91 5.78 1.92 11.66 3.55 17.5 5.29-.01.31-.01.62-.02.93-8.95 1.53-17.91 3.07-26.86 4.59-1.54.26-3.1.42-4.64.69-7.15 1.25-11.4 5.75-11.61 13.04-.26 9.16-1.48 7.48 7.01 10.68 5.02 1.89 10.59 2.7 15.98 3.15 7.06.59 13.7 1.96 19.58 6.05.86.6 1.65 1.29 3.29 2.58-4.8 0-8.56-.18-12.29.04-5.24.32-10.5.68-15.67 1.5-7.7 1.22-14.33 11.17-12.67 18.77.17.79 1.42 1.67 2.33 1.91 5.61 1.49 11.25 2.83 16.89 4.18 4.7 1.12 8.92 2.95 11.48 7.69-.42.64-.82 1.41-1.37 2.06-11.16 13.28-18.35 28.45-21.96 45.4-3 14.04-7.55 27.57-13.98 40.43-.48.96-1 1.9-1.81 2.87-.32-34.02-13.29-63.68-31.59-92.47zm48.54-125.39c-5.86-5.41-11.41-10.62-17.1-15.67-.74-.65-2.43-.95-3.33-.57-3.39 1.43-6.65 3.18-9.92 4.88-.64.34-1.36.88-1.65 1.5-3.54 7.68 1.37 19.05 9.58 20.1 9.24 1.2 15.67-2.73 22.42-10.24zm-13.68 164.98c5.11-9.12 9.81-17.49 14.5-25.87 2.88-5.14.55-9.28-5.4-9.9-2.43-.25-4.82-.94-7.24-1.36-.94-.16-2.05-.43-2.86-.09-3.49 1.44-6.89 3.08-10.52 4.74 3.8 10.72 7.52 21.22 11.52 32.48zm9.63-123.15c-1.49-6.53-4.57-11.72-10.08-15.35-7.25-4.78-8.49-4.55-15.66-.01-5.22 3.32-6.39 8.58-7.54 13.83-.35 1.58.8 3.58 1.55 5.26.25.55 1.46 1.08 2.14.98 9.78-1.49 19.56-3.09 29.59-4.71z"/><path d="m118.48 27.98c1.17 8.28 2.18 16.58 3.59 24.82.79 4.58 1.71 9.29 3.56 13.5 2.43 5.5 7.34 8.06 14.01 8.51.86-8 1.6-15.76 2.57-23.5.78-6.19 1.62-12.38 2.87-18.49.52-2.54 2.01-5 5.62-5.19.47 6.79.97 13.43 1.39 20.09.55 8.6 1.09 17.19 1.52 25.8.1 2.12.59 3.39 2.86 4.2 2.29.82 3.25-.23 4.45-1.67 4.8-5.69 9.23-11.63 10.45-19.19.66-4.06.35-8.29 1.07-12.34.97-5.46 2.52-10.82 3.82-16.22.32-.05.64-.11.95-.16.55.85 1.15 1.68 1.65 2.56 5.68 9.99 6.64 20.51 3.24 31.4-1.8 5.75-3.76 11.46-5.93 17.08-.52 1.36-1.94 2.68-3.29 3.36-5.71 2.92-11.34 5.95-15.25 11.21-1.55 2.08-2.56 4.56-4.08 7.34 13.23 2.82 25.74 5.49 38.37 8.19-12.65 10.1-62.13 11.23-86.36 1.81 1.42-.36 2.26-.64 3.13-.78 8.06-1.28 16.11-2.64 24.19-3.74 2.25-.31 3.2-1.26 3.88-3.32 2.3-6.87 2.2-6.61-3.39-10.96-6.51-5.07-12.82-10.42-18.91-15.98-3.82-3.48-4.47-7.87-3.28-13.17 2.47-11.11 4.12-22.41 6.11-33.63.09-.52.19-1.04.28-1.55.32.01.62.02.91.02z"/></g></svg>