<svg enable-background="new 0 0 400 400" viewBox="0 0 400 400" xmlns="http://www.w3.org/2000/svg"><g fill="#fcfafa"><path d="m342.2 3.2-6.3 9.2h6.1v1.2h-8.2v-.5l6.2-9.1h-5.7v-1.2h7.8v.4z"/><path d="m344 13.7v-10.9h3.1c1.6 0 3 .5 4.1 1.4 1.1 1 1.6 2.2 1.6 3.9s-.5 3-1.6 4-2.5 1.5-4.2 1.5h-3zm1.4-9.6v8.4h1.6c1.4 0 2.5-.4 3.2-1.1.8-.8 1.2-1.8 1.2-3.2s-.4-2.4-1.2-3.1-1.8-1-3.1-1z"/><path d="m356.3 2.8v10.9h-1.4v-10.9z"/><path d="m366.6 13.2c-.8.4-1.8.6-3 .6-1.6 0-2.8-.5-3.7-1.5s-1.4-2.3-1.4-3.9c0-1.7.5-3.2 1.6-4.2s2.4-1.6 4-1.6c1 0 1.9.1 2.6.4v1.5c-.8-.4-1.6-.6-2.6-.6-1.2 0-2.2.4-3 1.2s-1.1 1.9-1.1 3.3c0 1.3.4 2.3 1.1 3.1s1.6 1.1 2.8 1.1c1.1 0 2-.2 2.8-.7v1.3z"/><path d="m368.2 13c0-.3.1-.5.3-.6.2-.2.4-.3.6-.3.3 0 .5.1.7.3s.3.4.3.6-.1.5-.3.6c-.2.2-.4.3-.7.3s-.5-.1-.6-.3c-.2-.2-.3-.4-.3-.6z"/><path d="m381.1 13.7h-1.7l-5.5-8.4c-.2-.2-.3-.5-.4-.7 0 .2.1.8.1 1.5v7.6h-1.4v-10.9h1.8l5.3 8.3c.3.4.4.6.4.8 0-.3-.1-.8-.1-1.6v-7.5h1.4v10.9z"/><path d="m389.7 13.7h-5.8v-10.9h5.6v1.2h-4.2v3.5h3.9v1.2h-3.9v3.7h4.4z"/><path d="m398.4 4.1h-3.1v9.6h-1.4v-9.6h-3.1v-1.3h7.7v1.3z"/></g><path d="m73.46 364.91c9.21-4.48 18.52-8.82 27.67-13.49 8.44-4.32 16.81-8.81 24.99-13.62 2.98-1.75 5.29-4.64 8.08-7.16-9.32-6.93-16.06-15.23-19.03-25.69-2.05-7.22-2.45-14.95-3.1-22.49-.28-3.31-1.32-5.58-3.91-7.59-4.51-3.49-8.6-7.55-13.23-10.86-8.82-6.31-15.11-14.64-19.55-24.28-4.1-8.91-7.51-18.14-11.04-27.3-1.23-3.2-.98-3.3 1.59-5.78-1.29-2.37-2.61-4.78-4.1-7.51 4.86-.29 9.36-.57 13.87-.84 10.06-.6 18.88-3.62 25.97-11.4 2.75-3.01 6.95-4.73 10.57-6.91 3.26-1.96 6.53-3.93 9.97-5.52 3-1.39 4.58-3.79 3.99-6.63-1.31-6.29-3.2-12.46-5.06-18.62-.2-.67-1.75-1.19-2.73-1.32-6.7-.91-13.1.72-19.49 2.42-8.1 2.16-16.19 4.53-24.73 3.7-6.12-.59-8.83-2.54-9.94-7.08 8.47-4.33 16.89-8.93 25.57-12.99 7.36-3.44 15.03-6.2 22.52-9.35 1.72-.72 3.47-1.58 4.91-2.74 2.58-2.07 3.81-4.47 2.63-8.16-1.89-5.95-2.95-12.16-4.65-18.18-.64-2.27-1.79-4.54-3.24-6.4-3.2-4.12-5.05-4.1-8.99-.46-5.68 5.24-11.25 10.59-17.04 15.7-5.91 5.21-11.41 10.68-14.79 17.96-.47 1.01-1.53 2.04-2.56 2.43-5.06 1.93-8.46 5.61-11.29 10.03-1.52 2.37-3.59 3.91-6.61 3.93-3.7.03-5.65-2.13-4.66-5.79.61-2.22 1.65-4.42 2.91-6.36 9.24-14.27 18.31-28.67 28-42.63 6.04-8.73 13.26-16.63 19.6-25.16 5.36-7.21 7.31-15.22 3.69-23.97-1.18-2.85-2.23-5.75-3.61-9.32 3.23 1.48 5.65 2.78 8.22 3.71 5.67 2.05 11.4 3.92 17.11 5.85 9.6 3.25 13.55 11.21 16.06 20.01.46 1.61-1.59 3.94-2.79 6.64 4.04 1.83 8.09 4.28 12.49 5.52 10.74 3.02 21.64 5.48 32.47 8.17 8.86 2.2 17.18 5.43 22.32 13.58 1.79 2.84 2.79 6.18 4.52 10.13-3.92.4-7 1.4-9.79.86-6.4-1.24-12.91-2.52-18.13-7.06-1.2-1.04-2.9-1.73-4.48-2.08-13.8-3.06-27.17-7.3-39.51-14.35-3.89-2.22-7.83-3.03-12.23-1.88-2.49.65-4.27 1.76-4.81 4.7 2.5 1.83 4.95 3.99 7.73 5.6 5.39 3.12 8.19 8.01 10.32 13.56 1.08 2.8 2.27 5.6 3.78 8.19 2.02 3.47 5.14 5.15 9.29 4.65 5.88-.71 11.76-1.4 17.66-1.99 2.66-.27 5.43-.7 8-.25 2.15.38 4.55 1.5 6.04 3.06 3.26 3.38 2.78 5.33-1.25 7.68-8.98 5.23-18.01 10.38-26.94 15.69-.85.5-1.61 1.84-1.68 2.84-.4 5.47-.4 10.97-.9 16.42-.27 2.93.94 4.17 3.5 4.52 5.2.7 10.4 1.63 15.63 1.89 7.48.37 14.99.18 22.49.34 2.34.05 4.32-.56 5.25-2.73 1.96-4.57 4.29-9.11 5.36-13.91 1.53-6.92 4.06-13.37 6.59-19.94 2.74-7.11 3.75-14.88 5.73-22.3 4.97-18.68 5.06-37.85 5.89-56.94.06-1.4-.81-3.19-1.82-4.23-3.34-3.42-6.96-6.57-11.09-10.4 9.81.04 18.67 1.05 27.25 3.99 8.47 2.9 12.77 9.16 14.12 17.73.85 5.41 1.54 10.85 2.47 16.25.63 3.7.4 7.21-.71 10.84-3.21 10.44-6.14 20.95-9.4 32.2 8.29-2.76 16.2-4.78 23.59-7.99 17.47-7.6 35.68-9.16 54.24-7.08 6.78.76 13.44 3.24 19.95 5.5 4.39 1.52 4.89 5.85 2.6 9.92-2.78 4.92-6.85 6.58-12.16 7.28-11.97 1.58-23.85 3.84-35.81 5.43-3.56.47-7.29-.6-10.95-.56-8.59.09-17.2.1-25.75.79-4.17.34-7.65-.24-11.01-2.61-1.72-1.21-3.64-2.12-5.74-3.32-3.83 5.67-7.43 11.31-11.35 16.73-4.12 5.71-8.52 11.21-12.82 16.78-1.09 1.42-2.37 2.69-3.41 4.15-3.82 5.33-6.42 10.75-3.76 17.68 4.19 10.89 1.99 22.35 2.24 33.58.09 4.02-.07 8.06-.27 12.08-.1 2.02.67 3.04 2.55 3.69 5.55 1.9 11.03 1.57 16.43-.44 7.22-2.69 14.42-5.47 21.57-8.35 1.5-.61 2.71-1.91 4.13-2.76 2.3-1.37 4.53-3.02 7.03-3.84 5.97-1.97 7.69-6.42 5.9-13.29-3.3-12.63-11.27-22.76-18.75-33.03-2.05-2.81-5.72-4.58-8.89-6.4-3.93-2.25-6.86-5.25-9.42-10.14 3.9-.43 7.5-1.66 10.71-1.01 9.94 2.02 19.75 4.72 29.58 7.28.98.25 1.79 1.28 2.6 2.04 7.9 7.41 14.37 15.93 19.71 25.34.84 1.48 2.3 3.92 3.19 3.8 2.73-.36 5.88-1.11 7.88-2.85 10.13-8.8 19.9-18.01 29.92-26.95 2.23-1.99 4.99-3.39 7.41-5.18 2.21-1.64 3.5-.79 4.83 1.22 3.24 4.91 3.14 11.94-1.05 17.27-11.95 15.22-22.91 31.25-36.62 45.02-1.57 1.58-2.09 3.06-1.64 5.32 4.54 22.57 8.96 45.17 13.4 67.76.24 1.2.39 2.44.4 3.66.17 14.55.27 29.1.5 43.65.05 2.87-.93 4.71-3.7 5.58-3.97 1.24-4.65.87-5.94-3.11-10.49-32.42-20.99-64.84-31.5-97.26-.37-1.15-.87-2.26-1.4-3.63-8.74 2.89-17.27 5.85-25.89 8.48-2.34.71-5.06.92-7.46.5-12.11-2.1-24.18-4.47-36.26-6.8-1.95-.38-3.48-.13-4.62 1.65-2.34 3.63-5.26 7-6.96 10.91-1.85 4.22-.86 5.58 3.21 7.62 2.4 1.2 4.7 2.67 7.21 3.55 6.78 2.37 9.52 7.77 10.86 14.14 1.26 5.99 1.13 12.05-.58 17.94-.61 2.09-1.8 4.06-2.99 5.91-1.31 2.03-2.94 3.85-4.6 5.99 6.14 3.48 12.37 3.87 18.8 3.1 3.33-.39 6.66-1.07 9.98-1.05 5.42.04 9.75 4.84 9.37 10.19-.06.88-1.27 1.92-2.2 2.46-9.81 5.75-20.2 10.18-31.36 12.39-21.29 4.21-41.39 11.92-61.33 20.2-18.99 7.89-38.09 15.51-57.16 23.18-1.4.56-3.02.73-4.54.79-2.34.09-4.73-.35-7.04-.08-7.24.86-10.84-2.97-12.8-9.95zm8.62-150.69c4.89 5.89 7.75 12.19 9.74 19.07 1.73 5.98 4.77 11.22 10.02 15.05 3.24 2.36 6.3 5.07 9.08 7.96 4.28 4.46 9.54 6.71 15.39 8.23 11.73 3.03 22.73 2.01 32.42-5.67 6.21-4.92 12.38-10 17.84-15.7 3.22-3.36 5.25-7.97 7.34-12.25.72-1.47.16-3.66-.12-5.47-.09-.55-1.23-1.36-1.85-1.33-7.43.42-14.69 1.53-21.06 5.8-8.58 5.75-17.67 9.81-28.31 9.87-9.57.05-19-.13-27.76-4.95.84-4.26 4.03-6.08 7.42-7.64 10.34-4.75 20.69-9.52 31.08-14.16 6.3-2.82 12.55-5.84 19.06-8.03 8.35-2.82 16.97-4.86 25.43-7.36 1.1-.33 2.47-1.23 2.88-2.21 2.6-6.34.86-13.83-4.07-18.54-4.96-4.74-11.74-5.5-17.67-1.98-18.75 11.14-37.42 22.39-56.28 33.33-4.99 2.89-10.46 5-15.84 7.14-3.72 1.48-7.58 1.75-11.29-.55-.93-.56-2.29-.43-3.45-.61zm64.48 78.97c.34 2.54.53 5.12 1.05 7.63 1.59 7.65 7.53 12.19 12.64 17.3 4.16-.94 8.32-1.84 12.46-2.85 1.18-.29 2.31-.84 3.42-1.36 8.32-3.96 15.47-9 17.3-18.93.24-1.31.86-2.54 1.19-3.84 1.42-5.62 3.21-11.18 4.09-16.89.89-5.76-1.88-9.78-6.87-11.12-1.02-.27-2.77.11-3.43.85-10.06 11.43-22.57 18.84-37.17 22.78-3.58.97-5.66 2.39-4.68 6.43z" fill="#010103"/></svg>