<svg enable-background="new 0 0 400 400" viewBox="0 0 400 400" xmlns="http://www.w3.org/2000/svg"><g fill="#fbfafa"><path d="m37.59 393.81c-.92.31-1.52.05-2-.78-.7-1.2-1.52-2.34-2.47-3.78v4.59c-.55.03-.95.05-1.41.07-.03-.37-.06-.64-.06-.91 0-1.91 0-3.81 0-5.7 1.13-.41 1.77-.03 2.29.91.62 1.11 1.38 2.14 2.31 3.19v-4.2h1.35v6.61z"/><path d="m12.94 393.88v-6.75c1.9.19 3.93-.54 5.37 1.29.8 1.01.78 2.88.03 3.97-1.37 1.97-3.4 1.51-5.4 1.49m1.45-1.22c2.04.12 2.92-.58 2.89-2.21-.03-1.51-.98-2.19-2.89-2z"/><path d="m11.81 393.87h-5.49c.68-2.18 2.47-3.48 3.51-5.45h-3.08v-1.21h5.29c-.71 2.13-2.44 3.48-3.47 5.51.86 0 1.63.04 2.39-.01.79-.05 1.14.21.85 1.16"/><path d="m39.33 393.86v-6.61h3.7v1.07h-2.22v1.52c.68.04 1.34.09 2.07.13v1.07c-.72.05-1.38.09-2.1.14v1.48h2.4v1.19h-3.85z"/><path d="m27.71 388.56c-1.15-.3-2.46-.61-3.1.64-.37.73-.41 1.93-.06 2.67.63 1.35 1.99.93 3.17.68.35.94-.01 1.32-.93 1.46-1.62.25-3.05-.27-3.76-1.48-.73-1.24-.6-3.03.31-4.17.88-1.11 2.71-1.7 4-1.16.32.13.44.74.65 1.12-.1.08-.19.16-.28.24"/><path d="m49.15 387.24v1.07c-.59.02-1.17.05-1.87.08v5.44h-1.48v-5.44h-1.85c-.05-.4-.08-.73-.13-1.15z"/><path d="m20.06 387.21h1.33v6.62h-1.33z"/><path d="m30.68 393.25c-.49.38-.8.79-1.05.76-.32-.05-.6-.45-.9-.7.26-.24.51-.64.8-.67.29-.04.62.3 1.15.61"/></g><path d="m190.35 45.42c1.09 5.5-2.24 9.76-4.18 14.41-.13.31-.41.55-.53.85-2.74 7.19-8.14 12.35-13.26 17.79-4.24 4.5-6.97 9.83-6.65 16.32.11 2.25.83 3.81 3.17 4.45 3.23.88 6.43 1.86 9.64 2.82 2.71.81 4.8 2.27 5.59 5.45-5.97 2.01-11.85 4.15-17.83 5.93-2.38.71-3.09 1.9-3.16 4.23-.23 7.23.32 14.55-2.71 21.48-.86 1.96 2.02 4.87 3.9 3.84 4.99-2.74 9.58-.58 14.3.42 4.21.9 8.21 2.64 12.76.83 2.49-.99 6.89 2.22 7.8 5.69 3.98 15.19 5.43 30.39-1.25 45.3-.45 1-1.55 1.86-2.54 2.42-4.47 2.53-9.06 4.85-13.52 7.41-3.95 2.27-5.22 5.21-4.49 10.25 1.99 13.81 2.99 27.76 4.37 41.66.1 1-.14 2.14.27 2.99 4.5 9.37 2.27 19.1 1.47 28.7-.26 3.1.88 4.1 3.44 4.27 2.99.2 6 .18 9.01.28 1.84.06 3.67.17 5.77.28-.32.84-.36 1.3-.56 1.39-9.38 4.33-17.93 10.56-28.57 12.01-3.96.54-7.86 1.71-11.72 2.82-6.11 1.75-12.14 1.62-18.13-.41-5.75-1.95-11.52-3.4-16.75-7.16-3.28-2.36-5.46-4.05-5.06-8.47 3.98.26 7.97.49 11.95.8 7.14.56 14.26 1.54 21.4 1.64 5.89.09 11.81-.74 17.69-1.36 2.44-.26 2.49-2.44 2.12-4.18-.61-2.83-1.37-5.66-2.45-8.34-4.99-12.4-6.59-25.5-7.95-38.62-.53-5.1-.3-10.27-.49-15.41-.03-.86-.49-1.69-.57-2.55-.2-2.15-.37-4.31-.4-6.46-.01-.87.45-1.73.57-2.61.68-4.92-1.04-6.89-6.01-6.85-1.79.01-3.57.34-5.35.31-3.34-.05-4.29 2.19-3.53 4.61 2.14 6.9-.04 13.67-.34 20.44-.3 6.73-2.2 13.4-3.43 20.09-.85 4.6-1.93 9.17-2.59 13.8-.49 3.46-1.85 6.14-5.1 7.98-3.45-4.35-3.71-9.44-3.72-14.58-.01-5.58.44-11.19-.06-16.72-.9-9.94.36-19.67 2.42-29.28 1.25-5.85-1.26-9.45-5.55-12.48-2.19-1.55-4.65-2.71-6.79-4.31-6.82-5.12-10.65-11.77-10.52-20.54.14-9.5.03-19 .03-28.01 5.85-2.02 11.28-3.93 16.73-5.75.81-.27 1.76-.19 2.64-.18 4.66.06 9.3.65 13.62-2.18 1.52-1 3.89-.87 5.88-.95 2.12-.09 2.69-.95 2.37-2.97-1.16-7.27-2.33-14.54-3.28-21.84-.7-5.39-2.14-6.01-7.4-6.12-5.59-.11-11.24-1.35-16.7-2.71-2.86-.71-4.68-3.31-5.29-7.32 4.35-.93 8.75-1.94 13.18-2.8 3.61-.7 7.35-.9 10.86-1.92 3.97-1.15 4.18-3.33 1.87-6.79-7.01-10.5-13.82-21.14-20.69-31.73-2.46-3.79-1.02-7.76-.64-11.88.68.06 1.35-.08 1.7.19 5.28 4.05 11.46 7.04 15 13.14 1.45 2.5 3.31 4.8 5.24 6.96 2.33 2.63 5.49 2.93 8.52 1.16 2.74-1.6 3.88-4.55 2.77-7.83-.71-2.11-1.71-4.12-2.58-6.18-.39-.92-.97-1.81-1.13-2.77-1.41-8.55-.17-16.86 2.12-25.18 5.06 2.33 7.14 6.24 6 11.13-.93 3.99-1.14 7.86 0 11.9.68 2.42.54 5.08.75 7.63.09 1.11-.19 2.39.27 3.3 1.04 2.07 2.02 4.72 3.81 5.72 2.34 1.31 3.91-1.37 5.28-3.08 2.58-3.23 4.83-6.76 7.62-9.79 2.57-2.8 5.67-5.11 8.53-7.63.32.25.68.55 1.04.85zm-62.63 114.08c0 4.33-.34 8.3.08 12.18.72 6.63 1.72 13.25 2.99 19.8.74 3.8 4.19 6.1 7.43 6.46 7.53.84 15.32 1.62 22.72.51 4.18-.62 8.14-1.98 12.66-2.09 4.94-.12 9.83-2.69 14.54-4.13.36-10.94.78-21.66 1.01-32.38.07-3.36-1.73-4.78-4.9-3.83-6.92 2.08-13.84 1.93-20.9.87-4.74-.71-9.62-1.66-14.31-1.21-7.18.7-14.26 2.5-21.32 3.82z" fill="#010000"/><path d="m255.25 287.35c-7.07 11.32-17.55 19.69-28.05 28-.73.58-2.1.36-4.18.66.71-1.86.91-3.24 1.66-4.18 7.4-9.42 12.91-19.94 16.65-31.2 1.61-4.86 3.1-9.64 5.5-14.2 2.33-4.42 1.35-7.87-2.14-11.49-5.74-5.96-11.53-11.87-16.93-18.13-4.52-5.24-6.34-11.76-6.76-18.58-.07-1.16 1.18-2.64 2.22-3.5.39-.32 2.14.45 2.86 1.14 7.07 6.79 14.06 13.67 21.5 20.95 3.52-7.18 3.42-13.56 1.53-20.05-.81-2.79-1.92-5.5-2.48-8.34-1.27-6.4.33-12.1 5.28-17.94 1.68 2.94 3.64 5.21 4.35 7.81 2.41 8.82 3.99 17.88 6.64 26.62 2.01 6.64 2.41 13.15 1.15 19.8-1.38 7.31-.44 13.92 5.41 18.98 3.18 2.75 2.89 6.32 3.38 9.79.16 1.11-.08 2.37.37 3.32 4.62 9.81 2.45 20.62 4.56 30.82 1.37 6.62 1.64 13.5 2.06 20.28.48 7.78 1.27 15.64.65 23.37-.59 7.33-2.78 14.54-4.42 21.78-.16.71-1.42 1.73-2.01 1.63-.72-.12-1.65-1.18-1.83-1.98-2.54-11.25-7.15-22.05-5.57-34.14.61-4.66-1.53-9.63-2.16-14.5-1.24-9.52-2.34-19.07-3.44-28.61-.41-3.55-.73-7.07-5.8-8.11z" fill="#010000"/><path d="m226.88 164.5c-5.35 6.11-9.92 11.07-17.16 12.51-2.12-7.35 2.41-12.18 5.43-17.48 1.62-2.86 3.6-5.58 4.76-8.62 2.04-5.31 3.61-10.8 5.32-16.23.43-1.37.94-2.82.91-4.22-.23-10.69-.83-21.39-.81-32.08.01-5.62 1.04-11.23 1.63-17.01 4.22.61 5.72 3.12 7.05 5.69 4.16 8.04 5.12 16.78 5.52 25.67.3 6.68.63 13.38 1.45 20.01.31 2.52 1.71 5.08 3.16 7.26 3.83 5.78 7.97 11.34 11.94 17.02 3.41 4.87 5.51 10.22 5.5 16.25 0 1.5-.3 3-.5 4.92-5.46-5.18-10.54-9.99-15.75-14.94-3 6.22-2.95 12.47-2.17 18.69 1.02 8.14.6 16.03-2.34 23.76-.7 1.85-1.04 3.9-1.17 5.88-.27 4.13-.45 4.5-5.52 6.29-.1-3.39-.47-6.56-.23-9.67.28-3.56-.06-6.77-1.79-10-1.11-2.08-1.73-4.6-1.91-6.98-.54-7.23-.66-14.49-1.18-21.72-.09-1.51-1.22-2.94-2.14-5z" fill="#010000"/><path d="m134.31 173.17c4.33-1.46 8.21-3.53 12.27-3.98 7.95-.88 15.99-1.01 24-1.06 1.48-.01 4.18 1.74 4.21 2.74.05 1.9-.89 4.65-2.36 5.6-3.02 1.94-6.55 3.62-10.05 4.13-5.7.82-11.54.75-17.32.77-5.15.01-8.11-3.26-10.75-8.2z" fill="#010000"/></svg>