<svg enable-background="new 0 0 400 400" viewBox="0 0 400 400" xmlns="http://www.w3.org/2000/svg"><path d="m5.17 384 .55-.58c.85.61 1.65 1.24 2.4 1.87l-.59.64c-.83-.73-1.62-1.38-2.36-1.93m1.22 9.53-.82-.34c.71-1.76 1.37-3.64 1.98-5.63.24.13.5.25.76.36-.6 1.67-1.24 3.54-1.92 5.61m-.5-13.5.57-.54c.56.44 1.31 1.06 2.26 1.87l-.64.64c-.68-.66-1.41-1.32-2.19-1.97m3.25.46h2.24v-1.36h.77v1.36h4.57v-1.36h.76v1.36h2.28v.69h-2.28v1.84h-2.64v1.26h4.18v2.64h-4.21c0 .45-.02.86-.05 1.21h4.32v.69h-4.38c-.04.34-.1.75-.19 1.22h5.15v.69h-4.82c.87 1.19 2.51 1.92 4.93 2.19-.17.31-.3.57-.37.76-2.77-.49-4.52-1.41-5.26-2.76-.56 1.26-2.3 2.23-5.24 2.9-.12-.24-.26-.48-.43-.72 2.73-.55 4.38-1.34 4.96-2.38h-4.38v-.69h4.65c.1-.38.17-.79.21-1.22h-4.32v-.69h4.4c.03-.34.05-.75.05-1.21h-4.2v-2.64h4.23v-1.26h-2.69v-1.84h-2.24zm1.46 4.46v1.29h3.45c.01-.4.02-.57.01-.53v-.32-.45h-3.46zm1.55-2.59h4.57v-1.19h-4.57zm6.11 2.59h-3.42v.77c-.01.19-.01.37-.02.53h3.44z" fill="#fafafc"/><path d="m32.63 379.16h.82v1.98h3.54v7.89h1.46v.78h-14.37v-.78h1.46v-7.89h3.54v-1.98h.82v1.98h2.73zm-3.49 11.48.5.73c-1.61.82-3.28 1.63-5 2.41-.13-.27-.28-.55-.44-.82 1.75-.72 3.4-1.49 4.94-2.32m-2.78-5.55h2.73v-3.18h-2.73zm0 3.95h2.73v-3.2h-2.73zm3.54-3.95h2.73v-3.18h-2.73zm0 3.95h2.73v-3.2h-2.73zm7.89 4.68c-1.84-.92-3.51-1.7-5.02-2.32l.45-.73c1.89.8 3.57 1.55 5.04 2.23zm-1.62-11.81h-2.73v3.18h2.73zm-2.73 7.13h2.73v-3.2h-2.73z" fill="#fafafc"/><g fill="#010101"><path d="m192.99 352.36c-9.47.4-18.85.82-28.23 1.17-17.55.66-35.11 1.12-52.65 1.99-7.44.37-14.81 1.18-21.88 4.34-6.07 2.71-11.72-.34-17.2-3.13-2.91-1.48-4.32-3.33-4.31-6.74.01-2.12.5-3.31 2.48-3.47 5.1-.4 10.2-.67 15.31-.89 2.67-.12 5.35-.08 8.03-.04 3.04.04 4.12-1.17 4.14-4.43.09-21.15.34-42.31.7-63.46.29-17.01.81-34.01 1.24-51.02.03-1.23-.08-2.55.34-3.66 3.21-8.62 1.11-17.16.02-25.78-.5-3.92-1.98-6.89-4.78-9.54-12.47-11.85-15.03-25.79-8.78-41.67 1.22-3.1 2.62-5.8 5.22-7.96 3.95-3.29 7.59-6.96 11.62-10.15 4.82-3.82 10.8-4.57 16.66-5.55 2.51-.42 5.02-1.13 7.39-2.07 2.16-.85 3.75-2.41 3.31-5.5-7.71-.29-15.39-.7-23.09-.83-7.14-.11-14.29.08-21.44.14-1.85.02-3.64-.04-4.18-2.39-.55-2.4.43-3.64 2.71-4.49 7.94-2.95 16.24-2.72 24.49-3.21 6.12-.37 12.21-1.2 18.31-1.88.63-.07 1.4-.26 1.79-.69 1.41-1.53.57-10.11-1.05-11.48-5.81-4.92-11.68-9.77-17.43-14.75-4.28-3.7-7.84-7.98-9.72-13.44-.21-.61-.2-1.29-.31-2.06 2.93-1.09 5.18-.83 7.66 1.31 5.39 4.63 11.53 8.09 18.62 9.5 1.39.28 2.84.24 4.53.37.3-4.87.6-9.42.86-13.98.41-7.26.89-14.52 1.14-21.79.08-2.26.87-3.71 2.68-4.96 2.3-1.58 4.44-3.39 6.88-5.28.74.89 1.62 1.63 2.1 2.58 4.99 9.78 9.08 19.74 6.38 31.11-.49 2.06-.73 4.19-1.01 6.29-.43 3.3 1.08 4.75 4.25 3.56 2.46-.93 4.78-2.44 6.86-4.07 5.67-4.46 11.45-8.66 18.71-10.05 1.58-.3 4.46-.31 4.75.37.82 1.97 1.59 4.98.64 6.47-2.79 4.35-5.87 8.88-9.86 12.03-7.79 6.14-16.27 11.39-24.47 17.01-.28.19-.67.31-.82.57-1.47 2.43-2.9 4.88-4.33 7.32 2 1.13 3.92 3.08 6 3.25 6.41.54 12.88.49 19.33.51 3.68.01 7.36-.38 11.04-.4 1.3-.01 2.81.25 3.83.96 1.24.86 2.79 2.29 2.84 3.53.05 1.2-1.42 3.3-2.57 3.59-5.59 1.39-11.27 2.57-16.98 3.3-4.75.61-9.62.25-14.37.81-3.34.39-6.48 1.76-7.91 5.61 7.07 4.41 14.05 8.81 21.07 13.14 5.69 3.51 9.7 8.3 11.14 14.89 1.12 5.13 1.89 10.34 2.81 15.51.04.22.18.49.1.65-3.05 6.52-5.53 13.4-9.36 19.42-3.09 4.85-8.54 7.33-14.34 8.58-3.61.78-5.5 2.9-5.95 6.97-1.25 11.21-1.08 22.33.68 33.44.12.77.46 1.64.24 2.32-2.47 7.91.64 15.45 1.39 23.14.93 9.45 1.79 18.91 2.63 28.38 1.14 12.88 2.08 25.79 3.43 38.65.42 3.95 2.03 7.76 2.91 11.68.72 3.18 2.84 4.7 5.75 5.27 3.17.62 6.37 1.08 9.58 1.45 1.99.23 4.03.06 6.03.28 5.87.69 7.45 2.88 6.4 9.35zm-80.35-149.31c.75 2.32 1.58 3.9 1.7 5.53.2 2.66-.14 5.36-.12 8.05.09 15.66.23 31.31.31 46.97.03 6.47.52 13.01-.3 19.38-.57 4.4-2.26 8.55-.08 12.93.31.63.06 1.53.09 2.3.26 7.36.38 14.72.84 22.07.36 5.66 1.73 11.24-.14 16.94-.8 2.45-.71 5.19-1.1 8.47 8.62-3.27 16.24-2.32 23.96-1.4 3.66.43 7.49-.43 11.22-.9 2.07-.26 2.91-1.56 2.6-3.8-.48-3.43-.65-6.9-.97-10.36-2.15-23.17-4.43-46.33-6.42-69.51-1.35-15.71-2.26-31.46-3.4-47.19-.73-10.11-2.63-12.32-12.26-14.61-1.96-.46-3.9-1.11-5.88-1.32-2.85-.3-5.58.09-7.4 2.78-1 1.44-2.07 2.87-2.65 3.67zm17.97-19.41c.05-.17.1-.35.15-.52 3.67-.32 7.39-.4 11.01-1.01 9.14-1.52 17.35-5.53 22.96-12.79 6.61-8.53 2.59-28.37-9.18-32.14-6.96-2.23-14.34-4.59-21.49-4.45-9.73.19-19.49 2.46-28.23 7.42-1.52.86-3.05 2.03-4.05 3.42-4.3 6.01-6.43 12.6-5.49 20.16.92 7.38 6.07 14.38 13.26 16.08 6.94 1.66 14.04 2.59 21.06 3.83z"/><path d="m201.12 271.3c7.3-.85 14.44-1.95 21.62-2.45 7.36-.51 14.78-.08 22.12-.71 8.58-.73 11.62-5.7 9.25-13.99-2.98-10.45-12.25-17.27-23.01-16.96-2.8.08-5.6.19-8.39.05-3.67-.18-5.63-1.81-7.13-5.6 8.34-5.31 17.26-5.27 26.45-2.96.22.05.42.18.64.2 12.11.81 19.08 9.23 25.87 17.72 1.01 1.27.81 3.57 1 5.41.16 1.54-.19 3.16.15 4.65.59 2.62 1.96 4.15 5.08 2.96 2.6-.99 5.31-1.81 8.05-2.32 6.51-1.22 11.73-4.9 16.72-8.83 3.81-3.01 5.73-7.41 6.52-12.16.49-2.97.31-6.05.83-9.01.81-4.54-1.65-6.91-5.04-9.11-6.39-4.15-13.48-6-20.93-6.33-5.46-.23-10.94.2-16.42.34-2.68.07-5.36.06-8.02.27-11.01.87-22.01 1.94-33.04 2.66-4.19.28-8.5.27-12.6-.47-1.93-.34-4.1-2.39-5.09-4.23-1.71-3.18-.56-5.25 2.96-5.99 15.42-3.25 30.86-6.38 46.3-9.52 8.79-1.79 8.4-1.73 7.95-10.67-.91-18.21-1.35-36.44-1.95-54.66-.15-4.47-.39-8.96-.17-13.42.2-4.07 1.07-8.11 1.47-12.17.2-1.98.13-4.01-.05-5.99-.3-3.34-.7-6.68-1.26-9.98-.18-1.07-.99-2.03-1.52-3.05-.85.57-1.95.97-2.52 1.75-3.7 5.05-7.21 10.25-10.95 15.27-1.79 2.41-3.89 4.61-6.01 6.75-.97.98-2.32 1.6-3.63 2.47-3.43-4.63-2.65-9.09-.51-13.49 2.24-4.62 4.41-9.32 7.07-13.7 7.13-11.73 10.09-24.66 12.21-38.02.87-5.49 3.52-10.7 5.72-17.1 2.91 2.07 5.49 3.09 6.82 4.99 9.84 14.01 24.6 21.85 38.25 31.12 4.97 3.38 9.58 7.33 14.15 11.26 1.8 1.55 3.03 3.76 4.71 5.93-4.43 2.17-8.37 1.15-12.06-.21-6.39-2.35-12.53-5.38-18.95-7.65-5.19-1.83-10.64-2.95-16.63-4.57.53 6.94 1.19 12.92 1.42 18.91.59 15.76 1 31.53 1.46 47.3.13 4.36.27 8.73.19 13.09-.04 2.09-.7 4.16-.88 6.25-.18 2.14-.13 4.3-.15 6.46-.01.66.32 1.46.06 1.96-3.65 6.96-.65 14.04-.47 21.07.25 9.55 3.94 10.13 11.86 12.63 3.93 1.24 8.05 1.88 12.06 2.88 10.91 2.71 24.77 23.3 17.78 37.62-1.03 2.11-2.07 4.26-2.66 6.51-2.19 8.37-8.06 13.61-15.27 17.31-7.33 3.77-14.97 6.95-22.6 10.11-4.04 1.68-8.28 6.94-7.38 11.18 3.24 15.25.74 30.55.81 45.82.05 11.19-.12 22.38-.25 33.57-.02 1.78-.21 3.58-.55 5.32-.77 3.97-3.02 6.16-6.96 6.5-.98.09-2.71-.7-2.97-1.47-1-2.92-2.07-5.98-2.18-9.02-.76-20.35-1.29-40.7-1.85-61.06-.13-4.58-.05-9.18-.19-13.76-.06-1.89-.29-3.81-.72-5.65-1.22-5.24-3.05-6.46-7.94-4.51-14.26 5.69-28.31 3.08-42.51-.28-3.88-.92-5.36-2.93-6.14-7.22z"/></g></svg>