<svg enable-background="new 0 0 400 400" viewBox="0 0 400 400" xmlns="http://www.w3.org/2000/svg"><g fill="#fcfafa"><path d="m342.2 3.2-6.3 9.2h6.1v1.2h-8.2v-.5l6.2-9.1h-5.7v-1.2h7.8v.4z"/><path d="m344 13.7v-10.9h3.1c1.6 0 3 .5 4.1 1.4 1.1 1 1.6 2.2 1.6 3.9s-.5 3-1.6 4-2.5 1.5-4.2 1.5h-3zm1.4-9.6v8.4h1.6c1.4 0 2.5-.4 3.2-1.1.8-.8 1.2-1.8 1.2-3.2s-.4-2.4-1.2-3.1-1.8-1-3.1-1z"/><path d="m356.3 2.8v10.9h-1.4v-10.9z"/><path d="m366.6 13.2c-.8.4-1.8.6-3 .6-1.6 0-2.8-.5-3.7-1.5s-1.4-2.3-1.4-3.9c0-1.7.5-3.2 1.6-4.2s2.4-1.6 4-1.6c1 0 1.9.1 2.6.4v1.5c-.8-.4-1.6-.6-2.6-.6-1.2 0-2.2.4-3 1.2s-1.1 1.9-1.1 3.3c0 1.3.4 2.3 1.1 3.1s1.6 1.1 2.8 1.1c1.1 0 2-.2 2.8-.7v1.3z"/><path d="m368.2 13c0-.3.1-.5.3-.6.2-.2.4-.3.6-.3.3 0 .5.1.7.3s.3.4.3.6-.1.5-.3.6c-.2.2-.4.3-.7.3s-.5-.1-.6-.3c-.2-.2-.3-.4-.3-.6z"/><path d="m381.1 13.7h-1.7l-5.5-8.4c-.2-.2-.3-.5-.4-.7 0 .2.1.8.1 1.5v7.6h-1.4v-10.9h1.8l5.3 8.3c.3.4.4.6.4.8 0-.3-.1-.8-.1-1.6v-7.5h1.4v10.9z"/><path d="m389.7 13.7h-5.8v-10.9h5.6v1.2h-4.2v3.5h3.9v1.2h-3.9v3.7h4.4z"/><path d="m398.4 4.1h-3.1v9.6h-1.4v-9.6h-3.1v-1.3h7.7v1.3z"/></g><path d="m122.3 302.89c-1.4-2.38-2.44-4.8-4.04-6.75-5.55-6.78-8.04-14.85-10.37-23.06-2.49-8.76-2.56-8.69-11.22-6.23-3.16.9-5.6 2.58-8.16 4.76-7.37 6.29-15.08 12.25-23.06 17.74-4.91 3.38-9.01 3.69-13.18 2.88.17-5.45.76-10.17 5.45-14.53 12.04-11.19 23.92-22.67 33.27-36.33 3.18-4.65 5.57-9.84 8.51-15.11-11.32-6.01-21.4-12.46-27.88-23.04-2.43-3.97-4.34-8.25-6.41-12.24 3.74-3.63 5.5-3.45 9.94-.08 4.89 3.71 9.68 7.65 14.98 10.69 9.92 5.68 20.71 9.27 32.22 9.18 5.01-.04 10.04-1.86 15.01-3.07 18.51-4.49 29.26-17.44 36.77-33.91 1.04-2.27-.32-3.62-1.97-3.56-3.57.14-7.79-.09-10.55 1.69-15.96 10.26-33.02 18.02-51.36 22.45-5.64 1.36-12.25-.08-18.13-1.47-2.66-.63-4.97-4.03-6.77-6.63-1.3-1.87-.97-4.12 1.74-5.51 19.53-10.05 39.53-18.98 60.86-24.42 6.86-1.75 14.19-1.67 21.31-2.4 3.12-.32 6.25-.49 9.36-.82 4.02-.43 5.41-2.79 4.6-6.79-2.62-12.95-13.64-14.74-22.96-12.98-3.25.62-6.54 1.66-9.5 3.14-14.49 7.24-29 14.45-43.21 22.2-4.08 2.22-7.69 5.79-10.65 9.45-4.41 5.46-10.09 6.44-15.97 4.9-6.87-1.81-13.56-4.58-20-7.63-2.17-1.02-3.33-4.15-5.05-6.44 8.97-3.37 17.53-6.26 25.83-9.79 8.52-3.62 16.77-7.86 25.14-11.84.4-.19.76-.48 1.14-.7 5.12-2.97 8.23-6.71 6.84-13.31-.89-4.22-.74-8.7-.65-13.05.06-2.8-1.13-4.17-3.59-4.69-7.64-1.61-15.25-3.46-22.96-4.63-9.46-1.44-18.11-4.14-24.23-12.09-1-1.3-1.8-2.75-2.85-4.38 6.62-2.42 13.08-2.04 19.49-1.37 7.88.82 15.33-.24 22.53-3.67 3.49-1.67 5.28-4.29 6.02-7.89 1.42-6.91-.38-13.55-1.64-20.25-1.58-8.43-3.06-16.88-4.58-25.34 10.49-1.49 22.16 5.47 26.46 15.58 1.6 3.76 2.49 7.86 3.47 11.85 1.02 4.14 2.98 5.53 7.23 4.49 1.95-.48 3.83-1.25 5.75-1.82 5.52-1.64 8.43.27 10.95 4.53 1.72 2.91 2.65 6.29 4.03 9.7 1.35-3.25 2.71-6.52 4.06-9.79.72-1.76 1.38-3.54 2.14-5.28 3.19-7.3 6.88-14.5 3.49-22.63 2.64-1.86 4.65-1.88 6.82-.22 1.77 1.35 3.77 2.4 5.67 3.59 10.43 6.52 13.66 17.95 7.75 28.92-8.79 16.33-17.38 32.83-30.47 46.35-.84.87-1.52 1.9-2.46 3.09 4.12 3.74 9.1 4.68 14.18 5.3 3.11.38 6.23.77 9.35.9 8.78.36 14.63 5.92 20.73 11.23 3 2.6 6.28 4.99 9.74 6.92 2.97 1.66 5.93 1.12 9.02-1.01 4.2-2.9 8.87-5.18 13.53-7.31 6.77-3.1 12.71-6.97 15.98-13.95-6.6-7.81-14.83-12.58-24.8-14.2-7.64-1.24-13.91-4.65-18.72-11.23 2.22-1.1 4.36-2.19 6.53-3.22 12.6-6.02 24.98-12.49 38.58-16.18 19.44-5.27 38.39-4.68 57.19 2.98 7.44 3.03 10.17 8.66 10.83 15.79.28 3.04-.15 6.31-1 9.26-1.94 6.76-4.25 13.42-6.6 20.05-.62 1.74-1.84 3.29-2.93 4.83-5.91 8.38-8.17 17.35-4.27 27.21.71 1.8 2.02 3.45 3.36 4.9 11.05 11.96 21.34 24.45 28.44 39.25 3.55 7.4 5.37 15.04 5.54 22.26-4.39 2.15-6.07 1.53-8.59-2.26-10.57-15.95-21.3-31.82-34.79-45.51-3.87-3.92-8.7-6.89-13.38-10.52-3.96 4.72-7.53 8.83-10.94 13.09-5.76 7.18-11.65 14.15-20.05 18.5-2.77 1.43-4.55 3.89-4.86 6.63 11.61 6.28 22.96 12.49 34.42 18.51 1.42.75 3.46.91 5.06.59 2.48-.49 4.84-1.62 7.25-2.5 1.88-.69 3.71-1.65 5.65-2.07 3.97-.85 9.4.93 10.41 3.74 1.36 3.75-.07 7.27-2.48 10.21-3.47 4.24-7.13 8.34-10.8 12.41-1.32 1.46-1.79 2.75-1.06 4.78 7.47 21.04 11.88 42.84 15.41 64.81.64 4.01-.16 8.23-.05 12.35.07 2.73-.01 5.68.97 8.14 4.34 10.91 4.23 22.08 2.61 33.38-1.08 7.53-4.92 11.7-11.32 12.49-1.76-7.44-3.55-14.91-5.29-22.39-4.63-19.92-9.33-39.83-13.81-59.79-1.35-5.99-1.93-12.15-3.18-18.16-.63-3.02-1.66-6.06-3.08-8.8-1.86-3.58-3.88-3.98-7.76-3.17-4.51.94-8.12 2.92-11.47 6.24-7.07 6.99-12 7.7-20.86 3.2-3.49-1.78-6.77-4.31-9.55-7.09-5.19-5.2-11.1-9.03-18.07-11.13-4.16-1.26-8.42-2.3-12.71-3.01-4.5-.74-9.08-.97-14.26-1.49.31 13.29-4.62 25.12-8.41 37.9 8.78 0 17.22-.11 25.65.05 3.88.08 7.83.31 11.6 1.16 4.03.91 6.73 3.71 8.09 7.78.6 1.78.24 2.86-1.49 3.33-5.89 1.62-11.71 3.94-17.71 4.58-10.8 1.16-20.95 4.04-31.06 7.86-19.44 7.33-38.97 14.48-58.74 20.82-13.08 4.2-26.75 5.32-40.46 2.49-.54-.11-1.06-.27-1.54-.39-1.04-2.73-.05-4.07 2.45-5.2 8.96-4.06 17.71-8.59 26.73-12.5 8.01-3.47 14.99-8.33 21.83-14.28zm108.67-99.32c1.35-2.82 2.26-5.35 3.67-7.58 9.38-14.84 20.74-28.06 33.67-39.88 2.89-2.64 4.52-5.57 4.81-9.16.15-1.87-.35-4.38-1.56-5.62-1.85-1.89-4.42-1.9-7.06-.35-8.58 5.03-17.45 9.58-25.91 14.8-7.49 4.62-15.09 8.17-24.15 7.05-3.56-.44-5.52 1.23-6.58 4.53-3.69 11.55-10.97 20.21-21.43 26.27-.86.5-1.64 1.17-2.41 1.82-6.57 5.59-11.25 12.14-11.69 21.21-.14 2.95.63 4.16 3.38 5.33 19.1 8.1 38.68 15.36 55.02 29.15 11.38-6.79 22.86-13.64 34.86-20.81-3.15-5.32-5.71-10.58-9.13-15.2-4.33-5.84-9.72-10.49-17.73-10.57-2.4-.03-4.81-.6-7.76-.99zm19.26-107.91c3.12 3.78 6.01 7.33 8.97 10.84.56.66 1.27 1.32 2.05 1.66 6.95 3.02 14.19 4.55 21.53 2.04 6.82-2.34 13.66-4.72 15.68-13.31 2.33-9.95-4.68-17.75-14.24-15.26-5.29 1.38-10.63 2.63-15.84 4.3-6.51 2.07-12.71 4.89-18.15 9.73zm-125.68 169.98c1.47 6.21 2.86 12.16 4.29 18.1 1.36 5.71 3.12 7.09 9 6.29 2.71-.37 5.44-1.26 7.94-2.41 9.39-4.3 14.1-12.28 16.51-21.89.45-1.82.78-3.74.7-5.59-.13-3.09-1.62-4.05-4.59-3.32-1.62.4-3.24.85-4.86 1.27-9.59 2.49-19.18 4.99-28.99 7.55zm38-29.18c-3.16-2.93-5.99-5.62-8.91-8.21-.6-.54-1.56-1.06-2.31-1-7.99.7-16.03 1.16-23.94 2.42-5.66.9-5.59 1.4-5.4 6.97.07 2.01.25 4.02.26 6.03.01 1.77.71 2.77 2.56 2.69 6.65-.3 13.36-.15 19.93-1.06 6.39-.89 12.54-3.03 17.81-7.84zm-3.59-164.82c-6.2 5.55-11.74 10.69-17.49 15.59-2.34 1.99-3.72 4.28-4.4 7.22-1.36 5.86-.8 11.68-.2 17.58 6.45-9.29 12.33-18.74 18.6-27.94 2.47-3.63 3.26-7.44 3.49-12.45z" fill="#010103"/></svg>