<svg enable-background="new 0 0 400 400" viewBox="0 0 400 400" xmlns="http://www.w3.org/2000/svg"><path d="m5.17 384 .55-.58c.85.61 1.65 1.24 2.4 1.87l-.59.64c-.83-.73-1.62-1.38-2.36-1.93m1.22 9.53-.82-.34c.71-1.76 1.37-3.64 1.98-5.63.24.13.5.25.76.36-.6 1.67-1.24 3.54-1.92 5.61m-.5-13.5.57-.54c.56.44 1.31 1.06 2.26 1.87l-.64.64c-.68-.66-1.41-1.32-2.19-1.97m3.25.46h2.24v-1.36h.77v1.36h4.57v-1.36h.76v1.36h2.28v.69h-2.28v1.84h-2.64v1.26h4.18v2.64h-4.21c0 .45-.02.86-.05 1.21h4.32v.69h-4.38c-.04.34-.1.75-.19 1.22h5.15v.69h-4.82c.87 1.19 2.51 1.92 4.93 2.19-.17.31-.3.57-.37.76-2.77-.49-4.52-1.41-5.26-2.76-.56 1.26-2.3 2.23-5.24 2.9-.12-.24-.26-.48-.43-.72 2.73-.55 4.38-1.34 4.96-2.38h-4.38v-.69h4.65c.1-.38.17-.79.21-1.22h-4.32v-.69h4.4c.03-.34.05-.75.05-1.21h-4.2v-2.64h4.23v-1.26h-2.69v-1.84h-2.24zm1.46 4.46v1.29h3.45c.01-.4.02-.57.01-.53v-.32-.45h-3.46zm1.55-2.59h4.57v-1.19h-4.57zm6.11 2.59h-3.42v.77c-.01.19-.01.37-.02.53h3.44z" fill="#fafafc"/><path d="m32.63 379.16h.82v1.98h3.54v7.89h1.46v.78h-14.37v-.78h1.46v-7.89h3.54v-1.98h.82v1.98h2.73zm-3.49 11.48.5.73c-1.61.82-3.28 1.63-5 2.41-.13-.27-.28-.55-.44-.82 1.75-.72 3.4-1.49 4.94-2.32m-2.78-5.55h2.73v-3.18h-2.73zm0 3.95h2.73v-3.2h-2.73zm3.54-3.95h2.73v-3.18h-2.73zm0 3.95h2.73v-3.2h-2.73zm7.89 4.68c-1.84-.92-3.51-1.7-5.02-2.32l.45-.73c1.89.8 3.57 1.55 5.04 2.23zm-1.62-11.81h-2.73v3.18h2.73zm-2.73 7.13h2.73v-3.2h-2.73z" fill="#fafafc"/><g fill="#010101"><path d="m104.76 280.39c5.38-2.72 11.15-2.78 16.98-2.46 2.45.13 4.92.11 7.38.08 4.79-.06 7.87-2.71 9.03-7.09 1.14-4.29 1.58-8.77 2.28-13.17 2.21-13.91 4.4-27.83 6.6-41.75.09-.55.29-1.11.25-1.65-.99-15.81 4.11-31.02 4.56-46.66.2-6.8-.16-13.62-.5-20.43-.05-1.06-1.16-2.32-2.11-3.03-1.79-1.32-3.73-2.52-5.78-3.38-3.52-1.48-5.21-4.3-5.69-7.73-.87-6.31-1.43-12.66-1.9-19.01-.07-.89.9-2.25 1.76-2.77 15.21-9.24 31.83-13.26 49.43-11.48 8.04.82 15.12 7.7 15.52 16.9.3 6.95-.62 13.76-7.78 17.53-6.07 3.2-8.11 7.97-7.03 14.77.83 5.27.76 10.71.79 16.08.02 3.99-.53 7.98-.67 11.98-.14 3.98-.36 7.99-.05 11.94 1.03 13.4 1.91 26.77-.39 40.15-.42 2.43-.12 5.12.41 7.57 2.54 11.85 2.88 23.74.82 35.66-.39 2.27.05 3.94 2.17 4.52 3.07.83 6.26 1.71 9.4 1.72 11.28.03 22.55-.29 33.83-.47 2.33-.04 4.66-.01 7.27-.01.49-6.21.95-12.2 1.44-18.19.97-12.05 1.46-24.16 3.1-36.11 1.19-8.7 3.75-17.24 6.03-25.77.75-2.79-.21-3.81-2.55-4.1-2.42-.3-4.88-.38-7.31-.36-13.67.09-23.74-6.74-32.11-16.74-1.08-1.29-1.5-3.13-2.23-4.71 3.78-1.62 9.15-.35 11.85 2.85 6.72 7.95 15.85 9.45 25.44 9.71.78.02 1.97-.67 2.26-1.34.26-.6-.21-1.92-.79-2.41-7.77-6.56-15.67-12.98-23.41-19.58-1.12-.96-1.57-2.71-2.33-4.09 1.37-.42 3.01-1.55 4.08-1.15 4.44 1.65 9.07 3.21 12.94 5.82 6.19 4.16 11.62 9.44 17.77 13.66 4.54 3.11 7.44 1.74 8.67-3.65.99-4.32.92-8.35-3.33-11.68-6.43-5.03-12.41-10.62-18.46-16.11-2.03-1.84-3.7-4.07-5.68-6.29 2.81-2.13 5.24-2.01 7.93-.98 6.05 2.31 7.53 1.52 8.53-4.92.54-3.52.61-7.12.63-10.69.01-.97-.82-2.64-1.49-2.77-1.34-.25-3.08-.03-4.24.67-2.47 1.49-4.54 3.64-7.03 5.08-1.56.91-3.57 1.3-5.4 1.41-2.52.15-3.79-1.55-2.8-3.9.83-1.97 2.07-3.96 3.63-5.38 2.97-2.7 6.08-5.4 9.55-7.37 5.89-3.34 7.21-8.78 7.62-14.69.28-4-.01-8.05.07-12.07.12-5.78 1.52-11.24 4.32-16.33 5.56 3.1 8.72 9.89 7.84 16.55-.75 5.64-1.49 11.27-2.12 16.92-.37 3.29.99 6.02 3.68 7.8 3.9 2.58 7.93 4.97 12.03 7.23 4.28 2.35 7.69 5.36 9.18 10.17.99 3.21.1 4.9-3.14 4.22-3.58-.74-6.91-2.74-10.3-4.3-2.4-1.1-4.66-2.53-7.11-3.52-1.64-.67-2.9.02-3.6 1.88-3.24 8.64-3.39 17.5-1.92 26.45.15.91 1.21 1.81 2.05 2.46 6.92 5.39 10.59 12.53 11.69 21.13.33 2.59-.09 4.79-2.28 6.56-7.45 6.03-11.82 13.52-12.09 23.45-.09 3.37-2 6.81-3.52 10.01-3.94 8.28-4.98 17.2-5.38 26.08-.73 16.09-.98 32.22-.98 48.33 0 5.86 1.37 11.6 4.31 16.99 4.98 9.11 11.95 16.07 20.7 21.47 4.85 2.99 8.24 7.11 8.95 13.09-2.57 1.86-4.62 1.68-7.24-.15-10.99-7.65-21.67-15.69-28.83-27.23-2.96-4.77-5.28-10.18-6.72-15.61-1.72-6.49-5.06-8.46-11.66-8.42-27.97.16-55.94-1.11-83.89 1.06-8.81.68-17.64 1.08-26.46 1.51-7.15.37-14.82-4.19-16.47-9.76zm54.39-52.28c-4.04 1.31-4.52 4.37-4.91 7.57-.51 4.22-1.1 8.43-1.74 12.63-1.19 7.84-2.47 15.67-3.63 23.52-.65 4.43.22 5.37 4.63 5.37 7.72.01 15.45.01 23.17-.01 1.17 0 2.35-.1 2.57-.11-.17-7.07-.4-13.7-.48-20.33-.04-3.58.26-7.16.22-10.74-.01-.98-.37-2.32-1.06-2.89-6.29-5.15-12.7-10.19-18.77-15.01zm5.31-92.46c-.01 0 .54-.05 1.09-.1 9.98-.98 17.31-6.69 23.85-13.63 2.33-2.48 2.44-7.58.2-9.22-3.77-2.75-7.87-5.24-12.87-4.49-9.34 1.41-17.75 5.12-25.25 10.83-3.53 2.69-3.88 6.56-1.58 10.35 3.27 5.4 8.65 5.69 14.56 6.26zm-4.17 39.58c.1.02.19.04.29.07.12 2.45.09 4.93.43 7.34.17 1.22.73 2.76 1.64 3.44 3.69 2.71 7.54 5.2 11.42 7.64 1.88 1.18 3.43.22 3.6-2 .03-.44-.04-.89-.04-1.34-.07-13.49-2.48-26.96-.25-40.49.18-1.12-1.48-3.55-2.46-3.65-2.87-.3-5.87.05-8.72.63-1.02.21-2.35 1.73-2.52 2.81-1.26 8.49-2.29 17.03-3.39 25.55zm.64 23.24c-2.24 2.59-4.23 4.84-6.17 7.14-1.11 1.31-3.06 2.7-1.43 4.52 1.01 1.13 2.93 2.06 4.41 2.02 3.56-.08 6.13 1.05 8.33 3.89 2.32 2.99 5 5.72 7.69 8.39.75.74 2.38 1.45 3.13 1.11.8-.35 1.4-1.95 1.45-3.04.17-3.9.16-7.82 0-11.72-.04-.92-.67-2.17-1.42-2.64-5.17-3.26-10.45-6.35-15.99-9.67z"/><path d="m226.02 96.02c-3.58-.87-6.94-1.21-9.9-2.49-10.54-4.54-21.7-7.69-31.45-14.03-.95-.62-2.61-.75-3.73-.42-12.86 3.76-25.67 7.71-38.53 11.47-2.76.81-5.68 1.41-8.54 1.44-1.7.02-3.78-.86-5.03-2.05-2.57-2.44-2.05-4.74 1.28-5.91 4.3-1.52 8.71-2.76 13.13-3.91 6.26-1.63 12.59-3.01 18.86-4.63 1.71-.44 3.45-1.1 4.91-2.05 2.76-1.8 2.63-3.74-.03-5.62-6.25-4.42-12.41-9.05-14.86-16.71-1.02-3.18-1.04-6.68-1.51-10.07 3.68-.95 5.78-.5 7.8 2.29 3.26 4.5 6.96 8.76 10.91 12.69 4.09 4.07 5.8 3.62 7.31-2.04 1.26-4.71 1.3-9.73 2.47-14.47 1.03-4.14 2.74-8.14 4.5-12.05.41-.9 2.58-1.93 3.28-1.58 1.1.55 2.37 2.26 2.31 3.42-.45 9.61 2.59 19.33-.83 28.85-.17.47-.02 1.06-.02 2.2 12.1-2.16 17.13-12.94 26.31-19.2-.34 2.4-.19 5.03-1.14 7.16-1.95 4.36-4.39 8.51-6.81 12.65-2.48 4.24-5.17 8.36-8.07 13.04 5.38 2.48 10.62 4.85 15.8 7.32 2.31 1.1 4.66 2.21 6.71 3.71 3.31 2.41 4.76 5.74 4.87 10.99z"/><path d="m142.8 308.59c1.7 5.5 3.46 10.9 5.01 16.36.55 1.93 1.37 2.7 3.47 2.64 8.16-.22 16.32-.46 24.47-.24 3.41.09 5-1.52 5.15-4.24.17-3.14-.19-6.43-.97-9.49-1.41-5.52-.45-9.06 4.32-12.74 3.13 2.28 6.07 4.59 6.45 9.04 1.16 13.91 3.38 27.79 3.49 41.7.11 15.78-10.79 24.59-26.17 23.44-4.77-.36-9.43-2.46-14.09-3.94-1.08-.34-2.06-1.31-2.86-2.19-11.85-13.07-15.57-28.79-14.75-45.93.14-3 .9-5.97 1.06-8.97.19-3.32 1.68-5.15 5.42-5.44zm26.55 28.74c-1.68 0-3.42-.3-5.02.06-4.52 1.02-9.03 2.18-13.46 3.54-1.85.57-2.26 1.99-1.3 3.98 1.97 4.13 4.05 8.28 5.36 12.64 1.44 4.76 4.77 6.46 9.08 7.05 4.95.68 9.89.66 14.19-2.4 1.2-.85 2.63-2.13 2.89-3.43.94-4.57 1.77-9.21 1.96-13.86.18-4.42-3.26-7.46-7.67-7.58-2-.04-4.01 0-6.03 0z"/></g></svg>