<svg viewBox="0 0 400 400" xmlns="http://www.w3.org/2000/svg"><rect width="400" height="400" fill="white" />
<path d="m226.84 57.76c-1.77 0-3.67.42-5.29-.06-16.64-4.94-33.92-3.84-50.91-5.41-1.06-.1-2.19.37-3.26.67-5.92 1.64-11.9 3.13-17.74 5.04-4.41 1.45-8.29 1.75-12.75-.46-2.49-1.24-6.09-.32-9.18-.24-4.47.11-5.22-.56-5.39-5.05-.14-3.77.54-6.7 4.63-8.53 9.98-4.45 19.38-10.46 29.68-13.84 17.35-5.7 35.35-6.05 53.39-2.66 13.41 2.52 26.96 4.53 39.37 10.59 4.49 2.19 8.67 5.06 12.86 7.82 2.63 1.73 4.42 4.09 5.6 7.24.93 2.47 3.33 4.38 5.01 6.58 2.49 3.24 5.13 6.4 7.29 9.85.87 1.39.94 3.47.88 5.22-.17 4.83.63 9.28 3.37 13.4.62.93.52 2.82.02 3.95-7.11 16.16-14.4 32.23-21.47 48.41-.75 1.71-.76 3.95-.49 5.86.49 3.46.08 6.58-1.43 9.75-.88 1.84-1.32 4.02-1.42 6.07-.34 7.15-.42 14.32-.66 21.48-.04 1.2-.24 2.44-.63 3.57-1.22 3.56-3.03 6.99-3.74 10.63-.91 4.67-2.58 8.75-5.94 12.08-5.17 5.13-6.34 12.18-9.08 18.47-.74 1.69-1.65 3.49-2.98 4.7-3.15 2.88-5.14 6.26-6.58 10.27-3.66 10.19-8.17 20.09-11.39 30.4-4.15 13.3-3.27 26.86 1.3 39.92 1.54 4.41 5.17 8.05 7.53 12.22 2.85 5.03 7.07 8.21 11.89 11.31 13.97 8.98 29.17 14.4 45.27 17.8 9.81 2.07 17.1 7.39 20.71 17.42-5.38 2.85-11.13 4.14-16.88 2.98-9.18-1.85-18.27-4.24-27.25-6.88-7.25-2.13-14.83-4.04-21.31-7.73-10.07-5.74-20.03-12.11-28.65-19.77-5.24-4.66-8.79-11.88-11.51-18.59-6.98-17.22-10.27-35.18-7.19-53.83.43-2.61 1.28-5.22 2.34-7.65 5.9-13.52 11.89-27 17.95-40.45.85-1.89 2.09-3.69 3.44-5.27 10.46-12.19 16.47-26.22 17.64-42.26.07-.93-.28-2.18-.91-2.77-.39-.36-1.99-.03-2.53.51-6.81 6.71-15.56 9.93-24.03 13.72-3.83 1.72-7.39 4.05-11.1 6.05-4.1 2.21-8.17 4.47-12.36 6.49-2.51 1.21-5.19 2.06-7.84 2.97-7.55 2.58-14.31 6.35-20.84 11.08-9.82 7.11-21.09 11.64-33.01 14.33-3.59.81-7.17 1.77-10.66 2.96-6.12 2.08-12.16 1.78-18.05-.53-1.54-.6-3.23-2.23-3.71-3.74-.61-1.9.5-3.68 2.61-4.83 11.59-6.26 22.88-13.13 34.72-18.84 6.77-3.27 14.42-4.7 21.63-7.05 2.1-.69 4.22-1.51 6.12-2.62 18.16-10.59 35.95-21.88 54.53-31.66 12.18-6.42 21.32-16.12 31.58-24.66.81-.67 1.41-1.72 1.81-2.72 2.67-6.74 5.09-13.58 7.93-20.24 3.31-7.76 3.25-15.54 1.48-23.64-1.64-7.45-4.62-13.74-10.88-18.53-4.68-3.59-8.75-7.98-13.09-12.01-.15.21-.3.46-.45.71z" fill="#010106"/><g fill="#fcfbfa"><path d="m385.2 377.6.6-.7c.6.4 1.3.9 1.9 1.5l-.6.7c-.8-.5-1.4-1-1.9-1.5zm.3 7.1c.6-1.4 1.1-2.9 1.5-4.5.3.1.6.3.9.4-.5 1.4-1 2.9-1.5 4.4zm.2-10.1.6-.6c.7.5 1.3 1.1 1.9 1.6l-.7.7c-.6-.6-1.2-1.2-1.8-1.7zm8.4-.8h.8v.9h1.8v.7h-1.8v1.8h-.8v-.3h-1.2v.9h3.3v2.6h-.8v-.4h-2.5c0 .3 0 .6-.1.8h3.4v.7h-3.5c0 .3-.1.6-.1.8h4v.7h-3.5c.7.9 1.9 1.3 3.6 1.5-.2.2-.4.5-.6.9-1.9-.3-3.2-1.1-3.8-2.3-.5 1.1-1.8 2-3.9 2.4-.2-.3-.4-.5-.6-.8 1.9-.4 3.1-.9 3.6-1.7h-3.2v-.7h3.5c.1-.2.1-.5.2-.8h-3.3v-.7h3.4c0-.2 0-.5 0-.8h-2.4v.3h-.8v-2.6h3.3v-.9h-1.2v.3h-.8v-1.8h-1.8v-.7h1.8v-.9h.8v.9h3.2zm-4.4 5.5h2.4c0-.3 0-.6 0-.9h-2.4zm1.2-3.1h3.2v-.8h-3.2zm4.4 2.2h-2.4v.9h2.5v-.9z"/><path d="m389.2 385.8h.9v1.5h1.9v-1.5h.9v1.5h2.7v6h1.1v.9h-11.3v-.9h1.1v-6h2.7zm.2 8.7.5.8c-1.2.6-2.5 1.3-4 1.9-.2-.3-.3-.6-.6-.8 1.6-.6 3-1.3 4.1-1.9zm-2-4.3h1.9v-2.1h-1.9zm0 3.1h1.9v-2.2h-1.9zm2.7-3.1h1.9v-2.1h-1.9zm0 3.1h1.9v-2.2h-1.9zm2.4 1.3c1.4.6 2.7 1.2 4.1 1.8l-.5.9c-1.5-.7-2.8-1.4-4.1-1.9zm2.2-6.5h-1.9v2.1h1.9zm-1.9 5.2h1.9v-2.2h-1.9z"/></g></svg>