<svg viewBox="0 0 400 400" xmlns="http://www.w3.org/2000/svg"><rect width="400" height="400" fill="white" />
<path d="m214.82 134.52c-3.24 6.38-6.28 12.33-9.3 18.3-4.13 8.16-8.83 16.1-10.01 25.44-.12.94-.69 1.89-1.26 2.68-10.38 14.31-20.62 28.73-31.29 42.82-4.64 6.13-9.84 12.05-17.99 13.8-1.7.37-3.46.49-5.44.75-.05-4.15.23-7.44 3.03-10.78 3.38-4.04 5.73-9 8.21-13.72 1.55-2.95 2.29-6.33 3.84-9.28 3.22-6.17 6.99-12.07 10.07-18.3 5.05-10.22 10.16-20.45 14.43-31.01 2.49-6.14 3.55-12.89 5-19.42 4.1-18.44 8.35-36.86 11.96-55.4 1.87-9.61 3.87-19.38 1.89-29.3-1.21-6.07-3.05-11.88-7-16.84-1.75-2.19-1.57-4.66-.06-6.86 1.55-2.26 3.64-1.88 5.93-.9 12.63 5.39 22.85 13.68 29.92 25.46 8.34 13.88 8.24 28.15 1.15 42.6-1.95 3.98-3.51 8.2-4.82 12.44-1.63 5.28.2 9.68 4.52 12.99 2.84 2.17 5.76 4.25 8.72 6.25 5.87 3.98 9.62 9.51 10.72 16.39 2.67 16.67 5.37 33.35 7.28 50.11 2.31 20.28-.38 40.27-6.34 59.69-8.21 26.73-18.22 52.8-30.32 78.05-5.07 10.58-9.55 21.45-14.69 32-1.88 3.84-4.79 7.22-7.48 10.61-.91 1.14-2.48 1.98-3.91 2.45-4.22 1.37-6.43-.09-5.98-4.45.61-5.86 1.05-11.99 3.15-17.39 9.68-24.91 15.02-51.01 21.9-76.69 3.44-12.84 6.94-25.7 9.65-38.7 2.28-10.93 3.45-22.1 5.1-33.16.05-.33.1-.67.09-1-.56-17.07.94-34.25-2.7-51.16-1.39-6.48-3.07-12.84-7.97-18.47z" fill="#010104"/><g fill="#fcfbfa"><path d="m385.2 377.6.6-.7c.6.4 1.3.9 1.9 1.5l-.6.7c-.8-.5-1.4-1-1.9-1.5zm.3 7.1c.6-1.4 1.1-2.9 1.5-4.5.3.1.6.3.9.4-.5 1.4-1 2.9-1.5 4.4zm.2-10.1.6-.6c.7.5 1.3 1.1 1.9 1.6l-.7.7c-.6-.6-1.2-1.2-1.8-1.7zm8.4-.8h.8v.9h1.8v.7h-1.8v1.8h-.8v-.3h-1.2v.9h3.3v2.6h-.8v-.4h-2.5c0 .3 0 .6-.1.8h3.4v.7h-3.5c0 .3-.1.6-.1.8h4v.7h-3.5c.7.9 1.9 1.3 3.6 1.5-.2.2-.4.5-.6.9-1.9-.3-3.2-1.1-3.8-2.3-.5 1.1-1.8 2-3.9 2.4-.2-.3-.4-.5-.6-.8 1.9-.4 3.1-.9 3.6-1.7h-3.2v-.7h3.5c.1-.2.1-.5.2-.8h-3.3v-.7h3.4c0-.2 0-.5 0-.8h-2.4v.3h-.8v-2.6h3.3v-.9h-1.2v.3h-.8v-1.8h-1.8v-.7h1.8v-.9h.8v.9h3.2zm-4.4 5.5h2.4c0-.3 0-.6 0-.9h-2.4zm1.2-3.1h3.2v-.8h-3.2zm4.4 2.2h-2.4v.9h2.5v-.9z"/><path d="m389.2 385.8h.9v1.5h1.9v-1.5h.9v1.5h2.7v6h1.1v.9h-11.3v-.9h1.1v-6h2.7zm.2 8.7.5.8c-1.2.6-2.5 1.3-4 1.9-.2-.3-.3-.6-.6-.8 1.6-.6 3-1.3 4.1-1.9zm-2-4.3h1.9v-2.1h-1.9zm0 3.1h1.9v-2.2h-1.9zm2.7-3.1h1.9v-2.1h-1.9zm0 3.1h1.9v-2.2h-1.9zm2.4 1.3c1.4.6 2.7 1.2 4.1 1.8l-.5.9c-1.5-.7-2.8-1.4-4.1-1.9zm2.2-6.5h-1.9v2.1h1.9zm-1.9 5.2h1.9v-2.2h-1.9z"/></g></svg>