<svg viewBox="0 0 400 400" xmlns="http://www.w3.org/2000/svg"><rect width="400" height="400" fill="white" />
<path d="m86.41 319.01c.51-9.6.93-18.98 1.53-28.34 1.21-18.98 2.3-37.97 3.85-56.93 1.94-23.86 4.3-47.69 6.45-71.53 1.96-21.73 4.22-43.43 5.67-65.2.5-7.51-.98-15.15-1.63-22.73-.52-6.02-1.2-12.02-1.69-18.04-.42-5.13-2.12-9.66-6.26-12.86-4.28-3.32-3.42-8.12-1.84-11.88.42-1 2.03-1.49 3.09-2.22 5.88-4.11 10.94-3.26 16.07 1.76 8.36 8.17 19.82 10.43 30.12 14.88 5.53 2.39 11.26 4.43 16.47 7.39 6.41 3.64 9.36 9.68 9.36 17.1 0 2.5-.8 4.33-2.98 5.92-5.73 4.18-10.28 9.32-11.43 16.7-.09.55-.17 1.11-.21 1.66-.03.33.02.66.05 1.3 6.24 2.94 12.58 5.94 18.93 8.92 14.56 6.85 29.13 13.68 43.67 20.57 1.26.6 2.68 1.37 3.44 2.47 11.91 17.32 24.43 34.26 35.38 52.17 13.38 21.89 23.3 45.56 30.9 70.07 2.74 8.83 3.88 18.14 6.26 27.1 2.08 7.87 5.17 15.46 7.28 23.32 3.4 12.72 6.88 25.45 9.34 38.37 1.84 9.7.78 19.65-1.08 29.37-1.05 5.45-6.38 8.32-13.1 7.05-.41-5.01-.73-10.11-1.26-15.2-3.06-29.67-11.98-57.69-24.31-84.69-15.56-34.07-33.95-66.51-56.59-96.43-12.11-16-25.54-30.87-39.97-44.79-6.15-5.93-13.06-10.83-21.48-13.81-2.78 12.27-5.51 24.35-8.24 36.42-8.71 38.59-17.12 77.26-26.32 115.73-2.89 12.11-7.8 23.75-12.03 35.52-.92 2.56-2.63 4.97-4.43 7.05-3.34 3.85-7.59 5.42-13.01 3.81z" fill="#010104"/><g fill="#fcfbfa"><path d="m385.2 377.6.6-.7c.6.4 1.3.9 1.9 1.5l-.6.7c-.8-.5-1.4-1-1.9-1.5zm.3 7.1c.6-1.4 1.1-2.9 1.5-4.5.3.1.6.3.9.4-.5 1.4-1 2.9-1.5 4.4zm.2-10.1.6-.6c.7.5 1.3 1.1 1.9 1.6l-.7.7c-.6-.6-1.2-1.2-1.8-1.7zm8.4-.8h.8v.9h1.8v.7h-1.8v1.8h-.8v-.3h-1.2v.9h3.3v2.6h-.8v-.4h-2.5c0 .3 0 .6-.1.8h3.4v.7h-3.5c0 .3-.1.6-.1.8h4v.7h-3.5c.7.9 1.9 1.3 3.6 1.5-.2.2-.4.5-.6.9-1.9-.3-3.2-1.1-3.8-2.3-.5 1.1-1.8 2-3.9 2.4-.2-.3-.4-.5-.6-.8 1.9-.4 3.1-.9 3.6-1.7h-3.2v-.7h3.5c.1-.2.1-.5.2-.8h-3.3v-.7h3.4c0-.2 0-.5 0-.8h-2.4v.3h-.8v-2.6h3.3v-.9h-1.2v.3h-.8v-1.8h-1.8v-.7h1.8v-.9h.8v.9h3.2zm-4.4 5.5h2.4c0-.3 0-.6 0-.9h-2.4zm1.2-3.1h3.2v-.8h-3.2zm4.4 2.2h-2.4v.9h2.5v-.9z"/><path d="m389.2 385.8h.9v1.5h1.9v-1.5h.9v1.5h2.7v6h1.1v.9h-11.3v-.9h1.1v-6h2.7zm.2 8.7.5.8c-1.2.6-2.5 1.3-4 1.9-.2-.3-.3-.6-.6-.8 1.6-.6 3-1.3 4.1-1.9zm-2-4.3h1.9v-2.1h-1.9zm0 3.1h1.9v-2.2h-1.9zm2.7-3.1h1.9v-2.1h-1.9zm0 3.1h1.9v-2.2h-1.9zm2.4 1.3c1.4.6 2.7 1.2 4.1 1.8l-.5.9c-1.5-.7-2.8-1.4-4.1-1.9zm2.2-6.5h-1.9v2.1h1.9zm-1.9 5.2h1.9v-2.2h-1.9z"/></g></svg>