<svg viewBox="0 0 400 400" xmlns="http://www.w3.org/2000/svg"><rect width="400" height="400" fill="white" />
<path d="m242.12 157.12c-12.29 4.62-24.01 8.95-35.65 13.5-1.65.65-2.92 2.35-4.29 3.65-12.74 12.05-26.41 22.83-42.32 30.44-3.6 1.72-7.46 2.9-11.85 4.58-.46-4.41-.97-8.24-1.19-12.1-.05-.79.88-1.74 1.53-2.46 9.14-10.14 17.87-20.71 27.63-30.23 7.49-7.31 16.26-13.31 24.5-19.84 10.7-8.48 21.41-16.94 32.18-25.33 1.52-1.19 2.03-2.27 1.57-4.21-1.31-5.54-2.36-11.15-3.58-16.72-.21-.96-.47-2.11-1.13-2.73-8.3-7.8-16.37-15.91-25.14-23.15-7.19-5.94-15.93-8.53-25.4-9.28-14.49-1.16-28.92-2.99-43.37-4.63-9.2-1.05-17.97-12.46-16.67-21.7.12-.87 1.06-1.92 1.89-2.35 5.97-3.06 11.97-6.05 18.05-8.87 1.32-.61 3.08-.74 4.53-.48 6.37 1.12 12.77 2.21 19.04 3.77 14.84 3.69 29.62 7.62 44.42 11.49 12.34 3.23 24.52 6.87 35.96 12.71 13.16 6.72 21.69 17.1 26.3 31.13 5.61 17.08 7.87 34.61 8.17 52.48.37 21.98-.05 43.95-5.57 65.35-2.58 10.01-2 19.98-1.87 29.97.09 7.12-.98 13.62-4.36 19.93-1.41 2.63-2.1 5.91-2.23 8.93-1.52 35.55-2.86 71.12-4.36 106.67-.06 1.46-.91 3.23-1.98 4.24-5.33 5.05-17.92 5.06-22.06-.7-2.59-3.61-3.43-8.6-4.57-13.09-.49-1.94-.19-4.33.46-6.28 4.31-12.84 5.45-26.23 7.16-39.53 2.79-21.63 5.86-43.23 8.11-64.92.74-7.12-.29-14.52-1.27-21.69-2.84-20.82-2.84-41.73-2.65-62.65.02-1.8.01-3.58.01-5.9z" fill="#010106"/><g fill="#fcfbfa"><path d="m385.2 377.6.6-.7c.6.4 1.3.9 1.9 1.5l-.6.7c-.8-.5-1.4-1-1.9-1.5zm.3 7.1c.6-1.4 1.1-2.9 1.5-4.5.3.1.6.3.9.4-.5 1.4-1 2.9-1.5 4.4zm.2-10.1.6-.6c.7.5 1.3 1.1 1.9 1.6l-.7.7c-.6-.6-1.2-1.2-1.8-1.7zm8.4-.8h.8v.9h1.8v.7h-1.8v1.8h-.8v-.3h-1.2v.9h3.3v2.6h-.8v-.4h-2.5c0 .3 0 .6-.1.8h3.4v.7h-3.5c0 .3-.1.6-.1.8h4v.7h-3.5c.7.9 1.9 1.3 3.6 1.5-.2.2-.4.5-.6.9-1.9-.3-3.2-1.1-3.8-2.3-.5 1.1-1.8 2-3.9 2.4-.2-.3-.4-.5-.6-.8 1.9-.4 3.1-.9 3.6-1.7h-3.2v-.7h3.5c.1-.2.1-.5.2-.8h-3.3v-.7h3.4c0-.2 0-.5 0-.8h-2.4v.3h-.8v-2.6h3.3v-.9h-1.2v.3h-.8v-1.8h-1.8v-.7h1.8v-.9h.8v.9h3.2zm-4.4 5.5h2.4c0-.3 0-.6 0-.9h-2.4zm1.2-3.1h3.2v-.8h-3.2zm4.4 2.2h-2.4v.9h2.5v-.9z"/><path d="m389.2 385.8h.9v1.5h1.9v-1.5h.9v1.5h2.7v6h1.1v.9h-11.3v-.9h1.1v-6h2.7zm.2 8.7.5.8c-1.2.6-2.5 1.3-4 1.9-.2-.3-.3-.6-.6-.8 1.6-.6 3-1.3 4.1-1.9zm-2-4.3h1.9v-2.1h-1.9zm0 3.1h1.9v-2.2h-1.9zm2.7-3.1h1.9v-2.1h-1.9zm0 3.1h1.9v-2.2h-1.9zm2.4 1.3c1.4.6 2.7 1.2 4.1 1.8l-.5.9c-1.5-.7-2.8-1.4-4.1-1.9zm2.2-6.5h-1.9v2.1h1.9zm-1.9 5.2h1.9v-2.2h-1.9z"/></g></svg>