<svg viewBox="0 0 400 400" xmlns="http://www.w3.org/2000/svg"><rect width="400" height="400" fill="white" />
<path d="m57.3 243.1c-3.7-3.1-1.9-5.8.1-9.1 4.1-6.5 7.4-13.5 11-20.3 1.9-3.7 1.5-7.6 1.2-11.5-1.3-13.5-2.1-27-3.9-40.4-1.1-8.2-3.8-16.2-5.9-24.3-1.6-6.4-3.3-12.7-1.5-19.4 4.3-15 22-19 31.6-9.2 3 3 4.5 7.5 6.5 11.5.8 1.5 1.1 3.2 1.6 4.8 1.1 3.4 1.4 6.6-.3 10.2-2.7 5.6-2.4 11.8-1 17.7.3 1.4 1.7 2.8 3 3.6 2.3 1.4 5 2.3 7.5 3.5 2.6 1.3 5.2 2.3 8.2 1.3.9-.3 2.1-.1 3.1.2 18.1 5.6 36.7 6.7 55.5 5.3 6.2-.5 12.5-1.2 18.7-.9 5.6.3 11.3 1.6 16.8 3.1 11.1 3.1 22.6 3.2 33.9 4.4 10.6 1.1 20.9 3.3 30.7 7.5 1.1.5 2.3 1.3 3.3 1.1 6.4-1.8 12.1 1.1 17.9 2.5 6 1.5 11.9 2.7 18.1 2.3 1.3-.1 2.7.2 4 .5 13.1 3.7 26.1 7.7 38.5 13.7 4.7 2.3 7.3 5 6.3 10.7-.8 4.4-.6 9.1-.8 13.8-12.2 1.4-22.4 7.1-32.3 14-7.7 5.3-16.5 6.3-25.5 4.5-.8-.2-1.7-.5-2.1-1.1-2.1-3.4-5.4-4.7-8.9-5.5-7.2-1.4-13.7-4.1-19.7-8.3-.8-.6-1.9-1-2.9-1.3-9.6-2.9-18.8-6.4-27.1-12.5-5.8 5.8-12.2 5.1-19.5 2.9-10.2-3.2-20.6-5.7-31-7.6-5.2-1-10.7 0-16.1 0-1 0-2.3.2-3.1-.3-10.6-5.6-22.4-5.9-33.7-8.1-8.3-1.6-16.6-3.4-24.9-4.5-8.6-1.2-14.2 2-18 9.9-1.1 2.3-.9 5.3-.9 8 0 2.5.7 5 1.1 7.5.5 3.7-.1 6.8-3.3 9.7-1.5 1.4-1.9 4.3-2.1 6.6-.4 3.9-1.9 7-4.9 9.5-.8.7-1.3 2.1-1.6 3.2-.9 2.7-1.6 5.6-2.5 8.3-2.4 7-7.4 11.8-13.7 15.5-8.1 4.8-14.8 11.2-21.7 17.5-3.5 3.2-7.6 4.3-12.3 3.5-1.7-.3-2.4-1-2.3-2.7.1-1.1.1-2.2-.1-3.2-2.3-9.5 1.1-17 7.3-24.2 6.2-7.5 11.6-15.8 17.7-23.9z"/></svg>