<svg viewBox="0 0 400 400" xmlns="http://www.w3.org/2000/svg"><rect width="400" height="400" fill="white" />
<path d="m222.9 374.17c-2.18-8.62-5.29-17.12-6.33-25.87-1.62-13.61-1.93-27.38-2.58-41.1-.34-7.33-.32-14.69-.28-22.03.05-10.81-.24-21.66.56-32.42.64-8.66 2.93-17.17 4.06-25.81 1.56-11.9 6.11-22.89 10.41-33.86 2.13-5.44 4.2-10.61 4.93-16.48 1.26-10.07-3.31-18.02-8.57-25.66-2.55-3.7-6.04-6.88-9.54-9.77-11.9-9.83-22.67-20.56-30.09-34.33-1.4-2.59-3.51-4.79-5.29-7.17-.35.06-.69.12-1.04.17-.61 2.74-1.73 5.46-1.76 8.21-.18 14.77-3.75 28.98-6.65 43.31-.73 3.6-1.16 7.31-1.32 10.98-.5 11.67-5.17 22.38-7.48 33.62-1.86 9.04-4.63 17.71-8.88 25.9-.52 1-1.32 1.86-2.69 2.51 0-6.6-.49-13.25.14-19.79.63-6.53 1.86-13.11 3.75-19.39 2.66-8.82 2.79-17.99 4.68-26.89.23-1.09.21-2.26.58-3.3 5.3-14.79 5.15-30.69 9.31-45.72.33-1.17.54-2.44.5-3.65-.34-9.94 2.19-19.48 3.7-29.19 1.57-10.14 2.31-20.4 3.37-30.62.45-4.34.55-8.72 1.24-13.01.43-2.66 1.67-5.19 2.54-7.77.43-.04.86-.08 1.3-.12.79 1.58 1.92 3.08 2.32 4.76 1.37 5.85 1.2 11.71-.07 17.62-.72 3.35-.9 6.84-1.12 10.28-.39 6.02-.07 12.14-1.03 18.05-1.96 12.07 3.19 20.75 11.43 28.82 15.63 15.32 31.64 30.31 44.84 47.94 4.78 6.38 6.76 13.01 5.08 21-1.95 9.29-3.19 18.73-4.75 28.1-.11.66-.21 1.35-.5 1.93-10.1 20.29-13.41 41.89-12.97 64.34.18 9.15-.72 18.32-.95 27.48-.09 3.56.35 7.13.45 10.7.06 2.33.37 4.76-.17 6.97-1.57 6.3 1.27 12.23 1.11 18.46-.32 12.71.28 25.45.33 38.18.01 1.62-1.02 3.25-1.57 4.88-.34-.07-.67-.16-1-.26z" fill="#010102"/><g fill="#fcfbfa"><path d="m385.2 377.6.6-.7c.6.4 1.3.9 1.9 1.5l-.6.7c-.8-.5-1.4-1-1.9-1.5zm.3 7.1c.6-1.4 1.1-2.9 1.5-4.5.3.1.6.3.9.4-.5 1.4-1 2.9-1.5 4.4zm.2-10.1.6-.6c.7.5 1.3 1.1 1.9 1.6l-.7.7c-.6-.6-1.2-1.2-1.8-1.7zm8.4-.8h.8v.9h1.8v.7h-1.8v1.8h-.8v-.3h-1.2v.9h3.3v2.6h-.8v-.4h-2.5c0 .3 0 .6-.1.8h3.4v.7h-3.5c0 .3-.1.6-.1.8h4v.7h-3.5c.7.9 1.9 1.3 3.6 1.5-.2.2-.4.5-.6.9-1.9-.3-3.2-1.1-3.8-2.3-.5 1.1-1.8 2-3.9 2.4-.2-.3-.4-.5-.6-.8 1.9-.4 3.1-.9 3.6-1.7h-3.2v-.7h3.5c.1-.2.1-.5.2-.8h-3.3v-.7h3.4c0-.2 0-.5 0-.8h-2.4v.3h-.8v-2.6h3.3v-.9h-1.2v.3h-.8v-1.8h-1.8v-.7h1.8v-.9h.8v.9h3.2zm-4.4 5.5h2.4c0-.3 0-.6 0-.9h-2.4zm1.2-3.1h3.2v-.8h-3.2zm4.4 2.2h-2.4v.9h2.5v-.9z"/><path d="m389.2 385.8h.9v1.5h1.9v-1.5h.9v1.5h2.7v6h1.1v.9h-11.3v-.9h1.1v-6h2.7zm.2 8.7.5.8c-1.2.6-2.5 1.3-4 1.9-.2-.3-.3-.6-.6-.8 1.6-.6 3-1.3 4.1-1.9zm-2-4.3h1.9v-2.1h-1.9zm0 3.1h1.9v-2.2h-1.9zm2.7-3.1h1.9v-2.1h-1.9zm0 3.1h1.9v-2.2h-1.9zm2.4 1.3c1.4.6 2.7 1.2 4.1 1.8l-.5.9c-1.5-.7-2.8-1.4-4.1-1.9zm2.2-6.5h-1.9v2.1h1.9zm-1.9 5.2h1.9v-2.2h-1.9z"/></g></svg>