<svg viewBox="0 0 400 400" xmlns="http://www.w3.org/2000/svg"><rect width="400" height="400" fill="white" />
<path d="m182.76 374.12c-.44-6.1-1.16-12.2-1.26-18.3-.28-16.57.62-33.09 2.96-49.51.31-2.2.09-4.7 2.78-5.98.41-.19.13-2.09-.05-3.16-.22-1.27-1.12-2.55-.98-3.74 1.63-13.99 4.47-27.71 8.12-41.34 3.54-13.21 10.03-24.77 17.48-35.97.06-.09.1-.22.18-.28 7.66-5.16 9.86-13.3 11.14-21.62.61-3.96.1-8.23-.64-12.23-2.46-13.16-4.62-26.43-8.18-39.29-1.91-6.89-3.71-13.74-4.97-20.77-.11-.64-.46-1.23-.67-1.86-1.16-3.45-2.34-6.89-3.46-10.35-2.13-6.54-4.13-13.12-6.42-19.61-.51-1.45-2-2.55-3.4-4.24-1.51 2.1-3.13 3.62-3.87 5.5-2.74 6.93-5.86 13.75-8.59 20.62-4.83 12.17-7.72 25.11-11.22 37.79-2.29 8.29-4.16 16.69-6.36 25-.4 1.51-1.52 2.83-2.3 4.24-.47-.1-.94-.19-1.41-.29-.33-2.22-1.17-4.5-.92-6.65 1.39-11.98 2.51-24.04 4.79-35.87 1.74-9.04 4.54-17.98 7.82-26.61 4.09-10.78 9.15-21.2 13.8-31.77.22-.51.43-1.08.82-1.46 5.08-4.96 3.65-10.49 1.27-15.97-2.78-6.41-2.04-12.89-.7-19.39.74-3.61 1.85-7.14 2.55-10.75.53-2.7 1.88-4.43 5.34-5.42.93 2.82 1.98 5.56 2.72 8.39.67 2.58.71 5.34 1.51 7.87 2 6.33.99 12.65.29 18.96-.41 3.65-.18 6.98 1.44 10.38 11.2 23.51 18.67 48.34 24.93 73.5 2.57 10.35 3.41 21.16 4.76 31.79.58 4.59.61 9.27.57 13.91-.02 1.9-.9 3.79-1.5 6.13 2.12 2.44 1.68 5.55-.03 8.57-5.18 9.12-10.14 18.39-15.79 27.22-5.07 7.93-8.09 16.55-11.15 25.34-4.62 13.26-6.32 27.13-9.45 40.69-1.87 8.1-1.85 16.64-2.83 24.96-1.44 12.21-3.05 24.39-4.5 36.6-.41 3.43-.31 6.94-.89 10.33-.31 1.82-1.58 3.47-2.41 5.2-.46-.18-.89-.37-1.32-.56z" fill="#010102"/><g fill="#fcfbfa"><path d="m385.2 377.6.6-.7c.6.4 1.3.9 1.9 1.5l-.6.7c-.8-.5-1.4-1-1.9-1.5zm.3 7.1c.6-1.4 1.1-2.9 1.5-4.5.3.1.6.3.9.4-.5 1.4-1 2.9-1.5 4.4zm.2-10.1.6-.6c.7.5 1.3 1.1 1.9 1.6l-.7.7c-.6-.6-1.2-1.2-1.8-1.7zm8.4-.8h.8v.9h1.8v.7h-1.8v1.8h-.8v-.3h-1.2v.9h3.3v2.6h-.8v-.4h-2.5c0 .3 0 .6-.1.8h3.4v.7h-3.5c0 .3-.1.6-.1.8h4v.7h-3.5c.7.9 1.9 1.3 3.6 1.5-.2.2-.4.5-.6.9-1.9-.3-3.2-1.1-3.8-2.3-.5 1.1-1.8 2-3.9 2.4-.2-.3-.4-.5-.6-.8 1.9-.4 3.1-.9 3.6-1.7h-3.2v-.7h3.5c.1-.2.1-.5.2-.8h-3.3v-.7h3.4c0-.2 0-.5 0-.8h-2.4v.3h-.8v-2.6h3.3v-.9h-1.2v.3h-.8v-1.8h-1.8v-.7h1.8v-.9h.8v.9h3.2zm-4.4 5.5h2.4c0-.3 0-.6 0-.9h-2.4zm1.2-3.1h3.2v-.8h-3.2zm4.4 2.2h-2.4v.9h2.5v-.9z"/><path d="m389.2 385.8h.9v1.5h1.9v-1.5h.9v1.5h2.7v6h1.1v.9h-11.3v-.9h1.1v-6h2.7zm.2 8.7.5.8c-1.2.6-2.5 1.3-4 1.9-.2-.3-.3-.6-.6-.8 1.6-.6 3-1.3 4.1-1.9zm-2-4.3h1.9v-2.1h-1.9zm0 3.1h1.9v-2.2h-1.9zm2.7-3.1h1.9v-2.1h-1.9zm0 3.1h1.9v-2.2h-1.9zm2.4 1.3c1.4.6 2.7 1.2 4.1 1.8l-.5.9c-1.5-.7-2.8-1.4-4.1-1.9zm2.2-6.5h-1.9v2.1h1.9zm-1.9 5.2h1.9v-2.2h-1.9z"/></g></svg>