<svg viewBox="0 0 400 400" xmlns="http://www.w3.org/2000/svg"><rect width="400" height="400" fill="white" />
<path d="m268.6 252.4c-1.9 4.8.5 7.7 3.6 10.2 1.4 1.1 3 2 4.4 3.1 2.3 1.8 3.6 3.9 3 7.1-.3 1.5.4 3.6 1.4 4.7 3.8 4.3 7.8 8.4 8.1 14.6.1.8 1 1.9 1.9 2.3 5.9 2.7 9.2 7.6 11.2 13.4 2.1 6.1 6 10.2 12.1 12.3 2.6.9 4.3 2.6 4.6 5.4.2 1.8 1.3 2.5 3.1 2.5 2.5 0 3.9 1.1 4.5 3.7.3 1.5 1.6 2.8 2.8 3.9 1.5 1.4 3.5 2.4 5.1 3.8 1.5 1.2 4 2.7 4 4-.1 3.9.8 8.1-2.2 11.5-.6.7-1.2 1.5-1.9 2.2-2.5 2.7-4.5 6.6-7.6 7.8-3 1.2-7-.6-10.6-.8-4.2-.1-7.4-1.6-10.2-4.8-1.8-2.1-3.8-4-6-5.7-6.9-5.6-12.1-12.6-16.2-20.4-1.2-2.3-4.1-3.8-6.1-5.8-1.4-1.4-2.9-2.8-3.7-4.5-5.7-11.7-11.2-23.5-16.8-35.2-.4-.9-.9-2-1.6-2.7-13.9-13-22.5-29.7-32.2-45.7-2.4-4-4.5-8.1-4.5-12.9 0-1.3-.7-2.7-1.5-3.7-11-14.2-19.7-29.8-27.8-45.7-.1-.3-.4-.5-.4-.8-1-4.5-1.2-9.4-5.5-12.5-.1 0-.1-.2-.1-.3 1.1-7.2-4.2-10.6-9-13.5-3.8-2.4-8.5-3.3-13-4.6-.8-.2-2.2.5-3 1.2-11.9 10.4-25.2 18.5-39.8 24.5-.9.4-1.8.8-2.4 1.5-5.1 6.2-12 9.9-18.7 14-1.1.7-2.4 1.6-3 2.7-1.8 3.3-4.4 5.6-7.6 7.4-5 2.7-8.1 7.1-10.3 12.1-1 2.4-2.6 3.4-5.1 3.5-.2 0-.4 0-.6 0-10.2.4-16.1-7-13.1-16.8 1-3.2 2.8-6.3 4.6-9.2 10.8-16.7 25.3-29.5 42.2-39.9 11.3-7 21.7-15.4 33.8-21.3 4-2 5.5-6 6.2-10.2 1-6.7.2-12.7-5.6-17.4-5.4-4.4-10.2-9.6-15.7-13.9-2.9-2.3-6.6-3.6-10.1-5-1.9-.8-3-1.9-3.8-3.8-1.1-2.5-2.5-5.2-4.5-7.1-10.4-9.8-6.6-23.5-1.7-31.8.5-.8 2.3-1 3.5-1 12.5.6 22.7 6.5 32.3 14 4.5 3.5 9.3 6.5 13.8 10 1.3 1.1 2.3 3 2.8 4.7 1.2 4.2 2.8 8 7.5 9.3.8.2 1.6 1.3 2 2.2 9.6 18 18.8 36 27.8 54.2 1.5 3.1 1.8 6.9 2.4 10.4.7 4.4 2.2 8.4 5.1 11.8.9 1 1.6 2.3 2.5 3.3 4.8 5.3 7.8 11.5 9.1 18.5.5 2.7 1.7 4.7 4.2 5.9 2 1 3 2.5 2.9 4.8-.2 6.2 2.8 10.4 8.3 13 3 1.4 5 3.6 6.7 6.5 4.7 7.9 9.7 15.6 14.5 23.4.9 1.4 1.8 2.9 2.5 4.4 1.2 3.1 3 5.5 6.4 6.5.9.3 2.1 1.3 2.1 1.9-.1 6.3 3.2 10.2 8.9 12.8z"/></svg>