<svg viewBox="0 0 400 400" xmlns="http://www.w3.org/2000/svg"><rect width="400" height="400" fill="white" /><path d="m362.1 8.8c1.1.8 2.1 1.6 3.1 2.4l-1 1.1c-1.3-1.1-2.3-2-3-2.5zm1.9 4.8c.5.2.9.4 1.4.5-.6 2.3-1.3 4.5-1.9 6.8l-1.5-.5c.8-2.1 1.4-4.3 2-6.8zm-1-9.4c1.3.9 2.4 1.8 3.4 2.5l-1 1.1c-1.4-1.2-2.4-2.1-3.2-2.6zm3.7 2.2v-1.4h10.3v1.2c-.5 3.6-1.8 6.8-4 9.4 1.5 1.6 3.4 2.8 5.7 3.8-.3.4-.7.8-1.1 1.4-2.3-1.1-4.1-2.5-5.6-4.1-1.6 1.6-3.6 3.1-5.9 4.3-.3-.5-.7-.9-1-1.3 2.4-1.1 4.4-2.5 6-4.1-1.9-2.5-3-5.6-3.3-9.3h-1.1zm8.8 0h-6.4c.3 3.3 1.3 6 3 8.2 2-2.3 3.1-5.1 3.4-8.2z" fill="#fbfafc"/><path d="m385.3 3.8h1.3v2.2h2.8v-2.2h1.3v2.2h4.1v9.1h1.7v1.3h-16.9v-1.3h1.7v-9.1h4.1v-2.2zm.4 13.1.7 1.2c-1.8.9-3.8 1.9-6 2.9-.2-.4-.5-.8-.8-1.3 2.3-1 4.3-1.9 6.1-2.8zm-3.1-6.4h2.8v-3.2h-2.8zm0 4.6h2.8v-3.3h-2.8zm4-4.6h2.8v-3.2h-2.8zm0 4.6h2.8v-3.3h-2.8zm3.7 1.9c2.1.9 4.1 1.8 6.1 2.7l-.7 1.3c-2.2-1.1-4.2-2-6.1-2.9zm3.2-9.7h-2.8v3.2h2.8zm-2.8 7.8h2.8v-3.3h-2.8z" fill="#fbfafc"/><path d="m99.39 75.1c5.78 10.16 11.47 20.15 17.16 30.14 1.77 3.11 3.29 6.4 5.35 9.3 3.29 4.62 4.24 9.72 4.12 15.2-.19 8.61-.25 17.23-.51 25.84-.3 9.82 1.47 18.9 8.37 26.44 2.39 2.61 4.91 4.12 8.7 3.93 4.44-.22 8.92.48 13.39.54 6.45.09 12.17-1.97 17.56-5.64 7.01-4.77 14.32-9.11 21.63-13.4 1.85-1.08 4.16-1.61 6.32-1.87 7.11-.84 14.23-1.85 21.37-2.02 10.26-.24 18.68-5.47 27.04-10.06 5.45-3 7.29-10.1 6.91-16.33-.52-8.42-2.01-16.82-3.62-25.12-1.34-6.89-3.68-13.43-7.62-19.51-4.75-7.34-5.73-15.98-5.74-24.52-.02-13.78 1.02-27.5 4.4-40.93.1-.41.27-.81.46-1.37 11.58 1.29 20.44 6.54 25.54 17.12 3.88 8.05 7.28 16.32 11.01 24.45 5.91 12.89 11.54 25.94 18.02 38.54 3.92 7.61 9.36 14.43 13.86 21.76 1.2 1.96 2.08 4.52 2.02 6.77-.19 6.8.6 13.36 2.94 19.75.69 1.88.92 3.95 1.71 5.78 5.01 11.74 4.92 23.81 2.93 36.14-1.16 7.17-1.52 14.46-2.52 21.66-.47 3.38-1.23 6.82-2.52 9.97-8.32 20.26-16.81 40.45-25.31 60.63-1.08 2.56-2.39 5.05-3.87 7.41-10.34 16.48-20.88 32.85-31.06 49.43-2.85 4.65-6.55 8.04-10.96 11.01-16.98 11.44-35.83 17.09-56.11 18.06-14.52.69-29.06.92-43.59 1.27-1.23.03-2.82-.26-3.68-1.03-11.76-10.51-23.68-20.85-34.96-31.85-4.4-4.29-7.4-10.04-10.78-15.3-.81-1.26-.89-3.21-.77-4.81.28-3.84-.78-7.15-2.64-10.49-4.61-8.31-8.97-16.75-13.35-25.18-.7-1.36-1.28-2.91-1.42-4.41-2.58-27.29-4.59-54.64-7.84-81.85-1.51-12.65 1.32-24.41 3.64-36.41 5.15-26.67 10.66-53.27 15.56-79.99 1.02-5.59 4.89-6.8 8.86-9.05zm72.86 233.74c7.79.07 15.43-.95 22.58-4.11 16.08-7.08 29.64-17.82 42.37-29.7 2.77-2.58 5.97-5.1 7.7-8.33 4.25-7.96 7.92-16.24 11.51-24.53 2.66-6.13 1.2-11.88-3-16.89-1.71-2.04-3.7-3.91-5.83-5.5-.95-.71-2.67-.97-3.85-.69-6.84 1.66-13.53 4.38-20.45 5.16-14.76 1.67-29.62 3.04-44.47 3.29-18.05.31-34.15 5.08-47.98 16.81-1.09.92-2.3 2.45-2.34 3.74-.21 6.33-.82 12.78.15 18.97 1.91 12.23 10.25 21.03 17.6 30.36 5.72 7.27 12.75 11.21 22 11.23 1.33.02 2.67.13 4.01.19z" fill="#000001"/></svg>