<svg viewBox="0 0 400 400" xmlns="http://www.w3.org/2000/svg"><rect width="400" height="400" fill="white" /><path d="m118.44 270.74c-4.76 5.99-11.76 8.16-19.2 4.92-15.72-6.86-32.31-10.29-49.02-13.43-1.47-.28-3.15-1.24-4.07-2.4-6.03-7.64-12.3-15.16-17.6-23.29-2.51-3.85-3.67-8.88-4.42-13.54-2.2-13.69-2.02-27.41.73-41.07.39-1.93.24-4 .17-6-.23-6.38-.47-12.75-.84-19.12-.1-1.75.3-2.74 2.12-3.11 1.19-.24 2.33-.77 3.49-1.18 3.47-1.23 6.64-2.81 7.6-7.12.76.82 1.26 1.35 1.75 1.88 2.59-2.88 4.66-3.24 7.98-1.21 4.74 2.89 9.66 3.11 14.83 1.38 3.39-1.13 6.83-2.1 10.26-3.1 2.04-.59 3.93-.76 3.89 2.78 32.39-7.22 65.24-7.82 98.24-11.44-.68.87-1.08 1.38-1.63 2.08h4.69c-.64-.78-1.11-1.35-1.76-2.14 6.52-1.82 11.45.57 15.95 5.4.98-1.72 1.83-3.22 2.78-4.87-.84-.61-1.63-1.17-2.41-1.74.09-.17.16-.47.27-.49 4.33-.52 8.65-1.19 13-1.44 2.08-.12 4.21.56 7.26 1.02 1.9-2.8 5.32-2 9.45-1.25 4.34.79 9.08-.07 13.57-.71 12.51-1.76 24.96-4.04 37.49-5.58 5.96-.73 12.07-.37 18.11-.24 1.08.02 2.13 1.36 3.41 2.23 7.47-3.76 15.84-2.94 19.95 1.73 2.8 0 5.16-.38 7.35.09 3.24.69 6.17.62 9.03-1.15 1.33-.82 2.93-1.26 4.12-2.24 4.09-3.37 8.45-1.82 12.75-.85 1.11.25 2.08 1.1 3.11 1.67 1.74-1.77 6.8-1.95 9.48 1.32 3.15 3.85 5.56 8.3 8.19 12.56.81 1.32 1.14 2.92 1.89 4.29 1.37 2.5 1.74 4.78-1.2 6.66 4.44 6.91 2.34 13.87.42 20.77-2.7 9.68-5.52 19.33-8.36 28.97-.33 1.13-1 2.23-1.74 3.16-5.46 6.81-10.95 13.6-16.53 20.32-.88 1.06-2.12 2.14-3.39 2.49-14.44 4.07-27.47 11.21-40.57 18.25-7.75 4.17-15.91 6.49-25.07 4.58.96-5.78-4.77-4.29-7.02-7.04-.88 1.03-1.51 1.76-2.38 2.78 3.11 2.31 6.08 4.52 9.05 6.72-.07.23-.14.46-.22.69-6.9 0-13.81.19-20.71-.08-3.65-.14-6.48.53-8.6 3.75-.64.97-2.13 1.56-3.35 1.94-8.55 2.62-17.12 5.16-25.7 7.67-1.16.34-2.45.67-3.6.5-11.7-1.75-23.2.82-34.76 1.69-17.51 1.32-34.98 3.2-52.49 4.53-1.74.17-3.65-1.84-5.74-2.99zm12.82-105.52c-7.9 3.84-15.51 4.58-23.27 3.96-7.92-.63-15.54.08-23.12 2.67-5.93 2.02-8.67 5.61-8.6 11.81.11 8.84.07 17.68-.08 26.51-.08 4.88-.11 9.84-3.18 14.32 4.35 2.88 8.57 5.81 12.95 8.47 1.43.87 3.28 1.45 4.95 1.46 13.32.12 26.65.28 39.97-.01 8.92-.2 17.82-1.06 26.72-1.72 3.79-.28 7.31-.01 10.51 2.43.9.69 2.45.76 3.7.72 6.91-.24 13.82-.71 20.74-.89 6.49-.16 13.08.26 18.57-4.18 4.8-3.88 11.62-3.77 16.21.45 3.64-1.77 7.33-3.62 11.07-5.35 1.61-.74 3.29-1.54 5.01-1.8 12.49-1.94 25.01-3.67 37.48-5.67 1.67-.27 3.47-1.37 4.67-2.6 2.88-2.94 5.99-4.94 10.27-4.73 2.35.12 4.73.23 7.04-.07 1.2-.16 2.73-.93 3.35-1.91 3.64-5.76 7.06-11.67 10.57-17.52.41-.69.93-1.32 1.66-2.33 1.38 5.51-.88 9.33-4.2 12.93.86.61 1.52 1.07 2.26 1.59 3.66-6.07 7.16-11.89 10.86-18.04-2.52-.12-4.57-.22-6.69-.33-.04-7.06 1.26-13.36 7.07-18.28-5.58-4.99-10.57-9.8-15.96-14.15-3.73-3.01-8.07-4.56-13.16-3.2-4.2 1.12-8.55 1.65-12.84 2.45-3.55.66-6.86.47-9.21-2.55-2.4 1.75-4.42 4.09-6.92 4.88-7.24 2.28-14.64 4.12-22.05 5.78-4.95 1.11-9.85.89-13.57-3.89-1.69 3.76-4.6 4.86-8.18 5.16-14.16 1.19-28.32 2.38-42.44 3.87-5.87.61-11.63 2.42-17.49 2.85-7.68.57-15.44.6-23.14.29-3.65-.15-7.24-1.62-11.36-2.61 1.2-1.63 1.8-2.43 2.68-3.61-4.06-.3-7.59-.55-11.13-.81-.03.16-.07.32-.1.48 2.58.97 5.16 1.95 8.38 3.17zm-77.72-2.75c-1.69 1-2.94 2.01-4.36 2.53-3.6 1.33-3.65 3.59-2.35 6.69.96 2.3 2.26 3.41 4.8 2.94.71-.13 1.78-.19 2.18.22 2.18 2.21 3.91.86 5.89-.43-2.04-3.95-4.01-7.77-6.16-11.95zm188.85-14.88c2.05-2.56 3.95-4.94 5.99-7.5-1.43-1.08-2.73-2.07-3.98-3.02-4.55 4-4.58 4.13-2.01 10.52zm-180.81 87.01c-.52 3.15-1.02 6.21-1.64 9.99 2.97-1.86 6.33-1.92 6.33-5.7 0-2.84-2.04-3.65-4.69-4.29zm34.77 32.09c3.1 4.68 3.1 4.68 7.81 2.78-.32-2.03-.66-4.12-1.04-6.53-2.52 1.39-4.54 2.51-6.77 3.75zm-56.77-68.97c3.1-1.31 5.77-2.44 9.02-3.81-2.88-1.49-5.24-2.71-8.02-4.15-.36 2.91-.65 5.17-1 7.96zm242.46 43.01c-3.34-2.22-5.65-.31-8.14.96 2.02 3.4 2.02 3.4 7.12 2.66.31-1.08.63-2.23 1.02-3.62zm71.55-88.29c-4.06-2.35-5.31 1.62-7.95 2.6.78 1.46 1.39 2.6 2.21 4.12 2.05-2.41 3.83-4.49 5.74-6.72zm-264.6 98.26c-3.91-2.26-5.32-2.25-7.73.36-.63.68-.32 2.25-.49 3.97 3.13-1.66 5.44-2.87 8.22-4.33zm45.72 6.95c-.82 3.2-1.38 5.39-1.97 7.73h5.95c-1.29-2.5-2.39-4.62-3.98-7.73zm-17.12-101.6c1.85-1.45 3.19-2.49 4.81-3.76-2.11-1.1-3.75-1.96-5.82-3.05.35 2.35.63 4.27 1.01 6.81zm-48.85-4.8c-5.08 1.2-6.33 2.94-4.62 5.44 1.57-1.85 3.09-3.65 4.62-5.44zm-16.95 97.24c2.09-1.36 3.35-2.19 4.85-3.17-1.08-1.29-1.91-2.28-3.06-3.65-.6 2.3-1.07 4.09-1.79 6.82zm-4.02-37.3c.37 2.01.59 3.22.88 4.78 1.65-.61 2.93-1.1 4.7-1.76-1.95-1.05-3.43-1.85-5.58-3.02zm133.65 43.5c-2.29-1.5-3.78-2.48-6.03-3.96.5 2.21.77 3.43 1.09 4.83 1.6-.28 2.88-.51 4.94-.87zm161.13-119.86c-.95-.53-1.75-.97-2.64-1.47v7.22c1.06-2.33 1.74-3.8 2.64-5.75zm-316.1 67.55v5.46c1.16-.86 1.91-1.42 2.84-2.11-.93-1.11-1.69-2-2.84-3.35z" fill="#010000"/><g fill="#fbfcfa"><path d="m361.2 9.6.8-1c.9.7 1.9 1.4 2.9 2.3l-.9 1.1c-1-1-2-1.8-2.8-2.4zm.5 10.6c.9-2.1 1.6-4.3 2.3-6.7.4.2.8.4 1.3.6-.7 2.1-1.5 4.3-2.2 6.6zm.4-15.2.9-.9c1 .8 2 1.6 2.8 2.4l-1 1c-.9-.9-1.8-1.7-2.7-2.5zm12.5-1.2h1.2v1.4h2.7v1.1h-2.7v2.7h-1.2v-.6h-1.8v1.3h4.9v3.8h-1.2v-.5h-3.7c0 .4-.1.9-.1 1.2h5.1v1h-5.2c0 .5-.1.9-.2 1.2h6v1h-5.2c1.1 1.3 2.9 2 5.5 2.2-.4.4-.7.8-.9 1.3-2.9-.5-4.8-1.6-5.7-3.5h-.1c-.8 1.7-2.7 2.9-5.9 3.6-.2-.4-.6-.8-.9-1.1 2.8-.6 4.6-1.4 5.4-2.5h-4.8v-1h5.3c.1-.3.2-.7.2-1.2h-4.9v-1h5c0-.4 0-.8.1-1.2h-3.5v.5h-1.2v-3.8h4.9v-1.3h-1.8v.5h-1.2v-2.7h-2.7v-1h2.6v-1.4h1.2v1.4h4.7v-1.4zm-6.6 8.3h3.6c0-.4 0-.9 0-1.4h-3.6zm1.9-4.6h4.7v-1.3h-4.7zm6.6 3.2h-3.7v1.4h3.7z"/><path d="m385.3 3.8h1.3v2.2h2.8v-2.2h1.3v2.2h4.1v9.1h1.7v1.3h-16.9v-1.3h1.7v-9.1h4.1v-2.2zm.4 13.1.7 1.2c-1.8.9-3.8 1.9-6 2.9-.2-.4-.5-.8-.8-1.3 2.3-1 4.3-1.9 6.1-2.8zm-3.1-6.4h2.8v-3.2h-2.8zm0 4.6h2.8v-3.3h-2.8zm4-4.6h2.8v-3.2h-2.8zm0 4.6h2.8v-3.3h-2.8zm3.7 1.9c2.1.9 4.1 1.8 6.1 2.7l-.7 1.3c-2.2-1.1-4.2-2-6.1-2.9zm3.2-9.7h-2.8v3.2h2.8zm-2.8 7.8h2.8v-3.3h-2.8z"/></g></svg>