<svg viewBox="0 0 400 400" xmlns="http://www.w3.org/2000/svg"><rect width="400" height="400" fill="white" /><path d="m303.35 41.7c4.97 11.54 9.57 22.19 14.16 32.85 3.4 7.9 6.5 15.96 10.29 23.67 3.34 6.79 4.61 13.83 5.08 21.28 2.44 38.3 5.08 76.59 7.62 114.88.07 1.08.22 2.4-.27 3.25-6.4 10.88-12.45 22.02-19.6 32.39-3.65 5.31-9.06 9.54-14.14 13.7-7.13 5.85-13.68 12.07-19.09 19.65-12.24 17.14-25.76 33.28-40.75 48.09-13.86 13.69-30.56 21.52-50.09 23.17-2.14.18-2.68-.94-3.45-2.32-6.3-11.34-12.55-22.7-18.99-33.95-1.12-1.96-2.77-3.8-4.58-5.14-9.89-7.32-20.02-14.33-29.82-21.76-4.23-3.21-8.24-6.87-11.74-10.87-10.02-11.45-20.27-22.76-29.36-34.93-5.61-7.51-9.76-16.26-13.69-24.86-5.11-11.17-9.84-22.56-13.79-34.18-3.22-9.48-5.13-19.41-7.48-29.18-2.9-12.06-5.7-24.14-8.44-36.23-.33-1.45-.42-3.17.02-4.56 10.3-32.59 20.66-65.16 31.13-97.7.65-2.02 2.06-3.91 3.48-5.54 2.56-2.95 5.39-5.67 8.19-8.58 10.93 6.1 15.85 15.42 16.5 27.29.46 8.5-1.37 16.67-3.65 24.78-4.45 15.85-8.3 31.82-8.65 48.39-.09 4.16-.74 8.46 2.08 12.27 4.05 5.47 9.39 8.21 16.13 7.95 20.67-.8 41.35-1.49 62-2.64 26.35-1.47 52.68-3.35 79.02-5.06 6.03-.39 12.05-.91 18.08-1.16 1.94-.08 2.65-.84 3.21-2.59 3.98-12.44 4.87-25.2 4.09-38.14-.59-9.7-1.69-19.39-1.83-29.1-.1-7.14 1.6-14.22 7.51-19.03 3.08-2.49 6.99-3.98 10.82-6.09zm-196.13 134.44c7.68 27.22 18.8 52.59 35.9 74.99 19.04 24.95 40.5 47.78 62.87 69.76.62.61 1.36 1.37 2.13 1.48 8.59 1.25 17.54 1.59 24.4-4.22 8.74-7.4 17.66-15.15 24.33-24.33 13.99-19.24 23.5-41.07 32.11-63.18 4.04-10.37 6.75-21.21 5.52-32.46-1.46-13.3-3.81-17.18-17.08-20.6-6.05-1.56-12.62-1.76-18.92-1.6-12.16.31-24.3 1.44-36.46 1.97-5.12.22-10.27-.28-15.41-.38-24.71-.49-49.42-1-74.13-1.42-8.26-.13-16.52-.01-25.26-.01z" fill="#010100"/><g fill="#fafbfa"><path d="m6.4 11.7c-1-.8-1.9-1.6-2.9-2.3l.6-.7c.9.7 1.9 1.4 2.9 2.2zm-2.1 8.3c.7-2.1 1.4-4.2 2-6.4.2.1.6.3 1 .4-.7 2.3-1.3 4.4-1.9 6.4zm3-12.8c-1.1-.9-2.1-1.7-2.9-2.4l.6-.7c1 .8 2 1.5 3 2.4zm1.4-1.3v-.9h10.2v.9c-.9 4.2-2.3 7.3-4.1 9.4 1.3 1.4 3.2 2.7 5.7 4-.2.2-.4.5-.7.9-2.5-1.4-4.4-2.7-5.7-4.2-1.4 1.5-3.5 3-6.1 4.4 0 0 0 0-.1-.1-.3-.4-.5-.7-.7-.8 2.7-1.3 4.7-2.8 6.2-4.2-1.8-2.2-3-5.3-3.7-9.4zm9.2 0h-7.1c.6 3.8 1.7 6.7 3.4 8.7 1.7-2 2.9-4.8 3.7-8.7z"/><path d="m31.6 3.6h.9v2.3h4.1v9.1h1.7v.9h-16.6v-.9h1.7v-9.1h4.1v-2.3h.9v2.3h3.1v-2.3zm-4 13.3.6.8c-1.9.9-3.8 1.9-5.8 2.8-.2-.3-.3-.6-.5-.9 2-.9 3.9-1.8 5.7-2.7zm-3.2-10.1v3.7h3.1v-3.7zm0 4.5v3.7h3.1v-3.7zm4.1-4.5v3.7h3.1v-3.7zm0 4.5v3.7h3.1v-3.7zm9.1 9.1c-2.1-1.1-4.1-2-5.8-2.7l.5-.8c2.2.9 4.1 1.8 5.8 2.6zm-1.9-13.6h-3.1v3.7h3.1zm-3.2 4.5v3.7h3.1v-3.7z"/></g></svg>