<svg enable-background="new 0 0 400 400" viewBox="0 0 400 400" xmlns="http://www.w3.org/2000/svg"><g fill="#010104"><path d="m213.41 298.42c-2.34 8.23-9.07 11.65-13.99 16.74-7.46 7.72-14.37 15.98-21.88 23.67-6 6.15-12.23 12.16-18.91 17.54-7.73 6.22-16.57 10.33-26.59 12.01-11.01 1.84-21.89 4.38-32.9 6.63-1.31-2.52-.05-3.63 1.84-4.87 14.88-9.73 29.88-19.3 44.47-29.44 13.03-9.05 23.35-20.77 31.29-34.57 2.62-4.55 5.93-8.73 8.3-13.39 1.71-3.37 2.89-7.21 3.39-10.96.51-3.81-2.47-5.84-6.23-4.8-17.54 4.87-35.07 9.76-52.57 14.77-.94.27-1.81 1.64-2.21 2.7-.59 1.54-.31 2.94 1.54 3.82 3.94 1.85 7.8 3.88 11.67 5.89 3.98 2.07 5.54 4.75 4.75 8.99-.27 1.46-1.27 3.19-2.47 4-15.91 10.67-32.4 20.12-50.61 26.6-6.44 2.29-12.04 7.16-17.77 11.22-5.63 3.99-11.62 5.4-18.25 4.3-.83-2.5-.04-4.09 1.85-5.66 12.39-10.31 24.81-20.58 36.95-31.17 7.62-6.65 14.36-14.15 17.94-23.91 1.82-4.97 1.74-5.43-2.72-8.43-4.64-3.12-9.44-5.99-14.12-9.05-4.45-2.91-8.49-6.2-9.72-12.23 7.1.48 14.04.47 20.83 1.49 13.8 2.07 27.09-.08 40.44-3.26 8.57-2.04 17.37-3.12 26.02-4.87 3.14-.64 6.22-1.8 9.18-3.06 4.4-1.88 5.9-4.57 4.74-9.1-2.93-11.4-10.4-19.03-20.91-23.78-1.53-.69-3.84-.61-5.46 0-19.7 7.35-40.36 10.8-60.86 14.75-8.91 1.72-18.08.13-26.84-2.55-2.83-.87-5.26-2.56-5.3-6.38 9.79-2.29 19.56-4.59 29.34-6.86 13.93-3.24 27.88-6.43 41.8-9.73 1.7-.4 3.4-1.13 4.9-2.03 11.88-7.14 23.6-14.58 35.6-21.52 18.96-10.97 29.72-39.65 16.1-60.76-.72-1.11-1.17-2.38-1.75-3.58.19-.32.38-.64.57-.95 4.7 2.24 9.68 4.05 14.06 6.81 9.88 6.23 13.16 14.78 10.78 26.24-.93 4.49-1.84 8.98-2.76 13.47-1.03 5.04.31 9.59 4.83 11.87 19.51 9.85 38.5 21.16 60.85 23.69 8.32.94 16.7 1.42 25.02 2.44 3.76.46 7.39 1.78 9.43 5.81-9.8 5.34-20.23 7.4-31.13 6.79-19.76-1.11-38.4-6.94-56.67-14.1-4.86-1.91-9.7-3.79-12.71-8.65-1.04-1.68-3.16-2.82-4.99-3.84-2.7-1.5-5.29-1.52-8.08.52-9.65 7.05-19.47 13.87-29.57 21.01 4.22 2.73 8.05 5.35 12.02 7.76 7.84 4.76 13.81 11.27 18.49 19.08 3.89 6.5 4.6 6.75 11.89 5.38 12.85-2.41 25.66-5.15 38.58-7.06 7.36-1.09 14.92-.89 22.4-1.11 5.69-.16 11.38.08 17.07-.11 5.86-.2 7.96 1.94 7.41 8.37-8.8 1.66-17.67 3.36-26.55 5.02-16.92 3.14-33.85 6.26-50.78 9.39-3.18.59-6 1.73-7.8 5.06 7.02 4.73 14.52 8.45 22.63 10.42 9.97 2.42 20.17 3.92 30.22 6.04 13.67 2.88 27.3 5.93 40.92 9.01 1.58.36 3.21 1.14 4.46 2.17 3.93 3.23 3.32 8.75-1.09 11.1-9.81 5.23-20.09 6.5-30.85 3.58-17.12-4.66-33.58-11.02-48.75-20.25-5.3-3.23-9.78-7.8-14.63-11.75-.92-.75-1.86-1.46-2.8-2.19-.37.09-.74.18-1.1.26 0 2.64-.57 5.45.12 7.9 1.33 4.67 4.05 8.55 8.15 11.53 13.96 10.17 29.63 16.99 45.45 23.54 14.23 5.89 28.95 9.76 44.26 11.71 6.84.87 13.53 2.95 20.24 4.66 1.57.4 3.15 1.28 4.39 2.33 3.88 3.3 3.58 8.7-1.05 10.47-5.77 2.2-11.88 4.13-17.98 4.75-10.91 1.09-21.92.82-32.71-1.69-2.8-.65-5.55-1.72-8.13-2.99-6.82-3.36-13.4-7.21-20.31-10.36-16.2-7.41-28.01-19.74-38.53-33.59-1.91-2.6-3.72-5.29-6.15-8.7z"/><path d="m52.94 210.07c.93-.73 1.77-1.62 2.79-2.18 8.13-4.48 16.16-9.15 24.46-13.27 19.11-9.49 35.25-22.81 49.85-38.12 11.51-12.06 23.02-24.15 31.28-38.83 4.03-7.16 6.49-14.66 4.99-23.43-9.23 2.36-18.32 4.46-27.27 7.06-7.92 2.3-15.83 4.79-23.44 7.95-4.91 2.04-9.18 1.8-13.78-.25-11.2-4.99-18.93-13.9-26.67-22.82.15-.4.3-.79.46-1.19 1.74.37 3.46.86 5.21 1.1 3.05.42 6.24 1.42 9.16.92 25.76-4.48 51.47-9.3 77.22-13.83 2.96-.52 4.19-2.07 5.03-4.51 2-5.8-.48-10.98-2.23-16.25-3.44-10.33-12.61-12.33-21.5-14.66-6.89-1.8-13.83-3.39-20.68-5.32-1.86-.52-3.46-1.93-5.29-3 5.82-4.16 11.95-4.78 18.37-3.01 8.71 2.4 17.43 4.8 26.03 7.55 7.04 2.25 12 7.11 15.35 13.69 2.84 5.57 5.83 11.07 8.73 16.61 1.75 3.33 4.03 4.53 8.1 3.77 16.48-3.04 33.03-5.76 49.6-8.35 4.04-.63 8.25-.58 12.34-.31 1.56.1 3.86 1.41 4.33 2.7.82 2.25-.26 4.43-2.67 5.83-8.22 4.79-17.07 7.65-26.38 9.42-13.61 2.59-27.23 5.18-40.76 8.17-5.08 1.12-7.32 5.56-8.42 10.31-.63 2.7-.64 5.54-1.01 8.31-1.16 8.91-6.12 16.25-10.11 23.95-9.52 18.35-23.21 33.01-40.26 44.61-1.36.93-2.76 1.99-3.7 3.31-10.08 14.14-24.16 22.71-40.1 28.46-13.61 4.95-28.66 7.16-39.03 5.61z"/><path d="m211.02 100.14c7.55 5.41 14.44 9.98 20.92 15.07 12.59 9.9 26.58 17.17 41.26 23.41 10.58 4.5 20.92 9.56 31.31 14.5 4.21 2 7.97 4.59 8.87 9.92-9.93 5.82-20.4 6.27-30.54 1.68-12.69-5.75-24.93-12.53-37.33-18.93-.85-.44-1.5-1.31-2.17-2.04-5.66-6.19-11.14-12.54-16.99-18.54-6.4-6.58-11.76-13.73-14.71-22.52-.18-.51-.26-1.03-.62-2.55z"/></g><path d="m385.2 377.6.6-.7c.6.4 1.3.9 1.9 1.5l-.6.7c-.8-.5-1.4-1-1.9-1.5zm.3 7.1c.6-1.4 1.1-2.9 1.5-4.5.3.1.6.3.9.4-.5 1.4-1 2.9-1.5 4.4zm.2-10.1.6-.6c.7.5 1.3 1.1 1.9 1.6l-.7.7c-.6-.6-1.2-1.2-1.8-1.7zm8.4-.8h.8v.9h1.8v.7h-1.8v1.8h-.8v-.3h-1.2v.9h3.3v2.6h-.8v-.4h-2.5c0 .3 0 .6-.1.8h3.4v.7h-3.5c0 .3-.1.6-.1.8h4v.7h-3.5c.7.9 1.9 1.3 3.6 1.5-.2.2-.4.5-.6.9-1.9-.3-3.2-1.1-3.8-2.3-.5 1.1-1.8 2-3.9 2.4-.2-.3-.4-.5-.6-.8 1.9-.4 3.1-.9 3.6-1.7h-3.2v-.7h3.5c.1-.2.1-.5.2-.8h-3.3v-.7h3.4c0-.2 0-.5 0-.8h-2.4v.3h-.8v-2.6h3.3v-.9h-1.2v.3h-.8v-1.8h-1.8v-.7h1.8v-.9h.8v.9h3.2zm-4.4 5.5h2.4c0-.3 0-.6 0-.9h-2.4zm1.2-3.1h3.2v-.8h-3.2zm4.4 2.2h-2.4v.9h2.5v-.9z" fill="#fcfbfa"/><path d="m389.2 385.8h.9v1.5h1.9v-1.5h.9v1.5h2.7v6h1.1v.9h-11.3v-.9h1.1v-6h2.7zm.2 8.7.5.8c-1.2.6-2.5 1.3-4 1.9-.2-.3-.3-.6-.6-.8 1.6-.6 3-1.3 4.1-1.9zm-2-4.3h1.9v-2.1h-1.9zm0 3.1h1.9v-2.2h-1.9zm2.7-3.1h1.9v-2.1h-1.9zm0 3.1h1.9v-2.2h-1.9zm2.4 1.3c1.4.6 2.7 1.2 4.1 1.8l-.5.9c-1.5-.7-2.8-1.4-4.1-1.9zm2.2-6.5h-1.9v2.1h1.9zm-1.9 5.2h1.9v-2.2h-1.9z" fill="#fcfbfa"/></svg>