<svg enable-background="new 0 0 400 400" viewBox="0 0 400 400" xmlns="http://www.w3.org/2000/svg"><path d="m374.8 390.4.4-.4c.7.5 1.3 1 1.8 1.4l-.5.5c-.5-.6-1.1-1.1-1.7-1.5zm1 7.3-.6-.3c.5-1.4 1.1-2.8 1.5-4.3.2.1.4.2.6.3-.5 1.3-1 2.8-1.5 4.3zm-.4-10.3.4-.4c.4.3 1 .8 1.7 1.4l-.5.5c-.4-.5-1-1-1.6-1.5zm2.5.3h1.7v-1h.6v1h3.5v-1h.6v1h1.8v.5h-1.8v1.4h-2v1h3.2v2h-3.2v.9h3.3v.5h-3.4c0 .3-.1.6-.1.9h4v.5h-3.7c.7.9 1.9 1.5 3.8 1.7-.1.2-.2.4-.3.6-2.1-.4-3.5-1.1-4-2.1-.4 1-1.8 1.7-4 2.2-.1-.2-.2-.4-.3-.6 2.1-.4 3.4-1 3.8-1.8h-3.4v-.5h3.6c.1-.3.1-.6.2-.9h-3.3v-.5h3.4c0-.3 0-.6 0-.9h-3.2v-2h3.3v-1h-2.1v-1.4h-1.7v-.5zm1.1 3.5v1h2.7c0-.3 0-.4 0-.4 0-.1 0-.2 0-.2 0-.1 0-.2 0-.3h-2.7zm1.2-3v.9h3.5v-.9zm4.7 3h-2.6v.6.4h2.6z" fill="#fbfcfa"/><path d="m393.6 386.7h.6v1.5h2.7v6.1h1.1v.6h-11v-.6h1.1v-6.1h2.7v-1.5h.6v1.5h2.1v-1.5zm-2.7 8.8.4.6c-1.2.6-2.5 1.3-3.8 1.9-.1-.2-.2-.4-.3-.6 1.2-.6 2.5-1.2 3.7-1.9zm-2.2-6.7v2.4h2.1v-2.4zm0 3v2.5h2.1v-2.5zm2.8-3v2.4h2.1v-2.4zm0 3v2.5h2.1v-2.5zm6 6.1c-1.4-.7-2.7-1.3-3.9-1.8l.3-.6c1.5.6 2.7 1.2 3.9 1.7zm-1.2-9.1h-2.1v2.4h2.1zm-2.1 3v2.5h2.1v-2.5z" fill="#fbfcfa"/><g fill="#010106"><path d="m291.01 177.4c-6.59 3.98-12.8 4.87-19.38 1.18-6.33-3.55-12.78-6.89-19.14-10.39-1.24-.69-2.4-1.62-3.41-2.62-7.39-7.33-14.76-14.68-22.06-22.1-.83-.84-1.15-2.19-1.7-3.3-.5.37-1.01.74-1.51 1.11-.68 5.74-1.35 11.48-2.03 17.22-.79 6.66-1.44 13.35-2.43 19.98-.42 2.85.53 4.68 2.36 6.79 7.39 8.53 14.75 17.11 21.67 26.02 5.11 6.59 8.58 14.13 9.89 22.5.14.87.17 1.75.3 3.08-3.96 0-7.72.12-11.47-.09-.92-.05-1.89-1.09-2.64-1.86-9.87-10.22-19.71-20.47-29.6-30.77-13.97 8.75-26.9 16.84-40.58 25.41 1.77-7.23 1.15-13.85 6.61-19.47 13.57-13.98 18.72-31.73 20-50.71.47-6.98.08-14.03.08-21.25-8.33 2.41-16.9 4.88-25.47 7.37-14.49 4.2-29.02 8.25-43.43 12.69-5.07 1.56-9.9 3.98-14.72 6.25-3.31 1.56-6.42 3.54-9.9 5.49-.8-2.9-.19-4.69 1.8-6.71 14.59-14.79 32.71-24.41 50.29-34.85 9.04-5.37 18.11-10.68 27.05-16.19 1.7-1.05 3.16-2.75 4.25-4.45 1.98-3.1 3.32-6.63 5.43-9.63 4.59-6.51 5.79-13.72 5.92-21.49.25-14.43.97-28.85 1.51-43.28.08-2.21.29-4.42.43-6.64 10.87 1.17 17.85 7.43 20.4 17.59 2.16 8.59.8 17.14.25 25.71-.9 13.86-.25 27.52 5.44 40.47.67 1.52 2.04 2.83 3.31 3.97 1.23 1.11 2.72 1.97 4.18 2.78 11.18 6.25 20.3 14.71 28.28 24.75 9.53 11.99 19.78 23.41 30.02 35.44z"/><path d="m278.32 370.81c-7.48 3.58-14.75 5.15-22.16 6.14-21.1 2.83-42.24 1.7-63.29-.25-20.82-1.93-41.56-4.63-62.32-7.15-6.55-.8-6.52-1.03-5.73-8.44 7.14-1.19 14.38-2.42 21.62-3.61 11.48-1.88 22.94-3.83 34.45-5.53 2.94-.44 4.29-1.76 4.58-4.57.76-7.34 1.75-14.65 2.32-22 1.03-13.38 1.41-26.82 2.88-40.15.86-7.8 3.32-15.42 5.18-23.63 8.33 4.04 13.09 9.88 15.43 17.69 2.83 9.41 1.42 18.84-.25 28.24-2.39 13.45-4.58 26.91-3.11 40.67.63 5.9.53 6.38 6.46 7.5 9.44 1.77 18.97 3.08 28.49 4.43 12.13 1.72 23.99 4.23 35.45 10.66z"/><path d="m142.61 317.01c-14.23-16.29-11.77-34.38-10.56-52.26 9.3-.66 17.54 5.67 19.25 14.83 1.7 9.06 1.26 18.1-2.23 26.68-1.45 3.58-3.99 6.72-6.46 10.75z"/><path d="m241.4 321.57c.83-17.02 1.62-33.06 2.41-49.11 10.86 1.02 18.41 11.29 17.08 22.96-.16 1.44-.32 2.89-.59 4.32-.75 3.99-1.92 7.56-5.53 10.24-4.46 3.3-8.43 7.25-13.37 11.59z"/></g></svg>