<svg enable-background="new 0 0 400 400" viewBox="0 0 400 400" xmlns="http://www.w3.org/2000/svg"><path d="m374.8 390.4.4-.4c.7.5 1.3 1 1.8 1.4l-.5.5c-.5-.6-1.1-1.1-1.7-1.5zm1 7.3-.6-.3c.5-1.4 1.1-2.8 1.5-4.3.2.1.4.2.6.3-.5 1.3-1 2.8-1.5 4.3zm-.4-10.3.4-.4c.4.3 1 .8 1.7 1.4l-.5.5c-.4-.5-1-1-1.6-1.5zm2.5.3h1.7v-1h.6v1h3.5v-1h.6v1h1.8v.5h-1.8v1.4h-2v1h3.2v2h-3.2v.9h3.3v.5h-3.4c0 .3-.1.6-.1.9h4v.5h-3.7c.7.9 1.9 1.5 3.8 1.7-.1.2-.2.4-.3.6-2.1-.4-3.5-1.1-4-2.1-.4 1-1.8 1.7-4 2.2-.1-.2-.2-.4-.3-.6 2.1-.4 3.4-1 3.8-1.8h-3.4v-.5h3.6c.1-.3.1-.6.2-.9h-3.3v-.5h3.4c0-.3 0-.6 0-.9h-3.2v-2h3.3v-1h-2.1v-1.4h-1.7v-.5zm1.1 3.5v1h2.7c0-.3 0-.4 0-.4 0-.1 0-.2 0-.2 0-.1 0-.2 0-.3h-2.7zm1.2-3v.9h3.5v-.9zm4.7 3h-2.6v.6.4h2.6z" fill="#fbfcfa"/><path d="m393.6 386.7h.6v1.5h2.7v6.1h1.1v.6h-11v-.6h1.1v-6.1h2.7v-1.5h.6v1.5h2.1v-1.5zm-2.7 8.8.4.6c-1.2.6-2.5 1.3-3.8 1.9-.1-.2-.2-.4-.3-.6 1.2-.6 2.5-1.2 3.7-1.9zm-2.2-6.7v2.4h2.1v-2.4zm0 3v2.5h2.1v-2.5zm2.8-3v2.4h2.1v-2.4zm0 3v2.5h2.1v-2.5zm6 6.1c-1.4-.7-2.7-1.3-3.9-1.8l.3-.6c1.5.6 2.7 1.2 3.9 1.7zm-1.2-9.1h-2.1v2.4h2.1zm-2.1 3v2.5h2.1v-2.5z" fill="#fbfcfa"/><g fill="#010101"><path d="m145.73 120.29c.05-5.17 1.03-9.44 4.12-13.45 6.14-7.97 12.1-16.12 17.53-24.58 5.73-8.92 12.92-16.23 21.53-22.23 3.21-2.23 5-4.79 5.35-8.96.71-8.43 2.15-16.79 3.38-25.91 4.1 3.81 5.58 8.04 5.81 12.79.24 5.02.25 10.05.45 15.08.16 3.97 1.67 7.18 4.85 9.84 4.2 3.52 7.92 7.59 12.07 11.17 2.33 2.01 3.43 3.92 1.72 6.81-.43.73-.59 1.63-.97 2.74 2.6.6 4.93 1.29 7.32 1.65 1.8.27 2.38 1.02 2.44 2.83.28 7.69.27 7.94 7.84 9.93 4.08 1.08 6.5 3.11 7.96 7.04 1.47 3.93 3.58 7.62 5.78 12.17-6-2.32-11.28-4.27-16.48-6.43-.9-.38-1.46-1.61-2.15-2.46-3.81-4.68-7.44-9.51-11.47-13.99-3.25-3.62-7.55-5.41-12.52-5.58-2.11-.07-3.21.67-4.08 2.56-4.17 9.02-5.55 18.38-3.46 28.12 1.96 9.16 2.23 18.4 1.85 27.71-.06 1.6.53 3.54 1.5 4.81 4.62 6.08 7.21 12.76 7.3 20.47.09 7.53 2.88 14.4 5.69 21.24 1.23 2.97 2.37 5.98 3.7 9.35-5.72 0-11.06.15-16.39-.07-2.55-.1-4.04.73-4.75 3.09-3.05 10.14-5.99 20.32-9.15 30.42-2.09 6.68-4.06 13.45-6.92 19.81-2.02 4.49-6.04 7.37-11.56 7.4-2.03-6.15-1.58-12.16-.21-18.26.88-3.91 1.26-7.93 1.95-11.89.18-1.04.4-2.41 1.11-2.97 2.19-1.72 2.44-3.81 1.92-6.26-1.56-7.3.22-14.2 2.67-20.97 2.48-6.84 4-13.72 1.66-20.92-.78-2.4-.09-4.4 1.65-6.04 4.63-4.37 5.7-9.26 3.2-15.28-2.42-5.83.34-11.67.85-17.51 1.02-11.58 2.35-23.14 2.94-34.74.28-5.53-.76-11.13-1.33-16.69-.67-6.6-4.69-6.97-9.49-4.73-3 1.4-5.78 3.46-8.3 5.64-1.22 1.06-1.87 2.99-2.34 4.66-3.53 12.47-12.35 19.16-24.57 22.59z"/><path d="m139.53 285.76c4.42-.86 7.9-1.54 11.65-2.27 2.64 10.56 4.93 20.92 7.88 31.1 1.63 5.62 4 11.12 6.71 16.32 2.26 4.33 6.23 7.25 11.13 9.12 1.88-6.15 3.66-12.24 5.63-18.26.93-2.85 1.95-5.75 3.47-8.32 1.27-2.16 3.07-4.18 5.07-5.69 4.63-3.51 6.23-3.02 9.38 1.69 4.42 6.6 8.84 13.2 13.5 19.63 3.61 4.98 8.19 8.8 14.33 10.52 2.19.61 3.48.18 4.78-1.67 5.91-8.46 9.7-17.92 12.42-27.72 2.14-7.71 3.39-15.68 4.76-23.58.66-3.81-.53-7.2-3.61-9.92-1.99-1.75-3.58-3.95-5.58-6.2 10.57-5.07 12.01-14.74 13.27-24.57.92-7.15 3.2-13.88 6.83-20.12.35-.01.69-.03 1.04-.04.49 6.09 1.9 12.28 1.28 18.25-1.15 10.99-3.65 21.83-5.26 32.78-.48 3.23-.31 6.73.39 9.92 1.03 4.74.64 9.28-.31 13.91-3.56 17.34-10.77 33.35-17.93 49.37-.39.88-1.12 1.66-1.84 2.35-7.17 6.92-14.31 13.86-21.62 20.63-.99.91-2.99 1.43-4.33 1.16-8.55-1.69-17.07-3.58-25.56-5.58-1.37-.32-2.78-1.32-3.74-2.39-2.31-2.58-4.32-5.42-6.54-8.09-2.38-2.86-4.72-5.63-4.01-9.83.12-.68-1.18-2.19-2.01-2.36-10.26-2.02-16.02-10.3-22.84-16.82-2.62-2.51-3.85-7.13-4.45-10.98-1.64-10.58-2.61-21.26-3.89-32.34zm56.99 32.52c-1.99 6.42-3.47 12.26-5.62 17.84-2.8 7.25-1.11 13.31 3.76 18.88 1.03 1.18 2 2.41 3.05 3.57 5.8 6.48 15.21 5.67 19.91-1.74.38-.59.62-1.53.44-2.18-1.37-5.13-1.79-10.91-4.53-15.18-4.72-7.36-10.92-13.77-17.01-21.19z"/><path d="m237.74 262.43c-4.15 1.03-6.82-.07-9.64-3.63-5.82-7.34-9.27-15.25-10.27-24.56-.71-6.62-2.35-13.14-3.63-19.93 8.68 1.57 15.64 4.73 19.01 13.42 4.21 10.84 6.06 21.93 4.87 33.51-.04.43-.24.84-.34 1.19z"/><path d="m159.5 200.43c-2.85-4-4.01-8.38-2.91-13.21.75-3.26 1.69-6.48 2.7-9.67 1.17-3.68 2.01-7.27-.22-10.89-.36-.59-.32-1.49-.29-2.24.03-.65.3-1.3.49-1.94 2.6-8.74 5.21-17.48 7.9-26.51 4.78 3.88 5.81 8.69 5.03 14.06-.77 5.3-1.63 10.6-2.7 15.85-.39 1.92-1.99 3.65-2.18 5.55-.45 4.51-.7 9.09-.44 13.62.4 6.99-2.01 12.6-7.38 15.38z"/><path d="m135.67 245.46c6.6 2.49 11.28 6.64 13.04 13.2 1.26 4.69 1.82 9.6 2.29 14.45.34 3.54-2.96 5.74-6.47 4.66-4.62-1.41-7.94-3.74-8.73-9.17-.93-6.41-2.43-12.72-1.15-19.23.26-1.25.65-2.5 1.02-3.91z"/><path d="m144.02 240.04c-2.6 0-5.26.07-7.91-.05-.66-.03-1.61-.47-1.89-1-3.23-6.09-6.36-25.2.82-33.51 1.2 1.26 2.57 2.36 3.5 3.76 3.51 5.26 6.83 24 5.48 30.8z"/><path d="m257.58 173.16c-4.23 1.91-7.6 2.14-10.58-1.1-.73-.8-1.75-1.53-2.77-1.82-3.75-1.09-3.93-3.77-3.3-6.86 1.18-5.76 2.42-11.52 3.72-17.69 11.9 5.88 10.06 17.67 12.93 27.47z"/></g></svg>