<svg enable-background="new 0 0 400 400" viewBox="0 0 400 400" xmlns="http://www.w3.org/2000/svg"><path d="m374.8 390.4.4-.4c.7.5 1.3 1 1.8 1.4l-.5.5c-.5-.6-1.1-1.1-1.7-1.5zm1 7.3-.6-.3c.5-1.4 1.1-2.8 1.5-4.3.2.1.4.2.6.3-.5 1.3-1 2.8-1.5 4.3zm-.4-10.3.4-.4c.4.3 1 .8 1.7 1.4l-.5.5c-.4-.5-1-1-1.6-1.5zm2.5.3h1.7v-1h.6v1h3.5v-1h.6v1h1.8v.5h-1.8v1.4h-2v1h3.2v2h-3.2v.9h3.3v.5h-3.4c0 .3-.1.6-.1.9h4v.5h-3.7c.7.9 1.9 1.5 3.8 1.7-.1.2-.2.4-.3.6-2.1-.4-3.5-1.1-4-2.1-.4 1-1.8 1.7-4 2.2-.1-.2-.2-.4-.3-.6 2.1-.4 3.4-1 3.8-1.8h-3.4v-.5h3.6c.1-.3.1-.6.2-.9h-3.3v-.5h3.4c0-.3 0-.6 0-.9h-3.2v-2h3.3v-1h-2.1v-1.4h-1.7v-.5zm1.1 3.5v1h2.7c0-.3 0-.4 0-.4 0-.1 0-.2 0-.2 0-.1 0-.2 0-.3h-2.7zm1.2-3v.9h3.5v-.9zm4.7 3h-2.6v.6.4h2.6z" fill="#fbfcfa"/><path d="m393.6 386.7h.6v1.5h2.7v6.1h1.1v.6h-11v-.6h1.1v-6.1h2.7v-1.5h.6v1.5h2.1v-1.5zm-2.7 8.8.4.6c-1.2.6-2.5 1.3-3.8 1.9-.1-.2-.2-.4-.3-.6 1.2-.6 2.5-1.2 3.7-1.9zm-2.2-6.7v2.4h2.1v-2.4zm0 3v2.5h2.1v-2.5zm2.8-3v2.4h2.1v-2.4zm0 3v2.5h2.1v-2.5zm6 6.1c-1.4-.7-2.7-1.3-3.9-1.8l.3-.6c1.5.6 2.7 1.2 3.9 1.7zm-1.2-9.1h-2.1v2.4h2.1zm-2.1 3v2.5h2.1v-2.5z" fill="#fbfcfa"/><g fill="#010106"><path d="m285.96 99.79c-15.72 2.59-30.24 6.07-45.27 4.52-2.31-.24-4.61-.87-6.82-1.6-3.48-1.15-5.11-.79-6.19 2.78-1.29 4.25-2.47 8.67-2.71 13.08-.58 10.72-.66 21.47-.72 32.2-.01 1.26 1.14 2.85 2.21 3.75 13.78 11.6 27.57 23.2 41.52 34.59 12.21 9.97 23.7 20.52 31.22 34.67.97 1.83 1.78 3.75 2.96 6.24-1.51-.6-2.41-.91-3.27-1.3-20.04-9.11-40.25-17.88-60.04-27.51-8.58-4.18-16.32-10.1-24.41-15.28-4.04-2.59-8-5.31-12.1-8.04-12.62 13.34-27.13 24.23-42 34.57-9.43 6.56-19.36 12.45-29.4 18.03-6.62 3.68-6.94 3.18-11.38-2.74 6.1-5.96 12.45-11.63 18.17-17.88 9.82-10.73 17.4-23.05 23.15-36.36 9.08-21.02 17.73-42.23 26.55-63.36.21-.5.31-1.04.74-2.46-7.57-1.2-14.87-3.05-22.23-3.37-9.91-.42-19.86.53-29.8.55-12.82.03-24.58-4-36.53-10.6 2.95-.58 5.12-1.04 7.3-1.43 2.31-.42 4.62-.81 6.95-1.15 13.73-2.03 27.49-3.77 41.42-2.96 4.68.27 9.37.76 13.97 1.62 5.57 1.04 9.65-.94 12.78-5.3 4.48-6.24 6.64-13.47 7.72-20.89 1.87-12.82 3.19-25.72 4.77-38.88 9.45 4.06 19.26 8.26 26.15 16.96 3.19 4.03 3.52 8.56 1.09 13.21-2.47 4.73-4.17 9.71-3.45 15.12 1.33 10.04 6.75 15.04 17.76 16.89 7.76 1.31 15.36.5 22.97-1.09 7.83-1.64 15.24-.94 21.08 5.24 2.09 2.21 3.59 4.98 5.84 8.18z"/><path d="m207.9 244.59c2.06 3.82 4.08 7.52 6.05 11.24 4.55 8.59 8.96 17.26 13.69 25.74 1.54 2.75 3.54 5.5 5.96 7.46 15.31 12.37 30.76 24.57 46.24 36.72 12.89 10.12 23.47 22 29.32 37.59.24.63.46 1.26.66 1.9.06.2.01.43.01 1.06-4.17 0-8.37.1-12.55-.08-.96-.04-1.96-.95-2.8-1.63-27.99-22.67-55.96-45.37-83.94-68.06-.86-.7-1.74-1.36-2.04-1.59-8.88 8.56-17.4 17.11-26.29 25.27-15.15 13.91-30.29 27.86-45.93 41.21-7.75 6.61-16.84 11.41-27.17 13.18-6.94 1.19-6.85 1.08-7.17-5.97-.17-3.73 1.31-5.45 4.27-7.58 8.31-6.01 16.67-12.15 24.02-19.27 25.7-24.89 48.94-51.92 68.63-81.87 3.19-4.86 5.92-10 9.04-15.32z"/><path d="m83.66 186.4c11.65-9.85 20.16-21.95 29.99-32.83 8.69-9.62 17.08-19.52 25.5-29.38 1.4-1.64 2.6-1.87 4.57-1.19 10.28 3.56 13.14 13.34 5.75 21.39-9.37 10.2-18.97 20.21-28.81 29.96-7.45 7.38-16.13 12.85-27.11 13.04-3.26.05-6.55-.63-9.89-.99z"/><path d="m236.49 122.36c6.2 2.38 12.51 4.51 18.57 7.19 13.49 5.96 27.02 11.92 38.44 21.58 7.79 6.58 13.73 15.09 16.48 23.75-5.77-.79-11.35-1.55-16.92-2.33-5.86-.83-11.71-1.78-17.59-2.5-2.69-.33-4.63-1.27-6.35-3.57-10.39-13.88-20.96-27.62-31.46-41.4-.53-.69-1.01-1.42-1.51-2.13.12-.2.23-.4.34-.59z"/><path d="m118.53 282.89c3.07-2.87 5.66-5.16 8.1-7.59 12.13-12.08 24.22-24.19 36.32-36.3 4.59-4.59 11.9-2.76 13.51 3.75.95 3.84.79 7.97 1.06 11.97.29 4.32-1.25 7.46-5.12 9.92-8.77 5.56-17.09 11.85-25.95 17.25-8.54 5.22-17.71 5.44-27.92 1z"/><path d="m246.74 244.46c15.21 5.68 27.71 14.09 36.93 26.95 2.21 3.08 4.06 6.42 6.2 9.56 1.09 1.6.99 2.85-.48 4.05-.09.07-.15.16-.23.25-5.95 6.82-8.92 7.47-17.1 3.58-.86-.41-1.55-1.24-2.21-1.97-4.55-5.08-9.02-10.24-13.62-15.28-6.88-7.56-9.02-16.72-9.49-27.14z"/></g></svg>