<svg enable-background="new 0 0 400 400" viewBox="0 0 400 400" xmlns="http://www.w3.org/2000/svg"><path d="m362.1 8.8c1.1.8 2.1 1.6 3.1 2.4l-1 1.1c-1.3-1.1-2.3-2-3-2.5zm1.9 4.8c.5.2.9.4 1.4.5-.6 2.3-1.3 4.5-1.9 6.8l-1.5-.5c.8-2.1 1.4-4.3 2-6.8zm-1-9.4c1.3.9 2.4 1.8 3.4 2.5l-1 1.1c-1.4-1.2-2.4-2.1-3.2-2.6zm3.7 2.2v-1.4h10.3v1.2c-.5 3.6-1.8 6.8-4 9.4 1.5 1.6 3.4 2.8 5.7 3.8-.3.4-.7.8-1.1 1.4-2.3-1.1-4.1-2.5-5.6-4.1-1.6 1.6-3.6 3.1-5.9 4.3-.3-.5-.7-.9-1-1.3 2.4-1.1 4.4-2.5 6-4.1-1.9-2.5-3-5.6-3.3-9.3h-1.1zm8.8 0h-6.4c.3 3.3 1.3 6 3 8.2 2-2.3 3.1-5.1 3.4-8.2z" fill="#fbfcfa"/><path d="m385.3 3.8h1.3v2.2h2.8v-2.2h1.3v2.2h4.1v9.1h1.7v1.3h-16.9v-1.3h1.7v-9.1h4.1v-2.2zm.4 13.1.7 1.2c-1.8.9-3.8 1.9-6 2.9-.2-.4-.5-.8-.8-1.3 2.3-1 4.3-1.9 6.1-2.8zm-3.1-6.4h2.8v-3.2h-2.8zm0 4.6h2.8v-3.3h-2.8zm4-4.6h2.8v-3.2h-2.8zm0 4.6h2.8v-3.3h-2.8zm3.7 1.9c2.1.9 4.1 1.8 6.1 2.7l-.7 1.3c-2.2-1.1-4.2-2-6.1-2.9zm3.2-9.7h-2.8v3.2h2.8zm-2.8 7.8h2.8v-3.3h-2.8z" fill="#fbfcfa"/><g fill="#010106"><path d="m100.54 199.48c2.82-1.75 5.67-3.46 8.45-5.27 17.82-11.57 35.49-23.36 53.46-34.69 15.3-9.64 23.78-23.81 28.73-40.64 5.9-20.04 9.17-40.54 10.73-61.32.65-8.76 1.01-17.54 1.54-26.95 4.13 5.41 5.85 11.24 6.43 17.14 1.1 11.34 1.68 22.73 2.14 34.12.52 13.1 1.01 26.21 4.35 38.93 5.36 20.4 16.24 37.58 32.43 50.97 16.11 13.33 32.87 25.86 49.35 38.75 1.11.87 2.24 1.7 3.22 2.77-21.16-3.77-40.07-12.39-56.74-25.82-15.11-12.17-27.37-26.99-38.95-42.41-.73-.97-1.5-1.9-2.37-3.01-27.52 31.36-58.62 56.03-102.27 58.42-.18-.34-.34-.66-.5-.99z"/><path d="m88.83 295.8c5.02-2.07 10.05-4.09 15.04-6.23 19.32-8.26 38.63-16.57 56.33-28.07 22.55-14.65 35.46-35.52 39.03-62.06 1.5-11.14 2.3-22.37 3.42-33.62 3.35 4.13 6.01 9.04 7.25 14.39 1.68 7.26 2.81 14.68 3.68 22.09 3.19 27.11 16.55 48.45 37.58 65 14.75 11.61 30.35 22.14 45.55 33.17 2.43 1.76 4.79 3.61 6.91 6.02-2.36-.7-4.77-1.27-7.08-2.11-11.94-4.4-23.95-8.63-35.76-13.37-17.63-7.07-30.16-20.49-41.93-34.72-4.55-5.5-8.89-11.17-13.52-17.02-1.39 2.15-2.65 4.23-4.04 6.21-10.98 15.67-25.91 26.44-43.18 34.04-19.91 8.76-41.1 12.81-62.45 16.13-1.88.29-3.77.51-5.65.74-.32.04-.66-.03-.99-.05-.06-.18-.13-.36-.19-.54z"/><path d="m102.18 356.15c22.47-3.15 44.94-6.3 67.41-9.44 6.98-.98 13.95-2.01 20.94-2.85 2.69-.32 3.92-1.18 4.2-4.21.65-7.1 1.86-14.14 2.89-21.55-20.92-1.82-41.44-3.61-61.97-5.4 0-.23 0-.47 0-.7 20.8-3.21 41.6-6.42 62.68-9.67 2.35-13.42 4.68-26.81 7.02-40.19.37-.17.73-.34 1.1-.51 1.14 1.69 2.91 3.25 3.31 5.1 1.25 5.77 2.28 11.62 2.83 17.5.64 6.77.68 13.59.98 20.51 18.36 4.02 36.64 8.02 54.92 12.02-.01.24-.03.47-.04.71-6.4.24-12.8.49-19.21.71-10.84.38-21.68.79-32.52 1.08-2.11.06-3.02.61-2.92 2.9.28 6.59.47 13.2.51 19.8.01 2.31.76 3.26 3.11 3.72 24.58 4.75 49.14 9.63 73.7 14.48 1.4.28 2.79.62 4.19.94-.01.28-.02.55-.04.83-64.41-1.61-128.82-3.23-193.22-4.84.04-.33.08-.64.13-.94z"/><path d="m245.62 50.81c4.67 42.76 17.98 82.07 44.92 116.24-19.66-10.44-37.93-22.3-45.75-44.63-3.78-10.8-4.11-22.25-3.61-33.49.53-11.79 2.42-23.52 3.74-35.27.11-.96.46-1.9.7-2.85z"/><path d="m156.27 54.53c5.14 18.32 9.11 36.7 4.67 55.78-2.19 9.4-7 17.31-13.61 24.25-8.68 9.12-26.61 20.27-39.17 23.95 30.42-28.44 46.12-63.01 48.11-103.98z"/><path d="m180.64 184.29c-1.64 11.82-4.47 23.12-9.4 33.89-6.44 14.05-17 22.85-31.96 26.73-12.96 3.37-26.11 4.41-39.57 4.15 34.3-12.47 61.06-34.27 80.93-64.77z"/><path d="m301.17 264.45c-17-2.61-33.34-6.75-47.13-17.7-8-6.35-12.71-14.9-16.21-24.21-3.95-10.5-6.04-21.46-7.12-32.75 18.43 29.68 39.48 56.84 70.46 74.66z"/></g></svg>