<svg enable-background="new 0 0 400 400" viewBox="0 0 400 400" xmlns="http://www.w3.org/2000/svg"><path d="m114.02 251.72c7.32 3.51 14.35 6.57 21.09 10.19 7.93 4.26 10.21 10.19 7.35 17.49-.28.72-.6 1.46-1.05 2.08-9.11 12.58-17.83 25.36-28.43 36.91-8.98 9.79-21.15 14.31-30.95 22.74-1.61-2.55-.88-4.04.48-5.84 13.67-18.03 24.25-37.71 32.28-58.89 2.8-7.37.87-13.49-2.45-19.71-.38-.71-1.74-1.2-2.67-1.25-3.13-.15-6.27-.01-9.4-.07-10.13-.19-23.25-10.33-25.99-20.36 1.98.25 3.86.29 5.62.76 7.96 2.13 15.5-.38 23.12-1.94 5.58-1.15 11.2-2.2 16.71-3.64 3.24-.85 5.9-1.21 7.43 3.22-.26-6.29 4.35-5.94 7.92-6.78 12.51-2.94 25.03-5.86 37.58-8.66 3.26-.73 6.63-.99 9.94-1.47 4.78-.7 6.7-3.54 5.56-8.24-.72-2.93-1.78-5.82-2.11-8.79-.7-6.27-3.78-11.04-8.38-15.08-2.69-2.36-5.2-4.94-7.94-7.24-6.36-5.32-13.83-5.06-20.59-.41-18.1 12.44-37.74 21.72-59.05 27.29-1.28.34-2.64.38-4.23.6-.26-3.25.23-5.32 3.44-7.35 8.85-5.61 17.82-11.29 25.67-18.16 14.9-13.04 29.08-26.9 43.49-40.49 4.8-4.53 9.25-9.43 14.09-13.9 5.17-4.77 6.02-17.41-.36-22.83-1.96-1.66-3.67-3.64-5.72-5.16-3.63-2.67-6.55-2.24-9.9.68-23.34 20.32-49.3 36.3-78.52 46.69-5.22 1.86-10.84 2.62-16.32 3.66-.96.18-2.14-.79-3.21-1.23.57-.91.93-2.13 1.74-2.69 15.96-11.15 31.9-22.33 48.01-33.26 11.54-7.83 20.46-18.34 29.97-28.27 7.03-7.35 14.53-14.28 21.3-21.86 6.04-6.76 9.49-14.8 8.8-24.23-.25-3.44-.04-6.91-.04-10.82 10.34 3.44 19.41 8.21 25.23 17.21 3.85 5.96 3.32 12.6-.2 18.83-1.64 2.91-3.45 5.73-5.41 8.99 5.01 1.51 9.7 3.17 14.51 4.33 22.31 5.41 42.27 16.34 62.34 26.84 13.55 7.09 26.5 15.34 39.51 23.42 2.99 1.86 5.35 4.97 7.47 7.89.81 1.12.81 4.08-.03 4.81-1.05.92-3.63 1.02-5.05.37-3.5-1.59-6.88-3.57-10-5.83-12.17-8.82-25.64-15-39.73-19.94-15.71-5.51-31.55-10.62-47.22-16.24-7.45-2.67-14.53-6.4-21.99-9.07-4.01-1.43-8.45-1.69-12.72-2.36-2.79-.44-4.69 1.1-5.15 3.62-.42 2.29.16 4.46 2.61 5.97 8.19 5.04 16.3 10.22 24.31 15.54 1.54 1.03 2.92 2.73 3.68 4.43 2.06 4.58 3.89 9.28 5.54 14.03.89 2.56 2.42 3.91 4.91 4.88 23.31 9.13 46.68 18.11 69.79 27.72 8.93 3.71 17.35 8.74 25.8 13.53 4.52 2.56 8.13 6.32 10.01 11.39 1.18 3.17.41 4.56-2.92 5.17-3.6.65-6.71-.77-9.27-3.02-4.87-4.27-10.69-6.09-16.71-8.07-15.16-4.99-30.14-10.55-45.12-16.07-13.52-4.98-26.92-10.28-40.45-15.25-1.54-.57-3.7-.43-5.26.19-4.87 1.94-9.6 4.27-14.37 6.45-6.97 3.18-7.12 3.33-10.76 10.91 4.94 3.35 9.92 6.72 14.91 10.09 2.97 2 5.78 4.31 8.94 5.94 7.1 3.64 10.55 9.92 12.39 17.09 2.68 10.47 5.98 12.61 17.15 10.85 18.25-2.88 36.61-5.05 55.13-3.58 9.58.76 19.1 2.21 28.63 3.48 1.38.18 3.12.74 3.88 1.75 1.1 1.46 1.83 3.47 1.94 5.28.04.64-2.19 1.94-3.45 2.04-8.24.65-16.5.95-24.74 1.55-7.11.51-14.22 1.07-21.28 2.02-2.4.33-4.62 1.94-7.65 3.29 2.51 1.42 4.22 2.39 5.93 3.35 18.99 10.72 37.99 21.41 56.94 32.19 2.71 1.54 5.33 3.34 7.72 5.33 1.94 1.62 3.95 3.49 5.08 5.68 1.28 2.49 3.33 5.49.78 8.33-3.59 3.99-8.12 5.06-12.01 2.7-5.15-3.12-10.09-6.57-15.08-9.94-3.34-2.25-6.36-5.11-9.94-6.82-18.6-8.89-34.27-21.89-49.73-35.15-4.53-3.89-8.92-6.14-15.03-5.11-4.27.72-8.71.37-13.05.75-1.08.09-2.55.91-3.04 1.82-3.69 6.87-3.44 14.46-3.54 21.94-.01.8.91 1.74 1.6 2.41 19.12 18.38 38.12 36.89 57.53 54.97 4.67 4.35 10.64 7.34 16.12 10.78 4.49 2.82 7.75 6.32 8.11 12.44-1.9.17-3.88.87-5.52.4-4.78-1.37-9.95-2.4-14.03-5.02-11.48-7.37-22.77-15.1-33.57-23.43-6.14-4.74-11.26-10.83-16.65-16.49-5.15-5.41-10.74-10.12-17.68-13.05-.6-.26-1.24-.44-2.11-.74-1.78 3.3-3.63 6.47-5.23 9.77-3.38 7-7.81 13.22-12.81 19.17-11.15 13.28-21.92 26.89-33.05 40.18-5.15 6.15-11.6 10.49-19.11 13.75-10.32 4.48-20.19 10.01-30.26 15.06-.98.49-2.01 1.09-3.06 1.21-8.33.93-16.67 1.76-25.2 2.2.78-.46 1.53-.97 2.33-1.38 1.9-.96 3.76-2 5.74-2.77 13.04-5.08 23.79-13.31 33.73-23.09 12.69-12.47 26.05-24.25 39.07-36.39 1.36-1.27 2.57-2.83 3.43-4.47 7.83-14.93 16.75-29.33 22.37-45.36 2.34-6.67 3.27-13.42 2.08-20.44-.36-2.12-1.35-3.33-3.3-4.14-6.92-2.88-13.91-2.12-20.7 0-9.38 2.93-18.54 6.55-27.9 9.54-5.41 1.73-11.04 2.76-16.55 4.18-1.34.31-2.57.96-3.89 1.48z" fill="#010104"/><g fill="#fcfbfa"><path d="m385.2 377.6.6-.7c.6.4 1.3.9 1.9 1.5l-.6.7c-.8-.5-1.4-1-1.9-1.5zm.3 7.1c.6-1.4 1.1-2.9 1.5-4.5.3.1.6.3.9.4-.5 1.4-1 2.9-1.5 4.4zm.2-10.1.6-.6c.7.5 1.3 1.1 1.9 1.6l-.7.7c-.6-.6-1.2-1.2-1.8-1.7zm8.4-.8h.8v.9h1.8v.7h-1.8v1.8h-.8v-.3h-1.2v.9h3.3v2.6h-.8v-.4h-2.5c0 .3 0 .6-.1.8h3.4v.7h-3.5c0 .3-.1.6-.1.8h4v.7h-3.5c.7.9 1.9 1.3 3.6 1.5-.2.2-.4.5-.6.9-1.9-.3-3.2-1.1-3.8-2.3-.5 1.1-1.8 2-3.9 2.4-.2-.3-.4-.5-.6-.8 1.9-.4 3.1-.9 3.6-1.7h-3.2v-.7h3.5c.1-.2.1-.5.2-.8h-3.3v-.7h3.4c0-.2 0-.5 0-.8h-2.4v.3h-.8v-2.6h3.3v-.9h-1.2v.3h-.8v-1.8h-1.8v-.7h1.8v-.9h.8v.9h3.2zm-4.4 5.5h2.4c0-.3 0-.6 0-.9h-2.4zm1.2-3.1h3.2v-.8h-3.2zm4.4 2.2h-2.4v.9h2.5v-.9z"/><path d="m389.2 385.8h.9v1.5h1.9v-1.5h.9v1.5h2.7v6h1.1v.9h-11.3v-.9h1.1v-6h2.7zm.2 8.7.5.8c-1.2.6-2.5 1.3-4 1.9-.2-.3-.3-.6-.6-.8 1.6-.6 3-1.3 4.1-1.9zm-2-4.3h1.9v-2.1h-1.9zm0 3.1h1.9v-2.2h-1.9zm2.7-3.1h1.9v-2.1h-1.9zm0 3.1h1.9v-2.2h-1.9zm2.4 1.3c1.4.6 2.7 1.2 4.1 1.8l-.5.9c-1.5-.7-2.8-1.4-4.1-1.9zm2.2-6.5h-1.9v2.1h1.9zm-1.9 5.2h1.9v-2.2h-1.9z"/></g></svg>