<svg enable-background="new 0 0 400 400" viewBox="0 0 400 400" xmlns="http://www.w3.org/2000/svg">
<path d="m160.14 351.25c-6.82-8.65-11.18-17.53-10.22-28.29.13-1.52 1.03-3.19 2.06-4.36 10.7-12.17 15.66-26.39 15.85-42.5.65-55.62 1.71-111.23 1.93-166.85.07-19.26-3.7-38.03-14.61-54.61-.27-.41-.43-.9-.65-1.34-3.87-7.75-2.56-10.09 5.84-10.64 16.32-1.08 27.69 7.58 37.52 19.14.77.91.98 2.87.61 4.08-9.44 30.76-7.82 62.49-8.53 94.05-.71 31.44-1.82 62.87-2.99 94.3-.56 15.09-1.69 30.16-2.62 46.43 3.91-1.66 7.22-2.91 10.39-4.44 14.39-6.92 28.66-14.08 43.14-20.8 4.49-2.08 9.49-3.06 14.56-3.77-28.24 29.57-65.95 47.52-92.28 79.6z" fill="currentColor"/>
</svg>