<svg enable-background="new 0 0 400 400" viewBox="0 0 400 400" xmlns="http://www.w3.org/2000/svg">
<path d="m146.74 112.92c8.25-2.34 16.43-5.04 24.79-6.93 9.16-2.07 18.44-3.72 27.76-4.88 3.07-.38 6.65.79 9.56 2.17 5.6 2.67 5.92 7.92.28 10.43-7.68 3.43-15.78 6.21-23.95 8.19-13.58 3.3-27.39 3.52-40.97-.37-3.27-.94-4.11.94-5.4 2.84-12.51 18.49-25.39 36.71-41.53 52.31-7.68 7.42-15.71 14.45-26.63 16.76-1.68.35-3.43.4-6.08.69 6.35-7.24 12.15-13.59 17.65-20.19 16.37-19.63 30.83-40.5 40.28-64.45 4.38-11.11 7.05-22.48 4.44-34.61-1.13-5.24.07-6.33 5.38-5.94 9.85.72 18.67 4.37 26.89 9.73 3.06 2 2.54 4.61 1.29 6.98-4.18 7.92-8.63 15.69-12.98 23.52-.39.7-.87 1.36-1.3 2.04.16.59.34 1.15.52 1.71z" fill="currentColor"/>
<path d="m195.11 168.95c7.57-10.55 15.5-20.43 22.11-31.12 8.46-13.69 16.01-27.94 23.64-42.12 6.04-11.22 5.93-23.28 3.79-35.48-1.03-5.89-.4-6.56 5.43-5.18 11.47 2.73 21.33 8.22 29.24 17.83-7.05 10.88-14.14 21.83-21.23 32.77.2.38.4.76.6 1.15 9.54-2.48 19.13-4.8 28.61-7.5 10.69-3.05 21.16-7.02 31.99-9.37 3.98-.87 9.27.78 12.98 2.96 5.86 3.44 5.45 10.27-.98 13.45-6.61 3.27-13.86 5.54-21.08 7.21-16.56 3.84-33.27 6.63-50.29 2.6-8.21-1.95-8.28-1.91-13.34 5.25-9.52 13.48-19.29 26.76-31.82 37.68-5.63 4.88-11.65 9.13-19.65 9.87z" fill="currentColor"/>
<path d="m236.45 152.36c1.95-.61 3.41-1.4 4.9-1.48 11.79-.66 23.54-.47 34.99 2.93 9.51 2.82 15.59 14.45 12.65 23.8-1.35 4.28-3.94 6.7-8.41 5.68-3.82-.87-8.02-1.76-11.07-3.98-10.57-7.69-20.73-15.96-31.01-24.05-.72-.57-1.1-1.54-2.05-2.9z" fill="currentColor"/>
<path d="m142.57 153.91c4.67 2.03 12.27 4.84 19.4 8.54 10.33 5.37 12.76 14.96 7.08 25.36-3.04 5.56-5.92 6.73-11.26 3.13-4.63-3.12-8.96-6.95-12.63-11.16-4.44-5.09-8.5-10.65-11.86-16.5-3.41-5.92-.78-9.51 9.27-9.37z" fill="currentColor"/>
</svg>