<svg enable-background="new 0 0 400 400" viewBox="0 0 400 400" xmlns="http://www.w3.org/2000/svg">
<path d="m226.53 267.6c15.06-4.09 29.6-8.04 44.16-11.97 1.27-.34 2.61-.73 3.88-.64.83.05 2.04.78 2.28 1.47.23.69-.31 1.98-.93 2.55-.94.88-2.2 1.49-3.41 2.01-23.15 10.05-46.31 20.07-69.47 30.1-16.77 7.26-33.6 14.38-50.27 21.86-6.48 2.91-12.27 3.45-18.14-1.25-4.66-3.73-9.76-6.93-14.42-10.67-1.23-.98-1.57-3.07-2.32-4.66 1.63-.52 3.3-1.61 4.87-1.49 16.59 1.29 32.24-3.07 48.43-7.58-.82-11.83-1.47-23.56-2.51-35.27-1.06-12.07-2.15-24.15-3.91-36.13-1-6.84-4.33-12.8-10.26-17.11-1.28-.93-2.26-4.13-1.61-5.33.72-1.34 3.77-2.61 5.27-2.15 8.41 2.57 16.73 5.46 24.87 8.77 1.58.64 3.18 3.62 3.12 5.46-.13 4.08-1.63 8.1-2.01 12.2-.8 8.59-1.29 17.22-1.82 25.83-.77 12.44-1.47 24.89-2.19 37.33-.06.96-.01 1.92-.01 3.33 11.16-3.61 21.92-7.01 32.58-10.69 1.06-.36 2.16-2.44 2.17-3.73.32-30.47.6-60.93.6-91.4 0-7.9-.93-15.79-1.45-23.91-4.06.35-7.34.58-10.61.93-2.99.32-5.43.93-6.52 4.64-.6 2.02-3.37 3.4-5.17 5.06-1.26-2.15-3.2-4.16-3.67-6.46-3.16-15.26-5.81-30.62-9.05-45.86-1.99-9.37-3.93-18.86-11.26-26.11-2.48-2.45-.93-5.73 2.64-5.95 3.46-.21 7.55-.87 10.33.6 8.13 4.3 16.02 2.39 24.02.54 8.23-1.91 16.52-3.69 24.57-6.23 3.44-1.08 6.57-3.65 9.39-6.07 2.98-2.55 6.12-3.41 9.67-2.29 10.92 3.44 20.83 8.8 29.45 16.37 3.31 2.91 2.95 5.13-1.42 9.03-7.22 6.44-12.47 14.22-16.16 23.1-.89 2.14-1.44 4.42-2.28 6.58-2.2 5.64-2.83 10.53 1.96 15.84 5.16 5.72 3.54 8.89-4.15 10-10.81 1.56-21.67 2.81-33.73 4.34 3.22 2.42 5.49 4.15 7.79 5.84 4.81 3.56 6.01 7.98 4.93 13.99-1.65 9.19-2.25 18.57-3.3 27.83 8.39-2.87 15.58-5.79 23.02-7.74 5.88-1.54 11.14.97 15.33 5.21 2.61 2.64 1.99 6.18-1.54 7.14-9.73 2.65-19.57 4.97-29.45 6.97-2.36.48-5.08-.78-8.38-1.37-1.29 19.07-2.59 38.03-3.91 57.14zm-28.35-120.64c11.64-2.62 23.6-5.25 35.5-8.11.95-.23 1.99-1.97 2.2-3.15 2.25-13.07 4.27-26.18 6.51-39.25 1.64-9.56-2.13-12.82-11.45-11.17-13.69 2.43-26.03 10.88-40.33 8.61 2.53 17.69 5.01 35.06 7.57 53.07z" fill="currentColor"/></svg>