<svg enable-background="new 0 0 400 400" viewBox="0 0 400 400" xmlns="http://www.w3.org/2000/svg">
<g fill="currentColor"><path d="m178 132.32c0 22.36.25 43.5-.06 64.63-.43 29.62-.88 59.25-2.08 88.84-.87 21.55-1.56 43.2-6.76 64.32-.71 2.88-1.66 5.77-3.02 8.39-1.97 3.79-4.27 3.86-6.66.23-5.55-8.46-8.66-17.85-10.6-27.74-1.52-7.77.47-15.02 1.82-22.56 2.66-14.84 5.22-29.83 6.06-44.85 1.98-35.2 3.2-70.44 4.18-105.68.55-19.61.47-39.26-.22-58.87-.47-13.34-3.62-26.31-10.18-38.22-1.19-2.16-2.08-4.54-2.81-6.91-1.43-4.57.52-6.96 5.18-5.8 4.64 1.16 9.35 2.64 13.52 4.91 5.5 3 10.79 6.57 15.65 10.53 4.6 3.74 5.19 8.77 3.02 14.47-5.11 13.42-5.33 27.64-5.84 41.74-.04 1.08 1.99 2.6 3.37 3.31 11.65 5.99 23.41 11.75 35.03 17.8 2.46 1.28 4.48 3.43 6.68 5.2 11.31 9.07 10.19 20.1 5.75 32.11-1.68 4.54-4.69 5.16-7.96 1.54-5.78-6.41-11.32-13.08-16.44-20.03-7.06-9.63-18.67-21.8-27.63-27.36z"/><path d="m251.62 121.59c3.42.5 5.1.48 6.6 1 16.85 5.83 32.99 12.91 47.17 24.12 9.64 7.62 11.54 25.86 7.48 34.87-2.89 6.42-7.45 7.25-12.9 1.87-5.55-5.47-10.77-11.34-15.7-17.38-9.86-12.1-19.48-24.4-29.06-36.74-1.42-1.82-2.02-4.27-3.59-7.74z"/><path d="m116.03 153.73c4.77 5.63 6.26 11.68 6.93 17.53 2.74 23.97-5.61 45.06-18.42 64.63-1.83 2.79-5.98 4.06-9.05 6.03-1.81-3.21-4.42-6.22-5.27-9.66-2.4-9.64-1.33-18.71 3.98-27.72 8.27-14.01 14.82-28.93 18.89-44.82.45-1.8 1.64-3.41 2.94-5.99z"/>
</g>
</svg>