<svg enable-background="new 0 0 400 400" viewBox="0 0 400 400" fill="none" xmlns="http://www.w3.org/2000/svg"><path d="m41.89 201.85c3.22-.38 5.25-.77 7.29-.85 18.57-.69 37.17-1 55.72-2.08 14.09-.82 28.16-2.32 42.17-4.03 20.76-2.53 41.51-5.24 62.18-8.37 30.19-4.58 60.23-10.26 90.5-14.22 20.6-2.7 40.53.71 57.67 13.88 3.51 2.69 8.18 5.35 6.36 10.71-1.73 5.12-6.88 5.31-11.39 5.23-13.47-.24-26.93-1.08-40.39-1.02-24.47.11-48.97-.06-73.39 1.25-48.98 2.63-97.4 9.57-145.34 20.14-18.67 4.12-34.55-2.52-47.86-15.78-1.02-1-1.72-2.34-3.52-4.86z" fill="currentColor"/></svg>