<svg enable-background="new 0 0 400 400" viewBox="0 0 400 400" xmlns="http://www.w3.org/2000/svg">
<path d="m191.59 168.4c0-18.33.46-36.68-.15-54.99-.45-13.41-1.76-26.85-3.75-40.11-.91-6.05-4.57-11.64-6.64-17.56-.87-2.49-2.07-6.14-.95-7.7 1.19-1.65 5.04-2.18 7.59-1.91 11.53 1.23 21.62 6.39 30.96 12.91 5.26 3.68 4.97 6.6 2.96 12.51-2.76 8.1-5.66 16.5-6.24 24.93-1.71 25.21-2.84 50.48-3.25 75.74-.73 45.8-.3 91.62-1.41 137.41-.33 13.44-4.2 26.8-6.58 40.17-.31 1.74-1.27 3.44-2.21 4.98-1.78 2.92-4.39 3.41-6.53.75-9.2-11.42-16.09-23.87-13.79-39.22 1.84-12.29 4.77-24.41 6.56-36.7 1.41-9.68 2.43-19.5 2.56-29.27.34-27.3.12-54.62.12-81.93.24-.01.5-.01.75-.01z" fill="currentColor"/></svg>