<svg enable-background="new 0 0 400 400" viewBox="0 0 400 400" xmlns="http://www.w3.org/2000/svg">
<path d="m243.11 202.17c-6.98 6.01-13.56 11.28-19.69 17.04-14.79 13.89-29.37 28.01-44.03 42.05-.48.46-.98.96-1.26 1.54-4.91 10-13.96 10.54-22.84 5.44-5.28-3.04-10.28-6.74-14.86-10.76-3.29-2.88-2.4-6.07 1.79-6.83 21.41-3.88 38.13-16.77 55.37-28.57 14.14-9.68 27.89-19.92 41.93-29.75 3.03-2.13 4.24-4.45 4.16-8.24-.51-23.13-.14-46.3-1.29-69.4-.86-17.36-3.34-34.66-5.58-51.92-.58-4.5-3.13-8.71-4.4-13.16-.55-1.95-.94-4.77.05-6.09.83-1.1 4.05-1.31 5.77-.69 8.09 2.9 16.24 5.77 23.95 9.52 6.62 3.22 7.51 8.42 6.09 15.57-2.25 11.35-4.71 22.86-4.98 34.35-.92 39.29-.78 78.6-1.34 117.9-.38 26.61-.86 53.24-2.11 79.82-.71 14.89-2.94 29.73-4.88 44.54-.35 2.64-2.62 5.02-4.01 7.52-2.21-1.81-4.93-3.26-6.53-5.5-5.53-7.77-10.55-16.08-10.77-25.87-.15-6.5.88-13.16 2.33-19.53 5.36-23.66 7.01-47.63 7.06-71.79.02-7.64.38-15.29.54-22.93.01-1.11-.24-2.22-.47-4.26z" fill="currentColor"/>
<path d="m207.07 157.65c-.19 3.39-.13 9.01-5.05 11.21-5.27 2.35-9.1-2.2-12.31-5.65-9.18-9.85-16.02-21.26-20.03-34.12-.95-3.04-1.22-8.4.45-9.63 2.24-1.65 6.97-1.2 10.12-.13 16.95 5.79 26.77 19.6 26.82 38.32z" fill="currentColor"/></svg>