<svg enable-background="new 0 0 400 400" viewBox="0 0 400 400" xmlns="http://www.w3.org/2000/svg">
<path d="m208.09 230c2.54-4.49 4.76-9.2 7.66-13.44 10.74-15.67 20.28-32.05 26.52-49.99 3.67-10.56 5.96-21.67 8.07-32.69.81-4.22-.32-8.91-1.07-13.31-1.37-8 1.9-11.24 9.71-8.67 11.75 3.87 22.65 9.53 32.12 17.55 5.62 4.76 6.01 9.74.54 14.39-13.64 11.59-23.25 26.36-33.53 40.65-11.63 16.17-25.29 30.4-41.22 42.39-2.2 1.66-4.65 2.98-6.98 4.46-.61-.44-1.21-.89-1.82-1.34z" fill="currentColor"/>
<path d="m164.09 203.68c-.81 3.09-1.6 7.89-3.33 12.32-2.47 6.29-6.67 7.02-11.48 2.1-3.13-3.19-5.71-6.92-8.51-10.43-13.19-16.53-21.48-35.91-31.47-54.3-.72-1.32-.59-3.1-.86-4.66 1.71-.04 3.66-.66 5.08-.04 16.21 7.03 30.83 16.38 42.1 30.25 5.4 6.66 7.8 14.59 8.47 24.76z" fill="currentColor"/></svg>