<svg enable-background="new 0 0 400 400" viewBox="0 0 400 400" xmlns="http://www.w3.org/2000/svg">
<path d="m126.74 350.46c4.92-3.2 9.67-6.71 14.8-9.54 27.47-15.21 50.35-35.87 70.35-59.76 16.5-19.72 25.93-42.93 29.86-68.14 5.11-32.75 7.22-65.78 6.07-98.92-.59-17.1-2.09-34.15-9.78-49.98-.97-1.99-1.38-5.56-.26-6.88 1.07-1.26 4.71-1.27 6.82-.58 9.72 3.18 19.67 6.03 28.81 10.48 8.69 4.22 8.79 9.4 6 18.77-3.05 10.25-5.05 20.97-6.08 31.63-2.24 23.31-2.97 46.77-5.41 70.06-3.38 32.25-9.95 63.66-28.57 91.27-25.67 38.07-61.46 61.31-105.48 72.65-2.04.53-4.23.51-6.34.74-.26-.6-.52-1.2-.79-1.8z" fill="currentColor"/></svg>