<svg enable-background="new 0 0 400 400" viewBox="0 0 400 400" xmlns="http://www.w3.org/2000/svg">
<path d="m274.08 277.12c-5.76-10.92-11.1-20.67-16.02-30.63-1.43-2.89-1.68-6.37-2.47-9.58 3.25.68 6.84.68 9.68 2.15 19.14 9.91 36.06 22.74 48.79 40.32 9.81 13.54 13.74 28.63 9.07 45.24-.49 1.74-1.21 3.46-2.07 5.06-2.83 5.21-6.55 6.21-10.87 2.26-3.65-3.33-6.98-7.19-9.7-11.31-6.59-9.99-12.88-20.2-18.98-30.49-1.55-2.61-3.17-3.45-5.95-2.94-44.92 8.19-89.69 17.03-132.96 31.98-8.43 2.91-16.35 7.32-24.5 11.06-1.21.55-2.34 1.28-3.55 1.82-7.76 3.46-12.37 1.36-14.82-6.7-4.25-13.96-.46-23.49 11.75-31.55 18.33-12.1 33.99-27.27 48.31-43.82 25.06-28.97 49.09-58.79 70.52-90.56 7.85-11.64 14.39-24.26 20.44-36.95 2.52-5.28 2.09-11.94 3.26-17.92.45-2.28 1.1-5.56 2.66-6.31 1.64-.79 5.04.24 6.69 1.64 7.45 6.35 14.98 12.72 21.66 19.85 6.37 6.8 4.97 11.12-1.53 17.82-15.85 16.36-31.43 33-46.65 49.95-27.57 30.71-54.85 61.7-82.09 92.71-2.11 2.4-2.94 5.93-4.37 8.93 3.31.48 6.69 1.63 9.93 1.32 21-2.01 41.99-4.16 62.94-6.61 16.61-1.96 33.18-4.39 50.83-6.74z" fill="currentColor"/>
<path d="m84.42 205.67c3.29-3.11 6.44-6.39 9.89-9.31 32.63-27.64 58.33-60.96 79.9-97.62 5.1-8.67 8.43-17.93 7.76-28.42-.44-6.9 3.11-9.11 9.51-6.49 8.4 3.44 15.91 8.32 21.66 15.48 3.57 4.44 3.39 8.06-.03 12.07-12.95 15.18-25.83 30.42-38.81 45.58-19.78 23.11-41.34 44.3-67.58 60.11-6.69 4.03-14 7.02-21.03 10.49-.42-.63-.84-1.26-1.27-1.89z" fill="currentColor"/></svg>