<svg enable-background="new 0 0 400 400" viewBox="0 0 400 400" xmlns="http://www.w3.org/2000/svg">
<path d="m163.4 102.88c-18.84 5.33-36.54 9.8-53.86 15.43-13.42 4.36-24.1.65-33.77-8.35-1.23-1.14-1.83-2.96-2.72-4.46 1.6-.61 3.18-1.7 4.8-1.77 26.9-1.07 53.12-6.19 78.78-13.93 11.37-3.43 22.27-8.58 33.15-13.45 5.64-2.53 11.5-4.19 16.73-1.18 6.64 3.82 12.97 8.59 18.41 13.98 5.11 5.06 3.64 8.27-3.13 10.8-17.97 6.71-35.41 14.36-49.78 27.64-19.79 18.29-36.71 39-52.08 61.04-10.6 15.2-19.79 31.14-25.25 49.01-2.96 9.7-4.03 19.48-1.36 29.41 4.37 16.31 16.71 23.54 31.7 27.78 15.6 4.41 31.54 6.6 47.7 6.97 25.81.59 51.59 0 77.16-3.92 14.55-2.23 28.47-6.69 41.59-13.36 7.32-3.72 12.18-9.86 14.43-17.69 3.85-13.39 7.33-26.89 11.01-40.33.73-2.65 1.64-5.25 2.47-7.88.51.02 1.02.03 1.53.05.36 3.62.84 7.22 1.06 10.85.73 11.77.83 23.62 2.26 35.3.68 5.56 3.29 11.1 5.97 16.14 4.29 8.05 3.72 14.85-4.25 19.23-9.26 5.09-19.13 9.25-29.07 12.89-23.75 8.7-48.47 12.44-73.71 13.35-30.16 1.08-60.2-.03-89.89-5.51-10.04-1.85-20-5.01-29.48-8.84-19.7-7.96-29.55-23.75-32.95-44.19-3.54-21.3 3.52-40.4 12.37-58.99 9.87-20.74 24.01-38.71 38.42-56.39 13.35-16.35 27.16-32.31 41.76-49.63z" fill="currentColor"/></svg>