<svg enable-background="new 0 0 400 400" viewBox="0 0 400 400" xmlns="http://www.w3.org/2000/svg">
<path d="m299.29 226.16c.91 7.73 1.91 15.45 2.71 23.19 1.63 15.79 4.31 31.21 12.65 45.19 4.36 7.3 2.82 14.02-5.27 17.96-9.15 4.46-18.95 8.15-28.87 10.4-32.12 7.27-64.81 9.46-97.67 8-18.33-.81-36.33-3.67-52.77-12.88-18.11-10.15-28.07-25.94-28.93-46.08-1.14-26.9-.4-53.88-.25-80.83.14-25.14.71-50.29-2.99-75.27-1.81-12.23-4.4-24.19-11.68-34.63-1.15-1.65-1.03-4.19-1.49-6.32 2.05-.25 4.15-.91 6.15-.67 11.53 1.36 22.38 4.85 32.26 11.03 8.34 5.22 8.7 10.36 5.68 17.81-4.05 9.98-6.22 21-7.51 31.78-4.07 34.13-3.67 68.47-3.08 102.76.17 9.88 2.04 19.79 3.73 29.58 3.59 20.84 16.9 31.68 37.03 35.8 18.48 3.79 37.03 3.84 55.62 2.02 13.03-1.27 26.03-3.05 38.98-5.07 21.24-3.31 33.89-15.52 37.26-37.02 1.57-10 3.33-19.97 5.08-29.95.41-2.35 1.11-4.65 1.68-6.98z" fill="currentColor"/></svg>