<svg enable-background="new 0 0 400 400" viewBox="0 0 400 400" xmlns="http://www.w3.org/2000/svg">
<path d="m252.14 141.29c.92-2.02 1.72-4.11 2.78-6.05 4.96-9.04 10.25-17.9 14.94-27.07 4.73-9.24 1.64-14.54-8.63-13.84-16.9 1.16-33.79 2.81-50.57 5.11-22.85 3.13-45.62 6.95-68.38 10.69-9 1.48-18.11 2.84-26.8 5.49-10.5 3.2-19.34.95-27.53-5.55-2.99-2.37-5.8-5.01-8.37-7.83-1.13-1.24-2.47-3.9-1.93-4.69.92-1.34 3.23-1.78 5.01-2.47.58-.23 1.33-.12 1.98-.05 24.69 2.64 49.16-.31 73.63-2.94 17.84-1.92 35.68-3.85 53.46-6.2 21.19-2.81 42.46-5.05 63.03-11.59 4.38-1.39 9.99-.33 14.67.95 13.66 3.75 24.02 12.62 32.92 23.27 3.38 4.04 2.59 8.32-2.3 9.39-22.47 4.93-40.37 18.3-58.8 30.8-2.37 1.61-5.15 2.63-7.74 3.92-.45-.44-.91-.89-1.37-1.34z" fill="currentColor"/></svg>