<svg enable-background="new 0 0 400 400" viewBox="0 0 400 400" xmlns="http://www.w3.org/2000/svg">
<path d="m167.41 316.56c5.79 1.25 11.56 2.6 17.37 3.72 3.74.72 7.54 1.12 11.32 1.65 5.08.71 8.72-1.67 10.12-6.22 1.99-6.46 4.15-13.13 4.44-19.79 1.14-25.59 1.88-51.22 2.18-76.84.29-25.32.42-50.67-.43-75.97-.71-21.39-2.2-42.81-4.81-64.04-1.08-8.77-6.08-17.04-9.04-25.62-1.02-2.96-1.26-6.18-1.85-9.28 3.15-.09 6.7-1.17 9.38-.09 9.34 3.76 18.73 7.66 27.42 12.68 6.54 3.78 5.71 6.87 3.05 13.77-3.05 7.94-5.93 16.53-6.12 24.9-.88 39.45-.96 78.92-1.01 118.38-.02 20.31.63 40.61.97 60.92.24 13.97.97 27.96.58 41.91-.42 14.87-4.89 28.76-13.03 41.34-.54.84-1.08 1.68-1.7 2.46-6.45 8.25-10.02 7.75-14.01-1.94-5.32-12.92-14.98-22.21-25.63-30.71-3.65-2.91-6.96-6.23-10.43-9.37.42-.6.82-1.23 1.23-1.86z" fill="currentColor"/></svg>