<svg enable-background="new 0 0 400 400" viewBox="0 0 400 400" xmlns="http://www.w3.org/2000/svg">
<path d="m65.74 278c26.65-2.31 53.32-4.5 79.95-6.98 19.85-1.85 39.72-3.72 59.49-6.24 33.11-4.22 66.16-8.93 99.22-13.52 13.61-1.89 27.13-3.13 40.21 2.62 8.87 3.9 15.2 10.7 20.35 18.6 2.97 4.55 1.8 7.56-3.58 7.77-9.76.39-19.66.59-29.31-.64-21.08-2.68-42.14-2.06-63.21-.96-14.6.76-29.17 2.1-43.73 3.41-18.21 1.64-36.42 3.26-54.58 5.37-19.29 2.25-38.53 4.95-57.76 7.7-6.22.89-12.33 2.57-18.49 3.89-14.75 3.18-27.95-1.15-40.45-8.54-3.14-1.85-6.15-4.01-8.9-6.39-1.35-1.17-1.99-3.18-2.95-4.8 1.89-.79 3.75-2.16 5.67-2.25 5.98-.3 11.99-.11 17.99-.11.02.36.05.71.08 1.07z" fill="currentColor"/><path d="m107.41 121.32c1.85-.43 3.7-1.16 5.56-1.24 16.91-.74 33.94-.29 50.7-2.27 26.53-3.13 52.87-7.86 79.29-11.93 8.48-1.31 17.03-4.02 25.42-3.59 6.35.32 12.9 3.94 18.63 7.33 5.64 3.34 4.86 9.1-1.52 11.06-7.21 2.22-14.82 3.61-22.36 4.27-37.24 3.26-74.46 6.45-110.68 16.54-13.29 3.7-24.9-.57-35.33-8.69-3.78-2.95-7.07-6.54-10.58-9.84.29-.55.58-1.09.87-1.64z" fill="currentColor"/></svg>