<svg enable-background="new 0 0 400 400" viewBox="0 0 400 400" xmlns="http://www.w3.org/2000/svg">
<path d="m68.27 137.14c23.83-2.03 47.68-3.87 71.48-6.16 22.15-2.13 44.27-4.57 66.37-7.19 25.88-3.07 51.73-6.43 77.59-9.76 11.86-1.53 23.64-3.99 35.53-4.78 17.24-1.13 31.79 5.71 43.71 17.98 3.59 3.7 2.66 7.26-2.43 7.75-9.7.93-19.52.76-29.29.81-18.79.09-37.57-.12-56.36.06-9.97.1-19.93.75-29.9 1.14-48.85 1.9-97.43 6.14-145.31 16.58-7.61 1.66-15.29 3.01-22.95 4.39-6.67 1.2-12.96.16-18.47-3.94-4.52-3.37-9.04-6.78-13.21-10.56-1.54-1.4-2.09-3.89-3.09-5.88 2.08-.67 4.15-1.83 6.25-1.91 6.65-.25 13.31-.09 19.97-.09.04.53.08 1.05.11 1.56z" fill="currentColor"/><path d="m228.4 75.91c0-.63.02-.3 0 .03-.53 6.11-1.54 12.44-7.61 15.24-5.9 2.72-10.73-1.61-14.45-5.36-8.89-8.95-17.27-18.41-25.69-27.82-3.54-3.96-6.82-8.17-9.91-12.49-2.81-3.94-1.65-6.8 2.97-6.41 17.42 1.48 34.22 5.23 47.4 17.85 4.93 4.74 7.46 10.94 7.29 18.96z" fill="currentColor"/></svg>