<svg enable-background="new 0 0 400 400" viewBox="0 0 400 400" xmlns="http://www.w3.org/2000/svg">
<path d="m371.14 312.53c-3 .98-5.94 2.42-9.02 2.88-21.08 3.13-42.23 5.36-63.5 1.78-11.35-1.91-20.38-7.58-27.24-16.92-31.8-43.33-63.67-86.6-95.51-129.9-.29-.4-.49-.87-1.01-1.81-7.38 12.08-14.24 23.59-21.38 34.92-17.76 28.2-36.2 55.93-60.5 79.1-17.53 16.72-37.31 29.93-60.8 36.93-.63.19-1.28.36-1.93.45-.3.04-.63-.12-1.83-.39 1.3-1.68 2.19-3.33 3.52-4.45 5.24-4.36 10.69-8.49 15.95-12.82 39.7-32.71 69.91-72.97 92.81-118.7 10.85-21.66 20.41-44.01 29.58-66.45 5.86-14.32 8.08-29.41 3.01-44.86-1.9-5.78 1.52-9.36 6.63-6.85 10.38 5.1 20.53 10.79 30.22 17.1 5.06 3.29 5.54 8.02 2.09 12.11-10.62 12.57-16.34 27.7-22.89 42.41-3.18 7.13-6.33 14.27-9.18 21.54-.58 1.48-.4 4.08.56 5.22 31.83 37.98 65.81 73.85 104.83 104.58 21.16 16.67 45.73 26.88 71.02 35.5 5.05 1.72 9.85 4.17 14.76 6.28-.05.79-.12 1.57-.19 2.35z" fill="currentColor"/></svg>