<svg enable-background="new 0 0 400 400" viewBox="0 0 400 400" xmlns="http://www.w3.org/2000/svg">
<path d="m214.81 162.81c-24.82 25.93-48.48 52.15-81.14 67.3-.46-.48-.92-.96-1.37-1.44 3.54-3.14 7.28-6.09 10.6-9.44 31.49-31.71 58.86-66.51 79.03-106.6 4.7-9.35 9.36-18.74 13.49-28.34 3.69-8.58 4.49-17.56 2.04-26.81-.61-2.3-.55-5.99.84-7.28 1.35-1.25 5-.86 7.29-.12 9.56 3.12 17.49 8.81 23.79 16.65 5.19 6.45 4.29 9.56-.85 16.05-7.21 9.1-13.75 18.77-20.03 28.55-8.69 13.55-16.87 27.44-25.33 41.28 2.11 2.42 3.99 4.51 5.8 6.67 6.64 7.94 8.9 16.67 7.76 27.28-1.54 14.35-1.37 28.9-1.62 43.37-.24 14.49.25 29-.19 43.48-.69 22.43-1.68 44.86-3.02 67.26-.33 5.53-2.04 11.11-3.92 16.38-1.94 5.46-5.88 5.9-9.14 1.16-6.1-8.86-10.31-18.7-11.69-29.35-.54-4.17 1.12-8.69 2.07-12.98 2.11-9.53 5.27-18.91 6.45-28.54 3.83-31.42 4.96-63.01 4.09-94.65-.28-9.87-1.25-19.76-4.95-29.88z" fill="currentColor"/></svg>