<svg enable-background="new 0 0 400 400" viewBox="0 0 400 400" xmlns="http://www.w3.org/2000/svg">
<path d="m363.96 303.83c-3.76.92-7.47 2.22-11.28 2.69-20.69 2.56-41.45 3.78-62.13.36-12.18-2.02-22.24-8.33-28.63-19.07-18.03-30.29-35.95-60.66-53.5-91.24-9.18-15.98-17.49-32.46-26.66-49.58-1.99 4.58-3.73 8.53-5.43 12.5-11.56 26.92-23.19 53.9-41.66 76.96-23.65 29.53-50.93 54.89-86.29 70.15-3.39 1.46-6.92 2.58-10.38 3.86-.28-.49-.55-.98-.83-1.48 3.27-2.7 6.46-5.51 9.81-8.09 34.65-26.68 63.95-58.3 86.79-95.61 14.36-23.47 23.09-49.3 28.88-76.09 2.17-10.06-1.05-18.63-10.19-23.98-4.95-2.9-10.44-4.9-15.73-7.2-3.95-1.71-8.09-3.03-11.9-4.99-1.34-.69-2.88-2.92-2.66-4.16.24-1.34 2.28-3.07 3.77-3.34 3.39-.6 6.95-.78 10.39-.48 19.14 1.67 35.05 9.48 45.27 26.2 4.09 6.7 6.15 14.6 9.53 21.78 21.06 44.8 47.19 86.01 84.16 119.69 18.91 17.23 41.38 28.19 64.53 38.1 5.8 2.49 11.8 4.51 17.61 6.99 2.36 1 4.45 2.63 6.66 3.98-.05.67-.09 1.36-.13 2.05z" fill="currentColor"/>
</svg>