<svg enable-background="new 0 0 400 400" viewBox="0 0 400 400" xmlns="http://www.w3.org/2000/svg">
  <g fill="#010106">
    <path d="m235.61 268.03c1.61 0 3.34-.39 4.81.06 21.17 6.44 42.12 13.31 58.96 28.71 12.76 11.68 18.21 25.84 14.81 42.96-1.3 6.55-5.03 8.27-10.36 4.36-5.86-4.3-11.35-9.24-16.37-14.51-15.48-16.24-30.74-32.68-45.87-49.24-2.9-3.18-4.81-7.27-7.17-10.93.39-.47.79-.94 1.19-1.41z"/>
    <path d="m89.41 354.85c3.73-3.66 7.34-7.44 11.2-10.94 16.95-15.38 32.31-32.19 45.56-50.85 5.31-7.48 9.98-15.31 9.86-25.09-.05-3.67 3.37-5.55 7.95-3.58 7.26 3.13 14.12 7.19 21.14 10.89.58.3 1.04.83 1.55 1.26 7.01 5.77 6.61 7.12-.65 11.96-6.03 4.02-11.59 8.89-16.82 13.95-19.67 19.05-39.94 37.24-64.97 49.16-4.38 2.09-9.04 3.6-13.56 5.38-.41-.72-.83-1.43-1.26-2.14z"/>
  </g>
  <path d="m5.17 384 .55-.58c.85.61 1.65 1.24 2.4 1.87l-.59.64c-.83-.73-1.62-1.38-2.36-1.93m1.22 9.53-.82-.34c.71-1.76 1.37-3.64 1.98-5.63.24.13.5.25.76.36-.6 1.67-1.24 3.54-1.92 5.61m-.5-13.5.57-.54c.56.44 1.31 1.06 2.26 1.87l-.64.64c-.68-.66-1.41-1.32-2.19-1.97m3.25.46h2.24v-1.36h.77v1.36h4.57v-1.36h.76v1.36h2.28v.69h-2.28v1.84h-2.64v1.26h4.18v2.64h-4.21c0 .45-.02.86-.05 1.21h4.32v.69h-4.38c-.04.34-.1.75-.19 1.22h5.15v.69h-4.82c.87 1.19 2.51 1.92 4.93 2.19-.17.32-.3.57-.37.76-2.77-.49-4.52-1.41-5.26-2.76-.56 1.26-2.3 2.23-5.24 2.9-.12-.24-.26-.48-.43-.72 2.73-.55 4.38-1.34 4.96-2.38h-4.38v-.69h4.65c.1-.38.17-.79.21-1.22h-4.32v-.69h4.4c.03-.34.05-.75.05-1.21h-4.2v-2.64h4.23v-1.26h-2.69v-1.84h-2.24zm1.46 4.46v1.29h3.45c.01-.4.02-.57.01-.53v-.32-.45h-3.46zm1.55-2.59h4.57v-1.19h-4.57zm6.11 2.59h-3.42v.77c-.01.19-.01.37-.02.53h3.44z" fill="#fafafc"/>
  <path d="m32.63 379.16h.82v1.98h3.54v7.89h1.46v.78h-14.37v-.78h1.46v-7.89h3.54v-1.98h.82v1.98h2.73zm-3.49 11.48.5.73c-1.61.82-3.28 1.63-5 2.41-.13-.27-.28-.55-.44-.82 1.75-.72 3.4-1.49 4.94-2.32m-2.78-5.55h2.73v-3.18h-2.73zm0 3.95h2.73v-3.2h-2.73zm3.54-3.95h2.73v-3.18h-2.73zm0 3.95h2.73v-3.2h-2.73zm7.89 4.68c-1.84-.92-3.51-1.7-5.02-2.32l.45-.73c1.89.8 3.57 1.55 5.04 2.23zm-1.62-11.81h-2.73v3.18h2.73zm-2.73 7.13h2.73v-3.2h-2.73z" fill="#fafafc"/>
</svg>