<svg enable-background="new 0 0 400 400" viewBox="0 0 400 400" xmlns="http://www.w3.org/2000/svg">
<path d="m367.23 293.97c-3.07.88-4.88 1.73-6.75 1.88-21.26 1.68-42.5 2.08-63.57-2.1-13.24-2.63-21.19-11.95-27.62-22.71-15.94-26.68-31.41-53.64-47.41-80.28-14.55-24.23-29.25-48.42-48.22-69.59-4.32-4.82-9.13-9.22-13.72-13.8-.7-.7-1.66-1.23-2.17-2.04-1-1.62-1.76-3.39-2.62-5.1 1.63-.63 3.25-1.77 4.89-1.79 10.22-.13 20.24 1.08 29.18 6.51 2 1.22 3.78 3.4 4.8 5.55 13.03 27.49 30.12 52.47 48.22 76.71 12.13 16.24 25.41 31.64 38.7 46.96 19.08 22.01 43.42 36.98 69.11 49.97 3.86 1.95 7.77 3.8 11.57 5.85 1.65.88 3.08 2.16 5.61 3.98z" fill="currentColor"/>
<path d="m36.69 307.56c4.87-5.17 9.7-10.38 14.62-15.5 22.44-23.35 42.03-48.93 59.07-76.43 3.83-6.18 7.34-12.72 9.78-19.54 1.71-4.77 2-10.32 1.72-15.46-.38-7.14 1.83-9.3 8.73-6.76 8.77 3.23 16.15 8.52 22 15.81 4.94 6.16 3.96 9.81-1.39 15.49-10.82 11.49-20.99 23.59-31.53 35.34-20.49 22.83-41.68 44.89-68.25 60.9-4.48 2.7-9.2 5-13.81 7.49-.31-.45-.63-.9-.94-1.34z" fill="currentColor"/>
</svg>