<svg enable-background="new 0 0 400 400" viewBox="0 0 400 400" xmlns="http://www.w3.org/2000/svg">
  <g fill="currentColor">
    <path d="m235.61 268.03c1.61 0 3.34-.39 4.81.06 21.17 6.44 42.12 13.31 58.96 28.71 12.76 11.68 18.21 25.84 14.81 42.96-1.3 6.55-5.03 8.27-10.36 4.36-5.86-4.3-11.35-9.24-16.37-14.51-15.48-16.24-30.74-32.68-45.87-49.24-2.9-3.18-4.81-7.27-7.17-10.93.39-.47.79-.94 1.19-1.41z"/>
    <path d="m89.41 354.85c3.73-3.66 7.34-7.44 11.2-10.94 16.95-15.38 32.31-32.19 45.56-50.85 5.31-7.48 9.98-15.31 9.86-25.09-.05-3.67 3.37-5.55 7.95-3.58 7.26 3.13 14.12 7.19 21.14 10.89.58.3 1.04.83 1.55 1.26 7.01 5.77 6.61 7.12-.65 11.96-6.03 4.02-11.59 8.89-16.82 13.95-19.67 19.05-39.94 37.24-64.97 49.16-4.38 2.09-9.04 3.6-13.56 5.38-.41-.72-.83-1.43-1.26-2.14z"/>
  </g>
  </svg>