<svg enable-background="new 0 0 400 400" viewBox="0 0 400 400" xmlns="http://www.w3.org/2000/svg">
<path d="m103.41 93.28c.57 14.24 1.44 28.01 1.61 41.79.25 20.32.75 40.68-.17 60.96-1.78 38.83-3.71 77.71-10.87 116.04-1.46 7.79-3.84 15.46-6.44 22.96-.92 2.66-3.76 4.66-5.72 6.97-1.97-2.28-4.61-4.26-5.8-6.89-7.04-15.7-8.38-31.58-2.93-48.39 9.44-29.16 12.79-59.35 12.95-89.94.1-20.31 1-40.63.36-60.91-.44-13.87-2.7-27.7-4.61-41.49-.63-4.53-3.03-8.79-4.02-13.3-1.1-5 .91-6.84 5.95-5.99 2.78.47 5.63.91 8.25 1.9 13.02 4.96 26.32 2.71 39.48 1.4 18.83-1.86 37.65-4.01 56.4-6.57 27.58-3.77 55.54-5.7 82.12-14.92 19.71-6.83 41.65-.81 55.15 15.54 3.92 4.74 4.64 9.31 1.05 13.61-6.48 7.77-8.66 17.13-8.75 26.5-.3 29.43.21 58.87.63 88.3.21 14.64.72 29.29 1.43 43.92 1.01 20.76 2.99 41.49 3.34 62.25.31 18.93-3.42 37.12-16.82 51.84-1.77 1.95-3.83 3.73-6.05 5.14-3.89 2.48-8.24 2.26-10.63-1.64-9.55-15.52-24.09-24.96-39.34-33.72-1.94-1.11-3.51-2.85-5.25-4.31.11-.55.22-1.09.34-1.64 4.12.2 8.24.44 12.37.59 8.28.3 16.56.65 24.85.77 6.23.09 10.34-3.63 11.54-9.2 1.9-8.87 3.74-17.95 3.86-26.97.4-30.15.35-60.32-.16-90.47-.4-23.77-1.48-47.54-2.78-71.28-.55-10.08-1.99-20.17-3.85-30.1-2.67-14.23-8.95-19.67-23.63-19.71-11.94-.03-23.92 1.02-35.81 2.25-21.82 2.26-43.57 5.08-65.37 7.53-19.49 2.19-39 4.17-58.49 6.27-1.37.15-2.65.57-4.19.91z" fill="currentColor"/>
</svg>