<svg enable-background="new 0 0 400 400" viewBox="0 0 400 400" xmlns="http://www.w3.org/2000/svg">
<path d="m74.48 66.88c7.99 6.92 9.65 15.8 14.33 24.32 23.04-2.47 46.61-4.04 69.84-7.74 31.45-5 62.68-11.44 93.92-17.67 9.39-1.87 18.56-4.95 27.76-7.71 7.4-2.22 14.44-1.16 21.42 1.54 14 5.42 26.21 13.71 37.21 23.76 8.28 7.56 7.09 13.95-3.6 17.56-12.85 4.34-25.16 9.6-36.14 17.62-6.85 5-13.39 10.44-20.28 15.38-1.99 1.43-4.72 1.81-7.12 2.67.23-2.49 0-5.15.77-7.46 3.74-11.16 7.76-22.23 11.65-33.34.33-.93.5-1.94.6-2.93 1.04-9.88-2.14-13.48-12.04-12.38-22.12 2.45-44.25 4.91-66.27 8.08-30.89 4.45-61.64 9.87-92.55 14.2-8.88 1.25-18.08.19-26.34.19-4.74 13.28-9.41 26.89-14.52 40.35-1.51 3.99-3.91 7.77-6.53 11.15-1.57 2.03-4.55 4.49-6.55 4.22-2.04-.28-4.36-3.39-5.32-5.76-4.89-12.15-4.75-24.37 2.95-35.21 9.39-13.21 13.98-27.75 15.12-43.68.14-2.02.92-4 1.69-7.16z" fill="currentColor"/>
</svg>