<svg enable-background="new 0 0 400 400" viewBox="0 0 400 400" xmlns="http://www.w3.org/2000/svg">
  <path d="m211.07 334.17c0 .33.02.67 0 1-.24 4.17-.15 9.37-4.58 10.63-2.97.84-7.8-.66-10.22-2.85-12.34-11.12-24.36-22.62-36.09-34.38-6.21-6.22-11.68-13.19-17.32-19.95-1.9-2.28-3.5-4.87-4.86-7.51-.68-1.33-1.19-3.55-.54-4.54.61-.92 3.05-1.35 4.38-.96 6.97 2.04 14.26 3.59 20.66 6.85 11.48 5.85 22.9 12.1 33.42 19.5 10.72 7.54 14.3 19.47 15.15 32.21z" fill="currentColor"/>
  <path d="m168.7 205.36c13.78 1.83 25.95 5.05 36.54 12.47 10.65 7.46 13.55 19.18 7.69 29.16-2.76 4.69-6.49 6.17-11.24 3.51-3.72-2.08-7.18-4.84-10.25-7.83-8.11-7.89-15.96-16.03-23.85-24.14-1.14-1.17-2.28-2.57-2.8-4.08-.76-2.22-1.88-5.01-1.11-6.84.59-1.43 3.81-1.77 5.02-2.25z" fill="currentColor"/>
</svg>