<svg enable-background="new 0 0 400 400" viewBox="0 0 400 400" xmlns="http://www.w3.org/2000/svg">
<path d="m238.49 185.45c-.68 2.58-1.03 5.29-2.08 7.71-8.2 19.05-16 38.31-24.99 56.99-8.52 17.7-16.13 35.63-21.19 54.62-.64 2.39-1.49 4.78-2.66 6.94-2.34 4.31-5.39 4.55-8.6.8-1.29-1.51-2.61-3.13-3.34-4.94-4.11-10.13-8.4-20.21-11.92-30.55-2.23-6.56-.9-6.64 4.88-9.98 6.35-3.67 12.99-7.98 17.39-13.66 13.66-17.59 26.28-35.99 39.41-54 3.67-5.03 7.71-9.77 11.58-14.65.51.24 1.02.48 1.52.72z" fill="currentColor"/>
<path d="m190.96 85.28c14.1 1.95 26.27 4.97 36.91 12.36 10.51 7.3 14.11 17.8 10.12 29.13-2.6 7.4-7.51 9.56-13.73 4.85-8.72-6.6-17.01-13.84-25.03-21.28-4.72-4.38-8.87-9.47-12.65-14.69-1.53-2.11-2.58-5.91-1.68-8.02.69-1.65 4.73-1.89 6.06-2.35z" fill="currentColor"/></svg>