<svg enable-background="new 0 0 400 400" viewBox="0 0 400 400" xmlns="http://www.w3.org/2000/svg">
  <g fill="#fbfafa"><path d="m37.59 393.81c-.92.31-1.52.05-2-.78-.7-1.2-1.52-2.34-2.47-3.78v4.59c-.55.03-.95.05-1.41.07-.03-.37-.06-.64-.06-.91 0-1.91 0-3.81 0-5.7 1.13-.41 1.77-.03 2.29.91.62 1.11 1.38 2.14 2.31 3.19v-4.2h1.35v6.61z"/>
    <path d="m12.94 393.88v-6.75c1.9.19 3.93-.54 5.37 1.29.8 1.01.78 2.88.03 3.97-1.37 1.97-3.4 1.51-5.4 1.49m1.45-1.22c2.04.12 2.92-.58 2.89-2.21-.03-1.51-.98-2.19-2.89-2z"/>
    <path d="m11.81 393.87h-5.49c.68-2.18 2.47-3.48 3.51-5.45h-3.08v-1.21h5.29c-.71 2.13-2.44 3.48-3.47 5.51.86 0 1.63.04 2.39-.01.79-.05 1.14.21.85 1.16"/>
    <path d="m39.33 393.86v-6.61h3.7v1.07h-2.22v1.52c.68.04 1.34.09 2.07.13v1.07c-.72.05-1.38.09-2.1.14v1.48h2.4v1.19h-3.85z"/>
    <path d="m27.71 388.56c-1.15-.3-2.46-.61-3.1.64-.37.73-.41 1.93-.06 2.67.63 1.35 1.99.93 3.17.68.35.94-.01 1.32-.93 1.46-1.62.25-3.05-.27-3.76-1.48-.73-1.25-.6-3.03.31-4.17.88-1.11 2.71-1.7 4-1.16.32.13.44.74.65 1.12-.1.08-.19.16-.28.24"/>
    <path d="m49.15 387.24v1.07c-.59.02-1.17.05-1.87.08v5.44h-1.48v-5.44h-1.85c-.05-.4-.08-.73-.13-1.15z"/>
    <path d="m20.06 387.21h1.33v6.62h-1.33z"/>
    <path d="m30.68 393.25c-.49.38-.8.79-1.05.76-.32-.05-.6-.45-.9-.7.26-.24.51-.64.8-.67.29-.04.62.3 1.15.61"/>
  </g>
  <path d="m211.07 334.17c0 .33.02.67 0 1-.24 4.17-.15 9.37-4.58 10.63-2.97.84-7.8-.66-10.22-2.85-12.34-11.12-24.36-22.62-36.09-34.38-6.21-6.22-11.68-13.19-17.32-19.95-1.9-2.28-3.5-4.87-4.86-7.51-.68-1.33-1.19-3.55-.54-4.54.61-.92 3.05-1.35 4.38-.96 6.97 2.04 14.26 3.59 20.66 6.85 11.48 5.85 22.9 12.1 33.42 19.5 10.72 7.54 14.3 19.47 15.15 32.21z" fill="#000001"/>
  <path d="m168.7 205.36c13.78 1.83 25.95 5.05 36.54 12.47 10.65 7.46 13.55 19.18 7.69 29.16-2.76 4.69-6.49 6.17-11.24 3.51-3.72-2.08-7.18-4.84-10.25-7.83-8.11-7.89-15.96-16.03-23.85-24.14-1.14-1.17-2.28-2.57-2.8-4.08-.76-2.22-1.88-5.01-1.11-6.84.59-1.43 3.81-1.77 5.02-2.25z" fill="#000001"/>
</svg>