<svg enable-background="new 0 0 400 400" viewBox="0 0 400 400" xmlns="http://www.w3.org/2000/svg">
<path d="m46.58 330.2c1.76-2.3 3.38-4.72 5.29-6.89 10.12-11.47 20.81-22.49 30.39-34.4 17.48-21.75 27.38-47.14 31.41-74.47 2.88-19.5 3.89-39.3 5.24-58.99.96-13.92.83-27.91-3.04-41.5-1.17-4.1-3.5-7.86-5.06-11.87-1.61-4.13-.38-5.94 4.05-6.04 2.31-.05 4.63.36 6.94.55 23.76 1.91 45.56-5.95 67.2-14.02 7.09-2.64 13.34-7.51 20.39-10.32 4.39-1.75 10.07-3.16 14.27-1.85 8.92 2.78 17.57 6.9 25.74 11.52 6.2 3.51 6.75 8.52 1.55 13.12-14.57 12.92-18.11 30.31-19.72 48.14-2.62 28.95-4.77 57.98-6.01 87.02-.63 14.85.45 29.88 2.04 44.69 1.9 17.67 10.72 27.45 28.36 29.73 15.4 1.99 31.15 1.42 46.75 1.7 4.28.07 8.58-.8 12.85-1.4 12.46-1.75 21.27-8.28 25.41-20.32 3.94-11.45 7.48-23.04 11.22-34.56.61-1.87 1.3-3.71 1.96-5.56l1.5.06c0 3.29-.12 6.59.02 9.88.54 12.43.87 24.88 1.91 37.27.35 4.17 2.38 8.26 3.93 12.27 3.09 8 1.89 13.99-5.87 17.59-8.17 3.78-17 6.82-25.86 8.29-23.05 3.84-46.32 4.15-69.42.16-7.95-1.37-15.82-3.8-23.39-6.66-17.13-6.48-24.59-20.71-27.61-37.54-4.38-24.39-3.72-49.06-2.31-73.66 1.85-32.2 4.11-64.37 6.1-96.56.32-5.15.21-10.33.12-15.49-.11-6.15-3.04-9-9.3-7.84-8.64 1.59-17.14 3.96-25.65 6.17-12.04 3.12-24.01 6.54-36.08 9.52-3.09.76-3.79 2.01-3.83 5.05-.22 20.8-.07 41.63-1.22 62.39-1.45 26.03-3.68 52.09-13.15 76.78-12.11 31.55-34.02 54.78-62.33 72.41-4.35 2.71-9.06 4.82-13.6 7.2-.39-.52-.79-1.05-1.19-1.57z" fill="currentColor"/></svg>