<svg enable-background="new 0 0 400 400" viewBox="0 0 400 400" xmlns="http://www.w3.org/2000/svg">
<path d="m98.22 272.51c69.94-5.88 138.98-11.68 208.57-17.53.31-2.09.83-4.16.88-6.25.76-29.45 1.97-58.9 1.95-88.35-.01-15.9-1.38-31.95-6.75-47.19-1.7-4.82-4.53-9.22-6.61-13.92-.59-1.34-1.01-3.73-.3-4.45 1.03-1.05 3.24-1.59 4.8-1.35 11.35 1.76 21.8 5.85 30.95 12.91 6.57 5.07 6.97 9.29 4.19 16.89-2.42 6.62-4.19 13.76-4.59 20.77-1.2 21.09-1.36 42.24-2.35 63.35-1.45 30.73-3.13 61.45-5.07 92.15-.43 6.73-2.05 13.45-3.75 20.01-1.62 6.27-5.25 6.93-9.4 1.83-5.9-7.25-10.03-15.49-9.79-25.04.23-9.25 1.31-18.48 2.07-28.3-4.5.34-9.73.59-14.92 1.16-26.26 2.87-52.57 5.42-78.75 8.85-24.19 3.17-48.38 6.62-72.3 11.32-12.76 2.51-24.99 7.8-37.35 12.13-3.06 1.07-5.84 3.14-8.53 5.04-3.34 2.36-7.07 2.88-9.43-.25-4.04-5.34-7.78-11.09-10.4-17.2-1.12-2.62-.14-7.34 1.67-9.78 6.06-8.17 7.7-17.57 8.9-27.13 3.22-25.54 2.99-51.18.79-76.75-1.05-12.19-3.27-24.36-6.05-36.28-1.31-5.59-5.26-10.56-7.9-15.86-.77-1.54-1.16-3.28-1.73-4.92 1.67-.48 3.38-1.49 5-1.35 10.37.88 20.34 3.27 29.2 9.03 6.38 4.14 8.03 9.41 6.72 16.8-1.9 10.76-3.92 21.59-4.6 32.47-1.81 29.05-2.92 58.14-4.34 87.22-.17 3.1-.49 6.2-.78 9.97z" fill="currentColor"/></svg>