<svg enable-background="new 0 0 400 400" viewBox="0 0 400 400" xmlns="http://www.w3.org/2000/svg">
<path d="m220.01 276.2c2.94 1.31 5.96 2.46 8.8 3.94 8.28 4.3 16.59 8.15 26.14 9.01 6.76.6 12.33-1.5 15.29-7.04 5.05-9.46 10.05-19.19 13.19-29.39 12.11-39.41 19.53-79.66 18.42-121.12-.15-5.78-.92-11.61-2.06-17.28-1.78-8.88-6.98-13.6-16.12-13.08-12.57.73-25.11 2.41-37.56 4.3-10.26 1.56-20.37 4.03-31.56 6.3 4.68 2.82 8.59 4.87 12.16 7.39 5.29 3.74 4.64 5.45 1.21 10.79-6.71 10.45-12.91 21.28-18.6 32.33-12.7 24.64-23.47 50.29-38.95 73.45-20.3 30.37-44.95 56.04-78.06 72.61-5.19 2.6-10.57 4.83-15.89 7.15-.85.37-1.89.34-3.54-.38 2.45-2.49 4.69-5.22 7.37-7.43 20.15-16.57 38.41-34.91 53.97-55.92 25.53-34.49 45.37-71.92 58.34-112.87 1.83-5.78 2.55-11.97 3.25-18.04.37-3.2-.9-5.08-5.15-4.18-12.49 2.65-25.12 4.68-37.66 7.1-10.02 1.93-27.57-4.78-32.36-13.23 2.31-.62 4.38-1.54 6.5-1.69 49.46-3.53 98.19-11.64 146.4-23.07 3.54-.84 7.2-1.69 10.39-3.34 10.5-5.43 21.03-4.9 31.12.24 7.33 3.73 14.37 8.29 20.84 13.37 5.28 4.14 4.89 6.76 1.57 12.5-5.94 10.29-7.4 21.91-9.39 33.34-7.54 43.29-12.73 87.03-24.02 129.62-4.58 17.29-10.45 34.05-23.01 47.49-6.41 6.87-13.43 12.98-22.47 16.17-6.05 2.13-10.22.3-11.37-5.78-3-15.78-11.9-28.3-21.32-40.65-2.67-3.5-4.93-7.32-7.38-10.99.51-.52 1.01-1.07 1.51-1.62z" fill="currentColor"/>
</svg>