<svg width="400" height="400" viewBox="0 0 400 400" fill="none" xmlns="http://www.w3.org/2000/svg">
<path d="M191.5 190.164C185.839 200 181.4 211.35 180 211.5C181.5 211.5 200.311 195 206.87 187.904C217.38 176.534 227.65 164.934 238.5 153.904C248.01 144.224 256.94 133.774 269.79 127.954C274.11 125.994 274.39 122.534 270.76 119.144C262.73 111.624 253.17 106.544 242.53 103.964C236.55 102.514 230.86 103.634 225.64 107.794C222.23 110.504 217.93 112.484 213.71 113.734C204.34 116.504 194.81 118.794 185.27 120.924C177.58 122.634 169.78 123.814 160.6 125.494C166.49 118.234 171.43 112.224 176.26 106.144C185.98 93.9139 195.61 81.6139 205.33 69.3939C208.33 65.6339 208.2 61.7739 204.18 57.8939C196.76 50.7439 187.98 45.6639 178.3 42.2739C173.05 40.4339 170.47 43.1339 171.28 48.7139C171.83 52.4539 172.54 56.3239 172.11 60.0139C170.51 73.7439 163.7 85.5039 156.85 97.0739C141.88 122.344 124.88 146.134 104.17 167.134C101.43 169.914 99.2 173.204 96.73 176.254C97.18 176.674 97.64 177.084 98.09 177.504C121.35 166.954 139.1 149.324 156.62 130.744C165.03 138.194 174.28 137.704 184.23 134.464C191.62 132.064 199.35 130.714 206.96 129.024C211.12 128.104 215.85 126.164 219.12 130.174C222.44 134.244 220.3 139.024 218.2 142.864C209.52 158.754 200.53 174.474 191.5 190.164Z" fill="currentColor"/>
</svg>
