<svg width="400" height="400" viewBox="0 0 400 400" fill="none" xmlns="http://www.w3.org/2000/svg">
<path d="M191.5 190.164C185.839 200 181.4 211.35 180 211.5C181.5 211.5 200.311 195 206.87 187.904C217.38 176.534 227.65 164.934 238.5 153.904C248.01 144.224 256.94 133.774 269.79 127.954C274.11 125.994 274.39 122.534 270.76 119.144C262.73 111.624 253.17 106.544 242.53 103.964C236.55 102.514 230.86 103.634 225.64 107.794C222.23 110.504 217.93 112.484 213.71 113.734C204.34 116.504 194.81 118.794 185.27 120.924C177.58 122.634 169.78 123.814 160.6 125.494C166.49 118.234 171.43 112.224 176.26 106.144C185.98 93.9139 195.61 81.6139 205.33 69.3939C208.33 65.6339 208.2 61.7739 204.18 57.8939C196.76 50.7439 187.98 45.6639 178.3 42.2739C173.05 40.4339 170.47 43.1339 171.28 48.7139C171.83 52.4539 172.54 56.3239 172.11 60.0139C170.51 73.7439 163.7 85.5039 156.85 97.0739C141.88 122.344 124.88 146.134 104.17 167.134C101.43 169.914 99.2 173.204 96.73 176.254C97.18 176.674 97.64 177.084 98.09 177.504C121.35 166.954 139.1 149.324 156.62 130.744C165.03 138.194 174.28 137.704 184.23 134.464C191.62 132.064 199.35 130.714 206.96 129.024C211.12 128.104 215.85 126.164 219.12 130.174C222.44 134.244 220.3 139.024 218.2 142.864C209.52 158.754 200.53 174.474 191.5 190.164Z" fill="#010106"/>
<path d="M5.16998 384L5.71998 383.42C6.56998 384.03 7.36998 384.66 8.11998 385.29L7.52998 385.93C6.69998 385.2 5.90998 384.55 5.16998 384ZM6.38998 393.53L5.56998 393.19C6.27998 391.43 6.93998 389.55 7.54998 387.56C7.78998 387.69 8.04998 387.81 8.30998 387.92C7.70998 389.59 7.06998 391.46 6.38998 393.53ZM5.88998 380.03L6.45998 379.49C7.01998 379.93 7.76998 380.55 8.71998 381.36L8.07998 382C7.39998 381.34 6.66998 380.68 5.88998 380.03ZM9.13998 380.49H11.38V379.13H12.15V380.49H16.72V379.13H17.48V380.49H19.76V381.18H17.48V383.02H14.84V384.28H19.02V386.92H14.81C14.81 387.37 14.79 387.78 14.76 388.13H19.08V388.82H14.7C14.66 389.16 14.6 389.57 14.51 390.04H19.66V390.73H14.84C15.71 391.92 17.35 392.65 19.77 392.92C19.6 393.24 19.47 393.49 19.4 393.68C16.63 393.19 14.88 392.27 14.14 390.92C13.58 392.18 11.84 393.15 8.89998 393.82C8.77998 393.58 8.63998 393.34 8.46998 393.1C11.2 392.55 12.85 391.76 13.43 390.72H9.04998V390.03H13.7C13.8 389.65 13.87 389.24 13.91 388.81H9.58998V388.12H13.99C14.02 387.78 14.04 387.37 14.04 386.91H9.83998V384.27H14.07V383.01H11.38V381.17H9.13998V380.49ZM10.6 384.95V386.24H14.05C14.06 385.84 14.07 385.67 14.06 385.71V385.39V384.94H10.6V384.95ZM12.15 382.36H16.72V381.17H12.15V382.36ZM18.26 384.95H14.84V385.72C14.83 385.91 14.83 386.09 14.82 386.25H18.26V384.95Z" fill="#FAFAFC"/>
<path d="M32.63 379.16H33.45V381.14H36.99V389.03H38.45V389.81H24.08V389.03H25.54V381.14H29.08V379.16H29.9V381.14H32.63V379.16ZM29.14 390.64L29.64 391.37C28.03 392.19 26.36 393 24.64 393.78C24.51 393.51 24.36 393.23 24.2 392.96C25.95 392.24 27.6 391.47 29.14 390.64ZM26.36 385.09H29.09V381.91H26.36V385.09ZM26.36 389.04H29.09V385.84H26.36V389.04ZM29.9 385.09H32.63V381.91H29.9V385.09ZM29.9 389.04H32.63V385.84H29.9V389.04ZM37.79 393.72C35.95 392.8 34.28 392.02 32.77 391.4L33.22 390.67C35.11 391.47 36.79 392.22 38.26 392.9L37.79 393.72ZM36.17 381.91H33.44V385.09H36.17V381.91ZM33.44 389.04H36.17V385.84H33.44V389.04Z" fill="#FAFAFC"/>
</svg>
