<svg enable-background="new 0 0 400 400" viewBox="0 0 400 400" xmlns="http://www.w3.org/2000/svg">
<path d="m172.71 311.4c6.97 1.05 12.61 1.89 18.23 2.76 7.54 1.16 15.06 2.47 22.63 3.5 6.16.83 9.42-.51 11.37-6.42 2.31-7.01 4.57-14.44 4.66-21.71.41-33.77.23-67.56-.1-101.34-.16-16.63-.82-33.26-1.74-49.86-1.38-25.03-2.06-50.18-7.59-74.77-1.25-5.56-4.47-10.65-6.48-16.07-.81-2.19-1.92-5.75-.92-6.77 1.46-1.49 4.99-2.24 7.1-1.58 9.79 3.06 19.65 6.14 28.98 10.33 6.85 3.07 6.71 7.08 5.13 14.56-2.63 12.45-5.24 25.14-5.57 37.79-.95 36.27-1.53 72.6-.75 108.87.6 28.05 3.57 56.05 5.27 84.08 1.24 20.53.13 40.69-12.68 58.14-2.61 3.56-5.92 6.75-9.38 9.52-3.55 2.84-7.74 2.19-10.01-1.6-11.61-19.31-29.41-32.42-45.98-46.78-.46-.41-.79-.95-2.17-2.65z" fill="currentColor"/>
<path d="m152.12 222.29c1.5-12.59 3.55-23.59 3.98-34.66.9-23.43.77-46.86-8.14-69.2-.66-1.66-1.07-3.49-1.23-5.28-.26-2.92 1.36-4.79 4.17-3.87 8.47 2.78 17.05 5.4 25.1 9.14 5.74 2.67 5.07 6 3.14 11.97-2.57 7.93-4.48 16.38-4.77 24.67-.71 20.45-.07 40.94-.51 61.41-.18 8.4-1.54 16.81-2.87 25.13-.37 2.33-2.53 4.38-3.87 6.57-2.2-1.53-4.85-2.68-6.52-4.67-5.48-6.53-8.41-14.18-8.48-21.21z" fill="currentColor"/>
</svg>