<svg enable-background="new 0 0 400 400" viewBox="0 0 400 400" xmlns="http://www.w3.org/2000/svg">
<path d="m196.64 161.11c-15.96 2.99-30.69 5.38-45.23 8.59-14.73 3.24-25.39-3.6-35.17-12.97-2.73-2.61-1.62-4.76 2.44-4.96 8.63-.42 17.35.05 25.9-.93 18.14-2.08 36.2-4.8 54.26-7.47 1.55-.23 3.68-1.85 4.13-3.27 5.64-17.76 10.49-35.81 10.67-54.53.09-8.97-2.45-17.96-3.62-26.96-.32-2.46-.95-5.95.31-7.23 1.29-1.3 5.14-1.34 7.18-.41 8.72 3.97 17.64 7.8 25.59 13.03 6.81 4.48 6.64 9.02 2.98 16.14-5.26 10.24-8.69 21.47-12.38 32.45-2.74 8.15-4.65 16.58-7.23 25.99 8.73-1.65 16.69-2.85 24.49-4.7 9.99-2.37 19.86-5.23 29.77-7.97 1.42-.39 2.93-.99 4.03-1.92 6.7-5.65 14.24-5.72 21.52-2.25 8.04 3.83 15.93 8.22 23.21 13.33 6.54 4.58 5.33 8.51 1.44 15.19-4.15 7.12-7.13 15.38-8.58 23.51-3.69 20.57-5.87 41.4-9.32 62.02-5.42 32.4-13.01 64.2-29.99 92.89-6.25 10.57-14.05 19.84-24.54 26.52-1.93 1.23-4.07 2.35-6.27 2.87-5.17 1.24-8.02-.35-9.32-5.55-3.54-14.18-11.68-25.54-21.26-36.15-3.35-3.71-6.3-7.79-9.43-11.7.41-.53.83-1.07 1.24-1.6 2.54.9 5.12 1.72 7.61 2.73 7.85 3.17 15.6 6.58 23.51 9.59 6.8 2.59 13.15.73 16.48-5.42 6.47-11.93 12.75-24.1 17.6-36.75 9.76-25.41 14.19-52.15 17.23-79.09 1.27-11.22 2.12-22.5 2.82-33.78.22-3.43-.37-6.99-1.12-10.38-1.48-6.68-4.8-8.82-11.69-7.47-17.07 3.34-34.01 7.56-51.21 10.04-10 1.44-14.14 6.55-17.85 15.28-15.29 35.98-32.2 71.22-54.33 103.63-19.6 28.72-45.73 49.88-76.87 65.05-1.19.58-2.43 1.07-3.68 1.51-.43.15-.96.02-1.68.02 16.19-17.25 32.79-33.8 48.04-51.52 15.55-18.06 28.08-38.38 39.17-59.51 11.02-20.89 20.43-42.47 29.15-65.89z" fill="currentColor"/>
</svg>