<svg enable-background="new 0 0 400 400" viewBox="0 0 400 400" xmlns="http://www.w3.org/2000/svg">
<path d="m150.73 132.59c-22.59 24.47-45.75 48.13-76.77 61.78-.42-.45-.84-.9-1.26-1.35 5.52-5.86 10.78-11.99 16.61-17.53 27.71-26.29 51.36-55.88 71.4-88.31 5.2-8.41 9.23-17.66 12.82-26.91 1.45-3.73.28-8.47.3-12.76.02-4.72 1.61-6.11 6.14-4.73 9.77 2.98 18.03 8.47 24.9 15.97 1.78 1.94 3.16 4.06.72 6.99-10.54 12.63-20.92 25.38-31.22 38.2-4.98 6.19-9.64 12.64-15.1 19.83 5 0 9.07.22 13.1-.03 32.69-2.06 65.2-5.48 97.2-12.81.97-.22 2.01-.3 2.89-.71 14.35-6.78 27.25-2.02 39.73 5.15 4.73 2.72 9.38 5.74 13.54 9.25 4.19 3.53 5 8.69 2.01 13.07-6.3 9.23-7.72 19.82-8.48 30.35-1.53 21.22-2.12 42.51-3.28 63.77-1.56 28.56-4.2 56.87-14.88 83.92-7.15 18.1-18.08 32.44-35.49 41.43-2.89 1.49-6.14 2.53-9.34 3.12-4.01.73-7.05-1.32-7.75-5.31-2.58-14.83-12.48-24.56-23.01-33.94-3.23-2.88-6.43-5.8-9.53-8.82-.98-.96-1.58-2.29-2.36-3.46.29-.47.58-.94.86-1.42 5.07 1.76 10.08 3.7 15.22 5.22 7.91 2.34 15.8 4.98 23.89 6.42 9.42 1.67 17.36-1.65 22.65-10.03 7.63-12.09 10.99-25.72 12.51-39.6 2.6-23.77 4.69-47.63 6.06-71.5.89-15.4.16-30.89.05-46.34-.02-2.13-.58-4.27-1-6.38-2.39-12.19-8.41-18.14-20.84-17.86-15.55.35-31.16 1.41-46.57 3.44-18.08 2.38-35.93 6.44-53.99 9.04-4.43.64-9.37-1.24-13.88-2.61-2.73-.85-5.12-2.92-7.85-4.54z" fill="currentColor"/></svg>