<svg enable-background="new 0 0 400 400" viewBox="0 0 400 400" xmlns="http://www.w3.org/2000/svg">
<path d="m112.25 214.18c8.1-4.56 16.22-8.98 24.18-13.65 30.57-17.92 59.15-38.46 83.54-64.38 3.07-3.26 6.12-6.71 8.3-10.57 1.89-3.33 3.09-7.28 3.59-11.09.79-6.03 3.03-8.32 8.74-6.63 12.43 3.69 22.68 10.97 31.39 20.42 2.4 2.6 2.45 5.35-1.03 7.45-17.93 10.81-35.94 21.49-53.74 32.52-32.56 20.18-66.26 38.24-100.78 54.78-4.15 1.99-5.62 4.42-5.33 8.79.74 11.26 1.25 22.54 1.82 33.81.93 18.39 16.25 35.9 39.61 40.32 21.96 4.15 44.1 3.69 66.18 2.36 14.19-.85 28.42-2.84 42.35-5.69 7.62-1.56 14.89-5.52 21.9-9.18 11.51-6.01 15.91-16.81 17.93-28.93 1.26-7.53 2.63-15.04 3.99-22.55.23-1.25.71-2.45 2.23-3.7.64 4.93 1.46 9.85 1.88 14.81 1.2 14.15 3.46 27.96 10.52 40.62 3.47 6.23 2.34 11.33-3.42 16.43-7.8 6.91-17.37 10.73-27.26 12.73-16.88 3.41-33.92 6.43-51.05 8.09-17.18 1.66-34.54 2.09-51.81 1.89-16.92-.2-33.8-1.66-49.85-8.19-22.65-9.21-35.37-25.74-39.35-49.81-3.61-21.86-2.44-43.73-1.9-65.67.58-23.63 1.34-47.29.65-70.9-.38-12.98-3.04-25.99-5.8-38.75-1.25-5.79-5.35-10.94-7.93-16.48-.85-1.83-1.96-4.59-1.19-5.83.78-1.26 3.79-1.76 5.73-1.57 11.76 1.1 22.73 4.83 32.76 11.06 7.93 4.93 8.39 9.16 5.78 18.03-3.35 11.41-6.28 23.14-7.54 34.93-2.59 24.27-3.94 48.68-5.78 73.03.01.26.27.56.69 1.5z" fill="currentColor"/>
</svg>