<svg enable-background="new 0 0 400 400" viewBox="0 0 400 400" xmlns="http://www.w3.org/2000/svg">
<path d="m111.76 102.92c-2.79 70.58-5.6 141.47-8.43 213.06 4.16-.4 8.88-.71 13.56-1.32 25.02-3.23 50.05-6.46 75.05-9.84 23.04-3.12 46.01-6.71 69.08-9.57 17.57-2.18 35.36-3.52 51.86 4.79 5.44 2.74 10.55 7.02 14.41 11.74 4.57 5.57 2.57 9.74-4.54 10.62-4.69.58-9.59.1-14.33-.45-33.85-3.93-67.86-3.85-101.77-2.51-32.17 1.28-64.36 4.27-95.62 12.77-7.1 1.93-13.9 5.4-20.4 8.96-8.97 4.91-13.7 3.36-17.03-6.32-2.11-6.12-2.38-12.29.6-17.91 7.38-13.92 9.2-29.13 10.52-44.32 3.72-42.97 4.89-86.07 3.95-129.18-.25-11.73-2.07-23.48-3.86-35.11-.74-4.8-3.29-9.33-5.09-13.96-.72-1.85-1.82-3.57-2.42-5.45-1.57-4.85-.22-6.83 4.8-6.14 8.37 1.14 16.62 3.63 25 4.06 11.74.61 23.71 1.01 35.31-.55 31.22-4.2 62.31-9.43 93.43-14.39 12.77-2.04 25.44-4.78 38.24-6.55 7.45-1.03 15.02-.17 21.57 4.18 6.32 4.2 6.28 9.64-.75 12.17-9.77 3.52-19.88 6.82-30.11 8.15-28.32 3.71-56.74 6.81-85.19 9.26-22.52 1.95-45.14 2.59-67.84 3.81z" fill="currentColor"/>
</svg>