<svg enable-background="new 0 0 400 400" viewBox="0 0 400 400" xmlns="http://www.w3.org/2000/svg">
<path d="m110.6 140.62c-17.27 8.46-29.57.45-42.16-12.59 4.33-.83 7.48-1.81 10.67-1.97 10.63-.52 21.33-.14 31.9-1.19 20.15-2 40.29-4.31 60.31-7.29 25.42-3.79 50.75-8.24 76.07-12.72 9.79-1.73 19.38-4.63 29.16-6.39 8.42-1.52 17.06-1.49 24.88 2.52 3.72 1.9 7.22 4.83 9.86 8.07 4.11 5.07 2.19 9.07-4.49 9.9-7.58.94-15.22 1.4-22.83 2.08-25.82 2.29-51.67 4.24-77.44 6.96-24.93 2.64-49.78 6.06-74.66 9.17-1.91.24-3.78.7-6.25 1.17 1.91 2.4 3.46 4.3 4.96 6.23 5.78 7.41 8.37 15.09 5.94 24.97-2.32 9.42-2.7 19.39-3.23 29.16-1.02 18.76-1.56 37.56-2.25 56.34-.57 15.62-1.09 31.24-1.6 46.86-.04 1.14.13 2.28.24 4.05 6.1-.78 11.94-1.5 17.77-2.28 26.82-3.6 53.6-7.48 80.46-10.74 21.93-2.67 43.91-4.93 65.93-6.68 7.17-.57 14.7.24 21.73 1.88 8.47 1.97 13.49 8.69 17.01 16.37 1.19 2.59-.03 4.25-2.72 4.59-2.3.29-4.65.32-6.98.32-22.65.02-45.33-.62-67.95.16-36.05 1.23-72 4.16-107.36 11.7-6.96 1.48-13.65 4.88-20.05 8.2-6.71 3.49-8.54 3.54-13.8-1.91-8.3-8.6-9.4-17.92-5.64-29.33 3.5-10.6 5.89-21.91 6.51-33.03 1.47-26.24 2.25-52.55 1.99-78.82-.14-14.01-3.01-28-4.7-41.99-.14-.97-.63-1.87-1.28-3.77z" fill="currentColor"/>
</svg>