<svg enable-background="new 0 0 400 400" viewBox="0 0 400 400" xmlns="http://www.w3.org/2000/svg">
<path d="m192.93 154.68c0-12.03.25-23.5-.06-34.96-.4-14.62-.7-29.28-2.16-43.81-.66-6.59-3.94-12.93-6.16-19.33-.65-1.87-1.87-3.53-2.63-5.37-2.6-6.33-.67-9.25 5.97-8.16 11.4 1.87 22.19 5.71 31.76 12.34 5.36 3.72 4.99 6.92 3.13 12.9-2.68 8.61-4.74 17.66-5.3 26.63-1.12 17.93-1.06 35.94-1.46 53.92-.02.8.15 1.61.31 3.1 18.13-2.49 36.02-4.89 53.89-7.43 14.63-2.08 29.18-4.8 43.86-6.34 14.8-1.55 27 4.31 36.38 15.8 1.25 1.53 2.7 4.64 2.03 5.6-1.06 1.52-3.84 2.56-5.89 2.54-17.31-.15-34.64-1.35-51.91-.73-20.41.73-40.78 2.95-61.16 4.52-5.62.43-11.24.85-17.38 1.31-.33 11.96-.73 23.71-.96 35.47-.45 22.64-.44 45.3-1.3 67.92-.84 22.09-2.22 44.18-4 66.22-.62 7.69-2.94 15.28-4.92 22.8-.45 1.71-2.75 2.92-4.2 4.36-1.29-1.62-3.39-3.08-3.73-4.87-1.34-6.99-2.91-14.08-2.99-21.14-.56-53.97-.79-107.95-1.13-161.93-.01-1.79 0-3.59 0-6.01-10.58 1.54-20.59 2.8-30.52 4.47-27.65 4.67-55.27 9.54-82.91 14.25-10.26 1.75-27.08-6.05-32.1-14.72-1.21-2.09-1.18-3.88 1.65-4.48 1.45-.31 2.95-.52 4.42-.52 27.84-.01 55.41-3.24 82.95-6.93 18.6-2.49 37.21-4.89 56.52-7.42z" fill="currentColor"/>
</svg>