<svg enable-background="new 0 0 400 400" viewBox="0 0 400 400" xmlns="http://www.w3.org/2000/svg">
<path d="m162.44 303.2c-2.12 15.09-4.16 30.2-6.44 45.26-.41 2.73-1.59 5.42-2.81 7.94-2.5 5.16-5.49 5.34-8.72.36-5.6-8.63-9.63-18.13-9.44-28.44.18-10.06 2.06-20.08 3.11-30.13.64-6.11 1.46-12.23 1.61-18.36.55-22.3.79-44.6 1.26-66.9.45-21.12 1.54-42.23 1.42-63.34-.13-23.41.38-46.95-4.63-70.03-1.25-5.73-4.04-11.14-6.21-16.66-.73-1.85-1.91-3.52-2.61-5.38-1.86-4.96.17-8 5.43-7.43 11.21 1.2 21.83 4.44 31.16 11.01 5.2 3.66 7.12 9.15 4.44 14.91-6.57 14.13-7.6 29.16-7.99 44.31-.47 18.13-.86 36.27-1.01 54.41-.3 37.12-.47 74.24-.58 111.37-.02 5.64.56 11.28.86 16.92.39.04.77.11 1.15.18z" fill="currentColor"/>
<path d="m275.99 211.41c.04 11.21-7.54 16.39-16.77 11.16-8.75-4.96-16.84-11.25-24.68-17.61-14.73-11.94-29.11-24.3-43.53-36.63-2.75-2.35-5.13-5.21-7.34-8.11-1-1.32-1.17-3.27-1.71-4.94 1.83-.43 3.77-1.5 5.46-1.18 5.03.96 10.01 2.3 14.92 3.78 11.92 3.58 24.02 6.7 35.62 11.14 18.69 7.16 31.75 20.2 37.58 39.78.32 1.1.4 2.27.45 2.61z" fill="currentColor"/>
</svg>