<svg enable-background="new 0 0 400 400" viewBox="0 0 400 400" xmlns="http://www.w3.org/2000/svg">
<path d="m189.43 130.1c0-13.85.34-26.81-.1-39.73-.4-11.8-1.78-23.6-6.58-34.54-2.64-6.03-6.35-11.58-10.37-18.78 3.95-.1 7.3-.82 10.34-.13 9.18 2.08 18.31 4.47 27.31 7.24 3.78 1.17 4.66 3.36 2.69 8.02-2.75 6.48-3.26 13.92-5.04 22.45 9.47-1.58 17.19-2.34 24.62-4.22 14.45-3.66 28.73-8.01 43.12-11.94 5.47-1.5 10.62-.48 14.95 3.29 4.69 4.08 4.74 9.03-.82 11.58-8.37 3.85-17.15 7.09-26.07 9.39-16 4.13-37.22 4.38-53.93 1.66v43.29c14.62-3.65 29.24-6.22 43.05-11.09 10.97-3.87 21.11-4.43 31.3.44 7.9 3.77 15.63 8.11 22.84 13.06 5.27 3.62 6.58 7.7 2.69 14.06-5.78 9.46-7.35 20.48-7.06 31.24.69 26.42 2.37 52.81 3.56 79.21.61 13.63.77 27.29 1.6 40.9.92 15.03.32 29.91-3.56 44.47-1.43 5.39-4.11 10.47-6.53 15.55-.87 1.81-2.65 3.19-4.86 5.75-2.25-3.67-4.62-6.33-5.63-9.43-2.96-9.14-5.63-18.39-7.9-27.72-.95-3.89-2.1-5.71-6.58-6.23-32.13-3.74-64.05-1.26-96.07 1.83-19.49 1.88-39.18 1.68-58.78 2.41-1.48.05-2.96.01-4.27.01-2.41 6.55-4.47 13.02-7.22 19.17-1.03 2.31-3.6 5.28-5.62 5.4-1.96.12-4.73-2.66-6.07-4.83-5.68-9.17-6.5-18.66-4.07-29.53 4.19-18.72 7.41-37.77 9.38-56.85 1.99-19.31 2.7-38.83 2.61-58.25-.07-14.88-1.96-29.78-3.68-44.6-.54-4.65-3.4-8.99-4.67-13.62-.7-2.53-.31-5.36-.41-8.05 2.37.04 4.96-.53 7.07.23 12.1 4.38 24.53 5.83 37.25 4.54 17.33-1.74 34.64-3.78 51.51-5.65zm-69.98 18.39c-1.93 54.68-3.83 108.91-5.76 163.46 6.46-.65 12.89-1.24 19.31-1.94 31.69-3.45 63.36-7.12 95.08-10.33 17.4-1.76 34.82-2.35 51.42 7.62.79-11.57 2.19-22.61 2.19-33.65 0-31.95-.28-63.91-1.06-95.85-.22-9.04-2.02-18.15-4.06-27-1.94-8.4-6.7-15.29-16.37-15.59-11.25-.34-22.59-.51-33.77.51-17.18 1.57-34.24 4.34-51.37 6.41-18.61 2.23-37.24 4.26-55.61 6.36z" fill="currentColor"/><path d="m190.09 229.25c-16.99-12.91-32.62-24.78-48.25-36.65.4-.67.8-1.34 1.19-2.01 19.74 3.54 37.9 11.71 56.07 20.68 7.98-13.11 15.8-25.9 19.27-40.63.95-4.03.33-8.58-.26-12.8-.84-6.05 1.33-8.5 7.08-6.61 8.32 2.72 15.89 6.86 21.65 13.69 3.55 4.21 3.13 6.27-.57 10.24-3.15 3.38-6.28 6.96-8.56 10.95-6.84 11.95-13.25 24.15-19.85 36.28 8.19 6.19 16.28 11.97 24 18.22 7.03 5.69 14.18 11.91 14.48 21.72.15 4.81-1.92 9.9-3.95 14.44-.58 1.29-4.91 2.1-6.8 1.34-2.93-1.17-5.42-3.7-7.81-5.95-11.36-10.69-22.63-21.48-34.11-32.41-20.32 23.39-41.09 44.98-70.39 54.02 18.53-21.05 37.39-42.47 56.81-64.52z" fill="currentColor"/>
</svg>