<svg enable-background="new 0 0 400 400" viewBox="0 0 400 400" xmlns="http://www.w3.org/2000/svg">
<path d="m179.56 174.82c5.88 1.17 11.75 2.38 17.64 3.48 4.73.89 9.46 1.85 14.23 2.41 7.85.92 12.72-1.86 14.61-9.54 2.69-10.93 5.08-22.02 6.48-33.17 1.7-13.5 2.34-27.13 3.21-40.72.18-2.76-.38-5.65-1.05-8.37-1.43-5.82-5.62-9.57-11.57-8.75-14.93 2.07-29.78 4.8-44.62 7.45-5.37.96-10.65 2.47-16.5 3.86v5.41c0 18.16.1 36.32-.02 54.48-.26 37.97-.37 75.94-1.08 113.9-.42 22.44-1.63 44.87-2.98 67.27-.42 7.05-2.33 14.03-3.85 20.98-.29 1.34-1.93 2.38-2.94 3.56-1.12-1.1-3.01-2.06-3.24-3.32-1.62-8.92-3.84-17.87-4.11-26.87-.77-25.46-.7-50.94-.94-76.41-.29-30.47-.59-60.94-.82-91.41-.1-13.3.26-26.6-.14-39.89-.37-12.39-2.32-24.5-10.02-34.88-.69-.92-1.21-2.01-1.6-3.1-1.24-3.47-.38-5.7 3.73-5.32 3.96.36 8.06.48 11.82 1.62 11.58 3.51 23 2.72 34.41-.41 11.98-3.29 23.98-6.57 35.82-10.31 3.69-1.17 7.2-3.44 10.3-5.85 4.41-3.42 9.28-3.8 14.21-2.74 10.56 2.28 20.05 6.97 28.13 14.24 5.6 5.04 5.79 7.76.94 13.32-7.73 8.84-9.93 19.77-11.45 30.83-2.57 18.75-4.37 37.61-7.19 56.32-2.27 14.99-8.75 28.19-19.89 38.8-1.68 1.6-3.51 3.1-5.5 4.28-5.2 3.09-9.49 2.25-12.04-3.15-6.13-12.99-16.08-22.26-27.72-30.08-1.92-1.29-3.67-2.87-5.43-4.39-.59-.51-.96-1.29-1.43-1.94.21-.54.41-1.06.6-1.59z" fill="currentColor"/>
</svg>