<svg enable-background="new 0 0 400 400" viewBox="0 0 400 400" xmlns="http://www.w3.org/2000/svg">
<path d="m60.45 347.44c5.12-6.66 9.96-13.57 15.42-19.95 28.24-33.03 44.32-71.43 51.15-114.05 4.14-25.84 6.58-51.79 5.54-77.96-.49-12.29-2-24.39-7.59-35.76-3.57-7.26-1.34-10.08 6.74-8.76 5.66.93 11.07 3.32 16.66 4.78 3.63.95 7.49 2.34 11.07 1.94 28.36-3.2 56.77-6.13 84.97-10.46 24.24-3.72 48.18-9.42 72.34-13.78 11.24-2.03 21.87.47 31.05 7.6 4.55 3.53 4.45 6.36-1.02 8.06-9.29 2.9-18.8 5.58-28.42 6.83-29.15 3.81-58.4 6.97-87.62 10.25-18.81 2.11-37.62 4.22-56.47 5.86-5.51.48-11.16-.67-16.97-1.08-.38 7.28-.76 14.55-1.14 21.82-1.52 28.87-2.28 57.87-9.14 86.13-7.07 29.1-15.45 57.77-32.62 82.96-12.59 18.48-28.95 32.91-47.64 44.88-1.47.94-3.2 1.47-4.81 2.19-.5-.5-1-1-1.5-1.5z" fill="currentColor"/>
</svg>