<svg enable-background="new 0 0 400 400" viewBox="0 0 400 400" xmlns="http://www.w3.org/2000/svg">
<path d="m114.27 271.61c55.49-5.48 110.72-10.92 167.19-16.5-15.58-23.05-30.41-44.99-45.25-66.94.45-.53.9-1.06 1.36-1.59 2.89 1.25 6.13 2.02 8.6 3.84 14.3 10.55 29.22 20.48 42.36 32.35 10.76 9.71 20.19 21.22 28.65 33.06 9.05 12.67 12.32 27.29 5.79 42.44-1.44 3.35-4.67 7.95-7.39 8.18-2.88.24-7.12-3.43-9.05-6.48-6.57-10.39-12.49-21.2-18.38-31.99-1.26-2.31-2.48-3.14-4.98-2.81-54.12 7.29-108.43 13.7-160.88 29.83-11.99 3.69-23.53 8.88-35.15 13.68-6.2 2.56-10.21 1.39-13.02-4.69-5.97-12.91-4.21-24.55 6.92-32.51 17.27-12.35 29.87-28.83 42.76-45.12 20.62-26.05 38.8-53.62 51.44-84.53 5.72-13.98 11.28-28.05 12.96-43.24.38-3.41.1-6.94-.21-10.38-.64-7.16 2.93-10.3 9.06-6.95 6.96 3.8 13.78 8.12 19.9 13.14 6.91 5.67 7.34 10.92 2.55 18.46-10.53 16.56-20.84 33.28-31.99 49.41-22.32 32.28-45.16 64.2-67.72 96.32-2.49 3.54-6.06 6.72-5.52 13.02z" fill="currentColor"/></svg>