<svg enable-background="new 0 0 400 400" viewBox="0 0 400 400" xmlns="http://www.w3.org/2000/svg">
<path d="m86.92 145.66c11.71-9.03 31.21-7.17 39.71 2.97 16.37 19.51 32.65 39.09 48.99 58.64 1.04 1.24 2.19 2.39 3.99 4.34 5.01-11.93 10.46-22.93 14.3-34.48 6.64-19.95 12.85-40.09 18.13-60.44 3.68-14.2-.8-18.25-15.36-14.99-19.09 4.27-38.03 9.24-57.06 13.82-6.12 1.47-12.27 3.05-18.49 3.84-13 1.64-23.06-4.39-31.75-13.32-.48-.49-.44-1.48-.81-2.84 2.1-.22 3.85-.7 5.56-.55 23.52 1.97 46.38-2.43 69.14-7.4 11.17-2.44 22.26-5.3 33.28-8.37 3.93-1.09 7.39-3.8 11.31-4.95 3.85-1.13 8.48-2.66 11.93-1.5 8.25 2.77 16.31 6.48 23.85 10.84 6.16 3.57 6.32 7.69 1.87 13.22-7.61 9.46-10.44 21.05-14.47 32.08-10.03 27.46-19.47 55.16-33.1 81.15-1.85 3.53-3.72 7.05-4.99 9.44 6.21 6.81 11.74 13.71 18.11 19.72 15.88 14.98 32.44 29.25 51.32 40.37 24.66 14.53 51.31 24.12 79.12 30.68 4.67 1.1 9.16 2.98 13.73 4.5-.07.74-.13 1.47-.2 2.21-4.27.96-8.49 2.31-12.81 2.8-17.82 2-35.64 4.25-53.52 5.44-21.05 1.4-36.66-8.96-49.94-24.42-18-20.96-36.59-41.42-54.91-62.1-.43-.49-.71-1.11-1.39-2.21-33.88 44.39-75.84 71.99-132.86 70.33-.26-.57-.53-1.13-.79-1.7 3.39-1.28 6.72-2.82 10.19-3.81 20.68-5.86 39.63-15.3 57.51-27.08 20.54-13.53 36.35-31.55 49.55-52.04.72-1.12 1.1-3.43.45-4.3-16.25-21.71-31.47-44.36-52.1-62.32-6.16-5.37-13.93-8.88-20.95-13.27-2.04-1.27-4-2.63-6.54-4.3z" fill="currentColor"/></svg>