<svg enable-background="new 0 0 400 400" viewBox="0 0 400 400" xmlns="http://www.w3.org/2000/svg">
<path d="m121.21 295.21c-1.11-2.84-2.75-5.58-3.25-8.52-2.83-16.52-5.55-33.07-8.02-49.65-4.22-28.37-5.99-57.16-14.07-84.88-1.52-5.22-4.01-10.17-6.1-15.22-.7-1.69-1.69-3.26-2.29-4.97-1.93-5.58.17-8.05 6.01-6.84 4.87 1.02 9.85 1.94 14.45 3.76 11.91 4.71 24.22 3.94 36.37 2.6 22.12-2.43 44.27-4.95 66.16-8.82 14.61-2.58 28.9-7.22 43.11-11.65 7.23-2.25 14.17-3.2 20.71.59 10.76 6.24 21.52 12.63 31.59 19.92 8.76 6.34 8.57 13.89 1 21.5-8.13 8.16-12.07 18.75-15.39 29.3-6.62 21.02-12.3 42.34-18.54 63.48-.83 2.8.16 4.12 2.01 5.85 2.9 2.7 5.77 5.57 8.03 8.81 2.72 3.88 1.6 6.48-2.86 7.84-1.56.48-3.24.69-4.88.77-23.43 1.06-46.88 1.78-70.29 3.18-22.73 1.35-45.41 3.44-68.13 5.07-4.23.3-6.7 1.76-7.91 6.21-1.12 4.14-3.48 7.95-5.3 11.91-.79-.09-1.6-.16-2.41-.24zm2.21-146.91c2.46 38.8 4.87 77.03 7.32 115.6 4.88-.73 8.78-1.43 12.7-1.88 35.32-4.1 70.63-8.17 105.96-12.19 2.76-.31 4.35-.89 4.79-4.28 2.36-17.94 5.52-35.78 7.52-53.75 1.44-12.86 2.08-25.88 2.02-38.82-.07-14.82-5.77-19.81-20.58-19.91-.33 0-.67-.03-1 0-12.88 1.32-25.81 2.33-38.64 4.03-26.49 3.51-52.92 7.38-80.09 11.2z" fill="currentColor"/></svg>