<svg enable-background="new 0 0 400 400" viewBox="0 0 400 400" xmlns="http://www.w3.org/2000/svg">
<path d="m82.15 297.32c1.51-6.88 3.17-12 3.67-17.23 1.58-16.2 3.26-32.43 3.9-48.69 1.1-27.6 2.01-55.23 1.88-82.85-.07-15.88-2.05-31.79-3.81-47.62-.51-4.6-3.41-8.91-4.89-13.45-.63-1.94-1.25-4.73-.33-6.05.78-1.11 3.9-1.17 5.81-.81 15.05 2.86 30.1 5.68 45.52 4.16 16.53-1.63 33.08-3.16 49.57-5.18 18.78-2.3 37.53-4.91 56.24-7.76 11.47-1.75 22.87-3.9 33.32-9.56 2.4-1.3 5.94-1.6 8.65-1 12.51 2.78 23.84 8.32 33.78 16.43 6.57 5.36 6.29 9.39 2.97 17.06-3.1 7.17-5.79 15.15-5.98 22.83-.73 30.6-.59 61.23-.4 91.84.08 11.96 1.03 23.91 1.8 35.86.94 14.59 3.02 29.16 2.97 43.74-.07 18.62-4.72 36.53-12.85 53.37-1.67 3.45-3.45 8.63-8.04 7.43-2.87-.75-5.7-4.89-6.91-8.12-4.2-11.19-8.01-22.56-11.33-34.05-2.8-9.71-8.95-13.77-18.67-13.28-13.28.67-26.6.87-39.82 2.1-19.18 1.79-38.26 4.59-57.44 6.48-17.51 1.73-35.08 2.76-52.61 4.29-1.38.12-3.18 1.4-3.85 2.65-1.97 3.63-3.17 7.71-5.24 11.27-3.52 6.04-7.66 6.13-10.23-.2-3.27-8.04-5.43-16.56-7.68-23.66zm24.97-4.98c12.28-.87 24.73-1.24 37.05-2.72 35.29-4.23 70.5-9.16 105.8-13.25 10.08-1.17 20.35-.29 28.87 6.68 1.83 1.49 3.63 3.02 5.45 4.52 1.1-2.51 2.28-4.99 3.27-7.55.35-.9.33-1.97.35-2.96.37-18.11 1.29-36.22.96-54.31-.58-31.6-1.62-63.21-3.13-94.78-.58-12.23-2.63-24.43-4.66-36.53-1.18-7.04-3.19-8.33-10.26-8.29-8.47.04-16.98.19-25.41.94-21.18 1.89-42.35 4.01-63.49 6.29-22.62 2.44-45.21 5.24-67.83 7.68-3.61.39-5.13 1.2-5.13 5.3.01 22.81-.26 45.63-.56 68.44-.36 26.97-.9 53.95-1.24 80.92-.17 12.76-.04 25.54-.04 39.62z" fill="currentColor"/></svg>