<svg enable-background="new 0 0 400 400" viewBox="0 0 400 400" xmlns="http://www.w3.org/2000/svg">
<path d="m87.45 308.34c4.41-3.68 9.26-2.97 13.68-3.22 12.42-.72 24.91-.53 37.29-1.64 15.04-1.35 29.99-3.69 44.99-5.54 2.41-.3 4.49-.26 4.48-3.78-.13-26.16-.1-52.32-.14-78.48 0-.31-.18-.62-.51-1.68-7.5.82-15.17 1.59-22.82 2.5-18.3 2.17-36.6 4.39-54.9 6.61-11.54 1.4-23.06 2.95-34.61 4.2-14.5 1.56-25.92-4.27-35-15.26-.73-.89-1.37-1.87-1.93-2.88-.22-.39-.09-.96-.21-2.89 50.13 1.2 99.56-6.28 149.71-9.31.14-1.8.36-3.24.34-4.68-.39-25.8-.53-51.61-1.31-77.4-.51-16.76-1.53-33.56-7.54-49.54-1.34-3.57-3-7.03-4.3-10.62-1.44-3.96.49-6.35 4.57-5.33 13.01 3.28 25.03 8.91 36.2 16.29 4.17 2.76 5.55 7.13 4.21 11.87-8.6 30.27-8.52 61.42-9.64 92.46-.29 8.11-.74 16.22-1.16 25.19 8.87-.94 17.04-1.79 25.21-2.68 13.86-1.51 27.72-3.06 41.58-4.59 14.03-1.55 28.07-3.03 42.09-4.67 14.51-1.7 28.27-.28 40.13 9.28 3.59 2.9 8.56 5.91 6.78 11.12-1.68 4.93-7.34 3.79-11.47 3.65-17.45-.57-34.9-2.3-52.32-2.03-19.42.3-38.82 2.34-58.23 3.58-10.95.7-21.89 1.33-33.5 2.04-1.02 28.32-2.02 56.31-3.05 85.01 4.76-.35 8.99-.62 13.22-.98 14.08-1.21 28.14-2.57 42.23-3.67 16.9-1.31 33.05.11 45.4 13.84.89.99 1.82 1.97 2.5 3.1 1.77 2.95 1.26 5.35-2.43 5.76-5.27.58-10.66 1.42-15.87.88-26.93-2.8-53.82-2.39-80.72.12-25.32 2.37-50.62 4.81-75.93 7.27-4.63.45-9.22 1.3-13.86 1.57-2.77.16-5.73.03-8.34-.8-9.23-2.91-17.77-7.09-24.82-14.67z" fill="currentColor"/></svg>