<svg enable-background="new 0 0 400 400" viewBox="0 0 400 400" xmlns="http://www.w3.org/2000/svg">
<path d="m358.34 330.28c-5.96 1.55-11.86 3.5-17.91 4.57-15.75 2.8-31.64 4.35-47.67 3.27-11.48-.77-21.59-4.51-30.08-12.69-24.22-23.34-48.63-46.48-72.97-69.69-.82-.78-1.7-1.5-2.88-2.53-35.65 40.17-76.92 71.28-130.06 83.7-4.63 1.08-9.59.79-14.39 1.13-.2-.69-.4-1.38-.59-2.06 3.23-1.74 6.41-3.6 9.71-5.21 44.25-21.63 84.28-48.87 116.02-87.15 1.25-1.51 2.37-3.14 3.74-4.98-14.29-15.89-26.98-32.96-45.32-44.32-1.4-.87-2.76-1.91-3.88-3.12-2.21-2.39-1.85-4.76 1.14-5.98 8.4-3.42 14.01-3.57 20.32 3.13 11.05 11.72 22.62 22.94 34 34.35 1.03 1.04 2.22 1.91 4.09 3.5 6.99-11.33 14.61-21.89 20.33-33.39 7.51-15.1 13.55-30.94 20.18-46.48.58-1.36.93-2.84 1.29-4.29 2.46-9.92-1.02-13.9-11.17-12.4-10.83 1.6-21.65 3.34-32.41 5.34-9.88 1.84-19.49 1.58-29.3-2.71-22.55 40.38-48.03 78.13-89.72 101.19-.47-.36-.95-.72-1.42-1.08 1.49-1.98 2.82-4.11 4.5-5.92 39.26-42.59 67.52-91.6 85.34-146.65 2.24-6.92 3.75-14.1 5.2-21.24.51-2.5-.06-5.25-.33-7.87-.41-3.93 1.53-6.15 4.73-4.35 7.6 4.28 15.23 8.76 21.98 14.22 4.64 3.75 3.72 8.06.45 13.9-8.58 15.35-16.84 30.88-25.21 46.35-.38.7-.58 1.51-1.26 3.34 7.29-.48 14.1-.2 20.58-1.51 13.95-2.82 27.76-6.38 41.58-9.82 2.37-.59 4.66-1.86 6.74-3.19 7.06-4.5 14.1-4.62 21.01.01 6.07 4.07 12.15 8.18 17.84 12.75 4.8 3.86 5.38 9.09 1.09 13.04-13.02 11.98-20.84 27.44-29.56 42.36-11.92 20.38-24.17 40.57-36.68 61.5 3.23 3 6.93 6.5 10.68 9.94 25.81 23.64 53.51 44.7 86.24 57.74 17.21 6.86 35.35 11.36 53.07 16.95 3.68 1.16 7.34 2.43 11 3.65-.02.91-.03 1.8-.04 2.7z" fill="currentColor"/>
</svg>