<svg enable-background="new 0 0 400 400" viewBox="0 0 400 400" xmlns="http://www.w3.org/2000/svg">
<path d="m205.32 246.18c-42.39 46.77-92.36 78.45-156.59 82.95-.24-.45-.48-.89-.71-1.34 3.41-1.67 6.79-3.41 10.23-4.99 17.36-7.97 34.99-15.39 52.04-23.96 31.89-16.02 58.39-38.73 80.59-67.56-14.88-19.34-29.84-38.79-44.94-58.43-20.17 28.06-41.14 54-73.06 67.85-.54-.5-1.09-1-1.63-1.49 2.32-2.8 4.54-5.69 6.96-8.4 11.19-12.54 22.87-24.67 33.51-37.66 7.03-8.59 12.53-18.42 18.81-27.63 1.92-2.82 1.75-4.95-.87-7.29-7.91-7.07-15.52-14.48-23.58-21.37-2.92-2.49-6.79-3.85-10.37-5.8 6-6.8 19.05-6.6 26.03-.12 5.73 5.31 11.43 10.65 17.6 16.39 1.06-1.7 1.97-2.98 2.69-4.36 13.06-24.99 21.5-51.43 24.34-79.51.45-4.49-.73-9.19-1.48-13.74-.88-5.36.95-7.66 5.63-5.42 7.74 3.7 15.35 7.89 22.33 12.84 5.36 3.8 4.3 6.61 1.06 12.26-5.86 10.2-10.89 20.88-15.91 31.53-2.96 6.28-5.23 12.88-8.28 20.5 10.92-2.13 20.95-3.94 30.92-6.06 13.87-2.95 27.23-7.42 39.6-14.48 3.16-1.81 6.19-2.14 9.32-.28 8.41 4.99 17.05 9.65 25.1 15.18 5.88 4.04 5.65 8.01-.36 11.54-8.77 5.15-13.59 12.87-16.57 22.2-9.12 28.49-22.33 55.1-37.36 80.87-.75 1.29-1.44 2.61-2.75 4.99 9.19 9.03 18.2 18.59 27.95 27.33 16.88 15.14 35.14 28.52 54.76 39.95 15.52 9.04 32.62 13.94 49.91 18.25 3.21.8 6.39 1.84 9.44 3.1 3.4 1.4 3.64 3.64.16 5.02-4.13 1.64-8.49 3.46-12.83 3.66-14.94.68-29.91.94-44.86.82-6.26-.05-12.58-1.08-18.74-2.31-10.39-2.07-18.5-7.93-24.91-16.28-16.61-21.66-33.25-43.3-49.9-64.94-.98-1.3-2.12-2.47-3.28-3.81zm-3.49-29.28c.72-.49 1.06-.61 1.22-.85 17.14-25.39 28.64-53.16 34.6-83.16 1.85-9.31-2.54-13.23-11.95-11.4-6.82 1.32-13.51 3.3-20.25 5.01-8.78 2.23-17.38 5.95-26.75 3.55-3.34-.86-6.58-2.09-9.91-3.16-5.35 10.08-10.52 20.12-16.02 29.97-1.48 2.65-1.26 4.45.59 6.55 9.46 10.73 18.78 21.6 28.36 32.23 6.55 7.26 13.43 14.22 20.11 21.26z" fill="currentColor"/>
</svg>