<svg enable-background="new 0 0 400 400" viewBox="0 0 400 400" xmlns="http://www.w3.org/2000/svg">
<path d="m202.37 139.85c-10.68 12.15-21.21 24.11-32.06 36.45 3.27 1.41 6.69 2.85 10.07 4.36 12.35 5.53 24.4 11.61 33.72 21.75 6.68 7.27 10.78 15.55 8.11 25.91-2.51 9.75-7.51 11.55-14.47 4.15-7.85-8.35-14.68-17.64-22.12-26.38-7.32-8.6-14.84-17.03-22.62-25.93-15.52 15.22-33.36 24.67-54.13 28.22-.28-.37-.57-.75-.85-1.12 1.86-1.6 3.61-3.35 5.59-4.77 45.86-32.91 79.24-76.01 102.64-126.96 3.93-8.56 5.13-18.41 7.29-27.73.68-2.92 1.72-4.22 4.67-3.24 9.62 3.17 18.21 8.15 25.33 15.34 3.14 3.18 1.71 6.55-.64 9.88-14.34 20.38-28.56 40.85-42.81 61.31-.17.24-.11.63-.28 1.83 4.14 0 8.21.26 12.23-.04 19.42-1.46 38.91-3.58 56.99-10.98 22.09-9.04 21.69-5.51 37.66 4.87 2.51 1.63 5.02 3.31 7.27 5.26 3.41 2.94 3.57 6.76.5 9.65-17.91 16.86-27.2 39.19-38.55 60.19-19.02 35.21-41.3 67.99-70.58 95.57-32.43 30.54-70.35 50.33-114.56 57.43-4.42.71-8.96.7-13.45 1.03-.17-.67-.33-1.34-.5-2.01 5.3-2.57 10.48-5.41 15.91-7.67 40.27-16.74 76.34-39.82 106.98-71 26.67-27.13 46.74-58.73 62.08-93.43 3.89-8.81 7.62-17.69 11.28-26.6.87-2.12 1.47-4.45 1.68-6.73.52-5.79-2.61-9.88-8.33-9.23-10.84 1.23-21.59 3.33-32.32 5.41-6.01 1.16-11.82 3.46-17.85 4.42-9.49 1.48-16.92-3.48-23.88-9.21z" fill="currentColor"/>
</svg>