<svg enable-background="new 0 0 400 400" viewBox="0 0 400 400" xmlns="http://www.w3.org/2000/svg">
<path d="m345.95 344.56c-2.82.5-5.63 1.42-8.45 1.44-22.16.1-44.32.33-66.47-.11-14.64-.29-25.09-8.43-33.35-19.97-21.45-29.97-39.44-62.01-56.8-94.44-1.64-3.06-3.32-6.11-5.6-10.31-.91 3.08-1.56 5.13-2.13 7.2-6.35 23.21-14.16 45.88-28.48 65.51-18.42 25.25-43.54 41.16-73.23 50.15-4.67 1.41-9.46 2.46-14.75 2.75 29.49-17.49 56.03-37.79 73.61-67.88 17.23-29.49 26.72-61.22 28.97-96.22-21.18 3.75-41.54 7.46-61.96 10.88-3.16.53-6.71.36-9.79-.51-9.85-2.81-18.73-7.43-27.02-16.63 4.66-.99 8-2.38 11.3-2.3 28.91.73 57.35-3.74 85.86-7.38.97-.12 1.9-.55 4.16-1.22 0-9.16.1-18.61-.02-28.06-.22-16.65-.27-33.3-1-49.93-.46-10.48-2.48-20.79-7.62-30.2-.63-1.16-1.11-2.42-1.5-3.69-1.19-3.79.51-6.54 4.2-5.44 10.75 3.21 21.43 6.82 31.78 11.12 4.4 1.83 4.73 7.2 2.96 11.05-7.04 15.27-6.9 31.71-8.16 47.85-1.14 14.72-1.19 29.52-1.75 45.08 8.77-1.36 16.78-2.39 24.7-3.87 19.57-3.63 39.04-7.83 58.67-11.08 11.34-1.88 22.39-.45 30.8 8.81 1.37 1.51 2.12 3.57 3.16 5.38-1.93 1.08-3.76 2.82-5.8 3.12-11.34 1.66-22.71 3.11-34.09 4.38-25.09 2.8-50.2 5.46-75.3 8.17-2.48.27-3.69 1.27-3.87 4.07-.45 6.79-1.44 13.55-1.96 20.34-.13 1.64.25 3.67 1.16 4.98 17.84 25.53 36.3 50.56 58.12 72.95 20.24 20.78 44.62 35.04 71.09 46.1 10.26 4.29 20.68 8.21 30.99 12.4 2.67 1.08 5.19 2.52 7.79 3.79-.08.58-.15 1.15-.22 1.72z" fill="currentColor"/>
</svg>