<svg enable-background="new 0 0 400 400" viewBox="0 0 400 400" xmlns="http://www.w3.org/2000/svg">
<path d="m139.42 321.84c6.33.84 12.64 1.89 19 2.47 8.24.75 16.5 1.38 24.77 1.58 7.16.17 12.3-3.55 15.56-9.86 5.38-10.41 7.18-21.75 8.03-33.2 1.92-25.65-.11-51.15-3.71-76.55-.79-5.56-1.44-11.14-2.22-17.16-8.01.74-15.61 1.18-23.13 2.2-20.56 2.77-41.16 5.41-61.62 8.83-14.71 2.46-29.25 5.99-43.8 9.29-5.94 1.35-11.44.37-16.2-2.87-5.8-3.95-11.06-8.69-16.56-13.09.29-.36.58-.71.86-1.07 52.35-5.99 104.7-11.98 157.51-18.03-3.79-16.54-13.63-27.07-26.56-35.37.24-.49.48-.98.73-1.46 2.15-.32 4.32-.98 6.45-.89 7.97.33 15.93.98 23.9 1.29 1.39.05 3.43-.54 4.14-1.56 11.28-16.06 22.73-32.02 33.4-48.48 6.01-9.27 3.75-13.12-7.32-11.58-14.41 2-28.79 5.1-42.74 9.22-12.51 3.7-24.47 9.28-36.56 14.33-5.87 2.45-11.87 3.43-17.29.24-6.66-3.91-13.06-8.47-18.84-13.59-3.87-3.42-2.68-5.79 2.5-6.92 1.61-.35 3.32-.75 4.91-.56 26.52 3.25 51.98-2.63 77.19-9.49 13.71-3.74 27.01-9.02 40.43-13.79 5.66-2.01 11.13-1.85 16.4.74 10.44 5.12 19.51 12.11 26.97 21.04 4.99 5.98 3.84 7.58-2.66 11.5-11.36 6.85-22.38 14.38-33.02 22.31-13.32 9.94-26.12 20.58-38.45 30.36 3.12 8.95 5.87 17.25 9.03 25.4.38.99 3 1.78 4.45 1.59 15.82-2 31.62-4.18 47.41-6.38 19.71-2.75 39.18-7.78 59.33-6.49 11.75.75 19.98 7.49 26.95 16.17 2.26 2.81 1.55 5.03-2.22 5.49-5.26.63-10.55 1.33-15.83 1.45-21.64.51-43.32.17-64.91 1.39-16.22.91-32.33 3.71-48.48 5.69-.62.08-1.21.39-1.87.61 4.31 27.84 5.06 55.75 6.2 83.65.81 19.98-.32 39.51-8.25 58.15-5.38 12.65-12.54 24.23-22.1 34.14-7.28 7.54-10.01 7.13-16.57-.94-11.37-13.98-25.73-24.52-40.41-34.66-1.82-1.26-3.51-2.7-5.27-4.06.14-.36.3-.72.47-1.08z" fill="currentColor"/></svg>