<svg enable-background="new 0 0 400 400" viewBox="0 0 400 400" xmlns="http://www.w3.org/2000/svg">
<path d="m268.25 154.47c2.97-5.09 6-10.16 8.9-15.29 3.66-6.48 7.83-12.77 10.66-19.6 2.87-6.93-.1-10.9-7.48-10.42-19.72 1.27-39.43 2.82-59.12 4.61-15.71 1.43-31.36 3.43-47.05 5.07-17.85 1.86-35.68 4.03-53.58 5.18-8.63.55-17.39-.92-26.89-1.53-.29 1.21-.87 3.89-1.56 6.54-3.99 15.32-10.72 29.34-20.87 41.49-2.19 2.62-6.68 5.63-9.26 4.99-2.66-.66-5.11-5.27-6.18-8.63-2.76-8.66.46-16.76 4.27-24.38 3.63-7.28 8.44-13.99 11.86-21.35 3.54-7.63 6.04-15.74 8.99-23.64.23-.61.26-1.35.61-1.86.98-1.4 2.08-2.71 3.13-4.06 1.16 1.1 2.75 2 3.42 3.35 2.06 4.16 4.18 8.36 5.49 12.78 1.08 3.62 2.91 4.57 6.39 4.32 19.89-1.4 39.85-2.15 59.68-4.11 25.94-2.55 51.85-5.59 77.65-9.25 15.09-2.14 30.06-5.42 44.87-9.05 10.88-2.67 20.99-1.81 30.02 4.43 9.95 6.87 19.52 14.39 28.72 22.25 6.6 5.64 5.38 9.33-3.16 11.82-8.73 2.55-17.91 3.98-26.16 7.57-10.77 4.7-20.78 11.12-31.21 16.63-3.32 1.76-6.94 2.96-10.42 4.41-.59-.75-1.15-1.51-1.72-2.27z" fill="currentColor"/>
<path d="m216.29 63.66c-.8 2.11-1.59 5.38-3.2 8.18-3.44 5.98-8.13 7.02-13.74 2.97-14.18-10.26-25.89-22.81-34.32-38.25-1.91-3.49-.94-5.69 3.1-5.48 14.6.76 28.75 3.42 40.12 13.64 5.16 4.63 7.24 10.95 8.04 18.94z" fill="currentColor"/>
</svg>