<svg enable-background="new 0 0 400 400" viewBox="0 0 400 400" xmlns="http://www.w3.org/2000/svg">
<path d="m160.75 316.23c5.26 1.28 10.51 2.62 15.79 3.83 8.23 1.89 16.46 3.82 24.74 5.47 6.14 1.23 10-.89 12.09-6.85 1.25-3.56 2.3-7.41 2.33-11.14.4-50.31.61-100.62.84-150.92 0-.64-.21-1.28-.41-2.39-5.33.35-10.59.58-15.82 1.07-27.96 2.6-55.92 5.2-83.87 7.96-9.58.95-19.09 2.72-28.68 3.47-14.27 1.12-26.31-4.33-36.56-14-.94-.89-1.2-2.51-2.38-5.15 14.95 0 28.8.38 42.62-.11 13.95-.49 27.88-1.65 41.79-2.85 13.74-1.19 27.44-2.73 41.15-4.22 13.85-1.51 27.69-3.15 42.17-4.8 0-7.63.2-15.09-.05-22.53-.36-10.63-.94-21.25-1.61-31.87-.85-13.67-2.81-27.09-9.01-39.58-2.55-5.14-1.05-7.49 4.51-6.93 10.27 1.03 19.74 4.47 28.06 10.71 5.1 3.82 6.08 9.31 4.11 14.81-5.02 14.03-5.4 28.69-6.31 43.24-.6 9.56-.11 19.18-.11 29.15 10.67-1.04 21.87-2.05 33.05-3.26 12.55-1.36 25.05-3.35 37.62-4.25 17.3-1.24 30.39 7.03 40.67 20.19 3.77 4.83 2.24 8.13-3.82 7.91-8.94-.32-17.84-2.04-26.79-2.33-19.6-.64-39.21-.9-58.82-1.01-7.45-.04-14.91.75-23.02 1.2v5.17c.11 42.32.26 84.65.32 126.97.02 13.79.25 27.61-.44 41.37-.74 14.65-5.18 28.09-16.27 38.53-1.33 1.25-2.75 2.45-4.28 3.43-4.68 3-8.4 2.06-11.11-3.03-2.03-3.8-3.26-8.06-5.52-11.71-6.64-10.74-16.61-18.01-26.8-25.03-3.88-2.67-7.49-5.71-11.23-8.59.39-.64.72-1.29 1.05-1.93z" fill="currentColor"/>
<path d="m145.46 235.48c-1.15 5.85-1.94 11.8-3.53 17.54-2.02 7.32-7.15 8.52-11.83 2.52-6.22-7.98-12.02-16.34-17.45-24.88-5.43-8.55-10.3-17.46-15.17-26.35-1.18-2.15-1.39-4.84-2.05-7.28 2.67-.04 5.72-.95 7.95.02 9.84 4.29 19.72 8.65 29.07 13.89 9.26 5.17 12.76 14.04 13.01 24.54z" fill="currentColor"/>
</svg>