<svg enable-background="new 0 0 400 400" viewBox="0 0 400 400" xmlns="http://www.w3.org/2000/svg">
<path d="m140.07 295.64c6.45 1.26 12.9 2.5 19.35 3.78 4.55.91 9.07 2 13.64 2.79 6.82 1.18 11.11-1.32 11.71-8.1 1.7-19.01 3.58-38.05 3.99-57.12.59-27.81.63-55.67-.38-83.46-.79-21.7-3.07-43.39-5.72-64.96-.83-6.78-4.99-13.16-7.69-19.7-.44-1.06-1.47-1.92-1.74-2.99-.55-2.15-.76-4.39-1.11-6.6 2.02-.16 4.26-.98 6.01-.37 9.68 3.38 19.51 6.52 28.74 10.9 7.83 3.71 9 8.69 6.29 16.95-5.52 16.84-5.76 34.32-6.14 51.77-.22 10.31-.93 20.65-.5 30.94 1.22 28.73 3.27 57.43 4.31 86.16.85 23.45 1.38 47.08-8.8 69.12-2.82 6.11-6.61 11.93-10.78 17.23-4.69 5.96-9.8 5.63-13.71-.64-9.94-15.94-21.25-30.62-36.41-42.02-.71-.54-1.07-1.55-1.59-2.34.17-.44.35-.89.53-1.34z" fill="currentColor"/>
<path d="m268.46 160.3c2.32.4 4.83.34 6.92 1.26 11.39 5 23.26 9.27 33.87 15.61 15.67 9.37 26.23 23.4 30.27 41.54 1.88 8.45.85 16.89-3.04 24.76-3.16 6.4-7.4 7.23-12.48 2.1-3.13-3.16-5.76-6.87-8.27-10.57-13.56-19.91-27.07-39.86-40.49-59.88-2.89-4.3-5.32-8.91-7.96-13.38.39-.48.78-.96 1.18-1.44z" fill="currentColor"/>
<path d="m102.36 167.9c.88 4.94 2.12 9.84 2.59 14.81 2.77 29.33-6.93 54.92-24.2 78.02-2.78 3.71-5.92 8.48-11.56 7.38-5.89-1.15-6.65-6.98-8.12-11.59-2.71-8.48-.98-16.42 4.12-23.63 13.11-18.52 24.16-38.14 32.38-59.33.76-1.96 1.83-3.8 2.75-5.69.68.02 1.36.02 2.04.03z" fill="currentColor"/>
</svg>