<svg enable-background="new 0 0 400 400" viewBox="0 0 400 400" xmlns="http://www.w3.org/2000/svg">
<path d="m188 174.22c1.26-14.38 2.6-26.1 3.25-37.86.93-16.92 2.44-33.98-2.45-50.56-1.76-5.97-5.24-11.42-7.67-17.22-.98-2.34-1.25-4.98-1.84-7.48 2.62-.43 5.56-1.85 7.8-1.13 8.62 2.79 17.13 6 25.45 9.59 3.98 1.72 4.82 5.67 2.61 9.3-5.45 8.99-5.84 19.01-5.88 28.93-.08 19.8.7 39.61.59 59.42-.04 7.92-1.29 15.87-2.43 23.74-.3 2.04-1.96 4.93-3.59 5.4-1.44.42-4.2-1.57-5.51-3.2-5.11-6.35-9.91-12.97-10.33-18.93z" fill="currentColor"/>
<path d="m255.45 108.72c16.48.76 32.4 4.25 47.74 10.45 7.38 2.98 13.75 7.53 18.53 13.98 4.8 6.47 7.99 13.46 5.54 21.84-1.6 5.49-5.01 7.79-10.07 5.18-7.18-3.71-14.22-7.98-20.51-13.02-13.23-10.62-25.95-21.87-38.82-32.94-1.29-1.11-2.16-2.69-3.22-4.06.26-.48.53-.96.81-1.43z" fill="currentColor"/>
<path d="m122.15 109.92c4.26 7.66 5.51 15.09 4.62 22.37-2.6 21.37-13.34 38.97-27.2 54.88-1.18 1.36-2.67 2.52-4.21 3.47-4.19 2.57-7.26 1.82-9.46-2.48-3.96-7.73-4.94-18.97 2.05-27.47 11.77-14.32 23.26-29.03 31.08-46.12.6-1.31 1.62-2.43 3.12-4.65z" fill="currentColor"/>
</svg>