<svg enable-background="new 0 0 400 400" viewBox="0 0 400 400" xmlns="http://www.w3.org/2000/svg">
<path d="m151.56 169.91c-18.32 3.98-35.79 7.91-53.32 11.53-12.14 2.51-22.15-2.23-30.91-10.21-.93-.85-1.87-3.06-1.42-3.76.76-1.19 2.54-2.19 4.02-2.4 8.56-1.19 17.19-1.84 25.72-3.19 18.35-2.91 36.63-6.24 54.98-9.17 4.09-.65 4.28-3.19 4.55-6.33 1.49-17.54 3.55-35.05 4.48-52.62.55-10.3-1.44-20.5-5.84-30.08-.75-1.63-1.25-4.37-.41-5.47.86-1.12 3.87-1.68 5.35-1.07 9.62 3.96 19.38 7.78 28.5 12.73 5.56 3.02 4.89 5.88 3.12 12.26-3.84 13.9-7.03 27.99-10.22 42.07-1.65 7.27-2.72 14.66-4.22 22.91 4.39-.98 8.34-1.75 12.22-2.75 21.53-5.59 42.97-11.54 64.59-16.74 10.64-2.56 20.92-1.08 29.11 7.32 5.43 5.57 4.51 9.64-3.02 11.14-16.27 3.24-32.63 6.05-48.96 9.03-11.25 2.05-22.51 4.1-34.72 6.33 3.74 2.53 6.93 4.47 9.88 6.73 7.38 5.67 7 7.25 3.81 15.66-3.27 8.62-5.81 17.75-6.99 26.88-2.2 17.1-3.97 34.34-4.36 51.56-.2 8.91 2.11 18.15 4.78 26.78 5.77 18.72 20.16 27.39 38.67 29.8 20.3 2.64 40.48.74 60.51-2.99 9.99-1.86 17.89-7.04 21.8-16.44 4.44-10.68 7.83-21.8 11.62-32.75 1.52-4.38 2.88-8.82 4.31-13.23.67.1 1.33.21 2 .31 0 2.22-.09 4.44.02 6.66.6 12.11.85 24.26 2.09 36.31.47 4.58 2.76 9.19 5.05 13.32 2.69 4.85 2.7 9.11-.56 13.45-5.4 7.18-13.18 10.43-21.48 12.64-17.13 4.56-34.66 5.75-52.3 6.41-18.58.7-36.84-.59-54.51-6.79-23.69-8.31-35.52-25.43-37.59-50.15-2.47-29.57.99-58.76 4.76-87.96 1.41-10.91 2.24-21.79-.19-33.23-3.84.84-7.65 1.27-11.1 2.62-1.52.6-2.73 2.95-3.33 4.75-8.01 24.27-14.75 49.03-24.03 72.8-16.27 41.67-45.78 71.57-86.22 90.65-2.13 1-4.47 1.57-6.71 2.34-.58-.75-1.16-1.5-1.74-2.24 2.27-1.6 4.78-2.96 6.78-4.85 18.01-17.08 36.15-34.04 50.21-54.75 21.61-31.87 35.06-66.9 41.22-105.82z" fill="currentColor"/></svg>