<svg enable-background="new 0 0 400 400" viewBox="0 0 400 400" xmlns="http://www.w3.org/2000/svg">
<path d="m200.29 225.63c-13.06 1.95-25.78 3.86-39.15 5.85 3.66 3.17 7.02 5.78 10.04 8.74 6.11 6.03 6 8.09 1.17 14.89-10.01 14.1-19.16 28.86-29.82 42.44-21.26 27.06-47.4 47.51-81.62 55.87-2.37.58-4.84.78-7.26 1.15-.22-.41-.45-.83-.67-1.24 2.48-1.94 4.84-4.04 7.45-5.79 11.59-7.78 23.87-14.67 34.74-23.33 22.95-18.29 39.48-41.66 50.26-68.97 3.38-8.56 3.59-13.82 1.93-20.86-9.35 1.77-18.78 3.36-28.11 5.38-11.97 2.59-23.47 1.69-34.48-3.76-2.13-1.06-4-2.64-5.99-3.98.05-.64.09-1.29.14-1.93 5.07-1.04 10.1-2.34 15.21-3.08 28.9-4.21 57.87-7.93 86.71-12.53 17.83-2.84 35.42-7.1 53.18-10.41 9.83-1.83 18.91-.07 26.06 7.7 3.69 4.01 3.13 6.7-2.14 7.4-11.85 1.57-23.76 2.63-35.64 3.9-3.23.35-6.46.72-10.15 1.13 3.71 4.06 7.17 7.58 10.31 11.36 3.13 3.78 3.07 7.69 2.23 12.82-2.4 14.7-3.63 29.64-4.46 44.54-.38 6.87.91 13.9 2.04 20.77 1.48 9.07 7.26 14.73 16.21 15.99 10.66 1.49 21.47 2.76 32.2 2.7 12.26-.06 24.6-1.1 36.76-2.77 20.73-2.84 27.74-10.37 32.47-32.99 1.38-6.62 2.67-13.26 4-19.89.57-.01 1.13-.02 1.7-.03.82 6.08 1.95 12.14 2.41 18.24.82 11.07 2.5 21.75 9.04 31.2 2.71 3.91 1.64 8.11-2.3 12.08-6.67 6.74-15.43 9.03-24.24 10.74-23.94 4.65-48.17 6.08-72.49 4.91-7.72-.37-15.46-2.02-23.02-3.83-17.18-4.11-26.34-15.89-27.88-32.9-1.12-12.35-.38-24.88-.35-37.33.03-15.62.86-31.29-3.75-46.53-.79-2.49-1.77-4.92-2.74-7.65z" fill="currentColor"/>
</svg>