<svg enable-background="new 0 0 400 400" viewBox="0 0 400 400" xmlns="http://www.w3.org/2000/svg">
<path d="m341.84 265.37c.74 7.35 1.21 14.74 2.31 22.04 1.06 7.03 2.29 14.12 4.4 20.89 1.23 3.95 4.02 7.57 6.67 10.9 3.11 3.91 3.77 7.53.93 11.77-4.31 6.44-10.57 10.18-17.76 12.12-30.01 8.1-60.03 8.83-89.8-1.1-19.65-6.55-29.26-20.82-31.83-41.12-3.62-28.64-.6-57.1.66-85.65.62-14.05.13-28.19-.71-42.23-.29-4.75-3.34-9.3-4.85-14.03-.62-1.93-1.19-4.44-.42-6.04.47-.98 3.83-1.52 5.34-.9 9.02 3.66 17.99 7.48 26.67 11.86 1.49.75 2.79 5.21 1.95 6.72-6.5 11.74-7.72 24.76-8.92 37.54-2.08 22.16-3.69 44.41-4.12 66.65-.18 9.74 2.49 19.69 4.88 29.29 2.92 11.75 11.7 17.75 23.16 19.94 17.26 3.3 34.6 4.45 51.99.9 9.63-1.97 16.51-7.23 18.74-17.08 2.82-12.45 5.14-25.01 7.71-37.52.36-1.75.91-3.46 1.38-5.19.54.08 1.08.16 1.62.24z" fill="currentColor"/>
<path d="m65.81 350.75c3.33-2.32 6.58-4.78 10.02-6.95 13.74-8.65 26.56-18.44 37.02-30.95 13.85-16.57 20.79-36.18 24-57.21 3.07-20.12 4.39-40.38 1.97-60.66-.74-6.16-3.08-12.12-4.59-18.19-.42-1.68-1.3-4.01-.56-5 .77-1.03 3.44-1.48 4.92-1.02 7.4 2.31 14.92 4.49 21.93 7.72 5.48 2.52 5.58 5.85 4.48 11.58-1.75 9.09-3.21 18.32-3.7 27.55-1.45 27.09-5.09 53.69-17.5 78.19-15.81 31.24-41.88 49.09-75.76 56.17-.46.1-.98-.06-1.47-.1-.26-.38-.51-.76-.76-1.13z" fill="currentColor"/>
<path d="m48.12 193.24c5.52-4.7 10.18-8.56 14.74-12.55 30.25-26.48 54.83-57.51 74.19-92.69 4.05-7.35 6.59-15.14 5.65-23.87-.58-5.4 2.32-7.41 6.99-4.47 7.69 4.84 15.01 10.34 22.07 16.07 3.5 2.84 3.73 6.9.5 10.6-17.41 19.93-34.61 40.06-52.29 59.75-19.02 21.18-42.33 36.29-68.79 46.61-.57.23-1.22.24-3.06.55z" fill="currentColor"/>
<path d="m218.49 70.05c2.28.32 4.7.24 6.81 1 28.22 10.2 55.34 22.49 78.72 41.81 11.65 9.63 13.47 23.65 9.42 37.19-1.67 5.59-5.41 6.88-10.4 3.81-2.38-1.46-4.48-3.43-6.53-5.36-23.74-22.33-47.48-44.67-71.12-67.11-2.94-2.79-5.32-6.17-7.95-9.28.36-.68.71-1.37 1.05-2.06z" fill="currentColor"/></svg>