<svg enable-background="new 0 0 400 400" viewBox="0 0 400 400" xmlns="http://www.w3.org/2000/svg">
<path d="m295.05 148.13c4.08 4.88 7.74 8.97 11.08 13.32 3.12 4.07 2.42 6.49-2.9 7.77-7.23 1.74-14.64 2.87-22.03 3.79-27.35 3.42-54.72 6.67-82.08 9.94-9.07 1.09-18.16 2.06-27.49 3.11-1.86 10.19-3.43 20.31-5.58 30.31-8.61 39.96-24.94 76.29-51.61 107.59-12.74 14.96-28.29 26.09-46.56 33.39-.73.29-1.5.5-2.93-.02 1.14-1.17 2.27-2.35 3.42-3.5 22.65-22.73 43.24-47.01 57.19-76.26 9.86-20.67 15.81-42.6 20.11-64.95 5.48-28.47 8.3-57.25 7.07-86.27-.64-15.08-1.56-30.24-8.34-44.27-.81-1.68-1.01-4.76-.01-5.89 1.05-1.19 3.95-1.35 5.9-1.04 3.58.56 7.34 1.24 10.53 2.85 12.73 6.4 26.12 6.12 39.51 3.92 22.41-3.68 44.82-7.52 67.03-12.24 8.11-1.72 15.53-6.45 23.49-9.14 3.55-1.2 8.02-1.9 11.46-.84 12.92 3.98 23.83 11.67 33.73 20.69 4.09 3.72 4.21 7.96-.03 10.56-14.35 8.81-21.56 23.2-29.8 36.79-4.05 6.67-7.51 13.67-11.16 20.39zm-123.58 23.55c.97.05 1.78.22 2.54.1 31.62-5.01 63.24-9.99 94.82-15.22 1.58-.26 3.55-2.39 4.09-4.05 3.14-9.61 6.54-19.21 8.61-29.08 1.93-9.19 2.9-18.69 3.18-28.08.24-7.96-4.35-12.24-10.96-11.9-3.97.21-7.94.68-11.88 1.23-17.59 2.44-35.18 4.91-52.75 7.44-11.6 1.67-23.19 3.47-34.54 5.18-1.04 25.09-2.07 49.6-3.11 74.38z" fill="currentColor"/></svg>