<svg enable-background="new 0 0 400 400" viewBox="0 0 400 400" xmlns="http://www.w3.org/2000/svg">
<path d="m191.59 210.01c-17.04 3.34-33.01 6.29-48.88 9.68-5.64 1.21-11.25 3.09-16.51 5.48-4.45 2.02-8.64 4.88-12.43 8.01-3.16 2.61-5.47 2.59-8.12-.24-6.78-7.24-9.12-19.32-4.04-27.82 12.7-21.23 7.93-41.43-2.59-61.47-1.92-3.66-4.64-6.9-6.68-10.51-2.52-4.46-.82-7.89 3.99-6.9 9.17 1.9 18.17 4.78 27.04 7.84 3.15 1.09 3.77 4.38 3.54 8-1.14 18.08-2.04 36.18-2.77 54.28-.19 4.85 3.09 7.53 9.23 7.37 5.95-.15 11.9-1.08 17.82-1.82 13.31-1.67 26.61-3.44 40.62-5.26 0-4.23.04-8.19-.01-12.16-.32-24.81-.16-49.63-1.18-74.41-.63-15.22-2.7-30.42-4.93-45.52-.85-5.76-4.15-11.13-5.93-16.8-1.5-4.77.13-6.69 5.11-6 9.9 1.36 18.91 5.17 26.76 11.35 3.78 2.98 4.96 6.92 3.91 12-2.15 10.37-4.08 20.83-5.24 31.35-1.02 9.23-1.03 18.6-1.18 27.91-.34 21.64-.5 43.29-.73 64.93-.02 1.79 0 3.57 0 5.99 8.95-.47 17.24-.77 25.5-1.38 11.11-.81 22.2-1.79 33.28-2.91 1.3-.13 3.25-1.32 3.58-2.41 6.99-22.9 11.48-46.16 8.13-70.22-.68-4.86-2.82-9.5-4.11-14.29-.4-1.48-.85-3.86-.11-4.53 1.06-.95 3.33-1.26 4.86-.89 10.66 2.55 20.32 7.31 28.8 14.24 5.34 4.36 5.03 7.56 2.86 14.05-4.52 13.49-8.07 27.29-12.11 40.94-3.53 11.93-6.9 23.92-10.94 35.68-1.76 5.12-4.75 9.88-7.69 14.48-1.18 1.85-3.75 2.81-5.68 4.18-1.25-1.86-3.01-3.57-3.63-5.62-1.24-4.08-1.86-8.35-2.91-13.4-19.75 1.47-39.55 2.95-59.83 4.46 0 2.78.01 4.75 0 6.72-.11 37.82.1 75.65-.57 113.46-.18 10.14-2.82 20.28-4.88 30.3-.47 2.3-2.95 5.2-5.07 5.79-1.38.39-4.43-2.51-5.64-4.58-8.19-13.99-13.01-28.56-8.39-45.14 4.93-17.7 6.33-35.96 6.93-54.25.47-14.31.55-28.62.8-42.94.05-1.83.02-3.64.02-7.02z" fill="currentColor"/></svg>