<svg enable-background="new 0 0 400 400" viewBox="0 0 400 400" xmlns="http://www.w3.org/2000/svg">
<path d="m304.7 261.83c-5.19.43-9.28.73-13.36 1.12-24.81 2.37-49.69 4.12-74.4 7.3-36.72 4.72-73.32 10.42-108.13 23.9-8.59 3.32-16.46 7.85-22.97 14.59-3.87 4.01-8.02 3.99-10.78-.83-3.07-5.35-5.71-11.35-6.67-17.36-.54-3.4 1.62-8.77 4.38-10.9 11.73-9.08 11.22-21.28 9.64-33.67-1.71-13.46-6.92-25.56-16.21-35.77-1.41-1.55-1.77-4.05-2.62-6.11 2.15-.5 4.35-1.55 6.46-1.4 9.54.67 18.71 2.97 26.99 7.93 4.26 2.55 6.28 6.02 5.43 11.63-1.13 7.53-1.09 15.25-1.24 22.9-.18 9.44-.04 18.88-.04 28.39 29.63-5.15 59.97-10.43 90.76-15.79 0-1.75 0-3.38 0-5.02-.11-35.99 0-71.97-.45-107.95-.2-16.08-.6-32.3-6.55-47.63-1.98-5.1-4.78-9.89-6.67-15.01-.91-2.47-1.58-5.93-.49-7.91.74-1.35 5.07-1.89 7.19-1.13 10.26 3.71 20.61 7.38 30.33 12.25 7.01 3.51 7.15 8.56 5.02 16.12-2.77 9.83-5.38 19.96-6.01 30.09-1.96 31.7-3.04 63.45-4.26 95.19-.36 9.24-.05 18.51-.05 28.01 30.92-1.74 61.8-9.4 93.97-5.83.31-2.33.84-4.54.85-6.77.11-15.29.77-30.61-.12-45.84-.5-8.61-3.18-17.19-5.68-25.54-1.83-6.13-1.05-8.13 5.29-6.75 11.77 2.57 22.91 6.97 32.3 14.79 5.08 4.23 5.29 7.5 1.78 12.92-6.15 9.51-8.08 20.39-9.16 31.25-2.45 24.64-4.11 49.35-6.25 74.02-.83 9.55-3.33 18.66-8.9 26.66-4.02 5.76-7.74 5.97-10.87-.1-6.31-12.23-11.35-24.59-4.75-38.85 3.14-6.78 4.06-14.58 6.24-22.9z" fill="currentColor"/></svg>