<svg enable-background="new 0 0 400 400" viewBox="0 0 400 400" xmlns="http://www.w3.org/2000/svg">
<path d="m308.67 61.92c10.34 2.99 21.87 6.43 30.85 14.89 1.74 1.64 2.44 5.43 2.11 8.04-1.12 9.01-3.45 17.89-4.29 26.92-1 10.75-1.1 21.59-1.27 32.4-.34 20.63-.67 41.27-.6 61.9.08 23.63 1.02 47.26.82 70.88-.18 20.28-1.18 40.56-2.37 60.8-.38 6.36-2.08 12.77-4.04 18.87-1.86 5.78-5.64 6.39-8.84 1.42-9.37-14.57-15.18-30.03-12.31-48.01 2.32-14.56 4.46-29.27 4.9-43.97 1.23-40.91 1.84-81.86 2.06-122.79.11-19.25-.13-38.64-4.92-57.48-1.57-6.2-4.76-11.98-7.15-17.98-1.75-4.38-.62-6.12 5.05-5.89z" fill="currentColor"/>
<path d="m67.86 342.13c2.19-2.44 4.18-5.11 6.61-7.3 26.53-23.85 42.41-54.19 53.37-87.5 6.79-20.64 10-41.97 11.08-63.59.87-17.43 1.73-34.89 1.5-52.32-.2-14.77-1.7-29.54-9.22-42.93-.89-1.59-1.14-4.69-.19-5.84 1-1.19 4.02-1.59 5.8-1.08 7.63 2.16 15.29 4.39 22.63 7.35 6.35 2.56 6.98 6.3 5.94 12.86-1.82 11.6-3.13 23.32-3.89 35.04-1.43 22.22-1.24 44.59-3.71 66.67-3.47 30.97-9.89 61.45-28.1 87.8-13.8 19.97-30.94 36.5-52.42 48.21-1.88 1.03-3.87 1.88-5.84 2.74-.87.38-1.83.56-2.75.84-.26-.32-.54-.64-.81-.95z" fill="currentColor"/>
<path d="m218.53 273.32c.41-3.01.87-6.12 1.25-9.24 1.7-13.98 4.02-27.92 4.89-41.94.99-15.93 1.25-31.95.75-47.9-.49-16.06-1.73-32.16-3.81-48.09-.85-6.51-4.85-12.6-7.21-18.95-.63-1.7-1.19-4.04-.49-5.43.46-.91 3.49-1.32 4.95-.8 8.24 2.95 16.53 5.88 24.46 9.57 4.78 2.22 4.57 6.92 3.74 11.72-1.61 9.26-3.62 18.6-3.81 27.94-.46 22.3.12 44.62.13 66.93.01 17.12.18 34.25-.48 51.34-.41 10.89-1.13 21.93-5.8 32.13-.83 1.81-1.76 3.6-2.9 5.22-2.19 3.12-5.03 3.32-6.56-.16-2.91-6.63-5.44-13.46-7.54-20.38-1.13-3.72-1.07-7.84-1.57-11.96z" fill="currentColor"/>
</svg>