<svg enable-background="new 0 0 400 400" viewBox="0 0 400 400" xmlns="http://www.w3.org/2000/svg">
<path d="m40.66 295.17c3.1-.78 5.96-1.96 8.89-2.16 27.2-1.83 54.46-3.01 81.61-5.36 20.83-1.8 41.53-5.03 62.79-7.68 0-8.85-.05-17.31.01-25.77.19-28.64.77-57.28.46-85.91-.12-11.05-2.21-22.09-3.53-33.12-.21-1.78-1.08-3.47-1.6-5.22-1.42-4.83-4.27-6.78-9.53-5.9-10.64 1.78-21.36 3.04-32.04 4.59-13.1 1.91-24.17-2.72-34.23-10.55-.8-.62-1.18-1.78-2.35-3.64 5.62-.92 10.41-1.83 15.25-2.46 20.92-2.72 41.96-4.72 62.75-8.21 22.24-3.73 44.27-8.78 66.37-13.34 10-2.06 20.05-3.45 29.99-.35 4.04 1.26 7.99 3.38 11.44 5.86 5.32 3.83 4.67 7.96-1.67 9.96-5.97 1.88-12.19 3.13-18.4 4.07-25.78 3.9-51.58 7.58-77.38 11.37-.97.14-1.9.56-3.44 1.02 4.63 2.57 8.98 4.76 13.09 7.31 8.66 5.38 10.69 11.4 9.4 21.59-1.6 12.68-2.74 25.46-3.26 38.24-1.05 26.11-1.54 52.24-2.29 78.35-.09 3.26-.39 6.51-.63 10.43 12.75-.95 24.82-1.74 36.87-2.79 16.39-1.42 32.77-2.98 49.15-4.62 6.6-.66 13.22-1.38 19.73-2.61 18.05-3.41 32.42 3.63 45.21 15.43.84.77 1.46 1.82 2.04 2.82 2.4 4.15 1.39 6.32-3.37 6.57-5.49.29-10.99.31-16.49.24-22.14-.27-44.31-1.47-66.41-.72-25.23.86-50.42 3.21-75.6 5.34-19.87 1.69-39.73 3.71-59.52 6.16-22.58 2.79-45.06 6.44-67.65 9.2-4.89.6-10.31-.15-15.01-1.71-9.39-3.09-17.67-10-20.65-16.43z" fill="currentColor"/></svg>