<svg enable-background="new 0 0 400 400" viewBox="0 0 400 400" xmlns="http://www.w3.org/2000/svg">
<path d="m321.04 232.34c0 5.39-.13 10.79.03 16.17.23 8.14-.1 16.4 1.26 24.36.97 5.65 3.88 11.16 6.82 16.22 1.99 3.42 2.78 6.39-.11 8.91-4.22 3.67-8.69 7.26-13.57 9.92-18.31 10-38.32 14.85-58.73 18.05-27.31 4.29-54.86 6.73-82.48 5.77-15.18-.53-30.58-2.28-45.33-5.8-27.62-6.6-50.23-26.33-54.29-61.39-2.37-20.49-1.31-40.81-.27-61.25.75-14.76.99-29.64-5.62-43.61-.92-1.94-.19-4.66-.22-7.02 2.06.08 4.49-.53 6.11.35 5.36 2.91 10.4 6.38 15.61 9.57 1.32.81 2.92 2.11 4.2 1.92 30.04-4.46 60.06-9.06 90.05-13.83 1.27-.2 3-2.1 3.26-3.45 2.78-14.16 5.37-28.35 7.87-42.56 1.47-8.38-.57-11.46-9.01-10.3-14.91 2.07-29.65 5.43-44.44 8.35-10.2 2.02-20.29 5.13-30.57 6.05-9.39.83-17.2-4.46-23.53-11.24-3.21-3.43-2.41-5.39 2.29-6.21 2.43-.43 4.97-.32 7.46-.33 27.36-.12 54.36-3.09 80.86-10.05 7.33-1.92 13.88-5.15 19.39-10.67 4.61-4.62 10.59-6.02 16.5-2.68 9.11 5.15 18.14 10.49 26.76 16.4 5.76 3.95 5.47 9.8-.68 13.22-17.95 10.01-27.54 26.93-37.65 43.69 2.7 2.85 5.4 5.33 7.65 8.16 4.55 5.72 3.22 10.05-3.93 11.48-16.77 3.37-33.56 6.74-50.46 9.29-20 3.01-40.13 5.16-61.45 7.83-1.03 6.19-2.92 13.91-3.5 21.73-1.11 15.08-2.12 30.22-1.98 45.32.14 14.74 2.87 29.16 12.34 41.27 8.75 11.18 21.2 16.35 34.36 19.78 23.13 6.03 46.77 6.64 70.36 4.15 18.61-1.97 37.2-4.69 55.55-8.33 13.24-2.63 25.85-7.71 35.17-18.44 9.43-10.85 14.09-23.93 17.83-37.49 1.27-4.62 2.92-9.13 4.39-13.7.59.14 1.15.26 1.7.39z" fill="currentColor"/></svg>