<svg enable-background="new 0 0 400 400" viewBox="0 0 400 400" xmlns="http://www.w3.org/2000/svg">
<path d="m327.01 223.51c-.35 5.2-.46 10.43-1.09 15.6-1.67 13.74-.52 27.13 3.88 40.31 1.46 4.38 2.5 9 2.97 13.58.69 6.72-2.51 11.8-8.08 15.51-10.32 6.86-22.09 9.87-33.92 12.47-23.91 5.26-48.19 7.82-72.6 9.2-10.12.57-20.24 1.76-30.36 1.68-27.01-.23-53.73-2.4-78.92-13.68-20.05-8.97-30.02-25.31-34.89-45.73-5.38-22.55-6.35-45.42-4.37-68.4 2.41-27.98 5.63-55.89 7.73-83.88.64-8.48-1.33-17.14-2.01-25.73-.12-1.56-.38-3.72.47-4.56.74-.74 2.95-.11 4.48.1.8.11 1.63.48 2.3.94 10.41 7.18 21.63 6.28 32.89 2.98 17.31-5.08 34.61-10.26 51.74-15.9 4.09-1.35 7.79-4.38 11.21-7.2 6.58-5.43 11.8-6.62 19.19-2.36 7.76 4.47 15.29 9.42 22.53 14.7 5.16 3.76 5.73 8.71 1.31 12.19-9.99 7.88-15.16 18.86-20.09 29.92-5.48 12.28-10.15 24.91-15.28 37.35-1.02 2.47-1.02 4.37 1.31 6.04.93.66 1.69 1.62 2.38 2.55 4.31 5.76 3.12 10.17-3.87 11.87-10.95 2.66-22.01 4.98-33.13 6.88-21.1 3.62-42.27 6.91-63.43 10.13-2.83.43-3.8 1.88-3.81 4.16-.08 12.98-.4 25.98.15 38.94.29 6.72 1.77 13.49 3.47 20.05 5.65 21.68 24.54 38.41 46.9 40.5 20.66 1.93 41.43 3.58 62.16 3.62 25.78.05 51.26-3.17 76.06-11.3 19.2-6.3 31.94-18.51 38.78-37.18 3.76-10.29 7.11-20.72 10.7-31.07.55-1.6 1.39-3.09 2.1-4.64.38.13.76.24 1.14.36zm-239.76-35.38c25.87-5.79 51.16-11.02 75.55-19.85 3.59-1.3 5.83-3.1 6.52-7.11.64-3.73 2.36-7.26 3.19-10.97 3.38-15.2 6.83-30.38 9.79-45.66 1.68-8.68-2.11-12.17-10.8-10.92-2.3.33-4.66.45-6.88 1.07-20.78 5.81-41.55 11.62-62.25 17.71-1.75.51-3.84 2.81-4.2 4.6-3.2 15.75-6.3 31.52-8.9 47.38-1.24 7.61-1.35 15.42-2.02 23.75z" fill="currentColor"/></svg>