<svg enable-background="new 0 0 400 400" viewBox="0 0 400 400" xmlns="http://www.w3.org/2000/svg">
<path d="m186.93 132.24c-21.75 2.98-42.89 5.88-63.76 8.74.62 24.8 1.69 49.04 1.61 73.27-.04 10.86-2.18 21.74-3.84 32.53-.34 2.22-2.81 4.11-4.3 6.16-1.8-1.61-4.05-2.92-5.32-4.87-6.81-10.49-7.56-22.26-6.03-34.16 3.65-28.46-.6-55.57-12.92-81.44-.5-1.05-1.21-2.06-1.44-3.17-.31-1.53-.88-4.03-.19-4.52 1.37-.98 3.65-1.49 5.32-1.12 6.79 1.51 13.41 4.49 20.23 4.95 9.34.62 18.85-.03 28.19-1.08 12.52-1.41 24.93-3.72 37.38-5.68 1.61-.25 3.18-.73 5.09-1.17-.14-21.1.37-42.09-4-62.72-1.11-5.26-3.96-10.13-5.82-15.25-.63-1.75-1.34-3.99-.73-5.49.37-.93 3.37-1.59 4.82-1.16 9.66 2.89 19.38 5.69 28.74 9.39 4.93 1.95 6.16 6.6 3.52 11.27-5.48 9.69-6.07 20.28-6.37 30.91-.27 9.46-.06 18.93-.06 28.96 19.38-3.35 38.34-6.15 56.43-12.86 1.39-.51 2.8-1.21 3.92-2.15 6.46-5.44 13.57-6.32 20.85-2.33 7.69 4.21 15.21 8.76 22.48 13.65 3.8 2.56 3.57 5.89 1.46 10.4-2.74 5.85-4.57 12.56-4.93 19-.94 17.1-.67 34.27-1.29 51.4-.49 13.57-2.22 27.1-11.01 38.16-4.4 5.53-9.74 10.5-15.37 14.8-6.15 4.7-9.9 2.89-11.74-4.55-2.77-11.24-10.37-19.11-18.62-26.49-3.16-2.83-6.4-5.56-9.61-8.34.43-.63.85-1.27 1.28-1.9 2.41.63 4.82 1.25 7.24 1.87 6.08 1.57 12.08 3.77 18.26 4.53 7.59.94 11.24-1.31 13.57-8.72 2.26-7.21 4.35-14.85 4.34-22.3-.01-14.91-1.28-29.83-2.55-44.71-.31-3.63-2.31-7.26-4.12-10.57-2.52-4.62-6.79-7.01-12.07-6.32-15.31 1.99-30.59 4.17-45.87 6.42-4.08.6-9.77.44-11.68 2.95-2.13 2.79-.94 8.23-.95 12.51-.07 25.83.05 51.65-.13 77.48-.15 21.98-.14 43.97-1.1 65.92-1.07 24.39-3 48.75-4.92 73.1-.37 4.68-2.28 9.29-3.83 13.81-.38 1.11-2.07 2.17-3.32 2.4-.58.11-2.07-1.7-2.26-2.8-1.33-7.66-3.39-15.36-3.45-23.06-.59-69.79-.82-139.58-1.15-209.37.02-1.95.02-3.91.02-6.28z" fill="currentColor"/></svg>