<svg enable-background="new 0 0 400 400" viewBox="0 0 400 400" xmlns="http://www.w3.org/2000/svg">
<path d="m192.27 184.74c-10.14 1.35-19.71 2.4-29.19 3.92-25.09 4.01-50.1 8.47-75.22 12.25-14.01 2.11-24.83-4.49-33.57-14.83-2.77-3.28-1.89-5.23 2.28-6.32 1.74-.46 3.6-.8 5.38-.71 25.19 1.2 50.07-2.33 74.99-5.03 18.32-1.98 36.63-4.09 55.72-6.23-.88-24.96 2.03-49.71-2.95-74.82-7.75.94-15.14 1.62-22.46 2.78-12.23 1.94-23.55.15-33.5-7.55-1.7-1.32-2.76-3.45-4.12-5.21 1.93-1.07 3.76-2.81 5.79-3.1 10.69-1.48 21.51-2.13 32.14-3.93 23.4-3.95 46.7-8.43 70.05-12.66 9.95-1.8 19.94-4.93 30.04-2.27 5.28 1.39 10.57 3.9 14.99 7.1 4.69 3.4 3.82 7.8-1.81 9.66-7.04 2.33-14.37 4-21.69 5.23-15.7 2.64-31.48 4.82-47.22 7.19-.05.4-.24.8-.12.98 5.94 8.37 5.37 17.31 4.19 27.13-1.88 15.59-1.78 31.41-2.55 47.88 8.78-.62 16.4-.81 23.93-1.75 27.02-3.35 54-7.03 81.01-10.41 13.41-1.68 25.03 2.91 34.79 11.78 2.49 2.26 3.21 6.47 4.75 9.79-2.99 1.12-5.93 2.97-8.99 3.19-4.6.33-9.28-.78-13.92-.74-24.93.21-49.87.39-74.79.97-13.29.31-26.55 1.54-39.84 2.11-4.55.19-6.62 1.17-6.47 6.57.44 16.15.34 32.33.05 48.49-.48 26.46-.86 52.93-2.11 79.36-.74 15.56-2.9 31.07-4.89 46.55-.4 3.12-2.9 5.96-4.44 8.93-1.59-2.86-4.26-5.61-4.58-8.61-1.7-15.66-3.61-31.37-3.94-47.1-.88-41.96-.98-83.94-1.4-125.91-.03-1.3-.19-2.61-.33-4.68z" fill="currentColor"/></svg>