<svg enable-background="new 0 0 400 400" viewBox="0 0 400 400" xmlns="http://www.w3.org/2000/svg">
<path d="m199.11 197.91c-20.32 3.03-40.67 5.83-60.92 9.26-4.94.83-9.61 3.54-14.26 5.69-8.57 3.97-14.17 1.72-16.45-7.52-1.18-4.77-1.35-9.83-1.57-14.78-.16-3.57 1.62-5.3 5.55-6.22 4.34-1.02 8.91-3.08 12.27-5.98 18-15.53 31.55-34.63 42.49-55.58 4.22-8.08 7.61-16.59 11.16-25 4.51-10.68 6.05-21.7 3.21-33.15-.46-1.85-.22-3.92-.05-5.86.39-4.47 3.58-5.59 6.67-3.65 7.68 4.81 15.5 9.67 22.2 15.7 5.27 4.74 4.93 10.43.85 16.3-19.19 27.59-38.46 55.13-57.76 82.64-3.58 5.1-7.44 9.99-11.65 15.61 2.27.76 3.28 1.36 4.31 1.41 20.09.95 40.18 1.89 60.27 2.64 1.34.05 3.22-1.05 4.02-2.2 10.85-15.53 21.77-31.03 32.2-46.84 4.3-6.52 7.03-13.85 7.33-21.97.23-6.32 5.2-8.75 10.44-5.11 9.56 6.63 17.17 15.23 23.01 25.25 2.83 4.84 2.12 5.96-2.96 8.14-10.64 4.57-19.13 12.17-26.82 20.46-14.26 15.37-27.89 31.33-42.01 46.83-16.48 18.09-33.23 35.93-49.79 53.94-2.92 3.18-5.57 6.62-8.11 10.12-1.09 1.5-1.57 3.44-2.32 5.19.25.52.51 1.04.76 1.56 32.29-4.48 64.59-8.95 97.18-13.47-5.33-12.24-10.36-23.79-15.39-35.34.51-.46 1.03-.93 1.54-1.39 2.11.6 4.39.86 6.31 1.84 20.11 10.27 38.1 23.18 50.65 42.41 8.17 12.53 10.91 26.24 7.6 40.99-.07.32-.04.71-.2.97-1.91 2.96-3.36 7.64-5.91 8.35-2.41.67-7.02-2.07-8.88-4.61-9.91-13.54-19.36-27.43-28.71-41.37-1.71-2.55-3.11-3.88-6.27-3.06-31.3 8.13-62.7 15.87-93.89 24.42-11.68 3.2-22.65 8.52-32.5 15.97-7.16 5.41-11.4 4.37-16.71-2.94-.98-1.34-1.86-2.76-2.69-4.2-6.16-10.71-5.31-15.26 5.35-21.68 27.01-16.25 47.95-38.87 67.47-63.08 6.47-8.03 13.32-15.77 19.97-23.65 1.35-1.59 2.62-3.25 3.92-4.88-.3-.72-.6-1.44-.91-2.16z" fill="currentColor"/></svg>