<svg enable-background="new 0 0 400 400" viewBox="0 0 400 400" xmlns="http://www.w3.org/2000/svg">
<path d="m65.33 361.91c3.64-3.99 7.04-8.24 10.96-11.94 35.26-33.21 55.28-74.22 62.71-121.75 4.45-28.46 7.48-57.03 6.93-85.88-.17-9.04-1.3-17.85-5.45-26.1-.78-1.55-1.21-4.45-.35-5.35.99-1.05 3.68-1.03 5.46-.66 3.23.66 6.69 1.36 9.44 3.04 10.13 6.19 21.22 5.33 32.07 4.31 18.34-1.72 36.69-3.78 54.87-6.7 22.59-3.63 44.99-8.46 67.54-12.38 7.11-1.23 14.56-2.22 21.62-1.38 4.82.58 9.7 3.96 13.72 7.14 4.38 3.47 3.49 7.73-1.86 9.35-7.59 2.3-15.37 4.32-23.22 5.32-23.22 2.97-46.48 5.69-69.78 7.92-14.55 1.39-29.2 1.78-43.82 2.51-12.26.62-24.53 1.08-37.3 1.63-.54 7.42-.89 14.5-1.6 21.55-2.32 23.13-4.05 46.34-7.32 69.33-5.18 36.37-17.51 70.22-39.62 99.96-12.96 17.43-30.04 29.99-49.24 39.82-1.41.72-3.01 1.09-4.52 1.62-.42-.45-.83-.9-1.24-1.36z" fill="currentColor"/><path d="m260.25 81.64c-.27 1.75-.55 4.04-.99 6.31-1.28 6.64-4.59 8.55-10.51 5-5.5-3.3-11.07-7.06-15.26-11.8-6.9-7.81-12.86-16.48-18.94-24.99-2.87-4.02-1.63-6.29 3.21-6.28 11.16.04 21.75 2.69 31.31 8.48 8.4 5.1 10.67 13.51 11.18 23.28z" fill="currentColor"/></svg>