<svg enable-background="new 0 0 400 400" viewBox="0 0 400 400" xmlns="http://www.w3.org/2000/svg">
<path d="m121.29 257.83c-20.83 35.12-52.96 50.99-91.44 56.36 14.52-8.64 29.45-16.68 43.46-26.08 14.47-9.71 24.55-23.74 33.61-39.09-10.49-5.73-21.16-10.76-32.74-13.03-11.28-2.21-22.79-3.28-35.73-5.07 2.46-2.34 3.73-4.01 5.39-5.06 9.34-5.9 19.32-6.68 29.66-3.14 12.86 4.39 25.7 8.88 39.69 13.73 2.96-9.79 5.97-19.2 8.62-28.71 1.06-3.8 1.79-7.81 1.88-11.75.12-4.99-2.7-7.62-7.6-6.78-4.69.81-9.11 3.11-13.79 4.07-3.7.76-9.15 2.08-11.03.26-2.07-2.01-1.24-7.32-1.11-11.17.06-1.85 1.32-3.71 2.21-5.48 8.45-16.74 16.98-33.43 25.36-50.21 1.17-2.35 1.76-5.02 2.38-7.6 1.24-5.16.25-6.7-5.1-5.89-7.68 1.16-15.27 3.05-22.83 4.91-8.66 2.13-17.36 3.52-26.02.72-3.51-1.13-6.6-3.57-9.88-5.41.18-.7.36-1.39.54-2.09 2.83-.47 5.65-1.15 8.51-1.36 18.74-1.37 36.63-6.26 53.91-13.38 4.63-1.91 8.28-5.98 14.2-3.69 8.33 3.22 16.23 6.98 22.09 13.96 2.5 2.97 1.67 5.81-1.14 8.27-17.17 15.06-28.51 34.54-40.27 53.66-1.4 2.27-1.12 5.57-1.61 8.39 2.57-.08 5.46.58 7.64-.37 11.04-4.8 18.87 1.09 26.42 7.6 4.33 3.73 4.74 7.05 1.74 11.99-9.02 14.83-12.85 31.58-18.64 48.3 7.87 3.55 15.47 7.19 23.23 10.44 29.71 12.44 59.29 25.22 89.29 36.94 17.26 6.74 35.76 9.04 54.22 9.61 19.44.6 38.91.05 58.36.06 3.01 0 6.02.3 9.04.46.15.59.29 1.18.44 1.76-1.91 1.39-3.67 3.11-5.77 4.13-20.66 10.14-42.04 18.34-64.71 22.71-10.55 2.03-20.57-1.03-30.05-5.25-24.88-11.1-49.74-22.28-74.35-33.97-22.74-10.83-45.18-22.36-68.08-33.75z" fill="currentColor"/></svg>