<svg enable-background="new 0 0 400 400" viewBox="0 0 400 400" xmlns="http://www.w3.org/2000/svg">
<path d="m239 190.66c-22.91 1.89-46.03 3.8-69.4 5.73-.85 9.44-1.46 18.68-2.55 27.87-3.18 26.92-8.88 53.21-24.12 76.19-13.29 20.04-29.37 37.58-51.59 48.13-6.55 3.11-13.72 4.93-20.64 7.23-.95.31-2.12-.05-4.68-.17 3.49-3.14 5.83-5.67 8.57-7.65 39.45-28.47 62.73-67.15 71.79-114.54 2.1-11 2.3-22.37 3.44-34.27-18.04 2.23-34.8 4.21-51.53 6.42-10.21 1.35-20.35 3.15-30.55 4.56-7.39 1.02-23.15-7.36-26.4-13.79-1.13-2.25-.79-3.96 1.84-4.54 2.09-.46 4.24-.73 6.38-.87 25.04-1.66 50.08-3.22 75.12-4.93 8.45-.58 16.87-1.48 25.91-2.28.09-1.9.25-3.65.24-5.4-.06-16.99.3-34.01-.35-50.98-.65-17.24-1.75-34.5-3.8-51.62-.78-6.5-4.87-12.58-7.18-18.95-.86-2.38-2.05-5.71-1.04-7.37.87-1.44 4.9-2.08 7.05-1.45 7.74 2.28 15.51 4.76 22.81 8.15 4.9 2.27 6.38 7.18 5.61 12.78-1.66 12.14-3.93 24.3-4.31 36.5-.74 24.14-.35 48.32-.42 72.48 0 .8.18 1.6.34 2.83 8.28-.69 16.35-1.22 24.39-2.07 13.87-1.46 27.71-3.27 41.6-4.6 3.51-.34 4.48-1.53 4.36-4.87-1.08-30.93-1.69-61.88-3.29-92.77-.44-8.59-3.41-17.12-5.81-25.51-1.61-5.64-.41-8.22 5.26-6.81 8.32 2.07 16.48 4.94 24.45 8.12 4.72 1.88 6.05 6.56 4.15 10.96-4.92 11.36-4.74 23.45-5.24 35.29-.97 23.29-.94 46.61-1.31 69.92-.02.97.1 1.95.2 3.64 8.77-.89 17.3-1.58 25.79-2.64 14.17-1.77 28.29-4.04 42.48-5.61 14.46-1.6 25.94 4.27 34.8 15.49 3.04 3.84 2.34 6.15-2.4 6.94-4.55.76-9.26.72-13.9.79-28.75.45-57.51.83-86.3 1.23-.36 2-.67 2.93-.68 3.88-.38 26.64-.6 53.29-1.13 79.93-.46 22.79-1.04 45.58-2.08 68.35-.34 7.56-2.23 15.06-3.5 22.58-.22 1.29-.58 2.73-1.37 3.71-1.28 1.59-2.96 2.85-4.47 4.25-1.34-1.59-3.46-3-3.87-4.81-1.26-5.48-2.59-11.1-2.61-16.68-.19-43.83-.08-87.66-.06-131.48 0-8.96 0-17.89 0-27.29z" fill="currentColor"/></svg>