<svg enable-background="new 0 0 400 400" viewBox="0 0 400 400" xmlns="http://www.w3.org/2000/svg">
<path d="m341.35 286.83c-.88 9.22-1.71 18.45-2.65 27.66-1.48 14.44-2.17 28.82 1.93 43.03 2.16 7.47.12 10.13-7.64 9.55-14.39-1.09-27.21-6.95-39.62-13.88-23.97-13.4-41.43-33.53-57.77-55.01-24.85-32.68-41.43-69.57-55.63-107.7-3.35-9-6.46-18.09-9.85-27.62-13.55 3.53-26.99 7-40.41 10.54-10.09 2.67-20.02 6.13-30.25 7.99-11.67 2.13-22.2-2.33-31.97-8.47-.74-.46-1.06-1.58-2.39-3.66 5.96-1.14 11.14-2.52 16.41-3.09 23.74-2.58 46.52-9.22 69.29-15.95 4.91-1.45 9.82-2.91 15.1-4.48-2.38-10.81-4.63-21.3-7.01-31.75-3.9-17.14-7.38-34.4-12.04-51.33-2.17-7.87-6.48-15.19-10.21-22.56-2.91-5.75-1.68-9.01 4.51-7.94 10.37 1.8 20.56 4.76 30.69 7.7 3.47 1.01 4.01 3.75 3.47 7.89-1.63 12.63-3.65 25.53-2.71 38.11 1.34 17.95 5.18 35.72 8.07 54.39 8.32-2.17 15.49-3.87 22.56-5.93 13.22-3.85 26.28-8.27 39.59-11.75 8.87-2.32 17.16.53 24.4 5.87 4.54 3.35 4.42 6.94-.83 9.03-7.81 3.12-15.98 5.48-24.15 7.52-17.37 4.35-34.84 8.28-52.27 12.42-1.25.3-2.45.85-4.47 1.58 5.3 13.96 10.09 27.9 15.83 41.43 14.73 34.66 33.54 66.86 58.71 95.12 12.48 14.02 27.44 24.58 44.41 32.36 9.39 4.31 13.06 3.38 17.87-5.66 4.67-8.77 8.33-18.08 12.51-27.12 1.41-3.05 3.04-5.99 4.57-8.98.67.24 1.31.46 1.95.69z" fill="currentColor"/><path d="m222.34 47c8.27 1.51 16.77 2.27 24.75 4.71 11.42 3.5 17.8 17.03 14.04 27.63-2.01 5.68-5.62 7.65-10.76 4.5-8.04-4.92-15.63-10.61-23.27-16.18-5.1-3.71-10.04-7.65-14.84-11.74-1.39-1.18-2.02-3.24-3-4.9 1.81-.98 3.53-2.42 5.46-2.82 2.39-.49 4.96-.12 7.45-.12.05-.36.11-.72.17-1.08z" fill="currentColor"/></svg>