<svg enable-background="new 0 0 400 400" viewBox="0 0 400 400" xmlns="http://www.w3.org/2000/svg">
<path d="m178.51 322.24c3.79.79 7.57 1.62 11.37 2.36 9.24 1.82 18.43 3.95 27.74 5.3 8.26 1.2 13.86-3.2 17.82-10.19 6.82-12.02 10.41-25.14 12.63-38.58 2.08-12.58 3.45-25.29 4.76-37.99.37-3.56-.32-7.3-.96-10.88-1.9-10.5-8.27-16.6-18.95-15.97-14.38.85-28.83 2.27-42.95 4.98-15.45 2.96-30.73 7.13-45.77 11.79-12.4 3.85-22.78 11.57-32.08 20.62-1.67 1.62-3.25 3.42-5.16 4.68-2.67 1.76-4.9 1.35-6.33-1.99-4.04-9.48-1.79-24.55 6.25-31.01 15.76-12.66 17.02-29.67 15.21-47.47-.59-5.83-4.04-11.36-6.12-17.06-.54-1.47-.83-3.04-1.24-4.56 1.66-.22 3.34-.69 4.99-.6 1.8.1 3.79.32 5.32 1.16 10.9 5.97 22.12 3.81 32.97.67 22.48-6.5 44.78-13.64 67.1-20.68 1.85-.58 4.05-2.06 4.81-3.72 6.33-13.72 12.84-27.39 18.35-41.44 4.71-12.02 2.69-14.99-9.84-13.37-13.77 1.78-27.37 5.16-40.92 8.37-14.04 3.33-27.86 7.54-41.89 10.89-12.74 3.04-26.27-2.56-33.55-13.22-.24-.35-.13-.95-.28-2.36 3.06-.35 6.06-1.06 9.05-.99 32.25.78 63.55-4.84 94.22-14.24 5.95-1.82 11.75-4.85 16.92-8.35 6.68-4.53 13.34-4.95 20.31-1.94 11.94 5.15 22.09 13.02 31.01 22.34 5.73 5.98 4.57 11.93-3.42 15.45-18.73 8.24-30.51 23.62-42.36 39.27 1.82 2.78 3.74 5.29 5.2 8.05 2.56 4.85 1.38 7.42-4.18 8.56-8.78 1.8-17.68 3.05-26.45 4.91-26.45 5.63-52.87 11.42-79.26 17.31-1.37.31-3.31 2.07-3.43 3.3-1.45 14.99-2.6 30.02-3.9 45.82 7.73-1.55 15.17-2.95 22.57-4.55 23.03-4.97 46.06-9.97 69.06-15.07 5.01-1.11 9.88-2.9 14.89-3.99 7.09-1.54 14.11-.36 20.12 3.39 7.43 4.64 14.61 9.82 21.21 15.57 5.2 4.53 4.7 7.05-.01 12.01-6.33 6.67-8.08 15.26-9.12 23.82-2.04 16.65-3.46 33.38-5.14 50.07-2.47 24.6-12.31 45.35-31.95 60.94-1.81 1.44-3.78 2.73-5.82 3.79-6.97 3.62-11.23 2.3-14.72-4.64-5.57-11.08-15.03-18.51-24.28-26.14-3.34-2.75-6.91-5.23-10.2-8.03-1.66-1.41-2.93-3.27-4.38-4.92.25-.48.51-.98.78-1.47z" fill="currentColor"/></svg>