<svg enable-background="new 0 0 400 400" viewBox="0 0 400 400" xmlns="http://www.w3.org/2000/svg">
<path d="m106.09 114.18c2.32-.41 4.63-1.02 6.98-1.21 24.17-1.99 48.38-3.56 72.5-5.97 22.3-2.23 44.56-4.96 66.73-8.24 12.41-1.83 24.54-5.55 36.92-7.7 4.49-.78 9.99-.8 13.91 1.13 9.34 4.6 18.32 10.13 26.87 16.1 6.72 4.7 5.68 8.22 1.63 15.15-4.53 7.75-8.41 16.36-10.28 25.09-5.98 27.89-10.98 55.99-16.19 84.04-2.12 11.43-3.96 22.91-5.54 34.43-.28 2 .85 4.69 2.21 6.33 3.42 4.13 7.34 7.85 11.06 11.74-.22.78-.44 1.55-.66 2.33-5.88.87-11.73 2.15-17.65 2.55-23.23 1.57-46.52 2.3-69.7 4.4-24.47 2.21-48.84 5.61-73.25 8.52-16.65 1.99-33.28 4.21-49.95 5.93-3.31.34-6.98-.65-10.2-1.81-8.71-3.14-16.31-7.96-22.79-17.24 3.89-.77 6.7-1.75 9.53-1.82 11.16-.26 22.37.43 33.47-.44 31.8-2.5 63.57-5.44 95.32-8.5 22.15-2.13 44.24-4.82 66.38-7.09 3.82-.39 5.85-1.5 6.35-5.74 2.58-21.77 5.34-43.51 8.27-65.23 2.31-17.11 5.25-34.14 7.31-51.28.96-8.02.91-16.22.53-24.31-.3-6.53-3-9.75-9.57-10.08-11.9-.58-23.93-.71-35.79.3-18.69 1.59-37.33 4.02-55.92 6.58-15.79 2.17-31.47 5.09-47.23 7.53-13.29 2.05-25.93.86-36.61-8.45-1.83-1.59-3.36-3.52-5.03-5.3.13-.59.26-1.17.39-1.74z" fill="currentColor"/>
<path d="m113.6 200.37c5.13-.94 9.02-2.23 12.92-2.28 29.88-.35 59.23-5.29 88.58-10.03 16.19-2.62 32.18-6.45 48.25-9.78 6.9-1.43 18.67 4.42 21.48 10.9 1.38 3.18.36 5.82-2.95 6.73-4.78 1.3-9.67 2.35-14.58 3.02-34.69 4.75-69.38 9.55-104.12 13.92-9.3 1.17-18.87 1.79-28.17.96-8.12-.74-15.25-5.07-21.41-13.44z" fill="currentColor"/></svg>