<svg enable-background="new 0 0 400 400" viewBox="0 0 400 400" xmlns="http://www.w3.org/2000/svg">
<path d="m46.34 305.31c6.53-.48 12.1-.91 17.66-1.29 20.9-1.41 41.83-2.5 62.7-4.27 22.19-1.88 44.32-4.4 66.48-6.65 3.47-.35 6.98-1.28 10.39-.97 5.57.51 7.64-2.31 9.59-6.97 14.76-35.28 27.75-71.15 37.08-108.28 3.4-13.51 1.08-16.23-12.48-13.99-10.78 1.78-21.48 4.08-32.25 5.96-8.76 1.53-16.76-.79-24.49-6.07-2.48 6.21-4.75 12.06-7.15 17.84-3.89 9.36-7.88 18.68-11.8 28.03-2.1 5.01-.6 7.83 4.77 7.12 9.67-1.28 19.21-3.5 28.8-5.41 2.6-.52 5.14-1.35 7.72-1.97 8.02-1.93 18.68 3.67 21.85 11.27 1.44 3.45-.65 4.93-3.16 5.33-6.04.97-12.24 1.05-18.25 2.13-16.45 2.97-32.92 5.96-49.23 9.62-5.04 1.13-9.69 4.24-14.32 6.8-6.75 3.74-11.34 2.28-14.16-4.92-2.82-7.18-2-13.91 3.66-18.2 12.53-9.51 20.08-22.48 26.42-36.32 11.09-24.2 20.31-49.1 26.97-74.91 2.72-10.56 2.56-21-.87-31.42-.62-1.87-.25-4.07-.34-6.12 2.19.08 4.72-.52 6.5.37 5.92 2.94 11.99 5.86 17.24 9.81 9.05 6.81 9.79 13.64 4.45 23.52-6.08 11.23-11.84 22.64-17.47 34.11-2.69 5.49-4.76 11.29-7.57 18.08 9.56-1.3 18.22-2.2 26.77-3.72 8.64-1.54 17.23-3.48 25.71-5.73 3.44-.91 6.71-2.85 9.76-4.78 5.65-3.56 11.37-4.45 17.47-1.48 9.02 4.39 16.4 10.77 22.07 19 3.56 5.17 2.51 7.58-1.52 12.13-4.45 5.02-8.93 10.48-11.61 16.54-14.19 32.05-27.82 64.34-41.64 96.56-.44 1.03-.76 2.11-1.38 3.87 7.75-.48 14.96-.93 22.17-1.37 20.08-1.21 40.14-2.82 60.23-3.5 16.45-.56 29.37 7.22 39.52 19.75 1.31 1.62 2.69 4.88 1.94 6.07-1.05 1.69-4.11 3.13-6.21 3.01-12.26-.7-24.6-1.17-36.7-3.07-23.15-3.62-46.4-4.25-69.68-3.48-23.26.77-46.58 1.66-69.7 4.07-27.39 2.85-54.62 7.25-81.88 11.22-16.42 2.39-30.04-3.03-41.93-13.92-.69-.61-1.03-1.6-2.13-3.4z" fill="currentColor"/></svg>