<svg enable-background="new 0 0 400 400" viewBox="0 0 400 400" xmlns="http://www.w3.org/2000/svg">
<path d="m110.16 354.9c3.81-1.9 7.57-3.93 11.45-5.7 59.37-27.03 109.26-65.55 145.72-120.3 4.59-6.9 9.34-13.77 8.61-22.83-.31-3.85 3.28-4.07 5.27-2.86 6.88 4.21 13.73 8.6 19.92 13.73 3.5 2.9 2.48 7.52-.14 10.93-3.33 4.33-7.11 8.33-10.81 12.37-15.02 16.47-29.55 33.43-45.24 49.23-31.72 31.95-69.48 53.7-113.51 64.01-6.83 1.6-13.85 2.34-20.79 3.47-.15-.68-.31-1.36-.48-2.05z" fill="currentColor"/>
<path d="m136.23 244.96c8.55-5.68 17.08-11.39 25.66-17.03 23.89-15.69 45.01-34.75 65.68-54.3 8.68-8.21 16.78-17.07 24.71-26.02 3.57-4.03 6.8-8.64 4.94-14.91-.72-2.43 1.09-4.65 3.66-3.74 3.94 1.41 8.23 3 11.16 5.78 3.66 3.47 6.43 8.04 8.96 12.48 2.86 5.02 1.6 9.1-3.48 11.72-8.19 4.21-14 10.97-20.47 17.22-8.82 8.51-18.39 16.35-28.25 23.64-20.61 15.25-42.12 29.17-66.18 38.5-8.44 3.27-17.2 5.7-25.82 8.51-.19-.61-.38-1.23-.57-1.85z" fill="currentColor"/>
<path d="m132.88 155.88c8.59-5.09 15.82-9.68 23.33-13.76 30.65-16.69 57.62-38.22 82.35-62.64 4.94-4.88 9.59-10.31 13.14-16.22 2.29-3.81 2.3-8.97 3.4-13.51.49-2.02.64-4.5 1.94-5.79.74-.74 3.94-.08 5.2.96 6.88 5.72 13.81 11.45 20.09 17.81 3.84 3.88 3.27 7.21-.74 10.21-28.48 21.33-56.23 43.69-87.21 61.48-17.73 10.19-36.75 16.88-56.59 21.44-1.06.23-2.21.02-4.91.02z" fill="currentColor"/></svg>