<svg enable-background="new 0 0 400 400" viewBox="0 0 400 400" xmlns="http://www.w3.org/2000/svg">
<path d="m124.51 180.37c2.86 5.15 5.83 10.24 8.56 15.45 6.55 12.49 11.73 25.9 19.72 37.38 17.95 25.78 43.04 40.39 74.95 40.53 13 .06 26.25-1.33 38.96-4.06 13.76-2.96 17.7-12.64 12.44-25.86-4.42-11.11-9.07-22.12-13.52-33.21-1.46-3.63-2.6-7.38-3.89-11.08.47-.38.93-.75 1.4-1.13 2.56 2.29 5.23 4.46 7.67 6.87 12.89 12.75 25.57 25.73 38.66 38.27 4.77 4.57 10.48 8.18 15.77 12.21 2.25 1.71 4.64 3.26 6.77 5.11 6.86 5.97 6.82 8.95-.72 13.72-20.88 13.21-43.13 22.66-68.13 24.71-18.12 1.49-36.13 1.62-54.21-.84-22.64-3.09-39.84-14.54-53.63-32.27-18.02-23.19-27.66-49.72-32.31-78.36-.24-1.47-.16-2.99-.15-4.49 0-.8.15-1.59.23-2.39.47-.2.95-.38 1.43-.56z" fill="currentColor"/>
<path d="m78.36 166.48c4.25 6.13 6.64 13.16 7.65 20.48 3.5 25.48-3.79 48.91-14.48 71.58-.76 1.6-2.14 2.95-3.37 4.28-2.93 3.15-5.75 2.63-8.48-.39-8.87-9.81-10.38-25.33-4.37-36.9 8.81-16.94 16.69-34.3 19.86-53.39.31-1.89 1.11-3.69 1.68-5.54.5-.03 1.01-.08 1.51-.12z" fill="currentColor"/>
<path d="m280.32 112.97c5.88 0 11.76-.11 17.64.02 14.95.35 28.75 3.96 40.85 13.39 12.89 10.05 16.34 23.32 13.87 38.59-1.29 7.97-5.74 9.59-11.76 4.22-5.31-4.73-9.82-10.34-14.62-15.63-10.69-11.78-22.98-21.61-36.32-30.23-3.74-2.42-7-5.57-10.48-8.39.27-.65.55-1.31.82-1.97z" fill="currentColor"/>
<path d="m214.59 144.46c-2.06 5.85-3.67 11.92-6.31 17.5-2 4.22-4.83 4.44-7.76.72-14.25-18.15-28.34-36.44-42.29-54.82-2.51-3.31-1.3-5.59 2.45-4.79 16.06 3.42 32.33 6.64 44.39 19.28 5.78 6.04 8.41 13.18 9.52 22.11z" fill="currentColor"/></svg>