<svg enable-background="new 0 0 400 400" viewBox="0 0 400 400" xmlns="http://www.w3.org/2000/svg">
<g fill="currentColor">
<path d="m140.45 336.59c5.44.9 10.87 1.82 16.31 2.7 1.47.24 2.96.47 4.45.54 9.07.46 13.12-2.19 14.51-11.28 1.61-10.48 2.82-21.09 3.07-31.68.48-19.97.41-39.96.04-59.93-.24-12.96-1.58-25.85-7.79-37.69-.88-1.67-.96-3.75-1.7-6.83 3.57.56 6.39.54 8.85 1.47 7.39 2.8 14.79 5.65 21.88 9.12 4.26 2.09 4.74 6.35 3.79 10.85-1.68 7.91-4.16 15.82-4.48 23.8-.85 20.76-.85 41.57-.91 62.35-.04 13.25 1 26.52.46 39.74-.53 13.13-5.24 24.98-15.01 34.31-4.73 4.52-9.27 4.28-12.2-1.39-6.37-12.34-15.96-21.53-26.87-29.67-1.89-1.41-3.42-3.3-5.12-4.97.23-.46.48-.95.72-1.44z"/>
<path d="m257.1 245.65c3.23.2 5.14-.07 6.77.48 15.87 5.31 29.67 13.47 38.49 28.37 5.01 8.47 6.2 17.44 3.4 26.85-1.74 5.85-5.23 7.19-10.02 3.39-3.73-2.96-7.36-6.42-9.97-10.37-8.9-13.44-17.38-27.15-25.87-40.85-1.23-2-1.64-4.52-2.8-7.87z"/>
<path d="m122.71 247.94c3.03 9.26 3.25 18.84 2.32 28.43-1.29 13.3-5.04 25.74-14.34 35.89-1.12 1.23-2.3 2.41-3.54 3.52-7.5 6.7-12.11 5.32-14.78-4.44-2.34-8.55-1.37-16.14 5.09-23.02 9.24-9.83 14.93-21.91 20.03-34.27.95-2.31 2.33-4.43 3.51-6.65.58.19 1.15.37 1.71.54z"/>
<path d="m255.27 289.57c-1.95 5.11-3.18 10.34-5.82 14.74-2.89 4.81-6.8 4.68-10.66.64-1.14-1.19-2.37-2.48-2.99-3.96-5.59-13.3-11.14-26.62-16.45-40.03-.63-1.59.25-3.77.43-5.68 1.88.19 3.9-.01 5.61.64 10.39 3.93 19.19 10.11 24.79 19.86 2.32 4.02 3.31 8.81 5.09 13.79z"/>
</g>
</svg>