<svg enable-background="new 0 0 400 400" viewBox="0 0 400 400" xmlns="http://www.w3.org/2000/svg">
<path d="m335.5 263.16c0 7.58-.17 15.16.04 22.73.46 16.43.21 32.97 7.11 48.49 4.21 9.47 1.98 12.78-8.39 12.78-18.21 0-34-7.26-48.76-16.96-29.11-19.11-52.14-44.31-71.72-72.85-1.13-1.64-2.23-3.3-3.87-5.71-39.52 37.51-83.4 67.01-138.5 76.29 2.72-1.67 5.34-3.53 8.17-4.97 22.85-11.65 45.18-24.19 65.82-39.5 19.57-14.52 37.52-30.87 53.53-47.95-9.96-22.86-19.68-45.16-29.49-67.67-14.79 5.68-30.48 11.55-46.05 17.74-11.41 4.53-22.64 4.95-33.74-.59-1.92-.96-3.3-2.97-4.93-4.5 1.78-1.53 3.32-3.8 5.39-4.49 18.57-6.21 37.25-12.09 55.86-18.17 5.66-1.85 11.22-4.03 17.44-6.29-1.54-5.43-2.86-10.68-4.53-15.83-5.9-18.14-11.54-36.37-18.09-54.27-2.41-6.59-7.14-12.3-10.59-18.54-1.06-1.92-2.54-5.07-1.75-6.22 1.12-1.62 4.28-2.83 6.39-2.59 9.86 1.09 19.81 2.09 29.42 4.38 7.29 1.74 7.39 5.22 5.84 12.55-1.51 7.12-2.21 14.99-.79 22.04 3.27 16.23 8.03 32.16 12.22 48.2.12.45.56.8 1.09 1.53 12.15-4.68 24.28-9.6 36.6-13.98 4.76-1.69 9.91-2.39 14.95-3.09 1.82-.25 4.2.34 5.64 1.45 2.1 1.61 4.7 3.9 4.97 6.15.21 1.71-2.48 4.6-4.55 5.63-14 6.94-28.17 13.52-42.3 20.2-2.69 1.27-5.44 2.41-8.61 3.81 5.74 19.35 12.9 37.79 23.42 55.89 3.55-4.42 6.9-8.25 9.88-12.35 8.63-11.84 17.3-23.72 20.45-38.44.68-3.19.5-6.59.54-9.9.04-3.53 1.24-5.16 4.88-3.48 9.34 4.32 17.46 10.32 24.22 18.05 2.41 2.76 2.6 6-.69 8.24-12.52 8.53-20.94 20.84-30.11 32.43-5.47 6.92-10.63 14.08-15.72 21.29-.82 1.16-1.27 3.62-.61 4.62 15.2 22.63 31.65 44.27 55.04 59.15 8.18 5.21 17.31 9.17 26.42 12.61 8.52 3.22 11.72 1.01 14.24-7.72 3.41-11.79 6.65-23.63 10.05-35.43.51-1.78 1.45-3.43 2.19-5.14.67.13 1.33.26 1.98.38z" fill="currentColor"/><path d="m274.49 80.92c-.18 1.82-.16 3.68-.57 5.45-.98 4.16-4.04 6.13-8.15 4.92-2.97-.88-6.14-1.93-8.53-3.79-11.25-8.74-22.37-17.65-33.23-26.86-1.95-1.65-2.45-5.02-3.61-7.6 2.61-.7 5.27-2.11 7.84-1.97 12.56.71 24.57 3.65 35.39 10.4 7.17 4.47 11.04 10.82 10.86 19.45z" fill="currentColor"/>
</svg>