<svg enable-background="new 0 0 400 400" viewBox="0 0 400 400" xmlns="http://www.w3.org/2000/svg">
<path d="m79.64 365.04c4.15-4.92 8.26-9.88 12.45-14.76 35.51-41.36 60.89-87.86 71.35-141.77 3.36-17.34 5.26-34.91 2.42-52.56-.73-4.54-2.67-8.87-3.88-13.34-.71-2.61-1.06-5.32-1.91-9.71 4.68 1.49 8.18 1.93 10.95 3.59 12.03 7.26 25.19 8.29 38.6 7.07 19.91-1.82 39.32-6.34 58.25-12.69 5.25-1.76 9.89-5.3 15.09-7.29 3.72-1.43 8.16-2.9 11.85-2.17 11.64 2.32 21.74 8.13 30.18 16.55 4.71 4.7 4.53 9.11-1.12 12.28-9.39 5.28-14.64 13.81-19.57 22.72-1.77 3.19-3.13 6.61-4.86 9.83-3.79 7.07-6.68 14-.09 21.19 1.12 1.22 1.44 3.34 1.73 5.11.57 3.5-.67 5.84-4.61 6.11-10.11.7-20.24 1.28-30.33 2.22-26.64 2.48-53.27 5.07-79.87 7.88-1.45.15-3.16 2.45-3.87 4.13-7.63 17.86-13.74 36.51-22.86 53.57-17.31 32.37-40.23 60.31-71.87 80.11-2.16 1.35-4.52 2.37-6.78 3.54-.43-.54-.84-1.08-1.25-1.61zm105.7-154.2c2.17 0 4 .18 5.79-.03 14.68-1.7 29.37-3.34 44.02-5.28 11.85-1.57 23.66-3.44 35.45-5.44 1.51-.26 3.82-1.97 3.95-3.19 1.34-12.89 2.64-25.8 3.26-38.73.39-8.1-4.08-11.44-12.01-10.49-7.75.93-15.54 1.49-23.29 2.46-15.98 2.01-31.94 4.22-47.91 6.26-2.81.36-4.02 1.78-4.17 4.48-.23 4.15-.43 8.31-.88 12.44-1.33 12.37-2.77 24.73-4.21 37.52z" fill="currentColor"/><path d="m167.74 120.61c3.13-1.96 6.12-4.19 9.4-5.85 24.93-12.62 48.05-27.87 68.51-46.97 4.74-4.42 9.62-8.89 13.37-14.1 3.1-4.3 5.14-9.57 6.71-14.7 1.72-5.6 4.37-7.62 9.84-5.16 10.05 4.52 17.51 12.01 22.73 21.61 2.32 4.26 1.11 7.97-3.04 10.13-29.02 15.12-57.82 30.71-87.29 44.92-11.19 5.4-23.96 7.55-36.02 11.12-1.14.34-2.42.18-3.64.26-.19-.43-.38-.85-.57-1.26z" fill="currentColor"/>
</svg>