<svg enable-background="new 0 0 400 400" viewBox="0 0 400 400" xmlns="http://www.w3.org/2000/svg">
<path d="m295.32 177.12c3.44 3.96 6.94 7.34 9.66 11.26 3.57 5.14 2.13 9.27-4.01 10.92-5.4 1.45-11.08 2.02-16.66 2.68-25.56 3.03-51.15 5.9-76.71 8.93-11.02 1.31-22 2.87-32.66 4.27-2.67 15.98-4.73 31.61-7.97 46.99-5.52 26.16-14.87 50.64-33.87 70.46-15.47 16.14-34.99 24.92-55.88 31.31-.56.17-1.24-.06-3.24-.21 3.44-2.46 5.86-4.38 8.45-6.03 36.79-23.34 58.01-56.64 64.44-99.67 4.6-30.78 8.6-61.59 7.89-92.8-.24-10.66-1.62-21.21-7.19-30.72-.81-1.39-1.34-3.03-1.64-4.63-.62-3.28.75-5.34 4.25-4.99 4.94.5 10.28.33 14.68 2.23 11.29 4.9 22.82 4.45 34.3 2.52 23.23-3.91 46.41-8.19 69.48-12.94 6.35-1.31 12.08-5.4 18.39-7.17 4.59-1.28 10.24-2.39 14.4-.84 9.89 3.67 19.4 8.58 28.64 13.75 5.66 3.16 5.65 7.64 1.1 12.36-1.26 1.31-2.61 2.64-4.15 3.58-15.11 9.2-24.72 22.89-31.7 38.74zm-120.76 25.49c12.69-1.94 25.02-3.59 37.25-5.76 19.6-3.48 39.14-7.25 58.68-11.09 1.4-.28 3.32-1.92 3.61-3.24 2.98-13.59 5.89-27.2 8.35-40.88.95-5.3-2.98-9.86-8.42-10.41-3.78-.38-7.7-.39-11.46.14-22.18 3.15-44.33 6.51-66.49 9.81-6.31.94-12.61 1.94-18.44 2.84-1.04 19.83-2.04 38.86-3.08 58.59z" fill="currentColor"/><path d="m262.19 69.78c-.17 1.31-.25 2.65-.53 3.93-2.55 11.5-5.34 12.66-16.08 7.9-15.21-6.76-26.16-18.48-36.86-30.59-.65-.74-1.2-1.6-1.68-2.46-2.44-4.4-1.29-7.23 3.63-6.76 9.01.86 18.26 1.77 26.76 4.6 7.01 2.33 13.54 6.88 19.39 11.57 3.12 2.5 4.33 7.37 6.4 11.17-.34.21-.68.43-1.03.64z" fill="currentColor"/>
</svg>