<svg enable-background="new 0 0 400 400" viewBox="0 0 400 400" xmlns="http://www.w3.org/2000/svg">
<path d="m73.57 360.06c1.43-1.9 2.65-4.03 4.33-5.67 43.93-42.75 64.33-97.18 76.62-155.43 3.53-16.72 4.84-33.9 3.28-51.06-.41-4.53-2.38-8.9-3.48-13.38-.48-1.99-.56-4.07-.82-6.11 2-.22 4.1-.94 5.97-.55 4.37.91 8.91 1.77 12.87 3.71 6.36 3.11 12.9 2.32 19.09 1.1 22.6-4.46 45.75-7.59 67.39-15.01 18.51-6.34 32.69-1.83 46.97 8.27 7.1 5.02 6.34 7.6.73 14.15-9.14 10.68-17.24 22.25-25.84 33.52 3.38 3.6 6.06 6.09 8.31 8.91 4.33 5.45 3 9-3.88 9.7-11.4 1.17-22.87 1.67-34.27 2.89-19.49 2.08-38.93 4.53-58.41 6.76-4.79.55-9.59.99-14.4 1.22-3.04.14-4.44.89-5.19 4.38-8.75 40.9-23.84 79.13-49.06 112.87-11.82 15.81-26.68 28.27-43.9 37.9-1.79 1-3.72 1.77-5.58 2.64-.22-.26-.47-.54-.73-.81zm101.65-168.11c1.4 0 2.23.1 3.03-.01 11.99-1.68 24.01-3.18 35.96-5.13 15.55-2.54 31.03-5.46 46.55-8.15 2.88-.5 4.01-1.88 4.26-4.93.54-6.44 1.58-12.84 2.54-19.23 2.39-16.02-2.33-20.54-18.33-18.02-15.4 2.42-30.87 4.41-46.3 6.69-7.84 1.15-15.65 2.51-23.33 3.76-1.47 15.16-2.9 29.83-4.38 45.02z" fill="currentColor"/><path d="m125.86 80.61c2.45-.56 4.91-1.62 7.36-1.6 49.43.34 97.26-10.6 145.23-20.54 6.98-1.45 13.9-3.59 20.96-4.17 12.36-1.02 23.22 3.34 32.26 11.8 3.04 2.84 2.23 5.45-2.03 6.12-6.05.96-12.23 1.07-18.32 1.8-32.63 3.92-65.26 7.78-97.86 11.94-18.6 2.37-37.07 6.14-55.74 7.58-11.57.89-22.78-3.03-31.89-10.87.01-.69.02-1.37.03-2.06z" fill="currentColor"/>
</svg>