<svg enable-background="new 0 0 400 400" viewBox="0 0 400 400" xmlns="http://www.w3.org/2000/svg">
<path d="m50.03 347.6c10.08-12.19 21.47-23.56 29.89-36.81 8.39-13.2 14.41-28.04 20.36-42.61 6.03-14.75 9.37-30.34 10.53-47.13-7.07 2.12-13.6 3.79-19.93 6.05-11.87 4.24-23.68 8.67-35.4 13.32-4.58 1.82-9.14 2.11-12.62-1.04-5.1-4.63-9.92-9.77-13.9-15.38-3.69-5.19-1.95-7.88 4.43-8.23 7.29-.41 14.72.19 21.87-.98 18.16-2.96 36.21-6.62 54.26-10.19 1.22-.24 2.92-2.05 3.04-3.27 1.17-12.05 2.06-24.13 3.11-37.24-14.54 4.81-27.59 4.65-39.55-3.68-.09-.55-.17-1.1-.26-1.64 12.97-3.28 25.94-6.57 39.12-9.91-.26-12.81-1.21-25.03-5.33-36.76-2.51-7.14-4.09-7.67-11.52-6.61-3.41.49-6.96.08-10.44.08-.25-.72-.5-1.45-.75-2.17 3.07-1.85 5.99-4.06 9.25-5.5 15.04-6.62 28.79-15.22 41.24-25.93 4.79-4.12 8.55-8.85 9.35-15.37.49-3.98 3.02-5.8 6.61-4.88 11.44 2.91 20.82 9.42 28.69 18 .89.97.08 4.88-1.21 6.15-1.74 1.72-4.66 2.34-7.15 3.19-18.81 6.42-37.65 12.77-57.51 19.5 5.07 2.6 9.22 4.49 13.14 6.78 7.06 4.13 7.65 6.67 6.32 14.58-1.31 7.78-1.66 15.73-2.52 24.54 8.41-2.23 15.88-4.2 23.34-6.2 4.12-1.11 7.89-.7 11.19 2.27 3.64 3.27 3.81 6.45-.42 8.85-4.73 2.69-9.88 4.74-15.01 6.62-5.13 1.87-10.51 3.06-15.69 4.83-1.26.43-2.98 1.86-3.08 2.96-1.04 11.73-1.8 23.49-2.7 36.17 11.55-3.09 22.33-6.17 33.22-8.79 6.09-1.47 12.35-2.29 18.57-3.15 1.54-.22 3.35.24 4.8.89 1.24.56 3.06 1.93 2.99 2.81-.11 1.33-1.37 3.21-2.6 3.69-5.38 2.12-10.89 3.94-16.42 5.66-12.83 3.98-25.68 7.92-38.58 11.67-2.72.79-3.57 2.06-3.76 4.83-2.71 39.99-16.73 75.53-43.91 105.08-8.55 9.29-19.78 16.12-29.88 23.95-1.28.99-3.13 1.25-4.72 1.84-.15-.28-.3-.56-.46-.84z" fill="currentColor"/>
</svg>