<svg enable-background="new 0 0 400 400" viewBox="0 0 400 400" xmlns="http://www.w3.org/2000/svg">
<path d="m194.55 199.67c-.82-14.71-1.62-28.93-2.46-43.98-7.67 1.01-14.56 1.53-21.28 2.88-14.3 2.87-28.07 1.74-41.36-4.34-2.12-.97-4.05-2.36-6.07-3.56.04-.75.07-1.5.11-2.25 5.31-1.15 10.58-2.51 15.93-3.4 15.37-2.57 30.78-4.94 46.17-7.42.79-.13 1.54-.54 3.47-1.24-2.06-6.31-3.63-12.72-6.24-18.66-2.87-6.52-6.8-12.57-10.07-18.92-1.35-2.62-3.08-2.8-5.71-2.32-12.45 2.29-24.97 3.89-37.63 1.7-.76-.13-1.5-.45-3.79-1.16 2.87-1.51 4.52-2.64 6.34-3.29 19.54-6.95 39.18-13.62 58.63-20.8 15.56-5.75 30.19-13.26 41.55-25.85 3.18-3.53 6.54-4.02 10.59-1.45 7.56 4.81 15.37 9.26 22.75 14.32 2.06 1.42 4.66 5.07 4.08 6.6-.81 2.14-4.15 3.96-6.75 4.69-25.39 7.11-50.85 13.97-76.29 20.91-.6.16-1.15.47-3.14 1.3 18.22 7.26 28.8 18.92 26.13 39.98 12.64-2.83 24.15-5.01 35.42-8.05 10.62-2.86 20.1-1.13 28.81 5.19 1.74 1.26 4.19 4.01 3.78 5.2-.64 1.87-3.25 3.86-5.35 4.31-11.99 2.58-24.06 4.78-36.12 7-7.99 1.47-16.01 2.73-24.06 4.1.92 15.63 1.83 30.97 2.77 46.98 9.03-.86 18.11-1.42 27.1-2.65 24.17-3.31 48.27-7.23 72.48-10.29 14.03-1.77 25.81 4.76 36.96 12.4 1.78 1.22 3.61 2.48 5.04 4.06 1.16 1.27 2.65 3.26 2.35 4.54-.29 1.19-2.7 2.53-4.26 2.64-7.95.56-15.92.99-23.89 1-17.14.02-34.28-.63-51.41-.28-13.45.27-26.87 1.6-40.31 2.52-8.09.55-16.17 1.2-23.52 1.75 0 16.27-.38 31.89.09 47.49.65 21.3 1.11 42.54-3.28 63.55-3.56 17.03-12.92 30.52-26.15 41.35-6.7 5.49-9.77 4.16-12.29-4.01-3.11-10.09-10.58-16.73-18.6-22.83-4.63-3.52-9.5-6.73-14.26-10.08-1.72-1.21-3.46-2.39-5.19-3.58.44-.71.88-1.41 1.32-2.12 3.28.58 6.56 1.21 9.85 1.73 7.85 1.23 15.67 2.95 23.57 3.45 8.94.56 15.58-3.95 18.3-12.53 2.24-7.06 4.37-14.44 4.69-21.77 1.11-25.58 1.42-51.19 2.06-77.69-8.46.91-15.68 1.4-22.8 2.51-26.9 4.17-53.8 8.34-80.63 12.94-8.91 1.53-17.64 3.31-26.61.89-8.59-2.31-15.63-7.23-22.07-13.12-1.03-.95-1.68-2.32-3.62-5.1 52.64-.48 103.12-8.13 154.87-15.24z" fill="currentColor"/>
</svg>