<svg enable-background="new 0 0 400 400" viewBox="0 0 400 400" xmlns="http://www.w3.org/2000/svg">
<path d="m225.58 227.17c-9.77 8.48-19.23 16.29-28.22 24.62-11.84 10.97-23.39 22.25-34.88 33.6-7.03 6.94-14.03 8.03-21.68 1.92-4.1-3.27-7.7-7.36-10.83-11.59-2.67-3.6-1.42-7.09 2.9-8.09 22.96-5.33 40.68-20.01 59.35-32.95 10.12-7.01 19.84-14.6 29.87-21.75 2.84-2.02 4.08-4.16 4.01-7.77-.24-13.46-.1-26.93-.1-40.69-12.27 2.81-24.05 5.54-35.85 8.22-9.62 2.18-19.16 2.12-28.42-1.64-2.17-.88-4.12-2.27-6.18-3.43.06-.58.12-1.15.18-1.73 3.21-.98 6.41-2.01 9.64-2.94 18.82-5.43 37.65-10.79 56.42-16.37 1.27-.38 2.93-2.43 2.9-3.68-.41-22.42.11-44.96-5.8-66.87-1.33-4.94-3.71-9.59-5.42-14.44-.9-2.56-1.42-5.25-2.03-7.59 1.04-.69 1.31-1.04 1.58-1.03 13.29.57 24.73 5.93 34.68 14.34 1.7 1.44 2.24 5.53 1.71 8.07-1.51 7.23-4.92 14.18-5.64 21.43-1.45 14.48-1.61 29.08-2.26 42.64 7.51-1.29 14.2-2.98 20.96-3.37 3.36-.2 7.11 1.51 10.24 3.19 4.15 2.23 4.26 5.09.14 7.38-5.2 2.89-10.79 5.14-16.35 7.31-4.61 1.8-9.41 3.09-14.28 4.66v40.38c9.01-5.77 17.79-11.39 26.56-17.01.51.55 1.01 1.1 1.52 1.65-1.03 1.68-1.77 3.64-3.14 4.98-7.38 7.21-14.96 14.2-22.33 21.41-1.28 1.25-2.71 3.2-2.69 4.81.27 21.31-.16 42.69 1.53 63.89 1.61 20.26-1.7 39.01-11.01 56.86-1.3 2.5-2.83 4.93-4.59 7.11-4.94 6.11-8.84 5.64-13.14-1.14-2.67-4.21-5.07-8.8-8.57-12.21-5.79-5.64-12.36-10.49-18.64-15.64-2.13-1.75-4.36-3.38-6.55-5.06.17-.59.35-1.19.52-1.78 4.75.42 9.49.86 14.24 1.25 3.81.31 7.62.76 11.43.79 9.05.07 12.59-2.1 14.46-11.1 1.96-9.38 3.2-19.02 3.61-28.59.59-13.64.15-27.32.15-42.05z" fill="currentColor"/>
</svg>