<svg version="1.0" xmlns="http://www.w3.org/2000/svg"
 width="300.000000pt" height="300.000000pt" viewBox="0 0 300.000000 300.000000"
 preserveAspectRatio="xMidYMid meet">

<g transform="translate(0.000000,300.000000) scale(0.100000,-0.100000)"
fill="currentColor" stroke="none">
<path d="M1518 2594 c-28 -8 -32 -41 -9 -77 71 -112 84 -187 79 -457 l-3 -155
-50 -7 c-27 -4 -232 -33 -455 -63 -507 -68 -470 -62 -470 -85 0 -18 40 -55 88
-79 38 -20 111 -14 237 19 213 55 555 109 555 87 0 -17 -91 -160 -162 -255
-177 -236 -407 -453 -748 -709 -108 -81 -113 -87 -91 -97 29 -12 83 6 226 76
231 113 536 392 795 727 l65 83 3 -313 c4 -429 -5 -673 -27 -700 -16 -20 -17
-20 -91 -3 -41 9 -106 28 -144 41 -111 40 -106 21 36 -124 87 -90 136 -149
163 -198 66 -121 98 -140 147 -87 37 39 55 80 80 179 26 105 29 259 10 652 -7
139 -12 367 -12 506 l0 252 48 7 c26 3 187 9 357 12 322 7 355 11 355 50 0 24
-56 71 -124 107 -55 29 -69 32 -146 30 -55 0 -155 -15 -280 -40 -107 -22 -197
-39 -200 -37 -12 6 10 278 30 369 35 161 35 157 3 189 -57 58 -210 116 -265
100z"/>
</g>
</svg>
