<svg enable-background="new 0 0 400 400" viewBox="0 0 400 400" xmlns="http://www.w3.org/2000/svg">
<path d="m178.58 298.75c-11.8 7.7-23.48 15.34-35.18 22.94-21.46 13.94-45.08 21.77-70.43 24.41-7.25.76-14.58.86-21.87.93-2.32.02-4.65-1-6.98-1.55-.05-.65-.09-1.3-.14-1.95 5.97-1.54 11.97-3 17.91-4.64 37.31-10.28 71.27-26.64 98.89-54.5.46-.46.84-1 1.94-2.33-10.62-9.61-20.8-19.63-31.84-28.58-10.88-8.81-22.64-16.54-34.45-25.06 4.21-3.58 8.27-2.76 12.02-2.12 10.64 1.81 19.5 7.41 27.75 14.01 10.53 8.42 20.9 17.03 31.41 25.48 2.32 1.86 4.9 3.4 7.76 5.36 7.79-11.91 14.96-23.9 19.36-37.15 2.95-8.88 4.92-18.22 6.05-27.51.88-7.2-3.36-11.17-10.61-10.33-10.02 1.17-19.97 3.2-29.83 5.42-16.16 3.65-32.24 7.7-48.32 11.68-9.22 2.28-21.51-2.02-26.23-9.66 24.97-4.54 49.77-9.05 74.82-13.6.56-16.38 1.1-32.28 1.69-49.37-8.98.67-17.96.59-26.65 2.16-12.4 2.24-23.3-1.11-33.92-6.71-1.1-.58-1.9-1.71-3.99-3.66 4.17-1 7.21-2.21 10.31-2.39 17.03-.95 33.53-4.64 49.91-9.12 3.28-.9 5.1-2.16 4.7-6.03-1.69-16.33-2.73-32.73-4.93-48.98-.73-5.36-4.3-10.33-6.5-15.51-1.06-2.5-1.95-5.06-3.23-8.41 3.27 0 5.47-.4 7.47.07 9.19 2.16 18.39 4.34 27.45 6.99 2.88.85 5.94 2.7 7.79 4.99 1.48 1.84 2 5.16 1.63 7.63-1.81 12.28-4.28 24.46-6.06 36.74-.83 5.71-.61 11.57-.91 18.29 8.04-1.76 15.77-3.22 23.36-5.17 8.2-2.11 16.29-4.64 24.41-7.05 7.7-2.29 15.45-3.17 22.74.83 2.51 1.38 5.75 4.27 5.79 6.51.03 2.09-3.39 5.31-5.93 6.17-10.98 3.71-22.09 7.16-33.35 9.88-10.95 2.64-22.14 4.31-33.24 6.34-3.04.56-5.58 1.08-5.88 5.14-1.13 15.04-2.55 30.07-3.96 46.19 8.44-3.24 16.15-5.72 23.43-9.13 6.2-2.9 11.95-2.67 17.55.59 7.32 4.26 14.51 8.78 21.53 13.52 5.3 3.58 5.44 7.45-.06 10.2-11.54 5.76-16.31 16.17-21.47 27.03-8.04 16.92-17.34 33.25-26.12 49.82-.85 1.61-1.84 3.15-2.93 5 13.61 10.93 28.04 20.33 43.35 28.47 20.41 10.84 42.68 15.55 65.02 19.73 16.14 3.02 32.51 4.77 48.76 7.18 2.02.3 3.95 1.16 5.92 1.76.06.51.12 1.01.18 1.52-3.1 1.26-6.1 2.99-9.33 3.69-20.59 4.46-41.12 9.37-61.89 12.78-16.02 2.63-30.74-3.03-43.56-12.45-19.97-14.68-39.47-30.01-59.17-45.06-.64-.48-1.31-.96-1.94-1.43z" fill="currentColor"/>
</svg>