<svg enable-background="new 0 0 400 400" viewBox="0 0 400 400" xmlns="http://www.w3.org/2000/svg">
<path d="m190.55 292.49c-31.22 30.89-68.05 50.4-111.82 55.44-14.13 1.63-23.21.18-30.15-3.36 3.34-1.46 5.78-2.86 8.41-3.63 13.84-4.08 27.82-7.7 41.57-12.05 28.74-9.1 54-24 74.81-46.06.69-.73 1.41-1.42 2.08-2.16.21-.24.32-.57.93-1.69-11.02-9.01-21.76-18.71-33.45-27.09-11.58-8.3-24.12-15.25-36.93-23.22 5.58-3.77 11.01-4.1 16.66-3.32 12.05 1.66 21.57 8.49 30.86 15.54 11.52 8.74 22.77 17.84 35.06 27.51 5.81-10.76 12.05-21.15 17.12-32.08 4.24-9.14 7.14-18.91 10.58-28.41.39-1.08.56-2.26.65-3.41.74-9.07-.69-11.34-9.61-10.32-16.62 1.89-33.2 4.44-49.65 7.5-14.83 2.76-29.43 6.73-44.19 9.87-11.16 2.37-21.09-.76-29.72-8-1.25-1.05-1.8-2.92-2.68-4.4 1.75-.73 3.45-1.96 5.25-2.12 9.6-.85 19.28-1.05 28.84-2.2 14.5-1.74 28.95-3.98 43.37-6.29 1.27-.2 3.14-2.48 3.15-3.8.15-35.16.37-70.33-.08-105.49-.15-11.55-.91-23.29-7.14-33.78-1.68-2.82-.43-5.43 3.07-4.51 9.11 2.39 18.26 4.86 27.02 8.26 4.74 1.84 4.71 6.14 3.85 12.05-2.46 16.9-4.27 33.9-6.3 50.86-.05.44.27.92.48 1.56 20.63-2.65 41.06-5.76 60.6-13.38 6.91-2.69 14.24-4.47 21.53-5.96 7.16-1.46 13.94.04 19.35 5.44 3.94 3.94 3.76 6.12-.91 8.99-2.37 1.46-4.99 2.7-7.65 3.49-26.04 7.77-52.39 13.73-79.82 12.74-4.45-.16-8.88-.8-14.35-1.31-1.41 20.52-2.8 40.64-4.24 61.6 12.65-3.09 24.69-4.45 35.48-10.59 2.34-1.33 5.91-1.97 8.44-1.26 9.14 2.56 16.86 7.84 23.51 14.53 3.13 3.16 3.94 6.54.26 10.45-2.68 2.84-5.02 6.36-6.42 10-9.56 24.75-22.43 47.81-36.29 71.29 7.49 5.73 14.99 11.39 22.42 17.15 24.49 19 53.4 27.94 82.65 35.85 15.83 4.29 31.97 7.41 47.93 11.24 3.26.78 6.33 2.38 9.48 3.6 0 .52-.01 1.05-.01 1.57-1.66.71-3.27 1.8-5 2.08-12.77 2.02-25.54 4.13-38.37 5.71-11.21 1.38-22.51 1.93-33.74 3.16-13.96 1.52-25.55-3.75-35.6-12.61-19.73-17.39-39.15-35.13-58.7-52.73-.74-.62-1.48-1.26-2.59-2.25z" fill="currentColor"/>
</svg>