<svg enable-background="new 0 0 400 400" viewBox="0 0 400 400" xmlns="http://www.w3.org/2000/svg">
<path d="m337.14 330.72c-5.01 1.24-9.95 2.98-15.04 3.63-18.6 2.41-37.27 4.32-55.87 6.69-18.38 2.34-30.38-7.76-41.22-20.45-10.81-12.65-21.69-25.23-33.06-38.45-33.2 38.55-77.82 46.44-124.38 49.15-.29-.8-.59-1.59-.88-2.39 6.14-2.04 12.2-4.32 18.42-6.07 25.82-7.27 50.21-17.56 71.2-34.59 8.5-6.9 16.18-14.79 24.61-22.59-6.37-8.61-12.13-16.72-18.24-24.56-7.56-9.7-15.41-19.18-23.16-28.74-.52-.64-1.1-1.28-1.78-1.75-3.67-2.55-7.19-6.61-11.13-7.07-3.26-.39-7.05 3.45-10.58 5.46-7.18 4.09-14.27 8.32-21.54 12.23-1.57.85-3.74.59-7.21 1.05 1.68-2.31 2.25-3.7 3.29-4.44 20.25-14.57 33.53-35.01 46.25-55.73 16.66-27.14 27.34-56.82 34.19-87.78 1.36-6.14-.73-13.03-1.19-19.57-.17-2.39-.24-4.79-.35-7.19 2.37.07 5.13-.61 7.06.35 9.78 4.87 19.49 9.94 28.94 15.42 4.84 2.81 5.18 5.71 1.12 9.59-9.92 9.45-15.39 21.59-21.36 33.48-8.06 16.05-16.1 32.12-24.15 48.18-.35.7-.67 1.42-1.01 2.13.2.52.4 1.03.6 1.55 8.37-2.03 16.92-3.52 25.08-6.19 22.4-7.35 44.57-15.42 67-22.7 4.99-1.62 10.81-2.08 15.97-1.28 3.03.47 6.89 4.07 7.78 7.04.6 2.02-2.75 6.17-5.31 8.01-10.44 7.49-22.72 10.8-34.98 13.91-8.49 2.15-17.09 3.89-26.65 6.04 2.02 1.16 3.35 1.9 4.66 2.67 4.3 2.51 8.68 4.9 12.87 7.6 3.62 2.33 4.19 4.96 2.65 9.63-4.13 12.57-7.68 25.42-10.26 38.4-2.85 14.36-7.98 27.71-14.57 40.64-.97 1.91-1.89 3.85-3.41 6.96 13.01 9.16 25.62 18.97 39.11 27.35 25.34 15.75 53.4 24.18 82.77 28.66 4.64.71 9.14 2.36 13.7 3.58.01.69.04 1.42.06 2.14zm-209.19-132.83c10.96-1.45 18.02 3.63 24.26 10.11 4.95 5.15 9.56 10.64 14.22 16.08 7.41 8.66 14.73 17.39 22.96 27.12 8.51-28.54 13.58-56.14 10.15-85.03-1.29 0-2.14-.15-2.92.02-12.34 2.83-24.46 1.34-36.35-2.23-3.83-1.15-6.14-.4-8.4 2.79-5.85 8.27-11.92 16.39-17.99 24.5-1.54 2.06-3.42 3.86-5.93 6.64z" fill="currentColor"/>
</svg>