<svg enable-background="new 0 0 400 400" viewBox="0 0 400 400" xmlns="http://www.w3.org/2000/svg">
<path d="m165.12 244.28c-10.75-11.27-20.59-22.64-31.57-32.79-10.88-10.06-22.9-18.88-34.89-28.63 4.71-3.2 9.38-2.23 13.76-1.49 10.95 1.84 19.68 7.92 27.3 15.61 10.65 10.76 21.09 21.73 31.61 32.61 10.14-12.8 16.55-71.58 8.95-84.07-15.88 3.67-31.81 7.59-47.86 10.97-11.84 2.49-23.76 4.99-35.77 6.14-7.99.77-16.32-.54-22.47-9.2 4.34-.74 8-1.14 11.56-2 33.08-7.95 66.22-15.73 99.2-24.09 22.99-5.83 45.71-12.73 68.68-18.69 13.68-3.55 27.11-3.02 38.86 6.21 1.65 1.3 3.76 3.83 3.44 5.31-.35 1.63-3.11 3.48-5.1 3.89-9.42 1.93-18.91 3.54-28.41 4.99-22.95 3.51-45.87 7.08-68.84 14.9 4.09 2.72 7.66 4.89 11.01 7.37 2.53 1.87 5.07 3.88 7.03 6.29 1.06 1.31 1.61 3.78 1.19 5.42-3.38 13.31-7.07 26.54-10.61 39.81-3.97 14.87-7.87 29.77-12.14 45.95 8.74 6.9 18.83 14.73 28.77 22.74 28.46 22.94 61.43 35.12 97.02 41.43 13.69 2.43 27.22 5.77 40.82 8.74 1.22.27 2.37.82 3.56 1.25.04.47.07.94.11 1.42-7.97 2.09-15.84 4.72-23.93 6.14-16.32 2.87-32.71 5.42-49.15 7.44-10.74 1.32-20.51-2.45-29.91-7.61-16.54-9.06-30.67-21.14-44.01-34.23-10.93-10.73-21.62-21.69-32.62-32.74-38.44 37.56-83.36 56.63-136.97 52.26-.26-.61-.52-1.22-.78-1.84 2.24-.96 4.4-2.19 6.72-2.83 12.48-3.44 25.24-6.01 37.44-10.23 27.42-9.48 52.25-23.31 70.78-46.47 2.4-2.97 4.48-6.17 7.22-9.98z" fill="currentColor"/><path d="m206.51 80.45c-.07 9.08-4.63 12.87-11.95 10.75-13.06-3.78-23.66-11.94-34.13-20.15-4.43-3.47-8.55-7.41-12.35-11.56-2.61-2.85-1.57-5.47 2.02-5.41 14.62.23 29.32.77 42.67 7.7 7.96 4.12 12.93 10.76 13.74 18.67z" fill="currentColor"/>
</svg>