<svg enable-background="new 0 0 400 400" viewBox="0 0 400 400" xmlns="http://www.w3.org/2000/svg">
<g fill="currentColor"><path d="m236.43 195.32c9.41-1 18.5-1.59 27.46-3.01 16.86-2.67 33.64-5.86 50.46-8.76 16.26-2.81 28.89 3.93 39.36 15.59 3.88 4.32 2.2 8.22-3.79 8.76-5.45.5-10.98-.04-16.48.1-21.91.57-43.83 1.07-65.73 1.92-10.28.4-20.53 1.52-31.64 2.38 0 4.48.04 8.74-.01 13-.34 28.47-.34 56.95-1.2 85.4-.53 17.4-1.02 34.92-5.78 51.88-.98 3.49-2.52 6.85-4.14 10.11-.58 1.17-2.17 2.54-3.27 2.52-.93-.02-2.36-1.8-2.63-3.01-1.2-5.32-2.57-10.69-2.95-16.11-.8-11.28-1.29-22.59-1.44-33.9-.36-27.13-.46-54.27-.64-81.41-.06-8.77-.01-17.53-.01-26.78-7.79 1.05-15.84 1.91-23.81 3.25-24.71 4.17-49.44 8.3-74.07 12.93-9.25 1.74-18.19 5.13-27.4 7.19-12.01 2.68-22.74-.49-31.81-8.78-1.58-1.44-2.4-3.72-3.57-5.61 2.14-1.04 4.19-2.73 6.42-3 7.58-.93 15.26-1.05 22.83-2.04 20.41-2.66 40.81-5.42 61.16-8.47 22.16-3.32 44.24-7.11 66.4-10.43 3.53-.53 4.81-1.52 4.74-5.19-.54-29.63-.47-59.28-1.49-88.89-.51-14.71-2.45-29.43-4.67-44-.87-5.71-4.14-11.09-6.55-16.52-2.38-5.35-1.11-7.99 4.39-6.58 10.86 2.79 21.6 6.26 32.05 10.33 5.14 2 4.89 4.69 3.04 10.2-1.73 5.14-2.89 10.6-3.37 16-.81 8.93-1.09 17.93-1.21 26.9-.39 29.46-.62 58.93-.89 88.4-.02 1.61.13 3.23.24 5.63z"/><path d="m149.89 83.89c12.87.8 23.94 4.27 33.95 10.45 7.77 4.8 10.42 12.69 10.08 21.51-.21 5.35-4.17 8.53-9.25 6.61-7.97-3.02-16.26-6.08-23.08-11-7.86-5.67-14.46-13.17-21.19-20.27-3.05-3.22-2.12-5.18 2.13-6.14 2.75-.62 5.57-.88 7.36-1.16z"/><path d="m135.18 147.65c8.3 2.01 16.76 3.54 24.87 6.15 9.72 3.13 14.94 12.95 13.17 22.95-.85 4.78-4.6 5.8-8.25 5.1-16.9-3.25-30.91-11.63-41.7-25.09-3.15-3.93-1.84-6.68 3.17-7.68.49-.1.99-.14 1.49-.15 2.33-.02 4.65-.01 6.98-.01.08-.41.17-.84.27-1.27z"/>
</g>
</svg>