<svg enable-background="new 0 0 400 400" viewBox="0 0 400 400" xmlns="http://www.w3.org/2000/svg">
<path d="m66.94 320.39c3.36-4.4 6.38-9.1 10.13-13.14 18.48-19.9 33.33-42.19 41.11-68.23 6.11-20.44 10.69-41.44 14.44-62.46 2.64-14.81 3.66-30.07 3.66-45.13 0-10.97-2.26-22.07-4.69-32.84-1.14-5.08-5.03-9.54-8.48-15.73 3.89.26 6.8-.07 9.35.73 7.9 2.49 15.63 5.55 23.51 8.09 2 .64 4.71.98 6.48.14 17.18-8.13 33.77-17.33 48.58-29.35 6.49-5.27 12.46-10.98 12.14-20.64-.14-4.14 3.56-6.18 7.05-4.64 11.36 5 22.59 10.35 33.57 16.13 3.89 2.05 3.14 5.44-1.35 6.52-35.57 8.54-66.44 28.56-100.42 40.98-1.2.44-2.68 2.13-2.75 3.31-1.03 18.39-1.85 36.79-2.76 56.1 5.53-.83 10.7-1.51 15.84-2.38 40.59-6.92 80.92-14.99 120.62-26.04 7.64-2.13 15.22-4.88 23.01-5.96 9.62-1.33 18.37 1.97 25.72 8.51 4.92 4.37 4.44 7.87-1.99 9.35-9.84 2.27-19.87 3.8-29.87 5.35-26.56 4.12-53.15 8.08-79.88 12.79 3.35.97 6.83 1.62 10.01 2.99 4.07 1.75 8.34 3.55 11.63 6.37 1.77 1.51 2.53 5.3 2.25 7.9-.92 8.5-3.45 16.9-3.7 25.39-.8 26.63-.45 53.29-1.3 79.91-.69 21.58-2.32 43.14-3.89 64.68-.33 4.54-1.94 9.07-3.53 13.39-.65 1.77-2.82 2.97-4.3 4.44-1.41-1.49-3.65-2.78-4.1-4.52-1.68-6.56-3.39-13.22-3.95-19.94-.96-11.43-1.33-22.93-1.46-34.41-.4-33.81-.24-67.63-.99-101.42-.27-12.4-2.26-24.78-3.91-37.11-.9-6.72-1.32-6.7-7.85-5.47-20.1 3.78-40.23 7.3-60.78 7.41-.48 0-.96.23-1.43.35-1.88 12.65-3.4 25.31-5.68 37.84-8.52 46.91-31.67 84.17-72.92 109.28-1.8 1.1-3.78 1.91-5.68 2.85-.46-.46-.95-.92-1.44-1.39z" fill="currentColor"/>
</svg>