<svg enable-background="new 0 0 400 400" viewBox="0 0 400 400" xmlns="http://www.w3.org/2000/svg">
<path d="m196.06 191.99c-30.28 66.87-76.63 116.46-145.8 142.42-.42-.44-.83-.88-1.25-1.33 2.52-2.31 4.86-4.86 7.59-6.89 21.71-16.08 42.83-32.87 61.05-52.93 23.4-25.76 44.22-53.31 57.01-86.09 5.17-13.26 9.7-26.76 11.23-41.83-9.23 1.1-18.11 1.77-26.84 3.28-24.36 4.2-48.66 8.76-72.99 13.15-8.65 1.56-16.42-1.43-23.94-5.06-4.64-2.24-9.02-5.04-13.52-7.59.15-.61.31-1.22.46-1.83 1.98-.46 3.96-1.31 5.94-1.31 29.74.06 58.81-5.74 88.08-9.82 25.16-3.51 50.4-6.52 75.5-10.44 29.99-4.69 59.88-10.05 89.8-15.24 15.82-2.75 30.87-1.83 43.84 8.88 1.84 1.52 2.69 4.22 4.01 6.37-2.07 1.17-4.04 3.06-6.23 3.37-8.54 1.23-17.12 2.28-25.73 2.82-19.58 1.23-39.23 1.56-58.76 3.33-19.67 1.78-39.22 4.86-58.83 7.4-2.27.29-4.53.73-7.54 1.23 4.09 3.06 7.66 5.55 11.01 8.3 3.64 3 3.85 6.12 1.17 10.41-4.3 6.88-7.69 14.32-11.71 21.98 8.44 3.44 16.59 2.94 24.5 1.76 7.99-1.2 15.71-4.16 23.7-5.4 4.9-.76 10.55-.95 15.04.76 8.46 3.24 16.53 7.7 24.38 12.3 5.94 3.49 6.23 7.34 2.28 12.84-7.23 10.09-10.13 21.94-13.43 33.59-6.08 21.4-11.55 43.01-22 62.85-6.69 12.71-14.13 25.02-26.18 33.49-4.01 2.82-8.64 4.99-13.29 6.61-6.73 2.35-11.36-.03-12.76-6.98-2.84-14.12-11.9-23.84-21.92-33.03-3.25-2.98-6.65-5.81-9.98-8.71.42-.65.84-1.29 1.27-1.94 1.89.43 3.88.62 5.66 1.34 9.09 3.66 17.98 7.84 27.2 11.1 13.69 4.84 21.11 1.97 27.93-11.02 12.06-22.94 19.89-47.42 24.68-72.84.76-4.03.6-8.36.12-12.46-1.14-9.79-8.63-13.75-20.61-13.26-13.47.57-26.9 2-40.14-3.58z" fill="currentColor"/><path d="m232.1 79.71c-.45 2.78-.64 5.63-1.39 8.33-1.41 5.11-4.74 6.79-9.91 5.16-2.04-.64-4.22-1.33-5.86-2.61-10.5-8.12-21.02-16.22-31.17-24.76-2.8-2.35-4.65-6.03-6.4-9.38-1.6-3.05-.72-5.81 3.2-5.99 16.45-.77 32.56.73 44.86 13.12 3.88 3.91 5.34 10.24 7.9 15.46-.41.22-.82.44-1.23.67z" fill="currentColor"/>
</svg>