<svg enable-background="new 0 0 400 400" viewBox="0 0 400 400" xmlns="http://www.w3.org/2000/svg">
<path d="m163.21 179.87c-18.73 6.09-37.5 12.09-56.16 18.39-3.06 1.03-5.69 3.39-8.46 5.21-5.69 3.73-8.56 2.92-11.9-3.12-3.08-5.57-2.96-11.03.99-15.88 13.47-16.54 11.77-34.69 6.23-53.4-.47-1.59-.88-4.12-.06-4.92.94-.92 3.57-1.03 4.98-.4 5.25 2.32 10.58 4.66 15.34 7.82 4.56 3.02 4.98 7.69 3.21 12.9-2.77 8.15-5.35 16.39-7.47 24.72-1.51 5.92.16 7.3 6.09 6.04 15.9-3.39 31.78-6.92 47.71-10.16 2.97-.6 4.11-1.66 4.51-4.69 1.97-14.8 4.47-29.53 6.23-44.35.6-5.02-.4-10.23-.71-16.15-18.15 2.08-36.17 4.52-51.79-7.2-.03-.52-.06-1.04-.09-1.57 3.27-.69 6.52-1.79 9.82-2.02 27.27-1.85 53.74-8.31 80.35-13.91 11.36-2.39 22.56-5.56 33.95-7.81 8.62-1.7 17.32-.99 25.31 2.99 2.09 1.04 4.26 3.59 4.63 5.76.22 1.25-2.84 4.02-4.83 4.54-11.7 3.05-23.47 5.87-35.31 8.34-12.83 2.67-25.75 4.87-38.63 7.3-.61.12-1.17.52-1.93.87.47 1.06.81 1.98 1.26 2.83 3.05 5.8 3.4 11.01.88 17.77-4.03 10.8-5.68 22.48-8.25 33.81-.57 2.52-.77 5.12-1.3 8.73 23.79-6.1 46.72-11.94 69.63-17.88 8.69-2.25 17.48-5.47 26.37-2.33 4.8 1.7 9.24 5.01 13.1 8.44 1.66 1.47 2.48 5.47 1.7 7.59-.59 1.61-4.29 2.82-6.66 2.92-29.76 1.29-59.26 4.56-89.41 10.61 1.53 1.57 2.7 2.78 3.88 3.98 6.89 6.96 9.71 14.35 6.88 24.71-3.21 11.75-5.01 24.11-5.64 36.3-.78 15.37-.63 30.91.75 46.23 1.31 14.6 10.61 23.53 24.9 27.01 23.2 5.66 46.77 6.87 70.32 3.79 15.51-2.03 26.25-11.9 32.37-26.05 3.4-7.86 5.32-16.37 7.88-24.6.73-2.32 1.39-4.67 3.27-6.93.28 2.67.58 5.33.83 8 1.03 11.38 1.76 22.81 3.22 34.13.54 4.18 3.01 8.07 4.26 12.19 3.04 10.03.93 15.7-8.93 18.92-9.7 3.17-19.89 5.12-30.02 6.58-9.51 1.38-19.21 1.97-28.82 1.93-24.2-.09-48.07-2.14-70.31-13.22-15.5-7.73-24.05-20.24-24.35-37.17-.36-20.57 1.1-41.16 1.32-61.74.18-16.74-.31-33.49-.5-49.99-7.81-1.16-8.61-.43-10.84 5.22-9.64 24.39-17.69 49.63-29.61 72.86-20.03 39.06-52.41 64.22-95.43 74.91-.8.2-1.63.3-2.46.39-.8.09-1.62.1-3.08-.48 61.23-31.12 93.91-83.54 111.62-147.2-.25-.51-.54-1.03-.84-1.56z" fill="currentColor"/>
</svg>