<svg enable-background="new 0 0 400 400" viewBox="0 0 400 400" xmlns="http://www.w3.org/2000/svg">
<path d="m96.49 257.1c-1.49-25.39-2.8-50.8-4.53-76.17-.97-14.25-1.99-28.56-4.25-42.64-1.21-7.52-5.14-14.59-7.72-21.9-.68-1.91-.94-3.97-1.39-5.97 1.99-.27 4.11-1.11 5.96-.72 14.11 3.04 28.06 6.9 42.78 5.15 15.99-1.91 32.04-3.38 48.03-5.33 19.45-2.38 38.89-4.85 58.27-7.71 10.98-1.62 21.81-4.23 32.75-6.12 3.18-.55 6.71-.89 9.75-.09 14.9 3.88 27.95 11.51 39.54 21.47 7.02 6.03 6.97 9 1.64 16.41-7.22 10.06-9.66 21.84-11.11 33.72-3.31 27.03-5.65 54.19-9.36 81.17-1.87 13.57-5.34 26.99-9.05 40.21-3.19 11.39-10.01 20.97-18.54 29.17-4.02 3.86-5.6 3.34-6.89-2-1.6-6.61-3.15-13.25-4.4-19.94-3.63-19.45-10.12-25.81-30-26.44-14.61-.46-29.28.44-43.9 1.12-12.28.57-24.54 1.71-36.81 2.55-9.95.69-19.91 1.21-29.84 2.1-1.18.11-2.75 1.9-3.19 3.22-1.6 4.86-2.41 10-4.26 14.75-1.52 3.88-4.73 4.32-6.61.7-3.09-5.92-5.87-12.27-7.21-18.76-1.19-5.75-.25-11.93-.25-17.93.19.01.39-.01.59-.02zm15.32-59.52c.38 7.36.85 15.3 1.17 23.24.53 12.97.97 25.94 1.41 38.91.08 2.3-.08 4.28 3.44 3.8 15.14-2.08 30.26-4.38 45.47-5.79 21.16-1.96 42.37-3.55 63.59-4.62 12.4-.62 23.27 3.05 30.13 14.75 2.41 4.1 5.37 3.87 8.28.01 1.08-1.44 2.09-3.1 2.54-4.82 2.45-9.29 5.54-18.51 6.88-27.97 2.52-17.75 4.67-35.61 5.72-53.49.99-17.06.6-34.21.38-51.32-.1-8.22-4.88-13.65-12.65-16.05-3.44-1.06-7.2-1.91-10.75-1.69-16.92 1.09-33.82 2.41-50.7 3.97-21.99 2.04-43.96 4.36-65.93 6.6-10.52 1.07-21.03 2.24-32.11 3.42.94 21.11 1.86 41.77 2.81 62.94 5.28-.8 9.55-1.31 13.76-2.12 26.23-5.02 52.38-10.46 78.7-14.92 6.96-1.18 14.52.03 21.61 1.25 3.83.66 7.93 4.23 7.08 8.43-.53 2.64-4.82 4.58-7.56 6.66-.87.66-2.17.79-3.29 1.08-23.9 6.2-48.27 9.4-72.88 10.03-12.16.3-24.38-1.44-37.1-2.3z" fill="currentColor"/>
</svg>