<svg enable-background="new 0 0 400 400" viewBox="0 0 400 400" xmlns="http://www.w3.org/2000/svg">
<path d="m236.32 314.66c5.94 1.18 11.86 2.41 17.81 3.52 3.43.64 6.87 1.24 10.34 1.59 7.89.78 12.39-1.51 14.32-9.18 2.12-8.47 3.77-17.29 3.88-25.98.61-47.29 1-94.59.75-141.89-.09-16.4-2.24-32.79-3.5-49.18-.1-1.31-.55-2.6-.9-3.88-2.86-10.55-4.37-12.31-15.08-11.53-18.21 1.33-36.36 3.51-54.53 5.4-3.63.38-7.22 1.31-10.85 1.47-2.85.13-3.86 1.52-3.92 3.93-.6 21.1-1.15 42.21-1.74 64.19 7.84-1.66 14.88-3.14 21.91-4.65 9.4-2.02 18.79-4.12 28.2-6.08 6.1-1.27 11.56.31 16.22 4.36 4.2 3.65 3.91 7.23-1.3 8.97-6.09 2.03-12.49 3.77-18.85 4.19-14.55.96-29.17 1.05-43.76 1.49-.82.02-1.65 0-3.32 0-2.43 18.36-4.84 36.64-7.41 56.11 10.24-2.16 19.59-4.03 28.89-6.13 10.66-2.41 21.06-6.65 32.25-5.42 4.36.48 8.81 1.69 12.8 3.49 4.75 2.14 4.65 5.47-.46 7.51-7.2 2.88-14.66 5.51-22.25 6.92-8.61 1.6-17.48 2.25-26.25 2.37-8.59.12-17.19-.94-26.38-1.52-1.61 5.84-3.24 12.22-5.14 18.53-7.56 25.09-16.79 49.45-33.33 70.23-14.96 18.79-31.84 35.4-54.39 45.09-2.99 1.29-6.06 2.42-9.83 2.67 1.12-1.25 2.22-2.52 3.37-3.74 12.39-13.25 25.78-25.71 36.99-39.89 22.11-28 34.82-60.69 42.94-95.15 7.38-31.33 11.15-63.13 10.17-95.39-.54-17.89-2.12-35.53-11.94-51.28-.69-1.11-1.04-2.45-1.51-3.69-1.18-3.14.2-4.44 3.26-4.27 1.63.09 3.28.37 4.86.77 2.58.65 5.22 1.2 7.65 2.24 19.92 8.56 39.51 3.08 59.06-1.43 9.02-2.08 17.91-4.83 26.75-7.61 3.44-1.08 6.47-3.44 9.9-4.55 3.5-1.13 7.76-2.88 10.81-1.82 9.97 3.46 19.89 7.42 29.15 12.43 8.02 4.34 10.29 10.88 2.95 19.17-6.52 7.37-7.62 17.22-8.68 26.61-3.52 31.2-2.28 62.49-1.24 93.76.6 17.96 1.04 35.94 1.42 53.91.32 15.3 1.28 30.65.41 45.88-.67 11.83-3.26 23.63-5.89 35.25-1.99 8.81-7.64 15.82-14.46 21.69-5.21 4.48-9.49 3.93-12-1.92-5.75-13.43-15.74-23.32-26.33-32.81-3.34-3-6.62-6.08-9.75-9.3-1.17-1.2-1.85-2.89-2.75-4.36.22-.34.45-.71.68-1.09z" fill="currentColor"/>
</svg>