<svg enable-background="new 0 0 400 400" viewBox="0 0 400 400" xmlns="http://www.w3.org/2000/svg">
<path d="m126.9 199.13c-17.3 39.15-41.74 72.47-78.2 96.7 13.71-20.73 27.55-40.68 40.35-61.27 12.82-20.63 23.28-42.45 28.54-67.05-9.75 2.46-18.86 4.75-27.98 7.04-11.11 2.79-22.08 2.07-32.87-1.58-1.89-.64-3.56-1.91-5.33-2.9-.01-.54-.01-1.08-.02-1.62 2.98-1.11 5.91-2.37 8.95-3.31 21.38-6.61 42.79-13.1 64.13-19.82 1.42-.45 3.33-2.49 3.33-3.78-.14-22.28.35-44.64-3.95-66.64-1.16-5.95-3.81-11.62-5.81-17.4-.6-1.72-1.52-3.35-1.94-5.1-1.04-4.33.69-6.2 4.99-4.8 8.19 2.66 16.41 5.38 24.27 8.85 6.99 3.09 9.43 8.75 6.56 15.58-8.89 21.23-6.28 43.48-6.93 66.32 7.36-1.73 14.25-3.14 21.01-5 7.2-1.99 13.81-.56 20.15 2.78 5.2 2.73 5.48 6.15.15 8.43-9.27 3.97-18.89 7.14-28.43 10.45-4.04 1.41-8.26 2.33-12.55 3.52v44.67c8.26 1.66 16.28 2.94 24.13 4.93 11.83 3 17.75 10.91 17.71 22.72-.02 7.56-3.37 9.99-10.54 7.16-10.26-4.05-18.76-10.65-26-18.93-1.52-1.74-3.01-3.52-5.19-6.08-.17 2.23-.36 3.56-.36 4.9-.04 16.5.06 33-.11 49.49-.18 17.81.13 35.68-1.21 53.41-.84 11.12-4.18 22.07-6.81 33-.49 2.02-2.98 3.55-4.54 5.3-1.59-1.56-3.86-2.83-4.67-4.72-5.7-13.24-9.49-26.48-6.08-41.47 2.92-12.87 4.15-26.26 4.77-39.49 1.15-24.6 1.31-49.25 1.88-73.88-.47-.13-.94-.27-1.4-.41z" fill="currentColor"/>
</svg>