<svg enable-background="new 0 0 400 400" viewBox="0 0 400 400" xmlns="http://www.w3.org/2000/svg">
<path d="m148.47 171.88c2.8 0 4.93-.59 6.5.1 8.31 3.64 16.62 7.33 24.64 11.56 3.48 1.84 3.91 4.69 1.16 8.6-5.84 8.28-6.34 18.35-7.57 28.05-.14 1.07.8 2.5 1.62 3.43 21.47 24.35 42.68 48.96 67.59 69.99 29 24.48 62.45 39.35 99.58 46.35 5.05.95 10.06 2.11 15.06 3.26.71.16 1.3.84 2.14 2.75-5.01 1.18-9.96 2.83-15.03 3.47-18.77 2.37-37.54 4.81-56.37 6.45-18.23 1.6-31.51-7.71-41.92-21.59-24.67-32.87-49.13-65.9-73.69-98.86-.49-.65-1.03-1.26-2.48-3.02-17.72 66.32-60.52 102.43-127.26 110.02-.41-.61-.83-1.22-1.24-1.83 3.21-1.57 6.41-3.18 9.65-4.71 11.69-5.55 23.79-10.38 35.01-16.76 21.27-12.11 40.47-27.07 50.19-50.38 6.23-14.93 10.86-30.68 14.62-46.44 2.54-10.66 2.66-21.96 3.14-33.01.17-3.77-1.79-7.66-2.91-11.46-.51-1.69-1.33-3.27-2.43-5.97z" fill="currentColor"/>
<path d="m74.82 205.15c5.27-6.18 10.61-12.29 15.78-18.54 27.31-33.01 44.15-70.88 51.96-112.84 1.49-8 2.18-16.17-.49-24.2-1.25-3.75.33-5.51 4.2-4.77 10.94 2.09 21 6.32 29.51 13.58 3.03 2.59 4.23 5.9 1.89 10.23-7.98 14.72-15.64 29.63-23.33 44.51-4.58 8.87-8.99 17.84-13.47 26.77-.86 1.72-1.68 3.45-2.97 6.1 13.43-2.14 25.87-4 38.26-6.13 20.48-3.52 40.68-8.16 59.98-16.09 3.83-1.57 7.54-3.51 11.09-5.63 5.83-3.47 12.04-4.66 18.05-1.56 8.52 4.39 16.87 9.22 24.83 14.56 5.03 3.37 4.66 8.26-.85 10.4-19.3 7.51-33.15 21.87-47.27 36.04-2.32 2.32-5.25 4.03-7.89 6.02-.42-.37-.85-.74-1.27-1.11 1.91-5.04 3.94-10.04 5.72-15.13 2.46-7.04 5-14.07 7-21.25 2.01-7.21-.91-10.28-8.27-8.55-21.31 5.03-42.73 9.73-63.74 15.81-12.32 3.57-23.89 3.22-35.59-.96-3.28-1.17-4.86-.54-6.82 2.31-11.83 17.23-24.83 33.43-42.79 44.82-4 2.53-8.27 4.63-12.42 6.93-.38-.44-.74-.88-1.1-1.32z" fill="currentColor"/></svg>