<svg enable-background="new 0 0 400 400" viewBox="0 0 400 400" xmlns="http://www.w3.org/2000/svg">
<path d="m126.38 302.67c-.7-19.54-1.08-37.5-2.07-55.43-.67-12.09-1.9-24.18-3.42-36.2-1.31-10.33-4.73-20.04-11.04-28.54-.69-.93-1.3-1.95-1.78-3-1.6-3.46-.32-5.83 3.38-5.41 10.13 1.14 19.99 3.54 28.82 8.87 3.89 2.34 5.34 6.14 4.81 10.75-4.07 35.04-1.46 70.19-1.73 105.3 0 .13.19.26.92 1.21 17.68-1.84 35.91-3.73 54.67-5.68 0-2.19 0-3.97 0-5.75-.04-46.67.2-93.33-.24-140-.18-19.27-1.56-38.54-2.86-57.78-.57-8.48-2.91-16.63-7.71-23.94-1.11-1.69-1.95-4.92-1.08-6.17.97-1.39 4.22-2.18 6.14-1.76 8.72 1.94 17.51 3.86 25.9 6.83 7.35 2.6 8.13 7.35 6.26 14.9-2.41 9.77-4.38 19.81-4.99 29.83-1.31 21.59-1.63 43.23-2.37 64.85-.08 2.45-.29 4.89-.5 8.33 11.16-2.22 21.81-4.28 32.44-6.47 9.42-1.94 18.75-4.39 28.23-5.93 8.15-1.33 15.86.83 22.62 5.66 4.8 3.43 4.69 7.2-.95 9.07-8.76 2.9-17.82 5.57-26.94 6.57-14.02 1.54-28.2 1.71-42.31 2.16-4.1.13-8.22-.77-13.21-1.29-.51 33.13-1.01 65.96-1.53 99.29 11.07-.85 21.31-1.56 31.53-2.44 13.08-1.12 26.14-2.41 39.21-3.58 9.77-.87 19.56-1.58 29.33-2.5 9.58-.91 18.88.2 27.94 3.36 7.67 2.68 12.87 8.1 16.33 15.27 2.38 4.93.68 8.02-4.77 7.83-13.46-.48-26.89-1.71-40.35-2.04-16.46-.4-32.94-.35-49.41-.17-8.8.1-17.61.73-26.39 1.39-24.86 1.86-49.74 3.55-74.55 5.89-20.33 1.92-40.59 4.66-60.88 7.11-10.52 1.27-21 3.37-31.55 3.89-10.57.51-19.68-4.21-27.38-11.38-1.21-1.13-1.82-2.91-2.7-4.39 1.67-.46 3.32-1.18 5.02-1.34 26.09-2.39 52.2-4.73 79.16-7.17z" fill="currentColor"/></svg>