<svg enable-background="new 0 0 400 400" viewBox="0 0 400 400" xmlns="http://www.w3.org/2000/svg">
<path d="m194.72 265.01c-14.85-7.3-28.4-15.35-39.96-26.34-2.4-2.28-4.69-4.78-6.5-7.52-2.69-4.09-1.41-6.99 3.45-7.1 27.98-.64 40.75 4.06 50.24 27.94.3.76.71 1.47 1.49 3.06 3.08-4.26 5.88-8.01 8.55-11.85 13.04-18.73 25.27-37.93 33.39-59.42 1.16-3.08 2.04-6.31 2.68-9.55 1.1-5.57-.99-8.47-6.85-8.08-8.92.6-17.88 1.58-26.63 3.33-17.74 3.55-21.73 4.55-38.97-1.85-25.4 29.13-49.95 59.42-89.57 70.01-.48-.53-.96-1.06-1.44-1.59 2.57-2.65 4.87-5.64 7.75-7.9 35.92-28.14 62.06-64.22 84.08-103.58 3.11-5.56 4.69-11.98 6.86-18.04.29-.82-.12-1.89-.24-3.33-7.43.76-14.65 1.32-21.81 2.26-16.13 2.11-32.22 4.48-48.35 6.62-12.49 1.66-22.75-3.32-31.83-11.3-1.12-.98-2.35-2.94-2.07-4.09.25-1.05 2.41-2.06 3.86-2.31 2.6-.45 5.3-.45 7.95-.39 28.19.61 56.2-1.94 84.03-5.94 39.43-5.66 78.75-12.1 118.15-17.99 14.02-2.1 26.99.12 36.75 11.72 1.11 1.32 2.74 3.76 2.27 4.51-.87 1.39-3.06 2.54-4.8 2.69-13.41 1.17-26.85 1.89-40.26 3.1-18.2 1.64-36.39 3.52-54.57 5.45-11.19 1.19-22.35 2.65-34.51 4.1 3.88 2.71 7.21 4.7 10.12 7.16 5.46 4.62 5.27 7.38.98 13.03-9.31 12.26-18.3 24.76-27.42 37.16.29.41.58.82.87 1.23 6.53-.77 13.09-1.32 19.57-2.37 10.81-1.74 21.6-3.63 32.32-5.83 3.85-.79 7.6-2.39 11.17-4.1 6.88-3.31 13.88-4.29 20.53-.3 6.94 4.17 13.73 8.74 19.93 13.93 4.85 4.06 4.04 6.42-1.32 9.89-9.01 5.85-13.73 15.21-19.05 24.01-17.31 28.63-34.43 57.42-55.96 83.18-31.92 38.18-69.65 68.09-118.54 81.72-2.12.59-4.36.75-6.55 1.11-.23-.46-.46-.92-.69-1.38 3.09-2.32 6.15-4.7 9.29-6.96 18.35-13.24 37.57-25.44 54.81-39.99 15.57-13.13 29-28.81 43.32-43.41 1.25-1.26 2.14-2.87 3.48-4.7z" fill="currentColor"/></svg>