<svg enable-background="new 0 0 400 400" viewBox="0 0 400 400" xmlns="http://www.w3.org/2000/svg">
<path d="m87.5 362.86c52.52-22.13 99.38-52.18 135.76-95.49-10.82-7.04-21.82-13.58-32.09-21.12-5.54-4.07-10-9.69-14.58-14.94-1.31-1.5-2.38-4.68-1.64-6.08.75-1.42 3.88-2.25 5.95-2.2 20.64.47 36.54 9.73 48.21 26.58 1.13 1.64 2.21 3.31 3.88 5.8 6.56-8.39 13.59-16 19.02-24.61 8.85-14.03 17.23-28.43 24.74-43.22 6.32-12.46 2.89-15.35-10.59-15.95-8.22-.37-16.56 1.06-24.8 2.08-15.81 1.96-31.55 4.87-47.41 6.01-7.3.53-14.83-2.18-23.37-3.6-17.2 27.53-37.88 53.79-71.95 66.07 1.08-1.67 1.97-3.5 3.27-4.97 9.77-11.11 20.35-21.58 29.27-33.32 16.11-21.21 25.72-45.61 31.27-71.55.8-3.75.27-7.94-.4-11.8-1.06-6.08.66-8.52 6.39-6.36 7.69 2.89 15.2 6.56 22.23 10.82 4.76 2.89 3.93 5.35.97 9.89-6.3 9.67-11.96 19.76-17.88 29.68.44.56.88 1.12 1.31 1.69 18.67-1.71 37.34-3.42 56.01-5.13-.01-.18-.03-.36-.04-.54-3.85.24-7.7.47-12.14.74-.11-2.2-.27-3.96-.27-5.72-.02-17.33.14-34.66-.07-51.98-.12-9.13-.1-18.38-1.58-27.34-1.36-8.24-4.76-16.13-7.03-24.24-.9-3.23-1.16-6.63-1.71-9.96 3.32-.04 6.92-.94 9.91.03 7.39 2.41 14.69 5.29 21.68 8.71 7.02 3.43 7.23 5.87 4.88 13.05-4.02 12.26-4.39 25.03-4.66 38.24 17.43-3.16 34.39-5.5 50.15-12.68 10.38-4.73 20.07-3.31 29.1 3.35 4.36 3.22 4.26 6.58-.49 9.31-10.25 5.9-21.6 8.66-33.18 9.89-15.51 1.65-31.11 2.48-47.64 3.73v44.64c13.85-2.19 28.56-2.07 42.21-8.16 5.81-2.59 12.1-3.21 17.82-.03 7.37 4.1 14.66 8.48 21.42 13.49 4.65 3.44 3.55 5.91-.63 9.93-5.58 5.37-11.01 11.13-15.32 17.53-11.7 17.37-21.8 35.88-34.3 52.62-23.5 31.46-49.91 60.32-83.5 81.55-27.44 17.34-56.48 30.99-88.87 36.31-2.9.48-5.86.62-8.79.92-.19-.57-.36-1.12-.52-1.67z" fill="currentColor"/></svg>