<svg enable-background="new 0 0 400 400" viewBox="0 0 400 400" xmlns="http://www.w3.org/2000/svg">
<path d="m355.31 351.97c-3.68 1.17-7.28 2.75-11.05 3.45-16.14 3-32.26 6.31-48.52 8.42-16.77 2.18-32.08-2.95-46.52-11.54-25.46-15.15-47.87-34.23-70.19-53.47-1.76-1.52-3.5-3.05-5.76-5.01-26.32 29.19-60.05 43.9-97.93 50.1-7.55 1.24-15.36.88-23.05 1.25-.16-.76-.31-1.52-.47-2.28 2.28-1.05 4.48-2.36 6.86-3.1 20-6.28 39.46-13.82 57.93-23.83 16.54-8.96 31.27-20.13 43.92-34.85-15.22-14.69-29.37-30.24-48.95-39.13-2.12-.96-4.36-1.8-6.19-3.17-1.45-1.08-2.37-2.88-3.53-4.35 1.51-.87 2.92-2.11 4.55-2.55 9.57-2.55 17.99-.29 25.48 6.18 11.34 9.8 22.8 19.44 34.23 29.14.85.73 1.79 1.35 2.98 2.24 6.22-8.12 10.52-16.95 12.95-26.43 2.58-10.06 4.68-20.35 5.77-30.66.89-8.45-3.84-11.83-12.28-9.88-16.49 3.81-32.93 7.9-49.4 11.82-10.29 2.45-20.11 1.06-29.44-3.87-1.02-.54-1.96-1.25-2.88-1.96-.37-.29-.56-.8-1.57-2.3 3.67-.81 6.83-1.85 10.05-2.17 23.02-2.34 45.71-6.45 67.83-13.28 4.53-1.4 8.87-3.77 12.92-6.3 4.44-2.79 9.41-3.96 13.83-2.24 8.27 3.23 16.33 7.23 23.95 11.79 4.62 2.76 3.96 4.99.99 9.43-3.4 5.07-6.71 10.37-8.96 16.01-8.16 20.47-15.86 41.12-24.01 62.44 23.93 17.25 49.47 33.54 77.96 45.48 28.47 11.93 58.6 16.34 88.48 22.22-.01.8 0 1.6.02 2.4z" fill="currentColor"/>
<path d="m74.24 191.77c2.26-2.04 3.98-3.5 5.58-5.07 7.36-7.23 15.11-14.11 21.95-21.81 12.15-13.68 14.78-30.84 16.02-48.28.25-3.48.11-6.99.14-10.49.08-10.28-1.22-20.11-7.19-29.02-3.36-5.02-1.82-7.22 4.27-7.12 2.47.04 5.07.11 7.38.87 13.08 4.33 25.6.9 38.11-2.54 11.85-3.26 23.49-6.87 33.89-13.94 3-2.04 7.61-2.6 11.4-2.38 10.57.62 20.37 3.75 28.5 11.2-3.58 4.05-7.42 7.24-9.8 11.29-11.16 18.93-15.35 39.4-12.51 61.27.68 5.22 3.62 8.17 8.68 8.8 17.49 2.18 34.79 2.51 51.39-5 8.7-3.94 19.45-.52 24.64 7.46 2.3 3.53 1.58 6.81-3.06 8.74-5.32 2.22-10.95 4.07-16.63 4.96-19.46 3.06-39.04 4.03-58.64 1.38-15.73-2.12-23.25-10.46-23.41-26.41-.14-14.8.54-29.62.54-44.42 0-4.42-.7-8.93-1.71-13.25-.93-3.99-3.85-5.57-8.04-4.49-14.61 3.77-29.2 7.61-43.86 11.14-3.2.77-3.76 2.26-3.77 5.14-.08 18.16-1.73 36.12-6.98 53.64-7.81 26.1-30.86 46.09-56.89 48.33z" fill="currentColor"/></svg>