<svg enable-background="new 0 0 400 400" viewBox="0 0 400 400" xmlns="http://www.w3.org/2000/svg">
<path d="m325.45 228.68c1.8 7.69 3.64 15.37 5.38 23.08 2.9 12.83 6.31 25.44 13.42 36.77 3.07 4.89 2.4 10.26-3.08 14.61-6.42 5.09-13.47 10.03-21.05 12.91-31.27 11.89-63.26 12.62-95.4 3.63-20.16-5.64-30.34-20.56-33.52-40.03-2.32-14.19-3.16-28.76-3.21-43.16-.12-40.63.67-81.26.74-121.9.02-12.28-.74-24.59-1.92-36.82-.48-4.97-3.02-9.75-4.62-14.62-.59-1.81-1.17-3.62-2-6.2 3.45 0 6.29-.7 8.58.12 9.17 3.29 18.38 6.6 27.15 10.8 6 2.87 7.54 8.2 4.14 12.76-5.59 7.49-6.94 16.22-7.76 24.9-1.82 19.18-2.91 38.44-4.3 57.67-.33 4.59-.63 9.19-1.06 15.46 9.4-5.19 18.11-9.01 25.68-14.43 11.18-8 21.79-16.85 32.16-25.9 5.72-4.99 7.95-12.22 8.14-19.77.11-4.45 2.26-5.9 6.01-4.63 12.26 4.13 23.59 10.06 32.52 19.63 4.13 4.43 2.6 8.54-3.84 11.53-14.47 6.71-28.99 13.3-43.47 19.99-18.25 8.43-36.52 16.83-54.67 25.46-1.73.82-3.79 3.12-3.9 4.85-1.62 23.86-3.39 47.75.53 71.58 3.44 20.92 17.19 32.69 38.47 33.02 14.18.22 28.26-.39 42.1-3.82 21.72-5.39 30.52-15.24 33.22-37.37 1.11-9.07 2.05-18.16 3.12-27.23.11-.93.58-1.82.88-2.73.51-.03 1.04-.09 1.56-.16z" fill="currentColor"/>
<path d="m155.22 250.72c-1.3 1.59-2.39 3.42-3.92 4.73-15.72 13.36-31.78 26.32-47.18 40.04-10.52 9.37-20.4 19.49-30.05 29.76-6.94 7.39-11.12 7.56-16.85-.77-7.17-10.43-7.75-21.77.38-31.12 9.85-11.33 11.52-24.76 12.22-38.54 1.07-20.76 1.67-41.55 2.13-62.34.42-18.75.81-37.58-3.15-56.04-1.33-6.18-4.27-12.09-7.04-17.85-3.31-6.89-2.2-9.01 5.5-9 9.91.02 18.48 3.9 26.31 9.5 4.74 3.39 5.75 8.06 4.5 13.14-2.13 8.65-4.46 17.33-5.57 26.13-1.26 10.02-1.27 20.19-1.9 31.67 9.12-3.17 17.23-5.85 25.24-8.81 8.39-3.11 16.5-7.18 25.09-9.49 4.21-1.13 9.68-.22 13.79 1.56 5.33 2.31 5.83 7.23 1.09 10.61-6.14 4.38-12.89 8.21-19.88 11.04-14.3 5.8-29.17 9.11-45.2 5.89-.46 6.02-1.01 11.59-1.28 17.17-.87 18.61-1.74 37.21-2.38 55.83-.22 6.29 1.39 7.4 7.07 4.62 15.21-7.43 30.21-15.29 45.38-22.81 4.8-2.38 9.87-4.2 14.81-6.28.3.45.6.9.89 1.36z" fill="currentColor"/>
</svg>