<svg enable-background="new 0 0 400 400" viewBox="0 0 400 400" xmlns="http://www.w3.org/2000/svg">
<path d="m329.43 292.17c.52 5.32 1.39 10.64 1.5 15.97.3 14.78 2.13 29.06 9.96 42.13 3.44 5.75 1.55 10.12-5.14 10.76-8.85.84-17.92.86-26.76-.09-18.44-1.97-36.3-6.39-52.4-16.17-33.42-20.3-52.04-49.62-51.76-89.11.15-21.39 2.67-42.77 4.33-64.14.41-5.33-1.07-7.56-6.48-6.7-6.7 1.07-13.27 2.92-19.94 4.25-27 5.39-54.02 10.73-81.04 16.04-5.67 1.11-11.4 2.95-17.07 2.84-9.43-.19-16.72-5.29-23.31-13.25 2.32-.4 3.71-.9 5.09-.84 34.03 1.59 66.65-6.75 99.32-14.38 15.32-3.58 30.47-7.85 44.68-15.1 3.91-1.99 9.57-2.37 13.9-1.31 7.15 1.74 13.89 5.16 20.75 8.02 2.85 1.19 2.84 3.46.54 4.96-16.19 10.51-20.29 27.23-22.8 44.58-2.49 17.22-2.61 34.52 1.66 51.52 7.02 27.97 25.62 45.97 51.13 57.48 7.22 3.26 14.9 5.66 22.58 7.68 10.07 2.65 13.9.71 17.43-8.88 3.49-9.49 6.19-19.27 9.28-28.9.79-2.48 1.74-4.91 2.62-7.36z" fill="currentColor"/>
<path d="m69.93 128.84c5.38-3.73 10.83-7.37 16.14-11.2 21.15-15.27 36.39-35.34 47.25-58.85 1.37-2.96 2.12-6.33 2.48-9.59.49-4.43 3.17-6.46 6.72-4.98 6.97 2.91 13.67 6.56 20.21 10.38 3.23 1.89 2.18 3.75-.47 6.46-6.75 6.91-12.72 14.59-18.99 21.96.39.53.79 1.07 1.18 1.6 8.01-.76 16.01-1.58 24.02-2.27 19.31-1.66 37.68-7.35 56.15-12.76 8.81-2.58 17.81-2.74 25.85 2.78 1.89 1.29 4.31 3.81 4.14 5.53-.18 1.76-3 4.1-5.09 4.67-13.4 3.7-26.78 7.67-40.42 10.22-17.34 3.24-34.97 4.55-52.65 3.27-4.95-.36-9.97-.98-14.74-2.26-3.08-.83-4.92-.02-7.07 1.83-13.99 12.12-28.3 23.82-46.21 29.86-5.82 1.96-11.78 3.51-17.67 5.24-.27-.62-.55-1.26-.83-1.89z" fill="currentColor"/>
<path d="m129 136.75c6.48-1.35 11.92-2.51 17.38-3.61 20.83-4.2 41.67-8.35 62.5-12.6 6.55-1.34 11.69 1.16 16.17 5.55 2.31 2.27 2.01 4.72-.83 6.1-2.95 1.43-6.15 2.62-9.37 3.19-23.05 4.03-46.01 9.1-69.66 7.76-6.82-.39-11.41-2.08-16.19-6.39z" fill="currentColor"/></svg>