<svg enable-background="new 0 0 400 400" viewBox="0 0 400 400" xmlns="http://www.w3.org/2000/svg">
<path d="m212.77 177.85c8.33 8.01 15.71 15.92 23.91 22.84 23.36 19.72 48.29 37.18 76.84 48.64 11.52 4.63 23.64 7.76 35.42 11.78 3.95 1.35 7.69 3.31 11.53 5-.03.55-.07 1.1-.1 1.65-1.49.75-2.91 1.87-4.49 2.21-17.37 3.74-34.72 7.24-52.67 7.39-11.39.1-20.52-3.83-27.95-11.88-16.03-17.37-31.87-34.91-47.67-52.49-10.68-11.89-21.15-23.96-31.73-35.94-.52-.58-1.18-1.04-2.67-2.33 0 6.85-.16 12.75.03 18.63.58 18.29 1.15 36.58 1.98 54.86.76 16.76 2.59 33.51 2.59 50.27.01 17.52-2.57 34.82-11.81 50.35-.93 1.56-1.99 3.1-3.26 4.39-2.97 3-5.74 2.93-7.71-.74-7.97-14.79-20.64-25.03-33.31-35.36-4.02-3.28-7.59-7.11-11.37-10.69.29-.46.58-.92.86-1.38 5.93 1.03 11.86 2.07 17.8 3.08 1.96.33 3.94.59 5.91.89 9.75 1.5 13.93-.71 16.59-10.25 1.76-6.35 3.1-13.04 3.19-19.59.6-45.13 1.17-90.26 1.01-135.39-.07-21.1-1.26-42.23-2.99-63.26-.78-9.44-4.24-18.64-6.24-28-.62-2.91-.43-5.99-.62-9 3.04.03 6.56-.92 9.04.28 7.12 3.45 14.22 7.23 20.56 11.92 5.55 4.1 5.05 7.43 3.11 14.12-2.39 8.24-4.66 16.77-5.12 25.28-1.07 19.77-1.07 39.6-1.37 59.41-.02 1.47.62 3.31 1.6 4.38 4.04 4.42 8.33 8.61 13.02 13.38 6.27-6.88 12.55-13.27 18.25-20.14 9.35-11.26 18.51-22.68 27.39-34.31 6.7-8.78 9.43-18.95 8.66-30.02-.1-1.46-.01-2.94-.01-5.06 2.11.35 4.08.17 5.46 1 9.67 5.77 19.71 11.08 28.64 17.86 7.56 5.74 5.9 9.62-2.14 14.35-10.98 6.47-21.69 13.61-31.7 21.49-16.19 12.74-31.71 26.34-48.46 40.38z" fill="currentColor"/>
<path d="m43.82 297.66c6.69-5.67 13.44-11.27 20.05-17.02 32.86-28.57 55.79-63.58 68.21-105.38.19-.64.47-1.26.6-1.9 2.02-9.9-1.11-13.43-10.98-11.19-8.38 1.9-16.47 5.08-24.78 7.32-5.73 1.54-11.59 2.95-17.47 3.47-8.55.76-14.88-3.85-20.01-10.23-.74-.93-1.51-2.63-1.13-3.44.37-.8 2.16-1.14 3.38-1.31 16.41-2.4 32.93-4.18 49.18-7.36 6.39-1.25 12.05-5.89 18.27-8.46 3.21-1.33 7.34-2.88 10.27-1.92 7.64 2.5 15.17 5.78 22.13 9.81 6.06 3.5 5.47 6.86 2.11 12.91-6.26 11.29-12.04 22.89-17.36 34.65-16.5 36.47-38.29 68.57-73.6 89.4-7.94 4.69-16.83 7.79-25.3 11.56-.85.38-1.88.32-2.83.47-.25-.48-.5-.93-.74-1.38z" fill="currentColor"/></svg>