<svg enable-background="new 0 0 400 400" viewBox="0 0 400 400" xmlns="http://www.w3.org/2000/svg">
<path d="m246.86 212.87c-1.87 4.7-3.49 9.52-5.64 14.09-10.65 22.55-21.81 44.86-32.04 67.59-6.6 14.67-11.89 29.93-17.82 44.9-1.4 3.54-2.7 7.21-4.69 10.41-2.45 3.94-5.54 4.02-8.35.27-2.17-2.9-4-6.18-5.29-9.56-2.77-7.27-5.2-14.69-7.58-22.1-1.48-4.61-.67-8.01 3.88-11.33 12.65-9.24 21.76-21.9 30.79-34.49 12.22-17.03 24.13-34.27 36.34-51.3 2.47-3.44 5.7-6.34 8.58-9.49.6.33 1.21.67 1.82 1.01z" fill="currentColor"/>
<path d="m206.28 67.83c8.68.74 18.53 2.05 27.45 7.11 9.71 5.51 14.78 17.05 12.18 27.75-1.11 4.57-3.84 6.5-8.45 5.32-2.68-.69-5.58-1.73-7.62-3.49-10.43-8.98-20.73-18.12-30.77-27.53-1.77-1.66-2.08-4.86-3.07-7.36 2.49-.6 4.98-1.21 7.48-1.78.48-.12 1-.02 2.8-.02z" fill="currentColor"/>
<path d="m202.13 191.59c-.15 1.1-.27 2.59-.55 4.05-1.85 9.69-6.64 11.65-14.36 5.26-11.59-9.6-21.2-21.06-29.36-33.69-.99-1.54-2.06-4.55-1.37-5.31 1.19-1.3 3.82-2.06 5.7-1.83 9.73 1.22 19.29 3.2 27.82 8.48 8.42 5.21 11.86 13.06 12.12 23.04z" fill="currentColor"/></svg>