<svg enable-background="new 0 0 400 400" viewBox="0 0 400 400" xmlns="http://www.w3.org/2000/svg">
<g fill="currentColor"><path d="m40.58 344.32c3.43-1.82 6.78-3.8 10.29-5.44 21.01-9.82 39.6-23.17 56.38-39.02 25.46-24.05 39.08-54.43 44.38-88.39 3.35-21.45 5-43.23 6.16-64.93.98-18.4.48-36.9.02-55.34-.26-10.16-2.4-20.13-7.62-29.14-.42-.72-.96-1.46-1.08-2.24-.25-1.68-.97-4.14-.17-4.92.98-.95 3.51-1.09 5.04-.59 9.44 3.14 18.92 6.23 28.13 9.98 7.38 3.01 7.61 6.05 5.56 13.81-2.53 9.59-4.62 19.46-5.42 29.33-2.17 26.67-3.27 53.42-5.48 80.08-.49 5.97 1.34 10.12 4.48 14.56 24.16 34.17 51.17 65.69 85.2 90.52 23.37 17.05 49.7 28.01 77.23 36.37 4.81 1.46 9.41 3.59 14.78 5.66-3.89 5.27-8.79 5.02-12.84 5.25-18.43 1.03-36.88 1.72-55.33 2.09-11.23.22-21.13-4.35-28.39-12.54-11.23-12.66-22.03-25.8-32.01-39.46-18.25-24.98-35.77-50.49-53.6-75.78-.56-.79-1.2-1.53-2.24-2.83-2.74 9.73-5.31 18.91-7.92 28.07-13.44 47.22-44.14 79.26-88.38 98.6-10.14 4.43-21.78 5.44-32.74 7.93-1.21.27-2.56-.08-3.84-.15-.21-.5-.4-.99-.59-1.48z"/><path d="m209.26 187.84c4.8-4.67 9.65-9.28 14.38-14.02 10.24-10.25 20.63-20.35 30.52-30.92 5.97-6.37 10.36-13.77 10.67-23.05.16-4.69 2.69-6 7.14-4.34 1.23.46 2.55.98 3.51 1.82 7.73 6.8 15.58 13.47 22.96 20.63 3.55 3.44 2.6 6.84-1.78 7.88-14.04 3.33-25.74 11.34-38.03 18.26-13.76 7.75-27.7 15.17-41.62 22.62-2.09 1.12-4.49 1.67-6.75 2.48-.34-.45-.67-.91-1-1.36z"/><path d="m132.94 187.21c-.96 4-1.64 8.09-2.93 11.98-1.72 5.16-4.51 6.13-9.14 3.11-2.88-1.88-5.85-4.08-7.83-6.83-7.56-10.46-14.83-21.15-22-31.89-1.63-2.44-2.72-5.34-3.52-8.18-.48-1.71-.46-4.09.43-5.44.5-.76 3.48-.59 4.93.07 12.56 5.77 24.58 12.44 34.33 22.48 3.85 3.98 5.68 8.92 5.73 14.7z"/>
</g>
</svg>