<svg enable-background="new 0 0 400 400" viewBox="0 0 400 400" xmlns="http://www.w3.org/2000/svg">
<g fill="currentColor"><path d="m276.97 242.87c2.64.7 4.46.91 6.04 1.64 17.99 8.35 35.59 17.41 49.73 31.69 12.99 13.11 17.65 29.21 15.38 47.4-.2 1.63-.63 3.26-1.21 4.79-2.52 6.63-6.85 7.8-12.17 2.94-3.41-3.12-6.68-6.58-9.29-10.38-14.12-20.52-28.07-41.15-41.92-61.84-2.29-3.42-3.92-7.31-5.63-11.08-.61-1.32-.56-2.95-.93-5.16z"/><path d="m69.83 241.93c5.81 8.04 8.97 16.26 11.01 24.72 5.92 24.49-1.04 46.68-13.65 67.44-4.4 7.25-10.23 6.63-14.71-.72-3.64-5.97-3.42-12.63-2.07-18.91 2.36-11 5.76-21.79 8.57-32.7 3.14-12.19 6.11-24.43 9.19-36.64.19-.77.73-1.44 1.66-3.19z"/><path d="m241.98 298.87c-.83 2.29-1.85 6.9-4.09 10.81-2.59 4.54-6 4.72-9.88 1.16-2.18-2-4.44-4.25-5.72-6.84-7.65-15.42-15.08-30.96-22.4-46.54-.73-1.56-.23-3.7-.31-5.58 1.89.04 4.08-.52 5.62.23 7.45 3.63 15.17 6.96 21.95 11.64 11.29 7.78 13.95 20.06 14.83 35.12z"/><path d="m163.84 291.5c-1.09 4.81-1.84 9.73-3.35 14.4-2.33 7.19-6.41 8.05-11.43 2.3-3.25-3.72-6.31-7.83-8.43-12.26-5.56-11.63-10.75-23.46-15.67-35.37-2.04-4.94-.36-6.41 4.83-5.01 10.87 2.94 20.09 8.49 27.12 17.43 4.68 5.95 6.29 10.68 6.93 18.51z"/>
</g>
</svg>