<svg enable-background="new 0 0 400 400" viewBox="0 0 400 400" xmlns="http://www.w3.org/2000/svg">
<path d="m164.62 106.34c-10.5 3.6-20.58 6.95-30.55 10.62-1.33.49-2.9 2.6-2.94 4-.52 15.47-.58 30.95-1.1 46.42-1.05 30.94-2.55 62.01-13.07 91.4-13.51 37.75-38.21 66.18-75.11 83.18-1.71.79-3.61 1.15-5.42 1.72-.48-.61-.96-1.22-1.44-1.83 3.83-3.33 7.54-6.81 11.51-9.97 33.02-26.33 49.94-61.81 58.45-102.18 5.56-26.4 6.98-53.1 5.75-79.92-.59-12.73-1.65-25.64-10.15-36.39-1.17-1.48-1.98-4.46-1.25-5.86.63-1.21 3.68-1.61 5.66-1.59 3.98.04 8.06.14 11.9 1.07 11.92 2.88 22.32-1.14 32.4-6.64 19.75-10.78 39.03-22.38 54.88-38.6 3.5-3.58 5.59-8.91 7.27-13.79 1.15-3.34 2.76-4.62 5.66-3.76 13.27 3.91 25.11 10.55 35.25 19.95 3.64 3.38 2.39 5.9-2.67 7.8-24.4 9.14-48.75 18.4-73.12 27.63-.3.11-.54.38-1.32.95 2.76 2.14 5.46 4.12 8.03 6.26 3.86 3.2 6.36 6.83 5.91 12.41-.75 9.28-1.08 18.61-1.08 27.92.01 35.49.17 70.98.38 106.47.1 18.14.89 36.3.47 54.43-.31 13.6-1.67 27.29-7.96 39.75-1.39 2.74-4.15 4.79-6.28 7.16-1.86-2.63-4.21-5.03-5.49-7.92-6.62-14.91-7.05-29.94-3.77-46.15 3.5-17.3 4.76-35.24 5.19-52.94.74-30.31.59-60.66-.22-90.97-.42-15.72-3.03-31.37-4.7-47.05-.13-1.14-.66-2.23-1.07-3.58z" fill="currentColor"/>
<path d="m191.55 131.58c8.73-3.92 20.41-2.62 25.75 4 7.68 9.53 14.82 19.61 21.15 30.08 18.9 31.31 37.16 63 55.91 94.39 11.78 19.72 27.39 35.38 48.65 45.07 10.09 4.6 19.77 10.11 29.64 15.2-.03.56-.06 1.12-.09 1.69-3.7.62-7.38 1.69-11.09 1.8-20.13.59-40.23.38-60.05-3.93-10.6-2.3-18.08-8.85-22.05-18.51-5.73-13.95-10.73-28.22-15.54-42.52-12.58-37.35-28.23-73.17-52.19-104.79-4.99-6.58-11.16-12.26-16.76-18.38-1.07-1.18-2.02-2.48-3.33-4.1z" fill="currentColor"/>
</svg>