<svg enable-background="new 0 0 400 400" viewBox="0 0 400 400" xmlns="http://www.w3.org/2000/svg">
<g fill="currentColor"><path d="m87.38 122.98c8.05-3.44 16.38-6.33 24.08-10.41 25.7-13.6 51.36-27.29 76.63-41.65 9.57-5.44 17.82-12.87 20.21-24.82.34-1.71 3.39-3.66 5.45-4.04 2.81-.52 5.98-.01 8.83.73 12.36 3.19 23.74 8.57 33.88 16.33 1.78 1.36 3.5 4.02 3.48 6.06-.01 1.41-2.85 3.56-4.78 4.08-38.29 10.41-73.88 27.88-110.67 42.18-15.52 6.03-31.47 10.54-48.06 12.47-2.92.34-5.91.05-8.86.05-.05-.33-.12-.65-.19-.98z"/><path d="m233.28 165.93c4.65-5.97 9.25-11.97 13.94-17.9 12.85-16.24 22.43-34.09 27.04-54.42.15-.65.36-1.29.46-1.94 1.36-8.97 2.71-10.22 11.47-8.71 10.44 1.8 20.11 5.82 28.9 11.74 5.19 3.49 5.47 7.59.08 10.46-17.07 9.11-29.57 23.53-43.74 36.08-9.3 8.24-19.74 15.2-29.78 22.58-2.06 1.51-4.6 2.37-6.92 3.52-.49-.47-.97-.94-1.45-1.41z"/><path d="m123.14 172.47c-1.24 5.46-1.99 11.1-3.86 16.34-1.93 5.44-5.82 6.05-10.06 2.11-2.06-1.91-4.29-3.95-5.52-6.39-6.87-13.62-13.49-27.36-20.12-41.11-.63-1.3-.76-2.87-.94-4.34-.45-3.79 1.19-6.01 5.09-5.26 3.7.71 7.62 1.49 10.83 3.31 13.67 7.74 24.05 17.93 24.58 35.34z"/><path d="m198.11 155.5c-.47 2.22-.97 6.54-2.32 10.58-2.08 6.21-5.72 7.41-10.27 2.77-7.3-7.45-14.17-15.4-20.63-23.59-4.71-5.97-8.61-12.6-12.56-19.12-.89-1.46-1.34-4.48-.5-5.38 1.18-1.27 3.88-1.95 5.73-1.64 11.84 1.99 22.55 6.71 31.77 14.47 6.09 5.12 8.73 11.94 8.78 21.91z"/>
</g>
</svg>