<svg enable-background="new 0 0 400 400" viewBox="0 0 400 400" xmlns="http://www.w3.org/2000/svg">
<g fill="currentColor"><path d="m193.27 263.06c-34.74 45.14-79.3 67.38-135.31 64.85-.32-.74-.65-1.49-.97-2.23 2.61-.94 5.15-2.17 7.83-2.78 29.67-6.77 56.28-19.98 80.3-38.45 12.63-9.71 23.26-21.38 32.06-35.45-4.82-5.94-9.46-12.2-14.67-17.97-11.48-12.71-22.94-25.45-35.03-37.57-4.84-4.86-11.37-8.01-16.97-12.16-1.61-1.19-2.66-3.12-3.97-4.7 1.75-1.07 3.37-2.71 5.26-3.12 10.44-2.24 19.86-.28 27.34 7.86 11.37 12.38 22.64 24.85 33.98 37.26 3.46 3.79 7.02 7.5 11.62 12.41 3.75-11.08 7.58-21.06 10.48-31.3 4.72-16.69 7.61-33.7 5.67-51.16-.36-3.27-1.44-6.46-1.98-9.72-.65-3.92 1.13-6 5.05-4.9 10.48 2.94 19.65 8.22 26.21 17.05 1.41 1.89 1.82 5.56 1.05 7.87-7.52 22.51-15.39 44.91-23.18 67.33-1.8 5.17-3.87 10.26-5.38 15.52-.43 1.49.12 4.1 1.21 5.04 22.26 19.27 43.93 39.28 70.03 53.58 21.43 11.74 43.8 20.78 67.82 25.62 4.9.99 9.64 2.79 14.45 4.21 0 .75-.01 1.5-.01 2.25-4.3 1.19-8.54 3.03-12.91 3.46-17.68 1.75-35.38 3.37-53.12 4.44-11.14.67-20.85-3.59-28.92-11.32-21.04-20.16-42.05-40.34-63.06-60.53-1.53-1.51-2.9-3.2-4.88-5.39z"/><path d="m68.49 163.87c1.38-1.77 2.69-3.62 4.17-5.31 13.55-15.53 27.15-31.02 40.66-46.59 1.4-1.61 2.45-3.56 3.51-5.44 3.85-6.82 6.24-13.81 3.73-21.84-1.36-4.34 1.46-7.37 5.88-6.58 11.39 2.05 21.42 7.14 30.01 14.81 4.24 3.79 3.95 8.11-.18 11.49-16.34 13.37-32.6 26.84-49.09 40.03-10.02 8.02-20.55 15.32-32.8 19.66-1.63.58-3.39.78-5.09 1.15-.27-.46-.54-.92-.8-1.38z"/><path d="m223.58 67c10.9 1.89 21.8 3.72 32.68 5.67 11.74 2.11 21.94 7.51 30.95 15.15 8.18 6.94 11.98 15.8 10.17 26.56-.81 4.81-3.67 6.64-8.28 5.04-5.14-1.79-10.53-3.66-14.86-6.81-15.19-11.04-30.07-22.53-44.84-34.13-3.01-2.37-5.06-5.97-7.55-9 .58-.83 1.15-1.65 1.73-2.48z"/>
</g>
</svg>