<svg enable-background="new 0 0 400 400" viewBox="0 0 400 400" xmlns="http://www.w3.org/2000/svg">
<path d="m190.87 270.6c11.6 8.66 23.35 18.18 35.84 26.59 25.75 17.33 54.65 26.08 85.27 29.84 10.19 1.25 20.31 3.17 30.43 4.93 2.04.35 3.97 1.36 7.58 2.63-3.25 1.63-5.07 3.05-7.1 3.49-14.24 3.11-28.47 6.35-42.82 8.88-9.14 1.61-18.45 2.37-27.72 3.03-17.7 1.25-32.25-5.05-44.69-17.85-15.54-15.99-31.83-31.24-47.99-46.98-34.73 37.63-75.57 60.52-128.08 56.34-.22-.48-.43-.95-.65-1.43 3.21-1.39 6.33-3.12 9.66-4.11 15.94-4.78 31.65-10 46.42-17.88 22.03-11.75 41.29-26.66 57.06-47.89-10.82-11.92-21.6-24.05-32.68-35.91-10.99-11.76-23.12-22.18-38.16-28.93.16-.84.33-1.67.49-2.51 3.82-.94 7.65-2.68 11.47-2.65 7.7.06 14.4 1.99 20.37 8.3 15.19 16.05 31.37 31.16 47.6 47.09 6.46-9.85 10.75-19.65 13.77-29.99 4.12-14.12 6.5-28.49 4.99-43.25-.3-2.94-1.25-5.82-1.83-8.74-.86-4.33.78-6.54 4.88-5.53 11.44 2.84 21.5 8.33 28.22 18.29 1.51 2.24 1.98 7.23.53 9.08-9.36 11.98-13.27 26.32-18.62 40.06-4.43 11.28-9.11 22.46-14.24 35.1z" fill="currentColor"/>
<path d="m206.27 113.32c12.86 5.13 24.28 10 32.98 19.04 4.18 4.35 7.54 9.65 10.54 14.94 2.02 3.56 2.02 7.97-1.23 11.14-3.2 3.12-7.02 1.48-10.24-.17-10.62-5.46-21.11-11.17-31.64-16.81-5.27-2.83-10.61-8.07-15.75-7.88-4.87.18-9.58 5.97-14.27 9.41-22.02 16.1-45.74 28.36-73.04 32.6-1.78.28-3.58.39-5.73-.03 27.06-13.94 50.94-31.84 72.2-55.49-24.55-11.44-48.33-22.53-72.12-33.62.19-.73.39-1.45.58-2.18 6.87 1 13.89 1.42 20.59 3.11 20.76 5.22 41.41 10.85 62.05 16.5 3.1.85 5.22.76 7.12-2.13 7.99-12.12 15.22-24.61 18.81-38.82.72-2.85.68-5.91.81-8.89.22-5 2.57-7.23 7.37-5.91 9.92 2.72 18.84 7.46 26.31 14.64 2.99 2.88 2.99 5.36-.1 8.88-11.83 13.46-23.19 27.34-35.24 41.67z" fill="currentColor"/>
</svg>