<svg enable-background="new 0 0 400 400" viewBox="0 0 400 400" xmlns="http://www.w3.org/2000/svg">
<path d="m277.59 206.6c-23.47 3.9-46.33 7.71-69.97 11.64 2.46 3.44 4.96 6.26 6.63 9.52 1 1.95 1.57 4.9.84 6.83-8.65 22.81-18.61 44.87-36.08 62.67-17.16 17.48-37.03 29.63-61.76 32.69-.64.08-1.3-.08-3.59-.26 2.85-2.1 4.52-3.76 6.52-4.73 22.22-10.82 38.56-28.14 52.77-47.77 8.7-12.02 15.18-25.04 16.35-40.13.32-4.08.05-8.22.05-13.35-11.08 2.39-21.26 4.33-31.3 6.83-9.49 2.36-18.8 5.46-28.27 7.94-13.22 3.47-25.51-6.87-30.46-14.59-1.53-2.39-1.08-4.52 2-5.35 1.26-.34 2.61-.64 3.9-.57 21.3 1.16 42.04-3.25 62.91-6.35 23.48-3.48 46.95-7.04 70.39-10.76 13.06-2.08 26.05-4.57 39.08-6.87 0-15.98 0-31.26 0-47.28-10.33 2.42-20.37 4.47-30.23 7.18-11.18 3.07-22.31 6.41-33.21 10.31-4.75 1.7-8.93 5.02-13.3 7.72-6.25 3.86-7.9 3.22-11.78-2.96-4.92-7.85-5.13-15.42-.63-23.47 4.81-8.6 4.51-18.25 3.12-27.34-2.02-13.23-5.4-26.28-8.83-39.24-1.11-4.19-4.32-7.81-6.33-11.8-.77-1.52-1.69-3.82-1.07-4.94.59-1.07 3.14-1.56 4.78-1.46 7.89.44 15.49 2.17 22.13 6.7 5.27 3.6 6.88 8.55 6.54 15.08-.83 15.77-.87 31.57-1.14 47.37-.05 3.15.19 6.32.55 9.46.62 5.44 3.9 8.48 8.55 7.42 20.22-4.59 40.39-9.38 60.82-14.16 0-7.95.2-15.75-.05-23.54-.33-10.3-1.01-20.59-1.55-30.88-.66-12.5-2.16-24.81-7.24-36.47-.89-2.05-.52-4.66-.73-7.01 2.39-.15 5.07-1.08 7.13-.31 7.92 2.94 15.89 5.93 23.35 9.83 6.8 3.56 7.78 7.26 5.58 14.57-5.27 17.49-7.14 35.53-7.71 53.61-1.1 34.78-2.13 69.58-1.98 104.37.16 36.27 2.02 72.54 2.54 108.82.15 10.39-1.33 20.89-3.01 31.18-.63 3.83-3.5 9.77-6.17 10.25-4.8.87-6.02-5.25-7.48-9.04-6.22-16.06-8.4-32.41-5.6-49.78 2.3-14.21 2.78-28.79 3.17-43.22.49-18.15.06-36.33.01-54.49-.02-1-.13-1.98-.24-3.87z" fill="currentColor"/>
</svg>