<svg enable-background="new 0 0 400 400" viewBox="0 0 400 400" xmlns="http://www.w3.org/2000/svg">
<path d="m89.73 329.93c4.04-3.07 8.04-6.21 12.13-9.21 33.97-24.88 53.88-57.87 59.24-99.92 2.87-22.5 5.08-44.97 4.39-67.62-.61-19.91-1.44-39.89-7.59-59.1-1.31-4.08-3.57-7.85-5.11-11.88-.61-1.6-1.18-3.99-.42-5.11.69-1.01 3.48-1.48 4.88-.95 8.35 3.16 16.89 6.06 24.71 10.27 6.67 3.58 7.44 9.05 6.3 16.7-2.36 15.84-4.04 31.78-6.16 49.01 9.28-2.31 16.81-4.03 24.26-6.06 13.12-3.58 26.22-7.24 39.23-11.19 1.68-.51 3.83-2.83 4-4.5 2.17-21.7 4.1-43.5 1.08-65.22-1-7.2-4.35-14.14-7.16-20.99-1.91-4.66-1.67-5.89 3.37-5.51 10.78.81 20.87 4 29.71 10.38 4.49 3.24 5.67 7.55 3.34 12.31-6.63 13.58-7.83 28.37-9.81 42.98-1.05 7.71-1.61 15.48-2.42 23.5 8.13-2.25 15.53-4.81 23.14-6.22 5.6-1.04 11.49-.76 17.24-.66 1.85.03 3.85 1.09 5.47 2.16 4.75 3.13 5.13 7.63.08 10.13-8.42 4.17-17.2 7.94-26.21 10.58-28.24 8.25-57.02 14.18-86.19 18.1-5.4.73-10.88.86-16.29 1.27-1.39 20.93-2.77 41.59-4.19 62.96 16.79-3.96 33.4-7.71 49.92-11.83 8.35-2.08 16.62-4.6 24.78-7.34 3.87-1.3 7.63-3.27 11.05-5.54 5.57-3.68 11.44-4.92 17.51-2.35 6.39 2.71 12.66 5.85 18.61 9.42 5.8 3.48 6.33 7.77 1.94 12.84-6.65 7.67-9.76 16.47-9.58 26.55.37 20.98 1.25 41.96.81 62.92-.34 16.06-2.33 32.08-3.75 48.11-.2 2.25-1 4.62-2.14 6.58-1.09 1.86-2.89 4.39-4.55 4.52-1.69.14-4.17-1.91-5.3-3.65-6.12-9.43-7.76-19.9-7.15-31.03.91-16.77 1.85-33.56 1.83-50.34-.01-16.95-1.17-33.91-1.83-50.86-.03-.83-.06-1.67-.17-2.49-1.46-10.86-4.75-12.94-15.4-10.49-18.58 4.28-37.17 8.48-55.84 12.32-4.99 1.03-10.33 1.3-15.39.76-5.08-.54-6.45 1.74-7.7 5.89-4.62 15.33-10.62 30.08-19.38 43.58-13.92 21.44-34.34 34.31-57.51 43.51-3.64 1.45-7.39 2.65-11.08 3.96-.23-.43-.46-.84-.7-1.25z" fill="currentColor"/>
</svg>