<svg enable-background="new 0 0 400 400" viewBox="0 0 400 400" xmlns="http://www.w3.org/2000/svg">
<path d="m165.27 324.6c6.53.87 13.06 1.78 19.6 2.58 2.96.36 5.95.68 8.93.72 9.92.11 13.25-1.92 14.84-11.61 1.77-10.78 2.89-21.76 3.09-32.68.66-34.64.77-69.29 1.09-103.93.01-1.15 0-2.3-.87-3.98-.98 1.34-1.95 2.68-2.94 4-16.68 22.42-32.41 45.64-50.33 67.02-17.71 21.13-39.09 38.61-64.25 50.7-6.85 3.29-14.17 5.65-21.35 8.21-1.86.67-4.02.51-6.57-.21 25.66-17.97 49.75-37.41 70.67-60.58 20.92-23.16 39.05-48.28 55.51-76.48-10.8 2.23-20.37 3.98-29.83 6.21-17.04 4.02-33.51 9.58-48.87 18.23-7.54 4.24-12.95 1.92-16-6.26-2.24-6-2.25-12.08 2.36-16.86 11.45-11.87 12.45-26.3 10.79-41.42-.47-4.24-1.9-8.37-2.78-12.58-.36-1.7-.44-3.47-.64-5.17 6.86-1.15 21.51 5.07 23.76 10.69 1.12 2.8.39 6.69-.44 9.84-2.23 8.5-5.34 16.77-7.36 25.31-1.58 6.71 2.38 10.46 8.93 9.31 26.48-4.65 52.94-9.34 80.07-14.13.4-22.37-.7-44.63-4.19-67.42-12.12 2.2-23.82 4.3-35.51 6.46-3.76.7-7.46 1.66-11.22 2.35-11.16 2.05-20.7-1.5-29.01-8.77-1.26-1.1-1.82-2.99-2.7-4.52 1.7-.88 3.32-2.33 5.1-2.55 7.25-.9 14.62-1.02 21.82-2.17 22.93-3.66 45.8-7.66 68.7-11.53 13.39-2.26 26.72-5.01 40.18-6.6 8.37-.99 16.08 2.39 22.42 7.99 1.79 1.59 3.61 4.42 3.43 6.51-.12 1.41-3.59 3.3-5.77 3.65-8.52 1.34-17.12 2.17-25.69 3.16-13.14 1.51-26.29 3-39.98 4.56 4.49 3.98 8.52 7.34 12.3 10.96 4.06 3.89 4.81 8.39 3.46 14.08-1.94 8.2-2.81 16.67-3.81 25.06-.6 5.07-.58 10.21-.87 15.92 10.79-1.8 21.16-3.83 31.61-5.2 18.26-2.39 36.55-4.81 54.9-6.33 8.88-.74 17.08 2.9 23.29 9.5 2.04 2.17 4.34 6.32 3.52 8.34-.88 2.15-5.31 3.94-8.21 3.97-15.31.16-30.64-.89-45.93-.36-18.43.64-36.81 2.43-55.22 3.77-1.28.09-2.53.63-3.92.99 0 8.81-.03 17.45.01 26.08.18 41.64.65 83.29.45 124.93-.08 17.55-3.84 34.38-15.07 48.68-1.03 1.31-1.95 2.72-3.12 3.89-4.33 4.35-7.95 4.13-11.52-.95-1.99-2.84-3.37-6.11-5.2-9.07-6.27-10.16-15.39-17.35-25.11-23.93-2.72-1.84-5.11-4.16-7.65-6.26.39-.72.75-1.42 1.1-2.12z" fill="currentColor"/>
</svg>