<svg enable-background="new 0 0 400 400" viewBox="0 0 400 400" xmlns="http://www.w3.org/2000/svg">
<path d="m199 213.91c-10.66 1.21-20.56 2.25-30.44 3.48-17.31 2.16-34.61 4.34-51.89 6.71-14.47 1.98-28.93 4.13-43.36 6.43-12.42 1.98-22.52-2.4-31.14-10.9-1.13-1.11-1.35-3.14-1.98-4.75 1.63-.65 3.24-1.76 4.9-1.87 16.75-1.13 33.56-1.7 50.27-3.22 18.52-1.68 36.99-4.02 55.45-6.36 15.48-1.96 30.91-4.31 46.36-6.49.47-.07.92-.24 1.55-.41 0-16.95 0-33.87 0-50.32-12.51.74-24.77 2.19-37.01 1.97-9.02-.16-18.1-2.05-26.95-4.06-4.23-.96-6.74-.85-9.78 2.61-10.2 11.58-22 21.29-35.91 28.22-1.73.86-3.54 1.56-5.31 2.33-.32-.35-.64-.7-.97-1.04 2.27-2.86 4.42-5.81 6.82-8.55 12.99-14.87 23.77-31.21 32.95-48.66 4.28-8.14 5.36-16.66 3.78-25.63-.85-4.85.79-6.92 5.88-6.73 10.62.39 20.08 4.25 28.49 10.57 3.27 2.46 3.12 5.07.09 8.32-8.34 8.94-16.26 18.27-24.35 27.45.29.66.58 1.32.86 1.98 20.42-2.91 40.84-5.81 61.29-8.72 0-10.63.45-20.27-.11-29.85-.79-13.58-1.89-27.18-3.73-40.66-.76-5.58-3.87-10.83-5.7-16.29-.64-1.92-1.4-4.42-.67-5.99.51-1.09 3.65-1.8 5.28-1.38 9.12 2.35 18.29 4.68 27.13 7.86 5.4 1.94 6.74 6.37 5.52 11.21-2.09 8.32-4.77 16.63-5.57 25.1-1.35 14.17-1.43 28.47-2.09 43.73 14.72-2.68 28.38-5.09 42.01-7.68 8.74-1.66 16.86-.44 24.35 4.46 5.51 3.6 5.69 7.41-.41 9.58-9.97 3.54-20.26 6.32-30.58 8.64-10.02 2.26-20.27 3.54-30.41 5.28-1.44.25-2.83.72-4.28 1.09v52.59c9.03-.87 17.78-1.45 26.45-2.6 27.65-3.66 55.24-7.78 82.92-11.21 14.13-1.75 26.4 2.49 34.93 14.63 1.31 1.86 2.78 5.04 2.03 6.53-.8 1.59-4.12 2.55-6.39 2.65-7.98.34-15.99-.1-23.97.27-32.05 1.48-64.1 3.1-96.14 4.8-6.6.35-13.16 1.23-20.18 1.92 0 14.84.43 29.16-.09 43.45-1.01 27.75-2.29 55.49-4.05 83.2-.54 8.54-2.98 16.96-4.66 25.41-.32 1.59-.92 3.25-1.85 4.57-.96 1.37-2.47 2.36-3.75 3.51-.91-1.29-2.26-2.46-2.63-3.89-.9-3.52-1.69-7.14-1.92-10.76-.54-8.63-.99-17.28-1.01-25.93-.09-36.85-.03-73.68-.03-110.51 0-1.8 0-3.61 0-6.09z" fill="currentColor"/>
</svg>