<svg enable-background="new 0 0 400 400" viewBox="0 0 400 400" xmlns="http://www.w3.org/2000/svg">
<path d="m220.12 235.61c-9.62 6.46-18.34 12.15-26.89 18.08-11.46 7.96-22.89 15.99-34.14 24.25-5.39 3.95-10.82 5.21-16.53 1.46-4.7-3.08-9.27-6.47-13.44-10.23-2.84-2.56-1.95-5.43 1.83-6.11 31.95-5.69 57.44-24.52 84.1-41.02 3.32-2.06 5.12-4.28 5.16-8.64.14-14.96.87-29.92 1.35-44.88.02-.64-.17-1.29-.31-2.27-3.2 0-6.3-.08-9.4.02-8.48.26-16.96.82-25.43.77-3.55-.02-5.24 1.27-6.88 4.23-7.4 13.44-15.32 26.55-27.96 35.94-1.55 1.15-3.24 2.11-4.86 3.16-.38-.28-.76-.55-1.15-.83 1.07-2.26 1.96-4.63 3.24-6.76 12.36-20.6 18.42-43.33 21.71-66.79.87-6.21-.88-12.88-1.97-19.24-.77-4.49 1.44-6.05 4.77-4.7 7.61 3.1 15.05 6.72 22.25 10.69 3.19 1.76 2.88 4.78 1.07 8.21-4.88 9.22-9.21 18.74-13.76 28.14.34.38.68.75 1.01 1.13 5.71-1.43 11.43-2.78 17.12-4.3 5.76-1.54 11.45-3.38 17.24-4.8 2.65-.65 3.45-1.94 3.37-4.53-.63-21.95-.64-43.94-2.05-65.84-.47-7.31-4.46-14.39-6.77-21.59-.63-1.96-1.02-3.99-1.53-5.99 2.01-.42 4.25-1.63 6.01-1.13 7.93 2.25 15.83 4.71 23.52 7.67 3.79 1.46 4.99 5 4.03 9.18-1.92 8.36-4.52 16.68-5.29 25.16-1.49 16.38-1.9 32.85-2.8 50.28 6.16-2.14 11.6-3.79 16.86-5.93 5.73-2.32 11.04-1.4 16.31 1.18 5.26 2.58 5.83 5.49.76 8.59-6.77 4.13-13.82 8.55-21.35 10.53-9.75 2.56-14.08 6.81-12.52 17.24.84 5.64-.46 11.58-.6 17.39-.14 5.65-.03 11.32-.03 17.47 9.72-4.31 19.26-8.54 28.8-12.77.37.56.73 1.12 1.1 1.68-4.52 4.11-8.99 8.27-13.58 12.3-2.88 2.52-5.71 5.21-8.96 7.17-6.52 3.93-8.44 9.35-8.51 16.88-.23 23.45-.97 46.9-2.12 70.32-.67 13.75-2.36 27.45-3.87 41.15-.3 2.72-1.57 5.45-2.88 7.9-2.39 4.46-4.92 4.58-7.66.23-4.95-7.83-8.77-16.45-8.37-25.71.49-11.21 2.69-22.33 3.99-33.51 1.7-14.67 3.29-29.36 4.82-44.06.52-5.18.75-10.43 1.19-16.77z" fill="currentColor"/>
</svg>