<svg enable-background="new 0 0 400 400" viewBox="0 0 400 400" xmlns="http://www.w3.org/2000/svg">
<path d="m354.29 339.12c-6.93 1.08-12.57 2.41-18.28 2.78-15.27.98-30.56 1.77-45.85 2.21-16.37.47-29.77-6.26-38.77-19.68-22.13-33.03-43.64-66.48-65.36-99.79-3.35-5.13-6.47-10.4-10.27-16.53-2.03 9.17-3.67 17.46-5.71 25.65-4.43 17.79-9.44 35.51-20.64 50.4-13.29 17.67-30.3 30.86-51.42 38-13.65 4.62-27.54 8.53-41.36 12.63-1.95.58-4.12.42-6.18.6-.15-.41-.3-.82-.45-1.23 2.49-1.43 4.91-3.02 7.5-4.26 18.51-8.91 35.87-19.66 52.06-32.32 23.17-18.11 36.63-42.22 43.22-70.43 3.01-12.91 5.34-25.99 7.9-39 .28-1.41.04-2.92.04-5.09-16.18 3.2-32.14 6-47.93 9.61-13.09 2.99-24.27-.59-34.73-8-1.25-.89-2.19-2.22-3.6-3.69 29.9-4.35 58.98-8.58 89.34-13 0-16.36.5-31.99-.15-47.57-.58-14.07-1.87-28.17-3.95-42.08-.98-6.55-4.65-12.68-6.91-19.06-.79-2.22-1.01-4.65-1.49-6.98 2.34-.2 4.97-1.19 6.96-.45 8.05 2.98 16.26 5.85 23.73 10 7.3 4.05 7.63 8.49 5.86 16.48-2.17 9.84-3.83 19.89-4.51 29.94-1.16 17.08-1.38 34.22-1.99 51.34-.05 1.47-.01 2.94-.01 5.16 10.86-2.16 21.37-4.11 31.83-6.35 11.84-2.54 23.57-5.58 35.44-7.92 11.19-2.21 21.46.87 30.68 7.24 5.14 3.55 4.74 7.33-1.43 8.91-8.47 2.17-17.25 3.22-25.95 4.39-23.21 3.12-46.44 6.06-69.67 9.03-4.35.56-4.41 4.06-3.9 6.75.85 4.5 1.84 9.37 4.26 13.12 26.4 40.86 54.7 79.93 97.64 105.68 17.02 10.2 35.5 16.49 53.86 23.34 5.91 2.21 11.73 4.64 17.55 7.06.65.26 1.02 1.16 2.64 3.11z" fill="currentColor"/>
<path d="m248.95 83.78c8.59 1.71 17.28 3.07 25.76 5.21 14.71 3.73 17.16 18.62 14.17 28.63-1.33 4.46-5.37 6.18-10.63 4.16-3.85-1.48-7.6-3.48-10.98-5.85-9.11-6.4-18.15-12.92-26.85-19.85-2.35-1.87-3.41-5.35-5.07-8.09 3.13-1.06 6.23-2.22 9.4-3.11 1.24-.35 2.65-.06 3.98-.06.08-.34.15-.69.22-1.04z" fill="currentColor"/>
</svg>