<svg enable-background="new 0 0 400 400" viewBox="0 0 400 400" xmlns="http://www.w3.org/2000/svg">
<path d="m182.76 294.73c.57-27.7 1.12-54.61 1.67-81.88-20.76.57-41.9 7.29-61.35-4.09-.13-.8-.26-1.59-.39-2.39 2.9-1.16 5.7-2.79 8.71-3.4 15.43-3.17 30.95-5.89 46.35-9.15 8.49-1.8 7.09.15 7.02-8.77-.11-15.31-.5-30.62-.87-45.92-.05-1.97-.57-3.94-1.02-5.87-2.65-11.23-3.96-12.17-15.33-12.28-12.17-.12-24.26-.96-35.73-5.58-1.23-.49-2.61-.87-3.57-1.7-1.03-.89-2.14-2.2-2.26-3.42-.07-.68 1.68-2.01 2.79-2.28 5.96-1.46 11.95-2.79 17.97-3.95 25.58-4.95 51.13-10.07 76.78-14.62 11.91-2.11 24-3.39 36.06-4.29 3.67-.27 7.88 1.38 11.23 3.26 4.64 2.6 4.68 6.47.19 9.38-4 2.58-8.4 5.03-12.96 6.15-18.98 4.68-38.09 8.84-57.16 13.18-.78.18-1.58.3-3.23.6 2.29 2.4 4.2 4.3 5.99 6.31 6 6.73 8.92 13.76 5.41 23.18-2.44 6.56-3.11 13.91-3.78 20.98-.6 6.39-.13 12.88-.13 19.76 10.42-2.08 21.01-3.95 31.47-6.35 7.78-1.79 14.47.49 20.82 4.46 4.27 2.68 4.53 6.19-.04 8.38-7.27 3.49-14.94 6.33-22.7 8.54-9.72 2.76-19.7 4.61-30.19 6.99-.92 26.76-1.84 53.8-2.79 81.44 11.49-.98 22.36-1.82 33.21-2.84 15.72-1.48 31.41-3.27 47.14-4.6 11.41-.96 22.93-2.48 34.28-1.79 15.42.94 29.74 5.82 39.73 18.89 4.56 5.96 3.19 9.68-4.35 9.84-9.94.21-19.98-.11-29.85-1.28-22.18-2.63-44.36-3.93-66.67-2.68-14.45.81-28.93 1.08-43.35 2.21-19.55 1.54-39.06 3.59-58.57 5.6-15.87 1.64-31.73 3.42-47.56 5.37-9.22 1.14-18.44 2.48-27.56 4.23-7.72 1.48-15.05.34-21.82-2.97-6.79-3.31-13.06-7.68-19.56-11.58.18-.49.37-.98.55-1.47 48.34-4.52 96.66-9.04 145.42-13.6z" fill="currentColor"/>
<path d="m317 248c-1.51 4.32-2.63 8.85-4.65 12.92-2.18 4.38-5.84 5.53-10.04 3-3.91-2.36-8.03-5.16-10.6-8.81-7.91-11.23-15.16-22.94-22.58-34.52-.96-1.51-1.63-3.29-2.06-5.03-.73-2.93.02-4.99 3.63-4.73.99.07 2.05-.06 2.97.23 12.93 4.11 25.14 9.61 34.92 19.33 4.73 4.7 7.69 10.39 8.41 17.61z" fill="currentColor"/>
</svg>