<svg enable-background="new 0 0 400 400" viewBox="0 0 400 400" xmlns="http://www.w3.org/2000/svg">
<path d="m188.65 293.04c0-26.82 0-52.76 0-78.97-9.46 1.54-18.67 2.71-27.73 4.58-14.25 2.94-27.41.34-39.8-6.86-1.44-.84-2.4-2.52-3.58-3.81 1.5-1.11 2.88-2.94 4.52-3.23 10.46-1.8 21-3.19 31.48-4.86 11.64-1.85 23.25-3.85 35.83-5.94 0-15.31.38-30.4-.15-45.46-.29-8.41-2.27-16.75-3.11-25.16-.5-4.94-2.82-5.61-7.28-5.05-10.21 1.28-20.48 2.18-30.74 2.83-9.66.61-18.31-2.76-26.16-8.16-1.76-1.21-2.89-3.32-4.31-5.02 1.99-.97 3.9-2.46 6-2.81 13.27-2.21 26.65-3.81 39.87-6.26 30.01-5.58 59.96-11.49 89.91-17.38 8.31-1.63 16.6-2.48 24.23 1.82 2.74 1.54 5.96 4.66 6.24 7.35.21 2.01-3.55 5.52-6.23 6.53-8.97 3.4-18.11 6.59-27.45 8.72-14.39 3.27-28.99 5.59-43.5 8.33-.78.15-1.54.46-2.84.85 1.92 1.54 3.47 2.71 4.93 3.98 5.02 4.37 7.12 9.22 5.2 16.3-2.01 7.46-2.68 15.35-3.32 23.1-.88 10.58-1.19 21.21-1.79 32.7 12.73-3.01 24.74-5.82 36.74-8.71 10.35-2.49 19.41.63 27.73 6.48 3.36 2.36 2.84 5.81-1.64 7.53-6.93 2.67-14.1 4.92-21.34 6.54-12.31 2.75-24.76 4.86-37.15 7.27-1.28.25-2.52.7-4.65 1.31v79.71c8.79-1.25 18.09-2.67 27.41-3.86 22.4-2.86 44.76-6.41 67.26-8.16 17.99-1.4 35.3 2.03 48.16 16.61 1.7 1.93 2.35 4.78 3.49 7.2-2.5 1.05-5 3.03-7.48 3-12.43-.13-24.84-.93-37.27-1.22-18.6-.42-37.23-1.24-55.82-.71-15.91.45-31.84 2.05-47.66 4.03-21.41 2.68-42.75 6.01-64.06 9.42-20.15 3.22-40.13 7.68-60.36 10.07-11.99 1.42-23.28-3.18-32.55-11.39-3.1-2.75-2.52-5.09 1.54-5.8 5.06-.88 10.26-.86 15.37-1.49 31.97-3.92 63.94-7.85 95.89-11.9 8.69-1.12 17.35-2.68 26.17-4.05z" fill="currentColor"/>
</svg>