<svg enable-background="new 0 0 400 400" viewBox="0 0 400 400" xmlns="http://www.w3.org/2000/svg">
<path d="m166.61 104.5c4.03 3.05 7.64 5.62 11.07 8.42 2.59 2.12 3.23 4.7 2.79 8.34-2.72 22.42-5.62 44.85-7.32 67.36-2.55 33.66-4.15 67.38-6.18 101.08-.22 3.63-.64 7.25-1.08 12.18 15.25-7.09 29.58-13.75 44.15-20.52-3.77-7.39-7.4-14.49-11.03-21.58.45-.47.9-.94 1.35-1.41 2.17.38 4.48.42 6.5 1.2 12.09 4.63 23.02 11.07 32.11 20.52 10.04 10.45 9.61 23.2 5.11 34.83-1.48 3.82-4.77 4.83-8.03 2.03-4.12-3.54-7.91-7.61-11.17-11.95-4.27-5.67-7.88-11.84-12.12-18.34-9.6 7.77-19.13 15.24-28.39 23.02-13.38 11.25-26.68 22.58-37.21 36.78-4.54 6.12-8.94 5.33-11.59-1.81-2.78-7.51-4.93-15.3-2.56-23.36.82-2.79 1.98-6.12 4.11-7.78 9.2-7.18 12.18-17.4 13.66-27.94 2.29-16.27 4.12-32.65 5.11-49.05 1.66-27.39 3.15-54.81 3.42-82.24.12-12.47-2.36-25.05-4.57-37.41-1.22-6.86-2.12-6.85-8.82-4.81-7.3 2.23-14.55 4.62-21.69 7.31-1.39.52-2.98 2.65-3.09 4.15-1.83 24.37-3.04 48.8-5.19 73.14-2.63 29.67-6.67 59.17-19.93 86.38-13.86 28.45-34.75 50.57-61.91 66.76-1.1.65-2.36 1.02-4.32.85 1.28-1.72 2.49-3.5 3.85-5.16 10.48-12.88 22.06-25.03 31.25-38.77 15.18-22.69 22.41-48.8 27.84-75.27 4.82-23.48 7.24-47.26 7.35-71.29.06-13.47.39-26.92-3.2-40.04-1.22-4.45-3.51-8.6-4.97-13-.64-1.92-1.29-4.78-.35-6.02.88-1.16 4.02-1.41 5.85-.9 4.93 1.36 10.11 2.64 14.43 5.22 6.48 3.88 12.81 4.14 19.59 1.85 19.33-6.51 36.19-17.43 52.16-29.79 5.91-4.57 11.75-9.42 16.72-14.95 3.28-3.65 5.42-8.57 7.19-13.26 1.4-3.7 3.8-4.56 6.87-3.94 14.35 2.89 26.04 10.73 36.21 20.81 4.39 4.36 2.83 8.52-3.73 9.81-21.99 4.33-42.42 13.17-63.11 21.29-5.64 2.23-11.18 4.73-17.13 7.26z" fill="currentColor"/>
<path d="m198.48 99.86c6.71-4.67 18.91-.62 22.5 7.52 7.09 16.11 13.89 32.35 21.43 48.25 12.02 25.33 23.85 50.8 37.04 75.52 13.8 25.85 36.93 42.34 61.72 56.59 7.92 4.55 16.12 8.62 24.02 13.22 1.96 1.14 3.23 3.45 4.82 5.22-2.16.95-4.29 2.66-6.47 2.73-19.64.68-39.26.39-58.53-4.05-10.37-2.39-17.23-8.57-21.46-18.81-14.34-34.67-29.4-69.04-44.03-103.59-7.96-18.8-15.15-37.94-23.62-56.5-3.51-7.7-9.48-14.27-14.32-21.37-.99-1.48-1.94-2.97-3.1-4.73z" fill="currentColor"/>
</svg>