<svg enable-background="new 0 0 400 400" viewBox="0 0 400 400" xmlns="http://www.w3.org/2000/svg">
<path d="m119.46 213.82c10.58.69 20.67 1.37 30.76 2.01 11.79.75 18.59 7.04 20.23 18.74.89 6.33-2.62 9.85-8.76 7.93-7.26-2.26-14.32-5.22-21.33-8.18-7.34-3.1-14.53-6.58-22.33-10.14-1.32 7.02-2.59 13.8-3.87 20.58-2.58 13.68-5.05 27.38-7.78 41.02-1.87 9.32 1.44 12.68 10.62 10.48 17.89-4.3 35.8-8.55 53.7-12.77 1.56-.37 3.2-.42 5.24.4-1.9 1.11-3.74 2.32-5.7 3.33-23.34 11.99-46.88 23.6-69.94 36.09-10.17 5.51-19.5 12.62-28.94 19.4-6.12 4.4-10.33 3.42-12.17-3.81-2.99-11.78-.81-21.58 9.35-29.74 13.21-10.62 19.84-25.71 24.07-41.65 7.37-27.8 12.17-56.15 14.18-84.82 1.24-17.7 1.03-35.51.95-53.28-.03-6.69-1.53-13.38-2.35-20.06-6.1.59-11.52 1.49-16.94 1.56-9.63.12-16.61-5.21-22.38-12.26-2.7-3.29-.65-4.73 2.76-5.04 9.93-.9 19.93-1.28 29.77-2.76 26.08-3.92 52.19-7.82 78.1-12.69 17.9-3.36 35.45-8.53 53.25-12.49 12.41-2.76 22.91 1.66 31.75 10.3 3.68 3.6 2.91 6.16-2.21 7.06-14.22 2.5-28.5 4.65-42.74 7.06-26.49 4.47-52.96 9.02-79.44 13.55-7.02 1.2-14.03 2.45-22.11 3.87 1.59 1.57 2.66 2.61 3.71 3.67 2.7 2.71 5.47 5.36 8.06 8.18 2.51 2.72 2.79 5.48 1.89 9.44-2.48 10.96-3.84 22.18-5.83 34.4 5.56-.5 9.94-.79 14.29-1.32 19.02-2.33 37.76-5.79 54.96-14.83 2.77-1.45 5.65-3.08 7.75-5.31 3.97-4.21 9.03-5.48 13.66-3.42 7.02 3.13 13.71 7.27 19.92 11.83 3.98 2.92 3.78 7.05.26 9.78-11.78 9.11-16.81 21.98-20.31 35.69-6.79 26.63-6.21 53.42-.35 80.04 3.59 16.32 13.36 28.42 28.75 35.52 16.26 7.5 32.93 13.32 51.25 12.87 12.41-.31 20.12-6.04 23.72-18.07 3.94-13.19 7.96-26.36 12.05-39.51.6-1.93 1.73-3.7 2.62-5.54.43.07.87.14 1.3.21.16 2.2.48 4.4.46 6.6-.08 10.49-.05 20.99-.44 31.48-.39 10.52 1.86 20.46 5.44 30.22.79 2.16 1.52 4.41 1.79 6.68.86 7.15-1.19 10.72-7.98 12.96-4.22 1.4-8.68 2.43-13.1 2.82-24.65 2.19-48.81-.61-72.02-9.18-25.83-9.54-40.94-29.29-49.21-54.76-6.43-19.78-6.55-40.2-5.21-60.71 1.16-17.75 2.21-35.51 3.28-53.27.58-9.65-1.7-12.45-13.2-10.42-8.48 1.5-16.76 4.07-25.22 5.67-9.94 1.89-19.97 3.39-30 4.74-2.86.38-4.06 1.28-4.33 4.17-1.11 11.73-2.41 23.44-3.7 35.68z" fill="currentColor"/>
</svg>