<svg enable-background="new 0 0 400 400" viewBox="0 0 400 400" xmlns="http://www.w3.org/2000/svg">
<path d="m190.65 308.03c0-19.83 0-38.6 0-57.5-12.03.5-23.82 1.78-35.51 1.22-9.15-.44-18.23-2.96-27.25-4.98-2.32-.52-4.28-2.65-6.41-4.04.07-.65.13-1.31.2-1.96 4.02-.93 8.01-2.07 12.08-2.77 19.26-3.29 38.54-6.47 57.94-9.7 0-18.89 0-36.81 0-54.92-9.83 1.23-19.47 2.74-29.17 3.59-13.34 1.17-26.61.02-39.62-3.11-3.16-.76-4.35.18-5.92 2.54-9.51 14.31-19.53 28.23-33.37 38.8-3.4 2.6-7.16 4.72-10.76 7.05-.44-.32-.89-.64-1.33-.95 1.12-2.33 2.02-4.79 3.4-6.96 7.57-11.92 15.94-23.39 22.74-35.73 10.52-19.09 19.42-39.03 24.3-60.41 1.33-5.81.91-12.08.83-18.14-.04-3.63.81-6.05 4.67-4.44 7.45 3.1 14.95 6.27 21.89 10.34 4.68 2.75 4.12 5.02 1.21 9.95-8.02 13.59-15.76 27.35-23.56 41.07-.78 1.38-1.18 2.99-1.97 5.07 23.2.17 44.82-5.74 66.82-10.34 0-22.54.41-44.69-.18-66.81-.27-10.2-2.26-20.39-3.97-30.51-.65-3.86-2.76-7.45-4.06-11.22-1.67-4.84.41-7.87 5.41-7.08 9.92 1.56 19.48 4.46 27.6 10.66 5.94 4.53 6.67 7.99 3.82 14.74-4.6 10.88-6.22 22.38-6.75 34.04-.79 17.43-1.31 34.87-1.98 53.28 9.55-2.28 18.16-4.39 26.79-6.38 8.54-1.97 17.06-4.13 25.69-5.59 6.16-1.05 11.83 1.05 16.62 5.13 4.59 3.91 4.58 7.64-.94 9.9-9.49 3.89-19.23 7.41-29.14 10-12.97 3.39-26.22 5.72-39.56 8.56v54.12c11.81-3.18 23.34-6.15 34.78-9.42 9.66-2.76 18.06-.96 25.26 6.09 4.63 4.54 4.13 7.88-2.15 9.67-14.03 4-28.21 7.47-42.33 11.15-.96.25-1.92.5-2.89.75-13.34 3.39-13.35 3.39-13.69 17.2-.34 13.98-.66 27.95-.97 41.93-.03 1.13.11 2.26.21 4.05 5.7-.43 11.12-.64 16.5-1.28 20.45-2.44 40.83-5.45 61.32-7.41 14.84-1.42 29.82-3.26 44.67.55 8.62 2.21 15.97 6.55 22.25 12.73 2.48 2.44 5.89 5.64 3.63 8.9-1.71 2.47-5.89 3.82-9.2 4.43-3.13.58-6.61-.23-9.85-.83-21.39-3.98-43.03-3.72-64.66-4.14-32.35-.63-64.5 1.59-96.48 6.12-34.83 4.94-69.58 10.43-104.39 15.54-2.52.37-5.37.06-7.79-.74-8.44-2.78-15.05-8.34-20.92-14.82-.59-.65-.65-1.76-.89-2.46 49-4.83 97.84-9.66 147.03-14.53z" fill="currentColor"/>
</svg>