<svg enable-background="new 0 0 400 400" viewBox="0 0 400 400" xmlns="http://www.w3.org/2000/svg">
<path d="m113.93 285.25c-1.62 6.76-2.96 13.06-4.72 19.25-.48 1.7-2.21 3.04-3.36 4.55-1.56-1.3-3.64-2.31-4.61-3.96-5.8-9.86-8.96-20.3-9.54-32.01-1.27-25.39-3.24-50.77-5.82-76.06-1.9-18.64-4.65-37.25-8.18-55.65-1.59-8.29-6.06-16.03-9.1-24.06-.66-1.74-.8-3.67-1.18-5.51 1.88-.35 3.89-1.29 5.63-.93 6.81 1.42 13.52 3.33 20.3 4.93 12.73 3.02 25.47 1.2 38.15-.26 17.65-2.03 35.31-4.09 52.89-6.67 30.51-4.48 61.14-8.31 90.64-18.13 5.51-1.83 12.36-1.85 18.06-.47 13.88 3.36 26.46 9.9 37.09 19.66 6.35 5.83 7.34 12.38 2.12 19.05-8.43 10.77-10.98 23.42-12.02 36.32-1.86 23.03-2.5 46.16-4.35 69.19-1.7 21.17-3.16 42.54-12.68 62.13-5.43 11.16-12.55 21.18-22.14 29.2-5.86 4.9-9.81 3.92-12.42-3.26-2.03-5.58-3.06-11.53-4.72-17.26-1.11-3.82-2.4-7.6-3.85-11.3-4.04-10.29-12.05-14.97-22.71-15.96-22.68-2.11-45.15 1.17-67.68 2.71-13.77.94-27.51 2.2-41.26 3.31-4.83.39-9.63.79-14.54 1.19zm85.34-20.18c9.74-.61 18.84-1.57 27.94-1.64 7.57-.06 15.47-.21 22.64 1.77 6.83 1.89 12.94 6.42 19.31 9.9 7.16 3.91 11.13 2.49 13.78-5.18.81-2.34 1.51-4.74 2.04-7.16 8.46-39.07 10.72-78.62 8.62-118.44-.35-6.54-1.8-13.19-3.85-19.43-2.9-8.85-9.4-13.25-18.65-12.78-12.77.65-25.51 1.88-38.25 3.12-11.82 1.14-23.61 2.61-36.32 4.03 1.84 1.73 3.11 2.74 4.16 3.94 3.95 4.5 8.39 8.84 7.13 15.67-1.39 7.48-3.24 14.89-4.29 22.41-.89 6.32-.93 12.75-1.39 19.85 10.32-1.87 19.97-2.84 29.14-5.49 11.25-3.25 19.39 1.05 26.78 8.5 4.42 4.45 3.58 7.64-2.67 8.93-6.97 1.45-14.09 2.17-21.17 2.99-10.52 1.21-21.06 2.23-31.97 3.37-.99 21.82-1.97 43.34-2.98 65.64zm-17.68 1.53c0-21.53 0-42.84 0-64.2-9.26 1.45-18.16 2.6-26.95 4.28-9.89 1.89-18.11-.78-24.79-8.13-1.21-1.33-2.69-3.69-2.24-4.93.48-1.32 3.01-2.45 4.77-2.67 7.08-.88 14.22-1.24 21.31-2.04 9.36-1.07 18.7-2.37 28.16-3.59 0-16.78.14-32.93-.11-49.07-.05-3.22-1.26-6.55-2.57-9.55-.55-1.27-2.8-2.7-4.15-2.59-19.87 1.6-39.73 3.41-59.59 5.25-4.05.38-8.07 1.07-12.05 1.61 2.94 48.04 5.83 95.39 8.74 142.92 23.55-2.48 46.45-4.88 69.47-7.29z" fill="currentColor"/>
</svg>