<svg enable-background="new 0 0 400 400" viewBox="0 0 400 400" xmlns="http://www.w3.org/2000/svg">
<path d="m135.75 215.89c-25.72 40.98-58.92 72.94-103.66 91.58-.53-.58-1.06-1.16-1.59-1.73 2.69-2.53 5.21-5.27 8.1-7.55 22.58-17.78 43.39-37.37 61.3-59.92 10.99-13.84 18.21-29.36 20.55-46.94.54-4.04.19-8.28-.27-12.36-.51-4.51.67-6.24 5.13-5.01 8.92 2.46 16.94 6.72 23.35 13.64 2.64 2.86 2.35 5.49.02 8.4-3 3.76-5.79 7.69-9.39 12.5 18.5 13.15 36.78 26.14 56.3 40.03 0-3.46.01-5.23 0-6.99-.25-29.98-.26-59.96-.87-89.93-.3-14.6-1.75-29.18-6.59-43.99-7.27 1.3-14.53 2.55-21.78 3.91-12.57 2.36-25.05 5.31-37.7 7.03-10.41 1.42-18.96-3.81-26.48-10.51-2.71-2.42-.93-4.55 1.69-5.01 5.7-.99 11.49-1.62 17.27-2 40.56-2.67 80.55-8.45 119.11-21.96 2.66-.93 5.43-1.82 7.78-3.32 5.76-3.68 11.55-3.49 17.58-1.03 14.23 5.81 26.65 14.32 37.27 25.38 1.52 1.59 3.06 4.75 2.45 6.36-.66 1.71-3.81 3.32-5.98 3.47-20.58 1.45-39.43 8.86-58.3 16.32-1.8.71-3.61 1.37-5.42 2.06-.33-.32-.66-.65-1-.97 1.28-1.9 2.63-3.76 3.82-5.72 4.66-7.63 9.68-15.08 13.74-23.02 2.39-4.68.3-7.17-4.91-6.39-16.8 2.52-32.77 8.03-48.91 13.77 4.62 3.59 8.97 6.66 12.94 10.15 3.71 3.27 5.35 7.31 3.77 12.51-1 3.29-1.39 6.87-1.43 10.33-.15 15.12-.06 30.24-.06 46.02 6.19-1.47 13.11-2.87 19.87-4.79 9.57-2.72 18.96-6.08 28.57-8.66 5.98-1.61 14.91 2.69 18.17 7.98 2.19 3.56.84 6.47-2.67 7.53-7.75 2.34-15.59 4.91-23.57 5.87-13.5 1.63-27.13 2.08-41.18 3.05-.1.42-.54 1.51-.56 2.61-.41 17.97-.73 35.95-1.2 53.92-.07 2.78.72 4.47 3.17 6.03 31.96 20.35 66.37 34.12 104.02 39.43 16.27 2.29 32.54 4.56 48.78 7.01 2.46.37 4.79 1.61 7.17 2.45.04.55.07 1.11.11 1.66-2.89 1.34-5.65 3.23-8.68 3.93-15.17 3.52-30.34 7.12-45.65 9.91-12.55 2.29-25.29 3.67-37.98 5.09-12.31 1.39-22.57-4.03-31.39-11.67-37.48-32.49-74.69-65.29-112-97.97-.98-.86-1.95-1.73-2.81-2.49z" fill="currentColor"/>
</svg>