<svg enable-background="new 0 0 400 400" viewBox="0 0 400 400" xmlns="http://www.w3.org/2000/svg">
<g fill="currentColor"><path d="m170.63 119.38c-.5 7.22-.78 14-1.47 20.75-2.96 28.9-4.93 57.96-9.35 86.64-5.46 35.48-18.51 68.31-41.6 96.39-10.77 13.1-23.76 23.75-39.17 31.15-2.15 1.03-4.44 1.76-6.67 2.63-.31-.36-.62-.71-.92-1.07 1.78-2.23 3.36-4.66 5.38-6.65 19.9-19.63 34.92-42.64 47.16-67.61 9.92-20.23 13.95-42.03 17.86-65.04-8.81 5.07-16.98 9.37-24.74 14.33-11.34 7.24-22.44 14.87-33.53 22.5-4.8 3.3-9.04 4.2-13.12.02-5.38-5.51-9.95-11.94-14.11-18.46-2.26-3.53-.46-6.36 3.31-6.04 22.81 1.92 42.97-6.91 63.25-15.27 6.29-2.6 12.52-5.37 18.66-8.32 1.38-.67 3.12-2.35 3.21-3.68 1.82-24.85 3.75-49.7 4.85-74.59.32-7.32-1.71-14.77-2.96-22.11-.74-4.35.08-5.94 4.35-5.05 4.49.93 8.75 2.95 13.16 4.35 4.18 1.33 8.5 3.74 12.62 3.48 19.38-1.24 38.82-2.5 58.04-5.16 22.5-3.11 44.8-7.64 67.18-11.62 3.75-.67 7.49-1.49 11.16-2.52 10.47-2.95 19.69.05 28.19 5.95 4.3 2.98 4.32 6.85-.5 8.77-7.31 2.92-14.97 5.66-22.71 6.63-25.38 3.19-50.85 5.65-76.31 8.18-22.7 2.25-45.43 3.69-68.23 1.29-.8-.08-1.63.07-2.99.13z"/><path d="m274.95 67.93c-.15 6.35-3.77 9.08-10.96 6.47-15.34-5.58-28.07-14.9-38.15-27.73-3.54-4.5-2.55-7.41 3.12-7.38 11.73.07 23.59.15 34.38 6.08 8.42 4.63 11.07 12.32 11.61 22.56z"/><path d="m126.15 158.12c-.64 2.59-1.4 7.03-2.86 11.21-1.85 5.3-5.16 6.18-9.55 2.84-1.7-1.3-3.43-2.77-4.61-4.52-7.51-11.14-14.99-22.31-22.17-33.67-1.27-2-1.1-4.91-1.59-7.39 2.49-.27 5.06-1.11 7.45-.72 10.12 1.63 18.72 6.43 26.13 13.45 4.88 4.6 7.03 10.34 7.2 18.8z"/>
</g>
</svg>