<svg enable-background="new 0 0 400 400" viewBox="0 0 400 400" xmlns="http://www.w3.org/2000/svg">
<path d="m172.29 50.89c11.85-2.74 18.46.14 23.39 9.51 5.19 9.85 10.39 19.69 15.51 29.57 2.14 4.13 4.96 5.16 8.75 2.19 8.89-6.97 17.98-13.72 26.52-21.1 5.01-4.33 7.47-10.44 8.55-17.09.85-5.26 3.38-6.58 7.45-3.23 5.35 4.4 10.11 9.57 14.89 14.63 2.91 3.09 2.32 6.07-1.47 8.13-8.32 4.53-16.64 9.04-25.02 13.45-10.28 5.41-20.61 10.72-31.55 16.41 7.81 13.41 15.39 26.41 23.17 39.76 19.43-10.85 36.46-23.29 48.72-41.27 1.67-2.46 2.07-5.85 2.81-8.87.7-2.87 1.65-4.45 5.11-3.29 8.9 2.97 15.52 8.81 21.06 16.09 1.58 2.07 1.39 4-1.15 5.34-3.09 1.63-6.14 3.33-9.23 4.97-20.71 10.98-41.42 21.95-63.04 33.4 5.38 7.17 10.07 13.71 15.07 20.01 14.78 18.63 31.07 35.87 51.77 47.89 13.33 7.74 27.71 13.67 41.61 20.41 5.52 2.68 11.02 5.38 17.74 8.67-2.37.77-3.61 1.44-4.88 1.54-24.13 1.85-48.22 1.31-72.17-2.08-10.33-1.46-18.36-6.8-24.02-16.07-15.72-25.74-28.58-52.89-41.48-80.09-11.46-24.17-23.91-47.9-36.74-71.37-4.32-7.9-11.16-14.41-16.83-21.57-1.43-1.79-2.77-3.62-4.54-5.94z" fill="currentColor"/>
<path d="m120.8 167.64c-5.7-4.5-11.4-8.78-16.86-13.35-5.78-4.85-10.98-10.23-13.23-17.75-1.28-4.27.22-6.02 4.6-5.23 12.95 2.32 24.01 7.69 31.42 21.12 4.34-13.87 8.42-26.23 12.02-38.73 1.78-6.2 2.81-12.63 3.92-19.01.9-5.18-.6-7.26-5.7-6.55-6.67.93-13.39 2.4-19.74 4.63-9.31 3.26-17.9 2.8-26.19-2.52-1.46-.94-2.79-2.09-4.19-3.14.07-.47.13-.93.2-1.4 4.32-.69 8.61-1.7 12.95-2.02 13.28-.99 25.18-5.78 36.22-12.87 6.64-4.26 13.44-4.63 19.55-.11 6.2 4.58 11.71 10.16 17.1 15.71 1.08 1.12 1.2 4.87.18 6.06-10.36 12.11-14.95 26.93-19.85 41.54-8.12 24.19-19.76 46.46-35.35 66.61-15.18 19.62-35.75 31.45-58.82 39.32-7.36 2.51-14.91 4.52-22.43 6.52-2.41.64-5.02.51-7.53.74-.16-.5-.32-1-.49-1.5 3.32-1.99 6.59-4.08 9.98-5.94 17.19-9.44 34.53-18.65 49.65-31.37 13.54-11.39 23.99-25.26 32.59-40.76z" fill="currentColor"/>
</svg>