<svg enable-background="new 0 0 400 400" viewBox="0 0 400 400" xmlns="http://www.w3.org/2000/svg">
<path d="m136.74 153.02c10.21-1.57 19.47-2.95 28.72-4.41 24.58-3.88 49.19-7.56 73.7-11.83 9.6-1.67 18.89-5.01 28.45-7 4.9-1.02 10.28-1.82 15.07-.86 12.59 2.52 23.74 8.49 33.31 17.1 4.92 4.43 5.81 8.86 2.19 13.66-6.11 8.1-7.98 17.57-8.95 27.1-2.11 20.82-3.35 41.72-5.23 62.56-2.18 24.19-4.78 48.36-15.95 70.49-3.51 6.94-7.62 13.62-11.98 20.06-1.37 2.02-4.76 4.31-6.65 3.89-1.88-.42-3.53-3.9-4.45-6.35-4.41-11.78-8.59-23.65-12.71-35.54-1.09-3.13-3.02-3.69-6.06-3.47-14.08.99-28.18 1.94-42.28 2.59-25.25 1.18-50.5 2.2-75.77 3.09-3.44.12-3.5 2.16-3.98 4.44-1.11 5.18-2.1 10.4-3.55 15.49-.43 1.49-2.22 2.6-3.39 3.88-1.12-1.13-2.56-2.09-3.31-3.43-6.07-10.75-7.2-22.7-7.95-34.66-2.34-37.17-6.49-74.08-16.17-110.15-1.61-6.02-4.91-11.57-7.25-17.41-.77-1.91-1.89-4.49-1.17-5.94.58-1.17 3.7-1.62 5.63-1.5 7.95.49 15.87 1.38 23.81 2 8.67.68 14.94-2.04 20.08-10.05 14.3-22.29 28.42-44.62 37.1-69.79 2.2-6.38 2.33-13.55 2.88-20.4.34-4.32 1.71-6.5 6.06-5.76 12.09 2.07 22.15 8.01 29.89 17.49 2.58 3.16 2.66 7.25-1.09 9.7-17.68 11.53-29.46 28.72-42.98 44.24-7.87 9.04-15.63 18.17-23.42 27.28-.73.83-1.34 1.78-2.6 3.49zm-11.68 140.17c11.53-.78 22.31-1.33 33.06-2.26 20.19-1.76 40.36-3.69 60.53-5.65 14.16-1.38 28.28-3.19 39.9 8.24 2.94 2.89 6.71 2.1 9.06-1.35 1.76-2.57 3.3-5.47 4.13-8.45 10.26-36.9 12.73-74.54 9.91-112.57-.65-8.82-3.54-17.24-13.89-19.66-3.21-.75-6.6-1.59-9.82-1.32-19.52 1.61-39.05 3.19-58.5 5.44-21.27 2.46-42.46 5.62-63.67 8.51-7.48 1.02-14.95 2.16-22.6 3.28 2.01 18.92 3.95 37.16 5.95 56.02 10.21-1.4 19.67-2.18 28.89-4.08 19.15-3.94 38.18-8.5 57.27-12.75 8.19-1.82 15.91-1.2 22.21 5.14 3.11 3.13 2.87 5.91-.92 8.08-2.55 1.46-5.41 2.56-8.26 3.32-22.29 5.91-45.17 7.45-68.04 8.84-9.72.59-19.5.1-29.57.1 1.42 20.07 2.86 40.23 4.36 61.12z" fill="currentColor"/>
</svg>