<svg enable-background="new 0 0 400 400" viewBox="0 0 400 400" xmlns="http://www.w3.org/2000/svg">
<path d="m204.8 300.09c-25.52 24.74-53.93 41.7-89.77 42.16-.33-.7-.66-1.41-.99-2.11 2.43-1.11 4.83-2.32 7.3-3.32 24.15-9.79 46.56-22.16 63.59-42.56 2.33-2.79 4.49-5.73 6.87-8.78-11-10.6-21.78-20.99-32.57-31.37-4.8-4.61-9.21-9.76-14.54-13.66-5.69-4.16-12.25-7.15-18.44-10.62-1.94-1.09-3.94-2.09-6.01-3.18 6.37-8.48 21.98-8.43 29.76-.7 12.05 11.96 24.21 23.8 36.41 35.59 3.82 3.69 7.91 7.09 12.91 11.53 2.31-7.64 4.97-14.4 6.34-21.41 2.37-12.2 4.08-24.53 5.77-36.85.94-6.88-.98-9.01-7.69-7.59-9.23 1.94-18.33 4.62-27.36 7.37-7.96 2.43-15.38 1.96-22.39-2.63-1.01-.66-1.81-1.65-3.83-3.53 9.68-2.08 18.11-3.89 26.62-5.72 0-21.69 0-42.97 0-64.17-20.28 3.37-40.38 6.71-61.61 10.24 0 7.21.18 14.79-.03 22.36-.6 20.95-.65 41.95-2.25 62.83-2.17 28.34-7.84 55.93-23.69 80.36-10.3 15.87-24.5 27.47-40.79 36.7-1.22.69-2.65 1-3.98 1.49-.3-.32-.61-.64-.91-.97 2.03-2.66 3.79-5.58 6.13-7.93 27.87-27.93 40.09-62.89 45.31-100.94 3.68-26.84 3.59-53.72-.16-80.54-1.52-10.88-4.34-21.44-10.06-31.08-1.23-2.08-1.13-4.95-1.64-7.45 2.34-.27 4.84-1.22 6.98-.69 4.94 1.22 10.35 2.21 14.4 5 10.46 7.22 21.8 8.73 33.77 6.79 11.77-1.91 23.42-4.54 35.12-6.88 2.23-.45 3.83-1.21 3.69-4.17-.81-17.27-.75-34.61-2.44-51.79-.72-7.3-5.05-14.23-7.56-21.39-.83-2.36-1.1-4.92-1.62-7.38 2.39-.37 5.01-1.58 7.12-.98 8.91 2.51 17.85 5.11 26.43 8.57 6.51 2.62 6.72 6.8 5.13 13.48-2.95 12.36-4.96 24.97-6.89 37.55-1 6.53-.99 13.22-1.49 20.61 4-.92 7.37-1.47 10.6-2.48 13.45-4.2 26.86-8.51 40.25-12.88 1.86-.61 3.77-1.53 5.24-2.79 6.61-5.71 14.29-5.96 21.59-2.9 9.77 4.1 19.08 9.31 28.42 14.38 1.8.98 3.94 3.54 3.81 5.21-.13 1.59-2.78 3.7-4.72 4.31-16.44 5.2-29.57 15.62-42.62 26.27-3.61 2.95-7.59 5.43-11.41 8.13-.47-.4-.93-.8-1.4-1.2.95-2.17 1.93-4.32 2.84-6.5 3.08-7.32 6.7-14.48 9.06-22.03 2.29-7.34.39-9.79-7.1-8.56-12.89 2.12-25.6 5.34-38.38 8.17-3.24.72-6.36 2.13-9.62 2.5-5.48.62-7.16 3.27-7.26 8.73-.35 17.63-1.29 35.24-1.99 52.86-.05 1.31-.01 2.63-.01 4.74 4.81-2.26 9.37-3.87 13.36-6.39 7.42-4.7 14.71-4.53 22.16-.55 3.95 2.11 7.87 4.31 11.6 6.79 3 1.99 4.48 5.31 1.88 8.13-8.76 9.53-10.08 21.7-12.86 33.44-3.02 12.73-5.95 25.51-9.85 37.99-1.67 5.35-.4 7.99 3.57 11.22 21.9 17.81 46.66 30.12 73.62 37.84 16.71 4.78 33.82 8.11 50.73 12.21 3.1.75 6.05 2.08 9.08 3.14.02.7.04 1.4.06 2.1-4.94 1.28-9.81 3.02-14.83 3.77-16.74 2.53-33.47 5.3-50.32 6.83-14.65 1.33-27.26-4.83-38.32-14.11-15.3-12.84-30.49-25.82-45.73-38.73-.75-.67-1.56-1.24-2.39-1.88z" fill="currentColor"/>
</svg>