<svg enable-background="new 0 0 400 400" viewBox="0 0 400 400" xmlns="http://www.w3.org/2000/svg">
<path d="m120.09 255.95c-1.03-5.95-1.91-12.15-3.18-18.26-3.94-19.01-7-38.28-12.42-56.86-3.38-11.6-10.46-22.11-15.76-33.16-1.38-2.87-2.33-5.94-3.47-8.92 3.47-.53 7-1.77 10.39-1.46 9.25.83 18.45 3.4 27.65 3.29 14.93-.17 29.87-1.59 44.75-3.11 18.17-1.85 36.31-4.13 54.41-6.61 18.72-2.56 37.69-4.01 55.31-11.93 5.79-2.6 11.85-1.18 17.5 1.07 10.67 4.26 19.91 10.72 27.67 19.19 4.67 5.1 5.13 11.35-.05 15.45-10.09 8-14.85 19.11-18.93 30.48-6.67 18.58-12.49 37.47-18.64 56.24-.3.91-.27 1.93-.47 3.5 9.88-.55 19.44-1.25 29.02-1.57 11.6-.39 23.34-2.06 34.68 1.76 8.5 2.86 15.41 7.84 18.77 16.6 2.53 6.6.53 9.85-6.49 9.39-9.09-.59-18.19-1.66-27.19-3.12-22.99-3.74-46.16-3.51-69.27-2.7-32.9 1.16-65.83 2.55-98.63 5.21-26.44 2.15-52.72 6.31-79.07 9.62-1.47.18-2.95.53-4.34 1.04-16.53 6.02-29.07-1.07-40.24-12.34-1.34-1.35-1.78-3.6-2.63-5.44 1.84-.5 3.65-1.32 5.52-1.46 24.54-1.78 49.08-3.47 73.62-5.2.3.01.59-.25 1.49-.7zm101.55-6.7c15.19-1.52 29.49-2.96 43.96-4.41.47-2.18.95-4.08 1.28-6.01 3.3-18.78 6.77-37.54 9.77-56.37 1.78-11.13 3.23-22.35 4.02-33.58.54-7.7-3.27-11.21-10.9-10.72-10.43.67-20.83 1.84-31.21 3.06-2.57.3-5.02 1.6-7.52 2.45.74-.36 1.47-.72 2.21-1.09 3.71 4.69 7.5 9.32 11.09 14.11 2.33 3.11 2.42 6.21-.2 9.51-2.03 2.56-3.89 5.45-5.02 8.5-8.76 23.77-12.39 48.75-17.48 74.55zm-53.51-98.27c12.55 32.64 13.59 65.94 12.94 99.64 8.21-.38 15.82-.58 23.39-1.25 1.26-.11 3.17-2.21 3.37-3.6 3.41-23.65 6.89-47.29 9.68-71.02.82-6.99-.09-14.25-.84-21.32-.45-4.25-2.71-7.05-8.06-6.42-13.34 1.58-26.74 2.66-40.48 3.97zm-45.18 4.66c.2 2.23.28 3.88.51 5.51 1.52 10.85 3.18 21.67 4.58 32.53 2.49 19.27 4.86 38.56 7.19 57.85.34 2.77 1.56 3.66 4.27 3.35 5.12-.57 10.27-.88 15.41-1.36 4.76-.44 9.52-.96 14.61-1.49-.47-1.91-.92-3.29-1.15-4.71-2.19-13.91-4.84-27.77-6.37-41.76-1.38-12.55-1.44-25.23-2.27-37.84-.32-4.88-1.16-9.73-1.8-14.87-11.9.95-23.13 1.84-34.98 2.79z" fill="currentColor"/>
</svg>