<svg enable-background="new 0 0 400 400" viewBox="0 0 400 400" xmlns="http://www.w3.org/2000/svg">
<path d="m163.95 320.76c4.14.51 8.29 1.05 12.43 1.52 5.11.58 10.22 1.47 15.34 1.58 9.97.22 14.53-2.97 16.88-12.66 1.95-8.03 3.71-16.3 3.93-24.51.57-21.43.9-42.91.01-64.31-.41-9.91-3.89-19.7-5.97-29.55-.6-.08-1.19-.16-1.79-.24-2.21 2.96-4.47 5.89-6.63 8.89-24.83 34.47-54.89 63.32-91.69 84.82-13.26 7.75-27.25 13.86-42.36 17.09-1.55.33-3.14.51-4.72.75-.22-.38-.44-.76-.66-1.13 1.95-1.6 3.76-3.4 5.87-4.76 11.88-7.66 24.37-14.5 35.67-22.92 32.8-24.45 61.51-52.97 83.36-87.87 2.32-3.71 3.79-7.96 6.13-12.99-10.68 1.77-20.2 3.07-29.6 4.96-19.83 3.98-39.56 8.53-59.43 12.31-12.66 2.41-24.56.15-34.43-8.91-1.68-1.54-3-3.45-5.4-6.25 2.89-.71 4.76-1.44 6.67-1.6 27.32-2.34 54.69-4.23 81.96-7 25.29-2.56 50.51-5.82 75.7-9.19 23.69-3.17 47.88-4.76 70.77-11.01 18.18-4.97 30.53.83 42.93 11.52 3.39 2.92 6.64 6.13 9.35 9.67 3.14 4.09 2.37 7.42-2.19 9.91-3.3 1.8-6.96 3.11-10.61 4.03-14.21 3.6-26.36 10.8-37.17 20.52-2.38 2.14-5.11 3.9-7.68 5.84-.56-.37-1.12-.74-1.68-1.12 1.69-4.54 3.35-9.1 5.07-13.63 2.64-6.96 5.76-13.78 7.88-20.9 2.05-6.9-.71-10.35-8.22-10.43-7.63-.08-15.3.34-22.89 1.15-19.48 2.09-38.93 4.52-58.39 6.83-.77.09-1.51.4-2.1.57 4.28 7.16 9 13.82 12.45 21.08 8.87 18.68 13.06 38.63 14.42 59.2 1.58 23.83.56 47.54-4.13 70.97-2.41 12.02-7.24 23.15-15.32 32.63-6.32 7.41-11.56 7.36-17.29-.3-8.23-11-19.21-18.79-30.31-26.5-2.56-1.78-4.73-4.12-7.08-6.2.32-.61.62-1.23.92-1.86z" fill="currentColor"/>
<path d="m214.75 128.79c9.85-16.29 19.48-32.17 29.02-48.09.74-1.24.87-2.84 1.31-4.27 1.15-3.74-.38-5.67-4.12-5.2-9.87 1.25-19.89 1.99-29.51 4.36-14.94 3.67-29.66 8.28-44.32 12.98-7.64 2.45-14.71 1.64-21.81-1.36-6.43-2.72-12.4-6.12-18.35-12.72 3.89-.72 6.41-1.5 8.97-1.6 10.96-.43 22.02.08 32.89-1.11 25.11-2.76 49.75-8.03 73.75-16.04.16-.05.34-.08.47-.18 10.52-7.97 20.59-4.08 30.08 1.78 6.3 3.89 12.26 8.57 17.65 13.66 5.22 4.93 3.82 8.84-3.04 11.92-6.03 2.71-12.75 4.7-17.73 8.76-16.5 13.43-32.4 27.62-48.38 41.67-.94.83-.78 3.08-.86 4.68-.26 5.03.36 10.23-.75 15.05-1.32 5.72-5.55 7.27-10.22 3.68-8.02-6.17-15.75-12.81-23-19.88-5.69-5.54-10.55-11.95-15.55-18.16-1-1.24-.97-3.32-1.41-5.02 1.55-.37 3.13-1.15 4.65-1.05 14.52.98 27.36 6.41 40.26 16.14z" fill="currentColor"/>
</svg>