<svg enable-background="new 0 0 400 400" viewBox="0 0 400 400" xmlns="http://www.w3.org/2000/svg">
<path d="m55.89 334.19c7.08-3.12 14.14-6.3 21.24-9.37 35.64-15.38 64.61-38.37 82.52-73.48 5.23-10.25 8.95-21.28 13.35-31.95-.46-.37-.93-.73-1.39-1.1-12.69 2.13-25.36 4.4-38.07 6.36-14.74 2.28-29.47 4.94-44.31 6.18-8.95.75-17.21-3.32-24.22-9.11-1.41-1.16-2.16-3.12-3.21-4.71 1.67-.79 3.28-2.15 5-2.29 12.41-1.06 24.87-1.61 37.26-2.84 19.67-1.95 39.29-4.31 58.94-6.51.49-.06.97-.27 1.47-.3 11.61-.77 9.22.06 11.34-11.36 2.47-13.3 3.28-26.7.37-40.14-.56-2.61-1.66-3.36-4-4.01-9.34-2.58-18.61-5.44-29.05-8.54-15.29 11.95-29.94 28.39-51.38 34.37-.43-.48-.87-.97-1.3-1.45 2.23-2.47 4.22-5.2 6.71-7.37 27.77-24.21 48.93-53.38 64.91-86.4 3.49-7.21 5.45-14.79 4.2-23.17-1.19-7.95 2.47-10.53 9.77-7.18 6.62 3.03 13.14 6.43 19.23 10.39 6.28 4.09 5.98 8.19 1.42 14.06-14.35 18.48-28.35 37.23-42.91 56.42 8.25 3.21 15.47 2.11 22.21.58 21.51-4.89 42.78-10.8 64.3-15.65 8.16-1.84 16.72-2.33 25.11-2.52 3.35-.08 7.09 1.81 10.06 3.71 4.72 3.03 4.59 6.5-.37 8.99-4.54 2.28-9.46 4.06-14.41 5.22-21.96 5.18-44 10.06-66 15.06-.91.21-1.79.54-4.34 1.33 13.65 4.64 12.48 13.1 9.51 23.37-2.75 9.47-3.31 19.58-5 30.46 7.21-1.02 13.75-1.67 20.17-2.91 23.45-4.53 46.79-9.7 70.33-13.69 9.03-1.53 18.51-1.09 27.73-.58 7.84.43 13.91 5.15 18.87 11.05 3.1 3.68 2.51 6.14-2.22 7.04-8.79 1.66-17.68 3.07-26.59 3.83-34.11 2.92-68.25 5.52-102.38 8.29-2.46.2-4.9.76-8.04 1.26 40.01 59.44 91.6 102.18 163.4 117.25-.12.69-.25 1.38-.37 2.07-3.5 1.05-6.94 2.42-10.52 3.1-18.7 3.55-37.61 4.6-56.62 4.05-16.73-.48-30.08-7.07-39.39-21.43-15.02-23.17-30.28-46.19-45.39-69.3-4.16-6.36-8.16-12.82-12.76-20.08-24.39 62.12-65.42 101.66-134.6 104.45-.19-.49-.38-.97-.58-1.45z" fill="currentColor"/>
</svg>