<svg enable-background="new 0 0 400 400" viewBox="0 0 400 400" xmlns="http://www.w3.org/2000/svg">
<g fill="currentColor"><path d="m192.66 180.2c-28.79 4.39-55.81 8.79-82.92 12.53-12.65 1.75-25.46 2.86-38.22 3.13-11.5.24-20.28-6.69-28.35-14.05-2.95-2.69-.91-4.53 2.16-4.84 5.12-.52 10.29-.56 15.42-.98 28.32-2.28 56.67-4.25 84.94-7.04 26.11-2.58 52.15-5.94 78.19-9.16 24.71-3.06 49.36-6.65 74.09-9.47 13.18-1.5 26.51-2.6 39.54 1.61 8.16 2.64 14.83 7.41 20.23 14 3.19 3.9 2.44 7.19-2.53 7.92-7.36 1.08-14.88 1.42-22.33 1.46-27.61.17-55.23-.11-82.84.18-12.94.14-25.87 1.22-40.04 1.93 1.94 2.06 3.35 3.49 4.69 5 5.1 5.75 8.46 11.71 4.94 19.88-1.45 3.36-1.63 7.53-1.47 11.29 1.14 27.41 2.71 54.8 3.73 82.21.76 20.54-.98 40.64-14.23 57.8-1.32 1.7-2.74 3.38-4.36 4.79-3.59 3.12-6.84 2.77-9.01-1.4-6.42-12.33-16.97-20.76-27.16-29.59-4.42-3.83-8.58-7.97-12.86-11.96.36-.62.71-1.24 1.07-1.86 5.35 1.27 10.67 2.65 16.04 3.8 6.13 1.31 12.29 2.47 18.46 3.57 3.92.7 6.03-1.51 6.69-5.03.93-5.05 2.2-10.17 2.18-15.26-.12-29.26-.17-58.53-1.14-87.77-.36-10.79-3.16-21.5-4.91-32.69z"/><path d="m179.28 106.24c-18.19.22-30.37-.79-41.36-7.32-1.57-.93-2.64-2.7-3.94-4.08 1.78-.97 3.47-2.49 5.36-2.83 32.95-6.05 65.89-12.1 98.9-17.8 10.17-1.76 20.54-2.41 30.64.77 3.12.98 6.2 2.43 8.91 4.24 3.62 2.43 3.66 5.39-.23 7.32-5.3 2.63-10.91 4.98-16.64 6.37-28.74 6.98-57.88 11.57-81.64 13.33z"/><path d="m339.08 279.25c-1.06 3.97-1.7 8.11-3.28 11.87-2.38 5.68-6.61 7.09-11.65 3.55-6.37-4.47-12.73-9.2-18.2-14.7-12.55-12.62-24.56-25.77-36.77-38.72-.9-.96-1.73-2.04-2.38-3.18-2.36-4.15-1.18-6.53 3.64-6.16 18.6 1.43 36.49 5.65 52.17 16.26 9.45 6.39 15.67 19.5 16.47 31.08z"/><path d="m115.91 225.15c5.4 4.95 5.46 10.71 6.04 15.94 2.63 23.61-5.36 44.04-19.5 62.49-.4.53-.83 1.04-1.28 1.53-6.73 7.18-11.76 6.16-15.23-3.11-3.76-10.05-2.89-19.63 3.49-28.34 8.6-11.73 15.18-24.49 20.61-37.93 1.42-3.56 3.71-6.76 5.87-10.58z"/>
</g>
</svg>