<svg enable-background="new 0 0 400 400" viewBox="0 0 400 400" xmlns="http://www.w3.org/2000/svg">
<path d="m226.96 152.12c-2.5.49-5.09.71-7.49 1.52-17 5.74-33.92 11.67-50.93 17.38-12.38 4.16-23.46 1.02-31.92-8.82-.89-1.04-1.43-2.38-1.99-3.34 16.38-3.41 32.34-6.4 48.12-10.1 16.33-3.83 32.59-8.12 46.93-17.44 1.4-.91 3.09-1.55 4.15-2.75 5.48-6.21 11.96-5.46 18.08-1.96 6.42 3.67 12.35 8.25 18.28 12.72 1.98 1.49 3.03 4.06-.32 5.47-15.55 6.56-23.55 20.34-32.7 33.25-6 8.47-10.11 16.32-2.42 25.73.4.48.53 1.19.69 1.57 13.97-1.13 27.28.89 39.85 6.52 10.44 4.68 14.58 13.72 14.64 24.67.04 8.86-4.61 11.79-12.03 7.1-6.55-4.15-12.43-9.41-18.33-14.51-7.65-6.62-15.03-13.57-22.56-20.41 1.45 27.39-2.07 54.21-2.76 81.12-.48 18.79-1.98 37.48-7.13 55.68-.63 2.22-1.34 4.48-2.44 6.5-2.23 4.11-5.04 4.31-7.4.25-6.13-10.57-9.69-22.08-8.44-34.3 1.03-10.02 3.85-19.83 5.43-29.81 4.26-26.96 6.76-54.06 5.44-82.83-28.1 36.89-57.16 71.19-100.41 89.57 44.52-40.91 80.53-88.16 108.64-141.39-.32-.46-.65-.92-.98-1.39z" fill="currentColor"/>
<path d="m209.45 55.74c13.86-.19 27.76-.11 40.7 5.97 9.02 4.24 13.9 15.51 11.68 25.25-1.24 5.45-4.73 7.89-9.92 5.58-5.84-2.59-11.59-5.83-16.57-9.79-7.78-6.18-14.94-13.15-22.24-19.93-1.74-1.62-2.96-3.79-4.42-5.71.25-.46.51-.92.77-1.37z" fill="currentColor"/>
</svg>