<svg enable-background="new 0 0 400 400" viewBox="0 0 400 400" xmlns="http://www.w3.org/2000/svg">
<path d="m249.06 305.61c6.79 1.26 13.57 2.62 20.39 3.75 3.42.57 6.95 1.24 10.36.98 6.88-.53 12.47-5.83 13.89-13.71 1.51-8.31 3.04-16.79 2.96-25.19-.24-27.62-.79-55.25-2.05-82.83-.58-12.72-2.79-25.39-4.8-38-2.32-14.55-8-19.58-22.77-19.41-13.12.15-26.23 1.28-39.33 2.28-7.44.57-14.83 1.9-22.27 2.55-2.91.25-4.42 1.22-5.22 4.08-6.92 24.77-14.04 49.48-20.89 74.26-2.48 8.99.65 12.44 9.84 10.43 13.74-3 27.33-6.66 41.54-10.18-6.98-13.81-16.05-25.78-21.29-40.9 2.62.27 4.44-.06 5.65.65 18.97 11.02 37.36 22.79 47.09 43.7 4.13 8.87 4.79 17.99-.61 26.72-3.93 6.37-7.76 6.65-12.22.64-5.04-6.8-9.64-13.92-14.9-21.58-14.3 5.9-28.92 11.74-43.37 17.95-12.39 5.32-24.44 11.2-34.77 20.24-6.03 5.28-10.73 3.92-13.32-3.58-3.71-10.74-3.81-20.5 5.13-29.9 6.36-6.69 11.73-15.24 14.85-23.93 7.73-21.49 13.91-43.53 21.12-66.66-9.53.94-17.21 1.56-24.86 2.49-14.67 1.78-29.3 3.98-44 5.48-4.82.49-5.93 2.23-5.89 6.77.36 37.14 1.29 74.3.37 111.41-.5 20.16-4.09 40.27-6.74 60.34-.57 4.31-2.72 8.54-4.77 12.48-2.38 4.59-5.49 4.58-8.14.07-5.88-10.01-8.48-21.07-7.42-32.48 1.2-12.85 3.89-25.56 5.47-38.38 1.28-10.38 2.3-20.83 2.67-31.28.6-16.96 1.08-33.95.68-50.91-.4-17.07-.87-34.27-8.43-50.26-.92-1.95-.21-4.68-.26-7.04 2.23.04 4.57-.35 6.66.19 12.34 3.22 24.38 7.63 37.57 6.15 19.45-2.18 38.94-3.93 59.42-5.97 2.23-19.25 4.45-38.01 6.57-56.77.89-7.83.45-15.48-2.6-22.95-1.7-4.18-.03-6.26 4.51-5.33 10.03 2.06 19.42 5.91 27.34 12.57 3.84 3.23 2.94 7.33.97 11.35-9.15 18.62-13.44 38.8-19.21 59.4 7.45-.86 14.36-1.46 21.21-2.49 14.28-2.16 29.06-2.88 42.65-7.24 17.98-5.77 32.14.68 46.42 9.38 6 3.66 8.08 9.14 5.52 16.98-6.79 20.83-4.91 42.08-3.89 63.32.67 13.96 1.42 27.91 2.16 41.86.59 11.12 1.61 22.24 1.72 33.37.22 22.33-1.12 44.4-16.51 62.63-2.56 3.03-5.38 5.94-8.51 8.34-3.5 2.69-6.9 1.66-9.45-1.87-.87-1.21-1.74-2.49-2.26-3.86-5.01-13.33-14.36-22.97-25.85-30.88-3.18-2.19-6.07-4.8-9.09-7.22.33-.67.65-1.34.96-2.01z" fill="currentColor"/>
</svg>