<svg enable-background="new 0 0 400 400" viewBox="0 0 400 400" xmlns="http://www.w3.org/2000/svg">
<path d="m357.09 294.68c-6.6 1.11-13.15 2.6-19.8 3.25-10.75 1.05-21.59 1.2-32.33 2.34-18.45 1.94-32.79-5.75-44.57-18.85-22.48-25.01-44.59-50.34-66.87-75.52-1.72-1.95-3.52-3.82-6.35-6.88v6.68c-.06 33.99.38 67.99-.39 101.97-.35 15.38-2.79 30.74-4.95 46.01-.52 3.66-3.65 6.96-5.58 10.42-2.73-2.63-6.19-4.82-8.07-7.96-7.14-11.94-8.88-24.53-4.91-38.27 2.51-8.69 3.88-17.91 4.29-26.97 1.41-31.41 2.18-62.85 3.19-94.28-.5-.12-.99-.25-1.49-.37-2.66 4.62-5.3 9.25-7.99 13.84-25.12 42.85-58.13 78.07-100.68 104.04-3.66 2.24-7.68 3.89-11.58 5.72-.69.32-1.59.18-3.26-.75 4.38-4.54 8.52-9.33 13.16-13.58 37.96-34.72 68.64-75.04 93.11-120.19 2.04-3.77 4.04-7.56 6.65-12.44-10.19 2.49-19.29 4.67-28.37 6.94-13.51 3.37-26.94 7.89-41.03 6.96-7.48-.5-14.87-3.01-22.19-5.01-1.61-.44-2.78-2.52-4.16-3.84 1.53-1.07 2.94-2.79 4.62-3.12 9.27-1.82 18.64-3.16 27.92-4.93 24.27-4.65 48.51-9.43 73.3-14.27-1.79-19.55-2.37-38.09-11.27-55.03-16.14 3.97-31.92 7.84-47.69 11.72-.24-.69-.48-1.38-.72-2.07 3.24-1.76 6.38-3.72 9.73-5.24 22.61-10.31 44.29-22.23 64.38-36.93 6.79-4.96 13.02-10.35 14.13-19.62.16-1.36 2.78-3.09 4.51-3.44 1.95-.39 4.53.01 6.22 1.06 10.13 6.27 20.17 12.71 30 19.43 1.59 1.09 2.01 3.89 2.98 5.9-2 .95-3.95 2.57-6.01 2.74-22.53 1.76-42.5 11.33-64.03 20.28 2.79 1.55 4.76 2.48 6.56 3.67 3.33 2.19 6.75 4.31 9.79 6.87 2.75 2.32 3.75 4.88 2.32 9.11-1.86 5.54-2.2 11.68-2.57 17.6-.4 6.29-.09 12.62-.09 19.87 6.77-1.4 13.06-2.38 19.18-4.02 20.5-5.48 40.94-11.22 61.41-16.8 11.55-3.15 21.73-.09 30.69 7.37 4 3.33 3.64 6.33-1.47 7.99-6.89 2.24-14.1 3.6-21.25 4.93-28.06 5.21-56.15 10.26-84.23 15.39-1.28.23-2.51.73-4.16 1.23 0 5.65-.15 11.3.11 16.92.07 1.42 1.17 3.1 2.28 4.12 30.27 27.9 61.44 54.69 96.93 75.89 19.28 11.52 40.75 17.7 62 24.33 3 .93 5.84 2.37 8.76 3.58-.04.75-.1 1.48-.16 2.21z" fill="currentColor"/>
</svg>