<svg enable-background="new 0 0 400 400" viewBox="0 0 400 400" xmlns="http://www.w3.org/2000/svg">
<g fill="currentColor"><path d="m100.31 154.79c-3.84 14.69-8.44 29.29-17.81 41.74-3.17 4.22-7.03 7.97-10.92 11.57-3.04 2.8-6.89 4.52-10.97 2.29-4.1-2.24-5.78-6.38-4.84-10.67 1.16-5.27 2.96-10.52 5.31-15.37 4.21-8.67 9.74-16.75 13.41-25.62 3.12-7.55 4.41-15.87 6.49-23.85.29-1.12.44-2.28.74-3.39 1.17-4.37 2.73-4.9 5.94-1.53 2.97 3.11 5.78 6.46 8.17 10.02 1.95 2.9 3.98 4.54 7.66 4.05 13.8-1.84 27.68-3.19 41.42-5.37 23.11-3.66 46.24-7.36 69.18-11.93 16.22-3.23 32.13-8.04 48.24-11.87 3.44-.82 7.56-1.52 10.71-.41 15.8 5.58 28.74 15.38 38.09 29.28 5.26 7.81 3.22 11.09-6.11 11.31-20.4.47-39.7 5.69-58.47 13.31-1.69.68-3.41 1.28-5.15 1.81-.59.18-1.27.03-2.94.03 2.22-2.74 3.82-4.96 5.67-6.94 3.29-3.53 7-6.71 10.03-10.44 2.47-3.06 4.72-6.51 6.14-10.15 2.49-6.39.07-9.99-6.65-9.37-15.36 1.41-30.72 3.06-45.98 5.3-24.29 3.56-48.49 7.78-72.76 11.53-11.28 1.75-22.66 3.07-34.6 4.67z"/><path d="m357.33 321.95c-4.99.68-9.97 1.79-14.98 1.96-17.44.58-34.9 1.18-52.35 1.08-10.36-.06-19.84-4.03-26.25-12.35-16.54-21.45-32.48-43.36-48.81-64.96-12.13-16.04-24.49-31.91-36.74-47.86-.77-1-1.48-2.06-2.61-3.64 9.62-1.21 18.15-1.57 24.38 6.83 8.92 12.02 18.07 23.87 26.9 35.95 17.8 24.33 41.76 41.13 67.45 55.96 15.39 8.88 32.13 14.26 48.79 19.94 4.9 1.67 9.68 3.71 14.51 5.58-.1.51-.2 1.01-.29 1.51z"/><path d="m121.91 211.17c7.66-.76 28.68 10.23 32.04 16.62-17.19 20.49-33.85 41.6-51.9 61.44-14.06 15.45-32.41 25.22-51.89 32.64-1.08.41-2.21.72-3.33 1.01-.28.07-.63-.1-2.19-1.36 2.13-1.65 4.38-3.16 6.36-4.98 12.07-11.15 25.11-21.48 35.81-33.82 10.26-11.84 18.34-25.63 26.88-38.88 6.35-9.85 8.93-20.98 8.22-32.67z"/><path d="m198.18 88.71c-.76 2.75-1.6 7.54-3.43 11.92-2.57 6.13-7.03 7.25-12.41 3.31-2.91-2.13-5.72-4.71-7.81-7.63-7.25-10.11-14.5-20.25-21.08-30.79-3.8-6.09-1.61-9.29 5.48-8.5 10.66 1.19 20.78 4.38 29.56 10.83 6.28 4.62 9.45 10.99 9.69 20.86z"/>
</g>
</svg>