<svg enable-background="new 0 0 400 400" viewBox="0 0 400 400" xmlns="http://www.w3.org/2000/svg">
<g fill="currentColor"><path d="m216.66 292.01c31.98-3.7 62.79-7.58 93.68-10.72 14.77-1.5 29.78-1.69 43.24 6.19 3.86 2.26 7.41 5.68 9.99 9.35 2.85 4.05 1.08 7.71-3.94 8.1-7.56.59-15.22.33-22.82.03-12.62-.49-25.26-2.22-37.84-1.78-32.4 1.12-64.82 2.59-97.15 4.94-38.8 2.83-76.98 10.12-115.13 17.57-11.97 2.34-22.51-2.8-32.17-9.5-2.71-1.88-5.24-4.11-7.53-6.49-1.98-2.05-1.48-4.05 1.42-4.8 2.07-.53 4.24-.87 6.37-.94 21.12-.75 42.3-.64 63.33-2.34 24.65-1.99 49.18-5.52 73.77-8.4 2.64-.31 5.29-1.13 7.89-.97 4.76.3 6.56-2.32 8.04-6.25 9.09-24.09 18.43-48.09 27.48-72.2 3.31-8.82 4.08-18.09 3.69-27.5-.31-7.47 2.76-9.77 9.45-6.26 7.89 4.13 15.47 9 22.64 14.28 4.46 3.29 4.56 8.04.57 11.09-10.65 8.15-16.98 19.57-23.61 30.65-10.32 17.26-19.94 34.94-29.85 52.45-.37.69-.63 1.46-1.52 3.5z"/><path d="m118.68 162.59c3.1-.86 6.16-2.26 9.31-2.51 28.06-2.23 55.36-8.61 82.68-14.91 16.8-3.88 33.52-8.12 50.39-11.7 10.39-2.21 20.88-1.74 30.7 2.83 2.45 1.14 4.22 3.76 6.3 5.7-2.03 2-3.74 5.11-6.14 5.79-10.96 3.11-22.04 5.96-33.22 8.13-24.72 4.8-49.52 9.25-74.32 13.64-11.88 2.1-23.79 4.48-35.79 5.38-9.39.7-18.24-3.09-26.52-7.53-1.36-.73-2.41-2.04-3.6-3.09.07-.58.14-1.15.21-1.73z"/><path d="m236.01 95.02c-.28 1.26-.62 3.92-1.5 6.4-1.64 4.58-5.53 7.05-9.81 4.9-11.38-5.72-22.71-11.71-33.4-18.61-6.05-3.9-11.03-9.59-16.07-14.87-4.07-4.26-2.93-7.02 2.83-8.01 11.83-2.05 23.17.29 34.09 4.59 5.37 2.12 10.56 4.92 15.44 8.03 5.43 3.47 8.36 9.87 8.42 17.57z"/><path d="m178.22 242.74c-1.84 5.27-3.27 10.73-5.64 15.75-2.53 5.38-6.39 5.83-9.85 1.04-4.65-6.45-8.98-13.21-12.65-20.26-4.59-8.8-8.5-17.97-12.4-27.11-.64-1.5-.36-4.44.68-5.33 1.09-.92 3.84-.73 5.45-.05 10.2 4.33 19.4 10.26 27.04 18.37 4.51 4.82 6.9 10.54 7.37 17.59z"/>
</g>
</svg>