<svg enable-background="new 0 0 400 400" viewBox="0 0 400 400" xmlns="http://www.w3.org/2000/svg">
<path d="m242.33 315.74c2.28.52 4.59.92 6.82 1.6 4.28 1.31 8.43 3.09 12.76 4.12 7.57 1.8 11.79-.91 13.29-8.53.9-4.54 1.57-9.22 1.54-13.83-.15-20.97.25-41.99-1.18-62.88-1.28-18.62-4.7-37.09-7.11-55.14-9.8-1.13-18.32-2.3-26.89-2.93-1.55-.11-3.61 1.71-4.85 3.15-9.09 10.6-17.92 21.44-27.1 31.96-2.43 2.78-5.8 4.73-8.74 7.06-.47-.32-.95-.64-1.42-.96.96-2.67 1.63-5.49 2.94-7.97 7.21-13.68 15.14-27.01 21.77-40.97 12.83-27 25.05-54.28 33.04-83.23 2.75-9.96 3.56-19.86 1.42-30.05-1.33-6.31.99-8.34 6.78-6 7.54 3.05 15.07 6.23 22.26 10.02 7.27 3.83 7.31 6.81 3.45 13.97-6.7 12.44-12.77 25.21-19.12 37.84-8.36 16.64-16.73 33.27-25.1 49.9-1.38 2.74-2.76 5.48-4.15 8.22.3.43.6.87.9 1.3 16.01-4.68 32.04-9.29 48.02-14.08 13.98-4.19 27.81-8.92 41.88-12.78 8.4-2.3 16.9-1.66 24.36 3.64 5.86 4.16 5.79 9.08-.89 11.47-9.78 3.5-19.91 6.23-30.09 8.34-16.88 3.5-33.93 6.24-50.9 9.32-.63.11-1.22.43-2.38.86 5.65 3.31 10.94 6.25 16.07 9.44 8.08 5.02 7.52 5.95 7.07 15.19-.94 18.91-.96 37.88-1.02 56.83-.08 23.93.67 47.87.06 71.78-.28 10.81-6.54 19.77-14.11 27.35-4.07 4.08-8.09 3.46-9.7-1.62-4.14-13.08-13.2-22.51-22.49-31.87-2.85-2.87-5.42-6.03-8.11-9.05.29-.49.6-.98.92-1.47z" fill="currentColor"/>
<path d="m45.96 243.1c2.44-2.91 4.83-5.86 7.33-8.71 21.13-24.01 38.03-50.89 52.68-79.17 8.24-15.91 15.77-32.22 23.09-48.58 4.11-9.19 5.37-19.1 5.01-29.26-.32-8.9 2.41-10.77 10.42-6.87 6.24 3.04 12.29 6.67 17.86 10.8 5.27 3.91 4.76 7.38 1.3 12.86-8.6 13.62-16.6 27.61-25.05 41.33-10.8 17.55-21.8 34.98-32.72 52.46-.43.69-.85 1.38-2.18 3.54 7.9-1.56 14.73-2.27 21.14-4.31 16.6-5.3 32.93-11.45 49.53-16.72 5.61-1.78 11.71-2.33 17.63-2.71 4.47-.28 8.95 1.16 10.12 6.29 1.12 4.94-2.77 7.56-6.41 8.91-12.59 4.66-25.34 8.9-38.11 13.07-4.37 1.43-8.96 2.19-13.98 3.38 1.07 1.31 1.76 2.4 2.67 3.25 8.94 8.25 9.47 18.87 8.69 29.96-1.7 24.2-3.03 48.42-5.07 72.59-.69 8.2-2.82 16.32-4.85 24.33-.61 2.4-3.11 4.33-4.74 6.48-1.72-1.88-3.91-3.5-5.07-5.68-6.52-12.28-5.65-25.07-3.17-38.33 4.26-22.82 4.58-45.94 3.05-69.08-.38-5.8-.92-11.6-1.21-17.4-.13-2.5-1.1-3.25-3.62-3.53-9.06-.99-18.07-2.51-27.14-3.39-1.62-.16-3.86 1.38-5.1 2.77-11.4 12.85-23 25.48-37.12 35.43-4.36 3.07-9.24 5.4-13.89 8.07-.35-.6-.72-1.19-1.09-1.78z" fill="currentColor"/>
</svg>