<svg enable-background="new 0 0 400 400" viewBox="0 0 400 400" xmlns="http://www.w3.org/2000/svg">
<path d="m187.51 224.3c14.46-3.49 27.8-6.81 41.18-9.89 8.4-1.93 16.87-3.63 25.35-5.18 2.57-.47 5.3-.07 7.96-.07.2.72.41 1.43.61 2.15-2.49 1.6-4.8 3.63-7.5 4.72-14.45 5.87-29.2 11.06-43.46 17.34-13.49 5.94-26.51 12.94-39.74 19.46-1.79.88-3.56 1.83-5.42 2.54-5.36 2.02-8.37 1.02-11.5-3.71-.73-1.11-1.43-2.25-2.05-3.42-4.43-8.4-3.8-12.67 4.33-16.86 8.69-4.49 15.57-10.82 21.63-18.13 12.17-14.7 24.04-29.65 36.03-44.5-.3-.47-.61-.94-.91-1.42-9.84 2.41-19.74 4.63-29.51 7.29-11.67 3.18-23.5 5.98-33.81 12.88-3.4 2.27-7.35 1.49-9-2.15-2.21-4.86-3.83-10.17-4.55-15.45-.28-2.05 2.03-5.66 4.08-6.65 22.68-10.98 36.81-30.13 49.24-50.9 6.05-10.1 12.25-20.27 13.61-32.31.46-4.05-.42-8.22-.45-12.34-.04-6.43 2.54-8.45 7.83-5.15 7.43 4.62 14.65 9.78 21.17 15.59 5.51 4.9 4.45 9.58-.55 14.91-17.66 18.8-35.07 37.83-52.54 56.79-2.48 2.69-4.95 5.41-7.19 8.3-.95 1.22-1.31 2.9-1.94 4.37 1.67.47 3.38 1.45 5.01 1.33 8.12-.6 16.22-1.4 24.31-2.3 6.1-.68 12.2-1.45 18.24-2.52 1.72-.31 3.79-1.44 4.73-2.85 7.92-11.85 16.72-23.31 18.3-38.24.4-3.78 3.49-4.09 6.02-2.73 7.91 4.23 14.51 9.95 18.4 18.3 1.53 3.28.31 5.99-2.22 7.94-18.88 14.62-32.61 34.12-48.64 51.42-8.7 9.4-16.96 19.21-25.4 28.85-.4.49-.68 1.08-1.65 2.59z" fill="currentColor"/>
<path d="m259.6 257.56c2.93 1.22 4.65 1.93 6.37 2.65-1.05 1.57-1.74 3.79-3.21 4.62-12.1 6.89-24.18 13.86-36.6 20.15-18.84 9.53-38.15 18.16-54.76 31.56-5.51 4.44-12.03 4.94-17.7 1.27-6.04-3.9-11.48-8.9-16.57-14.03-3.18-3.21-1.69-5.9 2.96-6.77 32.13-6.01 62.99-15.9 92.71-29.56 8.81-4.03 18.22-6.76 26.8-9.89z" fill="currentColor"/>
</svg>