<svg enable-background="new 0 0 400 400" viewBox="0 0 400 400" xmlns="http://www.w3.org/2000/svg">
<path d="m273.73 300.46c-42.44 6.63-84.15 12.81-125.73 19.82-16.51 2.78-32.67 7.39-47.31 16.24-8.33 5.04-12 3.24-14.9-6.21-3.33-10.86-1.71-14.84 7.22-21.79 12.33-9.58 20.08-21.58 18.01-38.12-.25-1.98-.19-3.99-.19-5.99 0-5.85 2.14-7.06 7.44-4.26.29.16.59.31.86.5 15.52 10.55 15.2 11.65 9.53 27.04-1.15 3.11-2.38 6.2-3.42 9.35-1.61 4.89-.41 6.71 4.87 7.1 2.46.18 4.96-.05 7.43-.3 17.52-1.77 35.04-3.59 52.98-5.44 0-22.94 0-46.14 0-69.82-10.66.95-21.2 1.83-31.72 2.83-15.88 1.51-31.76 2.94-47.61 4.72-11.38 1.27-22.77 2.65-34.03 4.69-14.69 2.66-25.47-3.6-34.81-13.86-.39-.43-.4-1.21-.88-2.79 2.9-.47 5.51-1.19 8.14-1.27 13.47-.4 26.98-.12 40.41-1.03 22.38-1.52 44.72-3.73 67.07-5.72 11.08-.99 22.14-2.14 33.42-3.24 0-9.91.42-19.54-.12-29.12-.48-8.57-1.93-17.1-3.12-25.62-.58-4.15-2.73-5.98-7.43-5.88-12.47.28-24.95.06-36.89-4.58-1.16-.45-3.35.69-4.58 1.68-11.03 8.88-22.07 17.74-35.46 22.94-2.85 1.11-5.87 1.8-8.81 2.68-.28-.41-.57-.82-.85-1.23 1.86-1.93 3.53-4.11 5.61-5.75 29.92-23.52 51.53-53.5 68.6-87.16 5.37-10.57 8.63-21.48 9.16-33.32.24-5.47 1.91-6.89 6.93-4.62 7.64 3.46 15.13 7.51 22 12.3 5.12 3.57 4.27 6.37.17 11-6.05 6.84-11.76 14.01-17.22 21.33-11.95 16-23.66 32.19-35.45 48.3-.57.78-1.07 1.62-2.19 3.32 2.66.31 4.7.98 6.59.7 13.46-2.02 26.96-3.89 40.32-6.46 19.72-3.79 39.3-8.27 59-12.13 5.86-1.15 12.11-1.45 17.33 2.31 2.1 1.51 4.51 4.18 4.58 6.39.05 1.67-3.13 4.33-5.34 5.01-7.75 2.4-15.64 4.44-23.59 6.05-16.09 3.27-32.25 6.17-48.37 9.26-.89.17-1.72.68-2.84 1.15 4.49 3.47 8.67 6.69 12.84 9.93 2.92 2.27 3.22 4.96 2.77 8.71-1.61 13.46-2.54 27-3.79 41.29 11.33-1.42 21.34-2.7 31.35-3.93 22.91-2.82 45.79-5.89 68.74-8.31 10.67-1.12 21.41.24 31.19 4.89 4.63 2.2 8.79 5.8 12.48 9.46 2.8 2.78 1.48 5.72-2.45 6.42-2.59.46-5.3.34-7.96.34-26.16.07-52.33-.3-78.47.31-17.91.42-35.78 2.19-54.36 3.41-.55 24.05-1.09 47.59-1.65 71.83 7.49-.41 14.37-.72 21.24-1.19 12.43-.85 24.86-1.88 37.3-2.64 3.34-.2 5.36-.44 4.36-4.8-2.06-9.02-3.51-18.18-5.42-27.24-.87-4.15.56-6.34 4.38-4.75 8.84 3.68 17.58 7.74 25.83 12.55 2.36 1.38 4.21 5.94 4.06 8.93-.95 18.92-2.3 37.83-4.05 56.69-.45 4.81-2.51 9.59-4.5 14.09-.76 1.72-3.38 3.54-5.18 3.58-1.43.03-3.79-2.36-4.24-4.07-2.3-8.81-4.25-17.73-6.06-26.66-1.23-6.18-2.03-12.42-3.22-19.84z" fill="currentColor"/>
</svg>