<svg enable-background="new 0 0 400 400" viewBox="0 0 400 400" xmlns="http://www.w3.org/2000/svg">
<g fill="currentColor"><path d="m80.05 84.66c6.16.43 11.2-.07 15.7 1.26 10.86 3.22 21.81 2.41 32.68 1.46 20.85-1.82 41.7-3.88 62.44-6.62 24.96-3.3 50.17-5.36 74.31-13.47 8.06-2.71 16.12-1.83 23.53 2.65 7.82 4.74 15.68 9.44 23.3 14.47 7.6 5.02 7.62 8.65 3.5 16.61-2.81 5.44-5.14 11.93-5.08 17.93.2 22.27 1.16 44.55 2.42 66.79 1.78 31.35 4.97 62.65 5.84 94.02.59 21.57-3.73 42.69-15.9 61.36-.09.14-.18.28-.27.42-6.94 11.25-9.94 11.38-17.1.7-9.58-14.29-19.82-28.01-33.59-38.67-.91-.71-1.68-1.62-2.46-2.48-.31-.35-.48-.83-1.2-2.17 2.24.34 3.88.42 5.43.86 8.45 2.39 16.86 4.92 25.31 7.31 5.55 1.57 8.9.64 10.92-4.75 2.36-6.29 4.21-12.99 4.85-19.65 2.53-26.43.66-52.83-1.56-79.21-1.46-17.39-2.4-34.84-4.31-52.18-1.83-16.65-4.15-33.28-7.13-49.77-2.2-12.19-7.47-16.41-20.04-16.31-13.11.11-26.24 1.12-39.31 2.29-17.37 1.56-34.68 3.8-52.04 5.49-19.68 1.91-39.39 3.59-59.1 5.2-3.52.29-3.87 2.08-3.82 4.93.29 16.31.58 32.62.66 48.93.1 19 .55 38.01-.17 56.98-1.03 27.23-2.77 54.45-4.64 81.64-.8 11.58-2.38 23.13-4.31 34.58-.63 3.75-3.47 7.13-5.29 10.68-2.55-3.02-5.58-5.76-7.55-9.12-7.78-13.32-6.57-27.45-4.26-42.08 2.85-18.03 5.12-36.25 5.98-54.47 1.63-34.89 2.24-69.83 2.91-104.76.14-7.26-.77-14.65-2.18-21.79-.89-4.55-3.56-8.75-5.47-13.09-.64-1.44-1.42-2.84-3-5.97z"/><path d="m227.24 177.73c6.08-16.42 11.88-32.47 6.71-50.39 2.02-.18 3.1-.61 3.86-.29 6.69 2.84 13.48 5.52 19.93 8.84 4.04 2.08 4.25 5.58 2.25 9.82-6.43 13.65-12.51 27.47-18.9 41.62 6.65 4.15 12.71 8.14 18.96 11.79 11.19 6.54 15.75 16.14 14.06 28.92-1.13 8.53-5.97 11.02-12.45 5.5-8.73-7.43-16.87-15.56-25.18-23.48-1.55-1.48-2.72-3.36-4.68-5.83-11.05 18.57-26.06 31.22-43.7 41.21 10.71-17.04 21.43-34.09 31.97-50.86-6.23-5.41-11.93-10.19-17.41-15.21-2.19-2-4.15-4.37-5.74-6.88-1.03-1.63-1.19-3.82-1.74-5.76 1.72.05 3.61-.34 5.14.23 7.15 2.64 14.2 5.54 21.28 8.37 1.81.72 3.58 1.52 5.64 2.4z"/><path d="m120.76 168.53c13.7 1.41 24.15 9.6 35.68 18.37 3.21-9.41 6.6-18.19 9.18-27.2 2.75-9.58 4.58-19.32 2.44-29.47-1.08-5.11 1.25-7.16 6.1-5.26 6.12 2.4 12.11 5.38 17.66 8.89 4.38 2.77 4.22 6.82 1.74 11.32-9.19 16.7-18.12 33.54-27.16 50.36 9.67 5.88 17.22 12.12 19.86 22.22.97 3.71.92 7.97.22 11.77-1.17 6.37-5.03 7.94-9.95 3.81-4.78-4.01-8.76-8.99-12.94-13.68-1.3-1.46-2.13-3.35-3.52-5.59-3.01 4.07-5.74 7.92-8.63 11.66-7.56 9.8-15.74 18.99-26.58 25.31-2.75 1.6-5.91 2.49-8.89 3.71-.38-.45-.75-.91-1.13-1.36 1.53-2.16 3.15-4.26 4.58-6.48 9.33-14.51 18.67-29.01 27.8-43.64.57-.92-.15-3.38-1.08-4.37-7.39-7.89-15.03-15.55-22.46-23.4-1.54-1.63-2.57-3.75-3.84-5.64.32-.44.62-.89.92-1.33z"/>
</g>
</svg>