<svg enable-background="new 0 0 400 400" viewBox="0 0 400 400" xmlns="http://www.w3.org/2000/svg">
<path d="m266.5 165.87c-9.8.9-19.37 1.69-28.92 2.67-17.35 1.79-34.67 3.8-52.02 5.51-21.66 2.14-43.34 4-64.99 6.23-1.27.13-2.65 2.34-3.38 3.87-1.56 3.3-2.72 6.79-4.05 10.2-.78.05-1.57.11-2.35.16-2.34-5.49-5.24-10.82-6.93-16.51-4.57-15.42-8.47-31.03-12.95-46.48-3.03-10.44-7.58-20.18-14.64-28.67-1.34-1.61-1.55-4.15-2.28-6.26 2.14-.59 4.31-1.76 6.42-1.65 5.96.3 11.87 1.53 17.82 1.67 10.43.24 20.95.76 31.28-.29 22.95-2.33 45.88-5.09 68.69-8.54 24.91-3.77 49.72-8.31 74.49-12.96 10.77-2.03 20.9-.93 30.5 3.93 7.23 3.66 14.34 7.67 21.04 12.2 5.35 3.62 5.71 9.01 1.22 13.11-9.05 8.26-15 18.59-20.36 29.33-7.51 15.04-15.17 29.98-26.3 42.78-.87 1-1.75 2.02-2.75 2.88-4.32 3.66-7.12 2.65-8.15-3.01-.55-3.09-.85-6.22-1.39-10.17zm-50.33-9.21c2.27.22 2.77.35 3.25.31 15.69-1.32 31.39-2.59 47.06-4.11 1.14-.11 2.61-1.79 3.07-3.06 2.21-6.06 4.73-12.11 6-18.39 1.96-9.67 3.41-19.5 4.25-29.33.47-5.58-2.67-8.61-8.37-9.01-5.75-.41-11.58-.27-17.34.17-7.34.56-14.63 1.67-22.3 2.58 1.64 3.5 3.59 6.09 3.99 8.9.53 3.71.93 8.07-.49 11.32-5.87 13.47-12.45 26.62-19.12 40.62zm-46.42 6.18c11.88-1.41 23.73-2.82 36.03-4.29 3.79-19.51 8.05-39.03 8.83-59.84-18.46 2.51-36.21 4.92-53.32 7.25 2.49 9.87 5.52 18.89 6.89 28.16 1.38 9.29 1.1 18.84 1.57 28.72zm-58.96-50.99c2.51 19.49 4.92 38.26 7.3 56.77 13.7-1.49 26.5-2.89 38.97-4.24-2.65-18.85-5.28-37.49-7.98-56.69-11.89 1.29-24.71 2.69-38.29 4.16z" fill="currentColor"/>
</svg>