<svg enable-background="new 0 0 400 400" viewBox="0 0 400 400" xmlns="http://www.w3.org/2000/svg">
<path d="m111.19 84.93c-.75 18.67-1.01 35.97-2.26 53.21-1.01 13.88-2.9 27.72-5.04 41.48-.66 4.26-2.99 8.46-5.32 12.21-2.67 4.27-6.26 4.42-9.35.54-6.55-8.2-10.88-16.9-6.84-27.99 7-19.23 10.89-39.05 9.2-59.65-.83-10.04-.56-20.31-5.27-29.7-1.26-2.5.22-3.89 2.62-4.05 2.98-.2 6.02-.3 8.98.02 23.14 2.5 46.16.42 69.16-1.87 19.83-1.97 39.69-3.82 59.46-6.31 15.3-1.93 30.51-4.59 45.69-7.27 7.28-1.28 14.33-1.18 20.9 2.19 7.07 3.63 14.01 7.58 20.7 11.87 4.76 3.05 5.9 7.46 2.75 10.93-6.15 6.78-8 15.13-8.15 23.5-.36 19.58.01 39.2.67 58.78.38 11.16-.67 21.89-5.3 32.09-3.17 6.98-7.14 7.34-11.65 1.06-8.1-11.28-8.89-24.03-6.78-37.17 3.68-22.95 4.39-45.97 1.34-69-1.65-12.41-5.04-15.36-17.69-15.27-11.95.09-23.9 1.05-35.82 1.97-12.74.98-25.44 2.53-38.18 3.51-22.87 1.76-45.75 3.35-68.63 4.86-4.95.34-9.93.06-15.19.06z" fill="currentColor"/>
<path d="m198.44 139.51c-19.96 19.87-42.88 33.88-70.01 40.46-.31-.43-.62-.85-.93-1.28 9.98-7.34 20.23-14.33 29.85-22.11 9.68-7.82 18.72-16.42 28.65-25.21-15.79-8.98-31.84-15.65-45.53-26.42 19.57 1.18 37.01 9.31 55.43 16 6.51-11.08 15.82-20.67 16.11-34.71.02-.93 2.5-2.79 3.44-2.56 8.74 2.1 16.3 6.54 22.72 12.8 2.27 2.21.64 3.69-1.19 5.68-8.34 9.02-16.36 18.34-24.07 27.08 6.23 3.22 14.76 7.55 23.2 12.03 9.14 4.85 14.67 11.77 13.12 22.88-.89 6.32-3.95 8.48-9.41 5.05-8.44-5.3-16.4-11.36-24.5-17.19-5.53-3.96-10.95-8.09-16.88-12.5z" fill="currentColor"/>
</svg>