<svg enable-background="new 0 0 400 400" viewBox="0 0 400 400" xmlns="http://www.w3.org/2000/svg">
<g fill="currentColor">
<path d="m210.21 118.22c1.22 1.31 2.33 2.52 3.46 3.71 3.73 3.93 4.67 8.15 2.03 13.18-2.61 4.98-4.82 10.16-7.76 16.45 8.57-1.86 16.06-3.46 23.53-5.1 7.93-1.74 15.79-4.18 23.82-5.04 4.64-.5 10.05.52 14.2 2.65 5.68 2.91 5.26 8.47-.73 10.72-8.03 3.02-16.4 5.29-24.8 7.12-12.81 2.8-25.75 4.98-38.65 7.34-3.14.57-5.51 1.75-6.71 5-2.85 7.77-5.88 15.47-9.11 23.92 8.18-.96 15.9-1.57 23.53-2.8 22.44-3.62 44.81-7.7 67.27-11.16 10.87-1.68 20.42 1.71 27.93 10.02 3.06 3.39 2.71 5.21-1.72 6.07-6.33 1.23-12.76 2.11-19.19 2.71-18.37 1.72-36.76 3.2-55.13 4.84-15.06 1.35-30.1 2.96-45.18 4.07-3.61.27-5.41 1.32-7.11 4.59-20.93 40.22-45.91 77.65-78.24 109.67-16.54 16.39-35.07 30.16-57.79 37.16-.78.24-1.58.46-2.38.61-.3.06-.64-.12-1.87-.39 1.93-2 3.4-3.85 5.18-5.32 33.33-27.33 61.92-59.08 86.21-94.54 9.35-13.64 16.47-28.81 24.56-43.31.7-1.26 1.02-2.74 1.83-5-9.56 1.82-18.43 3.5-27.29 5.18-4.24.8-8.48 1.66-12.74 2.34-10.79 1.72-18.89-3.66-26.5-10.22-.36-.31-.63-.79-.8-1.24-.16-.45-.13-.96-.32-2.59 5.14-.63 10.25-1.36 15.38-1.86 18.53-1.81 37.08-3.43 55.59-5.44 1.99-.22 4.68-2.07 5.48-3.87 3.42-7.69 6.25-15.63 9.46-23.93-18.6-1.22-37.21 5.32-54.52-6.16 5.29-4.64 11.09-3.74 16.28-4.51 13.3-1.97 26.69-3.36 40-5.29 1.96-.28 4.33-1.83 5.39-3.5 5.11-8.09 6.94-17.22 6.97-26.67.02-5.26-1.02-5.73-6.42-4.94-10.19 1.48-20.39 3.73-30.61 3.9-11.25.19-22.08-3.02-31.72-9.1-.01-.5-.01-1-.02-1.5 2.93-.68 5.84-1.79 8.8-1.96 31.82-1.84 62.74-9.04 93.75-15.67 13.46-2.88 26.83-6.21 40.38-8.57 7.99-1.39 15.54 1.03 21.73 6.62 4.74 4.29 4.36 8.07-1.75 9.83-7.76 2.24-15.83 3.58-23.85 4.75-16.1 2.33-32.26 4.27-48.39 6.41-.45.07-.84.47-1.46.82z"/>
<path d="m213.42 90.2c1.15-1.68 2.28-3.37 3.45-5.02 7.75-10.97 15.78-21.74 23.13-32.97 3.56-5.44 5.64-11.62 2.16-18.38-1.37-2.66-.07-5.12 3.33-5 3.61.12 7.51-.02 10.74 1.29 8.58 3.46 17.06 7.29 25.19 11.68 4.35 2.35 3.98 5.41-.08 8.04-16.57 10.72-33.11 21.51-49.79 32.07-5.51 3.49-11.41 6.38-17.12 9.54-.34-.43-.68-.84-1.01-1.25z"/>
<path d="m177.21 74.12c-.08 1.55-.04 2.73-.23 3.88-1.42 8.71-5.94 10.84-12.55 5.02-8.19-7.2-15.63-15.25-23.25-23.07-1.21-1.25-1.79-3.18-2.46-4.88-1.66-4.23.08-6.94 4.51-5.9 8.02 1.9 16.12 4 23.62 7.3 7.31 3.22 10.1 10.17 10.36 17.65z"/>
</g>
</svg>