<svg enable-background="new 0 0 400 400" viewBox="0 0 400 400" xmlns="http://www.w3.org/2000/svg">
<g fill="currentColor"><path d="m193.59 247.39c-13.29 1.05-25.86 1.89-38.4 3.06-14.89 1.39-29.77 2.87-44.61 4.66-12.7 1.52-25.31 3.78-38.01 5.17-4.47.49-9.41.28-13.62-1.15-9.1-3.09-17.06-8.37-23.75-16.04 53.01-.62 105.55-5.08 158.14-9.94 0-13.45 0-26.22 0-39.55-11.47 1.06-22.67 1.94-33.83 3.16-13.06 1.43-25.47-.87-37.47-5.9-1.27-.53-2.33-1.57-3.49-2.38-.01-.54-.02-1.08-.03-1.63 3.34-.93 6.62-2.23 10.02-2.73 19.72-2.86 39.46-5.53 59.2-8.29 1.8-.25 3.57-.75 4.81-1.02 0-12.66 0-25.03 0-38.2-12.31 1.07-23.53 2.12-34.75 3.01-13.5 1.07-26.23-1.7-38.33-7.43-.07-.62-.14-1.24-.21-1.86 3.3-.79 6.56-1.99 9.9-2.3 39.97-3.75 78.99-12.44 117.78-22.37 5.62-1.44 11.22-3.17 16.94-3.92 7.52-.99 14.5 1.12 20.57 5.85 5.63 4.39 5.36 8.68-1.4 10.75-8.21 2.51-16.73 4.09-25.18 5.71-13.37 2.57-26.8 4.83-40.19 7.27-1.24.23-2.43.75-3.79 1.17 1.24 3.02 2.89 5.69 3.34 8.54.52 3.3.41 6.85-.21 10.14-1.26 6.61-3.05 13.11-4.93 20.91 6.59-.95 11.73-1.61 16.85-2.44 5.74-.93 11.47-1.9 17.16-3.04 7.53-1.51 14.54.41 21.33 3.24 4.97 2.07 5.52 5.55.77 7.71-7.77 3.53-15.98 6.4-24.29 8.36-9.01 2.13-18.35 2.81-27.51 4.35-1.19.2-3.07 1.76-3.08 2.71-.21 12.78-.14 25.57-.14 38.81 7.19-.65 13.77-1.27 20.34-1.84 14.9-1.28 29.8-2.55 44.7-3.81 17.88-1.51 35.75-3.08 53.64-4.47 7.74-.6 14.88 1.44 21.03 6.25 3 2.35 5.9 4.92 8.4 7.78 1.26 1.44 2.53 4.19 1.94 5.56-.62 1.45-3.35 2.45-5.31 2.77-3.09.51-6.31.41-9.47.37-21.8-.29-43.61-1.1-65.4-.85-23.09.27-46.18 1.53-69.99 2.39 0 11.52.41 22.65-.09 33.74-1.06 23.58-2.27 47.16-4.15 70.68-.58 7.32-3.39 14.49-5.4 21.66-.5 1.77-1.88 3.3-3.14 5.42-5.98-5.74-6.16-12.79-6.23-19.35-.38-34.66-.35-69.32-.47-103.98 0-1.98.01-3.95.01-6.71z"/><path d="m246.75 29.75c2.28.46 4.84.46 6.91 1.47 8.21 4.01 16.3 8.27 24.35 12.59 1.57.84 2.87 2.26 4.14 3.56 2.6 2.66 2.02 4.94-.96 6.94-17.83 11.88-35.6 23.86-53.48 35.65-5.77 3.81-11.83 7.17-17.76 10.74-.49-.45-.98-.9-1.46-1.35 1.47-2.33 2.75-4.82 4.45-6.97 6.7-8.48 13.7-16.74 20.29-25.31 7.95-10.34 13.97-21.5 12.77-35.23-.06-.43.3-.9.75-2.09z"/><path d="m184.83 80.94c-1.12 3.95-1.86 8.06-3.46 11.81-2.5 5.89-6.6 7.27-11.41 3.1-5.6-4.85-10.64-10.49-15.23-16.33-6.15-7.83-11.69-16.13-17.32-24.35-.79-1.16-1.29-3.48-.66-4.4.73-1.07 2.98-1.87 4.35-1.62 11.66 2.14 23.09 5.13 32.92 12.15 6.58 4.69 10.57 10.98 10.81 19.64z"/>
</g>
</svg>