<svg enable-background="new 0 0 400 400" viewBox="0 0 400 400" xmlns="http://www.w3.org/2000/svg">
<g fill="currentColor"><path d="m259.93 279.11c6.31 2.77 12.14 4.98 17.65 7.84 5.89 3.06 11.4 6.83 17.19 10.09 9.38 5.3 14.7 3.33 16.29-7.13 1.67-10.96 2.5-22.13 2.65-33.23.32-24.32.16-48.64-.17-72.96-.3-21.96-.8-43.92-1.81-65.85-.37-8.05-2.01-16.13-3.9-24-1.9-7.89-5.15-9.9-13.18-8.33-11.7 2.3-23.26 5.33-34.91 7.91-10.36 2.29-20.71 3.38-30.57-2.06-1.55-.85-2.96-1.95-4.43-2.94 0-.57 0-1.13 0-1.7 3.51-.59 7.01-1.48 10.54-1.72 16.2-1.11 31.81-4.75 46.87-10.72 3.22-1.27 6.58-2.81 9.1-5.09 4.73-4.27 10.31-4.74 15.44-2.91 9.62 3.44 18.93 7.84 28.16 12.28 2.55 1.23 5.09 3.63 6.32 6.13 1.13 2.31 1.72 6.42.42 8.14-8.26 11.02-9.29 23.95-9.18 36.62.24 28.6 1.57 57.19 2.62 85.78.66 18.12 1.44 36.24 2.46 54.34.78 13.81 1.62 27.58-2.39 41.08-4.63 15.57-13.58 28.43-25.45 39.27-6.11 5.58-11.88 4.4-14.19-3.37-5.77-19.4-17.01-35.55-28.91-51.45-2.75-3.68-4.7-7.97-6.86-12.07-.39-.68.07-1.8.24-3.95z"/><path d="m119.47 288.27c1.67.11 3.34.19 5.01.35 11.85 1.12 23.7 2.24 35.54 3.41 4.95.49 7.1-2.45 7.68-6.63 1.23-8.88 2.83-17.78 3.02-26.7.7-33.79.89-67.59 1.3-101.39.04-2.98.57-5.97.47-8.94-.5-14.79-.76-29.6-1.88-44.34-.62-8.17-2.64-8.99-10.96-7.15-11.17 2.47-22.23 5.6-33.52 7.2-5.5.78-11.47-.95-17.1-2.14-2.57-.55-4.83-2.55-7.23-3.89.05-.59.1-1.19.15-1.78 4.4-.77 8.83-1.39 13.19-2.32 12.15-2.59 24.3-5.14 36.37-8.06 3.48-.84 6.98-2.45 9.94-4.48 5.53-3.8 11.34-4.23 16.94-1.41 7.36 3.71 14.65 7.79 21.26 12.66 5.95 4.39 4.89 6.97 1.38 13.45-3.07 5.66-4.78 12.37-5.67 18.82-1.18 8.53-1.27 17.25-1.3 25.89-.12 39.99-.69 79.99.21 119.96.45 19.99-5.31 37.24-16.36 53.22-3.3 4.77-6.83 9.46-10.86 13.6-4.91 5.05-9.45 4.09-11.75-2.43-5.02-14.2-14.73-24.7-25.75-34.36-3.83-3.35-7.29-7.12-10.92-10.69.27-.63.55-1.24.84-1.85z"/><path d="m154.54 195.92c-4.73 5.82-9.37 11.72-14.22 17.44-11.82 13.97-24.03 27.63-35.44 41.93-3.92 4.91-5.72 11.48-8.98 17-1.02 1.73-4 3.91-5.45 3.53-11.22-2.99-20.37-9.52-27.99-18.16-2.1-2.39-1.41-4.85 1.89-5.63 18.57-4.4 32.93-16.26 47.83-27.06 12.13-8.78 23.9-18.06 35.86-27.08 1.64-1.23 3.48-2.19 5.23-3.28.44.43.85.87 1.27 1.31z"/><path d="m297.41 183.74c-1.18 2.08-2.11 4.35-3.58 6.19-12.59 15.68-25.36 31.21-37.88 46.94-3.92 4.92-7.36 10.24-10.86 15.49-4.01 6.01-8.77 7.84-14.77 3.79-5.67-3.83-10.77-8.74-15.37-13.86-3.12-3.48-1.97-7.15 2.11-8.27 20.91-5.74 36.43-19.96 52.89-32.82 7.96-6.22 16.4-11.82 24.65-17.67.5-.36 1.21-.43 1.82-.63.33.29.66.56.99.84z"/><path d="m95.15 144.63c8.54 1.92 17.36 3.03 25.54 5.97 10.63 3.82 14.33 12.64 11.34 23.37-1.64 5.87-5.61 8.16-11.3 6.11-2.94-1.06-6.01-2.34-8.38-4.3-8.59-7.09-17-14.41-25.23-21.91-1.62-1.48-2.12-4.19-3.14-6.33 2.15-.64 4.28-1.44 6.47-1.88 1.44-.29 2.99-.05 4.49-.05.06-.33.13-.65.21-.98z"/><path d="m222.52 136.8c3.56-1.22 5.62-2.44 7.75-2.58 10.16-.69 20.34-.73 30.09 2.74 9.59 3.41 13.49 10.41 11.71 20.33-.86 4.83-4 6.98-8.91 6.11-.82-.14-1.72-.09-2.46-.41-13.78-6.15-25.79-14.85-38.18-26.19z"/>
</g>
</svg>