<svg enable-background="new 0 0 400 400" viewBox="0 0 400 400" xmlns="http://www.w3.org/2000/svg">
<path d="m67.6 255.25c50.55-27.22 95.09-60.08 133.91-102.48-7.51.99-13.85 1.77-20.16 2.68-24.47 3.53-48.94 7.06-73.4 10.67-9.52 1.41-19.03 2.96-28.52 4.58-11.57 1.97-28.59-5.04-34.74-15.23 6.1-.31 11.63-.79 17.16-.84 35.52-.37 70.61-4.33 105.32-11.88 4.14-.9 5.76-2.4 5.54-6.82-.39-7.79-.11-15.61-.11-23.64-8.34 1.05-16.2 2.07-24.07 3.03-9.12 1.11-17.54-1.04-25.18-5.99-1.77-1.15-2.98-3.17-4.44-4.78 1.89-.87 3.71-2.27 5.68-2.53 11.36-1.5 22.76-2.73 34.14-4.07 1.98-.23 3.94-.56 5.91-.86 7.95-1.23 7.74-1.24 7.99-8.99.54-16.4-2.04-32.07-9.57-46.83-.85-1.66-1.15-4.76-.19-5.87 1-1.16 4.05-1.38 5.86-.85 7.47 2.2 14.93 4.53 22.16 7.41 6.38 2.54 7.89 6.65 5.73 13.24-3.89 11.82-4.02 23.99-4.16 36.67 9.64-1.88 18.55-3.71 27.49-5.31 6.29-1.13 11.85 1.23 16.78 4.73 3.15 2.24 1.73 5-1.15 6.18-6.11 2.5-12.32 4.9-18.69 6.6-7.97 2.12-16.15 3.5-24.28 5.21-.47 10.24-.92 20.16-1.4 30.77 8.7-1.05 17.04-1.96 25.34-3.16 1.25-.18 2.49-1.54 3.44-2.61 14.96-16.88 27.88-35.21 38.54-55.09 3.94-7.35 5.44-15.23 5.2-23.57-.06-2.12 1.04-4.28 1.61-6.42 2.15.58 4.89.52 6.33 1.86 6.3 5.83 12.76 11.62 18.1 18.28 4.34 5.4 3.24 10.56-1.96 15.57-5.38 5.19-11.54 9.63-16.62 15.08-10.4 11.16-20.31 22.78-30.41 34.21l.75 1.29c9.92-1.37 19.84-2.75 29.76-4.11 18.08-2.48 36.11-5.66 54.27-7.07 7.44-.58 15.19 2.65 22.78 4.24 1.1.23 2.48.7 3.07 1.52 1.69 2.34 3.04 4.93 4.53 7.42-2.17.99-4.28 2.67-6.52 2.85-10.93.91-21.88 1.73-32.84 2.03-28.27.78-56.45 2.56-84.4 6.98-2.5.4-4.99 2.4-7 4.2-23.06 20.65-45.54 41.98-69.16 61.97-23.9 20.23-50.89 35.02-82.41 40.02-.98.15-1.94.37-2.92.46-.4.02-.84-.2-3.09-.75z" fill="currentColor"/>
</svg>