<svg enable-background="new 0 0 400 400" viewBox="0 0 400 400" xmlns="http://www.w3.org/2000/svg">
<path d="m256.32 289.7c2.2.48 4.43.86 6.6 1.45 7.7 2.06 15.32 4.41 23.08 6.23 7.97 1.88 11.85-.1 13.73-8.05 1.94-8.19 3.47-16.65 3.69-25.03.39-15.11.37-30.31-.77-45.37-1.11-14.66-8.37-20.72-23.59-20.36-12.44.3-24.85 1.86-37.26 2.99-5.89.54-11.75 1.37-19.76 2.32 12.89 7.31 10.09 17.05 8.2 27.29-3.88 21.03-6.73 42.25-10.25 63.35-.62 3.71-2.25 7.28-3.7 10.8-1.17 2.86-3.15 5.96-6.57 4.55-1.82-.74-3.57-3.94-3.69-6.12-.47-9.1-.39-18.24-.37-27.36.05-22.32.18-44.65.26-66.97 0-.79-.24-1.58-.45-2.89-18.35 1.39-36.52 2.77-54.71 4.15 11 24.93 8.11 50.1 5.32 75.22-.42 3.8-1.06 8.91-6 9.14-4.87.23-5.52-4.88-6.11-8.39-1.94-11.61-3.51-23.28-4.96-34.96-1.53-12.34-2.75-24.72-4.17-37.73-7.97.48-15.54.92-23.11 1.4-4.81.31-9.61.73-14.42 1.01-2.79.16-3.87.93-3.69 4.26 1.33 25.24 2.53 50.49 3.33 75.75.2 6.41-.89 12.93-1.93 19.31-1.11 6.79-4.61 7.96-9.99 3.72-5.77-4.55-9.36-10.61-9.94-17.82-.48-6.07.05-12.27.62-18.37 1.84-19.94 2.76-39.89-1.8-59.55-1.23-5.31-4.77-10.08-7.16-15.14-.95-2.01-1.67-4.12-2.49-6.19 2.36-.36 5.01-1.6 7.05-.94 12.95 4.17 26.22 3.98 39.51 3.38 8.46-.38 16.92-1.12 25.35-2.01 1.4-.15 3.27-1.59 3.84-2.91 10.14-23.49 20.11-47.05 24.3-72.53.58-3.55.56-7.2.81-10.57-10.64 1.15-20.69 2.63-30.78 3.2-10.28.59-18.51-4.53-25.67-11.38-3.02-2.88-2.53-4.69 1.71-5.83 3.64-.98 7.49-1.48 11.27-1.63 48.65-1.93 96.29-10.44 143.56-21.63 10.03-2.38 19.54-.17 27.8 6.19 1.61 1.24 4.11 3.83 3.73 4.67-.91 1.97-3.06 4.09-5.13 4.68-8.12 2.33-16.32 4.69-24.65 5.97-25.75 3.95-51.58 7.41-77.38 11.09-2.11.3-4.2.81-6.82 1.32 3.03 4.09 6.08 7.76 8.62 11.75 4.08 6.4 3.08 6.8-1.45 12.55-6.45 8.18-12.1 17.08-17.32 26.12-6.48 11.21-12.17 22.87-18.18 34.35-.37.71-.56 1.51-1.06 2.88 7.53-.86 14.58-1.56 21.6-2.47 21.9-2.86 43.84-5.48 65.67-8.81 15.07-2.29 29.92-5.99 44.99-8.26 5.71-.86 12.38-.96 17.5 1.21 9.71 4.11 18.94 9.62 27.75 15.47 7.75 5.15 7.82 8.52 2.36 15.93-4.83 6.56-6.62 14.15-7 22.01-.63 12.96-.73 25.95-1.16 38.92-.53 15.91-2.3 31.68-10.83 45.53-3.86 6.26-8.97 11.98-14.37 17.01-5.22 4.86-10.61 3.52-13.01-3.19-5.33-14.92-14.92-26.52-26.49-36.86-1.99-1.78-3.44-4.15-5.15-6.24.35-.53.72-1.07 1.09-1.61z" fill="currentColor"/>
</svg>