<svg enable-background="new 0 0 400 400" viewBox="0 0 400 400" xmlns="http://www.w3.org/2000/svg">
<path d="m237.65 247.47c-11.16.97-22.05 1.79-32.92 2.88-17.85 1.8-35.73 3.46-53.52 5.74-25.19 3.23-50.32 7-75.48 10.47-12.73 1.75-22.71-3.45-30.74-12.88-2.19-2.57-1.67-4.99 2.03-5.84 1.77-.4 3.58-.76 5.38-.86 24.9-1.41 49.8-2.76 74.7-4.19 2.44-.14 4.86-.75 7.49-1.17 0-7.53.07-14.83-.01-22.12-.3-28.65-.23-57.3-1.18-85.93-.43-13.04-2.9-26.01-4.44-39.01-.45-3.74-2.49-4.78-6.19-4.38-6.44.68-12.93.92-19.41 1.2-11.02.47-19.23-5.62-27.14-12.09-2.34-1.92-1.54-4.17 1.5-4.41 6.61-.52 13.25-.59 19.88-.91 16.09-.78 32.18-1.39 48.25-2.47 12.93-.87 25.84-2.14 38.72-3.56 17.99-1.98 35.97-4.14 53.93-6.45 18.29-2.35 36.52-5.11 54.81-7.42 12.04-1.52 22.22 2.89 30.75 11.17 1.49 1.45 3.15 4.25 2.67 5.77-.47 1.48-3.53 2.85-5.55 3.02-10.77.9-21.57 1.44-32.36 2.03-14.11.77-28.23 1.46-43.24 2.23 1.29 1.15 1.98 1.89 2.79 2.46 3.4 2.38 6.87 4.66 10.25 7.08 4.31 3.09 5.42 6.85 4.64 12.44-1.88 13.46-3.41 27.05-3.67 40.62-.54 28.32-.16 56.66-.16 85 0 1.15.11 2.3.2 4.23 5.61-.51 10.98-.93 16.33-1.48 15.86-1.63 31.7-3.54 47.59-4.9 12.25-1.05 23.2 2.18 31.09 12.31 1.59 2.04 2.05 4.95 3.04 7.46-2.51.9-5.04 2.62-7.53 2.56-9.63-.22-19.24-1.49-28.85-1.49-20.45.01-40.89.58-62.14.94 0 5.85.17 10.82-.03 15.77-.98 24.77-1.73 49.55-3.27 74.29-.6 9.54-3.06 18.97-4.74 28.43-.23 1.29-.58 2.74-1.36 3.72-1.27 1.58-2.94 2.84-4.45 4.23-1.13-1.54-3.08-2.98-3.27-4.62-1.28-10.86-2.81-21.75-3.08-32.65-.67-27.97-.72-55.95-1.03-83.92-.02-1.01-.16-1.97-.28-3.3zm-84.36-62.42c2.98-.24 5.63-.22 8.19-.7 11.89-2.24 23.75-4.66 35.65-6.91 6.75-1.28 13.35-1.18 18.76 3.88 3.9 3.65 3.37 7.13-1.42 9.35-2.38 1.11-4.96 1.98-7.55 2.41-17.87 2.95-35.75 5.09-54.26-.86v48.06c28.18-2.87 56.51-5.75 85.02-8.65.09-1.52.22-2.66.22-3.79.01-32.49.4-64.98-.17-97.46-.26-14.56-2.58-29.07-3.7-43.62-.42-5.44-2.59-7.3-8.16-6.75-23.64 2.33-47.32 4.27-70.97 6.43-5.99.55-11.96 1.38-18.61 2.16 5.06 3.19 9.46 5.8 13.68 8.67 4.61 3.14 5.84 7.26 4.75 13-1.37 7.21-1.41 14.68-2.08 22.75 13.75-2.38 26.28-4.95 38.92-6.57 6.6-.85 13.46-.49 20.09.3 2.02.24 4.52 3.51 5.13 5.84.35 1.31-2.47 3.81-4.29 5.23-1.5 1.17-3.58 1.74-5.49 2.23-17.8 4.63-35.61 8.71-53.73-.12.02 15.07.02 29.66.02 45.12z" fill="currentColor"/>
</svg>