<svg enable-background="new 0 0 400 400" viewBox="0 0 400 400" xmlns="http://www.w3.org/2000/svg">
<path d="m178.71 212.51c0-10.59 0-21.04 0-32.07-11.34 2.41-22.65 4.12-33.53 7.3-13.02 3.8-24.54.96-35.76-5.36-1.65-.93-3.04-2.33-4.46-4.44 24.43-5.03 49.4-4.62 73.71-9.18 0-11.29 0-22.23 0-33.56-13.91 2.14-27.5 4.18-41.07 6.34-19.51 3.1-38.98 6.42-58.52 9.37-10.57 1.59-29.5-7.16-34.46-16.02 3.21-.69 6.15-1.7 9.15-1.91 26.53-1.81 53.09-3.23 79.6-5.29 13.74-1.07 27.4-3.11 41.07-4.96 1.17-.16 2.97-2.14 3-3.32.25-8.97.14-17.96.14-27.56-6.74.99-13.03 2.08-19.36 2.8-9.89 1.12-19.68 1.03-28.47-4.59-1.55-.99-2.6-2.79-3.88-4.21 1.67-.76 3.31-2.07 5.02-2.19 10.45-.73 20.91-1.24 31.37-1.72 15.07-.69 15.34-.66 14.57-15.41-.57-10.82-1.94-21.58-9.35-30.41-.66-.79-.7-2.09-1.21-3.74 1.76-.31 3.26-1.02 4.51-.71 9.29 2.27 18.69 4.27 27.71 7.35 5.24 1.78 5.42 4.4 3.29 9.46-3.84 9.13-3.95 18.62-2.58 29.27 14.13-4.02 27.59-8.06 41.19-11.61 4.16-1.09 8.88-1.85 12.96-.99 9.6 2.03 17.69 7.51 25.14 13.76 3.19 2.68 3.03 5 .21 8.76-5.1 6.81-8.92 14.58-13.27 21.95.37.37.74.73 1.11 1.1 9.28-1.44 18.57-2.88 27.85-4.32 10.01-1.55 19.98-3.35 30.03-4.58 12.81-1.57 22.03 4.77 29.32 14.52.96 1.29 1.69 3.84 1.04 4.95-.66 1.13-3.13 1.66-4.82 1.67-13.5.13-27.01-.33-40.49.18-15.11.57-30.19 1.91-45.27 3.1-1.19.09-2.89 1.51-3.29 2.67-3.08 8.95-6.04 17.94-8.63 27.04-.4 1.42 1.1 3.54 2.04 5.14 1.45 2.47 3.17 4.79 4.77 7.17-2.85.93-5.64 2.3-8.56 2.72-17.7 2.56-35.43 4.9-53.19 7.32v31.56c9.99-1.84 19.68-3.68 29.4-5.39 6.05-1.06 12.1-2.19 18.2-2.8 8.43-.84 15.71 2.09 21.68 8.05 1.05 1.05 1.47 2.73 2.18 4.12-1.43.72-2.8 1.92-4.29 2.08-8.1.86-16.25 1.21-24.33 2.22-13.65 1.71-27.24 3.79-41 5.74v28.1c5.65-.4 11.23-.53 16.73-1.23 21.58-2.74 43.13-5.61 64.69-8.52 11.41-1.54 22.93-3.54 34 .92 4.96 2 9.65 5.23 13.68 8.79 4.31 3.79 3.2 7.12-2.43 8.16-4.53.83-9.23.86-13.86 1.05-24.43.98-48.87 1.81-73.3 2.86-11.8.5-23.58 1.36-35.37 2.06-1.3.08-2.59.21-4.11.33-.1 1.4-.22 2.53-.25 3.66-.66 23.29-.96 46.6-2.14 69.86-.42 8.35-2.71 16.64-4.7 24.83-.48 1.96-3.14 3.4-4.8 5.07-1.37-1.78-3.61-3.39-3.97-5.35-1.76-9.76-3.95-19.59-4.28-29.45-.65-19.98-.19-39.99-.19-59.99 0-1.8 0-3.6 0-5.9-14.2 1.89-27.83 3.58-41.42 5.55-15.94 2.31-31.81 5.08-47.76 7.26-11.22 1.54-21.41-1.84-30.59-8.24-1.35-.94-2.11-2.75-3.14-4.15 1.56-.77 3.05-1.95 4.69-2.21 2.94-.47 5.96-.46 8.95-.51 30.14-.46 60.01-3.58 89.7-8.68 5.24-.9 10.51-1.59 15.77-2.38 2.56-.38 3.99-1.34 3.88-4.47-.27-7.96-.09-15.92-.09-24.29-10.89 1.59-21.24 2.9-31.51 4.64-12.09 2.05-23.84 2.4-34.56-4.88-.96-.65-1.95-1.28-2.82-2.04-.73-.64-1.32-1.44-2.87-3.19 3.45-.62 6.02-1.23 8.63-1.54 20.29-2.37 40.58-4.69 60.87-7.03.69-.06 1.3-.27 2.1-.46zm18.49-92.82c15.56-1.99 30.48-3.86 45.38-5.87.82-.11 2.03-1.3 2.15-2.11 1.2-8.19 2.22-16.4 3.27-24.62.51-4.01-1.48-5.59-5.24-5.07-14.42 2-28.83 4.03-43.23 6.21-.89.13-2.22 1.64-2.23 2.53-.16 9.41-.1 18.84-.1 28.93zm.28 46.77c12.79-2.41 25.12-4.68 37.41-7.14 1-.2 2.32-1.56 2.52-2.56 1.88-9.85 3.56-19.74 5.4-30.24-15.33 1.96-30.2 3.87-45.33 5.8z" fill="currentColor"/>
</svg>