<svg enable-background="new 0 0 400 400" viewBox="0 0 400 400" xmlns="http://www.w3.org/2000/svg">
<path d="m178 215.38c-16.48 3.02-33.56 6.37-50.74 9.15-4.44.72-9.43.49-13.72-.79-6.96-2.08-13.6-5.28-20.26-8.26-1.77-.79-3.13-2.53-5.96-4.91 3.93-.8 6.24-1.51 8.58-1.71 24-2.05 48.01-3.93 72-6.05 11.72-1.03 11.69-1.21 12.01-13.02.11-4.16.27-8.31.44-12.46.17-4.13.38-8.25.6-12.96-9.87 1.06-19.22 1.92-28.53 3.1-19.44 2.46-38.84 5.24-58.3 7.58-9.01 1.08-18.33 2.97-27.09 1.66-8.39-1.26-16.25-6.16-24.29-9.56-.77-.33-1.24-1.38-2.73-3.14 4.72-.79 8.49-1.77 12.3-2 25.06-1.49 50.15-2.43 75.17-4.33 17.68-1.34 35.28-3.91 53.17-5.97 0-12.26 0-24.17 0-36.83-7.68.86-15.21 1.54-22.7 2.57-9.7 1.33-19.32 3.64-29.05 4.26-11.46.73-21.47-3.96-31.35-11.05 4.84-3.95 9.83-3.51 14.37-3.56 21.84-.26 43.5-1.84 64.81-7.02 3.21-.78 4.36-1.78 4.25-5.15-.46-14.45-.19-28.99-6.06-42.64-1.57-3.66-3.56-7.14-5.2-10.77-1.79-3.97-.71-5.98 3.53-5.59 11.75 1.06 22.67 4.95 32.64 11.25 2.95 1.86 3.22 4.31 2.07 8.12-2.3 7.55-3.5 15.49-4.63 23.34-.79 5.53-.7 11.19-1.05 17.59 7.74-1.54 15.02-2.79 22.19-4.48 7.91-1.86 15.66-4.42 23.6-6.08 3.97-.83 8.63-1.48 12.27-.2 8.56 3.01 16.97 6.73 24.9 11.13 6.12 3.4 6.38 7.55 2.53 13.32-5.7 8.53-8.41 18.16-11.15 29.01 15.52-2.22 30.15-4.1 44.69-6.47 11.13-1.82 28.33 4.92 34.53 14.11 2.31 3.41 1.63 5.76-2.52 6.42-6.55 1.04-13.18 1.83-19.8 2.03-19.77.61-39.55.88-59.67 1.29-2.01 11.52-3.94 22.08-5.55 32.69-.17 1.12 1.52 2.57 2.45 3.79 2.44 3.17 4.94 6.29 7.41 9.43-3.75 1.34-7.42 3.47-11.26 3.88-22.3 2.35-44.64 4.29-67.71 6.44 0 2.49.04 4.92-.01 7.35-.38 21.64-.42 43.29-1.26 64.91-.88 22.59-2.16 45.18-4.11 67.7-.49 5.64-3.86 11.18-6.58 16.42-1.84 3.56-4.3 3.25-5.31-.62-1.42-5.43-2.52-11.05-2.84-16.64-.69-11.79-.98-23.61-1.08-35.42-.15-17.99.01-35.99.02-53.99-.01-15.47-.02-30.9-.02-46.87zm23.85-65.9c17-2.53 34.15-5.04 51.26-7.77.96-.15 2.24-2.01 2.36-3.18.85-8.24 1.83-16.51 1.99-24.78.15-7.64-4.73-12.27-11.99-11.22-14.38 2.08-28.67 4.8-43.63 7.36.01 13.37.01 25.92.01 39.59zm52.13 8.77c-18.07 1.49-35.34 2.91-53.56 4.41v35.49c15.9-1.41 32.33-2.86 49.15-4.34 1.47-11.86 2.89-23.29 4.41-35.56z" fill="currentColor"/>
</svg>