<svg enable-background="new 0 0 400 400" viewBox="0 0 400 400" xmlns="http://www.w3.org/2000/svg">
<path d="m258.67 307.24c6.11 1.25 12.22 2.52 18.34 3.72 2.28.45 4.59.74 6.89 1.05 7.64 1.03 9.86-.24 11.46-7.84 1.02-4.84 1.55-9.89 1.51-14.83-.2-24.47.32-49.01-1.29-73.4-1.86-28.3-5.53-56.49-8.78-84.68-.5-4.31-2.49-8.63-4.59-12.51-2.7-4.98-7.35-7.89-13.16-7.61-19.76.95-39.52 2.08-59.26 3.35-1.3.08-3.28 1.65-3.6 2.88-2.3 8.78-4.25 17.65-6.39 26.8 7.22 1.19 14.91 2.22 22.48 3.79 6.32 1.31 12.66 2.86 18.73 5.03 9.4 3.36 14.41 10.99 14.08 20.18-.22 6-3.44 8.78-8.72 6.12-8.42-4.22-16.47-9.26-24.32-14.5-8.27-5.52-16.12-11.69-24.5-17.83-11.17 21.18-26.87 37.31-49.08 46.46-2.76 1.14-5.62 2.03-9.22 2.21 26.59-20.08 39.97-47.46 46.9-79.3-12.25 1.09-23.8 2.09-35.34 3.16-8.44.78-16.85 1.85-25.3 2.36-3.45.21-4.01 1.66-4.12 4.63-.68 17.45-1.32 34.91-2.38 52.34-2.6 43.11-4.22 86.35-14.84 128.53-1.29 5.11-2.99 10.21-5.23 14.97-2.07 4.39-5.63 4.48-7.76.15-6.53-13.29-10.03-26.44-3.53-41.52 4.72-10.94 7.07-23.15 8.92-35.03 4.45-28.59 7.34-57.41 6.89-86.39-.18-11.72-2.04-23.45-3.61-35.11-.49-3.68-2.47-7.18-3.82-10.74-1.19-3.12-.34-5.1 3.16-4.79 4.95.43 9.84 1.64 14.79 1.86 7.94.35 15.91.49 23.84.11 16.43-.77 32.85-1.94 49.78-2.98 0-9.64.43-19.09-.11-28.48-.61-10.6-1.86-21.17-7.69-30.57-2-3.23-.58-5.24 3.14-4.96 9.63.72 18.51 3.78 26.45 9.32 2.98 2.08 2.83 5.02 2.39 8.46-1.8 14.12-3.17 28.31-4.8 43.4 9.93-1.3 18.43-2.18 26.84-3.57 14.06-2.33 28.04-5.25 42.12-7.45 15.18-2.37 28.15 3.04 39.53 12.72 3.74 3.18 5.32 7.62 3.02 12.17-4.44 8.79-5.26 18.32-5.09 27.68.64 34.1 1.65 68.2 3.16 102.27.9 20.4 3.6 40.73 4.35 61.13.51 13.8-3.2 27.04-11.25 38.65-7.92 11.43-13.73 11.04-19.92-1.42-5.88-11.85-14.49-21.42-24.31-30.07-2.78-2.45-5.2-5.33-7.79-8.01.31-.63.67-1.27 1.03-1.91z" fill="currentColor"/>
<path d="m197.45 216.98c-14.35 25.95-38.01 39.64-63.83 50.49-.41-.4-.83-.81-1.24-1.21 1.38-1.63 2.58-3.46 4.16-4.86 9.33-8.29 18.94-16.28 28.09-24.76 10.59-9.82 17.6-21.99 21.73-35.82 1.05-3.5 2.03-6.83-.48-10.37-2.11-2.96.33-5.01 2.79-4.26 7.21 2.21 14.3 4.95 21.2 8.01 2.67 1.19 2.56 4 .7 6.4-2.85 3.68-5.68 7.39-8.5 11.09-.87 1.15-1.7 2.33-2.29 3.14 14.14 3.72 28.1 7.17 41.92 11.14 7.27 2.09 13.64 6.06 18.67 11.94 4.44 5.2 6.48 11.03 5.86 17.93-.54 6.07-3.52 8.41-8.93 5.57-5.71-3.01-11.14-6.66-16.28-10.57-14.44-10.99-28.66-22.25-43.57-33.86z" fill="currentColor"/>
</svg>