<svg enable-background="new 0 0 400 400" viewBox="0 0 400 400" xmlns="http://www.w3.org/2000/svg">
<path d="m195.98 88.48c4.76 2.93 8.84 5.11 12.54 7.82 4.96 3.64 5.15 6.55 3.75 12.62-3.3 14.32-6.09 28.76-9.42 44.72 13.05-2.97 24.27-5.49 35.48-8.12 2.25-.53 4.4-1.45 6.6-2.21 7.32-2.52 14.45-2.3 21.05 2 5.56 3.63 11.21 7.22 16.31 11.44 4.56 3.77 4.07 8.12-1.18 10.79-7.31 3.71-11.82 9.71-14.92 16.82-3.31 7.61-5.96 15.5-8.87 23.28-.9 2.41-.54 4.21 1.74 5.99 2.31 1.81 4.27 4.23 5.91 6.7 2.41 3.63 1.57 6.14-2.76 6.88-7.67 1.32-15.45 2.17-23.22 2.8-12.1.98-24.22 1.6-36.34 2.42-1.1.07-2.18.46-2.32.49 1.99 2.45 4.13 5.17 6.37 7.8 3.81 4.48 4.85 9.08 3.45 15.17-2.67 11.61-4.2 23.5-6.03 35.29-.73 4.69-.97 9.46-1.5 14.86 7.66-.91 14.71-1.68 21.73-2.61 21.38-2.84 42.71-6.14 64.15-8.45 10.99-1.18 19.9 4.32 27.1 12.41 3.97 4.46 3.27 7.22-2.62 7.88-9.06 1.02-18.21 1.36-27.33 1.59-15.78.4-31.6 0-47.36.84-17.25.92-34.48 2.55-51.66 4.44-24.57 2.69-49.12 5.73-73.62 9.02-4.29.58-8.41 2.95-12.42 4.87-4.57 2.2-8.76 1.95-11.41-2.44-5.67-9.41-10.08-18.63-6.1-30.8 4.08-12.49 6.62-25.86 7.42-38.99 2.33-38.34 4.14-76.74 4.75-115.14.27-17.16-2.58-34.39-4.49-51.53-.46-4.15-2.86-8.08-4.3-12.14-1.64-4.64-.52-6.53 4.25-6.08 4.93.47 10.01 1.11 14.63 2.76 10.38 3.69 20.85 2.38 31.12.79 29.18-4.51 58.28-9.54 87.36-14.65 9.62-1.69 19.04-4.53 28.65-6.34 10.05-1.89 20-1.53 28.62 4.91 2.09 1.56 3.32 4.27 4.94 6.44-2.26 1.44-4.37 3.73-6.81 4.17-10.94 1.97-21.96 3.52-32.97 5-16.41 2.24-32.87 4.26-50.27 6.49zm-85.23 144.87c9.13-1.2 17.36-2.12 25.54-3.38 32.32-4.98 64.63-10.03 96.91-15.24 1.39-.22 3.36-2.21 3.57-3.6 2.11-13.61 3.99-27.25 5.75-40.91.76-5.91-1.19-8.05-7.07-8.16-3.66-.07-7.41-.28-10.97.38-19.9 3.68-39.73 7.78-59.65 11.37-13.52 2.44-27.13 4.42-40.75 6.26-3.31.45-6.8-.48-10.52-.8-.93 17.89-1.84 35.45-2.81 54.08zm73.25 3.47c-16.2 3.01-31.55 5.69-46.81 8.77-7.56 1.52-14.48.73-20.99-3.43-1.61-1.03-3.28-1.95-5.52-3.27-.39 6.77-.77 12.87-1.1 18.96-.85 15.77-1.83 31.54-2.44 47.32-.26 6.73 2.37 9.21 9.06 8.71 12.59-.93 25.15-2.2 37.72-3.4 9.88-.94 19.75-1.99 30.05-3.03 1.13-23.55 4.18-46.78.03-70.63zm-69.49-141.25v73.17c.15.02.65.19 1.12.11 21.9-3.63 43.81-7.25 65.68-11.06 1.06-.18 2.55-2.05 2.61-3.2.75-15.25 1.44-30.51 1.73-45.78.06-3.37-1.24-6.85-2.38-10.13-2.35-6.76-6.26-8.95-13.47-7.83-17.93 2.8-35.44 9.65-55.29 4.72z" fill="currentColor"/>
</svg>