<svg enable-background="new 0 0 400 400" viewBox="0 0 400 400" xmlns="http://www.w3.org/2000/svg">
<path d="m159.63 125.35c7.58-.86 14.5-1.34 21.3-2.48 15.05-2.51 30.04-5.36 45.05-8.08.65-.12 1.28-.39 1.88-.66 24.24-10.81 42.68 1.6 60.39 15.58 6.18 4.88 6.08 9.55 1.81 16.32-6.5 10.3-7.71 21.95-7.77 33.57-.21 42.66.19 85.32.03 127.98-.07 18.24-6.49 34.84-15.41 50.43-3.65 6.38-8.65 6.07-11.99-.44-4.41-8.57-8.61-17.27-12.51-26.08-6.26-14.12-16.47-20.32-32.17-18.53-11.37 1.3-22.93.86-34.39 1.47-13.27.71-26.54 1.63-39.78 2.8-1.38.12-3.1 2.39-3.72 4.02-1.92 5.09-3.01 10.51-5.14 15.5-2.07 4.85-5.92 5.12-7.72.3-3.16-8.46-6.83-17.31-7.16-26.12-.48-12.66 1.87-25.42 2.96-38.15.57-6.62 1.33-13.25 1.48-19.89.42-18.31 1.27-36.65.63-54.93-.62-17.71-2.73-35.37-4.54-53.01-.34-3.34-2.45-6.49-3.61-9.77-1.9-5.37-.32-7.39 5.28-7.48 9.81-.15 19.63-.39 29.43-.88 1.44-.07 3.38-1.36 4.13-2.64 10.92-18.73 20.31-38.21 24.87-59.52 1.15-5.38.22-11.51-1.03-17.01-1.68-7.4-.12-10.29 7.34-8.53 8.01 1.89 15.97 4.65 23.38 8.22 7.43 3.58 7.8 10.18 1.89 16.96-7.33 8.41-15.34 16.29-22 25.2-7.74 10.35-14.35 21.55-21.42 32.41-.51.77-.77 1.73-1.49 3.44zm-26.27 182.02c4.27-.5 8.21-.96 12.15-1.42 19.13-2.24 38.24-4.74 57.41-6.6 8.24-.8 16.65-.71 24.92-.18 6.4.41 11.85 3.38 16.32 8.51 4.72 5.42 8.02 4.64 10.15-2.23 1.45-4.69 2.44-9.72 2.51-14.61.29-20.45.44-40.92.1-61.37-.35-21.28-.78-42.6-2.27-63.82-.7-9.96-3.68-19.82-6.16-29.59-1.34-5.29-5.55-8.42-10.97-8.82-5.12-.38-10.35-.28-15.45.29-18.14 2.04-36.26 4.36-54.38 6.59-10.98 1.35-21.97 2.71-32.88 4.07v58.82c9.81-1.24 19.24-2.01 28.5-3.69 12.72-2.31 25.26-5.58 37.98-7.88 6.84-1.24 13.99-1.93 20.17 2.78 4.11 3.14 4.01 6.93-.47 9.51-2.56 1.47-5.41 2.6-8.26 3.38-19 5.19-38.45 7.33-58.06 8.26-7.05.33-14.14.05-21.23.05v39.7c2.7-.25 5.04-.3 7.31-.7 19.43-3.36 38.82-7 58.29-10.08 7.92-1.25 16.05-1.15 23.09 3.75 4.14 2.88 4.09 5.86-.12 8.58-2.34 1.52-5.01 2.63-7.65 3.58-13.95 5-28.6 5.85-43.18 6.75-12.56.78-25.16.93-37.82 1.36z" fill="currentColor"/>
</svg>