<svg enable-background="new 0 0 400 400" viewBox="0 0 400 400" xmlns="http://www.w3.org/2000/svg">
<path d="m194.65 310.61c0-16.07 0-31.34 0-47.08-10.98 1.73-21.63 3.29-32.24 5.09-13.57 2.31-27.12 4.57-39.24-4.6-2.36-1.78-4.07-4.41-6.09-6.65 2.97-1.17 5.85-2.96 8.93-3.4 22.34-3.16 44.73-6.05 67.09-9.03.47-.06.92-.27 1.91-.57-.66-16.32.13-32.86-9.62-47.49-1.21-1.81-1.07-4.52-1.56-6.81 2.2-.38 4.63-1.57 6.54-1 7.91 2.36 15.77 4.95 23.41 8.06 3.91 1.59 4.63 4.82 3.75 9.49-2.16 11.47-3.19 23.16-4.77 35.55 15.22-2.79 29.03-5.54 42.92-7.81 11.32-1.85 20.55 2.72 28.09 10.83 3.02 3.24 2.02 6.23-2.43 7.3-4 .96-8.2 1.09-12.32 1.56-17.64 2.01-35.29 3.97-52.91 6.15-1.09.13-2.79 2.02-2.8 3.1-.19 14.95-.13 29.9-.13 45.42 3.77-.29 8.32-.49 12.84-.99 25.58-2.85 51.13-6.12 76.76-8.49 9.02-.84 18.34-.29 27.33.97 9.93 1.4 17.92 7.11 23.42 15.55 1.56 2.4 2.77 6.34 1.83 8.63-.68 1.66-5.22 2.65-7.91 2.43-6.91-.58-13.72-2.59-20.62-2.97-17.39-.97-34.81-1.61-52.23-1.89-9.63-.16-19.3.41-28.92 1.09-25.7 1.83-51.47 3.09-77.03 6.07-28.99 3.38-57.79 8.34-86.66 12.74-7.46 1.14-13.89-.94-19.47-5.61-4.35-3.64-8.27-7.79-11.92-12.77 48.7-.32 96.15-7.43 144.05-12.87z" fill="currentColor"/>
<path d="m185.79 90.4c-12.05 1.12-23.74 2.26-35.43 3.29-11.73 1.03-22.38-2.03-31.98-8.8-.67-.47-1.24-1.12-1.77-1.75-.29-.35-.41-.85-.93-2.01 2-.53 3.76-1.22 5.57-1.44 29.67-3.66 59.42-6.72 88.98-11.05 21.82-3.19 43.37-8.17 65.1-12.03 10.17-1.81 18.46 2.84 25.61 9.49 2.94 2.74 1.73 5.9-1.7 7.09-5.61 1.94-11.38 3.8-17.24 4.57-23.22 3.03-46.5 5.62-69.76 8.39-2.58.31-5.15.7-8.1 1.1 2.58 2.92 5.12 5.3 7.04 8.09 4.01 5.82 3.53 10.48-1.26 15.7-14.4 15.71-28.83 31.38-43.22 47.1-1.57 1.71-3.08 3.52-4.32 5.48-2.86 4.53-1.59 7.12 3.73 6.88 8.29-.38 16.58-1.14 24.84-2.05 15.85-1.73 31.67-3.66 47.5-5.55 6.53-.78 13.04-1.67 20.23-2.59-5.15-6.13-9.91-11.61-14.44-17.27-2.28-2.84-4.41-5.87-6.11-9.08-2-3.77-.26-6.15 4.04-5.66 3.12.35 6.29.93 9.23 1.99 12.91 4.65 25.1 10.74 35.76 19.5 8.74 7.18 13.61 16.49 12.68 27.89-.29 3.52-2.52 8.1-5.31 9.76-1.95 1.16-6.9-1.1-9.57-3.08-5.18-3.86-9.59-8.73-14.56-12.9-1.46-1.23-3.93-2.44-5.58-2.07-38.52 8.67-77.03 17.37-115.43 26.57-8.64 2.07-16.95 5.75-25.19 9.22-9.33 3.94-13.16 2.21-15.15-7.72-2.94-14.65-.48-20.02 13.8-26.18 34.16-14.73 51.52-42.96 62.48-76.52.26-.78.41-1.6.53-2.42.07-.49-.03-1-.07-1.94z" fill="currentColor"/>
</svg>