<svg enable-background="new 0 0 400 400" viewBox="0 0 400 400" xmlns="http://www.w3.org/2000/svg">
<path d="m297.23 211.86c-15.64 3.42-30.08 7.21-44.75 9.6-12.85 2.09-25.92 2.27-38-4.23-2.27-1.22-4.42-2.69-6.62-4.05 0-.51 0-1.03 0-1.54 2.66-.83 5.28-1.95 8-2.44 16.49-2.94 33.01-5.74 49.52-8.57 10.54-1.81 20.84-.83 31.32 3.36 1.32-16.25 3.54-32.05 1.07-47.94-1.81-11.63-13.86-19.2-25.39-16.43-14.52 3.49-29 7.17-43.62 10.12-12.21 2.46-22.04-3.01-30.5-11.3-.77-.76-1.41-2.69-.98-3.38.52-.85 2.21-1.31 3.43-1.36 7.14-.32 14.31-.28 21.44-.73 22.26-1.4 44.31-3.9 65.6-11.24 4.17-1.44 9.21-1.37 13.68-.76 10.53 1.42 20.19 5.44 28.63 12 4.81 3.74 6.18 8.61 2.88 13.65-9.74 14.86-10.81 31.91-12.75 48.65-3.85 33.13-5.11 66.61-14.08 99-3.94 14.23-10.04 27.45-19.78 38.73-2.48 2.88-5.22 5.65-8.27 7.89-5.18 3.8-8.47 2.39-10.1-3.8-1.65-6.25-3.45-12.47-5.02-18.74-3.18-12.69-12.44-17.92-24.3-18.1-21.09-.31-42.2.21-63.29.75-11.79.3-23.57 1.32-35.35 2.05-5.46.34-10.92.75-16.31 1.13-1.99 7.42-3.92 14.61-5.85 21.81-.72.01-1.43.01-2.15.02-1.18-2.25-2.84-4.38-3.45-6.77-4.22-16.54-8.61-33.06-12.21-49.74-5.34-24.8-9.83-49.79-15.18-74.59-2.53-11.73-6.75-22.92-14.86-32.26-1.36-1.57-1.55-4.15-2.28-6.26 2.13-.59 4.26-1.68 6.39-1.66 4.47.03 8.93.75 13.41.93 1.33.05 3.08-.37 3.99-1.25 21.98-21.08 44-42.12 65.64-63.54 4.03-3.99 6.92-9.38 9.47-14.55 1.53-3.1 1.66-7.01 1.93-10.59.36-4.87 1.78-6.87 6.4-5.96 11.71 2.32 21.83 7.89 30.01 16.63 2.74 2.93 2.13 6.12-1.1 8.62-.92.71-1.87 1.45-2.93 1.88-20.35 8.26-37.06 22.1-54.07 35.42-15.2 11.91-30.18 24.1-45.28 36.14-.52.41-1.19.62-1.19.62 2.66 4.19 5.44 7.52 6.97 11.36 1.09 2.73.34 6.15.66 9.24 1.35 13.21 2.86 26.41 4.13 39.63.35 3.62 2.23 3.92 5.09 3.28 15.04-3.37 30.06-6.83 45.15-9.99 7.57-1.59 15.26-1.93 22.32 2.03 1.82 1.02 3.93 3.04 4.18 4.84.18 1.28-2.28 3.78-4.01 4.33-9.44 3.01-18.87 6.73-28.59 8.01-11.96 1.58-24.21.99-36.34 1.33-1.79.05-3.59.01-5.69.01 2.43 19.5 4.81 38.57 7.27 58.24 10.04-.97 19.9-1.92 29.75-2.86 16.04-1.54 32.06-3.22 48.12-4.56 11.43-.95 22.89-1.7 34.35-2 4.91-.13 9.9.85 14.77 1.8 6.26 1.22 11.19 4.58 15.01 9.88 5.58 7.75 11.02 7.74 14.82-1.04 4.85-11.19 9.05-22.87 11.69-34.75 3.37-15.16 4.9-30.72 7.2-46z" fill="currentColor"/>
</svg>