<svg enable-background="new 0 0 400 400" viewBox="0 0 400 400" xmlns="http://www.w3.org/2000/svg">
<path d="m186.8 248.94c0-18.05 0-35.66 0-53.91-8.4 1.08-16.58 1.94-24.69 3.2-25.08 3.9-50.27 7.32-75.17 12.16-15.7 3.05-27.17-2.83-37.62-13.12-.64-.63-.96-1.59-2-3.38 47.5.9 93.14-7.91 139.68-14.49 0-9.64.27-19.08-.08-28.5-.3-8.09-1.29-16.16-2.03-24.24-.07-.81-.49-1.58-.74-2.37-1.22-3.86-2.87-5.19-7.59-3.93-16.16 4.29-32.54 7.79-48.86 11.47-1.82.41-3.81.06-5.72.06-.15-.45-.3-.9-.44-1.34 3.3-1.57 6.51-3.35 9.9-4.67 31.25-12.07 60.11-28.36 86.36-49.18 6.41-5.09 12.03-10.95 14.46-19.25.36-1.22 3.08-2.69 4.45-2.47 3.38.54 6.91 1.49 9.85 3.19 8.32 4.82 16.51 9.91 24.45 15.33 1.91 1.3 3.97 4.55 3.59 6.41-.34 1.69-3.77 3.35-6.11 3.93-25.34 6.28-48.68 17.57-72.18 28.48-.58.27-1.05.74-1.66 1.18 4.47 3.39 8.94 6.54 13.14 10.01 3.72 3.07 5.16 6.21 3.85 11.94-3.12 13.66-4.51 27.72-6.73 42.45 8.55-.88 15.58-1.53 22.6-2.33 19.14-2.18 38.28-4.37 57.4-6.64 11.54-1.37 23.1-2.69 34.59-4.43 13.05-1.97 26.76 3.92 33.62 14.91 2.15 3.44 1.39 5.32-2.74 5.6-5.61.38-11.25.17-16.87.44-31.21 1.47-62.42 2.89-93.61 4.61-10.27.57-20.51 1.88-30.73 3.17-1.37.17-3.52 2.14-3.6 3.39-1.06 16.24-1.81 32.5-2.69 49.58 7.79-1.27 15.12-2.12 22.29-3.72 10.49-2.33 20.81-5.41 31.3-7.7 3.42-.74 7.28-.56 10.74.17 10.51 2.22 20.3 6.35 28.8 13.03 6.78 5.33 6.49 8.71.74 15.11-4.18 4.65-7.86 9.9-10.95 15.35-4.66 8.22-8.53 16.89-12.89 25.28-1.31 2.53-1.38 4.26.79 6.51 2.63 2.72 4.88 5.92 6.83 9.19 2.47 4.15 1.47 5.67-3.26 5.78-11.98.28-23.96.32-35.92.88-26.41 1.23-52.81 2.79-79.22 4.03-3.08.14-3.42 1.94-3.95 4.03-1.31 5.09-2.5 10.24-7.54 14.91-1.86-3.68-4.03-6.52-4.77-9.7-3.54-15.17-6.84-30.41-9.92-45.68-2.69-13.36-4.8-26.84-13.31-38.19-.98-1.3-.98-3.33-1.44-5.02 2.19-.43 4.48-1.5 6.56-1.19 18.76 2.73 37.51 1.8 56.27.32.82-.08 1.61-.38 2.77-.65zm-33.3 14.48c1.47 18.72 2.9 37.01 4.38 55.8 8.76-.77 17.19-1.49 25.62-2.24 23-2.04 46.01-4.04 68.99-6.29 1.26-.12 3.2-2.2 3.34-3.53 1.4-13.21 2.6-26.45 3.63-39.7.68-8.77-4.47-14.2-13.38-14.36-2.65-.05-5.33.14-7.97.43-16.34 1.82-32.69 3.66-49.02 5.56-11.84 1.39-23.67 2.88-35.59 4.33z" fill="currentColor"/>
</svg>