<svg enable-background="new 0 0 400 400" viewBox="0 0 400 400" xmlns="http://www.w3.org/2000/svg">
<path d="m258.69 206.51c-18.7 3.52-37.08 5.67-53.58 14.72-2.59 1.42-4.7 3.7-7.16 5.38-4.36 2.99-8.15 2.1-9.94-2.89-3.12-8.69-4.03-16.89 2.27-25.39 8.01-10.8 11.94-23.03 5.55-36.42-.41-.85-.54-1.84-.97-3.36 7.14-1.48 12.41 1.93 17.54 5.3 3.98 2.61 3.63 6.39 2.48 10.64-1.55 5.74-2.53 11.66-3.34 17.55-.73 5.36 1.97 8.33 7.04 7.68 13.32-1.71 26.6-3.72 40.08-5.64 0-16.38 0-32.31 0-48.44-19.74 2.77-39.67 9.65-57.53-4.56-.09-.7-.17-1.4-.26-2.1 4.02-1 8.03-2.06 12.06-2.98 14.22-3.26 28.47-6.4 42.64-9.84 1.34-.33 3.22-2.49 3.2-3.78-.32-21.29-1.12-42.56-5.93-63.41-1-4.34-2.9-8.48-4.41-12.7-2.37-6.64-.08-9.72 6.6-7.96 7.35 1.94 14.68 4.28 21.63 7.35 7.19 3.18 7.94 7.55 5.81 15.05-1.98 6.97-3.43 14.27-3.77 21.49-.6 12.72-.17 25.5-.17 38.62 5.5-1.12 11.47-2.24 17.4-3.56 7.26-1.62 13.88-.33 19.88 4.01 4.49 3.25 4.46 6.42-.7 8.3-8.07 2.94-16.44 5.09-24.73 7.43-4.11 1.16-10.07.69-12 3.31-2.19 2.98-.95 8.58-.98 13.04-.07 12.31-.02 24.62-.02 37.57 7-.82 13.54-1.39 20.02-2.39 10.82-1.67 21.54-4.08 32.41-5.34 12.21-1.42 21.93 4.25 29.92 12.96 2.89 3.15 1.78 6.53-2.86 7.16-8.16 1.1-16.57 2.06-24.71 1.33-18.14-1.63-36.15-1.37-55 .64 0 6.48.01 12.78 0 19.07-.05 22.99.37 46-.32 68.98-.63 20.91-2.36 41.79-3.87 62.67-.27 3.73-1.64 7.44-2.93 11.01-.47 1.31-2.17 2.19-3.3 3.26-1.01-1.16-2.61-2.17-2.92-3.5-1.19-4.99-2.52-10.06-2.77-15.15-.75-15.29-1.24-30.6-1.43-45.9-.38-31.64-.48-63.28-.71-94.93.01-1.15-.1-2.29-.22-4.28z" fill="currentColor"/>
<path d="m117.33 218.17c-12.99-5.93-21.58-15.8-27.09-28.4-1.18-2.69-1.13-5.92-1.65-8.91 2.97.31 6.25-.1 8.86 1.04 10.02 4.36 19.65 9.42 22.93 21.15.61 2.19.89 4.48 1.56 8 2.92-5.12 5.57-9.19 7.65-13.53 6.76-14.05 13.36-28.19 19.92-42.34.82-1.77 1.12-3.81 1.49-5.76 1.26-6.67-1.52-9.45-8.17-8.02-3.4.73-6.72 2.61-10.07 2.6-6.07-.03-12.2-.76-18.19-1.84-3.18-.57-5.26-.48-7.84 1.93-8.5 7.95-17.3 15.6-26.21 23.09-2.93 2.46-6.56 4.07-9.87 6.07-.39-.42-.78-.85-1.17-1.27 2.09-2.83 4.13-5.72 6.29-8.5 18.02-23.17 31.58-48.83 41.73-76.26 1.63-4.41 1-9.81.79-14.72-.23-5.34 1.16-7.28 6.06-5.4 7.72 2.95 15.34 6.38 22.55 10.4 5.17 2.88 5.03 5.32 1.56 10.04-10.26 13.94-20.46 27.91-30.62 41.92-.82 1.12-1.1 2.63-1.63 3.97 1.5.5 3.01 1.48 4.49 1.43 12.4-.45 24.31-3.12 35.77-7.98 2.35-1 5.96-1.84 7.8-.75 7.36 4.35 14.4 9.29 21.23 14.45 2.55 1.93 2.74 5.25-.44 7.15-9.52 5.67-14.54 14.9-19.48 24.14-13.95 26.12-27.72 52.34-45.98 75.85-12.9 16.6-25.87 33.21-44.09 44.39-7.73 4.75-16.25 8.23-24.48 12.16-1.52.73-3.32.86-5.43.64 27.89-25.52 55.38-51.12 71.73-86.74z" fill="currentColor"/>
</svg>