<svg enable-background="new 0 0 400 400" viewBox="0 0 400 400" xmlns="http://www.w3.org/2000/svg">
<path d="m97.34 195.3c-.93 9.98-.9 9.92 7.87 13.4 18.47 7.34 35.64 17.15 52.19 28.05 2.74 1.81 4.6 2.1 7.36-.12 13.2-10.63 23.25-23.73 30.95-38.68 1.49-2.89 2.17-6.25 2.86-9.47.82-3.82 2.9-5.31 6.41-3.65 8.72 4.13 17.41 8.36 25.95 12.84 3.3 1.73 3.07 4.85-.73 7.46-5.34 3.66-11.13 6.67-16.51 10.28-14.63 9.84-29.14 19.86-44.52 30.37 2.68 1.79 4.64 3.14 6.63 4.43 40.39 26.05 84.67 41.74 131.88 49.79 7.56 1.29 14.98 3.4 22.47 5.14v2.5c-4.46 1.06-8.87 2.38-13.38 3.12-15.88 2.61-31.83 4.8-47.67 7.58-16.16 2.84-30.81-.42-43.85-10.18-24.51-18.35-48.97-36.77-73.23-55.44-15.16-11.67-29.53-24.41-46.89-32.91-2.35-1.15-4.83-2.04-8.82-3.71.8 34.57-2.78 68.04.08 102.87 25.56-11.44 49.23-22.03 72.9-32.62.39.6.79 1.2 1.18 1.8-2.51 2.44-4.87 5.06-7.56 7.28-22.22 18.33-44.54 36.54-66.75 54.88-5.13 4.24-10 8.8-14.94 13.26-5.83 5.27-9.26 4.73-13.49-1.93-7.54-11.88-8.76-23.8-2.1-36.73 6.17-11.98 7.53-25.4 9.25-38.57 4.66-35.65 3.5-71.48 2.52-107.24-.63-22.91-2.22-45.86-4.81-68.63-1.06-9.28-5.91-18.13-9.01-27.18-.57-1.65-1.89-4.26-1.3-4.84 1.19-1.18 3.47-1.79 5.28-1.73 7.77.26 15.64 1.93 23.26 1.07 13.63-1.53 27.23-3.96 40.61-7.01 16.49-3.76 32.76-8.51 49.1-12.9 2.88-.77 5.91-1.48 8.46-2.94 9.63-5.5 19.18-4.2 28.65.04 6.5 2.91 13 5.94 19.11 9.58 4.48 2.67 5.02 6.86 1.44 10.55-14.95 15.46-21.23 34.87-26.34 55.05-3.57 14.12-8.11 28-12.51 41.89-1.08 3.42-3.04 6.65-5.02 9.69-3.19 4.89-7.29 5.12-10.1.14-2.32-4.11-4.82-4.18-8.83-3.23-21.63 5.12-43.31 10.03-65 14.86-4.16.96-8.5 1.2-13.05 1.79zm-3.11-68.41c13.27-1.1 25.73-3.32 37.58-8.61 9.1-4.06 18.62-6.92 28.42-2.83 2.95 1.23 5.1 4.39 7.62 6.67-2.49 1.98-4.71 5.06-7.51 5.75-12.69 3.11-25.46 6.05-38.36 8.06-8.62 1.35-17.5 1.05-25.49 1.45v44.4c2.28 0 3.31.18 4.26-.03 24.59-5.45 49.14-11.11 73.79-16.3 6.04-1.27 8.47-4.44 9.42-10.11 3.66-21.92 7.9-43.76 11.24-65.73 2.45-16.11 2.09-19.77-17.15-16.85-16.05 2.44-31.92 6.13-47.83 9.42-12 2.48-23.95 5.18-35.98 7.8-.01 12.32-.01 24.27-.01 36.91z" fill="currentColor"/>
</svg>