<svg enable-background="new 0 0 400 400" viewBox="0 0 400 400" xmlns="http://www.w3.org/2000/svg">
<path d="m140.9 90.2c-18.29 14.49-34.12 31.39-55.25 40.98-.47-.42-.94-.84-1.41-1.26 1.83-2.53 3.4-5.31 5.53-7.56 15.01-15.87 29.23-32.36 40.96-50.86 2.05-3.23 4.06-6.48 6.03-9.76 5.17-8.6 8.27-17.69 7.25-27.96-.48-4.79 1.73-6.62 5.87-4.36 7.68 4.19 15.18 8.87 22.2 14.09 4.47 3.32 3.72 6.31-.1 10.44-8.11 8.76-15.94 17.78-23.87 26.71-.4.46-.65 1.05-1.44 2.36 15.12-.41 29.82-.97 42.78-7.4 13.26-6.58 24.5-4.82 35.87 3.06 3.41 2.37 6.99 4.51 10.29 7.02 2.33 1.77 1.93 3.67-.68 4.99-17.54 8.87-31.36 22.31-44.54 36.47-7.45 8-14.44 16.44-21.63 24.68.3.56.6 1.11.89 1.67 13.2-4 26.54-7.62 39.54-12.18 6.46-2.27 12.44-3.13 18.84-.67 8.06 3.1 16.2 6 24.19 9.24 9.35 3.79 10.52 8.49 2.7 14.74-14.06 11.21-22.3 26.16-29.54 42.01-1.49 3.26-1.19 5.24 1.52 7.66 1.79 1.59 3.56 4.4 3.41 6.52-.09 1.31-3.71 2.97-5.96 3.41-20.68 4.07-41.37 8.04-62.11 11.79-23.17 4.19-46.4 8.1-69.58 12.27-1.28.23-3.2 1.72-3.33 2.8-1.76 14.7-3.12 29.44.78 44.04 2.74 10.25 8.78 17.58 18.67 21.94 12.22 5.39 25.14 7.86 38.23 8.54 42.66 2.24 85.04.14 126.57-10.89 7.16-1.9 14.11-4.81 20.88-7.85 8.71-3.92 13.93-10.97 16.41-20.21 3.57-13.3 7.33-26.54 11.06-39.79.52-1.85 1.36-3.61 3.08-5.33.32 5.48.88 10.96.93 16.44.15 15.9 1.76 31.5 7.94 46.38 2.96 7.12.34 12.93-5.04 17.84-7.91 7.22-17.81 10.54-27.83 12.63-20.44 4.27-40.97 8.51-61.66 11.09-21.72 2.71-43.66 4.23-65.54 4.85-17.93.51-35.73-2.44-53.29-6.45-27.08-6.18-40.82-24.07-45.68-50.44-3.58-19.44-.8-38.79-.2-58.2.53-17.11 1.26-34.28-3.74-50.99-1.09-3.66-2.74-7.15-3.75-10.83-.92-3.34.2-5.72 4.2-5.34 21.95 2.1 42.75-4.88 64.02-8.1.32-.05.63-.33.94-.32 11.92.37 18.95-6.47 24.68-15.97 7.8-12.94 16.26-25.49 24.19-38.35 1.71-2.77 2.71-6.08 3.47-9.28 1.04-4.37-1.04-6.84-5.57-6.46-6.95.57-13.87 1.52-20.78 2.48-7.36 1.08-14.58 1.22-21.4-2.33zm17.13 133.86c1.84-.16 3.18-.13 4.47-.4 11.5-2.45 22.91-5.51 34.52-7.24 7.34-1.09 10.53-4.03 11.71-11.44 1.99-12.57 5.4-24.92 7.82-37.43 2.1-10.86-2.47-15.01-13.19-12.58-7.91 1.79-15.85 3.51-23.77 5.26-8.3 1.84-16.61 3.68-25.71 5.69 2.41 1.74 4.11 2.77 5.59 4.06 3.42 2.99 4.76 6.44 3.05 11.09-5.1 13.88-4.11 28.39-4.49 42.99zm-68.4 14.07c17.28-3.51 33.84-6.8 50.33-10.4 1.13-.25 2.52-2.82 2.51-4.3-.06-12.81-.32-25.62-.76-38.43-.11-3.11-.86-6.27-1.76-9.27-1.01-3.36-2.87-5.13-7.09-4.04-6.24 1.61-12.7 2.39-19.08 3.46-8 1.34-16.01 2.63-24.15 3.96z" fill="currentColor"/>
</svg>