<svg enable-background="new 0 0 400 400" viewBox="0 0 400 400" xmlns="http://www.w3.org/2000/svg">
<path d="m234.29 108.77c-22.61 1.99-44.21 3.9-65.69 5.8-2.4 18.94.56 37.84-4.95 57.09-6.46-5.2-7.02-11.36-7.67-17.33-1.25-11.56-2.2-23.15-3.32-34.72-.09-.96-.51-1.9-.91-3.31-10.03 1.37-20.04 2.5-29.96 4.17-13.9 2.34-27.73 5.13-41.61 7.61-1.75.31-3.79.39-5.42-.2-8.76-3.17-16.13-8.48-22.32-15.43-.39-.44-.42-1.2-.61-1.8 32.92-2.18 65.67-4.35 99-6.56-3.35-16.68-6.16-32.34-15.18-46-.73-1.1-1.4-2.26-1.94-3.47-1.83-4.12-.53-6.63 3.83-5.74 8.7 1.79 17.37 4.09 25.72 7.1 4.39 1.58 6.32 5.31 5.16 10.94-2.36 11.44-1.52 23.07-.5 35.09 10.17-.79 19.74-1.51 29.31-2.3 11.59-.95 23.17-2.02 34.77-2.9 2.95-.22 5-.77 5.47-4.29 1.68-12.49 3.81-24.92 5.31-37.43.84-7.02-.29-13.9-3.77-20.3-.7-1.29-.45-3.11-.64-4.68 1.71-.18 3.69-1.02 5.08-.44 8.24 3.46 16.56 6.84 24.42 11.06 5.28 2.83 5.19 6.27 2.85 11.81-5.55 13.12-10.63 26.44-16.33 40.78 9.9-1.44 18.37-2.95 26.9-3.84 13.53-1.42 27.09-3.15 40.66-3.38 11.49-.19 20.77 5.33 26.54 15.72 3.16 5.7 1.37 9.14-5.16 9.06-5.28-.06-10.53-1.45-15.82-1.68-16.78-.74-33.56-1.28-50.35-1.75-7.16-.2-14.33.16-21.49-.11-3.6-.13-5.12 1.01-6.23 4.56-4.46 14.24-9.14 28.43-14.22 42.46-1.67 4.6-4.63 8.78-7.4 12.89-1.03 1.52-3.21 2.27-4.86 3.37-.53-.32-1.06-.65-1.59-.97.65-4.32 1.05-8.7 1.99-12.95 3.48-15.69 7.13-31.32 10.93-47.93z" fill="currentColor"/>
</svg>