<svg enable-background="new 0 0 400 400" viewBox="0 0 400 400" xmlns="http://www.w3.org/2000/svg">
<path d="m199.27 301.67c0-22.78 0-44.88 0-67.36-13.67 1.76-26.97 3.48-40.28 5.19-2.14.28-4.28.52-6.43.78-5.08.6-10.38.72-11.09 7.82-.11 1.13-2.17 2.07-3.33 3.1-1.04-1.21-2.56-2.26-3.03-3.66-4.11-12.27-8.29-24.53-11.93-36.94-4.7-16.03-9.68-31.83-20.93-44.78-.92-1.05-1.58-3.49-.99-4.37.66-.99 2.95-1.47 4.39-1.25 5.08.78 10.38 1.25 15.08 3.13 10.57 4.22 21.25 4.34 32.16 2.46 14.23-2.45 28.42-5.11 42.66-7.48 3.05-.51 4.23-1.63 4.1-4.8-.97-23.1-1.55-46.22-2.81-69.3-.52-9.53-3.74-18.53-8.83-26.74-.53-.85-1.18-1.67-1.47-2.6-.78-2.57-1.4-5.19-2.08-7.78 2.69-.32 5.62-1.48 8.03-.8 7.63 2.16 15.25 4.58 22.53 7.71 7.22 3.11 9.32 7.89 8.12 15.27-1.17 7.19-3 14.35-3.37 21.59-1.06 20.92-1.53 41.86-2.26 63.85 9.63-1.9 18.21-3.39 26.69-5.31 13.92-3.16 27.78-6.44 40.68-12.98 8.14-4.12 16.44-3.7 24.1 1.69 4.62 3.25 9.39 6.38 13.63 10.08 5.37 4.7 4.56 9.08-.91 13.59-4.43 3.66-8.8 7.74-12 12.45-6.32 9.32-11.81 19.21-17.81 29.12 2.7 2.55 5.02 4.44 6.98 6.66 3.63 4.11 2.86 7.07-2.53 8.09-8.8 1.66-17.72 2.72-26.59 4.01-16.59 2.41-33.18 4.8-49.77 7.24-1.12.16-2.18.69-4.04 1.3v67.16c19.52-4.07 39.66-8.28 60.3-12.59-6.24-9.62-13.71-18.56-17.33-31.23 3.37.88 5.53 1.02 7.27 1.95 20.44 10.96 38.92 24.47 53.31 42.88 9.52 12.18 12.76 26.24 9.49 41.36-.8 3.69-3.08 8.59-6.03 9.92-4.32 1.95-7.48-2.95-9.61-6.26-9.71-15.1-19.13-30.39-28.42-45.76-1.81-3-3.2-4.13-6.93-3.07-40.38 11.45-80.94 22.29-121.19 34.16-14.44 4.26-28.27 10.68-42.22 16.49-5.12 2.13-10.06 2.33-14.2-.79-6.44-4.87-12.72-10.15-18.17-16.09-4.73-5.15-2.64-9.29 4.37-9.88 9.27-.78 18.66-.65 27.83-2.01 20.67-3.08 41.26-6.75 61.85-10.36 7.64-1.36 15.21-3.2 23.01-4.86zm18.37-86.05c18.34-2.67 37.21-5.31 56.02-8.33 1.56-.25 3.5-2.81 3.94-4.61 2.74-11.29 5.19-22.64 7.56-34.01 2.52-12.07-1.03-15.62-13.02-13.3-16.93 3.28-33.88 6.5-50.76 9.98-1.31.27-2.92 2.31-3.18 3.75-.59 3.24-.53 6.62-.54 9.94-.05 12.08-.02 24.16-.02 36.58zm-74.05 14.18c1.81 0 2.99.16 4.11-.02 15.86-2.54 31.69-5.26 47.58-7.59 3.39-.5 4.41-1.57 4.37-4.91-.16-14.3-.06-28.61-.09-42.91 0-1.27-.26-2.53-.45-4.2-21.1 2.96-41.82 5.87-62.75 8.81 2.49 17.4 4.84 33.95 7.23 50.82z" fill="currentColor"/>
</svg>