<svg enable-background="new 0 0 400 400" viewBox="0 0 400 400" xmlns="http://www.w3.org/2000/svg">
<path d="m372.34 296.22c-2.68 1.17-5.24 2.84-8.04 3.45-21.61 4.66-43.48 5.74-65.42 3.43-10.9-1.15-18.67-8.07-25.39-16.25-21.67-26.37-43.25-52.81-65.12-79.02-12.25-14.68-25-28.94-37.97-43.91-4.33 5.36-8.15 10.08-12.04 14.91 2.38 3.32 4.78 6.29 6.75 9.52 4.42 7.25 6.37 14.8 5.36 23.66-2.06 17.99-3.16 36.1-4.34 54.18-.69 10.62-.96 21.29-.99 31.93-.01 2.53 1.07 6.32 2.85 7.25 1.76.92 5.38-.47 7.57-1.84 13.13-8.18 26.05-16.69 39.11-24.98 2.75-1.74 5.79-3.02 9.46-3.69-1.39 1.67-2.71 3.42-4.2 5.01-19.33 20.67-38.74 41.28-58.01 62.02-4.41 4.75-8.42 9.88-12.48 14.95-4.22 5.27-8.04 5.46-11.96-.05-7.27-10.22-10.29-20.6-3.62-32.89 8.57-15.8 12.35-33.27 14-51.09 1.59-17.2 3.26-34.43 3.71-51.68.23-8.93-2.09-17.93-3.26-26.9-.62-.09-1.23-.18-1.85-.27-3.08 3.33-6.18 6.64-9.24 9.99-15.33 16.69-30.62 33.44-49.16 46.71-13.77 9.85-28.92 17.02-45.21 21.7-2.14.62-4.4.85-6.6 1.26-.26-.44-.53-.88-.79-1.33 2.36-2.13 4.54-4.49 7.09-6.35 41.2-29.88 76.6-65.54 106.34-106.79 4.65-6.45 8.52-13.48 12.45-20.41 1.35-2.39 2.15-5.26 2.52-8 .7-5.28-.47-6-5.81-5.29-15.12 2.01-30.22 4.26-45.41 5.6-8.4.74-16.42-2.11-23.78-6.32-1.51-.87-2.81-2.11-5.58-4.24 3.56-1.06 5.72-2.09 7.95-2.31 55.36-5.47 109.26-18.4 163.07-31.8 9.73-2.42 19.17-1.99 27.63 4.23 6.3 4.64 6.13 8.85-1.36 11.27-8.63 2.79-17.67 4.47-26.63 6.08-23.17 4.17-46.39 8.03-70.95 12.25 3.32 2.67 5.73 4.45 7.96 6.43 5.32 4.73 5.22 7.38 0 12.15-5.25 4.81-10.37 9.77-15.47 14.59 18.54 19.19 36.32 37.59 54.92 56.84 6.22-9.37 12.81-18.34 18.34-27.91 5.06-8.74 9.53-17.92 13.15-27.33 1.73-4.51 1.32-10.02 1.08-15.04-.21-4.45.9-6.53 5.48-5.9 10.2 1.41 19.56 5.25 27.9 11.28 3.86 2.8 3.14 4.67-.48 8.27-20.41 20.26-40.62 40.71-61.69 61.9 14.21 11.56 27.1 22.57 40.55 32.88 23.92 18.33 50.69 30.98 79.89 38.51 4.32 1.12 8.57 2.6 12.73 4.23 1.87.73 3.43 2.25 5.13 3.41-.03.55-.09 1.12-.14 1.7z" fill="currentColor"/>
<path d="m164.79 39.83c10.62.86 21.92 3.86 32.33 9.91 10.84 6.3 11.94 17.89 8.48 27.41-1.59 4.36-4.99 6.01-9.12 3.92-16.22-8.2-30.73-18.59-40.5-34.4-2.83-4.59-1.47-6.63 4-6.83 1.17-.05 2.34-.01 4.81-.01z" fill="currentColor"/>
</svg>