<svg enable-background="new 0 0 400 400" viewBox="0 0 400 400" xmlns="http://www.w3.org/2000/svg">
<path d="m107.99 291.74c2.09-2.2 4.1-4.46 6.27-6.58 15.5-15.1 31.47-29.76 46.43-45.37 18.01-18.79 33.31-39.79 46.73-62.1 2.03-3.38 3.59-7.13 4.83-10.89 1.95-5.89-.89-9-6.89-7.19-11.45 3.44-22.65 7.72-34.13 11.04-7.42 2.15-15.1 3.93-22.77 4.56-8.75.72-15.88-4.08-22.4-9.48-.78-.64-1.13-1.79-2.05-3.33 5.89-.53 11.14-.77 16.32-1.51 24.03-3.43 47.96-7.47 70.18-17.81 5.93-2.76 11.29-6.9 16.53-10.91 3.77-2.89 7.56-4.43 11.97-2.55 5.95 2.53 11.88 5.19 17.52 8.32 5.18 2.87 5.24 6.26.43 10.08-13.28 10.55-21.95 24.88-31.64 38.36-.87 1.21-1.13 3.13-1.07 4.7.23 6.98.76 13.95 1.02 20.93.11 2.88 1.54 4.05 4.2 4.53 5.84 1.07 10.86.8 14.9-4.7 6.19-8.44 13.44-16.12 19.27-24.78 2.91-4.32 4.12-9.99 5.24-15.23 1-4.65 2.99-6.84 6.99-4.35 6.27 3.9 12.1 8.63 17.66 13.53 2.42 2.13 2.81 5.78-.97 7.43-14.11 6.16-24.19 17.45-35.43 27.27-2.48 2.17-4.94 4.36-7.9 6.97 3.33.92 6.07 1.47 8.67 2.42 11.98 4.42 22.65 10.68 25.39 24.29.87 4.3-.8 9.42-2.35 13.79-1.25 3.51-4.76 3.88-7.98 1.94-1.4-.84-2.58-2.07-3.8-3.19-13.38-12.25-26.75-24.51-40.13-36.76-.69-.63-1.48-1.14-3-2.3v6.1c.02 20.65.74 41.33-.14 61.95-.8 18.87-2.24 37.84-7.82 56.09-1.09 3.57-3.86 6.63-5.85 9.93-2.65-2.8-5.96-5.22-7.84-8.47-7.23-12.54-8.4-25.55-2.36-39.11 6.58-14.78 8.8-30.64 9.61-46.59.9-17.61.92-35.27 1.31-52.91.01-.6-.11-1.21-.28-2.98-30.3 34.85-60.16 68.77-103.45 86.14-.42-.44-.82-.86-1.22-1.28z" fill="currentColor"/>
<path d="m204.11 62.4c1.65-.58 2.96-1.36 4.32-1.45 12.36-.88 24.61-.25 36.3 4.28 12.05 4.67 16.65 14.08 13.23 26.3-1.53 5.47-5.68 7.97-10.06 4.86-14.48-10.27-28.57-21.1-42.79-31.74-.34-.26-.41-.88-1-2.25z" fill="currentColor"/>
</svg>