<svg enable-background="new 0 0 400 400" viewBox="0 0 400 400" xmlns="http://www.w3.org/2000/svg">
<path d="m196.73 203.75c-10.8.93-21.11 1.82-32.05 2.77 2.96 4.94 5.65 9.23 8.13 13.64 1.82 3.25 1.4 5.7-1.66 8.66-15.41 14.94-30.03 30.72-45.74 45.33-17.45 16.24-36.29 30.88-57.86 41.43-6.83 3.34-14.2 5.59-21.44 8.01-2.39.8-5.12.59-7.69.85-.19-.44-.38-.87-.57-1.31 2.26-1.44 4.42-3.06 6.78-4.29 38.4-19.99 69.14-48.84 95.35-82.82 5.88-7.62 10.49-16.1 12.91-26.04-4.79.39-9.3.44-13.65 1.28-1.62.31-2.93 2.43-4.3 3.81-2.92 2.92-5.76 2.85-7.73-.77-4.8-8.82-8-17.67-6.66-28.43 1.68-13.43 1.2-27.15 1.44-40.74.15-8.16.06-16.33-.21-24.49-.5-14.83-1.67-29.51-8.71-43.11-2.97-5.72-1.12-8.49 4.61-7.47 17.88 3.2 35.47.61 52.96-2.64 12.55-2.33 24.92-5.6 37.34-8.55 2.08-.49 4.21-1.23 6.04-2.31 9.58-5.66 19-4.85 28.44.29 5.11 2.78 10.42 5.24 15.38 8.27 5.42 3.32 7.55 9.02 4.2 13.65-7.04 9.72-7.14 20.96-7.84 31.92-1.76 27.39-2.83 54.82-4.23 82.23-.43 8.34-2.88 15.96-8.48 22.37-3.86 4.42-6.56 4.04-8.36-1.63-1.44-4.55-2.16-9.33-3.3-14.48-6.98.89-13.96 1.77-21.45 2.72 3.28 3.92 6.26 7.03 8.7 10.52 2.66 3.81 4.01 8.19 1.69 12.67-5.24 10.09-7.47 21.05-8.3 32.12-.84 11.22-1.48 22.73.05 33.79 2.36 17.03 10.8 28.71 30.84 31.45 25.01 3.42 50.03 3.08 74.84-2.39 15.35-3.38 25.48-12.23 29.79-27.51 2.26-7.98 4.57-15.95 6.98-23.89.64-2.12 1.72-4.1 2.59-6.15.5.03 1.01.06 1.51.1.65 3.1 1.39 6.19 1.95 9.3 2.69 15 5.18 30.04 8.08 45 1.21 6.25.71 10.22-5.15 12.92-9.43 4.34-19.13 9.04-29.2 10.86-16.77 3.04-33.92 4.09-50.94 5.66-17.03 1.57-33.89.62-50.16-5.19-24.36-8.7-38.09-27.78-37.62-53.49.45-24.94 1.77-49.86 2.68-74.8.11-2.76.02-5.55.02-9.12zm-58.44-5.57c5.98-.56 11.56-1.03 17.14-1.6 22.13-2.25 44.25-4.65 66.39-6.73 8.22-.77 8.25-.44 9.21-8.9.32-2.81.7-5.61.9-8.43.87-12.27 2.32-24.53 2.38-36.81.09-17.94-.77-35.88-1.36-53.82-.18-5.39-3.78-8.39-8.67-8.65-7.25-.39-14.62-.37-21.83.43-13.19 1.47-26.31 3.62-39.46 5.52-8.19 1.18-16.37 2.43-24.69 3.67v36.19c.67.08 1.15.27 1.58.18 16.43-3.24 32.84-6.57 49.28-9.75 5.78-1.12 11.64-1.61 16.9 1.89 4.02 2.68 4.17 5.65.06 8.1-3.37 2.01-7.14 3.55-10.92 4.64-16.16 4.68-32.79 5.06-49.45 5.07-2.43 0-4.87 0-7.33 0v26.91c3.5-.25 6.69-.14 9.73-.76 10.56-2.14 21.02-4.74 31.6-6.73 6.98-1.31 14.07-2.24 21.15-2.62 4.42-.24 7.94 2.91 8.65 7 .74 4.28-3.83 5.17-6.79 5.8-12.79 2.69-25.62 5.33-38.55 7.2-8.48 1.23-17.15 1.12-25.93 1.63.01 10.02.01 19.8.01 30.57z" fill="currentColor"/>
</svg>