<svg enable-background="new 0 0 400 400" viewBox="0 0 400 400" xmlns="http://www.w3.org/2000/svg">
<path d="m341.41 257.13c0 4.9-.27 9.81.06 14.69.71 10.59 1.58 21.18 2.7 31.73.29 2.73 1.35 5.52 2.68 7.95 2.67 4.9 1.62 8.97-2.04 12.64-9.37 9.39-20.9 14.71-33.79 16.88-28.31 4.77-56.63 4.22-84.85-.96-3.73-.68-7.38-1.9-10.99-3.1-14.97-4.97-23.71-14.89-24.26-31.11-.69-20.43-1.13-40.88-2.08-61.3-.31-6.75-1.63-13.49-2.98-20.13-.6-2.96-2.41-5.67-4.31-8.66-18.84 61.88-58.57 101.1-121.09 116.02-.46-.55-.92-1.11-1.39-1.66 2.58-1.59 5.16-3.19 7.75-4.77 21.07-12.88 41.31-26.91 58.57-44.71 21.19-21.85 32.51-48.89 38.26-78.2 3.22-16.39 4.71-33.17 5.99-49.85.77-9.95-.95-19.9-6.19-28.86-.81-1.39-1.29-3.08-1.53-4.69-.54-3.64 1.28-5.79 4.83-4.83 8.3 2.26 16.62 4.59 24.63 7.68 6.05 2.34 6.14 5.5 4.33 11.59-2.72 9.15-4.7 18.56-6.37 27.97-2.32 13.07-4.07 26.23-6.03 39.36-.22 1.46-.18 2.95-.24 4.13 6.47 2.94 12.87 5.3 18.72 8.63 9.23 5.25 9.82 8.82 6.51 18.91-7.05 21.49-9.01 43.5-4.99 65.85 2.65 14.74 12.17 22.67 26.57 24.28 25.43 2.86 50.79 2.14 75.91-3.25 8.24-1.77 13.91-7.08 16.8-14.35 4.75-11.97 8.34-24.41 12.4-36.65 1.28-3.85 2.52-7.72 3.78-11.58.89.11 1.76.23 2.64.35z" fill="currentColor"/>
<path d="m134.7 127.02c-.9 24.44-1.48 48.89-2.86 73.31-.48 8.52-2.68 16.99-4.63 25.35-.53 2.28-3.01 4.11-4.6 6.14-1.8-1.81-4.14-3.33-5.32-5.48-5.88-10.68-5.15-22.11-2.99-33.54 4.14-21.91 4.36-43.97 2.79-66.09-.81-11.42-1.85-22.83-3.3-34.18-.51-4.01-2.64-7.8-3.86-11.74-.47-1.5-1.15-3.56-.5-4.59.57-.9 2.93-1.14 4.38-.93 6.4.93 12.74 2.9 19.14 3.02 5.68.11 11.46-1.41 17.07-2.73 24.38-5.73 48.74-11.57 73.06-17.54 6.34-1.56 12.36-.78 17.79 2.33 6.76 3.87 13.34 8.16 19.52 12.89 6.04 4.62 5.67 9.38 2.6 16.24-3.2 7.15-5.86 14.95-6.62 22.68-1.54 15.7-1.1 31.58-2.46 47.31-1.78 20.64-4.44 41.2-6.91 61.77-.33 2.72-1.55 5.43-2.82 7.91-2.01 3.91-4.56 4.22-7.32.72-6.84-8.67-10.34-18.39-9-29.67 1.79-14.99 3.82-29.99 4.78-45.04 1.02-15.93 1.11-31.93 1.17-47.9.02-6.27-.6-12.66-1.91-18.78-2.45-11.52-7.33-14.86-18.75-13.2-15.11 2.2-30.17 4.74-45.23 7.23-8.67 1.44-17.34 2.92-25.96 4.66-7.64 1.55-7.93 2.12-7.91 9.85.02 5 .08 9.99.1 14.99s0 9.99 0 14.99c.2.01.38.01.55.02z" fill="currentColor"/>
</svg>