<svg enable-background="new 0 0 400 400" viewBox="0 0 400 400" xmlns="http://www.w3.org/2000/svg">
<g fill="currentColor"><path d="m256 308.14c3.75 4.63 6.78 8.19 9.61 11.9 3.06 4.01 2.14 6.94-2.68 8.04-3.04.69-6.24.79-9.38.97-27.7 1.65-55.41 3.26-83.11 4.87-1.49.09-3 .23-4.49.13-6.09-.4-11.18.41-12.18 8-.19 1.46-2.07 2.7-3.17 4.04-1.27-1.38-3.2-2.57-3.69-4.19-3.16-10.29-5.95-20.69-8.95-31.03-4.76-16.4-9.56-32.78-14.42-49.15-1.31-4.41-.37-5.99 4.22-5.79 2.46.11 5 .48 7.33 1.26 13.86 4.65 27.9 2.83 41.9 1.31 20.84-2.27 41.07-7.31 61.22-13.02 5.29-1.5 11.6-.52 17.21.53 9.88 1.84 18.19 7.2 25.38 14.09 4.64 4.44 4.64 8.91-.47 12.69-12.81 9.45-18.82 23.3-24.33 35.35zm-104.26-36.02c1.54 17.06 3 33.34 4.51 50.05 4.06-.44 7.5-.82 10.95-1.19 22.1-2.38 44.21-4.71 66.29-7.29 1.27-.15 3.14-2.22 3.32-3.58 1.39-10.85 3.1-21.73 3.37-32.64.24-9.46-.32-12.01-10.63-13.04-2.47-.25-4.99-.29-7.47-.08-10.25.85-20.5 1.67-30.72 2.82-12.99 1.46-25.95 3.23-39.62 4.95z"/><path d="m332.18 121.29c-22.78-.37-45.58-1.47-68.33-.9-19.39.49-38.77 2.55-58.09 4.54-23.11 2.38-46.17 5.33-69.23 8.22-15.98 2-31.9 4.45-47.87 6.45-12.63 1.58-24.55-.29-34.67-8.75-1.35-1.13-1.96-3.14-2.91-4.74 1.78-.71 3.52-1.94 5.34-2.05 8.29-.53 16.63-.44 24.9-1.15 20.35-1.75 40.67-3.74 60.99-5.8 19.49-1.98 38.97-4 58.43-6.3 25.87-3.06 51.7-6.44 77.56-9.63 15.01-1.85 30.06-4 45.17-1.24 9.2 1.68 17.29 5.79 23.59 12.92 3.7 4.18 2.95 6.86-2.5 7.94-4.05.81-8.25.92-12.38 1.34 0-.28 0-.56 0-.85z"/><path d="m129.96 213.37c7.3-1.14 14.58-2.42 21.91-3.4 24.52-3.29 49.01-6.76 73.59-9.57 8.83-1.01 17.88-.67 26.8-.25 3.97.19 9.44 1.41 9.35 6.26-.05 2.43-4.61 6.06-7.74 6.91-12.3 3.33-24.75 6.34-37.31 8.41-18.86 3.11-37.88 5.4-57.08 4.28-9.01-.53-17.81-2.24-25.61-7.21-1.58-1.01-2.89-2.44-4.32-3.67.13-.59.27-1.17.41-1.76z"/><path d="m172.04 178.79c-11.85-.48-23.29-1.98-33.6-8.16-1.83-1.09-3.08-3.16-4.59-4.78 1.93-1.01 3.78-2.68 5.8-2.93 11.84-1.5 23.74-2.48 35.58-3.98 15.95-2.03 31.82-4.71 47.8-6.44 8.51-.92 17.18-.77 25.75-.41 4.19.18 9.61 1.32 10.21 6.27.63 5.18-4.95 6.37-8.67 7.23-14.99 3.47-30.04 6.75-45.2 9.36-10.92 1.88-22.04 2.6-33.08 3.84z"/><path d="m223.6 73.98c-.91 4.01-1.46 8.15-2.82 12.01-2.41 6.85-6.94 8.17-12.74 3.65-4.84-3.78-9.66-7.73-13.78-12.25-9.3-10.18-18.2-20.72-27.14-31.23-1.09-1.28-1.38-3.22-2.05-4.86 1.81-.56 3.66-1.73 5.41-1.58 15.99 1.33 31.03 5.68 44.05 15.39 6.12 4.56 8.86 11.06 9.07 18.87z"/>
</g>
</svg>