<svg enable-background="new 0 0 400 400" viewBox="0 0 400 400" xmlns="http://www.w3.org/2000/svg">
<g fill="currentColor">
<path d="m109.53 328.14c-5.29-4.77-8.47-11.07-10.4-17.67-5.25-17.99-12.54-34.96-22.66-50.75-2.42-3.78-1.12-5.81 3.58-5.73 5.8.1 11.6.89 17.39.89 13.13 0 25.65-3.19 37.66-8.27 3.16-1.34 6.13-3.37 8.83-5.53 5.27-4.21 10.69-5.04 16.54-1.55 4.56 2.71 9.17 5.38 13.49 8.45 6.26 4.45 6.71 8.46 2.12 14.68-2.96 4.01-6.19 7.85-8.84 12.06-6.04 9.55-5.69 12.33 1.76 21.03 3.01 3.51 2.61 5.33-2.25 6.41-10.03 2.22-20.16 4.05-30.27 5.88-6.36 1.16-12.81 1.86-19.13 3.19-1.28.27-2.74 2.26-3.13 3.71-1.15 4.34-1.81 8.82-2.67 13.24-.66-.02-1.34-.03-2.02-.04zm38.37-37.28c0-7.46.22-15.2-.08-22.92-.2-5.23-2.78-8.07-6.82-7.42-12.2 1.99-24.33 4.4-36.73 6.69 3.19 11.63 6.09 22.22 8.97 32.74 11.4-2.99 22.15-5.81 34.66-9.09z"/>
<path d="m185.45 112.77c-4.28 1.88-7.16 3.44-10.23 4.44-26.62 8.68-53.31 17.13-79.88 25.95-6.25 2.08-12.03 5.55-18.22 7.87-3.31 1.24-7.2 2.4-10.53 1.84-10.75-1.81-19.42-7.55-25.81-16.42-2.62-3.64-.87-6.12 4.31-6.53 7.77-.61 15.57-.99 23.32-1.84 25.31-2.78 49.85-9.08 74.15-16.52 7.1-2.17 14.44-3.84 21.8-4.75 6.95-.88 13.75.7 21.09 5.96z"/>
<path d="m172.13 69.7c-.18 1.02-.38 3.18-.97 5.22-1.45 5.01-4.79 6.87-9.82 5.53-11.87-3.16-21.27-10.62-30.68-17.98-3.1-2.43-5.91-5.32-8.5-8.31-2.37-2.75-1.47-5.23 2.12-5.67 14.15-1.72 28.21-2.01 41.12 5.45 5.54 3.22 6.6 8.77 6.73 15.76z"/>
<path d="m117.04 224.55c-4.08-1-9.26-2.08-14.3-3.61-1.52-.46-2.67-2.16-3.99-3.29 1.18-1.26 2.12-3.09 3.58-3.69 8.59-3.53 17.29-6.79 25.97-10.13 6.19-2.38 12.31-4.98 18.61-7.06 6.81-2.25 13.5-.48 19.94 1.82 4.51 1.61 4.84 4.28.74 7.05-12.36 8.34-25.92 14.07-40.44 17.42-2.9.68-5.89.89-10.11 1.49z"/>
<path d="m95.37 175.35c2.44-1.37 3.95-2.32 5.54-3.1 8.65-4.22 17.47-8.12 25.94-12.67 10.83-5.82 21.92-8.66 33.96-4.71 1.87.61 3.41 2.26 5.1 3.43-1.19 1.51-2.08 3.53-3.63 4.47-15.57 9.43-31.56 18.03-50.4 18.18-5.49.04-11.17-.81-16.51-5.6z"/>
</g>
</svg>