<svg enable-background="new 0 0 400 400" viewBox="0 0 400 400" xmlns="http://www.w3.org/2000/svg">
<g fill="currentColor">
<path d="m50.73 171.01c3.98-1.01 7.95-2.05 11.95-3.01 15.29-3.68 30.66-7.08 45.85-11.13 6.61-1.76 12.46-5.37 16.9-10.98 3.2-4.05 8.01-4.67 12.22-2.78 6.43 2.88 12.62 6.46 18.45 10.43 3.63 2.47 3.87 5.92.46 9.73-7.6 8.48-10.54 19.25-12.2 30.07-2.59 16.9-4.28 33.94-6.03 50.96-.38 3.71.2 7.66 1.08 11.32.94 3.92 3.96 5.9 8.01 4.55 3.44-1.14 6.66-2.94 9.98-4.44 11.19-5.05 22.36-10.12 33.58-15.11 1.13-.5 2.49-.52 5.34-1.07-2.09 2.75-3.07 4.6-4.53 5.89-13.35 11.79-27.21 23.03-40.04 35.35-9.79 9.41-18.59 19.91-27.29 30.37-6.09 7.33-9.81 7.69-15.49.02-7.93-10.71-8.37-20.29.14-31.54 7.48-9.89 10.38-21.12 11.7-32.86 2.26-19.96 3.96-39.98 5.65-60 .35-4.09-.05-8.33-.71-12.41-.94-5.76-4.53-8.09-10.11-6.19-9.11 3.1-18.14 6.51-26.99 10.27-11.22 4.77-22.12 5.74-32.8-1.12-1.88-1.21-3.44-2.92-5.15-4.39 0-.65.02-1.29.03-1.93z"/>
<path d="m168.15 87.45c0 1 .04 2-.01 2.99-.32 7.71-4.72 11.02-12 8.21-5.37-2.07-10.72-4.72-15.33-8.12-9.05-6.69-17.7-13.93-26.19-21.32-1.85-1.61-3.38-4.98-3.02-7.21.23-1.43 4.12-3.02 6.49-3.23 12.11-1.04 24.15-.56 35.73 3.77 11.61 4.35 14 14.05 14.33 24.91z"/>
</g>
</svg>