<svg enable-background="new 0 0 400 400" viewBox="0 0 400 400" xmlns="http://www.w3.org/2000/svg">
<g fill="currentColor"><path d="m199.67 139.88c13.66 11.8 26.79 23.56 40.38 34.76 13.48 11.1 26.82 22.55 41.32 32.18 14.61 9.7 30.16 18.29 46.09 25.63 15.62 7.19 32.25 12.19 48.44 18.16-.11.79-.22 1.59-.33 2.38-4.44.69-8.86 1.81-13.32 1.98-14.96.55-29.94 1.04-44.91.98-6.59-.03-13.19-1.31-19.76-2.27-14.37-2.1-22.97-12.46-31.84-22.45-22.76-25.64-45.59-51.22-68.38-76.82-.88-.99-1.66-2.08-2.84-3.57-4.79 7.7-9.06 14.79-13.54 21.75-23.34 36.28-51 68.63-86 94.26-17.59 12.88-36.87 22.45-57.83 28.54-1.84.54-3.79.71-5.69 1.05-.23-.44-.46-.87-.69-1.31 4.21-3.01 8.3-6.21 12.65-9.01 47.11-30.45 86.03-68.98 115.5-116.86 9.3-15.11 14.56-31.56 16.82-49.1.93-7.27 4.73-9.49 11.05-5.94 5.9 3.31 11.29 7.57 16.65 11.74 2.83 2.2 3.52 5.05.49 8.06-1.51 1.47-2.54 3.44-4.26 5.86z"/><path d="m285.05 260.08c-2.17 3.45-3.58 6.99-6.07 9.41-13.07 12.73-19.12 29.35-25.69 45.67-.45 1.13.57 3.3 1.53 4.46 2.53 3.05 5.63 5.63 8.07 8.74 2.17 2.76 1.27 5.07-2.31 5.76-2.43.47-4.92.74-7.39.85-26.07 1.1-52.15 2.07-78.21 3.27-6.12.28-12.24 1.08-18.3 2.05-1.44.23-3.21 1.88-3.8 3.3-1.24 3.04-1.54 6.46-2.74 9.51-.85 2.16-2.58 3.97-3.91 5.94-1.66-1.89-4.22-3.52-4.84-5.71-2.49-8.75-4.73-17.6-6.41-26.53-3.55-18.88-6.51-37.87-10.12-56.73-.79-4.12-3.26-7.92-4.98-11.86-2.01-4.59-1.05-6.65 3.91-7.07 2.93-.24 6.03.07 8.88.79 10.54 2.66 21.17 2.33 31.72.84 19.2-2.71 38.36-5.71 57.44-9.12 5.64-1.01 11.17-3.35 16.36-5.88 5.06-2.46 10.2-3.17 14.84-.7 9.32 4.97 18.31 10.59 27.2 16.31 1.99 1.3 3.01 4.1 4.82 6.7zm-132.09 67.24c1.1.28 1.43.46 1.73.42 24.92-2.7 49.84-5.47 74.77-8.08 3.4-.35 4.88-1.86 5.44-5.07.71-4.08 1.93-8.08 2.63-12.16 1.89-10.94 4.16-21.85 5.23-32.88.81-8.39-3.52-12.22-12.05-12.09-5.63.09-11.29.51-16.88 1.2-13.5 1.68-26.97 3.58-40.44 5.47-8.02 1.13-16.03 2.41-24.77 3.73 1.46 19.99 2.89 39.65 4.34 59.46z"/><path d="m65.04 155.92c3.11-3.29 5.21-5.83 7.63-8.03 18.23-16.57 34.38-34.84 45.48-57.04 2.63-5.27 4.18-11.14 5.78-16.85 1.43-5.1 3.42-6.68 8.06-4.6 7.85 3.53 14.63 8.63 19.69 15.66 3.68 5.11 2.86 6.86-1.99 11.16-11.46 10.14-22.6 20.64-33.91 30.95-12.91 11.77-27.33 21.18-43.58 27.69-1.22.49-2.5.88-3.78 1.19-.61.14-1.3-.04-3.38-.13z"/><path d="m301.09 112.69c-.04.87.05 2.39-.2 3.85-1.18 6.85-5.27 9.67-11.33 6.35-8.1-4.43-15.9-9.64-23.08-15.45-11.36-9.19-22.2-19.03-33.01-28.88-1.88-1.71-2.53-4.77-3.75-7.21 2.63-.5 5.36-1.74 7.87-1.39 18.12 2.54 35.32 8.12 50.74 18.05 8.41 5.44 12.86 13.73 12.76 24.68z"/>
</g>
</svg>