<svg enable-background="new 0 0 400 400" viewBox="0 0 400 400" xmlns="http://www.w3.org/2000/svg">
<g fill="currentColor"><path d="m218.59 306.07c12.47-.84 23.88-1.43 35.26-2.43 16.38-1.43 32.73-3.26 49.11-4.72 9.76-.87 19.54-1.66 29.33-1.91 13.47-.35 23.93 6.06 32.35 16.04 3.92 4.64 2.82 7.81-3.37 8.14-9.25.49-18.55-.19-27.84-.32-21.93-.31-43.85-.91-65.78-.78-14.29.09-28.58 1.08-42.85 1.98-23.72 1.5-47.43 3.16-71.13 4.94-15.74 1.18-31.48 2.38-47.16 4.17-10.2 1.17-20.27 3.43-30.39 5.22-14.1 2.49-26.26-1.78-36.97-10.77-1.27-1.07-2.87-3.54-2.43-4.43.71-1.44 2.88-2.62 4.63-3 2.56-.55 5.3-.24 7.96-.39 28.2-1.58 56.41-3.08 84.61-4.82 18.91-1.17 37.8-2.71 56.69-4.09 4.64-.34 9.3-.55 13.91-1.17 1.37-.18 3.3-1.25 3.78-2.4 8.41-20.39 17-40.72 24.66-61.39 1.97-5.31 1.14-11.74 1.15-17.65 0-4 1.87-6.48 5.66-5.2 10.37 3.48 19.63 8.93 26.75 17.47 3.03 3.64 1.58 6.53-1.71 9.34-18.83 16.1-32.89 36.01-46.22 58.17z"/><path d="m139.34 229.38c-1.85-3.57-4.09-7-5.48-10.74-6.12-16.5-11.73-33.19-18.07-49.6-2.5-6.46-6.63-12.26-9.65-18.54-1.35-2.81-1.79-6.06-2.64-9.1 3.15-.32 6.33-1.07 9.46-.88 9.25.56 18.64 2.97 27.68 1.97 18.94-2.1 37.75-5.62 56.51-9.12 13.36-2.49 26.47-5.89 38.95-11.79 3.77-1.78 9.78-1 13.94.66 9.05 3.62 17.88 8.05 26.24 13.09 8.23 4.96 8.24 10.99.91 17.13-11.38 9.53-18.53 21.99-24.96 35.13 3.6 2.85 7.07 5.4 10.26 8.26 1.11.99 1.51 2.76 2.24 4.17-1.41.71-2.76 1.88-4.22 2.05-21.29 2.45-42.6 4.68-63.88 7.13-15.84 1.82-31.64 3.98-47.48 5.74-2.83.32-3.46 1.62-4.07 3.95-.92 3.52-2.3 6.91-3.48 10.36-.76.03-1.51.08-2.26.13zm5.07-25.79c.71.14.88.22 1.03.19 28.62-4.63 57.25-9.24 85.85-13.99 1.08-.18 2.57-1.63 2.78-2.7 2.43-12.17 5.12-24.32 6.74-36.6.98-7.43-2.92-10.77-10.5-10.23-6.44.46-12.87 1.35-19.24 2.39-18.81 3.09-37.59 6.34-56.38 9.54-6.76 1.15-13.52 2.35-20.47 3.57 3.47 16.28 6.81 31.96 10.19 47.83z"/><path d="m134.3 80.52c5.19-1.11 10.38-2.22 15.57-3.33 24.93-5.31 49.87-10.56 74.78-15.94 10.3-2.22 20.66-4.15 30.85-.23 3.48 1.34 6.3 4.4 9.43 6.68-2.99 2.37-5.64 6-9.01 6.89-15.85 4.16-31.81 8.02-47.91 11.1-16.96 3.25-34.09 5.98-51.49 4.36-7.9-.74-15.77-1.94-22.1-7.33-.04-.73-.08-1.46-.12-2.2z"/><path d="m169.01 278.29c-1.89 4.7-3.33 9.65-5.79 14.03-2.72 4.84-6.55 5.21-10.75 1.58-2.23-1.93-4.55-4.15-5.84-6.73-6.46-12.88-12.61-25.91-18.85-38.9-1.65-3.44.04-5.07 3.24-4.28 15.44 3.81 28.27 11.38 35.74 26.13.66 1.3.9 2.85 1.16 4.31.2 1.14.14 2.32.2 3.48.29.13.59.26.89.38z"/></g></svg>