<svg enable-background="new 0 0 400 400" viewBox="0 0 400 400" xmlns="http://www.w3.org/2000/svg">
<path d="m169.23 202.23c-33.19 46.01-76.68 77.31-129.04 96.42-.38-.47-.77-.93-1.15-1.4 1.62-1.39 3.1-3 4.88-4.13 22.32-14.06 43.16-30.03 62.19-48.33 19.62-18.87 37.38-39.27 52.18-63.4-4.31-4.26-8.64-8.53-13.17-13.01-28.28 20.8-53.05 45.98-88.2 54.3 25.12-21.47 51.75-41.24 71.58-67.99-.35-.62-.47-.95-.69-1.19-8.84-9.69-8.81-9.64-20.48-4.02-10 4.82-19.98 9.74-31.9 10.24 2.22-1.66 4.38-3.42 6.67-4.98 16.22-11.05 30.71-23.93 42.21-39.96 4.13-5.75 7.61-11.78 7.49-19.16-.11-6.31-.99-6.66-7.14-7.32-9.86-1.06-19.73-2.38-29.45-4.31-3.78-.75-7.18-3.44-10.75-5.25.12-.6.24-1.19.36-1.79 1.79-.34 3.59-1 5.38-.99 44.66.29 88.28-7.49 131.73-16.72 8.44-1.79 16.81-3.87 25.27-5.57 9.31-1.88 17.78 1.02 25.73 5.48 4.47 2.51 4.45 5.66-.4 7.37-9.35 3.29-18.88 6.37-28.57 8.35-34.21 6.99-68.73 11.91-103.68 13.3-1.11.04-2.21.33-4 .62 5.13 3.75 9.7 6.97 14.13 10.38 1.96 1.51 3.86 3.22 5.41 5.15 4.14 5.16 3.07 9.01-2.31 12.76-9.39 6.55-18.48 13.53-28.52 20.93 23.04 14.05 45.21 27.56 67.88 41.38 12.96-17.74 28.24-33.62 35.39-54.77 1.47-4.34 2.14-9.06 2.48-13.65.33-4.51 2.5-6.26 6.46-5.09 11.08 3.26 20.54 9.29 28.13 18.01 3.05 3.5 1.02 5.88-2.38 7.85-23.59 13.64-41.82 33.26-59.38 53.59-.2.23-.21.61-.47 1.37 24.85 15.09 51.16 27.36 78.52 37.22 27.04 9.74 54.39 18.6 83.17 28.38-5.2 1.78-9.3 3.77-13.63 4.56-17.63 3.22-35.25 6.61-53.02 8.87-10.87 1.38-21.27-2.41-30.03-8.79-12.5-9.1-24.53-18.86-36.5-28.67-15.04-12.33-29.8-24.99-44.69-37.51-.39.27-.78.55-1.17.82.33 1.29.59 2.61 1 3.88 6.73 21.06 13.29 42.26 14.93 64.4 1.49 20.21 3.21 40.92-6.68 59.71-4.73 8.98-11.19 17.29-18.03 24.86-6.56 7.25-12.02 5.84-16.9-2.76-6.23-10.97-15.58-18.92-25.38-26.48-3.67-2.83-7.03-6.05-10.53-9.09.3-.6.59-1.19.89-1.79 1.85 0 3.74-.24 5.55.04 8.69 1.37 17.35 2.97 26.05 4.33 9.76 1.53 15.26-1.59 17.97-11.42 4.95-17.95 6.78-36.44 4.6-54.87-1.47-12.42-5.47-24.54-8.39-36.78-.23-.89-.81-1.72-1.6-3.38z" fill="currentColor"/></svg>