<svg enable-background="new 0 0 400 400" viewBox="0 0 400 400" xmlns="http://www.w3.org/2000/svg">
<g fill="currentColor"><path d="m179.68 317.28c7.98 1.33 15.97 2.64 23.95 4.01 4.41.76 8.79 1.74 13.21 2.42 8.38 1.31 16.1-2.9 17.84-11.49 2.25-11.16 3.77-22.62 4.01-33.98.24-11.5-1.47-23.03-2.41-35.65-41.27 30.21-80.89 60.51-131.97 68.28-.26-.4-.51-.8-.77-1.19 2.35-1.49 4.59-3.19 7.06-4.43 23.23-11.66 45.8-24.48 66.22-40.6 16.71-13.19 32.75-27.21 48.95-41.04 1.14-.97 1.96-3.66 1.45-4.98-3.07-7.87-6.58-15.57-10.28-24.1-33.57 26.72-69.17 47.54-111.53 54.37 36.59-18.92 71.61-39.92 100.9-70.06-2.3-2.79-4.34-5.9-7.05-8.22-1.09-.93-3.91-.7-5.53-.02-16.38 6.87-32.43 14.64-49.1 20.69-10.78 3.91-22.44 5.4-33.71 7.97-.35-.88-.7-1.77-1.04-2.65 39.23-17.28 76.02-38.67 111.06-64.06-12.67-9.71-20.48-22.76-27.75-36.58-16.57 8.44-32.86 17.17-51.54 19-.29-.48-.58-.96-.87-1.44 1.94-1.57 3.76-3.34 5.86-4.67 15.3-9.71 30.84-19.07 45.94-29.08 10.11-6.7 19.77-14.11 29.39-21.52 6.27-4.83 11.33-10.69 13.1-18.88.24-1.11 3.15-2.68 4.43-2.37 10.86 2.57 20.56 7.56 28.54 15.45 2.25 2.23 1.46 4.65-1.47 5.95-2.88 1.28-5.97 2.1-8.77 3.52-19.94 10.13-39.83 20.35-60.52 30.95 15.54 7.39 32.77 11.59 35.04 32.77 18.1-12.98 37.02-23.91 46.26-44.92 1.5-3.42 4.12-3.39 6.58-2.49 9.51 3.49 17.78 9.02 24.61 16.53 3.04 3.34 1.44 5.62-2.17 7.22-36.12 15.92-67.97 39.07-101.27 59.78-.4.25-.72.65-1.21 1.1 6.1 5.89 12.44 11.45 18.13 17.62 19.5 21.14 30.62 46.57 35.72 74.5 4.26 23.32 3.3 46.69-3.8 69.51-3.73 11.98-10.4 22.26-19.42 30.97-1.78 1.72-3.78 3.31-5.93 4.5-4.56 2.54-8.56 1.8-10.39-2.88-6.14-15.68-18.77-24.51-32.55-32.37-2.79-1.59-5.29-3.69-7.93-5.56.24-.62.48-1.25.73-1.88z"/><path d="m164.4 152.46c-.58 2.57-.9 5.23-1.8 7.69-1.81 4.98-5.81 6.93-10.68 4.9-3-1.25-5.9-3.1-8.34-5.25-8.37-7.37-14.31-16.54-18.32-26.87-2.19-5.63-.26-8.01 5.77-7.07 10.02 1.56 19.45 5.18 26.6 12.47 3.48 3.55 5.2 8.84 7.71 13.34-.31.26-.63.52-.94.79z"/></g></svg>