<svg enable-background="new 0 0 400 400" viewBox="0 0 400 400" xmlns="http://www.w3.org/2000/svg">
<g fill="currentColor">
<path d="m275.27 230.09c-12.38 1.12-24.61 2.27-36.84 3.31-11.09.94-22.21 1.61-33.3 2.65-16.87 1.58-33.73 3.3-50.57 5.19-1.26.14-2.69 1.91-3.36 3.26-.94 1.89-1 4.22-1.91 6.13-.79 1.65-2.25 2.98-3.42 4.45-1.38-1.32-3.42-2.39-4.04-4-2.55-6.63-5.01-13.34-6.86-20.19-3.17-11.78.95-23.43 1.24-35.15.48-19.11.78-38.22.81-57.33.02-10.64-.6-21.28-1.05-31.91-.48-11.38-2.6-22.39-7.31-32.87-.93-2.08-.75-4.65-1.08-7 2.48-.35 4.95-.98 7.43-1 14.1-.11 28.25.64 42.3-.25 17.72-1.13 35.36-3.58 53.04-5.41 12.75-1.32 25.24-3.52 37.25-8.37 3.24-1.31 7.91-1.77 10.94-.42 9.65 4.3 19.35 8.87 28.03 14.79 7.42 5.07 7.32 10.62 2.13 18.06-6.16 8.82-8.06 19.15-8.36 29.36-.82 27.45-1.63 54.96-.59 82.38.69 18.27.21 35.87-7.53 52.64-1.31 2.83-3.91 5.06-5.92 7.56-1.75-2.46-4.09-4.69-5.14-7.41-2.27-5.87-3.87-11.98-5.89-18.47zm-120.76-42.02c-.58 14.7-1.1 28.06-1.64 41.93 2.85 0 5 .23 7.09-.04 19.92-2.49 39.84-4.89 59.72-7.67 9.85-1.38 19.54-3.83 29.39-5.18 9.07-1.25 18.04-.06 27.06 4.39.86-14.17 2.25-27.42 2.34-40.68.17-27.63-.13-55.28-.78-82.91-.14-5.99-2.25-12.02-4.02-17.86-1.36-4.47-5.09-6.96-9.63-7.77-3.59-.64-7.29-1.34-10.88-1.12-21.06 1.27-42.14 2.52-63.16 4.36-9.89.86-19.67 2.95-29.49 4.58-5.36.89-7.31 4.35-7.13 9.59.39 11.31.57 22.62.89 33.93.04 1.41.41 2.81.67 4.53 3.2-.25 6.06-.21 8.8-.75 14.8-2.9 29.56-6.02 44.36-8.9 7.86-1.53 15.88-2.87 23.52.63 2.44 1.12 4.19 3.75 6.25 5.69-2 1.81-3.74 4.65-6.06 5.25-8.16 2.1-16.45 4-24.81 4.92-16.34 1.79-32.77 2.81-49.15 4.33-1.21.11-3.25 1.65-3.26 2.56-.23 11.29-.15 22.59-.15 33.99 2.68 0 4.86.26 6.96-.04 18.7-2.71 37.4-5.46 56.07-8.35 7.09-1.1 13.89-1.05 20.19 2.91 3.04 1.91 3.39 4.43.5 6.31-3.84 2.49-7.94 5.32-12.28 6.18-11.37 2.26-22.88 4.22-34.43 5.02-12.06.82-24.23.17-36.94.17z"/><path d="m320.59 328.21c-.96 4.69-1.46 9.54-2.99 14.03-2.2 6.48-6.21 7.56-11.26 2.99-4.04-3.65-7.55-7.94-11.01-12.17-17.28-21.07-34.53-42.18-51.61-63.42-1.69-2.1-2.19-5.16-3.25-7.77 2.66.26 5.53-.03 7.96.86 17.15 6.3 34.25 12.84 48.44 24.85 10.93 9.25 20.5 19.54 22.72 34.57.12.82.34 1.63.39 2.45.07 1.16.02 2.33.02 3.49.2.05.4.08.59.12z"/><path d="m86.33 353.11c1.3-1.15 2.56-2.34 3.91-3.43 23.04-18.67 45.63-37.8 63.29-61.97 6.38-8.73 12.74-17.44 14.91-28.4.8-4.06 4.07-4.54 6.97-3.28 9.65 4.21 18.5 9.77 25.56 17.75 2.35 2.66 1.9 5.77-1.22 7.11-25.97 11.22-43.28 34-66.22 49.21-10.77 7.15-21.64 14.2-32.81 20.7-3.96 2.31-8.94 2.86-13.46 4.21-.3-.63-.61-1.27-.93-1.9z"/>
</g></svg>