<svg enable-background="new 0 0 400 400" viewBox="0 0 400 400" xmlns="http://www.w3.org/2000/svg">
<g fill="currentColor"><path d="m247.99 75.03c-13.91 2.32-27.84 4.48-41.71 7.01-15.19 2.77-30.33 5.8-45.44 8.97-1.33.28-3.26 2.36-3.26 3.6.04 19.47.61 38.95.53 58.42-.11 26.64-.45 53.29-1.21 79.92-.2 6.86-2.09 13.74-3.77 20.47-.52 2.09-2.78 4.97-4.51 5.17-1.7.2-4.34-2.19-5.52-4.09-6.79-10.97-9.3-23.02-8.04-35.84 1.15-11.73 3-23.43 3.5-35.19.84-19.79 1.37-39.62 1.05-59.42-.22-13.9-1.18-27.88-8.25-40.63-2.72-4.9-1.09-7.01 4.52-5.76 25.64 5.72 50.12-1.6 74.82-6.28 11.07-2.1 22-4.96 32.97-7.57 2.25-.54 4.71-1.04 6.56-2.31 7.07-4.87 14.34-3.65 21.32-.54 9.51 4.24 19.06 8.59 27.97 13.94 6.28 3.77 5.44 5.83 3.08 12.82-2.85 8.43-5.87 17.26-6.12 26-.64 22.24.29 44.53.45 66.8.15 20.95.39 41.91-.03 62.85-.11 5.66-2.2 11.38-3.98 16.87-.68 2.09-2.78 4.61-4.71 5.12-1.37.36-4.09-1.95-5.26-3.69-6.73-10-11.13-20.72-9-33.19 3.74-21.96 3.34-44.12 2.67-66.24-.55-18.11-1.57-36.21-2.76-54.3-.42-6.43-1.61-12.86-3.05-19.16-1.86-8.14-6.78-12.02-15.14-12.66-2.48-.19-5-.03-7.5-.03-.07-.35-.12-.71-.18-1.06z"/><path d="m88.85 355c3.7-2.6 7.2-5.53 11.12-7.74 23.49-13.24 43.79-30.17 60.46-51.42 17.95-22.87 29.01-48.87 33.28-77.43 2.92-19.5 4.59-39.24 5.62-58.94.54-10.29.09-20.96-5.39-30.56-1.07-1.88-1.35-5.16-.39-6.92.61-1.13 4.47-1.46 6.35-.75 8.37 3.11 16.79 6.25 24.71 10.31 5.64 2.89 4.97 5.76 2.91 11.55-3.2 8.98-5.9 18.31-7.28 27.72-3.55 24.28-4.33 48.99-11.16 72.77-14.19 49.36-45.11 84.39-91.53 105.75-7 3.22-14.89 4.56-22.42 6.6-1.81.49-3.8.28-5.7.4-.19-.45-.39-.89-.58-1.34z"/><path d="m221.33 263.21c3.11.86 6.39 1.34 9.31 2.63 20.3 9 39.76 19.49 56.7 34.05 11.46 9.85 20.49 21.53 23.08 36.9.69 4.12.36 8.67-.59 12.76-1.88 8.11-7.6 10.07-14.05 4.72-5.35-4.45-10.39-9.42-14.9-14.72-19.09-22.44-37.95-45.06-56.8-67.69-1.71-2.06-2.73-4.7-4.07-7.07.43-.53.87-1.06 1.32-1.58z"/></g></svg>