<svg enable-background="new 0 0 400 400" viewBox="0 0 400 400" xmlns="http://www.w3.org/2000/svg">
<path d="m134.2 248.89c-22.67 42.65-53.69 76.41-99.07 94.77-.46-.5-.91-1-1.37-1.5 4.19-3.61 8.24-7.38 12.59-10.79 31.33-24.54 55.49-54.91 72.91-90.57 5.02-10.28 8.88-21.16 8.74-32.94-.05-3.85 2.28-5 5.16-3.44 5.64 3.06 11.19 6.41 16.32 10.25 3.59 2.67 3.49 6.29.65 10.07-3.99 5.29-7.55 10.9-11.5 16.67 17.91 11.44 35.49 22.67 53.89 34.43.2-2.4.4-3.77.4-5.13.02-20.16.18-40.33-.09-60.49-.08-5.92-.94-11.93-2.24-17.72-1.51-6.7-4.77-8.5-11.34-7.08-27.88 6.04-55.75 12.11-83.6 18.3-9.32 2.07-24.81-3.89-30.95-12.82 2.11-.7 3.98-1.79 5.9-1.9 25.48-1.44 50.17-7.55 75.04-12.56 15.11-3.05 30.19-6.31 45.23-9.66 1.38-.31 3.5-1.93 3.52-2.98.27-10.3.16-20.6.16-31.09-16.95-.97-34.35 5.53-51.39-5.99 3.66-1.66 5.96-3.2 8.48-3.77 12.61-2.86 25.25-5.62 37.95-8.08 3.81-.74 5.36-2.19 5.03-6.17-1.33-16.2-2.13-32.45-3.87-48.61-.49-4.57-3.44-8.9-5.36-13.3-1.89-4.33-.98-6.17 3.69-5.79 9.75.8 18.81 4.07 26.95 9.45 3.43 2.27 4.16 5.39 2.89 9.94-2.57 9.21-4.2 18.72-5.68 28.19-1.02 6.52-1.15 13.18-1.73 20.53 2.45-.63 4.44-1.11 6.41-1.65 12.15-3.35 24.26-6.9 36.48-10.01 6.29-1.6 12.24.31 17.53 3.84 5.53 3.7 5.36 7.1-.84 9.41-7.76 2.89-15.77 5.11-23.74 7.39-10.84 3.11-21.77 5.94-32.61 9.06-1.33.38-3.35 1.8-3.37 2.78-.24 11.44-.15 22.88-.15 34.91 17.06-3.74 34.66-7.81 52.35-11.39 11.51-2.33 23.11-4.5 34.77-5.66 8.46-.84 15.88 3.04 21.8 9.21 1.01 1.05 1.79 2.94 1.6 4.29-.11.78-2.33 1.64-3.68 1.8-16.81 2.07-33.66 3.8-50.44 6.06-21.39 2.89-42.72 6.19-64.07 9.34-.46.07-.87.46-1.37.75 2.67 2.76 5.34 5.44 7.93 8.19 3.14 3.34 4.12 6.9 3.06 11.75-1.76 8.03-2.4 16.31-3.68 25.75 9.36-2.49 17.47-4.64 25.59-6.81 7.21-1.93 14.32-4.77 21.65-5.53 5.48-.57 11.38 1.05 16.8 2.67 2.21.66 5.1 3.98 5.01 5.96-.09 1.92-3.32 4.52-5.68 5.35-5.6 1.97-11.44 3.63-17.31 4.41-13.32 1.78-26.72 2.95-40.09 4.36-1.63.17-3.26.29-5.03.45-.36 3.45-.88 6.56-.99 9.67-.42 11.64-.85 23.28-.89 34.93-.01 1.82 1.5 4.43 3.08 5.37 44.99 26.81 93.16 45.07 145.02 53.21 5.17.81 10.29 1.88 15.44 2.83.07.48.15.97.22 1.45-1.79.85-3.5 2.11-5.39 2.48-16.09 3.22-32.15 6.6-48.33 9.27-12.02 1.98-24.22 2.27-36.12-1.13-14.83-4.24-27.35-12.84-39.42-22.02-35.62-27.11-71.1-54.39-106.65-81.6-.5-.38-1.1-.68-2.2-1.36z" fill="currentColor"/></svg>