<svg enable-background="new 0 0 400 400" viewBox="0 0 400 400" xmlns="http://www.w3.org/2000/svg">
<path d="m118.21 237.46c-22.47 35.95-46.6 69.39-86.85 86.26-.51-.5-1.02-1-1.54-1.51 2.22-2.25 4.35-4.59 6.66-6.75 29.99-27.97 52.64-60.77 65.64-99.88 1.71-5.16 2.25-10.69 3.65-15.97 1.42-5.36 4.16-6.38 8.79-3.25 7.44 5.03 14.41 10.6 18.28 18.21-3.48 4.34-6.51 8.11-10.06 12.55 18.75 10.11 36.49 19.69 55.21 29.78-.69-31.57 1.75-61.98-3.34-92.72-7.12 1.35-13.95 2.49-20.67 4.06-1.19.28-2.41 2.21-2.83 3.62-.76 2.51-.63 5.29-1.43 7.78-.55 1.72-2.05 3.14-3.13 4.69-1.23-1.26-2.93-2.32-3.6-3.83-3.23-7.28-6.58-14.55-9.14-22.08-5.23-15.38-9.65-31.05-15.09-46.35-2.42-6.82-6.6-13-9.77-19.57-1.02-2.11-1.37-4.55-2.03-6.84 2.18-.6 4.39-1.83 6.53-1.72 25.4 1.26 50.08-3.18 74.25-10.2 11.07-3.21 21.45-8.75 32.25-12.93 2.77-1.07 6.22-1.94 8.95-1.27 13.04 3.22 24.92 9.18 35.84 16.97 4.07 2.9 4.35 5.87 1.35 9.75-.81 1.04-1.7 2.15-2.8 2.82-14.3 8.63-20.33 22.74-25.27 37.65-1.67 5.03-2.42 9.24 1.49 14.17 4.8 6.06 2.27 9.82-5.76 11.2-13.21 2.27-26.35 4.92-41.06 7.69 9.96 7.21 7.12 15.9 6.04 24.44-.74 5.89-.72 11.89-1.1 18.92 15.42-3.37 29.94-6.6 44.49-9.7 8.99-1.92 17.61-1.31 25.02 4.88 4.22 3.53 3.97 6.77-1.26 8.3-6.96 2.04-14.18 3.47-21.38 4.32-15.83 1.87-31.72 3.2-47.95 4.79-.12.82-.43 1.93-.43 3.03-.03 15.17-.13 30.33.12 45.5.03 1.78 1.62 4.42 3.2 5.15 38.21 17.83 77.49 32.49 119.27 39.54 13.91 2.35 27.84 4.52 41.73 6.96 2.62.46 5.08 1.83 7.61 2.78.01.63.01 1.26.02 1.89-5.59 1.77-11.08 4.07-16.8 5.23-19.33 3.91-38.68 7.77-58.14 10.93-8.09 1.31-16.45-.04-23.73-4.22-17.01-9.77-34.1-19.45-50.64-29.98-32.84-20.9-65.34-42.35-97.99-63.56-.78-.5-1.64-.97-2.6-1.53zm31.8-81.02c21.28-5.8 41.92-11.36 62.49-17.15 1.43-.4 3.18-2.34 3.44-3.79 2.77-15.85 5.47-31.71 7.76-47.63.99-6.87-1.89-9.43-8.65-8.05-16.9 3.45-33.72 7.26-50.6 10.78-9.05 1.89-18.17 3.49-27.76 5.32 4.43 20.13 8.77 39.83 13.32 60.52z" fill="currentColor"/></svg>