<svg enable-background="new 0 0 400 400" viewBox="0 0 400 400" xmlns="http://www.w3.org/2000/svg">
<path d="m197.62 246.2c0-13.79 0-27.08 0-41.01-7.61.68-15.01 1.11-22.34 2.05-13.83 1.78-27.66 3.58-41.4 5.92-5.65.96-11.11 3.22-16.58 5.12-3.74 1.3-6.47.24-8.71-2.76-.6-.8-1.22-1.58-1.74-2.42-6.09-9.67-5.9-13.19 3.74-19.28 14.26-9.02 22.57-22.82 31.22-36.4 5.32-8.36 10.02-17.12 15.52-26.6-8.92 1.04-16.7 1.66-24.37 2.91-10.87 1.77-20.84-.05-29.92-6.3-1.56-1.07-2.87-2.52-4.29-3.79.06-.57.11-1.15.17-1.72 4.6-.64 9.19-1.33 13.8-1.9 16.15-1.99 32.31-3.87 48.44-5.98 1.51-.2 3.6-1.38 4.15-2.66 7.1-16.45 14.35-32.86 20.68-49.61 1.82-4.82.75-10.72 1.16-16.11.16-2.06.14-5.07 1.36-5.87 1.52-1 4.78-.99 6.36.03 7.94 5.1 15.84 10.34 23.21 16.21 4.27 3.4 4.27 7.3.56 10.22-11.19 8.8-17.56 21.14-24.83 32.84-2.17 3.49-4.08 7.14-6.64 11.64 6.42-.75 11.92-1.25 17.37-2.04 19.22-2.78 38.39-5.89 57.64-8.4 9.24-1.21 18.29.43 26.44 5.28 1.73 1.03 2.91 2.98 4.34 4.51-1.7 1.42-3.19 3.66-5.12 4.13-9 2.23-18.04 4.62-27.22 5.76-26.87 3.34-53.81 6.08-80.7 9.21-1.47.17-3.28 1.45-4.09 2.75-9.81 15.64-19.48 31.36-29.14 47.1-1.04 1.69-2.21 3.46-2.58 5.35-.54 2.75-1.6 6.81-.26 8.16 1.76 1.78 5.71 2.23 8.58 1.95 8.59-.84 17.11-2.3 25.66-3.54 6.53-.95 13.04-1.96 19.41-2.92 1.62-16.77.15-32.53-8.17-48.2 3.72 0 5.84-.52 7.56.09 8.57 3.02 17.15 6.06 25.49 9.66 4.18 1.81 4.19 4.84 2.24 9.41-3.4 7.96-5.19 16.61-8.03 26.24 7.42-.7 13.14-1.21 18.85-1.8 11.23-1.16 22.42-2.79 33.68-3.44 8.92-.52 16.29 4.07 22.91 9.61 1.1.92 2.29 3.64 1.84 4.15-1.28 1.48-3.28 2.95-5.15 3.19-7.57.97-15.19 1.58-22.81 2.12-15.73 1.11-31.48 2.09-47.55 3.15v42.55c4.22-.3 8.44-.51 12.65-.92 22.49-2.2 44.95-4.72 67.46-6.59 14.75-1.22 28.6 1.61 39.44 12.77 1.58 1.63 2.21 4.17 3.28 6.29-2.32.98-4.65 2.8-6.96 2.79-10.47-.06-20.94-.94-31.41-.97-23.79-.07-47.57.14-71.36.33-4.29.04-8.58.54-13.39.87-.29 5.02-.61 9.94-.87 14.86-1.07 20.76-1.74 41.54-3.33 62.26-.73 9.53-3.07 18.96-5.07 28.35-.57 2.69-2.52 5.09-4.24 8.4-5.52-5.62-5.37-11.84-5.5-17.51-.63-28.97-.86-57.94-1.23-86.92-.02-1.98 0-3.96 0-6.71-6.42.8-12.42 1.4-18.38 2.33-26.73 4.15-53.44 8.41-80.17 12.6-13.8 2.16-25.57-2.53-36.06-11.09-1.38-1.13-2.07-3.12-3.07-4.71 1.91-.77 3.79-2.11 5.74-2.21 10.13-.5 20.33-.2 30.42-1.09 14.89-1.31 29.7-3.42 44.55-5.12 17.65-2.02 35.31-3.96 52.97-5.95 1.14-.14 2.26-.37 3.79-.62z" fill="currentColor"/></svg>