<svg enable-background="new 0 0 400 400" viewBox="0 0 400 400" xmlns="http://www.w3.org/2000/svg">
<g fill="currentColor">
<path d="m123.89 119.38c10.6-2.13 20.11-4.45 29.76-5.85 6.31-.92 12.82-.75 19.22-.57 2.15.06 4.46 1.33 6.34 2.59 1.54 1.04 3.75 3.13 3.5 4.29-.36 1.67-2.45 3.73-4.2 4.21-11.65 3.22-23.38 6.2-35.14 8.99-7.11 1.68-14.38 2.65-21.46 4.4-1.84.45-4.02 2.31-4.75 4.06-7.04 17.02-13.81 34.15-20.64 51.26-.25.62-.57 1.25-.61 1.89-.15 2.66-.2 5.33-.29 8 2.37.06 4.83.56 7.1.11 9.57-1.88 19.09-4.04 29.13-6.21-1.57-14.12-.8-28.39-7.72-41.35-1.88-3.52-.63-5.78 3.36-5.04 6.46 1.2 12.89 2.97 19.06 5.26 4.51 1.67 5.28 5.32 4.12 10.27-2 8.46-2.95 17.16-4.45 26.5 6.43-1.48 11.37-2.81 16.38-3.73 6.63-1.21 13.23-1.37 19.34 2.28 4.38 2.61 4.66 5.69-.02 7.45-8.34 3.13-17.01 5.4-25.59 7.86-3.3.95-6.72 1.44-10.12 2.14v36.76c13.1-3.49 25.88-6.97 38.71-10.27 2.53-.65 5.26-.88 7.87-.77 1.43.06 2.82 1.24 4.22 1.92-.9 1.44-1.47 3.39-2.77 4.22-2.63 1.68-5.59 2.94-8.52 4.06-11.79 4.51-23.58 8.99-35.46 13.26-3.07 1.1-4.29 2.43-4.36 5.97-.42 20.79-.99 41.58-1.97 62.34-.3 6.41-1.7 12.83-3.25 19.08-.5 2.01-3.07 3.51-4.7 5.24-1.55-1.61-3.7-2.95-4.56-4.88-6.19-13.71-7.51-27.66-4.36-42.69 2.6-12.41 2.46-25.39 3.63-39.35-10.26 3.23-19.49 5.69-28.39 9.07-9.9 3.76-19.4 8.56-29.26 12.45-3.08 1.22-7.01 1.96-10.1 1.18-7.96-2.03-14.23-7.15-19.15-13.65-2.58-3.41-.86-5.72 4.17-6.16 7.6-.68 15.41-.47 22.76-2.2 19.52-4.59 38.85-9.98 58.21-15.23 1.18-.32 2.75-2.13 2.77-3.28.2-11.64.13-23.28.13-35.88-7.44 1.84-14.46 3.02-21.07 5.34-8.41 2.95-16.66 6.5-24.66 10.44-4.9 2.41-9.03 2.2-12.78-1.36-4.18-3.96-7.83-8.53-6.17-14.85.44-1.67 2.25-3.48 3.89-4.25 5.47-2.56 8.78-6.97 11.5-12.03 8.39-15.6 13.29-32.48 18.31-49.14-7.41-.47-14.57-.48-21.56-1.54-3.78-.57-7.38-2.77-10.89-4.56-1.12-.57-1.72-2.17-2.55-3.3 1.19-.74 2.31-1.92 3.6-2.14 8.67-1.47 17.33-3.14 26.07-3.95 8.52-.79 13.3-4.31 14.35-13.29 1.64-13.98 4.47-27.83 5.88-41.83.55-5.43-1.12-11.17-2.27-16.66-1.59-7.58 1.36-11.3 8.49-8.91 6.49 2.18 12.84 5.35 18.55 9.15 4.79 3.18 4.93 7.89 1.96 12.78-9.28 15.27-13.33 32.42-18.59 50.1z"/>
</g></svg>