<svg enable-background="new 0 0 400 400" viewBox="0 0 400 400" xmlns="http://www.w3.org/2000/svg">
<g fill="currentColor"><path d="m136.59 197.57c-19.43 59.79-51.52 108.74-107.78 138.38-.69-.56-1.38-1.12-2.07-1.68 3.55-3.98 6.93-8.12 10.67-11.92 26.34-26.79 48.33-56.72 64.81-90.51 13.21-27.09 20.88-55.99 25.54-85.62 2.66-16.87 4.25-33.93 5.69-50.96.7-8.3-.51-16.6-5.15-24-.76-1.22-1.17-2.76-1.39-4.21-.44-3.04 1.02-4.56 4.04-3.79 4.01 1.02 8.45 1.56 11.8 3.72 7.16 4.61 14.77 4.06 22.15 2.56 28.29-5.75 56.48-11.98 84.68-18.16 8.92-1.95 17.74-4.71 27-2.49 2.7.65 5.47 1.47 7.89 2.79 5.29 2.88 5.42 6.02 0 8.37-6.51 2.82-13.3 5.21-20.17 6.98-25.93 6.69-52.34 10.71-78.99 13.17-8.27.76-16.55 1.49-24.84 2.12-2.4.18-4.02.6-4.29 3.57-2.99 33.28-8.28 66.18-17.07 99.57 9.87-1.41 19.32-2.05 28.41-4.18 32.76-7.69 65.37-16.05 98.13-23.74 7.52-1.76 15.44-2.45 23.17-2.45 4.21 0 8.66 2.02 12.57 3.99 4.01 2.02 3.95 5.56-.26 7.44-4.94 2.21-10.28 3.67-15.58 4.85-26.4 5.87-52.81 11.74-79.3 17.2-14.61 3.02-29.38 5.25-45.4 9.07 2.54 2.01 5.29 3.81 7.58 6.07 5.88 5.8 7.82 12.16 6.63 21.04-2.44 18.24-2.98 36.75-4.01 55.17-.63 11.29-.8 22.61-1.03 33.92-.12 5.87 1.59 6.82 7.36 4.14 12.36-5.72 24.65-11.59 37.02-17.29 3.4-1.56 6.97-2.74 10.46-4.1.34.4.68.81 1.02 1.21-1.31 1.68-2.38 3.62-3.95 5-13.86 12.21-28.07 24.05-41.65 36.56-8.54 7.87-16.18 16.71-24.23 25.11-1.38 1.44-2.64 3.06-4.23 4.22-3.23 2.37-6.35 2.12-8.44-1.54-8.94-15.69-9.08-23.19-.43-34.99 6.15-8.39 7.98-18.39 8.71-28.24 1.8-24.35 2.75-48.77 3.85-73.18.21-4.62-.45-9.29-.76-13.93-.42-6.23-3.01-11.12-8.76-14.07-2.93-1.52-5.79-3.18-9.4-5.17z"/><path d="m255.69 251.75c32.55 28.39 66.59 52.39 108.32 63.23 4.6 1.2 8.95 3.39 13.41 5.12-.12.66-.23 1.33-.35 1.99-2.92.95-5.79 2.42-8.78 2.75-14.19 1.57-28.41 3.07-42.65 4.14-15.94 1.2-28.75-5.41-39.27-16.99-24.16-26.62-48.06-53.49-72.59-79.76-8.23-8.81-18.06-16.14-27.24-24.05-1.23-1.06-2.96-1.53-4.16-2.69 4.91-4.68 9.55-4.89 13.42-2.6 5.36 3.17 10.22 7.28 15 11.34 12.53 10.64 24.9 21.47 37.74 32.57 12.87-14.29 25.43-27.86 32.83-45.09 1.61-3.74 1.64-8.39 1.49-12.59-.22-5.89 1.98-8.6 7.55-6.76 9.12 3.02 18.08 6.58 26.92 10.35 2.16.92 5.01 3.6 4.96 5.39-.06 1.88-2.96 4.09-5.08 5.42-22.12 13.8-41.02 31.63-61.52 48.23z"/><path d="m166.75 129.28c4.36-1.09 8.67-2.48 13.09-3.21 21.44-3.54 42.53-8.35 63.05-15.7 8.18-2.93 16.64-3.19 24.4 2.01 5.71 3.82 5.67 8.02-.78 10.39-7.74 2.85-15.79 4.99-23.86 6.74-17.47 3.8-34.85 8.67-52.98 7.54-5.88-.37-11.72-1.89-17.49-3.23-1.94-.45-3.64-1.94-5.45-2.95 0-.52.01-1.05.02-1.59z"/></g></svg>