<svg enable-background="new 0 0 400 400" viewBox="0 0 400 400" xmlns="http://www.w3.org/2000/svg">
<g fill="currentColor"><path d="m135.95 286.26c-22.6 36.25-47.88 67.9-91.01 78.24-.35-.43-.71-.86-1.06-1.29 5.07-3.88 10.4-7.48 15.16-11.7 24.61-21.85 45.5-46.75 59.97-76.47 2.94-6.05 3.56-13.34 4.6-20.16.51-3.34 1.8-4.69 4.76-3.9 8.16 2.17 15.51 6.04 21.21 12.33.98 1.09.67 4.41-.27 5.96-2.13 3.52-5.02 6.58-7.83 10.11 14.15 6.86 27.95 13.55 42.63 20.66-1.28-28.94 2.02-57.44-2.75-87.19-8.34 3.61-15.82 6.28-22.77 9.96-29.77 15.77-61.39 25.95-94.38 32.16-1.7.32-3.48.25-5.22.36-.12-.42-.24-.84-.36-1.26 6.28-2.78 12.63-5.43 18.84-8.37 31.39-14.88 63.21-28.92 93.91-45.11 17.09-9.01 32.48-21.33 48.23-32.72 7.87-5.7 13.73-13.46 17.51-22.65 1.94-4.73 4.36-5.74 8-2.93 7.17 5.55 12.91 12.37 16.25 21 1.4 3.61.28 5.78-3.09 7.7-20.08 11.46-40.06 23.1-60.06 34.69-1.27.73-2.5 1.53-3.89 2.38 3.32 2.62 6.54 4.9 9.43 7.52 2.93 2.66 3.56 5.64 2.14 9.82-2.03 5.99-2.8 12.41-4.37 19.92 12.65-2.5 23.81-4.66 34.94-6.92 6.34-1.29 12.59-3.01 18.97-4.07 7.8-1.29 14.86.8 20.81 6.12 4.24 3.79 3.76 7.19-1.8 8.5-8.05 1.9-16.3 3.22-24.53 4.04-16.01 1.6-32.08 2.68-48.81 4.03-.61 8.11-1.34 16.83-1.91 25.56-.42 6.31-.44 12.64-1.03 18.93-.32 3.42.91 5.02 3.94 6.37 22.99 10.27 47.11 16.95 71.42 23.11 23.66 5.99 47.76 8.1 72.04 9.04 6.19.24 12.35 1.13 18.53 1.72.07.46.14.93.21 1.39-3.29 1.41-6.48 3.14-9.88 4.17-26.02 7.89-52.39 13.46-79.81 12.97-13.58-.24-25.98-4.4-37.26-11.21-24.49-14.78-48.5-30.35-72.76-45.5-9.29-5.81-18.74-11.34-28.65-17.31z"/><path d="m64.44 150.97c4.08-2.34 8.03-4.92 12.25-6.98 28.13-13.69 55.73-28.28 81.08-46.79 15.88-11.6 31.75-23.18 44.09-38.78 4.66-5.89 8.58-12.16 9.22-20.04.36-4.39 3.43-6.09 6.98-3.37 7.2 5.51 14.15 11.47 20.53 17.9 3.49 3.52 2.43 7.64-1.48 10.24-23.25 15.46-46.17 31.44-69.9 46.13-27.03 16.72-55.14 31.55-85.95 40.35-5.25 1.5-10.73 2.22-16.1 3.3-.25-.64-.49-1.3-.72-1.96z"/><path d="m78.98 198.79c3.31-1.61 6.56-3.34 9.92-4.83 45.38-20.02 85.63-47.63 120.92-82.36 5.43-5.35 9.27-12.43 13.3-19.05 3.22-5.28 5.82-6.3 9.82-1.62 4.29 5.01 8.2 10.48 11.45 16.21 3.52 6.21 2.35 9.51-3.73 13.34-20.4 12.84-40.77 25.72-61.32 38.3-21.56 13.2-43.44 25.94-67.42 34.3-9.45 3.3-19.52 4.83-29.33 7.09-1 .23-2.12-.1-3.19-.17-.13-.4-.28-.8-.42-1.21z"/></g></svg>