<svg enable-background="new 0 0 400 400" viewBox="0 0 400 400" xmlns="http://www.w3.org/2000/svg">
<g fill="currentColor"><path d="m99.65 283.01c1.47-12-.81-22.62-5.82-32.31-9.9-19.18-10.65-39.05-6.54-59.66.95-4.75.92-9.69 1.4-15.28-13 3.53-24.51 10.19-37.18 4.31-2.88-1.33-5.41-3.4-8.11-5.12.11-.51.22-1.01.34-1.52 1.6-.52 3.18-1.12 4.8-1.53 8.03-2.03 16.35-3.29 24.04-6.23 6.04-2.31 11.65-6.2 16.79-10.24 4.76-3.74 9.23-5.69 15.01-3.01 5.42 2.52 10.94 4.87 16.31 7.5 5.08 2.49 6.03 5.69 3 10.51-1.76 2.79-4.09 5.23-6.21 7.79-8.16 9.89-14.1 20.85-16.64 33.56-1.8 9 .48 17.11 4.71 24.89 5.3 9.74 9.87 19.74 8.46 31.21-.66 5.36-2.21 10.61-3.46 16.36 14.01 4.14 28.3 8.27 42.53 12.59 39.18 11.9 79.32 19.26 119.8 24.81 21.99 3.01 44.09 2.39 66.21.67 10.34-.8 20.8-.14 32.74-.14-2.31 2.03-3.43 3.42-4.88 4.23-19.13 10.81-38.8 20.36-59.91 26.8-10.1 3.08-19.38.28-28.64-2.82-47.39-15.85-94.7-31.92-142.09-47.76-14.76-4.93-29.94-8.73-45.43-4.48-10.8 2.97-21.11 7.71-31.72 11.41-2.35.82-5.73 1.67-7.52.61-6.05-3.56-11.66-7.89-17.26-12.16-.95-.73-1.75-3.44-1.31-3.85 1.18-1.11 3.02-1.9 4.68-2.06 8.59-.85 17.27-.98 25.78-2.28 12.07-1.85 24.06-4.5 36.12-6.8z"/><path d="m76.22 65.99c3.94.29 7.95.23 11.82.93 10.25 1.88 20.57 3.7 29.27 10.13 8.53 6.31 12.28 17.35 9.31 27.5-1.6 5.46-5.06 7.39-10.22 5.01-3.42-1.58-6.94-3.55-9.55-6.2-9.43-9.56-18.54-19.43-27.63-29.32-1.6-1.74-2.47-4.15-3.68-6.24.23-.6.45-1.2.68-1.81z"/></g></svg>