<svg enable-background="new 0 0 400 400" viewBox="0 0 400 400" xmlns="http://www.w3.org/2000/svg">
<g fill="currentColor">
<path d="m289.28 136.63c4.59 4.21 9.07 8.16 13.36 12.31 15.18 14.65 28.91 30.41 37.52 49.99 5.62 12.78 8.19 25.98 4.9 39.84-2.21 9.32-7.19 17.17-13.96 23.78-5.72 5.59-11.26 5.06-14.33-2.17-7.18-16.92-20.03-27.34-36.36-34.34-1.95-.83-3.7-2.11-5.55-3.19.09-.48.18-.96.28-1.44 4.71.55 9.4 1.17 14.12 1.62 7.59.72 15.19 1.56 22.8 1.9 6.82.3 9.35-2.81 8.28-9.57-1.98-12.52-6.81-24.16-13.72-34.51-7.74-11.57-16.72-22.35-25.65-33.07-5-6-5.09-7.61-1.8-14.46 8.05-16.74 15.85-33.63 22.97-50.79 3.54-8.54.15-11.86-9.08-9.86-12.98 2.81-25.83 6.2-38.81 8.97-3.66.78-4.25 2.44-4.24 5.74.08 47.33.25 94.67-.08 142-.21 29.79-.86 59.59-2.1 89.36-.55 13.22-2.81 26.39-4.84 39.5-.44 2.84-3.22 5.32-4.93 7.96-1.41-2.76-3.78-5.42-4.07-8.3-1.15-11.4-2.25-22.86-2.28-34.31-.2-66 .07-132-.26-197.99-.06-11.2-1.82-22.47-3.64-33.57-.77-4.74-3.63-9.17-5.66-13.68-.88-1.96-2.31-3.7-3.03-5.71-1.07-2.98-.07-5.12 3.44-4.74 4.77.53 9.79.65 14.2 2.3 11.48 4.29 22.72 3.18 33.66-.91 13.33-4.98 26.25-11.02 39.53-16.16 3.19-1.24 7.35-1.74 10.57-.83 10.08 2.84 18.65 8.68 26.21 15.84 3.7 3.5 3.39 7.24-1.1 9.28-20.93 9.48-33.06 27.88-46.43 45.05-3.48 4.46-6.51 9.26-9.92 14.16z"/>
</g></svg>