<svg enable-background="new 0 0 400 400" viewBox="0 0 400 400" xmlns="http://www.w3.org/2000/svg">
<g fill="currentColor"><path d="m161.98 150.03c-.64-15.7-1.3-30.6-6.04-44.97-.57-1.73-1.3-3.42-2.14-5.03-4.14-7.98-6.43-8.94-15.32-7.61-15.92 2.39-31.84 4.92-47.83 6.73-13.37 1.51-24.59-4.34-34.87-12.23-.92-.71-1.46-1.93-3.01-4.06 7.97-.39 14.7-1.03 21.42-.98 34.49.24 68.8-2.47 102.94-6.97 39.48-5.2 78.86-11.19 118.28-16.79 5.75-.82 11.55-1.99 17.31-1.93 4.31.05 9.24.82 12.77 3.05 5.83 3.68 10.93 8.61 15.94 13.42 1.54 1.49 1.79 4.33 2.62 6.55-2.12.65-4.24 1.89-6.35 1.86-13.64-.15-27.3-1.17-40.92-.78-26.16.75-52.3 2.24-78.54 4.48 4.11 2.4 8.38 4.56 12.3 7.24 6.81 4.66 7.35 7.16 5.57 15.17-2.35 10.61-4.3 21.32-6.73 33.55 9.93-2.39 18.51-4.64 27.18-6.45 4.14-.86 8.92-2.24 12.6-.99 9.37 3.19 18.61 7.13 27.27 11.91 7.28 4.02 7.33 7.85 2.93 14.95-5.49 8.85-6.29 19.02-6.04 28.91.82 31.41 2.73 62.79 3.5 94.2.47 19.04 2.54 38.37-3.8 56.94-2.18 6.39-5.21 12.58-8.6 18.43-3.03 5.22-6.74 4.81-8.69-.87-3.86-11.3-7.47-22.7-10.59-34.22-1.06-3.9-3.01-5.18-6.44-5.11-22.94.47-45.89.78-68.83 1.57-21.1.73-42.18 2.22-63.28 2.86-4.76.14-6.81 1.34-7.48 5.98-.45 3.07-1.4 6.26-2.93 8.93-1.54 2.7-4.08 4.83-6.18 7.21-2.28-2.42-5.42-4.46-6.67-7.32-4.23-9.69-6.7-20.01-5.53-30.6 1.08-9.85 3.42-19.56 5.07-29.36 4.43-26.34 5.51-52.91 5.02-79.55-.15-8.28-.68-16.65-2.13-24.78-1.06-5.93-3.86-11.56-5.99-17.29-1.8-4.84-.72-6.71 4.3-6.46 3.97.2 8.09.3 11.85 1.44 11.91 3.61 23.77 1.23 35.65.32 3.29-.21 6.54-.82 10.41-1.35zm-25.68 91.33c6.22-13.6 12.63-26.06 17.65-39.05 5.14-13.29 7.42-27.37 7.91-42.41-12.62 1.03-24.58 2.01-36.87 3.01-1.44 49.99-2.87 99.28-4.3 148.71 2.02 0 3.33.1 4.63-.02 13.9-1.24 27.8-2.38 41.68-3.8 17.02-1.74 34.02-3.74 51.02-5.61 6.93-.76 13.86-2.03 20.8-2.1 8.45-.09 14.89 4.88 21.09 10.12 5.12 4.34 8.58 3.31 10.92-2.88.47-1.23.94-2.53 1.06-3.82.95-10.41 2.52-20.82 2.56-31.24.14-28.96 0-57.94-.83-86.88-.27-9.33-2.84-18.63-4.71-27.88-.89-4.39-3.83-7.36-8.52-7.94-10.79-1.34-21.45-.56-31.97 1.9-.7 5.04-1.71 9.63-1.91 14.24-.38 9.1-.65 18.23-.32 27.33.23 6.29 2.56 8.29 8.73 9.66 4.69 1.04 9.42 1.93 14.07 3.15 4.86 1.27 6.3 5.08 6.19 9.61-.11 4.33-3.38 5.35-6.84 5.77-3.28.4-6.62.85-9.9.71-13.29-.55-23.55-7.14-26-17.87-1.72-7.53-2.31-15.47-2.23-23.21.1-9.08 1.49-18.15 2.4-28.12-12.24 1.45-24.28 2.88-36.19 4.3-.48 7.05-.75 13.35-1.37 19.62-1.43 14.49-4.32 28.6-12.09 41.24-6.33 10.3-15.49 17.37-26.66 23.46zm39.77-92.66c12.41-2.36 24.16-4.49 35.83-6.99 1.22-.26 2.71-2.76 2.8-4.29.58-9.63 1.4-19.3.93-28.91-.34-7.02-2.31-14-4.06-20.86-.36-1.4-3.09-3.25-4.59-3.12-12.08 1-24.13 2.4-36.18 3.75-4.58.51-9.14 1.22-14.78 1.98 3.03 1.66 4.9 2.69 6.78 3.72 9.08 4.99 14 12.11 13.39 23.03-.57 10.27-.12 20.61-.12 31.69z"/><path d="m150.17 260.15c4.64-.88 9.28-1.75 13.91-2.64 17.74-3.38 35.44-6.94 53.23-10.03 3.96-.69 8.37-.41 12.24.64 2.44.66 4.27 3.6 6.37 5.51-1.78 1.93-3.25 4.98-5.41 5.6-8.89 2.55-17.92 4.7-27.02 6.36-11.72 2.14-23.47 4.76-35.54 2.55-6.33-1.16-12.61-2.35-17.9-6.24.04-.59.08-1.17.12-1.75z"/></g></svg>