<svg enable-background="new 0 0 400 400" viewBox="0 0 400 400" xmlns="http://www.w3.org/2000/svg">
<g fill="currentColor">
<path d="m123.51 177.52c-1.2-19.14-2.39-38.02-3.59-56.89-.04-.65-.26-1.3-.45-1.94-2.43-8.28-3-8.26-11.36-6.12-12.03 3.08-24.21 5.55-36.34 8.24-.78.17-1.66.11-2.46-.02-.42-.07-.78-.53-2.13-1.54 3.87-2.31 7.23-4.48 10.74-6.37 16.08-8.67 32.47-16.82 48.2-26.07 7.06-4.15 12.97-10.32 19.13-15.87 1.88-1.7 3.37-4.24 4.13-6.67 1.15-3.7 3.27-4.1 5.96-2.37 7.82 5.01 15.56 10.16 23.17 15.48 1.3.91 2.84 3.37 2.44 4.39-.57 1.44-2.71 2.76-4.41 3.19-17.55 4.39-33.57 12.47-49.71 20.28-.4.19-.64.7-.84.92 4.06 2.67 8.21 5.1 12.01 7.98 3.99 3.02 4.76 7.05 3.56 12.02-3.95 16.26-4.18 32.88-4.69 49.99 7.1-2 13.58-4.01 20.16-5.61 6.32-1.54 12.56-1.41 18.1 2.72 4.06 3.03 3.97 5.41-.9 6.76-9.73 2.69-19.64 4.7-29.47 7.03-7.77 1.84-7.76 1.86-7.76 9.9v17.89c8.83 2.47 17.22 4.44 25.34 7.2 10.08 3.43 13.83 10.58 11.88 21.05-1.31 7.04-4.98 8.93-10.84 4.68-7.25-5.26-13.96-11.28-20.87-17-1.61-1.33-3.12-2.79-4.67-4.19-.47.12-.95.23-1.42.35 0 7.74.12 15.48-.02 23.22-.38 19.64-.28 39.31-1.56 58.89-.73 11.16-3.6 22.21-5.96 33.22-.48 2.22-3.02 3.99-4.61 5.96-1.94-1.82-4.52-3.29-5.71-5.51-6.39-11.99-6.11-24.74-4.42-37.88 3.01-23.38 5.41-46.84 7.78-70.29.59-5.82.09-11.76.09-18.61-20.49 34.13-44.16 63.91-79.67 81.72-.61-.55-1.22-1.09-1.83-1.64 2.39-2.99 4.57-6.19 7.21-8.94 25.04-26.06 47.04-54.33 63.37-86.76.74-1.46 1.48-2.92 2.84-5.62-10.16 2.46-19.28 4.42-28.25 6.92-6.06 1.68-11.91 4.1-17.85 6.2-10.09 3.57-23.41-1.71-28.29-11.21-1.75-3.41-.77-4.99 3.37-5.61 20.01-3.02 40.03-5.97 60.02-9.15 6.5-1.05 12.92-2.7 20.58-4.32z"/>
<path d="m147.22 155.15c2.01-3.36 3.98-6.75 6.05-10.08 3.6-5.77 7.77-11.26 10.76-17.32 2.28-4.63 3.44-9.92 4.46-15.04.64-3.22 2.25-4.99 4.93-3.68 6.94 3.38 13.76 7.1 20.25 11.28 2.53 1.63 2.24 4.85-.54 6.75-13.86 9.44-27.77 18.8-41.7 28.13-.87.58-2.06.7-3.1 1.04-.37-.38-.74-.73-1.11-1.08z"/><path d="m65.21 133.74c11.88.34 22.33 1.33 30.85 8.66 5.06 4.35 5.65 15.16 1.11 20.04-1.39 1.49-4.67 2.19-6.8 1.79-2.42-.46-5.05-2.14-6.67-4.06-5.74-6.82-11.14-13.93-16.55-21.03-.82-1.08-.98-2.66-1.94-5.4z"/></g></svg>