<svg enable-background="new 0 0 400 400" viewBox="0 0 400 400" xmlns="http://www.w3.org/2000/svg">
<g fill="currentColor"><path d="m173 227.09c-11.08 10.63-23.27 22.17-35.3 33.89-20.96 20.42-43.32 38.94-69.87 51.74-5.39 2.6-11.18 4.34-17.29 5.64 45.93-36.61 87.13-77.29 120-127.66-6.65.61-12.16 1.06-17.65 1.62-19.49 1.99-38.97 4.14-58.48 5.99-9.02.86-17.6-.63-24.83-6.73-.89-.75-1.77-1.52-2.58-2.35-.43-.44-.7-1.05-1.92-2.95 19.37-1.03 37.81-1.44 56.12-3.14 18.48-1.72 36.84-4.71 55.85-7.22-.88-25 2.43-50.33-4.48-75.48-19.04 5.15-37.79 11.45-57.79 9.38-.18-.51-.35-1.03-.53-1.54 3.84-1.48 7.59-3.25 11.53-4.4 27.98-8.12 54.34-19.68 78.31-36.39 3.13-2.18 6.51-4.27 8.97-7.1 2.51-2.88 4.4-6.46 5.86-10.03 1.48-3.62 3.15-6.98 7.43-5.03 10.51 4.79 21.07 9.63 31.03 15.45 5.64 3.29 4.89 6.45-1.48 8.71-10.63 3.77-21.5 6.85-32.11 10.64-13.57 4.85-26.99 10.13-41.2 15.5 3.9 3.55 7.19 6.46 10.38 9.48 4.82 4.55 6.58 9.57 4.75 16.52-4.57 17.31-4.11 35.15-4.79 53.34 10.99-1.26 21.35-2.45 31.71-3.63 19.13-2.18 38.22-4.67 57.39-6.35 7.96-.7 15.51 2.28 21.62 7.57 1.85 1.6 3.23 4.75 3.18 7.15-.02 1.23-3.57 3.15-5.69 3.43-4.21.56-8.55.19-12.84.21-14.65.06-29.32-.17-43.96.29-11.95.38-23.88 1.58-35.82 2.44-4.81.35-9.62.66-14.4 1.24-1.04.12-2.76 1.27-2.78 1.97-.09 4.18-1.08 8.36 2.8 12.01 18.18 17.1 35.31 35.4 54.31 51.52 24.89 21.12 54.28 34.5 85.37 44.17 5.29 1.64 10.37 3.98 16.4 6.32-1.64 1.46-2.24 2.46-2.99 2.59-21.08 3.64-42.32 4.52-63.61 2.61-7.11-.64-12.71-4.93-17.39-10.03-15.64-17.06-31.1-34.27-46.62-51.43-9.22-10.2-18.41-20.42-28.17-31.23-.12 2.29-.28 3.86-.28 5.43-.07 24.16.35 48.34-.34 72.48-.54 18.91-2.32 37.78-3.91 56.64-.25 3.03-2.36 5.91-3.6 8.85-2.59-1.88-5.56-3.4-7.7-5.7-9.25-9.92-9.69-22.08-8.42-34.67 2.01-19.81 4.23-39.62 5.64-59.48.82-11.22.17-22.54.17-32.28z"/><path d="m220.27 164.86c3.43-5.38 6.83-10.8 10.31-16.15 3.9-5.98 7.95-11.86 11.81-17.87 3.47-5.39 5.93-11.04 4.68-17.78-.56-3 1.59-4.62 4.23-3.93 10.4 2.73 20.96 5.21 29.66 12.12 4.75 3.77 4.2 5.93-1.01 9.05-18.19 10.89-36.22 22.05-54.3 33.13-1.38.84-2.68 1.8-4.02 2.7-.46-.42-.91-.84-1.36-1.27z"/><path d="m103.27 132.32c3.64.81 6.53.93 8.92 2.09 6.97 3.38 14.08 6.66 20.5 10.92 8.27 5.49 8.62 13.19 6.46 23.18-.63 2.92-2.87 4.26-5.66 3.04-2.99-1.31-6.59-2.53-8.43-4.94-7.11-9.32-13.67-19.05-20.3-28.73-.82-1.21-.83-2.98-1.49-5.56z"/></g></svg>