<svg enable-background="new 0 0 400 400" viewBox="0 0 400 400" xmlns="http://www.w3.org/2000/svg">
<path d="m173.17 229.85c-20.09 3.68-39.38 6.9-58.52 10.81-13.93 2.85-27.36 3.88-39.68-4.91-2.24-1.59-4.2-3.57-7.12-6.08 30.3-3.55 59.42-6.95 89.16-10.43 0-2.39.01-4.16 0-5.94-.14-26.66.24-53.34-.6-79.98-.51-16.21-2.57-32.41-4.63-48.52-.65-5.1-3.61-9.89-5.46-14.85-.66-1.77-1.17-3.6-1.74-5.41.3-.48.61-.97.91-1.45 4.5 1.22 9.06 2.25 13.49 3.7 6.72 2.2 12.95 6.74 20.48 5.05 11.32-2.53 22.59-5.34 33.82-8.25 14.13-3.66 28.12-7.87 42.33-11.11 4.65-1.06 9.87-.18 14.73.54 1.65.24 3.98 2.59 4.17 4.19.18 1.51-1.69 4.15-3.28 4.83-8.53 3.62-17.11 7.25-25.94 10-22.9 7.15-46.46 10.92-70.74 12.24v36.98c16.29-3.64 32.41-7.11 48.46-10.87 7.26-1.7 14.35-4.07 21.57-5.97 5.66-1.5 10.92-.07 15.63 3.14 4.43 3.02 4.36 6.6-.64 8.44-7.74 2.85-15.68 5.65-23.78 6.89-20.14 3.09-40.42 5.28-61.19 7.91v37.07c15.44-2.82 30.59-5.55 45.72-8.36 7.33-1.36 14.59-3.54 21.97-4.13 5.29-.43 10.81.87 16.09 2 1.74.37 3.07 2.66 4.59 4.07-1.54 1.42-2.86 3.54-4.67 4.13-6.45 2.1-12.97 4.49-19.64 5.3-20.12 2.45-40.32 4.18-60.47 6.34-1.41.15-3.85 1.5-3.87 2.34-.25 11.93-.17 23.87-.17 36.34 19.49-2.79 39.5-5.68 59.51-8.52 22.84-3.25 45.65-6.75 68.55-9.56 9.64-1.18 19.44-.49 27.67 5.8 1.8 1.37 2.81 3.76 4.19 5.69-2.18 1.25-4.25 3.24-6.57 3.6-5.06.8-10.26.68-15.4 1.1-20.7 1.69-41.45 2.96-62.08 5.3-20.55 2.34-40.97 5.78-61.8 9.88 2.78 1.91 5.65 3.71 8.33 5.76 4.76 3.65 4.25 5.72.92 10.6-8.8 12.89-17.15 26.11-25.37 39.38-4.35 7.02-8.07 14.44-12.72 22.85 34.78-3.31 67.59-11.12 100.83-17.66-7.25-10.93-14.18-21.36-21.9-33.01 3.77 0 5.87-.57 7.46.09 20.15 8.41 39.09 18.73 52.65 36.55 7.29 9.58 8.96 20.17 3.75 31.41-3.36 7.24-7.56 8.37-12.88 2.54-6.83-7.48-13.04-15.53-19.32-23.49-1.48-1.87-2.47-2.94-5.18-2.27-35.25 8.72-70.64 16.9-105.74 26.17-9.96 2.63-19.23 8.11-28.59 12.74-7.13 3.53-9.89 2.71-10.65-5.15-.48-5-.12-10.31 1.15-15.15.77-2.94 3.5-5.95 6.15-7.71 13.74-9.09 23.61-21.44 30.96-35.9 6.63-13.04 13.24-26.16 15.09-40.97.21-1.84.01-3.75.01-6.12z" fill="currentColor"/></svg>