<svg enable-background="new 0 0 400 400" viewBox="0 0 400 400" xmlns="http://www.w3.org/2000/svg">
<path d="m140.86 195.05c-15.42 2.54-30.3 5-45.18 7.45-7.04 1.16-14.07 2.43-21.14 3.41-7.13.98-23.22-7.3-26.94-14.23 2.29-.63 4.37-1.67 6.48-1.72 28.18-.66 55.85-5.44 83.56-9.94 3.3-.54 4.1-1.85 3.98-4.85-.97-23.93-1.15-47.92-3-71.78-1.24-16.04-4.62-31.94-14.38-45.61-.99-1.39-1.41-3.93-.81-5.44.37-.95 3.18-1.49 4.8-1.31 10.68 1.2 20.87 4.21 30.14 9.68 5.41 3.19 5.3 5.8 3.63 11.73-1.92 6.81-3.23 13.97-3.51 21.03-.82 20.46-.99 40.94-1.39 61.41-.01.43.23.87.61 2.28 5.8-5.76 11.49-10.8 16.48-16.47 14.5-16.49 28.84-33.11 42.95-49.93 3.49-4.16 5.95-9.21 8.67-13.97 3.12-5.45 4.57-11.29 4.24-17.69-.35-6.89 2.9-9.56 8.81-6.64 9.51 4.7 18.76 10 27.69 15.72 5.13 3.29 4.78 7.47-.45 9.93-14.74 6.93-26.02 18.33-38.15 28.69-21.26 18.15-42.64 36.16-64.15 54.01-7.32 6.07-8 6.89-6.08 17.1 18.9-3.47 37.89-6.54 56.69-10.53 20.77-4.41 41.36-9.64 62.01-14.55 13.36-3.17 24.55 1.66 34.71 9.66 3.56 2.8 2.92 5.51-1.67 6.58-6.12 1.43-12.43 2.02-18.66 2.95-29.89 4.46-59.78 8.87-89.66 13.4-6.67 1.01-13.28 2.41-21 3.83 6.96 5.91 13.11 11.17 19.29 16.39 16.15 13.65 32.11 27.53 48.52 40.86 27.5 22.33 59.07 36.1 93.58 43.48 4.3.92 8.44 2.54 12.66 3.84.06.57.13 1.13.19 1.7-1.74.88-3.39 2.21-5.23 2.56-9.28 1.77-18.57 3.72-27.94 4.76-10.73 1.19-21.55 1.68-32.35 2.09-4.28.16-8.61-.6-12.9-1.14-9.74-1.23-17.49-6.14-23.69-13.53-16.28-19.37-32.47-38.82-48.69-58.24-10.78-12.91-21.54-25.83-32.33-38.72-4.25-5.07-9.13-1.04-14.26-1.27-.34 15.49-.57 30.61-1.04 45.72-.54 17.45-1.31 34.9-1.97 52.35-.05 1.33-.04 2.67.02 4 .28 6.02 2.18 7.43 7.44 4.7 10.48-5.44 20.7-11.37 31.14-16.88 5.38-2.84 11-5.19 16.52-7.77.38.44.75.89 1.13 1.33-1.78 2.15-3.38 4.48-5.38 6.41-14.76 14.2-29.73 28.2-44.35 42.54-6.05 5.93-11.42 12.55-17.09 18.87-1.33 1.49-2.54 3.1-3.96 4.5-6.13 6-11.01 5.1-14.59-2.73-4.18-9.14-4.48-17.58-.38-27.62 5.13-12.57 8.25-26.33 9.93-39.86 3.04-24.39 4.39-48.99 6.38-73.51.26-2.82.07-5.64.07-9.03z" fill="currentColor"/></svg>