<svg enable-background="new 0 0 400 400" viewBox="0 0 400 400" xmlns="http://www.w3.org/2000/svg">
<g fill="currentColor"><path d="m297.03 151.25c-14.11 1.45-27.81 2.87-41.51 4.28-1.82.19-3.63.46-5.45.57-5.1.3-9.73.77-10.39 7.62-.19 1.95-2.77 3.66-4.26 5.48-1.6-1.78-3.75-3.3-4.69-5.38-3.52-7.73-4.18-15.84-3.35-24.35 2-20.56 3.03-41.19-.61-61.69-.77-4.32-2.79-8.48-4.6-12.55-2.66-5.97-1.91-7.3 4.52-7.43 16.99-.33 33.94-1.17 49.89-7.85 14.71-6.16 30.1-3.21 41.34 8.35 2.92 3.01 4.45 6.61 2.18 10.41-6.01 10.04-6.48 21.26-6.81 32.32-.94 31.8.71 63.54 3.63 95.22 2.67 28.96 5.01 57.94 7.35 86.93 1.29 15.92 2.63 31.94-1.34 47.65-1.69 6.69-4.28 13.32-7.51 19.42-4.24 8-8.26 7.68-13.5.36-6.86-9.59-13.84-19.13-21.26-28.29-3.85-4.75-8.78-8.62-13.17-12.94-1.36-1.34-2.57-2.82-3.85-4.24.21-.45.41-.9.62-1.34 2.76.55 5.54 1.01 8.28 1.68 6.44 1.59 12.82 3.48 19.3 4.87 8.18 1.75 11.39-.26 11.87-8.77.75-13.27 1-26.61.68-39.89-.36-14.62-1.54-29.22-2.47-43.82-1.36-21.4-2.82-42.8-4.26-64.2-.04-.67-.32-1.29-.63-2.42zm-.36-13.53c-1.12-18.74-2.06-37.64-3.5-56.5-.37-4.86-1.95-9.73-3.61-14.36-1.37-3.81-4.35-6.54-8.85-5.8-13.04 2.16-26.04 4.53-39.05 6.81v31.21c4.38-.57 8.45-1.14 12.53-1.62 5.6-.65 11.21-1.51 16.83-1.74 4.26-.17 7.29 2.84 7.27 6.67-.01 1.87-3.43 4.17-5.76 5.46-1.92 1.06-4.49 1.1-6.79 1.27-7.9.59-15.82 1.04-23.9 1.55v36.13c18.07-2.99 35.7-5.91 54.83-9.08z"/><path d="m76.62 309.73c1.46-7.65 3.31-15.24 4.31-22.95 2.24-17.28 5.16-34.57 5.83-51.93 1.37-35.75 1.73-71.56 1.91-107.34.06-11.58-1.55-23.18-2.81-34.73-.37-3.35-2.13-6.57-3.36-9.81-1.62-4.26-.38-6.09 4.02-5.65 17.45 1.75 34.43.31 51-6.07 3.65-1.41 8.69-1.04 12.52.24 5.58 1.87 10.73 5.16 15.89 8.12 3.92 2.25 5.05 6.02 2.74 9.8-8.65 14.16-9.13 30.31-11.56 45.97-1.05 6.72-1.82 13.51-2.27 20.3-.15 2.35.97 4.82 1.69 7.18.28.92 1.07 1.67 1.57 2.53 3.09 5.37 1.88 7.93-4.36 8.56-8.43.86-16.9 1.38-25.34 2.16-7.11.66-14.2 1.55-21.32 2.2-3.13.29-4.02 1.83-4.06 4.86-.24 18.14-.3 36.3-1.09 54.42-1.32 30.36-1.75 60.83-7.86 90.78-.56 2.74-1.35 5.5-2.49 8.04-.66 1.48-2.06 3.14-3.47 3.56-.79.23-2.86-1.71-3.35-3.04-2.48-6.83-4.72-13.76-6.83-20.71-.62-2.03-.56-4.27-.81-6.42-.17-.02-.33-.05-.5-.07zm26.82-141.19c.74.12 1.24.32 1.7.25 10.63-1.67 21.28-3.25 31.86-5.21 1.18-.22 2.74-2.55 2.81-3.96.81-16.09 1.51-32.19 1.91-48.29.15-6.12-.27-12.28-.92-18.37-.62-5.81-3.12-8.07-8.93-7.68-9.87.66-19.7 1.87-29.6 2.86v36.06c5.85-1.31 11.35-2.46 16.8-3.79 4.64-1.13 8.97-.92 12.53 2.63 2.7 2.69 2.14 4.96-1.44 6.34-1.23.47-2.53.88-3.83 1.03-7.53.86-15.08 1.63-22.88 2.47-.01 11.83-.01 23.74-.01 35.66z"/></g></svg>