<svg enable-background="new 0 0 400 400" viewBox="0 0 400 400" xmlns="http://www.w3.org/2000/svg">
<g fill="currentColor"><path d="m261.59 306.24c6.74 1.41 13.48 2.85 20.23 4.23 11.83 2.41 15.2.61 15.98-11.45 1.27-19.4 1.97-38.89 1.87-58.33-.12-23.12-1.12-46.24-2.14-69.34-.95-21.59-2.3-43.17-3.77-64.73-.4-5.93-1.87-11.78-2.79-17.67-.83-5.29-4.06-7.45-9.16-6.85-11.69 1.38-23.41 2.58-35.03 4.44-10.95 1.76-21.76 4.4-32.67 6.42-9.46 1.74-18.22-.24-25.85-6.19-1.55-1.21-2.44-3.28-3.63-4.96 1.86-.91 3.65-2.33 5.6-2.61 3.44-.49 6.98-.24 10.47-.37 24.85-.9 49.28-4.36 73.05-11.85 2.36-.74 4.83-1.53 6.87-2.87 6.28-4.12 12.68-3.98 18.84-.38 6.87 4.01 13.64 8.29 19.98 13.07 6.28 4.74 7.54 10.18 4.2 17.21-8.12 17.07-7.39 35.17-6.81 53.28.32 9.8.6 19.61 1.19 29.41 1.56 26.05 3.54 52.09 4.86 78.15 1.32 26.07 3.16 52.24-1.95 78.11-1.49 7.52-4.44 14.97-7.97 21.8-4.06 7.85-8.98 7.52-13.58.01-3.48-5.66-6.29-11.88-10.53-16.89-6.75-7.96-14.46-15.11-21.73-22.64-2.24-2.31-4.38-4.73-6.56-7.09.35-.64.69-1.28 1.03-1.91z"/><path d="m82.47 95.85c.59.16 1.87.47 3.13.87 8.9 2.83 16.44 7.9 23.16 14.26 3.8 3.6 4.61 7.04 2.72 12.74-2.76 8.37-3.75 17.54-4.17 26.43-1.14 24.26-1.57 48.55-2.32 72.83-.63 20.45-.63 40.95-2.21 61.33-1.13 14.65-4.13 29.19-6.92 43.66-.64 3.3-3.36 8.06-5.98 8.71-4.56 1.13-5.86-4.34-7.82-7.64-7.77-13.11-6.56-26.66-3.3-40.96 5.14-22.56 6.76-45.66 7.17-68.78.47-26.13.67-52.27 1-78.4.16-12.79-1.78-25.16-7.27-36.84-.56-1.2-.96-2.48-1.32-3.76-.8-2.93.22-4.53 4.13-4.45z"/><path d="m156.02 85.7c-.09.55-.22 1.36-.35 2.18-2.06 12.93-6.12 14.58-16.17 6.25-10.32-8.56-18.83-18.71-25.1-30.6-.89-1.68-1.48-4.91-.59-5.81 1.32-1.33 4.41-2.14 6.2-1.54 8.59 2.87 17.24 5.76 25.39 9.65 7.87 3.75 9.97 11.47 10.62 19.87z"/></g></svg>