<svg enable-background="new 0 0 400 400" viewBox="0 0 400 400" xmlns="http://www.w3.org/2000/svg">
<path d="m206.57 138.49c12.1 10.18 24.23 19.28 35.02 29.76 12.07 11.73 21.1 25.82 23.98 42.86 2 11.84 1.19 23.59-4.12 34.63-3.68 7.65-9.4 8.86-16.12 3.31-5.5-4.55-10.1-10.39-16.05-14.17-9.75-6.2-20.25-11.21-30.46-16.68-1.97-1.06-4.04-1.92-5.84-3.93 7.15 0 14.31.16 21.45-.05 5.76-.17 11.65-.13 17.22-1.38 6.3-1.41 9.06-6.33 6.4-12.2-3.74-8.27-8.03-16.53-13.5-23.72-6.8-8.93-15.04-16.77-22.69-25.04-1.47-1.58-3.16-2.96-4.67-4.5-2.79-2.86-2.62-5.59-1.03-9.42 6.68-16.06 12.82-32.35 19.06-48.59.57-1.5.63-3.28.56-4.91-.13-2.98-1.33-4.52-4.81-3.7-15.65 3.66-31.35 7.14-47.55 10.8v6.02c0 33.5.05 66.99-.02 100.49-.06 29.16.19 58.33-.54 87.47-.54 21.41-2.33 42.8-3.83 64.18-.25 3.55-1.59 7.13-3.01 10.44-.67 1.56-2.74 2.52-4.18 3.75-1.14-1.33-2.91-2.51-3.29-4.03-1.43-5.78-3.01-11.62-3.44-17.53-.88-11.94-1.4-23.93-1.44-35.91-.16-43.66.12-87.32-.14-130.98-.12-20.63-.52-41.29-1.93-61.86-.67-9.77-3.96-19.37-6.12-29.03-.32-1.45-1.11-2.8-1.39-4.25-.71-3.76 1.21-5.87 5.01-5.24 3.59.59 7.33 1.1 10.62 2.53 9.29 4.03 18.62 3.59 27.67.16 12.86-4.88 25.45-10.49 38.15-15.79.31-.13.67-.23.88-.45 9.72-10.55 20.33-7.19 30.91-1.8 4.72 2.4 9.39 5.04 13.66 8.15 3.56 2.6 3.46 6.34-.26 8.64-20.68 12.76-32.51 33.46-46.94 51.83-2.77 3.52-5.21 7.29-7.22 10.14z" fill="currentColor"/></svg>