<svg enable-background="new 0 0 400 400" viewBox="0 0 400 400" xmlns="http://www.w3.org/2000/svg">
<g fill="currentColor"><path d="m47.01 180.09c15.87-1.67 31.76-3.15 47.59-5.06 15.99-1.93 31.94-4.23 47.89-6.45 15.93-2.22 31.85-4.54 48.03-6.85 0-8.83 0-17.41 0-26.41-9.92 1.36-19.59 2.45-29.17 4.05-10.19 1.7-19.14-.99-27.66-5.84-.05-.63-.11-1.27-.16-1.9 3.16-.87 6.28-2.02 9.5-2.58 14.55-2.51 29.13-4.87 43.7-7.22 2.87-.46 4.32-1.53 4.17-4.83-.28-6.43-.08-12.89-.08-19.69-12.31 1.82-23.93 3.54-35.55 5.25-9.86 1.45-18.78-1.11-26.97-6.49-1.1-.72-1.67-2.24-2.49-3.39 1.22-.71 2.38-1.89 3.66-2.04 8.91-1.02 17.89-1.51 26.75-2.79 11.46-1.66 22.83-3.9 34.48-5.93-.68-13.49-1.22-26.23-9.58-37.05-.71-.92-1.29-2.68-.87-3.5.42-.83 2.35-1.59 3.32-1.32 9.38 2.56 18.78 5.12 28 8.2 2.95.99 3.18 3.53 2.01 6.98-2.3 6.8-3.47 13.98-5.38 22.18 8.73-1.48 15.99-2.94 23.3-3.9 8.49-1.11 17.02-2.37 25.55-2.44 6.03-.05 10.81 3.95 14.68 8.53 2.33 2.75 1.83 5.15-1.83 5.8-4.72.84-9.55 1.09-14.32 1.67-14.5 1.76-29 3.55-43.49 5.37-.94.12-1.84.6-2.94.97-.46 7.55-.92 14.98-1.42 23.07 9.02-1.47 17.42-2.93 25.85-4.17 8.54-1.26 16.93-1.42 24.36 4.21 1.72 1.3 3.8 2.12 5.72 3.16-.47 1.04-.94 2.07-1.41 3.11-4.34 1.1-8.63 2.51-13.03 3.24-13.73 2.27-27.51 4.29-41.61 6.45-.46 8.67-.92 17.23-1.41 26.35 7.35-.79 14.22-1.56 21.09-2.27 15.19-1.57 30.42-2.92 45.58-4.72 13.34-1.59 26.64-3.57 39.93-5.55 15.82-2.36 30.51.29 43.58 9.78 1.76 1.28 2.55 3.89 3.79 5.89-1.91 1.08-3.76 2.94-5.75 3.1-7.27.61-14.63 1.29-21.88.81-25.99-1.73-51.83.17-77.71 2.03-47.96 3.45-95.05 12.64-142.3 20.88-13.22 2.31-26.58 4.42-39.95 4.99-9.88.42-19-3.64-25.74-11.42.08-.75.13-1.5.17-2.26z"/><path d="m209.57 321.36c6.69.99 13.38 2 20.07 2.95 2.14.3 4.31.36 6.45.63 4.84.61 7.83-1.8 8.79-6.19 1.31-5.96 2.98-12.09 2.77-18.09-.82-23.42-2.31-46.81-3.6-70.21-.2-3.65-.71-7.28-1.07-10.91-1.42-14.11-7.61-19.48-21.63-17.09-18.3 3.12-36.45 7.1-54.63 10.89-1.27.26-2.99 1.91-3.19 3.14-1.18 7.17-1.97 14.41-3.05 22.83 8.63-1.02 16.29-1.79 23.91-2.86 9.84-1.38 19.61-3.34 29.48-4.31 3.67-.36 7.54 1.35 11.38 3.1-8.88 7.8-19.74 10.13-30.44 11.32-10.92 1.21-22.08.27-34.05.27-.99 8.5-2.02 17.45-3.24 27.9 11.07-1.18 21.06-2.18 31.03-3.32 9.69-1.11 19.34-2.77 29.05-3.32 3.5-.2 7.15 2.13 10.73 3.3-.1.88-.21 1.76-.31 2.65-22.65 10.64-46.62 10.56-71.15 6.96-1.29 9.56-2.17 18.81-3.87 27.9-1.89 10.09-4.35 20.08-6.97 30.01-.87 3.3-2.67 6.48-4.6 9.34-2.9 4.28-6 4.23-9.24.26-7.21-8.85-6.69-18.83-3.65-28.86 3.27-10.78 8.32-21.16 10.47-32.13 3.53-18.03 5.57-36.36 7.8-54.62.98-8.01-.57-15.83-4.02-23.31-2.44-5.29-.93-7.85 4.01-6.67 20.77 4.98 40.09-2.21 59.73-6.56 7.6-1.68 15.1-4 22.42-6.63 7.31-2.63 14.38-2.45 21.42.3 4.79 1.87 9.5 4 14.04 6.41 5.07 2.69 7.27 7.29 5.29 12.6-5.97 15.97-3.39 32.18-2.06 48.38 1.46 17.72 3.58 35.41 4.35 53.15.7 16.06-5.05 30.32-15.63 42.51-.76.88-1.54 1.75-2.37 2.56-6.31 6.11-8.92 5.84-13.51-1.43-6.35-10.08-15.66-17.11-24.82-24.34-2.52-1.99-4.69-4.4-7.02-6.62.32-.63.62-1.26.93-1.89z"/></g></svg>