<svg enable-background="new 0 0 400 400" viewBox="0 0 400 400" xmlns="http://www.w3.org/2000/svg">
<path d="m254.19 127.77c19.55-4.53 38.43-8.95 57.34-13.26 9.76-2.22 17.96 1.61 25.4 7.31 2.69 2.06 1.72 5.43-2.15 6.91-3.68 1.41-7.66 2.25-11.58 2.77-17.93 2.37-35.86 4.68-53.83 6.69-5.09.57-10.29.09-16.32.09v48.82c6.15-1.16 12.74-2.25 19.25-3.68 11.17-2.46 22.3-5.11 33.44-7.72 9.37-2.19 22.17 2.65 28.42 11.47-2.37 1.34-4.53 3.43-6.96 3.8-18.87 2.86-37.75 5.65-56.7 7.85-5.81.67-11.84-.56-18.64-.98v54.18c6.97-.79 14.51-1.28 21.92-2.57 16.99-2.95 33.82-6.98 50.9-9.22 11.21-1.47 21.07 3.74 29.25 11.42.71.66.15 4.29-.73 4.74-3.19 1.61-6.71 3.17-10.22 3.46-15.73 1.33-31.5 2.23-47.26 3.27-14.92.98-29.85 1.94-45.71 2.98 0 8.98.64 17.79-.13 26.48-1.72 19.33-3.96 38.61-6.44 57.86-.58 4.5-2.79 8.83-4.58 13.1-.47 1.13-2.36 2.57-3.29 2.37-1.3-.27-3.05-1.8-3.29-3.04-1.04-5.2-2.12-10.48-2.23-15.76-.53-25.13-1.01-50.26-1.01-75.39-.01-22.47.61-44.95.98-67.42.31-18.8.69-37.6.99-56.41.35-22.13 1.16-44.28.69-66.4-.21-9.62-2.71-19.28-4.94-28.74-1.58-6.69-.54-8.77 6.4-8.01 8.96.98 16.98 4.57 24.26 9.74 3.01 2.13 5.16 5.26 3.39 9.05-5.67 12.12-5.89 25.14-6.54 38.05-.41 8.15-.08 16.31-.08 26.19z" fill="currentColor"/>
<path d="m146.18 251.18c-11 5.21-22.09 9.98-32.73 15.61-13.18 6.97-25.94 14.74-39.02 21.91-1.72.94-4.64 1.22-6.34.41-9.48-4.55-15.3-13.11-21.58-21.03-2.11-2.67-.15-5.64 3.18-5.01 10.02 1.88 19.53-.73 28.91-3.32 22.23-6.14 44.32-12.83 66.52-19.09 3.38-.95 4.88-2.51 5.34-5.98 1.51-11.45 3.3-22.86 5.16-35.47-11.41 1.88-21.57 3.22-31.57 5.33-7.09 1.5-13.9 4.26-20.94 6.03-2.61.65-5.8.84-8.24-.07-6.03-2.24-11.92-5-17.57-8.08-1.66-.9-2.32-3.62-3.44-5.51 1.67-.74 3.28-1.92 5.01-2.16 24.5-3.36 49.03-6.54 73.53-9.95 1.51-.21 3.95-1.87 4.03-2.98.82-12.42 1.25-24.86 1.82-38.15-15.23 2.64-29.72 5.01-44.15 7.74-4.36.83-8.47 2.87-12.79 3.96-2.5.63-5.56 1.41-7.73.53-6.72-2.72-13.21-6.04-19.59-9.51-1.2-.65-1.96-3.03-1.94-4.59.01-.68 2.45-1.74 3.88-1.93 25.66-3.4 51.34-6.68 77.02-10.02 1.61-.21 3.17-.75 6.11-1.46-1.35-11.4-2.25-22.79-4.24-33.99-.8-4.54-3.81-8.75-6.09-12.95-3.06-5.66-1.61-9.39 4.77-9.31 12.07.14 23.42 3.44 32.41 11.87 1.85 1.74 2.55 6.39 1.7 9.04-6.09 19.12-6.5 38.87-7.62 58.61-1.87 33.16-2.81 66.51-11.05 98.91-7.87 30.92-21.2 59.21-45.15 81.22-6.8 6.25-14.93 11.1-22.63 16.33-1.48 1.01-3.81.78-5.74 1.13.46-1.95.37-4.33 1.48-5.8 6.02-7.97 12.36-15.68 18.54-23.53 15.69-19.96 25.86-42.48 31.08-67.29.05-.29-.14-.62-.34-1.45z" fill="currentColor"/>
</svg>