<svg enable-background="new 0 0 400 400" viewBox="0 0 400 400" xmlns="http://www.w3.org/2000/svg">
<path d="m197.1 99.07c2.08 3.02 4.3 5.72 5.92 8.74 2.15 4 2.3 8.35-1.65 11.26-15.41 11.33-26.33 26.74-38.17 41.33-2.4 2.95-4.62 6.05-7.69 10.08 7.94-1.06 14.88-1.91 21.8-2.92 23.98-3.51 47.98-6.9 71.92-10.7 11.94-1.9 23.92-3.96 35.56-7.15 10.87-2.98 20.83-2.58 29.91 4.06 7.48 5.47 14.86 11.24 21.46 17.72 5.61 5.51 4.95 9.19-.09 15.18-7.35 8.72-10.1 19.46-11.8 30.28-3.13 20-5.42 40.13-8.2 60.19-2.93 21.14-8.48 41.33-22.28 58.31-1.76 2.17-3.85 4.16-6.07 5.87-5.92 4.58-10.13 3.55-12.43-3.66-2.27-7.08-3.37-14.53-5.34-21.72-5.47-19.87-1.47-16.81-20.76-16.3-22.41.59-44.78 2.67-67.16 4.28-17.4 1.25-34.78 2.76-52.17 4.18-7.12.58-14.23 1.56-21.36 1.74-3.51.09-4.35 1.85-5.29 4.5-1.33 3.74-2.83 7.45-4.63 10.98-.75 1.48-2.75 3.65-3.67 3.42-1.56-.38-3.5-2.2-3.92-3.79-2.25-8.31-4.91-16.64-5.87-25.14-2.22-19.81-3.13-39.76-5.33-59.56-2.16-19.37-6.52-38.26-14.98-56.07-1.73-3.64-1.64-8.14-2.38-12.25 4-.05 8.38-1.19 11.95.03 21.42 7.34 42.82 2.38 64.21.49 2.31-.2 5.3-2.24 6.47-4.29 7.99-13.96 16.25-27.83 22.99-42.39 3.2-6.93 3.26-15.31 4.98-24.28-9.17 1.21-16.72 1.95-24.17 3.26-12.35 2.16-23.52.08-33.11-8.31-1.25-1.1-1.93-2.86-2.87-4.31 1.53-.78 2.99-1.9 4.62-2.26 2.57-.57 5.26-.9 7.89-.88 25.4.17 50.36-3.75 75.12-8.67 20.15-4 40.08-9.15 60.09-13.89 10.25-2.43 19.09.41 26.94 6.92 4.45 3.69 4.12 7.61-1.37 9.29-8.85 2.7-17.93 4.82-27.06 6.37-19.97 3.38-40.02 6.23-60.04 9.32-.66.09-1.24.45-1.97.74zm32.86 189.05c9.57-.42 18.18-.93 26.8-1.15 7.96-.2 14.72 2.5 19.2 9.41 2.55 3.93 4.36 2.6 6.06-.5.95-1.74 1.93-3.56 2.39-5.47 3.23-13.34 7.18-26.59 9.26-40.12 2.49-16.21 3.66-32.65 4.77-49.03.55-8.07.18-16.29-.68-24.34-.84-7.77-5.06-10.94-12.9-10.81-5.97.1-11.97.37-17.9 1.03-11.14 1.23-22.25 2.8-33.75 4.27 3.23 4.4 6.59 7.96 8.65 12.16 1.37 2.8 1.73 6.69 1.07 9.78-1.89 8.87-5.35 17.45-6.67 26.37-2.25 15.25-3.44 30.66-4.88 46.02-.7 7.39-.96 14.83-1.42 22.38zm-76.39 9.42c-.75-26.41-1.1-52.18-2.4-77.89-.46-8.99-2.7-18.02-5.16-26.74-3.13-11.12-3.59-10.99-14.79-9.89-.5.05-1 .01-1.5.08-11.14 1.48-22.28 2.97-33.34 4.45 2.85 37.67 5.66 74.87 8.54 112.93 15.99-.97 31.83-1.93 48.65-2.94zm61.61-123.27c-19.04 2.03-36.76 3.92-55.67 5.94 7.77 8.18 5.57 17.8 7.03 27.43 8.93-2.06 17.49-3.93 25.99-6.02 4.71-1.16 9.37-1.66 13.25 1.68 1.75 1.5 3.77 4.19 3.53 6.07-.22 1.75-3.05 3.97-5.13 4.54-5.41 1.48-11.01 2.47-16.59 3.11-7.04.8-14.15 1.06-21.28 1.56v29.73c8.22-1.69 16.01-3.18 23.75-4.92 5.5-1.24 10.58-1.18 14.74 3.26 3.22 3.43 2.92 6.21-1.36 8.26-3.1 1.49-6.52 2.64-9.91 3.11-9.01 1.26-18.08 2.08-27.16 3.08v34.66c14.89-1.75 29.39-3.45 43.89-5.14 2.71-.32 4.46-1.21 4.58-4.54.94-27.41 2.35-54.81 2.9-82.22.2-9.53-1.59-19.1-2.56-29.59z" fill="currentColor"/></svg>