<svg enable-background="new 0 0 400 400" viewBox="0 0 400 400" xmlns="http://www.w3.org/2000/svg">
<path d="m240.65 276.64c6.44.49 12.87 1.16 19.32 1.42 4.62.19 9.31.21 13.87-.4 5.64-.76 8.87-4.92 11.2-9.75 5.71-11.82 8.6-24.44 9.8-37.41.54-5.89.66-11.94-.03-17.79-.67-5.7-3.92-8.16-9.72-7.61-10.9 1.03-21.76 2.58-32.62 4.06-14.47 1.97-28.91 4.09-43.73 6.2-.12 1.58-.3 3.03-.31 4.49-.16 18.49.21 37-.54 55.47-1.02 25.05-.85 50.23-5.79 74.99-1.66 8.33-3.16 11.75-7.72 16.06-.93-3.63-2.2-6.6-2.38-9.64-.66-11.28-1.24-22.59-1.36-33.89-.36-33.47-.49-66.94-.72-100.41-.01-1.29-.19-2.57-.32-4.21-24.36 4.15-48.38 8.33-72.43 12.32-13.02 2.16-25.6 1.41-36.45-7.33-1.57-1.27-2.8-2.97-4.33-4.62 38.2-3.62 75.71-7.18 113.32-10.75 0-10.74 0-20.18 0-30.25-9.54 1.73-18.74 3.72-28.04 4.98-7.31.99-14.82 1.96-22.09 1.3-5.8-.53-11.16-3.87-15.77-10.58 5.25-.87 9.45-1.76 13.7-2.24 17.3-1.95 34.62-3.78 52.13-5.68 0-11.74 0-22.67 0-34.43-7.74.91-15.4 1.78-23.04 2.72-11.69 1.44-23.36 3.1-35.07 4.37-12.13 1.32-22.83-2.59-33.88-10.3 3.1-.78 4.99-1.53 6.93-1.69 13.24-1.11 26.55-1.61 39.71-3.25 14.32-1.79 28.52-4.54 42.73-7.08 1.12-.2 2.79-2.03 2.79-3.11.03-20.44.9-40.98-4.01-61.05-1.2-4.91-4.1-9.38-5.94-14.17-1.85-4.82-.49-6.79 4.28-5.23 9.58 3.15 19.1 6.68 28.22 10.96 5.68 2.67 5.21 5.41 3.68 11.61-2.22 8.97-3.64 18.19-4.61 27.38-.99 9.37-1.02 18.83-1.52 29.29 13.54-2.45 26.24-4.62 38.89-7.08 13.01-2.53 25.8-7.14 39.27-5.25 5.29.74 10.58 2.76 15.41 5.14 4.28 2.11 4.03 6.2-.54 7.54-9.03 2.64-18.25 4.88-27.55 6.25-22.01 3.24-44.11 5.86-66.58 8.79v33.4c5.54-.89 11.03-1.63 16.46-2.67 10.75-2.04 21.43-4.45 32.2-6.32 7.95-1.37 15.24.59 21.17 6.3 1.21 1.17 2.76 3.46 2.34 4.48-.59 1.43-2.78 2.8-4.47 3.08-13.09 2.17-26.25 4-39.36 6.08-9.49 1.51-18.94 3.24-28.51 4.89v28.03c6.65-.89 13-1.65 19.33-2.62 19.53-3 39.05-5.94 57.9-12.37 7.57-2.58 15.46-2.04 22.79 1.74 5.74 2.96 11.53 5.88 17.08 9.19 2.89 1.72 5.03 4.74 2.1 7.89-8.84 9.5-9.96 21.77-12.75 33.5-3.18 13.38-5.78 26.96-9.98 40.03-3.55 11.05-10.86 20.15-19.96 27.55-5.66 4.61-10.69 5.08-14.99-2.42-6.57-11.49-17.01-19.45-27.6-27.07-.77-.55-1.52-1.12-2.28-1.68.13-.4.25-.77.37-1.15z" fill="currentColor"/></svg>