<svg enable-background="new 0 0 400 400" viewBox="0 0 400 400" xmlns="http://www.w3.org/2000/svg">
<g fill="currentColor"><path d="m40.72 192.9c3.47-.64 6.93-1.49 10.44-1.9 28.03-3.34 56.09-6.44 84.1-9.93 25.54-3.18 51.05-6.69 76.55-10.23 1.61-.22 3.78-1.58 4.4-2.98 7.8-17.54 14.4-35.44 13.74-55.09-.1-3.09-.8-6.16-1.28-9.66-13.14 2.58-25.58 5.43-38.16 7.38-14.73 2.27-29.55 4.51-44.41 5.22-6.4.3-13.05-3.09-19.46-5.22-1.54-.51-2.53-2.67-3.78-4.07 1.52-.87 2.95-2.21 4.57-2.53 10.75-2.08 21.59-3.74 32.32-5.91 28.61-5.77 57.15-11.91 85.8-17.52 10.56-2.07 21.29-3.56 32.01-4.27 4.09-.27 8.88 1.6 12.46 3.88 4.62 2.95 4.19 7.5-.91 9.58-7.49 3.04-15.31 5.44-23.18 7.31-8.63 2.05-17.48 3.19-27.3 4.91 4.21 2.13 7.6 3.68 10.83 5.52 2.44 1.39 4.86 2.94 6.93 4.81 4.22 3.81 4.09 6.79.21 11.02-12.27 13.34-20.62 29.25-30.34 45.73 5.34-.43 9.67-.69 13.97-1.16 26.26-2.86 52.5-5.99 78.78-8.59 13.73-1.36 26.79 1.51 38.71 8.77.85.52 1.95.99 2.37 1.78 1.72 3.21 4.49 6.55 4.48 9.83-.01 4.18-4.59 4.82-8.1 4.82-8.95.01-17.94.1-26.86-.59-28.71-2.22-57.39-3.9-86.22-1.92-57.65 3.95-114.26 13.98-170.31 27.67-2.95.72-6.71 1.06-9.26-.16-7.26-3.48-14.1-7.83-21.05-11.93-.79-.47-1.3-1.48-1.81-2.32-.21-.36-.11-.94-.24-2.25z"/><path d="m159.86 332.39c-1.53 4.76-2.61 9.31-4.46 13.53-2.14 4.9-4.65 5.12-8.14 1.08-6.92-8.04-7.31-17.76-7.31-27.74 0-15.44-.17-30.89-.88-46.31-.44-9.59-1.7-19.17-3.2-28.66-.63-3.97-2.57-7.82-4.39-11.5-2.37-4.79-1.49-6.75 4.02-6.79 4.3-.03 8.61.74 12.92.69 7.56-.1 15.25.23 22.65-1.03 16.67-2.84 33.23-6.38 49.76-9.99 4.82-1.05 9.55-2.95 14-5.13 4.73-2.31 9.26-3.17 14.4-1.75 10.6 2.92 20.2 7.78 28.5 14.9 6.75 5.78 6.35 9.2 1.34 14.44-6.27 6.56-7.72 15.51-7.83 24.17-.2 15.93.64 31.88.68 47.82.04 16.28-4.18 31.59-12.22 45.69-3.59 6.3-7.36 5.93-10.76-.61-2.9-5.6-5.91-11.19-8.16-17.06-2.2-5.75-6.2-8.73-11.93-8.99-8.1-.37-16.25-.47-24.34-.01-14.91.83-29.8 2.14-44.65 3.25zm-1.55-10.6c1.32 0 2.16.1 2.97-.01 18.25-2.53 36.48-5.21 54.76-7.55 7.3-.94 14.61-.85 21.25 3.29 5.76 3.59 7.51 2.9 9.4-3.47.43-1.43.81-2.9.99-4.38 2.69-21.54 3.5-43.14 1.03-64.72-.81-7.1-2.23-14.9-11.24-16.23-5.86-.87-12.05-1.13-17.89-.29-20.04 2.89-40 6.34-59.94 9.8-1.26.22-3.03 2.41-3.09 3.75-.32 6.82-.15 13.66-.15 20.49v11.24c12.96-2.54 24.92-5.29 37.03-7.11 8.96-1.35 18.09-1.82 27.16-2.01 3.67-.08 8.33 1 8.59 5.89.24 4.68-4.36 5.82-7.68 6.43-12.7 2.35-25.44 4.75-38.28 5.93-8.12.75-16.45-.65-24.91-1.09z"/><path d="m221.23 61.45c-.67 5.45.12 12.15-6.1 14.59-5.81 2.28-10.03-2.63-13.34-6.5-6.44-7.53-12.67-15.34-18.09-23.62-4.15-6.34-1.64-10.33 5.78-8.83 8.12 1.64 16.17 4.62 23.59 8.34 5.88 2.98 8.64 9 8.16 16.02z"/><path d="m179.38 152.34c0 .17.01.33 0 .5-.54 5.54-1.15 11.83-6.98 13.76-5.32 1.76-8.84-3.41-11.36-7.26-5.49-8.42-10.71-17.11-15.12-26.13-2.95-6.03-.43-8.75 5.94-7.27 10.06 2.34 18.35 7.77 24.33 16.16 2.01 2.82 2.66 6.61 3.93 9.96-.25.09-.49.19-.74.28z"/></g></svg>