<svg enable-background="new 0 0 400 400" viewBox="0 0 400 400" xmlns="http://www.w3.org/2000/svg">
<g fill="currentColor"><path d="m149.07 151.65c0 10.11.21 20.25-.04 30.38-.54 21.62-.83 43.27-2.2 64.85-.65 10.17-3.54 20.21-5.46 30.3-.18.97-.45 2.04-1.04 2.78-1.48 1.86-3.16 3.56-4.75 5.33-1.62-1.75-3.78-3.24-4.77-5.3-4.37-9.03-5.72-18.43-4.07-28.55 2.2-13.42 4.11-26.96 4.91-40.52.86-14.74.85-29.59.12-44.34-.36-7.26-3.25-14.38-4.85-21.6-.48-2.17-1.44-5.14-.46-6.48.95-1.29 4.22-1.54 6.3-1.21 4.23.67 8.39 1.93 12.51 3.16 7.02 2.09 11.7.37 14.32-6.18 4.44-11.08 8.59-22.28 12.65-33.51.8-2.22.62-4.79.98-7.93-10.46 1.34-20.16 2.36-29.78 3.87-12.12 1.89-24.17 4.26-36.27 6.27-9.72 1.62-23.11-4.95-28.3-13.63-1.8-3.02-1.25-5.12 2.3-5.91 1.76-.39 3.63-.53 5.44-.46 29.52 1.08 58.73-2.54 87.94-5.93 27.72-3.22 55.43-6.55 83.08-10.24 12.17-1.62 24.21-4.22 36.3-6.39 14.95-2.69 28.89-1.54 39.88 10.61 1 1.1 2.01 2.24 2.78 3.5 1.56 2.56 1.07 4.47-2.13 5.02-3.26.57-6.53 1.24-9.82 1.45-31.35 2.05-62.71 3.96-94.06 6.01-12.59.82-25.17 1.89-38.47 2.9 1.16 1.57 1.87 2.55 2.61 3.53 3.83 5.09 3.5 8.48-.62 13.3-8.52 9.97-16.86 20.09-25.28 30.15.21.45.42.89.62 1.34 5.57-.76 11.18-1.32 16.72-2.32 16-2.89 31.98-5.88 47.94-9.02 3.22-.63 6.36-1.92 9.37-3.29 8.11-3.7 15.93-4.09 23.69.98 5.01 3.27 10.34 6.07 15.28 9.44 3.81 2.6 4.39 5.73 2.81 10.71-2.64 8.28-4.57 17.1-4.82 25.75-.51 17.62.37 35.28.55 52.92.19 18.17-.43 36.29-6.02 53.77-.95 2.96-3.78 5.32-5.75 7.95-2.17-2.54-5.03-4.76-6.4-7.68-5.04-10.78-3.91-22.42-3.77-33.86.23-19.31.95-38.62.68-57.93-.16-11.42-1.35-22.88-2.93-34.2-1.32-9.42-6.19-13.67-15.7-13.19-13.07.65-26.13 2.09-39.09 3.97-16.41 2.38-32.71 5.54-49.06 8.39-1.13.18-2.22.58-3.87 1.04z"/><path d="m74.67 360.02c7.94-4 15.98-7.8 23.79-12.05 17.29-9.41 33.9-19.88 47.75-34.06 21.52-22.03 34.85-48.67 40.37-78.66 3.08-16.71 3.09-34 4.13-51.05.23-3.71-.93-7.54-1.68-11.27-.97-4.84.02-6.33 4.83-5.96 8.45.65 15.35 5.09 21.99 9.81 1.03.73 1.73 3.63 1.12 4.68-6.23 10.79-6.53 22.89-7.81 34.69-3.71 34.31-12.11 66.67-36.09 93.11-24.96 27.52-55.62 44.82-92.14 51.7-1.92.36-3.92.29-5.88.42-.13-.45-.26-.9-.38-1.36z"/><path d="m209.49 272.88c2.48.17 4.13-.02 5.59.44 24.06 7.52 47.46 16.56 67.65 32.15 11.44 8.84 20.71 19.44 22.75 34.45.62 4.51.36 9.31-.42 13.81-1.02 5.9-4.5 7.16-9.26 3.4-4.82-3.8-9.26-8.11-13.67-12.4-23.39-22.76-46.72-45.59-70.04-68.41-.78-.76-1.34-1.75-2.6-3.44z"/></g></svg>