<svg enable-background="new 0 0 400 400" viewBox="0 0 400 400" xmlns="http://www.w3.org/2000/svg">
<g fill="currentColor"><path d="m133.17 94.47c0 5.05-.03 9.69.01 14.32.25 28.97 0 57.94-3.16 86.78-2.69 24.54-8.03 48.43-18.02 71.16-11.48 26.11-31.25 43.87-56.3 56.37-2.68 1.34-5.4 2.6-8.13 3.82-.56.25-1.27.15-2.65-.63 3.28-3.25 6.34-6.77 9.89-9.69 26.16-21.49 40.79-49.77 49.18-81.97 5.56-21.35 8.04-43.07 9-65.02.55-12.46 1.37-24.91 1.54-37.37.25-17.8-1.22-35.24-12.79-50.17-2.78-3.58-1.48-5.67 3.03-5.36 4.61.32 9.52.49 13.68 2.23 12.08 5.05 24.41 4.71 36.8 2.73 27.7-4.41 55.43-8.75 82.97-14 9.81-1.87 19.21-6.09 28.63-9.67 4.72-1.79 9.47-3.11 13.94-.68 7.27 3.95 14.43 8.22 21.11 13.08 4.84 3.53 4.4 6.69-.31 10.3-8.47 6.49-11.97 15.8-14.27 25.62-7.1 30.37-8.93 61.22-6.18 92.18 1.67 18.8 4.13 37.68 8.26 56.07 5.01 22.32 18.45 39.54 37.83 51.9 1.95 1.24 4.04 2.37 6.2 3.18 6.34 2.38 9.83 1.48 12.74-4.7 4.66-9.89 8.56-20.14 12.76-30.25 1.25-3 2.43-6.03 3.64-9.05l1.26.24c0 7.32.45 14.67-.09 21.95-1.13 15.03-.73 29.91 2.8 44.59 2.56 10.65-.31 14.38-11.27 13.79-16.71-.9-30.47-8.54-42.91-19.08-24.32-20.59-37.55-47.39-43.4-78.2-6.21-32.7-7.01-65.78-5.79-98.89.73-19.75 2.83-39.44 4.42-59.15 1-12.37.34-13.71-11.91-12.73-14.38 1.15-28.67 3.42-42.97 5.36-20.56 2.79-41.11 5.72-61.66 8.57-5.77.81-11.53 1.53-17.88 2.37z"/><path d="m116.59 294.95c2.61-2.64 4.93-5.68 7.89-7.87 27.33-20.23 46.83-47.05 63.9-75.88.89-1.51.74-4.54-.2-6.08-9.9-16.17-20.07-32.17-30.13-48.25-1.47-2.35-2.75-4.8-3.56-7.72 16.42 10.19 30.65 22.73 43.29 39.12 3.5-9.78 7.21-18.7 9.89-27.93 4.22-14.54 7.5-29.28 5.28-44.68-.75-5.18.7-6.6 5.69-5.96 9.3 1.2 16.89 5.99 23.08 12.73 1.25 1.36 1.08 5.08.23 7.17-9.59 23.54-19.49 46.95-29.1 70.48-.56 1.37.21 3.76 1.12 5.18 10.25 15.93 21.02 31.55 30.88 47.71 5.63 9.23 8.42 19.61 5.25 30.58-2.23 7.7-6.63 9.01-11.49 2.8-5.8-7.42-10.6-15.65-15.55-23.71-7.48-12.17-14.72-24.5-22.36-37.25-22.81 30.11-46.59 57.99-82.68 71.11-.47-.51-.95-1.03-1.43-1.55z"/></g></svg>