<svg enable-background="new 0 0 400 400" viewBox="0 0 400 400" xmlns="http://www.w3.org/2000/svg">
<g fill="currentColor"><path d="m113 210.53c-10.76 3.74-21.19 6.67-30.99 11.01-7.08 3.13-13.05 3.06-19.16-1.31-3.53-2.53-7.03-5.1-10.55-7.66.15-.68.31-1.36.46-2.05 3.91-.84 7.8-1.74 11.72-2.52 15.12-3.04 30.26-5.99 45.35-9.15 1.2-.25 3.1-1.97 3.01-2.83-1.09-10.52-2.35-21.02-3.88-31.49-.71-4.89-3.41-6.31-8.47-4.52-7.45 2.63-15.18 4.44-22.79 6.6-.24-.48-.49-.95-.73-1.43 2.26-1.81 4.57-3.57 6.77-5.44 8.6-7.33 17.39-14.46 25.67-22.15 4.43-4.12 8.69-8.74 8.94-15.61.03-.94 3.18-2.88 3.99-2.49 6.38 3.07 12.89 6.08 18.64 10.14 4.16 2.93 3.05 5.47-1.58 7.97-9.31 5.02-18.42 10.41-28.4 16.1 5.71 2.88 10.36 4.92 14.69 7.49 4.77 2.83 7.27 6.52 5.68 12.86-1.68 6.67-1.83 13.72-2.76 21.55 9.99-2.55 18.98-4.77 27.89-7.22.88-.24 2.02-1.93 1.96-2.88-1.2-19.54.96-39.32-3.98-58.58-1.02-3.99-2.88-7.77-4.22-11.69-1.64-4.83.06-6.95 4.84-5.56 6.19 1.8 12.38 3.79 18.26 6.4 5.32 2.37 5.62 5.01 3.91 10.57-1.64 5.35-3.31 10.92-3.51 16.45-.5 13.74-.16 27.51-.16 42.5 9.23-4.35 18.78-8.35 27.8-13.33 4.19-2.31 7.95-4.31 12.54-2.5 5.82 2.29 11.62 4.72 17.17 7.57 2.67 1.37 4.3 4.27 1.86 7.12-9.35 10.91-10.12 24.23-10.77 37.56-.29 5.97-.05 11.96-.05 18.73 7.4.4 14.63.88 21.87 1.1 1.05.03 2.49-.97 3.16-1.91 4.65-6.48 9.42-12.91 13.54-19.72 1.6-2.64 2.17-6.23 2.22-9.41.07-4.03 2.19-5.29 5.33-4.64 7.41 1.53 14.28 4.44 19.75 9.93 4.17 4.19 3.7 7.15-1.84 9.95-6.81 3.44-13.79 6.53-20.62 9.94-5.02 2.51-9.9 5.29-15.84 8.49 6.39 1.68 11.79 2.86 17.02 4.54 9.39 3.01 18.68 6.38 24.27 15.38 1.37 2.2 2.5 4.69 3.11 7.2.95 3.92-.23 7.93-3.93 9.32-2.84 1.07-7.18 1.13-9.66-.35-13.57-8.07-26.72-16.84-40.11-25.2-5.18-3.23-10.63-6.04-16.9-9.56 3.21 20.59 8.71 39.11 22.75 53.74 18.63 19.41 41.7 29.04 68.64 29.52 6.64.12 11.74-2.58 13.84-8.55 2.95-8.39 5.11-17.1 6.99-25.81 1.75-8.09 2.65-16.36 4-24.54.17-1.05.74-2.04 1.12-3.05.47-.01.93-.02 1.4-.04.92 6.26 1.65 12.56 2.79 18.78 2.52 13.67 5.06 27.34 8.03 40.91.72 3.27 3.02 6.24 4.8 9.22 4.21 7.04 2.72 12.26-5.07 14.81-5 1.64-10.33 2.77-15.57 3.02-19.87.97-39.67.45-58.39-7.5-34.64-14.71-56.45-40.44-66.1-76.82-4.25-16.03-5.76-32.35-6.84-48.76-.55-8.46-.66-16.95-1.1-25.42-.34-6.59-2.62-8.02-8.99-6.26-6.55 1.8-13.12 3.54-19.76 4.99-2.81.61-3.81 1.73-3.77 4.64.42 30.31.38 60.62 1.2 90.92.46 17.15 1.63 34.23-2.45 51.12-.5 2.09-1.01 4.23-1.92 6.15-.73 1.54-2.07 2.78-3.14 4.15-1.34-1.15-3.04-2.07-3.96-3.49-7.19-11.21-11.13-22.6-7.86-36.68 2.87-12.33 3.07-25.4 3.46-38.17.69-22.46.64-44.95.89-67.43.02-1.79 0-3.58 0-6.47-9.7 2.51-18.7 4.57-27.45 7.39-1.46.47-2.37 4.2-2.65 6.54-1.3 10.72-1.85 21.54-3.47 32.2-3.3 21.63-8.44 42.78-21.19 61.1-13.22 19-31.5 31.7-52.57 40.65-.85.36-1.88.27-3.32.01 42.45-35.26 66.09-79.3 65.14-136.14z"/><path d="m237.35 104.91c3.76 0 7.56.08 11.35-.06.88-.03 2.05-.57 2.55-1.26 6.51-9 13.06-17.97 19.25-27.19 1.5-2.23 1.56-5.38 2.53-8.01 1.19-3.22 3.58-4.62 6.66-2.65 5.15 3.31 10.39 6.6 15.02 10.57 3.75 3.22 2.7 5.26-1.63 7.87-11.05 6.68-21.87 13.73-32.78 20.63.15.51.3 1.02.44 1.54 3.63 1.2 7.51 1.95 10.84 3.71 5.67 2.99 11.34 6.19 16.32 10.17 2.27 1.82 3.57 5.59 4.12 8.68 1.1 6.12-1.69 8.23-7.42 5.56-7.53-3.51-14.74-7.7-22.15-11.47-8.27-4.21-16.61-8.28-25.73-12.8-.88 11.06-.02 21.21 3.6 30.9 6.15 16.47 18.84 25.48 35.61 28.58 7.24 1.34 14.81 1.11 22.23 1.21 5.12.07 8.46-2.9 9.68-7.81 1.83-7.4 3.39-14.87 5.06-22.31.56-2.51 1.1-5.02 1.64-7.53.45.02.9.03 1.35.05 1.05 6.69 2.03 13.39 3.15 20.06 1.23 7.3 3.53 14.12 8.43 19.95 3.17 3.78 2.69 7.61-1.92 9.96-5.4 2.75-11.24 5.2-17.17 6.23-27.34 4.72-51.51-1.64-70.97-22.25-9.71-10.28-13.95-23.12-14.31-36.87-.42-16.08.38-32.19.65-48.28 0-.17.02-.33.03-.5.74-13.24-1.18-14.78-13.61-11.32-22.06 6.15-44.11 12.3-66.22 18.24-5.87 1.58-20.53-5.12-23.38-10.15-1.46-2.56.2-3.29 2.27-3.48 3.97-.36 7.95-.63 11.93-.86 29.72-1.68 57.36-10.36 83.29-24.76 5.26-2.92 10.91-3.51 16.44-2.05 5.24 1.38 10.39 3.52 15.2 6.06 5.53 2.93 5.78 6.57 1.58 11.25-7.98 8.85-14.66 27.97-13.93 40.39z"/></g></svg>