<svg enable-background="new 0 0 400 400" viewBox="0 0 400 400" xmlns="http://www.w3.org/2000/svg">
<path d="m246.69 286.63c-18.94 13.88-38.04 26.73-53.02 44.49-3.2 3.79-5.57 8.27-8.55 12.27-4.3 5.77-8.03 5.4-10.94-1.11-4.88-10.92-5.2-23.33 5.21-31.72 7.37-5.94 8.05-15.86 9.35-24.68 3.73-25.28 4.1-50.73 1.97-76.17-1.02-12.2-2.86-24.35-7.91-36.54-16.73 23.06-36.47 41.49-62.57 51.82-.42-.48-.85-.96-1.27-1.44 1.27-1.45 2.4-3.08 3.85-4.32 20.31-17.42 35.85-38.84 50.86-60.68 16.14-23.47 30.79-47.79 40.6-74.7 3.75-10.29 7.32-20.69 4.77-32.05-.85-3.78 1.41-5.81 5.21-5.13 9.4 1.7 17.4 6.4 24.42 12.66.89.8.5 3.86-.23 5.46-1.19 2.61-3.14 4.87-4.73 7.22 9.24 2.06 17.89 3.56 26.29 5.98 8.42 2.43 14.87 7.33 16.37 16.88 1.04 6.57-3.48 11.09-9.7 8.58-6.09-2.46-11.94-5.81-17.39-9.52-6.72-4.57-12.91-9.91-20.03-15.46-6.3 13.52-12.49 26.79-18.97 40.69 6.66.64 12.58.9 18.37 1.86 3.87.65 7.67 2.06 11.33 3.57 5.77 2.38 7.88 7.28 8 13.19.13 6.49-3.28 9.3-9.17 6.65-8.15-3.67-15.94-8.16-23.82-12.42-2.91-1.57-5.63-3.49-8.69-5.41-9.75 14.63-19.39 29.1-29.22 43.84 9.41 3.55 18.72 2.66 27.59.05 10.46-3.07 20.63-7.22 30.75-11.33 5.21-2.11 10.24-2.14 14.88.43 7.24 4.03 14.19 8.61 21.14 13.14 3.56 2.32 3.82 5.83.82 8.43-11.57 9.98-13.02 24.13-16.24 37.63-2.76 11.6-5.5 23.22-8.87 34.65-2.12 7.19-5.41 7.46-10.37 1.95-.99-1.1-3.02-1.99-4.46-1.85-10.58 1.03-21.14 2.29-31.68 3.68-1.27.17-3.3 1.49-3.41 2.45-1.46 13.19-2.65 26.41-4.02 40.85 12.48-7.47 24.35-14.58 36.17-21.66-2.12-4.97-4.13-9.29-5.81-13.74-1.22-3.21.77-4.34 3.59-4.09 12.98 1.16 30.5 16.81 32.45 29.72.64 4.22-.37 8.92-1.59 13.12-1.37 4.74-4.38 5.55-7.66 1.89-4.3-4.78-7.73-10.34-11.5-15.58-.65-.91-1.18-1.93-2.17-3.55zm-39.28-38.28c12.29-2.01 23.91-3.83 35.48-5.92 1.16-.21 2.77-1.95 2.93-3.15 2.12-15.79 4.3-31.59 5.79-47.45.42-4.43-.99-9.18-2.31-13.56-1.03-3.41-4.17-4.63-7.71-3.76-10.46 2.58-20.91 5.19-31.33 7.96-1.17.31-2.9 1.69-2.93 2.61-.24 7.56-.13 15.14-.13 23.15 2.4-.45 4.01-.79 5.62-1.04 7.05-1.1 14.08-2.36 21.17-3.09 1.54-.16 4.59 1.56 4.66 2.58.14 1.95-.79 4.86-2.29 5.86-2.66 1.77-6 2.87-9.2 3.45-6.47 1.17-13.04 1.81-19.77 2.69.02 9.61.02 19.04.02 29.67z" fill="currentColor"/></svg>