<svg enable-background="new 0 0 400 400" viewBox="0 0 400 400" xmlns="http://www.w3.org/2000/svg">
<g fill="currentColor"><path d="m113.66 209.61c3.55-3.77 7.1-7.54 10.66-11.3 22.14-23.44 35.86-51.8 47.34-81.43 3.72-9.59 7.18-19.29 10.64-28.98 3.04-8.51 3.6-17.11 1.22-25.97-.67-2.49-.89-6.47.51-7.76 1.44-1.32 5.59-1.07 7.76.05 7.35 3.77 14.67 7.78 21.37 12.58 5.58 4 5.12 7.44.91 12.98-3.2 4.21-6.01 8.79-8.47 13.48-6.4 12.19-12.51 24.53-18.74 36.82.25.57.5 1.15.75 1.72 9.88-1.41 19.88-2.28 29.62-4.36 13.6-2.9 27.3-5.78 39.63-12.8 1.04-.59 2.69-.76 3.84-.41 10.94 3.28 20.24 9.25 27.47 18.08 3 3.67 2.36 6.61-1.86 8.46-16.41 7.2-28.63 19.78-41.47 31.61-3.8 3.51-7.94 6.65-11.92 9.97-.43-.36-.85-.71-1.28-1.07 1.26-2.81 2.43-5.66 3.81-8.41 5-9.96 10.36-19.74 15.02-29.86 3.4-7.38 1.56-9.47-6.42-8.18-7.85 1.27-15.66 2.82-23.5 4.22-12.67 2.26-25.34 3.45-38.03-.92-16.15 30.54-35.83 57.37-67.8 72.48-.34-.34-.7-.67-1.06-1z"/><path d="m281.46 249.9c-2.31 3.49-4.2 7.37-6.99 10.42-17.17 18.8-34.66 37.31-51.81 56.13-7.72 8.47-15.01 17.35-22.3 26.2-2.55 3.1-5.2 3.2-7.57.63-6.64-7.21-11.51-15.48-12.74-25.39-.27-2.18.21-4.81 1.26-6.73 10.78-19.57 13.19-40.96 13.47-62.69.2-15.63-.13-31.29-1.05-46.89-.34-5.76-3.17-11.36-4.62-17.09-.62-2.44-.59-5.05-.86-7.58 2.55-.24 5.58-1.49 7.56-.54 5.93 2.85 11.73 6.16 17.03 10.05 3.99 2.93 3.72 7.82 3.23 12.45-1.73 16.34-3.46 32.68-4.96 49.04-1.31 14.23-2.48 28.47-3.32 42.73-.21 3.58 1.07 7.25 1.66 10.88 2.73-1.56 5.69-2.81 8.15-4.72 19.36-14.95 38.61-30.05 57.93-45.05 1.48-1.15 3.23-1.95 4.85-2.91.36.36.72.71 1.08 1.06z"/></g></svg>