<svg enable-background="new 0 0 400 400" viewBox="0 0 400 400" xmlns="http://www.w3.org/2000/svg">
<path d="m168.22 131.93c-17.48 3.84-35.06 7.29-52.4 11.67-12.27 3.1-22.58-.39-32.39-7.07-1.2-.81-1.72-2.61-2.56-3.96 1.26-.67 2.45-1.73 3.78-1.94 4.42-.71 8.87-1.4 13.33-1.61 28.95-1.34 57.17-7.5 85.87-12.28.43-8.86-2.35-16.39-7.09-23.14-.87-1.24-4.06-1.42-6.07-1.17-6.39.81-12.72 2.07-19.07 3.15-.21-.48-.43-.96-.64-1.43 1.76-1.19 3.5-2.44 5.3-3.57 14.91-9.34 29.92-18.55 44.7-28.09 2.85-1.84 5.12-4.75 7.18-7.53 1.06-1.43 1.6-3.71 1.42-5.51-.51-5.24 1.74-8.29 6.81-7.33 11.28 2.12 21.42 7.08 30.39 14.17 3.68 2.91 2.57 6.44-2.62 8.42-6.98 2.66-14.19 4.71-21.15 7.42-10.67 4.16-21.22 8.64-31.8 13.03-1.33.55-2.57 1.32-3.95 2.04 3.87 1.93 7.53 3.51 10.93 5.52 3.33 1.97 5.36 4.57 4.1 9.07-1 3.58-.91 7.47-1.39 12.12 10.7-2.24 20.59-4.09 30.37-6.41 10.32-2.45 20.53-5.37 30.79-8.08 12.8-3.38 25.03-2.56 36.33 4.96 1.1.73 2.2 1.5 3.17 2.4 4.24 3.95 3.79 6.7-1.84 7.75-7 1.3-14.16 1.71-21.25 2.47-22.79 2.43-45.58 4.84-68.37 7.3-1.24.13-2.45.62-4.33 1.12 16.9 15.81 33.88 30.41 53.59 41.45 29.61 16.59 61.52 27.4 93.9 37.01 3.36 1 6.61 2.41 9.91 3.63-.07.69-.13 1.38-.2 2.07-5.94.81-11.86 2.06-17.83 2.33-14.46.63-28.94 1.05-43.42 1.04-6.09-.01-12.37-.65-18.22-2.27-4.96-1.37-10.36-3.6-13.92-7.12-17.18-16.97-33.83-34.46-50.59-51.85-5.98-6.21-11.74-12.64-18.66-20.1-1.45 29.44 2.76 57.78-7.78 85.85 9.54-2.28 18.51-3.83 27.08-6.61 11.55-3.75 22.3-2.43 32.71 3.13 4.68 2.5 9.29 5.24 13.54 8.4 5.9 4.39 6.35 9.91 4.09 16.86-2.64 8.11-5.5 16.62-5.61 24.98-.24 18.6 1.18 37.22 1.92 55.84.55 13.87-2.13 26.82-10.92 37.99-5.09 6.48-7.87 6.27-11.3-.98-3.05-6.46-6.06-12.94-8.76-19.55-4.39-10.74-12.12-16.67-23.79-16.27-16.11.55-32.2 1.64-48.31 2.48-3.49.18-6.98.48-10.46.45-3.14-.03-4.17 1.35-4.68 4.38-.98 5.85-2.1 11.75-4 17.34-1.76 5.2-4.64 5.43-7.59.84-6.25-9.71-9.72-19.65-7.28-31.95 2.11-10.62 1.81-21.9 1.2-32.81-.81-14.72-2.78-29.4-4.61-44.05-.46-3.71-2.4-7.22-3.47-10.88-1.22-4.16.44-6.45 4.28-5.08 17.13 6.08 33.88 1.01 50.73-1.22 3.44-.46 6.82-1.36 10.64-2.14-2.16-3.68-4.94-6.98-6.07-10.77-1.16-3.87-1.24-8.28-.86-12.37.98-10.56 2.79-21.06 3.66-31.63.58-7.06.11-14.2.11-22.4-36.02 50.5-84.39 83.29-141.04 104.53-.52-.67-1.04-1.34-1.56-2.01 48.8-29.47 93-64.12 126.98-110.3-.31-.59-.64-1.16-.96-1.73zm-21.31 138.98c1.99-.22 3.16-.2 4.24-.5 10.56-2.9 21.11-5.81 31.64-8.81 7.54-2.15 15.05-3.3 22.06 1.32 1.75 1.15 2.82 3.35 4.21 5.06-1.73 1.37-3.28 3.52-5.22 3.98-8.54 2.01-17.17 3.66-25.82 5.17-7.28 1.28-14.44 4.15-22.05 1.93-2.68-.78-5.4-1.41-8.54-2.22.6 12.88 1.17 25.34 1.77 38.33 16.82-2.48 32.92-4.69 48.96-7.26 10.35-1.66 20.56-3 29.69 3.77 3.11 2.31 5.74 5.27 9.76 9.03 1.26-4.35 3.15-7.85 3.14-11.35-.08-20.09-.42-40.18-1.1-60.26-.19-5.75-1.48-11.52-2.81-17.15-1.45-6.14-4.13-8.33-10.49-8.71-4.46-.26-8.99-.02-13.44.47-12.21 1.35-24.38 3-36.58 4.44-10 1.18-20.02 2.21-29.43 3.25.01 13.38.01 26.28.01 39.51z" fill="currentColor"/></svg>