<svg enable-background="new 0 0 400 400" viewBox="0 0 400 400" xmlns="http://www.w3.org/2000/svg">
<g fill="currentColor"><path d="m247.49 313.43c4.44 1.6 8.85 3.29 13.34 4.77 5.49 1.81 10.97 3.77 16.59 5.04 8.59 1.95 14.64-.59 17.71-8.93 3.88-10.52 7.49-21.39 9.16-32.42 2.75-18.19 4.12-36.61 5.48-54.97.42-5.7-.73-11.61-1.8-17.3-1.77-9.38-5.32-12.44-16.23-12.32-13.28.14-26.61.8-39.81 2.2-19.81 2.1-39.58 4.69-59.26 7.74-13.09 2.03-26.08 4.89-38.95 8.07-4.35 1.07-8.45 3.88-12.16 6.58-4.04 2.94-7.81 3-10.49-.75-3.7-5.2-6.6-10.99-9.56-16.67-.53-1.01-.16-3.25.65-4.07 8.4-8.44 10.39-19.62 12.4-30.46 2.57-13.86 4.63-27.95 2.3-42.12-.86-5.2-2.59-10.26-4.06-15.35-1.34-4.67.02-6.64 4.67-5.43 9.33 2.44 17.96 6.54 23.59 14.73 1.55 2.25 2.17 6.14 1.44 8.78-3.8 13.72-8.37 27.22-12.26 40.91-2.22 7.81-3.45 15.9-5.48 23.78-.99 3.83.55 5.78 3.9 5.74 6.77-.09 13.56-.52 20.28-1.28 19.32-2.19 38.61-4.6 57.9-6.94.48-.06.95-.28 1.6-.48-1.26-4.75-2.95-9.41-3.6-14.21-.47-3.46-.29-7.36.84-10.63 8.47-24.49 13.24-49.76 14.92-75.5 1.08-16.58-1.96-17.96-15.13-15.84-15.07 2.43-30.12 5.02-45.16 7.61-12.24 2.11-24.41 4.79-36.72 6.32-8.51 1.06-15.88-2.9-22.14-8.59-1.11-1.01-1.64-2.67-2.43-4.02 1.48-.49 2.93-1.29 4.44-1.42 20.86-1.73 41.79-2.83 62.57-5.21 16.34-1.87 32.35-5.79 47.22-13.36 6.33-3.23 12.76-3.45 19.03.37 5.82 3.55 11.77 6.92 17.41 10.74 4.44 3.01 5.52 7.76 2.02 11.1-8.86 8.48-11.73 19.54-14.18 30.76-5.67 25.92-11.02 51.91-16.5 77.87-.14.64-.21 1.3-.43 2.67 7.27-.72 14.3-1.15 21.25-2.18 9.18-1.36 18.3-3.13 27.42-4.84 1.94-.36 3.97-.92 5.64-1.91 7.1-4.24 14.13-3.32 20.83.49 7.79 4.43 15.53 9.04 22.84 14.21 6.28 4.43 6.68 7.75 2.8 14.44-6.5 11.21-8.7 23.58-10.3 36.16-3.13 24.67-4.41 49.63-11.9 73.63-5.32 17.03-15.72 29.86-30.92 38.9-2.26 1.34-4.75 2.49-7.28 3.12-4.01.99-7.24-.61-7.76-4.86-1.71-13.97-10.18-23.87-19.36-33.46-2.77-2.9-5.22-6.11-7.82-9.18.47-.7.96-1.37 1.45-2.03z"/><path d="m63.74 270.43c2.95-.54 5.6-1.44 8.24-1.44 33.19.03 65.85-4.98 98.38-10.69 22.68-3.98 45.09-9.44 67.73-13.66 12.69-2.36 23.01 3.11 31.48 12.31 2.44 2.65 1.68 5.03-1.64 6.06-3.14.98-6.44 1.84-9.71 1.98-48.02 2.05-95.52 8.56-142.9 16.16-8.32 1.33-16.62 3.31-24.99 3.72-9.16.44-16.97-3.99-23.89-9.81-.62-.52-1.12-1.22-1.57-1.91-.33-.53-.5-1.19-1.13-2.72z"/></g></svg>