<svg enable-background="new 0 0 400 400" viewBox="0 0 400 400" xmlns="http://www.w3.org/2000/svg">
<g fill="currentColor"><path d="m236.61 94.35c2.11 2.68 4.37 4.5 5.18 6.82 1.26 3.62 2.53 7.71 2.06 11.37-1.4 10.83-4.21 21.49-5.43 32.33-1.63 14.53-2.3 29.16-3.36 43.76-.07.98-.01 1.97-.01 3.87 10.76-1.01 21.35-1.49 31.75-3.13 8.79-1.38 17.43-3.9 26.03-6.31 6.29-1.76 12.43-1.58 17.9 1.59 7.59 4.41 15.01 9.23 21.94 14.6 5.92 4.58 6.46 10.3 1.9 16.21-7.86 10.18-9.1 22.16-10.55 34.26-2.79 23.23-5.22 46.53-9.12 69.58-3.17 18.68-15.25 31.76-31.23 41.27-7.26 4.32-11.23 2.81-13.96-5.29-3.82-11.34-11.81-19.47-20.28-27.35-3.52-3.27-6.69-6.92-10.02-10.4.34-.57.67-1.13 1.01-1.7 2.53.22 5.12.2 7.58.72 7.3 1.54 14.54 3.39 21.84 4.95 9.41 2.01 16.18-.94 18.78-10.24 4.14-14.82 7.6-29.9 10.05-45.08 1.79-11.1 1.95-22.53 2-33.81.03-7.07-1.28-14.18-2.38-21.22-.84-5.35-4.25-8.79-9.77-9.03-10.28-.44-20.62-1.13-30.87-.52-16.25.97-32.46 2.77-48.65 4.49-19.65 2.09-39.29 4.32-58.9 6.74-18.12 2.24-36.19 4.9-54.31 7.17-4.37.55-5.67 2.03-5.25 6.72.83 9.26.7 18.62.86 27.94.25 15.14.96 30.31.44 45.43-.43 12.41-2.27 24.77-3.79 37.12-.22 1.78-2.14 3.36-3.27 5.03-1.61-1.3-3.67-2.3-4.75-3.94-8.45-12.8-10.95-26.47-7.79-41.79 4.57-22.12 5.51-44.54.57-66.82-1.1-4.96-3.51-9.63-5.36-14.41-.54-1.39-1.54-2.66-1.8-4.08-.38-2.03-1.12-4.8-.15-6.03.89-1.13 3.96-1.17 5.86-.75 9.57 2.12 19.05 4.62 29.02 3.51 11.71-1.3 23.44-2.45 34.75-3.62 0-31.51 0-62.41 0-94.15-9.88 1.24-18.91 2.14-27.85 3.55-12.61 1.98-24.12-.62-34.83-7.33-.84-.53-1.65-1.14-2.36-1.82-.31-.3-.34-.9-.74-2.11 2.06-.53 4-1.42 5.98-1.49 40.81-1.28 80.93-8.25 121.06-14.97 25.66-4.3 51.13-9.81 76.72-14.51 9.33-1.72 18.68-1.45 26.87 4.22 2.12 1.47 3.44 4.1 5.12 6.2-2.27 1.4-4.39 3.57-6.84 4.06-8.47 1.67-17.03 2.88-25.59 4.01-11.7 1.55-23.42 2.86-36.06 4.38zm-83.18 81.73v26.34c22.02-2.93 43.66-5.81 65.95-8.78.67-32.18 1.33-64.03 2.01-96.69-23.57 3.13-45.83 6.08-68.08 9.03v31.64c8.74-2.42 16.93-4.91 25.25-6.91 5.27-1.26 10.73-2.45 16.08-2.32 2.47.06 4.86 3.33 7.29 5.14-2.11 1.57-3.99 3.83-6.36 4.58-13.67 4.34-27.25 9.68-42.24 5.91v26.74c10.51-2.8 20.59-5.41 30.63-8.19 4.87-1.35 9.76-2.68 14.43.15 1.7 1.03 3.89 3.02 3.88 4.56-.01 1.44-2.43 3.71-4.15 4.15-14.53 3.71-28.86 9.59-44.69 4.65z"/><path d="m130.42 238.61c6.5.84 12.12 2.35 17.68 2.16 23.24-.81 46.29-2.98 68.43-11.09 4.03-1.48 9.41-1.55 13.44-.17 5.84 2.01 11.28 5.56 16.43 9.14 5.14 3.57 5.11 6.91-.06 10.59-7.5 5.34-11.99 12.74-15.86 20.74-1.17 2.42-1.48 4.28.82 6.55 1.7 1.68 3.79 5.67 3.11 6.51-1.64 2.01-4.73 3.61-7.39 3.89-9.73 1.03-19.53 1.37-29.3 2.11-12.91.98-25.82 2-38.71 3.26-1.37.13-2.96 1.69-3.79 3-1.41 2.21-2.09 4.88-3.47 7.12-2.46 4-4.91 3.9-6.57-.59-2.4-6.51-4.37-13.2-6.19-19.91-1.92-7.03-3.04-14.3-5.28-21.22-1.51-4.67-4.4-8.88-6.57-13.34-1.09-2.26-1.95-4.63-2.91-6.95 2.3-.67 4.61-1.34 6.19-1.8zm22.4 11.03c1.1 11.85 2.08 22.35 3.12 33.61 18.05-2.56 35.27-4.97 52.47-7.51.88-.13 2.15-1.23 2.31-2.07 1.54-7.62 3.01-15.26 4.22-22.94.67-4.23-1.43-6.13-5.8-5.75-18.49 1.58-36.99 3.07-56.32 4.66z"/><path d="m161.49 37.85c6.26 1.68 12.34 2.73 17.96 4.94 12.7 4.99 17.42 13.58 15.67 27.03-.93 7.13-5.12 9.56-11.51 6.18-11.52-6.08-20.72-14.93-28.13-25.5-1.7-2.43-2.92-6.53-2.02-9.02.67-1.88 5.08-2.41 8.03-3.63z"/></g></svg>