<svg enable-background="new 0 0 400 400" viewBox="0 0 400 400" xmlns="http://www.w3.org/2000/svg">
<g fill="currentColor"><path d="m136.32 90.81v34.24c13.96-.25 27.19-3.04 40.33-6.6 7.66-2.08 15.33-4.59 23.47-2.64.32.08.74-.02.98.15 2.68 1.99 5.34 4.01 8 6.03-2.46 1.89-4.64 4.65-7.42 5.53-19.97 6.37-40.35 9.66-61.38 6.71-1.14-.16-2.32-.02-3.86-.02v34.25c16.25-3.01 31.97-6.32 47.83-8.67 6.37-.94 13.1-.08 19.58.66 1.73.2 4.29 2.94 4.39 4.64.09 1.48-2.5 4.08-4.33 4.56-10.38 2.75-20.78 6.07-31.38 7.17-11.8 1.22-23.83.28-36.12.28v44.27c6.8-1.35 13.52-2.61 20.21-4.04 16.38-3.5 32.78-6.95 49.12-10.67 6.96-1.59 12.78.57 18.14 4.55 1.46 1.08 3.38 3.45 3.03 4.59-.5 1.63-2.72 3.39-4.53 3.84-5.78 1.46-11.69 2.44-17.58 3.44-19.1 3.23-38.22 6.39-58.29 9.73 2.45 1.92 4.23 3.24 5.94 4.64 6.6 5.41 6.14 8 .04 13.75-14.36 13.55-28.25 27.6-42.33 41.44.31.43.61.87.92 1.3 29.16-5.73 58.33-11.45 87.55-17.19-4.09-8.82-8.16-17.36-11.99-26.01-.8-1.82-.75-4.01-1.1-6.03 2.05.16 4.35-.24 6.1.57 11.92 5.53 24.14 10.73 31.4 22.73 5.38 8.89 5.41 18.36 2.68 27.93-1.56 5.49-5.55 6.63-9.78 2.72-3.88-3.58-6.95-8.01-10.62-11.83-1.16-1.2-3.37-2.64-4.64-2.3-31.25 8.45-62.42 17.24-91.56 31.71-6.79 3.37-13.06 7.88-19.33 12.22-6.41 4.43-10.47 3.53-12.67-3.96-1.34-4.55-2.42-9.55-1.88-14.15.44-3.69 2.6-8.65 5.54-10.32 11.58-6.55 20.44-15.96 29.22-25.49 5.4-5.86 10.3-12.21 15.09-18.59 2.06-2.74 3.8-5.98 4.7-9.26.73-2.63-.01-5.67-.1-8.53-2.36.11-4.81-.15-7.06.39-17.41 4.19-34.78 8.57-52.19 12.78-2.05.5-4.34.8-6.38.44-8.59-1.51-15.88-5.83-22.4-11.43-1.21-1.04-1.64-3-2.43-4.54 1.44-.67 2.85-1.8 4.34-1.94 8.43-.76 16.93-.9 25.32-1.97 16.3-2.08 32.56-4.56 48.79-7.12 1.12-.18 2.78-2.33 2.76-3.54-.34-23.62-.76-47.25-1.47-70.87-.38-12.62-1.07-25.25-2.14-37.84-1.01-11.92-2.59-23.78-8.71-34.51-.96-1.68-1.38-4.32-.73-6.01.35-.91 3.54-1.15 5.37-.97 2.78.27 5.68.76 8.2 1.89 14.38 6.42 29.04 4.47 43.58 1.32 10.99-2.39 21.79-5.7 32.65-8.69 7.84-2.16 15.71-3.51 23.28.48 2.16 1.14 3.63 3.58 5.42 5.42-1.85 1.75-3.44 4.48-5.61 5.07-11.48 3.15-22.99 6.49-34.71 8.37-16.14 2.62-32.53 3.98-49.25 5.92z"/><path d="m187.99 351.83c3.76-2.23 7.39-4.74 11.31-6.65 40.26-19.55 76.56-44.91 109.77-74.76 10.06-9.04 19.35-18.87 24.32-31.86 1.24-3.23 1.81-6.72 2.99-9.98 1.88-5.2 5.82-6.98 9.54-3.23 6.95 7.01 13.1 14.84 19.2 22.62 1.93 2.46 1.66 5.56-1.29 7.93-12.05 9.67-23.84 19.68-36.05 29.13-37.5 29.02-77.84 52.81-123.95 65.58-4.96 1.38-10.14 1.98-15.22 2.94-.21-.57-.41-1.15-.62-1.72z"/><path d="m229.36 148.76c2.22-2.07 4.38-4.2 6.67-6.19 19.77-17.27 39.82-34.23 59.24-51.88 9.36-8.51 17.02-18.69 21.11-31 1.04-3.12 1.48-6.43 2.34-9.62 1.22-4.47 4.54-5.52 8.1-3.51 10.02 5.64 18.05 13.56 23.78 23.53 1.69 2.94 1.23 6.26-2.47 7.97-17.97 8.3-33.14 20.84-48.91 32.45-19.15 14.1-38.24 28.3-60.7 36.95-2.71 1.04-5.57 1.68-8.36 2.5-.26-.4-.53-.8-.8-1.2z"/><path d="m228.77 235.87c3.86-2.97 7.62-6.08 11.59-8.9 23.32-16.58 44.46-35.53 61.91-58.25 4.76-6.2 7.95-13.7 11.3-20.87 2.43-5.2 5.21-6.94 9.98-3.91 8.57 5.44 15.19 12.9 19.96 21.84 1.53 2.86 2.12 6.41-2.34 7.65-13.21 3.66-23.61 12.06-33.97 20.32-16.27 12.98-32.41 26.1-51.62 34.6-7.1 3.14-14.56 5.46-21.89 8.06-1.32.47-2.79.49-4.2.72-.24-.42-.48-.84-.72-1.26z"/></g></svg>