<svg enable-background="new 0 0 400 400" viewBox="0 0 400 400" xmlns="http://www.w3.org/2000/svg">
<g fill="currentColor"><path d="m247.85 326.11c5.25 1.25 10.51 2.49 15.76 3.75 3.23.78 6.45 1.59 9.67 2.39 6.56 1.64 9.74.87 11.92-5.51 3.25-9.5 6.6-19.34 7.4-29.24 1.65-20.53 1.99-41.19 2.15-61.8.06-7.88-1.45-15.86-3.02-23.65-1.78-8.82-7.93-14.28-17.17-14.83-8.9-.53-17.92-.37-26.81.37-18.04 1.51-36.03 3.56-54.03 5.5-19.48 2.1-38.95 4.31-58.42 6.49-10.56 1.18-21.11 2.51-31.69 3.52-3.95.38-5.71 1.35-5.46 6 1.03 19.1 1.32 38.24 2.32 57.34.89 16.98 1.28 33.88-2.4 50.61-.46 2.1-.73 4.31-1.62 6.22-.84 1.81-2.39 3.29-3.63 4.91-1.63-1.28-3.79-2.23-4.81-3.88-6.79-10.97-8.63-22.85-5.71-35.44 4.03-17.36 4.68-34.92 2.66-52.54-1.15-10.01-2.94-19.97-5.07-29.81-.89-4.11-3.63-7.79-5.16-11.81-.65-1.71-.9-3.99-.27-5.59.28-.72 3.18-.59 4.87-.52 1.47.06 3.03.34 4.36.95 15.45 7.17 31.38 3.33 47.09 1.77 21.15-2.1 42.23-4.8 63.32-7.43 25.52-3.19 51.02-6.54 76.5-9.96 3.09-.41 6.04-1.83 9.11-2.53 7.11-1.63 13.91-.94 20.07 3.27 7 4.78 14.04 9.51 20.91 14.47 6.18 4.45 9.31 10.17 3.67 18.33-5.67 8.18-6.72 17.93-7.16 27.61-.83 18.45-1.02 36.93-2.26 55.34-1.47 21.84-6.64 42.68-20.48 60.39-2.63 3.36-5.82 6.44-9.26 8.96-3.76 2.75-7.53 1.92-9.04-2.29-4.91-13.67-14.67-23.56-24.66-33.4-1.82-1.79-3.08-4.15-4.6-6.25.32-.58.64-1.15.95-1.71z"/><path d="m234.02 146.82c2.57 2.17 4.91 4.16 7.38 6.26-3.45 4.79-8.33 4.26-12.53 4.88-23.78 3.56-47.61 6.83-71.39 10.38-1.47.22-2.93 1.86-3.98 3.18-3.37 4.24-5.68 4.14-7.73-.99-3.19-8.01-5.57-16.36-9.1-24.21-3.23-7.18-7.55-13.87-11.37-20.78-.6-1.08-1.15-2.19-2.15-4.11 2.89-.23 4.95-.61 6.99-.53 27.15 1.12 53.02-5.35 78.63-13.24 3.27-1.01 6.38-2.83 9.28-4.73 5.46-3.57 11.3-4.39 17.07-1.82 6.64 2.96 13.14 6.42 19.25 10.35 4.83 3.11 4.46 6.48-.19 9.74-10.13 7.11-14.59 12.75-20.16 25.62zm-78.97 11.83c21.84-3.3 42.84-6.43 63.8-9.76 1.44-.23 3.67-1.93 3.78-3.1.61-6.78.95-13.61.87-20.41-.07-6.65-2.65-8.76-9.5-7.95-5.09.6-10.15 1.65-15.17 2.75-15.86 3.48-31.69 7.07-48.12 10.75 1.47 9.33 2.89 18.43 4.34 27.72z"/><path d="m191.53 276.59c2.06 1.75 3.36 2.76 4.55 3.89 2.93 2.78 3.96 5.51 2.84 10.05-2.05 8.32-2.2 17.09-3.96 25.5-1.31 6.27-3.74 12.33-6.02 18.35-.56 1.47-2.51 2.41-3.82 3.59-1.15-1.31-3.05-2.47-3.33-3.95-1.5-7.78-3.2-15.6-3.68-23.48-.62-10.08-.15-20.23-.15-31.22-16.71.62-32.77 5.08-48.59-5.08 4.4-.84 7.52-1.4 10.63-2.04 28.38-5.86 56.75-11.73 85.13-17.59 7.5-1.55 14.86-2.22 21.17 3.48 4.58 4.14 4.07 7.76-1.89 9.17-9.83 2.32-19.81 4.04-29.77 5.8-7.31 1.29-14.67 2.25-23.11 3.53z"/><path d="m143.33 85.63c-7.85-.04-15.31-1.45-21.91-5.81-1.49-.98-2.33-2.93-3.48-4.44 1.58-.78 3.09-2.05 4.74-2.27 13.83-1.83 27.75-3.08 41.52-5.24 29.16-4.58 58.31-9.28 87.33-14.62 9.7-1.79 18.16-1.12 25.63 5.39 1.72 1.5 2.57 3.98 3.83 6.01-1.95 1.07-3.79 2.76-5.86 3.1-13.76 2.26-27.55 4.37-41.37 6.28-21.88 3.03-43.77 5.9-65.67 8.75-8.23 1.08-16.5 1.91-24.76 2.85z"/><path d="m189.31 249.83c3.49-4.77 6.98-9.54 10.48-14.3 3.05-4.16 6.64-8.03 8.97-12.55 1.87-3.63 2.79-8 3.08-12.12.28-4.02 2.05-5.88 5.51-5.09 7.38 1.68 14.78 3.57 21.87 6.18 4.31 1.58 4.51 5.05.84 8.15-2.89 2.44-6.35 4.2-9.53 6.31-10.94 7.26-21.84 14.59-32.84 21.76-2.12 1.38-4.63 2.17-6.96 3.24-.48-.54-.95-1.06-1.42-1.58z"/><path d="m172.25 240.54c-1.95 3.82-2.97 9.09-6.09 11.11-4.43 2.87-8.47-1.55-11.29-4.93-4.34-5.2-8.4-10.71-11.89-16.5-1.24-2.06-1.64-6.38-.36-7.78 1.56-1.71 5.49-2.36 8.05-1.83 4.31.89 8.57 2.68 12.45 4.81 5.56 3.04 8.04 8.19 9.13 15.12z"/></g></svg>