<svg enable-background="new 0 0 400 400" viewBox="0 0 400 400" xmlns="http://www.w3.org/2000/svg">
<g fill="currentColor"><path d="m243.23 260.5c-18.27 2.36-36.2 4.65-54.13 6.99-8.89 1.16-17.76 2.45-26.65 3.63-3.76.5-7.08.83-8.77 5.46-1.68 4.6-5.47 4.47-7.66-.44-3.78-8.46-7.06-17.18-10.03-25.96-4.57-13.52-8.62-27.22-13.05-40.8-3.64-11.13-8.53-21.63-15.88-30.91-1.52-1.92-1.95-4.71-2.88-7.1 2.55-.81 5.12-2.39 7.65-2.32 23.26.64 46.03-3.46 68.89-6.71.33-.05.65-.28.96-.26 10.15.83 16.25-4.93 21.1-12.83 7.38-12.04 14.95-23.96 22.18-36.08 2.91-4.88 1.41-7.48-4.15-6.99-7.42.66-14.74 2.7-22.15 3.02-6.31.27-12.76-.68-18.99-1.89-2.68-.52-4.43-.68-6.67 1.03-14.92 11.47-30.06 22.63-47.47 30.2-2.98 1.3-6.05 2.39-9.08 3.58-.25-.38-.49-.76-.74-1.14 5.65-5.04 11.38-9.99 16.93-15.14 13.91-12.91 28.22-25.49 39.01-41.31 5.56-8.16 9.78-16.98 10.41-27.13.22-3.58 2.46-5.52 5.75-3.85 8.39 4.24 16.87 8.47 24.68 13.66 4.69 3.12 3.71 7.06-1.4 10.1-9.02 5.35-16.97 11.96-25.07 20.65 18.05-2.5 35.14-2.69 49.68-13.09 4.64-3.32 10.46-3.72 15.28-1.54 8.24 3.74 16.25 8.23 23.69 13.36 4.96 3.41 4.2 5.91-1.11 8.69-.15.08-.27.22-.42.27-22.48 6.75-37.13 23.88-52.66 39.81-3.43 3.52-6.69 7.21-9.53 11.96 10.64-1.31 21.33-2.26 31.89-4.05 8.15-1.38 16.05-4.15 24.19-5.62 4.63-.83 9.72-1.21 14.22-.15 10.69 2.52 19.92 8.3 28.11 15.54 5.27 4.65 5.62 9.43.78 13.63-9.79 8.49-16.11 19.41-22.22 30.48-9.16 16.59-18.03 33.34-27.2 49.92-1.92 3.46-4.39 6.69-7.01 9.67-4.11 4.67-7.2 3.95-9.23-1.88-.45-1.24-.73-2.53-1.25-4.46zm-36.65-8.25c12.27-1.43 23.78-3.04 35.35-3.97 3.98-.32 5.58-2.18 6.57-5.39 4.55-14.89 9.47-29.69 13.46-44.73 2.32-8.75 3.72-17.86 4.45-26.89.58-7.15-2.81-9.5-9.96-8.78-8.92.89-17.85 1.64-26.75 2.71-7.83.94-15.61 2.22-24.42 3.5 6.07 4.7 5.76 9.97 4.52 15.84-1.21 5.75-1.46 11.7-2.19 18.09 3.51-.59 5.93-1.12 8.38-1.39 7.56-.83 15.15-2.19 22.7-1.99 2.84.08 5.58 3.87 8.36 5.97-2.06 1.94-3.8 4.78-6.24 5.67-9.48 3.43-19.16 6.36-28.84 9.22-2.78.82-3.99 1.88-4.05 5.01-.2 8.75-.83 17.51-1.34 27.13zm-71.36-73.17c1.18 5.28 2.25 9.95 3.26 14.63 4.61 21.21 9.27 42.4 13.75 63.64.64 3.03 2.32 3.98 4.9 3.54 10.12-1.69 20.23-3.49 30.32-5.41.81-.15 1.99-1.5 2-2.31.14-9.58.09-19.16.09-28.71-26.56-.53-30.4-1.67-33.44-10.29 10.5-5.02 22.44-4.34 33.94-7.92-.69-9.81-1.59-19.38-1.94-28.98-.2-5.39-2.96-5.7-7.16-5.05-9.16 1.43-18.36 2.63-27.53 3.99-6 .9-12 1.89-18.19 2.87z"/><path d="m45.55 322.75c3.42-.66 6.24-1.54 9.11-1.7 13.77-.79 27.57-1.16 41.33-2.1 20.71-1.42 41.41-3.09 62.1-4.85 18.7-1.59 37.4-3.27 56.07-5.24 18.33-1.93 36.61-4.28 54.92-6.43 15.85-1.86 31.73-4.05 47.67-1.51 13.63 2.17 25.55 8.2 35.43 17.9 1.5 1.48 2.01 3.96 2.98 5.98-1.99.87-4 2.53-5.98 2.49-9.26-.21-18.52-.78-27.77-1.42-17.57-1.21-35.12-2.89-52.7-3.79-36.17-1.85-71.99 2.55-107.78 6.94-25.86 3.17-51.7 6.59-77.55 9.92-13.73 1.77-25.09-3.28-35.1-12.16-.94-.85-1.48-2.15-2.73-4.03z"/></g></svg>