<svg enable-background="new 0 0 400 400" viewBox="0 0 400 400" xmlns="http://www.w3.org/2000/svg">
<path d="m106.95 355.17c34.48-11.84 65.97-28.26 91.51-55.26-13.55-12.62-27.94-23.42-45.05-30.59-23.17 23.68-45.07 49.21-79.4 57.18-.32-.37-.64-.75-.97-1.12 1.83-1.64 3.59-3.37 5.5-4.92 28.13-22.98 52.63-49.13 68.57-82.15 5-10.36 7.94-21.76 11.22-32.86 1.05-3.57.16-7.71.16-12.17-17.64 2.18-34.11 4.12-50.55 6.27-9.87 1.29-19.65 3.48-29.55 4.25-12.02.93-23.05-2.46-32.19-10.71-1.06-.96-2.25-3.12-1.84-4.04.49-1.11 2.61-2.05 4.05-2.09 10.15-.26 20.35.3 30.46-.48 28.16-2.19 56.28-4.88 84.42-7.42 7.11-.64 14.2-1.59 21.32-2.13 2.9-.22 4.13-1.16 4.03-4.22-.19-5.97-.06-11.95-.06-18.6-8.31 1.49-16.06 2.92-23.83 4.27-7.2 1.26-19.39-5.25-22.74-12.82 15.59-1.66 30.92-3.29 46.35-4.93 0-9.1 0-17.05 0-26.17-8.79 1.45-17.32 2.37-25.6 4.34-12.1 2.88-21.87-1.14-30.61-8.96-1.21-1.08-2.47-3.26-2.15-4.54.29-1.14 2.65-2.24 4.24-2.49 3.58-.57 7.25-.66 10.89-.87 12.95-.75 25.9-1.44 38.84-2.23 1.45-.09 2.87-.6 4.46-.94.77-13.12.43-25.93-2.97-38.36-1.28-4.67-4.48-8.8-6.65-13.25-.76-1.56-1.08-3.33-1.6-5 1.68-.42 3.56-1.56 5-1.15 9.69 2.76 19.43 5.49 28.86 9 4.55 1.69 5.48 5.5 3.22 9.4-6.45 11.16-6.03 23.59-7.64 36.87 7.04-.97 13.39-1.56 19.62-2.77 7.15-1.39 14.19-3.38 21.3-5.03 7.62-1.76 14.81-1.29 21.19 3.95 5.57 4.58 5.5 8.63-1.24 10.81-8.16 2.64-16.67 4.37-25.15 5.75-11.46 1.87-23.03 3.03-35.29 4.59-.51 7.36-1.03 14.89-1.63 23.52 6.57-1.25 12.75-2.49 18.96-3.58 5.98-1.05 12-2.72 17.98-2.59 3.81.08 7.84 2.48 11.28 4.63 4.83 3.04 4.53 6.47-.93 8.54-5.84 2.21-12 3.82-18.16 4.89-8.49 1.48-17.13 2.1-25.67 3.37-1.35.2-3.44 1.79-3.55 2.9-.67 6.74-.87 13.52-1.26 21 9.66-.9 18.88-1.62 28.07-2.63 16.34-1.81 32.68-3.72 49-5.73 7.42-.92 14.81-2.05 22.18-3.33 11.35-1.97 20.61 2.13 28.49 9.8 4.22 4.11 3.25 7.48-2.45 8.88-4.16 1.03-8.51 1.59-12.79 1.75-24.28.9-48.57 1.39-72.84 2.46-21.75.96-43.49 2.49-65.22 3.82-2.22.14-4.42.64-7.24 1.06 4.21 3.2 8.05 5.79 11.5 8.83 5.57 4.91 5.29 7.1 1.09 12.94-4.43 6.15-8.12 12.83-11.67 19.78 13.7-2.08 26.93-4.62 39.03-11.06.73-.39 1.51-.85 1.99-1.49 5.75-7.54 12.73-6.58 20.04-2.9 6.38 3.22 12.83 6.34 18.97 9.98 4.77 2.83 5.46 6.71 1.83 10.31-8.44 8.36-12.73 18.97-16.93 29.67-4.11 10.49-8.13 21.01-12.45 32.2 41.26 24.4 85.93 38.99 133.74 44.55.02.56.03 1.12.05 1.68-1.61.81-3.14 2.03-4.85 2.38-13.31 2.72-26.6 5.66-40.01 7.75-12.31 1.92-24.89 3.5-37.12.06-6.89-1.94-14-4.68-19.74-8.81-15.38-11.08-30.08-23.1-45.46-35.06-14.21 12.9-30.34 23.28-48.15 30.99-17.83 7.71-36.29 12.44-56.21 11.03zm98.99-67.28c-.05.03.31-.09.49-.33.69-.94 1.32-1.91 1.96-2.88 8.69-13.07 11.89-27.97 14.37-43.11.72-4.36-1.84-6.8-5.58-6.3-5.99.81-12 2.27-17.69 4.31-6.15 2.2-12.15 4.84-18.78 3.59-3.96-.75-7.75-2.43-11.92-3.79-3.7 7.42-7.46 14.94-10.81 21.66 16.32 9.13 32.06 17.94 47.96 26.85z" fill="currentColor"/></svg>