<svg enable-background="new 0 0 400 400" viewBox="0 0 400 400" xmlns="http://www.w3.org/2000/svg">
<path d="m143.51 271.46c-14.28 3.29-28.25 6.14-41.97 9.87-5.12 1.39-9.87 4.55-14.44 7.45-5.1 3.24-8.86 3.23-12.64-1.55-4.36-5.53-6.44-11.18-4.23-18.89 2.2-7.67 2.7-16.11 2.38-24.15-.41-10.23-1.7-20.55-3.99-30.52-1.27-5.53-5.35-10.42-8.19-15.59-.52-.95-1.16-1.84-2.53-3.99 15.47-.49 29.83 3.51 44.32.1 14.17-3.34 28.72-5.02 43.32-7.47 0-10.97 0-21.55 0-32.19-11.29 1.25-22.31 2.38-33.29 3.82-1.27.17-2.54 1.88-3.42 3.15-3.72 5.35-6.89 5.36-9.69-.65-4.41-9.48-8.16-19.27-12.49-28.79-5.29-11.61-10.82-23.1-16.4-34.57-1.83-3.75-1.27-5.44 2.84-5.48 5.31-.05 10.64.7 15.94.48 7.94-.33 15.96-.63 23.78-1.94 29.79-4.99 59.56-10.09 89.22-15.76 12.83-2.45 25.3-6.71 38.08-9.5 5.38-1.17 11.68-2.28 16.58-.58 9.27 3.21 18.19 7.91 26.59 13.07 6.56 4.03 6.26 7.81.18 12.43-8.5 6.46-13.2 15.64-18.41 24.54-4.2 7.16-8.43 14.36-13.36 21.01-4.62 6.25-8.12 5.91-13.14-.28-11.36 2.36-22.85 4.75-34.73 7.22v33.36c2.24-.34 4.47-.47 6.6-1.03 14.9-3.87 29.81-7.72 44.65-11.81 5.19-1.43 10.14-1.62 15.02.7 5.4 2.57 10.84 5.07 16.03 8.02 4.42 2.51 5.51 6.19 2.73 10.05-7.64 10.62-8.74 23.11-10.74 35.37-2.03 12.44-3.56 24.99-6.2 37.29-1.03 4.8-4.06 9.39-6.98 13.51-2.38 3.35-6.06 2.95-7.46-.83-2.04-5.52-5.37-5.12-10.05-4.38-14.9 2.35-29.87 4.19-45.16 6.28-1 18.18-1.99 36.04-3.05 55.37 9.77 0 19.23.54 28.61-.12 15.56-1.1 31.16-2.32 46.55-4.76 11.89-1.88 23.49-5.62 35.18-8.69 6.15-1.62 9.89-6.02 11.85-11.85 3.28-9.75 6.34-19.59 9.54-29.37.85-2.6 1.88-5.15 2.82-7.72.47.04.95.09 1.42.13.3 2.47.71 4.94.89 7.42.71 9.76.75 19.62 2.22 29.26.99 6.46 4.04 12.6 6.05 18.91 1.9 5.97 1.63 7.64-4.32 9.51-13.59 4.26-27.29 8.35-41.18 11.43-24.4 5.42-49.15 8.86-74.23 7.2-11.89-.79-23.86-2.13-35.5-4.61-24.16-5.14-37.8-20.92-42.11-44.93-1.45-7.97-2.27-16.04-3.49-24.95zm42.87-184.41c-10.44 2.02-20.37 3.93-30.66 5.92 2.66 3.82 5.34 6.71 6.85 10.13 1.42 3.19 2.49 7.01 2.19 10.42-1.29 14.86-3.53 29.65-4.64 44.52-.94 12.6-.95 25.27-1.12 37.92-.36 26.76-.99 53.54-.59 80.29.12 8.45 2.43 17.09 5.02 25.24 3.3 10.4 14.72 18.35 25.16 18.32 0-10.79-.11-21.59.02-32.39.27-22.8.93-45.6.94-68.4 0-36.29-.27-72.59-.74-108.88-.1-7.56-1.55-15.1-2.43-23.09zm16.52 46.18c11.79-2.5 21.98-4.61 32.15-6.89 1.47-.33 3.59-1.14 4.02-2.27 4.69-12.2 10.21-24.25 9.81-37.75-.19-6.25-4.35-9.5-10.72-8.77-4.12.47-8.25.88-12.33 1.6-8.71 1.52-17.38 3.23-26.6 4.95 1.17 1.72 1.76 2.72 2.48 3.61 3.5 4.36 4.47 8.82 3.5 14.7-1.6 9.73-1.57 19.73-2.31 30.82zm-105.53-31.55c4.02 16.47 7.89 32.32 11.83 48.48 12.37-2.49 24.35-4.91 36.6-7.38-.38-15.21-.92-29.93-5.21-44.21-.32-1.07-2.38-2.46-3.47-2.32-13.15 1.65-26.28 3.55-39.75 5.43zm162.02 107.97c-.47-7.41-1.15-14.49-1.3-21.58-.17-8-5.84-11.54-12.67-10.49-14.02 2.16-27.9 5.21-41.62 7.85v31.42c18.46-2.4 36.51-4.74 55.59-7.2zm-113.88-13.18c-20.14 2.95-39.91 5.85-59.71 8.75v27.56c20.07-2.5 39.74-4.95 59.71-7.43 0-9.41 0-18.94 0-28.88zm-1.75 37.87c-19.21 2.45-38.38 4.89-57.98 7.38v29.63c19.59-2.92 38.71-5.77 57.98-8.64 0-10.2 0-19.79 0-28.37zm59.45 23.85c17.26-2.57 35.05-5.21 53.25-7.92.47-9.04.94-18.04 1.41-26.93-.95-.17-1.12-.24-1.28-.22-16.98 1.67-33.97 3.31-50.93 5.16-.91.1-2.33 1.92-2.35 2.96-.18 9.09-.1 18.19-.1 26.95z" fill="currentColor"/></svg>