<svg enable-background="new 0 0 400 400" viewBox="0 0 400 400" xmlns="http://www.w3.org/2000/svg">
<g fill="currentColor"><path d="m199.44 159.47c34.55 23.71 70.12 41.48 110.11 49.41 14.49 2.87 28.93 5.97 43.35 9.14 2.93.65 5.68 2.1 8.52 3.18.01.51.01 1.02.02 1.54-1.84.81-3.61 2.02-5.53 2.35-15.69 2.76-31.33 6.03-47.13 7.75-10.27 1.12-20.91.75-31.19-.49-14.51-1.75-25.18-11.4-36.11-20.17-16.88-13.54-33.84-27-50.77-40.49-.64-.51-1.39-.87-2.06-1.29-41.83 42.04-127.5 72.86-147.11 64.95 5-2.16 9.07-4.09 13.27-5.7 39.19-14.98 76.24-33.84 109.22-60.08 3.49-2.78 6.67-5.95 10.83-9.7-8.86-5.63-16.89-11.58-25.67-16.08-8.7-4.46-18.14-7.44-27.32-11.1 3.04-5.52 7.57-7.75 14.32-5.21 10.98 4.12 21.64 9.16 32.21 14.29 5.49 2.66 10.48 6.35 16.04 9.78 10.68-10.97 21.07-22 27.2-36.11 1.55-3.57 1.31-8.01 1.49-12.06.1-2.36-1.32-3.38-3.98-2.94-31.42 5.18-62.88 10.08-94.27 15.45-13.75 2.35-27.1 3.52-39.38-4.85-2.4-1.64-4.6-3.57-6.9-5.36.06-.55.12-1.1.19-1.64 2.87-.68 5.74-1.9 8.62-1.94 28.68-.37 56.92-4.89 85.2-9.01 29.9-4.35 59.79-8.81 89.68-13.25 7.72-1.15 15.4-2.76 23.16-3.48 12.13-1.12 23.69.59 32.69 9.9 1.46 1.51 3.1 4.42 2.54 5.88-.58 1.52-3.66 2.75-5.74 2.92-7.62.61-15.27.66-22.91 1.04-19.03.95-38.06 1.97-57.02 2.97 4.24 4.5 8.48 8.65 12.3 13.14 4.98 5.86 4.21 5.95-1.28 11.09-12.39 11.55-24.15 23.77-36.59 36.17z"/><path d="m135.11 219.71c11.6.73 20.81 3.78 28.66 10.35 1.08.9 1.6 3.44 1.25 4.95-3.7 15.65-7.62 31.24-11.52 46.84-5.48 21.93-17.6 38.62-37.78 49.53-14.43 7.8-29.33 14.03-45.38 17.41-1.41.3-2.9.22-4.85-.78 3.45-2.06 6.81-4.31 10.38-6.16 15.3-7.93 29.79-16.91 41.03-30.32 13.77-16.42 20.99-35.71 23.85-56.61 1.02-7.45.65-15.22-.15-22.74-.41-3.82-3.16-7.4-5.49-12.47z"/><path d="m207.75 219.87c2.04-.32 3.98-1.25 5.41-.75 7.32 2.6 14.62 5.33 21.7 8.52 3.95 1.78 4.75 4.79 3.24 9.47-1.9 5.9-2.94 12.35-2.87 18.55.23 20.29 2.02 40.6 1.47 60.85-.37 13.8-3.41 27.57-5.82 41.25-.48 2.74-3.53 5.03-5.39 7.53-1.83-2.58-4.49-4.92-5.31-7.78-1.35-4.72-2.1-9.78-2.09-14.7.06-24.14.71-48.27.65-72.41-.04-16.15-.71-32.33-9.78-46.67-.59-.91-.69-2.13-1.21-3.86z"/><path d="m174.67 39.82c7.66 1.96 15.6 3.16 22.88 6.04 11.54 4.55 15.89 17.41 10.62 28.66-1.95 4.16-5.02 5.4-9.37 2.98-4.03-2.24-7.97-4.86-11.39-7.94-6.29-5.66-12.41-11.55-18.1-17.81-1.97-2.17-2.44-5.72-3.6-8.63 2.8-1.04 5.61-2.07 8.96-3.3z"/></g></svg>