<svg enable-background="new 0 0 400 400" viewBox="0 0 400 400" xmlns="http://www.w3.org/2000/svg">
<g fill="currentColor"><path d="m42.43 332.76c27.54-21.45 52.19-45.4 69.69-75.94 17.32-30.22 28.51-62.81 39.14-96.87-8.04 1.64-15.36 3.3-22.73 4.59-7.76 1.35-15.43 5.58-23.41 2.47-5.46-2.13-10.72-5.17-15.46-8.63-3.6-2.63-2.66-5.64 1.81-6.42 5.87-1.01 11.92-1.02 17.79-2.02 14.37-2.45 28.71-5.16 43.02-7.97 1.36-.27 3.35-1.87 3.5-3.05 2.17-17.8 4.44-35.6 5.91-53.46.77-9.29-.8-18.53-4.44-27.32-.73-1.76-1.03-5.16-.13-5.8 1.51-1.06 4.51-1.28 6.27-.49 8.46 3.78 16.98 7.56 24.96 12.23 6.22 3.64 5.62 6.59 3.08 13.15-4.35 11.26-7.77 22.89-11.17 34.49-2.36 8.06-4.04 16.33-6.23 25.36 9.81-1.98 19.05-3.53 28.14-5.75 13.03-3.18 25.99-6.7 38.91-10.33 10.85-3.05 19.58 1.02 27.42 7.83 3.31 2.88 2.72 6.51-1.73 8.14-6.96 2.55-14.2 4.57-21.48 6-15.43 3.05-30.97 5.58-47.05 8.43 2.12 1.63 3.91 3 5.7 4.38 8.44 6.48 10.27 10.74 6.42 20.63-10.48 26.91-7.91 54.99-8.2 82.83 0 .09.25.18 1.02.67 6.01-7.3 12.47-14.4 18.07-22.12 10.34-14.24 20.42-28.7 30.12-43.38 3.96-5.99 5.71-12.97 5.57-20.41-.12-6.28 3.12-8.38 9.09-6.33 8.82 3.02 16.64 7.6 22.16 15.39 3.51 4.95 2.68 5.52-1.67 9.5-8.56 7.84-16.98 15.97-24.49 24.8-18.54 21.82-36.39 44.25-58.07 63.19-1.07.94-1.82 2.77-1.9 4.24-1 18.56 11.13 33.07 29.53 35.03 27.29 2.9 54.02-1.16 80.5-7.29 19.71-4.56 28.68-18.08 30.9-37.39 1-8.67 3.03-17.23 4.59-25.83.51-.02 1.01-.05 1.52-.07.63 3.35 1.61 6.69 1.83 10.07 1.02 16.23 4.02 31.9 11.23 46.67 3.2 6.55.66 13.24-6.02 18.27-8.43 6.35-18.32 9.38-28.37 11.61-28.02 6.21-56.39 9.65-85.12 8.08-19.91-1.09-37.45-7.53-46.9-26.74-3.8-7.72-5.57-16.43-8.3-24.81-14.38 10.5-29.28 22.57-49.21 23.62-.37-.51-.74-1.01-1.11-1.52 1.82-1.68 3.53-3.51 5.49-5.02 12.11-9.35 24.12-18.84 36.47-27.86 7.44-5.43 10.31-11.77 10.13-21.34-.52-27.12.47-54.27.51-81.41.01-8.43-1.12-16.86-1.81-26.3-6.15 1.56-11.71 2.81-17.14 4.49-.91.28-1.5 2.34-1.82 3.67-7.48 31.14-17.35 61.41-32.88 89.56-15.34 27.82-33.3 53.49-61.6 69.84-8.46 4.89-17.5 8.77-26.32 13.01-1.41.68-3.07.84-4.61 1.24-.37-.52-.75-1.06-1.12-1.61z"/><path d="m246.74 62.96c8.83 2 17.85 3.4 26.44 6.14 9.82 3.14 14.78 11.94 13.85 22.2-.56 6.16-3.87 8.63-9.69 6.88-14.48-4.36-27.99-10.46-38.27-22.1-1.32-1.49-2.7-2.95-3.81-4.59-2.37-3.49-1.63-5.6 2.37-6.48 2.9-.64 5.89-.85 8.84-1.26.09-.26.18-.53.27-.79z"/></g></svg>