<svg enable-background="new 0 0 400 400" viewBox="0 0 400 400" xmlns="http://www.w3.org/2000/svg"><path d="m6.8 9.5c.6.3 1.3.7 2.1 1.1-.4.4-.7.8-.9 1.2-.7-.4-1.3-.8-1.8-1.1s-1.1-.6-1.6-.8c.2-.4.5-.8.7-1.2.4.2.8.5 1.5.8zm.9 6.9c-.3.6-.5 1.1-.7 1.7s-.4 1.1-.6 1.7c-.6-.4-1.1-.7-1.6-1 .7-1 1.2-1.8 1.5-2.4.3-.5.6-1.1.8-1.7.3-.6.5-1.2.8-1.8.3.3.8.6 1.3.8-.7 1.3-1.2 2.2-1.5 2.7zm.1-11c.4.3 1 .7 1.7 1.1-.5.2-.8.6-1.1 1.1-.5-.6-1-1-1.4-1.2s-.9-.6-1.5-.8c.2-.4.5-.7.9-1.1.5.3.9.6 1.4.9zm10.5 13.1c1 .4 2 .6 3.1.7-.4.4-.7.8-.8 1.3-.9-.2-1.9-.6-3-.9-1-.4-2-.9-2.8-1.6-.5.4-1.1.9-1.9 1.3s-1.9.9-3.3 1.2c-.1-.3-.5-.8-1.1-1.3 1 0 2.1-.3 3.2-.8 1.2-.5 1.9-1 2.3-1.7h-3.2c-.4 0-1 0-2 .1v-1.2c1 0 1.7.1 2 .1h3.3v-1h-2.3c-.2 0-.9 0-2 .1v-1.2c1.2 0 1.9.1 2 .1h2.3v-.8h-4.1c0-.7.1-1.2.1-1.6 0-.5 0-1.1-.1-1.8h4.1v-.7h-2.5c0-.6.1-1.1.1-1.6v-.6h-.5c-.4 0-1 0-1.8.1v-1.3c1.2 0 1.9.1 2.1.1h.2c0-.3 0-.8-.1-1.4h1.4c0 .6-.1 1-.1 1.4h3.4c0-.4 0-.8-.1-1.3h1.5c0 .4-.1.9-.1 1.3.7 0 1.5 0 2.5-.1v1.2c-1 0-1.8-.1-2.5-.1v.6c0 .3 0 .8.1 1.5h-2.5v.8h4.1c0 .7-.1 1.3-.1 1.8s0 1 .1 1.5h-4.1v.8h1.4c.8 0 1.8 0 2.9-.1v1.2c-1 0-1.9-.1-2.8-.1h-1.5v1h3.2c.3 0 1 0 2.1-.1v1.2c-1.1 0-1.8-.1-2.1-.1h-3.4l-.1.1c1.4 1 2.4 1.5 3.4 1.9zm-4.1-6.7v-1.3h-2.7v1.3zm2.2-4.1v-1.1h-3.4v1.1zm1.9 4.1v-1.3h-2.8v1.3z" fill="#fafbfa"/><path d="m37 6.7v2.3 5.4c1 0 1.8 0 2.2-.1v1.3c-.6 0-1.5-.1-2.5-.1h-11.9c-.7 0-1.3 0-1.8.1v-1.3c.5 0 1.1.1 2 .1v-5.2c0-1 0-1.8-.1-2.5h3.7c0-1.3 0-2.1-.1-2.5h1.5c0 .4-.1 1.3-.1 2.5h2.2c0-1.2 0-2.1-.1-2.6h1.5c0 .4-.1 1.3-.1 2.6zm-12.3 13.7c-.3-.4-.7-.8-1.1-1.1 1.1-.4 2.1-.9 2.9-1.3.8-.5 1.5-1 2.1-1.6.4.4.9.8 1.3 1.1-2.5 1.4-4.2 2.4-5.2 2.9zm3.9-10.1v-2.4h-2.2v2.4zm0 4.1v-2.9h-2.2v2.9zm3.5-4.1v-2.4h-2.2v2.4zm0 4.1v-2.9h-2.2v2.9zm.4 2.9 1-1.1c.6.3 1.4.7 2.5 1.3s2 1.1 2.7 1.5c-.4.4-.8.8-1.1 1.3-.8-.8-2.5-1.7-5.1-3zm3.1-7v-2.4h-2.1v2.4zm0 4.1v-2.9h-2.1v2.9z" fill="#fafbfa"/><g fill="#010103"><path d="m222.54 186.42c14.62 1.94 24.17 10.9 27.25 25.45 1.6 7.53 2.71 15.19 4.74 22.6 2.03 7.43 5.88 14.05 12.18 18.82 1.59 1.21 3.71 2.15 5.67 2.36 15.35 1.59 30.71 3.09 46.09 4.36 14.48 1.2 28.99 2.07 43.48 3.12 5.01.36 8.96 5.3 7.74 10.02-.31 1.18-2.03 2.5-3.33 2.82-6.36 1.55-12.82 3.97-19.22 3.87-14.28-.21-28.56-1.57-42.81-2.78-7.55-.64-15.04-1.99-22.58-2.87-1.63-.19-3.37.08-4.99.45-5.24 1.21-6.64 4.35-4.17 9.03.88 1.68 1.95 3.3 2.59 5.07 4.02 11.18 11.87 18.53 22.15 24.24 10.73 5.96 20.8 13.12 31.24 19.62 1.94 1.21 4.2 2.06 6.43 2.59 8.16 1.91 16.39 3.53 24.55 5.45 2.69.63 5.41 1.57 7.8 2.91 1.76.98 3.63 2.6 4.38 4.39 1.74 4.15 1.81 6.74-3.42 7.97-9.27 2.19-18.23.6-27.08-2.12-13.44-4.13-26.16-9.68-37.47-18.28-8.37-6.35-17.47-11.79-25.5-18.52-15.66-13.1-26.07-30.02-32.39-49.27-3.85-11.74-6.97-23.79-9.5-35.89-1.9-9.11-5.2-17.3-10.99-24.47-5.15-6.36-5.74-13.26-2.84-20.94z"/><path d="m39.59 287.6c11.35-5.68 22.38-11.33 33.53-16.75 17.88-8.69 35.85-17.2 53.74-25.89 1.13-.55 2.21-1.87 2.64-3.07 3.05-8.6 2.88-17.37.75-26.11-1.85-7.61-2.81-15.21 2.06-21.93 2.77-3.82 6.53-6.95 10.01-10.22.57-.54 2.08-.49 3-.2 6.07 1.91 10.41 8.26 10.14 16.55-.26 8.11-1.04 16.3-2.64 24.25-2.33 11.59-5.48 23.03-8.55 34.45-.76 2.83-2.47 5.43-3.93 8.02-1.09 1.94-1.8 3.67-.73 5.95 1.22 2.6.74 5.24-1 7.58-5.62 7.53-11.06 15.21-16.94 22.53-2.56 3.18-5.77 6-9.13 8.35-17.3 12.13-34.81 23.97-52.11 36.1-10.74 7.53-22.51 9.92-35.71 7.69-.66-2.31-1.44-5.05-2.25-7.89 5.82-2.48 11.58-4.6 17.05-7.32 20.7-10.31 40.46-22.09 57.19-38.31 8.95-8.68 15.81-18.77 19.32-31.14-5-2.19-9.65-1.11-14.22 1.03-3.94 1.84-7.7 4.5-11.84 5.42-6.25 1.38-11.05 4.55-15.81 8.57-8.79 7.43-19.58 8.75-30.61 8.65-.73-.01-1.49-.97-2.15-1.59-.3-.28-.39-.79-.54-1.21-.4-1.05-.77-2.1-1.27-3.51z"/><path d="m24.94 211.79c.73-2.86 1.31-5.8 2.29-8.59.25-.71 1.73-1.27 2.71-1.4 26.74-3.38 46.51-18.6 63.64-37.91 11.44-12.9 15.48-28.61 15.7-45.61.17-13.65.67-27.3 1.39-40.93.32-6.07 1.56-12.08 2.46-18.69 12.83 5.81 20.79 14.32 23.09 27.64 1.62 9.43-.67 18.46-2.33 27.58-2.89 15.95-5.7 31.91-8.61 47.86-.23 1.25-.72 2.72-1.6 3.53-19.73 18.32-41.26 34-66.43 44.08-10.94 4.39-23.02 5.03-32.31 2.44z"/><path d="m369.5 178.32c-18.99 7.83-37.96 8.96-57.08.97-5.99-2.5-11.24-5.59-15.34-10.82-3.99-5.1-8.69-9.64-12.87-14.59-1.3-1.54-2.4-3.52-2.84-5.47-2.23-9.79-4.66-19.43-8.37-28.87-10-25.44-6.41-50.42 3.93-74.9 6.62.88 10.73 5.65 10.1 11.89-.84 8.35-.23 16.39 2.93 24.34 4.15 10.44 4.92 21.38 4.45 32.62-.31 7.39.27 15.05 1.99 22.23 2.94 12.28 11.7 20.54 21.98 27.22 6.8 4.42 14.71 5.75 22.37 7.77 9.58 2.53 19.17 5.07 28.75 7.61z"/></g></svg>