<svg enable-background="new 0 0 400 400" viewBox="0 0 400 400" xmlns="http://www.w3.org/2000/svg"><path d="m6.8 9.5c.6.3 1.3.7 2.1 1.1-.4.4-.7.8-.9 1.2-.7-.4-1.3-.8-1.8-1.1s-1.1-.6-1.6-.8c.2-.4.5-.8.7-1.2.4.2.8.5 1.5.8zm.9 6.9c-.3.6-.5 1.1-.7 1.7s-.4 1.1-.6 1.7c-.6-.4-1.1-.7-1.6-1 .7-1 1.2-1.8 1.5-2.4.3-.5.6-1.1.8-1.7.3-.6.5-1.2.8-1.8.3.3.8.6 1.3.8-.7 1.3-1.2 2.2-1.5 2.7zm.1-11c.4.3 1 .7 1.7 1.1-.5.2-.8.6-1.1 1.1-.5-.6-1-1-1.4-1.2s-.9-.6-1.5-.8c.2-.4.5-.7.9-1.1.5.3.9.6 1.4.9zm10.5 13.1c1 .4 2 .6 3.1.7-.4.4-.7.8-.8 1.3-.9-.2-1.9-.6-3-.9-1-.4-2-.9-2.8-1.6-.5.4-1.1.9-1.9 1.3s-1.9.9-3.3 1.2c-.1-.3-.5-.8-1.1-1.3 1 0 2.1-.3 3.2-.8 1.2-.5 1.9-1 2.3-1.7h-3.2c-.4 0-1 0-2 .1v-1.2c1 0 1.7.1 2 .1h3.3v-1h-2.3c-.2 0-.9 0-2 .1v-1.2c1.2 0 1.9.1 2 .1h2.3v-.8h-4.1c0-.7.1-1.2.1-1.6 0-.5 0-1.1-.1-1.8h4.1v-.7h-2.5c0-.6.1-1.1.1-1.6v-.6h-.5c-.4 0-1 0-1.8.1v-1.3c1.2 0 1.9.1 2.1.1h.2c0-.3 0-.8-.1-1.4h1.4c0 .6-.1 1-.1 1.4h3.4c0-.4 0-.8-.1-1.3h1.5c0 .4-.1.9-.1 1.3.7 0 1.5 0 2.5-.1v1.2c-1 0-1.8-.1-2.5-.1v.6c0 .3 0 .8.1 1.5h-2.5v.8h4.1c0 .7-.1 1.3-.1 1.8s0 1 .1 1.5h-4.1v.8h1.4c.8 0 1.8 0 2.9-.1v1.2c-1 0-1.9-.1-2.8-.1h-1.5v1h3.2c.3 0 1 0 2.1-.1v1.2c-1.1 0-1.8-.1-2.1-.1h-3.4l-.1.1c1.4 1 2.4 1.5 3.4 1.9zm-4.1-6.7v-1.3h-2.7v1.3zm2.2-4.1v-1.1h-3.4v1.1zm1.9 4.1v-1.3h-2.8v1.3z" fill="#fafbfa"/><path d="m37 6.7v2.3 5.4c1 0 1.8 0 2.2-.1v1.3c-.6 0-1.5-.1-2.5-.1h-11.9c-.7 0-1.3 0-1.8.1v-1.3c.5 0 1.1.1 2 .1v-5.2c0-1 0-1.8-.1-2.5h3.7c0-1.3 0-2.1-.1-2.5h1.5c0 .4-.1 1.3-.1 2.5h2.2c0-1.2 0-2.1-.1-2.6h1.5c0 .4-.1 1.3-.1 2.6zm-12.3 13.7c-.3-.4-.7-.8-1.1-1.1 1.1-.4 2.1-.9 2.9-1.3.8-.5 1.5-1 2.1-1.6.4.4.9.8 1.3 1.1-2.5 1.4-4.2 2.4-5.2 2.9zm3.9-10.1v-2.4h-2.2v2.4zm0 4.1v-2.9h-2.2v2.9zm3.5-4.1v-2.4h-2.2v2.4zm0 4.1v-2.9h-2.2v2.9zm.4 2.9 1-1.1c.6.3 1.4.7 2.5 1.3s2 1.1 2.7 1.5c-.4.4-.8.8-1.1 1.3-.8-.8-2.5-1.7-5.1-3zm3.1-7v-2.4h-2.1v2.4zm0 4.1v-2.9h-2.1v2.9z" fill="#fafbfa"/><g fill="#010103"><path d="m80.14 203.02c7.25-2.03 14.16-4.25 21.2-5.9 32.49-7.61 54.58-27.79 69.31-56.95 1.95-3.86 3.77-7.79 5.65-11.67 6.69 2.58 9.68 7.88 7.89 14.72-1.63 6.26-3.7 12.41-5.77 18.55-.47 1.41-1.71 2.56-2.58 3.84-3.05 4.51-6.2 8.95-9.03 13.59-.55.9-.24 2.82.38 3.85 7.43 12.37 11.62 25.9 13.65 40.02.62 4.31-1.3 8.95-1.83 13.46-.88 7.43-4.94 12.21-10.76 16.96-19.07 15.58-33.09 34.71-37.86 59.59-1.72 8.95-.65 17.81-.03 26.73.56 8.14.97 16.3.99 24.45 0 2.64-1.03 5.56-2.42 7.83-.85 1.4-3.24 2.23-5.05 2.47-.7.09-2.2-2.04-2.5-3.34-.75-3.32-1.29-6.74-1.43-10.14-.21-5 .45-10.07-.06-15.03-1.33-12.98.21-25.67 2.99-38.29.7-3.17 1.62-6.31 1.99-9.51 1.4-11.94 7.99-21.64 13.39-31.88 3.27-6.21 7.18-11.76 12.63-16.26 3.44-2.85 6.51-6.14 9.78-9.2 6.62-6.2 8.73-13.68 5.81-22.26-2.52-7.4-5.15-14.79-8.4-21.89-1.31-2.87-4.28-5.04-6.72-7.29-.62-.57-2.19-.56-3.14-.25-2 .65-4.03 1.46-5.79 2.58-14.59 9.31-30.53 15.81-46.39 22.49-4.32 1.82-8.3-.54-12.4-1.2-.49-.08-.97-1.14-1.18-1.83-.81-2.53-1.47-5.12-2.32-8.24z"/><path d="m229.72 141.05c6.8 8.51 13.9 15.82 19.12 24.29 8.42 13.68 20.48 22.58 34.34 29.56 5.08 2.56 10.51 4.39 15.7 6.75 4.46 2.03 8.39 4.68 9.12 10.4-6.66 1.25-12.81.17-18.58-2.86-5.14-2.7-10.01-5.95-15.25-8.44-8.75-4.16-10.49-4.93-16.45 4.42-7.9 12.4-11.2 26.64-9.65 41.07.75 7 4.95 14.17 9.17 20.14 6.26 8.85 12.22 17.69 12.17 28.79-.03 7.66-1.46 15.34-2.66 22.95-.97 6.17-2.41 12.29-3.9 18.36-.57 2.33-1.87 4.47-2.85 6.7-2.79 6.32-5.7 12.59-8.36 18.97-2.59 6.2-6.54 10.58-14.09 11.49.73-6.48 1.05-12.83 2.33-18.97.52-2.48 3.24-4.45 4.79-6.77 5.97-8.96 8.11-19.28 10.28-29.57.65-3.06 1.09-6.17 1.82-9.21 1.46-6.07 1.04-11.96-1.3-17.75-4.26-10.55-8.21-21.12-14.84-30.66-6.79-9.77-7.95-21.41-7.51-33.13.4-10.46 3.55-20 9.84-28.37 5.58-7.42 5.48-14.84.47-22.37-3.15-4.75-6.4-9.43-9.65-14.11-4.38-6.28-6.07-13.04-4.06-21.68z"/><path d="m87.23 155.85c1.07-.65 1.98-1.25 2.93-1.78 7.44-4.11 14.79-8.38 22.35-12.26 7.04-3.62 13.21-7.76 17.38-14.97 2.61-4.53 7.2-7.9 10.77-11.9 12.13-13.61 18.35-29.62 17.99-47.8-.12-6.39-2.16-12.75-3.31-19.12-.18-.98-.35-1.96-.6-3.38 4.69-.01 8.8.99 11.21 4.89 3.04 4.92 6.63 9.93 7.93 15.39 1.36 5.68 1.17 12.11.06 17.91-2.28 11.97-7.14 22.96-15.23 32.39-5.38 6.28-10.28 12.98-15.52 19.39-4.61 5.64-10.36 9.83-17.13 12.56-.72.29-1.5.68-2.23.65-6.79-.36-11.69 3.39-16.81 7.13-3.62 2.64-7.87 4.49-11.96 6.41-3.33 1.57-5.74.45-6.78-3.23-.21-.74-.64-1.41-1.05-2.28z"/><path d="m236.45 25.15c1.07 2.41 2.54 4.72 3.13 7.24 2.31 9.86.68 19.82.29 29.75-.33 8.38-1.1 16.76-1.1 25.13.01 13.95 6.12 25.77 14.32 36.5 13.8 18.07 29.48 34.21 49.47 45.63 2.49 1.42 4.89 3.24 6.81 5.35 1.72 1.88 2.71 4.41 4.03 6.66-.29.4-.58.81-.87 1.21-3.01-.82-6.19-1.27-9.01-2.53-8.69-3.88-16.74-8.67-23.65-15.49-7.96-7.85-16.33-15.33-24.94-22.46-10.55-8.74-17.05-20.01-21.53-32.59-7.21-20.24-8.47-41.14-5.01-62.19 1.23-7.49 4.48-14.64 6.8-21.95.43-.07.84-.16 1.26-.26z"/></g></svg>