<svg enable-background="new 0 0 400 400" viewBox="0 0 400 400" xmlns="http://www.w3.org/2000/svg"><g fill="#010100"><path d="m58.8 260.05c7.87-1.02 15.56-2.73 23.27-2.85 15.07-.23 30.16.43 45.24.71 2.57.05 5.15.1 7.72.01 5.54-.2 8.81-3.78 11.38-8.05 4.71.71 7.1 2.78 8.11 7.75 2.62 12.93 5.6 25.77 5.66 39.06 0 .87.08 1.86.49 2.59 7.33 12.92 7.73 27.55 10.3 41.63 1.82 9.96 2.02 19.99.06 30.02-.74 3.77-1.65 5.14-5.24 2.26-3.7-2.98-5.68-6.28-6.54-11.02-4.03-22.2-8.55-44.31-12.7-66.49-1.54-8.23-2.67-16.55-3.66-24.87-.38-3.17-1.88-4.28-4.74-4.3-.45 0-.91-.04-1.34.04-16.95 3.12-33.88-.17-50.82-.13-6.25.01-12.5.02-18.73.35-4.91.24-6.55-.69-8.46-6.71z"/><path d="m149.4 25.05c4.14.86 5.23 3.87 5.47 7.04 1.25 16.51 2.33 33.04 3.45 49.56.04.56.15 1.17-.04 1.67-3.84 10.29-1.42 21.09-2.58 31.59-.99 9-1.32 18.11-2.95 26.99-1.09 5.96-3.48 11.82-6.21 17.27-.95 1.88-4.71 3.4-7.13 3.31-7.33-.28-14.64-1.4-21.94-2.25-1.1-.13-2.23-1.01-3.21-.82-6.19 1.18-11.67-1.73-17.48-2.72-11.45-1.96-22.93-3.82-34.41-5.59-3.31-.51-5.08-2.33-6.27-6.22 3.48 0 6.68-.37 9.76.07 10.07 1.42 20.08 3.25 30.15 4.66 2.44.34 5.02-.37 7.54-.54 1.64-.11 3.32-.37 4.93-.17 7.64.98 15.24 2.4 22.9 3.07 5.83.51 6.41-.26 7.38-5.94 1.59-9.36 2.96-18.68 1.73-28.31-.52-4.05 1.19-8.35 1.7-12.56.88-7.2 1.66-14.41 2.41-21.63.54-5.22.58-10.53 1.53-15.68 1.44-7.82-.6-15.36-1.08-23.02-.42-7 .49-13.58 4.35-19.78z"/><path d="m253.1 367.48c-1.15-5.48-2.49-10.97-3.4-16.53-1.1-6.72-2.13-13.47-2.62-20.25-.43-6 .12-12.06-.07-18.08-.28-8.72-.84-17.43-1.26-26.14-.07-1.45-.46-3.07.03-4.32 4.22-10.72 2.47-22.1 3.82-33.13.28-2.33.27-4.69.5-7.03.26-2.61 1.89-4.17 4.41-4.04 14.84.76 29.67 1.57 44.5 2.59 5.3.36 10.74.74 15.78 2.22 7 2.06 13.71 5.14 20.51 7.87 1.01.4 1.84 1.24 3.13 2.15-6.34 3.6-12.2 3.21-18.07 2.32-3.42-.52-6.81-1.27-10.17-2.1-5.74-1.41-11.37-2.32-17.46-1.85-5.43.42-11.02-1.39-16.55-2.12-5.08-.66-10.17-1.49-15.28-1.68-4.05-.15-4.37.87-4.36 4.82.01 4.64-.59 9.27-.71 13.92-.05 1.96.18 4.01.75 5.88 1.86 6.04 3.46 12.02 1.19 18.34-.39 1.09-.16 2.44-.08 3.66.95 14.17 2.28 28.33 2.76 42.51.24 6.96-1.05 13.97-1.71 20.95-.2 2.11-.8 4.2-.85 6.31-.07 2.53-1.15 3.69-4.79 3.73z"/><path d="m243.87 41.25c4.71 3.04 5.87 7.77 3.39 12.39-.55 1.01-.38 2.46-.38 3.71-.01 3.17.17 6.34.07 9.51-.07 2.44-.57 4.87-.67 7.31-.68 16.98-1.58 33.95-1.85 50.94-.16 9.93.63 19.89 1.19 29.82.19 3.44 3.25 4.35 5.94 4.99 3.79.91 7.77 1.08 11.51 2.13 7.84 2.2 15.78 2.69 23.88 2.59 10.14-.12 20.29 1.33 30.44-.39 2.07-.35 4.39.73 6.59 1.15.09.46.18.93.27 1.39-5.22 3.31-10.26 6.97-15.72 9.82-3.53 1.84-7.64 2.39-11.44-.21-.64-.44-1.73-.28-2.62-.27-5.7.08-11.4.33-17.1.29-13.61-.1-25.81-4.83-37.08-12.05-3.97-2.55-5.12-7.06-5.19-11.49-.24-17.53-.73-35.08-.2-52.6.34-11.13 2.35-22.21 3.51-33.33.5-4.78.77-9.58 1.07-14.37.28-4.26 1.8-7.99 4.39-11.33z"/></g><path d="m6.4 11.7c-1-.8-1.9-1.6-2.9-2.3l.6-.7c.9.7 1.9 1.4 2.9 2.2zm-2.1 8.3c.7-2.1 1.4-4.2 2-6.4.2.1.6.3 1 .4-.7 2.3-1.3 4.4-1.9 6.4zm3-12.8c-1.1-.9-2.1-1.7-2.9-2.4l.6-.7c1 .8 2 1.5 3 2.4zm1.4-1.3v-.9h10.2v.9c-.9 4.2-2.3 7.3-4.1 9.4 1.3 1.4 3.2 2.7 5.7 4-.2.2-.4.5-.7.9-2.5-1.4-4.4-2.7-5.7-4.2-1.4 1.5-3.5 3-6.1 4.4 0 0 0 0-.1-.1-.3-.4-.5-.7-.7-.8 2.7-1.3 4.7-2.8 6.2-4.2-1.8-2.2-3-5.3-3.7-9.4zm9.2 0h-7.1c.6 3.8 1.7 6.7 3.4 8.7 1.7-2 2.9-4.8 3.7-8.7z" fill="#fafbfa"/><path d="m31.6 3.6h.9v2.3h4.1v9.1h1.7v.9h-16.6v-.9h1.7v-9.1h4.1v-2.3h.9v2.3h3.1v-2.3zm-4 13.3.6.8c-1.9.9-3.8 1.9-5.8 2.8-.2-.3-.3-.6-.5-.9 2-.9 3.9-1.8 5.7-2.7zm-3.2-10.1v3.7h3.1v-3.7zm0 4.5v3.7h3.1v-3.7zm4.1-4.5v3.7h3.1v-3.7zm0 4.5v3.7h3.1v-3.7zm9.1 9.1c-2.1-1.1-4.1-2-5.8-2.7l.5-.8c2.2.9 4.1 1.8 5.8 2.6zm-1.9-13.6h-3.1v3.7h3.1zm-3.2 4.5v3.7h3.1v-3.7z" fill="#fafbfa"/></svg>