<svg enable-background="new 0 0 400 400" viewBox="0 0 400 400" xmlns="http://www.w3.org/2000/svg"><g fill="#010105"><path d="m190.27 154.08c12.8-.63 24.41-1.68 36.02-1.66 16.42.02 32.07-3.54 47.69-8.08 9.62-2.8 19.48-4.95 29.36-6.62 4.96-.84 10.23-.19 15.34.18 10.14.74 20.28 1.62 30.38 2.75 2.45.27 4.9 1.52 7.1 2.75 2.78 1.55 3.84 4.2 3.48 7.41-.36 3.17-2.1 4.63-5.16 5.61-17.87 5.75-35.62 11.86-53.51 17.55-2.84.9-6.16.64-9.22.38-3.3-.27-6.33-.07-9.44 1.28-9.02 3.9-18.35 7.15-27.19 11.42-7.57 3.65-14.48 2.41-21.55-.75-2.65-1.18-5.2-2.61-7.9-3.67-2.45-.97-5.11-1.48-7.14.84-2.04 2.33-2.08 4.78-.59 7.7 5.22 10.26 10.42 20.54 15.16 31.03 4.99 11.03 13.6 17.95 24 23.35 13.42 6.96 27.81 10.94 42.36 14.56 13.34 3.32 26.57 7.09 39.95 10.19 7.59 1.76 15.39 2.69 23.12 3.79 5.76.81 9.62 5.25 8.83 10.88-.14 1.02-1.23 1.98-2.03 2.82-11.26 11.89-25.85 13.2-40.89 12.47-11.85-.57-23.62-2.12-34.96-5.9-1.57-.52-3.13-1.21-4.54-2.08-10.69-6.53-21.12-13.52-32.05-19.61-13.31-7.41-23.25-18.09-31.46-30.54-11.77-17.85-19.86-37.47-26.83-57.59-2.01-5.8-4.56-11.44-6.27-17.33-1.18-4.07-1.36-8.45-2.06-13.13z"/><path d="m23.75 341.18c-1.64-3.28-.39-5.16 1.9-7.17 18.72-16.49 38.06-32.32 54.84-50.9 8.09-8.96 16.6-17.59 22.2-28.5 4.8-9.36 7.33-19.21 6.3-29.75-.16-1.68-1.21-3.55-2.4-4.79-2.85-2.97-6.04-5.61-9.28-8.55-1.01.95-1.9 1.76-2.75 2.6-12.72 12.65-26.95 23.13-43.27 30.73-4.35 2.02-8.34 4.81-12.69 6.83-2.99 1.39-6.27 2.22-9.49 2.99-2.01.48-3.11-.81-3.28-2.82-.33-3.92 1.46-6.92 4.25-9.39 12.05-10.69 24.42-21.06 36.14-32.1 10.82-10.19 21.17-20.9 31.3-31.78 3.67-3.94 6.29-8.94 9.02-13.66 2.48-4.29 2.01-8.79-.3-13.13-.63-1.18-1.35-2.37-1.63-3.65-.81-3.8.34-7.6 3.08-9.74 1.27-.99 5.01.61 7.33 1.69 4.15 1.93 6.74 5.57 8.22 9.78 3.16 8.97 4.53 18.22 3 27.71-.25 1.58-.95 3.21-1.86 4.53-4.44 6.45-9.03 12.79-13.79 19.5 1.21 1.36 2.47 2.73 3.68 4.14 7.27 8.51 13.39 17.74 15.88 28.78 2.26 9.99.51 19.26-5.35 28.07-9.87 14.83-21.46 27.95-34.87 39.65-10.53 9.2-20.47 19.07-30.8 28.5-1.24 1.13-3.29 1.36-4.93 2.07-2.9 1.25-6.04 2.16-8.62 3.89-6.75 4.52-14.08 5.27-21.83 4.47z"/><path d="m120.09 113.71c-1.06 1.59-1.82 3.57-3.24 4.72-18.97 15.32-38.03 30.53-57.08 45.75-.69.55-1.42 1.34-2.21 1.45-5.09.71-8.11 4.32-11.37 7.7-2.41 2.49-4.98 4.83-7.57 7.14-2.85 2.53-6.14 4.32-10.05 3.73-2.05-.31-5.06-.97-5.7-2.36-1.21-2.61-1.76-5.62 1.14-8.51 7.81-7.77 13.97-16.87 19.26-26.52 10.44-19.04 21.95-37.41 34.44-55.16 2.92-4.15 3.3-8.64 3.45-13.33.15-5.04.08-10.15 3.36-14.42 4.2-5.48 3.88-5.93 9.9-1.49 6.53 4.83 10.46 11.85 14.1 18.94 4.6 8.96 8.83 18.08 10.44 28.16.19 1.21.31 2.44.46 3.66.21.18.44.36.67.54z"/><path d="m199.53 101.83c4.06 0 7.85-.14 11.63.03 9.99.44 19.01-3.54 28.35-6.04 8.42-2.26 16.76-4.79 25.15-7.12 1.37-.38 2.87-.64 4.27-.51 11.13 1.04 22.28 1.95 33.35 3.45 3.61.49 7.33 2.07 10.43 4.04 4.07 2.58 4.79 7.06 4.21 11.63-.1.76-.8 1.55-1.42 2.11-4.26 3.9-9.34 5.97-15.04 6.78-16.59 2.36-33.15 4.95-49.76 7.16-11.28 1.5-22.55 1.11-33.66-1.64-7.44-1.86-16.51-11.82-17.51-19.89z"/></g><path d="m377.9 391.2c-.2.3-.4.5-.6.8-.7-.6-1.4-1-2.2-1.5.2-.3.4-.5.5-.8.6.4 1.4.8 2.3 1.5zm-1.8 6.1c-.2-.2-.5-.4-.9-.6.4-.6.8-1.2 1.2-1.9s.7-1.3.9-1.9c.3.3.5.5.8.7-.7 1.3-1.4 2.6-2 3.7zm2.2-9c-.3.3-.5.5-.6.8-.6-.6-1.3-1.1-2-1.5.3-.3.5-.5.6-.7.6.5 1.3.9 2 1.4zm.3.2v-.9h2 4.5c-.3 1.3-.6 2.5-1 3.6s-.9 2.1-1.4 3c.4.5 1 1 1.6 1.4s1.2.8 1.9 1.1c-.3.2-.5.4-.8.8-.4-.3-1-.7-1.6-1.2s-1.2-1.1-1.6-1.6c-.5.6-1.1 1.1-1.7 1.6s-1.4.9-2.1 1.4c-.1-.3-.3-.5-.7-.8.6-.2 1.2-.5 1.9-1s1.4-1.1 2-1.8c-.5-.8-.9-1.6-1.2-2.5s-.6-2-.8-3.2c-.4.1-.7.1-1 .1zm2.5 2.7c.3 1 .7 1.7 1 2.2.3-.5.6-1.1 1-2s.6-1.9.9-3h-3.2-.4c.1.9.3 1.8.7 2.8z" fill="#fcfbfa"/><path d="m396.5 388.5v1.5 3.6h1.5v.9c-.4 0-1 0-1.7 0h-7.9c-.5 0-.9 0-1.2 0v-.9h1.3v-3.5c0-.7 0-1.2 0-1.6h2.4c0-.8 0-1.4 0-1.7h1c0 .3-.1.8-.1 1.7h1.5c0-.8 0-1.4 0-1.7h1c0 .3-.1.9-.1 1.7zm-8.2 9.2c-.2-.3-.5-.5-.8-.8.8-.3 1.4-.6 1.9-.9s1-.7 1.4-1.1c.3.3.6.5.9.8-1.6 1-2.8 1.6-3.4 2zm2.6-6.8v-1.6h-1.5v1.6zm0 2.7v-1.9h-1.5v1.9zm2.4-2.7v-1.6h-1.5v1.6zm0 2.7v-1.9h-1.5v1.9zm.2 2 .7-.8c.4.2.9.5 1.6.8s1.3.7 1.8 1c-.3.3-.5.5-.8.8-.4-.3-1.5-1-3.3-1.8zm2-4.7v-1.6h-1.4v1.6zm0 2.7v-1.9h-1.4v1.9z" fill="#fcfbfa"/></svg>