<svg enable-background="new 0 0 400 400" viewBox="0 0 400 400" xmlns="http://www.w3.org/2000/svg"><g fill="#fcfafa"><path d="m342.2 3.2-6.3 9.2h6.1v1.2h-8.2v-.5l6.2-9.1h-5.7v-1.2h7.8v.4z"/><path d="m344 13.7v-10.9h3.1c1.6 0 3 .5 4.1 1.4 1.1 1 1.6 2.2 1.6 3.9s-.5 3-1.6 4-2.5 1.5-4.2 1.5h-3zm1.4-9.6v8.4h1.6c1.4 0 2.5-.4 3.2-1.1.8-.8 1.2-1.8 1.2-3.2s-.4-2.4-1.2-3.1-1.8-1-3.1-1z"/><path d="m356.3 2.8v10.9h-1.4v-10.9z"/><path d="m366.6 13.2c-.8.4-1.8.6-3 .6-1.6 0-2.8-.5-3.7-1.5s-1.4-2.3-1.4-3.9c0-1.7.5-3.2 1.6-4.2s2.4-1.6 4-1.6c1 0 1.9.1 2.6.4v1.5c-.8-.4-1.6-.6-2.6-.6-1.2 0-2.2.4-3 1.2s-1.1 1.9-1.1 3.3c0 1.3.4 2.3 1.1 3.1s1.6 1.1 2.8 1.1c1.1 0 2-.2 2.8-.7v1.3z"/><path d="m368.2 13c0-.3.1-.5.3-.6.2-.2.4-.3.6-.3.3 0 .5.1.7.3s.3.4.3.6-.1.5-.3.6c-.2.2-.4.3-.7.3s-.5-.1-.6-.3c-.2-.2-.3-.4-.3-.6z"/><path d="m381.1 13.7h-1.7l-5.5-8.4c-.2-.2-.3-.5-.4-.7 0 .2.1.8.1 1.5v7.6h-1.4v-10.9h1.8l5.3 8.3c.3.4.4.6.4.8 0-.3-.1-.8-.1-1.6v-7.5h1.4v10.9z"/><path d="m389.7 13.7h-5.8v-10.9h5.6v1.2h-4.2v3.5h3.9v1.2h-3.9v3.7h4.4z"/><path d="m398.4 4.1h-3.1v9.6h-1.4v-9.6h-3.1v-1.3h7.7v1.3z"/></g><path d="m167.15 218.87c-3.02-2.67-6.28-2.52-9.44-1.56-5.61 1.71-10.82.84-15.89-1.76-.7-.36-1.39-.72-2.1-1.05-7.01-3.3-8.07-3.03-13.36 2.63-3.9 4.17-7.84 8.31-11.94 12.27-3.68 3.55-7.94 6.09-13.18 6.85-3.01.44-4.6-.83-4.03-3.56.69-3.29 2.17-6.41 3.32-9.6.03-.1.17-.15.23-.24 9.15-13.91 19.51-27.13 23.65-43.81 2.42-9.76 1.56-19.03-2.36-28.18-.59-1.37-.66-2.95-1.1-5.05 2.53 0 4.82-.6 6.57.11 5.03 2.05 10.12 4.18 14.67 7.1 7.52 4.83 12.6 11.88 15.66 20.78 6.2-2.16 12.06-3.92 17.71-6.21 10.67-4.33 21.28-8.74 32.9-9.83 1.34-.13 2.72-.16 3.98-.56 2.72-.85 4.39-2.55 3.99-5.7-.27-2.11-.15-4.29-.64-6.34-.41-1.74-1.17-3.55-2.26-4.94-2.07-2.65-4-5.18-2.38-9.25 9.64 3.28 19.2 6.65 25.15 15.73 1.25 1.91 1.73 4.63 1.73 6.97-.01 3.85.73 7.14 3.03 10.35 1.35 1.88 1.56 4.55 2.4 6.83 1.07 2.89 1.87 5.97 3.46 8.55 6.34 10.28 12.76 20.53 19.51 30.55 5.05 7.5 10.86 14.5 15.89 22.01 2.22 3.32 3.37 7.37 5.31 11.8-3.76.16-6.39.39-9.01.32-.67-.02-1.42-.9-1.96-1.54-10.57-12.59-21.11-25.21-31.65-37.83-1.29-1.54-2.57-3.11-3.72-4.75-2.94-4.2-7.79-5.77-11.86-2.81-7.83 5.71-16.93 7.22-25.99 9.24-6.6 1.47-13.08 3.5-18.98 5.1 2.47 4.74 4.52 8.94 6.85 12.97.55.94 2.01 1.78 3.13 1.89 4.87.46 9.41 1.81 13.68 4.15 8.03 4.41 16.25 8.52 24.06 13.29 8.85 5.4 14.59 13.61 17.54 23.39 1.02 3.37.28 7.51-.49 11.12-.97 4.55-2.53 9.04-4.34 13.34-1.37 3.25-3.17 6.48-5.44 9.16-7 8.3-14.31 16.34-21.53 24.45-.81.9-1.72 1.82-2.77 2.38-12.6 6.75-23.42 16.02-35.01 24.2-6.87 4.85-14.67 8.43-22.23 12.24-6.28 3.16-12.84 5.78-19.23 8.73-5.53 2.55-11.21 3-17 1.29-.97-.29-2.02-1.5-2.33-2.5-.47-1.51-.17-2.98 1.8-3.71 13.53-5 24.65-13.91 36.11-22.29 4.06-2.97 8.41-5.52 12.54-8.41 3.24-2.26 5.81-5.12 7.05-9.27-1.84-.65-3.58-1.1-5.15-1.89-1.11-.55-2.03-1.53-2.98-2.37-1.13-1-2.03-2.52-3.34-3.02-3.88-1.48-6.31-4.13-8.36-7.68-1.56-2.7-3.86-5.15-6.3-7.14-5.27-4.33-10.75-8.42-16.33-12.36-3.05-2.15-5.31-4.77-6.67-8.16-1.07-2.66-3.01-3.44-5.6-3.04-1.98.31-3.93.84-5.91 1.2-2.5.45-5.2 1.41-6.87-1.57-1.08-1.92.63-6.68 2.78-8.33 6.56-5.04 13.33-9.85 19.62-15.21 12.11-10.33 23.67-21.25 32.49-34.69 1-1.49 1.87-3.04 2.92-4.78zm49.55 72.41c3.6-5.23 6.9-9.99 10.14-14.79.41-.61.59-1.43.66-2.18.45-4.45.88-8.9 1.19-13.36.06-.89-.14-2.18-.73-2.68-3.41-2.87-6.59-6.49-10.56-8.13-10.4-4.27-21.14-7.7-31.8-11.32-1.21-.41-3.2-.37-4.08.36-5.39 4.53-10.68 9.2-15.77 14.06-2.39 2.28-1.82 4.34 1.19 5.45 8.12 3 15.69 6.97 22.67 12.1 1.11.82 2.56 1.21 3.91 1.65 1.89.61 3.97.76 5.7 1.64 7.42 3.78 13.61 8.94 17.48 17.2zm-12.93 12.97c-.87-2-1.4-4.29-2.71-5.94-1.56-1.96-3.65-3.63-5.8-4.96-13.36-8.29-25.37-18.15-35.57-30.16-1.65-1.94-3.19-2.84-5.87-.84-6.98 5.22-14.29 9.99-21.41 15.03-.89.63-1.42 1.75-2.12 2.64 1.01.71 1.92 1.75 3.03 2.07 7.52 2.14 15.08 4.11 22.62 6.18 1.39.38 2.96.68 4.02 1.54 5.43 4.43 10.96 8.77 15.97 13.64 4.07 3.95 7.37 8.7 11.23 12.89.97 1.05 2.87 1.92 4.23 1.78 5.52-.55 11.93-8.14 12.38-13.87zm27.77-123.18c-2.37-2.94-4.56-6-7.15-8.67-.81-.84-2.87-1.21-4.04-.82-5.61 1.87-11.1 4.08-16.64 6.14-7.21 2.69-14.41 5.42-21.66 7.98-2.61.93-5.76.84-7.99 2.26-5.88 3.75-11.86 3.81-18.21 1.92-1.28-.38-2.66-.41-3.94-.8-1.97-.59-3.3-.12-4.57 1.61-3.04 4.14-6.32 8.11-9.44 12.2-.61.8-.95 1.81-1.43 2.77 4.88 1.83 6.84 1.59 13.44-.23 22.99-6.32 45.18-15.65 69.16-18.32 4.43-.48 8.64-2.11 12.47-6.04z" fill="#010103"/><path d="m304.4 192.31c-4.19 1.73-6.6.7-9.22-2.27-8.52-9.67-15.03-20.54-20.73-32-6.27-12.6-13.16-24.94-15.58-39.07-.06-.33-.22-.63-.33-.95-2.47-7.62-2.95-7.85-10.51-5.27-5.5 1.88-11.09 3.51-16.49 5.65-6.24 2.47-12.61 3.31-19.3 3.45-4.01.08-7.97 1.9-11.98 2.79-5.43 1.21-10.9 2.28-16.34 3.45-.95.2-1.86.62-2.79.94-1.67.56-3.31 1.31-5.03 1.64-6.11 1.19-12.25 2.23-18.37 3.34-8.64 1.56-17.21 1.55-25.65-1.15-.32-.1-.63-.23-.95-.33-7.35-2.25-8.07-1.95-12.68 4.18-4.23 5.63-8.5 11.25-12.99 16.68-1.6 1.93-3.7 3.85-5.97 4.72-2.28.88-5.89 1.52-7.44.34-2.34-1.78-3.19-5.25-1.75-8.56 1.74-4 3.41-8.02 5.12-12.04 3.42-8.02 7.46-15.84 10.09-24.11 2.83-8.9 5.93-18.2 5.98-27.35.07-10.53-.58-21.5-5.08-31.57-.26-.59-.37-1.25-.71-2.45 1.51-.07 2.98-.59 3.97-.11 4.16 2.02 8.23 4.24 12.22 6.59 3.06 1.8 5.87 4.03 8.91 5.86 3.25 1.96 6.74 3.52 9.94 5.54 4.15 2.63 5.31 6 3.74 10.67-2.94 8.74-.34 9.97 7.45 8.94 6.54-.86 12.87-3.32 19.29-5.09.97-.27 1.88-.71 2.85-.97 14.46-3.81 28.89-7.75 43.42-11.34 7.59-1.87 15.32-3.16 23.01-4.59 4.25-.79 5.19-1.41 4.24-5.66-1.7-7.61-3.71-15.19-6.18-22.58-.71-2.13-3.46-3.57-5.27-5.33-1.43-1.38-3.05-2.62-4.2-4.2-.59-.82-.84-2.7-.32-3.3.7-.81 2.32-1.22 3.5-1.15 1.64.09 3.28.66 4.85 1.24 8.86 3.25 17.32 7.25 24.78 13.15 2.59 2.05 4.19 4.3 3.41 8.03-2.15 10.29 1.87 19.88 4.18 29.57 5.48 23.05 11.28 46.03 17.21 68.97 1.07 4.15 3.42 7.97 5.11 11.97 3.74 8.85 7.52 17.68 11.08 26.59.87 2.22 1.02 4.74 1.51 7.14zm-62.25-91.29c.01.17.02.35.04.52 2.87-.36 5.75-.65 8.6-1.14.74-.13 1.83-.78 1.97-1.38.87-3.84-.03-7.39-2.66-10.29-2.39-2.64-5.22-3.81-8.99-2.56-9.43 3.13-18.95 6.01-28.45 8.95-7.47 2.32-14.83 5.18-22.46 6.73-11.04 2.24-22.26 3.65-33.44 5.08-3.33.43-7 .37-10.18-.58-5.6-1.69-8.08-1.16-10.91 3.98-1.83 3.32-3.63 6.67-5.34 10.06-.48.95-.6 2.08-.88 3.13 1.1.09 2.29.51 3.29.23 9.26-2.55 18.46-5.34 27.73-7.82 18.86-5.04 37.63-10.54 56.7-14.61 7.98-1.72 16.63-.3 24.98-.3z" fill="#010103"/></svg>