<svg enable-background="new 0 0 400 400" viewBox="0 0 400 400" xmlns="http://www.w3.org/2000/svg"><g fill="#fcfafa"><path d="m342.2 3.2-6.3 9.2h6.1v1.2h-8.2v-.5l6.2-9.1h-5.7v-1.2h7.8v.4z"/><path d="m344 13.7v-10.9h3.1c1.6 0 3 .5 4.1 1.4 1.1 1 1.6 2.2 1.6 3.9s-.5 3-1.6 4-2.5 1.5-4.2 1.5h-3zm1.4-9.6v8.4h1.6c1.4 0 2.5-.4 3.2-1.1.8-.8 1.2-1.8 1.2-3.2s-.4-2.4-1.2-3.1-1.8-1-3.1-1z"/><path d="m356.3 2.8v10.9h-1.4v-10.9z"/><path d="m366.6 13.2c-.8.4-1.8.6-3 .6-1.6 0-2.8-.5-3.7-1.5s-1.4-2.3-1.4-3.9c0-1.7.5-3.2 1.6-4.2s2.4-1.6 4-1.6c1 0 1.9.1 2.6.4v1.5c-.8-.4-1.6-.6-2.6-.6-1.2 0-2.2.4-3 1.2s-1.1 1.9-1.1 3.3c0 1.3.4 2.3 1.1 3.1s1.6 1.1 2.8 1.1c1.1 0 2-.2 2.8-.7v1.3z"/><path d="m368.2 13c0-.3.1-.5.3-.6.2-.2.4-.3.6-.3.3 0 .5.1.7.3s.3.4.3.6-.1.5-.3.6c-.2.2-.4.3-.7.3s-.5-.1-.6-.3c-.2-.2-.3-.4-.3-.6z"/><path d="m381.1 13.7h-1.7l-5.5-8.4c-.2-.2-.3-.5-.4-.7 0 .2.1.8.1 1.5v7.6h-1.4v-10.9h1.8l5.3 8.3c.3.4.4.6.4.8 0-.3-.1-.8-.1-1.6v-7.5h1.4v10.9z"/><path d="m389.7 13.7h-5.8v-10.9h5.6v1.2h-4.2v3.5h3.9v1.2h-3.9v3.7h4.4z"/><path d="m398.4 4.1h-3.1v9.6h-1.4v-9.6h-3.1v-1.3h7.7v1.3z"/></g><path d="m236.01 277.94c-3.07-2.13-6.11-1.98-8.89-.58-13.51 6.81-27.91 7.22-42.59 6.69-3.4-.12-6.97 1.33-10.29 2.54-5.81 2.12-11.01.72-15.33-2.98-3.33-2.86-5.78-6.74-8.66-10.14-2.57-3.03-5.26-5.96-7.77-9.03-1.6-1.96-2.97-4.1-4.76-6.6 4.25-1.37 6.89-1.45 10.35.24 5.31 2.58 11.31 4.79 17.12 5.1 13.49.72 27.04.2 40.56.18.44 0 .93-.01 1.33-.17 9.85-4.04 20.05-2.3 30.11-1.56 3.99.29 6.29-1.09 8.3-4.09 2.96-4.41 5.71-8.94 5.54-14.46-.07-2.28-.75-4.61-1.52-6.78-.84-2.35-2.81-3.22-5.16-2.3s-4.79 1.85-6.83 3.29c-7.26 5.13-15.48 7.51-24.1 8.54-10.45 1.25-20.99 2.05-31.43.08-5.37-1.01-10.3-3.29-14.37-7.29-2.74-2.69-5.84-5.08-9.04-7.23-1.74-1.17-3.57-.56-5.36 1.05-10.03 8.97-21.76 14.79-34.84 17.82-4.94 1.15-9.96 1.22-14.82-.36-1.26-3.13.18-4.72 2.79-6.13 16.95-9.13 32.74-19.79 45.04-34.94 4.58-5.65 9.24-11.24 14.08-16.67 4.88-5.48 8.27-11.73 9.77-18.83.72-3.41.5-7.08.2-10.6-.09-1.08-1.67-2.58-2.86-2.93-5.67-1.69-11.43-3.13-17.2-4.45-1.07-.25-2.66.09-3.5.78-10.65 8.7-21.23 17.5-31.8 26.3-4.3 3.58-8.53 7.23-12.82 10.82-4.14 3.47-8.69 3.55-13.47 1.66-.55-3.94.72-6.74 3.44-9.64 10.18-10.89 19.71-22.41 26.27-35.89 2.9-5.95 6-11.63 9.77-17.06 4.7-6.76 4.27-14.9 5.02-22.65.06-.58-1.14-1.53-1.94-1.92-5.71-2.79-14.14-1.07-18.68 3.47-6.47 6.48-14.79 9.53-23.39 11.76-5.37 1.39-10.9 2.12-16.28 3.13-1.9-6.04-1.09-8.8 2.94-12.31 10.63-9.26 21.34-18.44 31.76-27.93 4.92-4.48 8.39-10.17 10.59-16.52 1.89-5.44 1.85-5.6-.55-10.47 3.29-2.08 6.51-2.57 9.93-.12 3.59 2.58 7.47 4.79 10.91 7.55 1.41 1.13 2.35 3.18 2.87 4.99 1.08 3.73 1.73 7.59 2.62 11.67 8.54-2.81 16.81-5.52 25.08-8.24 12.95-4.25 25.91-8.5 38.86-12.76 1.75-.58 6.25-6.21 6.05-7.87-.11-.92-.84-1.79-1.39-2.62-5.51-8.14-11.04-16.27-16.65-24.53 2.38-1.72 4.39-2.09 7.15-.91 11.95 5.12 22.38 12.65 32.7 20.32 6.5 4.83 13.27 9.12 20.77 12.15 3.03 1.23 5.06 3.25 6.22 6.14 2.43 6.05 6.6 10.46 12.05 13.95 3.76 2.4 7.19 5.33 10.72 8.08 3.69 2.87 6.24 6.56 6.41 11.31.08 2.15-.24 4.96-1.56 6.36-1.87 2-4.82 1.24-7.2-.07-3.82-2.1-7.7-4.11-11.35-6.48-10.32-6.7-20.56-13.52-30.77-20.4-1.86-1.26-3.41-1.73-5.47-.52-7.07 4.14-15.01 5.59-22.89 7.21-2.05.42-4.22.96-5.96 2.05-10.76 6.69-23.26 7.61-35.09 10.67-7.03 1.82-14.17 3.2-21.24 4.9-1.39.33-2.65 1.21-4.28 1.99 3.54 4.52 6.8 8.5 9.81 12.66.82 1.13 1.35 2.84 1.24 4.22-.52 6.33-1.31 12.64-2.05 19.36 7.48 0 14.72-.02 21.96 0 13.97.04 27.07-4.45 40.38-7.8 2.06-.52 4.08-1.26 6.16-1.59 2.44-.39 3.16-1.83 2.27-3.77-1.94-4.21-4.02-8.37-6.36-12.37-1.73-2.97-4.22-5.51-5.88-8.51-1.7-3.07-1.74-6.41.73-9.9 6.29 4.3 12.71 8.32 18.72 12.87 9.99 7.56 19.67 15.54 29.6 23.19 3.08 2.37 6.48 4.37 9.88 6.29 11.1 6.25 22.28 12.34 33.37 18.62 1.59.9 3.51 2.25 4 3.79.75 2.38 1.36 5.67.26 7.54-1.31 2.21-4.6 2.26-7.38 1.26-7.25-2.59-14.52-5.14-21.8-7.66-5.17-1.79-10.41-3.4-15.55-5.28-4.9-1.8-9.74-3.57-13.97-7-6.11-4.95-13.51-5.23-20.78-3.34-5.11 1.33-10.19 3.21-14.91 5.57-6.9 3.46-14.33 4.15-21.69 5.39-5.73.97-10.94 3.07-15.37 7.26 4.55 4.21 9.77 7.12 15.55 9.06 7.84 2.62 15.97 4.56 23.5 7.87 16.06 7.05 30.02 17.21 39.06 32.55 3.84 6.52 5.73 14.21 8.3 21.44.48 1.36.27 3.13-.08 4.61-2.53 10.77-5.16 21.52-7.8 32.26-.26 1.06-.7 2.13-1.31 3.03-8.73 13.01-17.11 26.27-26.43 38.84-4.26 5.74-10.06 10.52-15.73 15-18.93 14.95-39.51 27.43-60.87 38.54-5.6 2.91-12.42 3.5-18.69 5.12-2.59.67-5.21 1.22-8.2 1.91-.8-1.84-1.58-3.62-2.43-5.57 8.07-4.73 15.8-9.7 23.92-13.91 12.47-6.45 23.03-15.38 33.51-24.47 12.67-10.99 25.41-21.92 37.75-33.27 5.7-5.24 9.96-11.77 12.09-19.57zm8.81-59.54c-1.28-8.15-5.74-13.37-12.69-16.18-5.98-2.42-12.31-3.98-18.43-6.08-5.98-2.05-11.89-4.31-17.94-6.52-.81 1.46-1.68 2.77-2.31 4.19-4.12 9.27-10.08 17.03-18.34 23.02-.97.7-1.37 2.19-2.03 3.31 1.38.42 2.76 1.21 4.13 1.18 5.92-.12 11.84-.5 17.76-.76 16.53-.72 33.05-1.43 49.85-2.16z" fill="#010103"/></svg>