<svg enable-background="new 0 0 400 400" viewBox="0 0 400 400" xmlns="http://www.w3.org/2000/svg"><g fill="#fbfafa"><path d="m37.59 393.81c-.92.31-1.52.05-2-.78-.7-1.2-1.52-2.34-2.47-3.78v4.59c-.55.03-.95.05-1.41.07-.03-.37-.06-.64-.06-.91 0-1.91 0-3.81 0-5.7 1.13-.41 1.77-.03 2.29.91.62 1.11 1.38 2.14 2.31 3.19v-4.2h1.35v6.61z"/><path d="m12.94 393.88v-6.75c1.9.19 3.93-.54 5.37 1.29.8 1.01.78 2.88.03 3.97-1.37 1.97-3.4 1.51-5.4 1.49m1.45-1.22c2.04.12 2.92-.58 2.89-2.21-.03-1.51-.98-2.19-2.89-2z"/><path d="m11.81 393.87h-5.49c.68-2.18 2.47-3.48 3.51-5.45h-3.08v-1.21h5.29c-.71 2.13-2.44 3.48-3.47 5.51.86 0 1.63.04 2.39-.01.79-.05 1.14.21.85 1.16"/><path d="m39.33 393.86v-6.61h3.7v1.07h-2.22v1.52c.68.04 1.34.09 2.07.13v1.07c-.72.05-1.38.09-2.1.14v1.48h2.4v1.19h-3.85z"/><path d="m27.71 388.56c-1.15-.3-2.46-.61-3.1.64-.37.73-.41 1.93-.06 2.67.63 1.35 1.99.93 3.17.68.35.94-.01 1.32-.93 1.46-1.62.25-3.05-.27-3.76-1.48-.73-1.24-.6-3.03.31-4.17.88-1.11 2.71-1.7 4-1.16.32.13.44.74.65 1.12-.1.08-.19.16-.28.24"/><path d="m49.15 387.24v1.07c-.59.02-1.17.05-1.87.08v5.44h-1.48v-5.44h-1.85c-.05-.4-.08-.73-.13-1.15z"/><path d="m20.06 387.21h1.33v6.62h-1.33z"/><path d="m30.68 393.25c-.49.38-.8.79-1.05.76-.32-.05-.6-.45-.9-.7.26-.24.51-.64.8-.67.29-.04.62.3 1.15.61"/></g><path d="m72.47 374.59c-2.82-8.49-4.82-16.35-4.82-24.59 0-6.71.09-13.43.15-20.14.01-.89-.16-1.9.19-2.65 3.47-7.44 2.09-15.11 1.29-22.78-.28-2.65-.55-5.43 0-7.98.32-1.5 2.21-3.7 3.44-3.72 1.91-.04 4.89.99 5.6 2.45 4.08 8.34 8.01 16.82 5.21 26.61-.83 2.89 1.62 3.61 3.63 3.42 6.21-.57 12.51-.96 18.55-2.37 11.21-2.62 21.36-7.71 30.19-15.23.6-.51 1.25-.96 1.79-1.53 7.63-8.09 16.71-13.14 28.06-13.64 1.27-.06 2.58-.67 3.77-1.25 31.43-15.34 62.97-30.48 94.2-46.22 8.92-4.5 17.21-10.41 25.32-16.32 5.77-4.2 9.87-9.99 8.27-17.83-.98-4.83-5.62-8.28-5.23-13.9.12-1.66-2.17-3.49-3.43-5.35-6.52 7.64-13.41 5.74-19.3 2.49-5.18-2.86-10.06-6.27-15.21-9.2-2.86-1.63-5.06-3.6-5.96-6.82-1.83-6.55-5.93-10.55-12.64-12.23-5.53-1.38-9.6-4.78-13.27-9.38-9.06-11.39-20.86-19.46-34.64-25.89-2 3.99-4.07 7.88-5.92 11.89-1.56 3.39-8.81 7.36-12.35 6.55-3.16-.73-5.48-7.99-3.5-11.74 2.95-5.58 3.67-11.35 2.58-17.54-1.09-6.16-1.65-12.42-2.81-18.57-3.15-16.67-1.83-33.14 1.62-49.59 1.31-6.23 2.08-12.57 3.17-18.85.93-5.35 6.33-8.38 10.94-6.03-1.45.75-2.81 1.45-4.57 2.36.74.53 1.18.94 1.69 1.2 4.08 2.04 5.69 5.28 4.51 9.68-1.41 5.28-.52 9.82 3.47 13.78.9.89 1.3 2.55 1.41 3.9.48 5.91.72 11.84 1.15 17.75.31 4.26 2.03 5.97 6.32 5.15 5.45-1.05 10.94-2.39 16.06-4.46 10.52-4.25 19.65-10.86 28.88-17.44 6.82-4.86 14.76-8.28 22.48-11.74 12.45-5.58 25.15-10.58 38.88-12.12 3.44-.39 6.9-.74 10.36-.86.84-.03 2.04.74 2.46 1.49.28.49-.3 1.89-.91 2.39-6.48 5.33-12.85 10.84-19.67 15.7-3.39 2.41-7.63 3.65-11.53 5.32-21.85 9.42-43.7 18.85-65.59 28.18-3.49 1.49-7.16 2.55-10.77 3.72-6.77 2.2-11.09 6.78-13.49 13.78 6.41 3.81 12.94 7.44 19.21 11.48 5.14 3.32 10.24 6.81 14.82 10.83 2.64 2.32 4.22 5.85 6.43 9.05-2.52 1.16-4.31 1.98-6.68 3.06 1.85.35 3.1.84 4.33.78 7.12-.31 12.34 3.44 17.05 8.04 7.13 6.95 14.1 14.06 21.11 21.13 6.96 7.02 14.24 13.61 23.55 17.46.31.13.61.28.93.39 5.47 2.01 5.59 2.09 8.59-2.82 2.44-3.98 5.55-6.94 10.72-8.4 1.18 3.39 2.61 6.74 3.53 10.22 6.01 22.75 10.17 45.88 11.73 69.33.64 9.72-1.24 19.61-1.91 29.42-.27 3.93-1.54 7.5-2.79 11.23-2.08 6.19-3.14 12.76-4.26 19.23-1.19 6.81-5.1 10.28-11.37 9.52-1.61-.2-2.57-.68-2.78-2.59-1.71-15.67-3.81-31.31-5.18-47.02-.45-5.12.92-10.39 1.41-15.59.2-2.09.68-4.25.37-6.28-.72-4.8-4.32-6.9-9-6.12-6.18 1.02-11.69 3.37-16.95 6.73-7.25 4.64-14.95 8.59-22.08 13.38-6.22 4.18-12.92 6.24-20.22 7.28-3.79.54-7.56 1.83-11.12 3.31-19.08 7.92-38.03 16.16-57.14 24.01-17.86 7.33-34.06 17.24-48.79 29.68-2.88 2.43-6.13 4.47-9.37 6.42-7.28 4.38-14.7 8.53-21.98 12.91-1.23.74-2.38 2.02-2.98 3.32-3.06 6.61-5.92 13.28-9.21 20.76z" fill="#010000"/></svg>