<svg enable-background="new 0 0 400 400" viewBox="0 0 400 400" xmlns="http://www.w3.org/2000/svg"><path d="m200.8 152.1c-2.6 2.4-2.9 5-2.1 8 .2.7.3 1.5.6 2.1 4.5 9.1 3.3 18.3.7 27.5-.1.2-.1.4-.1.6-2.4 7.2-4.5 14.3 3.3 20.2-.6 0-1.1-.1-1.7-.1-.6 1.7-1 3.5-1.7 5.2-1.3 3.4-2.8 6.7-4.2 10-1 2.4-2.2 4.8-2.5 7.2-.2 1.4.8 3.3 1.9 4.4 2.5 2.6 3.5 5.5 2.9 9-.5 3.3.5 5.8 3.4 7.6s4 4.6 4.1 7.8c.2 4.9 2.2 8.5 6.7 10.4 3.3 1.4 4.4 3.9 4.2 7.3-.1.9.1 1.9.1 2.9 0 3.1.8 5.8 3.8 7.3 2.4 1.2 3.4 3.3 3.8 5.8.9 5.8 3 11.2 6.6 15.9 3.2 4.2 2.3 8.6.7 13-.7 2-4.1 3.1-7 2.2-4.2-1.4-8.1-3.1-10.6-7.3-3.6-5.9-7.8-11.6-12.1-17.1-3.6-4.7-6.1-9.8-7.2-15.6-.4-2.2-1.6-4.4-2.8-6.3-4.6-7-9.3-13.9-14-20.8-8.5-12.7-11.7-27.1-12.8-42-1.4-19.2-2.5-38.4-3.9-57.6-.6-8.2-1.7-16.4-2.6-24.6-.1-1-.6-2-1-3-3.4-7.6-6.8-15.3-10.3-22.8-.6-1.3-2.1-2.6-3.5-3.1-2.4-.9-4.1-2.2-5.5-4.4-2-3-4.4-5.6-6.8-8.3-5.5-6.1-6.2-13.2-4.4-20.8.2-.9 1.3-1.9 2.2-2.3 4-1.9 8.6-3 12-5.5 3.6-2.7 6.3-2 9.6-.2 9.6 5.2 18.5 11.2 23.8 21.2.4.7 1 1.5 1.1 2.3.4 6.9 4.6 12.1 8.2 17.6.8 1.1 1.4 2.4 2.2 3.5 3.7 5.2 5.7 10.8 4.8 17.3-.7 5.3.8 9.9 3.6 14.4 2.5 3.4 4.3 7.2 6.5 11.1z"/><path d="m126.2 364.7c-4.7 2-8.3.9-11.6-3.9-7.1-10.4-13.2-21.1-13.8-34.2-.1-2-1-4.1-2.1-5.8-3.7-5.6-7.8-11.1-11.6-16.7-.8-1.2-1.2-2.9-1-4.3.3-2.5.4-4.8-1.3-6.9-4.7-5.7-4-12.7-4.7-19.3-1.3-12.4-2.9-24.8-3.2-37.3-.2-7.6 1.5-15.3 2.5-22.9.8-5.6 2.4-11 2.6-16.6.2-5.9-.7-11.8-1.2-17.7-.7-8.8-1.5-17.5-2.3-26.2-.2-1.6-.7-3.3-1.6-4.7-2.4-3.8-5.2-7.3-5.6-12.2-.1-1.3-2.4-3-4-3.5-3.8-1.2-7.7-2-11.7-2.6-3.6-.5-7.4-.4-11-.7-2.9-.2-4.7-1.9-5.4-4.5-1.7-7-3.8-13.9-4.6-21-1.1-10-1.3-20-1.8-30.1-.1-2.4.6-4.8.9-7.4 8.9.7 15.8 4.4 21.4 10.8 4.2 4.9 7.3 10.3 8.6 16.7.2 1.1 1.2 2.1 2 3 .7.8 1.6 1.4 2.5 2 4.5 2.8 7.7 6.5 9.1 11.7.5 1.9 1.7 2.9 3.7 2.8 3.3-.1 5 1.7 5.9 4.6.8 2.6 1.9 5.2 2.4 7.9 1.5 7.5 4.5 14.2 9.4 20.2 1.2 1.4 1.8 3.6 2 5.5.8 5.5 1.2 11.1 2 16.7.2 1.2.7 2.5 1.4 3.4 2.1 2.7 2.9 5.6 2.3 8.9-1.6 9 .6 17.7 2.3 26.4.7 3.5.8 6.8-.2 10.3-1.5 5.2-2.8 10.4-3.9 15.7-.5 2.3-.3 4.8-.1 7.1.1 1.9.6 3.8 1.2 5.6 3.1 8.4.5 16.7-.6 25-.2 1.6 0 3.3.4 4.9 1.1 4 2.7 7.8 3.7 11.8 1.8 6.6 4.7 12.5 9.3 17.8 1.9 2.3 2.5 6 3 9.1 1 6.6 1.6 13.2 2.2 19.8 1.1 10.1 1.7 20.3 2.5 30.8z"/><path d="m298.1 216.1c-3.6 1.6-2.6 3.8-1.5 6.1 2.1 4.5 4.1 9 5.9 13.7 1 2.5 2.4 4.2 4.9 4.9 2.3.7 3.6 2.1 3.9 4.4.3 2.5 1.8 4 4.2 4.5 9.1 1.9 13.4 9.4 18.5 15.8 1.7 2.1 3.3 3.2 6.1 3.1 1.4-.1 3 .7 4.1 1.7 3.5 3 6.7 6.4 10.3 9.4 1.8 1.5 2.3 3.1 1.7 5.3-1.2 3.8.8 6.3 3.6 8.3 4.3 3.1 3.8 11-.9 13.5-5.7 3.1-14 1.8-19.3-3.7-12.3-13-24.7-25.9-36.4-39.4-4.3-5-6.8-11.6-9.9-17.7-1.6-3.2-3.5-5.9-6.7-7.7-1.1-.6-1.7-2.2-2.2-3.5-.9-2.1-1.3-4.5-2.5-6.4-5.2-8.2-9-16.8-11.3-26.4-1.4-5.9-4.6-11.3-6.9-17-.5-1.1-1-2.4-.9-3.6 1.1-14-1.7-27.6-4.3-41.2-.8-4.3-.8-8.2.4-12.4 1.1-3.8 1.4-7.9 1.6-11.8.3-5.6-.3-11.2.1-16.8.8-11.1-4.6-19.5-11.2-27.4-1.4-1.6-2.9-3.1-4.4-4.5-6.1-5.7-6.8-12.3-4.2-20 2.1-6.4 7.3-10 12.5-11.7 4.5-1.4 10.7-1.7 15 3 3 3.3 6.1 6.6 9.5 9.4s4.7 6.2 4.8 10.4c0 1.2.3 2.8 1.1 3.5 3.3 3 3.4 6.8 3.3 10.8 0 1.3.4 3.1 1.3 3.9 2.2 1.9 2.5 3.7 1.4 6.3-.5 1.2-.3 3.3.5 4.2 3.5 3.9 3.7 8.5 2.7 13.1-1.6 7.4-3.7 14.8-5.4 22.2-.4 1.5-.5 3.2-.3 4.7.9 6 2.2 11.9 3.1 17.8.2 1.3-.4 2.7-.8 4-.7 2.1-2.3 4.1-2.2 6.1.3 5.1-1.2 9.5-3.3 14-.6 1.4-.8 3.3-.5 4.8 2 11.3 4.1 22.6 6.3 33.9.2.9.9 1.8 1.6 2.5 2 2 4.2 3.8 6.7 5.9z"/></svg>