<svg enable-background="new 0 0 400 400" viewBox="0 0 400 400" xmlns="http://www.w3.org/2000/svg"><path d="m320.1 111.7v.5c2.6 4 3.2 7.8.7 12.2-2.1 3.7-2.7 8.3-7 10.5-6.9 3.5-9.9 9.4-11 16.8-1 6.8-2.6 13.5-4.7 20-1.2 3.9-4 7.3-5.9 11.1-.9 1.7-1.7 3.6-1.8 5.5-.5 5.2-.2 10.4-.9 15.5-.6 4.1-2.5 8.1-3.3 12.2-2.3 10.9-4.5 21.9-6.4 32.9-.5 3.2-.2 6.6.6 9.8 1 4.1 1.9 9.1 4.7 11.7 6 5.6 12.7 11.4 21.9 10.7 11.5-.8 22.9-2 34.4-3 8.6-.7 15.6 1.9 20.3 9.6 1 1.7 1.1 2.9-.1 4.5-3.4 4.6-6.5 9.4-9.8 14-.6.9-1.8 1.6-2.9 1.9-3.8.9-7.7 1.2-11.3 2.4-10.4 3.3-20.5 7.7-31.6 7.5-2.7-.1-5.4-1.3-8.1-2-6-1.6-10.2-5.3-13.7-10.4-4.2-6.2-9-12-13.5-18.1-.8-1.1-1.5-2.4-1.6-3.7-.9-8.1-1.5-16.2-2.4-24.3-.7-6.2.3-12.2 2.3-18.1 2.1-6.2 4.6-12.3 6.2-18.6 1.5-5.8 2.1-11.8 3-17.7.2-1.4.3-2.7.3-4.1.2-5.2 1.5-9.9 4.1-14.6 2.4-4.5 2.9-10 3.7-15.2.8-4.8.8-9.7 1.7-14.5.5-2.8 2-5.5 3.3-8.2 2-4.2 4.2-8.3 6.3-12.4.4-.8 1-1.8.9-2.7-.7-5.6 1.8-10.3 3.7-15.2.6-1.6 1-3.2 1.8-4.7 4.1-7.5 2.4-14.7-1.3-21.8-1.4-2.8-3-5.7-3.8-8.7-1.2-4.4 2.4-7.8 7-7 4.4.8 8.8 1.4 13.1 2.1 1.1.2 2.3.4 3.4.7 7.2 1.8 8.3 3.5 9.6 10.7 1 5.5-.9 10.4-3.3 14.8-1.3 2.5-4.6 4-6.9 5.9-.6.6-1.2 1.1-1.7 1.5z"/><path d="m90.4 282.4c2.5 3.4 3.1 7.2 2.7 11.2-.2 1.5-.6 2.9-.9 4.3-1.3 8.5-5.2 15.2-12.8 19.6-3.2 1.8-6.1 4.2-9 6.5-3.1 2.4-6.7 2.9-10.2 1.8-3.9-1.2-7.6-3-11.4-4.6-.5-.2-1-.5-1.3-.9-5.5-8.7-13-16.3-14.9-27-.2-1-.5-2.2-.1-3.1 4.1-10.3 4.1-21.3 6.5-31.9 2.5-11 5.7-21.8 8.8-32.7 1.9-6.6 4.4-13 5.9-19.7 1.6-6.9 2-14 3.4-20.9 2.2-11.1 5.2-22 11-31.9.5-.8.9-1.8 1.7-2.3 3.9-2.3 4-5.9 4-9.9-.2-10.2-.2-20.3 0-30.5.1-4.5-.5-8.8-2.6-12.9-.8-1.5-1.3-3.1-2-4.8 3-2.1 6-4.1 9-6.1.5-.3 1.1-.6 1.7-.7 7.6-1.1 16.7 4.5 19 11.9 1.8 5.8 3.3 11.6 4.8 17.4.2.9 0 2.5-.6 3-4.8 4-6.9 9.4-7.8 15.2-1.9 11.6-6.3 21.9-12.9 31.6-11.1 16.4-18.1 34.9-23.3 53.9-3.4 12.5-6 25.3-9 37.9-1.5 6.4-3.3 12.7-4.8 19-.4 1.7-.4 3.6-.4 5.4 0 8.6 4.6 13.5 13.3 14.3 7.1.7 13.6-1.3 19.6-5 4.2-2.6 8.4-5.4 12.6-8.1z"/><path d="m209.3 270.2c.2 2.2.4 4.2.7 6.2.4 3.4.3 6.3-2.6 9.1-1.7 1.7-2.3 4.9-2.7 7.5-1.2 7.1-3.5 10.1-10.6 10.1-7.7.1-15.4-1-23-1.6-.8-.1-1.7-.8-2.3-1.4-3.1-3.2-6.1-6.4-9-9.8-.8-.9-1.2-2.2-1.4-3.4-1-7.7-1.8-15.3-2.8-23-.1-1-.3-2.2-.9-3-2.9-4-3-8.6-2.8-13.3 1.5-32.1 7.3-63.4 16.2-94.2 1.6-5.7 3.6-11.3 5.1-17 1.7-6.4 1-12.8-.6-19.1-1.4-5.6-2.9-11.3-3.8-17-.8-4.7 3.4-9.2 8.2-8.9 4.5.2 9.1.7 13.5 1.6 5.2 1.1 8.3 8.5 5 12.4-6 6.8-7.6 15-8.5 23.4-1.2 10.8-3.3 21.4-9.7 30.4-6.4 8.9-7.3 19.4-8.8 29.7-.9 6.4-1.9 12.8-2.6 19.2-.2 1.8 0 4.1.9 5.6 2 3.1 1.6 5.8.5 9.2-4.9 14.5-4 29.1.5 43.6 2.1 6.5 7.3 9.4 13.4 10.6 3.1.6 6.3.4 9.5.7 2.2.2 3.8-.7 5.3-2.2 3.3-3.9 7.6-6.1 13.3-5.4z"/></svg>