<svg enable-background="new 0 0 400 400" viewBox="0 0 400 400" xmlns="http://www.w3.org/2000/svg"><path d="m374.8 390.4.4-.4c.7.5 1.3 1 1.8 1.4l-.5.5c-.5-.6-1.1-1.1-1.7-1.5zm1 7.3-.6-.3c.5-1.4 1.1-2.8 1.5-4.3.2.1.4.2.6.3-.5 1.3-1 2.8-1.5 4.3zm-.4-10.3.4-.4c.4.3 1 .8 1.7 1.4l-.5.5c-.4-.5-1-1-1.6-1.5zm2.5.3h1.7v-1h.6v1h3.5v-1h.6v1h1.8v.5h-1.8v1.4h-2v1h3.2v2h-3.2v.9h3.3v.5h-3.4c0 .3-.1.6-.1.9h4v.5h-3.7c.7.9 1.9 1.5 3.8 1.7-.1.2-.2.4-.3.6-2.1-.4-3.5-1.1-4-2.1-.4 1-1.8 1.7-4 2.2-.1-.2-.2-.4-.3-.6 2.1-.4 3.4-1 3.8-1.8h-3.4v-.5h3.6c.1-.3.1-.6.2-.9h-3.3v-.5h3.4c0-.3 0-.6 0-.9h-3.2v-2h3.3v-1h-2.1v-1.4h-1.7v-.5zm1.1 3.5v1h2.7c0-.3 0-.4 0-.4 0-.1 0-.2 0-.2 0-.1 0-.2 0-.3h-2.7zm1.2-3v.9h3.5v-.9zm4.7 3h-2.6v.6.4h2.6z" fill="#fbfcfa"/><path d="m393.6 386.7h.6v1.5h2.7v6.1h1.1v.6h-11v-.6h1.1v-6.1h2.7v-1.5h.6v1.5h2.1v-1.5zm-2.7 8.8.4.6c-1.2.6-2.5 1.3-3.8 1.9-.1-.2-.2-.4-.3-.6 1.2-.6 2.5-1.2 3.7-1.9zm-2.2-6.7v2.4h2.1v-2.4zm0 3v2.5h2.1v-2.5zm2.8-3v2.4h2.1v-2.4zm0 3v2.5h2.1v-2.5zm6 6.1c-1.4-.7-2.7-1.3-3.9-1.8l.3-.6c1.5.6 2.7 1.2 3.9 1.7zm-1.2-9.1h-2.1v2.4h2.1zm-2.1 3v2.5h2.1v-2.5z" fill="#fbfcfa"/><g fill="#010101"><path d="m134.56 24.74c.8 1.01 1.63 2 2.39 3.04 1.29 1.76 2.3 3.82 3.88 5.24 1.61 1.44 2.42 2.79 1.91 4.89-.19.76-.21 1.56-.39 2.32-1.35 5.46-.63 10.29 2.77 15.11 4.23 6 3.41 13.01 2.12 19.81-.5 2.66.16 4.66 1.25 7.16 2.07 4.72 3.84 9.91 4.16 15 .63 9.92-.21 19.93.28 29.87.72 14.45-3.29 27.58-9.76 40.2-.15.3-.25.65-.47.89-10.05 11.16-14.64 25.51-22.3 38.06-3.87 6.34-5.91 12.87-5.06 20.31.27 2.32.21 4.71.01 7.04-.45 5.07 1.31 9.47 3.06 14.14 1.67 4.44 1.43 9.58 2.19 14.39.3 1.89 1.03 3.72 1.59 5.57.13.42.53.79.56 1.19.27 4 .72 8 .63 11.99-.06 2.67-.16 4.98 2.23 6.87.93.74 1.3 2.26 1.76 3.49 6.57 17.42 8.24 35.87 11.57 53.99 1.12 6.1 4.69 11.73 6.95 17.64 1.02 2.67 1.77 5.49 2.23 8.31.17 1.07-.81 2.33-1.27 3.5-1.27-.49-2.87-.66-3.72-1.55-1.44-1.5-2.83-3.3-3.49-5.24-1.71-4.97-4.31-9.36-7.91-13.09-3.74-3.87-5.71-8.39-6.34-13.66-.55-4.59-1.63-8.96-5.22-12.36-.87-.82-1.18-2.37-1.47-3.65-2.71-11.89-5.34-23.79-4.36-36.14.09-1.11-.45-2.39-1.02-3.42-1.24-2.25-2.54-4.49-4.06-6.56-2.89-3.93-4.82-7.93-2.86-12.95.35-.9-.04-2.22-.38-3.24-4.72-14.18-4.4-28.88-4.61-43.53-.01-.83.21-1.89.73-2.48 3.99-4.55 5.46-10.18 7.08-15.77.56-1.93 1.38-3.79 1.86-5.73.84-3.4 2.82-5.6 6.06-6.98 1.22-.52 2.31-1.73 3.09-2.88 6.21-9.17 12.78-18.15 18.27-27.73 2.56-4.46 3.98-10.12 4.16-15.29.33-9.67-.45-19.4-1.08-29.08-.67-10.37-1.66-20.72-2.63-31.07-.23-2.41-.97-4.76-1.47-7.14-1.02-4.9-1.62-9.93-3.15-14.66-3.59-11.06-1.32-22.17-.9-33.27.02-.66.13-1.33.2-1.99.3-.19.62-.38.93-.56z"/><path d="m266.42 35.72c1.67 1.16 3.5 2.16 4.96 3.55 1.01.96 1.91 2.35 2.21 3.7 3.65 16.3 12.52 30.53 18.15 46.05 1.42 3.92 1.6 7.72.81 11.83-1.03 5.33-1.48 10.77-2.15 16.16-.63 5.18-1.04 10.39-1.87 15.53-1 6.22-2.33 12.21-1.78 18.76.44 5.31-1.96 10.9-3.31 16.31-1.09 4.34-3.44 7.99-7.19 10.56-7.67 5.26-10.74 13.74-15.27 21.25-4.11 6.82-5.87 13.97-6.03 21.87-.14 6.89-1.56 13.75-1.83 20.65-.23 5.8.49 11.62.58 17.44.04 2.29-.54 4.59-.7 6.9-.08 1.19-.1 2.48.26 3.6 1.76 5.47 2.86 11.01 2.44 16.8-.07.94.07 2.15.61 2.84 3.04 3.84 3.25 8.46 1.88 12.48-3.85 11.28-.94 22.05 1.25 32.96.15.75.21 1.51-.47 2.52-.65-1.98-1.54-3.92-1.91-5.95-.51-2.79-1.73-4.9-3.91-6.75-4.26-3.63-5.53-9.6-3.09-14.7.83-1.74.55-2.66-.48-4.1-1.2-1.68-1.92-3.74-2.71-5.68-.42-1.02-.44-2.2-.81-3.25-2.11-5.96-4.82-11.77-6.27-17.88-1.42-6.01-1.59-12.32-2.29-18.51-.12-1.1-.21-2.22-.19-3.33.27-10.85.54-21.7.9-32.55.04-1.25.51-2.54.98-3.72 1.61-3.99 3.31-7.94 4.97-11.9 1.5-3.57 2.39-7.58 4.59-10.63 6.13-8.51 12.48-16.91 19.36-24.82 8.05-9.26 12.28-19.26 9.56-31.67-.53-2.4-.22-5.11.24-7.57 1.66-8.81 1.73-17.55-.33-26.31-.32-1.37-.48-2.92-.19-4.28 1.46-7.03 1.1-13.89-.71-20.87-2.2-8.5-3.63-17.19-5.71-25.72-.73-2.99-2.73-5.67-3.55-8.65-1.09-3.92-1.59-8.01-2.34-12.02.47-.31.91-.6 1.34-.9z"/><path d="m206.13 80.88c1.48 1.57 3.14 3 4.41 4.72 4.13 5.61 5.12 12.28 6.08 18.94.81 5.64 1.76 11.27 2.61 16.91.17 1.1.63 2.49.17 3.3-3.76 6.64-.75 13.35-.32 20 .19 3.03.8 5.92-1.08 8.71-.71 1.06-1.12 2.53-1.11 3.82.02 6.77-2.67 12.55-5.96 18.25-1.42 2.46-2.33 5.3-3 8.09-1.31 5.44-2.38 10.95-5.85 15.54-6.26 8.26-7.46 18.18-9.61 27.89-1.66 7.49-1.38 14.75-.31 22.22.42 2.9-.39 6.21-1.46 9.03-1.96 5.19-2.96 10.26-1.07 15.64.18.52.36 1.19.18 1.64-.35.88-.95 1.66-1.45 2.48-.87-.78-2.56-1.69-2.47-2.33 1.14-7.99-3.25-14.38-5.59-21.4-1.06-3.18-.66-6.97-.38-10.45.68-8.36 1.65-16.7 2.56-25.04.13-1.2.5-2.4.93-3.54 2.88-7.75 5.66-15.54 8.8-23.19 1.37-3.33 3.74-6.25 5.23-9.54 1.73-3.82 3.02-7.84 4.42-11.8.63-1.78.61-3.96 1.66-5.39 5.48-7.44 5.7-16.27 7.19-24.83 2.2-12.66-1.57-24.61-3.61-36.81-1.22-7.31-1.8-14.73-2.67-22.1.56-.27 1.13-.51 1.7-.76z"/></g></svg>