<svg enable-background="new 0 0 400 400" viewBox="0 0 400 400" xmlns="http://www.w3.org/2000/svg"><g fill="#010104"><path d="m128.39 26.17c6.87.1 13.4 1.72 19.75 4.31 15.4 6.29 30.86 12.42 46.21 18.85 2.43 1.02 5.17 2.78 6.36 4.96 3.89 7.13 7.29 14.54 10.57 21.97 2.97 6.74 5.26 13.78 8.37 20.45 2.98 6.37 4.94 12.88 5.59 19.86 1.71 18.4 3.33 36.84.77 55.25-1 7.24-2.93 14.45-5.27 21.4-3 8.88-6.65 17.56-10.38 26.17-2.18 5.02-3.08 10.16-3.61 15.53-1.43 14.57-3.2 29.11-4.68 43.67-.21 2.12.06 4.48.8 6.46 4.81 12.76 9.53 25.56 14.91 38.07 1.59 3.7 4.99 6.74 7.93 9.72 3.13 3.18 6.74 5.88 10.06 8.88 3.36 3.04 6.1 6.51 7.16 11.09.64 2.74-.07 4.92-2.94 5.21-3.34.35-6.88.54-10.1-.22-3.87-.92-7.49-2.86-11.18-4.46-.89-.38-1.76-1.01-2.39-1.74-16-18.85-28.35-39.59-33.42-64.14-3.82-18.48-2.41-36.69 2.55-54.76 6.65-24.22 11.32-48.83 12.86-73.89.96-15.62 1.56-31.37.55-46.95-.83-12.9-7.28-24.18-16.86-33.07-10.42-9.66-21.1-19.05-31.97-28.21-4.15-3.49-8.97-6.27-13.76-8.88-6.22-3.36-8.85-7.99-7.88-15.53z"/><path d="m62.17 48.12c5.65 2.07 11.08 4.09 16.53 6.06 10.72 3.86 21.46 7.66 32.16 11.59 1.39.51 2.83 1.37 3.81 2.47 8.07 8.98 15.94 18.14 24.04 27.09 11.44 12.63 18.05 27.33 19.42 44.32 1.99 24.59.2 48.79-8.62 72.02-3.24 8.53-7.55 16.67-11.77 24.79-5.91 11.38-9.59 23.32-10.5 36.11-.06.88-.13 1.82.09 2.66 3.55 13.73 6.54 27.64 10.92 41.1 3.52 10.79 8.49 21.13 13.32 31.43 2.06 4.39 5.46 8.15 8.12 12.27 1.74 2.7 3.61 5.4 4.75 8.36.63 1.62.56 4.81-.42 5.48-1.8 1.23-4.82 2.04-6.79 1.38-5.32-1.77-10.29-4.02-13.83-9.2-6.74-9.88-14.57-19.01-21.37-28.86-5.48-7.93-7.78-17.32-9.34-26.7-2.7-16.21-5.12-32.48-7.24-48.78-.46-3.5.57-7.29 1.39-10.84 4.45-19.32 11.19-37.91 18.22-56.41 5.91-15.53 8.78-31.61 8.44-48.28-.3-14.43-5.01-27.46-15.09-37.37-13.83-13.64-28.91-26.01-43.58-38.79-2.42-2.11-5.39-3.59-8.13-5.32-6.72-4.26-8.03-8.73-4.53-16.58z"/><path d="m226.81 24.89c8.26.51 15.93.45 22.47 5.19 16.39 11.85 34.09 21.87 48.99 35.81 13.75 12.87 17.62 26.89 11.23 44.6-1.03 2.86-3.29 5.26-4.93 7.91-5.47 8.89-7.11 18.95-8.83 29-3.08 17.99-5.69 36.02-6.27 54.3-.65 20.38 3 40.12 8.86 59.47 5.09 16.78 10.65 33.42 16.11 50.1.5 1.52 1.54 2.97 2.65 4.15 6.82 7.22 12.97 14.88 15.88 24.56 1.08 3.58 1.45 7.38 2.31 11.89-5.78-1.83-10.76-3.29-15.63-5.04-.96-.35-1.6-1.76-2.25-2.78-18.44-28.53-31.56-59.58-43.52-91.23-3.43-9.08-3.96-18.53-5.38-27.89-1.41-9.29-2.28-18.66-3.86-27.92-1.45-8.46.12-16.74.8-25.06 1.77-21.75 3.79-43.48 5.72-65.21.13-1.45.11-2.93.43-4.34 2.33-10.31-.91-19.33-6.12-28.01-5.15-8.59-12.1-15.45-19.73-21.77-6.68-5.53-12.78-11.62-16.35-19.71-1.07-2.38-1.63-4.99-2.58-8.02z"/></g><path d="m385.2 377.6.6-.7c.6.4 1.3.9 1.9 1.5l-.6.7c-.8-.5-1.4-1-1.9-1.5zm.3 7.1c.6-1.4 1.1-2.9 1.5-4.5.3.1.6.3.9.4-.5 1.4-1 2.9-1.5 4.4zm.2-10.1.6-.6c.7.5 1.3 1.1 1.9 1.6l-.7.7c-.6-.6-1.2-1.2-1.8-1.7zm8.4-.8h.8v.9h1.8v.7h-1.8v1.8h-.8v-.3h-1.2v.9h3.3v2.6h-.8v-.4h-2.5c0 .3 0 .6-.1.8h3.4v.7h-3.5c0 .3-.1.6-.1.8h4v.7h-3.5c.7.9 1.9 1.3 3.6 1.5-.2.2-.4.5-.6.9-1.9-.3-3.2-1.1-3.8-2.3-.5 1.1-1.8 2-3.9 2.4-.2-.3-.4-.5-.6-.8 1.9-.4 3.1-.9 3.6-1.7h-3.2v-.7h3.5c.1-.2.1-.5.2-.8h-3.3v-.7h3.4c0-.2 0-.5 0-.8h-2.4v.3h-.8v-2.6h3.3v-.9h-1.2v.3h-.8v-1.8h-1.8v-.7h1.8v-.9h.8v.9h3.2zm-4.4 5.5h2.4c0-.3 0-.6 0-.9h-2.4zm1.2-3.1h3.2v-.8h-3.2zm4.4 2.2h-2.4v.9h2.5v-.9z" fill="#fcfbfa"/><path d="m389.2 385.8h.9v1.5h1.9v-1.5h.9v1.5h2.7v6h1.1v.9h-11.3v-.9h1.1v-6h2.7zm.2 8.7.5.8c-1.2.6-2.5 1.3-4 1.9-.2-.3-.3-.6-.6-.8 1.6-.6 3-1.3 4.1-1.9zm-2-4.3h1.9v-2.1h-1.9zm0 3.1h1.9v-2.2h-1.9zm2.7-3.1h1.9v-2.1h-1.9zm0 3.1h1.9v-2.2h-1.9zm2.4 1.3c1.4.6 2.7 1.2 4.1 1.8l-.5.9c-1.5-.7-2.8-1.4-4.1-1.9zm2.2-6.5h-1.9v2.1h1.9zm-1.9 5.2h1.9v-2.2h-1.9z" fill="#fcfbfa"/></svg>