<svg enable-background="new 0 0 400 400" viewBox="0 0 400 400" xmlns="http://www.w3.org/2000/svg"><path d="m374.8 390.4.4-.4c.7.5 1.3 1 1.8 1.4l-.5.5c-.5-.6-1.1-1.1-1.7-1.5zm1 7.3-.6-.3c.5-1.4 1.1-2.8 1.5-4.3.2.1.4.2.6.3-.5 1.3-1 2.8-1.5 4.3zm-.4-10.3.4-.4c.4.3 1 .8 1.7 1.4l-.5.5c-.4-.5-1-1-1.6-1.5zm2.5.3h1.7v-1h.6v1h3.5v-1h.6v1h1.8v.5h-1.8v1.4h-2v1h3.2v2h-3.2v.9h3.3v.5h-3.4c0 .3-.1.6-.1.9h4v.5h-3.7c.7.9 1.9 1.5 3.8 1.7-.1.2-.2.4-.3.6-2.1-.4-3.5-1.1-4-2.1-.4 1-1.8 1.7-4 2.2-.1-.2-.2-.4-.3-.6 2.1-.4 3.4-1 3.8-1.8h-3.4v-.5h3.6c.1-.3.1-.6.2-.9h-3.3v-.5h3.4c0-.3 0-.6 0-.9h-3.2v-2h3.3v-1h-2.1v-1.4h-1.7v-.5zm1.1 3.5v1h2.7c0-.3 0-.4 0-.4 0-.1 0-.2 0-.2 0-.1 0-.2 0-.3h-2.7zm1.2-3v.9h3.5v-.9zm4.7 3h-2.6v.6.4h2.6z" fill="#fbfcfa"/><path d="m393.6 386.7h.6v1.5h2.7v6.1h1.1v.6h-11v-.6h1.1v-6.1h2.7v-1.5h.6v1.5h2.1v-1.5zm-2.7 8.8.4.6c-1.2.6-2.5 1.3-3.8 1.9-.1-.2-.2-.4-.3-.6 1.2-.6 2.5-1.2 3.7-1.9zm-2.2-6.7v2.4h2.1v-2.4zm0 3v2.5h2.1v-2.5zm2.8-3v2.4h2.1v-2.4zm0 3v2.5h2.1v-2.5zm6 6.1c-1.4-.7-2.7-1.3-3.9-1.8l.3-.6c1.5.6 2.7 1.2 3.9 1.7zm-1.2-9.1h-2.1v2.4h2.1zm-2.1 3v2.5h2.1v-2.5z" fill="#fbfcfa"/><g fill="#010101"><path d="m137.38 375.06c-.61-.97-1.39-1.87-1.79-2.91-5.99-15.41-11.94-30.84-17.84-46.29-.41-1.07-.8-2.57-.37-3.47 1.47-3.08.74-5.77-.66-8.56-3.73-7.4-3.1-15.71-4.85-23.52-1.24-5.54-.17-10.51 1.85-15.62 1.03-2.6 1.44-5.61 1.39-8.42-.14-9.19 2.95-17.62 6.01-25.98 3.86-10.59 8.5-20.89 12.44-31.45 1.98-5.3 2.97-10.97 4.78-16.34.89-2.63 2.73-4.93 3.97-7.45.74-1.5 1.78-3.23 1.62-4.74-1.03-9.55-.81-18.94 2.09-28.19.32-1.02.18-2.61-.42-3.43-9.14-12.27-14.51-26.38-19.92-40.48-5.66-14.76-9.84-29.92-12.38-45.53-.93-5.71.37-10.84 3.58-15.88 4.44.92 6.76 4.14 8.17 7.95 1.65 4.5 2.62 9.25 4.25 13.75 1.66 4.59 3.77 9.03 5.7 13.52.57 1.33 1.53 2.6 1.72 3.98.99 7.36 4.77 13.37 8.83 19.31.92 1.35 1.49 2.99 1.96 4.58 2.89 9.73 6.04 19.34 7.68 29.46 1.08 6.72 3.94 13.32 6.9 19.54 4.17 8.74 3.04 17.16.02 25.67-5.41 15.22-12.26 29.78-21.43 43.11-3.06 4.45-4.09 9.32-5.21 14.31-.39 1.74-.64 3.58-1.4 5.15-4.58 9.47-5.89 19.63-6.55 29.93-1.47 22.97.14 45.65 7.59 67.56 2.16 6.37 4.93 12.49 4.81 19.33-.07 3.61-.67 7.2-1.03 10.8-.52.11-1.01.21-1.51.31z"/><path d="m280.29 355.29c-8.22 1.01-10.58-2.81-11.21-9.93-.23-2.6-.56-5.53-1.91-7.63-8.5-13.31-12.46-28.17-14.84-43.46-1.34-8.57-1.6-17.33-1.93-26.01-.09-2.24 1.55-4.49 2.06-6.81.43-1.94 1.04-4.27.37-5.94-1.81-4.52-2.34-8.77.32-13.06 2.49-4.02 1.95-8.41 1.44-12.72-.54-4.58-.03-8.81 2.29-12.89 7.27-12.78 9.48-27.14 12-41.28.77-4.32-.69-9.07-1.3-13.6-3.22-24.16-7.22-48.18-12.22-72.04-1.57-7.48-2.08-15.08-.43-22.65.38-1.73 1-3.41 1.77-6 1.76 1.8 3.36 2.98 4.32 4.55s1.73 3.51 1.81 5.32c.74 16.01 6.15 31.07 9.22 46.6 3.23 16.33 6.53 32.64 9.74 48.97.27 1.38.35 2.92.03 4.27-4.59 19.57-9.21 39.13-13.93 58.68-1.26 5.21-2.38 10.52-4.38 15.46-3.48 8.55-3.46 17.24-2.24 26.06 1.66 11.96 3.39 23.91 5.38 35.81.48 2.9 1.71 5.84 3.25 8.37 2.87 4.72 2.84 9.63 2.4 14.84-.22 2.65.23 5.53 1.12 8.05 2.05 5.72 4.53 11.3 6.87 17.04z"/><path d="m193.52 84.7c-5.96-4.15-5.57-11.17 1.86-19.84 1.5 2.08 3.15 3.93 4.32 6.05 3.39 6.15 6.67 12.37 9.78 18.66.64 1.29.73 3.12.43 4.56-2.41 11.73.06 23.05 2.3 34.49 2.42 12.37 5.64 24.75 4.4 37.51-.67 6.86-2.31 13.63-3.56 20.43-.14.74-.52 1.5-.98 2.1-8.76 11.4-11.9 24.86-14.13 38.62-.97 5.96-1.64 11.96-2.45 17.94-1.19 8.79-.38 17.34 2.51 25.77 1.1 3.22 1.66 6.73 1.82 10.13.17 3.72-2.02 6.59-4.3 6.75-2.21.16-6.61-3.64-7.04-6.27-2.26-13.79-4.47-27.58-6.69-41.37-.14-.88-.19-1.78-.38-2.66-1.25-5.87-1.05-11.4 2.53-16.64 1.24-1.81 1.36-4.38 2.06-6.58 1.88-5.94 3.14-12.17 5.82-17.72 5.35-11.08 9.1-22.59 11.08-34.65.54-3.28.45-7.22-.89-10.15-6.09-13.37-6.68-27.7-8.16-41.89-.41-3.9-.78-7.64-3.8-10.74-.96-.99-.86-3.32-.76-5 .42-6.51.49-6.5 4.23-9.5z"/><path d="m155.46 39.55c1.28-4.16 2.38-8.39 3.91-12.45.73-1.94 2.6-1.91 4.21-.76 1.63 1.16 3.37 2.25 4.71 3.7 5 5.42 8.31 11.85 10.65 18.8 1.23 3.64 1.09 7.18-.64 10.71-1.27 2.6-2.13 5.4-3.34 8.03-1.09 2.37-2.89 4.21-5.68 3.87-2.76-.34-5.31-1.12-6.46-4.38-3.12-8.87-5.95-17.78-6.53-27.25-.27-.09-.55-.18-.83-.27z"/><path d="m159.15 285.6c0 8.94-.03 17.88.02 26.81.01 1.62-.17 3.1-2.12 2.95-1.2-.09-2.77-.57-3.44-1.44-2.11-2.74-3.09-5.96-2.11-9.44 1.01-3.56.38-6.7-1.48-9.91-3.5-6.06-4.38-12.56-2.43-19.39 2.26-7.91 3.02-16.02 2.44-24.2-.19-2.71 1.13-4.24 3.26-4.55 1.14-.17 3.29 1.14 3.7 2.26 1.39 3.81 2.88 7.79 3.1 11.78.46 8.35.14 16.75.14 25.13-.36 0-.72 0-1.08 0z"/><path d="m222.32 250.43c-4.55-6.2-5.84-12.96-4.8-20.14.81-5.62 1.6-11.33 3.31-16.72 1.66-5.24 4.3-10.2 6.88-15.08.6-1.14 3.24-2.42 4.06-1.98 2.01 1.07 3.14 3.1 1.26 5.56-1.69 2.2-1.59 4.5-.67 7.2.89 2.61 1.38 5.65 1.01 8.36-.99 7.27-2.19 14.56-3.96 21.67-1.05 4.23-3.07 8.32-7.09 11.13z"/><path d="m244.2 131.54c-5.79.41-6.16.3-7.24-4.7-2.07-9.61-4.5-19.25-2.78-29.17.61-3.51 2.21-6.85 3.56-10.87 5.53 4.74 7.43 10.31 8.49 16.11.48 2.61-.22 5.45-.49 8.18-.47 4.73-1.09 9.45-1.51 14.19-.19 2.08-.03 4.2-.03 6.26z"/></g></svg>