<svg enable-background="new 0 0 400 400" viewBox="0 0 400 400" xmlns="http://www.w3.org/2000/svg"><g fill="#fbfafa"><path d="m37.59 393.81c-.92.31-1.52.05-2-.78-.7-1.2-1.52-2.34-2.47-3.78v4.59c-.55.03-.95.05-1.41.07-.03-.37-.06-.64-.06-.91 0-1.91 0-3.81 0-5.7 1.13-.41 1.77-.03 2.29.91.62 1.11 1.38 2.14 2.31 3.19v-4.2h1.35v6.61z"/><path d="m12.94 393.88v-6.75c1.9.19 3.93-.54 5.37 1.29.8 1.01.78 2.88.03 3.97-1.37 1.97-3.4 1.51-5.4 1.49m1.45-1.22c2.04.12 2.92-.58 2.89-2.21-.03-1.51-.98-2.19-2.89-2z"/><path d="m11.81 393.87h-5.49c.68-2.18 2.47-3.48 3.51-5.45h-3.08v-1.21h5.29c-.71 2.13-2.44 3.48-3.47 5.51.86 0 1.63.04 2.39-.01.79-.05 1.14.21.85 1.16"/><path d="m39.33 393.86v-6.61h3.7v1.07h-2.22v1.52c.68.04 1.34.09 2.07.13v1.07c-.72.05-1.38.09-2.1.14v1.48h2.4v1.19h-3.85z"/><path d="m27.71 388.56c-1.15-.3-2.46-.61-3.1.64-.37.73-.41 1.93-.06 2.67.63 1.35 1.99.93 3.17.68.35.94-.01 1.32-.93 1.46-1.62.25-3.05-.27-3.76-1.48-.73-1.24-.6-3.03.31-4.17.88-1.11 2.71-1.7 4-1.16.32.13.44.74.65 1.12-.1.08-.19.16-.28.24"/><path d="m49.15 387.24v1.07c-.59.02-1.17.05-1.87.08v5.44h-1.48v-5.44h-1.85c-.05-.4-.08-.73-.13-1.15z"/><path d="m20.06 387.21h1.33v6.62h-1.33z"/><path d="m30.68 393.25c-.49.38-.8.79-1.05.76-.32-.05-.6-.45-.9-.7.26-.24.51-.64.8-.67.29-.04.62.3 1.15.61"/></g><path d="m82.53 340.83c8.24-4.6 15.78-9.96 24.16-13.11 6.96-2.62 14.86-3.05 22.4-3.73 11.35-1.02 22.78-1.15 34.12-2.19 4.13-.38 8.26-1.94 12.16-3.54 10.12-4.17 16.06-11.48 15.8-22.88-.25-10.95-.33-21.91-1.04-32.83-1.01-15.61-.79-31.07 2.91-46.36.31-1.3.16-3.27-.64-4.19-9.78-11.48-14.12-25.16-15.17-39.76-.88-12.24-.47-24.58-.44-36.87.03-12.93-.53-25.8-5.34-37.96-2.03-5.13-5.14-9.87-8.06-14.6-3.12-5.04-8.36-6.12-13.82-6.85-16.93-2.27-33.45-.18-49.75 4.4-9.24 2.59-18.31 5.94-27.67 7.97-20.32 4.41-38.41-3.73-48.9-21.49 10.37-5.58 21.26-8.84 33.05-7.16 12.73 1.81 25.37 2.69 37.98-.5 2.9-.73 5.71-1.91 8.5-3.02 10.27-4.11 20.48-8.37 30.79-12.36 1.93-.75 4.36-1.05 6.36-.62 23.91 5.15 48.15 5.54 72.46 5.42 16.65-.08 33.33-.25 49.94.66 15.02.83 29.63 4.32 43.19 11.27 1.45.74 2.86 1.77 3.94 2.98 12.52 14.03 25 28.09 37.38 42.24.89 1.01 1.43 2.79 1.31 4.14-.6 6.57-1.58 13.1-2.19 19.67-.14 1.52.35 3.32 1.11 4.66 4.44 7.77 8.97 15.48 13.6 23.13 13.77 22.78 16.63 47.12 10.17 72.67-4.88 19.31-11.43 38.07-19.62 56.26-2 4.44-4.73 7.94-8.43 10.98-18.52 15.21-39.16 27.06-60.28 38.14-14.18 7.44-28.81 13.72-44.23 18.24-11.64 3.41-23.2 3.98-35.08 1.66-7.12-1.39-14.36-2.27-21.59-3.02-2.67-.28-5.6.03-8.16.86-14.1 4.62-28.45 7.95-43.32 8.28-13.88.31-27.35-2.44-40.53-6.61-.8-.25-1.65-1.12-2-1.91-1.74-3.87-3.3-7.82-5.07-12.07zm152.18-29.5c6.79-.3 13.25-.47 19.68-.89 24.23-1.6 45.44-10.15 62.7-27.6.87-.88 1.66-2.17 1.81-3.36 1.4-11.09 3.53-22.18 3.75-33.3.41-21.01.08-42.07-.67-63.07-.67-18.71-3.31-37.2-9.8-54.94-5.48-15-13.45-28.26-26.56-37.88-1.3-.95-2.93-1.77-4.5-1.97-18.86-2.41-37.8-4.33-56.59-7.19-6.8-1.03-11.45 2.17-16.94 4.61.44 1.05.69 1.78 1.04 2.47 13.42 26.05 19.83 54.1 22.78 82.96 2.28 22.37 3.98 44.82 5.06 67.27.83 17.19.49 34.45.26 51.67-.07 6.88-1.27 13.75-2.02 21.22z" fill="#010000"/></svg>