<svg enable-background="new 0 0 400 400" viewBox="0 0 400 400" xmlns="http://www.w3.org/2000/svg"><g fill="#fcfafa"><path d="m342.2 3.2-6.3 9.2h6.1v1.2h-8.2v-.5l6.2-9.1h-5.7v-1.2h7.8v.4z"/><path d="m344 13.7v-10.9h3.1c1.6 0 3 .5 4.1 1.4 1.1 1 1.6 2.2 1.6 3.9s-.5 3-1.6 4-2.5 1.5-4.2 1.5h-3zm1.4-9.6v8.4h1.6c1.4 0 2.5-.4 3.2-1.1.8-.8 1.2-1.8 1.2-3.2s-.4-2.4-1.2-3.1-1.8-1-3.1-1z"/><path d="m356.3 2.8v10.9h-1.4v-10.9z"/><path d="m366.6 13.2c-.8.4-1.8.6-3 .6-1.6 0-2.8-.5-3.7-1.5s-1.4-2.3-1.4-3.9c0-1.7.5-3.2 1.6-4.2s2.4-1.6 4-1.6c1 0 1.9.1 2.6.4v1.5c-.8-.4-1.6-.6-2.6-.6-1.2 0-2.2.4-3 1.2s-1.1 1.9-1.1 3.3c0 1.3.4 2.3 1.1 3.1s1.6 1.1 2.8 1.1c1.1 0 2-.2 2.8-.7v1.3z"/><path d="m368.2 13c0-.3.1-.5.3-.6.2-.2.4-.3.6-.3.3 0 .5.1.7.3s.3.4.3.6-.1.5-.3.6c-.2.2-.4.3-.7.3s-.5-.1-.6-.3c-.2-.2-.3-.4-.3-.6z"/><path d="m381.1 13.7h-1.7l-5.5-8.4c-.2-.2-.3-.5-.4-.7 0 .2.1.8.1 1.5v7.6h-1.4v-10.9h1.8l5.3 8.3c.3.4.4.6.4.8 0-.3-.1-.8-.1-1.6v-7.5h1.4v10.9z"/><path d="m389.7 13.7h-5.8v-10.9h5.6v1.2h-4.2v3.5h3.9v1.2h-3.9v3.7h4.4z"/><path d="m398.4 4.1h-3.1v9.6h-1.4v-9.6h-3.1v-1.3h7.7v1.3z"/></g><path d="m90.56 374.25c-.09-3.45 1.24-5.06 3.97-6.31 15.46-7.05 30.89-14.16 46.15-21.61 3.94-1.92 7.22-5.17 10.85-7.76 14.56-10.39 28.96-21.02 43.77-31.05 8.16-5.53 15.33-11.81 21.3-19.64 7.27-9.53 15.22-18.45 24.67-25.97 4.81-3.82 8.25-8.79 10.1-15.03-5.23-3.93-11.38-4.9-17.39-3.42-16.33 4.01-32.87 3.09-49.4 3.15-9.52.03-19.03.11-28.54-.09-1.64-.03-3.67-.92-4.82-2.09-7.61-7.74-15.04-15.66-22.51-23.53-1.06-1.12-2.08-2.27-2.93-3.19-6.12 7.79-11.8 15.38-17.86 22.65-6.92 8.3-15.83 12.89-27.07 13.15-.74-2.75-1.58-5.4-2.11-8.11-.15-.76.38-1.91.97-2.52 24.07-25.14 40.79-55.07 55.75-86.08 1.89-3.91 1.97-8.65 3.21-12.92.95-3.28 2.01-6.64 3.7-9.57 4.28-7.43 7.88-14.95 8.19-23.78.1-2.68 1.72-5.29 2.36-7.99.6-2.53 1.41-5.21 1.11-7.7-1.5-12.55-3.26-25.06-5.11-37.56-.23-1.56-1.27-3.25-2.42-4.37-5.87-5.69-12.56-17.58-8.13-27.23 4.53.18 9.29.66 12.7 3.92 9.88 9.46 22.19 14.49 34.46 19.64 8.59 3.6 16.5 8.1 21.99 15.87 1.28 1.81 2.05 4.13 2.51 6.33.45 2.16 1.17 3.52 3.36 4.39 7.68 3.07 15.36 6.16 22.86 9.64 7.58 3.52 15.1 7.22 22.36 11.35 10.48 5.97 21 11.97 30.93 18.78 5.54 3.8 9.98 9.23 14.77 14.07.93.94 1.42 2.52 1.68 3.88 3.17 16.58 6.39 33.15 9.26 49.78.54 3.16-.14 6.61-.68 9.86-.87 5.17-2.11 10.28-3.16 15.43-1.08 5.29-.54 10.4 1.32 15.49.37 1.01-.48 2.9-1.35 3.86-14.19 15.69-28.64 31.14-42.62 47.01-3.61 4.09-5.92 9.37-8.59 14.23-1.09 1.99-2.2 3.46-4.55 3.93-5.34 1.06-9.43 4.03-13.12 8.04-6.36 6.91-13.1 13.49-19.76 20.12-1.65 1.64-3.49 3.15-5.47 4.37-12.46 7.71-24.98 15.31-37.48 22.95-1.81 1.11-3.99 1.9-5.36 3.41-5.22 5.77-12.32 7.06-19.28 9.18-7.98 2.44-15.58 6.07-23.48 8.8-10.92 3.77-21.99 7.05-33.79 5.58-2.43-.29-4.81-.87-7.32-1.34zm74.81-215.14c-.43.35-.74.52-.93.77-8.4 11.31-16.81 22.62-25.14 33.98-.56.77-.69 2.01-.68 3.02.07 5.84 2.96 9.19 8.87 9.85 1.55.17 3.04.74 4.59.95 8.63 1.17 17.3 2.11 25.91 3.46 12.01 1.89 23.93 4.51 35.99 5.98 6.89.84 14.14.83 20.56-2.9 2.14-1.24 4.03-1.12 6.35-.57 11.69 2.76 22.55.36 32.66-5.83 1.16-.71 2.42-1.94 2.77-3.18 2.13-7.43 3.73-14.98 2.94-22.8-.71-7.09-4.92-11.05-12.02-10.7-3.52.18-7.09.96-10.48 2.01-15.4 4.77-30.94 8.88-46.99 10.67-4.24.47-8.46 1.61-12.87-.11-6.52-2.54-11.4-6.91-15.66-12.21-4.28-5.3-9.44-9.48-15.87-12.39zm102.68-14.26c-.94-2.5-1.53-4.54-2.44-6.42-4.38-9.05-12.14-14.29-21.27-17.27-6.38-2.08-12-5.31-17.63-8.7-1.72-1.04-3.41-2.15-5.19-3.07-1.06-.54-2.26-.95-3.44-1.11-5.21-.69-10.43-1.26-15.65-1.89-3.86-.47-9.56 2.84-11.07 6.42-1.82 4.32-3.97 8.52-5.46 12.95-1.12 3.3-1.7 6.85-2.01 10.33-.21 2.36 1.2 3.96 3.74 4.83 8.04 2.75 16.25 3.91 24.73 3.58 6.59-.26 13.19-.55 19.78-.48 10.62.12 21.23.54 31.84.83 1.19.03 2.38 0 4.07 0z" fill="#010103"/></svg>