<svg enable-background="new 0 0 400 400" viewBox="0 0 400 400" xmlns="http://www.w3.org/2000/svg"><path d="m374.8 390.4.4-.4c.7.5 1.3 1 1.8 1.4l-.5.5c-.5-.6-1.1-1.1-1.7-1.5zm1 7.3-.6-.3c.5-1.4 1.1-2.8 1.5-4.3.2.1.4.2.6.3-.5 1.3-1 2.8-1.5 4.3zm-.4-10.3.4-.4c.4.3 1 .8 1.7 1.4l-.5.5c-.4-.5-1-1-1.6-1.5zm2.5.3h1.7v-1h.6v1h3.5v-1h.6v1h1.8v.5h-1.8v1.4h-2v1h3.2v2h-3.2v.9h3.3v.5h-3.4c0 .3-.1.6-.1.9h4v.5h-3.7c.7.9 1.9 1.5 3.8 1.7-.1.2-.2.4-.3.6-2.1-.4-3.5-1.1-4-2.1-.4 1-1.8 1.7-4 2.2-.1-.2-.2-.4-.3-.6 2.1-.4 3.4-1 3.8-1.8h-3.4v-.5h3.6c.1-.3.1-.6.2-.9h-3.3v-.5h3.4c0-.3 0-.6 0-.9h-3.2v-2h3.3v-1h-2.1v-1.4h-1.7v-.5zm1.1 3.5v1h2.7c0-.3 0-.4 0-.4 0-.1 0-.2 0-.2 0-.1 0-.2 0-.3h-2.7zm1.2-3v.9h3.5v-.9zm4.7 3h-2.6v.6.4h2.6z" fill="#fbfcfa"/><path d="m393.6 386.7h.6v1.5h2.7v6.1h1.1v.6h-11v-.6h1.1v-6.1h2.7v-1.5h.6v1.5h2.1v-1.5zm-2.7 8.8.4.6c-1.2.6-2.5 1.3-3.8 1.9-.1-.2-.2-.4-.3-.6 1.2-.6 2.5-1.2 3.7-1.9zm-2.2-6.7v2.4h2.1v-2.4zm0 3v2.5h2.1v-2.5zm2.8-3v2.4h2.1v-2.4zm0 3v2.5h2.1v-2.5zm6 6.1c-1.4-.7-2.7-1.3-3.9-1.8l.3-.6c1.5.6 2.7 1.2 3.9 1.7zm-1.2-9.1h-2.1v2.4h2.1zm-2.1 3v2.5h2.1v-2.5z" fill="#fbfcfa"/><path d="m126.82 246.1c6.02-1.43 11.55-3.29 17.23-3.97 10.65-1.28 21.37-1.86 32.07-2.77 7.35-.63 14.7-1.32 22.51-2.03 0-1.33 0-2.51 0-3.69 0-15.33-.11-30.67.09-46 .04-3.22-1.12-4.68-4.01-4.7-7.8-.06-15.64-.35-23.4.23-12.28.92-24.38 3.08-36.2 6.71-1.22.38-2.69.4-3.95.15-5.71-1.16-10.74-3.79-15.09-7.62-1.31-1.15-2.44-2.66-3.26-4.21-2.38-4.48-1.62-6.18 3.08-7.71 3.08-1 6.14-2.07 9.25-2.99 3.09-.92 5.79-2.02 9.46-.28 2.83 1.34 7.02.48 10.44-.21 4.75-.97 9.42-1.59 14.25-.95 10.16 1.36 20.08-.83 29.94-2.51 7.98-1.36 15.77-3.9 23.6-6.06 6.77-1.87 10.31-7.55 14.23-12.66 10.34-13.45 11.79-28.68 8.16-44.62-1.73-7.6-4.44-14.97-6.63-22.47-.99-3.37-3.11-5.8-5.76-7.99-9.99-8.27-21.06-12.93-34.38-12.76-10.25.13-20.51-1.43-30.78-1.89-5.56-.25-11.16.09-16.73.39-5.68.31-9.91-2.54-10.18-8.27-.23-4.83.75-9.73 1.39-14.58.1-.75 1.16-1.67 1.97-1.99 3.21-1.25 6.43-2.8 9.78-3.31 14.45-2.2 28.92-2.36 43.42-.05 12.04 1.91 24.05 3.87 35.45 8.47 19.77 7.97 33.2 21.66 37.83 42.82 2.28 10.44 1.99 21.14.86 31.75-1.12 10.55-2.22 21.13-3.99 31.58-.7 4.13-3.13 7.97-4.86 11.9-.35.79-1.24 1.33-1.64 2.11-5.8 11.41-15.87 17.91-26.89 23.21-3.1 1.49-3.98 3.54-4.09 6.79-.58 16.4.64 32.62 3.96 48.7.47 2.27 1.61 3.23 3.56 3.82 8.47 2.59 17 2.43 25.52.38 8.04-1.94 15.96-2.75 23.31 2.05 2.58 1.69 4.81 3.91 7.49 6.14-4.78 4.95-9.99 8.59-16.2 9.59-8.45 1.37-17.07 1.63-25.61 2.47-3.98.39-8.01.72-11.87 1.67-4.41 1.09-6.49 4.32-6.71 8.89-1.34 27.27-2.53 54.55-4.2 81.79-.36 5.92-2.17 11.83-3.89 17.57-1.07 3.57-3.85 5.92-8.29 5.92-2.74-10.18-5.62-20.26-8.06-30.45-.53-2.21.4-4.85.93-7.23.83-3.7 1.01-7.36-.61-10.83-3.97-8.51-1.51-16.81.67-25.1.71-2.68.72-5.04-1.07-7.23-3.36-4.11-3.33-8.66-2.19-13.57 1.08-4.68 1.72-9.46 2.5-14.2.6-3.6-.49-5.49-4.15-6.16-2.36-.43-4.86.05-7.3-.02-3.77-.11-7.53-.49-11.29-.48-3.18.01-6.54-.17-9.52.72-14.12 4.23-25.84-.5-36.65-9.14-.68-.54-1.2-1.32-1.71-2.05-.52-.72-.9-1.5-1.79-3.07z" fill="#010101"/></svg>