<svg enable-background="new 0 0 400 400" viewBox="0 0 400 400" xmlns="http://www.w3.org/2000/svg"><g fill="#fafafb"><path d="m12.4 4.8-6.1 9h6v1.2h-8v-.5l6.1-8.9h-5.7v-1.2h7.6v.4z"/><path d="m14 15v-10.6h3c1.6 0 2.9.5 4 1.4s1.6 2.2 1.6 3.8-.5 3-1.6 3.9-2.4 1.5-4 1.5zm1.4-9.4v8.2h1.6c1.3 0 2.4-.4 3.1-1.1s1.1-1.8 1.1-3.1-.4-2.3-1.2-3-1.8-1-3.1-1z"/><path d="m26.1 4.4v10.6h-1.4v-10.6z"/><path d="m36.1 14.6c-.8.4-1.8.6-2.9.6-1.5 0-2.7-.5-3.6-1.4s-1.4-2.2-1.4-3.8c0-1.7.5-3.1 1.5-4.1s2.3-1.6 3.9-1.6c1 0 1.8.1 2.5.4v1.4c-.8-.4-1.6-.6-2.5-.6-1.2 0-2.1.4-2.9 1.2s-1.1 1.8-1.1 3.2c0 1.3.3 2.3 1 3s1.6 1.1 2.7 1.1c1 0 2-.2 2.7-.7v1.3z"/><path d="m37.6 14.3c0-.2.1-.5.3-.6s.4-.3.6-.3c.3 0 .5.1.6.3s.3.4.3.6-.1.4-.3.6-.4.3-.6.3c-.3 0-.5-.1-.6-.3s-.3-.4-.3-.6z"/><path d="m50.2 15h-1.6l-5.3-8.2c-.2-.2-.3-.5-.4-.7 0 .2.1.7.1 1.5v7.4h-1.4v-10.6h1.7l5.2 8.1c.2.4.4.6.4.7 0-.3-.1-.8-.1-1.5v-7.3h1.4z"/><path d="m58.6 15h-5.7v-10.6h5.5v1.2h-4.1v3.4h3.8v1.2h-3.8v3.6h4.3z"/><path d="m67.1 5.6h-3.1v9.4h-1.4v-9.4h-3v-1.2h7.5z"/></g><path d="m142.84 347.23c1.95-5.65 3.78-11.04 5.67-16.4.24-.69.68-1.52 1.27-1.86 10.78-6.15 18.99-15.26 27.29-24.17 9.29-9.98 18.18-20.34 27.19-30.58 2.57-2.92 2.81-6.18.81-9.62-7.72-13.23-15.56-26.39-23.2-39.67-3.01-5.23-5.62-10.68-8.4-16.03-.41-.79-.79-1.6-1.23-2.38-4.58-8.06-5.46-8.32-14.09-5.02-5.12 1.96-9.89 4.31-14.37 7.66-13.42 10.04-28.96 15.85-44.72 21-17.03 5.57-34.25 10.36-52.27 11.46-4.37.27-4.37.28-6.02-5.99 1.25-.52 2.53-1.11 3.85-1.59 23.13-8.32 46.27-16.62 69.41-24.94 1.26-.45 2.54-.91 3.7-1.56 28.94-16.53 57.92-32.97 86.75-49.69 11.36-6.59 20.59-15.7 28.68-26.03 3.09-3.94 6.59-7.58 10.05-11.21 13.94-14.6 22.05-31.73 21.73-52.12-.09-5.92-2.03-11.84-3.4-17.69-.27-1.16-1.68-2.31-2.85-2.96-14.67-8.15-30.19-9.92-46.4-5.81-14.73 3.74-29.7 6.83-44.07 11.66-11.68 3.93-22.86 9.58-33.86 15.24-14.11 7.25-27.67 15.58-41.78 22.84-9.8 5.05-20.52 7.45-32.14 7.9 0-2.89-.24-5.56.12-8.14.14-1.01 1.5-2.06 2.54-2.72 22.67-14.24 46.24-26.83 70.8-37.44 16.92-7.31 34.12-13.99 51.42-20.35 5.23-1.92 11.19-1.91 16.84-2.6 9.44-1.16 18.89-2.22 28.34-3.2 1.73-.18 3.58-.02 5.26.44 6.04 1.64 11.93 3.92 18.05 5.14 11.14 2.22 18.06 9.61 23.25 18.71 8.64 15.13 7.75 31.01 2.36 47.04-3.28 9.77-9.83 17.39-16.79 24.38-15.94 16.03-32.44 31.51-48.88 47.03-3.14 2.96-7.04 5.12-10.65 7.56-6.39 4.32-12.73 8.75-19.3 12.79-2.74 1.69-3.46 3.72-2.49 6.38 1.65 4.5 3.25 9.07 5.46 13.3 5.49 10.5 11.08 20.96 17.09 31.17 2.82 4.78 6.45 9.15 10.16 13.32 3.66 4.11 6.12 3.83 9.95.06 9.25-9.11 18.42-18.31 27.92-27.16 3.7-3.45 8.18-6.05 12.6-9.25 2.45 4.81 2.25 9 1.07 13.09-.99 3.42-2.38 6.75-3.91 9.96-.62 1.3-1.98 2.35-3.18 3.27-7.79 6-15.82 11.7-23.35 18-2.98 2.49-4.87 6.29-7.39 9.68 7.14 6.44 13.86 12.49 20.57 18.54 18.96 17.09 38.05 34.04 56.81 51.34 8.2 7.56 17.54 13.04 27.51 17.68 7.5 3.49 14.33 7.84 19.11 14.83.19.27.33.57.68 1.18-3.63 1.92-7.43 1.86-11.03.78-3.82-1.15-7.5-2.86-11.11-4.61-9.66-4.69-18.62-10.28-26.94-17.32-10.04-8.49-21.17-15.73-32.03-23.22-13.07-9.01-24.9-19.32-35.1-31.52-3.01-3.59-6.42-6.86-9.83-10.09-1.43-1.36-3.2-2.51-5.01-3.3-3.63-1.59-6.84-1.89-10.26 1.48-7.09 6.98-14.8 13.33-22.14 20.07-3.04 2.79-5.82 5.87-8.62 8.9-5.91 6.39-11.79 12.83-17.63 19.29-2.25 2.49-4.5 4.99-6.51 7.66-3.77 4.99-6.44 6.21-13.36 5.41z" fill="#010105"/></svg>