<svg enable-background="new 0 0 400 400" viewBox="0 0 400 400" xmlns="http://www.w3.org/2000/svg"><g fill="#fafafb"><path d="m12.4 4.8-6.1 9h6v1.2h-8v-.5l6.1-8.9h-5.7v-1.2h7.6v.4z"/><path d="m14 15v-10.6h3c1.6 0 2.9.5 4 1.4s1.6 2.2 1.6 3.8-.5 3-1.6 3.9-2.4 1.5-4 1.5zm1.4-9.4v8.2h1.6c1.3 0 2.4-.4 3.1-1.1s1.1-1.8 1.1-3.1-.4-2.3-1.2-3-1.8-1-3.1-1z"/><path d="m26.1 4.4v10.6h-1.4v-10.6z"/><path d="m36.1 14.6c-.8.4-1.8.6-2.9.6-1.5 0-2.7-.5-3.6-1.4s-1.4-2.2-1.4-3.8c0-1.7.5-3.1 1.5-4.1s2.3-1.6 3.9-1.6c1 0 1.8.1 2.5.4v1.4c-.8-.4-1.6-.6-2.5-.6-1.2 0-2.1.4-2.9 1.2s-1.1 1.8-1.1 3.2c0 1.3.3 2.3 1 3s1.6 1.1 2.7 1.1c1 0 2-.2 2.7-.7v1.3z"/><path d="m37.6 14.3c0-.2.1-.5.3-.6s.4-.3.6-.3c.3 0 .5.1.6.3s.3.4.3.6-.1.4-.3.6-.4.3-.6.3c-.3 0-.5-.1-.6-.3s-.3-.4-.3-.6z"/><path d="m50.2 15h-1.6l-5.3-8.2c-.2-.2-.3-.5-.4-.7 0 .2.1.7.1 1.5v7.4h-1.4v-10.6h1.7l5.2 8.1c.2.4.4.6.4.7 0-.3-.1-.8-.1-1.5v-7.3h1.4z"/><path d="m58.6 15h-5.7v-10.6h5.5v1.2h-4.1v3.4h3.8v1.2h-3.8v3.6h4.3z"/><path d="m67.1 5.6h-3.1v9.4h-1.4v-9.4h-3v-1.2h7.5z"/></g><path d="m234.21 238.81c-1.64-5.13-.18-9.37 1.54-13.7 3.33-8.38 9.11-15 14.83-21.73 4.06-4.77 7.01-10.13 7.37-16.55.06-1.07-.33-2.51-1.05-3.23-14.47-14.17-28.82-28.51-45.3-40.41-12.49-9.02-15.84-9.53-28.99-1.43-21.53 13.25-44.99 21.22-69.34 27.03-10.8 2.57-21.47 5.44-30.68 12.05-14.98 10.75-20.06 25.95-19.6 43.62.03.95.49 1.94.89 2.84 1.57 3.46 3.48 6.79 4.75 10.35 5.3 14.88 16.77 25.44 25.92 37.64 7.49 9.99 17.67 17.07 26.87 25.2 14.26 12.59 28.53 25.21 43.29 37.2 7.6 6.17 16.2 11.13 24.5 16.4 5.51 3.5 11.05 6.91 14.83 12.37 1.74 2.51 2.98 5.36 4.1 8.46-8.47-2.11-17.15-1.99-24.85-6.55-35.92-21.22-69.94-45.08-101.7-72.15-12.29-10.47-23.85-21.63-33.11-35.03-8.67-12.54-9.49-26.37-6.57-40.51 2.05-9.92 5.52-19.55 8.42-29.28.31-1.03.88-2.11 1.65-2.84 14.99-14.3 30.97-27.19 50.9-34.05 17.96-6.19 35.98-12.17 54.02-18.13 8.69-2.87 15.99-8.05 22.84-13.79 24.17-20.26 45.91-42.95 65.9-67.33.55-.67 1.02-1.42 1.69-2.37-4.68 0-9.07-.07-13.46.01-17.9.33-35.79.69-53.68 1.06-32.66.68-65.31 1.53-97.97 1.94-7.66.1-15.42-.87-23-2.12-9.32-1.54-14.58-7.8-15.6-17.59 6.21-.33 12.41-.7 18.6-.98 40.78-1.83 81.56-3.71 122.34-5.43 29.95-1.26 59.9-2.38 89.86-3.35 4.87-.16 9.9.18 14.62 1.27 7.63 1.76 11.09 12.14 6.53 18.51-.53.74-1.62 1.14-2.51 1.56-7.21 3.32-14.47 6.53-21.63 9.93-1.76.84-3.47 2.05-4.8 3.47-12.71 13.55-25.26 27.26-38.05 40.73-3.21 3.38-7.28 5.92-10.66 9.16-2.2 2.1-4.53 4.48-5.65 7.21-2.27 5.57-1.22 7.73 3.74 11.07 18.93 12.74 37.86 25.49 56.79 38.23 1 .67 2.03 1.29 3.31 2.1 4.7-8.4 9.27-16.57 13.85-24.75 3.5-6.27 7.14-12.43 12.83-17.05.43-.35.85-.73 1.31-1.05 7.04-5.01 11.59-3.48 12.9 5.15.79 5.21-.05 10.69-.43 16.03-.07.97-1.4 1.91-2.27 2.74-8.95 8.51-16.38 18.04-20.15 30.02-.13.43-.23.87-.34 1.3-1.48 5.48-1.3 5.27 3.03 8.8 14.64 11.95 29.32 23.86 43.61 36.22 5.98 5.17 10.73 11.64 13.81 19.17-3.36 2.27-6.71 2.64-10.33 1.15-5.19-2.14-9.85-4.81-14.01-8.84-11.17-10.81-22.56-21.5-36.25-29.18-4.16-2.33-8.79-3.81-13.2-5.69-1.88-.8-3.18-.3-4.63 1.22-7.27 7.6-14.53 15.22-22.1 22.51-5.47 5.24-12.09 8.77-19.53 11.39z" fill="#010105"/></svg>