<svg enable-background="new 0 0 400 400" viewBox="0 0 400 400" xmlns="http://www.w3.org/2000/svg"><path d="m5.17 384 .55-.58c.85.61 1.65 1.24 2.4 1.87l-.59.64c-.83-.73-1.62-1.38-2.36-1.93m1.22 9.53-.82-.34c.71-1.76 1.37-3.64 1.98-5.63.24.13.5.25.76.36-.6 1.67-1.24 3.54-1.92 5.61m-.5-13.5.57-.54c.56.44 1.31 1.06 2.26 1.87l-.64.64c-.68-.66-1.41-1.32-2.19-1.97m3.25.46h2.24v-1.36h.77v1.36h4.57v-1.36h.76v1.36h2.28v.69h-2.28v1.84h-2.64v1.26h4.18v2.64h-4.21c0 .45-.02.86-.05 1.21h4.32v.69h-4.38c-.04.34-.1.75-.19 1.22h5.15v.69h-4.82c.87 1.19 2.51 1.92 4.93 2.19-.17.31-.3.57-.37.76-2.77-.49-4.52-1.41-5.26-2.76-.56 1.26-2.3 2.23-5.24 2.9-.12-.24-.26-.48-.43-.72 2.73-.55 4.38-1.34 4.96-2.38h-4.38v-.69h4.65c.1-.38.17-.79.21-1.22h-4.32v-.69h4.4c.03-.34.05-.75.05-1.21h-4.2v-2.64h4.23v-1.26h-2.69v-1.84h-2.24zm1.46 4.46v1.29h3.45c.01-.4.02-.57.01-.53v-.32-.45h-3.46zm1.55-2.59h4.57v-1.19h-4.57zm6.11 2.59h-3.42v.77c-.01.19-.01.37-.02.53h3.44z" fill="#fafafc"/><path d="m32.63 379.16h.82v1.98h3.54v7.89h1.46v.78h-14.37v-.78h1.46v-7.89h3.54v-1.98h.82v1.98h2.73zm-3.49 11.48.5.73c-1.61.82-3.28 1.63-5 2.41-.13-.27-.28-.55-.44-.82 1.75-.72 3.4-1.49 4.94-2.32m-2.78-5.55h2.73v-3.18h-2.73zm0 3.95h2.73v-3.2h-2.73zm3.54-3.95h2.73v-3.18h-2.73zm0 3.95h2.73v-3.2h-2.73zm7.89 4.68c-1.84-.92-3.51-1.7-5.02-2.32l.45-.73c1.89.8 3.57 1.55 5.04 2.23zm-1.62-11.81h-2.73v3.18h2.73zm-2.73 7.13h2.73v-3.2h-2.73z" fill="#fafafc"/><g fill="#010101"><path d="m262.15 80.79c.98 4.45.45 6.94-1.8 9.55-12.81 14.85-24.52 30.51-34.55 47.41-5.41 9.12-7.97 18.72-7.33 29.42.4 6.6-.5 13.28-.83 20.33 5.72 1.55 12.22 2.93 19.03 2.09 2.39-.3 4.48-1.06 5.18-3.52 1.36-4.78 2.62-9.61 3.71-14.46 1.48-6.62 2.68-13.31 4.22-19.92.27-1.16 1.62-2.06 2.6-3.24 3.17 3.55 4.16 7.14 3.08 11.05-4.92 17.89-5.86 36.4-8.43 54.65-3.82 27.1.9 53.2 10.27 78.66 2.31 6.28 3.76 12.86 5.94 19.19 1.37 3.96 3.14 7.82 5.14 11.51 2.93 5.4 6.43 10.48 9.26 15.93 1.33 2.57 1.66 5.66 2.44 8.51-.39.31-.77.63-1.16.94-1.41-1.07-3.25-1.86-4.18-3.25-13.63-20.48-22.61-43.16-30.08-66.38-2.81-8.72-3.13-18.26-4.4-27.46-1.25-9.04-1.12-9.35-10.23-10.45-13.65-1.65-27.35-2.83-41.04-4.2-.65-.06-1.3-.01-2.21-.01-1.08 4.91-2.36 9.65-3.13 14.47-1.72 10.73-6.28 20.46-10.15 30.45-2.05 5.3-4.17 10.66-5.36 16.19-2.79 12.96-9.8 23.9-15.96 35.27-.48.88-1.08 1.7-1.53 2.6-6.54 12.93-15.69 23.51-27.87 31.48-3.06 2-5.65 4.71-8.47 7.1-1.35-2.24-.69-3.87.89-5.69 8.36-9.64 16.95-19.12 24.75-29.2 5.34-6.9 10.25-14.2 13.2-22.71 7.43-21.43 15.46-42.65 22.84-64.09 1.94-5.63 3.05-11.74 3.41-17.69 1.1-18.2 1.72-36.44 2.35-54.67.18-5.25-.28-10.51-.34-15.77-.04-3.66-.16-7.4 3.14-10.36 3.29 3.78 3.81 8.06 3.63 12.6-.17 4.33-.72 8.73-.18 12.99.76 5.99 3.62 8.46 9.67 8.53 4.89.05 9.81-.67 14.68-1.29.68-.09 1.54-1.43 1.73-2.32 1.62-7.61.39-15.13-.94-22.64-.41-2.31-1.04-4.59-1.37-6.91-1.49-10.3-5.7-19.21-12.15-27.47-11.15-14.28-21.72-29.01-32.32-43.7-2.7-3.74-4.62-8.05-6.87-12.05 4.68-3.03 4.7-3.04 7.52.65 11.84 15.45 23.62 30.95 35.53 46.35 1.77 2.29 4.15 4.11 6.24 6.15.5-.15 1-.29 1.51-.44.69-3.65 2.19-7.36 1.94-10.94-2.04-28.79 2.44-57.47 1.33-86.23-.02-.63.12-1.28.21-2.13 3.63 1.11 4.31 4 4.46 6.87.22 4.35-.06 8.72-.01 13.09.25 23.15.54 46.3.82 69.46.01.78-.02 1.65.29 2.32.87 1.86 1.91 3.63 2.89 5.44 1.42-1.05 3.06-1.9 4.22-3.19 7.81-8.63 15.57-17.31 23.23-26.07 1.9-2.18 3.2-4.89 5.11-7.06 1.69-1.95 3.84-3.48 6.43-5.74zm-23.94 136.03c0-4.14-.36-8.32.1-12.41.46-4.07-1.59-5.61-4.89-6.06-5.97-.81-11.97-1.69-17.97-1.88s-11.98-1.35-18 1.77c-4.93 2.55-7.94 5.3-8.13 11.05-.19 5.78-1.06 11.54-1.43 17.32-.14 2.23.6 3.97 3.47 4.24 5.22.5 10.39 1.67 15.62 2 9.35.59 18.73.77 28.1 1.12 2.39.09 3.31-.88 3.2-3.41-.22-4.55-.08-9.15-.07-13.74z"/><path d="m203.01 255.12c.19 3.48.68 6.97.51 10.42-.36 7.58-1.31 15.14-1.54 22.72-.19 6.26 2.06 8.67 8.23 9.73 3.07.53 6.26.44 9.32 1.03 3.4.66 5.26-.93 5.86-3.82.84-4 1.21-8.1 1.68-12.17.62-5.39 1.05-10.8 1.79-16.18.2-1.44 1.25-2.76 1.94-4.2.38.32.65.45.65.57-.5 21.17 1.74 42.21 3.45 63.26.4 4.93-2.36 8.73-3.3 13.11-2.17 10.1-19.5 18.04-28.79 12.87-4.23-2.35-7.84-5.82-11.64-8.9-.42-.34-.39-1.44-.32-2.16 1.03-10.68 2.28-21.34 3.12-32.04.64-8.12.63-16.3 1.16-24.43.55-8.45 1.4-16.88 2.12-25.32.24-2.77 1.45-4.58 5.76-4.49zm7.67 90.13c2.59-.57 5.37-.74 7.72-1.84 1.97-.93 4.45-2.66 4.95-4.51 1.91-7.07 3.33-14.3 4.49-21.54.58-3.6-1-6.75-4.12-8.99-5.74-4.13-16.34-4.71-22.28-1.09-.52.32-1.09.91-1.23 1.47-2.04 8.62-4.11 17.39-1.88 26.17 2.39 9.43 3.76 9.87 12.35 10.33z"/></g></svg>