<svg enable-background="new 0 0 400 400" viewBox="0 0 400 400" xmlns="http://www.w3.org/2000/svg"><path d="m5.17 384 .55-.58c.85.61 1.65 1.24 2.4 1.87l-.59.64c-.83-.73-1.62-1.38-2.36-1.93m1.22 9.53-.82-.34c.71-1.76 1.37-3.64 1.98-5.63.24.13.5.25.76.36-.6 1.67-1.24 3.54-1.92 5.61m-.5-13.5.57-.54c.56.44 1.31 1.06 2.26 1.87l-.64.64c-.68-.66-1.41-1.32-2.19-1.97m3.25.46h2.24v-1.36h.77v1.36h4.57v-1.36h.76v1.36h2.28v.69h-2.28v1.84h-2.64v1.26h4.18v2.64h-4.21c0 .45-.02.86-.05 1.21h4.32v.69h-4.38c-.04.34-.1.75-.19 1.22h5.15v.69h-4.82c.87 1.19 2.51 1.92 4.93 2.19-.17.31-.3.57-.37.76-2.77-.49-4.52-1.41-5.26-2.76-.56 1.26-2.3 2.23-5.24 2.9-.12-.24-.26-.48-.43-.72 2.73-.55 4.38-1.34 4.96-2.38h-4.38v-.69h4.65c.1-.38.17-.79.21-1.22h-4.32v-.69h4.4c.03-.34.05-.75.05-1.21h-4.2v-2.64h4.23v-1.26h-2.69v-1.84h-2.24zm1.46 4.46v1.29h3.45c.01-.4.02-.57.01-.53v-.32-.45h-3.46zm1.55-2.59h4.57v-1.19h-4.57zm6.11 2.59h-3.42v.77c-.01.19-.01.37-.02.53h3.44z" fill="#fafafc"/><path d="m32.63 379.16h.82v1.98h3.54v7.89h1.46v.78h-14.37v-.78h1.46v-7.89h3.54v-1.98h.82v1.98h2.73zm-3.49 11.48.5.73c-1.61.82-3.28 1.63-5 2.41-.13-.27-.28-.55-.44-.82 1.75-.72 3.4-1.49 4.94-2.32m-2.78-5.55h2.73v-3.18h-2.73zm0 3.95h2.73v-3.2h-2.73zm3.54-3.95h2.73v-3.18h-2.73zm0 3.95h2.73v-3.2h-2.73zm7.89 4.68c-1.84-.92-3.51-1.7-5.02-2.32l.45-.73c1.89.8 3.57 1.55 5.04 2.23zm-1.62-11.81h-2.73v3.18h2.73zm-2.73 7.13h2.73v-3.2h-2.73z" fill="#fafafc"/><g fill="#010101"><path d="m129.83 300.56c-3.13 8.26-4.18 16.56-4.42 24.96-.23 7.83 0 15.67-.01 23.5-.01 6.2-.79 12.28-3.47 17.96-1.7 3.6-4.12 6.58-8.24 8.25-3.16-6.56-4.11-13.4-4.26-20.3-.15-7.26.83-14.57.35-21.8-.53-8.09-1.99-16.13-3.33-24.15-1.01-6-5.63-8.3-10.98-9.23-2.38-.41-4.9-.26-7.34-.08-9.56.73-13.11-2.16-14.16-11.98 6.68-.46 13.35-.94 20.02-1.38 5.25-.34 10.49-.73 15.74-.9 2.26-.07 3.27-1.06 3.35-3.17.12-3.13.39-6.27.26-9.39-.43-10.4-1.08-20.78-1.49-31.18-.14-3.55-1.57-5.28-5.16-6.01-5.04-1.02-9.96-1.18-14.94.02-10.86 2.61-15.92-1.78-15.17-13.48 7.83-.8 15.71-1.62 23.59-2.42 2.45-.25 4.91-.73 7.35-.63 3.57.14 5.64-1.67 6.26-4.78.98-4.9 1.63-9.89 2.14-14.87.81-8.1 1.16-16.25 2.18-24.31.43-3.35 2.09-6.55 3.37-10.36 5.48 5.22 8.45 11.22 10.45 17.78 2.58 8.48 1.33 16.57-2.61 24.37-1.25 2.48-2.2 5.18-.27 7.58 1.05 1.3 2.88 2.65 4.44 2.76 11.71.82 23.47 1.01 35.16 2.04 13.58 1.19 27.08 3.38 40.67 4.43 5.57.43 11.29-.87 16.92-1.56 5.21-.64 10.4-1.54 15.61-2.24 1.07-.14 2.27-.09 3.28.24 8.64 2.88 17.48 3.32 26.48 2.58 4.56-.38 9.17-.48 13.75-.41 2.04.03 3.36-.67 3.79-2.47 1.24-5.18 2.89-10.37 3.25-15.64.45-6.55-.45-13.19-.36-19.78.09-6.5.78-12.96 5.35-18.57 3.77 1.77 7.57 3.37 11.13 5.38.85.48 1.32 2.38 1.28 3.6-.5 13.53-1.17 27.06-1.72 40.58-.24 6.02 2.13 9.38 7.86 11.5 3.99 1.48 4.5 2.5 4.09 6.69-.47 4.73-2.23 8.64-6.52 10.97-6.89 3.74-8.54 9.36-8.33 17.08.58 21.14.15 42.31.23 63.46.03 6.93.55 13.86.54 20.79 0 6.58-3.45 9.14-9.84 7.46-1.14-.3-2.46-1.48-2.93-2.58-3.3-7.68-3.26-15.87-3.53-24.05-.17-4.99-.96-9.98-1.82-14.92-.53-3.03-2.48-4.44-5.9-4.58-38.77-1.6-77.54-3.35-116.31-5.09-11.83-.49-23.67-1.09-35.78-1.67zm158.85-60.81c-11.37.61-22.33.87-33.23 1.85-16.65 1.51-33.22 1.83-49.86-.26-17.51-2.21-35.06-4.24-52.64-5.77-7-.61-14.61-2.74-20.85 2.86-1.18 1.06-2.39 2.65-2.58 4.13-1.05 7.98-1.81 16-2.64 24.01-.55 5.29-1.05 10.59-1.59 16.11 5.86.27 11.33.4 16.77.81 6.98.53 14.13.53 20.86 2.18 5.26 1.29 10.13 1.71 15.42.91 6.95-1.05 14.01-2.39 20.96-2.08 10.03.44 19.97 2.51 29.99 3.39 14.47 1.26 28.96 2.26 43.46 2.99 5.11.26 9.93-1.72 13.85-5.11 1.15-1 2.16-2.87 2.18-4.36.17-12.76.1-25.52.09-38.28.03-.99-.09-1.96-.19-3.38z"/><path d="m304.17 68.81c1.97 2.85 2.67 5.62.58 8.49-9.41 12.91-18.55 26.05-28.41 38.62-5.36 6.83-12.63 11.65-21.3 13.86-.97.25-1.92.59-2.87.93-6.1 2.16-12.11 4.23-18.85 3.57-4.44-.44-8.12 5.97-6.15 10.09.31.65 1.34 1.18 2.13 1.35 4.46 1 8.95 1.87 13.43 2.79 1.09.22 2.53.13 3.18.8 1.46 1.49 2.91 3.22 3.64 5.13.86 2.26-.37 4.14-2.7 4.96-4.28 1.5-8.51 3.21-12.9 4.28-3.99.98-5.17 1.83-5.19 5.97-.01 1.89.34 3.77.48 5.66.28 3.56 1.44 6.18 5.4 7.31 3.21.92 5.09 3.43 4.97 7.12-.12 3.63-1.26 6.14-4.91 7.83-9.89 4.57-19.61 3.44-29.35-.08-2.82-1.02-5.52-2.42-8.17-3.86-.84-.46-1.65-1.51-1.91-2.44-1.47-5.29-1.43-5.37 3.66-7.66 3.16-1.42 6.36-2.77 9.63-3.87 2.85-.96 4.11-2.78 4.29-5.68.46-7.68-.63-9.5-7.97-11.97-3.06-1.03-6.24-1.7-9.41-2.34-7.84-1.59-10.46-5.33-9.09-14.01 6.3-.18 12.73-.42 19.17-.52 5.77-.1 7.38-1.52 6.47-7.3-.69-4.37-2.26-8.61-3.53-12.88-.2-.68-.82-1.36-1.43-1.79-12.55-8.87-22.5-20.41-32.87-31.55-6.01-6.46-12.92-12.08-18.99-18.49-4.27-4.5-8.14-9.48-11.6-14.64-2.75-4.1-2.92-8.99-1.76-14.21 7.48 3.78 15.3 6.05 20.54 13.38 7.93 11.09 16.51 21.75 25.26 32.21 3.76 4.49 8.51 8.2 13.08 11.93 1.91 1.56 4.52 2.28 7.11 3.53 3.1-5.79 4.39-11.73 4.05-17.7-.53-9.35-1.77-18.67-2.91-27.98-1.31-10.73-1.89-21.4 1.04-31.97.17-.62.46-1.21.74-1.94 5.71.97 9.57 4.21 10.55 9.54 1.31 7.11 2.21 14.38 2.32 21.6.26 16.89-.12 33.8-.12 50.7 0 6.41 5.78 11.1 13.07 10.35 10.44-1.08 19.88-5.47 28.71-10.67 4.03-2.37 6.71-7.1 9.83-10.9 3.56-4.32 6.86-8.84 10.41-13.17 5.08-6.22 10.94-11.46 18.65-14.38z"/></g></svg>