<svg enable-background="new 0 0 400 400" viewBox="0 0 400 400" xmlns="http://www.w3.org/2000/svg"><g fill="#fcfafa"><path d="m342.2 3.2-6.3 9.2h6.1v1.2h-8.2v-.5l6.2-9.1h-5.7v-1.2h7.8v.4z"/><path d="m344 13.7v-10.9h3.1c1.6 0 3 .5 4.1 1.4 1.1 1 1.6 2.2 1.6 3.9s-.5 3-1.6 4-2.5 1.5-4.2 1.5h-3zm1.4-9.6v8.4h1.6c1.4 0 2.5-.4 3.2-1.1.8-.8 1.2-1.8 1.2-3.2s-.4-2.4-1.2-3.1-1.8-1-3.1-1z"/><path d="m356.3 2.8v10.9h-1.4v-10.9z"/><path d="m366.6 13.2c-.8.4-1.8.6-3 .6-1.6 0-2.8-.5-3.7-1.5s-1.4-2.3-1.4-3.9c0-1.7.5-3.2 1.6-4.2s2.4-1.6 4-1.6c1 0 1.9.1 2.6.4v1.5c-.8-.4-1.6-.6-2.6-.6-1.2 0-2.2.4-3 1.2s-1.1 1.9-1.1 3.3c0 1.3.4 2.3 1.1 3.1s1.6 1.1 2.8 1.1c1.1 0 2-.2 2.8-.7v1.3z"/><path d="m368.2 13c0-.3.1-.5.3-.6.2-.2.4-.3.6-.3.3 0 .5.1.7.3s.3.4.3.6-.1.5-.3.6c-.2.2-.4.3-.7.3s-.5-.1-.6-.3c-.2-.2-.3-.4-.3-.6z"/><path d="m381.1 13.7h-1.7l-5.5-8.4c-.2-.2-.3-.5-.4-.7 0 .2.1.8.1 1.5v7.6h-1.4v-10.9h1.8l5.3 8.3c.3.4.4.6.4.8 0-.3-.1-.8-.1-1.6v-7.5h1.4v10.9z"/><path d="m389.7 13.7h-5.8v-10.9h5.6v1.2h-4.2v3.5h3.9v1.2h-3.9v3.7h4.4z"/><path d="m398.4 4.1h-3.1v9.6h-1.4v-9.6h-3.1v-1.3h7.7v1.3z"/></g><path d="m79.86 318.08c3.83-11.07 7.56-22.17 11.51-33.19 5.58-15.57 11.97-30.88 16.76-46.68 2.92-9.63 3.79-19.94 4.99-30.01 1.26-10.6.64-21.24-1.23-31.76-.44-2.51-1.07-5.04-2.02-7.39-4.1-10.03-8.36-20-12.54-30-.42-1.01-.76-2.05-1.29-3.47 4.22-.96 7.89.09 10.85 2.45 6.72 5.36 13 11.27 19.74 16.6 5.84 4.62 8.55 10.34 7.96 17.71-.07.88.06 1.79.19 2.68.84 5.53 3.5 7.82 8.92 6.62 9.59-2.13 19.05-4.84 28.6-7.14 6.28-1.51 12.33-3.24 18.23-6.21 10.2-5.14 21.61-6.49 32.84-7.52 15.13-1.39 30.32-2.22 45.5-3.03 3.03-.16 4.51-1.38 4.43-4.03-.2-6.45-.47-12.91-1.23-19.31-.44-3.73-1.71-7.4-2.97-10.97-.44-1.26-1.81-2.33-2.99-3.17-2.99-2.14-5.17-1.4-7.88 1.29-10.61 10.5-23.46 17.84-36.64 24.56-2.54 1.29-5.57 1.6-8.33 2.51-5.61 1.86-11.54 3.15-16.67 5.9-6.4 3.43-12.78 3.64-19.48 2.43-17.46-3.15-33.62-10.2-49.23-18.13-12.46-6.33-23.21-15.54-32.52-26.04-3.23-3.64-5.02-8.55-7.46-12.89.31-.42.62-.84.93-1.27 2.29.75 4.85 1.07 6.8 2.33 5.02 3.25 10.24 6.14 14.66 10.43 6.19 6.02 14.27 9.1 22.45 11.61 9.08 2.78 18.23 5.34 27.3 8.16 2.86.89 5.58 2.25 8.33 3.48 1.73.78 3.34 1.82 5.08 2.58 5.67 2.46 9.05.98 10.87-4.8 2.45-7.79 2.97-15.84 2.53-23.91-.74-13.74-1.98-27.46-2.65-41.21-.22-4.53.71-9.12 1.1-13.68.56-6.52-.57-12.4-5.78-17.04-2.66-2.37-4.96-5.15-7.55-7.88 1.81-2.54 3.72-3.76 6.98-2.37 7.7 3.29 15.53 6.29 23.27 9.5 1.53.64 2.9 1.68 4.31 2.58 3.55 2.26 5.75 5.04 5.94 9.69.39 9.7.65 19.47 4.05 28.79.27.75.19 1.88-.19 2.58-3.01 5.61-2.41 11.41-1.11 17.28 1.18 5.34-.35 10.42-1.58 15.52-1.08 4.52-.88 8.64 3.64 12.02 10.91-9.57 22.13-18.82 32.57-28.88 3.78-3.64 6.02-9.07 8.34-13.98 2.32-4.9 2.05-5.15-2.33-8.42-2.18-1.62-3.62-3.45-2.85-6.18.24-.84 1.42-1.92 2.25-2 2.66-.26 5.37-.21 8.05-.04 1.01.07 2.08.65 2.94 1.26 4.83 3.43 9.51 7.08 14.43 10.37 5.08 3.4 8.36 7.89 10.08 13.73.53 1.81.14 2.82-1.08 4.08-3.65 3.77-7.3 7.57-10.65 11.6-1.59 1.92-2.5 4.4-3.82 6.8 6.8 4.97 13.25 9.77 19.82 14.4 1.75 1.23 2.36 2.56 2.44 4.67 1.4 35.56 2.7 71.13 4.53 106.67.32 6.22 3.16 12.27 4.43 18.48 2.58 12.58 5.01 25.19 7.23 37.84.57 3.24.09 6.66.09 10.29-2.4.41-4.44.76-6.92 1.19-8.6-20.99-17.18-41.93-25.88-63.16-1.53.46-2.9.82-4.23 1.27-20.41 6.96-40.71 14.26-61.27 20.73-7.91 2.49-16.37 3.51-24.67 4.39-4.31.46-5.72 2.5-6.67 5.37-.71 2.17 2.19 7.47 4.65 8.18 4.59 1.33 9.26 3.07 13.95 3.26 11.6.47 23.23.15 35.32.15 1.32-4.14 2.85-8.78 4.22-13.46.17-.6-.35-1.55-.81-2.14s-1.26-.9-1.89-1.37c-2.4-1.8-5.12-4.07-3.74-7.1.84-1.83 3.89-3.37 6.12-3.63 2.69-.32 6.02.11 8.25 1.52 6.12 3.89 11.85 8.41 17.66 12.78 1.5 1.13 2.88 2.51 4.06 3.98 3.23 4.03 4.69 7.94 2.06 13.4-6.15 12.78-11.65 25.88-17.14 38.96-2.23 5.31-6.3 9.03-10.32 12.58-9.97 8.79-19.92 17.73-30.76 25.36-13.04 9.18-28.2 9.75-43.54 7.37-.64-.1-1.42-.26-1.84-.69-7.01-7.07-14.5-13.85-16.47-24.3-.56-2.96-.72-5.99-1.1-8.98-.61-4.75-1.52-9.48-1.8-14.25-.22-3.63.2-7.32.58-10.96.7-6.56 1.66-13.09 2.33-19.66.16-1.57-.15-3.29-.67-4.8-1.79-5.25-3.55-10.53-5.74-15.62-1.09-2.53-2.57-5.67-4.76-6.8-5.09-2.64-10.7-4.33-16.18-6.12-.77-.25-2.49.82-3.03 1.72-5.41 9.13-10.93 18.21-15.88 27.58-4.19 7.93-7.76 16.29-15.33 21.65-3.45 2.44-7.57 3.94-11.39 5.87-.37-.38-.71-.77-1.06-1.16zm89.32-116.43c1.79.6 2.92 1.03 4.07 1.35 9.8 2.73 19.69 2.06 29.64 1.03 17.35-1.79 34.72-3.43 52.09-4.94 2.35-.21 4.94.31 7.18 1.14 5.45 2.03 5.94 3.37 3.75 8.65-.39.93-1.2 1.93-2.07 2.38-3.58 1.82-7.16 3.73-10.92 5.07-16.55 5.89-33.7 8.78-51.17 10.06-8.15.6-15.64-.51-22.23-6.08-3.72-3.14-7.87-6.48-12.39-7.81-9.36-2.75-19.09-4.21-28.93-6.26-2.62 15.43-5.14 30.26-7.69 45.23 11.42 2.52 22.37 1.98 33.3-.37 10.05-2.16 20.07-4.48 30.16-6.46 18.86-3.7 37.82-6.93 56.62-10.89 9.25-1.95 18.24-5.08 27.62-7.75-1.71-3.67-3.02-6.88-4.68-9.89-1.16-2.1-1.19-3.88-.03-5.92 3.8-6.65 3.98-13.88 2.9-21.18-.62-4.18-2.45-7.85-6.93-9.04-9.84-2.62-19.84-3.53-29.86-1.31-10.58 2.34-21.07 5.1-31.62 7.59-13.44 3.18-26.36 7.68-38.81 15.4zm2.11 148.47c6.45-1.63 12.09-2.54 17.34-4.48 10-3.71 17.15-11.53 24.76-18.57 3.52-3.26 7.08-6.59 9.96-10.39 1.49-1.97 2.58-5.35 1.94-7.53-.85-2.89-4.27-2.05-6.77-1.5-6.76 1.48-13.46 3.22-20.25 4.5-2.02.38-4.41 0-6.38-.72-3.94-1.45-7.7-3.38-11.92-5.29-4.29 14.2-9.09 27.86-8.68 43.98z" fill="#010103"/></svg>