<svg enable-background="new 0 0 400 400" viewBox="0 0 400 400" xmlns="http://www.w3.org/2000/svg"><g fill="#fcfafa"><path d="m342.2 3.2-6.3 9.2h6.1v1.2h-8.2v-.5l6.2-9.1h-5.7v-1.2h7.8v.4z"/><path d="m344 13.7v-10.9h3.1c1.6 0 3 .5 4.1 1.4 1.1 1 1.6 2.2 1.6 3.9s-.5 3-1.6 4-2.5 1.5-4.2 1.5h-3zm1.4-9.6v8.4h1.6c1.4 0 2.5-.4 3.2-1.1.8-.8 1.2-1.8 1.2-3.2s-.4-2.4-1.2-3.1-1.8-1-3.1-1z"/><path d="m356.3 2.8v10.9h-1.4v-10.9z"/><path d="m366.6 13.2c-.8.4-1.8.6-3 .6-1.6 0-2.8-.5-3.7-1.5s-1.4-2.3-1.4-3.9c0-1.7.5-3.2 1.6-4.2s2.4-1.6 4-1.6c1 0 1.9.1 2.6.4v1.5c-.8-.4-1.6-.6-2.6-.6-1.2 0-2.2.4-3 1.2s-1.1 1.9-1.1 3.3c0 1.3.4 2.3 1.1 3.1s1.6 1.1 2.8 1.1c1.1 0 2-.2 2.8-.7v1.3z"/><path d="m368.2 13c0-.3.1-.5.3-.6.2-.2.4-.3.6-.3.3 0 .5.1.7.3s.3.4.3.6-.1.5-.3.6c-.2.2-.4.3-.7.3s-.5-.1-.6-.3c-.2-.2-.3-.4-.3-.6z"/><path d="m381.1 13.7h-1.7l-5.5-8.4c-.2-.2-.3-.5-.4-.7 0 .2.1.8.1 1.5v7.6h-1.4v-10.9h1.8l5.3 8.3c.3.4.4.6.4.8 0-.3-.1-.8-.1-1.6v-7.5h1.4v10.9z"/><path d="m389.7 13.7h-5.8v-10.9h5.6v1.2h-4.2v3.5h3.9v1.2h-3.9v3.7h4.4z"/><path d="m398.4 4.1h-3.1v9.6h-1.4v-9.6h-3.1v-1.3h7.7v1.3z"/></g><path d="m91.74 243.27c2.72.26 5.07.31 7.35.72 9.79 1.79 19.39.11 28.95-1.68 6.46-1.21 12.98-2.49 19.2-4.57 12.61-4.22 25.64-6.03 38.71-7.81 18.39-2.51 36.76-5.23 55.17-7.6 11.45-1.47 22.78.21 33.96 2.55 5.78 1.21 11.55 2.74 17.07 4.82 12.82 4.83 18.82 14.8 18.28 28.52-.16 4.09-1.45 6.97-4.72 9.26-5.22 3.65-10.24 7.58-15.53 11.13-4.4 2.96-9.18 4.02-14.23 1.36-.58-.31-1.27-.42-1.92-.58-.19-.05-.42.02-.96.06.51 3.65 1.12 7.26 1.48 10.9.17 1.73.16 3.58-.28 5.24-2.26 8.53-4.66 17.03-7.08 25.52-.36 1.24-.95 2.51-1.75 3.52-5.37 6.86-11.28 13.36-16.15 20.56-6.47 9.56-15.17 16.03-25.42 20.64-16.92 7.61-34.52 11.97-53.12 8.39-6.62-1.27-12.93-4.16-19.33-6.44-.96-.34-1.76-1.32-2.45-2.16-4.96-6.06-9.6-12.42-14.88-18.19-6.35-6.95-8.42-15.32-9.47-24.19-.78-6.66-1.36-13.34-2.23-19.99-.93-7.17-4.08-13.33-8.6-18.98-2.39-2.99-3.99-6.6-5.94-9.91 3.7-2.32 11.09-1.52 13.53 1.29 6.53 7.52 14.54 9.59 24.19 7.72 14.14-2.74 28.3-5.64 42.59-7.29 17.2-1.98 34.59-3.61 51.78.17 6.16 1.36 12.01 4.06 18.05 6 1.16.37 2.89.55 3.76-.05 2.74-1.89 5.26-3.97 9.39-1.39 0-3.75-.17-6.73.07-9.67.12-1.41.69-3.08 1.64-4.08 2.86-2.99 6.05-5.64 9.01-8.54 1.51-1.47 3.29-2.95 4.09-4.8 2.69-6.2 1.99-9-3.76-11.65-8.53-3.92-17.52-3.04-26.43-2.61-14.29.69-28.6 1.27-42.83 2.66-9.06.88-18.04 2.94-26.97 4.83-12.57 2.66-25.09 5.6-37.59 8.59-1.94.46-3.89 1.59-5.44 2.88-6.78 5.66-13.95 10.33-23.29 9-2.76-.39-5.57-1.6-7.98-3.05-4.49-2.71-8.7-5.88-13.05-8.83-4.15-2.83-6.23-6.83-6.87-12.27zm85.45 114.72c16.48-.83 33.78-7.9 47.21-18.53 12.44-9.85 21.14-22.65 28.53-36.47 2.95-5.53 1.48-8.01-4.86-8.22-.67-.02-1.34.06-2 .14-17.99 2.02-35.96 4.44-53.99 5.97-15.57 1.32-29.62 6.43-42.74 14.53-1.33.82-2.64 2.51-2.96 4.01-1.9 8.86-.55 17.35 3.83 25.3.85 1.54 1.86 3.24 3.25 4.21 7.79 5.38 15.81 10.35 23.73 9.06z" fill="#010103"/><path d="m90 102.46c4.03-.35 7.16-.43 10.38 2.57 6.48 6.04 14.92 8.04 23.53 8.48 14.35.75 28.61-.18 42.74-3.02 2.89-.58 4.16-2.08 5.01-4.56 2.77-8.14 2.58-16.43.3-24.49-3.4-12.03-7.4-23.9-11.3-35.79-.44-1.33-1.7-2.56-2.89-3.42-2.54-1.83-5.43-3.18-7.87-5.11-1.59-1.26-2.85-3.08-3.87-4.87-.87-1.54-1.24-3.32.63-4.79 1.74-1.36 2.95-2.77 5.75-1.49 12.91 5.9 25.98 11.45 38.98 17.15 4.15 1.82 6.79 8.55 4.79 12.56-1.63 3.27-2.46 6.52-2.24 10.27.75 12.82 1.2 25.66 1.79 38.96 1.75-.15 4.03-.36 6.32-.53 21.25-1.66 41.66-6.55 61.14-15.39 4.22-1.92 8.9-2.91 13.44-4.02 2.12-.52 4.84-.8 5.77 1.92.91 2.65.8 5.23-1.61 7.63-11 10.94-24.71 17.06-38.87 22.47-19.57 7.48-39.48 13.87-60.34 16.41-12.42 1.52-24.96 2.08-37.44 3.11-3.57.29-7.14.61-10.68 1.1-9.51 1.31-18.46-1.16-25.61-6.84-5.58-4.44-10.91-9.96-13.46-17.24-1.29-3.67-2.86-7.24-4.39-11.07z" fill="#010103"/><path d="m63.4 210.93c8.26-6.1 16.49-11.68 24.16-17.95 11.43-9.36 22.6-19.1 30.23-32.08 1.58-2.69 3.02-5.48 4.3-8.33.46-1.02.43-2.37.29-3.53-.26-2.2-.76-4.37-1.25-7.01 1.18.31 2.02.41 2.76.73 6.98 2.99 14.03 5.83 20.88 9.1 4.72 2.25 8.57 5.66 10.5 10.81.8 2.14.51 3.63-1.32 5.25-9.55 8.47-18.96 17.08-28.41 25.65-.81.74-1.59 1.51-2.5 2.37 4.52 3.08 9.35 4.1 14.3 3.15 13.93-2.66 27.83-5.55 41.7-8.53 10.48-2.25 20.86-4.96 31.36-7.14 9.74-2.02 19.57-1.59 29.39-.29 4.98.66 10.01 1.01 14.97 1.84 4.02.67 7.41 2.69 9.03 6.66.35.86-.02 2.59-.7 3.19-3.92 3.41-8.71 5.37-13.81 5.39-18.81.07-36.54 5.77-54.65 9.66-8.15 1.75-16.6 2.13-24.92 3.09-9.11 1.05-18.22 2.06-27.34 3.07-.87.1-1.91.33-2.6-.03-5.31-2.77-11.28-4.84-15.64-8.71-7.19-6.37-17.58-4.34-23.35 1.11-5.9 5.57-13.45 7.32-21.08 8.66-3.17.56-6.46.46-9.68.76-3.16.3-5.07-.94-5.71-4.13-.23-1.19-.76-2.32-.91-2.76z" fill="#010103"/><path d="m208.52 139.84c2.65 1.04 5.62 1.63 7.88 3.22 5.94 4.19 12.63 5.98 19.57 7.42 24.73 5.13 47.95 14.03 69.23 27.8 4.87 3.15 10.03 5.86 15.13 8.64 4.03 2.19 7.44 4.91 9.43 9.17 1.5 3.21-.37 6.44-3.94 6.16-1.84-.14-3.72-1.16-5.36-2.14-2.66-1.59-4.94-3.94-7.73-5.18-12.65-5.6-25.39-11.02-38.17-16.31-12.8-5.29-25.97-8.89-40.04-8.27-1.97.09-4.32-.54-5.93-1.66-7.42-5.16-13.77-11.46-18.11-19.47-1.39-2.57-2.02-5.55-3-8.34.34-.34.69-.69 1.04-1.04z" fill="#010103"/></svg>