<svg enable-background="new 0 0 400 400" viewBox="0 0 400 400" xmlns="http://www.w3.org/2000/svg"><path d="m109.96 375.53c-4.33-8.15-4.01-15.34-1.52-22.58 5.68-16.48 11.82-32.82 17.05-49.44 6.56-20.83 11.64-42.04 13.14-63.94.3-4.47.27-8.95.58-13.42.1-1.48.83-2.92 1.2-4.39.18-.69.32-1.43.27-2.13-.21-2.72-.65-5.42-.73-8.14-.13-4.8-.8-9.75.08-14.38 1.89-9.95 4.62-19.74 7.03-29.67 4.18.71 6.48 2.82 8.42 5.51 5.87 8.13 11.44 10.85 20.79 7.59 14-4.88 27.92-3.85 42.09-2.06 4.78.61 9.9 1.87 14.35-1.18 2.62-1.8 5.08-3.97 7.2-6.34 4.14-4.61 9.33-4.34 12.55.95 1.75 2.86 3.5 5.73 5.24 8.59.11.19.15.42.29.81-1.99 1.64-1.79 3.12.37 4.71 2.9 2.14 3.67 5.37 3.23 8.7-.84 6.4.35 12.34 2.62 18.35 3.1 8.24 3.17 17.02 1.93 25.57-3.17 21.76-3.47 43.71-5.02 65.58-.82 11.51-1.89 23.01-7.31 33.52-.97 1.87-2.16 3.64-3.36 5.38-1.75 2.51-4.46 2.15-6.7 1.39-1.12-.38-2.17-2.32-2.44-3.71-2.97-15.61-6.06-31.22-4.44-47.27.45-4.45.77-8.91 1.02-13.38.08-1.55-.1-3.15-.42-4.67-.84-4.04-2.24-5.09-6.25-4.46-8.52 1.34-17.06 1.32-25.68 1.48-15.92.29-32-.19-47.65 4.01-2.2.59-3.69 1.48-4.27 3.6-1.31 4.72-2.41 9.5-3.8 14.2-1.83 6.19-3.56 12.43-5.9 18.43-2.43 6.24-5.49 12.24-8.38 18.29-1.65 3.46-3.22 6.89-2.66 10.88.07.53.01 1.16-.22 1.64-4.12 8.79-7.39 18.11-14.07 25.42-2.33 2.51-5.52 4.23-8.63 6.56zm47.14-114.79c3.41-.22 6.41-.31 9.38-.62 9.41-.98 19-.39 28.21-3.28 2.16-.68 4.63-.74 6.92-.58 5.13.34 10.28 1.69 15.33 1.35 6.02-.4 11.99-2 17.89-3.43 1.13-.27 2.55-2.06 2.68-3.27.66-6.11.96-12.26 1.31-18.4.05-.8-.12-2.15-.59-2.37-2.64-1.21-4.97-3.05-8.44-1.74-8.3 3.13-16.98 4.79-25.87 4.96-10.95.21-21.91.22-32.85.54-2.61.08-5.27.81-7.76 1.67-.99.34-2.04 1.78-2.26 2.88-1.41 7.23-2.6 14.51-3.95 22.29zm1.85-46.01c5.95 4.7 8.3 5.87 15.04 3.03 4.25-1.79 8.92-2.93 13.5-3.5 10.41-1.3 20.89-2.13 31.35-3.02 3.1-.26 6.28.23 9.35-.19 4.42-.6 5.77-3.26 4.27-7.49-1.14-3.23-3.77-4.71-6.84-5.25-4.84-.85-9.74-1.33-14.61-2.06-3.64-.54-7.27-1.85-10.87-1.73-8.02.27-16.05 1.04-24.03 1.98-3.83.45-7.81 1.24-11.25 2.87-2.16 1.02-3.71 3.74-4.99 6.01-.46.82.63 2.55 1.1 3.83.86 2.33.43 4.19-2.02 5.52zm-36.22 145.41c-.16-.33-.31-.66-.47-.99-3.96 1.03-7.92 2.06-12.77 3.32 1.47 2.34 2.17 4.67 3.64 5.38 1.21.58 3.8-.27 4.97-1.35 1.89-1.74 3.12-4.2 4.63-6.36z" fill="#010000"/><path d="m194.55 134.49c11.51 3.46 22.21 3.32 32.68 1.61 14.85-2.42 29.64-1.8 44.47-.88 3.31.21 6.63 1.06 9.82 2.02 4.72 1.41 6.92 5.45 5.78 10.24-.2.83-.96 1.73-1.71 2.2-6.12 3.82-12.67 5.58-20.03 5.46-7-.11-14.02 1.15-21.04 1.47-11.05.5-22.12.52-33.16 1.12-8.9.48-17.87.97-26.63 2.49-5.95 1.03-11.68.87-17.6.71-7.68-.21-15.39.42-23.08.82-7.14.38-14.3 1.28-21.27-1.08-4.24-1.44-4.46-3.73-4.01-7.96.68-6.42 5.29-7.72 9.82-9.22 9.44-3.13 19.14-3.9 29.12-3.48 5.9.25 11.89-1.4 18.26-2.25-.46-5.45-.81-10.55-1.42-15.62-.1-.86-1.23-1.78-2.1-2.34-6.5-4.23-13.61-3.32-20.79-2.59-10.11 1.02-20.25 1.65-30.96 2.49 0-4.65-.1-8.51.08-12.37.04-.76 1.02-1.63 1.76-2.18 5.59-4.22 12.11-5.67 18.91-5.9 8.05-.26 16.11-.22 24.16-.35 2.01-.03 4.17.18 5.96-.5 1.39-.53 2.81-2.11 3.32-3.54.67-1.89-.22-3.58-2.39-4.5-11.61-4.94-23.12-10.11-34.79-14.9-5.07-2.08-7.15-5.85-7.52-10.85-.27-3.68-.2-7.39-.05-11.08.17-4.06 5.74-7.23 9.35-5.44 10.32 5.11 20.63 10.23 30.95 15.35.99.49 1.99.95 3.25 1.55 1.72-4.2 2.88-8.4 1.16-12.48-3.03-7.15-.65-13.07 3.39-18.77 1.55-2.19 3.47-4.12 4.94-6.36 1.65-2.5 3.49-2.52 5.92-1.32 5.42 2.67 7.87 7.34 8.1 12.98.31 7.7-.1 15.44.06 23.15.09 4.41.69 8.82 1.11 13.84 7.27-6.38 13.73-12.4 20.57-17.94 7.74-6.26 15.69-12.29 23.86-17.96 1.91-1.33 5.09-1.08 7.69-1.13 7.25-.14 11.16 4 10.69 11.34-.15 2.31-.63 4.69-1.49 6.83-.47 1.15-2 1.94-3.17 2.72-1.08.72-2.37 1.13-3.47 1.82-3.57 2.23-6.93 4.86-10.67 6.71-6.51 3.22-13.29 5.87-19.87 8.95-6.91 3.23-13.94 6.06-21.52 7.23-1.81.28-2.5 1.05-2.35 2.86.13 1.56.03 3.13.03 4.7 0 5.31.01 5.23 5.46 6.04 10.32 1.53 20.53.03 30.77-.92 3.4-.31 6.97-.22 10.3.48 5.73 1.2 9.01 7.84 6.83 13.18-.3.74-1.37 1.37-2.22 1.64-5.53 1.78-11.1 2.91-17.02 3.17-8.33.37-16.61 1.98-24.92 2.97-1.4.17-3.02.28-4.24-.26-2.64-1.17-4.12-.22-4.89 2.15-1.47 4.52-2.75 9.09-4.19 13.88z" fill="#010000"/><g fill="#fbfcfa"><path d="m361.2 9.6.8-1c.9.7 1.9 1.4 2.9 2.3l-.9 1.1c-1-1-2-1.8-2.8-2.4zm.5 10.6c.9-2.1 1.6-4.3 2.3-6.7.4.2.8.4 1.3.6-.7 2.1-1.5 4.3-2.2 6.6zm.4-15.2.9-.9c1 .8 2 1.6 2.8 2.4l-1 1c-.9-.9-1.8-1.7-2.7-2.5zm12.5-1.2h1.2v1.4h2.7v1.1h-2.7v2.7h-1.2v-.6h-1.8v1.3h4.9v3.8h-1.2v-.5h-3.7c0 .4-.1.9-.1 1.2h5.1v1h-5.2c0 .5-.1.9-.2 1.2h6v1h-5.2c1.1 1.3 2.9 2 5.5 2.2-.4.4-.7.8-.9 1.3-2.9-.5-4.8-1.6-5.7-3.5h-.1c-.8 1.7-2.7 2.9-5.9 3.6-.2-.4-.6-.8-.9-1.1 2.8-.6 4.6-1.4 5.4-2.5h-4.8v-1h5.3c.1-.3.2-.7.2-1.2h-4.9v-1h5c0-.4 0-.8.1-1.2h-3.5v.5h-1.2v-3.8h4.9v-1.3h-1.8v.5h-1.2v-2.7h-2.7v-1h2.6v-1.4h1.2v1.4h4.7v-1.4zm-6.6 8.3h3.6c0-.4 0-.9 0-1.4h-3.6zm1.9-4.6h4.7v-1.3h-4.7zm6.6 3.2h-3.7v1.4h3.7z"/><path d="m385.3 3.8h1.3v2.2h2.8v-2.2h1.3v2.2h4.1v9.1h1.7v1.3h-16.9v-1.3h1.7v-9.1h4.1v-2.2zm.4 13.1.7 1.2c-1.8.9-3.8 1.9-6 2.9-.2-.4-.5-.8-.8-1.3 2.3-1 4.3-1.9 6.1-2.8zm-3.1-6.4h2.8v-3.2h-2.8zm0 4.6h2.8v-3.3h-2.8zm4-4.6h2.8v-3.2h-2.8zm0 4.6h2.8v-3.3h-2.8zm3.7 1.9c2.1.9 4.1 1.8 6.1 2.7l-.7 1.3c-2.2-1.1-4.2-2-6.1-2.9zm3.2-9.7h-2.8v3.2h2.8zm-2.8 7.8h2.8v-3.3h-2.8z"/></g></svg>