<svg enable-background="new 0 0 400 400" viewBox="0 0 400 400" xmlns="http://www.w3.org/2000/svg"><path d="m362.1 8.8c1.1.8 2.1 1.6 3.1 2.4l-1 1.1c-1.3-1.1-2.3-2-3-2.5zm1.9 4.8c.5.2.9.4 1.4.5-.6 2.3-1.3 4.5-1.9 6.8l-1.5-.5c.8-2.1 1.4-4.3 2-6.8zm-1-9.4c1.3.9 2.4 1.8 3.4 2.5l-1 1.1c-1.4-1.2-2.4-2.1-3.2-2.6zm3.7 2.2v-1.4h10.3v1.2c-.5 3.6-1.8 6.8-4 9.4 1.5 1.6 3.4 2.8 5.7 3.8-.3.4-.7.8-1.1 1.4-2.3-1.1-4.1-2.5-5.6-4.1-1.6 1.6-3.6 3.1-5.9 4.3-.3-.5-.7-.9-1-1.3 2.4-1.1 4.4-2.5 6-4.1-1.9-2.5-3-5.6-3.3-9.3h-1.1zm8.8 0h-6.4c.3 3.3 1.3 6 3 8.2 2-2.3 3.1-5.1 3.4-8.2z" fill="#fbfcfa"/><path d="m385.3 3.8h1.3v2.2h2.8v-2.2h1.3v2.2h4.1v9.1h1.7v1.3h-16.9v-1.3h1.7v-9.1h4.1v-2.2zm.4 13.1.7 1.2c-1.8.9-3.8 1.9-6 2.9-.2-.4-.5-.8-.8-1.3 2.3-1 4.3-1.9 6.1-2.8zm-3.1-6.4h2.8v-3.2h-2.8zm0 4.6h2.8v-3.3h-2.8zm4-4.6h2.8v-3.2h-2.8zm0 4.6h2.8v-3.3h-2.8zm3.7 1.9c2.1.9 4.1 1.8 6.1 2.7l-.7 1.3c-2.2-1.1-4.2-2-6.1-2.9zm3.2-9.7h-2.8v3.2h2.8zm-2.8 7.8h2.8v-3.3h-2.8z" fill="#fbfcfa"/><g fill="#010106"><path d="m135.36 214.61c-10.5 41.37-15.12 82.72-13.06 124.82-.43.06-.86.13-1.3.19-1.47-4.7-3.21-9.33-4.37-14.1-3.33-13.68-4.21-27.65-4.03-41.65.18-14.2.29-28.44 1.49-42.58.6-7.1 3.84-13.93 5.4-21 2.72-12.32 8.74-22.52 18.34-30.67 1.1-.94 2.11-2.02 3.01-3.16 9.69-12.3 21.67-21.41 36.57-26.57 1.09-.38 2.27-2.09 2.42-3.31.74-6.2 1.16-12.44 1.72-18.96-7.22-1.44-14.15-3.55-21.21-4.09-24.67-1.88-36.35-28.65-30.71-48.2 4.73-16.42 9.31-32.89 14.04-49.31 1.03-3.59 1.19-3.54 5.57-4.87-.42 4.55-.79 8.93-1.24 13.31-1.45 14.13-2.98 28.26-4.38 42.4-.3 3-.37 6.04-.21 9.05.45 8.46 4.39 14.88 11.78 19.09 7.07 4.02 14.81 5.31 23.2 5.63 1.98-31.85 3.94-63.5 5.93-95.5 3.63 1.83 5.24 4.32 5.56 7.86 2.58 28.07 5.21 56.14 7.87 84.69 5.12 0 10.07-.53 14.85.13 6.87.94 10.77-2.11 14.4-7.5 7.02-10.44 9.92-21.58 8.2-34.04-1.75-12.62-1.04-25.23.54-37.82.08-.65.27-1.29.54-2.59 4.54 7.05 7.7 14.08 10.04 21.52 4.82 15.37 3.85 30.95 1.64 46.54-.83 5.85-2.21 11.64-3.64 17.38-.33 1.33-1.66 2.94-2.91 3.43-9.26 3.61-18.53 7.29-28.01 10.23-3.3 1.02-7.23.07-10.87-.05-1.41-.05-2.82-.3-4.59-.5 0 6.93-.1 13.51.11 20.09.03.94 1.43 2.09 2.46 2.69 13.72 7.99 27.38 16.1 41.31 23.72 5.73 3.14 9.83 7.54 13.46 12.71 10.92 15.56 17.28 33 21.14 51.43 4.93 23.57 6.95 47.39 4.62 71.41-.78 8.08-2.88 16.04-4.39 24.04-.11.57-.41 1.11-1.21 1.61-.75-6.72-1.76-13.42-2.22-20.15-2.42-35.49-10.91-69.73-21.27-103.58-.54-1.76-2.08-3.22-3.49-5.31-5.73 6.29-11.15 11.92-16.22 17.85-8.74 10.22-16.75 20.97-22.43 33.28-7.84 16.95-11.59 34.69-10.55 53.41.53 9.5 1.21 19.02 1.01 28.51-.15 7.08-1.32 14.18-2.63 21.16-.61 3.23-2.83 6.02-6.86 7.15 0-2.51-.05-4.79.01-7.06.73-27.35-.13-54.64-4.97-81.61-4.3-23.99-16.79-43.64-34.71-59.83-4.51-4.09-9.93-7.2-15.75-11.32zm60.19 37.35c6.58-6.3 12.88-12.3 19.14-18.33 8.52-8.21 16.96-16.5 25.58-24.61 1.42-1.34 1.54-2.31.96-3.98-4.21-11.96-12.91-18.65-24.96-21.49-10.76-2.53-21.51-5.13-32.3-7.51-1.42-.31-3.33.02-4.57.78-9.25 5.64-18.23 11.76-27.64 17.11-5.12 2.91-8.21 6.29-8.13 12.39.03 1.91.27 3.01 1.96 4.03 6.91 4.13 13.8 8.29 20.54 12.67 2.96 1.92 5.79 4.18 8.27 6.7 6.97 7.09 13.72 14.4 21.15 22.24z"/><path d="m189.12 217.84c-2.37.88-3.77-.75-4.96-3.27-3.84-8.09-1.61-16.53 5.97-21.76.5-.35 1.22-.51 1.84-.53 8.06-.24 13.37 4.6 13.88 12.61.04.67.05 1.34.05 2.01-.01 9.1-.58 9.71-9.44 10.29-2.24.15-4.46.4-7.34.65z"/></g></svg>