<svg enable-background="new 0 0 400 400" viewBox="0 0 400 400" xmlns="http://www.w3.org/2000/svg"><g fill="#fcfafa"><path d="m342.2 3.2-6.3 9.2h6.1v1.2h-8.2v-.5l6.2-9.1h-5.7v-1.2h7.8v.4z"/><path d="m344 13.7v-10.9h3.1c1.6 0 3 .5 4.1 1.4 1.1 1 1.6 2.2 1.6 3.9s-.5 3-1.6 4-2.5 1.5-4.2 1.5h-3zm1.4-9.6v8.4h1.6c1.4 0 2.5-.4 3.2-1.1.8-.8 1.2-1.8 1.2-3.2s-.4-2.4-1.2-3.1-1.8-1-3.1-1z"/><path d="m356.3 2.8v10.9h-1.4v-10.9z"/><path d="m366.6 13.2c-.8.4-1.8.6-3 .6-1.6 0-2.8-.5-3.7-1.5s-1.4-2.3-1.4-3.9c0-1.7.5-3.2 1.6-4.2s2.4-1.6 4-1.6c1 0 1.9.1 2.6.4v1.5c-.8-.4-1.6-.6-2.6-.6-1.2 0-2.2.4-3 1.2s-1.1 1.9-1.1 3.3c0 1.3.4 2.3 1.1 3.1s1.6 1.1 2.8 1.1c1.1 0 2-.2 2.8-.7v1.3z"/><path d="m368.2 13c0-.3.1-.5.3-.6.2-.2.4-.3.6-.3.3 0 .5.1.7.3s.3.4.3.6-.1.5-.3.6c-.2.2-.4.3-.7.3s-.5-.1-.6-.3c-.2-.2-.3-.4-.3-.6z"/><path d="m381.1 13.7h-1.7l-5.5-8.4c-.2-.2-.3-.5-.4-.7 0 .2.1.8.1 1.5v7.6h-1.4v-10.9h1.8l5.3 8.3c.3.4.4.6.4.8 0-.3-.1-.8-.1-1.6v-7.5h1.4v10.9z"/><path d="m389.7 13.7h-5.8v-10.9h5.6v1.2h-4.2v3.5h3.9v1.2h-3.9v3.7h4.4z"/><path d="m398.4 4.1h-3.1v9.6h-1.4v-9.6h-3.1v-1.3h7.7v1.3z"/></g><path d="m282.06 217.66c-1.69-13.49-4.04-26.54-8.58-39.11-4.63-12.82-9.37-25.59-14.14-38.36-.4-1.08-1.23-2.11-2.12-2.88-2.02-1.76-4.23-3.31-6.32-5-5.41-4.39-11.41-4.31-17.4-1.85-8.37 3.44-16.69 7.05-24.78 11.08-2.62 1.31-4.7 3.98-6.65 6.33-5.18 6.25-8.15 7.14-15.71 4.05-14.17-5.8-28.5-11.23-42.41-17.6-6.94-3.18-12.98-8.28-19.67-12.1-3.81-2.18-8.15-3.42-12.16-5.26-3.21-1.47-6.64-2.77-9.35-4.93-6.8-5.41-12.49-11.91-15.95-20-1.17-2.72-1.57-5.79-2.21-8.72-.41-1.87.47-2.94 2.41-3.22 4.71-.7 9.31.2 12.41 3.61 10.36 11.4 23.22 19.22 36.5 26.46 13.06 7.12 26.35 13.78 40.8 17.74 1.06.29 2.13.51 3.34.8 3.59-6.92 4.58-14.19 4.55-21.6-.08-18.22-2.98-36.1-7.39-53.71-1.53-6.12-5.5-10.86-11.53-13.57-2.65-1.19-5.34-2.38-7.75-3.98-2.93-1.94-5.57-4.31-8.5-6.63 2.94-3.14 5.76-4.02 9.4-3.71 17.8 1.54 33.14 8.07 44.93 21.83 7.3 8.52 10.73 18.73 12.08 29.7 1.35 11.03 1.96 21.97-1.5 32.89-1.45 4.57-1.34 9.64-1.94 14.49.28.27.56.54.85.8 2.74-1.52 5.86-2.61 8.14-4.64 8.44-7.51 16.95-15 24.73-23.18 4.55-4.78 7.91-10.75 11.43-16.42.88-1.42.77-3.88.28-5.64-1.63-5.9-3.63-11.7-5.8-18.51 3.62.59 6.7.76 9.56 1.63 4.91 1.48 9.76 3.24 14.52 5.16 9.96 4.02 13.97 13.24 10.75 23.49-2.86 9.1-9.07 15.45-16.2 21.26-4.64 3.79-9.02 7.89-13.5 11.84 5.43 2.89 10.41 5.21 15.04 8.08 9.59 5.94 15.41 15.11 20.16 24.99 3.53 7.33 6.72 14.83 10.05 22.25.23.5.5 1.07.48 1.59-.53 10.65 4.34 20.23 6.08 30.43 1.14 6.68 1.71 13.31-.04 19.96-.14.54-.34 1.13-.24 1.65 1.92 9.74-2.43 18.68-3.6 28.01-.32 2.54-1.31 5.02-1.47 7.56-.22 3.53-2.53 5.06-5.23 6.28-3.46 1.56-6.74.29-7.45-3.37-.93-4.79-1.47-9.71-1.58-14.58-.14-6.05-.42-11.97-3.06-17.45-4.48 5.8-8.76 11.64-13.37 17.21-5.8 7.01-13.14 11.83-22.18 13.47-2.6.47-5.41-.19-8.09-.34-.36 6.77-.65 13.79-1.12 20.79-.42 6.25-.91 12.5-1.65 18.72-.28 2.37-1.05 4.79-2.11 6.93-4.34 8.83-9.2 17.41-13.2 26.38-2.36 5.29-6.07 7.97-11.35 9.33-2.15.55-4.27 1.35-6.25 2.36-1.31.67-2.34 1.89-3.88 3.19 12.78 4.45 25.05 6.27 37.65 2.27 4.04-1.28 8.02-2.77 12.08-4.01 4.24-1.3 6.26.54 5.43 4.79-.34 1.75-1.03 3.49-1.07 5.25-.11 4.53-2.71 6.77-6.49 8.69-12.68 6.45-25.86 6.42-39.26 3.32-9.12-2.11-17.58-5.44-24.32-12.54-6-6.32-12.78-11.9-18.98-18.03-9.76-9.64-16.45-21.04-19.44-34.58-1.76-7.96-4.05-15.8-6.03-23.71-.22-.88-.4-2.27.07-2.74 2.28-2.24 1.73-4.73.87-7.18-1.14-3.26-2.5-6.45-3.83-9.65-.29-.69-.75-1.42-1.34-1.85-3.24-2.37-6.54-4.65-9.97-7.07-4.45 7.72-8.64 15.34-13.2 22.74-2.26 3.68-4.91 7.23-7.87 10.36-3.89 4.11-8.98 6.11-14.97 6.59.2-5.85-.54-11.38 2.34-17.03 6.03-11.83 11.9-23.82 16.62-36.21 5.18-13.61 8.37-27.91 7.33-42.67-.39-5.52-1.66-11.05-3.17-16.4-1.75-6.21-4.91-11.67-10.51-15.48-3.08-2.1-5.47-4.91-5.83-9.43 2.67.65 5.13 1.19 7.56 1.83 10.7 2.8 21.41 5.59 32.09 8.45 8.98 2.4 18.11 1.65 27 .24 16.32-2.6 32.48-6.14 48.72-9.2 14.68-2.77 29.32-3.41 43.76 1.44 1.27.43 2.52.92 3.75 1.43 4.12 1.73 4.11 1.74 4.49 6.56-8.16 3.36-16.4 6.77-24.65 10.14-.49.2-1.12.21-1.66.15-5.76-.68-10.9 1.42-16.23 3.18-12.72 4.2-25.46 8.43-38.42 11.78-9.37 2.42-19.11 1.72-28.69.22-.93-.15-2.02-.47-2.67-1.09-4.65-4.41-5.97-5.07-12.22-5.59 0 10.3-.06 20.58.11 30.86.01.77 1.55 1.97 2.55 2.18 7.07 1.49 14.03.56 20.82-1.64 5.95-1.92 11.85-4.02 17.77-6.05 15.43-5.28 31.45-6.49 47.58-7.11 12.04-.47 23.97 0 35.42 4.13 5.21 1.9 10.23 4.33 15.75 6.68zm-88.16 129.26c4.22-6.6 8.3-12.95 12.33-19.33.28-.44.24-1.08.34-1.62 1.52-8.22 2.79-16.49 4.61-24.64 1.98-8.84 2.4-17.56-.07-26.57-5.9 2.73-11.67 5.15-17.2 8.01-5.92 3.07-12.32.58-18.48 1.95-.52 22.63 5.22 43.26 18.47 62.2zm-23.54-85.44c.06-.2.12-.4.19-.6 1.78-.19 3.62-.12 5.32-.6 9.67-2.69 19.32-5.44 28.94-8.3 4.86-1.44 5.95-3.9 3.79-8.61-2.72-5.94-7.6-9.59-13.66-11.57-1.68-.55-3.79-.52-5.52-.06-9.5 2.54-19 5.11-28.37 8.07-5.96 1.88-11.71 2.38-17.69.34-3.05-1.04-5.93-.27-8.55 1.62-2.82 2.04-1.18 4.95-1.34 7.44-.05.73 1.55 1.91 2.6 2.3 5.44 2.03 10.88 4.1 16.45 5.7 5.87 1.69 11.89 2.87 17.84 4.27zm71.05.57c5.85-7.14 11.43-13.95 16.97-20.79.38-.47.55-1.23.57-1.87.07-3.69.08-7.37.08-11.06 0-2.55-1.36-4.04-3.68-5.02-6.58-2.76-13.23-4.65-20.49-3.18-2.94.59-6 .61-8.99 1-5.72.76-11.11 2.43-16.34 6 1.46.63 2.37 1.02 3.28 1.4 8 3.29 14.4 8.32 18.53 16.15 3.01 5.74 6.47 11.22 10.07 17.37z" fill="#010103"/></svg>