<svg viewBox="0 0 400 400" xmlns="http://www.w3.org/2000/svg"><rect width="400" height="400" fill="white" /><path d="m374.8 390.4.4-.4c.7.5 1.3 1 1.8 1.4l-.5.5c-.5-.6-1.1-1.1-1.7-1.5zm1 7.3-.6-.3c.5-1.4 1.1-2.8 1.5-4.3.2.1.4.2.6.3-.5 1.3-1 2.8-1.5 4.3zm-.4-10.3.4-.4c.4.3 1 .8 1.7 1.4l-.5.5c-.4-.5-1-1-1.6-1.5zm2.5.3h1.7v-1h.6v1h3.5v-1h.6v1h1.8v.5h-1.8v1.4h-2v1h3.2v2h-3.2v.9h3.3v.5h-3.4c0 .3-.1.6-.1.9h4v.5h-3.7c.7.9 1.9 1.5 3.8 1.7-.1.2-.2.4-.3.6-2.1-.4-3.5-1.1-4-2.1-.4 1-1.8 1.7-4 2.2-.1-.2-.2-.4-.3-.6 2.1-.4 3.4-1 3.8-1.8h-3.4v-.5h3.6c.1-.3.1-.6.2-.9h-3.3v-.5h3.4c0-.3 0-.6 0-.9h-3.2v-2h3.3v-1h-2.1v-1.4h-1.7v-.5zm1.1 3.5v1h2.7c0-.3 0-.4 0-.4 0-.1 0-.2 0-.2 0-.1 0-.2 0-.3h-2.7zm1.2-3v.9h3.5v-.9zm4.7 3h-2.6v.6.4h2.6z" fill="#fbfcfa"/><path d="m393.6 386.7h.6v1.5h2.7v6.1h1.1v.6h-11v-.6h1.1v-6.1h2.7v-1.5h.6v1.5h2.1v-1.5zm-2.7 8.8.4.6c-1.2.6-2.5 1.3-3.8 1.9-.1-.2-.2-.4-.3-.6 1.2-.6 2.5-1.2 3.7-1.9zm-2.2-6.7v2.4h2.1v-2.4zm0 3v2.5h2.1v-2.5zm2.8-3v2.4h2.1v-2.4zm0 3v2.5h2.1v-2.5zm6 6.1c-1.4-.7-2.7-1.3-3.9-1.8l.3-.6c1.5.6 2.7 1.2 3.9 1.7zm-1.2-9.1h-2.1v2.4h2.1zm-2.1 3v2.5h2.1v-2.5z" fill="#fbfcfa"/><g fill="#010101"><path d="m201.86 161.38c-5.57-2.24-7.58-6.72-7.86-11.83-.52-9.7-.81-19.42-.77-29.13.07-15.45.34-30.9.91-46.33.14-3.81 1.77-7.56 2.94-12.21-5.5-5.47-11.9-11.83-18.58-18.48 3.62-2.79 2.14-5.68.94-8.63-1.17-2.87-2.16-5.81-3.41-9.22 9.98 1.44 19.11 3.83 25.51 11.4 2.52 2.98 3.66 7.36 4.71 11.29 1.09 4.08 2.92 6.3 7.37 6.51 1.28.06 3.04 1.83 3.58 3.21 1.4 3.56 3.68 5.48 7.38 6.43 1.73.44 3.53 1.92 4.6 3.42 10.59 14.85 20.96 29.85 31.56 44.7 2.53 3.55 4.26 7.12 4.76 11.54.97 8.55 2.25 17.08 3.77 25.55.57 3.17-.03 5.37-2.55 7.21-.7.51-1.22 1.28-1.96 2.08.55.51 1.01.94 1.48 1.37 5.06 4.55 3.55 12.57-2.88 15.14-10.58 4.24-21.22 8.33-31.72 12.75-3.2 1.34-6.24 1.64-9.4.64-1.96-.62-3.22-.01-4.28 1.53-.06.09-.14.18-.22.25-8.22 6.53-10.66 14.92-9.8 25.32.89 10.67.05 21.48.25 32.23.13 7.08-1.55 13.49-5.57 19.3-.64.92-1.07 2.01-1.81 2.82-4 4.37-4.6 9.42-3.14 14.9.63 2.37.11 3.93-2.57 4.22-3.9.43-5 2.51-4.47 6.35 1.11 8.16-1.09 15.55-6.31 21.93-9.9 12.11-19.74 24.29-29.89 36.2-3.67 4.31-8.36 7.63-13.96 10.09-1.07-5.03-.37-9.49 1.29-13.77 1.69-4.37 3.6-8.67 5.58-12.92.54-1.15 1.52-2.22 2.54-3.01 4.19-3.24 7.16-7.34 9.07-12.25.57-1.46 1.22-2.89 1.73-4.36 2.51-7.21 6.31-13.43 12.57-18.13 1.82-1.37 3.32-3.69 4.07-5.88 6.33-18.56 11.35-37.51 13.51-56.98.8-7.16-1.09-14.64-1.93-21.95-.58-5.11-1.53-10.18-2.13-15.28-.12-1.05.5-2.24.98-3.28.32-.68.94-1.26 1.53-1.77 6.98-5.98 10.57-13.52 10.92-22.75.12-3.35 1.05-6.63 1.66-10.22zm14.01 11.53c12.28-5.09 23.92-9.88 35.51-14.81.69-.29 1.4-1.68 1.32-2.48-1-9.22-2.08-18.43-3.35-27.61-.21-1.5-1.16-3.14-2.26-4.23-6.27-6.22-12.67-12.3-19.05-18.4-2.22-2.13-4.5-4.21-6.95-6.49-3.26 11.04-6.5 21.61-9.43 32.26-.57 2.07-.48 4.66.24 6.69 2.55 7.2 4.73 14.36 4.04 22.17-.37 4.09-.07 8.25-.07 12.9zm7.66 7.71c-2.1-1.29-3.74-2.3-6.21-3.81 1.04 2.65 1.69 4.33 2.42 6.21 1.34-.84 2.35-1.48 3.79-2.4z"/><path d="m123.56 375.45c1.48-2.42 2.51-4.1 3.75-6.14 2 1.13 3.88 2.19 6.64 3.76-3.77.87-6.68 1.53-10.39 2.38z"/></g></svg>