<svg viewBox="0 0 400 400" xmlns="http://www.w3.org/2000/svg"><rect width="400" height="400" fill="white" /><path d="m374.8 390.4.4-.4c.7.5 1.3 1 1.8 1.4l-.5.5c-.5-.6-1.1-1.1-1.7-1.5zm1 7.3-.6-.3c.5-1.4 1.1-2.8 1.5-4.3.2.1.4.2.6.3-.5 1.3-1 2.8-1.5 4.3zm-.4-10.3.4-.4c.4.3 1 .8 1.7 1.4l-.5.5c-.4-.5-1-1-1.6-1.5zm2.5.3h1.7v-1h.6v1h3.5v-1h.6v1h1.8v.5h-1.8v1.4h-2v1h3.2v2h-3.2v.9h3.3v.5h-3.4c0 .3-.1.6-.1.9h4v.5h-3.7c.7.9 1.9 1.5 3.8 1.7-.1.2-.2.4-.3.6-2.1-.4-3.5-1.1-4-2.1-.4 1-1.8 1.7-4 2.2-.1-.2-.2-.4-.3-.6 2.1-.4 3.4-1 3.8-1.8h-3.4v-.5h3.6c.1-.3.1-.6.2-.9h-3.3v-.5h3.4c0-.3 0-.6 0-.9h-3.2v-2h3.3v-1h-2.1v-1.4h-1.7v-.5zm1.1 3.5v1h2.7c0-.3 0-.4 0-.4 0-.1 0-.2 0-.2 0-.1 0-.2 0-.3h-2.7zm1.2-3v.9h3.5v-.9zm4.7 3h-2.6v.6.4h2.6z" fill="#fbfcfa"/><path d="m393.6 386.7h.6v1.5h2.7v6.1h1.1v.6h-11v-.6h1.1v-6.1h2.7v-1.5h.6v1.5h2.1v-1.5zm-2.7 8.8.4.6c-1.2.6-2.5 1.3-3.8 1.9-.1-.2-.2-.4-.3-.6 1.2-.6 2.5-1.2 3.7-1.9zm-2.2-6.7v2.4h2.1v-2.4zm0 3v2.5h2.1v-2.5zm2.8-3v2.4h2.1v-2.4zm0 3v2.5h2.1v-2.5zm6 6.1c-1.4-.7-2.7-1.3-3.9-1.8l.3-.6c1.5.6 2.7 1.2 3.9 1.7zm-1.2-9.1h-2.1v2.4h2.1zm-2.1 3v2.5h2.1v-2.5z" fill="#fbfcfa"/><path d="m163.51 34.58c-2.48 2.09-6.67-1.73-8.34 2.95 3.28 1.88 6.67 3.62 9.8 5.74 1.2.81 2.37 2.42 2.58 3.81 1.69 11.28 3.2 22.59 4.61 33.91.21 1.69-.08 3.6-.68 5.2-.71 1.88-.3 3.01 1.34 3.85 2.28 1.17 3.18 3.1 3.8 5.52 2.84 11.03 8.86 20.41 15.93 29.12 2.68 3.31 5.56 6.28 6.11 10.85.18 1.49 1.58 2.99 2.73 4.17 1.07 1.1 2.51 1.87 3.87 2.64 2.82 1.6 4.26 3.77 5.44 7.01 1.63 4.5 4.79 8.52 7.67 12.48 2.82 3.88 6.13 7.41 9.17 11.14 7.56 9.25 11.84 19.39 10.5 31.81-.51 4.77-1.55 7.71-6.29 8.78-3.65.82-5.49 3.18-6.51 6.75-.5 1.74-1.97 3.48-3.46 4.6-5.18 3.9-10.71 7.34-15.83 11.32-2.86 2.22-5.58 2.96-8.92 1.68-.81-.31-1.72-.37-2.52-.54-.27.22-.53.32-.59.5-2.32 6.01-7.14 9.28-12.89 11.22-6.55 2.21-10.55 6.91-13.39 12.8-2.96 6.14-5.65 12.4-8.47 18.6-.6 1.32-.99 2.94-2 3.83-6.08 5.37-3.12 12.26-3.21 18.58-.03 2.13 3.59 3.46 6 2.22 2.37-1.22 4.85-2.54 6.69-4.41 6.86-6.95 15.41-10.51 24.55-13.13 8.05-2.31 16.08-4.75 24.06-7.28 1.39-.44 2.59-1.57 3.77-2.51 2.67-2.13 5.04-4.77 7.96-6.45 7.68-4.41 15.72-8.07 24.55-9.59 1.85-.32 3.76-.31 5.75-.45 2.9 8.86 2.04 17.41-.55 25.86-2.26 7.37-4.74 14.68-7.29 21.95-.44 1.25-1.56 2.38-2.62 3.26-1.62 1.35-3.47 2.43-5.21 3.62 2.63 4.64 2.55 5.46-1.16 9.62-8.93 10.03-17.78 20.14-26.86 30.04-7.97 8.68-17.34 15.42-28.84 19.29-.82-2.58-.3-3.98 2.21-5.33 2.23-1.19 4.34-3.26 5.63-5.45 2.9-4.95 6.41-8.86 12.29-9.97 2.57-.48 3.24-2.3 3.04-4.42-.63-6.47 2.28-11.07 7.05-15.07 5.13-4.29 10.31-8.53 13.41-14.8.75-1.52 3.44-2.09 5.63-3.31-2.07-3.79.55-6.74 2.36-10.02 4.32-7.82 7.61-15.91 5.98-25.22-.43-2.49-1.96-2.84-3.82-3.44-1.82-.59-2.98-.42-4.33 1.17-5.93 6.95-13.79 10.83-22.33 13.59-2.82.91-4.93.83-6.01-2.4-.24-.71-.83-1.3-1.58-2.44-2.2 3.66-4.11 7.1-6.31 10.35-.94 1.4-2.29 2.77-3.77 3.52-7.97 4.05-15.98 8.04-24.12 11.73-2.23 1.02-4.94 1.19-7.46 1.35-10.08.67-14.1 4.76-14.41 14.93-.06 1.9 0 3.81-.14 5.7-.31 4.13-2.01 7.51-6.11 10.13-2.02-5.13-4.29-10.05-5.8-15.2-.45-1.53 1.29-3.66 1.89-5.55.35-1.11 1.03-2.8.54-3.39-4.83-5.86-3.38-12.49-2.39-18.93 1.27-8.27 2.76-16.54 4.7-24.68.8-3.35 2.88-6.44 4.61-9.52 1.03-1.84 2.6-3.37 3.77-5.14 5.36-8.11 11.83-15.05 19.96-20.51 2.41-1.62 4.35-4.15 6.03-6.59 1.89-2.74 2.2-5.83 1.3-9.27-2.85-10.92-5.59-21.88-7.87-32.93-.66-3.22-.15-6.94.75-10.17 2.13-7.64 1.64-14.91-1.08-22.29-2.3-6.24-2.64-12.46 1.96-18.09.44-.53.48-1.62.33-2.37-.77-3.76-2.52-7.53-2.35-11.23.41-8.86-1.32-17.02-5.2-24.93-2.31-4.7-4-9.71-6.11-14.52-1.99-4.54-2.98-9.14-3.34-14.17-.43-5.94-2.57-11.75-3.79-17.65-2.18-10.53-2.01-20.84 2.86-30.79 1.18-2.42 2.42-2.47 4.43-1.49 3.65 1.76 5.11 5.04 6.34 8.45zm18.16 192.54c7.58-.33 23.47-5.72 28.68-10.89 4.53-4.49 7.75-10.28 11.72-15.36 2.89-3.69 3.06-7.76 1.48-11.71-1.25-3.13-2.97-6.49-5.44-8.64-9.93-8.61-18.51-18.08-23.78-30.35-1.75-4.08-5.44-6.58-10.36-8.35-.72 6.46-1.6 12.52-2.04 18.61-1.04 14.3.81 28.34 4.23 42.23 1.57 6.38 1.34 12.78-.92 19.9-.99-1.4-1.68-2.37-2.45-3.45-4.56 2.41-.75 5.28-1.12 8.01z" fill="#010101"/></svg>