<svg viewBox="0 0 400 400" xmlns="http://www.w3.org/2000/svg"><rect width="400" height="400" fill="white" /><path d="m374.8 390.4.4-.4c.7.5 1.3 1 1.8 1.4l-.5.5c-.5-.6-1.1-1.1-1.7-1.5zm1 7.3-.6-.3c.5-1.4 1.1-2.8 1.5-4.3.2.1.4.2.6.3-.5 1.3-1 2.8-1.5 4.3zm-.4-10.3.4-.4c.4.3 1 .8 1.7 1.4l-.5.5c-.4-.5-1-1-1.6-1.5zm2.5.3h1.7v-1h.6v1h3.5v-1h.6v1h1.8v.5h-1.8v1.4h-2v1h3.2v2h-3.2v.9h3.3v.5h-3.4c0 .3-.1.6-.1.9h4v.5h-3.7c.7.9 1.9 1.5 3.8 1.7-.1.2-.2.4-.3.6-2.1-.4-3.5-1.1-4-2.1-.4 1-1.8 1.7-4 2.2-.1-.2-.2-.4-.3-.6 2.1-.4 3.4-1 3.8-1.8h-3.4v-.5h3.6c.1-.3.1-.6.2-.9h-3.3v-.5h3.4c0-.3 0-.6 0-.9h-3.2v-2h3.3v-1h-2.1v-1.4h-1.7v-.5zm1.1 3.5v1h2.7c0-.3 0-.4 0-.4 0-.1 0-.2 0-.2 0-.1 0-.2 0-.3h-2.7zm1.2-3v.9h3.5v-.9zm4.7 3h-2.6v.6.4h2.6z" fill="#fbfcfa"/><path d="m393.6 386.7h.6v1.5h2.7v6.1h1.1v.6h-11v-.6h1.1v-6.1h2.7v-1.5h.6v1.5h2.1v-1.5zm-2.7 8.8.4.6c-1.2.6-2.5 1.3-3.8 1.9-.1-.2-.2-.4-.3-.6 1.2-.6 2.5-1.2 3.7-1.9zm-2.2-6.7v2.4h2.1v-2.4zm0 3v2.5h2.1v-2.5zm2.8-3v2.4h2.1v-2.4zm0 3v2.5h2.1v-2.5zm6 6.1c-1.4-.7-2.7-1.3-3.9-1.8l.3-.6c1.5.6 2.7 1.2 3.9 1.7zm-1.2-9.1h-2.1v2.4h2.1zm-2.1 3v2.5h2.1v-2.5z" fill="#fbfcfa"/><path d="m241.04 301.5c2.97-1.22 5.16-1.84 7.05-2.96 3.96-2.34 3.95-6.69.26-9.36-4.04-2.92-9.27-5.21-11.63-9.17-2.32-3.89-1.72-9.53-2.38-14.41-2.57-19.06-5.43-38.1-7.51-57.22-.6-5.51 1.17-11.26 1.64-16.91.67-8.12 1.89-16.27-.21-24.37-.28-1.08-.55-2.17-.9-3.22-1.7-5.12-4.67-7.84-10.66-8.16-11.8-.65-23.55-2.31-35.32-3.47-.73-.07-1.8.28-2.26.82-7.67 8.87-18.01 11.38-28.98 11.64-8.02.19-16.07-.62-24.1-.99-1.19-.05-2.38-.13-3.95-.22.62 6.67.81 13.06 1.89 19.28 2.12 12.23-.18 23.99-2.85 35.79-1.28 5.67-2.45 11.37-3.42 17.1-.19 1.13.39 2.88 1.24 3.6 5.4 4.62 8.49 10.03 7.07 17.38-.23 1.2-.29 2.44-.41 3.67-.63 6.18-.88 12.29 3.05 17.68 1.45 1.99 1.3 4.04.65 6.33-2.29 8.06-4.48 16.15-6.52 24.27-.37 1.47-.35 3.52.41 4.7 5.37 8.34 5.78 16.93 2.17 26-.98 2.47-1.66 5.15-1.95 7.79-.46 4.14-2.69 6.5-6.31 8.2-10.71 5.03-21.71 8.45-33.69 6.13-3.15-.61-6.24-1.78-9.2-3.05-8.83-3.8-17.6-7.73-26.32-11.77-1.4-.65-2.76-1.94-3.56-3.28-8.42-14.13-12.32-29.66-13.39-45.9-.16-2.49 1.68-5.21 2.92-7.67 1.27-2.51 1.64-4.84.95-7.68-3.38-13.9-6.8-27.8-9.6-41.83-1.19-5.95-1.16-12.2-1.24-18.32-.57-43.76-1.04-87.52-1.52-131.28-.07-6 0-6.04 6.6-6.6 1.3 4.89 2.32 9.93 3.99 14.76 1.74 5.03 4.1 9.86 6.2 14.77 7.47 17.51 10.03 35.9 9.51 54.76-.13 4.88-1.11 9.79-2.14 14.59-1.6 7.48.35 14.71 1.13 22 3.14 29.25 6.51 58.48 9.8 87.72.2 1.78.25 3.59.62 5.33 2.3 10.88-1.85 20.99-3.73 31.36-.4 2.2-.36 3.7 2.04 4.36.11.03.2.1.3.15 4.01 2.01 7.54 4.13 12.49.96 4.71-3.02 10.61-1.93 16.07-1.13 5.71.84 11.22.24 16.14-2.91 1.15-.74 2.3-2.52 2.32-3.85.57-30.1 1.34-60.21 1.27-90.31-.03-12.72-1.83-25.43-2.89-38.14-1.6-19.07-3.26-38.13-4.88-57.19-.03-.32.09-.64.16-1.09 4.2-1.24 8.01-2.09 11.99 1.43 3.6 3.18 8.11 3.24 12.96 1.8 8.2-2.44 16.36-4.52 23.99-8.83 7.9-4.46 17.04-4.23 25.91-3.34 18.16 1.83 36.1 1.59 53.88-3.47 4.15-1.18 9.02.08 13.56.36.79.05 1.77.57 2.28 1.19 3.96 4.83 7.37 10.44 5.32 16.6-4.5 13.49-2.47 26.39 1.3 39.49 3.52 12.24 6.43 24.66 9.9 36.91 4.79 16.89 7.05 34.13 7.76 51.63.49 11.97.91 23.94 1.61 35.89.09 1.59 1.25 3.59 2.54 4.56 6.23 4.65 13.48 5.07 20.84 4.04 7.2-1.01 14.33-2.46 21.52-3.46 2.87-.4 4.24-2.01 5.32-4.38 3.2-7.01 2.66-14.22.98-21.38-1.56-6.63-3.19-13.29-5.48-19.69-4.33-12.07-5.31-24.61-6.28-37.22-1.45-18.85-3.01-37.7-4.77-56.53-.35-3.73-1.57-7.45-2.87-11-6.34-17.27-7.9-35.18-7.79-53.41.07-10.52-.54-21.03-.7-31.55-.03-2.08-.75-3.17-2.59-4.09-17.09-8.48-34.94-12.37-53.59-6.8-15.88 4.74-31.97 2.6-47.99 3.13-.86.03-1.74-.38-2.61-.58-4.38-1.01-7.3-3.39-8.5-7.98-1.28-4.93-1.78-5-6.35-2.71-7.9 3.95-15.76 7.98-23.72 11.81-1.61.78-3.61 1.16-5.4 1.09-10.17-.41-20.33-1.44-30.49-1.41-7.57.02-15.13 1.4-22.71 2.05s-15.17 1.59-22.75 1.56c-4.8-.02-9.81-1.02-14.34-2.65-5.4-1.94-8.2-6.58-9.12-12.82 7.62-1.96 15.08-4.36 22.72-5.75 17.59-3.2 35.27-5.93 52.93-8.8 9.93-1.61 19.84-3.54 29.84-4.55 10.33-1.04 20.75-1.15 31.14-1.64 5.03-.23 10.07-.21 15.08-.61 8.86-.7 16.58 1.61 23.01 7.88.71.69 1.57 1.25 2.44 1.93 10.86-7.65 23.26-7 35.53-6.33 15.07.83 30.11 2.13 45.64 3.27.41 3.31.61 6.87 1.37 10.31.58 2.62 1.23 5.69 2.95 7.52 7.31 7.78 10.17 16.9 11.32 27.42 2.48 22.67 5.96 45.24 9.22 67.82.49 3.38 1.74 6.71 3.06 9.9 3.23 7.79 4.15 15.92 4.27 24.25.11 7.38.41 14.77.94 22.14.22 3.06.7 6.33 2.01 9.05 6.52 13.47 9.19 27.52 8.7 42.5-.36 11.05 1 22.15.78 33.22-.17 8.65 7.33 15.74 14.23 16.47 6.82.73 10.69 5.09 13.12 11.02.34.83.28 2.35-.26 2.94-6.69 7.27-13.73 14.15-23.1 17.97-1.54.63-3.18 1.06-4.8 1.45-6.46 1.58-6.54 1.53-9.6-4.22-2.5-4.69-3.73-4.9-8.41-2.64-3.6 1.74-7.46 2.97-11.27 4.23-.96.32-2.2.05-3.26-.19-7.19-1.65-14.5-2.94-21.51-5.18-8.29-2.66-16.45-2.46-24.78-.82-1.97.39-4.01.47-5.96.95-7.75 1.91-10.38-2.09-13.38-6.65-1.37-2.08-2.39-4.72-2.58-7.18-.7-8.96-.98-17.89-1.42-26.6z" fill="#010101"/></svg>