<svg viewBox="0 0 400 400" xmlns="http://www.w3.org/2000/svg"><rect width="400" height="400" fill="white" /><path d="m374.8 390.4.4-.4c.7.5 1.3 1 1.8 1.4l-.5.5c-.5-.6-1.1-1.1-1.7-1.5zm1 7.3-.6-.3c.5-1.4 1.1-2.8 1.5-4.3.2.1.4.2.6.3-.5 1.3-1 2.8-1.5 4.3zm-.4-10.3.4-.4c.4.3 1 .8 1.7 1.4l-.5.5c-.4-.5-1-1-1.6-1.5zm2.5.3h1.7v-1h.6v1h3.5v-1h.6v1h1.8v.5h-1.8v1.4h-2v1h3.2v2h-3.2v.9h3.3v.5h-3.4c0 .3-.1.6-.1.9h4v.5h-3.7c.7.9 1.9 1.5 3.8 1.7-.1.2-.2.4-.3.6-2.1-.4-3.5-1.1-4-2.1-.4 1-1.8 1.7-4 2.2-.1-.2-.2-.4-.3-.6 2.1-.4 3.4-1 3.8-1.8h-3.4v-.5h3.6c.1-.3.1-.6.2-.9h-3.3v-.5h3.4c0-.3 0-.6 0-.9h-3.2v-2h3.3v-1h-2.1v-1.4h-1.7v-.5zm1.1 3.5v1h2.7c0-.3 0-.4 0-.4 0-.1 0-.2 0-.2 0-.1 0-.2 0-.3h-2.7zm1.2-3v.9h3.5v-.9zm4.7 3h-2.6v.6.4h2.6z" fill="#fbfcfa"/><path d="m393.6 386.7h.6v1.5h2.7v6.1h1.1v.6h-11v-.6h1.1v-6.1h2.7v-1.5h.6v1.5h2.1v-1.5zm-2.7 8.8.4.6c-1.2.6-2.5 1.3-3.8 1.9-.1-.2-.2-.4-.3-.6 1.2-.6 2.5-1.2 3.7-1.9zm-2.2-6.7v2.4h2.1v-2.4zm0 3v2.5h2.1v-2.5zm2.8-3v2.4h2.1v-2.4zm0 3v2.5h2.1v-2.5zm6 6.1c-1.4-.7-2.7-1.3-3.9-1.8l.3-.6c1.5.6 2.7 1.2 3.9 1.7zm-1.2-9.1h-2.1v2.4h2.1zm-2.1 3v2.5h2.1v-2.5z" fill="#fbfcfa"/><path d="m119.15 86.77c3.74-.88 6.16-.21 8.58 3.16 3.85 5.35 5.67 10.75 5.23 17.38-.5 7.36-.3 14.78-.07 22.16.3 9.35-.31 18.52-3.2 27.49-.43 1.33.17 3 .29 4.51.01.11.06.22.11.32 6.96 13.22 8.47 27.27 8.32 42.1-.13 12.53 2.18 25.12 3.84 37.63 2.46 18.63 4.82 37.29 8.12 55.78 2.61 14.61 6.23 29.06 10.1 43.39 1.29 4.79 4.59 9.1 7.37 13.37.77 1.18 2.99 1.97 4.55 1.99 13.88.15 27.77.3 41.65-.05 3.77-.1 7.67-1.49 11.22-2.98 7.22-3.04 14.16-6.84 22.43-5.63.41.06.99 0 1.27-.25 5.77-5.11 12.36-9.25 14.19-17.88 2.77-13.02 1.62-25.81-.37-38.67-.41-2.65-.99-5.28-1.59-7.89-1.66-7.19-9.4-10.88-16.07-7.65-2.31 1.12-4.55 2.39-6.84 3.56-5.01 2.57-10.18 4.71-15.92 4.69-3.2-.01-5.43 1.44-7.46 3.71-1.63 1.82-3.52 3.4-5.72 5.49-2.13-5.53-3.94-10.76-6.14-15.83-1.83-4.22-3.12-8.25-.84-12.77.39-.78-.24-2.78-1.03-3.34-5.67-4.01-6.45-9.7-6.78-16.1-1.29-25.14-3.51-50.18-8.57-74.94-1.1-5.38-.17-11.39.79-16.94 1.97-11.38.06-22.51-1.13-33.72-.45-4.21-.93-8.43-1.4-12.7 2.34-.97 3.85-.45 5.31 1.45 5.37 6.98 11.92 9.53 20.92 6.97 11.8-3.36 23.9-5.71 35.9-8.32 2.18-.47 3.35-1.52 4.01-3.46 1.82-5.44 1-10.81-.39-16.18-1.28-4.97-3.03-9.91-3.57-14.96-.51-4.81.38-9.76.41-14.64.01-1.31-.51-3.05-1.44-3.85-3.08-2.67-6.89-4.36-10.85-2.82-16.35 6.35-33.64 5.28-50.6 6.7-9.16.76-17.86 2.85-26.16 6.65-5.41 2.47-10.77 5.37-16.95 4.3-4.19-.73-8.26-2.21-12.33-3.86 4.87-4.14 9.18-8.14 15.2-10.02 14.2-4.41 28.09-9.84 42.36-13.95 12.76-3.67 25.85-6.18 38.82-9.11 7.63-1.72 15.29-3.36 22.97-4.81 1.42-.27 3.23.21 4.54.92 2.35 1.27 4.38 3.12 6.7 4.46 1.9 1.09 2.51 2.53 2.6 4.63.88 19.23 1.85 38.46 2.79 57.69.22 4.58.37 9.17.71 13.75.16 2.1-.47 3.4-2.16 4.78-9.67 7.93-21.35 10.87-33.05 14-7.43 1.99-14.6 4.89-21.98 7.08-6.39 1.9-8.52 7.87-7.85 13.81 3.6 31.67 7.15 63.35 10.69 95.03.73 6.56 1.44 13.13 1.98 19.7.17 2.03 1.12 2.9 2.85 3.58 4.4 1.73 8.78 1.12 13.21.27 3.62-.7 7.28-1.21 10.87-2.04 1.67-.39 3.39-1.09 4.77-2.09 5.9-4.28 12.38-6.18 19.59-5.01 1.39.22 2.62 1.39 3.92 2.14.18.1.26.37.42.52 6.08 5.59 7.65 12.4 6.75 20.53-1.8 16.22.08 32.4 1.58 48.56.71 7.71-1.03 15.08-3.78 22.45-.73-.25-1.33-.44-1.92-.66-4.94-1.87-7.84-.87-11.04 3.38-2.74 3.64-5.44 7.41-8.75 10.49-2.17 2.03-5.26 3.3-8.15 4.3-11.79 4.11-24.21 3.88-36.44 4.99-6.8.62-13.64.76-20.4 1.62-4.13.52-7.68-.52-11.31-2.06-5.75-2.45-11.57-4.76-17.29-7.28-.96-.42-1.92-1.5-2.3-2.5-7.33-19.21-14.59-38.45-21.8-57.71-.49-1.32-.61-2.83-.62-4.26-.06-7.95.37-15.92-.11-23.84-.99-16.4-2.22-32.8-3.74-49.16-2.89-31.19-6.93-62.28-7.81-93.64-.42-14.88-1.37-29.74-2.07-44.61.02-1.1.06-2.19.06-3.3z" fill="#010101"/></svg>