<svg viewBox="0 0 400 400" xmlns="http://www.w3.org/2000/svg"><rect width="400" height="400" fill="white" /><path d="m150.9 373.55c-13.08.44-26.15.92-39.23 1.24-1.22.03-2.76-.68-3.65-1.55-3.21-3.17-4.5-7.12-4.93-11.68-.98-10.36-2.5-20.66-3.67-31-.22-1.95-.29-4.13.34-5.93 2.47-6.99-.04-13.72-.76-20.52-.56-5.33-2.3-10.64-2.19-15.93.15-7.71-1.88-15.31-1.39-22.84 1.6-24.15-1.26-48.06-2.61-72.06-.94-16.64-.79-33.33-1.12-50 2.83-6.32.1-12.66.23-18.97.25-11.95 1.3-23.9 2.5-35.8 1.28-12.68 3.02-25.32 4.79-37.95.51-3.63.76-8.15 3-10.43 2.12-2.16 6.66-2.15 10.19-2.68 26.99-4.05 53.98-8.11 81.26-9.64 4.02-.22 8.07.01 12.08-.31 5-.39 9.95-1.31 14.95-1.67 4.19-.3 8.49-.65 12.62-.08 12.94 1.78 25.87 1.42 38.83.64 8.34-.5 16.17 1.32 23.61 5.17 4.74 2.46 6.86 6.24 6.75 11.39-.36 16.66-.55 33.33-1.25 49.98-.36 8.47-1.52 16.91-2.61 25.33-.6 4.7-5.77 8.78-10.48 8.95-16.31.61-32.63 1.18-48.94 1.92-8.59.39-17.18.92-25.75 1.73-10.12.96-13.73 2.01-14.23 15.06-.08 2.12-.02 4.26.21 6.37.94 8.74.31 17.34-.84 26.07-1.15 8.71-1.01 17.61-1.16 26.43-.1 6.35.3 12.71.4 19.07.17 10.17.29 20.35.4 30.52.01 1.33.17 2.76-.23 3.98-2.62 8.03-.6 16.05.56 23.9.56 3.81 3.68 7.29 5.89 10.76.41.64 1.98.64 3.04.76 19.45 2.31 38.87.14 58.3-.49 4.92-.16 9.84-.29 14.75-.64 2.86-.21 4.39 1.16 5.33 3.58.28.73.5 1.5.58 2.27 1.77 18.62 3.24 37.23-.46 55.82-.58 2.91-1.51 5.08-4.42 5.93-5.44 1.58-10.82 3.78-16.38 4.45-18.53 2.24-37.1 4.18-55.7 5.73-19.5 1.62-39.04 2.65-58.56 3.94-.02-.27-.03-.55-.05-.82zm-38.98-200.55c9.04-1.07 16.81-2.01 24.59-2.9 11.89-1.35 23.79-2.62 35.68-4 4.45-.52 6.29-1.97 6.91-6.36.66-4.73.78-9.55.87-14.34.1-5.02-.5-10.08-.05-15.05.45-5.06 2.99-9.06 8.32-10.66 4.06-1.22 8-2.91 12.1-3.94 17.74-4.49 35.71-7.04 54.09-6.77 6.67.1 13.37-.8 20.01-1.6 1.4-.17 3.67-1.82 3.73-2.89.45-8.01.66-16.05.51-24.08-.12-6.57-.74-13.14-1.3-19.7-.23-2.63-.66-5.31-1.52-7.79-.36-1.04-2.01-2.16-3.19-2.31-18.84-2.42-37.6-5.79-56.74-4.94-7.82.35-15.82-.71-23.45.56-10.64 1.77-21.13 3.22-31.96 2.5-4.88-.32-9.92 1.41-14.78 1.01-7.17-.58-13.75 1.12-20.35 3.25-7.91 2.56-7.7 2.62-8.07 10.69-.48 10.46-2.25 20.79-2.23 31.35.04 17-.78 34-1.33 51-.15 4.79-.61 9.57-.94 14.36-.29 4.04-.58 8.08-.9 12.61zm100.22 179.12c.01.26.03.52.04.77 6.7 0 13.64 1.11 20.05-.26 9.46-2.02 18.86-3.42 28.5-3.54 4.6-.06 7.16-2.73 8.45-7.27 2.85-10.02 1.18-19.67-1.64-29.38-.77-2.67-1.73-3.56-4.48-3.43-18.55.88-37.1 1.52-55.64 2.5-3.24.17-6.56 1.28-9.59 2.54-3.23 1.34-6.17 1.29-8.91-.6-5.6-3.86-9.26-8.99-9.81-16.01-.32-4.13-.89-8.24-1.11-12.37-.37-6.77-2.66-13.34-1.55-20.28.8-4.95 1.07-10.02 1.23-15.04.12-3.76-1.96-5.77-5.5-5.72-18.72.25-36.89 3.47-54.48 10.01-2.83 1.05-3.24 2.42-2.76 5.24 1.25 7.22 3.09 14.44 1.09 21.89-.49 1.83-.15 3.98.19 5.91.67 3.74 2.04 7.39 2.36 11.14 1.3 15.28 2.28 30.58 3.48 45.86.21 2.65.69 5.33 1.45 7.87.32 1.08 1.6 2.48 2.61 2.64 3.92.62 8.07 1.67 11.85.99 8.78-1.59 17.48-2.32 26.34-1.12 2.2.3 4.47.29 6.69.16 13.7-.79 27.42-1.66 41.14-2.5zm-35.33-127.99c0-14.4 0-28.78 0-43.47-2.67-.22-4.94-.85-7.06-.51-18.59 3.02-37.15 6.22-56.3 9.47 3.7 15.25-2.37 30.61 2.77 45.81 4.56-.38 9.08-.33 13.41-1.21 15.74-3.19 31.42-6.69 47.18-10.09z" fill="#010102"/><g fill="#fafbfa"><path d="m6.4 11.7c-1-.8-1.9-1.6-2.9-2.3l.6-.7c.9.7 1.9 1.4 2.9 2.2zm-2.1 8.3c.7-2.1 1.4-4.2 2-6.4.2.1.6.3 1 .4-.7 2.3-1.3 4.4-1.9 6.4zm3-12.8c-1.1-.9-2.1-1.7-2.9-2.4l.6-.7c1 .8 2 1.5 3 2.4zm1.4-1.3v-.9h10.2v.9c-.9 4.2-2.3 7.3-4.1 9.4 1.3 1.4 3.2 2.7 5.7 4-.2.2-.4.5-.7.9-2.5-1.4-4.4-2.7-5.7-4.2-1.4 1.5-3.5 3-6.1 4.4 0 0 0 0-.1-.1-.3-.4-.5-.7-.7-.8 2.7-1.3 4.7-2.8 6.2-4.2-1.8-2.2-3-5.3-3.7-9.4zm9.2 0h-7.1c.6 3.8 1.7 6.7 3.4 8.7 1.7-2 2.9-4.8 3.7-8.7z"/><path d="m31.6 3.6h.9v2.3h4.1v9.1h1.7v.9h-16.6v-.9h1.7v-9.1h4.1v-2.3h.9v2.3h3.1v-2.3zm-4 13.3.6.8c-1.9.9-3.8 1.9-5.8 2.8-.2-.3-.3-.6-.5-.9 2-.9 3.9-1.8 5.7-2.7zm-3.2-10.1v3.7h3.1v-3.7zm0 4.5v3.7h3.1v-3.7zm4.1-4.5v3.7h3.1v-3.7zm0 4.5v3.7h3.1v-3.7zm9.1 9.1c-2.1-1.1-4.1-2-5.8-2.7l.5-.8c2.2.9 4.1 1.8 5.8 2.6zm-1.9-13.6h-3.1v3.7h3.1zm-3.2 4.5v3.7h3.1v-3.7z"/></g></svg>