<svg viewBox="0 0 400 400" xmlns="http://www.w3.org/2000/svg"><rect width="400" height="400" fill="white" /><path d="m198.77 38.27c18.02 0 36.04-.24 54.05.09 11.16.2 22.34.91 33.45 2.04 12.76 1.31 19.66 9.29 22.6 21.4 2.76 11.39 2.52 22.9 1.58 34.38-.59 7.21-2.31 14.32-3.35 21.5-.62 4.3-3.27 6.84-6.7 9.04-11.6 7.44-24.52 10.28-38.01 10.33-23.72.09-47.45-.36-71.17-.44-6.62-.02-13.17.65-19.02 4.36-3.73 2.37-5.68 5.78-5.76 10.03-.52 30.21-1.02 60.42-1.26 90.64-.03 4.28 1.39 8.56 2.1 12.85.66 4.01 3.56 5.57 7 6.73 12.82 4.33 26.07 4.85 39.43 4.88 18.22.04 36.46-.01 54.66.75 7.62.32 15.18 2.52 22.73 4.01 11.31 2.23 17.09 9.59 18.2 20.69 1.63 16.44.83 32.83-1.42 49.19-1.87 13.57-11.83 18.08-23.17 20.65-5.17 1.17-10.67.9-16.01 1.31-13.04 1-26.07 2.44-39.13 2.9-18.55.66-37.13 1.13-55.67.67-15.74-.39-31.56-1.43-47.12-3.69-8.65-1.26-16.86-5.55-25.23-8.6-.8-.29-1.4-1.38-1.9-2.21-6.19-10.28-9.28-21.42-9.87-33.41-.58-11.61-1.89-23.19-2.44-34.8-.5-10.39-.45-20.81-.56-31.21-.47-43.76-1.02-87.51-1.31-131.27-.15-21.95 2.91-43.49 9.89-64.37.56-1.68 1.75-3.34 3.08-4.55 9.51-8.68 21.32-11.83 33.63-13.76 15.38-2.42 30.83-.73 46.25-.91 6.83-.08 13.65-.01 20.48-.01-.03.26-.03.53-.03.79zm-86.35 304.28c1.41.77 2.4 1.45 3.49 1.9 9.11 3.78 18.7 5.5 28.48 5.43 17.44-.13 34.88-.7 52.32-1.14 5.76-.14 11.51-.43 17.45-.66-.6-23.13-1.18-45.78-1.77-68.49-1.02-.08-1.57-.12-2.11-.17-14.01-1.32-28.04-2.51-42.02-4.11-2.51-.29-3.79.1-5.25 2.02-8.43 11.02-16.99 21.94-25.5 32.89-8.25 10.61-16.47 21.21-25.09 32.33zm4.62-285.86c.27.48.49.97.8 1.39 16.61 21.95 33.21 43.9 49.92 65.78.69.9 2.42 1.53 3.6 1.43 7.69-.66 15.36-1.53 23.03-2.37 6.52-.71 13.04-1.46 19.17-2.15 0-23.16 0-45.93 0-69.14-32.51 1.28-64.71-2.79-96.52 5.06zm32.48 136.49c0-1.97-.04-3.08.01-4.18.78-18.24-1.04-36.75 5.92-54.35.41-1.04-.52-2.98-1.37-4.08-11.49-14.88-23.08-29.69-34.65-44.51-4.17-5.34-8.36-10.67-12.68-16.18-.38.62-.65.87-.69 1.16-1.41 11.88-3.75 23.73-4.01 35.64-.61 28.08-.22 56.19-.23 84.29 0 .87.13 1.73.17 2.22 15.84-.01 31.46-.01 47.53-.01zm-47.54 15.18c-.04.89-.11 1.54-.1 2.19.16 34.67.31 69.35.52 104.02.03 4.18.64 8.3 3.1 12.19.8-.96 1.38-1.63 1.93-2.32 12.9-16.33 25.43-32.98 38.87-48.86 5.68-6.72 7.34-13.39 6.27-21.75-1.52-11.87-2.33-23.82-3.38-35.75-.28-3.2-.35-6.41-.53-9.74-15.65.02-30.96.02-46.68.02zm129.07-86.06c12.31 0 24.37.17 36.41-.06 7.54-.14 14.76-2.05 21.63-5.32 2.12-1.01 3.29-2.36 3.82-4.6 3.24-13.63 4.52-27.5 2.12-41.26-2.67-15.31-5.75-16.66-18.76-17.77-14.78-1.26-29.68-.99-44.53-1.37-.18 0-.37.2-.68.39-.01 22.93-.01 45.93-.01 69.99zm-.03 227.12c12.39.23 24.44.62 36.48.6 7.72-.01 15.02-2.26 21.71-6.09 1.53-.88 3.05-2.7 3.52-4.38 3.36-12.2 3.94-24.7 2.81-37.23-.39-4.27-1.66-8.52-2.97-12.64-1.29-4.06-4.11-6.84-8.55-7.58-3.74-.62-7.46-1.74-11.21-1.82-11.95-.25-23.91-.11-35.86-.13-1.96 0-3.92 0-5.92 0-.01 23.26-.01 45.94-.01 69.27z" fill="#010101"/><g fill="#fbfafa"><path d="m6.4 11.7c-1-.8-1.9-1.6-2.9-2.3l.6-.7c.9.7 1.9 1.4 2.9 2.2zm-2.1 8.3c.7-2.1 1.4-4.2 2-6.4.2.1.6.3 1 .4-.7 2.3-1.3 4.4-1.9 6.4zm3-12.8c-1.1-.9-2.1-1.7-2.9-2.4l.6-.7c1 .8 2 1.5 3 2.4zm1.4-1.3v-.9h10.2v.9c-.9 4.2-2.3 7.3-4.1 9.4 1.3 1.4 3.2 2.7 5.7 4-.2.2-.4.5-.7.9-2.5-1.4-4.4-2.7-5.7-4.2-1.4 1.5-3.5 3-6.1 4.4 0 0 0 0-.1-.1-.3-.4-.5-.7-.7-.8 2.7-1.3 4.7-2.8 6.2-4.2-1.8-2.2-3-5.3-3.7-9.4zm9.2 0h-7.1c.6 3.8 1.7 6.7 3.4 8.7 1.7-2 2.9-4.8 3.7-8.7z"/><path d="m31.6 3.6h.9v2.3h4.1v9.1h1.7v.9h-16.6v-.9h1.7v-9.1h4.1v-2.3h.9v2.3h3.1v-2.3zm-4 13.3.6.8c-1.9.9-3.8 1.9-5.8 2.8-.2-.3-.3-.6-.5-.9 2-.9 3.9-1.8 5.7-2.7zm-3.2-10.1v3.7h3.1v-3.7zm0 4.5v3.7h3.1v-3.7zm4.1-4.5v3.7h3.1v-3.7zm0 4.5v3.7h3.1v-3.7zm9.1 9.1c-2.1-1.1-4.1-2-5.8-2.7l.5-.8c2.2.9 4.1 1.8 5.8 2.6zm-1.9-13.6h-3.1v3.7h3.1zm-3.2 4.5v3.7h3.1v-3.7z"/></g></svg>