<svg enable-background="new 0 0 400 400" viewBox="0 0 400 400" xmlns="http://www.w3.org/2000/svg"><path d="m378.6 9.2.8-1c.9.7 1.9 1.4 2.9 2.3l-.9 1.1c-1.1-.9-2-1.7-2.8-2.4zm.5 10.7c.9-2.1 1.6-4.3 2.3-6.7.4.2.8.4 1.3.6-.7 2.1-1.5 4.3-2.2 6.6zm.4-15.2.9-.9c1 .8 2 1.6 2.8 2.4l-1 1c-1-.9-1.9-1.8-2.7-2.5zm12.5-1.3h1.2v1.4h2.7v1.1h-2.7v2.7h-1.2v-.5h-1.8v1.3h4.9v3.8h-1.2v-.5h-3.7c0 .4-.1.9-.1 1.2h5.1v1h-5.2c0 .5-.1.9-.2 1.2h6v1h-5.2c1.1 1.3 2.9 2 5.5 2.2-.4.4-.7.8-.9 1.3-2.9-.5-4.8-1.6-5.7-3.5h-.1c-.8 1.7-2.7 2.9-5.9 3.6-.2-.4-.6-.8-.9-1.1 2.8-.6 4.6-1.4 5.4-2.5h-4.8v-1h5.3c.1-.3.2-.7.2-1.2h-4.9v-1h5c0-.4 0-.8.1-1.2h-3.6v.5h-1.2v-3.8h4.9v-1.3h-1.8v.5h-1.2v-2.7h-2.6v-1.1h2.6v-1.4h1.2v1.4h4.7v-1.4zm-6.7 8.4h3.6c0-.4 0-.9 0-1.4h-3.6zm1.9-4.7h4.7v-1.2h-4.7zm6.7 3.3h-3.7v1.4h3.7z" fill="#fcfafa"/><path d="m384.7 21.4h1.3v2.2h2.8v-2.2h1.3v2.2h4.1v9.1h1.7v1.3h-16.9v-1.3h1.7v-9.1h4.1v-2.2zm.3 13.2.7 1.2c-1.8.9-3.8 1.9-6 2.9-.2-.4-.5-.8-.8-1.3 2.4-1 4.4-2 6.1-2.8zm-3.1-6.5h2.8v-3.2h-2.8zm0 4.6h2.8v-3.3h-2.8zm4.1-4.6h2.8v-3.2h-2.8zm0 4.6h2.8v-3.3h-2.8zm3.6 1.9c2.1.9 4.1 1.8 6.1 2.7l-.7 1.3c-2.2-1.1-4.2-2-6.1-2.9zm3.3-9.7h-2.8v3.2h2.8zm-2.8 7.8h2.8v-3.3h-2.8z" fill="#fcfafa"/><path d="m241.21 155.2c2.01-2.82 4.25-5.5 5.99-8.48 5.14-8.83 13.21-13.88 22.41-17.19 17.91-6.43 36.22-7.68 54.77-3.09 1.63.4 3.31 1.39 4.52 2.56 6.02 5.8 10.96 12.44 14 20.28 4.43 11.43 3.54 22.55-2.45 33.24-1.2 2.14-2.72 4.12-3.84 6.3-5.6 10.95-12.81 20.24-24.37 25.6-2.76 1.28-5.1 3.63-7.39 5.75-7.18 6.63-7.73 17.28-1.52 24.97 4.58 5.68 5.99 12.58 7.52 19.51 1.27 5.74 3 11.41 4.97 16.94 1.1 3.07 3.37 4.94 7.08 2.92 1.54-.83 3.39-1.11 5.12-1.55 2.96-.75 5.52-1.85 7.54-4.46 1.19-1.54 3.38-2.54 5.32-3.19 2.48-.83 4.65-.14 6.44 2.2 5.46 7.15 5.76 15.27 4.86 23.66-.18 1.66-.59 3.3-.98 4.93-1.25 5.21-3.34 9.82-7.79 13.28-4.06 3.15-8.02 6.54-11.48 10.31-7.71 8.39-17.77 12.15-28.3 15.05-10.81 2.97-21.7 5.48-33.07 4.2-.75-.08-1.53.1-2.81.19 2.41 3.3.05 4.73-2.08 6.15-1.48.99-3.01 2.06-4.68 2.58-16.11 4.98-32.13 10.34-48.44 14.55-7.91 2.04-16.38 2.38-24.62 2.6-13.2.35-26.41-.03-39.62-.12-1.1-.01-2.23-.12-3.3-.38-11.82-2.88-23.64-5.79-35.44-8.73-1.5-.37-3.01-.84-4.39-1.52-8.82-4.35-18.1-8.03-26.28-13.37-10.05-6.56-20.36-13.2-27.85-22.89-4.55-5.9-5.83-13.29-6.86-20.47-3.41-23.87-2.41-47.78.13-71.66.24-2.22 1.28-4.5 2.46-6.44 3.71-6.12 7.97-11.92 11.46-18.16 9.55-17.05 23.94-30.04 36.83-44.26 2.23-2.47 5.92-3.55 8.66-5.63 3.63-2.75 7.77-5.3 10.31-8.91 5.85-8.33 13.97-14.04 21.3-20.74 8.07-7.37 16.59-14.84 22.47-23.86 7.34-11.28 13.22-23.69 13.39-38.05.1-8.9 1.98-17.77 2.92-26.67.23-2.19.07-4.47-.21-6.67-.45-3.55.46-6.55 2.65-9.38 1.75-2.27 3.89-2.64 5.66-.83 2.67 2.73 5.63 5.64 7.02 9.07 6.28 15.49 8.08 31.69 7.14 48.37-.93 16.5-6.25 31.99-10.14 47.81-.62 2.51-.16 4.01 1.6 5.87 6.93 7.3 13.63 14.82 20.44 22.24 1.59 1.73 3.15 3.52 4.97 4.97 5.1 4.04 8.67 3.89 13.62-.3 3.16-2.67 6.26-5.44 9.55-7.95 1.22-.93 2.92-1.24 4.4-1.83.12.22.25.45.39.68zm-108.98 177.74c2.06-.11 3.4-.15 4.74-.25 8.48-.65 10.66-2.66 11.96-10.96.21-1.33.46-2.65.66-3.97 2.63-16.86 10-31.26 22.91-42.47 16.56-14.39 33.31-28.57 50.17-42.6 8.55-7.12 16.21-15.42 26.78-19.95 7.29-3.12 14.07-7.46 21.42-10.38 11.83-4.71 21.08-12.02 27.8-22.92 2.28-3.69 3.68-7.34 4.01-11.48.47-5.97-8.15-11.6-13.67-9.08-7.54 3.44-13.96 8.39-19.69 14.32-8.85 9.18-17.06 19.12-26.73 27.34-25.49 21.68-51.75 42.45-77.41 63.93-5.88 4.92-12.14 8.14-19.5 9.58-3.4.67-6.79 1.41-10.21 1.98-10.53 1.78-20.44.19-29.65-5.45-2.54-1.56-5.27-2.96-8.09-3.89-7.83-2.6-15.25-5.8-21.12-11.88-.7-.72-1.91-1.19-2.94-1.32-5.63-.71-11.83 3.84-12.63 9.42-.44 3.08-.58 6.25-.41 9.36.55 10.04 5 18.67 10.16 27.01 5.17 8.35 11.66 15.19 20.79 19.36 4.36 1.99 8.41 4.66 12.67 6.88 8.99 4.68 18.69 6.66 27.98 7.42zm103.81-67.91c.95 1.75 2.13 3.42 2.81 5.26 3.01 8.16 5.62 16.48 8.87 24.53 2.07 5.12 4.96 9.93 7.66 14.78.52.94 1.78 1.9 2.82 2.06 7.1 1.07 13.83.29 19.53-4.65 3.72-3.22 7.28-6.65 11.15-9.67 3.99-3.11 7.03-6.84 8.81-11.53.47-1.24.7-2.77.43-4.05-.98-4.69-2.01-9.4-3.39-13.99-2.17-7.24-4.22-14.56-7.1-21.53-2.4-5.79-7.21-9.51-13.39-11.3-2.47-.72-4.39-.49-6.44 1.24-4.86 4.11-9.89 8.03-14.91 11.96s-10.08 7.76-13.27 13.53c-.75 1.36-2.35 2.24-3.58 3.36zm-126.67-23.87c6.87-.84 14.16-1.22 21.2-2.76 4.62-1.01 8.91-3.89 10.76-8.65 2.73-7.03 1.88-13.89-1.94-20.47-2.07-3.57-3.52-7.48-5.52-11.09-2.35-4.24-5.2-8.08-9.8-10.25-1.9-.89-3.33-.85-5.09.63-10.87 9.14-21.71 18.32-32.88 27.09-3.98 3.12-4.89 6.95-4.96 11.37-.03 1.75.64 3.5.86 5.27.42 3.43 2.2 5.33 5.71 5.79 7.08.93 14.13 1.99 21.66 3.07zm109.21 31.28c-3.01 2.41-6.56 4.2-8.59 7.06-5.82 8.21-13.73 13.98-21.51 19.97-.86.66-1.94 1.45-2.21 2.38-1.55 5.35-3.42 10.68-4.18 16.16-1 7.27 2.72 12.1 9.9 13.05 16.41 2.15 31.41-1.81 45.06-11.2 3.23-2.22 4.43-4.56 2.57-8.24-.74-1.47-.96-3.2-1.51-4.78-4.36-12.39-9.58-24.31-19.53-34.4zm-52.68-60.64c8.32-.26 15.38-2.22 21.65-6.84 9.07-6.68 14.19-17.94 11.64-26.81-2.17-7.55-7.71-12.65-13.55-17.44-5.76-4.72-12.5-6.07-19.45-4.42-7.48 1.77-12.73 7.36-17.39 13.07-2.39 2.92-3.21 6.56-1.04 10.79 4.63 9.02 8.61 18.38 12.7 27.67 1.24 2.84 2.55 4.98 5.44 3.98zm57.24-13.94c-.04-.46-.08-.92-.12-1.39-2.09.45-4.17.89-6.26 1.34 2.59 4.03 4.28.21 6.38.05z" fill="#010000"/></svg>