<svg enable-background="new 0 0 400 400" viewBox="0 0 400 400" xmlns="http://www.w3.org/2000/svg"><path d="m207.33 165.38c7.73.47 15.74 1.08 23.77 1.41 12.4.52 24.81.7 37.21 1.33 5.28.27 10.36 1.75 14.64 5.17 5.08 4.07 5.79 7.86 2.91 13.61-.58 1.16-.35 2.77-.31 4.17.05 1.42.72 2.92.45 4.25-1.07 5.23-2.14 10.38-5.71 14.8-5.41 6.7-10.2 13.89-15.53 20.66-2.38 3.03-5.17 5.87-8.22 8.22-8.85 6.84-17.98 13.33-26.87 20.11-1.26.96-2.32 2.73-2.61 4.29-.94 4.94-1.56 9.94-2.12 14.94-.15 1.37-.02 3.01.62 4.17 1.63 2.98 1.94 6.05 1.76 9.36-.62 11.4-1.2 22.8-1.58 34.21-.29 8.66.77 17.16 3.54 25.44.73 2.18 1.9 2.95 3.96 3.32 7.35 1.32 14.39.36 21.47-1.91 8.38-2.69 16.85-5.32 25.47-7 4.8-.93 10.04-.26 14.97.47 2.12.31 3.96 2.6 5.93 4-7.96 7.35-17.07 8.61-26.44 9.07-.99.05-2.26-.05-2.91.5-5.85 4.96-13.18 4.44-20.04 5.42-22.58 3.21-45.16 6.6-67.82 9.13-9.47 1.06-19.21.63-28.74-.13-4.73-.38-9.21-3.23-13.91-4.61-11.19-3.28-20.71-9.11-28.95-17.36-2.3-2.31-3.94-4.55-4.75-7.71-3.1-12.12-6.83-24.1-9.42-36.33-1.02-4.82.47-10.13.56-15.23.05-2.83-.26-5.69-.72-8.49-.36-2.19-1.23-4.29-1.85-6.44-1.95-6.72-2.35-13.23.95-19.86 5.89-11.83 6.19-25.07 8.79-37.73.65-3.17.91-6.43 1.68-9.57.51-2.11 1.32-4.25 2.47-6.07 3.65-5.76 3.88-11.97 3.06-18.45-.49-3.88-.77-7.79-.98-11.69-.16-2.92.61-5.51 3.41-7.1 2.53-1.44 3.46-3.73 3.93-6.57 2.48-15.01 5.91-29.72 11.72-43.92 2.62-6.41 3.09-13.69 4.7-20.54 3.28-13.97 7.98-27.43 14.03-40.47 2.43-5.23 3.63-11.03 5.76-16.42 1.55-3.91 3.68-7.6 5.61-11.35 1.69-3.29 4.32-3.8 8.02-2.12-2.48 4.69 1.46 6.45 4.2 8.97.94.87 1.53 2.34 1.84 3.64.36 1.5.3 3.11.34 4.68.2 9.16.98 18.01 4.55 26.82 3.05 7.55 3.68 16.06 5.54 24.11.43 1.87 1.05 4.11 2.38 5.27 3.84 3.36 3.85 7.78 4.39 12.19.31 2.52.81 5.07 1.64 7.46 3.74 10.76 7.86 21.4 11.33 32.24 1.32 4.12 1.25 8.69 1.88 13.64zm-.23 143.07c-.16 0-.31 0-.47 0 0-10.74.16-21.49-.08-32.23-.09-3.86-.93-7.74-1.83-11.52-.6-2.56-2.4-4.15-5.37-4.11-6.81.07-13.62-.01-20.43 0-7.47.01-14.96.27-22.42 0-3.42-.12-6.89-2.08-10.18-1.73-10.47 1.12-21.36.99-30.53 7.45-.94.67-1.89 2.25-1.8 3.32 1.34 15.23 1.46 30.64 6.46 45.36 2.69 7.91 4.6 16.14 7.92 23.77 3.98 9.14 10.66 15.88 21.06 17.9 2.41.47 4.73 1.35 7.13 1.88 10.49 2.3 20.95 4.81 31.85 3.02 4.83-.79 8.99-2.3 11.47-7.01 1.24-2.35 2.93-4.52 4.66-6.56 2.09-2.46 2.67-5.16 2.62-8.33-.16-10.4-.06-20.8-.06-31.21zm-85.78-65.28c17.19.76 33.84 1.3 50.46 2.28 15.66.93 30.99-.19 46.1-4.71 13.59-4.07 24.65-11.28 32.51-23.28 3.06-4.67 6.49-9.13 10.13-13.36 3.69-4.29 4.19-9.5 5.02-14.63.37-2.27-.6-4.05-3.54-4.09-23.24-.36-46.47-1.08-69.7-1.09-11.94-.01-23.89 1.05-35.82 1.94-9.04.68-17.4 3.13-22.82 11.35-.73 1.11-1.68 2.12-2.71 2.97-4.25 3.51-5.72 7.93-5.05 13.36.49 3.94-.51 7.54-3.66 10.33-.51.45-.88 1.33-.89 2.01-.06 5.57-.03 11.14-.03 16.92zm41.01-148.75c-.77 1.47-1.16 2.03-1.37 2.65-4.05 11.7-7.87 23.48-12.2 35.08-2.25 6.02-5.07 11.88-8.22 17.48-2.05 3.64-4.28 7.98-4.47 12.1-.01.22-.04.45-.04.67-.05 3.58 1.03 4.32 4.62 4.3 6.46-.03 12.94.01 19.38.49 7.83.59 15.57 1.34 23.2-1.43 2.82-1.02 3.74-2.3 2.94-5.4-2.39-9.19-4.31-18.5-6.66-27.69-2.6-10.17-5.02-20.45-10.5-29.57-1.79-2.97-4.24-5.55-6.68-8.68z" fill="#010100"/><g fill="#fcfbfa"><path d="m377.9 391.2c-.2.3-.4.5-.6.8-.7-.6-1.4-1-2.2-1.5.2-.3.4-.5.5-.8.6.4 1.4.8 2.3 1.5zm-1.8 6.1c-.2-.2-.5-.4-.9-.6.4-.6.8-1.2 1.2-1.9s.7-1.3.9-1.9c.3.3.5.5.8.7-.7 1.3-1.4 2.6-2 3.7zm2.2-9c-.3.3-.5.5-.6.8-.6-.6-1.3-1.1-2-1.5.3-.3.5-.5.6-.7.6.5 1.3.9 2 1.4zm.3.2v-.9h2 4.5c-.3 1.3-.6 2.5-1 3.6s-.9 2.1-1.4 3c.4.5 1 1 1.6 1.4s1.2.8 1.9 1.1c-.3.2-.5.4-.8.8-.4-.3-1-.7-1.6-1.2s-1.2-1.1-1.6-1.6c-.5.6-1.1 1.1-1.7 1.6s-1.4.9-2.1 1.4c-.1-.3-.3-.5-.7-.8.6-.2 1.2-.5 1.9-1s1.4-1.1 2-1.8c-.5-.8-.9-1.6-1.2-2.5s-.6-2-.8-3.2c-.4.1-.7.1-1 .1zm2.5 2.7c.3 1 .7 1.7 1 2.2.3-.5.6-1.1 1-2s.6-1.9.9-3h-3.2-.4c.1.9.3 1.8.7 2.8z"/><path d="m396.5 388.5v1.5 3.6h1.5v.9c-.4 0-1 0-1.7 0h-7.9c-.5 0-.9 0-1.2 0v-.9h1.3v-3.5c0-.7 0-1.2 0-1.6h2.4c0-.8 0-1.4 0-1.7h1c0 .3-.1.8-.1 1.7h1.5c0-.8 0-1.4 0-1.7h1c0 .3-.1.9-.1 1.7zm-8.2 9.2c-.2-.3-.5-.5-.8-.8.8-.3 1.4-.6 1.9-.9s1-.7 1.4-1.1c.3.3.6.5.9.8-1.6 1-2.8 1.6-3.4 2zm2.6-6.8v-1.6h-1.5v1.6zm0 2.7v-1.9h-1.5v1.9zm2.4-2.7v-1.6h-1.5v1.6zm0 2.7v-1.9h-1.5v1.9zm.2 2 .7-.8c.4.2.9.5 1.6.8s1.3.7 1.8 1c-.3.3-.5.5-.8.8-.4-.3-1.5-1-3.3-1.8zm2-4.7v-1.6h-1.4v1.6zm0 2.7v-1.9h-1.4v1.9z"/></g></svg>