<svg enable-background="new 0 0 400 400" viewBox="0 0 400 400" xmlns="http://www.w3.org/2000/svg"><path d="m206.22 365.69c.44 3.37 1.66 4.92 4.12 3.9.62-.26.56-2.14.93-3.79.77-.4 2.27-1.36 3.9-1.95 1.43-.52 3-.65 4.52-.92.31-.06.69.16.98.07 11.69-3.83 22.93-8.34 27.65-21.16 3.98-10.82 3.67-21.81-.27-32.51-1.17-3.19-4.21-5.69-6.15-8.98 1.31.65 2.89 1.03 3.88 2 8.37 8.25 13.01 17.83 10.18 29.92-.48 2.07-1.07 4.12-1.35 6.22-1.47 10.93-9.25 17.49-16.86 24.05-1.25 1.08-3.81.53-5.67 1.07-1.02.29-2.06 1.12-2.71 1.99-.69.91-1.12 3.15-1.36 3.11-1.78-.32-3.58-.88-5.19-1.73-1.09-.57-1.89-1.72-3.25-3.02-.73 3.23-1.32 5.81-1.78 7.82-3.17.98-5.91 2.23-8.77 2.62-3.69.5-7.67 1.12-11.18.26-8.01-1.98-16.05-4.25-23.59-7.54-5.23-2.28-9.71-6.34-14.37-9.81-2.69-2-6.71-3.08-6.21-7.82.05-.51-1.57-1.47-2.55-1.76-2.21-.67-2.83-2.28-3.68-4.23-1.02-2.33-2.98-4.25-4.45-6.4-.91-1.32-2.25-2.67-2.41-4.12-1.62-14.79-3.42-29.56-2.49-44.51.55-8.82.17-17.72 1.18-26.47 1.22-10.63 2.82-21.31 5.41-31.68 3.06-12.22 7.09-24.22 11.18-36.16 8.93-26.1 17.57-52.33 27.5-78.05 5.97-15.48 13.7-30.35 21.48-45.04 7.32-13.82 15.73-27.06 23.68-40.55.61-1.04 1.27-2.04 2.62-2.75-.64 1.57-1.05 3.29-1.95 4.69-6.37 9.93-11.18 20.57-15.1 31.67-1.07 3.02-2.88 5.79-4.37 8.69-.5 1.47-.85 3.13-1.61 4.58-1.74 3.33-4.01 6.41-5.5 9.83-7.31 16.91-14.51 33.86-21.56 50.87-2.56 6.19-4.6 12.59-6.9 18.88-3.58 9.75-7.38 19.42-10.72 29.25-4.19 12.32-8.16 24.73-11.9 37.19-1 3.34-.55 7.08-1.21 10.55-2.14 11.18-4.51 22.32-6.73 33.48-.25 1.28-.18 2.64-.12 3.96.27 5.91.82 11.83.83 17.74.01 5.21-.55 10.43-.85 15.64-.02.32-.05.77.13.96 3.32 3.5 2.35 7.79 1.97 11.82-.6 6.43 1.92 11.77 5.12 16.98 1.64 2.67 3.42 5.27 4.74 8.09.81 1.74 1.38 3.89 1.16 5.76-.34 2.87.82 4.53 3.13 5.54 6.03 2.63 12.45 4.56 18.08 7.85 4.43 2.59 9.1 3.3 13.79 4.46.74.18 1.45.93 1.94 1.59 1.88 2.54 4.66 2.75 7.04.82 1.45-1.18 3.35-1.79 5.67-2.97z" fill="#010100"/><path d="m200.53 357.95c-3.14-2.5-6.7-4.31-8.82-8.22-4.96-9.14-10.09-18.18-12.99-28.25-.66-2.28-1.84-2.74-3.92-2.17-5.28 1.43-10.53 3-15.89 4.09-2.36.48-4.93-.1-7.4-.2-.09-.56-.18-1.12-.27-1.68 6.13-2.1 12.11-5.06 18.41-6.12 14.48-2.44 26.72-9.92 39.48-16.26 2.46-1.22 4.7-3.05 6.71-4.95 3.61-3.42 3.43-7.28.01-10.8-3.99-4.1-8.52-5.72-13.92-3.19-3.21 1.5-6.59 2.89-9.38 5-13.02 9.85-25.54 20.37-39.67 28.67-.75.44-1.47.93-2.72.92 2.7-3.1 5.2-6.41 8.16-9.24 3.05-2.92 6.55-5.37 9.85-8.02 3.25-2.61 6.51-5.21 10.27-8.23-1.95-1.34-2.92-2.35-4.09-2.76-11.02-3.92-15.67-12.79-16.9-23.38-1.28-11.03-1.32-22.21-1.91-33.33.61-.03 1.22-.05 1.83-.08 0 2.32-.1 4.64.02 6.95.17 3.17.19 6.39.85 9.47 1.39 6.43 3.25 12.75 4.76 19.16 1.77 7.54 5.68 13.79 11.13 19.16 2.49 2.46 5.2 3.38 8.4 1.19 3.03-2.08 6.05-4.19 9.19-6.1 6.7-4.09 13.78-6.78 21.88-6.1 4.65.39 7.11 2.95 8.71 7 1.88 4.74 3.08 9.42-.06 14.06-.53.78-1.52 1.28-2.37 1.8-8.12 4.94-16.2 9.94-24.41 14.73-2.88 1.68-6.09 2.78-9.13 4.17-2.59 1.18-3.74 3.12-2.94 5.96.75 2.68 1.4 5.4 2.4 7.99 1.92 4.96 3.68 10.04 6.22 14.69 1.72 3.14 4.74 5.56 7 8.43 1.13 1.44 1.86 3.2 2.77 4.81-.41.27-.84.55-1.26.83z" fill="#010100"/><g fill="#fcfbfa"><path d="m377.9 391.2c-.2.3-.4.5-.6.8-.7-.6-1.4-1-2.2-1.5.2-.3.4-.5.5-.8.6.4 1.4.8 2.3 1.5zm-1.8 6.1c-.2-.2-.5-.4-.9-.6.4-.6.8-1.2 1.2-1.9s.7-1.3.9-1.9c.3.3.5.5.8.7-.7 1.3-1.4 2.6-2 3.7zm2.2-9c-.3.3-.5.5-.6.8-.6-.6-1.3-1.1-2-1.5.3-.3.5-.5.6-.7.6.5 1.3.9 2 1.4zm.3.2v-.9h2 4.5c-.3 1.3-.6 2.5-1 3.6s-.9 2.1-1.4 3c.4.5 1 1 1.6 1.4s1.2.8 1.9 1.1c-.3.2-.5.4-.8.8-.4-.3-1-.7-1.6-1.2s-1.2-1.1-1.6-1.6c-.5.6-1.1 1.1-1.7 1.6s-1.4.9-2.1 1.4c-.1-.3-.3-.5-.7-.8.6-.2 1.2-.5 1.9-1s1.4-1.1 2-1.8c-.5-.8-.9-1.6-1.2-2.5s-.6-2-.8-3.2c-.4.1-.7.1-1 .1zm2.5 2.7c.3 1 .7 1.7 1 2.2.3-.5.6-1.1 1-2s.6-1.9.9-3h-3.2-.4c.1.9.3 1.8.7 2.8z"/><path d="m396.5 388.5v1.5 3.6h1.5v.9c-.4 0-1 0-1.7 0h-7.9c-.5 0-.9 0-1.2 0v-.9h1.3v-3.5c0-.7 0-1.2 0-1.6h2.4c0-.8 0-1.4 0-1.7h1c0 .3-.1.8-.1 1.7h1.5c0-.8 0-1.4 0-1.7h1c0 .3-.1.9-.1 1.7zm-8.2 9.2c-.2-.3-.5-.5-.8-.8.8-.3 1.4-.6 1.9-.9s1-.7 1.4-1.1c.3.3.6.5.9.8-1.6 1-2.8 1.6-3.4 2zm2.6-6.8v-1.6h-1.5v1.6zm0 2.7v-1.9h-1.5v1.9zm2.4-2.7v-1.6h-1.5v1.6zm0 2.7v-1.9h-1.5v1.9zm.2 2 .7-.8c.4.2.9.5 1.6.8s1.3.7 1.8 1c-.3.3-.5.5-.8.8-.4-.3-1.5-1-3.3-1.8zm2-4.7v-1.6h-1.4v1.6zm0 2.7v-1.9h-1.4v1.9z"/></g></svg>