<svg enable-background="new 0 0 400 400" viewBox="0 0 400 400" xmlns="http://www.w3.org/2000/svg"><g fill="#fcfafa"><path d="m342.2 3.2-6.3 9.2h6.1v1.2h-8.2v-.5l6.2-9.1h-5.7v-1.2h7.8v.4z"/><path d="m344 13.7v-10.9h3.1c1.6 0 3 .5 4.1 1.4 1.1 1 1.6 2.2 1.6 3.9s-.5 3-1.6 4-2.5 1.5-4.2 1.5h-3zm1.4-9.6v8.4h1.6c1.4 0 2.5-.4 3.2-1.1.8-.8 1.2-1.8 1.2-3.2s-.4-2.4-1.2-3.1-1.8-1-3.1-1z"/><path d="m356.3 2.8v10.9h-1.4v-10.9z"/><path d="m366.6 13.2c-.8.4-1.8.6-3 .6-1.6 0-2.8-.5-3.7-1.5s-1.4-2.3-1.4-3.9c0-1.7.5-3.2 1.6-4.2s2.4-1.6 4-1.6c1 0 1.9.1 2.6.4v1.5c-.8-.4-1.6-.6-2.6-.6-1.2 0-2.2.4-3 1.2s-1.1 1.9-1.1 3.3c0 1.3.4 2.3 1.1 3.1s1.6 1.1 2.8 1.1c1.1 0 2-.2 2.8-.7v1.3z"/><path d="m368.2 13c0-.3.1-.5.3-.6.2-.2.4-.3.6-.3.3 0 .5.1.7.3s.3.4.3.6-.1.5-.3.6c-.2.2-.4.3-.7.3s-.5-.1-.6-.3c-.2-.2-.3-.4-.3-.6z"/><path d="m381.1 13.7h-1.7l-5.5-8.4c-.2-.2-.3-.5-.4-.7 0 .2.1.8.1 1.5v7.6h-1.4v-10.9h1.8l5.3 8.3c.3.4.4.6.4.8 0-.3-.1-.8-.1-1.6v-7.5h1.4v10.9z"/><path d="m389.7 13.7h-5.8v-10.9h5.6v1.2h-4.2v3.5h3.9v1.2h-3.9v3.7h4.4z"/><path d="m398.4 4.1h-3.1v9.6h-1.4v-9.6h-3.1v-1.3h7.7v1.3z"/></g><path d="m110.28 25.29c5.99.79 12.13 1.17 18.07 2.48 9.59 2.12 19.12 4.58 28.5 7.46 3.28 1 6.39 3.28 8.97 5.64 3.97 3.63 4.64 9.61 1.3 13.76-10.14 12.6-14.56 27.79-20.14 42.51-3 7.91-6.69 15.56-10.07 23.33-.22.51-.52.99-.76 1.49-3.79 8.22-3.28 9.92 4.34 14.41 13.78 8.11 27.6 16.16 41.32 24.38 2.23 1.34 4.27 1.56 6.66.92 10.25-2.74 19.6-7.5 28.69-12.82 9.37-5.48 18.71-11.05 29.27-13.97 3.86-1.07 7.83-1.95 11.81-2.34 6.57-.64 12.22 3.33 15.49 10.08 3.01 6.22 6.17 12.36 9.33 18.51.5.97 1.32 1.78 2.23 2.97 1.9-3.42 2.39-6.63.73-9.92-2.31-4.59-4.74-9.11-7.14-13.66-.56-1.05-1.18-2.07-2.07-3.61 4.72-.38 8.91-.76 13.11-.98.58-.03 1.32.7 1.8 1.24 6.49 7.35 5.75 23.54-1.06 30.48-2.21 2.26-3.65 5.28-5.4 7.98-3.21 4.94-5.9 10.31-9.68 14.76-10.51 12.36-21.33 24.48-32.32 36.42-5.06 5.51-10.69 10.52-16.29 15.5-2.23 1.99-3.14 4.2-2.34 6.8 1.54 4.99 3.08 10.03 5.28 14.74 3.73 7.99 7.53 16.03 12.2 23.48 2.17 3.47 6.41 5.67 9.84 8.29.47.36 1.71-.11 2.52-.39 3.7-1.27 7.47-2.39 11.04-3.97 13.8-6.11 28.42-8.27 43.27-9.79 6.77-.69 13.41-.69 19.99.88 2.21.53 4.54 1.5 6.27 2.93 3.22 2.67 2.47 6.33-1.26 7.88-20.33 8.44-40.68 16.85-60.99 25.34-2.25.94-4.41 2.15-6.45 3.5-12.58 8.34-24.6 17.69-37.78 24.92-22.6 12.41-46.62 21.58-71.98 26.96-14.02 2.98-27.57.97-40.94-3.34-6.7-2.16-13.26-4.74-19.98-6.82-4.3-1.33-7.61-3.79-10.94-6.74-10.37-9.23-17.18-20.43-20.5-33.88-1.07-4.33-2.15-8.79-4.14-12.73-4.74-9.36-4.16-18.99-1.5-28.41 5.4-19.13 11.13-38.19 17.34-57.07 14.42-43.84 29.32-87.52 43.73-131.36 1.86-5.65 2.07-11.86 2.84-17.83 1.09-8.54 2-17.11 2.94-25.68.6-5.51-1.59-9.27-6.72-11.64-.71-.33-1.47-.55-2.2-.81-6.03-2.18-7.69-5.19-6.23-12.28zm-29.82 284.2c-.08 1.42-.17 2.07-.15 2.71.28 12.06 11.16 27.36 22.44 31.82 23.04 9.1 45.36 8.39 67.49-3.49 17.66-9.48 34.75-19.78 51.16-31.27 2.87-2.01 3.36-3.81 2.17-6.86-4.98-12.76-12.15-24.11-21.74-33.89-1.23-1.26-2.82-2.18-4.25-3.24-1.83-1.36-3.45-1.35-5.44.07-4.72 3.38-9.62 6.53-14.49 9.7-10.75 6.99-21.16 14.41-33.21 19.35-12.58 5.16-24.81 11.25-36.93 17.44-4.65 2.38-8.84 2.48-13.44.82-1.57-.57-3.08-1.4-4.7-1.75-2.87-.61-5.79-.93-8.91-1.41zm3.23-16.87c1.2-.17 1.44-.16 1.64-.24 5.11-2.25 10.18-4.57 15.31-6.77 27.98-12 53.58-27.61 75.42-49.05 2.1-2.06 2.81-4.15 2.46-6.81-1.05-7.85-4.15-14.8-9.46-20.68-1.09-1.21-2.55-2.31-4.06-2.86-1.42-.52-3.34-.76-4.67-.22-19.66 7.96-39.27 16.04-58.85 24.19-1.19.49-2.47 1.64-2.95 2.8-6.11 14.67-11.19 29.68-13.96 45.36-.81 4.59-.6 9.39-.88 14.28zm111.99-104.29c1.21 3.38 1.88 6.11 3.14 8.53 1.37 2.67 3.24 5.08 4.96 7.56 4.21 6.07 5.48 6.43 12.25 3.26 1.91-.89 3.88-1.9 5.42-3.3 4.54-4.13 9.01-8.35 13.27-12.77 7.53-7.8 14.94-15.73 22.28-23.72 1.23-1.33 2.21-3.11 2.67-4.86.39-1.52.45-4.22-.37-4.71-1.28-.77-3.69-.7-5.16 0-18.39 8.68-36.71 17.49-54.99 26.4-1.37.69-2.27 2.33-3.47 3.61zm-84.64 14.12c.88-.21 1.12-.21 1.3-.32 11.5-6.44 22.94-12.99 34.54-19.25 2.99-1.61 4.01-3.19 3.48-6.7-1.72-11.52-11.76-23.68-22.47-26.26-5.56 17.35-11.14 34.72-16.85 52.53z" fill="#010103"/></svg>