<svg enable-background="new 0 0 400 400" viewBox="0 0 400 400" xmlns="http://www.w3.org/2000/svg"><path d="m372.03 250.71c-6.51 6.49-13.64 11.03-22.38 12.85-11.47 2.38-22.86 5.24-34.41 7.13-5.3.86-10.91-.23-16.37-.22-18.44.06-36.89.18-55.33.37-2.31.02-4.62.55-7.24.89.56-2.09 1.1-3.84 1.49-5.64.41-1.88-.15-3.59-2.21-3.79-1.87-.18-4.66-1.53-5.32 1.59-1.1 5.21-4.41 5.69-9.01 5.68-26.96-.09-53.93.16-80.9.22-7.61.02-15.23.08-22.82-.39-10.3-.63-20.22 2.01-30.33 2.8-8.43.66-16.94.3-25.4.67-7.34.32-14.69.76-21.97 1.66-5.38.66-10.42-.09-14.76-2.96-1.74-1.15-2.2-4.21-2.82-5.49 2.63-2.32 4.32-4.2 6.37-5.52 3.28-2.11 7.02-3.55 10.19-5.8 6.54-4.63 13.72-5.58 21.52-5.55 21.04.08 42.08-.24 63.11-.62 7.93-.14 15.85-1.05 23.79-1.3 2.95-.09 3.09-2.26 3.64-3.95.33-1.03-.07-2.83-.83-3.61-9.75-9.84-18.01-20.8-24.83-32.83-1.54-2.72-2.86-5.56-4.23-8.37-2.95-6.06-5.15-7.12-11.64-6.05-18.97 3.14-37.94 6.32-56.96 9.17-3.54.53-7.4.01-10.93-.82-1.63-.39-3.34-2.48-4.06-4.2-.94-2.25-.32-4.69 2.34-5.84 4.22-1.83 8.46-3.6 13.16-5.6-1.28-4.21 2.58-5.03 5.87-6.37 1.97-.8 4.12-2.68 5.81-2.31 4.24.92 7.59-1.84 11.61-1.74 15.98.43 31.53-3.4 47.29-5.26 1.34-.16 2.73-.94 3.85-1.76 6.14-4.5 12.16-9.14 18.31-13.62 1.11-.81 2.61-1.09 4.11-1.69 3.17-6.37 6.65-13.19 9.96-20.08 1.55-3.23 8.56-7.24 12.15-6.64 6.77 1.12 11.16 5.01 11.25 10.49.07 4.35-.53 8.71-.59 13.06-.12 9 1.3 12.24 12.39 14.67 5.47 1.2 11.35.57 17.04.75 1 .03 2.26-.44 2.98 0 7.18 4.41 15.51 2.82 23.22 4.52 22.13 4.89 44.66 6.59 67.31 6.87 2.76.03 5.54.75 8.25 1.41 3.27.79 5.14 2.86 5.36 6.4.22 3.39-1.14 5.17-4.34 6.51-10.03 4.2-20.35 4.68-30.97 3.54-8.59-.92-17.22-1.18-25.61 1.46-1.48.47-3.02 1.44-4.04 2.61-6.45 7.44-12.52 15.22-19.19 22.46-4.9 5.32-10.44 10.07-15.81 14.94-3.46 3.14-7.24 5.96-8.94 11.53 3.26.79 6.2 2.05 9.19 2.16 33.42 1.25 66.85 2.34 100.27 3.45.77.03 1.74.17 2.28-.22 4.02-2.87 8.37-1.87 12.87-1.86 8.19.02 16.45.29 24.58-2 3.14-.89 6.81-.08 10.21.24.86.07 1.59 1.25 2.47 2zm-191.28-18.93c.37-.19.75-.39 1.13-.6 8.38-4.55 13.25-12.09 17.37-20.31 2.74-5.48 6.25-10.47 11.55-13.69 3.43-2.08.96-4.58.99-6.82.01-.74-1.83-1.97-2.97-2.17-13.75-2.52-27.52-4.91-41.3-7.27-2.29-.39-4.91-1.27-6.9-.56-4.91 1.74-9.53 4.26-15.07 6.84 3.01 5.75 4.99 11.86 8.82 16.4 8.27 9.8 17.49 18.79 26.38 28.18zm-32.71-71.64c1.26 4.01 2.51 8.01 3.98 12.68 2.02-4.76.52-9.75-3.98-12.68z" fill="#010000"/><g fill="#fbfcfa"><path d="m361.2 9.6.8-1c.9.7 1.9 1.4 2.9 2.3l-.9 1.1c-1-1-2-1.8-2.8-2.4zm.5 10.6c.9-2.1 1.6-4.3 2.3-6.7.4.2.8.4 1.3.6-.7 2.1-1.5 4.3-2.2 6.6zm.4-15.2.9-.9c1 .8 2 1.6 2.8 2.4l-1 1c-.9-.9-1.8-1.7-2.7-2.5zm12.5-1.2h1.2v1.4h2.7v1.1h-2.7v2.7h-1.2v-.6h-1.8v1.3h4.9v3.8h-1.2v-.5h-3.7c0 .4-.1.9-.1 1.2h5.1v1h-5.2c0 .5-.1.9-.2 1.2h6v1h-5.2c1.1 1.3 2.9 2 5.5 2.2-.4.4-.7.8-.9 1.3-2.9-.5-4.8-1.6-5.7-3.5h-.1c-.8 1.7-2.7 2.9-5.9 3.6-.2-.4-.6-.8-.9-1.1 2.8-.6 4.6-1.4 5.4-2.5h-4.8v-1h5.3c.1-.3.2-.7.2-1.2h-4.9v-1h5c0-.4 0-.8.1-1.2h-3.5v.5h-1.2v-3.8h4.9v-1.3h-1.8v.5h-1.2v-2.7h-2.7v-1h2.6v-1.4h1.2v1.4h4.7v-1.4zm-6.6 8.3h3.6c0-.4 0-.9 0-1.4h-3.6zm1.9-4.6h4.7v-1.3h-4.7zm6.6 3.2h-3.7v1.4h3.7z"/><path d="m385.3 3.8h1.3v2.2h2.8v-2.2h1.3v2.2h4.1v9.1h1.7v1.3h-16.9v-1.3h1.7v-9.1h4.1v-2.2zm.4 13.1.7 1.2c-1.8.9-3.8 1.9-6 2.9-.2-.4-.5-.8-.8-1.3 2.3-1 4.3-1.9 6.1-2.8zm-3.1-6.4h2.8v-3.2h-2.8zm0 4.6h2.8v-3.3h-2.8zm4-4.6h2.8v-3.2h-2.8zm0 4.6h2.8v-3.3h-2.8zm3.7 1.9c2.1.9 4.1 1.8 6.1 2.7l-.7 1.3c-2.2-1.1-4.2-2-6.1-2.9zm3.2-9.7h-2.8v3.2h2.8zm-2.8 7.8h2.8v-3.3h-2.8z"/></g></svg>