<svg enable-background="new 0 0 400 400" viewBox="0 0 400 400" xmlns="http://www.w3.org/2000/svg"><path d="m374.8 390.4.4-.4c.7.5 1.3 1 1.8 1.4l-.5.5c-.5-.6-1.1-1.1-1.7-1.5zm1 7.3-.6-.3c.5-1.4 1.1-2.8 1.5-4.3.2.1.4.2.6.3-.5 1.3-1 2.8-1.5 4.3zm-.4-10.3.4-.4c.4.3 1 .8 1.7 1.4l-.5.5c-.4-.5-1-1-1.6-1.5zm2.5.3h1.7v-1h.6v1h3.5v-1h.6v1h1.8v.5h-1.8v1.4h-2v1h3.2v2h-3.2v.9h3.3v.5h-3.4c0 .3-.1.6-.1.9h4v.5h-3.7c.7.9 1.9 1.5 3.8 1.7-.1.2-.2.4-.3.6-2.1-.4-3.5-1.1-4-2.1-.4 1-1.8 1.7-4 2.2-.1-.2-.2-.4-.3-.6 2.1-.4 3.4-1 3.8-1.8h-3.4v-.5h3.6c.1-.3.1-.6.2-.9h-3.3v-.5h3.4c0-.3 0-.6 0-.9h-3.2v-2h3.3v-1h-2.1v-1.4h-1.7v-.5zm1.1 3.5v1h2.7c0-.3 0-.4 0-.4 0-.1 0-.2 0-.2 0-.1 0-.2 0-.3h-2.7zm1.2-3v.9h3.5v-.9zm4.7 3h-2.6v.6.4h2.6z" fill="#fbfcfa"/><path d="m393.6 386.7h.6v1.5h2.7v6.1h1.1v.6h-11v-.6h1.1v-6.1h2.7v-1.5h.6v1.5h2.1v-1.5zm-2.7 8.8.4.6c-1.2.6-2.5 1.3-3.8 1.9-.1-.2-.2-.4-.3-.6 1.2-.6 2.5-1.2 3.7-1.9zm-2.2-6.7v2.4h2.1v-2.4zm0 3v2.5h2.1v-2.5zm2.8-3v2.4h2.1v-2.4zm0 3v2.5h2.1v-2.5zm6 6.1c-1.4-.7-2.7-1.3-3.9-1.8l.3-.6c1.5.6 2.7 1.2 3.9 1.7zm-1.2-9.1h-2.1v2.4h2.1zm-2.1 3v2.5h2.1v-2.5z" fill="#fbfcfa"/><path d="m93.85 358.75c9.75-4.87 19.79-4.72 29.89-4.7 6.22.02 12.45-.73 18.65-1.33 2.41-.24 3.71-1.78 4.33-4.34 3.06-12.83 6.43-25.58 9.43-38.42.51-2.19.12-4.81-.56-7.02-.78-2.54-1.07-4.73-.15-7.37 3.95-11.28 7.98-22.56 11.28-34.04 1.71-5.95 1.76-12.35 2.89-18.49 2.29-12.53 4.64-25.05 7.25-37.51 3.21-15.28 3.88-30.56 1.26-45.87-.32-.2-.54-.44-.69-.41-8.75 2.28-17.51 4.54-26.24 6.94-1 .27-1.83 1.24-2.68 1.96-14.83 12.62-29.74 25.15-44.41 37.96-3.57 3.12-6.29 7.22-9.49 10.78-1.39 1.56-2.78 3.39-4.58 4.24-2.04.96-4.96 1.91-6.73 1.13-2.62-1.15-3.53-7.31-2.28-10.06 1.48-3.25 2.97-6.51 4.58-9.69.42-.82 1.19-1.65 2.01-2.05 11.92-5.77 21.38-14.57 30.18-24.21 10.79-11.82 21.31-23.9 32.47-35.36 4.52-4.64 10.46-7.9 15.71-11.85 2.58-1.94 5.33-3.77 7.53-6.09 2.96-3.12 4.7-6.78 4.73-11.43.12-18.13.62-36.25.89-54.38.1-6.8-.23-13.61 0-20.41.15-4.53 2.31-7.75 7.27-8.57 2.18-.36 4.45-1 6.35-2.08 3.43-1.94 5.64-.42 7.19 2.29 2.48 4.34 4.72 8.83 6.82 13.36 1.07 2.31 1.43 4.95 2.42 7.31 3.09 7.37 4.17 14.66.17 22.1-.59 1.09-.49 2.61-.49 3.93-.06 11.3-.06 22.61-.09 33.91 0 1.23.05 2.5-.22 3.68-1.39 6.22 1.03 10.3 6.35 13.68 29.84 18.94 59.55 38.07 89.27 57.19 4.41 2.83 7.99 6.46 9.71 11.61.75 2.23.43 3.62-1.95 4.78-4.98 2.44-10.14 3.07-15.31 1.51-5.87-1.77-11.57-4.1-17.3-6.3-.99-.38-1.79-1.3-2.63-2.03-15.44-13.56-31.88-25.7-50.39-34.76-4.07-2-8.55-3.17-13.6-5-1.4 4.6-2.94 8.63-3.83 12.8-3.01 14.16-4.4 28.51-4.14 43 .07 3.85 1.03 7.23 3.32 10.58 7.32 10.72 11.43 22.93 15.46 35.16 9.39 28.54 18.91 57.04 28.51 85.51.42 1.24 2.12 2.54 3.48 2.91 8.64 2.37 17.29 1.03 25.96-.22 4.72-.68 9.55-1.24 14.29-.99 5.53.29 9.3 3.67 10.75 9.08.31 1.16-.27 3.13-1.15 3.93-3.82 3.44-7.87 6.63-11.94 9.78-.88.68-2.2 1.08-3.34 1.12-25.71.88-51.43 1.7-77.14 2.51-12.41.39-24.84.41-37.22 1.25-7.89.53-15.68 2.4-23.55 3.41-14.22 1.81-28.47 3.24-42.74.38-3.06-.61-6.1-1.38-9.1-2.27-.83-.25-1.78-1.04-2.12-1.82-1.54-3.43-2.86-6.98-4.34-10.71zm134.88-15.19c-.32-1.32-.52-2.28-.79-3.22-5.23-18.49-10.5-36.97-15.69-55.47-2.63-9.36-4.9-18.84-9.83-27.36-1.86-3.21-4.16-6-7.31-6.58-4.72 8.13-9.23 15.81-13.64 23.55-1.6 2.81-2.88 5.8-4.45 8.63-1.3 2.34-1.41 4.63-.27 7.01 1.35 2.81.95 5.46-.06 8.38-4.28 12.44-9.36 24.68-10.64 37.95-.38 3.95-.44 7.95-.29 11.91.08 2.14 1.35 2.99 3.91 2.64 13.63-1.85 27.3-3.4 40.96-5.08 5.97-.76 11.92-1.56 18.1-2.36z" fill="#010106"/></svg>