<svg enable-background="new 0 0 400 400" viewBox="0 0 400 400" xmlns="http://www.w3.org/2000/svg"><path d="m28.64 321.51c8.5-1.24 16.77-2.5 25.06-3.63 13.5-1.84 27.07-3.28 40.5-5.57 4.82-.82 9.37-3.47 13.92-5.57 1.08-.5 2.18-2.06 2.36-3.27 5.32-36.84 16.12-72.4 25.15-108.38 3.95-15.72 8.15-31.34 14.14-46.44 2.42-6.09 2.32-12.23-.3-18.29-2.55-5.91-9.04-9.12-15.23-7.36-1 .28-1.91 1.1-2.7 1.84-21.53 20.4-43.31 40.56-64.43 61.38-7.6 7.49-13.66 16.55-20.35 24.95-5.05 6.34-10.36 12.36-17.64 16.26-1.36.73-2.8 1.31-4.42 2.05-2.05-3.64-2.34-7.53-.96-10.84 3-7.17 6.11-14.45 10.31-20.93 9.92-15.29 20.05-30.5 31.01-45.05 6.56-8.71 14.79-16.18 22.37-24.1 11.06-11.56 22.26-23 33.32-34.56 3.83-4 6.7-8.62 8.21-14.04 1.08-3.88 1.49-7.6-.4-11.39-1.08-2.17-1.8-4.52-2.89-7.31 1.32.35 2.15.48 2.9.79 11.22 4.67 22.17 9.84 29.76 19.86 2.05 2.7 3.31 6.05 4.66 9.21.91 2.13 2.06 3.29 4.47 3.82 12.88 2.85 25.89 5.31 38.5 9.1 14.63 4.39 29.03 9.67 43.28 15.2 15.62 6.06 31.14 12.49 45.49 21.32 9.69 5.96 18.66 12.8 25.35 22.16 1.32 1.84 2.29 4.08 2.86 6.29 2.3 8.97 4.39 17.99 6.62 27.29-3.11 1.17-6.1 2.29-9.3 3.49-1.63-3.1-3.05-6.1-4.73-8.96-9.58-16.34-23.66-27.9-40-36.82-26.47-14.45-54.43-24.87-84.19-30.29-7.47-1.36-14.83-3.32-22.25-4.99-.96-.22-1.94-.34-3.64-.63.44 2.71.54 5.05 1.22 7.19 2.51 7.88 4.82 15.86 7.97 23.48 2.85 6.91 3.44 13.86 2.12 20.96-.85 4.55.46 7.29 4.19 10.04 11.7 8.63 23.11 17.67 34.57 26.64 1.54 1.21 2.92 2.78 3.93 4.46 7.61 12.52 14.98 25.19 22.7 37.64 3.64 5.87 6.45 11.81 7.27 18.83.77 6.67 5.13 9.81 12.03 9.46 3.56-.18 7.1-1.2 10.65-1.2 12.5.03 25 .52 37.5.48 9.97-.03 19.38 1.94 28.81 5.15 7.34 2.5 15.24 3.36 22.84 5.14 4.33 1.02 8.56 2.72 10.14 7.34.74 2.15 1.21 5.36.13 6.93-1.62 2.35-4.83 2.82-7.95 1.88-4.48-1.35-8.97-2.84-13.56-3.64-17.97-3.12-36-3.47-54.14-1.16-9.53 1.21-19.2 1.24-28.75 2.31-12.99 1.46-25.95 3.25-38.88 5.2-22.56 3.39-45.11 6.84-67.6 10.66-4.86.83-9.49 3.18-14.13 5.08-10.85 4.44-21.5 9.42-32.5 13.46-15.88 5.83-32.5 5.79-49.08 4.51-6.31-.49-12.56-2.02-18.8-3.24-7.97-1.57-13.76-6.04-17.49-14.19zm103-22c11.66-2.79 22.93-5.6 34.25-8.18 17.17-3.92 34.04-9.34 51.89-9.91 3.14-.1 6.27-2.06 9.29-3.43 2.33-1.05 3.13-3.04 2.15-5.54-1.51-3.84-2.57-7.93-4.61-11.46-12.47-21.62-29.15-39.48-49.34-54.08-2.55-1.84-5.5-3.12-8.28-4.67-7.32 11.41-12.98 23.01-17.42 35.24-5.78 15.93-9.89 32.48-17.73 47.66-2.33 4.47-1.61 9.33-.2 14.37z" fill="#010104"/><g fill="#fcfbfa"><path d="m385.2 377.6.6-.7c.6.4 1.3.9 1.9 1.5l-.6.7c-.8-.5-1.4-1-1.9-1.5zm.3 7.1c.6-1.4 1.1-2.9 1.5-4.5.3.1.6.3.9.4-.5 1.4-1 2.9-1.5 4.4zm.2-10.1.6-.6c.7.5 1.3 1.1 1.9 1.6l-.7.7c-.6-.6-1.2-1.2-1.8-1.7zm8.4-.8h.8v.9h1.8v.7h-1.8v1.8h-.8v-.3h-1.2v.9h3.3v2.6h-.8v-.4h-2.5c0 .3 0 .6-.1.8h3.4v.7h-3.5c0 .3-.1.6-.1.8h4v.7h-3.5c.7.9 1.9 1.3 3.6 1.5-.2.2-.4.5-.6.9-1.9-.3-3.2-1.1-3.8-2.3-.5 1.1-1.8 2-3.9 2.4-.2-.3-.4-.5-.6-.8 1.9-.4 3.1-.9 3.6-1.7h-3.2v-.7h3.5c.1-.2.1-.5.2-.8h-3.3v-.7h3.4c0-.2 0-.5 0-.8h-2.4v.3h-.8v-2.6h3.3v-.9h-1.2v.3h-.8v-1.8h-1.8v-.7h1.8v-.9h.8v.9h3.2zm-4.4 5.5h2.4c0-.3 0-.6 0-.9h-2.4zm1.2-3.1h3.2v-.8h-3.2zm4.4 2.2h-2.4v.9h2.5v-.9z"/><path d="m389.2 385.8h.9v1.5h1.9v-1.5h.9v1.5h2.7v6h1.1v.9h-11.3v-.9h1.1v-6h2.7zm.2 8.7.5.8c-1.2.6-2.5 1.3-4 1.9-.2-.3-.3-.6-.6-.8 1.6-.6 3-1.3 4.1-1.9zm-2-4.3h1.9v-2.1h-1.9zm0 3.1h1.9v-2.2h-1.9zm2.7-3.1h1.9v-2.1h-1.9zm0 3.1h1.9v-2.2h-1.9zm2.4 1.3c1.4.6 2.7 1.2 4.1 1.8l-.5.9c-1.5-.7-2.8-1.4-4.1-1.9zm2.2-6.5h-1.9v2.1h1.9zm-1.9 5.2h1.9v-2.2h-1.9z"/></g></svg>