<svg enable-background="new 0 0 400 400" viewBox="0 0 400 400" xmlns="http://www.w3.org/2000/svg"><path d="m361.2 9.6.8-1c.9.7 1.9 1.4 2.9 2.3l-.9 1.1c-1-1-2-1.8-2.8-2.4zm.5 10.6c.9-2.1 1.6-4.3 2.3-6.7.4.2.8.4 1.3.6-.7 2.1-1.5 4.3-2.2 6.6zm.4-15.2.9-.9c1 .8 2 1.6 2.8 2.4l-1 1c-.9-.9-1.8-1.7-2.7-2.5zm12.5-1.2h1.2v1.4h2.7v1.1h-2.7v2.7h-1.2v-.6h-1.8v1.3h4.9v3.8h-1.2v-.5h-3.7c0 .4-.1.9-.1 1.2h5.1v1h-5.2c0 .5-.1.9-.2 1.2h6v1h-5.2c1.1 1.3 2.9 2 5.5 2.2-.4.4-.7.8-.9 1.3-2.9-.5-4.8-1.6-5.7-3.5h-.1c-.8 1.7-2.7 2.9-5.9 3.6-.2-.4-.6-.8-.9-1.1 2.8-.6 4.6-1.4 5.4-2.5h-4.8v-1h5.3c.1-.3.2-.7.2-1.2h-4.9v-1h5c0-.4 0-.8.1-1.2h-3.5v.5h-1.2v-3.8h4.9v-1.3h-1.8v.5h-1.2v-2.7h-2.7v-1h2.6v-1.4h1.2v1.4h4.7v-1.4zm-6.6 8.3h3.6c0-.4 0-.9 0-1.4h-3.6zm1.9-4.6h4.7v-1.3h-4.7zm6.6 3.2h-3.7v1.4h3.7z" fill="#fbfcfa"/><path d="m385.3 3.8h1.3v2.2h2.8v-2.2h1.3v2.2h4.1v9.1h1.7v1.3h-16.9v-1.3h1.7v-9.1h4.1v-2.2zm.4 13.1.7 1.2c-1.8.9-3.8 1.9-6 2.9-.2-.4-.5-.8-.8-1.3 2.3-1 4.3-1.9 6.1-2.8zm-3.1-6.4h2.8v-3.2h-2.8zm0 4.6h2.8v-3.3h-2.8zm4-4.6h2.8v-3.2h-2.8zm0 4.6h2.8v-3.3h-2.8zm3.7 1.9c2.1.9 4.1 1.8 6.1 2.7l-.7 1.3c-2.2-1.1-4.2-2-6.1-2.9zm3.2-9.7h-2.8v3.2h2.8zm-2.8 7.8h2.8v-3.3h-2.8z" fill="#fbfcfa"/><g fill="#010105"><path d="m101.15 304.6c0-7.86.05-15.14-.04-22.41-.02-1.63-.41-3.3-.88-4.88-.61-2.03-1.44-3.99-2.24-5.96-3.78-9.33-7.12-18.65-6.63-29.09.25-5.26-1.62-10.59-1.98-15.93-.27-4.08.14-8.25.56-12.34 1.01-9.9 1.69-19.88 3.45-29.66 1.84-10.21 4.81-20.28 11.93-28.32 6.8-7.68 12.55-15.96 16.78-25.33.64-1.43 1.95-2.68 3.23-3.66 2.48-1.9 5.07-3.71 7.78-5.26 3.61-2.07 6.46-4.78 8.12-8.6.94-2.16 2.51-3.08 4.76-2.79 5.86.76 9.6-1.98 13.22-6.44 4.55-5.62 10.15-10.39 15.16-15.65 1.17-1.23 2.38-2.87 2.61-4.45.93-6.62 2.02-13.28 2.07-19.94.08-11.41-.57-22.82-.91-34.23-.04-1.22 0-2.44 0-4.34 3.74.91 7.22 1.51 10.48 2.7.96.35 1.69 2.35 1.84 3.67.73 6.44 1.21 12.9 1.8 19.36.5 5.45.55 10.99 1.66 16.31 2.64 12.64 8.36 17.15 21.28 17.21 5.47.03 10.98-.23 16.42-.82 8-.88 15.88-.82 23.55 1.75 10.79 3.62 21.53 7.38 32.24 11.22 3.31 1.18 5.29 3.67 6.54 7.1 2.8 7.66 5.9 15.21 9.08 22.72 1.06 2.51 1.48 4.83.51 7.41-1.13 3.02-1.21 6.08-.07 9.15 2.55 6.86 1.26 13.95 1.09 20.95-.18 7.61-.78 15.2-.94 22.81-.06 2.74.84 5.48.89 8.23.05 2.97-.18 5.98-.64 8.92-.85 5.41-2 10.77-2.9 16.18-.21 1.28-.09 2.67.14 3.97.37 2.09 1 4.13 1.45 6.2 1 4.62 3.23 9.3-1.01 13.74.48-.05.97-.1 1.45-.16.5 2.21 1.21 4.39 1.43 6.62.25 2.55.08 5.14.05 7.72-.04 4.42.44 8.78-2.59 12.8-1.41 1.88-1.31 4.88-1.91 7.37-.8 3.29-1.61 6.58-2.42 9.86-.29-.05-.58-.1-.88-.16-.65-11.38-1.36-22.76-1.9-34.14-.17-3.59-1.25-7.35 1.13-10.72.22-.32.24-.9.14-1.31-2.11-8.59.75-17.17.07-25.73-.76-9.58-2.04-19.11-3.04-28.67-.36-3.45-.36-6.95-.95-10.36-.56-3.26-1.83-6.4-2.49-9.65-.62-3.08-.46-6.37-1.38-9.34-.87-2.83-3.85-5.35-3.88-8.03-.11-12.12-8.64-19.77-14.46-28.86-.51-.79-1.79-1.47-2.74-1.52-4.16-.19-7.9-1.17-10.87-4.35-.52-.56-1.64-1-2.36-.86-10.91 2.11-21.32-1.18-31.86-2.9-7.09-1.16-14.14-2.01-21.34-1.41-2.23.19-3.66.95-4.91 2.81-3.08 4.59-4.07 9.43-2.1 14.64 3.47 9.19 7.31 18.26 10.54 27.54 1.6 4.61 3.95 8.08 8.5 9.97 8.91 3.7 13.4 11.12 16.4 19.7 2.32 6.65 4.56 13.32 6.65 20.04.51 1.64.54 3.54.35 5.28-.94 8.79-1.96 17.57-3.06 26.33-.86 6.83 4.27 11.05 10.85 8.75 4.84-1.69 9.52-4.02 14.48-5.09 10.62-2.29 24.86 4.66 29.92 14.17-3.25 1.16-6.42 2.54-9.72 3.41-3.72.99-6.42 3.13-8.28 6.33-2.8 4.82-6.84 6.71-12.36 6.04-4.88-.59-9.82-.74-14.71-1.32-5.11-.6-10.03-.44-14.49 2.49-2.78 1.82-5.62 1.91-8.52.39-2.8-1.48-5.25-1.07-7.66.97-8.59 7.27-18.75 10.52-29.79 11.41-3.91.32-7.42 1.48-10.18 4.41-.08.08-.19.13-.26.21-7.82 8.5-17.5 9.96-28.28 7.64-4.8-1.03-9.66-1.93-14.53-2.53-4.35-.53-7.2-2.65-8.97-7.23 1.83-.48 3.67-1.28 5.53-1.37 3.22-.15 5.8-1.25 8.06-3.51 1.98-1.98 4.3-3.6 6.24-5.61 7.25-7.5 16.23-12.12 25.8-15.81 5.29-2.03 6.76-4.38 6.03-10.03-.3-2.31-.73-4.73-1.72-6.8-2.72-5.64-2.73-11.41-1.59-17.35.61-3.18.87-6.45 1.67-9.58.53-2.08 1.9-3.94 2.6-6 .95-2.79 1.96-5.64 2.29-8.54.3-2.74-.37-5.57-.41-8.36-.05-4.11.96-7.88 3.42-11.35 1.57-2.22 3.23-4.79 3.58-7.37 1.66-12.08 2.88-24.21 4.24-36.33.04-.31-.09-.64-.16-1.11-1.62-.59-3.27-1.19-5.14-1.87.65-3.15 1.33-6.18 1.9-9.22.98-5.22-.78-6.88-6.05-5.64-3.01.71-6.02 1.28-7.83 4.46-.57 1.01-2.6 1.3-4.02 1.69-2.12.58-4.52.51-6.4 1.49-7.34 3.81-14.59 7.82-21.76 11.94-6.22 3.58-10.58 8.73-12.94 15.65-5.1 14.91-10.21 29.82-15.73 44.57-2.02 5.4-1.38 10.78-1.68 16.2-.06 1.15-.17 2.82-.9 3.32-2.79 1.94-2.88 4.53-2.47 7.39.59 4.1-.05 8.31 2.57 12.2.93 1.39-.48 4.37-.86 6.62-.27 1.61-1.38 3.59-.8 4.76 3.86 7.77 1.89 15.83 1.6 23.79-.28 7.94-.82 15.87-1.22 23.8-.07 2.34-.47 4.41-3.32 5.91zm97.45-128.09c-.52 3.1-.79 5.55-1.35 7.93-1.73 7.29-3.2 14.75-8.87 20.26-3.36 3.26-4.5 7.12-3.92 11.55.4 3.09 1.41 6.12 1.73 9.21.21 2.02.06 4.25-.6 6.16-1.04 2.98-.58 5.78 2.32 6.95 2.85 1.14 5.98 2.24 8.99 2.22 9.95-.05 17.93-4.82 24.85-11.58.62-.61.85-1.77.97-2.72 2.01-15.03-2.38-28.98-7.25-42.85-1.19-3.39-3.56-5.39-7.03-5.95-3.17-.52-6.39-.78-9.84-1.18z"/><path d="m107.26 375.03c-1.21 0-2.01.13-2.76-.03-.99-.21-2.4-.37-2.77-1.04-.39-.7.01-2.07.45-2.96 2.68-5.43 2.16-10.88.57-16.47-1.18-4.16-2.71-8.37-2.95-12.62-.65-11.8-.71-23.63-1.02-35.73 2.62 2.11 4.61 4.47 4.38 7.86-.35 5.21.84 10.07 2.08 15.1 1.13 4.58.69 9.55.89 14.35.39 9.39.75 18.78 1.11 28.17.06 1.08.02 2.16.02 3.37z"/></g></svg>