<svg enable-background="new 0 0 400 400" viewBox="0 0 400 400" xmlns="http://www.w3.org/2000/svg"><path d="m374.8 390.4.4-.4c.7.5 1.3 1 1.8 1.4l-.5.5c-.5-.6-1.1-1.1-1.7-1.5zm1 7.3-.6-.3c.5-1.4 1.1-2.8 1.5-4.3.2.1.4.2.6.3-.5 1.3-1 2.8-1.5 4.3zm-.4-10.3.4-.4c.4.3 1 .8 1.7 1.4l-.5.5c-.4-.5-1-1-1.6-1.5zm2.5.3h1.7v-1h.6v1h3.5v-1h.6v1h1.8v.5h-1.8v1.4h-2v1h3.2v2h-3.2v.9h3.3v.5h-3.4c0 .3-.1.6-.1.9h4v.5h-3.7c.7.9 1.9 1.5 3.8 1.7-.1.2-.2.4-.3.6-2.1-.4-3.5-1.1-4-2.1-.4 1-1.8 1.7-4 2.2-.1-.2-.2-.4-.3-.6 2.1-.4 3.4-1 3.8-1.8h-3.4v-.5h3.6c.1-.3.1-.6.2-.9h-3.3v-.5h3.4c0-.3 0-.6 0-.9h-3.2v-2h3.3v-1h-2.1v-1.4h-1.7v-.5zm1.1 3.5v1h2.7c0-.3 0-.4 0-.4 0-.1 0-.2 0-.2 0-.1 0-.2 0-.3h-2.7zm1.2-3v.9h3.5v-.9zm4.7 3h-2.6v.6.4h2.6z" fill="#fbfcfa"/><path d="m393.6 386.7h.6v1.5h2.7v6.1h1.1v.6h-11v-.6h1.1v-6.1h2.7v-1.5h.6v1.5h2.1v-1.5zm-2.7 8.8.4.6c-1.2.6-2.5 1.3-3.8 1.9-.1-.2-.2-.4-.3-.6 1.2-.6 2.5-1.2 3.7-1.9zm-2.2-6.7v2.4h2.1v-2.4zm0 3v2.5h2.1v-2.5zm2.8-3v2.4h2.1v-2.4zm0 3v2.5h2.1v-2.5zm6 6.1c-1.4-.7-2.7-1.3-3.9-1.8l.3-.6c1.5.6 2.7 1.2 3.9 1.7zm-1.2-9.1h-2.1v2.4h2.1zm-2.1 3v2.5h2.1v-2.5z" fill="#fbfcfa"/><path d="m371.51 368.4c-3.86 1.12-7.19.23-10.11-1.81-4.5-3.15-8.8-6.55-14.45-7.46-.6-.1-1.19-.61-1.68-1.05-5.72-5.17-12.48-8.57-19.46-11.7-19.37-8.69-38.75-17.38-57.99-26.35-18.62-8.68-38.24-12.07-58.6-12.39-25.88-.4-51.75.21-77.3 4.31-29.35 4.71-58.55 10.39-86.85 19.91-5.04 1.7-10.4 2.51-15.68 3.35-1.59.25-3.6-.4-5.02-1.28-2.68-1.64-2.52-3.68-.1-5.7 13.01-10.86 28.52-16.18 44.69-19.66 19.23-4.14 38.59-7.68 57.91-11.34 1.95-.37 2.82-1.13 3.45-2.94 3.65-10.56 7.37-21.1 11.2-31.6 1.22-3.34 3.09-6.44 4.25-9.79 1.44-4.19 3.45-8.53 3.48-12.81.08-17.31 5.59-33.43 9.99-49.81 2.5-9.28 5.12-18.53 7.64-27.8.35-1.28.69-2.63.66-3.94-.34-13.65-.59-27.3-1.25-40.93-.2-4.07-1.41-8.13-2.5-12.11-.3-1.09-1.8-2.54-2.84-2.62-3.18-.24-6.48-.31-9.58.32-3.47.71-6.88 2-10.11 3.49-14.1 6.55-28.24 13.05-40.93 22.16-2.97 2.13-5.4 5-8.13 7.47-4.07 3.68-8.09 7.42-12.31 10.91-4.79 3.97-10.3 6.33-16.65 5.95-1.03-.06-2.81-1.14-2.85-1.83-.11-1.99-2.23-4.26.53-6.06 21.37-13.9 40.82-30.66 63.4-42.76 7.97-4.27 16.25-7.98 24.17-12.33 3.27-1.8 6.05-4.55 8.9-7.04 2.07-1.81 2.47-4.12 1.99-6.96-2.49-14.77-4.75-29.57-7.09-44.37 9.39-.83 17.3 7.08 18.13 17.53.63 7.89 1.59 15.77 2.69 23.62.85 6.06 4.07 10.15 9.66 13.4 20.86 12.17 41.29 25.09 62.08 37.39 5.73 3.39 12.16 5.57 18.23 8.4 5.68 2.65 10.05 6.61 12.36 12.86-2.93 2.76-6.43 3.03-9.92 1.83-3.03-1.04-5.89-2.66-8.73-4.2-20.96-11.28-41.84-22.7-62.88-33.84-4.29-2.27-9.11-3.54-14.38-5.53.65 6.65 1.19 12.52 1.79 18.38 1.26 12.24 2.52 24.48 3.88 36.71.18 1.61.73 3.28 1.49 4.72 6.6 12.56 13.6 24.92 19.86 37.64 4.97 10.1 9.48 20.48 13.44 31.01 4.74 12.58 9.92 24.87 16.58 36.59 3.35 5.89 5.78 12.33 8.37 18.62 2.08 5.06 4.7 9.67 9 13.13 1.45 1.17 3.1 2.21 4.83 2.89 12.69 4.99 25.44 9.8 38.12 14.82 3.51 1.39 6.93 3.1 10.17 5.04 7.39 4.43 14.51 9.31 21.97 13.6 9.58 5.51 19.39 10.63 29.1 15.9 7.57 4.14 11.85 9.19 13.38 16.06zm-139.45-71.75c-.15-.57-.21-1-.37-1.4-5.2-13.67-10.23-27.41-15.66-40.98-8.37-20.94-16.99-41.77-25.58-62.62-1.7-4.14-3.87-8.02-8.28-10.5-1.74 3.03-3.42 5.9-5.03 8.8-4.41 7.98-8.95 15.72-11.04 24.93-5.35 23.62-11.59 47.04-17.38 70.56-.52 2.13-.53 4.41-.56 6.62-.02 2.23.91 3.3 3.52 3.12 13.04-.91 26.1-1.66 39.16-2.38 2.08-.11 4.24.03 6.28.44 5.14 1.05 10.22 2.4 15.35 3.49 6.47 1.37 12.97 1.96 19.59-.08z" fill="#010106"/></svg>