<svg enable-background="new 0 0 400 400" viewBox="0 0 400 400" xmlns="http://www.w3.org/2000/svg"><path d="m47.9 164.99c10.9-2.69 20.97-5.19 31.05-7.68 28.33-6.97 56.67-13.86 84.94-21.05 2.37-.6 4.71-2.96 6.17-5.11 3.95-5.79 4.8-12.65 5.66-19.44 2.04-16.12-.89-31.91-3.38-47.7-.58-3.65-2.68-7.05-4.02-10.59-1.45-3.82-2.83-7.66-4.5-12.2 4.13.53 7.54.55 10.69 1.47 6.42 1.87 12.93 3.72 18.99 6.49 10.87 4.98 14.1 12.08 12.26 23.82-2.17 13.92-4.11 27.88-6.09 41.83-.19 1.31-.09 2.68.07 4 .85 7.01 2.39 7.95 9.26 7.36 17.82-1.52 35.65-3.63 53.5-3.93 22.75-.38 44.98 3.5 66.02 12.79 5.86 2.59 9.87 6.57 10.48 13.15.11 1.22-.73 3.04-1.73 3.77-4.91 3.61-10.66 4.08-16.38 2.97-10.31-2.01-20.61-4.13-30.76-6.8-9.37-2.47-18.66-4.28-28.41-2.95-14.05 1.92-28.18 3.34-42.19 5.51-4.93.76-9.61 3.12-14.36 5.21 8.37 3.88 13.45 10.66 18.64 17.45 8.15 10.66 16.63 21.08 25 31.58 13 16.33 21.57 34.61 25.01 55.31 1.45 8.7 3.51 17.31 5.57 25.89.42 1.75 1.76 3.66 3.23 4.71 7.26 5.18 15.81 6.44 24.39 7.54 13.63 1.74 27.38 2.89 40.82 5.57 6.69 1.34 12.97 5.24 19.15 8.51 4.24 2.25 6.38 7.67 5.17 10.75-.97 2.46-6.45 4.49-10.83 3.39-21.91-5.48-44.42-5-66.68-6.11-15.34-.76-30.81 1.55-46.23 1.9-24.01.56-47.64 4.43-71.41 7.14-23.58 2.69-45.8 11.05-68.83 16-7.5 1.61-13.94 4.88-19.36 9.96-4.95 4.64-10.54 5.04-16.49 3.63-5.52-1.31-11.11-2.72-16.31-4.94-9.86-4.2-19.47-9-29.17-13.58-1.91-.9-4.78-6.88-4.17-8.82.2-.64.92-1.39 1.56-1.59 2.73-.85 5.72-2.55 8.24-2.05 11.07 2.17 21.51-.61 32.1-2.89 17.27-3.71 34.55-7.35 51.84-10.95 8.79-1.83 14.5-7.4 18.82-14.88 4.46-7.72 5.89-16.33 7.61-24.88 5.79-28.94 11.6-57.87 17.49-86.79.69-3.38 2.24-6.58 2.89-9.96.69-3.57.94-7.26 1.01-10.9.02-.91-1.27-2.43-2.2-2.66-2.12-.52-4.46-.82-6.59-.47-6.21 1.04-12.36 1.87-18.27 4.8-4.55 2.25-10.16 2.31-15.26 3.5-3.99.93-8.01 1.85-11.86 3.23-4.31 1.54-8.53 3.39-12.62 5.44-7.62 3.82-15.32 2.96-22.75.1-7.49-2.88-14.76-6.4-21.91-10.07-1.93-.95-3.04-3.5-4.87-5.78zm215.38 129.9c-.85-1.85-1.21-2.66-1.59-3.46-6.86-14.06-13.69-28.14-20.6-42.18-5.73-11.62-10.92-23.57-17.54-34.66-6.27-10.5-14.03-20.13-21.28-30.04-2.1-2.87-5.18-4.44-9.19-4.76-1.53 8.87-3.04 17.66-4.56 26.46-2.7 15.52-4.83 31.18-8.31 46.52-2.51 11.06-6.81 21.72-10.32 32.55-1.33 4.09-2.47 8.25-.76 12.43.55 1.35 1.97 3.14 3.18 3.29 4.61.58 9.43 1.4 13.92.64 11.5-1.93 23.02-2.96 34.67-3.46 13.93-.58 27.83-2.13 42.38-3.33z" fill="#010104"/><g fill="#fcfbfa"><path d="m385.2 377.6.6-.7c.6.4 1.3.9 1.9 1.5l-.6.7c-.8-.5-1.4-1-1.9-1.5zm.3 7.1c.6-1.4 1.1-2.9 1.5-4.5.3.1.6.3.9.4-.5 1.4-1 2.9-1.5 4.4zm.2-10.1.6-.6c.7.5 1.3 1.1 1.9 1.6l-.7.7c-.6-.6-1.2-1.2-1.8-1.7zm8.4-.8h.8v.9h1.8v.7h-1.8v1.8h-.8v-.3h-1.2v.9h3.3v2.6h-.8v-.4h-2.5c0 .3 0 .6-.1.8h3.4v.7h-3.5c0 .3-.1.6-.1.8h4v.7h-3.5c.7.9 1.9 1.3 3.6 1.5-.2.2-.4.5-.6.9-1.9-.3-3.2-1.1-3.8-2.3-.5 1.1-1.8 2-3.9 2.4-.2-.3-.4-.5-.6-.8 1.9-.4 3.1-.9 3.6-1.7h-3.2v-.7h3.5c.1-.2.1-.5.2-.8h-3.3v-.7h3.4c0-.2 0-.5 0-.8h-2.4v.3h-.8v-2.6h3.3v-.9h-1.2v.3h-.8v-1.8h-1.8v-.7h1.8v-.9h.8v.9h3.2zm-4.4 5.5h2.4c0-.3 0-.6 0-.9h-2.4zm1.2-3.1h3.2v-.8h-3.2zm4.4 2.2h-2.4v.9h2.5v-.9z"/><path d="m389.2 385.8h.9v1.5h1.9v-1.5h.9v1.5h2.7v6h1.1v.9h-11.3v-.9h1.1v-6h2.7zm.2 8.7.5.8c-1.2.6-2.5 1.3-4 1.9-.2-.3-.3-.6-.6-.8 1.6-.6 3-1.3 4.1-1.9zm-2-4.3h1.9v-2.1h-1.9zm0 3.1h1.9v-2.2h-1.9zm2.7-3.1h1.9v-2.1h-1.9zm0 3.1h1.9v-2.2h-1.9zm2.4 1.3c1.4.6 2.7 1.2 4.1 1.8l-.5.9c-1.5-.7-2.8-1.4-4.1-1.9zm2.2-6.5h-1.9v2.1h1.9zm-1.9 5.2h1.9v-2.2h-1.9z"/></g></svg>