<svg enable-background="new 0 0 400 400" viewBox="0 0 400 400" xmlns="http://www.w3.org/2000/svg"><path d="m216.54 47.99c.57 1.16.88 2.01 1.37 2.74 6.27 9.36 7.09 20.03 7.52 30.81.39 9.83.5 19.69 1.39 29.48.5 5.51 2.17 10.94 3.59 16.34.97 3.69 4.93 3.38 7.57 4.7.65.32 2.54-1.21 3.5-2.23 6.66-7.11 13.12-14.4 19.84-21.44 4.95-5.19 10.9-8.89 18.02-10.46.65-.14 1.31-.27 1.97-.36.31-.04.64.05.94.08 1.04 4.93.55 9.03-4.25 12.13-3.92 2.53-7.14 6.12-10.92 8.9-5.63 4.14-10.12 8.98-12.15 15.87-.38 1.28-1.54 2.43-2.57 3.41-5.68 5.39-11.4 10.75-17.19 16.03-1.54 1.4-2.16 2.7-1.85 4.91 1.48 10.63 3.13 21.27 3.86 31.97.34 4.96-1.36 10.05-1.93 15.1-.24 2.14-.42 4.46.15 6.48 5.37 19.3 4.86 38.62 1.26 58.17-3.56 19.29-11.61 36.84-20.19 54.15-5.79 11.7-12.25 23.1-19.01 34.27-4.1 6.77-10.07 11.99-17.67 14.9-1.63.63-3.39.95-5.36 1.48-.27-1.26-.36-2.26-.69-3.16-1.67-4.46-2.4-9.74-5.29-13.19-10.59-12.62-16.07-27.34-20.48-42.88-6.07-21.38-12.88-42.56-19.52-64.3-.76 1.09-1.27 1.89-1.84 2.64-3.25 4.26-6.41 8.6-9.8 12.75-5.72 7.02-14.05 5.67-20.53 2.63-2.29-1.07-2.37-8.28-.48-10.13 11.32-11.13 22.56-22.34 33.85-33.5 4.65-4.59 7.01-9.69 3.91-16.15-.23-.49-.14-1.12-.34-1.63-4.06-10.2-4.02-20.09 2.16-29.54 1.29-1.97.44-3.04-1.35-4.26-10.86-7.39-20.95-15.73-29.59-25.66-4.92-5.66-8.31-12.2-9.75-19.6-.27-1.4-.06-3.55.83-4.37 1.65-1.52 3.98-2.01 6.17-.46 7.55 5.36 15.25 10.53 22.58 16.17 2.28 1.76 3.59 4.79 5.32 7.26 1.53 2.19 3.02 4.4 4.71 6.85 5.42-6.82 7.97-14.4 9.21-22.57 1.96-12.97-.69-25.63-2.29-38.37-1.52-12.1-2.93-24.2-4.55-36.28-.19-1.44-1.14-3.29-2.31-4-3.9-2.36-8.19-4.09-12.09-6.47-2.17-1.32-4.5-3.11-5.61-5.28-2.06-4.05-.74-6.52 3.32-8.49 8.81-4.28 18.23-5.91 27.9-6.42 8.71-.45 17.42-1.03 26.14-1.13 5.1-.06 10.21.97 15.33 1.06 10.95.18 21.91-.17 32.85.16 5.2.16 10.41 1.2 15.55 2.16 4.54.85 2.71 4.99 3.26 7.73.14.71-1.66 2.23-2.84 2.7-7.05 2.83-14.17 5.46-21.63 8.3zm-26.93 291.73c.36-1.04.79-2.29 1.24-3.53 1.79-5.01 2.5-10.46 6.47-14.53 7.02-7.21 10.79-16.01 12.55-25.8.96-5.29 4.04-9.3 7.85-12.96 1.33-1.28 2.47-3.19 2.84-4.99 2.98-14.5 2.85-29.12 1.17-43.76-.82-7.1-2.69-14.19-2.6-21.27.13-10.27-1.27-20.24-3.29-30.2-.86-4.23-3.11-6.36-7.27-7.31-1.87-.43-2.86.06-3.68 1.76-3.34 6.92-8.12 12.29-15.12 16.01-5.33 2.83-10.63 6.4-10.84 13.75-.03.92-1.57 1.96-2.62 2.64-3.07 2-6.68 3.38-9.27 5.85-5.18 4.92-9.87 10.38-14.68 15.68-.87.96-1.83 2.17-2.01 3.37-1.2 7.93-3.39 15.94-3.06 23.83 1.12 26.57 10.05 50.59 25.41 72.35 4.22 5.99 9.48 9.05 16.91 9.11zm-19.5-153.22c10.34-6.98 20.86-13.07 30.11-20.7 5.75-4.74 9.69-11.65 7.36-20.29-.9-3.33-1.04-7.03-.7-10.48.42-4.31 1.5-8.59 2.67-12.78.96-3.41.68-6.42-.77-9.66-1.53-3.42-3.55-7.16-3.41-10.69.46-11.59 1.12-23.22 4.22-34.55 1.85-6.75 3.18-13.64 4.81-20.74-19.88-1.97-39.34-3.9-58.8-5.8-.6-.06-1.41.08-1.84.46-2.6 2.29-4.91 4.57-5.02 8.6-.17 6.37 1.93 12.04 4.15 17.8 2.93 7.62 4.18 15.32-.23 22.94-.76 1.32-1.23 2.81-2.08 4.8 8.69 2.45 8.93 9.25 8.72 16.27-.01.22.04.45.04.67.09 8.82.52 17.66.17 26.46-.33 8.03-1.56 16.02-2.27 24.04-.18 2.04-.59 4.61.38 6.12 3.65 5.71 7.84 11.1 12.49 17.53zm-11.97 21.18c5.6.13 11.16-7.15 10.37-13.17-.67-5.08-6.09-7.78-10.56-5.25-6.14 3.47-6.14 3.47-4.98 10.37.22 1.32.62 2.64.67 3.96.1 3.2 1.99 4.15 4.5 4.09z" fill="#010100"/><path d="m291 100.68c-4.36-5.16-4.83-7.08-2.28-10.97.54-.83 1.83-1.52 2.85-1.62 1.75-.18 3.58.03 5.34.29 1.86.28 4.08.52 4.14 3.05.05 2.32-.03 4.7-2.85 5.83-2.47.99-4.83 2.28-7.2 3.42z" fill="#010100"/><g fill="#fcfafa"><path d="m342.2 3.2-6.3 9.2h6.1v1.2h-8.2v-.5l6.2-9.1h-5.7v-1.2h7.8v.4z"/><path d="m344 13.7v-10.9h3.1c1.6 0 3 .5 4.1 1.4 1.1 1 1.6 2.2 1.6 3.9s-.5 3-1.6 4-2.5 1.5-4.2 1.5h-3zm1.4-9.6v8.4h1.6c1.4 0 2.5-.4 3.2-1.1.8-.8 1.2-1.8 1.2-3.2s-.4-2.4-1.2-3.1-1.8-1-3.1-1z"/><path d="m356.3 2.8v10.9h-1.4v-10.9z"/><path d="m366.6 13.2c-.8.4-1.8.6-3 .6-1.6 0-2.8-.5-3.7-1.5s-1.4-2.3-1.4-3.9c0-1.7.5-3.2 1.6-4.2s2.4-1.6 4-1.6c1 0 1.9.1 2.6.4v1.5c-.8-.4-1.6-.6-2.6-.6-1.2 0-2.2.4-3 1.2s-1.1 1.9-1.1 3.3c0 1.3.4 2.3 1.1 3.1s1.6 1.1 2.8 1.1c1.1 0 2-.2 2.8-.7v1.3z"/><path d="m368.2 13c0-.3.1-.5.3-.6.2-.2.4-.3.6-.3.3 0 .5.1.7.3s.3.4.3.6-.1.5-.3.6c-.2.2-.4.3-.7.3s-.5-.1-.6-.3c-.2-.2-.3-.4-.3-.6z"/><path d="m381.1 13.7h-1.7l-5.5-8.4c-.2-.2-.3-.5-.4-.7 0 .2.1.8.1 1.5v7.6h-1.4v-10.9h1.8l5.3 8.3c.3.4.4.6.4.8 0-.3-.1-.8-.1-1.6v-7.5h1.4v10.9z"/><path d="m389.7 13.7h-5.8v-10.9h5.6v1.2h-4.2v3.5h3.9v1.2h-3.9v3.7h4.4z"/><path d="m398.4 4.1h-3.1v9.6h-1.4v-9.6h-3.1v-1.3h7.7v1.3z"/></g></svg>