<svg enable-background="new 0 0 400 400" viewBox="0 0 400 400" xmlns="http://www.w3.org/2000/svg"><path d="m362.1 8.8c1.1.8 2.1 1.6 3.1 2.4l-1 1.1c-1.3-1.1-2.3-2-3-2.5zm1.9 4.8c.5.2.9.4 1.4.5-.6 2.3-1.3 4.5-1.9 6.8l-1.5-.5c.8-2.1 1.4-4.3 2-6.8zm-1-9.4c1.3.9 2.4 1.8 3.4 2.5l-1 1.1c-1.4-1.2-2.4-2.1-3.2-2.6zm3.7 2.2v-1.4h10.3v1.2c-.5 3.6-1.8 6.8-4 9.4 1.5 1.6 3.4 2.8 5.7 3.8-.3.4-.7.8-1.1 1.4-2.3-1.1-4.1-2.5-5.6-4.1-1.6 1.6-3.6 3.1-5.9 4.3-.3-.5-.7-.9-1-1.3 2.4-1.1 4.4-2.5 6-4.1-1.9-2.5-3-5.6-3.3-9.3h-1.1zm8.8 0h-6.4c.3 3.3 1.3 6 3 8.2 2-2.3 3.1-5.1 3.4-8.2z" fill="#fbfafc"/><path d="m385.3 3.8h1.3v2.2h2.8v-2.2h1.3v2.2h4.1v9.1h1.7v1.3h-16.9v-1.3h1.7v-9.1h4.1v-2.2zm.4 13.1.7 1.2c-1.8.9-3.8 1.9-6 2.9-.2-.4-.5-.8-.8-1.3 2.3-1 4.3-1.9 6.1-2.8zm-3.1-6.4h2.8v-3.2h-2.8zm0 4.6h2.8v-3.3h-2.8zm4-4.6h2.8v-3.2h-2.8zm0 4.6h2.8v-3.3h-2.8zm3.7 1.9c2.1.9 4.1 1.8 6.1 2.7l-.7 1.3c-2.2-1.1-4.2-2-6.1-2.9zm3.2-9.7h-2.8v3.2h2.8zm-2.8 7.8h2.8v-3.3h-2.8z" fill="#fbfafc"/><g fill="#000001"><path d="m99.92 65.63c11.38.43 22 2.95 32.27 6.88 15.33 5.86 30.57 11.93 45.86 17.9.83.32 1.7.55 3.24 1.04.84-2.64 2.2-5.19 2.4-7.82 1.09-14.7-2.25-28.72-7.95-42.08-1.61-3.77-5.7-6.48-8.66-9.67-1.13-1.22-2.29-2.41-3.46-3.64 3.09-3.08 6.53-3.67 10.55-2.95 8.06 1.45 16.11 2.86 23.18 7.3 5.07 3.19 8.62 7.32 8 13.96-.41 4.34-.41 8.72-.49 13.08-.04 2-.06 4.06.34 6 .94 4.54 6.55 6.5 9.97 3.31 7.21-6.71 14.42-13.45 21.13-20.64 2.2-2.36 2.83-6.19 4.15-9.27 10.45.94 18.3 6.47 24.72 14.27 3.46 4.2 2.45 9.89-1.68 13.24-10.23 8.3-21.44 14.93-33.41 20.39-8.17 3.73-12.28 10.63-14.51 19.18 9.95 5.63 19.76 11.19 29.59 16.74 22.69 12.81 45.44 25.51 68.03 38.49 7.36 4.23 14.33 9.13 21.38 13.87 3.37 2.26 5.71 5.31 5.91 9.64.08 1.74-.41 2.62-2.32 2.85-4.02.49-7.7-.17-11.35-1.98-11.4-5.66-22.88-11.16-34.53-16.82-7.22 7.46-16.28 8.06-25.97 6.22-7.43-1.41-14.71-1.3-21.34 3.04-1.19.78-2.25 1.77-3.22 2.54 2.26 3.23 4.65 6.07 6.39 9.27 2.85 5.25 3.17 10.45-.8 15.66-4.58 6.02-8.67 12.4-13.26 19.03 8 1.74 15.46 3.6 23 4.95 24.67 4.43 36.08 21.62 42.13 43.76 2.73 10 1.2 19.96-2.04 29.71-1.64 4.94-3.02 9.68-6.86 13.81-3.1 3.34-4.98 8.19-6.34 12.68-2.48 8.18-6.58 15.01-13.06 20.63-11.6 10.05-23.94 18.72-38.85 23.22-10.88 3.29-21.86 2.82-32.91 1.26-20.03-2.84-39.31-8.42-58.13-15.7-1.84-.71-3.65-1.71-5.18-2.94-8.13-6.5-16.21-13.06-24.22-19.71-1.7-1.41-3.11-3.2-4.54-4.91-10.42-12.44-20.81-24.91-31.21-37.37-2.85-3.41-5.06-7.07-5.16-11.73-.04-1.85.61-2.57 2.46-2.71 4.35-.32 8.68-1.09 13.03-1.18 4.52-.09 8.46-1.63 12.45-3.5 18.22-8.52 36.45-17.05 54.77-25.35 5.07-2.3 10.45-3.9 15.73-5.71 4.98-1.7 9.64-3.71 11.51-9.71-1.02-.56-2.04-1.16-3.09-1.7-6.07-3.11-12.06-6.38-18.24-9.26-8.27-3.86-15.93-8.51-22.34-15.13-1.04-1.08-3.11-1.65-4.69-1.61-4.11.09-7.97.84-11.54 3.54-4.91 3.7-10.91 5.22-17 5.61-15.35.97-30.05-1.62-44-8.32-3.21-1.54-5.12-3.76-5.57-7.52 10.34-2.72 20.7-5.45 31.06-8.16 32.12-8.39 64.22-16.82 96.37-25.07 2.96-.76 3.57-2.03 3.43-4.79-.46-9.28-.76-18.56-.95-27.85-.05-2.27-1-3.55-3.02-3.47-3.18.14-6.68.02-9.44 1.3-7.65 3.56-15.53 6.64-22.52 11.66-7.78 5.58-17.27 7.16-26.44 9.16-5.64 1.22-11.4 1.9-17.01 2.81-2.04-6.88-.91-10.25 4.23-13.88 14.71-10.39 29.43-20.78 44.14-31.18.89-.63 1.73-1.32 3.24-2.47-6.87-4.06-13.18-8.03-19.71-11.6-7.35-4.02-15.06-7.41-22.31-11.59-7-4.03-12.79-9.44-15.15-17.62-.07-.32-.08-.65-.19-1.39zm7.53 228.15c.7.91 1.2 1.62 1.76 2.27 5.25 5.97 10.64 11.81 15.71 17.92 2.48 2.99 5.49 4.76 9.06 5.96 12.57 4.21 25.35 3.69 38.14 1.57 23.02-3.82 45.45-9.46 66.33-20.45 5.95-3.13 12.63-5.1 19.2-6.73 5.35-1.33 8.68 1.42 10.13 6.79.21.78.47 1.55.71 2.32.33.07.67.14 1 .21.82-1.83 1.94-3.59 2.42-5.51 1.41-5.63 2.88-11.28 3.72-17.01.66-4.48 1.13-9.21.43-13.62-2.12-13.35-15.98-26.51-36.22-25.78-20.66.74-40.36 6.48-58.59 16.46-17.55 9.61-34.98 19.43-52.37 29.33-5.7 3.25-11.36 6.18-18.18 5.8-.96-.07-1.94.26-3.25.47zm52.17-96.21c-.18.38-.36.76-.54 1.14 3.42 2.78 6.64 5.87 10.3 8.29 8.38 5.54 16.97 10.75 25.48 16.09 4.2 2.63 10.33 1.79 12.71-1.71 5.61-8.24 10.48-16.86 12.62-26.71.58-2.65.8-5.53.39-8.18-.21-1.32-2.13-3.23-3.43-3.37-3.86-.4-7.83-.36-11.7.06-16.24 1.75-30.71 9.12-45.83 14.39zm-2.35 146.25c-.12.39-.24.78-.36 1.16 1.49.83 2.9 1.9 4.5 2.44 4.97 1.69 10.1 2.93 14.98 4.82 7.36 2.85 14.71 4.26 22.49 1.94 1.68-.5 3.55-.59 5.32-.56 15.87.26 29.39-5.77 41.52-15.46 7.89-6.3 15.4-12.97 19.35-22.69 1.31-3.23 2.14-6.41.87-10.15-8.45 5.43-16.59 10.72-24.81 15.9-3.2 2.02-6.4 4.18-9.88 5.59-16.03 6.51-32.15 12.82-48.27 19.09-1.47.57-3.26.68-4.85.5-6.97-.77-13.91-1.71-20.86-2.58zm54.06-213.9c-1.09 10.47-2.11 20.3-3.2 30.68 20.51 1.46 40.48 1.44 60.41-2.58-18.26-10.89-36.98-20.45-57.21-28.1z"/><path d="m268.78 288.09c-7.24.62-14.64 1.37-22.06 1.85-7.69.5-15.4.74-23.11 1.1-6.37.3-12.09 2.57-15.77 7.71-9.13 12.73-21.57 14.23-35.53 11.52-4.39-.85-8.79-1.59-13.17-2.51-4.69-.98-9.13-2.23-12.99-5.62-2.38-2.09-5.97-2.87-9.09-4.02-3.94-1.45-6.27-4.04-6.78-8.67 4.59-.56 9.09-1.15 13.6-1.66 6.89-.78 13.8-1.36 20.66-2.3 3.07-.42 6.1-1.34 9.07-2.27 10.24-3.19 20.42-6.54 30.67-9.67 1.28-.39 2.85.15 4.29.24 1.63.11 3.25.26 4.88.28.52.01 1.1-.28 1.56-.58 10.82-7.25 22.66-5.19 34.4-3.7 3.41.43 6.88 1.09 10.07 2.32 6.27 2.42 9.99 8.76 9.3 15.98z"/></g></svg>