<svg enable-background="new 0 0 400 400" viewBox="0 0 400 400" xmlns="http://www.w3.org/2000/svg"><g fill="#fafafb"><path d="m12.4 4.8-6.1 9h6v1.2h-8v-.5l6.1-8.9h-5.7v-1.2h7.6v.4z"/><path d="m14 15v-10.6h3c1.6 0 2.9.5 4 1.4s1.6 2.2 1.6 3.8-.5 3-1.6 3.9-2.4 1.5-4 1.5zm1.4-9.4v8.2h1.6c1.3 0 2.4-.4 3.1-1.1s1.1-1.8 1.1-3.1-.4-2.3-1.2-3-1.8-1-3.1-1z"/><path d="m26.1 4.4v10.6h-1.4v-10.6z"/><path d="m36.1 14.6c-.8.4-1.8.6-2.9.6-1.5 0-2.7-.5-3.6-1.4s-1.4-2.2-1.4-3.8c0-1.7.5-3.1 1.5-4.1s2.3-1.6 3.9-1.6c1 0 1.8.1 2.5.4v1.4c-.8-.4-1.6-.6-2.5-.6-1.2 0-2.1.4-2.9 1.2s-1.1 1.8-1.1 3.2c0 1.3.3 2.3 1 3s1.6 1.1 2.7 1.1c1 0 2-.2 2.7-.7v1.3z"/><path d="m37.6 14.3c0-.2.1-.5.3-.6s.4-.3.6-.3c.3 0 .5.1.6.3s.3.4.3.6-.1.4-.3.6-.4.3-.6.3c-.3 0-.5-.1-.6-.3s-.3-.4-.3-.6z"/><path d="m50.2 15h-1.6l-5.3-8.2c-.2-.2-.3-.5-.4-.7 0 .2.1.7.1 1.5v7.4h-1.4v-10.6h1.7l5.2 8.1c.2.4.4.6.4.7 0-.3-.1-.8-.1-1.5v-7.3h1.4z"/><path d="m58.6 15h-5.7v-10.6h5.5v1.2h-4.1v3.4h3.8v1.2h-3.8v3.6h4.3z"/><path d="m67.1 5.6h-3.1v9.4h-1.4v-9.4h-3v-1.2h7.5z"/></g><path d="m139.64 48.72c-13.3-2.55-26.49-4.33-39.97-2.02-2.9.5-6.06.33-8.97-.22-5.99-1.12-8.46-4.42-8.46-10.4 0-6.2-.04-6.36 5.95-7.8 12.99-3.11 26.17-3.08 39.36-1.71 2.34.24 4.65 1.57 6.79 2.74 1.93 1.05 3.49 1.17 5.12-.39 1.9-1.83 4.15-2.4 6.77-1.92 14.4 2.61 28.78.26 43.17-.29 10.17-.39 20.32-1.37 30.49-1.6 3.83-.09 7.68 1.67 11.53 1.71 7.9.09 15.85.04 23.7-.78 13.39-1.4 26.58-.46 39.72 1.96 4.26.79 5.53 2.85 5.16 7.18-.36 4.19-2.04 7.2-6.12 9.13-8.27 3.91-16.89 3.6-25.66 3.18-4.44-.21-8.92.3-13.37.52-2.46.12-3.79 1.24-3.87 3.93-.07 2.32-.61 4.62-.97 7.12-3.78-1.66-7.36-3.24-11.17-4.92v7.05c1.06-.09 2.1-.18 3.16-.28 2.91 5.3 6.18 6.83 9.49 4.33 5.95 20.5 7.54 41.77 11.64 62.58 1.53 7.76 3.77 15.39 5.69 23.06-3.96 3.37-3.99 3.62-1.04 6.95.18-.07.5-.1.53-.21 1.15-4.29 4.15-4.86 8.14-4.77 11.19.26 22.39.01 33.58.18 1.55.02 3.42.9 4.54 2 3.18 3.12 6.06 6.56 9.32 10.17-3.65 1.8-6.91 3.81-10.44 5.06-6.77 2.39-10.13 7.66-11.81 13.96-1.49 5.58-2.11 11.41-2.85 17.16-.9 7.03-3.02 13.65-5.27 20.36-2.1 6.25-2.5 13.08-3.56 19.67-.38 2.32.24 5.19-.93 6.9-2.45 3.59-.8 7.16-1.22 10.7-.85 7.15-2.65 14.12-9.34 18.83 1.85.69 3.36 1.25 5.16 1.91-3.71 7.97-7.34 15.74-10.93 23.52-1.4 3.04-2.88 6-2.14 9.63.17.84-1.32 2.47-2.41 3.02-2.35 1.2-4.93 1.93-7.5 2.88 7.12 3.92 7.63 4.93 4.28 12.57-1.95 4.47-4.38 8.78-7.07 12.85-3.82 5.78-8.29 11.14-12.06 16.95-2.23 3.43-5.12 5.18-8.88 6.44-12.78 4.26-25.64 8-39.28 7.67-15.8-.38-30.13-4.66-43.19-14.18-8.37-6.1-13.94-13.29-18.04-22.77-10.52-24.3-21.49-48.39-29.49-73.69-.52-1.64-.47-3.47-.69-5.21-.46-3.64-.35-7.47-1.48-10.9-3.72-11.3-5.47-22.84-4.83-34.65.38-6.87-2.71-12.55-5.09-18.51-1.15-2.87-2.2-5.51-.65-8.6.4-.79-.01-2.14-.37-3.11-.42-1.13-1.2-2.14-1.82-3.2-5.67-9.63-5.68-9.61-16.61-12.28-2.27-.55-4.68-.97-6.69-2.05-1.76-.95-3.4-2.53-4.48-4.22-1.37-2.16-1.14-4.3 1.96-5.06.97-.24 1.94-.58 2.83-1.03 8.63-4.28 17.44-5.56 27.2-4.21 5.55.77 11.54-1.78 17.36-2.64 3.39-.5 6.9-1.13 10.24-.73 3.67.44 5.68-1.12 6.75-4.01 1.04-2.79 1.76-5.81 2.01-8.78 2.48-28.53 4.83-57.08 7.22-85.62.03-.23-.05-.45-.14-1.11zm51.34 262.29c1.66-1.06 3.15-2.3 4.85-3.04 5.44-2.37 11.17-1.98 16.84-1.17 8.84 1.27 17.61 3.05 26.48 4.02 10.68 1.16 15.5-1.95 19.43-11.87 3.24-8.16 5.52-16.55 4.78-25.47-.19-2.27.6-3.43 2.79-4.16 3.17-1.06 6.24-2.45 9.3-3.79 2.05-.9 3.43-7.36 1.69-8.39-4.45-2.63-9.08-4.95-13.64-7.4-.25.15-.51.3-.76.45 4 4.84 1.35 9.89.84 14.83-.09.92-1.58 2.34-2.5 2.41-4.55.34-9.14.64-13.68.31-6.9-.49-13.74-1.89-20.64-2.22-18.09-.87-36.13-1.9-54.02-5.06-12.58-2.22-25.29-2.86-38.08-1.58-3.76.37-4.89 2.28-5.25 5.56-.29 2.64-.99 5.23-1.34 7.86-.17 1.29-.27 2.75.15 3.94 1.61 4.51 3.45 8.94 5.18 13.4 1.61 4.15 2.84 8.5 4.92 12.39.94 1.75 3.51 3.61 5.41 3.68 7.55.27 15.14.08 22.69-.36 8.84-.51 17.78-2.16 24.56 5.66zm50.71-64.65c-2-4.71-3.39-9.65-6-13.83-10.06-16.07-17.62-33.39-26.15-50.24-2.02-3.99-6.03-7.85-10.07-9.68-3.82-1.73-6.79 2.76-9.55 5.49-.13.13-.38.14-.72.25-1.11-2.07-2.22-4.17-3.26-6.1-2.68 1.54-1.69 6.52-6.65 5.93 3.63-4.52 3.63-4.52 2.18-7.08-2.33 3.21-4.59 6.32-6.83 9.41.96 1.33 1.72 2.4 2.72 3.78-1.3.88-2.48 1.68-3.67 2.48 1.1 1.54 1.79 2.51 2.69 3.79 2.53-3.44 4.88-6.62 7.89-10.7 1.44 2.43 3.1 4.1 3.41 5.99 1 6.2-4.68 7.63-7.8 10.72 0 1.73-.16 3.43-.97 4.74-2.2 3.55-5.8 6.37-5.63 11.09.11 2.97-1.08 4.45-4.14 4.72-.85.07-2 1.22-2.33 2.12-1.69 4.71-2.49 9.81-6.61 13.32-.35.3-.42 1-.51 1.53-1.19 7 1.2 9.85 8.24 9.87.67 0 1.34-.01 2.02.01 6.04.13 11.6 1.15 14.34 7.58.29.67.9 1.21 1.55 2.04 1.68-1.59 3.34-2.91 4.7-4.49 1.65-1.91 3.41-2.21 5.9-1.88 6.54.86 12.98 3.52 19.79 1.01 1.73-.64 3.98-.01 5.96.26 6.36.85 12.68 1.56 19.5-2.13zm-96.46-95.22c1.81.34 3.11.75 4.43.79 2.47.08 5.11.47 7.36-.26 1.72-.56 3.03-1.06 4.56-.01 2 1.39 3.75 1.05 5.29-.7 2.32-2.65 5.34-2.98 8.57-2.67 1.56.15 3.13.6 4.66.49 2.4-.17 4.86-.48 7.13-1.21.81-.26 1.84-2.1 1.62-2.91-1.61-5.96-1-11.68 1.02-17.4.7-1.99 1.09-4.1 1.57-6.17 1.18-5.13 1.51-10.18-1.63-14.85-.24-.36-.53-.82-.5-1.22.39-6.11.32-12.32 1.47-18.29.55-2.84.66-5.27.13-8.03-.89-4.65-2.44-9.5-1.87-14.04 1.42-11.43-1.03-15.15-12.39-16.71-7.18-.99-13.66.11-18.87 4.54 1.04 3.29 2.54 6.25 2.79 9.31.28 3.45-2.46 5.62-4.68 6.78.8 1.66 2.1 3.07 2.07 4.47-.14 8.38-.56 16.76-.94 25.14-.04.96-.14 2.23-.75 2.79-3.01 2.79-3.19 6.36-2.65 9.9.85 5.6-.96 9.12-6.73 10.23-.51.1-.95.51-2.17 1.2 1.49 1.96 2.79 3.76 4.2 5.47.83 1.01 2.49 1.8 2.64 2.85.83 5.64 1.25 11.33-2.4 16.72-.66-1.86-1.2-3.39-2.01-5.68-.72 3.58-1.29 6.36-1.92 9.47zm60.89-71.91c1.07 3.98 2.3 7.14 2.73 10.4 1.01 7.65 1.9 15.33 2.32 23.03.31 5.77.96 11.93-.67 17.27-1.69 5.54-.61 9.79 1.62 14.42.92 1.91 1.7 3.89 2.54 5.84 1.66 3.82 3.18 4.25 7.06 2.63 1.5-.63 3.9-1.14 4.97-.39 2.59 1.81 4.8.96 7.22.19 2.66-.84 5.3-1.81 8.01-2.44 1.99-.47 2.39-1.48 2.19-3.35-.34-3.22-.5-6.47-.62-9.71-.37-9.3-1.15-18.5-4.95-27.2-.68-1.56-.74-3.53-.6-5.27.69-8.55-.65-16.65-4.63-24.32-.59-1.14-.74-2.87-.35-4.1 2.96-9.55-.09-18.04-4.49-26.27-.51-.96-1.7-2.03-2.71-2.18-7.88-1.23-15.64-1.66-21.25 5.7 5.59 7.3 6.14 21.53 1.61 25.75zm-95.45 88.82c-.59 6.12.92 11.38 4.32 16.41.43-1.62.77-2.95 1.3-4.98.58 2.22.97 3.69 1.36 5.18-.92.43-1.65.77-1.94.91.58 3.9 1.24 7.4 1.6 10.94.96 9.57 1.61 19.18 2.72 28.73 1.09 9.41 5.1 17.38 12.29 23.01 8.87-16 17.69-31.89 26.61-47.96 4.81 2.96.57 7.57 1.4 11.28.33.15.66.29.98.44 1.66-2.83 3.33-5.66 4.99-8.49-3.91-3.16-3.86-3.15-2.86-8.21 1.32-6.68 3.73-12.91 7.96-18.26 1.72-2.17 1.02-4.12 0-5.85-.49-.83-2.35-1.1-3.62-1.18-7.69-.47-15.38-.84-23.07-1.18-4.89-.22-9.84-.82-14.67-.36-5.63.53-9.96 4.1-13.79 8.27-2.75-7.38-2.75-7.38-5.58-8.7zm62.15 184.02c2.41.87 4.56 1.5 6.59 2.39 8.38 3.65 17.15 5.64 26.25 6.23 1.97.13 4.07.22 5.92-.34 5.77-1.73 11.5-3.66 17.14-5.76 1.53-.57 3.05-1.82 4-3.16 3.68-5.2 6.95-10.69 10.73-15.8 2.06-2.79 1.69-5.18-.5-7.06-1.62-1.4-4-2.46-6.12-2.63-3.64-.29-7.36.54-11.01.33-7.13-.4-14.25-1.13-21.36-1.82-11.1-1.08-22.37-1.41-33.23-3.68-6.73-1.41-12.59-1.12-18.85.99-2.55.86-2.99 1.93-2.49 4.33 1.06 5.02 3.18 9.43 6.9 13.04-.41.48-.69.82-1 1.14-3.46 3.61-2.91 5.68 1.81 7.2.81.26 1.44 1.08 2.25 1.39.71.27 1.9.57 2.3.21 3.63-3.27 5.38-.16 7.61 1.96-1.09 1.19-2.06 2.26-3.18 3.49.76 1.15 1.49 2.26 2.41 3.65 1.45-2.3 2.57-4.09 3.83-6.1zm97.13-107.96c1.66-3.97 4.49-7.54 4.17-10.79-.41-4.09-.88-7.66 1.44-11.2.17-.26.13-.65.18-.98 2.2-14.58 4.4-29.16 6.6-43.75.61-4.01-.99-5.34-4.94-4.46-2.8.62-5.71 1.22-8.55 1.12-12.95-.47-25.9-1.18-38.84-1.81-3.91-.19-6.67 3.52-4.55 6.72 2.25 3.38 5.16 6.38 8.07 9.25 4.47 4.41 3.31 10.82-2.44 12.8-.9.31-2.11 1.08-2.3 1.85-.54 2.22-.63 4.54-.93 7.12 1.46-.08 2.41-.13 3.36-.17-.02-6.08-.02-6.08 6.71-8.65.55 1.07 1.19 2.12 1.65 3.24 3.56 8.68 8.61 16.31 15.24 23 5.1 5.14 9.74 10.72 15.13 16.71zm-.49-208.49c5.59.48 10.63.87 15.67 1.35 2.01.19 2.78-1.03 2.49-2.55-.12-.62-2.03-1.51-2.81-1.28-3.42 1.04-6.59.6-9.76-.8-.99-.44-2.07-.66-3.23-1.02-.69 1.26-1.27 2.32-2.36 4.3zm-74.08 57.09c1.85-.23 3.28-.56 4.7-.55 3.56.05 3.26-2.57 3.51-4.84.3-2.6-1.02-3.98-3.44-4.43-.6-.11-1.7-.04-1.83.26-1.25 2.95-3.61 5.59-2.94 9.56zm-3.53 73.19c-2.18-4.39-6.29-4.59-9.95-6.22-.59 2.52-1.08 4.63-1.68 7.22 4.07-.34 7.67-.65 11.63-1zm4.42-13.52c-2.61.87-4.98 1.67-7.96 2.67 2.47 1.7 4.49 3.09 6.33 4.36 3.22-1.86 3.16-4.12 1.63-7.03zm45.11 102.67c1.07 5.32 4.67 3.32 7.49 3.9-.12-1.89-.41-4.77-1.2-4.91-1.93-.34-4.09.58-6.29 1.01zm-43.05-206.3c-1.83 1.31-3.48 2.42-5.03 3.65-.41.32-.81 1.22-.64 1.56.21.42 1.07.79 1.58.71 2.49-.37 4.96-.89 7.9-1.44-1.47-1.73-2.59-3.05-3.81-4.48zm43.59-12.6c.01-.37.02-.73.02-1.1-1.13-.06-2.43-.5-3.34-.09-2.04.94-3.21 2.58-2.02 5.3 1.86-1.43 3.6-2.77 5.34-4.11zm3.58 52.72c.88-2.09 1.76-4.17 2.92-6.93-4.09 1.3-5.94 2.86-2.92 6.93zm3.85-53.51c-1.68.9-3.24 1.65-4.7 2.57-.44.27-.59 1-.87 1.53.62.29 1.26.84 1.87.82 2.88-.12 3.98-1.81 3.7-4.92zm6.73 103.98c1.84-.36 3.07-.6 4.53-.88-.62-2.12-1.12-3.87-1.8-6.21-.98 2.55-1.73 4.48-2.73 7.09zm30.37 86.69c2.2-3.36 1.44-5.74-1.94-7.74.71 2.82 1.32 5.28 1.94 7.74zm-179.59-20.01h7.28c.14-.21.28-.42.42-.62-1.01-.78-2.02-1.57-3.25-2.53-1.16.83-2.44 1.73-4.45 3.15zm147.48 37.93c-1.73-1.4-2.94-2.38-4.4-3.57v5.11c1.4-.49 2.51-.88 4.4-1.54zm-13.47-191.09c.26.16.53.32.79.48.62-.83 1.76-1.67 1.73-2.48-.04-1.09-.97-2.16-1.51-3.23-.34.15-.68.31-1.02.46.01 1.58.01 3.17.01 4.77zm5.13 265.64c2.6 3.66 4.31.96 6.17.23-.04-.41-.09-.82-.13-1.24-1.89.32-3.78.63-6.04 1.01z" fill="#010105"/></svg>