<svg enable-background="new 0 0 400 400" viewBox="0 0 400 400" xmlns="http://www.w3.org/2000/svg"><path d="m362.1 8.8c1.1.8 2.1 1.6 3.1 2.4l-1 1.1c-1.3-1.1-2.3-2-3-2.5zm1.9 4.8c.5.2.9.4 1.4.5-.6 2.3-1.3 4.5-1.9 6.8l-1.5-.5c.8-2.1 1.4-4.3 2-6.8zm-1-9.4c1.3.9 2.4 1.8 3.4 2.5l-1 1.1c-1.4-1.2-2.4-2.1-3.2-2.6zm3.7 2.2v-1.4h10.3v1.2c-.5 3.6-1.8 6.8-4 9.4 1.5 1.6 3.4 2.8 5.7 3.8-.3.4-.7.8-1.1 1.4-2.3-1.1-4.1-2.5-5.6-4.1-1.6 1.6-3.6 3.1-5.9 4.3-.3-.5-.7-.9-1-1.3 2.4-1.1 4.4-2.5 6-4.1-1.9-2.5-3-5.6-3.3-9.3h-1.1zm8.8 0h-6.4c.3 3.3 1.3 6 3 8.2 2-2.3 3.1-5.1 3.4-8.2z" fill="#fbfafc"/><path d="m385.3 3.8h1.3v2.2h2.8v-2.2h1.3v2.2h4.1v9.1h1.7v1.3h-16.9v-1.3h1.7v-9.1h4.1v-2.2zm.4 13.1.7 1.2c-1.8.9-3.8 1.9-6 2.9-.2-.4-.5-.8-.8-1.3 2.3-1 4.3-1.9 6.1-2.8zm-3.1-6.4h2.8v-3.2h-2.8zm0 4.6h2.8v-3.3h-2.8zm4-4.6h2.8v-3.2h-2.8zm0 4.6h2.8v-3.3h-2.8zm3.7 1.9c2.1.9 4.1 1.8 6.1 2.7l-.7 1.3c-2.2-1.1-4.2-2-6.1-2.9zm3.2-9.7h-2.8v3.2h2.8zm-2.8 7.8h2.8v-3.3h-2.8z" fill="#fbfafc"/><g fill="#000001"><path d="m92.92 289.39c7-1.48 12.3.3 17.53 4.08 10.51 7.59 21.09 15.17 32.23 21.78 27.8 16.49 57.98 22.92 90.16 19.48 5.54-.59 11-2.09 16.55-2.56 4.91-.42 6.77-3.49 8.44-7.77-6.87-.63-13.52-1.25-20.17-1.85-11.7-1.05-23.38-2.48-35.1-2.94-5.09-.2-10.24 1.74-15.41 2.39-2.18.27-4.91.42-6.63-.63-5.51-3.34-10.87-7.01-15.9-11.03-9.95-7.94-19.59-16.29-29.49-24.3-4.62-3.74-7.01-9.05-6.21-15.5 4.12-.38 7.77-1.44 12.22 1.33 4.61 2.87 10.62 4.11 16.17 4.74 11.13 1.26 21.99 3 32.75 6.48 6.4 2.07 13.72 1.37 20.63 1.81 7.59.49 15.2.7 22.77 1.37 2.72.24 5.38 1.38 8.01 2.28 13.3 4.58 26.59 9.23 39.88 13.85 7.76 2.69 16.71-.65 20.81-7.75 1-1.74 2.01-3.48 3.37-5.83-3.86-1.49-7.45-3.27-11.25-4.29-18.76-5-37.89-6.64-57.2-5.06-8.82.72-16.03-1.71-22.12-8.01-4.59-4.74-9.01-9.72-14.06-13.93-4.15-3.46-8.9-6.36-13.74-8.81-10.03-5.07-20.09-2.67-29.9 1.05-3.74 1.42-7.4 3.17-10.82 5.24-13.96 8.46-27.96 16.89-41.64 25.79-5.46 3.55-11.09 4.39-16.93 2.94-8.21-2.04-16.11-5.34-24.34-7.31-11.81-2.82-20.11-10.66-28.96-18.88 6.26-1.2 12.18-2.35 18.11-3.46 7.58-1.42 15.2-2.67 22.74-4.29 2.8-.6 5.47-1.9 8.12-3.08 32.66-14.55 65.31-29.12 97.95-43.71 5.73-2.56 10.32-6.28 11.98-12.71.14-.54.28-1.08.36-1.63.07-.44.05-.89.08-1.64-6.42-2.01-13.02-2.81-19.73-2.44-10.63.59-20.31-1.58-28.9-8.33-8.98-7.04-18.33-13.61-27.4-20.52-1.84-1.4-3.38-1.52-5.47-.87-15.14 4.74-30.3 9.43-45.5 13.96-1.48.44-3.51.13-4.93-.56-6.49-3.16-12.15-8.05-19.58-9.25-2.98-.48-5.96-.96-8.9-1.62-4.22-.94-7-4.4-6.96-8.68.01-.81.62-2.02 1.29-2.33 2.6-1.21 5.34-3.01 8.03-3.01 11.56-.02 22.16-3.75 32.85-7.41 51.1-17.48 103.08-31.98 155.23-45.93 20.49-5.48 40.53-12.67 60.99-18.29 9.96-2.74 20.38-4.77 30.66-5.06 8.19-.23 16.56 2.31 24.69 4.28 5.09 1.23 7.35 5.62 7.88 10.63.09.85-1.11 2.42-2.02 2.71-9.99 3.18-19.95 6.5-30.09 9.13-11.13 2.89-22.53 4.72-33.62 7.72-8.26 2.23-15.87 6.12-21.3 13.5 1.97 2.11 4.05 4.1 5.84 6.32 5.34 6.63 5.29 13.13.12 19.87-3.26 4.25-6.44 8.57-9.56 12.92-.77 1.07-1.29 2.35-1.78 3.6-2.37 5.96-2.25 6.87 3.22 10.2 3.02 1.84 4.09 4.56 4.95 7.56.51 1.76 1.44 2.41 3.32 2.49 17.99.79 35.97 1.65 53.95 2.6 1.44.08 3.07.62 4.22 1.48 10.2 7.66 20.44 15.28 30.39 23.25 5.89 4.72 8.45 11.7 10.67 18.64 3.96 12.36 2.52 24.72-.24 37.1-2.8 12.58-6.44 24.87-11.68 36.66-.62 1.4-1.46 2.77-2.47 3.92-4.9 5.53-9.73 11.13-14.88 16.42-7.39 7.59-13.74 15.86-18.59 25.3-.69 1.34-2.12 2.63-3.51 3.24-13.31 5.81-26.43 12.22-40.13 16.96-12.19 4.22-25 6.66-37.59 9.64-4.55 1.08-9.28 1.4-13.92 2.11-12.62 1.94-24.67-1.48-36.79-4-16.2-3.37-32.39-6.91-47.5-13.93-3.53-1.64-7.15-3.99-9.58-6.95-9.66-11.73-19.24-23.57-28.08-35.92-3.68-5.14-5.6-11.59-7.92-17.6-.84-2.18-.49-4.8-.67-7.15zm225.41-21.4c3.07-5.74 6.02-11.23 8.96-16.72 6.02-11.26 6.02-11.27 3.99-23.99-.46-2.85-.45-5.96-1.65-8.48-4.01-8.42-12.34-12.65-21.69-12.28-10.12.4-20.32 2.1-30.37-.32-5.28-1.27-9.99-.44-14.9 1.57-5.16 2.1-10.54 3.69-15.9 5.23-9.76 2.8-19.71 5.02-29.33 8.22-6.38 2.12-12.33 5.52-18.47 8.35-.09.5-.18 1-.26 1.5 1.5 1.12 2.85 2.87 4.53 3.27 22.5 5.34 45 10.65 67.58 15.64 12.59 2.78 24.94 5.98 36.21 12.52 3.53 2.04 7.37 3.6 11.3 5.49zm-175.89-122.83c4.39 2.02 7.86 4.57 11.66 5.19 19.06 3.12 38.21 5.74 57.33 8.5.94.14 2.24.31 2.84-.18 4.79-3.95 10.77-6.73 13.66-12.6 2.26-4.59 4.35-9.32 5.88-14.19 2.45-7.81-2.72-13.18-10.7-11.33-15 3.49-30.01 6.98-44.94 10.77-12.13 3.09-23.94 7.16-35.73 13.84z"/><path d="m75.01 67.58c9.48-3.01 18.92-6.01 28.37-9 12.99-4.11 26.07-7.98 38.93-12.45 4.44-1.54 8.35-4.61 12.53-6.93 1.24-.69 2.67-1.81 3.89-1.66 9.88 1.21 18.59-3.14 27.7-5.55 13.11-3.46 26.38-6.42 39.97-6.2 14.57.24 28.92 2.69 42.79 7.36 4.4 1.49 8.28 3.97 10.79 8.09.57.94.98 2.01 1.32 3.07 1.92 6.03.22 9.26-6.04 9.38-6.86.12-13.74-.92-20.61-1.48-6.9-.56-13.86-2.04-20.67-1.51-7.94.61-15.87 2.48-23.58 4.64-18.8 5.25-36.52 13.26-53.66 22.5-4.29 2.31-8.12 5.52-12.01 8.52-1.26.98-2.74 2.55-2.86 3.95-.26 2.94-2.09 3.59-4.23 3.73-6.24.39-12.5.58-18.75.78-.72.02-1.56-.27-2.17-.68-8.06-5.27-17.14-8.04-26.21-10.9-7.22-2.28-13.24-6.07-15.29-14.06-.12-.43-.12-.88-.21-1.6z"/></g></svg>