<svg enable-background="new 0 0 400 400" viewBox="0 0 400 400" xmlns="http://www.w3.org/2000/svg"><g fill="#fafafb"><path d="m12.4 4.8-6.1 9h6v1.2h-8v-.5l6.1-8.9h-5.7v-1.2h7.6v.4z"/><path d="m14 15v-10.6h3c1.6 0 2.9.5 4 1.4s1.6 2.2 1.6 3.8-.5 3-1.6 3.9-2.4 1.5-4 1.5zm1.4-9.4v8.2h1.6c1.3 0 2.4-.4 3.1-1.1s1.1-1.8 1.1-3.1-.4-2.3-1.2-3-1.8-1-3.1-1z"/><path d="m26.1 4.4v10.6h-1.4v-10.6z"/><path d="m36.1 14.6c-.8.4-1.8.6-2.9.6-1.5 0-2.7-.5-3.6-1.4s-1.4-2.2-1.4-3.8c0-1.7.5-3.1 1.5-4.1s2.3-1.6 3.9-1.6c1 0 1.8.1 2.5.4v1.4c-.8-.4-1.6-.6-2.5-.6-1.2 0-2.1.4-2.9 1.2s-1.1 1.8-1.1 3.2c0 1.3.3 2.3 1 3s1.6 1.1 2.7 1.1c1 0 2-.2 2.7-.7v1.3z"/><path d="m37.6 14.3c0-.2.1-.5.3-.6s.4-.3.6-.3c.3 0 .5.1.6.3s.3.4.3.6-.1.4-.3.6-.4.3-.6.3c-.3 0-.5-.1-.6-.3s-.3-.4-.3-.6z"/><path d="m50.2 15h-1.6l-5.3-8.2c-.2-.2-.3-.5-.4-.7 0 .2.1.7.1 1.5v7.4h-1.4v-10.6h1.7l5.2 8.1c.2.4.4.6.4.7 0-.3-.1-.8-.1-1.5v-7.3h1.4z"/><path d="m58.6 15h-5.7v-10.6h5.5v1.2h-4.1v3.4h3.8v1.2h-3.8v3.6h4.3z"/><path d="m67.1 5.6h-3.1v9.4h-1.4v-9.4h-3v-1.2h7.5z"/></g><path d="m232.84 80.91c-.08-.98-.15-1.95-.23-2.89-5.41-1.38-6.09-.91-7.44 5.25 2.73.47 5.43 1.15 8.16 1.33 2.31.15 2.94 1.2 3.18 3.28 1.61 13.55 3.33 27.09 5.02 40.64.05.44.15.87.29 1.66 6.59.75 13.23 1.5 19.87 2.25 9.56 1.07 19.13 2.08 28.67 3.25 1.34.16 2.79.81 3.85 1.66 5.67 4.56 11.2 9.29 16.86 13.86 1.53 1.23 2.16 2.38 1.2 4.25-.51.98-.71 2.11-1.04 3.18-1.16 3.71-3.65 7.64-3.1 11.08.52 3.32 4.15 6.16 6.46 9.18 3.33 4.36 6.83 8.59 9.97 13.08.95 1.36 1.49 3.47 1.28 5.12-.73 5.65-1.85 11.25-2.87 16.86-.86 4.72 2.39 7.51 5.13 10.31 4.26 4.35 4.11 7.68-.5 11.62-5.01 4.27-9.94 8.69-14.42 13.49-3.73 3.99-5.22 8.73-3.51 14.54 1.9 6.43.34 13-1.95 19.08-13.25 35.21-33.78 64.74-67.09 83.9-17.66 10.16-36.47 11.14-55.83 5.97-12.86-3.43-24.65-9.29-35.91-16.27-1.08-.67-1.95-1.81-2.67-2.9-5.77-8.66-11.72-17.21-17.11-26.1-3.71-6.11-8.95-10.62-14.32-14.92-7.26-5.82-12.35-12.8-15.8-21.49-4.69-11.83-10.34-23.28-15.44-34.95-1.09-2.49-2.42-4.48-5.05-5.4-.21-.07-.42-.17-.6-.29-2.54-1.69-6.09-2.82-7.41-5.19-2.63-4.73-2.83-10.2-1.68-15.67 1.35-6.42 2.58-12.87 3.5-19.36.24-1.69-.52-3.73-1.34-5.34-2.47-4.86-5.2-9.58-7.94-14.55 1.34-.85 2.45-1.57 3.58-2.26 20.45-12.44 40.87-24.92 61.37-37.27 2.12-1.28 2.88-2.36 2.28-4.98-1.75-7.62-3.43-15.29-4.49-23.03-.66-4.83-.28-9.82-.15-14.73.36-13.65.78-27.3 1.31-40.94.09-2.19-.65-3.12-2.64-3.87-9.83-3.74-20.12-5.07-30.48-6.17-10.24-1.08-16.13-6.28-17.32-15.51 7.2-1.3 14.42-2.63 21.65-3.92 23.22-4.14 46.45-8.28 69.69-12.35 1.59-.28 3.35-.23 4.92.13 11.11 2.56 22.12 5.64 33.32 7.7 5.47 1.01 11.31.48 16.94.12 20.99-1.34 41.95-3.02 62.94-4.33 8.35-.52 15.18 3.21 20.74 9.22 3.45 3.73 4.14 8.38 3.24 13.19-.22 1.19-1.46 2.48-2.57 3.16-7.55 4.66-16.05 6.13-24.71 6.47-8.16.32-16.34.07-24.5.21-2.78.05-5.56.51-8.34.79-5.25.52-9.16 2.58-11.03 8.06-1.28 3.76-3.51 7.19-5.31 10.77-.24.02-.43.02-.63.02zm47.06 185.01c-.07-6.46-4-11.42-7.73-16.45-.4-.54-1.6-.65-2.43-.68-9.5-.26-19-.48-28.51-.7-19.56-.45-39.13-.79-58.69-1.42-4.45-.14-8.06.36-10.43 4.61-.97 1.73-2.68 3.04-3.73 4.73-1.28 2.06-2.69 2.04-4.77 1.33-13.22-4.51-26.47-8.93-39.75-13.27-1.22-.4-2.87-.4-4.02.1-2.24.98-4.36 2.31-6.32 3.77-.78.58-1.49 1.96-1.41 2.9 1.3 14.58 7.49 26.98 17.29 37.66.74.8 2.34 1.31 3.45 1.19 8.78-.94 17.53-2.17 26.31-3.11 6.42-.69 12.93-1.89 19.29-1.41 7.41.56 14.69 2.77 22.05 4.14 1.94.36 4.01.62 5.93.33 20.34-3.03 40.68-6.09 60.98-9.39 3.51-.57 8.28.87 10.21-2.99 1.63-3.23 1.56-7.33 2.28-11.34zm-92.44-210.83c-4.81 0-9.63.11-14.43-.05-2.08-.07-3.17.71-4.24 2.44-8.35 13.48-12.32 28.21-12.45 43.96-.11 13.27 2.36 26 8.89 37.76.9 1.62 1.81 2.18 3.69 1.8 10.62-2.17 21.24-4.38 31.92-6.21 2.92-.5 3.99-1.81 4.37-4.4 1.02-6.97 2.52-13.89 3.05-20.89.92-12.03 1.65-24.1 1.64-36.15 0-4.97-1.98-9.98-3.33-14.9-.68-2.46-2.47-3.61-5.34-3.44-4.58.28-9.18.08-13.77.08zm-41.14 261.24c.18.53.21.87.39 1.11 5.75 8.13 11.51 16.26 17.29 24.36.44.61 1.04 1.21 1.69 1.56 10.78 5.77 22.14 9.68 34.48 9.95 18.32.41 33.17-7.55 46.54-19.3 7.04-6.19 7.86-14.38 8.32-22.8.12-2.09-.95-3.83-3.22-4.04-9.91-.88-19.81-1.74-29.59 1.23-4.37 1.33-8.84 2.4-13.3 3.4-10.31 2.3-20.71 1.15-31.1.65-10.67-.5-21.12 1-31.5 3.88zm21.94-92.1c4.26.28 8.26.59 12.27.8 7.95.42 15.96 1.03 23.17-3.36 1.26-.77 2.47-2.26 2.9-3.66 3.31-10.9 3.49-22.07 1.95-33.24-1.52-11-7.38-19.01-17.67-23.53-.96-.42-2.25-.78-3.16-.48-8.9 2.89-17.75 5.93-26.79 8.98 2.45 18.28 4.88 36.32 7.33 54.49zm69.89-52.6c-6.13 11.96-5.97 27.31-1.46 41.01 3.07 9.31 9.2 12.63 17.99 13.35 3.75.31 7.51.45 10.42-2.4 4.75-4.64 10.48-7.19 16.94-8.07 2.64-.36 3.47-1.71 3.83-4.05 1.83-11.72-.02-22.71-6.31-32.85-3.28-5.29-3.33-5.26-9.11-2.84-1.03.43-2.13.75-3.08 1.31-3.33 1.99-6.56 1.82-10.19.5-6.26-2.26-12.72-4.01-19.03-5.96zm-141.48 32.42c-.99 7.01-.3 13.03 3.15 18.48.51.8 1.59 1.74 2.42 1.75 9.57.12 19.09-.64 27.67-5.27 3.3-1.78 7.04-4.33 8.57-7.49 3.81-7.88 4.4-16.55 2.99-25.24-1.06-6.52-5.26-10.98-11.73-12.1-1.54-.27-3.57.13-4.88.98-6.56 4.26-12.72 9.16-19.47 13.08-6.62 3.85-10.87 8.36-8.72 15.81z" fill="#010105"/></svg>