<svg enable-background="new 0 0 400 400" viewBox="0 0 400 400" xmlns="http://www.w3.org/2000/svg"><g fill="#fafafb"><path d="m12.4 4.8-6.1 9h6v1.2h-8v-.5l6.1-8.9h-5.7v-1.2h7.6v.4z"/><path d="m14 15v-10.6h3c1.6 0 2.9.5 4 1.4s1.6 2.2 1.6 3.8-.5 3-1.6 3.9-2.4 1.5-4 1.5zm1.4-9.4v8.2h1.6c1.3 0 2.4-.4 3.1-1.1s1.1-1.8 1.1-3.1-.4-2.3-1.2-3-1.8-1-3.1-1z"/><path d="m26.1 4.4v10.6h-1.4v-10.6z"/><path d="m36.1 14.6c-.8.4-1.8.6-2.9.6-1.5 0-2.7-.5-3.6-1.4s-1.4-2.2-1.4-3.8c0-1.7.5-3.1 1.5-4.1s2.3-1.6 3.9-1.6c1 0 1.8.1 2.5.4v1.4c-.8-.4-1.6-.6-2.5-.6-1.2 0-2.1.4-2.9 1.2s-1.1 1.8-1.1 3.2c0 1.3.3 2.3 1 3s1.6 1.1 2.7 1.1c1 0 2-.2 2.7-.7v1.3z"/><path d="m37.6 14.3c0-.2.1-.5.3-.6s.4-.3.6-.3c.3 0 .5.1.6.3s.3.4.3.6-.1.4-.3.6-.4.3-.6.3c-.3 0-.5-.1-.6-.3s-.3-.4-.3-.6z"/><path d="m50.2 15h-1.6l-5.3-8.2c-.2-.2-.3-.5-.4-.7 0 .2.1.7.1 1.5v7.4h-1.4v-10.6h1.7l5.2 8.1c.2.4.4.6.4.7 0-.3-.1-.8-.1-1.5v-7.3h1.4z"/><path d="m58.6 15h-5.7v-10.6h5.5v1.2h-4.1v3.4h3.8v1.2h-3.8v3.6h4.3z"/><path d="m67.1 5.6h-3.1v9.4h-1.4v-9.4h-3v-1.2h7.5z"/></g><path d="m72.58 145.97c18.16-3.84 36.2-7.66 54.25-11.48 5.03-1.07 10.02-2.37 15.09-3.16 2.95-.46 4.98-1.85 5.61-4.5 1.25-5.28 2.9-10.67 2.87-16.01-.09-14.15-2.53-28.03-6.7-41.59-.59-1.93-1.44-3.14-3.56-3.35-5.11-.49-10.2-1.11-15.31-1.58-2.67-.24-5.38-.09-8.03-.45-3.13-.42-5.77-1.77-6.96-5.02-1.26-3.45-.75-5.07 2.47-6.86 14.33-7.98 29.67-10.74 45.94-9.19 3.13.3 6.39-.21 9.53-.72 11.25-1.8 22.42-4.18 33.72-5.53 7.96-.95 16.07-.51 24.11-.88 2.03-.09 4.31-.47 5.99-1.5 11.66-7.15 24.61-7.36 37.59-7 5.73.16 8 2.76 7.99 7.81 0 1.06-.77 2.61-1.65 3.1-5.25 2.97-10.48 6.12-16.05 8.35-2.93 1.17-6.57.84-9.87.75-2.4-.06-4.07.7-4.64 2.88-1.25 4.83-2.94 9.7-3.17 14.61-.36 7.69.28 15.43.64 23.14.07 1.5.45 3.2 1.26 4.43 3.13 4.7 4.59 9.9 5.25 15.4.05.44.09.89.15 1.33 1.52 9.81 5.06 12.99 14.88 11.76 10.84-1.36 21.58-3.53 32.36-5.39 7.19-1.24 14.33-1.6 20.78 2.52 2.45 1.56 4.41 3.89 6.77 6.03-7.35 5.82-15.46 7.11-23.76 7.93-5.07.5-10.27.63-14.63 3.63-.03.44-.15.73-.05.87 3.49 4.96 3.77 10.27 1.94 15.91-1.98 6.12-.76 12.26.62 18.22 5.02 21.76 2.09 43.66 1.72 65.54-.48 28.2-9.02 54.58-17.75 80.91-3.58 10.8-7.45 21.57-12.27 31.85-2.84 6.05-7.42 11.43-11.86 16.54-8.94 10.29-20.52 12.34-33.33 9.3-6.8-1.62-13.18-4.1-18.73-8.58-3.65-2.95-7.46-5.76-11.48-8.17-7.01-4.21-11.94-10.13-16.24-16.97-17.21-27.35-32.16-55.79-42.8-86.36-6.54-18.77-10.71-38.1-12.6-57.88-.88-9.24-1.19-18.53-1.71-27.8-.68-11.88-7.96-17.3-19.51-14.5-2.93.71-5.86 1.47-8.83 1.95-7.91 1.28-11.08-1.9-10.04-10.29zm93.22 79.65c10.48.52 12.87 2.85 14.9 12.47.81 3.85 2.95 7.41 4.44 11.12.73 1.82 1.91 2.02 3.72 1.57 7.7-1.91 15.42-3.74 23.17-5.45 2.1-.46 2.55-1.53 2.53-3.49-.09-8.06.01-16.12-.06-24.18-.04-4.69.36-9.49-.48-14.05-3.33-18.03-7.11-35.98-10.62-53.97-.35-1.79-1.09-2.37-2.78-2.58-4.55-.55-9.14-1-13.59-2.04-3.12-.73-4.87.42-6.41 2.75-3.28 4.97-4.22 10.6-4.18 16.34.07 11.19.53 22.37.61 33.56.03 3.72-.63 7.44-.98 11.18-9.23-1.5-13.61-5.7-14.71-14.21-.44-3.41-.23-6.92-.1-10.38.33-8.74-.73-17.2-4.66-25.12-.74-1.49-1.44-3.44-2.73-4.13-7.78-4.2-15.77-7.47-24.96-4.5-3.47 1.12-5.25 3.24-5.46 6.67-.16 2.66-.48 5.5.24 7.98 5.1 17.56 5.89 35.71 7.71 53.71 1.16 11.49 4.05 22.42 9.98 32.42.57.96 1.69 2.38 2.45 2.31 6.31-.55 12.62-1.21 18.86-2.24 2.37-.39 3.57-2.34 2.27-4.86-3.64-7.1-1.6-13.91.84-20.88zm3.9-92.36c7.11 0 13.81.06 20.51-.04 1.98-.03 4.02-.29 5.92-.84 10.62-3.1 21.17-6.43 31.81-9.43 2.91-.82 3.3-2.14 2.64-4.75-2.67-10.46-4.06-21.06-2.98-31.89.56-5.68 1.13-11.36 1.47-17.05.62-10.44-4.22-17.15-14.47-18.79-4.49-.72-9.31.17-13.93.76-12.6 1.63-24.81 4.59-35.9 11.21-2.02 1.21-2.77 2.4-2.48 4.76 1.26 10.44 2.32 20.9 3.49 31.35 1.27 11.44 2.58 22.88 3.92 34.71zm63.48 111.75c3.61 0 7.42.35 11.15-.07 8.08-.91 16.13-2.15 24.16-3.41 2.74-.43 3.88-2.05 3.92-5.14.22-18.9.75-37.81 1.04-56.71.04-2.74-.27-5.59-1-8.23-2.58-9.28-5-18.55-5.4-28.25-.04-.89-1.32-2.26-2.25-2.49-4.88-1.18-9.82-2.13-14.77-3-1.24-.22-2.68-.16-3.85.27-6.4 2.33-12.78 4.73-19.08 7.32-1.1.45-2.37 1.82-2.55 2.94-.85 5.17-1.66 10.38-1.89 15.61-.6 13.97 2.27 27.57 4.61 41.24 2.21 12.98 3.88 26.07 5.91 39.92zm-83.85 31.08c.08 1.29.05 1.62.12 1.93.14.65.34 1.29.5 1.95 2.32 9.55 8.86 16.64 14.07 24.55 2.91 4.42 6.8 6.59 11.66 6.6 8.12.02 16.41.36 24.34-1.07 20.43-3.67 40.71-8.21 61.02-12.53.93-.2 2.11-1.58 2.29-2.57 1.37-7.36 2.58-14.75 3.71-22.15.75-4.9-.73-8.01-5.55-9.27-4.67-1.22-9.65-1.76-14.49-1.69-6.46.09-12.93.92-19.37 1.67-18.64 2.18-37.31 4.19-55.89 6.88-7.62 1.11-15.03 3.78-22.41 5.7zm33.32 51.13c1.07 6.54 4.43 10.5 8.7 13.67 4.31 3.19 9.17 5.67 13.27 9.09 5.82 4.85 12.21 7.03 19.75 7.61 6.68.51 12.17-1.43 15.62-6.46 5.22-7.61 9.53-15.88 13.75-24.12 1.08-2.12.73-5.22.3-7.74-.18-1.03-2.58-2.64-3.58-2.4-15.2 3.67-30.8 3.99-46.2 5.92-7.23.89-14.32 2.9-21.61 4.43z" fill="#010105"/></svg>