<svg enable-background="new 0 0 400 400" viewBox="0 0 400 400" xmlns="http://www.w3.org/2000/svg"><g fill="#fbfafa"><path d="m37.59 393.81c-.92.31-1.52.05-2-.78-.7-1.2-1.52-2.34-2.47-3.78v4.59c-.55.03-.95.05-1.41.07-.03-.37-.06-.64-.06-.91 0-1.91 0-3.81 0-5.7 1.13-.41 1.77-.03 2.29.91.62 1.11 1.38 2.14 2.31 3.19v-4.2h1.35v6.61z"/><path d="m12.94 393.88v-6.75c1.9.19 3.93-.54 5.37 1.29.8 1.01.78 2.88.03 3.97-1.37 1.97-3.4 1.51-5.4 1.49m1.45-1.22c2.04.12 2.92-.58 2.89-2.21-.03-1.51-.98-2.19-2.89-2z"/><path d="m11.81 393.87h-5.49c.68-2.18 2.47-3.48 3.51-5.45h-3.08v-1.21h5.29c-.71 2.13-2.44 3.48-3.47 5.51.86 0 1.63.04 2.39-.01.79-.05 1.14.21.85 1.16"/><path d="m39.33 393.86v-6.61h3.7v1.07h-2.22v1.52c.68.04 1.34.09 2.07.13v1.07c-.72.05-1.38.09-2.1.14v1.48h2.4v1.19h-3.85z"/><path d="m27.71 388.56c-1.15-.3-2.46-.61-3.1.64-.37.73-.41 1.93-.06 2.67.63 1.35 1.99.93 3.17.68.35.94-.01 1.32-.93 1.46-1.62.25-3.05-.27-3.76-1.48-.73-1.24-.6-3.03.31-4.17.88-1.11 2.71-1.7 4-1.16.32.13.44.74.65 1.12-.1.08-.19.16-.28.24"/><path d="m49.15 387.24v1.07c-.59.02-1.17.05-1.87.08v5.44h-1.48v-5.44h-1.85c-.05-.4-.08-.73-.13-1.15z"/><path d="m20.06 387.21h1.33v6.62h-1.33z"/><path d="m30.68 393.25c-.49.38-.8.79-1.05.76-.32-.05-.6-.45-.9-.7.26-.24.51-.64.8-.67.29-.04.62.3 1.15.61"/></g><path d="m159.87 96.93c.36-13 .7-25.49 1.06-38.68-4.48 0-8.69.06-12.89-.01-17.67-.28-35.34-.55-53.01-.91-4.78-.1-9.58-.3-14.34-.78-3.32-.34-4.95-2.65-5.43-5.91-.45-3.1.61-5.27 3.62-6.24 2.37-.76 4.81-1.85 7.22-1.85 58.43-.1 116.86-.07 175.29-.09 14.43 0 28.86-.17 43.29-.01 3.52.04 7.07.95 10.54 1.75 4.07.94 2.58 4.7 3.1 7.28.17.83-1.24 2.43-2.3 3-7.02 3.76-14.76 4.48-22.48 4.36-13.75-.21-27.49-.97-41.24-1.36-6.58-.18-13.17-.03-20.11-.03-.09 1.18-.23 2.24-.23 3.3-.02 10.74.06 21.49-.07 32.23-.03 2.27.72 3.29 2.78 4.19 7.63 3.33 15.69 4.34 23.85 4.94 14.71 1.07 24.63 8.72 30.77 21.91 4.58 9.83 5.92 20.34 6.96 30.92 1.78 18.02 4.21 36.02 4.98 54.09 1.12 26.52-.12 53.03-5.25 79.2-2.87 14.65-7.22 28.83-14.44 41.99-.89 1.62-2.14 3.15-3.54 4.35-20.16 17.33-43.86 24.84-70.14 25.01-28.73.19-56.86-3.64-84.13-12.94-1.91-.65-3.79-1.89-5.24-3.31-4.48-4.38-8.58-9.15-13.15-13.43-3.73-3.49-5.95-7.67-7.68-12.35-6.33-17.13-9.46-34.93-11.14-53.02-1.92-20.64-2.64-41.33-.72-62.01 1.33-14.36 3.59-28.67 4.37-43.05.77-14.31 3.9-27.84 9.65-40.85.65-1.46 1.68-2.92 2.91-3.92 14.29-11.63 31.04-16.29 49.11-17.16 2.54-.13 5.08-.39 8.03-.61zm105.4 229.97c1.72-2.17 3.7-3.86 4.63-6 2.66-6.14 5.45-12.31 7.18-18.73 4.07-15.18 5.77-30.71 5.91-46.46.03-3.5-.94-5.14-3.97-6.56-8.6-4.03-17.12-8.23-25.53-12.63-7.94-4.16-15.5-8.93-21.82-15.44-10.37-10.68-13.82-24.19-14.79-38.29-.99-14.38-.82-28.85-1.02-43.28-.13-9.04-.02-18.08-.02-27.47-11.18-.36-21.45-1.02-31.7-.89-6.45.09-9.3 3.84-9.13 10.35.12 4.69.77 9.41.53 14.08-.98 19-2.08 37.99-3.46 56.96-.33 4.47-1.24 9.15-3.06 13.22-4.34 9.73-12.5 15.95-21.71 20.66-13.94 7.14-28.37 13.17-43.44 17.58-1.92.56-3.4 1.05-3.19 3.71 1.17 14.26 1.74 28.58 3.36 42.79 1.18 10.38 5.14 20.04 10.82 29.2 10.42-10.18 20.54-20.3 30.92-30.15 9.36-8.89 17.62-18.96 29.62-24.91 10.37-5.14 10.16-5.61 9.04-17.31-.2-2.11-.68-4.19-1.04-6.28-1.11-6.57.16-12.62 3.61-18.34 1.17-1.94 2.38-2.22 4.36-1.61 5.65 1.74 8.4 5.83 8.03 12.72-.35 6.47-.88 12.94-1.53 19.39-.45 4.56 1.21 7.3 5.41 9.47 6.63 3.43 13.33 7.04 19.14 11.65 11.46 9.1 20.53 20.55 28.96 32.47 4.44 6.27 8.75 12.65 13.89 20.1zm-163.47-98.41c15.76-3.79 30.16-9.45 43.23-18.14 5.89-3.92 12.2-7.7 13.05-15.92.31-2.99 1.48-5.92 1.56-8.9.58-22.13 1.06-44.26 1.37-66.4.06-4.6-2.87-7.03-7.66-6.96-3.01.05-6.03.41-9 .86-9.68 1.48-19.13 3.74-27.16 9.77-2.01 1.51-4.29 3.21-5.32 5.36-4.8 10.06-8.05 20.73-8.54 31.87-.85 19.33-1.06 38.69-1.5 58.03-.1 3.33-.03 6.68-.03 10.43zm150.7 105.85c-10.52-15.99-22.09-30.77-35.94-43.62-6.88-6.38-14.88-11.03-24.12-13.33-3.26-.81-6.24-.77-9.43.62-10.97 4.79-20.2 11.73-27.95 20.88-6.86 8.1-14.1 15.89-21.34 23.65-2.56 2.74-5.62 5.01-9.28 8.23 4.39 2.14 8.03 4.21 11.9 5.74 15.14 5.98 31.13 7.53 47.13 7.21 17.53-.34 35.03-2.01 52.53-3.27 5.87-.41 11.34-2.33 16.5-6.11zm-19.52-221.61c-.2.85-.38 1.27-.39 1.69-.8 22.24-2.84 44.47-1.02 66.75.84 10.28 2.65 20.22 11.36 27.25 2.91 2.35 5.58 5.15 8.79 6.97 9.82 5.57 19.84 10.77 29.8 16.1 1.06.57 2.16 1.07 3.57 1.76-.18-3.16-.32-5.93-.49-8.69-1.59-25.79-3.07-51.6-4.85-77.38-.63-9.21-2.97-18.13-10.64-24.16-10.57-8.28-23.3-9.44-36.13-10.29zm-56.14-55.21v38.39c13.07-.35 25.93-.7 38.7-1.04 0-12.83 0-25.08 0-37.35-13.02 0-25.75 0-38.7 0z" fill="#010105"/></svg>