<svg enable-background="new 0 0 400 400" viewBox="0 0 400 400" xmlns="http://www.w3.org/2000/svg"><path d="m213.44 375.07c-6.09.78-10.25-1.81-13.78-6.73-2.58-3.59-6.01-6.64-9.39-9.56-16.32-14.14-22.85-32.53-22.78-53.47.04-9.8.82-19.72 2.53-29.36 1.09-6.13 4.39-11.9 6.92-17.73 1.14-2.61 1.13-4.33-.98-6.69-10.73-12.04-15.08-26.61-16.21-42.43-.99-13.93 1.58-27.41 4.59-40.86.17-.74.56-1.46.96-2.12 4.13-6.76 8.35-13.47 12.35-20.31.62-1.07.75-2.89.28-4.02-.71-1.69-2-3.22-3.29-4.57-14.13-14.68-20.16-32.44-20-52.52.04-5.13.56-10.27 1.07-15.39.17-1.72.77-3.5 1.57-5.05 3.49-6.75 7.05-13.48 10.79-20.09.87-1.53 2.43-2.77 3.9-3.83 1.52-1.11 3.26-1.97 5.01-2.71 4.9-2.08 8.88-4.92 10.45-10.41.22-.75 2.24-1.76 2.95-1.47 2.75 1.11 5.71 2.26 7.86 4.2 7.73 6.97 15.38 14.05 22.6 21.54 2.61 2.71 4.56 6.48 5.69 10.11 2.27 7.34 4.4 14.84 5.45 22.42 1.55 11.24-2.06 21.53-7.81 31.14-4.2 7.03-9.67 12.83-16.28 17.63-1.33.96-2.51 2.26-3.44 3.63-2.51 3.67-2.15 5.07.99 8.18 9.76 9.67 18.14 20.39 24.12 32.84 2.12 4.41 3.05 8.92 2.02 13.96-1.7 8.32-2.51 16.83-4.39 25.11-.89 3.9-2.92 7.76-5.27 11.04-3.24 4.53-7.31 8.46-10.96 12.7-2.74 3.19-5.18 6.68-4.95 11.06.1 1.88 1.02 4.17 2.36 5.44 5.44 5.16 11.02 10.19 16.87 14.88 4.95 3.96 8.21 8.87 9.65 14.89 1.94 8.14 3.59 16.35 5.2 24.57.33 1.7.48 3.8-.22 5.27-3.78 7.96-4.38 16.58-5.77 25.06-.41 2.5-1.07 5.01-2.02 7.36-3.31 8.27-6.76 16.49-10.28 24.68-.32.74-1.51 1.44-2.36 1.54-1.96.23-3.99.07-6 .07zm13.45-58.45c-1.23-5.38-1.79-11.05-3.82-16.14-5.39-13.49-15.2-23.51-26.95-31.73-1.57-1.1-4.25.22-4.32 2.4-.26 7.7-4.06 14.08-7.27 20.69-4.17 8.6-5.11 17.62-2.94 26.77 3.63 15.32 13.17 27.14 23.72 38.26.4.42 1.33.93 1.63.75 3.04-1.83 6.91-2.39 8.37-6.53 2.68-7.57 5.9-14.96 8.59-22.53 1.33-3.74 1.96-7.71 2.99-11.94zm-10.56-231.43c.06-6.87-1.27-11.54-4.27-15.87-2.33-3.36-4.15-7.09-6.02-10.74-1.85-3.63-4.3-7.02-8.28-7.7-2.17-.37-4.83 1.55-7.12 2.74-2.94 1.52-5.83 2.97-7.36 6.42-2.36 5.3-5.13 10.42-7.94 15.5-1.99 3.61-2.45 7.33-1.95 11.32 1.49 11.73 6.01 22.39 11.74 32.57 4.65 8.25 6.74 8.49 13.23 1.44 3.39-3.69 6.2-7.92 9.41-11.79 6.19-7.44 7.82-16.37 8.56-23.89zm-24.6 152.82c4.84-4.39 9.57-8.65 14.23-12.97.53-.5.86-1.32 1.07-2.05 2.07-6.95 4.25-13.88 6.08-20.89 1.81-6.96 1.38-13.87-2.46-20.11-4.26-6.92-8.89-13.62-13.4-20.4-.36-.54-.92-.98-1.46-1.37-3.13-2.22-4.71-1.74-7.24 1.13-5.09 5.78-7.46 12.81-10.19 19.8-2.85 7.29-3.2 14.57-1.89 22.06 2.22 12.71 6.32 24.63 15.26 34.8z" fill="#010102"/><g fill="#fafbfa"><path d="m6.4 11.7c-1-.8-1.9-1.6-2.9-2.3l.6-.7c.9.7 1.9 1.4 2.9 2.2zm-2.1 8.3c.7-2.1 1.4-4.2 2-6.4.2.1.6.3 1 .4-.7 2.3-1.3 4.4-1.9 6.4zm3-12.8c-1.1-.9-2.1-1.7-2.9-2.4l.6-.7c1 .8 2 1.5 3 2.4zm1.4-1.3v-.9h10.2v.9c-.9 4.2-2.3 7.3-4.1 9.4 1.3 1.4 3.2 2.7 5.7 4-.2.2-.4.5-.7.9-2.5-1.4-4.4-2.7-5.7-4.2-1.4 1.5-3.5 3-6.1 4.4 0 0 0 0-.1-.1-.3-.4-.5-.7-.7-.8 2.7-1.3 4.7-2.8 6.2-4.2-1.8-2.2-3-5.3-3.7-9.4zm9.2 0h-7.1c.6 3.8 1.7 6.7 3.4 8.7 1.7-2 2.9-4.8 3.7-8.7z"/><path d="m31.6 3.6h.9v2.3h4.1v9.1h1.7v.9h-16.6v-.9h1.7v-9.1h4.1v-2.3h.9v2.3h3.1v-2.3zm-4 13.3.6.8c-1.9.9-3.8 1.9-5.8 2.8-.2-.3-.3-.6-.5-.9 2-.9 3.9-1.8 5.7-2.7zm-3.2-10.1v3.7h3.1v-3.7zm0 4.5v3.7h3.1v-3.7zm4.1-4.5v3.7h3.1v-3.7zm0 4.5v3.7h3.1v-3.7zm9.1 9.1c-2.1-1.1-4.1-2-5.8-2.7l.5-.8c2.2.9 4.1 1.8 5.8 2.6zm-1.9-13.6h-3.1v3.7h3.1zm-3.2 4.5v3.7h3.1v-3.7z"/></g></svg>