<svg enable-background="new 0 0 400 400" viewBox="0 0 400 400" xmlns="http://www.w3.org/2000/svg"><path d="m374.8 390.4.4-.4c.7.5 1.3 1 1.8 1.4l-.5.5c-.5-.6-1.1-1.1-1.7-1.5zm1 7.3-.6-.3c.5-1.4 1.1-2.8 1.5-4.3.2.1.4.2.6.3-.5 1.3-1 2.8-1.5 4.3zm-.4-10.3.4-.4c.4.3 1 .8 1.7 1.4l-.5.5c-.4-.5-1-1-1.6-1.5zm2.5.3h1.7v-1h.6v1h3.5v-1h.6v1h1.8v.5h-1.8v1.4h-2v1h3.2v2h-3.2v.9h3.3v.5h-3.4c0 .3-.1.6-.1.9h4v.5h-3.7c.7.9 1.9 1.5 3.8 1.7-.1.2-.2.4-.3.6-2.1-.4-3.5-1.1-4-2.1-.4 1-1.8 1.7-4 2.2-.1-.2-.2-.4-.3-.6 2.1-.4 3.4-1 3.8-1.8h-3.4v-.5h3.6c.1-.3.1-.6.2-.9h-3.3v-.5h3.4c0-.3 0-.6 0-.9h-3.2v-2h3.3v-1h-2.1v-1.4h-1.7v-.5zm1.1 3.5v1h2.7c0-.3 0-.4 0-.4 0-.1 0-.2 0-.2 0-.1 0-.2 0-.3h-2.7zm1.2-3v.9h3.5v-.9zm4.7 3h-2.6v.6.4h2.6z" fill="#fbfcfa"/><path d="m393.6 386.7h.6v1.5h2.7v6.1h1.1v.6h-11v-.6h1.1v-6.1h2.7v-1.5h.6v1.5h2.1v-1.5zm-2.7 8.8.4.6c-1.2.6-2.5 1.3-3.8 1.9-.1-.2-.2-.4-.3-.6 1.2-.6 2.5-1.2 3.7-1.9zm-2.2-6.7v2.4h2.1v-2.4zm0 3v2.5h2.1v-2.5zm2.8-3v2.4h2.1v-2.4zm0 3v2.5h2.1v-2.5zm6 6.1c-1.4-.7-2.7-1.3-3.9-1.8l.3-.6c1.5.6 2.7 1.2 3.9 1.7zm-1.2-9.1h-2.1v2.4h2.1zm-2.1 3v2.5h2.1v-2.5z" fill="#fbfcfa"/><path d="m179.43 107.01c5.54-8.44 6.47-17.58 6.82-26.76.24-6.46-.29-12.94-.37-19.41-.02-1.25.08-2.84.8-3.7 3.92-4.68 4.45-10.14 3.96-15.83-.48-5.51.45-10.53 4.63-14.43.69-.65 2.44-.93 3.29-.52 4.68 2.25 7.62 6.28 9.34 10.98 1.87 5.12 3.31 10.43 4.54 15.75.42 1.82-.23 3.96-.65 5.9-2.08 9.61-4.34 19.19-6.29 28.83-.42 2.05-.19 4.42.4 6.45 1.97 6.74 4.66 13.25 3.35 20.61-.33 1.84 1.14 4 2.06 6.85 5.13-8.44 9.48-16.01 14.24-23.3 3.22-4.93 7.09-9.44 10.53-14.24 2.59-3.6 5.24-7.2 7.35-11.09 2.82-5.18 5.08-6.36 10.42-3.96 2.54 1.14 5.61 2.27 7.09 4.36 2.31 3.24 1.45 7.12-1.02 10.31-6.37 8.23-12.69 16.51-19.31 24.54-1.79 2.17-4.69 3.39-6.91 5.24-4.64 3.86-9.39 7.64-13.68 11.87-2.41 2.38-4.33 5.41-5.9 8.45-2.05 3.97-2.31 8.15.65 12 3.25 4.24 6.22 8.74 9.83 12.65 14.73 15.95 19.1 35.22 18.46 56.14-.03 1.11-.75 2.3-1.41 3.26-2.14 3.13-3.57 6.41-3.32 10.32.21 3.22-1.02 5.9-3.55 7.95-4.08 3.3-8.04 6.78-12.28 9.87-6.72 4.89-8.17 14.19-3.3 20.96 7.83 10.88 13.65 22.82 17.63 35.61 2 6.41 2.27 12.96.37 19.53-.8 2.79-1.52 5.64-1.87 8.51-1.22 10.13-5.2 18.88-12.81 25.73-4.9 4.42-6.19 9.37-3.57 15.41.38.87.41 1.88.65 3.03-6.36.07-12.12.07-17.28-4.28-6.55-5.52-14.51-9.3-20.01-16.19-11.39-14.28-20.08-29.66-19.92-48.62.06-7.25 1.54-14.05 5.54-20.39 6.31-10.03 12.2-20.33 18.07-30.63.81-1.42.87-3.54.61-5.23-.78-5.12-3.75-9.03-6.93-13.07-12.92-16.37-17.76-34.81-13.08-55.43.34-1.5.69-3.14.44-4.62-.86-5.04.36-9.69 1.99-14.38 2.57-7.39 4.78-14.9 7.34-22.29.91-2.64.82-4.92-.52-7.33-7.69-13.87-17.29-26.07-30.36-35.31-2.47-1.74-5.06-3.32-7.44-5.16-3.47-2.69-5.07-6.46-5.46-10.74-.24-2.6 5.02-6.09 8.16-4.85 4.31 1.7 8.86 3.55 12.32 6.49 9 7.64 17.49 15.95 26.36 24.16zm43.78 216.89c-.55-3.91-.75-7.16-1.49-10.3-2.64-11.22-7.74-21.44-13.7-31.17-1.95-3.19-5.3-5.6-8.26-8.09-1.59-1.33-3.3-.98-5.02.66-5.12 4.9-8.47 10.85-11.48 17.17-2.44 5.11-5.64 9.86-8.36 14.85-.55 1-.86 2.52-.51 3.55 1.65 4.98 4.02 9.77 5.28 14.83 2.78 11.18 9.03 19.4 18.61 25.78 7.49 4.99 19.59 1.51 21.67-7.37 1.57-6.73 2.26-13.66 3.26-19.91zm3.27-125.24c.29.01.58.01.87.02-.6-3.7-.4-7.78-1.95-11.02-3.76-7.82-8.11-15.39-12.71-22.76-1.77-2.83-4.77-4.93-7.35-7.21-1.54-1.36-2.98-1.17-4.59.48-3.92 4.02-6.43 8.71-8.25 13.99-1.33 3.85-2.76 8.05-5.39 10.96-3.18 3.51-4.25 7.36-5.01 11.64-1.87 10.49-.32 20.02 7.44 27.94 1.96 1.99 3.78 4.12 5.75 6.1 5.89 5.93 8.09 6.12 14.84 1 1.75-1.33 3.37-2.99 4.62-4.8 2.66-3.86 4.76-8.12 7.61-11.82 3.35-4.34 5.75-8.74 4.12-14.52z" fill="#010101"/></svg>