<svg enable-background="new 0 0 400 400" viewBox="0 0 400 400" xmlns="http://www.w3.org/2000/svg"><path d="m374.8 390.4.4-.4c.7.5 1.3 1 1.8 1.4l-.5.5c-.5-.6-1.1-1.1-1.7-1.5zm1 7.3-.6-.3c.5-1.4 1.1-2.8 1.5-4.3.2.1.4.2.6.3-.5 1.3-1 2.8-1.5 4.3zm-.4-10.3.4-.4c.4.3 1 .8 1.7 1.4l-.5.5c-.4-.5-1-1-1.6-1.5zm2.5.3h1.7v-1h.6v1h3.5v-1h.6v1h1.8v.5h-1.8v1.4h-2v1h3.2v2h-3.2v.9h3.3v.5h-3.4c0 .3-.1.6-.1.9h4v.5h-3.7c.7.9 1.9 1.5 3.8 1.7-.1.2-.2.4-.3.6-2.1-.4-3.5-1.1-4-2.1-.4 1-1.8 1.7-4 2.2-.1-.2-.2-.4-.3-.6 2.1-.4 3.4-1 3.8-1.8h-3.4v-.5h3.6c.1-.3.1-.6.2-.9h-3.3v-.5h3.4c0-.3 0-.6 0-.9h-3.2v-2h3.3v-1h-2.1v-1.4h-1.7v-.5zm1.1 3.5v1h2.7c0-.3 0-.4 0-.4 0-.1 0-.2 0-.2 0-.1 0-.2 0-.3h-2.7zm1.2-3v.9h3.5v-.9zm4.7 3h-2.6v.6.4h2.6z" fill="#fbfcfa"/><path d="m393.6 386.7h.6v1.5h2.7v6.1h1.1v.6h-11v-.6h1.1v-6.1h2.7v-1.5h.6v1.5h2.1v-1.5zm-2.7 8.8.4.6c-1.2.6-2.5 1.3-3.8 1.9-.1-.2-.2-.4-.3-.6 1.2-.6 2.5-1.2 3.7-1.9zm-2.2-6.7v2.4h2.1v-2.4zm0 3v2.5h2.1v-2.5zm2.8-3v2.4h2.1v-2.4zm0 3v2.5h2.1v-2.5zm6 6.1c-1.4-.7-2.7-1.3-3.9-1.8l.3-.6c1.5.6 2.7 1.2 3.9 1.7zm-1.2-9.1h-2.1v2.4h2.1zm-2.1 3v2.5h2.1v-2.5z" fill="#fbfcfa"/><path d="m173.73 25c1.73 2.36 3.78 4.55 5.13 7.11 2.61 4.93 4.71 10.14 7.25 15.11 2.04 3.97 4.39 7.8 8.99 9.76 2.17-3.2 4.14-6.44 6.46-9.42 1.26-1.62 2.91-3.17 4.72-4.09 2.77-1.4 6-1.72 8.39.65 2.52 2.5 2.38 5.93.33 9.31-3.24 5.34-6.51 10.68-9.68 16.07-2.79 4.75-5.43 9.59-4.7 15.42.19 1.55.25 3.18.79 4.62 3.99 10.53 7.16 21.38 12.78 31.29 1.92 3.39 2.75 7.5 3.53 11.4.31 1.55-.86 3.4-1.34 5.12-.39 1.36-1.22 2.78-1.06 4.08.59 4.84-.88 9.06-3.29 13.08-2.24 3.74-4.65 7.38-6.82 11.16-1.1 1.92-2 4-2.7 6.1-1.24 3.72-.83 6.97 2.1 10.13 5.17 5.58 9.94 11.52 14.77 17.4.85 1.04 1.52 2.47 1.69 3.8.94 7.4 1.48 14.86 2.6 22.24 1.03 6.81.61 12.84-4.16 18.51-4.59 5.45-8.22 11.7-12.34 17.55-1.22 1.72-1.02 2.91.24 4.67 2.84 3.99 5.45 8.17 7.81 12.46 5 9.09 9.82 18.28 14.61 27.48.63 1.21 1.01 2.73.95 4.08-.28 6.04-.72 12.06-1.23 18.09-.1 1.15-.62 2.36-1.23 3.37-1.96 3.26-4.24 6.34-6.04 9.68-1.34 2.49-2.15 5.28-3.18 7.94-.51 1.32-.68 2.93-1.55 3.93-3.37 3.89-5.38 8.23-6.43 13.33-1.46 7.08-3.7 8.49-10.93 8.49-2.11 0-4.23 0-6.58 0-.47-1.75-1.01-3.32-1.3-4.93-2.08-11.41-7.17-21.8-10.93-32.65-6.87-19.83-8.73-39.92-1.56-60.16.47-1.33 1.15-2.68 2.05-3.76 4.54-5.49 4.23-13.2-.77-18.48-.9-.95-1.69-2.15-2.09-3.38-2.1-6.34-4.16-12.71-6.06-19.12-4.16-14.04-2.61-27.64 3.49-40.81 1.93-4.16 3.94-8.28 6.11-12.31.98-1.82.89-3.15-.28-4.85-3.76-5.42-7.15-11.11-11.04-16.43-4.17-5.71-6.88-11.67-7.3-18.96-.68-11.8-1.47-23.52 3.24-34.72 2.25-5.35 4.59-10.73 7.58-15.68 5.75-9.53 5.31-18.74.72-28.59-5.14-11.03-5.01-22.74-2.76-34.47.31-.21.66-.41 1.02-.62zm27.88 321.92c2.05-3 4.41-5.3 5.34-8.08 2.28-6.76 4.03-13.71 5.69-20.66.55-2.3.91-5.12.09-7.2-3.69-9.32-7.68-18.53-11.95-27.59-.72-1.52-3.71-3.32-5.04-2.92-2.41.71-4.53 2.81-6.45 4.66-.96.93-.89 2.87-1.81 3.88-3 3.31-3.05 7.27-3.03 11.31.07 10.24 3 19.84 6.71 29.22 2.4 6.04 5.27 11.83 10.45 17.38zm-11.99-184.55c3.15-3.32 6.06-6.4 8.98-9.45 4.27-4.46 6.07-10.08 5.77-15.92-.44-8.35-3.19-16.26-7.85-23.25-1.66-2.49-4.4-4.33-6.86-6.16-.63-.47-2.43-.19-3.14.4-8.08 6.68-11.49 15.51-9.86 25.67 1.65 10.51 6.9 19.66 12.96 28.71zm-6.7 50.37c.54 4.21.73 8.5 1.71 12.6 1.53 6.42 2.17 13.29 7.97 17.93 2.91 2.33 6.37 2.08 8.55-1.13.69-1.01 1.12-2.22 1.89-3.16 4.01-4.89 4.83-10.12 2.56-16.12-1.74-4.62-1.75-9.32.93-13.88 1.43-2.43 1.43-5.46-.72-7.51-2.7-2.57-5.8-4.74-8.89-6.85-1.59-1.08-3.07-.48-4.27 1.18-2.15 2.99-4.38 5.94-6.8 8.73-2.09 2.42-3.54 4.88-2.93 8.21z" fill="#010101"/></svg>