<svg enable-background="new 0 0 400 400" viewBox="0 0 400 400" xmlns="http://www.w3.org/2000/svg"><path d="m196.59 374.77c0-2.02 0-3.21 0-4.4 0-21.16.09-42.32-.08-63.48-.03-4.29-1.03-8.59-1.66-12.87-.18-1.21-.61-2.38-.93-3.57-1.32-4.97-1.59-10.62-4.26-14.71-2.54-3.89-7.61-6.11-11.5-9.15-19.71-15.39-23.62-33.41-17.68-55.83 3.29-12.43 10.18-22.78 19.56-31.5.8-.75 1.8-1.29 2.17-1.56-5.62-6.38-11.49-11.73-15.77-18.14-10.33-15.48-12.61-32.11-3.96-49.21 1.93-3.81 5.04-7.1 7.97-10.31 9.01-9.89 13.31-21.48 13.61-34.79.29-12.62-1.12-25.01-3.89-37.29-.14-.61-.19-1.23-.4-2.67 9.18 10.71 15.75 21.64 16.9 35.39.61 7.31 2.3 14.54 3.5 21.8.36 2.2 1.7 3.37 3.75 4.24 8.19 3.49 15.71 8.03 22.12 14.31 9.34 9.13 13.75 20.28 13.42 33.22-.28 11.16-1.64 22.27-7.94 31.82-3.38 5.12-8 9.41-12.08 14.09 3.21 4.36 7.23 9.16 10.53 14.42 7.04 11.23 10.46 23.68 10.95 36.87.57 15.42-6.67 27.27-17.79 37.11-3.42 3.03-7.08 5.91-11.02 8.19-2.83 1.64-3.26 3.42-2.62 6.22 2.27 9.87 3.21 19.88 2.46 29.99-1.19 15.94-1.58 32-6.66 47.38-1.67 5.14-4.01 9.96-8.7 14.43zm-19.91-148.18c.3.07.6.14.89.22-.68 8.41 2.91 15.34 8.19 21.29 2.64 2.98 6.15 5.83 9.84 7.14 14.11 5.04 29.37-7.01 29.09-22.74-.18-9.85-3.57-18.84-8.87-27.02-4.18-6.45-10.64-8.96-18.03-7.65-4.65.82-9.08 2.93-13.54 4.63-.77.29-1.53 1.36-1.76 2.22-2.01 7.29-3.9 14.6-5.81 21.91zm-2.36-91.54c.32 6.65 2.52 13.62 7.1 19.65 1.58 2.07 3.71 3.99 5.99 5.22 14.78 7.97 33.5-3.01 34.02-19.87.23-7.56-2.14-14.55-5.25-21.28-5.62-12.16-14.79-16.05-27.47-11.75-1.66.56-3.77 1.03-4.7 2.27-5.54 7.33-9.57 15.35-9.69 25.76z" fill="#010101"/><g fill="#fbfafa"><path d="m6.4 11.7c-1-.8-1.9-1.6-2.9-2.3l.6-.7c.9.7 1.9 1.4 2.9 2.2zm-2.1 8.3c.7-2.1 1.4-4.2 2-6.4.2.1.6.3 1 .4-.7 2.3-1.3 4.4-1.9 6.4zm3-12.8c-1.1-.9-2.1-1.7-2.9-2.4l.6-.7c1 .8 2 1.5 3 2.4zm1.4-1.3v-.9h10.2v.9c-.9 4.2-2.3 7.3-4.1 9.4 1.3 1.4 3.2 2.7 5.7 4-.2.2-.4.5-.7.9-2.5-1.4-4.4-2.7-5.7-4.2-1.4 1.5-3.5 3-6.1 4.4 0 0 0 0-.1-.1-.3-.4-.5-.7-.7-.8 2.7-1.3 4.7-2.8 6.2-4.2-1.8-2.2-3-5.3-3.7-9.4zm9.2 0h-7.1c.6 3.8 1.7 6.7 3.4 8.7 1.7-2 2.9-4.8 3.7-8.7z"/><path d="m31.6 3.6h.9v2.3h4.1v9.1h1.7v.9h-16.6v-.9h1.7v-9.1h4.1v-2.3h.9v2.3h3.1v-2.3zm-4 13.3.6.8c-1.9.9-3.8 1.9-5.8 2.8-.2-.3-.3-.6-.5-.9 2-.9 3.9-1.8 5.7-2.7zm-3.2-10.1v3.7h3.1v-3.7zm0 4.5v3.7h3.1v-3.7zm4.1-4.5v3.7h3.1v-3.7zm0 4.5v3.7h3.1v-3.7zm9.1 9.1c-2.1-1.1-4.1-2-5.8-2.7l.5-.8c2.2.9 4.1 1.8 5.8 2.6zm-1.9-13.6h-3.1v3.7h3.1zm-3.2 4.5v3.7h3.1v-3.7z"/></g></svg>