<svg enable-background="new 0 0 400 400" viewBox="0 0 400 400" xmlns="http://www.w3.org/2000/svg"><g fill="#fbfafa"><path d="m37.59 393.81c-.92.31-1.52.05-2-.78-.7-1.2-1.52-2.34-2.47-3.78v4.59c-.55.03-.95.05-1.41.07-.03-.37-.06-.64-.06-.91 0-1.91 0-3.81 0-5.7 1.13-.41 1.77-.03 2.29.91.62 1.11 1.38 2.14 2.31 3.19v-4.2h1.35v6.61z"/><path d="m12.94 393.88v-6.75c1.9.19 3.93-.54 5.37 1.29.8 1.01.78 2.88.03 3.97-1.37 1.97-3.4 1.51-5.4 1.49m1.45-1.22c2.04.12 2.92-.58 2.89-2.21-.03-1.51-.98-2.19-2.89-2z"/><path d="m11.81 393.87h-5.49c.68-2.18 2.47-3.48 3.51-5.45h-3.08v-1.21h5.29c-.71 2.13-2.44 3.48-3.47 5.51.86 0 1.63.04 2.39-.01.79-.05 1.14.21.85 1.16"/><path d="m39.33 393.86v-6.61h3.7v1.07h-2.22v1.52c.68.04 1.34.09 2.07.13v1.07c-.72.05-1.38.09-2.1.14v1.48h2.4v1.19h-3.85z"/><path d="m27.71 388.56c-1.15-.3-2.46-.61-3.1.64-.37.73-.41 1.93-.06 2.67.63 1.35 1.99.93 3.17.68.35.94-.01 1.32-.93 1.46-1.62.25-3.05-.27-3.76-1.48-.73-1.24-.6-3.03.31-4.17.88-1.11 2.71-1.7 4-1.16.32.13.44.74.65 1.12-.1.08-.19.16-.28.24"/><path d="m49.15 387.24v1.07c-.59.02-1.17.05-1.87.08v5.44h-1.48v-5.44h-1.85c-.05-.4-.08-.73-.13-1.15z"/><path d="m20.06 387.21h1.33v6.62h-1.33z"/><path d="m30.68 393.25c-.49.38-.8.79-1.05.76-.32-.05-.6-.45-.9-.7.26-.24.51-.64.8-.67.29-.04.62.3 1.15.61"/></g><path d="m302.69 196.41c-.64 30.12-2.52 60.11-10 89.47-3.37 13.25-7.97 26.06-14.26 38.22-.51.98-1.09 1.98-1.87 2.74-12.93 12.48-27.26 22.76-44.58 28.39-12.44 4.04-25.22 4.91-38.13 4.02-16.62-1.15-32.54-5.38-48.2-11.03-5.97-2.16-10.22-6.05-13.85-10.62-6.46-8.11-12.79-16.41-18.36-25.15-6.15-9.65-9.04-20.7-10.12-32.02-2.35-24.6-4.76-49.21-6.24-73.87-.83-13.8-.58-27.77.47-41.57 1.48-19.61 4.11-39.13 6.35-58.67.25-2.18 1.06-4.32 1.82-6.41 1.48-4.1 3.61-8.02 4.58-12.23 2.49-10.8 10.09-17.16 18.57-23.07 12.56-8.76 26.8-12.64 41.64-14.71 24.45-3.41 48.95-2.73 73.18 1.41 28.37 4.85 46.61 22.33 50.89 51.24 2.21 14.92 3.37 29.99 4.79 45.02 1.53 16.24 2.81 32.5 4.2 48.76-.3.02-.59.05-.88.08zm-101.77-64.86c-.94.87-1.78 1.61-2.58 2.38-9.62 9.33-20.22 17.32-32.17 23.43-15.52 7.93-31.11 15.75-46.68 23.58-1.68.85-2.78 1.62-2.82 3.9-.44 26.31-.43 52.6 1.92 78.83 1.8 20.17 8.54 38.49 20.41 54.95 3.96 5.49 8.85 9.59 14.95 12.53 10.47 5.05 21.33 8.58 32.94 9.69 21.95 2.09 42.61-1.7 61.17-14.04 4.69-3.12 9.8-6.59 12.74-11.17 9.59-14.94 15.04-31.59 17.71-49.16 3.75-24.77 2.92-49.78 4.16-74.68.38-7.61-2.55-13.07-10.25-16.57-18.83-8.55-37.2-18.13-54.25-29.94-5.95-4.12-11.37-9.01-17.25-13.73zm-81.62 29.17c13.2-6.7 26.04-13.21 38.87-19.73 9.63-4.89 18.43-10.97 26.23-18.44 1.08-1.04 2-2.7 2.18-4.17 1.41-11.65 2.64-23.32 3.89-34.98.53-4.94.99-9.89 1.55-15.47-7.1 0-13.69-.5-20.18.12-10.03.95-19.9 3.07-28.82 8.1-6.19 3.49-11.54 7.63-14.26 14.8-5.46 14.37-9.76 29.01-11.27 44.33-.84 8.43-.71 16.92 1.81 25.44zm90.8-93.98c0 1.44-.03 1.98 0 2.52.71 10.03 1.81 20.05 2.05 30.09.28 11.46 4.6 21.03 12.03 29.4 1.44 1.62 3.27 3.07 5.19 4.05 15.83 8.03 31.73 15.92 47.61 23.85 1.06.53 2.17.97 3.56 1.59.12-1.21.32-2.06.28-2.9-.37-8.93-.35-17.91-1.31-26.78-.98-9.07-2.23-18.23-4.62-27.01-2.87-10.5-8.01-20.2-18.21-25.45-5.66-2.92-11.96-5.13-18.22-6.26-9.26-1.69-18.76-2.12-28.36-3.1z" fill="#010105"/><path d="m201.04 299.29c-3.95-1.08-9.27-2.51-14.57-4.02-1.17-.33-2.24-1-3.38-1.46-23.29-9.43-32.86-29.05-37.5-51.75-2.75-13.44 1.71-26.09 7.3-38.24.14-.3.27-.64.5-.87 11.04-10.75 21.5-22.19 37.01-26.95 4.97-1.52 9.71-1.08 14.56-.57 11.09 1.17 21.78 3.76 31.47 9.61 14.7 8.87 22.67 22.19 25.27 38.83 2.66 17-1.76 32.85-8.83 48.09-.98 2.11-3.12 3.75-4.93 5.38-9.7 8.75-20.06 16.52-32.99 19.84-3.98 1.03-8.15 1.27-13.91 2.11zm-36.85-60.03c-.27.1-.55.19-.82.29 1.4 4.77 2.02 9.96 4.37 14.2 3.43 6.19 8.02 11.75 12.28 17.47.88 1.18 2.36 2.04 3.73 2.7 15.73 7.6 30.77 5.8 45.18-3.53 2.03-1.32 4.5-2.61 5.63-4.57 7-12.16 10.88-25.04 9.12-39.39-2.9-23.72-26.55-39.04-49.33-31.61-8.05 2.62-15.78 6.64-20.35 13.51-6.09 9.11-9.43 19.71-9.81 30.93z" fill="#010105"/><path d="m225.69 237.58c-.33 9.23-10.9 16.83-21.06 14.88-5.1-.98-10.17-1.78-12.8-7.59-2.78-6.15-1.93-11.95.04-17.88.24-.73 1.06-1.38 1.76-1.84 1.86-1.23 3.81-2.33 5.71-3.49 9.02-5.49 23.27.36 25.74 10.62.42 1.72.42 3.53.61 5.3z" fill="#010105"/></svg>