<svg enable-background="new 0 0 400 400" viewBox="0 0 400 400" xmlns="http://www.w3.org/2000/svg"><path d="m144.15 24.99c4.98 2.65 9.94 5.12 14.75 7.88 6.78 3.89 13.37 8.14 20.2 11.93 2.99 1.66 6.41 2.52 9.59 3.84 1.62.67 3.37 1.32 4.68 2.42 8.53 7.16 17.48 13.45 28.11 17.35 3.24 1.19 5.93 4.28 8.47 6.9 5.13 5.27 9.47 11.44 15.07 16.1 9.11 7.57 14.5 17.15 18.97 27.83 10.05 23.99 15.7 48.92 17.25 74.79.69 11.5.8 23.03 1.12 34.54.03 1.2-.12 2.46-.49 3.6-1.79 5.49-3.66 10.97-5.56 16.43-1.28 3.66-2.82 7.24-3.95 10.94-.77 2.52-1.45 5.2-1.43 7.8.03 4.86-1.69 8.67-5.38 11.73-1.63 1.36-3.06 2.98-4.75 4.25-2.98 2.23-4.83 5.1-6.1 8.58-.66 1.82-1.97 3.46-3.22 4.99-9.56 11.76-21.32 20.89-34.12 28.89-10.05 6.28-19.73 13.16-29.61 19.71-1.28.85-2.71 1.68-4.18 1.97-5.81 1.15-10.8 3.94-15.93 6.75-5.74 3.14-11.94 5.43-17.96 8.05-6.85 2.98-13.65 6.09-20.61 8.8-4.22 1.64-8.65 2.81-13.07 3.76-1.53.33-4.64-.37-4.77-1.06-.45-2.27-.67-5.25.46-7.04 1.85-2.92 4.4-6.03 7.41-7.45 9.55-4.5 14.46-12.59 17.59-21.82 3.91-11.52 6.84-23.36 10.39-35 5.58-18.27 11.37-36.48 16.95-54.75.97-3.17 1.8-6.5 1.97-9.79.72-14.41 1.91-28.86 1.5-43.25-.45-15.95-2.16-31.89-6.78-47.36-.77-2.56-.65-5.56-.26-8.26.74-5.18.3-10.12-.81-15.23-.96-4.39-.6-9.07-.95-13.61-.18-2.32-.4-4.69-1.03-6.92-2.86-10.06-2.11-20.42-2.71-30.66-.59-10.14-2.31-19.99-6.67-29.23-1.28-2.71-3.07-5.17-4.44-7.85-1.65-3.25-1.91-6.6.3-10.55zm10.35 317.35c3.91-1.57 6.74-2.35 9.2-3.78 5.69-3.32 11.21-6.94 16.78-10.47 24.91-15.76 48.26-33.29 63.7-59.14 4.37-7.32 7.75-15.29 11.04-23.19 1.18-2.83 1.01-6.33.92-9.52-.06-2.21-1.33-3.3-4.11-2.82-7.58 1.32-15.22 2.7-22.88 3.11-12.57.67-24.99-.66-36.92-5.19-.97-.37-2.66-.06-3.48.6-5.19 4.14-8.96 9.24-10.18 15.99-.58 3.18-1.31 6.35-2.23 9.45-1.58 5.33-3.06 10.72-5.12 15.87-2.64 6.59-5.95 12.92-8.7 19.47-1.63 3.9-3.15 7.93-3.96 12.05-1.78 9.09-3.22 18.26-4.48 27.44-.41 2.97.21 6.07.42 10.13zm69.93-121.98c.06-.32.13-.63.19-.95 2.34-.11 4.69-.18 7.03-.33 10.06-.65 19.22-3.82 27.4-9.77 6.48-4.71 9.89-10.63 8.12-18.94-.91-4.26-1.79-8.61-1.85-12.93-.13-8.47-3.4-14.24-10.96-18.77-11.27-6.75-22.92-10.38-35.76-7.28-14.04 3.39-25.79 11.03-35.27 21.98-.62.71-.62 2.26-.41 3.33.93 4.82 3.05 9.66 2.8 14.39-.26 4.88 1.4 8.29 4.01 11.82 2.46 3.33 4.66 6.84 7.14 10.15.74.99 1.92 2.02 3.06 2.27 8.14 1.79 16.32 3.38 24.5 5.03zm-55.33-160.47c0 2.31-.02 3.53 0 4.75.16 7.04.86 14.12.4 21.12-.93 14.03-.04 27.94 1.66 41.83 1 8.14 3.54 15.84 8.05 23.07 1.23-.88 2.3-1.64 3.37-2.41 4.08-2.94 7.86-6.46 12.29-8.72 10.69-5.46 22.04-7.62 34.1-5.38 5.42 1 11.02 1.11 15.83-2.29 1.21-.85 2.57-3.07 2.24-4.2-.95-3.33-2.27-6.73-4.25-9.55-3.53-5.02-7.45-9.81-11.57-14.35-3.97-4.37-7.99-8.88-12.73-12.33-13.01-9.47-26.34-18.5-39.7-27.47-2.67-1.8-6.05-2.58-9.69-4.07z" fill="#010100"/><path d="m238.65 187.84c-.9 2.37-1.47 4.95-2.77 7.08-2.56 4.19-7.06 4.8-10.97 1.86-7.26-5.46-7.21-7.92.88-12.07 2.6-1.33 5.88-1.76 8.85-1.77 2.5 0 3.82 2.07 4.01 4.9z" fill="#010100"/><g fill="#fcfbfa"><path d="m377.9 391.2c-.2.3-.4.5-.6.8-.7-.6-1.4-1-2.2-1.5.2-.3.4-.5.5-.8.6.4 1.4.8 2.3 1.5zm-1.8 6.1c-.2-.2-.5-.4-.9-.6.4-.6.8-1.2 1.2-1.9s.7-1.3.9-1.9c.3.3.5.5.8.7-.7 1.3-1.4 2.6-2 3.7zm2.2-9c-.3.3-.5.5-.6.8-.6-.6-1.3-1.1-2-1.5.3-.3.5-.5.6-.7.6.5 1.3.9 2 1.4zm.3.2v-.9h2 4.5c-.3 1.3-.6 2.5-1 3.6s-.9 2.1-1.4 3c.4.5 1 1 1.6 1.4s1.2.8 1.9 1.1c-.3.2-.5.4-.8.8-.4-.3-1-.7-1.6-1.2s-1.2-1.1-1.6-1.6c-.5.6-1.1 1.1-1.7 1.6s-1.4.9-2.1 1.4c-.1-.3-.3-.5-.7-.8.6-.2 1.2-.5 1.9-1s1.4-1.1 2-1.8c-.5-.8-.9-1.6-1.2-2.5s-.6-2-.8-3.2c-.4.1-.7.1-1 .1zm2.5 2.7c.3 1 .7 1.7 1 2.2.3-.5.6-1.1 1-2s.6-1.9.9-3h-3.2-.4c.1.9.3 1.8.7 2.8z"/><path d="m396.5 388.5v1.5 3.6h1.5v.9c-.4 0-1 0-1.7 0h-7.9c-.5 0-.9 0-1.2 0v-.9h1.3v-3.5c0-.7 0-1.2 0-1.6h2.4c0-.8 0-1.4 0-1.7h1c0 .3-.1.8-.1 1.7h1.5c0-.8 0-1.4 0-1.7h1c0 .3-.1.9-.1 1.7zm-8.2 9.2c-.2-.3-.5-.5-.8-.8.8-.3 1.4-.6 1.9-.9s1-.7 1.4-1.1c.3.3.6.5.9.8-1.6 1-2.8 1.6-3.4 2zm2.6-6.8v-1.6h-1.5v1.6zm0 2.7v-1.9h-1.5v1.9zm2.4-2.7v-1.6h-1.5v1.6zm0 2.7v-1.9h-1.5v1.9zm.2 2 .7-.8c.4.2.9.5 1.6.8s1.3.7 1.8 1c-.3.3-.5.5-.8.8-.4-.3-1.5-1-3.3-1.8zm2-4.7v-1.6h-1.4v1.6zm0 2.7v-1.9h-1.4v1.9z"/></g></svg>