<svg enable-background="new 0 0 400 400" viewBox="0 0 400 400" xmlns="http://www.w3.org/2000/svg"><g fill="#fbfafa"><path d="m37.59 393.81c-.92.31-1.52.05-2-.78-.7-1.2-1.52-2.34-2.47-3.78v4.59c-.55.03-.95.05-1.41.07-.03-.37-.06-.64-.06-.91 0-1.91 0-3.81 0-5.7 1.13-.41 1.77-.03 2.29.91.62 1.11 1.38 2.14 2.31 3.19v-4.2h1.35v6.61z"/><path d="m12.94 393.88v-6.75c1.9.19 3.93-.54 5.37 1.29.8 1.01.78 2.88.03 3.97-1.37 1.97-3.4 1.51-5.4 1.49m1.45-1.22c2.04.12 2.92-.58 2.89-2.21-.03-1.51-.98-2.19-2.89-2z"/><path d="m11.81 393.87h-5.49c.68-2.18 2.47-3.48 3.51-5.45h-3.08v-1.21h5.29c-.71 2.13-2.44 3.48-3.47 5.51.86 0 1.63.04 2.39-.01.79-.05 1.14.21.85 1.16"/><path d="m39.33 393.86v-6.61h3.7v1.07h-2.22v1.52c.68.04 1.34.09 2.07.13v1.07c-.72.05-1.38.09-2.1.14v1.48h2.4v1.19h-3.85z"/><path d="m27.71 388.56c-1.15-.3-2.46-.61-3.1.64-.37.73-.41 1.93-.06 2.67.63 1.35 1.99.93 3.17.68.35.94-.01 1.32-.93 1.46-1.62.25-3.05-.27-3.76-1.48-.73-1.24-.6-3.03.31-4.17.88-1.11 2.71-1.7 4-1.16.32.13.44.74.65 1.12-.1.08-.19.16-.28.24"/><path d="m49.15 387.24v1.07c-.59.02-1.17.05-1.87.08v5.44h-1.48v-5.44h-1.85c-.05-.4-.08-.73-.13-1.15z"/><path d="m20.06 387.21h1.33v6.62h-1.33z"/><path d="m30.68 393.25c-.49.38-.8.79-1.05.76-.32-.05-.6-.45-.9-.7.26-.24.51-.64.8-.67.29-.04.62.3 1.15.61"/></g><path d="m27.05 323.7c-5.55-12.31-4.96-24.58-1.5-36.97 2.98-10.69 5.06-21.54 5.5-32.67.07-1.65 1.16-3.24 1.67-4.9 1.25-4.11 2.92-8.18 3.54-12.39 1.12-7.72 1.39-15.56 2.46-23.28.35-2.52 1.8-5.04 3.26-7.22 7.22-10.79 16.36-19.85 26.19-28.21 9.09-7.72 18.41-15.16 27.89-22.93 1.31 1.78 2.2 2.98 3.34 4.52 1.57-2.88 2.99-5.48 4.44-8.13.37 0 .76-.12.99.02 5.43 3.22 9.71 1.8 13.41-3.02.79-1.03 2.36-1.66 3.69-2.03 17.78-4.88 35.59-9.65 53.37-14.53 1.98-.54 3.25-.29 4.52 1.47 2.6 3.6 5.45 7.01 8.39 10.75 1.02-1.53 1.8-2.71 2.72-4.09-1.82-1.05-3.44-1.98-5.58-3.21 2.79-.96 5.12-1.77 8.07-2.78-2.29-1-4.13-1.8-5.97-2.61.01-.31.01-.63.02-.94 4.41-.27 8.87-1.08 13.21-.67 7.04.67 13.59.16 19.43-4.21 3.31-2.47 6.75-3.12 10.54-1.08.84.45 1.87.56 3.26.95.06-4.28 3.12-4.61 6.15-5.18 5.37-1.02 10.7-2.22 16.31-3.4 1.47 3.18 2.91 6.29 4.64 10.04 1.96-2.55 3.66-4.77 5.51-7.18-2.16-1.38-4.11-2.62-6.77-4.31 16.81-5.33 32.99-10.47 49.32-15.65.73 1.57 1.33 2.87 2.04 4.39 6.2-3.71 12.34-7.37 18.46-11.05 8.06-4.83 16.14-9.61 24.14-14.54 1.86-1.15 3.09-1.46 4.83.33 2.75 2.83 6.18 4.39 10.31 3.73 2.81-.45 4.29.96 3.71 3.58-.72 3.32-1.44 6.9-3.23 9.67-4.36 6.76-9.44 13.05-14.03 19.67-1.98 2.85-4.28 5.01-7.46 6.43-3.14 1.39-6.12 3.12-9.86 5.05 2.82 1.38 5.06 2.48 7.4 3.63-.05 5.24-2.49 9.14-7.4 11.74-.94-1.27-1.91-2.58-3.06-4.14-1.69.94-3.3 1.84-5.36 2.99 2.47 1.53 4.51 2.79 6.94 4.3-3.86 4.77-7.44 9.59-11.5 13.97-1.29 1.39-3.97 1.37-5.8 2.39-1.41.79-2.5 2.17-3.7 3.32-.22.21-.32.59-.4.91-2.99 11.26-11.73 16.66-21.52 20.8-7.2 3.05-14.58 5.65-21.88 8.47-1.01.39-1.99.88-3.38 1.51 1.78 1.01 3.18 1.81 5.03 2.86-3.27 1.8-6.11 3.66-9.18 5-8.6 3.77-15.39 9.61-21.27 16.87-5.77 7.14-13.66 11.17-22.63 12.7-4.94.84-10.01.94-15.02 1.31-2.01.14-4.04-.04-6.04.15-10.22.99-19.76-1.14-28.62-6.25-1.84-1.06-3.04-.68-4.74.46-7.77 5.23-16.78 7.23-25.75 9.1-13.02 2.72-26.25 4.83-38.22 10.95-4.89 2.5-9.61 5.77-13.58 9.55-12.97 12.34-25.48 25.16-38.34 37.62-5.36 5.19-9.04 11.23-11.51 18.21-2.17 6.1-5.41 8.17-11.4 8.16zm29.65-64.06c6.92-6.08 13.38-11.96 20.09-17.52 1.75-1.45 4.25-2.5 6.51-2.73 5.72-.59 11.1-1.75 16.3-4.45 9.52-4.94 19.27-9.44 28.97-14.01 1.44-.68 3.21-1.1 4.77-.97 6.99.57 13.69.39 18.8-5.77 1.31 1.59 2.13 3.25 3.47 4.05 1.54.91 3.7 1.71 5.27 1.3 1.07-.28 2.44-2.82 2.23-4.12-1.17-7.26.37-13.75 4.79-19.73-1.38-1.42-2.6-2.67-4.08-4.2-.98 2.65-1.81 4.87-2.63 7.08-2.71-8.46-4.12-16.6 3.92-22.87-2.63-4.61-5.06-8.89-7.5-13.15-3.57-6.25-7.5-7.69-14.17-4.73-4.31 1.92-8.4 1.96-12.6-.02-.47-.22-1-.29-1.42-.41-3.98 4.68-3.98 4.68-9.84 5.41-.78.1-1.54.28-2.32.39-5.46.76-5.67.63-7.16-4.46-2.84.7-5.69 1.41-8.53 2.11.02.17.05.34.07.5h5.7c-4.85 3.04-9.09 2.22-14.04.17 3.59 4.85 7.81 2.69 11.54 2.84 1.24 6.33 1.21 6.81-4.44 8.41-5.6 1.59-10.26 4.23-13.42 9.2-1.83 2.88-4.43 4.19-7.8 4.28-2.7.07-4.85 1.07-6.38 3.54-3.07 4.93-6.37 9.7-9.53 14.58-4.55 7.01-9.1 14.03-13.51 21.13-.54.86-.64 2.49-.18 3.38 1.14 2.26 2.72 4.3 4.2 6.54-1.86 1.05-3.45 1.94-5.34 3 2.46 2.17 4.71 4 6.76 6.03.67.67 1.09 1.82 1.18 2.8.29 3.3-1.32 4.83-5.23 4.1 2.01 3.04 3.67 5.51 5.55 8.3zm201.53-94.15c-4.71-6.64-5.46-13.83-5.49-21.36-.01-2.18-1.69-5.1-3.51-6.38-4.6-3.21-9.96-4.44-15.6-2.84-15.37 4.36-30.73 8.76-46.09 13.16-11.84 3.39-12.14 3.35-14.19 15.68-2.2 13.19-1.9 26.27 3.68 38.84 3.71 8.34 9.51 14.21 18.73 15.46 6.13.83 10.49 2.86 10.95 10.3 10.88-13.69 26.08-19.25 39.98-25.35-.82-1.94-2.41-3.82-2.12-5.34 1.19-6.24 2.93-12.38 4.5-18.55 1.37-5.43 3.48-10.41 9.16-13.62zm66.31-12.9c.3-20.14 14.01-31.73 24.67-45.58 1.25 2.14 2.17 3.72 3.11 5.33 5.99-4.8 6.34-5.91 4.03-12.42-3.51 2.98-4.32 3.14-9.01 1.79-.43-.12-.88-.19-1.3-.32-6.03-1.9-11.57-1.54-16.6 2.88-2.93 2.57-6.32 4.61-9.39 7.03-1.47 1.15-2.58 1.19-4.15.13-.95-.64-2.64-1.15-3.54-.73-12.08 5.57-25.32 9.2-34.53 19.77-3.41 3.91-7.61 6.02-12.78 6.26-.14.01-.26.3-.63.77 6.29 3.23 6.66 9.15 6.73 15.16.09 6.98-4.32 10.6-10.19 12.94 2.36 8.08 4.63 15.83 6.99 23.91 1.62-1.47 2.9-2.63 4.26-3.85 1.55 1.96 2.97 3.75 4.54 5.73 9.38-10.8 18.54-21.21 27.52-31.76 3.09-3.63 6.38-6.68 10.88-8.57 3.39-1.44 6.47-3.98 9.39 1.53zm-96.57-25.41c-2.56 1.95-4.81 3.66-7.1 5.41 3.23 3.25 3.23 3.25 8.55-.2-.44-1.58-.9-3.24-1.45-5.21zm-76.17 96.93c-.94-1.17-1.68-2.08-2.39-2.98-2.01 1.03-3.68 1.89-5.52 2.83.47 1.09.86 1.97 1.34 3.08 2.24-1 4.33-1.93 6.57-2.93zm-35.13-71.41v5.79c2.31-1.01 4.33-1.88 7.07-3.08-2.73-1.05-4.67-1.79-7.07-2.71zm192.77 19.89.57.18c1.21-2.31 2.41-4.63 3.75-7.18-1.59-.47-2.83-.84-4.31-1.28-.01 2.98-.01 5.63-.01 8.28zm-156.67-29.19c-1.57-.63-2.9-1.16-4.78-1.91.49 2.81.87 4.94 1.4 8 1.38-2.48 2.22-4.01 3.38-6.09zm-109.06 131.92c-.96-1.83-1.71-3.26-2.8-5.34-.48 2.56-.83 4.39-1.26 6.7 1.64-.55 2.65-.89 4.06-1.36zm317.56-183.55c.17.17.34.34.5.52 1.5-.75 2.99-1.5 4.83-2.42-1.18-.99-1.97-1.65-2.91-2.43-.92 1.64-1.67 2.98-2.42 4.33z" fill="#010000"/></svg>