<svg enable-background="new 0 0 400 400" viewBox="0 0 400 400" xmlns="http://www.w3.org/2000/svg"><path d="m378.6 9.2.8-1c.9.7 1.9 1.4 2.9 2.3l-.9 1.1c-1.1-.9-2-1.7-2.8-2.4zm.5 10.7c.9-2.1 1.6-4.3 2.3-6.7.4.2.8.4 1.3.6-.7 2.1-1.5 4.3-2.2 6.6zm.4-15.2.9-.9c1 .8 2 1.6 2.8 2.4l-1 1c-1-.9-1.9-1.8-2.7-2.5zm12.5-1.3h1.2v1.4h2.7v1.1h-2.7v2.7h-1.2v-.5h-1.8v1.3h4.9v3.8h-1.2v-.5h-3.7c0 .4-.1.9-.1 1.2h5.1v1h-5.2c0 .5-.1.9-.2 1.2h6v1h-5.2c1.1 1.3 2.9 2 5.5 2.2-.4.4-.7.8-.9 1.3-2.9-.5-4.8-1.6-5.7-3.5h-.1c-.8 1.7-2.7 2.9-5.9 3.6-.2-.4-.6-.8-.9-1.1 2.8-.6 4.6-1.4 5.4-2.5h-4.8v-1h5.3c.1-.3.2-.7.2-1.2h-4.9v-1h5c0-.4 0-.8.1-1.2h-3.6v.5h-1.2v-3.8h4.9v-1.3h-1.8v.5h-1.2v-2.7h-2.6v-1.1h2.6v-1.4h1.2v1.4h4.7v-1.4zm-6.7 8.4h3.6c0-.4 0-.9 0-1.4h-3.6zm1.9-4.7h4.7v-1.2h-4.7zm6.7 3.3h-3.7v1.4h3.7z" fill="#fcfafa"/><path d="m384.7 21.4h1.3v2.2h2.8v-2.2h1.3v2.2h4.1v9.1h1.7v1.3h-16.9v-1.3h1.7v-9.1h4.1v-2.2zm.3 13.2.7 1.2c-1.8.9-3.8 1.9-6 2.9-.2-.4-.5-.8-.8-1.3 2.4-1 4.4-2 6.1-2.8zm-3.1-6.5h2.8v-3.2h-2.8zm0 4.6h2.8v-3.3h-2.8zm4.1-4.6h2.8v-3.2h-2.8zm0 4.6h2.8v-3.3h-2.8zm3.6 1.9c2.1.9 4.1 1.8 6.1 2.7l-.7 1.3c-2.2-1.1-4.2-2-6.1-2.9zm3.3-9.7h-2.8v3.2h2.8zm-2.8 7.8h2.8v-3.3h-2.8z" fill="#fcfafa"/><g fill="#010000"><path d="m267.09 361.69c.79-2.31 1.2-3.53 1.76-5.16-2.45-.78-4.72-1.49-7.29-2.31-.37 1.7-.96 3.18-.96 4.66-.01 3.52-1.92 5.82-4.82 7.04-5.43 2.29-10.97 4.32-16.56 6.18-2.56.85-4.57.17-4.57-3.26 0-1.71-.58-3.43-1.02-5.83-6.43 10.4-16.1 12.5-26.54 12.29-12.17-.24-24.33-.98-36.48-1.5-.59-2.44-1.06-4.37-1.68-6.95-1.51 2.85-2.73 5.16-4.16 7.88-2.25-3.64-4.29-6.92-6.57-10.62-1.43 2.57-2.63 4.73-4.2 7.54-.5-2.87-.86-5-1.23-7.13-.14-.03-.29-.05-.43-.08-.37 1.85-.75 3.7-1.23 6.07-3.87-.62-7.68-1.21-11.47-1.85-9.92-1.69-19.82-3.5-29.77-5.06-3.77-.59-7.1-1.63-9.71-4.58-1.02-1.15-2.33-2.03-3.77-3.25-.57 1.25-1.02 2.21-1.65 3.58-.72-1.35-1.52-2.4-1.88-3.58-1.16-3.82-3.77-5.16-7.55-4.92-1.33.08-2.68-.27-4.02-.21-5.17.25-9.13-1.8-12.5-5.71-2.65-3.08-2.89-2.87-7.21-2.23-1.36-6.97-2.73-13.96-4.22-21.6-1.79 2.75-3.27 5.02-5.16 7.94-.56-4.28-1.01-7.77-1.53-11.74-2.35 2.12-4.37 3.95-6.83 6.18-.14-2.61-.25-4.65-.39-7.2-1.47 1.26-2.6 2.23-3.94 3.38-5.59-8.25-9.28-17.14-10.8-26.88-2.16-13.79.28-26.97 5.81-39.62.61-1.4 2.7-2.16 4.11-3.22.29.23.58.46.86.69.41-3.29.66-6.62 1.31-9.87.27-1.34 1.1-3.11 2.19-3.66 6.04-3.05 9.17-8.14 11.35-14.26 2.8-7.86 7-14.83 14.79-18.77 8.62-4.35 14.07-11.57 18.07-19.96 2.81-5.88 6.98-9.59 13.42-10.68 2.69-.46 4.36-1.87 4.87-4.7.6-3.35 2.68-5.69 5.31-7.81 6.37-5.12 12.75-10.25 18.76-15.78 4.75-4.38 9.04-9.29 13.37-14.11 5.76-6.41 11.44-12.9 16.98-19.51 1.45-1.73 2.55-3.9 3.25-6.06 1.55-4.78 2.74-9.67 4.27-15.21.59 1.88 1 3.15 1.4 4.42.24.04.48.07.71.11.93-4.02 2.15-7.99 2.73-12.06 1.76-12.29 3.6-24.59 4.66-36.95.31-3.6-1.89-7.42-3.09-11.67 2.97-2.61 6.36-5.67 9.86-8.58.55-.46 1.67-.49 2.47-.35 4.39.75 7.99 2.83 10.37 6.69 1.11 1.8 2.43 3.59 3.04 5.58 3.38 11 9.94 20.23 16.5 29.38 3.96 5.52 5.78 11.78 7.89 18 1.62 4.76 3.01 9.61 4.79 14.31.56 1.48 1.84 3.03 3.21 3.8 4.57 2.56 9.34 4.78 13.99 7.1 4.54-4.11 5.64-4.23 10.97-1.13 15.87 9.2 31.78 18.33 47.58 27.64 5.26 3.1 8.6 8.03 11.14 13.49.97 2.1.52 3.85-1.17 5.44-1.54 1.43-2.93 3.02-4.58 4.74 4.25 6.43 8.53 12.91 12.81 19.39l.81-.18c-.29-7.48 2.28-14.96-.15-22.71-.24.16.05-.08.08-.05 4.68 4.37 9.89 8.32 13.84 13.28 3.35 4.21 5.44 9.49 7.68 14.48.93 2.07 1.34 4.71.99 6.94-.48 3.04-.19 5.41 2.1 7.56 3.27 3.07 4.91 6.95 6.01 11.31 3.28 12.99 6.92 25.9 10.49 39.13-2.06.96-4.05 1.88-7.44 3.45 2.7 2.2 5.09 3.84 7.07 5.88.92.95 1.61 2.72 1.46 4.02-1.41 12.68-2.97 25.34-4.66 37.98-.2 1.5-1.21 3.08-2.25 4.26-2.51 2.85-5.56 5.27-7.85 8.27-2.2 2.9-3.72 6.32-5.7 9.79-.78-1.26-1.61-2.58-2.67-4.3-3.5 5.5-2.79 13.67-10.94 15.65-.73-1.29-1.59-2.81-2.58-4.56-7.23 11.13-18.82 14.14-30.9 18.16 1.72-3.42 3.01-5.97 4.28-8.48-4.79-3.74-4.69-3.65-8.62.49-5.29 5.59-10.51 11.3-16.25 16.4-2.59 2.39-6.38 3.36-10.42 5.32zm-63.47-189.22c4.69.27 8.1 2.26 10.42 5.78 4.83 7.33 11.28 12.88 18.38 17.9 9.23 6.52 18.16 13.46 27.36 20.03 3.98 2.84 7.4 6.04 9.83 10.33.63 1.11 1.57 2.37 2.67 2.83 13.47 5.69 26.94 11.41 40.55 16.75 5.93 2.33 12.13 1.88 17.93-.98.97-.48 2.16-1.87 2.13-2.81-.26-9.05-.76-18.09-1.19-27.29-2.83-.54-5.43-1.03-8.08-1.54 0-1.79 0-3.4 0-5.08 1.19-.16 2.13-.28 3.41-.45-.77-.9-1.3-1.6-1.92-2.22-11.41-11.53-22.61-23.28-34.36-34.47-5.94-5.66-11.35-11.44-13.67-19.41-2.21-7.59-6.71-11.91-14.83-12.03-1.98-.03-2.51-1.24-2.62-3.1-.17-2.97-.67-5.93-1.14-9.76-2.11 3.06-3.73 5.39-5.58 8.07-3.73-4.68-7.19-9.02-10.74-13.48 1.44-1.06 2.68-1.97 4.05-2.97-.46-.82-.87-1.55-1.13-2.01-9.95 7.47-19.68 14.95-29.63 22.13-2.44 1.76-5.51 2.8-8.45 3.66-2.84.84-4.98-.4-5.89-3.45-.89-2.97-1.91-5.9-3.18-9.78-.33 3.07-.42 5.2-.83 7.27-.4 2.03-.83 4.16-1.76 5.97-2.14 4.16-4.53 8.2-6.96 12.2-2.38 3.9-4.25 8.45-7.53 11.4-19.2 17.29-37.51 35.6-58.35 51.05-5.59 4.14-11.13 7.75-18.18 8.48-.95.1-1.86.52-2.69.77-.89 8.75-.56 9.06-6.79 15.7-7.03 7.5-11.26 16.22-13.9 25.96-1.68 6.2-.75 11.82 3.05 17.62 15.83-6.29 31.94-11.58 47.01-19.01 12.96-6.39 24.72-15.22 37.03-22.95 2.87-1.8 5.24-5.28 9.13-2.65 6.57-14.45 12.84-28.53 19.39-42.48 2.83-6.02 5.2-12.08 5.89-18.74.24-2.31.74-4.6 1.17-7.24zm35.84 65.95c-2.85 7.65-4.21 15.08-3.49 22.75.88 9.35.84 18.36-5.67 26.1-.53.63-.38 2.09-.13 3.06 2.26 8.88 4.72 17.72 6.86 26.63.66 2.75 2.17 3.47 4.64 3.7 6.29.57 11.9-1.32 17.29-4.32 3.31-1.85 6.61-3.81 10.13-5.17 2.06-.79 4.53-.47 6.82-.67 1.53-.13 3.3.15 4.56-.52 14.42-7.65 28.76-15.45 43.13-23.22 1.74-.94 3.47-1.91 5.2-2.87-1.4-6.09-4.12-11.05-8.15-15.47-3.59-3.95-6.81-8.25-10.05-12.5-1.03-1.36-1.59-3.08-2.47-4.84-2.4 1.49-4.44 2.85-6.57 4.05-.93.53-2.08 1.12-3.07 1.03-7.66-.73-15.41-1.11-22.94-2.58-12.85-2.51-24.75-7.62-36.09-15.16zm-70.56 90.45c9.94.19 22.45-2.65 33.99-9.25 1.18-.67 2.35-2.13 2.64-3.43 1.61-7.08 2.95-14.22 4.37-21.34 2.28-11.35-1.59-20.44-10.25-27.74-1.88-1.59-3.92-2.99-5.74-4.64-1.92-1.74-3.54-1.79-5.91-.5-14.23 7.76-28.62 15.23-42.86 22.97-2.51 1.36-4.63 1.46-7.25.57-1.98-.68-4.54-1.42-6.3-.73-8.63 3.39-17.09 7.21-25.56 10.98-.86.39-1.85 1.41-2.02 2.28-.63 3.33-.26 6.81 2.45 8.99 5.64 4.54 11.17 9.53 17.53 12.77 12.95 6.6 27.11 8.91 44.91 9.07zm44.15-207.37c1.05 2.34 1.98 4.39 2.95 6.56 3.86-2.04 7.35-3.8 10.73-5.74.7-.4 1.46-1.5 1.41-2.22-.17-2.61-.67-5.2-1.12-8.36-4.87 3.41-9.23 6.46-13.97 9.76zm-36.61-35.82c.85 1.63 1.45 2.77 2.17 4.16-4.04 1.27-6.93 3.21-5.05 8.23 1.95.37 4.09.79 6.21 1.19 2.06-7.78 1.19-11.89-3.33-13.58zm-58.48 262.06c-7.99 4.27-7.14 2.01-5.09 11.65 5.86-2.02 6-2.32 5.09-11.65zm77.31-288.97c8.28-2.25 8.82-2.92 6.8-8.63-1.35 1.22-2.63 2.36-4.01 3.6-1.3-1.55-2.49-2.95-4.2-4.98.54 3.89.97 6.94 1.41 10.01zm143.41 139.7c-2.29-4.45-4.3-8.35-6.31-12.26-.17.07-.34.14-.51.21.42 4.38.84 8.76 1.29 13.41 1.9-.46 3.47-.85 5.53-1.36zm-146.87-102.97c1.71 3.95 3.28 7.59 4.96 11.48 1.93-2.48 2.47-4.93 1.28-7.6-1.16-2.6-3.32-3.72-6.24-3.88zm156.33 138.66c-2.46-2.29-4.49-4.18-6.79-6.32v9.02c2.3-.91 4.24-1.69 6.79-2.7zm-217.49 127.28c2.58-2.21 4.52-3.87 6.83-5.85-2.03-.98-3.58-1.74-5.51-2.68-.42 2.76-.8 5.2-1.32 8.53zm-45.59-14.63c3.84-.64 3.04-3.47 2.69-5.46-.17-.95-2.2-1.56-3.39-2.33-.22.26-.43.52-.65.78.45 2.33.89 4.65 1.35 7.01zm1.46-32.6c2.05-1.54 3.61-2.71 5.48-4.11-1.95-.95-3.58-1.75-5.48-2.67zm80.84-154.59c1.89-4.21 1.28-5.07-5.3-7.93.59.93 1.04 1.67 1.52 2.38 1.17 1.73 2.35 3.45 3.78 5.55zm106.51-26.17c1.39-.91 2.51-1.65 3.32-2.18-1.08-1.33-2.02-2.49-3.32-4.09zm-67.62 68.53c-.38 2.66-.68 4.73-1.01 7.08 4.16-2.2 4.16-2.2 1.01-7.08zm-60.87-39.36c-.21.19-.41.37-.62.56.73 1.95 1.47 3.9 2.45 6.5 1.1-1.17 1.74-1.86 2.35-2.5-1.55-1.69-2.86-3.12-4.18-4.56zm56.85-41.14c-1.53-.98-2.69-1.73-4.02-2.57v4.81c1.35-.75 2.4-1.33 4.02-2.24z"/><path d="m193.67 151.92c1.18-3.2 2.35-6.4 3.72-10.11 2.02 1.31 3.27 2.13 4.82 3.13-2.7 2.58-5.24 5-7.77 7.41-.26-.14-.52-.29-.77-.43z"/></g></svg>