<svg enable-background="new 0 0 400 400" viewBox="0 0 400 400" xmlns="http://www.w3.org/2000/svg"><path d="m378.6 9.2.8-1c.9.7 1.9 1.4 2.9 2.3l-.9 1.1c-1.1-.9-2-1.7-2.8-2.4zm.5 10.7c.9-2.1 1.6-4.3 2.3-6.7.4.2.8.4 1.3.6-.7 2.1-1.5 4.3-2.2 6.6zm.4-15.2.9-.9c1 .8 2 1.6 2.8 2.4l-1 1c-1-.9-1.9-1.8-2.7-2.5zm12.5-1.3h1.2v1.4h2.7v1.1h-2.7v2.7h-1.2v-.5h-1.8v1.3h4.9v3.8h-1.2v-.5h-3.7c0 .4-.1.9-.1 1.2h5.1v1h-5.2c0 .5-.1.9-.2 1.2h6v1h-5.2c1.1 1.3 2.9 2 5.5 2.2-.4.4-.7.8-.9 1.3-2.9-.5-4.8-1.6-5.7-3.5h-.1c-.8 1.7-2.7 2.9-5.9 3.6-.2-.4-.6-.8-.9-1.1 2.8-.6 4.6-1.4 5.4-2.5h-4.8v-1h5.3c.1-.3.2-.7.2-1.2h-4.9v-1h5c0-.4 0-.8.1-1.2h-3.6v.5h-1.2v-3.8h4.9v-1.3h-1.8v.5h-1.2v-2.7h-2.6v-1.1h2.6v-1.4h1.2v1.4h4.7v-1.4zm-6.7 8.4h3.6c0-.4 0-.9 0-1.4h-3.6zm1.9-4.7h4.7v-1.2h-4.7zm6.7 3.3h-3.7v1.4h3.7z" fill="#fcfafa"/><path d="m384.7 21.4h1.3v2.2h2.8v-2.2h1.3v2.2h4.1v9.1h1.7v1.3h-16.9v-1.3h1.7v-9.1h4.1v-2.2zm.3 13.2.7 1.2c-1.8.9-3.8 1.9-6 2.9-.2-.4-.5-.8-.8-1.3 2.4-1 4.4-2 6.1-2.8zm-3.1-6.5h2.8v-3.2h-2.8zm0 4.6h2.8v-3.3h-2.8zm4.1-4.6h2.8v-3.2h-2.8zm0 4.6h2.8v-3.3h-2.8zm3.6 1.9c2.1.9 4.1 1.8 6.1 2.7l-.7 1.3c-2.2-1.1-4.2-2-6.1-2.9zm3.3-9.7h-2.8v3.2h2.8zm-2.8 7.8h2.8v-3.3h-2.8z" fill="#fcfafa"/><path d="m203.44 25.5c13.55 8.79 26.89 17.4 40.15 26.13 1.12.74 1.97 2.16 2.53 3.44 3.05 6.93 7.68 12.49 13.86 16.85 2.28 1.61 4.2 3.72 6.49 5.32 7.42 5.17 12.55 12.33 17.54 19.64 7.01 10.27 14.24 20.35 23.63 28.67.96.85 1.68 2.09 2.24 3.28 9.94 21.23 15.66 43.52 16.33 66.98.49 16.99.8 34 .72 50.99-.02 3.98-1.67 8.05-3.07 11.9-1.75 4.81-2.93 9.64-2.34 14.74 1.41 12.22-2.24 22.93-7.69 33.86-5.6 11.22-13.77 19.97-21.92 28.97-.61.67-1.91.96-2.9.97-1.2.02-2.41-.44-3.61-.7-7.28-1.58-7.27-1.58-10.53 4.97-1.04 2.1-1.76 4.52-3.29 6.18-2.13 2.29-4.63 5.16-7.41 5.77-19.27 4.24-36.86 12.98-55.09 19.97-3.75 1.44-6.96 2.62-9.38-2.25-6.1 7.2-13.16 6.6-20.95 4.05-10.3-3.36-20.7-6.54-31.27-8.88-5.42-1.2-11.34-.95-16.94-.39-7.89.78-14.94-.81-21.96-4.37-3.66-1.85-8.01-2.94-12.11-3.17-7.12-.38-12.17-3.67-15.65-9.43-9.77-16.18-13.99-33.95-14.67-52.71-.47-12.99 2.46-25.04 9.2-36.18 3.35-5.54 4.48-11.54 3.81-18.03-.2-1.88.67-4.03 1.53-5.82.96-1.99 2.32-3.85 3.78-5.53 5.12-5.9 8.05-12.43 6.8-20.48-.17-1.11.55-2.62 1.31-3.59 6.57-8.36 13.04-16.82 20.02-24.82 2.04-2.34 5.5-3.73 8.56-4.84 3.84-1.39 6.14-3.6 6.88-7.66.93-5.15 3.62-9.19 7.98-12.25 2.55-1.79 4.59-4.31 7.16-6.08 7.97-5.49 11.41-13.86 14.36-22.43 1.99-5.79 3.39-11.81 4.75-17.79 2.03-8.92 5.32-17.27 10.29-24.97.76-1.18 1.69-2.66 1.58-3.91-.91-10.36 3.26-19.26 7.81-28.04 4.48-8.65 9.24-17.16 16.26-24.1 1.59-1.54 3.44-2.81 5.21-4.26zm80.25 247.4c-.86-10.53-1.8-20.65-2.44-30.78-.17-2.66-1.21-3.29-3.61-3.57-20.53-2.45-41.05-5.01-61.57-7.6-1.4-.18-2.96-.5-4.07-1.29-11.01-7.85-21.91-15.86-32.92-23.73-2.79-1.99-4.02-4.24-2.78-7.64.43-1.18.37-2.54.55-4.03-8.57-.95-16.86-1.86-24.95-2.76-1.37 3.67-2.23 7.21-3.95 10.27-1.72 3.08-3.84 6.26-6.58 8.37-6.43 4.96-9.1 11.9-11.56 19.1-.36 1.06-.68 2.15-1.22 3.11-1.03 1.82-.42 2.97 1.01 4.3 7.94 7.39 15.72 14.96 23.71 22.3 3.36 3.09 6.99 5.92 10.72 8.56 8.49 6.01 18.62 6.53 28.42 7.96 8.46 1.24 16.76 2.66 23.98 7.75 1.05.74 2.73.89 4.1.85 10.39-.32 20.78-.64 31.15-1.24 2.43-.14 5.18-.79 7.11-2.16 5.45-3.85 11.35-6.03 17.96-6.57 2.21-.17 4.38-.74 6.94-1.2zm-13.87-60.61c1.39-1.66 2.51-3.38 3.99-4.69 2.81-2.48 3.18-5.45 2.32-8.8-1.51-5.83-2.6-11.82-4.67-17.44-7.17-19.41-17.91-36.93-29.21-54.16-4.61-7.03-10.22-12.54-17.93-15.99-1.93-.86-3.03-.94-4.61.6-8.89 8.67-17.87 17.24-26.87 25.8-5.49 5.22-7.68 12.25-7.25 19.08.52 8.11 3.2 16.13 5.32 24.08 1.08 4.05 3.86 6.97 8.12 8.23 13.37 3.97 26.68 8.12 40.09 11.94 10.41 2.96 21.02 5.3 30.7 11.35zm-132.23 80.46c-4.22-10.1-8.39-19.6-12.17-29.25-3.02-7.72-9.75-12.21-14.54-18.55-4.3 3.35-8.19 6.39-12.41 9.68 1.66.73 2.74 1.21 3.92 1.73-3.67 12.48-7.29 24.76-10.75 36.51 1.91 1.72 4.04 2.8 4.8 4.49 3.7 8.19 9.6 14.41 16.59 19.79 2.65 2.05 5.01 4.48 7.67 6.51 1.92 1.47 4 2.86 6.22 3.79 10.93 4.55 22.04 8.67 32.85 13.48 6.19 2.75 12.46 3.31 18.97 2.93 4.13-.24 8.29-.48 12.34-1.26 8.43-1.62 16.88-3.26 25.13-5.55 5.23-1.45 8.43-11 5.77-15.77-.65-1.16-1.96-2.16-3.19-2.73-1.59-.73-3.4-1.15-5.15-1.37-4.64-.58-9.4-.56-13.95-1.53-9.5-2.01-18.81-5.06-28.37-6.65-10.86-1.8-19.82-6.21-26.61-14.9-1.8-2.29-3.87-3.72-7.12-1.35zm102.38 56.11c2.88-3.69 5.51-7.06 8.15-10.43-.15-.17-.3-.35-.45-.52-3.45 2.23-6.91 4.46-10.44 6.74 1 1.55 1.73 2.66 2.74 4.21zm-154.14-61.68c-3.32.5-3.12 2.52-2.42 4.72 1.52 4.79 4.65.86 7.14 1.14-1.59-1.97-3.18-3.94-4.72-5.86zm204.82-87.46c-1.25-1.64-2.39-3.13-3.85-5.04v9.2c1.5-1.62 2.54-2.75 3.85-4.16zm-96.78-124.96c-1.01 2.11-1.68 3.5-2.74 5.7 2.34-1.2 3.74-1.93 5.43-2.8-.95-1.02-1.61-1.73-2.69-2.9z" fill="#010000"/></svg>