<svg enable-background="new 0 0 400 400" viewBox="0 0 400 400" xmlns="http://www.w3.org/2000/svg"><g fill="#fbfafa"><path d="m37.59 393.81c-.92.31-1.52.05-2-.78-.7-1.2-1.52-2.34-2.47-3.78v4.59c-.55.03-.95.05-1.41.07-.03-.37-.06-.64-.06-.91 0-1.91 0-3.81 0-5.7 1.13-.41 1.77-.03 2.29.91.62 1.11 1.38 2.14 2.31 3.19v-4.2h1.35v6.61z"/><path d="m12.94 393.88v-6.75c1.9.19 3.93-.54 5.37 1.29.8 1.01.78 2.88.03 3.97-1.37 1.97-3.4 1.51-5.4 1.49m1.45-1.22c2.04.12 2.92-.58 2.89-2.21-.03-1.51-.98-2.19-2.89-2z"/><path d="m11.81 393.87h-5.49c.68-2.18 2.47-3.48 3.51-5.45h-3.08v-1.21h5.29c-.71 2.13-2.44 3.48-3.47 5.51.86 0 1.63.04 2.39-.01.79-.05 1.14.21.85 1.16"/><path d="m39.33 393.86v-6.61h3.7v1.07h-2.22v1.52c.68.04 1.34.09 2.07.13v1.07c-.72.05-1.38.09-2.1.14v1.48h2.4v1.19h-3.85z"/><path d="m27.71 388.56c-1.15-.3-2.46-.61-3.1.64-.37.73-.41 1.93-.06 2.67.63 1.35 1.99.93 3.17.68.35.94-.01 1.32-.93 1.46-1.62.25-3.05-.27-3.76-1.48-.73-1.24-.6-3.03.31-4.17.88-1.11 2.71-1.7 4-1.16.32.13.44.74.65 1.12-.1.08-.19.16-.28.24"/><path d="m49.15 387.24v1.07c-.59.02-1.17.05-1.87.08v5.44h-1.48v-5.44h-1.85c-.05-.4-.08-.73-.13-1.15z"/><path d="m20.06 387.21h1.33v6.62h-1.33z"/><path d="m30.68 393.25c-.49.38-.8.79-1.05.76-.32-.05-.6-.45-.9-.7.26-.24.51-.64.8-.67.29-.04.62.3 1.15.61"/></g><path d="m24.59 277.45c0-1.27-.13-1.75.02-2.11 3.11-7.34.51-14.13-1.71-21.06-.69-2.16-.77-4.9-.1-7.06 7.61-24.55 15.4-49.05 23.23-73.53.59-1.86 1.57-3.74 2.83-5.21 8.02-9.34 16.02-18.7 24.32-27.77 5.56-6.08 12.69-10.13 19.87-14.12 5.82-3.24 11.38-7.01 16.76-10.95 2.57-1.88 4.62-2.74 7.37-.73.96.7 2.18 1.03 3.17 1.48.38-.22.66-.28.74-.45 2.33-4.6 5.04-7.45 11.16-5.7 2.8.8 6.39-1.66 9.69-2 6.08-.62 12.2-1.04 18.31-1.04 6.03.01 12.06.56 18.08 1.07 1.39.12 3.03.73 4.02 1.68 4.07 3.89 8.36 5.14 13.72 2.6 6.1-2.9 12.58-3.08 19.31-2.79 25.14 1.1 50.08-.36 74.41-7.54 2.03-.6 4.2-1.12 5.95-2.24 4.45-2.86 9.06-2.32 13.86-1.47 6.6 1.17 13.29 1.9 19.88 3.11 7.7 1.41 15.14.15 22.57-1.6 1.63-.39 3.24-.86 4.89-1.17 7.42-1.37 12.19 1.7 14.35 9.41-4.83.93-9.63 1.91-14.45 2.75-2.31.4-4.13 1.1-5.09 3.57-2.26 5.81-6.37 9.98-11.64 13.34-12.81 8.16-23.83 18.44-34.41 29.3-10.36 10.63-20.29 21.8-33.24 29.61-4.84 2.92-5.4 8.23-5.68 13.32-.04.7 1.05 1.58 1.76 2.19 1.86 1.59 2.52 3.15 1.01 5.49-1.82 2.83-2.45 6.04-1.11 9.3 3.33 8.11 2.59 15.92-.78 23.92-2.47 5.85-4.2 12.03-5.96 18.15-1.42 4.95-3.67 9.28-7.41 12.86-1.61 1.54-3.19 3.2-4.42 5.04-3.8 5.72-9 8.38-15.87 8.88-3.14.23-6.33 1.94-9.18 3.55-3.58 2.03-6.91 4.55-10.21 7.04-3.35 2.53-7.1 4.31-11.18 3.76-5.69-.76-10.85.87-16.04 2.45-2.85.87-5.33.73-8.06-.34-5.93-2.32-11.98-4.35-17.92-6.63-.97-.37-1.78-1.37-2.48-2.23-1.72-2.12-2.9-4.99-5.05-6.38-6.4-4.15-10.5-9.64-12.92-16.86-2.41-7.19-5.64-14.11-8.38-21.2-.72-1.86-1.68-2.47-3.68-2.48-21.75-.17-43.25-3.29-64.81-5.64-1.56-.17-3.12-.31-4.67-.49-6.95-.79-7.15-.89-10.19 5.43-1.92 3.99-3.53 8.23-4.51 12.54-1.19 5.24-3.65 9.39-8.11 12.21-3.74 2.35-7.69 4.33-12.02 6.74zm135.65-130.67c0 1.13.11 2.14-.02 3.12-1.43 11.55-2.94 23.08-4.32 34.64-.6 4.98-1.67 10.05-1.27 14.99 1.12 13.94 3.22 27.79 4.27 41.73.7 9.32 2.42 17.8 9.99 24.14 1.52 1.27 2.8 2.93 3.9 4.6 4.1 6.3 9.8 10.03 17.11 11.81 3.02.74 5.76 1.18 8.8.38 5.4-1.43 10.83-2.8 16.32-3.81 3.32-.61 5.9-1.83 7.4-4.92 2.34-4.85 6.22-7.36 11.58-7.65.78-.04 1.55-.22 2.31-.4 3.88-.9 7.02-3.02 9.15-6.34 2.47-3.86 4.7-7.88 6.95-11.87.41-.72.77-1.78.55-2.49-1.54-4.84.25-9.15 1.53-13.71 1.02-3.65 1.69-7.86.91-11.48-5.53-25.57-11.45-51.05-17.35-76.53-.28-1.19-1.38-2.56-2.47-3.14-5.92-3.15-11.94-6.11-17.97-9.05-1.06-.51-2.35-.89-3.5-.81-15.4 1.04-30.8 2.14-46.19 3.29-3.71.28-6.03 2.69-7.03 6.1-.68 2.33-2.07 4.45-3.11 6.6.39.14 1.45.48 2.46.8zm-52.95 93.65c.43.01.85.01 1.28.02.41-2.74 1.17-5.48 1.17-8.22 0-5.01.17-5.53 4.83-6.78 3.77-1.02 7.53-2.15 11.35-2.94 2.52-.52 4.1-1.67 4.22-4.29.35-7.34 1.01-14.69.83-22.02-.19-7.76-1.01-15.67 2.49-22.75 2.65-5.35 3.56-10.7 3.52-16.43-.04-5.67.95-11.03 4.12-15.91 1.26-1.94 2.14-4.19 2.85-6.41 1.13-3.52-.75-5.83-3.37-8.02-2.54-2.12-4.19-.62-6.48.43-5.12 2.36-10.33 5.31-15.76 6.01-15.04 1.95-25.9 10.24-35.22 21.21-3.24 3.81-5.78 8.23-8.72 12.31-3.06 4.26-5.73 8.96-9.46 12.55-3.2 3.07-4.82 5.65-4.07 10.28 1.09 6.78-2.34 12.8-4.65 18.96-3.74 9.97-1.94 13.09 8.59 15.38.11.02.22.05.33.05 5.46.24 10.92.42 16.38.73 5.79.33 11.59.64 17.34 1.32 1.28.15 2.85 1.62 3.48 2.89 1.86 3.78 3.33 7.75 4.95 11.63zm160.39-72.26c.68-.17 1-.22 1.31-.33 7.43-2.54 12.13-8.09 16.1-14.5 5.06-8.17 9.9-16.57 19.71-20.18.67-.25 1.45-1.84 1.24-2.52-.67-2.16.5-5.13-2.71-6.26-4.54-1.6-6.71-.81-10.49 4.26-3.22-1.27-6.5-2.64-9.84-3.82-1.07-.38-2.49-.63-3.47-.24-7.69 3.04-15.32 6.21-22.92 9.48-.72.31-1.58 1.69-1.44 2.39 2.27 11.25 6.16 21.89 12.51 31.72zm-93.95 123.43c-.86-2.28-1.51-5.54-2.2-5.55-3.25-.05-6.51.8-9.82 1.33.98 4.19.98 4.2 3.95 4.22 2.33.01 4.66 0 8.07 0zm73.91-124.44c2.37 2.95 2.97 3 6.76.71-.72-1.28-1.43-2.55-2.22-3.95-1.66 1.19-2.99 2.14-4.54 3.24zm16.36 43.37c.23.05.46.1.7.15.72-1.31 1.43-2.61 2.31-4.2-1.3-.54-2.39-1-3.88-1.63.35 2.3.61 3.99.87 5.68zm-57.68-93.91c-1.29-1.19-2.3-2.12-3.72-3.42-.32 2.07-.55 3.55-.89 5.68 1.8-.88 3.02-1.48 4.61-2.26z" fill="#010000"/><path d="m188.39 156.74c8.38 5.87 12.66 13.76 14.08 23.4 1.12 7.6 1.12 15.16-.54 22.69-.22.98-.38 2.03-.86 2.88-2.13 3.73-2.71 7.73-2.53 11.97.2 4.64-5.34 8.74-9.72 7.29-.64-.21-1.18-.96-1.59-1.58-9.08-13.99-11.91-29.23-8.98-45.57.18-1 1.2-1.84 1.84-2.75 1.46-2.06 3.33-3.95 4.29-6.22 1.6-3.8 2.62-7.82 4.01-12.11z" fill="#010000"/></svg>