<svg enable-background="new 0 0 400 400" viewBox="0 0 400 400" xmlns="http://www.w3.org/2000/svg"><path d="m378.6 9.2.8-1c.9.7 1.9 1.4 2.9 2.3l-.9 1.1c-1.1-.9-2-1.7-2.8-2.4zm.5 10.7c.9-2.1 1.6-4.3 2.3-6.7.4.2.8.4 1.3.6-.7 2.1-1.5 4.3-2.2 6.6zm.4-15.2.9-.9c1 .8 2 1.6 2.8 2.4l-1 1c-1-.9-1.9-1.8-2.7-2.5zm12.5-1.3h1.2v1.4h2.7v1.1h-2.7v2.7h-1.2v-.5h-1.8v1.3h4.9v3.8h-1.2v-.5h-3.7c0 .4-.1.9-.1 1.2h5.1v1h-5.2c0 .5-.1.9-.2 1.2h6v1h-5.2c1.1 1.3 2.9 2 5.5 2.2-.4.4-.7.8-.9 1.3-2.9-.5-4.8-1.6-5.7-3.5h-.1c-.8 1.7-2.7 2.9-5.9 3.6-.2-.4-.6-.8-.9-1.1 2.8-.6 4.6-1.4 5.4-2.5h-4.8v-1h5.3c.1-.3.2-.7.2-1.2h-4.9v-1h5c0-.4 0-.8.1-1.2h-3.6v.5h-1.2v-3.8h4.9v-1.3h-1.8v.5h-1.2v-2.7h-2.6v-1.1h2.6v-1.4h1.2v1.4h4.7v-1.4zm-6.7 8.4h3.6c0-.4 0-.9 0-1.4h-3.6zm1.9-4.7h4.7v-1.2h-4.7zm6.7 3.3h-3.7v1.4h3.7z" fill="#fcfafa"/><path d="m384.7 21.4h1.3v2.2h2.8v-2.2h1.3v2.2h4.1v9.1h1.7v1.3h-16.9v-1.3h1.7v-9.1h4.1v-2.2zm.3 13.2.7 1.2c-1.8.9-3.8 1.9-6 2.9-.2-.4-.5-.8-.8-1.3 2.4-1 4.4-2 6.1-2.8zm-3.1-6.5h2.8v-3.2h-2.8zm0 4.6h2.8v-3.3h-2.8zm4.1-4.6h2.8v-3.2h-2.8zm0 4.6h2.8v-3.3h-2.8zm3.6 1.9c2.1.9 4.1 1.8 6.1 2.7l-.7 1.3c-2.2-1.1-4.2-2-6.1-2.9zm3.3-9.7h-2.8v3.2h2.8zm-2.8 7.8h2.8v-3.3h-2.8z" fill="#fcfafa"/><g fill="#010000"><path d="m301.03 251.5c-1.25-.36-2.31-.67-3.63-1.05 4.07-3.43 3.28-4.42-4.21-10.39-.36 5.03-.69 9.71-1.07 14.98 3.03-1.09 5.6-2.01 8.82-3.16-.63 4.86-1.2 9.3-1.79 13.84-1.15.19-2.11.35-2.95.49 0 6.11-.02 12.11.01 18.1.01 1.79.12 3.58.3 5.36.34 3.31.39 6.33-3.42 7.99-1.06.46-1.99 1.91-2.39 3.1-.97 2.87-2.08 4.81-5.72 3.58-1.5-.51-2.94 3.46-1.89 5.32.38.66 1.01 1.18 2.09 2.4.51-1.15.91-2.05 1.32-2.95.34.26.68.52 1.02.79-.64 1.14-1.07 2.48-1.95 3.39-4.15 4.28-5.73 9.33-5.7 15.25.02 3.85-.47 7.82-1.45 11.54-1.27 4.79-5.82 7.52-10.79 7.18-1.67-.11-3.33-.41-5-.53-4.74-.32-8.86.78-12.64 4.07-4.79 4.17-10.09 7.78-15.22 11.56-4.28 3.14-9 4.35-14.23 2.82-2.66-.77-5.05-.39-7.18 1.48-6.3 5.51-13.7 7.57-21.96 7-1.33-.09-2.69.33-4.01.19-1.27-.13-2.5-.69-4.22-1.19-.04.08-.49.98-.91 1.82-3.83.54-6.65-.58-7.93-5.33-2.27 5.48-5.82 6.71-10.37 5.34-3.68-1.11-8.37.3-10.72-4.57-6.25 6.29-13.54 3.45-20.59 2.74-.44-.04-.87-.29-1.3-.3-10.94-.06-15.79-7.15-17.98-16.44-1.52-6.47-2.74-13.23-2.58-19.83.29-11.81-1.5-23.09-5.25-34.21-.63-1.86-.2-4.09-.14-6.15.02-.76.37-1.51.56-2.27 1.82-7.23 4.27-14.01 8.23-20.59 4.96-8.24 8.26-17.54 11.77-26.58 4.82-12.41 10.02-24.56 16.98-36 12.37-20.34 24.04-41.11 36.48-61.41 4.28-6.98 4.62-13.82 2.49-21.15-1.02-3.52-2.67-6.85-4.09-10.25-2.24-5.36-1.08-9.48 3.67-12.86 4.8-3.42 9.51-4.43 15.2-1.4 11.3 6.01 20.74 14.38 30.33 22.59 3.4 2.91 6.57 6.07 9.88 9.09 2.94 2.68 5.24 5.69 6.29 9.68.35 1.35 1.57 2.67 2.73 3.58 6.43 5.04 12.97 9.93 19.44 14.91.87.67 1.8 1.41 2.34 2.33 7.12 12.26 14.67 24.3 21.11 36.91 7 13.69 11.76 28.26 12.57 43.84.05 1 .04 2.01-.01 3.02-.04.65-.19 1.29-.34 2.33zm-125.76-47.09c-4.19 6.89-8.31 13.39-12.13 20.07-1.89 3.3-4.21 5.96-7.52 7.84-1.22.69-2.69 1.65-3.15 2.83-4.35 11.19-11.35 21.32-13.47 33.42-.22 1.28-1.06 2.44-1.51 3.69-1.15 3.19-2.65 6.34-3.27 9.64-.76 4.04-.96 8.22-1.05 12.35-.37 17.59 4.46 33.45 15.36 47.5 4.09 5.27 9.02 8.29 15.41 9.7 19.24 4.26 37.77 1.42 55.92-5.28 2.67-.99 5.79-2.11 7.47-4.17 6.62-8.13 14.95-12.76 25.24-14.11.11-.01.24-.01.33-.07 1.33-.9 2.96-1.56 3.92-2.75 4.41-5.49 6.58-12.06 8.95-18.61 2.03-5.6 4.26-11.48 7.9-16.04 3.17-3.97 5.04-7.9 5.85-12.69.72-4.26 2.19-8.36 1.05-12.86-2.65-10.52-3.22-21.14-.75-31.83.26-1.12.25-2.58-.26-3.57-7.65-15.1-15.9-29.88-27.78-42.11-7.01-7.22-14.3-14.13-19.7-22.72-1.28-2.03-2.41-4.47-5.71-2.83-.57.28-1.81-.61-2.67-1.09-4.67-2.63-9.31-5.3-14.37-8.2-2.22 4.3-4.55 8.36-6.46 12.62-1.96 4.37-4.41 8.25-8.24 11.22-.9.7-1.78 1.84-2 2.92-.66 3.27-1.36 6.6-1.37 9.91-.01 6.75 4.34 10.16 10.86 8.72 2.1-.46 3.55-.02 5.13 1.39 6.68 5.96 13.41 11.86 20.26 17.62 1.35 1.13 3.28 1.88 5.04 2.14 8 1.16 15.89 2.62 23.06 6.59.93.52 2.14 1.19 2.47 2.07 2.69 7.22 4.09 12.61-2.72 20.07-3.16-1.67-4.43-7.9-9.91-3.98.16.27.33.55.48.83.63 1.15 1.26 2.29 1.89 3.44-1.3.17-2.68.72-3.89.45-8.18-1.78-16.35-3.67-24.49-5.65-11.72-2.86-21.23-9.07-28.52-18.78-4.95-6.61-10.26-12.94-15.65-19.69zm-39.66 24.86v5.88c1.82-.36 3.39-.67 5.38-1.07-2.02-1.8-3.69-3.29-5.38-4.81zm-13.78 136.78c.32.23.64.47.97.7 2.07-1.08-.05-5.38 4.12-5.02-.08-1-.15-1.96-.23-2.92-.31-.07-.61-.14-.92-.21-1.32 2.49-2.63 4.97-3.94 7.45z"/><path d="m368.48 184.95c-1.2-2.46 1.8-5.13-2.14-6.1-1.65 3.45-1.12 8.4-6.25 10.12-2.81-4.27-5.73-8.6-8.47-13.04-.37-.59-.05-1.89.37-2.63 1.43-2.52 3.05-4.93 4.69-7.54-1.17-1.02-2.26-1.94-3.31-2.9-1.87-1.7-2.43-3.51-1.95-6.24.9-5.14.66-7.69-4.3-9.38-2.41-.82-3.89-2.38-4.41-4.94-.26-1.3-.94-2.52-1.26-3.81-.81-3.3-1.53-6.62-2.29-9.93.35-.16.69-.31 1.04-.47-1.83-.77-3.66-1.55-5.47-2.31-3.98 2.91-3.86 7.13-3.82 10.93-4.07-3.01-8.22-6.02-12.32-9.12-3.57-2.7-5.98-5.91-6.69-10.68-1.12-7.47-3.04-14.83-4.44-21.42-2.23 1.88-4.77 3.85-7.09 6.06-1.72 1.63-1.32 4.99.65 6.94 1.18 1.17 2.49 2.21 3.55 3.6-4.41-2.48-9.89-2.99-13.03-7.76-.78-1.18-2.48-2.47-3.77-2.48-7.2-.09-9.93-5.53-13.49-10.41 3.13-3.85 6.15-7.57 9.32-11.48-.69-.77-1.31-1.47-2.27-2.53-.99 4.02-3.16 4.71-6.81 4.07-5.74-.99-8.77 3.02-6.71 8.38.71 1.84.24 2.93-1.46 3.3-2.89.63-5.79 1.59-8.25-1.48-1.51-1.89-3.57-3.24-6.48-2.62-.84.18-2.38-1.06-2.98-2.04-1.1-1.76-1.73-3.81-2.7-6.05-.39 1.71-.7 3.06-1.16 5.11-.89-2.27-1.54-3.92-2.32-5.92-1.15 1.27-2.09 2.31-3.48 3.84-.39-2.48-.71-4.55-1.16-7.46-1.34 2.52-2.34 4.4-3.59 6.77-1.78-2.29-3.36-4.3-4.9-6.27-1.95 1.17-3.07 1.84-4.1 2.46-10.69-6-22.35-7.64-34.25-8.1-1.23-.05-3.07.59-3.67 1.53-4.49 6.98-10.74 11.91-17.79 16-1.64.95-3.13 2.2-4.83 3.03-3.34 1.63-5.26 4.14-6.22 7.76-.35 1.34-1.79 2.97-3.08 3.4-5.85 1.97-10.54 5.3-13.67 10.62-1.73 2.94-3.97 3.96-7.23 2.84-.71-.24-1.53-.15-2.61-.23-.63 2.65-1.3 5.21-1.83 7.8-.34 1.68-.89 2.89-2.91 3-5.99.33-8.71 4.07-10.07 9.5-1.25 5.02-5.22 8.04-9.28 10.59-1.06.67-3.37-.64-5.71-1.18-4.15 4.62-8.92 9.48-13.13 14.79-2.85 3.59-5.96 5.49-10.51 4.61-3.4-.66-5.07.85-5.92 4.08-2.45 9.31-7.54 16.88-14.72 23.38-6.21 5.62-11.81 11.92-17.55 18.04-3 3.2-6.37 5.11-10.87 4.84-1.43-.08-2.87.25-4.9.46-.65-3.82-1.37-7.61-1.86-11.42-.09-.69.68-1.59 1.21-2.26 14.52-18.33 28.89-36.78 43.69-54.87 5.08-6.21 11.22-11.55 16.92-17.24 17.2-17.15 34.69-34.01 51.49-51.53 6.61-6.89 11.71-15.22 17.47-22.91 2.44-3.27 4.33-7.06 9.3-7.3 1.13-.06 2.36-1.61 3.24-2.71 3.77-4.72 7.62-9.4 11.05-14.36 2.1-3.05 4.62-4.26 8.22-4.61 3.81-.38 6.39.13 8.36 3.93 2.35 4.55 5.62 8.61 8.25 13.02 1.24 2.08 2.81 2.89 5.1 3.08 3.68.3 7.33 1.01 11.01 1.16 5.17.2 9.73 2.05 14.34 4.16 18.59 8.5 37.22 16.93 55.94 25.13 4.47 1.96 9.4 2.84 14.05 4.4 7.61 2.56 13.86 6.79 16.65 14.76 1.4 4.01 3.99 6.65 7.62 8.84 8.53 5.12 16.87 10.55 25.17 16.04 1.55 1.03 2.95 2.72 3.72 4.43 2.66 5.88 5.22 11.63 9.17 16.96 6.83 9.22 10.44 19.81 7.84 31.54-.74 3.36-2.45 6.55-3.95 10.43zm-226.1-99.46v4.77c1.63-.83 3-1.53 4.75-2.42-1.73-.86-2.99-1.48-4.75-2.35zm-18.87 40.04c1.4-.96 2.26-1.55 2.8-1.92-.82-1.21-1.55-2.31-2.29-3.4-.17.17-.34.33-.51.5z"/><path d="m166.41 268.39c.31-2.1.59-4.77 1.1-7.4.66-3.39 2.76-5.21 6.05-4.2 9.68 2.97 19.27 6.27 28.81 9.69 3.2 1.15 5.51 3.61 7.13 6.75 1.49 2.87 3.66 5.4 5.02 8.31 2.06 4.43 5.47 6.79 10.01 8.03 4.41 1.21 8.79 2.57 13.13 4 4.68 1.54 6.36 4.4 4.8 9.01-1.02 3-2.54 5.99-4.47 8.49-2.66 3.45-6.22 4.82-10.68 2.82-3.5-1.57-6.88-1.24-9.91 1.57-1.71 1.59-6.71 1.46-8.15-.1-.56-.61-.63-1.81-.65-2.75-.05-2.61-1.31-4.04-3.77-4.85-2.35-.78-4.24-.98-5.61 1.61-1.18 2.24-2.93 1.34-4.13.15-7.31-7.2-14.62-14.41-21.72-21.81-4.41-4.6-6.44-10.38-6.82-16.73-.04-.68-.07-1.35-.14-2.59z"/></g></svg>