<svg enable-background="new 0 0 400 400" viewBox="0 0 400 400" xmlns="http://www.w3.org/2000/svg"><path d="m227.83 202.58c19.04-1.16 37.58-4.45 56.25-.68.55 5.49.23 6.58-5.01 8.2-5.85 1.8-11.92 2.89-17.9 4.26-1.19.27-2.41.41-3.85.65-.23 4.86-.17 9.67-.75 14.4-1.72 14.16-2.64 28.54-9.59 41.51-.62 1.16-1.17 2.51-1.22 3.79-.25 6.24-3.04 11.09-7.18 15.68-6.97 7.72-13.41 15.92-20.17 23.83-2.25 2.62-4.75 5.04-7.28 7.4-2.39 2.23-3.19 4.58-1.12 7.36 2.64 3.56 5.13 7.26 8.11 10.51 3.4 3.7 7.14 7.12 10.99 10.35 1.87 1.56 4.32 2.43 6.52 3.6.87.46 2.05.65 2.58 1.35 2.14 2.81 5.14 3.61 8.37 4.34 1.84.42 3.72 1.46 5.16 2.71 4.62 3.99 9.05 8.2 14.13 12.86-11.21-.07-21.28-1.96-30.64-6.25-7.17-3.29-13.84-7.67-20.71-11.59-.48-.27-.92-.65-1.28-1.07-9.64-11.46-19.43-22.79-28.83-34.44-8.52-10.56-15.66-22.1-21.41-34.39-4.56-9.74-6.14-20.28-6.61-30.96-.39-8.83-.61-17.68-3.44-26.18-.85-2.54-1.89-5.01-2.87-7.5-1.55-3.95-4.93-5.38-8.72-5.8-2.52-.28-5.16-.1-7.68.27-5.48.79-10.37-.5-15.06-3.29-2.17-1.29-4.71-1.95-6.91-3.2-1.23-.7-2.12-2.01-3.16-3.04.22-.35.43-.7.65-1.05 5.87.27 11.78.24 17.62.87 14.51 1.55 28.8-.13 43.09-2.3 6.08-.92 12.06-.23 17.88 1.63.9.29 1.88 1.47 2.1 2.41.18.77-.49 2.09-1.19 2.64-3.71 2.92-8.16 3.23-12.68 3.57-3.18.24-6.34 1.04-9.44 1.85-1.8.47-2.48 1.84-2.25 3.88 1.45 13.12 2.77 26.25 4.18 39.37.09.85.54 1.68.91 2.48 4.34 9.42 8.7 18.83 13.04 28.25 2.15 4.66 4 9.47 6.51 13.93 1.44 2.55 3.65 4.87 5.99 6.68 4.89 3.77 7.56 3.31 11.52-1.27 5.71-6.61 11.39-13.23 17.13-19.81 8.04-9.21 11.96-20.6 16.75-31.51 4.15-9.47 7.45-19.22 7.51-29.71.03-4.45-.39-8.92-.91-13.35-.12-1.01-1.27-2.32-2.27-2.73-3.29-1.36-6.76-2.3-10.11-3.54-3.2-1.22-5.71-3.16-6.75-6.97z" fill="#010102"/><path d="m152.5 132.63c0-4.76-.06-8.41.05-12.06.02-.67.58-1.45 1.1-1.97 7.86-7.68 12.96-17.32 19.03-26.29 2.62-3.87 6.66-6.78 10.02-10.16 1-1.01 2.45-2.01 2.73-3.23.77-3.41 2.92-5.46 5.79-6.88 10.24-5.04 16.46-12.64 19.42-24.12 2.47-9.57 10.47-16.17 18.25-22.18.66-.51 2.4-.59 2.96-.1 2.46 2.16 5.31 4.26 6.82 7.03 2.22 4.07 3.54 8.66 5.05 13.09 7.02 20.61 16.32 40.1 28.4 58.24.43.64 1.13 1.39 1.06 2.02-.68 5.96 3.2 10.31 5.34 15.24 2.07 4.77 3.63 9.59 3.42 14.92-3.04 1.48-5.33.97-8.24-.99-10.17-6.86-16.11-16.5-19.85-27.82-1.98-6-4.87-11.38-8.99-16.28-2.33-2.78-3.77-6.47-5.05-9.95-2.14-5.8-2.69-12.16-7.25-17.06-1.35-1.45-1.33-4.18-1.9-6.33-1.23-4.63-4.93-5.77-8.91-3.3-6.2 3.85-10.47 9.32-14.07 15.42-1.42 2.4-3.19 3.92-6 4.11-3 .2-4.68 1.82-5.75 4.61-1.36 3.53-3.13 6.91-4.73 10.36-.19.41-.3.96-.62 1.17-7.04 4.54-8.55 13.1-13.77 18.92-5.22 5.83-10.65 11.47-16.17 17.02-2.23 2.24-4.91 4-8.14 6.57z" fill="#010102"/><g fill="#fcfbfa"><path d="m385.2 377.6.6-.7c.6.4 1.3.9 1.9 1.5l-.6.7c-.8-.5-1.4-1-1.9-1.5zm.3 7.1c.6-1.4 1.1-2.9 1.5-4.5.3.1.6.3.9.4-.5 1.4-1 2.9-1.5 4.4zm.2-10.1.6-.6c.7.5 1.3 1.1 1.9 1.6l-.7.7c-.6-.6-1.2-1.2-1.8-1.7zm8.4-.8h.8v.9h1.8v.7h-1.8v1.8h-.8v-.3h-1.2v.9h3.3v2.6h-.8v-.4h-2.5c0 .3 0 .6-.1.8h3.4v.7h-3.5c0 .3-.1.6-.1.8h4v.7h-3.5c.7.9 1.9 1.3 3.6 1.5-.2.2-.4.5-.6.9-1.9-.3-3.2-1.1-3.8-2.3-.5 1.1-1.8 2-3.9 2.4-.2-.3-.4-.5-.6-.8 1.9-.4 3.1-.9 3.6-1.7h-3.2v-.7h3.5c.1-.2.1-.5.2-.8h-3.3v-.7h3.4c0-.2 0-.5 0-.8h-2.4v.3h-.8v-2.6h3.3v-.9h-1.2v.3h-.8v-1.8h-1.8v-.7h1.8v-.9h.8v.9h3.2zm-4.4 5.5h2.4c0-.3 0-.6 0-.9h-2.4zm1.2-3.1h3.2v-.8h-3.2zm4.4 2.2h-2.4v.9h2.5v-.9z"/><path d="m389.2 385.8h.9v1.5h1.9v-1.5h.9v1.5h2.7v6h1.1v.9h-11.3v-.9h1.1v-6h2.7zm.2 8.7.5.8c-1.2.6-2.5 1.3-4 1.9-.2-.3-.3-.6-.6-.8 1.6-.6 3-1.3 4.1-1.9zm-2-4.3h1.9v-2.1h-1.9zm0 3.1h1.9v-2.2h-1.9zm2.7-3.1h1.9v-2.1h-1.9zm0 3.1h1.9v-2.2h-1.9zm2.4 1.3c1.4.6 2.7 1.2 4.1 1.8l-.5.9c-1.5-.7-2.8-1.4-4.1-1.9zm2.2-6.5h-1.9v2.1h1.9zm-1.9 5.2h1.9v-2.2h-1.9z"/></g></svg>