<svg enable-background="new 0 0 400 400" viewBox="0 0 400 400" xmlns="http://www.w3.org/2000/svg"><path d="m374.8 390.4.4-.4c.7.5 1.3 1 1.8 1.4l-.5.5c-.5-.6-1.1-1.1-1.7-1.5zm1 7.3-.6-.3c.5-1.4 1.1-2.8 1.5-4.3.2.1.4.2.6.3-.5 1.3-1 2.8-1.5 4.3zm-.4-10.3.4-.4c.4.3 1 .8 1.7 1.4l-.5.5c-.4-.5-1-1-1.6-1.5zm2.5.3h1.7v-1h.6v1h3.5v-1h.6v1h1.8v.5h-1.8v1.4h-2v1h3.2v2h-3.2v.9h3.3v.5h-3.4c0 .3-.1.6-.1.9h4v.5h-3.7c.7.9 1.9 1.5 3.8 1.7-.1.2-.2.4-.3.6-2.1-.4-3.5-1.1-4-2.1-.4 1-1.8 1.7-4 2.2-.1-.2-.2-.4-.3-.6 2.1-.4 3.4-1 3.8-1.8h-3.4v-.5h3.6c.1-.3.1-.6.2-.9h-3.3v-.5h3.4c0-.3 0-.6 0-.9h-3.2v-2h3.3v-1h-2.1v-1.4h-1.7v-.5zm1.1 3.5v1h2.7c0-.3 0-.4 0-.4 0-.1 0-.2 0-.2 0-.1 0-.2 0-.3h-2.7zm1.2-3v.9h3.5v-.9zm4.7 3h-2.6v.6.4h2.6z" fill="#fbfcfa"/><path d="m393.6 386.7h.6v1.5h2.7v6.1h1.1v.6h-11v-.6h1.1v-6.1h2.7v-1.5h.6v1.5h2.1v-1.5zm-2.7 8.8.4.6c-1.2.6-2.5 1.3-3.8 1.9-.1-.2-.2-.4-.3-.6 1.2-.6 2.5-1.2 3.7-1.9zm-2.2-6.7v2.4h2.1v-2.4zm0 3v2.5h2.1v-2.5zm2.8-3v2.4h2.1v-2.4zm0 3v2.5h2.1v-2.5zm6 6.1c-1.4-.7-2.7-1.3-3.9-1.8l.3-.6c1.5.6 2.7 1.2 3.9 1.7zm-1.2-9.1h-2.1v2.4h2.1zm-2.1 3v2.5h2.1v-2.5z" fill="#fbfcfa"/><g fill="#010106"><path d="m263.58 191.45c9.16-.19 13.09 2.64 15.78 10.79 2.52 7.62 5.72 14.83 12.89 19.38.94.59 1.69 1.48 2.6 2.12 11.35 8.05 20.05 18.33 26.21 30.79.54 1.1 1.32 2.08 1.9 3.16 6.96 13.18 15.6 24.96 27.74 33.94 3.7 2.74 5.73 6.58 4.94 11.42-1.26 7.67-6.62 11.4-14.82 9.84-6.6-1.26-12.32-3.67-17.28-9.08-9.28-10.12-19.64-19.25-29.64-28.69-2-1.89-4.43-3.34-6.88-5.15-3.74 7.48-7.31 14.56-10.8 21.67-.37.76-.54 1.76-.42 2.59 2.5 18.06-5.63 32.58-15.64 46.35-6.18 8.5-12.66 16.8-19.28 24.97-5 6.16-12.23 8.65-19.72 9.76-14.07 2.1-28.1 1.57-41.93-2.11-5.38-1.43-9.84-4.34-14.32-7.68-9.43-7.02-16.11-15.8-20.42-26.68-2.26-5.7-4.97-11.27-8.05-16.57-3.68-6.33-4.95-13.03-5.01-20.18-.03-4.02.09-8.16-.84-12.01-.68-2.82-2.52-5.69-4.6-7.77-2.09-2.09-4.76-2.59-7.5.27-3.74 3.9-8.95 5.26-14.07 6.63-3.85 1.03-7.93 1.89-11.29 3.87-12.18 7.19-25.1 8.06-38.59 5.62-3.63-.66-7.28-1.18-10.92-1.81-4.44-.77-7.32-5.52-6-9.83 2.88-9.4 2.87-9.48 12.77-10.24 18.75-1.45 36.46-6 52.83-15.75 11.86-7.06 18.64-17.28 22.2-30.21 1.24-4.5 2.78-8.96 4.63-13.24 1.63-3.79 4.49-6.78 8.47-8.16 1.12-.39 3.09.07 3.96.89 1.92 1.83 3.72 3.96 4.92 6.31.89 1.73.86 3.97 1.03 6.01.17 1.99-.34 4.12.17 5.98 3.65 13.22 4.72 26.78 6.28 40.34 1.63 14.16 5.05 28.12 7.76 42.15 1.02 5.27 2.41 10.46 3.35 15.74 2.35 13.24 10.4 21.38 22.67 25.86 9.65 3.52 19.48 5.23 29.53 1.97 2.44-.79 4.83-2.32 6.73-4.07 5.35-4.93 10.51-10.07 15.55-15.31 1.21-1.25 2.13-3.17 2.36-4.89.4-2.99 1.04-5.66 3.36-7.75 2.92-2.64 4.32-6.08 5.42-9.8 3.93-13.29 8.06-26.51 12.02-39.79.56-1.89.85-3.94.83-5.92-.24-23.83-.56-47.66-.86-71.5-.04-1.42-.02-2.83-.02-4.23z"/><path d="m54.62 148.04c20.69-.25 39.2-6.54 57.08-15.15 2.11-1.02 4.21-2.12 6.16-3.4 12.58-8.25 26.31-14.13 40.12-19.92 8.61-3.61 15.15-9.76 19.74-17.96 2.13-3.8 4.27-7.62 6.75-11.2 2.02-2.9 2.53-5.82 1.76-9.16-.9-3.89-.61-7.68.55-11.54 2.94-9.72 5.17-19.69 10.65-28.46 4.04-6.47 6.47-7.36 12.87-3.11 7.26 4.82 12.13 11.43 12.53 20.62.2 4.69-.05 9.52 1 14.04 1.18 5.13 2.81 10.47 5.57 14.88 14.44 23.08 31.23 44.12 56.3 56.49 11.09 5.48 22.8 9.75 34.34 14.27 9.86 3.87 19.87 7.38 29.86 10.92 4.97 1.76 8.28 5.72 8.5 10.9.03.8-.32 1.74-.8 2.4-5.92 8.31-7.6 8.84-17.43 5.56-29.14-9.73-58.28-19.45-87.41-29.23-1.88-.63-3.65-1.65-5.39-2.63-15.96-9.05-28.94-21.65-41.46-34.8-1.49-1.57-3.55-4.12-5-3.9-3.49.51-7.2 1.8-10.06 3.84-7.63 5.45-14.49 12.01-22.31 17.14-21.84 14.35-46 23.38-71.52 28.46-11.46 2.28-23.26 2.83-34.9 4.2-1.99.23-3.02-.47-3.62-2.45-1.07-3.47-2.45-6.88-3.88-10.81z"/></g></svg>