<svg enable-background="new 0 0 400 400" viewBox="0 0 400 400" xmlns="http://www.w3.org/2000/svg"><path d="m361.2 9.6.8-1c.9.7 1.9 1.4 2.9 2.3l-.9 1.1c-1-1-2-1.8-2.8-2.4zm.5 10.6c.9-2.1 1.6-4.3 2.3-6.7.4.2.8.4 1.3.6-.7 2.1-1.5 4.3-2.2 6.6zm.4-15.2.9-.9c1 .8 2 1.6 2.8 2.4l-1 1c-.9-.9-1.8-1.7-2.7-2.5zm12.5-1.2h1.2v1.4h2.7v1.1h-2.7v2.7h-1.2v-.6h-1.8v1.3h4.9v3.8h-1.2v-.5h-3.7c0 .4-.1.9-.1 1.2h5.1v1h-5.2c0 .5-.1.9-.2 1.2h6v1h-5.2c1.1 1.3 2.9 2 5.5 2.2-.4.4-.7.8-.9 1.3-2.9-.5-4.8-1.6-5.7-3.5h-.1c-.8 1.7-2.7 2.9-5.9 3.6-.2-.4-.6-.8-.9-1.1 2.8-.6 4.6-1.4 5.4-2.5h-4.8v-1h5.3c.1-.3.2-.7.2-1.2h-4.9v-1h5c0-.4 0-.8.1-1.2h-3.5v.5h-1.2v-3.8h4.9v-1.3h-1.8v.5h-1.2v-2.7h-2.7v-1h2.6v-1.4h1.2v1.4h4.7v-1.4zm-6.6 8.3h3.6c0-.4 0-.9 0-1.4h-3.6zm1.9-4.6h4.7v-1.3h-4.7zm6.6 3.2h-3.7v1.4h3.7z" fill="#fbfcfa"/><path d="m385.3 3.8h1.3v2.2h2.8v-2.2h1.3v2.2h4.1v9.1h1.7v1.3h-16.9v-1.3h1.7v-9.1h4.1v-2.2zm.4 13.1.7 1.2c-1.8.9-3.8 1.9-6 2.9-.2-.4-.5-.8-.8-1.3 2.3-1 4.3-1.9 6.1-2.8zm-3.1-6.4h2.8v-3.2h-2.8zm0 4.6h2.8v-3.3h-2.8zm4-4.6h2.8v-3.2h-2.8zm0 4.6h2.8v-3.3h-2.8zm3.7 1.9c2.1.9 4.1 1.8 6.1 2.7l-.7 1.3c-2.2-1.1-4.2-2-6.1-2.9zm3.2-9.7h-2.8v3.2h2.8zm-2.8 7.8h2.8v-3.3h-2.8z" fill="#fbfcfa"/><g fill="#010105"><path d="m310.49 374.48c-4.23 1.01-7.03-.09-9.81-3.37-21.04-24.71-42.24-49.28-63.6-73.7-1.89-2.16-5.17-3.76-8.05-4.3-7.98-1.51-16.08-2.41-24.16-3.37-6.54-.77-12.22-2.71-15.17-9.29-1.1-2.45-1.2-4.4 1.17-6.4 3.33-2.81 6.26-6.08 9.45-9.06 1.37-1.28 1.84-2.48 1.27-4.4-4.88-16.61-9.39-33.34-14.58-49.85-2.09-6.65-5.43-12.93-8.55-19.21-.86-1.72-2.78-3.18-4.55-4.12-2.23-1.18-4.2-.74-5.92 1.77-14.73 21.5-29.7 42.84-44.38 64.37-3 4.4-4.85 9.57-7.71 14.08-2.31 3.64-5.28 6.87-8.08 10.18-.71.84-1.88 1.28-3.69 2.45.73-1.89 1.04-2.8 1.42-3.68 2.87-6.55 5.44-13.26 8.73-19.59 4.56-8.8 9.57-17.38 14.56-25.96 5.55-9.53 9.26-19.78 12.71-30.2 4.56-13.77 9.7-27.35 14.49-41.05 2.21-6.31 4.4-12.64 6.2-19.08 1.71-6.13 4.65-11.31 9.8-15.48.58.86 1.17 1.61 1.65 2.43 7.84 13.16 15.95 26.17 23.34 39.57 2.22 4.03 2.34 9.2 3.59 13.81.69 2.54 1.26 5.3 2.69 7.41 3.14 4.64 8.57 4.57 12.08.18 6.28-7.85 8.55-17.31 10.69-26.83 2.78-12.31 2.64-24.65.34-36.97-.58-3.13-.11-5.25 3.58-6.22.6.67 1.43 1.52 2.18 2.43 11.45 13.75 22.86 27.54 34.34 41.26 7.89 9.43 16.29 18.45 23.68 28.25 5.97 7.92 10.94 16.62 15.99 25.19 1.52 2.58 1.85 5.87 2.6 8.87.45 1.8-.66 2.91-2.28 2.87-.98-.02-2.25-.8-2.86-1.63-5.45-7.35-10.2-15.31-16.28-22.08-11.06-12.3-22.83-23.96-34.48-35.73-1.52-1.54-3.95-2.42-6.12-2.98-2.01-.52-3.69.42-4.84 2.56-7.97 14.88-16.17 29.63-24.01 44.57-1.14 2.17-1.51 5.35-.89 7.72 2.56 9.82 5.28 19.63 8.78 29.14.83 2.26 4.78 4.38 7.52 4.71 5.57.68 11.3.25 16.94-.03 5-.24 9.77.03 14.42 3.24-2.62 2.41-5.04 4.67-7.49 6.9-2.23 2.03-4.67 3.87-6.71 6.07-4.03 4.35-4.02 6.69-1.22 11.89 13.5 25.1 30.61 47.82 46.88 71.09 2.34 3.35 5.64 6.04 8.56 8.97 3.44 3.47 5.63 7.46 5.78 12.6z"/><path d="m84.58 241.41c0-3.82-.44-7.71.07-11.46 3.8-27.89 14.42-53.66 25.51-79.19 3.17-7.31 7.66-14.29 12.69-20.49 13.16-16.24 22.13-34.52 28.71-54.18 5.28-15.78 10.76-31.49 16.16-47.23.43-1.25.87-2.49 1.31-3.74.35-.14.71-.28 1.06-.42.97 1.65 2.12 3.22 2.86 4.96 1.46 3.45 2.83 6.95 3.96 10.52.93 2.95 1.32 6.06 2.2 9.03 1.61 5.42 2.85 11.05 5.29 16.08 2.05 4.22 6.07 6.53 11.33 6.22 29.45-1.77 57.86 3.62 85.8 12.44 11.6 3.66 18.46 12.64 25.07 21.74 1.89 2.61 1.95 6.75 2.26 10.24.25 2.87-2.93 4.28-5.29 2.43-15.84-12.38-34.64-17.72-53.57-22.84-11.98-3.24-24.07-3.21-36.27-1.82-4.78.55-9.59.76-14.38 1.22-4.16.4-8.2.58-12.13 2.9-2.78 1.64-6.64 1.94-10.03 1.97-8.83.08-16.25 2.98-21.76 9.94-10.47 13.24-21.21 26.3-30.97 40.05-3.91 5.5-5.67 12.58-8.19 19.02-8.13 20.8-16.09 41.67-24.31 62.44-1.48 3.73-3.91 7.08-5.9 10.61-.49-.15-.99-.3-1.48-.44z"/></g></svg>