<svg enable-background="new 0 0 400 400" viewBox="0 0 400 400" xmlns="http://www.w3.org/2000/svg"><path d="m371.84 342.12c-.47 2.74-.78 5.4-1.47 7.96-.23.87-1.31 1.73-2.21 2.19-5.71 2.91-11.89 2.88-18.05 2.52-13.62-.8-27.29-1.18-40.83-2.68-24.13-2.68-48.01-7.03-71.24-14.24-4.63-1.44-8.78-4.39-13.17-6.59-21.84-10.96-41.5-25.11-59.88-41.07-7.78-6.76-14.55-14.44-19.07-23.99-3.82-8.07-8.31-15.84-12.65-23.66-4.29-7.73-8.32-15.5-10.65-24.13-.71-2.64-2.6-5.15-4.49-7.24-1.82-2.01-3.96-2.09-6.32.19-15.63 15.09-33.04 27.8-52.23 37.96-6.79 3.6-14.04 6.32-21.1 9.4-.7.31-1.55.65-2.24.51-4.7-.93-9.38-1.99-13.92-2.98-1.04-3.61.06-5.68 3.1-7.64 24.76-15.97 45.7-36.26 65.06-58.28.73-.83 1.31-1.82 1.8-2.81 2.18-4.41 4.28-8.86 6.46-13.26 4.57-9.2 4.58-9.19 1.82-19.15 5.79.33 11.48-1.77 16.63 3.25 5.67 5.53 12 10.42 18.33 15.23 3.48 2.64 5.12 5.97 6.1 9.99 1.57 6.47.97 12.88-.15 19.31-1.85 10.64 3.44 17.9 11.27 24.13 5-4.98 10.02-9.6 14.6-14.62 10.48-11.49 21.15-22.85 29.36-36.18 4.96-8.05 9.2-16.52 10.66-25.88.68-4.35-.52-9.02-.99-13.53-.25-2.44-.77-4.85-1.24-7.68 5.14-.26 9.82.93 14 3.15 6.49 3.45 13.01 7.07 18.82 11.52 3.3 2.53 5.49 6.7 7.71 10.41 2.62 4.38 6.16 7.34 10.63 9.76 19.86 10.76 39.63 21.69 59.34 32.71 7.5 4.19 15.08 8.35 22.05 13.31 4.06 2.89 7.52 7 10.28 11.21 2.71 4.13 1.1 6.81-3.94 7.23-2.5.21-5.37-.51-7.65-1.65-28.19-14.09-56.31-28.32-84.44-42.55-3.19-1.61-6.23-3.52-9.43-5.11-1.68-.83-3.52-1.54-5.35-1.82-3.24-.5-5.82.29-8.01 3.36-13.09 18.38-29.37 33.78-46.78 47.9-4.42 3.59-10.88 5.02-16.64 6.53-8.85 2.31-11.47 9.12-5.58 16.19 6.87 8.26 13.56 16.7 20.84 24.59 3.82 4.14 8.6 7.47 13.2 10.83 25.39 18.52 53 32.55 83.82 39.29 15.15 3.31 30.65 5.01 46 7.41 15.33 2.4 30.97 3.05 45.85 8.02.62.17 1.22.4 1.99.68z" fill="#010104"/><path d="m37.07 177.65c-2.41-4.34-2.36-7.57 1.07-11.53 21.6-24.98 42.96-50.17 64.13-75.53 3.45-4.13 5.29-9.57 8.31-14.12 5.18-7.82 7.91-16.14 6.64-25.58-.1-.74.1-1.53.17-2.29 6.53-1.95 12.67-3.1 18.91 1.21 6.62 4.56 13.69 8.49 20.69 12.46 5.59 3.17 9.81 7.34 11.34 13.75.92 3.85 3.3 5.36 7.15 6.19 27.66 5.99 55.02 13.13 81.48 23.34 3.02 1.17 6.15 2.16 8.99 3.7 17.03 9.22 35.71 14.07 53.74 20.67 12.16 4.45 24.1 9.53 35.9 14.87 7.14 3.23 13.26 8.01 15.29 16.32.08.31.08.65.14 1.19-8.39 2.75-16.87 2.49-25.02-.17-10.61-3.46-20.89-7.89-31.39-11.67-30.6-11.01-61.17-22.1-91.92-32.65-5.21-1.79-11.29-.97-16.96-1.5-1.73-.16-3.55-.53-5.1-1.26-12.34-5.82-24.72-11.54-36.86-17.74-4.81-2.45-9.26-2.3-13.79-.3-3.56 1.57-6.72 4.03-10.27 5.62-8.97 4.01-16.56 9.61-22.54 17.5-1.65 2.17-4.1 3.83-6.43 5.35-10.99 7.16-20.29 16.13-28.35 26.41-2.98 3.8-6.66 6.42-10.97 8.52-11.45 5.57-22.78 11.41-34.35 17.24z" fill="#010104"/><g fill="#fcfbfa"><path d="m385.2 377.6.6-.7c.6.4 1.3.9 1.9 1.5l-.6.7c-.8-.5-1.4-1-1.9-1.5zm.3 7.1c.6-1.4 1.1-2.9 1.5-4.5.3.1.6.3.9.4-.5 1.4-1 2.9-1.5 4.4zm.2-10.1.6-.6c.7.5 1.3 1.1 1.9 1.6l-.7.7c-.6-.6-1.2-1.2-1.8-1.7zm8.4-.8h.8v.9h1.8v.7h-1.8v1.8h-.8v-.3h-1.2v.9h3.3v2.6h-.8v-.4h-2.5c0 .3 0 .6-.1.8h3.4v.7h-3.5c0 .3-.1.6-.1.8h4v.7h-3.5c.7.9 1.9 1.3 3.6 1.5-.2.2-.4.5-.6.9-1.9-.3-3.2-1.1-3.8-2.3-.5 1.1-1.8 2-3.9 2.4-.2-.3-.4-.5-.6-.8 1.9-.4 3.1-.9 3.6-1.7h-3.2v-.7h3.5c.1-.2.1-.5.2-.8h-3.3v-.7h3.4c0-.2 0-.5 0-.8h-2.4v.3h-.8v-2.6h3.3v-.9h-1.2v.3h-.8v-1.8h-1.8v-.7h1.8v-.9h.8v.9h3.2zm-4.4 5.5h2.4c0-.3 0-.6 0-.9h-2.4zm1.2-3.1h3.2v-.8h-3.2zm4.4 2.2h-2.4v.9h2.5v-.9z"/><path d="m389.2 385.8h.9v1.5h1.9v-1.5h.9v1.5h2.7v6h1.1v.9h-11.3v-.9h1.1v-6h2.7zm.2 8.7.5.8c-1.2.6-2.5 1.3-4 1.9-.2-.3-.3-.6-.6-.8 1.6-.6 3-1.3 4.1-1.9zm-2-4.3h1.9v-2.1h-1.9zm0 3.1h1.9v-2.2h-1.9zm2.7-3.1h1.9v-2.1h-1.9zm0 3.1h1.9v-2.2h-1.9zm2.4 1.3c1.4.6 2.7 1.2 4.1 1.8l-.5.9c-1.5-.7-2.8-1.4-4.1-1.9zm2.2-6.5h-1.9v2.1h1.9zm-1.9 5.2h1.9v-2.2h-1.9z"/></g></svg>