<svg enable-background="new 0 0 400 400" viewBox="0 0 400 400" xmlns="http://www.w3.org/2000/svg"><g fill="#010105"><path d="m281.82 308.84c-8.43-6.3-16.83-12.79-25.51-18.89-2.06-1.45-5.03-1.78-7.65-2.24-4.29-.75-7.99-2.54-11.57-4.98-8.78-5.98-17.71-11.76-26.58-17.61-.92-.61-1.88-1.14-3.45-2.09-1.77 6.18-3.5 12.05-5.14 17.93-1.25 4.49-3.2 8.35-8.03 9.97-1.98.66-3.29.28-4.42-1.62-3.55-5.99-5.3-12.56-6.24-19.35-1.95-14.07-3.72-28.17-5.53-42.25-.74-5.77-3.65-8.03-9.92-6.97-4.83.82-9.67 1.89-14.33 3.41-13.8 4.5-27.7 8.74-40.72 15.41-2.28 1.17-5.48 1.1-8.18.82-12.94-1.33-24.41-7.01-35.78-12.8-1.25-.64-1.76-3.14-2.19-4.88-1.44-5.86-.2-7.85 5.89-9.2 23.66-5.26 47.3-10.58 71.02-15.56 6.43-1.35 13.11-1.39 19.63-2.37 9.01-1.35 10.67-4.02 8.69-13-.24-1.09-.66-2.16-.77-3.26-.69-7.2-6.04-10.17-11.67-12.82-.76-.36-1.94-.17-2.82.1-3.42 1.05-6.87 2.05-10.18 3.39-14.29 5.78-29.56 6.84-44.51 9.4-8.05 1.38-16.21 2.18-24.17 3.94-7.31 1.62-13.89.38-19.82-3.65-9.89-6.72-19.6-13.73-29.16-20.9-4.29-3.22-6.21-8.05-6.86-13.38-.21-1.77.28-2.98 2.05-3.12 2.6-.21 5.82-1.16 7.74-.03 9.82 5.79 20.75 5.81 31.48 7.01 7.12.8 14.23 1.68 21.36 2.25 4.78.38 9.61.4 14.41.33 3.19-.05 4.81-1.87 5.63-5.73-7.62-3.87-15.31-7.71-22.93-11.68-1.86-.97-3.63-2.2-5.2-3.59-12.99-11.49-25.89-23.09-38.91-34.57-3.69-3.25-5.69-7.01-5.3-12.03.16-2.06 1.21-3.22 2.99-3.4 2.39-.24 4.98-.56 7.21.09 4.57 1.34 8.91 3.18 12.78 6.34 7.07 5.74 15.79 8.31 24.17 11.44 2.6.97 5.27 1.78 8.08 2.72 5.96-9 10.09-18.71 13.13-28.93 2.32-7.81 3.49-15.72 2.06-23.84-.18-1.04-.61-2.13-1.2-3-3.8-5.55-2.31-11.53 3.75-14.46.6-.29 1.56-.36 2.14-.08 12.1 5.76 24.16 11.58 36.23 17.4.3.14.56.36.84.55 9.66 6.65 11.24 12.38 6.7 23.22-1.93 4.6-4.38 8.44-9.42 10.12-5.45 1.82-9.02 5.71-11.96 10.59-3.92 6.51-8.36 12.7-12.58 19.04-2.43 3.65-2.34 9.06.75 12.13 4.67 4.65 9.53 9.13 14.56 13.39 5.74 4.87 12.34 5.94 19.49 3.4 8.73-3.11 17.56-5.95 25.08-11.71 4.2-3.22 9.28-2.91 14.2-2.49.72.06 1.66 1.36 1.94 2.26 1.85 5.97.16 11.06-4.34 15.19-5.93 5.44-11.97 10.74-18.17 16.29.83.73 1.43 1.35 2.12 1.84 9.42 6.83 18.82 13.7 28.34 20.39 1.31.92 3.32 1.47 4.89 1.28 10.44-1.23 20.84-2.82 31.28-4.03 3.39-.39 6.98-.53 10.27.16 7.4 1.55 14.73.81 22.01-.19 6.37-.87 12.46-.34 18.53 1.51 13.04 3.96 26.23 7.5 39.06 12.05 10.29 3.65 15.23 12.03 15.91 22.76.24 3.76-.41 7.58-.46 11.37-.05 3.38-2.14 5.35-4.87 6.04-2.83.72-5.07-1.17-6.63-3.59-2.36-3.67-4.8-7.29-7.03-11.04-5.28-8.85-12.62-13.79-23.26-14.73-28.3-2.51-56.04-1.05-83.08 8.55-5.03 1.79-6.62 5.66-8.21 9.75-1 2.56-1.43 5.41-1.75 8.17-.81 7.08-1.41 14.19-2.15 21.82 23.7 3.8 46.74 9.91 68.27 20.66 4.52-4.9 5.89-10.59 7.29-16.19 1.13-4.55 1.8-9.21 2.59-13.84 1.05-6.19-.51-11.97-2.9-17.63-1.28-3.03-1.89-6.19.98-8.62 1-.85 2.89-1.42 4.1-1.1 5.94 1.57 12.24 2.65 17.52 5.54 4.39 2.41 7.79 6.87 11.17 10.82 3.52 4.11 6.34 8.78 5.61 14.61-.77 6.09-2.59 11.61-7.19 16.16-4.36 4.31-8.34 9.06-12.15 13.88-4.31 5.46-5.79 11.81-4.24 18.66.34 1.52 1.14 3.21 2.26 4.23 2.73 2.46 5.67 4.73 8.73 6.76 3.37 2.25 6.97 2.51 10.83.75 8.42-3.84 17.06-7.05 24.57-12.82 6.68-5.13 14.44-8.43 22.87-9.99 2.84-.53 4.68.27 5.19 2.99.52 2.79 1.41 5.97.57 8.46-2.08 6.17-5.39 11.69-11.23 15.37-11.08 6.96-22.02 14.15-33.06 21.17-1.37.87-2.97 1.66-4.55 1.91-14.8 2.33-29.63 4.44-44.43 6.79-15.55 2.47-30.76 1.37-45.64-3.83-1.03-.36-2.06-.85-2.94-1.49-7.31-5.31-14.71-10.53-21.83-16.08-3.66-2.85-7.28-5.99-10.03-9.67-1.57-2.11-2.74-6.43-1.63-8.19 1.76-2.77 5.81-2.09 8.97-.93 9.54 3.51 19.09 7.01 28.58 10.67 12.59 4.85 25.65 5.78 38.93 4.95 5.2-.39 7.42-2.35 9.03-7.76z"/><path d="m270.2 39.56c3.8.25 7.7.07 11.41.83 6.89 1.42 13.65 3.44 20.49 5.11 9.47 2.31 13.43 9.72 16.54 17.85.27.72-.76 2.11-1.45 2.99-5.9 7.57-12.05 14.95-17.71 22.69-2.1 2.88-3.09 6.58-4.73 10.25 9.49 2.63 18.46 4.94 27.32 7.62 8.4 2.55 16.92 3.99 25.69 4.18 5.14.11 6.6 1.91 6 6.89-.41 3.48 1.06 5.73 4.33 6.51 2.45.59 5.04.84 7.56.83 3.16-.01 3.91.67 2.91 3.74-.95 2.9-2.36 5.37-5.19 7.09-33.04 20.16-68.47 28.86-107.17 23.4-6.41-.9-13.13.51-19.71.55-4.77.03-9.55-.39-14.32-.78-.84-.07-1.82-.81-2.37-1.53-5.3-6.93-10.62-13.85-15.74-20.91-3.69-5.09-5.25-11.02-6.12-17.2-.38-2.68.76-3.6 3.07-4.11 3.77-.83 6.84.77 9.65 2.83 6.61 4.83 13.37 9.28 21.2 12.02 12.53 4.37 25.53 5.58 38.63 5.87 15.12.34 30.2-.35 45.01-3.84 1.4-.33 2.71-1.1 4.06-1.66-.05-.34-.11-.67-.16-1.01-5.02-.55-10.03-1.37-15.06-1.58-14.95-.62-28.65-5.55-42.04-11.69-12.71-5.82-25.41-11.65-36.88-19.78-2.47-1.75-4.13-3.84-4.9-6.88-.44-1.71-1.68-3.36-2.94-4.68-4.03-4.19-8.36-8.09-12.33-12.34-3.46-3.71-4.82-8.39-5.37-13.98 4.52 1.08 8.6 2.04 12.66 3.06.48.12.86.64 1.27 1 3.39 2.89 6.49 6.23 10.22 8.58 12.43 7.85 25.69 14.03 39.83 18.17 4.95 1.45 4.98 1.31 7.44-3.26 4.99-9.26 7.26-19.2 7.15-29.66-.01-1.42-1-3.01-1.93-4.21-1.16-1.48-2.75-2.61-4.13-3.92-2.31-2.16-3.24-4.76-2.19-9.04z"/><path d="m113.23 332.2c-3.17-.54-6.39-.95-9.53-1.66-4.03-.91-5.37-2.75-5.4-6.83 0-.78-.14-1.6.02-2.35 1.39-6.52-1.77-10.54-7.17-13.47-10.31-5.6-20.55-11.31-30.87-16.88-5.95-3.21-11.83-6.61-15.77-12.22-2.16-3.08-3.36-6.83-5.22-10.77 9.1-2.2 17.04-1.82 24.72 1.05 9.2 3.45 18.26 7.3 27.34 11.09 1.04.43 1.91 1.46 2.67 2.36 4.3 5.1 8.99 9.66 15.49 11.91 1.86.64 2.96.42 3.97-1.54 4.97-9.64 10.53-19 14.96-28.87 1.52-3.4.82-8.04.36-12.02-.68-5.95.02-8.58 4.47-10.58 1.12-.5 2.95-.57 3.96.02 7.34 4.27 14.68 8.56 21.76 13.24 6.07 4.01 7.87 9.17 5.54 16.02-1.31 3.84-3.22 7.68-5.69 10.88-7.8 10.1-15.98 19.89-24.02 29.8-2.53 3.12-2.74 7.81.31 10.33 3.49 2.88 7.39 5.41 11.46 7.4 3.79 1.85 7.83 1.1 11.61-.93 6.7-3.6 13.41-7.17 20.21-10.58 5.02-2.51 10.39-3.44 15.97-2.37 3.68.71 5.17 2.84 4.6 6.51-.6 3.83-2.04 7.14-5.12 9.85-15.98 14.04-34.84 22.49-54.97 28.46-9.79 2.9-19.84 4.16-30.04 4.94-11.02.85-21.98 2.65-32.93 4.27-4.75.71-9.21.85-13.54-1.7-2.2-1.29-4.63-2.27-7.07-3.05-8-2.55-14.49-7.51-20.4-13.15-2.48-2.37-4.3-5.66-5.7-8.84-1.57-3.58-.82-4.86 3-5.13 4.75-.33 9.6-.27 14.31.33 5.75.72 11.42 2.17 17.12 3.3 7.51 1.5 14.93 2.01 22.62.56 6.54-1.23 13.32-1.18 19.99-1.68 5.15-.39 7.2-2.62 6.98-7.7z"/></g><path d="m377.9 391.2c-.2.3-.4.5-.6.8-.7-.6-1.4-1-2.2-1.5.2-.3.4-.5.5-.8.6.4 1.4.8 2.3 1.5zm-1.8 6.1c-.2-.2-.5-.4-.9-.6.4-.6.8-1.2 1.2-1.9s.7-1.3.9-1.9c.3.3.5.5.8.7-.7 1.3-1.4 2.6-2 3.7zm2.2-9c-.3.3-.5.5-.6.8-.6-.6-1.3-1.1-2-1.5.3-.3.5-.5.6-.7.6.5 1.3.9 2 1.4zm.3.2v-.9h2 4.5c-.3 1.3-.6 2.5-1 3.6s-.9 2.1-1.4 3c.4.5 1 1 1.6 1.4s1.2.8 1.9 1.1c-.3.2-.5.4-.8.8-.4-.3-1-.7-1.6-1.2s-1.2-1.1-1.6-1.6c-.5.6-1.1 1.1-1.7 1.6s-1.4.9-2.1 1.4c-.1-.3-.3-.5-.7-.8.6-.2 1.2-.5 1.9-1s1.4-1.1 2-1.8c-.5-.8-.9-1.6-1.2-2.5s-.6-2-.8-3.2c-.4.1-.7.1-1 .1zm2.5 2.7c.3 1 .7 1.7 1 2.2.3-.5.6-1.1 1-2s.6-1.9.9-3h-3.2-.4c.1.9.3 1.8.7 2.8z" fill="#fcfbfa"/><path d="m396.5 388.5v1.5 3.6h1.5v.9c-.4 0-1 0-1.7 0h-7.9c-.5 0-.9 0-1.2 0v-.9h1.3v-3.5c0-.7 0-1.2 0-1.6h2.4c0-.8 0-1.4 0-1.7h1c0 .3-.1.8-.1 1.7h1.5c0-.8 0-1.4 0-1.7h1c0 .3-.1.9-.1 1.7zm-8.2 9.2c-.2-.3-.5-.5-.8-.8.8-.3 1.4-.6 1.9-.9s1-.7 1.4-1.1c.3.3.6.5.9.8-1.6 1-2.8 1.6-3.4 2zm2.6-6.8v-1.6h-1.5v1.6zm0 2.7v-1.9h-1.5v1.9zm2.4-2.7v-1.6h-1.5v1.6zm0 2.7v-1.9h-1.5v1.9zm.2 2 .7-.8c.4.2.9.5 1.6.8s1.3.7 1.8 1c-.3.3-.5.5-.8.8-.4-.3-1.5-1-3.3-1.8zm2-4.7v-1.6h-1.4v1.6zm0 2.7v-1.9h-1.4v1.9z" fill="#fcfbfa"/></svg>