<svg enable-background="new 0 0 400 400" viewBox="0 0 400 400" xmlns="http://www.w3.org/2000/svg"><path d="m188.7 201.69c-8.46.51-16.96.7-25.38 1.64-5.47.62-10.4-.41-15.28-2.5-9.7-4.16-18.82-9.34-27.11-15.9-9.57-7.58-15.62-17.46-18.41-29.24-1.5-6.32-.41-12.65 1.19-18.89 1.76-6.9 3.26-13.86 4.98-20.77.31-1.25 1.01-2.46 1.75-3.53 8.26-11.97 16.47-23.98 24.9-35.82 4.48-6.3 7.26-13.25 9.61-20.53 1.8-5.59 4.19-11.03 6.64-16.38 1.33-2.9 3.61-4.67 7.29-3.5 3.24 1.03 5.98.14 8.3-2.59 2.02-2.37 4.6-4.26 6.74-6.54 1.43-1.53 2.86-1.78 4.78-1.2 10.43 3.17 21.02 5.2 32.02 4.39 1.32-.1 2.85.48 4.05 1.16 9.16 5.15 18.33 10.29 27.35 15.67 5.99 3.58 9.58 9.37 12.26 15.56 5.2 12.01 5.44 24.53 2.85 37.18-.26 1.27-1.02 2.46-1.7 3.6-7.28 12.19-14.8 24.25-21.81 36.6-3.29 5.79-5.48 12.2-8.41 18.2-1.14 2.33-2.7 4.57-4.51 6.43-2.88 2.96-6.14 5.56-9.21 8.33-4.05 3.65-4.87 7.7-2.61 12.67 1.42 3.1 3.78 4.15 6.78 2.57 3.15-1.66 6.09-3.72 9.14-5.58 8.36-5.12 15.53-11.55 22.11-18.84 13.2-14.62 27-28.69 40.08-43.42 4.31-4.86 7.23-10.98 10.62-16.62 2.55-4.24 5.66-7.77 10.39-9.58 4.29-1.64 6.04-1.11 6.48 3.4.59 6.05.42 12.24-.02 18.32-.31 4.2-1.2 8.48-2.63 12.43-1.8 4.99-4.09 9.86-6.72 14.47-8.33 14.61-22.04 24.19-33.76 35.65-17.21 16.81-36.82 30.56-56.06 44.81-2.66 1.97-5.91 3.13-8.74 4.91-3.14 1.97-6.11 4.23-9.62 6.69 5.06 4.37 9.34 8.09 13.64 11.79 7.72 6.65 15.43 13.3 23.16 19.92 3.23 2.76 6.15 6.2 9.85 8.03 8.28 4.07 14.09 10.42 18.95 17.9 1.14 1.75 2.46 2.44 4.63 2.54 2.36.11 4.89.73 6.97 1.82 11.19 5.86 21.08 13.49 29.72 22.71.99 1.06 1.8 2.29 2.72 3.41 1.99 2.43 2.6 4.85.03 7.3-1.75 1.67-1.46 3.24.2 4.84.7.68 1.19 1.58 1.89 2.52-13.97 7.6-27.79 7.77-41.43.04-11.96-6.79-23.72-13.93-35.5-21.03-1.98-1.2-3.69-2.89-5.42-4.47-11.07-10.12-22.03-20.36-33.19-30.38-7.08-6.36-12.82-13.67-17.31-22.05-4.68-8.74-14.76-10.93-22.78-5.03-5.51 4.05-11.94 4.48-18.41 5.28-4.25.53-8.38 2.08-12.52 3.32-3.7 1.11-5.18 4.17-4.81 7.55.57 5.17 1.75 10.3 2.91 15.38.54 2.38 1.68 4.61 2.49 6.93 2.99 8.56 7.41 15.69 14.91 21.56 11.34 8.88 21.96 18.84 29.77 31.19 2.62 4.15 4.22 8.94 6.52 13.95-14.01 4.26-25.3 12.63-39.1 14.6-3.8.54-7.24.58-10.37-2.1-1.68-1.44-3.64-2.63-5.62-3.65-8.02-4.14-13.67-10.46-18.08-18.26-8.54-15.12-16.74-30.32-20.14-47.63-1.5-7.63-1.17-15.05 2.28-21.94 4.39-8.77 9.08-17.44 14.29-25.74 2.12-3.37 6.19-5.45 8.97-8.49 8.18-8.95 18.32-13.8 30.21-15.59 4.84-.73 9.57-2.24 14.34-3.43.97-.24 2.03-.44 2.83-.98 11.77-8.11 23.51-16.27 35.26-24.41-.06-.21-.12-.43-.19-.65zm-36.51-101.87c18.91 3.59 37.35 7.09 55.79 10.58 4.64.88 9.39-1.94 10.68-6.32 7.33-24.92-11.19-50.33-37.18-50.9-1.25-.03-2.74.71-3.73 1.55-6.15 5.18-11.22 11.13-13.16 19.24-.33 1.39-.88 2.86-1.74 3.97-2.34 3.05-4.9 5.92-7.35 8.89-.53.64-1.21 1.33-1.36 2.1-.72 3.5-1.28 7.02-1.95 10.89zm-20.64 26.74c-2.29 7.84-2.85 15.63-1 23.55 1.38 5.89 3.31 12.05 8.58 15.02 7.62 4.28 15.83 7.89 24.2 10.38 8.01 2.38 15.45.03 20.72-7.23 3.62-4.97 7.52-9.73 11.14-14.7.78-1.07 1.31-2.59 1.34-3.92.13-7.43-4.3-11.79-12.35-11.78-8.15.01-16.31.55-24.46.64-1.88.02-4.25-.28-5.56-1.41-6.44-5.58-14.09-8.41-22.61-10.55z" fill="#010000"/><g fill="#fbfcfa"><path d="m361.2 9.6.8-1c.9.7 1.9 1.4 2.9 2.3l-.9 1.1c-1-1-2-1.8-2.8-2.4zm.5 10.6c.9-2.1 1.6-4.3 2.3-6.7.4.2.8.4 1.3.6-.7 2.1-1.5 4.3-2.2 6.6zm.4-15.2.9-.9c1 .8 2 1.6 2.8 2.4l-1 1c-.9-.9-1.8-1.7-2.7-2.5zm12.5-1.2h1.2v1.4h2.7v1.1h-2.7v2.7h-1.2v-.6h-1.8v1.3h4.9v3.8h-1.2v-.5h-3.7c0 .4-.1.9-.1 1.2h5.1v1h-5.2c0 .5-.1.9-.2 1.2h6v1h-5.2c1.1 1.3 2.9 2 5.5 2.2-.4.4-.7.8-.9 1.3-2.9-.5-4.8-1.6-5.7-3.5h-.1c-.8 1.7-2.7 2.9-5.9 3.6-.2-.4-.6-.8-.9-1.1 2.8-.6 4.6-1.4 5.4-2.5h-4.8v-1h5.3c.1-.3.2-.7.2-1.2h-4.9v-1h5c0-.4 0-.8.1-1.2h-3.5v.5h-1.2v-3.8h4.9v-1.3h-1.8v.5h-1.2v-2.7h-2.7v-1h2.6v-1.4h1.2v1.4h4.7v-1.4zm-6.6 8.3h3.6c0-.4 0-.9 0-1.4h-3.6zm1.9-4.6h4.7v-1.3h-4.7zm6.6 3.2h-3.7v1.4h3.7z"/><path d="m385.3 3.8h1.3v2.2h2.8v-2.2h1.3v2.2h4.1v9.1h1.7v1.3h-16.9v-1.3h1.7v-9.1h4.1v-2.2zm.4 13.1.7 1.2c-1.8.9-3.8 1.9-6 2.9-.2-.4-.5-.8-.8-1.3 2.3-1 4.3-1.9 6.1-2.8zm-3.1-6.4h2.8v-3.2h-2.8zm0 4.6h2.8v-3.3h-2.8zm4-4.6h2.8v-3.2h-2.8zm0 4.6h2.8v-3.3h-2.8zm3.7 1.9c2.1.9 4.1 1.8 6.1 2.7l-.7 1.3c-2.2-1.1-4.2-2-6.1-2.9zm3.2-9.7h-2.8v3.2h2.8zm-2.8 7.8h2.8v-3.3h-2.8z"/></g></svg>