<svg enable-background="new 0 0 400 400" viewBox="0 0 400 400" xmlns="http://www.w3.org/2000/svg"><path d="m374.8 390.4.4-.4c.7.5 1.3 1 1.8 1.4l-.5.5c-.5-.6-1.1-1.1-1.7-1.5zm1 7.3-.6-.3c.5-1.4 1.1-2.8 1.5-4.3.2.1.4.2.6.3-.5 1.3-1 2.8-1.5 4.3zm-.4-10.3.4-.4c.4.3 1 .8 1.7 1.4l-.5.5c-.4-.5-1-1-1.6-1.5zm2.5.3h1.7v-1h.6v1h3.5v-1h.6v1h1.8v.5h-1.8v1.4h-2v1h3.2v2h-3.2v.9h3.3v.5h-3.4c0 .3-.1.6-.1.9h4v.5h-3.7c.7.9 1.9 1.5 3.8 1.7-.1.2-.2.4-.3.6-2.1-.4-3.5-1.1-4-2.1-.4 1-1.8 1.7-4 2.2-.1-.2-.2-.4-.3-.6 2.1-.4 3.4-1 3.8-1.8h-3.4v-.5h3.6c.1-.3.1-.6.2-.9h-3.3v-.5h3.4c0-.3 0-.6 0-.9h-3.2v-2h3.3v-1h-2.1v-1.4h-1.7v-.5zm1.1 3.5v1h2.7c0-.3 0-.4 0-.4 0-.1 0-.2 0-.2 0-.1 0-.2 0-.3h-2.7zm1.2-3v.9h3.5v-.9zm4.7 3h-2.6v.6.4h2.6z" fill="#fbfcfa"/><path d="m393.6 386.7h.6v1.5h2.7v6.1h1.1v.6h-11v-.6h1.1v-6.1h2.7v-1.5h.6v1.5h2.1v-1.5zm-2.7 8.8.4.6c-1.2.6-2.5 1.3-3.8 1.9-.1-.2-.2-.4-.3-.6 1.2-.6 2.5-1.2 3.7-1.9zm-2.2-6.7v2.4h2.1v-2.4zm0 3v2.5h2.1v-2.5zm2.8-3v2.4h2.1v-2.4zm0 3v2.5h2.1v-2.5zm6 6.1c-1.4-.7-2.7-1.3-3.9-1.8l.3-.6c1.5.6 2.7 1.2 3.9 1.7zm-1.2-9.1h-2.1v2.4h2.1zm-2.1 3v2.5h2.1v-2.5z" fill="#fbfcfa"/><path d="m124.22 310.68c-.36-2.28-1.09-4.3-.88-6.21.28-2.51.98-5.1 2.07-7.37 5.12-10.63 5.28-21.57 2.22-32.69-.81-2.95-.89-5.62.45-8.4 2.22-4.6 4.47-9.19 6.39-13.91.94-2.31 1.83-4.98 1.58-7.37-.94-9.01 2.15-15.93 9.55-21.05.91-.63 1.62-1.54 2.39-2.35 2.03-2.14 2.8-4.34.99-7.15-1.8-2.79-3.43-5.73-4.79-8.75-1.04-2.31-1.85-4.81-2.23-7.3-1.59-10.49-3.75-20.98-4.18-31.53-.29-7.05 1.37-14.37 5.5-20.68.65-.99 1-2.71.6-3.76-1.37-3.62-2.6-7.41-6.32-9.56-3.19-1.84-5.5-4.53-6.87-7.97-1.27-3.19-3.7-4.9-7.18-5.59-2.06 3.51-4.33 6.78-9.15 6.66-1.87-.05-3.22-.39-3.92-2.31-1.05-2.88-2.99-4.76-5.99-5.84-.99-.35-1.81-2.14-2-3.37-.11-.72 1.11-1.76 1.9-2.48 2.85-2.59 6.02-4.88 8.57-7.73 1.51-1.69 1.3-3.81-.57-5.97-4.71-5.42-8.48-11.46-10.02-20.03 2.36.96 4.12 1.29 5.38 2.27 4.22 3.29 8.27 6.81 13.9 7.81 2.9-5.04 3.12-10.54 3.66-15.97.19-1.88.34-3.81.86-5.61.8-2.75 2.79-4.1 5.72-4.33 3.08-.25 3.97 1.75 4.84 4.04 2.53 6.71 2.73 13.53 1.1 20.46-1.36 5.83-2.14 11.69-.38 17.57.46 1.55 1.21 3.02 1.82 4.53.35.01.69.02 1.04.03.63-2.72 1.58-5.41 1.81-8.16.44-5.41 2.55-9.89 6.32-13.69 7.72-7.79 15.29-15.75 23.22-23.33 4.31-4.12 5.29-8.73 4.25-14.29-.46-2.49-.95-5.25-.3-7.58.63-2.25 2.71-4.1 4.16-6.12 2.25 2.02 4.51 4.01 6.72 6.08.26.24.24.86.22 1.3-.5 10.79 6.74 16.71 14.18 22.46 1.94 1.5 3.95 3.08 6.18 3.99 10.89 4.42 16.25 13.24 18.21 24.03.96 5.31-.1 11.04-.6 16.55-.47 5.23-1.4 10.42-2.14 15.62-.41 2.9.57 4.02 3.51 3.31 2.35-.57 4.74-1.48 6.79-2.75 4.17-2.6 8.26-5.37 12.1-8.42 1.65-1.32 2.83-3.41 3.8-5.36.83-1.68.94-3.45-.69-5.2-1.03-1.11-1.32-3.01-1.67-4.62-1.6-7.4-2.85-14.88-4.74-22.21-1.49-5.79-2.68-11.49-1.81-17.5 4.7-1.12 7.89-.17 11.05 4.1 4.39 5.94 7.22 11.97 6.29 19.21 5.72 1.71 6.11 1.71 7.72-3.4 1.16-3.69 1.68-7.61 2.27-11.46 1.05-6.84 1.78-13.74 2.98-20.55.37-2.1 1.84-4.01 2.81-6.01.39.05.78.11 1.17.16 2.6 4.76 5.22 9.52 7.77 14.31.28.52.32 1.37.09 1.92-2.99 7.12-2.6 14.71-2.88 22.15-.26 6.71-2.06 13.01-4.22 19.22-.96 2.76-.32 4.59 1.85 5.99 2.14 1.38 4.44 2.53 6.73 3.66 1.5.74 3.44.89 4.57 1.96 1.42 1.35 2.57 3.27 3.03 5.14.14.59-2.28 2.47-3.64 2.61-3.46.35-7.18.76-10.46-.11-11.4-3.02-11.07-2.92-19.91 4.86-6.35 5.59-13.49 10.3-20.39 15.24-1.9 1.36-2.49 2.55-1.88 4.93 1.65 6.38 2.9 12.86 4.37 19.29.3 1.29.69 2.62 1.36 3.75 2.15 3.63 2.77 7.51 2.29 11.63-.17 1.44-.38 2.89-.42 4.34-.15 5.73.7 7.4 6.1 9.22 6.22 2.1 10.21 7.08 15.23 10.74 2.83 2.06 5.92 3.8 9.05 5.38 2.8 1.41 4.54 3.53 4.35 6.54-.21 3.44.46 6.29 1.95 9.5 2.61 5.63.52 11.48-2.61 16.24-3.88 5.9-3.7 12-2.94 18.38.1.81.73 1.59 1.21 2.32.42.65 1.24 1.15 1.43 1.84 2.1 7.98 7.52 15.4 4.13 24.31-.28.73-.37 1.53-.65 2.25-3.48 8.86-4.74 18.1-4.89 27.57-.12 7.05-.59 14.09-.85 21.14-.17 4.59-.14 4.59-4.77 6.92-2.92-9.48-7.82-18.44-7.23-28.67.74-12.94 1.99-25.86 3.02-38.78.11-1.34.65-2.89.16-3.96-.71-1.55-1.98-3.13-3.43-3.94-.66-.36-2.82.8-3.46 1.8-2.33 3.66-4.52 7.45-6.37 11.37-1.98 4.21-4.63 7.13-9.16 9-2.8 1.16-4.77 4.42-6.98 6.85-2.71 2.98-5.39 3.88-8.28 2.52-2.04-.96-2.48-2.55-1.34-4.4 3.34-5.4 6.42-11 10.23-16.04 6.02-7.96 10.3-16.74 13.58-26.04 2.43-6.88 6.23-12.79 11.09-18.17 1.77-1.95 3.28-4.3 4.32-6.71 1.8-4.18 1.79-8.19-2.27-11.44-4.19-3.35-8.08-7.07-12.32-10.35-1.81-1.4-4.08-2.34-6.29-3.04-5.36-1.68-7.09-1.25-10.13 3.35-4.07 6.14-8.31 12.28-11.39 18.92-4.43 9.56-11.7 14.91-21.51 17.6-1.75.48-3.52 1.4-4.91 2.56-4.45 3.7-13.1 4.86-18.04 2.06-.8-.45-1.32-1.44-1.92-2.22-3.57-4.73-6.93-9.63-10.73-14.16-3.45-4.1-8.07-5.07-13.08-3.09-1.25.5-2.49 1.49-3.29 2.58-2.83 3.89-5.58 7.85-8.12 11.93-.9 1.44-1.35 3.28-1.57 5-.56 4.44-.94 8.9-1.25 13.37-.1 1.41.06 2.9.43 4.27 1.14 4.2 2.27 8.43 3.76 12.52.84 2.31 2.37 4.38 3.61 6.55.83 1.45 2.08 2.78 2.47 4.33 1.86 7.59 6.53 13.62 10.48 20.1 2.15 3.53 3.53 7.62 4.71 11.61.77 2.62-.54 4.97-2.94 6.56-2.77 1.85-4.46 1.53-6.39-1.18-2.46-3.46-4.82-7.04-7.6-10.23-2.15-2.46-4.88-4.41-7.72-6.91-.75 2-1.06 3.33-1.71 4.46-.82 1.44-2.14 2.62-2.85 4.1-1.04 2.17-2.46 4.53-2.43 6.78.08 5.21.59 10.47 1.56 15.59 1.27 6.69 3.51 13.2 4.68 19.9.87 5.02.85 10.21.92 15.34.02 1.42-.77 3.09-1.71 4.22-1.71 2.05-3.89 1.42-4.58-1.13-.61-2.27-1.26-4.53-1.64-6.84-.88-5.31-2.88-9.99-6.51-14.06-.88-.98-.97-2.77-1.17-4.23-.43-3.16-.17-6.51-1.14-9.47-2.71-8.3-.84-16.65-.74-24.97 0-1.01 1.69-2.01 2.32-2.7zm68.95-143.03c5.32-5.65 9.92-10.85 14.87-15.69 4.11-4.02 3.16-9.25 4.06-14.05.11-.58-.73-1.31-1.07-1.99-.88-1.77-2.11-3.47-2.51-5.34-.93-4.42-2.88-8.01-6.25-11.12-2.33-2.15-3.87-5.14-5.99-7.57-2.61-2.99-5.29-5.96-8.25-8.6-1.63-1.45-3.47-1.12-5.17.82-3.9 4.46-7.89 8.88-12.2 12.93-5.46 5.14-4.71 9.92-1.08 15.07 5.26 7.48 9.86 15.42 14.87 23.08 2.66 4.1 5.6 8.03 8.72 12.46zm15.32-62.27c.42-.05.84-.1 1.26-.16 1.02-3.9 2.14-7.77 3.01-11.71.39-1.79.89-3.93.27-5.49-1.82-4.65-3.71-9.39-6.38-13.58-8.42-13.2-22.02-13.11-32.36-4.09-3.94 3.44-7.41 7.43-11.04 11.23-7.2 7.54-8.04 16.94-1.84 26.72 3.66-3.44 7.47-6.51 10.63-10.14 3.36-3.86 5.98-8.35 9.13-12.41 3.85-4.97 7.01-5.39 12.21-1.65 1.6 1.15 3.04 2.66 4.16 4.28 1.9 2.75 3.42 5.76 5.22 8.58 1.83 2.86 3.82 5.62 5.73 8.42zm-47.13 95.84c2.36 0 3.75.04 5.14-.02.51-.02 1.1-.15 1.49-.45 3.72-2.85 7.59-5.54 11.04-8.69 4.54-4.15 4.99-10.54 1.68-15.74-3.12-4.89-6.19-9.82-9.19-14.79-4.09-6.77-8.1-13.59-12.61-21.18-1.53 2.35-3.36 4.08-3.84 6.13-1.86 7.93-3.57 15.91-4.73 23.97-.39 2.7.23 6.3 1.84 8.37 3.4 4.38 4.93 9.12 5.56 14.43.41 3.38 1.64 6.45 3.62 7.97zm25.74 30.58c1.9-.71 4.02-.94 5.36-2.1 4.12-3.56 7.97-7.45 11.83-11.3.42-.42.51-1.52.29-2.16-2.34-7-6.47-12.46-13.65-15.05-.93-.34-2.55-.41-3.12.15-5.3 5.15-9.44 11.03-10.29 18.64-.08.7.19 1.62.62 2.18 2.25 2.92 4.57 5.79 6.96 8.6.42.51 1.25.67 2 1.04zm33.77-61.01c.72-1.09 1.71-1.96 1.86-2.96.22-1.42.36-3.38-.41-4.32-1.34-1.62-2.87-.6-4.15.82-2.92 3.24-5.76 6.59-9.02 9.47-3.79 3.35-4.19 7.39-3.37 11.84 1.16 6.34 5.82 10.6 9.21 15.69 10.47-10.01 13.41-21.85 5.88-30.54z" fill="#010101"/></svg>