<svg enable-background="new 0 0 400 400" viewBox="0 0 400 400" xmlns="http://www.w3.org/2000/svg"><path d="m374.8 390.4.4-.4c.7.5 1.3 1 1.8 1.4l-.5.5c-.5-.6-1.1-1.1-1.7-1.5zm1 7.3-.6-.3c.5-1.4 1.1-2.8 1.5-4.3.2.1.4.2.6.3-.5 1.3-1 2.8-1.5 4.3zm-.4-10.3.4-.4c.4.3 1 .8 1.7 1.4l-.5.5c-.4-.5-1-1-1.6-1.5zm2.5.3h1.7v-1h.6v1h3.5v-1h.6v1h1.8v.5h-1.8v1.4h-2v1h3.2v2h-3.2v.9h3.3v.5h-3.4c0 .3-.1.6-.1.9h4v.5h-3.7c.7.9 1.9 1.5 3.8 1.7-.1.2-.2.4-.3.6-2.1-.4-3.5-1.1-4-2.1-.4 1-1.8 1.7-4 2.2-.1-.2-.2-.4-.3-.6 2.1-.4 3.4-1 3.8-1.8h-3.4v-.5h3.6c.1-.3.1-.6.2-.9h-3.3v-.5h3.4c0-.3 0-.6 0-.9h-3.2v-2h3.3v-1h-2.1v-1.4h-1.7v-.5zm1.1 3.5v1h2.7c0-.3 0-.4 0-.4 0-.1 0-.2 0-.2 0-.1 0-.2 0-.3h-2.7zm1.2-3v.9h3.5v-.9zm4.7 3h-2.6v.6.4h2.6z" fill="#fbfcfa"/><path d="m393.6 386.7h.6v1.5h2.7v6.1h1.1v.6h-11v-.6h1.1v-6.1h2.7v-1.5h.6v1.5h2.1v-1.5zm-2.7 8.8.4.6c-1.2.6-2.5 1.3-3.8 1.9-.1-.2-.2-.4-.3-.6 1.2-.6 2.5-1.2 3.7-1.9zm-2.2-6.7v2.4h2.1v-2.4zm0 3v2.5h2.1v-2.5zm2.8-3v2.4h2.1v-2.4zm0 3v2.5h2.1v-2.5zm6 6.1c-1.4-.7-2.7-1.3-3.9-1.8l.3-.6c1.5.6 2.7 1.2 3.9 1.7zm-1.2-9.1h-2.1v2.4h2.1zm-2.1 3v2.5h2.1v-2.5z" fill="#fbfcfa"/><g fill="#010101"><path d="m338.2 369.98c-3.03 2.09-6.05 1.52-8.5.05-7.64-4.6-15.24-9.32-22.47-14.52-2.47-1.78-3.88-5.07-5.66-7.75-1.16-1.76-1.89-3.84-3.22-5.44-2.72-3.27-5.55-3.84-9.45-2.35-5.85 2.23-11.87 4.1-17.49 6.8-8.65 4.15-17.89 4.63-27.12 5.13-7.1.39-14.01 1.36-20.55 4.19-2.2.95-3.91.54-5.28-1.29-1.87-2.49-4.3-2.48-6.94-1.75-6.25 1.74-12.49 3.47-18.73 5.25-3.53 1.01-5.03 3.95-3.91 7.51.1.32.24.63.36.94 1.94 5.43-.03 8.69-5.81 8.63-5.01-.05-10.11-.42-14.98-1.5-5.73-1.27-11.41-3.09-16.85-5.32-16.81-6.89-32.76-15.32-47.58-25.96-4.54-3.26-10.23-4.91-15.36-7.37-1.76-.84-2.74-.21-3.96 1.13-4.67 5.13-9.26 10.37-14.35 15.08-3.39 3.14-7.54 5.48-11.42 8.07-.76.51-1.85.52-3.77 1.02 1.21-4.1 1.72-7.7 3.29-10.76 2.38-4.63 5.58-8.83 8.25-13.32 1.63-2.75 3.32-5.58 4.24-8.6 1.09-3.56.37-6.8-2.94-9.51-2.87-2.34-5.75-5.07-5.88-9.37-.07-2.36.76-3.89 3.23-3.28 3.73.91 7.37 2.19 11.88 3.56 0-4.12.19-8.51-.05-12.89-.3-5.56.03-10.78 4.83-14.59.25-.2.56-.3 1.26-.67 1.7 2.28 3.93 4.37 5.02 6.94 2.17 5.16 4.4 10.06 10.11 12.21-.32.49-.38.73-.51.77-5.29 1.7-5.29 1.7-5.44 7.35-.04 1.34.17 2.76-.17 4.02-1.37 4.99 1.2 7.77 4.98 10.43 14.48 10.15 30.51 17.28 46.57 24.39 2.66 1.18 5.51 1.97 8.04 3.36 4.46 2.45 8.72 5.26 13.1 7.84 1.79 1.06 3.63 2.15 5.59 2.76.88.27 2.11-.6 3.18-.95-.41-1.12-.48-2.62-1.27-3.28-6.32-5.36-12.93-10.37-19.11-15.87-3.88-3.45-7.64-7.23-10.64-11.44-3.87-5.42-8.27-10.19-13.26-14.57-18.83-16.52-26.41-37.98-26.83-62.41-.05-2.62.4-5.51 1.5-7.86 3.92-8.37 8.01-16.68 12.46-24.78 2.3-4.19 5.55-7.85 8.29-11.8 4.34-6.25 8.86-12.26 14.86-17.16 5.05-4.12 4.52-9.31-.76-13.01-9.79-6.87-17.1-16.04-23.84-25.71-4.03-5.78-7.7-11.84-12.06-17.35-2.12-2.68-5.33-4.56-8.25-6.51-1.61-1.08-3.18-.57-4.58 1.15-2.26 2.77-4.8 5.31-7.34 7.83-3.93 3.89-8.74 5.65-14.31 5.61 3.13-9.96 7.67-18.98 15.44-25.96 3.72-3.34 4.28-6.99 2.61-11.36-2.44-6.38-4.86-12.74-7.25-19.11-1.1-2.91-2.86-6.16.06-8.69 2.97-2.58 6.71-1.24 9.93-.15 1.34.45 2.22 2.38 3.19 3.73.98 1.36 1.66 2.94 2.72 4.22 2.45 2.97 6.55 2.57 8.11-.9 1.09-2.42 1.76-5.05 2.44-7.63.73-2.77 2.32-4.44 5.2-4.94 4.95 8.76 7.46 17.33.61 26.33-1.64 2.15-2.44 5.01-3.37 7.63-1.8 5.02-1.7 9.64 2.23 13.99 3.29 3.63 6.18 7.69 8.81 11.84 3.18 5.03 7.3 8.65 12.95 10.46 2.23.72 3.2 2.14 3.2 4.46 0 5.06 1.87 9.11 5.9 12.46 2.41 2.01 4.21 4.86 5.92 7.56 3.44 5.43 9.49 6.34 15.05 2.09 3.1-2.37 6.23-4.7 9.43-6.93 3.06-2.12 4.26-5.25 4.29-8.66.01-1.1-1.88-2.22-2.4-2.79-1.85.77-2.94 1.21-4.02 1.66-.27-.97-.53-1.95-.82-2.91-.99-3.29-1.91-6.6-3.04-9.83-.43-1.24-1.23-2.41-2.06-3.45-9.43-11.79-10.94-25.59-10.34-39.97.31-7.58-.1-15.25.9-22.73.61-4.58 2.93-9.08 5.13-13.27 2.84-5.41 6.7-10.3 9.44-15.75 3.31-6.57 6.93-12.74 12.57-17.6 1.42-1.23 2.44-1.42 4.09-.51 7.73 4.27 15.55 8.39 23.29 12.64.93.51 2.02 1.28 2.36 2.19 2.51 6.58 7.43 11.36 11.99 16.42 2.1 2.33 4 4.87 6.33 6.95 6.1 5.46 8.07 12.58 8.01 20.26-.07 9.04-.75 18.08-1.28 27.12-.07 1.28-.7 2.56-1.24 3.77-4.77 10.71-9.54 21.43-14.41 32.09-.96 2.1-.19 3.08 1.57 3.9 4.09 1.9 7.94 1.51 11.83-.76 2.67-1.56 5.62-2.64 8.42-4 3.29-1.59 6.75-2.95 9.78-4.94 4.39-2.88 8.47-6.23 12.66-9.42.79-.6 1.84-1.26 2.08-2.09.97-3.32 3.45-4.03 6.39-4.19.66-.04 1.32-.24 1.98-.36 5.48-.99 7.39-4.83 4.7-9.66-5.06-9.08-6.7-19.12-8.11-29.2-.13-.92.82-2.63 1.62-2.87 1.04-.33 2.8.05 3.57.81 1.13 1.12 2.1 2.78 2.35 4.33 1.45 8.96 8.42 14.19 13.37 21.03 2.25-4.05 2.25-3.95 6.99-4.11 1.32-.04 2.95-.51 3.88-1.38 4.98-4.64 9.89-9.37 14.6-14.27 2.97-3.09 5.83-6.16 10.2-7.15 2.44 3.9 2.34 5.65-.36 9.17-6.67 8.71-13.32 17.43-19.96 26.16-2.83 3.72-1.76 8.83 2.19 11.24 4.39 2.68 8.82 5.31 12.99 8.31 3.04 2.19 5 5.29 4.99 10.21-3.11-.72-5.85-1.32-8.56-1.99-1.4-.35-2.75-1.12-4.16-1.23-6.99-.59-13.22-2.95-18.81-7.24-2.84-2.18-6.29-1.97-9.24-.55-12.6 6.06-24.72 12.94-35.62 21.84-7.86 6.42-8.29 7.11-1.54 14.56 6.79 7.5 11.7 15.91 15.6 25.19 2.41 5.73 6.02 10.95 9.11 16.38 1.77 3.11 3.4 6.32 5.42 9.27 3.83 5.62 2.27 12.12 3.39 18.18.67 3.64.31 7.08-1.06 10.48-.46 1.13-.78 2.34-1.04 3.54-2.95 13.96-9.4 26.11-18.6 36.97-3.75 4.43-7.05 9.26-10.31 14.08-1.79 2.64-3 5.67-4.57 8.47-.75 1.33-1.61 2.64-2.61 3.78-4.43 5.03-8.94 10-13.59 15.18 1.47 1.79 4.47 1.97 7.69 1.76 14.82-.96 28.71-5 42-11.64 4.68-2.34 7.07-5.71 6.85-10.44-.24-5.2-1.97-10.33-2.22-15.53-.28-5.87.12-11.81.75-17.66.17-1.56 2.07-3.27 3.61-4.18.7-.41 3.01.6 3.63 1.58 2.21 3.48 4.41 7.08 5.83 10.92.85 2.31.38 5.17.22 7.77-.15 2.33-.87 4.63-1 6.96-.18 3.26 1.67 4.85 4.6 3.49 4.24-1.95 8.18-4.55 12.23-6.89 1.35-.78 2.66-1.62 4-2.45 1.69 3.91 1.31 6.56-1.29 11.32-2.72 5-5.54 9.97-7.9 15.14-2.92 6.42-1.88 12.37 3.83 16.59 8.1 5.99 14.07 13.56 19.21 22 1.2 1.92 2.59 3.69 4.05 5.78zm-130.36-33.61c5.12-4.67 10.28-8.81 14.76-13.58 8.93-9.51 18.73-18.27 25.37-29.83 5.01-8.72 10.58-17.14 16.26-25.45 2.83-4.14 4.27-8.44 4.5-13.37.22-4.9-.94-6.6-5.83-7.52-1.43-.27-2.99-.28-4.25-.9-1.47-.72-3.23-1.71-3.9-3.06-3.38-6.75-2.37-13.49 1.9-19.31 2.56-3.5 2.32-6.52.92-9.93-.8-1.95-1.8-3.87-3.03-5.58-6.5-9.11-13.17-18.09-19.62-27.23-2.86-4.05-6.66-6.56-11.29-7.92-4.18-1.23-8.38-2.48-12.64-3.31-2.03-.4-4.33-.17-6.37.32-4.18 1-8.27 3.31-12.4 3.35-5.38.04-9.65 1.61-13.89 4.63-12.71 9.04-23.26 20.31-33.35 32.02-9.47 10.99-17.67 22.79-20.67 37.47-.49 2.4-2.35 4.51-3.92 7.37 0 3.16-.2 7.27.08 11.34.16 2.35.68 4.85 1.76 6.91 2.85 5.44 6.01 10.72 9.2 15.97 1.72 2.84 3.54 5.68 5.72 8.16 2.53 2.89 5.03 5.65 5.84 9.57.19.9.87 1.87 1.6 2.46 13.02 10.47 23.22 23.55 33.82 36.28.92 1.11 2.75 1.99 4.19 2.05 5.52.23 10.77-1.36 15.18-4.5 3.75-2.68 7.19-5.11 12.04-3.51.1.03.3-.22.62-.47-.97-.91-1.91-1.79-2.6-2.43zm-1.31-270.03c-.37-8.62-9.08-16.18-16.16-18.37-.49-.15-1.35.18-1.75.58-4.47 4.47-8.99 8.91-13.29 13.55-4.04 4.36-3.06 9.12-.13 13.51 2.72 4.08 5.76 7.98 8.94 11.72 4.37 5.13 10.61 4.21 13.57-1.71 1.95-3.89 4.2-7.62 6.06-11.54 1.17-2.46 1.86-5.15 2.76-7.74zm9.29 15.84c-2.51 3.69-4.7 6.78-6.75 9.95-1.56 2.42-3.42 4.79-4.32 7.46-2.61 7.79.4 14.13 5.82 19.7 1.37 1.4 2.51 2.14 4.62 1.28 2.05-.84 3.46-1.58 3.41-4.13-.09-4.92 1.04-9.54 2.64-14.29 1.86-5.52.63-11.5-1.94-16.87-.55-1.16-2.05-1.87-3.48-3.1zm-31.8 51.91c.05 5.58 2.19 10.3 5.68 13.93 3.65 3.8 7.93 4.39 12.39 1.7 3.41-2.05 6.12-8.33 4.54-11.88-2.73-6.13-6.87-11.21-13.06-14.22-.8-.39-2.16-.25-2.99.18-4.73 2.44-6.92 6.39-6.56 10.29zm-8.81-50.19c-.39-.17-.79-.34-1.18-.51-.36.38-.77.73-1.08 1.15-.46.62-.91 1.27-1.28 1.95-4.29 7.8-3.53 15.45.88 22.88.7 1.17 2.14 1.9 3.24 2.84 1.1-1.42 2.99-2.78 3.1-4.27.14-1.84-.78-4.16-2.03-5.58-1.47-1.68-3.77-2.63-5.7-3.89 1.35-4.83 2.7-9.7 4.05-14.57z"/><path d="m185.64 274.76c-3.56-6.45-3.43-12.88-3.69-19.23-.02-.53.08-1.2.39-1.58 3.43-4.17 3.24-9.32 4.19-14.23.66-3.41 2.45-6.61 3.79-9.88.92-2.25 2.54-2.05 4.36-1.13 3.46 1.74 5.24 4.74 5.21 8.38-.07 6.69.43 13.67-1.29 19.98-1.52 5.57-5.63 10.48-8.88 15.49-.7 1.12-2.6 1.45-4.08 2.2z"/><path d="m208.01 280.46c3.47.23 5.2 2.09 6.43 4.89 5.86 13.37 4.14 26.38-1.77 39.18-.68 1.48-1.89 2.79-3.09 3.93-2.18 2.09-4.93 1.2-5.73-1.7-2.48-9.04-2.74-17.93.4-27 1.7-4.9 2.12-10.25 3.1-15.4.25-1.29.44-2.59.66-3.9z"/><path d="m231.51 219.03c5.35.85 8.73 4.13 9.34 9.78 1.14 10.62-.47 20.96-4.38 30.9-1.11 2.81-5.64 3.19-6.82.43-1.77-4.14-3.7-8.55-3.97-12.94-.58-9.72 1.92-19.04 5.83-28.17z"/><path d="m150.79 310.09c-5.44-9.59-3.69-29.47 3.35-40.76 3.13.61 5.17 2.66 6.12 5.51 3.09 9.23 3.11 18.63-.97 27.41-1.48 3.21-5.54 5.22-8.5 7.84z"/><path d="m207.01 178.2c4.91 2.7 7.26 6.88 6.89 11.54-.71 8.86-2.26 17.66-3.73 26.44-.47 2.77-2.72 4.03-5.57 3.49-.71-.14-1.74-.86-1.86-1.48-2.8-13.64-3.1-27.04 4.27-39.99z"/><path d="m167.24 218.94c3.27 2.14 3.66 5.48 3.48 8.66-.33 5.77-.83 11.59-2.01 17.23-.36 1.71-3.21 2.9-4.89 4.3-6.04-6.58-3.65-25.31 3.42-30.19z"/></g></svg>