<svg enable-background="new 0 0 400 400" viewBox="0 0 400 400" xmlns="http://www.w3.org/2000/svg"><g fill="#fafafb"><path d="m12.4 4.8-6.1 9h6v1.2h-8v-.5l6.1-8.9h-5.7v-1.2h7.6v.4z"/><path d="m14 15v-10.6h3c1.6 0 2.9.5 4 1.4s1.6 2.2 1.6 3.8-.5 3-1.6 3.9-2.4 1.5-4 1.5zm1.4-9.4v8.2h1.6c1.3 0 2.4-.4 3.1-1.1s1.1-1.8 1.1-3.1-.4-2.3-1.2-3-1.8-1-3.1-1z"/><path d="m26.1 4.4v10.6h-1.4v-10.6z"/><path d="m36.1 14.6c-.8.4-1.8.6-2.9.6-1.5 0-2.7-.5-3.6-1.4s-1.4-2.2-1.4-3.8c0-1.7.5-3.1 1.5-4.1s2.3-1.6 3.9-1.6c1 0 1.8.1 2.5.4v1.4c-.8-.4-1.6-.6-2.5-.6-1.2 0-2.1.4-2.9 1.2s-1.1 1.8-1.1 3.2c0 1.3.3 2.3 1 3s1.6 1.1 2.7 1.1c1 0 2-.2 2.7-.7v1.3z"/><path d="m37.6 14.3c0-.2.1-.5.3-.6s.4-.3.6-.3c.3 0 .5.1.6.3s.3.4.3.6-.1.4-.3.6-.4.3-.6.3c-.3 0-.5-.1-.6-.3s-.3-.4-.3-.6z"/><path d="m50.2 15h-1.6l-5.3-8.2c-.2-.2-.3-.5-.4-.7 0 .2.1.7.1 1.5v7.4h-1.4v-10.6h1.7l5.2 8.1c.2.4.4.6.4.7 0-.3-.1-.8-.1-1.5v-7.3h1.4z"/><path d="m58.6 15h-5.7v-10.6h5.5v1.2h-4.1v3.4h3.8v1.2h-3.8v3.6h4.3z"/><path d="m67.1 5.6h-3.1v9.4h-1.4v-9.4h-3v-1.2h7.5z"/></g><path d="m179.45 374.62c-.87-3-1.77-5.61-2.31-8.3-.17-.87.35-2.19 1.01-2.87 7.87-8.18 8.27-15.69 2.33-27.34-1.15-2.26-4.36-3.47-6.82-5.32-6.46 10.52-12.54 20.55-18.79 30.48-.87 1.39-2.58 2.25-4.54 3.88-.59-8.95 1.92-16.13 4.11-23.39 2.15-7.13 4.08-14.32 6.17-21.71-3.12-1.11-5.61-2-8.73-3.11-2.42 4.81-4.83 9.55-7.19 14.31-1.98 4-3.69 8.14-5.9 12.01-1.99 3.48-5.02 5.96-9.54 6.92-1.18-5.02-.77-9.95-.21-14.91.67-5.97 1.41-11.93 1.77-17.92.18-3.04-1.14-5.53-4.28-6.88-2.04-.87-3.74-2.54-5.78-3.38-11.83-4.84-14.54-25.08-7.21-35.54 6.51-9.29 15.69-11.09 25.76-11.28 3.78-.07 7.57.65 11.35.99 5.08.46 9.67 1.72 13.73 5.31 2.3 2.03 5.68 3.13 8.76 3.95 6.26 1.66 9.08.29 12.39-5.19 1.62-2.68 3.22-5.37 5.03-8.4-2.45-1.19-4.8-2.34-7.16-3.48-5.44-2.62-11.04-4.93-16.28-7.9-10.28-5.83-15.72-15.63-20.13-26.05-7.43-17.51-8.13-35.87-6-54.4.45-3.96 2.78-7.7 4.33-11.76-6.4-1.13-12.79-1.79-18.91-3.44-10.2-2.76-20.66-5.43-27.55-14.49-2.69-3.54-6.07-4.62-10.24-4.18-3.11.32-6.25.45-9.35.87-10.28 1.4-16.09-2.13-19.75-12.77 5.89 0 11.51-.01 17.13.01.78 0 1.55.2 2.33.26 7.2.58 9.97-1.76 10.02-9.01.02-2.82.27-6.78-1.36-8.23-4.29-3.83-8.48-8.51-15.11-8.53-3.13-.01-6.27-.14-9.38-.44-5-.47-8.73-2.98-11.76-8.08 11.9-1.98 23.26-3.88 34.84-5.81-.33-6.38-4.49-11.25-10.18-14.91-1.51-.97-3.85-.98-5.79-.92-5.03.15-10.04.82-15.06.84-4.47.01-6.52-2.02-7.33-6.45 7.66-2.96 15.35-5.96 23.08-8.86.87-.33 1.98-.22 2.93-.06 3.53.61 7.01 1.65 10.55 1.93 4.34.35 7.04 2.56 9.46 5.94 5.41 7.57 8.11 16.16 9.78 25.1.49 2.63-.68 5.53-.66 8.31.02 2.1.27 4.45 1.24 6.23 1.45 2.65 2.17 5.22 2.16 8.24-.01 6.03-1.21 12.21 3.75 17.42 5.36 5.64 11.84 8.88 19.26 10.04 13.01 2.03 26.08 2.4 38.99-.77 1.74-.43 3.58-1.75 4.71-3.17 3.46-4.37 6.61-8.99 10.08-13.79-2.01-.52-3.66-1.1-5.37-1.37-14.11-2.22-25.64-19.79-21.61-34.93.38-1.44 1.14-2.92 2.11-4.06 4.56-5.38 9.41-10.52 13.84-16 3.92-4.85 7.62-9.91 11.04-15.11 3.51-5.34 10.61-6.65 14.91-1.8 6.34 7.15 14.47 10.85 23.08 14.31 6.56 2.63 12.61 6.59 18.75 10.18 2.83 1.65 4 4.46 3.48 7.79-.89 5.74-1.73 11.5-2.84 17.21-.25 1.28-1.32 2.55-2.32 3.5-6.31 6.01-12.71 11.93-19.28 18.06.71.93 1.16 1.87 1.91 2.42 7.58 5.6 15.36 10.91 24.57 13.47 6.74 1.87 14.14 2.28 20.04-.99 7.72-4.29 14.02-10.82 16.26-20.07.97-4.02 1.95-8.04 2.74-12.1 1.18-6.07 2.79-11.93 6.38-17.12.77-1.11 1.1-2.68 1.21-4.07.29-3.79.55-7.6.48-11.4-.21-11.68 5.24-20.46 14.4-26.87 4.99-3.49 10.74-5.9 16.18-8.72 7.37-3.81 14.38.09 21.45 1.37 1 .18 2.16 2.8 2.17 4.29.02 2.2-.24 4.63-3.06 5.73-6.49 2.51-13.2 3.2-20.09 3.15-9.33-.07-15.06 4.9-16.95 15.34 2.38-.14 4.63.11 6.67-.45 6.89-1.9 13.69-4.1 20.54-6.17.74-.22 1.53-.33 2.3-.44 7.19-1.08 10.39 2.26 9.06 9.43-.1.55-.22 1.1-.4 2.06-5.09.43-10.29.93-15.49 1.3-8.23.59-19.94 11.1-21.1 19.26-.16 1.16.5 2.86 1.37 3.66 5.68 5.19 17.25 5.4 23.45.6 1.85-1.43 3.65-2.93 5.52-4.43 1.47 3.92-.36 10.23-3.45 12.46-1.26.91-2.69 1.72-3.65 2.9-4.46 5.52-10.28 6.19-16.69 4.97-4.6-.88-9.18-1.83-14.22-2.84-.83 3.99-2.07 7.73-2.32 11.55-.71 10.9-5.54 19.36-13.73 26.41-3.16 2.72-6.05 5.53-10.06 6.95-1.66.59-3.2 1.48-5.08 2.36 3.07 7.28 5.84 14.47 9.11 21.42 2.98 6.34 3.83 12.79 2.52 19.59-1.41 7.32-1.64 14.61-.14 21.98.76 3.75-.28 7.2-3.05 10.17-9.39 10.07-18.7 20.21-27.94 30.43-3.15 3.49-6.84 5.55-11.52 6.21-1.75.25-3.71 1.11-4.98 2.32-2.4 2.27-2.05 4.25.61 6.24 7.96 5.94 16.74 7.5 26.37 5.18 10.75-2.59 21.47-5.33 32.33-7.34 16.73-3.1 31.41 13.73 26.56 30.1-.31 1.06-1.37 1.94-2.2 2.79-3.66 3.76-7.46 7.38-11.03 11.23-1.95 2.11-2.33 4.49-.84 7.35 2.16 4.16 3.92 8.53 5.65 12.9 2.52 6.35.79 10.81-5.85 14.57-2.78-4.79-6.31-9.33-8.15-14.47-2.33-6.53-6.47-9-12.89-8.74-2.78.12-5.59.28-8.33.75-2.66.46-2.91 1.67-1.25 3.83 5.52 7.18 6.9 15.33 5.51 24.09-.43 2.7-1.84 4.82-4.67 4.87-2.55.04-4.79-1.21-5.57-3.98-1.33-4.73-2.53-9.49-3.93-14.2-.5-1.69-1.19-3.41-2.15-4.87-2.48-3.75-5.45-4.6-9.71-3.12-2.96 1.03-5.88 2.16-8.89 3.01-3 .84-4.17 2.86-4.06 5.71.12 3.01.3 6.05.82 9 .21 1.16 1.42 2.14 2.18 3.2 2.78 3.87 5.71 7.65 8.24 11.68.66 1.05.6 3.78-.06 4.17-1.56.92-3.94 1.67-5.52 1.12-11.43-3.94-18.63-11.61-19.72-24.06-.29-3.33-.14-6.71-.01-10.06.13-3.24 1.45-5.71 4.16-7.9 7.95-6.43 16.72-11.15 26.53-13.94 10.95-3.12 21.85-6.48 32.93-9.06 4.87-1.14 8.78-3.12 11.95-6.75 3.17-3.64 2.98-7.81-.57-11.02-5.33-4.81-11.33-6.9-18.54-4.46-7.82 2.65-15.58 6.04-23.65 7.28-11.8 1.81-23.72.89-34.68-4.78-6.55-3.39-11.45-8.17-11.75-16.25-.1-2.87-2.59-2.85-4.65-3.38-2.19-.57-2.74.74-3.24 2.32-2.48 7.76-5.85 14.9-12.48 20.19-7.02 5.6-14.26 6.58-22.51 2.92-9.28-4.12-18.78-7.78-28.19-11.61-4.62-1.88-8.91-1.2-12.27 2.5-3.78 4.17-5.29 9.16-3.13 14.58.64 1.61 2.38 2.89 3.84 4.04 5.83 4.58 12.85 6.46 19.92 7.35 12.83 1.61 23.77 7.08 33.24 15.44 4.81 4.25 9.07 9.23 13.04 14.3 3.68 4.71 4.92 10.21 2.53 16.12-.79 1.96-1.62 4.03-1.79 6.1-.91 11.32-10.24 15.26-18.08 21.15zm46.73-293.95c.05-5.08-3.9-8.97-9.23-9.08-2.73-.06-5.45 3.94-5.49 8.07-.05 4.75 3.73 9.11 7.88 9.09 2.35 0 6.81-5.28 6.84-8.08zm-40.34 6.62c.08-4.71-2.68-7.74-7.22-7.94-2.8-.12-6.61 2.9-6.7 5.32-.17 4.54 3.85 10.07 7.37 10.14 4.24.08 6.46-2.47 6.55-7.52z" fill="#010105"/></svg>