<svg enable-background="new 0 0 400 400" viewBox="0 0 400 400" xmlns="http://www.w3.org/2000/svg"><g fill="#010101"><path d="m220.85 209.4c-2.09 5.06-4.74 9.8-6 14.89-2.86 11.6-4.95 23.38-7.51 35.05-1.48 6.76-3.16 13.49-4.99 20.16-.58 2.11-.27 3.34 1.26 4.96 10.07 10.63 20.19 21.22 29.89 32.18 12.56 14.19 14.72 31.09 11.72 49.11-.14.87-.33 1.74-.67 3.56-.74-1.85-1.21-2.9-1.59-3.98-4.18-11.91-8.3-23.84-12.57-35.72-.61-1.7-1.69-3.42-3-4.66-14.96-14.14-30.04-28.17-45.01-42.31-1.4-1.33-2.57-3.08-3.34-4.86-11.05-25.52-14.95-52.24-13.64-79.93 1.24-25.93 2.07-51.87 3.05-77.81.22-5.84-2.05-8.02-7.88-7.28-5.32.67-10.57 2.13-15.89 2.42-4.96.27-10.1.03-14.95-.98-9.04-1.88-14.32-8.04-14.99-17.41-.37-5.07.28-10.24.74-15.34.1-1.11 1.14-2.44 2.13-3.11 8.77-6 17.6-11.9 26.46-17.77.99-.65 2.2-1.1 3.37-1.33 9.65-1.9 19.3-3.8 28.98-5.53 2.68-.48 4.18-1.49 5.05-4.3 2.25-7.25 4.95-14.36 7.49-21.52.25-.71.58-1.4 1.12-2.66 3.63 7.6 7.3 14.59 10.3 21.85 1.85 4.48 4.52 7.49 9.13 8.89 10.88 3.3 21.62 7.23 32.66 9.83 15.14 3.57 21.54 12.05 19.29 27.62-.48 3.31-1.5 6.56-1.86 9.88-.57 5.28-3.93 7.46-8.52 8.88-8.58 2.65-17.38 2.92-26.23 2.93-3.77.01-7.54 0-11.81 0 1.65 30.21 3.25 59.65 4.87 89.38 1.48.06 2.67.16 3.86.16 9.29.01 18.58-.09 27.87.09 1.72.03 3.73.78 5.09 1.85 6.18 4.86 9.65 11.56 10.76 19.15 2.28 15.63 1.11 31.02-5.11 45.74-.67 1.58-1.82 3.1-3.09 4.27-12.21 11.21-28.49 12.21-41.08 2.62-.87-.66-1.66-1.42-3.03-2.61 7.48-1.25 14.3-2.91 21.21-3.4 6.4-.46 10.13-2.91 11.79-9.23 1.07-4.06 3.16-7.85 4.96-12.17-10.07-3.17-19.97-6.29-29.88-9.41 0-.29.01-.58.01-.88 6.73-1.13 13.45-2.31 20.19-3.36 4.39-.68 6.14-2.04 6.21-6.39.06-3.76-.57-7.54-1.11-11.29-.11-.76-1.03-1.74-1.8-2.01-7.66-2.72-15.38-5.31-23.91-8.22zm-44.07-132.74c3.17 6.69 4.79 13.37 4.4 20.41-.83 15.17-3.59 30.21-2.7 45.5.44 7.59.34 15.21.62 22.81.92 25.47.77 51.04 5.42 76.23 1.2 6.52 3.21 12.89 4.79 19.14 4.27-.27 6.03-1.96 6.69-5.31 2.17-11.06 5.08-22 6.72-33.13 3.45-23.48 2.69-47.09.8-70.66-.91-11.36-2.99-22.63-3.69-33.99-.89-14.4-.96-28.84-1.28-43.27-.05-2.32-.43-3.67-3.16-3.98-3.43-.39-6.77-1.45-10.19-2.01-1.23-.2-2.7-.08-3.81.43-6.01 2.76-12.33 4.09-18.89 3.79-10.26-.46-18.95 3.25-27.07 9.11-3.04 2.19-4.28 4.97-4.65 8.43-.53 5 3.44 13.15 7.4 13.98 6.42 1.35 12.94 2.36 19.47 3.02 5.21.53 9.03-1.98 11.07-6.93.81-1.96 1.8-3.86 2.46-5.87 1.89-5.7 3.64-11.46 5.6-17.7zm28.48-7.25c.12 1.06.14 1.82.3 2.55 1.96 8.93 3.94 17.86 5.92 26.79 1.56 7.01 1.57 7.04 8.87 6.94 7.79-.11 15.4-1.06 22.1-5.45.91-.59 1.83-2.03 1.8-3.04-.22-6.71-2.25-12.89-7.45-17.34-8.96-7.68-19.8-10.15-31.54-10.45z"/><path d="m157.4 139.02c-9.61 8.4-18.73 16.31-27.77 24.31-5.61 4.97-9.96 10.87-12.58 17.95-.31.84-.59 1.69-.84 2.55-.08.3-.01.64-.01 1.28 5.17 0 10.29.08 15.41-.07.98-.03 1.99-.92 2.88-1.56 6.44-4.64 12.86-9.32 20.06-14.55-.66 1.52-.96 2.23-1.27 2.93-4.63 10.72-12.62 18.68-21.94 25.19-3.04 2.13-7.5 2.33-11.37 3.12-1.7.35-3.58-.21-5.33.01-4.47.55-7.4 4.46-7.1 8.94 1.05 15.74 2.03 31.49 3.03 47.24.67 10.6 1.89 21.2 1.89 31.79-.01 16.49-1.95 32.84-6.72 48.7-4.13 13.73-11.06 25.86-21.92 35.51-.56.5-1.18.94-1.77 1.41-.34-.17-.68-.35-1.01-.52 2.44-5.26 4.42-10.8 7.44-15.71 4.17-6.77 5.27-14.14 5.98-21.74 2.74-29.4.52-58.84.62-88.25.06-17.23-.37-34.47-.64-51.7-.02-1.25-.22-2.83-.98-3.68-6.87-7.67-7.89-16.49-5.46-26.07.33-1.3.78-2.6.89-3.92 1.04-12.22 8.45-19.92 18.66-25.09 8.15-4.12 16.75-7.36 25.19-10.9.81-.34 1.96-.19 2.87.06 2.48.68 4.9 1.52 7.88 2.47-1.07.74-1.78 1.32-2.56 1.76-8.36 4.75-16.7 9.54-25.12 14.18-10.06 5.54-14.09 14.53-14.71 25.44-.05.82 1.27 1.99 2.22 2.52 1.32.75 2.55 1.06 4-.63 4.58-5.33 9.09-10.83 14.35-15.43 10.11-8.81 22.24-13.92 35.73-17.54z"/><path d="m311.04 368.45c-1.16-.62-2.62-.98-3.45-1.9-17.85-19.84-29.36-42.74-33.89-69.17-2.16-12.61-.15-24.96 1.14-37.4 1.16-11.22 2.79-22.43 3.26-33.68.25-5.91-1.42-11.92-2.43-17.84-.69-4.03-3.66-6.59-7.15-7.84-5.63-2.02-11.45-4.46-17.29-4.72-15.34-.68-20.07-9.59-22.41-21.68-.31-1.62-.4-3.29-.7-5.87 9.17 9.61 19.3 15.51 32.73 14.82-1.6-5.42-3.08-10.66-4.75-15.83-.27-.84-1.34-1.45-2.11-2.09-7.89-6.61-15.79-13.2-23.69-19.8-1.09-.91-2.15-1.85-4-3.44 5.26 0 9.56-.12 13.84.09 1.06.05 2.14 1.09 3.08 1.84 9.67 7.78 19.32 15.61 28.98 23.41.93.75 1.91 1.44 3.36 2.52-.43-7.1-.74-13.64-1.31-20.15-.09-1-1.23-2.03-2.1-2.81-7.5-6.71-15.06-13.37-22.59-20.05-.8-.71-1.54-1.47-2.76-2.63 6.41-.14 11.87 1.23 17.06 3.54 12.83 5.7 22.68 14.24 26.23 28.5.37 1.49.54 3.09.48 4.63-1.46 38.9-2.91 77.8-4.49 116.7-.24 5.97.21 11.64 2.14 17.42 7.74 23.08 15.11 46.29 22.61 69.46.34 1.04.63 2.1.94 3.15-.23.27-.48.55-.73.82z"/><path d="m161.3 243.91c-6.56 2.69-13.05 5.59-19.72 7.99-4.58 1.65-6.02 2.79-5.54 7.66.38 3.86 1.39 7.67 2.42 11.42.23.82 1.62 1.7 2.61 1.89 7.35 1.42 14.73 2.67 22.11 3.98.97.17 1.94.39 3.42.7-4.86 4.83-10.25 7.48-16.56 7.86-5.35.32-10.74.26-16.1.08-1.18-.04-2.6-1.1-3.43-2.09-7.32-8.69-10.66-19.01-11.77-30.13-1.14-11.51-.83-22.99 1.15-34.43.53-3.06 2.11-4.99 4.06-7.26 5.46-6.37 11.75-7.22 19.39-5 4.95 1.44 10.18 1.9 15.51 2.83-5.74 2.93-11.21 5.38-16.34 8.41-6.61 3.92-9.08 9.99-7.45 17.47.23 1.04 1.57 2.39 2.62 2.62 7.74 1.73 15.53 3.21 23.31 4.78.09.41.2.82.31 1.22z"/></g><path d="m6.4 11.7c-1-.8-1.9-1.6-2.9-2.3l.6-.7c.9.7 1.9 1.4 2.9 2.2zm-2.1 8.3c.7-2.1 1.4-4.2 2-6.4.2.1.6.3 1 .4-.7 2.3-1.3 4.4-1.9 6.4zm3-12.8c-1.1-.9-2.1-1.7-2.9-2.4l.6-.7c1 .8 2 1.5 3 2.4zm1.4-1.3v-.9h10.2v.9c-.9 4.2-2.3 7.3-4.1 9.4 1.3 1.4 3.2 2.7 5.7 4-.2.2-.4.5-.7.9-2.5-1.4-4.4-2.7-5.7-4.2-1.4 1.5-3.5 3-6.1 4.4 0 0 0 0-.1-.1-.3-.4-.5-.7-.7-.8 2.7-1.3 4.7-2.8 6.2-4.2-1.8-2.2-3-5.3-3.7-9.4zm9.2 0h-7.1c.6 3.8 1.7 6.7 3.4 8.7 1.7-2 2.9-4.8 3.7-8.7z" fill="#fbfafa"/><path d="m31.6 3.6h.9v2.3h4.1v9.1h1.7v.9h-16.6v-.9h1.7v-9.1h4.1v-2.3h.9v2.3h3.1v-2.3zm-4 13.3.6.8c-1.9.9-3.8 1.9-5.8 2.8-.2-.3-.3-.6-.5-.9 2-.9 3.9-1.8 5.7-2.7zm-3.2-10.1v3.7h3.1v-3.7zm0 4.5v3.7h3.1v-3.7zm4.1-4.5v3.7h3.1v-3.7zm0 4.5v3.7h3.1v-3.7zm9.1 9.1c-2.1-1.1-4.1-2-5.8-2.7l.5-.8c2.2.9 4.1 1.8 5.8 2.6zm-1.9-13.6h-3.1v3.7h3.1zm-3.2 4.5v3.7h3.1v-3.7z" fill="#fbfafa"/></svg>