<svg enable-background="new 0 0 400 400" viewBox="0 0 400 400" xmlns="http://www.w3.org/2000/svg"><g fill="#fafafb"><path d="m12.4 4.8-6.1 9h6v1.2h-8v-.5l6.1-8.9h-5.7v-1.2h7.6v.4z"/><path d="m14 15v-10.6h3c1.6 0 2.9.5 4 1.4s1.6 2.2 1.6 3.8-.5 3-1.6 3.9-2.4 1.5-4 1.5zm1.4-9.4v8.2h1.6c1.3 0 2.4-.4 3.1-1.1s1.1-1.8 1.1-3.1-.4-2.3-1.2-3-1.8-1-3.1-1z"/><path d="m26.1 4.4v10.6h-1.4v-10.6z"/><path d="m36.1 14.6c-.8.4-1.8.6-2.9.6-1.5 0-2.7-.5-3.6-1.4s-1.4-2.2-1.4-3.8c0-1.7.5-3.1 1.5-4.1s2.3-1.6 3.9-1.6c1 0 1.8.1 2.5.4v1.4c-.8-.4-1.6-.6-2.5-.6-1.2 0-2.1.4-2.9 1.2s-1.1 1.8-1.1 3.2c0 1.3.3 2.3 1 3s1.6 1.1 2.7 1.1c1 0 2-.2 2.7-.7v1.3z"/><path d="m37.6 14.3c0-.2.1-.5.3-.6s.4-.3.6-.3c.3 0 .5.1.6.3s.3.4.3.6-.1.4-.3.6-.4.3-.6.3c-.3 0-.5-.1-.6-.3s-.3-.4-.3-.6z"/><path d="m50.2 15h-1.6l-5.3-8.2c-.2-.2-.3-.5-.4-.7 0 .2.1.7.1 1.5v7.4h-1.4v-10.6h1.7l5.2 8.1c.2.4.4.6.4.7 0-.3-.1-.8-.1-1.5v-7.3h1.4z"/><path d="m58.6 15h-5.7v-10.6h5.5v1.2h-4.1v3.4h3.8v1.2h-3.8v3.6h4.3z"/><path d="m67.1 5.6h-3.1v9.4h-1.4v-9.4h-3v-1.2h7.5z"/></g><path d="m326.71 311.87c-1.15 2.92-2.2 5.73-3.37 8.49-1.99 4.68-5.21 7.35-10.41 8.88-7.67 2.25-15.3 4.15-23.22 3.39-4.69-.45-9.44-1.7-13.83-3.43-5.81-2.27-11.35-5.26-16.9-8.15-2.25-1.17-4.23-2.88-6.71-4.6-6.16 6.64-14.88 4.65-22.75 6.03-.75.13-1.65.19-2.32-.09-8.5-3.59-17.86-5.25-25.39-11.07-.35-.27-.76-.46-1.44-.86-4.81 3.42-9.84 6.75-14.58 10.43-7.28 5.66-15.15 7.77-24.21 5.33-3.1-.83-6.41-.93-9.64-1.27-.73-.08-1.65-.04-2.22.34-3.71 2.49-7.6 4.79-10.95 7.72-3.5 3.06-7.31 5.3-11.8 5.92-10.99 1.51-20.88.03-30.11-7.58-8.74-7.2-14.67-15.78-18.63-25.98-1.48-3.8-1.88-8.02-2.73-11.87-5.25 0-10.49-.21-15.71.05-8.37.41-11.72-1.37-15.47-8.86-1.25-2.5-2.37-5.08-3.82-7.46-1.38-2.27-3.11-4.32-4.96-6.84 3.34.03 5.76.4 7.99 2.88 5.93 6.59 15.71 8.13 23.71 4.21 6.04-2.96 8.84-10.83 6.35-17.07-.85-2.13-1.09-4.55-1.32-6.87-1.37-13.68-11.86-20.33-24.87-15.63-.94.34-1.86 1.17-2.41 2.02-.96 1.49-1.76 3.13-2.4 4.79-2.02 5.27-6.05 7.8-12.31 8.84 0-2.11-.41-4.2.08-6.04 1.06-3.98 2.56-7.85 3.94-11.75.21-.6.65-1.2 1.14-1.61 10.67-9.11 22.6-12.82 36.39-8.39 5.91 1.9 9.22 6.66 11.64 11.76 2.42 5.12 3.93 10.69 5.59 16.14.6 1.98.74 4.17.7 6.26-.33 14.53 1.09 28.84 5.46 42.75 2.59 8.23 7.32 14.78 15.41 18.49 2.41 1.11 4.68 1.5 7.36.49 5.11-1.94 10.34-3.6 15.6-5.12 2.48-.72 3.21-2.11 2.82-4.41-.22-1.32-.33-2.71-.84-3.92-4.29-10.11-4.81-20.7-5.11-31.53-.5-17.55-1.96-35.08-2.98-52.62-.17-3.02-.32-6.05-.19-9.06.33-7.64-2.97-13.48-8.47-18.45-9.86-8.93-19.62-17.96-29.42-26.95-19.61 20.45-45.47 11.68-50.53-12.07 5.42 2.68 11.35 2.66 15.8 7.18 5.72 5.82 18.09 5.48 24.09-.15.62-.59.87-1.56 1.47-2.19 1.08-1.13 2.41-2.03 3.42-3.21 2.28-2.65 5.19-5.11 6.47-8.21 2.24-5.4-.92-14.61-5.72-18.1-2.86-2.08-6.04-3.79-9.28-5.22-1.35-.59-3.4-.46-4.81.12-2.89 1.21-5.41.77-8.01-.59-1.28-.67-2.6-1.35-3.98-1.76-2.08-.62-3.94-.62-5.89 1.02-5.99 5.05-13.05 6.56-20.73 5.43-.44-.07-.92-.06-1.31-.23-4.4-1.96-8.71-10.75-7.51-16.19 1.43.61 2.94.92 4.04 1.77 5.14 3.96 11.26 4.34 16.45.59 2.67-1.93 2.85-4.87 2.33-7.86-.54-3.08-1.4-6.12-1.72-9.22-1.01-9.66 10.73-19.73 20.25-17.51 1.42.33 2.84.62 4.26.95 3.68.84 4.75 2.48 4.45 6.22-.17 2.12-1.25 3.02-3.13 3.74-5.21 1.99-6.09 6.73-2.09 10.7 1.75 1.73 3.66 3.31 5.35 5.09 2.31 2.44 4.78 4.14 8.39 4.08 1.33-.02 2.93 1.02 3.99 2.02 5.56 5.2 11.04 10.48 16.39 15.89 1.07 1.08 2.06 2.87 2.03 4.31-.13 6.02-.47 12.06-1.13 18.04-.41 3.71.19 6.53 3.03 9.29 6.34 6.16 12.3 12.71 18.41 19.09 3.64 3.8 6.28 3.5 10.71.44 7.71-5.31 15.58-10.47 23.81-14.88 3.41-1.83 7.95-1.58 11.98-2.24 1.86-.3 3.87-.18 5.57-.85 3.42-1.34 4.02-5.7 1.33-8.23-5.71-5.36-11.29-10.87-17.18-16.03-7.62-6.68-8.99-14.99-7.34-24.4.83-4.74 2.33-8.98 5.96-12.4 2.43-2.29 4.34-5.13 6.67-7.54 3.72-3.85 6.39-8.21 8.05-13.34.52-1.6 2.28-3.47 3.83-3.89 2.22-.6 4.12.85 5.27 3.16 4.85 9.73 12.08 17.41 20.95 23.58 10.28 7.15 13.42 17.33 12.74 29.26-.14 2.45-.9 3.86-3.48 4.41-10.04 2.13-13.36 14.29-13.11 21.07.03.72 1.47 1.73 2.43 2.02 11.75 3.62 23.49 7.26 35.31 10.63 5.33 1.52 9.84 4.14 13.62 8.12 2.66 2.81 5.55 5.21 9.55 5.83 1.96.31 3.47.05 5.02-1.62 8.71-9.4 12.35-21.06 15.21-33.12 2.48-10.46 2.96-20.92 1.63-31.63-1.72-13.81 1.42-26.15 13.52-34.62 3.72-2.6 7.96-4.5 12.04-6.57 3.99-2.02 8.08-3.84 12.13-5.73 2.99-1.4 4.85-3.57 5.93-6.83.82-2.48 2.73-4.61 4.31-7.15 3.33 2.16 6.03 3.74 8.54 5.57 3.93 2.87 3.49 8.84-.85 11.06-9.25 4.75-18.36 9.82-27.9 13.92-12.2 5.25-16.87 12.84-15.53 27.9.91 10.19 8.03 14.74 18.01 12.06 8.44-2.27 15.83-5.83 20.57-13.78.86-1.45 3.71-2.21 5.72-2.39 7.36-.65 8.59.5 9.29 7.99.23 2.44.24 4.92.1 7.36-.15 2.55-.59 5.08-.93 7.8-3.63.18-7.07 1.56-9.32-2.9-1.31-2.61-4.07-2.7-6.8-1.49-6.18 2.75-12.39 5.45-18.65 8.03-1.4.58-3.04.74-4.57.77-1.43.03-2.88-.33-4.31-.58-6.56-1.16-7.9.01-8.72 6.47-.41 3.23-.99 6.79-2.7 9.41-3.06 4.66-3.47 9.62-3.3 14.76.15 4.36-.83 8.1-3.89 11.31-1.38 1.45-2.58 3.12-3.6 4.85-3.35 5.72-8 9.81-14.38 11.77-2.39.73-2.56 2.13-2.09 4.34 1.54 7.22 3.12 14.44 4.16 21.74.56 3.94.2 8.03-.01 12.04-.48 9.28-1.18 18.54-1.66 27.82-.12 2.32-.1 4.78.54 6.97 1.7 5.81-.45 11.29-.92 16.92-.4 4.79-.72 9.58-1.04 14.38-.18 2.65.78 4.66 3.05 6.26 8.75 6.13 18.06 9.99 29.09 8.95 9.03-.86 12.32-5.95 12.52-14.15.5-20 10.04-35.72 22.3-50.09 10.23-11.99 23.58-10.62 35.27-5.38 1.51.67 2.64 3.04 3.15 4.85.53 1.89-.77 2.99-2.95 2.94-4.81-.1-9.64.17-14.44-.09-4.43-.24-8.18 1.16-11.43 3.93-8.05 6.87-13.71 15.42-14.18 26.08-.52 11.59 9.67 17.07 19.94 14.23.96-.27 1.89-1.8 2.24-2.92 1.92-6.24 1.26-12.33-1.16-18.36-.69-1.73-.61-3.77-.88-5.67 1.95.44 4.01.6 5.81 1.38 2.45 1.06 4.69 2.6 7.03 3.9 5.63 3.13 9.31 11.76 7.15 17.88-1.32 3.77-3.05 7.54-5.38 10.74-1.35 1.86-4.12 2.97-6.47 3.78-7.75 2.69-15.64 3.56-23.67.94-2.06-.7-4.29-.99-6.68-1.5zm-137.8-60.61c-13.42 0-26.59-.06-39.75.06-2.07.02-4.15.76-6.2 1.26-1.83.45-2.41 1.53-1.96 3.48.86 3.7 1.53 7.44 2.17 11.18 1.69 10.02 3.99 19.99 4.74 30.08.55 7.34 2.59 12.39 9.56 15.63 6.56 3.05 12.53 3.13 18.25-1.22 4-3.04 7.58-6.61 11.49-9.76 4.74-3.81 6.38-8.89 6.8-14.69.88-12.24-1.81-23.96-5.1-36.02zm-7.5-71.05c-3.72.86-7.26 1.24-10.43 2.52-6.2 2.51-12.2 5.51-18.27 8.36-.99.46-2.12.98-2.75 1.8-4.93 6.47-10.17 12.73-10.98 21.41-.63 6.81-1.5 13.56.43 20.29.6 2.09 1.53 3.6 4.11 3.49 10.47-.43 20.96-.5 31.4-1.27 4.49-.33 8.92-1.89 13.28-3.22.94-.29 2.18-2.12 2.03-3.03-2.75-16.4-5.7-32.77-8.82-50.35zm17.4 2.27c.05.61.07 1.04.12 1.47 1.48 12.75 3.02 25.48 4.42 38.24 1.41 12.85-.05 11.27 12.22 13.3.22.04.44.08.66.1 10.39.66 20.75.96 30.98-1.64 2.9-.74 4.05-2 4.05-5.27-.01-16.07-5.69-29.87-16-41.93-.78-.91-2.17-1.51-3.39-1.79-6.64-1.52-13.41-2.53-19.93-4.43-4.91-1.45-8.86.29-13.13 1.95zm52.99 89.35h.04c0-4.92-.22-9.86.08-14.76.19-3.11-1.08-4.09-3.87-4.42-12.61-1.52-25.13-1.94-37.64 1.09-2.74.66-3.35 1.58-3.12 4.15.77 8.57 1.24 17.18 2.1 25.74.19 1.9 1.1 4.1 2.41 5.45 2.48 2.54 4.43 5.2 5.47 8.63.38 1.25 1.43 2.48 2.49 3.31 1.92 1.52 3.95 3.05 6.17 4.01 5.11 2.19 10.5 3.75 15.72.56 5.57-3.41 9.59-8.29 10.06-15.02.43-6.23.09-12.5.09-18.74z" fill="#010105"/></svg>