<svg enable-background="new 0 0 400 400" viewBox="0 0 400 400" xmlns="http://www.w3.org/2000/svg"><g fill="#fafafb"><path d="m12.4 4.8-6.1 9h6v1.2h-8v-.5l6.1-8.9h-5.7v-1.2h7.6v.4z"/><path d="m14 15v-10.6h3c1.6 0 2.9.5 4 1.4s1.6 2.2 1.6 3.8-.5 3-1.6 3.9-2.4 1.5-4 1.5zm1.4-9.4v8.2h1.6c1.3 0 2.4-.4 3.1-1.1s1.1-1.8 1.1-3.1-.4-2.3-1.2-3-1.8-1-3.1-1z"/><path d="m26.1 4.4v10.6h-1.4v-10.6z"/><path d="m36.1 14.6c-.8.4-1.8.6-2.9.6-1.5 0-2.7-.5-3.6-1.4s-1.4-2.2-1.4-3.8c0-1.7.5-3.1 1.5-4.1s2.3-1.6 3.9-1.6c1 0 1.8.1 2.5.4v1.4c-.8-.4-1.6-.6-2.5-.6-1.2 0-2.1.4-2.9 1.2s-1.1 1.8-1.1 3.2c0 1.3.3 2.3 1 3s1.6 1.1 2.7 1.1c1 0 2-.2 2.7-.7v1.3z"/><path d="m37.6 14.3c0-.2.1-.5.3-.6s.4-.3.6-.3c.3 0 .5.1.6.3s.3.4.3.6-.1.4-.3.6-.4.3-.6.3c-.3 0-.5-.1-.6-.3s-.3-.4-.3-.6z"/><path d="m50.2 15h-1.6l-5.3-8.2c-.2-.2-.3-.5-.4-.7 0 .2.1.7.1 1.5v7.4h-1.4v-10.6h1.7l5.2 8.1c.2.4.4.6.4.7 0-.3-.1-.8-.1-1.5v-7.3h1.4z"/><path d="m58.6 15h-5.7v-10.6h5.5v1.2h-4.1v3.4h3.8v1.2h-3.8v3.6h4.3z"/><path d="m67.1 5.6h-3.1v9.4h-1.4v-9.4h-3v-1.2h7.5z"/></g><path d="m179.39 290.21c-1.07-7.52-1.95-13.95-2.93-20.36-.12-.76-.67-1.75-1.31-2.07-4.07-2.06-8.17-4.1-12.38-5.83-1.46-.6-3.47-.83-4.92-.33-9.25 3.22-19 2.68-28.46 4.18-12.14 1.93-24.14 4.72-36.29 6.52-7.37 1.09-14.9 1.21-22.37 1.41-12.08.32-24.16.5-36.24.41-3.39-.03-6.78-1.18-10.15-1.92-2.46-.54-2.81-2.59-2.23-4.45.3-.97 1.76-1.99 2.86-2.24 7.2-1.63 14.39-3.42 21.68-4.43 6.95-.96 14.01-1.23 21.03-1.48 20.18-.72 40.05-3.97 59.92-7.15 6.4-1.02 12.8-2.14 19.11-3.58 7.87-1.8 13.73-6.36 18.32-13.13 3.42-5.04 7.87-9.37 11.9-13.99 2.11-2.42 4.66-2.3 6.84-.4 2.43 2.12 4.53 4.62 6.63 7.08.48.57.4 1.65.48 2.51.58 5.87 1.07 11.75 1.74 17.61.15 1.29.79 2.56 1.41 3.74 2.17 4.12 3.58 4.12 7.37 1.59 6.14-4.11 9.32-9.85 12.06-16.6 7.26-17.9 15.47-35.41 23.05-53.18 3.1-7.27 5.52-14.83 8.33-22.22 1.3-3.42 2.52-6.93 4.27-10.12 4.36-7.94 9.41-15.52 13.44-23.61 6.95-13.92 18.32-22.98 31.67-29.82 8.23-4.21 16.94-7.49 25.44-11.19.82-.36 1.72-.59 2.43-1.09 11.89-8.33 26.25-10.47 39.36-15.73 2.79-1.12 8.5 1.36 10.2 3.84 1.68 2.46.97 6.25-1.93 7.4-4.95 1.97-10.02 3.8-15.2 4.97-5.74 1.29-11.1 3.02-16.02 6.38-11.38 7.76-23.45 14.3-35.82 20.37-5.57 2.74-10.76 6.4-15.7 10.2-2.73 2.1-5.08 5.07-6.73 8.13-9.2 17.01-18.53 33.97-26.99 51.35-4.13 8.48-6.8 17.73-9.52 26.81-4.16 13.9-7.77 27.94-12.71 41.63-3.04 8.44-7.41 15.69-13.47 22.11-4.23 4.48-8.3 9.1-12.64 13.47-2.71 2.73-4 5.76-3.69 9.6.63 7.69 1.14 15.39 1.69 23.09.1 1.45.26 2.92.13 4.35-.6 6.48-5.14 8.64-10.57 4.91-6.55-4.49-13-9.13-19.39-13.85-1.85-1.37-3.53-1.69-5.84-1.37-17.83 2.4-35.65 4.88-53.53 6.78-19.67 2.09-39.38 3.98-59.12 5.18-8.17.5-16.48-.84-24.68-1.73-2.03-.22-4.25-1.58-5.76-3.06-2.31-2.25-1.27-4.34 1.87-5 20.28-4.27 40.93-3.6 61.43-4.98 9.75-.66 19.4-2.98 29.05-4.77 9.12-1.7 18.15-3.88 27.28-5.5 8.02-1.42 16.17-2.14 24.18-3.63 3.21-.6 6.29-2.24 9.21-3.81 1.17-.65 1.78-2.38 2.21-3z" fill="#010105"/></svg>