<svg enable-background="new 0 0 400 400" viewBox="0 0 400 400" xmlns="http://www.w3.org/2000/svg"><path d="m361.2 9.6.8-1c.9.7 1.9 1.4 2.9 2.3l-.9 1.1c-1-1-2-1.8-2.8-2.4zm.5 10.6c.9-2.1 1.6-4.3 2.3-6.7.4.2.8.4 1.3.6-.7 2.1-1.5 4.3-2.2 6.6zm.4-15.2.9-.9c1 .8 2 1.6 2.8 2.4l-1 1c-.9-.9-1.8-1.7-2.7-2.5zm12.5-1.2h1.2v1.4h2.7v1.1h-2.7v2.7h-1.2v-.6h-1.8v1.3h4.9v3.8h-1.2v-.5h-3.7c0 .4-.1.9-.1 1.2h5.1v1h-5.2c0 .5-.1.9-.2 1.2h6v1h-5.2c1.1 1.3 2.9 2 5.5 2.2-.4.4-.7.8-.9 1.3-2.9-.5-4.8-1.6-5.7-3.5h-.1c-.8 1.7-2.7 2.9-5.9 3.6-.2-.4-.6-.8-.9-1.1 2.8-.6 4.6-1.4 5.4-2.5h-4.8v-1h5.3c.1-.3.2-.7.2-1.2h-4.9v-1h5c0-.4 0-.8.1-1.2h-3.5v.5h-1.2v-3.8h4.9v-1.3h-1.8v.5h-1.2v-2.7h-2.7v-1h2.6v-1.4h1.2v1.4h4.7v-1.4zm-6.6 8.3h3.6c0-.4 0-.9 0-1.4h-3.6zm1.9-4.6h4.7v-1.3h-4.7zm6.6 3.2h-3.7v1.4h3.7z" fill="#fbfcfa"/><path d="m385.3 3.8h1.3v2.2h2.8v-2.2h1.3v2.2h4.1v9.1h1.7v1.3h-16.9v-1.3h1.7v-9.1h4.1v-2.2zm.4 13.1.7 1.2c-1.8.9-3.8 1.9-6 2.9-.2-.4-.5-.8-.8-1.3 2.3-1 4.3-1.9 6.1-2.8zm-3.1-6.4h2.8v-3.2h-2.8zm0 4.6h2.8v-3.3h-2.8zm4-4.6h2.8v-3.2h-2.8zm0 4.6h2.8v-3.3h-2.8zm3.7 1.9c2.1.9 4.1 1.8 6.1 2.7l-.7 1.3c-2.2-1.1-4.2-2-6.1-2.9zm3.2-9.7h-2.8v3.2h2.8zm-2.8 7.8h2.8v-3.3h-2.8z" fill="#fbfcfa"/><path d="m47.22 374.93c0-2.87-.07-5.32.02-7.77.14-3.73.03-7.33-2.11-10.65-.59-.91-.56-2.37-.47-3.55 1.48-18.07 3.39-36.11 4.43-54.2.89-15.52.79-31.1 1.13-46.65.62-27.86 1.23-55.72 1.89-83.58.03-1.42.42-2.87.89-4.22 3.24-9.52 6.5-19.03 9.86-28.51.5-1.42 1.47-2.69 2.33-3.96 1.89-2.76 3.94-5.42 5.74-8.24 1.68-2.63 3.12-5.42 4.67-8.14 3.92-6.89 8.83-12.65 15.73-16.99 12.4-7.8 24.4-16.23 36.52-24.48 1.44-.98 2.76-2.29 3.76-3.71 9.78-13.92 19.47-27.89 29.2-41.84.69-.99 1.42-1.95 2.09-2.87 4.72 1.64 7.47 5.32 7.34 10.97-.11 5-1.08 9.97-1.55 14.97-.3 3.22-.7 6.48-.45 9.68.51 6.45 4.49 9.25 10.83 7.98 15.68-3.14 31.31-6.53 47.05-9.35 4.76-.85 9.79-.27 14.69-.23 14.9.12 29.76.77 44.3 4.37 12.34 3.05 24.99 5.31 35.73 12.85 8.36 5.87 14.47 13.65 18.89 22.72 1.29 2.64 1.48 5.82 2.18 8.75 1.93 8.15 4.66 16.21 5.59 24.47 1.22 10.86 1.26 21.87 1.36 32.82.17 19.7-.04 39.41.01 59.11.01 2.26-.56 3.72-2.59 4.88-2.98 1.71-5.78 3.75-9.5 6.21-.9-7.11-1.95-13.55-2.48-20.04-.56-6.84-1.38-13.51-4.35-19.84-1.59-3.4-3.84-4.46-7.38-4.11-13.47 1.32-26.93 2.68-40.43 3.64-4.74.34-9.56-.41-14.33-.7-3.68-.23-7.38-.92-11.03-.71-16.02.94-29.48-9.75-33.62-24.03-5.28-18.24-10.4-36.53-15.47-54.83-.26-.93.42-2.87 1.16-3.18 3.85-1.65 7.77-3.55 11.84-4.17 4.81-.73 9.81-.25 14.72-.27.65 0 1.39.04 1.94.33 6.46 3.42 11.52 14.79 9.64 21.68-.32 1.15-.82 2.34-1.53 3.29-7.12 9.55-5.09 19.63-1.78 29.77.25.75 1.14 1.33 1.81 1.91 10.8 9.26 23.1 13.05 37.33 10.88 10.83-1.66 21.74-2.76 32.63-4.01 6.29-.72 8.68-3.12 7.87-9.38-.66-5.16-2.17-10.2-3.24-15.31-1.97-9.39-2.75-19.22-6.07-28.11-5.9-15.77-18.02-25.41-34.48-29.38-.74-.18-1.58-.31-2.31-.16-7.97 1.6-15.77.16-23.62-1.09-2.35-.37-4.91-.33-7.24.17-9.29 2.01-18.49 4.39-27.78 6.37-3.26.69-5.86 1.94-7.58 4.82-1.03 1.71-2.29 2.42-4.44 1.71-7.33-2.43-14.34.66-21.48 1.5-4 .47-7.97 1.18-11.97 1.6-5.87.61-11.54-.13-17.07-2.42-3.23-1.34-6.72-2.62-10.74.07 3.11 4.87 6.12 9.65 9.19 14.39 11.38 17.56 16.04 36.65 11.66 57.23-1.44 6.75-5.23 13.01-8.02 19.47-.29.66-1.03 1.15-1.63 1.65-6.78 5.67-13.57 11.35-20.39 16.97-1.02.84-2.22 1.51-3.41 2.09-16.44 7.86-32.89 15.68-49.34 23.52-1.11.53-2.23 1.04-3.31 1.63-4.4 2.43-7.32 5.37-7.56 11.16-.52 12.74-1.87 25.44-3.03 38.14-.24 2.64-.76 5.36-1.75 7.8-4.87 12.09-6.37 24.81-7.63 37.64-1.06 10.79-2.43 21.55-3.95 32.29-.61 4.67-3.81 7.55-8.91 9.18zm83.74-212.72c.18-.05.36-.1.54-.15-1.37-8.35-2.16-16.85-4.28-25.01-1.72-6.64-3.13-14.44-12.29-15.47-1.34-.15-3.13.06-4.09.86-8.8 7.25-17.49 14.63-26.13 22.08-1.11.95-2.01 2.4-2.48 3.79-3.13 9.31-6.13 18.66-9.12 28.01-.33 1.04-.75 2.26-.5 3.24 1.94 7.67.62 15.24-.04 22.91-.45 5.23.01 10.71 1.09 15.86 1.02 4.85 4.39 5.31 8.17 2.02 2.17-1.89 4.44-3.86 7.01-5.05 13.51-6.26 24.81-15.28 34.94-26.12 3.7-3.96 5.56-8.22 6.1-13.3.48-4.53.73-9.11 1.08-13.67z" fill="#010105"/></svg>