<svg enable-background="new 0 0 400 400" viewBox="0 0 400 400" xmlns="http://www.w3.org/2000/svg"><path d="m361.2 9.6.8-1c.9.7 1.9 1.4 2.9 2.3l-.9 1.1c-1-1-2-1.8-2.8-2.4zm.5 10.6c.9-2.1 1.6-4.3 2.3-6.7.4.2.8.4 1.3.6-.7 2.1-1.5 4.3-2.2 6.6zm.4-15.2.9-.9c1 .8 2 1.6 2.8 2.4l-1 1c-.9-.9-1.8-1.7-2.7-2.5zm12.5-1.2h1.2v1.4h2.7v1.1h-2.7v2.7h-1.2v-.6h-1.8v1.3h4.9v3.8h-1.2v-.5h-3.7c0 .4-.1.9-.1 1.2h5.1v1h-5.2c0 .5-.1.9-.2 1.2h6v1h-5.2c1.1 1.3 2.9 2 5.5 2.2-.4.4-.7.8-.9 1.3-2.9-.5-4.8-1.6-5.7-3.5h-.1c-.8 1.7-2.7 2.9-5.9 3.6-.2-.4-.6-.8-.9-1.1 2.8-.6 4.6-1.4 5.4-2.5h-4.8v-1h5.3c.1-.3.2-.7.2-1.2h-4.9v-1h5c0-.4 0-.8.1-1.2h-3.5v.5h-1.2v-3.8h4.9v-1.3h-1.8v.5h-1.2v-2.7h-2.7v-1h2.6v-1.4h1.2v1.4h4.7v-1.4zm-6.6 8.3h3.6c0-.4 0-.9 0-1.4h-3.6zm1.9-4.6h4.7v-1.3h-4.7zm6.6 3.2h-3.7v1.4h3.7z" fill="#fbfcfa"/><path d="m385.3 3.8h1.3v2.2h2.8v-2.2h1.3v2.2h4.1v9.1h1.7v1.3h-16.9v-1.3h1.7v-9.1h4.1v-2.2zm.4 13.1.7 1.2c-1.8.9-3.8 1.9-6 2.9-.2-.4-.5-.8-.8-1.3 2.3-1 4.3-1.9 6.1-2.8zm-3.1-6.4h2.8v-3.2h-2.8zm0 4.6h2.8v-3.3h-2.8zm4-4.6h2.8v-3.2h-2.8zm0 4.6h2.8v-3.3h-2.8zm3.7 1.9c2.1.9 4.1 1.8 6.1 2.7l-.7 1.3c-2.2-1.1-4.2-2-6.1-2.9zm3.2-9.7h-2.8v3.2h2.8zm-2.8 7.8h2.8v-3.3h-2.8z" fill="#fbfcfa"/><g fill="#010105"><path d="m140.33 91.05c6.08 5.72 11.59 11.45 17.66 16.48 7.59 6.29 10.16 14.38 10.15 23.76-.01 4.25-.09 8.51.13 12.75.11 2.06.83 4.08 1.3 6.12.17.75.74 1.55.6 2.21-1.78 8.05-4.33 15.78-10.57 21.6-4.33 4.05-8.89 7.86-13.4 11.71-1 .85-2.2 1.52-3.4 2.09-15.15 7.18-30.29 14.36-45.49 21.44-1.76.82-3.78 1.2-5.73 1.48-5.32.74-10.66 1.32-16.47 2.02-3.09-4.28-2.55-5.92 2.18-9.43 12.83-9.53 25.66-19.08 38.07-29.14 6.54-5.31 11.34-12.3 14.69-20.18 2.59-6.1 2.98-12.35 1.53-18.72-2.23-9.8-6.18-18.88-11.81-27.21-2.81-4.16-8.44-5.22-13.87-3.82-12.93 3.33-19.79 13.15-25.9 23.69-3.35 5.78-7.06 11.76-8.52 18.13-2.67 11.67-8.11 22.12-12.13 33.18-.89 2.45-.3 5.51-.09 8.26.51 6.78-3.58 10.85-10.4 9.9-.86-.12-2.21-1.58-2.2-2.41.09-15.11-.3-30.26.84-45.3.57-7.51 3.42-15.05 6.28-22.15 4.96-12.28 12.92-22.77 22.56-31.74 4.62-4.3 10.3-7.46 15.55-11.06 9.77-6.71 19.57-13.39 29.39-20.04 1.18-.8 2.5-1.63 3.86-1.91 10-2.04 17.06-8.55 23.68-15.6 6.8-7.26 13.33-14.77 20.01-22.21 5.61 2.16 9.88 5.52 12.72 10.63 3.7 6.64 7.41 13.22 8.31 21.03.48 4.16 3 5.08 7.08 5.18 5.87.14 11.71 1.2 17.58 1.75 2.32.22 4.81.67 6.99.12 13.3-3.36 26.48-1.32 39.66.55 5.75.82 11.43 2.13 17.16 3.11 13.96 2.4 24.23 10.62 32.69 21.28 8.19 10.32 13.98 22.07 18.53 34.41 1.7 4.61 3.32 9.26 5.15 13.82 2.51 6.25 4.73 12.53 4.55 19.42-.24 8.89 2.69 17.16 5.16 25.51.41 1.37.8 2.85.73 4.26-.82 15.68-.13 31.3 1.21 46.93.24 2.78-.71 5.73-1.47 8.5-.59 2.13-2.28 1.64-3.32.39-1.91-2.31-3.73-4.73-5.26-7.3-1.88-3.15-2.99-6.85-5.22-9.7-3.36-4.29-4.67-8.97-4.94-14.22-.1-2.02.62-4.7-2.72-5.21-.33-.05-.59-1.13-.72-1.77-1.9-9.81-6.19-18.58-11.39-27.01-.87-1.41-1.16-3.37-1.2-5.08-.1-4.66-.78-9.09-3.31-13.14-3.57-5.72-3.87-12.37-4.56-18.73-1.29-11.88-7.06-21.28-14.9-29.7-4.34-4.67-8.85-9.2-13.47-13.6-1.37-1.31-3.27-2.21-5.08-2.89-5.1-1.92-10.43-3.3-15.39-5.52-3.88-1.73-7.64-2.75-11.9-2.6-6.49.23-13-.22-19.47.13-8.57.47-17.11 1.47-25.67 2.16-2.2.18-4.47.34-6.64.03-12.99-1.91-25.79-1.96-38.46 2.28-3.15 1.06-6.79.71-10.93 1.08z"/><path d="m180.58 287.97c14.61 1 28.32 2.29 42.06 2.76 8.15.28 15.61 2.31 22.9 5.6 13.43 6.07 26.27 13.06 36.41 24.06 5.91 6.41 11.87 12.79 17.36 19.55 2.05 2.52 2.82 6.07 4.28 9.37-3.47 1.09-5.51.72-7.59-1.2-10.16-9.37-21.8-16.24-34.9-20.81-8.11-2.83-16.1-6.11-23.92-9.67-4.34-1.98-8.57-2.56-13.26-2.43-13.63.38-27.26.32-40.89.61-2.95.06-6.02.49-8.8 1.43-7.83 2.66-15.89 4.98-23.18 8.74-6.86 3.54-13.88 6.07-21.29 7.84-4.02.96-8.03 2.04-12.1 2.73-10.81 1.82-20.39 6.47-29.47 12.36-4.88 3.16-9.81 6.26-14.61 9.54-1.33.91-2.4 2.29-3.39 3.6-5 6.62-11.64 10.6-19.99 12.61.1-6.9 1.79-13.18 4.05-19.35 1.33-3.64 3.41-6.66 6.43-9.2 4.1-3.46 8.17-7.02 11.82-10.95 5.25-5.65 11.66-8.98 18.76-11.76 11.75-4.6 23.22-9.91 34.73-15.11 4.29-1.94 8.44-3.69 13.27-4.25 8.63-1 16.57-4.37 24.24-8.47 2.12-1.13 4.88-1 7.11-1.99 1.42-.63 2.4-2.26 4.03-3.88-5.99-2.54-7.04-6.67-6.3-11.69.51-3.46-.42-6.59-3.41-8.54-1.33-.87-3.41-1.5-4.87-1.13-12.17 3.1-24.42 3.93-36.92 2.48-4.28-.5-8.69.05-13.03.13-2.89.05-4.2-1.62-4.71-4.24-1.12-5.68-.14-8.39 4.99-10.98 4.56-2.31 9.32-4.34 14.17-5.96 12.16-4.08 24.41-7.87 37.17-11.94-1.14-2.41-2.35-4.98-3.59-7.53-2.71-5.62-5.81-11.08-7.96-16.91-.88-2.38.16-5.56.61-8.32.4-2.44 2.16-3.74 4.57-4.27 3.86-.85 7.18-4.11 11.73-1.83 5.95 2.98 10.71 6.95 12.85 13.41 1.08 3.28 1.79 6.68 2.62 10.04 1.48 5.98 3.23 7.67 9.29 7.33 3.72-.21 7.64-.86 11.03-2.34 10.79-4.71 20.58-1.1 30.24 3.17 4.5 1.99 4.37 6.87.53 9.94-7.82 6.25-16.92 9.35-26.48 11.58-9.81 2.29-16.54 7.65-17.47 18.45-.1 1.21-.42 2.46-.93 3.55-1.21 2.62-2.48 5.22-3.93 7.72-1.17 1.97-2.61 3.78-4.26 6.15z"/><path d="m196.73 129.1c1.23-5.61 3.02-14 4.95-22.35.19-.82 1.16-1.59 1.95-2.11 2.32-1.55 4.74-2.97 7.11-4.44 5.74-3.56 16.31-1.52 20.43 3.94 2.72 3.61 2.25 7.58 1.23 11.56-1.94 7.58-3.82 15.18-5.97 22.69-1.28 4.46-1.32 8.62.46 13 1.97 4.86 3.55 9.89 5.04 14.92.69 2.33 1.97 3.8 4.04 4.97 10.34 5.85 21.6 8.43 33.28 9.52 6.49.61 12.89 1.44 18.48 5.24 5.02 3.42 7.68 8.25 8.89 14.07.42 2.02-.1 3.32-2.1 3.77-1.94.43-4.05 1.25-5.88.88-10.11-2.02-20.3-1.03-30.45-1.08-9.85-.05-19.58-1.22-28.41-5.54-6.25-3.05-12.97-6.25-15.25-14.03-.49-1.66-1.8-3.07-2.72-4.6-8.79-14.62-14.09-30.34-15.08-50.41z"/></g></svg>