<svg enable-background="new 0 0 400 400" viewBox="0 0 400 400" xmlns="http://www.w3.org/2000/svg"><path d="m286.77 321.2c2.89-10.75 6.89-20.48 13.74-29.11 7.5-9.45 14.22-19.53 21.29-29.32 6.11-8.46 6.13-8.49 8.2-19.53-5.02-.22-10.02-.1-14.94-.71-13.63-1.69-27.17-4.25-40.84-5.41-16.2-1.37-24.35-12.11-31.29-24.65-7.61-13.74-12.21-28.51-14.16-44.09-.15-1.2-.49-2.37-.8-3.79-7.06 0-13.98 0-20.9 0-5.82 0-11.64-.11-17.46.1-1.1.04-2.83 1.11-3.13 2.06-2.3 7.26-3.37 14.51 1.43 21.38 2.49 3.57 3.13 7.54 2.11 11.83-1.37 5.8-3.8 10.86-8.49 14.82-13.67 11.56-28.7 20.89-45.06 28.18-8.09 3.61-16.69 3.95-25.22 4.86-7.89.85-15.81 1.53-23.71 2.25-5.2.48-8.32 3.15-8.44 8.41-.07 3.35.99 6.75 1.75 10.09.29 1.27 1.14 2.42 1.71 3.63 3.79 7.97.28 13.44-8.66 13.38-.83-.01-1.99-.52-2.44-1.18-15.01-21.99-30.02-44.05-39.25-69.24-3.08-8.41-4.15-17.55-6.22-26.34-.34-1.44-.84-3.05-1.8-4.09-1.88-2.03-2.64-4.15-2.54-6.93.2-5.25.16-10.52.01-15.78-.06-2.15.91-3.31 2.33-4.77 8.83-9.13 19.81-12.69 32.15-14.46 18.91-2.7 37.6-6.85 56.47-9.89 9.14-1.47 18.46-1.79 28.31-2.69 0-2.65 0-5.27 0-7.9 0-3.36-.05-6.72.01-10.07.06-2.99.15-5.43-3.19-7.5-4.26-2.65-3.75-12.32.2-15.58 3.54-2.92 7.25-5.64 10.62-8.75 2.01-1.85 4.06-2.01 6.45-1.52 14.74 2.99 24.08 19.22 19.61 34.26-1.08 3.63-2.63 7.13-3.74 10.76-1.69 5.54.01 7.96 5.73 8.39 18.29 1.38 36.65 2.12 54.84 4.27 21.3 2.51 42.52 5.95 63.66 9.64 5.91 1.03 11.55 4.13 17.07 6.79 5 2.42 10 2.98 15.29 1.79 10.22-2.3 18.06 2.8 25.5 8.48 17.7 13.49 22.49 31.83 17.67 52.63-2.22 9.56-7.02 18.52-10.5 27.81-2.74 7.33-6.97 13.6-12.01 19.56-13.87 16.4-27.41 33.09-41.12 49.62-1.78 2.15-3.72 4.19-5.76 6.09-4.23 3.97-9.11 4.21-14.48 2.22zm-161.01-157.16c-8.87-1.03-17.58-.6-26.16 2.2-6.26 2.04-12.64 3.91-19.11 5.05-8.74 1.54-15.75 5.55-21.84 11.91-2.18 2.28-3.03 4.34-2.12 7.06 2.89 8.66 6.09 17.22 8.85 25.92 2.57 8.1 7.94 10.33 16.02 9.72 16.18-1.22 31.86-4.66 47.12-9.9 7.45-2.56 14.49-6.33 21.62-9.77 1.34-.65 2.98-2.24 3.13-3.55.88-7.55 2.29-15.21 1.75-22.71-.9-12.4-4.56-15.26-15.17-15.89-4.69-.27-9.4-.04-14.09-.04zm136.9 5.49c-.08.38-.13.49-.11.59.92 5.28 2.31 10.54 2.66 15.86.51 7.84 3.75 13.72 10.37 17.86 1.22.76 2.12 2.05 3.37 2.75 2.07 1.16 4.22 2.31 6.49 2.96 3.75 1.07 7.67 1.54 11.42 2.61 8.16 2.33 16.21 5.03 24.39 7.27 5.42 1.49 11.04 2.03 16.54.29 1.03-.33 2.26-1.8 2.4-2.88.47-3.76.68-7.57.65-11.36-.11-15.1-7.6-24.27-22.38-27.44-14.86-3.19-29.76-6.16-44.58-9.49-3.96-.89-7.5-.49-11.22.98z" fill="#010000"/><g fill="#fbfcfa"><path d="m361.2 9.6.8-1c.9.7 1.9 1.4 2.9 2.3l-.9 1.1c-1-1-2-1.8-2.8-2.4zm.5 10.6c.9-2.1 1.6-4.3 2.3-6.7.4.2.8.4 1.3.6-.7 2.1-1.5 4.3-2.2 6.6zm.4-15.2.9-.9c1 .8 2 1.6 2.8 2.4l-1 1c-.9-.9-1.8-1.7-2.7-2.5zm12.5-1.2h1.2v1.4h2.7v1.1h-2.7v2.7h-1.2v-.6h-1.8v1.3h4.9v3.8h-1.2v-.5h-3.7c0 .4-.1.9-.1 1.2h5.1v1h-5.2c0 .5-.1.9-.2 1.2h6v1h-5.2c1.1 1.3 2.9 2 5.5 2.2-.4.4-.7.8-.9 1.3-2.9-.5-4.8-1.6-5.7-3.5h-.1c-.8 1.7-2.7 2.9-5.9 3.6-.2-.4-.6-.8-.9-1.1 2.8-.6 4.6-1.4 5.4-2.5h-4.8v-1h5.3c.1-.3.2-.7.2-1.2h-4.9v-1h5c0-.4 0-.8.1-1.2h-3.5v.5h-1.2v-3.8h4.9v-1.3h-1.8v.5h-1.2v-2.7h-2.7v-1h2.6v-1.4h1.2v1.4h4.7v-1.4zm-6.6 8.3h3.6c0-.4 0-.9 0-1.4h-3.6zm1.9-4.6h4.7v-1.3h-4.7zm6.6 3.2h-3.7v1.4h3.7z"/><path d="m385.3 3.8h1.3v2.2h2.8v-2.2h1.3v2.2h4.1v9.1h1.7v1.3h-16.9v-1.3h1.7v-9.1h4.1v-2.2zm.4 13.1.7 1.2c-1.8.9-3.8 1.9-6 2.9-.2-.4-.5-.8-.8-1.3 2.3-1 4.3-1.9 6.1-2.8zm-3.1-6.4h2.8v-3.2h-2.8zm0 4.6h2.8v-3.3h-2.8zm4-4.6h2.8v-3.2h-2.8zm0 4.6h2.8v-3.3h-2.8zm3.7 1.9c2.1.9 4.1 1.8 6.1 2.7l-.7 1.3c-2.2-1.1-4.2-2-6.1-2.9zm3.2-9.7h-2.8v3.2h2.8zm-2.8 7.8h2.8v-3.3h-2.8z"/></g></svg>