<svg enable-background="new 0 0 400 400" viewBox="0 0 400 400" xmlns="http://www.w3.org/2000/svg"><g fill="#fcfafa"><path d="m342.2 3.2-6.3 9.2h6.1v1.2h-8.2v-.5l6.2-9.1h-5.7v-1.2h7.8v.4z"/><path d="m344 13.7v-10.9h3.1c1.6 0 3 .5 4.1 1.4 1.1 1 1.6 2.2 1.6 3.9s-.5 3-1.6 4-2.5 1.5-4.2 1.5h-3zm1.4-9.6v8.4h1.6c1.4 0 2.5-.4 3.2-1.1.8-.8 1.2-1.8 1.2-3.2s-.4-2.4-1.2-3.1-1.8-1-3.1-1z"/><path d="m356.3 2.8v10.9h-1.4v-10.9z"/><path d="m366.6 13.2c-.8.4-1.8.6-3 .6-1.6 0-2.8-.5-3.7-1.5s-1.4-2.3-1.4-3.9c0-1.7.5-3.2 1.6-4.2s2.4-1.6 4-1.6c1 0 1.9.1 2.6.4v1.5c-.8-.4-1.6-.6-2.6-.6-1.2 0-2.2.4-3 1.2s-1.1 1.9-1.1 3.3c0 1.3.4 2.3 1.1 3.1s1.6 1.1 2.8 1.1c1.1 0 2-.2 2.8-.7v1.3z"/><path d="m368.2 13c0-.3.1-.5.3-.6.2-.2.4-.3.6-.3.3 0 .5.1.7.3s.3.4.3.6-.1.5-.3.6c-.2.2-.4.3-.7.3s-.5-.1-.6-.3c-.2-.2-.3-.4-.3-.6z"/><path d="m381.1 13.7h-1.7l-5.5-8.4c-.2-.2-.3-.5-.4-.7 0 .2.1.8.1 1.5v7.6h-1.4v-10.9h1.8l5.3 8.3c.3.4.4.6.4.8 0-.3-.1-.8-.1-1.6v-7.5h1.4v10.9z"/><path d="m389.7 13.7h-5.8v-10.9h5.6v1.2h-4.2v3.5h3.9v1.2h-3.9v3.7h4.4z"/><path d="m398.4 4.1h-3.1v9.6h-1.4v-9.6h-3.1v-1.3h7.7v1.3z"/></g><path d="m48.02 375.49c-2.84-8.11-2.49-9.39 5.07-11.77 6.9-2.17 14.23-3.02 21.11-5.25 12.84-4.17 25.58-8.71 38.2-13.52 9.97-3.79 20.04-6.52 30.68-7.96 12.99-1.76 23.93-8.79 35.19-16.44-2.98-2.17-5.33-4.47-8.14-5.84-12.84-6.25-25.81-12.23-38.72-18.34-2.6-1.23-5.25-2.43-7.66-3.98-3.48-2.24-6.81-4.71-10.1-7.22-2.89-2.2-5.79-3.56-9.69-3.64-7.79-.14-20.83-10.41-22.71-17.08 6.64 0 13.31.04 19.98-.02 1.99-.02 4.02-.09 5.96-.49 10.4-2.16 20.79-4.35 31.14-6.71 2.68-.61 5.3-1.72 7.79-2.91 23.84-11.34 47.83-22.44 73.6-28.59 12.66-3.02 25.75-4.36 38.7-6.01 3.17-.4 6.61.81 9.85 1.58 6.52 1.54 13 3.3 19.49 4.95 13.38 3.41 14.93 12.97 9.34 23.24-6.94 12.75-14.58 25.19-22.83 37.14-3.57 5.18-9.19 9.05-14.25 13.06-5.12 4.05-10.33 7.87-13.44 13.81-.25.47-.44.98-.8 1.8 5.06 1.55 9.94 3.05 14.82 4.54 11.65 3.54 23.3 7.1 34.98 10.55 1.89.56 3.93.77 5.92.87 10.14.5 20.3.71 30.42 1.48 3.37.26 6.69 1.73 9.93 2.92 1.41.52 2.78 1.54 3.79 2.66 3.74 4.15 2.67 9.86-2.56 11.49-3.5 1.09-7.46 1.05-11.2 1-15.66-.17-31.31-.59-46.97-.78-2.69-.03-4.81-.95-7.19-2.06-3.68-1.71-7.72-2.78-11.7-3.7-14.7-3.4-29.43-6.66-44.17-9.88-1.21-.27-2.76-.27-3.83.25-15.75 7.78-32.88 11.44-49.42 16.87-5.19 1.7-9.79 5.16-14.73 7.65-2.24 1.13-4.6 2.39-7.03 2.73-14.06 2.01-28.19 3.54-42.22 5.7-7.93 1.22-15.66 3.83-23.6 4.89-10.95 1.46-22 2.05-33 3.01zm92.66-97.65c3.33 6.53 8.8 9.2 14.95 11.14 5.63 1.77 11.16 3.86 16.67 5.98 3.73 1.43 7.27 3.34 11.02 4.7 5.04 1.82 10.41 2.84 15.25 5.05 5.66 2.58 10.38 1.24 15.14-1.74 1.52-.95 3.19-1.77 4.44-3 10.66-10.51 21.29-21.06 31.84-31.68 5.13-5.17 8.45-11.52 11.05-18.23.75-1.94 1.27-4.11 1.24-6.16-.05-3.6-3.58-6.99-6.39-6.25-12.2 3.21-24.51 6.09-36.49 9.99-11.77 3.84-23.19 8.78-34.75 13.24-14.58 5.61-29.16 11.24-43.97 16.96z" fill="#010103"/><path d="m57.82 167.05c-.28-.73-.34-.83-.35-.94-.54-8.96-.63-9.12 7.36-13.35 10.76-5.7 21.67-11.12 32.53-16.65.79-.4 1.63-.89 2.49-.97 7.01-.63 12.4-4.7 18.09-8.21 1.39-.86 3.34-1.41 4.94-1.24 3.82.4 7.17-.33 10.6-2.06 11.87-5.99 23.86-11.74 36.21-17.78-.96-.61-1.6-1.13-2.34-1.46-7.42-3.33-14.59-7.6-22.34-9.68-8.36-2.25-16.47-4.9-24.33-8.4-4.59-2.05-9.21-3.01-14.26-2.92-2.39.04-5.13-.78-7.15-2.09-7.39-4.78-12.9-11.27-16.62-20.44 4.36 0 8.23-.41 11.97.09 6.32.86 12.04-.14 17.88-2.82 19.39-8.9 38.79-17.83 58.51-25.95 13.2-5.43 27.18-8.16 41.64-7.36 8.44.47 17.02-1.15 25.24 2.1 12.37 4.9 22.01 12.59 25.36 26.05 1.91 7.69.84 15.1-3.28 22.26-4.81 8.36-10.56 15.74-18.03 21.82-1.47 1.19-2.77 2.58-4.8 4.49 3.78 2.18 7.01 4.58 10.62 6.05 32.11 13.07 60.85 31.6 87.53 53.51 4.86 3.99 6.47 8.92 4.71 13.76-2.69 0-5.49.13-8.26-.07-.99-.07-2.05-.76-2.86-1.43-25.69-21.54-54.91-36.16-87.1-45.28-8.56-2.43-16.66-6.45-25.08-9.44-2.01-.71-4.57-.69-6.67-.17-4.11 1.01-8.07 2.63-12.1 3.97-4.55 1.52-8.79 3.45-12.9 6.12-4.21 2.73-9.38 4-14.15 5.86-3.52 1.37-7.1 2.59-10.59 4.05-2.26.95-4.49 2.06-6.56 3.36-13.9 8.72-29.61 12.29-45.24 16.1-4.02.98-8 2.11-12.03 3.02-1.6.36-3.39.7-4.93.35-4.37-.98-8.31.11-12.4 1.47-4.96 1.66-10.04 3.01-15.15 4.19-1.96.47-4.14.09-6.16.09zm87.53-96.58c1.83 1.19 3.08 2.48 4.58 2.91 16.55 4.74 33.19 9.13 49.67 14.1 5.37 1.62 9.82.77 14.28-1.97 1.81-1.11 3.63-2.24 5.25-3.59 7.83-6.56 15.62-13.01 16.77-24.37.77-7.6-1.26-11.68-8.67-13.94-6.97-2.12-14.07-2.27-21.26-1.24-22.61 3.23-42.65 12.05-60.62 28.1z" fill="#010103"/><path d="m248.94 159.96c-15.39-4.43-30.46-4.96-45.53-.08-22.21 7.2-44.44 14.33-66.58 21.74-4.4 1.47-8.45 4.05-12.62 6.18-5.58 2.84-11.24 5.54-16.64 8.69-5.09 2.96-10.01 6.25-14.77 9.71-4.33 3.15-8.51 4.38-13.66 1.9-5.73-2.76-11.59-5.33-17.59-7.42-3.86-1.34-5.48-3.77-5.97-7.66.68-.23 1.38-.59 2.11-.7 14.42-2.17 27.14-8.78 39.66-15.65 10.48-5.75 20.46-12.41 30.88-18.27 5.53-3.11 11.52-5.4 17.31-8.05.2-.09.43-.22.63-.2 10.13 1 18.58-5.25 28.13-6.58 15.04-2.1 30.08-4.63 45.21-5.57 9.38-.59 18.92 1.42 28.39 2.27.44.04.92.09 1.31.29 7.05 3.6 14.44 6.68 21.04 10.97 10.71 6.97 15.14 23.57 10.1 35.12-.34.77-1.08 1.39-1.72 1.99-7.44 6.98-15.97 12.31-25.56 15.68-21.6 7.6-43 15.68-64.25 24.22-7.5 3.01-16.13 3.51-24.32 4.49-13.54 1.62-27.13 3.05-40.81 1.54-13.92-1.54-26.65-6.5-38.47-13.84-1.24-.77-1.69-2.81-2.5-4.25.21-.34.42-.68.62-1.02 5.37.67 10.76 1.28 16.12 2.02 9.62 1.34 19.18 3.15 29 1.54 31.15-5.11 60.65-15.12 88.67-29.58 7.23-3.73 14.56-7.35 21.43-11.69 6.19-3.92 9.92-9.83 10.38-17.79z" fill="#010103"/></svg>