<svg enable-background="new 0 0 400 400" viewBox="0 0 400 400" xmlns="http://www.w3.org/2000/svg"><path d="m6.8 9.5c.6.3 1.3.7 2.1 1.1-.4.4-.7.8-.9 1.2-.7-.4-1.3-.8-1.8-1.1s-1.1-.6-1.6-.8c.2-.4.5-.8.7-1.2.4.2.8.5 1.5.8zm.9 6.9c-.3.6-.5 1.1-.7 1.7s-.4 1.1-.6 1.7c-.6-.4-1.1-.7-1.6-1 .7-1 1.2-1.8 1.5-2.4.3-.5.6-1.1.8-1.7.3-.6.5-1.2.8-1.8.3.3.8.6 1.3.8-.7 1.3-1.2 2.2-1.5 2.7zm.1-11c.4.3 1 .7 1.7 1.1-.5.2-.8.6-1.1 1.1-.5-.6-1-1-1.4-1.2s-.9-.6-1.5-.8c.2-.4.5-.7.9-1.1.5.3.9.6 1.4.9zm10.5 13.1c1 .4 2 .6 3.1.7-.4.4-.7.8-.8 1.3-.9-.2-1.9-.6-3-.9-1-.4-2-.9-2.8-1.6-.5.4-1.1.9-1.9 1.3s-1.9.9-3.3 1.2c-.1-.3-.5-.8-1.1-1.3 1 0 2.1-.3 3.2-.8 1.2-.5 1.9-1 2.3-1.7h-3.2c-.4 0-1 0-2 .1v-1.2c1 0 1.7.1 2 .1h3.3v-1h-2.3c-.2 0-.9 0-2 .1v-1.2c1.2 0 1.9.1 2 .1h2.3v-.8h-4.1c0-.7.1-1.2.1-1.6 0-.5 0-1.1-.1-1.8h4.1v-.7h-2.5c0-.6.1-1.1.1-1.6v-.6h-.5c-.4 0-1 0-1.8.1v-1.3c1.2 0 1.9.1 2.1.1h.2c0-.3 0-.8-.1-1.4h1.4c0 .6-.1 1-.1 1.4h3.4c0-.4 0-.8-.1-1.3h1.5c0 .4-.1.9-.1 1.3.7 0 1.5 0 2.5-.1v1.2c-1 0-1.8-.1-2.5-.1v.6c0 .3 0 .8.1 1.5h-2.5v.8h4.1c0 .7-.1 1.3-.1 1.8s0 1 .1 1.5h-4.1v.8h1.4c.8 0 1.8 0 2.9-.1v1.2c-1 0-1.9-.1-2.8-.1h-1.5v1h3.2c.3 0 1 0 2.1-.1v1.2c-1.1 0-1.8-.1-2.1-.1h-3.4l-.1.1c1.4 1 2.4 1.5 3.4 1.9zm-4.1-6.7v-1.3h-2.7v1.3zm2.2-4.1v-1.1h-3.4v1.1zm1.9 4.1v-1.3h-2.8v1.3z" fill="#fafbfa"/><path d="m37 6.7v2.3 5.4c1 0 1.8 0 2.2-.1v1.3c-.6 0-1.5-.1-2.5-.1h-11.9c-.7 0-1.3 0-1.8.1v-1.3c.5 0 1.1.1 2 .1v-5.2c0-1 0-1.8-.1-2.5h3.7c0-1.3 0-2.1-.1-2.5h1.5c0 .4-.1 1.3-.1 2.5h2.2c0-1.2 0-2.1-.1-2.6h1.5c0 .4-.1 1.3-.1 2.6zm-12.3 13.7c-.3-.4-.7-.8-1.1-1.1 1.1-.4 2.1-.9 2.9-1.3.8-.5 1.5-1 2.1-1.6.4.4.9.8 1.3 1.1-2.5 1.4-4.2 2.4-5.2 2.9zm3.9-10.1v-2.4h-2.2v2.4zm0 4.1v-2.9h-2.2v2.9zm3.5-4.1v-2.4h-2.2v2.4zm0 4.1v-2.9h-2.2v2.9zm.4 2.9 1-1.1c.6.3 1.4.7 2.5 1.3s2 1.1 2.7 1.5c-.4.4-.8.8-1.1 1.3-.8-.8-2.5-1.7-5.1-3zm3.1-7v-2.4h-2.1v2.4zm0 4.1v-2.9h-2.1v2.9z" fill="#fafbfa"/><g fill="#010103"><path d="m262.33 255.71c-1.53 0-2.74 0-3.96 0-13.1 0-26.2.17-39.29-.07-6.79-.12-13.39.51-19.79 2.76-4.73 1.67-9.55 2.01-14.52 1.57-8.02-.71-16.07-1.76-24.09-1.61-6.72.13-13.43 1.68-20.12 2.77-3.62.59-7.19 1.52-11 2.35-4.01-7.34-4.14-15.23-4.26-23.02.34-.27.48-.46.67-.53 6.77-2.6 7.03-2.88 4.95-9.77-4.89-16.19-5.46-32.78-5.01-49.51.23-8.5.28-17.01.24-25.51-.01-1.27-.7-2.81-1.57-3.76-1.95-2.13-4.22-3.98-6.59-6.15 3.76-4.12 7.06-7.88 10.55-11.45.6-.61 2.07-.84 2.97-.6 4.42 1.16 8.82 2.41 13.15 3.87 4.2 1.43 8.14 1.82 12.25-.5 1.73-.98 4.03-1.33 6.07-1.34 19.14-.1 38.28.1 57.42-.12 9.49-.11 18.97-.96 28.46-1.41 2.32-.11 4.7-.19 6.98.15 6.76 1.02 10.09 4.29 11.22 11.02 1.73 10.29.24 20.52-.86 30.75-.17 1.55-.39 3.11-.4 4.66-.04 9.63-.3 19.26.07 28.87.32 8.3-.54 16.3-4.03 23.85-2.14 4.63-1 9.2-.53 13.82.29 2.87.65 5.73 1.02 8.91zm-68.72-15.67c0 .1.01.21.01.31 15.54-.4 31.08-.77 46.62-1.28 1.14-.04 2.5-.79 3.32-1.64 4.9-4.99 7.98-10.58 5.54-17.93-.55-1.66-.44-3.54-.62-5.32-.78-7.75-2.32-15.47.42-23.2 2.45-6.9 3.03-13.81-.57-20.68-.83-1.58-.6-3.72-.8-5.6-.47-4.34-.78-8.7-1.44-13-.14-.89-1.52-2.26-2.35-2.27-14.97-.22-29.93-.31-44.9-.35-10.37-.02-21.09 1.71-31.02-.38-8.35-1.76-14.83-.45-21.67 3.24-.98.53-2.05.89-3.03 1.42-.57.3-1.45.74-1.49 1.19-.45 4.72-.93 9.46-1.03 14.2-.04 2.03 1.17 4.09 1.14 6.12-.16 11.52.27 23.13-1.06 34.53-1.13 9.73-1.42 18.83 3.29 27.72 1.08 2.04 1.88 3.01 4.31 2.99 15.12-.13 30.22-.07 45.33-.07z"/><path d="m334.29 138.07c-.58 2.63-1.31 4.45-1.33 6.27-.08 6.97.22 6.88 3.07 13.54 1.14 2.66 1.65 5.86 1.48 8.76-.3 5-1.17 10-2.21 14.91-.39 1.83-1.9 3.42-3 5.27.79 1.12 1.68 2.4 2.69 3.84-.87 1.11-1.75 2.23-2.76 3.51 1.82 1.76 3.53 3.49 2.37 6.58-.28.75 1.47 2.88 2.73 3.51 8.39 4.2 16.95 8.08 25.34 12.27 1.68.84 3.32 2.34 4.26 3.96 3.86 6.61 4.77 13.86 4 21.39-.62 6.12-1.41 12.24-1.67 18.37-.14 3.37-1.33 5.16-4.62 5.67-1.08.17-2.13.58-3.93 1.09-.77-4.4-1.84-8.6-2.15-12.85-.38-5.23-.01-10.51-.17-15.77-.2-6.43-2.24-12.07-7.72-15.99-1.41-1.01-10.47-1.03-11.61.05-.42.4-.63 1.15-.71 1.77-1 7.65-2.01 15.3-2.85 22.97-.11 1.01.36 2.52 1.1 3.11 2.96 2.36 2.11 5.28.68 7.54-1.53 2.43-4.08 4.23-6.19 6.3-.37-.11-.75-.22-1.12-.33-.4-6.52-1.05-13.04-1.15-19.57-.14-8.17-2.92-14.96-9.35-20.66-2.7 7.68-3.01 15.35-3.21 23.03-.1 3.8.2 7.63-.18 11.4-.74 7.56-6.5 12.03-14.01 11.06-.86-.11-1.92-1.02-2.33-1.84-2.83-5.54-3.34-11.49-2.99-17.62.91-15.74 1.79-31.49 2.48-47.24.57-12.97.3-25.99 1.4-38.91 1.15-13.57 3.46-27.05 5.32-40.56.3-2.17 3.73-4.67 6.24-4.48 2.77.21 5.55.65 8.28 1.19 3.89.77 6.46 2.98 8.03 6.8 1.77 4.31 4.14 8.39 5.79 11.66z"/><path d="m59.95 137.17c3.52 8.21 4.1 16.02 3.39 24.01-.16 1.78-.39 3.57-.37 5.35.07 6.38 3.69 10.46 9.93 11.61 2.32.43 4.09-.04 4.7-2.4 1.46-5.6 2.81-11.23 4.08-16.87 1.62-7.17 3.12-14.38 4.7-21.56.11-.52.41-1 .84-1.99 2.48 3.13 4.82 5.89 6.9 8.84.54.77.44 2.14.32 3.2-.63 5.44-1.59 10.85-1.99 16.31-.26 3.49-.27 7.17.53 10.54 1.42 5.96-1.5 10.19-5.47 13.28-3.6 2.8-8.36 4.07-12.53 6.19-4.04 2.05-8.14 4.06-11.88 6.57-2.4 1.61-3.48 4.3-2.21 7.38.29.71.33 1.53.58 2.27 3.41 9.72 2.99 19.37.03 29.17-2.62 8.68-1.62 17.53.31 26.21.72 3.24.32 5.9-2.12 7.88-2.93 2.37-6.18 4.35-9.33 6.45-2.03 1.36-4.21 2.51-6.18 3.96-3.21 2.35-6.42 2.61-8.87-.41-3.28-4.04-6.5-8.33-8.62-13.02-1.29-2.86-1.36-6.93-.43-9.99 2.18-7.19 2.88-14.43 2.83-21.84-.04-5.03-.26-10.07-.1-15.1.27-8.44-.23-16.73-2.91-24.82-.58-1.74-.5-3.75-.47-5.63.28-14.54.75-29.08.83-43.62.02-3.19 1.87-3.22 3.86-3.81 2.38-.7 2.73 1.21 3.01 2.59 1.25 6.21 2.6 12.43 3.35 18.71.83 6.89 3.56 10.77 9.34 12.44 2.4.69 3.69.07 4.15-2.25 1.36-6.88 2.6-13.79 4-20.66 1.02-5.01 2.16-10 3.42-14.95.34-1.21 1.32-2.26 2.38-4.04z"/><path d="m258.01 56.69c-5.92 4.72-12.46 6.95-19.54 7.92-3.1.42-6.25.68-9.26 1.46-5.75 1.49-9.79 5.1-12.22 10.86 5.45 3.86 11.37 3.7 17.39 2.77 4.29-.67 8.55-1.87 12.85-2.08 4.8-.24 8.84 1.88 11.8 6.03-5.32 4.67-11.64 5.09-18.05 4.78-6.59-.32-13.16-1.36-19.74-1.34-5.32.02-10.69.83-15.93 1.85-11.92 2.3-23.87.86-35.81.78-5.48-.04-10.96-.3-16.44-.29-1.52 0-3.06.54-4.55.98-11.45 3.41-22.74 2.91-33.82-1.48-.93-.37-1.98-1.75-2.07-2.75-.46-4.9-.51-9.83-.91-14.74-.16-1.93.51-2.77 2.26-3.4 7.25-2.62 14.4-5.53 21.7-7.98 1.9-.64 4.37-.43 6.32.2 2.22.72 3.94.99 5.78-.71 2.58-2.39 5.73-2.83 9.21-3.1 14.37-1.11 28.72-2.59 43.07-4.03.91-.09 2.37-.92 2.49-1.61 1.61-8.7 8.72-13.13 14.2-18.89 4.03-4.24 7.82-6.98 14.4-5.2 4.68 1.26 10 .25 15.03.12 5.29-.13 10.06 1.28 14.81 4.39-6.52 3.21-13.21 5.25-19.71 3.45-10.13-2.81-15.97-.05-21.94 12.24-.43.9-.79 1.83-1.3 3 4.97 2.57 10.16 3.34 15.56 2.79 2.55-.26 5.07-.87 7.61-1.27 6.37-.99 11.87.71 16.81 5.25z"/><path d="m176.28 364.25c-.3-3.76-.33-7.13-.96-10.39-.22-1.15-1.73-2.56-2.94-2.93-6.72-2.05-13.49-.93-20.26.08-4.63.69-9.29 1.41-13.96 1.54-4.06.11-7.92-1.03-11.02-5.46 8.17-.84 15.68-1.78 23.22-2.34 7.38-.55 14.76-.86 21.54-4.24 2.27-1.14 4.38-2.6 5.89-3.51-2.32-3.09-4.33-6.09-6.69-8.78-1.35-1.54-3.12-2.87-4.95-3.79-6.98-3.49-14.38-4.38-22.16-3.71-6.21.53-12.49.71-18.71.43-4.36-.2-7.01-2.53-8.69-6.23 5.59-.82 11.09-1.56 16.56-2.46 12.28-2.03 24.55-.04 36.82.11 11.25.14 16.54 5.7 17.09 17.16.36 7.66 5.73 13.57 13.43 13.48 14.63-.18 29.25-.81 43.86-1.6 9.17-.5 18.33-1.66 26.99 2.58 7.26 3.55 10.8 9.78 11.95 17.5.13.87-.85 2.19-1.67 2.88-8.14 6.83-17.61 10.06-28.19 9.78-10.5-.27-21.01-.74-31.5-1.31-1.72-.09-3.39-1.15-5.84-2.03-3.94 5.41-10.47 3.62-16.95 3.54-11.73-.15-23.46.55-35.19.83-12.28.3-24.61 1.32-36.72-1.76-1.4-.36-2.76-.9-4.11-1.42-.49-.19-.92-.55-2.1-1.29 18.81-2.29 36.85-4.45 55.26-6.66z"/></g></svg>