<svg enable-background="new 0 0 400 400" viewBox="0 0 400 400" xmlns="http://www.w3.org/2000/svg"><path d="m186.31 313.25c-8.95-4.89-18.44-6.07-28.31-5.19-3.67.33-7.33 1-11 1.13-6.01.21-10.33-2.47-12.08-8.15-2.81-9.13-3.68-18.4.43-27.5.55-1.22 1.29-2.41 1.56-3.7 1.35-6.38 6.07-8.81 11.73-9.61 8.6-1.22 17.27-1.99 25.91-2.93 4.33-.47 8.7-.65 12.98-1.4 3.55-.63 6.75-2.27 8.9-5.87-1-.51-1.83-.99-2.71-1.37-6.53-2.91-12.91-6.3-19.66-8.57-8.1-2.72-12.37-8.72-15.88-15.76-5.67-11.36-5.34-23.34-3.7-35.46.19-1.44.39-2.88.7-4.3 3.49-15.74 4.24-16.96 16.9-27.09.92-.73 2.12-1.22 3.27-1.53 6.79-1.86 13.59-3.69 20.42-5.4 1.94-.49 2.72-1.33 2.64-3.42-.17-4.14-.23-8.29.01-12.42.16-2.69-1.01-3.72-3.35-4.46-8.07-2.57-15.98-1.56-23.68 1.23-6.82 2.47-13.59 5.17-20.1 8.34-3.84 1.87-7.47 4.5-10.58 7.44-12.53 11.83-24.82 23.92-37.21 35.91-.85.82-1.73 1.6-3.14 2.04 2.03-7.65 4.01-15.31 6.15-22.92.26-.94 1.31-1.71 2.11-2.44 7.6-6.93 15.53-13.52 22.75-20.82 8.22-8.31 17.2-15.3 28.05-19.71 1.41-.57 2.98-.95 4.5-1.06 9.14-.63 18.29-1.15 27.71-1.72.98-5.58 2.05-11.04 2.79-16.55.13-.97-.85-2.46-1.75-3.14-8.55-6.45-18.36-8.49-28.83-7.57-10.25.89-20.43 1.89-30.79 1.13-17.65-1.29-30.83-9.63-40.64-23.92-2.45-3.57-4.76-7.23-7.13-10.86.21-.28.41-.57.62-.85 1.31.55 2.89.8 3.9 1.7 15.08 13.41 32.74 20.32 52.83 20.91 13.74.41 27.48.51 41.23.73.76.01 1.53-.17 2.53-.3-.43-4.56-.81-8.99-1.31-13.4-.08-.68-.59-1.45-1.13-1.91-10.11-8.55-20.98-15.98-34.36-17.87-6.88-.97-14.03-.26-21.05-.11-11.32.25-22.27-1.26-33.03-6.25.9-.68 1.5-1.22 2.18-1.63 11.81-6.96 24.55-9.02 38.1-7.69 10.68 1.05 21.42 1.46 32.11 2.44 2.53.23 5.21 1.17 7.4 2.49 8.61 5.21 17.1 10.62 25.53 16.13 1.89 1.23 2.99 1.06 4.54-.44 13.06-12.69 29.09-19.75 46.44-24.25 1.02-.26 2.23-.24 3.25.04 9.05 2.45 18.22 3.2 27.58 2.66 8.81-.51 17.32 1.23 26.36 4.95-5.74.49-10.65.68-15.49 1.35-18.29 2.54-36.46 5.76-53.69 12.72-9.72 3.93-18.24 9.59-22.84 19.6-.91 1.98-1.44 4.14-2.48 7.22 8.8.12 16.93.5 25.04.25 7.7-.24 15.38-1.15 23.08-1.75 11.95-.93 19.21 5.5 19.03 17.47-.08 4.86-1.18 9.75-2.2 14.54-.83 3.92-2.46 7.67-3.31 11.59-.65 2.97-2.33 4.52-4.92 5.72-9.8 4.51-20.06 6.87-30.84 7.02-8.17.12-16.34.19-24.5.36-1.88.04-3.75.4-5.91.64-.57 5.72-1.2 11.25-1.59 16.8-.05.68 1.05 1.82 1.85 2.11 4.4 1.63 8.93 2.91 13.32 4.58 15.19 5.79 24.4 16.72 26.62 32.84 1.88 13.62.06 27.01-4.61 39.96-.5 1.4-1.39 2.93-2.56 3.76-6.71 4.8-13.56 9.41-20.37 14.07-4.2 2.87-8.44 5.69-13.12 8.84 9.69 4.8 18.52 3.45 27.2.27 11.33-4.15 22.54-8.61 33.78-12.99 1.02-.4 1.96-1.06 2.84-1.73 6.26-4.7 12.49-9.44 18.73-14.16.29.19.59.38.88.57-3.58 5.91-6.38 12.51-10.89 17.6-11.82 13.35-26.3 22.73-44.09 26.52-6.44 1.37-12.7 3.54-19.08 5.2-1.73.45-2.52 1.2-2.31 2.98.08.66.01 1.34.01 2.01 0 9.61-.01 9.63 9.04 13.22 9.78 3.89 19.97 5.74 30.47 5.75 13.58.01 25.18 5.43 35.99 12.99 3.38 2.36 6.55 5.01 9.52 8.06-3-.97-5.95-2.14-9.01-2.88-15.2-3.66-30.38-7.41-45.67-10.68-5.21-1.11-10.79-1.16-15.79 1.34-1.88.94-3.6 2.64-4.79 4.4-1.74 2.59-1.75 5.13.9 7.68 9.99 9.62 19.69 19.55 29.67 29.19 12.75 12.31 28.33 19.3 45.32 23.51 1.3.32 2.61.63 3.9.97.19.05.33.28.49.43-4.78 2.34-13.36 3.25-20.71.72-12.02-4.15-23.77-9.1-35.6-13.79-.99-.39-1.77-1.35-2.59-2.1-13.46-12.49-26.9-24.98-40.36-37.47-.73-.68-1.5-1.3-1.54-1.01-6.48 5.99-13.01 11.93-19.44 17.98-10.78 10.13-21.8 19.96-34.53 27.63-10.85 6.54-22.87 9-35.33 8.88-8.46-.08-16.9-1.18-25.35-1.83-.02-.34-.03-.68-.05-1.02 6.89-1.79 13.77-3.59 20.66-5.36 9.09-2.33 18.21-4.6 27.29-6.97 1.36-.36 2.78-.95 3.85-1.82 8.74-7.16 17.42-14.4 26.09-21.65 7.26-5.99 12.61-13.5 17.3-21.86zm47.24-110.89c.09-.01.18-.01.26-.02-.35-4.79-.66-9.58-1.05-14.36-.58-7.1-4.06-12.18-10.72-14.89-4.44-1.8-9.05-3.23-13.39-5.23-6.82-3.13-13.2-3.08-19.39 1.45-1.24.91-2.72 1.64-4.2 2.05-8.72 2.39-12.74 8.48-13.77 17.05-.13 1.1-.44 2.19-.71 3.27-3.08 12.11-.14 22.98 6.76 33.04.49.72 1.04 1.56 1.78 1.93 6.88 3.48 14.08 5.8 21.91 4.89 9.78-1.14 17.78-6.14 25.43-11.96 4.9-3.73 8.37-7.9 7.12-14.54-.17-.86-.03-1.78-.03-2.68zm-25.25-108.62c.56 3.35 1.17 6.87 1.74 10.39 1.49 9.25 1.45 9.6 10.7 10.51 11.69 1.16 23.5 1.67 34.8-2.4 8.35-3 8.21-3.56 8.74-12.18.4-6.45-2.77-10.32-9.15-11.67-16.03-3.39-31.7-2.92-46.83 5.35zm-36.7 203.11c.05-.24.09-.48.14-.73 1.78-.15 3.57-.24 5.34-.47 5.85-.73 11.39-2.33 15.97-6.27.76-.66 1.63-1.8 1.59-2.68-.15-3.33-.38-6.7-1.11-9.94-.91-4.01-3.69-6.28-7.9-6.53-4.13-.24-8.26-.34-12.38-.67-5.35-.42-10.1.7-14.26 4.32-2.73 2.38-7.29 3.85-8.3 6.69-1.04 2.93 1.12 7.06 2.15 10.59.31 1.04 1.44 2.39 2.41 2.6 5.42 1.21 10.9 2.1 16.35 3.09z" fill="#010101"/><path d="m189.89 198.69c0-3.13.17-6.26-.06-9.37-.16-2.26.76-3.26 2.8-3.63 3.88-.72 7.84-2.33 11.63-2.02 6.96.58 10.88 5.1 10.97 12.07.07 5.08-.66 10.19-1.35 15.23-.15 1.07-1.55 2.35-2.67 2.85-6.9 3.11-13.52 1.82-19.8-1.85-.8-.47-1.4-1.89-1.45-2.91-.18-3.44-.07-6.91-.07-10.37z" fill="#010101"/><g fill="#fbfafa"><path d="m6.4 11.7c-1-.8-1.9-1.6-2.9-2.3l.6-.7c.9.7 1.9 1.4 2.9 2.2zm-2.1 8.3c.7-2.1 1.4-4.2 2-6.4.2.1.6.3 1 .4-.7 2.3-1.3 4.4-1.9 6.4zm3-12.8c-1.1-.9-2.1-1.7-2.9-2.4l.6-.7c1 .8 2 1.5 3 2.4zm1.4-1.3v-.9h10.2v.9c-.9 4.2-2.3 7.3-4.1 9.4 1.3 1.4 3.2 2.7 5.7 4-.2.2-.4.5-.7.9-2.5-1.4-4.4-2.7-5.7-4.2-1.4 1.5-3.5 3-6.1 4.4 0 0 0 0-.1-.1-.3-.4-.5-.7-.7-.8 2.7-1.3 4.7-2.8 6.2-4.2-1.8-2.2-3-5.3-3.7-9.4zm9.2 0h-7.1c.6 3.8 1.7 6.7 3.4 8.7 1.7-2 2.9-4.8 3.7-8.7z"/><path d="m31.6 3.6h.9v2.3h4.1v9.1h1.7v.9h-16.6v-.9h1.7v-9.1h4.1v-2.3h.9v2.3h3.1v-2.3zm-4 13.3.6.8c-1.9.9-3.8 1.9-5.8 2.8-.2-.3-.3-.6-.5-.9 2-.9 3.9-1.8 5.7-2.7zm-3.2-10.1v3.7h3.1v-3.7zm0 4.5v3.7h3.1v-3.7zm4.1-4.5v3.7h3.1v-3.7zm0 4.5v3.7h3.1v-3.7zm9.1 9.1c-2.1-1.1-4.1-2-5.8-2.7l.5-.8c2.2.9 4.1 1.8 5.8 2.6zm-1.9-13.6h-3.1v3.7h3.1zm-3.2 4.5v3.7h3.1v-3.7z"/></g></svg>