<svg enable-background="new 0 0 400 400" viewBox="0 0 400 400" xmlns="http://www.w3.org/2000/svg"><path d="m5.17 384 .55-.58c.85.61 1.65 1.24 2.4 1.87l-.59.64c-.83-.73-1.62-1.38-2.36-1.93m1.22 9.53-.82-.34c.71-1.76 1.37-3.64 1.98-5.63.24.13.5.25.76.36-.6 1.67-1.24 3.54-1.92 5.61m-.5-13.5.57-.54c.56.44 1.31 1.06 2.26 1.87l-.64.64c-.68-.66-1.41-1.32-2.19-1.97m3.25.46h2.24v-1.36h.77v1.36h4.57v-1.36h.76v1.36h2.28v.69h-2.28v1.84h-2.64v1.26h4.18v2.64h-4.21c0 .45-.02.86-.05 1.21h4.32v.69h-4.38c-.04.34-.1.75-.19 1.22h5.15v.69h-4.82c.87 1.19 2.51 1.92 4.93 2.19-.17.31-.3.57-.37.76-2.77-.49-4.52-1.41-5.26-2.76-.56 1.26-2.3 2.23-5.24 2.9-.12-.24-.26-.48-.43-.72 2.73-.55 4.38-1.34 4.96-2.38h-4.38v-.69h4.65c.1-.38.17-.79.21-1.22h-4.32v-.69h4.4c.03-.34.05-.75.05-1.21h-4.2v-2.64h4.23v-1.26h-2.69v-1.84h-2.24zm1.46 4.46v1.29h3.45c.01-.4.02-.57.01-.53v-.32-.45h-3.46zm1.55-2.59h4.57v-1.19h-4.57zm6.11 2.59h-3.42v.77c-.01.19-.01.37-.02.53h3.44z" fill="#fafafc"/><path d="m32.63 379.16h.82v1.98h3.54v7.89h1.46v.78h-14.37v-.78h1.46v-7.89h3.54v-1.98h.82v1.98h2.73zm-3.49 11.48.5.73c-1.61.82-3.28 1.63-5 2.41-.13-.27-.28-.55-.44-.82 1.75-.72 3.4-1.49 4.94-2.32m-2.78-5.55h2.73v-3.18h-2.73zm0 3.95h2.73v-3.2h-2.73zm3.54-3.95h2.73v-3.18h-2.73zm0 3.95h2.73v-3.2h-2.73zm7.89 4.68c-1.84-.92-3.51-1.7-5.02-2.32l.45-.73c1.89.8 3.57 1.55 5.04 2.23zm-1.62-11.81h-2.73v3.18h2.73zm-2.73 7.13h2.73v-3.2h-2.73z" fill="#fafafc"/><g fill="#010101"><path d="m191.18 142.93c-9.66 2.44-18.94 4.86-28.28 7.06-1.84.43-4.02.44-5.82-.09-12.83-3.82-19.28-12.44-19.11-25.74.18-13.97 2.63-27.58 7.37-40.74.35-.98.99-2.09 1.82-2.65 22.31-15.11 44.55-30.33 67.1-45.08 5.92-3.87 12.9-6.11 19.29-9.31 4.53-2.27 5.34 1.79 7.43 3.74-.18.37-.22.68-.37.73-11.77 4.64-20.25 13.73-29.49 21.79-4.47 3.9-9.1 7.61-13.49 11.59-.97.88-1.79 2.62-1.69 3.88 1.27 16.17 2.71 32.32 4.13 48.72 3.57.3 6.59.16 9.62-2.37 12.65-10.58 25.92-20.25 41.65-25.87 2.19-.78 4.5-1.21 6.76-1.81.31.23.63.47.94.7-1.01 1.77-1.73 3.79-3.06 5.26-8.36 9.18-18.56 16.04-28.79 22.92-7.69 5.18-15.09 10.81-22.43 16.49-1.39 1.08-2.44 3.22-2.72 5.01-1.88 11.98-.32 23.87 1.4 35.73.12.8 1.02 1.91 1.76 2.12 4.15 1.15 8.32 2.31 12.56 3 3.39.55 6.94.13 10.33.68 11.25 1.82 19.53 15.65 20.28 25.38 1.36 17.8-2.85 34.25-11.92 49.69-4.22 7.18-10.24 11.47-17.93 12.7-6.29 1-12.9.57-19.31.07-13.21-1.03-17.52-11.53-21.27-21.73-3.98-10.83-2.19-22.09-.57-33.21.99-6.79 3.13-12.91 8.52-17.64 2.42-2.12 4.18-4.99 6.54-7.19 2.55-2.38 3.19-4.97 2.78-8.37-1.3-10.77-2.31-21.58-3.45-32.37-.1-.87-.32-1.73-.58-3.09zm45.62 70.69c.56-16.2-8.2-22.39-22.78-23.99-.93-.1-2.01.12-2.86.53-8.44 4.09-14.82 10.67-21.07 17.42-.43.46-.73 1.16-.83 1.79-1.13 6.72-2.59 13.41-3.19 20.17-.63 7.06 2.81 12.85 7 18.34 3.12 4.09 7.6 3.79 11.74 4.64 12.13 2.48 23.49-5.95 26.9-14.77 3.04-7.82 4.84-15.78 5.09-24.13zm-50.74-128c.05 0 .09-.01.14-.01.06-1.23.15-2.46.18-3.69.04-1.34.15-2.7.01-4.03-.45-4.23-2.97-5.51-6.48-3.36-8.21 5.01-16.44 9.99-24.62 15.04-1 .62-2.3 1.42-2.61 2.4-3.58 11.31-5.68 22.82-3.11 34.66 1.26 5.8 4.19 10.07 10.95 10.02.54 0 1.08.27 1.63.36 6.72 1.1 13.13 1.45 19.35-2.69 6.12-4.07 8.78-8.57 7.53-16.3-1.73-10.67-2.05-21.59-2.97-32.4z"/><path d="m136.49 360.36c6.08 0 12.23-.08 18.38.05 2.09.04 3.57-.61 4.18-2.53 2.64-8.28 5.75-16.47 7.59-24.93 1.44-6.59-1.66-10.6-8.05-13.09-1.97-.77-4.06-1.23-6.05-1.96-1.35-.5-2.77-1.02-3.88-1.88-3.53-2.71-3.2-5.16.92-6.56 2.41-.82 5.01-1.72 7.48-1.63 15.51.58 30.44-3.17 45.49-5.87 12.2-2.19 23.89-1.15 34.9 4.43 7.96 4.04 12.98 10.6 15.94 19.33 2.67 7.87.83 14.68-2.03 21.67-1.56 3.83-3.23 7.62-5.01 11.35-.55 1.15-1.45 2.25-2.45 3.06-13.64 11.18-29.65 14.66-46.8 13.96-19.5-.8-38.71-3.73-57.57-8.85-3.79-1.03-4.56-2.65-3.04-6.55zm39.91 3.03c10.81-.42 21.2-1.28 31.56-1.12 12.5.2 22.46-4.89 31.29-13.06.69-.64 1.37-1.63 1.46-2.52.62-6.2 1.56-12.43 1.44-18.63-.12-6-3.35-10.87-9.19-12.83-5.34-1.79-10.96-3.24-16.56-3.71-13.98-1.16-26.78 2.51-37.95 11.19-.88.68-1.95 1.86-1.96 2.82-.14 12.63-.09 25.26-.09 37.86z"/></g></svg>