<svg enable-background="new 0 0 400 400" viewBox="0 0 400 400" xmlns="http://www.w3.org/2000/svg"><path d="m145.78 79.19c2.06 7.2-3.91 8.85-7.31 12.2-.37.37-1.21.36-1.84.36-4.02.03-8.04.02-12.06.02-.09.34-.19.69-.28 1.03-.9-1.37-1.8-2.75-2.77-4.23.61-1.2 1.48-2.31 1.75-3.55 2.42-10.97 10.64-15.84 20.17-19.36.79-.29 1.91-.8 2.46-.48 2.83 1.64 4.74-.45 7.11-1.21 2.87-.92 6.02-1.29 9.05-1.29 2.63 0 3.9-.9 3.74-3.38-.32-5 .02-10.27-1.53-14.89-1.44-4.27-4.99-7.83-7.94-12.17 1.94-.99 3.94-2.39 6.17-3.09 4.79-1.52 9.67-2.74 14.55-3.94.85-.21 2.01.09 2.81.54 4.28 2.43 8.61 4.8 12.66 7.58 1.94 1.34 3.54 3.39 4.8 5.43.62 1 .59 2.96.02 4.04-1.95 3.73-2.03 6.49.36 9.77 1.25 1.71 2.56 3.38 3.47 4.58 2.79-.22 5.16-.31 7.49-.62 3.75-.5 7.46-1.42 11.22-1.68 7.01-.5 14.05-.9 21.08-.89 6.7 0 13.42.45 20.1.99 1.35.11 2.7 1.39 3.85 2.37 1.17.99 1.93 2.5 3.16 3.39 4.09 2.98 5.26 7.06 4.78 11.81-.31 3-1.06 5.98-1.12 8.98-.08 4.46-2.49 7.07-5.96 9.34-1.77 1.16-3.03 3.06-4.63 4.51-.75.69-1.69 1.47-2.63 1.61-6.09.92-11.6 3.31-16.78 6.47-4.27 2.61-8.87 3.48-13.75 3.48-1.44 0-3.26-.28-4.26.45-5.07 3.68-11.01 3.28-16.71 4.02-2.66.34-5.34.53-8.01.78-.45.04-1.06-.11-1.31.13-2.66 2.48-5.73 3.56-9.4 3.64-.77.02-1.5 2.26-2.46 3.82-5.54-2.91-9.6-.26-13.52 3.62-1.25 1.24-3.31 1.99-5.11 2.27-5.37.84-10.8 1.25-16.18 2.07-.84.13-1.78 1.37-2.17 2.3-.78 1.88-1.41 3.5-3.66 4.35-1.25.47-1.99 2.32-2.95 3.54.12.42.23.83.35 1.25 2.76.41 5.64 1.53 8.27 1.11 8.9-1.42 17.34-4.23 24.31-10.36.54-.48 1.31-.76 2.02-.97 4.76-1.43 9.54-2.8 14.3-4.23.52-.16 1.23-.43 1.4-.84 1.62-3.9 5.12-3.33 8.28-3.6 3.21-.27 6.11-1.12 9.14-2.56 3.34-1.59 7.66-2.14 11.38-1.72 10.64 1.22 21.21 3.09 31.78 4.88 3.43.58 8.39 7.07 8.42 10.57.05 5.6.06 11.2 0 16.79-.04 3.68-5.03 8.32-8.69 8.57-1.67.11-3.3.91-4.93 1.44-.72.23-1.54.99-2.08.8-3.26-1.12-5.83.75-8.66 1.62-1.58.48-3.33.4-5.01.54-1.22.1-2.52-.11-3.65.25-5.99 1.92-12.51 2.78-16.71 8.36-1.08 1.43-2.34 1.9-4.24.57-.95-.66-3-.21-4.36.28-1.76.63-3.4 1.69-4.98 2.74-4.17 2.77-8.69 4.58-13.65 5.17-3.22.38-6.12 1.42-8.23 3.92-3.32 3.94-8.23 3.53-12.49 4.94-1.61.53-3.48 1.62-4.26 3.01-1.57 2.79-3.31 4.94-6.61 5.46-.43.07-.88.26-1.24.5-5.21 3.51-10.46 3.35-16.07.77-2.14-.99-3.21-2.3-4.62-4.11-7.8-10.07-7.28-22.74-11.15-34.01-.32-.94.31-2.45.93-3.43 2.82-4.48 6.58-7.89 11.07-10.83 3.98-2.61 3.49-6.41-.59-8.81-2.47-1.45-5.15-2.73-7.9-3.49-4.58-1.25-10.31-7.35-9.54-11.9.29-1.72 3.5-3.89 5.61-4.18 5.51-.76 11.15-.78 16.74-.69 1.71.03 3.4 1.36 4.77 1.42 3.95-1.23 7.9-2.46 11.85-3.7 2.87-.9 5.95-1.43 8.52-2.87 1.71-.96 2.78-3.16 3.98-4.91.98-1.43 1.46-3.3 2.67-4.45 2.62-2.49 3.03-5.15-.13-7.05-3.89-2.34-5.91-5.4-6.66-9.74-.45-2.58-2.6-3.22-4.9-2.91-5.44.75-5.44.8-10.9-2.31zm6.8 88.93c1.71.16 3.48.49 5.24.46 9.18-.15 18.14-1.99 26.2-6.17 10.45-5.42 21.59-8.34 32.77-11.49 7.69-2.17 15.23-4.94 22.76-7.65 3.83-1.38 4.19-3.43 1.64-6.46-.85-1.01-1.85-2.1-2.19-3.31-1.48-5.24-5.56-6.63-10.21-7.08-7.49-.73-14.87-.53-22.13 2.09-6.08 2.19-13.07 2.64-18.42 5.9-11.02 6.7-21.19 14.82-31.78 22.24-3.98 2.79-5.18 6.4-3.88 11.47zm70.4-77.25c.07.41.13.82.2 1.23 2.62-.28 5.36-.15 7.82-.91 5.31-1.66 10.41-3.99 15.73-5.61 2.87-.88 4.1-2.24 3.7-5.17-.15-1.1.01-2.24-.16-3.34-.41-2.76-1.74-5.17-4.67-5.38-6.55-.46-13.17-1.08-19.68-.54-7.31.6-14.52 2.37-21.76 3.72-1.04.19-2.3.57-2.94 1.31-3.2 3.72-6.36 7.5-9.27 11.45-1.9 2.59-.88 5.64 2.19 5.99 4.35.5 8.83.57 13.18.11 5.26-.57 10.44-1.88 15.66-2.86z" fill="#010102"/><path d="m138.92 222.89c-.59-.94-.97-1.55-1.42-2.26 12.66-6.79 25.03-13.78 37.77-20.01 3.48-1.7 8.08-1.08 12.16-1.56 1.21-.14 2.48-.18 3.6-.6 3.02-1.13 3.67-2.99 2.08-6.33 4.36-1.08 8.65-2.14 12.94-3.2 1.41-.35 3.04-.35 4.19-1.09 9.25-6 20.1-5.48 30.27-7.77 7.04-1.59 14.01-1.08 21.01-.5 2.54.21 5.69.15 6.25 3.77.41 2.67-2.25 6.8-5.08 7.58-8.08 2.24-16.15 4.5-24.33 6.3-2.73.6-5.77-.23-8.67-.27-5.25-.07-8.16 2.37-7.48 7.48.67 5.01 2.29 9.98 4.15 14.7.7 1.77 2.63 4.37 5.77 2.14.43-.31 1.91 1.06 2.99 1.39 1.34.42 3.2 1.28 4.08.74 4.87-3.02 10.17-3.33 15.56-2.91 5.66.44 11.32 1.09 16.93 2 2.01.32 3.94 1.53 5.77 2.56 2.19 1.24 3.16 3.03 1.97 5.61-.55 1.2-.72 2.58-1.1 3.86-1.19 4.08-4.49 6.32-8.64 5.04-5.02-1.55-9.57-.77-14.37.85-4.1 1.38-8.42 2.17-12.7 2.94-6.42 1.17-10.98 4.09-13.09 10.75-2.18 6.89-5.24 13.51-7.67 20.33-.77 2.16-.91 4.59-1.07 6.91-.32 4.61-1 9.11-3.42 13.15-2.37 3.96-3.15 8.34-3.23 12.83-.06 3.28-.98 6.03-3.02 8.62-3.06 3.91-5.58 7.69-5.12 13.46.57 7.06-3.45 13.21-6.89 19.29-3.29 5.8-6.5 11.68-9.23 17.76-2.21 4.93-5.55 7.74-10.89 7.94-1.06.04-2.73-.66-3.11-1.49-1.02-2.18-1.71-4.59-2.09-6.97-.3-1.84.14-3.79.14-5.69-.01-8.91 1.93-17.06 7.87-24.17 1.88-2.25 2.81-5.66 3.22-8.67.65-4.71 2.63-8.58 5.16-12.48 1.56-2.4 1.96-5.52 3.01-8.27 1.66-4.34 3.41-8.64 5.15-12.95.83-2.07 1.59-3.8 1.25-6.44-.43-3.28-.71-7.45 2.96-10.04.54-.38.72-1.6.69-2.42-.09-2.22-.23-4.47-.64-6.65-1.21-6.38-5.85-8.59-11.15-4.77-3.5 2.52-7.2 3.71-11.19 3.86-4.28.15-8.05 1.37-11.79 3.25-1.11.56-2.87.63-4 .15-3.23-1.37-6.24-3.25-9.44-4.72-1.38-.64-2.98-.88-4.5-1.1-3.8-.54-5.54-2.39-6.53-6.05-.98-3.62-1.94-7.43-3.88-10.56-3.87-6.26-5.44-12.75-4.65-20.05.28-2.43.61-4.32 3.45-5.27zm65.72 2c.32.03.64.07.96.1.33-2.35 1.48-4.97.82-7-1.22-3.72-3.34-7.19-5.42-10.56-1.33-2.15-3.3-2.5-5.7-.93-3.26 2.13-6.8 3.84-10.17 5.8-.94.54-2.2 1.16-2.52 2.03-1.09 2.93-3.53 3.77-6.08 4.68-2.94 1.05-5.76 2.54-8.78 3.23-3.67.84-5.11 2.98-5.3 6.48-.14 2.64-1.28 5.52-.55 7.86 1.66 5.36 5.35 8.93 11.52 8.56 2.87-.17 5.84-.28 8.57-1.09 6.3-1.87 12.49-4.12 18.71-6.27 4.74-1.64 6.05-4.01 5.03-9.05-.29-1.29-.73-2.56-1.09-3.84z" fill="#010102"/><g fill="#fcfbfa"><path d="m385.2 377.6.6-.7c.6.4 1.3.9 1.9 1.5l-.6.7c-.8-.5-1.4-1-1.9-1.5zm.3 7.1c.6-1.4 1.1-2.9 1.5-4.5.3.1.6.3.9.4-.5 1.4-1 2.9-1.5 4.4zm.2-10.1.6-.6c.7.5 1.3 1.1 1.9 1.6l-.7.7c-.6-.6-1.2-1.2-1.8-1.7zm8.4-.8h.8v.9h1.8v.7h-1.8v1.8h-.8v-.3h-1.2v.9h3.3v2.6h-.8v-.4h-2.5c0 .3 0 .6-.1.8h3.4v.7h-3.5c0 .3-.1.6-.1.8h4v.7h-3.5c.7.9 1.9 1.3 3.6 1.5-.2.2-.4.5-.6.9-1.9-.3-3.2-1.1-3.8-2.3-.5 1.1-1.8 2-3.9 2.4-.2-.3-.4-.5-.6-.8 1.9-.4 3.1-.9 3.6-1.7h-3.2v-.7h3.5c.1-.2.1-.5.2-.8h-3.3v-.7h3.4c0-.2 0-.5 0-.8h-2.4v.3h-.8v-2.6h3.3v-.9h-1.2v.3h-.8v-1.8h-1.8v-.7h1.8v-.9h.8v.9h3.2zm-4.4 5.5h2.4c0-.3 0-.6 0-.9h-2.4zm1.2-3.1h3.2v-.8h-3.2zm4.4 2.2h-2.4v.9h2.5v-.9z"/><path d="m389.2 385.8h.9v1.5h1.9v-1.5h.9v1.5h2.7v6h1.1v.9h-11.3v-.9h1.1v-6h2.7zm.2 8.7.5.8c-1.2.6-2.5 1.3-4 1.9-.2-.3-.3-.6-.6-.8 1.6-.6 3-1.3 4.1-1.9zm-2-4.3h1.9v-2.1h-1.9zm0 3.1h1.9v-2.2h-1.9zm2.7-3.1h1.9v-2.1h-1.9zm0 3.1h1.9v-2.2h-1.9zm2.4 1.3c1.4.6 2.7 1.2 4.1 1.8l-.5.9c-1.5-.7-2.8-1.4-4.1-1.9zm2.2-6.5h-1.9v2.1h1.9zm-1.9 5.2h1.9v-2.2h-1.9z"/></g></svg>