<svg enable-background="new 0 0 400 400" viewBox="0 0 400 400" xmlns="http://www.w3.org/2000/svg"><g fill="#fcfafa"><path d="m342.2 3.2-6.3 9.2h6.1v1.2h-8.2v-.5l6.2-9.1h-5.7v-1.2h7.8v.4z"/><path d="m344 13.7v-10.9h3.1c1.6 0 3 .5 4.1 1.4 1.1 1 1.6 2.2 1.6 3.9s-.5 3-1.6 4-2.5 1.5-4.2 1.5h-3zm1.4-9.6v8.4h1.6c1.4 0 2.5-.4 3.2-1.1.8-.8 1.2-1.8 1.2-3.2s-.4-2.4-1.2-3.1-1.8-1-3.1-1z"/><path d="m356.3 2.8v10.9h-1.4v-10.9z"/><path d="m366.6 13.2c-.8.4-1.8.6-3 .6-1.6 0-2.8-.5-3.7-1.5s-1.4-2.3-1.4-3.9c0-1.7.5-3.2 1.6-4.2s2.4-1.6 4-1.6c1 0 1.9.1 2.6.4v1.5c-.8-.4-1.6-.6-2.6-.6-1.2 0-2.2.4-3 1.2s-1.1 1.9-1.1 3.3c0 1.3.4 2.3 1.1 3.1s1.6 1.1 2.8 1.1c1.1 0 2-.2 2.8-.7v1.3z"/><path d="m368.2 13c0-.3.1-.5.3-.6.2-.2.4-.3.6-.3.3 0 .5.1.7.3s.3.4.3.6-.1.5-.3.6c-.2.2-.4.3-.7.3s-.5-.1-.6-.3c-.2-.2-.3-.4-.3-.6z"/><path d="m381.1 13.7h-1.7l-5.5-8.4c-.2-.2-.3-.5-.4-.7 0 .2.1.8.1 1.5v7.6h-1.4v-10.9h1.8l5.3 8.3c.3.4.4.6.4.8 0-.3-.1-.8-.1-1.6v-7.5h1.4v10.9z"/><path d="m389.7 13.7h-5.8v-10.9h5.6v1.2h-4.2v3.5h3.9v1.2h-3.9v3.7h4.4z"/><path d="m398.4 4.1h-3.1v9.6h-1.4v-9.6h-3.1v-1.3h7.7v1.3z"/></g><path d="m169.66 171.49c2.73.15 5.62-.23 8.14.56 4.96 1.55 9.68 3.61 14.28 6.32 5.67 3.35 12.31 5.07 18.58 7.38.62.23 1.75-.18 2.33-.67 7.02-5.91 14.21-11.63 20.88-17.92 5.57-5.26 6.73-11.98 3.67-19.08-.53-1.24-2.14-2.51-3.48-2.83-7.34-1.77-14.38-.06-21.38 2.2-21.49 6.95-41.01 18.26-61.42 27.61-7.25 3.32-13.34 8.11-19.42 13.03-1.48 1.2-2.73 1.48-4.51.69-6.69-2.97-14.11-4.43-19.63-9.83-1.9-1.86-3.17-3.69-2.16-6.64.89.1 1.77.1 2.6.3 5.47 1.34 10.37.21 15.42-2.32 17.58-8.82 35.31-17.35 53.04-25.86 15.52-7.45 31.68-12.41 49.15-11.19 8.58.6 17.23 1.47 24.88 5.99 2.19 1.29 4.18 3 6.01 4.77 2.55 2.45 3.91 5.19 1.93 8.89-1.24 2.33-2.1 5-2.49 7.62-1.73 11.57-8.94 19.56-17.62 26.22-3.44 2.64-8.26 3.62-12.57 4.97-2.5.79-4.98 1.05-5.88 4.12-1.75 6.01.62 9.14 6.75 8.22 3.51-.53 7.11-1.33 10.31-2.78 7.94-3.59 15.87-7.28 23.41-11.62 3.66-2.11 6.67-5.56 9.5-8.81 2.73-3.13 2.85-6.91.32-10.62.19-.22.37-.45.56-.67 1.32.42 2.95.49 3.9 1.33 3.69 3.25 7.22 6.7 10.68 10.19 1.16 1.17 2.11 2.63 2.86 4.1 2.55 5.02 2.1 6.38-1.81 10.43-12.77 13.19-28.71 19.73-46.45 22.84-4.16.73-8.22 2.12-12.23 3.5-3.76 1.3-5.08 3.73-4.91 7.78.11 2.66.14 5.33.13 7.99-.01 2.43 3.44 4.15 6.47 3.02 4.39-1.63 8.68-3.55 13.09-5.11 5.12-1.8 10.24-4.18 15.52-4.72 4.17-.43 9.03.7 12.77 2.68 4.97 2.63 9.18 6.72 13.66 10.26 3.02 2.38 4.68 5.56 4.02 9.39-.31 1.81-1.23 3.88-2.55 5.1-17.89 16.48-38.04 29.69-59.66 40.71-4.54 2.31-7.56 5.63-8.49 10.89-1.74 9.79-3.85 19.52-5.7 29.29-1.49 7.88-4.12 15.27-8.58 22.01-1.85 2.79-3.27 5.85-4.86 8.8-1.62 3.02-4.24 4.38-8.49 4.99.28-2.8.21-5.31.82-7.63 3.51-13.39 7.67-26.63 10.56-40.15 1.06-4.97-.73-10.54-1.26-16.21-3.25 1.05-5.91 1.79-8.48 2.77-13.63 5.21-28.19 5.83-42.29 8.76-8.53 1.77-17.06 1.6-25.68 1.43-7.02-.14-14.07.47-21.1.86-5.27.29-7.85-.59-10.82-4.48 2.94-1.1 5.64-2.35 8.46-3.12 6.67-1.81 13.52-3.01 20.08-5.13 21.06-6.83 42.01-14 63.02-20.98 3.5-1.16 7.13-1.93 10.63-3.08 3.77-1.24 7.03-3.26 9.57-7.55-4.55 1.02-8.38 1.98-12.26 2.73-9.31 1.81-18.59 4.56-27.98 5.03-15.01.75-30.11-.54-43.73-7.82-4.06-2.17-7.15-6.22-10.52-9.56-.64-.64-.98-2.15-.71-3.04 2.5-8.4 3.26-17.46 9.05-24.63 1.02-1.26 2.21-2.52 3.58-3.36 11.96-7.32 25.38-11.09 38.59-15.17 8.18-2.52 16.76-3.75 25.15-5.6 1.63-.36 3.25-.83 4.8-1.45 7.96-3.21 8.07-4.57 6.12-12.79-2.23-9.41-7.43-16.06-15.2-21.42-4.25-2.93-7.82-6.83-11.7-10.3.26-.54.49-1.09.73-1.63zm-43.34 85.26c2.5 4.81 6.28 7.31 11.27 8.44 4.12.93 8.07 2.63 12.18 3.64 2.78.69 5.75 1.32 8.56 1.07 14.52-1.29 28.19-5.51 41.01-12.51 4.44-2.42 7.55-5.27 6.06-11.01-.61-2.34-.26-4.93-.78-7.31-.42-1.91-1.35-3.75-2.31-5.47-1.05-1.89-2.45-2.34-4.71-1.32-11.44 5.18-23.43 8.6-35.74 11.03-12.56 2.49-24.47 6.79-35.54 13.44zm99.57 15.54c8.19-1.79 26.74-20.27 28.6-23.9-.81.25-1.5.28-1.94.63-8.44 6.78-16.86 13.59-25.23 20.45-.57.47-.75 1.44-1.43 2.82z" fill="#010103"/><path d="m106.31 147.02c-.45-1.87-.68-2.84-1-4.14 1.18-.58 2.34-1.17 3.52-1.71 29.87-13.7 59.79-27.31 89.57-41.22 3.9-1.82 7.25-5.04 10.49-8 1.74-1.59 1.56-3.51-.83-5.22-5.64-4.04-11.1-8.34-16.49-12.7-1.85-1.5-3.47-1.86-5.75-1.05-10.12 3.57-20.46 6.54-30.4 10.52-15.15 6.06-30.89 9.68-46.83 12.67-1.74.33-3.48.65-5.37 1-.49-1.21-.89-2.22-1.36-3.4 12.44-6.69 24.65-13.48 37.07-19.88 7.63-3.93 15.56-7.28 23.34-10.91 1.01-.47 2.08-.9 2.93-1.59 2.65-2.13 2.49-5.46-.44-7.13-6.6-3.77-13.34-7.3-19.92-11.12-3.95-2.3-7.96-4.64-11.45-7.54-2.74-2.28-4.72-5.46-7.04-8.24.19-.43.39-.87.58-1.3 2.33-.12 4.82-.83 6.97-.27 13.61 3.57 27.32 6.9 40.62 11.43 5.25 1.79 9.64 6.32 14.2 9.88 2.14 1.67 4.01 2.17 6.71 1.55 18.78-4.3 37.76-7.45 57.04-8.26 3.87-.16 7.9.06 11.63 1.01 7.89 2 11.95 8.19 12.48 17.04.35 5.85-2.42 10.82-3.65 16.22-.99 4.34-3.25 7-7.31 9.08-4.41 2.26-8.5 5.41-12.14 8.8-3.6 3.34-3.33 5.28.76 7.83 11.78 7.35 19.5 19.01 29.93 27.76.08.07.18.15.22.25 3.12 7.21 8.47 12.48 14.63 17.1.83.62 1.36 1.78 1.74 2.8 1.02 2.69-.68 4.87-3.5 4.19-2.1-.51-4.23-1.48-5.99-2.74-19.77-14.08-39.49-28.23-59.18-42.44-1.88-1.36-3.41-1.3-5.51-.56-23.68 8.32-46.21 19.26-68.87 29.9-4.72 2.21-9.49 3.66-14.65 4.44-7.71 1.16-15.3 3.03-22.99 4.35-4.46.78-9.02 1.07-13.76 1.6zm106.7-84.26c.68 1.37.74 1.6.88 1.76 2.55 2.83 5.09 5.65 7.66 8.46 4.31 4.7 10.05 4.93 14.56.39 2.44-2.45 4.74-5.08 6.79-7.86 1.22-1.66 2.19-3.7 2.64-5.71.7-3.08-1.02-4.54-4.02-3.89-3.49.75-7.02 1.35-10.49 2.2-5.92 1.44-11.79 3.03-18.02 4.65z" fill="#010103"/></svg>