<svg enable-background="new 0 0 400 400" viewBox="0 0 400 400" xmlns="http://www.w3.org/2000/svg"><g fill="#010102"><path d="m187.98 164.43c6.47.94 9.26 3.85 9.38 10.16.12 6.37-.33 12.76-.01 19.12.52 10.36 1.36 20.71 2.26 31.05 1.8 20.65.86 41.1-3.95 61.31-.87 3.67-4.47 5.45-7.83 3.74-4-2.03-8.13-2.68-12.6-2.65-3.46.03-6.93-.93-10.4-1.42-1.32-.19-2.69-.53-3.99-.37-11.71 1.39-23.17-.97-34.72-2.06-2.48-.24-5.1-.04-7.55.48-5.08 1.07-10.11 1.99-15.21.34-2.58-.83-4.12-2.26-4.69-5.3-3.37-17.94-5.61-36.02-6.12-54.26-.39-13.96.03-27.94 0-41.92-.01-2.24.94-2.93 3.01-3.48 12.03-3.18 24.27-3.36 36.6-3.25 9.48.08 18.97-.73 28.46-.97 5.35-.13 10.75-.25 16.06.24 5.59.51 7.4-.19 9.49-5.45.69-1.74 1.21-3.55 1.81-5.31zm-81.38 105.72c1.66 0 2.32.01 2.98 0 18.11-.25 36.18-.49 53.9 4.51 6.31 1.78 12.99 1.89 19.67-.11 0-1.97.01-3.85 0-5.74-.15-24.03-.31-48.06-.44-72.08-.03-5.34-3.96-8.13-9.25-6.85-5.18 1.26-10.44 2.62-15.72 2.94-3.41.2-7.03-2.29-10.38-1.94-3.58.37-6.84 3.31-10.46 3.98-5.01.92-10.24.54-15.33 1.15-4.17.5-8.27 1.58-12.38 2.52-2.13.48-2.86 1.84-2.81 4.16.2 9.5.2 19.01.22 28.52.02 12.83 0 25.67 0 38.94z"/><path d="m135.67 25.08c9.66 3.3 17.67 8.5 24.18 16 5.96 6.87 10.01 14.76 12.58 23.45 1.27 4.29 2.78 8.52 3.76 12.87 1.15 5.1 4.54 8.01 8.82 10.28.59.31 1.21.63 1.85.77 9.79 2.17 16.97 8.38 24.16 14.91 6.44 5.85 13.76 10.73 20.4 16.38 3.35 2.85 6.56 6.15 8.93 9.82 2.87 4.45 1.82 6.7-3.31 7.11-6.98.57-14.06.69-21.04.14-10.4-.81-20.72-1.7-31.09.25-1.45.27-3.08-.41-4.9-.7-1.14.22-2.73.96-4.18.74-11.05-1.65-22.02-4.09-33.12-5.07-8.16-.72-13.79-4-17.6-10.97-.05-.1-.07-.21-.35-1.1 3.44-.44 6.77-1.3 10.07-1.21 9.38.27 18.76.71 28.11 1.51 8.29.71 11.68-.97 8.53-10.02-1.06-3.06-2.23-6.11-2.96-9.26-1.53-6.62-6.02-9.93-12.24-11.22-4.7-.98-9.49-1.53-14.22-2.35-4.81-.84-7.3-3.18-8.31-7.14-.61-2.4.33-3.59 2.51-3.51 3.76.14 7.51.61 11.26.98 3.32.33 6.63.79 9.96 1.03 3 .22 4.46-1.59 4.22-4.33-.26-2.86-.84-5.75-1.75-8.47-1.31-3.91-2.94-7.73-4.65-11.49-.67-1.47-1.79-2.81-2.95-3.95-3.9-3.85-8.05-7.46-11.84-11.41-3.62-3.74-5.51-8.29-4.83-14.04zm76.01 95.8c.21-.46.42-.92.64-1.38-2.5-2.59-4.68-5.65-7.59-7.66-4.19-2.9-8.88-5.08-13.42-7.45-.65-.34-1.72-.32-2.43-.04-2.59 1.01-4.18 2.65-2.49 5.57 2.11 3.65-.24 9.85 5.79 11.14 4.41.94 9.01 1.24 13.53 1.37 1.98.05 3.98-1 5.97-1.55z"/><path d="m294.71 317.06c5 .01 5.9 3.12 5.37 6.35-1.36 8.23-3.12 16.39-4.87 24.55-.22 1.04-1.33 1.88-2.02 2.82-.37-.01-.75-.02-1.12-.04-1.13-4.96-2.23-9.93-3.4-14.87-.72-3.03-1.3-6.13-2.38-9.04-4.03-10.9-8.23-21.73-12.36-32.59-.16-.42-.32-.83-.46-1.26-3.1-9.29-6.12-18.6-9.36-27.83-.49-1.39-1.76-2.93-3.07-3.53-5.48-2.52-11.09-4.73-16.68-7-9.79-3.98-16.8-10.18-18.66-21.3-1.32-7.88-2.63-15.67-.99-23.62.33-1.59.94-3.12 1.57-5.19 5.1 7.08 10.39 13.33 11.94 21.69.29 1.53.78 3.03 1.15 4.55 1.59 6.44 4.58 11.57 11.68 13.19 2.13.49 4.14 1.46 7.29 2.6-.6-7.1-1.17-13.39-1.65-19.68-.2-2.67-.66-5.44-.14-7.99.37-1.8 1.87-3.89 3.46-4.8 1.98-1.13 3.93-.68 4.99 2.31 3.57 9.98 7.44 19.86 11.4 29.7.97 2.41 2.7 4.52 4.37 7.24 4.6-13.13 1.16-27.62 9.82-38.89.37-.01.73-.03 1.1-.04 1.14 5.05 2.34 10.08 3.4 15.15 2.56 12.29 4 24.58 3.25 37.26-.42 7.22 2.01 14.57 2.58 21.9.51 6.66.3 13.38.29 20.07 0 2.95-1.07 5.4-4.07 6.62-.69.26-1.25.83-2.43 1.67z"/><path d="m119.57 337.06c7.09-2.55 13.47-1.25 19.83.7 5.76 1.77 11.49 3.68 17.31 5.2 5.64 1.48 10.88.17 15.47-3.42 3.79-2.97 3.54-6.83.1-10.19-5.09-4.98-9.87-10.28-14.71-15.51-.94-1.02-1.5-2.39-2.63-4.24 11.4.86 22.38 2.11 30.46 9.4 8.85 7.98 19.36 12.13 29.72 17.01 5.75 2.71 11.36 5.75 16.84 8.97 1.57.92 2.97 2.79 3.59 4.53 1.08 3.04-.05 4.5-3.2 5.24-2.28.53-4.62.9-6.85 1.6-5.23 1.64-10.33 1.44-15.79.72-5.02-.67-10.37.42-15.48 1.3-7.46 1.28-14.6.94-21.64-2.01-1.08-.45-2.93-.26-3.89.41-13.81 9.65-29.6 13.29-45.92 15.47-3.3.44-6.52 1.55-9.81 2.14-1.83.33-3.77.49-5.6.27-2.63-.33-4.45-1.6-3.16-5.17 4.45-1.04 9.18-2.24 13.95-3.25 6.76-1.43 13.04-3.83 18.59-8.07 1.76-1.34 3.84-2.28 5.83-3.28 1.78-.9 2.05-2.15 1.32-3.87-1.72-4.05-3.45-5-7.8-4.73-7.17.44-12.27-3.04-16.53-9.22zm71.82 8.3c1.71 1.1 2.87 2.47 3.72 2.3 4.04-.83 8-2.09 12.61-3.37-1.64-1.27-2.67-2.31-3.9-2.94-1.02-.52-2.5-1.08-3.4-.71-2.73 1.14-5.29 2.72-9.03 4.72z"/></g><path d="m385.2 377.6.6-.7c.6.4 1.3.9 1.9 1.5l-.6.7c-.8-.5-1.4-1-1.9-1.5zm.3 7.1c.6-1.4 1.1-2.9 1.5-4.5.3.1.6.3.9.4-.5 1.4-1 2.9-1.5 4.4zm.2-10.1.6-.6c.7.5 1.3 1.1 1.9 1.6l-.7.7c-.6-.6-1.2-1.2-1.8-1.7zm8.4-.8h.8v.9h1.8v.7h-1.8v1.8h-.8v-.3h-1.2v.9h3.3v2.6h-.8v-.4h-2.5c0 .3 0 .6-.1.8h3.4v.7h-3.5c0 .3-.1.6-.1.8h4v.7h-3.5c.7.9 1.9 1.3 3.6 1.5-.2.2-.4.5-.6.9-1.9-.3-3.2-1.1-3.8-2.3-.5 1.1-1.8 2-3.9 2.4-.2-.3-.4-.5-.6-.8 1.9-.4 3.1-.9 3.6-1.7h-3.2v-.7h3.5c.1-.2.1-.5.2-.8h-3.3v-.7h3.4c0-.2 0-.5 0-.8h-2.4v.3h-.8v-2.6h3.3v-.9h-1.2v.3h-.8v-1.8h-1.8v-.7h1.8v-.9h.8v.9h3.2zm-4.4 5.5h2.4c0-.3 0-.6 0-.9h-2.4zm1.2-3.1h3.2v-.8h-3.2zm4.4 2.2h-2.4v.9h2.5v-.9z" fill="#fcfbfa"/><path d="m389.2 385.8h.9v1.5h1.9v-1.5h.9v1.5h2.7v6h1.1v.9h-11.3v-.9h1.1v-6h2.7zm.2 8.7.5.8c-1.2.6-2.5 1.3-4 1.9-.2-.3-.3-.6-.6-.8 1.6-.6 3-1.3 4.1-1.9zm-2-4.3h1.9v-2.1h-1.9zm0 3.1h1.9v-2.2h-1.9zm2.7-3.1h1.9v-2.1h-1.9zm0 3.1h1.9v-2.2h-1.9zm2.4 1.3c1.4.6 2.7 1.2 4.1 1.8l-.5.9c-1.5-.7-2.8-1.4-4.1-1.9zm2.2-6.5h-1.9v2.1h1.9zm-1.9 5.2h1.9v-2.2h-1.9z" fill="#fcfbfa"/></svg>