<svg enable-background="new 0 0 400 400" viewBox="0 0 400 400" xmlns="http://www.w3.org/2000/svg"><g fill="#010102"><path d="m118.99 249.73c.67-22.13.97-44.28 2.2-66.38.55-9.88 2.9-19.67 4.52-29.48.44-2.65.18-5.6 3.04-7.42.54-.34.44-2.05.26-3.07-.28-1.64-1.08-3.2-1.28-4.84-.33-2.79.04-5.4 3.16-6.63.41-.16.82-.39 1.16-.68 6.34-5.23 13.28-6.75 21.1-3.64 1.03.41 2.76.5 3.52-.09 6.26-4.87 13.87-4.42 21.05-5.71 10.94-1.96 21.59.86 32.37 1.66.54.04 1.28.13 1.57.49 2.8 3.44 5.98 1.99 9.55 1.4 11.59-1.93 23.26-1.22 34.63 1.49 3.41.81 6.28 4.07 9.27 6.38.53.41.55 1.62.62 2.47.24 3.01.64 6.04.52 9.04-.13 3.15-.77 6.28-1.22 9.41-.19 1.32-.81 2.69-.6 3.93 1.14 6.89-.43 13.56-1.39 20.29-3.29 22.91-6.25 45.88-9.99 68.72-1.74 10.59-7.68 19.68-13.4 28.65-.56.87-1.98 1.53-3.07 1.66-14.75 1.76-29.49 3.94-44.3 4.9-10.43.68-20.96-.38-31.45-.57-6.46-.12-12.92.01-19.38-.17-1.66-.05-3.36-.7-4.94-1.34-1.85-.74-3.51-2.03-5.4-2.62-7.81-2.44-11.66-7.88-12.3-15.8-.33-4.01-.41-8.04-.6-12.06.25.01.51.01.78.01zm24.26-111.59c-.16.79-.36 1.42-.41 2.06-.9 11.02-1.68 22.06-2.7 33.07-.61 6.61-1.88 13.17-5.64 18.76-1.76 2.62-1.92 4.82-1.24 7.72 2.37 10.06 5.74 20.02 2.94 30.65-1.36 5.17-2.14 10.51-3.07 15.79-1.07 6.04-1.15 11.97 1.61 17.72 1.25 2.6 3.08 3.88 5.79 3.45 2.84-.45 5.74-1 8.39-2.07 5.02-2.04 9.8-2.57 14.83-.01 2.55 1.29 5.35 2.43 8.15 2.82 4.41.61 8.92.66 13.38.71 9.49.11 18.99.31 28.46 0 8.26-.27 13.66-5.72 16.04-12.73 4.04-11.87 5.1-24.42 5.92-36.97.83-12.69 2.13-25.39 4.03-37.97 1.38-9.14 4.32-18.03 6.1-27.12.78-3.98.55-8.2.46-12.31-.05-2.67-1.42-4.23-4.51-3.92-2.43.25-4.92.05-7.38-.02-19-.56-38.02-1.31-56.79 2.68-10.52 2.24-20.8 1.78-30.97-1.68-1.03-.34-2.16-.4-3.39-.63z"/><path d="m72.56 188.66c3.3 2.76 4.65 2.69 7.09-.33 6.54-8.1 13.15-16.14 19.54-24.35 1.13-1.44 1.96-3.58 1.93-5.38-.21-15.26 2.55-30.02 6.97-44.53.09-.3.32-.56.57-.97 3.3 1.13 4.57 3.74 5.1 6.81 2.08 11.98 2.76 24.03 1.12 36.1-.84 6.18-2 12.35-3.57 18.39-.62 2.39-2.62 4.48-4.19 6.56-.71.95-1.78 1.76-2.86 2.3-7.97 4.05-12.62 10.93-16.52 18.65-2.74 5.44-5.32 11.14-11.23 14.22-.98.51-1.87 1.78-2.19 2.88-2.35 8.17-6.42 16.07-3.83 25.04.74 2.56 1.03 5.27 1.31 7.93.38 3.57-1 5.17-4.6 5.6-3.5.42-6.19-.17-8.42-3.66-6.32-9.9-13.38-19.32-19.68-29.22-10.67-16.77-17.12-35.03-16.3-55.11.31-7.71 2.66-15.34 4.18-22.99.14-.73.9-1.82 1.44-1.86.64-.05 1.75.73 1.96 1.37.75 2.27 2.06 4.81 1.63 6.94-1.68 8.26-.23 16.05 2.73 23.64 4.62 11.85 9.3 23.69 14.34 35.37 1.58 3.66 4.4 6.78 6.66 10.15.31-.14.63-.28.94-.42.71-8.87 1.43-17.73 2.11-26.6 1.3-16.74 2.72-33.47 3.81-50.22.46-7.02.14-14.1.27-21.14.08-4.25 1.62-6.17 6.37-7.5 1.45 8.51 3.45 16.89 4.17 25.37.77 9 .32 18.11.43 27.17.03 2-.09 4.06.33 5.99 1.66 7.37 1.73 7.36-1.61 13.8z"/><path d="m281.75 275.53c-3.59.87-3.6.88-5.05-3.32-2.07-5.96-1.49-11.9.25-17.81 1.82-6.22 3.57-12.46 5.52-18.64.44-1.39 1.33-2.88 2.45-3.78 7.67-6.17 15.46-12.19 23.21-18.27.79-.62 1.63-1.23 2.27-1.99 4.62-5.48 10.34-9.26 16.79-12.39 4.86-2.36 5.8-7.6 6.38-12.61.49-4.22.79-8.47 1.56-12.64.26-1.43 1.41-3.03 2.62-3.88 4.11-2.91 8.48-5.42 12.64-8.26 5.85-3.99 12.8-6.66 16.07-13.79 4.47 2.47 5.81 6.48 5.99 10.57.22 5.31.29 10.82-.89 15.94-2.71 11.73-4.01 23.51-4.43 35.53-.61 17.65-1.99 35.28-3.17 52.9-.15 2.19-.79 4.43-1.65 6.46-.51 1.19-1.75 2.55-2.93 2.89-2.35.68-2.68-1.6-2.98-3.11-.8-4.04-1.81-8.13-1.87-12.21-.14-9.96.25-19.92.32-29.88.03-3.46-.09-6.94-.45-10.38-.37-3.56-1.96-6.56-5.37-8.78-5.91 8.01-11.11 16.06-11.46 26.37-.08 2.38-.65 4.85-1.52 7.07-1.95 4.99-4.47 9.77-6.33 14.79-2.67 7.21-4.92 14.57-7.42 21.85-1.27 3.71-2.57 7.46-7.17 8.7-1.84-5.73-.89-11.36.03-16.93 2.23-13.44 4.65-26.85 6.94-40.29.76-4.48-.21-4.86-4.65-4.74-8.97.23-13.71 7.27-20.11 11.64-.42.29-.69 1.21-.6 1.77.58 3.72-1.22 6.71-2.78 9.79-2.57 5.09-5.26 10.13-7.61 15.31-1.68 3.66-2.89 7.53-4.6 12.12zm80.87-97c-.1 0-.19 0-.29 0 0-2.23.14-4.48-.05-6.69-.13-1.48.8-3.84-1.69-4.06-2.86-.25-5.82-2.91-8.67.32-3.96 4.49-5.69 10-6.05 15.62-.63 9.92 1.8 10.06 10.67 8.16 5.07-1.08 6.21-3.4 6.09-8.65-.05-1.58-.01-3.14-.01-4.7z"/></g><path d="m385.2 377.6.6-.7c.6.4 1.3.9 1.9 1.5l-.6.7c-.8-.5-1.4-1-1.9-1.5zm.3 7.1c.6-1.4 1.1-2.9 1.5-4.5.3.1.6.3.9.4-.5 1.4-1 2.9-1.5 4.4zm.2-10.1.6-.6c.7.5 1.3 1.1 1.9 1.6l-.7.7c-.6-.6-1.2-1.2-1.8-1.7zm8.4-.8h.8v.9h1.8v.7h-1.8v1.8h-.8v-.3h-1.2v.9h3.3v2.6h-.8v-.4h-2.5c0 .3 0 .6-.1.8h3.4v.7h-3.5c0 .3-.1.6-.1.8h4v.7h-3.5c.7.9 1.9 1.3 3.6 1.5-.2.2-.4.5-.6.9-1.9-.3-3.2-1.1-3.8-2.3-.5 1.1-1.8 2-3.9 2.4-.2-.3-.4-.5-.6-.8 1.9-.4 3.1-.9 3.6-1.7h-3.2v-.7h3.5c.1-.2.1-.5.2-.8h-3.3v-.7h3.4c0-.2 0-.5 0-.8h-2.4v.3h-.8v-2.6h3.3v-.9h-1.2v.3h-.8v-1.8h-1.8v-.7h1.8v-.9h.8v.9h3.2zm-4.4 5.5h2.4c0-.3 0-.6 0-.9h-2.4zm1.2-3.1h3.2v-.8h-3.2zm4.4 2.2h-2.4v.9h2.5v-.9z" fill="#fcfbfa"/><path d="m389.2 385.8h.9v1.5h1.9v-1.5h.9v1.5h2.7v6h1.1v.9h-11.3v-.9h1.1v-6h2.7zm.2 8.7.5.8c-1.2.6-2.5 1.3-4 1.9-.2-.3-.3-.6-.6-.8 1.6-.6 3-1.3 4.1-1.9zm-2-4.3h1.9v-2.1h-1.9zm0 3.1h1.9v-2.2h-1.9zm2.7-3.1h1.9v-2.1h-1.9zm0 3.1h1.9v-2.2h-1.9zm2.4 1.3c1.4.6 2.7 1.2 4.1 1.8l-.5.9c-1.5-.7-2.8-1.4-4.1-1.9zm2.2-6.5h-1.9v2.1h1.9zm-1.9 5.2h1.9v-2.2h-1.9z" fill="#fcfbfa"/></svg>