<svg enable-background="new 0 0 400 400" viewBox="0 0 400 400" xmlns="http://www.w3.org/2000/svg"><g fill="#010102"><path d="m128.53 189.97c-1.54-13.4 3.61-25.3 9.57-36.5 6.28-11.8 16.65-18.97 30.61-19.68 9.93-.5 19.88-.83 29.8-1.51 18.37-1.26 36.23 2.86 54.28 4.92 5.99.68 10.79 3.94 12.57 10.11.48 1.67.19 3.97-.61 5.54-3.33 6.53-4.52 13.46-3.51 20.53 2.29 16.15 1.33 32.12-1.58 48.07-.98 5.38-1.53 10.85-2.78 16.16-.64 2.73-2.15 5.37-3.74 7.73-1.28 1.89-3.23 2.12-4.37-.41-1.37-3.05-3.91-3.91-6.94-4.3-22.51-2.88-45.02-5.82-67.53-8.74-.55-.07-1.14-.22-1.67-.11-10.48 2.17-19.95-2.66-29.9-4.17-4.77-.72-6.87-3.03-8.44-7.66-2.7-7.97-5.81-15.72-5.76-24.29.01-1.89 0-3.79 0-5.69zm117.46-38.15c-4.53-.95-9.21-1.96-13.91-2.86-.68-.13-1.46.36-2.2.5-2.59.46-5.22 1.39-7.78 1.24-20.65-1.25-41.28-2.78-61.92-4.04-6.28-.39-4.57-1.36-7.2 4.83-1.25 2.94-2.82 5.74-4.35 8.55-1.24 2.29-3.34 4.34-3.84 6.76-2.51 12.09-3.9 24.34-1.93 36.63 1.78 11.16 6.09 17.07 19 16.34 1.56-.09 3.14-.34 4.69-.19 2.92.27 6 .3 8.68 1.3 3.56 1.33 6.81 1.89 10.66 1.14 3.86-.75 7.96-.62 11.92-.32 7.24.54 14.47 1.4 21.68 2.27 6.53.79 13.14 1.33 19.52 2.83 3.25.76 3.86.05 4.72-2.73 3.52-11.28 3.64-22.9 3.83-34.52.22-12.52 1.16-25.05-1.57-37.73z"/><path d="m123.03 262.33c2.7-.71 4.36-1.39 6.07-1.55 11.23-1.06 22.48-2 33.72-2.98.78-.07 1.67-.4 2.31-.13 4.56 1.87 9.02.59 13.51-.25 12.57-2.36 25.18-1.21 37.8-.59 6.34.32 12.72 0 19.08-.14 3.85-.08 10.64 3.89 11.86 7.4.24.7-.58 2.22-1.34 2.74-6.55 4.45-14.05 5.59-21.74 5.62-7.27.03-14.54-.37-21.81-.34-1.93.01-5.3.56-5.51 1.46-.54 2.27-.21 5.12.76 7.29 1.68 3.75 4.23 7.1 6.2 10.73 1.37 2.53 2.73 5.16 3.44 7.92.7 2.71 2.02 3.74 4.7 4.09 16.97 2.16 33.94 4.39 50.87 6.81 2.46.35 4.76 1.83 7.53 2.95-2.74 3.49-5.06 5.29-8.86 5.43-13.29.5-26.58 1.31-39.85 2.13-1.82.11-3.6.94-5.39 1.44.82 2.2 1.12 4.86 2.56 6.52 2.92 3.36 6.46 6.18 9.74 9.23 3.77 3.5 7.63 6.92 11.3 10.53 3.95 3.87 8.2 7.17 13.37 9.33 1.32.55 2.58 2.08 3.13 3.45 1.75 4.29 3.14 8.72 4.89 13.69-6.74-2.16-13.05-3.15-18.61-6.92-9.34-6.34-19.04-12.16-28.52-18.3-1.35-.87-2.62-2.13-3.45-3.5-5.04-8.27-11.04-16.06-13.06-25.88-.18-.89-1.31-1.71-2.17-2.33-3.82-2.75-9.01-3.63-11.39-8.39-.18-.37-.95-.51-1.47-.63-.76-.17-1.55-.34-2.32-.31-9.22.31-15.75-4.59-21.53-11-1.35-1.5-2.96-2.78-4.16-4.37-3.83-5.05-8.86-8.35-14.58-10.88-1.43-.63-2.9-2.18-3.44-3.65-1.68-4.62-4.25-8.12-8.76-10.48-1.91-1.03-2.95-3.63-4.88-6.14zm63.57 30.18c-1.09-3.99-1.86-7.78-3.15-11.38-3.11-8.64-4.96-9.93-14-9.22-4.22.33-8.37 1.51-12.79 2.35 3.75 7.49 22.48 19.04 29.94 18.25z"/><path d="m146.02 76.48c11.64-1.67 21.86-7.43 33.75-5.92-.75-4.45-1.44-8.61-2.15-12.77-.06-.32-.12-.75-.34-.93-4.64-3.79-8.95-8.15-14.05-11.17-6.49-3.85-13.75-6.37-20.41-9.97-2.78-1.5-4.86-4.3-7.33-6.57 7.14-4.93 14.36-3.82 21.46-3.3 2.66.2 5.34.64 7.93 1.27 3.17.77 5.17 2.83 7.03 5.66 3.23 4.91 7.19 9.36 11 13.87 3.43 4.07 6.53 7.84 7.67 13.64 1.01 5.12 4.32 10.44 10.07 12.6 6.16 2.31 12.45 4.28 18.69 6.39 2.96 1 5.98 1.86 8.9 2.97 6.44 2.44 12.24 5.63 16.61 11.36 4.54 5.95 9.63 11.51 14.79 16.94 2.38 2.5 1.23 4.86.45 7.11-.29.84-2.47 1.3-3.84 1.44-12 1.23-24.01 2.35-36.02 3.5-.44.04-.96.3-1.3.14-8.01-3.81-15.81.43-23.71.52-2.6.03-5.36.03-7.79-.76-7.64-2.5-15.15-5.43-22.75-8.07-1.87-.65-3.62-1.47-3.01-3.58.32-1.13 1.86-2.23 3.1-2.73 6.42-2.62 13.16-2.22 19.87-1.65 4.93.41 7.99-2.76 6.99-7.48-.53-2.52-1.35-5.01-1.54-7.55-.24-3.29-1.94-5.22-4.85-6-3.85-1.04-7.75-2.16-11.69-2.48-5.23-.42-10.52.05-15.78-.16-4.42-.2-8.53-1.46-11.75-6.32zm88.53 29.47c-8.78-8-17.81-14.62-28.85-18.09-4.46 8.91.8 18.64 9.85 19.34 3.14.25 6.23 1.08 9.35 1.61.53.09 1.14.14 1.63-.02 2.51-.85 5-1.76 8.02-2.84z"/></g><path d="m385.2 377.6.6-.7c.6.4 1.3.9 1.9 1.5l-.6.7c-.8-.5-1.4-1-1.9-1.5zm.3 7.1c.6-1.4 1.1-2.9 1.5-4.5.3.1.6.3.9.4-.5 1.4-1 2.9-1.5 4.4zm.2-10.1.6-.6c.7.5 1.3 1.1 1.9 1.6l-.7.7c-.6-.6-1.2-1.2-1.8-1.7zm8.4-.8h.8v.9h1.8v.7h-1.8v1.8h-.8v-.3h-1.2v.9h3.3v2.6h-.8v-.4h-2.5c0 .3 0 .6-.1.8h3.4v.7h-3.5c0 .3-.1.6-.1.8h4v.7h-3.5c.7.9 1.9 1.3 3.6 1.5-.2.2-.4.5-.6.9-1.9-.3-3.2-1.1-3.8-2.3-.5 1.1-1.8 2-3.9 2.4-.2-.3-.4-.5-.6-.8 1.9-.4 3.1-.9 3.6-1.7h-3.2v-.7h3.5c.1-.2.1-.5.2-.8h-3.3v-.7h3.4c0-.2 0-.5 0-.8h-2.4v.3h-.8v-2.6h3.3v-.9h-1.2v.3h-.8v-1.8h-1.8v-.7h1.8v-.9h.8v.9h3.2zm-4.4 5.5h2.4c0-.3 0-.6 0-.9h-2.4zm1.2-3.1h3.2v-.8h-3.2zm4.4 2.2h-2.4v.9h2.5v-.9z" fill="#fcfbfa"/><path d="m389.2 385.8h.9v1.5h1.9v-1.5h.9v1.5h2.7v6h1.1v.9h-11.3v-.9h1.1v-6h2.7zm.2 8.7.5.8c-1.2.6-2.5 1.3-4 1.9-.2-.3-.3-.6-.6-.8 1.6-.6 3-1.3 4.1-1.9zm-2-4.3h1.9v-2.1h-1.9zm0 3.1h1.9v-2.2h-1.9zm2.7-3.1h1.9v-2.1h-1.9zm0 3.1h1.9v-2.2h-1.9zm2.4 1.3c1.4.6 2.7 1.2 4.1 1.8l-.5.9c-1.5-.7-2.8-1.4-4.1-1.9zm2.2-6.5h-1.9v2.1h1.9zm-1.9 5.2h1.9v-2.2h-1.9z" fill="#fcfbfa"/></svg>