<svg enable-background="new 0 0 400 400" viewBox="0 0 400 400" xmlns="http://www.w3.org/2000/svg"><g fill="#fcfafa"><path d="m342.2 3.2-6.3 9.2h6.1v1.2h-8.2v-.5l6.2-9.1h-5.7v-1.2h7.8v.4z"/><path d="m344 13.7v-10.9h3.1c1.6 0 3 .5 4.1 1.4 1.1 1 1.6 2.2 1.6 3.9s-.5 3-1.6 4-2.5 1.5-4.2 1.5h-3zm1.4-9.6v8.4h1.6c1.4 0 2.5-.4 3.2-1.1.8-.8 1.2-1.8 1.2-3.2s-.4-2.4-1.2-3.1-1.8-1-3.1-1z"/><path d="m356.3 2.8v10.9h-1.4v-10.9z"/><path d="m366.6 13.2c-.8.4-1.8.6-3 .6-1.6 0-2.8-.5-3.7-1.5s-1.4-2.3-1.4-3.9c0-1.7.5-3.2 1.6-4.2s2.4-1.6 4-1.6c1 0 1.9.1 2.6.4v1.5c-.8-.4-1.6-.6-2.6-.6-1.2 0-2.2.4-3 1.2s-1.1 1.9-1.1 3.3c0 1.3.4 2.3 1.1 3.1s1.6 1.1 2.8 1.1c1.1 0 2-.2 2.8-.7v1.3z"/><path d="m368.2 13c0-.3.1-.5.3-.6.2-.2.4-.3.6-.3.3 0 .5.1.7.3s.3.4.3.6-.1.5-.3.6c-.2.2-.4.3-.7.3s-.5-.1-.6-.3c-.2-.2-.3-.4-.3-.6z"/><path d="m381.1 13.7h-1.7l-5.5-8.4c-.2-.2-.3-.5-.4-.7 0 .2.1.8.1 1.5v7.6h-1.4v-10.9h1.8l5.3 8.3c.3.4.4.6.4.8 0-.3-.1-.8-.1-1.6v-7.5h1.4v10.9z"/><path d="m389.7 13.7h-5.8v-10.9h5.6v1.2h-4.2v3.5h3.9v1.2h-3.9v3.7h4.4z"/><path d="m398.4 4.1h-3.1v9.6h-1.4v-9.6h-3.1v-1.3h7.7v1.3z"/></g><path d="m130.41 291.82c1.93.57 3.38.65 4.39 1.36 2.53 1.78 5.16 2.2 8.23 1.99 15.72-1.07 30.96-4.35 45.82-9.53 1.58-.55 3.13-1.19 4.7-1.78 10.04-3.78 8.65-6.92 6.9-16.08-.18-.95-1.85-2.21-2.91-2.3-4.28-.37-8.75-1.15-12.86-.33-16.09 3.24-31.74 2.54-47.25-3.01-2.96-1.06-6.4-.79-9.62-1.05-8.63-.71-12.48-6.64-9.51-14.73 5.75-15.66 8.47-19.23 22.8-26.21 4.83-2.35 10.47-3.11 15.77-4.43 6.67-1.66 13.34-3.25 17.37-9.67-4.77-5.52-13.57-5.39-17.62-12.45 3.66-2.54 2.21-5.08.37-7.77-3.55-5.16-7.21-10.27-10.36-15.68-2.18-3.73-5.11-5.04-9.13-4.79-.56.04-1.3.23-1.65-.04-1.29-1.01-2.46-2.18-3.67-3.29.8-.86 1.43-2.07 2.42-2.54 14.46-6.81 29.02-13.4 43.44-20.28 11.01-5.26 21.89-10.84 30.92-19.27 3.57-3.33 6.78-7.05 10.16-10.59-.15-.35-.29-.7-.44-1.06-2.21.22-4.51.1-6.6.71-15.37 4.54-30.27 10.21-44.18 18.3-2.5 1.45-5.23 2.54-7.92 3.62-7.81 3.14-15.25 6.81-21.61 12.54-4.05 3.65-9.52 3.98-13.96.8-3.98-2.84-7.68-6.19-11.07-9.72-1.75-1.82-2.56-4.53-3.93-7.08 3.01-.85 4.96-1.45 7.37.61 2.88 2.48 6.58 1.63 9.84.12 10.65-4.93 21.25-9.97 31.9-14.9 4.15-1.92 8.4-3.65 12.59-5.51 4.71-2.1 7.47-5.42 7.22-10.92-.16-3.46.14-6.94.26-10.4.12-3.56-1.19-5.13-4.81-5.09-1.73.02-3.51.59-5.15 1.21-8.79 3.28-17.51 6.74-26.32 9.98-12.11 4.46-22.1-.46-31.3-7.7-1.66-1.3-2.16-4.08-3.22-6.24.92-.37 1.17-.57 1.31-.51 5.21 2.22 10.12.9 15.2-.8 17.38-5.8 34.84-11.36 52.26-17.03 4.2-1.37 5.49-2.88 5.12-7.37-.57-7.1-2.46-13.85-6.92-19.63-1.28-1.66-2.55-3.34-3.82-4.99 3.63-2.94 7.1-3.37 10.94-.94 6.42 4.06 12.92 8.01 19.43 11.92 2.63 1.58 3.84 3.79 4.11 6.82.22 2.53.89 5.02 1.42 7.81 4.67-.83 9.13-1.8 13.64-2.38 12.88-1.66 25.7-.94 38.32 1.9 3.08.69 6.15 2.74 8.54 4.91 2.98 2.71 1.75 5.49-2.3 6.17-.33.05-.72.17-1 .06-9.54-3.9-18.43.74-27.56 2.08-8.62 1.27-17.29 2.37-25.78 4.25-3.25.72-6.62 2.89-8.96 5.34-5.3 5.54-7.59 12.74-9.73 20.86 2.42-.18 4.69.3 6.12-.58 6.2-3.81 13.2-3.93 20.02-4.91 1.77-.25 3.59-.28 5.32-.68 5.7-1.32 10.82-.21 16.1 2.34 5.7 2.74 11.9 4.43 18.22 6.7-.2 3-.29 6.13-.68 9.21-.12.91-.93 1.99-1.74 2.51-11.1 7.14-21.73 15.31-33.58 20.9-8.75 4.13-17.42 8.38-25.98 12.89-1.54.81-3.01 1.75-4.29 3.12 9.17-1.92 18.43-3.5 27.51-5.82 14.34-3.67 27.64-1.37 40.43 5.63 3.51 1.92 5.46 4.69 5.16 8.62-.13 1.6-.92 3.47-2.03 4.62-4.18 4.31-8.62 8.37-13.33 12.89 8.84.97 13.09 7.86 18.69 12.67 1.42 1.22 1.83 4.17 1.83 6.32 0 2.14-1.07 4.29-1.73 6.41-.97 3.08-3.28 4.81-6.32 4.43-6.6-.81-11.97 2.25-17.87 4.3-9.86 3.43-20.15 5.61-30.26 8.31-1.18.32-2.46.41-3.54.94-2.4 1.18-2.67 2.88-.72 4.63 3.31 2.98 5.25 6.61 5.86 11 .14.99.37 1.98.68 2.93 1.75 5.39 2.79 5.68 8.31 5.7 9.21.03 17.53-2.55 25.56-6.84 5.51-2.94 11.23-5.56 17.01-7.94 4.62-1.9 9.43-3.36 14.25-4.67 1.17-.32 3.28.31 3.93 1.23 1.14 1.6 1.29 3.51-.59 5.36-7.95 7.83-17.39 13.42-27.46 17.78-9.51 4.12-19.39 7.4-29.16 10.93-5.2 1.88-7.25 4.69-6.93 10.24.06 1.11.28 2.22.41 3.33.36 2.98 1.57 4.3 5.01 4.04 11.15-.83 22.33-1.34 33.51-1.78 3.78-.15 7.59.16 11.37.47 2.28.18 3.93 1.28 4.31 3.89.37 2.58-1.04 3.75-3.12 4.4-11.2 3.47-22.4 6.91-33.62 10.3-5.78 1.74-11.63 3.23-17.37 5.1-1.07.35-2.21 1.81-2.51 2.97-3.02 11.56-5.39 23.32-8.89 34.73-3.6 11.73-8.23 23.13-12.46 34.66-1 2.73-3.01 4.36-5.95 4.8-4.5.68-6.58-1.61-5.21-6.07 1.01-3.3 2.41-6.49 3.53-9.76 4.91-14.4 6.16-29.52 8.76-44.37.58-3.3.91-6.66 1.58-9.94.43-2.09-.51-2.82-2.24-2.63-2.98.33-5.97.76-8.89 1.45-10.86 2.56-21.63 5.53-32.57 7.67-2.8.55-6.37-.88-9.08-2.33-4.51-2.42-8.62-5.59-12.9-8.44-2.79-1.87-3.45-4.77-4.06-8.93zm35.91-38.46c1.23 0 2.46.04 3.69-.01 7.83-.33 15.63-.71 22.97-4.01 2.26-1.02 3.45-2.32 2.87-4.82-1.02-4.45-1.81-8.98-3.22-13.31-1.53-4.72-4.69-8.34-9.87-8.98-2.67-.33-5.54.31-8.24.88-13.57 2.89-26.96 6.35-39.44 12.7-2.96 1.51-3.4 3.68-1.97 5.97 1.31 2.1 3.19 4.57 5.35 5.29 9.05 3.04 17.82 7.62 27.86 6.29zm69.65-99.87c-2-.1-3.45-.48-4.76-.19-11.23 2.4-22.39 5.15-33.66 7.33-10.83 2.1-21.17 5.29-30.94 11.32 1.98 2.59 4.04 4.93 5.71 7.54 1.68 2.63 3.99 3.9 6.93 3.97 3.22.08 6.62.46 9.64-.38 18.19-5.01 34.62-13.07 47.08-29.59zm-41.44 50.03c16.81-5.52 34.91-5.26 49.93-15.71-1.54-2.93-2.98-5.66-4.59-8.72-14.02 10.56-31.08 11.87-47.01 17.04.54 2.36 1.02 4.5 1.67 7.39z" fill="#010103"/></svg>