<svg enable-background="new 0 0 400 400" viewBox="0 0 400 400" xmlns="http://www.w3.org/2000/svg"><path d="m6.8 9.5c.6.3 1.3.7 2.1 1.1-.4.4-.7.8-.9 1.2-.7-.4-1.3-.8-1.8-1.1s-1.1-.6-1.6-.8c.2-.4.5-.8.7-1.2.4.2.8.5 1.5.8zm.9 6.9c-.3.6-.5 1.1-.7 1.7s-.4 1.1-.6 1.7c-.6-.4-1.1-.7-1.6-1 .7-1 1.2-1.8 1.5-2.4.3-.5.6-1.1.8-1.7.3-.6.5-1.2.8-1.8.3.3.8.6 1.3.8-.7 1.3-1.2 2.2-1.5 2.7zm.1-11c.4.3 1 .7 1.7 1.1-.5.2-.8.6-1.1 1.1-.5-.6-1-1-1.4-1.2s-.9-.6-1.5-.8c.2-.4.5-.7.9-1.1.5.3.9.6 1.4.9zm10.5 13.1c1 .4 2 .6 3.1.7-.4.4-.7.8-.8 1.3-.9-.2-1.9-.6-3-.9-1-.4-2-.9-2.8-1.6-.5.4-1.1.9-1.9 1.3s-1.9.9-3.3 1.2c-.1-.3-.5-.8-1.1-1.3 1 0 2.1-.3 3.2-.8 1.2-.5 1.9-1 2.3-1.7h-3.2c-.4 0-1 0-2 .1v-1.2c1 0 1.7.1 2 .1h3.3v-1h-2.3c-.2 0-.9 0-2 .1v-1.2c1.2 0 1.9.1 2 .1h2.3v-.8h-4.1c0-.7.1-1.2.1-1.6 0-.5 0-1.1-.1-1.8h4.1v-.7h-2.5c0-.6.1-1.1.1-1.6v-.6h-.5c-.4 0-1 0-1.8.1v-1.3c1.2 0 1.9.1 2.1.1h.2c0-.3 0-.8-.1-1.4h1.4c0 .6-.1 1-.1 1.4h3.4c0-.4 0-.8-.1-1.3h1.5c0 .4-.1.9-.1 1.3.7 0 1.5 0 2.5-.1v1.2c-1 0-1.8-.1-2.5-.1v.6c0 .3 0 .8.1 1.5h-2.5v.8h4.1c0 .7-.1 1.3-.1 1.8s0 1 .1 1.5h-4.1v.8h1.4c.8 0 1.8 0 2.9-.1v1.2c-1 0-1.9-.1-2.8-.1h-1.5v1h3.2c.3 0 1 0 2.1-.1v1.2c-1.1 0-1.8-.1-2.1-.1h-3.4l-.1.1c1.4 1 2.4 1.5 3.4 1.9zm-4.1-6.7v-1.3h-2.7v1.3zm2.2-4.1v-1.1h-3.4v1.1zm1.9 4.1v-1.3h-2.8v1.3z" fill="#fafbfa"/><path d="m37 6.7v2.3 5.4c1 0 1.8 0 2.2-.1v1.3c-.6 0-1.5-.1-2.5-.1h-11.9c-.7 0-1.3 0-1.8.1v-1.3c.5 0 1.1.1 2 .1v-5.2c0-1 0-1.8-.1-2.5h3.7c0-1.3 0-2.1-.1-2.5h1.5c0 .4-.1 1.3-.1 2.5h2.2c0-1.2 0-2.1-.1-2.6h1.5c0 .4-.1 1.3-.1 2.6zm-12.3 13.7c-.3-.4-.7-.8-1.1-1.1 1.1-.4 2.1-.9 2.9-1.3.8-.5 1.5-1 2.1-1.6.4.4.9.8 1.3 1.1-2.5 1.4-4.2 2.4-5.2 2.9zm3.9-10.1v-2.4h-2.2v2.4zm0 4.1v-2.9h-2.2v2.9zm3.5-4.1v-2.4h-2.2v2.4zm0 4.1v-2.9h-2.2v2.9zm.4 2.9 1-1.1c.6.3 1.4.7 2.5 1.3s2 1.1 2.7 1.5c-.4.4-.8.8-1.1 1.3-.8-.8-2.5-1.7-5.1-3zm3.1-7v-2.4h-2.1v2.4zm0 4.1v-2.9h-2.1v2.9z" fill="#fafbfa"/><g fill="#010103"><path d="m85.66 56.44c2.23.35 4.46.06 5.72 1.03 2.62 2.02 4.48 1.09 7.16.1 4.23-1.55 8.83-2.22 13.33-2.83 3.19-.44 6.49.01 9.72-.26 4.9-.4 7.99-3.19 8.48-7.15.24-1.92-.16-3.19-2.34-3.58-7.03-1.27-14.09-2.41-21.03-4.06-3.13-.75-6.53-2.02-8.82-4.13-1.73-1.59-1.88-4.88-2.95-8.04 7.3-.68 13.59-1.4 19.9-1.78 2.73-.16 5.65-.09 8.23.71 10.16 3.15 20.62 2.18 30.96 2.53 20.45.68 40.92 1.02 61.38 1.46 2.34.05 4.69-.2 7.03-.3 14.57-.6 27.31 3.87 37.54 14.33 5.37 5.49 7.2 12.02 2.87 19.24-.57.95-1.12 2.03-1.23 3.1-.59 5.53-4.69 8.02-8.82 10.51-7.64 4.6-16.04 6.64-24.84 7.38-11.14.93-22.29 1.86-33.42 2.93-1.84.18-3.73.77-5.39 1.6-12.2 6.08-24.14 12.73-36.59 18.25-8.11 3.59-16.95 5.51-25.42 8.33-5.08 1.69-10.05 3.71-15.12 5.45-1.18.41-2.67.69-3.81.34-4.59-1.41-9.09-3.11-13.63-4.66-2.26-.77-2.36-1.87-.94-3.69 4.92-6.3 11.19-9.71 19.29-9.63 3.91.04 7.84.07 11.74-.18 6-.37 8.64-3.27 7.76-8.42-2.62.3-5.28.5-7.89.93-5.8.95-11.39.9-17.16-.9-7.22-2.24-14.72-3.59-22.13-5.34.43-4.75 1.01-5.5 5.48-6.52 7.84-1.79 15.75-1.65 23.69-.81 2.77.29 5.58.53 8.36.41 7.68-.34 12.16-8.37 8.47-15.11-.33-.6-1.4-.95-2.19-1.11-6.68-1.34-13.1.31-19.52 1.84-5.35 1.28-10.68 2.33-16.22 1.12-3.04-.67-4.98-2.09-5.54-5.35-.42-2.43-1.28-4.75-2.11-7.74zm54.57-1.61c3.78 4.26 4.43 8.94 4.06 14.07-.18 2.58.49 5.29 1.16 7.83.59 2.27 2.1 3.48 4.78 2.79 1.93-.5 3.99-.51 5.99-.74 26.55-3.08 53.1-6.13 79.64-9.28 8.98-1.07 8.99-1.2 8.56-10.29-.23-4.97-2.15-8.97-7.11-10.71-4.31-1.51-8.65-3.34-13.12-3.86-10.42-1.23-20.91-1.98-31.4-2.51-15.54-.78-31.08-.9-46.57 1.04-2.73.34-4.3 2.17-3.5 4.21 1.31 3.36.02 5.31-2.49 7.45z"/><path d="m85.06 231.45c4.39 1.77 5 6.57 5.98 10.99.46 2.1 1.36 3.28 3.31 4.1 7.2 3.04 14.3 6.34 21.53 9.32 6.21 2.55 10.15 7.11 12.67 13.13.3.72.53 1.47.8 2.2 2.49 6.51 5.75 13.05-1.71 18.96 4.53 3.81 4.13 8.02 2.3 12.47-1.38 3.34-4.19 3.98-6.55 1.33-1.71-1.91-3.42-3.13-6.35-2.79-2.81.33-4.21-2.02-4.28-4.57-.13-4.68-.13-9.39.2-14.06.36-4.99-1.11-6.39-5.99-5.04-6.88 1.9-8.47 3.85-9.02 11.56-.23 3.23-.04 6.49-.19 9.73-.07 1.54-.27 3.16-.84 4.57-.96 2.38-3.07 2.99-5.5 2.97-2.27-.02-2.96-1.46-3.57-3.28-2.06-6.23-3.14-12.52-2.34-19.13.72-5.99-1.73-8.51-7.77-7.58-6.75 1.03-6.12-.13-6.66 6.98-.24 3.21.08 6.48.31 9.71.39 5.35-.79 9.96-6 13.34-1.94-4.88-4.5-9.47-5.41-14.36-.51-2.77 1.57-6.09 2.71-9.08 1.49-3.91.92-6.84-2.95-7.7-3.51-.78-7.62-.46-11.05.65-1.56.5-2.14 4.06-3.16 6.24.21.33.42.65.63.98 1.41-.41 2.83-.81 4.75-1.36 2.78 4.09 3.43 9.3 2.32 14.59-.95 4.56-2.61 8.99-4.16 13.4-.33.95-1.46 2.03-2.42 2.27-3.23.8-6.54 1.24-10.27 1.9 0-2.62 0-4.92 0-7.23 0-9.06-.22-18.13.09-27.19.15-4.39-1.28-8.09-3.18-11.77-.82-1.59-.46-2.57.42-4.15 1.64-2.94 2.84-6.24 3.57-9.53.84-3.8 1.13-7.75 1.33-11.65.09-1.86-.58-3.76-.92-5.64-.28-1.52-1.1-3.14-.81-4.53 1.65-8.06-.77-15.74-1.76-23.58-1.13-8.96-2.15-17.99-2.2-27-.03-4.99.98-10.57 3.36-14.86 4.04-7.29 9.31-13.97 14.53-20.53 2.63-3.31 6.29-4.14 10.74-2.18 5.39 2.37 11.23 3.72 16.77 5.78 1.32.49 2.74 1.85 3.27 3.16 4.06 9.94 5.76 20.2 5.33 31.05-.56 13.96-.08 27.97-.21 41.96-.05 1.67-1.02 3.37-1.65 5.45zm-28.74-74.94c-1.64 12.47-3.23 24.52-4.78 36.57-.1.75.07 1.56.22 2.32 1.13 5.7 2.4 11.38 3.42 17.1 1.45 8.13 3.55 16.27 1.66 24.59-.66 2.89-2.88 5.56-3.02 8.4-.25 5.08.47 10.22.93 15.32.22 2.45 1.79 3.52 4.27 3.82 6.55.78 13.06 1.9 19.61 2.64 6.68.76 13.31.77 19.69-3.15-4.75-3.83-9.37-7.32-13.72-11.11-8.14-7.09-13.31-15.36-13.14-26.93.29-19.57-.4-39.16-.76-58.74-.02-1.17-.45-2.88-1.27-3.4-4.15-2.59-8.5-4.86-13.11-7.43z"/><path d="m300.57 137.51c0-11.63 0-23.25 0-34.89 6.51.39 10.04 3.24 11.43 9.97.73 3.56.5 7.33.71 11 .01.22-.02.45-.02.67-.29 13.34 1 11.39 11.64 11.56 1.99-4.76-1.2-11.27 4.93-14.51-6.72-11.14-7.74-17.53 5.4-24.05 5.73 7.56 11.84 14.88 7.83 25.59-.9 2.41-.84 5.27-.83 7.91 0 1.28.91 2.55 1.41 3.82.3-.03.6-.07.9-.1.78-4.67 1.57-9.34 2.33-14.01.73-4.52 1.26-9.09 2.23-13.56.35-1.61 1.5-3.21 2.68-4.44 2.54-2.67 4.69-5.29 2.09-9.36.4-.13.81-.27 1.21-.4 1.55 1.96 3.4 3.75 4.59 5.9 2.87 5.19 2.74 10.93 2.52 16.67-.33 8.48-.44 16.97-.72 25.46-.03.88-.38 2.14-1.01 2.55-3.05 1.99-6.24 3.77-9.41 5.59-2.47 1.42-5.58 2.26-7.34 4.29-4.01 4.62-7.43 9.76-10.92 14.81-.62.89-.6 2.34-.57 3.53.39 18.57.92 37.13 1.18 55.7.06 4.66-.26 9.43-1.2 13.98-2.63 12.66-11.09 19.39-24.08 20.26-5.14.34-9.56-1.85-14.32-2.8-10.56-2.08-15.05-9.68-17.01-18.84-1.62-7.57-1.95-15.48-2.25-23.26-.88-22.18 1.8-44.39-1.1-66.59-1.69-12.91-.56-25.92 2.24-38.69.2-.91 1.52-2.09 2.47-2.25 6.3-1.05 6.52-1.08 9.6 4.69 2.36 4.41 4.12 9.14 6.14 13.73 1.12 2.55 2.05 5.2 3.36 7.64.65 1.21 1.97 2.07 2.98 3.09.29-.2.6-.43.91-.66zm-15.02 15.11c.62 2.05 1.11 3.75 1.64 5.43 2.38 7.5 5.66 14.91 2.09 22.95-.09.19-.05.44-.06.67-1 19.16.47 38.2 2.82 57.2.11.91.93 2.29 1.67 2.48 4.42 1.11 8.9 2.52 13.39 2.69 4.57.17 8.94-1.37 10.26-7.61 1.04-4.91 2.64-9.84 2.71-14.78.23-17.43-.1-34.86-.16-52.29-.01-1.75.22-3.55.7-5.23 1.19-4.15 2.59-8.25 3.87-12.28-5-3.29-9.75-4.88-15.65-3.42-7.54 1.85-15.32 2.8-23.28 4.19z"/><path d="m141.71 171.21c7.34-1.56 14.24-3.57 21.27-4.37 10.54-1.2 21.18-1.5 31.77-2.27 4.46-.33 8.94-.67 13.34-1.41 4.42-.75 8.6-.41 12.88.86 8.03 2.39 16.12 4.58 24.24 6.65 2.33.59 3.89 1.73 4.46 3.94 1.37 5.28 3.25 10.54 3.73 15.91 1.65 18.8.78 37.55-2.4 56.18-.43 2.51-1.52 4.3-3.82 5.46-4.41 2.22-7.9 5.45-10.02 9.96-1.28 2.7-3.47 4.16-6.21 4.52-9.73 1.3-19.48 3.35-29.22 3.39-16.19.07-32.38-1.22-48.58-1.88-3.39-.14-5.91-1.42-7.56-4.49-1.21-2.26-2.81-4.32-4.01-6.58-2.8-5.27-3.66-10.87-1.46-16.52 1.77-4.55 1.76-9.09 1.2-13.8-1.09-9.11-2.38-18.22-2.83-27.36-.17-3.46 1.22-7.3 2.83-10.49 2.88-5.7 3.49-11.22.39-17.7zm12.23 36.42c.33 3.9.42 7.84 1.05 11.69 1.41 8.59 3.02 17.15 4.7 25.69.77 3.9 3.25 6.25 7.32 6.69 3.21.35 6.43.98 9.64.97 6.51-.02 12.74.19 18.94 3.14 3.68 1.75 8.81 2.63 12.61 1.54 8.22-2.36 16.03-6.18 23.93-9.58.93-.4 1.9-1.82 2.01-2.86.96-8.67 1.76-17.36 2.52-26.05.1-1.18-.03-2.49-.44-3.6-2.52-6.8-3.93-13.65-2.44-20.97.63-3.07-1.52-6.74-4.18-7.28-6.35-1.27-12.82-3.17-19.17-2.94-15.19.56-30.33 2.2-45.49 3.42-.63.05-1.56.13-1.82.54-3.89 6.13-11.13 10.72-9.18 19.6z"/><path d="m274.7 318.66c.91-2.23 2.03-5.53 3.6-8.6.64-1.24 2.16-2.59 3.48-2.84 11.08-2.15 22.18-4.26 33.34-5.97 6.52-1 12.44.81 17.21 5.4 0 .38-.01.75-.01 1.13-4.27.88-8.54 1.8-12.82 2.64-3.84.76-7.76 1.16-11.51 2.22-3.96 1.12-7.28 3.31-8.49 8.37 5.31.76 10.32 1.61 15.37 2.15 6.14.66 10.79 3.3 13.79 9.77-3.7.58-7.13 1.21-10.58 1.65-4.32.55-8.71.71-12.99 1.48-4.79.87-8.41 3.43-9.76 8.89 4.2 1.02 8.27 2.05 12.37 2.96.55.12 1.4-.15 1.81-.55 3.69-3.55 7.62-1.51 11.32-.29 1.17.39 1.83 2.33 2.79 3.64-3.93 3.28-8.17 4.59-12.88 4.76-3.12.11-6.35-.01-9.29.81-2.49.69-4.64 2.59-6.93 3.95.1.46.2.92.3 1.38 4.09 1.32 8.12 2.96 12.3 3.88 5.57 1.22 10.25 3.53 13.76 8.33-.44.24-.69.48-.96.5-6.67.45-13.34 1.16-20.02 1.2-4.97.03-10.15-.09-14.88-1.43-11.81-3.35-23.67-4.48-35.83-3.04-11.16 1.32-22.21 1.12-33.32-1.2-4.03-.84-8.55.7-12.85 1.18-.55.06-1.11.21-1.62.41-8.25 3.33-15.6-.44-23.28-2.62-5.24-1.49-7.51-3.99-7.96-9.54-.63-7.75-2.34-15.42-3.62-23.36 6.76-2.35 13.43-4.29 19.78-6.97 8.23-3.47 16.58-4.34 25.46-3.94 13.61.61 27.27.76 40.74-2.41 6.97-1.64 14.14-2.54 22.18-3.94zm-91.13 28.71c.82 1.59 1.29 4.19 2.56 4.66 5.59 2.11 11.35 4.83 17.14 5.09 17.53.78 35.11.46 52.67.71 6.79.1 13.6-.06 20.11 2.78 1.68.73 4.11.01 6.13-.37 1.64-.31 2.25-1.43 1.72-3.26-1.83-6.33-3.47-12.72-5.33-19.04-.24-.82-1.31-1.94-2.04-1.98-7.47-.44-14.95-.78-22.44-.96-18.43-.43-36.36 4.07-54.59 5.71-5.68.51-11.04 2.65-15.93 6.66z"/></g></svg>