<svg enable-background="new 0 0 400 400" viewBox="0 0 400 400" xmlns="http://www.w3.org/2000/svg"><path d="m361.2 9.6.8-1c.9.7 1.9 1.4 2.9 2.3l-.9 1.1c-1-1-2-1.8-2.8-2.4zm.5 10.6c.9-2.1 1.6-4.3 2.3-6.7.4.2.8.4 1.3.6-.7 2.1-1.5 4.3-2.2 6.6zm.4-15.2.9-.9c1 .8 2 1.6 2.8 2.4l-1 1c-.9-.9-1.8-1.7-2.7-2.5zm12.5-1.2h1.2v1.4h2.7v1.1h-2.7v2.7h-1.2v-.6h-1.8v1.3h4.9v3.8h-1.2v-.5h-3.7c0 .4-.1.9-.1 1.2h5.1v1h-5.2c0 .5-.1.9-.2 1.2h6v1h-5.2c1.1 1.3 2.9 2 5.5 2.2-.4.4-.7.8-.9 1.3-2.9-.5-4.8-1.6-5.7-3.5h-.1c-.8 1.7-2.7 2.9-5.9 3.6-.2-.4-.6-.8-.9-1.1 2.8-.6 4.6-1.4 5.4-2.5h-4.8v-1h5.3c.1-.3.2-.7.2-1.2h-4.9v-1h5c0-.4 0-.8.1-1.2h-3.5v.5h-1.2v-3.8h4.9v-1.3h-1.8v.5h-1.2v-2.7h-2.7v-1h2.6v-1.4h1.2v1.4h4.7v-1.4zm-6.6 8.3h3.6c0-.4 0-.9 0-1.4h-3.6zm1.9-4.6h4.7v-1.3h-4.7zm6.6 3.2h-3.7v1.4h3.7z" fill="#fbfcfa"/><path d="m385.3 3.8h1.3v2.2h2.8v-2.2h1.3v2.2h4.1v9.1h1.7v1.3h-16.9v-1.3h1.7v-9.1h4.1v-2.2zm.4 13.1.7 1.2c-1.8.9-3.8 1.9-6 2.9-.2-.4-.5-.8-.8-1.3 2.3-1 4.3-1.9 6.1-2.8zm-3.1-6.4h2.8v-3.2h-2.8zm0 4.6h2.8v-3.3h-2.8zm4-4.6h2.8v-3.2h-2.8zm0 4.6h2.8v-3.3h-2.8zm3.7 1.9c2.1.9 4.1 1.8 6.1 2.7l-.7 1.3c-2.2-1.1-4.2-2-6.1-2.9zm3.2-9.7h-2.8v3.2h2.8zm-2.8 7.8h2.8v-3.3h-2.8z" fill="#fbfcfa"/><g fill="#010102"><path d="m124.59 229.6c15.97-4.25 20.51-16.67 20.65-29.46.14-12.2-2.05-24.45-3.45-36.65-1.06-9.19-2.81-18.31-3.63-27.51-.44-4.94 2.23-7.98 6.18-9.28 1.86-.61 3.37-.45 4.17 1.46 1.32 3.16 3.11 6.29 3.63 9.6 2.17 13.8 3.94 27.66 5.84 41.5 2.31 16.8 2.18 33.3-6.24 48.7-.84 1.55-2.26 3.05-3.79 3.9-6.93 3.86-14.04 7.4-20.98 11.26-1.09.61-2.27 2.22-2.31 3.4-.37 11.52-.57 23.05-.62 34.57 0 1.07 1.13 2.62 2.14 3.14 8.56 4.37 17.21 8.57 25.84 12.79 6.78 3.31 12.72 7.53 15.95 14.67.64 1.42 1.31 2.9 1.51 4.42.17 1.3.13 3.41-.61 3.87-1.53.95-3.82 1.78-5.4 1.32-2.94-.86-5.9-2.3-8.32-4.19-11.32-8.81-24.15-14.35-37.88-18.05-8.78-2.37-17.06-5.84-24.91-10.54-9.54-5.71-13.54-14.29-14.73-24.91-1.74-15.45-.36-30.86.18-46.28.69-19.57 1.59-39.14 2.59-58.7.42-8.27 1.34-16.51 1.98-24.76.26-3.34 2.9-4.02 5.34-4.56 2.24-.5 4.29-.23 5.4 2.56 2.18 5.49 2.58 11.16 1.79 16.84-4.49 32.23-3.89 64.74-5.31 97.13-.28 6.26.99 12.72 2.4 18.89 2 8.77 8.56 13.15 17.33 15.58 0-6.79-.06-13.25.01-19.7.47-46.67.94-93.34 1.54-140.01.04-3.16-.84-4.5-3.92-5.18-4.46-.98-8.8-2.51-13.21-3.76-9.68-2.73-15.91-10.02-16.72-20.14-.3-3.75-.13-7.59.34-11.33.97-7.77 6.21-12.21 12.71-15.69 9.35-5.01 19.18-6.95 29.74-5.94 9.5.91 18.86 2.19 27.72 6.03 7.34 3.18 10.92 8.84 11.47 16.67.54 7.62-.3 15.28-3.62 21.93-1.8 3.62-6.41 6.44-10.38 8.2-4.16 1.84-9.06 2.12-13.67 2.83-6.74 1.03-6.75.93-6.75 7.69v103.44zm-7.89-158.15c-.02.13-.04.26-.07.39-3.01.16-6.05.11-9.01.55-2.51.38-5.02 1.13-7.38 2.07-7.64 3.04-9.45 6.21-8.49 14.3.66 5.5 4.16 9.77 9.48 11.13 3.56.91 7.19 1.63 10.83 2.13 10.11 1.39 20.08 1.4 29.28-3.94.88-.51 2.05-1.4 2.15-2.23.5-3.96 1.22-8.01.85-11.93-.57-6.12-3.35-8.92-9.45-10.02-6.01-1.07-12.12-1.65-18.19-2.45z"/><path d="m201.69 147.38c8.06 0 16.12-.11 24.18.06 2.57.05 3.9-1.05 4.15-3.28.35-3.09.58-6.24.35-9.33-.41-5.49-.04-10.72 3.04-15.49 2.41-3.74 3.33-3.86 6.48-.62 3.82 3.93 4.49 8.8 4.23 14-.17 3.34-.27 6.7-.1 10.04.16 3.26 1.72 4.77 5.41 4.71 13.32-.23 26.65-.4 39.96.02 8.35.26 16.68 1.51 24.97 2.64.98.13 2.03 2.27 2.38 3.65.32 1.24.23 3.27-.55 3.98-2.98 2.72-6.65 3.94-10.78 3.76-4.22-.18-8.46-.24-12.68-.23-2.42 0-3.65 1.19-4.24 3.73-1.61 6.85-3.49 13.64-5.48 20.39-.51 1.73-1.51 3.55-2.81 4.76-5.92 5.48-12.77 8.86-21.08 9-3.67.06-7.34.65-10.99 1.17-2.67.38-3.97 1.88-3.07 4.71.03.11.07.22.07.33-.01 13.34 10.44 17.44 19.85 22.42 3.74 1.98 7.79 3.48 11.32 5.78 7.18 4.7 11.62 11.57 14.39 19.65 5.42 15.84 6.06 32.17 5.68 48.71-.47 20.66-4.12 40.94-6.73 61.34-.34 2.66-.34 5.45-1.22 7.93-.56 1.59-2.25 3.44-3.78 3.85-2 .53-4.37.05-5.5-2.59-3.03-7.12-2.65-14.52-1.58-21.82 2.48-16.85 4.5-33.71 4.12-50.78-.29-12.98-.58-25.97-4.51-38.52-.8-2.55-1.72-5.09-2.81-7.53-2.21-4.98-5.19-9.12-10.3-11.85-6.99-3.74-13.4-8.56-20.41-12.25-6.91-3.64-9.25-9.5-10.14-16.6-.4-3.2-1.15-6.36-1.88-9.5-.49-2.14-1.78-3.31-4.19-3.55-5.89-.6-11.8-1.24-17.62-2.32-14.64-2.71-21.23-9.67-23.55-24.4-.36-2.32-1.08-4.67-.93-6.97.27-4.14-2.09-4.88-5.32-4.85-4.25.04-8.52.42-12.74.08-2.11-.17-5.32-1.14-5.9-2.6-.92-2.29-.2-5.33.21-7.99.1-.62 1.71-1.17 2.72-1.45 8.73-2.45 17.67-2.55 26.64-2.37 3.58.07 7.16.01 10.74.01zm-1.14 14.82c0 3.16-.11 5.94.02 8.72.34 7.51 2.36 10.21 9.46 12.63 6.48 2.21 13 4.09 20.17 1.47-.35-7.59-.69-15.14-1.04-22.82-9.57 0-18.81 0-28.61 0zm44.11 24.24c4.61-.28 9.14-.01 13.39-.97 3.99-.91 7.73-3.03 11.47-4.84.81-.39 1.52-1.7 1.64-2.67.67-5.17 1.15-10.37 1.7-15.65-9.57 0-18.86 0-28.21 0 .01 8.02.01 15.79.01 24.13z"/><path d="m259.92 285.05c-.23 11.33-2.64 22.2-6.26 32.85-.37 1.09-1.23 2.1-2.08 2.93-12.03 11.72-26.07 14.45-42.39 11.04-14.6-3.05-20.38-13.49-24.31-25.7-5.38-16.7-3.79-33.18 4.06-48.85 1.46-2.92 4.18-5.48 6.87-7.46 16.74-12.28 45.89-5.83 55.77 5.78 4.48 5.26 6.36 11.47 7.36 18.05.56 3.76.67 7.57.98 11.36zm-62.25 5.98c-1.5 8.42.83 17.46 6.02 23.43.85.97 1.93 1.92 3.1 2.4 6.19 2.53 12.68 3.87 19.32 2.94 13.07-1.82 18.8-10.39 20.14-22.61.44-4.05-1.47-5.54-5.53-5.6-12.17-.18-24.34-.38-36.51-.55-2.19-.04-4.39-.01-6.54-.01zm47.88-12.91c-1.85-8.3-4.97-15.03-12.34-18.53-8.89-4.22-17.99-3.85-26.77.51-2.12 1.05-4.71 2.64-5.49 4.61-1.69 4.26-2.36 8.93-3.44 13.41z"/><path d="m259.79 89.24c3.15-10.84 3.19-21.24 1.57-31.71-1.74-11.25-.37-22.02 4.84-32.41 4.1.72 6.57 3.48 7.41 6.95 1.28 5.27 2.25 10.74 2.33 16.14.15 11.17-.38 22.36-.64 33.53-.07 3.07.72 5.56 4.46 6.37 3.76-5.04 4.78-11.02 5.48-17.13.43-3.77.68-7.58 1.45-11.28.69-3.3 2.79-5.75 5.91-7.31 1.92-.96 2.98-.56 3.97 1.36 4.02 7.81 4.65 16.05 3.08 24.49-.65 3.49-1.64 6.99-3.03 10.25-3.41 8.02-9.56 12.87-18.15 14.56-.98.19-1.94.45-3.07.72-1.26 7.88.02 15.62.73 23.38.18 1.98.13 4.04-.22 5.98-.83 4.63-4.72 7.35-9.32 6.52-.82-.15-1.92-1.21-2.11-2.03-1.05-4.54-2.27-9.11-2.65-13.73-.45-5.44-.1-10.95-.09-16.43 0-2.61-1-4.37-3.69-5.2-2.12-.66-4.05-1.95-6.18-2.57-8.84-2.56-12.44-9.51-14.11-17.54-1.85-8.86-1.12-17.77 1.16-26.58.91-3.51 3.79-3.05 6.05-3.52.71-.15 2.21 1.67 2.75 2.87 2.85 6.25 3.18 12.94 3.27 19.69.08 6.32 3.03 11.03 8.8 14.63z"/><path d="m175.95 51.92c3.02 5.96 3.94 12.41 4.22 19.05.14 3.21.41 6.51 1.34 9.55 1.28 4.17 4.64 6.67 9.52 8.94.59-5.96 1.59-11.41 1.54-16.86-.05-6.12-.89-12.25-1.65-18.35-1.26-10.17.27-19.8 4.91-29.14 4 .72 6.65 3.27 7.45 6.82 1.28 5.62 2.35 11.4 2.44 17.14.16 9.6-.54 19.22-.85 28.84-.07 2.01-.1 4.03-.02 6.04.07 1.82.33 4.17 2.62 3.89 1.79-.22 4.56-1.57 4.9-2.93 1.4-5.48 2.1-11.14 2.91-16.75.4-2.75.28-5.59.77-8.32.29-1.58 1.09-3.21 2.08-4.5 3.71-4.82 7.23-4.44 9.94.92 3.85 7.6 2.89 15.41 1.07 23.27-.35 1.52-.88 3.01-1.21 4.53-1.79 8.47-7.74 13.56-14.59 17.86-1.07.67-2.56.94-3.86.94-3.79.01-5.05 2.04-4.84 5.48.34 5.69.72 11.37.97 17.06.12 2.66.32 5.4-.16 7.98-.83 4.54-4.59 7.02-9.16 6.3-.85-.13-2.09-1.16-2.21-1.92-.79-4.91-1.62-9.84-1.85-14.8-.23-4.99.34-10.01.34-15.01 0-3.11-1.57-5.25-4.8-5.96-1.3-.29-2.53-.87-3.83-1.22-9.15-2.45-14.37-8.48-16.35-17.62-1.75-8.1-1.9-16.18-.08-24.28 1.33-5.75 2.19-6.45 8.44-6.95z"/></g></svg>