<svg viewBox="0 0 400 400" xmlns="http://www.w3.org/2000/svg"><rect width="400" height="400" fill="white" /><path d="m254.36 375.1c1-9.25 1.93-18.57 3.02-27.88 4.41-37.54 9.46-75.04 8.96-112.97-.19-14.23-.83-28.51-5.7-42.03-5.28-14.67-12.5-28.48-21.84-40.99-7.29-9.76-17.77-12.17-29.38-10.59-.91.12-1.89 1.06-2.51 1.87-20.49 27.01-46.48 47.24-76.83 61.96-11.52 5.59-23.84 8.16-36.77 7.27-2.47-.17-3.71-.83-4.34-3.43-1.72-7.11-1.9-7.12 4.01-11.41 12.68-9.22 23.11-20.68 33.27-32.52 14.79-17.23 29.89-34.21 45.19-50.99 5.35-5.87 5.61-12.19 2.8-18.56-2.82-6.39-6.3-12.72-10.66-18.13-6.62-8.22-13.21-16.69-22.83-21.93-3.13-1.71-6-3.89-9-5.84-7.68-5-11.28-13.6-9.53-23.16 11.4 2.75 22.7 5.94 34.18 8.16 18.74 3.63 32.72 14.47 45.45 27.85 10.09 10.6 20.35 21.11 31.23 30.88 19.9 17.88 38.23 37.07 52.91 59.52 10.46 15.99 17.91 33.42 21.03 52.21 1.68 10.13 1.22 20.76.56 31.09-1.07 16.7-5.62 32.81-10.68 48.67-3.59 11.25-5.51 22.77-7.65 34.3-.44 2.4-1.09 4.8-2 7.06-5.79 14.41-11.66 28.79-17.53 43.16-2.8 6.86-8.12 9.13-15.36 6.43z" fill="#010104"/><g fill="#fcfbfa"><path d="m385.2 377.6.6-.7c.6.4 1.3.9 1.9 1.5l-.6.7c-.8-.5-1.4-1-1.9-1.5zm.3 7.1c.6-1.4 1.1-2.9 1.5-4.5.3.1.6.3.9.4-.5 1.4-1 2.9-1.5 4.4zm.2-10.1.6-.6c.7.5 1.3 1.1 1.9 1.6l-.7.7c-.6-.6-1.2-1.2-1.8-1.7zm8.4-.8h.8v.9h1.8v.7h-1.8v1.8h-.8v-.3h-1.2v.9h3.3v2.6h-.8v-.4h-2.5c0 .3 0 .6-.1.8h3.4v.7h-3.5c0 .3-.1.6-.1.8h4v.7h-3.5c.7.9 1.9 1.3 3.6 1.5-.2.2-.4.5-.6.9-1.9-.3-3.2-1.1-3.8-2.3-.5 1.1-1.8 2-3.9 2.4-.2-.3-.4-.5-.6-.8 1.9-.4 3.1-.9 3.6-1.7h-3.2v-.7h3.5c.1-.2.1-.5.2-.8h-3.3v-.7h3.4c0-.2 0-.5 0-.8h-2.4v.3h-.8v-2.6h3.3v-.9h-1.2v.3h-.8v-1.8h-1.8v-.7h1.8v-.9h.8v.9h3.2zm-4.4 5.5h2.4c0-.3 0-.6 0-.9h-2.4zm1.2-3.1h3.2v-.8h-3.2zm4.4 2.2h-2.4v.9h2.5v-.9z"/><path d="m389.2 385.8h.9v1.5h1.9v-1.5h.9v1.5h2.7v6h1.1v.9h-11.3v-.9h1.1v-6h2.7zm.2 8.7.5.8c-1.2.6-2.5 1.3-4 1.9-.2-.3-.3-.6-.6-.8 1.6-.6 3-1.3 4.1-1.9zm-2-4.3h1.9v-2.1h-1.9zm0 3.1h1.9v-2.2h-1.9zm2.7-3.1h1.9v-2.1h-1.9zm0 3.1h1.9v-2.2h-1.9zm2.4 1.3c1.4.6 2.7 1.2 4.1 1.8l-.5.9c-1.5-.7-2.8-1.4-4.1-1.9zm2.2-6.5h-1.9v2.1h1.9zm-1.9 5.2h1.9v-2.2h-1.9z"/></g></svg>