<svg enable-background="new 0 0 400 400" viewBox="0 0 400 400" xmlns="http://www.w3.org/2000/svg"><path d="m362.1 8.8c1.1.8 2.1 1.6 3.1 2.4l-1 1.1c-1.3-1.1-2.3-2-3-2.5zm1.9 4.8c.5.2.9.4 1.4.5-.6 2.3-1.3 4.5-1.9 6.8l-1.5-.5c.8-2.1 1.4-4.3 2-6.8zm-1-9.4c1.3.9 2.4 1.8 3.4 2.5l-1 1.1c-1.4-1.2-2.4-2.1-3.2-2.6zm3.7 2.2v-1.4h10.3v1.2c-.5 3.6-1.8 6.8-4 9.4 1.5 1.6 3.4 2.8 5.7 3.8-.3.4-.7.8-1.1 1.4-2.3-1.1-4.1-2.5-5.6-4.1-1.6 1.6-3.6 3.1-5.9 4.3-.3-.5-.7-.9-1-1.3 2.4-1.1 4.4-2.5 6-4.1-1.9-2.5-3-5.6-3.3-9.3h-1.1zm8.8 0h-6.4c.3 3.3 1.3 6 3 8.2 2-2.3 3.1-5.1 3.4-8.2z" fill="#fbfafc"/><path d="m385.3 3.8h1.3v2.2h2.8v-2.2h1.3v2.2h4.1v9.1h1.7v1.3h-16.9v-1.3h1.7v-9.1h4.1v-2.2zm.4 13.1.7 1.2c-1.8.9-3.8 1.9-6 2.9-.2-.4-.5-.8-.8-1.3 2.3-1 4.3-1.9 6.1-2.8zm-3.1-6.4h2.8v-3.2h-2.8zm0 4.6h2.8v-3.3h-2.8zm4-4.6h2.8v-3.2h-2.8zm0 4.6h2.8v-3.3h-2.8zm3.7 1.9c2.1.9 4.1 1.8 6.1 2.7l-.7 1.3c-2.2-1.1-4.2-2-6.1-2.9zm3.2-9.7h-2.8v3.2h2.8zm-2.8 7.8h2.8v-3.3h-2.8z" fill="#fbfafc"/><g fill="#000001"><path d="m279.38 298.89c-13.66 5.98-26.86 11.48-39.81 17.51-15.57 7.26-31.46 13.44-48.43 16.44-6.48 1.14-13.08 1.63-19.61 2.49-7.39.97-13.93-1.42-20.08-5.11-5.18-3.1-10.19-6.47-15.32-9.66-5.56-3.45-9.88-7.82-12.12-14.21-.6-1.72-2.51-3.27-4.19-4.26-6.55-3.87-13.49-7.28-18.03-13.66-2-2.82-3.09-6.28-4.91-10.1 8.72-.76 16.47-1.45 24.23-2.12 5.91-.51 11.95-.39 17.69-1.63 5.81-1.25 11.93-2.89 16.87-6.02 15.03-9.54 31.42-15.5 48.37-20.21 17.82-4.95 35.82-8.95 54.46-8.75 9.66.11 19.2 1.18 28.41 4.27 1.87.63 3.71 1.54 5.32 2.67 6.47 4.57 12.84 9.29 20.32 14.73.29-4.05.67-7.16.67-10.26 0-1.39-.56-2.87-1.17-4.17-3.35-7.14-4.59-14.61-3.99-22.47.12-1.61-.41-3.31-.87-4.9-2.83-9.77-5.3-19.68-8.75-29.23-2.59-7.18-6.12-14.09-9.87-20.76-3.09-5.49-7.99-6.82-13.98-4.74-20.8 7.21-41.55 14.58-62.41 21.63-6.12 2.07-12.49 3.45-18.81 4.82-5.44 1.18-10.86 1.3-15.85-2.01-1.71-1.14-3.75-1.79-6.11-2.88 0 8.37-.06 16.18.09 23.98.02.83 1.13 1.85 1.97 2.41 8.38 5.6 17.78 6.78 27 3.69 11.61-3.89 22.93-8.78 34.11-13.83 9.05-4.09 17.73-9.02 26.54-13.63 2.15-1.13 4.12-2.22 6.34-.05 2.09 2.05 2.24 4.44 1.15 6.78-1.55 3.33-3.17 6.7-5.34 9.64-16.14 21.89-38.89 32.6-64.82 37.6-3.34.64-7.13.11-10.5-.74-6.28-1.57-12.44-3.65-18.56-5.78-1.78-.62-3.63-1.82-4.8-3.27-8.77-10.99-14.77-23.41-18.21-37.02-.52-2.07.05-4.42.12-6.64.07-2.43.99-5.25.08-7.23-5.37-11.56-5.74-23.73-5.26-36.09.17-4.49-.69-5.29-5.24-4.94-2.54.2-5.14.63-7.54 1.46-10.15 3.53-20.57 4.19-31.13 3.13-13.47-1.35-26.93-2.89-39.71-7.75-5.49-2.09-10.58-4.87-14.41-9.48-1.05-1.27-1.89-2.71-3.16-4.56 6.97-1.48 13.47-2.78 19.94-4.24 45.03-10.17 90.04-20.39 135.08-30.52 3.35-.75 6.84-1.22 10.27-1.3 13.55-.3 26.5-4.04 39.57-6.91 11.2-2.46 22.44-3.92 33.87-4.23 1.32-.04 2.73-.13 3.93-.61 11.39-4.52 23.37-5.9 35.43-6.83 7.79-.6 15.6-1.15 23.41-1.37 2.23-.06 4.59.92 6.73 1.8 2.7 1.12 4.7 3 4.72 6.29.02 3.17-1.18 5.33-4.08 7.03-8.33 4.85-17.62 6.12-26.82 8.03-16.73 3.47-33.41 7.24-50.05 11.14-27.2 6.38-54.38 12.89-81.52 19.52-4.42 1.08-8.72 2.83-12.88 4.7-2.69 1.2-5.04 3.17-8.16 5.2 11 9.4 8.93 21.3 7.44 33.49 7.37-1.2 14.52-1.78 21.34-3.58 13.92-3.67 27.68-7.95 41.47-12.07 11.82-3.53 23.73-7.04 36.18-6.19 13.67.94 26.48 5.1 34.84 16.69 4.36 6.05 7.23 13.36 9.86 20.44 6.93 18.66 9.89 38.25 12.92 57.82 4.11 26.59 3.22 53.35 3.21 80.09 0 1.12-.73 2.59-1.61 3.29-2.53 2.01-5.31 3.71-8.3 5.74-3.06-5.04-4.31-10.5-4.9-16.14-.72-6.88-1.16-13.8-2-20.67-.3-2.48-1.38-4.86-2.92-7.26-.77 4.87-1.33 9.79-2.38 14.61-.6 2.74-1.56 5.61-3.12 7.9-8.52 12.47-17.69 24.52-25.83 37.23-5.47 8.54-13.07 13.86-21.72 18.25-18.31 9.28-37.94 13.06-58.25 13.98-19.19.87-38.24-.67-56.08-7.92-22.97-9.34-39.9-25.2-47.34-49.68-.67-2.22-.93-4.56-1.38-6.9 2.73-1.69 4.71-1.98 7.02.69 5.41 6.27 11.62 11.88 16.67 18.41 6.4 8.27 14.83 13.22 24.3 16.56 28.82 10.18 57.76 10.95 86.71.39 1.14-.41 2.28-.96 3.23-1.69 9.21-7.12 18.49-14.15 27.52-21.49 7.6-6.19 12.22-14.12 12.93-24.78zm-144.3 7.14c5.76 3.53 11.54 4.8 18.75 3.53 17.61-3.11 35.35-5.73 52.74-9.81 20.43-4.8 40.55-10.91 60.79-16.51 7.41-2.05 14.77-4.28 22.24-6.46-.3-7.16-1.56-13.89-8.64-16.74-9.57-3.86-20.13-5.61-29.95-3.25-14.05 3.39-27.87 8.29-41.2 13.92-15.63 6.6-30.59 14.76-45.91 22.09-9.46 4.53-19.05 8.76-28.82 13.23z"/><path d="m133.66 47.29c5.91 0 11.71-.24 17.49.05 12.04.59 23.46-2.68 35.01-5.2 23.79-5.2 47.48-10.9 71.39-15.46 7.24-1.38 15.07.15 22.61.7 2.48.18 4.59 1.77 5.15 4.6.59 2.97-.5 5.01-3.02 6.77-9.56 6.69-20.2 11.12-31.29 14.22-16.76 4.69-33.72 8.68-50.59 12.99-1.18.3-2.34.74-3.44 1.26-6.36 3-12.76 5.95-19.03 9.14-2.22 1.13-4.08 1.12-6.32.17-5.03-2.14-10.37-3.66-15.21-6.15-6.62-3.41-13-7.34-19.28-11.36-3.03-1.95-3.98-5.76-3.47-11.73z"/></g></svg>