<svg enable-background="new 0 0 400 400" viewBox="0 0 400 400" xmlns="http://www.w3.org/2000/svg"><g fill="#fafafb"><path d="m12.4 4.8-6.1 9h6v1.2h-8v-.5l6.1-8.9h-5.7v-1.2h7.6v.4z"/><path d="m14 15v-10.6h3c1.6 0 2.9.5 4 1.4s1.6 2.2 1.6 3.8-.5 3-1.6 3.9-2.4 1.5-4 1.5zm1.4-9.4v8.2h1.6c1.3 0 2.4-.4 3.1-1.1s1.1-1.8 1.1-3.1-.4-2.3-1.2-3-1.8-1-3.1-1z"/><path d="m26.1 4.4v10.6h-1.4v-10.6z"/><path d="m36.1 14.6c-.8.4-1.8.6-2.9.6-1.5 0-2.7-.5-3.6-1.4s-1.4-2.2-1.4-3.8c0-1.7.5-3.1 1.5-4.1s2.3-1.6 3.9-1.6c1 0 1.8.1 2.5.4v1.4c-.8-.4-1.6-.6-2.5-.6-1.2 0-2.1.4-2.9 1.2s-1.1 1.8-1.1 3.2c0 1.3.3 2.3 1 3s1.6 1.1 2.7 1.1c1 0 2-.2 2.7-.7v1.3z"/><path d="m37.6 14.3c0-.2.1-.5.3-.6s.4-.3.6-.3c.3 0 .5.1.6.3s.3.4.3.6-.1.4-.3.6-.4.3-.6.3c-.3 0-.5-.1-.6-.3s-.3-.4-.3-.6z"/><path d="m50.2 15h-1.6l-5.3-8.2c-.2-.2-.3-.5-.4-.7 0 .2.1.7.1 1.5v7.4h-1.4v-10.6h1.7l5.2 8.1c.2.4.4.6.4.7 0-.3-.1-.8-.1-1.5v-7.3h1.4z"/><path d="m58.6 15h-5.7v-10.6h5.5v1.2h-4.1v3.4h3.8v1.2h-3.8v3.6h4.3z"/><path d="m67.1 5.6h-3.1v9.4h-1.4v-9.4h-3v-1.2h7.5z"/></g><path d="m300.05 91.72c-8.39 5.28-17.43 8.3-27.23 8.54-8.94.22-17.9-.24-26.84 0-9.82.27-19.62.95-29.42 1.56-3.46.21-6.93.56-10.32 1.22-1.24.24-2.88 1.34-3.29 2.44-2.46 6.71-4.85 13.46-6.75 20.34-.59 2.14-.48 5.53.83 6.93 3.26 3.49 2.19 6.39.23 9.64-.17.28-.22.63-.42 1.24 4.62 2.24 6.02 6.46 6.52 11.22.74 6.95 3 13.38 7.71 18.59 5.99 6.6 12.06 13.18 18.6 19.22 3.96 3.66 9.18 5.49 15 6.02.52-1.34 1.04-2.77 1.62-4.18 3.3-8 9.51-13.07 16.95-16.94 3.27-1.7 6.85-3.04 9.63-5.34 2.45-2.03 5.01-4.93 5.71-7.88 1.46-6.18.23-11.45-7.45-13.09-6.74-1.44-12.85-.02-18.8 2.95-2.4 1.2-4.73 2.59-7.24 3.46-3.53 1.22-5.85-.1-6.24-3.79-.35-3.29-.03-6.67.3-9.98.08-.81 1.23-1.83 2.12-2.19 8.51-3.39 16.96-6.97 25.66-9.81 3.32-1.08 7.55-1.37 10.79-.28 6.94 2.33 13.53 5.73 20.19 8.84.85.4 1.51 1.59 1.87 2.56 1.16 3.14 2.3 6.31 3.14 9.55 2.74 10.55 7.83 19.93 14.07 28.75 4.06 5.74 6.16 12.06 6.05 19.31-5.58.49-10.65.88-15.18-3.72-5-5.09-10.85-9.34-16.24-14.06-1.39-1.22-2.53-1.53-4.13-.54-3.6 2.21-7.21 4.39-10.9 6.44-1.53.85-3.25 1.78-4.93 1.88-4.45.27-7.69 2.29-10.59 5.53-2.51 2.8-5.52 5.16-7.63 7.09 8.42 10.41 16.47 19.97 24.06 29.88 5.52 7.22 8.66 15.48 6.97 24.78-.59 3.25-1.53 6.69-3.29 9.41-4.08 6.28-5.28 13.19-5.81 20.39-.06.78-.1 1.56-.13 2.35-.76 20.56-.3 20.31 9.46 38.43 6.13 11.39 15.26 19.36 25.18 26.89 5.92 4.49 10.12 10.07 10.88 18.16-2.68.21-5.3.45-7.93.61-1.56.1-3.2-.18-4.69.17-7.88 1.89-13.5-1.24-18.48-7.21-6.36-7.63-13.31-14.76-19.86-22.23-1.18-1.35-2.18-3.28-2.36-5.03-.7-6.9-4.63-11.89-8.99-16.8-2.66-2.99-5.15-6.19-7.3-9.56-3.95-6.21-2.83-12.92-1.06-19.48 1.54-5.71 3.52-11.3 5.22-16.97 1.55-5.2 2.69-10.44.45-15.75-1.59-3.76-2.5-4.2-6.29-3.09-5.9 1.73-11.78 3.51-17.7 5.14-1.8.49-3.73.71-5.6.75-5.26.1-10.54-.28-15.78.1-10.18.74-19.47-2.17-28.42-6.46-7.96-3.81-16.05-6.77-25.07-6.28-3.49.19-6.13 2.52-5.95 6.09.11 2.29.64 4.68 1.56 6.78 7.04 16.02 12.24 32.6 16.12 49.65 1.19 5.22-2.16 8.65-3.93 12.73-.19.43-1.33.57-2.05.63-6.23.57-10.55-1.6-12.5-8.02-2.21-7.25-4.69-14.44-7.37-21.53-3.55-9.38-7.31-18.68-11.18-27.93-1.33-3.18-3.06-6.25-4.99-9.11-7.59-11.27-11.73-23.75-13.18-37.16-.33-3.09-1.6-5.54-3.75-7.6-2.27-2.18-3.31-4.81-3.87-7.92-2.57-14.42-4.86-28.91-8.21-43.15-2.29-9.75-6.14-19.13-9.33-28.67-2.8-8.37-5.71-16.71-8.45-25.1-1.12-3.44-2.8-6.28-6.11-8.04-.85-.45-1.62-1.23-2.17-2.03-2.2-3.19-1.71-4.64 1.72-6.34 10.84-5.39 22.55-6.39 34.31-6.38 14.69.01 29.28-.58 43.73-3.38 1.62-.31 3.35-.15 5.02-.06 11.83.7 23.66 1.81 35.5 2.02 7.11.13 14.26-1.02 21.37-1.77 17.58-1.85 35.13-3.93 52.72-5.65 9.41-.92 18.48 1.18 27.21 4.58 3.41 1.32 6.17 3.54 6.93 7.64zm-189.59 19.56c.1 1.25.09 2.15.24 3.01 2.8 15.27 5.6 30.54 8.43 45.8.98 5.28 7.86 12.27 13 13.44 6.73 1.53 13.2.35 18.55-3.55 8.27-6.04 15.98-12.85 23.83-19.45.71-.6 1.12-2.24.86-3.18-3.77-13.78-7.67-27.53-11.6-41.26-.2-.7-.94-1.7-1.52-1.77-3.54-.39-7.23-1.24-10.65-.67-13.64 2.27-27.2 5-41.14 7.63zm91.02 86.14c-1.36-10.98-5.81-20.26-15.44-26.43-.96-.62-2.87-.7-3.88-.17-16.12 8.47-32.17 17.07-48.2 25.72-.83.45-1.67 1.52-1.86 2.44-1.37 6.73 2.87 17.21 8.67 20.66 7.65 4.55 15.99 6.57 24.79 4.34 12.64-3.2 23.21-10.15 32.74-18.89 2.34-2.17 3.56-4.45 3.18-7.67zm-3.57 36.17c6.08 1.46 11.99 3.1 17.99 4.27 10.71 2.09 21.1 1.34 30.88-4.15 2.34-1.31 2.8-2.77 1.96-5.12-1.75-4.88-5.36-7.95-9.91-9.89-5.54-2.36-11.19-4.49-16.88-6.45-1.18-.4-3.09-.03-4.12.73-5.32 3.89-10.35 8.18-15.72 12-2.86 2.04-4.05 4.55-4.2 8.61z" fill="#010105"/><path d="m96.65 42.18c4.99-4.25 10.57-5.82 16.58-6.47 24.61-2.66 49.34-2.08 74.02-2.71 1.65-.04 3.37-.24 4.93-.75 12.97-4.25 26.56-4.7 39.9-6.75 7.46-1.15 13.51 1.7 19.86 4.33.91.38 1.73 1.04 2.48 1.69 5.14 4.49 4.85 7.52-.91 11.05-5.86 3.6-12.33 5.17-19.07 5.78-30.83 2.78-61.68 5.43-92.49 8.4-3.98.38-7.76 2.56-11.7 3.65-1.72.48-3.72.74-5.42.36-5.34-1.2-10.61-2.7-15.87-4.2-1.11-.32-2.4-.87-3.06-1.73-3.13-4.05-6.08-8.26-9.25-12.65z" fill="#010105"/></svg>