<svg enable-background="new 0 0 400 400" viewBox="0 0 400 400" xmlns="http://www.w3.org/2000/svg"><g fill="#fafafb"><path d="m12.4 4.8-6.1 9h6v1.2h-8v-.5l6.1-8.9h-5.7v-1.2h7.6v.4z"/><path d="m14 15v-10.6h3c1.6 0 2.9.5 4 1.4s1.6 2.2 1.6 3.8-.5 3-1.6 3.9-2.4 1.5-4 1.5zm1.4-9.4v8.2h1.6c1.3 0 2.4-.4 3.1-1.1s1.1-1.8 1.1-3.1-.4-2.3-1.2-3-1.8-1-3.1-1z"/><path d="m26.1 4.4v10.6h-1.4v-10.6z"/><path d="m36.1 14.6c-.8.4-1.8.6-2.9.6-1.5 0-2.7-.5-3.6-1.4s-1.4-2.2-1.4-3.8c0-1.7.5-3.1 1.5-4.1s2.3-1.6 3.9-1.6c1 0 1.8.1 2.5.4v1.4c-.8-.4-1.6-.6-2.5-.6-1.2 0-2.1.4-2.9 1.2s-1.1 1.8-1.1 3.2c0 1.3.3 2.3 1 3s1.6 1.1 2.7 1.1c1 0 2-.2 2.7-.7v1.3z"/><path d="m37.6 14.3c0-.2.1-.5.3-.6s.4-.3.6-.3c.3 0 .5.1.6.3s.3.4.3.6-.1.4-.3.6-.4.3-.6.3c-.3 0-.5-.1-.6-.3s-.3-.4-.3-.6z"/><path d="m50.2 15h-1.6l-5.3-8.2c-.2-.2-.3-.5-.4-.7 0 .2.1.7.1 1.5v7.4h-1.4v-10.6h1.7l5.2 8.1c.2.4.4.6.4.7 0-.3-.1-.8-.1-1.5v-7.3h1.4z"/><path d="m58.6 15h-5.7v-10.6h5.5v1.2h-4.1v3.4h3.8v1.2h-3.8v3.6h4.3z"/><path d="m67.1 5.6h-3.1v9.4h-1.4v-9.4h-3v-1.2h7.5z"/></g><path d="m256.75 260.18c-13.65-1.4-26.98-2.62-40.27-4.18-17.88-2.1-35.76-4.24-53.57-6.85-5.11-.75-9.89-3.5-14.96-4.77-5.37-1.35-10.88-2.51-16.38-2.86-5.25-.33-6.34.77-6.17 5.87.38 11.47-2.71 22.12-6.85 32.56-2.58 6.5-5.5 12.86-8.37 19.24-1.2 2.67-3.55 2.95-6.23 2.78-2.77-.18-3.97-1.9-3.87-4.12.27-6.43.4-12.94 1.55-19.24 1.26-6.9 3.36-13.67 5.54-20.36 3.85-11.82 3.57-24.02 3.94-36.18.28-9.28.8-18.58.58-27.85-.19-7.9-1.52-15.77-1.9-23.68-.62-12.95-.93-25.92-1.2-38.89-.04-2.06.7-4.19 1.39-6.19 1.21-3.51 1.34-7.01.26-10.5-.64-2.07.17-2.98 1.89-3.89 12.66-6.7 26.14-10.25 40.42-11.03 26.34-1.44 52.56-5.06 79-4.49 5.91.13 11.84.6 17.7 1.36 4.27.56 7.96 2.62 9.27 7.14.3 1.03-.24 2.87-1.06 3.57-5.02 4.29-11.03 5.48-17.51 5.29-12.28-.35-24.56-.57-36.84-.71-7.51-.08-9.82 1.28-10.47 8.66-.62 7.15-.42 14.6.91 21.63 2.04 10.78.86 21.38.27 32.06-.02.44.02 1.03-.23 1.29-3.48 3.61-.57 6.55.75 9.87 3.52 8.81 10.83 11.99 19.28 12.36 12.24.53 24.53.14 37.27.14-1.26-5.26-2.2-9.62-3.41-13.9-.23-.8-1.45-1.44-2.35-1.92-4.02-2.15-8.25-3.94-12.07-6.39-3.31-2.12-4.56-5.62-4.15-10.03 4.71.56 9.32 1.49 13.94 1.58 8.29.15 14.74 3.77 21 8.87 10.64 8.67 14.42 20.91 9.86 33.94-.9 2.57-1.34 5.4-1.44 8.14-.88 23.46 1.3 46.76 5.2 69.82 1.42 8.44 5.49 16.46 8.64 24.56 2.14 5.49 4.79 10.78 7.18 16.17.22.5.26 1.09.36 1.64 1.07 5.98-1.69 9.8-7.7 10.46-.74.08-1.59-.58-2.34-.98-6.99-3.74-10.98-9.97-13.91-17.02-6.33-15.19-9.9-31.04-11.4-47.4-.43-5.09-1-10.19-1.55-15.57zm-130.1-60.56c0 5.26-.03 10.51.01 15.77.03 4.06 3.32 8.61 7.21 9.7 7.31 2.05 14.6 4.22 22.01 5.82 4.31.93 8.83.93 13.27 1.19 2.26.14 3.56-1.12 4.44-3.28 3.22-7.85 6.73-15.58 9.87-23.46.67-1.67.62-3.87.23-5.69-1.44-6.63-3.58-13.12-4.64-19.8-.98-6.12-2.47-8.11-8.75-7.86-7.37.3-14.73 1.34-22.08 1.18-7.59-.16-14 2.1-19.64 6.88-.94.8-1.8 2.26-1.84 3.44-.2 5.37-.09 10.74-.09 16.11zm51.29-68.37c-.14 0-.29 0-.43 0 0-3.46.07-6.93-.02-10.39-.11-4.28-4.41-8.06-8.78-7.71-7.35.59-14.69 1.18-22.02 1.93-5.83.6-11.42 2.08-16.32 5.48-.85.59-1.84 1.49-2.06 2.41-1.51 6.27-3 12.56-4.18 18.91-1.71 9.21 2.07 13.83 11.33 13.35 13.79-.72 27.11-4 40.14-8.5 1.96-.68 2.45-1.83 2.39-3.75-.13-3.91-.05-7.82-.05-11.73zm78.35 99.53c.08-.01.16-.01.24-.02-.29-3.22-.36-6.49-.91-9.66-1.12-6.44-4.49-8.63-10.94-7.72-3.52.5-7.12 1.06-10.64.85-9.15-.56-18.27-1.55-27.41-2.29-1.16-.09-2.49-.02-3.52.45-8.04 3.69-10.55 11.39-13.07 18.85-1.09 3.23.28 4.55 3.66 5.27 12.72 2.69 25.56 4.25 38.56 4.71 4.9.17 9.77 1.21 14.67 1.46 6.16.31 9.36-2.9 9.37-8.86-.01-1.03-.01-2.04-.01-3.04z" fill="#010105"/><path d="m190.71 331.39c-13.33-5.08-26.18-9.9-38.96-14.92-4.35-1.71-8.53-3.88-12.76-5.9-.9-.43-2.12-.91-2.43-1.68-.63-1.57-.99-3.37-.88-5.03.03-.45 2.12-1.02 3.3-1.11 19.47-1.6 37.52 4.08 55.36 10.85.59.22 1.19.41 1.85.64-.13-5.7-2.25-9.88-7.39-12.53-6.65-3.43-13.26-6.97-19.61-10.92-4.51-2.8-8.75-6.14-12.73-9.67-1.79-1.59-2.63-4.24-3.91-6.4.2-.28.39-.55.59-.83 4.47.8 9.02 1.29 13.39 2.45 11.8 3.12 23.15 7.4 34.06 12.99 8.91 4.56 13.85 10.96 12.44 21.32-.1.77.14 1.61-.05 2.34-2.16 8.5 1.55 13.52 9.01 17.39 12.9 6.7 19.95 18.51 25.25 31.47 1.04 2.54 1.43 5.39 1.8 8.14.51 3.78-2.25 6.25-6.06 5.3-3.81-.96-7.02-2.73-9.61-6.12-6.5-8.52-13.26-16.88-20.36-24.9-4.42-4.99-5.25-4.77-11.28-1.94-5.56 2.61-10.98 5.53-16.66 7.84-3.88 1.58-7.9 2.55-11.58 4.88-6.65 4.2-17.88 1.14-22.82-2.73-1.15-.9-.94-3.87-.84-5.86.03-.61 1.73-1.42 2.77-1.64 7.12-1.46 14.28-2.67 21.38-4.19 6.28-1.35 12.32-3.31 16.73-9.24z" fill="#010105"/><path d="m183.46 43.35c-9.59-1.22-19.73 1.28-29.71 4.21-8.6 2.53-16.56.84-24.53-2.19-3.17-1.21-1.55-4.29-2.3-6.44-.2-.57 1.02-2.01 1.9-2.5 9.81-5.55 20.5-8.23 31.62-9.23 9.8-.88 19.62-1.83 29.45-2 5.5-.1 11.04 1.2 16.52 2.11 1.47.24 2.95 1.13 4.15 2.07 3.29 2.57 3.15 6.81-.13 9.33-4.8 3.68-10.21 5.46-16.27 5.19-3.23-.15-6.47-.33-10.7-.55z" fill="#010105"/></svg>