<svg enable-background="new 0 0 400 400" viewBox="0 0 400 400" xmlns="http://www.w3.org/2000/svg"><path d="m362.1 8.8c1.1.8 2.1 1.6 3.1 2.4l-1 1.1c-1.3-1.1-2.3-2-3-2.5zm1.9 4.8c.5.2.9.4 1.4.5-.6 2.3-1.3 4.5-1.9 6.8l-1.5-.5c.8-2.1 1.4-4.3 2-6.8zm-1-9.4c1.3.9 2.4 1.8 3.4 2.5l-1 1.1c-1.4-1.2-2.4-2.1-3.2-2.6zm3.7 2.2v-1.4h10.3v1.2c-.5 3.6-1.8 6.8-4 9.4 1.5 1.6 3.4 2.8 5.7 3.8-.3.4-.7.8-1.1 1.4-2.3-1.1-4.1-2.5-5.6-4.1-1.6 1.6-3.6 3.1-5.9 4.3-.3-.5-.7-.9-1-1.3 2.4-1.1 4.4-2.5 6-4.1-1.9-2.5-3-5.6-3.3-9.3h-1.1zm8.8 0h-6.4c.3 3.3 1.3 6 3 8.2 2-2.3 3.1-5.1 3.4-8.2z" fill="#fbfafc"/><path d="m385.3 3.8h1.3v2.2h2.8v-2.2h1.3v2.2h4.1v9.1h1.7v1.3h-16.9v-1.3h1.7v-9.1h4.1v-2.2zm.4 13.1.7 1.2c-1.8.9-3.8 1.9-6 2.9-.2-.4-.5-.8-.8-1.3 2.3-1 4.3-1.9 6.1-2.8zm-3.1-6.4h2.8v-3.2h-2.8zm0 4.6h2.8v-3.3h-2.8zm4-4.6h2.8v-3.2h-2.8zm0 4.6h2.8v-3.3h-2.8zm3.7 1.9c2.1.9 4.1 1.8 6.1 2.7l-.7 1.3c-2.2-1.1-4.2-2-6.1-2.9zm3.2-9.7h-2.8v3.2h2.8zm-2.8 7.8h2.8v-3.3h-2.8z" fill="#fbfafc"/><g fill="#000001"><path d="m80.98 291.05c30.47-2.93 56.41-15.03 79.1-34.79-.41-.63-.51-.96-.74-1.13-19.55-14.79-28.83-35.55-33.08-58.78-1.61-8.79-1.06-18.02-1.09-27.06-.02-6.74-1.58-12.67-6.94-17.04-1.12-.91-3.04-1.48-4.45-1.26-8.4 1.28-16.77 2.75-25.1 4.4-1.32.26-3.09 1.57-3.47 2.76-3.52 11.07-6.8 22.22-10.07 33.37-.4 1.36-.66 2.94-.35 4.28 1.07 4.66.17 9-1.24 13.43-3.3 10.44-6.13 21.04-9.64 31.4-2.03 6-.13 11.74-.22 17.6-.03 1.84-.18 3.78-.78 5.5-1.89 5.38-4.26 10.59-6 16-3.96 12.32-7.57 24.76-11.53 37.08-1.12 3.47-2.66 6.91-4.59 9.99-2.62 4.18-6.69 6.06-11.97 5.55-1.96-8.41-1.84-16.87-1.16-25.34 1.3-16.25 5.8-31.86 9.65-47.6 5.68-23.18 7.93-46.69 7.51-70.52-.17-9.43 1.16-18.7 4.57-27.64 3.06-8.02.77-15.66-2.52-23.05-2.5-5.61-5.26-11.11-7.77-16.72-.95-2.12-1.57-4.4-2.57-7.27 1.66.41 2.79.64 3.89.96 10.39 3.08 20.74 6.3 31.19 9.18 2.54.7 5.56.93 8.08.28 28.65-7.46 57.23-15.19 85.88-22.69 4.52-1.18 9.21-1.82 13.86-2.34 5.81-.65 11.55-1.44 16.82-4.15 10.78-5.54 22.67-6.64 34.33-8.52 27.4-4.41 54.94-7.73 82.69-8.77 5.31-.2 10.74 1.63 16.06 2.8 5.56 1.22 11.06 2.76 16.58 4.19 12.36 3.2 18.1 10.49 18.46 23.58-4.8 2.37-9.99 2.99-15.2 1.96-8.23-1.62-16.28-1.28-24.58-.07-5.34.78-11.02-.93-16.57-1.31-9.91-.68-19.84-1.72-29.75-1.63-10.33.09-19.86 3.92-29.4 8.91 2.62 2.38 5.19 4.44 7.42 6.82 1.47 1.56 2.83 3.44 3.59 5.42 2.27 5.94 4.14 12.05 6.39 18 .39 1.02 1.85 2.25 2.9 2.32 21.2 1.47 42.41 2.75 63.61 4.13 8.3.54 16.47 1.64 23.58 6.59 7.1 4.95 10.47 12 11.66 20.29.1.71-.54 1.88-1.18 2.27-2.95 1.81-5.99 3.5-9.08 5.05-.74.37-1.93.34-2.73.03-2.19-.83-4.35-1.79-6.4-2.92-7.76-4.28-15.95-6.71-24.9-6.91-13.19-.29-26.41-1.26-39.42 1.85-5.59 1.33-11.32 2.76-13.51 9.07-.9 2.59-1.68 5.43-1.59 8.13.35 9.72-1.88 18.56-7.47 26.61-2.4 3.46-4.27 7.28-6.65 11.39 6.47 1.55 12.49 3.01 18.53 4.43 9.9 2.33 20.02 4 29.63 7.2 4.79 1.6 9.2 5.44 12.85 9.17 9.3 9.53 15.19 21.23 19.17 33.84.68 2.16-.02 4.84-.41 7.23-1.15 7.06-2.38 14.11-3.77 21.13-.4 2.02-1.19 4.06-2.22 5.84-2.67 4.65-6.04 8.96-8.29 13.79-4.61 9.9-12.87 15.65-21.79 21-22.91 13.73-47.88 18.53-74.26 18-19.01-.38-37.09-5.09-55.18-10.31-8.31-2.4-15.74-5.88-22.64-11.06-9.75-7.31-19.9-14.09-29.82-21.18-1.32-.95-2.52-2.21-3.44-3.56-2.96-4.34-6.08-8.62-8.57-13.23-3.55-6.59-9.01-10.69-15.66-13.48-5.57-2.29-7.82-6.59-8.24-12.49zm48.67 24.69c3.87 4.21 6.58 8.67 10.53 11.13 8.61 5.37 17.86 9.7 26.82 14.5 25.3 13.53 51.55 14.48 78.18 5.05 19.97-7.07 36.58-19.6 51.28-34.64 2.63-2.69 4.29-6.41 6.09-9.82 1.18-2.23.19-4.28-1.52-6.05-1.79-1.86-3.26-.45-4.79.28-26.53 12.65-54.18 22.22-82.83 28.62-23.08 5.15-45.17 2.89-64.77-11.94-.7-.53-1.86-.89-2.69-.72-5.03 1-10.02 2.18-16.3 3.59zm9.61-171c6.57 7.65 13.18 14.92 19.23 22.62 2.41 3.07 4.85 4.15 8.48 3.68 11.74-1.52 23.54-2.66 35.23-4.5 10.72-1.69 21.27-4.31 30.98-9.41 1.19-.63 2.54-2.09 2.72-3.32 1.15-8.21-.24-16.07-4.4-23.28-4.56-7.89-14.06-11.21-22.8-8.69-11.37 3.28-22.79 6.41-34.28 9.19-12.57 3.04-24.56 7.32-35.16 13.71zm158.53 133.95c-2.68-8.57-7.73-14.75-16.46-17.18-10.3-2.87-20.74-4.38-31.45-2.19-4.38.89-8.81 1.58-13.24 2.1-22.19 2.61-42.99 9.23-61.96 21.21-5.73 3.62-11.47 7.2-17.92 11.25 1.71 1.12 2.67 2.22 3.75 2.37 5.97.83 11.96 1.62 17.98 2.07 14.43 1.06 28.5-1.7 42.59-4.28 11.76-2.16 23.54-4.16 35.32-6.2 4.7-.81 9.63-.92 14.08-2.44 8.73-2.97 17-7.54 26.7-6.36.08.01.18-.1.61-.35zm-140.34-69.65c2.11 6.17 4.01 12 6.14 17.76.41 1.11 1.49 2.21 2.55 2.8 9.14 5.1 18.76 6.4 28.75 2.91 11.04-3.85 21.27-9.29 30.73-16.18.53-.39 1.16-.84 1.39-1.4 2.32-5.53 5.05-10.96 6.69-16.7 1.45-5.09-3.89-10.5-9.08-9.71-10.26 1.57-20.57 2.98-30.69 5.23-12.91 2.87-25.03 8.01-36.48 15.29z"/><path d="m70.39 43.86c10.13 1.66 19.48 3.25 28.86 4.69 1.7.26 3.57.23 5.24-.17 21.29-5.14 42.49-10.66 63.86-15.45 9.56-2.15 19.41-3.13 29.18-4.22 11.21-1.25 22.47-2.86 33.7-2.83 15.2.04 30.44 1.5 44.92 6.65 9.94 3.54 15.77 10.94 17.67 21.42.4 2.23-.19 3.52-2.07 4.67-3.9 2.39-8.13 2.69-12.31 1.65-7.66-1.89-15.34-3.57-22.38-7.67-8.04-4.68-16.96-3.65-25.85-2.48-29.71 3.9-57.51 14.68-85.84 23.55-5.65 1.77-11.17 4-16.9 5.45-11.33 2.86-21.69.05-31.21-6.35-10.99-7.39-19.06-17.46-26.87-28.91z"/></g></svg>