<svg enable-background="new 0 0 400 400" viewBox="0 0 400 400" xmlns="http://www.w3.org/2000/svg"><g fill="#fafafb"><path d="m12.4 4.8-6.1 9h6v1.2h-8v-.5l6.1-8.9h-5.7v-1.2h7.6v.4z"/><path d="m14 15v-10.6h3c1.6 0 2.9.5 4 1.4s1.6 2.2 1.6 3.8-.5 3-1.6 3.9-2.4 1.5-4 1.5zm1.4-9.4v8.2h1.6c1.3 0 2.4-.4 3.1-1.1s1.1-1.8 1.1-3.1-.4-2.3-1.2-3-1.8-1-3.1-1z"/><path d="m26.1 4.4v10.6h-1.4v-10.6z"/><path d="m36.1 14.6c-.8.4-1.8.6-2.9.6-1.5 0-2.7-.5-3.6-1.4s-1.4-2.2-1.4-3.8c0-1.7.5-3.1 1.5-4.1s2.3-1.6 3.9-1.6c1 0 1.8.1 2.5.4v1.4c-.8-.4-1.6-.6-2.5-.6-1.2 0-2.1.4-2.9 1.2s-1.1 1.8-1.1 3.2c0 1.3.3 2.3 1 3s1.6 1.1 2.7 1.1c1 0 2-.2 2.7-.7v1.3z"/><path d="m37.6 14.3c0-.2.1-.5.3-.6s.4-.3.6-.3c.3 0 .5.1.6.3s.3.4.3.6-.1.4-.3.6-.4.3-.6.3c-.3 0-.5-.1-.6-.3s-.3-.4-.3-.6z"/><path d="m50.2 15h-1.6l-5.3-8.2c-.2-.2-.3-.5-.4-.7 0 .2.1.7.1 1.5v7.4h-1.4v-10.6h1.7l5.2 8.1c.2.4.4.6.4.7 0-.3-.1-.8-.1-1.5v-7.3h1.4z"/><path d="m58.6 15h-5.7v-10.6h5.5v1.2h-4.1v3.4h3.8v1.2h-3.8v3.6h4.3z"/><path d="m67.1 5.6h-3.1v9.4h-1.4v-9.4h-3v-1.2h7.5z"/></g><path d="m38.9 372.15c-.19-7.41-.36-14.57 2.96-21.83 6.88-15.02 13.35-30.29 18.97-45.82 7.49-20.73 11.44-42.29 12.12-64.38.55-17.78.74-35.58 1.44-53.36.67-17.02 2.13-33.92 8.48-50.04 8.79-22.32 25.17-34.91 48.75-37.69 12.34-1.46 24.48-3.78 36.69-5.89 10.87-1.88 22.02-2.12 33.06-2.97 19.86-1.53 39.71-3.16 59.58-4.33 6.2-.37 12.49.45 18.71.98 15.26 1.31 30.51 2.76 46 4.18-.05 3.78-.55 6.75-4.43 8.78-13.26 6.89-27.49 9.74-42.16 11.27-25.01 2.61-50.09 1.72-75.14 1.48-7.69-.07-12.25 3.76-16.21 9.35-3.4 4.8-6.2 10.18-10.27 14.32-7.89 8.03-8.46 16.92-5.3 26.93 2.4 7.61 5.3 14.79 10.06 21.4 4.16 5.77 9.46 8.29 16.02 9.05 13.9 1.6 27.7-.04 41.49-1.51.98-.1 2.1-.83 2.77-1.61 3.15-3.69 7.01-6.22 11.62-7.63 3.23-.99 5.84-2.77 6.13-6.32.33-4.08.74-8.37-3.47-11.17-3.44-2.29-6.73-4.83-10.24-6.99-4.41-2.72-7.35-6.44-8.81-11.56 5.08-2.57 10.46-1.88 15.77-1.43 7.06.59 13.48 2.45 18.57 8.02 3.45 3.78 7.45 7.14 11.56 10.23 9.74 7.32 12.61 17.32 11.53 28.77-.98 10.41-1.29 20.74.2 31.14 1.64 11.4.44 22.71-1.08 34.09-.85 6.41-.06 13.12.63 19.62 1.96 18.58 4.31 37.13 6.34 55.71.65 5.95 4.64 9.52 8.62 13.05 5.02 4.44 11.11 7.03 17.52 8.87 7.64 2.2 15.42 4.17 21.61 9.5 2.65 2.28 4.75 5.19 7.29 8.04-6.93 4.02-13.71 4.41-20.47 2.95-10.15-2.2-20.2-4.92-30.27-7.48-.93-.24-1.89-.75-2.59-1.4-5.99-5.56-12.03-11.07-17.84-16.82-5.88-5.82-9-13.08-9.46-21.28-.98-17.21-1.79-34.44-2.45-51.66-.11-2.94-1.19-4.93-3.73-5.62-4.38-1.18-8.92-2.69-13.36-2.62-27.15.43-54.05-3.16-81.08-4.59-14.15-.75-27.89-3.7-41.75-6.19-5.23-.94-10.69-.67-16.04-.75-7.49-.11-14.98-.03-22.74-.03-1.83 8.69-3.82 17.17-5.37 25.73-4.16 22.92-11.08 44.92-21.5 65.75-5.63 11.24-14.38 19.27-26.38 23.51-.52.18-1.06.34-1.6.45-.19.02-.42-.12-.75-.2zm105.8-202.23c-9.75 8.77-19.25 17.61-29.08 26.06-6.02 5.16-10.67 11.15-14.88 17.86-4.47 7.14-4.47 14.97-6.27 22.59.99.36 1.59.66 2.23.79 14.48 3.11 29.17 4.4 43.95 4.32 3.96-.02 8.01-.82 11.85-1.88 3.96-1.09 6.09-5.6 4.5-9.4-1.47-3.52-.53-6.26 1.46-9.04 1.1-1.53 2.51-2.99 3.09-4.71 5.77-16.9-1.42-36.93-16.85-46.59zm-44.55 14.86c13.52-6 25.52-13.83 33.19-26.77 7.35-12.42 15.87-23.74 26.59-33.51 2.39-2.17 3.44-6.33 4.03-9.76.32-1.85-6.1-3.56-10.23-2.94-4.31.65-8.66 1.13-12.92 1.99-1.48.3-3.32 1.18-4.06 2.38-4.3 6.93-10.47 11.41-17.77 14.64-2.65 1.17-5.19 2.62-7.67 4.14-.95.58-2 1.58-2.3 2.59-3.27 10.91-6.61 21.81-9.45 32.83-1.19 4.61-1.53 9.52.59 14.41zm175.26 29.74c-.08 0-.16-.01-.24-.01 0-1.79.37-3.67-.07-5.34-1.05-3.91-1.71-8.27-3.96-11.43-2.79-3.92-4.89-3.99-8.45-1.63-5.11 3.39-10.32 6.78-15.88 9.28-6.39 2.87-9.01 7.86-10.22 14.16-.21 1.1-.54 2.17-.7 3.27-.93 6.32-1.71 12.64.59 18.86 1.02 2.76 2.55 4.79 5.76 5.35 4.72.81 9.35 2.14 14.08 2.84 5.2.76 10.28-.05 14.82-2.88.89-.55 1.82-1.76 1.91-2.74.89-9.9 1.6-19.82 2.36-29.73zm-56.91 17.86c-.17-2.54-.24-4.56-.44-6.56-1.03-10.11-4.6-14.66-13.74-16.45-4.9-.96-9.97-1.1-14.98-1.48-.87-.07-2.21.27-2.64.89-5.74 8.38-10.29 17.13-7.41 27.81 1.46 5.42 1.79 5.67 7.48 6.09 1.22.09 2.44.3 3.66.42 5.55.54 11.24 2.09 16.62 1.36 9.44-1.25 12.53-3.38 11.45-12.08z" fill="#010105"/><path d="m277.75 36.27c-8.14 1.88-15.15 3.72-22.25 5.1-14.24 2.77-28.45 6.05-42.83 7.73-18.35 2.14-36.84 1.13-55.28-.01-5.47-.34-11.07.94-16.59 1.65-18.8 2.42-37.65 3.78-56.54 1.65-7.39-.83-14.64-2.96-21.92-4.65-.77-.18-1.81-1.43-1.82-2.18 0-2.15-.97-4.49 1.93-6.11 9.47-5.29 19.52-8.03 30.37-8.35 25.59-.75 51.17-1.8 76.76-2.6 16.09-.51 32.19-.95 48.3-1.12 13.86-.14 27.73-.09 41.58.41 4.09.15 8.24 1.82 12.12 3.39 2.09.84 3.66 2.95 6.17 5.09z" fill="#010105"/></svg>