<svg enable-background="new 0 0 400 400" viewBox="0 0 400 400" xmlns="http://www.w3.org/2000/svg"><path d="m296.02 38.73c-7.55.45-15.1.91-22.66 1.35-28.81 1.69-57.62 3.37-86.42 5.05-11.61.68-23.27.94-34.82 2.19-7.63.82-12.55 6.36-14.26 13.46-1.77 7.33-2.1 15.01-2.78 22.57-.1 1.07 1.1 2.63 2.13 3.38 5.14 3.73 11.03 4.89 17.22 3.98 30.33-4.48 60.76-2.29 91.13-1.05 13.08.53 26.08 3.12 39.12 4.78.04.42.07.85.11 1.27-4.19 1.67-8.32 3.52-12.59 4.96-11.64 3.92-23.47 6.37-35.91 5.1-7.45-.76-11.7 2.66-13.52 10.06-2.13 8.69-.58 17.33.18 26.02.39 4.42 2.6 5.83 6.4 6.52 6.41 1.15 12.71.75 18.93-.97 8.38-2.32 16.67-2.61 23.5 3.42 3.47 3.06 6.21 7.31 8.3 11.52 8.17 16.43 11.19 34.19 11.72 52.3.57 19.46.05 38.95.41 58.42.3 16.11.78 32.24 2.01 48.29.51 6.69 3.1 13.23 4.85 19.81 2.7 10.14 5.48 20.26 8.43 31.14-9.06-9.46-16.21-19.47-19.47-31.35-4.51-16.46-7.92-33.23-11.45-49.95-1.26-5.99-1.79-12.18-2.12-18.31-.21-3.84-1.97-5.87-5.24-7.21-7.32-3-15.02-3.65-22.74-3.1-16.95 1.22-33.88 2.78-50.82 4.26-16.12 1.41-25.86-5.78-29.96-20.22-1.25-4.4-2.47-8.86-3.03-13.38-1.29-10.42-2.66-20.88-3.09-31.36-.84-20.62 2.74-40.78 7.66-60.72 1.35-5.47 2.98-10.88 4.91-16.19.52 13.05.9 26.11 1.57 39.15 1.26 24.26 3.41 48.37 9.79 72 2.03 7.52 6.55 11.84 12.63 15.39 3.39 1.98 6.88 1.31 10.57-.22.58-47.26 1.15-94.57 1.73-142.21-22.8-2.21-45.38-4.41-68.56-6.66v3.95c0 18.81.42 37.63-.15 56.42-.38 12.72-1.97 25.41-3.35 38.08-2.43 22.24-5.21 44.44-7.69 66.68-3.87 34.7-16.78 65.4-40.11 91.56-.29.33-.64.6-1.6 1.5 2.08-6.5 3.93-12.24 5.75-17.98 9.63-30.41 17.55-61.25 22.9-92.7 1.61-9.46 1.94-19.14 2.8-28.72 1.26-14.15 2.55-28.3 3.69-42.47 1.58-19.64.33-39.14-3.23-58.49-4.33-23.53-4.28-46.96 1.62-70.23.36-1.43 1.48-3 2.7-3.82 16.47-11.01 34.87-16.39 54.42-18.31 6.46-.63 12.94-1.14 19.35-2.08 12.24-1.78 24.04 1.3 35.95 2.98 20.82 2.93 41.59 6.18 62.38 9.3.21.03.4.16.6.25.07.19.09.39.11.59zm-25.7 217.74c.33-1.31.62-2.27.82-3.24 3.71-17.53 4.17-35.29 3.16-53.08-.63-11.13-3.31-21.82-8.97-31.64-2.48-4.29-6.11-7.29-10.78-7.68-8.43-.7-16.93-.57-25.39-.52-.8 0-2.05 1.78-2.32 2.91-4.32 18.19-4.24 36.58-1.94 54.99 1.42 11.37 4.34 22.37 10.03 32.45.62 1.1 1.96 2.38 3.08 2.5 10.65 1.23 21.32 2.22 32.31 3.31z" fill="#010101"/><g fill="#fbfafa"><path d="m6.4 11.7c-1-.8-1.9-1.6-2.9-2.3l.6-.7c.9.7 1.9 1.4 2.9 2.2zm-2.1 8.3c.7-2.1 1.4-4.2 2-6.4.2.1.6.3 1 .4-.7 2.3-1.3 4.4-1.9 6.4zm3-12.8c-1.1-.9-2.1-1.7-2.9-2.4l.6-.7c1 .8 2 1.5 3 2.4zm1.4-1.3v-.9h10.2v.9c-.9 4.2-2.3 7.3-4.1 9.4 1.3 1.4 3.2 2.7 5.7 4-.2.2-.4.5-.7.9-2.5-1.4-4.4-2.7-5.7-4.2-1.4 1.5-3.5 3-6.1 4.4 0 0 0 0-.1-.1-.3-.4-.5-.7-.7-.8 2.7-1.3 4.7-2.8 6.2-4.2-1.8-2.2-3-5.3-3.7-9.4zm9.2 0h-7.1c.6 3.8 1.7 6.7 3.4 8.7 1.7-2 2.9-4.8 3.7-8.7z"/><path d="m31.6 3.6h.9v2.3h4.1v9.1h1.7v.9h-16.6v-.9h1.7v-9.1h4.1v-2.3h.9v2.3h3.1v-2.3zm-4 13.3.6.8c-1.9.9-3.8 1.9-5.8 2.8-.2-.3-.3-.6-.5-.9 2-.9 3.9-1.8 5.7-2.7zm-3.2-10.1v3.7h3.1v-3.7zm0 4.5v3.7h3.1v-3.7zm4.1-4.5v3.7h3.1v-3.7zm0 4.5v3.7h3.1v-3.7zm9.1 9.1c-2.1-1.1-4.1-2-5.8-2.7l.5-.8c2.2.9 4.1 1.8 5.8 2.6zm-1.9-13.6h-3.1v3.7h3.1zm-3.2 4.5v3.7h3.1v-3.7z"/></g></svg>