<svg enable-background="new 0 0 400 400" viewBox="0 0 400 400" xmlns="http://www.w3.org/2000/svg"><path d="m254.08 373.46c-4.06-4.93-5.14-10.88-6.36-16.73-2.22-10.72-4.16-21.46-8.7-31.59-1.06-2.37-.03-5.65-.06-8.52-.02-1.65.13-3.42-.4-4.93-6.5-18.57-7.98-37.98-9.76-57.35-.32-3.45-.92-6.9-.98-10.35-.04-2.23.75-4.46 1.01-6.7.14-1.21.45-2.78-.13-3.62-2.49-3.63-2.72-7.57-2.79-11.79-.24-14.1-.74-28.19-1.29-42.27-.04-1.05-.98-2.57-1.91-2.99-10.04-4.59-18.95-10.85-27.76-17.42-3.83-2.85-8.59-4.45-13.21-6.76-1.82 4.27-3.05 7.74-4.72 10.98-2.97 5.75-5.97 11.53-9.44 16.98-1.88 2.96-4.71 5.33-7.22 7.86-3.09 3.1-2.91 3.86-.94 7.72 1.47 2.87 2.64 6.25 2.71 9.43.15 6.54.4 12.93 3.04 19.05.5 1.17.52 2.62.49 3.93-.2 7.16-.63 14.31-.66 21.47-.01 2.87-.84 4.42-4.13 4.61-1.75-7.16-3.52-14.41-5.28-21.65-2.4-9.88-5.05-19.71-7.08-29.67-1.24-6.11-1.75-12.41-2.15-18.65-.38-6-1.7-11.64-4.06-17.16-.83-1.93-.72-4.27-.93-6.44-.17-1.76.39-3.81-.33-5.26-3.88-7.89-2.89-16.09-2.07-24.33.69-6.9 1.19-13.82 1.84-20.73.12-1.32.43-2.64.86-3.89.83-2.43 2.01-4.75 2.7-7.22 3.42-12.24 10.17-22.49 18.69-31.7.83-.9 1.73-1.75 2.7-2.49 4.71-3.61 9.38-7.27 14.19-10.72 4.49-3.23 8.16-6.96 11.16-11.77 4.31-6.91 11.5-10.78 18.41-14.73 1.45-.83 3.01-1.48 4.48-2.29 2.12-1.18 4.72-1.23 5.61.74.59 1.31-.55 4.22-1.85 5.41-3.46 3.15-7.41 5.76-11.17 8.58-1.07.81-2.04 1.84-3.24 2.38-7.35 3.37-8.87 9-7.47 16.56 1.77 9.51 1.51 19.13-.44 28.67-.17.81-.15 1.91.28 2.55 2.69 4.05 4.74 8.53 9.26 11.23 5.82 3.48 10.51 8.28 14.32 13.94 2.79 4.14 6.39 7.41 11.23 9.66 2.61-6.96 5.14-13.74 7.72-20.5.47-1.24.9-2.67 1.8-3.54 3.32-3.22 4.05-7.25 4.38-11.59.32-4.3.25-8.92 5.57-11.23 2.47 3.41 3.56 7.32 2.53 11.26-3.27 12.52-7.37 24.84-10.26 37.44-2.46 10.74-4.04 21.72-5.33 32.67-.74 6.29.11 12.76-.21 19.12-.26 5.19-1.42 10.34-1.75 15.53-.19 3.05.24 6.19.79 9.22.93 5.16 1.46 10.12.78 15.51-.65 5.15.98 10.61 1.73 15.92 3.05 21.48 6.14 42.95 9.24 64.42.17 1.2.4 2.47.94 3.54 3.36 6.56 4.22 13.5 3.9 20.78-.13 3.03.84 6.11 1.29 9.18.51 3.49 1.42 6.99 1.39 10.48-.11 9.91-.62 19.84-.96 29.76zm-95.19-196.35c4.08-4.82 6.25-8.9 6.99-14.05 1.79-12.6 4.14-25.06 8.31-37.2 4.2-12.22 8.5-24.5 9.96-37.49 1.01-8.96 2.08-17.92 3.1-26.65-3.34-1.72-5.22-.67-7.2 1.78-5.62 6.96-11.53 13.69-17.3 20.52-.71.85-1.59 1.71-1.91 2.71-3.97 12.58-8.44 25.22-8.42 38.48.01 13.93 1.47 27.87 2.71 41.77.28 3.23 2.28 6.31 3.76 10.13zm33.06-69.38c-5.35 5.66-6.26 7.94-6.02 14.67.13 3.68.25 7.37.53 11.05.08 1.01.39 2.31 1.08 2.93 8.39 7.55 16.82 15.05 25.35 22.44 2.9 2.51 7.98 2.56 11.34.52 2.75-1.68 3.72-4.61 3.25-8.48-.26-2.14-.32-4.44.21-6.49.62-2.38.23-3.82-1.63-5.49-9.46-8.5-19.65-16.22-27.64-26.3-1.63-2.07-4.33-3.29-6.47-4.85z" fill="#010100"/><g fill="#fcfafa"><path d="m342.2 3.2-6.3 9.2h6.1v1.2h-8.2v-.5l6.2-9.1h-5.7v-1.2h7.8v.4z"/><path d="m344 13.7v-10.9h3.1c1.6 0 3 .5 4.1 1.4 1.1 1 1.6 2.2 1.6 3.9s-.5 3-1.6 4-2.5 1.5-4.2 1.5h-3zm1.4-9.6v8.4h1.6c1.4 0 2.5-.4 3.2-1.1.8-.8 1.2-1.8 1.2-3.2s-.4-2.4-1.2-3.1-1.8-1-3.1-1z"/><path d="m356.3 2.8v10.9h-1.4v-10.9z"/><path d="m366.6 13.2c-.8.4-1.8.6-3 .6-1.6 0-2.8-.5-3.7-1.5s-1.4-2.3-1.4-3.9c0-1.7.5-3.2 1.6-4.2s2.4-1.6 4-1.6c1 0 1.9.1 2.6.4v1.5c-.8-.4-1.6-.6-2.6-.6-1.2 0-2.2.4-3 1.2s-1.1 1.9-1.1 3.3c0 1.3.4 2.3 1.1 3.1s1.6 1.1 2.8 1.1c1.1 0 2-.2 2.8-.7v1.3z"/><path d="m368.2 13c0-.3.1-.5.3-.6.2-.2.4-.3.6-.3.3 0 .5.1.7.3s.3.4.3.6-.1.5-.3.6c-.2.2-.4.3-.7.3s-.5-.1-.6-.3c-.2-.2-.3-.4-.3-.6z"/><path d="m381.1 13.7h-1.7l-5.5-8.4c-.2-.2-.3-.5-.4-.7 0 .2.1.8.1 1.5v7.6h-1.4v-10.9h1.8l5.3 8.3c.3.4.4.6.4.8 0-.3-.1-.8-.1-1.6v-7.5h1.4v10.9z"/><path d="m389.7 13.7h-5.8v-10.9h5.6v1.2h-4.2v3.5h3.9v1.2h-3.9v3.7h4.4z"/><path d="m398.4 4.1h-3.1v9.6h-1.4v-9.6h-3.1v-1.3h7.7v1.3z"/></g></svg>