<svg enable-background="new 0 0 400 400" viewBox="0 0 400 400" xmlns="http://www.w3.org/2000/svg"><g fill="#010000"><path d="m200.61 119.73c-2.16 10.66-4.17 20.28-5.98 29.93-.19 1.01.54 2.79 1.39 3.28 4.79 2.78 9.66 5.46 14.67 7.81 2.77 1.3 5.8 1.82 5.64 5.93-.04.95 1.22 1.95 1.99 3.09 1.66-1.13 3.03-2.05 4.67-3.16 6.03 6.06 13.88 6.53 21.76 6.66 13.76.22 26.97 3.64 40.29 6.53 6.76 1.47 13.55 2.81 20.32 4.25 1.41.3 2.87.62 4.14 1.26 3.92 1.96 4.51 4.93.99 7.28-4.41 2.95-9.19 5.41-14.01 7.63-3.74 1.72-7.75 2.89-11.73 3.99-1.65.45-3.53.08-5.3.08-.25-.49-.5-.98-.75-1.47-.35.7-.58 1.5-1.07 2.09-2.45 2.92-5.6 3.8-9.04 2.25-6.61-2.99-13.37-3.16-20.54-2.81-5.41.26-10.96-1.73-16.41-2.9-10.93-2.34-21.84-4.77-32.73-7.26-1.81-.41-3.66-1.11-5.19-2.13-7.12-4.76-15.08-8.46-20.06-16.2-4.86 2.27-9.51 4.17-13.9 6.55-12.97 7.04-25.85 14.24-38.71 21.47-1.9 1.07-3.6 1.7-5.61.54-1.9-1.09-3.29-.29-4.12 1.4-3 6.05-8.37 7.61-14.52 8.65-8.02 1.36-15.9 3.5-23.82 5.43-2.72.66-4.95 2.27-5.81 5.06-1.94 6.26-4.53 12.46-5.39 18.88-1.57 11.72-4.41 23.03-8.25 34.14-.25.73-.51 1.55-1.03 2.07-5.8 5.91-8.67 13.44-11.67 20.89-1.78 4.42-4.9 7.27-9.39 8.93-2.57.95-3.86.22-5.05-2.01-3.01-5.61-4.23-11.63-3.39-17.84.98-7.18 2.39-14.33 3.95-21.41 2.96-13.4 6.54-26.68 9.17-40.15 2.71-13.86 6.14-27.47 11.34-40.59 6.86-17.31 11.07-35.37 15.38-53.4.23-.97.48-1.98.96-2.83 6.09-10.87 14.27-19.96 23.97-27.71.54-.43 1.54-.94 2.01-.72 3.25 1.46 4.9-.53 6.68-2.69.9-1.08 2.14-1.95 3.38-2.66 4.95-2.84 10.06-5.39 14.89-8.41 3.3-2.07 6.61-2.53 10.21-1.55 7.64 2.1 15.23 4.34 22.89 6.39 5.79 1.55 11.41 1.67 17.43-.11 4.9-1.45 10.38-1.05 15.62-1.26 11.37-.44 22.78-1.69 34.08 1 .84.2 2.14-.08 2.76-.65 2.44-2.24 5.35-2.27 8.39-2.54 8.77-.78 17.37.56 26.05 1.43 10 1 20.07 1.29 30.1 2.03 3.55.26 7.09.8 10.57 1.52 2.44.5 3.88 2.4 3.84 4.88-.05 3.22-.31 6.47-.85 9.64-.15.88-1.49 1.81-2.49 2.25-10.45 4.68-21.25 6.95-32.87 6.56-12.49-.42-25.02.44-37.53.64-7.38.15-14.76.05-22.32.05zm-21.02 4.06c-.91-.21-1.76-.58-2.6-.58-9.14.06-18.28.13-27.42.31-7.27.14-14.56.64-21.21-3.28-.67-.4-1.71-.34-2.56-.25-5 .57-10.01 1.09-14.96 1.92-1.35.23-2.99 1.14-3.73 2.25-3.56 5.28-6.58 10.93-10.33 16.05-2.39 3.25-5.75 5.78-8.62 8.69-.61.62-1.49 1.54-1.39 2.19 1.03 6.78-1.57 12.73-3.96 18.76-1.68 4.25-3.55 8.47-4.74 12.86-1.09 4.05-1.52 8.33 1.25 12.29 3.75-1.11 7.33-2 10.8-3.22 22.08-7.72 42.27-19.16 62.04-31.47 8.95-5.57 16.46-12.38 22.06-21.52 2.9-4.72 4.63-9.48 5.37-15zm-112.23 53.9c1.89-2.03 3.51-3.78 5.67-6.1-5.01.78-7.24 3.34-5.67 6.1z"/><path d="m371.97 344.6c-4.15 2.46-7.71 3.85-10.32 6.27-6.39 5.94-13.5 6.22-20.84 3.06-7.56-3.26-14.83-7.23-22.17-10.97-2.18-1.11-4.16-2.64-6.32-3.8-7.54-4.07-14.32-9.1-20.14-15.41-.6-.65-1.3-1.65-1.99-1.69-6.77-.41-10.68-5.7-15.64-9.12-2.42-1.67-5.76-2.73-6.25-6.49-.06-.49-1.43-.97-2.25-1.16-10.3-2.36-18.79-7.86-26.67-14.69-5.32-4.61-11.05-8.75-16.6-13.09-4.18-3.27-6.73-3.5-11.21-.65-14.04 8.92-28.07 17.86-42.02 26.92-2.45 1.59-4.81 2.46-7.77 2.39-6.85-.16-13.52 8.01-11.4 14.46.72 2.19 3.96 5.27 5.77 5.09 12.08-1.16 24.28 1.12 36.34-2.17 11.82-3.22 23.17-7.39 34.18-12.65 1.4-.67 2.83-1.28 4.49-2.02.98 3.32 1.48 6.16-.32 9.35-1.2 2.13-1.97 4.91-1.82 7.32.32 5.23-1.36 9.39-4.98 12.98-11.54 11.44-24.78 20.1-40.49 24.69-.86.25-1.77.63-2.62.53-5.71-.63-10.76 1.29-15.7 3.8-.48.24-1.15.56-1.58.41-5.86-2.09-10.83 1.53-16.21 2.48-2.19.39-4.35 1.06-6.55 1.31-6.06.67-10.84-1.02-14.69-6.35-8.19-11.32-11.83-23.91-12.16-37.66-.02-.86.07-1.87.52-2.55 1.77-2.71 2.08-5.59 1.36-8.63-3.09-13.03-.6-25.72 2.32-38.38.48-2.07 1.05-4.15 1.17-6.26.53-9.39 6.64-16.13 11.25-23.51 2.66-4.25 6.22-4.83 10.81-2.94 1.45.6 2.83 1.46 4.33 1.77 5.8 1.22 8.46 5.21 9.83 10.53 1.5 5.84 3.16 11.64 4.61 17.49 1.15 4.64 2.92 5.55 7.1 3.01 6.11-3.72 12.1-7.64 18.15-11.46 13.15-8.29 26.3-16.57 39.45-24.84 3.72-2.34 7.22-1.44 8.46 2.76 1.63 5.54 4.95 8.97 10.28 10.9 2.61.94 4.95 2.59 7.51 3.69 6.66 2.85 12.08 7.34 17.64 11.92 5.44 4.49 11.96 7.75 18.23 11.12 6.21 3.33 12.63 6.22 17.66 11.36 5.78 5.89 13.4 8.88 20.59 12.36 14.7 7.13 26.54 18.11 38.95 28.3 3.33 2.69 5.33 6.96 7.71 10.22zm-136.39-71.18h5.07c-1.9-1.68-3.29-2.91-5.07-4.48z"/><path d="m128.85 63.43c-5.96 5.38-13.77 6.73-21.36 8.47-3.36.77-6.84 1.06-10.28 1.44-4.55.51-8.67-.6-12.18-3.63-2.93-2.54-4.87.17-7.42 1.47-.93-3.55-1.87-6.98-2.68-10.44-.15-.65.22-1.44.44-2.14.09-.29.44-.5.64-.77 5.57-7.84 12.55-13.71 21.9-16.72 5.42-1.75 10.5-4.38 14.77-8.37.76-.71 2.22-.99 3.34-.96 3.46.1 6.93.35 10.37.74.95.11 1.86.88 2.7 1.47.43.3.6 1.16 1.02 1.28 1.22.33 2.51.58 3.75.5.47-.03 1.31-1.19 1.2-1.64-.25-.96-1-1.8-1.49-2.58h15.03c1.43 1.05 3.24 3.01 3.83 2.69 1.58-.86 2.64-2.68 4.09-4.33 1.74 3.69 5.14 2.37 8.41 1.8 2.64-.46 5.34-.7 7.93-1.34 10.1-2.48 20.06 0 29.98 1.02 9.21.95 18.24.94 27.38-.41 3.35-.5 6.94-.48 10.27.15 10.52 2 20.98 4.36 31.44 6.69 1.71.38 3.62 1 4.85 2.15 1.01.94 1.47 2.8 1.54 4.28.03.78-1.15 2.02-2.05 2.37-6.76 2.63-13.54 5.28-20.44 7.53-2.59.84-5.5.77-8.28.92-17.53.94-35.06 1.88-52.59 2.71-8.2.39-16.4.52-24.37.77-.13-1.24-.32-3.03-.51-4.82-.34-.12-.69-.24-1.03-.36-4.93 5.99-11.11 9.79-18.74 10.56-7.02.68-14.16 3.06-21.46-.5z"/></g><path d="m361.2 9.6.8-1c.9.7 1.9 1.4 2.9 2.3l-.9 1.1c-1-1-2-1.8-2.8-2.4zm.5 10.6c.9-2.1 1.6-4.3 2.3-6.7.4.2.8.4 1.3.6-.7 2.1-1.5 4.3-2.2 6.6zm.4-15.2.9-.9c1 .8 2 1.6 2.8 2.4l-1 1c-.9-.9-1.8-1.7-2.7-2.5zm12.5-1.2h1.2v1.4h2.7v1.1h-2.7v2.7h-1.2v-.6h-1.8v1.3h4.9v3.8h-1.2v-.5h-3.7c0 .4-.1.9-.1 1.2h5.1v1h-5.2c0 .5-.1.9-.2 1.2h6v1h-5.2c1.1 1.3 2.9 2 5.5 2.2-.4.4-.7.8-.9 1.3-2.9-.5-4.8-1.6-5.7-3.5h-.1c-.8 1.7-2.7 2.9-5.9 3.6-.2-.4-.6-.8-.9-1.1 2.8-.6 4.6-1.4 5.4-2.5h-4.8v-1h5.3c.1-.3.2-.7.2-1.2h-4.9v-1h5c0-.4 0-.8.1-1.2h-3.5v.5h-1.2v-3.8h4.9v-1.3h-1.8v.5h-1.2v-2.7h-2.7v-1h2.6v-1.4h1.2v1.4h4.7v-1.4zm-6.6 8.3h3.6c0-.4 0-.9 0-1.4h-3.6zm1.9-4.6h4.7v-1.3h-4.7zm6.6 3.2h-3.7v1.4h3.7z" fill="#fbfcfa"/><path d="m385.3 3.8h1.3v2.2h2.8v-2.2h1.3v2.2h4.1v9.1h1.7v1.3h-16.9v-1.3h1.7v-9.1h4.1v-2.2zm.4 13.1.7 1.2c-1.8.9-3.8 1.9-6 2.9-.2-.4-.5-.8-.8-1.3 2.3-1 4.3-1.9 6.1-2.8zm-3.1-6.4h2.8v-3.2h-2.8zm0 4.6h2.8v-3.3h-2.8zm4-4.6h2.8v-3.2h-2.8zm0 4.6h2.8v-3.3h-2.8zm3.7 1.9c2.1.9 4.1 1.8 6.1 2.7l-.7 1.3c-2.2-1.1-4.2-2-6.1-2.9zm3.2-9.7h-2.8v3.2h2.8zm-2.8 7.8h2.8v-3.3h-2.8z" fill="#fbfcfa"/></svg>