<svg enable-background="new 0 0 400 400" viewBox="0 0 400 400" xmlns="http://www.w3.org/2000/svg"><path d="m362.1 8.8c1.1.8 2.1 1.6 3.1 2.4l-1 1.1c-1.3-1.1-2.3-2-3-2.5zm1.9 4.8c.5.2.9.4 1.4.5-.6 2.3-1.3 4.5-1.9 6.8l-1.5-.5c.8-2.1 1.4-4.3 2-6.8zm-1-9.4c1.3.9 2.4 1.8 3.4 2.5l-1 1.1c-1.4-1.2-2.4-2.1-3.2-2.6zm3.7 2.2v-1.4h10.3v1.2c-.5 3.6-1.8 6.8-4 9.4 1.5 1.6 3.4 2.8 5.7 3.8-.3.4-.7.8-1.1 1.4-2.3-1.1-4.1-2.5-5.6-4.1-1.6 1.6-3.6 3.1-5.9 4.3-.3-.5-.7-.9-1-1.3 2.4-1.1 4.4-2.5 6-4.1-1.9-2.5-3-5.6-3.3-9.3h-1.1zm8.8 0h-6.4c.3 3.3 1.3 6 3 8.2 2-2.3 3.1-5.1 3.4-8.2z" fill="#fbfafc"/><path d="m385.3 3.8h1.3v2.2h2.8v-2.2h1.3v2.2h4.1v9.1h1.7v1.3h-16.9v-1.3h1.7v-9.1h4.1v-2.2zm.4 13.1.7 1.2c-1.8.9-3.8 1.9-6 2.9-.2-.4-.5-.8-.8-1.3 2.3-1 4.3-1.9 6.1-2.8zm-3.1-6.4h2.8v-3.2h-2.8zm0 4.6h2.8v-3.3h-2.8zm4-4.6h2.8v-3.2h-2.8zm0 4.6h2.8v-3.3h-2.8zm3.7 1.9c2.1.9 4.1 1.8 6.1 2.7l-.7 1.3c-2.2-1.1-4.2-2-6.1-2.9zm3.2-9.7h-2.8v3.2h2.8zm-2.8 7.8h2.8v-3.3h-2.8z" fill="#fbfafc"/><g fill="#000001"><path d="m119.71 319.84c6.72 9.5 14.38 17.74 23.89 24.11 18.84 12.6 39.59 16.37 61.8 13.24 1.99-.28 3.95-.73 5.93-1.08 7.37-1.28 14.15-3.71 19.85-8.92 3.19-2.92 7.05-5.12 10.54-7.73 4.43-3.32 6.67-7.9 7.72-13.28.49-2.51-.42-3.38-2.6-4-5.49-1.56-10.95-1.08-16.21.57-10.13 3.18-20.05 6.74-28.48 13.7-8.2 6.76-17.18 4.83-25.43.15-6.97-3.95-13.43-8.85-19.91-13.62-3.03-2.23-4.79-5.55-5.18-9.65 1.33-.17 2.62-.42 3.92-.48 17.34-.75 33.82-6.12 50.71-9.31 15.91-3.01 31.8-6.19 47.7-9.25 3.09-.59 5.1-2.44 4.93-5.41-.22-4.08-1.09-8.14-1.96-12.15-.18-.82-1.47-1.55-2.4-2.02-13.61-6.87-27.85-7.48-42.04-2.79-17.81 5.9-35.34 12.63-52.97 19.06-1.1.4-2 1.35-3 2.04-9.35 6.48-18.61 13.11-28.1 19.39-4.52 2.99-9.21 3.38-14.42.38-6.27-3.6-13.06-6.35-19.73-9.21-2.97-1.28-4.99-3.08-6.14-6.11-.86-2.27-2.14-4.39-3.46-7.01 6.42-1.2 12.51-2.36 18.6-3.47 7.81-1.42 15.63-2.73 23.42-4.23 1.94-.38 3.9-1.11 5.64-2.05 20.98-11.35 44.16-16.19 66.8-22.61 4.73-1.34 9.43-2.79 14.21-3.92 28.17-6.69 54.96 3.39 68.71 28.11 1.84 3.3 3.39 6.78 4.8 10.29 2.27 5.64 2.17 11.35-.11 17-2.68 6.63-5.33 13.27-8.07 19.87-.46 1.11-1.17 2.17-1.97 3.07-8.53 9.63-16.55 19.81-25.88 28.61-5 4.71-12.03 7.55-18.54 10.29-11.6 4.89-23.96 4.87-36.33 4.25-11.72-.59-23.5-.57-35.17-1.69-4.16-.4-8.48-2.78-12.04-5.25-12.42-8.61-23.19-19-31.01-32.07-1.8-3.01-2.64-6.6-3.99-9.89-1.34-3.28-.5-5.31 3.12-5.99.89-.14 1.71-.54 2.85-.94z"/><path d="m59.02 105.71c10.3 0 19.8-.3 29.28.09 8.21.34 15.91-.95 23.47-4.18 11.53-4.94 23.67-7.79 35.93-10.49 12.4-2.73 24.62-6.59 36.58-10.89 13.55-4.88 27.47-7.71 41.56-10.23 21.89-3.91 43.7-8.32 65.58-12.3 8.07-1.47 15.83.22 22.92 4.27 3.54 2.03 5.52 5.55 6.26 9.52.17.94-.69 2.47-1.55 3.13-6.33 4.92-13.87 7-21.61 7.26-24.27.81-47.39 7.44-70.68 13.25-15.61 3.9-31.16 8.06-46.86 11.57-8.82 1.97-17.9 2.73-26.82 4.31-3.11.55-6.34 1.47-9.06 3.02-5.96 3.39-11.99 6.36-18.78 7.75-5.7 1.16-8.21 4-8.44 9.91-.18 4.77.45 9.58.75 14.37.06 1 .21 2.01.39 2.99 1.36 7.15.57 14.04-2.87 20.47-5.35 10.02-5.24 21.33-7.89 31.99-5.66 22.79-16.05 42.97-35.64 57.05-5.45 3.92-11.88 6.47-17.71 9.56-3.06-3.75-3.1-6.92-.77-11.13 6.69-12.13 13.45-24.22 20-36.42 4.82-8.98 7.53-18.62 7.97-28.85.04-.86.11-1.89.58-2.54 5.76-7.95 6.04-16.99 4.64-26.07-1.28-8.37-3.35-16.62-5.3-24.87-.41-1.73-1.7-3.33-2.84-4.8-5.14-6.61-10.5-13.06-15.5-19.78-1.57-2.15-2.26-4.95-3.59-7.96z"/><path d="m293.95 370.9c.43-7.93 2.02-15.09 5.06-21.87 5.86-13.05 11.49-26.17 15.2-40.05 5.46-20.41 7.43-41.18 6.04-62.17-.92-13.81-3.01-27.53-4.56-41.3-.11-1-.26-2.01-.18-3.01.43-5.26-.36-10.02-3.79-14.43-1.52-1.95-1.57-5.04-2.31-7.6-1.27-4.4-2.47-8.82-3.88-13.17-2.15-6.67-7.03-10.44-13.63-12.09-1.08-.27-2.42-.03-3.5.36-8.83 3.16-17.65 6.38-26.44 9.66-1.33.5-2.69 1.19-3.74 2.12-11.2 9.84-24.72 14.13-39.1 16.07-5.29.72-10.7.61-16.06.56-2.75-.02-5.5-.74-8.17-1.13-1-3.02-.08-4.4 2.65-5.83 16.53-8.64 32.87-17.63 49.33-26.4 10.1-5.39 20.58-10.11 32-11.56 9.42-1.19 18.98-.58 28.29 1.75 7.26 1.82 11.56 7.35 15.59 13.05 9.18 13 13.39 27.89 16.18 43.28 2.51 13.82 3.24 27.65 1.7 41.73-.77 7 1.04 14.24 1.27 21.39.12 3.82-.37 7.72-1.03 11.51-2.07 11.75-4.73 23.41-6.42 35.21-1.29 9.05-3.24 17.7-7.44 25.89-3.01 5.86-4.99 12.26-8.22 17.98-5.48 9.7-13 17.26-24.84 20.05z"/><path d="m136.66 138.71c9.65 3.96 17.08 10.2 21.4 19.5 2.63 5.68 3.05 11.54-1.71 16.88-3.72 4.18-5.28 9.09-4.13 14.91.59 2.97-.24 6.2-.15 9.31.05 1.63.31 3.48 1.15 4.8 1.85 2.91 4.5 5.35 6.17 8.35 3.57 6.4 9.5 7.96 16 8.66 11.65 1.25 22.87-1.44 34.19-3.59 15.93-3.03 30.02-9.9 43.18-19.09 3.46-2.42 7.19-4.57 11.06-6.24 6.29-2.72 11.26.44 11.85 7.25.08.93-.45 2.18-1.12 2.87-11.47 11.96-24.52 21.49-40.68 26.2-1.47.43-3.02 1.06-4.16 2.04-11.88 10.14-25.68 12.49-40.6 10.01-9.25-1.54-18.45-3.39-27.64-5.26-1.4-.29-2.87-1.23-3.9-2.27-14.46-14.66-21.55-32.67-23.37-52.87-.84-9.35-1.02-18.75-1.41-28.14-.2-5.02.87-8.5 3.87-13.32z"/><path d="m111.72 50.65c15.62 1.57 29.6-3.83 43.74-8.24 4.53-1.41 8.82-3.32 11.25 3.58 5.19-10.49 14.84-10.92 23.79-12.92 7.84-1.75 15.52-4.44 23.43-5.52 6.28-.86 12.91-.51 19.19.52 2.3.38 4.11 4.21 5.93 6.63.26.35-.38 1.96-.99 2.3-3.56 1.98-7.11 4.09-10.9 5.51-6.36 2.37-13.05 3.85-19.33 6.39-20.28 8.23-40.42 16.82-60.67 25.14-1.71.7-3.86.75-5.73.51-2.98-.37-5.96-1.04-8.82-1.96-2.38-.76-4.75-1.81-6.85-3.17-3.56-2.3-6.97-4.85-10.31-7.48-3.59-2.8-4.55-6.63-3.73-11.29z"/></g></svg>