<svg enable-background="new 0 0 400 400" viewBox="0 0 400 400" xmlns="http://www.w3.org/2000/svg"><path d="m78.75 180.21c-2.13 4.13-4.11 7.76-5.85 11.5-.46.98-.57 2.47-.16 3.44 3.44 8.26 3.64 16.87 3.61 25.65-.15 36.71-.12 73.42.05 110.13.04 7.93 1.13 15.84 1.42 23.78s-3.62 12.55-11.26 13.62c-.97.14-2.63-.55-3.08-1.36-3.67-6.51-6.41-13.47-5.92-21.03 1.25-19.24-1.79-38.18-3.64-57.2-1.01-10.35-2.21-20.69-3.31-31.03-.07-.66-.22-1.41.02-1.97 3.21-7.55.89-15.26.6-22.88-.28-7.26-1.21-14.49-1.58-21.75-.11-2.25.88-4.53 1.01-6.82.35-5.9 1.3-11.9.59-17.69-2.13-17.45-.22-34.56 2.53-51.75 1.67-10.45 4.02-20.88 3.05-31.64-.67-7.45-1.08-14.94-1.31-22.42-.34-10.82-.29-21.65-.65-32.47-.27-7.9 1.43-15.23 5.38-22.66 8.65 9.36 14.75 19.45 15.87 32.03.08.91-.63 2.08-1.31 2.83-1.8 1.98-3.78 3.8-5.76 5.75 2.45 2.35 4.87 4.49 7.08 6.82 1.66 1.75 2.52 3.69 1.71 6.39-1.19 3.95.99 7.24 3.29 10.13 14.08 17.72 30.69 32.42 50.82 43.09 6.98 3.7 13.61 8.15 20.12 12.66 6.83 4.73 13.39 5.21 20.17.58 16.35-11.16 32.71-22.31 48.97-33.59 6.25-4.34 6.93-8.51 3.01-15.16-6.59-11.16-13.17-22.33-19.87-33.69 1.01-.69 1.9-1.3 2.95-2.02 1.11 1.28 2.09 2.42 3.35 3.88 2.17-3.86 4.22-7.51 6.43-11.45-3.42-.85-6.17-2.19-8.99 1.1-2.59 3.03-10.37 1.92-13.55-1.51-1.89-2.04-3.66-4.2-5.56-6.4-.55.53-.96.89-1.33 1.28-5.5 5.62-12.12 4.71-16.11-2.23-1.37-2.38-2.69-4.78-4.24-7.56 11.93-.71 23.28-1.42 34.64-2.02 1.03-.05 2.28.3 3.12.9 3.13 2.27 6.1 1.98 9.21-.01 3.21-2.05 6.78-2.36 10.56-2.46 11.9-.31 23.42 1.11 35.11 3.79 12.46 2.86 25.44 3.42 38.2 4.99 5.22.64 10.45 1.19 15.64 2.01 1.01.16 2.33 1.19 2.72 2.13 5.46 13.32 10.84 26.68 16.07 40.09.9 2.31 1.45 4.94 1.42 7.41-.17 11.86-1.09 23.73-.76 35.56.2 7.3 2.18 14.55 3.31 21.83.31 1.98.59 3.99.6 5.99.06 9.74.4 19.49-.07 29.21-.59 12.1 2.21 23.78 3.53 35.65 2.38 21.5 3.87 43.02 1.33 64.62-.09.76-.18 1.62.07 2.31 2.58 7.17 1.23 14.33.19 21.53-1.59 10.96-3.07 21.93-4.64 32.88-.15 1.07-.61 2.12-1.04 3.13-1.92 4.6-3.91 9.17-5.83 13.76-1.82 4.36-3.58 8.74-5.89 12.95-2.93-10.53-5.03-20.88-4.12-31.64.2-2.42-.22-5.16-1.22-7.36-1.86-4.07-2.79-8.12-2.58-12.61.25-5.25.22-10.52.02-15.78-.26-6.66.62-13.11 2.25-19.56.58-2.31.48-5.15-.33-7.37-2.2-6.03-3.17-11.92-1.51-18.31.66-2.54.31-5.57-.37-8.17-2.65-10.13-4.26-20.34-3.44-30.82.72-9.19-1.07-17.89-4.01-26.59-1.6-4.73-3.63-7.98-8.63-9.38-2.25-.63-4.34-2.26-6.21-3.78-5.38-4.38-10.56-9-15.95-13.37-1.08-.87-2.74-1.34-4.16-1.42-5.72-.31-10.26 1.76-14.55 5.89-9.48 9.14-20.59 16.12-32.5 21.71-19.52 9.16-39.12 18.16-58.71 27.16-5.71 2.62-11.71 3.7-17.97 2.46-1.18-.23-2.4-.55-3.47-1.09-13.55-6.89-27.09-13.8-40.58-20.79-1.33-.69-2.54-1.8-3.49-2.97-5.76-7.04-11.81-13.77-19.73-18.49-1.48-.85-3.02-1.48-4.78-2.35zm4.15-46.09c-.55 2.93-1.02 5.91-1.68 8.83-.42 1.87.06 3.08 1.58 4.29 21.57 17.07 43.1 34.21 64.66 51.3.85.67 1.87 1.31 2.91 1.55 7.51 1.72 14.94 1.6 21.89-2.02 4.94-2.58 9.6-5.68 14.43-8.46 1.52-.88 3.13-1.67 4.79-2.19 3.82-1.21 8.16-1.46 11.47-3.47 17.59-10.64 34.94-21.69 52.33-32.68.84-.53 1.62-1.85 1.65-2.83.26-8.34-4.25-15.05-12.19-17.65-3.57-1.17-7.39-1.71-11.14-2.12-1.24-.13-3.15.69-3.86 1.7-7.08 10.1-16.59 16.99-27.9 21.58-.52.21-.98.57-1.5.74-8.83 2.87-14.36 8.86-16.71 17.78-.97 3.68-3.46 5.26-6.99 6.2-12.16 3.25-24.14 3.9-34.52-4.4-8.54-6.82-16.5-14.39-24.37-21.99-3.09-2.99-6.1-5.74-10.04-7.56-7.87-3.64-15.23-8.6-24.81-8.6zm152.76-74.3c.41 4.26 2.45 7.88 5.5 11.24 2.98 3.28 5.62 6.9 8.13 10.56 4.42 6.43 7.99 13.56 13.06 19.4 14.44 16.63 28.97 33.15 41.99 50.95.63.86 2.1 1.8 2.99 1.64 1.72-.3 3.04-1.28 2.87-3.69-.51-7.25-.9-14.51-1-21.77-.28-18.93-3.95-37.83-.04-56.81 1.1-5.32-3.47-9.91-8.84-10.09-15.07-.48-30.15-1.01-45.22-1.4-6.47-.17-12.92-.03-19.44-.03z" fill="#010100"/><g fill="#fcfafa"><path d="m342.2 3.2-6.3 9.2h6.1v1.2h-8.2v-.5l6.2-9.1h-5.7v-1.2h7.8v.4z"/><path d="m344 13.7v-10.9h3.1c1.6 0 3 .5 4.1 1.4 1.1 1 1.6 2.2 1.6 3.9s-.5 3-1.6 4-2.5 1.5-4.2 1.5h-3zm1.4-9.6v8.4h1.6c1.4 0 2.5-.4 3.2-1.1.8-.8 1.2-1.8 1.2-3.2s-.4-2.4-1.2-3.1-1.8-1-3.1-1z"/><path d="m356.3 2.8v10.9h-1.4v-10.9z"/><path d="m366.6 13.2c-.8.4-1.8.6-3 .6-1.6 0-2.8-.5-3.7-1.5s-1.4-2.3-1.4-3.9c0-1.7.5-3.2 1.6-4.2s2.4-1.6 4-1.6c1 0 1.9.1 2.6.4v1.5c-.8-.4-1.6-.6-2.6-.6-1.2 0-2.2.4-3 1.2s-1.1 1.9-1.1 3.3c0 1.3.4 2.3 1.1 3.1s1.6 1.1 2.8 1.1c1.1 0 2-.2 2.8-.7v1.3z"/><path d="m368.2 13c0-.3.1-.5.3-.6.2-.2.4-.3.6-.3.3 0 .5.1.7.3s.3.4.3.6-.1.5-.3.6c-.2.2-.4.3-.7.3s-.5-.1-.6-.3c-.2-.2-.3-.4-.3-.6z"/><path d="m381.1 13.7h-1.7l-5.5-8.4c-.2-.2-.3-.5-.4-.7 0 .2.1.8.1 1.5v7.6h-1.4v-10.9h1.8l5.3 8.3c.3.4.4.6.4.8 0-.3-.1-.8-.1-1.6v-7.5h1.4v10.9z"/><path d="m389.7 13.7h-5.8v-10.9h5.6v1.2h-4.2v3.5h3.9v1.2h-3.9v3.7h4.4z"/><path d="m398.4 4.1h-3.1v9.6h-1.4v-9.6h-3.1v-1.3h7.7v1.3z"/></g></svg>