<svg enable-background="new 0 0 400 400" viewBox="0 0 400 400" xmlns="http://www.w3.org/2000/svg"><path d="m6.8 9.5c.6.3 1.3.7 2.1 1.1-.4.4-.7.8-.9 1.2-.7-.4-1.3-.8-1.8-1.1s-1.1-.6-1.6-.8c.2-.4.5-.8.7-1.2.4.2.8.5 1.5.8zm.9 6.9c-.3.6-.5 1.1-.7 1.7s-.4 1.1-.6 1.7c-.6-.4-1.1-.7-1.6-1 .7-1 1.2-1.8 1.5-2.4.3-.5.6-1.1.8-1.7.3-.6.5-1.2.8-1.8.3.3.8.6 1.3.8-.7 1.3-1.2 2.2-1.5 2.7zm.1-11c.4.3 1 .7 1.7 1.1-.5.2-.8.6-1.1 1.1-.5-.6-1-1-1.4-1.2s-.9-.6-1.5-.8c.2-.4.5-.7.9-1.1.5.3.9.6 1.4.9zm10.5 13.1c1 .4 2 .6 3.1.7-.4.4-.7.8-.8 1.3-.9-.2-1.9-.6-3-.9-1-.4-2-.9-2.8-1.6-.5.4-1.1.9-1.9 1.3s-1.9.9-3.3 1.2c-.1-.3-.5-.8-1.1-1.3 1 0 2.1-.3 3.2-.8 1.2-.5 1.9-1 2.3-1.7h-3.2c-.4 0-1 0-2 .1v-1.2c1 0 1.7.1 2 .1h3.3v-1h-2.3c-.2 0-.9 0-2 .1v-1.2c1.2 0 1.9.1 2 .1h2.3v-.8h-4.1c0-.7.1-1.2.1-1.6 0-.5 0-1.1-.1-1.8h4.1v-.7h-2.5c0-.6.1-1.1.1-1.6v-.6h-.5c-.4 0-1 0-1.8.1v-1.3c1.2 0 1.9.1 2.1.1h.2c0-.3 0-.8-.1-1.4h1.4c0 .6-.1 1-.1 1.4h3.4c0-.4 0-.8-.1-1.3h1.5c0 .4-.1.9-.1 1.3.7 0 1.5 0 2.5-.1v1.2c-1 0-1.8-.1-2.5-.1v.6c0 .3 0 .8.1 1.5h-2.5v.8h4.1c0 .7-.1 1.3-.1 1.8s0 1 .1 1.5h-4.1v.8h1.4c.8 0 1.8 0 2.9-.1v1.2c-1 0-1.9-.1-2.8-.1h-1.5v1h3.2c.3 0 1 0 2.1-.1v1.2c-1.1 0-1.8-.1-2.1-.1h-3.4l-.1.1c1.4 1 2.4 1.5 3.4 1.9zm-4.1-6.7v-1.3h-2.7v1.3zm2.2-4.1v-1.1h-3.4v1.1zm1.9 4.1v-1.3h-2.8v1.3z" fill="#fafbfa"/><path d="m37 6.7v2.3 5.4c1 0 1.8 0 2.2-.1v1.3c-.6 0-1.5-.1-2.5-.1h-11.9c-.7 0-1.3 0-1.8.1v-1.3c.5 0 1.1.1 2 .1v-5.2c0-1 0-1.8-.1-2.5h3.7c0-1.3 0-2.1-.1-2.5h1.5c0 .4-.1 1.3-.1 2.5h2.2c0-1.2 0-2.1-.1-2.6h1.5c0 .4-.1 1.3-.1 2.6zm-12.3 13.7c-.3-.4-.7-.8-1.1-1.1 1.1-.4 2.1-.9 2.9-1.3.8-.5 1.5-1 2.1-1.6.4.4.9.8 1.3 1.1-2.5 1.4-4.2 2.4-5.2 2.9zm3.9-10.1v-2.4h-2.2v2.4zm0 4.1v-2.9h-2.2v2.9zm3.5-4.1v-2.4h-2.2v2.4zm0 4.1v-2.9h-2.2v2.9zm.4 2.9 1-1.1c.6.3 1.4.7 2.5 1.3s2 1.1 2.7 1.5c-.4.4-.8.8-1.1 1.3-.8-.8-2.5-1.7-5.1-3zm3.1-7v-2.4h-2.1v2.4zm0 4.1v-2.9h-2.1v2.9z" fill="#fafbfa"/><g fill="#010103"><path d="m111.4 152.99c5.54-2.94 11.42-3.61 17.32-3.57 17.92.12 35.39 3 52.21 9.38 1.03.39 2.1.69 3.29 1.08 2.85-3.42 3.42-7.47 2.52-11.42-1.4-6.18-3.33-12.26-5.24-18.31-2.95-9.37-6.02-18.7-9.18-28-.42-1.24-1.42-2.48-2.49-3.29-9.55-7.23-19.17-14.35-28.76-21.52-.96-.72-1.89-1.5-3.59-2.86 7.63-.1 14.05-2.52 21.12.32 12.36 4.96 25.58 5.25 38.71 4.6 12.17-.6 24.3-2.12 36.47-2.64 11.59-.5 23.04.69 33.57 6.26 1.72.91 3.3 2.09 4.73 3.85-7.42.42-14.86 1.32-22.27 1.13-6.74-.17-11.39 2.41-15.38 7.56-7.54 9.74-13.17 20.55-17.62 31.89-3.62 9.22-6.24 18.84-9.22 28.3-.39 1.23-.3 2.62-.45 4.11 8.33 2.62 16.31 2.56 24.5-.08 7.94-2.56 16.1-4.41 24.16-6.6.84-.23 1.87-.4 2.43-.97 6.72-6.86 14.79-6.33 23.28-4.39.86 2.25.32 3.35-2.22 4.28-14.79 5.4-29.65 10.68-44.16 16.78-5.75 2.42-10.78 6.66-15.88 10.43-2.08 1.54-3.47 4.01-5.4 6.34 10.51 9.07 12.38 21.88 15.95 33.89 3.34 11.24 6.68 22.48 9.67 33.82 6.09 23.09 3.23 45.73-4.26 67.97-3.53 10.47-7.59 20.77-11.5 31.11-.49 1.29-1.34 2.67-2.43 3.46-7.63 5.48-15.22 11.03-23.11 16.13-5.84 3.78-12.34 5.88-19.46 4.22-1.7-.4-3.38-1.14-4.89-2.02-2.6-1.52-4.9-3.65-7.62-4.88-11.64-5.27-16.45-15.69-20.76-26.64-7.95-20.25-7.19-40.52-1.27-61.14 5.55-19.33 10.09-38.94 15.47-58.31 1.6-5.76 4.49-11.17 6.92-16.68 3.74-8.49 7.55-16.95 11.45-25.36.81-1.74.67-2.98-.38-4.54-6.91-10.25-16.86-13.42-28.59-12.27-7.67.75-15.31 2.36-22.98.19-6.4-1.84-11.37-5.5-14.66-11.61zm83.47 198.22c6.88-3.15 13.61-6.11 20.2-9.36 1.37-.68 2.71-2.3 3.18-3.77 2.55-7.98 4.41-16.19 7.28-24.04 5.06-13.82 6.26-27.97 3.75-42.25-2.01-11.41-4.89-22.72-8.23-33.82-3.65-12.17-8.1-24.11-12.53-36.03-1.86-5-5.23-9.07-10.24-11.53-2.19-1.07-3.68-.93-5.46 1.09-10.97 12.34-17.58 26.71-21.25 42.73-2.87 12.53-3.47 25.76-10.66 37.09-1.43 2.25-2.63 4.71-3.5 7.23-2.11 6.09-5.25 12.19-5.66 18.44-.82 12.68 1.39 25.26 6.5 37 3.36 7.71 7.58 15.05 11.39 22.53 1.18-.49 1.5-.57 1.78-.74 8.45-5.13 12.04-13.17 12.32-22.53.28-9.37-.62-18.76-.6-28.14.01-8.51 1.14-16.9 4.67-24.85 8.5 5 12.96 14.24 11.03 23.81-1.43 7.1-3.83 14-5.33 21.08-1.82 8.62-1.95 17.27 1.36 26.06zm5.09-212.43c.78-1.13 1.32-1.83 1.78-2.59 7.17-11.73 14.33-23.46 21.47-35.21 3.41-5.61-.5-13.47-7.03-14.13-5.23-.53-10.46-.98-15.69-1.44-.88-.08-1.88-.3-2.65 0-5.61 2.12-11.18 4.35-17.02 6.65 6.38 15.6 12.64 30.85 19.14 46.72z"/><path d="m237.38 41.23c-6.25 0-12.49 0-18.74 0-11.4 0-22.8-.11-34.2.08-2.92.05-4.41-.86-5.49-3.51-1.37-3.37-3.18-6.56-4.96-10.15 1.27-.13 2.13-.33 2.97-.28 14.36.94 28.76 1.51 43.04 3.1 4.73.53 9.26 3.5 13.69 5.74 1.65.83 2.75 2.76 4.1 4.19-.13.27-.27.55-.41.83z"/></g></svg>