<svg enable-background="new 0 0 400 400" viewBox="0 0 400 400" xmlns="http://www.w3.org/2000/svg"><path d="m58.17 220.59c9.62 0 18.68.23 27.72-.1 4.03-.15 8.01-1.5 12.03-2.18 3.02-.51 6.16-1.47 9.1-1.08 7.1.94 13.79-1.02 20.56-2.19 12.98-2.26 25.9-4.9 38.84-7.42 1.31-.25 2.58-.71 3.85-1.15 2.66-.91 5.02-2.35 5.41-5.36.44-3.38.22-6.64-2.94-9.05-4.81-3.66-9.47-7.5-14.19-11.29-6.01-4.82-12.16-9.42-16.91-15.68-6.1-8.04-14.28-9.6-23.72-6.91-6.28 1.79-11.66 4.97-16.46 9.29-1.33 1.2-2.79 2.28-3.98 3.6-5.79 6.43-12.65 6.38-19.45 2.51-9.02-5.13-17.67-10.91-27.02-16.75 7.86-2.67 15.13-5.14 22.4-7.6 3.18-1.08 6.34-2.2 9.53-3.22 6.7-2.14 13.37-4.26 19.13-8.6 2.01-1.51 4.49-2.61 6.93-3.31 17.92-5.15 34.39-13.83 51.49-20.99 21.59-9.03 43.62-16.62 66.88-20.32 29.52-4.69 58.38-1.95 86.84 6.67 5.56 1.68 11.23 3.03 16.73 4.9 2.68.91 5.32 2.35 7.57 4.09 3.91 3.02 4.95 7.2 4.73 12.18-.38 8.66-.06 9.35-8.82 9.94-6.79.46-13.84-.42-20.55-1.81-8.29-1.72-16.47-4.22-24.46-7.05-6.58-2.33-13.1-2.78-19.77-1.53-6.57 1.23-13.09 2.75-19.57 4.38-2.73.69-4.02 2.56-3.87 5.74.25 5.24 1.33 11.06-.52 15.59-1.8 4.4-6.99 7.35-10.39 11.2-1.78 2.02-3.52 4.43-4.25 6.96-2.19 7.6-5.72 14.19-11.56 19.68-2.25 2.11-3.49 5.29-5.46 8.43 7.89 2.33 14.55.92 21.15-1.93 5.12-2.21 10.18-4.75 15.52-6.21 22.4-6.14 43.14-15.76 62.4-28.67 6.63-4.45 13.5-8.36 21.49-9.81 1.07-.19 2.16-.28 3.17-.41 3.59 9.66 2.53 15.64-5.05 21.8-8.05 6.54-16.44 12.72-25.09 18.45-8.47 5.62-17.39 10.57-26.23 15.61-3.67 2.09-7.76 3.46-11.45 5.53-2.95 1.66-5.78 3.68-8.3 5.93-1.81 1.62-1.66 3.38.62 5.2 7.26 5.79 14.36 11.79 21.33 17.92 1.44 1.26 2.62 3.33 2.98 5.2 1.68 8.78 3.55 17.58 4.37 26.46.9 9.78.76 19.66 1.03 29.5.19 6.82.41 13.65.44 20.47.04 9.41-3.03 17.89-8 25.77-16.12 25.56-41.14 32.3-69.13 32.48-10.31.06-19.34-4.08-27.63-9.91-1.07-.75-1.95-1.85-2.75-2.91-8.49-11.19-15.41-23.28-21.1-36.11-3.37-7.59-4.82-15.33-2.03-23.4 1.51-4.38 1.12-8.56-.81-12.64-3.6-7.6-1.31-15.44-.79-23.13.49-7.25-.73-13.67-6.33-18.57-1.51-1.32-3.86-2.29-5.86-2.36-7.71-.27-15.45.13-23.16-.19-5.57-.23-10.67.55-15.16 3.94-1.77 1.33-3.26 1.05-5.21.18-7.84-3.49-15.89-6.53-23.67-10.16-2.95-1.38-5.76-3.54-7.92-5.98-3.35-3.8-7.08-6.75-11.85-8.45-2.84-.99-3.97-2.82-2.83-5.17zm200.13 25.42c-3.97-6.72-7.58-13.5-11.88-19.8-1.8-2.63-4.92-4.49-7.73-6.23-1.16-.72-3.27-.72-4.62-.21-17.93 6.9-35.79 13.95-53.67 20.98-.76.3-1.45.76-2.43 1.28 3.11 2.96 6.17 5.45 8.71 8.39 3.5 4.06 7.86 5.4 13 5.73 12.03.76 23.89-.49 35.7-2.56 7.7-1.35 15.29-3.13 22.92-7.58zm4.74 21.35c-4.85 1.12-9.27 2.35-13.77 3.13-15.15 2.63-29.63 9.43-45.72 6.45-6.24-1.15-7.89 1.26-7.7 7.61.01.45.02.89.04 1.34.26 4.97.53 9.94.8 14.98 23.6.54 46.31-1.95 68.48-9.49-.72-8.02-1.41-15.79-2.13-24.02zm-110.02-120.15c1.91 2.56 3.14 4.9 4.98 6.53 3.59 3.17 7.41 6.11 11.35 8.83 7.26 5.02 14.77 9.66 21.95 14.78 2.24 1.6 3.83 1.31 5.05-.48 2.31-3.39 4.45-6.93 6.26-10.61 2.99-6.11 5.34-12.55 8.59-18.5 1.93-3.53 2.66-7.01 2.61-10.84-.06-5.23-3.34-7.64-8.46-6.13-4.07 1.2-8.1 2.51-12.15 3.78-13.07 4.1-26.15 8.22-40.18 12.64zm42.73 178.9c.26 5.47 1.9 9.74 6.72 12.5 3.18 1.82 6.09 4.1 9.22 6.01 1.44.87 3.11 1.88 4.69 1.91 5.24.1 10.49-.3 15.74-.36 13.69-.16 21.32-8.23 26.17-19.94.3-.73.27-1.75.05-2.53-1.19-4.14-3.38-5.39-8.92-4.71-9.98 1.22-19.94 2.62-29.91 3.95-7.85 1.04-15.69 2.09-23.76 3.17z" fill="#010105"/><path d="m93.44 54.35c5.61.58 10.88.8 16.02 1.73 8.62 1.56 17.1.82 25.66-.4 17.7-2.54 35.45-4.82 53.16-7.29 2.08-.29 4.16-.86 6.14-1.58 18.76-6.91 37.5-13.86 56.24-20.83 5.4-2.01 10.65-1.04 15.57 1.23 1.57.72 2.97 3.09 3.33 4.93 1 5.02-1.02 8.39-5.63 10.63-11.76 5.7-23.35 11.8-35.35 16.95-9.93 4.27-20.33 7.42-30.53 11.06-13.47 4.8-26.96 9.51-40.4 14.4-9.56 3.48-18.49 1.29-27.25-2.67-7.11-3.22-14.15-6.58-21.2-9.93-3.32-1.58-6.79-2.97-9.8-5.02-4.32-2.96-6.28-7.35-5.96-13.21z" fill="#010105"/><g fill="#fcfbfa"><path d="m377.9 391.2c-.2.3-.4.5-.6.8-.7-.6-1.4-1-2.2-1.5.2-.3.4-.5.5-.8.6.4 1.4.8 2.3 1.5zm-1.8 6.1c-.2-.2-.5-.4-.9-.6.4-.6.8-1.2 1.2-1.9s.7-1.3.9-1.9c.3.3.5.5.8.7-.7 1.3-1.4 2.6-2 3.7zm2.2-9c-.3.3-.5.5-.6.8-.6-.6-1.3-1.1-2-1.5.3-.3.5-.5.6-.7.6.5 1.3.9 2 1.4zm.3.2v-.9h2 4.5c-.3 1.3-.6 2.5-1 3.6s-.9 2.1-1.4 3c.4.5 1 1 1.6 1.4s1.2.8 1.9 1.1c-.3.2-.5.4-.8.8-.4-.3-1-.7-1.6-1.2s-1.2-1.1-1.6-1.6c-.5.6-1.1 1.1-1.7 1.6s-1.4.9-2.1 1.4c-.1-.3-.3-.5-.7-.8.6-.2 1.2-.5 1.9-1s1.4-1.1 2-1.8c-.5-.8-.9-1.6-1.2-2.5s-.6-2-.8-3.2c-.4.1-.7.1-1 .1zm2.5 2.7c.3 1 .7 1.7 1 2.2.3-.5.6-1.1 1-2s.6-1.9.9-3h-3.2-.4c.1.9.3 1.8.7 2.8z"/><path d="m396.5 388.5v1.5 3.6h1.5v.9c-.4 0-1 0-1.7 0h-7.9c-.5 0-.9 0-1.2 0v-.9h1.3v-3.5c0-.7 0-1.2 0-1.6h2.4c0-.8 0-1.4 0-1.7h1c0 .3-.1.8-.1 1.7h1.5c0-.8 0-1.4 0-1.7h1c0 .3-.1.9-.1 1.7zm-8.2 9.2c-.2-.3-.5-.5-.8-.8.8-.3 1.4-.6 1.9-.9s1-.7 1.4-1.1c.3.3.6.5.9.8-1.6 1-2.8 1.6-3.4 2zm2.6-6.8v-1.6h-1.5v1.6zm0 2.7v-1.9h-1.5v1.9zm2.4-2.7v-1.6h-1.5v1.6zm0 2.7v-1.9h-1.5v1.9zm.2 2 .7-.8c.4.2.9.5 1.6.8s1.3.7 1.8 1c-.3.3-.5.5-.8.8-.4-.3-1.5-1-3.3-1.8zm2-4.7v-1.6h-1.4v1.6zm0 2.7v-1.9h-1.4v1.9z"/></g></svg>