<svg enable-background="new 0 0 400 400" viewBox="0 0 400 400" xmlns="http://www.w3.org/2000/svg"><path d="m307.87 128.17c5.82 1.84 11.8 2.57 16.18 7.17 1.15 1.2 2.48 2.34 3.93 3.12 6.52 3.49 7.67 9.48 7.5 16-.04 1.37-.72 3.27-1.75 3.97-3.76 2.55-7.79 4.71-11.74 7-1.16.67-2.56 1.04-3.53 1.91-8.86 8.02-17.66 16.13-27.18 24.86 8.35 4.73 16.16 9.21 24.03 13.58 4.29 2.38 8.91 4.24 12.99 6.93 8.39 5.53 9.83 16.56 5.92 24.13-3.53 6.83-4.23 14.34-4.49 21.84-.23 6.82-.1 13.65.06 20.48.35 14.91-3.58 28.3-12.42 40.53-16.35 22.58-36.69 39.96-62.89 49.98-15.02 5.74-30.76 7.78-46.49 4.91-8.01-1.46-16.05-5.11-22.97-9.51-5.26-3.35-8.98-9.27-13-14.35-12.63-15.95-21.46-33.7-24.7-53.98-.21-1.31-.39-2.66-.35-3.98.3-12.31.64-24.61 1-36.91.16-5.42-2.24-9.94-4.94-14.36-2.51-4.11-5.05-8.19-4.24-13.75 1.62.32 3.1.56 4.56.92 4.45 1.09 8.83 2.77 13.34 3.23 8.9.9 14.6 6.65 20.42 12.35.72.71 1.1 1.9 1.35 2.94 1.43 6.19 2.78 12.4 4.21 18.84 4.74 0 9.31.05 13.88-.05.79-.02 1.69-.55 2.31-1.1 2.18-1.92 4.21-4.02 6.4-5.93 5.94-5.17 4.8-12.65.59-18.81-2.64-3.86-5.83-7.38-8.95-10.88-.86-.96-2.34-1.81-3.6-1.91-22.64-1.72-45.28-3.43-67.94-4.87-4.54-.29-8.02-1.49-10.75-5.31-2.2-3.08-5.07-5.67-7.5-8.59-4.75-5.71-10-10.83-16.18-15-4.27-2.87-6.62-7.07-7.88-12.1 3.85-1.61 7.4-1.05 10.91.34 1.24.49 2.5 1.03 3.61 1.76 15.08 9.95 32.27 13.37 49.69 16.03 12.06 1.84 24.14 3.62 36.39 2.05 4.91-.63 9.65-1.79 13.88-5.34-2.3-2.97-4.52-5.87-6.78-8.75-10-12.77-20.09-25.48-29.98-38.35-2.99-3.89-5.39-8.23-8.21-12.26-.58-.82-1.93-1.71-2.81-1.61-8.39 1.04-17.05 1.04-24.58 5.7-5.7 3.53-11.54 6.87-16.97 10.78-7.88 5.67-16.68 6.89-24.7 2.47-8.78-4.84-16.47-11.68-24.42-17.93-1.47-1.16-1.91-3.63-3.09-6.03 6.33-.87 12.02-2.08 17.76-2.35 13.79-.66 26.34-5.5 38.9-10.57 13.47-5.43 27.14-10.38 40.56-15.93 5-2.06 9.69-.24 14.52-.36 2.05-.05 4.36.03 6.11-.84 16.19-8.01 33.95-10.23 51.27-13.92 18.57-3.95 37.25-7.46 55.97-10.62 13.77-2.32 27.67-1.24 41.48.34 2.41.28 4.82 1.04 7.08 1.95 7.67 3.09 10.29 9.28 7.23 16.91-.29.73-1.14 1.32-1.86 1.77-8.43 5.3-17.35 8.25-27.6 7.6-11.38-.73-22.82-.46-33.87 3.23-3.65 1.22-6.92 2.8-8.1 6.77-.28.95-.05 2.66.61 3.21 9.39 7.76 9.92 18 7.22 28.48-1.56 6.05-5.03 11.62-7.73 17.37-1.77 3.78-1.48 6.29 1.31 7.93.61.36 1.85.5 2.31.13 8.63-6.91 17.91-13.21 25.5-21.14 5.24-5.48 8.12-13.22 12.05-19.95.35-.57.63-1.17 1.16-2.17zm-89.13 97.29c5.96 6.7 11.75 13.08 17.37 19.61 1.56 1.82 3.17 2.38 5.5 2.21 10.15-.72 20.35-.95 30.46-2.01 5.64-.59 9.9.56 13.34 5.16 1.59 2.13 3.88 3.72 5.6 5.78 1.18 1.41 2.3 3.08 2.78 4.82 2.03 7.43.09 13.92-5.28 19.39-3.91 3.98-11.87 3.36-15.08-1.12-1.95-2.73-3.87-5.49-5.93-8.14-.55-.7-1.6-1.58-2.31-1.5-4.28.5-8.54 1.26-12.11 1.83 0 15.01.12 29.54-.06 44.08-.06 5.22-.73 10.44-1.31 15.63-.35 3.13-1.09 6.23-1.71 9.66 1.04-.25 1.48-.31 1.88-.47 16.2-6.25 28.43-17.55 38.79-31.04 5.92-7.72 9.24-16.34 7.87-26.46-1.19-8.84.52-17.29 4.79-25.23.69-1.28.64-3.28.25-4.77-2.58-9.95-5.32-19.86-8.07-29.77-1.79-6.45-3.48-12.94-5.58-19.29-1.24-3.76-3.65-6.84-7.83-8.37-2.54 2.94-5.17 5.71-7.48 8.71-4.81 6.27-10.82 10.65-18.6 12.35-4.47.98-8.95 2.01-13.48 2.53-8.14.93-16.13 2.31-23.8 6.41zm-38.14-99.83c2.98 9.42 6.9 17.75 13.14 24.85 5.46 6.22 11.14 12.32 14.22 20.17 1.02 2.6 2.53 2.99 4.92 2.46 5.91-1.32 8.85-5.73 11.12-10.73 2.4-5.28 3.75-11.27 7.06-15.86 5.16-7.18 4.56-13.89 1.68-21.46-1.92-5.05-5.13-8.03-10.3-7.98-4.28.04-8.59 1.01-12.8 1.92-9.6 2.06-19.14 4.35-29.04 6.63zm32.65 160.88c-1.7.74-2.61 1.11-3.49 1.54-9.13 4.46-18.2 9.05-27.43 13.32-2.63 1.21-3.44 2.91-3.9 5.52-2.7 15.33 5.34 26.85 13.4 38.39.24.35.65.62 1.04.81 5.97 2.89 12.05 3.98 18.42 1.22 2-.87 3.14-2.11 3.54-4.4 2.58-14.85 3.56-29.76 1.69-44.74-.49-3.88-2.1-7.6-3.27-11.66z" fill="#010105"/><path d="m101.19 49.33c7.58-.58 15.15-1.2 22.73-1.73 14.54-1.02 28.33-5.18 41.83-10.3 13.2-5.01 26.47-9.68 40.58-11.26 4.84-.54 9.79-.66 14.66-.35 10.04.64 20.09 1.41 30.07 2.65 9.1 1.13 11.98 6.56 9.37 15.31-1.92 6.44-6.63 9.62-12.47 10.77-7.75 1.53-15.69 2.06-23.56 3.01-11.54 1.39-23.06 3.07-34.63 4.09-22.42 1.96-44.89 3.43-67.14-1.64-5.43-1.23-10.78-2.95-15.98-4.95-2.29-.88-4.09-3-6.12-4.56.22-.33.44-.69.66-1.04z" fill="#010105"/><g fill="#fcfbfa"><path d="m377.9 391.2c-.2.3-.4.5-.6.8-.7-.6-1.4-1-2.2-1.5.2-.3.4-.5.5-.8.6.4 1.4.8 2.3 1.5zm-1.8 6.1c-.2-.2-.5-.4-.9-.6.4-.6.8-1.2 1.2-1.9s.7-1.3.9-1.9c.3.3.5.5.8.7-.7 1.3-1.4 2.6-2 3.7zm2.2-9c-.3.3-.5.5-.6.8-.6-.6-1.3-1.1-2-1.5.3-.3.5-.5.6-.7.6.5 1.3.9 2 1.4zm.3.2v-.9h2 4.5c-.3 1.3-.6 2.5-1 3.6s-.9 2.1-1.4 3c.4.5 1 1 1.6 1.4s1.2.8 1.9 1.1c-.3.2-.5.4-.8.8-.4-.3-1-.7-1.6-1.2s-1.2-1.1-1.6-1.6c-.5.6-1.1 1.1-1.7 1.6s-1.4.9-2.1 1.4c-.1-.3-.3-.5-.7-.8.6-.2 1.2-.5 1.9-1s1.4-1.1 2-1.8c-.5-.8-.9-1.6-1.2-2.5s-.6-2-.8-3.2c-.4.1-.7.1-1 .1zm2.5 2.7c.3 1 .7 1.7 1 2.2.3-.5.6-1.1 1-2s.6-1.9.9-3h-3.2-.4c.1.9.3 1.8.7 2.8z"/><path d="m396.5 388.5v1.5 3.6h1.5v.9c-.4 0-1 0-1.7 0h-7.9c-.5 0-.9 0-1.2 0v-.9h1.3v-3.5c0-.7 0-1.2 0-1.6h2.4c0-.8 0-1.4 0-1.7h1c0 .3-.1.8-.1 1.7h1.5c0-.8 0-1.4 0-1.7h1c0 .3-.1.9-.1 1.7zm-8.2 9.2c-.2-.3-.5-.5-.8-.8.8-.3 1.4-.6 1.9-.9s1-.7 1.4-1.1c.3.3.6.5.9.8-1.6 1-2.8 1.6-3.4 2zm2.6-6.8v-1.6h-1.5v1.6zm0 2.7v-1.9h-1.5v1.9zm2.4-2.7v-1.6h-1.5v1.6zm0 2.7v-1.9h-1.5v1.9zm.2 2 .7-.8c.4.2.9.5 1.6.8s1.3.7 1.8 1c-.3.3-.5.5-.8.8-.4-.3-1.5-1-3.3-1.8zm2-4.7v-1.6h-1.4v1.6zm0 2.7v-1.9h-1.4v1.9z"/></g></svg>