<svg enable-background="new 0 0 400 400" viewBox="0 0 400 400" xmlns="http://www.w3.org/2000/svg"><path d="m6.8 9.5c.6.3 1.3.7 2.1 1.1-.4.4-.7.8-.9 1.2-.7-.4-1.3-.8-1.8-1.1s-1.1-.6-1.6-.8c.2-.4.5-.8.7-1.2.4.2.8.5 1.5.8zm.9 6.9c-.3.6-.5 1.1-.7 1.7s-.4 1.1-.6 1.7c-.6-.4-1.1-.7-1.6-1 .7-1 1.2-1.8 1.5-2.4.3-.5.6-1.1.8-1.7.3-.6.5-1.2.8-1.8.3.3.8.6 1.3.8-.7 1.3-1.2 2.2-1.5 2.7zm.1-11c.4.3 1 .7 1.7 1.1-.5.2-.8.6-1.1 1.1-.5-.6-1-1-1.4-1.2s-.9-.6-1.5-.8c.2-.4.5-.7.9-1.1.5.3.9.6 1.4.9zm10.5 13.1c1 .4 2 .6 3.1.7-.4.4-.7.8-.8 1.3-.9-.2-1.9-.6-3-.9-1-.4-2-.9-2.8-1.6-.5.4-1.1.9-1.9 1.3s-1.9.9-3.3 1.2c-.1-.3-.5-.8-1.1-1.3 1 0 2.1-.3 3.2-.8 1.2-.5 1.9-1 2.3-1.7h-3.2c-.4 0-1 0-2 .1v-1.2c1 0 1.7.1 2 .1h3.3v-1h-2.3c-.2 0-.9 0-2 .1v-1.2c1.2 0 1.9.1 2 .1h2.3v-.8h-4.1c0-.7.1-1.2.1-1.6 0-.5 0-1.1-.1-1.8h4.1v-.7h-2.5c0-.6.1-1.1.1-1.6v-.6h-.5c-.4 0-1 0-1.8.1v-1.3c1.2 0 1.9.1 2.1.1h.2c0-.3 0-.8-.1-1.4h1.4c0 .6-.1 1-.1 1.4h3.4c0-.4 0-.8-.1-1.3h1.5c0 .4-.1.9-.1 1.3.7 0 1.5 0 2.5-.1v1.2c-1 0-1.8-.1-2.5-.1v.6c0 .3 0 .8.1 1.5h-2.5v.8h4.1c0 .7-.1 1.3-.1 1.8s0 1 .1 1.5h-4.1v.8h1.4c.8 0 1.8 0 2.9-.1v1.2c-1 0-1.9-.1-2.8-.1h-1.5v1h3.2c.3 0 1 0 2.1-.1v1.2c-1.1 0-1.8-.1-2.1-.1h-3.4l-.1.1c1.4 1 2.4 1.5 3.4 1.9zm-4.1-6.7v-1.3h-2.7v1.3zm2.2-4.1v-1.1h-3.4v1.1zm1.9 4.1v-1.3h-2.8v1.3z" fill="#fafbfa"/><path d="m37 6.7v2.3 5.4c1 0 1.8 0 2.2-.1v1.3c-.6 0-1.5-.1-2.5-.1h-11.9c-.7 0-1.3 0-1.8.1v-1.3c.5 0 1.1.1 2 .1v-5.2c0-1 0-1.8-.1-2.5h3.7c0-1.3 0-2.1-.1-2.5h1.5c0 .4-.1 1.3-.1 2.5h2.2c0-1.2 0-2.1-.1-2.6h1.5c0 .4-.1 1.3-.1 2.6zm-12.3 13.7c-.3-.4-.7-.8-1.1-1.1 1.1-.4 2.1-.9 2.9-1.3.8-.5 1.5-1 2.1-1.6.4.4.9.8 1.3 1.1-2.5 1.4-4.2 2.4-5.2 2.9zm3.9-10.1v-2.4h-2.2v2.4zm0 4.1v-2.9h-2.2v2.9zm3.5-4.1v-2.4h-2.2v2.4zm0 4.1v-2.9h-2.2v2.9zm.4 2.9 1-1.1c.6.3 1.4.7 2.5 1.3s2 1.1 2.7 1.5c-.4.4-.8.8-1.1 1.3-.8-.8-2.5-1.7-5.1-3zm3.1-7v-2.4h-2.1v2.4zm0 4.1v-2.9h-2.1v2.9z" fill="#fafbfa"/><g fill="#010103"><path d="m148.98 80.98c5.24-1.74 5.11-1.57 7.37 2.75 6.76 12.95 16 23.16 30.86 26.84 1.08.27 2.28.66 3.29.43 1.2-.27 2.68-.91 3.25-1.86.45-.74.1-2.54-.56-3.3-4.49-5.14-9.01-10.27-13.82-15.12-2.82-2.85-4.85-5.97-4.86-9.92-.02-8.49-5.11-12.73-12.17-15.76-4.09-1.75-8.28-3.65-9.35-8.82 3.86-2.68 7.77-4.14 12.74-3.89 23.9 1.23 47.83 2.03 71.75 2.98 5.71.23 8.31 2.02 10.21 7.35-2.37.62-4.68 1.45-7.06 1.79-3.22.47-5.73 1.85-7.33 4.65-5.11 8.89-10.21 17.8-15.21 26.76-.78 1.41-1 3.13-1.5 4.77 3.18 2.09 6.29 2.26 9.41.76 6.77-3.25 13.53-6.5 16.65-14.16.56-1.37 2.22-2.3 3.37-3.43.32.12.64.24.96.37-.26 4.37-.41 8.74-.89 13.08-.09.76-1.56 1.46-2.49 2.02-12.55 7.56-25.09 15.14-37.7 22.6-1.95 1.16-2.94 2.39-2.71 4.74.22 2.33-.03 4.7.06 7.05.75 20.18-1.22 40.21-2.78 60.29-1.95 24.93-2.22 49.85 4.41 74.36.72 2.66-.84 5.88-.96 8.85-.07 1.72.19 3.74 1.05 5.18 5.49 9.15 12.13 17.18 20.55 24.03 13.4 10.91 18.64 26.08 19.52 42.95.05 1.01-.21 2.35-.86 3.04-7.44 7.94-15.27 15.41-25.2 20.31-5.98 2.95-12.33 3.14-18.7 2.74-5.8-.37-11.55-1.3-17.33-1.94-12.23-1.36-21.91-8.61-32.36-14.06-.82-.43-1.33-1.73-1.7-2.73-2.74-7.25-2.45-14.47.46-21.59 1.61-3.93 3.34-7.81 5.12-11.67 3.17-6.84 7.17-13.01 12.85-18.18 6.7-6.1 12.63-13.04 19.38-19.08 6.22-5.55 7.4-12.43 7.01-20.03-.14-2.68-.84-5.35-.78-8.01.14-6-.11-12.14 1.14-17.94 1.33-6.16 1.53-12.2.93-18.3-1.6-16.25-.44-32.36 1.23-48.54.89-8.64.31-17.44.35-26.17.03-6.27-.13-12.54.07-18.81.08-2.42-.8-3.6-2.89-4.5-8.72-3.76-17.19-8.21-26.13-11.31-10.4-3.61-15.35-10.97-17.3-21.08-.71-3.48-.93-7.05-1.35-10.49zm44.34 213.33c-9.29 4.36-17.1 9.34-22.45 17.52-1.64 2.51-3.68 4.79-5.72 7.01-3.7 4.03-6.62 8.28-6.58 14.11.01 2.06-.87 4.14-1.36 6.2-1.67 7.07 1.15 13.41 7.5 16.79 1.38.73 2.79 1.42 4.2 2.09 21.38 10.19 42.25 10.07 62.39-3.23 1.33-.88 2.58-2.5 3.03-4.02 2.87-9.7 1.14-18.48-6.45-25.45-11.43-10.5-23.1-20.76-34.56-31.02zm35.05-230.23c-5.03-4.26-11.69-3.77-17.99-3.85-5.15-.07-10.31 1.12-15.46 1.73-4.4.53-8.8.96-13.18 1.59-2.04.29-2.54 1.78-2.39 3.72.39 4.95 2.09 9.46 5.25 13.17 4.92 5.77 10.14 11.29 15.41 16.74.7.73 2.62.93 3.68.56 5.71-2.01 9.88-5.85 12.71-11.24 3.87-7.38 7.84-14.71 11.97-22.42z"/><path d="m176.9 29.21c14.69-2.65 29.16-5.53 43.97-2.22 4.71 1.05 7.23 2.37 9.91 6.16-4.88.62-9.41 1.52-13.97 1.7-11.6.46-23.2.72-34.81.82-5.71.05-5.84-.34-5.1-6.46z"/><path d="m197.14 355.58c-5.36-1.43-10.72-2.81-16.06-4.32-.78-.22-1.75-.86-2.04-1.55-2.07-4.91-4.04-9.85-5.91-14.84-.64-1.69.02-2.96 1.85-3.66 1.35-.51 2.71-1.17 3.84-2.05 6.9-5.4 14.75-4.99 22.71-3.79 3.09.47 6.16 1.15 9.16 1.98 6 1.67 8.55 5.79 8.41 12.04-.2 8.96-6.04 12.14-15.09 14.76-2.11.61-4.42.58-6.63.84-.08.2-.16.39-.24.59zm-15.44-19.41c1 6.16 4.88 8.55 10.42 9.27 4.43.57 8.86 1.86 13.19-.12 1.61-.74 4.27-2.26 4.15-3.09-.31-2.12-1.7-4.21-3.09-5.98-.72-.92-2.3-1.38-3.57-1.6-3.52-.61-7.19-.6-10.59-1.55-4.4-1.22-7.57.4-10.51 3.07z"/></g></svg>