<svg enable-background="new 0 0 400 400" viewBox="0 0 400 400" xmlns="http://www.w3.org/2000/svg"><g fill="#010000"><path d="m133.38 231.73c8.83 4.41 5.65 14.3 10.72 20.66.8-1.72 1.58-3.23 2.21-4.81 1.16-2.85 3.24-3.73 5.78-2 5.09 3.47 10.61 4 16.37 2.59 23.43-5.73 47.53-7.1 71.23-11.02 7.89-1.3 15.09.83 22.48 2.28 6.69 1.32 13.27 2.52 20.2 1.88 8.8-.82 16.53 1.39 20.94 10.9 2.17-2.29 3.94-4.24 5.8-6.11 1.33-1.35 2.64-2.79 4.19-3.85 4.42-3.02 6.27-2.5 8.56 2.12 1.94 3.91 3.72 7.9 5.82 11.71 2.57 4.67 2.45 9.41.99 14.29-1.25 4.17-2.5 8.33-3.77 12.49-.19.63-.46 1.26-.83 1.8-4.78 7.15-9.78 14.16-14.31 21.46-4.55 7.33-11.34 12.28-17.63 17.81-1.44 1.26-2.68 2.99-3.43 4.75-2.63 6.17-5.24 12.36-7.38 18.71-1.42 4.21-4.6 6.53-8.25 7-9.96 1.28-17.19 7.08-24.25 13.31-1.94 1.71-3.89 2.45-6.37 1.97-.43-.08-.91.04-1.34-.07-6.42-1.66-11.75 1.13-17.56 3.34-5.01 1.9-10.89 1.56-16.39 2.03-.63.05-1.42-.96-2.03-1.59-3.12-3.22-6.3-6.38-9.26-9.74-2.02-2.29-4.36-3.25-7.15-2.23-8.26 3-11.7-1.79-13.73-8.39-.99-3.23-2.54-5.24-6.02-6.38-5.34-1.75-6.79 1.8-8.62 5.79-2.17-3.2-4.54-2.39-7.1-1.24-1.05.47-2.4.27-3.61.38.36-1.2.69-2.42 1.11-3.6.18-.52.54-.97.96-1.7-.72-.63-1.4-1.34-2.18-1.9-20.75-14.89-29.12-35.37-27.88-60.51.67-13.48 2.28-26.78 5.95-39.73 1.21-4.3 3.79-8.23 5.78-12.4zm3.25 79.83c4.08 2.31 8.02 4.64 12.05 6.78 1.6.85 2.26 1.84 2.15 3.67-.16 2.65-.04 5.32-.04 8.34 3.5-.59 6.66-.8 9.6-1.7 4.63-1.42 7.8.71 10.62 3.77 1.34 1.45 2.43 3.22 3.32 4.99 1.87 3.75 4.27 6.87 8.55 7.9 5.52 1.32 11.1 2.39 16.59 3.81 2.58.67 4.24.21 5.47-2.21 3.4-6.69 9.12-10.11 16.32-11.39 10.01-1.79 19.99-3.9 30.06-5.25 5.92-.79 10.85-2.66 13.91-7.84 1.9-3.22 3.15-6.81 4.81-10.48-5.58 0-10.39.93-14.64-.21-6.8-1.83-13.44-1.93-20.25-1.09-4.89.6-8.98-.93-12.62-4.17-1.21-1.07-2.68-2.02-4.2-2.54-9.88-3.39-18.69-1.24-26.6 5.37-.98.82-2.22 1.94-3.31 1.91-3.55-.08-7.17-.3-9.75-3.44-1.2-1.46-2.65-2.73-4.07-4-3.2-2.88-6.76-4.16-11.1-2.68-2.42.83-4.98 1.25-7.48 1.87-4.68 1.15-9.07.84-13.01-2.32-.59-.47-1.72-.79-2.39-.56-3.56 1.23-7.05 2.66-10.93 4.17.77 1.31 1.29 3.13 2 3.21 2.24.26 4.55-.13 7.05-.28-.7 1.44-1.36 2.81-2.11 4.37zm16.6-23.72c.02.39.04.77.05 1.16 1.29-.11 2.63-.06 3.87-.37 9.78-2.44 19.52-4.29 29.76-3.06 9.39 1.13 18.92 1.94 28.13-1.68.98-.38 2.22-.13 3.33-.11 22.35.37 44.71.64 67.06 1.2 4.35.11 7.29-2.39 10.7-4.14.4-.21.81-.89.79-1.34-.14-4.55-.36-9.09-.61-14.54-8.32 0-16.24.02-24.16 0-24.27-.07-48.54-.01-72.81-.31-7.55-.09-15.12-.97-22.63-1.87-6.51-.78-12.87 2.43-15.26 8.58-1.9 4.9-5.18 9.49-3.38 15.17-1.89.51-3.37.91-4.84 1.31zm113.82 10.75c.32 3.35.63 6.49.93 9.68 4.69-1.18 4.85-1.54 4.61-5.84-.2-3.53-2.62-3.58-5.54-3.84zm-46.7 49.56c-5.78 3.11-5.78 3.11-4.17 6.9 2.46-1.15 4.9-2.3 7.91-3.71-1.47-1.25-2.54-2.16-3.74-3.19z"/><path d="m74.26 209.99c5.96-3.32 11.61-6.75 17.53-9.62 2.19-1.06 5.01-.96 7.55-1.08 29.3-1.37 57.69-8.54 86.43-13.49 2.16-.37 4.31-.81 7.08-1.33-3.68-3.43-7.43-5.53-11.7-6.38-14.94-2.99-28.28-9.66-41.07-17.6-2.08-1.29-3.89-3-5.92-4.39-4.24-2.89-8.53-5.69-12.81-8.53-1.49-.98-3.13-1.78-4.46-2.94-3.67-3.2-3.63-4.31-.81-8.15 1.3-1.77 2.37-3.78 3.17-5.82 1.57-4.03 8.9-8.01 12.83-6.36 7.91 3.32 16.21 3.83 24.6 4.19 1.5.06 3.25.76 4.41 1.74 10.69 9.03 21.2 18.28 31.93 27.25 3.09 2.59 4.99 5.59 5.78 9.82-.97-.28-1.82-.52-2.99-.86.27 1.29.49 2.34.78 3.75 1.02-.64 1.79-1.12 2.87-1.8 1.45 3.88 2.8 7.51 4.17 11.14 1.37 3.65 2.82 4.58 6.33 2.75 4.22-2.2 8.47-4.66 11.99-7.82 8.47-7.62 16.52-15.71 25.01-23.87 1.16 1.76 2.18 3.31 3.56 5.4 1.02-2.37 1.84-4.3 2.74-6.39-1.46-.66-2.66-1.2-4.34-1.96 6.37-5.59 13.33-9.41 21.05-12.15 7.94-2.82 15.51-.96 22.97 1.37 4.9 1.53 7.58 8.34 6.86 13.47-1.05 7.48-6.88 10.44-12.28 13.54-5.59 3.21-11.8 5.35-17.52 8.36-3.81 2.01-7.24 4.74-10.84 7.15.04.44.09.87.13 1.31 6.18 1.12 12.33 2.73 18.56 3.27 12.25 1.07 24.55 1.57 36.84 2.23 1.16.06 2.5-.12 3.51-.66 7.14-3.83 13.69-3.03 19.48 2.54.65.62 1.27 1.26 1.9 1.9 4.66 4.66 5.39 8.42 2.51 14.42-.47.97-1.65 1.75-2.68 2.27-10.17 5.17-21.16 7.21-32.38 7.74-21.39 1.01-42.69-.33-63.93-3.12-5.23-.69-10.69.17-16.02.62-16.05 1.37-32.09 2.92-48.14 4.3-2.09.18-4.25-.05-6.34-.35-9.83-1.41-19.53-.42-29.36.5-15.79 1.47-31.72 1.52-47.53 2.84-7.77.65-13.93-1.3-19.04-7.03-.67-.74-1.48-1.34-2.41-2.17zm168.77-32.26c-2.14-1.77-4.16-3.44-6.1-5.05-4.95 3.86-4.95 3.86-8.71.9-.6.54-1.22 1.1-2.09 1.88 2.41 1.67 4.59 3.17 6.76 4.68 4.93 3.39 6.44 3.08 10.14-2.41zm-63.72-27.7v6.51c2.9-.73 2.9-.73 0-6.51z"/><path d="m345.54 114.54c-16.35 2.92-32.45 5.31-49.09 3.74-19.46-1.84-39.04-3.12-58.63-1.76-4.21.29-8.38 1.31-12.56 2.04-8.46 1.48-17.1 1.05-24.8-2.08-4.98-2.02-8.02-1.83-12.62.48-3.43 1.72-8.32 1.22-12.45.72-14.68-1.77-29.27-.05-43.9.44-23.81.8-47.63 1.53-71.44 2.22-4.35.13-11.71-6.48-12.11-10.82-.08-.87.69-2.37 1.44-2.68 15.38-6.33 30.32-14.25 47.25-15.55 10.56-.81 21.21-.56 31.82-.41 10.06.14 20.12.95 30.18 1.03 3.08.02 6.34-1.02 9.23-2.27 3.47-1.49 6.85-2.4 10.65-2.23 26.04 1.16 52.08 2.17 78.12 3.33 14.19.63 28.38 1.46 42.56 2.2.56.03 1.41-.11 1.62.19 2.5 3.64 5.48 1.02 8.33.8 10.36-.81 20.04 1.54 28.72 7.21 4.69 3.07 7.28 7.7 7.68 13.4zm-141.48-12.15c-2.76-1.11-4.81-1.66-6.35 1.46-1.91 3.88-1.57 5.65 2.47 8.88 5.25-2.11.42-7.55 3.88-10.34z"/><path d="m109.1 46.09c10.06-8.01 21.59-11.99 33.94-13.71 17.61-2.46 35.22-4.99 52.9-6.79 7.62-.78 15.43-.1 23.12.45 9.8.71 19.61 1.64 29.32 3.1 7.78 1.17 14.79 4.24 19.3 11.39 1.48 2.34 3.52 4.32 5.57 6.79-6.92 4.63-13.81 8.7-22.33 7.78-20.78-2.24-41.59-.85-62.38-.55-9.17.13-18.36.13-27.51.77-5.53.39-10.95 2.25-16.48 2.79-5.42.52-10.93.51-16.37.17-8.32-.53-14.09-5.53-19.08-12.19zm95.67-18.71v4.45c1.7-.63 3.18-1.19 5.38-2.01-2.06-.94-3.49-1.59-5.38-2.44z"/></g><path d="m361.2 9.6.8-1c.9.7 1.9 1.4 2.9 2.3l-.9 1.1c-1-1-2-1.8-2.8-2.4zm.5 10.6c.9-2.1 1.6-4.3 2.3-6.7.4.2.8.4 1.3.6-.7 2.1-1.5 4.3-2.2 6.6zm.4-15.2.9-.9c1 .8 2 1.6 2.8 2.4l-1 1c-.9-.9-1.8-1.7-2.7-2.5zm12.5-1.2h1.2v1.4h2.7v1.1h-2.7v2.7h-1.2v-.6h-1.8v1.3h4.9v3.8h-1.2v-.5h-3.7c0 .4-.1.9-.1 1.2h5.1v1h-5.2c0 .5-.1.9-.2 1.2h6v1h-5.2c1.1 1.3 2.9 2 5.5 2.2-.4.4-.7.8-.9 1.3-2.9-.5-4.8-1.6-5.7-3.5h-.1c-.8 1.7-2.7 2.9-5.9 3.6-.2-.4-.6-.8-.9-1.1 2.8-.6 4.6-1.4 5.4-2.5h-4.8v-1h5.3c.1-.3.2-.7.2-1.2h-4.9v-1h5c0-.4 0-.8.1-1.2h-3.5v.5h-1.2v-3.8h4.9v-1.3h-1.8v.5h-1.2v-2.7h-2.7v-1h2.6v-1.4h1.2v1.4h4.7v-1.4zm-6.6 8.3h3.6c0-.4 0-.9 0-1.4h-3.6zm1.9-4.6h4.7v-1.3h-4.7zm6.6 3.2h-3.7v1.4h3.7z" fill="#fbfcfa"/><path d="m385.3 3.8h1.3v2.2h2.8v-2.2h1.3v2.2h4.1v9.1h1.7v1.3h-16.9v-1.3h1.7v-9.1h4.1v-2.2zm.4 13.1.7 1.2c-1.8.9-3.8 1.9-6 2.9-.2-.4-.5-.8-.8-1.3 2.3-1 4.3-1.9 6.1-2.8zm-3.1-6.4h2.8v-3.2h-2.8zm0 4.6h2.8v-3.3h-2.8zm4-4.6h2.8v-3.2h-2.8zm0 4.6h2.8v-3.3h-2.8zm3.7 1.9c2.1.9 4.1 1.8 6.1 2.7l-.7 1.3c-2.2-1.1-4.2-2-6.1-2.9zm3.2-9.7h-2.8v3.2h2.8zm-2.8 7.8h2.8v-3.3h-2.8z" fill="#fbfcfa"/></svg>