<svg enable-background="new 0 0 400 400" viewBox="0 0 400 400" xmlns="http://www.w3.org/2000/svg"><path d="m22.55 298.09c2.39-2.37 4.34-2.42 6.92-.2 5.21 4.5 11.55 6.79 18.35 7.53 16.67 1.8 33.34 3.66 50.04 5.09 15.57 1.33 31.08-.12 46.47-2.44 18.01-2.72 35.91-6.12 53.91-8.91 9.83-1.52 19.78-2.18 29.63-3.59 6.89-.99 13.32-3.5 19.65-7.63-11.04-4.02-21.6-7.88-32.16-11.72-21.1-7.68-42.2-15.35-63.3-23.05-1.14-.42-2.37-.87-3.25-1.65-11.64-10.27-25.57-16.28-39.91-21.51-7.24-2.64-14.54-5.13-21.86-7.55-5.52-1.83-10.56-4.53-14.46-8.8-11.17-12.22-22.15-24.63-33.19-36.97-.21-.24-.31-.57-.54-1.01 4.77-2.3 9.68-2.23 14.32-.41 7.06 2.78 14.02 5.85 20.8 9.24 28.19 14.08 56.25 28.41 84.45 42.47 9.82 4.89 20 8.98 30.98 10.53 2.86.4 5.8.49 8.69.42 1.08-.03 2.35-.7 3.17-1.47 18.52-17.28 34.63-36.59 47.26-58.55 9.78-17 12.36-35.49 8.86-54.8-.24-1.32-.47-2.64-.67-3.97-.03-.19.13-.4.33-.93 11.55 5.12 22.84 10.55 26.18 24.21.99 4.06.72 8.75-.15 12.9-3.4 16.22-9.9 31.27-18.36 45.48-.67 1.13-1.66 2.1-2.62 3.02-14.53 13.95-29.07 27.89-43.63 41.81-.64.61-1.42 1.09-3.11 2.36 4.81 2.59 8.57 5.3 12.76 6.74 14.78 5.08 29.72 9.66 44.56 14.54 13.75 4.52 26.83 2.05 39.29-4.14 13.91-6.9 27.5-14.46 41.31-21.58 1.52-.78 3.62-.95 5.35-.7 3.19.46 6.31 1.43 9.46 2.19 3.87.94 6.03 4.26 4.73 8-.74 2.13-1.93 4.58-3.67 5.8-17.15 11.96-34.2 24.09-51.78 35.39-20.65 13.28-43.87 20.48-67.52 26.18-12.16 2.93-24.54 4.91-36.76 7.59-6.21 1.36-12.39 3.01-18.39 5.07-9.4 3.23-18.99 5.06-28.9 4.75-14.74-.47-29.16 2.51-43.73 3.81-16.94 1.51-33.87 3.23-50.85.38-7.41-1.24-14.07-3.59-19.55-9.25-4.65-4.8-10.19-8.73-15.25-13.14-6.73-5.83-11.65-12.85-13.86-21.53z" fill="#010105"/><path d="m79.27 102.43c14.54-6.68 28.79-13.11 42.93-19.76 10.51-4.94 20.69-10.64 31.39-15.1 13.07-5.45 26.93-8.65 41.07-9.1 10.95-.35 22.19-.65 32.42 4.95 8.34 4.56 11.62 10.28 10.73 19.71-.39 4.11-.86 8.23-1.53 12.3-1.59 9.69-5.18 18.11-12.92 24.93-7.96 7-15.12 14.95-22.29 22.79-5.3 5.8-11.27 10.44-18.51 13.48-3.86 1.62-6.31 4.48-7.25 8.62-.48 2.11-.18 3.46 2.14 4.39 7.89 3.14 15.69 6.49 23.51 9.8 2.57 1.09 5.18 2.13 7.6 3.49 1.82 1.03 3.52 2.4 5.02 3.88 3.15 3.11 5.28 7.54 3.36 11.17-1.26 2.39-5.91 3.4-9.24 4.16-2.37.54-5.08-.21-7.61-.62-4.63-.76-9.24-1.63-13.83-2.58-1.27-.26-2.55-.8-3.67-1.47-12.65-7.6-25.38-15.08-37.87-22.94-10.23-6.43-18.88-14.72-26-24.49-4.81-6.59-9.63-13.22-13.8-20.22-4.01-6.74-9.47-11.49-16.4-14.78-5.47-2.58-8.96-6.53-9.25-12.61zm74.12 50.29c6.53-.88 11.62-3.56 15.88-7.73 4.72-4.61 9.12-9.54 13.72-14.27 8.75-9 14.91-19.56 18.29-31.58.98-3.49 1.14-7.55.44-11.11-.89-4.48-4.52-6.35-8.9-5.05-6.4 1.9-12.95 3.69-18.92 6.59-17.28 8.36-34.26 17.21-43.13 35.89-2.58 5.43-2.95 7.79.81 12.6 1.36 1.73 3.11 3.2 4.86 4.56 2.82 2.2 5.66 4.4 8.72 6.24 2.58 1.56 5.47 2.6 8.23 3.86z" fill="#010105"/><g fill="#fcfbfa"><path d="m377.9 391.2c-.2.3-.4.5-.6.8-.7-.6-1.4-1-2.2-1.5.2-.3.4-.5.5-.8.6.4 1.4.8 2.3 1.5zm-1.8 6.1c-.2-.2-.5-.4-.9-.6.4-.6.8-1.2 1.2-1.9s.7-1.3.9-1.9c.3.3.5.5.8.7-.7 1.3-1.4 2.6-2 3.7zm2.2-9c-.3.3-.5.5-.6.8-.6-.6-1.3-1.1-2-1.5.3-.3.5-.5.6-.7.6.5 1.3.9 2 1.4zm.3.2v-.9h2 4.5c-.3 1.3-.6 2.5-1 3.6s-.9 2.1-1.4 3c.4.5 1 1 1.6 1.4s1.2.8 1.9 1.1c-.3.2-.5.4-.8.8-.4-.3-1-.7-1.6-1.2s-1.2-1.1-1.6-1.6c-.5.6-1.1 1.1-1.7 1.6s-1.4.9-2.1 1.4c-.1-.3-.3-.5-.7-.8.6-.2 1.2-.5 1.9-1s1.4-1.1 2-1.8c-.5-.8-.9-1.6-1.2-2.5s-.6-2-.8-3.2c-.4.1-.7.1-1 .1zm2.5 2.7c.3 1 .7 1.7 1 2.2.3-.5.6-1.1 1-2s.6-1.9.9-3h-3.2-.4c.1.9.3 1.8.7 2.8z"/><path d="m396.5 388.5v1.5 3.6h1.5v.9c-.4 0-1 0-1.7 0h-7.9c-.5 0-.9 0-1.2 0v-.9h1.3v-3.5c0-.7 0-1.2 0-1.6h2.4c0-.8 0-1.4 0-1.7h1c0 .3-.1.8-.1 1.7h1.5c0-.8 0-1.4 0-1.7h1c0 .3-.1.9-.1 1.7zm-8.2 9.2c-.2-.3-.5-.5-.8-.8.8-.3 1.4-.6 1.9-.9s1-.7 1.4-1.1c.3.3.6.5.9.8-1.6 1-2.8 1.6-3.4 2zm2.6-6.8v-1.6h-1.5v1.6zm0 2.7v-1.9h-1.5v1.9zm2.4-2.7v-1.6h-1.5v1.6zm0 2.7v-1.9h-1.5v1.9zm.2 2 .7-.8c.4.2.9.5 1.6.8s1.3.7 1.8 1c-.3.3-.5.5-.8.8-.4-.3-1.5-1-3.3-1.8zm2-4.7v-1.6h-1.4v1.6zm0 2.7v-1.9h-1.4v1.9z"/></g></svg>