<svg enable-background="new 0 0 400 400" viewBox="0 0 400 400" xmlns="http://www.w3.org/2000/svg"><g fill="#fafafb"><path d="m12.4 4.8-6.1 9h6v1.2h-8v-.5l6.1-8.9h-5.7v-1.2h7.6v.4z"/><path d="m14 15v-10.6h3c1.6 0 2.9.5 4 1.4s1.6 2.2 1.6 3.8-.5 3-1.6 3.9-2.4 1.5-4 1.5zm1.4-9.4v8.2h1.6c1.3 0 2.4-.4 3.1-1.1s1.1-1.8 1.1-3.1-.4-2.3-1.2-3-1.8-1-3.1-1z"/><path d="m26.1 4.4v10.6h-1.4v-10.6z"/><path d="m36.1 14.6c-.8.4-1.8.6-2.9.6-1.5 0-2.7-.5-3.6-1.4s-1.4-2.2-1.4-3.8c0-1.7.5-3.1 1.5-4.1s2.3-1.6 3.9-1.6c1 0 1.8.1 2.5.4v1.4c-.8-.4-1.6-.6-2.5-.6-1.2 0-2.1.4-2.9 1.2s-1.1 1.8-1.1 3.2c0 1.3.3 2.3 1 3s1.6 1.1 2.7 1.1c1 0 2-.2 2.7-.7v1.3z"/><path d="m37.6 14.3c0-.2.1-.5.3-.6s.4-.3.6-.3c.3 0 .5.1.6.3s.3.4.3.6-.1.4-.3.6-.4.3-.6.3c-.3 0-.5-.1-.6-.3s-.3-.4-.3-.6z"/><path d="m50.2 15h-1.6l-5.3-8.2c-.2-.2-.3-.5-.4-.7 0 .2.1.7.1 1.5v7.4h-1.4v-10.6h1.7l5.2 8.1c.2.4.4.6.4.7 0-.3-.1-.8-.1-1.5v-7.3h1.4z"/><path d="m58.6 15h-5.7v-10.6h5.5v1.2h-4.1v3.4h3.8v1.2h-3.8v3.6h4.3z"/><path d="m67.1 5.6h-3.1v9.4h-1.4v-9.4h-3v-1.2h7.5z"/></g><path d="m31.44 375.09c0-1.63 0-2.83 0-4.03 0-22.39 0-44.77 0-67.16 0-1.01-.24-2.14.13-3 2.2-5.14.93-10.29.4-15.49-.2-1.96.94-4.04.85-6.03-.15-3.37-.93-6.7-1.2-10.06-.23-2.88-.24-5.8-.11-8.7.19-4.01 1.73-7.66.22-12.11-1.47-4.34-.52-9.52-.49-14.33.02-1.97 4.89-3.89 7.39-3.01 1.41.5 2.79 1.08 5.05 1.96-1.99-2.17-3.77-3.39-4.45-5.06-.58-1.43.08-3.37.2-5.23-.88-.36-.88-.36-7.13 4.89-.9-1.62-.9-1.62 2.32-4.9-3.3-1.17-3.25-3.8-3.25-6.66-.02-45.89-.11-91.78-.18-137.67-.01-5.82 2.19-7.77 7.82-6.94 5.43.8 6.21-.23 4.19-5.5-.54-1.42-1.03-2.86-1.64-4.56-1.09.46-1.84.78-3.24 1.38.38-1.25.57-1.98.83-2.68.27-.72.62-1.41.93-2.11-.69-.23-1.36-.63-2.07-.68-4.98-.37-6.98-1.56-7.28-6.55-.49-8.22-.13-16.48-.13-25.15 5.57 0 10.73-1.03 15.26.23 7.78 2.16 15.38-.3 22.82.48 7.43.78 14.4-1.19 21.66-.97 24.26.74 48.53.94 72.8 1.14 6.71.06 13.42-.54 20.13-.96 2.6-.16 4.32 1.04 4.51 3.68.09 1.22.02 2.45.02 3.91.89-.12 1.59-.22 2.32-.32.1.17.23.33.29.52.67 2.02 1.24 4.08 2 6.07.99 2.58 2.12 5.11 3.27 7.85.25-.17 1.01-.67 2.38-1.58-.24 2.4-.42 4.19-.65 6.47 2.25 0 4.45.05 6.65-.01 2.33-.07 3.12-1.05 1.69-3.19-.33-.5-.54-1.08-.23-1.99.67 1.12 1.35 2.24 2.23 3.72 1-.49 2.1-.79 2.86-1.47 3.58-3.21 7.07-6.52 10.58-9.8.24-.23.45-.5.65-.77 3.53-4.6 3.17-7.04-2.15-12.34 11.69 0 23 .02 34.31-.02 2.23-.01 4.47-.16 6.69-.4 4.29-.45 6.71 2.72 5.29 6.63 2.77.22 5.63.45 8.49.68.06.32.12.65.18.97 1.51-1.6 3.01-3.2 4.63-4.92-.68-1.09-1.3-2.09-1.93-3.09h85.47v70.21c-1.28-.8-1.92-1.2-2.87-1.79-1.61 2.03-3.17 4.01-4.79 6.06.54 1.2 1.06 2.33 1.72 3.78-4.63-2.38-8.47-1.52-11.8 2.4-.41-.51-.81-1-1.6-1.98-.31 1.43-.87 2.52-.67 3.44.43 1.97.07 3.2-1.93 3.95-.56.21-1.25 1.11-1.22 1.66.22 3.87-2.32 4.91-5.31 5.6-2.63-3.74-5.3-4.78-9.46-3.77-2.29.56-7.86 5.26-8.09 7.1-1.53-1.07-2.96-2.08-4.71-3.31.35-2.55 5.01-5.08 1.55-7.74.87-4.22 1.62-7.87 2.5-12.17-1.76-.14-3.43-.8-4.31-.23-2.27 1.46-4.1 1.24-6.1-.66-2.44 2.64-4.78 5.17-7.1 7.71-.3.32-.63.68-.76 1.09-.74 2.24-1.2 4.61-2.19 6.73-1.31 2.82-3.02 5.45-4.87 8.7 1.37 1.62 2.58 4.18-.17 7-.34.35-.03 1.39.06 2.1.07.59.56 1.49.33 1.72-2.78 2.78-.99 4.32 1.31 6.1 2.43 1.88 4.57 4.13 7.37 6.7.41-2.11.64-3.33.91-4.69 3.64-1.01 4.42-2.39 2.85-5.92 2.55 3.37 4.46 2.09 6.4-.4.99-1.26 2.34-2.24 3.95-3.75.17 1.88.28 3.05.4 4.38 1.11-.41 2.13-.78 3.47-1.28 1.13 1.8 2.27 3.55 3.34 5.35.26.44.57 1.22.37 1.51-1.24 1.78-1.53 3.49-.21 5.37.09.12-.61.79-.95 1.22-1.14-.93-2.2-1.79-3.28-2.67-3.27 2.34.33 3.94.29 6.93-1.52-1.02-2.53-1.7-4.01-2.7-.17 3.08-.41 5.97-.36 8.86 0 .23 2.07.79 2.99.53.97-.27 1.71-1.33 2.43-1.94 1.06 1.01 2.02 1.94 2.99 2.86.27-.13.54-.26.8-.39-.12-1.12.11-2.46-.43-3.32-1.59-2.56 1.13-3.59 1.73-5.33.11-.31 1.75-.51 2.36-.17 5.44 2.98 13.58 1.04 16.57-4.28 1.22-2.17 1.86-4.47-1.22-6.24-1.65-.95-2.75-2.84-3.95-4.14 2.21-1.8 3.78-3.07 5.59-4.54 1.18 1.74 2.47 3.65 3.82 5.66-1.07 1.29-2.05 2.47-3.15 3.79 1.07 1.17 2.08 2.27 2.46 2.69-.39 2.08-1.27 3.83-.74 4.59 1.14 1.61 2.52.59 3.96-.41.83-.57 2.48.05 3.63.12.72-1.88 1.47-4.2 2.5-6.39.99-2.1 2.28-4.05 3.53-6.22-1.25-.6-2.22-1.06-2.82-1.35.17-2.19.31-4.08.46-5.97-.37-.09-.74-.18-1.11-.27-.94.61-1.89 1.21-2.83 1.82-.2-.23-.39-.46-.59-.68 3.87-3.44 6.11-8.56 11.49-10.55v255.38c-110.77.31-221.15.65-331.91 1zm84.47-316.94c-1.82-1-3.24-3.54-5.21-1.01-2.1 2.69-4.08 5.45-2.54 9.31.55 1.37-.04 3.16.35 4.64.87 3.28 1.76 6.6 3.19 9.66.91 1.94 2.79 3.43 4.07 4.93-.32 1.55-1.27 3.3-.75 4.19 1.84 3.12 4.19 5.94 6.15 8.6 2.12-.72 3.68-1.25 5.46-1.86-.56 2.44-.97 4.23-1.39 6.03.32.13.65.26.97.39.9-1.24 1.8-2.47 3.13-4.3 1.88 3.24 3.55 6.12 5.29 9.13 1.82-.52 2.93.74 2.67 2.84-.42 3.43 1.24 5.45 3.83 7.19 1.65 1.11 3.15 2.46 4.37 3.42-.44 1.73-.81 3.14-1.16 4.51 1.93-.36 3.17-.59 5.23-.97-3.06 4.11-2.8 4.81.96 5.72 1.73.42 3.63.66 5.08 1.57 1.51.95 3.87 3.13 3.58 3.9-1.47 3.89 1.39 6.8 1.6 10.25.88.18 1.77.36 2.7.54-.57 1.4-1.01 2.5-1.58 3.9 1.85.31 3.43.58 5.16.87-.53 1.3-.96 2.35-1.72 4.21 1.61-.53 2.48-1.01 3.36-1.06.96-.06 2.25-.06 2.86.5 3.86 3.57 7.6 7.27 11.32 10.99.55.55 1.21 1.6 1.03 2.18-1.29 4.3 2.36 6.49 3.43 9.72 2.01-.66 4.01-4.58 4.89.45.06.37 1.08.82 1.66.81 2.25-.03 4.5-.29 6.75-.31.65 0 1.3.53 2 .84-.78 1.57-1.45 2.89-2.52 5.03 2.06-1.26 3.26-1.99 4.42-2.7 3.9 3.92 5.3 4.16 8.3 1.46 5.86-5.27 6.42-7.21 3.09-11.26 2.77-2.58 5.55-5.16 8.98-8.35-.45 2.17-.75 3.58-1.04 4.99.19.23.38.47.56.7 2.37-1.57 4.73-3.15 7.1-4.72.24.22.48.44.73.66-.71 1.42-1.42 2.84-2.4 4.81 1.01-.43 1.38-.49 1.6-.7 4.87-4.63 10.14-8.57 15.94-12.09 2.69-1.63 3.46-6.45 5.05-9.85.07-.14-.33-.51-.52-.78-.76.27-1.48.53-2.19.78-.28-.25-.57-.49-.85-.74 5.76-4.96 10.3-10.64 11.83-18.45.73.03 1.65.07 1.98.09.26-1.21.43-2.28.72-3.31.32-1.13 1.34-2.42 1.04-3.29-1.52-4.5.6-7.1 4.16-9.22 1.14-.68 2.17-1.6 3.15-2.51 3.86-3.6 3.99-6.58.38-10.2 2.56-1.93 5.1-3.84 7.61-5.74-.94-1.79-1.71-3.26-2.52-4.81 1.18-.79 2.27-1.51 4.05-2.7-3.6-3.07-6.88-5.87-10.45-8.91-1.49.86-3.28 2-5.16 2.94-1.13.56-2.41.85-3.64 1.19-1.48.41-3.1.5-4.45 1.16-1.49.73-2.75 1.94-3.96 2.84-.43-1.87-.77-3.33-1.19-5.14-1.23.92-2.07 1.91-2.43 1.76-2.92-1.26-5.97-.75-8.93-1.09-3.44-.4-6.71-2.36-10.12-3.66.06-.33.21-1.19.44-2.51-3.78.37-7.08.71-10.38.97-.5.04-1.13-.26-1.53-.59-3.42-2.83-7.3-5.39-6.85-10.72.02-.25-.25-.52-.4-.8-.88.66-1.67 1.24-2.47 1.84-1.24-.98-2.36-1.87-3.53-2.8-2.03 1.25-3.81 2.72-5.86 3.5-2.08.8-4.42.92-5.98 1.2-2.23 1.69-4.1 3.11-5.48 4.16-2.13-1.62-3.47-2.67-4.85-3.68-1.89-1.37-3.48-.52-5.21.51-.55.33-1.65-.26-2.5-.4-2.31-.39-4.63-.78-6.95-1.16-.1.34-.2.69-.31 1.03-.62-.74-1.24-1.48-1.83-2.18-1.44.37-2.7.7-3.97 1.03.18-1.22.34-2.28.62-4.1-4.5 3.08-8.63 3.35-12.59 1.76-2.22-.89-3.91-1.91-5.87.22-.3.33-1.43.42-1.71.14-1.72-1.65-3.35-1.69-5.31-.36-.45.31-1.56-.35-2.36-.56.6-1.15 1.04-2 1.66-3.18-3.04-.51-6.29-2.12-8.25-1.14-3.08 1.53-4.52.16-6.45-1.3-1.57-1.19-3.17-2.35-5.01-3.71-.83 1.11-1.5 2.01-2.13 2.86zm49.12 190.57c.18.29.36.57.54.86 3.45-2.68 6.26-1.18 8.78 1 2.96 2.56 5.85 5.21 8.54 8.04 2.29 2.42 4.02 5.66 8.21 3.3.53 1.78.94 3.13 1.41 4.69.91-.55 1.64-1 2.49-1.52 4.64 4.43 9.35 8.73 13.81 13.27 2.34 2.39 4.44 4.35 7.8 1.86.08-.06.37.15.68.29-.54 1.1-1.07 2.18-1.67 3.42l3.96 4.92c1.19-.83 2.25-1.57 3.96-2.77v6.65c1.49-1.18 2.39-1.9 3.54-2.81 1.21 2.48 2.28 4.68 3.34 6.88.25-.1.5-.2.74-.3-.12.91-.24 1.83-.42 3.21 1.26-1 2.11-1.67 3.08-2.43 2.65 2.49 5.21 4.9 7.85 7.38 1.24-1.6 2.24-2.88 3.31-4.26 2.66 2.37 5.07 4.51 7.31 6.5 6.54-4.39 7.65 2.58 10.03 4.28 2.56-.35 4.56-1.24 6.03-.69 2.81 1.05 4.42-.11 6.17-1.86 2.02-2.02.87-3.52-.62-5.08-.36-.38-.56-.91-.64-1.05.93-1.94 1.71-3.56 2.48-5.19-.3-.15-.59-.3-.89-.45-.81.67-1.61 1.33-2.78 2.29-.77-3.2-1.43-5.97-2.26-9.4-1.95 1.09-3.61 2-5.66 3.15-1.61-1.53-3.5-3.31-5.38-5.1.24-.26.49-.52.73-.77.87.62 1.74 1.24 2.66 1.89 3.27-2.56 6.42-5.03 9.69-7.59-2.65-3.31-.89-5.63 1.1-7.97 5.41 2.73 5.58 2.86 9.35-2.23.78-1.06-.18-3.41-.35-5.35 1.43-2.63 3.13-5.76 4.95-9.11.2-.04 1.85-.22 1.85-.4 0-1.4-.31-2.81-.6-4.66 1.79.36 3.5.7 5.62 1.12-.99-1.75-1.75-3.1-2.63-4.64 4.53-4.32 9.04-8.62 13.21-12.6-.87-2.19-1.55-3.92-2.13-5.36 2.09.27 3.53.45 5.83.75-2.12-2.96-2.6-4.94 0-6.57.4-.25.48-.95.78-1.4 1.39-2.15 2.11-4.43.79-7.28h6.08c-1.12-1.47-1.91-2.51-2.78-3.65 3.11-1.97 1.33-4.42.48-6.92 1.75.23 3.14.41 4.93.64-.39-.86-.51-1.15-.64-1.43-.44-.91-.89-1.81-1.34-2.72.91.14 1.91.57 2.71.34.86-.25 1.76-.99 2.24-1.76.33-.53-.21-1.52-.08-2.25.97-5.34-1.22-10.13-5.99-12.18-.97-.42-2.89-.12-3.61.61-3.88 3.86-7.7 7.81-11.18 12.04-1.86 2.27-3.4 5.01-4.33 7.78-1.26 3.73-1.08 3.9-3.79 2.6-.35.96-.7 1.9-1.05 2.84-2.98-1.23-2.51.8-2.82 2.65-.27 1.66-1.03 3.45-2.12 4.72-4.19 4.89-8.61 9.59-13.14 14.59 2.44 2.19.84 4.46-.85 6.45-3.29 3.88-6.8 7.58-10.29 11.43.37.66.87 1.51 1.38 2.42-3.88 4.31-7.71 8.55-11.52 12.78-.81-.34-1.54-.65-2.26-.95-1.42 2.79-2.71 5.34-4.04 7.95-1.01-.91-1.71-1.53-2.37-2.13-1.21.86-2.2 1.56-3.56 2.53-2.38-5.89-5.83.56-8.57-.45.55-1.88.99-3.36 1.66-5.62-2.37 1.34-3.67 2.07-4.2 2.37-2.06-1.32-3.53-2.11-4.84-3.13-1.69-1.32-3.19-2.89-4.88-4.22-.83-.65-2.06-1.55-2.85-1.34-3.6.94-4.67.39-5.19-3.26-.15-1.05-.25-2.11-.4-3.47-3.12 2.1-4.65-.1-6.47-1.73-2.12-1.9-4.39-3.64-6.55-5.51-1.66-1.43-3.33-2.87-4.83-4.46-4.78-5.07-9.48-10.22-14.12-15.24-1.82 1.07-2.8 1.64-3.83 2.24-.52-1.58-.95-2.93-1.37-4.18-1.3.17-2.23.29-3.37.43-.18-1.64-.32-3.01-.47-4.42-1.17.52-2.17.97-3.18 1.42-.13-.19-.25-.37-.38-.56.58-.85 1.16-1.69 1.24-1.8-1.76-2.1-3.21-3.82-4.74-5.65-2.56 3.15-4.6-.9-6.69-.96-1.9 1.94-3.59 3.66-5.36 5.46.77.61 1.68 1.34 2.65 2.12-.74 1.04-1.37 1.93-1.75 2.49 1.09 1.78 2.77 3.31 2.76 4.83 0 1.6-1.6 3.21-2.64 5.05 1.61-.46 2.97-.85 4.34-1.24-2.41 4.47-1.19 5.51 2.77 5.6-.29.79-.59 1.61-.98 2.66 2.06-.37 3.97-1.29 5.12-.72.92.46.93 2.75 1.27 3.96 1.21-.22 2.35-.43 3.8-.69-1.02 1.91-1.81 3.32-2.6 4.73zm-68.9 47.06c.26.26.53.52.79.78 2.49-2.23 4.45-1.14 6.38.5.93.79 2 1.43 2.99 2.16 2.71 1.98 5.17 4.83 9.08 2.4.22-.14.77.23.89.28-.27 1.55-.52 2.96-.86 4.9 4.34-3.22 8.02-.83 11.4-1.03-.16 1.27-.28 2.26-.4 3.24h4.82c2.03 1.94 4.67 4.51 7.38 7 1.38 1.27 2.77 2.09 4.57.27.61-.62 2.13-.52 3.21-.44 1.81.13 3.6.52 6.11.91.07.44.29 1.87.47 3.01 1.04-.24 2.31-.84 2.58-.54 2.29 2.51 4.79 1.57 7.38.82.68-.2 1.51.17 2.27.22 1.65.11 3.3.18 4.96.27 2.59.87 4.89.91 7.21-2.19 3.56 3.34 7.02 6.59 10.34 9.7 1.26-.48 2.77-1.05 4.82-1.82-.38 2.08-.58 3.13-.88 4.75 5.02-1.24 10.7 2.04 13.84-4.46 1.95 4.53 4.85 4.74 7.7.89 2.6 1.7 5.2 3.4 7.93 5.18.47-.82 1.17-2.04 1.87-3.25 1.6.18 3.01.33 4.11.46.55-1.11.97-1.94 1.39-2.78 1.09.59 2.17 1.19 3.41 1.86 1.23-2.52 3.06-3.42 5.84-1.37.54.39 1.83-.24 3.47-.51-3.43-2.91-6.22-5.28-8.64-7.34-1.72.29-2.99.51-4.22.71.39-2.37.65-3.98.92-5.6-.31-.09-.61-.17-.92-.26-1.12.87-2.24 1.74-3.05 2.37-1.77-.75-3.83-2.35-4.7-1.86-2.87 1.61-5.08.5-7.14-.97-2.61-1.87-4.92-4.15-7.51-6.38-.93.6-2.12 1.38-3.37 2.18-1.12-.86-2.15-1.64-3.12-2.39-3.84 3.15-3.84 3.15-6.89-1.01-1.45 1.14-2.89 2.29-4.61 3.65-.1-1.58-.16-2.67-.23-3.76-5.31-4.13-10.99-2.58-16.2-1.39-.38-1.37-.43-2.96-1.21-3.97-.77-.98-2.29-1.37-3.49-2.02-1.77-.13-3.53-.66-5.3-1.09-.59-.14-1.38-.28-1.83-.01-1.91 1.13-3.62 1.35-5.48-.2-.46-.38-1.64.02-2.47.18-.97.19-1.91.51-3.43.92.76-1.9 1.23-3.06 1.92-4.79-2.1.63-3.65 1.09-5.51 1.64-1.97-5.21-5.81-6.5-10.95-3.91.54-2.16.92-3.66 1.3-5.15-5.42 2.79-8.47-.42-11.1-2.76-2.06.54-3.64.95-5.21 1.37-.76-2.95 5.2-3.66 1.55-6.9-1.52.72-2.96 1.4-4.33 2.04.38-1.48.69-2.72 1.01-3.95-.3-.08-.61-.17-.91-.25-1.13.66-2.26 1.32-3.88 2.27-3.22-3.47-6.4-6.9-9.27-10-2.39.17-3.66 4.11-5.72 1.12.46-1.49.81-2.65 1.25-4.07-1.64.2-2.72.33-4.86.59 3.06-2.79 2.7-5.11.12-6.2-1.98-.84-4.49-.45-6.78-.62 2.01-5.17 1.86-6.05-2.61-9.65-2.08-1.67-4.38-3.09-6.7-4.41-.74-.42-2-.53-2.76-.19-5.01 2.22-6.59 7.7-10.35 11.15-.13.11-.11.43-.09.65.34 4.6.69 9.2 1.02 13.55 1.47-.19 2.47-.32 3.47-.45.04.92.02 1.84.14 2.75.12.95.09 2.13.64 2.77 3.03 3.55 6.21 6.97 9.27 10.36 1.43-.73 2.52-1.29 3.79-1.93-.39 1.87-.67 3.21-1.12 5.4 2.09-1.3 3.28-2.04 4.87-3.03 1.41 7.76 6.34 6.97 11.67 4.6-.82 1.96-1.43 3.5-2.05 5.03zm206.3-263.97c-1.05.42-2.56 1.48-3.02 1.14-3.19-2.37-6.13-1.07-9.26 0-2.01.69-4.19.87-5.86 1.2 0 2.66.72 5.05-.17 6.37-1.36 2.04-.78 3.27 0 5.1.66 1.56.6 3.42.85 5.12.06-.02.79-.31 1.11-.44.9 2.7 2.86 5.47 2.31 7.57-1.14 4.34.61 8.16.69 12.21.06 3.17 1.72 4.68 4.46 5.35 1.72.42 3.49.71 5.25.83 3.61.24 7.23.32 11.45.5.86-.93 2.24-2.54 3.74-4.03s3.12-2.87 4.92-4.5c-2.44-1.65-3.25-3.61-1.4-6.21.37-.52.16-1.84-.26-2.47-1.22-1.8-2.69-3.44-4.2-5.31 1.23-3.19-1.24-6.09-2.11-9.29-.07-.27-.99-.48-1.49-.44-2.44.19-3.08-1.36-2.62-3.18 1.08-4.29-.95-7.03-4.39-9.52zm-11.68 129.19c2.66-1.55 2.72-3.62 2.1-6.17-.63-2.61-1.68-4.32-4.81-3.86.74-1.33 1.28-2.3 2.12-3.8-2.68-2.66-5.41-5.36-7.92-7.85-1.84.13-3.43.24-5.82.41 1.33-1.99 2.04-3.07 2.76-4.14-.2-.31-.4-.62-.6-.94-.98.58-2.03 1.08-2.94 1.76-2.4 1.82-3.92 5.37-7.71 3.71-.3 1.52-.55 2.83-.77 3.99-1.5-.31-2.53-.51-3.55-.72.04.91.11 1.81.11 2.72 0 .77.22 1.81-.18 2.26-1.92 2.14-1.1 3.68 1.35 5.12-3.12 2.49-2.93 5.03-.58 7.43-1 1.31-1.86 2.43-2.9 3.79 2.83 1.2 7.67-.41 6.24 5.53 1.13-.87 1.78-1.36 2.43-1.86 2.78 3.72 4.21 3.89 6.55 1.35 1.16.65 2.14 1.48 3.26 1.77 2.07.53 3.56 1.05 1.89 3.54-.32.48-.32 1.46-.05 2.01 1.63 3.29 4.47 6.19 2.38 10.52 1.85-.4 2.99-.64 4.55-.98-.66 1.61-1.13 2.75-1.76 4.29 5.88.29 8.44-3.96 10.88-7.27 2.93-3.96.58-7.84-2.66-10.98.86-1.07 1.6-1.99 2.43-3.02-2.28-2.88-4.48-5.67-6.8-8.61zm-11.18 199.64c.14-1.2.26-2.13.38-3.15 4.11 1.03 5.08-2.58 7.73-4.59-4.06-1.82-1.95-4.38-1.38-6.98-.56.63-1.12 1.26-1.22 1.38-1.52-.97-2.81-1.79-4.1-2.62.16-.31.32-.62.47-.93 1.98-.22 3.95-.43 6.51-.71-4.65-2.37-7.2-7.44-13.75-5.61 2.63-3.11 4.51-5.33 6.63-7.84-1.5-.76-2.63-1.33-4.29-2.18 1.56-.9 2.73-1.57 4.06-2.34-.31-1.21-.61-2.34-1.1-4.23-3.3 4.4-6.25 2.4-9.25.39-1.45-.97-3.02-1.77-4.15-2.42-2.53 3.02-4.77 5.7-7.01 8.37.24.09.49.19.73.28 1.31-.4 2.61-.8 4.76-1.46-1.48 2.76-3.31 4.57-.97 6.86.95-.72 1.78-1.35 2.75-2.08.48 1.73 1.01 3.19 1.25 4.7.09.62-.28 1.73-.74 1.94-2.78 1.24-5.64 2.28-8.48 3.38 2.03 4.47 2.02 4.47-.77 8.48-.75 1.08-1.48 2.16-2.22 3.24.74.12 1.09-.11 1.47-.28.83-.39 1.67-.75 2.51-1.12.14.92.46 1.85.37 2.75-.42 4.48.9 5.93 5.56 6.15 1.15.05 2.29.46 3.41.77 1.35.38 2.71 1.23 4.02 1.16 2.18-.1 4.35-.8 6.82-1.31zm43.96-24.6c.57-.47 1.15-.94 1.72-1.4-1.87-1.71-2.91-3.43-.42-5.17 6.25.7 2.59 5.8 3.55 8.91 1.15-.73 2-1.27 2.93-1.86-.29 2.29-.54 4.25-.87 6.89 2.41-1.26 3.87-2.03 5.21-2.72 1.47 1.2 2.76 2.26 4.49 3.67-.62-2.62-1.02-4.28-1.41-5.95 2.19.21 3.62.34 5.04.48-.16-1.51-.33-3.02-.58-5.28 4.25-5.15-2.12-7.34-4.93-11.35 2.04.36 3.53.62 5.39.95-2.32-4.33-3.56-4.8-7.84-3.39-5.22 1.72-7.16 1.31-10.33-3.01-1.95-2.65-3.37-5.69-5.16-8.75-1.75 1.15-4.16 3.63-6.39-1.62v5.77c-1.66-.14-3.37-.79-4.57-.27-2.58 1.12-4.12 3.2-3.84 6.38.33 3.79.33 7.61.55 11.41.03.46.52.89.79 1.33 1.08-.6 2.02-1.12 2.33-1.29 2.13.8 4.27 2.34 5.15 1.8 3.51-2.13 5.76-.19 8.03 1.79.68.56.8 1.76 1.16 2.68zm-244.05-201.94c-.14-2.2-.75-4.23-.29-5.99 1.07-4.16-1.54-7.79-5.94-7.61-7.34.31-14.36 1.23-18.85 8.26-1.3 2.04-3.25 3.66-5.27 5.87 2.29-.68 3.82-1.13 5.18-1.54-.26 2.12-.44 3.53-.61 4.93 3.25-2.13 5.14-1.02 6.71 1.36 1.58-.92 3-1.74 4.43-2.57.03.34.06.67.09 1.01 1.38 0 2.77.14 4.12-.04 1.17-.16 2.53-1.29 3.4-.95 3.4 1.31 4.16.03 3.25-3.33 1.69.28 2.95.47 3.78.6zm-10.11 197.67c1.24-.62 2.26-1.14 3.53-1.78-.2 2.54-4.1 3.82-1.3 6.88 2.08-2.78 4.51-2.71 7.35-1.19 1.07.58 2.62.27 4.27.39-1.62-1.82-2.83-3.19-3.65-4.11.82-2.08 2.26-4.8 1.92-5.04-2.91-2.09-1.58-4.77-1.32-6.89-3.09-.4-5.97-.78-8.61-1.12-1.2 1.55-2.42 3.13-3.7 4.79 3.96 1.81-.52 5.44 1.51 8.07zm-26.31-300.32v16.76c1-.92 1.85-1.7 2.64-2.43 1.44.69 2.68 1.28 4.41 2.1-2.38-6.51 3.47-7.44 5.93-10.64-1.59-1.81-3.21-3.64-4.89-5.55-1.65.88-3.18 1.7-4.68 2.51-.93-.74-1.7-1.36-3.41-2.75zm78.79 131.71c.41.17.82.34 1.23.52 1.57-1.37 3.16-2.72 4.71-4.11 4-3.59 4.13-5.68.4-9.55-1.45-1.5-3.19-2.71-4.71-3.99-6.29 4.29-6.3 5.4-.87 11.31-.29 2.21-.53 4.02-.76 5.82zm-52.07-109.86c-4.77 3.87-1 7.33-.29 10.99.49-.18.73-.22.9-.35 1.73-1.23 3.46-2.46 5.18-3.7 3.55-2.58 3.56-2.86.6-5.47 0-1.58 0-2.85 0-4.15-2.04.23-3.66.42-4.77.55.2-2.58.38-4.96.56-7.34-.35-.03-.7-.07-1.05-.1-1.25 2.98-5.09 5.48-1.13 9.57zm23.9 44.11c-2.15-.02-8.19 5.82-7.93 7.4.03.21.16.43.31.58 1.6 1.61.92 3.16.04 4.84-.38.72-.28 1.7-.4 2.56.24.11.49.22.73.32 3.2-2.77 6.39-5.54 9.68-8.4-2.29-2.26-4.58-4.1-2.43-7.3zm252.27 203.96c-2.76-1.98-4.64-.55-6.2 1.48-3.57-2.16.54-3.26.35-5.49-4.73.38-6.65 4.36-9.92 6.67.97 1.02 1.72 1.79 2.46 2.57.13-.27.25-.54.38-.8 1.19.2 2.38.55 3.58.56 1.45.02 2.91-.24 4.36-.38-.54-3.76 2.79-3.51 4.99-4.61zm-237.08-211.7c-.41-.16-.83-.33-1.24-.49-1.59 1.77-3.19 3.53-4.78 5.3 1.59 1.42 3.18 2.83 4.77 4.25.26-.26.51-.52.77-.79.16-2.76.32-5.51.48-8.27zm5.16-46.33c-4.1 0-7.72 0-12.16 0 2.73 2.32 4.61 3.92 6.43 5.48 1.64-1.55 3.37-3.21 5.73-5.48zm3.04 11.08c-1.8-1.64-3.24-3.89-5.14-4.39-1.4-.37-3.39 1.56-5.26 2.53.68 1.08 1.12 1.79 1.72 2.76.7-1.3 1.25-2.33 1.75-3.28 2.38.59 2.96 4.89 6.93 2.38zm-80.43 231.23c1.88-1.55 3.62-2.99 5.36-4.42-.14-.43-.28-.85-.42-1.28-1.23.22-2.62.14-3.64.72-1.76.99-3.52 2.31-1.3 4.98zm296.99-69.94c-.07 1.88-.12 3.49-.18 5.09.93-.29 2.34-.31 2.7-.94.87-1.51 1.5-3.39-2.52-4.15zm6 96.01c-1.54-1.79-2.62-3.05-4.35-5.06-.65 2.14-1.05 3.46-1.53 5.06zm-111.31-8.81c-1.93.17-3.61.31-5.6.48 1.87 1.74 3.18 2.96 4.48 4.17.28-1.17.57-2.37 1.12-4.65zm-65.82 68.06c.02.29.05.59.07.88h7.54c-.02-.45-.04-.91-.07-1.36-2.51.16-5.02.32-7.54.48zm178.51-297.31c.08.52.15 1.05.23 1.57 2.46-.33 4.92-.67 7.38-1-.05-.42-.1-.84-.16-1.26-2.48.23-4.96.46-7.45.69zm-113.14 285.45c-1.02-1.34-1.9-2.49-2.77-3.64-.52 1.35-1.04 2.69-1.81 4.69 2.12-.49 3.16-.73 4.58-1.05zm-107.7-230.79c.49.18.99.36 1.48.55.75-1.46 1.5-2.92 2.25-4.39-.66-.09-1.78-.44-1.9-.22-.75 1.29-1.25 2.7-1.83 4.06z" fill="#010105"/><path d="m187.81 138.52c-1.46.81-2.92 1.61-4.49 2.48-1.18-5.67-7.14-6.68-10.19-10.39-.02-.26-.08-.41-.03-.48 2.71-3.47 1.25-6.11-1.42-8.84-1.1-1.13-1.29-3.1-2.17-4.52-.51-.82-1.56-1.31-2.37-1.94-.32.19-.64.39-.96.58.15-1.21.31-2.41.46-3.61-4.5-.16-4.75-.47-2.98-3.99-3.76-.62-7.65-.9-8.96-5.62-.19-.69-2.13-.9-3.69-1.5.36-.99.83-2.26 1.4-3.82-1.22.21-2.36.4-4.18.71.08-1.62.15-3.06.24-4.84-1.05.37-2.09.73-3.28 1.14-.28-1.4-.55-2.77-.85-4.31-2.49.29-5.08.62-3.01-3.09-.97-.47-1.94-.95-2.92-1.42-.1.27-.2.53-.29.8-.56-1.04-.87-2.53-1.73-2.98-.85-.45-2.26.16-3.94.37.59-2.78 1.17-5.48 1.87-8.72 1.42 3.23 3.31 3.26 5.84 1.96 1.01-.52 2.53-.04 3.81-.02 1.05.01 2.1 0 3.47 0 .06.6.18 1.65.33 3.1 2.79-.51 5.49-.81 7.89 1.52.48.47 3.06-1.22 4.9-2.01.8.66 1.72 1.42 2.64 2.18.03-.29.07-.59.1-.88 2.44.16 4.89.49 7.32.4 1.04-.04 2.05-.95 3.62-1.73 1.32 1.22 3.18 2.5 4.45 4.22 1.92 2.59 2.56 2.8 4.63.4.42-.49.83-1 1.27-1.54 3.64 5.19 6.7 6.59 11.16 4.45-1.07 1.99-1.79 3.33-2.51 4.68.1.32.2.65.3.97 1.89-.55 3.77-1.1 6.15-1.79 1.63 1.68 3.87 1.77 6.23-.6 1.68 2.68 3.91 2.52 6.41 1.43.68-.3 1.61-.19 2.39-.03 1.56.31 3.09.77 4.74 1.2.09-.23-.11.28-.1.27 2.71.64 5.43 1.55 8.21 1.81 1.21.11 2.54-1.1 4.17-1.88 2.63 4.46 7.42 4.66 11.82 5.67.71.16 1.69.29 2.21-.06 2.79-1.87 5.21-1.3 7.43 1.08 1.09-.76 2.03-1.41 2.96-2.06.16.12.32.23.48.35-.45 1.02-.91 2.05-1.37 3.1 1.05.33 2.1.66 3.46 1.08-.82 1.55-1.56 2.9-2.25 4.27-.73 1.45-1.74 2.8-.18 4.52.41.45-.07 2.67-.52 2.81-3.43 1.05-3.8 4.12-4.88 6.74-.55 1.34-1.04 2.72-1.76 3.96-.97 1.67-2.09 3.44-4.46.69-.16.29-.32.57-.48.86.44 1.18.89 2.36 1.32 3.52-5.32-2.03-5.91-.72-7.66 7.4-1.25.16-2.54.32-4.23.54.97 1.07 1.69 1.86 2.04 2.24-5.03 5.94-10.01 11.73-14.86 17.62-.55.66-.48 1.85-.63 2.8-.08.5.2 1.2-.05 1.49-2.25 2.64-4.53 5.26-6.93 7.75-.33.34-1.4.03-2.11-.07-1.75-.23-3.49-.52-5.51-.82.3-.66.95-2.11 1.8-3.99-5.34-3.14-8.13-9.89-15.33-11.16 1.2-2.65.18-4.83-2.4-6.74-3.72-2.7-3.71-3.22-1.84-7.71z" fill="#010105"/></svg>