<svg enable-background="new 0 0 400 400" viewBox="0 0 400 400" xmlns="http://www.w3.org/2000/svg"><path d="m222.8 297.47c-21.4-11.51-42.31-22.92-63.41-33.96-3.66-1.92-8.16-2.19-12.21-3.43-1.87-.57-3.86-1.33-5.31-2.58-7.55-6.5-15.91-11.41-25.41-14.53-12.61-4.15-23.93-10.75-34.96-18.14-16.41-10.97-32.82-21.82-45.95-36.82-5.95-6.8-11.12-13.98-12.7-23.22-.57-3.33.45-4.94 3.64-5.82 6.53-1.8 12.63-.2 18.67 2.01 18.46 6.76 35.84 15.63 51.92 26.95 5.22 3.67 10.93 5.73 17.08 7.31 5.34 1.38 10.43 3.87 15.47 6.23 9.72 4.55 19.3 9.39 28.98 14.01 1.35.64 2.98 1.05 4.46 1 7.49-.24 14.98-.56 22.45-1.12 1.75-.13 3.59-1.04 5.1-2.02 4.5-2.92 8.58-6.59 13.31-9 16.98-8.62 29.8-21.82 41.79-36.19 5.56-6.66 11.94-12.67 18.28-18.63 2.38-2.24 5.55-3.79 8.58-5.17 12.06-5.47 23.44-2.99 33.9 4.04 6.85 4.6 7.71 12.11 7.66 19.77-.03 5.14-1.51 8.93-6.28 11.84-6.86 4.18-13.4 8.97-19.71 13.97-10.02 7.94-21.03 13.82-33.14 17.86-11.39 3.8-22.27 8.66-31.56 16.57-3.76 3.21-6.34 6.73-4.74 11.89.44 1.41 1.43 2.72 2.39 3.89 13.58 16.63 32.54 21.72 52.59 23.86 9.73 1.04 19.61.71 29.43.88 1.52.03 3.09-.47 4.56-.95 14.55-4.8 29.01-9.86 43.65-14.35 4.82-1.48 10.07-1.75 15.16-2.07 1.54-.1 4.07 1.16 4.55 2.41.63 1.63.3 4.34-.73 5.77-4.66 6.43-9.7 12.59-14.65 18.8-.68.85-1.59 1.58-2.5 2.19-19.03 12.79-37.96 25.75-57.19 38.25-7.51 4.88-16.41 5.3-25.19 5.74-6.9.35-13.78 1.26-20.65 2.05-1.15.13-2.58.58-3.3 1.4-11.63 13.26-27.83 18.79-43.32 25.25-26.98 11.26-55.23 15.53-84.4 12.86-14.66-1.34-28.88-4.76-42.68-9.9-.31-.12-.73-.12-.94-.33-6.85-6.71-14.01-13.14-20.35-20.31-2.22-2.51-2.5-6.79-3.44-10.32-.19-.72.33-2.03.96-2.5 4.58-3.49 9.41-4.51 15.05-2.12 5.71 2.42 11.7 4.19 17.61 6.12.86.28 2.14.22 2.87-.24 8.01-5.07 17.03-4.72 25.94-5.06 7.94-.3 15.91-.29 23.79-1.13 7.19-.77 14.39-2.06 21.37-3.9 14.44-3.82 29.17-5.6 43.94-7.38 8.08-.97 14.38-5.11 19.57-11.73z" fill="#010102"/><path d="m202.34 34.38c13.43 0 26.87-.05 40.3.06 1.69.01 3.63.42 5.02 1.32 5.6 3.64 11.66 5.04 18.29 5.56 14.37 1.12 24.8 8.27 30.26 21.9 2.68 6.67 2.1 13.37-.47 19.96-.32.81-.84 1.59-1.44 2.21-25.82 26.36-55.62 46.75-90.49 59.17-29.02 10.34-58.4 9.6-87.76 1.17-1.12-.32-2.27-1.03-3.08-1.88-8.89-9.29-18.01-18.4-26.49-28.05-9.94-11.31-10.76-24.59-6.68-38.51.29-.99 1.09-1.95 1.88-2.67 15.54-13.94 32.66-25.53 52.24-32.88 12.09-4.54 24.54-8.15 37.86-7.47 10.16.52 20.37.11 30.56.11zm-2.81 26.3c-5.76.66-11.64.8-17.26 2.08-22.13 5.02-42.98 13-60.53 28-4.7 4.02-6.25 9.44-4.96 15.11 1.18 5.16 3.88 9.69 10.14 10.6 7.4 1.08 14.72 2.75 22.14 3.67 10.23 1.27 20.65 2.26 30.68-.58 9.41-2.67 18.41-6.77 27.75-9.75 11.41-3.65 21.39-9.38 29.44-18.31.22-.25.58-.41.73-.69.72-1.31 1.77-2.58 2.02-3.99 1.45-8.15-1.64-14.37-8.38-18.99-9.67-6.61-20.39-8.05-31.77-7.15z" fill="#010102"/><g fill="#fcfbfa"><path d="m377.9 391.2c-.2.3-.4.5-.6.8-.7-.6-1.4-1-2.2-1.5.2-.3.4-.5.5-.8.6.4 1.4.8 2.3 1.5zm-1.8 6.1c-.2-.2-.5-.4-.9-.6.4-.6.8-1.2 1.2-1.9s.7-1.3.9-1.9c.3.3.5.5.8.7-.7 1.3-1.4 2.6-2 3.7zm2.2-9c-.3.3-.5.5-.6.8-.6-.6-1.3-1.1-2-1.5.3-.3.5-.5.6-.7.6.5 1.3.9 2 1.4zm.3.2v-.9h2 4.5c-.3 1.3-.6 2.5-1 3.6s-.9 2.1-1.4 3c.4.5 1 1 1.6 1.4s1.2.8 1.9 1.1c-.3.2-.5.4-.8.8-.4-.3-1-.7-1.6-1.2s-1.2-1.1-1.6-1.6c-.5.6-1.1 1.1-1.7 1.6s-1.4.9-2.1 1.4c-.1-.3-.3-.5-.7-.8.6-.2 1.2-.5 1.9-1s1.4-1.1 2-1.8c-.5-.8-.9-1.6-1.2-2.5s-.6-2-.8-3.2c-.4.1-.7.1-1 .1zm2.5 2.7c.3 1 .7 1.7 1 2.2.3-.5.6-1.1 1-2s.6-1.9.9-3h-3.2-.4c.1.9.3 1.8.7 2.8z"/><path d="m396.5 388.5v1.5 3.6h1.5v.9c-.4 0-1 0-1.7 0h-7.9c-.5 0-.9 0-1.2 0v-.9h1.3v-3.5c0-.7 0-1.2 0-1.6h2.4c0-.8 0-1.4 0-1.7h1c0 .3-.1.8-.1 1.7h1.5c0-.8 0-1.4 0-1.7h1c0 .3-.1.9-.1 1.7zm-8.2 9.2c-.2-.3-.5-.5-.8-.8.8-.3 1.4-.6 1.9-.9s1-.7 1.4-1.1c.3.3.6.5.9.8-1.6 1-2.8 1.6-3.4 2zm2.6-6.8v-1.6h-1.5v1.6zm0 2.7v-1.9h-1.5v1.9zm2.4-2.7v-1.6h-1.5v1.6zm0 2.7v-1.9h-1.5v1.9zm.2 2 .7-.8c.4.2.9.5 1.6.8s1.3.7 1.8 1c-.3.3-.5.5-.8.8-.4-.3-1.5-1-3.3-1.8zm2-4.7v-1.6h-1.4v1.6zm0 2.7v-1.9h-1.4v1.9z"/></g></svg>