<svg enable-background="new 0 0 400 400" viewBox="0 0 400 400" xmlns="http://www.w3.org/2000/svg"><path d="m184.69 118.63c7.02-2.7 14.02-4.43 21.4-4.47 4.67-.03 6.69-2 6.45-6.61-.17-3.2-.29-6.89-1.92-9.39-1.87-2.88-5.39-4.69-8.11-6.9-9.54 6.94-19.34 4.67-29.12 2.51-1.41-.31-2.76-.93-4.16-1.29-3.83-.99-6.04-3.1-5.18-7.7 5.39-2.07 10.65-4.94 17.17-1.97 5.33 2.43 14.61-.74 18.22-5.3 2.59-3.27 2.31-5.63-1.01-8.06-13.46-9.84-26.9-19.69-40.41-29.46-1.49-1.08-2.03-2.07-1.57-3.88.88-3.44 1.56-6.94 2.36-10.58 2.84.1 4.79.79 6.01 3.53.54 1.22 2.56 2.77 3.66 2.6 11.08-1.74 18.77 4.69 26.27 10.97 6.68 5.59 12.98 11.7 18.91 18.09 2.81 3.03 4.38 7.21 6.47 10.89.88 1.55 1.53 3.24 2.45 4.77 3.3 5.5 3.92 5.62 10.19 4.55 2.21-.38 4.64-.23 6.83.29 6.2 1.47 12.31 3.29 18.47 4.89 8.22 2.12 15.31 6.32 21.32 12.16 1.47 1.43 2.32 4.17 2.31 6.3-.02 5.01-.37 10.08-1.22 15.01-2.09 12.12-.82 24.15.88 36.1 1.85 12.98 1.27 25.7-.6 38.67-1.45 10.09-.89 20.51-.74 30.78.35 23.16 1.01 46.32 1.5 69.48.02.94 0 2.38-.56 2.76-2.83 1.91-2.21 4.73-2.68 7.47-1.38 8.12-3.26 16.15-4.91 24.22-1.51 7.42-3.95 14.45-8.52 20.59-8.84 11.9-20.62 18.92-35.24 21.24-11.25 1.79-22.44 1.34-33.76.24-15.28-1.48-30.6-1.33-45.55 3.26-1.57.48-3.56.34-5.17-.13-7.07-2.08-14.08-4.38-21.11-6.6-4.54-1.44-9.34-9.71-7.97-14.3 1.19-3.97.5-7.05-2.44-10.03-1.12-1.14-1.76-3.33-1.66-4.99.5-8.15 1.52-16.27 1.94-24.42.16-3.13-.68-6.33-1.21-9.47-.2-1.19-.88-2.3-1.17-3.49-2.44-9.86-3.53-9.18 7.22-12.55 9.85-3.09 19.89-1.49 29.89.16 8.36 1.38 16.8 2.43 25.25 3.15 8.52.72 16.68-1.12 24.36-4.98 1.4-.7 2.81-1.44 4.3-1.86 4.67-1.31 7.49-3.79 7.17-9.15-.08-1.39.99-3.29 2.13-4.24 8.36-6.99 14-15.76 17.94-25.83 1.75-4.47 4.28-8.63 5.98-13.11 4.29-11.3 11.69-20.39 19.29-29.56 3.72-4.49 5.75-10.52 7.95-16.08.71-1.8-.38-4.36-.81-6.54-.92-4.72-2.59-9.39-2.77-14.13-.22-5.87.69-11.78 1.25-17.66.46-4.79.96-9.58 1.74-14.32.45-2.71-.55-4.01-2.85-5.18-10.78-5.48-21.76-4.96-32.94-1.5-5 1.55-9.99 3.37-15.13 4.23-10.77 1.77-20.93-3.38-26.79-13.18zm-54.76 187.18c-4.24 4.72-2.85 10.23-2.43 15.49.57 7 1.1 14.07 4.61 20.45 1.2 2.17 2.74 3.34 5.34 3.93 8.25 1.9 16.43 4.12 24.57 6.47 5.47 1.58 10.8 3.63 16.23 5.37 1.24.4 2.7.79 3.9.5 11.19-2.64 22.65-2.28 33.98-3.26 10.86-.94 21.49-2.83 30.93-8.9 4.36-2.8 7.65-5.97 8.64-11.53 1.31-7.35 3.38-14.58 5.35-21.8 1.26-4.61 1.67-9.1.87-13.87-.9-5.42-2.29-11.02 1.47-16.15.57-.78.47-2.18.4-3.28-.77-12.26-1.48-24.54-2.46-36.78-.41-5.18-1.39-10.32-2.12-15.47-2.9 4.05-5.06 8.18-7.28 12.28-9.53 17.58-21.93 33.42-30.47 51.64-4.56 9.74-12.93 14.81-24.16 14.36-2.18-.09-4.43.54-6.6 1.03-7.36 1.67-14.37 1.92-19.98-4.4-6.38 4.34-13.01 4.13-19.82 1.29-2.58-1.07-5.12-2.28-7.78-3.09-5.98-1.81-11.67-1.24-16.97 2.61 1.16.95 2.18 1.79 3.78 3.11zm102.91-208.96c-.67 2.21-1.77 4.68-2.13 7.24-.53 3.86 1.92 6.56 5.74 6.09 3.34-.41 6.65-1.51 9.83-2.68 1.8-.66 3.55-1.77 2.81-4.51-.72-2.69-2.07-4.36-4.88-4.71-3.61-.45-7.22-.91-11.37-1.43z" fill="#010100"/><g fill="#fcfafa"><path d="m342.2 3.2-6.3 9.2h6.1v1.2h-8.2v-.5l6.2-9.1h-5.7v-1.2h7.8v.4z"/><path d="m344 13.7v-10.9h3.1c1.6 0 3 .5 4.1 1.4 1.1 1 1.6 2.2 1.6 3.9s-.5 3-1.6 4-2.5 1.5-4.2 1.5h-3zm1.4-9.6v8.4h1.6c1.4 0 2.5-.4 3.2-1.1.8-.8 1.2-1.8 1.2-3.2s-.4-2.4-1.2-3.1-1.8-1-3.1-1z"/><path d="m356.3 2.8v10.9h-1.4v-10.9z"/><path d="m366.6 13.2c-.8.4-1.8.6-3 .6-1.6 0-2.8-.5-3.7-1.5s-1.4-2.3-1.4-3.9c0-1.7.5-3.2 1.6-4.2s2.4-1.6 4-1.6c1 0 1.9.1 2.6.4v1.5c-.8-.4-1.6-.6-2.6-.6-1.2 0-2.2.4-3 1.2s-1.1 1.9-1.1 3.3c0 1.3.4 2.3 1.1 3.1s1.6 1.1 2.8 1.1c1.1 0 2-.2 2.8-.7v1.3z"/><path d="m368.2 13c0-.3.1-.5.3-.6.2-.2.4-.3.6-.3.3 0 .5.1.7.3s.3.4.3.6-.1.5-.3.6c-.2.2-.4.3-.7.3s-.5-.1-.6-.3c-.2-.2-.3-.4-.3-.6z"/><path d="m381.1 13.7h-1.7l-5.5-8.4c-.2-.2-.3-.5-.4-.7 0 .2.1.8.1 1.5v7.6h-1.4v-10.9h1.8l5.3 8.3c.3.4.4.6.4.8 0-.3-.1-.8-.1-1.6v-7.5h1.4v10.9z"/><path d="m389.7 13.7h-5.8v-10.9h5.6v1.2h-4.2v3.5h3.9v1.2h-3.9v3.7h4.4z"/><path d="m398.4 4.1h-3.1v9.6h-1.4v-9.6h-3.1v-1.3h7.7v1.3z"/></g></svg>