<svg enable-background="new 0 0 400 400" viewBox="0 0 400 400" xmlns="http://www.w3.org/2000/svg"><path d="m363.1 267.43c.46 3.43.98 6.51 1.23 9.61.06.79-.51 1.97-1.17 2.42-22.66 15.38-44.06 32.74-68.86 44.74-9.84 4.76-20 9.02-30.37 12.44-6.48 2.14-13.61 2.38-20.47 3.32-30.14 4.11-60.33 7.94-90.42 12.38-9.25 1.36-18.53 3.6-27.26 6.88-5.32 2-10.16 6.21-14.21 10.41-5.64 5.84-11.88 7.11-19.23 5.09-1.44-.4-2.93-1.18-4.01-2.2-18.77-17.79-37.47-35.64-56.18-53.49-1.73-1.65-1.46-7.87.48-9.17.54-.36 1.48-.22 2.22-.12 3.77.5 7.56.9 11.28 1.67 1.76.37 3.63 1.16 5.01 2.3 10.68 8.86 22.87 7.26 33 2.05 1.05-.54 1.87-1.57 2.74-2.44 13.58-13.48 27.05-27.09 40.8-40.39 4.15-4.01 9.08-7.21 14.05-11.1-1.84-1.6-3.67-3.32-5.64-4.87-7.8-6.16-16.5-10.61-25.94-13.75-7.35-2.45-14.63-.83-21.93-.2-6.99.6-13.58.08-18.15-6.03-4.27-5.7-7.7-12.14-8.34-19.19-1.04-11.55-1.04-23.2-1.44-34.81-.08-2.32-.01-4.65-.01-7.08 3.89-.7 6.51-.49 9.07 2.84 9.75 12.68 23.05 21.04 36.69 28.86 14.06 8.06 28.19 16 42.25 24.06 5.41 3.1 11.13 3.9 17.16 2.74 1.01-.19 2.09-.81 2.81-1.55 4.8-4.85 9.5-9.8 14.24-14.7 2.94-3.04 5.22-6.42 5.63-10.78.22-2.3-.43-3.88-2.69-5.15-12.29-6.89-24.49-13.94-36.67-21.03-1.79-1.05-3.5-2.43-4.87-3.98-6.76-7.62-13.17-15.57-20.17-22.96-5.13-5.42-10.88-10.27-16.55-15.16-4.69-4.04-8-8.66-8.28-15.43 4.1-.72 7.87-1.97 12.23.1 17.07 8.09 34.3 15.84 51.47 23.71.99.46 2.02.85 2.66 1.12 1.13-5.21 1.75-10.42 3.43-15.27 3.63-10.53 10.53-19.13 17.45-27.67 9.36-11.55 17.49-23.79 21.48-38.34.62-2.26 1.03-4.57 1.59-7.08-4.83-1.73-9.44-.88-13.72 1.06-5.38 2.44-10.63 5.24-15.73 8.22-15.74 9.19-31.37 18.58-47.1 27.78-2.42 1.41-4.45 2.94-5.32 5.67-2.85 8.95-8.86 14.17-18.15 15.91-2.05.38-3.36.57-4.99-1.03-7.44-7.27-15.24-14.19-22.53-21.62-6.56-6.68-9.77-14.83-8.47-24.73 4.96-.38 9.86-.51 14.68-1.22 2.99-.44 6.15-1.27 8.72-2.8 19.17-11.36 38.79-21.75 59.53-30 14.63-5.81 29.61-10.43 45.31-11.58 16.24-1.19 32.19 1.19 47.31 7.49 8.69 3.63 12.06 10.92 10.17 20.99-1.14 6.09-3.46 11.55-7.66 16.45-10.71 12.49-21.39 25.04-31.28 38.16-13.9 18.43-30.46 32.96-53.85 40.04 13.35 9.9 26.1 19.36 39.12 29.01.69-1.06 1.31-1.95 1.85-2.88 9.93-17 19.8-34.03 29.81-50.97 1.29-2.18 1.73-3.99.17-6.1-.52-.71-.82-1.58-1.21-2.39-1.62-3.31-1.28-6.77.85-8.67 2.25-2.01 6.89-2.01 9.73-.27 8.56 5.28 16.99 10.78 25.81 15.58 10.01 5.45 14.52 13.52 13.65 24.71-.09 1.21-.65 2.64-1.48 3.5-8.34 8.68-14.77 18.75-21.64 28.57-11.74 16.75-24.27 32.97-36.83 49.13-3.17 4.08-7.68 7.13-11.62 10.61-3.36 2.96-5.48 6.45-3.69 10.92.75 1.88 2.31 3.9 4.05 4.85 13.06 7.11 26.35 13.8 39.36 20.99 4.35 2.4 8.6 5.4 12 8.98 4.49 4.72 9.31 5.45 15.2 3.92 26.72-6.96 53.46-13.82 80.19-20.72.38-.1.82-.18 1.65-.36zm-230.71 44.01c16.14 6.77 86.38-.1 101.78-12.39-3.26-5.06-10.29-10.04-18.75-12.73-12.32-3.91-25-5.85-37.91-6.12-1.62-.03-3.51.57-4.85 1.5-5.05 3.5-9.94 7.24-14.88 10.9-8.42 6.24-16.84 12.49-25.39 18.84z" fill="#010105"/><g fill="#fcfbfa"><path d="m377.9 391.2c-.2.3-.4.5-.6.8-.7-.6-1.4-1-2.2-1.5.2-.3.4-.5.5-.8.6.4 1.4.8 2.3 1.5zm-1.8 6.1c-.2-.2-.5-.4-.9-.6.4-.6.8-1.2 1.2-1.9s.7-1.3.9-1.9c.3.3.5.5.8.7-.7 1.3-1.4 2.6-2 3.7zm2.2-9c-.3.3-.5.5-.6.8-.6-.6-1.3-1.1-2-1.5.3-.3.5-.5.6-.7.6.5 1.3.9 2 1.4zm.3.2v-.9h2 4.5c-.3 1.3-.6 2.5-1 3.6s-.9 2.1-1.4 3c.4.5 1 1 1.6 1.4s1.2.8 1.9 1.1c-.3.2-.5.4-.8.8-.4-.3-1-.7-1.6-1.2s-1.2-1.1-1.6-1.6c-.5.6-1.1 1.1-1.7 1.6s-1.4.9-2.1 1.4c-.1-.3-.3-.5-.7-.8.6-.2 1.2-.5 1.9-1s1.4-1.1 2-1.8c-.5-.8-.9-1.6-1.2-2.5s-.6-2-.8-3.2c-.4.1-.7.1-1 .1zm2.5 2.7c.3 1 .7 1.7 1 2.2.3-.5.6-1.1 1-2s.6-1.9.9-3h-3.2-.4c.1.9.3 1.8.7 2.8z"/><path d="m396.5 388.5v1.5 3.6h1.5v.9c-.4 0-1 0-1.7 0h-7.9c-.5 0-.9 0-1.2 0v-.9h1.3v-3.5c0-.7 0-1.2 0-1.6h2.4c0-.8 0-1.4 0-1.7h1c0 .3-.1.8-.1 1.7h1.5c0-.8 0-1.4 0-1.7h1c0 .3-.1.9-.1 1.7zm-8.2 9.2c-.2-.3-.5-.5-.8-.8.8-.3 1.4-.6 1.9-.9s1-.7 1.4-1.1c.3.3.6.5.9.8-1.6 1-2.8 1.6-3.4 2zm2.6-6.8v-1.6h-1.5v1.6zm0 2.7v-1.9h-1.5v1.9zm2.4-2.7v-1.6h-1.5v1.6zm0 2.7v-1.9h-1.5v1.9zm.2 2 .7-.8c.4.2.9.5 1.6.8s1.3.7 1.8 1c-.3.3-.5.5-.8.8-.4-.3-1.5-1-3.3-1.8zm2-4.7v-1.6h-1.4v1.6zm0 2.7v-1.9h-1.4v1.9z"/></g></svg>