<svg enable-background="new 0 0 400 400" viewBox="0 0 400 400" xmlns="http://www.w3.org/2000/svg"><path d="m374.8 390.4.4-.4c.7.5 1.3 1 1.8 1.4l-.5.5c-.5-.6-1.1-1.1-1.7-1.5zm1 7.3-.6-.3c.5-1.4 1.1-2.8 1.5-4.3.2.1.4.2.6.3-.5 1.3-1 2.8-1.5 4.3zm-.4-10.3.4-.4c.4.3 1 .8 1.7 1.4l-.5.5c-.4-.5-1-1-1.6-1.5zm2.5.3h1.7v-1h.6v1h3.5v-1h.6v1h1.8v.5h-1.8v1.4h-2v1h3.2v2h-3.2v.9h3.3v.5h-3.4c0 .3-.1.6-.1.9h4v.5h-3.7c.7.9 1.9 1.5 3.8 1.7-.1.2-.2.4-.3.6-2.1-.4-3.5-1.1-4-2.1-.4 1-1.8 1.7-4 2.2-.1-.2-.2-.4-.3-.6 2.1-.4 3.4-1 3.8-1.8h-3.4v-.5h3.6c.1-.3.1-.6.2-.9h-3.3v-.5h3.4c0-.3 0-.6 0-.9h-3.2v-2h3.3v-1h-2.1v-1.4h-1.7v-.5zm1.1 3.5v1h2.7c0-.3 0-.4 0-.4 0-.1 0-.2 0-.2 0-.1 0-.2 0-.3h-2.7zm1.2-3v.9h3.5v-.9zm4.7 3h-2.6v.6.4h2.6z" fill="#fbfcfa"/><path d="m393.6 386.7h.6v1.5h2.7v6.1h1.1v.6h-11v-.6h1.1v-6.1h2.7v-1.5h.6v1.5h2.1v-1.5zm-2.7 8.8.4.6c-1.2.6-2.5 1.3-3.8 1.9-.1-.2-.2-.4-.3-.6 1.2-.6 2.5-1.2 3.7-1.9zm-2.2-6.7v2.4h2.1v-2.4zm0 3v2.5h2.1v-2.5zm2.8-3v2.4h2.1v-2.4zm0 3v2.5h2.1v-2.5zm6 6.1c-1.4-.7-2.7-1.3-3.9-1.8l.3-.6c1.5.6 2.7 1.2 3.9 1.7zm-1.2-9.1h-2.1v2.4h2.1zm-2.1 3v2.5h2.1v-2.5z" fill="#fbfcfa"/><path d="m37.31 138.15c3.21 7.36 6.3 14.78 9.67 22.06 1.34 2.9 3.08 5.68 4.99 8.25 12.4 16.71 24.87 33.37 37.37 50.01 9.28 12.36 22.05 18.98 36.88 22.02 4.37.9 8.84 1.36 13.29 1.7 1.28.1 3.1-.56 3.92-1.52 13.39-15.74 22.38-33.82 28.46-53.5 5.45-17.65 7.04-35.95 9.9-54.05 4.4-27.83 9.19-55.59 13.82-83.39.26-1.53.63-3.04 1.14-5.51 2.85 3.18 5.44 5.7 7.59 8.55 8.81 11.69 13.26 25.26 16.4 39.32 4.26 19.08 5.69 38.49 6.08 57.99.3 14.49 1.48 28.83 6.93 42.47 7.98 19.96 22.83 31.59 43.92 34.32 9.77 1.27 19.82.37 29.74.25 1.14-.01 2.59-1.15 3.33-2.17 10.83-14.76 17.13-31.54 21.53-49.12 2.56-10.21 5.05-20.43 10.87-29.41 4.02-6.2 9.21-10.88 16.88-12.63 5.97 9.83 10.12 20.35 12.65 31.53 4.47 19.74 3.34 39.37-1.51 58.84-7.6 30.52-16.9 60.49-29.58 89.33-.75 1.7-2.21 3.38-3.78 4.37-18.35 11.58-36.76 23.09-55.25 34.44-2.66 1.63-5.84 3.06-8.89 3.33-16.59 1.46-33.21 3.28-49.84 3.54-26.91.42-53.26-4.54-79.13-11.52-20.81-5.62-41.34-12.28-61.95-18.6-1.39-.43-2.93-1.71-3.58-3-14.18-28.52-27.94-57.25-42.43-85.62-12.97-25.41-15.01-51.65-7.84-78.86 2.09-7.94 4.97-15.68 7.49-23.5.33.02.63.05.93.08z" fill="#010106"/></svg>