<svg enable-background="new 0 0 400 400" viewBox="0 0 400 400" xmlns="http://www.w3.org/2000/svg"><path d="m135.85 38.8c5.91 2.16 11.85 3.83 17.33 6.45 11.47 5.49 22.99 10.98 33.92 17.45 8.39 4.97 15.06 12.36 17.5 22.11 1.14 4.56.62 9.78-.21 14.52-1.48 8.52-.44 16.59 2.04 24.73 2.01 6.62 3.58 13.39 5.12 20.14.53 2.32 1.67 3.29 3.9 3.83 8.12 1.96 16.22 1.17 24.35.22 3.99-.46 8-1.01 12-.96 6.04.07 9.77 3.48 10.98 9.32 1.47 7.15.64 9.59-6.13 12.29-8.07 3.22-16.45 5.64-24.69 8.41-.74.25-1.49.48-2.22.76-8.09 3.02-11.3 7.46-9.9 16.12 1.33 8.23 3.44 16.4 5.92 24.37 2.88 9.27 6.45 18.33 9.91 27.41.64 1.69 1.99 3.26 3.35 4.51 13.5 12.44 28.51 22.66 45.11 30.52 3.71 1.76 7.05 1.71 11.14.34 6.48-2.16 11.04-5.93 14.23-11.73 4.62-8.41 9.87-16.54 13.71-25.29 5.06-11.51 5.05-23.6 1.47-35.74-1.54-5.24-2.45-10.68-3.41-16.06-.18-1.02.45-2.62 1.25-3.29 3.15-2.62 6.8-2.38 10.49-1.22 5.32 1.67 10.66 3.27 15.94 5.04.97.33 1.78 1.27 2.55 2.04 4.2 4.18 8.2 8.58 12.6 12.53 6.12 5.49 7.79 12.56 7.96 20.26.02.96-.74 2.06-1.39 2.9-11.31 14.7-20.23 30.82-28.33 47.44-7.87 16.13-16.27 31.96-29.39 44.57-3.06 2.94-6.79 5.51-10.66 7.25-21.82 9.78-43.81 19.18-65.66 28.89-3.14 1.4-6.06 1.71-9.35 1.1-29.39-5.5-59.13-8.26-88.83-11.33-6.45-.67-12.91-1.33-19.35-2.09-1.3-.15-2.6-.65-3.83-1.15-5.59-2.28-11.27-4.36-16.69-6.99-9.08-4.41-18.64-6.8-28.6-7.86-5.19-.55-9.74-2.46-14.37-4.96-13.69-7.4-22.7-18.83-28.42-32.76-2.66-6.47-3.16-13.84-4.66-20.79-.45-2.06.69-3.02 2.44-3.12 2.55-.14 5.22-.4 7.65.19 7.23 1.73 13.61 4.88 19.46 9.87 23.57 20.14 50.43 32.1 82.11 30.64 4.98-.23 9.91-1.6 14.85-2.53.83-.16 1.71-.61 2.33-1.18 11.23-10.48 21.74-21.59 30.44-34.34 8.51-12.48 9.75-26.43 8.4-40.84-1.05-11.24-2.53-22.44-3.8-33.67-.37-3.29-3.46-6-7.99-6.08-2.7-.04-5.53.69-8.1 1.63-9.99 3.66-20.08 6.11-30.84 4.24-17.31-3.02-30.33-16.61-32.56-33.83-.33-2.59.51-3.68 2.77-3.74 7.58-.2 15.19-.62 22.75-.29 11.86.52 23.68 1.29 35.45-1.05 4.8-.96 7.67-3.4 7.82-8.21.14-4.61.1-9.47-1.17-13.85-6.23-21.46-12.87-42.79-19.48-64.14-.52-1.68-1.79-3.23-2.99-4.59-4.37-4.92-9.1-9.55-13.24-14.66-3.04-3.73-4.23-8.29-2.98-13.75z" fill="#010104"/><g fill="#fcfbfa"><path d="m385.2 377.6.6-.7c.6.4 1.3.9 1.9 1.5l-.6.7c-.8-.5-1.4-1-1.9-1.5zm.3 7.1c.6-1.4 1.1-2.9 1.5-4.5.3.1.6.3.9.4-.5 1.4-1 2.9-1.5 4.4zm.2-10.1.6-.6c.7.5 1.3 1.1 1.9 1.6l-.7.7c-.6-.6-1.2-1.2-1.8-1.7zm8.4-.8h.8v.9h1.8v.7h-1.8v1.8h-.8v-.3h-1.2v.9h3.3v2.6h-.8v-.4h-2.5c0 .3 0 .6-.1.8h3.4v.7h-3.5c0 .3-.1.6-.1.8h4v.7h-3.5c.7.9 1.9 1.3 3.6 1.5-.2.2-.4.5-.6.9-1.9-.3-3.2-1.1-3.8-2.3-.5 1.1-1.8 2-3.9 2.4-.2-.3-.4-.5-.6-.8 1.9-.4 3.1-.9 3.6-1.7h-3.2v-.7h3.5c.1-.2.1-.5.2-.8h-3.3v-.7h3.4c0-.2 0-.5 0-.8h-2.4v.3h-.8v-2.6h3.3v-.9h-1.2v.3h-.8v-1.8h-1.8v-.7h1.8v-.9h.8v.9h3.2zm-4.4 5.5h2.4c0-.3 0-.6 0-.9h-2.4zm1.2-3.1h3.2v-.8h-3.2zm4.4 2.2h-2.4v.9h2.5v-.9z"/><path d="m389.2 385.8h.9v1.5h1.9v-1.5h.9v1.5h2.7v6h1.1v.9h-11.3v-.9h1.1v-6h2.7zm.2 8.7.5.8c-1.2.6-2.5 1.3-4 1.9-.2-.3-.3-.6-.6-.8 1.6-.6 3-1.3 4.1-1.9zm-2-4.3h1.9v-2.1h-1.9zm0 3.1h1.9v-2.2h-1.9zm2.7-3.1h1.9v-2.1h-1.9zm0 3.1h1.9v-2.2h-1.9zm2.4 1.3c1.4.6 2.7 1.2 4.1 1.8l-.5.9c-1.5-.7-2.8-1.4-4.1-1.9zm2.2-6.5h-1.9v2.1h1.9zm-1.9 5.2h1.9v-2.2h-1.9z"/></g></svg>