<svg enable-background="new 0 0 400 400" viewBox="0 0 400 400" xmlns="http://www.w3.org/2000/svg"><path d="m374.8 390.4.4-.4c.7.5 1.3 1 1.8 1.4l-.5.5c-.5-.6-1.1-1.1-1.7-1.5zm1 7.3-.6-.3c.5-1.4 1.1-2.8 1.5-4.3.2.1.4.2.6.3-.5 1.3-1 2.8-1.5 4.3zm-.4-10.3.4-.4c.4.3 1 .8 1.7 1.4l-.5.5c-.4-.5-1-1-1.6-1.5zm2.5.3h1.7v-1h.6v1h3.5v-1h.6v1h1.8v.5h-1.8v1.4h-2v1h3.2v2h-3.2v.9h3.3v.5h-3.4c0 .3-.1.6-.1.9h4v.5h-3.7c.7.9 1.9 1.5 3.8 1.7-.1.2-.2.4-.3.6-2.1-.4-3.5-1.1-4-2.1-.4 1-1.8 1.7-4 2.2-.1-.2-.2-.4-.3-.6 2.1-.4 3.4-1 3.8-1.8h-3.4v-.5h3.6c.1-.3.1-.6.2-.9h-3.3v-.5h3.4c0-.3 0-.6 0-.9h-3.2v-2h3.3v-1h-2.1v-1.4h-1.7v-.5zm1.1 3.5v1h2.7c0-.3 0-.4 0-.4 0-.1 0-.2 0-.2 0-.1 0-.2 0-.3h-2.7zm1.2-3v.9h3.5v-.9zm4.7 3h-2.6v.6.4h2.6z" fill="#fbfcfa"/><path d="m393.6 386.7h.6v1.5h2.7v6.1h1.1v.6h-11v-.6h1.1v-6.1h2.7v-1.5h.6v1.5h2.1v-1.5zm-2.7 8.8.4.6c-1.2.6-2.5 1.3-3.8 1.9-.1-.2-.2-.4-.3-.6 1.2-.6 2.5-1.2 3.7-1.9zm-2.2-6.7v2.4h2.1v-2.4zm0 3v2.5h2.1v-2.5zm2.8-3v2.4h2.1v-2.4zm0 3v2.5h2.1v-2.5zm6 6.1c-1.4-.7-2.7-1.3-3.9-1.8l.3-.6c1.5.6 2.7 1.2 3.9 1.7zm-1.2-9.1h-2.1v2.4h2.1zm-2.1 3v2.5h2.1v-2.5z" fill="#fbfcfa"/><path d="m130.21 233.44c28.74-38.29 49.75-80.4 62.15-127.18 6.68 4.89 13.12 10.5 17.83 17.53 5.58 8.33 10.9 16.94 15.26 25.95 12.02 24.87 26.03 48.43 43.92 70.23 3.88-2.46 8.53-4.49 12-7.77 20.2-19.07 39.75-38.81 55.38-61.94 5.62-8.31 10.24-17.3 15.31-25.98.21-.36.44-.72 1.3-2.11 2.83 7.13 5.61 13.41 7.83 19.88 4.39 12.81 5.66 26.18 6.5 39.6 1.17 18.54 2.86 37.05 3.52 55.61.62 17.44.21 34.91.24 52.37 0 .32-.17.64-.33 1.21-7.68.95-15.42 2-23.2 2.77-1.16.11-2.63-.87-3.62-1.73-1.42-1.22-2.53-2.8-3.87-4.33-1.03 2.11-1.54 4.81-2.61 5.05-2.39.53-5.08-.01-7.59-.45-.63-.11-1.25-1.46-1.49-2.35-.53-1.95-1.59-2.58-3.63-2.52-17.33.51-34.66 1.11-51.99 1.29-20.25.22-40.5.17-60.75.02-37.26-.28-74.52-1.11-111.78-.95-21.45.09-42.89 1.67-64.33 2.58-2.91.12-5.83.1-8.7.5-2.15.3-3.41-.55-3.68-2.39-.69-4.6-1.9-9.32-1.49-13.87 1.13-12.58 3.04-25.08 4.54-37.63 2.84-23.77 5.61-47.54 8.39-71.32 2.1-17.89 4.18-35.77 6.24-53.66.22-1.89.67-3.13 2.9-3.81 2.38-.74 3.21.47 4.35 1.88 14.91 18.42 26.02 39.02 34.91 60.88 6.27 15.4 13.42 30.34 24.52 42.88 6.27 7.08 13.4 13.39 20.14 20.05.63-.09 1.23-.19 1.83-.29z" fill="#010106"/></svg>