<svg enable-background="new 0 0 400 400" viewBox="0 0 400 400" xmlns="http://www.w3.org/2000/svg"><path d="m374.8 390.4.4-.4c.7.5 1.3 1 1.8 1.4l-.5.5c-.5-.6-1.1-1.1-1.7-1.5zm1 7.3-.6-.3c.5-1.4 1.1-2.8 1.5-4.3.2.1.4.2.6.3-.5 1.3-1 2.8-1.5 4.3zm-.4-10.3.4-.4c.4.3 1 .8 1.7 1.4l-.5.5c-.4-.5-1-1-1.6-1.5zm2.5.3h1.7v-1h.6v1h3.5v-1h.6v1h1.8v.5h-1.8v1.4h-2v1h3.2v2h-3.2v.9h3.3v.5h-3.4c0 .3-.1.6-.1.9h4v.5h-3.7c.7.9 1.9 1.5 3.8 1.7-.1.2-.2.4-.3.6-2.1-.4-3.5-1.1-4-2.1-.4 1-1.8 1.7-4 2.2-.1-.2-.2-.4-.3-.6 2.1-.4 3.4-1 3.8-1.8h-3.4v-.5h3.6c.1-.3.1-.6.2-.9h-3.3v-.5h3.4c0-.3 0-.6 0-.9h-3.2v-2h3.3v-1h-2.1v-1.4h-1.7v-.5zm1.1 3.5v1h2.7c0-.3 0-.4 0-.4 0-.1 0-.2 0-.2 0-.1 0-.2 0-.3h-2.7zm1.2-3v.9h3.5v-.9zm4.7 3h-2.6v.6.4h2.6z" fill="#fbfcfa"/><path d="m393.6 386.7h.6v1.5h2.7v6.1h1.1v.6h-11v-.6h1.1v-6.1h2.7v-1.5h.6v1.5h2.1v-1.5zm-2.7 8.8.4.6c-1.2.6-2.5 1.3-3.8 1.9-.1-.2-.2-.4-.3-.6 1.2-.6 2.5-1.2 3.7-1.9zm-2.2-6.7v2.4h2.1v-2.4zm0 3v2.5h2.1v-2.5zm2.8-3v2.4h2.1v-2.4zm0 3v2.5h2.1v-2.5zm6 6.1c-1.4-.7-2.7-1.3-3.9-1.8l.3-.6c1.5.6 2.7 1.2 3.9 1.7zm-1.2-9.1h-2.1v2.4h2.1zm-2.1 3v2.5h2.1v-2.5z" fill="#fbfcfa"/><g fill="#010106"><path d="m166.9 374.71c.39-4.71.24-9.55 1.27-14.11 1.84-8.16 4.32-16.18 6.68-24.21 2.31-7.87 4.52-15.72 2.92-24.04-.34-1.74-.82-3.49-1.48-5.14-2.76-6.95-4.49-7.85-11.63-6.15-9.99 2.38-19.96 4.81-30.19 6.75 4.49-3.27 8.97-6.55 13.46-9.81 14.13-10.25 28.23-20.56 42.45-30.68 2.21-1.57 2.88-3.23 2.85-5.8-.12-10.17-.05-20.35-.05-30.88-6.44-.72-12.73-1.45-19.02-2.12-9.23-.99-18.48-1.88-27.7-2.94-1.5-.17-3.06-.75-4.35-1.54-19.54-11.89-28.64-29.12-26.72-52.08 1.65-19.75 5.72-38.91 13.3-57.27.51-1.23 1.06-2.47 1.75-3.61 16.73-27.53 33.48-55.05 50.24-82.56.45-.74.97-1.44 1.61-2.39.78 1.07 1.45 1.94 2.07 2.85 4.33 6.39 8.95 12.61 12.91 19.22 7.63 12.72 17.55 23.28 28.65 33.02 18.83 16.53 31.49 37.38 40.09 60.69 4.29 11.61 5.27 23.77.3 35.41-2.39 5.59-5.98 10.41-4.31 17.09.42 1.67-1.29 4.27-2.65 5.92-6.16 7.46-14.14 11.93-23.72 13.33-9.97 1.45-19.52 4.04-27.66 10.26-1.08.83-2.01 2.67-1.97 4.02.33 13.43.94 26.85 1.32 40.27.06 1.95 1.01 2.64 2.46 3.44 12.03 6.64 24.99 10.78 38.08 14.7 10.33 3.09 19.78 8.17 28.69 14.75-13.78-1.1-27.57-2.2-41.55-3.31-.66 6.05.47 11.65 2.34 17 3.08 8.85 6.74 17.51 9.94 26.32 1.86 5.13 3.69 10.33 4.85 15.64 1.33 6.08-.28 9.38-4.85 11.53-2.15-4.72-4.72-9.31-6.36-14.2-4.73-14.07-9.19-28.24-13.56-42.42-5.13-16.64-16.39-25.8-33.49-28.21-2.22-.31-3.17.23-3.89 2.29-4.29 12.23-5.46 24.9-5 37.7.66 18.22-3.72 34.78-15.04 49.29-.6.76-1.26 1.47-1.9 2.21-.39-.08-.76-.15-1.14-.23zm24.83-162.58c-2.8-14.07-5.45-27.76-8.26-41.43-1.23-5.98-5.19-9.71-10.73-11.94-8.24-3.32-16.91-4.01-25.66-4.33-3.34-.12-6.38.41-9.29 2.13-3.25 1.92-7.92 2.83-9.61 5.61-1.7 2.81-.56 7.37-.58 11.16-.05 11.25 1.51 22.12 8.03 31.67.76 1.11 2.28 2.06 3.61 2.37 8.69 2.03 17.49 3.6 26.11 5.84 8.65 2.26 17 1.67 26.38-1.08zm10.51 2.04c3.35-.28 6.46-.4 9.53-.81 17.13-2.28 27.65-14.52 38.77-25.83.15-.16.29-.35.36-.56 2.23-6.97 3.88-14.08 2.77-21.42-1.04-6.83-9.21-11.56-15.81-10.14-5.97 1.28-12.09 2.13-18.18 2.56-7.48.53-14.92.76-21.93 3.97-2.26 1.04-2.85 2.22-2.49 4.57 2.36 15.69 4.61 31.39 6.98 47.66zm-6.86-142.68c-.42.09-.84.19-1.27.28-.38 13.94-.96 27.87-1.08 41.81-.08 10.02 1.92 19.74 5.8 29.05.93 2.23 2.02 2.95 4.47 2.7 6.89-.71 13.82-1.09 20.72-1.65 7.66-.63 15.32-1.31 23.88-2.05-1.37-5.64-2.25-11.03-3.99-16.13-3.5-10.21-9.85-18.69-17.1-26.59-9.46-10.33-19.68-19.75-31.43-27.42zm-20.49-.4c-5.07 4.58-9.89 8.91-14.67 13.29-1.39 1.27-2.99 2.49-3.91 4.07-5.91 10.12-11.67 20.33-17.44 30.53-4.03 7.13-5.56 14.76-4.63 22.93.32 2.82 1.45 4.02 4.47 3.89 6.59-.27 13.19-.07 19.78-.33 7.75-.31 15.44-1.16 21.93-6.04.92-.69 1.9-2.06 1.91-3.12.13-14.3.4-28.62-.03-42.91-.25-7.82-2.28-15.44-7.41-22.31z"/><path d="m266.96 263.02c-6.46 3.08-12.45 1.56-18.55-1.44-4.42-2.18-7.41-4.77-7.72-10.13-.21-3.72-1.46-7.39-2.25-11.15 9.51 1.82 26.86 11.9 28.52 22.72z"/><path d="m138.66 357.1c.81-6.31 1.61-12.6 2.43-18.88.29-2.21.87-4.42.88-6.63.01-2.56 1.22-3.35 3.53-3.84 5.15-1.09 9.35 2.67 8.44 7.99-.29 1.72-1.09 3.38-1.79 5.01-1.32 3.07-3.21 5.98-4 9.17-1.23 4.92-3.83 7.5-9.49 7.18z"/><path d="m279.53 344.85c-3.18-.59-6.32-1.14-9.45-1.78-.5-.1-1.11-.48-1.34-.9-3.98-7.31-7.91-14.64-11.94-22.13 11.19-.4 23.41 12.99 22.73 24.81z"/><path d="m140.21 270.02c0-4.23-.08-8.43.07-12.61.03-.82.77-1.78 1.45-2.39 1.65-1.49 3.61-2.66 5.15-4.25 2.68-2.77 5.46-1.98 8.15-.41 2.98 1.73 1.91 4.35 1.07 6.81-.21.63-.48 1.25-.73 1.86-3.31 7.99-5.76 9.8-15.16 10.99z"/><path d="m156.79 172.83c7.35 2.53 9.54 6.76 7.81 14.12-.79 3.37-3.62 2.29-5.53 3.18-1.67.78-2.81.05-3.88-1.43-4.41-6.1-4.15-9.19 1.6-15.87z"/><path d="m216.64 170.99c7.46-.25 12.12 3.98 12.21 10.75.01.69-.52 1.8-1.08 2.03-2.96 1.21-6.01 2.19-9.18 3.31-.22-.76-.39-1.15-.44-1.56-.5-4.76-.99-9.51-1.51-14.53z"/><path d="m223.47 123.57c-3.05 0-5.83.11-8.6-.07-.76-.05-1.9-.79-2.13-1.47-1.8-5.25-3.41-10.56-5.1-15.91 9.57-1.06 15.14 4.54 15.83 17.45z"/><path d="m160.12 128.66c-1.64-6.24-3.28-12.45-5.23-19.85 4.4 1.73 8.15 2.91 11.57 4.73 1.03.55 1.66 2.92 1.53 4.37-.43 4.86-1.91 9.25-7.87 10.75z"/></g></svg>