<svg enable-background="new 0 0 400 400" viewBox="0 0 400 400" xmlns="http://www.w3.org/2000/svg"><path d="m204.64 290.86c-4.49 9.68-9.22 18.71-12.91 28.14-4.26 10.89-10.46 20.47-17.52 29.61-5.33 6.9-10.74 13.75-16.33 20.43-3.38 4.04-7.91 6.05-13.89 5.86.57-1.85.59-3.91 1.63-5 8.31-8.67 13.01-19.43 17.96-30.09 7.2-15.5 14.75-30.83 21.8-46.4 5.22-11.55 8.85-23.59 10.2-36.32 1.34-12.67-.24-24.7-5.86-36.19-3.22-6.58-11.99-11.01-18.87-8.73-7.72 2.56-15.21 5.81-22.86 8.6-6.44 2.36-13.12 4.45-19.98 2.89-6.39-1.46-12.66-3.65-18.8-6-3.81-1.45-5.57-4.58-5.83-8.2 21.22-.95 40.89-9 61.38-13.33.65-.14 1.27-.4 2.48-.8-1.7-.7-2.93-1.21-4.16-1.71-7.04-2.82-13.54-6.47-18.34-12.53-1.01-1.27-1.89-2.81-2.3-4.36-5.9-22.34-3.76-43.96 6.6-64.59 4.85-9.66 10.16-19.1 15.63-28.43 7.72-13.16 14.35-26.79 19.1-41.29.62-1.9.53-4.17.27-6.21-.43-3.41-1.27-6.78-2.06-10.79 1.63.47 2.94.61 4 1.2 9.77 5.36 16.83 13.25 20.9 23.6 1.94 4.93 1.01 6.82-2.95 10.26-1.65 1.43-2.91 3.31-4.6 5.28 7.84 4.61 15.5 8.77 22.8 13.48 17.2 11.11 28.91 26.48 34.42 46.29 2.42 8.71 1.88 17.52-.47 26.2-.34 1.25-1.07 2.45-1.84 3.51-6.25 8.57-12.55 17.1-19.05 25.94 6 2.2 11.87 2.16 17.74 1.86 5.02-.25 10.04-.88 15.06-.91 4.81-.03 9.35 1.19 12.56 5.24 2.17 2.73 1.85 3.88-1.48 5.11-1.45.53-3.01.87-4.55 1.08-17.5 2.38-35.01 4.75-52.53 7.03-4.43.57-8.9.78-13.35 1.17-4.37.38-8.67.95-11.84 4.78 4.99 5.25 10.83 9.06 17.01 12.5 12.11 6.74 25.23 10.8 38.34 14.9 2.52.79 4.13 2.16 5.51 4.4 9.39 15.36 18.87 30.65 28.41 45.92 3.17 5.07 5.22 10.32 4.23 16.62-3.11.55-5.7.44-8.39-1.76-5.15-4.2-9.69-8.72-13.47-14.28-8.13-11.94-16.98-23.4-28.03-32.85-5.07-4.34-10.57-8.18-16.1-12.41-.51.84-.75 1.17-.92 1.54-2.43 5.26-4.71 10.58-7.3 15.76-2.98 5.97-4.02 12.1-2.01 18.5.65 2.06 1.72 4.15 3.11 5.79 12.74 15.02 25.47 30.06 38.5 44.84 3.66 4.16 8.25 7.52 12.51 11.13 2.83 2.4 4.92 5.13 5.46 8.91.36 2.51-.68 3.76-3.14 4.02-4.02.42-7.63-.74-10.58-3.34-11.77-10.35-23.79-20.45-34.99-31.39-6.76-6.6-12.19-14.58-18.22-21.94-.56-.7-1.13-1.38-2.09-2.54zm-28.26-149.56c-.03-.33-.06-.66-.09-1-6.83.71-13.66 1.36-20.47 2.2-.97.12-2.3 1.02-2.65 1.89-3.95 9.71.89 23.76 10.39 28.37 6.58 3.2 13.68 5.36 20.65 7.67 2.02.67 4.45.56 6.62.26 5.8-.79 6.98-2.54 6.06-8.22-.12-.77-.17-1.56-.35-2.32-1.99-8.68-4.01-17.36-6.01-26.04-.51-2.2-1.81-3.01-4.11-2.88-3.33.21-6.69.07-10.04.07zm64.72-20.11c-1.2-2.76-2.12-5.54-3.53-8.04-9.17-16.33-22.96-27.73-39.32-36.26-5.9-3.08-6-2.9-10.59 1.72-2.69 2.7-2.99 5.15-.68 8.19 1.06 1.4 2.38 2.77 3.89 3.62 8.17 4.61 13.38 10.61 12.58 20.89-.27 3.5 1.6 7.83 5.84 8.86 6.17 1.5 12.49 2.42 18.79 3.29 4.3.61 8.7.84 13.02-2.27zm-33.17 37.61h1.21c0 5.47.1 10.95-.04 16.42-.07 2.58 1.42 3.47 3.29 2.73 2.7-1.08 5.95-2.27 7.51-4.46 6.01-8.43 11.56-17.2 17-26.02 1.22-1.98 1.53-4.63 1.81-7.02.11-.89-1-2.72-1.66-2.77-8.79-.69-17.62-1.43-26.25 1.18-2.15.65-3.06 2.06-2.94 4.54.25 5.12.07 10.27.07 15.4zm-31.74-60.82c-7.08 6.61-10.54 14.7-12.48 24.1 7.33-.93 14.26-1.8 21.13-2.67 1.01-8.48-3.56-19.54-8.65-21.43z" fill="#010104"/><path d="m150.43 221.97c1.47.53 3.11.91 4.53 1.68 8.24 4.46 14.78 10.78 19.81 18.64 2.48 3.88 1.98 13.59-.89 16.87-9.2 10.51-15.01 22.88-20.33 35.62-5.29 12.66-11.03 25.14-16.92 37.53-1.33 2.79-3.76 5.32-6.25 7.23-2.91 2.23-4.91 1.12-4.89-2.54.01-2.61.39-5.46 1.5-7.78 12.13-25.43 18.6-52.54 24.16-79.94.91-4.46 0-8.61-1.67-12.73-2.39-5.87-2.11-9.6.95-14.58z" fill="#010104"/><g fill="#fcfbfa"><path d="m385.2 377.6.6-.7c.6.4 1.3.9 1.9 1.5l-.6.7c-.8-.5-1.4-1-1.9-1.5zm.3 7.1c.6-1.4 1.1-2.9 1.5-4.5.3.1.6.3.9.4-.5 1.4-1 2.9-1.5 4.4zm.2-10.1.6-.6c.7.5 1.3 1.1 1.9 1.6l-.7.7c-.6-.6-1.2-1.2-1.8-1.7zm8.4-.8h.8v.9h1.8v.7h-1.8v1.8h-.8v-.3h-1.2v.9h3.3v2.6h-.8v-.4h-2.5c0 .3 0 .6-.1.8h3.4v.7h-3.5c0 .3-.1.6-.1.8h4v.7h-3.5c.7.9 1.9 1.3 3.6 1.5-.2.2-.4.5-.6.9-1.9-.3-3.2-1.1-3.8-2.3-.5 1.1-1.8 2-3.9 2.4-.2-.3-.4-.5-.6-.8 1.9-.4 3.1-.9 3.6-1.7h-3.2v-.7h3.5c.1-.2.1-.5.2-.8h-3.3v-.7h3.4c0-.2 0-.5 0-.8h-2.4v.3h-.8v-2.6h3.3v-.9h-1.2v.3h-.8v-1.8h-1.8v-.7h1.8v-.9h.8v.9h3.2zm-4.4 5.5h2.4c0-.3 0-.6 0-.9h-2.4zm1.2-3.1h3.2v-.8h-3.2zm4.4 2.2h-2.4v.9h2.5v-.9z"/><path d="m389.2 385.8h.9v1.5h1.9v-1.5h.9v1.5h2.7v6h1.1v.9h-11.3v-.9h1.1v-6h2.7zm.2 8.7.5.8c-1.2.6-2.5 1.3-4 1.9-.2-.3-.3-.6-.6-.8 1.6-.6 3-1.3 4.1-1.9zm-2-4.3h1.9v-2.1h-1.9zm0 3.1h1.9v-2.2h-1.9zm2.7-3.1h1.9v-2.1h-1.9zm0 3.1h1.9v-2.2h-1.9zm2.4 1.3c1.4.6 2.7 1.2 4.1 1.8l-.5.9c-1.5-.7-2.8-1.4-4.1-1.9zm2.2-6.5h-1.9v2.1h1.9zm-1.9 5.2h1.9v-2.2h-1.9z"/></g></svg>