<svg viewBox="0 0 400 400" xmlns="http://www.w3.org/2000/svg"><rect width="400" height="400" fill="white" /><path d="m276.4 206.5c-7 0-14 .2-21 0-17.3-.6-34.4 2-51.5 3.6-14.8 1.4-29.7 3.1-44.5 4.5-1.3.1-2.8-.1-4.1-.4-8.6-2.1-16.9-.5-25.4.7-19.7 2.9-37.8 11.1-56.7 16.5-3.1.9-5.9 3.2-8.6 5.2-2.5 1.9-5.3 2.3-8.3 2.5-4.1.2-8.1.8-12.2 1.1-.9.1-2.1-.3-2.6-.9-8.2-8.5-11.4-18.4-7.9-29.9.4-1.4 1.6-3.2 2.9-3.8 7.6-3.2 15.2-6.3 22.9-9.2 4.1-1.5 8.5-2.6 12.7-3.8 7.3-2.2 14.8-3 22.4-3.4 10.7-.5 21.4-2.4 32-4 9.5-1.4 18.9-3.6 28.5-4.6 7.2-.8 14.6-.5 21.9-.5s14.4-.4 20.9-4c.7-.4 1.8-.4 2.7-.3 2.4.2 4.9.3 7.2.9 5.4 1.4 9.9-.3 14.7-2.8 3.5-1.9 7.9-2.2 11.9-2.8 25.1-4.1 50.3-8.2 75.5-11.9 4.3-.6 9.1.5 13.4 1.6 10.8 2.7 21.4 5.9 30.8 12.1 1.9 1.3 3.7 2.8 5.2 4.5 3.2 3.5 3.6 7.3 1.1 11.3-.5.8-1.8 1.3-2.9 1.7-12.1 4.1-24.2 8.1-36.3 12.2-1.2.4-2.1 1.8-3.2 2.5-1 .6-2.1 1.3-3.1 1.3-12.8.1-25.6.1-38.4.1z"/></svg>