<svg viewBox="0 0 400 400" xmlns="http://www.w3.org/2000/svg"><rect width="400" height="400" fill="white" /><path d="m261.89 117.91c.39 0 .65-.08.82.01 9.44 4.69 18.42 1.69 27.41-1.58 1.78-.65 3.62-1.16 5.45-1.67.61-.17 1.61-.4 1.87-.11 3.82 4.35 6.97.89 10.28-.79.28-.14.6-.22 1.25-.46-1.02 4.08.71 5.68 4.52 6.45 3.48.7 5.36 4.88 4.57 8.45-.95 4.25-2.04 8.48-2.86 12.76-.4 2.08-1.49 3.07-3.27 4.15-6.84 4.14-14.14 4.14-21.68 3.19-1.36-.17-3.12-.19-4.14.52-6.2 4.34-13.12 6.3-20.55 6.11-6.15-.15-11.01 2.23-15.31 6.26-1.72 1.61-3.49 2.08-6.03 1.69-2.37-.36-4.99.62-7.45 1.22-1.28.32-2.55.94-3.63 1.71-9.68 6.82-21 8.42-32.26 10.3-2.39.4-4.86 1.1-6.95 2.26-5.19 2.88-5.37 9.1-.59 12.51 9.11 6.49 17.74 13.89 27.51 19.15 6.05 3.26 10.2 8.58 16.21 11.56 6 2.98 11.8 6.34 17.84 9.61 5.88-5.32 8.88-11.71 8.01-19.66-.34-3.11-.88-6.2-1.41-9.28-.52-3.02-1.7-5.61-4.01-7.86-4.02-3.92-5.48-9.05-5.9-15.34 2.65.61 4.93 1.31 7.26 1.65 8.54 1.25 13.34 6.36 17.72 13.71 5.66 9.49 8.41 19.2 8.74 30.02.19 6.25 1.24 12.47 1.63 18.72.22 3.42 2.09 5.34 4.92 6.51 1.73.72 3.65 1.32 5.5 1.36 5.72.14 10.17 2.68 14.22 6.48 1.68 1.58 3.99 2.47 5.76 3.97 1.24 1.05 2.93 2.65 2.88 3.93-.12 2.62-.11 5.74-3.15 7.25-2.2 1.09-4.44 2.1-6.89 3.26-.78-.89-1.47-1.9-2.38-2.65-2.4-1.97-4.45-4.94-8.4-2.85-.47.25-2.03-1.27-2.91-2.14-2.61-2.61-5.13-5.31-7.69-7.97-.4.19-.81.37-1.21.56-.57 2.11-1.07 4.25-1.73 6.33-1.06 3.35-1.64 7.02-3.44 9.92-9.43 15.2-19.18 30.2-28.88 45.37-1.81-.51-3.37-.95-5.47-1.55.92 8.91-4.24 14.37-9.97 19.69-5.08 4.71-9.82 9.78-14.7 14.69-.08-.39-.17-.78-.25-1.17-1.52 0-3.31-.53-4.5.1-3.85 2.02-7.5 4.45-11.18 6.78-.53.33-1.09.95-1.22 1.54-.88 3.82-3.77 4.82-7.1 5.5-3.39.7-6.74 1.62-10.07 2.58-2.63.75-5.21 1.7-7.66 2.51.82-4.33 1.95-5.43 6.27-5.52 3.92-.09 6.34-2.36 8.32-5.41 1.58-2.43 3.02-5 4.87-7.2 3.63-4.31 5.37-4.57 11.27-2.46.15-.13.43-.29.41-.39-1.03-5.57 1.73-9.31 5.9-12.4 2.83-2.1 4.25-4.93 4.94-8.4 1-5.06 1.18-5.02 6.14-6.66-1.23-3.98 1.27-6.73 3.7-9.32 6.28-6.69 9.81-14.81 12.9-23.26 2.49-6.82 5.01-13.66 8.04-20.25 2.29-4.99.93-9.88.8-14.84-.01-.47-.43-1.02-.81-1.37-2.37-2.19-4.77-4.33-6.94-6.28-1.3 1.13-2.93 3.07-3.37 2.83-1.51-.83-3.03-2.21-3.77-3.76-1.44-2.99-2.35-6.23-3.45-9.28-.45 0-.75-.1-.88.01-3.94 3.53-7.66 1.8-11.91.19-7.91-3.01-14.29-8.21-21.02-12.99-1.76-1.25-3.97-1.84-5.94-2.81-2.75-1.35-5.81-2.33-8.12-4.22-10.82-8.87-21.44-17.98-32.11-27.03-1.34-1.14-2.4-2.17-4.28-.61-.59.48-2.72.09-3.3-.6-1.85-2.24-3.83-2.15-5.93-.87-3.19 1.95-6.31 2.08-9.92.99-4.2-1.27-8.65-2.68-12.82.44-.33.25-.84.36-1.26.37-6.88.21-13.77.34-20.65.62-2.33.09-4.68.39-6.95.89-3.98.88-8.97-1.23-10.88-4.87-1.08-2.06-2.07-4.18-2.83-5.7 4.1-4.45 7.82-8.72 11.81-12.72 1.47-1.47 3.42-2.89 5.38-3.36 10.43-2.49 20.92-4.77 31.44-6.91 2.62-.53 3.39-1.61 3.31-4.22-.19-6.71.04-13.43-.14-20.15-.04-1.48-.76-3.26-1.76-4.35-3.12-3.36-4.14-6.49-2.15-11.16 1.7-3.98 2.28-8.69 2.31-13.08.07-9.95-.49-19.91-.83-29.86-.03-.99-.18-2.04-.57-2.93-2.58-5.89-.95-9.77 5.18-12.11.04.1.15.24.12.31-2.69 5.67.18 9.73 3.95 13.5 1.71 1.71 2.48 3.38 1.33 5.91-.54 1.19-.17 3.07.36 4.41 4.23 10.58 8.67 21.09 12.89 31.68.99 2.5 2.25 4.04 5.38 3.54-.08.04.26-.03.29-.16 1.37-6.24 5.86-9.71 11.03-12.65 1.84-1.05 3.54-2.35 5.28-3.57 3.58-2.51 7-6.15 11.49-1 2.22-3.68 4.3-6.86 6.1-10.18 1.86-3.44 4.21-6.21 7.81-7.96.98-.47 2.2-2 2.08-2.89-.64-4.93 1.43-8.97 3.78-12.91 2.51-4.2 2.78-8.56 1.88-13.26-.38-2.01-.47-4.38.23-6.23 2.83-7.46 2.81-14.62-1.29-21.5 4.42-4.81 6.41-4.43 10.41.25 6.9 8.06 14.34 15.66 21.36 23.62 1.37 1.55 2.16 3.79 2.71 5.85.69 2.58.85 5.3 1.2 7.67-2.24 2.25-4.82 4.62-7.14 7.22-3.15 3.53-.2 6.32 1.63 9.24-4.65 5.61-9.27 11.07-13.73 16.67-.8 1-1.52 2.7-1.24 3.82 1.01 4.05.26 7.43-2.61 10.46-.99 1.04-1.83 2.29-2.51 3.56-1.41 2.6-3.25 4.02-6.42 3.58-1.06-.14-2.34.57-3.39 1.13-5.51 2.94-10.98 5.95-16.51 8.97-1.43-1.35-2.72-2.57-4.29-4.06-3.88 3.15-8.34 2.43-12.96 2.06-3.54-.28-7.18.71-11.26 1.2-.61-.84-1.65-2.25-2.72-3.71-2.18 3.2-2.17 3.38.94 17.66 5.89 1.49 7.71-3.52 10.49-6.9 4.98 5.42 7.89 5.17 12.39-.67.64-.82 2.07-1.86 2.81-1.65 6.33 1.83 12.23-.21 18.05-1.99 4.71-1.44 8.95-.39 13.41.69 1.62.39 3.71.04 5.25-.67 3.13-1.45 6.25-3.11 9-5.17 4.18-3.13 8.67-3.81 13.57-2.76 5.33 1.14 10.4.33 15.44-1.51 1.74-.64 2.98-1.25 2.92-3.36-.06-.85.36-1.7.56-2.49z" fill="#010102"/><path d="m239.65 267.96c-2.55 1.41-3.97 2.08-5.27 2.94-1.79 1.17-3.4 1.23-5.58.67-5.47-1.4-10.95-.34-15.97 1.96-6.39 2.93-12.56 6.34-18.79 9.6-1.53.8-2.74 1.34-4.56.2-1.22-.77-3.18-.63-4.76-.45-1.4.16-2.93.66-4.05 1.49-5.67 4.25-11.93 5.56-18.92 4.74-1.91-.23-4.15.82-5.98 1.77-9.59 4.97-19.55 8.14-30.53 7.41-4.91-.32-9.51.64-14.34 2.21-10.62 3.46-21.31 7.81-33.51 4.98.98-4.54 1.93-9.18 3.04-13.77.14-.57 1.08-1.2 1.75-1.33 2.69-.56 5.46-1.46 8.12-1.26 5.39.41 9.28-1.44 12.2-5.93.73-1.11 2.15-2.19 3.42-2.45 5.03-1.01 10.16-1.58 15.2-2.55 1.53-.29 3.24-1.02 4.31-2.1 1.79-1.82 3.62-2.85 6.18-2.46 2.95.45 5.42-.58 7.76-2.33 2.24-1.67 4.74-2.98 6.96-4.67 2.27-1.73 4.36-2.77 7.28-1.3.84.43 2.53-.25 3.57-.86 5.74-3.41 10.94-7.83 17.73-9.21.33-.07.64-.29.96-.29 6.78.06 12.48-2.61 17.76-6.66.81-.62 2.68-.17 3.95.18 2.88.8 5.21 1.93 8.71.37 2.2-.98 6.85 1.02 9.04 3.12 3.88 3.72 7.79 6.63 12.93 8.5 3.9 1.43 7.16 4.62 11.39 7.48z" fill="#010102"/><g fill="#fcfbfa"><path d="m377.9 391.2c-.2.3-.4.5-.6.8-.7-.6-1.4-1-2.2-1.5.2-.3.4-.5.5-.8.6.4 1.4.8 2.3 1.5zm-1.8 6.1c-.2-.2-.5-.4-.9-.6.4-.6.8-1.2 1.2-1.9s.7-1.3.9-1.9c.3.3.5.5.8.7-.7 1.3-1.4 2.6-2 3.7zm2.2-9c-.3.3-.5.5-.6.8-.6-.6-1.3-1.1-2-1.5.3-.3.5-.5.6-.7.6.5 1.3.9 2 1.4zm.3.2v-.9h2 4.5c-.3 1.3-.6 2.5-1 3.6s-.9 2.1-1.4 3c.4.5 1 1 1.6 1.4s1.2.8 1.9 1.1c-.3.2-.5.4-.8.8-.4-.3-1-.7-1.6-1.2s-1.2-1.1-1.6-1.6c-.5.6-1.1 1.1-1.7 1.6s-1.4.9-2.1 1.4c-.1-.3-.3-.5-.7-.8.6-.2 1.2-.5 1.9-1s1.4-1.1 2-1.8c-.5-.8-.9-1.6-1.2-2.5s-.6-2-.8-3.2c-.4.1-.7.1-1 .1zm2.5 2.7c.3 1 .7 1.7 1 2.2.3-.5.6-1.1 1-2s.6-1.9.9-3h-3.2-.4c.1.9.3 1.8.7 2.8z"/><path d="m396.5 388.5v1.5 3.6h1.5v.9c-.4 0-1 0-1.7 0h-7.9c-.5 0-.9 0-1.2 0v-.9h1.3v-3.5c0-.7 0-1.2 0-1.6h2.4c0-.8 0-1.4 0-1.7h1c0 .3-.1.8-.1 1.7h1.5c0-.8 0-1.4 0-1.7h1c0 .3-.1.9-.1 1.7zm-8.2 9.2c-.2-.3-.5-.5-.8-.8.8-.3 1.4-.6 1.9-.9s1-.7 1.4-1.1c.3.3.6.5.9.8-1.6 1-2.8 1.6-3.4 2zm2.6-6.8v-1.6h-1.5v1.6zm0 2.7v-1.9h-1.5v1.9zm2.4-2.7v-1.6h-1.5v1.6zm0 2.7v-1.9h-1.5v1.9zm.2 2 .7-.8c.4.2.9.5 1.6.8s1.3.7 1.8 1c-.3.3-.5.5-.8.8-.4-.3-1.5-1-3.3-1.8zm2-4.7v-1.6h-1.4v1.6zm0 2.7v-1.9h-1.4v1.9z"/></g></svg>