<svg viewBox="0 0 400 400" xmlns="http://www.w3.org/2000/svg"><rect width="400" height="400" fill="white" /><path d="m371.74 167.72c.02 5.63-1.37 7.55-6.69 9.12-12.13 3.59-24.64 4.16-37.17 4.65-20.78.82-41.69.55-62.3 2.9-17 1.94-33.87 6.23-50.41 10.89-29.24 8.24-58.26 17.33-87.21 26.56-8.25 2.63-16.14 6.61-23.84 10.66-3.41 1.79-5.95 5.26-8.84 8.01-2.24 2.14-4.2 4.63-6.66 6.46-2.84 2.11-6.12 2.63-9.84 1.9-8.33-1.64-16.78-2.71-25.14-4.22-2.11-.38-4.13-1.45-6.11-2.36-5.47-2.52-10.88-5.18-16.36-7.67-4.18-1.9-7.46-4.39-8.12-9.38-.33-2.47.36-3.58 2.89-4.12 8.96-1.92 17.92-3.87 26.79-6.18 6.25-1.63 12.45-3.56 18.47-5.89 13.44-5.19 26.8-10.62 40.11-16.17 3.64-1.52 7.07-2.3 10.99-1.32 1.58.39 3.59.18 5.12-.46 11.11-4.66 22.06-9.72 33.24-14.18 3.98-1.58 8.46-1.96 12.74-2.7 34.59-5.97 69.13-12.24 103.8-17.68 18.2-2.86 36.63-4.33 54.99-6.15 2.88-.29 5.95.79 8.87 1.48 7.39 1.74 14.81 3.42 22.11 5.52 5.61 1.62 8.56 5.57 8.57 10.33z" fill="#010105"/><g fill="#fcfbfa"><path d="m377.9 391.2c-.2.3-.4.5-.6.8-.7-.6-1.4-1-2.2-1.5.2-.3.4-.5.5-.8.6.4 1.4.8 2.3 1.5zm-1.8 6.1c-.2-.2-.5-.4-.9-.6.4-.6.8-1.2 1.2-1.9s.7-1.3.9-1.9c.3.3.5.5.8.7-.7 1.3-1.4 2.6-2 3.7zm2.2-9c-.3.3-.5.5-.6.8-.6-.6-1.3-1.1-2-1.5.3-.3.5-.5.6-.7.6.5 1.3.9 2 1.4zm.3.2v-.9h2 4.5c-.3 1.3-.6 2.5-1 3.6s-.9 2.1-1.4 3c.4.5 1 1 1.6 1.4s1.2.8 1.9 1.1c-.3.2-.5.4-.8.8-.4-.3-1-.7-1.6-1.2s-1.2-1.1-1.6-1.6c-.5.6-1.1 1.1-1.7 1.6s-1.4.9-2.1 1.4c-.1-.3-.3-.5-.7-.8.6-.2 1.2-.5 1.9-1s1.4-1.1 2-1.8c-.5-.8-.9-1.6-1.2-2.5s-.6-2-.8-3.2c-.4.1-.7.1-1 .1zm2.5 2.7c.3 1 .7 1.7 1 2.2.3-.5.6-1.1 1-2s.6-1.9.9-3h-3.2-.4c.1.9.3 1.8.7 2.8z"/><path d="m396.5 388.5v1.5 3.6h1.5v.9c-.4 0-1 0-1.7 0h-7.9c-.5 0-.9 0-1.2 0v-.9h1.3v-3.5c0-.7 0-1.2 0-1.6h2.4c0-.8 0-1.4 0-1.7h1c0 .3-.1.8-.1 1.7h1.5c0-.8 0-1.4 0-1.7h1c0 .3-.1.9-.1 1.7zm-8.2 9.2c-.2-.3-.5-.5-.8-.8.8-.3 1.4-.6 1.9-.9s1-.7 1.4-1.1c.3.3.6.5.9.8-1.6 1-2.8 1.6-3.4 2zm2.6-6.8v-1.6h-1.5v1.6zm0 2.7v-1.9h-1.5v1.9zm2.4-2.7v-1.6h-1.5v1.6zm0 2.7v-1.9h-1.5v1.9zm.2 2 .7-.8c.4.2.9.5 1.6.8s1.3.7 1.8 1c-.3.3-.5.5-.8.8-.4-.3-1.5-1-3.3-1.8zm2-4.7v-1.6h-1.4v1.6zm0 2.7v-1.9h-1.4v1.9z"/></g></svg>