<svg enable-background="new 0 0 400 400" viewBox="0 0 400 400" xmlns="http://www.w3.org/2000/svg"><path d="m110.43 139.42c3.29 5.27 5.19 10.8 5.61 16.82.3 4.24.28 8.52.86 12.72 2.46 17.96 13.2 29.87 29 37.16 14.11 6.51 29.38 8.25 45.61 8.05 0-4.47-.03-8.9.01-13.33.14-17.35.26-34.7.5-52.05.03-2.39-.5-3.57-3.1-4.02-8.92-1.53-17.87-3.01-26.67-5.07-13.35-3.13-24.69-9.58-31.32-22.15-8.39-15.92-10.68-32.72-6.76-50.42 1.08-4.87 4.57-4.96 8.33-5.69 3.29 5.56 4.99 11.6 4.98 18.1-.02 8.05-.84 16.21 2.12 23.92 4.03 10.47 11.09 18.23 22.18 21.1 9.59 2.48 19.41 4.07 29.54 6.14.69-4.24 1.73-8.05 1.85-11.89.4-13.07.61-26.14.65-39.21.04-13.97 4.76-25.8 15.28-35.14 1.22-1.08 2.69-2.07 4.22-2.57 15.26-5.07 30.51-10.17 45.88-14.92 3.18-.98 6.8-.7 10.22-.69 2.94.01 4.59 2.01 5.54 4.62.62 1.71.52 2.93-1.24 4.25-7.79 5.86-16.49 9.3-26.1 10.63-7.57 1.05-14.8 3.13-21.78 6.38-7.73 3.59-12.99 9.16-15.01 17.34-1.57 6.37-3.02 12.9-3.34 19.42-.59 12.17-.22 24.39-.46 36.59-.06 2.75.96 3.64 3.44 4.05 9.2 1.5 17.89-.67 26.17-4.16 14.33-6.04 22.21-16.94 23.01-32.71.39-7.6.89-15.19 1.56-22.77.16-1.81.85-3.78 1.89-5.26 3.05-4.34 8.64-3.69 10.7 1.1 3.41 7.92 3.77 16.26 1.68 24.37-2.4 9.27-5.52 18.39-9 27.32-4.36 11.21-14.1 16.93-24.31 21.85-7.94 3.82-16.65 4.1-25.17 5.19-2.33.3-4.67.66-7.01.71-2.38.05-2.92 1.12-2.94 3.33-.12 19.25-.34 38.5-.54 57.76v.67c-.03 6.93.17 7.24 7.13 7.31 16.27.15 31.57-4.44 44.61-13.51 10.99-7.65 17.79-19.51 20.11-33.07 1.01-5.89.61-12.02.81-18.05.18-5.5 2.64-8.77 7.29-9.92 1.85-.46 2.76-.07 3.66 1.69 4.26 8.33 5.46 17.01 3.01 26.03-1.58 5.82-3.79 11.47-5.32 17.3-2.32 8.87-7.95 15.22-14.67 21.02-11.59 10-24.49 17.27-39.75 19.67-5.84.92-11.79 1.12-17.69 1.72-1.55.16-3.1.48-4.59.91-3.23.91-4.81 2.67-4.79 6.49.16 35.38.08 70.76.1 106.14 0 7.27.22 14.55.1 21.82-.04 2.42-.38 5-1.35 7.18-.79 1.78-2.45 3.55-4.18 4.45-3.67 1.91-5.99 1.01-7.07-2.99-1.12-4.16-1.97-8.53-2-12.81-.3-42.09-.43-84.18-.49-126.27 0-3.13-.9-4.04-4.06-4.4-12.77-1.43-25.75-2.18-38.18-5.15-27.26-6.51-48.09-34.01-48.08-62.05 0-5.11.97-10.21 1.43-15.32.28-3.06 1.65-4.94 4.91-5.12.9-.06 1.76-.36 2.98-.61z" fill="#010103"/><g fill="#fcfbfa"><path d="m385.2 377.6.6-.7c.6.4 1.3.9 1.9 1.5l-.6.7c-.8-.5-1.4-1-1.9-1.5zm.3 7.1c.6-1.4 1.1-2.9 1.5-4.5.3.1.6.3.9.4-.5 1.4-1 2.9-1.5 4.4zm.2-10.1.6-.6c.7.5 1.3 1.1 1.9 1.6l-.7.7c-.6-.6-1.2-1.2-1.8-1.7zm8.4-.8h.8v.9h1.8v.7h-1.8v1.8h-.8v-.3h-1.2v.9h3.3v2.6h-.8v-.4h-2.5c0 .3 0 .6-.1.8h3.4v.7h-3.5c0 .3-.1.6-.1.8h4v.7h-3.5c.7.9 1.9 1.3 3.6 1.5-.2.2-.4.5-.6.9-1.9-.3-3.2-1.1-3.8-2.3-.5 1.1-1.8 2-3.9 2.4-.2-.3-.4-.5-.6-.8 1.9-.4 3.1-.9 3.6-1.7h-3.2v-.7h3.5c.1-.2.1-.5.2-.8h-3.3v-.7h3.4c0-.2 0-.5 0-.8h-2.4v.3h-.8v-2.6h3.3v-.9h-1.2v.3h-.8v-1.8h-1.8v-.7h1.8v-.9h.8v.9h3.2zm-4.4 5.5h2.4c0-.3 0-.6 0-.9h-2.4zm1.2-3.1h3.2v-.8h-3.2zm4.4 2.2h-2.4v.9h2.5v-.9z"/><path d="m389.2 385.8h.9v1.5h1.9v-1.5h.9v1.5h2.7v6h1.1v.9h-11.3v-.9h1.1v-6h2.7zm.2 8.7.5.8c-1.2.6-2.5 1.3-4 1.9-.2-.3-.3-.6-.6-.8 1.6-.6 3-1.3 4.1-1.9zm-2-4.3h1.9v-2.1h-1.9zm0 3.1h1.9v-2.2h-1.9zm2.7-3.1h1.9v-2.1h-1.9zm0 3.1h1.9v-2.2h-1.9zm2.4 1.3c1.4.6 2.7 1.2 4.1 1.8l-.5.9c-1.5-.7-2.8-1.4-4.1-1.9zm2.2-6.5h-1.9v2.1h1.9zm-1.9 5.2h1.9v-2.2h-1.9z"/></g></svg>