<svg enable-background="new 0 0 400 400" viewBox="0 0 400 400" xmlns="http://www.w3.org/2000/svg"><path d="m175.7 199.78c3.95-13.59 7.58-26.93 3.79-40.97-.39-1.44-1.66-2.73-2.73-3.88-3.19-3.43-7.18-6.32-9.6-10.2-6.13-9.84-11.6-20.09-17.24-30.24-.91-1.64-1.38-3.54-1.93-5.35-1.56-5.14 1.56-8.68 6.91-7.39 4.67 1.13 8.97 3.1 11.85 7.49 3.43 5.23 7.02 10.43 11.11 15.13 2.56 2.95 6.11 5.08 9.4 7.3.61.41 2.74-.19 3.17-.92 7.4-12.49 10.59-25.82 6.67-40.12-.87-3.16-3.13-6.09-5.25-8.72-8.87-10.93-18.3-21.42-26.77-32.64-4.73-6.26-6.58-13.92-4.78-21.98.16-.74.46-1.44.73-2.26 5.1.47 9.26 2.64 12.32 6.34 8.19 9.9 18.45 17.56 27.68 26.32 4.83 4.59 8.57 10.31 13.01 15.33 3.25 3.67 6.81 7.05 10.28 10.52 1.58 1.58 3.4 2.93 4.9 4.58 3.4 3.73 3.61 6.5 1.11 10.84-2.57 4.46-5.44 8.77-7.59 13.42-1.59 3.45-2.73 7.28-3.19 11.05-.55 4.49-1.74 8.46-4.69 11.93-3.44 4.03-4.81 8.57-2.63 10.22 3.11 2.35 7.08 1.57 10.11-.25 6.39-3.85 12.55-8.13 18.59-12.52 6.33-4.59 12.25-9.74 18.66-14.21 4.43-3.09 8.23-3.58 12.25-2.84.65 2.68.38 4.96-1.96 7.08-9.2 8.32-18 17.09-27.46 25.1-7.96 6.74-18.16 9.46-27.66 13.33-1.14.46-2.25 1.09-3.44 1.31-6 1.13-8.77 5.02-9.67 10.76-1.84 11.79-3.79 23.57-5.67 35.21 7.53 3.68 14.61 4.01 21.67 2.02 9.24-2.6 18.25-6.02 27.52-8.48 6.77-1.8 13.79-2.65 20.72-3.82 1.3-.22 2.88-.4 3.96.14 1.33.66 2.9 1.96 3.19 3.25.28 1.23-.56 3.27-1.59 4.14-6.32 5.35-13.89 8.18-21.66 10.89-16.61 5.79-33.48 10.46-50.86 13.15-3.31.51-4.84 2.23-5 5.15-.23 4.22-.44 8.51.03 12.69 1.32 11.55 2.92 23.07 4.56 34.58.88 6.16 3.18 11.6 7.2 16.64 14.45 18.1 28.49 36.53 42.78 54.75 2.41 3.07 5.28 5.78 8.02 8.57 2.76 2.81 3.11 5.62 1.08 10.15-1.32 2.94-4.16 3.34-6.56 2.82-10.65-2.32-20.92-5.19-27.08-15.71-11.3-19.3-22.7-38.55-34.6-57.48-5.6-8.9-8.71-18.4-11.12-28.47-3.26-13.64-3.94-27.46-3.73-41.3.12-7.75-1.93-13.16-9.27-16.4-2.34-1.04-4.32-3.14-6.15-5.06-8.87-9.33-17.59-18.79-26.45-28.13-2.38-2.51-5.05-4.73-7.6-7.08-.66-.61-1.63-1.06-1.95-1.81-.75-1.78-1.88-3.85-1.52-5.51.22-1.02 2.84-1.87 4.5-2.16 4.7-.82 8.75 1.1 12.59 3.57 6.67 4.29 13.39 8.51 20.01 12.88 1.14.76 2.04 2.02 2.79 3.22 3.59 5.68 8.02 10.45 14.24 14.03z" fill="#010102"/><g fill="#fafbfa"><path d="m6.4 11.7c-1-.8-1.9-1.6-2.9-2.3l.6-.7c.9.7 1.9 1.4 2.9 2.2zm-2.1 8.3c.7-2.1 1.4-4.2 2-6.4.2.1.6.3 1 .4-.7 2.3-1.3 4.4-1.9 6.4zm3-12.8c-1.1-.9-2.1-1.7-2.9-2.4l.6-.7c1 .8 2 1.5 3 2.4zm1.4-1.3v-.9h10.2v.9c-.9 4.2-2.3 7.3-4.1 9.4 1.3 1.4 3.2 2.7 5.7 4-.2.2-.4.5-.7.9-2.5-1.4-4.4-2.7-5.7-4.2-1.4 1.5-3.5 3-6.1 4.4 0 0 0 0-.1-.1-.3-.4-.5-.7-.7-.8 2.7-1.3 4.7-2.8 6.2-4.2-1.8-2.2-3-5.3-3.7-9.4zm9.2 0h-7.1c.6 3.8 1.7 6.7 3.4 8.7 1.7-2 2.9-4.8 3.7-8.7z"/><path d="m31.6 3.6h.9v2.3h4.1v9.1h1.7v.9h-16.6v-.9h1.7v-9.1h4.1v-2.3h.9v2.3h3.1v-2.3zm-4 13.3.6.8c-1.9.9-3.8 1.9-5.8 2.8-.2-.3-.3-.6-.5-.9 2-.9 3.9-1.8 5.7-2.7zm-3.2-10.1v3.7h3.1v-3.7zm0 4.5v3.7h3.1v-3.7zm4.1-4.5v3.7h3.1v-3.7zm0 4.5v3.7h3.1v-3.7zm9.1 9.1c-2.1-1.1-4.1-2-5.8-2.7l.5-.8c2.2.9 4.1 1.8 5.8 2.6zm-1.9-13.6h-3.1v3.7h3.1zm-3.2 4.5v3.7h3.1v-3.7z"/></g></svg>