<svg enable-background="new 0 0 400 400" viewBox="0 0 400 400" xmlns="http://www.w3.org/2000/svg"><g fill="#fbfafc"><path d="m12.4 4.8-6.1 9h6v1.2h-8v-.5l6.1-8.9h-5.7v-1.2h7.6v.4z"/><path d="m14 15v-10.6h3c1.6 0 2.9.5 4 1.4s1.6 2.2 1.6 3.8-.5 3-1.6 3.9-2.4 1.5-4 1.5zm1.4-9.4v8.2h1.6c1.3 0 2.4-.4 3.1-1.1s1.1-1.8 1.1-3.1-.4-2.3-1.2-3-1.8-1-3.1-1z"/><path d="m26.1 4.4v10.6h-1.4v-10.6z"/><path d="m36.1 14.6c-.8.4-1.8.6-2.9.6-1.5 0-2.7-.5-3.6-1.4s-1.4-2.2-1.4-3.8c0-1.7.5-3.1 1.5-4.1s2.3-1.6 3.9-1.6c1 0 1.8.1 2.5.4v1.4c-.8-.4-1.6-.6-2.5-.6-1.2 0-2.1.4-2.9 1.2s-1.1 1.8-1.1 3.2c0 1.3.3 2.3 1 3s1.6 1.1 2.7 1.1c1 0 2-.2 2.7-.7v1.3z"/><path d="m37.6 14.3c0-.2.1-.5.3-.6s.4-.3.6-.3c.3 0 .5.1.6.3s.3.4.3.6-.1.4-.3.6-.4.3-.6.3c-.3 0-.5-.1-.6-.3s-.3-.4-.3-.6z"/><path d="m50.2 15h-1.6l-5.3-8.2c-.2-.2-.3-.5-.4-.7 0 .2.1.7.1 1.5v7.4h-1.4v-10.6h1.7l5.2 8.1c.2.4.4.6.4.7 0-.3-.1-.8-.1-1.5v-7.3h1.4z"/><path d="m58.6 15h-5.7v-10.6h5.5v1.2h-4.1v3.4h3.8v1.2h-3.8v3.6h4.3z"/><path d="m67.1 5.6h-3.1v9.4h-1.4v-9.4h-3v-1.2h7.5z"/></g><path d="m245.78 288.55c-10.75 15.84-20.87 30.72-30.95 45.62-.42.62-.97 1.5-.83 2.12 1.58 6.75-1.16 13.02-2.09 19.47-.89 6.18-2.26 12.29-3.45 18.57-1.9.26-3.64.5-5.84.79-.68-7.42-1.35-14.62-2.01-21.82-.24-2.67-.33-5.37-.77-8.01-.18-1.07-.89-2.26-1.72-2.99-10.08-8.87-20.23-17.66-30.37-26.46-4.57-3.97-8.27-3.28-12.71.56-9.03 7.81-18.52 15.1-27.89 22.51-1.27 1.01-2.96 1.5-4.65 2.32-1.51-2.89-2.14-5.28-.21-8.17 4.09-6.14 7.94-12.44 11.72-18.78.98-1.65 1.72-3.66 1.85-5.56.51-7.03.52-14.1 1.14-21.12.26-2.92 1.23-5.91 2.5-8.57 1.3-2.72 5.07-2.83 6.62-.38 7.22 11.45 17.62 19.88 27.31 28.98 5.86 5.5 11.61 11.12 17.57 16.5 1.16 1.05 3.41 2.09 4.56 1.63 1.23-.48 2.5-2.76 2.48-4.24-.25-15.86-.75-31.73-1.2-47.91-4.15-.67-8.55-1.25-12.89-2.15-1.39-.29-3.09-1.06-3.84-2.15-8.96-13.06-23.18-19.75-35.19-29.73-4.71 7.77-8.77 15.52-13.84 22.55-6.16 8.56-12.02 17.55-21.33 23.34-1.44.9-2.36 2.61-3.57 3.9-3.49 3.73-6.66 7.86-10.61 11.03-3.44 2.77-5.53 1.61-5.61-2.98-.12-6.75 1.97-13.03 6.25-18.32 8.43-10.4 16.29-21.23 19.97-34.24 2.43-8.57 3.35-17.55 5.12-26.32 1.02-5.04 2.31-10.02 3.6-14.99 1.12-4.3 3.66-7.35 8.15-8.49 1.71-.44 3.1-.32 3.54 1.75.02.11.08.21.11.32 1.85 8.47 7.17 14.18 14.17 18.96 14.29 9.74 23.81 23.71 32.47 38.27 4.77 8.02 7.59 11.85 11.9 14.3 2.55-3.69 2.74-7.96 1.75-11.92-3.42-13.82-3.72-27.95-4.21-42-.37-10.61-4.5-19.92-7.39-29.9-4.31.51-8.47.67-12.47 1.54-9.29 2.01-18.45.98-27.65-.47-4.42-.69-8.85-1.41-13.3-1.75-4.67-.35-8.85-1.85-12.09-5.1-6.85-6.89-13.43-14.05-20.16-21.06-2.9-3.02-1.75-6.74-1.85-10.21-.14-5.09-.05-5.19 5.06-5.71 7.04-.72 13.8.85 20.45 2.91 11.01 3.42 22.14 5.13 33.74 3.93 3.43-.36 7.04.93 10.56 1.47 3.39.52 6.52.38 8.51-3.56-8.86-8.8-5.76-19.41-3.49-29.58 2.3-10.34 5.15-20.62 8.61-30.63 3.49-10.11 4.74-20.41 5.11-30.95.19-5.48-.05-11.07 1.02-16.39.86-4.29 3.27-8.3 5.23-12.32.82-1.67 2.34-1.54 4.02-.68 6.26 3.23 9.18 10.02 7.75 17.71-.53 2.89-1.13 6.09-.41 8.82 1.9 7.21-1.13 13.65-2.25 20.38-1.37 8.27-2.61 16.57-4.22 24.79-.63 3.23.86 4.58 3.44 4.75 3.41.22 7 .39 10.28-.41 22.04-5.38 44.01-11.03 66.02-16.55 2.16-.54 4.38-.9 6.59-1.17 4.14-.51 7.96.07 11.18 3.16 2.09 2.01 4.5 3.68 6.73 5.56 3.17 2.67 2.94 5.4-.45 7.56-19.04 12.12-40.25 18.53-62.2 21.91-16.37 2.52-31.47 8.18-46.58 14.31-.29.12-.53.36-.77.53 2.63 9.48 6.07 11.17 16.16 10.04 6.4-.72 12.68-2.58 19-4.01.83-.19 1.58-.76 2.33-1.23 15.46-9.51 32.36-14.99 50.17-17.9.31-.05.66.08.97.13 2.01 5.65 1.62 6.97-3.04 10.22-13.3 9.29-26.59 18.59-39.89 27.89-.83.58-1.6 1.47-2.51 1.64-9.49 1.86-15.2 9.35-22.44 14.63-4.51 3.29-5.54 7.27-4.75 12.13 1.4 8.58 3.06 17.12 4.58 25.69 1.44 8.14 2.83 16.29 4.3 24.42.2 1.11.74 2.15 1.13 3.22 1.14-.48 2.61-.66 3.36-1.5 10.79-12.07 18.62-25.64 21.07-41.93.83-5.53 1.92-11.02 3.02-16.5.96-4.82 3.04-5.53 6.88-2.42 1.03.84 1.86 1.92 2.78 2.89 1.56 1.63 2.92 3.38 5.57 1.25.7-.56 2.96-.06 3.92.7 6.78 5.31 13.81 10.41 19.92 16.42 3.35 3.3 5.77 8.01 7.39 12.52 3.28 9.12 5.23 18.69 9.53 27.49.87 1.79.58 4.14.9 6.92-5.11-2.06-9.03-3.57-11.05-8.24-4.18-9.66-10.59-17.77-18.11-25.12-3.9-3.81-7.14-8.3-10.67-12.48-.58-.68-1.08-1.44-1.71-2.07-3.32-3.29-5.02-3.01-7.08 1.06-3.53 6.98-7.11 13.94-10.62 20.93-.54 1.08-1.28 2.29-1.24 3.41.17 4.5-2 7.76-4.84 10.96-5.13 5.77-10.12 11.68-14.92 17.72-1.29 1.63-2.41 3.96-2.4 5.97.03 11.85.35 23.69.75 35.54.05 1.61 1.09 3.18 2.28 4.71 6.81-13.03 16.73-24.03 19.93-38.51.91-4.13 4.06-6.52 7.79-8.72 5.43 6.39 11.16 12.55 16.21 19.22 6.94 9.18 13.41 18.71 19.97 28.16 1.9 2.74 3.78 5.6 5.03 8.67.93 2.3.84 5.02 1.3 8.29 3.9.44 4.29 4.77 5.66 8.31 2.21 5.7 4.3 11.46 6.48 17.3-2.64 1.04-4.48 1.03-6.47-1.13-12.2-13.27-24.59-26.36-36.83-39.59-2.35-2.54-4.11-5.63-6.52-8.09-2.67-2.73-5.77-5.05-9.31-8.09z" fill="#000001"/></svg>