<svg enable-background="new 0 0 400 400" viewBox="0 0 400 400" xmlns="http://www.w3.org/2000/svg"><path d="m184.9 218.64c-9.17-3.27-18.13-6.69-27.24-9.67-13.72-4.49-26.1-11.07-36.3-21.47-1.64-1.67-3.45-3.21-5.34-4.6-3.45-2.55-6.18-5.28-5.73-10.15.12-1.28-1.26-2.73-2.04-4.05-1.93-3.3-3.9-6.57-5.99-10.08 8.31-4.46 16.08-4.73 23.88-2.14 10.66 3.54 20.54 8.62 29.72 15.21 9.93 7.13 20.6 13 32.59 16.1 2.29.59 3.77.25 4.82-2.05 4.01-8.74 6.18-17.8 4.05-27.34-.53-2.36-2.25-4.94-4.18-6.44-20.27-15.67-40.71-31.14-61.07-46.7-1.03-.79-2.3-1.72-2.67-2.85-1.87-5.74-5.69-10.15-9.74-14.28-3.75-3.82-3.91-8.07-2.64-12.69.89-3.23 1.94-6.43 3.27-9.5.5-1.14 1.83-2.28 3.04-2.7 7.11-2.46 13.93-.89 20.42 2.23 12.05 5.79 21.35 15.38 31.81 23.36 7.24 5.52 15.08 9.99 23.93 12.85 2.71-2.8 3.24-6.37 2.36-9.67-3.05-11.47-1.31-22.92-.32-34.35.57-6.55.55-12.95-1.24-19.26-.61-2.14-.11-3.69 1.46-5.07 1.18-1.03 2.27-2.16 3.51-3.12 8.04-6.22 13.69-5.92 21.46.72 7.74 6.61 11.14 14.4 7.41 24.42-.12.31-.24.63-.31.96-1.44 6.29-2.1 13.21-11.7 12.83.23.31.46.62.68.92 2.62.34 5.23.68 8.13 1.05.67 8.01 1.39 15.91 1.96 23.81.47 6.4.9 7.19 6.93 4.89 10.09-3.86 19.88-8.52 29.78-12.88.7-.31 1.45-.75 1.92-1.33 4.68-5.86 11.02-3.72 15.67-.76.92.59 1.64 1.77 2.06 2.84 3.12 8.08.54 15.38-3.43 22.37-.56.99-2.09 1.61-3.3 2.03-15.46 5.26-29.34 13.65-43.44 21.65-7.94 4.51-12.71 10.25-13.23 19.94-.46 8.65-2.68 17.21-4.11 25.81-.18 1.09-.26 2.2-.43 3.73 4.25-.03 8.13.82 12.06-1.58 7.34-4.49 14.93-8.57 22.43-12.8 1.6-.9 3.26-2.61 5.18.68-1.11-4.58 1.82-5.75 4.36-7.36 6.05-3.83 12.01-7.79 17.99-11.72 4.28-2.81 8.88-4.15 14.01-3.21.55.1 1.39.07 1.58.4 2.37 4.06 5.41 7.95 6.69 12.34.88 3.04-.68 6.4-4.68 8.2-3.78 1.71-7.37 4.39-10.29 7.38-9.18 9.39-19.84 16.6-31.19 23.03-12.73 7.21-24.99 15.22-38.96 20.12-5.78 2.03-9.91 6.23-11.3 12.71-.89 4.14-2.31 8.17-3.66 12.19-1.67 4.93-2.83 9.88-1.66 15.1.07.32.14.7.05 1-2.72 9.62-4.66 19.55-10.04 28.17-2 3.2-4.75 5.94-7.2 8.84-4.91 5.81-9.35 11.82-12.83 18.71-5.43 10.73-13.99 19.07-23.04 26.83-12.12 10.4-25.11 19.4-40.27 24.98-3.76 1.38-7.18 3.63-10.89 5.18-2.65 1.1-5.48 1.82-8.29 2.43-.84.18-1.89-.57-2.84-.89.43-.94.64-2.11 1.33-2.77 6.22-5.97 12.66-11.7 18.76-17.78 11.01-10.98 22.02-21.96 32.67-33.29 9.34-9.94 14.67-22.41 20.06-34.69 6.06-13.8 11.56-27.85 17.25-41.81.35-.85.68-2.24.25-2.78-2.3-2.88-1.36-5.76-.18-8.56 1.93-4.49 4.07-8.9 6.24-13.62z" fill="#010000"/><g fill="#fbfcfa"><path d="m361.2 9.6.8-1c.9.7 1.9 1.4 2.9 2.3l-.9 1.1c-1-1-2-1.8-2.8-2.4zm.5 10.6c.9-2.1 1.6-4.3 2.3-6.7.4.2.8.4 1.3.6-.7 2.1-1.5 4.3-2.2 6.6zm.4-15.2.9-.9c1 .8 2 1.6 2.8 2.4l-1 1c-.9-.9-1.8-1.7-2.7-2.5zm12.5-1.2h1.2v1.4h2.7v1.1h-2.7v2.7h-1.2v-.6h-1.8v1.3h4.9v3.8h-1.2v-.5h-3.7c0 .4-.1.9-.1 1.2h5.1v1h-5.2c0 .5-.1.9-.2 1.2h6v1h-5.2c1.1 1.3 2.9 2 5.5 2.2-.4.4-.7.8-.9 1.3-2.9-.5-4.8-1.6-5.7-3.5h-.1c-.8 1.7-2.7 2.9-5.9 3.6-.2-.4-.6-.8-.9-1.1 2.8-.6 4.6-1.4 5.4-2.5h-4.8v-1h5.3c.1-.3.2-.7.2-1.2h-4.9v-1h5c0-.4 0-.8.1-1.2h-3.5v.5h-1.2v-3.8h4.9v-1.3h-1.8v.5h-1.2v-2.7h-2.7v-1h2.6v-1.4h1.2v1.4h4.7v-1.4zm-6.6 8.3h3.6c0-.4 0-.9 0-1.4h-3.6zm1.9-4.6h4.7v-1.3h-4.7zm6.6 3.2h-3.7v1.4h3.7z"/><path d="m385.3 3.8h1.3v2.2h2.8v-2.2h1.3v2.2h4.1v9.1h1.7v1.3h-16.9v-1.3h1.7v-9.1h4.1v-2.2zm.4 13.1.7 1.2c-1.8.9-3.8 1.9-6 2.9-.2-.4-.5-.8-.8-1.3 2.3-1 4.3-1.9 6.1-2.8zm-3.1-6.4h2.8v-3.2h-2.8zm0 4.6h2.8v-3.3h-2.8zm4-4.6h2.8v-3.2h-2.8zm0 4.6h2.8v-3.3h-2.8zm3.7 1.9c2.1.9 4.1 1.8 6.1 2.7l-.7 1.3c-2.2-1.1-4.2-2-6.1-2.9zm3.2-9.7h-2.8v3.2h2.8zm-2.8 7.8h2.8v-3.3h-2.8z"/></g></svg>