<svg viewBox="0 0 400 400" xmlns="http://www.w3.org/2000/svg"><rect width="400" height="400" fill="white" /><g fill="#fbfafa"><path d="m37.59 393.81c-.92.31-1.52.05-2-.78-.7-1.2-1.52-2.34-2.47-3.78v4.59c-.55.03-.95.05-1.41.07-.03-.37-.06-.64-.06-.91 0-1.91 0-3.81 0-5.7 1.13-.41 1.77-.03 2.29.91.62 1.11 1.38 2.14 2.31 3.19v-4.2h1.35v6.61z"/><path d="m12.94 393.88v-6.75c1.9.19 3.93-.54 5.37 1.29.8 1.01.78 2.88.03 3.97-1.37 1.97-3.4 1.51-5.4 1.49m1.45-1.22c2.04.12 2.92-.58 2.89-2.21-.03-1.51-.98-2.19-2.89-2z"/><path d="m11.81 393.87h-5.49c.68-2.18 2.47-3.48 3.51-5.45h-3.08v-1.21h5.29c-.71 2.13-2.44 3.48-3.47 5.51.86 0 1.63.04 2.39-.01.79-.05 1.14.21.85 1.16"/><path d="m39.33 393.86v-6.61h3.7v1.07h-2.22v1.52c.68.04 1.34.09 2.07.13v1.07c-.72.05-1.38.09-2.1.14v1.48h2.4v1.19h-3.85z"/><path d="m27.71 388.56c-1.15-.3-2.46-.61-3.1.64-.37.73-.41 1.93-.06 2.67.63 1.35 1.99.93 3.17.68.35.94-.01 1.32-.93 1.46-1.62.25-3.05-.27-3.76-1.48-.73-1.24-.6-3.03.31-4.17.88-1.11 2.71-1.7 4-1.16.32.13.44.74.65 1.12-.1.08-.19.16-.28.24"/><path d="m49.15 387.24v1.07c-.59.02-1.17.05-1.87.08v5.44h-1.48v-5.44h-1.85c-.05-.4-.08-.73-.13-1.15z"/><path d="m20.06 387.21h1.33v6.62h-1.33z"/><path d="m30.68 393.25c-.49.38-.8.79-1.05.76-.32-.05-.6-.45-.9-.7.26-.24.51-.64.8-.67.29-.04.62.3 1.15.61"/></g><path d="m193.85 326.62c-9.42-8.77-15.44-20.58-28.68-24.1-6.53 8.13-11.12 17.39-14.27 27.35-3.92 12.37-7.56 24.84-15.29 35.56-2.08 2.88-4.26 5.68-7.1 8.34 0-1.04-.02-2.07 0-3.11.46-19.74 2.05-39.31 8.56-58.16 4.95-14.36 9.95-28.7 14.81-43.08.54-1.59.76-3.55.35-5.14-1.61-6.38-2.85-12.97-5.46-18.96-7.57-17.37-8.93-35.01-4.86-53.45 3.81-17.27 7.5-34.52 15.01-50.65 4.91-10.53 10.17-20.89 15.09-31.42.89-1.91 1.31-4.28 1.18-6.39-.87-13.95-2.09-27.89-2.94-41.84-.8-13.14 2.75-25.2 9.87-36.51 6.25 3.34 10.01 8.76 12.23 15.01 6.38 17.93 8.74 36.46 7.01 55.44-.24 2.65-.82 5.33-1.68 7.85-1.14 3.35-.5 6 1.37 9.01 15.36 24.82 30.46 49.79 45.82 74.61 2.6 4.2 4.32 8.5 4.78 13.38.59 6.19 2.77 11.86 5.31 17.51 9.48 21.12 12.03 43.25 10.06 66.22-1.39 16.15-1.75 32.4-2.57 48.6-.04.78-.1 1.56-.15 2.51-1.23.4-2.45.8-3.67 1.2-.93-7.79-1.43-15.4-2.84-22.83-2.2-11.63-5.38-23.08-7.44-34.74-1.03-5.86-.93-12.01-.57-17.99.41-6.69-1.04-12.44-4.94-17.96-2.6-3.68-4.39-8.01-6.06-12.24-2.09-5.29-5.21-9.09-11.16-9.76-.88-.1-2.14.03-2.69.59-11.19 11.42-22.58 22.67-33.34 34.48-11.32 12.43-11.28 26.05-2.38 39.94 4.93 7.7 8.33 15.84 7.34 25.25-.17 1.65-.42 3.3-.7 5.48zm-35.07-126.02c0 15.53 2.03 26.95 7.7 37.6 1.22 2.3 2.45 2.6 4.75 1.92 8.15-2.4 13.96-7.85 18.91-14.35 6.37-8.36 12.37-17.02 18.91-25.25 2.84-3.56 3.55-7.12 2.47-11.22-4.07-15.43-13.26-27.93-23.24-39.93-.5-.61-2.03-.88-2.86-.61-4.91 1.55-8.45 4.72-10.86 9.34-3.39 6.51-7.02 12.9-10.53 19.36-.42.78-.73 1.63-1.05 2.46-3.06 7.81-4.27 15.94-4.2 20.68zm95.63 56.9v8.59c3.98.14 3.9-2.29 4.08-4.86.24-3.25-2.27-2.89-4.08-3.73z" fill="#010000"/></svg>