<svg enable-background="new 0 0 400 400" viewBox="0 0 400 400" xmlns="http://www.w3.org/2000/svg"><g fill="#010102"><path d="m264.08 190.86c5.16.72 9.24 2.89 11.86 7.1 5.13 8.25 9.93 16.71 15.07 24.95 3.61 5.79 7.7 11.27 11.32 17.05 4.13 6.59 8.75 12.67 15.21 17.18.93.65 1.92 1.78 2.12 2.83 2.61 14.21 11.07 25.76 17.29 38.32 1.97 3.97 4.12 7.86 6.36 12.09-2.97-.04-5.01-.57-6.73-2.84-5.79-7.59-13.71-12.75-21.74-18.53-2.35 5.28-4.7 10.31-6.84 15.41-9.21 21.93-19.94 43-34.91 61.65-2.47 3.08-5.65 5.6-8.78 8.66-.94-4.59-.66-5.53 1.96-8.29 5.47-5.76 8.28-12.67 8.63-20.57.05-1-.31-2.29-.95-3.02-12.95-14.7-25.96-29.34-38.97-43.98-.13-.15-.36-.21-.96-.53-2.97 5.22-5.98 10.44-8.91 15.69-2.25 4.03-5.34 6.97-10.1 7.41-1.46.14-3.33-.18-4.44-1.04-1.56-1.2-1.12-3.03-.32-4.85 5.65-12.78 11.18-25.6 16.76-38.41.36-.82.95-1.63 1-2.47.58-9.99 5.04-18.81 9.08-27.54 5.01-10.8 11.63-20.85 17-31.5 3.45-6.83 5.93-14.16 8.81-21.27.45-1.1.77-2.27 1.18-3.5zm12.41 143.95c2.63-3.39 5.44-6.08 7.1-9.35 2.55-5.06 4.3-10.52 6.41-15.8 3.02-7.56 5.63-15.32 9.24-22.58 2.11-4.25 3.92-8.4 4.89-13.03.42-2.03.14-3.53-1.01-5.24-9.33-13.91-19.67-27.15-27.37-42.15-1.59-3.1-4.64-5.45-7.02-8.15-.53.1-1.05.19-1.58.29-1.34 3.82-2.76 7.61-3.98 11.47-.87 2.75-1.16 5.71-2.26 8.35-4.1 9.79-8.03 19.68-12.82 29.13-3.19 6.28-2.83 11.91-.04 17.87.47 1.01.78 2.11 1.33 3.07 7.58 13.17 15.17 26.32 22.8 39.46 1.17 2 2.52 3.91 4.31 6.66z"/><path d="m186.6 189.62c.73 1.93 1.45 3.33 1.76 4.81.21.99.12 2.84-.33 3.01-1.41.54-3.87 1.19-4.47.51-9.22-10.47-19.1-20.53-26.95-31.97-5.38-7.84-7.93-17.65-11.66-26.61-2.36-5.67-4.7-11.36-6.77-17.14-1.15-3.24-3.23-3.85-6-2.81-2.49.93-4.85 2.25-7.23 3.47-3.35 1.73-6.77 2.4-10.29.68-3-1.46-3.86-4.21-1.92-6.96 2.6-3.7 5.05-7.4 8.6-10.53 4.19-3.7 7.92-8.34 10.57-13.26 12.71-23.53 29.59-44.2 44.6-66.16.48-.7 2.33-1.39 2.46-1.24 1.01 1.28 2.53 2.84 2.4 4.17-.23 2.36-1.24 4.77-2.4 6.9-2.59 4.76-1.68 8.11 2.07 12.28 12.53 13.9 27.9 24.47 41.59 36.98 8.13 7.43 15.79 15.48 21.57 25.08 2.45 4.07 5.61 7.72 8.38 11.6.96 1.35 1.9 2.76 2.56 4.27.4.91.51 2.89.26 2.98-1.27.44-2.97.97-4.02.46-3.09-1.5-5.93-3.51-8.9-5.25-3.52-2.06-6.99-4.23-10.65-6.02-2.12-1.04-3.9-.05-5.49 1.84-6.04 7.2-10.48 15.26-13.72 24.04-1.58 4.3-3.54 8.46-5 12.79-3.64 10.79-10.98 19.06-18.2 27.45-1.18 1.38-1.92 3.11-2.82 4.63zm-5.78-16.22c2.05-1.91 4.16-3.22 5.32-5.11 2.61-4.27 4.95-8.73 7.03-13.29 4.03-8.83 7.83-17.78 11.69-26.69 1.5-3.46 3.07-6.89 4.32-10.44 1.11-3.15 1.48-6.6 2.8-9.65 2.52-5.83 1-10.6-2.95-15.03-.45-.5-.79-1.09-1.26-1.57-8.75-8.97-17.4-18.04-26.34-26.81-2.88-2.83-6.56-4.85-10.03-7.36-6.52 10.05-12.64 19.81-19.1 29.33-3.75 5.53-6.63 11.31-8.11 17.85-.5 2.2-.47 3.95.72 5.97 5.27 8.96 10.35 18.04 15.5 27.07 6.65 11.64 13.3 23.28 20.41 35.73z"/><path d="m49.99 317c1.72-10.88 4.69-21.12 11.39-29.86 9.77-12.73 17.54-26.64 25.17-40.72 5.41-9.98 12.12-19.27 18.41-28.76 1.4-2.11 3.42-3.84 5.27-5.62 3.87-3.69 4.16-3.83 7.97.13 4.02 4.19 7.65 8.76 11.43 13.18 5.73 6.71 11.1 13.77 17.25 20.07 11.4 11.69 20.11 25.43 30.11 38.19 2.8 3.58 5.44 7.28 8.77 11.76-5.4-1.24-9.83-1.07-13.97-4.18-4.28-3.21-9.51-5.21-14.5-7.35-2.35-1.01-4.59-.17-5.58 2.65-1.14 3.26-2.73 6.4-3.54 9.73-1.74 7.11-3.98 13.97-7.96 20.17-4.01 6.25-6.77 13.03-8.95 20.11-1.39 4.52-4.42 7.69-9.07 9.22-.23-.25-.63-.48-.64-.72-.14-5.92-3.52-9.82-7.9-13.25-6.7-5.24-11.67-11.9-15.95-19.22-3.72-6.36-7.91-12.46-11.94-18.64-.66-1.02-1.46-2.02-2.39-2.78-3.24-2.64-4.78-2.23-6.92 1.25-3.64 5.9-7.22 11.86-11.21 17.52-3.62 5.11-8.5 8.18-15.25 7.12zm63.8-81.98c-6.37 9.09-12.66 17.4-18.18 26.19-2.99 4.75-4.38 9.73-.42 15.67 9.3 13.94 17.68 28.48 26.44 42.77.62 1.02 1.31 2 1.83 2.8 2.99-.12 4.08-1.47 4.74-4.05 3.88-15.13 7.24-30.43 14.29-44.57.65-1.31.4-3.55-.26-4.97-6.42-13.69-17.08-23.81-28.44-33.84z"/></g><path d="m385.2 377.6.6-.7c.6.4 1.3.9 1.9 1.5l-.6.7c-.8-.5-1.4-1-1.9-1.5zm.3 7.1c.6-1.4 1.1-2.9 1.5-4.5.3.1.6.3.9.4-.5 1.4-1 2.9-1.5 4.4zm.2-10.1.6-.6c.7.5 1.3 1.1 1.9 1.6l-.7.7c-.6-.6-1.2-1.2-1.8-1.7zm8.4-.8h.8v.9h1.8v.7h-1.8v1.8h-.8v-.3h-1.2v.9h3.3v2.6h-.8v-.4h-2.5c0 .3 0 .6-.1.8h3.4v.7h-3.5c0 .3-.1.6-.1.8h4v.7h-3.5c.7.9 1.9 1.3 3.6 1.5-.2.2-.4.5-.6.9-1.9-.3-3.2-1.1-3.8-2.3-.5 1.1-1.8 2-3.9 2.4-.2-.3-.4-.5-.6-.8 1.9-.4 3.1-.9 3.6-1.7h-3.2v-.7h3.5c.1-.2.1-.5.2-.8h-3.3v-.7h3.4c0-.2 0-.5 0-.8h-2.4v.3h-.8v-2.6h3.3v-.9h-1.2v.3h-.8v-1.8h-1.8v-.7h1.8v-.9h.8v.9h3.2zm-4.4 5.5h2.4c0-.3 0-.6 0-.9h-2.4zm1.2-3.1h3.2v-.8h-3.2zm4.4 2.2h-2.4v.9h2.5v-.9z" fill="#fcfbfa"/><path d="m389.2 385.8h.9v1.5h1.9v-1.5h.9v1.5h2.7v6h1.1v.9h-11.3v-.9h1.1v-6h2.7zm.2 8.7.5.8c-1.2.6-2.5 1.3-4 1.9-.2-.3-.3-.6-.6-.8 1.6-.6 3-1.3 4.1-1.9zm-2-4.3h1.9v-2.1h-1.9zm0 3.1h1.9v-2.2h-1.9zm2.7-3.1h1.9v-2.1h-1.9zm0 3.1h1.9v-2.2h-1.9zm2.4 1.3c1.4.6 2.7 1.2 4.1 1.8l-.5.9c-1.5-.7-2.8-1.4-4.1-1.9zm2.2-6.5h-1.9v2.1h1.9zm-1.9 5.2h1.9v-2.2h-1.9z" fill="#fcfbfa"/></svg>