<svg enable-background="new 0 0 400 400" viewBox="0 0 400 400" xmlns="http://www.w3.org/2000/svg"><g fill="#010106"><path d="m294.26 50.64c8.69 3.43 15.89 8.87 22.04 15.59 16.15 17.67 32.14 35.49 46 55.09 5.9 8.34 9.96 17.31 9.39 27.7-.48 8.82-2.75 17.1-8.72 24.11-10.74 12.61-21.32 25.35-31.84 38.13-1.18 1.43-1.99 3.5-2.18 5.35-2.04 20.37-4.34 40.72-5.71 61.13-.86 12.7-.19 25.5-.36 38.25-.08 6.14-.28 12.3-.89 18.4-.4 4.02-1.86 7.88-5.16 10.62-3.39 2.82-5.84 2.34-7.94-1.39-5.36-9.51-7.25-19.72-7.17-30.61.18-25.83-.23-51.67-.05-77.51.03-4.58 1.38-9.29 2.84-13.69 2.13-6.4-.3-11.3-4.02-16.04-.41-.53-.87-1.04-1.39-1.45-13.24-10.38-20.58-25.24-28.9-39.16-5.13-8.58-6.06-18.82-5.91-28.93.15-9.86 2.07-19.4 5.74-28.45 7.56-18.63 15.55-37.08 23.37-55.6.22-.5.54-.96.86-1.54zm54.31 93.35c.12-.04.24-.09.36-.13-.84-3.33-1.18-6.89-2.59-9.96-7.97-17.31-20.26-30.86-36.54-40.79-2.03-1.24-3.48-1.23-5.04.92-2.08 2.89-4.66 5.43-6.85 8.25-1.27 1.64-2.67 3.42-3.18 5.35-2.59 9.82-5.07 19.67-7.26 29.59-1.19 5.41-3.1 11.17-2.31 16.42 2.06 13.74 15.11 26.82 30.4 28.46 2.51.27 5.59-.16 7.69-1.44 12.37-7.56 20.91-18.23 24.75-32.38.37-1.37.39-2.85.57-4.29z"/><path d="m102.17 103.75c-2.69 8.76 1.84 16.32 3.36 24.34.33 1.75.33 3.8-.26 5.45-3.43 9.69-7.03 19.31-10.69 28.91-.62 1.62-1.7 3.09-2.75 4.5-2.33 3.14-4.94 6.08-7.14 9.3-2.95 4.32-4.28 9.13-4.69 14.45-1.25 16.05-3.54 32.03-4.29 48.1-.93 19.65-.74 39.36-.98 59.04-.19 16.43 0 32.88-.57 49.29-.26 7.57-3.32 14.14-11.24 17.16-2.78 1.06-4.6.9-6.16-2.14-5.14-10-6.46-20.7-5.59-31.61 1.09-13.59 2.62-27.16 4.46-40.67 2.62-19.29 2.07-38.63 1.48-57.97-.49-16.09-1.42-32.16-2.33-48.23-.1-1.83-.96-3.96-2.17-5.34-3.82-4.36-7.63-8.86-12.07-12.55-15.96-13.27-20.93-29.93-16.36-49.85 2.33-10.17 7.66-18.98 12.11-28.24 5.45-11.36 10.11-23.09 15.35-34.55 1.31-2.88 3.43-5.41 5.35-7.97 1.81-2.41 4.02-4.54 5.73-7.02 1.67-2.44 3.22-2.55 5.79-1.25 8.2 4.17 13.43 10.72 15.82 19.43 4.2 15.25 10.54 29.64 16.95 44.02.47 1.08.61 2.31.89 3.4zm-16.26 14.51c.28-11.03-3.69-22.22-7.81-33.31-2.01-5.43-9.63-8.02-14.8-5.68-.38.17-.77.49-1 .85-6.41 9.96-15.49 18.32-18.15 30.53-1.59 7.29-4.07 14.47-4.83 21.83-.8 7.82 1.22 15.57 9.03 19.36 5.32 2.58 11.3 4.3 17.16 5.12 5.46.76 10.38-1.23 13.24-6.94 4.88-9.7 7.12-19.9 7.16-31.76z"/><path d="m177.54 43.45c6.08 2.05 11.43 5.08 15.07 9.93 11.34 15.1 22.76 30.19 33.21 45.91 8.28 12.47 13.06 26.45 11.66 41.88-1.22 13.47-6.01 25.82-11.97 37.8-.33.67-.95 1.23-1.52 1.76-12.73 12.05-19 27.1-20.23 44.34-.27 3.85.09 7.88.92 11.66 2.42 10.94.48 21.86.35 32.78-.15 12.53-.52 25.06-1.12 37.57-.34 7.02-1.04 14.06-2.15 21-.75 4.69-3.12 8.68-8.47 9.68-2.41.45-4.08 0-5.42-2.53-7.49-14.1-8.23-28.91-5.91-44.37 2.75-18.36 4.82-36.79 3.44-55.47-.48-6.4.26-12.98 1.21-19.36 1.2-8.03-1.7-14.8-5.75-21.11-2.43-3.79-5.93-6.94-9.18-10.13-4.07-3.99-8.37-7.76-12.6-11.58-12.72-11.51-15.05-25.57-9.93-41.3 2.73-8.39 5.63-16.74 8.89-24.93 1.8-4.5 4.25-8.8 6.88-12.89 6.08-9.44 8.75-20.05 10.7-30.83 1.17-6.36 1.29-12.89 1.92-19.81zm8.35 49.27c-1.76 2.59-3.62 4.74-4.83 7.21-4.51 9.22-8.6 18.66-13.25 27.8-3.79 7.45-3.5 14.55 1.15 21.19 3.55 5.07 7.09 10.81 12.05 14.11 10.46 6.95 21.26 5.01 30.46-3.87.65-.62 1.12-1.7 1.19-2.61.92-10.9 2.1-21.79 2.49-32.7.24-6.62-1.52-13.09-5.14-18.82-.8-1.27-1.87-2.68-3.16-3.27-6.8-3.1-13.7-5.94-20.96-9.04z"/></g><path d="m385.2 377.6.6-.7c.6.4 1.3.9 1.9 1.5l-.6.7c-.8-.5-1.4-1-1.9-1.5zm.3 7.1c.6-1.4 1.1-2.9 1.5-4.5.3.1.6.3.9.4-.5 1.4-1 2.9-1.5 4.4zm.2-10.1.6-.6c.7.5 1.3 1.1 1.9 1.6l-.7.7c-.6-.6-1.2-1.2-1.8-1.7zm8.4-.8h.8v.9h1.8v.7h-1.8v1.8h-.8v-.3h-1.2v.9h3.3v2.6h-.8v-.4h-2.5c0 .3 0 .6-.1.8h3.4v.7h-3.5c0 .3-.1.6-.1.8h4v.7h-3.5c.7.9 1.9 1.3 3.6 1.5-.2.2-.4.5-.6.9-1.9-.3-3.2-1.1-3.8-2.3-.5 1.1-1.8 2-3.9 2.4-.2-.3-.4-.5-.6-.8 1.9-.4 3.1-.9 3.6-1.7h-3.2v-.7h3.5c.1-.2.1-.5.2-.8h-3.3v-.7h3.4c0-.2 0-.5 0-.8h-2.4v.3h-.8v-2.6h3.3v-.9h-1.2v.3h-.8v-1.8h-1.8v-.7h1.8v-.9h.8v.9h3.2zm-4.4 5.5h2.4c0-.3 0-.6 0-.9h-2.4zm1.2-3.1h3.2v-.8h-3.2zm4.4 2.2h-2.4v.9h2.5v-.9z" fill="#fcfbfa"/><path d="m389.2 385.8h.9v1.5h1.9v-1.5h.9v1.5h2.7v6h1.1v.9h-11.3v-.9h1.1v-6h2.7zm.2 8.7.5.8c-1.2.6-2.5 1.3-4 1.9-.2-.3-.3-.6-.6-.8 1.6-.6 3-1.3 4.1-1.9zm-2-4.3h1.9v-2.1h-1.9zm0 3.1h1.9v-2.2h-1.9zm2.7-3.1h1.9v-2.1h-1.9zm0 3.1h1.9v-2.2h-1.9zm2.4 1.3c1.4.6 2.7 1.2 4.1 1.8l-.5.9c-1.5-.7-2.8-1.4-4.1-1.9zm2.2-6.5h-1.9v2.1h1.9zm-1.9 5.2h1.9v-2.2h-1.9z" fill="#fcfbfa"/></svg>