<svg enable-background="new 0 0 400 400" viewBox="0 0 400 400" xmlns="http://www.w3.org/2000/svg"><g fill="#010000"><path d="m257.78 123.16c-8.38-2.67-16.81-5.21-25.13-8.06-8.02-2.75-16-5.65-23.88-8.79-6.67-2.65-13.16-3.65-20.19-1.15-7.04 2.51-14.31 4.39-21.51 6.45-4.63 1.32-8.81 3.41-13.07 5.72-16.23 8.8-33.61 12.49-52.09 9.76-.88-.13-1.73-.42-2.59-.68-3.97-1.21-6.85-5.26-6.18-9.23.14-.85 1.76-1.71 2.87-2.1 18.89-6.55 37.78-13.12 56.75-19.48 6.34-2.13 12.86-3.74 19.34-5.45 10.93-2.87 17.75-10.63 18.3-21.97.27-5.53-.27-11.17-1-16.68-1.17-8.79-.18-16.91 5.42-24.15 1.3-1.68 2.63-2.15 4.57-1.69 5.69 1.35 9.92 4.58 12.47 9.83 4.2 8.65 5.14 17.72 3.3 27.14-.66 3.4-1.18 6.84-1.56 10.28-.63 5.58.55 7.2 5.83 8.62 24.93 6.68 49.9 13.23 74.78 20.12 9.04 2.5 17.87 5.77 26.75 8.81.91.31 1.8 1.27 2.26 2.16 1.13 2.18 1.74 4.64 3.02 6.71 2.07 3.35.7 5.11-2.17 6.92-5.12 3.23-10.44 4.4-16.31 2.66-3.32-.98-6.68-1.86-9.99-2.87-6.56-2.01-13.08-3.15-20.05-1.76-4.84.96-9.93.69-15.13.99 1.7 2.47 3.44 5 5.18 7.54-2.35 1.91-4.64 3.68-6.82 5.58-1.62 1.41-2.11 2.99-.61 4.96 1 1.32 1.96 2.84 2.35 4.42 1.36 5.56 5.32 8.34 10.18 10.54 9.87 4.48 19.65 9.14 29.42 13.84 7.09 3.41 13.9 7.29 18.71 13.8 3.69 4.98 3.61 5.28-1.62 8.56-1.51.95-3.1 1.79-4.66 2.66-3.31 1.86-6.55 2.16-10.22.53-8.87-3.93-18.02-7.27-26.81-11.36-5.14-2.39-9.76-5.86-14.7-8.7-4.77-2.74-9.93-4.11-15.45-3.22-1.09.18-2.14 1.18-2.99 2.03-1.43 1.43-2.48 3.31-4.06 4.52-6.28 4.83-13.03 9.11-18.99 14.3-7.19 6.24-15.15 9.28-24.63 9.88-7.59.48-14.87.34-21.93-2.94-.18.23-.36.46-.54.69.4.74.67 1.6 1.23 2.2.83.89 1.95 1.51 2.8 2.38 2.57 2.62 2.23 4.89-1 6.59-8.14 4.29-16.99 5.92-26 5.25-12.8-.96-25.54-2.76-38.3-4.2-.55-.06-1.19-.05-1.63-.32-7.45-4.58-15.3-2.59-23.13-1.57-4.16.54-8.21 1.11-10.74 4.47-3.15-1.25-5.94-2.33-8.72-3.47-3.56-1.46-4.24-5.46-1.29-8.01 11.53-9.94 22.82-20.18 34.76-29.61 6.44-5.09 14-8.77 21.05-13.1.95-.58 2.2-1.03 2.72-1.9 2.46-4.08 6.53-5.02 10.68-6.07 6.17-1.55 12.29-3.28 18.42-4.93.32.29.69.46.79.73 2.36 6.87 7.55 11.36 12.89 15.87 7.36 6.2 14.38 12.78 21.61 19.14 1.41 1.24 2.94 2.49 4.64 3.21 3.16 1.34 6.11 1.21 8.84-1.56 6.69-6.76 13.45-13.46 20.46-19.89 3.35-3.07 7.18-5.69 11.03-8.13 4.73-3 6.09-7.22 5.26-12.38-.14-.88-1.02-1.92-1.84-2.36-4.47-2.38-9.24-2.58-14-1.09-8.65 2.72-17.47 3.37-26.49 3.25-16.23-.22-32.46-.14-48.69 0-3.4.03-6.27-.58-8.91-2.85-2.6-2.23-5.53-4.08-7.63-5.6 2.01-3.05 3.67-5.84 5.64-8.39.79-1.03 2.23-2.07 3.45-2.18 9.67-.89 19.35-1.84 29.04-2.23 11.39-.46 22.8-.29 34.2-.56 14.87-.35 29.74-.86 44.6-1.31 2.55-.08 5.09-.24 7.64-.36.01-.26.01-.51 0-.76zm-98.15 65.56c-2.01-2.03-3.98-4.35-6.27-6.28-3.14-2.65-6.4-5.18-9.85-7.4-.94-.61-3.21-.42-4.07.33-3.94 3.42-7.63 7.13-11.33 10.82-3.31 3.3-6.56 6.66-9.72 10.1-.88.96-1.31 2.31-2.16 3.87h55.2c-1.64-4.51-3.21-8.83-4.84-13.33-2.32.63-4.42 1.2-6.96 1.89z"/><path d="m139.98 319.89c-.84 15.56-8.05 28.92-13.04 42.98-1.23 3.46-3.53 4.78-6.85 4.65-4.57-.18-8.17-2.14-12.02-4.91-9.51-6.85-8.76-15.91-7.54-25.6 3.42-27.23 9.12-53.98 16.73-80.32 1.44-4.97 3.76-9.72 6.04-14.39 1.76-3.6 4.86-3.68 8.3-1.92 7.02 3.6 9.13 10.41 11.64 16.88 1.24 3.18 3.18 4.57 6.21 4.34 5.43-.42 10.86-1.09 16.26-1.83 2.31-.32 4.62-.91 6.83-1.68 13.46-4.69 27.44-2.82 41.22-3.33 9.05-.34 18.12-.44 27.18-.28 3.06.05 6.12 1.15 9.13 1.93 6.05 1.57 12.07 3.24 18.55 5 .64-2.9 1.28-5.67 1.85-8.46 1.96-9.66 6.23-18.1 12.99-25.31 1.49-1.59 2.7-1.71 4.61-.82 7.88 3.68 12.35 9.29 12.58 18.44.34 13.19 1.37 26.36 2.12 39.54.04.78-.02 1.67.34 2.3 3.34 5.81 2 12.13 2.29 18.33.47 10.03.99 20.13 2.52 30.04 1.5 9.73-.16 18.58-4.07 27.35-2.24 5.03-6.43 7.58-11.09 9.61-11.96 5.22-15.31 3.74-19.61-8.46-3.1-8.78-3.54-17.94-3.8-27.11-.15-5.26-.18-10.53.04-15.78.12-2.87-1.05-4.83-3.6-5.15-5.61-.7-11.31-1.47-16.92-1.18-12.72.66-25.41 2.04-38.12 2.92-3.42.24-6.99.21-10.32-.51-8.96-1.92-17.82-.33-26.71.19-11.06.64-22.08 1.65-33.74 2.54zm132.01-35.65c.54-9.96-1.43-12.19-11.24-12.72-.11-.01-.22-.02-.34-.02-13.28.56-26.56 1.02-39.84 1.7-23.11 1.18-46.21 2.48-69.31 3.8-1.22.07-3.16.41-3.48 1.17-1.9 4.51-3.8 9.09-4.98 13.83-1.11 4.47.53 5.86 5.04 5.58 10.04-.63 20.07-1.45 30.12-1.73 22.46-.62 44.93-1.07 67.4-1.28 4.36-.04 8.72 1.32 13.09 1.98 1.42.22 3.01.72 4.27.31 8.76-2.85 8.74-2.92 9.26-12.29.01-.11 0-.22.01-.33z"/><path d="m293.73 203.07c-6.78 4.72-13.03 9.96-20.09 13.67-5 2.63-11.01 3.51-16.68 4.65-13.43 2.68-26.96 3.81-40.63 1.76-2.24-.34-2.94-1.4-3.73-3.41-2.16-5.52-1.13-9.92 3.64-13.38 1.84-1.34 3.71-2.73 5.75-3.7 12.81-6.11 26.44-5.34 40.07-4.69 8.37.4 16.74.6 25.11.88 2.87.09 5.26.91 6.56 4.22z"/></g><path d="m361.2 9.6.8-1c.9.7 1.9 1.4 2.9 2.3l-.9 1.1c-1-1-2-1.8-2.8-2.4zm.5 10.6c.9-2.1 1.6-4.3 2.3-6.7.4.2.8.4 1.3.6-.7 2.1-1.5 4.3-2.2 6.6zm.4-15.2.9-.9c1 .8 2 1.6 2.8 2.4l-1 1c-.9-.9-1.8-1.7-2.7-2.5zm12.5-1.2h1.2v1.4h2.7v1.1h-2.7v2.7h-1.2v-.6h-1.8v1.3h4.9v3.8h-1.2v-.5h-3.7c0 .4-.1.9-.1 1.2h5.1v1h-5.2c0 .5-.1.9-.2 1.2h6v1h-5.2c1.1 1.3 2.9 2 5.5 2.2-.4.4-.7.8-.9 1.3-2.9-.5-4.8-1.6-5.7-3.5h-.1c-.8 1.7-2.7 2.9-5.9 3.6-.2-.4-.6-.8-.9-1.1 2.8-.6 4.6-1.4 5.4-2.5h-4.8v-1h5.3c.1-.3.2-.7.2-1.2h-4.9v-1h5c0-.4 0-.8.1-1.2h-3.5v.5h-1.2v-3.8h4.9v-1.3h-1.8v.5h-1.2v-2.7h-2.7v-1h2.6v-1.4h1.2v1.4h4.7v-1.4zm-6.6 8.3h3.6c0-.4 0-.9 0-1.4h-3.6zm1.9-4.6h4.7v-1.3h-4.7zm6.6 3.2h-3.7v1.4h3.7z" fill="#fbfcfa"/><path d="m385.3 3.8h1.3v2.2h2.8v-2.2h1.3v2.2h4.1v9.1h1.7v1.3h-16.9v-1.3h1.7v-9.1h4.1v-2.2zm.4 13.1.7 1.2c-1.8.9-3.8 1.9-6 2.9-.2-.4-.5-.8-.8-1.3 2.3-1 4.3-1.9 6.1-2.8zm-3.1-6.4h2.8v-3.2h-2.8zm0 4.6h2.8v-3.3h-2.8zm4-4.6h2.8v-3.2h-2.8zm0 4.6h2.8v-3.3h-2.8zm3.7 1.9c2.1.9 4.1 1.8 6.1 2.7l-.7 1.3c-2.2-1.1-4.2-2-6.1-2.9zm3.2-9.7h-2.8v3.2h2.8zm-2.8 7.8h2.8v-3.3h-2.8z" fill="#fbfcfa"/></svg>