<svg enable-background="new 0 0 400 400" viewBox="0 0 400 400" xmlns="http://www.w3.org/2000/svg"><g fill="#010106"><path d="m188.69 296.97c-.53-7.13-.75-13.69-1.56-20.18-1.75-14.06-1.32-28.12-.9-42.23.26-8.92-.65-17.87-1.05-26.8-.02-.44-.04-.95-.26-1.3-5.33-8.68-4.37-18.79-6.48-28.2-.4-1.78-1.04-3.68-2.11-5.12-5.3-7.14-12.24-11.07-21.42-11.27-3.91-.09-7.85-1.46-11.64-2.67-1.08-.35-2.22-2.12-2.4-3.37-.86-5.75-1.5-11.54-1.96-17.33-.1-1.21.5-2.93 1.4-3.68 3.81-3.2 6.3-7.18 8.01-11.78 2.01-5.41 4.99-9.98 9.67-13.72 5.96-4.76 9.14-11.7 12.44-18.48 3.16-6.49 6.8-12.75 10.24-19.11.16-.29.4-.54.62-.79 4.29-4.94 8.86-5.7 13.29-.92 17.26 18.63 39.02 31.69 58.36 47.74 2.02 1.67 2.88 3.23 2.83 5.83-.14 9.06.08 9.55-8.59 11.82-21.87 5.73-32.11 21.9-37.6 41.87-3.49 12.68-5.63 25.75-8 38.71-.86 4.69-.68 9.59-.83 14.39-.55 18.23-.98 36.47-1.64 54.69-.06 1.62-1.13 3.5-2.29 4.71-2.36 2.48-5.11 4.57-8.13 7.19zm-16.66-153.35c.02 4.58 1.55 7.46 5.44 9.33 4.21 2.03 8.2 4.56 12.09 7.17 4.38 2.93 5.84 3.07 9.9-.32 1.19-.99 2.31-2.15 3.21-3.41 7-9.95 14.46-19.65 18.57-31.3.34-.96.08-2.64-.58-3.37-5.43-5.95-10.97-11.81-16.63-17.55-.63-.64-2.41-.84-3.26-.42-2.7 1.32-5.1 3.27-7.83 4.54-4.58 2.12-7.02 5.82-9.12 10.18-2.22 4.61-4.57 9.3-7.72 13.27-3.05 3.82-3.73 7.97-4.07 11.88z"/><path d="m81.7 270.25c-1.05 12.91-2.12 25.82-3.1 38.73-.1 1.38.13 2.9.63 4.2 1.6 4.17 3.42 8.26 5.11 12.39.9 2.2 1.41 4.81-.91 6.03-2.45 1.29-5.41 1.7-8.2 2.17-.4.07-1.25-1.65-1.65-2.64-4.06-10.15-4.96-20.84-5.16-31.6-.21-11.52-.14-23.01-2.69-34.39-1.79-8.01-6.59-13.66-13.09-17.88-2.4-1.56-5.82-1.69-8.82-2.13-3.28-.48-6.78.01-9.91-.9-11.15-3.24-14.73-11.41-10.34-22.15 5.29-12.92 10.38-25.92 15.59-38.86 4.96-12.33 9.81-24.7 15.03-36.92 2.49-5.83 1.26-4.84 7.36-3.72 9.89 1.81 17.54 7.07 22.36 16.04 3.17 5.9 5.93 12.05 9.3 17.83 5.51 9.44 11.38 18.68 17.11 28 2.42 3.94 4.49 7.99 4.6 12.77.11 4.75-2.71 6.63-7.03 4.67-2.48-1.12-5.29-3.39-7.4-2.88-2.01.49-3.44 3.84-4.89 6.08-4.67 7.23-9.29 14.49-13.79 21.83-.7 1.15-.91 2.74-.93 4.13-.1 6.38-.04 12.76-.04 19.14.29.01.57.04.86.06zm-36.98-54.41c4.99 4.31 9.28 8.65 14.2 12.08 4.49 3.13 10.51 4.11 15.11-.81 4.16-4.45 5.71-9.69 7.31-15.12 1.29-4.38 3.98-8.98 3.39-13.1s-4.46-7.79-6.95-11.62c-3.2-4.91-6.45-9.78-10.37-15.71-3.11 6.98-6.28 12.9-8.4 19.17-3.13 9.26-5.96 18.53-14.29 25.11z"/><path d="m288.46 319.87c-.25-4.15-.82-7.76 3.14-10.67 3.61-2.65 4.24-6.93 3.62-11.27-.24-1.66-.39-3.36-.88-4.95-2.35-7.63-2.25-15.27-1.17-23.15.89-6.49.52-13.15.6-19.74.14-10.95.48-21.91.16-32.85-.18-6.32-2.51-12.21-6.22-17.47-2.26-3.2-4.42-6.46-6.58-9.73-2.88-4.37-6.59-7.51-11.89-8.58-1.37-.28-2.77-.97-3.88-1.83-4.15-3.21-4.24-6.12-.49-9.59 2.63-2.43 5.36-4.76 7.89-7.29 2.98-2.98 6.31-4.75 10.52-5.91 3.64-1.01 7.02-3.89 9.89-6.6 11.06-10.43 24.07-18.66 34.07-30.28.46-.53 1.27-.98 1.96-1.06 5.37-.62 11.89 6.59 10.62 11.92-.71 2.98-.19 5.57.75 8.41 5.2 15.69 13.28 29.73 23.46 42.69 4.43 5.64 7.15 12.1 7.7 19.36.39 5.1-4.08 8.6-8.84 6.61-3.91-1.64-7.5-3.63-8.83-8.39-1.22-4.36-4.25-4.88-7.91-2.39-4.79 3.26-9.82 6.17-14.75 9.22-4.08 2.51-8.4 4.7-12.2 7.57-6.96 5.27-9.09 13.02-9.72 21.27-.37 4.79-.38 9.61-.59 14.42-.25 5.71-.42 11.45-4.72 15.96-3 3.15-3.57 6.75-1.94 10.71 1.31 3.18 1.02 6-1.52 8.51-1.88 1.86-2.23 4.14-2.04 6.76.35 4.9.52 9.83.47 14.75-.06 7.16-3.57 11.59-10.68 13.59zm-2.44-153.54c1.49 1.15 2.74 2.3 4.15 3.17 3.62 2.21 5.79 5.29 6.75 9.46.48 2.11 1.39 4.32 2.71 6.02 3.29 4.23 6.88 8.23 10.48 12.2.71.79 2.06 1.56 3.03 1.46 3.53-.37 7.47-.29 10.44-1.89 6.73-3.63 13.02-8.11 19.37-12.4.5-.34.53-2.09.15-2.89-4.13-8.88-8.09-17.87-12.75-26.47-1.78-3.28-5.17-5.74-7.99-8.39-1.52-1.43-3.2-1.28-5.12-.05-9.59 6.15-19.28 12.12-28.93 18.17-.74.45-1.43.99-2.29 1.61z"/></g><path d="m385.2 377.6.6-.7c.6.4 1.3.9 1.9 1.5l-.6.7c-.8-.5-1.4-1-1.9-1.5zm.3 7.1c.6-1.4 1.1-2.9 1.5-4.5.3.1.6.3.9.4-.5 1.4-1 2.9-1.5 4.4zm.2-10.1.6-.6c.7.5 1.3 1.1 1.9 1.6l-.7.7c-.6-.6-1.2-1.2-1.8-1.7zm8.4-.8h.8v.9h1.8v.7h-1.8v1.8h-.8v-.3h-1.2v.9h3.3v2.6h-.8v-.4h-2.5c0 .3 0 .6-.1.8h3.4v.7h-3.5c0 .3-.1.6-.1.8h4v.7h-3.5c.7.9 1.9 1.3 3.6 1.5-.2.2-.4.5-.6.9-1.9-.3-3.2-1.1-3.8-2.3-.5 1.1-1.8 2-3.9 2.4-.2-.3-.4-.5-.6-.8 1.9-.4 3.1-.9 3.6-1.7h-3.2v-.7h3.5c.1-.2.1-.5.2-.8h-3.3v-.7h3.4c0-.2 0-.5 0-.8h-2.4v.3h-.8v-2.6h3.3v-.9h-1.2v.3h-.8v-1.8h-1.8v-.7h1.8v-.9h.8v.9h3.2zm-4.4 5.5h2.4c0-.3 0-.6 0-.9h-2.4zm1.2-3.1h3.2v-.8h-3.2zm4.4 2.2h-2.4v.9h2.5v-.9z" fill="#fcfbfa"/><path d="m389.2 385.8h.9v1.5h1.9v-1.5h.9v1.5h2.7v6h1.1v.9h-11.3v-.9h1.1v-6h2.7zm.2 8.7.5.8c-1.2.6-2.5 1.3-4 1.9-.2-.3-.3-.6-.6-.8 1.6-.6 3-1.3 4.1-1.9zm-2-4.3h1.9v-2.1h-1.9zm0 3.1h1.9v-2.2h-1.9zm2.7-3.1h1.9v-2.1h-1.9zm0 3.1h1.9v-2.2h-1.9zm2.4 1.3c1.4.6 2.7 1.2 4.1 1.8l-.5.9c-1.5-.7-2.8-1.4-4.1-1.9zm2.2-6.5h-1.9v2.1h1.9zm-1.9 5.2h1.9v-2.2h-1.9z" fill="#fcfbfa"/></svg>