<svg enable-background="new 0 0 400 400" viewBox="0 0 400 400" xmlns="http://www.w3.org/2000/svg"><g fill="#fcfafa"><path d="m342.2 3.2-6.3 9.2h6.1v1.2h-8.2v-.5l6.2-9.1h-5.7v-1.2h7.8v.4z"/><path d="m344 13.7v-10.9h3.1c1.6 0 3 .5 4.1 1.4 1.1 1 1.6 2.2 1.6 3.9s-.5 3-1.6 4-2.5 1.5-4.2 1.5h-3zm1.4-9.6v8.4h1.6c1.4 0 2.5-.4 3.2-1.1.8-.8 1.2-1.8 1.2-3.2s-.4-2.4-1.2-3.1-1.8-1-3.1-1z"/><path d="m356.3 2.8v10.9h-1.4v-10.9z"/><path d="m366.6 13.2c-.8.4-1.8.6-3 .6-1.6 0-2.8-.5-3.7-1.5s-1.4-2.3-1.4-3.9c0-1.7.5-3.2 1.6-4.2s2.4-1.6 4-1.6c1 0 1.9.1 2.6.4v1.5c-.8-.4-1.6-.6-2.6-.6-1.2 0-2.2.4-3 1.2s-1.1 1.9-1.1 3.3c0 1.3.4 2.3 1.1 3.1s1.6 1.1 2.8 1.1c1.1 0 2-.2 2.8-.7v1.3z"/><path d="m368.2 13c0-.3.1-.5.3-.6.2-.2.4-.3.6-.3.3 0 .5.1.7.3s.3.4.3.6-.1.5-.3.6c-.2.2-.4.3-.7.3s-.5-.1-.6-.3c-.2-.2-.3-.4-.3-.6z"/><path d="m381.1 13.7h-1.7l-5.5-8.4c-.2-.2-.3-.5-.4-.7 0 .2.1.8.1 1.5v7.6h-1.4v-10.9h1.8l5.3 8.3c.3.4.4.6.4.8 0-.3-.1-.8-.1-1.6v-7.5h1.4v10.9z"/><path d="m389.7 13.7h-5.8v-10.9h5.6v1.2h-4.2v3.5h3.9v1.2h-3.9v3.7h4.4z"/><path d="m398.4 4.1h-3.1v9.6h-1.4v-9.6h-3.1v-1.3h7.7v1.3z"/></g><path d="m184.08 152.08c9.87 3.25 20.22 2.84 29.49 8.01 5.63 3.14 12.28 4.64 18.63 6.27 10.76 2.77 17.81 11.91 17.07 22.88-.01.22.03.46-.03.66-.72 2.26-10.13 5.6-12.12 4.31-8.53-5.55-17.08-11.07-25.55-16.71-1.69-1.13-2.92-1.24-4.79-.23-13.32 7.21-20.91 14.99-25.67 26.85 11.64 4.73 23.28 9.46 34.94 14.19 3.45-4.45 3.65-9.24 3.13-14.26-.31-2.99-.64-6.05-.33-9.01.42-4 2.26-4.81 5.8-3.14 4.04 1.91 8.27 3.51 12.08 5.8 3.69 2.21 6.96 5.13 10.04 7.47 17.3-19.99 35.04-39.93 47.75-63.6.84-1.57 1.78-3.15 2.28-4.84.91-3.09 2.88-3.5 5.58-2.73 7.11 2.02 13.53 5.29 18.88 10.44 1.35 1.29 2.49 2.91 3.37 4.56 2.14 4 2.73 8-.74 11.74-.97 1.05-1.69 2.34-2.92 4.07 6.3 3.19 12.29 6.4 18.43 9.28 6.06 2.85 12.44 5.07 18.37 8.16 3.68 1.92 7.21 4.54 10.06 7.55 3.84 4.04 3.73 9.15 1.6 14.13-1.6 3.74-9.15 6.41-14.29 4.59-4.25-1.51-8.2-3.89-12.64-6.06-5.87 9.21-11.92 18.69-18.57 29.12 5.63.8 10.6 1.68 15.61 2.15 3.66.34 7.38.06 11.07.19 7.68.28 12.04 4.37 12.31 11.37.08 2.06-.45 3.51-2.49 4.57-6.14 3.2-12.61 5.82-19.51 5.41-15.55-.93-30.46 2.32-45.44 5.64-17.24 3.82-34.62 7.08-51.74 11.38-10.15 2.55-20.07 6.22-29.79 10.13-11.06 4.45-22.58 6.39-34.25 7.45-5.71.52-11.57-.79-17.37-1.12-12.87-.73-25.59-2.29-37.86-6.52-.5-.17-1.04-.23-1.82-.39-4.95 9.51-9.81 18.93-14.74 28.31-10.28 19.56-21.65 38.41-37.19 54.33-5.87 6.02-12.92 10.36-21.79 10.54-.43.01-.85-.1-2.09-.24 1.02-3.27 1.76-6.35 2.93-9.26 1.45-3.62 3.25-7.1 4.92-10.63.33-.7.59-1.49 1.11-2.04 10.81-11.48 18.13-25.16 24.77-39.27 7.9-16.78 16.01-33.47 23.52-50.42 2.16-4.87 2.69-10.5 3.69-15.84.55-2.91-1.19-4.86-4.03-4.97-3.52-.14-7.26-.34-10.56.65-6.19 1.85-12.12 4.55-18.17 6.88-8.74 3.36-17.18 2.79-24.94-2.54-4.96-3.41-9.56-7.34-14.3-11.06-3.16-2.48-6.38-4.91-9.39-7.57-1.76-1.55-3.16-3.51-4.73-5.28.17-.47.34-.93.51-1.4 2.79-.25 6-1.52 8.31-.58 8.79 3.57 17.4 1.66 26.1.23 11.69-1.92 23.37-3.95 35.09-5.72 3.18-.48 6.48-.12 9.71-.31 8.53-.49 13.41-6.43 11.51-14.73-1.16-5.08-3.14-10.03-5.32-14.78-.64-1.4-3.19-2.54-4.95-2.67-2.34-.17-4.94.34-7.1 1.3-6.19 2.76-12.19 5.66-17.31 10.53-4.54 4.32-10.2 7.61-15.73 10.73-7.2 4.07-15.03 4.69-22.55.99-5.73-2.82-10.49-6.9-10.44-14.57 12.4-.13 21.23-7.65 30.12-14.76 9.42-7.53 19.51-13.46 31.62-15.23 9.2-1.34 18.3-.28 27.28 1.85.85.2 1.69 1.07 2.25 1.83 3.92 5.31 7.78 10.66 11.59 16.05.54.77.92 1.8.99 2.74.32 4.13.89 8.29.63 12.39-.32 5.03 2.58 7.33 6.44 9.01 5.85 2.55 7.09 6.85 2.62 11.2-4.1 3.99-6.32 8.48-7.31 14.15-2.2 12.53-5.04 24.96-7.66 37.62 5.61 3.31 11.77 4.6 17.99 4.7 19.05.3 37.28-3.68 54.66-11.56 2.89-1.31 4.97-3.12 5.85-6.34.7-2.58 1.58-5.18 2.86-7.5 1.99-3.61 1.34-6.04-1.8-8.8-8.92-7.82-17.41-16.14-28.3-21.32-7.16-3.4-7.15-3.38-12.2 2.66-3.09 3.69-6.19 7.37-9.41 10.94-3.5 3.87-7.99 5.87-13.08 6.95-2.75.59-3.99-.48-3.96-2.82.03-2.84.01-5.96 1.14-8.44 3.08-6.75 6.46-13.19 11.87-18.78 11.78-12.19 19.66-27.05 25.82-42.78 1.71-4.39 2.91-8.95 4.58-14.13zm88.56 50.82c.6.74 1.02 1.24 1.41 1.75 5.24 6.79 13.12 9.05 20.63 11.78 2.75 1 5.88 1.17 8.85 1.26 2.44.08 4.35-1.16 5.56-3.57 2.15-4.29 4.91-8.3 6.78-12.7 1.53-3.61 2.54-7.56 3.06-11.45.58-4.35-1.24-8.18-5.58-9.65-4.78-1.62-9.8-4.33-14.66.21-2.78 2.59-5.76 4.96-8.65 7.44-5.76 4.93-11.51 9.87-17.4 14.93zm14.2 35.23c-1.6-2.26-2.98-4.57-4.69-6.59-5.51-6.51-11.12-12.98-19.56-15.82-1.78-.6-4.34-1.2-5.67-.38-5.83 3.6-11.57 7.76-14.35 14.2-3.29 7.6-6.29 15.25-12.93 22.04 5.45-.95 9.82-1.67 14.16-2.5 1.51-.29 3.36-.44 4.37-1.39 3.17-2.99 6.86-3.29 10.86-3.09 2.68.13 5.37.03 8.05-.1 7.03-.34 13.71-1.83 19.76-6.37z" fill="#010103"/><path d="m223.7 25.56c7.53-.13 14.47.9 20.86 4.7 2.77 1.65 5.76 3 8.79 4.15 9.72 3.67 17.88 9.4 24.56 17.39 1.65 1.98 4.02 3.57 6.37 4.72 24.12 11.84 45.61 27.32 64.81 46.08 5.24 5.12 8.94 10.87 8.68 18.52-.15 4.41-3.66 6.92-7.8 5.22-3.28-1.34-6.58-2.87-9.46-4.9-13.35-9.4-26.56-18.99-40.27-28.85-1.56 1.59-3.32 2.96-4.57 4.7-10.65 14.79-20.95 29.85-31.93 44.38-3.55 4.69-8.59 8.39-13.41 11.93-2.17 1.6-5.43 1.78-8.23 2.44-2.4.57-3.51-.88-3.06-2.97.78-3.55 1.66-7.15 3.09-10.48 1.72-3.99 3.13-7.94 2.22-12.29-.27-1.29-.98-2.73-1.94-3.58-7.79-6.9-15.68-13.68-23.56-20.48-3.46-2.99-6.25-2.86-9.76.08-14.33 12.03-29.37 23.08-45.62 32.42-2.78 1.6-5.81 2.75-9.03 4.25-.84-3.44-.92-6.16 1.2-8.8 12.38-15.45 24.3-31.28 37.12-46.35 14.25-16.73 25.43-34.78 29.28-56.75.27-1.53.8-3.02 1.23-4.53.08-.31.25-.6.43-1zm42.28 54.29c.37-3.16-1.21-6.67-4.59-8.84-4-2.57-8.37-4.58-12.67-6.65-.62-.3-2 .09-2.55.63-5.63 5.59-11.29 11.16-16.68 16.98-4.26 4.59-3.45 8.71 2.04 11.71 4.5 2.46 9.03 4.9 13.69 7.04 2.5 1.15 5.25 1.98 7.96 2.35 2.66.36 5.69.03 7.04-2.74 2.97-6.14 5.43-12.5 5.76-20.48z" fill="#010103"/><path d="m156.36 81.24c-.13 8.92-3.73 20.52-8.2 31.9-.43 1.1-1.36 2.03-2.16 2.95-5.01 5.87-9.86 11.89-15.12 17.52-4.38 4.69-7.66 9.85-9.01 16.11-.82 3.77-3.56 5.18-6.63 4.54-5.87-1.22-11.59-3.21-17.34-4.94-.39-.12-.7-.76-.88-1.23-.15-.39-.13-.9-.06-1.33 1.68-10.06-2.06-18.54-7.63-26.51-1.08-1.55-2.15-3.19-2.83-4.94-3.31-8.47-10.52-11.3-18.52-13.04-2.18-.48-4.41-.8-6.55-1.42-5.02-1.46-8.17-4.76-9.54-9.85-.44-1.66-.24-2.62 1.34-3.55 18.18-10.71 36.18-21.69 55.64-30.12 12.39-5.37 24.25-3.81 36.09.68 8.89 3.38 11.44 8.42 11.4 23.23zm-22.02.91c-.09-.95-.09-2.31-.38-3.61-1.1-4.89-6.8-8.6-10.53-6.62-8.47 4.51-17.01 8.94-25.17 13.98-8.77 5.43-9.21 7.35-2.97 15.76 4.22 5.7 9.57 10.58 14.55 15.69 3.27 3.36 7.09 3.22 10.28-.42 8.63-9.82 13.07-21.43 14.22-34.78z" fill="#010103"/><path d="m144.04 327.49c9.37-2.56 18.6-5.09 27.84-7.59 17.68-4.78 35.37-9.52 53.03-14.39 1.47-.41 2.65-1.78 4.06-2.52.96-.5 2.06-.85 3.13-.98 2.7-.32 5.6.04 8.12-.8 27.33-9.11 55.13-16.05 83.9-18.54 7.31-.63 14.65-1.85 22 .08 9.27 2.43 11.5 9.06 5.88 16.79-3.11 4.28-6.37 6.76-12.13 7.18-15.82 1.15-31.65 2.73-47.33 5.1-12.9 1.95-25.59 5.24-38.36 7.99-18.89 4.07-37.8 8.05-56.64 12.36-4.63 1.06-9.02 3.2-13.47 4.97-15.99 6.37-17.83 6.2-33.26-1.24-3.73-1.78-5.5-4.54-6.77-8.41z" fill="#010103"/></svg>