<svg enable-background="new 0 0 400 400" viewBox="0 0 400 400" xmlns="http://www.w3.org/2000/svg"><g fill="#fcfafa"><path d="m342.2 3.2-6.3 9.2h6.1v1.2h-8.2v-.5l6.2-9.1h-5.7v-1.2h7.8v.4z"/><path d="m344 13.7v-10.9h3.1c1.6 0 3 .5 4.1 1.4 1.1 1 1.6 2.2 1.6 3.9s-.5 3-1.6 4-2.5 1.5-4.2 1.5h-3zm1.4-9.6v8.4h1.6c1.4 0 2.5-.4 3.2-1.1.8-.8 1.2-1.8 1.2-3.2s-.4-2.4-1.2-3.1-1.8-1-3.1-1z"/><path d="m356.3 2.8v10.9h-1.4v-10.9z"/><path d="m366.6 13.2c-.8.4-1.8.6-3 .6-1.6 0-2.8-.5-3.7-1.5s-1.4-2.3-1.4-3.9c0-1.7.5-3.2 1.6-4.2s2.4-1.6 4-1.6c1 0 1.9.1 2.6.4v1.5c-.8-.4-1.6-.6-2.6-.6-1.2 0-2.2.4-3 1.2s-1.1 1.9-1.1 3.3c0 1.3.4 2.3 1.1 3.1s1.6 1.1 2.8 1.1c1.1 0 2-.2 2.8-.7v1.3z"/><path d="m368.2 13c0-.3.1-.5.3-.6.2-.2.4-.3.6-.3.3 0 .5.1.7.3s.3.4.3.6-.1.5-.3.6c-.2.2-.4.3-.7.3s-.5-.1-.6-.3c-.2-.2-.3-.4-.3-.6z"/><path d="m381.1 13.7h-1.7l-5.5-8.4c-.2-.2-.3-.5-.4-.7 0 .2.1.8.1 1.5v7.6h-1.4v-10.9h1.8l5.3 8.3c.3.4.4.6.4.8 0-.3-.1-.8-.1-1.6v-7.5h1.4v10.9z"/><path d="m389.7 13.7h-5.8v-10.9h5.6v1.2h-4.2v3.5h3.9v1.2h-3.9v3.7h4.4z"/><path d="m398.4 4.1h-3.1v9.6h-1.4v-9.6h-3.1v-1.3h7.7v1.3z"/></g><path d="m161.82 275.29c-17.26-9.14-34-18.12-50.9-26.78-2.29-1.17-5.42-.74-8.16-.93-.87-.06-1.78.2-2.64.45-3.32.99-6.06.47-8.34-2.43-2.3-2.92 1.39-3.96 1.67-6.46-2.25-1.5-4.55-3.28-7.07-4.65-4.45-2.42-8.9-2.13-13.45.18-7.17 3.63-14.47 6.97-21.72 10.44-.5.24-1.16.32-1.5.7-5.85 6.53-12.83 4.16-19.64 2.4-2.54-.66-2.56-3.85-.07-6.02 7.92-6.92 15.81-13.89 23.86-20.65 11.62-9.75 22.63-20.12 31-32.83 3.17-4.81 4.84-10.59 7.36-16.3-10.37-1.48-18.95.85-27.09 5.24-5.49 2.96-11.14 5.77-17.49 4.42-3.82-.81-7.75-2.37-10.94-4.59-5.46-3.81-4.36-11.89 1.57-14.78 16.68-8.13 33.52-15.94 49.99-24.47 23.58-12.22 42.55-29.9 58-51.38 5.29-7.35 10.21-14.97 15.14-22.57.9-1.39 1.4-3.25 1.51-4.92.23-3.46.09-6.94.06-10.41-.06-7.87 1.25-15.97-4.45-23.37 7.39-.26 13.46 1.62 19.32 4.33 11.25 5.21 16.49 13.93 15.38 26.37-.27 3.01-.31 6.04-.69 9.04-.29 2.28.47 3.3 2.67 4.1 23.09 8.41 45.97 17.43 69.24 25.3 17.66 5.97 34.32 14.02 50.92 22.25 4.32 2.14 8.3 5.37 11.7 8.83 2.19 2.22 3.35 5.66 4.39 8.75 1.08 3.2-.97 4.96-3.92 5.74-4.1 1.09-7.88.16-11.69-1.56-12.21-5.51-24.54-10.78-36.74-16.31-6.51-2.95-12.7-2.27-18.56 1.3-4.07 2.48-7.79 5.53-12.13 8.66 4.1 2.72 7.46 5.25 11.09 7.3 7.32 4.14 13.37 9.57 18.44 16.29 1.34 1.78 3.7 3.28 5.87 3.88 26.26 7.32 52.57 14.45 78.87 21.63.96.26 1.91.55 3.11.9-.25 2.04-.25 4.09-.85 5.94-.27.83-1.66 1.58-2.68 1.85-8.5 2.3-17.06 1.25-25.66.54-6.29-.52-12.66-.1-19.59-.1 1.24 3.76 2.41 6.96 3.3 10.24.26.95-.09 2.24-.56 3.16-.91 1.77-2.46 3.26-3.13 5.09-2.26 6.21-6.35 10.85-11.37 15.03-9.46 7.88-18.65 16.07-27.95 24.14-.83.72-1.61 1.51-2.75 2.57 4.08 1.19 7.2 2.18 11.57.35 5.27-2.21 11.49-2.94 17.28-2.89 6.75.06 13.5 1.57 20.22 2.66 1.19.19 3.13 1.4 3.14 2.17.06 2.38 1.25 5.04-1.29 7.15-5.76 4.78-12.09 8.63-19.28 10.55-14.68 3.91-29.44 7.53-44.24 10.94-4.75 1.09-9.9.59-14.59 1.85-4.18 1.12-8.18 3.35-11.88 5.69-3.67 2.32-6.84 5.41-10.26 8.11-3.63 2.87-7.71 4.65-12.41 4.13-1.8-.2-3.81-.72-5.24-1.77-5.16-3.76-10.66-4.56-16.84-3.29-20.58 4.22-41.13 8.64-61.82 12.26-23.65 4.14-47.03 1.73-69.94-5.16-5.62-1.69-10.63-4.57-13.08-11.16 4.93 0 9.46.13 13.98-.02 21.01-.72 42.04-1.42 62.65-6.19 3.69-.86 7.39-1.89 10.89-3.31 5.8-2.35 11.73-3.52 17.97-3.5 3.78-.02 7.25-1.08 10.44-4.12zm-8.63-142.82c1-.13 1.88-.22 2.76-.36 12.6-1.92 25.19-3.9 37.79-5.77 13.82-2.05 27.7-3.87 40.91-8.72 5.06-1.85 9.95-4.17 14.91-6.28.03-.51.06-1.01.09-1.52-5.72-2.95-11.26-6.36-17.21-8.75-14.2-5.69-28.63-10.83-42.9-16.36-2.48-.96-3.68-.47-5.1 1.68-9.21 13.91-18.7 27.62-30.43 39.58-1.95 2.02-2.44 3.84-.82 6.5zm25.22 52.53c4.11-.64 7.44-1.01 10.67-1.76.8-.19 1.96-1.69 1.87-2.45-.67-5.2-1.21-10.48-2.61-15.51-2.43-8.74-8.21-15.11-18.6-10.46-3.95 1.77-8.16 1.61-12.41.05-7.96-2.93-16.05-5.48-24.04-8.32-2.17-.77-3.94-.74-5.98.47-4.32 2.56-8.79 4.86-13.21 7.26-3.8 2.07-4.97 5.08-2.08 8.25 2.98 3.27 6.64 6.7 10.68 8.08 11.28 3.87 22.86 6.89 34.42 9.89 7.23 1.89 14.61 3.11 21.29 4.5zm-10.44 16.93c-.83 4.11-1.33 7.66-2.33 11.07-.56 1.88-1.6 3.94-3.06 5.18-6.22 5.28-12.67 10.29-19.03 15.4-1.59 1.28-3.17 2.58-4.95 4.03 6.62 4.26 12.61 8.63 19.08 12.11 5.25 2.83 10.97 4.91 16.67 6.73 4.17 1.34 7.83-.74 9.18-4.93 2.5-7.75 4.9-15.55 6.81-23.45 1.63-6.77 1.25-13.58-2.35-19.84-.57-1-1.46-2.29-2.42-2.52-5.74-1.4-11.53-2.51-17.6-3.78zm90.34 28.55c-12.77-5.96-24.87-11.6-36.92-17.22-9.47 15.87-14.41 33.16-19.38 50.87 10.57-1.99 20.77-3.83 30.92-5.9 1.59-.32 3.29-1.35 4.41-2.55 5.9-6.27 11.7-12.63 17.37-19.1 1.45-1.66 2.3-3.85 3.6-6.1zm-27.94-31.82c2.55 1.64 3.95 3.12 5.63 3.55 12.55 3.22 25.13 6.3 37.75 9.22 1.13.26 3-.55 3.82-1.49 2.8-3.19 5.28-6.66 7.88-10.02 8.95-11.56 2.82-27.62-11.49-30.24-2.51-.46-4.27-.13-6.02 2.11-5.92 7.56-12.81 13.78-22.1 17.37-5.2 2.01-9.68 5.86-15.47 9.5zm-8.17-20.29c5.16-4.29 10.21-8.18 14.89-12.47 5.81-5.34 8.21-12.47 8.41-20.1.16-6.19-7.91-11.18-13.66-9.01-7.83 2.95-15.66 5.88-23.48 8.84-3.72 1.41-4.84 5.31-1.99 8.04 6.59 6.3 11.16 13.84 14.51 22.21.28.7.71 1.35 1.32 2.49zm-121.82 39.78c2.26 4.14 7.48 5.28 11.8 7.67.46.26 1.65-.3 2.21-.8 7.31-6.59 14.58-13.23 21.8-19.92.66-.61 1.23-1.65 1.27-2.52.12-2.67.18-5.38-.13-8.03-.52-4.43-9.06-8.84-13.03-6.84-.45.23-.73.81-1.07 1.24-7.5 9.58-14.99 19.15-22.85 29.2z" fill="#010103"/><path d="m41.65 350.63c2.4 0 3.94-.04 5.48.01 13 .43 25.9-.59 38.78-2.38 12.07-1.68 24.26-2.54 36.29-4.43 10.79-1.69 21.41-4.42 32.15-6.47 19.2-3.67 38.4-7.28 57.64-10.72 34.1-6.09 68.22-12.04 102.34-18.05.99-.17 1.97-.41 2.97-.53 3.86-.47 6.19 1.62 6.27 5.51.08 3.81-.89 6.85-4.68 8.82-4.05 2.11-7.95 4.61-11.64 7.3-7.91 5.77-16.6 8.96-26.28 10.79-14.34 2.71-28.31 7.4-42.64 10.16-22.37 4.32-44.92 7.71-67.39 11.54-2.73.47-5.49 1.05-8.09 1.98-8.88 3.17-18.07 3.92-27.4 4.01-2.02.02-4.02.95-6.04 1.41-3.88.88-7.72 2.01-11.65 2.52-8.09 1.06-16.22 1.88-24.35 2.57-2.38.2-4.94.01-7.22-.65-10.08-2.92-20.13-5.99-30.11-9.24-1.98-.64-3.92-2.03-5.37-3.55-3.02-3.13-5.68-6.59-9.06-10.6z" fill="#010103"/></svg>