<svg enable-background="new 0 0 400 400" viewBox="0 0 400 400" xmlns="http://www.w3.org/2000/svg"><g fill="#fcfafa"><path d="m342.2 3.2-6.3 9.2h6.1v1.2h-8.2v-.5l6.2-9.1h-5.7v-1.2h7.8v.4z"/><path d="m344 13.7v-10.9h3.1c1.6 0 3 .5 4.1 1.4 1.1 1 1.6 2.2 1.6 3.9s-.5 3-1.6 4-2.5 1.5-4.2 1.5h-3zm1.4-9.6v8.4h1.6c1.4 0 2.5-.4 3.2-1.1.8-.8 1.2-1.8 1.2-3.2s-.4-2.4-1.2-3.1-1.8-1-3.1-1z"/><path d="m356.3 2.8v10.9h-1.4v-10.9z"/><path d="m366.6 13.2c-.8.4-1.8.6-3 .6-1.6 0-2.8-.5-3.7-1.5s-1.4-2.3-1.4-3.9c0-1.7.5-3.2 1.6-4.2s2.4-1.6 4-1.6c1 0 1.9.1 2.6.4v1.5c-.8-.4-1.6-.6-2.6-.6-1.2 0-2.2.4-3 1.2s-1.1 1.9-1.1 3.3c0 1.3.4 2.3 1.1 3.1s1.6 1.1 2.8 1.1c1.1 0 2-.2 2.8-.7v1.3z"/><path d="m368.2 13c0-.3.1-.5.3-.6.2-.2.4-.3.6-.3.3 0 .5.1.7.3s.3.4.3.6-.1.5-.3.6c-.2.2-.4.3-.7.3s-.5-.1-.6-.3c-.2-.2-.3-.4-.3-.6z"/><path d="m381.1 13.7h-1.7l-5.5-8.4c-.2-.2-.3-.5-.4-.7 0 .2.1.8.1 1.5v7.6h-1.4v-10.9h1.8l5.3 8.3c.3.4.4.6.4.8 0-.3-.1-.8-.1-1.6v-7.5h1.4v10.9z"/><path d="m389.7 13.7h-5.8v-10.9h5.6v1.2h-4.2v3.5h3.9v1.2h-3.9v3.7h4.4z"/><path d="m398.4 4.1h-3.1v9.6h-1.4v-9.6h-3.1v-1.3h7.7v1.3z"/></g><path d="m167.86 236.95c-13.64.57-26.62.81-39.55 1.82-4.07.32-8.07 2.5-11.96 4.14-5.11 2.16-9.66 1.37-14.35-1.37-6.35-3.72-12.89-7.12-19.42-10.5-3.65-1.89-6.87-4.05-8.34-8.25 4.3 0 8.4-.34 12.43.06 12.09 1.22 23.85-1.33 35.71-2.72 12.54-1.47 24.98-3.65 37.73-3.01 9.03.45 13.4-3.33 14.19-12.37.78-8.99.61-18.07.95-27.11.09-2.46-1.11-3.17-3.32-3.52-8.8-1.41-17.43-.17-25.95 1.74-9.26 2.08-18.44 4.57-27.6 7.07-2.66.73-5.08 2.78-7.73 3.04-5.05.5-10.47 1.21-15.23-.05-10-2.64-19.71-6.42-29.46-9.94-1.12-.4-2.47-2.2-2.4-3.26.07-.98 1.77-2.22 3-2.66 1.97-.7 4.19-1.33 6.21-1.13 10.8 1.09 21.12-1.66 31.51-3.7 22.27-4.37 44.5-8.94 66.78-13.25 3.14-.61 4.08-2.1 3.17-4.74-1.74-5.06-3.61-10.08-5.71-15-3.71-8.67-7.94-17.08-15.2-23.43-2.58-2.26-5.39-4.31-8.29-6.12-2.32-1.44-4.74-1.27-7.15.48-11.24 8.12-22.62 16.06-33.86 24.18-9.71 7.01-19.25 14.25-28.97 21.23-2.8 2.01-5.83 3.82-9.01 5.11-2.29.93-5.03 1.29-7.5 1.08-2.04-.17-5.44-1.24-5.68-2.43-.63-3.03-1.52-6.55 1.43-9.41 9.54-9.25 19.4-18.23 28.32-28.07 11.11-12.25 22.17-24.71 29.78-39.58 2.35-4.59 3.68-9.83 4.66-14.94.88-4.58.88-9.41-2.67-13.3 4.17-1.9 6.92-1.15 10.04 1.95 4.41 4.38 10.31 7.3 14.53 11.82 6.93 7.42 13.07 15.57 19.44 23.5 6.46 8.03 12.56 16.43 21.24 22.26 8.46 5.69 7.03 5.15 11.84-1.76 11.87-17.07 20.24-35.74 23.51-56.46.19-1.21.23-2.45.34-3.67.46-5.26.1-9.78-6.1-12.02-3.68-1.33-3.96-3.51-2.51-7.63 11.05 3.44 22.16 6.76 33.15 10.42 2.96.99 5.84 2.71 8.24 4.71 3.05 2.55 4.26 6.15 3.73 10.28-.22 1.74-.1 3.59.21 5.33.56 3.12 2.17 5.25 5.33 6.68 11.09 5.02 22.25 9.97 32.96 15.73 19.03 10.24 34.14 25.12 47.43 41.96 2.39 3.02 3.78 6.34 3.64 10.19-.1 2.88-.61 5.86-3.97 6.59-3.11.67-5.74-.34-7.96-2.99-5.44-6.51-10.71-13.25-16.81-19.11-11.22-10.78-24.23-19.05-38.71-24.9-5.7-2.3-11.4-4.59-17.13-6.82-2.08-.81-4.19-1.68-6.36-2.04-5.3-.88-9.8-.31-13.29 4.95-10.52 15.82-23.83 29.31-37.16 42.74-1.63 1.64-2.54 3.24-2.2 5.58.24 1.65.13 3.35.21 5.03.29 6.18 3.96 9.65 10.14 8.32 15.85-3.4 31.88-2.49 47.82-2.17 10.35.21 20.68 1.98 30.99 3.31 4.19.54 5.54 2.85 5.21 7.13-.36 4.63-2.18 7.73-6.95 9.43-9.92 3.53-19.99 2.71-30.18 2.43-15.18-.42-30.37-.11-46.03-.11-1.18 8.19-2.47 16.57-3.55 24.98-.47 3.66-.68 7.37-.62 11.05.02 1.26.9 2.95 1.92 3.66 3.74 2.59 8.06 2.71 12.26 1.51 14.52-4.14 29.35-2.38 44.07-2.4 18.33-.03 35.87 4.42 53.17 9.97 4.03 1.29 7.97 2.96 9 7.63 1.68 7.62-3.5 11.23-11.32 11.46-1.93.06-4.03-.59-5.81-1.43-14.93-7.05-30.89-8.03-46.92-7.52-14.29.46-28.55 1.97-42.82 2.98-2.56.18-5.14.17-7.71.24-4.63.13-7.47 2.26-8.8 6.62-7.6 24.78-14.89 49.67-25.46 73.43-9.76 21.92-22.61 41.63-40.34 57.99-4 3.69-8.31 6.76-14.05 7.15-2.65.18-3.86-.82-3.51-3.39.22-1.62.53-3.36 1.33-4.76 5.41-9.53 11.04-18.93 16.45-28.45 9.79-17.22 18.5-34.96 24.89-53.77 3.68-10.83 4.19-22.14 5.16-33.39.38-4.62.96-9.24 1.5-14.31z" fill="#010103"/></svg>