<svg enable-background="new 0 0 400 400" viewBox="0 0 400 400" xmlns="http://www.w3.org/2000/svg"><g fill="#fbfafa"><path d="m37.59 393.81c-.92.31-1.52.05-2-.78-.7-1.2-1.52-2.34-2.47-3.78v4.59c-.55.03-.95.05-1.41.07-.03-.37-.06-.64-.06-.91 0-1.91 0-3.81 0-5.7 1.13-.41 1.77-.03 2.29.91.62 1.11 1.38 2.14 2.31 3.19v-4.2h1.35v6.61z"/><path d="m12.94 393.88v-6.75c1.9.19 3.93-.54 5.37 1.29.8 1.01.78 2.88.03 3.97-1.37 1.97-3.4 1.51-5.4 1.49m1.45-1.22c2.04.12 2.92-.58 2.89-2.21-.03-1.51-.98-2.19-2.89-2z"/><path d="m11.81 393.87h-5.49c.68-2.18 2.47-3.48 3.51-5.45h-3.08v-1.21h5.29c-.71 2.13-2.44 3.48-3.47 5.51.86 0 1.63.04 2.39-.01.79-.05 1.14.21.85 1.16"/><path d="m39.33 393.86v-6.61h3.7v1.07h-2.22v1.52c.68.04 1.34.09 2.07.13v1.07c-.72.05-1.38.09-2.1.14v1.48h2.4v1.19h-3.85z"/><path d="m27.71 388.56c-1.15-.3-2.46-.61-3.1.64-.37.73-.41 1.93-.06 2.67.63 1.35 1.99.93 3.17.68.35.94-.01 1.32-.93 1.46-1.62.25-3.05-.27-3.76-1.48-.73-1.24-.6-3.03.31-4.17.88-1.11 2.71-1.7 4-1.16.32.13.44.74.65 1.12-.1.08-.19.16-.28.24"/><path d="m49.15 387.24v1.07c-.59.02-1.17.05-1.87.08v5.44h-1.48v-5.44h-1.85c-.05-.4-.08-.73-.13-1.15z"/><path d="m20.06 387.21h1.33v6.62h-1.33z"/><path d="m30.68 393.25c-.49.38-.8.79-1.05.76-.32-.05-.6-.45-.9-.7.26-.24.51-.64.8-.67.29-.04.62.3 1.15.61"/></g><path d="m137.09 310.44c4.88 1.67 9.26 2.86 13.37 4.66 5.01 2.19 9.84 4.79 14.64 7.41 1.93 1.05 3.58 2.63 5.35 3.97 5.05 3.82 10.5 5.93 16.91 3.95.12-.18.35-.36.36-.55.73-15.61 1.8-31.22 1.99-46.83.09-6.86-1.54-13.76-2.6-20.6-.16-1.01-1.34-2.3-2.34-2.65-7.58-2.71-15.1-5.75-22.91-7.56-4.26-.99-9.15-.34-13.53.6-7.13 1.53-11.62-1.37-15.28-7.58 4.53-3.48 8.74-7.73 13.81-10.23 3.32-1.64 7.89-.8 11.9-.95 5.59-.21 11.18-.34 16.78-.47 5.79-.13 9.64-3.46 9.49-9.29-.15-5.89-1.05-11.79-1.92-17.64-1.67-11.16-2.63-22.55-5.61-33.37-3.24-11.77-7.59-23.32-13.87-34.01-7.99-13.59-15.51-27.46-23.6-40.99-4.52-7.56-9.71-14.72-14.7-22-2.6-3.79-6.34-5.75-10.88-6.57-2.44-.44-3.44.23-4.62 2.35-5.52 9.97-11.1 19.91-17.04 29.62-3.02 4.94-6.87 9.39-10.33 14.06-7.74 10.43-9.2 22.1-6.5 34.46 1.48 6.79 3.38 13.43 9.02 18.29 1.47 1.27 2.19 3.37 3.49 4.9 1.27 1.51 2.62 3.17 4.31 4.07 4.09 2.2 7.42.87 8.16-3.59.84-5.03.74-10.21 1.21-15.3.28-3.07.27-6.38 1.47-9.12 2.15-4.94 6.31-5.17 9.69-1.07 9.46 11.47 10.79 24.45 6.95 38.29-2.21 7.95-5.21 15.43-12.39 20.51-5.77 4.08-10.47 4.36-16.11.36-8.34-5.91-17.22-11.12-21.23-21.52-1.45-3.74-4.36-7.06-7.12-10.12-6.09-6.77-8.3-14.91-9.16-23.61-1.93-19.59 1.06-38.54 9.41-56.24 2.99-6.34 8.25-12.1 13.68-16.69 13.54-11.45 24.53-24.77 32.96-40.27 2.4-4.4 4.34-9.05 6.68-13.98 2.19 2.5 4.24 4.92 6.38 7.24 1.43 1.55 2.77 3.44 4.57 4.36 6.24 3.18 10.21 8.28 13.85 14.07 11.91 18.94 24.19 37.66 36.19 56.54 2.87 4.52 5.3 9.33 7.77 14.08 2.1 4.03 4.47 5.53 8.65 3.8 3.94-1.64 7.96-3.7 11.09-6.53 12.05-10.9 24.1-21.77 38.46-29.62 2.73-1.49 5.69-2.62 8.63-3.63 6.62-2.28 12.97-2.64 19.78.49 13.6 6.26 27.53 11.78 41.37 17.52 1.88.78 3.09 1.66 3.54 3.85.86 4.2 3.9 6.97 7.22 9.34 6.6 4.71 11.05 10.97 13.84 18.52 4.6 12.42 2.88 24.53-2.4 36.17-1.27 2.81-4.57 4.87-7.26 6.83-16.59 12.11-34.74 20.29-55.65 20.67-7.7.14-15.06-1.92-21.79-5.79-.96-.55-1.82-1.58-2.3-2.59-6.69-14.26-5.44-28.69.54-42.59 2.29-5.31 5.24-10.24 6.08-16.1.3-2.11 2.02-3.01 4.03-2.56 3.33.74 6.22 1.92 7.58 5.69 2.22 6.17 2.71 12.35 1.74 18.8-.52 3.5-.65 7.11-.49 10.65.43 9.42 8.52 12.95 15.04 12.01 5.16-.74 10.32-2.08 15.21-3.89 12.86-4.77 9.25-1.82 13.9-14.27 4.03-10.8 1.23-19.77-6.09-28.14-3.92-4.48-8.19-8.2-13.7-10.44-10.65-4.33-21.3-8.67-31.96-12.97-2.87-1.16-5.37-.34-8.24.86-12.2 5.07-21.1 14.59-31.01 22.66-6.73 5.48-12.75 11.84-18.91 17.99-.97.97-1.48 2.99-1.32 4.42 1.92 17.23 3.74 34.48 6.19 51.65.94 6.57 3.39 12.93 5.31 19.98 9.19 0 18.24-.04 27.3.01 14.44.08 28.87.22 43.31.35 1.23.01 2.47.07 3.68.26 5.75.94 6.36 2.33 7.01 8.01.66 5.75-2.57 8.22-6.67 10.58-6.93 4.01-14.51 6.18-22.36 6.42-13.17.4-26.37.18-39.55-.05-5.03-.09-10.25 3.2-10.79 8.33-.7 6.66-1 13.4-.93 20.1.09 8.77.01 17.43-3.63 25.66-.45 1.01-.24 2.39-.09 3.56.15 1.21.52 2.41.95 3.56 3.53 9.46 4.27 19.1 1.93 28.94-.46 1.92.3 2.81 1.95 3.62 3.59 1.76 7.08 2.26 10.95.67 6.7-2.76 13.63-4.97 20.26-7.89 2.89-1.27 5.49-3.46 7.81-5.67 6.09-5.8 13.16-9.28 21.44-10.86 6.13-1.17 12.1-3.17 18.15-4.77 3.26-.86 6.24 2.02 5.28 5.27-.46 1.56-1.25 3.23-2.38 4.35-18.65 18.35-39.22 34.09-63.52 44.17-7.22 2.99-15.27 4.02-22.98 5.75-1.38.31-3.12-.06-4.47-.65-11.59-5.01-23.14-10.13-34.67-15.28-1.19-.53-2.37-1.31-3.25-2.26-7.08-7.64-14.14-15.29-21.09-23.04-4.77-5.32-8.63-11.17-9.34-18.56-.12-1.11-.03-2.21-.03-4.35z" fill="#010000"/></svg>