<svg enable-background="new 0 0 400 400" viewBox="0 0 400 400" xmlns="http://www.w3.org/2000/svg"><path d="m189.05 364.93c.87 1.61 2.24 2.95 2.07 4.07-.31 2-1.16 4.23-2.53 5.63-.79.8-3.53.79-4.55.03-2.53-1.88-4.71-10.79-2.4-13.82-.49-1.19-1.1-2.1-1.22-3.07-1.57-13.33-3.07-26.67-4.59-40-.03-.22-.14-.5-.05-.66 3.16-5.57-.87-11.06-.17-16.69.72-5.74.3-11.62.41-17.44s.21-11.64.4-17.45c.2-6.23 1.12-12.52.56-18.69-.68-7.58-5.33-10.21-12.58-7.68-9.75 3.4-19.9 2.57-29.89 3.36-9.7.76-19.43 1.05-29.15 1.54-1.01.05-2.14.38-3 .04-5.65-2.2-11.58-2.12-17.48-2.47-1.14-.07-3.05-1.41-3.12-2.28-.13-1.66.25-4.03 1.38-5.03 8.18-7.29 17.65-12.39 28.59-13.79 19.75-2.52 39.56-4.55 59.34-6.8 1.66-.19 3.32-.42 5.39-.69.46-13.32 1.18-26.56 1.26-39.8.04-5.87-2.12-7.57-8.25-7.23-9.48.53-18.94 1.55-28.4 2.44-7.99.75-15.96 2.02-23.96 2.21-4.21.1-8.46-1.6-12.53-2.46-.28-4.15 2.07-6.04 4.56-7.83.27-.2.51-.43.77-.65 13.37-11.11 13.37-11.14 30.64-13.12 10.32-1.19 20.66-2.26 30.99-3.38 4.38-.47 5.44-1.67 5.58-6.17.15-4.92.3-9.85.6-14.76.11-1.79-.33-2.9-2.05-3.68-2.84-1.29-5.56-2.83-8.41-4.3-3.42 4.46-8.18 3.44-12.68 3.15-8.25-.52-16.48-1.55-24.73-1.69-3.44-.06-6.89 1.72-10.39 2.39-1.9.36-4 .55-5.85.11-5.58-1.33-11.5-1.51-16.43-5.16-2.98-2.21-3.52-5.42-.87-8.14 4.18-4.31 8.71-7.55 15.03-8.54 8.04-1.26 15.83-4.26 23.89-5.2 6.77-.79 13.82-.12 20.65.71 6.96.84 13.57.77 19.91-2.48.48-.25.92-.57 1.66-1.04-3.16-2.29-6.12-4.45-9.26-6.73 1.18-.96 2.19-1.79 3.21-2.62-.05-.25-.11-.49-.16-.74-1.57.26-3.14.51-5.47.89-7.72-6.63-16.29-13.83-24.65-21.25-6.06-5.38-10.03-12.21-12.62-19.88-.57-1.68-.58-2.77 1.19-3.47.31-.12.63-.27.88-.48 8.81-7.62 17.86-3.08 26.84-.46.87.26 1.59 1.19 2.29 1.9 11.54 11.88 23.21 23.65 34.52 35.75 3.94 4.21 7.81 4.2 11.92-.19 12.75-13.64 26.08-26.74 39.28-39.94 1.62-1.62 3.85-2.66 5.83-3.9 2.61-1.63 5.25-2.79 7.67.53.67-.73 1.17-1.28 1.68-1.84.18.16.36.25.45.4 1.09 1.81 2.31 3.56 3.22 5.46 1.02 2.14 2.07 4.56-.87 6.1-15.15 7.95-25.74 20.98-37.08 33.17-2.36 2.54-4.57 5.22-6.72 7.94-.95 1.21-1.82 2.59-2.3 4.04-1.8 5.36.51 8.95 6.07 9.68.66.09 1.35.19 2.01.1 6.54-.88 12.7.67 18.57 3.24 4.77 2.09 9.41.87 14.16.41 9.27-.9 18.36-.5 26.47 4.89 1.55 1.03 2.85 2.45 4.19 3.62-2.2 5.11-5.25 7.76-11.08 8.23-8.53.69-17.03 2.44-25.39 4.39-9.73 2.27-19.17.21-28.64-1.08-4.04-.55-6.81.62-9.03 3.56-4.01 5.32-5.84 11.53-6.54 18.05-.11 1 .84 2.67 1.74 3.09 1.96.91 4.34 1.98 6.32 1.65 10.19-1.73 20.08.48 30 1.94 8.6 1.27 17.11 3.19 25.63 4.94 1.38.28 3.09.79 3.85 1.8 1.05 1.38 1.76 3.33 1.79 5.05.01.83-1.74 2.02-2.92 2.48-14.82 5.81-29.99 6.27-45.54 3.34-5.18-.97-10.65-.68-15.98-.55-3.18.08-5.44 2.15-6.12 5.32-.89 4.14-2 8.32-2.12 12.51-.26 9.28.14 18.58.05 27.86-.03 3.13 1.25 4.95 4.14 5.49 4.05.76 8.13 1.4 12.23 1.85 8.33.91 16.68 1.66 25.03 2.48 1.11.11 2.24.38 3.34.32 16.17-.98 31.33 4.35 46.83 7.53 2.52.52 5.01 1.16 7.51 1.76.87.21 1.73.43 2.59.69 3.38 1.06 7.55 4.89 6.53 6.66-1.27 2.2-3.97 4.38-6.43 4.95-15.82 3.67-31.67 6.42-48.04 2.56-5.84-1.38-12.19-.47-18.3-.8-7.57-.41-15.12-1.16-22.69-1.51-3.86-.18-7.78-.05-11.61.42-1.15.14-2.96 1.84-3.02 2.9-.6 11.01-3.23 21.63-5.54 32.35-.96 4.46-.96 9.48.03 13.93 2.77 12.44 1.03 24.68-.32 37.01-.36 3.31-.15 6.69-.01 10.03.37 10.53 1.09 21.08-8.01 28.69zm-24.11-294.39c-.61 1.8-.94 2.76-1.39 4.09 1.94-.1 3.4-.18 4.85-.26.12-.34.25-.68.37-1.02-1.08-.8-2.17-1.59-3.83-2.81zm-27.4 32.77c1.82.11 3.39.21 5.91.36-2.19-1.88-3.55-3.04-5.23-4.47-.27 1.63-.44 2.69-.68 4.11z" fill="#010000"/><g fill="#fbfcfa"><path d="m361.2 9.6.8-1c.9.7 1.9 1.4 2.9 2.3l-.9 1.1c-1-1-2-1.8-2.8-2.4zm.5 10.6c.9-2.1 1.6-4.3 2.3-6.7.4.2.8.4 1.3.6-.7 2.1-1.5 4.3-2.2 6.6zm.4-15.2.9-.9c1 .8 2 1.6 2.8 2.4l-1 1c-.9-.9-1.8-1.7-2.7-2.5zm12.5-1.2h1.2v1.4h2.7v1.1h-2.7v2.7h-1.2v-.6h-1.8v1.3h4.9v3.8h-1.2v-.5h-3.7c0 .4-.1.9-.1 1.2h5.1v1h-5.2c0 .5-.1.9-.2 1.2h6v1h-5.2c1.1 1.3 2.9 2 5.5 2.2-.4.4-.7.8-.9 1.3-2.9-.5-4.8-1.6-5.7-3.5h-.1c-.8 1.7-2.7 2.9-5.9 3.6-.2-.4-.6-.8-.9-1.1 2.8-.6 4.6-1.4 5.4-2.5h-4.8v-1h5.3c.1-.3.2-.7.2-1.2h-4.9v-1h5c0-.4 0-.8.1-1.2h-3.5v.5h-1.2v-3.8h4.9v-1.3h-1.8v.5h-1.2v-2.7h-2.7v-1h2.6v-1.4h1.2v1.4h4.7v-1.4zm-6.6 8.3h3.6c0-.4 0-.9 0-1.4h-3.6zm1.9-4.6h4.7v-1.3h-4.7zm6.6 3.2h-3.7v1.4h3.7z"/><path d="m385.3 3.8h1.3v2.2h2.8v-2.2h1.3v2.2h4.1v9.1h1.7v1.3h-16.9v-1.3h1.7v-9.1h4.1v-2.2zm.4 13.1.7 1.2c-1.8.9-3.8 1.9-6 2.9-.2-.4-.5-.8-.8-1.3 2.3-1 4.3-1.9 6.1-2.8zm-3.1-6.4h2.8v-3.2h-2.8zm0 4.6h2.8v-3.3h-2.8zm4-4.6h2.8v-3.2h-2.8zm0 4.6h2.8v-3.3h-2.8zm3.7 1.9c2.1.9 4.1 1.8 6.1 2.7l-.7 1.3c-2.2-1.1-4.2-2-6.1-2.9zm3.2-9.7h-2.8v3.2h2.8zm-2.8 7.8h2.8v-3.3h-2.8z"/></g></svg>