<svg enable-background="new 0 0 400 400" viewBox="0 0 400 400" xmlns="http://www.w3.org/2000/svg"><path d="m181.06 325.35c-8.28-16.1-16.29-31.32-23.97-46.71-9.65-19.32-19.81-38.32-32.07-56.16-1.49-2.16-3-2.95-5.41-2.85-15.86.66-31.72 1.23-47.58 1.95-8.47.38-16.79.02-24.58-3.79-4.33-2.11-7.77-5.19-9.93-10.17 9.79-2.48 19.42-4.88 29.02-7.36 11.14-2.89 22.32-5.64 33.37-8.85 7.64-2.22 7.11-2.37 4.69-9.72-4.51-13.73-12.85-25.19-20.76-36.95-3.13-4.66-7.71-6.79-13.16-6.71-1.82.03-3.94.93-5.38 2.1-13.38 10.86-26.65 21.87-39.95 32.83-1.01.83-2.04 1.63-3.65 2.91 1.31-7.59 2.44-14.41 3.72-21.19.19-1.02 1.02-1.97 1.68-2.86 11.38-15.52 22.82-30.99 34.14-46.56 1.33-1.83 2.31-4.07 2.91-6.27 1.81-6.67 3.36-13.41 5.11-20.53 5.09.65 10.06 1.19 14.99 2 .81.13 1.64 1.36 2.08 2.27 2.07 4.34 4.09 8.7 5.93 13.14.78 1.88 1.85 2.99 3.91 2.97 6.97-.09 10.52 3.56 13.53 9.81 13.66 28.39 27.95 56.48 41.91 84.73 1.01 2.04 2.27 2.73 4.36 2.77 17.56.34 35.12.73 52.68 1.1 5.7.12 11.41.13 17.11.4 2.03.1 3.23-.53 4.47-2.11 11.2-14.39 19.74-30.33 27.62-46.68 7.18-14.89 13.97-29.99 21.74-44.57 5.86-10.99 13.45-20.92 24.01-28.05 1.25-.84 3.36-1.21 4.8-.82 9.36 2.59 16.69 8.55 23.32 15.27 13.99 14.19 25.78 30.03 34.35 48.12 3.33 7.02 5.55 14.37 5.72 22.24.05 2.23-.9 3.08-2.9 4.09-6.57 3.32-10.88 1.85-15.7-3.93-8.22-9.86-17.45-18.91-26.61-27.94-4.89-4.82-10.81-8.26-17.94-9.08-2.95-.34-4.88.36-6.67 3.01-6.46 9.53-13.12 18.94-19.93 28.24-7.32 9.99-12.85 20.9-17.82 32.41 7.25 4.01 14.97 5.8 22.9 6.31 8.7.56 17.45.19 26.15.74 4.72.3 9.58 1.12 13.98 2.76 2.49.93 4.91 3.66 6.09 6.18 2.46 5.24 1.04 7.88-4.32 10-13.06 5.17-26.73 6.14-40.56 5.66-12.2-.42-24.38-.93-36.44 1.54-.98.2-1.94.55-2.93.7-3.68.57-5.35 2.71-6.15 6.35-1.64 7.53-3.18 15.17-5.82 22.37-2.75 7.5-6.36 14.77-10.3 21.74-8.77 15.52-18.37 30.52-32 42.39-4.27 3.71-8.92 6.99-13.76 10.76zm7.39-58.28c5.36-1.52 9.19-4.19 11.67-9.06 3.84-7.55 8.27-14.8 12.22-22.3 1.44-2.73 2.63-5.72 3.2-8.74 1.32-6.96-5.62-13.08-12.37-10.85-7.84 2.59-15.82 3.62-24.03 3.69-5.42.05-10.08 2.34-14.26 6.07 7.93 13.83 15.77 27.55 23.57 41.19z" fill="#010100"/><g fill="#fcfbfa"><path d="m377.9 391.2c-.2.3-.4.5-.6.8-.7-.6-1.4-1-2.2-1.5.2-.3.4-.5.5-.8.6.4 1.4.8 2.3 1.5zm-1.8 6.1c-.2-.2-.5-.4-.9-.6.4-.6.8-1.2 1.2-1.9s.7-1.3.9-1.9c.3.3.5.5.8.7-.7 1.3-1.4 2.6-2 3.7zm2.2-9c-.3.3-.5.5-.6.8-.6-.6-1.3-1.1-2-1.5.3-.3.5-.5.6-.7.6.5 1.3.9 2 1.4zm.3.2v-.9h2 4.5c-.3 1.3-.6 2.5-1 3.6s-.9 2.1-1.4 3c.4.5 1 1 1.6 1.4s1.2.8 1.9 1.1c-.3.2-.5.4-.8.8-.4-.3-1-.7-1.6-1.2s-1.2-1.1-1.6-1.6c-.5.6-1.1 1.1-1.7 1.6s-1.4.9-2.1 1.4c-.1-.3-.3-.5-.7-.8.6-.2 1.2-.5 1.9-1s1.4-1.1 2-1.8c-.5-.8-.9-1.6-1.2-2.5s-.6-2-.8-3.2c-.4.1-.7.1-1 .1zm2.5 2.7c.3 1 .7 1.7 1 2.2.3-.5.6-1.1 1-2s.6-1.9.9-3h-3.2-.4c.1.9.3 1.8.7 2.8z"/><path d="m396.5 388.5v1.5 3.6h1.5v.9c-.4 0-1 0-1.7 0h-7.9c-.5 0-.9 0-1.2 0v-.9h1.3v-3.5c0-.7 0-1.2 0-1.6h2.4c0-.8 0-1.4 0-1.7h1c0 .3-.1.8-.1 1.7h1.5c0-.8 0-1.4 0-1.7h1c0 .3-.1.9-.1 1.7zm-8.2 9.2c-.2-.3-.5-.5-.8-.8.8-.3 1.4-.6 1.9-.9s1-.7 1.4-1.1c.3.3.6.5.9.8-1.6 1-2.8 1.6-3.4 2zm2.6-6.8v-1.6h-1.5v1.6zm0 2.7v-1.9h-1.5v1.9zm2.4-2.7v-1.6h-1.5v1.6zm0 2.7v-1.9h-1.5v1.9zm.2 2 .7-.8c.4.2.9.5 1.6.8s1.3.7 1.8 1c-.3.3-.5.5-.8.8-.4-.3-1.5-1-3.3-1.8zm2-4.7v-1.6h-1.4v1.6zm0 2.7v-1.9h-1.4v1.9z"/></g></svg>