<svg enable-background="new 0 0 400 400" viewBox="0 0 400 400" xmlns="http://www.w3.org/2000/svg"><path d="m138.22 283.53c10.18-1.63 19.96-3.2 30.88-4.95 1.23-11.53 2.54-23.91 3.84-36.17-6.86-2.45-11.09-2.18-16.13.94-5.86-4.02-12.58-4.34-19.48-3.78-3.08.25-5.33-1.41-5.8-4.61-.74-5.06-1.2-10.15-1.82-15.53 6.89-.78 13.76-1.47 20.61-2.35 7.31-.94 14.6-2.12 21.91-3.07 1.99-.26 2.69-.99 2.96-3.1.58-4.63 1.79-9.17 2.5-13.79.66-4.29 1.31-8.61 1.43-12.93.21-7.04-.2-14.11.03-21.15.13-4.05 1.11-8.07 1.54-12.13.26-2.42.42-4.89.27-7.32-.26-4.21-.9-8.39-1.19-12.59-.49-7.12-.71-14.27-1.29-21.38-.68-8.42-5.19-15.55-9.41-22.33-2.55-4.1-7.96-6.78-12.57-9.16-13.59-7.01-28.25-10.39-43.46-11.45-3.24-.23-6.52-.12-9.7-.66-9.93-1.68-18.82 2.73-28.2 4.35-10.56 1.81-16.15 8.5-20.33 17.39-6.21 13.21-6.5 27.03-4.38 41.07.63 4.18 2.04 8.24 2.85 12.4 3.52 18.02 28.56 29.12 42.79 24.61 3.29-1.04 6.72-1.68 10.1-2.44 10.19-2.26 13.48-8.06 13.74-17.01.04-1.34-.21-2.69-.14-4.02.41-7.55-3.99-11.63-10.3-14.29-2.5-1.06-5-1.83-7.67-.12-.83.53-2.15.45-3.24.42-3.46-.11-6.94-.2-10.38-.57-1.37-.15-3.81-1.09-3.78-1.51.14-1.86.45-4.55 1.71-5.37 19.87-12.9 41.68-4.99 49.35 13.65 1.38 3.35 1.28 7.47 1.19 11.22-.11 4.65-.02 9.62-1.63 13.85-3.93 10.34-11.94 17.15-22.04 21.24-6.29 2.54-12.77 4.91-19.85 3.75-.84-.14-1.83.05-2.63.38-5.07 2.05-10.2 1.55-15.11-.13-7.79-2.67-15.73-5.19-23.01-8.92-4.62-2.37-8.07-6.94-12.24-10.3-10.33-8.34-14.65-19.93-16.77-32.3-3.45-20.18.43-39.73 7.73-58.48 2.34-6.01 6.28-11.63 12.95-14.76 6.2-2.91 11.49-7.97 17.85-10.27 13.75-4.98 27.93-8.71 42.79-8.57 1.17.01 2.35.45 3.5.76 1.95.53 3.85 1.4 5.83 1.62 10.81 1.21 21.74 1.47 31.91 6.3 4.17 1.98 8.92 2.73 13.36 4.17 2.94.95 5.8 2.14 8.7 3.23 1.04.39 2.07 1.17 3.09 1.16 5.56-.07 9.69 2.93 13.85 6.03 3.13 2.34 6.29 4.65 9.61 6.69 3.03 1.85 6.37 2.01 9.66.5 3.04-1.4 6.15-2.69 9.06-4.33 7.37-4.18 14.72-8.43 21.94-12.87 5.6-3.44 11.81-4.61 18.12-5.58 12.93-1.98 25.83-4.12 38.79-5.86 10.22-1.37 20.17-.16 30.05 3.2 11.22 3.81 21.16 9.75 30.77 16.42.27.19.73.4.75.63.42 4.2 4.28 5.94 6.39 8.92 4.61 6.49 9.57 12.68 7.87 21.5-.24 1.26.62 2.82 1.2 4.14 4.39 10.04 1.89 19.66-1.53 29.32-5.37 15.15-13.73 28.56-23.71 41-1.63 2.04-4.29 3.49-6.76 4.58-7.03 3.09-14.16 5.97-21.33 8.71-10.08 3.85-20 2.46-29.75-1.41-5.06-2.01-10.11-4.08-15.12-6.21-1-.42-1.9-1.17-2.72-1.9-2.77-2.45-5.51-4.92-8.2-7.45-6.19-5.8-8.79-12.81-6.97-21.23.69-3.17 1.55-6.3 2.25-9.46 1.43-6.47 3.99-12.15 9.48-16.37 4.15-3.18 7.67-7.2 11.88-10.28 1.84-1.35 6.08-2.51 6.85-1.65 1.88 2.12 3.38 5.54 3.19 8.31-.24 3.61-1.88 7.3-3.6 10.6-2.22 4.24-5.3 8.03-7.7 12.19-3.4 5.88-1.51 14.32 2.91 19.47 7.65 8.9 16.64 9.31 26.71 5.54 3.03-1.14 6.08-2.24 9.11-3.4 6.47-2.47 12.27-5.62 13.22-13.63.32.29.64.59.96.88 1.3-1.34 2.98-2.47 3.83-4.05 4.51-8.48 9.19-16.92 10.46-26.69 1.25-9.62.35-18.98-3.19-28.03-.43-1.11-1.24-2.11-2.04-3.03-2.5-2.87-5.47-5.41-7.56-8.54-5.08-7.61-12.68-10.38-21.09-11.31-19.92-2.2-39.28-.25-57.49 8.86-.88.44-1.65 1.13-2.46 1.72-3.87 2.84-7.63 5.85-11.63 8.49-7.16 4.73-13.01 10.32-15.95 18.75-2.91 8.33-7.74 16.18-9.4 24.69-1.67 8.52-.38 17.61-.56 26.44-.36 17.9-.83 35.8-1.25 53.71-.04 1.78-.01 3.56-.01 6.3 6.66.66 13.25 1.49 19.87 1.9 5.9.37 11.89-.25 17.72.5 7.81 1 12.38 11.12 8.57 18.1-.33.61-1.42 1.02-2.21 1.12-7.77.97-15.55 1.86-23.33 2.73-.86.1-1.89.13-2.61-.25-4.25-2.24-8.42-.96-12.69-.1-3.22.65-5.24 2.46-5.3 5.57-.19 10.25-.65 20.55.08 30.75.49 6.93 3.1 8.61 10.12 9.1 4 .28 8.04-.01 12.06-.02 5.23-.01 9.42 1.91 11.7 6.84.41.88.09 2.23-.22 3.27-.24.81-.98 1.48-1.49 2.21-4.33 6.18-8.21 12.58-11.9 19.2-4.48 8.04-10.75 15.09-16.31 22.53-.86 1.15-1.92 2.19-3.04 3.09-5.18 4.19-9.54 8.84-11.89 15.38-1.98 5.49-9.3 6.14-12.57 1.18-3.96-6.01-9.09-11.45-10.46-18.92-.1-.53-.41-1.04-.72-1.51-8.25-12.49-15.73-25.54-26.59-36.15-4.35-4.35-8.15-9.22-10.54-15.83z" fill="#010100"/><g fill="#fcfbfa"><path d="m377.9 391.2c-.2.3-.4.5-.6.8-.7-.6-1.4-1-2.2-1.5.2-.3.4-.5.5-.8.6.4 1.4.8 2.3 1.5zm-1.8 6.1c-.2-.2-.5-.4-.9-.6.4-.6.8-1.2 1.2-1.9s.7-1.3.9-1.9c.3.3.5.5.8.7-.7 1.3-1.4 2.6-2 3.7zm2.2-9c-.3.3-.5.5-.6.8-.6-.6-1.3-1.1-2-1.5.3-.3.5-.5.6-.7.6.5 1.3.9 2 1.4zm.3.2v-.9h2 4.5c-.3 1.3-.6 2.5-1 3.6s-.9 2.1-1.4 3c.4.5 1 1 1.6 1.4s1.2.8 1.9 1.1c-.3.2-.5.4-.8.8-.4-.3-1-.7-1.6-1.2s-1.2-1.1-1.6-1.6c-.5.6-1.1 1.1-1.7 1.6s-1.4.9-2.1 1.4c-.1-.3-.3-.5-.7-.8.6-.2 1.2-.5 1.9-1s1.4-1.1 2-1.8c-.5-.8-.9-1.6-1.2-2.5s-.6-2-.8-3.2c-.4.1-.7.1-1 .1zm2.5 2.7c.3 1 .7 1.7 1 2.2.3-.5.6-1.1 1-2s.6-1.9.9-3h-3.2-.4c.1.9.3 1.8.7 2.8z"/><path d="m396.5 388.5v1.5 3.6h1.5v.9c-.4 0-1 0-1.7 0h-7.9c-.5 0-.9 0-1.2 0v-.9h1.3v-3.5c0-.7 0-1.2 0-1.6h2.4c0-.8 0-1.4 0-1.7h1c0 .3-.1.8-.1 1.7h1.5c0-.8 0-1.4 0-1.7h1c0 .3-.1.9-.1 1.7zm-8.2 9.2c-.2-.3-.5-.5-.8-.8.8-.3 1.4-.6 1.9-.9s1-.7 1.4-1.1c.3.3.6.5.9.8-1.6 1-2.8 1.6-3.4 2zm2.6-6.8v-1.6h-1.5v1.6zm0 2.7v-1.9h-1.5v1.9zm2.4-2.7v-1.6h-1.5v1.6zm0 2.7v-1.9h-1.5v1.9zm.2 2 .7-.8c.4.2.9.5 1.6.8s1.3.7 1.8 1c-.3.3-.5.5-.8.8-.4-.3-1.5-1-3.3-1.8zm2-4.7v-1.6h-1.4v1.6zm0 2.7v-1.9h-1.4v1.9z"/></g></svg>