<svg enable-background="new 0 0 400 400" viewBox="0 0 400 400" xmlns="http://www.w3.org/2000/svg"><path d="m159.07 318.58c-12.38-.48-24.23-.71-36.04-1.46-15.06-.96-30.16-2.01-44.66-6.71-6.68-2.17-12.68-5.53-17.04-12.19 5.51-.38 10.57-.76 15.63-1.08 16.3-1.04 32.59-2.22 48.9-3.01 6.8-.33 13.65.41 20.46.25 13.22-.32 20.23-7.75 19.58-20.98-.44-8.82-1.46-17.61-2.42-26.4-.11-1.02-1.32-2.26-2.34-2.79-6.98-3.64-14.57-5.21-22.34-5.19-8.37.03-16.73.79-25.11 1.11-11.53.43-22.07-1.84-29.71-11.49-1.22-1.55-2.2-3.29-3.55-5.33 8.96-.98 17.37-1.92 25.79-2.82 16.91-1.81 33.81-3.64 50.73-5.34 1.97-.2 2.4-1.15 2.54-2.76 1.38-15.6 2.79-31.2 4.13-46.8.36-4.12.33-8.29.86-12.39.41-3.17-.5-5.79-1.71-8.64-6.52-15.38-17.54-28.02-25.7-42.4-4.17-7.35-8.97-14.45-14.3-21-2.76-3.38-7.21-5.45-11.1-7.79-.85-.51-2.89-.11-3.75.62-6.16 5.19-12.56 10.2-18.09 16.02-5.13 5.4-9.19 11.81-13.87 17.66-5.06 6.34-11.67 10.19-20.27 11.9 2.26-5.94 4.45-11.38 6.39-16.92 1.1-3.14 2.88-5.52 5.31-7.86 13.18-12.68 22.46-28.04 29.56-44.75 1.93-4.55 1.57-9.1-1.22-13.46-2.37-3.7-.75-8.46 3.3-10.39.51-.24 1.38-.32 1.82-.04 3.65 2.28 8.44 3.86 10.61 7.15 5.72 8.67 13.51 14.81 21.67 20.72 1.83 1.33 3.07 2.77 3.1 5.18.14 9.69 5.01 16.5 12.09 22.96 11.39 10.38 21.81 21.83 32.56 32.9 1.28 1.31 2.17 1.75 3.96.91 6.99-3.26 14.09-6.28 21.09-9.5 1.27-.58 2.48-1.53 3.41-2.58 12.91-14.58 26.11-28.93 38.52-43.94 6.81-8.24 12.39-17.53 18.26-26.51 1.74-2.66 3.37-3.51 6.65-3.28 4.96.35 8.11 1.87 8.89 7.14.67 4.54 3.53 7.7 6.93 10.66 8.02 6.98 15.83 14.21 23.65 21.41 1.2 1.11 2.24 2.49 3.05 3.92 2.36 4.19 4.82 8.35 6.76 12.73 2.24 5.06 5.78 8.68 10.51 11.29 3.09 1.7 4.92 4.15 4.89 8.36-3.75.48-7.72.47-11.36 1.56-7.7 2.3-12.91.13-17.3-6.66-4.36-6.74-9.91-12.69-14.76-19.12-6.38-8.45-14.79-12-25.21-10.73-1.67.2-3.49.91-4.8 1.95-8 6.3-15.9 12.73-23.76 19.21-1.7 1.41-3.17 3.14-4.56 4.88-4.95 6.22-10.05 12.33-14.63 18.81-4.5 6.36-10.1 11.25-16.79 15.1-3 1.73-5.88 3.67-8.74 5.64-5.13 3.53-7.27 8.64-7.32 14.68-.01.97.52 2.19 1.22 2.88 2.89 2.84 4.26 6.34 4.43 10.23.51 12.12-1.9 23.85-5.7 35.23-1.2 3.59-4.13 6.6-6.79 10.68 5.1 2.16 9.89 4.86 15.04 6.19 6.11 1.58 12.51 2.51 18.82 2.77 10.5.44 21.02.06 31.54.14 6.03.04 11.79 1.3 16.84 4.79 3.02 2.09 4.75 4.97 4.86 9.43-5.74 1.28-11.52 2.91-17.42 3.82-16.29 2.51-32.68 3.61-49.16 2.19-2.11-.18-4.25-.22-6.37-.2-6.84.05-11.55 3.13-12.92 9.82-1.29 6.3-1.46 12.83-1.98 19.27-.59 7.34-1.02 14.7-1.5 22.05-.04.65-.01 1.31-.01 2.26 7.45 1.04 14.85 2.03 22.23 3.12 20.8 3.04 41.59 6.13 62.38 9.17 2.65.39 5.37.41 7.99.97 1.56.33 3.28 1.05 4.39 2.14 2.76 2.7 2.2 5.33-1.24 6.97-10.1 4.81-20.96 6.07-31.92 6.97-19 1.55-38 1.4-56.98-.15-2.96-.24-4.79.82-6.5 3.03-5.06 6.57-6.07 14.26-6.43 22.17-.21 4.8-.12 9.65-.86 14.37-.96 6.1-3.96 11.11-10.17 13.98-3.81-5.11-7.6-10.04-4.78-17 1.72-4.25 1.57-8.59 1.22-13.15-.48-6.2.04-12.48.17-18.72.1-2.43.29-4.87.45-7.83z" fill="#010100"/><g fill="#fcfbfa"><path d="m377.9 391.2c-.2.3-.4.5-.6.8-.7-.6-1.4-1-2.2-1.5.2-.3.4-.5.5-.8.6.4 1.4.8 2.3 1.5zm-1.8 6.1c-.2-.2-.5-.4-.9-.6.4-.6.8-1.2 1.2-1.9s.7-1.3.9-1.9c.3.3.5.5.8.7-.7 1.3-1.4 2.6-2 3.7zm2.2-9c-.3.3-.5.5-.6.8-.6-.6-1.3-1.1-2-1.5.3-.3.5-.5.6-.7.6.5 1.3.9 2 1.4zm.3.2v-.9h2 4.5c-.3 1.3-.6 2.5-1 3.6s-.9 2.1-1.4 3c.4.5 1 1 1.6 1.4s1.2.8 1.9 1.1c-.3.2-.5.4-.8.8-.4-.3-1-.7-1.6-1.2s-1.2-1.1-1.6-1.6c-.5.6-1.1 1.1-1.7 1.6s-1.4.9-2.1 1.4c-.1-.3-.3-.5-.7-.8.6-.2 1.2-.5 1.9-1s1.4-1.1 2-1.8c-.5-.8-.9-1.6-1.2-2.5s-.6-2-.8-3.2c-.4.1-.7.1-1 .1zm2.5 2.7c.3 1 .7 1.7 1 2.2.3-.5.6-1.1 1-2s.6-1.9.9-3h-3.2-.4c.1.9.3 1.8.7 2.8z"/><path d="m396.5 388.5v1.5 3.6h1.5v.9c-.4 0-1 0-1.7 0h-7.9c-.5 0-.9 0-1.2 0v-.9h1.3v-3.5c0-.7 0-1.2 0-1.6h2.4c0-.8 0-1.4 0-1.7h1c0 .3-.1.8-.1 1.7h1.5c0-.8 0-1.4 0-1.7h1c0 .3-.1.9-.1 1.7zm-8.2 9.2c-.2-.3-.5-.5-.8-.8.8-.3 1.4-.6 1.9-.9s1-.7 1.4-1.1c.3.3.6.5.9.8-1.6 1-2.8 1.6-3.4 2zm2.6-6.8v-1.6h-1.5v1.6zm0 2.7v-1.9h-1.5v1.9zm2.4-2.7v-1.6h-1.5v1.6zm0 2.7v-1.9h-1.5v1.9zm.2 2 .7-.8c.4.2.9.5 1.6.8s1.3.7 1.8 1c-.3.3-.5.5-.8.8-.4-.3-1.5-1-3.3-1.8zm2-4.7v-1.6h-1.4v1.6zm0 2.7v-1.9h-1.4v1.9z"/></g></svg>