<svg enable-background="new 0 0 400 400" viewBox="0 0 400 400" xmlns="http://www.w3.org/2000/svg"><path d="m176.78 114.65c-.85-.71-1.61-1.35-2.58-2.16 4.23-2.79 4.17-6.82 2.96-10.98-.97-3.33-1.26-7.94-3.57-9.62-11.41-8.27-24.48-13.36-38.06-16.91-4.03-1.05-8.45-.52-12.68-.88-3.12-.27-5.37-1.98-6.9-5.09 8.33-4.52 17-4.99 25.92-2.78 3.35.83 6.58 2.13 9.89 3.17 1.27.4 2.57.79 3.89.98 3.73.55 6.12-1.4 5.63-5.04-.81-6.01-2.38-11.62-7.24-16.07-6.38-5.84-12.67-11.54-21.01-14.6-1.68-.61-2.64-3.18-3.93-4.83 4.57-4.09 8.97-5.5 14.56-4 18.36 4.92 29.64 17.42 37.45 33.91 1.47 3.09 2.96 6.3 5.07 8.94 5.37 6.74 7.5 14.66 8.87 22.83 4.8 28.56 9.49 57.13 14.14 85.72 1.84 11.3.45 22.54-.89 33.78-.84 7.09-.15 14.01 2.94 20.88 4.68-3.52 5.96-8.6 7.3-13.6 1.83-6.78 3.22-13.71 5.42-20.36 1.68-5.09 1.12-9.87.63-15.03-1.84-19.32-.13-37.89 15.15-52.31 4.06-3.83 8.45-7.35 12.95-10.66 1.89-1.39 4.39-2.19 6.73-2.66 4.09-.82 6.96 2.45 5.67 6.49-.58 1.81-1.81 3.59-3.18 4.94-5.41 5.33-11.19 10.3-16.43 15.8-2.32 2.43-3.67 5.78-5.95 9.52 5.4-.63 9.81.1 14.08-2.86 7.39-5.12 15.77-6.46 25.64-4.26-1.22 1.52-1.86 2.85-2.92 3.54-11.03 7.25-22.1 14.44-33.22 21.54-1.68 1.07-2.68 2.18-2.46 4.26.12 1.1-.2 2.24-.11 3.35 1.32 16.25-3.6 31.29-8.55 46.42-3.01 9.2-4.89 18.77-7.35 28.15-.48 1.81-1.01 3.73-2.02 5.26-2.34 3.55-6.7 4.1-9.58 1.13-5.83-6-11.7-12-17.1-18.38-3.15-3.73-3.85-8.58-4.31-13.5-1.3-13.79-2.93-27.54-4.56-41.3-.23-1.95-1.15-3.81-1.9-6.21-4.93 4.73-8.74 9.8-11.33 15.53-5.79 12.81-10.36 25.97-8.57 40.45.2 1.6 0 3.44-.62 4.9-1.57 3.71-1.41 7.23-.19 11 1.68 5.21 3.16 10.49 4.36 15.83.83 3.66 1.26 7.45 1.49 11.21.82 13.61 1.76 27.23 2.08 40.86.15 6.43-.91 12.9-1.57 19.34-.76 7.34-1.37 14.73-2.69 21.97-.66 3.61-2.6 7.04-4.31 10.37-.56 1.09-2.22 1.6-3.63 2.55-3.43-5.88-4.74-11.68-2.62-17.71 4.34-12.36 5.36-25 2.66-37.69-4.14-19.43-.97-39.02-2.13-58.5-.24-4.07-1.24-8.09-1.79-12.14-.38-2.82-.85-5.67-.83-8.5.03-3.46.52-6.91.87-10.36.12-1.21 0-3.01.72-3.51 3.27-2.3 1.53-4.81 1.02-7.56-.52-2.8-.1-5.77-.23-8.66-.55-12.44 6.42-22.18 11.41-32.71 3.58-7.56 8.79-13.6 14.77-19.24 5.6-5.28 4.25-14.74-2.31-18.88-15.22-9.6-31.53-16.27-49.43-18.86-2.52-.37-5.02-1.16-7.41-2.06-1.29-.49-2.59-1.43-3.42-2.52-1.67-2.2-1.01-3.93 1.64-4.58 12.79-3.16 25.27-1.82 37.47 2.86 2.19.84 4.3 1.91 6.52 2.63 3.54 1.15 6.77.55 9.68-2.54z" fill="#010100"/><g fill="#fcfafa"><path d="m342.2 3.2-6.3 9.2h6.1v1.2h-8.2v-.5l6.2-9.1h-5.7v-1.2h7.8v.4z"/><path d="m344 13.7v-10.9h3.1c1.6 0 3 .5 4.1 1.4 1.1 1 1.6 2.2 1.6 3.9s-.5 3-1.6 4-2.5 1.5-4.2 1.5h-3zm1.4-9.6v8.4h1.6c1.4 0 2.5-.4 3.2-1.1.8-.8 1.2-1.8 1.2-3.2s-.4-2.4-1.2-3.1-1.8-1-3.1-1z"/><path d="m356.3 2.8v10.9h-1.4v-10.9z"/><path d="m366.6 13.2c-.8.4-1.8.6-3 .6-1.6 0-2.8-.5-3.7-1.5s-1.4-2.3-1.4-3.9c0-1.7.5-3.2 1.6-4.2s2.4-1.6 4-1.6c1 0 1.9.1 2.6.4v1.5c-.8-.4-1.6-.6-2.6-.6-1.2 0-2.2.4-3 1.2s-1.1 1.9-1.1 3.3c0 1.3.4 2.3 1.1 3.1s1.6 1.1 2.8 1.1c1.1 0 2-.2 2.8-.7v1.3z"/><path d="m368.2 13c0-.3.1-.5.3-.6.2-.2.4-.3.6-.3.3 0 .5.1.7.3s.3.4.3.6-.1.5-.3.6c-.2.2-.4.3-.7.3s-.5-.1-.6-.3c-.2-.2-.3-.4-.3-.6z"/><path d="m381.1 13.7h-1.7l-5.5-8.4c-.2-.2-.3-.5-.4-.7 0 .2.1.8.1 1.5v7.6h-1.4v-10.9h1.8l5.3 8.3c.3.4.4.6.4.8 0-.3-.1-.8-.1-1.6v-7.5h1.4v10.9z"/><path d="m389.7 13.7h-5.8v-10.9h5.6v1.2h-4.2v3.5h3.9v1.2h-3.9v3.7h4.4z"/><path d="m398.4 4.1h-3.1v9.6h-1.4v-9.6h-3.1v-1.3h7.7v1.3z"/></g></svg>