<svg enable-background="new 0 0 400 400" viewBox="0 0 400 400" xmlns="http://www.w3.org/2000/svg"><path d="m361.2 9.6.8-1c.9.7 1.9 1.4 2.9 2.3l-.9 1.1c-1-1-2-1.8-2.8-2.4zm.5 10.6c.9-2.1 1.6-4.3 2.3-6.7.4.2.8.4 1.3.6-.7 2.1-1.5 4.3-2.2 6.6zm.4-15.2.9-.9c1 .8 2 1.6 2.8 2.4l-1 1c-.9-.9-1.8-1.7-2.7-2.5zm12.5-1.2h1.2v1.4h2.7v1.1h-2.7v2.7h-1.2v-.6h-1.8v1.3h4.9v3.8h-1.2v-.5h-3.7c0 .4-.1.9-.1 1.2h5.1v1h-5.2c0 .5-.1.9-.2 1.2h6v1h-5.2c1.1 1.3 2.9 2 5.5 2.2-.4.4-.7.8-.9 1.3-2.9-.5-4.8-1.6-5.7-3.5h-.1c-.8 1.7-2.7 2.9-5.9 3.6-.2-.4-.6-.8-.9-1.1 2.8-.6 4.6-1.4 5.4-2.5h-4.8v-1h5.3c.1-.3.2-.7.2-1.2h-4.9v-1h5c0-.4 0-.8.1-1.2h-3.5v.5h-1.2v-3.8h4.9v-1.3h-1.8v.5h-1.2v-2.7h-2.7v-1h2.6v-1.4h1.2v1.4h4.7v-1.4zm-6.6 8.3h3.6c0-.4 0-.9 0-1.4h-3.6zm1.9-4.6h4.7v-1.3h-4.7zm6.6 3.2h-3.7v1.4h3.7z" fill="#fbfcfa"/><path d="m385.3 3.8h1.3v2.2h2.8v-2.2h1.3v2.2h4.1v9.1h1.7v1.3h-16.9v-1.3h1.7v-9.1h4.1v-2.2zm.4 13.1.7 1.2c-1.8.9-3.8 1.9-6 2.9-.2-.4-.5-.8-.8-1.3 2.3-1 4.3-1.9 6.1-2.8zm-3.1-6.4h2.8v-3.2h-2.8zm0 4.6h2.8v-3.3h-2.8zm4-4.6h2.8v-3.2h-2.8zm0 4.6h2.8v-3.3h-2.8zm3.7 1.9c2.1.9 4.1 1.8 6.1 2.7l-.7 1.3c-2.2-1.1-4.2-2-6.1-2.9zm3.2-9.7h-2.8v3.2h2.8zm-2.8 7.8h2.8v-3.3h-2.8z" fill="#fbfcfa"/><path d="m102.87 357.29c.13-.83.19-1.69.4-2.5.45-1.69 1.56-3.43 1.37-5.03-1.02-8.65 1.56-16.6 4.14-24.6 1.78-5.51 1.72-5.53 1.27-10.53.39-1.26.77-2.52 1.15-3.79.03-.1.01-.22 0-.33-1.69-13.45.58-26.44 3.93-39.43 1.26-4.89.95-10.17 1.4-15.27.11-1.32 0-2.81.59-3.91 7.78-14.63 10.16-30.91 14.52-46.6 4.01-14.42 8.6-28.68 12.91-43.02 3.15-10.48 3.36-21.06 1.41-31.82-1.31-7.26-1.79-14.67-3.2-21.91-.82-4.2-2.42-8.33-4.24-12.23-1.58-3.4-4.76-3.64-7.09-.77-7.11 8.75-13.99 17.69-21.15 26.4-5.78 7.03-12.64 9.63-20.37 7.98.34-5.26.64-10.58 1.1-15.89.06-.74.8-1.53 1.41-2.11 9.63-9.26 15.83-20.69 20.82-32.88.71-1.74 1.38-3.57 2.47-5.07 6.66-9.23 12.03-19.45 20.74-27.12.63-.56.7-1.76 1.01-2.66.35-1.02.65-2.06 1.04-3.06.8-2.03 1.59-4.06 2.48-6.05.68-1.51 1.56-2.92 2.24-4.43.54-1.19.92-2.46 1.02-3.85 2.43-1.75 4.96.4 5.17 4.23.13 2.37.84 4.7 1.26 7.06.25 1.4.7 2.83.6 4.21-.52 7.26-1.07 14.51-1.85 21.74-.27 2.49-1.14 4.94-1.89 7.36-.92 2.99-2.08 5.9-2.98 8.89-.83 2.77-.66 5.35 1.11 7.95 1.28 1.88 1.51 4.44 2.64 6.45 1.32 2.36 2.64 5.34 4.79 6.49 6.58 3.52 13.41 6.75 20.44 9.27 10.91 3.91 22.1 7.03 33.08 10.73 1.92.65 3.92 2.17 5.06 3.84 5.84 8.59 11.99 17.08 15.01 27.2 1.81 6.1 3.23 12.32 4.8 18.49 2.85 11.25 7.22 21.76 13.69 31.5 5.8 8.72 11.9 17.36 15.07 27.57.31 1 1.13 1.92 1.9 2.68 9.35 9.18 18.53 18.53 28.2 27.35 3.64 3.32 8.43 5.37 13.11 8.25-4.41 2.04-8.77 2.01-13.07 1.11-4.37-.91-8.64-2.31-12.93-3.56-.83-.24-1.74-.62-2.31-1.23-4.97-5.27-9.86-10.61-14.78-15.93-.23-.25-.39-.55-.6-.81-19.51-22.67-29.59-50.25-40.34-77.48-2.5-6.34-5.49-12.51-7.63-18.97-2.05-6.2-6.42-9.44-12.11-11.49-2.62-.95-5.34-1.65-8-2.49-3.09-.97-6.71-1.25-9.15-3.1-6.32-4.77-13.85-5.73-20.98-8.03-1.89-.61-2.83-.21-3.32 1.43-.59 2.01-1.42 4.12-1.33 6.15.64 13.98-2.1 27.65-3.8 41.39-.61 4.93.46 9.04 2.82 13.03.48.81 1.9 1.34 2.96 1.49 10.08 1.38 20.33 2.11 29.64 6.68 4.69 2.3 9.35 4.86 13.48 8.01 5.56 4.24 7.78 10.21 6.51 17.26-1.14 6.34-.6 12.43 2.38 18.26 3.73 7.3 6.55 14.93 8.06 23.02.26 1.38 1.03 2.71 1.78 3.93 6.18 10.12 12.39 20.22 18.65 30.29.87 1.4 1.97 2.73 3.21 3.81 9.71 8.45 19.31 17.05 29.32 25.13 3.29 2.65 7.71 3.9 11.58 5.84 2.53 1.27 5.32 2.3 6.6 6.33-12.41-2.97-25.07-2.69-34.93-11.53-1.82-1.63-3.81-3.19-5.96-4.34-6.82-3.66-11.47-9.21-15.57-15.68-4-6.31-8.99-11.98-13.51-17.96-4.21-5.57-7.34-11.64-9.61-18.31-1.14-3.36-4-6.11-5.85-9.26-1.32-2.26-2.67-4.64-3.3-7.15-2.34-9.32-4.42-18.71-6.5-28.1-.42-1.9-1.05-3.03-3.16-3.68-7.01-2.17-14.08-4.3-20.81-7.18-4.21-1.8-7.87-4.91-11.73-7.5-.82-.55-1.38-1.48-2.15-2.11-4.25-3.48-6.94-3.24-9.83 1.31-5.85 9.22-9.33 19.25-9.64 30.28-.06 2.1-.12 4.29-.76 6.25-2.18 6.67.69 11.35 7.83 12.2 9.03 1.08 17.37 3.98 25.03 8.94 11.07 7.17 16.05 17.87 18.12 30.42 1 6.05 2.44 12.03 3.67 18.05.11.54.33 1.14.19 1.64-1.48 5.36.71 10.09 2.43 14.93 1.84 5.15 3.36 10.42 5.31 15.53.86 2.25 2.48 4.2 3.72 6.31 4.8 8.12 11.03 14.86 19.15 19.77.57.34 1.07.82 1.57 1.26.15.13.22.36.33.55-2.98 3.58-7.56 3.75-11 .72-1.36-1.2-3.22-2.04-4.99-2.5-4.01-1.04-6.79-3.22-9.18-6.69-6.48-9.42-12.11-19.49-13.89-30.61-2.21-13.76-8.99-25.59-13.37-38.4-5.57-16.32-18.19-24.61-34.34-28.19-2.3-.51-4.88.1-7.3.43-.7.09-1.52.88-1.88 1.57-.55 1.07-.84 2.31-1.1 3.5-1.82 8.38-3.73 16.74-5.32 25.16-.48 2.53.01 5.23-.03 7.86-.02.97-.17 1.97-.45 2.89-3.88 12.82-7.65 25.68-11.78 38.43-1.23 3.79-3.49 7.24-5.28 10.85-.42-.16-.88-.33-1.35-.51z" fill="#010105"/></svg>