<svg enable-background="new 0 0 400 400" viewBox="0 0 400 400" xmlns="http://www.w3.org/2000/svg"><path d="m194.51 193.53c-4.3 6.28-8.42 12.25-12.45 18.27-.47.7-.71 1.7-.7 2.55.09 5.8-2.58 10.7-4.61 15.9-1.87 4.8-3.45 10.08-3.47 15.16-.03 12.91-.93 25.69-2.71 38.45-.4 2.9.03 6 .53 8.93.89 5.3 1.02 5.28-4.38 7.97-1.01-2.15-2.45-4.22-2.95-6.48-1.99-9.04-3.55-18.18-5.56-27.22-1.13-5.09-2.57-10.16-4.4-15.03-.78-2.07-2.95-3.61-4.86-5.82-5.72 10.8-10.98 20.77-16.28 30.71-3.85 7.24-7.91 14.39-14.77 19.26-2.92 2.08-6.36 3.43-10.25 5.47-.04-7.87 1.36-14.39 3.79-20.57 3.91-9.98 7.94-19.96 12.67-29.57 2.94-5.97 7.56-11.09 10.88-16.9 10.78-18.85 26.88-33.06 41.68-48.42 4.19-4.35 8.53-8.57 12.6-13.03 1.09-1.2 1.97-3.02 2.07-4.61.73-11.73.75-23.51 1.9-35.19 2.43-24.61 9.09-47.75 24.88-67.57 2.21-2.77 2.96-6.87 3.85-10.48.76-3.08 2.05-5.44 4.56-7.45 11.58-9.29 24.64-16 38.58-20.55 4.92-1.61 11.08-.35 16.46.71 4.41.87 4.36 3.34 1.25 6.66-4.74 5.06-10.12 7.96-17.26 7.98-8.6.02-15.24 4.89-21.23 10.35-13.05 11.89-21.85 26.76-28.77 42.83-.28.64.08 1.55.15 2.34.88-.22 1.97-.18 2.62-.69 6.96-5.57 14.69-9.78 22.98-12.96 5.32-2.04 10.8-2.76 16.58-1.51.74 3.56.56 6.53-2.59 9.24-5.08 4.38-9.67 9.32-14.61 13.87-2.28 2.1-4.82 3.95-7.39 5.69-3.61 2.44-7.25 4.9-11.09 6.93-8.31 4.41-11.25 11.66-11.52 20.5-.04 1.34-.08 2.69-.09 4.03-.03 3.73.98 4.83 4.74 5.37 3.51.5 6.26-1.05 8.92-3.07 11.4-8.65 23.94-15.24 37.38-20.06 3.52-1.26 7.29-1.82 11.37-2.8.36 2.34.87 4.07.81 5.79-.04 1.08-.65 2.74-1.47 3.11-9.12 4.11-15.28 11.36-21.12 19.1-1.61 2.13-3.99 3.83-6.3 5.27-5.69 3.53-11.7 6.55-17.28 10.23-5.53 3.65-8.38 8.98-7.1 15.8 1.09 5.8 2.23 11.62 3.86 17.29 3.59 12.45 8.36 24.62 11.04 37.24 2.57 12.07 3.61 24.55 4.42 36.9 1.26 19.1 5.11 37.58 10.55 55.87 1.83 6.15 2.08 12.76 3.31 19.11 1.16 6.02 2.56 11.99 4.05 17.94 1.38 5.5-.18 8.13-5.82 8.72-.96.1-2.64-.7-2.97-1.5-4.63-11.35-11.11-21.66-17.57-32-.92-1.47-1.39-3.28-1.81-4.99-2.36-9.66-5.13-19.26-6.8-29.04-1.73-10.12-2.64-20.4-3.4-30.66-1.66-22.17-4.79-44.01-12.76-64.92-2.58-6.9-5.87-13.32-12.14-18.45z" fill="#010100"/><g fill="#fcfafa"><path d="m342.2 3.2-6.3 9.2h6.1v1.2h-8.2v-.5l6.2-9.1h-5.7v-1.2h7.8v.4z"/><path d="m344 13.7v-10.9h3.1c1.6 0 3 .5 4.1 1.4 1.1 1 1.6 2.2 1.6 3.9s-.5 3-1.6 4-2.5 1.5-4.2 1.5h-3zm1.4-9.6v8.4h1.6c1.4 0 2.5-.4 3.2-1.1.8-.8 1.2-1.8 1.2-3.2s-.4-2.4-1.2-3.1-1.8-1-3.1-1z"/><path d="m356.3 2.8v10.9h-1.4v-10.9z"/><path d="m366.6 13.2c-.8.4-1.8.6-3 .6-1.6 0-2.8-.5-3.7-1.5s-1.4-2.3-1.4-3.9c0-1.7.5-3.2 1.6-4.2s2.4-1.6 4-1.6c1 0 1.9.1 2.6.4v1.5c-.8-.4-1.6-.6-2.6-.6-1.2 0-2.2.4-3 1.2s-1.1 1.9-1.1 3.3c0 1.3.4 2.3 1.1 3.1s1.6 1.1 2.8 1.1c1.1 0 2-.2 2.8-.7v1.3z"/><path d="m368.2 13c0-.3.1-.5.3-.6.2-.2.4-.3.6-.3.3 0 .5.1.7.3s.3.4.3.6-.1.5-.3.6c-.2.2-.4.3-.7.3s-.5-.1-.6-.3c-.2-.2-.3-.4-.3-.6z"/><path d="m381.1 13.7h-1.7l-5.5-8.4c-.2-.2-.3-.5-.4-.7 0 .2.1.8.1 1.5v7.6h-1.4v-10.9h1.8l5.3 8.3c.3.4.4.6.4.8 0-.3-.1-.8-.1-1.6v-7.5h1.4v10.9z"/><path d="m389.7 13.7h-5.8v-10.9h5.6v1.2h-4.2v3.5h3.9v1.2h-3.9v3.7h4.4z"/><path d="m398.4 4.1h-3.1v9.6h-1.4v-9.6h-3.1v-1.3h7.7v1.3z"/></g></svg>