<svg enable-background="new 0 0 400 400" viewBox="0 0 400 400" xmlns="http://www.w3.org/2000/svg"><g fill="#fafafb"><path d="m12.4 4.8-6.1 9h6v1.2h-8v-.5l6.1-8.9h-5.7v-1.2h7.6v.4z"/><path d="m14 15v-10.6h3c1.6 0 2.9.5 4 1.4s1.6 2.2 1.6 3.8-.5 3-1.6 3.9-2.4 1.5-4 1.5zm1.4-9.4v8.2h1.6c1.3 0 2.4-.4 3.1-1.1s1.1-1.8 1.1-3.1-.4-2.3-1.2-3-1.8-1-3.1-1z"/><path d="m26.1 4.4v10.6h-1.4v-10.6z"/><path d="m36.1 14.6c-.8.4-1.8.6-2.9.6-1.5 0-2.7-.5-3.6-1.4s-1.4-2.2-1.4-3.8c0-1.7.5-3.1 1.5-4.1s2.3-1.6 3.9-1.6c1 0 1.8.1 2.5.4v1.4c-.8-.4-1.6-.6-2.5-.6-1.2 0-2.1.4-2.9 1.2s-1.1 1.8-1.1 3.2c0 1.3.3 2.3 1 3s1.6 1.1 2.7 1.1c1 0 2-.2 2.7-.7v1.3z"/><path d="m37.6 14.3c0-.2.1-.5.3-.6s.4-.3.6-.3c.3 0 .5.1.6.3s.3.4.3.6-.1.4-.3.6-.4.3-.6.3c-.3 0-.5-.1-.6-.3s-.3-.4-.3-.6z"/><path d="m50.2 15h-1.6l-5.3-8.2c-.2-.2-.3-.5-.4-.7 0 .2.1.7.1 1.5v7.4h-1.4v-10.6h1.7l5.2 8.1c.2.4.4.6.4.7 0-.3-.1-.8-.1-1.5v-7.3h1.4z"/><path d="m58.6 15h-5.7v-10.6h5.5v1.2h-4.1v3.4h3.8v1.2h-3.8v3.6h4.3z"/><path d="m67.1 5.6h-3.1v9.4h-1.4v-9.4h-3v-1.2h7.5z"/></g><path d="m187.13 184.64c-1.06-6.71-2.21-13.31-3.08-19.95-.3-2.27-1.41-2.95-3.31-2.66-6.16.96-12.39 1.64-18.41 3.16-7.03 1.78-13.82 4.45-20.79 6.5-2.43.71-5.07 1.01-7.62.98-5.74-.05-8.44-3.01-8.5-8.81 6.95-2.71 13.97-5.23 20.81-8.15 7.36-3.15 13.98-7.45 19.14-13.78 2.61-3.21 2.78-6.42.99-9.95-.1-.2-.16-.44-.31-.59-12.29-12.23-15.26-28.86-20.25-44.33-5.38-16.67-9.25-33.83-13.65-50.81-.24-.92.45-2.67 1.25-3.18 5.28-3.33 10.95-2.35 16.53-.9.72.19 1.27 1.69 1.57 2.69 2.01 6.86 4.03 13.72 5.83 20.65.56 2.16 1.64 3.47 3.72 3.66 9.1.86 18.21 2.15 27.32 2.24 9.93.1 19.87-.91 29.8-1.54 5.2-.33 5.66-.99 7.36-6 1.73-5.1.89-10.17.39-15.28-.43-4.38.49-8.47 3.01-12.08.51-.73 1.74-1.43 2.6-1.38 8.43.45 14.44 5.26 16.79 13.47 2.97 10.37 1.76 20.82-1.22 30.8-4.01 13.47-9.25 26.57-13.79 39.89-2.02 5.91-4.16 11.37-8.92 16.03-3.65 3.58-5.67 8.93-8.03 13.69-1.25 2.52-.32 4.26 2.79 5.39 13.06 4.77 26.45 8.18 40.05 10.95 2.92.59 5.96 2.15 8.22 4.11 3.24 2.81 2.17 6.07-1.93 7.12-12.62 3.2-24.85 1.17-36.95-2.76-3.72-1.2-7.38-2.66-11.18-3.49-8.34-1.82-13.18 1.78-14.22 10.21-.1.78-.18 1.56-.23 2.34-.67 10.71-.07 11.57 10 14.68 9.18 2.84 18.27 6.01 27.55 8.49 6.49 1.73 11.32 5.42 14.81 10.79 7.98 12.25 12.27 25.74 10.43 40.38-1.03 8.14-3.82 16.07-5.94 24.05-.25.95-1.23 1.82-2.05 2.5-8.79 7.29-17.42 14.78-26.52 21.65-3.17 2.4-7.53 3.19-11.29 4.84-2.03.89-5.37 1.76-5.62 3.11-.62 3.3.45 6.48 3.43 9.15 8.33 7.47 16.38 15.25 24.34 23.12 5.93 5.86 10.61 12.69 13.97 20.36.48 1.11.86 2.26 1.33 3.5-3.86 2.59-7.74 2.48-11.63.92-5.34-2.15-10.06-5.12-13.9-9.62-6.09-7.15-12.22-14.33-18.96-20.85-3.23-3.13-7.67-5.5-11.99-6.9-5.47-1.78-10.93-1.28-16.12 2.59-4.79 3.57-9.03 7.09-10.84 13.02-.43 1.4-1.61 2.66-2.69 3.75-9.46 9.54-19.07 18.93-28.41 28.58-2.62 2.7-5.14 4.46-8.94 3.29-2.1-.65-4.89-.81-6.07-2.25-2.1-2.57-.11-5.26 1.59-7.54 10.48-14 21.51-27.49 35.34-38.42 6.76-5.34 9.5-12.75 10.39-21.06.2-1.9-.32-3.05-2.07-4.03-4.89-2.71-9.47-6.02-14.51-8.41-11.5-5.46-18.09-15.17-22.78-26.22-7.15-16.83-7.38-34.36-3.46-52.03.26-1.16 1.26-2.46 2.29-3.11 5.66-3.55 11.23-7.32 17.21-10.24 10.74-5.24 21.75-9.92 32.65-14.85.85-.41 1.69-.94 2.68-1.48zm21.11-107.97c-.04.22-.07.44-.11.66-7.58.48-15.2.61-22.72 1.55-5.47.69-10.85 2.31-16.18 3.85-1.12.32-2.43 2.02-2.6 3.24-1.04 7.37.31 14.24 5.2 20.11 4.65 5.58 9.32 11.14 14.06 16.64.84.98 1.98 1.82 3.15 2.36 6.58 3.08 12.13 1.72 16.49-4.23 4.43-6.03 8.86-12.08 12.89-18.38 3.15-4.92 5.02-10.45 5.16-16.41.1-3.92-1.2-6.23-4.96-7.38-3.34-1.02-6.9-1.37-10.38-2.01zm-59.61 155.25c9.2 2.29 18.11 4.71 27.12 6.63 3.19.68 6.63.15 9.96.18 1.87.02 2.66-.81 2.99-2.74 1.35-7.9 1.44-15.79-.18-23.63-.42-2.01-1.36-4.04-2.52-5.75-2.33-3.41-4.8-3.89-8.56-2.27-3.79 1.63-7.76 2.92-11.37 4.87-4.68 2.52-9.11 5.51-13.59 8.41-.77.5-1.57 1.44-1.75 2.3-.8 3.8-1.36 7.65-2.1 12zm57.4 7.51c8.3.59 16.21 1.56 24.12 1.55 3.87 0 7.77-1.69 11.56-2.91.78-.25 1.65-1.8 1.62-2.73-.48-17.52-18.32-32.82-36.24-30.81-.34 11.41-.69 22.89-1.06 34.9zm-16.33 29.29h.14c0-.89-.11-1.81.02-2.68.76-5.06-1.94-7.65-6.11-9.92-8.15-4.44-16.07-2.76-23.81.48-6.93 2.9-7.49 6.68-2.73 12.6 5.19 6.43 12.38 9.83 19.76 12.74 3.76 1.48 7.81.32 10.65-2.33 1.46-1.36 1.58-4.27 2.03-6.53.28-1.41.05-2.91.05-4.36zm16.41-13.39c-2.72 7.93-2.91 15.45.03 22.98 1.12 2.88 2.88 3.98 6.14 3.57 8.42-1.06 15.28-5.42 22.15-9.84 3.35-2.15 5.23-7.19 4.27-11.09-.85-3.43-3.65-5.47-8.58-5.58-7.92-.17-15.84-.04-24.01-.04z" fill="#010105"/></svg>