<svg enable-background="new 0 0 400 400" viewBox="0 0 400 400" xmlns="http://www.w3.org/2000/svg"><path d="m362.1 8.8c1.1.8 2.1 1.6 3.1 2.4l-1 1.1c-1.3-1.1-2.3-2-3-2.5zm1.9 4.8c.5.2.9.4 1.4.5-.6 2.3-1.3 4.5-1.9 6.8l-1.5-.5c.8-2.1 1.4-4.3 2-6.8zm-1-9.4c1.3.9 2.4 1.8 3.4 2.5l-1 1.1c-1.4-1.2-2.4-2.1-3.2-2.6zm3.7 2.2v-1.4h10.3v1.2c-.5 3.6-1.8 6.8-4 9.4 1.5 1.6 3.4 2.8 5.7 3.8-.3.4-.7.8-1.1 1.4-2.3-1.1-4.1-2.5-5.6-4.1-1.6 1.6-3.6 3.1-5.9 4.3-.3-.5-.7-.9-1-1.3 2.4-1.1 4.4-2.5 6-4.1-1.9-2.5-3-5.6-3.3-9.3h-1.1zm8.8 0h-6.4c.3 3.3 1.3 6 3 8.2 2-2.3 3.1-5.1 3.4-8.2z" fill="#fbfafc"/><path d="m385.3 3.8h1.3v2.2h2.8v-2.2h1.3v2.2h4.1v9.1h1.7v1.3h-16.9v-1.3h1.7v-9.1h4.1v-2.2zm.4 13.1.7 1.2c-1.8.9-3.8 1.9-6 2.9-.2-.4-.5-.8-.8-1.3 2.3-1 4.3-1.9 6.1-2.8zm-3.1-6.4h2.8v-3.2h-2.8zm0 4.6h2.8v-3.3h-2.8zm4-4.6h2.8v-3.2h-2.8zm0 4.6h2.8v-3.3h-2.8zm3.7 1.9c2.1.9 4.1 1.8 6.1 2.7l-.7 1.3c-2.2-1.1-4.2-2-6.1-2.9zm3.2-9.7h-2.8v3.2h2.8zm-2.8 7.8h2.8v-3.3h-2.8z" fill="#fbfafc"/><g fill="#000001"><path d="m192.84 307.85c-4.3 6.43-8.59 12.31-12.32 18.52-11.48 19.14-27.74 33.49-45.64 46.25-3.23 2.3-6.74 3.37-10.64 2.08.81-9.76 6.17-17.42 10.93-25.33.31-.52 1-.95 1.61-1.14 4.34-1.33 7.07-4.61 9.61-8.03 10.97-14.81 20.35-30.39 25.87-48.21 2.57-8.3-1.37-14.23-5.07-20.51-.51-.87-2.55-1.09-3.9-1.16-7.6-.36-15.2-.54-22.8-.86-1.54-.07-3.12-.3-4.58-.78-12.74-4.18-25.47-8.39-38.15-12.73-1.42-.49-3.07-1.64-3.67-2.93-2.88-6.12-7.35-10.9-12.16-15.47-4.07-3.87-7.74-8.02-9.54-14.78 2.95.39 5.64.09 7.64 1.13 8.51 4.42 17.08 8.8 25.13 13.98 15.47 9.96 32.09 15.76 50.56 15.26 6.87-.19 13.72-1.43 20.86-2.23 0-9.92.04-19.3-.04-28.68-.02-1.84-3.8-3.67-5.8-2.64-11.54 5.95-24.51 9.44-33.69 19.53-.85.94-2.75 1.36-4.12 1.29-3.45-.18-6.89-.77-10.33-1.2-.55-.07-1.24-.02-1.62-.33-6.33-5.21-14.44-8.29-18.92-15.72-.17-.29-.41-.54-.54-.85-2.27-4.94-5.75-6.84-11.5-6.75-9.22.14-21.36-10.21-23.89-19.4 3.86-.5 7.71-.87 11.51-1.5 11.63-1.93 22.03-7.25 32.61-12.02 7.33-3.3 14.69-6.54 21.87-10.14 3.03-1.52 5.7-3.8 8.39-5.92 1.44-1.14 1.35-2.44-.04-3.94-3.8-4.1-7.44-8.37-11.09-12.61-.71-.82-1.5-1.77-1.74-2.78-1.3-5.5-2.75-11-3.56-16.59-1.13-7.73-2.17-15.51-2.47-23.3-.58-15.27-4.01-29.61-11.91-42.79-1.07-1.79-1.88-3.74-2.97-5.92 6.75-.31 12.54-.48 18.52 3.41 7.24 4.7 12.74 10.13 15.86 18.15 1.25 3.21 3.2 6.15 4.63 9.3.79 1.76 1.87 2.18 3.67 1.93 11.96-1.69 23.94-3.22 35.88-5.04 1.41-.22 3.18-1.65 3.8-2.98 3.32-7.15 2.24-14.44-.12-21.59-1.43-4.34-3.22-8.58-4.95-12.82-2.6-6.39-6.08-12.15-11.68-16.48-2.7-2.08-5.03-4.64-8.23-7.63 12.82.41 24.22 1.83 31.2 13.24 2.61 4.26 4.73 8.87 6.64 13.49 2.6 6.29 4.82 12.74 7.12 19.16.48 1.34.78 2.8.86 4.22.31 5.14.71 10.29.66 15.43-.04 3.68.95 6.72 3.33 9.5 2.1 2.47 2.08 5.89-.17 8.19-4.51 4.6-5.91 10.23-6.6 16.41-.6 5.38-2.08 10.67-3.36 16.87 4.56.77 9.52 1.99 14.54 2.38 9.13.71 18.36.46 27.45 1.49 11.24 1.28 21.42 5.48 29.33 14.03.83.9 1.72 1.77 2.46 2.74 4.69 6.14 3.52 10.66-3.72 13.77-1-.91-2.09-1.85-3.11-2.87-11.23-11.17-24.28-16.8-40.55-15.21-12.93 1.27-25.32 4.16-37.47 8.51-3.16 1.13-6.4 2.03-9.53 3.22-1.06.4-2.05 1.23-2.82 2.08-1.93 2.12-1.86 4 .33 6.22 3.3 3.34 6.25 7.02 9.22 10.67 1.23 1.51 2.37 1.83 4.3 1.36 14.67-3.55 29.37-6.96 44.06-10.39 4.26-.99 9.03.87 11.45 4.4 1.91 2.78 1.53 5.3-1.61 6.52-9.57 3.71-19.33 6.91-28.86 10.72-7.12 2.84-14.01 6.26-20.94 9.55-2.26 1.07-2.87 3.04-2.51 5.6.88 6.31 1.45 12.67 2.25 19 .46 3.63 4.34 6.04 7.38 4.44 6.91-3.65 13.84-7.3 20.53-11.35 11.99-7.27 20.97-17.69 29.16-28.86 1.99-2.71 4.28-4.86 8.45-5.04 0 3.43.52 6.89-.12 10.12-1.13 5.7-3.1 11.09-7.42 15.48-2.94 2.99-5.5 6.51-7.61 10.15-2.26 3.89-1.8 5.94 1.86 8.59 7.87 5.69 15.63 11.68 24.07 16.41 12.46 6.99 25.42 13.09 38.28 19.33 3.17 1.54 6.85 2.01 10.23 3.18 3.77 1.31 5.28 3.81 5.12 8.28-5.37.55-10.79 1.12-16.22 1.63-.51.05-1.1-.22-1.57-.48-12.06-6.84-25.71-8.83-38.71-12.82-2.14-.66-4.28-1.4-6.47-1.73-8.55-1.29-15.56-5.51-21.3-11.65-2.07-2.22-3.01-5.56-4.24-8.49-.68-1.63-.67-3.55-1.36-5.17-1.52-3.61-6.12-4.98-9.56-2.99-8.32 4.82-16.66 9.61-24.9 14.58-1.14.69-2.19 2.2-2.47 3.5-1.22 5.68-2.24 11.41-3.09 17.16-.18 1.19.26 3.07 1.11 3.73 13.46 10.45 22.03 24.58 29.62 39.38 5.66 11.05 10.87 22.3 19.25 31.73 2.02 2.27 3.02 5.45 4.55 8.17 1.52 2.69 1.16 4.85-1.55 6.5-1.91 1.16-4.98.2-6.72-2.07-8.04-10.47-15.8-21.18-24.22-31.33-6.77-8.16-14.31-15.69-21.62-23.4-1.47-1.59-3.49-2.69-5.68-4.33zm-23.79-162.73c.04-.17.09-.33.13-.5 1.77-.2 3.54-.43 5.31-.58 3.95-.32 6.42-2.19 8.61-5.75 4.18-6.76 6.2-14.07 7.22-21.72.42-3.1-.07-6.41-.63-9.53-.32-1.78-1.65-2.6-4.01-2.32-7.96.94-15.98 1.35-23.96 2.11-6.31.6-12.59 1.39-18.88 2.17-2.11.26-2.75 1.57-2.83 3.71-.36 9.9 3.39 18.53 8.09 26.88.42.75 1.46 1.42 2.33 1.62 6.2 1.37 12.42 2.62 18.62 3.91zm-57.9 71.08c12.42-.97 23.17-4.03 33.74-7.61 7.58-2.57 14.93-5.86 22.32-8.97.93-.39 2.23-1.82 2.09-2.5-1.08-5.12-2.18-10.33-6.2-14.17-2.39-2.28-4.9-3.84-8.29-1.54-1.45.98-3.27 1.42-4.9 2.15-14.5 6.47-28.87 13.08-41.05 23.65-2.86 2.48-1.54 4.59-.62 6.69.55 1.23 2.37 1.9 2.91 2.3z"/><path d="m66.13 339.75c-1.33-5.38.18-8.77 3.67-12.24 9.92-9.86 19.51-20.18 25.74-32.88 2.47-5.03 3.46-10.78 5.13-16.2.84-2.73.16-4.96-1.97-6.92-1.36-1.25-2.46-2.79-3.27-4.9 3.1.73 6.41 1 9.27 2.27 6.2 2.76 12.52 5.51 18.1 9.28 3.19 2.15 5.75 6.01 7.26 9.65 1.88 4.52 1.39 9.02-2.77 13.06-12.31 11.99-24.88 23.6-40.64 30.95-6.61 3.1-13.65 5.31-20.52 7.93z"/></g></svg>