<svg enable-background="new 0 0 400 400" viewBox="0 0 400 400" xmlns="http://www.w3.org/2000/svg"><g fill="#fafafb"><path d="m12.4 4.8-6.1 9h6v1.2h-8v-.5l6.1-8.9h-5.7v-1.2h7.6v.4z"/><path d="m14 15v-10.6h3c1.6 0 2.9.5 4 1.4s1.6 2.2 1.6 3.8-.5 3-1.6 3.9-2.4 1.5-4 1.5zm1.4-9.4v8.2h1.6c1.3 0 2.4-.4 3.1-1.1s1.1-1.8 1.1-3.1-.4-2.3-1.2-3-1.8-1-3.1-1z"/><path d="m26.1 4.4v10.6h-1.4v-10.6z"/><path d="m36.1 14.6c-.8.4-1.8.6-2.9.6-1.5 0-2.7-.5-3.6-1.4s-1.4-2.2-1.4-3.8c0-1.7.5-3.1 1.5-4.1s2.3-1.6 3.9-1.6c1 0 1.8.1 2.5.4v1.4c-.8-.4-1.6-.6-2.5-.6-1.2 0-2.1.4-2.9 1.2s-1.1 1.8-1.1 3.2c0 1.3.3 2.3 1 3s1.6 1.1 2.7 1.1c1 0 2-.2 2.7-.7v1.3z"/><path d="m37.6 14.3c0-.2.1-.5.3-.6s.4-.3.6-.3c.3 0 .5.1.6.3s.3.4.3.6-.1.4-.3.6-.4.3-.6.3c-.3 0-.5-.1-.6-.3s-.3-.4-.3-.6z"/><path d="m50.2 15h-1.6l-5.3-8.2c-.2-.2-.3-.5-.4-.7 0 .2.1.7.1 1.5v7.4h-1.4v-10.6h1.7l5.2 8.1c.2.4.4.6.4.7 0-.3-.1-.8-.1-1.5v-7.3h1.4z"/><path d="m58.6 15h-5.7v-10.6h5.5v1.2h-4.1v3.4h3.8v1.2h-3.8v3.6h4.3z"/><path d="m67.1 5.6h-3.1v9.4h-1.4v-9.4h-3v-1.2h7.5z"/></g><path d="m166.9 374.93c0-3.58-.2-6.94.1-10.25.11-1.24 1.24-2.52 2.17-3.55 8.96-9.88 17.53-20.05 24.07-31.75 3.78-6.76 6.04-13.89 5.42-21.79-.27-3.45-.38-6.98.05-10.39.45-3.66-1.19-5.23-4.3-6.27-6.99-2.34-13.93-4.81-20.9-7.22-8.14-2.82-15.13-7.17-19.69-14.76-4.19-6.99-8.59-13.87-12.44-21.05-1.47-2.73-2.09-6.1-2.37-9.24-.56-6.35-.44-12.75-.97-19.1-.32-3.84-1.51-7.6-1.94-11.43-.29-2.59-.07-5.27.17-7.89.25-2.78.91-5.52 1.17-8.3.28-3.03 2.12-3.53 4.45-2.78 1.42.46 2.84 1.37 3.89 2.44 1.64 1.66 3.45 3.42 4.34 5.5 2.6 6.05 7.03 7.57 13.3 7.36 8.93-.31 17.88.32 26.83.54 1.54.04 3.08.01 4.74.01 1.41-13.91 1.02-27.5-.74-41.05-.63-4.87-1.75-9.69-2.34-14.56-.4-3.31-2.28-3.76-4.91-3.25-1.08.21-2.18.62-3.12 1.18-11.82 6.99-24.81 10.52-38.13 13.26-7.42 1.53-14.69 3.8-22.06 5.6-1.93.47-3.98.6-5.98.63-4.87.07-6.92-2.04-7.17-7.54 5.03-.65 10.12-1.21 15.17-1.99 2.4-.37 4.86-.87 7.1-1.78 13.67-5.53 27.28-11.23 40.93-16.81 6.27-2.56 10.4-7.31 13.28-13.15 2.42-4.91 1.31-8.75-3.42-11.63-3.79-2.31-6.46-5.31-8.26-9.3-1.33-2.95-2.89-5.81-4.53-8.6-2.74-4.68-4.64-9.54-5.34-15.01-.77-6.01-2.83-7.67-9-7.21-6.78.51-13.51 1.74-20.27 2.52-2.87.33-5.8.54-8.68.36-3.9-.25-5.77-1.92-6.98-6.04 9.48-2.44 18.93-4.92 28.41-7.27 2.6-.64 5.28-1.13 7.94-1.26 2.79-.14 3.48-1.77 3.24-3.96-.32-2.87-1-5.71-1.52-8.56-.38-2.08-1.02-4.15-1.06-6.24-.07-3.25 2.67-6.06 5.89-6.13.79-.02 1.89.9 2.36 1.67 3.99 6.64 7.64 13.42 6.43 21.77 1.46.12 2.43.26 3.4.26 11.86.02 23.73-.07 35.59.08 2.6.03 3.87-1.01 4.77-3.2 2.02-4.9 1.69-9.84.4-14.81-1.29-4.99-1.59-9.9.66-14.76 1.08-2.33 2.49-3.13 5.02-2.24 3.59 1.27 6.16 3.43 7.51 7.07 2.84 7.65 1.71 15.45.97 23.24-.11 1.21-.23 2.42-.36 3.76 5.55 2.01 10.93 1.14 16.35.29 3.62-.56 7.28-1.11 10.92-1.09 1.54.01 3.43 1.15 4.55 2.35 3.02 3.22 2.4 5.95-1.84 6.92-4.29.98-8.8 1.01-13.2 1.52-5.39.63-10.82 1.11-16.16 2.09-2.99.55-5.03 3.06-5.15 5.99-.44 10.52-6.11 19.01-10.32 28.09-2.67 5.77-5.18 11.61-7.69 17.45-1.36 3.17-.62 5.44 2.44 7.57 10.51 7.32 22.45 11.05 34.67 13.81 9.57 2.16 19.36 3.36 29.05 4.99 3.05.51 6.33.46 8.43 3.39 1.52 2.12 1.65 3.58-1.25 4.77-8.18 3.34-16.45 2.87-24.7.75-15.36-3.94-30.67-8.09-46.01-12.14-.85-.23-1.73-.36-2.75-.57 0 8.19-.06 16.22.02 24.24.1 9.62.43 19.24.41 28.86-.01 2.86 1.04 3.95 3.7 4.33 13.73 1.98 27.43 1.55 41.14-.12 2.84-.35 4.62-1.86 4.87-4.61.24-2.61.27-5.32-.19-7.89-.68-3.83-.21-4.67 3.61-4.53 7.48.27 8.93 1.27 9.66 8.73.91 9.32 1.67 18.59-2.35 27.72-1.61 3.66-.54 8.42-1.33 12.56-1.52 8-2.87 16.13-5.57 23.76-1.25 3.52-5.17 6.48-8.52 8.75-2.39 1.62-4.82 2.84-6.58 5.31-1.24 1.74-3.05 3.2-4.86 4.4-3.07 2.03-6.26 3.93-9.56 5.56-4.08 2.01-8.26 3.86-12.53 5.43-4.22 1.56-4.92 2.85-5.47 7.15-1.26 9.78 2.07 17.4 8.44 24.83 8.87 10.35 16.79 21.44 27.38 30.3 3.84 3.21 6.53 7.78 9.78 11.77-4.09 2.91-8.7 2.79-12.29-.48-9.51-8.67-18.87-17.5-28.16-26.41-1.57-1.51-2.45-3.72-3.72-5.55-.89-1.27-1.74-2.66-2.91-3.62-2.72-2.25-4.13-1.94-6.24.9-10.33 13.92-20.64 27.86-31.03 41.73-2.02 2.68-4.38 5.07-8.33 5.57zm42.94-147.46c-.17.03-.34.05-.51.08.49 3.73.89 7.47 1.51 11.18.33 1.95 1.57 2.84 3.77 2.96 6.13.32 12.23 1.07 18.35 1.42 3.22.19 6.48.09 9.69-.22 5.56-.53 9.65-2.99 10.98-8.95.87-3.91 2.23-7.72 3.11-11.63.41-1.81.45-3.79.25-5.65-.51-4.57-3.97-6.18-8.41-5.1-5.02 1.23-10.24 2.07-15.4 2.17-6.33.13-12.66-.96-18.87 1.25-2.59.92-4.13 2.11-3.98 5.14.12 2.44-.3 4.9-.49 7.35zm-33.36 15.02c3.96-.28 10.4-.82 16.86-1.16 2.99-.16 4.35-1.41 4.32-4.45-.03-3.79.26-7.59.27-11.38.02-7.65-4.2-11.47-11.83-10.91-3.67.27-7.37.26-11.03.63-6.1.61-12.17 1.4-18.25 2.13-1.72.21-2.56.94-2.82 2.94-.83 6.53-.17 12.89 1.27 19.25.49 2.17 1.51 2.99 3.63 2.97 5.03-.05 10.05-.02 17.58-.02zm22.17-169.25c-.01-.28-.01-.56-.02-.85-6.34.32-12.7.52-19.03 1.01-4.95.38-5.54 1.39-4.31 5.99.35 1.29.68 2.59 1.07 3.87 2.63 8.61 6.08 16.8 12.35 23.5 2.95 3.16 8.53 3.98 11.55 1.55 9.33-7.5 13.39-17.81 15.27-29.21.16-.96-.02-2.01-.19-2.99-.3-1.83-1.09-2.99-3.3-2.92-4.46.15-8.93.05-13.39.05zm-39.34 182.17c3.01 4.99 5.45 9.1 7.97 13.16.39.63 1.09 1.16 1.77 1.49 5.7 2.79 11.32 5.8 17.2 8.14 2.44.97 5.51.78 8.22.48 1.31-.14 3.45-1.67 3.53-2.69.45-6.21.73-12.47.42-18.69-.18-3.73-2.18-5.17-5.86-4.88-10.78.83-21.54 1.91-33.25 2.99zm54.85 21.39c1.51-.11 2.62-.16 3.72-.26 8.98-.82 15.06-6.65 21.4-12.18 3.38-2.95 3.96-6.4 3.41-10.71-9.11-.65-18.1-1.36-27.11-1.87-1.72-.1-3.72.34-3.48 2.97.68 7.2 1.35 14.41 2.06 22.05z" fill="#010105"/></svg>