<svg enable-background="new 0 0 400 400" viewBox="0 0 400 400" xmlns="http://www.w3.org/2000/svg"><path d="m128.83 335.68c-.73-.28-1.34-.51-2.17-.82.41-.76.7-1.45 1.11-2.06 7.8-11.61 15.56-23.24 23.45-34.8 1.5-2.2 3.38-4.17 5.25-6.08 1.91-1.95 2.43-4.28 1.14-6.41-.75-1.25-2.69-1.93-4.22-2.51-.98-.37-2.25-.31-3.31-.08-5.8 1.28-11.22-.29-16.81-1.54-4.49-1-9.27-.93-13.92-.82-2.48.06-4.24-.28-5.71-2.4-2.17-3.14-4.71-5.88-8.37-7.51-1.28-.57-2.41-2.09-3.01-3.44-3.77-8.46-7.43-16.98-10.96-25.54-.5-1.22-.59-2.99-.1-4.19 2.01-4.93 2.18-10.03 1.86-15.18-.72-11.4 1.06-22.23 6.27-32.54 1.57-3.11 2.29-6.81 2.64-10.32.32-3.21 1.75-5.23 4.02-7.25 6.83-6.1 14.88-10.14 23.47-12.57 4.04-1.15 8.86-.01 13.24.64 8.82 1.3 17.47 1.34 26.28-.62 4.46-.99 9.34-.31 14.02-.13 6.26.24 12.51.68 18.75 1.15 1.27.1 2.76.44 3.71 1.21 3.61 2.94 7.63 3.16 12 2.6 5.75-.73 7.85.73 10.29 6.18.57 1.28 1.42 2.66 2.53 3.42.79.54 2.55.58 3.34.04 2.26-1.55 4.39-1.48 6.98-.94 7.51 1.58 12.07 7.39 17.55 11.86.56.46.7 2.1.35 2.87-1.16 2.53-.49 4.2 1.81 5.51.77.44 1.32 1.28 2.1 1.66 10.94 5.26 8.54 15.47 8.76 24.47.05 2.15-2.65 4.28-3.76 6.58-2.58 5.36-6.68 8.8-12.39 10.29-5.96 1.55-10.28 5.17-13.18 10.49-1.48 2.71-3.73 3.9-6.67 4.38-3.19.53-6.38 1.21-9.48 2.12-1.07.31-2.3 1.33-2.75 2.34-1.57 3.58-2.97 7.24-4.16 10.97-.69 2.17-1.93 3.54-4.07 3.91-6.15 1.06-12.31 2.13-18.5 2.94-4.54.59-8.89 1.38-11.85 5.32-2.89 3.85-2.86 6.35.85 9.25 6.52 5.08 13.29 9.83 19.97 14.7 3.43 2.5 7.34 4.53 10.25 7.54 4.63 4.78 10.2 6.43 16.46 6.92 1.77.14 3.52.56 5.47.89.35 1.6.7 3.21 1.12 5.13 7.08-2.09 9.13 3.54 11.89 7.95 1.71 2.74 2.96 5.77 4.64 8.53.83 1.36 2.18 2.39 3.35 3.64 1.43-1.31 2.49-2.28 3.6-3.3 2.28 1.85 4.34 3.93 6.77 5.4 2.35 1.42 4.99 2.75 7.65 3.15 5.47.82 8.26 3.99 9.52 9 .33 1.3.59 2.62.78 3.94.86 5.98.32 7.39-5.75 7.7-5.23.27-10.58-.97-15.8-1.93-.84-.15-1.29-2.37-1.61-3.01-2.67.2-5.52.91-8.2.52-6.12-.9-11.89-2.93-17.02-6.62-6.35-4.57-12.85-8.94-19.48-13.52.46-.55.82-.98 1.17-1.41-.16-.2-.25-.44-.4-.49-8.52-2.91-15.8-7.78-22.28-13.97-4.21-4.02-8.51-7.95-12.82-11.86-3.01-2.73-5.73-5.5-6.68-9.76-.68-3.05-3.78-2.97-6.28-3.52-2.23-.48-3.41.4-4.53 2.29-5.99 10.1-12.31 20.02-18.12 30.22-3.51 6.15-7.73 11.4-13.71 15.26-1.02.65-2.28 1.96-2.28 2.97 0 3.36-1.96 4.87-4.5 6.37-7.6 4.49-15.11 9.15-22.34 13.55-1.89-1.69-3.62-3.24-5.4-4.84 5.09-.55 6.79-4.84 7.64-9.42 1.91-10.25 9.93-15.48 17.05-21.49 1.02-.86 2.13-1.62 3.19-2.44.09-.07.12-.2.3-.54zm46.22-140.63h.21c.11-2.01.27-4.02.34-6.03.29-7.96-3.45-12.41-11.32-13.48-3.99-.54-8.07-.68-11.96-1.63-6.46-1.58-12.78-.7-18.83 1.14-3.41 1.04-7.33 3.21-9.13 6.06-2.93 4.64-4.76 10.14-6.16 15.51-.82 3.14-.01 6.74.37 10.1.08.68 1.53 1.74 2.32 1.71 10.03-.3 20.12 1.06 30.1-1.24 5.92-1.36 11.85-2.97 18.02-.17 2.99 1.35 5.94-1.27 6.02-4.59.07-2.46.02-4.92.02-7.38zm-42.06 61.76c.78 0 1.6-.18 2.32.03 10.14 2.92 19.36-.11 28.43-4.27.3-.14.7-.19.91-.41.96-1.04 2.39-2 2.71-3.23 1.25-4.75 2.13-9.6 3.15-14.41 1.15-5.43-.12-7.28-5.77-7.79-2.99-.27-6.02-.01-9.03-.05-10.85-.14-21.71-.5-32.56-.4-10.46.09-14.51 5.34-12.28 15.52 1.26 5.73 3.47 10.97 9.39 13.47 3.69 1.56 7.46 2.92 11.33 4.43.28-.6.82-1.7 1.4-2.89zm87.28-47.25c5.32-.61 11.41-1.23 17.48-2.03 3.6-.47 4.57-2.83 4.31-6.24-.52-6.71-3.28-12.39-9.05-15.62-8.05-4.5-16.56-8.18-24.95-12.06-.88-.41-2.4-.13-3.33.38-5.69 3.14-9.87 7.48-10.76 14.3-.18 1.42-1.04 2.78-1.12 4.19-.19 3.4-.35 6.84-.06 10.22.18 2.08 1.59 3.48 4.02 3.77 7.55.9 15.06 1.97 23.46 3.09zm-5.94 42.28c5.33-4.77 11.09-9.59 16.43-14.83 3.51-3.45 3.85-8.25.97-9.7-7.81-3.94-15.86-7.01-24.92-4.2-2.52.78-5.27.79-7.87 1.34-3.12.66-6.22 1.44-9.27 2.36-.72.22-1.65 1.13-1.74 1.81-.77 6.08-1.79 12.18-1.87 18.28-.06 4.87 2.78 7.15 7.66 6.43 4.36-.65 8.59-2.23 12.84-3.51 4.66-1.41 6.46-.76 7.77 2.02zm-60.93 19.5c3.14-1 3.72-3.53 3.82-5.81.05-1.14-1.57-2.35-2.43-3.53-.32.17-.64.34-.97.51-.13 2.84-.27 5.69-.42 8.83z" fill="#010000"/><path d="m121.13 83.48c-7.35.62-12.46 1.27-17.6 1.42-3.42.1-6.97-.11-10.27-.96-2.22-.57-4.33-2.24-6.05-3.87-1.94-1.83-2.25-3.98.47-5.82 1.56-1.06 2.94-2.42 4.29-3.76 2.89-2.84 5.54-5.56 10.32-3.26 1.61.78 4.16-.19 6.23-.61 6.46-1.31 12.91-2.7 19.35-4.12 9.81-2.16 13.25-7.41 14.13-17.78.67-7.82 3.91-13.53 9.77-18.27 1.72-1.39 3.26-1.57 5.21-.78 5.82 2.34 7.5 7.12 8.02 12.82.5 5.42 1.16 10.85 2.14 16.2.65 3.57 2.75 5.76 6.95 5.57 3.26-.15 6.75-.19 9.02 3.14.33.49 1.65.54 2.46.44 7.32-.96 14.64-1.92 21.92-3.12 1.13-.19 2.5-1.37 3-2.45 3.15-6.79 6.18-13.65 9.04-20.57 1.01-2.44 2.31-3.55 5.07-3.71 5.9-.34 5.89-.52 8.2 4.87.62 1.44 1.48 2.82 1.79 4.32.27 1.32-.11 2.77-.15 4.16-.07 2.52-.44 5.1 0 7.53.18.98 2.06 1.97 3.34 2.37 7.45 2.33 14.94 4.51 22.44 6.7 4.07 1.18 8.21 2.14 12.24 3.45 1.88.61 3.71 1.63 5.31 2.81 8.53 6.31 6.59 10.13-.72 16.21-4.33 3.61-10.23 3.52-15.72 1.57-1.37-.49-2.73-1.02-4.03-1.65-2.06-1-3.7-.76-5.88.33-2.45 1.23-5.51 1.51-8.33 1.64-4.1.19-8.24-.31-12.34-.11-1.29.06-2.94 1.15-3.69 2.26-2.93 4.36-5.65 8.87-8.22 13.46-.45.8-.21 2.55.4 3.29 1.77 2.15 3.8 4.12 5.9 5.96.95.83 2.26 1.5 3.49 1.69 14.04 2.14 28.1 4.16 42.14 6.28 1.52.23 3.16.6 4.42 1.42 9.73 6.36 20.69 8.62 31.98 9.97 8.81 1.06 17.48 2.71 25.16 7.57 3.39 2.14 6.17 4.84 5.25 9.23-.36 1.73-1.62 3.71-3.07 4.69-4.8 3.22-10.35 3.8-15.8 2.38-12.44-3.23-24.98-3.58-37.6-1.82-8.02 1.12-15.13-1.79-22.46-4.18-3.33-1.08-6.93-1.39-10.42-1.88-10.28-1.44-20.56-2.96-30.87-4.13-10.32-1.18-20.68-1.97-31.03-2.94-.11-.01-.23-.05-.33-.03-15.59 3.56-31.16.03-46.73-.26-12.3-.23-24.59-1.76-36.87-1.63-11.25.11-22.47 1.72-33.72 2.53-1.38.1-2.9-.5-4.23-1.06-1.42-.6-2.65-1.64-4.05-2.32-4.86-2.36-5.52-6.05-2.79-10.49 4.07-6.6 9.84-9.03 17.24-10.84 10.85-2.66 20.93-.15 31.08 1.95 8.31 1.72 15.65 1.93 23.16-3 3.41-2.24 5.44-4.01 5.73-8.16.43-6.13 1.3-12.25 2.36-18.3.46-2.64-.4-3.88-2.7-4.28-5.13-.89-10.31-1.61-13.35-2.07zm47.67 32.33c4.89-.95 9.76-1.82 14.6-2.84 4.02-.85 8.02-1.8 11.99-2.84.78-.2 1.89-.9 2.02-1.53 1.1-5.66 2.29-11.33 2.85-17.06.23-2.37-1.4-4.16-4.44-4.35-4.34-.26-8.65-1.08-12.97-1.61-6.06-.74-12.12-1.44-18.33-2.17-.16 1.09-.24 1.85-.38 2.6-.93 5.34-1.31 10.64-4.59 15.54-3.48 5.22-.87 9.82 5.23 11.63 1.61.47 2.92 1.88 4.02 2.63z" fill="#010000"/><g fill="#fbfcfa"><path d="m361.2 9.6.8-1c.9.7 1.9 1.4 2.9 2.3l-.9 1.1c-1-1-2-1.8-2.8-2.4zm.5 10.6c.9-2.1 1.6-4.3 2.3-6.7.4.2.8.4 1.3.6-.7 2.1-1.5 4.3-2.2 6.6zm.4-15.2.9-.9c1 .8 2 1.6 2.8 2.4l-1 1c-.9-.9-1.8-1.7-2.7-2.5zm12.5-1.2h1.2v1.4h2.7v1.1h-2.7v2.7h-1.2v-.6h-1.8v1.3h4.9v3.8h-1.2v-.5h-3.7c0 .4-.1.9-.1 1.2h5.1v1h-5.2c0 .5-.1.9-.2 1.2h6v1h-5.2c1.1 1.3 2.9 2 5.5 2.2-.4.4-.7.8-.9 1.3-2.9-.5-4.8-1.6-5.7-3.5h-.1c-.8 1.7-2.7 2.9-5.9 3.6-.2-.4-.6-.8-.9-1.1 2.8-.6 4.6-1.4 5.4-2.5h-4.8v-1h5.3c.1-.3.2-.7.2-1.2h-4.9v-1h5c0-.4 0-.8.1-1.2h-3.5v.5h-1.2v-3.8h4.9v-1.3h-1.8v.5h-1.2v-2.7h-2.7v-1h2.6v-1.4h1.2v1.4h4.7v-1.4zm-6.6 8.3h3.6c0-.4 0-.9 0-1.4h-3.6zm1.9-4.6h4.7v-1.3h-4.7zm6.6 3.2h-3.7v1.4h3.7z"/><path d="m385.3 3.8h1.3v2.2h2.8v-2.2h1.3v2.2h4.1v9.1h1.7v1.3h-16.9v-1.3h1.7v-9.1h4.1v-2.2zm.4 13.1.7 1.2c-1.8.9-3.8 1.9-6 2.9-.2-.4-.5-.8-.8-1.3 2.3-1 4.3-1.9 6.1-2.8zm-3.1-6.4h2.8v-3.2h-2.8zm0 4.6h2.8v-3.3h-2.8zm4-4.6h2.8v-3.2h-2.8zm0 4.6h2.8v-3.3h-2.8zm3.7 1.9c2.1.9 4.1 1.8 6.1 2.7l-.7 1.3c-2.2-1.1-4.2-2-6.1-2.9zm3.2-9.7h-2.8v3.2h2.8zm-2.8 7.8h2.8v-3.3h-2.8z"/></g></svg>