<svg enable-background="new 0 0 400 400" viewBox="0 0 400 400" xmlns="http://www.w3.org/2000/svg"><path d="m362.1 8.8c1.1.8 2.1 1.6 3.1 2.4l-1 1.1c-1.3-1.1-2.3-2-3-2.5zm1.9 4.8c.5.2.9.4 1.4.5-.6 2.3-1.3 4.5-1.9 6.8l-1.5-.5c.8-2.1 1.4-4.3 2-6.8zm-1-9.4c1.3.9 2.4 1.8 3.4 2.5l-1 1.1c-1.4-1.2-2.4-2.1-3.2-2.6zm3.7 2.2v-1.4h10.3v1.2c-.5 3.6-1.8 6.8-4 9.4 1.5 1.6 3.4 2.8 5.7 3.8-.3.4-.7.8-1.1 1.4-2.3-1.1-4.1-2.5-5.6-4.1-1.6 1.6-3.6 3.1-5.9 4.3-.3-.5-.7-.9-1-1.3 2.4-1.1 4.4-2.5 6-4.1-1.9-2.5-3-5.6-3.3-9.3h-1.1zm8.8 0h-6.4c.3 3.3 1.3 6 3 8.2 2-2.3 3.1-5.1 3.4-8.2z" fill="#fbfafc"/><path d="m385.3 3.8h1.3v2.2h2.8v-2.2h1.3v2.2h4.1v9.1h1.7v1.3h-16.9v-1.3h1.7v-9.1h4.1v-2.2zm.4 13.1.7 1.2c-1.8.9-3.8 1.9-6 2.9-.2-.4-.5-.8-.8-1.3 2.3-1 4.3-1.9 6.1-2.8zm-3.1-6.4h2.8v-3.2h-2.8zm0 4.6h2.8v-3.3h-2.8zm4-4.6h2.8v-3.2h-2.8zm0 4.6h2.8v-3.3h-2.8zm3.7 1.9c2.1.9 4.1 1.8 6.1 2.7l-.7 1.3c-2.2-1.1-4.2-2-6.1-2.9zm3.2-9.7h-2.8v3.2h2.8zm-2.8 7.8h2.8v-3.3h-2.8z" fill="#fbfafc"/><g fill="#000001"><path d="m180.75 286.94c-14.3 12.7-28.15 25.4-42.45 37.57-10.37 8.82-21.89 15.91-35.4 19.07-1.83.43-3.7.68-5.49 1-2.22-5.26-2.02-6.07 1.82-9.63 14.84-13.79 29.8-27.45 44.42-41.46 8.36-8.01 15.35-17.21 19.74-28.08 1.29-3.19 1.89-6.65 3.01-9.92.85-2.5-.31-3.79-2.32-4.71-3.04-1.4-5.99-3.21-9.19-4.01-16.05-4.05-27.68-13.89-37.11-27.05-9.88-13.79-18.29-28.34-24.73-44.04-.72-1.76-2.06-3.43-3.5-4.69-3.85-3.39-7.92-6.53-12.56-10.3 28.3-8.47 55.99-16.75 83.07-24.85-3.95-5.43-8.31-10.53-11.66-16.23-5.67-9.66-6.81-20.71-8.25-31.57-1.79-13.56-2.32-27.17-1.7-40.85.15-3.29-1.42-6.67-2.32-9.97-.28-1.02-.92-1.94-1.41-2.92 3.93-1.59 7.2-1.31 10.41 1.4 2.72 2.3 5.72 4.37 8.88 6.01 4.78 2.48 6.42 6.64 6.94 11.47.51 4.64.68 9.32.98 13.58 7.59 0 14.93.14 22.27-.03 9.5-.22 18.99-.8 28.5-1 2.57-.05 4.12-.98 4.59-3.34.5-2.49 1.25-5.17.8-7.56-1.03-5.47-2.56-10.86-4.23-16.18-.5-1.58-2.06-2.87-3.28-4.16-2.41-2.57-2.99-5.38-1.21-9.07 3.65 1.6 7.15 3.7 10.93 4.67 9.07 2.33 12.87 8.84 14.76 17.14 3.76 16.57 4.41 33.25 1 49.93-.81 3.96-2.74 7.77-4.59 11.43-2.26 4.46-4.99 8.68-7.85 13.58 6.71.33 12.88.76 19.06.9 16.33.38 32.67.82 48.74 4.03 4.89.97 9.67 2.71 14.34 4.49s7.26 5.4 7.58 10.78c-6.05 2.7-12.41 2.87-18.94 2.64-6.09-.21-12.24-.11-18.3.45-3.62.33-5.91 2.54-6.68 6.7-1.77 9.55-4.29 18.96-6.23 28.48-3.13 15.4-11.75 27.46-23.15 37.59-9.19 8.17-19 15.64-28.59 23.36-1.1.88-2.45 1.55-3.79 2.02-6.11 2.15-12.29 4.12-18.36 6.37-.89.33-1.92 1.77-1.93 2.7-.02 4.04.9 7.72 3.5 11.18 5.64 7.51 11.17 15.15 16.08 23.14 12.98 21.14 31.24 37.65 48.18 55.28 6.05 6.3 13.73 11.01 20.42 16.74 3.6 3.08 7.13 6.43 9.85 10.27 2.47 3.49 1.52 5.06-2.78 5.97-4.95 1.05-9.44-.92-13.14-3.77-13.82-10.66-28.11-20.86-40.87-32.69-13.09-12.13-24.64-25.94-36.79-39.08-3.94-4.34-7.64-8.83-11.07-12.78zm-50.54-93.92c2.76-1.87 4.75-3.81 7.13-4.72 5.19-2 10.57-3.55 15.9-5.18 22.07-6.76 44.49-11.87 67.59-13.43 5.07-.34 10.23-.12 15.3.33 3.89.35 8.52 3.14 11.36 1.78 2.99-1.43 4.55-6.35 6.19-9.99 1.77-3.93 3.31-8.06 4.2-12.26.75-3.55-.37-4.61-3.89-4.27-16.12 1.55-32.25 3.05-48.32 5.01-14.52 1.77-28.92 4.8-43.48 5.96-11.58.92-22.72 2.93-33.75 6.41-3.96 1.25-8.27 1.5-12.46 1.89-3.05.28-6.14.06-10.2.06 3.94 3.74 7.24 6.69 10.31 9.87.97 1.01 1.66 2.57 1.86 3.97.68 4.75.5 9.69 1.72 14.28 3.26 12.34 10.74 22.22 19.52 31.2.38.39.84.78 1.33 1 8.29 3.79 16.87 6.5 26.06 6.96 10.05.51 19.18-2.5 27.94-7.05 17.29-8.98 32.31-20.69 44.48-37.05-2.41-.6-4.55-1.69-6.57-1.5-3.62.34-7.28 1.14-10.74 2.29-12.51 4.15-24.85 8.75-37.98 10.79-18.13 2.79-35.5-.27-53.5-6.35zm27.83-93.66c.36 6.75 3.72 12.41 8.44 17.42.43.46 1.13.71 1.75.93 8.36 2.97 16.5 2.71 24.15-2.1 3.4-2.14 6.79-4.38 9.84-6.97 5.8-4.93 11.45-10.03 13.92-17.66 1.74-5.4.05-7.92-5.65-7.83-1.1.02-2.22.26-3.3.52-4.89 1.17-9.73 2.56-14.66 3.53-9.61 1.88-18.82 5.81-28.89 5.36-5.13-.23-5.14-.04-5.47 5.13-.04.43-.07.87-.13 1.67z"/><path d="m326.68 286.23c-2.77-.73-5.37-1.09-7.7-2.08-8.37-3.58-16.96-3.45-25.91-3.1-19.98.78-39.43-2.22-57.44-11.63-1.53-.8-2.84-2.39-3.77-3.91-2.56-4.19-4.78-8.58-7.27-12.81-2.69-4.57-1.55-13.35 2.39-16.77.46-.4 1.54-.59 2.06-.33 2.38 1.15 5.07 2.08 6.9 3.86 3.88 3.77 8.33 6.2 13.42 7.86 19.1 6.22 38.17 12.51 57.19 18.95 6.44 2.18 12.77 4.75 19.02 7.43 1.95.84 4.1 2.3 5.07 4.07 1.02 1.86 1.3 4.59.76 6.63-.24.97-3.13 1.26-4.72 1.83z"/><path d="m102.14 230.63c11.14.64 20.4 4.53 26.44 14.09 4.4 6.95 3.35 16.8-2.57 22.59-11.42 11.16-22.79 22.41-34.85 32.84-8.25 7.13-18.51 11.05-29.35 13.6-.72-5.01-.23-8.95 3.81-12.9 13.24-12.95 24.69-27.37 32.43-44.4 1.84-4.06 4.12-8.14 4.83-12.43.69-4.15-.4-8.59-.74-13.39z"/></g></svg>