<svg enable-background="new 0 0 400 400" viewBox="0 0 400 400" xmlns="http://www.w3.org/2000/svg"><g fill="#010101"><path d="m61.06 201.91c.86-1.26 1.62-2.59 2.59-3.76 8.01-9.64 15.86-19.43 24.18-28.79 3.3-3.71 7.62-6.54 11.57-9.64 22.79-17.91 45.6-35.78 68.41-53.67.61-.48 1.17-1.01 2.01-1.73-7.19-4.26-14.73-6.72-22.83-7.57-10.37-1.09-20.22 1.2-29.96 4.38-14.39 4.7-29.09 7.97-44.15 9.6-.99.11-1.99.13-3.11-.19 1.06-.5 2.1-1.05 3.18-1.49 17.56-7.23 35.34-14 52.61-21.86 8.66-3.94 16.72-9.43 24.51-14.98 17.19-12.26 31.8-27.13 43.24-44.99 1.67-2.61 3.54-2.86 6.45-1.13 2.59 1.54 1.7 3.56.71 5.52-1.69 3.38-3.67 6.63-5.13 10.1-1.26 2.99-.15 5.2 2.94 6.73 7.74 3.83 16.03 5.45 24.44 6.77 4.29.67 8.64 1.3 12.77 2.55 7.08 2.15 10.54 7.48 11.47 14.63.07.55.04 1.12.08 1.68.5 6.91-1.05 12.16-8.24 15.62-8.3 3.99-15.89 9.47-24.16 14.54 1.21.81 2.06 1.44 2.96 1.98 22.83 13.68 45.79 27.15 68.45 41.1 18.91 11.64 33.93 27.27 45.18 46.47.31.53.56 1.11.39 2.32-3.36-1.64-6.94-2.94-10.04-4.97-33.66-22.11-67.13-44.5-100.93-66.38-6.65-4.3-14.29-7.41-21.88-9.83-7.17-2.29-14.35-.55-20.66 3.98-37.89 27.22-75.81 54.4-113.72 81.6-.9.64-1.8 1.28-2.71 1.92-.2-.19-.41-.35-.62-.51zm103.81-118.77c2.74 3.41 5.39 6.22 9.94 6.36 2.33.07 4.63.72 6.95 1.05 17.34 2.47 31.46-4.72 45.58-15.21-3.79-2.89-6.81-6.04-10.49-7.84-9.32-4.58-19.55-5.12-29.74-5.44-.59-.02-1.35.3-1.77.73-6.83 6.72-13.61 13.5-20.47 20.35z"/><path d="m124.06 183.61c9.6-1.97 19.16-4.14 28.81-5.79 3.46-.59 4.07-2.47 3.64-5.06-1.18-7.05-2.6-14.05-3.98-21.06-.38-1.93-.94-3.82-1.61-6.5 5.08 5.06 9.49 9.66 14.12 14.01 13.25 12.47 14.89 13.03 32.88 12.04 7.37-.41 14.75-.74 22.1-1.4 1.81-.16 3.9-1.05 5.22-2.29 5.61-5.28 10.97-10.82 16.84-16.69-1.04 4.61-1.96 8.59-2.81 12.58-.23 1.09-.32 2.22-.35 3.33-.13 6.14.8 7.06 6.85 6.56 8.77-.72 15.61 3.67 23.3 8.56-6.19 1.26-11.56 2.36-16.94 3.44-5.81 1.17-11.67 2.13-17.41 3.57-1.84.46-4.19 1.79-4.9 3.36-3.48 7.7-7.55 15.37-9.44 23.51-3.84 16.52-6.49 33.32-9.45 50.04-1.46 8.24.79 16.19 3.98 23.53 5.72 13.21 12.29 26.06 18.56 39.02.52 1.07 1.51 1.92 2.35 2.82 13.05 14.14 26.12 28.28 39.68 42.96-1.32-.35-2-.45-2.6-.71-9.49-3.95-19-7.87-28.43-11.95-1.45-.63-2.79-1.82-3.8-3.07-14.06-17.27-28.05-34.6-42.07-51.91-.55-.68-1.14-1.33-1.99-2.32-.97 1.63-1.79 3.04-2.64 4.44-8.66 14.23-16.97 28.7-26.11 42.62-7.98 12.15-19.52 19.46-34.16 21.42-.44.06-.88.06-1.32.06-.07 0-.14-.11-1.09-.9 1.42-1.04 2.94-1.85 4.08-3.03 16.68-17.36 31.09-36.38 42.11-57.85 11.21-21.84 12.92-44.71 6.59-68.16-4.05-14.99-8.89-29.76-13.55-44.57-.35-1.11-2.03-2.23-3.29-2.56-13.93-3.7-27.91-7.25-41.87-10.85-.41-.11-.81-.28-1.22-.42-.02-.26-.05-.52-.08-.78zm65.57 9.21c2.95 12.44 5.8 24.42 8.78 37.01 1.51-1.58 2.95-2.45 3.42-3.68 3.34-8.76 6.92-17.46 9.53-26.44 1.81-6.24-3.95-11.45-10.43-10.09-3.69.79-7.28 2.05-11.3 3.2z"/><path d="m301.44 330.24c-8.31-2.85-16.63-5.69-24.94-8.56-.4-.14-.76-.47-1.08-.78-13.55-12.72-25.48-26.64-33.11-43.85-6.32-14.25-5.52-28.59-.24-42.74 2.88-7.7 6.21-15.42 10.6-22.32 3.59-5.63 9.06-10.06 14.41-14.64-1.21 6.35-2.4 12.7-3.62 19.05-2.69 14.04-5.53 28.06-7.98 42.14-.43 2.47.5 5.26 1.17 7.81 3.75 14.35 10.5 26.77 21.62 37.06 8.57 7.93 15.96 17.13 23.88 25.77-.24.36-.47.71-.71 1.06z"/><path d="m109.68 333.26c.78-1.54 1.28-3.34 2.39-4.59 7.71-8.68 14.13-18.17 18.64-28.91 7.15-17.01 8.02-34.71 5.83-52.74-1.82-14.99-6.05-29.3-12.25-43.05-.39-.87-.66-1.8-1.11-3.03 20.21 13.19 37.02 43.84 34.22 72.56-2.46 25.21-25.21 54.17-47.72 59.76z"/></g><path d="m6.4 11.7c-1-.8-1.9-1.6-2.9-2.3l.6-.7c.9.7 1.9 1.4 2.9 2.2zm-2.1 8.3c.7-2.1 1.4-4.2 2-6.4.2.1.6.3 1 .4-.7 2.3-1.3 4.4-1.9 6.4zm3-12.8c-1.1-.9-2.1-1.7-2.9-2.4l.6-.7c1 .8 2 1.5 3 2.4zm1.4-1.3v-.9h10.2v.9c-.9 4.2-2.3 7.3-4.1 9.4 1.3 1.4 3.2 2.7 5.7 4-.2.2-.4.5-.7.9-2.5-1.4-4.4-2.7-5.7-4.2-1.4 1.5-3.5 3-6.1 4.4 0 0 0 0-.1-.1-.3-.4-.5-.7-.7-.8 2.7-1.3 4.7-2.8 6.2-4.2-1.8-2.2-3-5.3-3.7-9.4zm9.2 0h-7.1c.6 3.8 1.7 6.7 3.4 8.7 1.7-2 2.9-4.8 3.7-8.7z" fill="#fbfafa"/><path d="m31.6 3.6h.9v2.3h4.1v9.1h1.7v.9h-16.6v-.9h1.7v-9.1h4.1v-2.3h.9v2.3h3.1v-2.3zm-4 13.3.6.8c-1.9.9-3.8 1.9-5.8 2.8-.2-.3-.3-.6-.5-.9 2-.9 3.9-1.8 5.7-2.7zm-3.2-10.1v3.7h3.1v-3.7zm0 4.5v3.7h3.1v-3.7zm4.1-4.5v3.7h3.1v-3.7zm0 4.5v3.7h3.1v-3.7zm9.1 9.1c-2.1-1.1-4.1-2-5.8-2.7l.5-.8c2.2.9 4.1 1.8 5.8 2.6zm-1.9-13.6h-3.1v3.7h3.1zm-3.2 4.5v3.7h3.1v-3.7z" fill="#fbfafa"/></svg>