<svg enable-background="new 0 0 400 400" viewBox="0 0 400 400" xmlns="http://www.w3.org/2000/svg"><path d="m362.1 8.8c1.1.8 2.1 1.6 3.1 2.4l-1 1.1c-1.3-1.1-2.3-2-3-2.5zm1.9 4.8c.5.2.9.4 1.4.5-.6 2.3-1.3 4.5-1.9 6.8l-1.5-.5c.8-2.1 1.4-4.3 2-6.8zm-1-9.4c1.3.9 2.4 1.8 3.4 2.5l-1 1.1c-1.4-1.2-2.4-2.1-3.2-2.6zm3.7 2.2v-1.4h10.3v1.2c-.5 3.6-1.8 6.8-4 9.4 1.5 1.6 3.4 2.8 5.7 3.8-.3.4-.7.8-1.1 1.4-2.3-1.1-4.1-2.5-5.6-4.1-1.6 1.6-3.6 3.1-5.9 4.3-.3-.5-.7-.9-1-1.3 2.4-1.1 4.4-2.5 6-4.1-1.9-2.5-3-5.6-3.3-9.3h-1.1zm8.8 0h-6.4c.3 3.3 1.3 6 3 8.2 2-2.3 3.1-5.1 3.4-8.2z" fill="#fbfafc"/><path d="m385.3 3.8h1.3v2.2h2.8v-2.2h1.3v2.2h4.1v9.1h1.7v1.3h-16.9v-1.3h1.7v-9.1h4.1v-2.2zm.4 13.1.7 1.2c-1.8.9-3.8 1.9-6 2.9-.2-.4-.5-.8-.8-1.3 2.3-1 4.3-1.9 6.1-2.8zm-3.1-6.4h2.8v-3.2h-2.8zm0 4.6h2.8v-3.3h-2.8zm4-4.6h2.8v-3.2h-2.8zm0 4.6h2.8v-3.3h-2.8zm3.7 1.9c2.1.9 4.1 1.8 6.1 2.7l-.7 1.3c-2.2-1.1-4.2-2-6.1-2.9zm3.2-9.7h-2.8v3.2h2.8zm-2.8 7.8h2.8v-3.3h-2.8z" fill="#fbfafc"/><path d="m230.25 284.85c-1.65 4-3.47 7.61-4.66 11.41-5.48 17.57-16.69 31.48-28.6 44.92-11.62 13.12-25.14 23.85-41.11 31.28-5.15 2.4-10.4 4.2-16.18 2.47-.52-.16-1.01-.42-1.58-.66-.11-4.23.79-7.32 4.75-10.1 22.59-15.86 41.81-35.07 55.71-59.14 6.64-11.5 10.11-24.04 11.23-37.27.19-2.24-.92-2.92-2.6-2.94-5.57-.07-11.15-.18-16.71.12-7.25.39-14.49 1.1-21.73 1.8-1.16.11-2.25.9-3.91 1.6 1.49 1.31 2.37 2.1 3.27 2.88 5.87 5.07 8.8 11.18 6.78 19.07-.55 2.17-1.09 4.35-1.43 6.55-1.08 7.17-4.38 12.53-11.19 15.8-7.73 3.72-13.05 10.09-18.23 16.85-3.05 3.98-7.82 6.95-12.32 9.47-8.43 4.72-17.67 7.32-27.12 8.73-2-3.29-.93-5.34 1.45-7.7 9.37-9.29 19.21-18.25 27.5-28.45 7.35-9.05 12.95-19.53 19.19-29.46 2.65-4.21 1.07-8.45-.75-12.48-.33-.73-1.53-1.22-2.42-1.52-5.39-1.86-10.85-3.53-16.2-5.48-1.95-.71-4.1-1.63-5.44-3.11-6.82-7.53-13.43-15.25-20.05-22.96-.85-1-1.35-2.31-1.96-3.5-.13-.26-.05-.63-.13-1.91 2.95 1.39 5.86 2.11 7.92 3.84 8.33 7 18.02 10.58 28.57 12.28.98.16 2.19.35 2.98-.07 5.04-2.67 10.05-1.32 14.95.13 5.83 1.73 11.54.48 17.29-.1 10.02-1.02 20.03-2.11 30.01-3.41 1.36-.18 2.99-1.44 3.72-2.67 2.8-4.67 1.83-9.68.82-14.67-1.56-7.66-3.77-9.51-11.62-8.35-5.06.75-10 2.23-14.99 3.44-7.05 1.71-14.01 3.97-21.15 4.99-4.01.58-8.38-.57-12.47-1.44-7.18-1.53-14.31-3.29-21.38-5.29-2.05-.58-4-2.06-5.59-3.56-1.24-1.17-1.86-3.01-3.06-5.08 8.87-1.24 16.83-2.3 24.77-3.48 14.48-2.15 28.96-4.36 43.43-6.62 1.51-.24 3.08-.77 4.37-1.58 2.51-1.57 3.78-3.61 2.07-6.72-1.39-2.54-2.6-5.23-3.48-7.98-1.44-4.5-4.49-7.28-8.68-9.14-11.54 9.77-24.68 16.85-38.67 22.39-3.6 1.42-7.51 2.11-11.33 2.91-5.95 1.25-11.11-1.55-16.46-3.43-4.36-1.53-7.82-3.88-10.39-7.84-2.61-4.02-5.76-7.7-9.19-12.2 1.6 0 2.62-.08 3.63.01 5.92.52 11.45-.82 16.99-2.88 12.36-4.59 24.93-8.61 37.23-13.35 7.8-3.01 15.28-6.85 22.84-10.46.67-.32 1.32-1.76 1.19-2.55-1.8-11.15-3.67-22.29-5.74-33.39-.22-1.16-1.74-2.82-2.8-2.93-3.06-.31-6.43-.66-9.26.28-10.38 3.42-20.6 7.34-30.85 11.12-3.77 1.39-7.46 3.02-11.24 4.4-7.71 2.8-15.55 2.98-23.41.68-5.15-1.51-10.28-3.06-15.36-4.76-3.32-1.11-6.38-2.7-7.49-7.03 4.9-.66 9.69-.91 14.27-2 8.02-1.91 16-4.07 23.83-6.61 17.86-5.78 35.61-11.87 53.42-17.82 3.54-1.18 5.56-3.7 4.65-7.28-.89-3.49-2.14-7.21-4.31-9.99-5.58-7.13-11.42-14.13-17.8-20.54-4.37-4.4-9.6-8.07-14.86-11.41-4.02-2.55-5.41-5.55-4.17-10.24 3.87-1.13 7.74-.04 11.46 1.42 13.73 5.41 26.37 12.64 37.08 22.94.87.84 1.57 1.88 2.22 2.91 4.8 7.68 9.6 15.37 14.31 23.11 1 1.64 1.94 2.25 4 1.83 6.58-1.32 13.23-2.24 19.81-3.54 1.19-.23 2.61-1.29 3.17-2.36 2.96-5.67 3.03-11.53.72-17.51-3.87-10-7.62-20.05-11.41-30.09-.43-1.13-.82-2.27-.73-4.2 2.81 1.13 5.82 1.94 8.4 3.46 7.72 4.54 14.1 10.56 19.17 18 2.73 4 3.58 8.28 3.18 13.03-.33 3.83-1.45 7.77.98 11.43 1.34 2.02 2.8 3.05 5.45 2.93 13.97-.6 27.95-1.4 41.92-1.26 8.79.09 17.57 1.62 26.34 2.67 2.78.33 4.21 2.26 4.42 5.1.15 1.93-.48 2.98-2.45 3.66-8.69 3.03-17.68 3.77-26.77 3.84-8.82.07-17.66-.28-26.47.09-6.66.28-13.03 2.27-18.45 6.35-1.23.92-2.26 2.75-2.46 4.29-1.54 11.86-2.3 23.83-6.07 35.31-.27.82-.35 1.7-.56 2.75 13.56 3.03 26.99 5.9 40.35 9.1 3.03.73 6.2 2.06 8.61 3.98 12.37 9.84 17.51 22.44 14.02 38.26-2.86 12.95-6.86 25.46-13.19 37.15-.98 1.8-2.37 3.52-3.94 4.84-6.41 5.39-12.96 10.61-18.85 15.4 10.56 6.93 21.13 13.79 31.6 20.79 2.59 1.73 4.95 3.84 7.27 5.93 5.49 4.95 9.31 10.51 8.77 18.58-.37 5.42.74 10.93.88 16.41.04 1.73-.63 3.64-1.49 5.18-1.13 2.03-2.8 3.76-4.19 5.66-2.46 3.36-5.66 4.5-9.91 3.39 0-1.87.05-3.73-.01-5.58-.25-7.48-.4-14.96-.85-22.42-.38-6.36-3.74-11.16-8.83-14.74-3.47-2.44-7.02-4.8-10.67-6.96-8.46-5-17.03-9.8-25.49-14.79-4.48-2.64-8.88-2.28-13.5-.42-2.84 1.14-2.15 3.7-2.49 5.7-.15.85 1.01 2.3 1.95 2.91 15.18 9.9 28.93 21.48 40.98 35.01 10.85 12.19 14.56 26.39 11.03 42.39-.12.55-.15 1.16-.42 1.62-5.16 8.63-9.97 17.51-15.69 25.75-2.61 3.75-7.27 5.51-12.55 4.1-1.65-8.05-1.12-16.14.42-24.19.91-4.72 2.57-9.34 3-14.08.44-4.83.25-9.83-.51-14.62-.96-6.07-3.85-11.16-8.81-15.3-7.95-6.64-15.48-13.84-23.51-21.08zm52.36-103.77c-.19-7.91-2.04-15.21-9.49-19.11-4.85-2.54-10.31-4.46-15.71-5.27-10.73-1.61-21.09 1.48-31.2 4.66-5.97 1.88-11.58 4.89-17.63 7.52 4.04 7.07 7.69 13.21 11.07 19.49 1.08 2.01 2.3 2.26 4.27 1.83 6-1.31 12-2.69 18.05-3.69 13.25-2.2 26.14-7.35 39.96-5.07.08.02.18-.09.68-.36zm-1.71 9.59c-5.97 2.25-11.79 4.16-17.37 6.61-10.31 4.53-20.5 9.33-30.69 14.13-1.07.5-2.54 1.81-2.51 2.71.19 6.34.61 12.68 1.2 19 .23 2.41 1.63 3.16 4.28 2.4 14.94-4.27 28.07-11.76 38.93-22.75 5.72-5.78 7.89-13.3 6.16-22.1zm-61.05-93.27c-6.98 2.38-13.71 4.78-20.51 6.95-2.1.67-3.24 1.79-3.34 3.93-.24 5.46-.85 10.94-.56 16.38.35 6.46 1.69 12.82 5.51 18.44 3.06-1.08 6.09-1.92 8.9-3.25 1.54-.73 3.36-2.04 3.89-3.51 2.72-7.55 5.34-15.15 7.44-22.89 1.43-5.22 1.27-10.63-1.33-16.05z" fill="#000001"/></svg>