<svg enable-background="new 0 0 400 400" viewBox="0 0 400 400" xmlns="http://www.w3.org/2000/svg"><path d="m374.8 390.4.4-.4c.7.5 1.3 1 1.8 1.4l-.5.5c-.5-.6-1.1-1.1-1.7-1.5zm1 7.3-.6-.3c.5-1.4 1.1-2.8 1.5-4.3.2.1.4.2.6.3-.5 1.3-1 2.8-1.5 4.3zm-.4-10.3.4-.4c.4.3 1 .8 1.7 1.4l-.5.5c-.4-.5-1-1-1.6-1.5zm2.5.3h1.7v-1h.6v1h3.5v-1h.6v1h1.8v.5h-1.8v1.4h-2v1h3.2v2h-3.2v.9h3.3v.5h-3.4c0 .3-.1.6-.1.9h4v.5h-3.7c.7.9 1.9 1.5 3.8 1.7-.1.2-.2.4-.3.6-2.1-.4-3.5-1.1-4-2.1-.4 1-1.8 1.7-4 2.2-.1-.2-.2-.4-.3-.6 2.1-.4 3.4-1 3.8-1.8h-3.4v-.5h3.6c.1-.3.1-.6.2-.9h-3.3v-.5h3.4c0-.3 0-.6 0-.9h-3.2v-2h3.3v-1h-2.1v-1.4h-1.7v-.5zm1.1 3.5v1h2.7c0-.3 0-.4 0-.4 0-.1 0-.2 0-.2 0-.1 0-.2 0-.3h-2.7zm1.2-3v.9h3.5v-.9zm4.7 3h-2.6v.6.4h2.6z" fill="#fbfcfa"/><path d="m393.6 386.7h.6v1.5h2.7v6.1h1.1v.6h-11v-.6h1.1v-6.1h2.7v-1.5h.6v1.5h2.1v-1.5zm-2.7 8.8.4.6c-1.2.6-2.5 1.3-3.8 1.9-.1-.2-.2-.4-.3-.6 1.2-.6 2.5-1.2 3.7-1.9zm-2.2-6.7v2.4h2.1v-2.4zm0 3v2.5h2.1v-2.5zm2.8-3v2.4h2.1v-2.4zm0 3v2.5h2.1v-2.5zm6 6.1c-1.4-.7-2.7-1.3-3.9-1.8l.3-.6c1.5.6 2.7 1.2 3.9 1.7zm-1.2-9.1h-2.1v2.4h2.1zm-2.1 3v2.5h2.1v-2.5z" fill="#fbfcfa"/><g fill="#010101"><path d="m143.02 347.55c-.63-3.9.11-6.62 2.41-9.63 12.49-16.28 20.11-34.69 22.94-55.07.37-2.67-.47-4.52-2.86-5.24-3.68-1.1-7.47-2.48-11.22-2.49-6.21-.02-11.48-2.06-15.95-5.94-5.48-4.77-10.59-9.98-15.74-15.11-.84-.84-1.53-2.26-1.55-3.43-.42-20.81-.73-41.63-1.06-62.44-.01-.33.08-.66.16-1.36 7.82-2.2 15.76-4.37 23.67-6.67 7.51-2.18 14.91-4.75 22.48-6.7 11.3-2.92 16.63-10.36 16.67-21.6.05-13.18-.45-26.36-.61-39.55-.05-4.32-2.9-5.54-6.14-6.29-23.22 27.09-52.45 45.69-83.78 61.48-.67-.83-.99-1.15-1.22-1.53-.52-.86-.98-1.74-1.56-2.78.47-.59.96-1.17 1.41-1.77 4.94-6.75 10.67-13.08 14.65-20.36 8.7-15.87 20.44-28.7 35.19-38.98 3.12-2.17 6-4.73 9.25-6.68 7.05-4.23 12.29-10.11 17.26-16.57 4.34-5.64 9.84-10.37 14.62-15.69 1.57-1.75 2.95-3.94 3.6-6.17 3.07-10.5 5.85-21.09 8.73-31.62 6.07.97 7.33 2.59 6.88 8.29-.13 1.61-.37 3.58.37 4.84 5.06 8.58 5.45 18.05 5.6 27.57.04 2.33.75 3.97 2.47 5.5 3.67 3.26 7.38 6.51 9.09 11.4.31.9 1.4 1.7 2.32 2.17 2.69 1.37 5.41 2.7 8.23 3.77 10.93 4.15 20 10.82 28.62 18.72 5.37 4.91 12.39 8.76 19.34 11.04 12.41 4.06 19.86 12.76 26.61 24.27-1.99 0-3.95.61-4.71-.09-9.9-9.11-22.14-13.82-34.42-18.33-11.99-4.4-22.97-10.37-32.8-18.54-5.77-4.8-12.31-8.07-20.99-8.51-.67 7.24-2.1 14.44-1.82 21.57.42 10.93 2.08 21.8 3.06 32.71.22 2.48 1.7 2.99 3.63 3.48 15.72 3.94 31.34 8.33 47.17 11.75 10.28 2.22 18.67 11.47 18.73 23.8.02 3.64-1.11 7.29-1.15 10.94-.05 4.06.65 8.13.79 12.21.06 1.91-.05 4-.76 5.73-2.35 5.68-4.89 11.28-7.58 16.81-9.89 20.3-25.72 31.76-48.7 32.48-5.62.18-11.14.78-16.24 3.49-4.41 2.34-5.29 4.1-3.4 8.59.98 2.32 2.32 4.57 3.86 6.57 10.27 13.26 18.73 27.54 24.56 43.3.85 2.29 1.34 4.73 1.83 7.13.66 3.3-.56 5.19-3.97 6.55-3.12 1.24-6.17.42-7.86-2.16-6.64-10.09-13.49-20.06-19.79-30.36-2.27-3.72-3.19-8.27-4.77-12.43-1.38-3.65-3.82-6.17-7.62-7.45-2.22-.75-3.31-.3-4.49 1.81-6.14 11.04-12.28 22.09-18.81 32.9-5.26 8.71-12.7 15.26-21.95 19.66-.8.36-1.63.61-2.68 1.01zm31.84-164.72c-.46.41-.81.69-1.13 1-6.11 5.92-13.69 7.23-21.51 3.88-.79-.34-2.11-.06-2.91.4-3.29 1.9-6.42 4.08-9.74 5.94-1.9 1.06-2.62 2.39-2.65 4.55-.11 6.49-.67 12.98-.58 19.46.11 8.36.45 16.73 1.15 25.06.41 4.89 3.24 8.47 8.15 10.03 3.51 1.11 6.96 2.46 10.54 3.25 5.85 1.28 14.11-1.24 15.54-5.38 2.13-6.17 3.79-12.63 4.51-19.1.59-5.32-3.74-9.14-8.97-9.57-7.19-.59-14.37-1.22-22.16-1.89 4.13-4.23 8.99-4.96 13.74-6.08 6.18-1.45 12.31-3.1 18.41-4.85.97-.28 2.24-1.47 2.37-2.38.7-4.86 1.27-9.75 1.52-14.65.24-4.45-1.95-7.66-6.28-9.67zm32.61 71.9c12.47.1 24.52-1.43 35.73-6.7 3.68-1.73 7.66-4.4 9.65-7.75 2.42-4.06 3.31-9.22 4.08-14.02 1.08-6.8-4.01-11.33-10.89-10.03-11.86 2.24-23.69 4.62-35.51 7.03-.93.19-2.16.99-2.46 1.8-3.63 9.74-3.86 19.58-.6 29.67zm13.2-87.02c-2.28 6.14-2.3 6.1-8.13 9.64-1.18.72-2.85 1.69-3.05 2.77-1.33 7.25-2.54 14.54-.28 21.87.69 2.26 1.8 3.14 4.29 3.06 12.72-.39 25.45-.58 38.18-.84 9.61-.2 10.81-1.17 13.12-10.6.11-.43.2-.87.26-1.31.87-6.23-1.46-9.83-7.53-11.46-1.39-.37-2.84-.61-4.28-.71-12.07-.9-23.85-2.53-32.58-12.42z"/><path d="m232.8 348.02c10.66 3.38 18.73 14.05 18.11 23.12-.08 1.23-.78 2.41-1.19 3.61-1.1-.64-2.53-1.02-3.24-1.96-4.05-5.3-8.19-10.56-11.74-16.19-1.36-2.17-1.24-5.28-1.94-8.58z"/></g></svg>