<svg enable-background="new 0 0 400 400" viewBox="0 0 400 400" xmlns="http://www.w3.org/2000/svg"><path d="m230.88 375.05c-5.89-7.13-7.7-15.12-8.71-23.39-3.06-25.21-6.18-50.41-9.16-75.63-.54-4.55-.34-9.18-.82-13.73-.51-4.86-1.64-9.65-2.11-14.51-.63-6.42-.76-12.88-1.36-19.3-.19-1.97-1-3.99-1.94-5.76-1.35-2.55-3.65-4.71-4.55-7.38-2.57-7.62-8.25-12.25-14.82-16.67-4.21 4.17-9.12 7.54-10.52 14.29-1.14 5.48-4.26 10.52-5.77 15.96-1.76 6.32-3.06 12.81-3.94 19.31-.77 5.75-.45 11.64-1.05 17.42-.36 3.48-1.59 6.87-2.39 10.31-.45 1.94-1.09 3.88-1.17 5.84-.37 8.94-.3 17.91-.95 26.82-.45 6.16-3.44 11.44-7.64 15.94-.4-.01-.81-.03-1.21-.04-.16-3.58-.65-7.17-.4-10.72.64-9.24 1.94-18.44 2.34-27.68.6-13.97 1.03-27.96.84-41.93-.18-12.64 3.68-24.21 7.72-35.84 1.43-4.12 2.68-8.3 4.27-12.35 1.01-2.57.16-4.08-2.05-5.14-1.61-.77-3.32-1.32-4.95-2.05-2.64-1.18-5.4-2.19-7.85-3.7-5.37-3.32-8.26-8.08-8.5-14.63-.19-5.12-1.5-10.2-1.71-15.33-.13-3.14.52-6.44 1.45-9.47 1.05-3.41 1.09-6.47-.53-9.67-1.05-2.08-1.75-4.33-2.76-6.9 10.04-.7 19.53-4.97 29.59-.92 4.51 1.81 11.49-1.29 11.23-8.22-.47-12.7 2.17-25.43-.33-38.13-.36-1.84-.47-3.73-.72-5.82-13.05 2.74-25.83 5.41-38.59 8.13-.72.15-1.5.57-2 1.1-4.48 4.7-10.35 5.86-16.61 6.65-.41-2.76.26-4.53 2.94-5.87 7.69-3.87 15.15-8.17 22.85-12.02 2.93-1.46 6.19-2.8 9.39-3.04 4.96-.38 8.63-2.75 12.71-5.19 7.53-4.5 11.02-10.44 10.93-19.28-.06-6.24 1.34-12.5 2.81-18.78 1.61 7.36 3.1 14.75 4.93 22.06.47 1.89 1.7 3.81 3.07 5.23 9.52 9.86 21.17 16.35 34 20.85 3.07 1.08 5.4 2.85 7.33 5.5.78 1.07 2.61 1.55 4.05 1.93 1.68.45 3.6.16 5.18.79 8.92 3.58 16.83 8.78 23.7 15.51 1.24 1.22 2.14 2.8 3.3 4.34-3.45 3.03-7.24 3.31-10.89 1.97-6.22-2.28-12.92-3.55-18-8.46-1.61-1.55-4.12-2.16-6.18-3.26-3.03-1.61-6.04-3.26-9.05-4.91-.58-.32-1.11-.99-1.69-1.03-6.93-.51-11.59-5.47-17.11-8.71-4.67-2.74-9.52-4.3-15.05-3.37 0 4.09-.03 8.07.01 12.06.04 4.25.17 8.51.19 12.76 0 1.21.17 2.75-.47 3.57-2.23 2.87-1.06 5.54-.34 8.51.79 3.29.73 6.77 1.23 10.14.17 1.14.65 2.57 1.49 3.23 3.92 3.06 8.64 4.17 13.33 3.12 14.94-3.35 28.74 1.95 42.82 5.16.77.18 1.86 1.75 1.75 2.54-.7 5.32 1.56 9.21 4.69 13.34 2.16 2.84 3.11 6.92 3.66 10.58 1.05 7.05.09 14.04-2.01 20.88-.73 2.38-2.05 3.15-4.52 3.44-14.09 1.67-28.15 3.54-42.21 5.44-1.5.2-3.08.76-4.35 1.58-3.2 2.05-3.53 3.95-1.61 7.16 3.16 5.26 6.31 10.53 9.64 16.09-1.95.91-3.69 1.73-5.43 2.54-.03.25-.06.5-.09.76 1.29.33 2.58.97 3.86.94 4.9-.1 7.18 1.65 7.39 6.61.11 2.64-.42 5.33-.89 7.96-.65 3.66-.68 7.07 1.98 10.11.64.73.95 2.08.85 3.08-1.4 13.76 1.93 27.16 3.04 40.73.36 4.42.44 8.97 3.75 12.59.55.6.4 1.92.42 2.9.46 22.27.93 44.54 1.3 66.81.04 1.43-.66 2.84-1.03 4.25zm-15.5-195.44c1.29 0 2.3-.04 3.3.01 9.05.4 17.91-.27 25.96-4.98.93-.54 2.19-1.77 2.12-2.57-.74-8.32-1.66-16.63-2.71-24.92-.22-1.75-1.48-2.62-3.56-2.77-9.82-.7-19.63-1.49-29.42-2.56-4.06-.44-7.82-.01-11.3 1.94-1.27.71-2.88 2.12-3.02 3.35-.87 7.76-1.46 15.55-1.92 23.34-.11 1.84.4 3.82 1.09 5.55.39.96 1.69 2.07 2.69 2.19 5.66.64 11.36.99 16.77 1.42zm-61.81-37.53c.3 9.28.83 18.01 3.32 26.61 1.92 6.64 6.23 9.21 12.69 9.44 4.74.16 6.93-1.39 7.75-6.02 1.32-7.36 2.6-14.73 3.86-22.11.77-4.51.06-6.24-4.28-7.41-7.57-2.04-15.3-2.73-23.34-.51z" fill="#010100"/><g fill="#fcfafa"><path d="m342.2 3.2-6.3 9.2h6.1v1.2h-8.2v-.5l6.2-9.1h-5.7v-1.2h7.8v.4z"/><path d="m344 13.7v-10.9h3.1c1.6 0 3 .5 4.1 1.4 1.1 1 1.6 2.2 1.6 3.9s-.5 3-1.6 4-2.5 1.5-4.2 1.5h-3zm1.4-9.6v8.4h1.6c1.4 0 2.5-.4 3.2-1.1.8-.8 1.2-1.8 1.2-3.2s-.4-2.4-1.2-3.1-1.8-1-3.1-1z"/><path d="m356.3 2.8v10.9h-1.4v-10.9z"/><path d="m366.6 13.2c-.8.4-1.8.6-3 .6-1.6 0-2.8-.5-3.7-1.5s-1.4-2.3-1.4-3.9c0-1.7.5-3.2 1.6-4.2s2.4-1.6 4-1.6c1 0 1.9.1 2.6.4v1.5c-.8-.4-1.6-.6-2.6-.6-1.2 0-2.2.4-3 1.2s-1.1 1.9-1.1 3.3c0 1.3.4 2.3 1.1 3.1s1.6 1.1 2.8 1.1c1.1 0 2-.2 2.8-.7v1.3z"/><path d="m368.2 13c0-.3.1-.5.3-.6.2-.2.4-.3.6-.3.3 0 .5.1.7.3s.3.4.3.6-.1.5-.3.6c-.2.2-.4.3-.7.3s-.5-.1-.6-.3c-.2-.2-.3-.4-.3-.6z"/><path d="m381.1 13.7h-1.7l-5.5-8.4c-.2-.2-.3-.5-.4-.7 0 .2.1.8.1 1.5v7.6h-1.4v-10.9h1.8l5.3 8.3c.3.4.4.6.4.8 0-.3-.1-.8-.1-1.6v-7.5h1.4v10.9z"/><path d="m389.7 13.7h-5.8v-10.9h5.6v1.2h-4.2v3.5h3.9v1.2h-3.9v3.7h4.4z"/><path d="m398.4 4.1h-3.1v9.6h-1.4v-9.6h-3.1v-1.3h7.7v1.3z"/></g></svg>