<svg enable-background="new 0 0 400 400" viewBox="0 0 400 400" xmlns="http://www.w3.org/2000/svg"><path d="m5.17 384 .55-.58c.85.61 1.65 1.24 2.4 1.87l-.59.64c-.83-.73-1.62-1.38-2.36-1.93m1.22 9.53-.82-.34c.71-1.76 1.37-3.64 1.98-5.63.24.13.5.25.76.36-.6 1.67-1.24 3.54-1.92 5.61m-.5-13.5.57-.54c.56.44 1.31 1.06 2.26 1.87l-.64.64c-.68-.66-1.41-1.32-2.19-1.97m3.25.46h2.24v-1.36h.77v1.36h4.57v-1.36h.76v1.36h2.28v.69h-2.28v1.84h-2.64v1.26h4.18v2.64h-4.21c0 .45-.02.86-.05 1.21h4.32v.69h-4.38c-.04.34-.1.75-.19 1.22h5.15v.69h-4.82c.87 1.19 2.51 1.92 4.93 2.19-.17.31-.3.57-.37.76-2.77-.49-4.52-1.41-5.26-2.76-.56 1.26-2.3 2.23-5.24 2.9-.12-.24-.26-.48-.43-.72 2.73-.55 4.38-1.34 4.96-2.38h-4.38v-.69h4.65c.1-.38.17-.79.21-1.22h-4.32v-.69h4.4c.03-.34.05-.75.05-1.21h-4.2v-2.64h4.23v-1.26h-2.69v-1.84h-2.24zm1.46 4.46v1.29h3.45c.01-.4.02-.57.01-.53v-.32-.45h-3.46zm1.55-2.59h4.57v-1.19h-4.57zm6.11 2.59h-3.42v.77c-.01.19-.01.37-.02.53h3.44z" fill="#fafafc"/><path d="m32.63 379.16h.82v1.98h3.54v7.89h1.46v.78h-14.37v-.78h1.46v-7.89h3.54v-1.98h.82v1.98h2.73zm-3.49 11.48.5.73c-1.61.82-3.28 1.63-5 2.41-.13-.27-.28-.55-.44-.82 1.75-.72 3.4-1.49 4.94-2.32m-2.78-5.55h2.73v-3.18h-2.73zm0 3.95h2.73v-3.2h-2.73zm3.54-3.95h2.73v-3.18h-2.73zm0 3.95h2.73v-3.2h-2.73zm7.89 4.68c-1.84-.92-3.51-1.7-5.02-2.32l.45-.73c1.89.8 3.57 1.55 5.04 2.23zm-1.62-11.81h-2.73v3.18h2.73zm-2.73 7.13h2.73v-3.2h-2.73z" fill="#fafafc"/><path d="m122.47 359.69c20.95-4.8 41.63-9.53 62.6-14.34 1.64-21.21 3.28-42.35 4.92-63.64-5.89-1.2-11.46-2.31-17.02-3.51-1.04-.23-2.31-.55-2.96-1.29-6.3-7.11-12.66-14.19-18.66-21.55-5.79-7.11-6.63-15.21-4.45-24.08 2.03-8.25 5.3-15.2 12.12-20.85 9.64-7.98 18.49-16.93 27.76-25.38 1.56-1.43 2.05-2.79 1.93-4.92-.54-9.27-.71-18.55-1.28-27.82-.12-1.93-.94-4.1-2.13-5.63-17.27-22.16-39.09-39.22-61.92-55.2-10.04-7.03-18.22-15.87-23.15-27.31-1.23-2.86-2.18-5.87-2.91-8.9-1.11-4.57 2.82-8.24 7.34-6.62 3.32 1.19 6.72 2.77 9.42 4.99 9.24 7.62 18.42 15.34 27.15 23.53 4.87 4.56 8.69 10.22 13.18 15.21 5.08 5.65 9.96 11.69 17.09 14.89 3.72 1.67 7.82 2.52 11.76 3.7 2.44.73 3.6-.51 3.8-2.77.22-2.53.98-5.31.25-7.58-2.71-8.45-2.68-16.97-1.45-25.55 2.12-14.71 4.41-29.4 6.7-44.08.27-1.74.99-3.4 1.48-5.05 5.85.1 9.55 2.36 10.96 7.62 1.21 4.5 1.81 9.21 2.15 13.87.48 6.58.23 13.21.74 19.79.53 6.84-.8 13.04-3.32 19.48-4.09 10.45-.62 20.26 4.75 30.19 8.39-5.69 16.82-10.45 24.12-16.56 14.93-12.5 29.32-25.65 43.79-38.7 3.72-3.35 7.12-7.13 10.23-11.05 2.73-3.44 5.97-5.19 10.83-5.25-.29 2.19-.23 4.35-.9 6.26-3.09 8.81-7.85 16.54-13.7 23.96-12.85 16.28-28.56 29.64-43.22 44.07-10.69 10.52-21.61 20.82-32.52 31.11-1.72 1.62-1.91 2.97-1.37 5.22.73 3.05 1.08 6.34.79 9.45-.59 6.45-1.63 12.87-2.64 19.28-.39 2.51.01 3.95 2.67 5.13 9.49 4.24 18.7 9.13 28.25 13.21 8.59 3.67 14.61 13.39 11.81 24.33-1.32 5.19-2.99 10.3-4.51 15.44-2.82 9.52-9.95 16.15-16.32 23.07-2.83 3.08-7.67 4.48-11.79 6.15-3.16 1.27-3.89 3.08-3.75 6.34.88 21.02 1.52 42.06 2.25 63.09.03.88.13 1.75.25 3.42 8.03.44 16.03.95 24.03 1.29 6.59.28 13.23-.09 19.76.63 7.27.8 13.05 4.32 15.73 11.78-10.32 7.26-21.62 10.93-34.12 10.42-23.75-.96-47.09 2.1-70.38 6.35-12.76 2.33-25.63 1.65-38.4-.76-1.89-.36-2.91-1.08-3.51-2.92-1.23-3.93-2.72-7.78-4.23-11.96z" fill="#010101"/></svg>