<svg enable-background="new 0 0 400 400" viewBox="0 0 400 400" xmlns="http://www.w3.org/2000/svg"><g fill="#fcfafa"><path d="m342.2 3.2-6.3 9.2h6.1v1.2h-8.2v-.5l6.2-9.1h-5.7v-1.2h7.8v.4z"/><path d="m344 13.7v-10.9h3.1c1.6 0 3 .5 4.1 1.4 1.1 1 1.6 2.2 1.6 3.9s-.5 3-1.6 4-2.5 1.5-4.2 1.5h-3zm1.4-9.6v8.4h1.6c1.4 0 2.5-.4 3.2-1.1.8-.8 1.2-1.8 1.2-3.2s-.4-2.4-1.2-3.1-1.8-1-3.1-1z"/><path d="m356.3 2.8v10.9h-1.4v-10.9z"/><path d="m366.6 13.2c-.8.4-1.8.6-3 .6-1.6 0-2.8-.5-3.7-1.5s-1.4-2.3-1.4-3.9c0-1.7.5-3.2 1.6-4.2s2.4-1.6 4-1.6c1 0 1.9.1 2.6.4v1.5c-.8-.4-1.6-.6-2.6-.6-1.2 0-2.2.4-3 1.2s-1.1 1.9-1.1 3.3c0 1.3.4 2.3 1.1 3.1s1.6 1.1 2.8 1.1c1.1 0 2-.2 2.8-.7v1.3z"/><path d="m368.2 13c0-.3.1-.5.3-.6.2-.2.4-.3.6-.3.3 0 .5.1.7.3s.3.4.3.6-.1.5-.3.6c-.2.2-.4.3-.7.3s-.5-.1-.6-.3c-.2-.2-.3-.4-.3-.6z"/><path d="m381.1 13.7h-1.7l-5.5-8.4c-.2-.2-.3-.5-.4-.7 0 .2.1.8.1 1.5v7.6h-1.4v-10.9h1.8l5.3 8.3c.3.4.4.6.4.8 0-.3-.1-.8-.1-1.6v-7.5h1.4v10.9z"/><path d="m389.7 13.7h-5.8v-10.9h5.6v1.2h-4.2v3.5h3.9v1.2h-3.9v3.7h4.4z"/><path d="m398.4 4.1h-3.1v9.6h-1.4v-9.6h-3.1v-1.3h7.7v1.3z"/></g><path d="m23.11 357.98c13.65-5.29 26.97-10.46 40.3-15.62 25.33-9.79 50.6-19.74 76.02-29.27 8.56-3.21 17.58-5.16 26.25-8.07 5.04-1.69 9.97-3.89 14.67-6.39 3.41-1.82 4.93-4.96 4.82-9.22-.28-11.3-.1-22.61-.1-33.92 0-1.21 0-2.42 0-3.69-6.84-1.83-13.3-1.08-19.75.6-5.08 1.32-10.23 2.42-15.28 3.84-1.62.46-3.27 1.38-4.51 2.52-4.49 4.16-9.87 6.23-15.79 6.58-12.88.76-25.41-1.13-37.53-5.68-3.29-1.24-5.13-3.67-6.9-6.72 5.34-1.29 10.39-2.75 15.52-3.71 10.46-1.95 19.9-6.6 29.54-10.74 9.24-3.97 18.81-7.36 27.58-12.2 10.33-5.7 19.97-12.67 29.85-19.17.57-.37.95-1.5.91-2.25-.27-5.25-.79-10.49-.98-15.75-.09-2.47-1.67-2.79-3.34-2.69-6.69.39-13.43.57-20.05 1.52-29.3 4.19-57.01-1.31-83.44-13.81-11.79-5.58-19.32-15.7-25.15-27.06-4.21-8.19-8.05-16.64-7.68-26.1.34-8.43 1.36-16.84 2.13-25.85 5.82 5.44 11.95 9.34 14.36 17.48 5.63 18.96 16.65 34.41 32.79 46.23 3.94 2.88 7.53 4.89 12.55 4.92 12.19.07 24.37.66 36.56.98 1.06.03 2.35-.07 3.17-.64 5.46-3.8 11.7-5.37 18.04-6.87 2.88-.68 5.83-1.79 8.3-3.4 7.69-5 10-11.43 7.62-21.31-1.96-8.14-3.59-16.49-6.73-24.19-4.84-11.87-10.3-23.57-16.53-34.77-4.42-7.94-12.15-12.73-21.06-15.04-10.25-2.66-16.18-9.68-20.26-19.23 8.51-2.06 16.32-.62 23.74 2.83 16.32 7.59 32.54 15.38 48.73 23.23 1.53.74 3.04 2.3 3.74 3.85 8.16 18.14 16.16 36.35 24.21 54.54.45 1.02.94 2.02 1.63 3.52 1.07-1.26 1.91-2.36 2.87-3.34 7.42-7.59 14.42-15.66 22.41-22.59 9.48-8.22 14.26-18.66 17.41-30.29 1.4-5.17 2.78-10.36 4.47-15.44 1.41-4.23 1.32-8.38.05-12.52-.36-1.18-1.35-2.28-2.29-3.16-3.98-3.7-8.08-7.33-12.08-10.92 3.14-4.14 7.09-4.86 11.39-3 3.87 1.67 7.64 3.64 11.27 5.78 4.6 2.71 9.07 5.66 13.5 8.64 1.43.96 2.86 2.16 3.79 3.58 8.57 13.08 11.13 27.03 6.27 42.21-3.82 11.91-7.19 23.97-10.79 35.96-.32 1.05-.62 2.28-1.36 2.99-8.51 8.24-16.69 16.91-25.83 24.39-5.88 4.81-12.94 8.45-19.96 11.48-7.76 3.35-13.46 8.45-17.05 15.8-2.64 5.39-4.64 11.12-6.59 16.81-1.36 3.97.06 7.59 3.4 10.03 8.36 6.12 17.31 9.54 27.95 6.99 5.48-1.31 10.21 1.04 13.81 5.09 2.57 2.88 4.58 6.26 6.94 9.54-6.53 5.97-13.69 9.6-21.64 11.9-7.49 2.17-14.99 4.36-22.37 6.87-4.37 1.49-7.09 4.34-8.47 9.33-2.96 10.74-6.9 21.21-10.44 31.8-.13.4-.21.82-.34 1.34 5.82 1.98 11.51 2.25 17.15.06 4.17-1.62 8.44-3.1 12.34-5.23 6.22-3.4 12.8-4.18 19.7-4.22 8.5-.04 17-.65 25.5-.51 4.01.06 7.19-1.13 10.07-3.6 1.79-1.53 3.62-1.92 5.83-.89 8.84 4.14 18.39 3.15 27.71 3.64 12.84.68 25.7 1.11 38.55 1.62 4.13.16 7.97 3.9 8.14 8.03.2 4.85-3.03 8.96-7.91 9.59-8.29 1.07-16.09 3.67-23.61 7.21-1.86.88-3.43 1.05-5.28-.26-.89-.63-2.52-.66-3.68-.4-10.22 2.33-20.1 6.01-30.76 6.55-9.71.49-19.45 1.27-29.07 2.61-11.61 1.62-23.13 3.9-34.67 6.02-7.14 1.31-14.25 2.82-21.35 4.34-1.83.39-3.67.98-5.37 1.78-8.49 4.01-17.02 7.94-25.36 12.25-4.62 2.39-9.27 3.77-14.44 3.18-2.71-.31-4.95.47-7.08 2.25-6.3 5.28-13.13 9.03-21.6 10.47-10.28 1.75-19.8 6.15-28.51 12.11-4.25 2.9-8.85 5.31-12.95 8.4-3.71 2.8-7.48 3.12-11.89 2.6-19.88-2.36-39.79-4.53-59.7-6.62-2.76-.29-4.25-1.21-4.63-4.02-.22-1.7-.84-3.4-1.4-5.51z" fill="#010103"/></svg>