<svg enable-background="new 0 0 400 400" viewBox="0 0 400 400" xmlns="http://www.w3.org/2000/svg"><path d="m5.17 384 .55-.58c.85.61 1.65 1.24 2.4 1.87l-.59.64c-.83-.73-1.62-1.38-2.36-1.93m1.22 9.53-.82-.34c.71-1.76 1.37-3.64 1.98-5.63.24.13.5.25.76.36-.6 1.67-1.24 3.54-1.92 5.61m-.5-13.5.57-.54c.56.44 1.31 1.06 2.26 1.87l-.64.64c-.68-.66-1.41-1.32-2.19-1.97m3.25.46h2.24v-1.36h.77v1.36h4.57v-1.36h.76v1.36h2.28v.69h-2.28v1.84h-2.64v1.26h4.18v2.64h-4.21c0 .45-.02.86-.05 1.21h4.32v.69h-4.38c-.04.34-.1.75-.19 1.22h5.15v.69h-4.82c.87 1.19 2.51 1.92 4.93 2.19-.17.31-.3.57-.37.76-2.77-.49-4.52-1.41-5.26-2.76-.56 1.26-2.3 2.23-5.24 2.9-.12-.24-.26-.48-.43-.72 2.73-.55 4.38-1.34 4.96-2.38h-4.38v-.69h4.65c.1-.38.17-.79.21-1.22h-4.32v-.69h4.4c.03-.34.05-.75.05-1.21h-4.2v-2.64h4.23v-1.26h-2.69v-1.84h-2.24zm1.46 4.46v1.29h3.45c.01-.4.02-.57.01-.53v-.32-.45h-3.46zm1.55-2.59h4.57v-1.19h-4.57zm6.11 2.59h-3.42v.77c-.01.19-.01.37-.02.53h3.44z" fill="#fafafc"/><path d="m32.63 379.16h.82v1.98h3.54v7.89h1.46v.78h-14.37v-.78h1.46v-7.89h3.54v-1.98h.82v1.98h2.73zm-3.49 11.48.5.73c-1.61.82-3.28 1.63-5 2.41-.13-.27-.28-.55-.44-.82 1.75-.72 3.4-1.49 4.94-2.32m-2.78-5.55h2.73v-3.18h-2.73zm0 3.95h2.73v-3.2h-2.73zm3.54-3.95h2.73v-3.18h-2.73zm0 3.95h2.73v-3.2h-2.73zm7.89 4.68c-1.84-.92-3.51-1.7-5.02-2.32l.45-.73c1.89.8 3.57 1.55 5.04 2.23zm-1.62-11.81h-2.73v3.18h2.73zm-2.73 7.13h2.73v-3.2h-2.73z" fill="#fafafc"/><path d="m46.98 373c-.73-6.21-1.16-11.23-1.98-16.19-.38-2.3.53-3.13 2.37-3.98 12.97-6.05 26.62-10 40.7-12.06 18.03-2.65 36.21-4.29 54.24-6.92 10.26-1.49 20.36-4.09 30.53-6.19 2.68-.55 4.4-2.25 4.95-4.85 1.39-6.65 3.35-13.3 3.78-20.03 1.67-25.73 1.35-51.44-2.31-77.04-.57-4-2.35-6.26-5.96-7.9-10.38-4.7-21.18-5.83-32.44-5.11-17.71 1.13-35.04-.54-51.56-7.82-18.49-8.15-32.84-20.74-41.9-38.88-12.14-24.31-16.8-50.09-14.19-77.15.43-4.45 1.15-8.87 1.67-13.31.21-1.82 1.02-2.72 2.93-2.95 2.87-.34 5.71-.95 8.98-1.52.89 3.68 1.78 7.2 2.59 10.75 2.14 9.37 4.07 18.79 6.43 28.11 2.03 7.98 6.8 14.61 12.1 20.67 17.32 19.78 37.95 34.84 62.86 43.89 7.18 2.61 14.31 1.74 21.52 1.39 5.59-.28 11.16-.88 16.74-1.1 1.91-.07 2.74-.8 3.39-2.46 3.5-8.86 5-18.18 5.2-27.57.31-15.2.17-30.43-.23-45.63-.63-24.12.06-48.1 5.11-71.8.16-.74.41-1.45.67-2.36 6.75 1.65 11.43 5.75 15.02 11.21 5.72 8.69 8.23 18.54 9.82 28.65 3.42 21.76 6.38 43.59 10.25 65.27 1.87 10.45 3.2 20.73 1.8 31.3-.8 6.09 1.41 11.16 5.84 15.38 1.76 1.68 3.54 2.35 6.01 1.98 14.83-2.18 29.67-4.24 44.51-6.34 5.43-.77 10.83-1.69 16.28-2.28 2.14-.23 3.34-1.1 4.46-2.88 8.07-12.77 13.26-26.81 18.38-40.89 4.33-11.9 10.81-22.53 19.29-32.38 4.85 7.94 8.26 16.19 10.26 25.09 2.67 11.86 1.01 23.48-2.4 34.78-3.28 10.88-7.54 21.47-11.52 32.13-.54 1.44-1.81 2.82-3.09 3.74-11.28 8.07-22.6 16.11-34.03 23.97-1.81 1.25-4.22 2.14-6.4 2.25-18.54.9-37.1 1.66-55.65 2.25-2.71.09-3.92 1.05-4.24 3.47-.73 5.42-1.87 10.84-2.02 16.29-.65 24.09.47 48.1 4.37 71.94.57 3.51 1.93 5.52 5.53 6.84 15.38 5.67 31.09 6.01 46.96 3.39 10.03-1.65 19.88-4.43 29.92-5.9 16.52-2.42 32.14.03 45.73 10.64 1.31 1.03 2.53 2.18 4.04 3.49-.87.66-1.51 1.21-2.22 1.66-18.46 11.72-38.66 17.94-60.49 18.64-15.08.49-30.18.54-45.26.88-1.48.03-3.08.5-4.4 1.2-5.33 2.83-10.52 5.94-15.87 8.72-1.82.95-3.94 1.67-5.97 1.8-10.61.64-21.27.62-31.83 1.68-11.44 1.15-22.78 3.24-34.17 4.91-25.22 3.69-50.34 8.68-75.98 7.96-13.04-.37-26.05-1.85-39.12-2.83z" fill="#010101"/></svg>