<svg enable-background="new 0 0 400 400" viewBox="0 0 400 400" xmlns="http://www.w3.org/2000/svg"><g fill="#fcfafa"><path d="m342.2 3.2-6.3 9.2h6.1v1.2h-8.2v-.5l6.2-9.1h-5.7v-1.2h7.8v.4z"/><path d="m344 13.7v-10.9h3.1c1.6 0 3 .5 4.1 1.4 1.1 1 1.6 2.2 1.6 3.9s-.5 3-1.6 4-2.5 1.5-4.2 1.5h-3zm1.4-9.6v8.4h1.6c1.4 0 2.5-.4 3.2-1.1.8-.8 1.2-1.8 1.2-3.2s-.4-2.4-1.2-3.1-1.8-1-3.1-1z"/><path d="m356.3 2.8v10.9h-1.4v-10.9z"/><path d="m366.6 13.2c-.8.4-1.8.6-3 .6-1.6 0-2.8-.5-3.7-1.5s-1.4-2.3-1.4-3.9c0-1.7.5-3.2 1.6-4.2s2.4-1.6 4-1.6c1 0 1.9.1 2.6.4v1.5c-.8-.4-1.6-.6-2.6-.6-1.2 0-2.2.4-3 1.2s-1.1 1.9-1.1 3.3c0 1.3.4 2.3 1.1 3.1s1.6 1.1 2.8 1.1c1.1 0 2-.2 2.8-.7v1.3z"/><path d="m368.2 13c0-.3.1-.5.3-.6.2-.2.4-.3.6-.3.3 0 .5.1.7.3s.3.4.3.6-.1.5-.3.6c-.2.2-.4.3-.7.3s-.5-.1-.6-.3c-.2-.2-.3-.4-.3-.6z"/><path d="m381.1 13.7h-1.7l-5.5-8.4c-.2-.2-.3-.5-.4-.7 0 .2.1.8.1 1.5v7.6h-1.4v-10.9h1.8l5.3 8.3c.3.4.4.6.4.8 0-.3-.1-.8-.1-1.6v-7.5h1.4v10.9z"/><path d="m389.7 13.7h-5.8v-10.9h5.6v1.2h-4.2v3.5h3.9v1.2h-3.9v3.7h4.4z"/><path d="m398.4 4.1h-3.1v9.6h-1.4v-9.6h-3.1v-1.3h7.7v1.3z"/></g><path d="m93.98 244.38c8.91-2.79 17.79-5.39 26.55-8.36 15.24-5.16 30.53-10.21 45.53-15.98 6.5-2.5 12.38-6.62 18.46-10.13.63-.36 1.13-1.64 1.06-2.44-.99-10.69-2.03-21.38-3.26-32.05-.09-.75-1.79-1.99-2.61-1.89-7.09.82-14.2 1.65-21.21 2.97-8.34 1.57-16.58 3.7-24.89 5.47-18.34 3.91-35.81 1.18-52.42-7.28-20.25-10.32-36.06-25.1-45.52-46.09-.49-1.09-.69-3.34-.15-3.68 1.32-.84 3.34-1.51 4.73-1.09 2.51.74 5.03 1.99 7.08 3.62 13.3 10.6 28.69 15.99 45.33 17.58 24.24 2.33 48.26.39 71.86-5.82 4.1-1.08 8.03-2.77 12.11-3.9 2.75-.76 3.97-2.49 4.68-5.04 2.51-9.02 1.92-18.14-.54-26.87-3.91-13.85-8.73-27.44-13.18-41.13-1.01-3.12-2.97-5.29-6.06-6.7-3.65-1.67-7.08-3.82-10.63-5.71-5.48-2.91-8.82-7.39-10.06-13.53 3.1-2.85 6.11-3.81 10.45-1.95 14.26 6.13 28.75 11.75 43.11 17.67 1.35.56 2.64 1.65 3.53 2.83 3.29 4.38 6.1 9.16 9.64 13.31 4.48 5.25 5.9 11.36 6.49 17.91.59 6.57 1.15 13.15 2 19.69.31 2.39 1.17 4.8 2.25 6.97 2.61 5.28 5.61 6.37 11.1 4.47 33.48-11.55 66.88-23.32 100.5-34.46 7.53-2.49 15.78-2.85 23.73-3.99 3.42-.49 6.91-.58 10.37-.68 1.37-.04 2.76.4 5.23.8-2.14 3.48-3.65 6.39-5.58 9-8.67 11.72-20.12 19.72-33.57 25.13-4.13 1.66-8.12 3.76-12 5.98-28.34 16.2-59.36 25.74-89.99 36.23-3.5 1.2-5.76 3.15-7.21 6.34-5.1 11.22-6.3 22.95-4.67 35.08.33 2.47 1.46 3.34 4.03 3.77 13.06 2.2 26.1 1.23 39.17.32 11.65-.81 21.88 5.33 26.4 15.92-9.32 5.46-19.29 9.3-29.93 11.08-13.78 2.31-27.19 5.53-38.91 13.58-1.39.96-2.69 2.69-3.12 4.31-2.71 10.03-5.16 20.12-7.73 30.31 7.27 2.07 14.3 1.57 21.24-.76 3.28-1.1 6.53-2.32 9.74-3.62 13.67-5.54 28.16-6.87 42.6-8.48 16.6-1.86 33.21-2.8 49.88-1.03 10.67 1.13 21.37 2.13 32.02 3.46 6.52.81 9.84 4.1 10.64 9.4.4 2.62-.2 3.73-3.18 4.02-25.83 2.51-51.63 5.21-77.44 7.87-.98.1-2.1.17-2.89.67-8.06 5.15-17.15 7.02-26.34 9.02-17.67 3.85-35.25 8.18-52.77 12.7-8.53 2.2-16.78 5.46-25.25 7.93-11.79 3.44-23.66 6.58-35.48 9.88-1.49.42-3.01.9-4.38 1.61-15.38 7.97-30.86 15.77-46.02 24.15-3.74 2.07-6.86 5.73-9.49 9.24-3.2 4.27-6.62 4.97-11.71 3.96-13.48-2.68-27.14-4.43-40.61-7.15-4.21-.85-8.26-3.27-11.94-5.66-3.42-2.22-2.61-6.32 1.09-7.75 49.92-19.29 99.82-38.63 149.79-57.78 4.15-1.59 6.47-4.13 7.49-8.14 2.18-8.56 1.39-17.11-.58-25.57-.19-.81-1.58-1.76-2.53-1.91-7.26-1.15-13.86.76-20.25 4.25-7.13 3.9-14.46 7.46-21.8 10.97-1.13.54-2.9.48-4.11.02-11.16-4.28-22.29-8.66-33.38-13.12-5.17-2.07-6.95-5.01-6.49-9.75z" fill="#010103"/></svg>