<svg enable-background="new 0 0 400 400" viewBox="0 0 400 400" xmlns="http://www.w3.org/2000/svg"><path d="m141.35 358.08c10.11-1.32 20.3-2.59 30.47-3.99 6.56-.91 13.01-2.25 18.59-6.18 2.22-1.56 3.62-3.32 2.14-6.15-.2-.39-.22-.87-.39-1.28-3.69-9.02-3.94-17.88-.61-27.28 1.33-3.76-.12-8.54-.48-12.85-.84-10.03-1.73-20.05-2.75-30.07-.14-1.42-.73-3.22-1.76-4.06-9.85-8.03-12.73-17.98-9.68-30.27 1-4.02 2.31-7.45 5.43-9.96 5.86-4.71 7.36-10.39 6.52-17.91-1.44-12.77-1.54-25.68-2.39-38.52-.09-1.4-1-3.29-2.13-3.99-16-10.02-29.22-23.19-42.18-36.68-.54-.56-1.11-1.13-1.52-1.78-6.02-9.42-12.1-18.79-17.97-28.29-3.34-5.4-5.46-11.22-4.37-17.92 4.2-.65 7.5-.32 10.86 3.07 11.89 12 24.11 23.68 36.45 35.21 4.11 3.84 9 6.86 14.25 10.8.11-2.18.22-3.44.24-4.71.34-20.25.5-40.51 1.08-60.75.34-11.79 2.36-23.35 6.78-34.38.69-1.73 1.53-3.41 2.32-5.17 3.54.65 5.55 2.58 6.21 5.67.6 2.83.98 5.73 1.18 8.62 1.32 19.54 2.52 39.08 3.85 58.61.41 6.02 1.06 12.03 1.68 18.04.12 1.2.44 2.45.96 3.53 1.74 3.57 5.95 4.23 8.42 1.18 7.4-9.12 14.58-18.41 22.03-27.49 2.97-3.62 6.4-6.84 9.91-10.55 2.83 4.3 3.71 8.73 2.35 13-2.18 6.88-4.29 14-7.91 20.15-8.22 13.96-17.4 27.35-26.04 41.08-1.03 1.64-1.79 4-1.5 5.83 3 18.8 2.62 37.68 1.8 56.58-.06 1.48.37 3.12 1.01 4.47 2.15 4.54 4.34 9.09 6.84 13.44 1.43 2.49 1.69 4.9.6 7.33-2.19 4.88-4.52 9.7-6.98 14.45-2.77 5.36-5.82 10.58-8.58 15.94-.62 1.2-1.01 2.87-.72 4.14 3.78 16.18 2.83 32.72 3.83 49.1.31 5.12.05 10.27.05 15.69 6.19.56 11.6 1.1 17.03 1.52 14.27 1.11 28.55 2.16 42.82 3.29 1.19.09 2.49.32 3.49.91 3.31 1.94 3.27 4.35.08 6.34-12.6 7.86-26.72 9.76-41.13 10.39-4.01.18-8.05-.04-12.07.07-1.42.04-2.89.33-4.23.8-3.37 1.19-6.81 2.3-9.99 3.89-7.14 3.57-14.64 4.61-22.47 3.77-10.55-1.14-21.12-2.17-31.63-3.64-5.1-.68-9.86-7.3-9.79-13.04z" fill="#010102"/><g fill="#fcfbfa"><path d="m385.2 377.6.6-.7c.6.4 1.3.9 1.9 1.5l-.6.7c-.8-.5-1.4-1-1.9-1.5zm.3 7.1c.6-1.4 1.1-2.9 1.5-4.5.3.1.6.3.9.4-.5 1.4-1 2.9-1.5 4.4zm.2-10.1.6-.6c.7.5 1.3 1.1 1.9 1.6l-.7.7c-.6-.6-1.2-1.2-1.8-1.7zm8.4-.8h.8v.9h1.8v.7h-1.8v1.8h-.8v-.3h-1.2v.9h3.3v2.6h-.8v-.4h-2.5c0 .3 0 .6-.1.8h3.4v.7h-3.5c0 .3-.1.6-.1.8h4v.7h-3.5c.7.9 1.9 1.3 3.6 1.5-.2.2-.4.5-.6.9-1.9-.3-3.2-1.1-3.8-2.3-.5 1.1-1.8 2-3.9 2.4-.2-.3-.4-.5-.6-.8 1.9-.4 3.1-.9 3.6-1.7h-3.2v-.7h3.5c.1-.2.1-.5.2-.8h-3.3v-.7h3.4c0-.2 0-.5 0-.8h-2.4v.3h-.8v-2.6h3.3v-.9h-1.2v.3h-.8v-1.8h-1.8v-.7h1.8v-.9h.8v.9h3.2zm-4.4 5.5h2.4c0-.3 0-.6 0-.9h-2.4zm1.2-3.1h3.2v-.8h-3.2zm4.4 2.2h-2.4v.9h2.5v-.9z"/><path d="m389.2 385.8h.9v1.5h1.9v-1.5h.9v1.5h2.7v6h1.1v.9h-11.3v-.9h1.1v-6h2.7zm.2 8.7.5.8c-1.2.6-2.5 1.3-4 1.9-.2-.3-.3-.6-.6-.8 1.6-.6 3-1.3 4.1-1.9zm-2-4.3h1.9v-2.1h-1.9zm0 3.1h1.9v-2.2h-1.9zm2.7-3.1h1.9v-2.1h-1.9zm0 3.1h1.9v-2.2h-1.9zm2.4 1.3c1.4.6 2.7 1.2 4.1 1.8l-.5.9c-1.5-.7-2.8-1.4-4.1-1.9zm2.2-6.5h-1.9v2.1h1.9zm-1.9 5.2h1.9v-2.2h-1.9z"/></g></svg>