<svg enable-background="new 0 0 400 400" viewBox="0 0 400 400" xmlns="http://www.w3.org/2000/svg"><path d="m5.17 384 .55-.58c.85.61 1.65 1.24 2.4 1.87l-.59.64c-.83-.73-1.62-1.38-2.36-1.93m1.22 9.53-.82-.34c.71-1.76 1.37-3.64 1.98-5.63.24.13.5.25.76.36-.6 1.67-1.24 3.54-1.92 5.61m-.5-13.5.57-.54c.56.44 1.31 1.06 2.26 1.87l-.64.64c-.68-.66-1.41-1.32-2.19-1.97m3.25.46h2.24v-1.36h.77v1.36h4.57v-1.36h.76v1.36h2.28v.69h-2.28v1.84h-2.64v1.26h4.18v2.64h-4.21c0 .45-.02.86-.05 1.21h4.32v.69h-4.38c-.04.34-.1.75-.19 1.22h5.15v.69h-4.82c.87 1.19 2.51 1.92 4.93 2.19-.17.31-.3.57-.37.76-2.77-.49-4.52-1.41-5.26-2.76-.56 1.26-2.3 2.23-5.24 2.9-.12-.24-.26-.48-.43-.72 2.73-.55 4.38-1.34 4.96-2.38h-4.38v-.69h4.65c.1-.38.17-.79.21-1.22h-4.32v-.69h4.4c.03-.34.05-.75.05-1.21h-4.2v-2.64h4.23v-1.26h-2.69v-1.84h-2.24zm1.46 4.46v1.29h3.45c.01-.4.02-.57.01-.53v-.32-.45h-3.46zm1.55-2.59h4.57v-1.19h-4.57zm6.11 2.59h-3.42v.77c-.01.19-.01.37-.02.53h3.44z" fill="#fafafc"/><path d="m32.63 379.16h.82v1.98h3.54v7.89h1.46v.78h-14.37v-.78h1.46v-7.89h3.54v-1.98h.82v1.98h2.73zm-3.49 11.48.5.73c-1.61.82-3.28 1.63-5 2.41-.13-.27-.28-.55-.44-.82 1.75-.72 3.4-1.49 4.94-2.32m-2.78-5.55h2.73v-3.18h-2.73zm0 3.95h2.73v-3.2h-2.73zm3.54-3.95h2.73v-3.18h-2.73zm0 3.95h2.73v-3.2h-2.73zm7.89 4.68c-1.84-.92-3.51-1.7-5.02-2.32l.45-.73c1.89.8 3.57 1.55 5.04 2.23zm-1.62-11.81h-2.73v3.18h2.73zm-2.73 7.13h2.73v-3.2h-2.73z" fill="#fafafc"/><path d="m57.38 336.03c6.49-3.99 13.45-5.56 20.47-5.28 13.39.54 26.74 1.9 40.11 2.88 17.05 1.25 34.1 2.56 51.17 3.61 3.17.19 6.5-.42 9.6-1.24 7.3-1.93 11.15-7.21 11.15-14.64 0-9.74-.07-19.48.05-29.22.03-2.12-.66-3.12-2.61-3.94-12.4-5.28-25.29-7.8-38.65-5.78-15.85 2.39-27.85-3.92-37.99-15.28-1.18-1.32-2.27-2.71-3.55-4.25 6.25-4.45 13.13-6.43 20.38-7.52 11.05-1.67 21.85.81 32.74 1.73 9.12.77 18.09.33 26.71-3.23 3.23-1.34 4.94-3.07 5.1-7.07.53-13.19 1.7-26.35 2.46-39.54.08-1.47-.56-3.33-1.52-4.45-7.09-8.23-14.3-16.34-21.58-24.4-.98-1.08-2.48-1.89-3.89-2.33-11.43-3.5-22.92-6.82-34.35-10.35-1.95-.6-3.99-1.63-5.45-3.02-13.51-12.81-23.98-27.77-30.14-45.4-1.73-4.94-1.69-10.5-2.4-15.79-.28-2.09.77-3.6 2.79-3.9 3.47-.51 6.98-.77 10.48-.99.84-.05 1.7.51 2.56.71 8.93 2 15.51 6.95 20.49 14.75 4.81 7.53 10.44 14.53 15.86 21.66 7.44 9.78 17.31 12.89 29.13 10.1 1.13-.27 2.32-.88 3.14-1.68 5.21-5.08 10.35-10.23 15.43-15.44.68-.7 1.4-1.98 1.22-2.8-2.73-12.56-.85-25.22-.81-37.82.05-15.89.63-31.78 1.14-47.66.04-1.38.99-3.15 2.08-3.99 3.64-2.78 7.48-5.31 11.38-7.72.95-.59 2.58-.77 3.62-.38 4.33 1.62 6.66 5.29 6.89 9.54.43 7.9.78 15.91-.1 23.73-.76 6.7.05 13.15.57 19.69.43 5.46 1.57 10.91 1.53 16.36-.06 7.45-.93 14.9-1.47 22.35-.09 1.23-.17 2.47-.44 3.66-1.29 5.63-.81 10.54 3.66 15.02 5.29 5.3 10.72 9.86 18.59 10.17 8.43.34 16.44-1.49 24.13-4.82 1.08-.47 2.02-1.37 2.9-2.2 9.38-8.97 19.01-17.72 27.99-27.08 4.12-4.3 7.94-4.4 12.98-2.07-.53 9.35-1.03 18.84-1.67 28.31-.06.86-.86 1.78-1.52 2.48-17.59 18.51-37.02 34.85-58.99 47.88-6.74 4-14.57 6.21-22 8.96-2.74 1.01-3.7 2.34-3.62 5.31.22 9.05.08 18.11.08 27.25 1.43.41 2.68.76 3.96 1.13-2.3 4.35-1.84 6.7 2.06 10.05 7.59 6.53 16.8 9.06 26.4 10.63 6.66 1.09 12.99.43 19.4-2 13.89-5.26 27.94-10.13 41.99-14.95 2.69-.92 5.7-1.16 8.57-1.22 6.77-.14 10.36 2.91 11.72 9.52.85 4.14.37 7.44-3.26 10.65-16.26 14.43-35.31 23.29-55.86 29.57-12.43 3.8-25.06 4.18-37.86 3.44-7.51-.44-14.56.88-20.12 6.44-.97.97-1.78 2.66-1.75 4 .22 10.41.75 20.8.98 31.21.06 2.46.98 3.43 3.24 4.14 8.64 2.71 17.26 5.49 25.79 8.54 9.1 3.26 18.54 2.32 27.86 2.68 11.06.42 22.19-.05 33.2.88 12.2 1.03 21.7 7.14 27.93 18.32-5.7 5.03-12.35 8.39-19.76 8.9-10.56.73-21.23 1-31.79.34-15.92-.99-31.73-.09-47.58.89-8.15.5-16.31 1.5-24.45 1.31-7-.16-13.96-1.78-20.96-2.58-26.11-3-52.21-6.02-78.34-8.85-7.77-.84-15.75-.35-23.36-1.87-7.81-1.56-15.3-4.8-22.89-7.42-.82-.28-1.57-1.23-2.02-2.05-2.95-5.43-5.84-10.85-8.93-16.57z" fill="#010101"/></svg>