<svg enable-background="new 0 0 400 400" viewBox="0 0 400 400" xmlns="http://www.w3.org/2000/svg"><path d="m5.17 384 .55-.58c.85.61 1.65 1.24 2.4 1.87l-.59.64c-.83-.73-1.62-1.38-2.36-1.93m1.22 9.53-.82-.34c.71-1.76 1.37-3.64 1.98-5.63.24.13.5.25.76.36-.6 1.67-1.24 3.54-1.92 5.61m-.5-13.5.57-.54c.56.44 1.31 1.06 2.26 1.87l-.64.64c-.68-.66-1.41-1.32-2.19-1.97m3.25.46h2.24v-1.36h.77v1.36h4.57v-1.36h.76v1.36h2.28v.69h-2.28v1.84h-2.64v1.26h4.18v2.64h-4.21c0 .45-.02.86-.05 1.21h4.32v.69h-4.38c-.04.34-.1.75-.19 1.22h5.15v.69h-4.82c.87 1.19 2.51 1.92 4.93 2.19-.17.31-.3.57-.37.76-2.77-.49-4.52-1.41-5.26-2.76-.56 1.26-2.3 2.23-5.24 2.9-.12-.24-.26-.48-.43-.72 2.73-.55 4.38-1.34 4.96-2.38h-4.38v-.69h4.65c.1-.38.17-.79.21-1.22h-4.32v-.69h4.4c.03-.34.05-.75.05-1.21h-4.2v-2.64h4.23v-1.26h-2.69v-1.84h-2.24zm1.46 4.46v1.29h3.45c.01-.4.02-.57.01-.53v-.32-.45h-3.46zm1.55-2.59h4.57v-1.19h-4.57zm6.11 2.59h-3.42v.77c-.01.19-.01.37-.02.53h3.44z" fill="#fafafc"/><path d="m32.63 379.16h.82v1.98h3.54v7.89h1.46v.78h-14.37v-.78h1.46v-7.89h3.54v-1.98h.82v1.98h2.73zm-3.49 11.48.5.73c-1.61.82-3.28 1.63-5 2.41-.13-.27-.28-.55-.44-.82 1.75-.72 3.4-1.49 4.94-2.32m-2.78-5.55h2.73v-3.18h-2.73zm0 3.95h2.73v-3.2h-2.73zm3.54-3.95h2.73v-3.18h-2.73zm0 3.95h2.73v-3.2h-2.73zm7.89 4.68c-1.84-.92-3.51-1.7-5.02-2.32l.45-.73c1.89.8 3.57 1.55 5.04 2.23zm-1.62-11.81h-2.73v3.18h2.73zm-2.73 7.13h2.73v-3.2h-2.73z" fill="#fafafc"/><path d="m182.55 374.61c-.91-4.07-2.31-8.1-2.59-12.21-.29-4.31.48-8.69.8-13.03.08-1.11.55-2.32.27-3.32-2.36-8.39.13-16.66.48-24.98.33-7.93.81-15.85.98-23.78.04-1.87-.88-3.76-1.66-6.8-2.73 2.12-4.64 3.61-6.55 5.11-2.71 2.12-5.38 4.29-8.13 6.34-4.45 3.33-9.19 6.32-13.41 9.92-13.91 11.85-28.93 21.76-46.32 27.76-.72.25-1.47.39-2.17.58-1.68-3.39-.81-5.4 2.44-7.37 19.8-11.94 38.07-25.95 55.07-41.62 7.21-6.65 13.41-14.25 17.61-23.09 2.14-4.52 2.95-9.8 3.62-14.84.6-4.51.7-9.23.09-13.73-1.46-10.71 1.04-21.18 1.28-31.76.48-20.57.34-41.16.4-61.75.01-4.7-.33-9.4-.25-14.1.03-2.14-.69-3.14-2.67-3.9-9.79-3.77-19.6-7.53-29.27-11.59-10.99-4.61-20.45-11.31-28.13-20.6-6.49-7.86-8.85-17.12-10.47-26.8-.85-5.06-2.26-10.04-3.01-15.11-.8-5.37-3.99-7.95-8.95-9.01-5.1-1.09-8.88-3.55-9.44-9.27 6.76-2.81 28.78 5.06 33.86 12.28-3.83 1.44-2.98 4.41-2.61 7.51 1.59 13.3 6.2 25.58 12.37 37.33.6 1.14 1.67 2.05 2.6 3 9.24 9.54 21.18 13.36 33.74 15.82 3.57.7 7.21 1.11 11.05 1.68.99-9.56 1.85-18.55 2.87-27.52.51-4.44 1.27-8.85 2-13.27 1.44-8.7 1.01-17.38-.12-26.07-.4-3.09-.72-6.31-.31-9.36.44-3.24 1.6-6.44 2.85-9.49.44-1.08 2.47-2.55 3.13-2.27 1.31.54 2.63 2 3.16 3.38 3.88 10.04 2.58 20.36 1.91 30.8-1.17 18.28-1.46 36.62-2.13 55.22 10.25.49 19.78.33 28.92-3.34 1.66-.67 3.3-1.39 4.99-1.96 18.35-6.22 28.96-19.94 36.36-37 3.83-8.83 5.51-17.93 4.87-27.45-.19-2.84.92-4.21 3.56-4.51 8.18-.91 16.37-1.77 24.55-2.65.28.47.57.94.85 1.41-.78.98-1.36 2.3-2.37 2.87-3.89 2.19-7.86 4.27-11.92 6.14-3.41 1.57-4.46 4.29-4.96 7.71-.67 4.59-1.66 9.14-2.57 13.7-.31 1.53-1.25 3.06-1.12 4.51.39 4.34-1.71 7.4-4.39 10.38-2.17 2.41-3.93 5.21-6.21 7.49-5.17 5.17-10.49 10.21-15.89 15.15-2.02 1.85-4.24 3.67-6.68 4.82-15.16 7.15-30.39 14.17-46.62 18.66-2.34.65-2.7 1.91-2.67 4.12.18 15.43.43 30.87.23 46.31-.23 17.44-.89 34.88-1.4 52.31-.05 1.56-.28 3.12-.48 4.67-.82 6.25-.78 12.37 1.02 18.56.84 2.88.62 6.29.06 9.31-1.1 5.99 1.85 10.17 5.63 13.9 14.18 14 28.49 27.86 42.74 41.78 1.6 1.56 2.97 3.38 4.67 4.82 2.87 2.42 5.88 4.67 8.91 6.9 1.43 1.05 3.24 1.65 4.49 2.85 2.39 2.31 1.7 4.48-1.54 5.2-4.44.98-8.34-.7-12.04-2.84-9.84-5.69-16.97-14.49-25.09-22.14-5.78-5.45-11.27-11.21-17.16-16.54-2.45-2.22-5.57-3.69-9.02-5.91-.76 12.61-1.43 24-2.13 35.39-.61 9.94-1.07 19.89-1.98 29.8-.29 3.14-1.43 6.38-2.9 9.2-1.31 2.51-3.61 4.51-5.47 6.74-.54-.18-1.09-.31-1.63-.45z" fill="#010101"/></svg>