<svg enable-background="new 0 0 400 400" viewBox="0 0 400 400" xmlns="http://www.w3.org/2000/svg"><g fill="#fcfafa"><path d="m342.2 3.2-6.3 9.2h6.1v1.2h-8.2v-.5l6.2-9.1h-5.7v-1.2h7.8v.4z"/><path d="m344 13.7v-10.9h3.1c1.6 0 3 .5 4.1 1.4 1.1 1 1.6 2.2 1.6 3.9s-.5 3-1.6 4-2.5 1.5-4.2 1.5h-3zm1.4-9.6v8.4h1.6c1.4 0 2.5-.4 3.2-1.1.8-.8 1.2-1.8 1.2-3.2s-.4-2.4-1.2-3.1-1.8-1-3.1-1z"/><path d="m356.3 2.8v10.9h-1.4v-10.9z"/><path d="m366.6 13.2c-.8.4-1.8.6-3 .6-1.6 0-2.8-.5-3.7-1.5s-1.4-2.3-1.4-3.9c0-1.7.5-3.2 1.6-4.2s2.4-1.6 4-1.6c1 0 1.9.1 2.6.4v1.5c-.8-.4-1.6-.6-2.6-.6-1.2 0-2.2.4-3 1.2s-1.1 1.9-1.1 3.3c0 1.3.4 2.3 1.1 3.1s1.6 1.1 2.8 1.1c1.1 0 2-.2 2.8-.7v1.3z"/><path d="m368.2 13c0-.3.1-.5.3-.6.2-.2.4-.3.6-.3.3 0 .5.1.7.3s.3.4.3.6-.1.5-.3.6c-.2.2-.4.3-.7.3s-.5-.1-.6-.3c-.2-.2-.3-.4-.3-.6z"/><path d="m381.1 13.7h-1.7l-5.5-8.4c-.2-.2-.3-.5-.4-.7 0 .2.1.8.1 1.5v7.6h-1.4v-10.9h1.8l5.3 8.3c.3.4.4.6.4.8 0-.3-.1-.8-.1-1.6v-7.5h1.4v10.9z"/><path d="m389.7 13.7h-5.8v-10.9h5.6v1.2h-4.2v3.5h3.9v1.2h-3.9v3.7h4.4z"/><path d="m398.4 4.1h-3.1v9.6h-1.4v-9.6h-3.1v-1.3h7.7v1.3z"/></g><path d="m189.91 176.03c-14.41-6.86-28.88-13.61-43.2-20.64-7.31-3.59-14.73-7.17-21.43-11.75-6.65-4.54-13.63-8.02-21.15-10.64-.95-.33-1.97-.59-2.78-1.15-10.55-7.2-18.71-16.3-21.49-29.12-1.08-4.97 3.47-9.67 8.05-9.21.82.08 1.8.39 2.38.93 11.04 10.53 24.91 16.01 38.64 21.74 11.99 5 23.79 10.32 33.94 18.71 2.28 1.89 5.09 3.34 7.88 4.39 7.24 2.7 13.56 6.77 19.33 11.85 3.26 2.87 7.13 4.52 12.03 4.85-.38-7.52-.6-14.87-1.14-22.19-1.95-26.26-8.44-51.59-16.57-76.48-2.42-7.42-6.53-14.41-14.68-17.81-4.29-1.79-5.4-3.57-7.32-8 3.19-2.03 6.42-4.17 9.77-6.11.56-.32 1.71.03 2.43.39 13.16 6.43 26.54 12.44 39.3 19.59 4.96 2.78 8.53 8.08 12.59 12.37.5.52.36 1.98.07 2.86-3.33 10.37-1.64 20.81-.52 31.24.12 1.09.43 2.21.87 3.22 3.41 7.73 4.46 15.77 4.05 24.19-.28 5.79.15 11.64.54 17.44.12 1.78.87 3.74 1.91 5.19 2.01 2.81 4 2.79 6.5.42 9.11-8.61 18.27-17.17 27.28-25.89 1.62-1.56 2.92-3.64 3.81-5.73 2.27-5.33 4.23-10.8 6.26-16.06 9.79.18 16.89 4.97 22.28 12.45 3.25 4.52 1.78 9.47.05 14.14-2.47 6.65-6.71 11.58-12.9 15.55-6.53 4.19-12.13 9.84-18.02 15-9 7.89-17.9 15.91-27.6 24.55 5.68 4.1 10.74 8.81 16.66 11.82 11.94 6.06 24.34 11.2 36.56 16.69 3.87 1.74 7.95 3.1 11.62 5.19 2.93 1.67 5.95 3.77 7.9 6.44 3.03 4.16.16 9.06-4.95 9.37-6.21.37-11.82-1.73-17.51-3.89-6.66-2.52-13.51-4.57-20.26-6.85-.83-.28-1.63-.67-2.38-1.12-9.92-6.07-20.66-10.06-31.9-12.85-.3-.08-.64-.01-1.34-.01-.65 7.01-1.62 13.99-1.89 20.99-1.1 28.62-2.18 57.25-2.88 85.88-.47 19.15-1.41 38.23-5.24 57.05-.47 2.29-1.08 4.57-1.86 6.77-.37 1.04-1.38 2.68-2 2.63-1.54-.11-3.69-.6-4.41-1.71-4.06-6.24-7.48-12.95-7.2-20.59.45-12.25-.46-24.36-1.97-36.48-2.24-17.86-.97-35.76-.34-53.65.59-16.68.8-33.34-1.67-49.92-.07-.44-.11-.89-.21-1.33-1.76-8.33-3.09-9.2-10.26-4.83-9.48 5.78-19.12 10.89-29.83 14.18-9.92 3.05-19.92 2.37-29.95 2.32-1.16-.01-3.19-1.87-3.27-2.98-.13-1.92-.43-4.24 2.51-5.46 17.27-7.19 32.83-17.23 47.29-29.03 2.76-2.26 5.38-4.69 8.06-7.04-.16-.62-.3-1.25-.44-1.88z" fill="#010103"/></svg>