<svg enable-background="new 0 0 400 400" viewBox="0 0 400 400" xmlns="http://www.w3.org/2000/svg"><path d="m187.64 374.3c-3.15-4.86-3.87-10.46-3.63-16 .39-9.16 1.45-18.28 2.17-27.42.2-2.55.29-5.12.33-7.68.11-6.69.16-13.38.26-20.07.05-3.59.17-7.18-2.72-10.45-1.6 2.05-3.12 3.92-4.56 5.85-7.5 10.04-14.83 20.21-23.97 28.9-1.23 1.17-1.93 2.96-2.66 4.57-2.58 5.73-5.83 9.83-10.13 12.56-.21-5.64 2.54-12.55 5.81-16.92 5.09-6.79 10.38-13.54 14.43-20.94 4.03-7.37 8.95-13.84 14.52-20 2.02-2.24 3.28-5.19 4.78-7.87 1.56-2.78 3.03-5.62 4.47-8.46.43-.84 1.08-1.89.9-2.68-1.39-5.97-.15-11.79.76-17.64.17-1.1.61-2.31.35-3.32-2.63-10.24 1.54-20.19 1.2-30.3-.36-10.48-1.15-20.95-1.76-31.42-.06-1-.33-2.01-.22-2.99 1.31-11.26-1.56-21.28-7.86-30.75-5.68-8.53-10.51-17.62-15.67-26.5-1.63-2.8-2.82-5.9-4.7-8.5-10.33-14.27-16.36-30.44-20.95-47.22-1.11-4.05-1.52-8.31-1.97-12.5-.35-3.31 1.8-5.01 4.82-6.22.55.83 1.08 1.51 1.49 2.26 3.49 6.37 6.96 12.76 10.44 19.14.48.88.8 2.08 1.55 2.55 4.24 2.62 4.47 6.8 4.87 11.09.12 1.33 1.27 2.62 2.1 3.83.87 1.26 2.11 2.29 2.86 3.6 5.37 9.42 10.62 18.9 16 28.32.97 1.7 2.33 3.17 3.51 4.74.3-.06.61-.11.91-.17.59-3.25 1.87-6.54 1.64-9.73-1.23-17.24 1.37-34.33 1.52-51.51.04-4.1.97-8.18 1.2-12.28.13-2.33-.39-4.7-.5-7.05-.05-1.25-.15-2.64.31-3.73 1.61-3.79 3.74-7.33 2.69-11.82-.3-1.28.77-2.88 1.22-4.36 6.58 2.6 9.45 8.39 8.23 16.04-.56 3.53-1.16 7.06-1.8 10.58-2.2 11.93-.43 23.9-.41 35.85.01 4.7-.04 9.4.13 14.09.24 6.58.94 13.15.93 19.72-.02 18.01-.4 36.02-.41 54.02 0 5.79.6 11.59 1.17 17.36.16 1.65 1.19 3.22 1.52 4.06 3.83-5.43 7.68-10.83 11.47-16.27 1.02-1.46 1.82-3.08 2.84-4.55 2.73-3.93 5.21-8.09 8.36-11.65 6.29-7.13 12.98-13.9 19.46-20.86 4.14-4.44 6.23-5.83 10.94-6.91 2.81 2.84 1.62 5.82-.21 8.39-3.38 4.73-6.78 9.51-10.75 13.72-6.98 7.4-13.93 14.58-18.93 23.72-4.04 7.38-10.43 13.44-14.95 20.61-3.83 6.09-6.73 12.82-9.57 19.46-2.3 5.39-1.85 11.09-.78 16.84.54 2.93-.15 6.1-.35 9.16-.08 1.32-.48 2.64-.46 3.95.15 8.5.32 17.01.64 25.51.06 1.48.66 3.02 1.33 4.37 8.39 17.19 20.21 32.16 30.93 47.85 2.77 4.06 5.28 8.3 7.78 12.53 1.65 2.8 2.29 5.81 1.07 9.01-1.02 2.67-2.82 3.43-4.83 1.48-5.13-4.97-10.3-9.95-14.92-15.39-3.68-4.32-6.71-9.23-9.77-14.04-3.06-4.79-5.78-9.79-8.69-14.67-1.3-2.19-2.71-4.31-4.07-6.46-.42-.01-.85-.02-1.27-.03-.52 2.32-1.87 4.81-1.42 6.93 2.38 11.2-.58 22.05-1.65 33-.82 8.35-1.96 16.67-3.25 24.95-.38 2.45-1.76 4.75-2.68 7.12-.49-.14-.96-.27-1.44-.4zm6.83-105.91c-2.28 3.53-4.44 5.89-1.91 9.25 2.26-1.03 4.91-1.59 4.45-4.65-.21-1.4-1.43-2.66-2.54-4.6z" fill="#010102"/><g fill="#fcfbfa"><path d="m385.2 377.6.6-.7c.6.4 1.3.9 1.9 1.5l-.6.7c-.8-.5-1.4-1-1.9-1.5zm.3 7.1c.6-1.4 1.1-2.9 1.5-4.5.3.1.6.3.9.4-.5 1.4-1 2.9-1.5 4.4zm.2-10.1.6-.6c.7.5 1.3 1.1 1.9 1.6l-.7.7c-.6-.6-1.2-1.2-1.8-1.7zm8.4-.8h.8v.9h1.8v.7h-1.8v1.8h-.8v-.3h-1.2v.9h3.3v2.6h-.8v-.4h-2.5c0 .3 0 .6-.1.8h3.4v.7h-3.5c0 .3-.1.6-.1.8h4v.7h-3.5c.7.9 1.9 1.3 3.6 1.5-.2.2-.4.5-.6.9-1.9-.3-3.2-1.1-3.8-2.3-.5 1.1-1.8 2-3.9 2.4-.2-.3-.4-.5-.6-.8 1.9-.4 3.1-.9 3.6-1.7h-3.2v-.7h3.5c.1-.2.1-.5.2-.8h-3.3v-.7h3.4c0-.2 0-.5 0-.8h-2.4v.3h-.8v-2.6h3.3v-.9h-1.2v.3h-.8v-1.8h-1.8v-.7h1.8v-.9h.8v.9h3.2zm-4.4 5.5h2.4c0-.3 0-.6 0-.9h-2.4zm1.2-3.1h3.2v-.8h-3.2zm4.4 2.2h-2.4v.9h2.5v-.9z"/><path d="m389.2 385.8h.9v1.5h1.9v-1.5h.9v1.5h2.7v6h1.1v.9h-11.3v-.9h1.1v-6h2.7zm.2 8.7.5.8c-1.2.6-2.5 1.3-4 1.9-.2-.3-.3-.6-.6-.8 1.6-.6 3-1.3 4.1-1.9zm-2-4.3h1.9v-2.1h-1.9zm0 3.1h1.9v-2.2h-1.9zm2.7-3.1h1.9v-2.1h-1.9zm0 3.1h1.9v-2.2h-1.9zm2.4 1.3c1.4.6 2.7 1.2 4.1 1.8l-.5.9c-1.5-.7-2.8-1.4-4.1-1.9zm2.2-6.5h-1.9v2.1h1.9zm-1.9 5.2h1.9v-2.2h-1.9z"/></g></svg>