<svg enable-background="new 0 0 400 400" viewBox="0 0 400 400" xmlns="http://www.w3.org/2000/svg"><path d="m181.87 174.04c2.96.54 6.14.57 8.82 1.74 5.93 2.59 12.03 5.17 17.21 8.93 3.18 2.3 5.48 6.52 6.9 10.35 1.96 5.27 3.3 10.92 3.88 16.52.94 9.11 1.04 18.31 1.51 27.47.05.98.21 1.95.39 3.51 8.47-3.43 17.81-3.5 24.86-9.8 1.33-1.19 2.85-2.17 4.27-3.26 6.7-5.1 8.84-9.93 6.03-17.96-2.49-7.11-6.74-13.58-9.57-20.59-4.52-11.19-13.32-18.88-21.2-27.37-3.03-3.26-6.09-6.48-9.28-9.86 3.85-2.39 7.66-3.89 11.72-2.47 5.65 1.98 11.46 3.89 16.58 6.9 10.88 6.41 21.39 13.46 31.97 20.38 1.25.82 2.34 2.35 2.81 3.78 1.95 5.9 1.44 11.9.19 17.89-1.18 5.68.62 6.99 6.29 5.47 12.11-3.23 23.65-23.55 17.96-36.63-4.35-10-8.83-19.85-15.25-28.61-3.13-4.27-7.54-7.61-11.39-11.35-4.27-4.14-6.95-8.95-6.62-16.11 5.3 1.11 10.51 1.7 15.38 3.31 15.62 5.15 28.61 14.03 36.18 29.02 2.6 5.14 3.47 11.22 4.7 16.96 1.2 5.59 3.95 7.34 8.65 4.03 6.1-4.3 11.68-9.35 17.52-14.03 5.3-4.24 11.19-7.34 17.98-9.02 2.41 3.34 3.04 6.98 1.25 10.68-1.74 3.61-3.66 7.18-5.95 10.46-4.8 6.88-10.25 13.33-14.78 20.37-6.58 10.21-16.06 17.34-25.04 25.03-7.53 6.44-14.47 13.75-24.31 16.91-.88.28-1.72 1.1-2.31 1.87-12.61 16.41-30.15 26.02-48.23 34.8-22.14 10.76-45.38 18.31-69.67 22.41-33.35 5.62-64.48-.89-93.55-17.88-1.04-.61-1.96-1.48-2.83-2.34-19.37-19.09-36.93-39.58-49.72-63.83-2.6-4.92-6.13-9.35-9.07-14.1-2.81-4.54-4.2-9.53-4.33-14.99 7.18-2.1 13.96-1.27 20.58 1.17 6.29 2.31 12.51 4.82 18.68 7.44 1.17.5 2.28 1.77 2.86 2.96 3.83 7.71 4.39 16.12 4.84 24.5.7 12.87 9.97 19.14 18.88 22.24.84.29 2.51-.55 3.23-1.37 8.61-9.74 13.46-21.25 15.6-33.98 1.52-9.04 3.55-18.03 4.35-27.13.44-4.94-1.07-10.09-1.96-15.09-.66-3.73-1.57-7.45-2.68-11.07-.87-2.85.45-3.96 2.83-3.8 2.96.2 6.1.49 8.79 1.61 5.87 2.46 11.53 5.42 17.2 8.32.99.51 1.85 1.61 2.36 2.63 5.13 10.2 6.29 20.65 1.69 31.37-4.47 10.41-8.18 21.03-9.79 32.32-.17 1.17-1.15 2.37-2.06 3.26-8.25 8.05-16.57 16.04-24.89 24.01-.8.76-1.78 1.33-2.91 2.17 7.58 7.23 15.6 12.41 24.79 15.54 22.35 7.61 44.55 7.65 66.33-2.17 1.62-.73 3.21-2.46 3.92-4.11 3.77-8.75 4-18.01 1.65-27-4.23-16.2-9.18-32.21-13.83-48.29-.28-.96-.6-1.91-.91-2.86.19-.41.34-.84.5-1.26z" fill="#010104"/><g fill="#fcfbfa"><path d="m385.2 377.6.6-.7c.6.4 1.3.9 1.9 1.5l-.6.7c-.8-.5-1.4-1-1.9-1.5zm.3 7.1c.6-1.4 1.1-2.9 1.5-4.5.3.1.6.3.9.4-.5 1.4-1 2.9-1.5 4.4zm.2-10.1.6-.6c.7.5 1.3 1.1 1.9 1.6l-.7.7c-.6-.6-1.2-1.2-1.8-1.7zm8.4-.8h.8v.9h1.8v.7h-1.8v1.8h-.8v-.3h-1.2v.9h3.3v2.6h-.8v-.4h-2.5c0 .3 0 .6-.1.8h3.4v.7h-3.5c0 .3-.1.6-.1.8h4v.7h-3.5c.7.9 1.9 1.3 3.6 1.5-.2.2-.4.5-.6.9-1.9-.3-3.2-1.1-3.8-2.3-.5 1.1-1.8 2-3.9 2.4-.2-.3-.4-.5-.6-.8 1.9-.4 3.1-.9 3.6-1.7h-3.2v-.7h3.5c.1-.2.1-.5.2-.8h-3.3v-.7h3.4c0-.2 0-.5 0-.8h-2.4v.3h-.8v-2.6h3.3v-.9h-1.2v.3h-.8v-1.8h-1.8v-.7h1.8v-.9h.8v.9h3.2zm-4.4 5.5h2.4c0-.3 0-.6 0-.9h-2.4zm1.2-3.1h3.2v-.8h-3.2zm4.4 2.2h-2.4v.9h2.5v-.9z"/><path d="m389.2 385.8h.9v1.5h1.9v-1.5h.9v1.5h2.7v6h1.1v.9h-11.3v-.9h1.1v-6h2.7zm.2 8.7.5.8c-1.2.6-2.5 1.3-4 1.9-.2-.3-.3-.6-.6-.8 1.6-.6 3-1.3 4.1-1.9zm-2-4.3h1.9v-2.1h-1.9zm0 3.1h1.9v-2.2h-1.9zm2.7-3.1h1.9v-2.1h-1.9zm0 3.1h1.9v-2.2h-1.9zm2.4 1.3c1.4.6 2.7 1.2 4.1 1.8l-.5.9c-1.5-.7-2.8-1.4-4.1-1.9zm2.2-6.5h-1.9v2.1h1.9zm-1.9 5.2h1.9v-2.2h-1.9z"/></g></svg>