<svg enable-background="new 0 0 400 400" viewBox="0 0 400 400" xmlns="http://www.w3.org/2000/svg"><path d="m22.42 213.29c5.24-1.19 10.05-.5 14.73 1.22 6.18 2.27 12.33 4.66 18.46 7.08 1 .4 1.93 1.1 2.75 1.82 3.3 2.89 7.26 3.32 11.35 2.96.71-.06 1.63-1.04 1.94-1.81 6.32-15.65 12.87-31.21 18.59-47.07 1.41-3.91.2-8.82-.06-13.25-.31-5.43 2.62-7.71 7.74-5.39 3.75 1.7 7.38 3.78 10.78 6.1 4.71 3.21 9.16 6.81 13.7 10.25 5.77 4.37 6.52 13.4 1.52 18.7-11.15 11.8-22.33 23.56-33.49 35.35-.83.87-1.62 1.78-2.51 2.76 7.09 6.02 15.33 8.19 23.98 9.3 1.22.16 2.45.2 3.68.31 6.04.55 10.65-.66 14.07-6.77 8.38-14.98 15.8-30.11 16.01-47.78.02-1.71.67-3.55 1.49-5.08 1.73-3.23 5.15-3.76 8.17-1.72 4.82 3.25 9.69 6.42 14.6 9.54 5.61 3.57 8.38 10.03 6.87 16.52-.21.92-.78 1.84-1.41 2.58-5.19 6.17-10.16 12.54-15.72 18.35-5.45 5.7-11.51 10.8-17.71 16.55 3.5 1.2 7.39 3.11 11.48 3.84 14.1 2.54 28.11 1.15 41.87-2.32 1.93-.48 3.91-3.1 4.72-5.17 1.72-4.42 3.35-9.07 3.81-13.74 1.3-13.04-1.12-25.86-3.5-38.63-.51-2.73-.94-5.48-1.41-8.25 13.57.52 25.77 12.05 26.61 25.39.49 7.8.37 15.63.6 23.45.04 1.21.32 2.45.72 3.6 1.06 3.08 3 3.93 5.99 2.61 4.81-2.12 9.62-4.23 14.36-6.49 7.82-3.73 13.12-16.95 9.66-25.25-5.53-13.29-10.01-27.07-17.82-39.34-.47-.74-.77-1.59-1.22-2.5 3.25-1.83 6.35-2.46 9.98-1.27 4.19 1.38 7.81 3.48 11.43 6.02 10.17 7.11 20.63 13.79 31.06 20.51 2.2 1.42 4.76 2.28 7.25 3.45 2.17-5.9 1.84-11.32.3-16.86-1.31-4.72-2.08-9.59-3.3-14.35-.36-1.41-1.21-2.85-2.22-3.92-5.91-6.26-12.08-12.28-17.83-18.68-2.34-2.61-3.83-5.98-5.76-9.1 2.95-2.66 5.53-3.97 9.47-2.43 15.16 5.91 30.05 12.2 42.56 23.01 1.92 1.66 2.86 3.41 2.88 6 .03 4.23.48 8.46.78 13 5.6-1.74 11.07-2.6 15.25-7.3 4.74-5.34 10.15-10.1 15.5-14.86 4.72-4.19 9.96-7.56 16.99-7.76.42 8.7-.23 16.95-4.31 24.78-4.19 8.06-10.78 13.97-17.19 20-27.73 26.14-56.8 50.67-89.16 70.97-17.75 11.13-36.84 19.09-57.61 22.93-10.39 1.92-20.52.19-30.73-.69-15.49-1.34-30.97-2.88-46.44-4.41-2.09-.21-4.22-.61-6.19-1.3-9.82-3.41-19.59-6.95-29.37-10.46-.94-.34-1.98-.6-2.76-1.18-12.52-9.36-26.97-14.81-41.29-20.58-9.32-3.75-17.38-9.25-22.4-18.33-.87-1.49-1.49-3.16-2.29-4.91z" fill="#010104"/><g fill="#fcfbfa"><path d="m385.2 377.6.6-.7c.6.4 1.3.9 1.9 1.5l-.6.7c-.8-.5-1.4-1-1.9-1.5zm.3 7.1c.6-1.4 1.1-2.9 1.5-4.5.3.1.6.3.9.4-.5 1.4-1 2.9-1.5 4.4zm.2-10.1.6-.6c.7.5 1.3 1.1 1.9 1.6l-.7.7c-.6-.6-1.2-1.2-1.8-1.7zm8.4-.8h.8v.9h1.8v.7h-1.8v1.8h-.8v-.3h-1.2v.9h3.3v2.6h-.8v-.4h-2.5c0 .3 0 .6-.1.8h3.4v.7h-3.5c0 .3-.1.6-.1.8h4v.7h-3.5c.7.9 1.9 1.3 3.6 1.5-.2.2-.4.5-.6.9-1.9-.3-3.2-1.1-3.8-2.3-.5 1.1-1.8 2-3.9 2.4-.2-.3-.4-.5-.6-.8 1.9-.4 3.1-.9 3.6-1.7h-3.2v-.7h3.5c.1-.2.1-.5.2-.8h-3.3v-.7h3.4c0-.2 0-.5 0-.8h-2.4v.3h-.8v-2.6h3.3v-.9h-1.2v.3h-.8v-1.8h-1.8v-.7h1.8v-.9h.8v.9h3.2zm-4.4 5.5h2.4c0-.3 0-.6 0-.9h-2.4zm1.2-3.1h3.2v-.8h-3.2zm4.4 2.2h-2.4v.9h2.5v-.9z"/><path d="m389.2 385.8h.9v1.5h1.9v-1.5h.9v1.5h2.7v6h1.1v.9h-11.3v-.9h1.1v-6h2.7zm.2 8.7.5.8c-1.2.6-2.5 1.3-4 1.9-.2-.3-.3-.6-.6-.8 1.6-.6 3-1.3 4.1-1.9zm-2-4.3h1.9v-2.1h-1.9zm0 3.1h1.9v-2.2h-1.9zm2.7-3.1h1.9v-2.1h-1.9zm0 3.1h1.9v-2.2h-1.9zm2.4 1.3c1.4.6 2.7 1.2 4.1 1.8l-.5.9c-1.5-.7-2.8-1.4-4.1-1.9zm2.2-6.5h-1.9v2.1h1.9zm-1.9 5.2h1.9v-2.2h-1.9z"/></g></svg>