<svg viewBox="0 0 400 400" xmlns="http://www.w3.org/2000/svg"><rect width="400" height="400" fill="white" /><g fill="#010103"><path d="m298.28 113.35c-35.19 0-69.96 0-105.71 0 0 8.62.09 17.43-.01 26.23-.45 39.5-.9 79.01-1.48 118.51-.21 14.09-.23 28.22-1.37 42.24-.67 8.27-3.38 16.37-5.17 24.55-2.91 13.32-5.78 26.65-8.78 39.95-.51 2.26-1.46 4.46-2.5 6.55-1.68 3.37-3.95 4.3-7.77 3.63-3.34-.58-4.21-3.3-4.43-5.91s.31-5.32.79-7.94c4.14-22.54 8.66-45.01 12.36-67.62 1.4-8.56.96-17.41 1.37-26.13 2.69-56.83 1.77-113.7 1.42-170.55-.05-8.38-.87-16.76-1.49-25.13-.83-11.14-.15-22.11 2.59-32.97.74-2.94 1.97-5.16 5.1-6.39 6.68 3.87 9.8 10.25 9.92 17.71.16 10.84-.58 21.68-.85 32.53-.12 5-.02 10.01-.02 15.22h105.3c.35-4.17 1-8.36 1.01-12.55.01-8.95-.58-17.9-.39-26.85.11-5.42.79-10.92 2.01-16.2 1.01-4.41 4.07-7.63 9-8.82 3.49 5.12 4.82 10.85 4.76 16.83-.22 21.93-.66 43.86-.94 65.79-.53 42.3-1.28 84.6-1.4 126.9-.07 25.23 3.35 50.18 8.21 74.94 3.4 17.33 6.36 34.75 9.4 52.15.18 1.05-.39 2.63-1.17 3.39-3.32 3.28-7.94 2.42-10.17-1.61-5.25-9.48-6.87-20.01-8.86-30.43-2.76-14.5-6.02-28.93-8.05-43.53-1.39-10.03-1.16-20.3-1.45-30.46-.76-27.41-1.75-54.82-1.97-82.23-.19-22.82.58-45.65.91-68.48.01-.85-.09-1.71-.17-3.32z"/><path d="m116.06 25.09c6.18.7 8.84 2.95 9.44 8.7.49 4.65.48 9.37.49 14.06.04 24.62.07 49.24-.05 73.86-.01 2.63.95 4.3 3.26 4.56 5.05.58 10.14.98 15.22.98 4.64 0 9.31-1.06 13.93-.85 4.47.2 7.05 3.37 8.38 7.59.58 1.84.12 2.83-1.55 3.77-5.9 3.34-12.28 3.73-18.84 3.61-6.66-.13-13.33-.03-20.16-.03v97.45c6.95.17 13.92.4 20.9.5 4.81.07 9.63-.24 14.43-.01 6.06.29 9.84 3.52 10.28 8.18.17 1.85-.12 3.42-2.15 3.92-3.97.98-7.97 2.64-11.94 2.6-20.69-.21-41.37-.87-62.06-1.38-8.5-.21-17-.43-25.49-.61-4.04-.09-7.09-4.52-5.47-8.22.34-.76 1.36-1.39 2.2-1.74 8.05-3.33 16.38-2.63 24.79-1.92 4.85.41 9.78-.04 14.67-.17 1.72-.05 2.46-.92 2.5-2.79.53-31.1 1.14-62.19 1.72-93.29.01-.44-.07-.89-.17-2.1-6.03-.13-12.11-.34-18.19-.38-3.24-.02-6.49.5-9.71.33-7.25-.4-10.86-3.9-11.97-11.43 6.21-3.17 12.83-3.62 19.72-3 4.77.43 9.58.42 14.37.39 2.9-.02 4.29-1.34 4.59-4.69 1.78-20.01 1.04-40.02.58-60.03-.26-11.24.29-22.38 4.25-33.07.6-1.65 1.36-3.24 2.03-4.79z"/><path d="m279.91 203.8c0 6.44-.35 11.06.07 15.61 1.08 11.78-1.15 22.88-6.33 33.41-1 2.03-2.35 4.11-4.05 5.55-10.16 8.6-22.04 10.11-34.72 7.94-16.53-2.83-23.59-13.62-26.83-30.16-2.89-14.76-2.72-29.67-.98-44.47 1.39-11.84 3.72-23.59 6.12-35.28.7-3.41 2.43-7.13 4.85-9.56 4.85-4.88 10.89-8.61 17.96-8.95 6.67-.32 13.47-.06 20.07.92 11.2 1.67 19.63 11.36 21.92 23 2.86 14.56 1.51 29.22 1.92 41.99zm-12.32-7.27c-.04-7.55-.56-17.66-3.15-27.62-1.58-6.09-4.09-11.03-11.02-12.13-.43-.07-.89-.22-1.26-.44-7.15-4.22-14.14-4.12-21.36.11-2.1 1.23-3.4 2.37-4.06 4.72-4.52 16.17-6.24 32.72-6.44 49.42-.14 12.16 1.48 24.11 7.19 35.13.58 1.13 1.38 2.53 2.43 2.96 7.62 3.15 15.44 4.49 23.53 1.81 4.82-1.6 7.95-4.35 9.3-9.76 3.42-13.67 4.42-27.55 4.84-44.2z"/></g><path d="m385.2 377.6.6-.7c.6.4 1.3.9 1.9 1.5l-.6.7c-.8-.5-1.4-1-1.9-1.5zm.3 7.1c.6-1.4 1.1-2.9 1.5-4.5.3.1.6.3.9.4-.5 1.4-1 2.9-1.5 4.4zm.2-10.1.6-.6c.7.5 1.3 1.1 1.9 1.6l-.7.7c-.6-.6-1.2-1.2-1.8-1.7zm8.4-.8h.8v.9h1.8v.7h-1.8v1.8h-.8v-.3h-1.2v.9h3.3v2.6h-.8v-.4h-2.5c0 .3 0 .6-.1.8h3.4v.7h-3.5c0 .3-.1.6-.1.8h4v.7h-3.5c.7.9 1.9 1.3 3.6 1.5-.2.2-.4.5-.6.9-1.9-.3-3.2-1.1-3.8-2.3-.5 1.1-1.8 2-3.9 2.4-.2-.3-.4-.5-.6-.8 1.9-.4 3.1-.9 3.6-1.7h-3.2v-.7h3.5c.1-.2.1-.5.2-.8h-3.3v-.7h3.4c0-.2 0-.5 0-.8h-2.4v.3h-.8v-2.6h3.3v-.9h-1.2v.3h-.8v-1.8h-1.8v-.7h1.8v-.9h.8v.9h3.2zm-4.4 5.5h2.4c0-.3 0-.6 0-.9h-2.4zm1.2-3.1h3.2v-.8h-3.2zm4.4 2.2h-2.4v.9h2.5v-.9z" fill="#fcfbfa"/><path d="m389.2 385.8h.9v1.5h1.9v-1.5h.9v1.5h2.7v6h1.1v.9h-11.3v-.9h1.1v-6h2.7zm.2 8.7.5.8c-1.2.6-2.5 1.3-4 1.9-.2-.3-.3-.6-.6-.8 1.6-.6 3-1.3 4.1-1.9zm-2-4.3h1.9v-2.1h-1.9zm0 3.1h1.9v-2.2h-1.9zm2.7-3.1h1.9v-2.1h-1.9zm0 3.1h1.9v-2.2h-1.9zm2.4 1.3c1.4.6 2.7 1.2 4.1 1.8l-.5.9c-1.5-.7-2.8-1.4-4.1-1.9zm2.2-6.5h-1.9v2.1h1.9zm-1.9 5.2h1.9v-2.2h-1.9z" fill="#fcfbfa"/></svg>