<svg enable-background="new 0 0 400 400" viewBox="0 0 400 400" xmlns="http://www.w3.org/2000/svg"><path d="m198.83 374.85c-3.74-5.76-3.85-12.4-4.82-18.73-1.39-9.05-2.67-18.15-3.3-27.28-.42-6.1.63-12.28.53-18.42-.06-3.56-1.1-7.1-1.69-10.65-.36-.01-.72-.02-1.08-.03-.53.64-1.11 1.25-1.58 1.94-7.58 11.08-15.16 22.16-22.69 33.28-1.81 2.68-3.29 5.59-5.16 8.23-2.63 3.71-4.67 4.27-9.64 2.98.58-2.35.71-4.95 1.82-7.02 5.72-10.62 11-21.58 17.8-31.49 4.99-7.26 9.07-15.03 14.13-22.2.58-.82.97-1.99 1.76-2.41 3.88-2.08 3.65-5.56 3.68-9.19.04-5.35.47-10.71.74-16.06.03-.55.26-1.16.1-1.65-3.79-11.8-.94-24.1-2.79-36.05-1.57-10.15-3.12-20.3-4.32-30.5-.42-3.57.28-7.26.4-10.89.03-.92-.13-1.86-.37-2.75-.83-3.21-2.44-6.39-2.46-9.59-.05-9.74-2.73-18.87-6.36-27.61-7.15-17.23-15.02-34.16-22.43-51.28-1.9-4.39-3.3-9.02-4.75-13.59-.43-1.34-.43-2.89-.31-4.31.1-1.14.46-3 1.1-3.18 1.04-.3 2.75.13 3.56.91 2.61 2.52 5.71 4.95 7.25 8.09 6.27 12.84 11.99 25.95 17.99 38.93 1.55 3.36 3.37 6.59 5.06 9.88.54 0 1.09 0 1.63.01 2.16-3.82 4.67-7.48 6.41-11.48 7.89-18.13 15.53-36.36 23.33-54.53 2.29-5.33 5.17-10.43 7.12-15.87 1.91-5.33 2.97-10.97 4.42-16.53 3.42-.13 6.15 1.46 7.45 4.59.42 1.02.79 2.13.87 3.22.9 11.6 4.58 22.53 8.18 33.44 2.69 8.15 4.32 16.35 4.4 24.94.05 5.01.89 10.02 1.19 15.04.07 1.11-.66 2.27-1.57 3.36-4.89-10.89-10.49-21.2-12.93-32.78-1.15-5.44-2.66-10.82-4.25-16.16-.62-2.06-1.92-3.92-2.9-5.87-.43-.06-.85-.12-1.28-.18-1.91 3.92-4.24 7.7-5.62 11.8-2.41 7.15-5.74 13.77-9.45 20.31-2.52 4.43-3.89 9.49-6.09 14.12-3.3 6.94-6.84 13.76-10.34 20.6-1.32 2.58-2.96 5.01-4.2 7.63-1.58 3.32-1.84 6.74-.83 10.43 5.53 20.25 9.07 40.8 9.11 61.88.01 3.22.88 6.42 1.12 9.65.19 2.54-.04 5.1.02 7.65.02.89.37 1.77.58 2.66.77-.5 1.86-.82 2.25-1.53 1.11-2.04 2.21-4.15 2.83-6.37 3.38-12.02 8.27-23.34 15.32-33.68.43-.64 1.12-1.4 1.05-2.03-.46-4.48 2.54-7.48 4.52-10.9 4.31-7.45 8.6-14.92 13.09-22.27 1.34-2.18 3.31-3.97 5-5.94.5.24 1.01.48 1.51.73-.43 1.78-.7 3.6-1.32 5.31-.67 1.87-2.31 3.59-2.41 5.43-.72 13.61-8.18 25-12.25 37.49-2.83 8.7-6.72 17.38-11.82 24.92-5.61 8.29-8.54 17.51-12.63 26.34-3.52 7.59-2.87 14.47.72 21.82 3.71 7.59 9.62 13.42 14.5 20.06 9.73 13.24 20.88 25.45 28.81 39.99.42.77.83 1.54 1.25 2.31-.13.32-.27.65-.4.97-1.35-.43-2.84-.62-4.02-1.34-14.6-8.91-25.6-21.47-35.52-35.13-1.54-2.12-3.77-3.74-5.69-5.59-.42.21-.85.43-1.27.64-.11 1.47-.37 2.94-.3 4.41.35 7.9.8 15.8 1.17 23.7.61 12.8 1.29 25.59 1.73 38.4.19 5.58-.01 11.19-.25 16.78-.14 3.25-1.17 6.29-4.41 8.19z" fill="#010102"/><g fill="#fcfbfa"><path d="m385.2 377.6.6-.7c.6.4 1.3.9 1.9 1.5l-.6.7c-.8-.5-1.4-1-1.9-1.5zm.3 7.1c.6-1.4 1.1-2.9 1.5-4.5.3.1.6.3.9.4-.5 1.4-1 2.9-1.5 4.4zm.2-10.1.6-.6c.7.5 1.3 1.1 1.9 1.6l-.7.7c-.6-.6-1.2-1.2-1.8-1.7zm8.4-.8h.8v.9h1.8v.7h-1.8v1.8h-.8v-.3h-1.2v.9h3.3v2.6h-.8v-.4h-2.5c0 .3 0 .6-.1.8h3.4v.7h-3.5c0 .3-.1.6-.1.8h4v.7h-3.5c.7.9 1.9 1.3 3.6 1.5-.2.2-.4.5-.6.9-1.9-.3-3.2-1.1-3.8-2.3-.5 1.1-1.8 2-3.9 2.4-.2-.3-.4-.5-.6-.8 1.9-.4 3.1-.9 3.6-1.7h-3.2v-.7h3.5c.1-.2.1-.5.2-.8h-3.3v-.7h3.4c0-.2 0-.5 0-.8h-2.4v.3h-.8v-2.6h3.3v-.9h-1.2v.3h-.8v-1.8h-1.8v-.7h1.8v-.9h.8v.9h3.2zm-4.4 5.5h2.4c0-.3 0-.6 0-.9h-2.4zm1.2-3.1h3.2v-.8h-3.2zm4.4 2.2h-2.4v.9h2.5v-.9z"/><path d="m389.2 385.8h.9v1.5h1.9v-1.5h.9v1.5h2.7v6h1.1v.9h-11.3v-.9h1.1v-6h2.7zm.2 8.7.5.8c-1.2.6-2.5 1.3-4 1.9-.2-.3-.3-.6-.6-.8 1.6-.6 3-1.3 4.1-1.9zm-2-4.3h1.9v-2.1h-1.9zm0 3.1h1.9v-2.2h-1.9zm2.7-3.1h1.9v-2.1h-1.9zm0 3.1h1.9v-2.2h-1.9zm2.4 1.3c1.4.6 2.7 1.2 4.1 1.8l-.5.9c-1.5-.7-2.8-1.4-4.1-1.9zm2.2-6.5h-1.9v2.1h1.9zm-1.9 5.2h1.9v-2.2h-1.9z"/></g></svg>