<svg enable-background="new 0 0 400 400" viewBox="0 0 400 400" xmlns="http://www.w3.org/2000/svg"><path d="m178.46 264.89c-2.07-3.52-1-5.59 1.64-7.78 16.1-13.37 32.05-26.91 48.08-40.36.92-.77 2.08-1.29 3.2-1.78 5.52-2.45 11-4.99 16.61-7.19 2.52-.99 3.81-2.56 4.24-5.05 2.37-13.76 2.65-27.6 1.35-41.46-.1-1.05-1.51-2.38-2.62-2.85-5.64-2.42-11.32-4.8-17.12-6.83-12.67-4.44-21.09-13.57-26.29-25.31-2.97-6.7-4.09-14.33-5.37-21.65-1.79-10.24-2.82-20.61-4.48-30.88-.43-2.68.26-4.52 2.58-4.74 1.58-.15 4.02.93 4.88 2.25 3.72 5.71 5.35 12.2 6.19 18.94 1 7.98 2.12 15.94 3.37 23.89.69 4.38 3.12 7.96 6.53 10.65 5.97 4.7 12 9.37 18.3 13.59 2.59 1.73 5.9 2.52 8.99 3.3 2.24.57 3.68-.37 3.83-3.17.85-15.7.48-31.39-2.34-46.82-1.11-6.09-4.52-11.83-7.3-17.53-1.59-3.25-3.75-6.32-6.14-9.05-5.09-5.8-10.79-11.09-15.68-17.05-4.11-5.01-9.35-7.5-15.32-8.84-12.59-2.83-25.32-2.61-38.05-1.14-1.2.14-2.47 1-3.39 1.86-4.75 4.42-9.44 8.91-14.07 13.47-3.32 3.27-7.48 4.66-11.68 3.41-8.1-2.41-14.48-.35-21.53 4.15-9.33 5.95-15.17 14.28-20.65 23.29-3.43 5.63-6.69 11.39-10.61 16.66-2.46 3.31-5.98 5.81-9.53 9.15-1.2-4.31-.22-7.28 1.1-10.24 1.86-4.17 3.61-8.39 5.44-12.57.35-.81.82-1.58 1.34-2.29 8.66-11.67 17.42-23.27 26-35 6.55-8.96 14.03-16.87 23.82-22.28 2.03-1.12 4.71-2.23 6.82-1.84 11.76 2.18 23.62 1.6 35.45 2.04 12.19.45 24.42 1.3 36.11 5.02 15.66 4.99 26.55 16.11 35.52 29.36 8.71 12.87 11.53 27.66 14.1 42.61 1.67 9.73.94 19.4.72 29.11-.04 1.55 0 3.11 0 5.13 3.98 0 7.86.12 11.73-.09.89-.05 1.87-1.06 2.56-1.85 7.98-9.09 11.81-20.07 13-31.78 1.12-10.98 1.02-22.08 1.52-33.13.11-2.54 0-5.25.87-7.55.55-1.45 2.62-2.51 4.24-3.21.33-.14 2.04 1.94 2.52 3.22 3.66 9.79 3.71 19.92 2.49 30.12-1.68 14.04-4.66 27.76-10.16 40.86-2.13 5.08-5 9.31-9.93 12.19-4.33 2.53-8.32 5.66-12.43 8.56-3.74 2.64-5.35 6.05-4.26 10.73.6 2.59.84 5.31.87 7.97.1 10.07-.03 20.15.13 30.22.02 1.2 1.05 3.01 2.09 3.47 7.55 3.38 14.33 7.91 20.21 13.63 9.22 8.97 18.27 18.13 27.17 27.43 1.75 1.82 2.8 4.53 3.53 7.01.38 1.29-.62 4.28-1.05 4.29-2.35.06-4.79 1.25-7.06-1.27-8.24-9.12-16.55-18.19-25.27-26.84-4.9-4.86-10.69-8.81-17.94-10.38-2.76 4.6-3.81 9.52-3.36 14.78.66 7.69 1.45 15.36-1.24 22.89-.34.95-.1 2.22.17 3.26 1.68 6.57 1.83 13.19 1.45 19.94-1.46 26.36-2.72 52.74-4.01 79.11-.32 6.6-2.45 10.28-6.91 11.92-1.87.69-3.18.33-3.5-1.62-.43-2.61-1.36-5.54-.64-7.88 3.51-11.41 3.03-23.07 2.19-34.63-.92-12.74.3-25.19 2.41-37.69 2.14-12.64 2.17-25.29.81-38.11-.77-7.22.94-14.69 1.19-22.06.11-3.3-.43-6.66-1.04-9.93-.53-2.81-2.48-3.89-5.23-2.68-4.19 1.85-8.39 3.69-12.47 5.75-5.19 2.61-10.31 5.38-15.38 8.22-1.93 1.08-3.67 2.49-5.44 3.83-10.52 7.94-21 15.95-31.58 23.82-1.85 1.36-4.11 2.17-6.29 3.3z" fill="#010106"/><g fill="#fcfbfa"><path d="m385.2 377.6.6-.7c.6.4 1.3.9 1.9 1.5l-.6.7c-.8-.5-1.4-1-1.9-1.5zm.3 7.1c.6-1.4 1.1-2.9 1.5-4.5.3.1.6.3.9.4-.5 1.4-1 2.9-1.5 4.4zm.2-10.1.6-.6c.7.5 1.3 1.1 1.9 1.6l-.7.7c-.6-.6-1.2-1.2-1.8-1.7zm8.4-.8h.8v.9h1.8v.7h-1.8v1.8h-.8v-.3h-1.2v.9h3.3v2.6h-.8v-.4h-2.5c0 .3 0 .6-.1.8h3.4v.7h-3.5c0 .3-.1.6-.1.8h4v.7h-3.5c.7.9 1.9 1.3 3.6 1.5-.2.2-.4.5-.6.9-1.9-.3-3.2-1.1-3.8-2.3-.5 1.1-1.8 2-3.9 2.4-.2-.3-.4-.5-.6-.8 1.9-.4 3.1-.9 3.6-1.7h-3.2v-.7h3.5c.1-.2.1-.5.2-.8h-3.3v-.7h3.4c0-.2 0-.5 0-.8h-2.4v.3h-.8v-2.6h3.3v-.9h-1.2v.3h-.8v-1.8h-1.8v-.7h1.8v-.9h.8v.9h3.2zm-4.4 5.5h2.4c0-.3 0-.6 0-.9h-2.4zm1.2-3.1h3.2v-.8h-3.2zm4.4 2.2h-2.4v.9h2.5v-.9z"/><path d="m389.2 385.8h.9v1.5h1.9v-1.5h.9v1.5h2.7v6h1.1v.9h-11.3v-.9h1.1v-6h2.7zm.2 8.7.5.8c-1.2.6-2.5 1.3-4 1.9-.2-.3-.3-.6-.6-.8 1.6-.6 3-1.3 4.1-1.9zm-2-4.3h1.9v-2.1h-1.9zm0 3.1h1.9v-2.2h-1.9zm2.7-3.1h1.9v-2.1h-1.9zm0 3.1h1.9v-2.2h-1.9zm2.4 1.3c1.4.6 2.7 1.2 4.1 1.8l-.5.9c-1.5-.7-2.8-1.4-4.1-1.9zm2.2-6.5h-1.9v2.1h1.9zm-1.9 5.2h1.9v-2.2h-1.9z"/></g></svg>