<svg enable-background="new 0 0 400 400" viewBox="0 0 400 400" xmlns="http://www.w3.org/2000/svg"><path d="m361.2 9.6.8-1c.9.7 1.9 1.4 2.9 2.3l-.9 1.1c-1-1-2-1.8-2.8-2.4zm.5 10.6c.9-2.1 1.6-4.3 2.3-6.7.4.2.8.4 1.3.6-.7 2.1-1.5 4.3-2.2 6.6zm.4-15.2.9-.9c1 .8 2 1.6 2.8 2.4l-1 1c-.9-.9-1.8-1.7-2.7-2.5zm12.5-1.2h1.2v1.4h2.7v1.1h-2.7v2.7h-1.2v-.6h-1.8v1.3h4.9v3.8h-1.2v-.5h-3.7c0 .4-.1.9-.1 1.2h5.1v1h-5.2c0 .5-.1.9-.2 1.2h6v1h-5.2c1.1 1.3 2.9 2 5.5 2.2-.4.4-.7.8-.9 1.3-2.9-.5-4.8-1.6-5.7-3.5h-.1c-.8 1.7-2.7 2.9-5.9 3.6-.2-.4-.6-.8-.9-1.1 2.8-.6 4.6-1.4 5.4-2.5h-4.8v-1h5.3c.1-.3.2-.7.2-1.2h-4.9v-1h5c0-.4 0-.8.1-1.2h-3.5v.5h-1.2v-3.8h4.9v-1.3h-1.8v.5h-1.2v-2.7h-2.7v-1h2.6v-1.4h1.2v1.4h4.7v-1.4zm-6.6 8.3h3.6c0-.4 0-.9 0-1.4h-3.6zm1.9-4.6h4.7v-1.3h-4.7zm6.6 3.2h-3.7v1.4h3.7z" fill="#fbfcfa"/><path d="m385.3 3.8h1.3v2.2h2.8v-2.2h1.3v2.2h4.1v9.1h1.7v1.3h-16.9v-1.3h1.7v-9.1h4.1v-2.2zm.4 13.1.7 1.2c-1.8.9-3.8 1.9-6 2.9-.2-.4-.5-.8-.8-1.3 2.3-1 4.3-1.9 6.1-2.8zm-3.1-6.4h2.8v-3.2h-2.8zm0 4.6h2.8v-3.3h-2.8zm4-4.6h2.8v-3.2h-2.8zm0 4.6h2.8v-3.3h-2.8zm3.7 1.9c2.1.9 4.1 1.8 6.1 2.7l-.7 1.3c-2.2-1.1-4.2-2-6.1-2.9zm3.2-9.7h-2.8v3.2h2.8zm-2.8 7.8h2.8v-3.3h-2.8z" fill="#fbfcfa"/><path d="m196.71 365.37c-2.03-6.35-2.41-12.76-1.23-19.01 2.78-14.71 1.75-29.4.85-44.15-1.15-18.99-1.87-38.01-3.31-56.97-.61-8.08-2.28-16.13-4.03-24.07-.94-4.28-3.62-7.87-7.88-10.45-1.85 2.31-3.83 4.43-5.42 6.82-6.39 9.57-12.74 19.17-18.94 28.86-1.73 2.71-2.93 5.69-2.1 9.21.26 1.13-.68 2.62-1.26 3.86-1.21 2.59-3.13 4.98-3.74 7.69-3.7 16.44-7.74 32.85-10.37 49.47-1.29 8.13.39 16.71.36 25.08-.03 8.93-.45 17.86-.82 26.79-.06 1.41-.58 2.87-1.19 4.16-1.33 2.84-3.73 3.3-6.68 2.38-6.31-1.98-9.16-6.95-10.1-12.64-2.59-15.65-5.17-31.34-6.63-47.12-1.56-16.81 3.28-32.79 8.85-48.47.9-2.53 1.84-5.04 2.76-7.55 2.42-6.61 5.41-12.81 9.56-18.66 6.99-9.86 10.62-21.28 13.29-33.33-1.95-.43-3.56-.83-5.18-1.13-14.68-2.69-26.71-11.09-39.25-18.34-5.9-3.41-10.76-8.12-14.15-14.04-2.24-3.91-3.86-8.18-5.84-12.46 10.91-5.54 21.72-6.93 32.56-3.63 17.33 5.26 35.2 7.35 52.92 10.39 5.73.98 10.64-.01 13.88-4.94-4.98-9.04-9.65-17.95-14.76-26.59-2.07-3.5-5-6.54-7.77-9.58-1.61-1.77-3.62-1.91-6.07-.98-11.07 4.2-22.21 8.25-33.4 12.12-3.45 1.19-7.12 2.04-10.75 2.34-4.44.37-6.45-2.29-5.41-6.59 1.28-5.26 3.44-9.17 9.5-11.15 15.87-5.17 28.92-15.35 41.9-25.51 7.83-6.13 15.88-11.99 23.64-18.21 3.11-2.48 6.18-5.26 8.46-8.47 6.55-9.24 5.53-21.21-2-30.02-3.18-3.72-6.02-7.58-4.02-13.01.69-1.87 1.43-2.62 3.6-2.29 9.17 1.42 18.38 2.57 27.56 3.99 1.4.22 2.98 1.06 3.94 2.1 4.11 4.43 8.06 9.01 11.99 13.6 2.77 3.23 4.36 6.96 4.5 11.29.23 6.6.67 13.19.82 19.79.03 1.28-.61 2.83-1.44 3.83-3.51 4.21-7.56 8.01-10.75 12.45-4.47 6.21-10.85 8.92-17.62 11.42-7.73 2.84-15.37 5.96-22.95 9.17-2.01.85-3.69 2.48-5.74 3.91.68.82 1.17 1.53 1.77 2.13 10.68 10.7 21.38 21.36 32.02 32.09 1.41 1.43 2.59 1.69 4.67 1.27 18.02-3.64 31.05-14.69 42.33-28.29 3.18-3.84 4.77-8.51 4.99-13.62.27-6.15.94-12.28 1.17-18.42.07-1.75-.28-3.97-1.33-5.23-2.72-3.24-.5-5.53 1.05-8.48 5.31 1.77 10.61 3.74 16.04 5.28 3.95 1.12 6.85 3.26 9.4 6.45 5.86 7.34 12.08 14.41 18 21.71.96 1.18 1.61 2.94 1.69 4.47.34 6.7.29 13.43.66 20.13.13 2.38-.72 3.62-2.61 4.82-15.82 10.13-31.59 20.34-47.69 30.74 2.21 1.91 4.32 3.64 6.34 5.47 13.84 12.55 22.28 28.4 27.66 46 5.4 17.69 8.24 35.71 6.46 54.29-1.01 10.56-3.6 20.71-7.74 30.43-4.55 10.69-8.7 21.67-14.44 31.71-5.23 9.16-12.73 16.85-22.92 22.54 2.24-9.99 4.2-19.24 6.4-28.44 5.17-21.66 8.09-43.58 6.9-65.85-.9-16.72-3.6-33.23-11.43-48.26-3.05-5.86-7.42-11.2-11.97-16.05-5.59-5.96-12.94-8.22-21.13-6.73-1.06.19-2.37 1.19-2.81 2.16-3.16 6.87-3.97 14.15-3.24 21.62 1.11 11.35 2.79 22.68 3.25 34.06.95 24.02-.44 47.89-7.75 71.02-2.11 6.69-5.19 13.06-7.46 19.7-1.22 3.57-1.54 7.44-2.51 11.11-.98 3.45-2.37 6.73-5.91 8.81z" fill="#010105"/></svg>