<svg enable-background="new 0 0 400 400" viewBox="0 0 400 400" xmlns="http://www.w3.org/2000/svg"><path d="m143.94 276.65c-2.96 3.39-3.96 7.07-3.45 11.13.82 6.53.98 12.9-2.51 18.88-.6 1.03-.76 2.7-.39 3.85 2.43 7.59.8 15.05-.39 22.54-.61 3.87-1.3 7.72-1.75 11.61-.49 4.18-1.31 8.1-4.74 11.05-.79.68-1.2 2.11-1.31 3.24-.26 2.78-.25 5.59-.32 8.38-.13 4.83-1.12 6.13-6.03 7.68-2.2-2.6-3.17-5.87-2.27-8.97 2.43-8.38.63-16.71.32-25.04-.45-12.08-1.62-24.13-1.91-36.21-.12-5.08 1.22-10.19 1.87-15.29.56-4.34-1.17-6.97-5.04-7.01-1.43-.02-3.25.82-4.24 1.88-7.5 8-14.77 16.22-22.25 24.24-5.92 6.36-12.55 11.81-20.88 14.81-.92.33-1.88.53-2.94.82-1.52-3.26-1.2-5.78 1.11-8.6 18.14-22.15 36.03-44.52 54.23-66.63 4.6-5.59 7.4-11.64 8-18.77.87-10.3 1.11-20.6-1.71-30.66-.79-2.82-2.08-5.84-4.03-7.93-16.4-17.65-25.89-38.64-30.83-61.96-.85-4.02-2.34-7.9-3.35-11.89-.63-2.52-.92-5.13-1.38-7.83 3.85-.28 5.7 1.15 7.28 3.88 9.7 16.74 19.54 33.39 29.42 50.02 2.25 3.78 5.13 7.03 9.83 8.95.38-3.81.88-7.32 1.06-10.85.65-12.9 2.8-25.45 6.65-37.85 1.79-5.75 1.63-12.13 2.16-18.25 1.61-18.5 2.94-37.03 4.77-55.52.96-9.67 5.84-17.68 12.24-24.87 3.37 1.37 3.9 4.44 5.13 7.16 1.16 2.55 2.96 4.81 4.66 7.49-4.76 8.26-5.68 18.18-6.74 28.07-2.57 24.12-3.08 48.44-7.5 72.39-1.59 8.63-1.83 17.5-2.68 26.27l1.11.75c1.55-1.21 3.32-2.22 4.61-3.66 8.82-9.8 17.43-19.8 26.37-29.5 2.83-3.06 6.42-5.46 11.79-6.25-1.91 5.04-2.92 9.86-5.37 13.78-8.37 13.37-17.01 26.57-26.03 39.51-4.4 6.31-9.93 11.81-14.75 17.84-1.16 1.45-2.01 3.48-2.19 5.32-1.26 12.47-2.65 24.94-3.26 37.45-.31 6.41 2 12.32 7.2 16.83 14.9 12.95 26.93 28.35 37.71 44.8 2.51 3.83 5.31 7.5 7.58 11.47 1.66 2.92 2.68 6.2 4.06 9.52-3.39 1.15-5.47.68-7.58-1.06-8.63-7.12-17.38-14.1-26.06-21.16-1.03-.84-2.31-1.69-2.77-2.83-2.91-7.05-8.67-11.5-14.29-16.1-2.68-2.18-5.3-4.45-8.22-6.92z" fill="#010102"/><path d="m196.36 29.57c4.42 3.34 8.86 6.67 13.26 10.04 20.59 15.79 36.44 35.88 51.5 56.7 9.7 13.41 19.7 26.6 29.23 40.12 2.73 3.87 4.23 8.59 6.39 12.87 1.45 2.89 2.73 5.95 4.66 8.49 15.59 20.42 24.64 43.38 27.62 68.88.48 4.13.02 7.79-.92 11.77-3.09 13.01-11.07 23.58-16.97 35.17-1.17 2.3-3.69 4.25-6.03 5.57-4.41 2.49-6.14 1.37-8.98-2.7-2.84-4.09-6.15-7.98-9.84-11.31-10.1-9.12-18.51-19.43-23.98-31.96-7.05-16.15-10.98-32.85-8.53-50.6.22-1.63.83-3.24 1.49-4.77 4.62-10.66 9.37-21.27 13.91-31.97.68-1.61.8-3.62.66-5.4-.6-7.87-3.73-14.68-8.24-21.19-7.56-10.93-14.33-22.41-21.91-33.32-3.55-5.11-8.29-9.38-12.35-14.15-3.89-4.58-7.5-9.41-11.42-13.96-1.72-2-3.88-3.63-5.91-5.34-4.68-3.95-10.19-7.19-12.53-13.23-1.12-2.9-1.46-6.11-2.15-9.17.36-.18.7-.36 1.04-.54zm87.99 137.62c-9.98 9.48-14.78 20.33-13.82 33.13 1.53 20.39 10.38 37.72 23.69 52.92 1.76 2.01 5.65.86 6.72-1.81 3.98-9.92 6.56-20.22 7.69-30.83.98-9.2.03-18.46-4.85-26.33-5.8-9.37-12.82-17.99-19.43-27.08z" fill="#010102"/><g fill="#fcfbfa"><path d="m385.2 377.6.6-.7c.6.4 1.3.9 1.9 1.5l-.6.7c-.8-.5-1.4-1-1.9-1.5zm.3 7.1c.6-1.4 1.1-2.9 1.5-4.5.3.1.6.3.9.4-.5 1.4-1 2.9-1.5 4.4zm.2-10.1.6-.6c.7.5 1.3 1.1 1.9 1.6l-.7.7c-.6-.6-1.2-1.2-1.8-1.7zm8.4-.8h.8v.9h1.8v.7h-1.8v1.8h-.8v-.3h-1.2v.9h3.3v2.6h-.8v-.4h-2.5c0 .3 0 .6-.1.8h3.4v.7h-3.5c0 .3-.1.6-.1.8h4v.7h-3.5c.7.9 1.9 1.3 3.6 1.5-.2.2-.4.5-.6.9-1.9-.3-3.2-1.1-3.8-2.3-.5 1.1-1.8 2-3.9 2.4-.2-.3-.4-.5-.6-.8 1.9-.4 3.1-.9 3.6-1.7h-3.2v-.7h3.5c.1-.2.1-.5.2-.8h-3.3v-.7h3.4c0-.2 0-.5 0-.8h-2.4v.3h-.8v-2.6h3.3v-.9h-1.2v.3h-.8v-1.8h-1.8v-.7h1.8v-.9h.8v.9h3.2zm-4.4 5.5h2.4c0-.3 0-.6 0-.9h-2.4zm1.2-3.1h3.2v-.8h-3.2zm4.4 2.2h-2.4v.9h2.5v-.9z"/><path d="m389.2 385.8h.9v1.5h1.9v-1.5h.9v1.5h2.7v6h1.1v.9h-11.3v-.9h1.1v-6h2.7zm.2 8.7.5.8c-1.2.6-2.5 1.3-4 1.9-.2-.3-.3-.6-.6-.8 1.6-.6 3-1.3 4.1-1.9zm-2-4.3h1.9v-2.1h-1.9zm0 3.1h1.9v-2.2h-1.9zm2.7-3.1h1.9v-2.1h-1.9zm0 3.1h1.9v-2.2h-1.9zm2.4 1.3c1.4.6 2.7 1.2 4.1 1.8l-.5.9c-1.5-.7-2.8-1.4-4.1-1.9zm2.2-6.5h-1.9v2.1h1.9zm-1.9 5.2h1.9v-2.2h-1.9z"/></g></svg>