<svg enable-background="new 0 0 400 400" viewBox="0 0 400 400" xmlns="http://www.w3.org/2000/svg"><path d="m147.94 303.05c-2.49-3.79-1.94-6.92-1.46-9.95.44-2.75 1.18-5.46 1.9-8.16 1.38-5.18 2.12-10.31 2.05-15.8-.08-5.94 1.21-12.02 2.68-17.85 5.86-23.28 12.01-46.49 18.13-69.71.32-1.23 1.17-2.4 2-3.41 2.9-3.55 5.76-7.17 8.92-10.48 1.68-1.76 4.08-2.82 5.96-4.42 2.19-1.87 3.95-4.3 6.27-5.94 6.62-4.69 4.51-11.77 5.22-18.06.06-.53-1.16-1.46-1.96-1.79-4.13-1.7-8.26-3.44-12.5-4.86-14.03-4.7-20.89-15.35-24.12-28.95-.72-3.01-.85-6.16-1.27-9.38 3.38-.72 5.96-.38 7.56 2.81.49.99 1.22 1.9 2 2.69 3.69 3.76 4.82 8.04 3.3 13.18-.93 3.14.76 5.7 3.52 6.84 2.7 1.12 5.74 1.68 8.68 1.95 3.66.34 7.38.29 11.05.06 1.16-.07 2.94-1.03 3.25-1.97 1.18-3.57 2.39-7.27 2.64-10.98.87-12.74 5-24.39 10.43-35.8 3.24-6.81 6.05-13.89 8.33-21.08 1.54-4.86.19-11.01-7.01-13.06-7.55-2.15-14.86-.73-22.26.39-1.54.23-3.05.88-4.59.95-9.85.4-15.27 6.53-19.57 14.52-4.77 8.86-7.53 18.37-10.05 28-1.75 6.7-3.79 13.33-5.3 20.08-2.25 10.02-4.34 20.08-6.11 30.19-.69 3.92-3.8 3.24-6.05 3.96-.68.22-2.71-1.57-2.97-2.7-.53-2.29-1.13-5.17-.22-7.1 6.56-13.78 7.58-28.91 11.07-43.43 1.48-6.14 1.79-12.55 5.42-18.17 1.27-1.96.99-4.97 1.28-7.51.15-1.32.15-2.71-.06-4.02-1.65-10.33 3.68-16.22 12.37-20.45 18.68-9.09 38.13-11.61 58.03-5.74 12.59 3.71 15.1 10.37 15.96 21.25.08.97-.7 2.03-1.16 3.01-1.73 3.71-3.31 7.51-5.3 11.08-1.99 3.56-4.42 6.89-6.66 10.31-2.39 3.65-4.72 7.34-7.19 10.94-7.25 10.55-6.75 22.34-5.43 34.22.08.71 1.11 1.65 1.88 1.88 3.81 1.17 7.66 1.16 10.74-1.68 5.85-5.37 11.75-10.74 17.13-16.56 2.17-2.35 3.08-5.87 4.54-8.87 1.34-2.74 2.65-5.5 4.27-8.87 3.27 4.04 3.5 7.69 2.28 11.39-4.76 14.35-12.34 26.51-26.44 33.52-3.6 1.79-7.05 3.91-10.69 5.6-4.05 1.89-5.85 4.94-5.8 9.31.06 5.27.92 9.84 6.78 12.06 9.18 3.48 13.21 12.05 18 19.62 8.89 14.06 14.39 29.47 16.94 45.92.12.77.2 1.58.5 2.28 2.53 6.05 3.1 12.36 2.09 18.74-1.31 8.28 1.45 16.2 1.67 24.3.25 9.26.29 18.55-.16 27.79-.26 5.24-.88 5.29-6.9 5.8 0-1.35.01-2.67 0-3.99-.18-14.1.31-28.25-.7-42.29-1.45-20.05-5.68-39.67-14.16-58.02-3.2-6.93-7.88-13.22-12.27-19.53-2.15-3.09-5.26-5.44-9.64-6.11v3.79c.14 31.01.34 62.01.39 93.02.02 14.77.2 29.57-.51 44.32-.9 18.85-2.59 37.66-4.01 56.48-.2 2.65-1.1 5.02-4.69 6-.51-2.11-1.38-4.09-1.42-6.08-.48-25.94-.81-51.89-1.23-77.83-.58-35.68-1.19-71.37-1.86-107.05-.05-2.77-.37-5.6-1.03-8.29-.72-2.92-4.69-4.48-6.66-2.58-7.46 7.17-15.72 13.79-18.33 24.62-1.8 7.49-3.22 15.14-5.77 22.38-7.83 22.24-10.18 45.53-14.06 68.54-.5 2.95-1.13 6.01-2.43 8.66-1.11 2.21-3.27 3.86-5.23 6.07z" fill="#010106"/><g fill="#fcfbfa"><path d="m385.2 377.6.6-.7c.6.4 1.3.9 1.9 1.5l-.6.7c-.8-.5-1.4-1-1.9-1.5zm.3 7.1c.6-1.4 1.1-2.9 1.5-4.5.3.1.6.3.9.4-.5 1.4-1 2.9-1.5 4.4zm.2-10.1.6-.6c.7.5 1.3 1.1 1.9 1.6l-.7.7c-.6-.6-1.2-1.2-1.8-1.7zm8.4-.8h.8v.9h1.8v.7h-1.8v1.8h-.8v-.3h-1.2v.9h3.3v2.6h-.8v-.4h-2.5c0 .3 0 .6-.1.8h3.4v.7h-3.5c0 .3-.1.6-.1.8h4v.7h-3.5c.7.9 1.9 1.3 3.6 1.5-.2.2-.4.5-.6.9-1.9-.3-3.2-1.1-3.8-2.3-.5 1.1-1.8 2-3.9 2.4-.2-.3-.4-.5-.6-.8 1.9-.4 3.1-.9 3.6-1.7h-3.2v-.7h3.5c.1-.2.1-.5.2-.8h-3.3v-.7h3.4c0-.2 0-.5 0-.8h-2.4v.3h-.8v-2.6h3.3v-.9h-1.2v.3h-.8v-1.8h-1.8v-.7h1.8v-.9h.8v.9h3.2zm-4.4 5.5h2.4c0-.3 0-.6 0-.9h-2.4zm1.2-3.1h3.2v-.8h-3.2zm4.4 2.2h-2.4v.9h2.5v-.9z"/><path d="m389.2 385.8h.9v1.5h1.9v-1.5h.9v1.5h2.7v6h1.1v.9h-11.3v-.9h1.1v-6h2.7zm.2 8.7.5.8c-1.2.6-2.5 1.3-4 1.9-.2-.3-.3-.6-.6-.8 1.6-.6 3-1.3 4.1-1.9zm-2-4.3h1.9v-2.1h-1.9zm0 3.1h1.9v-2.2h-1.9zm2.7-3.1h1.9v-2.1h-1.9zm0 3.1h1.9v-2.2h-1.9zm2.4 1.3c1.4.6 2.7 1.2 4.1 1.8l-.5.9c-1.5-.7-2.8-1.4-4.1-1.9zm2.2-6.5h-1.9v2.1h1.9zm-1.9 5.2h1.9v-2.2h-1.9z"/></g></svg>