<svg enable-background="new 0 0 400 400" viewBox="0 0 400 400" xmlns="http://www.w3.org/2000/svg"><path d="m297.24 321.51c-.85-12.96 6.03-23.84 9.09-35.75 2.25-8.76 3.75-17.71 5.44-26.6 2.7-14.17 5.57-28.31 7.82-42.54 2.21-13.98 2.41-28.05.5-42.15-.41-3.07-.29-6.67.95-9.41 2.77-6.13 1.71-12.01.24-17.98-.7-2.83-.46-5.05 1.51-7.4.93-1.11 1.17-3.28.88-4.81-.51-2.71.41-3.88 2.96-3.84 2.1.03 4.29.05 6.26.65 3.51 1.07 6.84 2.76 10.35 3.87 4.02 1.26 6.07 3.89 6.32 7.97.25 4.11 1.01 8.34.4 12.34-1.77 11.53-.1 22.73 2.08 33.95.83 4.28 1.55 8.58 2.33 12.87 1.1 6.04-.23 11.76-2.19 17.43-.6 1.75-1.27 3.74-1 5.49 1.47 9.64-.25 18.88-2.67 28.15-3.3 12.63-6 25.41-9.55 37.96-2.26 8-6.78 14.56-14.59 18.73-7.77 4.15-15.16 8.96-20.93 15.97-4.06 4.93-4.32 4.72-10.33 4.64-1.88 9.85-10.5 12.59-17.88 16.3-4.22 2.12-9.18 2.72-13.72 4.25-7.29 2.46-14.97 4.26-21.68 7.86-18.08 9.7-37.33 14.19-57.61 14.78-14.53.42-29.08.56-43.62.64-2.08.01-4.16-.99-7.27-1.78-3.61 2.45-9.04 2.35-14.38 2.03-12.88-.78-25.54-2.97-37.69-7.47-2.1-.78-4.09-2.26-5.7-3.86-3.25-3.24-5.97-7.01-9.3-10.14-9.68-9.11-13.68-21-16.81-33.34-4.71-18.56-4.53-37.46-3.82-56.4.84-22.48 2.09-44.96 2.29-67.45.12-13.17-1.43-26.36-2.27-39.54-.18-2.78-.04-5.19 1.47-7.9 2.55-4.59.71-9.52-.77-14.21-1.02-3.25-2.74-6.47-2.92-9.77-.87-16.31-1.39-32.65-1.9-48.97-.27-8.46.97-16.74 4.19-24.62.48-1.18 1.33-2.28 2.24-3.2 6.74-6.76 15.14-10.4 24.09-13.28 18.08-5.82 36.7-7.87 55.52-8.44 23.48-.71 46.98-1.67 70.46-1.44 20.11.19 40.21 1.85 60.3 2.96 7.37.41 14.72 1.27 22.09 1.61 10.1.46 20.01 1.64 29.56 5.27 5.01 1.9 10.25 3.16 15.33 4.89 1.14.39 2.6 1.37 2.89 2.37.51 1.75.28 3.47-1.83 4.78-13.47 8.39-27.66 13.29-43.89 11.26-8.63-1.08-17.4-1.13-26.12-1.51-2.9-.13-5.75.05-6.31-4.08-9.06 5.23-17.56.82-26.14-.25-2.43-.3-4.87-.78-7.3-.78-22.84-.06-45.68-.14-68.51.06-4.03.04-6.89-.81-8.61-4.57-.31-.68-.92-1.23-1.67-2.2-.82 1.98-1.51 3.64-2.27 5.46-.92-.13-1.83-.12-2.63-.4-6.99-2.39-13.67-.67-20.27 1.6-4.55 1.57-9.18 2.15-13.85 1.26-5.21-.99-8.74 1.43-11.29 5.39-1.85 2.87-3.18 6.13-4.43 9.34-2.06 5.31-3.72 10.77-5.85 16.05-.87 2.17-1.48 3.9 1.14 5.38-1.59 1-2.89 1.83-4.56 2.88 6.84 5.78 5.62 13.41 5.59 21.04-.03 6.86-1.66 12.21-8.72 14.99 5 4.27 9.44 8.57 9.18 14.86-.37 8.96-.56 17.99-3.87 26.65-1.1 2.88-1.31 6.93-.14 9.69 4.5 10.64 5 21.66 4.64 32.9-.29 9.06-.3 18.13-.75 27.19-.49 9.89 2.89 19.2 3.86 28.84.66 6.53.52 13.15.51 19.73-.01 6.04-1.02 12.16-.33 18.1.79 6.82 2.88 13.49 4.62 20.18.26 1 1.58 1.81 2.56 2.52 9.62 7.01 20.66 10.73 32.17 12.71 12.87 2.21 25.88 3.63 38.87 5.12 2.13.25 4.45-.86 6.65-1.45 3.11-.84 6.18-2.49 9.3-2.57 19.48-.49 38.29-5.27 57.35-8.48 10.47-1.76 20.94-3.6 31.31-5.88 4.63-1.02 9.02-3.17 13.48-4.94 3.84-1.52 7.71-3.03 11.38-4.92 2.68-1.37 4.31-.89 5.59 1.7.33.67.91 1.22 1.38 1.83.25-.09.53-.13.8-.17z" fill="#010000"/><path d="m111.79 136.55c2.52-1.25 5.44-1.95 5.52-2.89.22-2.44-.19-5.4-1.5-7.39-1.92-2.91-4.38-5.35-4.21-9.17.08-1.74.65-2.77 2.46-3.42 11.79-4.19 23.43-8.85 35.35-12.63 5.46-1.74 11.41-2.22 17.19-2.62 28.11-1.98 56.22-3.84 84.35-5.48 4.86-.28 9.83.44 14.67 1.23 5.16.84 6.7 4.12 3.79 8.46-1.79 2.68-4.49 4.99-7.24 6.74-6.31 4.03-13.42 6.07-20.86 6.77-1.06.1-2.51-.34-3.26-1.06-2.06-2-4.41-2.59-7.08-2.1-3.19.58-6.37 1.22-9.51 2.03-.82.21-1.73 1-2.12 1.77-2.79 5.48-5.53 10.98-8.06 16.58-.35.78.17 2.63.89 3.13 11.87 8.25 24.36 15.41 37.67 21.11 2.53 1.09 4.13.94 5.75-1.69 1.61-2.62 3.83-4.97 6.13-7.05 5.2-4.72 11.18-4.14 17.46-2.06-.5 5-1.12 9.87-1.45 14.76-.47 6.91-1.46 13.88-.94 20.74 1.27 16.96-1.29 33.48-4.56 49.96-1.28 6.46-2.71 12.91-4.51 19.25-.69 2.44-2.22 4.9-4 6.74-14.6 15.15-30.86 28.25-49.2 38.63-11.97 6.78-24.85 11.29-38.42 13.4-4.31.67-8.9-.22-13.33-.65-9.91-.98-19.79-2.22-29.69-3.16-3.01-.28-4.94-1.42-6.79-3.92-4.53-6.1-7.75-12.69-9.93-19.96-2.56-8.56-5.69-16.95-8.4-25.47-.41-1.3-.04-2.94.24-4.37.55-2.78 1.9-5.53 1.84-8.27-.31-15.43-1.53-30.87-1.31-46.29.29-19.56 1.65-39.11 2.59-58.66.05-1.34.41-2.66.47-2.99zm114.6 93.42c.02.17.04.35.06.52 2.35 0 4.71.12 7.04-.03 5.01-.32 7.96-2.81 9.22-7.61 1.14-4.32 2.19-8.67 3.42-12.97.59-2.04.22-3.62-1.69-4.5-5.97-2.73-11.95-5.42-18-7.96-1.03-.43-2.43-.22-3.61-.01-12.21 2.17-24.4 4.48-36.63 6.57-8.23 1.4-16.28 1.17-23.53-3.83-1.45-1-3.19-2.54-4.6-2.36-1.79.23-3.47 1.86-5.04 3.08-2.69 2.08-5.29 4.26-7.85 6.5-.61.54-1.05 1.42-1.27 2.22-1.43 5.28-3.01 10.54-4.06 15.9-.5 2.54-.28 5.37.26 7.94.93 4.46 3.19 5.73 7.79 5.43 1.72-.11 3.95-.34 5.12.56 2.1 1.61 3.77 1.23 5.8.36 1.22-.53 2.53-.98 3.84-1.18 11.81-1.82 23.62-3.68 35.46-5.3 9.39-1.27 18.84-2.22 28.27-3.33zm-42.46 55.2c1.69-.26 4.9-.63 8.06-1.28 13.87-2.85 25.68-10.03 37.37-17.59 3.98-2.57 6.17-5.89 7.36-10.23 1.12-4.1-.18-5.95-4.46-6.02-.99-.02-1.99.22-2.99.34-10.2 1.26-20.38 2.86-30.61 3.61-3.91.28-7.96-1.44-11.96-2.14-.84-.15-1.96-.08-2.62.37-4.55 3.1-9.61 4.64-15.01 5.3-8.37 1.03-16.59 2.58-23.56 7.83-.75.57-1.72 1.3-1.89 2.1-1.07 5.18 6 14.68 11.36 15.2 9.11.89 18.25 1.6 28.95 2.51zm46.12-103.95c-5.19-3.58-9.96-6.89-14.77-10.16-.63-.42-1.42-.78-2.16-.82-8.42-.48-15.63-4.24-22.79-8.21-1.11-.62-2.56-1.28-3.7-1.07-4.17.75-8.41 1.47-12.37 2.91-11.85 4.3-21.2 12.76-31.52 19.6-.46.3-.88 1.11-.84 1.63.22 2.53.61 5.04.95 7.7 1.02-.11 1.67-.17 2.31-.24 10.55-1.24 21.08-2.81 31.66-3.64s21.23-.82 31.83-1.38c7.44-.39 14.53-2.24 21.4-6.32zm-62.02-25.05c6.19-9.06 12.04-17.38 17.58-25.9 1.28-1.97 1.7-4.6 2.19-6.99.73-3.52-1.04-5.91-4.1-7.85-.66 1.27-1.39 2.28-1.74 3.41-1.05 3.39-3.07 4.88-6.79 5.1-9.48.57-18.93 1.6-28.39 2.46-5.42.49-9.84 3.03-14.12 6.75 4.57 2.53 3.11 7 4.07 10.63 1.37 5.18 2.11 10.28-3.91 13.43 6.4 3.7 12.31 5.04 18.41.61 1.33-.97 3.07-1.34 4.53-2.17 4.05-2.29 8.06-4.18 12.27.52zm76.91 19.22c-1.49 1.15-2.76 2.04-3.9 3.08-.4.37-.82 1.33-.62 1.62.34.51 1.16 1.02 1.75.98 2.5-.15 4.99-.5 8.2-.85-2.11-1.87-3.65-3.24-5.43-4.83z" fill="#010000"/><g fill="#fbfcfa"><path d="m361.2 9.6.8-1c.9.7 1.9 1.4 2.9 2.3l-.9 1.1c-1-1-2-1.8-2.8-2.4zm.5 10.6c.9-2.1 1.6-4.3 2.3-6.7.4.2.8.4 1.3.6-.7 2.1-1.5 4.3-2.2 6.6zm.4-15.2.9-.9c1 .8 2 1.6 2.8 2.4l-1 1c-.9-.9-1.8-1.7-2.7-2.5zm12.5-1.2h1.2v1.4h2.7v1.1h-2.7v2.7h-1.2v-.6h-1.8v1.3h4.9v3.8h-1.2v-.5h-3.7c0 .4-.1.9-.1 1.2h5.1v1h-5.2c0 .5-.1.9-.2 1.2h6v1h-5.2c1.1 1.3 2.9 2 5.5 2.2-.4.4-.7.8-.9 1.3-2.9-.5-4.8-1.6-5.7-3.5h-.1c-.8 1.7-2.7 2.9-5.9 3.6-.2-.4-.6-.8-.9-1.1 2.8-.6 4.6-1.4 5.4-2.5h-4.8v-1h5.3c.1-.3.2-.7.2-1.2h-4.9v-1h5c0-.4 0-.8.1-1.2h-3.5v.5h-1.2v-3.8h4.9v-1.3h-1.8v.5h-1.2v-2.7h-2.7v-1h2.6v-1.4h1.2v1.4h4.7v-1.4zm-6.6 8.3h3.6c0-.4 0-.9 0-1.4h-3.6zm1.9-4.6h4.7v-1.3h-4.7zm6.6 3.2h-3.7v1.4h3.7z"/><path d="m385.3 3.8h1.3v2.2h2.8v-2.2h1.3v2.2h4.1v9.1h1.7v1.3h-16.9v-1.3h1.7v-9.1h4.1v-2.2zm.4 13.1.7 1.2c-1.8.9-3.8 1.9-6 2.9-.2-.4-.5-.8-.8-1.3 2.3-1 4.3-1.9 6.1-2.8zm-3.1-6.4h2.8v-3.2h-2.8zm0 4.6h2.8v-3.3h-2.8zm4-4.6h2.8v-3.2h-2.8zm0 4.6h2.8v-3.3h-2.8zm3.7 1.9c2.1.9 4.1 1.8 6.1 2.7l-.7 1.3c-2.2-1.1-4.2-2-6.1-2.9zm3.2-9.7h-2.8v3.2h2.8zm-2.8 7.8h2.8v-3.3h-2.8z"/></g></svg>