<svg enable-background="new 0 0 400 400" viewBox="0 0 400 400" xmlns="http://www.w3.org/2000/svg"><g fill="#010102"><path d="m103.58 312.5c.09 3.85 2.01 5.62 5.87 5.81.41-1.18.87-2.47 1.37-3.88-1.79-.89-3.35-1.66-6.06-3 6.38-4.09 11.75-8.36 17.79-11.21 9.38-4.43 19.21-7.89 28.85-11.76.41-.17.86-.33 1.29-.35 12.55-.33 23.37-6.45 34.73-10.62 5.86-2.15 11.67-3.7 17.89-3.6 2.3.04 4.09-.74 5.38-2.68 3.26-4.91 7.88-7.48 13.64-8.7 7.79-1.65 15.16-4.56 21.93-8.9 1.31-.84 3.2-1.29 4.74-1.14 6.54.65 12.06-1.48 17.06-5.48 1.13-.9 2.37-1.7 3.65-2.37 4.7-2.46 7.09-2.17 11.16 1.2.5.42 1.06.77 1.69 1.23.28-.33.58-.53.64-.78 1.77-7.16 6.71-11.75 12.36-16.02 7.05-5.33 13.73-11.14 20.66-16.63 1.63-1.29 2.45-2.47 1.28-4.44-2.04-3.44-1.6-6.62.71-9.87 7.77-10.93 10.9-23.57 13.34-36.49 1.41-7.46 2.94-14.93 4.98-22.24.76-2.71 3.24-4.91 4.7-7.47.68-1.2 1.13-2.75 1.08-4.11-.08-1.87-.56-3.78-1.18-5.56-1.85-5.31.11-9.57 3.34-13.61 1.39-1.73 2.85-3.51 3.74-5.51 1.26-2.85 1.4-5.71-.92-8.45-2.27-2.7-2.88-5.97-1.77-9.47 1.22-3.83 2.28-7.71 3.54-11.53 1.07-3.27-1.58-4.95-3.14-6.85-.54-.66-3.14-.27-4.39.4-4.33 2.31-8.33 5.31-13.59 5.19-.54-.01-1.17.63-1.64 1.08-10.29 9.81-23.25 14.42-36.36 18.71-5.82 1.9-11.61 4.17-17.96 3.39-.43-.05-.95-.02-1.32.17-6.75 3.47-13.08 2.64-19.05-2.35-2.53 2.72-4.65 5.3-7.1 7.51-1.2 1.09-3 2.06-4.55 2.1-3.09.06-6.22-.43-9.29-.94-5.34-.88-10.49-1.2-14.65 3.21-3.79 4.02-9.14 3.83-13.94 4.99-7.6 1.85-15.47 2.75-22.9 5.08-8.07 2.54-15.72 6.34-23.63 9.42-2.87 1.12-4.85 2.83-6.33 5.54-2.35 4.32-5.23 8.35-7.54 12.69-1.35 2.54-3.01 3.58-5.82 3.2-1.54-.21-3.12-.04-5.07-.04 4.27 7.21.71 12.72-3.51 17.97-6.72 8.35-11.42 17.82-16.21 27.33-7.93 15.77-16.33 31.3-24.69 46.85-2.62 4.89-8.05 5.89-15.5 3.17 1.08-2.64 2.15-5.26 3.18-7.76 2.67.73 5.03 1.59 7.46 1.88.58.07 1.38-1.76 2.1-2.74-.51-.57-.76-.92-1.09-1.21-5.8-5.12-5.8-5.12-3.15-12.54.71-2 1.56-3.96 2.13-6 3.44-12.18 9.25-23.1 16.49-33.48 2.9-4.16 3.78-9.7 5.85-14.5.67-1.56 1.94-3.2 3.38-4.05 4.13-2.43 9.55-3.56 12.47-6.92 2.92-3.37 3.25-8.9 5.06-13.34 1.07-2.62 2.49-5.24 4.3-7.4 5.24-6.27 10.69-12.36 16.21-18.38 1.12-1.22 2.79-2.17 4.39-2.67 3.41-1.07 6.92-1.82 10.41-2.59 8.06-1.78 16.1-3.41 23.13-8.3 4.61-3.21 10.04-4.2 15.7-3.14 2.36.45 4.42-.04 6.02-1.98 1.43-1.73 3.21-2.24 5.39-1.54.83.27 1.82.04 2.66.31 4.96 1.61 9.07.49 12.68-3.32.95-1 2.7-1.59 4.14-1.72 12.81-1.14 25.63-2.19 38.46-3.11 1.22-.09 2.9.47 3.7 1.34 1.84 1.98 3.78 2.57 6.59 1.66 0-3.13 0-6.33 0-9.88 3.3 0 6.32-.26 9.27.06 4.15.46 7.43-.68 9.93-4.02 1.65-2.22 3.6-2.92 6.37-1.91.95.35 2.56-.28 3.54-.94 9.08-6.15 18.06-12.43 27.12-18.6 1.25-.85 2.79-1.8 4.2-1.82 4.26-.03 7.3-2.01 10.2-4.88 4.69-4.63 9.64-9.01 14.87-13.86 1.61 1.59 3.24 3.05 4.65 4.7.49.58.64 1.64.59 2.46-.14 2.6-.45 5.19-.74 8.16-1.43 1.56-3.69 3.58-5.34 6.02-.63.93-.32 3.07.36 4.18 1.85 3.04 2.33 6.14.83 9.26-2.61 5.44-4.2 11.53-10.33 14.74-1.36.71-1.77 3.81-1.93 5.86-.05.63 2.16 1.57 3.44 2.11 1.21.51 2.55.69 4.13 1.1-.95 7.16-1.87 14.23-2.82 21.28-1.69 12.53-3.49 25.04-5.04 37.58-.31 2.48-1.33 3.56-3.6 3.89-2.87.43-5.39 1.42-6.99 4.94.69.49 1.62.96 2.33 1.66 4.84 4.79 5.26 9.79.92 14.79-2.96 3.41-3.69 7.27-3.46 11.53.32 5.96-.5 11.7-4.3 16.5-2.2 2.79-4.7 5.43-7.46 7.65-2.57 2.07-4.02 4.21-3.54 7.6.48 3.35.13 6.21-3.73 7.86-1.28.55-1.97 3.07-2.42 4.81-.62 2.4-1.73 4.02-4.22 4.58-4.43.99-6.67 4.12-7.96 8.19-.4 1.28-.83 2.57-1.44 3.75-1.73 3.34-3.97 5.9-8.27 5.58-4.27-.32-7.99 1.12-11.6 3.49-6.99 4.58-14.61 7.72-23.03 8.6-.76.08-1.59.21-2.24.58-5.01 2.85-10.41 3.51-16.09 3.73-3.45.14-6.93 1.52-10.23 2.77-9.28 3.5-18.49 7.22-26.78 10.49-3.09-2.07-5.53-3.71-8.71-5.83-.67 4.15-3.91 6.74-.82 10.39-1.47.15-2.81.51-4.1.38-6.72-.68-12.02 2.51-17.31 5.98-2.98 1.95-6.02 3.93-9.3 5.25-2.16.86-4.79.77-7.19.68-.89-.03-2.23-1.13-2.48-1.99-.24-.86.42-2.2 1.07-3.03.79-1.02 1.97-1.74 3.37-2.9-1.9-.66-3.4-1.17-5.61-1.94-.93 2.76-2.16 5.28-2.58 7.93-.56 3.48-1.83 5.88-5.57 6.45-.98.15-1.95.51-2.89.86-5.29 1.97-10.57 4.25-15.38-.41-.64.48-.92.58-.97.75-2.12 6.88-7.44 9.24-13.96 10.46-7.28 1.35-13.46 5.3-19.43 9.51-4.55 3.21-9.47 5.37-15.59 5.42.53-5.1 1.01-10.07 1.61-15.03.06-.53.69-1.19 1.22-1.44 5.73-2.6 11.6-4.65 18.47-4.77zm201.26-63.87c.29-5.34-1.03-6.86-5.7-6.66-.19 2.12-.39 4.28-.61 6.66zm-160.82-115.97c-3.2 2.09-4.76 3.77-2.94 6.33.57.79 2.33 1.77 2.64 1.53 1.07-.85 2.43-2.22 2.4-3.36-.03-1.46-1.29-2.9-2.1-4.5zm72.95 145.25c1.96-.72 3.39-1.25 5.08-1.87-1.39-1.7-2.5-3.06-4.11-5.03-.38 2.73-.64 4.53-.97 6.9zm142.3-218.81c-1.99-1.79-3.41-3.07-5.28-4.76-.2 2.28-.33 3.82-.48 5.64 2.03-.31 3.54-.54 5.76-.88z"/><path d="m310.43 114.53c0 2.33.18 4.67-.04 6.98-.51 5.32-1.05 10.65-1.93 15.92-.23 1.38-1.53 2.83-2.73 3.74-1.84 1.4-2.67 2.79-1.72 5.06 1.38 3.27.57 6.2-1.2 9.18-2.05 3.45-3.75 7.12-5.54 10.72-1.61 3.25-4.07 4.57-7.68 3.77-1.07-.24-2.23-.34-3.3-.17-2.28.34-3.89 1.32-2.62 4.04 1.63 3.49.32 5.91-2.38 8.37-4.54 4.13-8.72 8.65-13.53 13.49-.86-2.81-1.7-5.05-2.16-7.38-.13-.66.69-1.74 1.35-2.29 2.4-2.02 4.86-3.96 7.4-5.79 1.42-1.02 2.27-2.03 1.56-3.86-.72-1.85-.28-3.42 1.29-4.74 3.44-2.88 4.89-6.7 5.53-11.07.63-4.28 1.76-8.48 2.83-13.46-4.28.4-8.05.54-11.73 1.16-8.71 1.47-17.38 3.32-26.29 1.85-.6-.1-1.75.02-1.83.28-.95 3.21-2.03 6.43-2.45 9.73-.18 1.47.96 3.16 1.68 4.67 1.42 3 2.26 5.9-1.03 8.84 5.75 4.17 6.6 9.24 2.72 15.07 5.94 3.58 13.65 4.82 15.17 13.46-1.26.51-2.41 1.22-3.66 1.44-5.06.92-8.29 3.8-10.18 8.53-.82 2.06-2.3 3.85-3.23 5.87-1.77 3.86-3.81 7.02-8.93 5.91-.59-.13-1.77 1.02-2.18 1.82-.7 1.38-.89 3-1.5 4.43-1.72 4.04-3.75 6.83-9.07 6.2-.99-.12-2.03.1-3.02-.04-2.38-.33-3.88.59-4.47 2.91-.95 3.75-3.45 5.44-7.12 6.53-8.44 2.5-16.74 5.5-25.09 8.29-2.93-1.95-.59-7.16-5.36-8-3.25 4.44-6.99 8.53-12.83 10.36-1.04-1.77-2.09-3.56-3.19-5.45-.44.41-.87.66-1.06 1.02-3.88 7.18-10.47 9.69-18.04 10.87-2.57.4-5.05 1.65-7.44 2.8-9.75 4.68-19.34 9.72-29.23 14.07-3.57 1.57-7.84 1.53-11.79 2.26-1.74.32-2.65-.43-2.59-2.09.07-1.77.02-3.69.7-5.25 2.35-5.36 3.98-10.98 8.3-15.5 2.99-3.13 4.42-7.72 6.87-11.44 1.24-1.88 3.01-3.57 4.87-4.86 4.77-3.3 9.72-6.34 15.11-9.81-1.19-.4-2.05-.51-2.67-.95-1.17-.82-2.81-1.66-3.15-2.82-.56-1.9-.2-4.08 2.04-5.12 2.62-1.22 5.34-2.25 7.9-3.58 2.49-1.29 4.84-2.86 7.98-4.75-7.2-5.28-4.58-10.51-1.45-15.61 5.27-8.58 10.17-17.44 16.19-25.47 4.59-6.12 10.66-11.12 16.1-16.6.29-.29.82-.62 1.16-.55 4.04.82 4.65-2.06 6.43-4.77 2.77-4.23 6.93-7.62 12.26-8.78 2.62-.57 5.25-1.21 7.9-1.45 4.38-.4 8.14-1.74 11.37-4.94 1.24-1.23 3.52-1.99 5.32-1.98 12.86.05 25.74.84 38.58.39 7.51-.27 14.95-2.4 22.42-3.71 1.32-.23 2.61-.74 3.93-.85 3.93-.3 6.78-2.19 9.24-5.23 1.42-1.76 3.44-3.16 5.44-4.29 4.74-2.7 9.63-5.14 14.46-7.69.46.1.89.21 1.31.31zm-87.71 105.62c-1.42-1.76-2.6-3.23-3.72-4.62 4.01-4.61 9.94-2.16 15.18-4.05-2.99-3.27-2.99-6.12.13-8.82.46-.4.47-1.44.5-2.19.23-5.59.5-11.17.56-16.76.01-1.32-.4-2.98-1.25-3.89-2.3-2.49-3.32-5.22-2.8-8.53.34-2.17-.62-3.55-2.36-4.73-3.25-2.2-5.8-4.98-8.07-8.3-1.52-2.21-4.78-4.72-7.15-4.61-11.65.57-22.41 3.62-30.16 13.47-5.46 6.94-11.54 13.38-17.04 20.29-1.86 2.34-3.39 5.29-3.98 8.19-.84 4.12-1.01 8.45-.86 12.67.17 5.07 1.97 9.5 6.45 12.62 3.2 2.23 6.98 4.38 8.85 7.55 2.3 3.89 5.05 4.76 8.94 4.65 7.59-.22 15.19-.24 22.78-.57 2.2-.1 5.04-.1 5.23-3.42.24-4.2 2.35-6.73 6.37-7.81.73-.21 1.4-.66 2.4-1.14zm-91.11 36.93c2.21-1.12 4.73-1.88 6.58-3.44 4.28-3.59 8.91-6.11 14.39-7.41 6.82-1.62 7.74-3.55 5.27-10.28-.83-2.26-2.05-4.52-3.62-6.33-4.43-5.13-7.75-4.79-11.66.52-4.41 6-8.39 12.47-15.61 15.74-.56.25-1.04 1.33-1.03 2.02.01 1.44.57 2.87.54 4.3-.09 3.46 1.72 4.51 5.14 4.88zm158.1-103.68c-1.44.84-2.72 1.6-4.18 2.45.94 1.56 1.67 2.77 2.48 4.1 1.79-.85 3.32-1.58 5.11-2.43-1.32-1.61-2.31-2.8-3.41-4.12z"/><path d="m25.52 364.92c-1.12-3.47-2.2-6.85-3.39-10.55 2.67-.14 5.05-.26 7.38-.38.2-.55.48-.91.4-1.14-1.91-5.04.3-8.57 4.22-11.41 2.86-2.08 3.66-4.69 2.94-8.15-1.07-5.16-.1-9.95 2.19-14.86 7.98-17.11 15.58-34.39 23.21-51.66 1.53-3.46 2.58-7.13 3.86-10.7 1.27-3.52 6.68-7.57 10.31-7.54.71.01 1.84.69 2.03 1.29.84 2.58 1.99 5.27 1.93 7.89-.09 4.22-1.02 8.42-1.64 12.63-.09.64-.2 1.47-.62 1.85-3.52 3.09-3.94 7.35-4.59 11.57-.44 2.83-1.6 5.17-4.18 6.9-1.44.97-2.69 2.67-3.34 4.31-3.78 9.54-7.09 19.23-13.25 27.71-2.04 2.81-2.55 6.82-3.37 10.37-.26 1.14.74 2.56 1.47 4.81 2.14-2.49 3.49-4.07 4.84-5.65 2.85-3.34 5.45-3.85 9.28-1.79 3.52 1.89 7.03 3.78 11 5.92-11.18 4.94-21.73 9.81-32.45 14.24-4.56 1.88-8.05 4.57-10.62 8.72-1.66 2.68-3.56 5.21-7.61 5.62z"/></g><path d="m385.2 377.6.6-.7c.6.4 1.3.9 1.9 1.5l-.6.7c-.8-.5-1.4-1-1.9-1.5zm.3 7.1c.6-1.4 1.1-2.9 1.5-4.5.3.1.6.3.9.4-.5 1.4-1 2.9-1.5 4.4zm.2-10.1.6-.6c.7.5 1.3 1.1 1.9 1.6l-.7.7c-.6-.6-1.2-1.2-1.8-1.7zm8.4-.8h.8v.9h1.8v.7h-1.8v1.8h-.8v-.3h-1.2v.9h3.3v2.6h-.8v-.4h-2.5c0 .3 0 .6-.1.8h3.4v.7h-3.5c0 .3-.1.6-.1.8h4v.7h-3.5c.7.9 1.9 1.3 3.6 1.5-.2.2-.4.5-.6.9-1.9-.3-3.2-1.1-3.8-2.3-.5 1.1-1.8 2-3.9 2.4-.2-.3-.4-.5-.6-.8 1.9-.4 3.1-.9 3.6-1.7h-3.2v-.7h3.5c.1-.2.1-.5.2-.8h-3.3v-.7h3.4c0-.2 0-.5 0-.8h-2.4v.3h-.8v-2.6h3.3v-.9h-1.2v.3h-.8v-1.8h-1.8v-.7h1.8v-.9h.8v.9h3.2zm-4.4 5.5h2.4c0-.3 0-.6 0-.9h-2.4zm1.2-3.1h3.2v-.8h-3.2zm4.4 2.2h-2.4v.9h2.5v-.9z" fill="#fcfbfa"/><path d="m389.2 385.8h.9v1.5h1.9v-1.5h.9v1.5h2.7v6h1.1v.9h-11.3v-.9h1.1v-6h2.7zm.2 8.7.5.8c-1.2.6-2.5 1.3-4 1.9-.2-.3-.3-.6-.6-.8 1.6-.6 3-1.3 4.1-1.9zm-2-4.3h1.9v-2.1h-1.9zm0 3.1h1.9v-2.2h-1.9zm2.7-3.1h1.9v-2.1h-1.9zm0 3.1h1.9v-2.2h-1.9zm2.4 1.3c1.4.6 2.7 1.2 4.1 1.8l-.5.9c-1.5-.7-2.8-1.4-4.1-1.9zm2.2-6.5h-1.9v2.1h1.9zm-1.9 5.2h1.9v-2.2h-1.9z" fill="#fcfbfa"/></svg>