<svg enable-background="new 0 0 400 400" viewBox="0 0 400 400" xmlns="http://www.w3.org/2000/svg"><path d="m238.67 45.51c7.92-4.14 15.6-2.35 23.22-.56 24.06 5.67 35 26.17 35.58 46.25.38 12.99-3.97 24.84-7.85 36.84-2.82 8.72-5.58 17.45-8.6 26.1-.78 2.23-.34 3.67 1.38 4.88 2.65 1.86 5.19 4 8.09 5.35 13.58 6.34 27.97 9.88 42.79 11.88 2.63.35 4.12-.66 5.42-2.77 3.55-5.76 5.43-12.04 5.61-18.74.38-14.65-1.84-28.97-6.01-43-.37-1.25-1.11-2.43-1.86-3.51-2.2-3.19-4.5-6.33-7.22-10.13 6.79.33 12.87.63 18.94.93.11.01.24.01.33.06 6.25 3.64 12.72 6.95 18.65 11.05 3.53 2.44 5.23 6.33 4.89 11.1-1.32 18.64-1.84 37.34-3.75 55.92-1.12 10.94-4.08 21.71-6.58 32.48-2.58 11.1-5.58 22.1-8.48 33.12-.45 1.69-1.17 3.39-2.11 4.86-13.89 21.52-27.58 43.18-41.87 64.42-6.96 10.35-17.05 17.62-27.76 23.9-15.49 9.08-32.54 13.69-50 16.65-11.88 2.02-23.93 3.54-35.95 4.05-18.71.8-36.72-2.43-54.19-9.95-11-4.74-20.49-10.57-28.82-19.25-7.71-8.02-13.4-17.29-19.57-26.31-1.44-2.1-2.95-3.25-5.58-3.55-6.33-.72-12.6-1.95-18.92-2.74-7.09-.89-12.75-4.66-18.16-8.85-3.89-3-7.4-6.51-11.3-9.51-10.21-7.84-12.98-19.02-14.51-30.92-2.35-18.2-.62-35.89 5.74-53.14 8.01-21.73 14.55-43.92 19.47-66.54 2.83-13.01.73-24.89-10.08-34.13-7.25-6.2-12.55-13.87-15.99-22.77 6.22-5.31 13.18-6.12 20.19-2.63 3.6 1.79 7.2 3.87 11.05 4.79 8.16 1.96 11.99 8.03 15.35 14.7 2.16 4.29 3.88 8.8 6.14 13.03.7 1.32 2.41 2.7 3.84 2.93 9.82 1.62 19.68 3.01 29.55 4.29.98.13 2.62-.68 3.1-1.54 4.91-8.65 9.93-17.26 14.28-26.19 1.6-3.27 1.57-7.36 2.18-11.09.45-2.75.73-5.52 1.14-8.71 6.44 1.66 12.67 3.26 18.89 4.88 2.05.53 4.07 1.43 6.15 1.61 3.93.34 5.46 2.66 6.28 6.15 1.21 5.18 1.15 10.33-.94 15.15-3.41 7.88-6.71 15.89-11.03 23.27-10.77 18.44-21.88 36.69-33.31 54.73-3.96 6.25-5.27 12.81-4.92 19.76.34 6.79 1.52 13.55 2.57 20.28.15.99 1.48 2.13 2.53 2.59 4.19 1.84 8.59 3.24 12.71 5.21 2.08 1 4.51 2.5 5.45 4.42 4.53 9.23 12.48 11.36 21.69 11.34 14.65-.02 28.6-3.22 41.9-9.32 2.73-1.25 4.94-5.46 4.16-8.2-.23-.81-1.46-1.52-2.39-1.91-7.94-3.32-15.83-6.8-23.92-9.71-5.27-1.9-9.24-5.19-12.96-9.13-3.29-3.49-6.58-7.05-10.3-10.04-3.77-3.04-7.83-3.84-12.61-.87-6.62 4.11-13.76 7.4-21.02 11.23-.74-2.09-1.74-3.91-1.94-5.82-.12-1.12.76-2.65 1.65-3.53 10.82-10.7 21.85-21.2 32.58-32 6.15-6.18 11.88-12.78 17.75-19.24 9.9-10.88 14.92-24.53 21.35-37.41 2.63-5.27 3.54-10.06 1.28-15.54-1.02-2.46-1.47-5.15-2.14-7.74-.87-3.38 1.26-5.77 4.48-4.42 3.53 1.48 7.43 3.28 9.8 6.09 3.46 4.09 6.24 8.99 8.31 13.96 2.03 4.86 4.63 8.78 9.11 11.55 12.16 7.51 25.32 12.16 39.45 14.23 3.13.46 4.77-.57 6.3-3.3 4.89-8.72 4.66-17.67 2.22-26.98-4.43-16.9-4.34-16.92-19.05-26.48-3.94-2.55-7.8-5.17-11.85-7.86zm-45.85 199.87c9.37 9.8 11.17 21.66 10.25 34.14-.95 12.83-2.84 25.51-6.93 37.81-1.41 4.25-2.23 8.7-3.52 13.9 7.53-1.94 14.14-3.49 20.67-5.35 27.19-7.77 51.67-20.42 72.08-40.32 2.94-2.87 2.19-11.02-1.31-13.22-6.72-4.22-13.53-8.3-20.19-12.61-2.31-1.5-4.5-3.31-6.38-5.32-7.77-8.35-15.45-16.79-23.04-25.31-1.59-1.78-2.82-2.16-5.08-1.07-11.06 5.35-22.22 10.5-33.34 15.73-.99.46-1.94.98-3.21 1.62zm-142.96 10.43c5.62 7.75 13.1 11.13 22.22 10.23 12.43-1.22 23.72 2.12 34.4 7.94 6.43 3.5 11.86 7.77 11.53 16.48-.17 4.42 1.81 8.58 4.97 12.11 4.56 5.07 8.76 10.45 13.16 15.67.78.92 1.64 1.93 2.68 2.45 5.69 2.85 11.36 5.74 17.2 8.25 4.23 1.82 8.7 1.77 13.1.13 2.08-.78 3.12-1.94 3.25-4.4.37-6.8 1.19-13.58 1.7-20.38.8-10.69 1.78-21.39 2.13-32.1.21-6.38-.99-12.74-4.19-18.42-.76-1.35-2.43-2.65-3.93-3.06-16.58-4.57-33.2-9.01-49.85-13.3-1.71-.44-3.99-.1-5.58.71-8.76 4.46-17.54 8.91-25.99 13.92-5.55 3.29-11.18 4.71-17.49 3.9-.44-.06-.89-.11-1.34-.12-5.85-.02-11.72-.01-17.97-.01zm282.8-52.11c-7.62-1.87-15-3.6-22.32-5.54-2-.53-4.19-1.27-5.68-2.6-5.84-5.19-11.43-10.65-17.11-16.02-3.98-3.76-8.56-6.35-13.95-7.58-1.79-.41-2.61.12-3.51 1.51-8.84 13.46-17.7 26.9-26.66 40.28-1.13 1.68-.97 2.76.03 4.41 5.37 8.81 14.94 12.34 22.93 17.5 8.45 5.45 18.3 8.75 27.57 12.91 5.03 2.26 10.2 4.02 15.87 3.51 3.18-.28 5.62-1.42 7.26-4.51 3.56-6.71 7.53-13.2 11.13-19.89 1.13-2.1 2-4.49 2.37-6.84.87-5.5 1.36-11.08 2.07-17.14zm-235.25-69.43c-.79-.45-1.05-.65-1.35-.76-6.32-2.33-12.11-2.38-17.54 2.65-2.11 1.96-3.86 3.59-4.59 6.51-1.75 7.04-3.7 14.03-5.84 20.96-5.49 17.77-8.62 36.29-16.92 53.18-.93 1.89-1.85 3.91-2.15 5.96-.45 3.03-.49 6.15-.36 9.22.03.61 1.77 1.83 2.38 1.65 14.94-4.43 29.83-9.02 44.84-13.61-3.16-12.44-6.19-23.98-8.97-35.58-.55-2.29-.68-4.93-.13-7.2 2.51-10.41 5.37-20.74 8.01-31.12 1.02-3.96 1.78-7.99 2.62-11.86zm81.99 14.14c-6.26 6.26-12.48 12.37-18.56 18.61-1.93 1.98-.49 6.8 2.19 7.67 12.65 4.1 25.29 8.2 37.98 12.17 7.63 2.39 15.43 3.67 23.48 2.72 9.4-1.12 13.06-5 12.03-13.16-4.51-.29-9.07-.78-13.62-.79-3.08-.01-5.51-1.02-7.99-2.75-11.73-8.2-23.55-16.25-35.51-24.47zm14.63-9.99c1.13.42 1.72.68 2.33.87 12.71 3.91 25.42 7.81 38.12 11.73 11.39 3.51 11.38 3.52 20.75-3.89.18-.14.38-.25.52-.42 2.64-3.19 3.63-6.92 2.95-10.92-.61-3.64-3.33-5.44-6.75-6.12-4.71-.93-9.43-1.94-14.19-2.51-7.55-.91-14.57-2.96-20.77-7.58-2.91-2.17-6.17-3.86-9.01-5.61-8.96 5.95-9.51 16.01-13.95 24.45z" fill="#010104"/><g fill="#fcfbfa"><path d="m385.2 377.6.6-.7c.6.4 1.3.9 1.9 1.5l-.6.7c-.8-.5-1.4-1-1.9-1.5zm.3 7.1c.6-1.4 1.1-2.9 1.5-4.5.3.1.6.3.9.4-.5 1.4-1 2.9-1.5 4.4zm.2-10.1.6-.6c.7.5 1.3 1.1 1.9 1.6l-.7.7c-.6-.6-1.2-1.2-1.8-1.7zm8.4-.8h.8v.9h1.8v.7h-1.8v1.8h-.8v-.3h-1.2v.9h3.3v2.6h-.8v-.4h-2.5c0 .3 0 .6-.1.8h3.4v.7h-3.5c0 .3-.1.6-.1.8h4v.7h-3.5c.7.9 1.9 1.3 3.6 1.5-.2.2-.4.5-.6.9-1.9-.3-3.2-1.1-3.8-2.3-.5 1.1-1.8 2-3.9 2.4-.2-.3-.4-.5-.6-.8 1.9-.4 3.1-.9 3.6-1.7h-3.2v-.7h3.5c.1-.2.1-.5.2-.8h-3.3v-.7h3.4c0-.2 0-.5 0-.8h-2.4v.3h-.8v-2.6h3.3v-.9h-1.2v.3h-.8v-1.8h-1.8v-.7h1.8v-.9h.8v.9h3.2zm-4.4 5.5h2.4c0-.3 0-.6 0-.9h-2.4zm1.2-3.1h3.2v-.8h-3.2zm4.4 2.2h-2.4v.9h2.5v-.9z"/><path d="m389.2 385.8h.9v1.5h1.9v-1.5h.9v1.5h2.7v6h1.1v.9h-11.3v-.9h1.1v-6h2.7zm.2 8.7.5.8c-1.2.6-2.5 1.3-4 1.9-.2-.3-.3-.6-.6-.8 1.6-.6 3-1.3 4.1-1.9zm-2-4.3h1.9v-2.1h-1.9zm0 3.1h1.9v-2.2h-1.9zm2.7-3.1h1.9v-2.1h-1.9zm0 3.1h1.9v-2.2h-1.9zm2.4 1.3c1.4.6 2.7 1.2 4.1 1.8l-.5.9c-1.5-.7-2.8-1.4-4.1-1.9zm2.2-6.5h-1.9v2.1h1.9zm-1.9 5.2h1.9v-2.2h-1.9z"/></g></svg>