<svg enable-background="new 0 0 400 400" viewBox="0 0 400 400" xmlns="http://www.w3.org/2000/svg"><path d="m61.56 30.49c13.05.8 24.48 4.75 34.74 11.71 7.77 5.27 9.94 13.34 6.61 22.18-.45 1.2-1.37 2.28-2.25 3.24-10.88 11.77-21.13 24.03-29.17 37.97-3.04 5.27-5.3 10.88-5.28 17.1 0 1.19.49 2.71 1.3 3.53 7.84 7.95 17.25 13.36 28.05 16.87 5.17-6.76 10.33-13.5 15.49-20.25 13.87-18.13 27.75-36.24 41.56-54.41 1.26-1.66 2.29-3.57 3.02-5.52 3.91-10.33 7.69-20.71 11.61-31.32 4.33.46 8.54.91 12.75 1.37.11.01.26-.02.33.05 5.12 5.05 11.42 9.4 14.98 15.39 3.06 5.15.75 11.76-2.79 17.06-1.17 1.75-2.3 3.51-3.63 5.54 6.23 0 12.09.33 17.9-.07 13.36-.91 26.57.16 39.79 1.91 13.75 1.82 27.52 3.44 41.28 5.12 4.43.54 7.41-3.66 5.63-8.05-1.46-3.61-3.1-7.15-4.72-10.87 4.46-2.2 8.87-2.42 13.15-.67 5.88 2.42 11.62 5.19 17.33 7.98.98.48 1.73 1.68 2.29 2.7 8.04 14.57 8.94 29.84 3.69 45.39-4.61 13.65-9.61 27.17-14.82 40.59-1.76 4.53-4.75 8.57-7.1 12.88-10.31 18.92-24.4 35.01-38.48 51.06-10.67 12.16-24.12 20.55-38.71 27.18-20.07 9.12-40.79 16.25-63.02 16.99-6.42.21-12.96-1.89-19.37-3.29-10.26-2.24-20.47-4.72-30.66-7.27-1.73-.43-3.52-1.43-4.84-2.64-5.68-5.23-10.88-11.02-16.86-15.87-6.19-5.03-8.77-11.61-10.33-18.93-3.58-16.83-2.65-33.56.97-50.26 1.06-4.88 1-4.9-3.69-6.98-3.57-1.59-7.1-3.28-10.73-4.76-16.22-6.59-23.25-19.41-24.31-36.1-.65-10.23 2.28-19.68 7.31-28.5.76-1.33 1.98-2.4 2.95-3.62 8.92-11.21 15.01-23.54 14.74-38.27-.03-1.6-.56-3.28-1.22-4.76-1.63-3.66-3.47-7.22-5.49-11.4zm39.68 136.54c-3.34 11.23-4.84 22.23-3.16 33.26 2.39 15.64 8.49 28.55 24.77 35.26 14.04 5.79 28.09 7.28 42.6 4.54 19.1-3.61 36.55-11.51 52.7-22.31 6.5-4.35 6.09-11.97-.9-15.65-1.77-.93-3.58-2.01-5.5-2.42-10.13-2.16-20.26-4.44-30.48-6.08-16.47-2.65-32.74-5.76-48.05-12.82-10.42-4.8-21.09-9.11-31.98-13.78zm10.34-8.28c.39.07.82.2 1.24.21 19.22.38 37.99 3.69 56.63 8.24 10.28 2.52 20.15 6.63 30.92 7.38 4.22.29 8.49 1.8 12.44 3.46 6.48 2.73 12.57 6.41 19.1 8.97 5.65 2.22 11.66 3.57 17.58 5.04 2.3.58 4.18-.59 5.81-2.49 6.35-7.38 12.85-14.63 19.31-21.91 6.14-6.92 3.69-16.31-5.2-19.09-4.57-1.43-9.27-2.69-14.01-3.3-17.08-2.19-34.2-4.09-51.31-6.07-9.43-1.09-18.85-2.78-28.37-1.26-7.37 1.18-14.44-.03-21.52-1.86-4.22-1.09-8.48-2.09-12.78-2.72-1.64-.24-3.79.19-5.11 1.14-7.35 5.3-14.39 11.03-21.8 16.24-3.1 2.19-3.9 4.56-2.93 8.02zm69.14-40.93c.01-.39.02-.78.04-1.17 12.94.61 25.9 1.04 38.82 1.86 14.04.9 28.1 1.57 41.79 5.48 5.33 1.52 10.92 2.61 16.44 2.83 6.61.26 12.3-3.2 16.26-8.13 1.72-2.14.94-6.29 1.29-9.52.02-.22-.03-.45-.06-.67-.67-4.48-4.38-8.48-8.8-9.27-27.83-4.99-55.58-10.54-83.97-11.61-12.06-.45-22.8 1.91-31.34 11.23-2.77 3.03-6.34 5.31-9.38 8.11-1.78 1.63-3.44 3.47-4.78 5.46-.58.86-.67 2.67-.13 3.49.63.96 2.18 1.8 3.35 1.83 6.83.17 13.65.08 20.47.08z" fill="#010104"/><path d="m22.87 249.19c6.49 2 13.07 3.78 19.44 6.12 2.03.74 3.49 3 5.27 4.48 5.95 4.93 9.59 11.11 11.55 18.67 2.12 8.2 5.17 16.16 7.83 24.23.34 1.02.76 2.02 1.41 3.73 5.41-9.96 7.28-20.2 9.55-30.41 2.42-10.89-1.95-20.42-5.31-31.16 2.98.36 5.64.13 7.84 1.03 7.85 3.2 15.58 6.7 23.26 10.3 1.4.66 2.54 2.2 3.42 3.57 5.08 7.9 8.07 16.49 7.37 25.97-.18 2.48-1.36 5.14-2.78 7.24-7.77 11.47-16.44 22.39-23.46 34.3-6.48 11-5.74 9.65 4.99 14.66 8.59 4.01 17.86 5.69 27.28 6.43 12.63.98 25.21.97 37.76-1.32 2.99-.55 3.54-1.96 2.98-4.29-1.45-6.07-2.59-12.27-4.71-18.11-4.99-13.75-10.48-27.32-15.77-40.96-.96-2.48-.27-4.03 2.35-4.1 2.06-.05 4.23.36 6.2 1.04 5.44 1.86 10.01 5.02 14.5 8.72 8.72 7.18 14.68 16.03 18.94 26.31 1.71 4.12 3.69 8.15 5.77 12.09 4.65 8.8 14.35 11.75 23.2 7.19 4.87-2.51 9.73-5.03 14.59-7.56 4.01-2.08 5.55-4.78 4.73-9.22-.5-2.72-1.29-5.46-2.43-7.97-2.81-6.2-5.86-12.3-8.91-18.4-.58-1.17-1.57-2.15-2.42-3.18-6.82-8.28-12.48-17.13-14.12-28.65 6.9 1.75 13.82 1.03 19.75 5.81 9.49 7.64 19.69 14.4 29.24 21.97 3.68 2.92 6.43 7.01 9.52 10.65.93 1.09 1.41 2.56 2.31 3.68 3.8 4.72 7.33 5.1 11.49.88 5.18-5.25 10.27-10.62 15.03-16.25 2.34-2.77 4.13-6.12 5.65-9.45 3.74-8.21 3.32-9.25-2.81-15.67-7.72-8.09-15.49-16.15-22.76-24.64-3.1-3.62-4.98-8.29-7.59-12.78 7.64-4.28 14.68-6.15 22.17-2.77 6.97 3.15 14.03 5.6 21.65 6.8 3.86.61 7.49 2.82 11.13 4.53 1.8.85 2.81.65 4.23-.87 8.35-8.93 11.46-20.03 13.35-31.64.84-5.18 1.44-10.39 2.17-15.82 12.42.67 23.68 4.17 32.61 13.23 3.74 3.79 4.15 8.43 1.3 12.93-6.09 9.62-10.8 19.78-13.41 30.9-.31 1.33-1.43 2.47-2.21 3.68-3.34 5.14-7.3 9.99-9.92 15.48-5.36 11.26-12.44 21.17-20.91 30.21-1.91 2.04-3.81 4.11-5.53 6.31-5.29 6.78-11.79 12.11-18.84 16.98-13.62 9.41-26.97 19.21-40.55 28.68-2.3 1.61-5.09 3.05-7.81 3.43-13.5 1.89-25.37 8.45-37.98 12.84-24.42 8.51-49.51 12.94-75.43 11.68-8.03-.39-15.87-1.77-23.67-4.23-8.9-2.81-18.19-4.46-27.4-6.16-4.7-.87-8.81-2.63-13.07-4.72-8.45-4.14-13.36-10.42-16.47-19.28-3.99-11.36-9.08-22.36-14.16-33.3-4.77-10.3-8.8-20.79-10.69-31.99-.9-5.33-3.01-9.97-6.35-14.17-1.79-2.26-3.3-4.74-4.94-7.12.22-.19.4-.38.58-.56z" fill="#010104"/><g fill="#fcfbfa"><path d="m385.2 377.6.6-.7c.6.4 1.3.9 1.9 1.5l-.6.7c-.8-.5-1.4-1-1.9-1.5zm.3 7.1c.6-1.4 1.1-2.9 1.5-4.5.3.1.6.3.9.4-.5 1.4-1 2.9-1.5 4.4zm.2-10.1.6-.6c.7.5 1.3 1.1 1.9 1.6l-.7.7c-.6-.6-1.2-1.2-1.8-1.7zm8.4-.8h.8v.9h1.8v.7h-1.8v1.8h-.8v-.3h-1.2v.9h3.3v2.6h-.8v-.4h-2.5c0 .3 0 .6-.1.8h3.4v.7h-3.5c0 .3-.1.6-.1.8h4v.7h-3.5c.7.9 1.9 1.3 3.6 1.5-.2.2-.4.5-.6.9-1.9-.3-3.2-1.1-3.8-2.3-.5 1.1-1.8 2-3.9 2.4-.2-.3-.4-.5-.6-.8 1.9-.4 3.1-.9 3.6-1.7h-3.2v-.7h3.5c.1-.2.1-.5.2-.8h-3.3v-.7h3.4c0-.2 0-.5 0-.8h-2.4v.3h-.8v-2.6h3.3v-.9h-1.2v.3h-.8v-1.8h-1.8v-.7h1.8v-.9h.8v.9h3.2zm-4.4 5.5h2.4c0-.3 0-.6 0-.9h-2.4zm1.2-3.1h3.2v-.8h-3.2zm4.4 2.2h-2.4v.9h2.5v-.9z"/><path d="m389.2 385.8h.9v1.5h1.9v-1.5h.9v1.5h2.7v6h1.1v.9h-11.3v-.9h1.1v-6h2.7zm.2 8.7.5.8c-1.2.6-2.5 1.3-4 1.9-.2-.3-.3-.6-.6-.8 1.6-.6 3-1.3 4.1-1.9zm-2-4.3h1.9v-2.1h-1.9zm0 3.1h1.9v-2.2h-1.9zm2.7-3.1h1.9v-2.1h-1.9zm0 3.1h1.9v-2.2h-1.9zm2.4 1.3c1.4.6 2.7 1.2 4.1 1.8l-.5.9c-1.5-.7-2.8-1.4-4.1-1.9zm2.2-6.5h-1.9v2.1h1.9zm-1.9 5.2h1.9v-2.2h-1.9z"/></g></svg>