<svg enable-background="new 0 0 400 400" viewBox="0 0 400 400" xmlns="http://www.w3.org/2000/svg"><path d="m374.8 390.4.4-.4c.7.5 1.3 1 1.8 1.4l-.5.5c-.5-.6-1.1-1.1-1.7-1.5zm1 7.3-.6-.3c.5-1.4 1.1-2.8 1.5-4.3.2.1.4.2.6.3-.5 1.3-1 2.8-1.5 4.3zm-.4-10.3.4-.4c.4.3 1 .8 1.7 1.4l-.5.5c-.4-.5-1-1-1.6-1.5zm2.5.3h1.7v-1h.6v1h3.5v-1h.6v1h1.8v.5h-1.8v1.4h-2v1h3.2v2h-3.2v.9h3.3v.5h-3.4c0 .3-.1.6-.1.9h4v.5h-3.7c.7.9 1.9 1.5 3.8 1.7-.1.2-.2.4-.3.6-2.1-.4-3.5-1.1-4-2.1-.4 1-1.8 1.7-4 2.2-.1-.2-.2-.4-.3-.6 2.1-.4 3.4-1 3.8-1.8h-3.4v-.5h3.6c.1-.3.1-.6.2-.9h-3.3v-.5h3.4c0-.3 0-.6 0-.9h-3.2v-2h3.3v-1h-2.1v-1.4h-1.7v-.5zm1.1 3.5v1h2.7c0-.3 0-.4 0-.4 0-.1 0-.2 0-.2 0-.1 0-.2 0-.3h-2.7zm1.2-3v.9h3.5v-.9zm4.7 3h-2.6v.6.4h2.6z" fill="#fbfcfa"/><path d="m393.6 386.7h.6v1.5h2.7v6.1h1.1v.6h-11v-.6h1.1v-6.1h2.7v-1.5h.6v1.5h2.1v-1.5zm-2.7 8.8.4.6c-1.2.6-2.5 1.3-3.8 1.9-.1-.2-.2-.4-.3-.6 1.2-.6 2.5-1.2 3.7-1.9zm-2.2-6.7v2.4h2.1v-2.4zm0 3v2.5h2.1v-2.5zm2.8-3v2.4h2.1v-2.4zm0 3v2.5h2.1v-2.5zm6 6.1c-1.4-.7-2.7-1.3-3.9-1.8l.3-.6c1.5.6 2.7 1.2 3.9 1.7zm-1.2-9.1h-2.1v2.4h2.1zm-2.1 3v2.5h2.1v-2.5z" fill="#fbfcfa"/><path d="m261.17 326.7c-2.67-2.46-4.28-5.47-3.87-9.8.34-3.55-2.91-5.06-5.94-5.78-3.14-.75-6.37-1.22-9.59-1.58-5.07-.56-9.56-2.26-12.76-5.9-2.24 1.48-4.12 3.35-6.38 4.08-4.51 1.45-7.97-.05-10.71-4.31-4.11-6.4-4.06-13.32-3.78-20.39.02-.45.01-.92.15-1.33 2.73-7.98.8-15.86-.24-23.81-.43-3.31-.24-6.92.65-10.13 1.41-5.09 1.81-10.17 1.06-15.26-1-6.78.02-13.02 3-19.16.83-1.7 1.13-4.27.47-5.97-2.09-5.34-.1-10.21.61-15.37 1.58-11.5 2.36-23.11 3.57-34.67.54-5.11 1.27-10.21 2.09-15.28.15-.93.98-1.99 1.8-2.53 6.65-4.3 13.58-4.08 19.92.57 4.77 3.5 10.25 4.53 15.9 3.95 1.38-.14 3.25-2.4 3.63-3.99.61-2.52.65-5.41.04-7.93-1.44-5.94-1.16-11.47 2.07-16.75 1.07-1.75 1.08-3.35-.09-5.25-2.72-4.45-2.66-9.17-1.38-14.23 1.01-4.01 1.54-8.36 1.17-12.46-.4-4.38-2.16-5.43-6.62-5.32-3.68.09-7.42.27-11 1.02-7.78 1.63-15.24 1.61-22.3-2.6-1.03-.62-2.24-.95-3.75-1.57-1.75 6.46-6.77 4.79-11.17 4.7-5.03-.1-10.08-.04-15.09-.43-3.15-.24-6.24-1.21-9.38-1.77-.9-.16-2.11-.4-2.74.03-5.68 3.89-11.77 3.11-18.11 2.38-4.91-.56-10.01-.26-14.93.38-4.05.52-6.47 3.99-5.85 8.05.77 5.02.07 9.48-2.76 13.73-.71 1.07-.81 2.78-.68 4.14 1.06 11.59 2.2 23.17 3.4 34.74.26 2.52 1.59 4.1 4.45 3.82 11.24-1.11 22.48-2.14 33.71-3.36 1.92-.21 3.21.15 4.24 1.74 3.86 5.97 5.96 12.47 5.91 19.61 0 .66.02 1.46-.32 1.96-2.29 3.49-2.61 7.25-1.77 11.22.11.5.01 1.21-.29 1.6-2.64 3.46-1.7 7.42-1.82 11.3-.22 7.01-.77 14.01-1.18 21.02-.06 1.1-.55 2.49-.07 3.25 4.37 6.93 1.7 14.12.92 21.19-1.48 13.34-3.54 26.63-4.65 40-.5 5.98-3.66 10.15-6.79 14.56-1.01 1.42-2.73 3.73-3.7 3.54-2.88-.57-6.4-.85-7.55-4.58-.16-.53-.49-1-.75-1.5-4.18-8.02-7.46-9.31-16.22-6.36-1.91.64-3.75 1.61-5.7 1.95-4.23.73-6.08 3.5-6.49 7.32-.79 7.32-1.51 14.66-1.96 22.01-.8 13.05-1.4 26.12-2.03 39.18-.33 6.74-4.08 10.35-10.83 11.7-3.55-5.74-5.45-12.21-6.06-19.03-1.18-13.27 1.11-26.32 2.79-39.41.95-7.43 1.24-14.94 2.15-22.37.34-2.76 1.28-5.57 2.51-8.08 1.79-3.67-2.96-4.09-2.94-7.02.1-12.85-.63-25.73-.05-38.55.81-18.11 2.51-36.17 3.81-54.26.05-.66.15-1.41-.08-1.99-3.41-8.66-1.54-17.48-.64-26.19 1.18-11.39 1.72-22.72.54-34.14-.24-2.33.55-4.79.98-7.16.81-4.48 2.4-8.94 2.4-13.41.01-7.18-3.94-9.45-10.71-7.1-3.27 1.13-6.54 2.3-9.89 3.13-3.76.93-5.93-.07-7.75-3.57-1.53-2.95-2.72-6.08-4.02-9.03 3.5-3.41 7.01-5.13 11.84-3.42 7.64 2.71 15.07-.25 22.32-2.06 1.87-.47 3.46-4.43 4.01-7.03.52-2.46-.31-5.29-.85-7.89-.89-4.26.37-6.27 4.78-6.31 8.66-.09 10.2.25 12.48 9.43.38 1.51.53 3.26 1.41 4.42.95 1.26 2.55 2.6 4.02 2.81 7.53 1.08 15.1 1.85 22.66 2.62 1.86.19 3.99.48 5.61-.2 5.76-2.44 11.7-2.57 17.76-2.33 15.93.64 31.72-.43 47.38-3.7 3.95-.82 8.24-.36 12.32.01 1.8.16 2.6-.26 3.49-1.61 2.37-3.62 2.91-7.57 3-11.82.12-6.44.73-12.87 1.21-19.3.06-.84.58-1.64.91-2.53 4.22 1 6.45 3.75 7.08 7.7.58 3.63.62 7.36 1.2 10.99 1.73 10.86 3.7 13.04 15.66 15.46 4.98 1.01 9.65 2.1 12.1 7.73-2.82 1.26-5.62 2.52-8.42 3.76-9.17 4.07-13 9.86-11.85 19.84 1.17 10.21-1.07 20.03-2.03 30.02-.3 3.1.68 6.32 1.02 9.48.2 1.86.75 3.84.34 5.57-1.36 5.81-.28 11.36 1.35 16.84.93 3.14.68 5.62-2.18 7.55-.63.43-1.08 1.12-1.7 1.79.7.91 1.37 1.79 2.04 2.67 2.42 3.16 3.31 6.52 2.71 10.64-.93 6.39-1.49 12.88-1.63 19.34-.25 11.53.05 23.06-.11 34.6-.12 8.64.52 17.16 1.83 25.72.6 3.93.15 8.42-1.18 12.17-1.78 4.99-2.16 9.75-1.1 14.78 1.39 6.59.34 12.99-.62 19.59-1.55 10.69-1.89 21.56-2.66 32.37-.4 5.69-.47 11.4-4.23 16.23-.61.78-.66 2.09-.72 3.17-.11 1.9-.34 3.87.02 5.7 1.57 7.98-2.53 12.49-9.83 15.73-.89-4.64-2.16-9.23-2.6-13.9-.9-9.46-1.48-18.97-1.87-28.47-.05-1.58 1.46-3.23 2.47-5.35zm-1.54-30.66c0-2.25-.09-3.92.02-5.58.42-6.68.84-13.36 1.39-20.03.58-7.02 1.55-14.02 1.87-21.05.21-4.73-.76-9.41-3.96-13.22-.63-.75-1.87-1.64-2.66-1.51-6.59 1.12-13.17 2.29-19.68 3.82-5.05 1.18-10.74 8.71-10.4 13.7.81 11.83 1.5 23.7 3.05 35.45.4 3.01 3.79 5.62 5.8 8.42zm-24.38-136.09c-.59 9.56-.82 18.63-1.81 27.61-.82 7.4-2.38 14.74-3.9 22.04-.88 4.24 2.54 9.36 6.88 9.63 3.01.19 6.05.74 9.03.5 4.06-.33 8.11-1.1 12.08-2.04.96-.23 2.02-1.72 2.3-2.81 1.3-5.07 2.46-10.14.27-15.39-.67-1.61-.26-3.75-.05-5.62 1.23-11 2.6-21.99 3.81-32.99.66-6-2.42-8.17-8.16-6.16-6.68 2.34-12.88 6.47-20.45 5.23zm-66.74 73.37c-5.06-5.89-3.4-11.11 6.91-22.36-2.4-1.69-4.65-2.42-7.69-1.26-8.46 3.21-17.05 6.07-25.59 9.07-7.16 2.52-9.9 6.64-9.41 14.23.22 3.46.48 6.92.77 10.38.64 7.78 1.32 15.57 1.94 22.95 7.42 3.21 14.53 2.47 21.8 1.19 4.48-.79 6.77-3.29 7.67-7.22.55-2.43.67-5.16.18-7.6-1.39-6.91-.76-13.34 3.42-19.38zm.03-77.83c-9.44 3.83-18.56 7.45-27.58 11.28-.9.38-1.67 1.95-1.81 3.05-.65 5.21-1.35 10.44-1.44 15.67-.07 3.84.52 7.75 1.32 11.52.49 2.3 2.13 3.76 4.94 4.21 8.64 1.4 16.34-.82 23.69-5.11 1.85-1.08 2.89-2.39 3.14-4.68.6-5.54 1.38-11.08 2.38-16.57 1.28-7.06-.96-13.16-4.64-19.37z" fill="#010101"/></svg>