<svg enable-background="new 0 0 400 400" viewBox="0 0 400 400" xmlns="http://www.w3.org/2000/svg"><g fill="#fbfafc"><path d="m12.4 4.8-6.1 9h6v1.2h-8v-.5l6.1-8.9h-5.7v-1.2h7.6v.4z"/><path d="m14 15v-10.6h3c1.6 0 2.9.5 4 1.4s1.6 2.2 1.6 3.8-.5 3-1.6 3.9-2.4 1.5-4 1.5zm1.4-9.4v8.2h1.6c1.3 0 2.4-.4 3.1-1.1s1.1-1.8 1.1-3.1-.4-2.3-1.2-3-1.8-1-3.1-1z"/><path d="m26.1 4.4v10.6h-1.4v-10.6z"/><path d="m36.1 14.6c-.8.4-1.8.6-2.9.6-1.5 0-2.7-.5-3.6-1.4s-1.4-2.2-1.4-3.8c0-1.7.5-3.1 1.5-4.1s2.3-1.6 3.9-1.6c1 0 1.8.1 2.5.4v1.4c-.8-.4-1.6-.6-2.5-.6-1.2 0-2.1.4-2.9 1.2s-1.1 1.8-1.1 3.2c0 1.3.3 2.3 1 3s1.6 1.1 2.7 1.1c1 0 2-.2 2.7-.7v1.3z"/><path d="m37.6 14.3c0-.2.1-.5.3-.6s.4-.3.6-.3c.3 0 .5.1.6.3s.3.4.3.6-.1.4-.3.6-.4.3-.6.3c-.3 0-.5-.1-.6-.3s-.3-.4-.3-.6z"/><path d="m50.2 15h-1.6l-5.3-8.2c-.2-.2-.3-.5-.4-.7 0 .2.1.7.1 1.5v7.4h-1.4v-10.6h1.7l5.2 8.1c.2.4.4.6.4.7 0-.3-.1-.8-.1-1.5v-7.3h1.4z"/><path d="m58.6 15h-5.7v-10.6h5.5v1.2h-4.1v3.4h3.8v1.2h-3.8v3.6h4.3z"/><path d="m67.1 5.6h-3.1v9.4h-1.4v-9.4h-3v-1.2h7.5z"/></g><path d="m159.17 169.31c3.1-9.94 6.52-19.64 9.11-29.57 3.41-13.01 9.84-24.4 17.46-35.23 3.6-5.12 7.19-10.31 11.33-14.98 8.99-10.15 15.67-21.71 21.74-33.71 2.01-3.97 4.23-7.84 6.33-11.72 7.92 2.74 10.36 6.2 9.88 14.54-.32 5.58-.97 11.14-1.63 16.7-.12.98-.96 1.91-1.6 2.77-.8 1.07-2.09 1.9-2.52 3.07-.64 1.74-1.74 4.08 1.37 4.82 21.68 5.17 43.49 9.68 65.9 9.28 9.11-.16 7.11.39 7.82-7.58.75-8.37-1.36-16.43-4.16-24.29-3.28-9.19-3.7-18.35.36-27.44.68-1.51 1.46-2.98 2.16-4.39 7.59.94 12.86 4.16 15.74 11.6 8.1 20.95 14.28 42.39 16.38 64.78 2.43 25.86 6.03 51.52 10.42 77.11 5.45 31.73 10.5 63.54 15.88 95.28 2.07 12.23 4.87 24.34 6.79 36.6 1.33 8.48 1.64 17.12 2.56 25.68.36 3.33 1.54 6.6 1.6 9.91.07 3.84-.51 7.72-1.2 11.52-.16.9-1.77 1.85-2.88 2.14-.58.15-1.78-.91-2.27-1.69-5.21-8.2-7.47-17.47-8.94-26.86-1.42-9.04-4.08-17.64-7.74-25.92-4.25-9.6-4.97-19.9-6.7-30-3.42-19.96-7.05-39.78-15.05-58.63-2.33-5.49-2.23-12.03-3.11-18.11-.99-6.85-1.61-13.77-2.86-20.57-.48-2.63-2.02-5.17-3.51-7.48-1.2-1.85-3.08-2.24-5.26-.94-4.54 2.72-9.83 4.44-12.14 9.95-.34.81-1.46 1.34-2.29 1.88-8.16 5.3-16.33 10.59-24.53 15.82-.99.63-2.29 1.42-3.31 1.26-3.47-.54-5.36 1.3-7.12 3.8-.59.84-1.56 1.68-2.52 1.93-6.87 1.81-13.78 3.49-20.69 5.17-1.17.29-2.4.62-3.58.54-6.33-.4-12.66-1.31-18.99-1.3-11.96.02-22.86-3.62-33.44-8.66-.88-.42-1.62-1.17-2.35-1.84-4.26-3.95-9.24-6.56-14.75-8.36-2.4-.78-3.49-.38-4.61 1.93-4.33 8.96-8.82 17.83-13.41 26.66-.88 1.7-2.27 3.32-3.81 4.47-7.7 5.77-15.46 11.47-23.35 16.97-2.21 1.54-4.86 2.92-7.47 3.36-13.43 2.25-26.21 6.56-38.77 11.6-3.94 1.58-7.88 2.33-12.1 1.78-1.65-.21-3.36-.13-5.03-.05-4.21.19-5.96 1.72-6.87 5.89-2.94 13.57-2.94 27.31-2.42 41.09.48 12.75 1.01 25.5 1.23 38.25.11 6.39-1.99 12.35-5.45 17.71-2.47 3.82-3.68 3.97-7.62 1.92-7.75-4.04-7.35-4.1-8.62-12.66-5.8-39.29-3.45-78.84-4.16-118.3-.17-9.7-1.24-19.39-1.97-29.09-1.14-15.05.36-29.93 2.39-44.81.79-5.75 1.43-11.57 1.5-17.37.11-8.97 2.85-17.23 6.61-25.08 1.71-3.58 5.51-5.83 9.83-6.11 2.38-.16 5.89 4.39 5.68 7.11-.33 4.46-.81 8.92-.98 13.39-.15 3.87 1.65 5.8 5.42 5.6 5.19-.28 9.7-1.23 12.54-6.91 5.65-11.29 12.1-22.17 18.36-33.15.75-1.32 2.18-2.75 3.57-3.12 6.12-1.65 12.31-3.04 18.53-4.24 1.05-.2 2.75.71 3.52 1.64 3.56 4.31 7.1 8.67 10.27 13.27 5.4 7.84 12.13 14.21 19.73 19.88 4.44 3.32 8.32 7.41 12.31 11.31 1.96 1.91 2.47 3.92-.14 6.14-3.8 3.22-5 7.49-4 12.43.92 4.4 7.22 11.06 11.6 11.61zm56.93 14.8c16.95-.82 33.33-4.11 49.38-9.15 11.25-3.53 21.99-8.16 31.21-15.73 3.23-2.65 2.53-7.58-1.5-8.65-3.38-.9-7.06-1.42-10.53-1.16-20.72 1.52-41.42 3.36-62.13 5.01-7.88.63-15.71 1.66-23.59-.91-2.71-.88-6.17.08-9.17.75-1.04.23-2.52 2.17-2.44 3.23.45 5.74 1.03 11.51 2.14 17.16.77 3.92 3.27 6.59 7.74 7.04 6.31.63 12.59 1.59 18.89 2.41zm98.75-57.23c.14-6.89-1.88-9.71-8.49-11.78-1.06-.33-2.14-.69-3.24-.82-14.97-1.78-29.93-3.77-44.94-5.2-13.41-1.28-26.69-2.67-38.86-9.13-.8-.43-2.65-.17-3.23.47-2.86 3.19-5.68 6.46-8.09 10-2.06 3.02-3.22 6.66-5.37 9.6-1.62 2.22-1.49 4.07-.52 6.19 1.66 3.61 4.82 4.34 8.39 4.2 10.6-.44 21.2-.97 31.8-1.26 7.15-.2 14.32.05 21.47-.07 3.52-.06 6.84.15 9.95 2.12 1.01.64 2.55.55 3.85.61 5.28.25 10.91-2.74 15.72 1.77.13.12.43.07.65.09 3.98.29 7.95.57 11.93.86 5.53.38 8.88-2.47 8.98-7.65zm-265.45 103.07c-.27.07-.54.15-.81.22 1.35 4.09 2.5 8.26 4.17 12.22.49 1.16 2.4 2.27 3.77 2.42 6.1.69 11.71-1.22 17.05-3.97 11.35-5.83 20.77-14.31 30.66-22.17 7.74-6.15 13.4-13.69 16.84-22.92.69-1.86 1.43-3.82 1.55-5.77.29-5.14-3.34-7.66-7.93-5.54-21.16 9.78-41.27 21.36-60.21 35-3.81 2.75-5.41 6.02-5.09 10.51zm-1.64-40.07c1.7-1.02 3.16-1.8 4.53-2.73 7.45-5.03 15.42-8.97 23.93-11.85 1.57-.53 3.19-1.17 4.5-2.16 11.27-8.46 22.48-16.98 33.66-25.56.78-.6 1.56-1.73 1.61-2.64.23-4.74-1.08-9.13-4.24-12.72-3.85-4.37-8.42-4.34-12.31-.15-1.67 1.8-3.39 3.56-5.03 5.4-10.04 11.31-20.5 22.12-33.71 29.88-2.78 1.63-5.26 3.79-7.78 5.83-7.7 6.27-7.68 6.3-5.16 16.7z" fill="#000001"/></svg>