<svg enable-background="new 0 0 400 400" viewBox="0 0 400 400" xmlns="http://www.w3.org/2000/svg"><path d="m374.8 390.4.4-.4c.7.5 1.3 1 1.8 1.4l-.5.5c-.5-.6-1.1-1.1-1.7-1.5zm1 7.3-.6-.3c.5-1.4 1.1-2.8 1.5-4.3.2.1.4.2.6.3-.5 1.3-1 2.8-1.5 4.3zm-.4-10.3.4-.4c.4.3 1 .8 1.7 1.4l-.5.5c-.4-.5-1-1-1.6-1.5zm2.5.3h1.7v-1h.6v1h3.5v-1h.6v1h1.8v.5h-1.8v1.4h-2v1h3.2v2h-3.2v.9h3.3v.5h-3.4c0 .3-.1.6-.1.9h4v.5h-3.7c.7.9 1.9 1.5 3.8 1.7-.1.2-.2.4-.3.6-2.1-.4-3.5-1.1-4-2.1-.4 1-1.8 1.7-4 2.2-.1-.2-.2-.4-.3-.6 2.1-.4 3.4-1 3.8-1.8h-3.4v-.5h3.6c.1-.3.1-.6.2-.9h-3.3v-.5h3.4c0-.3 0-.6 0-.9h-3.2v-2h3.3v-1h-2.1v-1.4h-1.7v-.5zm1.1 3.5v1h2.7c0-.3 0-.4 0-.4 0-.1 0-.2 0-.2 0-.1 0-.2 0-.3h-2.7zm1.2-3v.9h3.5v-.9zm4.7 3h-2.6v.6.4h2.6z" fill="#fbfcfa"/><path d="m393.6 386.7h.6v1.5h2.7v6.1h1.1v.6h-11v-.6h1.1v-6.1h2.7v-1.5h.6v1.5h2.1v-1.5zm-2.7 8.8.4.6c-1.2.6-2.5 1.3-3.8 1.9-.1-.2-.2-.4-.3-.6 1.2-.6 2.5-1.2 3.7-1.9zm-2.2-6.7v2.4h2.1v-2.4zm0 3v2.5h2.1v-2.5zm2.8-3v2.4h2.1v-2.4zm0 3v2.5h2.1v-2.5zm6 6.1c-1.4-.7-2.7-1.3-3.9-1.8l.3-.6c1.5.6 2.7 1.2 3.9 1.7zm-1.2-9.1h-2.1v2.4h2.1zm-2.1 3v2.5h2.1v-2.5z" fill="#fbfcfa"/><g fill="#010101"><path d="m35.41 211.5c-6.02-5.5-7.02-11.82-6.44-18.68.27-3.23.42-6.48.41-9.73-.01-2.53.83-4.12 3.33-5.06 2.64-1 5.12-2.46 8.35-4.06-3.48-1.02-6.11-1.78-8.4-2.45 1.13-1.26 3.11-2.45 3.14-3.69.08-2.57.26-5.43-3.11-7.02-4.21-1.98-6.47-5.9-7.21-10.36-.83-4.95-1.59-10.01-1.42-14.98.09-2.57 2.27-5.08 3.68-7.97-.14-.17-.56-.8-1.08-1.35-3.91-4.09-5.29-8.98-3.31-14.22 3.17-8.4 5.98-16.79 5.69-26.15.51.65 1.14 1.24 1.51 1.96 5.13 10.05 10.21 20.11 15.33 30.16 1 1.96.9 3.58-1.11 4.84-5.16 3.24-5.7 7.88-5.08 13.58 2 18.48 4.17 36.9 9.09 54.87.49 1.81 1.78 3.52 3.07 4.95 1.71 1.9 3.67 3.64 5.72 5.17 6.74 5.04 11.76 11.13 13.29 19.7.19 1.08 1.38 2.45 2.42 2.84 8.8 3.23 13.45 10 17.54 18.07 5.83 11.51 11.07 23.18 15.05 35.43 2.11 6.48 5.93 11.2 12.93 12.74 2.03.45 3.15.04 4.12-2.07 5.43-11.89 11.17-23.65 16.53-35.57 1.04-2.31 1.45-5.25 1.14-7.77-1.12-9.11 4.28-13.91 11.03-18.13 1.92-1.2 3.78-2.75 5.13-4.54 1.39-1.84 1.34-3.88-1.14-5.34-1.71-1-3.19-2.41-5.22-3.99 9.22-5.92 6.94-14.6 5.61-22.8-1.09-6.73-.61-12.87 2.6-19.04 3.19-6.13 5.62-12.66 8.29-19.06.45-1.07 1-2.63.56-3.46-4.24-7.93-1.86-16.25-1.54-24.41.36-9.28 1.28-18.53 1.75-27.81.12-2.46.92-3.27 3.34-3.35 4.56-.15 9.1-.62 14.08-.98 0 5.85.01 11.4-.02 16.96 0 .41-.25.87-.51 1.21-3.49 4.5-3.44 9.21-1 14.16.53 1.08.66 2.36.98 3.55 1.26 4.56.74 8.43-3.48 11.49-4.35 3.15-4.89 7.49-2.66 12.22 2.03 4.32.11 7.98-2.24 11.24-2.02 2.8-2.25 4.78-.23 7.84 1.76 2.67 3.28 6.34 2.99 9.39-1.31 13.71 3.72 26.21 6.67 39.11.61 2.67 1.7 5.33 3.03 7.74 10.41 18.77 20.83 37.54 31.48 56.18 2.99 5.23 6.41 10.29 10.26 14.9 2.57 3.08 5.97 5.78 9.51 7.68 3.85 2.07 7.8 1.4 11.99-.97 10.25-5.79 18.17-13.53 23.42-24.04 3.61-7.24 8.97-12.69 16.33-16.13.5-.24.93-.63 1.44-.87 10.34-4.93 18.21-12.22 22.43-23.12.5-1.28 1.64-2.38 2.67-3.37 8.79-8.46 17.53-16.98 26.5-25.25 2.66-2.46 3.9-5.22 4.48-8.64 2.25-13.17.93-26.33.37-39.52-.34-7.92-.06-15.86-.06-24.25 3.13-.77 6.54-1.74 10.01-2.33.75-.13 2.04.96 2.57 1.81 4.31 6.86 5.49 14.35 3.84 22.23-1.97 9.39-.43 18.18 4.26 26.46 1.87 3.3 2.05 6.6 1.17 10.29-1.61 6.74-2.73 13.59-4.22 20.36-.29 1.34-1.12 2.66-2.01 3.74-2.18 2.68-4.54 5.21-6.2 7.1 2.52 5.64 5.04 10.65 7 15.88 1.27 3.39.81 6.76-1.05 10.25-4.23 7.96-5.32 16.77-5.64 25.67-.3 8.4-.62 16.77-3.89 24.71-2.48 6.01-6.42 10.55-12.14 13.8-12.88 7.33-26.84 10.85-41.39 12.71-21.19 2.7-42.33 5.76-63.54 8.31-21.85 2.63-43.76 2.61-65.64.03-8.77-1.03-17.51-2.37-26.27-3.5-.95-.12-2.04-.01-2.93.33-13.28 5.09-26.5 3.44-39.44-.92-7.15-2.41-14.03-5.79-20.76-9.26-8.44-4.35-16.53-9.39-24.92-13.84-3.17-1.68-5.18-4-6.62-7.15-5.39-11.77-8.81-24.17-11.3-36.78-3.23-16.33-5.79-32.8-8.63-49.21-.17-.99-.18-2.01-.32-3-.4-2.71-.38-5.2 4.04-5.47zm95.14 110.69c4.41-.36 8.19-.96 11.97-.93 13.41.12 26.81.33 40.21.73 12.89.39 25.41-.84 37.3-6.4 5.43-2.54 5.15-4.55 2.16-8.73-2.62-3.67-6.15-6.79-9.65-9.71-5.86-4.89-10.61-10.6-13.67-17.55-3.65-8.26-7.11-16.62-10.42-25.02-3.37-8.57-7.17-16.87-13.16-23.98-1.06-1.26-2.24-3.01-3.62-3.31-3.98-.84-8.09-1.05-12.51-1.55 1.27 6.1 2.59 11.64 3.48 17.25.28 1.78-.12 3.99-.99 5.58-2.57 4.7-5.38 9.29-8.37 13.74-5.53 8.22-10.05 16.77-11.53 26.78-1.15 7.81-4.59 14.66-10.15 20.38-.51.52-.98 1.33-1 2.03-.1 3.44-.05 6.87-.05 10.69zm151.16-10.52c.51.35.68.55.88.58 21 3.94 41.15.38 60.85-7 .66-.25 1.48-1.16 1.51-1.8.48-10.06 3.01-20.21-1.74-30.03-.77-1.59-.43-3.87-.14-5.77.7-4.63 1.83-9.21 2.49-13.85.43-3.03-.47-5.79-3.22-7.61-2.71-1.79-5.24-1.61-8.07.11-4 2.44-8.24 4.51-12.44 6.59-1.97.97-3.28 2.13-3.23 4.51.1 4.38-2.17 7.18-5.99 9.1-9.24 4.66-16.13 11.81-21.46 20.59-.81 1.33-1.7 2.67-2.77 3.79-5.66 5.97-4.99 13.79-6.67 20.79zm-234.47-55.88c.06.46.02.82.15 1.11 6.84 15.05 13.68 30.11 20.59 45.13.37.8 1.27 1.59 2.1 1.89 6.62 2.36 13.22 4.84 19.97 6.8 4.15 1.21 8.49 1.08 12.38-1.22-3.35-3.26-6.77-6.14-9.64-9.5-2.89-3.38-5.65-7.01-7.73-10.92-4.11-7.74-8.08-15.72-2.33-24.67-3.83-4.19-7.46-8.62-11.59-12.52-3.61-3.4-5.07-7.47-5.52-12.14-.23-2.34-.45-4.68-.57-7.02-.33-6.66-3.67-9.67-10.82-9.43-1.1 6.51-1.37 12.99.32 19.52 1.53 5.92.09 8.91-5.31 11.87-.67.37-1.35.74-2 1.1zm-11.89-113.82c1-.51 1.74-.89 2.68-1.37-1.21-2.35-2.31-4.5-3.42-6.65-.16.07-.32.14-.48.22.4 2.51.79 5.02 1.22 7.8z"/><path d="m170.79 59.41c9.15 2.22 11.42 9.05 9.74 22.34-2.46-.86-4.87-1.58-7.17-2.58-.64-.27-1.27-1.31-1.33-2.04-.48-5.86-.84-11.74-1.24-17.72z"/></g></svg>