<svg enable-background="new 0 0 400 400" viewBox="0 0 400 400" xmlns="http://www.w3.org/2000/svg"><path d="m374.8 390.4.4-.4c.7.5 1.3 1 1.8 1.4l-.5.5c-.5-.6-1.1-1.1-1.7-1.5zm1 7.3-.6-.3c.5-1.4 1.1-2.8 1.5-4.3.2.1.4.2.6.3-.5 1.3-1 2.8-1.5 4.3zm-.4-10.3.4-.4c.4.3 1 .8 1.7 1.4l-.5.5c-.4-.5-1-1-1.6-1.5zm2.5.3h1.7v-1h.6v1h3.5v-1h.6v1h1.8v.5h-1.8v1.4h-2v1h3.2v2h-3.2v.9h3.3v.5h-3.4c0 .3-.1.6-.1.9h4v.5h-3.7c.7.9 1.9 1.5 3.8 1.7-.1.2-.2.4-.3.6-2.1-.4-3.5-1.1-4-2.1-.4 1-1.8 1.7-4 2.2-.1-.2-.2-.4-.3-.6 2.1-.4 3.4-1 3.8-1.8h-3.4v-.5h3.6c.1-.3.1-.6.2-.9h-3.3v-.5h3.4c0-.3 0-.6 0-.9h-3.2v-2h3.3v-1h-2.1v-1.4h-1.7v-.5zm1.1 3.5v1h2.7c0-.3 0-.4 0-.4 0-.1 0-.2 0-.2 0-.1 0-.2 0-.3h-2.7zm1.2-3v.9h3.5v-.9zm4.7 3h-2.6v.6.4h2.6z" fill="#fbfcfa"/><path d="m393.6 386.7h.6v1.5h2.7v6.1h1.1v.6h-11v-.6h1.1v-6.1h2.7v-1.5h.6v1.5h2.1v-1.5zm-2.7 8.8.4.6c-1.2.6-2.5 1.3-3.8 1.9-.1-.2-.2-.4-.3-.6 1.2-.6 2.5-1.2 3.7-1.9zm-2.2-6.7v2.4h2.1v-2.4zm0 3v2.5h2.1v-2.5zm2.8-3v2.4h2.1v-2.4zm0 3v2.5h2.1v-2.5zm6 6.1c-1.4-.7-2.7-1.3-3.9-1.8l.3-.6c1.5.6 2.7 1.2 3.9 1.7zm-1.2-9.1h-2.1v2.4h2.1zm-2.1 3v2.5h2.1v-2.5z" fill="#fbfcfa"/><g fill="#010101"><path d="m54.52 309.88c6.55 2.16 13.28 2.8 19.08 7.84 9.26 8.04 20.18 13.68 32.51 15.78 3.38.58 6.91.31 10.36.43 2.38.08 3.46-1.13 4.11-3.42 3.63-12.68 7.36-25.33 11.21-37.94.52-1.7 1.66-3.4 2.95-4.65 3.29-3.19 6.75-6.22 10.31-9.12 1.76-1.43 2.29-2.99 2.28-5.18-.08-16.23-.09-32.47.03-48.7.01-1.88.53-4.12 1.64-5.55 4.27-5.51 6.01-11.47 6.21-18.53.53-18.34 2.35-36.65 2.66-54.99.17-10.12-1.47-20.29-2.68-30.39-2.08-17.32-4.76-34.58-6.6-51.92-1.27-11.91-1.5-23.92 1.62-35.69.14-.52.37-1.03.61-1.69 5.08.11 9.83 1.18 14.13 3.74 5.05 3.01 7.35 7.66 7.34 13.46-.02 8.28-.95 16.65.06 24.8 1.2 9.7 4.07 19.19 6.14 28.79 2.89 13.42 5.78 26.84 8.46 40.31.44 2.2.17 4.7-.37 6.92-3.1 12.82-6.45 25.58-9.52 38.4-.36 1.51-.05 3.57.75 4.9 13.09 21.76 26.21 43.49 39.61 65.06 1.66 2.67 4.8 4.54 7.49 6.45 7.29 5.19 9.6 11.23 7.35 19.97-1.36 5.31-.14 8.67 4 11.32 1.37.88 2.36 1.09 3.78-.21 5.33-4.85 6.71-4.75 12.89-.95 2.43 1.5 5.28 2.34 7.96 3.42 2.28.92 4.18.39 6.2-1.11 8.53-6.34 17.27-12.4 25.75-18.81 3.01-2.27 6.01-3.62 9.81-3.16 1.65.2 3.34.03 5.43.03.65-4.81 1.24-9.53 1.97-14.23.16-1.01.53-2.32 1.27-2.85 8.99-6.43 18.07-12.75 27.9-19.63-.87 5.45-1.6 10.1-2.37 14.73-.53 3.2-1.45 6.37-1.59 9.59-.22 5.13-2.53 8.77-6.6 11.66-1.91 1.35-3.37 3.35-5.33 4.6-5.06 3.24-6.62 7.91-6.6 13.62.01 3.56-.69 7.13-.88 10.7-.12 2.34-1.12 3.12-3.43 3.45-14.95 2.11-29.87 4.41-44.8 6.64-.32.05-.63.16-1.43.36v7.85c0 7.39-.04 14.78.03 22.17.02 1.74-.31 2.85-2.14 3.6-22.66 9.25-45.29 18.59-67.92 27.89-.39.16-.82.24-1.42.41-1.74-3.43-3.46-6.81-5.44-10.7-.76 1.14-1.35 1.97-1.89 2.83-9.56 15.31-13.67 16.77-31.79 13.66-7.29-1.25-14.21-4.61-21.33-6.91-17.25-5.59-34.3-11.57-50.06-20.79-14.8-8.66-24.37-21.39-29.98-37.36-.01-.18.14-.41.27-.9zm123.9-73.28c-3.41 6.32-6.78 11.87-9.47 17.74-3 6.57-6.94 11.84-14.17 13.98-1.86.55-2.31 1.81-1.86 3.63.85 3.47 1.78 6.94 2.35 10.46.58 3.6 1.34 7.32 1.01 10.89-.64 6.94-4.8 12.34-8.88 17.74-1.26 1.66-2.05 3.85-2.47 5.92-.97 4.81-1.01 9.87-2.45 14.51-2.48 8-.19 14.44 4.88 20.47 1.18 1.41 2.22 1.76 4.02 1.14 4.64-1.6 9.34-3.08 14.08-4.36 20.87-5.63 40.79-13.33 58.26-26.4 1.15-.86 2.16-2.48 2.41-3.9.83-4.73 1.31-9.52 1.88-14.3.49-4.17.92-8.34 1.39-12.64-4.81-1.12-9.3-2-13.69-3.28-1.54-.45-3.21-1.56-4.13-2.86-4.97-7.03-9.72-14.22-14.55-21.34-6.08-8.96-12.17-17.91-18.61-27.4zm-41.74 120.39c-2.73-2.76-5.22-5.28-7.77-7.87v6.42c2.64.49 5.1.95 7.77 1.45z"/><path d="m303.22 168.67c-4.86-.54-9.28-.98-13.68-1.59-.74-.1-1.66-.8-2.02-1.47-14.42-27.05-18.77-54.94-6.79-84.13.04-.09.18-.13.45-.31 5.61.13 9.6 3.24 11.91 8.13 1.84 3.89 2.97 8.15 4 12.35.39 1.59-.06 3.57-.64 5.18-1.51 4.2-3.14 8.37-5.05 12.4-1.23 2.59-1.02 4.28 1.19 6.28 2.88 2.61 5.45 5.62 7.9 8.66 5.1 6.32 7.33 13.49 5.62 21.62-.89 4.22-1.89 8.43-2.89 12.88z"/><path d="m85.02 207.18c-1.84-7.17-3.65-14.05-5.29-20.97-.17-.72.53-1.89 1.16-2.52 1.9-1.87 3.97-3.58 5.65-5.06-7.12-12.67-6.17-24.82-1.72-37.42 7.36 1.13 12.43 5.13 14.91 11.63 1.92 5.04 3.15 10.5 3.72 15.87 1.14 10.83.9 21.69-2.96 32.09-.47 1.28-1.96 2.61-3.28 3.06-3.79 1.29-7.73 2.14-12.19 3.32z"/></g></svg>