<svg enable-background="new 0 0 400 400" viewBox="0 0 400 400" xmlns="http://www.w3.org/2000/svg"><path d="m91.42 185.2c3.58 3.12 6.88 6.33 10.52 9.08 6.21 4.69 9.82 10.89 11.55 18.32 2.23 9.56 3.22 19.18 1.07 28.9-.26 1.16-.64 2.49-1.42 3.31-15.51 16.44-30.65 33.33-48.91 46.84-5.57 4.12-12.3 6.68-18.58 9.79-1.42.7-3.18.72-5.41 1.18 2.52-5.95 3.71-11.51 8.21-16.04 15.64-15.76 27.52-34.08 34.88-55.11 4.74-13.53 5.07-27.4 1.61-41.31-.3-1.19-1.26-2.33-2.18-3.24-7.85-7.76-17.66-12.03-27.91-15.46-4.77-1.6-9.53-3.22-14.32-4.73-1.67-.53-2.51-1.18-2.52-3.2-.04-7.71-.15-7.73 6.91-10.98 11.33-5.22 23.46-7.16 35.72-8.54 15.64-1.76 30.79-5.28 45.32-11.51 9.13-3.92 18.53-7.23 27.8-10.83 1.03-.4 2.04-.85 3.22-1.34-2.8-16.76-5.14-33.47-11.16-49.37-3.12-8.25-5.94-16.63-9.16-24.84-.89-2.28-2.45-4.46-4.18-6.22-3.29-3.34-6.91-6.34-10.47-9.55 2.28-3.84 5.27-5.73 9.68-4.32 3.38 1.08 7.05 1.75 10 3.56 5.98 3.68 11.77 7.74 17.24 12.14 6.12 4.94 9.1 11.68 10.93 19.43 4 16.93 8.86 33.65 13.43 50.69 9.25-2.38 17.47-4.93 25.88-6.58 20.07-3.93 40.18-8.3 60.77-7.56 7.47.27 14.85 2.76 22.27 4.27 5.77 1.17 11.53 2.42 17.3 3.58 1.2.24 2.46.19 3.67.39 2.86.48 4.39 2.08 4.05 5.11-.47 4.16-1.4 5.14-4.91 5.14-9.07.01-18.16.39-27.2-.08-16.69-.87-32.7 2.05-48.47 7.2-12.74 4.16-25.61 7.94-38.4 11.98-2 .63-3.98 1.55-5.76 2.66-3.3 2.05-5.16 4.75-5.08 9.07.32 18.13.02 36.27.55 54.39.3 10.16 1.68 20.29 2.83 30.4.2 1.77 1.32 3.82 2.66 5 14.96 13.23 32.03 23.25 49.94 31.8 23.8 11.37 47.72 22.51 71.8 33.26 8.12 3.62 16.91 5.74 25.4 8.56 2.01.67 4.06 1.27 6.01 2.11 7.33 3.15 10.73 9.69 8.92 17.46-.25 1.07-1.63 2.59-2.58 2.66-4.3.34-8.85 1.12-12.93.14-16.07-3.85-32.2-7.66-47.91-12.71-13.57-4.36-27.02-9.57-39.78-15.89-15.12-7.49-30.83-13.03-46.83-18.05-2.8-.88-5.55-2.36-7.94-4.08-8.97-6.49-17.78-13.2-26.83-19.97-2.36 3.64-4.6 7.1-6.83 10.55-.97 1.5-2.02 2.96-2.89 4.53-14.5 26.31-34.92 47.72-56.22 68.46-8.87 8.64-18 16.77-29.37 22.02-9.97 4.6-20.41 7.1-31.35 7.65-1.84-4.18-1.16-7.31 2.04-10.81 32.66-35.81 65.11-71.81 97.68-107.71 2.84-3.12 4.91-6.45 6.16-10.54 4.33-14.21 9.59-28.17 13.22-42.55 3.99-15.82 4.55-31.89-2.13-47.43-1.99-4.63-3-5.38-7.88-4.01-3.95 1.11-7.77 2.77-11.52 4.46-7.83 3.53-15.59 7.23-23.36 10.9-.89.42-1.65 1.11-2.5 1.63-3.41 2.09-6.65 4.55-10.28 6.14-5.34 2.35-10.16 5.13-14.07 9.8z" fill="#010104"/><path d="m198.71 154.71c3.96-3.13 7.63-6.02 11.52-9.09 4.15 4.45 8.47 8.53 12.13 13.13 9.52 11.95 21.47 20.48 34.98 27.44 16.58 8.55 32.65 18.08 49.02 27.05 5.28 2.89 10.84 5.27 16.19 8.05 4.8 2.5 7.97 6.46 9.17 11.77.2.9-.3 2.37-.99 2.98-3.28 2.83-7.38 4.02-11.28 2.29-12.12-5.4-24.98-6.56-37.92-7.56-11.73-.91-22.59-4.24-32-11.54-2.46-1.91-5.04-1.79-7.52-.38-4.18 2.37-7.71 1.5-10.09-2.86-5.3-9.71-10.55-19.44-15.82-29.17-5.75-10.6-11.49-21.2-17.39-32.11z" fill="#010104"/><g fill="#fcfbfa"><path d="m385.2 377.6.6-.7c.6.4 1.3.9 1.9 1.5l-.6.7c-.8-.5-1.4-1-1.9-1.5zm.3 7.1c.6-1.4 1.1-2.9 1.5-4.5.3.1.6.3.9.4-.5 1.4-1 2.9-1.5 4.4zm.2-10.1.6-.6c.7.5 1.3 1.1 1.9 1.6l-.7.7c-.6-.6-1.2-1.2-1.8-1.7zm8.4-.8h.8v.9h1.8v.7h-1.8v1.8h-.8v-.3h-1.2v.9h3.3v2.6h-.8v-.4h-2.5c0 .3 0 .6-.1.8h3.4v.7h-3.5c0 .3-.1.6-.1.8h4v.7h-3.5c.7.9 1.9 1.3 3.6 1.5-.2.2-.4.5-.6.9-1.9-.3-3.2-1.1-3.8-2.3-.5 1.1-1.8 2-3.9 2.4-.2-.3-.4-.5-.6-.8 1.9-.4 3.1-.9 3.6-1.7h-3.2v-.7h3.5c.1-.2.1-.5.2-.8h-3.3v-.7h3.4c0-.2 0-.5 0-.8h-2.4v.3h-.8v-2.6h3.3v-.9h-1.2v.3h-.8v-1.8h-1.8v-.7h1.8v-.9h.8v.9h3.2zm-4.4 5.5h2.4c0-.3 0-.6 0-.9h-2.4zm1.2-3.1h3.2v-.8h-3.2zm4.4 2.2h-2.4v.9h2.5v-.9z"/><path d="m389.2 385.8h.9v1.5h1.9v-1.5h.9v1.5h2.7v6h1.1v.9h-11.3v-.9h1.1v-6h2.7zm.2 8.7.5.8c-1.2.6-2.5 1.3-4 1.9-.2-.3-.3-.6-.6-.8 1.6-.6 3-1.3 4.1-1.9zm-2-4.3h1.9v-2.1h-1.9zm0 3.1h1.9v-2.2h-1.9zm2.7-3.1h1.9v-2.1h-1.9zm0 3.1h1.9v-2.2h-1.9zm2.4 1.3c1.4.6 2.7 1.2 4.1 1.8l-.5.9c-1.5-.7-2.8-1.4-4.1-1.9zm2.2-6.5h-1.9v2.1h1.9zm-1.9 5.2h1.9v-2.2h-1.9z"/></g></svg>