<svg enable-background="new 0 0 400 400" viewBox="0 0 400 400" xmlns="http://www.w3.org/2000/svg"><g fill="#010000"><path d="m229.77 68.38c6.46 3.52 9.25 9.33 8.77 15.93-.58 7.96-2.49 15.84-4 23.72-.52 2.73-1.56 5.36-2.34 8.04-1.69 5.86-4.73 10.62-8.95 15.28-12.36 13.65-20.87 29.5-23.6 48.03-.18 1.21-.27 2.45-.26 3.68.03 4.37 1.25 7.71 4.96 10.94 6.19 5.39 11.32 12 16.93 18.05 3.56 3.84 6.98 7.85 10.84 11.39 8.66 7.94 17.54 15.64 26.34 23.43 4.27 3.78 4.28 3.76 4.82 9.16.47.2.97.54 1.5.6 7 .74 12.55 4.16 17.44 9.03 7.21 7.18 15.81 12.37 24.77 17.02 4.53 2.35 6.97 5.93 7.37 11.13.54 6.97.96 7.24 8.1 8.74 4.37.92 5.37 2.26 5.01 6.67-.03.33-.1.66-.12 1-.39 5.53-2.47 9.54-8.33 11.35-2.84.87-5.41 3.03-7.76 5.02-3.83 3.26-7.78 4.84-12.92 3.48-5.11-1.35-9.98-2.83-14.35-6.08-6.82-5.07-14.2-9.39-20.88-14.61-5.35-4.18-10.2-9.06-14.93-13.96-9.3-9.62-19.35-18.28-30.93-25.02-5.49-3.19-9.28-7.97-13.16-12.73-3.11-3.82-6.13-7.71-9.35-11.44-4.18-4.85-9.21-8.51-15.6-9.84-1.04-.22-2.7.23-3.4.99-11.45 12.28-22.45 24.86-31.27 39.32-4.54 7.45-10.79 13.9-16.59 20.52-3.97 4.54-8.34 8.76-12.82 12.81-7.2 6.52-14.62 12.8-21.99 19.13-3.61 3.09-7.84 4.09-12.52 3.43-1.71-.24-2.64-.85-3.09-2.79-1.77-7.65-1.4-15.12 1.4-22.42 2.56-6.67 5.26-13.3 7.97-19.91.5-1.22 1.25-2.37 2.04-3.43 8.12-10.97 16-22.13 24.52-32.79 6.2-7.76 13.49-14.64 19.86-22.28 8.16-9.79 15.91-19.94 23.76-29.99 1.01-1.3 1.69-2.89 2.34-4.42 12.32-29.07 26.9-56.99 43.15-84.03 4.04-6.71 6.36-13.66 6.81-21.37.06-1.03.38-2.34 1.08-2.99 6.37-5.99 12.84-11.83 19.38-17.79zm74.18 252.83c-.56 6.75-.28 7.39 2.68 6.98-.9-2.36-1.79-4.67-2.68-6.98z"/><path d="m265.81 126.36c.48.2.62.21.67.28 11.9 17.53 28.98 30.03 43.64 44.88 14.21 14.39 30.78 25.92 46.33 38.68 9.23 7.58 14.88 17.71 15.41 29.8.44 10.13-2.64 13.01-13.6 11.96-8.37-.8-16.13-3.96-22.77-9.66-11.89-10.19-24.32-19.77-36.01-30.18-6.38-5.69-12.02-12.3-17.42-18.96-4.7-5.81-10.62-9.48-17.31-12.21-5.04-2.05-9.2-5.06-11.66-10.03-.47-.94-.78-2.15-.64-3.17.93-6.87 1.95-13.73 3.06-20.57.16-.97.76-2.29 1.53-2.66 5.68-2.71 7.51-7.58 7.98-13.36.15-1.54.51-3.07.79-4.8z"/><path d="m21.54 256.85c1.44-7.24 2.65-13.35 3.88-19.46.06-.31.25-.65.47-.87 5.54-5.55 7.63-13.05 11.23-19.69 2.11-3.88 4.73-7.63 7.76-10.85 17.64-18.75 35.8-37.03 53.09-56.09 9.38-10.33 17.39-21.89 26.02-32.9 1.03-1.31 2.05-2.62 3.07-3.92 6.9 4.42 10.58 13.28 8.76 22.09-2.7 13.14-7.62 25.01-16.03 36-17.03 22.27-38.27 40.13-58.64 58.91-9.12 8.41-18.82 16.22-28.68 23.75-2.59 1.99-6.74 1.95-10.93 3.03z"/></g><path d="m361.2 9.6.8-1c.9.7 1.9 1.4 2.9 2.3l-.9 1.1c-1-1-2-1.8-2.8-2.4zm.5 10.6c.9-2.1 1.6-4.3 2.3-6.7.4.2.8.4 1.3.6-.7 2.1-1.5 4.3-2.2 6.6zm.4-15.2.9-.9c1 .8 2 1.6 2.8 2.4l-1 1c-.9-.9-1.8-1.7-2.7-2.5zm12.5-1.2h1.2v1.4h2.7v1.1h-2.7v2.7h-1.2v-.6h-1.8v1.3h4.9v3.8h-1.2v-.5h-3.7c0 .4-.1.9-.1 1.2h5.1v1h-5.2c0 .5-.1.9-.2 1.2h6v1h-5.2c1.1 1.3 2.9 2 5.5 2.2-.4.4-.7.8-.9 1.3-2.9-.5-4.8-1.6-5.7-3.5h-.1c-.8 1.7-2.7 2.9-5.9 3.6-.2-.4-.6-.8-.9-1.1 2.8-.6 4.6-1.4 5.4-2.5h-4.8v-1h5.3c.1-.3.2-.7.2-1.2h-4.9v-1h5c0-.4 0-.8.1-1.2h-3.5v.5h-1.2v-3.8h4.9v-1.3h-1.8v.5h-1.2v-2.7h-2.7v-1h2.6v-1.4h1.2v1.4h4.7v-1.4zm-6.6 8.3h3.6c0-.4 0-.9 0-1.4h-3.6zm1.9-4.6h4.7v-1.3h-4.7zm6.6 3.2h-3.7v1.4h3.7z" fill="#fbfcfa"/><path d="m385.3 3.8h1.3v2.2h2.8v-2.2h1.3v2.2h4.1v9.1h1.7v1.3h-16.9v-1.3h1.7v-9.1h4.1v-2.2zm.4 13.1.7 1.2c-1.8.9-3.8 1.9-6 2.9-.2-.4-.5-.8-.8-1.3 2.3-1 4.3-1.9 6.1-2.8zm-3.1-6.4h2.8v-3.2h-2.8zm0 4.6h2.8v-3.3h-2.8zm4-4.6h2.8v-3.2h-2.8zm0 4.6h2.8v-3.3h-2.8zm3.7 1.9c2.1.9 4.1 1.8 6.1 2.7l-.7 1.3c-2.2-1.1-4.2-2-6.1-2.9zm3.2-9.7h-2.8v3.2h2.8zm-2.8 7.8h2.8v-3.3h-2.8z" fill="#fbfcfa"/></svg>