<svg enable-background="new 0 0 400 400" viewBox="0 0 400 400" xmlns="http://www.w3.org/2000/svg"><path d="m374.8 390.4.4-.4c.7.5 1.3 1 1.8 1.4l-.5.5c-.5-.6-1.1-1.1-1.7-1.5zm1 7.3-.6-.3c.5-1.4 1.1-2.8 1.5-4.3.2.1.4.2.6.3-.5 1.3-1 2.8-1.5 4.3zm-.4-10.3.4-.4c.4.3 1 .8 1.7 1.4l-.5.5c-.4-.5-1-1-1.6-1.5zm2.5.3h1.7v-1h.6v1h3.5v-1h.6v1h1.8v.5h-1.8v1.4h-2v1h3.2v2h-3.2v.9h3.3v.5h-3.4c0 .3-.1.6-.1.9h4v.5h-3.7c.7.9 1.9 1.5 3.8 1.7-.1.2-.2.4-.3.6-2.1-.4-3.5-1.1-4-2.1-.4 1-1.8 1.7-4 2.2-.1-.2-.2-.4-.3-.6 2.1-.4 3.4-1 3.8-1.8h-3.4v-.5h3.6c.1-.3.1-.6.2-.9h-3.3v-.5h3.4c0-.3 0-.6 0-.9h-3.2v-2h3.3v-1h-2.1v-1.4h-1.7v-.5zm1.1 3.5v1h2.7c0-.3 0-.4 0-.4 0-.1 0-.2 0-.2 0-.1 0-.2 0-.3h-2.7zm1.2-3v.9h3.5v-.9zm4.7 3h-2.6v.6.4h2.6z" fill="#fbfcfa"/><path d="m393.6 386.7h.6v1.5h2.7v6.1h1.1v.6h-11v-.6h1.1v-6.1h2.7v-1.5h.6v1.5h2.1v-1.5zm-2.7 8.8.4.6c-1.2.6-2.5 1.3-3.8 1.9-.1-.2-.2-.4-.3-.6 1.2-.6 2.5-1.2 3.7-1.9zm-2.2-6.7v2.4h2.1v-2.4zm0 3v2.5h2.1v-2.5zm2.8-3v2.4h2.1v-2.4zm0 3v2.5h2.1v-2.5zm6 6.1c-1.4-.7-2.7-1.3-3.9-1.8l.3-.6c1.5.6 2.7 1.2 3.9 1.7zm-1.2-9.1h-2.1v2.4h2.1zm-2.1 3v2.5h2.1v-2.5z" fill="#fbfcfa"/><g fill="#010101"><path d="m272.3 317.56c-4.63 8.25-9.3 16.13-8.29 26.11.58 5.71-1.52 8.1-7.28 10.1 0-7.48.24-14.71-.06-21.91-.33-7.76-.19-15.39 2.31-22.86.34-1.03-.27-2.76-1.02-3.71-1.51-1.92-3.41-3.54-5.16-5.28-4.08-4.08-7.98-4.21-12.59-.5-3.83 3.08-7.7 6.13-11.59 9.14-5.44 4.23-9.02 9.54-9.83 16.52-1.09 9.44-2.13 18.89-3.36 28.32-.86 6.66-3.21 12.77-7.47 18.06-.49.61-1.01 1.2-1.55 1.76-.2.2-.53.28-1.19.62 0-2.36-.04-4.43.01-6.5.3-13.65.66-27.29.9-40.94.04-2.09-.17-4.28-.77-6.27-.85-2.85-3.03-4.63-6.08-4.1-6.32 1.08-12.14-.34-17.97-2.59-1.58-.61-3.75-.62-5.35-.07-2.28.79-3.9.26-4.84-1.57-1.25-2.44-2.35-5.05-2.95-7.71-1.39-6.09-7.71-8.73-12.82-5.08-2.57 1.83-4.55 3.88-4.81 7.5-.7 9.72-3.57 18.94-8.46 27.32-2.24 3.84-5.62 7.13-8.93 10.18-1.52 1.4-4.13 1.63-6.63 2.54-.22-6.32 1.88-11.23 3.86-16.2 1.49-3.72 2.99-7.47 4.04-11.33.85-3.15.02-6.19-2.6-8.99-8.75 5.74-17.48 11.46-26.29 17.24-2.94-2.93-3.7-6.45-3.36-10.23.08-.94.95-1.97 1.72-2.67 4.23-3.83 8.66-7.45 12.78-11.4 2.87-2.74 5.34-5.89 8.25-9.15-3.15-2.65-6.09-4.59-8.32-7.15-2.05-2.35-3.46-5.3-4.92-8.12-1.04-2.01.2-3.35 2.12-3.52 2.84-.25 5.94-.76 8.54.07 5.79 1.86 11.65 3.81 15.81 8.89 2.7 3.29 6.8 3.02 10.62 2.73.59-.04 1.24-1.14 1.62-1.87 2.93-5.55 3.74-11.36 2.41-17.55-1.38-6.44-3.16-12.91-3.52-19.43-.37-6.74.76-13.57 1.25-20.36.1-1.34.05-2.74.46-3.99 2.02-6.21-.8-10.43-5.1-14.6-7.3-7.09-13.99-14.84-23.38-19.41-1.82-.89-3.16-1.07-5.12.18-7.04 4.48-15.12 5.91-23.22 7.13-6.32.95-12.63 1.36-19.1-.26 0-3.89 0-7.66 0-12.17 3.53-.27 7.14-.79 10.74-.76 3.68.03 7.35.62 11.03.94 6.01.52 10.14-1.84 11.91-6.57.77-2.04.43-3.39-1.17-5.01-5.89-5.97-11.75-11.99-17.28-18.29-4.34-4.95-6.58-10.91-5.92-17.63.1-1.07.91-2.53 1.8-2.96 1.52-.73 3.34-1.24 4.76.75 1.49 2.09 3.39 3.89 4.91 5.95 3.84 5.21 8.58 9.24 14.21 12.5 2.19 1.27 3.46 4.18 5.05 6.42.9 1.27 1.37 2.87 2.41 3.99 2.91 3.14 6.34 2.49 7.18-1.55.9-4.34 1.19-8.82 1.58-13.25.27-3.11.12-6.26.46-9.36.16-1.49.8-3.07 1.63-4.33 2.65-4.03 5.34-3.9 7.37.34 5.12 10.7 7.19 21.61 1.91 32.94-.52 1.11-.92 2.28-1.36 3.43-2.64 6.9-2.01 8.41 3.42 13.22 3.64 3.22 6.63 7.16 10.04 10.65 1.36 1.39 2.94 2.71 4.67 3.51.71.33 2.79-.57 3.07-1.35 4.78-13.06 15.25-21.56 24.58-30.97 1.42-1.43 2.85-2.85 4.27-4.28 3.41-3.41 3.18-6.78-.69-9.93-2.26-1.84-4.47-3.75-6.85-5.42-11.59-8.12-16.37-20.1-18.43-33.35-1.94-12.47-.26-24.76 3.53-36.75.39-1.24 1.09-2.45 1.87-3.5 3.12-4.23 6.09-8.61 9.57-12.54 6.91-7.8 11.15-16.86 13.85-26.8.84-3.1 2.04-6.11 3.17-9.42 3.12 1.16 4.53 3.37 4.93 6.29.2 1.43.11 2.9.15 4.36.15 5.11 1.88 9.21 6.56 11.99 11.3 6.71 21.2 14.98 27.9 26.55 10.37 17.92 12.11 36.65 5.05 56.13-.43 1.2-1.31 2.32-2.21 3.25-6.67 6.94-13.33 13.9-20.15 20.69-1.8 1.79-1.76 3.19-1.04 5.52 2.64 8.5 9 14.26 14.5 20.68 1.81 2.11 4.31 3.87 2.9 7.5-.49 1.25.71 2.81 2.74 2.14 7.04-2.31 14.16-4.47 18.19-11.56.82-1.43 1.84-3.1 3.21-3.8 4.09-2.09 4.26-5.63 5.11-9.58 2.8-13.08 6.05-26.1 9.76-38.95 1.94-6.72 6.33-10.28 12.39-11.75.44 4.01 1.22 7.93 1.19 11.84-.04 4.23-.89 8.44-1.31 12.67-.19 1.88-.5 3.85-.16 5.66.26 1.36 1.28 3.37 2.31 3.6 1.43.32 3.6-.27 4.7-1.29 4.11-3.79 7.9-7.92 11.82-11.92.47-.47.96-.92 1.43-1.36 4.06 3.09 3.88 10.3-.28 13.23-3.66 2.58-7.34 5.12-11.02 7.67-5.07 3.52-7.84 8.36-8.75 14.47-.3 1.99.25 2.92 1.91 3.6 4.44 1.81 8.82 3.77 13.31 5.45 4.5 1.68 8.39 4.08 11.47 8.24-4.48 2.56-8.92 2.06-13.29.59-4.55-1.53-8.97-3.44-13.49-5.05-5.59-1.98-10.51-1.7-15.48 2.57-6.15 5.28-12.23 10.46-16.69 17.3-3.32 5.09-4.05 10.34-2.14 16.28 3.13 9.66 6.48 19.35 8.36 29.29 1.24 6.55.08 13.56 0 20.36-.03 2.12.02 4.25-.07 6.37-.29 7.16 3.68 12.11 9.02 15.85 2 1.4 5.37 1.82 7.87 1.35 4.45-.84 8.77-2.56 13.04-4.17 5.95-2.24 11.69-5.16 17.76-6.95 3.72-1.1 7.92-.91 11.88-.71 1.32.07 3.05 1.73 3.69 3.08.95 2.03-.71 3.17-2.54 3.9-6.53 2.61-13.2 4.95-19.51 8.03-3.5 1.71-6.51 4.53-9.49 7.14-1.77 1.55-1.46 3.16.45 4.98 6.4 6.09 12.7 12.31 18.75 18.75 2.36 2.51 3.97 5.73 6.4 9.35-5.96-.16-10.59-.06-15.04-2.73-7.57-4.55-15.42-8.62-23.16-12.87-.92-.57-1.92-1.03-2.99-1.57zm-75.66-261.18c-4.22 4.54-8.18 8.76-12.1 13.02-3.63 3.94-8.6 7.38-10.43 12.04-1.83 4.67-.43 10.57-.59 15.93-.11 3.44.22 7.12-.92 10.23-1.57 4.28-1.48 8.22.68 11.83 2.25 3.77 5.06 7.28 8.05 10.51 4.23 4.58 9.23 8.48 13.2 13.25 5.37 6.44 6.06 6.81 12.78 1.63.44-.34.91-.68 1.25-1.11 6.24-7.73 12.47-15.46 18.66-23.23.46-.58.59-1.44.83-2.18 2.32-7.15 2.03-14.28-.05-21.44-2.49-8.56-7.74-15.51-12.81-22.61-1.46-2.05-3.05-3.41-5.59-3.67-2.56-.26-4.48-1.4-5.88-3.77-2.04-3.44-4.48-6.65-7.08-10.43zm-6.41 203.51c2.81-5.93 5.43-11.72 8.3-17.4 1.05-2.07.94-3.61-.38-5.49-2.18-3.11-4.12-6.39-6.08-9.64-3.16-5.22-7.19-10.03-7.76-16.5-.06-.66-.69-1.45-1.27-1.84-3.41-2.27-6.88-4.43-10.31-6.62-5.39 7.51-5.29 11.63.28 18.5 4 4.93 4.82 10.35 2.43 14.57-.92 1.62-2.12 2.17-3.5 1.19-1.93-1.38-3.61-3.11-5.48-4.77-4.92.98-5.31 5.06-5.47 9.33-.57 15.12 3.91 28.83 11.44 41.75 1.37 2.36 2.99 3.73 5.84 3.68.17-.35.49-.73.52-1.14.69-8.67 5.44-14.74 12.19-19.72 2.65-1.96 2.31-3.71-.75-5.9zm16.64-41.79c2.05-1.46 3.84-2.43 5.26-3.8 5.29-5.12 6.6-12.02 7.86-18.82.41-2.18.38-4.73-.34-6.79-2.45-6.95-6.57-12.95-11.79-18.12-1.63-1.61-3.72-2.88-5.8-3.88-.92-.44-2.71-.22-3.49.43-4.2 3.52-8.27 7.21-12.26 10.96-3.29 3.09-3.73 8.28-1.23 11.89 5.6 8.09 11.13 16.24 16.87 24.24 1.05 1.47 2.93 2.35 4.92 3.89zm1.42 39.47c-6.15 11.65-13.95 21.86-17.61 34.29-1.57 5.34-.13 8.32 5.3 9.89 3.09.9 6.09 2.14 9.19 3.02 5.16 1.46 11.98 1.4 16.12-4.16 1.93-2.6 3.96-5.17 6.23-7.47 2.5-2.53 2.65-5.2 1.39-8.25-3.61-8.78-8.55-16.71-15.26-23.46-1.44-1.46-3.36-2.44-5.36-3.86zm28.13 3.74c4.53-2.75 4.42-2.77 5.28-6.44 1.21-5.16.5-10.12-2-14.61-3.23-5.79-4.45-11.77-3.74-18.33.35-3.21-.91-5.91-4.15-7.33-1.87-.82-3.22-.86-4.36 1.29-1.52 2.85-3.28 5.6-5.2 8.2-4.53 6.12-4.19 12.62-.38 18.48 4.29 6.58 9.63 12.48 14.55 18.74z"/><path d="m217.09 113.33c-1.33.29-1.97.47-2.62.57-6.62.99-8.67-.25-10.49-6.86-2.38-8.65-.19-16.69 3.38-24.48 5.42.47 8.69 3.29 9.31 8.51.46 3.86.34 7.79.4 11.69.07 3.54.02 7.09.02 10.57z"/><path d="m196.01 101.54c-.21 2.42-.7 5.41-.68 8.41.03 2.92-1.2 4.35-3.85 5.38-1.88.73-2.8.28-3.92-1.1-6.24-7.68-5.82-17.96-2.26-25.58.31-.66 1.79-1.2 2.64-1.09 5 .62 7.92 3.99 8.06 9.04.04 1.44.01 2.9.01 4.94z"/></g></svg>