<svg enable-background="new 0 0 400 400" viewBox="0 0 400 400" xmlns="http://www.w3.org/2000/svg"><path d="m78.7 161.3c-.4-4.4-.9-8.5-1.2-12.6-.1-.8.2-1.7.6-2.3 4.4-5.7 5.3-11.7 2.8-18.5-2-5.5-1.5-7.2 4.3-8.8 7-1.9 14.3-4 21.4-3.7 13.3.5 26.3-.9 39.3-3.6 8-1.7 16.3-2.1 24.5-3 5.5-.6 10.1-4.8 10.3-10.2.1-1.8-1.4-3.7-2.2-5.5-.2-.4-.8-.6-1.2-1-6.3-7.1-13.6-7.7-21.8-3.7-.7.3-1.6.5-1.9 1-3.3 5.1-8.6 5-13.7 5.9-2.3.4-4.5 1.2-6.7 1.7-5.4 1.4-10.8 2.9-16.3 3.9-4.3.8-8.5 1.6-12.2 4-1.3.8-2.9 2-4.3 1.9-8.7-.6-16.2 3.6-24.2 5.7-6.5 1.7-12.8 4.1-19.3 6.1-6.7 2.1-13.5 2.4-20.4.7-3.5-.9-5.6-6.3-3.6-9.3 2.7-4.2 5.5-8.3 8.1-12.5.9-1.4 1.8-1.9 3.3-1.2 8 3.6 15.9 2 24.2.7 19.6-3.1 38.5-8.9 57.3-15 7.7-2.5 15.8-3.8 23.7-5.8 1.5-.4 3-1 4.3-1.9 3.9-2.7 7.9-5.4 11.6-8.4 2.8-2.3 5.6-3.7 9.2-2.5 1.3.4 2.9.8 3.9 1.7 7.9 7.2 15.8 14.5 23.6 21.7 2.4 2.2 2.1 8.2.3 10.9-1.8 2.5-4.2 5.9-3.7 8.3.7 3 4.9 3 8 2.9 17.2-.6 34.5-1.1 51.7-1.8 1.4-.1 2.8-.9 4.2-1.2 2.1-.4 4.2-.7 6.3-.7 1.3 0 2.7.6 4 .8 2.4.4 3.6 3.1 3.1 5.4-2.2 11-8.9 21.1-6.7 33 .6 3-1 5.5-3.8 6.7-2.8 1.1-5.8 2.1-8.8 2.4-9.2.9-18.3-.6-27.5-1.6-8.6-1-17.3-.9-25.9-1.2-3.4-.1-6.8-.2-10.1-.2-5.4 0-7 1.6-7 6.9 0 4.5-.7 8.9-1.3 13.4-.9 6.9-.5 14.2.2 21.2.9 9 2.5 18 4.1 27 1.2 6.6-.7 12.6-2.6 18.6-.2.8-.9 2-.6 2.3 2.2 2.6 2.1 5.8 2.7 8.8.2.8.5 1.6.6 2.4 1.5 11.6 2.8 23.3 4.5 34.9.5 3.6 3.6 5.3 6.7 6.7 1.1.5 2.4.7 3.7.8 4.4.5 8.9.6 12.4 3.9.4.3.9.5 1.4.6 10.5 1.8 21 3.8 31.5 5.5 17.6 2.8 35.2 5 53.1 3.5 10.1-.9 19.7-4.1 29-7.8 5.6-2.2 12-3.8 16-9.2 4.5-.5 8.1-2.4 11.2-5.9 1-1.1 2.9-.2 3.6 1.8 1.5 4.4.4 8.6-1.8 12.1-6.1 9.4-12.6 18.6-19 27.8-.5.8-1.6 1.4-2.5 1.7-6.6 2.2-13.4 3.8-19.8 6.6-6.1 2.7-12.1 3.1-18.5 2.1-3.2-.5-6.6.2-9.9.1-2-.1-3.9-.6-5.9-1-4.5-1-9.1-1.9-13.6-3.1-2.3-.6-4.4-2.2-6.7-2.7-5.2-1.1-10.4-1.9-15.6-2.6-6.1-.8-12-1.7-17.9-4-5.1-2-10.8-2.1-16-3.8-15.6-5.2-29.3-13.2-39-27-3.8-5.4-5.9-11.2-4.3-17.9 1.9-7.8.1-15.5-.7-23.3-1-9.5-1.8-19-2.1-28.5-.1-3.8 1.9-7.6 2.1-11.5.3-6.3-.2-12.6-.4-18.9-.3-10.9-.7-21.8-1-32.7-.1-4.7-1.2-6-6-5.9-3.2.1-6.5.9-9.7 1.3-4 .5-8 1-12 1.2-4.8.2-9.6.4-14.3 0-16.2-1.2-31.8 2.4-47.4 5.4-.5-.2-.9-.1-1.7 0zm12.6-24.5c2.8 2.7 5.1 5 7.6 7.1.7.6 1.9.9 2.8.8 6.3-.6 12.6-1.4 18.9-2 10.3-1 20.5-2.5 31-1.7 4.4.3 8.9-1.1 13.3-2.1 3.3-.7 3.8-3.7 3.8-6.5s-1.3-5.1-4.1-5.8c-3.1-.7-6.5-1.4-9.6-1.2-16.3 1.1-32.7 2.5-49 3.9-.7.1-1.5.2-2.1.5-4 2.1-7.9 4.3-12.6 7zm123.6-1.3c11.9 1.1 23.4-.7 34.6 2.2 2.6.7 5.3-.1 6.7-2.6 1.8-3.3 2.9-7.1.7-10.6-1.6-2.6-4.5-3-7.4-2.5-2.5.4-5 1.2-7.5 1.3-16.6.6-33.2 1-49.7 1.5-1.6.1-3.3.6-4.9 1.1-.6.2-1.2.9-1.4 1.5-1 3.3 2.5 8.1 5.8 8.1 7.9.1 15.7 0 23.1 0z"/><path d="m298.8 180.2c1.5 7.7-.7 15.4-1.9 23.2-.8 5.4-1.2 10.7 1.8 15.7.3.5.5 1.3.3 1.7-2.3 4.3-.2 8.1 1.7 11.7s1.8 7.7-.8 10.9c-3.1 3.8-3.3 8.1-2.4 12.6 1.1 5.3.8 10.4-2.4 14.9-.7 1-2.4 2-3.5 1.9-9.4-.6-18.4 1.7-27.6 3.4-5.5 1-11.4.6-17 0-10.9-1.3-21.5-.5-32.2 1.3-2.7.5-4.2-.3-6.1-2.5-4.8-5.7-6.9-11.1-5.2-19.3 2-9.9.5-20.4.9-30.7.4-10.8-1.6-21.4-2.7-32.1-1.3-12.7-.9-12.8 7.3-22.6 2.8-3.3 6.3-4.8 10.9-4.3 16.1 1.8 32.2 3.5 48.4 2.4 3.2-.2 6.6-.7 9.6-1.8 4.2-1.4 8.1-1.4 12.4-.3 8.3 2.1 8.3 1.9 8.3 10.3.2 1.1.2 2.2.2 3.6zm-16.9 70.8c-.2-2.1-.4-4.2-.6-6.3-.3-2.4-1.6-4.3-4.1-4.7-3.3-.5-6.9-1.5-10-.8-9.4 2.2-18.8 2.2-28.4 2.5-4.7.1-9.4 1.3-14 2.2-.8.1-2 1-2.1 1.6-.4 3.5-.7 7-.7 10.6 0 1.9 1.5 3.1 3.4 3.1 3.7 0 7.4.2 11-.2 7.7-.9 15.3-2.2 22.9-3.3.8-.1 1.7.1 2.5.3 3.6.7 7.2 1.5 10.9 2.1 6.4.8 9-1.3 9.2-7.1zm-49.1-34.8c0-.1 0-.1 0-.2-2.2 0-4.5-.4-6.6.1-6.1 1.3-6.9 2.2-5.4 8.4 1.2 5 2.7 5.8 7.7 5.1 2-.3 4-.6 5.9-.9 10.5-2 21-3.5 31.7-.9 2.7.7 6.1-.3 8.9-1.4 4.5-1.7 4.8-2.7 4.5-7.4-.3-4.3-.8-4.7-4.9-4.2-1 .1-2.1.1-3.2.1-4.7 0-9.5-.2-14.2 0-8.1.2-16.2.8-24.4 1.3zm46.7-27.3c.1-5.1-.3-5.6-5.5-5.7-2.1 0-4.2.1-6.3.2-14.9.5-29.9 3.6-44.9.4-.7-.1-1.7.1-2.2.6-1.9 1.8-3.3 7-2 8.1 2.1 1.9 4.5 3.8 7.8 3.3 4.7-.8 9.4-1.3 14.1.2s9.3 1.2 14 .1c5.2-1.2 10.4-2.6 15.9-.7 6.1 2.2 9-.1 9.1-6.5z"/><path d="m57.8 220.3c4.5-2.9 9.5-4.8 14.8-4.7 14 .2 27.8-2 41.7-3.3 4.4-.4 8.9.1 13.3 0 4 0 7.7-6.3 5.7-9.8-.4-.7-1.5-1.3-2.3-1.4-2.3-.3-4.6-.4-6.9-.3-8.1.5-16.2 1.3-24.4 1.8-1.8.1-3.6-.8-5.4-1.2-.9-.2-1.8-.6-2.7-.5-5.3.4-10.7.8-16 1.3-1.2.1-2.5.3-3.5.9-4 2.4-10.5-.2-11.6-4.7-.4-1.9-.2-3.4 2.1-4.2 7.4-2.6 14.7-4.5 22.8-4.3 9.6.2 19.2-1.1 28.8-1.7 3.4-.2 6.8-.1 10.1-.2 4.5 0 5.9-1.1 7.6-6.2-2.6-.7-5.2-2-7.7-2-17.3.4-34.6 1.1-52 1.8-4.9.2-6.4-.8-7.7-7 8.1-2.6 15.9-5.8 25-5.3 7.6.4 15.4-.8 23.1-1.3 10.5-.7 21.1-1.5 31.6-2.4 2.5-.2 3.8.9 4.3 3.1.5 2.4.9 4.8 1.2 7.2.5 5 .8 10.1 1.1 15.2.1.9-.1 2-.5 2.6-3 4-3.4 8.5-2.7 13.3.7 4.9.8 9.7-2.3 14-2.1 2.9-4.5 4.1-8.4 3.5-3.6-.6-7.5.2-11.3.3-13.9.5-27.9.8-41.8 1.4-4.7.2-9.4 1.3-14.1 1.9-2 .2-4.2.4-6.2 0-4.2-.6-5.8-3.6-5.7-7.8z"/><path d="m129.1 248.1c-12.7-.3-25.2-.4-37.6-1-7.5-.4-14.7.1-22 1.7-1.3.3-3 .5-4-.1-1.2-.8-2.3-2.3-2.6-3.8-.2-.8 1.1-2.3 2-2.8 10.9-5.8 22.6-6.7 34.8-6.1 10.6.5 21.3.1 32-.3 2.2-.1 4.7-1.4 6.4-2.8 4.3-3.5 10-2.8 13.8-1 1 .5 2.1 2.4 2 3.5-.7 5-.4 10.2-3.5 14.6-.5.7-.4 2-.4 3 .1 3 .5 5.9.6 8.9 0 2.1-.3 4.2-.7 6.3-1 4.8-2.3 9.6-3.2 14.4-.4 1.9-.9 2.8-2.9 3.3-17.2 4-34.8 4.3-52.3 5-9.9.4-19.8 1.5-29.7 2.1-.8.1-2.1-.8-2.5-1.6-1-2.1.6-5.5 2.7-6.5 8.2-3.9 17.1-4.5 26-5.1 13.9-.9 27.8-2.1 42.1-3.2 0-2-.2-3.9 0-5.7.3-2.7-1.1-3.9-3.3-3.8-4 .1-8 .6-11.9.8-8 .3-16 1-24 .7-9.4-.4-18.6.6-27.8 2-1.9.3-4.4 1.6-5.4-1.4-.8-2.5 1.4-6 4.1-6.6 10.8-2.6 21.8-4 33-3.4 4.7.3 9.5-.3 14.3-.4 3.3-.1 6.6 0 9.8-.3 2.4-.2 4.9-.6 7.1-1.5 3.8-1.9 4.7-4.6 3.1-8.9z"/></svg>