<svg enable-background="new 0 0 400 400" viewBox="0 0 400 400" xmlns="http://www.w3.org/2000/svg"><g fill="#fbfafc"><path d="m12.4 4.8-6.1 9h6v1.2h-8v-.5l6.1-8.9h-5.7v-1.2h7.6v.4z"/><path d="m14 15v-10.6h3c1.6 0 2.9.5 4 1.4s1.6 2.2 1.6 3.8-.5 3-1.6 3.9-2.4 1.5-4 1.5zm1.4-9.4v8.2h1.6c1.3 0 2.4-.4 3.1-1.1s1.1-1.8 1.1-3.1-.4-2.3-1.2-3-1.8-1-3.1-1z"/><path d="m26.1 4.4v10.6h-1.4v-10.6z"/><path d="m36.1 14.6c-.8.4-1.8.6-2.9.6-1.5 0-2.7-.5-3.6-1.4s-1.4-2.2-1.4-3.8c0-1.7.5-3.1 1.5-4.1s2.3-1.6 3.9-1.6c1 0 1.8.1 2.5.4v1.4c-.8-.4-1.6-.6-2.5-.6-1.2 0-2.1.4-2.9 1.2s-1.1 1.8-1.1 3.2c0 1.3.3 2.3 1 3s1.6 1.1 2.7 1.1c1 0 2-.2 2.7-.7v1.3z"/><path d="m37.6 14.3c0-.2.1-.5.3-.6s.4-.3.6-.3c.3 0 .5.1.6.3s.3.4.3.6-.1.4-.3.6-.4.3-.6.3c-.3 0-.5-.1-.6-.3s-.3-.4-.3-.6z"/><path d="m50.2 15h-1.6l-5.3-8.2c-.2-.2-.3-.5-.4-.7 0 .2.1.7.1 1.5v7.4h-1.4v-10.6h1.7l5.2 8.1c.2.4.4.6.4.7 0-.3-.1-.8-.1-1.5v-7.3h1.4z"/><path d="m58.6 15h-5.7v-10.6h5.5v1.2h-4.1v3.4h3.8v1.2h-3.8v3.6h4.3z"/><path d="m67.1 5.6h-3.1v9.4h-1.4v-9.4h-3v-1.2h7.5z"/></g><path d="m313.9 374.83c-1.93.27-3.58 1-4.87.59-4.74-1.52-9.54-3.03-13.96-5.27-4.26-2.17-7.89-5.55-12.1-7.84-16.16-8.83-27.66-22.86-40.38-35.56-8.35-8.33-16.38-16.81-21.34-27.76-1.68-3.7-4.72-6.18-8.77-7.24-1.64-.43-2.76-.25-3.98 1.31-11.26 14.54-26.23 23.4-43.89 27.85-6.62 1.67-13.33 1.35-19.91-.53-8.36-2.38-11.79-8.15-9.98-16.72.28-1.31.61-2.61 1.01-4.31 4.31.4 8.61.79 12.91 1.2 2.34.22 4.75.17 7 .76 6.72 1.75 12.41-.49 17.53-4.46 10.88-8.46 19.76-18.51 23.77-32.08 1.3-4.42-1.19-7.55-5.49-6.02-10.52 3.75-20.57-.07-30.8-.91-4.45-.37-8.91-.99-13.28-1.9-2.03-.42-4.12-1.49-5.76-2.79-12.06-9.63-13.17-23.06-11.83-36.87 1.16-11.93 2.7-23.77 1.68-35.81-.34-3.98.33-8.04.42-12.07.05-2.22.31-4.6-.37-6.61-.46-1.34-2.29-2.76-3.74-3.06-1.23-.25-3.3.67-4.09 1.74-6.17 8.38-12.13 16.91-18.1 25.44-.76 1.08-1.3 2.34-1.76 3.58-2.98 8.07-5.9 16.17-8.85 24.26-1.8 4.93-4.22 6.44-9.43 5.83-1.31-.15-2.61-.46-4.4-.79.36-1.68.52-3.21 1.02-4.61 5.26-14.73 9.83-29.78 16.14-44.05 4.44-10.04 11.51-18.89 17.01-28.5 4.4-7.68 9.62-14.46 16.86-19.66 8.15-5.85 13.39-14.36 19.61-21.96 3.28-4.02 6.52-7.89 11.42-10.06 1.03-.45 2.01-1.82 2.31-2.95 1.51-5.72 3.2-11.45 4.03-17.29.84-5.94 1.32-12.04.95-18.01-.56-9.01.99-17.08 6.89-24.15 1.62-1.94 3.27-2.3 5.55-1.64 6.19 1.78 9.2 5.5 9.53 12.2.28 5.81.54 11.63.62 17.45.09 6.32 2.52 11.58 7.13 15.71 5.12 4.6 11.26 7.86 18.1 7.9 8.95.05 17.05 2.77 25.4 5.34 9.8 3.01 19.94 4.91 29.85 7.58 4.51 1.22 8.82 3.16 13.24 4.71 1.14.4 2.39.91 3.52.78 3.34-.39 5.81 1.09 8.12 3.17 5.95 5.35 10.81 11.38 11.85 19.65.62 4.95-2.89 8.16-7.76 6.83-4.78-1.31-9.39-3.2-14.08-4.82-1.16-.4-2.31-.86-3.5-1.12-4.1-.9-4.47-1.15-6.26-4.98-8.78 2.38-16.83-.77-24.94-3.64-4-1.42-7.97-2.98-12.08-3.99-8.33-2.04-14.45 3.4-12.61 11.72 1.62 7.35 3.11 14.63 3.23 22.17.01.68.99 1.44 1.65 1.99.39.33 1.04.4 1.59.46 11.35 1.11 20.35 6.38 27.68 15.05 1.68 1.99 4.45 3.22 6.93 4.31 3.16 1.39 6.47 2.57 9.83 3.34 6.29 1.45 10.96 5.07 15.21 9.74 17.22 18.95 20.84 40.38 12.1 64.18-.3.82-.81 1.61-1.39 2.26-10.72 11.89-21.25 23.96-32.32 35.51-4.27 4.45-9.94 7.55-14.75 11.52-3.92 3.24-7.63 6.75-11.21 10.36-1.88 1.89-1.35 3.66.74 5.59 17.26 15.96 34.43 32.03 51.55 48.14 4.8 4.52 9.71 9.02 12.33 15.31.55 1.3.99 2.65 1.67 4.5zm-41.04-190.82c-3.53 2.24-5.12 4.75-3.37 8.76 3.72 8.5 2.74 17.21.77 25.92-.25 1.09-.28 2.22-.53 3.31-3.02 12.87-8.46 24.14-19.98 31.77-5.87 3.88-11.39 8.29-16.96 12.59-4.48 3.46-5.24 8.53-2.29 13.38 1.08 1.78 2.41 2.64 4.63 2.51 6.68-.39 12.47-3.04 17.17-7.52 5.74-5.46 10.72-11.73 16.48-17.16 8.97-8.46 14.32-18.63 16.3-30.71.31-1.87 1.06-3.68 1.26-5.55.84-7.75 1.72-15.51 2.17-23.28.1-1.79-.94-4.34-2.33-5.39-4.19-3.17-8.79-5.76-13.32-8.63zm-68.3-9.63c6.31-3.07 6.67-3.36 7.87-9.54 2.62-13.52 2.43-27.18 1.3-40.81-.36-4.39-1.74-8.76-3.18-12.96-1.45-4.21-4.18-7.75-8.49-9.45-1.32-.52-3.46-.54-4.55.2-6.47 4.39-12.83 8.96-19.04 13.71-3.54 2.7-4.26 10.71-1.39 14.15 7.37 8.8 13.25 18.54 18.58 28.65 2.85 5.42 5.93 10.72 8.9 16.05zm-24.17 67.94c1.67 0 3.35.07 5.02-.01 7.46-.38 9.33-2.89 7.58-10.09-.03-.11-.08-.21-.1-.32-1.22-6.05-5.35-9.52-10.53-12.2-9-4.65-16.67-10.67-21.04-20.25-1.75-3.84-5.45-5.29-9.44-6.19-2.18-.5-3.29.03-4.09 2.06-3.95 10.1-4.59 20.37-1.78 30.85 1.02 3.83 3.13 6.48 7.13 7.6 2.46.69 4.75 1.94 7.17 2.78 6.59 2.29 12.63 6.51 20.08 5.77zm1.7-57.91c-.5-6.66-2.78-12.19-6.22-17.27-2.44-3.61-5.46-6.93-7.3-10.82-2.85-6.02-4.99-12.38-7.27-18.65-1.55-4.27-5.83-6.81-8.94-4.88-5.12 3.18-10.18 6.48-15.2 9.83-2.46 1.65-2.65 7.45-.39 9.39 7.04 6.05 14.09 12.09 21.18 18.08.72.61 1.76 1.29 2.6 1.23 5.34-.35 8.42 2.38 10.43 7 .8 1.83 1.9 3.57 3.13 5.15.99 1.27 2.24 2.45 3.61 3.26 2.22 1.31 4.35-.17 4.37-2.32zm39.01 55.34c.28.12.55.25.83.37.01 4.01 2.14 5.82 5.88 4.54 2.6-.89 5.15-2.17 7.45-3.69 10.72-7.08 16.95-17.23 19.62-29.65.41-1.91.84-4.33.02-5.84-.98-1.81-3.15-3.23-5.12-4.13-.68-.31-2.59 1.21-3.46 2.29-6.91 8.51-13.89 16.97-20.42 25.76-2.23 2.98-3.24 6.87-4.8 10.35zm9.12-67.69c-2.63 1.79-4.67 3.14-6.68 4.55-3.66 2.56-7.07 5.13-12.18 4.44-3.83-.52-5.26 1.55-5.37 5.53-.18 6.39 2.86 11.63 6.09 16.75 2.53 4.02 4.04 4.31 8.08 1.99 7.84-4.52 14.15-17.95 12.45-26.87-.39-2.03-1.44-3.92-2.39-6.39zm58.48-50.92c1.74-.36 3.2-.66 5.41-1.11-2.09-1.29-3.58-2.21-5.41-3.33z" fill="#000001"/></svg>