<svg viewBox="0 0 400 400" xmlns="http://www.w3.org/2000/svg"><rect width="400" height="400" fill="white" /><path d="m200.8 24.67c7.09 5.03 10.37 11.49 11.87 18.52 3.28 15.4 6.33 30.88 8.65 46.44 2.81 18.8 4.77 37.73 7.08 56.61.23 1.88.37 3.78.43 5.68.71 23.99-.94 47.87-3.12 71.74-.32 3.53.14 7.14.23 10.71.44 18.41-.59 36.71-4.74 54.69-.85 3.7-3.43 6.97-4.67 10.62-2.37 6.95-4.56 13.98-6.4 21.09-.86 3.31-.98 6.87-.9 10.31.03 1.3 1.25 3.19 2.42 3.74 2.58 1.19 5.54 2.54 8.23 2.32 9.16-.73 18.03.76 26.97 2.25 15.7 2.61 31.55 3.4 47.47 3.49 4.76.03 9.54 1.08 14.26 1.89 2.27.39 4.33 1.51 4.53 4.24.18 2.61-1.07 4.19-3.42 5.52-9.48 5.39-19.89 6.23-30.42 6.99-22.2 1.6-44.38 3.43-66.57 5.14-15.72 1.21-31.45 2.46-47.18 3.51-3.43.23-6.95-.07-10.36-.55-8.35-1.17-16.16 1.58-24.13 3.08-12.02 2.26-24.05 4.31-36.25 1.6-2.01-.45-4.25-1.54-5.59-3.04-2.42-2.72-4.63-5.79-6.21-9.06-2.36-4.9-.72-8.87 4.09-11.33 8.81-4.5 18.35-6.64 28.06-7.33 19.96-1.43 39.97-2.2 59.93-3.53 5.19-.35 10.43-1.37 15.43-2.81 4.78-1.38 5.46-2.95 4.13-7.68-4.77-16.99-4.37-34.56-6.09-51.89-3.91-39.36-.21-78.75-.57-118.12-.19-21.04.35-42.09.62-63.13.02-1.75.2-3.64.87-5.22 2.14-5.06 2.61-10.26 2.65-15.71.08-11.85-.11-23.78 3.16-35.33 1.43-5.08 3.55-9.99 5.54-15.45z" fill="#010102"/><g fill="#fafbfa"><path d="m6.4 11.7c-1-.8-1.9-1.6-2.9-2.3l.6-.7c.9.7 1.9 1.4 2.9 2.2zm-2.1 8.3c.7-2.1 1.4-4.2 2-6.4.2.1.6.3 1 .4-.7 2.3-1.3 4.4-1.9 6.4zm3-12.8c-1.1-.9-2.1-1.7-2.9-2.4l.6-.7c1 .8 2 1.5 3 2.4zm1.4-1.3v-.9h10.2v.9c-.9 4.2-2.3 7.3-4.1 9.4 1.3 1.4 3.2 2.7 5.7 4-.2.2-.4.5-.7.9-2.5-1.4-4.4-2.7-5.7-4.2-1.4 1.5-3.5 3-6.1 4.4 0 0 0 0-.1-.1-.3-.4-.5-.7-.7-.8 2.7-1.3 4.7-2.8 6.2-4.2-1.8-2.2-3-5.3-3.7-9.4zm9.2 0h-7.1c.6 3.8 1.7 6.7 3.4 8.7 1.7-2 2.9-4.8 3.7-8.7z"/><path d="m31.6 3.6h.9v2.3h4.1v9.1h1.7v.9h-16.6v-.9h1.7v-9.1h4.1v-2.3h.9v2.3h3.1v-2.3zm-4 13.3.6.8c-1.9.9-3.8 1.9-5.8 2.8-.2-.3-.3-.6-.5-.9 2-.9 3.9-1.8 5.7-2.7zm-3.2-10.1v3.7h3.1v-3.7zm0 4.5v3.7h3.1v-3.7zm4.1-4.5v3.7h3.1v-3.7zm0 4.5v3.7h3.1v-3.7zm9.1 9.1c-2.1-1.1-4.1-2-5.8-2.7l.5-.8c2.2.9 4.1 1.8 5.8 2.6zm-1.9-13.6h-3.1v3.7h3.1zm-3.2 4.5v3.7h3.1v-3.7z"/></g></svg>