<svg viewBox="0 0 400 400" xmlns="http://www.w3.org/2000/svg"><rect width="400" height="400" fill="white" /><path d="m374.8 390.4.4-.4c.7.5 1.3 1 1.8 1.4l-.5.5c-.5-.6-1.1-1.1-1.7-1.5zm1 7.3-.6-.3c.5-1.4 1.1-2.8 1.5-4.3.2.1.4.2.6.3-.5 1.3-1 2.8-1.5 4.3zm-.4-10.3.4-.4c.4.3 1 .8 1.7 1.4l-.5.5c-.4-.5-1-1-1.6-1.5zm2.5.3h1.7v-1h.6v1h3.5v-1h.6v1h1.8v.5h-1.8v1.4h-2v1h3.2v2h-3.2v.9h3.3v.5h-3.4c0 .3-.1.6-.1.9h4v.5h-3.7c.7.9 1.9 1.5 3.8 1.7-.1.2-.2.4-.3.6-2.1-.4-3.5-1.1-4-2.1-.4 1-1.8 1.7-4 2.2-.1-.2-.2-.4-.3-.6 2.1-.4 3.4-1 3.8-1.8h-3.4v-.5h3.6c.1-.3.1-.6.2-.9h-3.3v-.5h3.4c0-.3 0-.6 0-.9h-3.2v-2h3.3v-1h-2.1v-1.4h-1.7v-.5zm1.1 3.5v1h2.7c0-.3 0-.4 0-.4 0-.1 0-.2 0-.2 0-.1 0-.2 0-.3h-2.7zm1.2-3v.9h3.5v-.9zm4.7 3h-2.6v.6.4h2.6z" fill="#fbfcfa"/><path d="m393.6 386.7h.6v1.5h2.7v6.1h1.1v.6h-11v-.6h1.1v-6.1h2.7v-1.5h.6v1.5h2.1v-1.5zm-2.7 8.8.4.6c-1.2.6-2.5 1.3-3.8 1.9-.1-.2-.2-.4-.3-.6 1.2-.6 2.5-1.2 3.7-1.9zm-2.2-6.7v2.4h2.1v-2.4zm0 3v2.5h2.1v-2.5zm2.8-3v2.4h2.1v-2.4zm0 3v2.5h2.1v-2.5zm6 6.1c-1.4-.7-2.7-1.3-3.9-1.8l.3-.6c1.5.6 2.7 1.2 3.9 1.7zm-1.2-9.1h-2.1v2.4h2.1zm-2.1 3v2.5h2.1v-2.5z" fill="#fbfcfa"/><path d="m363.84 226.48c2.6 4.49 5.05 8.73 7.65 13.22-9.44 3.87-18.55 7.82-27.82 11.37-36.05 13.8-71.04 29.91-105.31 47.64-2.17 1.12-4.86 1.66-7.32 1.7-10.97.18-21.94.01-32.91.14-1.91.02-3.89.69-5.7 1.42-1.95.79-3.84 1.86-5.57 3.07-5.65 3.96-11.62 5.72-18.58 4.1-8.04-1.86-16.04.14-24.01.99-16.68 1.79-33.34 3.78-50.02 5.59-1.49.16-3.08-.23-4.58-.56-1.3-.28-2.6-.73-3.8-1.29-15.39-7.19-32.02-6.44-48.35-7.34-3.27-.18-5.43-1.25-7.34-3.66-3.12-3.95-5.13-8.26-5.7-13.36-.56-4.99-1.66-9.91-2.6-15.29 1.98-.2 3.92-.47 5.87-.58 9.16-.48 18.31-.98 27.48-1.28 1.39-.05 3.16.53 4.15 1.46 6.52 6.08 14.17 5.88 22.07 4.16 1.05-.23 2.01-1.33 2.81-2.21 7.55-8.38 12.57-18.13 15.62-28.95 1.67-5.91 3.77-11.73 5.09-17.71 2.2-9.9 6.49-18.63 12.7-26.63 4.93-6.35 9.22-13.21 13.88-19.77 4.74-6.66 8.97-13.54 12.47-20.98 3.12-6.64 7.26-12.84 11.3-19 8.66-13.2 12.74-28.24 17.7-42.94 1.53-4.54 3.04-9.09 4.54-13.56 12.6-.09 17.38 6.73 16.43 15.51-.82 7.55-1.04 15.17-1.33 22.76-.07 1.71.46 3.53 1.09 5.15 3.29 8.4 7.64 16.31 13.87 22.8 6 6.26 8.56 13.69 9.73 21.89 2.27 15.94 4.31 31.91 6.76 47.82 1.73 11.2 4.53 22.13 11.14 31.67.45.64.86 1.31 1.36 1.91 5.71 6.94 6.65 7.28 14.74 3.61 14.75-6.7 30.61-9.79 46.04-14.27 21.57-6.25 43.24-12.17 64.87-18.23.43-.11.85-.19 1.58-.37zm-189.88-51.37c-.58.72-1.03 1.2-1.41 1.74-12.49 17.86-25 35.71-37.43 53.62-.86 1.23-1.35 2.8-1.7 4.29-1.82 7.82-2.82 16.06-9.08 21.92-3.1 2.9-3.57 5.74-2.73 9.74.63 3.01 1.89 4.32 4.67 5.09 21.97 6.14 43.16 4.03 63.52-6.07 8.45-4.19 15.47-9.57 18.18-19.65 1.29-4.8 1.3-7.81-2.77-10.68-6.06-4.28-9.17-10.48-10.82-17.52-1.78-7.61-3.42-15.25-5.24-22.84-2.07-8.67-6.5-15.59-15.19-19.64z" fill="#010101"/></svg>