<svg viewBox="0 0 400 400" xmlns="http://www.w3.org/2000/svg"><rect width="400" height="400" fill="white" /><path d="m374.8 390.4.4-.4c.7.5 1.3 1 1.8 1.4l-.5.5c-.5-.6-1.1-1.1-1.7-1.5zm1 7.3-.6-.3c.5-1.4 1.1-2.8 1.5-4.3.2.1.4.2.6.3-.5 1.3-1 2.8-1.5 4.3zm-.4-10.3.4-.4c.4.3 1 .8 1.7 1.4l-.5.5c-.4-.5-1-1-1.6-1.5zm2.5.3h1.7v-1h.6v1h3.5v-1h.6v1h1.8v.5h-1.8v1.4h-2v1h3.2v2h-3.2v.9h3.3v.5h-3.4c0 .3-.1.6-.1.9h4v.5h-3.7c.7.9 1.9 1.5 3.8 1.7-.1.2-.2.4-.3.6-2.1-.4-3.5-1.1-4-2.1-.4 1-1.8 1.7-4 2.2-.1-.2-.2-.4-.3-.6 2.1-.4 3.4-1 3.8-1.8h-3.4v-.5h3.6c.1-.3.1-.6.2-.9h-3.3v-.5h3.4c0-.3 0-.6 0-.9h-3.2v-2h3.3v-1h-2.1v-1.4h-1.7v-.5zm1.1 3.5v1h2.7c0-.3 0-.4 0-.4 0-.1 0-.2 0-.2 0-.1 0-.2 0-.3h-2.7zm1.2-3v.9h3.5v-.9zm4.7 3h-2.6v.6.4h2.6z" fill="#fbfcfa"/><path d="m393.6 386.7h.6v1.5h2.7v6.1h1.1v.6h-11v-.6h1.1v-6.1h2.7v-1.5h.6v1.5h2.1v-1.5zm-2.7 8.8.4.6c-1.2.6-2.5 1.3-3.8 1.9-.1-.2-.2-.4-.3-.6 1.2-.6 2.5-1.2 3.7-1.9zm-2.2-6.7v2.4h2.1v-2.4zm0 3v2.5h2.1v-2.5zm2.8-3v2.4h2.1v-2.4zm0 3v2.5h2.1v-2.5zm6 6.1c-1.4-.7-2.7-1.3-3.9-1.8l.3-.6c1.5.6 2.7 1.2 3.9 1.7zm-1.2-9.1h-2.1v2.4h2.1zm-2.1 3v2.5h2.1v-2.5z" fill="#fbfcfa"/><path d="m56.04 336.55c10.63-4.61 21.25-7.05 32.67-7.1 22.47-.09 44.95-.96 67.42-1.6 1.18-.03 2.61-.66 3.46-1.49 6.76-6.53 7.72-14.7 5.61-23.26-2.51-10.19-5.62-20.23-8.32-30.37-.44-1.63-.49-3.54-.13-5.19 1.48-6.65 3.69-13.18 4.68-19.89.99-6.7 1.05-13.57 1.17-20.37.39-21.71 1.28-43.36 4-64.95.78-6.2-.42-12.73-1.27-19.03-.69-5.11-.2-9.77 2.68-14.06 2.78-4.14 2.81-8.53 2.27-13.38-2.23-20.1-2.39-40.21 2.14-60.08 2.51-10.99 7.07-21.16 13.48-30.44 7.81 2.13 12.74 9.23 12.66 17.96-.06 6.69-.35 13.41.18 20.06.28 3.56 1.51 7.32 3.27 10.45 6.26 11.12 8.33 23.12 6.21 35.35-3.22 18.64-3.39 37.34-3.3 56.12.15 32.79-.04 65.59.12 98.38.03 5.17-1.16 9.91-2.66 14.72-1.74 5.54-3.75 11.06-4.71 16.75-.81 4.76-.84 9.83-.21 14.63 1.03 7.77 7.98 14.04 16.86 14.59 6.36.4 12.92-.39 19.22-1.58 10.86-2.05 21.57-4.91 32.39-7.2 1.79-.38 4.03-.05 5.73.71 8.28 3.66 16.55 7.37 24.62 11.46 7.39 3.75 14.24 2.36 21.06-1.2 1.38-.72 2.63-1.69 3.94-2.55 6.16-4.05 11.49-2.76 15.58 3.98-9.45 2.88-18.84 5.75-28.23 8.6-11.44 3.47-22.98 6.64-34.29 10.47-6.08 2.06-11.87 5.05-17.62 7.96-21.74 11.05-44.99 16.83-69.06 19.11-16.12 1.53-32.37 2.67-48.54 2.48-14.59-.17-29.15-2.37-43.72-3.75-1.06-.1-2.12-.67-3.07-1.21-9.93-5.6-19.88-11.18-29.72-16.95-1.34-.78-2.53-2.46-2.99-3.97-1.39-4.59-2.38-9.29-3.58-14.16z" fill="#010101"/></svg>